<?xml version="1.0" encoding="UTF-8"?>
<!--Generator: Apple Native CoreSVG 175-->
<!DOCTYPE svg
PUBLIC "-//W3C//DTD SVG 1.1//EN"
       "http://www.w3.org/Graphics/SVG/1.1/DTD/svg11.dtd">
<svg version="1.1" xmlns="http://www.w3.org/2000/svg" xmlns:xlink="http://www.w3.org/1999/xlink" width="3300" height="2200">
 <!--glyph: "uni100DD8.medium", point size: 100.0, font version: "17.0d11e1", template writer version: "65.1"-->
 <style>.hierarchical-0:secondary {fill:#4D4D4D}
.hierarchical-1:primary {fill:#212121}

.SFSymbolsPreview212121 {fill:#212121;opacity:1.0}
.SFSymbolsPreview4D4D4D {fill:#4D4D4D;opacity:1.0}
</style>
 <g id="Notes">
  <rect height="2200" id="artboard" style="fill:white;opacity:1" width="3300" x="0" y="0"/>
  <line style="fill:none;stroke:black;opacity:1;stroke-width:0.5;" x1="263" x2="3036" y1="292" y2="292"/>
  <text style="stroke:none;fill:black;font-family:sans-serif;font-size:13;font-weight:bold;" transform="matrix(1 0 0 1 263 322)">Weight/Scale Variations</text>
  <text style="stroke:none;fill:black;font-family:sans-serif;font-size:13;text-anchor:middle;" transform="matrix(1 0 0 1 559.711 322)">Ultralight</text>
  <text style="stroke:none;fill:black;font-family:sans-serif;font-size:13;text-anchor:middle;" transform="matrix(1 0 0 1 856.422 322)">Thin</text>
  <text style="stroke:none;fill:black;font-family:sans-serif;font-size:13;text-anchor:middle;" transform="matrix(1 0 0 1 1153.13 322)">Light</text>
  <text style="stroke:none;fill:black;font-family:sans-serif;font-size:13;text-anchor:middle;" transform="matrix(1 0 0 1 1449.84 322)">Regular</text>
  <text style="stroke:none;fill:black;font-family:sans-serif;font-size:13;text-anchor:middle;" transform="matrix(1 0 0 1 1746.56 322)">Medium</text>
  <text style="stroke:none;fill:black;font-family:sans-serif;font-size:13;text-anchor:middle;" transform="matrix(1 0 0 1 2043.27 322)">Semibold</text>
  <text style="stroke:none;fill:black;font-family:sans-serif;font-size:13;text-anchor:middle;" transform="matrix(1 0 0 1 2339.98 322)">Bold</text>
  <text style="stroke:none;fill:black;font-family:sans-serif;font-size:13;text-anchor:middle;" transform="matrix(1 0 0 1 2636.69 322)">Heavy</text>
  <text style="stroke:none;fill:black;font-family:sans-serif;font-size:13;text-anchor:middle;" transform="matrix(1 0 0 1 2933.4 322)">Black</text>
  <line style="fill:none;stroke:black;opacity:1;stroke-width:0.5;" x1="263" x2="3036" y1="1903" y2="1903"/>
  <g transform="matrix(1 0 0 1 263 1933)">
   <path d="M9.24805 0.830078Q10.8691 0.830078 12.2949 0.214844Q13.7207-0.400391 14.8096-1.49414Q15.8984-2.58789 16.5186-4.01367Q17.1387-5.43945 17.1387-7.05078Q17.1387-8.66211 16.5186-10.0879Q15.8984-11.5137 14.8047-12.6074Q13.7109-13.7012 12.2852-14.3164Q10.8594-14.9316 9.23828-14.9316Q7.62695-14.9316 6.20117-14.3164Q4.77539-13.7012 3.69141-12.6074Q2.60742-11.5137 1.9873-10.0879Q1.36719-8.66211 1.36719-7.05078Q1.36719-5.43945 1.9873-4.01367Q2.60742-2.58789 3.69629-1.49414Q4.78516-0.400391 6.21094 0.214844Q7.63672 0.830078 9.24805 0.830078ZM9.24805-0.654297Q7.91992-0.654297 6.7627-1.14746Q5.60547-1.64062 4.73145-2.51953Q3.85742-3.39844 3.36426-4.56055Q2.87109-5.72266 2.87109-7.05078Q2.87109-8.37891 3.35938-9.54102Q3.84766-10.7031 4.72168-11.582Q5.5957-12.4609 6.75293-12.9541Q7.91016-13.4473 9.23828-13.4473Q10.5762-13.4473 11.7334-12.9541Q12.8906-12.4609 13.7695-11.582Q14.6484-10.7031 15.1465-9.54102Q15.6445-8.37891 15.6445-7.05078Q15.6445-5.72266 15.1514-4.56055Q14.6582-3.39844 13.7842-2.51953Q12.9102-1.64062 11.748-1.14746Q10.5859-0.654297 9.24805-0.654297ZM5.6543-7.05078Q5.6543-6.72852 5.85938-6.52832Q6.06445-6.32812 6.40625-6.32812L8.51562-6.32812L8.51562-4.20898Q8.51562-3.88672 8.71094-3.67676Q8.90625-3.4668 9.23828-3.4668Q9.56055-3.4668 9.77051-3.67676Q9.98047-3.88672 9.98047-4.20898L9.98047-6.32812L12.0898-6.32812Q12.4219-6.32812 12.627-6.52832Q12.832-6.72852 12.832-7.05078Q12.832-7.38281 12.627-7.58789Q12.4219-7.79297 12.0898-7.79297L9.98047-7.79297L9.98047-9.90234Q9.98047-10.2344 9.77051-10.4443Q9.56055-10.6543 9.23828-10.6543Q8.90625-10.6543 8.71094-10.4443Q8.51562-10.2344 8.51562-9.90234L8.51562-7.79297L6.40625-7.79297Q6.06445-7.79297 5.85938-7.58789Q5.6543-7.38281 5.6543-7.05078Z"/>
  </g>
  <g transform="matrix(1 0 0 1 281.867 1933)">
   <path d="M11.709 2.91016Q13.75 2.91016 15.5518 2.12891Q17.3535 1.34766 18.7305-0.0292969Q20.1074-1.40625 20.8887-3.20801Q21.6699-5.00977 21.6699-7.05078Q21.6699-9.0918 20.8887-10.8936Q20.1074-12.6953 18.7305-14.0723Q17.3535-15.4492 15.5469-16.2305Q13.7402-17.0117 11.6992-17.0117Q9.6582-17.0117 7.85645-16.2305Q6.05469-15.4492 4.68262-14.0723Q3.31055-12.6953 2.5293-10.8936Q1.74805-9.0918 1.74805-7.05078Q1.74805-5.00977 2.5293-3.20801Q3.31055-1.40625 4.6875-0.0292969Q6.06445 1.34766 7.86621 2.12891Q9.66797 2.91016 11.709 2.91016ZM11.709 1.25Q9.98047 1.25 8.47656 0.605469Q6.97266-0.0390625 5.83496-1.17676Q4.69727-2.31445 4.05762-3.81836Q3.41797-5.32227 3.41797-7.05078Q3.41797-8.7793 4.05762-10.2832Q4.69727-11.7871 5.83008-12.9297Q6.96289-14.0723 8.4668-14.7119Q9.9707-15.3516 11.6992-15.3516Q13.4277-15.3516 14.9316-14.7119Q16.4355-14.0723 17.5781-12.9297Q18.7207-11.7871 19.3652-10.2832Q20.0098-8.7793 20.0098-7.05078Q20.0098-5.32227 19.3701-3.81836Q18.7305-2.31445 17.5928-1.17676Q16.4551-0.0390625 14.9463 0.605469Q13.4375 1.25 11.709 1.25ZM7.17773-7.05078Q7.17773-6.69922 7.41211-6.47461Q7.64648-6.25 8.01758-6.25L10.8887-6.25L10.8887-3.36914Q10.8887-2.99805 11.1133-2.76855Q11.3379-2.53906 11.6895-2.53906Q12.0605-2.53906 12.29-2.76855Q12.5195-2.99805 12.5195-3.36914L12.5195-6.25L15.4004-6.25Q15.7715-6.25 16.001-6.47461Q16.2305-6.69922 16.2305-7.05078Q16.2305-7.42188 16.001-7.65137Q15.7715-7.88086 15.4004-7.88086L12.5195-7.88086L12.5195-10.752Q12.5195-11.1328 12.29-11.3623Q12.0605-11.5918 11.6895-11.5918Q11.3379-11.5918 11.1133-11.3574Q10.8887-11.123 10.8887-10.752L10.8887-7.88086L8.01758-7.88086Q7.63672-7.88086 7.40723-7.65137Q7.17773-7.42188 7.17773-7.05078Z"/>
  </g>
  <g transform="matrix(1 0 0 1 305.646 1933)">
   <path d="M14.9707 5.66406Q17.0605 5.66406 18.96 5.01465Q20.8594 4.36523 22.4512 3.19336Q24.043 2.02148 25.2197 0.429688Q26.3965-1.16211 27.0459-3.06641Q27.6953-4.9707 27.6953-7.05078Q27.6953-9.14062 27.0459-11.04Q26.3965-12.9395 25.2197-14.5312Q24.043-16.123 22.4512-17.2998Q20.8594-18.4766 18.9551-19.126Q17.0508-19.7754 14.9609-19.7754Q12.8711-19.7754 10.9717-19.126Q9.07227-18.4766 7.48535-17.2998Q5.89844-16.123 4.72168-14.5312Q3.54492-12.9395 2.90039-11.04Q2.25586-9.14062 2.25586-7.05078Q2.25586-4.9707 2.90527-3.06641Q3.55469-1.16211 4.72656 0.429688Q5.89844 2.02148 7.49023 3.19336Q9.08203 4.36523 10.9814 5.01465Q12.8809 5.66406 14.9707 5.66406ZM14.9707 3.84766Q13.1641 3.84766 11.5283 3.2959Q9.89258 2.74414 8.53516 1.74805Q7.17773 0.751953 6.17676-0.610352Q5.17578-1.97266 4.62891-3.6084Q4.08203-5.24414 4.08203-7.05078Q4.08203-8.86719 4.62891-10.5029Q5.17578-12.1387 6.17188-13.501Q7.16797-14.8633 8.52539-15.8594Q9.88281-16.8555 11.5186-17.4023Q13.1543-17.9492 14.9609-17.9492Q16.7773-17.9492 18.4131-17.4023Q20.0488-16.8555 21.4111-15.8594Q22.7734-14.8633 23.7695-13.501Q24.7656-12.1387 25.3174-10.5029Q25.8691-8.86719 25.8691-7.05078Q25.8789-5.24414 25.332-3.6084Q24.7852-1.97266 23.7842-0.610352Q22.7832 0.751953 21.4209 1.74805Q20.0586 2.74414 18.4229 3.2959Q16.7871 3.84766 14.9707 3.84766ZM9.19922-7.05078Q9.19922-6.66992 9.45801-6.4209Q9.7168-6.17188 10.1172-6.17188L14.0625-6.17188L14.0625-2.2168Q14.0625-1.81641 14.3115-1.55762Q14.5605-1.29883 14.9512-1.29883Q15.3516-1.29883 15.6104-1.55273Q15.8691-1.80664 15.8691-2.2168L15.8691-6.17188L19.8242-6.17188Q20.2246-6.17188 20.4785-6.4209Q20.7324-6.66992 20.7324-7.05078Q20.7324-7.46094 20.4785-7.71484Q20.2246-7.96875 19.8242-7.96875L15.8691-7.96875L15.8691-11.9141Q15.8691-12.3242 15.6104-12.583Q15.3516-12.8418 14.9512-12.8418Q14.5605-12.8418 14.3115-12.583Q14.0625-12.3242 14.0625-11.9141L14.0625-7.96875L10.1172-7.96875Q9.70703-7.96875 9.45312-7.71484Q9.19922-7.46094 9.19922-7.05078Z"/>
  </g>
  <text style="stroke:none;fill:black;font-family:sans-serif;font-size:13;font-weight:bold;" transform="matrix(1 0 0 1 263 1953)">Design Variations</text>
  <text style="stroke:none;fill:black;font-family:sans-serif;font-size:13;" transform="matrix(1 0 0 1 263 1971)">Symbols are supported in up to nine weights and three scales.</text>
  <text style="stroke:none;fill:black;font-family:sans-serif;font-size:13;" transform="matrix(1 0 0 1 263 1989)">For optimal layout with text and other symbols, vertically align</text>
  <text style="stroke:none;fill:black;font-family:sans-serif;font-size:13;" transform="matrix(1 0 0 1 263 2007)">symbols with the adjacent text.</text>
  <line style="fill:none;stroke:#00AEEF;stroke-width:0.5;opacity:1.0;" x1="776" x2="776" y1="1919" y2="1933"/>
  <g transform="matrix(1 0 0 1 776 1933)">
   <path d="M3.31055 0.15625Q3.70117 0.15625 3.91602-0.00976562Q4.13086-0.175781 4.26758-0.585938L5.52734-4.0332L11.2891-4.0332L12.5488-0.585938Q12.6855-0.175781 12.9004-0.00976562Q13.1152 0.15625 13.4961 0.15625Q13.8867 0.15625 14.1162-0.0585938Q14.3457-0.273438 14.3457-0.644531Q14.3457-0.869141 14.2383-1.17188L9.6582-13.3691Q9.48242-13.8184 9.17969-14.043Q8.87695-14.2676 8.4082-14.2676Q7.5-14.2676 7.17773-13.3789L2.59766-1.16211Q2.49023-0.859375 2.49023-0.634766Q2.49023-0.263672 2.70996-0.0537109Q2.92969 0.15625 3.31055 0.15625ZM6.00586-5.51758L8.37891-12.0898L8.42773-12.0898L10.8008-5.51758Z"/>
  </g>
  <line style="fill:none;stroke:#00AEEF;stroke-width:0.5;opacity:1.0;" x1="793.197" x2="793.197" y1="1919" y2="1933"/>
  <text style="stroke:none;fill:black;font-family:sans-serif;font-size:13;font-weight:bold;" transform="matrix(1 0 0 1 776 1953)">Margins</text>
  <text style="stroke:none;fill:black;font-family:sans-serif;font-size:13;" transform="matrix(1 0 0 1 776 1971)">Leading and trailing margins on the left and right side of each symbol</text>
  <text style="stroke:none;fill:black;font-family:sans-serif;font-size:13;" transform="matrix(1 0 0 1 776 1989)">can be adjusted by modifying the x-location of the margin guidelines.</text>
  <text style="stroke:none;fill:black;font-family:sans-serif;font-size:13;" transform="matrix(1 0 0 1 776 2007)">Modifications are automatically applied proportionally to all</text>
  <text style="stroke:none;fill:black;font-family:sans-serif;font-size:13;" transform="matrix(1 0 0 1 776 2025)">scales and weights.</text>
  <g transform="matrix(1 0 0 1 1289 1933)">
   <path d="M2.8418 1.86523L4.54102 3.57422Q5.18555 4.22852 5.90332 4.17969Q6.62109 4.13086 7.31445 3.35938L18.0078-8.42773L17.041-9.4043L6.42578 2.27539Q6.16211 2.57812 5.89355 2.61719Q5.625 2.65625 5.27344 2.30469L4.10156 1.14258Q3.75 0.791016 3.79395 0.522461Q3.83789 0.253906 4.14062-0.0195312L15.6152-10.8203L14.6387-11.7871L3.04688-0.898438Q2.30469-0.214844 2.25098 0.498047Q2.19727 1.21094 2.8418 1.86523ZM9.25781-16.3281Q8.94531-16.0254 8.90625-15.6348Q8.86719-15.2441 9.04297-14.9512Q9.21875-14.6777 9.55566-14.541Q9.89258-14.4043 10.3809-14.5215Q11.4746-14.7754 12.5977-14.7314Q13.7207-14.6875 14.7949-13.9844L14.209-12.5293Q13.9551-11.9043 14.0674-11.4404Q14.1797-10.9766 14.5801-10.5664L16.875-8.25195Q17.2363-7.88086 17.5781-7.82227Q17.9199-7.76367 18.3398-7.8418L19.4043-8.03711L20.0684-7.36328L20.0293-6.80664Q20-6.43555 20.1221-6.12305Q20.2441-5.81055 20.6055-5.44922L21.3672-4.70703Q21.7285-4.3457 22.1533-4.33105Q22.5781-4.31641 22.9297-4.66797L25.8398-7.58789Q26.1914-7.93945 26.1816-8.35449Q26.1719-8.76953 25.8105-9.13086L25.0391-9.89258Q24.6875-10.2539 24.3799-10.3857Q24.0723-10.5176 23.7109-10.4883L23.1348-10.4395L22.4902-11.0742L22.7344-12.1973Q22.832-12.6172 22.6953-12.9834Q22.5586-13.3496 22.1191-13.7891L19.9219-15.9766Q18.6719-17.2168 17.2607-17.8369Q15.8496-18.457 14.4189-18.4814Q12.9883-18.5059 11.665-17.959Q10.3418-17.4121 9.25781-16.3281ZM10.752-15.957Q11.6602-16.6211 12.7002-16.9043Q13.7402-17.1875 14.8047-17.085Q15.8691-16.9824 16.8701-16.5137Q17.8711-16.0449 18.7012-15.2051L21.1328-12.793Q21.3086-12.6172 21.3525-12.4512Q21.3965-12.2852 21.3379-12.0312L21.0156-10.5469L22.5195-9.0625L23.5059-9.12109Q23.6914-9.13086 23.7891-9.09668Q23.8867-9.0625 24.0332-8.91602L24.6094-8.33984L22.168-5.89844L21.5918-6.47461Q21.4453-6.62109 21.4062-6.71875Q21.3672-6.81641 21.377-7.01172L21.4453-7.98828L19.9512-9.47266L18.4277-9.21875Q18.1836-9.16992 18.042-9.2041Q17.9004-9.23828 17.7148-9.41406L15.7129-11.416Q15.5176-11.5918 15.4932-11.7529Q15.4688-11.9141 15.5859-12.1875L16.4648-14.2773Q15.293-15.3711 13.8281-15.791Q12.3633-16.2109 10.8398-15.7617Q10.7227-15.7324 10.6885-15.8057Q10.6543-15.8789 10.752-15.957Z"/>
  </g>
  <text style="stroke:none;fill:black;font-family:sans-serif;font-size:13;font-weight:bold;" transform="matrix(1 0 0 1 1289 1953)">Exporting</text>
  <text style="stroke:none;fill:black;font-family:sans-serif;font-size:13;" transform="matrix(1 0 0 1 1289 1971)">Symbols should be outlined when exporting to ensure the</text>
  <text style="stroke:none;fill:black;font-family:sans-serif;font-size:13;" transform="matrix(1 0 0 1 1289 1989)">design is preserved when submitting to Xcode.</text>
  <text id="template-version" style="stroke:none;fill:black;font-family:sans-serif;font-size:13;text-anchor:end;" transform="matrix(1 0 0 1 3036 1933)">Template v.3.0</text>
  <text style="stroke:none;fill:black;font-family:sans-serif;font-size:13;text-anchor:end;" transform="matrix(1 0 0 1 3036 1951)">Requires Xcode 13 or greater</text>
  <text id="descriptive-name" style="stroke:none;fill:black;font-family:sans-serif;font-size:13;text-anchor:end;" transform="matrix(1 0 0 1 3036 1969)">Generated from tv.inset.filled</text>
  <text style="stroke:none;fill:black;font-family:sans-serif;font-size:13;text-anchor:end;" transform="matrix(1 0 0 1 3036 1987)">Typeset at 100 points</text>
  <text style="stroke:none;fill:black;font-family:sans-serif;font-size:13;" transform="matrix(1 0 0 1 263 726)">Small</text>
  <text style="stroke:none;fill:black;font-family:sans-serif;font-size:13;" transform="matrix(1 0 0 1 263 1156)">Medium</text>
  <text style="stroke:none;fill:black;font-family:sans-serif;font-size:13;" transform="matrix(1 0 0 1 263 1586)">Large</text>
 </g>
 <g id="Guides">
  <g id="H-reference" style="fill:#27AAE1;stroke:none;" transform="matrix(1 0 0 1 339 696)">
   <path d="M0.976562 0L3.66211 0L29.3457-67.1387L30.0293-67.1387L30.0293-70.459L28.125-70.459ZM11.6699-24.4629L46.9727-24.4629L46.2402-26.709L12.4512-26.709ZM55.127 0L57.7637 0L30.6152-70.459L29.4434-70.459L29.4434-67.1387Z"/>
  </g>
  <line id="Baseline-S" style="fill:none;stroke:#27AAE1;opacity:1;stroke-width:0.5;" x1="263" x2="3036" y1="696" y2="696"/>
  <line id="Capline-S" style="fill:none;stroke:#27AAE1;opacity:1;stroke-width:0.5;" x1="263" x2="3036" y1="625.541" y2="625.541"/>
  <g id="H-reference" style="fill:#27AAE1;stroke:none;" transform="matrix(1 0 0 1 339 1126)">
   <path d="M0.976562 0L3.66211 0L29.3457-67.1387L30.0293-67.1387L30.0293-70.459L28.125-70.459ZM11.6699-24.4629L46.9727-24.4629L46.2402-26.709L12.4512-26.709ZM55.127 0L57.7637 0L30.6152-70.459L29.4434-70.459L29.4434-67.1387Z"/>
  </g>
  <line id="Baseline-M" style="fill:none;stroke:#27AAE1;opacity:1;stroke-width:0.5;" x1="263" x2="3036" y1="1126" y2="1126"/>
  <line id="Capline-M" style="fill:none;stroke:#27AAE1;opacity:1;stroke-width:0.5;" x1="263" x2="3036" y1="1055.54" y2="1055.54"/>
  <g id="H-reference" style="fill:#27AAE1;stroke:none;" transform="matrix(1 0 0 1 339 1556)">
   <path d="M0.976562 0L3.66211 0L29.3457-67.1387L30.0293-67.1387L30.0293-70.459L28.125-70.459ZM11.6699-24.4629L46.9727-24.4629L46.2402-26.709L12.4512-26.709ZM55.127 0L57.7637 0L30.6152-70.459L29.4434-70.459L29.4434-67.1387Z"/>
  </g>
  <line id="Baseline-L" style="fill:none;stroke:#27AAE1;opacity:1;stroke-width:0.5;" x1="263" x2="3036" y1="1556" y2="1556"/>
  <line id="Capline-L" style="fill:none;stroke:#27AAE1;opacity:1;stroke-width:0.5;" x1="263" x2="3036" y1="1485.54" y2="1485.54"/>
  <line id="left-margin-Ultralight-S" style="fill:none;stroke:#00AEEF;stroke-width:0.5;opacity:1.0;" x1="505.536" x2="505.536" y1="600.785" y2="720.121"/>
  <line id="right-margin-Ultralight-S" style="fill:none;stroke:#00AEEF;stroke-width:0.5;opacity:1.0;" x1="613.886" x2="613.886" y1="600.785" y2="720.121"/>
  <line id="left-margin-Thin-S" style="fill:none;stroke:#00AEEF;stroke-width:0.5;opacity:1.0;" x1="801.295" x2="801.295" y1="600.785" y2="720.121"/>
  <line id="right-margin-Thin-S" style="fill:none;stroke:#00AEEF;stroke-width:0.5;opacity:1.0;" x1="911.549" x2="911.549" y1="600.785" y2="720.121"/>
  <line id="left-margin-Light-S" style="fill:none;stroke:#00AEEF;stroke-width:0.5;opacity:1.0;" x1="1096.18" x2="1096.18" y1="600.785" y2="720.121"/>
  <line id="right-margin-Light-S" style="fill:none;stroke:#00AEEF;stroke-width:0.5;opacity:1.0;" x1="1210.09" x2="1210.09" y1="600.785" y2="720.121"/>
  <line id="left-margin-Regular-S" style="fill:none;stroke:#00AEEF;stroke-width:0.5;opacity:1.0;" x1="1391.49" x2="1391.49" y1="600.785" y2="720.121"/>
  <line id="right-margin-Regular-S" style="fill:none;stroke:#00AEEF;stroke-width:0.5;opacity:1.0;" x1="1508.19" x2="1508.19" y1="600.785" y2="720.121"/>
  <line id="left-margin-Medium-S" style="fill:none;stroke:#00AEEF;stroke-width:0.5;opacity:1.0;" x1="1687.45" x2="1687.45" y1="600.785" y2="720.121"/>
  <line id="right-margin-Medium-S" style="fill:none;stroke:#00AEEF;stroke-width:0.5;opacity:1.0;" x1="1805.66" x2="1805.66" y1="600.785" y2="720.121"/>
  <line id="left-margin-Semibold-S" style="fill:none;stroke:#00AEEF;stroke-width:0.5;opacity:1.0;" x1="1983.6" x2="1983.6" y1="600.785" y2="720.121"/>
  <line id="right-margin-Semibold-S" style="fill:none;stroke:#00AEEF;stroke-width:0.5;opacity:1.0;" x1="2102.93" x2="2102.93" y1="600.785" y2="720.121"/>
  <line id="left-margin-Bold-S" style="fill:none;stroke:#00AEEF;stroke-width:0.5;opacity:1.0;" x1="2279.55" x2="2279.55" y1="600.785" y2="720.121"/>
  <line id="right-margin-Bold-S" style="fill:none;stroke:#00AEEF;stroke-width:0.5;opacity:1.0;" x1="2400.4" x2="2400.4" y1="600.785" y2="720.121"/>
  <line id="left-margin-Heavy-S" style="fill:none;stroke:#00AEEF;stroke-width:0.5;opacity:1.0;" x1="2575.17" x2="2575.17" y1="600.785" y2="720.121"/>
  <line id="right-margin-Heavy-S" style="fill:none;stroke:#00AEEF;stroke-width:0.5;opacity:1.0;" x1="2698.21" x2="2698.21" y1="600.785" y2="720.121"/>
  <line id="left-margin-Black-S" style="fill:none;stroke:#00AEEF;stroke-width:0.5;opacity:1.0;" x1="2870.9" x2="2870.9" y1="600.785" y2="720.121"/>
  <line id="right-margin-Black-S" style="fill:none;stroke:#00AEEF;stroke-width:0.5;opacity:1.0;" x1="2995.9" x2="2995.9" y1="600.785" y2="720.121"/>
  <line id="left-margin-Ultralight-M" style="fill:none;stroke:#00AEEF;stroke-width:0.5;opacity:1.0;" x1="490.937" x2="490.937" y1="1030.79" y2="1150.12"/>
  <line id="right-margin-Ultralight-M" style="fill:none;stroke:#00AEEF;stroke-width:0.5;opacity:1.0;" x1="628.486" x2="628.486" y1="1030.79" y2="1150.12"/>
  <line id="left-margin-Thin-M" style="fill:none;stroke:#00AEEF;stroke-width:0.5;opacity:1.0;" x1="786.598" x2="786.598" y1="1030.79" y2="1150.12"/>
  <line id="right-margin-Thin-M" style="fill:none;stroke:#00AEEF;stroke-width:0.5;opacity:1.0;" x1="926.246" x2="926.246" y1="1030.79" y2="1150.12"/>
  <line id="left-margin-Light-M" style="fill:none;stroke:#00AEEF;stroke-width:0.5;opacity:1.0;" x1="1081.21" x2="1081.21" y1="1030.79" y2="1150.12"/>
  <line id="right-margin-Light-M" style="fill:none;stroke:#00AEEF;stroke-width:0.5;opacity:1.0;" x1="1225.06" x2="1225.06" y1="1030.79" y2="1150.12"/>
  <line id="left-margin-Regular-M" style="fill:none;stroke:#00AEEF;stroke-width:0.5;opacity:1.0;" x1="1376.36" x2="1376.36" y1="1030.79" y2="1150.12"/>
  <line id="right-margin-Regular-M" style="fill:none;stroke:#00AEEF;stroke-width:0.5;opacity:1.0;" x1="1523.33" x2="1523.33" y1="1030.79" y2="1150.12"/>
  <line id="left-margin-Medium-M" style="fill:none;stroke:#00AEEF;stroke-width:0.5;opacity:1.0;" x1="1672.02" x2="1672.02" y1="1030.79" y2="1150.12"/>
  <line id="right-margin-Medium-M" style="fill:none;stroke:#00AEEF;stroke-width:0.5;opacity:1.0;" x1="1821.09" x2="1821.09" y1="1030.79" y2="1150.12"/>
  <line id="left-margin-Semibold-M" style="fill:none;stroke:#00AEEF;stroke-width:0.5;opacity:1.0;" x1="1967.92" x2="1967.92" y1="1030.79" y2="1150.12"/>
  <line id="right-margin-Semibold-M" style="fill:none;stroke:#00AEEF;stroke-width:0.5;opacity:1.0;" x1="2118.61" x2="2118.61" y1="1030.79" y2="1150.12"/>
  <line id="left-margin-Bold-M" style="fill:none;stroke:#00AEEF;stroke-width:0.5;opacity:1.0;" x1="2263.56" x2="2263.56" y1="1030.79" y2="1150.12"/>
  <line id="right-margin-Bold-M" style="fill:none;stroke:#00AEEF;stroke-width:0.5;opacity:1.0;" x1="2416.39" x2="2416.39" y1="1030.79" y2="1150.12"/>
  <line id="left-margin-Heavy-M" style="fill:none;stroke:#00AEEF;stroke-width:0.5;opacity:1.0;" x1="2558.73" x2="2558.73" y1="1030.79" y2="1150.12"/>
  <line id="right-margin-Heavy-M" style="fill:none;stroke:#00AEEF;stroke-width:0.5;opacity:1.0;" x1="2714.64" x2="2714.64" y1="1030.79" y2="1150.12"/>
  <line id="left-margin-Black-M" style="fill:none;stroke:#00AEEF;stroke-width:0.5;opacity:1.0;" x1="2854.05" x2="2854.05" y1="1030.79" y2="1150.12"/>
  <line id="right-margin-Black-M" style="fill:none;stroke:#00AEEF;stroke-width:0.5;opacity:1.0;" x1="3012.75" x2="3012.75" y1="1030.79" y2="1150.12"/>
  <line id="left-margin-Ultralight-L" style="fill:none;stroke:#00AEEF;stroke-width:0.5;opacity:1.0;" x1="471.454" x2="471.454" y1="1460.79" y2="1580.12"/>
  <line id="right-margin-Ultralight-L" style="fill:none;stroke:#00AEEF;stroke-width:0.5;opacity:1.0;" x1="647.968" x2="647.968" y1="1460.79" y2="1580.12"/>
  <line id="left-margin-Thin-L" style="fill:none;stroke:#00AEEF;stroke-width:0.5;opacity:1.0;" x1="766.969" x2="766.969" y1="1460.79" y2="1580.12"/>
  <line id="right-margin-Thin-L" style="fill:none;stroke:#00AEEF;stroke-width:0.5;opacity:1.0;" x1="945.875" x2="945.875" y1="1460.79" y2="1580.12"/>
  <line id="left-margin-Light-L" style="fill:none;stroke:#00AEEF;stroke-width:0.5;opacity:1.0;" x1="1061.36" x2="1061.36" y1="1460.79" y2="1580.12"/>
  <line id="right-margin-Light-L" style="fill:none;stroke:#00AEEF;stroke-width:0.5;opacity:1.0;" x1="1244.91" x2="1244.91" y1="1460.79" y2="1580.12"/>
  <line id="left-margin-Regular-L" style="fill:none;stroke:#00AEEF;stroke-width:0.5;opacity:1.0;" x1="1356.31" x2="1356.31" y1="1460.79" y2="1580.12"/>
  <line id="right-margin-Regular-L" style="fill:none;stroke:#00AEEF;stroke-width:0.5;opacity:1.0;" x1="1543.37" x2="1543.37" y1="1460.79" y2="1580.12"/>
  <line id="left-margin-Medium-L" style="fill:none;stroke:#00AEEF;stroke-width:0.5;opacity:1.0;" x1="1651.66" x2="1651.66" y1="1460.79" y2="1580.12"/>
  <line id="right-margin-Medium-L" style="fill:none;stroke:#00AEEF;stroke-width:0.5;opacity:1.0;" x1="1841.45" x2="1841.45" y1="1460.79" y2="1580.12"/>
  <line id="left-margin-Semibold-L" style="fill:none;stroke:#00AEEF;stroke-width:0.5;opacity:1.0;" x1="1947.32" x2="1947.32" y1="1460.79" y2="1580.12"/>
  <line id="right-margin-Semibold-L" style="fill:none;stroke:#00AEEF;stroke-width:0.5;opacity:1.0;" x1="2139.21" x2="2139.21" y1="1460.79" y2="1580.12"/>
  <line id="left-margin-Bold-L" style="fill:none;stroke:#00AEEF;stroke-width:0.5;opacity:1.0;" x1="2242.64" x2="2242.64" y1="1460.79" y2="1580.12"/>
  <line id="right-margin-Bold-L" style="fill:none;stroke:#00AEEF;stroke-width:0.5;opacity:1.0;" x1="2437.32" x2="2437.32" y1="1460.79" y2="1580.12"/>
  <line id="left-margin-Heavy-L" style="fill:none;stroke:#00AEEF;stroke-width:0.5;opacity:1.0;" x1="2537.35" x2="2537.35" y1="1460.79" y2="1580.12"/>
  <line id="right-margin-Heavy-L" style="fill:none;stroke:#00AEEF;stroke-width:0.5;opacity:1.0;" x1="2736.03" x2="2736.03" y1="1460.79" y2="1580.12"/>
  <line id="left-margin-Black-L" style="fill:none;stroke:#00AEEF;stroke-width:0.5;opacity:1.0;" x1="2832.25" x2="2832.25" y1="1460.79" y2="1580.12"/>
  <line id="right-margin-Black-L" style="fill:none;stroke:#00AEEF;stroke-width:0.5;opacity:1.0;" x1="3034.55" x2="3034.55" y1="1460.79" y2="1580.12"/>
 </g>
 <g id="Symbols">
  <g id="Black-L" transform="matrix(1 0 0 1 2832.25 1556)">
   <path class="hierarchical-0:secondary SFSymbolsPreview4D4D4D" d="M37.6953 13.1836L164.6 13.1836Q174.951 13.1836 180.591 7.54395Q186.23 1.9043 186.23-8.44727L186.23-82.373Q186.23-92.6758 180.591-98.3398Q174.951-104.004 164.6-104.004L37.6953-104.004Q27.3926-104.004 21.7285-98.3398Q16.0645-92.6758 16.0645-82.373L16.0645-8.44727Q16.0645 1.9043 21.7285 7.54395Q27.3926 13.1836 37.6953 13.1836ZM40.1855-5.76172Q37.5977-5.76172 36.3037-6.95801Q35.0098-8.1543 35.0098-10.9375L35.0098-79.8828Q35.0098-82.6172 36.3037-83.8379Q37.5977-85.0586 40.1855-85.0586L162.109-85.0586Q164.697-85.0586 165.991-83.8379Q167.285-82.6172 167.285-79.8828L167.285-10.9375Q167.285-8.1543 165.991-6.95801Q164.697-5.76172 162.109-5.76172ZM66.9922 37.9395L135.352 37.9395Q138.672 37.9395 141.016 35.5225Q143.359 33.1055 143.359 29.9805Q143.359 26.8066 141.016 24.3896Q138.672 21.9727 135.352 21.9727L66.9922 21.9727Q63.623 21.9727 61.3037 24.3896Q58.9844 26.8066 58.9844 29.9805Q58.9844 33.1055 61.3037 35.5225Q63.623 37.9395 66.9922 37.9395Z"/>
   <path class="hierarchical-1:primary SFSymbolsPreview212121" d="M49.0234-17.1387L153.271-17.1387Q154.688-17.1387 155.298-17.7979Q155.908-18.457 155.908-19.873L155.908-70.9473Q155.908-72.3633 155.298-72.998Q154.688-73.6328 153.271-73.6328L49.0234-73.6328Q47.6562-73.6328 47.0459-72.998Q46.4355-72.3633 46.4355-70.9473L46.4355-19.873Q46.4355-18.457 47.0459-17.7979Q47.6562-17.1387 49.0234-17.1387Z"/>
  </g>
  <g id="Heavy-L" transform="matrix(1 0 0 1 2537.35 1556)">
   <path class="hierarchical-0:secondary SFSymbolsPreview4D4D4D" d="M36.1816 12.0117L162.5 12.0117Q172.217 12.0117 177.417 6.81152Q182.617 1.61133 182.617-8.10547L182.617-81.6895Q182.617-91.3086 177.417-96.5576Q172.217-101.807 162.5-101.807L36.1816-101.807Q26.5625-101.807 21.3135-96.5576Q16.0645-91.3086 16.0645-81.6895L16.0645-8.10547Q16.0645 1.61133 21.3135 6.81152Q26.5625 12.0117 36.1816 12.0117ZM38.1348-4.49219Q35.3516-4.49219 33.96-5.81055Q32.5684-7.12891 32.5684-10.0586L32.5684-79.7363Q32.5684-82.6172 33.96-83.96Q35.3516-85.3027 38.1348-85.3027L160.547-85.3027Q163.33-85.3027 164.722-83.96Q166.113-82.6172 166.113-79.7363L166.113-10.0586Q166.113-7.12891 164.722-5.81055Q163.33-4.49219 160.547-4.49219ZM65.8691 35.6445L132.861 35.6445Q135.84 35.6445 137.915 33.4961Q139.99 31.3477 139.99 28.5645Q139.99 25.6836 137.915 23.5352Q135.84 21.3867 132.861 21.3867L65.8691 21.3867Q62.8906 21.3867 60.8154 23.5352Q58.7402 25.6836 58.7402 28.5645Q58.7402 31.3477 60.8154 33.4961Q62.8906 35.6445 65.8691 35.6445Z"/>
   <path class="hierarchical-1:primary SFSymbolsPreview212121" d="M46.0938-15.0391L152.686-15.0391Q154.199-15.0391 154.907-15.7715Q155.615-16.5039 155.615-18.0664L155.615-71.7285Q155.615-73.291 154.907-73.999Q154.199-74.707 152.686-74.707L46.0938-74.707Q44.5801-74.707 43.8721-73.999Q43.1641-73.291 43.1641-71.7285L43.1641-18.0664Q43.1641-16.5039 43.8721-15.7715Q44.5801-15.0391 46.0938-15.0391Z"/>
  </g>
  <g id="Bold-L" transform="matrix(1 0 0 1 2242.64 1556)">
   <path class="hierarchical-0:secondary SFSymbolsPreview4D4D4D" d="M34.5215 10.7422L160.205 10.7422Q169.141 10.7422 173.877 6.00586Q178.613 1.26953 178.613-7.71484L178.613-80.9082Q178.613-89.8438 173.877-94.6045Q169.141-99.3652 160.205-99.3652L34.5215-99.3652Q25.5859-99.3652 20.8252-94.6045Q16.0645-89.8438 16.0645-80.9082L16.0645-7.71484Q16.0645 1.26953 20.8252 6.00586Q25.5859 10.7422 34.5215 10.7422ZM35.8398-3.07617Q32.8613-3.07617 31.3721-4.5166Q29.8828-5.95703 29.8828-9.0332L29.8828-79.5898Q29.8828-82.666 31.3721-84.1064Q32.8613-85.5469 35.8398-85.5469L158.838-85.5469Q161.816-85.5469 163.33-84.1064Q164.844-82.666 164.844-79.5898L164.844-9.0332Q164.844-5.95703 163.33-4.5166Q161.816-3.07617 158.838-3.07617ZM64.6484 33.1055L130.078 33.1055Q132.666 33.1055 134.473 31.2744Q136.279 29.4434 136.279 26.9531Q136.279 24.4629 134.473 22.6318Q132.666 20.8008 130.078 20.8008L64.6484 20.8008Q62.0605 20.8008 60.2539 22.6318Q58.4473 24.4629 58.4473 26.9531Q58.4473 29.4434 60.2539 31.2744Q62.0605 33.1055 64.6484 33.1055Z"/>
   <path class="hierarchical-1:primary SFSymbolsPreview212121" d="M42.7734-12.6465L152.002-12.6465Q153.711-12.6465 154.492-13.4766Q155.273-14.3066 155.273-16.0645L155.273-72.6074Q155.273-74.3164 154.492-75.1221Q153.711-75.9277 152.002-75.9277L42.7734-75.9277Q41.1133-75.9277 40.3076-75.1221Q39.502-74.3164 39.502-72.6074L39.502-16.0645Q39.502-14.3066 40.3076-13.4766Q41.1133-12.6465 42.7734-12.6465Z"/>
  </g>
  <g id="Semibold-L" transform="matrix(1 0 0 1 1947.32 1556)">
   <path class="hierarchical-0:secondary SFSymbolsPreview4D4D4D" d="M33.3496 9.86328L158.594 9.86328Q166.992 9.86328 171.411 5.44434Q175.83 1.02539 175.83-7.4707L175.83-80.3711Q175.83-88.7695 171.411-93.2129Q166.992-97.6562 158.594-97.6562L33.3496-97.6562Q24.9512-97.6562 20.5078-93.2129Q16.0645-88.7695 16.0645-80.3711L16.0645-7.4707Q16.0645 1.02539 20.5078 5.44434Q24.9512 9.86328 33.3496 9.86328ZM34.2773-2.05078Q31.1523-2.05078 29.5654-3.61328Q27.9785-5.17578 27.9785-8.34961L27.9785-79.4434Q27.9785-82.666 29.5654-84.2041Q31.1523-85.7422 34.2773-85.7422L157.666-85.7422Q160.791-85.7422 162.354-84.2041Q163.916-82.666 163.916-79.4434L163.916-8.34961Q163.916-5.17578 162.354-3.61328Q160.791-2.05078 157.666-2.05078ZM63.8184 31.3477L128.174 31.3477Q130.469 31.3477 132.08 29.7119Q133.691 28.0762 133.691 25.8301Q133.691 23.6328 132.08 21.9971Q130.469 20.3613 128.174 20.3613L63.8184 20.3613Q61.4746 20.3613 59.8633 21.9971Q58.252 23.6328 58.252 25.8301Q58.252 28.0762 59.8633 29.7119Q61.4746 31.3477 63.8184 31.3477Z"/>
   <path class="hierarchical-1:primary SFSymbolsPreview212121" d="M40.4785-11.0352L151.514-11.0352Q153.32-11.0352 154.175-11.8896Q155.029-12.7441 155.029-14.6484L155.029-73.1934Q155.029-75.0488 154.175-75.9033Q153.32-76.7578 151.514-76.7578L40.4785-76.7578Q38.6719-76.7578 37.8174-75.9033Q36.9629-75.0488 36.9629-73.1934L36.9629-14.6484Q36.9629-12.7441 37.8174-11.8896Q38.6719-11.0352 40.4785-11.0352Z"/>
  </g>
  <g id="Medium-L" transform="matrix(1 0 0 1 1651.66 1556)">
   <path class="hierarchical-0:secondary SFSymbolsPreview4D4D4D" d="M32.4707 9.17969L157.373 9.17969Q165.381 9.17969 169.556 5.00488Q173.73 0.830078 173.73-7.22656L173.73-79.9805Q173.73-87.9883 169.556-92.1631Q165.381-96.3379 157.373-96.3379L32.4707-96.3379Q24.4141-96.3379 20.2393-92.1631Q16.0645-87.9883 16.0645-79.9805L16.0645-7.22656Q16.0645 0.830078 20.2393 5.00488Q24.4141 9.17969 32.4707 9.17969ZM33.0566-1.31836Q29.834-1.31836 28.1982-2.92969Q26.5625-4.54102 26.5625-7.8125L26.5625-79.3457Q26.5625-82.666 28.1982-84.2529Q29.834-85.8398 33.0566-85.8398L156.738-85.8398Q159.961-85.8398 161.597-84.2529Q163.232-82.666 163.232-79.3457L163.232-7.8125Q163.232-4.54102 161.597-2.92969Q159.961-1.31836 156.738-1.31836ZM63.1348 30.0293L126.709 30.0293Q128.76 30.0293 130.225 28.54Q131.689 27.0508 131.689 25Q131.689 22.9492 130.225 21.4844Q128.76 20.0195 126.709 20.0195L63.1348 20.0195Q61.084 20.0195 59.5947 21.4844Q58.1055 22.9492 58.1055 25Q58.1055 27.0508 59.5947 28.54Q61.084 30.0293 63.1348 30.0293Z"/>
   <path class="hierarchical-1:primary SFSymbolsPreview212121" d="M38.7207-9.76562L151.074-9.76562Q152.979-9.76562 153.906-10.6934Q154.834-11.6211 154.834-13.5742L154.834-73.6328Q154.834-75.5859 153.906-76.4893Q152.979-77.3926 151.074-77.3926L38.7207-77.3926Q36.8164-77.3926 35.9131-76.4893Q35.0098-75.5859 35.0098-73.6328L35.0098-13.5742Q35.0098-11.6211 35.9131-10.6934Q36.8164-9.76562 38.7207-9.76562Z"/>
  </g>
  <g id="Regular-L" transform="matrix(1 0 0 1 1356.31 1556)">
   <path class="hierarchical-0:secondary SFSymbolsPreview4D4D4D" d="M31.3477 8.30078L155.762 8.30078Q163.281 8.30078 167.139 4.44336Q170.996 0.585938 170.996-6.98242L170.996-79.4434Q170.996-86.9629 167.139-90.8203Q163.281-94.6777 155.762-94.6777L31.3477-94.6777Q23.7793-94.6777 19.9219-90.8203Q16.0645-86.9629 16.0645-79.4434L16.0645-6.98242Q16.0645 0.585938 19.9219 4.44336Q23.7793 8.30078 31.3477 8.30078ZM31.4941-0.341797Q28.125-0.341797 26.416-2.05078Q24.707-3.75977 24.707-7.12891L24.707-79.248Q24.707-82.666 26.416-84.3506Q28.125-86.0352 31.4941-86.0352L155.566-86.0352Q158.936-86.0352 160.645-84.3506Q162.354-82.666 162.354-79.248L162.354-7.12891Q162.354-3.75977 160.645-2.05078Q158.936-0.341797 155.566-0.341797ZM62.3047 28.2715L124.805 28.2715Q126.611 28.2715 127.881 27.002Q129.15 25.7324 129.15 23.9258Q129.15 22.1191 127.881 20.8496Q126.611 19.5801 124.805 19.5801L62.3047 19.5801Q60.498 19.5801 59.2041 20.8496Q57.9102 22.1191 57.9102 23.9258Q57.9102 25.7324 59.2041 27.002Q60.498 28.2715 62.3047 28.2715Z"/>
   <path class="hierarchical-1:primary SFSymbolsPreview212121" d="M36.4746-8.1543L150.635-8.1543Q152.637-8.1543 153.613-9.13086Q154.59-10.1074 154.59-12.207L154.59-74.2188Q154.59-76.2695 153.613-77.2461Q152.637-78.2227 150.635-78.2227L36.4746-78.2227Q34.4727-78.2227 33.4961-77.2461Q32.5195-76.2695 32.5195-74.2188L32.5195-12.207Q32.5195-10.1074 33.4961-9.13086Q34.4727-8.1543 36.4746-8.1543Z"/>
  </g>
  <g id="Light-L" transform="matrix(1 0 0 1 1061.36 1556)">
   <path class="hierarchical-0:secondary SFSymbolsPreview4D4D4D" d="M30.0781 7.95898L153.516 7.95898Q160.4 7.95898 163.94 4.41895Q167.48 0.878906 167.48-6.05469L167.48-78.8574Q167.48-85.791 163.94-89.3066Q160.4-92.8223 153.516-92.8223L30.0781-92.8223Q23.1445-92.8223 19.6045-89.3066Q16.0645-85.791 16.0645-78.8574L16.0645-6.05469Q16.0645 0.878906 19.6045 4.41895Q23.1445 7.95898 30.0781 7.95898ZM30.2734 1.31836Q26.5137 1.31836 24.585-0.561523Q22.6562-2.44141 22.6562-6.20117L22.6562-78.6621Q22.6562-82.4707 24.585-84.3506Q26.5137-86.2305 30.2734-86.2305L153.32-86.2305Q157.08-86.2305 158.984-84.3506Q160.889-82.4707 160.889-78.6621L160.889-6.20117Q160.889-2.44141 158.984-0.561523Q157.08 1.31836 153.32 1.31836ZM61.1328 26.0742L122.461 26.0742Q123.877 26.0742 124.829 25.1221Q125.781 24.1699 125.781 22.7539Q125.781 21.3379 124.829 20.3857Q123.877 19.4336 122.461 19.4336L61.1328 19.4336Q59.7168 19.4336 58.7402 20.3857Q57.7637 21.3379 57.7637 22.7539Q57.7637 24.1699 58.7402 25.1221Q59.7168 26.0742 61.1328 26.0742Z"/>
   <path class="hierarchical-1:primary SFSymbolsPreview212121" d="M33.4473-5.37109L150.195-5.37109Q152.148-5.37109 153.198-6.39648Q154.248-7.42188 154.248-9.47266L154.248-75.4883Q154.248-77.4902 153.198-78.5156Q152.148-79.541 150.195-79.541L33.4473-79.541Q31.4453-79.541 30.4199-78.5156Q29.3945-77.4902 29.3945-75.4883L29.3945-9.47266Q29.3945-7.42188 30.4199-6.39648Q31.4453-5.37109 33.4473-5.37109Z"/>
  </g>
  <g id="Thin-L" transform="matrix(1 0 0 1 766.969 1556)">
   <path class="hierarchical-0:secondary SFSymbolsPreview4D4D4D" d="M28.418 7.4707L150.537 7.4707Q156.641 7.4707 159.741 4.37012Q162.842 1.26953 162.842-4.88281L162.842-78.125Q162.842-84.2285 159.741-87.3291Q156.641-90.4297 150.537-90.4297L28.418-90.4297Q22.2656-90.4297 19.165-87.3291Q16.0645-84.2285 16.0645-78.125L16.0645-4.88281Q16.0645 1.26953 19.165 4.37012Q22.2656 7.4707 28.418 7.4707ZM28.6621 3.56445Q24.3164 3.56445 22.168 1.44043Q20.0195-0.683594 20.0195-5.0293L20.0195-77.9297Q20.0195-82.2266 22.168-84.3506Q24.3164-86.4746 28.6621-86.4746L150.293-86.4746Q154.59-86.4746 156.738-84.3506Q158.887-82.2266 158.887-77.9297L158.887-5.0293Q158.887-0.683594 156.738 1.44043Q154.59 3.56445 150.293 3.56445ZM59.6191 23.1934L119.336 23.1934Q120.215 23.1934 120.801 22.6318Q121.387 22.0703 121.387 21.1914Q121.387 20.3125 120.801 19.7754Q120.215 19.2383 119.336 19.2383L59.6191 19.2383Q58.6914 19.2383 58.1055 19.7754Q57.5195 20.3125 57.5195 21.1914Q57.5195 22.0703 58.1055 22.6318Q58.6914 23.1934 59.6191 23.1934Z"/>
   <path class="hierarchical-1:primary SFSymbolsPreview212121" d="M29.4922-1.70898L149.561-1.70898Q151.514-1.70898 152.637-2.75879Q153.76-3.80859 153.76-5.85938L153.76-77.1484Q153.76-79.1016 152.637-80.2002Q151.514-81.2988 149.561-81.2988L29.4922-81.2988Q27.4902-81.2988 26.3672-80.2002Q25.2441-79.1016 25.2441-77.1484L25.2441-5.85938Q25.2441-3.80859 26.3672-2.75879Q27.4902-1.70898 29.4922-1.70898Z"/>
  </g>
  <g id="Ultralight-L" transform="matrix(1 0 0 1 471.454 1556)">
   <path class="hierarchical-0:secondary SFSymbolsPreview4D4D4D" d="M27.5879 7.27539L148.975 7.27539Q154.688 7.27539 157.568 4.37012Q160.449 1.46484 160.449-4.24805L160.449-77.7344Q160.449-83.3984 157.568-86.2793Q154.688-89.1602 148.975-89.1602L27.5879-89.1602Q21.8262-89.1602 18.9453-86.2793Q16.0645-83.3984 16.0645-77.7344L16.0645-4.24805Q16.0645 1.46484 18.9453 4.37012Q21.8262 7.27539 27.5879 7.27539ZM27.832 4.6875Q23.2422 4.6875 20.9229 2.44141Q18.6035 0.195312 18.6035-4.39453L18.6035-77.5391Q18.6035-82.1289 20.9229-84.375Q23.2422-86.6211 27.832-86.6211L148.779-86.6211Q153.369-86.6211 155.64-84.375Q157.91-82.1289 157.91-77.5391L157.91-4.39453Q157.91 0.195312 155.64 2.44141Q153.369 4.6875 148.779 4.6875ZM58.7891 21.6797L117.773 21.6797Q118.359 21.6797 118.726 21.3379Q119.092 20.9961 119.092 20.3613Q119.092 19.8242 118.726 19.4824Q118.359 19.1406 117.773 19.1406L58.7891 19.1406Q58.2031 19.1406 57.8125 19.4824Q57.4219 19.8242 57.4219 20.3613Q57.4219 20.9961 57.8125 21.3379Q58.2031 21.6797 58.7891 21.6797Z"/>
   <path class="hierarchical-1:primary SFSymbolsPreview212121" d="M27.3926 0.195312L149.219 0.195312Q151.172 0.195312 152.319-0.90332Q153.467-2.00195 153.467-4.00391L153.467-77.9785Q153.467-79.9316 152.319-81.0547Q151.172-82.1777 149.219-82.1777L27.3926-82.1777Q25.3906-82.1777 24.2432-81.0547Q23.0957-79.9316 23.0957-77.9785L23.0957-4.00391Q23.0957-2.00195 24.2432-0.90332Q25.3906 0.195312 27.3926 0.195312Z"/>
  </g>
  <g id="Black-M" transform="matrix(1 0 0 1 2854.05 1126)">
   <path class="hierarchical-0:secondary SFSymbolsPreview4D4D4D" d="M30.0781 3.17383L128.613 3.17383Q136.963 3.17383 141.602-1.46484Q146.24-6.10352 146.24-14.4531L146.24-72.168Q146.24-80.5176 141.602-85.1562Q136.963-89.7949 128.613-89.7949L30.0781-89.7949Q21.7285-89.7949 17.0898-85.1562Q12.4512-80.5176 12.4512-72.168L12.4512-14.4531Q12.4512-6.10352 17.0898-1.46484Q21.7285 3.17383 30.0781 3.17383ZM32.4707-12.8906Q30.5176-12.8906 29.5166-13.7939Q28.5156-14.6973 28.5156-16.8457L28.5156-69.7754Q28.5156-71.9238 29.5166-72.8271Q30.5176-73.7305 32.4707-73.7305L126.172-73.7305Q128.174-73.7305 129.15-72.8271Q130.127-71.9238 130.127-69.7754L130.127-16.8457Q130.127-14.6973 129.15-13.7939Q128.174-12.8906 126.172-12.8906ZM52.4414 22.6562L106.201 22.6562Q108.984 22.6562 110.913 20.6543Q112.842 18.6523 112.842 16.1133Q112.842 13.5254 110.913 11.5234Q108.984 9.52148 106.201 9.52148L52.4414 9.52148Q49.707 9.52148 47.7783 11.5234Q45.8496 13.5254 45.8496 16.1133Q45.8496 18.6523 47.7783 20.6543Q49.707 22.6562 52.4414 22.6562Z"/>
   <path class="hierarchical-1:primary SFSymbolsPreview212121" d="M39.5508-22.1191L119.189-22.1191Q120.996-22.1191 120.996-23.9746L120.996-62.6465Q120.996-64.502 119.189-64.502L39.5508-64.502Q37.7441-64.502 37.7441-62.6465L37.7441-23.9746Q37.7441-22.1191 39.5508-22.1191Z"/>
  </g>
  <g id="Heavy-M" transform="matrix(1 0 0 1 2558.73 1126)">
   <path class="hierarchical-0:secondary SFSymbolsPreview4D4D4D" d="M28.8574 2.09961L127.051 2.09961Q134.912 2.09961 139.185-2.19727Q143.457-6.49414 143.457-14.3066L143.457-71.6309Q143.457-79.4434 139.185-83.7402Q134.912-88.0371 127.051-88.0371L28.8574-88.0371Q21.0449-88.0371 16.748-83.7402Q12.4512-79.4434 12.4512-71.6309L12.4512-14.3066Q12.4512-6.49414 16.748-2.19727Q21.0449 2.09961 28.8574 2.09961ZM30.7617-12.0117Q28.6621-12.0117 27.6123-12.9883Q26.5625-13.9648 26.5625-16.1621L26.5625-69.7754Q26.5625-71.9727 27.6123-72.9492Q28.6621-73.9258 30.7617-73.9258L125.146-73.9258Q127.246-73.9258 128.271-72.9492Q129.297-71.9727 129.297-69.7754L129.297-16.1621Q129.297-13.9648 128.271-12.9883Q127.246-12.0117 125.146-12.0117ZM51.6113 20.8984L104.297 20.8984Q106.787 20.8984 108.545 19.0918Q110.303 17.2852 110.303 14.9902Q110.303 12.5977 108.545 10.791Q106.787 8.98438 104.297 8.98438L51.6113 8.98438Q49.1211 8.98438 47.3877 10.791Q45.6543 12.5977 45.6543 14.9902Q45.6543 17.2852 47.3877 19.0918Q49.1211 20.8984 51.6113 20.8984Z"/>
   <path class="hierarchical-1:primary SFSymbolsPreview212121" d="M37.3047-20.6543L118.652-20.6543Q120.752-20.6543 120.752-22.8027L120.752-63.1348Q120.752-65.2832 118.652-65.2832L37.3047-65.2832Q35.2051-65.2832 35.2051-63.1348L35.2051-22.8027Q35.2051-20.6543 37.3047-20.6543Z"/>
  </g>
  <g id="Bold-M" transform="matrix(1 0 0 1 2263.56 1126)">
   <path class="hierarchical-0:secondary SFSymbolsPreview4D4D4D" d="M27.5391 0.927734L125.293 0.927734Q132.568 0.927734 136.475-2.97852Q140.381-6.88477 140.381-14.1602L140.381-70.9961Q140.381-78.2715 136.475-82.1777Q132.568-86.084 125.293-86.084L27.5391-86.084Q20.2637-86.084 16.3574-82.1777Q12.4512-78.2715 12.4512-70.9961L12.4512-14.1602Q12.4512-6.88477 16.3574-2.97852Q20.2637 0.927734 27.5391 0.927734ZM28.8086-11.0352Q26.6602-11.0352 25.5371-12.085Q24.4141-13.1348 24.4141-15.4297L24.4141-69.7266Q24.4141-72.0215 25.5371-73.0713Q26.6602-74.1211 28.8086-74.1211L124.023-74.1211Q126.221-74.1211 127.319-73.0713Q128.418-72.0215 128.418-69.7266L128.418-15.4297Q128.418-13.1348 127.319-12.085Q126.221-11.0352 124.023-11.0352ZM50.6836 18.9453L102.148 18.9453Q104.346 18.9453 105.884 17.3828Q107.422 15.8203 107.422 13.7207Q107.422 11.6211 105.884 10.0342Q104.346 8.44727 102.148 8.44727L50.6836 8.44727Q48.5352 8.44727 46.9727 10.0342Q45.4102 11.6211 45.4102 13.7207Q45.4102 15.8203 46.9727 17.3828Q48.5352 18.9453 50.6836 18.9453Z"/>
   <path class="hierarchical-1:primary SFSymbolsPreview212121" d="M34.8145-18.9941L118.115-18.9941Q120.508-18.9941 120.508-21.4844L120.508-63.7207Q120.508-66.1621 118.115-66.1621L34.8145-66.1621Q32.373-66.1621 32.373-63.7207L32.373-21.4844Q32.373-18.9941 34.8145-18.9941Z"/>
  </g>
  <g id="Semibold-M" transform="matrix(1 0 0 1 1967.92 1126)">
   <path class="hierarchical-0:secondary SFSymbolsPreview4D4D4D" d="M26.6113 0.0976562L124.072 0.0976562Q130.957 0.0976562 134.595-3.54004Q138.232-7.17773 138.232-14.0625L138.232-70.5566Q138.232-77.4414 134.595-81.0791Q130.957-84.7168 124.072-84.7168L26.6113-84.7168Q19.7266-84.7168 16.0889-81.0791Q12.4512-77.4414 12.4512-70.5566L12.4512-14.0625Q12.4512-7.17773 16.0889-3.54004Q19.7266 0.0976562 26.6113 0.0976562ZM27.4902-10.3516Q25.2441-10.3516 24.0723-11.4502Q22.9004-12.5488 22.9004-14.8926L22.9004-69.7266Q22.9004-72.0215 24.0723-73.1201Q25.2441-74.2188 27.4902-74.2188L123.193-74.2188Q125.488-74.2188 126.636-73.1201Q127.783-72.0215 127.783-69.7266L127.783-14.8926Q127.783-12.5488 126.636-11.4502Q125.488-10.3516 123.193-10.3516ZM50.0488 17.5781L100.635 17.5781Q102.637 17.5781 104.053 16.1621Q105.469 14.7461 105.469 12.793Q105.469 10.8887 104.053 9.44824Q102.637 8.00781 100.635 8.00781L50.0488 8.00781Q48.0957 8.00781 46.6797 9.44824Q45.2637 10.8887 45.2637 12.793Q45.2637 14.7461 46.6797 16.1621Q48.0957 17.5781 50.0488 17.5781Z"/>
   <path class="hierarchical-1:primary SFSymbolsPreview212121" d="M33.0566-17.8223L117.676-17.8223Q120.312-17.8223 120.312-20.5566L120.312-64.0625Q120.312-66.748 117.676-66.748L33.0566-66.748Q30.4199-66.748 30.4199-64.0625L30.4199-20.5566Q30.4199-17.8223 33.0566-17.8223Z"/>
  </g>
  <g id="Medium-M" transform="matrix(1 0 0 1 1672.02 1126)">
   <path class="hierarchical-0:secondary SFSymbolsPreview4D4D4D" d="M25.9277-0.488281L123.145-0.488281Q129.736-0.488281 133.179-3.93066Q136.621-7.37305 136.621-13.9648L136.621-70.2637Q136.621-76.8066 133.179-80.249Q129.736-83.6914 123.145-83.6914L25.9277-83.6914Q19.3359-83.6914 15.8936-80.249Q12.4512-76.8066 12.4512-70.2637L12.4512-13.9648Q12.4512-7.37305 15.8936-3.93066Q19.3359-0.488281 25.9277-0.488281ZM26.4648-9.86328Q24.1699-9.86328 22.9736-11.0107Q21.7773-12.1582 21.7773-14.502L21.7773-69.6777Q21.7773-72.0215 22.9736-73.1689Q24.1699-74.3164 26.4648-74.3164L122.607-74.3164Q124.951-74.3164 126.123-73.1689Q127.295-72.0215 127.295-69.6777L127.295-14.502Q127.295-12.1582 126.123-11.0107Q124.951-9.86328 122.607-9.86328ZM49.5605 16.5527L99.5117 16.5527Q101.318 16.5527 102.637 15.2588Q103.955 13.9648 103.955 12.1582Q103.955 10.3516 102.637 9.0332Q101.318 7.71484 99.5117 7.71484L49.5605 7.71484Q47.7539 7.71484 46.4355 9.0332Q45.1172 10.3516 45.1172 12.1582Q45.1172 13.9648 46.4355 15.2588Q47.7539 16.5527 49.5605 16.5527Z"/>
   <path class="hierarchical-1:primary SFSymbolsPreview212121" d="M31.7871-16.9434L117.432-16.9434Q120.215-16.9434 120.215-19.873L120.215-64.3555Q120.215-67.2363 117.432-67.2363L31.7871-67.2363Q28.9551-67.2363 28.9551-64.3555L28.9551-19.873Q28.9551-16.9434 31.7871-16.9434Z"/>
  </g>
  <g id="Regular-M" transform="matrix(1 0 0 1 1376.36 1126)">
   <path class="hierarchical-0:secondary SFSymbolsPreview4D4D4D" d="M25-1.31836L121.973-1.31836Q128.174-1.31836 131.348-4.49219Q134.521-7.66602 134.521-13.8672L134.521-69.8242Q134.521-75.9766 131.348-79.1504Q128.174-82.3242 121.973-82.3242L25-82.3242Q18.7988-82.3242 15.625-79.1504Q12.4512-75.9766 12.4512-69.8242L12.4512-13.8672Q12.4512-7.66602 15.625-4.49219Q18.7988-1.31836 25-1.31836ZM25.1465-9.17969Q22.7539-9.17969 21.5332-10.376Q20.3125-11.5723 20.3125-13.9648L20.3125-69.6777Q20.3125-72.0703 21.5332-73.2666Q22.7539-74.4629 25.1465-74.4629L121.826-74.4629Q124.268-74.4629 125.464-73.2666Q126.66-72.0703 126.66-69.6777L126.66-13.9648Q126.66-11.5723 125.464-10.376Q124.268-9.17969 121.826-9.17969ZM48.9258 15.2344L98.0469 15.2344Q99.6582 15.2344 100.83 14.0869Q102.002 12.9395 102.002 11.2793Q102.002 9.66797 100.83 8.49609Q99.6582 7.32422 98.0469 7.32422L48.9258 7.32422Q47.3145 7.32422 46.1426 8.49609Q44.9707 9.66797 44.9707 11.2793Q44.9707 12.9395 46.1426 14.0869Q47.3145 15.2344 48.9258 15.2344Z"/>
   <path class="hierarchical-1:primary SFSymbolsPreview212121" d="M30.0293-15.8203L116.992-15.8203Q120.02-15.8203 120.02-18.9453L120.02-64.7461Q120.02-67.8223 116.992-67.8223L30.0293-67.8223Q27.002-67.8223 27.002-64.7461L27.002-18.9453Q27.002-15.8203 30.0293-15.8203Z"/>
  </g>
  <g id="Light-M" transform="matrix(1 0 0 1 1081.21 1126)">
   <path class="hierarchical-0:secondary SFSymbolsPreview4D4D4D" d="M23.877-1.61133L119.971-1.61133Q125.586-1.61133 128.491-4.49219Q131.396-7.37305 131.396-13.0371L131.396-69.2871Q131.396-74.9023 128.491-77.8076Q125.586-80.7129 119.971-80.7129L23.877-80.7129Q18.2129-80.7129 15.332-77.8076Q12.4512-74.9023 12.4512-69.2871L12.4512-13.0371Q12.4512-7.37305 15.332-4.49219Q18.2129-1.61133 23.877-1.61133ZM24.0234-7.66602Q21.2891-7.66602 19.8975-9.0332Q18.5059-10.4004 18.5059-13.1348L18.5059-69.1406Q18.5059-71.9238 19.8975-73.291Q21.2891-74.6582 24.0234-74.6582L119.775-74.6582Q122.607-74.6582 123.975-73.291Q125.342-71.9238 125.342-69.1406L125.342-13.1348Q125.342-10.4004 123.975-9.0332Q122.607-7.66602 119.775-7.66602ZM47.9004 13.2812L95.9473 13.2812Q97.168 13.2812 98.0957 12.4023Q99.0234 11.5234 99.0234 10.2051Q99.0234 8.98438 98.0957 8.08105Q97.168 7.17773 95.9473 7.17773L47.9004 7.17773Q46.6309 7.17773 45.7275 8.08105Q44.8242 8.98438 44.8242 10.2051Q44.8242 11.5234 45.7275 12.4023Q46.6309 13.2812 47.9004 13.2812Z"/>
   <path class="hierarchical-1:primary SFSymbolsPreview212121" d="M27.2949-13.3301L116.553-13.3301Q119.678-13.3301 119.678-16.5039L119.678-65.8691Q119.678-68.9941 116.553-68.9941L27.2949-68.9941Q24.1699-68.9941 24.1699-65.8691L24.1699-16.5039Q24.1699-13.3301 27.2949-13.3301Z"/>
  </g>
  <g id="Thin-M" transform="matrix(1 0 0 1 786.598 1126)">
   <path class="hierarchical-0:secondary SFSymbolsPreview4D4D4D" d="M22.3633-2.00195L117.285-2.00195Q122.217-2.00195 124.707-4.5166Q127.197-7.03125 127.197-11.9629L127.197-68.6523Q127.197-73.5352 124.707-76.0254Q122.217-78.5156 117.285-78.5156L22.3633-78.5156Q17.4805-78.5156 14.9658-76.0254Q12.4512-73.5352 12.4512-68.6523L12.4512-11.9629Q12.4512-7.03125 14.9658-4.5166Q17.4805-2.00195 22.3633-2.00195ZM22.5586-5.66406Q19.2871-5.66406 17.7002-7.27539Q16.1133-8.88672 16.1133-12.0605L16.1133-68.5059Q16.1133-71.7285 17.7002-73.3154Q19.2871-74.9023 22.5586-74.9023L117.139-74.9023Q120.361-74.9023 121.973-73.3154Q123.584-71.7285 123.584-68.5059L123.584-12.0605Q123.584-8.88672 121.973-7.27539Q120.361-5.66406 117.139-5.66406ZM46.4844 10.6445L93.1641 10.6445Q93.9453 10.6445 94.4824 10.1318Q95.0195 9.61914 95.0195 8.83789Q95.0195 8.05664 94.4824 7.54395Q93.9453 7.03125 93.1641 7.03125L46.4844 7.03125Q45.752 7.03125 45.1904 7.54395Q44.6289 8.05664 44.6289 8.83789Q44.6289 9.61914 45.1904 10.1318Q45.752 10.6445 46.4844 10.6445Z"/>
   <path class="hierarchical-1:primary SFSymbolsPreview212121" d="M23.6816-10.0098L116.016-10.0098Q119.238-10.0098 119.238-13.2324L119.238-67.334Q119.238-70.5566 116.016-70.5566L23.6816-70.5566Q20.459-70.5566 20.459-67.334L20.459-13.2324Q20.459-10.0098 23.6816-10.0098Z"/>
  </g>
  <g id="Ultralight-M" transform="matrix(1 0 0 1 490.937 1126)">
   <path class="hierarchical-0:secondary SFSymbolsPreview4D4D4D" d="M21.582-2.24609L115.918-2.24609Q120.459-2.24609 122.778-4.54102Q125.098-6.83594 125.098-11.4258L125.098-68.2617Q125.098-72.8027 122.778-75.1221Q120.459-77.4414 115.918-77.4414L21.582-77.4414Q17.0898-77.4414 14.7705-75.1221Q12.4512-72.8027 12.4512-68.2617L12.4512-11.4258Q12.4512-6.83594 14.7705-4.54102Q17.0898-2.24609 21.582-2.24609ZM21.7773-4.63867Q18.3105-4.63867 16.5771-6.34766Q14.8438-8.05664 14.8438-11.5234L14.8438-68.1152Q14.8438-71.6309 16.5771-73.3398Q18.3105-75.0488 21.7773-75.0488L115.723-75.0488Q119.238-75.0488 120.972-73.3398Q122.705-71.6309 122.705-68.1152L122.705-11.5234Q122.705-8.05664 120.972-6.34766Q119.238-4.63867 115.723-4.63867ZM45.8008 9.32617L91.748 9.32617Q92.2363 9.32617 92.627 9.00879Q93.0176 8.69141 93.0176 8.10547Q93.0176 7.56836 92.627 7.25098Q92.2363 6.93359 91.748 6.93359L45.8008 6.93359Q45.2637 6.93359 44.8975 7.25098Q44.5312 7.56836 44.5312 8.10547Q44.5312 8.69141 44.8975 9.00879Q45.2637 9.32617 45.8008 9.32617Z"/>
   <path class="hierarchical-1:primary SFSymbolsPreview212121" d="M21.875-8.34961L115.723-8.34961Q119.043-8.34961 119.043-11.5723L119.043-68.1152Q119.043-71.3867 115.723-71.3867L21.875-71.3867Q18.5547-71.3867 18.5547-68.1152L18.5547-11.5723Q18.5547-8.34961 21.875-8.34961Z"/>
  </g>
  <g id="Black-S" transform="matrix(1 0 0 1 2870.9 696)">
   <path class="hierarchical-0:secondary SFSymbolsPreview4D4D4D" d="M23.877-4.83398L101.123-4.83398Q107.812-4.83398 111.523-8.56934Q115.234-12.3047 115.234-18.9453L115.234-64.3066Q115.234-70.9961 111.523-74.707Q107.812-78.418 101.123-78.418L23.877-78.418Q17.2363-78.418 13.501-74.707Q9.76562-70.9961 9.76562-64.3066L9.76562-18.9453Q9.76562-12.3047 13.501-8.56934Q17.2363-4.83398 23.877-4.83398ZM25.9277-17.9199Q22.8516-17.9199 22.8516-20.9961L22.8516-62.2559Q22.8516-65.332 25.9277-65.332L99.0723-65.332Q102.148-65.332 102.148-62.2559L102.148-20.9961Q102.148-17.9199 99.0723-17.9199ZM41.3086 10.5469L83.6914 10.5469Q85.9375 10.5469 87.4756 8.93555Q89.0137 7.32422 89.0137 5.27344Q89.0137 3.22266 87.4756 1.61133Q85.9375 0 83.6914 0L41.3086 0Q39.0625 0 37.5244 1.61133Q35.9863 3.22266 35.9863 5.27344Q35.9863 7.32422 37.5244 8.93555Q39.0625 10.5469 41.3086 10.5469Z"/>
   <path class="hierarchical-1:primary SFSymbolsPreview212121" d="M31.4941-25.2441L93.5059-25.2441Q94.8242-25.2441 94.8242-26.6113L94.8242-56.6406Q94.8242-58.0078 93.5059-58.0078L31.4941-58.0078Q30.1758-58.0078 30.1758-56.6406L30.1758-26.6113Q30.1758-25.2441 31.4941-25.2441Z"/>
  </g>
  <g id="Heavy-S" transform="matrix(1 0 0 1 2575.17 696)">
   <path class="hierarchical-0:secondary SFSymbolsPreview4D4D4D" d="M22.998-5.71289L100.049-5.71289Q106.348-5.71289 109.814-9.17969Q113.281-12.6465 113.281-18.9453L113.281-63.916Q113.281-70.2148 109.814-73.6816Q106.348-77.1484 100.049-77.1484L22.998-77.1484Q16.6992-77.1484 13.2324-73.6816Q9.76562-70.2148 9.76562-63.916L9.76562-18.9453Q9.76562-12.6465 13.2324-9.17969Q16.6992-5.71289 22.998-5.71289ZM24.5605-17.334Q21.4355-17.334 21.4355-20.5078L21.4355-62.3047Q21.4355-65.4785 24.5605-65.4785L98.4375-65.4785Q101.611-65.4785 101.611-62.3047L101.611-20.5078Q101.611-17.334 98.4375-17.334ZM40.7227 9.32617L82.3242 9.32617Q84.375 9.32617 85.791 7.83691Q87.207 6.34766 87.207 4.44336Q87.207 2.53906 85.791 1.0498Q84.375-0.439453 82.3242-0.439453L40.7227-0.439453Q38.6719-0.439453 37.2559 1.0498Q35.8398 2.53906 35.8398 4.44336Q35.8398 6.34766 37.2559 7.83691Q38.6719 9.32617 40.7227 9.32617Z"/>
   <path class="hierarchical-1:primary SFSymbolsPreview212121" d="M29.9316-24.3164L93.1152-24.3164Q94.6777-24.3164 94.6777-25.9277L94.6777-56.9336Q94.6777-58.5449 93.1152-58.5449L29.9316-58.5449Q28.3691-58.5449 28.3691-56.9336L28.3691-25.9277Q28.3691-24.3164 29.9316-24.3164Z"/>
  </g>
  <g id="Bold-S" transform="matrix(1 0 0 1 2279.55 696)">
   <path class="hierarchical-0:secondary SFSymbolsPreview4D4D4D" d="M22.0215-6.68945L98.877-6.68945Q104.736-6.68945 107.91-9.86328Q111.084-13.0371 111.084-18.8965L111.084-63.4277Q111.084-69.3359 107.91-72.5098Q104.736-75.6836 98.877-75.6836L22.0215-75.6836Q16.1621-75.6836 12.9639-72.5098Q9.76562-69.3359 9.76562-63.4277L9.76562-18.8965Q9.76562-13.0371 12.9639-9.86328Q16.1621-6.68945 22.0215-6.68945ZM23.0957-16.748Q19.8242-16.748 19.8242-19.9707L19.8242-62.3535Q19.8242-65.625 23.0957-65.625L97.8027-65.625Q101.025-65.625 101.025-62.3535L101.025-19.9707Q101.025-16.748 97.8027-16.748ZM40.0879 7.91016L80.7617 7.91016Q82.6172 7.91016 83.9111 6.5918Q85.2051 5.27344 85.2051 3.51562Q85.2051 1.75781 83.9111 0.415039Q82.6172-0.927734 80.7617-0.927734L40.0879-0.927734Q38.2324-0.927734 36.9629 0.415039Q35.6934 1.75781 35.6934 3.51562Q35.6934 5.27344 36.9629 6.5918Q38.2324 7.91016 40.0879 7.91016Z"/>
   <path class="hierarchical-1:primary SFSymbolsPreview212121" d="M28.1738-23.2422L92.7246-23.2422Q94.5312-23.2422 94.5312-25.1465L94.5312-57.2266Q94.5312-59.1309 92.7246-59.1309L28.1738-59.1309Q26.3672-59.1309 26.3672-57.2266L26.3672-25.1465Q26.3672-23.2422 28.1738-23.2422Z"/>
  </g>
  <g id="Semibold-S" transform="matrix(1 0 0 1 1983.6 696)">
   <path class="hierarchical-0:secondary SFSymbolsPreview4D4D4D" d="M21.2891-7.32422L98.0469-7.32422Q103.613-7.32422 106.592-10.3027Q109.57-13.2812 109.57-18.8965L109.57-63.0859Q109.57-68.75 106.592-71.7285Q103.613-74.707 98.0469-74.707L21.2891-74.707Q15.7227-74.707 12.7441-71.7285Q9.76562-68.75 9.76562-63.0859L9.76562-18.8965Q9.76562-13.2812 12.7441-10.3027Q15.7227-7.32422 21.2891-7.32422ZM22.0215-16.3086Q18.7012-16.3086 18.7012-19.5801L18.7012-62.4023Q18.7012-65.7227 22.0215-65.7227L97.3145-65.7227Q100.635-65.7227 100.635-62.4023L100.635-19.5801Q100.635-16.3086 97.3145-16.3086ZM39.6484 6.93359L79.6875 6.93359Q81.3965 6.93359 82.5928 5.71289Q83.7891 4.49219 83.7891 2.88086Q83.7891 1.17188 82.5928-0.0244141Q81.3965-1.2207 79.6875-1.2207L39.6484-1.2207Q37.9395-1.2207 36.7432-0.0244141Q35.5469 1.17188 35.5469 2.88086Q35.5469 4.49219 36.7432 5.71289Q37.9395 6.93359 39.6484 6.93359Z"/>
   <path class="hierarchical-1:primary SFSymbolsPreview212121" d="M26.9531-22.5098L92.4316-22.5098Q94.3848-22.5098 94.3848-24.5605L94.3848-57.4219Q94.3848-59.5215 92.4316-59.5215L26.9531-59.5215Q24.9512-59.5215 24.9512-57.4219L24.9512-24.5605Q24.9512-22.5098 26.9531-22.5098Z"/>
  </g>
  <g id="Medium-S" transform="matrix(1 0 0 1 1687.45 696)">
   <path class="hierarchical-0:secondary SFSymbolsPreview4D4D4D" d="M20.8008-7.86133L97.4121-7.86133Q102.783-7.86133 105.615-10.6934Q108.447-13.5254 108.447-18.8477L108.447-62.8418Q108.447-68.2617 105.615-71.0938Q102.783-73.9258 97.4121-73.9258L20.8008-73.9258Q15.4297-73.9258 12.5977-71.0938Q9.76562-68.2617 9.76562-62.8418L9.76562-18.8477Q9.76562-13.5254 12.5977-10.6934Q15.4297-7.86133 20.8008-7.86133ZM21.2402-15.9668Q17.8711-15.9668 17.8711-19.3359L17.8711-62.4023Q17.8711-65.8203 21.2402-65.8203L96.9727-65.8203Q100.293-65.8203 100.293-62.4023L100.293-19.3359Q100.293-15.9668 96.9727-15.9668ZM39.3066 6.20117L78.9062 6.20117Q80.4688 6.20117 81.5918 5.05371Q82.7148 3.90625 82.7148 2.39258Q82.7148 0.78125 81.5918-0.341797Q80.4688-1.46484 78.9062-1.46484L39.3066-1.46484Q37.6953-1.46484 36.5723-0.341797Q35.4492 0.78125 35.4492 2.39258Q35.4492 3.90625 36.5723 5.05371Q37.6953 6.20117 39.3066 6.20117Z"/>
   <path class="hierarchical-1:primary SFSymbolsPreview212121" d="M25.9766-21.9727L92.1875-21.9727Q94.2871-21.9727 94.2871-24.1699L94.2871-57.6172Q94.2871-59.8145 92.1875-59.8145L25.9766-59.8145Q23.877-59.8145 23.877-57.6172L23.877-24.1699Q23.877-21.9727 25.9766-21.9727Z"/>
  </g>
  <g id="Regular-S" transform="matrix(1 0 0 1 1391.49 696)">
   <path class="hierarchical-0:secondary SFSymbolsPreview4D4D4D" d="M20.1172-8.49609L96.582-8.49609Q101.66-8.49609 104.297-11.1328Q106.934-13.7695 106.934-18.8477L106.934-62.5488Q106.934-67.6758 104.297-70.3125Q101.66-72.9492 96.582-72.9492L20.1172-72.9492Q15.0391-72.9492 12.4023-70.3125Q9.76562-67.6758 9.76562-62.5488L9.76562-18.8477Q9.76562-13.7695 12.4023-11.1328Q15.0391-8.49609 20.1172-8.49609ZM20.2148-15.5273Q16.7969-15.5273 16.7969-18.9453L16.7969-62.4512Q16.7969-65.918 20.2148-65.918L96.4844-65.918Q99.9023-65.918 99.9023-62.4512L99.9023-18.9453Q99.9023-15.5273 96.4844-15.5273ZM38.8672 5.27344L77.832 5.27344Q79.2969 5.27344 80.3223 4.22363Q81.3477 3.17383 81.3477 1.75781Q81.3477 0.244141 80.3223-0.78125Q79.2969-1.80664 77.832-1.80664L38.8672-1.80664Q37.4023-1.80664 36.377-0.78125Q35.3516 0.244141 35.3516 1.75781Q35.3516 3.17383 36.377 4.22363Q37.4023 5.27344 38.8672 5.27344Z"/>
   <path class="hierarchical-1:primary SFSymbolsPreview212121" d="M24.8047-21.2402L91.8945-21.2402Q94.1895-21.2402 94.1895-23.6328L94.1895-57.8125Q94.1895-60.2051 91.8945-60.2051L24.8047-60.2051Q22.5098-60.2051 22.5098-57.8125L22.5098-23.6328Q22.5098-21.2402 24.8047-21.2402Z"/>
  </g>
  <g id="Light-S" transform="matrix(1 0 0 1 1096.18 696)">
   <path class="hierarchical-0:secondary SFSymbolsPreview4D4D4D" d="M19.1406-8.78906L94.7754-8.78906Q99.4141-8.78906 101.782-11.1572Q104.15-13.5254 104.15-18.1152L104.15-62.1094Q104.15-66.748 101.782-69.1162Q99.4141-71.4844 94.7754-71.4844L19.1406-71.4844Q14.502-71.4844 12.1338-69.1162Q9.76562-66.748 9.76562-62.1094L9.76562-18.1152Q9.76562-13.5254 12.1338-11.1572Q14.502-8.78906 19.1406-8.78906ZM19.2383-14.209Q15.1855-14.209 15.1855-18.2129L15.1855-62.0117Q15.1855-66.0645 19.2383-66.0645L94.6777-66.0645Q98.7305-66.0645 98.7305-62.0117L98.7305-18.2129Q98.7305-14.209 94.6777-14.209ZM37.9395 3.51562L75.9766 3.51562Q77.0996 3.51562 77.9053 2.70996Q78.7109 1.9043 78.7109 0.830078Q78.7109-0.341797 77.9053-1.12305Q77.0996-1.9043 75.9766-1.9043L37.9395-1.9043Q36.8164-1.9043 36.0107-1.12305Q35.2051-0.341797 35.2051 0.830078Q35.2051 1.9043 36.0107 2.70996Q36.8164 3.51562 37.9395 3.51562Z"/>
   <path class="hierarchical-1:primary SFSymbolsPreview212121" d="M22.4121-19.043L91.5039-19.043Q93.8965-19.043 93.8965-21.4844L93.8965-58.7891Q93.8965-61.2305 91.5039-61.2305L22.4121-61.2305Q20.0195-61.2305 20.0195-58.7891L20.0195-21.4844Q20.0195-19.043 22.4121-19.043Z"/>
  </g>
  <g id="Thin-S" transform="matrix(1 0 0 1 801.295 696)">
   <path class="hierarchical-0:secondary SFSymbolsPreview4D4D4D" d="M17.8223-9.13086L92.3828-9.13086Q96.3867-9.13086 98.4375-11.1572Q100.488-13.1836 100.488-17.1875L100.488-61.4746Q100.488-65.4785 98.4375-67.5293Q96.3867-69.5801 92.3828-69.5801L17.8223-69.5801Q13.8672-69.5801 11.8164-67.5293Q9.76562-65.4785 9.76562-61.4746L9.76562-17.1875Q9.76562-13.1836 11.8164-11.1572Q13.8672-9.13086 17.8223-9.13086ZM17.9688-12.4512Q13.0859-12.4512 13.0859-17.2852L13.0859-61.377Q13.0859-66.2598 17.9688-66.2598L92.2852-66.2598Q97.168-66.2598 97.168-61.377L97.168-17.2852Q97.168-12.4512 92.2852-12.4512ZM36.7188 1.17188L73.4863 1.17188Q74.2188 1.17188 74.707 0.708008Q75.1953 0.244141 75.1953-0.439453Q75.1953-1.17188 74.707-1.63574Q74.2188-2.09961 73.4863-2.09961L36.7188-2.09961Q35.9863-2.09961 35.5225-1.63574Q35.0586-1.17188 35.0586-0.439453Q35.0586 0.244141 35.5225 0.708008Q35.9863 1.17188 36.7188 1.17188Z"/>
   <path class="hierarchical-1:primary SFSymbolsPreview212121" d="M19.1895-16.1133L90.9668-16.1133Q93.457-16.1133 93.457-18.6035L93.457-60.1074Q93.457-62.5977 90.9668-62.5977L19.1895-62.5977Q16.6992-62.5977 16.6992-60.1074L16.6992-18.6035Q16.6992-16.1133 19.1895-16.1133Z"/>
  </g>
  <g id="Ultralight-S" transform="matrix(1 0 0 1 505.536 696)">
   <path class="hierarchical-0:secondary SFSymbolsPreview4D4D4D" d="M17.1875-9.32617L91.1621-9.32617Q94.873-9.32617 96.7285-11.1816Q98.584-13.0371 98.584-16.6992L98.584-61.1816Q98.584-64.8438 96.7285-66.7236Q94.873-68.6035 91.1621-68.6035L17.1875-68.6035Q13.4766-68.6035 11.6211-66.7236Q9.76562-64.8438 9.76562-61.1816L9.76562-16.6992Q9.76562-13.0371 11.6211-11.1816Q13.4766-9.32617 17.1875-9.32617ZM17.2852-11.5234Q11.9629-11.5234 11.9629-16.7969L11.9629-61.084Q11.9629-66.3574 17.2852-66.3574L91.0156-66.3574Q96.3379-66.3574 96.3379-61.084L96.3379-16.7969Q96.3379-11.5234 91.0156-11.5234ZM36.084 0L72.2656 0Q72.7539 0 73.0713-0.292969Q73.3887-0.585938 73.3887-1.07422Q73.3887-1.5625 73.0713-1.85547Q72.7539-2.14844 72.2656-2.14844L36.084-2.14844Q35.5957-2.14844 35.2783-1.85547Q34.9609-1.5625 34.9609-1.07422Q34.9609-0.585938 35.2783-0.292969Q35.5957 0 36.084 0Z"/>
   <path class="hierarchical-1:primary SFSymbolsPreview212121" d="M17.627-14.5996L90.7227-14.5996Q93.3105-14.5996 93.3105-17.1387L93.3105-60.7422Q93.3105-63.2812 90.7227-63.2812L17.627-63.2812Q15.0391-63.2812 15.0391-60.7422L15.0391-17.1387Q15.0391-14.5996 17.627-14.5996Z"/>
  </g>
 </g>
</svg>
