<?xml version="1.0" encoding="UTF-8"?>
<!--Generator: Apple Native CoreSVG 175-->
<!DOCTYPE svg
PUBLIC "-//W3C//DTD SVG 1.1//EN"
       "http://www.w3.org/Graphics/SVG/1.1/DTD/svg11.dtd">
<svg version="1.1" xmlns="http://www.w3.org/2000/svg" xmlns:xlink="http://www.w3.org/1999/xlink" width="3300" height="2200">
 <!--glyph: "uni10039F.medium", point size: 100.0, font version: "17.0d11e1", template writer version: "65.1"-->
 <style>.multicolor-0:systemCyanColor {fill:#55BEF0;opacity:1.0}

.SFSymbolsPreview55BEF0 {fill:#55BEF0;opacity:1.0}
</style>
 <g id="Notes">
  <rect height="2200" id="artboard" style="fill:white;opacity:1" width="3300" x="0" y="0"/>
  <line style="fill:none;stroke:black;opacity:1;stroke-width:0.5;" x1="263" x2="3036" y1="292" y2="292"/>
  <text style="stroke:none;fill:black;font-family:sans-serif;font-size:13;font-weight:bold;" transform="matrix(1 0 0 1 263 322)">Weight/Scale Variations</text>
  <text style="stroke:none;fill:black;font-family:sans-serif;font-size:13;text-anchor:middle;" transform="matrix(1 0 0 1 559.711 322)">Ultralight</text>
  <text style="stroke:none;fill:black;font-family:sans-serif;font-size:13;text-anchor:middle;" transform="matrix(1 0 0 1 856.422 322)">Thin</text>
  <text style="stroke:none;fill:black;font-family:sans-serif;font-size:13;text-anchor:middle;" transform="matrix(1 0 0 1 1153.13 322)">Light</text>
  <text style="stroke:none;fill:black;font-family:sans-serif;font-size:13;text-anchor:middle;" transform="matrix(1 0 0 1 1449.84 322)">Regular</text>
  <text style="stroke:none;fill:black;font-family:sans-serif;font-size:13;text-anchor:middle;" transform="matrix(1 0 0 1 1746.56 322)">Medium</text>
  <text style="stroke:none;fill:black;font-family:sans-serif;font-size:13;text-anchor:middle;" transform="matrix(1 0 0 1 2043.27 322)">Semibold</text>
  <text style="stroke:none;fill:black;font-family:sans-serif;font-size:13;text-anchor:middle;" transform="matrix(1 0 0 1 2339.98 322)">Bold</text>
  <text style="stroke:none;fill:black;font-family:sans-serif;font-size:13;text-anchor:middle;" transform="matrix(1 0 0 1 2636.69 322)">Heavy</text>
  <text style="stroke:none;fill:black;font-family:sans-serif;font-size:13;text-anchor:middle;" transform="matrix(1 0 0 1 2933.4 322)">Black</text>
  <line style="fill:none;stroke:black;opacity:1;stroke-width:0.5;" x1="263" x2="3036" y1="1903" y2="1903"/>
  <g transform="matrix(1 0 0 1 263 1933)">
   <path d="M9.24805 0.830078Q10.8691 0.830078 12.2949 0.214844Q13.7207-0.400391 14.8096-1.49414Q15.8984-2.58789 16.5186-4.01367Q17.1387-5.43945 17.1387-7.05078Q17.1387-8.66211 16.5186-10.0879Q15.8984-11.5137 14.8047-12.6074Q13.7109-13.7012 12.2852-14.3164Q10.8594-14.9316 9.23828-14.9316Q7.62695-14.9316 6.20117-14.3164Q4.77539-13.7012 3.69141-12.6074Q2.60742-11.5137 1.9873-10.0879Q1.36719-8.66211 1.36719-7.05078Q1.36719-5.43945 1.9873-4.01367Q2.60742-2.58789 3.69629-1.49414Q4.78516-0.400391 6.21094 0.214844Q7.63672 0.830078 9.24805 0.830078ZM9.24805-0.654297Q7.91992-0.654297 6.7627-1.14746Q5.60547-1.64062 4.73145-2.51953Q3.85742-3.39844 3.36426-4.56055Q2.87109-5.72266 2.87109-7.05078Q2.87109-8.37891 3.35938-9.54102Q3.84766-10.7031 4.72168-11.582Q5.5957-12.4609 6.75293-12.9541Q7.91016-13.4473 9.23828-13.4473Q10.5762-13.4473 11.7334-12.9541Q12.8906-12.4609 13.7695-11.582Q14.6484-10.7031 15.1465-9.54102Q15.6445-8.37891 15.6445-7.05078Q15.6445-5.72266 15.1514-4.56055Q14.6582-3.39844 13.7842-2.51953Q12.9102-1.64062 11.748-1.14746Q10.5859-0.654297 9.24805-0.654297ZM5.6543-7.05078Q5.6543-6.72852 5.85938-6.52832Q6.06445-6.32812 6.40625-6.32812L8.51562-6.32812L8.51562-4.20898Q8.51562-3.88672 8.71094-3.67676Q8.90625-3.4668 9.23828-3.4668Q9.56055-3.4668 9.77051-3.67676Q9.98047-3.88672 9.98047-4.20898L9.98047-6.32812L12.0898-6.32812Q12.4219-6.32812 12.627-6.52832Q12.832-6.72852 12.832-7.05078Q12.832-7.38281 12.627-7.58789Q12.4219-7.79297 12.0898-7.79297L9.98047-7.79297L9.98047-9.90234Q9.98047-10.2344 9.77051-10.4443Q9.56055-10.6543 9.23828-10.6543Q8.90625-10.6543 8.71094-10.4443Q8.51562-10.2344 8.51562-9.90234L8.51562-7.79297L6.40625-7.79297Q6.06445-7.79297 5.85938-7.58789Q5.6543-7.38281 5.6543-7.05078Z"/>
  </g>
  <g transform="matrix(1 0 0 1 281.867 1933)">
   <path d="M11.709 2.91016Q13.75 2.91016 15.5518 2.12891Q17.3535 1.34766 18.7305-0.0292969Q20.1074-1.40625 20.8887-3.20801Q21.6699-5.00977 21.6699-7.05078Q21.6699-9.0918 20.8887-10.8936Q20.1074-12.6953 18.7305-14.0723Q17.3535-15.4492 15.5469-16.2305Q13.7402-17.0117 11.6992-17.0117Q9.6582-17.0117 7.85645-16.2305Q6.05469-15.4492 4.68262-14.0723Q3.31055-12.6953 2.5293-10.8936Q1.74805-9.0918 1.74805-7.05078Q1.74805-5.00977 2.5293-3.20801Q3.31055-1.40625 4.6875-0.0292969Q6.06445 1.34766 7.86621 2.12891Q9.66797 2.91016 11.709 2.91016ZM11.709 1.25Q9.98047 1.25 8.47656 0.605469Q6.97266-0.0390625 5.83496-1.17676Q4.69727-2.31445 4.05762-3.81836Q3.41797-5.32227 3.41797-7.05078Q3.41797-8.7793 4.05762-10.2832Q4.69727-11.7871 5.83008-12.9297Q6.96289-14.0723 8.4668-14.7119Q9.9707-15.3516 11.6992-15.3516Q13.4277-15.3516 14.9316-14.7119Q16.4355-14.0723 17.5781-12.9297Q18.7207-11.7871 19.3652-10.2832Q20.0098-8.7793 20.0098-7.05078Q20.0098-5.32227 19.3701-3.81836Q18.7305-2.31445 17.5928-1.17676Q16.4551-0.0390625 14.9463 0.605469Q13.4375 1.25 11.709 1.25ZM7.17773-7.05078Q7.17773-6.69922 7.41211-6.47461Q7.64648-6.25 8.01758-6.25L10.8887-6.25L10.8887-3.36914Q10.8887-2.99805 11.1133-2.76855Q11.3379-2.53906 11.6895-2.53906Q12.0605-2.53906 12.29-2.76855Q12.5195-2.99805 12.5195-3.36914L12.5195-6.25L15.4004-6.25Q15.7715-6.25 16.001-6.47461Q16.2305-6.69922 16.2305-7.05078Q16.2305-7.42188 16.001-7.65137Q15.7715-7.88086 15.4004-7.88086L12.5195-7.88086L12.5195-10.752Q12.5195-11.1328 12.29-11.3623Q12.0605-11.5918 11.6895-11.5918Q11.3379-11.5918 11.1133-11.3574Q10.8887-11.123 10.8887-10.752L10.8887-7.88086L8.01758-7.88086Q7.63672-7.88086 7.40723-7.65137Q7.17773-7.42188 7.17773-7.05078Z"/>
  </g>
  <g transform="matrix(1 0 0 1 305.646 1933)">
   <path d="M14.9707 5.66406Q17.0605 5.66406 18.96 5.01465Q20.8594 4.36523 22.4512 3.19336Q24.043 2.02148 25.2197 0.429688Q26.3965-1.16211 27.0459-3.06641Q27.6953-4.9707 27.6953-7.05078Q27.6953-9.14062 27.0459-11.04Q26.3965-12.9395 25.2197-14.5312Q24.043-16.123 22.4512-17.2998Q20.8594-18.4766 18.9551-19.126Q17.0508-19.7754 14.9609-19.7754Q12.8711-19.7754 10.9717-19.126Q9.07227-18.4766 7.48535-17.2998Q5.89844-16.123 4.72168-14.5312Q3.54492-12.9395 2.90039-11.04Q2.25586-9.14062 2.25586-7.05078Q2.25586-4.9707 2.90527-3.06641Q3.55469-1.16211 4.72656 0.429688Q5.89844 2.02148 7.49023 3.19336Q9.08203 4.36523 10.9814 5.01465Q12.8809 5.66406 14.9707 5.66406ZM14.9707 3.84766Q13.1641 3.84766 11.5283 3.2959Q9.89258 2.74414 8.53516 1.74805Q7.17773 0.751953 6.17676-0.610352Q5.17578-1.97266 4.62891-3.6084Q4.08203-5.24414 4.08203-7.05078Q4.08203-8.86719 4.62891-10.5029Q5.17578-12.1387 6.17188-13.501Q7.16797-14.8633 8.52539-15.8594Q9.88281-16.8555 11.5186-17.4023Q13.1543-17.9492 14.9609-17.9492Q16.7773-17.9492 18.4131-17.4023Q20.0488-16.8555 21.4111-15.8594Q22.7734-14.8633 23.7695-13.501Q24.7656-12.1387 25.3174-10.5029Q25.8691-8.86719 25.8691-7.05078Q25.8789-5.24414 25.332-3.6084Q24.7852-1.97266 23.7842-0.610352Q22.7832 0.751953 21.4209 1.74805Q20.0586 2.74414 18.4229 3.2959Q16.7871 3.84766 14.9707 3.84766ZM9.19922-7.05078Q9.19922-6.66992 9.45801-6.4209Q9.7168-6.17188 10.1172-6.17188L14.0625-6.17188L14.0625-2.2168Q14.0625-1.81641 14.3115-1.55762Q14.5605-1.29883 14.9512-1.29883Q15.3516-1.29883 15.6104-1.55273Q15.8691-1.80664 15.8691-2.2168L15.8691-6.17188L19.8242-6.17188Q20.2246-6.17188 20.4785-6.4209Q20.7324-6.66992 20.7324-7.05078Q20.7324-7.46094 20.4785-7.71484Q20.2246-7.96875 19.8242-7.96875L15.8691-7.96875L15.8691-11.9141Q15.8691-12.3242 15.6104-12.583Q15.3516-12.8418 14.9512-12.8418Q14.5605-12.8418 14.3115-12.583Q14.0625-12.3242 14.0625-11.9141L14.0625-7.96875L10.1172-7.96875Q9.70703-7.96875 9.45312-7.71484Q9.19922-7.46094 9.19922-7.05078Z"/>
  </g>
  <text style="stroke:none;fill:black;font-family:sans-serif;font-size:13;font-weight:bold;" transform="matrix(1 0 0 1 263 1953)">Design Variations</text>
  <text style="stroke:none;fill:black;font-family:sans-serif;font-size:13;" transform="matrix(1 0 0 1 263 1971)">Symbols are supported in up to nine weights and three scales.</text>
  <text style="stroke:none;fill:black;font-family:sans-serif;font-size:13;" transform="matrix(1 0 0 1 263 1989)">For optimal layout with text and other symbols, vertically align</text>
  <text style="stroke:none;fill:black;font-family:sans-serif;font-size:13;" transform="matrix(1 0 0 1 263 2007)">symbols with the adjacent text.</text>
  <line style="fill:none;stroke:#00AEEF;stroke-width:0.5;opacity:1.0;" x1="776" x2="776" y1="1919" y2="1933"/>
  <g transform="matrix(1 0 0 1 776 1933)">
   <path d="M3.31055 0.15625Q3.70117 0.15625 3.91602-0.00976562Q4.13086-0.175781 4.26758-0.585938L5.52734-4.0332L11.2891-4.0332L12.5488-0.585938Q12.6855-0.175781 12.9004-0.00976562Q13.1152 0.15625 13.4961 0.15625Q13.8867 0.15625 14.1162-0.0585938Q14.3457-0.273438 14.3457-0.644531Q14.3457-0.869141 14.2383-1.17188L9.6582-13.3691Q9.48242-13.8184 9.17969-14.043Q8.87695-14.2676 8.4082-14.2676Q7.5-14.2676 7.17773-13.3789L2.59766-1.16211Q2.49023-0.859375 2.49023-0.634766Q2.49023-0.263672 2.70996-0.0537109Q2.92969 0.15625 3.31055 0.15625ZM6.00586-5.51758L8.37891-12.0898L8.42773-12.0898L10.8008-5.51758Z"/>
  </g>
  <line style="fill:none;stroke:#00AEEF;stroke-width:0.5;opacity:1.0;" x1="793.197" x2="793.197" y1="1919" y2="1933"/>
  <text style="stroke:none;fill:black;font-family:sans-serif;font-size:13;font-weight:bold;" transform="matrix(1 0 0 1 776 1953)">Margins</text>
  <text style="stroke:none;fill:black;font-family:sans-serif;font-size:13;" transform="matrix(1 0 0 1 776 1971)">Leading and trailing margins on the left and right side of each symbol</text>
  <text style="stroke:none;fill:black;font-family:sans-serif;font-size:13;" transform="matrix(1 0 0 1 776 1989)">can be adjusted by modifying the x-location of the margin guidelines.</text>
  <text style="stroke:none;fill:black;font-family:sans-serif;font-size:13;" transform="matrix(1 0 0 1 776 2007)">Modifications are automatically applied proportionally to all</text>
  <text style="stroke:none;fill:black;font-family:sans-serif;font-size:13;" transform="matrix(1 0 0 1 776 2025)">scales and weights.</text>
  <g transform="matrix(1 0 0 1 1289 1933)">
   <path d="M2.8418 1.86523L4.54102 3.57422Q5.18555 4.22852 5.90332 4.17969Q6.62109 4.13086 7.31445 3.35938L18.0078-8.42773L17.041-9.4043L6.42578 2.27539Q6.16211 2.57812 5.89355 2.61719Q5.625 2.65625 5.27344 2.30469L4.10156 1.14258Q3.75 0.791016 3.79395 0.522461Q3.83789 0.253906 4.14062-0.0195312L15.6152-10.8203L14.6387-11.7871L3.04688-0.898438Q2.30469-0.214844 2.25098 0.498047Q2.19727 1.21094 2.8418 1.86523ZM9.25781-16.3281Q8.94531-16.0254 8.90625-15.6348Q8.86719-15.2441 9.04297-14.9512Q9.21875-14.6777 9.55566-14.541Q9.89258-14.4043 10.3809-14.5215Q11.4746-14.7754 12.5977-14.7314Q13.7207-14.6875 14.7949-13.9844L14.209-12.5293Q13.9551-11.9043 14.0674-11.4404Q14.1797-10.9766 14.5801-10.5664L16.875-8.25195Q17.2363-7.88086 17.5781-7.82227Q17.9199-7.76367 18.3398-7.8418L19.4043-8.03711L20.0684-7.36328L20.0293-6.80664Q20-6.43555 20.1221-6.12305Q20.2441-5.81055 20.6055-5.44922L21.3672-4.70703Q21.7285-4.3457 22.1533-4.33105Q22.5781-4.31641 22.9297-4.66797L25.8398-7.58789Q26.1914-7.93945 26.1816-8.35449Q26.1719-8.76953 25.8105-9.13086L25.0391-9.89258Q24.6875-10.2539 24.3799-10.3857Q24.0723-10.5176 23.7109-10.4883L23.1348-10.4395L22.4902-11.0742L22.7344-12.1973Q22.832-12.6172 22.6953-12.9834Q22.5586-13.3496 22.1191-13.7891L19.9219-15.9766Q18.6719-17.2168 17.2607-17.8369Q15.8496-18.457 14.4189-18.4814Q12.9883-18.5059 11.665-17.959Q10.3418-17.4121 9.25781-16.3281ZM10.752-15.957Q11.6602-16.6211 12.7002-16.9043Q13.7402-17.1875 14.8047-17.085Q15.8691-16.9824 16.8701-16.5137Q17.8711-16.0449 18.7012-15.2051L21.1328-12.793Q21.3086-12.6172 21.3525-12.4512Q21.3965-12.2852 21.3379-12.0312L21.0156-10.5469L22.5195-9.0625L23.5059-9.12109Q23.6914-9.13086 23.7891-9.09668Q23.8867-9.0625 24.0332-8.91602L24.6094-8.33984L22.168-5.89844L21.5918-6.47461Q21.4453-6.62109 21.4062-6.71875Q21.3672-6.81641 21.377-7.01172L21.4453-7.98828L19.9512-9.47266L18.4277-9.21875Q18.1836-9.16992 18.042-9.2041Q17.9004-9.23828 17.7148-9.41406L15.7129-11.416Q15.5176-11.5918 15.4932-11.7529Q15.4688-11.9141 15.5859-12.1875L16.4648-14.2773Q15.293-15.3711 13.8281-15.791Q12.3633-16.2109 10.8398-15.7617Q10.7227-15.7324 10.6885-15.8057Q10.6543-15.8789 10.752-15.957Z"/>
  </g>
  <text style="stroke:none;fill:black;font-family:sans-serif;font-size:13;font-weight:bold;" transform="matrix(1 0 0 1 1289 1953)">Exporting</text>
  <text style="stroke:none;fill:black;font-family:sans-serif;font-size:13;" transform="matrix(1 0 0 1 1289 1971)">Symbols should be outlined when exporting to ensure the</text>
  <text style="stroke:none;fill:black;font-family:sans-serif;font-size:13;" transform="matrix(1 0 0 1 1289 1989)">design is preserved when submitting to Xcode.</text>
  <text id="template-version" style="stroke:none;fill:black;font-family:sans-serif;font-size:13;text-anchor:end;" transform="matrix(1 0 0 1 3036 1933)">Template v.3.0</text>
  <text style="stroke:none;fill:black;font-family:sans-serif;font-size:13;text-anchor:end;" transform="matrix(1 0 0 1 3036 1951)">Requires Xcode 13 or greater</text>
  <text id="descriptive-name" style="stroke:none;fill:black;font-family:sans-serif;font-size:13;text-anchor:end;" transform="matrix(1 0 0 1 3036 1969)">Generated from house.fill</text>
  <text style="stroke:none;fill:black;font-family:sans-serif;font-size:13;text-anchor:end;" transform="matrix(1 0 0 1 3036 1987)">Typeset at 100 points</text>
  <text style="stroke:none;fill:black;font-family:sans-serif;font-size:13;" transform="matrix(1 0 0 1 263 726)">Small</text>
  <text style="stroke:none;fill:black;font-family:sans-serif;font-size:13;" transform="matrix(1 0 0 1 263 1156)">Medium</text>
  <text style="stroke:none;fill:black;font-family:sans-serif;font-size:13;" transform="matrix(1 0 0 1 263 1586)">Large</text>
 </g>
 <g id="Guides">
  <g id="H-reference" style="fill:#27AAE1;stroke:none;" transform="matrix(1 0 0 1 339 696)">
   <path d="M0.976562 0L3.66211 0L29.3457-67.1387L30.0293-67.1387L30.0293-70.459L28.125-70.459ZM11.6699-24.4629L46.9727-24.4629L46.2402-26.709L12.4512-26.709ZM55.127 0L57.7637 0L30.6152-70.459L29.4434-70.459L29.4434-67.1387Z"/>
  </g>
  <line id="Baseline-S" style="fill:none;stroke:#27AAE1;opacity:1;stroke-width:0.5;" x1="263" x2="3036" y1="696" y2="696"/>
  <line id="Capline-S" style="fill:none;stroke:#27AAE1;opacity:1;stroke-width:0.5;" x1="263" x2="3036" y1="625.541" y2="625.541"/>
  <g id="H-reference" style="fill:#27AAE1;stroke:none;" transform="matrix(1 0 0 1 339 1126)">
   <path d="M0.976562 0L3.66211 0L29.3457-67.1387L30.0293-67.1387L30.0293-70.459L28.125-70.459ZM11.6699-24.4629L46.9727-24.4629L46.2402-26.709L12.4512-26.709ZM55.127 0L57.7637 0L30.6152-70.459L29.4434-70.459L29.4434-67.1387Z"/>
  </g>
  <line id="Baseline-M" style="fill:none;stroke:#27AAE1;opacity:1;stroke-width:0.5;" x1="263" x2="3036" y1="1126" y2="1126"/>
  <line id="Capline-M" style="fill:none;stroke:#27AAE1;opacity:1;stroke-width:0.5;" x1="263" x2="3036" y1="1055.54" y2="1055.54"/>
  <g id="H-reference" style="fill:#27AAE1;stroke:none;" transform="matrix(1 0 0 1 339 1556)">
   <path d="M0.976562 0L3.66211 0L29.3457-67.1387L30.0293-67.1387L30.0293-70.459L28.125-70.459ZM11.6699-24.4629L46.9727-24.4629L46.2402-26.709L12.4512-26.709ZM55.127 0L57.7637 0L30.6152-70.459L29.4434-70.459L29.4434-67.1387Z"/>
  </g>
  <line id="Baseline-L" style="fill:none;stroke:#27AAE1;opacity:1;stroke-width:0.5;" x1="263" x2="3036" y1="1556" y2="1556"/>
  <line id="Capline-L" style="fill:none;stroke:#27AAE1;opacity:1;stroke-width:0.5;" x1="263" x2="3036" y1="1485.54" y2="1485.54"/>
  <line id="left-margin-Ultralight-S" style="fill:none;stroke:#00AEEF;stroke-width:0.5;opacity:1.0;" x1="508.564" x2="508.564" y1="600.785" y2="720.121"/>
  <line id="right-margin-Ultralight-S" style="fill:none;stroke:#00AEEF;stroke-width:0.5;opacity:1.0;" x1="610.859" x2="610.859" y1="600.785" y2="720.121"/>
  <line id="left-margin-Thin-S" style="fill:none;stroke:#00AEEF;stroke-width:0.5;opacity:1.0;" x1="804.103" x2="804.103" y1="600.785" y2="720.121"/>
  <line id="right-margin-Thin-S" style="fill:none;stroke:#00AEEF;stroke-width:0.5;opacity:1.0;" x1="908.742" x2="908.742" y1="600.785" y2="720.121"/>
  <line id="left-margin-Light-S" style="fill:none;stroke:#00AEEF;stroke-width:0.5;opacity:1.0;" x1="1098.49" x2="1098.49" y1="600.785" y2="720.121"/>
  <line id="right-margin-Light-S" style="fill:none;stroke:#00AEEF;stroke-width:0.5;opacity:1.0;" x1="1207.77" x2="1207.77" y1="600.785" y2="720.121"/>
  <line id="left-margin-Regular-S" style="fill:none;stroke:#00AEEF;stroke-width:0.5;opacity:1.0;" x1="1393.47" x2="1393.47" y1="600.785" y2="720.121"/>
  <line id="right-margin-Regular-S" style="fill:none;stroke:#00AEEF;stroke-width:0.5;opacity:1.0;" x1="1506.22" x2="1506.22" y1="600.785" y2="720.121"/>
  <line id="left-margin-Medium-S" style="fill:none;stroke:#00AEEF;stroke-width:0.5;opacity:1.0;" x1="1689.26" x2="1689.26" y1="600.785" y2="720.121"/>
  <line id="right-margin-Medium-S" style="fill:none;stroke:#00AEEF;stroke-width:0.5;opacity:1.0;" x1="1803.86" x2="1803.86" y1="600.785" y2="720.121"/>
  <line id="left-margin-Semibold-S" style="fill:none;stroke:#00AEEF;stroke-width:0.5;opacity:1.0;" x1="1985.26" x2="1985.26" y1="600.785" y2="720.121"/>
  <line id="right-margin-Semibold-S" style="fill:none;stroke:#00AEEF;stroke-width:0.5;opacity:1.0;" x1="2101.27" x2="2101.27" y1="600.785" y2="720.121"/>
  <line id="left-margin-Bold-S" style="fill:none;stroke:#00AEEF;stroke-width:0.5;opacity:1.0;" x1="2281.02" x2="2281.02" y1="600.785" y2="720.121"/>
  <line id="right-margin-Bold-S" style="fill:none;stroke:#00AEEF;stroke-width:0.5;opacity:1.0;" x1="2398.94" x2="2398.94" y1="600.785" y2="720.121"/>
  <line id="left-margin-Heavy-S" style="fill:none;stroke:#00AEEF;stroke-width:0.5;opacity:1.0;" x1="2576.39" x2="2576.39" y1="600.785" y2="720.121"/>
  <line id="right-margin-Heavy-S" style="fill:none;stroke:#00AEEF;stroke-width:0.5;opacity:1.0;" x1="2696.99" x2="2696.99" y1="600.785" y2="720.121"/>
  <line id="left-margin-Black-S" style="fill:none;stroke:#00AEEF;stroke-width:0.5;opacity:1.0;" x1="2871.88" x2="2871.88" y1="600.785" y2="720.121"/>
  <line id="right-margin-Black-S" style="fill:none;stroke:#00AEEF;stroke-width:0.5;opacity:1.0;" x1="2994.92" x2="2994.92" y1="600.785" y2="720.121"/>
  <line id="left-margin-Ultralight-M" style="fill:none;stroke:#00AEEF;stroke-width:0.5;opacity:1.0;" x1="494.892" x2="494.892" y1="1030.79" y2="1150.12"/>
  <line id="right-margin-Ultralight-M" style="fill:none;stroke:#00AEEF;stroke-width:0.5;opacity:1.0;" x1="624.53" x2="624.53" y1="1030.79" y2="1150.12"/>
  <line id="left-margin-Thin-M" style="fill:none;stroke:#00AEEF;stroke-width:0.5;opacity:1.0;" x1="790.26" x2="790.26" y1="1030.79" y2="1150.12"/>
  <line id="right-margin-Thin-M" style="fill:none;stroke:#00AEEF;stroke-width:0.5;opacity:1.0;" x1="922.584" x2="922.584" y1="1030.79" y2="1150.12"/>
  <line id="left-margin-Light-M" style="fill:none;stroke:#00AEEF;stroke-width:0.5;opacity:1.0;" x1="1084.38" x2="1084.38" y1="1030.79" y2="1150.12"/>
  <line id="right-margin-Light-M" style="fill:none;stroke:#00AEEF;stroke-width:0.5;opacity:1.0;" x1="1221.88" x2="1221.88" y1="1030.79" y2="1150.12"/>
  <line id="left-margin-Regular-M" style="fill:none;stroke:#00AEEF;stroke-width:0.5;opacity:1.0;" x1="1379.12" x2="1379.12" y1="1030.79" y2="1150.12"/>
  <line id="right-margin-Regular-M" style="fill:none;stroke:#00AEEF;stroke-width:0.5;opacity:1.0;" x1="1520.57" x2="1520.57" y1="1030.79" y2="1150.12"/>
  <line id="left-margin-Medium-M" style="fill:none;stroke:#00AEEF;stroke-width:0.5;opacity:1.0;" x1="1674.51" x2="1674.51" y1="1030.79" y2="1150.12"/>
  <line id="right-margin-Medium-M" style="fill:none;stroke:#00AEEF;stroke-width:0.5;opacity:1.0;" x1="1818.6" x2="1818.6" y1="1030.79" y2="1150.12"/>
  <line id="left-margin-Semibold-M" style="fill:none;stroke:#00AEEF;stroke-width:0.5;opacity:1.0;" x1="1970.22" x2="1970.22" y1="1030.79" y2="1150.12"/>
  <line id="right-margin-Semibold-M" style="fill:none;stroke:#00AEEF;stroke-width:0.5;opacity:1.0;" x1="2116.31" x2="2116.31" y1="1030.79" y2="1150.12"/>
  <line id="left-margin-Bold-M" style="fill:none;stroke:#00AEEF;stroke-width:0.5;opacity:1.0;" x1="2265.61" x2="2265.61" y1="1030.79" y2="1150.12"/>
  <line id="right-margin-Bold-M" style="fill:none;stroke:#00AEEF;stroke-width:0.5;opacity:1.0;" x1="2414.34" x2="2414.34" y1="1030.79" y2="1150.12"/>
  <line id="left-margin-Heavy-M" style="fill:none;stroke:#00AEEF;stroke-width:0.5;opacity:1.0;" x1="2560.39" x2="2560.39" y1="1030.79" y2="1150.12"/>
  <line id="right-margin-Heavy-M" style="fill:none;stroke:#00AEEF;stroke-width:0.5;opacity:1.0;" x1="2712.98" x2="2712.98" y1="1030.79" y2="1150.12"/>
  <line id="left-margin-Black-M" style="fill:none;stroke:#00AEEF;stroke-width:0.5;opacity:1.0;" x1="2855.4" x2="2855.4" y1="1030.79" y2="1150.12"/>
  <line id="right-margin-Black-M" style="fill:none;stroke:#00AEEF;stroke-width:0.5;opacity:1.0;" x1="3011.4" x2="3011.4" y1="1030.79" y2="1150.12"/>
  <line id="left-margin-Ultralight-L" style="fill:none;stroke:#00AEEF;stroke-width:0.5;opacity:1.0;" x1="476.654" x2="476.654" y1="1460.79" y2="1580.12"/>
  <line id="right-margin-Ultralight-L" style="fill:none;stroke:#00AEEF;stroke-width:0.5;opacity:1.0;" x1="642.768" x2="642.768" y1="1460.79" y2="1580.12"/>
  <line id="left-margin-Thin-L" style="fill:none;stroke:#00AEEF;stroke-width:0.5;opacity:1.0;" x1="771.876" x2="771.876" y1="1460.79" y2="1580.12"/>
  <line id="right-margin-Thin-L" style="fill:none;stroke:#00AEEF;stroke-width:0.5;opacity:1.0;" x1="940.968" x2="940.968" y1="1460.79" y2="1580.12"/>
  <line id="left-margin-Light-L" style="fill:none;stroke:#00AEEF;stroke-width:0.5;opacity:1.0;" x1="1065.68" x2="1065.68" y1="1460.79" y2="1580.12"/>
  <line id="right-margin-Light-L" style="fill:none;stroke:#00AEEF;stroke-width:0.5;opacity:1.0;" x1="1240.58" x2="1240.58" y1="1460.79" y2="1580.12"/>
  <line id="left-margin-Regular-L" style="fill:none;stroke:#00AEEF;stroke-width:0.5;opacity:1.0;" x1="1360.2" x2="1360.2" y1="1460.79" y2="1580.12"/>
  <line id="right-margin-Regular-L" style="fill:none;stroke:#00AEEF;stroke-width:0.5;opacity:1.0;" x1="1539.49" x2="1539.49" y1="1460.79" y2="1580.12"/>
  <line id="left-margin-Medium-L" style="fill:none;stroke:#00AEEF;stroke-width:0.5;opacity:1.0;" x1="1655.2" x2="1655.2" y1="1460.79" y2="1580.12"/>
  <line id="right-margin-Medium-L" style="fill:none;stroke:#00AEEF;stroke-width:0.5;opacity:1.0;" x1="1837.91" x2="1837.91" y1="1460.79" y2="1580.12"/>
  <line id="left-margin-Semibold-L" style="fill:none;stroke:#00AEEF;stroke-width:0.5;opacity:1.0;" x1="1950.62" x2="1950.62" y1="1460.79" y2="1580.12"/>
  <line id="right-margin-Semibold-L" style="fill:none;stroke:#00AEEF;stroke-width:0.5;opacity:1.0;" x1="2135.92" x2="2135.92" y1="1460.79" y2="1580.12"/>
  <line id="left-margin-Bold-L" style="fill:none;stroke:#00AEEF;stroke-width:0.5;opacity:1.0;" x1="2245.59" x2="2245.59" y1="1460.79" y2="1580.12"/>
  <line id="right-margin-Bold-L" style="fill:none;stroke:#00AEEF;stroke-width:0.5;opacity:1.0;" x1="2434.36" x2="2434.36" y1="1460.79" y2="1580.12"/>
  <line id="left-margin-Heavy-L" style="fill:none;stroke:#00AEEF;stroke-width:0.5;opacity:1.0;" x1="2539.81" x2="2539.81" y1="1460.79" y2="1580.12"/>
  <line id="right-margin-Heavy-L" style="fill:none;stroke:#00AEEF;stroke-width:0.5;opacity:1.0;" x1="2733.56" x2="2733.56" y1="1460.79" y2="1580.12"/>
  <line id="left-margin-Black-L" style="fill:none;stroke:#00AEEF;stroke-width:0.5;opacity:1.0;" x1="2834.28" x2="2834.28" y1="1460.79" y2="1580.12"/>
  <line id="right-margin-Black-L" style="fill:none;stroke:#00AEEF;stroke-width:0.5;opacity:1.0;" x1="3032.52" x2="3032.52" y1="1460.79" y2="1580.12"/>
 </g>
 <g id="Symbols">
  <g id="Black-L" transform="matrix(1 0 0 1 2834.28 1556)">
   <path class="multicolor-0:systemCyanColor SFSymbolsPreview55BEF0" d="M39.1602 14.209Q39.1602 21.8262 44.0674 26.3916Q48.9746 30.957 57.1777 30.957L141.016 30.957Q149.219 30.957 154.126 26.3916Q159.033 21.8262 159.033 14.209L159.033-26.709L103.369-73.4375Q101.416-75.0977 99.1455-75.0977Q96.875-75.0977 94.9707-73.4375L39.1602-26.709ZM16.0645-43.6523Q16.0645-39.4043 18.8232-36.7188Q21.582-34.0332 26.2207-34.0332Q28.2227-34.0332 30.249-34.9121Q32.2754-35.791 34.0332-37.3047L95.0195-88.4277Q97.0215-90.1367 99.1699-90.1123Q101.318-90.0879 103.369-88.4277L164.258-37.3047Q166.016-35.791 168.042-34.9121Q170.068-34.0332 172.07-34.0332Q176.562-34.0332 179.37-36.6211Q182.178-39.209 182.178-43.5547Q182.178-48.3887 178.125-51.8066L112.402-107.031Q106.445-112.012 99.1943-112.012Q91.9434-112.012 86.0352-107.031L20.166-51.709Q16.0645-48.2422 16.0645-43.6523ZM116.602 8.98438L81.6406 8.98438L81.6406-27.4902Q81.6406-29.834 83.0811-31.2256Q84.5215-32.6172 86.8652-32.6172L111.426-32.6172Q113.77-32.6172 115.186-31.2256Q116.602-29.834 116.602-27.4902ZM135.01-81.8359L159.961-61.0352L159.961-95.8984Q159.961-98.2422 158.569-99.6582Q157.178-101.074 154.834-101.074L140.234-101.074Q137.891-101.074 136.45-99.6582Q135.01-98.2422 135.01-95.8984Z"/>
  </g>
  <g id="Heavy-L" transform="matrix(1 0 0 1 2539.81 1556)">
   <path class="multicolor-0:systemCyanColor SFSymbolsPreview55BEF0" d="M38.1348 13.7207Q38.1348 20.9961 42.7002 25.3174Q47.2656 29.6387 55.0293 29.6387L138.721 29.6387Q146.484 29.6387 151.074 25.3174Q155.664 20.9961 155.664 13.7207L155.664-29.9316L101.074-75.7324Q99.1211-77.3926 96.8994-77.3926Q94.6777-77.3926 92.8223-75.7324L38.1348-29.9316ZM16.0645-43.8965Q16.0645-40.2344 18.457-37.8906Q20.8496-35.5469 24.9023-35.5469Q26.709-35.5469 28.4668-36.3281Q30.2246-37.1094 31.7871-38.4277L93.2129-89.9414Q95.0195-91.5039 96.9482-91.4795Q98.877-91.4551 100.732-89.9414L162.061-38.4277Q163.574-37.1094 165.356-36.3281Q167.139-35.5469 168.896-35.5469Q172.803-35.5469 175.244-37.793Q177.686-40.0391 177.686-43.7988Q177.686-47.998 174.219-50.9766L108.74-106.006Q103.418-110.449 96.9727-110.449Q90.5273-110.449 85.2539-106.006L19.6289-50.8789Q16.0645-47.9004 16.0645-43.8965ZM114.014 10.791L79.7363 10.791L79.7363-27.0508Q79.7363-29.2969 81.1279-30.6396Q82.5195-31.9824 84.8145-31.9824L109.033-31.9824Q111.279-31.9824 112.646-30.6396Q114.014-29.2969 114.014-27.0508ZM133.936-79.2969L156.348-60.498L156.348-93.9941Q156.348-96.2402 155.029-97.583Q153.711-98.9258 151.514-98.9258L138.867-98.9258Q136.67-98.9258 135.303-97.583Q133.936-96.2402 133.936-93.9941Z"/>
  </g>
  <g id="Bold-L" transform="matrix(1 0 0 1 2245.59 1556)">
   <path class="multicolor-0:systemCyanColor SFSymbolsPreview55BEF0" d="M36.9629 13.1836Q36.9629 20.1172 41.1865 24.1455Q45.4102 28.1738 52.6367 28.1738L136.182 28.1738Q143.457 28.1738 147.681 24.1455Q151.904 20.1172 151.904 13.1836L151.904-33.5449L98.4863-78.3691Q96.5332-79.9805 94.4092-79.9561Q92.2852-79.9316 90.4297-78.3691L36.9629-33.5449ZM16.0645-44.1895Q16.0645-41.2109 18.0664-39.2334Q20.0684-37.2559 23.4863-37.2559Q25.0488-37.2559 26.5137-37.9395Q27.9785-38.623 29.248-39.7461L91.2109-91.6504Q92.7734-93.0176 94.458-93.0176Q96.1426-93.0176 97.7539-91.6504L159.57-39.7461Q160.889-38.623 162.354-37.9395Q163.818-37.2559 165.381-37.2559Q168.604-37.2559 170.654-39.0869Q172.705-40.918 172.705-44.043Q172.705-47.6074 169.824-50.0488L104.639-104.883Q100-108.74 94.4824-108.74Q88.9648-108.74 84.375-104.883L18.9941-50Q16.0645-47.5586 16.0645-44.1895ZM111.182 12.8418L77.5879 12.8418L77.5879-26.5137Q77.5879-28.7109 78.9307-30.0293Q80.2734-31.3477 82.4707-31.3477L106.348-31.3477Q108.545-31.3477 109.863-30.0293Q111.182-28.7109 111.182-26.5137ZM132.715-76.416L152.344-59.9609L152.344-91.8945Q152.344-93.9941 151.099-95.2393Q149.854-96.4844 147.754-96.4844L137.354-96.4844Q135.303-96.4844 134.009-95.2393Q132.715-93.9941 132.715-91.8945Z"/>
  </g>
  <g id="Semibold-L" transform="matrix(1 0 0 1 1950.62 1556)">
   <path class="multicolor-0:systemCyanColor SFSymbolsPreview55BEF0" d="M36.1328 12.793Q36.1328 19.4824 40.1123 23.3154Q44.0918 27.1484 50.9766 27.1484L134.424 27.1484Q141.309 27.1484 145.288 23.3154Q149.268 19.4824 149.268 12.793L149.268-35.9863L96.6797-80.127Q94.7754-81.7383 92.6758-81.7139Q90.5762-81.6895 88.7207-80.127L36.1328-36.0352ZM16.0645-44.3359Q16.0645-41.8457 17.7734-40.1123Q19.4824-38.3789 22.4609-38.3789Q23.877-38.3789 25.1221-39.0137Q26.3672-39.6484 27.4902-40.625L89.7949-92.8223Q91.2109-94.043 92.7246-94.0674Q94.2383-94.0918 95.7031-92.8223L157.861-40.625Q158.984-39.6484 160.254-39.0137Q161.523-38.3789 162.939-38.3789Q165.674-38.3789 167.456-39.9658Q169.238-41.5527 169.238-44.2383Q169.238-47.2656 166.797-49.3652L101.758-104.053Q97.6562-107.568 92.7734-107.568Q87.8906-107.568 83.7402-104.053L18.5547-49.3652Q16.0645-47.2656 16.0645-44.3359ZM109.18 14.2578L76.123 14.2578L76.123-26.1719Q76.123-28.3203 77.417-29.5898Q78.7109-30.8594 80.8594-30.8594L104.443-30.8594Q106.592-30.8594 107.886-29.5898Q109.18-28.3203 109.18-26.1719ZM131.836-74.4629L149.561-59.5215L149.561-90.4297Q149.561-92.4316 148.364-93.6279Q147.168-94.8242 145.166-94.8242L136.328-94.8242Q134.326-94.8242 133.081-93.6279Q131.836-92.4316 131.836-90.4297Z"/>
  </g>
  <g id="Medium-L" transform="matrix(1 0 0 1 1655.2 1556)">
   <path class="multicolor-0:systemCyanColor SFSymbolsPreview55BEF0" d="M35.498 12.5488Q35.498 19.043 39.2822 22.7051Q43.0664 26.3672 49.707 26.3672L133.105 26.3672Q139.746 26.3672 143.53 22.7051Q147.314 19.043 147.314 12.5488L147.314-37.8906L95.3125-81.4941Q93.4082-83.0566 91.3574-83.0322Q89.3066-83.0078 87.5-81.4941L35.498-37.9395ZM16.0645-44.4824Q16.0645-42.3828 17.5537-40.8203Q19.043-39.2578 21.6797-39.2578Q22.998-39.2578 24.0967-39.8438Q25.1953-40.4297 26.1719-41.2598L88.7207-93.7012Q89.9902-94.8242 91.4062-94.8486Q92.8223-94.873 94.1406-93.7012L156.592-41.2598Q157.568-40.4297 158.691-39.8438Q159.814-39.2578 161.084-39.2578Q163.477-39.2578 165.063-40.625Q166.65-41.9922 166.65-44.3359Q166.65-47.0703 164.502-48.877L99.6094-103.467Q95.8984-106.641 91.4795-106.641Q87.0605-106.641 83.252-103.467L18.2617-48.877Q16.0645-47.0703 16.0645-44.4824ZM107.666 15.332L75 15.332L75-25.8789Q75-27.9785 76.2695-29.248Q77.5391-30.5176 79.6387-30.5176L103.076-30.5176Q105.176-30.5176 106.421-29.248Q107.666-27.9785 107.666-25.8789ZM131.201-72.9492L147.461-59.2285L147.461-89.3555Q147.461-91.2598 146.289-92.4072Q145.117-93.5547 143.213-93.5547L135.498-93.5547Q133.594-93.5547 132.397-92.4072Q131.201-91.2598 131.201-89.3555Z"/>
  </g>
  <g id="Regular-L" transform="matrix(1 0 0 1 1360.2 1556)">
   <path class="multicolor-0:systemCyanColor SFSymbolsPreview55BEF0" d="M34.7168 12.1582Q34.7168 18.4082 38.2568 21.875Q41.7969 25.3418 48.0957 25.3418L131.348 25.3418Q137.646 25.3418 141.187 21.875Q144.727 18.4082 144.727 12.1582L144.727-40.332L93.5547-83.252Q91.6504-84.8145 89.6484-84.79Q87.6465-84.7656 85.8398-83.252L34.7168-40.3809ZM16.0645-44.6777Q16.0645-43.0176 17.2852-41.7236Q18.5059-40.4297 20.7031-40.4297Q21.8262-40.4297 22.7295-40.9424Q23.6328-41.4551 24.4629-42.1387L87.3535-94.873Q88.4766-95.8496 89.7217-95.8984Q90.9668-95.9473 92.1387-94.873L154.883-42.1387Q155.713-41.4551 156.641-40.9424Q157.568-40.4297 158.691-40.4297Q160.596-40.4297 161.914-41.5283Q163.232-42.627 163.232-44.5312Q163.232-46.7773 161.523-48.2422L96.8262-102.686Q93.5547-105.469 89.7705-105.469Q85.9863-105.469 82.666-102.686L17.8223-48.2422Q16.0645-46.8262 16.0645-44.6777ZM105.713 16.6992L73.5352 16.6992L73.5352-25.5371Q73.5352-27.5879 74.7803-28.8086Q76.0254-30.0293 78.0762-30.0293L101.221-30.0293Q103.271-30.0293 104.492-28.8086Q105.713-27.5879 105.713-25.5371ZM130.371-70.9961L144.727-58.8379L144.727-87.8906Q144.727-89.7461 143.604-90.8203Q142.48-91.8945 140.674-91.8945L134.473-91.8945Q132.666-91.8945 131.519-90.8203Q130.371-89.7461 130.371-87.8906Z"/>
  </g>
  <g id="Light-L" transform="matrix(1 0 0 1 1065.68 1556)">
   <path class="multicolor-0:systemCyanColor SFSymbolsPreview55BEF0" d="M33.3496 12.7441Q33.3496 18.5547 36.5967 21.7773Q39.8438 25 45.6543 25L129.443 25Q135.254 25 138.525 21.7773Q141.797 18.5547 141.797 12.7441L141.797-43.2129L91.4551-85.4492Q89.4531-87.0605 87.4756-87.0361Q85.498-87.0117 83.5938-85.4492L33.3496-43.3105ZM16.0645-44.9219Q16.0645-43.6523 16.9922-42.6758Q17.9199-41.6992 19.5801-41.6992Q20.4102-41.6992 21.0693-42.0654Q21.7285-42.4316 22.3633-42.9688L84.9609-95.459Q86.1816-96.5332 87.5-96.6064Q88.8184-96.6797 90.1855-95.459L152.588-42.9688Q153.223-42.4316 153.882-42.0654Q154.541-41.6992 155.371-41.6992Q156.836-41.6992 157.837-42.5537Q158.838-43.4082 158.838-44.8242Q158.838-46.5332 157.422-47.7539L93.9453-101.221Q90.9668-103.76 87.5977-103.76Q84.2285-103.76 81.2012-101.221L17.4805-47.7539Q16.0645-46.582 16.0645-44.9219ZM103.32 18.3594L71.582 18.3594L71.582-24.6094Q71.582-26.4648 72.7051-27.5879Q73.8281-28.7109 75.6836-28.7109L99.2188-28.7109Q101.074-28.7109 102.197-27.5879Q103.32-26.4648 103.32-24.6094ZM129.492-68.3105L141.797-57.9102L141.797-86.8164Q141.797-88.3301 140.845-89.2334Q139.893-90.1367 138.428-90.1367L132.91-90.1367Q131.396-90.1367 130.444-89.2334Q129.492-88.3301 129.492-86.8164Z"/>
  </g>
  <g id="Thin-L" transform="matrix(1 0 0 1 771.876 1556)">
   <path class="multicolor-0:systemCyanColor SFSymbolsPreview55BEF0" d="M31.4941 13.5742Q31.4941 18.75 34.3994 21.6309Q37.3047 24.5117 42.4805 24.5117L126.904 24.5117Q132.08 24.5117 134.985 21.6309Q137.891 18.75 137.891 13.5742L137.891-46.9727L88.7207-88.3301Q86.5723-90.0879 84.5947-90.0635Q82.6172-90.0391 80.5664-88.3301L31.4941-47.1191ZM16.0645-45.2637Q16.0645-44.4824 16.6016-43.9453Q17.1387-43.4082 18.0664-43.4082Q18.6035-43.4082 18.9209-43.6035Q19.2383-43.7988 19.6289-44.0918L81.7871-96.2402Q83.1543-97.4121 84.5703-97.5342Q85.9863-97.6562 87.5977-96.2402L149.512-44.0918Q149.854-43.7988 150.195-43.6035Q150.537-43.4082 151.025-43.4082Q151.904-43.4082 152.466-43.9209Q153.027-44.4336 153.027-45.2148Q153.027-46.2402 152.051-47.0703L90.1855-99.2188Q87.5977-101.514 84.7412-101.514Q81.8848-101.514 79.1992-99.2188L17.041-47.0703Q16.0645-46.2402 16.0645-45.2637ZM100.146 20.6055L68.9453 20.6055L68.9453-23.3887Q68.9453-25 69.9463-25.9766Q70.9473-26.9531 72.5586-26.9531L96.5332-26.9531Q98.1934-26.9531 99.1699-25.9766Q100.146-25 100.146-23.3887ZM128.32-64.7949L137.891-56.6406L137.891-85.3516Q137.891-86.4746 137.183-87.1338Q136.475-87.793 135.4-87.793L130.811-87.793Q129.736-87.793 129.028-87.1338Q128.32-86.4746 128.32-85.3516Z"/>
  </g>
  <g id="Ultralight-L" transform="matrix(1 0 0 1 476.654 1556)">
   <path class="multicolor-0:systemCyanColor SFSymbolsPreview55BEF0" d="M30.5664 13.9648Q30.5664 18.8477 33.2764 21.582Q35.9863 24.3164 40.8203 24.3164L125.635 24.3164Q130.469 24.3164 133.203 21.582Q135.938 18.8477 135.938 13.9648L135.938-48.9258L87.3047-89.7949Q85.0586-91.6016 83.1055-91.5771Q81.1523-91.5527 79.0527-89.7949L30.5664-49.1211ZM16.0645-45.4102Q16.0645-44.9219 16.4062-44.6045Q16.748-44.2871 17.2852-44.2871Q17.627-44.2871 17.7979-44.3604Q17.9688-44.4336 18.2129-44.6289L80.1758-96.6309Q81.6406-97.9004 83.0811-98.0469Q84.5215-98.1934 86.2793-96.6309L147.949-44.6289Q148.193-44.4336 148.34-44.3604Q148.486-44.2871 148.779-44.2871Q149.365-44.2871 149.707-44.6289Q150.049-44.9707 150.049-45.459Q150.049-46.0938 149.268-46.7285L88.2324-98.2422Q85.8398-100.342 83.2764-100.342Q80.7129-100.342 78.2227-98.2422L16.8457-46.7285Q16.0645-46.0938 16.0645-45.4102ZM98.4863 21.7285L67.627 21.7285L67.627-22.7539Q67.627-24.2676 68.5303-25.1709Q69.4336-26.0742 70.9473-26.0742L95.166-26.0742Q96.6797-26.0742 97.583-25.1709Q98.4863-24.2676 98.4863-22.7539ZM127.734-62.9395L135.938-56.0059L135.938-84.6191Q135.938-85.5469 135.327-86.084Q134.717-86.6211 133.887-86.6211L129.736-86.6211Q128.906-86.6211 128.32-86.084Q127.734-85.5469 127.734-84.6191Z"/>
  </g>
  <g id="Black-M" transform="matrix(1 0 0 1 2855.4 1126)">
   <path class="multicolor-0:systemCyanColor SFSymbolsPreview55BEF0" d="M30.7617 3.71094Q30.7617 9.76562 34.7656 13.4277Q38.7695 17.0898 45.3613 17.0898L110.596 17.0898Q117.188 17.0898 121.167 13.4277Q125.146 9.76562 125.146 3.71094L125.146-26.8066L81.3965-63.623Q78.0273-66.4551 74.6582-63.623L30.7617-26.8066ZM12.4512-41.6016Q12.4512-37.9395 14.7949-35.6934Q17.1387-33.4473 21.0449-33.4473Q22.7051-33.4473 24.4141-34.1553Q26.123-34.8633 27.5879-36.1328L74.3652-75.3418Q76.1719-76.8555 78.0518-76.8555Q79.9316-76.8555 81.7383-75.3418L128.369-36.1328Q129.883-34.8633 131.592-34.1553Q133.301-33.4473 134.961-33.4473Q138.818-33.4473 141.187-35.6689Q143.555-37.8906 143.555-41.6016Q143.555-45.6543 140.039-48.584L89.2578-91.2598Q84.2285-95.459 78.0518-95.459Q71.875-95.459 66.8457-91.2598L15.9668-48.5352Q12.4512-45.5078 12.4512-41.6016ZM91.748-1.95312L64.2578-1.95312L64.2578-29.2969Q64.2578-31.1035 65.3564-32.2021Q66.4551-33.3008 68.3105-33.3008L87.7441-33.3008Q89.5508-33.3008 90.6494-32.2021Q91.748-31.1035 91.748-29.2969ZM105.273-72.6562L126.074-55.3223L126.074-83.4961Q126.074-85.3027 125-86.4014Q123.926-87.5 122.07-87.5L109.326-87.5Q107.52-87.5 106.396-86.4014Q105.273-85.3027 105.273-83.4961Z"/>
  </g>
  <g id="Heavy-M" transform="matrix(1 0 0 1 2560.39 1126)">
   <path class="multicolor-0:systemCyanColor SFSymbolsPreview55BEF0" d="M30.0293 3.07617Q30.0293 8.93555 33.7891 12.4023Q37.5488 15.8691 43.7988 15.8691L108.789 15.8691Q115.039 15.8691 118.75 12.4023Q122.461 8.93555 122.461 3.07617L122.461-29.3457L79.5898-65.4297Q76.3184-68.1641 73.0469-65.4297L30.0293-29.3457ZM12.4512-41.7969Q12.4512-38.623 14.502-36.6455Q16.5527-34.668 20.0195-34.668Q21.5332-34.668 23.0225-35.3027Q24.5117-35.9375 25.8301-37.0605L73.0957-76.709Q74.707-78.0273 76.3428-78.0273Q77.9785-78.0273 79.541-76.709L126.709-37.0605Q128.027-35.9375 129.541-35.3027Q131.055-34.668 132.568-34.668Q135.938-34.668 138.037-36.5967Q140.137-38.5254 140.137-41.748Q140.137-45.3613 137.061-47.9004L86.2793-90.5762Q81.7871-94.3359 76.3184-94.3359Q70.8496-94.3359 66.4062-90.5762L15.5273-47.8516Q12.4512-45.2148 12.4512-41.7969ZM89.7461-0.537109L62.793-0.537109L62.793-29.0527Q62.793-30.8105 63.8916-31.8848Q64.9902-32.959 66.7969-32.959L85.8398-32.959Q87.5977-32.959 88.6719-31.8848Q89.7461-30.8105 89.7461-29.0527ZM104.395-70.7031L123.193-55.0293L123.193-81.8848Q123.193-83.6426 122.144-84.7168Q121.094-85.791 119.287-85.791L108.301-85.791Q106.592-85.791 105.493-84.7168Q104.395-83.6426 104.395-81.8848Z"/>
  </g>
  <g id="Bold-M" transform="matrix(1 0 0 1 2265.61 1126)">
   <path class="multicolor-0:systemCyanColor SFSymbolsPreview55BEF0" d="M29.248 2.44141Q29.248 8.00781 32.6904 11.2549Q36.1328 14.502 42.041 14.502L106.738 14.502Q112.598 14.502 116.04 11.2549Q119.482 8.00781 119.482 2.44141L119.482-32.1777L77.5391-67.4316Q74.4141-70.0684 71.2402-67.4316L29.248-32.1777ZM12.4512-42.041Q12.4512-39.4531 14.1846-37.7197Q15.918-35.9863 18.8477-35.9863Q20.2148-35.9863 21.4844-36.5967Q22.7539-37.207 23.877-38.1348L71.7285-78.2227Q73.0469-79.3457 74.4385-79.3457Q75.8301-79.3457 77.1484-78.2227L124.902-38.1348Q126.025-37.207 127.295-36.5967Q128.564-35.9863 129.932-35.9863Q132.715-35.9863 134.497-37.5977Q136.279-39.209 136.279-41.9434Q136.279-45.0195 133.789-47.1191L82.959-89.7949Q79.1016-93.0664 74.4385-93.0664Q69.7754-93.0664 65.8691-89.7949L14.9902-47.0703Q12.4512-44.9219 12.4512-42.041ZM87.5488 1.07422L61.1816 1.07422L61.1816-28.7598Q61.1816-30.5176 62.2559-31.5674Q63.3301-32.6172 65.0879-32.6172L83.6914-32.6172Q85.4492-32.6172 86.499-31.5674Q87.5488-30.5176 87.5488-28.7598ZM103.418-68.5547L119.971-54.7363L119.971-80.0781Q119.971-81.7871 118.945-82.8125Q117.92-83.8379 116.211-83.8379L107.227-83.8379Q105.518-83.8379 104.468-82.8125Q103.418-81.7871 103.418-80.0781Z"/>
  </g>
  <g id="Semibold-M" transform="matrix(1 0 0 1 1970.22 1126)">
   <path class="multicolor-0:systemCyanColor SFSymbolsPreview55BEF0" d="M28.6621 1.95312Q28.6621 7.37305 31.9092 10.4736Q35.1562 13.5742 40.8203 13.5742L105.322 13.5742Q110.938 13.5742 114.185 10.4736Q117.432 7.37305 117.432 1.95312L117.432-34.1309L76.123-68.7988Q73.0469-71.3867 70.0195-68.7988L28.6621-34.1309ZM12.4512-42.1875Q12.4512-39.9902 13.9648-38.4521Q15.4785-36.9141 18.0664-36.9141Q19.2871-36.9141 20.4102-37.4756Q21.5332-38.0371 22.5098-38.8184L70.752-79.248Q71.875-80.2734 73.0957-80.2734Q74.3164-80.2734 75.4395-79.248L123.584-38.8184Q124.609-38.0371 125.732-37.4756Q126.855-36.9141 128.076-36.9141Q130.469-36.9141 132.056-38.3057Q133.643-39.6973 133.643-42.0898Q133.643-44.7754 131.494-46.5332L80.6641-89.2578Q77.1973-92.1387 73.0957-92.1387Q68.9941-92.1387 65.5273-89.2578L14.6484-46.5332Q12.4512-44.7266 12.4512-42.1875ZM85.9863 2.14844L60.0586 2.14844L60.0586-28.5645Q60.0586-30.3223 61.1328-31.3477Q62.207-32.373 63.916-32.373L82.1777-32.373Q83.9355-32.373 84.9609-31.3477Q85.9863-30.3223 85.9863-28.5645ZM102.734-67.041L117.725-54.4922L117.725-78.8574Q117.725-80.5176 116.724-81.5186Q115.723-82.5195 114.062-82.5195L106.445-82.5195Q104.785-82.5195 103.76-81.5186Q102.734-80.5176 102.734-78.8574Z"/>
  </g>
  <g id="Medium-M" transform="matrix(1 0 0 1 1674.51 1126)">
   <path class="multicolor-0:systemCyanColor SFSymbolsPreview55BEF0" d="M28.2227 1.61133Q28.2227 6.88477 31.3232 9.86328Q34.4238 12.8418 39.8926 12.8418L104.248 12.8418Q109.668 12.8418 112.769 9.86328Q115.869 6.88477 115.869 1.61133L115.869-35.5957L75.0488-69.8242Q72.0703-72.3633 69.043-69.8242L28.2227-35.5957ZM12.4512-42.2852Q12.4512-40.3809 13.7939-38.9893Q15.1367-37.5977 17.4316-37.5977Q18.6035-37.5977 19.6045-38.1348Q20.6055-38.6719 21.4844-39.3555L70.0195-80.0781Q70.9961-80.957 72.0703-80.957Q73.1445-80.957 74.1699-80.0781L122.656-39.3555Q123.535-38.6719 124.536-38.1348Q125.537-37.5977 126.66-37.5977Q128.76-37.5977 130.2-38.8184Q131.641-40.0391 131.641-42.1387Q131.641-44.5801 129.736-46.1426L78.9062-88.8672Q75.7812-91.5039 72.0947-91.5039Q68.4082-91.5039 65.2344-88.8672L14.3555-46.1426Q12.4512-44.5312 12.4512-42.2852ZM84.8145 2.97852L59.2285 2.97852L59.2285-28.418Q59.2285-30.127 60.2783-31.1523Q61.3281-32.1777 63.0371-32.1777L81.0547-32.1777Q82.7637-32.1777 83.7891-31.1523Q84.8145-30.127 84.8145-28.418ZM102.246-65.918L116.016-54.2969L116.016-77.8809Q116.016-79.541 115.039-80.5176Q114.062-81.4941 112.402-81.4941L105.859-81.4941Q104.248-81.4941 103.247-80.5176Q102.246-79.541 102.246-77.8809Z"/>
  </g>
  <g id="Regular-M" transform="matrix(1 0 0 1 1379.12 1126)">
   <path class="multicolor-0:systemCyanColor SFSymbolsPreview55BEF0" d="M27.6855 1.12305Q27.6855 6.25 30.5908 9.08203Q33.4961 11.9141 38.6719 11.9141L102.881 11.9141Q108.008 11.9141 110.913 9.08203Q113.818 6.25 113.818 1.12305L113.818-37.5488L73.6816-71.1914Q70.752-73.6816 67.8223-71.1914L27.6855-37.5488ZM12.4512-42.4316Q12.4512-40.918 13.5742-39.7217Q14.6973-38.5254 16.6504-38.5254Q17.6758-38.5254 18.5303-39.0137Q19.3848-39.502 20.166-40.0879L69.043-81.1035Q69.873-81.8359 70.7764-81.8359Q71.6797-81.8359 72.5098-81.1035L121.387-40.0879Q122.119-39.502 122.974-39.0137Q123.828-38.5254 124.854-38.5254Q126.562-38.5254 127.783-39.5264Q129.004-40.5273 129.004-42.2852Q129.004-44.3359 127.49-45.6055L76.6602-88.3301Q73.9258-90.625 70.7764-90.625Q67.627-90.625 64.8926-88.3301L14.0137-45.6055Q12.4512-44.3359 12.4512-42.4316ZM83.3008 4.05273L58.1055 4.05273L58.1055-28.2227Q58.1055-29.9316 59.1553-30.9326Q60.2051-31.9336 61.8652-31.9336L79.5898-31.9336Q81.2988-31.9336 82.2998-30.9326Q83.3008-29.9316 83.3008-28.2227ZM101.562-64.4531L113.818-54.1016L113.818-76.6602Q113.818-78.2715 112.866-79.2236Q111.914-80.1758 110.303-80.1758L105.078-80.1758Q103.516-80.1758 102.539-79.2236Q101.562-78.2715 101.562-76.6602Z"/>
  </g>
  <g id="Light-M" transform="matrix(1 0 0 1 1084.38 1126)">
   <path class="multicolor-0:systemCyanColor SFSymbolsPreview55BEF0" d="M26.4648 1.66016Q26.4648 6.39648 29.1016 8.98438Q31.7383 11.5723 36.4746 11.5723L101.172 11.5723Q105.859 11.5723 108.521 8.98438Q111.182 6.39648 111.182 1.66016L111.182-40.1367L71.8262-73.1445Q68.7988-75.6836 65.7715-73.1445L26.4648-40.1367ZM12.4512-42.627Q12.4512-41.4551 13.3057-40.5762Q14.1602-39.6973 15.6738-39.6973Q16.4551-39.6973 17.0654-40.0391Q17.6758-40.3809 18.3105-40.8203L66.8945-81.6406Q67.8223-82.4219 68.7988-82.4707Q69.7754-82.5195 70.752-81.6406L119.287-40.8203Q119.873-40.3809 120.508-40.0391Q121.143-39.6973 121.924-39.6973Q123.193-39.6973 124.121-40.4541Q125.049-41.2109 125.049-42.5293Q125.049-44.1406 123.828-45.166L74.0723-87.0117Q71.6309-89.1113 68.8477-89.1113Q66.0645-89.1113 63.5742-87.0117L13.7207-45.166Q12.4512-44.1406 12.4512-42.627ZM81.1523 5.56641L56.3477 5.56641L56.3477-27.3926Q56.3477-28.9551 57.2754-29.8584Q58.2031-30.7617 59.7168-30.7617L77.7832-30.7617Q79.3457-30.7617 80.249-29.8584Q81.1523-28.9551 81.1523-27.3926ZM100.781-62.0605L111.182-53.2715L111.182-75.6836Q111.182-77.002 110.376-77.8076Q109.57-78.6133 108.252-78.6133L103.662-78.6133Q102.393-78.6133 101.587-77.8076Q100.781-77.002 100.781-75.6836Z"/>
  </g>
  <g id="Thin-M" transform="matrix(1 0 0 1 790.26 1126)">
   <path class="multicolor-0:systemCyanColor SFSymbolsPreview55BEF0" d="M24.8047 2.44141Q24.8047 6.54297 27.124 8.8623Q29.4434 11.1816 33.5938 11.1816L98.9258 11.1816Q103.027 11.1816 105.371 8.8623Q107.715 6.54297 107.715 2.44141L107.715-43.5059L69.3359-75.7324Q66.2109-78.3691 63.0859-75.7324L24.8047-43.6035ZM12.4512-42.9199Q12.4512-42.2363 12.9639-41.7236Q13.4766-41.2109 14.3066-41.2109Q14.7949-41.2109 15.1123-41.3818Q15.4297-41.5527 15.8203-41.8457L64.0625-82.373Q65.0879-83.252 66.1621-83.3252Q67.2363-83.3984 68.4082-82.373L116.553-41.8457Q116.895-41.5527 117.212-41.3818Q117.529-41.2109 118.018-41.2109Q118.799-41.2109 119.336-41.6748Q119.873-42.1387 119.873-42.8711Q119.873-43.8477 118.994-44.5801L70.7031-85.2539Q68.6035-87.0605 66.2842-87.0605Q63.9648-87.0605 61.8164-85.2539L13.3301-44.5801Q12.4512-43.8477 12.4512-42.9199ZM78.3203 7.56836L54.0039 7.56836L54.0039-26.2695Q54.0039-27.5879 54.8096-28.3936Q55.6152-29.1992 56.8848-29.1992L75.3906-29.1992Q76.709-29.1992 77.5146-28.3936Q78.3203-27.5879 78.3203-26.2695ZM99.707-58.8867L107.715-52.1484L107.715-74.3652Q107.715-75.3418 107.104-75.9277Q106.494-76.5137 105.615-76.5137L101.807-76.5137Q100.928-76.5137 100.317-75.9277Q99.707-75.3418 99.707-74.3652Z"/>
  </g>
  <g id="Ultralight-M" transform="matrix(1 0 0 1 494.892 1126)">
   <path class="multicolor-0:systemCyanColor SFSymbolsPreview55BEF0" d="M23.9746 2.7832Q23.9746 6.64062 26.123 8.78906Q28.2715 10.9375 32.1289 10.9375L97.7539 10.9375Q101.611 10.9375 103.76 8.78906Q105.908 6.64062 105.908 2.7832L105.908-45.2637L68.0664-77.0508Q64.8926-79.7363 61.6699-77.0508L23.9746-45.3613ZM12.4512-43.0664Q12.4512-42.5781 12.7686-42.2852Q13.0859-41.9922 13.6719-41.9922Q13.9648-41.9922 14.1357-42.0898Q14.3066-42.1875 14.5508-42.334L62.6465-82.7148Q63.7207-83.6426 64.8438-83.7402Q65.9668-83.8379 67.2363-82.7148L115.137-42.334Q115.332-42.1875 115.527-42.0898Q115.723-41.9922 116.016-41.9922Q116.504-41.9922 116.846-42.3096Q117.188-42.627 117.188-43.0664Q117.188-43.7012 116.504-44.2871L68.9453-84.375Q67.0898-86.0352 64.9902-86.0352Q62.8906-86.0352 60.9375-84.375L13.0859-44.2871Q12.4512-43.7012 12.4512-43.0664ZM76.8555 8.59375L52.7832 8.59375L52.7832-25.7324Q52.7832-26.9531 53.5156-27.6611Q54.248-28.3691 55.4688-28.3691L74.1699-28.3691Q75.3906-28.3691 76.123-27.6611Q76.8555-26.9531 76.8555-25.7324ZM99.1699-57.2266L105.908-51.5625L105.908-73.7305Q105.908-74.5117 105.42-74.9756Q104.932-75.4395 104.199-75.4395L100.879-75.4395Q100.146-75.4395 99.6582-74.9756Q99.1699-74.5117 99.1699-73.7305Z"/>
  </g>
  <g id="Black-S" transform="matrix(1 0 0 1 2871.88 696)">
   <path class="multicolor-0:systemCyanColor SFSymbolsPreview55BEF0" d="M24.2676-4.49219Q24.2676 0.244141 27.4658 3.17383Q30.6641 6.10352 35.8887 6.10352L87.1094 6.10352Q92.334 6.10352 95.5322 3.17383Q98.7305 0.244141 98.7305-4.49219L98.7305-28.0273L64.209-57.0312Q62.9883-58.1055 61.5723-58.1055Q60.1562-58.1055 58.8867-57.0312L24.2676-28.0273ZM9.76562-40.1855Q9.76562-37.207 11.6943-35.376Q13.623-33.5449 16.748-33.5449Q18.0664-33.5449 19.458-34.1064Q20.8496-34.668 22.0703-35.6934L58.5449-66.2598Q61.5234-68.7988 64.5996-66.2598L100.977-35.6934Q102.197-34.668 103.589-34.1064Q104.98-33.5449 106.299-33.5449Q109.473-33.5449 111.377-35.376Q113.281-37.207 113.281-40.1855Q113.281-43.5059 110.4-45.8984L70.7031-79.248Q66.6016-82.7148 61.5723-82.7148Q56.543-82.7148 52.4414-79.248L12.6465-45.8496Q9.76562-43.3594 9.76562-40.1855ZM72.3633-9.52148L50.6836-9.52148L50.6836-30.6152Q50.6836-32.0312 51.5625-32.8857Q52.4414-33.7402 53.8574-33.7402L69.2383-33.7402Q72.3633-33.7402 72.3633-30.6152ZM82.7148-64.9902L99.5117-51.0254L99.5117-73.4863Q99.5117-76.6113 96.3867-76.6113L85.8887-76.6113Q84.4727-76.6113 83.5938-75.7568Q82.7148-74.9023 82.7148-73.4863Z"/>
  </g>
  <g id="Heavy-S" transform="matrix(1 0 0 1 2576.39 696)">
   <path class="multicolor-0:systemCyanColor SFSymbolsPreview55BEF0" d="M23.8281-5.07812Q23.8281-0.488281 26.8311 2.29492Q29.834 5.07812 34.8145 5.07812L85.791 5.07812Q90.7715 5.07812 93.7744 2.29492Q96.7773-0.488281 96.7773-5.07812L96.7773-29.8828L62.8906-58.3008Q61.7188-59.3262 60.3516-59.3262Q58.9844-59.3262 57.7637-58.3008L23.8281-29.8828ZM9.76562-40.332Q9.76562-37.7441 11.4746-36.084Q13.1836-34.4238 16.0156-34.4238Q17.2363-34.4238 18.4814-34.9609Q19.7266-35.498 20.8008-36.377L57.7148-67.3828Q60.3027-69.5801 62.9395-67.3828L99.8047-36.377Q100.928-35.498 102.173-34.9609Q103.418-34.4238 104.639-34.4238Q107.422-34.4238 109.131-36.0352Q110.84-37.6465 110.84-40.2832Q110.84-43.2617 108.35-45.3613L68.5059-78.8574Q64.7949-81.9336 60.3516-81.9336Q55.9082-81.9336 52.2461-78.8574L12.3047-45.3125Q9.76562-43.1641 9.76562-40.332ZM70.9473-8.49609L49.6582-8.49609L49.6582-30.5176Q49.6582-31.9336 50.5371-32.7637Q51.416-33.5938 52.832-33.5938L67.8223-33.5938Q70.9473-33.5938 70.9473-30.5176ZM82.0801-63.623L97.3633-50.8789L97.3633-72.2168Q97.3633-75.3418 94.2871-75.3418L85.2051-75.3418Q83.7891-75.3418 82.9346-74.4873Q82.0801-73.6328 82.0801-72.2168Z"/>
  </g>
  <g id="Bold-S" transform="matrix(1 0 0 1 2281.02 696)">
   <path class="multicolor-0:systemCyanColor SFSymbolsPreview55BEF0" d="M23.291-5.76172Q23.291-1.31836 26.0986 1.34277Q28.9062 4.00391 33.6426 4.00391L84.2773 4.00391Q89.0137 4.00391 91.8213 1.34277Q94.6289-1.31836 94.6289-5.76172L94.6289-31.9336L61.4258-59.7656Q60.3027-60.7422 58.9844-60.7422Q57.666-60.7422 56.543-59.7656L23.291-31.9336ZM9.76562-40.4785Q9.76562-38.3301 11.2305-36.8652Q12.6953-35.4004 15.1855-35.4004Q16.3086-35.4004 17.3828-35.9131Q18.457-36.4258 19.3848-37.207L56.8359-68.6035Q58.9844-70.4102 61.1328-68.6035L98.5352-37.207Q99.5117-36.4258 100.586-35.9131Q101.66-35.4004 102.783-35.4004Q105.127-35.4004 106.641-36.7676Q108.154-38.1348 108.154-40.4297Q108.154-43.0176 106.055-44.7754L66.0156-78.3691Q62.8418-81.0547 59.0088-81.0547Q55.1758-81.0547 52.002-78.3691L11.9141-44.7266Q9.76562-42.9199 9.76562-40.4785ZM69.3359-7.37305L48.5352-7.37305L48.5352-30.3711Q48.5352-31.7871 49.4141-32.6416Q50.293-33.4961 51.709-33.4961L66.2598-33.4961Q69.3359-33.4961 69.3359-30.3711ZM81.3477-62.1582L95.0195-50.7324L95.0195-70.8496Q95.0195-73.9258 91.9434-73.9258L84.4727-73.9258Q83.0566-73.9258 82.2021-73.0713Q81.3477-72.2168 81.3477-70.8496Z"/>
  </g>
  <g id="Semibold-S" transform="matrix(1 0 0 1 1985.26 696)">
   <path class="multicolor-0:systemCyanColor SFSymbolsPreview55BEF0" d="M22.9492-6.20117Q22.9492-1.85547 25.5859 0.683594Q28.2227 3.22266 32.8125 3.22266L83.252 3.22266Q87.793 3.22266 90.4541 0.683594Q93.1152-1.85547 93.1152-6.20117L93.1152-33.3008L60.4004-60.7422Q59.3262-61.6699 58.0322-61.6699Q56.7383-61.6699 55.6641-60.7422L22.9492-33.3008ZM9.76562-40.5762Q9.76562-38.7207 11.0596-37.4023Q12.3535-36.084 14.5996-36.084Q15.625-36.084 16.5771-36.5479Q17.5293-37.0117 18.4082-37.7441L56.2012-69.4336Q58.0078-70.9961 59.8633-69.4336L97.6562-37.7441Q98.4863-37.0117 99.4629-36.5479Q100.439-36.084 101.514-36.084Q103.564-36.084 104.907-37.2559Q106.25-38.4277 106.25-40.4785Q106.25-42.8223 104.443-44.3359L64.3066-78.0273Q61.4258-80.4688 58.0322-80.4688Q54.6387-80.4688 51.8066-78.0273L11.6211-44.3359Q9.76562-42.7734 9.76562-40.5762ZM68.2129-6.54297L47.7539-6.54297L47.7539-30.2734Q47.7539-31.6895 48.6084-32.5195Q49.4629-33.3496 50.8789-33.3496L65.1367-33.3496Q68.2129-33.3496 68.2129-30.2734ZM80.8105-61.084L93.3594-50.5859L93.3594-69.873Q93.3594-72.9004 90.2832-72.9004L83.9355-72.9004Q82.5195-72.9004 81.665-72.0703Q80.8105-71.2402 80.8105-69.873Z"/>
  </g>
  <g id="Medium-S" transform="matrix(1 0 0 1 1689.26 696)">
   <path class="multicolor-0:systemCyanColor SFSymbolsPreview55BEF0" d="M22.6562-6.54297Q22.6562-2.29492 25.1953 0.170898Q27.7344 2.63672 32.1777 2.63672L82.4707 2.63672Q86.8652 2.63672 89.4043 0.170898Q91.9434-2.29492 91.9434-6.54297L91.9434-34.375L59.668-61.4746Q58.5938-62.4023 57.3242-62.4023Q56.0547-62.4023 54.9805-61.4746L22.6562-34.375ZM9.76562-40.6738Q9.76562-39.0137 10.9375-37.793Q12.1094-36.5723 14.1602-36.5723Q15.1367-36.5723 16.0156-37.0361Q16.8945-37.5 17.6758-38.1348L55.7617-70.1172Q57.3242-71.4355 58.9355-70.1172L96.9727-38.1348Q97.7539-37.5 98.6328-37.0361Q99.5117-36.5723 100.537-36.5723Q102.344-36.5723 103.589-37.6221Q104.834-38.6719 104.834-40.5273Q104.834-42.6758 103.223-43.9941L63.0371-77.7832Q60.4004-79.9805 57.3242-79.9805Q54.248-79.9805 51.6602-77.7832L11.4258-43.9941Q9.76562-42.627 9.76562-40.6738ZM67.3828-5.95703L47.168-5.95703L47.168-30.2246Q47.168-31.6406 48.0225-32.4707Q48.877-33.3008 50.293-33.3008L64.3066-33.3008Q67.3828-33.3008 67.3828-30.2246ZM80.4199-60.3027L92.0898-50.4883L92.0898-69.1406Q92.0898-72.168 89.0625-72.168L83.5449-72.168Q82.1289-72.168 81.2744-71.3379Q80.4199-70.5078 80.4199-69.1406Z"/>
  </g>
  <g id="Regular-S" transform="matrix(1 0 0 1 1393.47 696)">
   <path class="multicolor-0:systemCyanColor SFSymbolsPreview55BEF0" d="M22.3145-6.98242Q22.3145-2.83203 24.707-0.488281Q27.0996 1.85547 31.3477 1.85547L81.4453 1.85547Q85.6934 1.85547 88.0859-0.488281Q90.4785-2.83203 90.4785-6.98242L90.4785-35.791L58.6426-62.4512Q57.6172-63.3301 56.3721-63.3301Q55.127-63.3301 54.1504-62.4512L22.3145-35.791ZM9.76562-40.7715Q9.76562-39.4043 10.7666-38.3301Q11.7676-37.2559 13.5742-37.2559Q14.502-37.2559 15.2588-37.6953Q16.0156-38.1348 16.6992-38.6719L55.127-70.9473Q56.3965-72.0215 57.666-70.9473L96.0938-38.6719Q96.7773-38.1348 97.5586-37.6953Q98.3398-37.2559 99.2676-37.2559Q100.781-37.2559 101.88-38.1348Q102.979-39.0137 102.979-40.625Q102.979-42.4805 101.66-43.6035L61.3281-77.4902Q59.0332-79.3945 56.3965-79.3945Q53.7598-79.3945 51.5137-77.4902L11.1328-43.6035Q9.76562-42.4805 9.76562-40.7715ZM66.3086-5.17578L46.3867-5.17578L46.3867-30.127Q46.3867-31.543 47.2412-32.373Q48.0957-33.2031 49.5117-33.2031L63.2324-33.2031Q66.3086-33.2031 66.3086-30.127ZM79.9316-59.2773L90.4785-50.3906L90.4785-68.1641Q90.4785-71.1914 87.4512-71.1914L83.0566-71.1914Q81.6406-71.1914 80.7861-70.3613Q79.9316-69.5312 79.9316-68.1641Z"/>
  </g>
  <g id="Light-S" transform="matrix(1 0 0 1 1098.49 696)">
   <path class="multicolor-0:systemCyanColor SFSymbolsPreview55BEF0" d="M21.1914-6.49414Q21.1914-2.73438 23.3887-0.585938Q25.5859 1.5625 29.4434 1.5625L79.9316 1.5625Q83.7891 1.5625 85.9619-0.585938Q88.1348-2.73438 88.1348-6.49414L88.1348-38.0371L56.9824-64.1602Q55.8594-65.1367 54.6387-65.1367Q53.418-65.1367 52.3438-64.1602L21.1914-38.0859ZM9.76562-40.9668Q9.76562-39.8926 10.5225-39.0869Q11.2793-38.2812 12.6953-38.2812Q13.3789-38.2812 13.9404-38.5986Q14.502-38.916 15.0391-39.3555L53.2227-71.4355Q54.6875-72.6562 56.1035-71.4355L94.2383-39.3555Q94.7754-38.916 95.3613-38.5986Q95.9473-38.2812 96.6309-38.2812Q97.8516-38.2812 98.6816-38.9648Q99.5117-39.6484 99.5117-40.8691Q99.5117-42.2852 98.4375-43.2129L59.082-76.3184Q56.9824-78.0273 54.6631-78.0273Q52.3438-78.0273 50.3418-76.3184L10.8887-43.2129Q9.76562-42.2852 9.76562-40.9668ZM64.4043-3.85742L44.8242-3.85742L44.8242-29.3945Q44.8242-30.6641 45.5811-31.4209Q46.3379-32.1777 47.6074-32.1777L61.6211-32.1777Q64.4043-32.1777 64.4043-29.3945ZM79.248-57.1777L88.1348-49.6582L88.1348-67.2852Q88.1348-69.7754 85.6445-69.7754L81.7871-69.7754Q80.6641-69.7754 79.9561-69.0918Q79.248-68.4082 79.248-67.2852Z"/>
  </g>
  <g id="Thin-S" transform="matrix(1 0 0 1 804.103 696)">
   <path class="multicolor-0:systemCyanColor SFSymbolsPreview55BEF0" d="M19.7266-5.85938Q19.7266-2.53906 21.6309-0.65918Q23.5352 1.2207 26.9043 1.2207L77.9297 1.2207Q81.2988 1.2207 83.1787-0.65918Q85.0586-2.53906 85.0586-5.85938L85.0586-41.0645L54.834-66.4551Q53.5156-67.5293 52.3438-67.5049Q51.1719-67.4805 49.9512-66.4551L19.7266-41.1133ZM9.76562-41.2109Q9.76562-40.5762 10.2295-40.0879Q10.6934-39.5996 11.5234-39.5996Q11.9141-39.5996 12.2314-39.7705Q12.5488-39.9414 12.8906-40.2344L50.7324-72.0215Q52.3926-73.4863 54.1016-72.0215L91.7969-40.2344Q92.1387-39.9414 92.4561-39.7705Q92.7734-39.5996 93.1641-39.5996Q93.9453-39.5996 94.4092-40.0391Q94.873-40.4785 94.873-41.1621Q94.873-42.041 94.1406-42.6758L56.0547-74.7559Q54.3457-76.2207 52.4414-76.2207Q50.5371-76.2207 48.7793-74.7559L10.5469-42.6758Q9.76562-42.041 9.76562-41.2109ZM61.8652-2.09961L42.7734-2.09961L42.7734-28.418Q42.7734-29.4922 43.4082-30.1514Q44.043-30.8105 45.1172-30.8105L59.5215-30.8105Q61.8652-30.8105 61.8652-28.418ZM78.3203-54.3457L85.0586-48.6816L85.0586-66.1621Q85.0586-67.9688 83.252-67.9688L80.127-67.9688Q79.3457-67.9688 78.833-67.4561Q78.3203-66.9434 78.3203-66.1621Z"/>
  </g>
  <g id="Ultralight-S" transform="matrix(1 0 0 1 508.564 696)">
   <path class="multicolor-0:systemCyanColor SFSymbolsPreview55BEF0" d="M18.9941-5.51758Q18.9941-2.49023 20.752-0.732422Q22.5098 1.02539 25.5859 1.02539L76.9043 1.02539Q80.0293 1.02539 81.7627-0.732422Q83.4961-2.49023 83.4961-5.51758L83.4961-42.5781L53.7109-67.627Q52.3438-68.75 51.1719-68.7256Q50-68.7012 48.6816-67.627L18.9941-42.6758ZM9.76562-41.3086Q9.76562-40.918 10.0586-40.6006Q10.3516-40.2832 10.8887-40.2832Q11.1816-40.2832 11.3525-40.3809Q11.5234-40.4785 11.7676-40.6738L49.4629-72.3633Q51.2207-73.877 53.0273-72.3633L90.5762-40.6738Q90.7715-40.4785 90.9424-40.3809Q91.1133-40.2832 91.4062-40.2832Q91.9434-40.2832 92.2363-40.5762Q92.5293-40.8691 92.5293-41.3086Q92.5293-41.8945 91.9434-42.3828L54.541-73.9258Q52.9297-75.293 51.2451-75.293Q49.5605-75.293 47.9492-73.9258L10.3516-42.3828Q9.76562-41.8945 9.76562-41.3086ZM60.5957-1.17188L41.6992-1.17188L41.6992-27.9297Q41.6992-28.9062 42.2852-29.5166Q42.8711-30.127 43.8477-30.127L58.4473-30.127Q60.5957-30.127 60.5957-27.9297ZM77.832-52.9297L83.4961-48.1445L83.4961-65.5762Q83.4961-66.9922 81.9824-66.9922L79.2969-66.9922Q78.7109-66.9922 78.2715-66.6016Q77.832-66.2109 77.832-65.5762Z"/>
  </g>
 </g>
</svg>
