<?xml version="1.0" encoding="UTF-8"?>
<!--Generator: Apple Native CoreSVG 175-->
<!DOCTYPE svg
PUBLIC "-//W3C//DTD SVG 1.1//EN"
       "http://www.w3.org/Graphics/SVG/1.1/DTD/svg11.dtd">
<svg version="1.1" xmlns="http://www.w3.org/2000/svg" xmlns:xlink="http://www.w3.org/1999/xlink" width="3300" height="2200">
 <!--glyph: "uni100AC0.medium", point size: 100.0, font version: "17.0d11e1", template writer version: "65.1"-->
 <g id="Notes">
  <rect height="2200" id="artboard" style="fill:white;opacity:1" width="3300" x="0" y="0"/>
  <line style="fill:none;stroke:black;opacity:1;stroke-width:0.5;" x1="263" x2="3036" y1="292" y2="292"/>
  <text style="stroke:none;fill:black;font-family:sans-serif;font-size:13;font-weight:bold;" transform="matrix(1 0 0 1 263 322)">Weight/Scale Variations</text>
  <text style="stroke:none;fill:black;font-family:sans-serif;font-size:13;text-anchor:middle;" transform="matrix(1 0 0 1 559.711 322)">Ultralight</text>
  <text style="stroke:none;fill:black;font-family:sans-serif;font-size:13;text-anchor:middle;" transform="matrix(1 0 0 1 856.422 322)">Thin</text>
  <text style="stroke:none;fill:black;font-family:sans-serif;font-size:13;text-anchor:middle;" transform="matrix(1 0 0 1 1153.13 322)">Light</text>
  <text style="stroke:none;fill:black;font-family:sans-serif;font-size:13;text-anchor:middle;" transform="matrix(1 0 0 1 1449.84 322)">Regular</text>
  <text style="stroke:none;fill:black;font-family:sans-serif;font-size:13;text-anchor:middle;" transform="matrix(1 0 0 1 1746.56 322)">Medium</text>
  <text style="stroke:none;fill:black;font-family:sans-serif;font-size:13;text-anchor:middle;" transform="matrix(1 0 0 1 2043.27 322)">Semibold</text>
  <text style="stroke:none;fill:black;font-family:sans-serif;font-size:13;text-anchor:middle;" transform="matrix(1 0 0 1 2339.98 322)">Bold</text>
  <text style="stroke:none;fill:black;font-family:sans-serif;font-size:13;text-anchor:middle;" transform="matrix(1 0 0 1 2636.69 322)">Heavy</text>
  <text style="stroke:none;fill:black;font-family:sans-serif;font-size:13;text-anchor:middle;" transform="matrix(1 0 0 1 2933.4 322)">Black</text>
  <line style="fill:none;stroke:black;opacity:1;stroke-width:0.5;" x1="263" x2="3036" y1="1903" y2="1903"/>
  <g transform="matrix(1 0 0 1 263 1933)">
   <path d="M9.24805 0.830078Q10.8691 0.830078 12.2949 0.214844Q13.7207-0.400391 14.8096-1.49414Q15.8984-2.58789 16.5186-4.01367Q17.1387-5.43945 17.1387-7.05078Q17.1387-8.66211 16.5186-10.0879Q15.8984-11.5137 14.8047-12.6074Q13.7109-13.7012 12.2852-14.3164Q10.8594-14.9316 9.23828-14.9316Q7.62695-14.9316 6.20117-14.3164Q4.77539-13.7012 3.69141-12.6074Q2.60742-11.5137 1.9873-10.0879Q1.36719-8.66211 1.36719-7.05078Q1.36719-5.43945 1.9873-4.01367Q2.60742-2.58789 3.69629-1.49414Q4.78516-0.400391 6.21094 0.214844Q7.63672 0.830078 9.24805 0.830078ZM9.24805-0.654297Q7.91992-0.654297 6.7627-1.14746Q5.60547-1.64062 4.73145-2.51953Q3.85742-3.39844 3.36426-4.56055Q2.87109-5.72266 2.87109-7.05078Q2.87109-8.37891 3.35938-9.54102Q3.84766-10.7031 4.72168-11.582Q5.5957-12.4609 6.75293-12.9541Q7.91016-13.4473 9.23828-13.4473Q10.5762-13.4473 11.7334-12.9541Q12.8906-12.4609 13.7695-11.582Q14.6484-10.7031 15.1465-9.54102Q15.6445-8.37891 15.6445-7.05078Q15.6445-5.72266 15.1514-4.56055Q14.6582-3.39844 13.7842-2.51953Q12.9102-1.64062 11.748-1.14746Q10.5859-0.654297 9.24805-0.654297ZM5.6543-7.05078Q5.6543-6.72852 5.85938-6.52832Q6.06445-6.32812 6.40625-6.32812L8.51562-6.32812L8.51562-4.20898Q8.51562-3.88672 8.71094-3.67676Q8.90625-3.4668 9.23828-3.4668Q9.56055-3.4668 9.77051-3.67676Q9.98047-3.88672 9.98047-4.20898L9.98047-6.32812L12.0898-6.32812Q12.4219-6.32812 12.627-6.52832Q12.832-6.72852 12.832-7.05078Q12.832-7.38281 12.627-7.58789Q12.4219-7.79297 12.0898-7.79297L9.98047-7.79297L9.98047-9.90234Q9.98047-10.2344 9.77051-10.4443Q9.56055-10.6543 9.23828-10.6543Q8.90625-10.6543 8.71094-10.4443Q8.51562-10.2344 8.51562-9.90234L8.51562-7.79297L6.40625-7.79297Q6.06445-7.79297 5.85938-7.58789Q5.6543-7.38281 5.6543-7.05078Z"/>
  </g>
  <g transform="matrix(1 0 0 1 281.867 1933)">
   <path d="M11.709 2.91016Q13.75 2.91016 15.5518 2.12891Q17.3535 1.34766 18.7305-0.0292969Q20.1074-1.40625 20.8887-3.20801Q21.6699-5.00977 21.6699-7.05078Q21.6699-9.0918 20.8887-10.8936Q20.1074-12.6953 18.7305-14.0723Q17.3535-15.4492 15.5469-16.2305Q13.7402-17.0117 11.6992-17.0117Q9.6582-17.0117 7.85645-16.2305Q6.05469-15.4492 4.68262-14.0723Q3.31055-12.6953 2.5293-10.8936Q1.74805-9.0918 1.74805-7.05078Q1.74805-5.00977 2.5293-3.20801Q3.31055-1.40625 4.6875-0.0292969Q6.06445 1.34766 7.86621 2.12891Q9.66797 2.91016 11.709 2.91016ZM11.709 1.25Q9.98047 1.25 8.47656 0.605469Q6.97266-0.0390625 5.83496-1.17676Q4.69727-2.31445 4.05762-3.81836Q3.41797-5.32227 3.41797-7.05078Q3.41797-8.7793 4.05762-10.2832Q4.69727-11.7871 5.83008-12.9297Q6.96289-14.0723 8.4668-14.7119Q9.9707-15.3516 11.6992-15.3516Q13.4277-15.3516 14.9316-14.7119Q16.4355-14.0723 17.5781-12.9297Q18.7207-11.7871 19.3652-10.2832Q20.0098-8.7793 20.0098-7.05078Q20.0098-5.32227 19.3701-3.81836Q18.7305-2.31445 17.5928-1.17676Q16.4551-0.0390625 14.9463 0.605469Q13.4375 1.25 11.709 1.25ZM7.17773-7.05078Q7.17773-6.69922 7.41211-6.47461Q7.64648-6.25 8.01758-6.25L10.8887-6.25L10.8887-3.36914Q10.8887-2.99805 11.1133-2.76855Q11.3379-2.53906 11.6895-2.53906Q12.0605-2.53906 12.29-2.76855Q12.5195-2.99805 12.5195-3.36914L12.5195-6.25L15.4004-6.25Q15.7715-6.25 16.001-6.47461Q16.2305-6.69922 16.2305-7.05078Q16.2305-7.42188 16.001-7.65137Q15.7715-7.88086 15.4004-7.88086L12.5195-7.88086L12.5195-10.752Q12.5195-11.1328 12.29-11.3623Q12.0605-11.5918 11.6895-11.5918Q11.3379-11.5918 11.1133-11.3574Q10.8887-11.123 10.8887-10.752L10.8887-7.88086L8.01758-7.88086Q7.63672-7.88086 7.40723-7.65137Q7.17773-7.42188 7.17773-7.05078Z"/>
  </g>
  <g transform="matrix(1 0 0 1 305.646 1933)">
   <path d="M14.9707 5.66406Q17.0605 5.66406 18.96 5.01465Q20.8594 4.36523 22.4512 3.19336Q24.043 2.02148 25.2197 0.429688Q26.3965-1.16211 27.0459-3.06641Q27.6953-4.9707 27.6953-7.05078Q27.6953-9.14062 27.0459-11.04Q26.3965-12.9395 25.2197-14.5312Q24.043-16.123 22.4512-17.2998Q20.8594-18.4766 18.9551-19.126Q17.0508-19.7754 14.9609-19.7754Q12.8711-19.7754 10.9717-19.126Q9.07227-18.4766 7.48535-17.2998Q5.89844-16.123 4.72168-14.5312Q3.54492-12.9395 2.90039-11.04Q2.25586-9.14062 2.25586-7.05078Q2.25586-4.9707 2.90527-3.06641Q3.55469-1.16211 4.72656 0.429688Q5.89844 2.02148 7.49023 3.19336Q9.08203 4.36523 10.9814 5.01465Q12.8809 5.66406 14.9707 5.66406ZM14.9707 3.84766Q13.1641 3.84766 11.5283 3.2959Q9.89258 2.74414 8.53516 1.74805Q7.17773 0.751953 6.17676-0.610352Q5.17578-1.97266 4.62891-3.6084Q4.08203-5.24414 4.08203-7.05078Q4.08203-8.86719 4.62891-10.5029Q5.17578-12.1387 6.17188-13.501Q7.16797-14.8633 8.52539-15.8594Q9.88281-16.8555 11.5186-17.4023Q13.1543-17.9492 14.9609-17.9492Q16.7773-17.9492 18.4131-17.4023Q20.0488-16.8555 21.4111-15.8594Q22.7734-14.8633 23.7695-13.501Q24.7656-12.1387 25.3174-10.5029Q25.8691-8.86719 25.8691-7.05078Q25.8789-5.24414 25.332-3.6084Q24.7852-1.97266 23.7842-0.610352Q22.7832 0.751953 21.4209 1.74805Q20.0586 2.74414 18.4229 3.2959Q16.7871 3.84766 14.9707 3.84766ZM9.19922-7.05078Q9.19922-6.66992 9.45801-6.4209Q9.7168-6.17188 10.1172-6.17188L14.0625-6.17188L14.0625-2.2168Q14.0625-1.81641 14.3115-1.55762Q14.5605-1.29883 14.9512-1.29883Q15.3516-1.29883 15.6104-1.55273Q15.8691-1.80664 15.8691-2.2168L15.8691-6.17188L19.8242-6.17188Q20.2246-6.17188 20.4785-6.4209Q20.7324-6.66992 20.7324-7.05078Q20.7324-7.46094 20.4785-7.71484Q20.2246-7.96875 19.8242-7.96875L15.8691-7.96875L15.8691-11.9141Q15.8691-12.3242 15.6104-12.583Q15.3516-12.8418 14.9512-12.8418Q14.5605-12.8418 14.3115-12.583Q14.0625-12.3242 14.0625-11.9141L14.0625-7.96875L10.1172-7.96875Q9.70703-7.96875 9.45312-7.71484Q9.19922-7.46094 9.19922-7.05078Z"/>
  </g>
  <text style="stroke:none;fill:black;font-family:sans-serif;font-size:13;font-weight:bold;" transform="matrix(1 0 0 1 263 1953)">Design Variations</text>
  <text style="stroke:none;fill:black;font-family:sans-serif;font-size:13;" transform="matrix(1 0 0 1 263 1971)">Symbols are supported in up to nine weights and three scales.</text>
  <text style="stroke:none;fill:black;font-family:sans-serif;font-size:13;" transform="matrix(1 0 0 1 263 1989)">For optimal layout with text and other symbols, vertically align</text>
  <text style="stroke:none;fill:black;font-family:sans-serif;font-size:13;" transform="matrix(1 0 0 1 263 2007)">symbols with the adjacent text.</text>
  <line style="fill:none;stroke:#00AEEF;stroke-width:0.5;opacity:1.0;" x1="776" x2="776" y1="1919" y2="1933"/>
  <g transform="matrix(1 0 0 1 776 1933)">
   <path d="M3.31055 0.15625Q3.70117 0.15625 3.91602-0.00976562Q4.13086-0.175781 4.26758-0.585938L5.52734-4.0332L11.2891-4.0332L12.5488-0.585938Q12.6855-0.175781 12.9004-0.00976562Q13.1152 0.15625 13.4961 0.15625Q13.8867 0.15625 14.1162-0.0585938Q14.3457-0.273438 14.3457-0.644531Q14.3457-0.869141 14.2383-1.17188L9.6582-13.3691Q9.48242-13.8184 9.17969-14.043Q8.87695-14.2676 8.4082-14.2676Q7.5-14.2676 7.17773-13.3789L2.59766-1.16211Q2.49023-0.859375 2.49023-0.634766Q2.49023-0.263672 2.70996-0.0537109Q2.92969 0.15625 3.31055 0.15625ZM6.00586-5.51758L8.37891-12.0898L8.42773-12.0898L10.8008-5.51758Z"/>
  </g>
  <line style="fill:none;stroke:#00AEEF;stroke-width:0.5;opacity:1.0;" x1="793.197" x2="793.197" y1="1919" y2="1933"/>
  <text style="stroke:none;fill:black;font-family:sans-serif;font-size:13;font-weight:bold;" transform="matrix(1 0 0 1 776 1953)">Margins</text>
  <text style="stroke:none;fill:black;font-family:sans-serif;font-size:13;" transform="matrix(1 0 0 1 776 1971)">Leading and trailing margins on the left and right side of each symbol</text>
  <text style="stroke:none;fill:black;font-family:sans-serif;font-size:13;" transform="matrix(1 0 0 1 776 1989)">can be adjusted by modifying the x-location of the margin guidelines.</text>
  <text style="stroke:none;fill:black;font-family:sans-serif;font-size:13;" transform="matrix(1 0 0 1 776 2007)">Modifications are automatically applied proportionally to all</text>
  <text style="stroke:none;fill:black;font-family:sans-serif;font-size:13;" transform="matrix(1 0 0 1 776 2025)">scales and weights.</text>
  <g transform="matrix(1 0 0 1 1289 1933)">
   <path d="M2.8418 1.86523L4.54102 3.57422Q5.18555 4.22852 5.90332 4.17969Q6.62109 4.13086 7.31445 3.35938L18.0078-8.42773L17.041-9.4043L6.42578 2.27539Q6.16211 2.57812 5.89355 2.61719Q5.625 2.65625 5.27344 2.30469L4.10156 1.14258Q3.75 0.791016 3.79395 0.522461Q3.83789 0.253906 4.14062-0.0195312L15.6152-10.8203L14.6387-11.7871L3.04688-0.898438Q2.30469-0.214844 2.25098 0.498047Q2.19727 1.21094 2.8418 1.86523ZM9.25781-16.3281Q8.94531-16.0254 8.90625-15.6348Q8.86719-15.2441 9.04297-14.9512Q9.21875-14.6777 9.55566-14.541Q9.89258-14.4043 10.3809-14.5215Q11.4746-14.7754 12.5977-14.7314Q13.7207-14.6875 14.7949-13.9844L14.209-12.5293Q13.9551-11.9043 14.0674-11.4404Q14.1797-10.9766 14.5801-10.5664L16.875-8.25195Q17.2363-7.88086 17.5781-7.82227Q17.9199-7.76367 18.3398-7.8418L19.4043-8.03711L20.0684-7.36328L20.0293-6.80664Q20-6.43555 20.1221-6.12305Q20.2441-5.81055 20.6055-5.44922L21.3672-4.70703Q21.7285-4.3457 22.1533-4.33105Q22.5781-4.31641 22.9297-4.66797L25.8398-7.58789Q26.1914-7.93945 26.1816-8.35449Q26.1719-8.76953 25.8105-9.13086L25.0391-9.89258Q24.6875-10.2539 24.3799-10.3857Q24.0723-10.5176 23.7109-10.4883L23.1348-10.4395L22.4902-11.0742L22.7344-12.1973Q22.832-12.6172 22.6953-12.9834Q22.5586-13.3496 22.1191-13.7891L19.9219-15.9766Q18.6719-17.2168 17.2607-17.8369Q15.8496-18.457 14.4189-18.4814Q12.9883-18.5059 11.665-17.959Q10.3418-17.4121 9.25781-16.3281ZM10.752-15.957Q11.6602-16.6211 12.7002-16.9043Q13.7402-17.1875 14.8047-17.085Q15.8691-16.9824 16.8701-16.5137Q17.8711-16.0449 18.7012-15.2051L21.1328-12.793Q21.3086-12.6172 21.3525-12.4512Q21.3965-12.2852 21.3379-12.0312L21.0156-10.5469L22.5195-9.0625L23.5059-9.12109Q23.6914-9.13086 23.7891-9.09668Q23.8867-9.0625 24.0332-8.91602L24.6094-8.33984L22.168-5.89844L21.5918-6.47461Q21.4453-6.62109 21.4062-6.71875Q21.3672-6.81641 21.377-7.01172L21.4453-7.98828L19.9512-9.47266L18.4277-9.21875Q18.1836-9.16992 18.042-9.2041Q17.9004-9.23828 17.7148-9.41406L15.7129-11.416Q15.5176-11.5918 15.4932-11.7529Q15.4688-11.9141 15.5859-12.1875L16.4648-14.2773Q15.293-15.3711 13.8281-15.791Q12.3633-16.2109 10.8398-15.7617Q10.7227-15.7324 10.6885-15.8057Q10.6543-15.8789 10.752-15.957Z"/>
  </g>
  <text style="stroke:none;fill:black;font-family:sans-serif;font-size:13;font-weight:bold;" transform="matrix(1 0 0 1 1289 1953)">Exporting</text>
  <text style="stroke:none;fill:black;font-family:sans-serif;font-size:13;" transform="matrix(1 0 0 1 1289 1971)">Symbols should be outlined when exporting to ensure the</text>
  <text style="stroke:none;fill:black;font-family:sans-serif;font-size:13;" transform="matrix(1 0 0 1 1289 1989)">design is preserved when submitting to Xcode.</text>
  <text id="template-version" style="stroke:none;fill:black;font-family:sans-serif;font-size:13;text-anchor:end;" transform="matrix(1 0 0 1 3036 1933)">Template v.3.0</text>
  <text style="stroke:none;fill:black;font-family:sans-serif;font-size:13;text-anchor:end;" transform="matrix(1 0 0 1 3036 1951)">Requires Xcode 13 or greater</text>
  <text id="descriptive-name" style="stroke:none;fill:black;font-family:sans-serif;font-size:13;text-anchor:end;" transform="matrix(1 0 0 1 3036 1969)">Generated from music.quarternote.3</text>
  <text style="stroke:none;fill:black;font-family:sans-serif;font-size:13;text-anchor:end;" transform="matrix(1 0 0 1 3036 1987)">Typeset at 100 points</text>
  <text style="stroke:none;fill:black;font-family:sans-serif;font-size:13;" transform="matrix(1 0 0 1 263 726)">Small</text>
  <text style="stroke:none;fill:black;font-family:sans-serif;font-size:13;" transform="matrix(1 0 0 1 263 1156)">Medium</text>
  <text style="stroke:none;fill:black;font-family:sans-serif;font-size:13;" transform="matrix(1 0 0 1 263 1586)">Large</text>
 </g>
 <g id="Guides">
  <g id="H-reference" style="fill:#27AAE1;stroke:none;" transform="matrix(1 0 0 1 339 696)">
   <path d="M0.976562 0L3.66211 0L29.3457-67.1387L30.0293-67.1387L30.0293-70.459L28.125-70.459ZM11.6699-24.4629L46.9727-24.4629L46.2402-26.709L12.4512-26.709ZM55.127 0L57.7637 0L30.6152-70.459L29.4434-70.459L29.4434-67.1387Z"/>
  </g>
  <line id="Baseline-S" style="fill:none;stroke:#27AAE1;opacity:1;stroke-width:0.5;" x1="263" x2="3036" y1="696" y2="696"/>
  <line id="Capline-S" style="fill:none;stroke:#27AAE1;opacity:1;stroke-width:0.5;" x1="263" x2="3036" y1="625.541" y2="625.541"/>
  <g id="H-reference" style="fill:#27AAE1;stroke:none;" transform="matrix(1 0 0 1 339 1126)">
   <path d="M0.976562 0L3.66211 0L29.3457-67.1387L30.0293-67.1387L30.0293-70.459L28.125-70.459ZM11.6699-24.4629L46.9727-24.4629L46.2402-26.709L12.4512-26.709ZM55.127 0L57.7637 0L30.6152-70.459L29.4434-70.459L29.4434-67.1387Z"/>
  </g>
  <line id="Baseline-M" style="fill:none;stroke:#27AAE1;opacity:1;stroke-width:0.5;" x1="263" x2="3036" y1="1126" y2="1126"/>
  <line id="Capline-M" style="fill:none;stroke:#27AAE1;opacity:1;stroke-width:0.5;" x1="263" x2="3036" y1="1055.54" y2="1055.54"/>
  <g id="H-reference" style="fill:#27AAE1;stroke:none;" transform="matrix(1 0 0 1 339 1556)">
   <path d="M0.976562 0L3.66211 0L29.3457-67.1387L30.0293-67.1387L30.0293-70.459L28.125-70.459ZM11.6699-24.4629L46.9727-24.4629L46.2402-26.709L12.4512-26.709ZM55.127 0L57.7637 0L30.6152-70.459L29.4434-70.459L29.4434-67.1387Z"/>
  </g>
  <line id="Baseline-L" style="fill:none;stroke:#27AAE1;opacity:1;stroke-width:0.5;" x1="263" x2="3036" y1="1556" y2="1556"/>
  <line id="Capline-L" style="fill:none;stroke:#27AAE1;opacity:1;stroke-width:0.5;" x1="263" x2="3036" y1="1485.54" y2="1485.54"/>
  <line id="left-margin-Ultralight-S" style="fill:none;stroke:#00AEEF;stroke-width:0.5;opacity:1.0;" x1="507.685" x2="507.685" y1="600.785" y2="720.121"/>
  <line id="right-margin-Ultralight-S" style="fill:none;stroke:#00AEEF;stroke-width:0.5;opacity:1.0;" x1="611.737" x2="611.737" y1="600.785" y2="720.121"/>
  <line id="left-margin-Thin-S" style="fill:none;stroke:#00AEEF;stroke-width:0.5;opacity:1.0;" x1="803.908" x2="803.908" y1="600.785" y2="720.121"/>
  <line id="right-margin-Thin-S" style="fill:none;stroke:#00AEEF;stroke-width:0.5;opacity:1.0;" x1="908.937" x2="908.937" y1="600.785" y2="720.121"/>
  <line id="left-margin-Light-S" style="fill:none;stroke:#00AEEF;stroke-width:0.5;opacity:1.0;" x1="1099.67" x2="1099.67" y1="600.785" y2="720.121"/>
  <line id="right-margin-Light-S" style="fill:none;stroke:#00AEEF;stroke-width:0.5;opacity:1.0;" x1="1206.6" x2="1206.6" y1="600.785" y2="720.121"/>
  <line id="left-margin-Regular-S" style="fill:none;stroke:#00AEEF;stroke-width:0.5;opacity:1.0;" x1="1395.65" x2="1395.65" y1="600.785" y2="720.121"/>
  <line id="right-margin-Regular-S" style="fill:none;stroke:#00AEEF;stroke-width:0.5;opacity:1.0;" x1="1504.04" x2="1504.04" y1="600.785" y2="720.121"/>
  <line id="left-margin-Medium-S" style="fill:none;stroke:#00AEEF;stroke-width:0.5;opacity:1.0;" x1="1691.89" x2="1691.89" y1="600.785" y2="720.121"/>
  <line id="right-margin-Medium-S" style="fill:none;stroke:#00AEEF;stroke-width:0.5;opacity:1.0;" x1="1801.22" x2="1801.22" y1="600.785" y2="720.121"/>
  <line id="left-margin-Semibold-S" style="fill:none;stroke:#00AEEF;stroke-width:0.5;opacity:1.0;" x1="1988.26" x2="1988.26" y1="600.785" y2="720.121"/>
  <line id="right-margin-Semibold-S" style="fill:none;stroke:#00AEEF;stroke-width:0.5;opacity:1.0;" x1="2098.27" x2="2098.27" y1="600.785" y2="720.121"/>
  <line id="left-margin-Bold-S" style="fill:none;stroke:#00AEEF;stroke-width:0.5;opacity:1.0;" x1="2284.48" x2="2284.48" y1="600.785" y2="720.121"/>
  <line id="right-margin-Bold-S" style="fill:none;stroke:#00AEEF;stroke-width:0.5;opacity:1.0;" x1="2395.47" x2="2395.47" y1="600.785" y2="720.121"/>
  <line id="left-margin-Heavy-S" style="fill:none;stroke:#00AEEF;stroke-width:0.5;opacity:1.0;" x1="2580.54" x2="2580.54" y1="600.785" y2="720.121"/>
  <line id="right-margin-Heavy-S" style="fill:none;stroke:#00AEEF;stroke-width:0.5;opacity:1.0;" x1="2692.84" x2="2692.84" y1="600.785" y2="720.121"/>
  <line id="left-margin-Black-S" style="fill:none;stroke:#00AEEF;stroke-width:0.5;opacity:1.0;" x1="2876.64" x2="2876.64" y1="600.785" y2="720.121"/>
  <line id="right-margin-Black-S" style="fill:none;stroke:#00AEEF;stroke-width:0.5;opacity:1.0;" x1="2990.16" x2="2990.16" y1="600.785" y2="720.121"/>
  <line id="left-margin-Ultralight-M" style="fill:none;stroke:#00AEEF;stroke-width:0.5;opacity:1.0;" x1="493.5" x2="493.5" y1="1030.79" y2="1150.12"/>
  <line id="right-margin-Ultralight-M" style="fill:none;stroke:#00AEEF;stroke-width:0.5;opacity:1.0;" x1="625.922" x2="625.922" y1="1030.79" y2="1150.12"/>
  <line id="left-margin-Thin-M" style="fill:none;stroke:#00AEEF;stroke-width:0.5;opacity:1.0;" x1="789.674" x2="789.674" y1="1030.79" y2="1150.12"/>
  <line id="right-margin-Thin-M" style="fill:none;stroke:#00AEEF;stroke-width:0.5;opacity:1.0;" x1="923.17" x2="923.17" y1="1030.79" y2="1150.12"/>
  <line id="left-margin-Light-M" style="fill:none;stroke:#00AEEF;stroke-width:0.5;opacity:1.0;" x1="1085.29" x2="1085.29" y1="1030.79" y2="1150.12"/>
  <line id="right-margin-Light-M" style="fill:none;stroke:#00AEEF;stroke-width:0.5;opacity:1.0;" x1="1220.98" x2="1220.98" y1="1030.79" y2="1150.12"/>
  <line id="left-margin-Regular-M" style="fill:none;stroke:#00AEEF;stroke-width:0.5;opacity:1.0;" x1="1381.19" x2="1381.19" y1="1030.79" y2="1150.12"/>
  <line id="right-margin-Regular-M" style="fill:none;stroke:#00AEEF;stroke-width:0.5;opacity:1.0;" x1="1518.5" x2="1518.5" y1="1030.79" y2="1150.12"/>
  <line id="left-margin-Medium-M" style="fill:none;stroke:#00AEEF;stroke-width:0.5;opacity:1.0;" x1="1677.27" x2="1677.27" y1="1030.79" y2="1150.12"/>
  <line id="right-margin-Medium-M" style="fill:none;stroke:#00AEEF;stroke-width:0.5;opacity:1.0;" x1="1815.84" x2="1815.84" y1="1030.79" y2="1150.12"/>
  <line id="left-margin-Semibold-M" style="fill:none;stroke:#00AEEF;stroke-width:0.5;opacity:1.0;" x1="1973.49" x2="1973.49" y1="1030.79" y2="1150.12"/>
  <line id="right-margin-Semibold-M" style="fill:none;stroke:#00AEEF;stroke-width:0.5;opacity:1.0;" x1="2113.04" x2="2113.04" y1="1030.79" y2="1150.12"/>
  <line id="left-margin-Bold-M" style="fill:none;stroke:#00AEEF;stroke-width:0.5;opacity:1.0;" x1="2269.57" x2="2269.57" y1="1030.79" y2="1150.12"/>
  <line id="right-margin-Bold-M" style="fill:none;stroke:#00AEEF;stroke-width:0.5;opacity:1.0;" x1="2410.39" x2="2410.39" y1="1030.79" y2="1150.12"/>
  <line id="left-margin-Heavy-M" style="fill:none;stroke:#00AEEF;stroke-width:0.5;opacity:1.0;" x1="2565.35" x2="2565.35" y1="1030.79" y2="1150.12"/>
  <line id="right-margin-Heavy-M" style="fill:none;stroke:#00AEEF;stroke-width:0.5;opacity:1.0;" x1="2708.03" x2="2708.03" y1="1030.79" y2="1150.12"/>
  <line id="left-margin-Black-M" style="fill:none;stroke:#00AEEF;stroke-width:0.5;opacity:1.0;" x1="2861.23" x2="2861.23" y1="1030.79" y2="1150.12"/>
  <line id="right-margin-Black-M" style="fill:none;stroke:#00AEEF;stroke-width:0.5;opacity:1.0;" x1="3005.57" x2="3005.57" y1="1030.79" y2="1150.12"/>
  <line id="left-margin-Ultralight-L" style="fill:none;stroke:#00AEEF;stroke-width:0.5;opacity:1.0;" x1="474.555" x2="474.555" y1="1460.79" y2="1580.12"/>
  <line id="right-margin-Ultralight-L" style="fill:none;stroke:#00AEEF;stroke-width:0.5;opacity:1.0;" x1="644.867" x2="644.867" y1="1460.79" y2="1580.12"/>
  <line id="left-margin-Thin-L" style="fill:none;stroke:#00AEEF;stroke-width:0.5;opacity:1.0;" x1="770.631" x2="770.631" y1="1460.79" y2="1580.12"/>
  <line id="right-margin-Thin-L" style="fill:none;stroke:#00AEEF;stroke-width:0.5;opacity:1.0;" x1="942.213" x2="942.213" y1="1460.79" y2="1580.12"/>
  <line id="left-margin-Light-L" style="fill:none;stroke:#00AEEF;stroke-width:0.5;opacity:1.0;" x1="1066.15" x2="1066.15" y1="1460.79" y2="1580.12"/>
  <line id="right-margin-Light-L" style="fill:none;stroke:#00AEEF;stroke-width:0.5;opacity:1.0;" x1="1240.12" x2="1240.12" y1="1460.79" y2="1580.12"/>
  <line id="left-margin-Regular-L" style="fill:none;stroke:#00AEEF;stroke-width:0.5;opacity:1.0;" x1="1361.93" x2="1361.93" y1="1460.79" y2="1580.12"/>
  <line id="right-margin-Regular-L" style="fill:none;stroke:#00AEEF;stroke-width:0.5;opacity:1.0;" x1="1537.76" x2="1537.76" y1="1460.79" y2="1580.12"/>
  <line id="left-margin-Medium-L" style="fill:none;stroke:#00AEEF;stroke-width:0.5;opacity:1.0;" x1="1657.83" x2="1657.83" y1="1460.79" y2="1580.12"/>
  <line id="right-margin-Medium-L" style="fill:none;stroke:#00AEEF;stroke-width:0.5;opacity:1.0;" x1="1835.28" x2="1835.28" y1="1460.79" y2="1580.12"/>
  <line id="left-margin-Semibold-L" style="fill:none;stroke:#00AEEF;stroke-width:0.5;opacity:1.0;" x1="1953.94" x2="1953.94" y1="1460.79" y2="1580.12"/>
  <line id="right-margin-Semibold-L" style="fill:none;stroke:#00AEEF;stroke-width:0.5;opacity:1.0;" x1="2132.6" x2="2132.6" y1="1460.79" y2="1580.12"/>
  <line id="left-margin-Bold-L" style="fill:none;stroke:#00AEEF;stroke-width:0.5;opacity:1.0;" x1="2249.84" x2="2249.84" y1="1460.79" y2="1580.12"/>
  <line id="right-margin-Bold-L" style="fill:none;stroke:#00AEEF;stroke-width:0.5;opacity:1.0;" x1="2430.11" x2="2430.11" y1="1460.79" y2="1580.12"/>
  <line id="left-margin-Heavy-L" style="fill:none;stroke:#00AEEF;stroke-width:0.5;opacity:1.0;" x1="2545.38" x2="2545.38" y1="1460.79" y2="1580.12"/>
  <line id="right-margin-Heavy-L" style="fill:none;stroke:#00AEEF;stroke-width:0.5;opacity:1.0;" x1="2728" x2="2728" y1="1460.79" y2="1580.12"/>
  <line id="left-margin-Black-L" style="fill:none;stroke:#00AEEF;stroke-width:0.5;opacity:1.0;" x1="2841.04" x2="2841.04" y1="1460.79" y2="1580.12"/>
  <line id="right-margin-Black-L" style="fill:none;stroke:#00AEEF;stroke-width:0.5;opacity:1.0;" x1="3025.76" x2="3025.76" y1="1460.79" y2="1580.12"/>
 </g>
 <g id="Symbols">
  <g id="Black-L" transform="matrix(1 0 0 1 2841.04 1556)">
   <path d="M16.0645 11.9629Q16.0645 17.7734 18.8232 22.2656Q21.582 26.7578 26.4404 29.3213Q31.2988 31.8848 37.5 31.8848Q41.2598 31.8848 45.8496 30.2734Q50.4395 28.6621 54.5898 25.2441Q58.7402 21.8262 61.4258 16.3574Q64.1113 10.8887 64.1113 3.125L64.1113-60.791Q64.1113-63.9648 61.8652-66.2109Q59.6191-68.457 56.4453-68.457Q53.2715-68.457 51.001-66.2109Q48.7305-63.9648 48.7305-60.791L48.7305-14.4531Q48.7305-13.2324 48.4619-12.793Q48.1934-12.3535 47.5098-12.2559L37.4512-10.0586Q26.9043-7.86133 21.4844-2.22168Q16.0645 3.41797 16.0645 11.9629ZM73.9746-20.166Q73.9746-14.4043 76.7334-9.91211Q79.4922-5.41992 84.3262-2.85645Q89.1602-0.292969 95.3613-0.292969Q99.1699-0.292969 103.76-1.9043Q108.35-3.51562 112.5-6.93359Q116.65-10.3516 119.336-15.8203Q122.021-21.2891 122.021-29.0039L122.021-92.9688Q122.021-96.0938 119.775-98.3643Q117.529-100.635 114.355-100.635Q111.182-100.635 108.911-98.3643Q106.641-96.0938 106.641-92.9688L106.641-46.6309Q106.641-45.4102 106.372-44.9707Q106.104-44.5312 105.42-44.4336L95.3613-42.1875Q84.8145-40.0391 79.3945-34.3994Q73.9746-28.7598 73.9746-20.166ZM120.605 11.9629Q120.605 17.7734 123.364 22.2656Q126.123 26.7578 130.981 29.3213Q135.84 31.8848 142.041 31.8848Q145.801 31.8848 150.391 30.2734Q154.98 28.6621 159.155 25.2441Q163.33 21.8262 165.991 16.3574Q168.652 10.8887 168.652 3.125L168.652-60.791Q168.652-63.9648 166.406-66.2109Q164.16-68.457 160.986-68.457Q157.812-68.457 155.542-66.2109Q153.271-63.9648 153.271-60.791L153.271-14.4531Q153.271-13.2324 153.003-12.793Q152.734-12.3535 152.051-12.2559L141.992-10.0586Q131.445-7.86133 126.025-2.22168Q120.605 3.41797 120.605 11.9629Z"/>
  </g>
  <g id="Heavy-L" transform="matrix(1 0 0 1 2545.38 1556)">
   <path d="M16.0645 11.7676Q16.0645 17.2852 18.7012 21.582Q21.3379 25.8789 25.9766 28.3203Q30.6152 30.7617 36.5723 30.7617Q40.2832 30.7617 44.7266 29.1992Q49.1699 27.6367 53.1494 24.3408Q57.1289 21.0449 59.7168 15.7471Q62.3047 10.4492 62.3047 2.92969L62.3047-60.9863Q62.3047-63.8184 60.3271-65.7959Q58.3496-67.7734 55.5176-67.7734Q52.7344-67.7734 50.7324-65.7959Q48.7305-63.8184 48.7305-60.9863L48.7305-14.6973Q48.7305-13.1836 48.2666-12.4512Q47.8027-11.7188 46.7773-11.5723L36.7188-9.375Q26.4648-7.22656 21.2646-1.83105Q16.0645 3.56445 16.0645 11.7676ZM73.6816-20.3613Q73.6816-14.8438 76.3184-10.5713Q78.9551-6.29883 83.5938-3.85742Q88.2324-1.41602 94.1406-1.41602Q97.9004-1.41602 102.319-2.9541Q106.738-4.49219 110.742-7.8125Q114.746-11.1328 117.334-16.4307Q119.922-21.7285 119.922-29.1992L119.922-93.1641Q119.922-95.9473 117.944-97.9492Q115.967-99.9512 113.135-99.9512Q110.352-99.9512 108.35-97.9492Q106.348-95.9473 106.348-93.1641L106.348-46.8262Q106.348-45.3125 105.884-44.6045Q105.42-43.8965 104.395-43.75L94.3359-41.5039Q84.082-39.4043 78.8818-34.0088Q73.6816-28.6133 73.6816-20.3613ZM120.312 11.7676Q120.312 17.334 122.949 21.6064Q125.586 25.8789 130.249 28.3203Q134.912 30.7617 140.82 30.7617Q144.531 30.7617 148.975 29.1992Q153.418 27.6367 157.422 24.3408Q161.426 21.0449 163.989 15.7471Q166.553 10.4492 166.553 2.92969L166.553-60.9863Q166.553-63.7695 164.575-65.7715Q162.598-67.7734 159.814-67.7734Q156.982-67.7734 154.98-65.7715Q152.979-63.7695 152.979-60.9863L152.979-14.6484Q152.979-13.1348 152.539-12.4268Q152.1-11.7188 151.025-11.5723L140.967-9.375Q130.713-7.22656 125.513-1.83105Q120.312 3.56445 120.312 11.7676Z"/>
  </g>
  <g id="Bold-L" transform="matrix(1 0 0 1 2249.84 1556)">
   <path d="M16.0645 11.5234Q16.0645 16.7969 18.5791 20.8496Q21.0938 24.9023 25.4883 27.1973Q29.8828 29.4922 35.5957 29.4922Q39.1602 29.4922 43.4326 28.0273Q47.7051 26.5625 51.5381 23.3643Q55.3711 20.166 57.8369 15.0635Q60.3027 9.96094 60.3027 2.68555L60.3027-61.2793Q60.3027-63.623 58.5938-65.3076Q56.8848-66.9922 54.541-66.9922Q52.1484-66.9922 50.4395-65.3076Q48.7305-63.623 48.7305-61.2793L48.7305-14.9414Q48.7305-13.0859 48.0713-12.085Q47.4121-11.084 45.9961-10.791L35.9375-8.64258Q25.9766-6.5918 21.0205-1.44043Q16.0645 3.71094 16.0645 11.5234ZM73.3398-20.6543Q73.3398-15.3809 75.8545-11.3281Q78.3691-7.27539 82.7637-4.98047Q87.1582-2.68555 92.8223-2.68555Q96.4844-2.68555 100.732-4.15039Q104.98-5.61523 108.813-8.81348Q112.646-12.0117 115.112-17.1143Q117.578-22.2168 117.578-29.4922L117.578-93.4082Q117.578-95.752 115.894-97.4609Q114.209-99.1699 111.816-99.1699Q109.424-99.1699 107.715-97.4609Q106.006-95.752 106.006-93.4082L106.006-47.1191Q106.006-45.2637 105.347-44.2383Q104.688-43.2129 103.271-42.9688L93.2129-40.7715Q83.252-38.7207 78.2959-33.5938Q73.3398-28.4668 73.3398-20.6543ZM120.02 11.5234Q120.02 16.7969 122.51 20.8496Q125 24.9023 129.419 27.1973Q133.838 29.4922 139.502 29.4922Q143.115 29.4922 147.388 28.0273Q151.66 26.5625 155.493 23.3887Q159.326 20.2148 161.768 15.0879Q164.209 9.96094 164.209 2.68555L164.209-61.2793Q164.209-63.623 162.524-65.3076Q160.84-66.9922 158.496-66.9922Q156.104-66.9922 154.395-65.3076Q152.686-63.623 152.686-61.2793L152.686-14.9414Q152.686-13.0859 152.026-12.0605Q151.367-11.0352 149.902-10.791L139.844-8.64258Q129.932-6.5918 124.976-1.44043Q120.02 3.71094 120.02 11.5234Z"/>
  </g>
  <g id="Semibold-L" transform="matrix(1 0 0 1 1953.94 1556)">
   <path d="M16.0645 11.3281Q16.0645 16.4062 18.4814 20.2881Q20.8984 24.1699 25.1221 26.3916Q29.3457 28.6133 34.8633 28.6133Q38.3789 28.6133 42.5537 27.1973Q46.7285 25.7812 50.4395 22.6807Q54.1504 19.5801 56.5186 14.5996Q58.8867 9.61914 58.8867 2.49023L58.8867-61.4258Q58.8867-63.4766 57.3975-64.9658Q55.9082-66.4551 53.8086-66.4551Q51.7578-66.4551 50.2441-64.9658Q48.7305-63.4766 48.7305-61.4258L48.7305-15.1367Q48.7305-13.0371 47.9004-11.8164Q47.0703-10.5957 45.4102-10.2539L35.3516-8.10547Q25.6348-6.10352 20.8496-1.14746Q16.0645 3.80859 16.0645 11.3281ZM73.0957-20.8008Q73.0957-15.7227 75.5371-11.8408Q77.9785-7.95898 82.2021-5.7373Q86.4258-3.51562 91.8945-3.51562Q95.459-3.51562 99.6094-4.95605Q103.76-6.39648 107.471-9.49707Q111.182-12.5977 113.55-17.5537Q115.918-22.5098 115.918-29.6387L115.918-93.5547Q115.918-95.6055 114.453-97.0947Q112.988-98.584 110.889-98.584Q108.789-98.584 107.275-97.0947Q105.762-95.6055 105.762-93.5547L105.762-47.2656Q105.762-45.166 104.956-43.9453Q104.15-42.7246 102.441-42.3828L92.4316-40.2344Q82.666-38.2324 77.8809-33.3008Q73.0957-28.3691 73.0957-20.8008ZM119.775 11.377Q119.775 16.4551 122.192 20.3369Q124.609 24.2188 128.857 26.416Q133.105 28.6133 138.574 28.6133Q142.139 28.6133 146.289 27.1973Q150.439 25.7812 154.15 22.6807Q157.861 19.5801 160.229 14.5996Q162.598 9.61914 162.598 2.53906L162.598-61.4258Q162.598-63.4766 161.108-64.9658Q159.619-66.4551 157.568-66.4551Q155.469-66.4551 153.955-64.9658Q152.441-63.4766 152.441-61.4258L152.441-15.0879Q152.441-12.9883 151.636-11.7676Q150.83-10.5469 149.121-10.2051L139.062-8.10547Q129.346-6.10352 124.561-1.14746Q119.775 3.80859 119.775 11.377Z"/>
  </g>
  <g id="Medium-L" transform="matrix(1 0 0 1 1657.83 1556)">
   <path d="M16.0645 11.1816Q16.0645 16.1133 18.4082 19.8975Q20.752 23.6816 24.8535 25.8301Q28.9551 27.9785 34.3262 27.9785Q37.793 27.9785 41.8701 26.5869Q45.9473 25.1953 49.585 22.1436Q53.2227 19.0918 55.5176 14.2334Q57.8125 9.375 57.8125 2.34375L57.8125-61.5723Q57.8125-63.4277 56.4697-64.7461Q55.127-66.0645 53.2715-66.0645Q51.416-66.0645 50.0732-64.7461Q48.7305-63.4277 48.7305-61.5723L48.7305-15.2344Q48.7305-12.9883 47.8027-11.6211Q46.875-10.2539 44.9707-9.86328L34.9121-7.71484Q25.3906-5.76172 20.7275-0.952148Q16.0645 3.85742 16.0645 11.1816ZM72.9492-20.9473Q72.9492-16.0156 75.293-12.2314Q77.6367-8.44727 81.7627-6.32324Q85.8887-4.19922 91.2109-4.19922Q94.7266-4.19922 98.7793-5.59082Q102.832-6.98242 106.47-10.0098Q110.107-13.0371 112.402-17.8955Q114.697-22.7539 114.697-29.7852L114.697-93.7012Q114.697-95.5566 113.379-96.875Q112.061-98.1934 110.205-98.1934Q108.301-98.1934 106.958-96.875Q105.615-95.5566 105.615-93.7012L105.615-47.4121Q105.615-45.1172 104.688-43.75Q103.76-42.3828 101.855-41.9922L91.8457-39.8438Q82.2754-37.8906 77.6123-33.0811Q72.9492-28.2715 72.9492-20.9473ZM119.58 11.2305Q119.58 16.1621 121.924 19.9463Q124.268 23.7305 128.418 25.8545Q132.568 27.9785 137.891 27.9785Q141.406 27.9785 145.459 26.5869Q149.512 25.1953 153.149 22.168Q156.787 19.1406 159.082 14.2578Q161.377 9.375 161.377 2.39258L161.377-61.5723Q161.377-63.3789 160.034-64.7217Q158.691-66.0645 156.885-66.0645Q154.98-66.0645 153.613-64.7217Q152.246-63.3789 152.246-61.5723L152.246-15.2344Q152.246-12.9395 151.343-11.5723Q150.439-10.2051 148.535-9.81445L138.477-7.71484Q128.906-5.76172 124.243-0.927734Q119.58 3.90625 119.58 11.2305Z"/>
  </g>
  <g id="Regular-L" transform="matrix(1 0 0 1 1361.93 1556)">
   <path d="M16.0645 11.0352Q16.0645 15.7715 18.3105 19.3848Q20.5566 22.998 24.5117 25.0488Q28.4668 27.0996 33.6426 27.0996Q37.0605 27.0996 41.0156 25.7568Q44.9707 24.4141 48.4863 21.46Q52.002 18.5059 54.2236 13.7695Q56.4453 9.0332 56.4453 2.19727L56.4453-61.7188Q56.4453-63.2812 55.2979-64.4043Q54.1504-65.5273 52.5879-65.5273Q51.0254-65.5273 49.8779-64.4043Q48.7305-63.2812 48.7305-61.7188L48.7305-15.4297Q48.7305-12.9395 47.6562-11.3525Q46.582-9.76562 44.4336-9.32617L34.375-7.22656Q25.0488-5.27344 20.5566-0.65918Q16.0645 3.95508 16.0645 11.0352ZM72.7051-21.0938Q72.7051-16.3574 74.9756-12.7441Q77.2461-9.13086 81.2012-7.08008Q85.1562-5.0293 90.2832-5.0293Q93.75-5.0293 97.6807-6.37207Q101.611-7.71484 105.127-10.6689Q108.643-13.623 110.864-18.3594Q113.086-23.0957 113.086-29.9316L113.086-93.8477Q113.086-95.4102 111.963-96.5332Q110.84-97.6562 109.277-97.6562Q107.666-97.6562 106.519-96.5332Q105.371-95.4102 105.371-93.8477L105.371-47.5586Q105.371-45.0684 104.321-43.4814Q103.271-41.8945 101.074-41.4551L91.0645-39.3555Q81.6895-37.4023 77.1973-32.7881Q72.7051-28.1738 72.7051-21.0938ZM119.385 11.084Q119.385 15.8203 121.631 19.4336Q123.877 23.0469 127.856 25.0732Q131.836 27.0996 136.963 27.0996Q140.43 27.0996 144.36 25.7568Q148.291 24.4141 151.807 21.4844Q155.322 18.5547 157.544 13.7939Q159.766 9.0332 159.766 2.24609L159.766-61.7188Q159.766-63.2324 158.643-64.3799Q157.52-65.5273 155.957-65.5273Q154.346-65.5273 153.198-64.3799Q152.051-63.2324 152.051-61.7188L152.051-15.3809Q152.051-12.8906 151.001-11.3037Q149.951-9.7168 147.754-9.27734L137.695-7.22656Q128.369-5.27344 123.877-0.634766Q119.385 4.00391 119.385 11.084Z"/>
  </g>
  <g id="Light-L" transform="matrix(1 0 0 1 1066.15 1556)">
   <path d="M16.0645 11.0352Q16.0645 15.625 18.2373 19.1162Q20.4102 22.6074 24.2432 24.585Q28.0762 26.5625 33.1055 26.5625Q36.4746 26.5625 40.332 25.2441Q44.1895 23.9258 47.6074 21.0449Q51.0254 18.1641 53.1738 13.5498Q55.3223 8.93555 55.3223 2.19727L55.3223-61.7188Q55.3223-63.0371 54.3457-64.0137Q53.3691-64.9902 52.0508-64.9902Q50.6836-64.9902 49.707-64.0137Q48.7305-63.0371 48.7305-61.7188L48.7305-15.4297Q48.7305-12.6953 47.5342-10.9619Q46.3379-9.22852 43.9941-8.78906L33.9355-6.68945Q24.8535-4.78516 20.459-0.341797Q16.0645 4.10156 16.0645 11.0352ZM71.9727-21.0938Q71.9727-16.5039 74.1699-13.0127Q76.3672-9.52148 80.1758-7.54395Q83.9844-5.56641 89.0137-5.56641Q92.3828-5.56641 96.2402-6.88477Q100.098-8.20312 103.516-11.0596Q106.934-13.916 109.082-18.5547Q111.23-23.1934 111.23-29.9316L111.23-93.8477Q111.23-95.166 110.278-96.1426Q109.326-97.1191 107.959-97.1191Q106.592-97.1191 105.615-96.1426Q104.639-95.166 104.639-93.8477L104.639-47.5098Q104.639-44.8242 103.467-43.0908Q102.295-41.3574 99.9023-40.8691L89.8926-38.8184Q80.7617-36.8652 76.3672-32.4463Q71.9727-28.0273 71.9727-21.0938ZM118.652 11.084Q118.652 15.6738 120.825 19.165Q122.998 22.6562 126.855 24.6094Q130.713 26.5625 135.693 26.5625Q139.111 26.5625 142.944 25.2686Q146.777 23.9746 150.195 21.1182Q153.613 18.2617 155.762 13.5986Q157.91 8.93555 157.91 2.24609L157.91-61.6699Q157.91-62.9883 156.958-63.9648Q156.006-64.9414 154.688-64.9414Q153.32-64.9414 152.319-63.9648Q151.318-62.9883 151.318-61.6699L151.318-15.3809Q151.318-12.6465 150.146-10.9131Q148.975-9.17969 146.582-8.74023L136.523-6.64062Q127.441-4.73633 123.047-0.292969Q118.652 4.15039 118.652 11.084Z"/>
  </g>
  <g id="Thin-L" transform="matrix(1 0 0 1 770.631 1556)">
   <path d="M16.0645 11.0352Q16.0645 15.4297 18.1396 18.75Q20.2148 22.0703 23.877 23.9258Q27.5391 25.7812 32.3242 25.7812Q35.6934 25.7812 39.4287 24.5361Q43.1641 23.291 46.4355 20.5322Q49.707 17.7734 51.7822 13.2568Q53.8574 8.74023 53.8574 2.19727L53.8574-61.7188Q53.8574-62.7441 53.1006-63.501Q52.3438-64.2578 51.3184-64.2578Q50.293-64.2578 49.5117-63.501Q48.7305-62.7441 48.7305-61.7188L48.7305-15.4297Q48.7305-12.4023 47.3633-10.498Q45.9961-8.59375 43.4082-8.00781L33.3496-5.95703Q24.6094-4.10156 20.3369 0.0976562Q16.0645 4.29688 16.0645 11.0352ZM70.9961-21.0449Q70.9961-16.6504 73.0957-13.3545Q75.1953-10.0586 78.833-8.17871Q82.4707-6.29883 87.3047-6.29883Q90.625-6.29883 94.3604-7.54395Q98.0957-8.78906 101.392-11.5479Q104.688-14.3066 106.738-18.8232Q108.789-23.3398 108.789-29.8828L108.789-93.7988Q108.789-94.8242 108.057-95.5811Q107.324-96.3379 106.25-96.3379Q105.225-96.3379 104.443-95.5811Q103.662-94.8242 103.662-93.7988L103.662-47.5098Q103.662-44.4824 102.295-42.5781Q100.928-40.6738 98.3398-40.1367L88.2812-38.0371Q79.4922-36.2305 75.2441-32.0068Q70.9961-27.7832 70.9961-21.0449ZM117.725 11.1328Q117.725 15.5273 119.8 18.8232Q121.875 22.1191 125.537 23.999Q129.199 25.8789 134.033 25.8789Q137.354 25.8789 141.089 24.6094Q144.824 23.3398 148.096 20.6055Q151.367 17.8711 153.442 13.3301Q155.518 8.78906 155.518 2.29492L155.518-61.6699Q155.518-62.6953 154.785-63.4521Q154.053-64.209 153.027-64.209Q151.904-64.209 151.123-63.4521Q150.342-62.6953 150.342-61.6699L150.342-15.332Q150.342-12.3047 148.999-10.4004Q147.656-8.49609 145.068-7.95898L135.01-5.9082Q126.221-4.05273 121.973 0.170898Q117.725 4.39453 117.725 11.1328Z"/>
  </g>
  <g id="Ultralight-L" transform="matrix(1 0 0 1 474.555 1556)">
   <path d="M16.0645 11.0352Q16.0645 15.332 18.0908 18.5547Q20.1172 21.7773 23.7061 23.6084Q27.2949 25.4395 31.9824 25.4395Q35.3027 25.4395 38.9648 24.1943Q42.627 22.9492 45.8496 20.2393Q49.0723 17.5293 51.0742 13.1104Q53.0762 8.69141 53.0762 2.19727L53.0762-61.7188Q53.0762-62.5977 52.4658-63.2568Q51.8555-63.916 50.9766-63.916Q50.0488-63.916 49.3896-63.2568Q48.7305-62.5977 48.7305-61.7188L48.7305-15.4297Q48.7305-12.2559 47.2656-10.2295Q45.8008-8.20312 43.1152-7.66602L33.0566-5.61523Q24.4629-3.75977 20.2637 0.317383Q16.0645 4.39453 16.0645 11.0352ZM70.5078-21.0449Q70.5078-16.748 72.5342-13.5254Q74.5605-10.3027 78.125-8.47168Q81.6895-6.64062 86.4258-6.64062Q89.6973-6.64062 93.3838-7.88574Q97.0703-9.13086 100.293-11.8408Q103.516-14.5508 105.542-18.9941Q107.568-23.4375 107.568-29.8828L107.568-93.7988Q107.568-94.6777 106.934-95.3369Q106.299-95.9961 105.371-95.9961Q104.492-95.9961 103.809-95.3369Q103.125-94.6777 103.125-93.7988L103.125-47.4609Q103.125-44.3359 101.709-42.3096Q100.293-40.2832 97.5098-39.7461L87.5-37.6953Q78.8574-35.8398 74.6826-31.7627Q70.5078-27.6855 70.5078-21.0449ZM117.236 11.1328Q117.236 15.4297 119.263 18.6523Q121.289 21.875 124.854 23.6816Q128.418 25.4883 133.154 25.4883Q136.426 25.4883 140.112 24.2676Q143.799 23.0469 147.021 20.3369Q150.244 17.627 152.246 13.1592Q154.248 8.69141 154.248 2.29492L154.248-61.6211Q154.248-62.5488 153.638-63.1836Q153.027-63.8184 152.148-63.8184Q151.221-63.8184 150.537-63.1836Q149.854-62.5488 149.854-61.6211L149.854-15.332Q149.854-12.1582 148.438-10.1318Q147.021-8.10547 144.238-7.61719L134.18-5.51758Q125.586-3.66211 121.411 0.415039Q117.236 4.49219 117.236 11.1328Z"/>
  </g>
  <g id="Black-M" transform="matrix(1 0 0 1 2861.23 1126)">
   <path d="M12.4512 1.5625Q12.4512 6.20117 14.6729 9.81445Q16.8945 13.4277 20.7764 15.5029Q24.6582 17.5781 29.6387 17.5781Q32.6172 17.5781 36.2793 16.2842Q39.9414 14.9902 43.2617 12.2559Q46.582 9.52148 48.7305 5.17578Q50.8789 0.830078 50.8789-5.32227L50.8789-54.834Q50.8789-57.5684 48.9502-59.4727Q47.0215-61.377 44.3359-61.377Q41.6504-61.377 39.6973-59.4727Q37.7441-57.5684 37.7441-54.834L37.7441-18.9453Q37.7441-18.1641 37.6709-17.9932Q37.5977-17.8223 37.3047-17.8223L29.4922-16.0645Q21.1426-14.3555 16.7969-9.86328Q12.4512-5.37109 12.4512 1.5625ZM57.3242-23.3887Q57.3242-18.75 59.5459-15.1367Q61.7676-11.5234 65.6494-9.44824Q69.5312-7.37305 74.5117-7.37305Q77.4902-7.37305 81.1523-8.66699Q84.8145-9.96094 88.1348-12.6953Q91.4551-15.4297 93.6035-19.7754Q95.752-24.1211 95.752-30.2246L95.752-79.7852Q95.752-82.4707 93.8232-84.3994Q91.8945-86.3281 89.209-86.3281Q86.5234-86.3281 84.5703-84.3994Q82.6172-82.4707 82.6172-79.7852L82.6172-43.8965Q82.6172-43.1152 82.5439-42.9443Q82.4707-42.7734 82.1777-42.7246L74.3652-41.0156Q66.0156-39.3066 61.6699-34.79Q57.3242-30.2734 57.3242-23.3887ZM93.457 1.5625Q93.457 6.20117 95.6787 9.81445Q97.9004 13.4277 101.782 15.5029Q105.664 17.5781 110.645 17.5781Q113.672 17.5781 117.31 16.2842Q120.947 14.9902 124.268 12.2559Q127.588 9.52148 129.736 5.17578Q131.885 0.830078 131.885-5.32227L131.885-54.834Q131.885-57.5684 129.98-59.4727Q128.076-61.377 125.391-61.377Q122.656-61.377 120.728-59.4727Q118.799-57.5684 118.799-54.834L118.799-18.9453Q118.799-18.1641 118.701-17.9932Q118.604-17.8223 118.311-17.8223L110.547-16.0645Q102.197-14.3555 97.8271-9.86328Q93.457-5.37109 93.457 1.5625Z"/>
  </g>
  <g id="Heavy-M" transform="matrix(1 0 0 1 2565.35 1126)">
   <path d="M12.4512 1.36719Q12.4512 5.76172 14.5752 9.2041Q16.6992 12.6465 20.4102 14.624Q24.1211 16.6016 28.8574 16.6016Q31.7871 16.6016 35.3271 15.3564Q38.8672 14.1113 42.041 11.4746Q45.2148 8.83789 47.2656 4.63867Q49.3164 0.439453 49.3164-5.51758L49.3164-55.0293Q49.3164-57.4707 47.6318-59.1553Q45.9473-60.8398 43.5547-60.8398Q41.2109-60.8398 39.4775-59.1553Q37.7441-57.4707 37.7441-55.0293L37.7441-19.1406Q37.7441-18.1641 37.5244-17.749Q37.3047-17.334 36.6699-17.2852L28.8574-15.5273Q20.752-13.8672 16.6016-9.57031Q12.4512-5.27344 12.4512 1.36719ZM57.1777-23.584Q57.1777-19.1406 59.3018-15.7227Q61.4258-12.3047 65.1367-10.3271Q68.8477-8.34961 73.6328-8.34961Q76.5137-8.34961 80.0537-9.59473Q83.5938-10.8398 86.792-13.4766Q89.9902-16.1133 92.041-20.3125Q94.0918-24.5117 94.0918-30.4199L94.0918-79.9805Q94.0918-82.373 92.3828-84.0576Q90.6738-85.7422 88.3301-85.7422Q85.9375-85.7422 84.2041-84.0576Q82.4707-82.373 82.4707-79.9805L82.4707-44.0918Q82.4707-43.0664 82.251-42.6758Q82.0312-42.2852 81.4453-42.1875L73.6328-40.4785Q65.4785-38.8184 61.3281-34.4971Q57.1777-30.1758 57.1777-23.584ZM93.3594 1.36719Q93.3594 5.76172 95.459 9.2041Q97.5586 12.6465 101.27 14.624Q104.98 16.6016 109.766 16.6016Q112.695 16.6016 116.211 15.3564Q119.727 14.1113 122.925 11.4746Q126.123 8.83789 128.174 4.63867Q130.225 0.439453 130.225-5.51758L130.225-55.0293Q130.225-57.4707 128.54-59.1553Q126.855-60.8398 124.512-60.8398Q122.07-60.8398 120.361-59.1553Q118.652-57.4707 118.652-55.0293L118.652-19.1406Q118.652-18.1641 118.408-17.749Q118.164-17.334 117.578-17.2852L109.814-15.5273Q101.66-13.8672 97.5098-9.57031Q93.3594-5.27344 93.3594 1.36719Z"/>
  </g>
  <g id="Bold-M" transform="matrix(1 0 0 1 2269.57 1126)">
   <path d="M12.4512 1.12305Q12.4512 5.32227 14.4531 8.56934Q16.4551 11.8164 19.9707 13.6475Q23.4863 15.4785 28.0273 15.4785Q30.8594 15.4785 34.2529 14.3066Q37.6465 13.1348 40.6738 10.6201Q43.7012 8.10547 45.6543 4.02832Q47.6074-0.0488281 47.6074-5.76172L47.6074-55.3223Q47.6074-57.3242 46.167-58.7646Q44.7266-60.2051 42.7246-60.2051Q40.6738-60.2051 39.209-58.7646Q37.7441-57.3242 37.7441-55.3223L37.7441-19.4336Q37.7441-18.1152 37.3535-17.4561Q36.9629-16.7969 35.9863-16.6504L28.2227-14.9902Q20.3613-13.3301 16.4062-9.25293Q12.4512-5.17578 12.4512 1.12305ZM57.0801-23.8281Q57.0801-19.6289 59.082-16.4062Q61.084-13.1836 64.5996-11.3281Q68.1152-9.47266 72.6074-9.47266Q75.4395-9.47266 78.833-10.6445Q82.2266-11.8164 85.2783-14.3555Q88.3301-16.8945 90.2832-20.9229Q92.2363-24.9512 92.2363-30.7129L92.2363-80.2246Q92.2363-82.2754 90.7959-83.7158Q89.3555-85.1562 87.3047-85.1562Q85.3027-85.1562 83.8379-83.7158Q82.373-82.2754 82.373-80.2246L82.373-44.3359Q82.373-43.0664 81.958-42.4072Q81.543-41.748 80.6152-41.5527L72.8027-39.8926Q64.9414-38.2812 61.0107-34.1797Q57.0801-30.0781 57.0801-23.8281ZM93.2129 1.12305Q93.2129 5.32227 95.2148 8.56934Q97.2168 11.8164 100.732 13.6475Q104.248 15.4785 108.789 15.4785Q111.621 15.4785 114.99 14.3066Q118.359 13.1348 121.411 10.6201Q124.463 8.10547 126.416 4.05273Q128.369 0 128.369-5.76172L128.369-55.3223Q128.369-57.3242 126.929-58.7646Q125.488-60.2051 123.486-60.2051Q121.436-60.2051 119.995-58.7646Q118.555-57.3242 118.555-55.3223L118.555-19.4336Q118.555-18.1152 118.115-17.4561Q117.676-16.7969 116.748-16.6504L108.984-14.9414Q101.123-13.3301 97.168-9.25293Q93.2129-5.17578 93.2129 1.12305Z"/>
  </g>
  <g id="Semibold-M" transform="matrix(1 0 0 1 1973.49 1126)">
   <path d="M12.4512 0.927734Q12.4512 4.98047 14.3799 8.08105Q16.3086 11.1816 19.6777 12.9395Q23.0469 14.6973 27.3926 14.6973Q30.2246 14.6973 33.4961 13.5498Q36.7676 12.4023 39.7217 9.98535Q42.6758 7.56836 44.5557 3.61328Q46.4355-0.341797 46.4355-5.9082L46.4355-55.4688Q46.4355-57.2266 45.166-58.4961Q43.8965-59.7656 42.0898-59.7656Q40.332-59.7656 39.0381-58.4961Q37.7441-57.2266 37.7441-55.4688L37.7441-19.5801Q37.7441-18.1152 37.2314-17.2607Q36.7188-16.4062 35.498-16.2109L27.7344-14.5508Q20.0195-12.9395 16.2354-9.00879Q12.4512-5.07812 12.4512 0.927734ZM56.9336-23.9746Q56.9336-19.9707 58.8623-16.8701Q60.791-13.7695 64.1846-11.9873Q67.5781-10.2051 71.9238-10.2051Q74.707-10.2051 78.0029-11.3525Q81.2988-12.5 84.2285-14.9414Q87.1582-17.3828 89.0381-21.3135Q90.918-25.2441 90.918-30.8594L90.918-80.3711Q90.918-82.1777 89.6484-83.4473Q88.3789-84.7168 86.6211-84.7168Q84.8145-84.7168 83.5205-83.4473Q82.2266-82.1777 82.2266-80.3711L82.2266-44.4824Q82.2266-43.0176 81.7139-42.1875Q81.2012-41.3574 80.0293-41.1133L72.2168-39.502Q64.502-37.8906 60.7178-33.96Q56.9336-30.0293 56.9336-23.9746ZM93.1152 0.927734Q93.1152 4.98047 95.0439 8.08105Q96.9727 11.1816 100.342 12.9395Q103.711 14.6973 108.057 14.6973Q110.889 14.6973 114.16 13.5742Q117.432 12.4512 120.386 10.0098Q123.34 7.56836 125.22 3.6377Q127.1-0.292969 127.1-5.9082L127.1-55.4688Q127.1-57.2266 125.83-58.4961Q124.561-59.7656 122.803-59.7656Q120.996-59.7656 119.702-58.4961Q118.408-57.2266 118.408-55.4688L118.408-19.5801Q118.408-18.1152 117.871-17.2607Q117.334-16.4062 116.162-16.2109L108.398-14.5508Q100.684-12.9395 96.8994-9.00879Q93.1152-5.07812 93.1152 0.927734Z"/>
  </g>
  <g id="Medium-M" transform="matrix(1 0 0 1 1677.27 1126)">
   <path d="M12.4512 0.78125Q12.4512 4.73633 14.3066 7.73926Q16.1621 10.7422 19.458 12.4268Q22.7539 14.1113 26.9531 14.1113Q29.7363 14.1113 32.9346 13.0127Q36.1328 11.9141 38.9893 9.5459Q41.8457 7.17773 43.6768 3.2959Q45.5078-0.585938 45.5078-6.05469L45.5078-55.6152Q45.5078-57.1777 44.3848-58.3252Q43.2617-59.4727 41.6504-59.4727Q40.0391-59.4727 38.8916-58.3252Q37.7441-57.1777 37.7441-55.6152L37.7441-19.7266Q37.7441-18.0664 37.1338-17.1143Q36.5234-16.1621 35.1562-15.918L27.3926-14.2578Q19.8242-12.6953 16.1377-8.8623Q12.4512-5.0293 12.4512 0.78125ZM56.8848-24.1211Q56.8848-20.2148 58.7402-17.2119Q60.5957-14.209 63.8916-12.5Q67.1875-10.791 71.3867-10.791Q74.1211-10.791 77.3438-11.8896Q80.5664-12.9883 83.4229-15.3809Q86.2793-17.7734 88.1104-21.6309Q89.9414-25.4883 89.9414-31.0059L89.9414-80.5176Q89.9414-82.1289 88.8184-83.252Q87.6953-84.375 86.084-84.375Q84.4727-84.375 83.3252-83.252Q82.1777-82.1289 82.1777-80.5176L82.1777-44.6289Q82.1777-43.0176 81.5674-42.0654Q80.957-41.1133 79.5898-40.8203L71.8262-39.1602Q64.209-37.5977 60.5469-33.7646Q56.8848-29.9316 56.8848-24.1211ZM93.0664 0.78125Q93.0664 4.73633 94.9219 7.73926Q96.7773 10.7422 100.049 12.4268Q103.32 14.1113 107.568 14.1113Q110.303 14.1113 113.501 13.0371Q116.699 11.9629 119.58 9.57031Q122.461 7.17773 124.292 3.32031Q126.123-0.537109 126.123-6.05469L126.123-55.6152Q126.123-57.1777 124.976-58.3252Q123.828-59.4727 122.266-59.4727Q120.654-59.4727 119.507-58.3252Q118.359-57.1777 118.359-55.6152L118.359-19.7266Q118.359-18.0664 117.725-17.1143Q117.09-16.1621 115.771-15.918L107.959-14.209Q100.391-12.6953 96.7285-8.8623Q93.0664-5.0293 93.0664 0.78125Z"/>
  </g>
  <g id="Regular-M" transform="matrix(1 0 0 1 1381.19 1126)">
   <path d="M12.4512 0.634766Q12.4512 4.39453 14.2334 7.27539Q16.0156 10.1562 19.165 11.7676Q22.3145 13.3789 26.3672 13.3789Q29.1016 13.3789 32.2021 12.3047Q35.3027 11.2305 38.0615 8.93555Q40.8203 6.64062 42.5781 2.88086Q44.3359-0.878906 44.3359-6.20117L44.3359-55.7617Q44.3359-57.0801 43.3838-58.0566Q42.4316-59.0332 41.0645-59.0332Q39.6973-59.0332 38.7207-58.0566Q37.7441-57.0801 37.7441-55.7617L37.7441-19.873Q37.7441-18.0664 37.0117-16.9189Q36.2793-15.7715 34.668-15.4785L26.9043-13.8672Q19.5312-12.3047 15.9912-8.61816Q12.4512-4.93164 12.4512 0.634766ZM56.7871-24.2676Q56.7871-20.5078 58.5693-17.6514Q60.3516-14.7949 63.501-13.1592Q66.6504-11.5234 70.7031-11.5234Q73.3887-11.5234 76.5137-12.5977Q79.6387-13.6719 82.3975-15.9912Q85.1562-18.3105 86.9141-22.0459Q88.6719-25.7812 88.6719-31.1523L88.6719-80.6641Q88.6719-82.0312 87.7197-82.9834Q86.7676-83.9355 85.4004-83.9355Q84.0332-83.9355 83.0566-82.9834Q82.0801-82.0312 82.0801-80.6641L82.0801-44.7754Q82.0801-42.9688 81.3477-41.8457Q80.6152-40.7227 79.0039-40.3809L71.2402-38.7695Q63.8184-37.207 60.3027-33.5449Q56.7871-29.8828 56.7871-24.2676ZM92.9688 0.634766Q92.9688 4.39453 94.751 7.27539Q96.5332 10.1562 99.6582 11.7676Q102.783 13.3789 106.885 13.3789Q109.57 13.3789 112.671 12.3291Q115.771 11.2793 118.555 8.95996Q121.338 6.64062 123.096 2.90527Q124.854-0.830078 124.854-6.20117L124.854-55.7617Q124.854-57.0801 123.877-58.0566Q122.9-59.0332 121.582-59.0332Q120.215-59.0332 119.238-58.0566Q118.262-57.0801 118.262-55.7617L118.262-19.873Q118.262-18.0664 117.505-16.9189Q116.748-15.7715 115.186-15.4785L107.373-13.8184Q100-12.3047 96.4844-8.61816Q92.9688-4.93164 92.9688 0.634766Z"/>
  </g>
  <g id="Light-M" transform="matrix(1 0 0 1 1085.29 1126)">
   <path d="M12.4512 0.634766Q12.4512 4.24805 14.1602 7.00684Q15.8691 9.76562 18.9209 11.3281Q21.9727 12.8906 25.8789 12.8906Q28.5645 12.8906 31.5674 11.8408Q34.5703 10.791 37.2559 8.56934Q39.9414 6.34766 41.6504 2.68555Q43.3594-0.976562 43.3594-6.20117L43.3594-55.7617Q43.3594-56.8848 42.5537-57.7148Q41.748-58.5449 40.5762-58.5449Q39.4043-58.5449 38.5742-57.7148Q37.7441-56.8848 37.7441-55.7617L37.7441-19.873Q37.7441-17.8711 36.8896-16.6016Q36.0352-15.332 34.2773-14.9902L26.5137-13.3789Q19.3359-11.8652 15.8936-8.3252Q12.4512-4.78516 12.4512 0.634766ZM56.1035-24.2676Q56.1035-20.6543 57.8369-17.8955Q59.5703-15.1367 62.5977-13.5742Q65.625-12.0117 69.5312-12.0117Q72.2168-12.0117 75.2441-13.0371Q78.2715-14.0625 80.957-16.333Q83.6426-18.6035 85.3271-22.2412Q87.0117-25.8789 87.0117-31.1523L87.0117-80.6641Q87.0117-81.7871 86.2061-82.5928Q85.4004-83.3984 84.2285-83.3984Q83.1055-83.3984 82.251-82.5928Q81.3965-81.7871 81.3965-80.6641L81.3965-44.7754Q81.3965-42.7734 80.542-41.5039Q79.6875-40.2344 77.9297-39.8438L70.166-38.2324Q62.9883-36.7676 59.5459-33.252Q56.1035-29.7363 56.1035-24.2676ZM92.334 0.634766Q92.334 4.29688 94.043 7.05566Q95.752 9.81445 98.7793 11.3525Q101.807 12.8906 105.713 12.8906Q108.398 12.8906 111.401 11.8896Q114.404 10.8887 117.114 8.61816Q119.824 6.34766 121.533 2.70996Q123.242-0.927734 123.242-6.20117L123.242-55.7617Q123.242-56.8848 122.412-57.6904Q121.582-58.4961 120.41-58.4961Q119.287-58.4961 118.457-57.6904Q117.627-56.8848 117.627-55.7617L117.627-19.8242Q117.627-17.8711 116.748-16.5771Q115.869-15.2832 114.16-14.9414L106.348-13.2812Q99.1699-11.8164 95.752-8.30078Q92.334-4.78516 92.334 0.634766Z"/>
  </g>
  <g id="Thin-M" transform="matrix(1 0 0 1 789.674 1126)">
   <path d="M12.4512 0.634766Q12.4512 4.10156 14.0869 6.68945Q15.7227 9.27734 18.6035 10.7422Q21.4844 12.207 25.1953 12.207Q27.832 12.207 30.7373 11.2305Q33.6426 10.2539 36.2305 8.10547Q38.8184 5.95703 40.4297 2.41699Q42.041-1.12305 42.041-6.20117L42.041-55.7617Q42.041-56.6406 41.4307-57.251Q40.8203-57.8613 39.9414-57.8613Q39.0625-57.8613 38.4033-57.251Q37.7441-56.6406 37.7441-55.7617L37.7441-19.873Q37.7441-17.627 36.7188-16.1621Q35.6934-14.6973 33.7402-14.3066L25.9766-12.6953Q19.0918-11.2305 15.7715-7.93457Q12.4512-4.63867 12.4512 0.634766ZM55.2246-24.2188Q55.2246-20.8008 56.8604-18.2129Q58.4961-15.625 61.377-14.1357Q64.2578-12.6465 68.0176-12.6465Q70.6055-12.6465 73.5352-13.623Q76.4648-14.5996 79.0283-16.7725Q81.5918-18.9453 83.2275-22.4609Q84.8633-25.9766 84.8633-31.1035L84.8633-80.6152Q84.8633-81.4941 84.2285-82.1289Q83.5938-82.7637 82.7148-82.7637Q81.8359-82.7637 81.1768-82.1289Q80.5176-81.4941 80.5176-80.6152L80.5176-44.7266Q80.5176-42.4805 79.5166-41.04Q78.5156-39.5996 76.5625-39.209L68.7988-37.5977Q61.8652-36.1328 58.5449-32.8369Q55.2246-29.541 55.2246-24.2188ZM91.4551 0.683594Q91.4551 4.10156 93.0908 6.71387Q94.7266 9.32617 97.583 10.8154Q100.439 12.3047 104.199 12.3047Q106.836 12.3047 109.741 11.3281Q112.646 10.3516 115.21 8.1543Q117.773 5.95703 119.409 2.44141Q121.045-1.07422 121.045-6.15234L121.045-55.7129Q121.045-56.5918 120.435-57.2266Q119.824-57.8613 118.896-57.8613Q118.018-57.8613 117.383-57.2266Q116.748-56.5918 116.748-55.7129L116.748-19.8242Q116.748-17.5781 115.723-16.1133Q114.697-14.6484 112.744-14.3066L104.932-12.6465Q98.0957-11.2305 94.7754-7.91016Q91.4551-4.58984 91.4551 0.683594Z"/>
  </g>
  <g id="Ultralight-M" transform="matrix(1 0 0 1 493.5 1126)">
   <path d="M12.4512 0.634766Q12.4512 4.00391 14.0381 6.51855Q15.625 9.0332 18.4326 10.4492Q21.2402 11.8652 24.8535 11.8652Q27.4902 11.8652 30.3223 10.9131Q33.1543 9.96094 35.6934 7.83691Q38.2324 5.71289 39.8193 2.24609Q41.4062-1.2207 41.4062-6.20117L41.4062-55.7617Q41.4062-56.4941 40.8691-57.0068Q40.332-57.5195 39.5996-57.5195Q38.8672-57.5195 38.3057-57.0068Q37.7441-56.4941 37.7441-55.7617L37.7441-19.873Q37.7441-17.4805 36.6455-15.9424Q35.5469-14.4043 33.4961-13.9648L25.7324-12.3535Q18.9941-10.9375 15.7227-7.73926Q12.4512-4.54102 12.4512 0.634766ZM54.7852-24.2188Q54.7852-20.8984 56.3721-18.3594Q57.959-15.8203 60.7666-14.4043Q63.5742-12.9883 67.2363-12.9883Q69.8242-12.9883 72.6807-13.9404Q75.5371-14.8926 78.0518-17.0166Q80.5664-19.1406 82.1533-22.6074Q83.7402-26.0742 83.7402-31.1035L83.7402-80.6152Q83.7402-81.3477 83.2031-81.8604Q82.666-82.373 81.9336-82.373Q81.2012-82.373 80.6396-81.8604Q80.0781-81.3477 80.0781-80.6152L80.0781-44.7266Q80.0781-42.334 78.9795-40.7959Q77.8809-39.2578 75.8301-38.8184L68.0664-37.207Q61.3281-35.8398 58.0566-32.6416Q54.7852-29.4434 54.7852-24.2188ZM91.0156 0.683594Q91.0156 4.05273 92.6025 6.5918Q94.1895 9.13086 96.9971 10.5469Q99.8047 11.9629 103.418 11.9629Q106.006 11.9629 108.862 11.0107Q111.719 10.0586 114.233 7.91016Q116.748 5.76172 118.359 2.29492Q119.971-1.17188 119.971-6.15234L119.971-55.7129Q119.971-56.4453 119.434-56.958Q118.896-57.4707 118.115-57.4707Q117.383-57.4707 116.846-56.958Q116.309-56.4453 116.309-55.7129L116.309-19.7754Q116.309-17.4316 115.21-15.8691Q114.111-14.3066 112.061-13.916L104.248-12.2559Q97.5586-10.8887 94.2871-7.69043Q91.0156-4.49219 91.0156 0.683594Z"/>
  </g>
  <g id="Black-S" transform="matrix(1 0 0 1 2876.64 696)">
   <path d="M9.76562-6.34766Q9.76562-0.830078 13.6475 2.7832Q17.5293 6.39648 23.4375 6.39648Q25.7812 6.39648 28.6865 5.37109Q31.5918 4.3457 34.2285 2.17285Q36.8652 0 38.5742-3.44238Q40.2832-6.88477 40.2832-11.7188L40.2832-50.5371Q40.2832-52.7344 38.7207-54.2969Q37.1582-55.8594 34.9609-55.8594Q32.7637-55.8594 31.1768-54.2969Q29.5898-52.7344 29.5898-50.5371L29.5898-22.4121Q29.5898-21.875 29.5654-21.8018Q29.541-21.7285 29.3945-21.7285L23.291-20.3613Q16.6992-18.9941 13.2324-15.4297Q9.76562-11.8652 9.76562-6.34766ZM44.9219-25.8789Q44.9219-20.3613 48.8037-16.748Q52.6855-13.1348 58.5938-13.1348Q60.9375-13.1348 63.8428-14.1602Q66.748-15.1855 69.3848-17.3584Q72.0215-19.5312 73.7305-22.9736Q75.4395-26.416 75.4395-31.25L75.4395-70.0684Q75.4395-72.2656 73.877-73.8281Q72.3145-75.3906 70.1172-75.3906Q67.9199-75.3906 66.333-73.8281Q64.7461-72.2656 64.7461-70.0684L64.7461-41.9434Q64.7461-41.4062 64.7217-41.333Q64.6973-41.2598 64.5508-41.2598L58.4473-39.8926Q51.8555-38.5254 48.3887-34.9609Q44.9219-31.3965 44.9219-25.8789ZM73.2422-6.34766Q73.2422-0.830078 77.124 2.7832Q81.0059 6.39648 86.9141 6.39648Q89.2578 6.39648 92.1631 5.37109Q95.0684 4.3457 97.7051 2.17285Q100.342 0 102.051-3.44238Q103.76-6.88477 103.76-11.7188L103.76-50.5371Q103.76-52.7344 102.197-54.2969Q100.635-55.8594 98.4375-55.8594Q96.2402-55.8594 94.6533-54.2969Q93.0664-52.7344 93.0664-50.5371L93.0664-22.4121Q93.0664-21.875 93.042-21.8018Q93.0176-21.7285 92.8711-21.7285L86.7676-20.3613Q80.1758-18.9941 76.709-15.4297Q73.2422-11.8652 73.2422-6.34766Z"/>
  </g>
  <g id="Heavy-S" transform="matrix(1 0 0 1 2580.54 696)">
   <path d="M9.76562-6.54297Q9.76562-1.26953 13.4766 2.17285Q17.1875 5.61523 22.8516 5.61523Q25.1465 5.61523 27.9541 4.63867Q30.7617 3.66211 33.3008 1.5625Q35.8398-0.537109 37.4756-3.88184Q39.1113-7.22656 39.1113-11.9141L39.1113-50.7324Q39.1113-52.6855 37.7197-54.0771Q36.3281-55.4688 34.375-55.4688Q32.4219-55.4688 31.0059-54.0771Q29.5898-52.6855 29.5898-50.7324L29.5898-22.6074Q29.5898-21.875 29.4434-21.6309Q29.2969-21.3867 28.9062-21.3379L22.8027-19.9707Q16.4062-18.6523 13.0859-15.2344Q9.76562-11.8164 9.76562-6.54297ZM44.9219-26.0742Q44.9219-20.8008 48.6084-17.3584Q52.2949-13.916 57.959-13.916Q60.2539-13.916 63.0615-14.8926Q65.8691-15.8691 68.4082-17.9688Q70.9473-20.0684 72.583-23.4131Q74.2188-26.7578 74.2188-31.4453L74.2188-70.2637Q74.2188-72.2168 72.8271-73.6084Q71.4355-75 69.4824-75Q67.5293-75 66.1377-73.6084Q64.7461-72.2168 64.7461-70.2637L64.7461-42.1387Q64.7461-41.4062 64.5996-41.1621Q64.4531-40.918 64.0625-40.8691L57.959-39.502Q51.5137-38.1836 48.2178-34.7656Q44.9219-31.3477 44.9219-26.0742ZM73.2422-6.54297Q73.2422-1.26953 76.9287 2.17285Q80.6152 5.61523 86.2793 5.61523Q88.5742 5.61523 91.3818 4.63867Q94.1895 3.66211 96.7285 1.5625Q99.2676-0.537109 100.903-3.88184Q102.539-7.22656 102.539-11.9141L102.539-50.7324Q102.539-52.6855 101.147-54.0771Q99.7559-55.4688 97.8027-55.4688Q95.8496-55.4688 94.458-54.0771Q93.0664-52.6855 93.0664-50.7324L93.0664-22.6074Q93.0664-21.875 92.9199-21.6309Q92.7734-21.3867 92.3828-21.3379L86.2793-19.9707Q79.834-18.6523 76.5381-15.2344Q73.2422-11.8164 73.2422-6.54297Z"/>
  </g>
  <g id="Bold-S" transform="matrix(1 0 0 1 2284.48 696)">
   <path d="M9.76562-6.73828Q9.76562-1.75781 13.2812 1.48926Q16.7969 4.73633 22.168 4.73633Q24.4141 4.73633 27.124 3.80859Q29.834 2.88086 32.251 0.854492Q34.668-1.17188 36.2305-4.37012Q37.793-7.56836 37.793-12.1094L37.793-50.9277Q37.793-52.5879 36.5967-53.7842Q35.4004-54.9805 33.6914-54.9805Q32.0312-54.9805 30.8105-53.7842Q29.5898-52.5879 29.5898-50.9277L29.5898-22.8027Q29.5898-21.875 29.3213-21.4355Q29.0527-20.9961 28.418-20.8496L22.3145-19.5312Q16.0645-18.2617 12.915-14.9902Q9.76562-11.7188 9.76562-6.73828ZM44.873-26.2695Q44.873-21.2891 48.3887-18.042Q51.9043-14.7949 57.2754-14.7949Q59.5215-14.7949 62.207-15.7227Q64.8926-16.6504 67.334-18.6768Q69.7754-20.7031 71.3379-23.9014Q72.9004-27.0996 72.9004-31.6406L72.9004-70.459Q72.9004-72.1191 71.7041-73.3154Q70.5078-74.5117 68.7988-74.5117Q67.1387-74.5117 65.918-73.3154Q64.6973-72.1191 64.6973-70.459L64.6973-42.334Q64.6973-41.4062 64.4287-40.9668Q64.1602-40.5273 63.5254-40.3809L57.4219-39.0625Q51.1719-37.793 48.0225-34.5215Q44.873-31.25 44.873-26.2695ZM73.1934-6.73828Q73.1934-1.75781 76.709 1.48926Q80.2246 4.73633 85.5957 4.73633Q87.8418 4.73633 90.5273 3.80859Q93.2129 2.88086 95.6543 0.854492Q98.0957-1.17188 99.6582-4.37012Q101.221-7.56836 101.221-12.1094L101.221-50.9277Q101.221-52.5879 100.024-53.7842Q98.8281-54.9805 97.1191-54.9805Q95.459-54.9805 94.2383-53.7842Q93.0176-52.5879 93.0176-50.9277L93.0176-22.8027Q93.0176-21.875 92.749-21.4355Q92.4805-20.9961 91.8457-20.8496L85.7422-19.5312Q79.4922-18.2617 76.3428-14.9902Q73.1934-11.7188 73.1934-6.73828Z"/>
  </g>
  <g id="Semibold-S" transform="matrix(1 0 0 1 1988.26 696)">
   <path d="M9.76562-6.88477Q9.76562-2.05078 13.1592 1.0498Q16.5527 4.15039 21.7285 4.15039Q23.9258 4.15039 26.5381 3.24707Q29.1504 2.34375 31.4941 0.390625Q33.8379-1.5625 35.3516-4.6875Q36.8652-7.8125 36.8652-12.2559L36.8652-51.0742Q36.8652-52.5391 35.791-53.5889Q34.7168-54.6387 33.252-54.6387Q31.7383-54.6387 30.6641-53.5889Q29.5898-52.5391 29.5898-51.0742L29.5898-22.9492Q29.5898-21.875 29.2236-21.2891Q28.8574-20.7031 28.0273-20.5078L21.9238-19.2383Q15.8203-17.9688 12.793-14.8193Q9.76562-11.6699 9.76562-6.88477ZM44.873-26.416Q44.873-21.582 48.2178-18.4814Q51.5625-15.3809 56.7871-15.3809Q58.9844-15.3809 61.5967-16.2842Q64.209-17.1875 66.5771-19.1406Q68.9453-21.0938 70.4346-24.2188Q71.9238-27.3438 71.9238-31.7871L71.9238-70.6055Q71.9238-72.0703 70.874-73.1201Q69.8242-74.1699 68.3105-74.1699Q66.7969-74.1699 65.7471-73.1201Q64.6973-72.0703 64.6973-70.6055L64.6973-42.4805Q64.6973-41.4062 64.3066-40.8203Q63.916-40.2344 63.1348-40.0391L57.0312-38.7695Q50.8789-37.5 47.876-34.3506Q44.873-31.2012 44.873-26.416ZM73.1934-6.88477Q73.1934-2.05078 76.5381 1.0498Q79.8828 4.15039 85.1074 4.15039Q87.3047 4.15039 89.917 3.24707Q92.5293 2.34375 94.8975 0.390625Q97.2656-1.5625 98.7549-4.6875Q100.244-7.8125 100.244-12.2559L100.244-51.0742Q100.244-52.5391 99.1943-53.5889Q98.1445-54.6387 96.6309-54.6387Q95.1172-54.6387 94.0674-53.5889Q93.0176-52.5391 93.0176-51.0742L93.0176-22.9492Q93.0176-21.875 92.627-21.2891Q92.2363-20.7031 91.4551-20.5078L85.3516-19.2383Q79.1992-17.9688 76.1963-14.8193Q73.1934-11.6699 73.1934-6.88477Z"/>
  </g>
  <g id="Medium-S" transform="matrix(1 0 0 1 1691.89 696)">
   <path d="M9.76562-6.98242Q9.76562-2.29492 13.0371 0.683594Q16.3086 3.66211 21.3379 3.66211Q23.5352 3.66211 26.0986 2.80762Q28.6621 1.95312 30.9326 0.0244141Q33.2031-1.9043 34.6924-4.95605Q36.1816-8.00781 36.1816-12.3535L36.1816-51.1719Q36.1816-52.4902 35.2051-53.4424Q34.2285-54.3945 32.8613-54.3945Q31.543-54.3945 30.5664-53.4424Q29.5898-52.4902 29.5898-51.1719L29.5898-23.0469Q29.5898-21.875 29.1748-21.1914Q28.7598-20.5078 27.7344-20.2637L21.6309-18.9941Q15.625-17.7734 12.6953-14.6973Q9.76562-11.6211 9.76562-6.98242ZM44.8242-26.5137Q44.8242-21.8262 48.0957-18.8477Q51.3672-15.8691 56.4453-15.8691Q58.5938-15.8691 61.1572-16.7236Q63.7207-17.5781 66.0156-19.5068Q68.3105-21.4355 69.7754-24.4873Q71.2402-27.5391 71.2402-31.8848L71.2402-70.7031Q71.2402-72.0215 70.2637-72.9736Q69.2871-73.9258 67.9688-73.9258Q66.6016-73.9258 65.625-72.9736Q64.6484-72.0215 64.6484-70.7031L64.6484-42.5781Q64.6484-41.4062 64.209-40.7227Q63.7695-40.0391 62.8418-39.7949L56.7383-38.5254Q50.6836-37.3047 47.7539-34.2285Q44.8242-31.1523 44.8242-26.5137ZM73.1445-6.98242Q73.1445-2.29492 76.416 0.683594Q79.6875 3.66211 84.7656 3.66211Q86.9141 3.66211 89.4775 2.80762Q92.041 1.95312 94.3359 0.0244141Q96.6309-1.9043 98.0957-4.95605Q99.5605-8.00781 99.5605-12.3535L99.5605-51.1719Q99.5605-52.4902 98.584-53.4424Q97.6074-54.3945 96.2891-54.3945Q94.9219-54.3945 93.9453-53.4424Q92.9688-52.4902 92.9688-51.1719L92.9688-23.0469Q92.9688-21.875 92.5293-21.1914Q92.0898-20.5078 91.1621-20.2637L85.0586-18.9941Q79.0039-17.7734 76.0742-14.6973Q73.1445-11.6211 73.1445-6.98242Z"/>
  </g>
  <g id="Regular-S" transform="matrix(1 0 0 1 1395.65 696)">
   <path d="M9.76562-7.12891Q9.76562-2.63672 12.915 0.219727Q16.0645 3.07617 20.8984 3.07617Q23.0469 3.07617 25.5371 2.24609Q28.0273 1.41602 30.2246-0.439453Q32.4219-2.29492 33.8379-5.27344Q35.2539-8.25195 35.2539-12.5L35.2539-51.3184Q35.2539-52.4414 34.4238-53.2715Q33.5938-54.1016 32.4219-54.1016Q31.25-54.1016 30.4199-53.2715Q29.5898-52.4414 29.5898-51.3184L29.5898-23.1934Q29.5898-21.875 29.0771-21.0449Q28.5645-20.2148 27.3926-19.9707L21.2891-18.7012Q15.3809-17.4805 12.5732-14.5264Q9.76562-11.5723 9.76562-7.12891ZM44.8242-26.6602Q44.8242-22.168 47.9492-19.3115Q51.0742-16.4551 55.957-16.4551Q58.1055-16.4551 60.5713-17.2852Q63.0371-18.1152 65.2588-19.9707Q67.4805-21.8262 68.8965-24.8047Q70.3125-27.7832 70.3125-32.0312L70.3125-70.8496Q70.3125-71.9727 69.4824-72.8027Q68.6523-73.6328 67.4805-73.6328Q66.3086-73.6328 65.4785-72.8027Q64.6484-71.9727 64.6484-70.8496L64.6484-42.7246Q64.6484-41.4062 64.1113-40.5762Q63.5742-39.7461 62.4512-39.502L56.3477-38.2324Q50.4395-37.0117 47.6318-34.0576Q44.8242-31.1035 44.8242-26.6602ZM73.1445-7.12891Q73.1445-2.63672 76.2695 0.219727Q79.3945 3.07617 84.2773 3.07617Q86.4258 3.07617 88.8916 2.24609Q91.3574 1.41602 93.5791-0.439453Q95.8008-2.29492 97.2168-5.27344Q98.6328-8.25195 98.6328-12.5L98.6328-51.3184Q98.6328-52.4414 97.8027-53.2715Q96.9727-54.1016 95.8008-54.1016Q94.6289-54.1016 93.7988-53.2715Q92.9688-52.4414 92.9688-51.3184L92.9688-23.1934Q92.9688-21.875 92.4316-21.0449Q91.8945-20.2148 90.7715-19.9707L84.668-18.7012Q78.7598-17.4805 75.9521-14.5264Q73.1445-11.5723 73.1445-7.12891Z"/>
  </g>
  <g id="Light-S" transform="matrix(1 0 0 1 1099.67 696)">
   <path d="M9.76562-7.12891Q9.76562-2.83203 12.7686-0.0976562Q15.7715 2.63672 20.459 2.63672Q22.5586 2.63672 24.9756 1.83105Q27.3926 1.02539 29.5166-0.756836Q31.6406-2.53906 33.0078-5.44434Q34.375-8.34961 34.375-12.5L34.375-51.3184Q34.375-52.2949 33.667-52.9785Q32.959-53.6621 31.9824-53.6621Q31.0059-53.6621 30.2979-52.9785Q29.5898-52.2949 29.5898-51.3184L29.5898-23.1934Q29.5898-21.6797 28.9795-20.752Q28.3691-19.8242 27.0508-19.5312L20.9473-18.2617Q15.2344-17.0898 12.5-14.2822Q9.76562-11.4746 9.76562-7.12891ZM44.2383-26.6602Q44.2383-22.3145 47.2412-19.6045Q50.2441-16.8945 54.9316-16.8945Q57.0312-16.8945 59.4482-17.6758Q61.8652-18.457 63.9893-20.2637Q66.1133-22.0703 67.4805-24.9756Q68.8477-27.8809 68.8477-32.0312L68.8477-70.8496Q68.8477-71.7773 68.1396-72.4854Q67.4316-73.1934 66.4551-73.1934Q65.4785-73.1934 64.7705-72.4854Q64.0625-71.7773 64.0625-70.8496L64.0625-42.7246Q64.0625-41.2109 63.4277-40.2588Q62.793-39.3066 61.5234-39.0625L55.4199-37.793Q49.707-36.6211 46.9727-33.7891Q44.2383-30.957 44.2383-26.6602ZM72.5586-7.12891Q72.5586-2.7832 75.5615-0.0732422Q78.5645 2.63672 83.3008 2.63672Q85.4004 2.63672 87.793 1.85547Q90.1855 1.07422 92.3096-0.732422Q94.4336-2.53906 95.8008-5.44434Q97.168-8.34961 97.168-12.5L97.168-51.3184Q97.168-52.2461 96.4844-52.9541Q95.8008-53.6621 94.8242-53.6621Q93.7988-53.6621 93.0908-52.9541Q92.3828-52.2461 92.3828-51.3184L92.3828-23.1934Q92.3828-21.6797 91.748-20.7275Q91.1133-19.7754 89.8438-19.5312L83.7402-18.2617Q78.0273-17.0898 75.293-14.2578Q72.5586-11.4258 72.5586-7.12891Z"/>
  </g>
  <g id="Thin-S" transform="matrix(1 0 0 1 803.908 696)">
   <path d="M9.76562-7.12891Q9.76562-3.07617 12.5977-0.512695Q15.4297 2.05078 19.873 2.05078Q21.9727 2.05078 24.2676 1.29395Q26.5625 0.537109 28.5889-1.17188Q30.6152-2.88086 31.9092-5.68848Q33.2031-8.49609 33.2031-12.5L33.2031-51.3184Q33.2031-52.0508 32.666-52.5635Q32.1289-53.0762 31.3965-53.0762Q30.6641-53.0762 30.127-52.5635Q29.5898-52.0508 29.5898-51.3184L29.5898-23.1934Q29.5898-21.4355 28.833-20.3613Q28.0762-19.2871 26.5625-18.9453L20.459-17.6758Q15.0391-16.5527 12.4023-13.916Q9.76562-11.2793 9.76562-7.12891ZM43.457-26.6113Q43.457-22.5586 46.2891-19.9951Q49.1211-17.4316 53.6133-17.4316Q55.6641-17.4316 57.959-18.1885Q60.2539-18.9453 62.2803-20.6787Q64.3066-22.4121 65.6006-25.1953Q66.8945-27.9785 66.8945-31.9824L66.8945-70.8008Q66.8945-71.5332 66.3574-72.0459Q65.8203-72.5586 65.1367-72.5586Q64.3555-72.5586 63.8184-72.0459Q63.2812-71.5332 63.2812-70.8008L63.2812-42.6758Q63.2812-40.9668 62.5244-39.8682Q61.7676-38.7695 60.2539-38.4277L54.1504-37.1582Q48.7305-36.084 46.0938-33.4473Q43.457-30.8105 43.457-26.6113ZM71.8262-7.08008Q71.8262-3.02734 74.6338-0.463867Q77.4414 2.09961 81.9336 2.09961Q83.9844 2.09961 86.3037 1.34277Q88.623 0.585938 90.6494-1.14746Q92.6758-2.88086 93.9697-5.66406Q95.2637-8.44727 95.2637-12.4512L95.2637-51.2695Q95.2637-52.002 94.7266-52.5146Q94.1895-53.0273 93.457-53.0273Q92.7246-53.0273 92.1875-52.5146Q91.6504-52.002 91.6504-51.2695L91.6504-23.1445Q91.6504-21.4355 90.8691-20.3369Q90.0879-19.2383 88.623-18.8965L82.5195-17.627Q77.0508-16.5527 74.4385-13.916Q71.8262-11.2793 71.8262-7.08008Z"/>
  </g>
  <g id="Ultralight-S" transform="matrix(1 0 0 1 507.685 696)">
   <path d="M9.76562-7.12891Q9.76562-3.17383 12.5-0.708008Q15.2344 1.75781 19.5801 1.75781Q21.6309 1.75781 23.877 1.02539Q26.123 0.292969 28.125-1.3916Q30.127-3.07617 31.3721-5.83496Q32.6172-8.59375 32.6172-12.5L32.6172-51.3184Q32.6172-51.9531 32.1777-52.3682Q31.7383-52.7832 31.1035-52.7832Q30.5176-52.7832 30.0537-52.3682Q29.5898-51.9531 29.5898-51.3184L29.5898-23.1934Q29.5898-21.3379 28.7598-20.166Q27.9297-18.9941 26.3184-18.6523L20.2148-17.3828Q14.9414-16.3086 12.3535-13.7695Q9.76562-11.2305 9.76562-7.12891ZM43.0664-26.6113Q43.0664-22.6562 45.8008-20.1904Q48.5352-17.7246 52.9297-17.7246Q54.9316-17.7246 57.2021-18.457Q59.4727-19.1895 61.4258-20.874Q63.3789-22.5586 64.6484-25.293Q65.918-28.0273 65.918-31.9824L65.918-70.8008Q65.918-71.4355 65.4785-71.8506Q65.0391-72.2656 64.4531-72.2656Q63.8184-72.2656 63.3545-71.8506Q62.8906-71.4355 62.8906-70.8008L62.8906-42.6758Q62.8906-40.8203 62.0605-39.6484Q61.2305-38.4766 59.6191-38.1348L53.5156-36.8652Q48.1934-35.791 45.6299-33.252Q43.0664-30.7129 43.0664-26.6113ZM71.4355-7.08008Q71.4355-3.125 74.1699-0.65918Q76.9043 1.80664 81.2988 1.80664Q83.3008 1.80664 85.5469 1.07422Q87.793 0.341797 89.7705-1.34277Q91.748-3.02734 93.0176-5.76172Q94.2871-8.49609 94.2871-12.4512L94.2871-51.2695Q94.2871-51.9043 93.8477-52.3193Q93.4082-52.7344 92.8223-52.7344Q92.1875-52.7344 91.7236-52.3193Q91.2598-51.9043 91.2598-51.2695L91.2598-23.1445Q91.2598-21.2891 90.4297-20.1172Q89.5996-18.9453 87.9883-18.6035L81.8848-17.334Q76.5625-16.2598 73.999-13.7207Q71.4355-11.1816 71.4355-7.08008Z"/>
  </g>
 </g>
</svg>
