<?xml version="1.0" encoding="UTF-8"?>
<!--Generator: Apple Native CoreSVG 175-->
<!DOCTYPE svg
PUBLIC "-//W3C//DTD SVG 1.1//EN"
       "http://www.w3.org/Graphics/SVG/1.1/DTD/svg11.dtd">
<svg version="1.1" xmlns="http://www.w3.org/2000/svg" xmlns:xlink="http://www.w3.org/1999/xlink" width="3300" height="2200">
 <!--glyph: "uni100AAB.medium", point size: 100.0, font version: "17.0d11e1", template writer version: "65.1"-->
 <g id="Notes">
  <rect height="2200" id="artboard" style="fill:white;opacity:1" width="3300" x="0" y="0"/>
  <line style="fill:none;stroke:black;opacity:1;stroke-width:0.5;" x1="263" x2="3036" y1="292" y2="292"/>
  <text style="stroke:none;fill:black;font-family:sans-serif;font-size:13;font-weight:bold;" transform="matrix(1 0 0 1 263 322)">Weight/Scale Variations</text>
  <text style="stroke:none;fill:black;font-family:sans-serif;font-size:13;text-anchor:middle;" transform="matrix(1 0 0 1 559.711 322)">Ultralight</text>
  <text style="stroke:none;fill:black;font-family:sans-serif;font-size:13;text-anchor:middle;" transform="matrix(1 0 0 1 856.422 322)">Thin</text>
  <text style="stroke:none;fill:black;font-family:sans-serif;font-size:13;text-anchor:middle;" transform="matrix(1 0 0 1 1153.13 322)">Light</text>
  <text style="stroke:none;fill:black;font-family:sans-serif;font-size:13;text-anchor:middle;" transform="matrix(1 0 0 1 1449.84 322)">Regular</text>
  <text style="stroke:none;fill:black;font-family:sans-serif;font-size:13;text-anchor:middle;" transform="matrix(1 0 0 1 1746.56 322)">Medium</text>
  <text style="stroke:none;fill:black;font-family:sans-serif;font-size:13;text-anchor:middle;" transform="matrix(1 0 0 1 2043.27 322)">Semibold</text>
  <text style="stroke:none;fill:black;font-family:sans-serif;font-size:13;text-anchor:middle;" transform="matrix(1 0 0 1 2339.98 322)">Bold</text>
  <text style="stroke:none;fill:black;font-family:sans-serif;font-size:13;text-anchor:middle;" transform="matrix(1 0 0 1 2636.69 322)">Heavy</text>
  <text style="stroke:none;fill:black;font-family:sans-serif;font-size:13;text-anchor:middle;" transform="matrix(1 0 0 1 2933.4 322)">Black</text>
  <line style="fill:none;stroke:black;opacity:1;stroke-width:0.5;" x1="263" x2="3036" y1="1903" y2="1903"/>
  <g transform="matrix(1 0 0 1 263 1933)">
   <path d="M9.24805 0.830078Q10.8691 0.830078 12.2949 0.214844Q13.7207-0.400391 14.8096-1.49414Q15.8984-2.58789 16.5186-4.01367Q17.1387-5.43945 17.1387-7.05078Q17.1387-8.66211 16.5186-10.0879Q15.8984-11.5137 14.8047-12.6074Q13.7109-13.7012 12.2852-14.3164Q10.8594-14.9316 9.23828-14.9316Q7.62695-14.9316 6.20117-14.3164Q4.77539-13.7012 3.69141-12.6074Q2.60742-11.5137 1.9873-10.0879Q1.36719-8.66211 1.36719-7.05078Q1.36719-5.43945 1.9873-4.01367Q2.60742-2.58789 3.69629-1.49414Q4.78516-0.400391 6.21094 0.214844Q7.63672 0.830078 9.24805 0.830078ZM9.24805-0.654297Q7.91992-0.654297 6.7627-1.14746Q5.60547-1.64062 4.73145-2.51953Q3.85742-3.39844 3.36426-4.56055Q2.87109-5.72266 2.87109-7.05078Q2.87109-8.37891 3.35938-9.54102Q3.84766-10.7031 4.72168-11.582Q5.5957-12.4609 6.75293-12.9541Q7.91016-13.4473 9.23828-13.4473Q10.5762-13.4473 11.7334-12.9541Q12.8906-12.4609 13.7695-11.582Q14.6484-10.7031 15.1465-9.54102Q15.6445-8.37891 15.6445-7.05078Q15.6445-5.72266 15.1514-4.56055Q14.6582-3.39844 13.7842-2.51953Q12.9102-1.64062 11.748-1.14746Q10.5859-0.654297 9.24805-0.654297ZM5.6543-7.05078Q5.6543-6.72852 5.85938-6.52832Q6.06445-6.32812 6.40625-6.32812L8.51562-6.32812L8.51562-4.20898Q8.51562-3.88672 8.71094-3.67676Q8.90625-3.4668 9.23828-3.4668Q9.56055-3.4668 9.77051-3.67676Q9.98047-3.88672 9.98047-4.20898L9.98047-6.32812L12.0898-6.32812Q12.4219-6.32812 12.627-6.52832Q12.832-6.72852 12.832-7.05078Q12.832-7.38281 12.627-7.58789Q12.4219-7.79297 12.0898-7.79297L9.98047-7.79297L9.98047-9.90234Q9.98047-10.2344 9.77051-10.4443Q9.56055-10.6543 9.23828-10.6543Q8.90625-10.6543 8.71094-10.4443Q8.51562-10.2344 8.51562-9.90234L8.51562-7.79297L6.40625-7.79297Q6.06445-7.79297 5.85938-7.58789Q5.6543-7.38281 5.6543-7.05078Z"/>
  </g>
  <g transform="matrix(1 0 0 1 281.867 1933)">
   <path d="M11.709 2.91016Q13.75 2.91016 15.5518 2.12891Q17.3535 1.34766 18.7305-0.0292969Q20.1074-1.40625 20.8887-3.20801Q21.6699-5.00977 21.6699-7.05078Q21.6699-9.0918 20.8887-10.8936Q20.1074-12.6953 18.7305-14.0723Q17.3535-15.4492 15.5469-16.2305Q13.7402-17.0117 11.6992-17.0117Q9.6582-17.0117 7.85645-16.2305Q6.05469-15.4492 4.68262-14.0723Q3.31055-12.6953 2.5293-10.8936Q1.74805-9.0918 1.74805-7.05078Q1.74805-5.00977 2.5293-3.20801Q3.31055-1.40625 4.6875-0.0292969Q6.06445 1.34766 7.86621 2.12891Q9.66797 2.91016 11.709 2.91016ZM11.709 1.25Q9.98047 1.25 8.47656 0.605469Q6.97266-0.0390625 5.83496-1.17676Q4.69727-2.31445 4.05762-3.81836Q3.41797-5.32227 3.41797-7.05078Q3.41797-8.7793 4.05762-10.2832Q4.69727-11.7871 5.83008-12.9297Q6.96289-14.0723 8.4668-14.7119Q9.9707-15.3516 11.6992-15.3516Q13.4277-15.3516 14.9316-14.7119Q16.4355-14.0723 17.5781-12.9297Q18.7207-11.7871 19.3652-10.2832Q20.0098-8.7793 20.0098-7.05078Q20.0098-5.32227 19.3701-3.81836Q18.7305-2.31445 17.5928-1.17676Q16.4551-0.0390625 14.9463 0.605469Q13.4375 1.25 11.709 1.25ZM7.17773-7.05078Q7.17773-6.69922 7.41211-6.47461Q7.64648-6.25 8.01758-6.25L10.8887-6.25L10.8887-3.36914Q10.8887-2.99805 11.1133-2.76855Q11.3379-2.53906 11.6895-2.53906Q12.0605-2.53906 12.29-2.76855Q12.5195-2.99805 12.5195-3.36914L12.5195-6.25L15.4004-6.25Q15.7715-6.25 16.001-6.47461Q16.2305-6.69922 16.2305-7.05078Q16.2305-7.42188 16.001-7.65137Q15.7715-7.88086 15.4004-7.88086L12.5195-7.88086L12.5195-10.752Q12.5195-11.1328 12.29-11.3623Q12.0605-11.5918 11.6895-11.5918Q11.3379-11.5918 11.1133-11.3574Q10.8887-11.123 10.8887-10.752L10.8887-7.88086L8.01758-7.88086Q7.63672-7.88086 7.40723-7.65137Q7.17773-7.42188 7.17773-7.05078Z"/>
  </g>
  <g transform="matrix(1 0 0 1 305.646 1933)">
   <path d="M14.9707 5.66406Q17.0605 5.66406 18.96 5.01465Q20.8594 4.36523 22.4512 3.19336Q24.043 2.02148 25.2197 0.429688Q26.3965-1.16211 27.0459-3.06641Q27.6953-4.9707 27.6953-7.05078Q27.6953-9.14062 27.0459-11.04Q26.3965-12.9395 25.2197-14.5312Q24.043-16.123 22.4512-17.2998Q20.8594-18.4766 18.9551-19.126Q17.0508-19.7754 14.9609-19.7754Q12.8711-19.7754 10.9717-19.126Q9.07227-18.4766 7.48535-17.2998Q5.89844-16.123 4.72168-14.5312Q3.54492-12.9395 2.90039-11.04Q2.25586-9.14062 2.25586-7.05078Q2.25586-4.9707 2.90527-3.06641Q3.55469-1.16211 4.72656 0.429688Q5.89844 2.02148 7.49023 3.19336Q9.08203 4.36523 10.9814 5.01465Q12.8809 5.66406 14.9707 5.66406ZM14.9707 3.84766Q13.1641 3.84766 11.5283 3.2959Q9.89258 2.74414 8.53516 1.74805Q7.17773 0.751953 6.17676-0.610352Q5.17578-1.97266 4.62891-3.6084Q4.08203-5.24414 4.08203-7.05078Q4.08203-8.86719 4.62891-10.5029Q5.17578-12.1387 6.17188-13.501Q7.16797-14.8633 8.52539-15.8594Q9.88281-16.8555 11.5186-17.4023Q13.1543-17.9492 14.9609-17.9492Q16.7773-17.9492 18.4131-17.4023Q20.0488-16.8555 21.4111-15.8594Q22.7734-14.8633 23.7695-13.501Q24.7656-12.1387 25.3174-10.5029Q25.8691-8.86719 25.8691-7.05078Q25.8789-5.24414 25.332-3.6084Q24.7852-1.97266 23.7842-0.610352Q22.7832 0.751953 21.4209 1.74805Q20.0586 2.74414 18.4229 3.2959Q16.7871 3.84766 14.9707 3.84766ZM9.19922-7.05078Q9.19922-6.66992 9.45801-6.4209Q9.7168-6.17188 10.1172-6.17188L14.0625-6.17188L14.0625-2.2168Q14.0625-1.81641 14.3115-1.55762Q14.5605-1.29883 14.9512-1.29883Q15.3516-1.29883 15.6104-1.55273Q15.8691-1.80664 15.8691-2.2168L15.8691-6.17188L19.8242-6.17188Q20.2246-6.17188 20.4785-6.4209Q20.7324-6.66992 20.7324-7.05078Q20.7324-7.46094 20.4785-7.71484Q20.2246-7.96875 19.8242-7.96875L15.8691-7.96875L15.8691-11.9141Q15.8691-12.3242 15.6104-12.583Q15.3516-12.8418 14.9512-12.8418Q14.5605-12.8418 14.3115-12.583Q14.0625-12.3242 14.0625-11.9141L14.0625-7.96875L10.1172-7.96875Q9.70703-7.96875 9.45312-7.71484Q9.19922-7.46094 9.19922-7.05078Z"/>
  </g>
  <text style="stroke:none;fill:black;font-family:sans-serif;font-size:13;font-weight:bold;" transform="matrix(1 0 0 1 263 1953)">Design Variations</text>
  <text style="stroke:none;fill:black;font-family:sans-serif;font-size:13;" transform="matrix(1 0 0 1 263 1971)">Symbols are supported in up to nine weights and three scales.</text>
  <text style="stroke:none;fill:black;font-family:sans-serif;font-size:13;" transform="matrix(1 0 0 1 263 1989)">For optimal layout with text and other symbols, vertically align</text>
  <text style="stroke:none;fill:black;font-family:sans-serif;font-size:13;" transform="matrix(1 0 0 1 263 2007)">symbols with the adjacent text.</text>
  <line style="fill:none;stroke:#00AEEF;stroke-width:0.5;opacity:1.0;" x1="776" x2="776" y1="1919" y2="1933"/>
  <g transform="matrix(1 0 0 1 776 1933)">
   <path d="M3.31055 0.15625Q3.70117 0.15625 3.91602-0.00976562Q4.13086-0.175781 4.26758-0.585938L5.52734-4.0332L11.2891-4.0332L12.5488-0.585938Q12.6855-0.175781 12.9004-0.00976562Q13.1152 0.15625 13.4961 0.15625Q13.8867 0.15625 14.1162-0.0585938Q14.3457-0.273438 14.3457-0.644531Q14.3457-0.869141 14.2383-1.17188L9.6582-13.3691Q9.48242-13.8184 9.17969-14.043Q8.87695-14.2676 8.4082-14.2676Q7.5-14.2676 7.17773-13.3789L2.59766-1.16211Q2.49023-0.859375 2.49023-0.634766Q2.49023-0.263672 2.70996-0.0537109Q2.92969 0.15625 3.31055 0.15625ZM6.00586-5.51758L8.37891-12.0898L8.42773-12.0898L10.8008-5.51758Z"/>
  </g>
  <line style="fill:none;stroke:#00AEEF;stroke-width:0.5;opacity:1.0;" x1="793.197" x2="793.197" y1="1919" y2="1933"/>
  <text style="stroke:none;fill:black;font-family:sans-serif;font-size:13;font-weight:bold;" transform="matrix(1 0 0 1 776 1953)">Margins</text>
  <text style="stroke:none;fill:black;font-family:sans-serif;font-size:13;" transform="matrix(1 0 0 1 776 1971)">Leading and trailing margins on the left and right side of each symbol</text>
  <text style="stroke:none;fill:black;font-family:sans-serif;font-size:13;" transform="matrix(1 0 0 1 776 1989)">can be adjusted by modifying the x-location of the margin guidelines.</text>
  <text style="stroke:none;fill:black;font-family:sans-serif;font-size:13;" transform="matrix(1 0 0 1 776 2007)">Modifications are automatically applied proportionally to all</text>
  <text style="stroke:none;fill:black;font-family:sans-serif;font-size:13;" transform="matrix(1 0 0 1 776 2025)">scales and weights.</text>
  <g transform="matrix(1 0 0 1 1289 1933)">
   <path d="M2.8418 1.86523L4.54102 3.57422Q5.18555 4.22852 5.90332 4.17969Q6.62109 4.13086 7.31445 3.35938L18.0078-8.42773L17.041-9.4043L6.42578 2.27539Q6.16211 2.57812 5.89355 2.61719Q5.625 2.65625 5.27344 2.30469L4.10156 1.14258Q3.75 0.791016 3.79395 0.522461Q3.83789 0.253906 4.14062-0.0195312L15.6152-10.8203L14.6387-11.7871L3.04688-0.898438Q2.30469-0.214844 2.25098 0.498047Q2.19727 1.21094 2.8418 1.86523ZM9.25781-16.3281Q8.94531-16.0254 8.90625-15.6348Q8.86719-15.2441 9.04297-14.9512Q9.21875-14.6777 9.55566-14.541Q9.89258-14.4043 10.3809-14.5215Q11.4746-14.7754 12.5977-14.7314Q13.7207-14.6875 14.7949-13.9844L14.209-12.5293Q13.9551-11.9043 14.0674-11.4404Q14.1797-10.9766 14.5801-10.5664L16.875-8.25195Q17.2363-7.88086 17.5781-7.82227Q17.9199-7.76367 18.3398-7.8418L19.4043-8.03711L20.0684-7.36328L20.0293-6.80664Q20-6.43555 20.1221-6.12305Q20.2441-5.81055 20.6055-5.44922L21.3672-4.70703Q21.7285-4.3457 22.1533-4.33105Q22.5781-4.31641 22.9297-4.66797L25.8398-7.58789Q26.1914-7.93945 26.1816-8.35449Q26.1719-8.76953 25.8105-9.13086L25.0391-9.89258Q24.6875-10.2539 24.3799-10.3857Q24.0723-10.5176 23.7109-10.4883L23.1348-10.4395L22.4902-11.0742L22.7344-12.1973Q22.832-12.6172 22.6953-12.9834Q22.5586-13.3496 22.1191-13.7891L19.9219-15.9766Q18.6719-17.2168 17.2607-17.8369Q15.8496-18.457 14.4189-18.4814Q12.9883-18.5059 11.665-17.959Q10.3418-17.4121 9.25781-16.3281ZM10.752-15.957Q11.6602-16.6211 12.7002-16.9043Q13.7402-17.1875 14.8047-17.085Q15.8691-16.9824 16.8701-16.5137Q17.8711-16.0449 18.7012-15.2051L21.1328-12.793Q21.3086-12.6172 21.3525-12.4512Q21.3965-12.2852 21.3379-12.0312L21.0156-10.5469L22.5195-9.0625L23.5059-9.12109Q23.6914-9.13086 23.7891-9.09668Q23.8867-9.0625 24.0332-8.91602L24.6094-8.33984L22.168-5.89844L21.5918-6.47461Q21.4453-6.62109 21.4062-6.71875Q21.3672-6.81641 21.377-7.01172L21.4453-7.98828L19.9512-9.47266L18.4277-9.21875Q18.1836-9.16992 18.042-9.2041Q17.9004-9.23828 17.7148-9.41406L15.7129-11.416Q15.5176-11.5918 15.4932-11.7529Q15.4688-11.9141 15.5859-12.1875L16.4648-14.2773Q15.293-15.3711 13.8281-15.791Q12.3633-16.2109 10.8398-15.7617Q10.7227-15.7324 10.6885-15.8057Q10.6543-15.8789 10.752-15.957Z"/>
  </g>
  <text style="stroke:none;fill:black;font-family:sans-serif;font-size:13;font-weight:bold;" transform="matrix(1 0 0 1 1289 1953)">Exporting</text>
  <text style="stroke:none;fill:black;font-family:sans-serif;font-size:13;" transform="matrix(1 0 0 1 1289 1971)">Symbols should be outlined when exporting to ensure the</text>
  <text style="stroke:none;fill:black;font-family:sans-serif;font-size:13;" transform="matrix(1 0 0 1 1289 1989)">design is preserved when submitting to Xcode.</text>
  <text id="template-version" style="stroke:none;fill:black;font-family:sans-serif;font-size:13;text-anchor:end;" transform="matrix(1 0 0 1 3036 1933)">Template v.3.0</text>
  <text style="stroke:none;fill:black;font-family:sans-serif;font-size:13;text-anchor:end;" transform="matrix(1 0 0 1 3036 1951)">Requires Xcode 13 or greater</text>
  <text id="descriptive-name" style="stroke:none;fill:black;font-family:sans-serif;font-size:13;text-anchor:end;" transform="matrix(1 0 0 1 3036 1969)">Generated from checkerboard.rectangle</text>
  <text style="stroke:none;fill:black;font-family:sans-serif;font-size:13;text-anchor:end;" transform="matrix(1 0 0 1 3036 1987)">Typeset at 100 points</text>
  <text style="stroke:none;fill:black;font-family:sans-serif;font-size:13;" transform="matrix(1 0 0 1 263 726)">Small</text>
  <text style="stroke:none;fill:black;font-family:sans-serif;font-size:13;" transform="matrix(1 0 0 1 263 1156)">Medium</text>
  <text style="stroke:none;fill:black;font-family:sans-serif;font-size:13;" transform="matrix(1 0 0 1 263 1586)">Large</text>
 </g>
 <g id="Guides">
  <g id="H-reference" style="fill:#27AAE1;stroke:none;" transform="matrix(1 0 0 1 339 696)">
   <path d="M0.976562 0L3.66211 0L29.3457-67.1387L30.0293-67.1387L30.0293-70.459L28.125-70.459ZM11.6699-24.4629L46.9727-24.4629L46.2402-26.709L12.4512-26.709ZM55.127 0L57.7637 0L30.6152-70.459L29.4434-70.459L29.4434-67.1387Z"/>
  </g>
  <line id="Baseline-S" style="fill:none;stroke:#27AAE1;opacity:1;stroke-width:0.5;" x1="263" x2="3036" y1="696" y2="696"/>
  <line id="Capline-S" style="fill:none;stroke:#27AAE1;opacity:1;stroke-width:0.5;" x1="263" x2="3036" y1="625.541" y2="625.541"/>
  <g id="H-reference" style="fill:#27AAE1;stroke:none;" transform="matrix(1 0 0 1 339 1126)">
   <path d="M0.976562 0L3.66211 0L29.3457-67.1387L30.0293-67.1387L30.0293-70.459L28.125-70.459ZM11.6699-24.4629L46.9727-24.4629L46.2402-26.709L12.4512-26.709ZM55.127 0L57.7637 0L30.6152-70.459L29.4434-70.459L29.4434-67.1387Z"/>
  </g>
  <line id="Baseline-M" style="fill:none;stroke:#27AAE1;opacity:1;stroke-width:0.5;" x1="263" x2="3036" y1="1126" y2="1126"/>
  <line id="Capline-M" style="fill:none;stroke:#27AAE1;opacity:1;stroke-width:0.5;" x1="263" x2="3036" y1="1055.54" y2="1055.54"/>
  <g id="H-reference" style="fill:#27AAE1;stroke:none;" transform="matrix(1 0 0 1 339 1556)">
   <path d="M0.976562 0L3.66211 0L29.3457-67.1387L30.0293-67.1387L30.0293-70.459L28.125-70.459ZM11.6699-24.4629L46.9727-24.4629L46.2402-26.709L12.4512-26.709ZM55.127 0L57.7637 0L30.6152-70.459L29.4434-70.459L29.4434-67.1387Z"/>
  </g>
  <line id="Baseline-L" style="fill:none;stroke:#27AAE1;opacity:1;stroke-width:0.5;" x1="263" x2="3036" y1="1556" y2="1556"/>
  <line id="Capline-L" style="fill:none;stroke:#27AAE1;opacity:1;stroke-width:0.5;" x1="263" x2="3036" y1="1485.54" y2="1485.54"/>
  <line id="left-margin-Ultralight-S" style="fill:none;stroke:#00AEEF;stroke-width:0.5;opacity:1.0;" x1="505.707" x2="505.707" y1="600.785" y2="720.121"/>
  <line id="right-margin-Ultralight-S" style="fill:none;stroke:#00AEEF;stroke-width:0.5;opacity:1.0;" x1="613.715" x2="613.715" y1="600.785" y2="720.121"/>
  <line id="left-margin-Thin-S" style="fill:none;stroke:#00AEEF;stroke-width:0.5;opacity:1.0;" x1="802.174" x2="802.174" y1="600.785" y2="720.121"/>
  <line id="right-margin-Thin-S" style="fill:none;stroke:#00AEEF;stroke-width:0.5;opacity:1.0;" x1="910.67" x2="910.67" y1="600.785" y2="720.121"/>
  <line id="left-margin-Light-S" style="fill:none;stroke:#00AEEF;stroke-width:0.5;opacity:1.0;" x1="1098.42" x2="1098.42" y1="600.785" y2="720.121"/>
  <line id="right-margin-Light-S" style="fill:none;stroke:#00AEEF;stroke-width:0.5;opacity:1.0;" x1="1207.85" x2="1207.85" y1="600.785" y2="720.121"/>
  <line id="left-margin-Regular-S" style="fill:none;stroke:#00AEEF;stroke-width:0.5;opacity:1.0;" x1="1394.79" x2="1394.79" y1="600.785" y2="720.121"/>
  <line id="right-margin-Regular-S" style="fill:none;stroke:#00AEEF;stroke-width:0.5;opacity:1.0;" x1="1504.9" x2="1504.9" y1="600.785" y2="720.121"/>
  <line id="left-margin-Medium-S" style="fill:none;stroke:#00AEEF;stroke-width:0.5;opacity:1.0;" x1="1691.33" x2="1691.33" y1="600.785" y2="720.121"/>
  <line id="right-margin-Medium-S" style="fill:none;stroke:#00AEEF;stroke-width:0.5;opacity:1.0;" x1="1801.78" x2="1801.78" y1="600.785" y2="720.121"/>
  <line id="left-margin-Semibold-S" style="fill:none;stroke:#00AEEF;stroke-width:0.5;opacity:1.0;" x1="1987.9" x2="1987.9" y1="600.785" y2="720.121"/>
  <line id="right-margin-Semibold-S" style="fill:none;stroke:#00AEEF;stroke-width:0.5;opacity:1.0;" x1="2098.64" x2="2098.64" y1="600.785" y2="720.121"/>
  <line id="left-margin-Bold-S" style="fill:none;stroke:#00AEEF;stroke-width:0.5;opacity:1.0;" x1="2284.41" x2="2284.41" y1="600.785" y2="720.121"/>
  <line id="right-margin-Bold-S" style="fill:none;stroke:#00AEEF;stroke-width:0.5;opacity:1.0;" x1="2395.54" x2="2395.54" y1="600.785" y2="720.121"/>
  <line id="left-margin-Heavy-S" style="fill:none;stroke:#00AEEF;stroke-width:0.5;opacity:1.0;" x1="2580.88" x2="2580.88" y1="600.785" y2="720.121"/>
  <line id="right-margin-Heavy-S" style="fill:none;stroke:#00AEEF;stroke-width:0.5;opacity:1.0;" x1="2692.5" x2="2692.5" y1="600.785" y2="720.121"/>
  <line id="left-margin-Black-S" style="fill:none;stroke:#00AEEF;stroke-width:0.5;opacity:1.0;" x1="2877.35" x2="2877.35" y1="600.785" y2="720.121"/>
  <line id="right-margin-Black-S" style="fill:none;stroke:#00AEEF;stroke-width:0.5;opacity:1.0;" x1="2989.45" x2="2989.45" y1="600.785" y2="720.121"/>
  <line id="left-margin-Ultralight-M" style="fill:none;stroke:#00AEEF;stroke-width:0.5;opacity:1.0;" x1="490.863" x2="490.863" y1="1030.79" y2="1150.12"/>
  <line id="right-margin-Ultralight-M" style="fill:none;stroke:#00AEEF;stroke-width:0.5;opacity:1.0;" x1="628.559" x2="628.559" y1="1030.79" y2="1150.12"/>
  <line id="left-margin-Thin-M" style="fill:none;stroke:#00AEEF;stroke-width:0.5;opacity:1.0;" x1="787.306" x2="787.306" y1="1030.79" y2="1150.12"/>
  <line id="right-margin-Thin-M" style="fill:none;stroke:#00AEEF;stroke-width:0.5;opacity:1.0;" x1="925.538" x2="925.538" y1="1030.79" y2="1150.12"/>
  <line id="left-margin-Light-M" style="fill:none;stroke:#00AEEF;stroke-width:0.5;opacity:1.0;" x1="1083.5" x2="1083.5" y1="1030.79" y2="1150.12"/>
  <line id="right-margin-Light-M" style="fill:none;stroke:#00AEEF;stroke-width:0.5;opacity:1.0;" x1="1222.76" x2="1222.76" y1="1030.79" y2="1150.12"/>
  <line id="left-margin-Regular-M" style="fill:none;stroke:#00AEEF;stroke-width:0.5;opacity:1.0;" x1="1379.82" x2="1379.82" y1="1030.79" y2="1150.12"/>
  <line id="right-margin-Regular-M" style="fill:none;stroke:#00AEEF;stroke-width:0.5;opacity:1.0;" x1="1519.86" x2="1519.86" y1="1030.79" y2="1150.12"/>
  <line id="left-margin-Medium-M" style="fill:none;stroke:#00AEEF;stroke-width:0.5;opacity:1.0;" x1="1676.29" x2="1676.29" y1="1030.79" y2="1150.12"/>
  <line id="right-margin-Medium-M" style="fill:none;stroke:#00AEEF;stroke-width:0.5;opacity:1.0;" x1="1816.82" x2="1816.82" y1="1030.79" y2="1150.12"/>
  <line id="left-margin-Semibold-M" style="fill:none;stroke:#00AEEF;stroke-width:0.5;opacity:1.0;" x1="1972.81" x2="1972.81" y1="1030.79" y2="1150.12"/>
  <line id="right-margin-Semibold-M" style="fill:none;stroke:#00AEEF;stroke-width:0.5;opacity:1.0;" x1="2113.73" x2="2113.73" y1="1030.79" y2="1150.12"/>
  <line id="left-margin-Bold-M" style="fill:none;stroke:#00AEEF;stroke-width:0.5;opacity:1.0;" x1="2269.25" x2="2269.25" y1="1030.79" y2="1150.12"/>
  <line id="right-margin-Bold-M" style="fill:none;stroke:#00AEEF;stroke-width:0.5;opacity:1.0;" x1="2410.71" x2="2410.71" y1="1030.79" y2="1150.12"/>
  <line id="left-margin-Heavy-M" style="fill:none;stroke:#00AEEF;stroke-width:0.5;opacity:1.0;" x1="2565.6" x2="2565.6" y1="1030.79" y2="1150.12"/>
  <line id="right-margin-Heavy-M" style="fill:none;stroke:#00AEEF;stroke-width:0.5;opacity:1.0;" x1="2707.78" x2="2707.78" y1="1030.79" y2="1150.12"/>
  <line id="left-margin-Black-M" style="fill:none;stroke:#00AEEF;stroke-width:0.5;opacity:1.0;" x1="2861.96" x2="2861.96" y1="1030.79" y2="1150.12"/>
  <line id="right-margin-Black-M" style="fill:none;stroke:#00AEEF;stroke-width:0.5;opacity:1.0;" x1="3004.84" x2="3004.84" y1="1030.79" y2="1150.12"/>
  <line id="left-margin-Ultralight-L" style="fill:none;stroke:#00AEEF;stroke-width:0.5;opacity:1.0;" x1="471.015" x2="471.015" y1="1460.79" y2="1580.12"/>
  <line id="right-margin-Ultralight-L" style="fill:none;stroke:#00AEEF;stroke-width:0.5;opacity:1.0;" x1="648.407" x2="648.407" y1="1460.79" y2="1580.12"/>
  <line id="left-margin-Thin-L" style="fill:none;stroke:#00AEEF;stroke-width:0.5;opacity:1.0;" x1="767.409" x2="767.409" y1="1460.79" y2="1580.12"/>
  <line id="right-margin-Thin-L" style="fill:none;stroke:#00AEEF;stroke-width:0.5;opacity:1.0;" x1="945.436" x2="945.436" y1="1460.79" y2="1580.12"/>
  <line id="left-margin-Light-L" style="fill:none;stroke:#00AEEF;stroke-width:0.5;opacity:1.0;" x1="1063.53" x2="1063.53" y1="1460.79" y2="1580.12"/>
  <line id="right-margin-Light-L" style="fill:none;stroke:#00AEEF;stroke-width:0.5;opacity:1.0;" x1="1242.73" x2="1242.73" y1="1460.79" y2="1580.12"/>
  <line id="left-margin-Regular-L" style="fill:none;stroke:#00AEEF;stroke-width:0.5;opacity:1.0;" x1="1359.81" x2="1359.81" y1="1460.79" y2="1580.12"/>
  <line id="right-margin-Regular-L" style="fill:none;stroke:#00AEEF;stroke-width:0.5;opacity:1.0;" x1="1539.88" x2="1539.88" y1="1460.79" y2="1580.12"/>
  <line id="left-margin-Medium-L" style="fill:none;stroke:#00AEEF;stroke-width:0.5;opacity:1.0;" x1="1656.17" x2="1656.17" y1="1460.79" y2="1580.12"/>
  <line id="right-margin-Medium-L" style="fill:none;stroke:#00AEEF;stroke-width:0.5;opacity:1.0;" x1="1836.94" x2="1836.94" y1="1460.79" y2="1580.12"/>
  <line id="left-margin-Semibold-L" style="fill:none;stroke:#00AEEF;stroke-width:0.5;opacity:1.0;" x1="1952.64" x2="1952.64" y1="1460.79" y2="1580.12"/>
  <line id="right-margin-Semibold-L" style="fill:none;stroke:#00AEEF;stroke-width:0.5;opacity:1.0;" x1="2133.89" x2="2133.89" y1="1460.79" y2="1580.12"/>
  <line id="left-margin-Bold-L" style="fill:none;stroke:#00AEEF;stroke-width:0.5;opacity:1.0;" x1="2249.01" x2="2249.01" y1="1460.79" y2="1580.12"/>
  <line id="right-margin-Bold-L" style="fill:none;stroke:#00AEEF;stroke-width:0.5;opacity:1.0;" x1="2430.94" x2="2430.94" y1="1460.79" y2="1580.12"/>
  <line id="left-margin-Heavy-L" style="fill:none;stroke:#00AEEF;stroke-width:0.5;opacity:1.0;" x1="2545.23" x2="2545.23" y1="1460.79" y2="1580.12"/>
  <line id="right-margin-Heavy-L" style="fill:none;stroke:#00AEEF;stroke-width:0.5;opacity:1.0;" x1="2728.14" x2="2728.14" y1="1460.79" y2="1580.12"/>
  <line id="left-margin-Black-L" style="fill:none;stroke:#00AEEF;stroke-width:0.5;opacity:1.0;" x1="2841.51" x2="2841.51" y1="1460.79" y2="1580.12"/>
  <line id="right-margin-Black-L" style="fill:none;stroke:#00AEEF;stroke-width:0.5;opacity:1.0;" x1="3025.29" x2="3025.29" y1="1460.79" y2="1580.12"/>
 </g>
 <g id="Symbols">
  <g id="Black-L" transform="matrix(1 0 0 1 2841.51 1556)">
   <path d="M58.4473-55.9082L80.7617-55.9082L80.7617-76.6602L58.4473-76.6602ZM102.881-55.9082L125.195-55.9082L125.195-76.6602L102.881-76.6602ZM36.3281-35.2051L58.4473-35.2051L58.4473-55.9082L36.3281-55.9082ZM80.7617-35.2051L102.881-35.2051L102.881-55.9082L80.7617-55.9082ZM125.195-35.2051L147.51-35.2051L147.51-55.9082L125.195-55.9082ZM58.4473-14.502L80.7617-14.502L80.7617-35.2051L58.4473-35.2051ZM102.881-14.502L125.195-14.502L125.195-35.2051L102.881-35.2051ZM36.3281 4.39453L38.0371 6.29883L58.4473 6.29883L58.4473-14.502L36.3281-14.502ZM80.7617 6.29883L102.881 6.29883L102.881-14.502L80.7617-14.502ZM125.195 6.29883L145.264 6.29883L147.51 4.29688L147.51-14.502L125.195-14.502ZM39.9902 26.5137L143.799 26.5137Q155.225 26.5137 161.475 20.3125Q167.725 14.1113 167.725 2.68555L167.725-73.0957Q167.725-84.4727 161.475-90.6738Q155.225-96.875 143.799-96.875L39.9902-96.875Q28.5645-96.875 22.3145-90.6738Q16.0645-84.4727 16.0645-73.0957L16.0645 2.68555Q16.0645 14.1113 22.3145 20.3125Q28.5645 26.5137 39.9902 26.5137ZM42.6758 6.29883Q39.5508 6.29883 37.9395 4.78516Q36.3281 3.27148 36.3281-0.146484L36.3281-70.2148Q36.3281-73.6328 37.9395-75.1465Q39.5508-76.6602 42.6758-76.6602L141.064-76.6602Q144.238-76.6602 145.85-75.1465Q147.461-73.6328 147.461-70.2148L147.461-0.146484Q147.461 3.27148 145.85 4.78516Q144.238 6.29883 141.064 6.29883Z"/>
  </g>
  <g id="Heavy-L" transform="matrix(1 0 0 1 2545.23 1556)">
   <path d="M56.6406-56.7871L79.8828-56.7871L79.8828-78.3691L56.6406-78.3691ZM102.881-56.7871L126.172-56.7871L126.172-78.3691L102.881-78.3691ZM33.5938-35.2051L56.6406-35.2051L56.6406-56.7871L33.5938-56.7871ZM79.8828-35.2051L102.881-35.2051L102.881-56.7871L79.8828-56.7871ZM126.172-35.2051L149.365-35.2051L149.365-56.7871L126.172-56.7871ZM56.6406-13.623L79.8828-13.623L79.8828-35.2051L56.6406-35.2051ZM102.881-13.623L126.172-13.623L126.172-35.2051L102.881-35.2051ZM33.5938 5.85938L35.6934 8.00781L56.6406 8.00781L56.6406-13.623L33.5938-13.623ZM79.8828 8.00781L102.881 8.00781L102.881-13.623L79.8828-13.623ZM126.172 8.00781L146.777 8.00781L149.365 5.66406L149.365-13.623L126.172-13.623ZM38.8184 25.4883L144.092 25.4883Q155.029 25.4883 160.938 19.6289Q166.846 13.7695 166.846 2.83203L166.846-73.2422Q166.846-84.1309 160.938-89.9902Q155.029-95.8496 144.092-95.8496L38.8184-95.8496Q27.8809-95.8496 21.9727-90.0146Q16.0645-84.1797 16.0645-73.2422L16.0645 2.83203Q16.0645 13.7695 21.9727 19.6289Q27.8809 25.4883 38.8184 25.4883ZM40.918 8.00781Q37.3047 8.00781 35.4492 6.22559Q33.5938 4.44336 33.5938 0.585938L33.5938-70.9473Q33.5938-74.8047 35.4492-76.5869Q37.3047-78.3691 40.918-78.3691L141.943-78.3691Q145.557-78.3691 147.437-76.5869Q149.316-74.8047 149.316-70.9473L149.316 0.585938Q149.316 4.44336 147.437 6.22559Q145.557 8.00781 141.943 8.00781Z"/>
  </g>
  <g id="Bold-L" transform="matrix(1 0 0 1 2249.01 1556)">
   <path d="M54.6387-57.7637L78.9062-57.7637L78.9062-80.2734L54.6387-80.2734ZM102.93-57.7637L127.246-57.7637L127.246-80.2734L102.93-80.2734ZM30.5176-35.1562L54.6387-35.1562L54.6387-57.7637L30.5176-57.7637ZM78.9062-35.1562L102.93-35.1562L102.93-57.7637L78.9062-57.7637ZM127.246-35.1562L151.465-35.1562L151.465-57.7637L127.246-57.7637ZM54.6387-12.6953L78.9062-12.6953L78.9062-35.1562L54.6387-35.1562ZM102.93-12.6953L127.246-12.6953L127.246-35.1562L102.93-35.1562ZM30.5176 7.4707L33.1055 9.96094L54.6387 9.96094L54.6387-12.6953L30.5176-12.6953ZM78.9062 9.96094L102.93 9.96094L102.93-12.6953L78.9062-12.6953ZM127.246 9.96094L148.438 9.96094L151.465 7.22656L151.465-12.6953L127.246-12.6953ZM37.5488 24.3652L144.385 24.3652Q154.834 24.3652 160.352 18.8965Q165.869 13.4277 165.869 3.02734L165.869-73.4375Q165.869-83.7891 160.352-89.2822Q154.834-94.7754 144.385-94.7754L37.5488-94.7754Q27.0996-94.7754 21.582-89.3066Q16.0645-83.8379 16.0645-73.4375L16.0645 3.02734Q16.0645 13.4277 21.582 18.8965Q27.0996 24.3652 37.5488 24.3652ZM38.9648 9.91211Q34.8633 9.91211 32.6904 7.8125Q30.5176 5.71289 30.5176 1.36719L30.5176-71.7773Q30.5176-76.123 32.6904-78.2227Q34.8633-80.3223 38.9648-80.3223L142.969-80.3223Q147.07-80.3223 149.243-78.2227Q151.416-76.123 151.416-71.7773L151.416 1.36719Q151.416 5.71289 149.243 7.8125Q147.07 9.91211 142.969 9.91211Z"/>
  </g>
  <g id="Semibold-L" transform="matrix(1 0 0 1 1952.64 1556)">
   <path d="M53.2227-58.3984L78.2227-58.3984L78.2227-81.5918L53.2227-81.5918ZM102.93-58.3984L127.979-58.3984L127.979-81.5918L102.93-81.5918ZM28.418-35.1562L53.2227-35.1562L53.2227-58.3984L28.418-58.3984ZM78.2227-35.1562L102.93-35.1562L102.93-58.3984L78.2227-58.3984ZM127.979-35.1562L152.881-35.1562L152.881-58.3984L127.979-58.3984ZM53.2227-12.0117L78.2227-12.0117L78.2227-35.1562L53.2227-35.1562ZM102.93-12.0117L127.979-12.0117L127.979-35.1562L102.93-35.1562ZM28.418 8.54492L31.2988 11.2793L53.2227 11.2793L53.2227-12.0117L28.418-12.0117ZM78.2227 11.2793L102.93 11.2793L102.93-12.0117L78.2227-12.0117ZM127.979 11.2793L149.609 11.2793L152.881 8.30078L152.881-12.0117L127.979-12.0117ZM36.6211 23.5352L144.58 23.5352Q154.688 23.5352 159.937 18.335Q165.186 13.1348 165.186 3.17383L165.186-73.584Q165.186-83.5449 159.937-88.7695Q154.688-93.9941 144.58-93.9941L36.6211-93.9941Q26.5625-93.9941 21.3135-88.7939Q16.0645-83.5938 16.0645-73.584L16.0645 3.17383Q16.0645 13.1836 21.3135 18.3594Q26.5625 23.5352 36.6211 23.5352ZM37.5977 11.2305Q33.1055 11.2305 30.7617 8.91113Q28.418 6.5918 28.418 1.9043L28.418-72.3633Q28.418-77.0508 30.7617-79.3457Q33.1055-81.6406 37.5977-81.6406L143.652-81.6406Q148.047-81.6406 150.439-79.3457Q152.832-77.0508 152.832-72.3633L152.832 1.9043Q152.832 6.5918 150.439 8.91113Q148.047 11.2305 143.652 11.2305Z"/>
  </g>
  <g id="Medium-L" transform="matrix(1 0 0 1 1656.17 1556)">
   <path d="M52.1484-58.9355L77.7344-58.9355L77.7344-82.5684L52.1484-82.5684ZM102.979-58.9355L128.516-58.9355L128.516-82.5684L102.979-82.5684ZM26.8066-35.1074L52.1484-35.1074L52.1484-58.9355L26.8066-58.9355ZM77.7344-35.1074L102.979-35.1074L102.979-58.9355L77.7344-58.9355ZM128.516-35.1074L153.955-35.1074L153.955-58.9355L128.516-58.9355ZM52.1484-11.4746L77.7344-11.4746L77.7344-35.1074L52.1484-35.1074ZM102.979-11.4746L128.516-11.4746L128.516-35.1074L102.979-35.1074ZM26.8066 9.42383L29.9316 12.2559L52.1484 12.2559L52.1484-11.4746L26.8066-11.4746ZM77.7344 12.2559L102.979 12.2559L102.979-11.4746L77.7344-11.4746ZM128.516 12.2559L150.488 12.2559L153.955 9.08203L153.955-11.4746L128.516-11.4746ZM35.9375 22.9492L144.775 22.9492Q154.59 22.9492 159.644 17.9443Q164.697 12.9395 164.697 3.22266L164.697-73.6328Q164.697-83.3496 159.644-88.3789Q154.59-93.4082 144.775-93.4082L35.9375-93.4082Q26.1719-93.4082 21.1182-88.4033Q16.0645-83.3984 16.0645-73.6328L16.0645 3.22266Q16.0645 12.9883 21.1182 17.9688Q26.1719 22.9492 35.9375 22.9492ZM36.5723 12.207Q31.8359 12.207 29.3213 9.74121Q26.8066 7.27539 26.8066 2.34375L26.8066-72.7539Q26.8066-77.7344 29.3213-80.2002Q31.8359-82.666 36.5723-82.666L144.141-82.666Q148.828-82.666 151.367-80.2002Q153.906-77.7344 153.906-72.7539L153.906 2.34375Q153.906 7.27539 151.367 9.74121Q148.828 12.207 144.141 12.207Z"/>
  </g>
  <g id="Regular-L" transform="matrix(1 0 0 1 1359.81 1556)">
   <path d="M50.7812-59.5703L77.0508-59.5703L77.0508-83.8867L50.7812-83.8867ZM102.979-59.5703L129.248-59.5703L129.248-83.8867L102.979-83.8867ZM24.707-35.1074L50.7812-35.1074L50.7812-59.5703L24.707-59.5703ZM77.0508-35.1074L102.979-35.1074L102.979-59.5703L77.0508-59.5703ZM129.248-35.1074L155.371-35.1074L155.371-59.5703L129.248-59.5703ZM50.7812-10.8398L77.0508-10.8398L77.0508-35.1074L50.7812-35.1074ZM102.979-10.8398L129.248-10.8398L129.248-35.1074L102.979-35.1074ZM24.707 10.498L28.125 13.5742L50.7812 13.5742L50.7812-10.8398L24.707-10.8398ZM77.0508 13.5742L102.979 13.5742L102.979-10.8398L77.0508-10.8398ZM129.248 13.5742L151.611 13.5742L155.371 10.1562L155.371-10.8398L129.248-10.8398ZM35.0586 22.168L144.971 22.168Q154.443 22.168 159.229 17.4316Q164.014 12.6953 164.014 3.36914L164.014-73.7793Q164.014-83.1055 159.229-87.8662Q154.443-92.627 144.971-92.627L35.0586-92.627Q25.6348-92.627 20.8496-87.8906Q16.0645-83.1543 16.0645-73.7793L16.0645 3.36914Q16.0645 12.7441 20.8496 17.4561Q25.6348 22.168 35.0586 22.168ZM35.2539 13.5254Q30.127 13.5254 27.417 10.8398Q24.707 8.1543 24.707 2.88086L24.707-73.3398Q24.707-78.6133 27.417-81.2988Q30.127-83.9844 35.2539-83.9844L144.824-83.9844Q149.854-83.9844 152.588-81.2988Q155.322-78.6133 155.322-73.3398L155.322 2.88086Q155.322 8.1543 152.588 10.8398Q149.854 13.5254 144.824 13.5254Z"/>
  </g>
  <g id="Light-L" transform="matrix(1 0 0 1 1063.53 1556)">
   <path d="M49.3652-60.1562L76.3184-60.1562L76.3184-85.0586L49.3652-85.0586ZM102.832-60.1562L129.736-60.1562L129.736-85.0586L102.832-85.0586ZM22.6562-35.0586L49.3652-35.0586L49.3652-60.1562L22.6562-60.1562ZM76.3184-35.0586L102.832-35.0586L102.832-60.1562L76.3184-60.1562ZM129.736-35.0586L156.494-35.0586L156.494-60.1562L129.736-60.1562ZM49.3652-10.2539L76.3184-10.2539L76.3184-35.0586L49.3652-35.0586ZM102.832-10.2539L129.736-10.2539L129.736-35.0586L102.832-35.0586ZM22.6562 11.2793L26.6602 14.7949L49.3652 14.7949L49.3652-10.2539L22.6562-10.2539ZM76.3184 14.7949L102.832 14.7949L102.832-10.2539L76.3184-10.2539ZM129.736 14.7949L152.1 14.7949L156.494 10.7422L156.494-10.2539L129.736-10.2539ZM34.0332 21.3379L145.117 21.3379Q154.053 21.3379 158.594 16.7969Q163.135 12.2559 163.135 3.4668L163.135-73.9258Q163.135-82.7148 158.594-87.2559Q154.053-91.7969 145.117-91.7969L34.0332-91.7969Q25.1465-91.7969 20.6055-87.2803Q16.0645-82.7637 16.0645-73.9258L16.0645 3.4668Q16.0645 12.3047 20.6055 16.8213Q25.1465 21.3379 34.0332 21.3379ZM34.2285 14.6973Q28.5645 14.6973 25.6104 11.7676Q22.6562 8.83789 22.6562 3.125L22.6562-73.584Q22.6562-79.3457 25.6104-82.2754Q28.5645-85.2051 34.2285-85.2051L144.971-85.2051Q150.488-85.2051 153.491-82.2754Q156.494-79.3457 156.494-73.584L156.494 3.125Q156.494 8.83789 153.491 11.7676Q150.488 14.6973 144.971 14.6973Z"/>
  </g>
  <g id="Thin-L" transform="matrix(1 0 0 1 767.409 1556)">
   <path d="M47.5098-60.9375L75.293-60.9375L75.293-86.6211L47.5098-86.6211ZM102.637-60.9375L130.42-60.9375L130.42-86.6211L102.637-86.6211ZM20.0195-35.0586L47.5098-35.0586L47.5098-60.9375L20.0195-60.9375ZM75.293-35.0586L102.637-35.0586L102.637-60.9375L75.293-60.9375ZM130.42-35.0586L158.008-35.0586L158.008-60.9375L130.42-60.9375ZM47.5098-9.42383L75.293-9.42383L75.293-35.0586L47.5098-35.0586ZM102.637-9.42383L130.42-9.42383L130.42-35.0586L102.637-35.0586ZM20.0195 12.3047L24.707 16.4062L47.5098 16.4062L47.5098-9.42383L20.0195-9.42383ZM75.293 16.4062L102.637 16.4062L102.637-9.42383L75.293-9.42383ZM130.42 16.4062L152.783 16.4062L158.008 11.4746L158.008-9.42383L130.42-9.42383ZM32.666 20.2148L145.312 20.2148Q153.516 20.2148 157.739 15.918Q161.963 11.6211 161.963 3.61328L161.963-74.1211Q161.963-82.1777 157.739-86.4502Q153.516-90.7227 145.312-90.7227L32.666-90.7227Q24.5117-90.7227 20.2881-86.499Q16.0645-82.2754 16.0645-74.1211L16.0645 3.61328Q16.0645 11.7676 20.2881 15.9912Q24.5117 20.2148 32.666 20.2148ZM32.8125 16.2598Q26.5137 16.2598 23.2666 13.0127Q20.0195 9.76562 20.0195 3.41797L20.0195-73.9258Q20.0195-80.3223 23.2666-83.5693Q26.5137-86.8164 32.8125-86.8164L145.166-86.8164Q151.318-86.8164 154.663-83.5693Q158.008-80.3223 158.008-73.9258L158.008 3.41797Q158.008 9.76562 154.663 13.0127Q151.318 16.2598 145.166 16.2598Z"/>
  </g>
  <g id="Ultralight-L" transform="matrix(1 0 0 1 471.015 1556)">
   <path d="M46.582-61.3281L74.8047-61.3281L74.8047-87.4512L46.582-87.4512ZM102.539-61.3281L130.762-61.3281L130.762-87.4512L102.539-87.4512ZM18.6035-35.0098L46.582-35.0098L46.582-61.3281L18.6035-61.3281ZM74.8047-35.0098L102.539-35.0098L102.539-61.3281L74.8047-61.3281ZM130.762-35.0098L158.789-35.0098L158.789-61.3281L130.762-61.3281ZM46.582-9.0332L74.8047-9.0332L74.8047-35.0098L46.582-35.0098ZM102.539-9.0332L130.762-9.0332L130.762-35.0098L102.539-35.0098ZM18.6035 12.793L23.7305 17.2363L46.582 17.2363L46.582-9.0332L18.6035-9.0332ZM74.8047 17.2363L102.539 17.2363L102.539-9.0332L74.8047-9.0332ZM130.762 17.2363L153.125 17.2363L158.789 11.8652L158.789-9.0332L130.762-9.0332ZM31.9824 19.6289L145.41 19.6289Q153.223 19.6289 157.275 15.4785Q161.328 11.3281 161.328 3.71094L161.328-74.2188Q161.328-81.8848 157.275-86.0352Q153.223-90.1855 145.41-90.1855L31.9824-90.1855Q24.1699-90.1855 20.1172-86.1084Q16.0645-82.0312 16.0645-74.2188L16.0645 3.71094Q16.0645 11.4746 20.1172 15.5518Q24.1699 19.6289 31.9824 19.6289ZM32.1289 17.0898Q25.4395 17.0898 22.0215 13.6719Q18.6035 10.2539 18.6035 3.56445L18.6035-74.1211Q18.6035-80.8105 22.0215-84.2041Q25.4395-87.5977 32.1289-87.5977L145.264-87.5977Q151.709-87.5977 155.249-84.2041Q158.789-80.8105 158.789-74.1211L158.789 3.56445Q158.789 10.2539 155.249 13.6719Q151.709 17.0898 145.264 17.0898Z"/>
  </g>
  <g id="Black-M" transform="matrix(1 0 0 1 2861.96 1126)">
   <path d="M46.3867-50.7324L63.0859-50.7324L63.0859-66.2598L46.3867-66.2598ZM79.6875-50.7324L96.3867-50.7324L96.3867-66.2598L79.6875-66.2598ZM29.7852-35.2051L46.3867-35.2051L46.3867-50.7324L29.7852-50.7324ZM63.0859-35.2051L79.6875-35.2051L79.6875-50.7324L63.0859-50.7324ZM96.3867-35.2051L113.086-35.2051L113.086-50.7324L96.3867-50.7324ZM46.3867-19.6777L63.0859-19.6777L63.0859-35.2051L46.3867-35.2051ZM79.6875-19.6777L96.3867-19.6777L96.3867-35.2051L79.6875-35.2051ZM29.7852-5.46875L30.957-4.10156L46.3867-4.10156L46.3867-19.6777L29.7852-19.6777ZM63.0859-4.10156L79.6875-4.10156L79.6875-19.6777L63.0859-19.6777ZM96.3867-4.10156L111.475-4.10156L113.086-5.56641L113.086-19.6777L96.3867-19.6777ZM31.5918 13.2324L111.279 13.2324Q120.312 13.2324 125.366 8.17871Q130.42 3.125 130.42-5.9082L130.42-64.4531Q130.42-73.5352 125.366-78.5645Q120.312-83.5938 111.279-83.5938L31.5918-83.5938Q22.5586-83.5938 17.5049-78.5645Q12.4512-73.5352 12.4512-64.4531L12.4512-5.9082Q12.4512 3.125 17.5049 8.17871Q22.5586 13.2324 31.5918 13.2324ZM34.2285-4.10156Q31.9824-4.10156 30.8838-5.12695Q29.7852-6.15234 29.7852-8.59375L29.7852-61.8164Q29.7852-64.2578 30.8838-65.2588Q31.9824-66.2598 34.2285-66.2598L108.643-66.2598Q110.889-66.2598 111.987-65.2588Q113.086-64.2578 113.086-61.8164L113.086-8.59375Q113.086-6.15234 111.987-5.12695Q110.889-4.10156 108.643-4.10156Z"/>
  </g>
  <g id="Heavy-M" transform="matrix(1 0 0 1 2565.6 1126)">
   <path d="M44.9219-51.4648L62.4023-51.4648L62.4023-67.6758L44.9219-67.6758ZM79.7363-51.4648L97.2168-51.4648L97.2168-67.6758L79.7363-67.6758ZM27.5391-35.2051L44.9219-35.2051L44.9219-51.4648L27.5391-51.4648ZM62.4023-35.2051L79.7363-35.2051L79.7363-51.4648L62.4023-51.4648ZM97.2168-35.2051L114.648-35.2051L114.648-51.4648L97.2168-51.4648ZM44.9219-18.9941L62.4023-18.9941L62.4023-35.2051L44.9219-35.2051ZM79.7363-18.9941L97.2168-18.9941L97.2168-35.2051L79.7363-35.2051ZM27.5391-4.24805L29.0039-2.68555L44.9219-2.68555L44.9219-18.9941L27.5391-18.9941ZM62.4023-2.68555L79.7363-2.68555L79.7363-18.9941L62.4023-18.9941ZM97.2168-2.68555L112.842-2.68555L114.648-4.3457L114.648-18.9941L97.2168-18.9941ZM30.7129 12.4023L111.523 12.4023Q120.215 12.4023 124.976 7.6416Q129.736 2.88086 129.736-5.76172L129.736-64.5996Q129.736-73.291 124.976-78.0273Q120.215-82.7637 111.523-82.7637L30.7129-82.7637Q21.9727-82.7637 17.2119-78.0518Q12.4512-73.3398 12.4512-64.5996L12.4512-5.76172Q12.4512 2.88086 17.2119 7.6416Q21.9727 12.4023 30.7129 12.4023ZM32.7148-2.68555Q30.127-2.68555 28.833-3.93066Q27.5391-5.17578 27.5391-7.95898L27.5391-62.4512Q27.5391-65.2344 28.833-66.4551Q30.127-67.6758 32.7148-67.6758L109.473-67.6758Q112.061-67.6758 113.354-66.4551Q114.648-65.2344 114.648-62.4512L114.648-7.95898Q114.648-5.17578 113.354-3.93066Q112.061-2.68555 109.473-2.68555Z"/>
  </g>
  <g id="Bold-M" transform="matrix(1 0 0 1 2269.25 1126)">
   <path d="M43.2617-52.2461L61.6211-52.2461L61.6211-69.2871L43.2617-69.2871ZM79.7852-52.2461L98.1445-52.2461L98.1445-69.2871L79.7852-69.2871ZM25.0488-35.2051L43.2617-35.2051L43.2617-52.2461L25.0488-52.2461ZM61.6211-35.2051L79.7852-35.2051L79.7852-52.2461L61.6211-52.2461ZM98.1445-35.2051L116.455-35.2051L116.455-52.2461L98.1445-52.2461ZM43.2617-18.2129L61.6211-18.2129L61.6211-35.2051L43.2617-35.2051ZM79.7852-18.2129L98.1445-18.2129L98.1445-35.2051L79.7852-35.2051ZM25.0488-2.88086L26.8066-1.12305L43.2617-1.12305L43.2617-18.2129L25.0488-18.2129ZM61.6211-1.12305L79.7852-1.12305L79.7852-18.2129L61.6211-18.2129ZM98.1445-1.12305L114.355-1.12305L116.455-2.97852L116.455-18.2129L98.1445-18.2129ZM29.6875 11.4746L111.768 11.4746Q120.166 11.4746 124.585 7.05566Q129.004 2.63672 129.004-5.66406L129.004-64.7461Q129.004-73.0469 124.585-77.4658Q120.166-81.8848 111.768-81.8848L29.6875-81.8848Q21.3379-81.8848 16.8945-77.4902Q12.4512-73.0957 12.4512-64.7461L12.4512-5.66406Q12.4512 2.63672 16.8945 7.05566Q21.3379 11.4746 29.6875 11.4746ZM31.0547-1.12305Q28.125-1.12305 26.5869-2.6123Q25.0488-4.10156 25.0488-7.22656L25.0488-63.2324Q25.0488-66.3574 26.5869-67.8223Q28.125-69.2871 31.0547-69.2871L110.4-69.2871Q113.33-69.2871 114.868-67.8223Q116.406-66.3574 116.406-63.2324L116.406-7.22656Q116.406-4.10156 114.868-2.6123Q113.33-1.12305 110.4-1.12305Z"/>
  </g>
  <g id="Semibold-M" transform="matrix(1 0 0 1 1972.81 1126)">
   <path d="M42.1387-52.7832L61.084-52.7832L61.084-70.3613L42.1387-70.3613ZM79.834-52.7832L98.7793-52.7832L98.7793-70.3613L79.834-70.3613ZM23.3398-35.1562L42.1387-35.1562L42.1387-52.7832L23.3398-52.7832ZM61.084-35.1562L79.834-35.1562L79.834-52.7832L61.084-52.7832ZM98.7793-35.1562L117.627-35.1562L117.627-52.7832L98.7793-52.7832ZM42.1387-17.627L61.084-17.627L61.084-35.1562L42.1387-35.1562ZM79.834-17.627L98.7793-17.627L98.7793-35.1562L79.834-35.1562ZM23.3398-1.9043L25.293 0L42.1387 0L42.1387-17.627L23.3398-17.627ZM61.084 0L79.834 0L79.834-17.627L61.084-17.627ZM98.7793 0L115.381 0L117.627-2.05078L117.627-17.627L98.7793-17.627ZM29.0039 10.8398L111.963 10.8398Q120.068 10.8398 124.268 6.64062Q128.467 2.44141 128.467-5.51758L128.467-64.8438Q128.467-72.8516 124.268-77.0508Q120.068-81.25 111.963-81.25L29.0039-81.25Q20.8984-81.25 16.6748-77.0752Q12.4512-72.9004 12.4512-64.8438L12.4512-5.51758Q12.4512 2.44141 16.6748 6.64062Q20.8984 10.8398 29.0039 10.8398ZM29.8828-0.0488281Q26.709-0.0488281 25.0244-1.68457Q23.3398-3.32031 23.3398-6.68945L23.3398-63.7207Q23.3398-67.0898 25.0244-68.75Q26.709-70.4102 29.8828-70.4102L111.035-70.4102Q114.209-70.4102 115.918-68.75Q117.627-67.0898 117.627-63.7207L117.627-6.68945Q117.627-3.32031 115.918-1.68457Q114.209-0.0488281 111.035-0.0488281Z"/>
  </g>
  <g id="Medium-M" transform="matrix(1 0 0 1 1676.29 1126)">
   <path d="M41.2598-53.2227L60.6934-53.2227L60.6934-71.1914L41.2598-71.1914ZM79.834-53.2227L99.2676-53.2227L99.2676-71.1914L79.834-71.1914ZM22.0215-35.1562L41.2598-35.1562L41.2598-53.2227L22.0215-53.2227ZM60.6934-35.1562L79.834-35.1562L79.834-53.2227L60.6934-53.2227ZM99.2676-35.1562L118.555-35.1562L118.555-53.2227L99.2676-53.2227ZM41.2598-17.2363L60.6934-17.2363L60.6934-35.1562L41.2598-35.1562ZM79.834-17.2363L99.2676-17.2363L99.2676-35.1562L79.834-35.1562ZM22.0215-1.17188L24.1699 0.830078L41.2598 0.830078L41.2598-17.2363L22.0215-17.2363ZM60.6934 0.830078L79.834 0.830078L79.834-17.2363L60.6934-17.2363ZM99.2676 0.830078L116.162 0.830078L118.555-1.31836L118.555-17.2363L99.2676-17.2363ZM28.4668 10.3516L112.061 10.3516Q120.02 10.3516 124.048 6.34766Q128.076 2.34375 128.076-5.46875L128.076-64.9414Q128.076-72.7539 124.048-76.7822Q120.02-80.8105 112.061-80.8105L28.4668-80.8105Q20.5566-80.8105 16.5039-76.7822Q12.4512-72.7539 12.4512-64.9414L12.4512-5.46875Q12.4512 2.34375 16.5039 6.34766Q20.5566 10.3516 28.4668 10.3516ZM29.0039 0.78125Q25.6348 0.78125 23.8281-0.976562Q22.0215-2.73438 22.0215-6.29883L22.0215-64.1113Q22.0215-67.6758 23.8281-69.458Q25.6348-71.2402 29.0039-71.2402L111.523-71.2402Q114.893-71.2402 116.724-69.458Q118.555-67.6758 118.555-64.1113L118.555-6.29883Q118.555-2.73438 116.724-0.976562Q114.893 0.78125 111.523 0.78125Z"/>
  </g>
  <g id="Regular-M" transform="matrix(1 0 0 1 1379.82 1126)">
   <path d="M40.1367-53.7598L60.1562-53.7598L60.1562-72.2656L40.1367-72.2656ZM79.8828-53.7598L99.9023-53.7598L99.9023-72.2656L79.8828-72.2656ZM20.3125-35.1562L40.1367-35.1562L40.1367-53.7598L20.3125-53.7598ZM60.1562-35.1562L79.8828-35.1562L79.8828-53.7598L60.1562-53.7598ZM99.9023-35.1562L119.775-35.1562L119.775-53.7598L99.9023-53.7598ZM40.1367-16.6992L60.1562-16.6992L60.1562-35.1562L40.1367-35.1562ZM79.8828-16.6992L99.9023-16.6992L99.9023-35.1562L79.8828-35.1562ZM20.3125-0.244141L22.6562 1.9043L40.1367 1.9043L40.1367-16.6992L20.3125-16.6992ZM60.1562 1.9043L79.8828 1.9043L79.8828-16.6992L60.1562-16.6992ZM99.9023 1.9043L117.188 1.9043L119.775-0.390625L119.775-16.6992L99.9023-16.6992ZM27.7832 9.7168L112.256 9.7168Q119.971 9.7168 123.779 5.93262Q127.588 2.14844 127.588-5.37109L127.588-65.0391Q127.588-72.5586 123.779-76.3672Q119.971-80.1758 112.256-80.1758L27.7832-80.1758Q20.1172-80.1758 16.2842-76.3916Q12.4512-72.6074 12.4512-65.0391L12.4512-5.37109Q12.4512 2.14844 16.2842 5.93262Q20.1172 9.7168 27.7832 9.7168ZM27.8809 1.85547Q24.2188 1.85547 22.2656-0.0732422Q20.3125-2.00195 20.3125-5.81055L20.3125-64.5996Q20.3125-68.4082 22.2656-70.3613Q24.2188-72.3145 27.8809-72.3145L112.158-72.3145Q115.771-72.3145 117.749-70.3613Q119.727-68.4082 119.727-64.5996L119.727-5.81055Q119.727-2.00195 117.749-0.0732422Q115.771 1.85547 112.158 1.85547Z"/>
  </g>
  <g id="Light-M" transform="matrix(1 0 0 1 1083.5 1126)">
   <path d="M38.8672-54.2969L59.4727-54.2969L59.4727-73.3398L38.8672-73.3398ZM79.7852-54.2969L100.342-54.2969L100.342-73.3398L79.7852-73.3398ZM18.5059-35.1074L38.8672-35.1074L38.8672-54.2969L18.5059-54.2969ZM59.4727-35.1074L79.7852-35.1074L79.7852-54.2969L59.4727-54.2969ZM100.342-35.1074L120.801-35.1074L120.801-54.2969L100.342-54.2969ZM38.8672-16.1621L59.4727-16.1621L59.4727-35.1074L38.8672-35.1074ZM79.7852-16.1621L100.342-16.1621L100.342-35.1074L79.7852-35.1074ZM18.5059 0.439453L21.3379 2.97852L38.8672 2.97852L38.8672-16.1621L18.5059-16.1621ZM59.4727 2.97852L79.7852 2.97852L79.7852-16.1621L59.4727-16.1621ZM100.342 2.97852L117.627 2.97852L120.801 0.146484L120.801-16.1621L100.342-16.1621ZM26.8555 8.98438L112.402 8.98438Q119.58 8.98438 123.193 5.37109Q126.807 1.75781 126.807-5.27344L126.807-65.1855Q126.807-72.2168 123.193-75.8301Q119.58-79.4434 112.402-79.4434L26.8555-79.4434Q19.6777-79.4434 16.0645-75.8545Q12.4512-72.2656 12.4512-65.1855L12.4512-5.27344Q12.4512 1.80664 16.0645 5.39551Q19.6777 8.98438 26.8555 8.98438ZM26.9531 2.92969Q22.8027 2.92969 20.6543 0.78125Q18.5059-1.36719 18.5059-5.61523L18.5059-64.8438Q18.5059-69.0918 20.6543-71.2402Q22.8027-73.3887 26.9531-73.3887L112.305-73.3887Q116.309-73.3887 118.53-71.2402Q120.752-69.0918 120.752-64.8438L120.752-5.61523Q120.752-1.36719 118.53 0.78125Q116.309 2.92969 112.305 2.92969Z"/>
  </g>
  <g id="Thin-M" transform="matrix(1 0 0 1 787.306 1126)">
   <path d="M37.207-54.9805L58.5938-54.9805L58.5938-74.707L37.207-74.707ZM79.5898-54.9805L100.928-54.9805L100.928-74.707L79.5898-74.707ZM16.1133-35.1074L37.207-35.1074L37.207-54.9805L16.1133-54.9805ZM58.5938-35.1074L79.5898-35.1074L79.5898-54.9805L58.5938-54.9805ZM100.928-35.1074L122.119-35.1074L122.119-54.9805L100.928-54.9805ZM37.207-15.3809L58.5938-15.3809L58.5938-35.1074L37.207-35.1074ZM79.5898-15.3809L100.928-15.3809L100.928-35.1074L79.5898-35.1074ZM16.1133 1.36719L19.5801 4.44336L37.207 4.44336L37.207-15.3809L16.1133-15.3809ZM58.5938 4.44336L79.5898 4.44336L79.5898-15.3809L58.5938-15.3809ZM100.928 4.44336L118.262 4.44336L122.119 0.78125L122.119-15.3809L100.928-15.3809ZM25.5859 7.95898L112.549 7.95898Q119.092 7.95898 122.437 4.58984Q125.781 1.2207 125.781-5.17578L125.781-65.332Q125.781-71.7285 122.437-75.0977Q119.092-78.4668 112.549-78.4668L25.5859-78.4668Q19.1406-78.4668 15.7959-75.1221Q12.4512-71.7773 12.4512-65.332L12.4512-5.17578Q12.4512 1.31836 15.7959 4.63867Q19.1406 7.95898 25.5859 7.95898ZM25.7324 4.3457Q20.9961 4.3457 18.5547 1.9043Q16.1133-0.537109 16.1133-5.37109L16.1133-65.1855Q16.1133-69.9707 18.5547-72.4121Q20.9961-74.8535 25.7324-74.8535L112.451-74.8535Q117.09-74.8535 119.604-72.4121Q122.119-69.9707 122.119-65.1855L122.119-5.37109Q122.119-0.537109 119.604 1.9043Q117.09 4.3457 112.451 4.3457Z"/>
  </g>
  <g id="Ultralight-M" transform="matrix(1 0 0 1 490.863 1126)">
   <path d="M36.377-55.3711L58.1055-55.3711L58.1055-75.4395L36.377-75.4395ZM79.541-55.3711L101.221-55.3711L101.221-75.4395L79.541-75.4395ZM14.8438-35.0586L36.377-35.0586L36.377-55.3711L14.8438-55.3711ZM58.1055-35.0586L79.541-35.0586L79.541-55.3711L58.1055-55.3711ZM101.221-35.0586L122.803-35.0586L122.803-55.3711L101.221-55.3711ZM36.377-15.0391L58.1055-15.0391L58.1055-35.0586L36.377-35.0586ZM79.541-15.0391L101.221-15.0391L101.221-35.0586L79.541-35.0586ZM14.8438 1.85547L18.6523 5.17578L36.377 5.17578L36.377-15.0391L14.8438-15.0391ZM58.1055 5.17578L79.541 5.17578L79.541-15.0391L58.1055-15.0391ZM101.221 5.17578L118.555 5.17578L122.803 1.17188L122.803-15.0391L101.221-15.0391ZM24.9512 7.4707L112.646 7.4707Q118.848 7.4707 122.046 4.22363Q125.244 0.976562 125.244-5.07812L125.244-65.4297Q125.244-71.4844 122.046-74.7314Q118.848-77.9785 112.646-77.9785L24.9512-77.9785Q18.8477-77.9785 15.6494-74.7803Q12.4512-71.582 12.4512-65.4297L12.4512-5.07812Q12.4512 1.07422 15.6494 4.27246Q18.8477 7.4707 24.9512 7.4707ZM25.0977 5.07812Q20.0195 5.07812 17.4316 2.46582Q14.8438-0.146484 14.8438-5.22461L14.8438-65.332Q14.8438-70.4102 17.4316-72.998Q20.0195-75.5859 25.0977-75.5859L112.549-75.5859Q117.432-75.5859 120.117-72.998Q122.803-70.4102 122.803-65.332L122.803-5.22461Q122.803-0.146484 120.117 2.46582Q117.432 5.07812 112.549 5.07812Z"/>
  </g>
  <g id="Black-S" transform="matrix(1 0 0 1 2877.35 696)">
   <path d="M36.7188-47.168L49.6094-47.168L49.6094-59.1797L36.7188-59.1797ZM62.4023-47.168L75.293-47.168L75.293-59.1797L62.4023-59.1797ZM23.9258-35.2051L36.7188-35.2051L36.7188-47.168L23.9258-47.168ZM49.6094-35.2051L62.4023-35.2051L62.4023-47.168L49.6094-47.168ZM75.293-35.2051L88.1836-35.2051L88.1836-47.168L75.293-47.168ZM36.7188-23.2422L49.6094-23.2422L49.6094-35.2051L36.7188-35.2051ZM62.4023-23.2422L75.293-23.2422L75.293-35.2051L62.4023-35.2051ZM23.9258-12.2559L24.8047-11.2305L36.7188-11.2305L36.7188-23.2422L23.9258-23.2422ZM49.6094-11.2305L62.4023-11.2305L62.4023-23.2422L49.6094-23.2422ZM75.293-11.2305L86.9629-11.2305L88.1836-12.3535L88.1836-23.2422L75.293-23.2422ZM25 2.92969L87.1094 2.92969Q94.2871 2.92969 98.3154-1.09863Q102.344-5.12695 102.344-12.3047L102.344-58.1055Q102.344-65.2832 98.3154-69.3115Q94.2871-73.3398 87.1094-73.3398L25-73.3398Q17.8223-73.3398 13.7939-69.3115Q9.76562-65.2832 9.76562-58.1055L9.76562-12.3047Q9.76562-5.12695 13.7939-1.09863Q17.8223 2.92969 25 2.92969ZM27.2461-11.2305Q25.5859-11.2305 24.7559-11.9873Q23.9258-12.7441 23.9258-14.5508L23.9258-55.8594Q23.9258-57.7148 24.7559-58.4473Q25.5859-59.1797 27.2461-59.1797L84.8633-59.1797Q86.5723-59.1797 87.3779-58.4473Q88.1836-57.7148 88.1836-55.8594L88.1836-14.5508Q88.1836-12.7441 87.3779-11.9873Q86.5723-11.2305 84.8633-11.2305Z"/>
  </g>
  <g id="Heavy-S" transform="matrix(1 0 0 1 2580.88 696)">
   <path d="M35.6445-47.7051L49.1211-47.7051L49.1211-60.2539L35.6445-60.2539ZM62.4512-47.7051L75.9277-47.7051L75.9277-60.2539L62.4512-60.2539ZM22.2656-35.2051L35.6445-35.2051L35.6445-47.7051L22.2656-47.7051ZM49.1211-35.2051L62.4512-35.2051L62.4512-47.7051L49.1211-47.7051ZM75.9277-35.2051L89.4043-35.2051L89.4043-47.7051L75.9277-47.7051ZM35.6445-22.7051L49.1211-22.7051L49.1211-35.2051L35.6445-35.2051ZM62.4512-22.7051L75.9277-22.7051L75.9277-35.2051L62.4512-35.2051ZM22.2656-11.2793L23.291-10.1562L35.6445-10.1562L35.6445-22.7051L22.2656-22.7051ZM49.1211-10.1562L62.4512-10.1562L62.4512-22.7051L49.1211-22.7051ZM75.9277-10.1562L88.0371-10.1562L89.4043-11.377L89.4043-22.7051L75.9277-22.7051ZM24.3652 2.34375L87.3047 2.34375Q94.2871 2.34375 98.0713-1.46484Q101.855-5.27344 101.855-12.207L101.855-58.2031Q101.855-65.1367 98.0713-68.9453Q94.2871-72.7539 87.3047-72.7539L24.3652-72.7539Q17.3828-72.7539 13.5742-68.9453Q9.76562-65.1367 9.76562-58.2031L9.76562-12.207Q9.76562-5.27344 13.5742-1.46484Q17.3828 2.34375 24.3652 2.34375ZM26.0742-10.1562Q24.1699-10.1562 23.2178-11.0596Q22.2656-11.9629 22.2656-14.0137L22.2656-56.3965Q22.2656-58.4961 23.2178-59.375Q24.1699-60.2539 26.0742-60.2539L85.5469-60.2539Q87.5-60.2539 88.4521-59.375Q89.4043-58.4961 89.4043-56.3965L89.4043-14.0137Q89.4043-11.9629 88.4521-11.0596Q87.5-10.1562 85.5469-10.1562Z"/>
  </g>
  <g id="Bold-S" transform="matrix(1 0 0 1 2284.41 696)">
   <path d="M34.4238-48.3398L48.5352-48.3398L48.5352-61.4746L34.4238-61.4746ZM62.5488-48.3398L76.6602-48.3398L76.6602-61.4746L62.5488-61.4746ZM20.3613-35.2051L34.4238-35.2051L34.4238-48.3398L20.3613-48.3398ZM48.5352-35.2051L62.5488-35.2051L62.5488-48.3398L48.5352-48.3398ZM76.6602-35.2051L90.7715-35.2051L90.7715-48.3398L76.6602-48.3398ZM34.4238-22.1191L48.5352-22.1191L48.5352-35.2051L34.4238-35.2051ZM62.5488-22.1191L76.6602-22.1191L76.6602-35.2051L62.5488-35.2051ZM20.3613-10.2051L21.6309-8.98438L34.4238-8.98438L34.4238-22.1191L20.3613-22.1191ZM48.5352-8.98438L62.5488-8.98438L62.5488-22.1191L48.5352-22.1191ZM76.6602-8.98438L89.3066-8.98438L90.7715-10.2539L90.7715-22.1191L76.6602-22.1191ZM23.6328 1.66016L87.5 1.66016Q94.2383 1.66016 97.8027-1.9043Q101.367-5.46875 101.367-12.1094L101.367-58.3008Q101.367-64.9902 97.8027-68.5303Q94.2383-72.0703 87.5-72.0703L23.6328-72.0703Q16.9434-72.0703 13.3545-68.5303Q9.76562-64.9902 9.76562-58.3008L9.76562-12.1094Q9.76562-5.46875 13.3545-1.9043Q16.9434 1.66016 23.6328 1.66016ZM24.8047-8.98438Q22.6562-8.98438 21.5088-10.0586Q20.3613-11.1328 20.3613-13.4277L20.3613-57.0312Q20.3613-59.3262 21.5088-60.4004Q22.6562-61.4746 24.8047-61.4746L86.3281-61.4746Q88.5254-61.4746 89.6484-60.4004Q90.7715-59.3262 90.7715-57.0312L90.7715-13.4277Q90.7715-11.1328 89.6484-10.0586Q88.5254-8.98438 86.3281-8.98438Z"/>
  </g>
  <g id="Semibold-S" transform="matrix(1 0 0 1 1987.9 696)">
   <path d="M33.5449-48.7793L48.1445-48.7793L48.1445-62.2559L33.5449-62.2559ZM62.5977-48.7793L77.1484-48.7793L77.1484-62.2559L62.5977-62.2559ZM19.043-35.2051L33.5449-35.2051L33.5449-48.7793L19.043-48.7793ZM48.1445-35.2051L62.5977-35.2051L62.5977-48.7793L48.1445-48.7793ZM77.1484-35.2051L91.6992-35.2051L91.6992-48.7793L77.1484-48.7793ZM33.5449-21.6797L48.1445-21.6797L48.1445-35.2051L33.5449-35.2051ZM62.5977-21.6797L77.1484-21.6797L77.1484-35.2051L62.5977-35.2051ZM19.043-9.47266L20.459-8.1543L33.5449-8.1543L33.5449-21.6797L19.043-21.6797ZM48.1445-8.1543L62.5977-8.1543L62.5977-21.6797L48.1445-21.6797ZM77.1484-8.1543L90.1367-8.1543L91.6992-9.47266L91.6992-21.6797L77.1484-21.6797ZM23.0957 1.2207L87.6465 1.2207Q94.2383 1.2207 97.6074-2.17285Q100.977-5.56641 100.977-12.0605L100.977-58.3496Q100.977-64.8438 97.6074-68.2373Q94.2383-71.6309 87.6465-71.6309L23.0957-71.6309Q16.6016-71.6309 13.1836-68.2373Q9.76562-64.8438 9.76562-58.3496L9.76562-12.0605Q9.76562-5.56641 13.1836-2.17285Q16.6016 1.2207 23.0957 1.2207ZM23.877-8.1543Q21.5332-8.1543 20.2881-9.35059Q19.043-10.5469 19.043-12.9883L19.043-57.4219Q19.043-59.9121 20.2881-61.084Q21.5332-62.2559 23.877-62.2559L86.8652-62.2559Q89.209-62.2559 90.4541-61.084Q91.6992-59.9121 91.6992-57.4219L91.6992-12.9883Q91.6992-10.5469 90.4541-9.35059Q89.209-8.1543 86.8652-8.1543Z"/>
  </g>
  <g id="Medium-S" transform="matrix(1 0 0 1 1691.33 696)">
   <path d="M32.9102-49.0723L47.8516-49.0723L47.8516-62.8906L32.9102-62.8906ZM62.6465-49.0723L77.5391-49.0723L77.5391-62.8906L62.6465-62.8906ZM18.0664-35.2051L32.9102-35.2051L32.9102-49.0723L18.0664-49.0723ZM47.8516-35.2051L62.6465-35.2051L62.6465-49.0723L47.8516-49.0723ZM77.5391-35.2051L92.4316-35.2051L92.4316-49.0723L77.5391-49.0723ZM32.9102-21.3379L47.8516-21.3379L47.8516-35.2051L32.9102-35.2051ZM62.6465-21.3379L77.5391-21.3379L77.5391-35.2051L62.6465-35.2051ZM18.0664-8.88672L19.5801-7.51953L32.9102-7.51953L32.9102-21.3379L18.0664-21.3379ZM47.8516-7.51953L62.6465-7.51953L62.6465-21.3379L47.8516-21.3379ZM77.5391-7.51953L90.7715-7.51953L92.4316-8.88672L92.4316-21.3379L77.5391-21.3379ZM22.7051 0.830078L87.7441 0.830078Q94.1895 0.830078 97.4365-2.41699Q100.684-5.66406 100.684-11.9629L100.684-58.4473Q100.684-64.7461 97.4365-67.9932Q94.1895-71.2402 87.7441-71.2402L22.7051-71.2402Q16.3574-71.2402 13.0615-67.9932Q9.76562-64.7461 9.76562-58.4473L9.76562-11.9629Q9.76562-5.66406 13.0615-2.41699Q16.3574 0.830078 22.7051 0.830078ZM23.1934-7.51953Q20.752-7.51953 19.4092-8.81348Q18.0664-10.1074 18.0664-12.6465L18.0664-57.7637Q18.0664-60.3516 19.4092-61.6211Q20.752-62.8906 23.1934-62.8906L87.2559-62.8906Q89.7461-62.8906 91.0645-61.6211Q92.3828-60.3516 92.3828-57.7637L92.3828-12.6465Q92.3828-10.1074 91.0645-8.81348Q89.7461-7.51953 87.2559-7.51953Z"/>
  </g>
  <g id="Regular-S" transform="matrix(1 0 0 1 1394.79 696)">
   <path d="M32.0801-49.5117L47.4609-49.5117L47.4609-63.7207L32.0801-63.7207ZM62.6953-49.5117L78.0273-49.5117L78.0273-63.7207L62.6953-63.7207ZM16.7969-35.2051L32.0801-35.2051L32.0801-49.5117L16.7969-49.5117ZM47.4609-35.2051L62.6953-35.2051L62.6953-49.5117L47.4609-49.5117ZM78.0273-35.2051L93.3594-35.2051L93.3594-49.5117L78.0273-49.5117ZM32.0801-20.9473L47.4609-20.9473L47.4609-35.2051L32.0801-35.2051ZM62.6953-20.9473L78.0273-20.9473L78.0273-35.2051L62.6953-35.2051ZM16.7969-8.1543L18.4082-6.68945L32.0801-6.68945L32.0801-20.9473L16.7969-20.9473ZM47.4609-6.68945L62.6953-6.68945L62.6953-20.9473L47.4609-20.9473ZM78.0273-6.68945L91.6016-6.68945L93.3594-8.1543L93.3594-20.9473L78.0273-20.9473ZM22.2168 0.390625L87.8906 0.390625Q94.1895 0.390625 97.2656-2.68555Q100.342-5.76172 100.342-11.9141L100.342-58.4961Q100.342-64.6484 97.2656-67.7246Q94.1895-70.8008 87.8906-70.8008L22.2168-70.8008Q16.0156-70.8008 12.8906-67.7246Q9.76562-64.6484 9.76562-58.4961L9.76562-11.9141Q9.76562-5.76172 12.8906-2.68555Q16.0156 0.390625 22.2168 0.390625ZM22.3145-6.68945Q19.6777-6.68945 18.2373-8.10547Q16.7969-9.52148 16.7969-12.2559L16.7969-58.1543Q16.7969-60.9375 18.2373-62.3291Q19.6777-63.7207 22.3145-63.7207L87.793-63.7207Q90.4297-63.7207 91.8701-62.3291Q93.3105-60.9375 93.3105-58.1543L93.3105-12.2559Q93.3105-9.52148 91.8701-8.10547Q90.4297-6.68945 87.793-6.68945Z"/>
  </g>
  <g id="Light-S" transform="matrix(1 0 0 1 1098.42 696)">
   <path d="M30.957-50L46.875-50L46.875-64.6484L30.957-64.6484ZM62.5977-50L78.418-50L78.418-64.6484L62.5977-64.6484ZM15.1855-35.1562L30.957-35.1562L30.957-50L15.1855-50ZM46.875-35.1562L62.5977-35.1562L62.5977-50L46.875-50ZM78.418-35.1562L94.2383-35.1562L94.2383-50L78.418-50ZM30.957-20.459L46.875-20.459L46.875-35.1562L30.957-35.1562ZM62.5977-20.459L78.418-20.459L78.418-35.1562L62.5977-35.1562ZM15.1855-7.51953L17.2363-5.71289L30.957-5.71289L30.957-20.459L15.1855-20.459ZM46.875-5.71289L62.5977-5.71289L62.5977-20.459L46.875-20.459ZM78.418-5.71289L91.9922-5.71289L94.2383-7.71484L94.2383-20.459L78.418-20.459ZM21.3867-0.292969L87.9883-0.292969Q93.8477-0.292969 96.7529-3.19824Q99.6582-6.10352 99.6582-11.8164L99.6582-58.5938Q99.6582-64.3066 96.7529-67.2363Q93.8477-70.166 87.9883-70.166L21.3867-70.166Q15.625-70.166 12.6953-67.2607Q9.76562-64.3555 9.76562-58.5938L9.76562-11.8164Q9.76562-6.10352 12.6953-3.19824Q15.625-0.292969 21.3867-0.292969ZM21.4844-5.76172Q18.457-5.76172 16.8213-7.37305Q15.1855-8.98438 15.1855-12.1094L15.1855-58.3496Q15.1855-61.5234 16.8213-63.1104Q18.457-64.6973 21.4844-64.6973L87.8906-64.6973Q90.918-64.6973 92.5781-63.1104Q94.2383-61.5234 94.2383-58.3496L94.2383-12.1094Q94.2383-8.98438 92.5781-7.37305Q90.918-5.76172 87.8906-5.76172Z"/>
  </g>
  <g id="Thin-S" transform="matrix(1 0 0 1 802.174 696)">
   <path d="M29.4922-50.5859L46.0449-50.5859L46.0449-65.918L29.4922-65.918ZM62.4023-50.5859L78.9551-50.5859L78.9551-65.918L62.4023-65.918ZM13.0859-35.1562L29.4922-35.1562L29.4922-50.5859L13.0859-50.5859ZM46.0449-35.1562L62.4023-35.1562L62.4023-50.5859L46.0449-50.5859ZM78.9551-35.1562L95.4102-35.1562L95.4102-50.5859L78.9551-50.5859ZM29.4922-19.8242L46.0449-19.8242L46.0449-35.1562L29.4922-35.1562ZM62.4023-19.8242L78.9551-19.8242L78.9551-35.1562L62.4023-35.1562ZM13.0859-6.68945L15.6738-4.44336L29.4922-4.44336L29.4922-19.8242L13.0859-19.8242ZM46.0449-4.44336L62.4023-4.44336L62.4023-19.8242L46.0449-19.8242ZM78.9551-4.44336L92.5293-4.44336L95.4102-7.08008L95.4102-19.8242L78.9551-19.8242ZM20.3125-1.17188L88.1836-1.17188Q93.4082-1.17188 96.0693-3.88184Q98.7305-6.5918 98.7305-11.7188L98.7305-58.7891Q98.7305-63.916 96.0693-66.6016Q93.4082-69.2871 88.1836-69.2871L20.3125-69.2871Q15.0879-69.2871 12.4268-66.626Q9.76562-63.9648 9.76562-58.7891L9.76562-11.7188Q9.76562-6.49414 12.4268-3.83301Q15.0879-1.17188 20.3125-1.17188ZM20.4102-4.49219Q16.7969-4.49219 14.9414-6.34766Q13.0859-8.20312 13.0859-11.8652L13.0859-58.5938Q13.0859-62.2559 14.9414-64.1113Q16.7969-65.9668 20.4102-65.9668L88.0859-65.9668Q91.6016-65.9668 93.5059-64.1113Q95.4102-62.2559 95.4102-58.5938L95.4102-11.8652Q95.4102-8.20312 93.5059-6.34766Q91.6016-4.49219 88.0859-4.49219Z"/>
  </g>
  <g id="Ultralight-S" transform="matrix(1 0 0 1 505.707 696)">
   <path d="M28.7109-50.9277L45.6543-50.9277L45.6543-66.5527L28.7109-66.5527ZM62.3535-50.9277L79.248-50.9277L79.248-66.5527L62.3535-66.5527ZM11.9629-35.1074L28.7109-35.1074L28.7109-50.9277L11.9629-50.9277ZM45.6543-35.1074L62.3535-35.1074L62.3535-50.9277L45.6543-50.9277ZM79.248-35.1074L96.0449-35.1074L96.0449-50.9277L79.248-50.9277ZM28.7109-19.4824L45.6543-19.4824L45.6543-35.1074L28.7109-35.1074ZM62.3535-19.4824L79.248-19.4824L79.248-35.1074L62.3535-35.1074ZM11.9629-6.29883L14.8438-3.75977L28.7109-3.75977L28.7109-19.4824L11.9629-19.4824ZM45.6543-3.75977L62.3535-3.75977L62.3535-19.4824L45.6543-19.4824ZM79.248-3.75977L92.8223-3.75977L96.0449-6.78711L96.0449-19.4824L79.248-19.4824ZM19.7754-1.66016L88.2324-1.66016Q93.2129-1.66016 95.7275-4.22363Q98.2422-6.78711 98.2422-11.6211L98.2422-58.8379Q98.2422-63.6719 95.7275-66.2598Q93.2129-68.8477 88.2324-68.8477L19.7754-68.8477Q14.8438-68.8477 12.3047-66.3086Q9.76562-63.7695 9.76562-58.8379L9.76562-11.6211Q9.76562-6.73828 12.3047-4.19922Q14.8438-1.66016 19.7754-1.66016ZM19.873-3.85742Q15.9668-3.85742 13.9648-5.85938Q11.9629-7.86133 11.9629-11.7676L11.9629-58.7402Q11.9629-62.6465 13.9648-64.6484Q15.9668-66.6504 19.873-66.6504L88.1348-66.6504Q91.9434-66.6504 93.9941-64.6484Q96.0449-62.6465 96.0449-58.7402L96.0449-11.7676Q96.0449-7.86133 93.9941-5.85938Q91.9434-3.85742 88.1348-3.85742Z"/>
  </g>
 </g>
</svg>
