<?xml version="1.0" encoding="UTF-8"?>
<!--Generator: Apple Native CoreSVG 175-->
<!DOCTYPE svg
PUBLIC "-//W3C//DTD SVG 1.1//EN"
       "http://www.w3.org/Graphics/SVG/1.1/DTD/svg11.dtd">
<svg version="1.1" xmlns="http://www.w3.org/2000/svg" xmlns:xlink="http://www.w3.org/1999/xlink" width="3300" height="2200">
 <!--glyph: "uni1003A5.medium", point size: 100.0, font version: "17.0d11e1", template writer version: "65.1"-->
 <g id="Notes">
  <rect height="2200" id="artboard" style="fill:white;opacity:1" width="3300" x="0" y="0"/>
  <line style="fill:none;stroke:black;opacity:1;stroke-width:0.5;" x1="263" x2="3036" y1="292" y2="292"/>
  <text style="stroke:none;fill:black;font-family:sans-serif;font-size:13;font-weight:bold;" transform="matrix(1 0 0 1 263 322)">Weight/Scale Variations</text>
  <text style="stroke:none;fill:black;font-family:sans-serif;font-size:13;text-anchor:middle;" transform="matrix(1 0 0 1 559.711 322)">Ultralight</text>
  <text style="stroke:none;fill:black;font-family:sans-serif;font-size:13;text-anchor:middle;" transform="matrix(1 0 0 1 856.422 322)">Thin</text>
  <text style="stroke:none;fill:black;font-family:sans-serif;font-size:13;text-anchor:middle;" transform="matrix(1 0 0 1 1153.13 322)">Light</text>
  <text style="stroke:none;fill:black;font-family:sans-serif;font-size:13;text-anchor:middle;" transform="matrix(1 0 0 1 1449.84 322)">Regular</text>
  <text style="stroke:none;fill:black;font-family:sans-serif;font-size:13;text-anchor:middle;" transform="matrix(1 0 0 1 1746.56 322)">Medium</text>
  <text style="stroke:none;fill:black;font-family:sans-serif;font-size:13;text-anchor:middle;" transform="matrix(1 0 0 1 2043.27 322)">Semibold</text>
  <text style="stroke:none;fill:black;font-family:sans-serif;font-size:13;text-anchor:middle;" transform="matrix(1 0 0 1 2339.98 322)">Bold</text>
  <text style="stroke:none;fill:black;font-family:sans-serif;font-size:13;text-anchor:middle;" transform="matrix(1 0 0 1 2636.69 322)">Heavy</text>
  <text style="stroke:none;fill:black;font-family:sans-serif;font-size:13;text-anchor:middle;" transform="matrix(1 0 0 1 2933.4 322)">Black</text>
  <line style="fill:none;stroke:black;opacity:1;stroke-width:0.5;" x1="263" x2="3036" y1="1903" y2="1903"/>
  <g transform="matrix(1 0 0 1 263 1933)">
   <path d="M9.24805 0.830078Q10.8691 0.830078 12.2949 0.214844Q13.7207-0.400391 14.8096-1.49414Q15.8984-2.58789 16.5186-4.01367Q17.1387-5.43945 17.1387-7.05078Q17.1387-8.66211 16.5186-10.0879Q15.8984-11.5137 14.8047-12.6074Q13.7109-13.7012 12.2852-14.3164Q10.8594-14.9316 9.23828-14.9316Q7.62695-14.9316 6.20117-14.3164Q4.77539-13.7012 3.69141-12.6074Q2.60742-11.5137 1.9873-10.0879Q1.36719-8.66211 1.36719-7.05078Q1.36719-5.43945 1.9873-4.01367Q2.60742-2.58789 3.69629-1.49414Q4.78516-0.400391 6.21094 0.214844Q7.63672 0.830078 9.24805 0.830078ZM9.24805-0.654297Q7.91992-0.654297 6.7627-1.14746Q5.60547-1.64062 4.73145-2.51953Q3.85742-3.39844 3.36426-4.56055Q2.87109-5.72266 2.87109-7.05078Q2.87109-8.37891 3.35938-9.54102Q3.84766-10.7031 4.72168-11.582Q5.5957-12.4609 6.75293-12.9541Q7.91016-13.4473 9.23828-13.4473Q10.5762-13.4473 11.7334-12.9541Q12.8906-12.4609 13.7695-11.582Q14.6484-10.7031 15.1465-9.54102Q15.6445-8.37891 15.6445-7.05078Q15.6445-5.72266 15.1514-4.56055Q14.6582-3.39844 13.7842-2.51953Q12.9102-1.64062 11.748-1.14746Q10.5859-0.654297 9.24805-0.654297ZM5.6543-7.05078Q5.6543-6.72852 5.85938-6.52832Q6.06445-6.32812 6.40625-6.32812L8.51562-6.32812L8.51562-4.20898Q8.51562-3.88672 8.71094-3.67676Q8.90625-3.4668 9.23828-3.4668Q9.56055-3.4668 9.77051-3.67676Q9.98047-3.88672 9.98047-4.20898L9.98047-6.32812L12.0898-6.32812Q12.4219-6.32812 12.627-6.52832Q12.832-6.72852 12.832-7.05078Q12.832-7.38281 12.627-7.58789Q12.4219-7.79297 12.0898-7.79297L9.98047-7.79297L9.98047-9.90234Q9.98047-10.2344 9.77051-10.4443Q9.56055-10.6543 9.23828-10.6543Q8.90625-10.6543 8.71094-10.4443Q8.51562-10.2344 8.51562-9.90234L8.51562-7.79297L6.40625-7.79297Q6.06445-7.79297 5.85938-7.58789Q5.6543-7.38281 5.6543-7.05078Z"/>
  </g>
  <g transform="matrix(1 0 0 1 281.867 1933)">
   <path d="M11.709 2.91016Q13.75 2.91016 15.5518 2.12891Q17.3535 1.34766 18.7305-0.0292969Q20.1074-1.40625 20.8887-3.20801Q21.6699-5.00977 21.6699-7.05078Q21.6699-9.0918 20.8887-10.8936Q20.1074-12.6953 18.7305-14.0723Q17.3535-15.4492 15.5469-16.2305Q13.7402-17.0117 11.6992-17.0117Q9.6582-17.0117 7.85645-16.2305Q6.05469-15.4492 4.68262-14.0723Q3.31055-12.6953 2.5293-10.8936Q1.74805-9.0918 1.74805-7.05078Q1.74805-5.00977 2.5293-3.20801Q3.31055-1.40625 4.6875-0.0292969Q6.06445 1.34766 7.86621 2.12891Q9.66797 2.91016 11.709 2.91016ZM11.709 1.25Q9.98047 1.25 8.47656 0.605469Q6.97266-0.0390625 5.83496-1.17676Q4.69727-2.31445 4.05762-3.81836Q3.41797-5.32227 3.41797-7.05078Q3.41797-8.7793 4.05762-10.2832Q4.69727-11.7871 5.83008-12.9297Q6.96289-14.0723 8.4668-14.7119Q9.9707-15.3516 11.6992-15.3516Q13.4277-15.3516 14.9316-14.7119Q16.4355-14.0723 17.5781-12.9297Q18.7207-11.7871 19.3652-10.2832Q20.0098-8.7793 20.0098-7.05078Q20.0098-5.32227 19.3701-3.81836Q18.7305-2.31445 17.5928-1.17676Q16.4551-0.0390625 14.9463 0.605469Q13.4375 1.25 11.709 1.25ZM7.17773-7.05078Q7.17773-6.69922 7.41211-6.47461Q7.64648-6.25 8.01758-6.25L10.8887-6.25L10.8887-3.36914Q10.8887-2.99805 11.1133-2.76855Q11.3379-2.53906 11.6895-2.53906Q12.0605-2.53906 12.29-2.76855Q12.5195-2.99805 12.5195-3.36914L12.5195-6.25L15.4004-6.25Q15.7715-6.25 16.001-6.47461Q16.2305-6.69922 16.2305-7.05078Q16.2305-7.42188 16.001-7.65137Q15.7715-7.88086 15.4004-7.88086L12.5195-7.88086L12.5195-10.752Q12.5195-11.1328 12.29-11.3623Q12.0605-11.5918 11.6895-11.5918Q11.3379-11.5918 11.1133-11.3574Q10.8887-11.123 10.8887-10.752L10.8887-7.88086L8.01758-7.88086Q7.63672-7.88086 7.40723-7.65137Q7.17773-7.42188 7.17773-7.05078Z"/>
  </g>
  <g transform="matrix(1 0 0 1 305.646 1933)">
   <path d="M14.9707 5.66406Q17.0605 5.66406 18.96 5.01465Q20.8594 4.36523 22.4512 3.19336Q24.043 2.02148 25.2197 0.429688Q26.3965-1.16211 27.0459-3.06641Q27.6953-4.9707 27.6953-7.05078Q27.6953-9.14062 27.0459-11.04Q26.3965-12.9395 25.2197-14.5312Q24.043-16.123 22.4512-17.2998Q20.8594-18.4766 18.9551-19.126Q17.0508-19.7754 14.9609-19.7754Q12.8711-19.7754 10.9717-19.126Q9.07227-18.4766 7.48535-17.2998Q5.89844-16.123 4.72168-14.5312Q3.54492-12.9395 2.90039-11.04Q2.25586-9.14062 2.25586-7.05078Q2.25586-4.9707 2.90527-3.06641Q3.55469-1.16211 4.72656 0.429688Q5.89844 2.02148 7.49023 3.19336Q9.08203 4.36523 10.9814 5.01465Q12.8809 5.66406 14.9707 5.66406ZM14.9707 3.84766Q13.1641 3.84766 11.5283 3.2959Q9.89258 2.74414 8.53516 1.74805Q7.17773 0.751953 6.17676-0.610352Q5.17578-1.97266 4.62891-3.6084Q4.08203-5.24414 4.08203-7.05078Q4.08203-8.86719 4.62891-10.5029Q5.17578-12.1387 6.17188-13.501Q7.16797-14.8633 8.52539-15.8594Q9.88281-16.8555 11.5186-17.4023Q13.1543-17.9492 14.9609-17.9492Q16.7773-17.9492 18.4131-17.4023Q20.0488-16.8555 21.4111-15.8594Q22.7734-14.8633 23.7695-13.501Q24.7656-12.1387 25.3174-10.5029Q25.8691-8.86719 25.8691-7.05078Q25.8789-5.24414 25.332-3.6084Q24.7852-1.97266 23.7842-0.610352Q22.7832 0.751953 21.4209 1.74805Q20.0586 2.74414 18.4229 3.2959Q16.7871 3.84766 14.9707 3.84766ZM9.19922-7.05078Q9.19922-6.66992 9.45801-6.4209Q9.7168-6.17188 10.1172-6.17188L14.0625-6.17188L14.0625-2.2168Q14.0625-1.81641 14.3115-1.55762Q14.5605-1.29883 14.9512-1.29883Q15.3516-1.29883 15.6104-1.55273Q15.8691-1.80664 15.8691-2.2168L15.8691-6.17188L19.8242-6.17188Q20.2246-6.17188 20.4785-6.4209Q20.7324-6.66992 20.7324-7.05078Q20.7324-7.46094 20.4785-7.71484Q20.2246-7.96875 19.8242-7.96875L15.8691-7.96875L15.8691-11.9141Q15.8691-12.3242 15.6104-12.583Q15.3516-12.8418 14.9512-12.8418Q14.5605-12.8418 14.3115-12.583Q14.0625-12.3242 14.0625-11.9141L14.0625-7.96875L10.1172-7.96875Q9.70703-7.96875 9.45312-7.71484Q9.19922-7.46094 9.19922-7.05078Z"/>
  </g>
  <text style="stroke:none;fill:black;font-family:sans-serif;font-size:13;font-weight:bold;" transform="matrix(1 0 0 1 263 1953)">Design Variations</text>
  <text style="stroke:none;fill:black;font-family:sans-serif;font-size:13;" transform="matrix(1 0 0 1 263 1971)">Symbols are supported in up to nine weights and three scales.</text>
  <text style="stroke:none;fill:black;font-family:sans-serif;font-size:13;" transform="matrix(1 0 0 1 263 1989)">For optimal layout with text and other symbols, vertically align</text>
  <text style="stroke:none;fill:black;font-family:sans-serif;font-size:13;" transform="matrix(1 0 0 1 263 2007)">symbols with the adjacent text.</text>
  <line style="fill:none;stroke:#00AEEF;stroke-width:0.5;opacity:1.0;" x1="776" x2="776" y1="1919" y2="1933"/>
  <g transform="matrix(1 0 0 1 776 1933)">
   <path d="M3.31055 0.15625Q3.70117 0.15625 3.91602-0.00976562Q4.13086-0.175781 4.26758-0.585938L5.52734-4.0332L11.2891-4.0332L12.5488-0.585938Q12.6855-0.175781 12.9004-0.00976562Q13.1152 0.15625 13.4961 0.15625Q13.8867 0.15625 14.1162-0.0585938Q14.3457-0.273438 14.3457-0.644531Q14.3457-0.869141 14.2383-1.17188L9.6582-13.3691Q9.48242-13.8184 9.17969-14.043Q8.87695-14.2676 8.4082-14.2676Q7.5-14.2676 7.17773-13.3789L2.59766-1.16211Q2.49023-0.859375 2.49023-0.634766Q2.49023-0.263672 2.70996-0.0537109Q2.92969 0.15625 3.31055 0.15625ZM6.00586-5.51758L8.37891-12.0898L8.42773-12.0898L10.8008-5.51758Z"/>
  </g>
  <line style="fill:none;stroke:#00AEEF;stroke-width:0.5;opacity:1.0;" x1="793.197" x2="793.197" y1="1919" y2="1933"/>
  <text style="stroke:none;fill:black;font-family:sans-serif;font-size:13;font-weight:bold;" transform="matrix(1 0 0 1 776 1953)">Margins</text>
  <text style="stroke:none;fill:black;font-family:sans-serif;font-size:13;" transform="matrix(1 0 0 1 776 1971)">Leading and trailing margins on the left and right side of each symbol</text>
  <text style="stroke:none;fill:black;font-family:sans-serif;font-size:13;" transform="matrix(1 0 0 1 776 1989)">can be adjusted by modifying the x-location of the margin guidelines.</text>
  <text style="stroke:none;fill:black;font-family:sans-serif;font-size:13;" transform="matrix(1 0 0 1 776 2007)">Modifications are automatically applied proportionally to all</text>
  <text style="stroke:none;fill:black;font-family:sans-serif;font-size:13;" transform="matrix(1 0 0 1 776 2025)">scales and weights.</text>
  <g transform="matrix(1 0 0 1 1289 1933)">
   <path d="M2.8418 1.86523L4.54102 3.57422Q5.18555 4.22852 5.90332 4.17969Q6.62109 4.13086 7.31445 3.35938L18.0078-8.42773L17.041-9.4043L6.42578 2.27539Q6.16211 2.57812 5.89355 2.61719Q5.625 2.65625 5.27344 2.30469L4.10156 1.14258Q3.75 0.791016 3.79395 0.522461Q3.83789 0.253906 4.14062-0.0195312L15.6152-10.8203L14.6387-11.7871L3.04688-0.898438Q2.30469-0.214844 2.25098 0.498047Q2.19727 1.21094 2.8418 1.86523ZM9.25781-16.3281Q8.94531-16.0254 8.90625-15.6348Q8.86719-15.2441 9.04297-14.9512Q9.21875-14.6777 9.55566-14.541Q9.89258-14.4043 10.3809-14.5215Q11.4746-14.7754 12.5977-14.7314Q13.7207-14.6875 14.7949-13.9844L14.209-12.5293Q13.9551-11.9043 14.0674-11.4404Q14.1797-10.9766 14.5801-10.5664L16.875-8.25195Q17.2363-7.88086 17.5781-7.82227Q17.9199-7.76367 18.3398-7.8418L19.4043-8.03711L20.0684-7.36328L20.0293-6.80664Q20-6.43555 20.1221-6.12305Q20.2441-5.81055 20.6055-5.44922L21.3672-4.70703Q21.7285-4.3457 22.1533-4.33105Q22.5781-4.31641 22.9297-4.66797L25.8398-7.58789Q26.1914-7.93945 26.1816-8.35449Q26.1719-8.76953 25.8105-9.13086L25.0391-9.89258Q24.6875-10.2539 24.3799-10.3857Q24.0723-10.5176 23.7109-10.4883L23.1348-10.4395L22.4902-11.0742L22.7344-12.1973Q22.832-12.6172 22.6953-12.9834Q22.5586-13.3496 22.1191-13.7891L19.9219-15.9766Q18.6719-17.2168 17.2607-17.8369Q15.8496-18.457 14.4189-18.4814Q12.9883-18.5059 11.665-17.959Q10.3418-17.4121 9.25781-16.3281ZM10.752-15.957Q11.6602-16.6211 12.7002-16.9043Q13.7402-17.1875 14.8047-17.085Q15.8691-16.9824 16.8701-16.5137Q17.8711-16.0449 18.7012-15.2051L21.1328-12.793Q21.3086-12.6172 21.3525-12.4512Q21.3965-12.2852 21.3379-12.0312L21.0156-10.5469L22.5195-9.0625L23.5059-9.12109Q23.6914-9.13086 23.7891-9.09668Q23.8867-9.0625 24.0332-8.91602L24.6094-8.33984L22.168-5.89844L21.5918-6.47461Q21.4453-6.62109 21.4062-6.71875Q21.3672-6.81641 21.377-7.01172L21.4453-7.98828L19.9512-9.47266L18.4277-9.21875Q18.1836-9.16992 18.042-9.2041Q17.9004-9.23828 17.7148-9.41406L15.7129-11.416Q15.5176-11.5918 15.4932-11.7529Q15.4688-11.9141 15.5859-12.1875L16.4648-14.2773Q15.293-15.3711 13.8281-15.791Q12.3633-16.2109 10.8398-15.7617Q10.7227-15.7324 10.6885-15.8057Q10.6543-15.8789 10.752-15.957Z"/>
  </g>
  <text style="stroke:none;fill:black;font-family:sans-serif;font-size:13;font-weight:bold;" transform="matrix(1 0 0 1 1289 1953)">Exporting</text>
  <text style="stroke:none;fill:black;font-family:sans-serif;font-size:13;" transform="matrix(1 0 0 1 1289 1971)">Symbols should be outlined when exporting to ensure the</text>
  <text style="stroke:none;fill:black;font-family:sans-serif;font-size:13;" transform="matrix(1 0 0 1 1289 1989)">design is preserved when submitting to Xcode.</text>
  <text id="template-version" style="stroke:none;fill:black;font-family:sans-serif;font-size:13;text-anchor:end;" transform="matrix(1 0 0 1 3036 1933)">Template v.3.0</text>
  <text style="stroke:none;fill:black;font-family:sans-serif;font-size:13;text-anchor:end;" transform="matrix(1 0 0 1 3036 1951)">Requires Xcode 13 or greater</text>
  <text id="descriptive-name" style="stroke:none;fill:black;font-family:sans-serif;font-size:13;text-anchor:end;" transform="matrix(1 0 0 1 3036 1969)">Generated from lock.open.fill</text>
  <text style="stroke:none;fill:black;font-family:sans-serif;font-size:13;text-anchor:end;" transform="matrix(1 0 0 1 3036 1987)">Typeset at 100 points</text>
  <text style="stroke:none;fill:black;font-family:sans-serif;font-size:13;" transform="matrix(1 0 0 1 263 726)">Small</text>
  <text style="stroke:none;fill:black;font-family:sans-serif;font-size:13;" transform="matrix(1 0 0 1 263 1156)">Medium</text>
  <text style="stroke:none;fill:black;font-family:sans-serif;font-size:13;" transform="matrix(1 0 0 1 263 1586)">Large</text>
 </g>
 <g id="Guides">
  <g id="H-reference" style="fill:#27AAE1;stroke:none;" transform="matrix(1 0 0 1 339 696)">
   <path d="M0.976562 0L3.66211 0L29.3457-67.1387L30.0293-67.1387L30.0293-70.459L28.125-70.459ZM11.6699-24.4629L46.9727-24.4629L46.2402-26.709L12.4512-26.709ZM55.127 0L57.7637 0L30.6152-70.459L29.4434-70.459L29.4434-67.1387Z"/>
  </g>
  <line id="Baseline-S" style="fill:none;stroke:#27AAE1;opacity:1;stroke-width:0.5;" x1="263" x2="3036" y1="696" y2="696"/>
  <line id="Capline-S" style="fill:none;stroke:#27AAE1;opacity:1;stroke-width:0.5;" x1="263" x2="3036" y1="625.541" y2="625.541"/>
  <g id="H-reference" style="fill:#27AAE1;stroke:none;" transform="matrix(1 0 0 1 339 1126)">
   <path d="M0.976562 0L3.66211 0L29.3457-67.1387L30.0293-67.1387L30.0293-70.459L28.125-70.459ZM11.6699-24.4629L46.9727-24.4629L46.2402-26.709L12.4512-26.709ZM55.127 0L57.7637 0L30.6152-70.459L29.4434-70.459L29.4434-67.1387Z"/>
  </g>
  <line id="Baseline-M" style="fill:none;stroke:#27AAE1;opacity:1;stroke-width:0.5;" x1="263" x2="3036" y1="1126" y2="1126"/>
  <line id="Capline-M" style="fill:none;stroke:#27AAE1;opacity:1;stroke-width:0.5;" x1="263" x2="3036" y1="1055.54" y2="1055.54"/>
  <g id="H-reference" style="fill:#27AAE1;stroke:none;" transform="matrix(1 0 0 1 339 1556)">
   <path d="M0.976562 0L3.66211 0L29.3457-67.1387L30.0293-67.1387L30.0293-70.459L28.125-70.459ZM11.6699-24.4629L46.9727-24.4629L46.2402-26.709L12.4512-26.709ZM55.127 0L57.7637 0L30.6152-70.459L29.4434-70.459L29.4434-67.1387Z"/>
  </g>
  <line id="Baseline-L" style="fill:none;stroke:#27AAE1;opacity:1;stroke-width:0.5;" x1="263" x2="3036" y1="1556" y2="1556"/>
  <line id="Capline-L" style="fill:none;stroke:#27AAE1;opacity:1;stroke-width:0.5;" x1="263" x2="3036" y1="1485.54" y2="1485.54"/>
  <line id="left-margin-Ultralight-S" style="fill:none;stroke:#00AEEF;stroke-width:0.5;opacity:1.0;" x1="509.443" x2="509.443" y1="600.785" y2="720.121"/>
  <line id="right-margin-Ultralight-S" style="fill:none;stroke:#00AEEF;stroke-width:0.5;opacity:1.0;" x1="609.98" x2="609.98" y1="600.785" y2="720.121"/>
  <line id="left-margin-Thin-S" style="fill:none;stroke:#00AEEF;stroke-width:0.5;opacity:1.0;" x1="806.544" x2="806.544" y1="600.785" y2="720.121"/>
  <line id="right-margin-Thin-S" style="fill:none;stroke:#00AEEF;stroke-width:0.5;opacity:1.0;" x1="906.3" x2="906.3" y1="600.785" y2="720.121"/>
  <line id="left-margin-Light-S" style="fill:none;stroke:#00AEEF;stroke-width:0.5;opacity:1.0;" x1="1104.01" x2="1104.01" y1="600.785" y2="720.121"/>
  <line id="right-margin-Light-S" style="fill:none;stroke:#00AEEF;stroke-width:0.5;opacity:1.0;" x1="1202.25" x2="1202.25" y1="600.785" y2="720.121"/>
  <line id="left-margin-Regular-S" style="fill:none;stroke:#00AEEF;stroke-width:0.5;opacity:1.0;" x1="1401.28" x2="1401.28" y1="600.785" y2="720.121"/>
  <line id="right-margin-Regular-S" style="fill:none;stroke:#00AEEF;stroke-width:0.5;opacity:1.0;" x1="1498.4" x2="1498.4" y1="600.785" y2="720.121"/>
  <line id="left-margin-Medium-S" style="fill:none;stroke:#00AEEF;stroke-width:0.5;opacity:1.0;" x1="1697.65" x2="1697.65" y1="600.785" y2="720.121"/>
  <line id="right-margin-Medium-S" style="fill:none;stroke:#00AEEF;stroke-width:0.5;opacity:1.0;" x1="1795.46" x2="1795.46" y1="600.785" y2="720.121"/>
  <line id="left-margin-Semibold-S" style="fill:none;stroke:#00AEEF;stroke-width:0.5;opacity:1.0;" x1="1994.12" x2="1994.12" y1="600.785" y2="720.121"/>
  <line id="right-margin-Semibold-S" style="fill:none;stroke:#00AEEF;stroke-width:0.5;opacity:1.0;" x1="2092.41" x2="2092.41" y1="600.785" y2="720.121"/>
  <line id="left-margin-Bold-S" style="fill:none;stroke:#00AEEF;stroke-width:0.5;opacity:1.0;" x1="2290.49" x2="2290.49" y1="600.785" y2="720.121"/>
  <line id="right-margin-Bold-S" style="fill:none;stroke:#00AEEF;stroke-width:0.5;opacity:1.0;" x1="2389.47" x2="2389.47" y1="600.785" y2="720.121"/>
  <line id="left-margin-Heavy-S" style="fill:none;stroke:#00AEEF;stroke-width:0.5;opacity:1.0;" x1="2586.71" x2="2586.71" y1="600.785" y2="720.121"/>
  <line id="right-margin-Heavy-S" style="fill:none;stroke:#00AEEF;stroke-width:0.5;opacity:1.0;" x1="2686.66" x2="2686.66" y1="600.785" y2="720.121"/>
  <line id="left-margin-Black-S" style="fill:none;stroke:#00AEEF;stroke-width:0.5;opacity:1.0;" x1="2882.98" x2="2882.98" y1="600.785" y2="720.121"/>
  <line id="right-margin-Black-S" style="fill:none;stroke:#00AEEF;stroke-width:0.5;opacity:1.0;" x1="2983.82" x2="2983.82" y1="600.785" y2="720.121"/>
  <line id="left-margin-Ultralight-M" style="fill:none;stroke:#00AEEF;stroke-width:0.5;opacity:1.0;" x1="495.429" x2="495.429" y1="1030.79" y2="1150.12"/>
  <line id="right-margin-Ultralight-M" style="fill:none;stroke:#00AEEF;stroke-width:0.5;opacity:1.0;" x1="623.993" x2="623.993" y1="1030.79" y2="1150.12"/>
  <line id="left-margin-Thin-M" style="fill:none;stroke:#00AEEF;stroke-width:0.5;opacity:1.0;" x1="792.579" x2="792.579" y1="1030.79" y2="1150.12"/>
  <line id="right-margin-Thin-M" style="fill:none;stroke:#00AEEF;stroke-width:0.5;opacity:1.0;" x1="920.265" x2="920.265" y1="1030.79" y2="1150.12"/>
  <line id="left-margin-Light-M" style="fill:none;stroke:#00AEEF;stroke-width:0.5;opacity:1.0;" x1="1090.15" x2="1090.15" y1="1030.79" y2="1150.12"/>
  <line id="right-margin-Light-M" style="fill:none;stroke:#00AEEF;stroke-width:0.5;opacity:1.0;" x1="1216.12" x2="1216.12" y1="1030.79" y2="1150.12"/>
  <line id="left-margin-Regular-M" style="fill:none;stroke:#00AEEF;stroke-width:0.5;opacity:1.0;" x1="1387.49" x2="1387.49" y1="1030.79" y2="1150.12"/>
  <line id="right-margin-Regular-M" style="fill:none;stroke:#00AEEF;stroke-width:0.5;opacity:1.0;" x1="1512.2" x2="1512.2" y1="1030.79" y2="1150.12"/>
  <line id="left-margin-Medium-M" style="fill:none;stroke:#00AEEF;stroke-width:0.5;opacity:1.0;" x1="1683.88" x2="1683.88" y1="1030.79" y2="1150.12"/>
  <line id="right-margin-Medium-M" style="fill:none;stroke:#00AEEF;stroke-width:0.5;opacity:1.0;" x1="1809.23" x2="1809.23" y1="1030.79" y2="1150.12"/>
  <line id="left-margin-Semibold-M" style="fill:none;stroke:#00AEEF;stroke-width:0.5;opacity:1.0;" x1="1980.35" x2="1980.35" y1="1030.79" y2="1150.12"/>
  <line id="right-margin-Semibold-M" style="fill:none;stroke:#00AEEF;stroke-width:0.5;opacity:1.0;" x1="2106.18" x2="2106.18" y1="1030.79" y2="1150.12"/>
  <line id="left-margin-Bold-M" style="fill:none;stroke:#00AEEF;stroke-width:0.5;opacity:1.0;" x1="2276.72" x2="2276.72" y1="1030.79" y2="1150.12"/>
  <line id="right-margin-Bold-M" style="fill:none;stroke:#00AEEF;stroke-width:0.5;opacity:1.0;" x1="2403.23" x2="2403.23" y1="1030.79" y2="1150.12"/>
  <line id="left-margin-Heavy-M" style="fill:none;stroke:#00AEEF;stroke-width:0.5;opacity:1.0;" x1="2572.97" x2="2572.97" y1="1030.79" y2="1150.12"/>
  <line id="right-margin-Heavy-M" style="fill:none;stroke:#00AEEF;stroke-width:0.5;opacity:1.0;" x1="2700.41" x2="2700.41" y1="1030.79" y2="1150.12"/>
  <line id="left-margin-Black-M" style="fill:none;stroke:#00AEEF;stroke-width:0.5;opacity:1.0;" x1="2869.26" x2="2869.26" y1="1030.79" y2="1150.12"/>
  <line id="right-margin-Black-M" style="fill:none;stroke:#00AEEF;stroke-width:0.5;opacity:1.0;" x1="2997.54" x2="2997.54" y1="1030.79" y2="1150.12"/>
  <line id="left-margin-Ultralight-L" style="fill:none;stroke:#00AEEF;stroke-width:0.5;opacity:1.0;" x1="476.606" x2="476.606" y1="1460.79" y2="1580.12"/>
  <line id="right-margin-Ultralight-L" style="fill:none;stroke:#00AEEF;stroke-width:0.5;opacity:1.0;" x1="642.817" x2="642.817" y1="1460.79" y2="1580.12"/>
  <line id="left-margin-Thin-L" style="fill:none;stroke:#00AEEF;stroke-width:0.5;opacity:1.0;" x1="773.781" x2="773.781" y1="1460.79" y2="1580.12"/>
  <line id="right-margin-Thin-L" style="fill:none;stroke:#00AEEF;stroke-width:0.5;opacity:1.0;" x1="939.064" x2="939.064" y1="1460.79" y2="1580.12"/>
  <line id="left-margin-Light-L" style="fill:none;stroke:#00AEEF;stroke-width:0.5;opacity:1.0;" x1="1071.44" x2="1071.44" y1="1460.79" y2="1580.12"/>
  <line id="right-margin-Light-L" style="fill:none;stroke:#00AEEF;stroke-width:0.5;opacity:1.0;" x1="1234.82" x2="1234.82" y1="1460.79" y2="1580.12"/>
  <line id="left-margin-Regular-L" style="fill:none;stroke:#00AEEF;stroke-width:0.5;opacity:1.0;" x1="1368.86" x2="1368.86" y1="1460.79" y2="1580.12"/>
  <line id="right-margin-Regular-L" style="fill:none;stroke:#00AEEF;stroke-width:0.5;opacity:1.0;" x1="1530.83" x2="1530.83" y1="1460.79" y2="1580.12"/>
  <line id="left-margin-Medium-L" style="fill:none;stroke:#00AEEF;stroke-width:0.5;opacity:1.0;" x1="1665.38" x2="1665.38" y1="1460.79" y2="1580.12"/>
  <line id="right-margin-Medium-L" style="fill:none;stroke:#00AEEF;stroke-width:0.5;opacity:1.0;" x1="1827.73" x2="1827.73" y1="1460.79" y2="1580.12"/>
  <line id="left-margin-Semibold-L" style="fill:none;stroke:#00AEEF;stroke-width:0.5;opacity:1.0;" x1="1961.92" x2="1961.92" y1="1460.79" y2="1580.12"/>
  <line id="right-margin-Semibold-L" style="fill:none;stroke:#00AEEF;stroke-width:0.5;opacity:1.0;" x1="2124.61" x2="2124.61" y1="1460.79" y2="1580.12"/>
  <line id="left-margin-Bold-L" style="fill:none;stroke:#00AEEF;stroke-width:0.5;opacity:1.0;" x1="2258.41" x2="2258.41" y1="1460.79" y2="1580.12"/>
  <line id="right-margin-Bold-L" style="fill:none;stroke:#00AEEF;stroke-width:0.5;opacity:1.0;" x1="2421.55" x2="2421.55" y1="1460.79" y2="1580.12"/>
  <line id="left-margin-Heavy-L" style="fill:none;stroke:#00AEEF;stroke-width:0.5;opacity:1.0;" x1="2554.83" x2="2554.83" y1="1460.79" y2="1580.12"/>
  <line id="right-margin-Heavy-L" style="fill:none;stroke:#00AEEF;stroke-width:0.5;opacity:1.0;" x1="2718.55" x2="2718.55" y1="1460.79" y2="1580.12"/>
  <line id="left-margin-Black-L" style="fill:none;stroke:#00AEEF;stroke-width:0.5;opacity:1.0;" x1="2851.27" x2="2851.27" y1="1460.79" y2="1580.12"/>
  <line id="right-margin-Black-L" style="fill:none;stroke:#00AEEF;stroke-width:0.5;opacity:1.0;" x1="3015.53" x2="3015.53" y1="1460.79" y2="1580.12"/>
 </g>
 <g id="Symbols">
  <g id="Black-L" transform="matrix(1 0 0 1 2851.27 1556)">
   <path d="M30.2734 28.418L94.4824 28.418Q101.66 28.418 105.176 24.7559Q108.691 21.0938 108.691 13.3301L108.691-36.2793Q108.691-43.9453 105.176-47.6074Q101.66-51.2695 94.4824-51.2695L30.7129-51.2207Q23.584-51.2207 19.8242-47.583Q16.0645-43.9453 16.0645-36.2793L16.0645 13.3301Q16.0645 21.0938 19.6045 24.7559Q23.1445 28.418 30.2734 28.418ZM78.6621-45.6543L97.168-45.6543L97.168-66.6016Q97.168-72.2168 99.292-76.2207Q101.416-80.2246 105.103-82.373Q108.789-84.5215 113.428-84.5215Q118.066-84.5215 121.753-82.373Q125.439-80.2246 127.588-76.2207Q129.736-72.2168 129.736-66.6016L129.736-55.3711Q129.736-50.293 132.373-47.583Q135.01-44.873 138.965-44.873Q142.92-44.873 145.557-47.5586Q148.193-50.2441 148.193-55.3711L148.193-65.7715Q148.193-75.0977 145.239-81.9824Q142.285-88.8672 137.305-93.4082Q132.324-97.9492 126.123-100.195Q119.922-102.441 113.428-102.441Q106.934-102.441 100.732-100.195Q94.5312-97.9492 89.5508-93.4082Q84.5703-88.8672 81.6162-81.9824Q78.6621-75.0977 78.6621-65.7715Z"/>
  </g>
  <g id="Heavy-L" transform="matrix(1 0 0 1 2554.83 1556)">
   <path d="M29.7852 27.4902L93.0176 27.4902Q99.9512 27.4902 103.32 23.9502Q106.689 20.4102 106.689 12.9395L106.689-35.9863Q106.689-43.3594 103.32-46.8994Q99.9512-50.4395 93.0176-50.4395L30.3223-50.3906Q23.4375-50.3906 19.751-46.875Q16.0645-43.3594 16.0645-35.9863L16.0645 12.9395Q16.0645 20.4102 19.4824 23.9502Q22.9004 27.4902 29.7852 27.4902ZM79.541-45.2637L95.752-45.2637L95.752-66.0156Q95.752-72.2168 98.0957-76.6113Q100.439-81.0059 104.492-83.3496Q108.545-85.6934 113.623-85.6934Q118.652-85.6934 122.705-83.3496Q126.758-81.0059 129.126-76.6113Q131.494-72.2168 131.494-66.0156L131.494-54.1504Q131.494-49.707 133.813-47.3633Q136.133-45.0195 139.6-45.0195Q143.018-45.0195 145.337-47.3389Q147.656-49.6582 147.656-54.1504L147.656-65.1367Q147.656-74.2676 144.8-81.0547Q141.943-87.8418 137.085-92.3584Q132.227-96.875 126.147-99.0967Q120.068-101.318 113.623-101.318Q107.129-101.318 101.05-99.0967Q94.9707-96.875 90.1367-92.3584Q85.3027-87.8418 82.4219-81.0547Q79.541-74.2676 79.541-65.1367Z"/>
  </g>
  <g id="Bold-L" transform="matrix(1 0 0 1 2258.41 1556)">
   <path d="M29.1992 26.416L91.4062 26.416Q97.998 26.416 101.245 23.0469Q104.492 19.6777 104.492 12.5L104.492-35.6445Q104.492-42.7734 101.245-46.1426Q97.998-49.5117 91.4062-49.5117L29.9316-49.4141Q23.3398-49.4141 19.7021-46.0693Q16.0645-42.7246 16.0645-35.6445L16.0645 12.5Q16.0645 19.6777 19.3359 23.0469Q22.6074 26.416 29.1992 26.416ZM80.5664-44.873L94.1895-44.873L94.1895-65.3809Q94.1895-72.2168 96.8018-77.0752Q99.4141-81.9336 103.857-84.4971Q108.301-87.0605 113.818-87.0605Q119.336-87.0605 123.804-84.4971Q128.271-81.9336 130.884-77.0752Q133.496-72.2168 133.496-65.3809L133.496-52.7832Q133.496-49.0723 135.449-47.1191Q137.402-45.166 140.332-45.166Q143.164-45.166 145.117-47.0703Q147.07-48.9746 147.07-52.7832L147.07-64.4531Q147.07-73.3887 144.312-80.0781Q141.553-86.7676 136.841-91.2109Q132.129-95.6543 126.172-97.876Q120.215-100.098 113.818-100.098Q107.422-100.098 101.465-97.876Q95.5078-95.6543 90.7959-91.2109Q86.084-86.7676 83.3252-80.0781Q80.5664-73.3887 80.5664-64.4531Z"/>
  </g>
  <g id="Semibold-L" transform="matrix(1 0 0 1 1961.92 1556)">
   <path d="M28.8086 25.6836L90.2344 25.6836Q96.6797 25.6836 99.8291 22.4121Q102.979 19.1406 102.979 12.207L102.979-35.4004Q102.979-42.334 99.8291-45.5811Q96.6797-48.8281 90.2344-48.8281L29.5898-48.7793Q23.1934-48.7793 19.6289-45.5322Q16.0645-42.2852 16.0645-35.4004L16.0645 12.207Q16.0645 19.1406 19.2139 22.4121Q22.3633 25.6836 28.8086 25.6836ZM81.25-44.5801L93.0664-44.5801L93.0664-64.8926Q93.0664-72.2168 95.8496-77.3682Q98.6328-82.5195 103.369-85.2295Q108.105-87.9395 113.965-87.9395Q119.775-87.9395 124.512-85.2295Q129.248-82.5195 132.056-77.3682Q134.863-72.2168 134.863-64.8926L134.863-51.8555Q134.863-48.584 136.572-46.9238Q138.281-45.2637 140.82-45.2637Q143.262-45.2637 144.946-46.8994Q146.631-48.5352 146.631-51.8555L146.631-63.9648Q146.631-72.7539 143.97-79.3701Q141.309-85.9863 136.694-90.4053Q132.08-94.8242 126.196-97.0459Q120.312-99.2676 113.965-99.2676Q107.568-99.2676 101.709-97.0459Q95.8496-94.8242 91.2354-90.4053Q86.6211-85.9863 83.9355-79.3701Q81.25-72.7539 81.25-63.9648Z"/>
  </g>
  <g id="Medium-L" transform="matrix(1 0 0 1 1665.38 1556)">
   <path d="M28.5156 25.1465L89.4043 25.1465Q95.6543 25.1465 98.7305 21.9482Q101.807 18.75 101.807 11.9629L101.807-35.2539Q101.807-41.9922 98.7305-45.166Q95.6543-48.3398 89.4043-48.3398L29.3945-48.2422Q23.1445-48.2422 19.6045-45.0928Q16.0645-41.9434 16.0645-35.2539L16.0645 11.9629Q16.0645 18.75 19.1406 21.9482Q22.2168 25.1465 28.5156 25.1465ZM81.7871-44.3848L92.2363-44.3848L92.2363-64.5508Q92.2363-72.2168 95.166-77.6123Q98.0957-83.0078 103.052-85.8154Q108.008-88.623 114.062-88.623Q120.166-88.623 125.098-85.8154Q130.029-83.0078 132.959-77.6123Q135.889-72.2168 135.889-64.5508L135.889-51.123Q135.889-48.2422 137.402-46.7773Q138.916-45.3125 141.162-45.3125Q143.311-45.3125 144.8-46.7285Q146.289-48.1445 146.289-51.123L146.289-63.623Q146.289-72.3145 143.677-78.8574Q141.064-85.4004 136.523-89.7949Q131.982-94.1895 126.196-96.3867Q120.41-98.584 114.062-98.584Q107.715-98.584 101.904-96.3867Q96.0938-94.1895 91.5771-89.7949Q87.0605-85.4004 84.4238-78.8574Q81.7871-72.3145 81.7871-63.623Z"/>
  </g>
  <g id="Regular-L" transform="matrix(1 0 0 1 1368.86 1556)">
   <path d="M28.125 24.4141L88.2812 24.4141Q94.3359 24.4141 97.3145 21.3379Q100.293 18.2617 100.293 11.6699L100.293-35.0098Q100.293-41.5527 97.3145-44.6289Q94.3359-47.7051 88.2812-47.7051L29.1016-47.6074Q23.0469-47.6074 19.5557-44.5557Q16.0645-41.5039 16.0645-35.0098L16.0645 11.6699Q16.0645 18.2617 19.043 21.3379Q22.0215 24.4141 28.125 24.4141ZM82.4707-44.0918L91.1621-44.0918L91.1621-64.1113Q91.1621-72.2168 94.2627-77.9053Q97.3633-83.5938 102.588-86.5723Q107.812-89.5508 114.209-89.5508Q120.605-89.5508 125.83-86.5723Q131.055-83.5938 134.155-77.9053Q137.256-72.2168 137.256-64.1113L137.256-50.1953Q137.256-47.8027 138.525-46.6064Q139.795-45.4102 141.65-45.4102Q143.408-45.4102 144.653-46.5576Q145.898-47.7051 145.898-50.1953L145.898-63.1348Q145.898-71.6797 143.359-78.1494Q140.82-84.6191 136.377-88.9893Q131.934-93.3594 126.221-95.5566Q120.508-97.7539 114.209-97.7539Q107.861-97.7539 102.148-95.5566Q96.4355-93.3594 92.0166-88.9893Q87.5977-84.6191 85.0342-78.1494Q82.4707-71.6797 82.4707-63.1348Z"/>
  </g>
  <g id="Light-L" transform="matrix(1 0 0 1 1071.44 1556)">
   <path d="M28.0273 24.4141L88.4766 24.4141Q94.4336 24.4141 97.4121 21.3867Q100.391 18.3594 100.391 11.8164L100.391-35.4004Q100.391-41.9434 97.4121-44.9707Q94.4336-47.998 88.4766-47.998L28.6133-47.9492Q22.6074-47.9492 19.3359-44.9219Q16.0645-41.8945 16.0645-35.4004L16.0645 11.8164Q16.0645 18.3594 19.0186 21.3867Q21.9727 24.4141 28.0273 24.4141ZM84.8145-45.2637L91.4551-45.2637L91.4551-63.4277Q91.4551-71.7773 94.6777-77.8564Q97.9004-83.9355 103.467-87.207Q109.033-90.4785 116.064-90.4785Q123.145-90.4785 128.711-87.207Q134.277-83.9355 137.5-77.8564Q140.723-71.7773 140.723-63.4277L140.723-49.6582Q140.723-47.9004 141.699-46.9971Q142.676-46.0938 144.092-46.0938Q145.41-46.0938 146.362-46.9727Q147.314-47.8516 147.314-49.6582L147.314-62.8906Q147.314-70.9473 144.922-77.2217Q142.529-83.4961 138.232-87.8662Q133.936-92.2363 128.271-94.5068Q122.607-96.7773 116.064-96.7773Q109.57-96.7773 103.906-94.5068Q98.2422-92.2363 93.9453-87.8662Q89.6484-83.4961 87.2314-77.2217Q84.8145-70.9473 84.8145-62.8906Z"/>
  </g>
  <g id="Thin-L" transform="matrix(1 0 0 1 773.781 1556)">
   <path d="M27.832 24.4141L88.7207 24.4141Q94.6289 24.4141 97.5586 21.46Q100.488 18.5059 100.488 11.9629L100.488-35.9375Q100.488-42.4805 97.5586-45.4346Q94.6289-48.3887 88.7207-48.3887L27.9785-48.3398Q22.0703-48.3398 19.0674-45.3857Q16.0645-42.4316 16.0645-35.9375L16.0645 11.9629Q16.0645 18.5059 18.9941 21.46Q21.9238 24.4141 27.832 24.4141ZM87.9395-46.7773L91.8457-46.7773L91.8457-62.5488Q91.8457-71.1914 95.2637-77.7832Q98.6816-84.375 104.688-88.0615Q110.693-91.748 118.555-91.748Q126.514-91.748 132.52-88.0615Q138.525-84.375 141.919-77.7832Q145.312-71.1914 145.312-62.5488L145.312-48.9746Q145.312-47.998 145.923-47.4854Q146.533-46.9727 147.266-46.9727Q147.998-46.9727 148.608-47.4854Q149.219-47.998 149.219-48.9746L149.219-62.5977Q149.219-69.9707 146.997-76.001Q144.775-82.0312 140.674-86.4014Q136.572-90.7715 130.957-93.0908Q125.342-95.4102 118.555-95.4102Q111.816-95.4102 106.201-93.0908Q100.586-90.7715 96.5088-86.4014Q92.4316-82.0312 90.1855-76.001Q87.9395-69.9707 87.9395-62.5977Z"/>
  </g>
  <g id="Ultralight-L" transform="matrix(1 0 0 1 476.606 1556)">
   <path d="M27.7832 24.4141L88.8184 24.4141Q94.6777 24.4141 97.6074 21.5088Q100.537 18.6035 100.537 12.0605L100.537-36.1816Q100.537-42.7246 97.6074-45.6543Q94.6777-48.584 88.8184-48.584L27.6367-48.584Q21.7773-48.584 18.9209-45.6543Q16.0645-42.7246 16.0645-36.1816L16.0645 12.0605Q16.0645 18.6035 18.9697 21.5088Q21.875 24.4141 27.7832 24.4141ZM89.502-47.5586L92.0898-47.5586L92.0898-62.0605Q92.0898-70.8984 95.5566-77.7344Q99.0234-84.5703 105.273-88.4766Q111.523-92.3828 119.824-92.3828Q128.223-92.3828 134.473-88.4766Q140.723-84.5703 144.189-77.7344Q147.656-70.8984 147.656-62.0605L147.656-48.584Q147.656-48.0957 148.071-47.7539Q148.486-47.4121 148.926-47.4121Q149.365-47.4121 149.756-47.7539Q150.146-48.0957 150.146-48.584L150.146-62.4512Q150.146-69.4824 148.022-75.3906Q145.898-81.2988 141.919-85.6445Q137.939-89.9902 132.349-92.3828Q126.758-94.7754 119.824-94.7754Q112.939-94.7754 107.373-92.3828Q101.807-89.9902 97.8027-85.6445Q93.7988-81.2988 91.6504-75.3906Q89.502-69.4824 89.502-62.4512Z"/>
  </g>
  <g id="Black-M" transform="matrix(1 0 0 1 2869.26 1126)">
   <path d="M23.877 14.9414L74.5605 14.9414Q80.3223 14.9414 83.1543 11.9873Q85.9863 9.0332 85.9863 2.7832L85.9863-36.4746Q85.9863-42.627 83.1543-45.5566Q80.3223-48.4863 74.5605-48.4863L23.9746-48.4863Q18.2617-48.4863 15.3564-45.5566Q12.4512-42.627 12.4512-36.4746L12.4512 2.7832Q12.4512 9.0332 15.3076 11.9873Q18.1641 14.9414 23.877 14.9414ZM60.9863-43.9941L76.6113-43.9941L76.6113-59.8145Q76.6113-63.7695 78.1006-66.6504Q79.5898-69.5312 82.251-71.1182Q84.9121-72.7051 88.3789-72.7051Q91.8945-72.7051 94.5312-71.1182Q97.168-69.5312 98.6816-66.6504Q100.195-63.7695 100.195-59.8145L100.195-51.709Q100.195-47.4609 102.393-45.1416Q104.59-42.8223 108.008-42.8223Q111.377-42.8223 113.599-45.1416Q115.82-47.4609 115.82-51.709L115.82-59.375Q115.82-66.5527 113.501-71.9238Q111.182-77.2949 107.251-80.835Q103.32-84.375 98.4375-86.1328Q93.5547-87.8906 88.3789-87.8906Q83.252-87.8906 78.3691-86.1328Q73.4863-84.375 69.5557-80.835Q65.625-77.2949 63.3057-71.9238Q60.9863-66.5527 60.9863-59.375Z"/>
  </g>
  <g id="Heavy-M" transform="matrix(1 0 0 1 2572.97 1126)">
   <path d="M23.3887 14.0137L73.0957 14.0137Q78.6133 14.0137 81.3232 11.1816Q84.0332 8.34961 84.0332 2.39258L84.0332-36.084Q84.0332-41.9922 81.3232-44.7998Q78.6133-47.6074 73.0957-47.6074L23.6816-47.5586Q18.2129-47.5586 15.332-44.7754Q12.4512-41.9922 12.4512-36.084L12.4512 2.39258Q12.4512 8.34961 15.1855 11.1816Q17.9199 14.0137 23.3887 14.0137ZM61.377-43.4082L75.1465-43.4082L75.1465-59.375Q75.1465-63.8672 76.8555-67.041Q78.5645-70.2148 81.4941-71.9482Q84.4238-73.6816 88.1836-73.6816Q91.8945-73.6816 94.8486-71.9482Q97.8027-70.2148 99.4873-67.041Q101.172-63.8672 101.172-59.375L101.172-50.6348Q101.172-46.875 103.125-44.8486Q105.078-42.8223 108.105-42.8223Q111.035-42.8223 113.013-44.8242Q114.99-46.8262 114.99-50.6348L114.99-58.7891Q114.99-65.918 112.72-71.2402Q110.449-76.5625 106.616-80.0537Q102.783-83.5449 98.0225-85.3027Q93.2617-87.0605 88.1836-87.0605Q83.1055-87.0605 78.3203-85.3027Q73.5352-83.5449 69.7021-80.0537Q65.8691-76.5625 63.623-71.2402Q61.377-65.918 61.377-58.7891Z"/>
  </g>
  <g id="Bold-M" transform="matrix(1 0 0 1 2276.72 1126)">
   <path d="M22.8516 12.9883L71.4355 12.9883Q76.709 12.9883 79.2725 10.3027Q81.8359 7.61719 81.8359 1.9043L81.8359-35.6445Q81.8359-41.2598 79.2725-43.9453Q76.709-46.6309 71.4355-46.6309L23.3887-46.582Q18.2129-46.582 15.332-43.9209Q12.4512-41.2598 12.4512-35.6445L12.4512 1.9043Q12.4512 7.61719 15.0635 10.3027Q17.6758 12.9883 22.8516 12.9883ZM61.8164-42.7246L73.5352-42.7246L73.5352-58.9355Q73.5352-63.9648 75.4639-67.5049Q77.3926-71.0449 80.6396-72.9004Q83.8867-74.7559 87.9395-74.7559Q91.9434-74.7559 95.2148-72.9004Q98.4863-71.0449 100.391-67.5049Q102.295-63.9648 102.295-58.9355L102.295-49.4629Q102.295-46.1914 103.979-44.4824Q105.664-42.7734 108.203-42.7734Q110.693-42.7734 112.378-44.458Q114.062-46.1426 114.062-49.4629L114.062-58.2031Q114.062-65.2344 111.865-70.4834Q109.668-75.7324 105.957-79.1992Q102.246-82.666 97.583-84.375Q92.9199-86.084 87.9395-86.084Q82.959-86.084 78.2959-84.375Q73.6328-82.666 69.8975-79.1992Q66.1621-75.7324 63.9893-70.4834Q61.8164-65.2344 61.8164-58.2031Z"/>
  </g>
  <g id="Semibold-M" transform="matrix(1 0 0 1 1980.35 1126)">
   <path d="M22.4609 12.2559L70.3125 12.2559Q75.3418 12.2559 77.832 9.66797Q80.3223 7.08008 80.3223 1.5625L80.3223-35.3516Q80.3223-40.7715 77.832-43.335Q75.3418-45.8984 70.3125-45.8984L23.1934-45.8496Q18.1641-45.8496 15.3076-43.2861Q12.4512-40.7227 12.4512-35.3516L12.4512 1.5625Q12.4512 7.08008 14.9658 9.66797Q17.4805 12.2559 22.4609 12.2559ZM62.1094-42.2852L72.4121-42.2852L72.4121-58.5938Q72.4121-64.0137 74.4873-67.7979Q76.5625-71.582 80.0293-73.5352Q83.4961-75.4883 87.7441-75.4883Q91.9434-75.4883 95.4346-73.5352Q98.9258-71.582 101.001-67.7979Q103.076-64.0137 103.076-58.5938L103.076-48.6328Q103.076-45.752 104.565-44.2627Q106.055-42.7734 108.252-42.7734Q110.449-42.7734 111.914-44.2139Q113.379-45.6543 113.379-48.6328L113.379-57.7637Q113.379-64.6973 111.255-69.9219Q109.131-75.1465 105.469-78.5889Q101.807-82.0312 97.2412-83.7402Q92.6758-85.4492 87.7441-85.4492Q82.8613-85.4492 78.2471-83.7402Q73.6328-82.0312 69.9951-78.5889Q66.3574-75.1465 64.2334-69.9219Q62.1094-64.6973 62.1094-57.7637Z"/>
  </g>
  <g id="Medium-M" transform="matrix(1 0 0 1 1683.88 1126)">
   <path d="M22.2168 11.7188L69.4336 11.7188Q74.3652 11.7188 76.7822 9.2041Q79.1992 6.68945 79.1992 1.31836L79.1992-35.1074Q79.1992-40.3809 76.7822-42.8955Q74.3652-45.4102 69.4336-45.4102L22.998-45.3125Q18.1641-45.3125 15.3076-42.8223Q12.4512-40.332 12.4512-35.1074L12.4512 1.31836Q12.4512 6.68945 14.8926 9.2041Q17.334 11.7188 22.2168 11.7188ZM62.3047-41.8945L71.582-41.8945L71.582-58.3496Q71.582-64.1113 73.7549-68.042Q75.9277-71.9727 79.5898-73.999Q83.252-76.0254 87.5977-76.0254Q91.9922-76.0254 95.6299-73.999Q99.2676-71.9727 101.465-68.042Q103.662-64.1113 103.662-58.3496L103.662-47.998Q103.662-45.3613 105.005-44.043Q106.348-42.7246 108.35-42.7246Q110.254-42.7246 111.572-44.0186Q112.891-45.3125 112.891-47.998L112.891-57.4219Q112.891-64.3555 110.791-69.5312Q108.691-74.707 105.103-78.125Q101.514-81.543 96.9971-83.2275Q92.4805-84.9121 87.5977-84.9121Q82.7637-84.9121 78.2227-83.2275Q73.6816-81.543 70.0928-78.125Q66.5039-74.707 64.4043-69.5312Q62.3047-64.3555 62.3047-57.4219Z"/>
  </g>
  <g id="Regular-M" transform="matrix(1 0 0 1 1387.49 1126)">
   <path d="M21.8262 10.9863L68.3105 10.9863Q73.0469 10.9863 75.3662 8.56934Q77.6855 6.15234 77.6855 1.02539L77.6855-34.8145Q77.6855-39.8926 75.3662-42.3096Q73.0469-44.7266 68.3105-44.7266L22.8027-44.6289Q18.1152-44.6289 15.2832-42.2363Q12.4512-39.8438 12.4512-34.8145L12.4512 1.02539Q12.4512 6.15234 14.7949 8.56934Q17.1387 10.9863 21.8262 10.9863ZM62.5977-41.4551L70.459-41.4551L70.459-58.0078Q70.459-64.1602 72.8027-68.335Q75.1465-72.5098 79.0039-74.6338Q82.8613-76.7578 87.4512-76.7578Q91.9922-76.7578 95.874-74.6338Q99.7559-72.5098 102.075-68.335Q104.395-64.1602 104.395-58.0078L104.395-47.168Q104.395-44.9219 105.566-43.8232Q106.738-42.7246 108.398-42.7246Q110.01-42.7246 111.133-43.7744Q112.256-44.8242 112.256-47.168L112.256-56.9824Q112.256-63.8672 110.205-68.9941Q108.154-74.1211 104.639-77.5146Q101.123-80.9082 96.6797-82.5928Q92.2363-84.2773 87.4512-84.2773Q82.666-84.2773 78.1982-82.5928Q73.7305-80.9082 70.2148-77.5146Q66.6992-74.1211 64.6484-68.9941Q62.5977-63.8672 62.5977-56.9824Z"/>
  </g>
  <g id="Light-M" transform="matrix(1 0 0 1 1090.15 1126)">
   <path d="M21.7285 10.9863L68.457 10.9863Q73.1445 10.9863 75.4639 8.61816Q77.7832 6.25 77.7832 1.12305L77.7832-35.1562Q77.7832-40.2344 75.4639-42.6025Q73.1445-44.9707 68.457-44.9707L22.3633-44.9219Q17.7246-44.9219 15.0879-42.5537Q12.4512-40.1855 12.4512-35.1562L12.4512 1.12305Q12.4512 6.25 14.7705 8.61816Q17.0898 10.9863 21.7285 10.9863ZM64.6973-42.4805L70.752-42.4805L70.752-57.373Q70.752-63.7695 73.1934-68.2861Q75.6348-72.8027 79.8096-75.1953Q83.9844-77.5879 89.1113-77.5879Q94.2871-77.5879 98.4619-75.1953Q102.637-72.8027 105.078-68.2861Q107.52-63.7695 107.52-57.373L107.52-46.6797Q107.52-45.0195 108.423-44.165Q109.326-43.3105 110.547-43.3105Q111.816-43.3105 112.671-44.1162Q113.525-44.9219 113.525-46.6797L113.525-56.7871Q113.525-63.2324 111.597-68.1885Q109.668-73.1445 106.299-76.5381Q102.93-79.9316 98.5107-81.665Q94.0918-83.3984 89.1113-83.3984Q84.1797-83.3984 79.7607-81.665Q75.3418-79.9316 71.9482-76.5381Q68.5547-73.1445 66.626-68.1885Q64.6973-63.2324 64.6973-56.7871Z"/>
  </g>
  <g id="Thin-M" transform="matrix(1 0 0 1 792.579 1126)">
   <path d="M21.6309 10.9863L68.7012 10.9863Q73.291 10.9863 75.5859 8.66699Q77.8809 6.34766 77.8809 1.31836L77.8809-35.6445Q77.8809-40.7227 75.5859-43.0176Q73.291-45.3125 68.7012-45.3125L21.8262-45.3125Q17.1875-45.3125 14.8193-42.9932Q12.4512-40.6738 12.4512-35.6445L12.4512 1.31836Q12.4512 6.34766 14.7217 8.66699Q16.9922 10.9863 21.6309 10.9863ZM67.4805-43.8477L71.1426-43.8477L71.1426-56.543Q71.1426-63.2324 73.7305-68.2129Q76.3184-73.1934 80.8838-75.9521Q85.4492-78.7109 91.3574-78.7109Q97.3145-78.7109 101.904-75.9521Q106.494-73.1934 109.058-68.2129Q111.621-63.2324 111.621-56.543L111.621-46.0449Q111.621-45.1172 112.158-44.6045Q112.695-44.0918 113.428-44.0918Q114.16-44.0918 114.697-44.6045Q115.234-45.1172 115.234-46.0449L115.234-56.543Q115.234-62.4023 113.477-67.1143Q111.719-71.8262 108.496-75.1953Q105.273-78.5645 100.928-80.3955Q96.582-82.2266 91.3574-82.2266Q86.1816-82.2266 81.8115-80.3955Q77.4414-78.5645 74.2432-75.1953Q71.0449-71.8262 69.2627-67.1143Q67.4805-62.4023 67.4805-56.543Z"/>
  </g>
  <g id="Ultralight-M" transform="matrix(1 0 0 1 495.429 1126)">
   <path d="M21.5332 10.9863L68.7988 10.9863Q73.3887 10.9863 75.6592 8.71582Q77.9297 6.44531 77.9297 1.36719L77.9297-35.8887Q77.9297-40.918 75.6592-43.2129Q73.3887-45.5078 68.7988-45.5078L21.5332-45.5078Q16.9434-45.5078 14.6973-43.2129Q12.4512-40.918 12.4512-35.8887L12.4512 1.36719Q12.4512 6.44531 14.6973 8.71582Q16.9434 10.9863 21.5332 10.9863ZM68.8965-44.5312L71.3379-44.5312L71.3379-56.1523Q71.3379-62.9883 73.999-68.2129Q76.6602-73.4375 81.4209-76.3672Q86.1816-79.2969 92.4805-79.2969Q98.8281-79.2969 103.638-76.3672Q108.447-73.4375 111.084-68.2129Q113.721-62.9883 113.721-56.1523L113.721-45.7031Q113.721-45.2148 114.087-44.8486Q114.453-44.4824 114.893-44.4824Q115.381-44.4824 115.747-44.8242Q116.113-45.166 116.113-45.7031L116.113-56.3965Q116.113-61.9629 114.429-66.5771Q112.744-71.1914 109.619-74.5605Q106.494-77.9297 102.148-79.7607Q97.8027-81.5918 92.4805-81.5918Q87.207-81.5918 82.8613-79.7607Q78.5156-77.9297 75.3906-74.5605Q72.2656-71.1914 70.5811-66.5771Q68.8965-61.9629 68.8965-56.3965Z"/>
  </g>
  <g id="Black-S" transform="matrix(1 0 0 1 2882.98 696)">
   <path d="M18.8477 4.3457L58.8867 4.3457Q63.4766 4.3457 65.7227 2.00195Q67.9688-0.341797 67.9688-5.32227L67.9688-36.3281Q67.9688-41.2598 65.7227-43.5791Q63.4766-45.8984 58.8867-45.8984L18.8477-45.8984Q14.3066-45.8984 12.0361-43.5791Q9.76562-41.2598 9.76562-36.3281L9.76562-5.32227Q9.76562-0.341797 12.0361 2.00195Q14.3066 4.3457 18.8477 4.3457ZM47.8027-42.334L60.498-42.334L60.498-54.5898Q60.498-57.5195 61.6211-59.7168Q62.7441-61.9141 64.7461-63.1348Q66.748-64.3555 69.4336-64.3555Q72.1191-64.3555 74.1211-63.1348Q76.123-61.9141 77.2461-59.7168Q78.3691-57.5195 78.3691-54.5898L78.3691-48.4375Q78.3691-45.0195 80.1758-43.1152Q81.9824-41.2109 84.7168-41.2109Q87.4512-41.2109 89.2578-43.1152Q91.0645-45.0195 91.0645-48.4375L91.0645-54.2969Q91.0645-61.8164 87.915-66.7969Q84.7656-71.7773 79.8096-74.2432Q74.8535-76.709 69.4336-76.709Q64.0137-76.709 59.0576-74.2432Q54.1016-71.7773 50.9521-66.7969Q47.8027-61.8164 47.8027-54.2969Z"/>
  </g>
  <g id="Heavy-S" transform="matrix(1 0 0 1 2586.71 696)">
   <path d="M18.457 3.56445L57.6172 3.56445Q62.0117 3.56445 64.1602 1.31836Q66.3086-0.927734 66.3086-5.71289L66.3086-35.9375Q66.3086-40.6738 64.1602-42.8955Q62.0117-45.1172 57.6172-45.1172L18.6523-45.0684Q14.3066-45.0684 12.0361-42.8467Q9.76562-40.625 9.76562-35.9375L9.76562-5.71289Q9.76562-0.927734 11.9385 1.31836Q14.1113 3.56445 18.457 3.56445ZM47.8516-41.6992L59.2285-41.6992L59.2285-54.2969Q59.2285-57.666 60.498-60.083Q61.7676-62.5 63.9893-63.7939Q66.2109-65.0879 69.043-65.0879Q71.875-65.0879 74.0723-63.7939Q76.2695-62.5 77.5391-60.083Q78.8086-57.666 78.8086-54.2969L78.8086-47.5586Q78.8086-44.4824 80.4443-42.7979Q82.0801-41.1133 84.5215-41.1133Q86.9629-41.1133 88.5742-42.7979Q90.1855-44.4824 90.1855-47.5586L90.1855-53.8574Q90.1855-61.377 87.1094-66.3086Q84.0332-71.2402 79.1748-73.6572Q74.3164-76.0742 69.043-76.0742Q63.7207-76.0742 58.8623-73.6572Q54.0039-71.2402 50.9277-66.3086Q47.8516-61.377 47.8516-53.8574Z"/>
  </g>
  <g id="Bold-S" transform="matrix(1 0 0 1 2290.49 696)">
   <path d="M18.0176 2.68555L56.2012 2.68555Q60.3516 2.68555 62.3779 0.537109Q64.4043-1.61133 64.4043-6.10352L64.4043-35.5469Q64.4043-39.9902 62.3779-42.1143Q60.3516-44.2383 56.2012-44.2383L18.5059-44.1895Q14.3555-44.1895 12.0605-42.0898Q9.76562-39.9902 9.76562-35.5469L9.76562-6.10352Q9.76562-1.61133 11.8164 0.537109Q13.8672 2.68555 18.0176 2.68555ZM47.9492-40.9668L57.8125-40.9668L57.8125-54.0039Q57.8125-57.8125 59.2529-60.4736Q60.6934-63.1348 63.1348-64.502Q65.5762-65.8691 68.5547-65.8691Q71.582-65.8691 74.0234-64.502Q76.4648-63.1348 77.9053-60.4736Q79.3457-57.8125 79.3457-54.0039L79.3457-46.6309Q79.3457-43.9453 80.7617-42.4805Q82.1777-41.0156 84.3262-41.0156Q86.377-41.0156 87.793-42.4316Q89.209-43.8477 89.209-46.6309L89.209-53.3203Q89.209-60.8398 86.2061-65.7471Q83.2031-70.6543 78.4668-73.0225Q73.7305-75.3906 68.5547-75.3906Q63.4277-75.3906 58.6914-73.0225Q53.9551-70.6543 50.9521-65.7471Q47.9492-60.8398 47.9492-53.3203Z"/>
  </g>
  <g id="Semibold-S" transform="matrix(1 0 0 1 1994.12 696)">
   <path d="M17.7246 2.05078L55.1758 2.05078Q59.1797 2.05078 61.1328 0Q63.0859-2.05078 63.0859-6.39648L63.0859-35.2051Q63.0859-39.5508 61.1328-41.6016Q59.1797-43.6523 55.1758-43.6523L18.3594-43.5547Q14.3555-43.5547 12.0605-41.5283Q9.76562-39.502 9.76562-35.2051L9.76562-6.39648Q9.76562-2.05078 11.7432 0Q13.7207 2.05078 17.7246 2.05078ZM47.9492-40.4785L56.7871-40.4785L56.7871-53.7598Q56.7871-57.9102 58.374-60.7178Q59.9609-63.5254 62.5488-64.9658Q65.1367-66.4062 68.2129-66.4062Q71.3379-66.4062 73.9502-64.9658Q76.5625-63.5254 78.125-60.7178Q79.6875-57.9102 79.6875-53.7598L79.6875-45.9473Q79.6875-43.5059 80.957-42.2363Q82.2266-40.9668 84.1309-40.9668Q85.9863-40.9668 87.2559-42.1875Q88.5254-43.4082 88.5254-45.9473L88.5254-52.9785Q88.5254-60.498 85.5713-65.3564Q82.6172-70.2148 77.9785-72.5586Q73.3398-74.9023 68.2129-74.9023Q63.1836-74.9023 58.5205-72.5586Q53.8574-70.2148 50.9033-65.3564Q47.9492-60.498 47.9492-52.9785Z"/>
  </g>
  <g id="Medium-S" transform="matrix(1 0 0 1 1697.65 696)">
   <path d="M17.4805 1.5625L54.4434 1.5625Q58.3008 1.5625 60.2051-0.415039Q62.1094-2.39258 62.1094-6.5918L62.1094-35.0098Q62.1094-39.1602 60.2051-41.1621Q58.3008-43.1641 54.4434-43.1641L18.2617-43.1152Q14.3555-43.1152 12.0605-41.1377Q9.76562-39.1602 9.76562-35.0098L9.76562-6.5918Q9.76562-2.39258 11.6699-0.415039Q13.5742 1.5625 17.4805 1.5625ZM47.998-40.0879L56.0547-40.0879L56.0547-53.5645Q56.0547-57.959 57.7148-60.9131Q59.375-63.8672 62.1094-65.3564Q64.8438-66.8457 67.9688-66.8457Q71.1914-66.8457 73.9258-65.3564Q76.6602-63.8672 78.3203-60.9131Q79.9805-57.959 79.9805-53.5645L79.9805-45.4102Q79.9805-43.2129 81.1523-42.041Q82.3242-40.8691 84.0332-40.8691Q85.6934-40.8691 86.8652-41.9922Q88.0371-43.1152 88.0371-45.4102L88.0371-52.6855Q88.0371-60.2051 85.1074-65.0391Q82.1777-69.873 77.5879-72.2168Q72.998-74.5605 67.9688-74.5605Q62.9883-74.5605 58.3984-72.2168Q53.8086-69.873 50.9033-65.0391Q47.998-60.2051 47.998-52.6855Z"/>
  </g>
  <g id="Regular-S" transform="matrix(1 0 0 1 1401.28 696)">
   <path d="M17.1875 0.976562L53.4668 0.976562Q57.1777 0.976562 59.0088-0.927734Q60.8398-2.83203 60.8398-6.88477L60.8398-34.7168Q60.8398-38.7207 59.0088-40.6494Q57.1777-42.5781 53.4668-42.5781L18.1152-42.4805Q14.3555-42.4805 12.0605-40.5762Q9.76562-38.6719 9.76562-34.7168L9.76562-6.88477Q9.76562-2.83203 11.5967-0.927734Q13.4277 0.976562 17.1875 0.976562ZM48.0469-39.5996L55.0781-39.5996L55.0781-53.3691Q55.0781-58.0566 56.8604-61.1816Q58.6426-64.3066 61.5234-65.8447Q64.4043-67.3828 67.6758-67.3828Q70.9961-67.3828 73.877-65.8447Q76.7578-64.3066 78.54-61.1816Q80.3223-58.0566 80.3223-53.3691L80.3223-44.7754Q80.3223-42.8223 81.3477-41.8213Q82.373-40.8203 83.8867-40.8203Q85.3027-40.8203 86.3281-41.748Q87.3535-42.6758 87.3535-44.7754L87.3535-52.3438Q87.3535-59.8633 84.4727-64.6729Q81.5918-69.4824 77.0996-71.7773Q72.6074-74.0723 67.6758-74.0723Q62.793-74.0723 58.2764-71.7773Q53.7598-69.4824 50.9033-64.6729Q48.0469-59.8633 48.0469-52.3438Z"/>
  </g>
  <g id="Light-S" transform="matrix(1 0 0 1 1104.01 696)">
   <path d="M17.0898 0.976562L53.6133 0.976562Q57.2754 0.976562 59.082-0.878906Q60.8887-2.73438 60.8887-6.78711L60.8887-35.0586Q60.8887-39.0137 59.082-40.8936Q57.2754-42.7734 53.6133-42.7734L17.7246-42.7246Q14.0137-42.7246 11.8896-40.8691Q9.76562-39.0137 9.76562-35.0586L9.76562-6.78711Q9.76562-2.73438 11.5723-0.878906Q13.3789 0.976562 17.0898 0.976562ZM49.9023-40.5273L55.3223-40.5273L55.3223-52.832Q55.3223-57.7148 57.2021-61.1328Q59.082-64.5508 62.2314-66.333Q65.3809-68.1152 69.1895-68.1152Q72.998-68.1152 76.1475-66.333Q79.2969-64.5508 81.1768-61.1328Q83.0566-57.7148 83.0566-52.832L83.0566-44.3359Q83.0566-42.8711 83.8623-42.1143Q84.668-41.3574 85.791-41.3574Q86.9141-41.3574 87.6953-42.0654Q88.4766-42.7734 88.4766-44.3359L88.4766-52.1973Q88.4766-59.1309 85.7666-63.8428Q83.0566-68.5547 78.6865-70.9229Q74.3164-73.291 69.1895-73.291Q64.0625-73.291 59.668-70.9229Q55.2734-68.5547 52.5879-63.8428Q49.9023-59.1309 49.9023-52.1973Z"/>
  </g>
  <g id="Thin-S" transform="matrix(1 0 0 1 806.544 696)">
   <path d="M16.9922 0.976562L53.7598 0.976562Q57.4219 0.976562 59.2041-0.830078Q60.9863-2.63672 60.9863-6.64062L60.9863-35.4492Q60.9863-39.4043 59.2041-41.2354Q57.4219-43.0664 53.7598-43.0664L17.1875-43.0664Q13.5742-43.0664 11.6699-41.2354Q9.76562-39.4043 9.76562-35.4492L9.76562-6.64062Q9.76562-2.63672 11.5479-0.830078Q13.3301 0.976562 16.9922 0.976562ZM52.3926-41.6992L55.6641-41.6992L55.6641-52.0996Q55.6641-57.2754 57.666-61.084Q59.668-64.8926 63.1592-66.9922Q66.6504-69.0918 71.1426-69.0918Q75.6836-69.0918 79.1992-66.9922Q82.7148-64.8926 84.6924-61.084Q86.6699-57.2754 86.6699-52.0996L86.6699-43.7988Q86.6699-42.9688 87.1826-42.5049Q87.6953-42.041 88.3301-42.041Q89.0137-42.041 89.502-42.4805Q89.9902-42.9199 89.9902-43.7988L89.9902-51.9531Q89.9902-58.2031 87.5244-62.7686Q85.0586-67.334 80.8105-69.7998Q76.5625-72.2656 71.1426-72.2656Q65.7715-72.2656 61.5234-69.7998Q57.2754-67.334 54.834-62.7686Q52.3926-58.2031 52.3926-51.9531Z"/>
  </g>
  <g id="Ultralight-S" transform="matrix(1 0 0 1 509.443 696)">
   <path d="M16.8945 0.976562L53.8574 0.976562Q57.5195 0.976562 59.2773-0.805664Q61.0352-2.58789 61.0352-6.54297L61.0352-35.6934Q61.0352-39.6484 59.2773-41.4307Q57.5195-43.2129 53.8574-43.2129L16.9434-43.2129Q13.3789-43.2129 11.5723-41.4307Q9.76562-39.6484 9.76562-35.6934L9.76562-6.54297Q9.76562-2.58789 11.5234-0.805664Q13.2812 0.976562 16.8945 0.976562ZM53.6133-42.334L55.8105-42.334L55.8105-51.7578Q55.8105-57.0801 57.8857-61.084Q59.9609-65.0879 63.6475-67.3584Q67.334-69.6289 72.168-69.6289Q77.0508-69.6289 80.7373-67.3584Q84.4238-65.0879 86.4746-61.084Q88.5254-57.0801 88.5254-51.7578L88.5254-43.5059Q88.5254-43.0176 88.8672-42.7246Q89.209-42.4316 89.6484-42.4316Q90.0879-42.4316 90.4297-42.7246Q90.7715-43.0176 90.7715-43.5059L90.7715-51.8555Q90.7715-57.7148 88.4033-62.207Q86.0352-66.6992 81.8604-69.2139Q77.6855-71.7285 72.168-71.7285Q66.6504-71.7285 62.4756-69.2139Q58.3008-66.6992 55.957-62.207Q53.6133-57.7148 53.6133-51.8555Z"/>
  </g>
 </g>
</svg>
