<?xml version="1.0" encoding="UTF-8"?>
<!--Generator: Apple Native CoreSVG 175-->
<!DOCTYPE svg
PUBLIC "-//W3C//DTD SVG 1.1//EN"
       "http://www.w3.org/Graphics/SVG/1.1/DTD/svg11.dtd">
<svg version="1.1" xmlns="http://www.w3.org/2000/svg" xmlns:xlink="http://www.w3.org/1999/xlink" width="3300" height="2200">
 <!--glyph: "uni100F40.medium", point size: 100.0, font version: "17.0d11e1", template writer version: "65.1"-->
 <style>.multicolor-0:systemOrangeColor {fill:#FF9500;opacity:1.0}
.multicolor-1:white {fill:#FFFFFF;opacity:1.0}

.hierarchical-0:tertiary {fill:#8E8E8E}
.hierarchical-1:primary {fill:#212121}

.SFSymbolsPreviewFF9500 {fill:#FF9500;opacity:1.0}
.SFSymbolsPreviewFFFFFF {fill:#FFFFFF;opacity:1.0}
</style>
 <g id="Notes">
  <rect height="2200" id="artboard" style="fill:white;opacity:1" width="3300" x="0" y="0"/>
  <line style="fill:none;stroke:black;opacity:1;stroke-width:0.5;" x1="263" x2="3036" y1="292" y2="292"/>
  <text style="stroke:none;fill:black;font-family:sans-serif;font-size:13;font-weight:bold;" transform="matrix(1 0 0 1 263 322)">Weight/Scale Variations</text>
  <text style="stroke:none;fill:black;font-family:sans-serif;font-size:13;text-anchor:middle;" transform="matrix(1 0 0 1 559.711 322)">Ultralight</text>
  <text style="stroke:none;fill:black;font-family:sans-serif;font-size:13;text-anchor:middle;" transform="matrix(1 0 0 1 856.422 322)">Thin</text>
  <text style="stroke:none;fill:black;font-family:sans-serif;font-size:13;text-anchor:middle;" transform="matrix(1 0 0 1 1153.13 322)">Light</text>
  <text style="stroke:none;fill:black;font-family:sans-serif;font-size:13;text-anchor:middle;" transform="matrix(1 0 0 1 1449.84 322)">Regular</text>
  <text style="stroke:none;fill:black;font-family:sans-serif;font-size:13;text-anchor:middle;" transform="matrix(1 0 0 1 1746.56 322)">Medium</text>
  <text style="stroke:none;fill:black;font-family:sans-serif;font-size:13;text-anchor:middle;" transform="matrix(1 0 0 1 2043.27 322)">Semibold</text>
  <text style="stroke:none;fill:black;font-family:sans-serif;font-size:13;text-anchor:middle;" transform="matrix(1 0 0 1 2339.98 322)">Bold</text>
  <text style="stroke:none;fill:black;font-family:sans-serif;font-size:13;text-anchor:middle;" transform="matrix(1 0 0 1 2636.69 322)">Heavy</text>
  <text style="stroke:none;fill:black;font-family:sans-serif;font-size:13;text-anchor:middle;" transform="matrix(1 0 0 1 2933.4 322)">Black</text>
  <line style="fill:none;stroke:black;opacity:1;stroke-width:0.5;" x1="263" x2="3036" y1="1903" y2="1903"/>
  <g transform="matrix(1 0 0 1 263 1933)">
   <path d="M9.24805 0.830078Q10.8691 0.830078 12.2949 0.214844Q13.7207-0.400391 14.8096-1.49414Q15.8984-2.58789 16.5186-4.01367Q17.1387-5.43945 17.1387-7.05078Q17.1387-8.66211 16.5186-10.0879Q15.8984-11.5137 14.8047-12.6074Q13.7109-13.7012 12.2852-14.3164Q10.8594-14.9316 9.23828-14.9316Q7.62695-14.9316 6.20117-14.3164Q4.77539-13.7012 3.69141-12.6074Q2.60742-11.5137 1.9873-10.0879Q1.36719-8.66211 1.36719-7.05078Q1.36719-5.43945 1.9873-4.01367Q2.60742-2.58789 3.69629-1.49414Q4.78516-0.400391 6.21094 0.214844Q7.63672 0.830078 9.24805 0.830078ZM9.24805-0.654297Q7.91992-0.654297 6.7627-1.14746Q5.60547-1.64062 4.73145-2.51953Q3.85742-3.39844 3.36426-4.56055Q2.87109-5.72266 2.87109-7.05078Q2.87109-8.37891 3.35938-9.54102Q3.84766-10.7031 4.72168-11.582Q5.5957-12.4609 6.75293-12.9541Q7.91016-13.4473 9.23828-13.4473Q10.5762-13.4473 11.7334-12.9541Q12.8906-12.4609 13.7695-11.582Q14.6484-10.7031 15.1465-9.54102Q15.6445-8.37891 15.6445-7.05078Q15.6445-5.72266 15.1514-4.56055Q14.6582-3.39844 13.7842-2.51953Q12.9102-1.64062 11.748-1.14746Q10.5859-0.654297 9.24805-0.654297ZM5.6543-7.05078Q5.6543-6.72852 5.85938-6.52832Q6.06445-6.32812 6.40625-6.32812L8.51562-6.32812L8.51562-4.20898Q8.51562-3.88672 8.71094-3.67676Q8.90625-3.4668 9.23828-3.4668Q9.56055-3.4668 9.77051-3.67676Q9.98047-3.88672 9.98047-4.20898L9.98047-6.32812L12.0898-6.32812Q12.4219-6.32812 12.627-6.52832Q12.832-6.72852 12.832-7.05078Q12.832-7.38281 12.627-7.58789Q12.4219-7.79297 12.0898-7.79297L9.98047-7.79297L9.98047-9.90234Q9.98047-10.2344 9.77051-10.4443Q9.56055-10.6543 9.23828-10.6543Q8.90625-10.6543 8.71094-10.4443Q8.51562-10.2344 8.51562-9.90234L8.51562-7.79297L6.40625-7.79297Q6.06445-7.79297 5.85938-7.58789Q5.6543-7.38281 5.6543-7.05078Z"/>
  </g>
  <g transform="matrix(1 0 0 1 281.867 1933)">
   <path d="M11.709 2.91016Q13.75 2.91016 15.5518 2.12891Q17.3535 1.34766 18.7305-0.0292969Q20.1074-1.40625 20.8887-3.20801Q21.6699-5.00977 21.6699-7.05078Q21.6699-9.0918 20.8887-10.8936Q20.1074-12.6953 18.7305-14.0723Q17.3535-15.4492 15.5469-16.2305Q13.7402-17.0117 11.6992-17.0117Q9.6582-17.0117 7.85645-16.2305Q6.05469-15.4492 4.68262-14.0723Q3.31055-12.6953 2.5293-10.8936Q1.74805-9.0918 1.74805-7.05078Q1.74805-5.00977 2.5293-3.20801Q3.31055-1.40625 4.6875-0.0292969Q6.06445 1.34766 7.86621 2.12891Q9.66797 2.91016 11.709 2.91016ZM11.709 1.25Q9.98047 1.25 8.47656 0.605469Q6.97266-0.0390625 5.83496-1.17676Q4.69727-2.31445 4.05762-3.81836Q3.41797-5.32227 3.41797-7.05078Q3.41797-8.7793 4.05762-10.2832Q4.69727-11.7871 5.83008-12.9297Q6.96289-14.0723 8.4668-14.7119Q9.9707-15.3516 11.6992-15.3516Q13.4277-15.3516 14.9316-14.7119Q16.4355-14.0723 17.5781-12.9297Q18.7207-11.7871 19.3652-10.2832Q20.0098-8.7793 20.0098-7.05078Q20.0098-5.32227 19.3701-3.81836Q18.7305-2.31445 17.5928-1.17676Q16.4551-0.0390625 14.9463 0.605469Q13.4375 1.25 11.709 1.25ZM7.17773-7.05078Q7.17773-6.69922 7.41211-6.47461Q7.64648-6.25 8.01758-6.25L10.8887-6.25L10.8887-3.36914Q10.8887-2.99805 11.1133-2.76855Q11.3379-2.53906 11.6895-2.53906Q12.0605-2.53906 12.29-2.76855Q12.5195-2.99805 12.5195-3.36914L12.5195-6.25L15.4004-6.25Q15.7715-6.25 16.001-6.47461Q16.2305-6.69922 16.2305-7.05078Q16.2305-7.42188 16.001-7.65137Q15.7715-7.88086 15.4004-7.88086L12.5195-7.88086L12.5195-10.752Q12.5195-11.1328 12.29-11.3623Q12.0605-11.5918 11.6895-11.5918Q11.3379-11.5918 11.1133-11.3574Q10.8887-11.123 10.8887-10.752L10.8887-7.88086L8.01758-7.88086Q7.63672-7.88086 7.40723-7.65137Q7.17773-7.42188 7.17773-7.05078Z"/>
  </g>
  <g transform="matrix(1 0 0 1 305.646 1933)">
   <path d="M14.9707 5.66406Q17.0605 5.66406 18.96 5.01465Q20.8594 4.36523 22.4512 3.19336Q24.043 2.02148 25.2197 0.429688Q26.3965-1.16211 27.0459-3.06641Q27.6953-4.9707 27.6953-7.05078Q27.6953-9.14062 27.0459-11.04Q26.3965-12.9395 25.2197-14.5312Q24.043-16.123 22.4512-17.2998Q20.8594-18.4766 18.9551-19.126Q17.0508-19.7754 14.9609-19.7754Q12.8711-19.7754 10.9717-19.126Q9.07227-18.4766 7.48535-17.2998Q5.89844-16.123 4.72168-14.5312Q3.54492-12.9395 2.90039-11.04Q2.25586-9.14062 2.25586-7.05078Q2.25586-4.9707 2.90527-3.06641Q3.55469-1.16211 4.72656 0.429688Q5.89844 2.02148 7.49023 3.19336Q9.08203 4.36523 10.9814 5.01465Q12.8809 5.66406 14.9707 5.66406ZM14.9707 3.84766Q13.1641 3.84766 11.5283 3.2959Q9.89258 2.74414 8.53516 1.74805Q7.17773 0.751953 6.17676-0.610352Q5.17578-1.97266 4.62891-3.6084Q4.08203-5.24414 4.08203-7.05078Q4.08203-8.86719 4.62891-10.5029Q5.17578-12.1387 6.17188-13.501Q7.16797-14.8633 8.52539-15.8594Q9.88281-16.8555 11.5186-17.4023Q13.1543-17.9492 14.9609-17.9492Q16.7773-17.9492 18.4131-17.4023Q20.0488-16.8555 21.4111-15.8594Q22.7734-14.8633 23.7695-13.501Q24.7656-12.1387 25.3174-10.5029Q25.8691-8.86719 25.8691-7.05078Q25.8789-5.24414 25.332-3.6084Q24.7852-1.97266 23.7842-0.610352Q22.7832 0.751953 21.4209 1.74805Q20.0586 2.74414 18.4229 3.2959Q16.7871 3.84766 14.9707 3.84766ZM9.19922-7.05078Q9.19922-6.66992 9.45801-6.4209Q9.7168-6.17188 10.1172-6.17188L14.0625-6.17188L14.0625-2.2168Q14.0625-1.81641 14.3115-1.55762Q14.5605-1.29883 14.9512-1.29883Q15.3516-1.29883 15.6104-1.55273Q15.8691-1.80664 15.8691-2.2168L15.8691-6.17188L19.8242-6.17188Q20.2246-6.17188 20.4785-6.4209Q20.7324-6.66992 20.7324-7.05078Q20.7324-7.46094 20.4785-7.71484Q20.2246-7.96875 19.8242-7.96875L15.8691-7.96875L15.8691-11.9141Q15.8691-12.3242 15.6104-12.583Q15.3516-12.8418 14.9512-12.8418Q14.5605-12.8418 14.3115-12.583Q14.0625-12.3242 14.0625-11.9141L14.0625-7.96875L10.1172-7.96875Q9.70703-7.96875 9.45312-7.71484Q9.19922-7.46094 9.19922-7.05078Z"/>
  </g>
  <text style="stroke:none;fill:black;font-family:sans-serif;font-size:13;font-weight:bold;" transform="matrix(1 0 0 1 263 1953)">Design Variations</text>
  <text style="stroke:none;fill:black;font-family:sans-serif;font-size:13;" transform="matrix(1 0 0 1 263 1971)">Symbols are supported in up to nine weights and three scales.</text>
  <text style="stroke:none;fill:black;font-family:sans-serif;font-size:13;" transform="matrix(1 0 0 1 263 1989)">For optimal layout with text and other symbols, vertically align</text>
  <text style="stroke:none;fill:black;font-family:sans-serif;font-size:13;" transform="matrix(1 0 0 1 263 2007)">symbols with the adjacent text.</text>
  <line style="fill:none;stroke:#00AEEF;stroke-width:0.5;opacity:1.0;" x1="776" x2="776" y1="1919" y2="1933"/>
  <g transform="matrix(1 0 0 1 776 1933)">
   <path d="M3.31055 0.15625Q3.70117 0.15625 3.91602-0.00976562Q4.13086-0.175781 4.26758-0.585938L5.52734-4.0332L11.2891-4.0332L12.5488-0.585938Q12.6855-0.175781 12.9004-0.00976562Q13.1152 0.15625 13.4961 0.15625Q13.8867 0.15625 14.1162-0.0585938Q14.3457-0.273438 14.3457-0.644531Q14.3457-0.869141 14.2383-1.17188L9.6582-13.3691Q9.48242-13.8184 9.17969-14.043Q8.87695-14.2676 8.4082-14.2676Q7.5-14.2676 7.17773-13.3789L2.59766-1.16211Q2.49023-0.859375 2.49023-0.634766Q2.49023-0.263672 2.70996-0.0537109Q2.92969 0.15625 3.31055 0.15625ZM6.00586-5.51758L8.37891-12.0898L8.42773-12.0898L10.8008-5.51758Z"/>
  </g>
  <line style="fill:none;stroke:#00AEEF;stroke-width:0.5;opacity:1.0;" x1="793.197" x2="793.197" y1="1919" y2="1933"/>
  <text style="stroke:none;fill:black;font-family:sans-serif;font-size:13;font-weight:bold;" transform="matrix(1 0 0 1 776 1953)">Margins</text>
  <text style="stroke:none;fill:black;font-family:sans-serif;font-size:13;" transform="matrix(1 0 0 1 776 1971)">Leading and trailing margins on the left and right side of each symbol</text>
  <text style="stroke:none;fill:black;font-family:sans-serif;font-size:13;" transform="matrix(1 0 0 1 776 1989)">can be adjusted by modifying the x-location of the margin guidelines.</text>
  <text style="stroke:none;fill:black;font-family:sans-serif;font-size:13;" transform="matrix(1 0 0 1 776 2007)">Modifications are automatically applied proportionally to all</text>
  <text style="stroke:none;fill:black;font-family:sans-serif;font-size:13;" transform="matrix(1 0 0 1 776 2025)">scales and weights.</text>
  <g transform="matrix(1 0 0 1 1289 1933)">
   <path d="M2.8418 1.86523L4.54102 3.57422Q5.18555 4.22852 5.90332 4.17969Q6.62109 4.13086 7.31445 3.35938L18.0078-8.42773L17.041-9.4043L6.42578 2.27539Q6.16211 2.57812 5.89355 2.61719Q5.625 2.65625 5.27344 2.30469L4.10156 1.14258Q3.75 0.791016 3.79395 0.522461Q3.83789 0.253906 4.14062-0.0195312L15.6152-10.8203L14.6387-11.7871L3.04688-0.898438Q2.30469-0.214844 2.25098 0.498047Q2.19727 1.21094 2.8418 1.86523ZM9.25781-16.3281Q8.94531-16.0254 8.90625-15.6348Q8.86719-15.2441 9.04297-14.9512Q9.21875-14.6777 9.55566-14.541Q9.89258-14.4043 10.3809-14.5215Q11.4746-14.7754 12.5977-14.7314Q13.7207-14.6875 14.7949-13.9844L14.209-12.5293Q13.9551-11.9043 14.0674-11.4404Q14.1797-10.9766 14.5801-10.5664L16.875-8.25195Q17.2363-7.88086 17.5781-7.82227Q17.9199-7.76367 18.3398-7.8418L19.4043-8.03711L20.0684-7.36328L20.0293-6.80664Q20-6.43555 20.1221-6.12305Q20.2441-5.81055 20.6055-5.44922L21.3672-4.70703Q21.7285-4.3457 22.1533-4.33105Q22.5781-4.31641 22.9297-4.66797L25.8398-7.58789Q26.1914-7.93945 26.1816-8.35449Q26.1719-8.76953 25.8105-9.13086L25.0391-9.89258Q24.6875-10.2539 24.3799-10.3857Q24.0723-10.5176 23.7109-10.4883L23.1348-10.4395L22.4902-11.0742L22.7344-12.1973Q22.832-12.6172 22.6953-12.9834Q22.5586-13.3496 22.1191-13.7891L19.9219-15.9766Q18.6719-17.2168 17.2607-17.8369Q15.8496-18.457 14.4189-18.4814Q12.9883-18.5059 11.665-17.959Q10.3418-17.4121 9.25781-16.3281ZM10.752-15.957Q11.6602-16.6211 12.7002-16.9043Q13.7402-17.1875 14.8047-17.085Q15.8691-16.9824 16.8701-16.5137Q17.8711-16.0449 18.7012-15.2051L21.1328-12.793Q21.3086-12.6172 21.3525-12.4512Q21.3965-12.2852 21.3379-12.0312L21.0156-10.5469L22.5195-9.0625L23.5059-9.12109Q23.6914-9.13086 23.7891-9.09668Q23.8867-9.0625 24.0332-8.91602L24.6094-8.33984L22.168-5.89844L21.5918-6.47461Q21.4453-6.62109 21.4062-6.71875Q21.3672-6.81641 21.377-7.01172L21.4453-7.98828L19.9512-9.47266L18.4277-9.21875Q18.1836-9.16992 18.042-9.2041Q17.9004-9.23828 17.7148-9.41406L15.7129-11.416Q15.5176-11.5918 15.4932-11.7529Q15.4688-11.9141 15.5859-12.1875L16.4648-14.2773Q15.293-15.3711 13.8281-15.791Q12.3633-16.2109 10.8398-15.7617Q10.7227-15.7324 10.6885-15.8057Q10.6543-15.8789 10.752-15.957Z"/>
  </g>
  <text style="stroke:none;fill:black;font-family:sans-serif;font-size:13;font-weight:bold;" transform="matrix(1 0 0 1 1289 1953)">Exporting</text>
  <text style="stroke:none;fill:black;font-family:sans-serif;font-size:13;" transform="matrix(1 0 0 1 1289 1971)">Symbols should be outlined when exporting to ensure the</text>
  <text style="stroke:none;fill:black;font-family:sans-serif;font-size:13;" transform="matrix(1 0 0 1 1289 1989)">design is preserved when submitting to Xcode.</text>
  <text id="template-version" style="stroke:none;fill:black;font-family:sans-serif;font-size:13;text-anchor:end;" transform="matrix(1 0 0 1 3036 1933)">Template v.3.0</text>
  <text style="stroke:none;fill:black;font-family:sans-serif;font-size:13;text-anchor:end;" transform="matrix(1 0 0 1 3036 1951)">Requires Xcode 13 or greater</text>
  <text id="descriptive-name" style="stroke:none;fill:black;font-family:sans-serif;font-size:13;text-anchor:end;" transform="matrix(1 0 0 1 3036 1969)">Generated from mic.square.fill</text>
  <text style="stroke:none;fill:black;font-family:sans-serif;font-size:13;text-anchor:end;" transform="matrix(1 0 0 1 3036 1987)">Typeset at 100 points</text>
  <text style="stroke:none;fill:black;font-family:sans-serif;font-size:13;" transform="matrix(1 0 0 1 263 726)">Small</text>
  <text style="stroke:none;fill:black;font-family:sans-serif;font-size:13;" transform="matrix(1 0 0 1 263 1156)">Medium</text>
  <text style="stroke:none;fill:black;font-family:sans-serif;font-size:13;" transform="matrix(1 0 0 1 263 1586)">Large</text>
 </g>
 <g id="Guides">
  <g id="H-reference" style="fill:#27AAE1;stroke:none;" transform="matrix(1 0 0 1 339 696)">
   <path d="M0.976562 0L3.66211 0L29.3457-67.1387L30.0293-67.1387L30.0293-70.459L28.125-70.459ZM11.6699-24.4629L46.9727-24.4629L46.2402-26.709L12.4512-26.709ZM55.127 0L57.7637 0L30.6152-70.459L29.4434-70.459L29.4434-67.1387Z"/>
  </g>
  <line id="Baseline-S" style="fill:none;stroke:#27AAE1;opacity:1;stroke-width:0.5;" x1="263" x2="3036" y1="696" y2="696"/>
  <line id="Capline-S" style="fill:none;stroke:#27AAE1;opacity:1;stroke-width:0.5;" x1="263" x2="3036" y1="625.541" y2="625.541"/>
  <g id="H-reference" style="fill:#27AAE1;stroke:none;" transform="matrix(1 0 0 1 339 1126)">
   <path d="M0.976562 0L3.66211 0L29.3457-67.1387L30.0293-67.1387L30.0293-70.459L28.125-70.459ZM11.6699-24.4629L46.9727-24.4629L46.2402-26.709L12.4512-26.709ZM55.127 0L57.7637 0L30.6152-70.459L29.4434-70.459L29.4434-67.1387Z"/>
  </g>
  <line id="Baseline-M" style="fill:none;stroke:#27AAE1;opacity:1;stroke-width:0.5;" x1="263" x2="3036" y1="1126" y2="1126"/>
  <line id="Capline-M" style="fill:none;stroke:#27AAE1;opacity:1;stroke-width:0.5;" x1="263" x2="3036" y1="1055.54" y2="1055.54"/>
  <g id="H-reference" style="fill:#27AAE1;stroke:none;" transform="matrix(1 0 0 1 339 1556)">
   <path d="M0.976562 0L3.66211 0L29.3457-67.1387L30.0293-67.1387L30.0293-70.459L28.125-70.459ZM11.6699-24.4629L46.9727-24.4629L46.2402-26.709L12.4512-26.709ZM55.127 0L57.7637 0L30.6152-70.459L29.4434-70.459L29.4434-67.1387Z"/>
  </g>
  <line id="Baseline-L" style="fill:none;stroke:#27AAE1;opacity:1;stroke-width:0.5;" x1="263" x2="3036" y1="1556" y2="1556"/>
  <line id="Capline-L" style="fill:none;stroke:#27AAE1;opacity:1;stroke-width:0.5;" x1="263" x2="3036" y1="1485.54" y2="1485.54"/>
  <line id="left-margin-Ultralight-S" style="fill:none;stroke:#00AEEF;stroke-width:0.5;opacity:1.0;" x1="516.352" x2="516.352" y1="600.785" y2="720.121"/>
  <line id="right-margin-Ultralight-S" style="fill:none;stroke:#00AEEF;stroke-width:0.5;opacity:1.0;" x1="603.07" x2="603.07" y1="600.785" y2="720.121"/>
  <line id="left-margin-Thin-S" style="fill:none;stroke:#00AEEF;stroke-width:0.5;opacity:1.0;" x1="812.623" x2="812.623" y1="600.785" y2="720.121"/>
  <line id="right-margin-Thin-S" style="fill:none;stroke:#00AEEF;stroke-width:0.5;opacity:1.0;" x1="900.221" x2="900.221" y1="600.785" y2="720.121"/>
  <line id="left-margin-Light-S" style="fill:none;stroke:#00AEEF;stroke-width:0.5;opacity:1.0;" x1="1108.46" x2="1108.46" y1="600.785" y2="720.121"/>
  <line id="right-margin-Light-S" style="fill:none;stroke:#00AEEF;stroke-width:0.5;opacity:1.0;" x1="1197.81" x2="1197.81" y1="600.785" y2="720.121"/>
  <line id="left-margin-Regular-S" style="fill:none;stroke:#00AEEF;stroke-width:0.5;opacity:1.0;" x1="1404.51" x2="1404.51" y1="600.785" y2="720.121"/>
  <line id="right-margin-Regular-S" style="fill:none;stroke:#00AEEF;stroke-width:0.5;opacity:1.0;" x1="1495.18" x2="1495.18" y1="600.785" y2="720.121"/>
  <line id="left-margin-Medium-S" style="fill:none;stroke:#00AEEF;stroke-width:0.5;opacity:1.0;" x1="1700.75" x2="1700.75" y1="600.785" y2="720.121"/>
  <line id="right-margin-Medium-S" style="fill:none;stroke:#00AEEF;stroke-width:0.5;opacity:1.0;" x1="1792.36" x2="1792.36" y1="600.785" y2="720.121"/>
  <line id="left-margin-Semibold-S" style="fill:none;stroke:#00AEEF;stroke-width:0.5;opacity:1.0;" x1="1997.12" x2="1997.12" y1="600.785" y2="720.121"/>
  <line id="right-margin-Semibold-S" style="fill:none;stroke:#00AEEF;stroke-width:0.5;opacity:1.0;" x1="2089.41" x2="2089.41" y1="600.785" y2="720.121"/>
  <line id="left-margin-Bold-S" style="fill:none;stroke:#00AEEF;stroke-width:0.5;opacity:1.0;" x1="2293.35" x2="2293.35" y1="600.785" y2="720.121"/>
  <line id="right-margin-Bold-S" style="fill:none;stroke:#00AEEF;stroke-width:0.5;opacity:1.0;" x1="2386.61" x2="2386.61" y1="600.785" y2="720.121"/>
  <line id="left-margin-Heavy-S" style="fill:none;stroke:#00AEEF;stroke-width:0.5;opacity:1.0;" x1="2589.4" x2="2589.4" y1="600.785" y2="720.121"/>
  <line id="right-margin-Heavy-S" style="fill:none;stroke:#00AEEF;stroke-width:0.5;opacity:1.0;" x1="2683.98" x2="2683.98" y1="600.785" y2="720.121"/>
  <line id="left-margin-Black-S" style="fill:none;stroke:#00AEEF;stroke-width:0.5;opacity:1.0;" x1="2885.5" x2="2885.5" y1="600.785" y2="720.121"/>
  <line id="right-margin-Black-S" style="fill:none;stroke:#00AEEF;stroke-width:0.5;opacity:1.0;" x1="2981.3" x2="2981.3" y1="600.785" y2="720.121"/>
  <line id="left-margin-Ultralight-M" style="fill:none;stroke:#00AEEF;stroke-width:0.5;opacity:1.0;" x1="504.535" x2="504.535" y1="1030.79" y2="1150.12"/>
  <line id="right-margin-Ultralight-M" style="fill:none;stroke:#00AEEF;stroke-width:0.5;opacity:1.0;" x1="614.887" x2="614.887" y1="1030.79" y2="1150.12"/>
  <line id="left-margin-Thin-M" style="fill:none;stroke:#00AEEF;stroke-width:0.5;opacity:1.0;" x1="800.758" x2="800.758" y1="1030.79" y2="1150.12"/>
  <line id="right-margin-Thin-M" style="fill:none;stroke:#00AEEF;stroke-width:0.5;opacity:1.0;" x1="912.086" x2="912.086" y1="1030.79" y2="1150.12"/>
  <line id="left-margin-Light-M" style="fill:none;stroke:#00AEEF;stroke-width:0.5;opacity:1.0;" x1="1096.47" x2="1096.47" y1="1030.79" y2="1150.12"/>
  <line id="right-margin-Light-M" style="fill:none;stroke:#00AEEF;stroke-width:0.5;opacity:1.0;" x1="1209.8" x2="1209.8" y1="1030.79" y2="1150.12"/>
  <line id="left-margin-Regular-M" style="fill:none;stroke:#00AEEF;stroke-width:0.5;opacity:1.0;" x1="1392.45" x2="1392.45" y1="1030.79" y2="1150.12"/>
  <line id="right-margin-Regular-M" style="fill:none;stroke:#00AEEF;stroke-width:0.5;opacity:1.0;" x1="1507.24" x2="1507.24" y1="1030.79" y2="1150.12"/>
  <line id="left-margin-Medium-M" style="fill:none;stroke:#00AEEF;stroke-width:0.5;opacity:1.0;" x1="1688.52" x2="1688.52" y1="1030.79" y2="1150.12"/>
  <line id="right-margin-Medium-M" style="fill:none;stroke:#00AEEF;stroke-width:0.5;opacity:1.0;" x1="1804.59" x2="1804.59" y1="1030.79" y2="1150.12"/>
  <line id="left-margin-Semibold-M" style="fill:none;stroke:#00AEEF;stroke-width:0.5;opacity:1.0;" x1="1984.77" x2="1984.77" y1="1030.79" y2="1150.12"/>
  <line id="right-margin-Semibold-M" style="fill:none;stroke:#00AEEF;stroke-width:0.5;opacity:1.0;" x1="2101.76" x2="2101.76" y1="1030.79" y2="1150.12"/>
  <line id="left-margin-Bold-M" style="fill:none;stroke:#00AEEF;stroke-width:0.5;opacity:1.0;" x1="2280.85" x2="2280.85" y1="1030.79" y2="1150.12"/>
  <line id="right-margin-Bold-M" style="fill:none;stroke:#00AEEF;stroke-width:0.5;opacity:1.0;" x1="2399.11" x2="2399.11" y1="1030.79" y2="1150.12"/>
  <line id="left-margin-Heavy-M" style="fill:none;stroke:#00AEEF;stroke-width:0.5;opacity:1.0;" x1="2576.65" x2="2576.65" y1="1030.79" y2="1150.12"/>
  <line id="right-margin-Heavy-M" style="fill:none;stroke:#00AEEF;stroke-width:0.5;opacity:1.0;" x1="2696.72" x2="2696.72" y1="1030.79" y2="1150.12"/>
  <line id="left-margin-Black-M" style="fill:none;stroke:#00AEEF;stroke-width:0.5;opacity:1.0;" x1="2872.54" x2="2872.54" y1="1030.79" y2="1150.12"/>
  <line id="right-margin-Black-M" style="fill:none;stroke:#00AEEF;stroke-width:0.5;opacity:1.0;" x1="2994.26" x2="2994.26" y1="1030.79" y2="1150.12"/>
  <line id="left-margin-Ultralight-L" style="fill:none;stroke:#00AEEF;stroke-width:0.5;opacity:1.0;" x1="488.739" x2="488.739" y1="1460.79" y2="1580.12"/>
  <line id="right-margin-Ultralight-L" style="fill:none;stroke:#00AEEF;stroke-width:0.5;opacity:1.0;" x1="630.683" x2="630.683" y1="1460.79" y2="1580.12"/>
  <line id="left-margin-Thin-L" style="fill:none;stroke:#00AEEF;stroke-width:0.5;opacity:1.0;" x1="784.889" x2="784.889" y1="1460.79" y2="1580.12"/>
  <line id="right-margin-Thin-L" style="fill:none;stroke:#00AEEF;stroke-width:0.5;opacity:1.0;" x1="927.955" x2="927.955" y1="1460.79" y2="1580.12"/>
  <line id="left-margin-Light-L" style="fill:none;stroke:#00AEEF;stroke-width:0.5;opacity:1.0;" x1="1080.5" x2="1080.5" y1="1460.79" y2="1580.12"/>
  <line id="right-margin-Light-L" style="fill:none;stroke:#00AEEF;stroke-width:0.5;opacity:1.0;" x1="1225.77" x2="1225.77" y1="1460.79" y2="1580.12"/>
  <line id="left-margin-Regular-L" style="fill:none;stroke:#00AEEF;stroke-width:0.5;opacity:1.0;" x1="1376.38" x2="1376.38" y1="1460.79" y2="1580.12"/>
  <line id="right-margin-Regular-L" style="fill:none;stroke:#00AEEF;stroke-width:0.5;opacity:1.0;" x1="1523.31" x2="1523.31" y1="1460.79" y2="1580.12"/>
  <line id="left-margin-Medium-L" style="fill:none;stroke:#00AEEF;stroke-width:0.5;opacity:1.0;" x1="1672.31" x2="1672.31" y1="1460.79" y2="1580.12"/>
  <line id="right-margin-Medium-L" style="fill:none;stroke:#00AEEF;stroke-width:0.5;opacity:1.0;" x1="1820.8" x2="1820.8" y1="1460.79" y2="1580.12"/>
  <line id="left-margin-Semibold-L" style="fill:none;stroke:#00AEEF;stroke-width:0.5;opacity:1.0;" x1="1968.44" x2="1968.44" y1="1460.79" y2="1580.12"/>
  <line id="right-margin-Semibold-L" style="fill:none;stroke:#00AEEF;stroke-width:0.5;opacity:1.0;" x1="2118.1" x2="2118.1" y1="1460.79" y2="1580.12"/>
  <line id="left-margin-Bold-L" style="fill:none;stroke:#00AEEF;stroke-width:0.5;opacity:1.0;" x1="2264.34" x2="2264.34" y1="1460.79" y2="1580.12"/>
  <line id="right-margin-Bold-L" style="fill:none;stroke:#00AEEF;stroke-width:0.5;opacity:1.0;" x1="2415.61" x2="2415.61" y1="1460.79" y2="1580.12"/>
  <line id="left-margin-Heavy-L" style="fill:none;stroke:#00AEEF;stroke-width:0.5;opacity:1.0;" x1="2559.93" x2="2559.93" y1="1460.79" y2="1580.12"/>
  <line id="right-margin-Heavy-L" style="fill:none;stroke:#00AEEF;stroke-width:0.5;opacity:1.0;" x1="2713.45" x2="2713.45" y1="1460.79" y2="1580.12"/>
  <line id="left-margin-Black-L" style="fill:none;stroke:#00AEEF;stroke-width:0.5;opacity:1.0;" x1="2855.62" x2="2855.62" y1="1460.79" y2="1580.12"/>
  <line id="right-margin-Black-L" style="fill:none;stroke:#00AEEF;stroke-width:0.5;opacity:1.0;" x1="3011.18" x2="3011.18" y1="1460.79" y2="1580.12"/>
 </g>
 <g id="Symbols">
  <g id="Black-L" transform="matrix(1 0 0 1 2855.62 1556)">
   <path class="multicolor-0:systemOrangeColor hierarchical-0:tertiary SFSymbolsPreviewFF9500" d="M39.9902 26.5137L115.576 26.5137Q127.002 26.5137 133.252 20.3125Q139.502 14.1113 139.502 2.68555L139.502-73.0957Q139.502-84.4727 133.252-90.6738Q127.002-96.875 115.576-96.875L39.9902-96.875Q28.5645-96.875 22.3145-90.6738Q16.0645-84.4727 16.0645-73.0957L16.0645 2.68555Q16.0645 14.1113 22.3145 20.3125Q28.5645 26.5137 39.9902 26.5137Z"/>
   <path class="multicolor-1:white hierarchical-1:primary SFSymbolsPreviewFFFFFF" d="M78.4668-25.1465Q75.1953-25.1465 72.3633-26.6846Q69.5312-28.2227 67.749-31.0303Q65.9668-33.8379 65.9668-37.5977L65.9668-62.5488Q65.9668-66.2598 67.749-69.043Q69.5312-71.8262 72.3633-73.3643Q75.1953-74.9023 78.4668-74.9023Q81.6895-74.9023 84.5215-73.3398Q87.3535-71.7773 89.0869-68.9697Q90.8203-66.1621 90.8203-62.4512L90.8203-37.5977Q90.8203-33.8379 89.0869-31.0303Q87.3535-28.2227 84.5215-26.6846Q81.6895-25.1465 78.4668-25.1465ZM62.5488 3.4668Q60.4004 3.4668 58.8623 1.97754Q57.3242 0.488281 57.3242-1.5625Q57.3242-3.61328 58.8623-5.15137Q60.4004-6.68945 62.5488-6.68945L73.6328-6.68945L73.6328-10.5957Q66.9434-11.5234 61.6455-14.8682Q56.3477-18.2129 53.2471-23.6084Q50.1465-29.0039 50.1465-35.9863L50.1465-43.5059Q50.1465-45.5566 51.6602-46.9727Q53.1738-48.3887 55.2734-48.3887Q57.373-48.3887 58.8867-46.9727Q60.4004-45.5566 60.4004-43.5059L60.4004-36.1816Q60.4004-31.4941 62.8662-27.7344Q65.332-23.9746 69.4092-21.7529Q73.4863-19.5312 78.3691-19.5312Q83.3008-19.5312 87.3779-21.7529Q91.4551-23.9746 93.9209-27.7344Q96.3867-31.4941 96.3867-36.1816L96.3867-43.5059Q96.3867-45.5566 97.9004-46.9727Q99.4141-48.3887 101.514-48.3887Q103.613-48.3887 105.127-46.9727Q106.641-45.5566 106.641-43.5059L106.641-35.9863Q106.641-29.0039 103.564-23.6328Q100.488-18.2617 95.166-14.8926Q89.8438-11.5234 83.2031-10.5957L83.2031-6.68945L94.2871-6.68945Q96.3867-6.68945 97.9248-5.15137Q99.4629-3.61328 99.4629-1.5625Q99.4629 0.488281 97.9248 1.97754Q96.3867 3.4668 94.2871 3.4668Z"/>
  </g>
  <g id="Heavy-L" transform="matrix(1 0 0 1 2559.93 1556)">
   <path class="multicolor-0:systemOrangeColor hierarchical-0:tertiary SFSymbolsPreviewFF9500" d="M38.8184 25.4883L114.697 25.4883Q125.684 25.4883 131.567 19.6289Q137.451 13.7695 137.451 2.88086L137.451-73.2422Q137.451-84.1309 131.567-89.9902Q125.684-95.8496 114.697-95.8496L38.8184-95.8496Q27.8809-95.8496 21.9727-89.9902Q16.0645-84.1309 16.0645-73.2422L16.0645 2.88086Q16.0645 13.8184 21.9727 19.6533Q27.8809 25.4883 38.8184 25.4883Z"/>
   <path class="multicolor-1:white hierarchical-1:primary SFSymbolsPreviewFFFFFF" d="M77.2949-24.6094Q74.0234-24.6094 71.2891-26.1475Q68.5547-27.6855 66.8945-30.4443Q65.2344-33.2031 65.2344-36.8164L65.2344-62.5Q65.2344-66.1133 66.8945-68.8477Q68.5547-71.582 71.2891-73.0957Q74.0234-74.6094 77.2949-74.6094Q80.5176-74.6094 83.252-73.0713Q85.9863-71.5332 87.6221-68.7744Q89.2578-66.0156 89.2578-62.4023L89.2578-36.8164Q89.2578-33.2031 87.6221-30.4443Q85.9863-27.6855 83.252-26.1475Q80.5176-24.6094 77.2949-24.6094ZM61.3281 3.51562Q59.375 3.51562 57.9834 2.17285Q56.5918 0.830078 56.5918-1.02539Q56.5918-2.92969 57.9834-4.32129Q59.375-5.71289 61.3281-5.71289L72.8516-5.71289L72.8516-10.498Q66.2598-11.3281 61.0596-14.6729Q55.8594-18.0176 52.8564-23.3398Q49.8535-28.6621 49.8535-35.5469L49.8535-43.1641Q49.8535-45.0195 51.2207-46.3135Q52.5879-47.6074 54.4922-47.6074Q56.3965-47.6074 57.7637-46.3135Q59.1309-45.0195 59.1309-43.1641L59.1309-35.6934Q59.1309-30.8105 61.5723-26.9775Q64.0137-23.1445 68.0908-20.8984Q72.168-18.6523 77.2461-18.6523Q82.2754-18.6523 86.377-20.8984Q90.4785-23.1445 92.9199-26.9775Q95.3613-30.8105 95.3613-35.6934L95.3613-43.1641Q95.3613-45.0195 96.7285-46.3135Q98.0957-47.6074 100-47.6074Q101.855-47.6074 103.247-46.3135Q104.639-45.0195 104.639-43.1641L104.639-35.5469Q104.639-28.6621 101.636-23.3398Q98.6328-18.0176 93.4326-14.6973Q88.2324-11.377 81.6406-10.498L81.6406-5.71289L93.2129-5.71289Q95.1172-5.71289 96.5088-4.32129Q97.9004-2.92969 97.9004-1.02539Q97.9004 0.830078 96.4844 2.17285Q95.0684 3.51562 93.2129 3.51562Z"/>
  </g>
  <g id="Bold-L" transform="matrix(1 0 0 1 2264.34 1556)">
   <path class="multicolor-0:systemOrangeColor hierarchical-0:tertiary SFSymbolsPreviewFF9500" d="M37.5488 24.3652L113.721 24.3652Q124.17 24.3652 129.688 18.8965Q135.205 13.4277 135.205 3.07617L135.205-73.4375Q135.205-83.7891 129.688-89.2578Q124.17-94.7266 113.721-94.7266L37.5488-94.7266Q27.0996-94.7266 21.582-89.2578Q16.0645-83.7891 16.0645-73.4375L16.0645 3.07617Q16.0645 13.4766 21.582 18.9209Q27.0996 24.3652 37.5488 24.3652Z"/>
   <path class="multicolor-1:white hierarchical-1:primary SFSymbolsPreviewFFFFFF" d="M76.0254-24.0234Q72.8027-24.0234 70.166-25.5371Q67.5293-27.0508 65.9668-29.7607Q64.4043-32.4707 64.4043-35.9863L64.4043-62.4512Q64.4043-65.918 65.9668-68.6035Q67.5293-71.2891 70.166-72.8027Q72.8027-74.3164 76.0254-74.3164Q79.248-74.3164 81.8604-72.8027Q84.4727-71.2891 86.0107-68.5791Q87.5488-65.8691 87.5488-62.4023L87.5488-35.9863Q87.5488-32.4707 86.0107-29.7607Q84.4727-27.0508 81.8604-25.5371Q79.248-24.0234 76.0254-24.0234ZM60.0098 3.56445Q58.3008 3.56445 57.0557 2.36816Q55.8105 1.17188 55.8105-0.488281Q55.8105-2.14844 57.0557-3.39355Q58.3008-4.63867 60.0098-4.63867L72.0703-4.63867L72.0703-10.4004Q65.5273-11.1816 60.4492-14.4775Q55.3711-17.7734 52.4658-23.0469Q49.5605-28.3203 49.5605-35.0586L49.5605-42.7734Q49.5605-44.3848 50.7812-45.5566Q52.002-46.7285 53.6621-46.7285Q55.3223-46.7285 56.543-45.5566Q57.7637-44.3848 57.7637-42.7734L57.7637-35.1562Q57.7637-30.0781 60.1562-26.1475Q62.5488-22.2168 66.6504-19.9463Q70.752-17.6758 75.9766-17.6758Q81.2012-17.6758 85.3271-19.9463Q89.4531-22.2168 91.8457-26.1475Q94.2383-30.0781 94.2383-35.1562L94.2383-42.7734Q94.2383-44.3848 95.459-45.5566Q96.6797-46.7285 98.3398-46.7285Q100-46.7285 101.221-45.5566Q102.441-44.3848 102.441-42.7734L102.441-35.0586Q102.441-28.3203 99.5361-23.0469Q96.6309-17.7734 91.5527-14.4775Q86.4746-11.1816 79.9805-10.4004L79.9805-4.63867L92.041-4.63867Q93.7012-4.63867 94.9219-3.39355Q96.1426-2.14844 96.1426-0.488281Q96.1426 1.17188 94.9219 2.36816Q93.7012 3.56445 92.041 3.56445Z"/>
  </g>
  <g id="Semibold-L" transform="matrix(1 0 0 1 1968.44 1556)">
   <path class="multicolor-0:systemOrangeColor hierarchical-0:tertiary SFSymbolsPreviewFF9500" d="M36.6211 23.584L112.988 23.584Q123.145 23.584 128.369 18.3838Q133.594 13.1836 133.594 3.17383L133.594-73.5352Q133.594-83.4961 128.369-88.6963Q123.145-93.8965 112.988-93.8965L36.6211-93.8965Q26.5625-93.8965 21.3135-88.7207Q16.0645-83.5449 16.0645-73.5352L16.0645 3.17383Q16.0645 13.2324 21.3135 18.4082Q26.5625 23.584 36.6211 23.584Z"/>
   <path class="multicolor-1:white hierarchical-1:primary SFSymbolsPreviewFFFFFF" d="M75.0977-23.5352Q71.875-23.5352 69.3115-25.0488Q66.748-26.5625 65.2832-29.248Q63.8184-31.9336 63.8184-35.3516L63.8184-62.3535Q63.8184-65.7227 65.2832-68.3838Q66.748-71.0449 69.3115-72.5586Q71.875-74.0723 75.0977-74.0723Q78.2715-74.0723 80.835-72.5586Q83.3984-71.0449 84.8633-68.3838Q86.3281-65.7227 86.3281-62.3047L86.3281-35.3516Q86.3281-31.9336 84.8633-29.248Q83.3984-26.5625 80.835-25.0488Q78.2715-23.5352 75.0977-23.5352ZM59.0332 3.66211Q57.4707 3.66211 56.3477 2.56348Q55.2246 1.46484 55.2246 0Q55.2246-1.51367 56.3477-2.66113Q57.4707-3.80859 59.0332-3.80859L71.4355-3.80859L71.4355-10.2539Q64.9414-10.9863 59.9609-14.2578Q54.9805-17.5293 52.1484-22.7539Q49.3164-27.9785 49.3164-34.6191L49.3164-42.4316Q49.3164-43.8965 50.415-44.9707Q51.5137-46.0449 53.0273-46.0449Q54.541-46.0449 55.6396-44.9707Q56.7383-43.8965 56.7383-42.4316L56.7383-34.7168Q56.7383-29.4922 59.1064-25.5127Q61.4746-21.5332 65.6006-19.2383Q69.7266-16.9434 75.0977-16.9434Q80.4199-16.9434 84.5459-19.2383Q88.6719-21.5332 91.04-25.5127Q93.4082-29.4922 93.4082-34.7168L93.4082-42.4316Q93.4082-43.8965 94.5068-44.9707Q95.6055-46.0449 97.1191-46.0449Q98.6328-46.0449 99.7314-44.9707Q100.83-43.8965 100.83-42.4316L100.83-34.6191Q100.83-27.9785 98.0225-22.7539Q95.2148-17.5293 90.21-14.2578Q85.2051-10.9863 78.7598-10.2539L78.7598-3.80859L91.1621-3.80859Q92.6758-3.80859 93.7988-2.66113Q94.9219-1.51367 94.9219 0Q94.9219 1.46484 93.7988 2.56348Q92.6758 3.66211 91.1621 3.66211Z"/>
  </g>
  <g id="Medium-L" transform="matrix(1 0 0 1 1672.31 1556)">
   <path class="multicolor-0:systemOrangeColor hierarchical-0:tertiary SFSymbolsPreviewFF9500" d="M35.9375 22.998L112.5 22.998Q122.363 22.998 127.393 17.9932Q132.422 12.9883 132.422 3.27148L132.422-73.6328Q132.422-83.3008 127.393-88.3057Q122.363-93.3105 112.5-93.3105L35.9375-93.3105Q26.1719-93.3105 21.1182-88.3301Q16.0645-83.3496 16.0645-73.6328L16.0645 3.27148Q16.0645 13.0371 21.1182 18.0176Q26.1719 22.998 35.9375 22.998Z"/>
   <path class="multicolor-1:white hierarchical-1:primary SFSymbolsPreviewFFFFFF" d="M74.4141-23.1934Q71.1426-23.1934 68.6523-24.7314Q66.1621-26.2695 64.7461-28.9062Q63.3301-31.543 63.3301-34.9121L63.3301-62.3047Q63.3301-65.6738 64.7461-68.2861Q66.1621-70.8984 68.6523-72.3877Q71.1426-73.877 74.4141-73.877Q77.5879-73.877 80.0781-72.3877Q82.5684-70.8984 83.9844-68.2617Q85.4004-65.625 85.4004-62.3047L85.4004-34.9121Q85.4004-31.543 83.9844-28.9062Q82.5684-26.2695 80.0781-24.7314Q77.5879-23.1934 74.4141-23.1934ZM58.3008 3.66211Q56.8359 3.66211 55.8105 2.66113Q54.7852 1.66016 54.7852 0.292969Q54.7852-1.12305 55.8105-2.17285Q56.8359-3.22266 58.3008-3.22266L70.9473-3.22266L70.9473-10.2051Q64.502-10.8887 59.5947-14.1357Q54.6875-17.3828 51.9043-22.583Q49.1211-27.7832 49.1211-34.375L49.1211-42.2363Q49.1211-43.6035 50.1221-44.5801Q51.123-45.5566 52.5391-45.5566Q53.9551-45.5566 54.9561-44.5801Q55.957-43.6035 55.957-42.2363L55.957-34.4238Q55.957-29.1016 58.3008-25.0732Q60.6445-21.0449 64.7949-18.75Q68.9453-16.4551 74.3652-16.4551Q79.7852-16.4551 83.9355-18.75Q88.0859-21.0449 90.4541-25.0732Q92.8223-29.1016 92.8223-34.4238L92.8223-42.2363Q92.8223-43.6035 93.8232-44.5801Q94.8242-45.5566 96.1914-45.5566Q97.5586-45.5566 98.6084-44.5801Q99.6582-43.6035 99.6582-42.2363L99.6582-34.375Q99.6582-27.7832 96.875-22.6074Q94.0918-17.4316 89.1846-14.1846Q84.2773-10.9375 77.832-10.2051L77.832-3.22266L90.4785-3.22266Q91.8945-3.22266 92.9199-2.17285Q93.9453-1.12305 93.9453 0.292969Q93.9453 1.66016 92.9199 2.66113Q91.8945 3.66211 90.4785 3.66211Z"/>
  </g>
  <g id="Regular-L" transform="matrix(1 0 0 1 1376.38 1556)">
   <path class="multicolor-0:systemOrangeColor hierarchical-0:tertiary SFSymbolsPreviewFF9500" d="M35.0586 22.2168L111.816 22.2168Q121.338 22.2168 126.099 17.4805Q130.859 12.7441 130.859 3.41797L130.859-73.7305Q130.859-83.0566 126.099-87.793Q121.338-92.5293 111.816-92.5293L35.0586-92.5293Q25.6348-92.5293 20.8496-87.8174Q16.0645-83.1055 16.0645-73.7305L16.0645 3.41797Q16.0645 12.793 20.8496 17.5049Q25.6348 22.2168 35.0586 22.2168Z"/>
   <path class="multicolor-1:white hierarchical-1:primary SFSymbolsPreviewFFFFFF" d="M73.5352-22.8027Q70.3125-22.8027 67.8955-24.3164Q65.4785-25.8301 64.1357-28.4424Q62.793-31.0547 62.793-34.3262L62.793-62.2559Q62.793-65.5273 64.1357-68.1152Q65.4785-70.7031 67.8955-72.1924Q70.3125-73.6816 73.5352-73.6816Q76.709-73.6816 79.126-72.1924Q81.543-70.7031 82.8857-68.1152Q84.2285-65.5273 84.2285-62.2559L84.2285-34.3262Q84.2285-31.0547 82.8857-28.4424Q81.543-25.8301 79.126-24.3164Q76.709-22.8027 73.5352-22.8027ZM57.373 3.71094Q56.1035 3.71094 55.1758 2.80762Q54.248 1.9043 54.248 0.683594Q54.248-0.585938 55.1758-1.53809Q56.1035-2.49023 57.373-2.49023L70.4102-2.49023L70.4102-10.1074Q64.0137-10.7422 59.1797-13.9893Q54.3457-17.2363 51.6357-22.3877Q48.9258-27.5391 48.9258-34.0332L48.9258-41.9434Q48.9258-43.1641 49.8291-44.0674Q50.7324-44.9707 51.9531-44.9707Q53.2227-44.9707 54.126-44.0674Q55.0293-43.1641 55.0293-41.9434L55.0293-34.0332Q55.0293-28.6133 57.3486-24.5117Q59.668-20.4102 63.8184-18.0908Q67.9688-15.7715 73.5352-15.7715Q79.0527-15.7715 83.2275-18.0908Q87.4023-20.4102 89.7217-24.5117Q92.041-28.6133 92.041-34.0332L92.041-41.9434Q92.041-43.1641 92.9443-44.0674Q93.8477-44.9707 95.0684-44.9707Q96.2891-44.9707 97.2168-44.0674Q98.1445-43.1641 98.1445-41.9434L98.1445-34.0332Q98.1445-27.5391 95.4346-22.3877Q92.7246-17.2363 87.8906-14.0137Q83.0566-10.791 76.6602-10.1074L76.6602-2.49023L89.6973-2.49023Q90.9668-2.49023 91.8701-1.53809Q92.7734-0.585938 92.7734 0.683594Q92.7734 1.9043 91.8457 2.80762Q90.918 3.71094 89.6973 3.71094Z"/>
  </g>
  <g id="Light-L" transform="matrix(1 0 0 1 1080.5 1556)">
   <path class="multicolor-0:systemOrangeColor hierarchical-0:tertiary SFSymbolsPreviewFF9500" d="M34.0332 21.4355L111.182 21.4355Q120.117 21.4355 124.658 16.8945Q129.199 12.3535 129.199 3.56445L129.199-73.8281Q129.199-82.6172 124.658-87.1582Q120.117-91.6992 111.182-91.6992L34.0332-91.6992Q25.1465-91.6992 20.6055-87.207Q16.0645-82.7148 16.0645-73.8281L16.0645 3.56445Q16.0645 12.4023 20.6055 16.9189Q25.1465 21.4355 34.0332 21.4355Z"/>
   <path class="multicolor-1:white hierarchical-1:primary SFSymbolsPreviewFFFFFF" d="M72.7051-22.9004Q69.4824-22.9004 67.0898-24.4141Q64.6973-25.9277 63.3545-28.54Q62.0117-31.1523 62.0117-34.4238L62.0117-62.3535Q62.0117-65.625 63.3545-68.2129Q64.6973-70.8008 67.0898-72.3145Q69.4824-73.8281 72.7051-73.8281Q75.8789-73.8281 78.2715-72.3145Q80.6641-70.8008 82.0068-68.2129Q83.3496-65.625 83.3496-62.3535L83.3496-34.4238Q83.3496-31.1523 82.0068-28.54Q80.6641-25.9277 78.2715-24.4141Q75.8789-22.9004 72.7051-22.9004ZM57.0312 3.71094Q56.0059 3.71094 55.249 2.9541Q54.4922 2.19727 54.4922 1.2207Q54.4922 0.146484 55.249-0.634766Q56.0059-1.41602 57.0312-1.41602L70.166-1.41602L70.166-10.5469Q63.8184-11.084 59.0088-14.209Q54.1992-17.334 51.4893-22.3389Q48.7793-27.3438 48.7793-33.6426L48.7793-40.918Q48.7793-41.9434 49.5117-42.6758Q50.2441-43.4082 51.2695-43.4082Q52.3438-43.4082 53.0762-42.6758Q53.8086-41.9434 53.8086-40.918L53.8086-33.6426Q53.8086-28.125 56.1279-23.999Q58.4473-19.873 62.6709-17.5537Q66.8945-15.2344 72.7051-15.2344Q78.4668-15.2344 82.7148-17.5537Q86.9629-19.873 89.2822-23.999Q91.6016-28.125 91.6016-33.6426L91.6016-40.918Q91.6016-41.9434 92.3584-42.6758Q93.1152-43.4082 94.1406-43.4082Q95.1172-43.4082 95.874-42.6758Q96.6309-41.9434 96.6309-40.918L96.6309-33.6426Q96.6309-27.3438 93.9209-22.3389Q91.2109-17.334 86.4014-14.209Q81.5918-11.084 75.2441-10.5469L75.2441-1.41602L88.3789-1.41602Q89.4043-1.41602 90.1367-0.634766Q90.8691 0.146484 90.8691 1.2207Q90.8691 2.19727 90.1123 2.9541Q89.3555 3.71094 88.3789 3.71094Z"/>
  </g>
  <g id="Thin-L" transform="matrix(1 0 0 1 784.889 1556)">
   <path class="multicolor-0:systemOrangeColor hierarchical-0:tertiary SFSymbolsPreviewFF9500" d="M32.666 20.3613L110.352 20.3613Q118.506 20.3613 122.754 16.0889Q127.002 11.8164 127.002 3.75977L127.002-73.9746Q127.002-82.0312 122.754-86.3037Q118.506-90.5762 110.352-90.5762L32.666-90.5762Q24.5117-90.5762 20.2881-86.377Q16.0645-82.1777 16.0645-73.9746L16.0645 3.75977Q16.0645 11.9141 20.2881 16.1377Q24.5117 20.3613 32.666 20.3613Z"/>
   <path class="multicolor-1:white hierarchical-1:primary SFSymbolsPreviewFFFFFF" d="M71.582-22.998Q68.3594-22.998 65.9912-24.5117Q63.623-26.0254 62.3047-28.6377Q60.9863-31.25 60.9863-34.5215L60.9863-62.5Q60.9863-65.7715 62.3047-68.3594Q63.623-70.9473 65.9912-72.4609Q68.3594-73.9746 71.582-73.9746Q74.8047-73.9746 77.1729-72.4609Q79.541-70.9473 80.835-68.3594Q82.1289-65.7715 82.1289-62.5L82.1289-34.5215Q82.1289-31.25 80.835-28.6377Q79.541-26.0254 77.1729-24.5117Q74.8047-22.998 71.582-22.998ZM56.5918 3.66211Q55.8594 3.66211 55.3467 3.125Q54.834 2.58789 54.834 1.85547Q54.834 1.12305 55.3467 0.585938Q55.8594 0.0488281 56.5918 0.0488281L69.7754 0.0488281L69.7754-11.084Q63.5254-11.4746 58.7402-14.4531Q53.9551-17.4316 51.2695-22.2412Q48.584-27.0508 48.584-33.1055L48.584-39.5996Q48.584-40.332 49.1211-40.8447Q49.6582-41.3574 50.3906-41.3574Q51.123-41.3574 51.6602-40.8447Q52.1973-40.332 52.1973-39.5996L52.1973-33.1055Q52.1973-27.4414 54.5166-23.2666Q56.8359-19.0918 61.1816-16.8213Q65.5273-14.5508 71.582-14.5508Q77.6367-14.5508 82.0068-16.8213Q86.377-19.0918 88.7207-23.2666Q91.0645-27.4414 91.0645-33.1055L91.0645-39.5996Q91.0645-40.332 91.6016-40.8447Q92.1387-41.3574 92.8711-41.3574Q93.6035-41.3574 94.1406-40.8447Q94.6777-40.332 94.6777-39.5996L94.6777-33.1055Q94.6777-27.0508 91.9434-22.2412Q89.209-17.4316 84.4238-14.4531Q79.6387-11.4746 73.3887-11.084L73.3887 0.0488281L86.5723 0.0488281Q87.3047 0.0488281 87.8174 0.585938Q88.3301 1.12305 88.3301 1.85547Q88.3301 2.58789 87.8174 3.125Q87.3047 3.66211 86.5723 3.66211Z"/>
  </g>
  <g id="Ultralight-L" transform="matrix(1 0 0 1 488.739 1556)">
   <path class="multicolor-0:systemOrangeColor hierarchical-0:tertiary SFSymbolsPreviewFF9500" d="M31.9824 19.8242L109.961 19.8242Q117.725 19.8242 121.802 15.6738Q125.879 11.5234 125.879 3.85742L125.879-74.0723Q125.879-81.7383 121.802-85.8643Q117.725-89.9902 109.961-89.9902L31.9824-89.9902Q24.1699-89.9902 20.1172-85.9375Q16.0645-81.8848 16.0645-74.0723L16.0645 3.85742Q16.0645 11.6699 20.1172 15.7471Q24.1699 19.8242 31.9824 19.8242Z"/>
   <path class="multicolor-1:white hierarchical-1:primary SFSymbolsPreviewFFFFFF" d="M70.9961-23.0957Q67.7734-23.0957 65.4297-24.6094Q63.0859-26.123 61.792-28.7354Q60.498-31.3477 60.498-34.5703L60.498-62.5977Q60.498-65.8691 61.792-68.457Q63.0859-71.0449 65.4297-72.5586Q67.7734-74.0723 70.9961-74.0723Q74.2188-74.0723 76.5869-72.5586Q78.9551-71.0449 80.249-68.457Q81.543-65.8691 81.543-62.5977L81.543-34.5703Q81.543-31.3477 80.249-28.7354Q78.9551-26.123 76.5869-24.6094Q74.2188-23.0957 70.9961-23.0957ZM56.3965 3.66211Q55.8105 3.66211 55.3955 3.24707Q54.9805 2.83203 54.9805 2.24609Q54.9805 1.66016 55.3955 1.2207Q55.8105 0.78125 56.3965 0.78125L69.6289 0.78125L69.6289-11.377Q63.3789-11.7188 58.6182-14.5996Q53.8574-17.4805 51.1719-22.1924Q48.4863-26.9043 48.4863-32.8125L48.4863-38.916Q48.4863-39.502 48.9014-39.8926Q49.3164-40.2832 49.9023-40.2832Q50.5371-40.2832 50.9521-39.8926Q51.3672-39.502 51.3672-38.916L51.3672-32.8125Q51.3672-27.0996 53.6865-22.9248Q56.0059-18.75 60.4004-16.4551Q64.7949-14.1602 70.9961-14.1602Q77.2461-14.1602 81.665-16.4551Q86.084-18.75 88.4277-22.9248Q90.7715-27.0996 90.7715-32.8125L90.7715-38.916Q90.7715-39.502 91.2109-39.8926Q91.6504-40.2832 92.2363-40.2832Q92.8223-40.2832 93.2373-39.8926Q93.6523-39.502 93.6523-38.916L93.6523-32.8125Q93.6523-26.9043 90.918-22.1924Q88.1836-17.4805 83.4229-14.5996Q78.6621-11.7188 72.4609-11.377L72.4609 0.78125L85.6934 0.78125Q86.2793 0.78125 86.6699 1.2207Q87.0605 1.66016 87.0605 2.24609Q87.0605 2.83203 86.6699 3.24707Q86.2793 3.66211 85.6934 3.66211Z"/>
  </g>
  <g id="Black-M" transform="matrix(1 0 0 1 2872.54 1126)">
   <path class="multicolor-0:systemOrangeColor hierarchical-0:tertiary SFSymbolsPreviewFF9500" d="M31.5918 13.2324L90.1367 13.2324Q99.1699 13.2324 104.224 8.17871Q109.277 3.125 109.277-5.9082L109.277-64.4531Q109.277-73.5352 104.224-78.5645Q99.1699-83.5938 90.1367-83.5938L31.5918-83.5938Q22.5586-83.5938 17.5049-78.5645Q12.4512-73.5352 12.4512-64.4531L12.4512-5.9082Q12.4512 3.125 17.5049 8.17871Q22.5586 13.2324 31.5918 13.2324Z"/>
   <path class="multicolor-1:white hierarchical-1:primary SFSymbolsPreviewFFFFFF" d="M61.5234-27.9297Q57.7148-27.9297 54.6143-30.5908Q51.5137-33.252 51.5137-37.7441L51.5137-56.543Q51.5137-60.9375 54.6143-63.5986Q57.7148-66.2598 61.5234-66.2598Q65.2832-66.2598 68.3594-63.5742Q71.4355-60.8887 71.4355-56.3965L71.4355-37.7441Q71.4355-33.252 68.3594-30.5908Q65.2832-27.9297 61.5234-27.9297ZM49.4141-5.32227Q47.6562-5.32227 46.3867-6.54297Q45.1172-7.76367 45.1172-9.375Q45.1172-11.084 46.3867-12.3291Q47.6562-13.5742 49.4141-13.5742L57.6172-13.5742L57.6172-16.4062Q52.3926-17.1387 48.1934-19.7021Q43.9941-22.2656 41.5283-26.4404Q39.0625-30.6152 39.0625-36.084L39.0625-41.6016Q39.0625-43.3105 40.3076-44.458Q41.5527-45.6055 43.2617-45.6055Q44.9707-45.6055 46.2402-44.458Q47.5098-43.3105 47.5098-41.6016L47.5098-36.2305Q47.5098-32.7148 49.4385-29.8584Q51.3672-27.002 54.541-25.3174Q57.7148-23.6328 61.4746-23.6328Q65.2344-23.6328 68.4082-25.3174Q71.582-27.002 73.4863-29.8584Q75.3906-32.7148 75.3906-36.2305L75.3906-41.6016Q75.3906-43.3105 76.6602-44.458Q77.9297-45.6055 79.6387-45.6055Q81.3965-45.6055 82.6172-44.458Q83.8379-43.3105 83.8379-41.6016L83.8379-36.084Q83.8379-30.6152 81.3721-26.4648Q78.9062-22.3145 74.707-19.7266Q70.5078-17.1387 65.332-16.4062L65.332-13.5742L73.5352-13.5742Q75.2441-13.5742 76.5137-12.3291Q77.7832-11.084 77.7832-9.375Q77.7832-7.76367 76.5137-6.54297Q75.2441-5.32227 73.5352-5.32227Z"/>
  </g>
  <g id="Heavy-M" transform="matrix(1 0 0 1 2576.65 1126)">
   <path class="multicolor-0:systemOrangeColor hierarchical-0:tertiary SFSymbolsPreviewFF9500" d="M30.7129 12.4023L89.4043 12.4023Q98.0957 12.4023 102.856 7.66602Q107.617 2.92969 107.617-5.76172L107.617-64.5996Q107.617-73.291 102.856-78.0273Q98.0957-82.7637 89.4043-82.7637L30.7129-82.7637Q21.9727-82.7637 17.2119-78.0273Q12.4512-73.291 12.4512-64.5996L12.4512-5.76172Q12.4512 2.92969 17.2119 7.66602Q21.9727 12.4023 30.7129 12.4023Z"/>
   <path class="multicolor-1:white hierarchical-1:primary SFSymbolsPreviewFFFFFF" d="M60.5469-27.3926Q56.7871-27.3926 53.8574-30.0293Q50.9277-32.666 50.9277-37.0117L50.9277-56.4453Q50.9277-60.6934 53.8574-63.3301Q56.7871-65.9668 60.5469-65.9668Q64.3066-65.9668 67.2119-63.3301Q70.1172-60.6934 70.1172-56.3477L70.1172-37.0117Q70.1172-32.666 67.2119-30.0293Q64.3066-27.3926 60.5469-27.3926ZM48.291-5.27344Q46.6797-5.27344 45.5322-6.39648Q44.3848-7.51953 44.3848-8.98438Q44.3848-10.5469 45.5322-11.6943Q46.6797-12.8418 48.291-12.8418L56.9336-12.8418L56.9336-16.2109Q51.7578-16.8945 47.6562-19.458Q43.5547-22.0215 41.1865-26.1719Q38.8184-30.3223 38.8184-35.7422L38.8184-41.4551Q38.8184-43.0176 39.9658-44.0918Q41.1133-45.166 42.6758-45.166Q44.2383-45.166 45.3857-44.0918Q46.5332-43.0176 46.5332-41.4551L46.5332-35.8398Q46.5332-32.1777 48.4375-29.248Q50.3418-26.3184 53.5156-24.6094Q56.6895-22.9004 60.5469-22.9004Q64.3555-22.9004 67.5537-24.6094Q70.752-26.3184 72.6318-29.248Q74.5117-32.1777 74.5117-35.8398L74.5117-41.4551Q74.5117-43.0176 75.6592-44.0918Q76.8066-45.166 78.3691-45.166Q79.9805-45.166 81.1035-44.0918Q82.2266-43.0176 82.2266-41.4551L82.2266-35.7422Q82.2266-30.3223 79.834-26.1963Q77.4414-22.0703 73.3398-19.4824Q69.2383-16.8945 64.1113-16.2109L64.1113-12.8418L72.7539-12.8418Q74.3652-12.8418 75.5127-11.6943Q76.6602-10.5469 76.6602-8.98438Q76.6602-7.51953 75.4883-6.39648Q74.3164-5.27344 72.7539-5.27344Z"/>
  </g>
  <g id="Bold-M" transform="matrix(1 0 0 1 2280.85 1126)">
   <path class="multicolor-0:systemOrangeColor hierarchical-0:tertiary SFSymbolsPreviewFF9500" d="M29.6875 11.5234L88.5742 11.5234Q96.9238 11.5234 101.367 7.10449Q105.811 2.68555 105.811-5.66406L105.811-64.7461Q105.811-73.0469 101.367-77.4658Q96.9238-81.8848 88.5742-81.8848L29.6875-81.8848Q21.3379-81.8848 16.8945-77.4658Q12.4512-73.0469 12.4512-64.7461L12.4512-5.66406Q12.4512 2.68555 16.8945 7.10449Q21.3379 11.5234 29.6875 11.5234Z"/>
   <path class="multicolor-1:white hierarchical-1:primary SFSymbolsPreviewFFFFFF" d="M59.4727-26.7578Q55.7129-26.7578 53.0029-29.3701Q50.293-31.9824 50.293-36.1816L50.293-56.3477Q50.293-60.4492 53.0029-63.0371Q55.7129-65.625 59.4727-65.625Q63.2324-65.625 65.918-63.0371Q68.6035-60.4492 68.6035-56.2988L68.6035-36.1816Q68.6035-31.9824 65.918-29.3701Q63.2324-26.7578 59.4727-26.7578ZM47.0215-5.22461Q45.6055-5.22461 44.5557-6.22559Q43.5059-7.22656 43.5059-8.59375Q43.5059-9.96094 44.5557-11.0107Q45.6055-12.0605 47.0215-12.0605L56.2012-12.0605L56.2012-16.0156Q51.0742-16.6504 47.0947-19.2139Q43.1152-21.7773 40.8203-25.9033Q38.5254-30.0293 38.5254-35.3516L38.5254-41.3574Q38.5254-42.7246 39.5508-43.7012Q40.5762-44.6777 41.9922-44.6777Q43.3594-44.6777 44.3848-43.7012Q45.4102-42.7246 45.4102-41.3574L45.4102-35.4004Q45.4102-31.5918 47.29-28.5889Q49.1699-25.5859 52.3438-23.8281Q55.5176-22.0703 59.4727-22.0703Q63.4277-22.0703 66.6016-23.8281Q69.7754-25.5859 71.6309-28.5889Q73.4863-31.5918 73.4863-35.4004L73.4863-41.3574Q73.4863-42.7246 74.5117-43.7012Q75.5371-44.6777 76.9531-44.6777Q78.3691-44.6777 79.3701-43.7012Q80.3711-42.7246 80.3711-41.3574L80.3711-35.3516Q80.3711-30.0293 78.1006-25.9277Q75.8301-21.8262 71.8506-19.2383Q67.8711-16.6504 62.793-16.0156L62.793-12.0605L71.9238-12.0605Q73.3398-12.0605 74.3652-11.0107Q75.3906-9.96094 75.3906-8.59375Q75.3906-7.22656 74.3408-6.22559Q73.291-5.22461 71.9238-5.22461Z"/>
  </g>
  <g id="Semibold-M" transform="matrix(1 0 0 1 1984.77 1126)">
   <path class="multicolor-0:systemOrangeColor hierarchical-0:tertiary SFSymbolsPreviewFF9500" d="M29.0039 10.8887L87.9883 10.8887Q96.0938 10.8887 100.317 6.68945Q104.541 2.49023 104.541-5.51758L104.541-64.8438Q104.541-72.8516 100.317-77.0508Q96.0938-81.25 87.9883-81.25L29.0039-81.25Q20.8984-81.25 16.6748-77.0508Q12.4512-72.8516 12.4512-64.8438L12.4512-5.51758Q12.4512 2.49023 16.6748 6.68945Q20.8984 10.8887 29.0039 10.8887Z"/>
   <path class="multicolor-1:white hierarchical-1:primary SFSymbolsPreviewFFFFFF" d="M58.7402-26.2695Q54.9805-26.2695 52.417-28.8818Q49.8535-31.4941 49.8535-35.5469L49.8535-56.25Q49.8535-60.2051 52.417-62.7686Q54.9805-65.332 58.7402-65.332Q62.4512-65.332 65.0146-62.7686Q67.5781-60.2051 67.5781-56.2012L67.5781-35.5469Q67.5781-31.4941 65.0146-28.8818Q62.4512-26.2695 58.7402-26.2695ZM46.1426-5.12695Q44.873-5.12695 43.8965-6.03027Q42.9199-6.93359 42.9199-8.20312Q42.9199-9.52148 43.8965-10.4736Q44.873-11.4258 46.1426-11.4258L55.6641-11.4258L55.6641-15.7715Q50.5371-16.4062 46.6553-18.9697Q42.7734-21.5332 40.5518-25.6592Q38.3301-29.7852 38.3301-35.0098L38.3301-41.1621Q38.3301-42.4316 39.2822-43.335Q40.2344-44.2383 41.5039-44.2383Q42.7734-44.2383 43.7012-43.335Q44.6289-42.4316 44.6289-41.1621L44.6289-35.0586Q44.6289-31.1523 46.4844-28.0762Q48.3398-25 51.5137-23.2178Q54.6875-21.4355 58.6914-21.4355Q62.7441-21.4355 65.9424-23.2178Q69.1406-25 70.9717-28.0762Q72.8027-31.1523 72.8027-35.0586L72.8027-41.1621Q72.8027-42.4316 73.7305-43.335Q74.6582-44.2383 75.9277-44.2383Q77.2461-44.2383 78.1738-43.335Q79.1016-42.4316 79.1016-41.1621L79.1016-35.0098Q79.1016-29.7852 76.8799-25.6836Q74.6582-21.582 70.7764-18.9941Q66.8945-16.4062 61.8164-15.7715L61.8164-11.4258L71.2891-11.4258Q72.6074-11.4258 73.5596-10.4736Q74.5117-9.52148 74.5117-8.20312Q74.5117-6.98242 73.5352-6.05469Q72.5586-5.12695 71.2891-5.12695Z"/>
  </g>
  <g id="Medium-M" transform="matrix(1 0 0 1 1688.52 1126)">
   <path class="multicolor-0:systemOrangeColor hierarchical-0:tertiary SFSymbolsPreviewFF9500" d="M28.4668 10.4004L87.5977 10.4004Q95.5078 10.4004 99.5605 6.37207Q103.613 2.34375 103.613-5.46875L103.613-64.8926Q103.613-72.7539 99.5605-76.7578Q95.5078-80.7617 87.5977-80.7617L28.4668-80.7617Q20.5566-80.7617 16.5039-76.7578Q12.4512-72.7539 12.4512-64.8926L12.4512-5.46875Q12.4512 2.34375 16.5039 6.37207Q20.5566 10.4004 28.4668 10.4004Z"/>
   <path class="multicolor-1:white hierarchical-1:primary SFSymbolsPreviewFFFFFF" d="M58.1543-25.9766Q54.4434-25.9766 51.9775-28.54Q49.5117-31.1035 49.5117-35.1074L49.5117-56.1523Q49.5117-60.1074 51.9775-62.6465Q54.4434-65.1855 58.1543-65.1855Q61.8652-65.1855 64.3311-62.6221Q66.7969-60.0586 66.7969-56.1523L66.7969-35.1074Q66.7969-31.1035 64.3311-28.54Q61.8652-25.9766 58.1543-25.9766ZM45.5078-5.07812Q44.2871-5.07812 43.3838-5.93262Q42.4805-6.78711 42.4805-8.00781Q42.4805-9.17969 43.3838-10.083Q44.2871-10.9863 45.5078-10.9863L55.2734-10.9863L55.2734-15.6738Q50.1953-16.2598 46.3623-18.8477Q42.5293-21.4355 40.3564-25.5127Q38.1836-29.5898 38.1836-34.8145L38.1836-41.1133Q38.1836-42.2363 39.0625-43.1152Q39.9414-43.9941 41.1621-43.9941Q42.334-43.9941 43.2129-43.1152Q44.0918-42.2363 44.0918-41.1133L44.0918-34.8145Q44.0918-30.8105 45.8984-27.71Q47.7051-24.6094 50.8789-22.8271Q54.0527-21.0449 58.1543-21.0449Q62.2559-21.0449 65.4297-22.8271Q68.6035-24.6094 70.4346-27.71Q72.2656-30.8105 72.2656-34.8145L72.2656-41.1133Q72.2656-42.2363 73.1445-43.1152Q74.0234-43.9941 75.1953-43.9941Q76.416-43.9941 77.2949-43.1152Q78.1738-42.2363 78.1738-41.1133L78.1738-34.8145Q78.1738-29.5898 76.001-25.5127Q73.8281-21.4355 69.9951-18.8721Q66.1621-16.3086 61.1328-15.6738L61.1328-10.9863L70.8496-10.9863Q72.0703-10.9863 72.9736-10.083Q73.877-9.17969 73.877-8.00781Q73.877-6.83594 72.9492-5.95703Q72.0215-5.07812 70.8496-5.07812Z"/>
  </g>
  <g id="Regular-M" transform="matrix(1 0 0 1 1392.45 1126)">
   <path class="multicolor-0:systemOrangeColor hierarchical-0:tertiary SFSymbolsPreviewFF9500" d="M27.7832 9.76562L87.0117 9.76562Q94.6777 9.76562 98.5107 5.98145Q102.344 2.19727 102.344-5.37109L102.344-64.9902Q102.344-72.5586 98.5107-76.3428Q94.6777-80.127 87.0117-80.127L27.7832-80.127Q20.1172-80.127 16.2842-76.3428Q12.4512-72.5586 12.4512-64.9902L12.4512-5.37109Q12.4512 2.19727 16.2842 5.98145Q20.1172 9.76562 27.7832 9.76562Z"/>
   <path class="multicolor-1:white hierarchical-1:primary SFSymbolsPreviewFFFFFF" d="M57.4219-25.5371Q53.7109-25.5371 51.3916-28.1006Q49.0723-30.6641 49.0723-34.5215L49.0723-56.1035Q49.0723-59.9121 51.3916-62.4268Q53.7109-64.9414 57.4219-64.9414Q61.1328-64.9414 63.4521-62.4268Q65.7715-59.9121 65.7715-56.1035L65.7715-34.5215Q65.7715-30.6641 63.4521-28.1006Q61.1328-25.5371 57.4219-25.5371ZM44.6289-5.0293Q43.5547-5.0293 42.7246-5.81055Q41.8945-6.5918 41.8945-7.71484Q41.8945-8.78906 42.7246-9.61914Q43.5547-10.4492 44.6289-10.4492L54.7363-10.4492L54.7363-15.5273Q49.707-16.0645 45.9473-18.6523Q42.1875-21.2402 40.0879-25.3174Q37.9883-29.3945 37.9883-34.5215L37.9883-41.0156Q37.9883-42.041 38.7939-42.8467Q39.5996-43.6523 40.6738-43.6523Q41.748-43.6523 42.5293-42.8467Q43.3105-42.041 43.3105-41.0156L43.3105-34.5215Q43.3105-30.4199 45.1172-27.2461Q46.9238-24.0723 50.0977-22.2656Q53.2715-20.459 57.4219-20.459Q61.5723-20.459 64.7705-22.2656Q67.9688-24.0723 69.7754-27.2461Q71.582-30.4199 71.582-34.5215L71.582-41.0156Q71.582-42.041 72.3633-42.8467Q73.1445-43.6523 74.2188-43.6523Q75.293-43.6523 76.0986-42.8467Q76.9043-42.041 76.9043-41.0156L76.9043-34.5215Q76.9043-29.3945 74.8047-25.3174Q72.7051-21.2402 68.9453-18.6768Q65.1855-16.1133 60.2051-15.5273L60.2051-10.4492L70.2637-10.4492Q71.3867-10.4492 72.1924-9.61914Q72.998-8.78906 72.998-7.71484Q72.998-6.64062 72.168-5.83496Q71.3379-5.0293 70.2637-5.0293Z"/>
  </g>
  <g id="Light-M" transform="matrix(1 0 0 1 1096.47 1126)">
   <path class="multicolor-0:systemOrangeColor hierarchical-0:tertiary SFSymbolsPreviewFF9500" d="M26.8555 9.0332L86.4746 9.0332Q93.6035 9.0332 97.2412 5.44434Q100.879 1.85547 100.879-5.22461L100.879-65.0879Q100.879-72.168 97.2412-75.7812Q93.6035-79.3945 86.4746-79.3945L26.8555-79.3945Q19.6777-79.3945 16.0645-75.8057Q12.4512-72.2168 12.4512-65.0879L12.4512-5.22461Q12.4512 1.85547 16.0645 5.44434Q19.6777 9.0332 26.8555 9.0332Z"/>
   <path class="multicolor-1:white hierarchical-1:primary SFSymbolsPreviewFFFFFF" d="M56.6895-25.6348Q52.9297-25.6348 50.6592-28.1982Q48.3887-30.7617 48.3887-34.5703L48.3887-56.2012Q48.3887-60.0098 50.6592-62.5244Q52.9297-65.0391 56.6895-65.0391Q60.4004-65.0391 62.6709-62.5244Q64.9414-60.0098 64.9414-56.2012L64.9414-34.5703Q64.9414-30.7617 62.6709-28.1982Q60.4004-25.6348 56.6895-25.6348ZM44.3359-5.0293Q43.457-5.0293 42.7734-5.68848Q42.0898-6.34766 42.0898-7.22656Q42.0898-8.1543 42.7734-8.81348Q43.457-9.47266 44.3359-9.47266L54.4922-9.47266L54.4922-15.918Q49.5117-16.3574 45.7764-18.8232Q42.041-21.2891 39.9414-25.2441Q37.8418-29.1992 37.8418-34.1797L37.8418-40.0879Q37.8418-40.9668 38.501-41.6016Q39.1602-42.2363 40.0391-42.2363Q40.918-42.2363 41.5527-41.6016Q42.1875-40.9668 42.1875-40.0879L42.1875-34.1797Q42.1875-29.9805 43.9941-26.7822Q45.8008-23.584 49.0479-21.7773Q52.2949-19.9707 56.6895-19.9707Q61.0352-19.9707 64.3066-21.7773Q67.5781-23.584 69.3848-26.7822Q71.1914-29.9805 71.1914-34.1797L71.1914-40.0879Q71.1914-40.9668 71.8262-41.6016Q72.4609-42.2363 73.3398-42.2363Q74.2188-42.2363 74.8779-41.6016Q75.5371-40.9668 75.5371-40.0879L75.5371-34.1797Q75.5371-29.1992 73.4375-25.2441Q71.3379-21.2891 67.6025-18.8477Q63.8672-16.4062 58.9355-15.918L58.9355-9.47266L69.043-9.47266Q69.9707-9.47266 70.6299-8.81348Q71.2891-8.1543 71.2891-7.22656Q71.2891-6.34766 70.6055-5.68848Q69.9219-5.0293 69.043-5.0293Z"/>
  </g>
  <g id="Thin-M" transform="matrix(1 0 0 1 800.758 1126)">
   <path class="multicolor-0:systemOrangeColor hierarchical-0:tertiary SFSymbolsPreviewFF9500" d="M25.5859 8.05664L85.6934 8.05664Q92.2363 8.05664 95.5566 4.71191Q98.877 1.36719 98.877-5.07812L98.877-65.2344Q98.877-71.6309 95.5566-75Q92.2363-78.3691 85.6934-78.3691L25.5859-78.3691Q19.1406-78.3691 15.7959-75.0488Q12.4512-71.7285 12.4512-65.2344L12.4512-5.07812Q12.4512 1.41602 15.7959 4.73633Q19.1406 8.05664 25.5859 8.05664Z"/>
   <path class="multicolor-1:white hierarchical-1:primary SFSymbolsPreviewFFFFFF" d="M55.7129-25.7324Q51.9531-25.7324 49.7314-28.2959Q47.5098-30.8594 47.5098-34.668L47.5098-56.2988Q47.5098-60.1074 49.7314-62.6709Q51.9531-65.2344 55.7129-65.2344Q59.4238-65.2344 61.6699-62.6709Q63.916-60.1074 63.916-56.2988L63.916-34.668Q63.916-30.8594 61.6699-28.2959Q59.4238-25.7324 55.7129-25.7324ZM43.9453-5.07812Q43.3105-5.07812 42.8711-5.54199Q42.4316-6.00586 42.4316-6.64062Q42.4316-7.27539 42.8711-7.73926Q43.3105-8.20312 43.9453-8.20312L54.1504-8.20312L54.1504-16.4062Q49.2676-16.748 45.5566-19.0674Q41.8457-21.3867 39.7705-25.1709Q37.6953-28.9551 37.6953-33.6914L37.6953-38.8672Q37.6953-39.502 38.1592-39.9658Q38.623-40.4297 39.2578-40.4297Q39.8926-40.4297 40.3564-39.9658Q40.8203-39.502 40.8203-38.8672L40.8203-33.6914Q40.8203-29.3457 42.6025-26.123Q44.3848-22.9004 47.7295-21.1426Q51.0742-19.3848 55.7129-19.3848Q60.3516-19.3848 63.7207-21.1426Q67.0898-22.9004 68.8965-26.123Q70.7031-29.3457 70.7031-33.6914L70.7031-38.8672Q70.7031-39.502 71.167-39.9658Q71.6309-40.4297 72.2168-40.4297Q72.8516-40.4297 73.3154-39.9658Q73.7793-39.502 73.7793-38.8672L73.7793-33.6914Q73.7793-28.9551 71.6797-25.1709Q69.5801-21.3867 65.8691-19.0674Q62.1582-16.748 57.2754-16.4062L57.2754-8.20312L67.4805-8.20312Q68.1152-8.20312 68.5791-7.73926Q69.043-7.27539 69.043-6.64062Q69.043-6.00586 68.5791-5.54199Q68.1152-5.07812 67.4805-5.07812Z"/>
  </g>
  <g id="Ultralight-M" transform="matrix(1 0 0 1 504.535 1126)">
   <path class="multicolor-0:systemOrangeColor hierarchical-0:tertiary SFSymbolsPreviewFF9500" d="M24.9512 7.56836L85.3516 7.56836Q91.5039 7.56836 94.7021 4.3457Q97.9004 1.12305 97.9004-4.98047L97.9004-65.332Q97.9004-71.3867 94.7021-74.6338Q91.5039-77.8809 85.3516-77.8809L24.9512-77.8809Q18.8477-77.8809 15.6494-74.6826Q12.4512-71.4844 12.4512-65.332L12.4512-4.98047Q12.4512 1.2207 15.6494 4.39453Q18.8477 7.56836 24.9512 7.56836Z"/>
   <path class="multicolor-1:white hierarchical-1:primary SFSymbolsPreviewFFFFFF" d="M55.2246-25.8301Q51.4648-25.8301 49.2676-28.3936Q47.0703-30.957 47.0703-34.7168L47.0703-56.3965Q47.0703-60.2051 49.2676-62.7441Q51.4648-65.2832 55.2246-65.2832Q58.9355-65.2832 61.1572-62.7441Q63.3789-60.2051 63.3789-56.3965L63.3789-34.7168Q63.3789-30.957 61.1572-28.3936Q58.9355-25.8301 55.2246-25.8301ZM43.75-5.07812Q43.2617-5.07812 42.8955-5.44434Q42.5293-5.81055 42.5293-6.29883Q42.5293-6.83594 42.8955-7.17773Q43.2617-7.51953 43.75-7.51953L54.0039-7.51953L54.0039-16.6504Q49.1211-16.9434 45.4346-19.1895Q41.748-21.4355 39.6729-25.1465Q37.5977-28.8574 37.5977-33.4473L37.5977-38.2324Q37.5977-38.7695 37.9395-39.1113Q38.2812-39.4531 38.8184-39.4531Q39.3066-39.4531 39.6729-39.1113Q40.0391-38.7695 40.0391-38.2324L40.0391-33.4473Q40.0391-29.0527 41.8213-25.8057Q43.6035-22.5586 47.0215-20.8008Q50.4395-19.043 55.2246-19.043Q60.0098-19.043 63.4033-20.8008Q66.7969-22.5586 68.6035-25.8057Q70.4102-29.0527 70.4102-33.4473L70.4102-38.2324Q70.4102-38.7695 70.7764-39.1113Q71.1426-39.4531 71.6309-39.4531Q72.1191-39.4531 72.5098-39.1113Q72.9004-38.7695 72.9004-38.2324L72.9004-33.4473Q72.9004-28.8574 70.8008-25.1465Q68.7012-21.4355 64.9658-19.1895Q61.2305-16.9434 56.3965-16.6504L56.3965-7.51953L66.6504-7.51953Q67.1387-7.51953 67.5049-7.17773Q67.8711-6.83594 67.8711-6.29883Q67.8711-5.81055 67.5049-5.44434Q67.1387-5.07812 66.6504-5.07812Z"/>
  </g>
  <g id="Black-S" transform="matrix(1 0 0 1 2885.5 696)">
   <path class="multicolor-0:systemOrangeColor hierarchical-0:tertiary SFSymbolsPreviewFF9500" d="M25 2.92969L70.8008 2.92969Q77.9785 2.92969 82.0068-1.09863Q86.0352-5.12695 86.0352-12.3047L86.0352-58.1055Q86.0352-65.2832 82.0068-69.3115Q77.9785-73.3398 70.8008-73.3398L25-73.3398Q17.8223-73.3398 13.7939-69.3115Q9.76562-65.2832 9.76562-58.1055L9.76562-12.3047Q9.76562-5.12695 13.7939-1.09863Q17.8223 2.92969 25 2.92969Z"/>
   <path class="multicolor-1:white hierarchical-1:primary SFSymbolsPreviewFFFFFF" d="M48.4375-29.6875Q45.459-29.6875 42.9688-31.7871Q40.4785-33.8867 40.4785-37.4512L40.4785-51.9531Q40.4785-55.4688 42.9688-57.5684Q45.459-59.668 48.4375-59.668Q51.416-59.668 53.8574-57.5439Q56.2988-55.4199 56.2988-51.8555L56.2988-37.4512Q56.2988-33.8867 53.8574-31.7871Q51.416-29.6875 48.4375-29.6875ZM39.0137-11.8164Q37.6465-11.8164 36.6211-12.793Q35.5957-13.7695 35.5957-15.0879Q35.5957-16.4551 36.6211-17.4561Q37.6465-18.457 39.0137-18.457L45.3125-18.457L45.3125-20.5566Q39.209-21.4355 34.9365-25.4883Q30.6641-29.541 30.6641-35.9863L30.6641-40.2344Q30.6641-41.6016 31.665-42.5049Q32.666-43.4082 34.0332-43.4082Q35.4492-43.4082 36.4502-42.5049Q37.4512-41.6016 37.4512-40.2344L37.4512-36.1328Q37.4512-33.4473 38.9648-31.2256Q40.4785-29.0039 42.9932-27.6855Q45.5078-26.3672 48.3887-26.3672Q51.3184-26.3672 53.8086-27.6855Q56.2988-29.0039 57.8125-31.2256Q59.3262-33.4473 59.3262-36.1328L59.3262-40.2344Q59.3262-41.6016 60.3516-42.5049Q61.377-43.4082 62.7441-43.4082Q64.1602-43.4082 65.1367-42.5049Q66.1133-41.6016 66.1133-40.2344L66.1133-35.9863Q66.1133-29.541 61.8408-25.4883Q57.5684-21.4355 51.4648-20.5566L51.4648-18.457L57.7637-18.457Q59.1797-18.457 60.1807-17.4561Q61.1816-16.4551 61.1816-15.0879Q61.1816-13.7695 60.1807-12.793Q59.1797-11.8164 57.7637-11.8164Z"/>
  </g>
  <g id="Heavy-S" transform="matrix(1 0 0 1 2589.4 696)">
   <path class="multicolor-0:systemOrangeColor hierarchical-0:tertiary SFSymbolsPreviewFF9500" d="M24.3652 2.34375L70.2637 2.34375Q77.1973 2.34375 81.0059-1.46484Q84.8145-5.27344 84.8145-12.207L84.8145-58.2031Q84.8145-65.1367 81.0059-68.9453Q77.1973-72.7539 70.2637-72.7539L24.3652-72.7539Q17.3828-72.7539 13.5742-68.9453Q9.76562-65.1367 9.76562-58.2031L9.76562-12.207Q9.76562-5.27344 13.5742-1.46484Q17.3828 2.34375 24.3652 2.34375Z"/>
   <path class="multicolor-1:white hierarchical-1:primary SFSymbolsPreviewFFFFFF" d="M47.7051-29.1992Q44.7754-29.1992 42.4316-31.2744Q40.0879-33.3496 40.0879-36.8164L40.0879-51.8555Q40.0879-55.2734 42.4316-57.3242Q44.7754-59.375 47.7051-59.375Q50.6836-59.375 52.9785-57.2998Q55.2734-55.2246 55.2734-51.8066L55.2734-36.8164Q55.2734-33.3496 52.9785-31.2744Q50.6836-29.1992 47.7051-29.1992ZM38.0859-11.7676Q36.8164-11.7676 35.8643-12.6709Q34.9121-13.5742 34.9121-14.8438Q34.9121-16.0645 35.8643-17.0166Q36.8164-17.9688 38.0859-17.9688L44.7754-17.9688L44.7754-20.3613Q38.7207-21.1914 34.5947-25.2686Q30.4688-29.3457 30.4688-35.7422L30.4688-40.2344Q30.4688-41.5039 31.3965-42.3584Q32.3242-43.2129 33.5938-43.2129Q34.9121-43.2129 35.8398-42.3584Q36.7676-41.5039 36.7676-40.2344L36.7676-35.8398Q36.7676-33.0566 38.2568-30.7617Q39.7461-28.4668 42.2363-27.124Q44.7266-25.7812 47.6562-25.7812Q50.6836-25.7812 53.1494-27.124Q55.6152-28.4668 57.1045-30.7617Q58.5938-33.0566 58.5938-35.8398L58.5938-40.2344Q58.5938-41.5039 59.5459-42.3584Q60.498-43.2129 61.7676-43.2129Q63.0859-43.2129 63.9893-42.3584Q64.8926-41.5039 64.8926-40.2344L64.8926-35.7422Q64.8926-29.3457 60.7666-25.2686Q56.6406-21.1914 50.5859-20.3613L50.5859-17.9688L57.2754-17.9688Q58.5938-17.9688 59.5215-17.0166Q60.4492-16.0645 60.4492-14.8438Q60.4492-13.5742 59.4971-12.6709Q58.5449-11.7676 57.2754-11.7676Z"/>
  </g>
  <g id="Bold-S" transform="matrix(1 0 0 1 2293.35 696)">
   <path class="multicolor-0:systemOrangeColor hierarchical-0:tertiary SFSymbolsPreviewFF9500" d="M23.6328 1.66016L69.6289 1.66016Q76.3672 1.66016 79.9316-1.9043Q83.4961-5.46875 83.4961-12.1094L83.4961-58.3008Q83.4961-64.9902 79.9316-68.5303Q76.3672-72.0703 69.6289-72.0703L23.6328-72.0703Q16.9434-72.0703 13.3545-68.5303Q9.76562-64.9902 9.76562-58.3008L9.76562-12.1094Q9.76562-5.46875 13.3545-1.9043Q16.9434 1.66016 23.6328 1.66016Z"/>
   <path class="multicolor-1:white hierarchical-1:primary SFSymbolsPreviewFFFFFF" d="M46.9238-28.6621Q43.9941-28.6621 41.8213-30.7373Q39.6484-32.8125 39.6484-36.084L39.6484-51.7578Q39.6484-55.0293 41.8213-57.0557Q43.9941-59.082 46.9238-59.082Q49.8535-59.082 52.002-57.0557Q54.1504-55.0293 54.1504-51.709L54.1504-36.084Q54.1504-32.8125 52.002-30.7373Q49.8535-28.6621 46.9238-28.6621ZM37.1094-11.7188Q35.9375-11.7188 35.0586-12.5488Q34.1797-13.3789 34.1797-14.5508Q34.1797-15.6738 35.0586-16.5527Q35.9375-17.4316 37.1094-17.4316L44.1895-17.4316L44.1895-20.1172Q38.1836-20.8984 34.2285-25.0244Q30.2734-29.1504 30.2734-35.4492L30.2734-40.2344Q30.2734-41.4062 31.1279-42.2119Q31.9824-43.0176 33.1055-43.0176Q34.3262-43.0176 35.1562-42.2119Q35.9863-41.4062 35.9863-40.2344L35.9863-35.5469Q35.9863-32.6172 37.4512-30.249Q38.916-27.8809 41.4062-26.5137Q43.8965-25.1465 46.9238-25.1465Q49.9512-25.1465 52.4414-26.5137Q54.9316-27.8809 56.3721-30.249Q57.8125-32.6172 57.8125-35.5469L57.8125-40.2344Q57.8125-41.4062 58.667-42.2119Q59.5215-43.0176 60.6934-43.0176Q61.8652-43.0176 62.6953-42.2119Q63.5254-41.4062 63.5254-40.2344L63.5254-35.4492Q63.5254-29.1504 59.5947-25.0488Q55.6641-20.9473 49.6582-20.1172L49.6582-17.4316L56.7383-17.4316Q57.9102-17.4316 58.7646-16.5527Q59.6191-15.6738 59.6191-14.5508Q59.6191-13.4277 58.7646-12.5732Q57.9102-11.7188 56.7383-11.7188Z"/>
  </g>
  <g id="Semibold-S" transform="matrix(1 0 0 1 1997.12 696)">
   <path class="multicolor-0:systemOrangeColor hierarchical-0:tertiary SFSymbolsPreviewFF9500" d="M23.0957 1.2207L69.1895 1.2207Q75.7324 1.2207 79.126-2.17285Q82.5195-5.56641 82.5195-12.0605L82.5195-58.3496Q82.5195-64.8438 79.126-68.2373Q75.7324-71.6309 69.1895-71.6309L23.0957-71.6309Q16.6016-71.6309 13.1836-68.2373Q9.76562-64.8438 9.76562-58.3496L9.76562-12.0605Q9.76562-5.56641 13.1836-2.17285Q16.6016 1.2207 23.0957 1.2207Z"/>
   <path class="multicolor-1:white hierarchical-1:primary SFSymbolsPreviewFFFFFF" d="M46.3379-28.2227Q43.4082-28.2227 41.3574-30.2734Q39.3066-32.3242 39.3066-35.498L39.3066-51.6602Q39.3066-54.834 41.3574-56.8359Q43.4082-58.8379 46.3379-58.8379Q49.2188-58.8379 51.2695-56.8115Q53.3203-54.7852 53.3203-51.6113L53.3203-35.498Q53.3203-32.3242 51.2695-30.2734Q49.2188-28.2227 46.3379-28.2227ZM36.3281-11.6211Q35.2539-11.6211 34.4238-12.4023Q33.5938-13.1836 33.5938-14.2578Q33.5938-15.332 34.4238-16.1621Q35.2539-16.9922 36.3281-16.9922L43.75-16.9922L43.75-19.873Q37.7441-20.6543 33.9111-24.8047Q30.0781-28.9551 30.0781-35.2051L30.0781-40.1855Q30.0781-41.2598 30.8838-42.0166Q31.6895-42.7734 32.7148-42.7734Q33.8379-42.7734 34.6191-42.0166Q35.4004-41.2598 35.4004-40.1855L35.4004-35.2539Q35.4004-32.2266 36.8408-29.834Q38.2812-27.4414 40.7471-26.0498Q43.2129-24.6582 46.2891-24.6582Q49.4141-24.6582 51.8799-26.0498Q54.3457-27.4414 55.7861-29.834Q57.2266-32.2266 57.2266-35.2539L57.2266-40.1855Q57.2266-41.2598 58.0078-42.0166Q58.7891-42.7734 59.9121-42.7734Q60.9863-42.7734 61.7676-42.0166Q62.5488-41.2598 62.5488-40.1855L62.5488-35.2051Q62.5488-28.9551 58.7402-24.8291Q54.9316-20.7031 48.9258-19.873L48.9258-16.9922L56.2988-16.9922Q57.373-16.9922 58.1787-16.1621Q58.9844-15.332 58.9844-14.2578Q58.9844-13.2324 58.1787-12.4268Q57.373-11.6211 56.2988-11.6211Z"/>
  </g>
  <g id="Medium-S" transform="matrix(1 0 0 1 1700.75 696)">
   <path class="multicolor-0:systemOrangeColor hierarchical-0:tertiary SFSymbolsPreviewFF9500" d="M22.7051 0.830078L68.8965 0.830078Q75.293 0.830078 78.5645-2.41699Q81.8359-5.66406 81.8359-11.9629L81.8359-58.4473Q81.8359-64.7461 78.5645-67.9932Q75.293-71.2402 68.8965-71.2402L22.7051-71.2402Q16.3574-71.2402 13.0615-67.9932Q9.76562-64.7461 9.76562-58.4473L9.76562-11.9629Q9.76562-5.66406 13.0615-2.41699Q16.3574 0.830078 22.7051 0.830078Z"/>
   <path class="multicolor-1:white hierarchical-1:primary SFSymbolsPreviewFFFFFF" d="M45.8984-27.9785Q43.0176-27.9785 41.04-30.0049Q39.0625-32.0312 39.0625-35.1074L39.0625-51.5625Q39.0625-54.6875 41.04-56.665Q43.0176-58.6426 45.8984-58.6426Q48.8281-58.6426 50.7812-56.665Q52.7344-54.6875 52.7344-51.5625L52.7344-35.1074Q52.7344-32.0312 50.7812-30.0049Q48.8281-27.9785 45.8984-27.9785ZM35.791-11.6211Q34.8145-11.6211 34.0332-12.3535Q33.252-13.0859 33.252-14.1113Q33.252-15.1367 34.0332-15.918Q34.8145-16.6992 35.791-16.6992L43.4082-16.6992L43.4082-19.7266Q37.4512-20.5078 33.7158-24.6826Q29.9805-28.8574 29.9805-35.0586L29.9805-40.1855Q29.9805-41.2109 30.7373-41.9434Q31.4941-42.6758 32.4707-42.6758Q33.5449-42.6758 34.2773-41.9434Q35.0098-41.2109 35.0098-40.1855L35.0098-35.0586Q35.0098-31.9824 36.4502-29.541Q37.8906-27.0996 40.332-25.708Q42.7734-24.3164 45.8984-24.3164Q49.0234-24.3164 51.4893-25.708Q53.9551-27.0996 55.3711-29.541Q56.7871-31.9824 56.7871-35.0586L56.7871-40.1855Q56.7871-41.2109 57.5439-41.9434Q58.3008-42.6758 59.3262-42.6758Q60.3516-42.6758 61.084-41.9434Q61.8164-41.2109 61.8164-40.1855L61.8164-35.0586Q61.8164-28.8574 58.1055-24.707Q54.3945-20.5566 48.4375-19.7266L48.4375-16.6992L56.0547-16.6992Q57.0312-16.6992 57.8125-15.918Q58.5938-15.1367 58.5938-14.1113Q58.5938-13.1348 57.8125-12.3779Q57.0312-11.6211 56.0547-11.6211Z"/>
  </g>
  <g id="Regular-S" transform="matrix(1 0 0 1 1404.51 696)">
   <path class="multicolor-0:systemOrangeColor hierarchical-0:tertiary SFSymbolsPreviewFF9500" d="M22.2168 0.390625L68.457 0.390625Q74.707 0.390625 77.8076-2.68555Q80.9082-5.76172 80.9082-11.9141L80.9082-58.4961Q80.9082-64.6484 77.8076-67.7246Q74.707-70.8008 68.457-70.8008L22.2168-70.8008Q16.0156-70.8008 12.8906-67.7246Q9.76562-64.6484 9.76562-58.4961L9.76562-11.9141Q9.76562-5.76172 12.8906-2.68555Q16.0156 0.390625 22.2168 0.390625Z"/>
   <path class="multicolor-1:white hierarchical-1:primary SFSymbolsPreviewFFFFFF" d="M45.3613-27.5879Q42.4805-27.5879 40.625-29.6143Q38.7695-31.6406 38.7695-34.6191L38.7695-51.5137Q38.7695-54.541 40.625-56.4941Q42.4805-58.4473 45.3613-58.4473Q48.2422-58.4473 50.0977-56.4941Q51.9531-54.541 51.9531-51.5137L51.9531-34.6191Q51.9531-31.6406 50.0977-29.6143Q48.2422-27.5879 45.3613-27.5879ZM35.1074-11.5723Q34.1797-11.5723 33.4473-12.2559Q32.7148-12.9395 32.7148-13.916Q32.7148-14.8438 33.4473-15.5762Q34.1797-16.3086 35.1074-16.3086L43.0176-16.3086L43.0176-19.5801Q37.0605-20.3125 33.4473-24.5117Q29.834-28.7109 29.834-34.8633L29.834-40.1855Q29.834-41.1133 30.542-41.8213Q31.25-42.5293 32.1289-42.5293Q33.1055-42.5293 33.7891-41.8213Q34.4727-41.1133 34.4727-40.1855L34.4727-34.8633Q34.4727-31.6895 35.8887-29.1992Q37.3047-26.709 39.7461-25.293Q42.1875-23.877 45.3613-23.877Q48.5352-23.877 51.001-25.293Q53.4668-26.709 54.8584-29.1992Q56.25-31.6895 56.25-34.8633L56.25-40.1855Q56.25-41.1133 56.9336-41.8213Q57.6172-42.5293 58.5938-42.5293Q59.5215-42.5293 60.2051-41.8213Q60.8887-41.1133 60.8887-40.1855L60.8887-34.8633Q60.8887-28.7109 57.2998-24.5361Q53.7109-20.3613 47.7539-19.5801L47.7539-16.3086L55.6641-16.3086Q56.5918-16.3086 57.2998-15.5762Q58.0078-14.8438 58.0078-13.916Q58.0078-12.9883 57.2754-12.2803Q56.543-11.5723 55.6641-11.5723Z"/>
  </g>
  <g id="Light-S" transform="matrix(1 0 0 1 1108.46 696)">
   <path class="multicolor-0:systemOrangeColor hierarchical-0:tertiary SFSymbolsPreviewFF9500" d="M21.3867-0.244141L67.9688-0.244141Q73.7793-0.244141 76.6846-3.17383Q79.5898-6.10352 79.5898-11.8164L79.5898-58.5938Q79.5898-64.3066 76.6846-67.2119Q73.7793-70.1172 67.9688-70.1172L21.3867-70.1172Q15.625-70.1172 12.6953-67.2119Q9.76562-64.3066 9.76562-58.5938L9.76562-11.8164Q9.76562-6.05469 12.6953-3.14941Q15.625-0.244141 21.3867-0.244141Z"/>
   <path class="multicolor-1:white hierarchical-1:primary SFSymbolsPreviewFFFFFF" d="M44.7266-27.6855Q41.8457-27.6855 40.0146-29.6875Q38.1836-31.6895 38.1836-34.668L38.1836-51.6113Q38.1836-54.6387 40.0146-56.5918Q41.8457-58.5449 44.7266-58.5449Q47.6074-58.5449 49.4385-56.5918Q51.2695-54.6387 51.2695-51.6113L51.2695-34.668Q51.2695-31.6895 49.4385-29.6875Q47.6074-27.6855 44.7266-27.6855ZM34.8633-11.5723Q34.1309-11.5723 33.5205-12.1338Q32.9102-12.6953 32.9102-13.4766Q32.9102-14.2578 33.5205-14.8438Q34.1309-15.4297 34.8633-15.4297L42.8223-15.4297L42.8223-19.9219Q36.9629-20.5078 33.3496-24.5605Q29.7363-28.6133 29.7363-34.5215L29.7363-39.4043Q29.7363-40.1367 30.2979-40.7227Q30.8594-41.3086 31.5918-41.3086Q32.4219-41.3086 32.9834-40.7227Q33.5449-40.1367 33.5449-39.4043L33.5449-34.5215Q33.5449-31.2988 34.9609-28.7842Q36.377-26.2695 38.8672-24.8535Q41.3574-23.4375 44.7266-23.4375Q48.0957-23.4375 50.6104-24.8535Q53.125-26.2695 54.541-28.7842Q55.957-31.2988 55.957-34.5215L55.957-39.4043Q55.957-40.1367 56.4941-40.7227Q57.0312-41.3086 57.8613-41.3086Q58.5938-41.3086 59.1553-40.7227Q59.7168-40.1367 59.7168-39.4043L59.7168-34.5215Q59.7168-28.6133 56.1279-24.585Q52.5391-20.5566 46.6797-19.9219L46.6797-15.4297L54.5898-15.4297Q55.3711-15.4297 55.9326-14.8438Q56.4941-14.2578 56.4941-13.4766Q56.4941-12.7441 55.9082-12.1582Q55.3223-11.5723 54.5898-11.5723Z"/>
  </g>
  <g id="Thin-S" transform="matrix(1 0 0 1 812.623 696)">
   <path class="multicolor-0:systemOrangeColor hierarchical-0:tertiary SFSymbolsPreviewFF9500" d="M20.3125-1.12305L67.2852-1.12305Q72.5098-1.12305 75.1709-3.80859Q77.832-6.49414 77.832-11.6211L77.832-58.6914Q77.832-63.8184 75.1709-66.5283Q72.5098-69.2383 67.2852-69.2383L20.3125-69.2383Q15.0879-69.2383 12.4268-66.5771Q9.76562-63.916 9.76562-58.6914L9.76562-11.6211Q9.76562-6.44531 12.4268-3.78418Q15.0879-1.12305 20.3125-1.12305Z"/>
   <path class="multicolor-1:white hierarchical-1:primary SFSymbolsPreviewFFFFFF" d="M43.7988-27.7832Q40.8691-27.7832 39.1113-29.7852Q37.3535-31.7871 37.3535-34.7656L37.3535-51.709Q37.3535-54.7363 39.1113-56.7139Q40.8691-58.6914 43.7988-58.6914Q46.7285-58.6914 48.4863-56.7139Q50.2441-54.7363 50.2441-51.709L50.2441-34.7656Q50.2441-31.7871 48.4863-29.7852Q46.7285-27.7832 43.7988-27.7832ZM34.5215-11.6211Q33.9355-11.6211 33.5205-11.9873Q33.1055-12.3535 33.1055-12.9395Q33.1055-13.4766 33.5205-13.8916Q33.9355-14.3066 34.5215-14.3066L42.4805-14.3066L42.4805-20.3613Q36.7188-20.8008 33.1299-24.6582Q29.541-28.5156 29.541-34.1309L29.541-38.3301Q29.541-38.8672 29.9316-39.2578Q30.3223-39.6484 30.8594-39.6484Q31.3965-39.6484 31.8115-39.2578Q32.2266-38.8672 32.2266-38.3301L32.2266-34.1309Q32.2266-30.7617 33.6426-28.2227Q35.0586-25.6836 37.6221-24.292Q40.1855-22.9004 43.7988-22.9004Q47.4121-22.9004 50-24.292Q52.5879-25.6836 54.0283-28.2227Q55.4688-30.7617 55.4688-34.1309L55.4688-38.3301Q55.4688-38.8672 55.8594-39.2578Q56.25-39.6484 56.7871-39.6484Q57.3242-39.6484 57.7148-39.2578Q58.1055-38.8672 58.1055-38.3301L58.1055-34.1309Q58.1055-28.5156 54.5166-24.6582Q50.9277-20.8008 45.166-20.3613L45.166-14.3066L53.1738-14.3066Q53.7109-14.3066 54.1016-13.8916Q54.4922-13.4766 54.4922-12.9395Q54.4922-12.4023 54.0771-12.0117Q53.6621-11.6211 53.1738-11.6211Z"/>
  </g>
  <g id="Ultralight-S" transform="matrix(1 0 0 1 516.352 696)">
   <path class="multicolor-0:systemOrangeColor hierarchical-0:tertiary SFSymbolsPreviewFF9500" d="M19.7754-1.5625L66.9434-1.5625Q71.875-1.5625 74.4141-4.15039Q76.9531-6.73828 76.9531-11.5723L76.9531-58.7891Q76.9531-63.623 74.4141-66.1865Q71.875-68.75 66.9434-68.75L19.7754-68.75Q14.8438-68.75 12.3047-66.2109Q9.76562-63.6719 9.76562-58.7891L9.76562-11.5723Q9.76562-6.64062 12.3047-4.10156Q14.8438-1.5625 19.7754-1.5625Z"/>
   <path class="multicolor-1:white hierarchical-1:primary SFSymbolsPreviewFFFFFF" d="M43.4082-27.832Q40.4785-27.832 38.7207-29.834Q36.9629-31.8359 36.9629-34.8145L36.9629-51.8066Q36.9629-54.7852 38.7207-56.7871Q40.4785-58.7891 43.4082-58.7891Q46.2891-58.7891 48.0469-56.7871Q49.8047-54.7852 49.8047-51.8066L49.8047-34.8145Q49.8047-31.8359 48.0469-29.834Q46.2891-27.832 43.4082-27.832ZM34.375-11.6211Q33.9355-11.6211 33.6182-11.9141Q33.3008-12.207 33.3008-12.6465Q33.3008-13.0859 33.6182-13.4033Q33.9355-13.7207 34.375-13.7207L42.334-13.7207L42.334-20.5566Q36.6699-20.9473 33.0811-24.6826Q29.4922-28.418 29.4922-33.8867L29.4922-37.793Q29.4922-38.1836 29.7852-38.501Q30.0781-38.8184 30.5176-38.8184Q30.957-38.8184 31.2744-38.501Q31.5918-38.1836 31.5918-37.793L31.5918-33.8867Q31.5918-30.4688 33.0078-27.9297Q34.4238-25.3906 37.0361-23.999Q39.6484-22.6074 43.4082-22.6074Q47.1191-22.6074 49.7559-23.999Q52.3926-25.3906 53.833-27.9297Q55.2734-30.4688 55.2734-33.8867L55.2734-37.793Q55.2734-38.1836 55.5664-38.501Q55.8594-38.8184 56.2988-38.8184Q56.7383-38.8184 57.0312-38.501Q57.3242-38.1836 57.3242-37.793L57.3242-33.8867Q57.3242-28.418 53.7354-24.6826Q50.1465-20.9473 44.4824-20.5566L44.4824-13.7207L52.4414-13.7207Q52.8809-13.7207 53.1738-13.4033Q53.4668-13.0859 53.4668-12.6465Q53.4668-12.207 53.1738-11.9141Q52.8809-11.6211 52.4414-11.6211Z"/>
  </g>
 </g>
</svg>
