<?xml version="1.0" encoding="UTF-8"?>
<!--Generator: Apple Native CoreSVG 175-->
<!DOCTYPE svg
PUBLIC "-//W3C//DTD SVG 1.1//EN"
       "http://www.w3.org/Graphics/SVG/1.1/DTD/svg11.dtd">
<svg version="1.1" xmlns="http://www.w3.org/2000/svg" xmlns:xlink="http://www.w3.org/1999/xlink" width="3300" height="2200">
 <!--glyph: "uni100215.medium", point size: 100.0, font version: "17.0d11e1", template writer version: "65.1"-->
 <style>.multicolor-0:systemIndigoColor {fill:#5856D6;opacity:1.0}

.SFSymbolsPreview5856D6 {fill:#5856D6;opacity:1.0}
</style>
 <g id="Notes">
  <rect height="2200" id="artboard" style="fill:white;opacity:1" width="3300" x="0" y="0"/>
  <line style="fill:none;stroke:black;opacity:1;stroke-width:0.5;" x1="263" x2="3036" y1="292" y2="292"/>
  <text style="stroke:none;fill:black;font-family:sans-serif;font-size:13;font-weight:bold;" transform="matrix(1 0 0 1 263 322)">Weight/Scale Variations</text>
  <text style="stroke:none;fill:black;font-family:sans-serif;font-size:13;text-anchor:middle;" transform="matrix(1 0 0 1 559.711 322)">Ultralight</text>
  <text style="stroke:none;fill:black;font-family:sans-serif;font-size:13;text-anchor:middle;" transform="matrix(1 0 0 1 856.422 322)">Thin</text>
  <text style="stroke:none;fill:black;font-family:sans-serif;font-size:13;text-anchor:middle;" transform="matrix(1 0 0 1 1153.13 322)">Light</text>
  <text style="stroke:none;fill:black;font-family:sans-serif;font-size:13;text-anchor:middle;" transform="matrix(1 0 0 1 1449.84 322)">Regular</text>
  <text style="stroke:none;fill:black;font-family:sans-serif;font-size:13;text-anchor:middle;" transform="matrix(1 0 0 1 1746.56 322)">Medium</text>
  <text style="stroke:none;fill:black;font-family:sans-serif;font-size:13;text-anchor:middle;" transform="matrix(1 0 0 1 2043.27 322)">Semibold</text>
  <text style="stroke:none;fill:black;font-family:sans-serif;font-size:13;text-anchor:middle;" transform="matrix(1 0 0 1 2339.98 322)">Bold</text>
  <text style="stroke:none;fill:black;font-family:sans-serif;font-size:13;text-anchor:middle;" transform="matrix(1 0 0 1 2636.69 322)">Heavy</text>
  <text style="stroke:none;fill:black;font-family:sans-serif;font-size:13;text-anchor:middle;" transform="matrix(1 0 0 1 2933.4 322)">Black</text>
  <line style="fill:none;stroke:black;opacity:1;stroke-width:0.5;" x1="263" x2="3036" y1="1903" y2="1903"/>
  <g transform="matrix(1 0 0 1 263 1933)">
   <path d="M9.24805 0.830078Q10.8691 0.830078 12.2949 0.214844Q13.7207-0.400391 14.8096-1.49414Q15.8984-2.58789 16.5186-4.01367Q17.1387-5.43945 17.1387-7.05078Q17.1387-8.66211 16.5186-10.0879Q15.8984-11.5137 14.8047-12.6074Q13.7109-13.7012 12.2852-14.3164Q10.8594-14.9316 9.23828-14.9316Q7.62695-14.9316 6.20117-14.3164Q4.77539-13.7012 3.69141-12.6074Q2.60742-11.5137 1.9873-10.0879Q1.36719-8.66211 1.36719-7.05078Q1.36719-5.43945 1.9873-4.01367Q2.60742-2.58789 3.69629-1.49414Q4.78516-0.400391 6.21094 0.214844Q7.63672 0.830078 9.24805 0.830078ZM9.24805-0.654297Q7.91992-0.654297 6.7627-1.14746Q5.60547-1.64062 4.73145-2.51953Q3.85742-3.39844 3.36426-4.56055Q2.87109-5.72266 2.87109-7.05078Q2.87109-8.37891 3.35938-9.54102Q3.84766-10.7031 4.72168-11.582Q5.5957-12.4609 6.75293-12.9541Q7.91016-13.4473 9.23828-13.4473Q10.5762-13.4473 11.7334-12.9541Q12.8906-12.4609 13.7695-11.582Q14.6484-10.7031 15.1465-9.54102Q15.6445-8.37891 15.6445-7.05078Q15.6445-5.72266 15.1514-4.56055Q14.6582-3.39844 13.7842-2.51953Q12.9102-1.64062 11.748-1.14746Q10.5859-0.654297 9.24805-0.654297ZM5.6543-7.05078Q5.6543-6.72852 5.85938-6.52832Q6.06445-6.32812 6.40625-6.32812L8.51562-6.32812L8.51562-4.20898Q8.51562-3.88672 8.71094-3.67676Q8.90625-3.4668 9.23828-3.4668Q9.56055-3.4668 9.77051-3.67676Q9.98047-3.88672 9.98047-4.20898L9.98047-6.32812L12.0898-6.32812Q12.4219-6.32812 12.627-6.52832Q12.832-6.72852 12.832-7.05078Q12.832-7.38281 12.627-7.58789Q12.4219-7.79297 12.0898-7.79297L9.98047-7.79297L9.98047-9.90234Q9.98047-10.2344 9.77051-10.4443Q9.56055-10.6543 9.23828-10.6543Q8.90625-10.6543 8.71094-10.4443Q8.51562-10.2344 8.51562-9.90234L8.51562-7.79297L6.40625-7.79297Q6.06445-7.79297 5.85938-7.58789Q5.6543-7.38281 5.6543-7.05078Z"/>
  </g>
  <g transform="matrix(1 0 0 1 281.867 1933)">
   <path d="M11.709 2.91016Q13.75 2.91016 15.5518 2.12891Q17.3535 1.34766 18.7305-0.0292969Q20.1074-1.40625 20.8887-3.20801Q21.6699-5.00977 21.6699-7.05078Q21.6699-9.0918 20.8887-10.8936Q20.1074-12.6953 18.7305-14.0723Q17.3535-15.4492 15.5469-16.2305Q13.7402-17.0117 11.6992-17.0117Q9.6582-17.0117 7.85645-16.2305Q6.05469-15.4492 4.68262-14.0723Q3.31055-12.6953 2.5293-10.8936Q1.74805-9.0918 1.74805-7.05078Q1.74805-5.00977 2.5293-3.20801Q3.31055-1.40625 4.6875-0.0292969Q6.06445 1.34766 7.86621 2.12891Q9.66797 2.91016 11.709 2.91016ZM11.709 1.25Q9.98047 1.25 8.47656 0.605469Q6.97266-0.0390625 5.83496-1.17676Q4.69727-2.31445 4.05762-3.81836Q3.41797-5.32227 3.41797-7.05078Q3.41797-8.7793 4.05762-10.2832Q4.69727-11.7871 5.83008-12.9297Q6.96289-14.0723 8.4668-14.7119Q9.9707-15.3516 11.6992-15.3516Q13.4277-15.3516 14.9316-14.7119Q16.4355-14.0723 17.5781-12.9297Q18.7207-11.7871 19.3652-10.2832Q20.0098-8.7793 20.0098-7.05078Q20.0098-5.32227 19.3701-3.81836Q18.7305-2.31445 17.5928-1.17676Q16.4551-0.0390625 14.9463 0.605469Q13.4375 1.25 11.709 1.25ZM7.17773-7.05078Q7.17773-6.69922 7.41211-6.47461Q7.64648-6.25 8.01758-6.25L10.8887-6.25L10.8887-3.36914Q10.8887-2.99805 11.1133-2.76855Q11.3379-2.53906 11.6895-2.53906Q12.0605-2.53906 12.29-2.76855Q12.5195-2.99805 12.5195-3.36914L12.5195-6.25L15.4004-6.25Q15.7715-6.25 16.001-6.47461Q16.2305-6.69922 16.2305-7.05078Q16.2305-7.42188 16.001-7.65137Q15.7715-7.88086 15.4004-7.88086L12.5195-7.88086L12.5195-10.752Q12.5195-11.1328 12.29-11.3623Q12.0605-11.5918 11.6895-11.5918Q11.3379-11.5918 11.1133-11.3574Q10.8887-11.123 10.8887-10.752L10.8887-7.88086L8.01758-7.88086Q7.63672-7.88086 7.40723-7.65137Q7.17773-7.42188 7.17773-7.05078Z"/>
  </g>
  <g transform="matrix(1 0 0 1 305.646 1933)">
   <path d="M14.9707 5.66406Q17.0605 5.66406 18.96 5.01465Q20.8594 4.36523 22.4512 3.19336Q24.043 2.02148 25.2197 0.429688Q26.3965-1.16211 27.0459-3.06641Q27.6953-4.9707 27.6953-7.05078Q27.6953-9.14062 27.0459-11.04Q26.3965-12.9395 25.2197-14.5312Q24.043-16.123 22.4512-17.2998Q20.8594-18.4766 18.9551-19.126Q17.0508-19.7754 14.9609-19.7754Q12.8711-19.7754 10.9717-19.126Q9.07227-18.4766 7.48535-17.2998Q5.89844-16.123 4.72168-14.5312Q3.54492-12.9395 2.90039-11.04Q2.25586-9.14062 2.25586-7.05078Q2.25586-4.9707 2.90527-3.06641Q3.55469-1.16211 4.72656 0.429688Q5.89844 2.02148 7.49023 3.19336Q9.08203 4.36523 10.9814 5.01465Q12.8809 5.66406 14.9707 5.66406ZM14.9707 3.84766Q13.1641 3.84766 11.5283 3.2959Q9.89258 2.74414 8.53516 1.74805Q7.17773 0.751953 6.17676-0.610352Q5.17578-1.97266 4.62891-3.6084Q4.08203-5.24414 4.08203-7.05078Q4.08203-8.86719 4.62891-10.5029Q5.17578-12.1387 6.17188-13.501Q7.16797-14.8633 8.52539-15.8594Q9.88281-16.8555 11.5186-17.4023Q13.1543-17.9492 14.9609-17.9492Q16.7773-17.9492 18.4131-17.4023Q20.0488-16.8555 21.4111-15.8594Q22.7734-14.8633 23.7695-13.501Q24.7656-12.1387 25.3174-10.5029Q25.8691-8.86719 25.8691-7.05078Q25.8789-5.24414 25.332-3.6084Q24.7852-1.97266 23.7842-0.610352Q22.7832 0.751953 21.4209 1.74805Q20.0586 2.74414 18.4229 3.2959Q16.7871 3.84766 14.9707 3.84766ZM9.19922-7.05078Q9.19922-6.66992 9.45801-6.4209Q9.7168-6.17188 10.1172-6.17188L14.0625-6.17188L14.0625-2.2168Q14.0625-1.81641 14.3115-1.55762Q14.5605-1.29883 14.9512-1.29883Q15.3516-1.29883 15.6104-1.55273Q15.8691-1.80664 15.8691-2.2168L15.8691-6.17188L19.8242-6.17188Q20.2246-6.17188 20.4785-6.4209Q20.7324-6.66992 20.7324-7.05078Q20.7324-7.46094 20.4785-7.71484Q20.2246-7.96875 19.8242-7.96875L15.8691-7.96875L15.8691-11.9141Q15.8691-12.3242 15.6104-12.583Q15.3516-12.8418 14.9512-12.8418Q14.5605-12.8418 14.3115-12.583Q14.0625-12.3242 14.0625-11.9141L14.0625-7.96875L10.1172-7.96875Q9.70703-7.96875 9.45312-7.71484Q9.19922-7.46094 9.19922-7.05078Z"/>
  </g>
  <text style="stroke:none;fill:black;font-family:sans-serif;font-size:13;font-weight:bold;" transform="matrix(1 0 0 1 263 1953)">Design Variations</text>
  <text style="stroke:none;fill:black;font-family:sans-serif;font-size:13;" transform="matrix(1 0 0 1 263 1971)">Symbols are supported in up to nine weights and three scales.</text>
  <text style="stroke:none;fill:black;font-family:sans-serif;font-size:13;" transform="matrix(1 0 0 1 263 1989)">For optimal layout with text and other symbols, vertically align</text>
  <text style="stroke:none;fill:black;font-family:sans-serif;font-size:13;" transform="matrix(1 0 0 1 263 2007)">symbols with the adjacent text.</text>
  <line style="fill:none;stroke:#00AEEF;stroke-width:0.5;opacity:1.0;" x1="776" x2="776" y1="1919" y2="1933"/>
  <g transform="matrix(1 0 0 1 776 1933)">
   <path d="M3.31055 0.15625Q3.70117 0.15625 3.91602-0.00976562Q4.13086-0.175781 4.26758-0.585938L5.52734-4.0332L11.2891-4.0332L12.5488-0.585938Q12.6855-0.175781 12.9004-0.00976562Q13.1152 0.15625 13.4961 0.15625Q13.8867 0.15625 14.1162-0.0585938Q14.3457-0.273438 14.3457-0.644531Q14.3457-0.869141 14.2383-1.17188L9.6582-13.3691Q9.48242-13.8184 9.17969-14.043Q8.87695-14.2676 8.4082-14.2676Q7.5-14.2676 7.17773-13.3789L2.59766-1.16211Q2.49023-0.859375 2.49023-0.634766Q2.49023-0.263672 2.70996-0.0537109Q2.92969 0.15625 3.31055 0.15625ZM6.00586-5.51758L8.37891-12.0898L8.42773-12.0898L10.8008-5.51758Z"/>
  </g>
  <line style="fill:none;stroke:#00AEEF;stroke-width:0.5;opacity:1.0;" x1="793.197" x2="793.197" y1="1919" y2="1933"/>
  <text style="stroke:none;fill:black;font-family:sans-serif;font-size:13;font-weight:bold;" transform="matrix(1 0 0 1 776 1953)">Margins</text>
  <text style="stroke:none;fill:black;font-family:sans-serif;font-size:13;" transform="matrix(1 0 0 1 776 1971)">Leading and trailing margins on the left and right side of each symbol</text>
  <text style="stroke:none;fill:black;font-family:sans-serif;font-size:13;" transform="matrix(1 0 0 1 776 1989)">can be adjusted by modifying the x-location of the margin guidelines.</text>
  <text style="stroke:none;fill:black;font-family:sans-serif;font-size:13;" transform="matrix(1 0 0 1 776 2007)">Modifications are automatically applied proportionally to all</text>
  <text style="stroke:none;fill:black;font-family:sans-serif;font-size:13;" transform="matrix(1 0 0 1 776 2025)">scales and weights.</text>
  <g transform="matrix(1 0 0 1 1289 1933)">
   <path d="M2.8418 1.86523L4.54102 3.57422Q5.18555 4.22852 5.90332 4.17969Q6.62109 4.13086 7.31445 3.35938L18.0078-8.42773L17.041-9.4043L6.42578 2.27539Q6.16211 2.57812 5.89355 2.61719Q5.625 2.65625 5.27344 2.30469L4.10156 1.14258Q3.75 0.791016 3.79395 0.522461Q3.83789 0.253906 4.14062-0.0195312L15.6152-10.8203L14.6387-11.7871L3.04688-0.898438Q2.30469-0.214844 2.25098 0.498047Q2.19727 1.21094 2.8418 1.86523ZM9.25781-16.3281Q8.94531-16.0254 8.90625-15.6348Q8.86719-15.2441 9.04297-14.9512Q9.21875-14.6777 9.55566-14.541Q9.89258-14.4043 10.3809-14.5215Q11.4746-14.7754 12.5977-14.7314Q13.7207-14.6875 14.7949-13.9844L14.209-12.5293Q13.9551-11.9043 14.0674-11.4404Q14.1797-10.9766 14.5801-10.5664L16.875-8.25195Q17.2363-7.88086 17.5781-7.82227Q17.9199-7.76367 18.3398-7.8418L19.4043-8.03711L20.0684-7.36328L20.0293-6.80664Q20-6.43555 20.1221-6.12305Q20.2441-5.81055 20.6055-5.44922L21.3672-4.70703Q21.7285-4.3457 22.1533-4.33105Q22.5781-4.31641 22.9297-4.66797L25.8398-7.58789Q26.1914-7.93945 26.1816-8.35449Q26.1719-8.76953 25.8105-9.13086L25.0391-9.89258Q24.6875-10.2539 24.3799-10.3857Q24.0723-10.5176 23.7109-10.4883L23.1348-10.4395L22.4902-11.0742L22.7344-12.1973Q22.832-12.6172 22.6953-12.9834Q22.5586-13.3496 22.1191-13.7891L19.9219-15.9766Q18.6719-17.2168 17.2607-17.8369Q15.8496-18.457 14.4189-18.4814Q12.9883-18.5059 11.665-17.959Q10.3418-17.4121 9.25781-16.3281ZM10.752-15.957Q11.6602-16.6211 12.7002-16.9043Q13.7402-17.1875 14.8047-17.085Q15.8691-16.9824 16.8701-16.5137Q17.8711-16.0449 18.7012-15.2051L21.1328-12.793Q21.3086-12.6172 21.3525-12.4512Q21.3965-12.2852 21.3379-12.0312L21.0156-10.5469L22.5195-9.0625L23.5059-9.12109Q23.6914-9.13086 23.7891-9.09668Q23.8867-9.0625 24.0332-8.91602L24.6094-8.33984L22.168-5.89844L21.5918-6.47461Q21.4453-6.62109 21.4062-6.71875Q21.3672-6.81641 21.377-7.01172L21.4453-7.98828L19.9512-9.47266L18.4277-9.21875Q18.1836-9.16992 18.042-9.2041Q17.9004-9.23828 17.7148-9.41406L15.7129-11.416Q15.5176-11.5918 15.4932-11.7529Q15.4688-11.9141 15.5859-12.1875L16.4648-14.2773Q15.293-15.3711 13.8281-15.791Q12.3633-16.2109 10.8398-15.7617Q10.7227-15.7324 10.6885-15.8057Q10.6543-15.8789 10.752-15.957Z"/>
  </g>
  <text style="stroke:none;fill:black;font-family:sans-serif;font-size:13;font-weight:bold;" transform="matrix(1 0 0 1 1289 1953)">Exporting</text>
  <text style="stroke:none;fill:black;font-family:sans-serif;font-size:13;" transform="matrix(1 0 0 1 1289 1971)">Symbols should be outlined when exporting to ensure the</text>
  <text style="stroke:none;fill:black;font-family:sans-serif;font-size:13;" transform="matrix(1 0 0 1 1289 1989)">design is preserved when submitting to Xcode.</text>
  <text id="template-version" style="stroke:none;fill:black;font-family:sans-serif;font-size:13;text-anchor:end;" transform="matrix(1 0 0 1 3036 1933)">Template v.3.0</text>
  <text style="stroke:none;fill:black;font-family:sans-serif;font-size:13;text-anchor:end;" transform="matrix(1 0 0 1 3036 1951)">Requires Xcode 13 or greater</text>
  <text id="descriptive-name" style="stroke:none;fill:black;font-family:sans-serif;font-size:13;text-anchor:end;" transform="matrix(1 0 0 1 3036 1969)">Generated from folder</text>
  <text style="stroke:none;fill:black;font-family:sans-serif;font-size:13;text-anchor:end;" transform="matrix(1 0 0 1 3036 1987)">Typeset at 100 points</text>
  <text style="stroke:none;fill:black;font-family:sans-serif;font-size:13;" transform="matrix(1 0 0 1 263 726)">Small</text>
  <text style="stroke:none;fill:black;font-family:sans-serif;font-size:13;" transform="matrix(1 0 0 1 263 1156)">Medium</text>
  <text style="stroke:none;fill:black;font-family:sans-serif;font-size:13;" transform="matrix(1 0 0 1 263 1586)">Large</text>
 </g>
 <g id="Guides">
  <g id="H-reference" style="fill:#27AAE1;stroke:none;" transform="matrix(1 0 0 1 339 696)">
   <path d="M0.976562 0L3.66211 0L29.3457-67.1387L30.0293-67.1387L30.0293-70.459L28.125-70.459ZM11.6699-24.4629L46.9727-24.4629L46.2402-26.709L12.4512-26.709ZM55.127 0L57.7637 0L30.6152-70.459L29.4434-70.459L29.4434-67.1387Z"/>
  </g>
  <line id="Baseline-S" style="fill:none;stroke:#27AAE1;opacity:1;stroke-width:0.5;" x1="263" x2="3036" y1="696" y2="696"/>
  <line id="Capline-S" style="fill:none;stroke:#27AAE1;opacity:1;stroke-width:0.5;" x1="263" x2="3036" y1="625.541" y2="625.541"/>
  <g id="H-reference" style="fill:#27AAE1;stroke:none;" transform="matrix(1 0 0 1 339 1126)">
   <path d="M0.976562 0L3.66211 0L29.3457-67.1387L30.0293-67.1387L30.0293-70.459L28.125-70.459ZM11.6699-24.4629L46.9727-24.4629L46.2402-26.709L12.4512-26.709ZM55.127 0L57.7637 0L30.6152-70.459L29.4434-70.459L29.4434-67.1387Z"/>
  </g>
  <line id="Baseline-M" style="fill:none;stroke:#27AAE1;opacity:1;stroke-width:0.5;" x1="263" x2="3036" y1="1126" y2="1126"/>
  <line id="Capline-M" style="fill:none;stroke:#27AAE1;opacity:1;stroke-width:0.5;" x1="263" x2="3036" y1="1055.54" y2="1055.54"/>
  <g id="H-reference" style="fill:#27AAE1;stroke:none;" transform="matrix(1 0 0 1 339 1556)">
   <path d="M0.976562 0L3.66211 0L29.3457-67.1387L30.0293-67.1387L30.0293-70.459L28.125-70.459ZM11.6699-24.4629L46.9727-24.4629L46.2402-26.709L12.4512-26.709ZM55.127 0L57.7637 0L30.6152-70.459L29.4434-70.459L29.4434-67.1387Z"/>
  </g>
  <line id="Baseline-L" style="fill:none;stroke:#27AAE1;opacity:1;stroke-width:0.5;" x1="263" x2="3036" y1="1556" y2="1556"/>
  <line id="Capline-L" style="fill:none;stroke:#27AAE1;opacity:1;stroke-width:0.5;" x1="263" x2="3036" y1="1485.54" y2="1485.54"/>
  <line id="left-margin-Ultralight-S" style="fill:none;stroke:#00AEEF;stroke-width:0.5;opacity:1.0;" x1="508.1" x2="508.1" y1="600.785" y2="720.121"/>
  <line id="right-margin-Ultralight-S" style="fill:none;stroke:#00AEEF;stroke-width:0.5;opacity:1.0;" x1="611.322" x2="611.322" y1="600.785" y2="720.121"/>
  <line id="left-margin-Thin-S" style="fill:none;stroke:#00AEEF;stroke-width:0.5;opacity:1.0;" x1="804.371" x2="804.371" y1="600.785" y2="720.121"/>
  <line id="right-margin-Thin-S" style="fill:none;stroke:#00AEEF;stroke-width:0.5;opacity:1.0;" x1="908.473" x2="908.473" y1="600.785" y2="720.121"/>
  <line id="left-margin-Light-S" style="fill:none;stroke:#00AEEF;stroke-width:0.5;opacity:1.0;" x1="1100.23" x2="1100.23" y1="600.785" y2="720.121"/>
  <line id="right-margin-Light-S" style="fill:none;stroke:#00AEEF;stroke-width:0.5;opacity:1.0;" x1="1206.04" x2="1206.04" y1="600.785" y2="720.121"/>
  <line id="left-margin-Regular-S" style="fill:none;stroke:#00AEEF;stroke-width:0.5;opacity:1.0;" x1="1396.3" x2="1396.3" y1="600.785" y2="720.121"/>
  <line id="right-margin-Regular-S" style="fill:none;stroke:#00AEEF;stroke-width:0.5;opacity:1.0;" x1="1503.38" x2="1503.38" y1="600.785" y2="720.121"/>
  <line id="left-margin-Medium-S" style="fill:none;stroke:#00AEEF;stroke-width:0.5;opacity:1.0;" x1="1692.65" x2="1692.65" y1="600.785" y2="720.121"/>
  <line id="right-margin-Medium-S" style="fill:none;stroke:#00AEEF;stroke-width:0.5;opacity:1.0;" x1="1800.46" x2="1800.46" y1="600.785" y2="720.121"/>
  <line id="left-margin-Semibold-S" style="fill:none;stroke:#00AEEF;stroke-width:0.5;opacity:1.0;" x1="1989.09" x2="1989.09" y1="600.785" y2="720.121"/>
  <line id="right-margin-Semibold-S" style="fill:none;stroke:#00AEEF;stroke-width:0.5;opacity:1.0;" x1="2097.44" x2="2097.44" y1="600.785" y2="720.121"/>
  <line id="left-margin-Bold-S" style="fill:none;stroke:#00AEEF;stroke-width:0.5;opacity:1.0;" x1="2285.41" x2="2285.41" y1="600.785" y2="720.121"/>
  <line id="right-margin-Bold-S" style="fill:none;stroke:#00AEEF;stroke-width:0.5;opacity:1.0;" x1="2394.54" x2="2394.54" y1="600.785" y2="720.121"/>
  <line id="left-margin-Heavy-S" style="fill:none;stroke:#00AEEF;stroke-width:0.5;opacity:1.0;" x1="2581.61" x2="2581.61" y1="600.785" y2="720.121"/>
  <line id="right-margin-Heavy-S" style="fill:none;stroke:#00AEEF;stroke-width:0.5;opacity:1.0;" x1="2691.77" x2="2691.77" y1="600.785" y2="720.121"/>
  <line id="left-margin-Black-S" style="fill:none;stroke:#00AEEF;stroke-width:0.5;opacity:1.0;" x1="2877.83" x2="2877.83" y1="600.785" y2="720.121"/>
  <line id="right-margin-Black-S" style="fill:none;stroke:#00AEEF;stroke-width:0.5;opacity:1.0;" x1="2988.97" x2="2988.97" y1="600.785" y2="720.121"/>
  <line id="left-margin-Ultralight-M" style="fill:none;stroke:#00AEEF;stroke-width:0.5;opacity:1.0;" x1="494.013" x2="494.013" y1="1030.79" y2="1150.12"/>
  <line id="right-margin-Ultralight-M" style="fill:none;stroke:#00AEEF;stroke-width:0.5;opacity:1.0;" x1="625.409" x2="625.409" y1="1030.79" y2="1150.12"/>
  <line id="left-margin-Thin-M" style="fill:none;stroke:#00AEEF;stroke-width:0.5;opacity:1.0;" x1="790.236" x2="790.236" y1="1030.79" y2="1150.12"/>
  <line id="right-margin-Thin-M" style="fill:none;stroke:#00AEEF;stroke-width:0.5;opacity:1.0;" x1="922.609" x2="922.609" y1="1030.79" y2="1150.12"/>
  <line id="left-margin-Light-M" style="fill:none;stroke:#00AEEF;stroke-width:0.5;opacity:1.0;" x1="1085.97" x2="1085.97" y1="1030.79" y2="1150.12"/>
  <line id="right-margin-Light-M" style="fill:none;stroke:#00AEEF;stroke-width:0.5;opacity:1.0;" x1="1220.3" x2="1220.3" y1="1030.79" y2="1150.12"/>
  <line id="left-margin-Regular-M" style="fill:none;stroke:#00AEEF;stroke-width:0.5;opacity:1.0;" x1="1381.95" x2="1381.95" y1="1030.79" y2="1150.12"/>
  <line id="right-margin-Regular-M" style="fill:none;stroke:#00AEEF;stroke-width:0.5;opacity:1.0;" x1="1517.74" x2="1517.74" y1="1030.79" y2="1150.12"/>
  <line id="left-margin-Medium-M" style="fill:none;stroke:#00AEEF;stroke-width:0.5;opacity:1.0;" x1="1678.15" x2="1678.15" y1="1030.79" y2="1150.12"/>
  <line id="right-margin-Medium-M" style="fill:none;stroke:#00AEEF;stroke-width:0.5;opacity:1.0;" x1="1814.96" x2="1814.96" y1="1030.79" y2="1150.12"/>
  <line id="left-margin-Semibold-M" style="fill:none;stroke:#00AEEF;stroke-width:0.5;opacity:1.0;" x1="1974.47" x2="1974.47" y1="1030.79" y2="1150.12"/>
  <line id="right-margin-Semibold-M" style="fill:none;stroke:#00AEEF;stroke-width:0.5;opacity:1.0;" x1="2112.07" x2="2112.07" y1="1030.79" y2="1150.12"/>
  <line id="left-margin-Bold-M" style="fill:none;stroke:#00AEEF;stroke-width:0.5;opacity:1.0;" x1="2270.67" x2="2270.67" y1="1030.79" y2="1150.12"/>
  <line id="right-margin-Bold-M" style="fill:none;stroke:#00AEEF;stroke-width:0.5;opacity:1.0;" x1="2409.29" x2="2409.29" y1="1030.79" y2="1150.12"/>
  <line id="left-margin-Heavy-M" style="fill:none;stroke:#00AEEF;stroke-width:0.5;opacity:1.0;" x1="2566.64" x2="2566.64" y1="1030.79" y2="1150.12"/>
  <line id="right-margin-Heavy-M" style="fill:none;stroke:#00AEEF;stroke-width:0.5;opacity:1.0;" x1="2706.73" x2="2706.73" y1="1030.79" y2="1150.12"/>
  <line id="left-margin-Black-M" style="fill:none;stroke:#00AEEF;stroke-width:0.5;opacity:1.0;" x1="2862.7" x2="2862.7" y1="1030.79" y2="1150.12"/>
  <line id="right-margin-Black-M" style="fill:none;stroke:#00AEEF;stroke-width:0.5;opacity:1.0;" x1="3004.1" x2="3004.1" y1="1030.79" y2="1150.12"/>
  <line id="left-margin-Ultralight-L" style="fill:none;stroke:#00AEEF;stroke-width:0.5;opacity:1.0;" x1="475.165" x2="475.165" y1="1460.79" y2="1580.12"/>
  <line id="right-margin-Ultralight-L" style="fill:none;stroke:#00AEEF;stroke-width:0.5;opacity:1.0;" x1="644.257" x2="644.257" y1="1460.79" y2="1580.12"/>
  <line id="left-margin-Thin-L" style="fill:none;stroke:#00AEEF;stroke-width:0.5;opacity:1.0;" x1="771.315" x2="771.315" y1="1460.79" y2="1580.12"/>
  <line id="right-margin-Thin-L" style="fill:none;stroke:#00AEEF;stroke-width:0.5;opacity:1.0;" x1="941.53" x2="941.53" y1="1460.79" y2="1580.12"/>
  <line id="left-margin-Light-L" style="fill:none;stroke:#00AEEF;stroke-width:0.5;opacity:1.0;" x1="1066.95" x2="1066.95" y1="1460.79" y2="1580.12"/>
  <line id="right-margin-Light-L" style="fill:none;stroke:#00AEEF;stroke-width:0.5;opacity:1.0;" x1="1239.31" x2="1239.31" y1="1460.79" y2="1580.12"/>
  <line id="left-margin-Regular-L" style="fill:none;stroke:#00AEEF;stroke-width:0.5;opacity:1.0;" x1="1362.86" x2="1362.86" y1="1460.79" y2="1580.12"/>
  <line id="right-margin-Regular-L" style="fill:none;stroke:#00AEEF;stroke-width:0.5;opacity:1.0;" x1="1536.83" x2="1536.83" y1="1460.79" y2="1580.12"/>
  <line id="left-margin-Medium-L" style="fill:none;stroke:#00AEEF;stroke-width:0.5;opacity:1.0;" x1="1658.91" x2="1658.91" y1="1460.79" y2="1580.12"/>
  <line id="right-margin-Medium-L" style="fill:none;stroke:#00AEEF;stroke-width:0.5;opacity:1.0;" x1="1834.2" x2="1834.2" y1="1460.79" y2="1580.12"/>
  <line id="left-margin-Semibold-L" style="fill:none;stroke:#00AEEF;stroke-width:0.5;opacity:1.0;" x1="1955.11" x2="1955.11" y1="1460.79" y2="1580.12"/>
  <line id="right-margin-Semibold-L" style="fill:none;stroke:#00AEEF;stroke-width:0.5;opacity:1.0;" x1="2131.43" x2="2131.43" y1="1460.79" y2="1580.12"/>
  <line id="left-margin-Bold-L" style="fill:none;stroke:#00AEEF;stroke-width:0.5;opacity:1.0;" x1="2251.16" x2="2251.16" y1="1460.79" y2="1580.12"/>
  <line id="right-margin-Bold-L" style="fill:none;stroke:#00AEEF;stroke-width:0.5;opacity:1.0;" x1="2428.8" x2="2428.8" y1="1460.79" y2="1580.12"/>
  <line id="left-margin-Heavy-L" style="fill:none;stroke:#00AEEF;stroke-width:0.5;opacity:1.0;" x1="2546.89" x2="2546.89" y1="1460.79" y2="1580.12"/>
  <line id="right-margin-Heavy-L" style="fill:none;stroke:#00AEEF;stroke-width:0.5;opacity:1.0;" x1="2726.48" x2="2726.48" y1="1460.79" y2="1580.12"/>
  <line id="left-margin-Black-L" style="fill:none;stroke:#00AEEF;stroke-width:0.5;opacity:1.0;" x1="2842.75" x2="2842.75" y1="1460.79" y2="1580.12"/>
  <line id="right-margin-Black-L" style="fill:none;stroke:#00AEEF;stroke-width:0.5;opacity:1.0;" x1="3024.05" x2="3024.05" y1="1460.79" y2="1580.12"/>
 </g>
 <g id="Symbols">
  <g id="Black-L" transform="matrix(1 0 0 1 2842.75 1556)">
   <path class="multicolor-0:systemIndigoColor SFSymbolsPreview5856D6" d="M39.9902 25.7324L141.992 25.7324Q152.93 25.7324 159.082 19.5068Q165.234 13.2812 165.234 1.9043L165.234-63.1836Q165.234-74.5605 158.984-80.7617Q152.734-86.9629 141.309-86.9629L89.1113-86.9629Q85.2539-86.9629 82.4463-87.9883Q79.6387-89.0137 76.2695-91.4551L73.4375-93.6523Q70.8008-95.6055 68.5059-96.7773Q66.2109-97.9492 63.4766-98.4375Q60.7422-98.9258 56.8359-98.9258L39.4043-98.9258Q28.7598-98.9258 22.4121-92.6025Q16.0645-86.2793 16.0645-74.8047L16.0645 1.9043Q16.0645 13.2812 22.3145 19.5068Q28.5645 25.7324 39.9902 25.7324ZM42.6758 5.46875Q39.5508 5.46875 37.9395 3.95508Q36.3281 2.44141 36.3281-0.976562L36.3281-72.0215Q36.3281-75.1465 38.208-76.9287Q40.0879-78.7109 43.2617-78.7109L51.3184-78.7109Q53.8574-78.7109 55.9082-78.2959Q57.959-77.8809 59.8877-76.8799Q61.8164-75.8789 64.0625-74.2188L66.8945-72.0703Q69.5801-70.0195 71.8994-68.8721Q74.2188-67.7246 76.9287-67.2363Q79.6387-66.748 83.5449-66.748L138.574-66.748Q141.748-66.748 143.359-65.2344Q144.971-63.7207 144.971-60.3027L144.971-0.927734Q144.971 2.44141 143.359 3.95508Q141.748 5.46875 138.574 5.46875ZM29.248-40.625L152.49-40.625L152.49-56.543L29.248-56.543Z"/>
  </g>
  <g id="Heavy-L" transform="matrix(1 0 0 1 2546.89 1556)">
   <path class="multicolor-0:systemIndigoColor SFSymbolsPreview5856D6" d="M38.8184 24.707L141.602 24.707Q151.953 24.707 157.739 18.8232Q163.525 12.9395 163.525 2.09961L163.525-62.9395Q163.525-73.8281 157.617-79.6875Q151.709-85.5469 140.723-85.5469L86.5234-85.5469Q82.7637-85.5469 80.0781-86.5234Q77.3926-87.5 74.2676-89.8926L71.2402-92.2852Q68.75-94.1895 66.5527-95.3369Q64.3555-96.4844 61.7188-96.9482Q59.082-97.4121 55.3711-97.4121L37.8418-97.4121Q27.7832-97.4121 21.9238-91.5283Q16.0645-85.6445 16.0645-74.8047L16.0645 2.09961Q16.0645 12.9883 21.9727 18.8477Q27.8809 24.707 38.8184 24.707ZM40.918 7.17773Q37.3047 7.17773 35.4492 5.39551Q33.5938 3.61328 33.5938-0.244141L33.5938-72.5098Q33.5938-76.0742 35.6201-78.0029Q37.6465-79.9316 41.1621-79.9316L50.6348-79.9316Q53.125-79.9316 55.0781-79.541Q57.0312-79.1504 58.8623-78.1738Q60.6934-77.1973 62.793-75.5859L65.8691-73.2422Q68.3594-71.2402 70.5811-70.1172Q72.8027-68.9941 75.415-68.5303Q78.0273-68.0664 81.7383-68.0664L138.623-68.0664Q142.236-68.0664 144.116-66.2842Q145.996-64.502 145.996-60.6445L145.996-0.195312Q145.996 3.61328 144.116 5.39551Q142.236 7.17773 138.623 7.17773ZM27.3926-42.627L152.539-42.627L152.539-56.7383L27.3926-56.7383Z"/>
  </g>
  <g id="Bold-L" transform="matrix(1 0 0 1 2251.16 1556)">
   <path class="multicolor-0:systemIndigoColor SFSymbolsPreview5856D6" d="M37.5488 23.584L141.211 23.584Q150.879 23.584 156.226 18.0908Q161.572 12.5977 161.572 2.29492L161.572-62.6953Q161.572-73.0469 156.055-78.5156Q150.537-83.9844 140.137-83.9844L83.6426-83.9844Q79.9805-83.9844 77.4658-84.9121Q74.9512-85.8398 72.0215-88.1348L68.75-90.7715Q66.4062-92.6758 64.3311-93.7744Q62.2559-94.873 59.7656-95.3125Q57.2754-95.752 53.7598-95.752L36.084-95.752Q26.7578-95.752 21.4111-90.3564Q16.0645-84.9609 16.0645-74.7559L16.0645 2.29492Q16.0645 12.6465 21.582 18.1152Q27.0996 23.584 37.5488 23.584ZM38.9648 9.13086Q34.8633 9.13086 32.6904 7.03125Q30.5176 4.93164 30.5176 0.585938L30.5176-73.0957Q30.5176-77.1484 32.7148-79.248Q34.9121-81.3477 38.8672-81.3477L49.9023-81.3477Q52.2949-81.3477 54.1748-80.957Q56.0547-80.5664 57.7637-79.6387Q59.4727-78.7109 61.4258-77.1484L64.6973-74.5117Q67.041-72.6074 69.1406-71.5332Q71.2402-70.459 73.7549-69.9951Q76.2695-69.5312 79.7852-69.5312L138.672-69.5312Q142.773-69.5312 144.946-67.4316Q147.119-65.332 147.119-61.0352L147.119 0.634766Q147.119 4.93164 144.946 7.03125Q142.773 9.13086 138.672 9.13086ZM25.293-44.9219L152.637-44.9219L152.637-56.9336L25.293-56.9336Z"/>
  </g>
  <g id="Semibold-L" transform="matrix(1 0 0 1 1955.11 1556)">
   <path class="multicolor-0:systemIndigoColor SFSymbolsPreview5856D6" d="M36.6211 22.8027L140.869 22.8027Q150.098 22.8027 155.176 17.5781Q160.254 12.3535 160.254 2.39258L160.254-62.5Q160.254-72.4609 155.005-77.6611Q149.756-82.8613 139.697-82.8613L81.6406-82.8613Q78.0762-82.8613 75.6348-83.7646Q73.1934-84.668 70.459-86.9141L67.041-89.7461Q64.7949-91.5527 62.793-92.627Q60.791-93.7012 58.374-94.1406Q55.957-94.5801 52.5879-94.5801L34.8633-94.5801Q25.9766-94.5801 21.0205-89.5264Q16.0645-84.4727 16.0645-74.7559L16.0645 2.39258Q16.0645 12.4023 21.3135 17.6025Q26.5625 22.8027 36.6211 22.8027ZM37.5977 10.4492Q33.1055 10.4492 30.7617 8.1543Q28.418 5.85938 28.418 1.17188L28.418-73.4863Q28.418-77.832 30.7129-80.0781Q33.0078-82.3242 37.2559-82.3242L49.3652-82.3242Q51.709-82.3242 53.5156-81.9336Q55.3223-81.543 56.958-80.6396Q58.5938-79.7363 60.4492-78.2227L63.8672-75.3906Q66.0645-73.5352 68.1152-72.4854Q70.166-71.4355 72.583-70.9961Q75-70.5566 78.3691-70.5566L138.721-70.5566Q143.115-70.5566 145.508-68.2373Q147.9-65.918 147.9-61.2793L147.9 1.2207Q147.9 5.85938 145.508 8.1543Q143.115 10.4492 138.721 10.4492ZM23.8281-46.4355L152.637-46.4355L152.637-57.0801L23.8281-57.0801Z"/>
  </g>
  <g id="Medium-L" transform="matrix(1 0 0 1 1658.91 1556)">
   <path class="multicolor-0:systemIndigoColor SFSymbolsPreview5856D6" d="M35.9375 22.2168L140.674 22.2168Q149.512 22.2168 154.37 17.1875Q159.229 12.1582 159.229 2.49023L159.229-62.3535Q159.229-72.0215 154.175-77.0264Q149.121-82.0312 139.355-82.0312L80.0781-82.0312Q76.6113-82.0312 74.2676-82.9102Q71.9238-83.7891 69.2871-85.9863L65.7715-88.916Q63.5742-90.7715 61.6211-91.8213Q59.668-92.8711 57.3486-93.2861Q55.0293-93.7012 51.7578-93.7012L33.9355-93.7012Q25.4395-93.7012 20.752-88.916Q16.0645-84.1309 16.0645-74.707L16.0645 2.49023Q16.0645 12.207 21.1182 17.2119Q26.1719 22.2168 35.9375 22.2168ZM36.5723 11.4746Q31.8359 11.4746 29.3213 9.00879Q26.8066 6.54297 26.8066 1.5625L26.8066-73.7793Q26.8066-78.3691 29.1748-80.7129Q31.543-83.0566 36.0352-83.0566L48.9746-83.0566Q51.3184-83.0566 53.0518-82.666Q54.7852-82.2754 56.3477-81.3965Q57.9102-80.5176 59.7168-79.0039L63.2324-76.0742Q65.3809-74.2676 67.3584-73.2422Q69.3359-72.2168 71.7041-71.7529Q74.0723-71.2891 77.3438-71.2891L138.721-71.2891Q143.408-71.2891 145.947-68.8232Q148.486-66.3574 148.486-61.4746L148.486 1.61133Q148.486 6.54297 145.947 9.00879Q143.408 11.4746 138.721 11.4746ZM22.7051-47.6562L152.686-47.6562L152.686-57.1777L22.7051-57.1777Z"/>
  </g>
  <g id="Regular-L" transform="matrix(1 0 0 1 1362.86 1556)">
   <path class="multicolor-0:systemIndigoColor SFSymbolsPreview5856D6" d="M35.0586 21.4355L140.381 21.4355Q148.779 21.4355 153.345 16.6748Q157.91 11.9141 157.91 2.63672L157.91-62.1582Q157.91-71.4844 153.125-76.2207Q148.34-80.957 138.916-80.957L78.125-80.957Q74.707-80.957 72.4609-81.7871Q70.2148-82.6172 67.7734-84.7656L64.0625-87.8906Q62.0117-89.6973 60.1318-90.7227Q58.252-91.748 56.0059-92.1631Q53.7598-92.5781 50.6348-92.5781L32.7148-92.5781Q24.707-92.5781 20.3857-88.1104Q16.0645-83.6426 16.0645-74.707L16.0645 2.63672Q16.0645 11.9629 20.8496 16.6992Q25.6348 21.4355 35.0586 21.4355ZM35.2539 12.793Q30.127 12.793 27.417 10.1074Q24.707 7.42188 24.707 2.14844L24.707-74.1699Q24.707-79.1016 27.1973-81.543Q29.6875-83.9844 34.4238-83.9844L48.4863-83.9844Q50.7324-83.9844 52.417-83.6182Q54.1016-83.252 55.5908-82.3975Q57.0801-81.543 58.7402-80.0781L62.4512-76.9531Q64.4531-75.1953 66.3574-74.1943Q68.2617-73.1934 70.5566-72.7539Q72.8516-72.3145 75.9766-72.3145L138.77-72.3145Q143.75-72.3145 146.509-69.6289Q149.268-66.9434 149.268-61.7188L149.268 2.19727Q149.268 7.42188 146.509 10.1074Q143.75 12.793 138.77 12.793ZM21.2891-49.1699L152.734-49.1699L152.734-57.3242L21.2891-57.3242Z"/>
  </g>
  <g id="Light-L" transform="matrix(1 0 0 1 1066.95 1556)">
   <path class="multicolor-0:systemIndigoColor SFSymbolsPreview5856D6" d="M34.0332 20.6055L139.258 20.6055Q147.461 20.6055 151.88 16.0645Q156.299 11.5234 156.299 2.7832L156.299-62.0605Q156.299-70.8496 151.758-75.3906Q147.217-79.9316 138.33-79.9316L77.1484-79.9316Q73.3887-79.9316 71.0938-80.7373Q68.7988-81.543 66.3086-83.7891L62.793-86.9141Q60.7422-88.7695 58.9355-89.7949Q57.1289-90.8203 54.9561-91.2109Q52.7832-91.6016 49.6094-91.6016L31.6895-91.6016Q24.0723-91.6016 20.0684-87.5Q16.0645-83.3984 16.0645-75.2441L16.0645 2.7832Q16.0645 11.5723 20.6055 16.0889Q25.1465 20.6055 34.0332 20.6055ZM34.2285 14.0137Q28.5645 14.0137 25.6104 11.084Q22.6562 8.1543 22.6562 2.39258L22.6562-74.7559Q22.6562-79.9805 25.2441-82.5195Q27.832-85.0586 32.9102-85.0586L48.0469-85.0586Q50.4883-85.0586 52.2461-84.7168Q54.0039-84.375 55.5176-83.4961Q57.0312-82.6172 58.7891-81.0059L62.3047-77.9297Q64.2578-76.1719 66.0889-75.1709Q67.9199-74.1699 70.1904-73.7305Q72.4609-73.291 75.6348-73.291L138.184-73.291Q143.652-73.291 146.655-70.3857Q149.658-67.4805 149.658-61.7676L149.658 2.44141Q149.658 8.1543 146.655 11.084Q143.652 14.0137 138.184 14.0137ZM20.0195-50L152.49-50L152.49-56.2988L20.0195-56.2988Z"/>
  </g>
  <g id="Thin-L" transform="matrix(1 0 0 1 771.315 1556)">
   <path class="multicolor-0:systemIndigoColor SFSymbolsPreview5856D6" d="M32.666 19.5312L137.744 19.5312Q145.752 19.5312 149.951 15.2588Q154.15 10.9863 154.15 2.92969L154.15-61.9629Q154.15-70.0195 149.927-74.292Q145.703-78.5645 137.549-78.5645L75.9277-78.5645Q71.6797-78.5645 69.3359-79.3213Q66.9922-80.0781 64.3555-82.5684L61.084-85.6445Q59.0332-87.5977 57.3242-88.5986Q55.6152-89.5996 53.5156-89.9414Q51.416-90.2832 48.1934-90.2832L30.3223-90.2832Q23.1934-90.2832 19.6289-86.6943Q16.0645-83.1055 16.0645-75.9277L16.0645 2.92969Q16.0645 11.084 20.2881 15.3076Q24.5117 19.5312 32.666 19.5312ZM32.8125 15.625Q26.5137 15.625 23.2666 12.3779Q20.0195 9.13086 20.0195 2.73438L20.0195-75.4883Q20.0195-81.1035 22.7295-83.8135Q25.4395-86.5234 30.9082-86.5234L47.5098-86.5234Q50.1465-86.5234 52.002-86.1816Q53.8574-85.8398 55.4199-84.9121Q56.9824-83.9844 58.8379-82.2266L62.1094-79.1504Q64.0137-77.3926 65.7471-76.416Q67.4805-75.4395 69.7021-75.0488Q71.9238-74.6582 75.1953-74.6582L137.402-74.6582Q143.457-74.6582 146.826-71.3867Q150.195-68.1152 150.195-61.7676L150.195 2.7832Q150.195 9.13086 146.826 12.3779Q143.457 15.625 137.402 15.625ZM18.3105-51.0742L152.148-51.0742L152.148-54.9316L18.3105-54.9316Z"/>
  </g>
  <g id="Ultralight-L" transform="matrix(1 0 0 1 475.165 1556)">
   <path class="multicolor-0:systemIndigoColor SFSymbolsPreview5856D6" d="M31.9824 18.9941L136.963 18.9941Q144.873 18.9941 148.95 14.8682Q153.027 10.7422 153.027 3.02734L153.027-61.9141Q153.027-69.6289 148.975-73.7549Q144.922-77.8809 137.158-77.8809L75.2441-77.8809Q70.8008-77.8809 68.4082-78.6133Q66.0156-79.3457 63.3789-81.8848L60.2051-84.9609Q58.1543-86.9629 56.4941-87.9639Q54.834-88.9648 52.8076-89.3066Q50.7812-89.6484 47.5098-89.6484L29.6387-89.6484Q22.7539-89.6484 19.4092-86.3037Q16.0645-82.959 16.0645-76.3184L16.0645 3.02734Q16.0645 10.8398 20.1172 14.917Q24.1699 18.9941 31.9824 18.9941ZM32.1289 16.4062Q25.4395 16.4062 22.0215 13.0127Q18.6035 9.61914 18.6035 2.92969L18.6035-75.8789Q18.6035-81.6895 21.3867-84.4727Q24.1699-87.2559 29.8828-87.2559L47.2168-87.2559Q50-87.2559 51.8799-86.9385Q53.7598-86.6211 55.3467-85.6689Q56.9336-84.7168 58.8867-82.8613L62.0117-79.834Q63.8672-78.0762 65.5762-77.0996Q67.2852-76.123 69.4824-75.708Q71.6797-75.293 75-75.293L137.012-75.293Q143.408-75.293 146.948-71.8994Q150.488-68.5059 150.488-61.8164L150.488 2.92969Q150.488 9.61914 146.948 13.0127Q143.408 16.4062 137.012 16.4062ZM17.4316-51.6113L151.953-51.6113L151.953-54.248L17.4316-54.248Z"/>
  </g>
  <g id="Black-M" transform="matrix(1 0 0 1 2862.7 1126)">
   <path class="multicolor-0:systemIndigoColor SFSymbolsPreview5856D6" d="M31.5918 12.5977L109.961 12.5977Q118.896 12.5977 123.926 7.54395Q128.955 2.49023 128.955-6.54297L128.955-57.0801Q128.955-66.1133 123.901-71.167Q118.848-76.2207 109.814-76.2207L70.9473-76.2207Q67.7734-76.2207 65.4541-77.0264Q63.1348-77.832 60.3516-79.8828L58.3496-81.3477Q56.2012-82.9102 54.3701-83.8379Q52.5391-84.7656 50.3418-85.1562Q48.1445-85.5469 44.9707-85.5469L31.5918-85.5469Q22.8516-85.5469 17.6514-80.3955Q12.4512-75.2441 12.4512-66.0645L12.4512-6.54297Q12.4512 2.49023 17.5049 7.54395Q22.5586 12.5977 31.5918 12.5977ZM34.2285-4.73633Q31.9824-4.73633 30.8838-5.76172Q29.7852-6.78711 29.7852-9.22852L29.7852-63.4766Q29.7852-65.6738 31.1523-66.9434Q32.5195-68.2129 34.8145-68.2129L40.1855-68.2129Q43.3594-68.2129 45.6299-67.4316Q47.9004-66.6504 50.7324-64.5508L52.6855-63.0859Q54.8828-61.4746 56.7383-60.5469Q58.5938-59.6191 60.791-59.2285Q62.9883-58.8379 66.1621-58.8379L107.178-58.8379Q109.424-58.8379 110.522-57.8369Q111.621-56.8359 111.621-54.3945L111.621-9.22852Q111.621-6.78711 110.522-5.76172Q109.424-4.73633 107.178-4.73633ZM23.8281-37.9883L118.018-37.9883L118.018-51.2695L23.8281-51.2695Z"/>
  </g>
  <g id="Heavy-M" transform="matrix(1 0 0 1 2566.64 1126)">
   <path class="multicolor-0:systemIndigoColor SFSymbolsPreview5856D6" d="M30.7129 11.7676L109.863 11.7676Q118.213 11.7676 122.925 7.03125Q127.637 2.29492 127.637-6.39648L127.637-56.8848Q127.637-65.5273 122.852-70.2881Q118.066-75.0488 109.375-75.0488L68.6523-75.0488Q65.625-75.0488 63.4521-75.8301Q61.2793-76.6113 58.6914-78.5156L56.4941-80.2246Q54.4434-81.7383 52.6855-82.6416Q50.9277-83.5449 48.8281-83.9111Q46.7285-84.2773 43.75-84.2773L30.2734-84.2773Q22.0703-84.2773 17.2607-79.4922Q12.4512-74.707 12.4512-65.918L12.4512-6.39648Q12.4512 2.29492 17.2119 7.03125Q21.9727 11.7676 30.7129 11.7676ZM32.7148-3.32031Q30.127-3.32031 28.833-4.56543Q27.5391-5.81055 27.5391-8.54492L27.5391-63.8672Q27.5391-66.4062 29.0283-67.7979Q30.5176-69.1895 33.1055-69.1895L39.6484-69.1895Q42.627-69.1895 44.751-68.4326Q46.875-67.6758 49.5117-65.7227L51.709-64.0137Q53.7598-62.4512 55.5176-61.5723Q57.2754-60.6934 59.3994-60.3027Q61.5234-59.9121 64.502-59.9121L107.324-59.9121Q109.912-59.9121 111.23-58.6914Q112.549-57.4707 112.549-54.6875L112.549-8.54492Q112.549-5.81055 111.23-4.56543Q109.912-3.32031 107.324-3.32031ZM22.2656-39.7949L118.115-39.7949L118.115-51.6602L22.2656-51.6602Z"/>
  </g>
  <g id="Bold-M" transform="matrix(1 0 0 1 2270.67 1126)">
   <path class="multicolor-0:systemIndigoColor SFSymbolsPreview5856D6" d="M29.6875 10.8887L109.717 10.8887Q117.48 10.8887 121.826 6.46973Q126.172 2.05078 126.172-6.29883L126.172-56.6406Q126.172-64.8926 121.704-69.3359Q117.236-73.7793 108.936-73.7793L66.0645-73.7793Q63.2324-73.7793 61.2061-74.5117Q59.1797-75.2441 56.8848-77.0508L54.3945-79.0039Q52.4902-80.4688 50.8301-81.3232Q49.1699-82.1777 47.1924-82.5439Q45.2148-82.9102 42.4316-82.9102L28.7598-82.9102Q21.1914-82.9102 16.8213-78.4912Q12.4512-74.0723 12.4512-65.8203L12.4512-6.29883Q12.4512 2.05078 16.8945 6.46973Q21.3379 10.8887 29.6875 10.8887ZM31.0547-1.75781Q28.125-1.75781 26.5869-3.22266Q25.0488-4.6875 25.0488-7.8125L25.0488-64.3066Q25.0488-67.1875 26.6602-68.75Q28.2715-70.3125 31.2012-70.3125L39.0137-70.3125Q41.8457-70.3125 43.8232-69.5801Q45.8008-68.8477 48.1445-67.041L50.5859-65.0391Q52.4902-63.5742 54.1748-62.7197Q55.8594-61.8652 57.8613-61.499Q59.8633-61.1328 62.6465-61.1328L107.52-61.1328Q110.449-61.1328 112.012-59.668Q113.574-58.2031 113.574-55.0781L113.574-7.8125Q113.574-4.6875 112.012-3.22266Q110.449-1.75781 107.52-1.75781ZM20.5566-41.7969L118.262-41.7969L118.262-52.0996L20.5566-52.0996Z"/>
  </g>
  <g id="Semibold-M" transform="matrix(1 0 0 1 1974.47 1126)">
   <path class="multicolor-0:systemIndigoColor SFSymbolsPreview5856D6" d="M29.0039 10.2539L109.619 10.2539Q116.943 10.2539 121.045 6.05469Q125.146 1.85547 125.146-6.15234L125.146-56.4453Q125.146-64.4531 120.898-68.6523Q116.65-72.8516 108.594-72.8516L64.2578-72.8516Q61.5234-72.8516 59.6436-73.5596Q57.7637-74.2676 55.5664-75.9766L52.9297-78.125Q51.123-79.541 49.5361-80.3711Q47.9492-81.2012 46.0205-81.5674Q44.0918-81.9336 41.4551-81.9336L27.7344-81.9336Q20.5566-81.9336 16.5039-77.7832Q12.4512-73.6328 12.4512-65.6738L12.4512-6.15234Q12.4512 1.85547 16.6748 6.05469Q20.8984 10.2539 29.0039 10.2539ZM29.8828-0.634766Q26.709-0.634766 25.0244-2.27051Q23.3398-3.90625 23.3398-7.27539L23.3398-64.5996Q23.3398-67.7246 25.0244-69.4092Q26.709-71.0938 29.834-71.0938L38.5742-71.0938Q41.2598-71.0938 43.1396-70.3613Q45.0195-69.6289 47.168-67.9199L49.8047-65.7715Q51.5625-64.3555 53.1982-63.5254Q54.834-62.6953 56.7627-62.3291Q58.6914-61.9629 61.3281-61.9629L107.666-61.9629Q110.84-61.9629 112.549-60.3271Q114.258-58.6914 114.258-55.2734L114.258-7.27539Q114.258-3.90625 112.549-2.27051Q110.84-0.634766 107.666-0.634766ZM19.3359-43.1641L118.359-43.1641L118.359-52.3926L19.3359-52.3926Z"/>
  </g>
  <g id="Medium-M" transform="matrix(1 0 0 1 1678.15 1126)">
   <path class="multicolor-0:systemIndigoColor SFSymbolsPreview5856D6" d="M28.4668 9.76562L109.57 9.76562Q116.553 9.76562 120.459 5.7373Q124.365 1.70898 124.365-6.10352L124.365-56.2988Q124.365-64.1113 120.288-68.1396Q116.211-72.168 108.35-72.168L62.8906-72.168Q60.3027-72.168 58.4717-72.8516Q56.6406-73.5352 54.6387-75.1953L51.8066-77.4414Q50.0977-78.8574 48.5596-79.6631Q47.0215-80.4688 45.166-80.835Q43.3105-81.2012 40.7715-81.2012L26.9531-81.2012Q20.0684-81.2012 16.2598-77.2705Q12.4512-73.3398 12.4512-65.625L12.4512-6.10352Q12.4512 1.70898 16.5039 5.7373Q20.5566 9.76562 28.4668 9.76562ZM29.0039 0.195312Q25.6348 0.195312 23.8281-1.5625Q22.0215-3.32031 22.0215-6.88477L22.0215-64.7949Q22.0215-68.1641 23.7793-69.9219Q25.5371-71.6797 28.8574-71.6797L38.2812-71.6797Q40.8203-71.6797 42.627-70.9717Q44.4336-70.2637 46.4355-68.6035L49.2188-66.3086Q50.9277-64.9414 52.4902-64.1113Q54.0527-63.2812 55.9326-62.9395Q57.8125-62.5977 60.3516-62.5977L107.715-62.5977Q111.084-62.5977 112.939-60.8154Q114.795-59.0332 114.795-55.4688L114.795-6.88477Q114.795-3.32031 112.939-1.5625Q111.084 0.195312 107.715 0.195312ZM18.4082-44.1895L118.408-44.1895L118.408-52.6367L18.4082-52.6367Z"/>
  </g>
  <g id="Regular-M" transform="matrix(1 0 0 1 1381.95 1126)">
   <path class="multicolor-0:systemIndigoColor SFSymbolsPreview5856D6" d="M27.7832 9.13086L109.473 9.13086Q116.016 9.13086 119.678 5.34668Q123.34 1.5625 123.34-6.00586L123.34-56.1523Q123.34-63.6719 119.482-67.4805Q115.625-71.2891 108.008-71.2891L61.1328-71.2891Q58.6426-71.2891 56.9336-71.9482Q55.2246-72.6074 53.3691-74.1699L50.3906-76.6113Q48.7793-77.9785 47.29-78.7598Q45.8008-79.541 44.0186-79.8828Q42.2363-80.2246 39.8438-80.2246L25.9277-80.2246Q19.4824-80.2246 15.9668-76.5625Q12.4512-72.9004 12.4512-65.5273L12.4512-6.00586Q12.4512 1.5625 16.2842 5.34668Q20.1172 9.13086 27.7832 9.13086ZM27.8809 1.26953Q24.2188 1.26953 22.2656-0.65918Q20.3125-2.58789 20.3125-6.39648L20.3125-65.0879Q20.3125-68.7012 22.168-70.5566Q24.0234-72.4121 27.5391-72.4121L37.8418-72.4121Q40.2832-72.4121 41.9678-71.7285Q43.6523-71.0449 45.5078-69.4824L48.4863-66.9922Q50.0488-65.6738 51.5625-64.8926Q53.0762-64.1113 54.8828-63.7695Q56.6895-63.4277 59.082-63.4277L107.861-63.4277Q111.475-63.4277 113.477-61.4746Q115.479-59.5215 115.479-55.7129L115.479-6.34766Q115.479-2.58789 113.477-0.65918Q111.475 1.26953 107.861 1.26953ZM17.2363-45.5566L118.506-45.5566L118.506-52.9297L17.2363-52.9297Z"/>
  </g>
  <g id="Light-M" transform="matrix(1 0 0 1 1085.97 1126)">
   <path class="multicolor-0:systemIndigoColor SFSymbolsPreview5856D6" d="M26.8555 8.39844L108.447 8.39844Q114.844 8.39844 118.359 4.80957Q121.875 1.2207 121.875-5.85938L121.875-56.1035Q121.875-63.1348 118.237-66.748Q114.6-70.3613 107.471-70.3613L60.2539-70.3613Q57.4707-70.3613 55.7129-70.9961Q53.9551-71.6309 52.0508-73.3398L49.2188-75.7324Q47.6074-77.1484 46.1914-77.9297Q44.7754-78.7109 43.0664-79.0283Q41.3574-79.3457 38.916-79.3457L25-79.3457Q18.8965-79.3457 15.6738-76.0254Q12.4512-72.7051 12.4512-66.0156L12.4512-5.85938Q12.4512 1.2207 16.0645 4.80957Q19.6777 8.39844 26.8555 8.39844ZM26.9531 2.34375Q22.8027 2.34375 20.6543 0.195312Q18.5059-1.95312 18.5059-6.15234L18.5059-65.625Q18.5059-69.4824 20.459-71.4355Q22.4121-73.3887 26.1719-73.3887L37.4512-73.3887Q40.1367-73.3887 41.8457-72.7295Q43.5547-72.0703 45.5566-70.3125L48.3398-67.8711Q49.8535-66.5039 51.3184-65.7471Q52.7832-64.9902 54.5654-64.6484Q56.3477-64.3066 58.7891-64.3066L107.324-64.3066Q111.377-64.3066 113.599-62.1338Q115.82-59.9609 115.82-55.7617L115.82-6.15234Q115.82-1.95312 113.599 0.195312Q111.377 2.34375 107.324 2.34375ZM16.0645-46.2891L118.262-46.2891L118.262-52.002L16.0645-52.002Z"/>
  </g>
  <g id="Thin-M" transform="matrix(1 0 0 1 790.236 1126)">
   <path class="multicolor-0:systemIndigoColor SFSymbolsPreview5856D6" d="M25.5859 7.42188L107.08 7.42188Q113.33 7.42188 116.626 4.07715Q119.922 0.732422 119.922-5.71289L119.922-56.0059Q119.922-62.3535 116.577-65.7227Q113.232-69.0918 106.787-69.0918L59.1309-69.0918Q55.957-69.0918 54.126-69.7021Q52.2949-70.3125 50.293-72.2168L47.7051-74.5605Q46.0938-76.0742 44.7754-76.8311Q43.457-77.5879 41.8213-77.8809Q40.1855-78.1738 37.6465-78.1738L23.8281-78.1738Q18.1641-78.1738 15.3076-75.293Q12.4512-72.4121 12.4512-66.6016L12.4512-5.71289Q12.4512 0.78125 15.7959 4.10156Q19.1406 7.42188 25.5859 7.42188ZM25.7324 3.80859Q20.9961 3.80859 18.5547 1.36719Q16.1133-1.07422 16.1133-5.85938L16.1133-66.2598Q16.1133-70.5078 18.1641-72.583Q20.2148-74.6582 24.3652-74.6582L36.9141-74.6582Q39.9902-74.6582 41.7236-74.0234Q43.457-73.3887 45.5566-71.3867L48.1934-68.9941Q49.6094-67.627 51.001-66.8701Q52.3926-66.1133 54.126-65.7959Q55.8594-65.4785 58.3984-65.4785L106.641-65.4785Q111.23-65.4785 113.77-63.0371Q116.309-60.5957 116.309-55.8105L116.309-5.85938Q116.309-1.07422 113.77 1.36719Q111.23 3.80859 106.641 3.80859ZM14.5508-47.2656L117.969-47.2656L117.969-50.7812L14.5508-50.7812Z"/>
  </g>
  <g id="Ultralight-M" transform="matrix(1 0 0 1 494.013 1126)">
   <path class="multicolor-0:systemIndigoColor SFSymbolsPreview5856D6" d="M24.9512 6.93359L106.396 6.93359Q112.5 6.93359 115.723 3.71094Q118.945 0.488281 118.945-5.61523L118.945-55.957Q118.945-62.0117 115.747-65.2344Q112.549-68.457 106.396-68.457L58.5449-68.457Q55.127-68.457 53.2959-69.0674Q51.4648-69.6777 49.4141-71.6309L46.875-73.9746Q45.3125-75.5371 44.043-76.2939Q42.7734-77.0508 41.1621-77.3193Q39.5508-77.5879 37.0117-77.5879L23.1934-77.5879Q17.7734-77.5879 15.1123-74.9268Q12.4512-72.2656 12.4512-66.9434L12.4512-5.61523Q12.4512 0.585938 15.6494 3.75977Q18.8477 6.93359 24.9512 6.93359ZM25.0977 4.54102Q20.0195 4.54102 17.4316 1.95312Q14.8438-0.634766 14.8438-5.71289L14.8438-66.6504Q14.8438-71.0449 16.9922-73.1934Q19.1406-75.3418 23.4375-75.3418L36.6699-75.3418Q39.8926-75.3418 41.6504-74.707Q43.4082-74.0723 45.6055-71.9238L48.0957-69.5801Q49.5117-68.2129 50.8545-67.4561Q52.1973-66.6992 53.9307-66.4062Q55.6641-66.1133 58.1543-66.1133L106.25-66.1133Q111.133-66.1133 113.843-63.501Q116.553-60.8887 116.553-55.8594L116.553-5.71289Q116.553-0.634766 113.843 1.95312Q111.133 4.54102 106.25 4.54102ZM13.7207-47.8027L117.822-47.8027L117.822-50.1465L13.7207-50.1465Z"/>
  </g>
  <g id="Black-S" transform="matrix(1 0 0 1 2877.83 696)">
   <path class="multicolor-0:systemIndigoColor SFSymbolsPreview5856D6" d="M25 2.44141L86.1328 2.44141Q93.3105 2.44141 97.3389-1.58691Q101.367-5.61523 101.367-12.793L101.367-52.3926Q101.367-59.5703 97.3389-63.5986Q93.3105-67.627 86.1328-67.627L56.25-67.627Q53.7109-67.627 51.8555-68.2617Q50-68.8965 47.7051-70.5566L46.2402-71.6309Q43.6523-73.5352 41.5283-74.2676Q39.4043-75 35.5469-75L25.0977-75Q18.1641-75 13.9648-70.874Q9.76562-66.748 9.76562-59.4727L9.76562-12.793Q9.76562-5.61523 13.7939-1.58691Q17.8223 2.44141 25 2.44141ZM27.2461-11.7188Q25.5859-11.7188 24.7559-12.4756Q23.9258-13.2324 23.9258-15.0391L23.9258-57.2754Q23.9258-58.8867 24.9756-59.8633Q26.0254-60.8398 27.7344-60.8398L31.6406-60.8398Q34.2285-60.8398 36.0352-60.2295Q37.8418-59.6191 40.1367-57.9102L41.6016-56.8359Q44.2383-54.8828 46.3623-54.1748Q48.4863-53.4668 52.3438-53.4668L83.8867-53.4668Q85.5957-53.4668 86.4014-52.7344Q87.207-52.002 87.207-50.1465L87.207-15.0391Q87.207-13.2324 86.4014-12.4756Q85.5957-11.7188 83.8867-11.7188ZM19.0918-36.8652L92.4316-36.8652L92.4316-47.6074L19.0918-47.6074Z"/>
  </g>
  <g id="Heavy-S" transform="matrix(1 0 0 1 2581.61 696)">
   <path class="multicolor-0:systemIndigoColor SFSymbolsPreview5856D6" d="M24.3652 1.85547L86.1816 1.85547Q92.8711 1.85547 96.6309-1.95312Q100.391-5.76172 100.391-12.6953L100.391-52.1973Q100.391-59.1797 96.582-62.9639Q92.7734-66.748 85.8398-66.748L54.3945-66.748Q52.002-66.748 50.2686-67.3584Q48.5352-67.9688 46.4844-69.5312L44.7754-70.8008Q42.334-72.6074 40.2832-73.3154Q38.2324-74.0234 34.6191-74.0234L24.0723-74.0234Q17.5293-74.0234 13.6475-70.166Q9.76562-66.3086 9.76562-59.2773L9.76562-12.6953Q9.76562-5.76172 13.5742-1.95312Q17.3828 1.85547 24.3652 1.85547ZM26.0742-10.6445Q24.1699-10.6445 23.2178-11.5479Q22.2656-12.4512 22.2656-14.502L22.2656-57.5195Q22.2656-59.4238 23.3887-60.498Q24.5117-61.5723 26.4648-61.5723L31.2012-61.5723Q33.5938-61.5723 35.3027-60.9619Q37.0117-60.3516 39.0625-58.7891L40.7715-57.5195Q43.2129-55.6641 45.2881-54.9805Q47.3633-54.2969 50.9277-54.2969L84.082-54.2969Q86.0352-54.2969 86.9873-53.3936Q87.9395-52.4902 87.9395-50.3906L87.9395-14.502Q87.9395-12.4512 86.9873-11.5479Q86.0352-10.6445 84.082-10.6445ZM17.9199-38.3301L92.5781-38.3301L92.5781-48.0469L17.9199-48.0469Z"/>
  </g>
  <g id="Bold-S" transform="matrix(1 0 0 1 2285.41 696)">
   <path class="multicolor-0:systemIndigoColor SFSymbolsPreview5856D6" d="M23.6328 1.17188L86.2305 1.17188Q92.4316 1.17188 95.8984-2.39258Q99.3652-5.95703 99.3652-12.5977L99.3652-52.0508Q99.3652-58.6914 95.8008-62.2314Q92.2363-65.7715 85.498-65.7715L52.2949-65.7715Q50.0977-65.7715 48.5352-66.3574Q46.9727-66.9434 45.1172-68.3594L43.1641-69.873Q40.918-71.582 38.9404-72.2656Q36.9629-72.9492 33.6426-72.9492L22.9492-72.9492Q16.8945-72.9492 13.3301-69.3848Q9.76562-65.8203 9.76562-59.1309L9.76562-12.5977Q9.76562-5.95703 13.3545-2.39258Q16.9434 1.17188 23.6328 1.17188ZM24.8047-9.47266Q22.6562-9.47266 21.5088-10.5469Q20.3613-11.6211 20.3613-13.916L20.3613-57.8613Q20.3613-60.0098 21.6064-61.1816Q22.8516-62.3535 25-62.3535L30.7617-62.3535Q32.959-62.3535 34.4971-61.792Q36.0352-61.2305 37.8906-59.8145L39.8438-58.3008Q42.0898-56.543 44.0918-55.8594Q46.0938-55.1758 49.4141-55.1758L84.3262-55.1758Q86.5234-55.1758 87.6465-54.1016Q88.7695-53.0273 88.7695-50.7324L88.7695-13.8672Q88.7695-11.6211 87.6465-10.5469Q86.5234-9.47266 84.3262-9.47266ZM16.6016-39.9414L92.7246-39.9414L92.7246-48.584L16.6016-48.584Z"/>
  </g>
  <g id="Semibold-S" transform="matrix(1 0 0 1 1989.09 696)">
   <path class="multicolor-0:systemIndigoColor SFSymbolsPreview5856D6" d="M23.0957 0.732422L86.2305 0.732422Q92.0898 0.732422 95.3369-2.66113Q98.584-6.05469 98.584-12.5488L98.584-51.9043Q98.584-58.3496 95.1904-61.7188Q91.7969-65.0879 85.2539-65.0879L50.8301-65.0879Q48.7793-65.0879 47.3145-65.6494Q45.8496-66.2109 44.1406-67.5293L41.9922-69.1895Q39.8926-70.8496 37.9639-71.5332Q36.0352-72.2168 32.9102-72.2168L22.1191-72.2168Q16.4062-72.2168 13.0859-68.8232Q9.76562-65.4297 9.76562-58.9844L9.76562-12.5488Q9.76562-6.05469 13.1836-2.66113Q16.6016 0.732422 23.0957 0.732422ZM23.877-8.64258Q21.5332-8.64258 20.2881-9.81445Q19.043-10.9863 19.043-13.4766L19.043-58.0566Q19.043-60.4004 20.3613-61.6455Q21.6797-62.8906 24.0234-62.8906L30.4199-62.8906Q32.4707-62.8906 33.9355-62.3291Q35.4004-61.7676 37.0605-60.498L39.209-58.7891Q41.3086-57.1289 43.2373-56.4697Q45.166-55.8105 48.291-55.8105L84.4727-55.8105Q86.8164-55.8105 88.0615-54.6143Q89.3066-53.418 89.3066-50.9277L89.3066-13.4277Q89.3066-10.9863 88.0615-9.81445Q86.8164-8.64258 84.4727-8.64258ZM15.6738-41.0156L92.8223-41.0156L92.8223-48.9258L15.6738-48.9258Z"/>
  </g>
  <g id="Medium-S" transform="matrix(1 0 0 1 1692.65 696)">
   <path class="multicolor-0:systemIndigoColor SFSymbolsPreview5856D6" d="M22.7051 0.341797L86.2305 0.341797Q91.8457 0.341797 94.9463-2.90527Q98.0469-6.15234 98.0469-12.4512L98.0469-51.8066Q98.0469-58.1055 94.7754-61.3525Q91.5039-64.5996 85.1074-64.5996L49.707-64.5996Q47.8027-64.5996 46.3867-65.1367Q44.9707-65.6738 43.4082-66.8945L41.1621-68.7012Q39.1113-70.3125 37.2314-70.9717Q35.3516-71.6309 32.373-71.6309L21.5332-71.6309Q16.0645-71.6309 12.915-68.4082Q9.76562-65.1855 9.76562-58.8867L9.76562-12.4512Q9.76562-6.15234 13.0615-2.90527Q16.3574 0.341797 22.7051 0.341797ZM23.1934-8.00781Q20.752-8.00781 19.4092-9.27734Q18.0664-10.5469 18.0664-13.1348L18.0664-58.2031Q18.0664-60.6934 19.4336-62.0117Q20.8008-63.3301 23.2422-63.3301L30.1758-63.3301Q32.1289-63.3301 33.4961-62.7686Q34.8633-62.207 36.4746-60.9863L38.7207-59.1797Q40.7227-57.5684 42.627-56.9092Q44.5312-56.25 47.5098-56.25L84.6191-56.25Q87.0605-56.25 88.4033-54.9561Q89.7461-53.6621 89.7461-51.0742L89.7461-13.1348Q89.7461-10.5469 88.4033-9.27734Q87.0605-8.00781 84.6191-8.00781ZM14.9902-41.8945L92.8711-41.8945L92.8711-49.2188L14.9902-49.2188Z"/>
  </g>
  <g id="Regular-S" transform="matrix(1 0 0 1 1396.3 696)">
   <path class="multicolor-0:systemIndigoColor SFSymbolsPreview5856D6" d="M22.2168-0.0976562L86.2793-0.0976562Q91.5039-0.0976562 94.4092-3.17383Q97.3145-6.25 97.3145-12.4023L97.3145-51.6602Q97.3145-57.8125 94.2139-60.8643Q91.1133-63.916 84.8633-63.916L48.291-63.916Q46.4844-63.916 45.1904-64.4531Q43.8965-64.9902 42.4805-66.1133L40.0391-68.0664Q38.1348-69.6289 36.3037-70.2637Q34.4727-70.8984 31.6895-70.8984L20.752-70.8984Q15.5762-70.8984 12.6709-67.8711Q9.76562-64.8438 9.76562-58.7402L9.76562-12.4023Q9.76562-6.25 12.8906-3.17383Q16.0156-0.0976562 22.2168-0.0976562ZM22.3145-7.17773Q19.6777-7.17773 18.2373-8.56934Q16.7969-9.96094 16.7969-12.7441L16.7969-58.3984Q16.7969-61.084 18.2129-62.4756Q19.6289-63.8672 22.2656-63.8672L29.834-63.8672Q31.6406-63.8672 32.9346-63.3301Q34.2285-62.793 35.6445-61.6699L38.0859-59.7168Q39.9414-58.1543 41.7969-57.5195Q43.6523-56.8848 46.4355-56.8848L84.7656-56.8848Q87.4023-56.8848 88.8428-55.4688Q90.2832-54.0527 90.2832-51.2695L90.2832-12.6953Q90.2832-9.96094 88.8428-8.56934Q87.4023-7.17773 84.7656-7.17773ZM14.0625-42.9688L92.9688-42.9688L92.9688-49.5605L14.0625-49.5605Z"/>
  </g>
  <g id="Light-S" transform="matrix(1 0 0 1 1100.23 696)">
   <path class="multicolor-0:systemIndigoColor SFSymbolsPreview5856D6" d="M21.3867-0.732422L85.3516-0.732422Q90.4785-0.732422 93.2617-3.66211Q96.0449-6.5918 96.0449-12.3047L96.0449-51.6113Q96.0449-57.3242 93.1152-60.2051Q90.1855-63.0859 84.375-63.0859L47.5586-63.0859Q45.459-63.0859 44.1162-63.5986Q42.7734-64.1113 41.3086-65.3809L39.0137-67.2852Q37.1094-68.9453 35.4004-69.5312Q33.6914-70.1172 30.8594-70.1172L19.9707-70.1172Q15.0391-70.1172 12.4023-67.3828Q9.76562-64.6484 9.76562-59.1797L9.76562-12.3047Q9.76562-6.54297 12.6953-3.6377Q15.625-0.732422 21.3867-0.732422ZM21.4844-6.20117Q18.457-6.20117 16.8213-7.78809Q15.1855-9.375 15.1855-12.5488L15.1855-58.8379Q15.1855-61.7676 16.6748-63.2568Q18.1641-64.7461 21.0449-64.7461L29.4922-64.7461Q31.543-64.7461 32.8613-64.209Q34.1797-63.6719 35.6934-62.4023L37.9883-60.4492Q39.7461-58.8867 41.5283-58.2764Q43.3105-57.666 46.1914-57.666L84.2773-57.666Q87.3047-57.666 88.9648-56.0547Q90.625-54.4434 90.625-51.3184L90.625-12.5Q90.625-9.375 88.9648-7.78809Q87.3047-6.20117 84.2773-6.20117ZM13.0371-43.6035L92.7734-43.6035L92.7734-48.7305L13.0371-48.7305Z"/>
  </g>
  <g id="Thin-S" transform="matrix(1 0 0 1 804.371 696)">
   <path class="multicolor-0:systemIndigoColor SFSymbolsPreview5856D6" d="M20.3125-1.61133L84.1797-1.61133Q89.1113-1.61133 91.7236-4.29688Q94.3359-6.98242 94.3359-12.1094L94.3359-51.5137Q94.3359-56.6406 91.6748-59.3262Q89.0137-62.0117 83.7891-62.0117L46.5332-62.0117Q44.1406-62.0117 42.7246-62.4756Q41.3086-62.9395 39.7461-64.4043L37.6953-66.2598Q35.791-68.0176 34.2285-68.5547Q32.666-69.0918 29.7363-69.0918L18.8965-69.0918Q14.4043-69.0918 12.085-66.748Q9.76562-64.4043 9.76562-59.7168L9.76562-12.1094Q9.76562-6.93359 12.4268-4.27246Q15.0879-1.61133 20.3125-1.61133ZM20.4102-4.93164Q16.7969-4.93164 14.9414-6.78711Q13.0859-8.64258 13.0859-12.3047L13.0859-59.4727Q13.0859-62.6465 14.6729-64.2578Q16.2598-65.8691 19.4336-65.8691L29.0527-65.8691Q31.3477-65.8691 32.7148-65.3564Q34.082-64.8438 35.6934-63.3789L37.793-61.4746Q39.502-59.8633 41.1865-59.2773Q42.8711-58.6914 45.8496-58.6914L83.6914-58.6914Q87.207-58.6914 89.1113-56.8359Q91.0156-54.9805 91.0156-51.3184L91.0156-12.2559Q91.0156-8.64258 89.1113-6.78711Q87.207-4.93164 83.6914-4.93164ZM11.7188-44.4824L92.5293-44.4824L92.5293-47.6562L11.7188-47.6562Z"/>
  </g>
  <g id="Ultralight-S" transform="matrix(1 0 0 1 508.1 696)">
   <path class="multicolor-0:systemIndigoColor SFSymbolsPreview5856D6" d="M19.7754-2.05078L83.5449-2.05078Q88.4277-2.05078 90.9424-4.63867Q93.457-7.22656 93.457-12.0605L93.457-51.4648Q93.457-56.2988 90.918-58.8867Q88.3789-61.4746 83.4473-61.4746L46.0449-61.4746Q43.457-61.4746 41.9922-61.9141Q40.5273-62.3535 38.916-63.8672L37.0117-65.7715Q35.1074-67.5293 33.6426-68.0664Q32.1777-68.6035 29.1992-68.6035L18.3594-68.6035Q14.0137-68.6035 11.8896-66.4551Q9.76562-64.3066 9.76562-60.0098L9.76562-12.0605Q9.76562-7.12891 12.3047-4.58984Q14.8438-2.05078 19.7754-2.05078ZM19.873-4.24805Q15.9668-4.24805 13.9648-6.25Q11.9629-8.25195 11.9629-12.1582L11.9629-59.7656Q11.9629-63.1348 13.623-64.7949Q15.2832-66.4551 18.6523-66.4551L28.8574-66.4551Q31.2988-66.4551 32.666-65.9668Q34.0332-65.4785 35.7422-63.8672L37.7441-61.9629Q39.4043-60.4004 41.04-59.8145Q42.6758-59.2285 45.6543-59.2285L83.3496-59.2285Q87.1094-59.2285 89.1846-57.251Q91.2598-55.2734 91.2598-51.3672L91.2598-12.1582Q91.2598-8.25195 89.1846-6.25Q87.1094-4.24805 83.3496-4.24805ZM11.0352-44.9219L92.3828-44.9219L92.3828-47.1191L11.0352-47.1191Z"/>
  </g>
 </g>
</svg>
