<?xml version="1.0" encoding="UTF-8"?>
<svg width="25px" height="29px" viewBox="0 0 25 29" version="1.1" xmlns="http://www.w3.org/2000/svg" xmlns:xlink="http://www.w3.org/1999/xlink">
    <!-- Generator: Sketch 53.2 (72643) - https://sketchapp.com -->
    <title>lightTrash</title>
    <desc>Created with Sketch.</desc>
    <defs>
        <filter x="-19.0%" y="-16.0%" width="138.1%" height="132.0%" filterUnits="objectBoundingBox" id="filter-1">
            <feOffset dx="0" dy="0" in="SourceAlpha" result="shadowOffsetOuter1"></feOffset>
            <feGaussianBlur stdDeviation="1" in="shadowOffsetOuter1" result="shadowBlurOuter1"></feGaussianBlur>
            <feColorMatrix values="0 0 0 0 0   0 0 0 0 0   0 0 0 0 0  0 0 0 0.1 0" type="matrix" in="shadowBlurOuter1" result="shadowMatrixOuter1"></feColorMatrix>
            <feMerge>
                <feMergeNode in="shadowMatrixOuter1"></feMergeNode>
                <feMergeNode in="SourceGraphic"></feMergeNode>
            </feMerge>
        </filter>
        <filter x="-19.0%" y="-16.0%" width="138.1%" height="132.0%" filterUnits="objectBoundingBox" id="filter-2">
            <feOffset dx="0" dy="0" in="SourceAlpha" result="shadowOffsetOuter1"></feOffset>
            <feGaussianBlur stdDeviation="1" in="shadowOffsetOuter1" result="shadowBlurOuter1"></feGaussianBlur>
            <feColorMatrix values="0 0 0 0 0   0 0 0 0 0   0 0 0 0 0  0 0 0 0.1 0" type="matrix" in="shadowBlurOuter1" result="shadowMatrixOuter1"></feColorMatrix>
            <feMerge>
                <feMergeNode in="shadowMatrixOuter1"></feMergeNode>
                <feMergeNode in="SourceGraphic"></feMergeNode>
            </feMerge>
        </filter>
    </defs>
    <g id="budget-tracker" stroke="none" stroke-width="1" fill="none" fill-rule="evenodd">
        <g id="Artboard-Copy-6" transform="translate(-368.000000, -319.000000)">
            <g id="lightTrash" transform="translate(370.000000, 321.000000)">
                <g id="delete1-copy-3" filter="url(#filter-1)" fill="#C2C2C2" fill-rule="nonzero">
                    <path d="M13.7508393,2.87971494 L13.7508393,1.3692856 C13.7508393,0.614356982 13.1370544,0 12.3823166,0 L8.13388823,0 C7.37934111,0 6.76536563,0.614356982 6.76536563,1.3692856 L6.76536563,2.87971494 L1.86405181,7.21855166 L3.13396455,22.9219437 C3.22837832,24.087143 4.21714785,25 5.38539888,25 L15.3884888,25 C16.5565491,25 17.5455093,24.087143 17.6397324,22.9217529 L18.9096451,7.21855166 L13.7508393,2.87971494 Z M8.93764497,1.46484375 L11.5785599,1.46484375 C11.9692658,1.46484375 12.2859955,1.78157345 12.2859955,2.17227935 L12.2859955,2.17227935 C12.2859955,2.56298524 11.9692658,2.87971494 11.5785599,2.87971494 L8.93764497,2.87971494 C8.54693908,2.87971494 8.23020938,2.56298524 8.23020938,2.17227935 L8.23020938,2.17227935 C8.23020938,1.78157345 8.54693908,1.46484375 8.93764497,1.46484375 Z M16.179657,22.803688 C16.1464691,23.2139587 15.7989502,23.5351562 15.3884888,23.5351562 L5.38539888,23.5351562 C4.97493745,23.5351562 4.62741851,23.2139587 4.59423066,22.803688 L3.33366396,7.21855166 L17.440033,7.21855166 L16.179657,22.803688 Z M1.90621314,5.0491333 L1.90621314,5.0491333 C1.90621314,4.66000749 2.22166193,4.34455869 2.61078774,4.34455869 L18.078022,4.34455869 C18.4788564,4.34455869 18.8136618,4.64998362 18.8503734,5.0491333 L18.8503734,5.0491333 C18.8830224,5.40411184 18.6217227,5.71834604 18.2667442,5.75099504 C18.2470906,5.75280267 18.2273644,5.75370791 18.2076279,5.75370791 L2.61078774,5.75370791 C2.22166193,5.75370791 1.90621314,5.43825911 1.90621314,5.0491333 Z" id="Shape"></path>
                    <path d="M13.8435364,22.6318083 C13.43956,22.6108275 13.1292343,22.2661696 13.1502151,21.8621931 L13.8378144,8.65914434 C13.8589859,8.25516792 14.2024994,7.94427007 14.6074295,7.96582309 C15.0112152,7.98680395 15.3217315,8.33146187 15.3007507,8.73543829 L14.6129608,21.9384871 C14.5927429,22.3294936 14.2692566,22.632762 13.8822556,22.632762 C13.8692856,22.632762 13.8565063,22.6325713 13.8435364,22.6318083 Z M2.2,2.88 L18.8,2.88 C20.0150264,2.88 21,3.86497355 21,5.08 C21,6.29502645 20.0150264,7.28 18.8,7.28 L2.2,7.28 C0.98497355,7.28 5.98781053e-13,6.29502645 5.98632255e-13,5.08 C5.98483457e-13,3.86497355 0.98497355,2.88 2.2,2.88 Z" id="Path-2"></path>
                    <path d="M5.93585967,22.0602036 C5.95722197,22.4506378 6.28032686,22.7527618 6.66656494,22.7527618 C6.67991641,22.7527618 6.69364932,22.7523804 6.70719146,22.7516174 C7.11097715,22.7296829 7.42053984,22.3844528 7.39860537,21.9804764 L6.67819976,8.77742769 C6.65626523,8.37345122 6.31103516,8.06388857 5.90705869,8.08601377 C5.503273,8.10794829 5.19371035,8.45317842 5.21564482,8.85715483 L5.93585967,22.0602036 Z" id="Path"></path>
                    <path d="M10.266304,22.7527618 C10.6708526,22.7527618 10.9987259,22.4248886 10.9987259,22.0203399 L10.9987259,8.81729126 C10.9987259,8.41274263 10.6708526,8.08486938 10.266304,8.08486938 C9.86175537,8.08486938 9.53388213,8.41274263 9.53388213,8.81729126 L9.53388213,22.0203399 C9.53388213,22.4248886 9.86175537,22.7527618 10.266304,22.7527618 Z" id="Path"></path>
                </g>
                <g id="delete1-copy-4" filter="url(#filter-2)" fill="#C2C2C2" fill-rule="nonzero">
                    <path d="M13.7508393,2.87971494 L13.7508393,1.3692856 C13.7508393,0.614356982 13.1370544,0 12.3823166,0 L8.13388823,0 C7.37934111,0 6.76536563,0.614356982 6.76536563,1.3692856 L6.76536563,2.87971494 L1.86405181,7.21855166 L3.13396455,22.9219437 C3.22837832,24.087143 4.21714785,25 5.38539888,25 L15.3884888,25 C16.5565491,25 17.5455093,24.087143 17.6397324,22.9217529 L18.9096451,7.21855166 L13.7508393,2.87971494 Z M8.93764497,1.46484375 L11.5785599,1.46484375 C11.9692658,1.46484375 12.2859955,1.78157345 12.2859955,2.17227935 L12.2859955,2.17227935 C12.2859955,2.56298524 11.9692658,2.87971494 11.5785599,2.87971494 L8.93764497,2.87971494 C8.54693908,2.87971494 8.23020938,2.56298524 8.23020938,2.17227935 L8.23020938,2.17227935 C8.23020938,1.78157345 8.54693908,1.46484375 8.93764497,1.46484375 Z M16.179657,22.803688 C16.1464691,23.2139587 15.7989502,23.5351562 15.3884888,23.5351562 L5.38539888,23.5351562 C4.97493745,23.5351562 4.62741851,23.2139587 4.59423066,22.803688 L3.33366396,7.21855166 L17.440033,7.21855166 L16.179657,22.803688 Z M1.90621314,5.0491333 L1.90621314,5.0491333 C1.90621314,4.66000749 2.22166193,4.34455869 2.61078774,4.34455869 L18.078022,4.34455869 C18.4788564,4.34455869 18.8136618,4.64998362 18.8503734,5.0491333 L18.8503734,5.0491333 C18.8830224,5.40411184 18.6217227,5.71834604 18.2667442,5.75099504 C18.2470906,5.75280267 18.2273644,5.75370791 18.2076279,5.75370791 L2.61078774,5.75370791 C2.22166193,5.75370791 1.90621314,5.43825911 1.90621314,5.0491333 Z" id="Shape"></path>
                    <path d="M13.8435364,22.6318083 C13.43956,22.6108275 13.1292343,22.2661696 13.1502151,21.8621931 L13.8378144,8.65914434 C13.8589859,8.25516792 14.2024994,7.94427007 14.6074295,7.96582309 C15.0112152,7.98680395 15.3217315,8.33146187 15.3007507,8.73543829 L14.6129608,21.9384871 C14.5927429,22.3294936 14.2692566,22.632762 13.8822556,22.632762 C13.8692856,22.632762 13.8565063,22.6325713 13.8435364,22.6318083 Z M2.2,2.88 L18.8,2.88 C20.0150264,2.88 21,3.86497355 21,5.08 C21,6.29502645 20.0150264,7.28 18.8,7.28 L2.2,7.28 C0.98497355,7.28 5.98781053e-13,6.29502645 5.98632255e-13,5.08 C5.98483457e-13,3.86497355 0.98497355,2.88 2.2,2.88 Z" id="Path-2"></path>
                    <path d="M5.93585967,22.0602036 C5.95722197,22.4506378 6.28032686,22.7527618 6.66656494,22.7527618 C6.67991641,22.7527618 6.69364932,22.7523804 6.70719146,22.7516174 C7.11097715,22.7296829 7.42053984,22.3844528 7.39860537,21.9804764 L6.67819976,8.77742769 C6.65626523,8.37345122 6.31103516,8.06388857 5.90705869,8.08601377 C5.503273,8.10794829 5.19371035,8.45317842 5.21564482,8.85715483 L5.93585967,22.0602036 Z" id="Path"></path>
                    <path d="M10.266304,22.7527618 C10.6708526,22.7527618 10.9987259,22.4248886 10.9987259,22.0203399 L10.9987259,8.81729126 C10.9987259,8.41274263 10.6708526,8.08486938 10.266304,8.08486938 C9.86175537,8.08486938 9.53388213,8.41274263 9.53388213,8.81729126 L9.53388213,22.0203399 C9.53388213,22.4248886 9.86175537,22.7527618 10.266304,22.7527618 Z" id="Path"></path>
                </g>
                <rect id="Rectangle" fill="#CCCCCC" x="1.4" y="4.28" width="18.2" height="1.41" rx="0.705"></rect>
            </g>
        </g>
    </g>
</svg>