<?xml version="1.0" encoding="UTF-8"?>
<!--Generator: Apple Native CoreSVG 175-->
<!DOCTYPE svg
PUBLIC "-//W3C//DTD SVG 1.1//EN"
       "http://www.w3.org/Graphics/SVG/1.1/DTD/svg11.dtd">
<svg version="1.1" xmlns="http://www.w3.org/2000/svg" xmlns:xlink="http://www.w3.org/1999/xlink" width="3300" height="2200">
 <!--glyph: "uni10064B.medium", point size: 100.0, font version: "17.0d11e1", template writer version: "65.1"-->
 <g id="Notes">
  <rect height="2200" id="artboard" style="fill:white;opacity:1" width="3300" x="0" y="0"/>
  <line style="fill:none;stroke:black;opacity:1;stroke-width:0.5;" x1="263" x2="3036" y1="292" y2="292"/>
  <text style="stroke:none;fill:black;font-family:sans-serif;font-size:13;font-weight:bold;" transform="matrix(1 0 0 1 263 322)">Weight/Scale Variations</text>
  <text style="stroke:none;fill:black;font-family:sans-serif;font-size:13;text-anchor:middle;" transform="matrix(1 0 0 1 559.711 322)">Ultralight</text>
  <text style="stroke:none;fill:black;font-family:sans-serif;font-size:13;text-anchor:middle;" transform="matrix(1 0 0 1 856.422 322)">Thin</text>
  <text style="stroke:none;fill:black;font-family:sans-serif;font-size:13;text-anchor:middle;" transform="matrix(1 0 0 1 1153.13 322)">Light</text>
  <text style="stroke:none;fill:black;font-family:sans-serif;font-size:13;text-anchor:middle;" transform="matrix(1 0 0 1 1449.84 322)">Regular</text>
  <text style="stroke:none;fill:black;font-family:sans-serif;font-size:13;text-anchor:middle;" transform="matrix(1 0 0 1 1746.56 322)">Medium</text>
  <text style="stroke:none;fill:black;font-family:sans-serif;font-size:13;text-anchor:middle;" transform="matrix(1 0 0 1 2043.27 322)">Semibold</text>
  <text style="stroke:none;fill:black;font-family:sans-serif;font-size:13;text-anchor:middle;" transform="matrix(1 0 0 1 2339.98 322)">Bold</text>
  <text style="stroke:none;fill:black;font-family:sans-serif;font-size:13;text-anchor:middle;" transform="matrix(1 0 0 1 2636.69 322)">Heavy</text>
  <text style="stroke:none;fill:black;font-family:sans-serif;font-size:13;text-anchor:middle;" transform="matrix(1 0 0 1 2933.4 322)">Black</text>
  <line style="fill:none;stroke:black;opacity:1;stroke-width:0.5;" x1="263" x2="3036" y1="1903" y2="1903"/>
  <g transform="matrix(1 0 0 1 263 1933)">
   <path d="M9.24805 0.830078Q10.8691 0.830078 12.2949 0.214844Q13.7207-0.400391 14.8096-1.49414Q15.8984-2.58789 16.5186-4.01367Q17.1387-5.43945 17.1387-7.05078Q17.1387-8.66211 16.5186-10.0879Q15.8984-11.5137 14.8047-12.6074Q13.7109-13.7012 12.2852-14.3164Q10.8594-14.9316 9.23828-14.9316Q7.62695-14.9316 6.20117-14.3164Q4.77539-13.7012 3.69141-12.6074Q2.60742-11.5137 1.9873-10.0879Q1.36719-8.66211 1.36719-7.05078Q1.36719-5.43945 1.9873-4.01367Q2.60742-2.58789 3.69629-1.49414Q4.78516-0.400391 6.21094 0.214844Q7.63672 0.830078 9.24805 0.830078ZM9.24805-0.654297Q7.91992-0.654297 6.7627-1.14746Q5.60547-1.64062 4.73145-2.51953Q3.85742-3.39844 3.36426-4.56055Q2.87109-5.72266 2.87109-7.05078Q2.87109-8.37891 3.35938-9.54102Q3.84766-10.7031 4.72168-11.582Q5.5957-12.4609 6.75293-12.9541Q7.91016-13.4473 9.23828-13.4473Q10.5762-13.4473 11.7334-12.9541Q12.8906-12.4609 13.7695-11.582Q14.6484-10.7031 15.1465-9.54102Q15.6445-8.37891 15.6445-7.05078Q15.6445-5.72266 15.1514-4.56055Q14.6582-3.39844 13.7842-2.51953Q12.9102-1.64062 11.748-1.14746Q10.5859-0.654297 9.24805-0.654297ZM5.6543-7.05078Q5.6543-6.72852 5.85938-6.52832Q6.06445-6.32812 6.40625-6.32812L8.51562-6.32812L8.51562-4.20898Q8.51562-3.88672 8.71094-3.67676Q8.90625-3.4668 9.23828-3.4668Q9.56055-3.4668 9.77051-3.67676Q9.98047-3.88672 9.98047-4.20898L9.98047-6.32812L12.0898-6.32812Q12.4219-6.32812 12.627-6.52832Q12.832-6.72852 12.832-7.05078Q12.832-7.38281 12.627-7.58789Q12.4219-7.79297 12.0898-7.79297L9.98047-7.79297L9.98047-9.90234Q9.98047-10.2344 9.77051-10.4443Q9.56055-10.6543 9.23828-10.6543Q8.90625-10.6543 8.71094-10.4443Q8.51562-10.2344 8.51562-9.90234L8.51562-7.79297L6.40625-7.79297Q6.06445-7.79297 5.85938-7.58789Q5.6543-7.38281 5.6543-7.05078Z"/>
  </g>
  <g transform="matrix(1 0 0 1 281.867 1933)">
   <path d="M11.709 2.91016Q13.75 2.91016 15.5518 2.12891Q17.3535 1.34766 18.7305-0.0292969Q20.1074-1.40625 20.8887-3.20801Q21.6699-5.00977 21.6699-7.05078Q21.6699-9.0918 20.8887-10.8936Q20.1074-12.6953 18.7305-14.0723Q17.3535-15.4492 15.5469-16.2305Q13.7402-17.0117 11.6992-17.0117Q9.6582-17.0117 7.85645-16.2305Q6.05469-15.4492 4.68262-14.0723Q3.31055-12.6953 2.5293-10.8936Q1.74805-9.0918 1.74805-7.05078Q1.74805-5.00977 2.5293-3.20801Q3.31055-1.40625 4.6875-0.0292969Q6.06445 1.34766 7.86621 2.12891Q9.66797 2.91016 11.709 2.91016ZM11.709 1.25Q9.98047 1.25 8.47656 0.605469Q6.97266-0.0390625 5.83496-1.17676Q4.69727-2.31445 4.05762-3.81836Q3.41797-5.32227 3.41797-7.05078Q3.41797-8.7793 4.05762-10.2832Q4.69727-11.7871 5.83008-12.9297Q6.96289-14.0723 8.4668-14.7119Q9.9707-15.3516 11.6992-15.3516Q13.4277-15.3516 14.9316-14.7119Q16.4355-14.0723 17.5781-12.9297Q18.7207-11.7871 19.3652-10.2832Q20.0098-8.7793 20.0098-7.05078Q20.0098-5.32227 19.3701-3.81836Q18.7305-2.31445 17.5928-1.17676Q16.4551-0.0390625 14.9463 0.605469Q13.4375 1.25 11.709 1.25ZM7.17773-7.05078Q7.17773-6.69922 7.41211-6.47461Q7.64648-6.25 8.01758-6.25L10.8887-6.25L10.8887-3.36914Q10.8887-2.99805 11.1133-2.76855Q11.3379-2.53906 11.6895-2.53906Q12.0605-2.53906 12.29-2.76855Q12.5195-2.99805 12.5195-3.36914L12.5195-6.25L15.4004-6.25Q15.7715-6.25 16.001-6.47461Q16.2305-6.69922 16.2305-7.05078Q16.2305-7.42188 16.001-7.65137Q15.7715-7.88086 15.4004-7.88086L12.5195-7.88086L12.5195-10.752Q12.5195-11.1328 12.29-11.3623Q12.0605-11.5918 11.6895-11.5918Q11.3379-11.5918 11.1133-11.3574Q10.8887-11.123 10.8887-10.752L10.8887-7.88086L8.01758-7.88086Q7.63672-7.88086 7.40723-7.65137Q7.17773-7.42188 7.17773-7.05078Z"/>
  </g>
  <g transform="matrix(1 0 0 1 305.646 1933)">
   <path d="M14.9707 5.66406Q17.0605 5.66406 18.96 5.01465Q20.8594 4.36523 22.4512 3.19336Q24.043 2.02148 25.2197 0.429688Q26.3965-1.16211 27.0459-3.06641Q27.6953-4.9707 27.6953-7.05078Q27.6953-9.14062 27.0459-11.04Q26.3965-12.9395 25.2197-14.5312Q24.043-16.123 22.4512-17.2998Q20.8594-18.4766 18.9551-19.126Q17.0508-19.7754 14.9609-19.7754Q12.8711-19.7754 10.9717-19.126Q9.07227-18.4766 7.48535-17.2998Q5.89844-16.123 4.72168-14.5312Q3.54492-12.9395 2.90039-11.04Q2.25586-9.14062 2.25586-7.05078Q2.25586-4.9707 2.90527-3.06641Q3.55469-1.16211 4.72656 0.429688Q5.89844 2.02148 7.49023 3.19336Q9.08203 4.36523 10.9814 5.01465Q12.8809 5.66406 14.9707 5.66406ZM14.9707 3.84766Q13.1641 3.84766 11.5283 3.2959Q9.89258 2.74414 8.53516 1.74805Q7.17773 0.751953 6.17676-0.610352Q5.17578-1.97266 4.62891-3.6084Q4.08203-5.24414 4.08203-7.05078Q4.08203-8.86719 4.62891-10.5029Q5.17578-12.1387 6.17188-13.501Q7.16797-14.8633 8.52539-15.8594Q9.88281-16.8555 11.5186-17.4023Q13.1543-17.9492 14.9609-17.9492Q16.7773-17.9492 18.4131-17.4023Q20.0488-16.8555 21.4111-15.8594Q22.7734-14.8633 23.7695-13.501Q24.7656-12.1387 25.3174-10.5029Q25.8691-8.86719 25.8691-7.05078Q25.8789-5.24414 25.332-3.6084Q24.7852-1.97266 23.7842-0.610352Q22.7832 0.751953 21.4209 1.74805Q20.0586 2.74414 18.4229 3.2959Q16.7871 3.84766 14.9707 3.84766ZM9.19922-7.05078Q9.19922-6.66992 9.45801-6.4209Q9.7168-6.17188 10.1172-6.17188L14.0625-6.17188L14.0625-2.2168Q14.0625-1.81641 14.3115-1.55762Q14.5605-1.29883 14.9512-1.29883Q15.3516-1.29883 15.6104-1.55273Q15.8691-1.80664 15.8691-2.2168L15.8691-6.17188L19.8242-6.17188Q20.2246-6.17188 20.4785-6.4209Q20.7324-6.66992 20.7324-7.05078Q20.7324-7.46094 20.4785-7.71484Q20.2246-7.96875 19.8242-7.96875L15.8691-7.96875L15.8691-11.9141Q15.8691-12.3242 15.6104-12.583Q15.3516-12.8418 14.9512-12.8418Q14.5605-12.8418 14.3115-12.583Q14.0625-12.3242 14.0625-11.9141L14.0625-7.96875L10.1172-7.96875Q9.70703-7.96875 9.45312-7.71484Q9.19922-7.46094 9.19922-7.05078Z"/>
  </g>
  <text style="stroke:none;fill:black;font-family:sans-serif;font-size:13;font-weight:bold;" transform="matrix(1 0 0 1 263 1953)">Design Variations</text>
  <text style="stroke:none;fill:black;font-family:sans-serif;font-size:13;" transform="matrix(1 0 0 1 263 1971)">Symbols are supported in up to nine weights and three scales.</text>
  <text style="stroke:none;fill:black;font-family:sans-serif;font-size:13;" transform="matrix(1 0 0 1 263 1989)">For optimal layout with text and other symbols, vertically align</text>
  <text style="stroke:none;fill:black;font-family:sans-serif;font-size:13;" transform="matrix(1 0 0 1 263 2007)">symbols with the adjacent text.</text>
  <line style="fill:none;stroke:#00AEEF;stroke-width:0.5;opacity:1.0;" x1="776" x2="776" y1="1919" y2="1933"/>
  <g transform="matrix(1 0 0 1 776 1933)">
   <path d="M3.31055 0.15625Q3.70117 0.15625 3.91602-0.00976562Q4.13086-0.175781 4.26758-0.585938L5.52734-4.0332L11.2891-4.0332L12.5488-0.585938Q12.6855-0.175781 12.9004-0.00976562Q13.1152 0.15625 13.4961 0.15625Q13.8867 0.15625 14.1162-0.0585938Q14.3457-0.273438 14.3457-0.644531Q14.3457-0.869141 14.2383-1.17188L9.6582-13.3691Q9.48242-13.8184 9.17969-14.043Q8.87695-14.2676 8.4082-14.2676Q7.5-14.2676 7.17773-13.3789L2.59766-1.16211Q2.49023-0.859375 2.49023-0.634766Q2.49023-0.263672 2.70996-0.0537109Q2.92969 0.15625 3.31055 0.15625ZM6.00586-5.51758L8.37891-12.0898L8.42773-12.0898L10.8008-5.51758Z"/>
  </g>
  <line style="fill:none;stroke:#00AEEF;stroke-width:0.5;opacity:1.0;" x1="793.197" x2="793.197" y1="1919" y2="1933"/>
  <text style="stroke:none;fill:black;font-family:sans-serif;font-size:13;font-weight:bold;" transform="matrix(1 0 0 1 776 1953)">Margins</text>
  <text style="stroke:none;fill:black;font-family:sans-serif;font-size:13;" transform="matrix(1 0 0 1 776 1971)">Leading and trailing margins on the left and right side of each symbol</text>
  <text style="stroke:none;fill:black;font-family:sans-serif;font-size:13;" transform="matrix(1 0 0 1 776 1989)">can be adjusted by modifying the x-location of the margin guidelines.</text>
  <text style="stroke:none;fill:black;font-family:sans-serif;font-size:13;" transform="matrix(1 0 0 1 776 2007)">Modifications are automatically applied proportionally to all</text>
  <text style="stroke:none;fill:black;font-family:sans-serif;font-size:13;" transform="matrix(1 0 0 1 776 2025)">scales and weights.</text>
  <g transform="matrix(1 0 0 1 1289 1933)">
   <path d="M2.8418 1.86523L4.54102 3.57422Q5.18555 4.22852 5.90332 4.17969Q6.62109 4.13086 7.31445 3.35938L18.0078-8.42773L17.041-9.4043L6.42578 2.27539Q6.16211 2.57812 5.89355 2.61719Q5.625 2.65625 5.27344 2.30469L4.10156 1.14258Q3.75 0.791016 3.79395 0.522461Q3.83789 0.253906 4.14062-0.0195312L15.6152-10.8203L14.6387-11.7871L3.04688-0.898438Q2.30469-0.214844 2.25098 0.498047Q2.19727 1.21094 2.8418 1.86523ZM9.25781-16.3281Q8.94531-16.0254 8.90625-15.6348Q8.86719-15.2441 9.04297-14.9512Q9.21875-14.6777 9.55566-14.541Q9.89258-14.4043 10.3809-14.5215Q11.4746-14.7754 12.5977-14.7314Q13.7207-14.6875 14.7949-13.9844L14.209-12.5293Q13.9551-11.9043 14.0674-11.4404Q14.1797-10.9766 14.5801-10.5664L16.875-8.25195Q17.2363-7.88086 17.5781-7.82227Q17.9199-7.76367 18.3398-7.8418L19.4043-8.03711L20.0684-7.36328L20.0293-6.80664Q20-6.43555 20.1221-6.12305Q20.2441-5.81055 20.6055-5.44922L21.3672-4.70703Q21.7285-4.3457 22.1533-4.33105Q22.5781-4.31641 22.9297-4.66797L25.8398-7.58789Q26.1914-7.93945 26.1816-8.35449Q26.1719-8.76953 25.8105-9.13086L25.0391-9.89258Q24.6875-10.2539 24.3799-10.3857Q24.0723-10.5176 23.7109-10.4883L23.1348-10.4395L22.4902-11.0742L22.7344-12.1973Q22.832-12.6172 22.6953-12.9834Q22.5586-13.3496 22.1191-13.7891L19.9219-15.9766Q18.6719-17.2168 17.2607-17.8369Q15.8496-18.457 14.4189-18.4814Q12.9883-18.5059 11.665-17.959Q10.3418-17.4121 9.25781-16.3281ZM10.752-15.957Q11.6602-16.6211 12.7002-16.9043Q13.7402-17.1875 14.8047-17.085Q15.8691-16.9824 16.8701-16.5137Q17.8711-16.0449 18.7012-15.2051L21.1328-12.793Q21.3086-12.6172 21.3525-12.4512Q21.3965-12.2852 21.3379-12.0312L21.0156-10.5469L22.5195-9.0625L23.5059-9.12109Q23.6914-9.13086 23.7891-9.09668Q23.8867-9.0625 24.0332-8.91602L24.6094-8.33984L22.168-5.89844L21.5918-6.47461Q21.4453-6.62109 21.4062-6.71875Q21.3672-6.81641 21.377-7.01172L21.4453-7.98828L19.9512-9.47266L18.4277-9.21875Q18.1836-9.16992 18.042-9.2041Q17.9004-9.23828 17.7148-9.41406L15.7129-11.416Q15.5176-11.5918 15.4932-11.7529Q15.4688-11.9141 15.5859-12.1875L16.4648-14.2773Q15.293-15.3711 13.8281-15.791Q12.3633-16.2109 10.8398-15.7617Q10.7227-15.7324 10.6885-15.8057Q10.6543-15.8789 10.752-15.957Z"/>
  </g>
  <text style="stroke:none;fill:black;font-family:sans-serif;font-size:13;font-weight:bold;" transform="matrix(1 0 0 1 1289 1953)">Exporting</text>
  <text style="stroke:none;fill:black;font-family:sans-serif;font-size:13;" transform="matrix(1 0 0 1 1289 1971)">Symbols should be outlined when exporting to ensure the</text>
  <text style="stroke:none;fill:black;font-family:sans-serif;font-size:13;" transform="matrix(1 0 0 1 1289 1989)">design is preserved when submitting to Xcode.</text>
  <text id="template-version" style="stroke:none;fill:black;font-family:sans-serif;font-size:13;text-anchor:end;" transform="matrix(1 0 0 1 3036 1933)">Template v.3.0</text>
  <text style="stroke:none;fill:black;font-family:sans-serif;font-size:13;text-anchor:end;" transform="matrix(1 0 0 1 3036 1951)">Requires Xcode 13 or greater</text>
  <text id="descriptive-name" style="stroke:none;fill:black;font-family:sans-serif;font-size:13;text-anchor:end;" transform="matrix(1 0 0 1 3036 1969)">Generated from map.fill</text>
  <text style="stroke:none;fill:black;font-family:sans-serif;font-size:13;text-anchor:end;" transform="matrix(1 0 0 1 3036 1987)">Typeset at 100 points</text>
  <text style="stroke:none;fill:black;font-family:sans-serif;font-size:13;" transform="matrix(1 0 0 1 263 726)">Small</text>
  <text style="stroke:none;fill:black;font-family:sans-serif;font-size:13;" transform="matrix(1 0 0 1 263 1156)">Medium</text>
  <text style="stroke:none;fill:black;font-family:sans-serif;font-size:13;" transform="matrix(1 0 0 1 263 1586)">Large</text>
 </g>
 <g id="Guides">
  <g id="H-reference" style="fill:#27AAE1;stroke:none;" transform="matrix(1 0 0 1 339 696)">
   <path d="M0.976562 0L3.66211 0L29.3457-67.1387L30.0293-67.1387L30.0293-70.459L28.125-70.459ZM11.6699-24.4629L46.9727-24.4629L46.2402-26.709L12.4512-26.709ZM55.127 0L57.7637 0L30.6152-70.459L29.4434-70.459L29.4434-67.1387Z"/>
  </g>
  <line id="Baseline-S" style="fill:none;stroke:#27AAE1;opacity:1;stroke-width:0.5;" x1="263" x2="3036" y1="696" y2="696"/>
  <line id="Capline-S" style="fill:none;stroke:#27AAE1;opacity:1;stroke-width:0.5;" x1="263" x2="3036" y1="625.541" y2="625.541"/>
  <g id="H-reference" style="fill:#27AAE1;stroke:none;" transform="matrix(1 0 0 1 339 1126)">
   <path d="M0.976562 0L3.66211 0L29.3457-67.1387L30.0293-67.1387L30.0293-70.459L28.125-70.459ZM11.6699-24.4629L46.9727-24.4629L46.2402-26.709L12.4512-26.709ZM55.127 0L57.7637 0L30.6152-70.459L29.4434-70.459L29.4434-67.1387Z"/>
  </g>
  <line id="Baseline-M" style="fill:none;stroke:#27AAE1;opacity:1;stroke-width:0.5;" x1="263" x2="3036" y1="1126" y2="1126"/>
  <line id="Capline-M" style="fill:none;stroke:#27AAE1;opacity:1;stroke-width:0.5;" x1="263" x2="3036" y1="1055.54" y2="1055.54"/>
  <g id="H-reference" style="fill:#27AAE1;stroke:none;" transform="matrix(1 0 0 1 339 1556)">
   <path d="M0.976562 0L3.66211 0L29.3457-67.1387L30.0293-67.1387L30.0293-70.459L28.125-70.459ZM11.6699-24.4629L46.9727-24.4629L46.2402-26.709L12.4512-26.709ZM55.127 0L57.7637 0L30.6152-70.459L29.4434-70.459L29.4434-67.1387Z"/>
  </g>
  <line id="Baseline-L" style="fill:none;stroke:#27AAE1;opacity:1;stroke-width:0.5;" x1="263" x2="3036" y1="1556" y2="1556"/>
  <line id="Capline-L" style="fill:none;stroke:#27AAE1;opacity:1;stroke-width:0.5;" x1="263" x2="3036" y1="1485.54" y2="1485.54"/>
  <line id="left-margin-Ultralight-S" style="fill:none;stroke:#00AEEF;stroke-width:0.5;opacity:1.0;" x1="513.691" x2="513.691" y1="600.785" y2="720.121"/>
  <line id="right-margin-Ultralight-S" style="fill:none;stroke:#00AEEF;stroke-width:0.5;opacity:1.0;" x1="605.732" x2="605.732" y1="600.785" y2="720.121"/>
  <line id="left-margin-Thin-S" style="fill:none;stroke:#00AEEF;stroke-width:0.5;opacity:1.0;" x1="809.425" x2="809.425" y1="600.785" y2="720.121"/>
  <line id="right-margin-Thin-S" style="fill:none;stroke:#00AEEF;stroke-width:0.5;opacity:1.0;" x1="903.419" x2="903.419" y1="600.785" y2="720.121"/>
  <line id="left-margin-Light-S" style="fill:none;stroke:#00AEEF;stroke-width:0.5;opacity:1.0;" x1="1104.23" x2="1104.23" y1="600.785" y2="720.121"/>
  <line id="right-margin-Light-S" style="fill:none;stroke:#00AEEF;stroke-width:0.5;opacity:1.0;" x1="1202.03" x2="1202.03" y1="600.785" y2="720.121"/>
  <line id="left-margin-Regular-S" style="fill:none;stroke:#00AEEF;stroke-width:0.5;opacity:1.0;" x1="1399.5" x2="1399.5" y1="600.785" y2="720.121"/>
  <line id="right-margin-Regular-S" style="fill:none;stroke:#00AEEF;stroke-width:0.5;opacity:1.0;" x1="1500.19" x2="1500.19" y1="600.785" y2="720.121"/>
  <line id="left-margin-Medium-S" style="fill:none;stroke:#00AEEF;stroke-width:0.5;opacity:1.0;" x1="1695.85" x2="1695.85" y1="600.785" y2="720.121"/>
  <line id="right-margin-Medium-S" style="fill:none;stroke:#00AEEF;stroke-width:0.5;opacity:1.0;" x1="1797.26" x2="1797.26" y1="600.785" y2="720.121"/>
  <line id="left-margin-Semibold-S" style="fill:none;stroke:#00AEEF;stroke-width:0.5;opacity:1.0;" x1="1992.27" x2="1992.27" y1="600.785" y2="720.121"/>
  <line id="right-margin-Semibold-S" style="fill:none;stroke:#00AEEF;stroke-width:0.5;opacity:1.0;" x1="2094.27" x2="2094.27" y1="600.785" y2="720.121"/>
  <line id="left-margin-Bold-S" style="fill:none;stroke:#00AEEF;stroke-width:0.5;opacity:1.0;" x1="2288.59" x2="2288.59" y1="600.785" y2="720.121"/>
  <line id="right-margin-Bold-S" style="fill:none;stroke:#00AEEF;stroke-width:0.5;opacity:1.0;" x1="2391.37" x2="2391.37" y1="600.785" y2="720.121"/>
  <line id="left-margin-Heavy-S" style="fill:none;stroke:#00AEEF;stroke-width:0.5;opacity:1.0;" x1="2584.74" x2="2584.74" y1="600.785" y2="720.121"/>
  <line id="right-margin-Heavy-S" style="fill:none;stroke:#00AEEF;stroke-width:0.5;opacity:1.0;" x1="2688.64" x2="2688.64" y1="600.785" y2="720.121"/>
  <line id="left-margin-Black-S" style="fill:none;stroke:#00AEEF;stroke-width:0.5;opacity:1.0;" x1="2880.96" x2="2880.96" y1="600.785" y2="720.121"/>
  <line id="right-margin-Black-S" style="fill:none;stroke:#00AEEF;stroke-width:0.5;opacity:1.0;" x1="2985.84" x2="2985.84" y1="600.785" y2="720.121"/>
  <line id="left-margin-Ultralight-M" style="fill:none;stroke:#00AEEF;stroke-width:0.5;opacity:1.0;" x1="501.362" x2="501.362" y1="1030.79" y2="1150.12"/>
  <line id="right-margin-Ultralight-M" style="fill:none;stroke:#00AEEF;stroke-width:0.5;opacity:1.0;" x1="618.061" x2="618.061" y1="1030.79" y2="1150.12"/>
  <line id="left-margin-Thin-M" style="fill:none;stroke:#00AEEF;stroke-width:0.5;opacity:1.0;" x1="796.974" x2="796.974" y1="1030.79" y2="1150.12"/>
  <line id="right-margin-Thin-M" style="fill:none;stroke:#00AEEF;stroke-width:0.5;opacity:1.0;" x1="915.87" x2="915.87" y1="1030.79" y2="1150.12"/>
  <line id="left-margin-Light-M" style="fill:none;stroke:#00AEEF;stroke-width:0.5;opacity:1.0;" x1="1091.54" x2="1091.54" y1="1030.79" y2="1150.12"/>
  <line id="right-margin-Light-M" style="fill:none;stroke:#00AEEF;stroke-width:0.5;opacity:1.0;" x1="1214.73" x2="1214.73" y1="1030.79" y2="1150.12"/>
  <line id="left-margin-Regular-M" style="fill:none;stroke:#00AEEF;stroke-width:0.5;opacity:1.0;" x1="1386.61" x2="1386.61" y1="1030.79" y2="1150.12"/>
  <line id="right-margin-Regular-M" style="fill:none;stroke:#00AEEF;stroke-width:0.5;opacity:1.0;" x1="1513.08" x2="1513.08" y1="1030.79" y2="1150.12"/>
  <line id="left-margin-Medium-M" style="fill:none;stroke:#00AEEF;stroke-width:0.5;opacity:1.0;" x1="1682.69" x2="1682.69" y1="1030.79" y2="1150.12"/>
  <line id="right-margin-Medium-M" style="fill:none;stroke:#00AEEF;stroke-width:0.5;opacity:1.0;" x1="1810.42" x2="1810.42" y1="1030.79" y2="1150.12"/>
  <line id="left-margin-Semibold-M" style="fill:none;stroke:#00AEEF;stroke-width:0.5;opacity:1.0;" x1="1978.94" x2="1978.94" y1="1030.79" y2="1150.12"/>
  <line id="right-margin-Semibold-M" style="fill:none;stroke:#00AEEF;stroke-width:0.5;opacity:1.0;" x1="2107.6" x2="2107.6" y1="1030.79" y2="1150.12"/>
  <line id="left-margin-Bold-M" style="fill:none;stroke:#00AEEF;stroke-width:0.5;opacity:1.0;" x1="2274.99" x2="2274.99" y1="1030.79" y2="1150.12"/>
  <line id="right-margin-Bold-M" style="fill:none;stroke:#00AEEF;stroke-width:0.5;opacity:1.0;" x1="2404.97" x2="2404.97" y1="1030.79" y2="1150.12"/>
  <line id="left-margin-Heavy-M" style="fill:none;stroke:#00AEEF;stroke-width:0.5;opacity:1.0;" x1="2570.8" x2="2570.8" y1="1030.79" y2="1150.12"/>
  <line id="right-margin-Heavy-M" style="fill:none;stroke:#00AEEF;stroke-width:0.5;opacity:1.0;" x1="2702.58" x2="2702.58" y1="1030.79" y2="1150.12"/>
  <line id="left-margin-Black-M" style="fill:none;stroke:#00AEEF;stroke-width:0.5;opacity:1.0;" x1="2866.68" x2="2866.68" y1="1030.79" y2="1150.12"/>
  <line id="right-margin-Black-M" style="fill:none;stroke:#00AEEF;stroke-width:0.5;opacity:1.0;" x1="3000.12" x2="3000.12" y1="1030.79" y2="1150.12"/>
  <line id="left-margin-Ultralight-L" style="fill:none;stroke:#00AEEF;stroke-width:0.5;opacity:1.0;" x1="484.882" x2="484.882" y1="1460.79" y2="1580.12"/>
  <line id="right-margin-Ultralight-L" style="fill:none;stroke:#00AEEF;stroke-width:0.5;opacity:1.0;" x1="634.54" x2="634.54" y1="1460.79" y2="1580.12"/>
  <line id="left-margin-Thin-L" style="fill:none;stroke:#00AEEF;stroke-width:0.5;opacity:1.0;" x1="780.372" x2="780.372" y1="1460.79" y2="1580.12"/>
  <line id="right-margin-Thin-L" style="fill:none;stroke:#00AEEF;stroke-width:0.5;opacity:1.0;" x1="932.472" x2="932.472" y1="1460.79" y2="1580.12"/>
  <line id="left-margin-Light-L" style="fill:none;stroke:#00AEEF;stroke-width:0.5;opacity:1.0;" x1="1074.69" x2="1074.69" y1="1460.79" y2="1580.12"/>
  <line id="right-margin-Light-L" style="fill:none;stroke:#00AEEF;stroke-width:0.5;opacity:1.0;" x1="1231.58" x2="1231.58" y1="1460.79" y2="1580.12"/>
  <line id="left-margin-Regular-L" style="fill:none;stroke:#00AEEF;stroke-width:0.5;opacity:1.0;" x1="1369.6" x2="1369.6" y1="1460.79" y2="1580.12"/>
  <line id="right-margin-Regular-L" style="fill:none;stroke:#00AEEF;stroke-width:0.5;opacity:1.0;" x1="1530.09" x2="1530.09" y1="1460.79" y2="1580.12"/>
  <line id="left-margin-Medium-L" style="fill:none;stroke:#00AEEF;stroke-width:0.5;opacity:1.0;" x1="1665.35" x2="1665.35" y1="1460.79" y2="1580.12"/>
  <line id="right-margin-Medium-L" style="fill:none;stroke:#00AEEF;stroke-width:0.5;opacity:1.0;" x1="1827.76" x2="1827.76" y1="1460.79" y2="1580.12"/>
  <line id="left-margin-Semibold-L" style="fill:none;stroke:#00AEEF;stroke-width:0.5;opacity:1.0;" x1="1961.33" x2="1961.33" y1="1460.79" y2="1580.12"/>
  <line id="right-margin-Semibold-L" style="fill:none;stroke:#00AEEF;stroke-width:0.5;opacity:1.0;" x1="2125.2" x2="2125.2" y1="1460.79" y2="1580.12"/>
  <line id="left-margin-Bold-L" style="fill:none;stroke:#00AEEF;stroke-width:0.5;opacity:1.0;" x1="2257.09" x2="2257.09" y1="1460.79" y2="1580.12"/>
  <line id="right-margin-Bold-L" style="fill:none;stroke:#00AEEF;stroke-width:0.5;opacity:1.0;" x1="2422.86" x2="2422.86" y1="1460.79" y2="1580.12"/>
  <line id="left-margin-Heavy-L" style="fill:none;stroke:#00AEEF;stroke-width:0.5;opacity:1.0;" x1="2552.41" x2="2552.41" y1="1460.79" y2="1580.12"/>
  <line id="right-margin-Heavy-L" style="fill:none;stroke:#00AEEF;stroke-width:0.5;opacity:1.0;" x1="2720.97" x2="2720.97" y1="1460.79" y2="1580.12"/>
  <line id="left-margin-Black-L" style="fill:none;stroke:#00AEEF;stroke-width:0.5;opacity:1.0;" x1="2847.88" x2="2847.88" y1="1460.79" y2="1580.12"/>
  <line id="right-margin-Black-L" style="fill:none;stroke:#00AEEF;stroke-width:0.5;opacity:1.0;" x1="3018.92" x2="3018.92" y1="1460.79" y2="1580.12"/>
 </g>
 <g id="Symbols">
  <g id="Black-L" transform="matrix(1 0 0 1 2847.88 1556)">
   <path d="M16.0645 17.9199Q16.0645 24.1699 19.873 27.3193Q23.6816 30.4688 28.7109 30.4688Q32.666 30.4688 36.3281 28.4668L57.1289 17.1875L57.1289-98.0469Q55.4199-97.6562 53.3691-96.8018Q51.3184-95.9473 48.8281-94.5312L24.5117-81.0547Q20.166-78.6621 18.1152-75.1221Q16.0645-71.582 16.0645-66.6992ZM68.5059 13.9648L93.5059 27.6855Q95.8008 28.9062 97.7051 29.8096Q99.6094 30.7129 102.197 31.1523L102.197-79.1992L78.2715-92.9199Q75.2441-94.6289 72.8271-95.874Q70.4102-97.1191 68.5059-97.7051ZM113.623 30.4688Q114.307 30.2734 115.088 29.9561Q115.869 29.6387 116.65 29.1504L145.947 12.9883Q150.781 10.3027 152.881 6.78711Q154.98 3.27148 154.98-1.75781L154.98-84.5215Q154.98-91.1621 150.928-94.165Q146.875-97.168 140.869-97.168Q135.986-97.168 131.592-94.7266L113.623-84.7656Z"/>
  </g>
  <g id="Heavy-L" transform="matrix(1 0 0 1 2552.41 1556)">
   <path d="M16.0645 17.6758Q16.0645 23.1934 19.3848 26.001Q22.7051 28.8086 27.2461 28.8086Q30.8105 28.8086 34.2285 26.9531L56.5918 14.8438L56.5918-97.4609Q55.0781-97.0703 53.2959-96.3135Q51.5137-95.5566 49.3652-94.3359L23.7305-79.9316Q19.7754-77.7832 17.9199-74.585Q16.0645-71.3867 16.0645-66.9434ZM67.0898 12.1582L93.6523 26.9043Q95.6055 27.9297 97.2168 28.7109Q98.8281 29.4922 100.977 29.8828L100.977-78.418L75.4395-93.3594Q72.9004-94.8242 70.8252-95.8496Q68.75-96.875 67.0898-97.3633ZM111.572 29.2969Q112.207 29.1016 112.915 28.8086Q113.623 28.5156 114.355 28.0762L144.385 11.3281Q148.682 8.93555 150.586 5.76172Q152.49 2.58789 152.49-1.95312L152.49-85.2051Q152.49-91.0156 148.975-93.7256Q145.459-96.4355 140.186-96.4355Q135.938-96.4355 131.982-94.1895L111.572-82.9102Z"/>
  </g>
  <g id="Bold-L" transform="matrix(1 0 0 1 2257.09 1556)">
   <path d="M16.0645 17.4316Q16.0645 22.168 18.8477 24.585Q21.6309 27.002 25.6836 27.002Q28.7109 27.002 31.8848 25.293L55.957 12.207L55.957-96.8262Q54.6875-96.4355 53.1982-95.7764Q51.709-95.1172 50-94.1406L22.8516-78.6621Q19.3848-76.7578 17.7246-73.9746Q16.0645-71.1914 16.0645-67.2852ZM65.5273 10.1562L93.8477 26.0742Q95.3613 26.9043 96.6797 27.5146Q97.998 28.125 99.6094 28.418L99.6094-77.5879L72.2656-93.8965Q70.3125-95.0195 68.6279-95.8252Q66.9434-96.6309 65.5273-97.0215ZM109.229 27.9785Q109.814 27.832 110.474 27.5391Q111.133 27.2461 111.816 26.8555L142.676 9.47266Q146.387 7.37305 148.047 4.61426Q149.707 1.85547 149.707-2.19727L149.707-85.9863Q149.707-90.8691 146.826-93.2373Q143.945-95.6055 139.404-95.6055Q135.889-95.6055 132.373-93.6523L109.229-80.8594Z"/>
  </g>
  <g id="Semibold-L" transform="matrix(1 0 0 1 1961.33 1556)">
   <path d="M16.0645 17.2363Q16.0645 21.3867 18.457 23.5596Q20.8496 25.7324 24.5605 25.7324Q27.2461 25.7324 30.2246 24.1211L55.5176 10.3516L55.5176-96.3379Q54.3945-95.9473 53.1006-95.3613Q51.8066-94.7754 50.3906-93.9941L22.2168-77.7832Q19.043-76.0742 17.5537-73.5352Q16.0645-70.9961 16.0645-67.4805ZM64.4531 8.78906L93.9453 25.4883Q95.166 26.123 96.2646 26.6357Q97.3633 27.1484 98.6816 27.4414L98.6816-77.002L70.0684-94.2383Q68.5059-95.1172 67.0898-95.7764Q65.6738-96.4355 64.4531-96.7773ZM107.617 27.0508Q108.203 26.9043 108.813 26.6357Q109.424 26.3672 110.01 25.9766L141.504 8.1543Q144.775 6.29883 146.289 3.80859Q147.803 1.31836 147.803-2.34375L147.803-86.4746Q147.803-90.7715 145.312-92.8955Q142.822-95.0195 138.867-95.0195Q135.84-95.0195 132.666-93.2129L107.617-79.3945Z"/>
  </g>
  <g id="Medium-L" transform="matrix(1 0 0 1 1665.35 1556)">
   <path d="M16.0645 17.1387Q16.0645 20.8496 18.1641 22.8271Q20.2637 24.8047 23.6816 24.8047Q26.123 24.8047 29.0039 23.2422L55.2246 8.98438L55.2246-95.9961Q54.1992-95.6055 53.0518-95.0684Q51.9043-94.5312 50.7324-93.8965L21.7285-77.1484Q18.8477-75.5371 17.4561-73.2178Q16.0645-70.8984 16.0645-67.627ZM63.623 7.71484L94.043 25.0488Q95.0195 25.5859 95.9717 26.001Q96.9238 26.416 97.9492 26.6602L97.9492-76.5625L68.3594-94.4824Q67.1387-95.2148 65.9424-95.7764Q64.7461-96.3379 63.623-96.582ZM106.396 26.3672Q106.934 26.2207 107.52 25.9766Q108.105 25.7324 108.691 25.3418L140.576 7.17773Q143.555 5.51758 144.946 3.22266Q146.338 0.927734 146.338-2.44141L146.338-86.8652Q146.338-90.6738 144.189-92.627Q142.041-94.5801 138.477-94.5801Q135.84-94.5801 132.861-92.9199L106.396-78.3203Z"/>
  </g>
  <g id="Regular-L" transform="matrix(1 0 0 1 1369.6 1556)">
   <path d="M16.0645 16.9434Q16.0645 20.1172 17.7979 21.8262Q19.5312 23.5352 22.6074 23.5352Q24.707 23.5352 27.3926 22.0703L54.7852 7.17773L54.7852-95.5566Q53.9062-95.166 52.9785-94.7021Q52.0508-94.2383 51.123-93.75L21.1426-76.2695Q18.5547-74.8535 17.3096-72.8027Q16.0645-70.752 16.0645-67.8223ZM62.5488 6.34766L94.1406 24.4629Q94.873 24.8535 95.6055 25.1709Q96.3379 25.4883 97.0215 25.6836L97.0215-75.9766L66.2109-94.8242Q65.3809-95.3613 64.4287-95.752Q63.4766-96.1426 62.5488-96.3379ZM104.834 25.4883Q105.322 25.3418 105.859 25.0977Q106.396 24.8535 106.934 24.5117L139.404 5.9082Q141.943 4.44336 143.188 2.41699Q144.434 0.390625 144.434-2.58789L144.434-87.4023Q144.434-90.5762 142.7-92.2852Q140.967-93.9941 137.939-93.9941Q135.791-93.9941 133.154-92.5293L104.834-76.9043Z"/>
  </g>
  <g id="Light-L" transform="matrix(1 0 0 1 1074.69 1556)">
   <path d="M16.0645 16.6504Q16.0645 19.4336 17.6025 20.9229Q19.1406 22.4121 21.7285 22.4121Q23.584 22.4121 25.8789 21.1426L54.4434 5.37109L54.4434-95.0195Q53.5645-94.6777 52.6123-94.2383Q51.6602-93.7988 50.6836-93.2617L20.5078-75.293Q18.2617-74.0723 17.1631-72.3877Q16.0645-70.7031 16.0645-68.0176ZM61.1328 5.07812L92.4805 23.584Q93.2129 23.9746 93.9453 24.3164Q94.6777 24.6582 95.3613 24.8047L95.3613-75.2441L64.8926-93.7988Q64.0137-94.3359 63.0371-94.751Q62.0605-95.166 61.1328-95.4102ZM102.051 24.6094Q102.588 24.4141 103.198 24.1455Q103.809 23.877 104.443 23.4863L136.426 4.88281Q138.574 3.61328 139.697 1.92871Q140.82 0.244141 140.82-2.44141L140.82-87.1582Q140.82-89.9414 139.282-91.4307Q137.744-92.9199 135.205-92.9199Q133.301-92.9199 131.104-91.6992L102.051-75.7324Z"/>
  </g>
  <g id="Thin-L" transform="matrix(1 0 0 1 780.372 1556)">
   <path d="M16.0645 16.3086Q16.0645 18.5059 17.334 19.7266Q18.6035 20.9473 20.5566 20.9473Q22.0703 20.9473 23.8281 19.9707L54.0527 2.97852L54.0527-94.2383Q53.125-94.043 52.124-93.6279Q51.123-93.2129 50.1465-92.627L19.6777-74.0723Q17.9199-73.0469 16.9922-71.8262Q16.0645-70.6055 16.0645-68.3105ZM59.2285 3.41797L90.2344 22.4121Q91.0156 22.8516 91.748 23.1934Q92.4805 23.5352 93.1152 23.6816L93.1152-74.2188L63.1348-92.3828Q62.207-93.0176 61.2061-93.4814Q60.2051-93.9453 59.2285-94.1406ZM98.3887 23.4375Q98.9746 23.1934 99.6826 22.876Q100.391 22.5586 101.123 22.1191L132.422 3.51562Q134.18 2.49023 135.107 1.29395Q136.035 0.0976562 136.035-2.19727L136.035-86.8164Q136.035-89.1113 134.766-90.2832Q133.496-91.4551 131.592-91.4551Q129.98-91.4551 128.32-90.5762L98.3887-74.2188Z"/>
  </g>
  <g id="Ultralight-L" transform="matrix(1 0 0 1 484.882 1556)">
   <path d="M16.0645 16.1133Q16.0645 18.0176 17.1875 19.0918Q18.3105 20.166 19.9707 20.166Q21.2891 20.166 22.8027 19.3359L53.8086 1.75781L53.8086-93.8965Q52.9297-93.7012 51.8799-93.3105Q50.8301-92.9199 49.8535-92.2852L19.2383-73.3887Q17.7246-72.5098 16.8945-71.5332Q16.0645-70.5566 16.0645-68.457ZM58.3008 2.58789L89.1113 21.7773Q89.8926 22.2656 90.625 22.6074Q91.3574 22.9492 91.9922 23.0957L91.9922-73.7305L62.2559-91.6992Q61.2793-92.334 60.2783-92.7979Q59.2773-93.2617 58.3008-93.5059ZM96.4844 22.8027Q97.168 22.5586 97.9004 22.2412Q98.6328 21.9238 99.4629 21.4355L130.42 2.83203Q131.885 1.95312 132.739 0.976562Q133.594 0 133.594-2.09961L133.594-86.6699Q133.594-88.7207 132.446-89.7217Q131.299-90.7227 129.785-90.7227Q128.32-90.7227 126.953-89.9902L96.4844-73.3887Z"/>
  </g>
  <g id="Black-M" transform="matrix(1 0 0 1 2866.68 1126)">
   <path d="M12.4512 6.05469Q12.4512 11.377 15.7471 14.0381Q19.043 16.6992 23.1934 16.6992Q26.5137 16.6992 29.4434 15.0879L44.6289 6.78711L44.6289-84.2285Q43.1641-83.9355 41.333-83.2031Q39.502-82.4707 37.207-81.2012L19.4824-71.3867Q15.8203-69.3848 14.1357-66.4795Q12.4512-63.5742 12.4512-59.4727ZM53.8086 4.00391L71.7773 13.8672Q73.877 15.0391 75.5859 15.8447Q77.2949 16.6504 79.6875 17.041L79.6875-69.6777L62.6465-79.1992Q59.8145-80.7617 57.6416-81.9092Q55.4688-83.0566 53.8086-83.5938ZM88.8672 16.4062Q89.4531 16.2109 90.1367 15.9424Q90.8203 15.6738 91.5527 15.2832L113.428 3.22266Q117.48 0.976562 119.238-1.92871Q120.996-4.83398 120.996-9.08203L120.996-72.7539Q120.996-78.5156 117.456-81.0059Q113.916-83.4961 108.838-83.4961Q104.59-83.4961 100.977-81.4941L88.8672-74.8047Z"/>
  </g>
  <g id="Heavy-M" transform="matrix(1 0 0 1 2570.8 1126)">
   <path d="M12.4512 5.9082Q12.4512 10.5957 15.3076 12.9639Q18.1641 15.332 21.9727 15.332Q24.9512 15.332 27.7344 13.8184L44.1406 4.88281L44.1406-83.7891Q42.8711-83.4961 41.3086-82.8369Q39.7461-82.1777 37.8418-81.1035L18.8477-70.5078Q15.5273-68.6523 13.9893-66.0156Q12.4512-63.3789 12.4512-59.668ZM52.7344 2.53906L72.2656 13.3301Q74.0234 14.2578 75.4639 14.9414Q76.9043 15.625 78.8574 15.9668L78.8574-69.0918L60.1562-79.834Q57.8125-81.1523 56.0059-82.1045Q54.1992-83.0566 52.7344-83.4961ZM87.4512 15.4297Q87.9883 15.2832 88.5986 15.0391Q89.209 14.7949 89.8438 14.4531L112.549 1.80664Q116.162-0.195312 117.749-2.83203Q119.336-5.46875 119.336-9.27734L119.336-73.4863Q119.336-78.5156 116.284-80.7617Q113.232-83.0078 108.74-83.0078Q105.078-83.0078 101.758-81.1523L87.4512-73.2422Z"/>
  </g>
  <g id="Bold-M" transform="matrix(1 0 0 1 2274.99 1126)">
   <path d="M12.4512 5.71289Q12.4512 9.7168 14.8438 11.792Q17.2363 13.8672 20.6055 13.8672Q23.1934 13.8672 25.7812 12.4023L43.6523 2.73438L43.6523-83.252Q42.5781-82.959 41.3086-82.4219Q40.0391-81.8848 38.5742-81.0547L18.1152-69.4824Q15.1855-67.8711 13.8184-65.5273Q12.4512-63.1836 12.4512-59.9121ZM51.5625 0.878906L72.8516 12.6953Q74.2188 13.4277 75.3418 13.9648Q76.4648 14.502 77.9297 14.7461L77.9297-68.457L57.373-80.6152Q55.6152-81.5918 54.1748-82.2998Q52.7344-83.0078 51.5625-83.3496ZM85.8398 14.3555Q86.3281 14.209 86.8652 13.9893Q87.4023 13.7695 87.9395 13.4766L111.572 0.244141Q114.697-1.51367 116.113-3.85742Q117.529-6.20117 117.529-9.57031L117.529-74.2676Q117.529-78.5156 115.015-80.4932Q112.5-82.4707 108.643-82.4707Q105.615-82.4707 102.686-80.8105L85.8398-71.4844Z"/>
  </g>
  <g id="Semibold-M" transform="matrix(1 0 0 1 1978.94 1126)">
   <path d="M12.4512 5.56641Q12.4512 9.13086 14.502 10.9619Q16.5527 12.793 19.6777 12.793Q21.9727 12.793 24.4629 11.4258L43.2617 1.2207L43.2617-82.9102Q42.3828-82.6172 41.2842-82.1289Q40.1855-81.6406 39.0625-80.957L17.627-68.7988Q14.9414-67.334 13.6963-65.1855Q12.4512-63.0371 12.4512-60.0586ZM50.7324-0.292969L73.2422 12.2559Q74.3164 12.8418 75.2441 13.2568Q76.1719 13.6719 77.2949 13.916L77.2949-68.0176L55.4199-81.1035Q54.1016-81.8848 52.9297-82.4463Q51.7578-83.0078 50.7324-83.252ZM84.7168 13.623Q85.2051 13.4766 85.6689 13.2812Q86.1328 13.0859 86.5723 12.8418L110.889-0.878906Q113.672-2.44141 114.941-4.56543Q116.211-6.68945 116.211-9.7168L116.211-74.8047Q116.211-78.4668 114.087-80.2734Q111.963-82.0801 108.594-82.0801Q106.006-82.0801 103.271-80.5664L84.7168-70.2637Z"/>
  </g>
  <g id="Medium-M" transform="matrix(1 0 0 1 1682.69 1126)">
   <path d="M12.4512 5.51758Q12.4512 8.64258 14.2334 10.3271Q16.0156 12.0117 18.9453 12.0117Q21.0449 12.0117 23.4375 10.6934L42.9688 0.0976562L42.9688-82.6172Q42.1875-82.3242 41.2598-81.8848Q40.332-81.4453 39.4043-80.9082L17.2363-68.2617Q14.7949-66.8945 13.623-64.917Q12.4512-62.9395 12.4512-60.2051ZM50.1465-1.17188L73.5352 11.9629Q74.4141 12.4023 75.1709 12.7441Q75.9277 13.0859 76.8066 13.2812L76.8066-67.6758L53.9551-81.4941Q52.9297-82.0801 51.9531-82.5195Q50.9766-82.959 50.1465-83.2031ZM83.8867 13.0371Q84.3262 12.9395 84.7412 12.7441Q85.1562 12.5488 85.5957 12.3047L110.4-1.70898Q112.939-3.125 114.111-5.10254Q115.283-7.08008 115.283-9.86328L115.283-75.2441Q115.283-78.4668 113.428-80.127Q111.572-81.7871 108.496-81.7871Q106.25-81.7871 103.76-80.3711L83.8867-69.3359Z"/>
  </g>
  <g id="Regular-M" transform="matrix(1 0 0 1 1386.61 1126)">
   <path d="M12.4512 5.37109Q12.4512 8.05664 13.916 9.52148Q15.3809 10.9863 18.0176 10.9863Q19.8242 10.9863 22.1191 9.7168L42.627-1.36719L42.627-82.2754Q41.9922-81.9824 41.2598-81.6162Q40.5273-81.25 39.8926-80.8594L16.748-67.5781Q14.5508-66.3574 13.501-64.5752Q12.4512-62.793 12.4512-60.3516ZM49.3164-2.29492L73.9258 11.5234Q74.5117 11.8164 75.0732 12.0605Q75.6348 12.3047 76.1719 12.4512L76.1719-67.2363L52.0508-81.9824Q51.416-82.373 50.708-82.666Q50-82.959 49.3164-83.1055ZM82.8125 12.3047Q83.2031 12.207 83.5693 12.0361Q83.9355 11.8652 84.2773 11.6699L109.717-2.7832Q111.914-4.00391 112.964-5.78613Q114.014-7.56836 114.014-10.0098L114.014-75.7812Q114.014-78.4668 112.549-79.9316Q111.084-81.3965 108.447-81.3965Q106.641-81.3965 104.346-80.127L82.8125-68.1641Z"/>
  </g>
  <g id="Light-M" transform="matrix(1 0 0 1 1091.54 1126)">
   <path d="M12.4512 5.12695Q12.4512 7.42188 13.7451 8.69141Q15.0391 9.96094 17.2363 9.96094Q18.7988 9.96094 20.752 8.88672L42.334-2.97852L42.334-81.7871Q41.6992-81.543 40.9424-81.2012Q40.1855-80.8594 39.502-80.4199L16.1621-66.6992Q14.3066-65.6738 13.3789-64.209Q12.4512-62.7441 12.4512-60.5469ZM48.0469-3.41797L72.4121 10.7422Q72.998 11.0352 73.5596 11.3037Q74.1211 11.5723 74.6582 11.6699L74.6582-66.5527L50.8789-81.0547Q50.1953-81.4941 49.4629-81.8115Q48.7305-82.1289 48.0469-82.2754ZM80.3223 11.5234Q80.7617 11.377 81.2012 11.1816Q81.6406 10.9863 82.0312 10.7422L107.031-3.71094Q108.936-4.73633 109.839-6.20117Q110.742-7.66602 110.742-9.86328L110.742-75.5859Q110.742-77.9297 109.473-79.1748Q108.203-80.4199 106.006-80.4199Q104.395-80.4199 102.49-79.3945L80.3223-67.1387Z"/>
  </g>
  <g id="Thin-M" transform="matrix(1 0 0 1 796.974 1126)">
   <path d="M12.4512 4.78516Q12.4512 6.5918 13.501 7.61719Q14.5508 8.64258 16.2109 8.64258Q17.4316 8.64258 18.8965 7.8125L41.9922-5.07812L41.9922-81.1035Q41.3086-80.957 40.5029-80.6396Q39.6973-80.3223 38.9648-79.834L15.4297-65.5762Q13.9648-64.7461 13.208-63.6963Q12.4512-62.6465 12.4512-60.791ZM46.3379-4.88281L70.4102 9.66797Q71.0449 10.0098 71.6064 10.2783Q72.168 10.5469 72.6562 10.6445L72.6562-65.6738L49.3652-79.834Q48.584-80.3223 47.8271-80.6641Q47.0703-81.0059 46.3379-81.1523ZM77.002 10.498Q77.4902 10.3027 78.0273 10.0586Q78.5645 9.81445 79.1016 9.47266L103.516-4.88281Q104.932-5.76172 105.688-6.78711Q106.445-7.8125 106.445-9.66797L106.445-75.293Q106.445-77.1484 105.396-78.125Q104.346-79.1016 102.783-79.1016Q101.416-79.1016 100.049-78.3691L77.002-65.7715Z"/>
  </g>
  <g id="Ultralight-M" transform="matrix(1 0 0 1 501.362 1126)">
   <path d="M12.4512 4.58984Q12.4512 6.20117 13.3789 7.08008Q14.3066 7.95898 15.6738 7.95898Q16.748 7.95898 17.9688 7.27539L41.7969-6.20117L41.7969-80.7617Q41.0645-80.6641 40.2832-80.3467Q39.502-80.0293 38.7207-79.541L15.0391-64.9902Q13.7695-64.2578 13.1104-63.4277Q12.4512-62.5977 12.4512-60.9375ZM45.459-5.66406L69.3848 9.13086Q70.0195 9.52148 70.5811 9.79004Q71.1426 10.0586 71.6309 10.1562L71.6309-65.1855L48.5352-79.1992Q47.8027-79.6875 47.0215-80.0537Q46.2402-80.4199 45.459-80.5664ZM75.3418 9.96094Q75.8301 9.76562 76.416 9.49707Q77.002 9.22852 77.5879 8.83789L101.66-5.51758Q102.93-6.25 103.589-7.08008Q104.248-7.91016 104.248-9.57031L104.248-75.1465Q104.248-76.8066 103.32-77.6367Q102.393-78.4668 101.123-78.4668Q99.9023-78.4668 98.8281-77.8809L75.3418-65.0879Z"/>
  </g>
  <g id="Black-S" transform="matrix(1 0 0 1 2880.96 696)">
   <path d="M9.76562-2.83203Q9.76562 1.46484 12.4756 3.6377Q15.1855 5.81055 18.5059 5.81055Q21.2402 5.81055 23.5352 4.54102L35.1074-1.80664L35.1074-73.7305Q33.8867-73.5352 32.373-72.9248Q30.8594-72.3145 28.9551-71.2402L15.4297-63.7695Q12.5-62.1582 11.1328-59.8145Q9.76562-57.4707 9.76562-54.1504ZM42.4316-4.10156L56.0059 3.36914Q57.7637 4.29688 59.1797 4.98047Q60.5957 5.66406 62.5977 6.00586L62.5977-62.3535L49.8047-69.4336Q47.4121-70.752 45.6055-71.7041Q43.7988-72.6562 42.4316-73.0957ZM69.9219 5.46875Q70.4102 5.32227 70.9717 5.10254Q71.5332 4.88281 72.1191 4.54102L88.9648-4.73633Q92.2852-6.5918 93.7012-8.91113Q95.1172-11.2305 95.1172-14.6484L95.1172-64.4043Q95.1172-69.0918 92.2119-71.1182Q89.3066-73.1445 85.1562-73.1445Q81.6406-73.1445 78.7598-71.5332L69.9219-66.6504Z"/>
  </g>
  <g id="Heavy-S" transform="matrix(1 0 0 1 2584.74 696)">
   <path d="M9.76562-2.92969Q9.76562 0.878906 12.1338 2.83203Q14.502 4.78516 17.5781 4.78516Q20.0195 4.78516 22.2168 3.56445L34.7168-3.27148L34.7168-73.3887Q33.6914-73.1934 32.3975-72.6562Q31.1035-72.1191 29.541-71.2402L14.9414-63.1348Q12.2559-61.6211 11.0107-59.4727Q9.76562-57.3242 9.76562-54.2969ZM41.6992-5.22461L56.6406 2.97852Q58.0566 3.75977 59.2529 4.32129Q60.4492 4.88281 62.0605 5.17578L62.0605-61.9629L47.8027-70.1172Q45.8496-71.1914 44.3604-71.9727Q42.8711-72.7539 41.6992-73.0957ZM69.043 4.73633Q69.4336 4.63867 69.9463 4.44336Q70.459 4.24805 70.9473 3.90625L88.5742-5.81055Q91.5527-7.4707 92.8467-9.61914Q94.1406-11.7676 94.1406-14.8438L94.1406-65.0391Q94.1406-69.1406 91.626-70.9961Q89.1113-72.8516 85.4004-72.8516Q82.373-72.8516 79.6875-71.3379L69.043-65.4297Z"/>
  </g>
  <g id="Bold-S" transform="matrix(1 0 0 1 2288.59 696)">
   <path d="M9.76562-3.07617Q9.76562 0.244141 11.7432 1.95312Q13.7207 3.66211 16.5039 3.66211Q18.6523 3.66211 20.8008 2.44141L34.3262-4.88281L34.3262-73.0469Q33.4961-72.8027 32.4463-72.3633Q31.3965-71.9238 30.2246-71.2402L14.4043-62.4023Q12.0117-61.084 10.8887-59.1309Q9.76562-57.1777 9.76562-54.4922ZM40.8691-6.49414L57.3242 2.58789Q58.4473 3.17383 59.375 3.61328Q60.3027 4.05273 61.5234 4.29688L61.5234-61.5234L45.6055-70.8984Q44.1406-71.6797 42.9688-72.2656Q41.7969-72.8516 40.8691-73.1445ZM68.0176 3.95508Q68.4082 3.85742 68.8232 3.68652Q69.2383 3.51562 69.6289 3.27148L88.1348-7.08008Q90.7227-8.49609 91.8701-10.4492Q93.0176-12.4023 93.0176-15.1367L93.0176-65.7715Q93.0176-69.2383 90.9424-70.874Q88.8672-72.5098 85.6445-72.5098Q83.1543-72.5098 80.7129-71.1914L68.0176-64.1113Z"/>
  </g>
  <g id="Semibold-S" transform="matrix(1 0 0 1 1992.27 696)">
   <path d="M9.76562-3.17383Q9.76562-0.244141 11.4746 1.29395Q13.1836 2.83203 15.7715 2.83203Q17.6758 2.83203 19.7754 1.66016L34.0332-5.95703L34.0332-72.7539Q33.3008-72.5586 32.4463-72.1436Q31.5918-71.7285 30.6641-71.1914L14.0137-61.8652Q11.8164-60.6445 10.791-58.8623Q9.76562-57.0801 9.76562-54.6387ZM40.2832-7.37305L57.8125 2.24609Q58.6426 2.73438 59.3994 3.07617Q60.1562 3.41797 61.084 3.66211L61.084-61.1816L44.043-71.3867Q42.9688-72.0215 42.0166-72.4609Q41.0645-72.9004 40.2832-73.1445ZM67.334 3.36914Q67.627 3.27148 67.9932 3.125Q68.3594 2.97852 68.7012 2.7832L87.793-7.91016Q90.1367-9.17969 91.1865-10.9863Q92.2363-12.793 92.2363-15.2832L92.2363-66.2598Q92.2363-69.2871 90.4785-70.7764Q88.7207-72.2656 85.8398-72.2656Q83.6914-72.2656 81.4453-71.0449L67.334-63.1836Z"/>
  </g>
  <g id="Medium-S" transform="matrix(1 0 0 1 1695.85 696)">
   <path d="M9.76562-3.22266Q9.76562-0.585938 11.2793 0.830078Q12.793 2.24609 15.2344 2.24609Q16.9434 2.24609 18.9941 1.07422L33.8379-6.83594L33.8379-72.5586Q33.2031-72.3145 32.4707-71.9727Q31.7383-71.6309 31.0059-71.1914L13.7695-61.4746Q11.7188-60.3516 10.7422-58.667Q9.76562-56.9824 9.76562-54.6875ZM39.8438-8.00781L58.1543 2.05078Q58.8379 2.39258 59.4482 2.68555Q60.0586 2.97852 60.791 3.17383L60.791-60.9375L42.8711-71.7773Q42.041-72.2656 41.2842-72.6318Q40.5273-72.998 39.8438-73.1445ZM66.7969 2.92969Q67.0898 2.88086 67.4072 2.73438Q67.7246 2.58789 68.0176 2.44141L87.5488-8.54492Q89.6973-9.7168 90.6738-11.4258Q91.6504-13.1348 91.6504-15.4297L91.6504-66.6016Q91.6504-69.3359 90.1123-70.7275Q88.5742-72.1191 85.9375-72.1191Q84.1309-72.1191 81.9824-70.9473L66.7969-62.5Z"/>
  </g>
  <g id="Regular-S" transform="matrix(1 0 0 1 1399.5 696)">
   <path d="M9.76562-3.32031Q9.76562-1.02539 11.0107 0.219727Q12.2559 1.46484 14.502 1.46484Q16.0156 1.46484 18.0176 0.341797L33.5449-7.91016L33.5449-72.3145Q33.0566-72.0703 32.4951-71.7773Q31.9336-71.4844 31.4453-71.1914L13.3789-60.9863Q11.5234-59.9609 10.6445-58.4229Q9.76562-56.8848 9.76562-54.834ZM39.2578-8.88672L58.6426 1.75781Q59.082 2.00195 59.5215 2.19727Q59.9609 2.39258 60.4004 2.53906L60.4004-60.6445L41.3574-72.3145Q40.8691-72.6074 40.332-72.8271Q39.7949-73.0469 39.2578-73.1445ZM66.1133 2.39258Q66.3574 2.34375 66.626 2.22168Q66.8945 2.09961 67.1387 1.95312L87.2559-9.375Q89.1113-10.4004 90.0146-11.9629Q90.918-13.5254 90.918-15.5762L90.918-67.0898Q90.918-69.3848 89.6729-70.6299Q88.4277-71.875 86.1328-71.875Q84.668-71.875 82.666-70.8008L66.1133-61.5723Z"/>
  </g>
  <g id="Light-S" transform="matrix(1 0 0 1 1104.23 696)">
   <path d="M9.76562-3.51562Q9.76562-1.5625 10.8398-0.488281Q11.9141 0.585938 13.8184 0.585938Q15.0879 0.585938 16.7969-0.390625L33.3008-9.32617L33.3008-71.875Q32.7637-71.6797 32.2021-71.4111Q31.6406-71.1426 31.1035-70.8008L12.8906-60.2539Q11.2793-59.3262 10.5225-58.0811Q9.76562-56.8359 9.76562-54.9805ZM38.1348-9.86328L57.3242 1.07422Q57.7637 1.31836 58.2031 1.51367Q58.6426 1.70898 59.082 1.85547L59.082-60.0586L40.332-71.4844Q39.7949-71.8262 39.2334-72.0703Q38.6719-72.3145 38.1348-72.4121ZM63.916 1.70898Q64.209 1.61133 64.5264 1.46484Q64.8438 1.31836 65.1367 1.12305L84.9121-10.1562Q86.4746-11.084 87.2559-12.3535Q88.0371-13.623 88.0371-15.4297L88.0371-66.8945Q88.0371-68.8965 86.9629-69.9463Q85.8887-70.9961 83.9844-70.9961Q82.666-70.9961 81.0547-70.1172L63.916-60.6445Z"/>
  </g>
  <g id="Thin-S" transform="matrix(1 0 0 1 809.425 696)">
   <path d="M9.76562-3.80859Q9.76562-2.29492 10.6201-1.44043Q11.4746-0.585938 12.8906-0.585938Q13.916-0.585938 15.1855-1.31836L32.959-11.2305L32.959-71.2891Q32.4219-71.1426 31.8359-70.8984Q31.25-70.6543 30.6641-70.2637L12.207-59.2285Q10.9863-58.4961 10.376-57.6172Q9.76562-56.7383 9.76562-55.2246ZM36.6211-11.1816L55.5664 0.146484Q56.0059 0.439453 56.4453 0.634766Q56.8848 0.830078 57.3242 0.927734L57.3242-59.2285L38.9648-70.4102Q38.3789-70.752 37.793-71.0205Q37.207-71.2891 36.6211-71.4355ZM60.9863 0.78125Q61.3281 0.634766 61.7188 0.463867Q62.1094 0.292969 62.5488 0.0488281L81.7871-11.2305Q82.959-11.9629 83.5938-12.8418Q84.2285-13.7207 84.2285-15.2832L84.2285-66.6504Q84.2285-68.2129 83.3496-69.043Q82.4707-69.873 81.1523-69.873Q80.0781-69.873 78.8574-69.2383L60.9863-59.4238Z"/>
  </g>
  <g id="Ultralight-S" transform="matrix(1 0 0 1 513.691 696)">
   <path d="M9.76562-3.95508Q9.76562-2.63672 10.5225-1.92871Q11.2793-1.2207 12.4023-1.2207Q13.2812-1.2207 14.3555-1.80664L32.8125-12.1582L32.8125-70.9961Q32.2266-70.8984 31.6162-70.6543Q31.0059-70.4102 30.4688-70.0195L11.8652-58.7402Q10.8398-58.1055 10.3027-57.3975Q9.76562-56.6895 9.76562-55.3223ZM35.8398-11.8164L54.6387-0.341797Q55.127-0.0488281 55.5664 0.170898Q56.0059 0.390625 56.3965 0.439453L56.3965-58.8379L38.2812-69.873Q37.6465-70.2148 37.0361-70.5078Q36.4258-70.8008 35.8398-70.8984ZM59.4727 0.292969Q59.8633 0.146484 60.3027-0.0244141Q60.7422-0.195312 61.1816-0.488281L80.1758-11.7676Q81.1523-12.4023 81.7139-13.1104Q82.2754-13.8184 82.2754-15.1855L82.2754-66.5527Q82.2754-67.8711 81.5186-68.5791Q80.7617-69.2871 79.6875-69.2871Q78.7109-69.2871 77.7832-68.75L59.4727-58.7891Z"/>
  </g>
 </g>
</svg>
