<?xml version="1.0" encoding="UTF-8"?>
<!--Generator: Apple Native CoreSVG 175-->
<!DOCTYPE svg
PUBLIC "-//W3C//DTD SVG 1.1//EN"
       "http://www.w3.org/Graphics/SVG/1.1/DTD/svg11.dtd">
<svg version="1.1" xmlns="http://www.w3.org/2000/svg" xmlns:xlink="http://www.w3.org/1999/xlink" width="3300" height="2200">
 <!--glyph: "uni1002BE.medium", point size: 100.0, font version: "17.0d11e1", template writer version: "65.1"-->
 <style>.multicolor-0:labelColor {fill:#212121;opacity:1.0}

.SFSymbolsPreview212121 {fill:#212121;opacity:1.0}
</style>
 <g id="Notes">
  <rect height="2200" id="artboard" style="fill:white;opacity:1" width="3300" x="0" y="0"/>
  <line style="fill:none;stroke:black;opacity:1;stroke-width:0.5;" x1="263" x2="3036" y1="292" y2="292"/>
  <text style="stroke:none;fill:black;font-family:sans-serif;font-size:13;font-weight:bold;" transform="matrix(1 0 0 1 263 322)">Weight/Scale Variations</text>
  <text style="stroke:none;fill:black;font-family:sans-serif;font-size:13;text-anchor:middle;" transform="matrix(1 0 0 1 559.711 322)">Ultralight</text>
  <text style="stroke:none;fill:black;font-family:sans-serif;font-size:13;text-anchor:middle;" transform="matrix(1 0 0 1 856.422 322)">Thin</text>
  <text style="stroke:none;fill:black;font-family:sans-serif;font-size:13;text-anchor:middle;" transform="matrix(1 0 0 1 1153.13 322)">Light</text>
  <text style="stroke:none;fill:black;font-family:sans-serif;font-size:13;text-anchor:middle;" transform="matrix(1 0 0 1 1449.84 322)">Regular</text>
  <text style="stroke:none;fill:black;font-family:sans-serif;font-size:13;text-anchor:middle;" transform="matrix(1 0 0 1 1746.56 322)">Medium</text>
  <text style="stroke:none;fill:black;font-family:sans-serif;font-size:13;text-anchor:middle;" transform="matrix(1 0 0 1 2043.27 322)">Semibold</text>
  <text style="stroke:none;fill:black;font-family:sans-serif;font-size:13;text-anchor:middle;" transform="matrix(1 0 0 1 2339.98 322)">Bold</text>
  <text style="stroke:none;fill:black;font-family:sans-serif;font-size:13;text-anchor:middle;" transform="matrix(1 0 0 1 2636.69 322)">Heavy</text>
  <text style="stroke:none;fill:black;font-family:sans-serif;font-size:13;text-anchor:middle;" transform="matrix(1 0 0 1 2933.4 322)">Black</text>
  <line style="fill:none;stroke:black;opacity:1;stroke-width:0.5;" x1="263" x2="3036" y1="1903" y2="1903"/>
  <g transform="matrix(1 0 0 1 263 1933)">
   <path d="M9.24805 0.830078Q10.8691 0.830078 12.2949 0.214844Q13.7207-0.400391 14.8096-1.49414Q15.8984-2.58789 16.5186-4.01367Q17.1387-5.43945 17.1387-7.05078Q17.1387-8.66211 16.5186-10.0879Q15.8984-11.5137 14.8047-12.6074Q13.7109-13.7012 12.2852-14.3164Q10.8594-14.9316 9.23828-14.9316Q7.62695-14.9316 6.20117-14.3164Q4.77539-13.7012 3.69141-12.6074Q2.60742-11.5137 1.9873-10.0879Q1.36719-8.66211 1.36719-7.05078Q1.36719-5.43945 1.9873-4.01367Q2.60742-2.58789 3.69629-1.49414Q4.78516-0.400391 6.21094 0.214844Q7.63672 0.830078 9.24805 0.830078ZM9.24805-0.654297Q7.91992-0.654297 6.7627-1.14746Q5.60547-1.64062 4.73145-2.51953Q3.85742-3.39844 3.36426-4.56055Q2.87109-5.72266 2.87109-7.05078Q2.87109-8.37891 3.35938-9.54102Q3.84766-10.7031 4.72168-11.582Q5.5957-12.4609 6.75293-12.9541Q7.91016-13.4473 9.23828-13.4473Q10.5762-13.4473 11.7334-12.9541Q12.8906-12.4609 13.7695-11.582Q14.6484-10.7031 15.1465-9.54102Q15.6445-8.37891 15.6445-7.05078Q15.6445-5.72266 15.1514-4.56055Q14.6582-3.39844 13.7842-2.51953Q12.9102-1.64062 11.748-1.14746Q10.5859-0.654297 9.24805-0.654297ZM5.6543-7.05078Q5.6543-6.72852 5.85938-6.52832Q6.06445-6.32812 6.40625-6.32812L8.51562-6.32812L8.51562-4.20898Q8.51562-3.88672 8.71094-3.67676Q8.90625-3.4668 9.23828-3.4668Q9.56055-3.4668 9.77051-3.67676Q9.98047-3.88672 9.98047-4.20898L9.98047-6.32812L12.0898-6.32812Q12.4219-6.32812 12.627-6.52832Q12.832-6.72852 12.832-7.05078Q12.832-7.38281 12.627-7.58789Q12.4219-7.79297 12.0898-7.79297L9.98047-7.79297L9.98047-9.90234Q9.98047-10.2344 9.77051-10.4443Q9.56055-10.6543 9.23828-10.6543Q8.90625-10.6543 8.71094-10.4443Q8.51562-10.2344 8.51562-9.90234L8.51562-7.79297L6.40625-7.79297Q6.06445-7.79297 5.85938-7.58789Q5.6543-7.38281 5.6543-7.05078Z"/>
  </g>
  <g transform="matrix(1 0 0 1 281.867 1933)">
   <path d="M11.709 2.91016Q13.75 2.91016 15.5518 2.12891Q17.3535 1.34766 18.7305-0.0292969Q20.1074-1.40625 20.8887-3.20801Q21.6699-5.00977 21.6699-7.05078Q21.6699-9.0918 20.8887-10.8936Q20.1074-12.6953 18.7305-14.0723Q17.3535-15.4492 15.5469-16.2305Q13.7402-17.0117 11.6992-17.0117Q9.6582-17.0117 7.85645-16.2305Q6.05469-15.4492 4.68262-14.0723Q3.31055-12.6953 2.5293-10.8936Q1.74805-9.0918 1.74805-7.05078Q1.74805-5.00977 2.5293-3.20801Q3.31055-1.40625 4.6875-0.0292969Q6.06445 1.34766 7.86621 2.12891Q9.66797 2.91016 11.709 2.91016ZM11.709 1.25Q9.98047 1.25 8.47656 0.605469Q6.97266-0.0390625 5.83496-1.17676Q4.69727-2.31445 4.05762-3.81836Q3.41797-5.32227 3.41797-7.05078Q3.41797-8.7793 4.05762-10.2832Q4.69727-11.7871 5.83008-12.9297Q6.96289-14.0723 8.4668-14.7119Q9.9707-15.3516 11.6992-15.3516Q13.4277-15.3516 14.9316-14.7119Q16.4355-14.0723 17.5781-12.9297Q18.7207-11.7871 19.3652-10.2832Q20.0098-8.7793 20.0098-7.05078Q20.0098-5.32227 19.3701-3.81836Q18.7305-2.31445 17.5928-1.17676Q16.4551-0.0390625 14.9463 0.605469Q13.4375 1.25 11.709 1.25ZM7.17773-7.05078Q7.17773-6.69922 7.41211-6.47461Q7.64648-6.25 8.01758-6.25L10.8887-6.25L10.8887-3.36914Q10.8887-2.99805 11.1133-2.76855Q11.3379-2.53906 11.6895-2.53906Q12.0605-2.53906 12.29-2.76855Q12.5195-2.99805 12.5195-3.36914L12.5195-6.25L15.4004-6.25Q15.7715-6.25 16.001-6.47461Q16.2305-6.69922 16.2305-7.05078Q16.2305-7.42188 16.001-7.65137Q15.7715-7.88086 15.4004-7.88086L12.5195-7.88086L12.5195-10.752Q12.5195-11.1328 12.29-11.3623Q12.0605-11.5918 11.6895-11.5918Q11.3379-11.5918 11.1133-11.3574Q10.8887-11.123 10.8887-10.752L10.8887-7.88086L8.01758-7.88086Q7.63672-7.88086 7.40723-7.65137Q7.17773-7.42188 7.17773-7.05078Z"/>
  </g>
  <g transform="matrix(1 0 0 1 305.646 1933)">
   <path d="M14.9707 5.66406Q17.0605 5.66406 18.96 5.01465Q20.8594 4.36523 22.4512 3.19336Q24.043 2.02148 25.2197 0.429688Q26.3965-1.16211 27.0459-3.06641Q27.6953-4.9707 27.6953-7.05078Q27.6953-9.14062 27.0459-11.04Q26.3965-12.9395 25.2197-14.5312Q24.043-16.123 22.4512-17.2998Q20.8594-18.4766 18.9551-19.126Q17.0508-19.7754 14.9609-19.7754Q12.8711-19.7754 10.9717-19.126Q9.07227-18.4766 7.48535-17.2998Q5.89844-16.123 4.72168-14.5312Q3.54492-12.9395 2.90039-11.04Q2.25586-9.14062 2.25586-7.05078Q2.25586-4.9707 2.90527-3.06641Q3.55469-1.16211 4.72656 0.429688Q5.89844 2.02148 7.49023 3.19336Q9.08203 4.36523 10.9814 5.01465Q12.8809 5.66406 14.9707 5.66406ZM14.9707 3.84766Q13.1641 3.84766 11.5283 3.2959Q9.89258 2.74414 8.53516 1.74805Q7.17773 0.751953 6.17676-0.610352Q5.17578-1.97266 4.62891-3.6084Q4.08203-5.24414 4.08203-7.05078Q4.08203-8.86719 4.62891-10.5029Q5.17578-12.1387 6.17188-13.501Q7.16797-14.8633 8.52539-15.8594Q9.88281-16.8555 11.5186-17.4023Q13.1543-17.9492 14.9609-17.9492Q16.7773-17.9492 18.4131-17.4023Q20.0488-16.8555 21.4111-15.8594Q22.7734-14.8633 23.7695-13.501Q24.7656-12.1387 25.3174-10.5029Q25.8691-8.86719 25.8691-7.05078Q25.8789-5.24414 25.332-3.6084Q24.7852-1.97266 23.7842-0.610352Q22.7832 0.751953 21.4209 1.74805Q20.0586 2.74414 18.4229 3.2959Q16.7871 3.84766 14.9707 3.84766ZM9.19922-7.05078Q9.19922-6.66992 9.45801-6.4209Q9.7168-6.17188 10.1172-6.17188L14.0625-6.17188L14.0625-2.2168Q14.0625-1.81641 14.3115-1.55762Q14.5605-1.29883 14.9512-1.29883Q15.3516-1.29883 15.6104-1.55273Q15.8691-1.80664 15.8691-2.2168L15.8691-6.17188L19.8242-6.17188Q20.2246-6.17188 20.4785-6.4209Q20.7324-6.66992 20.7324-7.05078Q20.7324-7.46094 20.4785-7.71484Q20.2246-7.96875 19.8242-7.96875L15.8691-7.96875L15.8691-11.9141Q15.8691-12.3242 15.6104-12.583Q15.3516-12.8418 14.9512-12.8418Q14.5605-12.8418 14.3115-12.583Q14.0625-12.3242 14.0625-11.9141L14.0625-7.96875L10.1172-7.96875Q9.70703-7.96875 9.45312-7.71484Q9.19922-7.46094 9.19922-7.05078Z"/>
  </g>
  <text style="stroke:none;fill:black;font-family:sans-serif;font-size:13;font-weight:bold;" transform="matrix(1 0 0 1 263 1953)">Design Variations</text>
  <text style="stroke:none;fill:black;font-family:sans-serif;font-size:13;" transform="matrix(1 0 0 1 263 1971)">Symbols are supported in up to nine weights and three scales.</text>
  <text style="stroke:none;fill:black;font-family:sans-serif;font-size:13;" transform="matrix(1 0 0 1 263 1989)">For optimal layout with text and other symbols, vertically align</text>
  <text style="stroke:none;fill:black;font-family:sans-serif;font-size:13;" transform="matrix(1 0 0 1 263 2007)">symbols with the adjacent text.</text>
  <line style="fill:none;stroke:#00AEEF;stroke-width:0.5;opacity:1.0;" x1="776" x2="776" y1="1919" y2="1933"/>
  <g transform="matrix(1 0 0 1 776 1933)">
   <path d="M3.31055 0.15625Q3.70117 0.15625 3.91602-0.00976562Q4.13086-0.175781 4.26758-0.585938L5.52734-4.0332L11.2891-4.0332L12.5488-0.585938Q12.6855-0.175781 12.9004-0.00976562Q13.1152 0.15625 13.4961 0.15625Q13.8867 0.15625 14.1162-0.0585938Q14.3457-0.273438 14.3457-0.644531Q14.3457-0.869141 14.2383-1.17188L9.6582-13.3691Q9.48242-13.8184 9.17969-14.043Q8.87695-14.2676 8.4082-14.2676Q7.5-14.2676 7.17773-13.3789L2.59766-1.16211Q2.49023-0.859375 2.49023-0.634766Q2.49023-0.263672 2.70996-0.0537109Q2.92969 0.15625 3.31055 0.15625ZM6.00586-5.51758L8.37891-12.0898L8.42773-12.0898L10.8008-5.51758Z"/>
  </g>
  <line style="fill:none;stroke:#00AEEF;stroke-width:0.5;opacity:1.0;" x1="793.197" x2="793.197" y1="1919" y2="1933"/>
  <text style="stroke:none;fill:black;font-family:sans-serif;font-size:13;font-weight:bold;" transform="matrix(1 0 0 1 776 1953)">Margins</text>
  <text style="stroke:none;fill:black;font-family:sans-serif;font-size:13;" transform="matrix(1 0 0 1 776 1971)">Leading and trailing margins on the left and right side of each symbol</text>
  <text style="stroke:none;fill:black;font-family:sans-serif;font-size:13;" transform="matrix(1 0 0 1 776 1989)">can be adjusted by modifying the x-location of the margin guidelines.</text>
  <text style="stroke:none;fill:black;font-family:sans-serif;font-size:13;" transform="matrix(1 0 0 1 776 2007)">Modifications are automatically applied proportionally to all</text>
  <text style="stroke:none;fill:black;font-family:sans-serif;font-size:13;" transform="matrix(1 0 0 1 776 2025)">scales and weights.</text>
  <g transform="matrix(1 0 0 1 1289 1933)">
   <path d="M2.8418 1.86523L4.54102 3.57422Q5.18555 4.22852 5.90332 4.17969Q6.62109 4.13086 7.31445 3.35938L18.0078-8.42773L17.041-9.4043L6.42578 2.27539Q6.16211 2.57812 5.89355 2.61719Q5.625 2.65625 5.27344 2.30469L4.10156 1.14258Q3.75 0.791016 3.79395 0.522461Q3.83789 0.253906 4.14062-0.0195312L15.6152-10.8203L14.6387-11.7871L3.04688-0.898438Q2.30469-0.214844 2.25098 0.498047Q2.19727 1.21094 2.8418 1.86523ZM9.25781-16.3281Q8.94531-16.0254 8.90625-15.6348Q8.86719-15.2441 9.04297-14.9512Q9.21875-14.6777 9.55566-14.541Q9.89258-14.4043 10.3809-14.5215Q11.4746-14.7754 12.5977-14.7314Q13.7207-14.6875 14.7949-13.9844L14.209-12.5293Q13.9551-11.9043 14.0674-11.4404Q14.1797-10.9766 14.5801-10.5664L16.875-8.25195Q17.2363-7.88086 17.5781-7.82227Q17.9199-7.76367 18.3398-7.8418L19.4043-8.03711L20.0684-7.36328L20.0293-6.80664Q20-6.43555 20.1221-6.12305Q20.2441-5.81055 20.6055-5.44922L21.3672-4.70703Q21.7285-4.3457 22.1533-4.33105Q22.5781-4.31641 22.9297-4.66797L25.8398-7.58789Q26.1914-7.93945 26.1816-8.35449Q26.1719-8.76953 25.8105-9.13086L25.0391-9.89258Q24.6875-10.2539 24.3799-10.3857Q24.0723-10.5176 23.7109-10.4883L23.1348-10.4395L22.4902-11.0742L22.7344-12.1973Q22.832-12.6172 22.6953-12.9834Q22.5586-13.3496 22.1191-13.7891L19.9219-15.9766Q18.6719-17.2168 17.2607-17.8369Q15.8496-18.457 14.4189-18.4814Q12.9883-18.5059 11.665-17.959Q10.3418-17.4121 9.25781-16.3281ZM10.752-15.957Q11.6602-16.6211 12.7002-16.9043Q13.7402-17.1875 14.8047-17.085Q15.8691-16.9824 16.8701-16.5137Q17.8711-16.0449 18.7012-15.2051L21.1328-12.793Q21.3086-12.6172 21.3525-12.4512Q21.3965-12.2852 21.3379-12.0312L21.0156-10.5469L22.5195-9.0625L23.5059-9.12109Q23.6914-9.13086 23.7891-9.09668Q23.8867-9.0625 24.0332-8.91602L24.6094-8.33984L22.168-5.89844L21.5918-6.47461Q21.4453-6.62109 21.4062-6.71875Q21.3672-6.81641 21.377-7.01172L21.4453-7.98828L19.9512-9.47266L18.4277-9.21875Q18.1836-9.16992 18.042-9.2041Q17.9004-9.23828 17.7148-9.41406L15.7129-11.416Q15.5176-11.5918 15.4932-11.7529Q15.4688-11.9141 15.5859-12.1875L16.4648-14.2773Q15.293-15.3711 13.8281-15.791Q12.3633-16.2109 10.8398-15.7617Q10.7227-15.7324 10.6885-15.8057Q10.6543-15.8789 10.752-15.957Z"/>
  </g>
  <text style="stroke:none;fill:black;font-family:sans-serif;font-size:13;font-weight:bold;" transform="matrix(1 0 0 1 1289 1953)">Exporting</text>
  <text style="stroke:none;fill:black;font-family:sans-serif;font-size:13;" transform="matrix(1 0 0 1 1289 1971)">Symbols should be outlined when exporting to ensure the</text>
  <text style="stroke:none;fill:black;font-family:sans-serif;font-size:13;" transform="matrix(1 0 0 1 1289 1989)">design is preserved when submitting to Xcode.</text>
  <text id="template-version" style="stroke:none;fill:black;font-family:sans-serif;font-size:13;text-anchor:end;" transform="matrix(1 0 0 1 3036 1933)">Template v.3.0</text>
  <text style="stroke:none;fill:black;font-family:sans-serif;font-size:13;text-anchor:end;" transform="matrix(1 0 0 1 3036 1951)">Requires Xcode 13 or greater</text>
  <text id="descriptive-name" style="stroke:none;fill:black;font-family:sans-serif;font-size:13;text-anchor:end;" transform="matrix(1 0 0 1 3036 1969)">Generated from suit.spade.fill</text>
  <text style="stroke:none;fill:black;font-family:sans-serif;font-size:13;text-anchor:end;" transform="matrix(1 0 0 1 3036 1987)">Typeset at 100 points</text>
  <text style="stroke:none;fill:black;font-family:sans-serif;font-size:13;" transform="matrix(1 0 0 1 263 726)">Small</text>
  <text style="stroke:none;fill:black;font-family:sans-serif;font-size:13;" transform="matrix(1 0 0 1 263 1156)">Medium</text>
  <text style="stroke:none;fill:black;font-family:sans-serif;font-size:13;" transform="matrix(1 0 0 1 263 1586)">Large</text>
 </g>
 <g id="Guides">
  <g id="H-reference" style="fill:#27AAE1;stroke:none;" transform="matrix(1 0 0 1 339 696)">
   <path d="M0.976562 0L3.66211 0L29.3457-67.1387L30.0293-67.1387L30.0293-70.459L28.125-70.459ZM11.6699-24.4629L46.9727-24.4629L46.2402-26.709L12.4512-26.709ZM55.127 0L57.7637 0L30.6152-70.459L29.4434-70.459L29.4434-67.1387Z"/>
  </g>
  <line id="Baseline-S" style="fill:none;stroke:#27AAE1;opacity:1;stroke-width:0.5;" x1="263" x2="3036" y1="696" y2="696"/>
  <line id="Capline-S" style="fill:none;stroke:#27AAE1;opacity:1;stroke-width:0.5;" x1="263" x2="3036" y1="625.541" y2="625.541"/>
  <g id="H-reference" style="fill:#27AAE1;stroke:none;" transform="matrix(1 0 0 1 339 1126)">
   <path d="M0.976562 0L3.66211 0L29.3457-67.1387L30.0293-67.1387L30.0293-70.459L28.125-70.459ZM11.6699-24.4629L46.9727-24.4629L46.2402-26.709L12.4512-26.709ZM55.127 0L57.7637 0L30.6152-70.459L29.4434-70.459L29.4434-67.1387Z"/>
  </g>
  <line id="Baseline-M" style="fill:none;stroke:#27AAE1;opacity:1;stroke-width:0.5;" x1="263" x2="3036" y1="1126" y2="1126"/>
  <line id="Capline-M" style="fill:none;stroke:#27AAE1;opacity:1;stroke-width:0.5;" x1="263" x2="3036" y1="1055.54" y2="1055.54"/>
  <g id="H-reference" style="fill:#27AAE1;stroke:none;" transform="matrix(1 0 0 1 339 1556)">
   <path d="M0.976562 0L3.66211 0L29.3457-67.1387L30.0293-67.1387L30.0293-70.459L28.125-70.459ZM11.6699-24.4629L46.9727-24.4629L46.2402-26.709L12.4512-26.709ZM55.127 0L57.7637 0L30.6152-70.459L29.4434-70.459L29.4434-67.1387Z"/>
  </g>
  <line id="Baseline-L" style="fill:none;stroke:#27AAE1;opacity:1;stroke-width:0.5;" x1="263" x2="3036" y1="1556" y2="1556"/>
  <line id="Capline-L" style="fill:none;stroke:#27AAE1;opacity:1;stroke-width:0.5;" x1="263" x2="3036" y1="1485.54" y2="1485.54"/>
  <line id="left-margin-Ultralight-S" style="fill:none;stroke:#00AEEF;stroke-width:0.5;opacity:1.0;" x1="518.598" x2="518.598" y1="600.785" y2="720.121"/>
  <line id="right-margin-Ultralight-S" style="fill:none;stroke:#00AEEF;stroke-width:0.5;opacity:1.0;" x1="600.824" x2="600.824" y1="600.785" y2="720.121"/>
  <line id="left-margin-Thin-S" style="fill:none;stroke:#00AEEF;stroke-width:0.5;opacity:1.0;" x1="814.869" x2="814.869" y1="600.785" y2="720.121"/>
  <line id="right-margin-Thin-S" style="fill:none;stroke:#00AEEF;stroke-width:0.5;opacity:1.0;" x1="897.975" x2="897.975" y1="600.785" y2="720.121"/>
  <line id="left-margin-Light-S" style="fill:none;stroke:#00AEEF;stroke-width:0.5;opacity:1.0;" x1="1110.7" x2="1110.7" y1="600.785" y2="720.121"/>
  <line id="right-margin-Light-S" style="fill:none;stroke:#00AEEF;stroke-width:0.5;opacity:1.0;" x1="1195.56" x2="1195.56" y1="600.785" y2="720.121"/>
  <line id="left-margin-Regular-S" style="fill:none;stroke:#00AEEF;stroke-width:0.5;opacity:1.0;" x1="1406.75" x2="1406.75" y1="600.785" y2="720.121"/>
  <line id="right-margin-Regular-S" style="fill:none;stroke:#00AEEF;stroke-width:0.5;opacity:1.0;" x1="1492.94" x2="1492.94" y1="600.785" y2="720.121"/>
  <line id="left-margin-Medium-S" style="fill:none;stroke:#00AEEF;stroke-width:0.5;opacity:1.0;" x1="1702.66" x2="1702.66" y1="600.785" y2="720.121"/>
  <line id="right-margin-Medium-S" style="fill:none;stroke:#00AEEF;stroke-width:0.5;opacity:1.0;" x1="1790.45" x2="1790.45" y1="600.785" y2="720.121"/>
  <line id="left-margin-Semibold-S" style="fill:none;stroke:#00AEEF;stroke-width:0.5;opacity:1.0;" x1="1998.74" x2="1998.74" y1="600.785" y2="720.121"/>
  <line id="right-margin-Semibold-S" style="fill:none;stroke:#00AEEF;stroke-width:0.5;opacity:1.0;" x1="2087.8" x2="2087.8" y1="600.785" y2="720.121"/>
  <line id="left-margin-Bold-S" style="fill:none;stroke:#00AEEF;stroke-width:0.5;opacity:1.0;" x1="2294.62" x2="2294.62" y1="600.785" y2="720.121"/>
  <line id="right-margin-Bold-S" style="fill:none;stroke:#00AEEF;stroke-width:0.5;opacity:1.0;" x1="2385.34" x2="2385.34" y1="600.785" y2="720.121"/>
  <line id="left-margin-Heavy-S" style="fill:none;stroke:#00AEEF;stroke-width:0.5;opacity:1.0;" x1="2590.16" x2="2590.16" y1="600.785" y2="720.121"/>
  <line id="right-margin-Heavy-S" style="fill:none;stroke:#00AEEF;stroke-width:0.5;opacity:1.0;" x1="2683.22" x2="2683.22" y1="600.785" y2="720.121"/>
  <line id="left-margin-Black-S" style="fill:none;stroke:#00AEEF;stroke-width:0.5;opacity:1.0;" x1="2885.79" x2="2885.79" y1="600.785" y2="720.121"/>
  <line id="right-margin-Black-S" style="fill:none;stroke:#00AEEF;stroke-width:0.5;opacity:1.0;" x1="2981.01" x2="2981.01" y1="600.785" y2="720.121"/>
  <line id="left-margin-Ultralight-M" style="fill:none;stroke:#00AEEF;stroke-width:0.5;opacity:1.0;" x1="507.392" x2="507.392" y1="1030.79" y2="1150.12"/>
  <line id="right-margin-Ultralight-M" style="fill:none;stroke:#00AEEF;stroke-width:0.5;opacity:1.0;" x1="612.03" x2="612.03" y1="1030.79" y2="1150.12"/>
  <line id="left-margin-Thin-M" style="fill:none;stroke:#00AEEF;stroke-width:0.5;opacity:1.0;" x1="803.59" x2="803.59" y1="1030.79" y2="1150.12"/>
  <line id="right-margin-Thin-M" style="fill:none;stroke:#00AEEF;stroke-width:0.5;opacity:1.0;" x1="909.254" x2="909.254" y1="1030.79" y2="1150.12"/>
  <line id="left-margin-Light-M" style="fill:none;stroke:#00AEEF;stroke-width:0.5;opacity:1.0;" x1="1099.32" x2="1099.32" y1="1030.79" y2="1150.12"/>
  <line id="right-margin-Light-M" style="fill:none;stroke:#00AEEF;stroke-width:0.5;opacity:1.0;" x1="1206.94" x2="1206.94" y1="1030.79" y2="1150.12"/>
  <line id="left-margin-Regular-M" style="fill:none;stroke:#00AEEF;stroke-width:0.5;opacity:1.0;" x1="1395.28" x2="1395.28" y1="1030.79" y2="1150.12"/>
  <line id="right-margin-Regular-M" style="fill:none;stroke:#00AEEF;stroke-width:0.5;opacity:1.0;" x1="1504.41" x2="1504.41" y1="1030.79" y2="1150.12"/>
  <line id="left-margin-Medium-M" style="fill:none;stroke:#00AEEF;stroke-width:0.5;opacity:1.0;" x1="1690.96" x2="1690.96" y1="1030.79" y2="1150.12"/>
  <line id="right-margin-Medium-M" style="fill:none;stroke:#00AEEF;stroke-width:0.5;opacity:1.0;" x1="1802.15" x2="1802.15" y1="1030.79" y2="1150.12"/>
  <line id="left-margin-Semibold-M" style="fill:none;stroke:#00AEEF;stroke-width:0.5;opacity:1.0;" x1="1986.87" x2="1986.87" y1="1030.79" y2="1150.12"/>
  <line id="right-margin-Semibold-M" style="fill:none;stroke:#00AEEF;stroke-width:0.5;opacity:1.0;" x1="2099.66" x2="2099.66" y1="1030.79" y2="1150.12"/>
  <line id="left-margin-Bold-M" style="fill:none;stroke:#00AEEF;stroke-width:0.5;opacity:1.0;" x1="2282.53" x2="2282.53" y1="1030.79" y2="1150.12"/>
  <line id="right-margin-Bold-M" style="fill:none;stroke:#00AEEF;stroke-width:0.5;opacity:1.0;" x1="2397.42" x2="2397.42" y1="1030.79" y2="1150.12"/>
  <line id="left-margin-Heavy-M" style="fill:none;stroke:#00AEEF;stroke-width:0.5;opacity:1.0;" x1="2577.73" x2="2577.73" y1="1030.79" y2="1150.12"/>
  <line id="right-margin-Heavy-M" style="fill:none;stroke:#00AEEF;stroke-width:0.5;opacity:1.0;" x1="2695.65" x2="2695.65" y1="1030.79" y2="1150.12"/>
  <line id="left-margin-Black-M" style="fill:none;stroke:#00AEEF;stroke-width:0.5;opacity:1.0;" x1="2873.1" x2="2873.1" y1="1030.79" y2="1150.12"/>
  <line id="right-margin-Black-M" style="fill:none;stroke:#00AEEF;stroke-width:0.5;opacity:1.0;" x1="2993.7" x2="2993.7" y1="1030.79" y2="1150.12"/>
  <line id="left-margin-Ultralight-L" style="fill:none;stroke:#00AEEF;stroke-width:0.5;opacity:1.0;" x1="492.402" x2="492.402" y1="1460.79" y2="1580.12"/>
  <line id="right-margin-Ultralight-L" style="fill:none;stroke:#00AEEF;stroke-width:0.5;opacity:1.0;" x1="627.021" x2="627.021" y1="1460.79" y2="1580.12"/>
  <line id="left-margin-Thin-L" style="fill:none;stroke:#00AEEF;stroke-width:0.5;opacity:1.0;" x1="788.551" x2="788.551" y1="1460.79" y2="1580.12"/>
  <line id="right-margin-Thin-L" style="fill:none;stroke:#00AEEF;stroke-width:0.5;opacity:1.0;" x1="924.293" x2="924.293" y1="1460.79" y2="1580.12"/>
  <line id="left-margin-Light-L" style="fill:none;stroke:#00AEEF;stroke-width:0.5;opacity:1.0;" x1="1084.16" x2="1084.16" y1="1460.79" y2="1580.12"/>
  <line id="right-margin-Light-L" style="fill:none;stroke:#00AEEF;stroke-width:0.5;opacity:1.0;" x1="1222.1" x2="1222.1" y1="1460.79" y2="1580.12"/>
  <line id="left-margin-Regular-L" style="fill:none;stroke:#00AEEF;stroke-width:0.5;opacity:1.0;" x1="1380.04" x2="1380.04" y1="1460.79" y2="1580.12"/>
  <line id="right-margin-Regular-L" style="fill:none;stroke:#00AEEF;stroke-width:0.5;opacity:1.0;" x1="1519.64" x2="1519.64" y1="1460.79" y2="1580.12"/>
  <line id="left-margin-Medium-L" style="fill:none;stroke:#00AEEF;stroke-width:0.5;opacity:1.0;" x1="1675.56" x2="1675.56" y1="1460.79" y2="1580.12"/>
  <line id="right-margin-Medium-L" style="fill:none;stroke:#00AEEF;stroke-width:0.5;opacity:1.0;" x1="1817.55" x2="1817.55" y1="1460.79" y2="1580.12"/>
  <line id="left-margin-Semibold-L" style="fill:none;stroke:#00AEEF;stroke-width:0.5;opacity:1.0;" x1="1971.37" x2="1971.37" y1="1460.79" y2="1580.12"/>
  <line id="right-margin-Semibold-L" style="fill:none;stroke:#00AEEF;stroke-width:0.5;opacity:1.0;" x1="2115.17" x2="2115.17" y1="1460.79" y2="1580.12"/>
  <line id="left-margin-Bold-L" style="fill:none;stroke:#00AEEF;stroke-width:0.5;opacity:1.0;" x1="2266.86" x2="2266.86" y1="1460.79" y2="1580.12"/>
  <line id="right-margin-Bold-L" style="fill:none;stroke:#00AEEF;stroke-width:0.5;opacity:1.0;" x1="2413.1" x2="2413.1" y1="1460.79" y2="1580.12"/>
  <line id="left-margin-Heavy-L" style="fill:none;stroke:#00AEEF;stroke-width:0.5;opacity:1.0;" x1="2561.81" x2="2561.81" y1="1460.79" y2="1580.12"/>
  <line id="right-margin-Heavy-L" style="fill:none;stroke:#00AEEF;stroke-width:0.5;opacity:1.0;" x1="2711.57" x2="2711.57" y1="1460.79" y2="1580.12"/>
  <line id="left-margin-Black-L" style="fill:none;stroke:#00AEEF;stroke-width:0.5;opacity:1.0;" x1="2856.96" x2="2856.96" y1="1460.79" y2="1580.12"/>
  <line id="right-margin-Black-L" style="fill:none;stroke:#00AEEF;stroke-width:0.5;opacity:1.0;" x1="3009.84" x2="3009.84" y1="1460.79" y2="1580.12"/>
 </g>
 <g id="Symbols">
  <g id="Black-L" transform="matrix(1 0 0 1 2856.96 1556)">
   <path class="multicolor-0:labelColor SFSymbolsPreview212121" d="M11.2793-23.4375Q11.2793-14.6484 14.9902-7.88574Q18.7012-1.12305 25.2686 2.70996Q31.8359 6.54297 40.3809 6.54297Q45.9473 6.54297 50.7568 4.93164Q55.5664 3.32031 58.9844 0.317383Q62.4023-2.68555 63.8184-6.88477L65.1855-6.88477Q65.0391-2.73438 63.0127 0.439453Q60.9863 3.61328 58.1543 5.98145Q55.3223 8.34961 52.5879 10.0342Q49.8535 11.7188 48.3398 12.9395Q45.752 14.8926 44.8242 17.9688Q43.8965 21.0449 44.5801 24.0967Q45.2637 27.1484 47.6074 29.1992Q49.9512 31.25 53.9062 31.25L98.9746 31.25Q102.979 31.25 105.298 29.1992Q107.617 27.1484 108.325 24.0967Q109.033 21.0449 108.081 17.9688Q107.129 14.8926 104.541 12.9395Q103.027 11.7188 100.293 10.0342Q97.5586 8.34961 94.7266 5.98145Q91.8945 3.61328 89.8682 0.439453Q87.8418-2.73438 87.6953-6.88477L89.1113-6.88477Q90.4785-2.68555 93.8965 0.317383Q97.3145 3.32031 102.148 4.93164Q106.982 6.54297 112.549 6.54297Q121.094 6.54297 127.637 2.70996Q134.18-1.12305 137.891-7.88574Q141.602-14.6484 141.602-23.4375Q141.602-31.0059 138.867-37.2559Q136.133-43.5059 131.494-49.0234Q126.855-54.541 121.118-59.8145Q115.381-65.0879 109.302-70.6543Q103.223-76.2207 97.6074-82.6416Q91.9922-89.0625 87.6953-96.875Q85.6934-100.537 83.0566-102.563Q80.4199-104.59 76.4648-104.59Q72.4609-104.59 69.8486-102.563Q67.2363-100.537 65.1855-96.875Q60.8887-89.0625 55.2734-82.6416Q49.6582-76.2207 43.5791-70.6543Q37.5-65.0879 31.7627-59.8145Q26.0254-54.541 21.3867-49.0234Q16.748-43.5059 14.0137-37.2559Q11.2793-31.0059 11.2793-23.4375Z"/>
  </g>
  <g id="Heavy-L" transform="matrix(1 0 0 1 2561.81 1556)">
   <path class="multicolor-0:labelColor SFSymbolsPreview212121" d="M11.2793-23.584Q11.2793-15.0879 14.917-8.52051Q18.5547-1.95312 25 1.80664Q31.4453 5.56641 39.7461 5.56641Q45.0195 5.56641 49.6338 4.07715Q54.248 2.58789 57.6172-0.244141Q60.9863-3.07617 62.5488-7.12891L63.7207-7.12891Q63.5742-3.17383 61.6943-0.0732422Q59.8145 3.02734 57.1289 5.41992Q54.4434 7.8125 51.8311 9.59473Q49.2188 11.377 47.7051 12.6953Q45.3613 14.5996 44.5557 17.3828Q43.75 20.166 44.4092 22.9004Q45.0684 25.6348 47.2168 27.4414Q49.3652 29.248 52.8809 29.248L96.875 29.248Q100.439 29.248 102.563 27.4414Q104.688 25.6348 105.371 22.9004Q106.055 20.166 105.225 17.3828Q104.395 14.5996 102.051 12.6953Q100.537 11.377 97.9248 9.59473Q95.3125 7.8125 92.627 5.41992Q89.9414 3.02734 88.0615-0.0732422Q86.1816-3.17383 86.0352-7.12891L87.2559-7.12891Q88.7207-3.07617 92.0898-0.244141Q95.459 2.58789 100.122 4.07715Q104.785 5.56641 110.059 5.56641Q118.359 5.56641 124.756 1.80664Q131.152-1.95312 134.814-8.52051Q138.477-15.0879 138.477-23.584Q138.477-31.0059 135.718-37.1582Q132.959-43.3105 128.296-48.7305Q123.633-54.1504 117.896-59.375Q112.158-64.5996 106.128-70.1172Q100.098-75.6348 94.5557-82.0068Q89.0137-88.3789 84.8145-96.1426Q83.1055-99.3652 80.7617-101.196Q78.418-103.027 74.9023-103.027Q71.2891-103.027 68.9941-101.196Q66.6992-99.3652 64.8926-96.1426Q60.7422-88.3789 55.2002-82.0068Q49.6582-75.6348 43.6035-70.1172Q37.5488-64.5996 31.8115-59.375Q26.0742-54.1504 21.4355-48.7305Q16.7969-43.3105 14.0381-37.1582Q11.2793-31.0059 11.2793-23.584Z"/>
  </g>
  <g id="Bold-L" transform="matrix(1 0 0 1 2266.86 1556)">
   <path class="multicolor-0:labelColor SFSymbolsPreview212121" d="M11.2793-23.7305Q11.2793-15.5762 14.8682-9.2041Q18.457-2.83203 24.707 0.805664Q30.957 4.44336 39.0137 4.44336Q43.9453 4.44336 48.3643 3.125Q52.7832 1.80664 56.1279-0.854492Q59.4727-3.51562 61.084-7.42188L62.1094-7.42188Q61.9629-3.71094 60.2295-0.683594Q58.4961 2.34375 56.0059 4.78516Q53.5156 7.22656 51.0254 9.13086Q48.5352 11.0352 46.9727 12.4512Q44.873 14.2578 44.2139 16.748Q43.5547 19.2383 44.2139 21.582Q44.873 23.9258 46.8018 25.4639Q48.7305 27.002 51.7578 27.002L94.4824 27.002Q97.5586 27.002 99.4629 25.4639Q101.367 23.9258 102.051 21.582Q102.734 19.2383 102.051 16.748Q101.367 14.2578 99.2676 12.4512Q97.7051 11.0352 95.2393 9.13086Q92.7734 7.22656 90.2832 4.78516Q87.793 2.34375 86.0352-0.683594Q84.2773-3.71094 84.1309-7.42188L85.2051-7.42188Q86.8164-3.51562 90.1367-0.854492Q93.457 1.80664 97.9004 3.125Q102.344 4.44336 107.275 4.44336Q115.283 4.44336 121.558 0.805664Q127.832-2.83203 131.396-9.2041Q134.961-15.5762 134.961-23.7305Q134.961-31.0059 132.202-37.0361Q129.443-43.0664 124.756-48.4131Q120.068-53.7598 114.331-58.9111Q108.594-64.0625 102.588-69.5312Q96.582-75 91.1133-81.3232Q85.6445-87.6465 81.6406-95.3613Q80.1758-98.0957 78.1982-99.6826Q76.2207-101.27 73.1445-101.27Q70.0195-101.27 68.042-99.6826Q66.0645-98.0957 64.5996-95.3613Q60.5957-87.6465 55.1514-81.3232Q49.707-75 43.6768-69.5312Q37.6465-64.0625 31.9092-58.9111Q26.1719-53.7598 21.5088-48.4131Q16.8457-43.0664 14.0625-37.0361Q11.2793-31.0059 11.2793-23.7305Z"/>
  </g>
  <g id="Semibold-L" transform="matrix(1 0 0 1 1971.37 1556)">
   <path class="multicolor-0:labelColor SFSymbolsPreview212121" d="M11.2793-23.8281Q11.2793-15.918 14.7949-9.69238Q18.3105-3.4668 24.4629 0.0976562Q30.6152 3.66211 38.5254 3.66211Q43.2129 3.66211 47.4854 2.44141Q51.7578 1.2207 55.0537-1.29395Q58.3496-3.80859 60.1074-7.56836L60.9375-7.56836Q60.8398-4.05273 59.2041-1.07422Q57.5684 1.9043 55.2002 4.37012Q52.832 6.83594 50.4395 8.78906Q48.0469 10.7422 46.4844 12.2559Q44.5312 14.0137 43.9697 16.2842Q43.4082 18.5547 44.0674 20.6299Q44.7266 22.7051 46.4844 24.0723Q48.2422 25.4395 50.9766 25.4395L92.8711 25.4395Q95.6055 25.4395 97.3389 24.0723Q99.0723 22.7051 99.7314 20.6299Q100.391 18.5547 99.8291 16.2842Q99.2676 14.0137 97.3633 12.2559Q95.752 10.7422 93.3838 8.78906Q91.0156 6.83594 88.6475 4.37012Q86.2793 1.9043 84.6191-1.07422Q82.959-4.05273 82.8125-7.56836L83.7402-7.56836Q85.4492-3.80859 88.7451-1.29395Q92.041 1.2207 96.3379 2.44141Q100.635 3.66211 105.322 3.66211Q113.184 3.66211 119.336 0.0976562Q125.488-3.4668 129.004-9.69238Q132.52-15.918 132.52-23.8281Q132.52-31.0059 129.736-36.9629Q126.953-42.9199 122.266-48.1934Q117.578-53.4668 111.841-58.5693Q106.104-63.6719 100.122-69.1162Q94.1406-74.5605 88.7451-80.835Q83.3496-87.1094 79.3945-94.7754Q78.1738-97.168 76.416-98.6084Q74.6582-100.049 71.9238-100.049Q69.1406-100.049 67.3828-98.6084Q65.625-97.168 64.4043-94.7754Q60.498-87.1094 55.1025-80.835Q49.707-74.5605 43.7012-69.1162Q37.6953-63.6719 31.958-58.5693Q26.2207-53.4668 21.5332-48.1934Q16.8457-42.9199 14.0625-36.9629Q11.2793-31.0059 11.2793-23.8281Z"/>
  </g>
  <g id="Medium-L" transform="matrix(1 0 0 1 1675.56 1556)">
   <path class="multicolor-0:labelColor SFSymbolsPreview212121" d="M11.2793-23.877Q11.2793-16.1621 14.7705-10.0342Q18.2617-3.90625 24.3164-0.415039Q30.3711 3.07617 38.1348 3.07617Q42.6758 3.07617 46.8506 1.92871Q51.0254 0.78125 54.2969-1.61133Q57.5684-4.00391 59.3262-7.71484L60.1074-7.71484Q60.0098-4.3457 58.4473-1.41602Q56.8848 1.51367 54.5898 4.00391Q52.2949 6.49414 50 8.52051Q47.7051 10.5469 46.0938 12.1094Q44.2871 13.8672 43.8232 15.9424Q43.3594 18.0176 43.9941 19.9219Q44.6289 21.8262 46.2646 23.0469Q47.9004 24.2676 50.3906 24.2676L91.6016 24.2676Q94.0918 24.2676 95.7275 23.0469Q97.3633 21.8262 98.0225 19.9219Q98.6816 18.0176 98.1689 15.9424Q97.6562 13.8672 95.8984 12.1094Q94.2871 10.5469 91.9678 8.52051Q89.6484 6.49414 87.3779 4.00391Q85.1074 1.51367 83.5449-1.41602Q81.9824-4.3457 81.8359-7.71484L82.666-7.71484Q84.4238-4.00391 87.6953-1.61133Q90.9668 0.78125 95.1416 1.92871Q99.3164 3.07617 103.857 3.07617Q111.572 3.07617 117.651-0.415039Q123.73-3.90625 127.222-10.0342Q130.713-16.1621 130.713-23.877Q130.713-31.0059 127.905-36.8896Q125.098-42.7734 120.41-48.0225Q115.723-53.2715 109.985-58.3496Q104.248-63.4277 98.2666-68.8232Q92.2852-74.2188 86.9385-80.4688Q81.5918-86.7188 77.7344-94.3359Q76.6602-96.4844 75.0732-97.8027Q73.4863-99.1211 70.9961-99.1211Q68.457-99.1211 66.8945-97.8027Q65.332-96.4844 64.209-94.3359Q60.4004-86.7188 55.0537-80.4688Q49.707-74.2188 43.7256-68.8232Q37.7441-63.4277 32.0068-58.3496Q26.2695-53.2715 21.5576-48.0225Q16.8457-42.7734 14.0625-36.8896Q11.2793-31.0059 11.2793-23.877Z"/>
  </g>
  <g id="Regular-L" transform="matrix(1 0 0 1 1380.04 1556)">
   <path class="multicolor-0:labelColor SFSymbolsPreview212121" d="M11.2793-23.9746Q11.2793-16.5039 14.7217-10.5225Q18.1641-4.54102 24.1211-1.09863Q30.0781 2.34375 37.6465 2.34375Q41.9434 2.34375 45.9717 1.29395Q50 0.244141 53.2471-2.02637Q56.4941-4.29688 58.3496-7.91016L58.9844-7.91016Q58.8867-4.6875 57.4219-1.80664Q55.957 1.07422 53.8086 3.58887Q51.6602 6.10352 49.4385 8.20312Q47.2168 10.3027 45.6055 11.9141Q43.9941 13.623 43.6035 15.5029Q43.2129 17.3828 43.8477 19.0186Q44.4824 20.6543 45.9717 21.7041Q47.4609 22.7539 49.6094 22.7539L89.9902 22.7539Q92.1387 22.7539 93.6279 21.7041Q95.1172 20.6543 95.752 19.0186Q96.3867 17.3828 95.9961 15.5029Q95.6055 13.623 93.9941 11.9141Q92.3828 10.3027 90.1611 8.20312Q87.9395 6.10352 85.791 3.58887Q83.6426 1.07422 82.1777-1.80664Q80.7129-4.6875 80.5664-7.91016L81.25-7.91016Q83.1055-4.29688 86.3281-2.02637Q89.5508 0.244141 93.6035 1.29395Q97.6562 2.34375 101.953 2.34375Q109.473 2.34375 115.454-1.09863Q121.436-4.54102 124.878-10.5225Q128.32-16.5039 128.32-23.9746Q128.32-31.0059 125.513-36.8164Q122.705-42.627 117.993-47.8027Q113.281-52.9785 107.544-58.0078Q101.807-63.0371 95.8496-68.4082Q89.8926-73.7793 84.5947-80.0049Q79.2969-86.2305 75.5371-93.7988Q74.6582-95.6055 73.3154-96.7773Q71.9727-97.9492 69.7754-97.9492Q67.5781-97.9492 66.2354-96.7773Q64.8926-95.6055 64.0137-93.7988Q60.3027-86.2305 55.0049-80.0049Q49.707-73.7793 43.75-68.4082Q37.793-63.0371 32.0557-58.0078Q26.3184-52.9785 21.6064-47.8027Q16.8945-42.627 14.0869-36.8164Q11.2793-31.0059 11.2793-23.9746Z"/>
  </g>
  <g id="Light-L" transform="matrix(1 0 0 1 1084.16 1556)">
   <path class="multicolor-0:labelColor SFSymbolsPreview212121" d="M11.2793-24.707Q11.2793-17.2363 14.5996-11.377Q17.9199-5.51758 23.7793-2.17285Q29.6387 1.17188 37.207 1.17188Q41.6504 1.17188 45.7031 0.0244141Q49.7559-1.12305 52.9541-3.44238Q56.1523-5.76172 58.0078-9.27734L58.6914-9.27734Q58.3984-5.95703 56.9092-3.02734Q55.4199-0.0976562 53.2715 2.51465Q51.123 5.12695 48.8281 7.34863Q46.5332 9.57031 44.6289 11.4258Q43.1152 12.9883 42.749 14.7461Q42.3828 16.5039 42.9688 18.042Q43.5547 19.5801 44.9951 20.5811Q46.4355 21.582 48.5352 21.582L89.4043 21.582Q91.5039 21.582 92.9443 20.5811Q94.3848 19.5801 94.9707 18.042Q95.5566 16.5039 95.1904 14.7461Q94.8242 12.9883 93.2617 11.4258Q91.4062 9.57031 89.1113 7.34863Q86.8164 5.12695 84.668 2.51465Q82.5195-0.0976562 81.0303-3.02734Q79.541-5.95703 79.1992-9.27734L79.8828-9.27734Q81.7871-5.76172 84.9609-3.44238Q88.1348-1.12305 92.2119 0.0244141Q96.2891 1.17188 100.732 1.17188Q108.252 1.17188 114.136-2.17285Q120.02-5.51758 123.34-11.377Q126.66-17.2363 126.66-24.707Q126.66-31.6895 123.828-37.4023Q120.996-43.1152 116.235-48.1934Q111.475-53.2715 105.688-58.2031Q99.9023-63.1348 93.9209-68.457Q87.9395-73.7793 82.6416-79.9561Q77.3438-86.1328 73.6328-93.7012Q72.9004-95.2637 71.8262-96.2646Q70.752-97.2656 68.9453-97.2656Q67.1875-97.2656 66.0889-96.2646Q64.9902-95.2637 64.2578-93.7012Q60.5957-86.1328 55.2979-79.9561Q50-73.7793 44.0186-68.457Q38.0371-63.1348 32.251-58.2031Q26.4648-53.2715 21.7041-48.1934Q16.9434-43.1152 14.1113-37.4023Q11.2793-31.6895 11.2793-24.707Z"/>
  </g>
  <g id="Thin-L" transform="matrix(1 0 0 1 788.551 1556)">
   <path class="multicolor-0:labelColor SFSymbolsPreview212121" d="M11.2793-25.7324Q11.2793-18.2129 14.4531-12.5Q17.627-6.78711 23.3398-3.61328Q29.0527-0.439453 36.5723-0.439453Q41.2598-0.439453 45.3369-1.68457Q49.4141-2.92969 52.5635-5.32227Q55.7129-7.71484 57.6172-11.084L58.3008-11.084Q57.7148-7.66602 56.2012-4.63867Q54.6875-1.61133 52.5635 1.07422Q50.4395 3.75977 48.0469 6.20117Q45.6543 8.64258 43.4082 10.8398Q41.9434 12.1582 41.6016 13.7695Q41.2598 15.3809 41.8213 16.7969Q42.3828 18.2129 43.7256 19.1162Q45.0684 20.0195 47.1191 20.0195L88.623 20.0195Q90.6738 20.0195 92.0166 19.1162Q93.3594 18.2129 93.9209 16.7969Q94.4824 15.3809 94.1406 13.7695Q93.7988 12.1582 92.334 10.8398Q90.0879 8.64258 87.6953 6.20117Q85.3027 3.75977 83.1787 1.07422Q81.0547-1.61133 79.541-4.63867Q78.0273-7.66602 77.4414-11.084L78.0762-11.084Q80.0293-7.71484 83.1787-5.32227Q86.3281-2.92969 90.3809-1.68457Q94.4336-0.439453 99.1211-0.439453Q106.641-0.439453 112.378-3.61328Q118.115-6.78711 121.289-12.5Q124.463-18.2129 124.463-25.7324Q124.463-32.5684 121.582-38.1836Q118.701-43.7988 113.892-48.7305Q109.082-53.6621 103.247-58.4961Q97.4121-63.3301 91.4062-68.5303Q85.4004-73.7305 80.0781-79.8584Q74.7559-85.9863 71.1426-93.6035Q70.5566-94.8242 69.8242-95.5811Q69.0918-96.3379 67.8223-96.3379Q66.6504-96.3379 65.918-95.5811Q65.1855-94.8242 64.5996-93.6035Q60.9863-85.9863 55.6641-79.8584Q50.3418-73.7305 44.3359-68.5303Q38.3301-63.3301 32.4707-58.4961Q26.6113-53.6621 21.8262-48.7305Q17.041-43.7988 14.1602-38.1836Q11.2793-32.5684 11.2793-25.7324Z"/>
  </g>
  <g id="Ultralight-L" transform="matrix(1 0 0 1 492.402 1556)">
   <path class="multicolor-0:labelColor SFSymbolsPreview212121" d="M11.2793-26.2207Q11.2793-18.7012 14.3799-13.0859Q17.4805-7.4707 23.1201-4.3457Q28.7598-1.2207 36.2793-1.2207Q41.0645-1.2207 45.1416-2.53906Q49.2188-3.85742 52.3682-6.27441Q55.5176-8.69141 57.373-12.0117L58.0566-12.0117Q57.373-8.54492 55.8594-5.49316Q54.3457-2.44141 52.1973 0.341797Q50.0488 3.125 47.6074 5.63965Q45.166 8.1543 42.7246 10.498Q41.3574 11.7676 41.0156 13.2812Q40.6738 14.7949 41.2109 16.1377Q41.748 17.4805 43.0664 18.335Q44.3848 19.1895 46.3867 19.1895L88.2324 19.1895Q90.2344 19.1895 91.5527 18.335Q92.8711 17.4805 93.4082 16.1377Q93.9453 14.7949 93.6035 13.2812Q93.2617 11.7676 91.8457 10.498Q89.4531 8.1543 86.9873 5.63965Q84.5215 3.125 82.3975 0.341797Q80.2734-2.44141 78.7354-5.49316Q77.1973-8.54492 76.5137-12.0117L77.1484-12.0117Q79.1016-8.69141 82.2266-6.27441Q85.3516-3.85742 89.4287-2.53906Q93.5059-1.2207 98.291-1.2207Q105.859-1.2207 111.499-4.3457Q117.139-7.4707 120.239-13.0859Q123.34-18.7012 123.34-26.2207Q123.34-33.0566 120.435-38.5986Q117.529-44.1406 112.695-49.0234Q107.861-53.9062 102.002-58.6426Q96.1426-63.3789 90.1123-68.5547Q84.082-73.7305 78.7598-79.8096Q73.4375-85.8887 69.873-93.5059Q69.3359-94.6289 68.7988-95.2393Q68.2617-95.8496 67.2852-95.8496Q66.3574-95.8496 65.7959-95.2393Q65.2344-94.6289 64.7461-93.5059Q61.1816-85.8887 55.8594-79.8096Q50.5371-73.7305 44.5068-68.5547Q38.4766-63.3789 32.5928-58.6426Q26.709-53.9062 21.8994-49.0234Q17.0898-44.1406 14.1846-38.5986Q11.2793-33.0566 11.2793-26.2207Z"/>
  </g>
  <g id="Black-M" transform="matrix(1 0 0 1 2873.1 1126)">
   <path class="multicolor-0:labelColor SFSymbolsPreview212121" d="M8.74023-26.2207Q8.74023-19.1406 11.6211-13.7939Q14.502-8.44727 19.6777-5.44434Q24.8535-2.44141 31.6895-2.44141Q38.623-2.44141 43.7988-5.46875Q48.9746-8.49609 50.4395-13.5254L51.6602-13.5254Q51.5137-10.0586 49.8047-7.51953Q48.0957-4.98047 45.752-3.14941Q43.4082-1.31836 41.1865-0.0488281Q38.9648 1.2207 37.6953 2.09961Q35.5469 3.66211 34.6924 6.25Q33.8379 8.83789 34.375 11.4502Q34.9121 14.0625 36.8896 15.8447Q38.8672 17.627 42.2852 17.627L78.3203 17.627Q81.7871 17.627 83.7402 15.8447Q85.6934 14.0625 86.2305 11.4502Q86.7676 8.83789 85.9131 6.25Q85.0586 3.66211 82.9102 2.09961Q81.6406 1.2207 79.4189-0.0488281Q77.1973-1.31836 74.8535-3.14941Q72.5098-4.98047 70.8252-7.51953Q69.1406-10.0586 68.9453-13.5254L70.166-13.5254Q71.6309-8.49609 76.8066-5.46875Q81.9824-2.44141 88.916-2.44141Q95.752-2.44141 100.928-5.44434Q106.104-8.44727 108.984-13.7939Q111.865-19.1406 111.865-26.2207Q111.865-32.1777 109.741-37.085Q107.617-41.9922 104.028-46.2891Q100.439-50.5859 95.9717-54.6875Q91.5039-58.7891 86.7676-63.1348Q82.0312-67.4805 77.6123-72.4854Q73.1934-77.4902 69.7754-83.5938Q68.0176-86.7676 65.8203-88.4277Q63.623-90.0879 60.3027-90.0879Q56.9824-90.0879 54.7852-88.4277Q52.5879-86.7676 50.8301-83.5938Q47.4121-77.4902 42.9932-72.4854Q38.5742-67.4805 33.8379-63.1348Q29.1016-58.7891 24.6338-54.6875Q20.166-50.5859 16.5771-46.2891Q12.9883-41.9922 10.8643-37.085Q8.74023-32.1777 8.74023-26.2207Z"/>
  </g>
  <g id="Heavy-M" transform="matrix(1 0 0 1 2577.73 1126)">
   <path class="multicolor-0:labelColor SFSymbolsPreview212121" d="M8.74023-26.1719Q8.74023-19.3848 11.5967-14.209Q14.4531-9.0332 19.5068-6.0791Q24.5605-3.125 31.1523-3.125Q37.5977-3.125 42.6025-5.85938Q47.6074-8.59375 49.2676-13.4766L50.293-13.4766Q50.1953-10.2539 48.6328-7.78809Q47.0703-5.32227 44.873-3.4668Q42.6758-1.61133 40.5762-0.292969Q38.4766 1.02539 37.2559 2.00195Q35.3027 3.51562 34.5703 5.83496Q33.8379 8.1543 34.375 10.4736Q34.9121 12.793 36.7188 14.3555Q38.5254 15.918 41.5039 15.918L76.3672 15.918Q79.4434 15.918 81.2012 14.3555Q82.959 12.793 83.4961 10.4736Q84.0332 8.1543 83.3008 5.83496Q82.5684 3.51562 80.6152 2.00195Q79.3945 1.02539 77.2949-0.292969Q75.1953-1.61133 73.0225-3.4668Q70.8496-5.32227 69.2871-7.78809Q67.7246-10.2539 67.5781-13.4766L68.6523-13.4766Q70.2637-8.59375 75.293-5.85938Q80.3223-3.125 86.7188-3.125Q93.3594-3.125 98.4131-6.0791Q103.467-9.0332 106.323-14.209Q109.18-19.3848 109.18-26.1719Q109.18-32.0312 107.031-36.8652Q104.883-41.6992 101.294-45.9473Q97.7051-50.1953 93.2373-54.248Q88.7695-58.3008 84.0576-62.6221Q79.3457-66.9434 75.0244-71.8994Q70.7031-76.8555 67.3828-82.9102Q65.8691-85.6934 63.916-87.207Q61.9629-88.7207 58.9355-88.7207Q55.957-88.7207 54.0039-87.207Q52.0508-85.6934 50.5371-82.9102Q47.2168-76.8555 42.8711-71.8994Q38.5254-66.9434 33.8135-62.6221Q29.1016-58.3008 24.6582-54.248Q20.2148-50.1953 16.6016-45.9473Q12.9883-41.6992 10.8643-36.8652Q8.74023-32.0312 8.74023-26.1719Z"/>
  </g>
  <g id="Bold-M" transform="matrix(1 0 0 1 2282.53 1126)">
   <path class="multicolor-0:labelColor SFSymbolsPreview212121" d="M8.74023-26.1719Q8.74023-19.7266 11.5479-14.6973Q14.3555-9.66797 19.2871-6.81152Q24.2188-3.95508 30.5664-3.95508Q36.4746-3.95508 41.3086-6.34766Q46.1426-8.74023 47.9492-13.4277L48.7793-13.4277Q48.7305-10.4492 47.3145-8.08105Q45.8984-5.71289 43.8965-3.85742Q41.8945-2.00195 39.9414-0.561523Q37.9883 0.878906 36.8164 1.85547Q35.0586 3.32031 34.4727 5.37109Q33.8867 7.42188 34.4238 9.39941Q34.9609 11.377 36.5479 12.6953Q38.1348 14.0137 40.6738 14.0137L74.2188 14.0137Q76.8066 14.0137 78.3691 12.6953Q79.9316 11.377 80.4688 9.39941Q81.0059 7.42188 80.4199 5.37109Q79.834 3.32031 78.0762 1.85547Q76.9043 0.878906 74.9512-0.561523Q72.998-2.00195 70.9961-3.85742Q68.9941-5.71289 67.6025-8.08105Q66.2109-10.4492 66.1133-13.4277L66.9434-13.4277Q68.75-8.74023 73.584-6.34766Q78.418-3.95508 84.3262-3.95508Q90.6738-3.95508 95.6055-6.81152Q100.537-9.66797 103.345-14.6973Q106.152-19.7266 106.152-26.1719Q106.152-31.8848 104.004-36.6211Q101.855-41.3574 98.2422-45.5322Q94.6289-49.707 90.1855-53.7354Q85.7422-57.7637 81.0791-62.0361Q76.416-66.3086 72.1436-71.2402Q67.8711-76.1719 64.6973-82.1777Q63.4766-84.4727 61.7676-85.8154Q60.0586-87.1582 57.4219-87.1582Q54.834-87.1582 53.125-85.8154Q51.416-84.4727 50.1953-82.1777Q47.0215-76.1719 42.749-71.2402Q38.4766-66.3086 33.8135-62.0361Q29.1504-57.7637 24.707-53.7354Q20.2637-49.707 16.6504-45.5322Q13.0371-41.3574 10.8887-36.6211Q8.74023-31.8848 8.74023-26.1719Z"/>
  </g>
  <g id="Semibold-M" transform="matrix(1 0 0 1 1986.87 1126)">
   <path class="multicolor-0:labelColor SFSymbolsPreview212121" d="M8.74023-26.123Q8.74023-19.9219 11.5234-15.0146Q14.3066-10.1074 19.1406-7.2998Q23.9746-4.49219 30.127-4.49219Q35.6445-4.49219 40.3564-6.66504Q45.0684-8.83789 47.0215-13.3789L47.7539-13.3789Q47.7051-10.5957 46.3867-8.27637Q45.0684-5.95703 43.1885-4.07715Q41.3086-2.19727 39.4531-0.732422Q37.5977 0.732422 36.4746 1.75781Q34.8633 3.17383 34.375 5.0293Q33.8867 6.88477 34.4238 8.64258Q34.9609 10.4004 36.4014 11.5234Q37.8418 12.6465 40.0879 12.6465L72.7051 12.6465Q74.9512 12.6465 76.3672 11.5234Q77.7832 10.4004 78.3203 8.64258Q78.8574 6.88477 78.3691 5.0293Q77.8809 3.17383 76.3184 1.75781Q75.1465 0.732422 73.3154-0.732422Q71.4844-2.19727 69.6045-4.07715Q67.7246-5.95703 66.4062-8.27637Q65.0879-10.5957 65.0391-13.3789L65.7715-13.3789Q67.7246-8.83789 72.4121-6.66504Q77.0996-4.49219 82.6172-4.49219Q88.7695-4.49219 93.6279-7.2998Q98.4863-10.1074 101.27-15.0146Q104.053-19.9219 104.053-26.123Q104.053-31.7383 101.88-36.4258Q99.707-41.1133 96.1182-45.2393Q92.5293-49.3652 88.0615-53.3691Q83.5938-57.373 78.9551-61.6211Q74.3164-65.8691 70.1172-70.752Q65.918-75.6348 62.8418-81.6406Q61.7676-83.6426 60.2539-84.8633Q58.7402-86.084 56.3965-86.084Q54.0039-86.084 52.4902-84.8633Q50.9766-83.6426 49.9512-81.6406Q46.8262-75.6348 42.627-70.752Q38.4277-65.8691 33.7891-61.6211Q29.1504-57.373 24.707-53.3691Q20.2637-49.3652 16.6504-45.2393Q13.0371-41.1133 10.8887-36.4258Q8.74023-31.7383 8.74023-26.123Z"/>
  </g>
  <g id="Medium-M" transform="matrix(1 0 0 1 1690.96 1126)">
   <path class="multicolor-0:labelColor SFSymbolsPreview212121" d="M8.74023-26.123Q8.74023-20.0684 11.499-15.2588Q14.2578-10.4492 19.043-7.66602Q23.8281-4.88281 29.7852-4.88281Q35.0586-4.88281 39.6729-6.88477Q44.2871-8.88672 46.3379-13.3301L46.9238-13.3301Q46.9238-10.6934 45.6787-8.44727Q44.4336-6.20117 42.6514-4.29688Q40.8691-2.39258 39.0869-0.878906Q37.3047 0.634766 36.2305 1.70898Q34.7656 3.125 34.3506 4.80957Q33.9355 6.49414 34.4482 8.08105Q34.9609 9.66797 36.3037 10.6689Q37.6465 11.6699 39.6484 11.6699L71.5332 11.6699Q73.584 11.6699 74.9023 10.6689Q76.2207 9.66797 76.7578 8.08105Q77.2949 6.49414 76.8799 4.80957Q76.4648 3.125 75 1.70898Q73.8281 0.634766 72.0703-0.878906Q70.3125-2.39258 68.5303-4.29688Q66.748-6.20117 65.5273-8.44727Q64.3066-10.6934 64.2578-13.3301L64.8926-13.3301Q66.8945-8.88672 71.5088-6.88477Q76.123-4.88281 81.3477-4.88281Q87.4023-4.88281 92.1631-7.66602Q96.9238-10.4492 99.6826-15.2588Q102.441-20.0684 102.441-26.123Q102.441-31.6406 100.293-36.2793Q98.1445-40.918 94.5312-45.0195Q90.918-49.1211 86.4746-53.125Q82.0312-57.1289 77.417-61.3525Q72.8027-65.5762 68.6279-70.4346Q64.4531-75.293 61.4258-81.25Q60.5469-83.0078 59.1553-84.1553Q57.7637-85.3027 55.5664-85.3027Q53.418-85.3027 52.0508-84.1553Q50.6836-83.0078 49.7559-81.25Q46.7285-75.293 42.5781-70.4346Q38.4277-65.5762 33.7891-61.3525Q29.1504-57.1289 24.707-53.125Q20.2637-49.1211 16.6748-45.0195Q13.0859-40.918 10.9131-36.2793Q8.74023-31.6406 8.74023-26.123Z"/>
  </g>
  <g id="Regular-M" transform="matrix(1 0 0 1 1395.28 1126)">
   <path class="multicolor-0:labelColor SFSymbolsPreview212121" d="M8.74023-26.0742Q8.74023-20.2637 11.4746-15.5762Q14.209-10.8887 18.8965-8.1543Q23.584-5.41992 29.3945-5.41992Q34.2773-5.41992 38.7695-7.20215Q43.2617-8.98438 45.4102-13.2812L45.8984-13.2812Q45.8984-10.8398 44.7754-8.64258Q43.6523-6.44531 41.9922-4.54102Q40.332-2.63672 38.6475-1.07422Q36.9629 0.488281 35.8887 1.61133Q34.5703 2.97852 34.2529 4.49219Q33.9355 6.00586 34.4482 7.34863Q34.9609 8.69141 36.1572 9.52148Q37.3535 10.3516 39.0625 10.3516L70.0684 10.3516Q71.7773 10.3516 72.9492 9.52148Q74.1211 8.69141 74.6582 7.34863Q75.1953 6.00586 74.8779 4.49219Q74.5605 2.97852 73.2422 1.61133Q72.1191 0.488281 70.459-1.07422Q68.7988-2.63672 67.1387-4.54102Q65.4785-6.44531 64.3555-8.64258Q63.2324-10.8398 63.2324-13.2812L63.7207-13.2812Q65.8691-8.98438 70.3613-7.20215Q74.8535-5.41992 79.6875-5.41992Q85.5469-5.41992 90.2344-8.1543Q94.9219-10.8887 97.6562-15.5762Q100.391-20.2637 100.391-26.0742Q100.391-31.543 98.2178-36.1084Q96.0449-40.6738 92.4316-44.751Q88.8184-48.8281 84.375-52.7832Q79.9316-56.7383 75.3418-60.9375Q70.752-65.1367 66.6504-69.9707Q62.5488-74.8047 59.6191-80.7129Q58.8867-82.1777 57.6904-83.2031Q56.4941-84.2285 54.541-84.2285Q52.6367-84.2285 51.4404-83.2031Q50.2441-82.1777 49.5117-80.7129Q46.582-74.8047 42.4805-69.9707Q38.3789-65.1367 33.7646-60.9375Q29.1504-56.7383 24.7314-52.7832Q20.3125-48.8281 16.6992-44.751Q13.0859-40.6738 10.9131-36.1084Q8.74023-31.543 8.74023-26.0742Z"/>
  </g>
  <g id="Light-M" transform="matrix(1 0 0 1 1099.32 1126)">
   <path class="multicolor-0:labelColor SFSymbolsPreview212121" d="M8.74023-26.7578Q8.74023-20.9473 11.377-16.3574Q14.0137-11.7676 18.6035-9.13086Q23.1934-6.49414 29.0039-6.49414Q34.082-6.49414 38.501-8.42285Q42.9199-10.3516 45.1172-14.502L45.6055-14.502Q45.459-12.0117 44.3115-9.74121Q43.1641-7.4707 41.5039-5.49316Q39.8438-3.51562 38.1104-1.83105Q36.377-0.146484 35.0098 1.17188Q33.7891 2.44141 33.4961 3.83301Q33.2031 5.22461 33.667 6.46973Q34.1309 7.71484 35.2783 8.49609Q36.4258 9.27734 38.0859 9.27734L69.5312 9.27734Q71.1914 9.27734 72.3145 8.49609Q73.4375 7.71484 73.9502 6.46973Q74.4629 5.22461 74.1455 3.83301Q73.8281 2.44141 72.6074 1.17188Q71.2402-0.146484 69.5068-1.83105Q67.7734-3.51562 66.1133-5.49316Q64.4531-7.4707 63.3057-9.74121Q62.1582-12.0117 62.0117-14.502L62.5-14.502Q64.6973-10.3516 69.1162-8.42285Q73.5352-6.49414 78.6133-6.49414Q84.4727-6.49414 89.0625-9.13086Q93.6523-11.7676 96.2646-16.3574Q98.877-20.9473 98.877-26.7578Q98.877-32.1777 96.6797-36.6455Q94.4824-41.1133 90.8447-45.1172Q87.207-49.1211 82.7393-52.9785Q78.2715-56.8359 73.6328-60.9863Q68.9941-65.1367 64.8926-69.9219Q60.791-74.707 57.9102-80.6152Q57.2754-81.8848 56.3232-82.7393Q55.3711-83.5938 53.8086-83.5938Q52.2461-83.5938 51.2939-82.7393Q50.3418-81.8848 49.707-80.6152Q46.8262-74.707 42.7246-69.9219Q38.623-65.1367 33.9844-60.9863Q29.3457-56.8359 24.8779-52.9785Q20.4102-49.1211 16.7725-45.1172Q13.1348-41.1133 10.9375-36.6455Q8.74023-32.1777 8.74023-26.7578Z"/>
  </g>
  <g id="Thin-M" transform="matrix(1 0 0 1 803.59 1126)">
   <path class="multicolor-0:labelColor SFSymbolsPreview212121" d="M8.74023-27.6367Q8.74023-21.8262 11.2549-17.3828Q13.7695-12.9395 18.2129-10.4248Q22.6562-7.91016 28.4668-7.91016Q33.8379-7.91016 38.1836-10.0342Q42.5293-12.1582 44.7266-16.1133L45.2637-16.1133Q44.873-13.5254 43.7012-11.2061Q42.5293-8.88672 40.8691-6.78711Q39.209-4.6875 37.3779-2.85645Q35.5469-1.02539 33.8867 0.585938Q32.7637 1.70898 32.4707 2.9541Q32.1777 4.19922 32.6172 5.34668Q33.0566 6.49414 34.1553 7.20215Q35.2539 7.91016 36.8164 7.91016L68.8477 7.91016Q70.459 7.91016 71.5088 7.20215Q72.5586 6.49414 73.0225 5.34668Q73.4863 4.19922 73.1934 2.9541Q72.9004 1.70898 71.7773 0.585938Q70.0684-1.02539 68.2617-2.85645Q66.4551-4.6875 64.7949-6.78711Q63.1348-8.88672 61.9629-11.2061Q60.791-13.5254 60.4004-16.1133L60.8887-16.1133Q63.1348-12.1582 67.4805-10.0342Q71.8262-7.91016 77.1484-7.91016Q83.0078-7.91016 87.4756-10.4248Q91.9434-12.9395 94.4336-17.3828Q96.9238-21.8262 96.9238-27.6367Q96.9238-33.0078 94.7021-37.3779Q92.4805-41.748 88.7695-45.6055Q85.0586-49.4629 80.542-53.2227Q76.0254-56.9824 71.3623-61.0352Q66.6992-65.0879 62.5977-69.8486Q58.4961-74.6094 55.6641-80.5176Q55.1758-81.4941 54.541-82.1289Q53.9062-82.7637 52.832-82.7637Q51.7578-82.7637 51.123-82.1289Q50.4883-81.4941 50-80.5176Q47.168-74.6094 43.0664-69.8486Q38.9648-65.0879 34.3018-61.0352Q29.6387-56.9824 25.1221-53.2227Q20.6055-49.4629 16.8945-45.6055Q13.1836-41.748 10.9619-37.3779Q8.74023-33.0078 8.74023-27.6367Z"/>
  </g>
  <g id="Ultralight-M" transform="matrix(1 0 0 1 507.392 1126)">
   <path class="multicolor-0:labelColor SFSymbolsPreview212121" d="M8.74023-28.125Q8.74023-22.2656 11.1816-17.8955Q13.623-13.5254 17.9932-11.084Q22.3633-8.64258 28.2227-8.64258Q33.6914-8.64258 37.9883-10.8643Q42.2852-13.0859 44.5312-16.9434L45.0684-16.9434Q44.5801-14.3066 43.3838-11.9385Q42.1875-9.57031 40.5273-7.44629Q38.8672-5.32227 37.0117-3.39355Q35.1562-1.46484 33.3008 0.292969Q32.2754 1.36719 31.9824 2.53906Q31.6895 3.71094 32.1045 4.76074Q32.5195 5.81055 33.5693 6.49414Q34.6191 7.17773 36.1328 7.17773L68.457 7.17773Q70.0684 7.17773 71.0938 6.49414Q72.1191 5.81055 72.5342 4.76074Q72.9492 3.71094 72.6807 2.53906Q72.4121 1.36719 71.3379 0.292969Q69.4824-1.46484 67.627-3.39355Q65.7715-5.32227 64.1113-7.44629Q62.4512-9.57031 61.2549-11.9385Q60.0586-14.3066 59.6191-16.9434L60.1074-16.9434Q62.3047-13.0859 66.626-10.8643Q70.9473-8.64258 76.416-8.64258Q82.2754-8.64258 86.6699-11.084Q91.0645-13.5254 93.4814-17.8955Q95.8984-22.2656 95.8984-28.125Q95.8984-33.3984 93.6523-37.7197Q91.4062-42.041 87.6709-45.8496Q83.9355-49.6582 79.4189-53.3691Q74.9023-57.0801 70.2148-61.084Q65.5273-65.0879 61.4258-69.7998Q57.3242-74.5117 54.541-80.4199Q54.1016-81.2988 53.6133-81.8115Q53.125-82.3242 52.2949-82.3242Q51.5137-82.3242 51.0498-81.8115Q50.5859-81.2988 50.1465-80.4199Q47.3633-74.5117 43.2373-69.7998Q39.1113-65.0879 34.4482-61.084Q29.7852-57.0801 25.2197-53.3691Q20.6543-49.6582 16.9434-45.8496Q13.2324-42.041 10.9863-37.7197Q8.74023-33.3984 8.74023-28.125Z"/>
  </g>
  <g id="Black-S" transform="matrix(1 0 0 1 2885.79 696)">
   <path class="multicolor-0:labelColor SFSymbolsPreview212121" d="M6.83594-28.2227Q6.83594-22.6074 9.10645-18.3594Q11.377-14.1113 15.4541-11.7432Q19.5312-9.375 24.9512-9.375Q30.5664-9.375 34.668-11.8408Q38.7695-14.3066 39.8438-18.3105L40.8691-18.3105Q40.7227-15.5273 39.3555-13.501Q37.9883-11.4746 36.1084-10.0586Q34.2285-8.64258 32.4219-7.66602Q30.6152-6.68945 29.5898-5.95703Q27.832-4.73633 27.1484-2.66113Q26.4648-0.585938 26.8799 1.5625Q27.2949 3.71094 28.8818 5.17578Q30.4688 6.64062 33.3008 6.64062L61.9141 6.64062Q64.7461 6.64062 66.333 5.17578Q67.9199 3.71094 68.335 1.5625Q68.75-0.585938 68.0664-2.66113Q67.3828-4.73633 65.625-5.95703Q64.5996-6.68945 62.793-7.66602Q60.9863-8.64258 59.1064-10.0586Q57.2266-11.4746 55.8594-13.501Q54.4922-15.5273 54.3457-18.3105L55.3711-18.3105Q56.4941-14.3066 60.5713-11.8408Q64.6484-9.375 70.2637-9.375Q75.6836-9.375 79.7607-11.7432Q83.8379-14.1113 86.1084-18.3594Q88.3789-22.6074 88.3789-28.2227Q88.3789-33.8867 86.0352-38.3545Q83.6914-42.8223 79.8828-46.7285Q76.0742-50.6348 71.6309-54.5654Q67.1875-58.4961 62.8662-63.0371Q58.5449-67.5781 55.2734-73.3398Q53.8574-75.9277 52.0752-77.2705Q50.293-78.6133 47.6074-78.6133Q44.9219-78.6133 43.1396-77.2705Q41.3574-75.9277 39.9414-73.3398Q36.6699-67.5781 32.3486-63.0371Q28.0273-58.4961 23.584-54.5654Q19.1406-50.6348 15.332-46.7285Q11.5234-42.8223 9.17969-38.3545Q6.83594-33.8867 6.83594-28.2227Z"/>
  </g>
  <g id="Heavy-S" transform="matrix(1 0 0 1 2590.16 696)">
   <path class="multicolor-0:labelColor SFSymbolsPreview212121" d="M6.83594-28.125Q6.83594-22.7539 9.08203-18.6279Q11.3281-14.502 15.332-12.1582Q19.3359-9.81445 24.5605-9.81445Q29.6875-9.81445 33.667-12.0361Q37.6465-14.2578 38.8672-18.1152L39.7461-18.1152Q39.6484-15.5273 38.4033-13.5742Q37.1582-11.6211 35.4004-10.2051Q33.6426-8.78906 31.958-7.76367Q30.2734-6.73828 29.3457-6.00586Q27.7344-4.78516 27.1484-2.90527Q26.5625-1.02539 26.9775 0.854492Q27.3926 2.73438 28.833 4.02832Q30.2734 5.32227 32.7637 5.32227L60.3027 5.32227Q62.793 5.32227 64.2334 4.02832Q65.6738 2.73438 66.0889 0.854492Q66.5039-1.02539 65.918-2.90527Q65.332-4.78516 63.7695-6.00586Q62.793-6.73828 61.1084-7.76367Q59.4238-8.78906 57.6904-10.2051Q55.957-11.6211 54.6875-13.5742Q53.418-15.5273 53.3203-18.1152L54.1992-18.1152Q55.4688-14.2578 59.4238-12.0361Q63.3789-9.81445 68.5547-9.81445Q73.7793-9.81445 77.7588-12.1582Q81.7383-14.502 83.9844-18.6279Q86.2305-22.7539 86.2305-28.125Q86.2305-33.6426 83.8867-38.0615Q81.543-42.4805 77.7344-46.3623Q73.9258-50.2441 69.5068-54.1504Q65.0879-58.0566 60.8398-62.5488Q56.5918-67.041 53.4668-72.7539Q52.1973-75.0488 50.5859-76.2695Q48.9746-77.4902 46.5332-77.4902Q44.0918-77.4902 42.4805-76.2695Q40.8691-75.0488 39.6484-72.7539Q36.4746-67.041 32.2266-62.5488Q27.9785-58.0566 23.5596-54.1504Q19.1406-50.2441 15.332-46.3623Q11.5234-42.4805 9.17969-38.0615Q6.83594-33.6426 6.83594-28.125Z"/>
  </g>
  <g id="Bold-S" transform="matrix(1 0 0 1 2294.62 696)">
   <path class="multicolor-0:labelColor SFSymbolsPreview212121" d="M6.83594-27.9785Q6.83594-22.9004 9.08203-18.9209Q11.3281-14.9414 15.21-12.6465Q19.0918-10.3516 24.1211-10.3516Q28.7598-10.3516 32.5928-12.2559Q36.4258-14.1602 37.793-17.8711L38.4766-17.8711Q38.4766-15.5762 37.3535-13.6963Q36.2305-11.8164 34.6436-10.4004Q33.0566-8.98438 31.4941-7.91016Q29.9316-6.83594 29.0527-6.05469Q27.6367-4.88281 27.1729-3.22266Q26.709-1.5625 27.124 0.0732422Q27.5391 1.70898 28.8086 2.7832Q30.0781 3.85742 32.1777 3.85742L58.5449 3.85742Q60.6445 3.85742 61.9141 2.7832Q63.1836 1.70898 63.5986 0.0732422Q64.0137-1.5625 63.5498-3.22266Q63.0859-4.88281 61.6699-6.05469Q60.791-6.83594 59.2529-7.91016Q57.7148-8.98438 56.1035-10.4004Q54.4922-11.8164 53.3691-13.6963Q52.2461-15.5762 52.2461-17.8711L52.9297-17.8711Q54.3457-14.1602 58.1543-12.2559Q61.9629-10.3516 66.6504-10.3516Q71.6309-10.3516 75.5127-12.6465Q79.3945-14.9414 81.6406-18.9209Q83.8867-22.9004 83.8867-27.9785Q83.8867-33.3984 81.5186-37.7441Q79.1504-42.0898 75.3662-45.9229Q71.582-49.7559 67.1875-53.6377Q62.793-57.5195 58.6182-62.0117Q54.4434-66.5039 51.416-72.1191Q50.3906-74.0723 48.9746-75.1709Q47.5586-76.2695 45.3613-76.2695Q43.1641-76.2695 41.748-75.1709Q40.332-74.0723 39.3066-72.1191Q36.2793-66.5039 32.1045-62.0117Q27.9297-57.5195 23.5352-53.6377Q19.1406-49.7559 15.3564-45.9229Q11.5723-42.0898 9.2041-37.7441Q6.83594-33.3984 6.83594-27.9785Z"/>
  </g>
  <g id="Semibold-S" transform="matrix(1 0 0 1 1998.74 696)">
   <path class="multicolor-0:labelColor SFSymbolsPreview212121" d="M6.83594-27.8809Q6.83594-22.998 9.05762-19.1162Q11.2793-15.2344 15.1123-12.9639Q18.9453-10.6934 23.7793-10.6934Q28.0762-10.6934 31.8115-12.4023Q35.5469-14.1113 37.0117-17.7246L37.5977-17.7246Q37.6465-15.5762 36.5967-13.7695Q35.5469-11.9629 34.082-10.5225Q32.6172-9.08203 31.1523-7.95898Q29.6875-6.83594 28.8574-6.10352Q27.5879-4.93164 27.1973-3.41797Q26.8066-1.9043 27.2217-0.488281Q27.6367 0.927734 28.7842 1.87988Q29.9316 2.83203 31.7871 2.83203L57.2754 2.83203Q59.1309 2.83203 60.2783 1.87988Q61.4258 0.927734 61.8408-0.488281Q62.2559-1.9043 61.8652-3.41797Q61.4746-4.93164 60.2051-6.10352Q59.375-6.83594 57.9346-7.95898Q56.4941-9.08203 55.0049-10.5225Q53.5156-11.9629 52.4658-13.7695Q51.416-15.5762 51.4648-17.7246L52.0508-17.7246Q53.5156-14.1113 57.251-12.4023Q60.9863-10.6934 65.2832-10.6934Q70.1172-10.6934 73.9502-12.9639Q77.7832-15.2344 80.0049-19.1162Q82.2266-22.998 82.2266-27.8809Q82.2266-33.2031 79.8584-37.5Q77.4902-41.7969 73.7061-45.6055Q69.9219-49.4141 65.5518-53.2959Q61.1816-57.1777 57.0557-61.6211Q52.9297-66.0645 50-71.6797Q49.0723-73.3398 47.8027-74.3896Q46.5332-75.4395 44.5312-75.4395Q42.5293-75.4395 41.2354-74.3896Q39.9414-73.3398 39.0625-71.6797Q36.1328-66.0645 32.0068-61.6211Q27.8809-57.1777 23.5107-53.2959Q19.1406-49.4141 15.3564-45.6055Q11.5723-41.7969 9.2041-37.5Q6.83594-33.2031 6.83594-27.8809Z"/>
  </g>
  <g id="Medium-S" transform="matrix(1 0 0 1 1702.66 696)">
   <path class="multicolor-0:labelColor SFSymbolsPreview212121" d="M6.83594-27.832Q6.83594-23.0957 9.05762-19.2871Q11.2793-15.4785 15.0391-13.2324Q18.7988-10.9863 23.5352-10.9863Q27.5391-10.9863 31.2012-12.5244Q34.8633-14.0625 36.4258-17.5781L36.9629-17.5781Q37.0117-15.5762 36.0352-13.7939Q35.0586-12.0117 33.667-10.5957Q32.2754-9.17969 30.8838-8.03223Q29.4922-6.88477 28.7109-6.10352Q27.4902-4.98047 27.1729-3.58887Q26.8555-2.19727 27.2705-0.90332Q27.6855 0.390625 28.7598 1.2207Q29.834 2.05078 31.4453 2.05078L56.3477 2.05078Q57.959 2.05078 59.0332 1.2207Q60.1074 0.390625 60.5225-0.90332Q60.9375-2.19727 60.6201-3.58887Q60.3027-4.98047 59.082-6.10352Q58.3008-6.88477 56.9336-8.03223Q55.5664-9.17969 54.1504-10.5957Q52.7344-12.0117 51.7822-13.7939Q50.8301-15.5762 50.8789-17.5781L51.3672-17.5781Q52.9297-14.0625 56.5918-12.5244Q60.2539-10.9863 64.3066-10.9863Q68.9941-10.9863 72.7783-13.2324Q76.5625-15.4785 78.7598-19.2871Q80.957-23.0957 80.957-27.832Q80.957-33.1055 78.5889-37.3535Q76.2207-41.6016 72.4365-45.3857Q68.6523-49.1699 64.3066-53.0273Q59.9609-56.8848 55.8594-61.3281Q51.7578-65.7715 48.9258-71.3379Q48.1445-72.8516 46.9482-73.8037Q45.752-74.7559 43.9453-74.7559Q42.041-74.7559 40.8691-73.8037Q39.6973-72.8516 38.916-71.3379Q36.0352-65.7715 31.958-61.3281Q27.8809-56.8848 23.5107-53.0273Q19.1406-49.1699 15.3564-45.3857Q11.5723-41.6016 9.2041-37.3535Q6.83594-33.1055 6.83594-27.832Z"/>
  </g>
  <g id="Regular-S" transform="matrix(1 0 0 1 1406.75 696)">
   <path class="multicolor-0:labelColor SFSymbolsPreview212121" d="M6.83594-27.7344Q6.83594-23.1934 9.0332-19.4824Q11.2305-15.7715 14.9414-13.5498Q18.6523-11.3281 23.2422-11.3281Q26.9043-11.3281 30.4688-12.6709Q34.0332-14.0137 35.6934-17.4316L36.084-17.4316Q36.1816-15.5762 35.3027-13.8672Q34.4238-12.1582 33.1299-10.7178Q31.8359-9.27734 30.542-8.10547Q29.248-6.93359 28.5156-6.15234Q27.4414-5.0293 27.1973-3.78418Q26.9531-2.53906 27.3682-1.44043Q27.7832-0.341797 28.7354 0.341797Q29.6875 1.02539 31.0547 1.02539L55.127 1.02539Q56.4941 1.02539 57.4463 0.341797Q58.3984-0.341797 58.8135-1.44043Q59.2285-2.53906 58.9844-3.78418Q58.7402-5.0293 57.666-6.15234Q56.9336-6.93359 55.6641-8.10547Q54.3945-9.27734 53.0762-10.7178Q51.7578-12.1582 50.8789-13.8672Q50-15.5762 50.0977-17.4316L50.4883-17.4316Q52.1484-14.0137 55.7129-12.6709Q59.2773-11.3281 62.9883-11.3281Q67.5293-11.3281 71.2402-13.5498Q74.9512-15.7715 77.1484-19.4824Q79.3457-23.1934 79.3457-27.7344Q79.3457-32.9102 76.9775-37.1094Q74.6094-41.3086 70.8252-45.0928Q67.041-48.877 62.6953-52.71Q58.3496-56.543 54.3213-60.9619Q50.293-65.3809 47.5586-70.8984Q46.875-72.168 45.8252-73.0469Q44.7754-73.9258 43.1152-73.9258Q41.4062-73.9258 40.3564-73.0469Q39.3066-72.168 38.6719-70.8984Q35.8887-65.3809 31.8604-60.9619Q27.832-56.543 23.4863-52.71Q19.1406-48.877 15.3564-45.0928Q11.5723-41.3086 9.2041-37.1094Q6.83594-32.9102 6.83594-27.7344Z"/>
  </g>
  <g id="Light-S" transform="matrix(1 0 0 1 1110.7 696)">
   <path class="multicolor-0:labelColor SFSymbolsPreview212121" d="M6.83594-28.3203Q6.83594-23.7793 8.93555-20.1416Q11.0352-16.5039 14.6729-14.4043Q18.3105-12.3047 22.9004-12.3047Q26.7578-12.3047 30.249-13.7451Q33.7402-15.1855 35.4492-18.5059L35.8398-18.5059Q35.791-16.6016 34.8877-14.8438Q33.9844-13.0859 32.6904-11.5723Q31.3965-10.0586 30.0537-8.78906Q28.7109-7.51953 27.7832-6.54297Q26.7578-5.51758 26.5137-4.37012Q26.2695-3.22266 26.6602-2.19727Q27.0508-1.17188 27.9785-0.537109Q28.9062 0.0976562 30.2246 0.0976562L54.6387 0.0976562Q55.957 0.0976562 56.8848-0.537109Q57.8125-1.17188 58.2031-2.19727Q58.5938-3.22266 58.3496-4.37012Q58.1055-5.51758 57.1289-6.54297Q56.1523-7.51953 54.8096-8.78906Q53.4668-10.0586 52.1729-11.5723Q50.8789-13.0859 49.9756-14.8438Q49.0723-16.6016 49.0234-18.5059L49.4141-18.5059Q51.123-15.1855 54.6143-13.7451Q58.1055-12.3047 62.0117-12.3047Q66.5527-12.3047 70.1904-14.4043Q73.8281-16.5039 75.9277-20.1416Q78.0273-23.7793 78.0273-28.3203Q78.0273-33.4473 75.6348-37.5488Q73.2422-41.6504 69.4092-45.3369Q65.5762-49.0234 61.2061-52.7832Q56.8359-56.543 52.7832-60.9131Q48.7305-65.2832 46.0449-70.8008Q45.459-71.9238 44.6289-72.6562Q43.7988-73.3887 42.4316-73.3887Q41.0645-73.3887 40.2344-72.6562Q39.4043-71.9238 38.8672-70.8008Q36.1328-65.2832 32.0801-60.9131Q28.0273-56.543 23.6572-52.7832Q19.2871-49.0234 15.4541-45.3369Q11.6211-41.6504 9.22852-37.5488Q6.83594-33.4473 6.83594-28.3203Z"/>
  </g>
  <g id="Thin-S" transform="matrix(1 0 0 1 814.869 696)">
   <path class="multicolor-0:labelColor SFSymbolsPreview212121" d="M6.83594-29.1504Q6.83594-24.5605 8.81348-21.0449Q10.791-17.5293 14.3066-15.5273Q17.8223-13.5254 22.4121-13.5254Q26.5625-13.5254 29.9805-15.1611Q33.3984-16.7969 35.1074-19.9707L35.498-19.9707Q35.2539-17.9199 34.3506-16.1133Q33.4473-14.3066 32.1533-12.6953Q30.8594-11.084 29.4189-9.66797Q27.9785-8.25195 26.7578-7.08008Q25.8789-6.15234 25.6348-5.12695Q25.3906-4.10156 25.7324-3.19824Q26.0742-2.29492 26.9531-1.7334Q27.832-1.17188 29.1016-1.17188L54.0527-1.17188Q55.3223-1.17188 56.1768-1.7334Q57.0312-2.29492 57.373-3.19824Q57.7148-4.10156 57.4951-5.12695Q57.2754-6.15234 56.3477-7.08008Q55.127-8.25195 53.7109-9.66797Q52.2949-11.084 51.001-12.6953Q49.707-14.3066 48.7793-16.1133Q47.8516-17.9199 47.6074-19.9707L47.998-19.9707Q49.7559-16.7969 53.1738-15.1611Q56.5918-13.5254 60.7422-13.5254Q65.332-13.5254 68.8232-15.5273Q72.3145-17.5293 74.292-21.0449Q76.2695-24.5605 76.2695-29.1504Q76.2695-34.1309 73.8281-38.1348Q71.3867-42.1387 67.5049-45.7031Q63.623-49.2676 59.2041-52.9297Q54.7852-56.5918 50.7568-60.8887Q46.7285-65.1855 44.043-70.7031Q43.6035-71.582 43.042-72.0947Q42.4805-72.6074 41.5527-72.6074Q40.625-72.6074 40.0635-72.0947Q39.502-71.582 39.1113-70.7031Q36.4258-65.1855 32.373-60.8887Q28.3203-56.5918 23.9014-52.9297Q19.4824-49.2676 15.6006-45.7031Q11.7188-42.1387 9.27734-38.1348Q6.83594-34.1309 6.83594-29.1504Z"/>
  </g>
  <g id="Ultralight-S" transform="matrix(1 0 0 1 518.598 696)">
   <path class="multicolor-0:labelColor SFSymbolsPreview212121" d="M6.83594-29.541Q6.83594-24.9512 8.76465-21.4844Q10.6934-18.0176 14.1357-16.1133Q17.5781-14.209 22.168-14.209Q26.4648-14.209 29.834-15.8936Q33.2031-17.5781 34.9609-20.7031L35.3516-20.7031Q35.0098-18.6035 34.082-16.7725Q33.1543-14.9414 31.8604-13.2812Q30.5664-11.6211 29.1016-10.1318Q27.6367-8.64258 26.2695-7.32422Q25.3906-6.49414 25.1709-5.54199Q24.9512-4.58984 25.2686-3.73535Q25.5859-2.88086 26.4404-2.34375Q27.2949-1.80664 28.5156-1.80664L53.7109-1.80664Q54.9316-1.80664 55.7861-2.34375Q56.6406-2.88086 56.958-3.73535Q57.2754-4.58984 57.0557-5.54199Q56.8359-6.49414 56.0059-7.32422Q54.6387-8.64258 53.1494-10.1318Q51.6602-11.6211 50.3662-13.2812Q49.0723-14.9414 48.1445-16.7725Q47.2168-18.6035 46.875-20.7031L47.2656-20.7031Q49.0723-17.5781 52.4414-15.8936Q55.8105-14.209 60.0586-14.209Q64.6484-14.209 68.0908-16.1133Q71.5332-18.0176 73.4619-21.4844Q75.3906-24.9512 75.3906-29.541Q75.3906-34.5215 72.9248-38.4521Q70.459-42.3828 66.5527-45.874Q62.6465-49.3652 58.2031-52.9785Q53.7598-56.5918 49.707-60.8398Q45.6543-65.0879 43.0176-70.6543Q42.6758-71.3867 42.2607-71.8262Q41.8457-72.2656 41.1133-72.2656Q40.4297-72.2656 40.0146-71.8262Q39.5996-71.3867 39.209-70.6543Q36.5723-65.0879 32.5195-60.8398Q28.4668-56.5918 24.0234-52.9785Q19.5801-49.3652 15.6738-45.874Q11.7676-42.3828 9.30176-38.4521Q6.83594-34.5215 6.83594-29.541Z"/>
  </g>
 </g>
</svg>
