<?xml version="1.0" encoding="UTF-8"?>
<!--Generator: Apple Native CoreSVG 175-->
<!DOCTYPE svg
PUBLIC "-//W3C//DTD SVG 1.1//EN"
       "http://www.w3.org/Graphics/SVG/1.1/DTD/svg11.dtd">
<svg version="1.1" xmlns="http://www.w3.org/2000/svg" xmlns:xlink="http://www.w3.org/1999/xlink" width="3300" height="2200">
 <!--glyph: "uni1001D3.medium", point size: 100.0, font version: "17.0d11e1", template writer version: "65.1"-->
 <style>.multicolor-0:white {fill:#FFFFFF;opacity:1.0}

.hierarchical-0:secondary {fill:#4D4D4D}
.hierarchical-1:primary {fill:#212121}

.SFSymbolsPreviewFFFFFF {fill:#FFFFFF;opacity:1.0}
</style>
 <g id="Notes">
  <rect height="2200" id="artboard" style="fill:white;opacity:1" width="3300" x="0" y="0"/>
  <line style="fill:none;stroke:black;opacity:1;stroke-width:0.5;" x1="263" x2="3036" y1="292" y2="292"/>
  <text style="stroke:none;fill:black;font-family:sans-serif;font-size:13;font-weight:bold;" transform="matrix(1 0 0 1 263 322)">Weight/Scale Variations</text>
  <text style="stroke:none;fill:black;font-family:sans-serif;font-size:13;text-anchor:middle;" transform="matrix(1 0 0 1 559.711 322)">Ultralight</text>
  <text style="stroke:none;fill:black;font-family:sans-serif;font-size:13;text-anchor:middle;" transform="matrix(1 0 0 1 856.422 322)">Thin</text>
  <text style="stroke:none;fill:black;font-family:sans-serif;font-size:13;text-anchor:middle;" transform="matrix(1 0 0 1 1153.13 322)">Light</text>
  <text style="stroke:none;fill:black;font-family:sans-serif;font-size:13;text-anchor:middle;" transform="matrix(1 0 0 1 1449.84 322)">Regular</text>
  <text style="stroke:none;fill:black;font-family:sans-serif;font-size:13;text-anchor:middle;" transform="matrix(1 0 0 1 1746.56 322)">Medium</text>
  <text style="stroke:none;fill:black;font-family:sans-serif;font-size:13;text-anchor:middle;" transform="matrix(1 0 0 1 2043.27 322)">Semibold</text>
  <text style="stroke:none;fill:black;font-family:sans-serif;font-size:13;text-anchor:middle;" transform="matrix(1 0 0 1 2339.98 322)">Bold</text>
  <text style="stroke:none;fill:black;font-family:sans-serif;font-size:13;text-anchor:middle;" transform="matrix(1 0 0 1 2636.69 322)">Heavy</text>
  <text style="stroke:none;fill:black;font-family:sans-serif;font-size:13;text-anchor:middle;" transform="matrix(1 0 0 1 2933.4 322)">Black</text>
  <line style="fill:none;stroke:black;opacity:1;stroke-width:0.5;" x1="263" x2="3036" y1="1903" y2="1903"/>
  <g transform="matrix(1 0 0 1 263 1933)">
   <path d="M9.24805 0.830078Q10.8691 0.830078 12.2949 0.214844Q13.7207-0.400391 14.8096-1.49414Q15.8984-2.58789 16.5186-4.01367Q17.1387-5.43945 17.1387-7.05078Q17.1387-8.66211 16.5186-10.0879Q15.8984-11.5137 14.8047-12.6074Q13.7109-13.7012 12.2852-14.3164Q10.8594-14.9316 9.23828-14.9316Q7.62695-14.9316 6.20117-14.3164Q4.77539-13.7012 3.69141-12.6074Q2.60742-11.5137 1.9873-10.0879Q1.36719-8.66211 1.36719-7.05078Q1.36719-5.43945 1.9873-4.01367Q2.60742-2.58789 3.69629-1.49414Q4.78516-0.400391 6.21094 0.214844Q7.63672 0.830078 9.24805 0.830078ZM9.24805-0.654297Q7.91992-0.654297 6.7627-1.14746Q5.60547-1.64062 4.73145-2.51953Q3.85742-3.39844 3.36426-4.56055Q2.87109-5.72266 2.87109-7.05078Q2.87109-8.37891 3.35938-9.54102Q3.84766-10.7031 4.72168-11.582Q5.5957-12.4609 6.75293-12.9541Q7.91016-13.4473 9.23828-13.4473Q10.5762-13.4473 11.7334-12.9541Q12.8906-12.4609 13.7695-11.582Q14.6484-10.7031 15.1465-9.54102Q15.6445-8.37891 15.6445-7.05078Q15.6445-5.72266 15.1514-4.56055Q14.6582-3.39844 13.7842-2.51953Q12.9102-1.64062 11.748-1.14746Q10.5859-0.654297 9.24805-0.654297ZM5.6543-7.05078Q5.6543-6.72852 5.85938-6.52832Q6.06445-6.32812 6.40625-6.32812L8.51562-6.32812L8.51562-4.20898Q8.51562-3.88672 8.71094-3.67676Q8.90625-3.4668 9.23828-3.4668Q9.56055-3.4668 9.77051-3.67676Q9.98047-3.88672 9.98047-4.20898L9.98047-6.32812L12.0898-6.32812Q12.4219-6.32812 12.627-6.52832Q12.832-6.72852 12.832-7.05078Q12.832-7.38281 12.627-7.58789Q12.4219-7.79297 12.0898-7.79297L9.98047-7.79297L9.98047-9.90234Q9.98047-10.2344 9.77051-10.4443Q9.56055-10.6543 9.23828-10.6543Q8.90625-10.6543 8.71094-10.4443Q8.51562-10.2344 8.51562-9.90234L8.51562-7.79297L6.40625-7.79297Q6.06445-7.79297 5.85938-7.58789Q5.6543-7.38281 5.6543-7.05078Z"/>
  </g>
  <g transform="matrix(1 0 0 1 281.867 1933)">
   <path d="M11.709 2.91016Q13.75 2.91016 15.5518 2.12891Q17.3535 1.34766 18.7305-0.0292969Q20.1074-1.40625 20.8887-3.20801Q21.6699-5.00977 21.6699-7.05078Q21.6699-9.0918 20.8887-10.8936Q20.1074-12.6953 18.7305-14.0723Q17.3535-15.4492 15.5469-16.2305Q13.7402-17.0117 11.6992-17.0117Q9.6582-17.0117 7.85645-16.2305Q6.05469-15.4492 4.68262-14.0723Q3.31055-12.6953 2.5293-10.8936Q1.74805-9.0918 1.74805-7.05078Q1.74805-5.00977 2.5293-3.20801Q3.31055-1.40625 4.6875-0.0292969Q6.06445 1.34766 7.86621 2.12891Q9.66797 2.91016 11.709 2.91016ZM11.709 1.25Q9.98047 1.25 8.47656 0.605469Q6.97266-0.0390625 5.83496-1.17676Q4.69727-2.31445 4.05762-3.81836Q3.41797-5.32227 3.41797-7.05078Q3.41797-8.7793 4.05762-10.2832Q4.69727-11.7871 5.83008-12.9297Q6.96289-14.0723 8.4668-14.7119Q9.9707-15.3516 11.6992-15.3516Q13.4277-15.3516 14.9316-14.7119Q16.4355-14.0723 17.5781-12.9297Q18.7207-11.7871 19.3652-10.2832Q20.0098-8.7793 20.0098-7.05078Q20.0098-5.32227 19.3701-3.81836Q18.7305-2.31445 17.5928-1.17676Q16.4551-0.0390625 14.9463 0.605469Q13.4375 1.25 11.709 1.25ZM7.17773-7.05078Q7.17773-6.69922 7.41211-6.47461Q7.64648-6.25 8.01758-6.25L10.8887-6.25L10.8887-3.36914Q10.8887-2.99805 11.1133-2.76855Q11.3379-2.53906 11.6895-2.53906Q12.0605-2.53906 12.29-2.76855Q12.5195-2.99805 12.5195-3.36914L12.5195-6.25L15.4004-6.25Q15.7715-6.25 16.001-6.47461Q16.2305-6.69922 16.2305-7.05078Q16.2305-7.42188 16.001-7.65137Q15.7715-7.88086 15.4004-7.88086L12.5195-7.88086L12.5195-10.752Q12.5195-11.1328 12.29-11.3623Q12.0605-11.5918 11.6895-11.5918Q11.3379-11.5918 11.1133-11.3574Q10.8887-11.123 10.8887-10.752L10.8887-7.88086L8.01758-7.88086Q7.63672-7.88086 7.40723-7.65137Q7.17773-7.42188 7.17773-7.05078Z"/>
  </g>
  <g transform="matrix(1 0 0 1 305.646 1933)">
   <path d="M14.9707 5.66406Q17.0605 5.66406 18.96 5.01465Q20.8594 4.36523 22.4512 3.19336Q24.043 2.02148 25.2197 0.429688Q26.3965-1.16211 27.0459-3.06641Q27.6953-4.9707 27.6953-7.05078Q27.6953-9.14062 27.0459-11.04Q26.3965-12.9395 25.2197-14.5312Q24.043-16.123 22.4512-17.2998Q20.8594-18.4766 18.9551-19.126Q17.0508-19.7754 14.9609-19.7754Q12.8711-19.7754 10.9717-19.126Q9.07227-18.4766 7.48535-17.2998Q5.89844-16.123 4.72168-14.5312Q3.54492-12.9395 2.90039-11.04Q2.25586-9.14062 2.25586-7.05078Q2.25586-4.9707 2.90527-3.06641Q3.55469-1.16211 4.72656 0.429688Q5.89844 2.02148 7.49023 3.19336Q9.08203 4.36523 10.9814 5.01465Q12.8809 5.66406 14.9707 5.66406ZM14.9707 3.84766Q13.1641 3.84766 11.5283 3.2959Q9.89258 2.74414 8.53516 1.74805Q7.17773 0.751953 6.17676-0.610352Q5.17578-1.97266 4.62891-3.6084Q4.08203-5.24414 4.08203-7.05078Q4.08203-8.86719 4.62891-10.5029Q5.17578-12.1387 6.17188-13.501Q7.16797-14.8633 8.52539-15.8594Q9.88281-16.8555 11.5186-17.4023Q13.1543-17.9492 14.9609-17.9492Q16.7773-17.9492 18.4131-17.4023Q20.0488-16.8555 21.4111-15.8594Q22.7734-14.8633 23.7695-13.501Q24.7656-12.1387 25.3174-10.5029Q25.8691-8.86719 25.8691-7.05078Q25.8789-5.24414 25.332-3.6084Q24.7852-1.97266 23.7842-0.610352Q22.7832 0.751953 21.4209 1.74805Q20.0586 2.74414 18.4229 3.2959Q16.7871 3.84766 14.9707 3.84766ZM9.19922-7.05078Q9.19922-6.66992 9.45801-6.4209Q9.7168-6.17188 10.1172-6.17188L14.0625-6.17188L14.0625-2.2168Q14.0625-1.81641 14.3115-1.55762Q14.5605-1.29883 14.9512-1.29883Q15.3516-1.29883 15.6104-1.55273Q15.8691-1.80664 15.8691-2.2168L15.8691-6.17188L19.8242-6.17188Q20.2246-6.17188 20.4785-6.4209Q20.7324-6.66992 20.7324-7.05078Q20.7324-7.46094 20.4785-7.71484Q20.2246-7.96875 19.8242-7.96875L15.8691-7.96875L15.8691-11.9141Q15.8691-12.3242 15.6104-12.583Q15.3516-12.8418 14.9512-12.8418Q14.5605-12.8418 14.3115-12.583Q14.0625-12.3242 14.0625-11.9141L14.0625-7.96875L10.1172-7.96875Q9.70703-7.96875 9.45312-7.71484Q9.19922-7.46094 9.19922-7.05078Z"/>
  </g>
  <text style="stroke:none;fill:black;font-family:sans-serif;font-size:13;font-weight:bold;" transform="matrix(1 0 0 1 263 1953)">Design Variations</text>
  <text style="stroke:none;fill:black;font-family:sans-serif;font-size:13;" transform="matrix(1 0 0 1 263 1971)">Symbols are supported in up to nine weights and three scales.</text>
  <text style="stroke:none;fill:black;font-family:sans-serif;font-size:13;" transform="matrix(1 0 0 1 263 1989)">For optimal layout with text and other symbols, vertically align</text>
  <text style="stroke:none;fill:black;font-family:sans-serif;font-size:13;" transform="matrix(1 0 0 1 263 2007)">symbols with the adjacent text.</text>
  <line style="fill:none;stroke:#00AEEF;stroke-width:0.5;opacity:1.0;" x1="776" x2="776" y1="1919" y2="1933"/>
  <g transform="matrix(1 0 0 1 776 1933)">
   <path d="M3.31055 0.15625Q3.70117 0.15625 3.91602-0.00976562Q4.13086-0.175781 4.26758-0.585938L5.52734-4.0332L11.2891-4.0332L12.5488-0.585938Q12.6855-0.175781 12.9004-0.00976562Q13.1152 0.15625 13.4961 0.15625Q13.8867 0.15625 14.1162-0.0585938Q14.3457-0.273438 14.3457-0.644531Q14.3457-0.869141 14.2383-1.17188L9.6582-13.3691Q9.48242-13.8184 9.17969-14.043Q8.87695-14.2676 8.4082-14.2676Q7.5-14.2676 7.17773-13.3789L2.59766-1.16211Q2.49023-0.859375 2.49023-0.634766Q2.49023-0.263672 2.70996-0.0537109Q2.92969 0.15625 3.31055 0.15625ZM6.00586-5.51758L8.37891-12.0898L8.42773-12.0898L10.8008-5.51758Z"/>
  </g>
  <line style="fill:none;stroke:#00AEEF;stroke-width:0.5;opacity:1.0;" x1="793.197" x2="793.197" y1="1919" y2="1933"/>
  <text style="stroke:none;fill:black;font-family:sans-serif;font-size:13;font-weight:bold;" transform="matrix(1 0 0 1 776 1953)">Margins</text>
  <text style="stroke:none;fill:black;font-family:sans-serif;font-size:13;" transform="matrix(1 0 0 1 776 1971)">Leading and trailing margins on the left and right side of each symbol</text>
  <text style="stroke:none;fill:black;font-family:sans-serif;font-size:13;" transform="matrix(1 0 0 1 776 1989)">can be adjusted by modifying the x-location of the margin guidelines.</text>
  <text style="stroke:none;fill:black;font-family:sans-serif;font-size:13;" transform="matrix(1 0 0 1 776 2007)">Modifications are automatically applied proportionally to all</text>
  <text style="stroke:none;fill:black;font-family:sans-serif;font-size:13;" transform="matrix(1 0 0 1 776 2025)">scales and weights.</text>
  <g transform="matrix(1 0 0 1 1289 1933)">
   <path d="M2.8418 1.86523L4.54102 3.57422Q5.18555 4.22852 5.90332 4.17969Q6.62109 4.13086 7.31445 3.35938L18.0078-8.42773L17.041-9.4043L6.42578 2.27539Q6.16211 2.57812 5.89355 2.61719Q5.625 2.65625 5.27344 2.30469L4.10156 1.14258Q3.75 0.791016 3.79395 0.522461Q3.83789 0.253906 4.14062-0.0195312L15.6152-10.8203L14.6387-11.7871L3.04688-0.898438Q2.30469-0.214844 2.25098 0.498047Q2.19727 1.21094 2.8418 1.86523ZM9.25781-16.3281Q8.94531-16.0254 8.90625-15.6348Q8.86719-15.2441 9.04297-14.9512Q9.21875-14.6777 9.55566-14.541Q9.89258-14.4043 10.3809-14.5215Q11.4746-14.7754 12.5977-14.7314Q13.7207-14.6875 14.7949-13.9844L14.209-12.5293Q13.9551-11.9043 14.0674-11.4404Q14.1797-10.9766 14.5801-10.5664L16.875-8.25195Q17.2363-7.88086 17.5781-7.82227Q17.9199-7.76367 18.3398-7.8418L19.4043-8.03711L20.0684-7.36328L20.0293-6.80664Q20-6.43555 20.1221-6.12305Q20.2441-5.81055 20.6055-5.44922L21.3672-4.70703Q21.7285-4.3457 22.1533-4.33105Q22.5781-4.31641 22.9297-4.66797L25.8398-7.58789Q26.1914-7.93945 26.1816-8.35449Q26.1719-8.76953 25.8105-9.13086L25.0391-9.89258Q24.6875-10.2539 24.3799-10.3857Q24.0723-10.5176 23.7109-10.4883L23.1348-10.4395L22.4902-11.0742L22.7344-12.1973Q22.832-12.6172 22.6953-12.9834Q22.5586-13.3496 22.1191-13.7891L19.9219-15.9766Q18.6719-17.2168 17.2607-17.8369Q15.8496-18.457 14.4189-18.4814Q12.9883-18.5059 11.665-17.959Q10.3418-17.4121 9.25781-16.3281ZM10.752-15.957Q11.6602-16.6211 12.7002-16.9043Q13.7402-17.1875 14.8047-17.085Q15.8691-16.9824 16.8701-16.5137Q17.8711-16.0449 18.7012-15.2051L21.1328-12.793Q21.3086-12.6172 21.3525-12.4512Q21.3965-12.2852 21.3379-12.0312L21.0156-10.5469L22.5195-9.0625L23.5059-9.12109Q23.6914-9.13086 23.7891-9.09668Q23.8867-9.0625 24.0332-8.91602L24.6094-8.33984L22.168-5.89844L21.5918-6.47461Q21.4453-6.62109 21.4062-6.71875Q21.3672-6.81641 21.377-7.01172L21.4453-7.98828L19.9512-9.47266L18.4277-9.21875Q18.1836-9.16992 18.042-9.2041Q17.9004-9.23828 17.7148-9.41406L15.7129-11.416Q15.5176-11.5918 15.4932-11.7529Q15.4688-11.9141 15.5859-12.1875L16.4648-14.2773Q15.293-15.3711 13.8281-15.791Q12.3633-16.2109 10.8398-15.7617Q10.7227-15.7324 10.6885-15.8057Q10.6543-15.8789 10.752-15.957Z"/>
  </g>
  <text style="stroke:none;fill:black;font-family:sans-serif;font-size:13;font-weight:bold;" transform="matrix(1 0 0 1 1289 1953)">Exporting</text>
  <text style="stroke:none;fill:black;font-family:sans-serif;font-size:13;" transform="matrix(1 0 0 1 1289 1971)">Symbols should be outlined when exporting to ensure the</text>
  <text style="stroke:none;fill:black;font-family:sans-serif;font-size:13;" transform="matrix(1 0 0 1 1289 1989)">design is preserved when submitting to Xcode.</text>
  <text id="template-version" style="stroke:none;fill:black;font-family:sans-serif;font-size:13;text-anchor:end;" transform="matrix(1 0 0 1 3036 1933)">Template v.3.0</text>
  <text style="stroke:none;fill:black;font-family:sans-serif;font-size:13;text-anchor:end;" transform="matrix(1 0 0 1 3036 1951)">Requires Xcode 13 or greater</text>
  <text id="descriptive-name" style="stroke:none;fill:black;font-family:sans-serif;font-size:13;text-anchor:end;" transform="matrix(1 0 0 1 3036 1969)">Generated from cloud.bolt.fill</text>
  <text style="stroke:none;fill:black;font-family:sans-serif;font-size:13;text-anchor:end;" transform="matrix(1 0 0 1 3036 1987)">Typeset at 100 points</text>
  <text style="stroke:none;fill:black;font-family:sans-serif;font-size:13;" transform="matrix(1 0 0 1 263 726)">Small</text>
  <text style="stroke:none;fill:black;font-family:sans-serif;font-size:13;" transform="matrix(1 0 0 1 263 1156)">Medium</text>
  <text style="stroke:none;fill:black;font-family:sans-serif;font-size:13;" transform="matrix(1 0 0 1 263 1586)">Large</text>
 </g>
 <g id="Guides">
  <g id="H-reference" style="fill:#27AAE1;stroke:none;" transform="matrix(1 0 0 1 339 696)">
   <path d="M0.976562 0L3.66211 0L29.3457-67.1387L30.0293-67.1387L30.0293-70.459L28.125-70.459ZM11.6699-24.4629L46.9727-24.4629L46.2402-26.709L12.4512-26.709ZM55.127 0L57.7637 0L30.6152-70.459L29.4434-70.459L29.4434-67.1387Z"/>
  </g>
  <line id="Baseline-S" style="fill:none;stroke:#27AAE1;opacity:1;stroke-width:0.5;" x1="263" x2="3036" y1="696" y2="696"/>
  <line id="Capline-S" style="fill:none;stroke:#27AAE1;opacity:1;stroke-width:0.5;" x1="263" x2="3036" y1="625.541" y2="625.541"/>
  <g id="H-reference" style="fill:#27AAE1;stroke:none;" transform="matrix(1 0 0 1 339 1126)">
   <path d="M0.976562 0L3.66211 0L29.3457-67.1387L30.0293-67.1387L30.0293-70.459L28.125-70.459ZM11.6699-24.4629L46.9727-24.4629L46.2402-26.709L12.4512-26.709ZM55.127 0L57.7637 0L30.6152-70.459L29.4434-70.459L29.4434-67.1387Z"/>
  </g>
  <line id="Baseline-M" style="fill:none;stroke:#27AAE1;opacity:1;stroke-width:0.5;" x1="263" x2="3036" y1="1126" y2="1126"/>
  <line id="Capline-M" style="fill:none;stroke:#27AAE1;opacity:1;stroke-width:0.5;" x1="263" x2="3036" y1="1055.54" y2="1055.54"/>
  <g id="H-reference" style="fill:#27AAE1;stroke:none;" transform="matrix(1 0 0 1 339 1556)">
   <path d="M0.976562 0L3.66211 0L29.3457-67.1387L30.0293-67.1387L30.0293-70.459L28.125-70.459ZM11.6699-24.4629L46.9727-24.4629L46.2402-26.709L12.4512-26.709ZM55.127 0L57.7637 0L30.6152-70.459L29.4434-70.459L29.4434-67.1387Z"/>
  </g>
  <line id="Baseline-L" style="fill:none;stroke:#27AAE1;opacity:1;stroke-width:0.5;" x1="263" x2="3036" y1="1556" y2="1556"/>
  <line id="Capline-L" style="fill:none;stroke:#27AAE1;opacity:1;stroke-width:0.5;" x1="263" x2="3036" y1="1485.54" y2="1485.54"/>
  <line id="left-margin-Ultralight-S" style="fill:none;stroke:#00AEEF;stroke-width:0.5;opacity:1.0;" x1="512.055" x2="512.055" y1="600.785" y2="720.121"/>
  <line id="right-margin-Ultralight-S" style="fill:none;stroke:#00AEEF;stroke-width:0.5;opacity:1.0;" x1="607.367" x2="607.367" y1="600.785" y2="720.121"/>
  <line id="left-margin-Thin-S" style="fill:none;stroke:#00AEEF;stroke-width:0.5;opacity:1.0;" x1="808.522" x2="808.522" y1="600.785" y2="720.121"/>
  <line id="right-margin-Thin-S" style="fill:none;stroke:#00AEEF;stroke-width:0.5;opacity:1.0;" x1="904.323" x2="904.323" y1="600.785" y2="720.121"/>
  <line id="left-margin-Light-S" style="fill:none;stroke:#00AEEF;stroke-width:0.5;opacity:1.0;" x1="1104.74" x2="1104.74" y1="600.785" y2="720.121"/>
  <line id="right-margin-Light-S" style="fill:none;stroke:#00AEEF;stroke-width:0.5;opacity:1.0;" x1="1201.52" x2="1201.52" y1="600.785" y2="720.121"/>
  <line id="left-margin-Regular-S" style="fill:none;stroke:#00AEEF;stroke-width:0.5;opacity:1.0;" x1="1401.09" x2="1401.09" y1="600.785" y2="720.121"/>
  <line id="right-margin-Regular-S" style="fill:none;stroke:#00AEEF;stroke-width:0.5;opacity:1.0;" x1="1498.6" x2="1498.6" y1="600.785" y2="720.121"/>
  <line id="left-margin-Medium-S" style="fill:none;stroke:#00AEEF;stroke-width:0.5;opacity:1.0;" x1="1697.17" x2="1697.17" y1="600.785" y2="720.121"/>
  <line id="right-margin-Medium-S" style="fill:none;stroke:#00AEEF;stroke-width:0.5;opacity:1.0;" x1="1795.95" x2="1795.95" y1="600.785" y2="720.121"/>
  <line id="left-margin-Semibold-S" style="fill:none;stroke:#00AEEF;stroke-width:0.5;opacity:1.0;" x1="1993.39" x2="1993.39" y1="600.785" y2="720.121"/>
  <line id="right-margin-Semibold-S" style="fill:none;stroke:#00AEEF;stroke-width:0.5;opacity:1.0;" x1="2093.14" x2="2093.14" y1="600.785" y2="720.121"/>
  <line id="left-margin-Bold-S" style="fill:none;stroke:#00AEEF;stroke-width:0.5;opacity:1.0;" x1="2289.44" x2="2289.44" y1="600.785" y2="720.121"/>
  <line id="right-margin-Bold-S" style="fill:none;stroke:#00AEEF;stroke-width:0.5;opacity:1.0;" x1="2390.51" x2="2390.51" y1="600.785" y2="720.121"/>
  <line id="left-margin-Heavy-S" style="fill:none;stroke:#00AEEF;stroke-width:0.5;opacity:1.0;" x1="2585.22" x2="2585.22" y1="600.785" y2="720.121"/>
  <line id="right-margin-Heavy-S" style="fill:none;stroke:#00AEEF;stroke-width:0.5;opacity:1.0;" x1="2688.15" x2="2688.15" y1="600.785" y2="720.121"/>
  <line id="left-margin-Black-S" style="fill:none;stroke:#00AEEF;stroke-width:0.5;opacity:1.0;" x1="2881.11" x2="2881.11" y1="600.785" y2="720.121"/>
  <line id="right-margin-Black-S" style="fill:none;stroke:#00AEEF;stroke-width:0.5;opacity:1.0;" x1="2985.69" x2="2985.69" y1="600.785" y2="720.121"/>
  <line id="left-margin-Ultralight-M" style="fill:none;stroke:#00AEEF;stroke-width:0.5;opacity:1.0;" x1="498.969" x2="498.969" y1="1030.79" y2="1150.12"/>
  <line id="right-margin-Ultralight-M" style="fill:none;stroke:#00AEEF;stroke-width:0.5;opacity:1.0;" x1="620.453" x2="620.453" y1="1030.79" y2="1150.12"/>
  <line id="left-margin-Thin-M" style="fill:none;stroke:#00AEEF;stroke-width:0.5;opacity:1.0;" x1="795.411" x2="795.411" y1="1030.79" y2="1150.12"/>
  <line id="right-margin-Thin-M" style="fill:none;stroke:#00AEEF;stroke-width:0.5;opacity:1.0;" x1="917.433" x2="917.433" y1="1030.79" y2="1150.12"/>
  <line id="left-margin-Light-M" style="fill:none;stroke:#00AEEF;stroke-width:0.5;opacity:1.0;" x1="1091.56" x2="1091.56" y1="1030.79" y2="1150.12"/>
  <line id="right-margin-Light-M" style="fill:none;stroke:#00AEEF;stroke-width:0.5;opacity:1.0;" x1="1214.71" x2="1214.71" y1="1030.79" y2="1150.12"/>
  <line id="left-margin-Regular-M" style="fill:none;stroke:#00AEEF;stroke-width:0.5;opacity:1.0;" x1="1387.86" x2="1387.86" y1="1030.79" y2="1150.12"/>
  <line id="right-margin-Regular-M" style="fill:none;stroke:#00AEEF;stroke-width:0.5;opacity:1.0;" x1="1511.83" x2="1511.83" y1="1030.79" y2="1150.12"/>
  <line id="left-margin-Medium-M" style="fill:none;stroke:#00AEEF;stroke-width:0.5;opacity:1.0;" x1="1683.79" x2="1683.79" y1="1030.79" y2="1150.12"/>
  <line id="right-margin-Medium-M" style="fill:none;stroke:#00AEEF;stroke-width:0.5;opacity:1.0;" x1="1809.32" x2="1809.32" y1="1030.79" y2="1150.12"/>
  <line id="left-margin-Semibold-M" style="fill:none;stroke:#00AEEF;stroke-width:0.5;opacity:1.0;" x1="1979.89" x2="1979.89" y1="1030.79" y2="1150.12"/>
  <line id="right-margin-Semibold-M" style="fill:none;stroke:#00AEEF;stroke-width:0.5;opacity:1.0;" x1="2106.65" x2="2106.65" y1="1030.79" y2="1150.12"/>
  <line id="left-margin-Bold-M" style="fill:none;stroke:#00AEEF;stroke-width:0.5;opacity:1.0;" x1="2275.79" x2="2275.79" y1="1030.79" y2="1150.12"/>
  <line id="right-margin-Bold-M" style="fill:none;stroke:#00AEEF;stroke-width:0.5;opacity:1.0;" x1="2404.16" x2="2404.16" y1="1030.79" y2="1150.12"/>
  <line id="left-margin-Heavy-M" style="fill:none;stroke:#00AEEF;stroke-width:0.5;opacity:1.0;" x1="2571.33" x2="2571.33" y1="1030.79" y2="1150.12"/>
  <line id="right-margin-Heavy-M" style="fill:none;stroke:#00AEEF;stroke-width:0.5;opacity:1.0;" x1="2702.05" x2="2702.05" y1="1030.79" y2="1150.12"/>
  <line id="left-margin-Black-M" style="fill:none;stroke:#00AEEF;stroke-width:0.5;opacity:1.0;" x1="2867.02" x2="2867.02" y1="1030.79" y2="1150.12"/>
  <line id="right-margin-Black-M" style="fill:none;stroke:#00AEEF;stroke-width:0.5;opacity:1.0;" x1="2999.78" x2="2999.78" y1="1030.79" y2="1150.12"/>
  <line id="left-margin-Ultralight-L" style="fill:none;stroke:#00AEEF;stroke-width:0.5;opacity:1.0;" x1="481.464" x2="481.464" y1="1460.79" y2="1580.12"/>
  <line id="right-margin-Ultralight-L" style="fill:none;stroke:#00AEEF;stroke-width:0.5;opacity:1.0;" x1="637.958" x2="637.958" y1="1460.79" y2="1580.12"/>
  <line id="left-margin-Thin-L" style="fill:none;stroke:#00AEEF;stroke-width:0.5;opacity:1.0;" x1="777.858" x2="777.858" y1="1460.79" y2="1580.12"/>
  <line id="right-margin-Thin-L" style="fill:none;stroke:#00AEEF;stroke-width:0.5;opacity:1.0;" x1="934.987" x2="934.987" y1="1460.79" y2="1580.12"/>
  <line id="left-margin-Light-L" style="fill:none;stroke:#00AEEF;stroke-width:0.5;opacity:1.0;" x1="1073.96" x2="1073.96" y1="1460.79" y2="1580.12"/>
  <line id="right-margin-Light-L" style="fill:none;stroke:#00AEEF;stroke-width:0.5;opacity:1.0;" x1="1232.31" x2="1232.31" y1="1460.79" y2="1580.12"/>
  <line id="left-margin-Regular-L" style="fill:none;stroke:#00AEEF;stroke-width:0.5;opacity:1.0;" x1="1370.21" x2="1370.21" y1="1460.79" y2="1580.12"/>
  <line id="right-margin-Regular-L" style="fill:none;stroke:#00AEEF;stroke-width:0.5;opacity:1.0;" x1="1529.48" x2="1529.48" y1="1460.79" y2="1580.12"/>
  <line id="left-margin-Medium-L" style="fill:none;stroke:#00AEEF;stroke-width:0.5;opacity:1.0;" x1="1666.04" x2="1666.04" y1="1460.79" y2="1580.12"/>
  <line id="right-margin-Medium-L" style="fill:none;stroke:#00AEEF;stroke-width:0.5;opacity:1.0;" x1="1827.07" x2="1827.07" y1="1460.79" y2="1580.12"/>
  <line id="left-margin-Semibold-L" style="fill:none;stroke:#00AEEF;stroke-width:0.5;opacity:1.0;" x1="1962.07" x2="1962.07" y1="1460.79" y2="1580.12"/>
  <line id="right-margin-Semibold-L" style="fill:none;stroke:#00AEEF;stroke-width:0.5;opacity:1.0;" x1="2124.47" x2="2124.47" y1="1460.79" y2="1580.12"/>
  <line id="left-margin-Bold-L" style="fill:none;stroke:#00AEEF;stroke-width:0.5;opacity:1.0;" x1="2257.87" x2="2257.87" y1="1460.79" y2="1580.12"/>
  <line id="right-margin-Bold-L" style="fill:none;stroke:#00AEEF;stroke-width:0.5;opacity:1.0;" x1="2422.08" x2="2422.08" y1="1460.79" y2="1580.12"/>
  <line id="left-margin-Heavy-L" style="fill:none;stroke:#00AEEF;stroke-width:0.5;opacity:1.0;" x1="2553.29" x2="2553.29" y1="1460.79" y2="1580.12"/>
  <line id="right-margin-Heavy-L" style="fill:none;stroke:#00AEEF;stroke-width:0.5;opacity:1.0;" x1="2720.09" x2="2720.09" y1="1460.79" y2="1580.12"/>
  <line id="left-margin-Black-L" style="fill:none;stroke:#00AEEF;stroke-width:0.5;opacity:1.0;" x1="2848.83" x2="2848.83" y1="1460.79" y2="1580.12"/>
  <line id="right-margin-Black-L" style="fill:none;stroke:#00AEEF;stroke-width:0.5;opacity:1.0;" x1="3017.97" x2="3017.97" y1="1460.79" y2="1580.12"/>
 </g>
 <g id="Symbols">
  <g id="Black-L" transform="matrix(1 0 0 1 2848.83 1556)">
   <path class="multicolor-0:white hierarchical-1:primary SFSymbolsPreviewFFFFFF" d="M45.0684-3.51562L124.561-3.51562Q133.057-3.51562 140.283-6.51855Q147.51-9.52148 152.905-14.8682Q158.301-20.2148 161.304-27.3193Q164.307-34.4238 164.307-42.627Q164.307-50.9277 161.304-58.0811Q158.301-65.2344 152.905-70.6055Q147.51-75.9766 140.259-78.9551Q133.008-81.9336 124.512-81.9336Q120.85-88.9648 115.015-94.6777Q109.18-100.391 100.879-103.76Q92.5781-107.129 81.543-107.129Q71.875-107.129 63.5254-103.906Q55.1758-100.684 48.6572-94.9219Q42.1387-89.1602 37.9883-81.4941Q33.8379-73.8281 32.5684-64.9414Q26.4648-62.793 21.6553-58.6182Q16.8457-54.4434 14.0625-48.5596Q11.2793-42.6758 11.2793-35.4004Q11.2793-26.416 15.4785-19.1895Q19.6777-11.9629 27.2949-7.73926Q34.9121-3.51562 45.0684-3.51562Z"/>
   <path class="multicolor-0:white hierarchical-0:secondary SFSymbolsPreviewFFFFFF" d="M107.471 19.1406L90.8691 19.1406L90.332 23.5352L97.8027 9.17969Q98.3398 8.1543 97.9736 7.44629Q97.6074 6.73828 96.5332 6.73828L77.3926 6.73828Q76.0254 6.73828 75.415 7.22656Q74.8047 7.71484 74.3652 8.74023L65.0879 29.834Q64.5996 31.0059 65.0146 31.7139Q65.4297 32.4219 66.6992 32.4219L80.7617 32.4219L80.9082 27.4414L70.5566 52.4902Q69.9219 53.8574 70.9473 54.2969Q71.875 54.6875 72.9492 53.7598L108.398 22.4121Q109.521 21.4355 109.204 20.2881Q108.887 19.1406 107.471 19.1406Z"/>
  </g>
  <g id="Heavy-L" transform="matrix(1 0 0 1 2553.29 1556)">
   <path class="multicolor-0:white hierarchical-1:primary SFSymbolsPreviewFFFFFF" d="M43.9453-4.10156L123.193-4.10156Q131.494-4.10156 138.55-7.03125Q145.605-9.96094 150.879-15.1611Q156.152-20.3613 159.058-27.2705Q161.963-34.1797 161.963-42.1387Q161.963-50.2441 159.009-57.1777Q156.055-64.1113 150.732-69.3115Q145.41-74.5117 138.281-77.3682Q131.152-80.2246 122.754-80.2246Q119.043-87.4512 113.159-93.1885Q107.275-98.9258 99.0967-102.271Q90.918-105.615 80.3223-105.615Q70.8496-105.615 62.6465-102.393Q54.4434-99.1699 48.0225-93.4082Q41.6016-87.6465 37.5488-79.9805Q33.4961-72.3145 32.373-63.4766Q26.3184-61.4258 21.5576-57.373Q16.7969-53.3203 14.0381-47.583Q11.2793-41.8457 11.2793-34.7168Q11.2793-26.123 15.2832-19.1895Q19.2871-12.2559 26.6602-8.17871Q34.0332-4.10156 43.9453-4.10156Z"/>
   <path class="multicolor-0:white hierarchical-0:secondary SFSymbolsPreviewFFFFFF" d="M104.785 18.9453L88.8672 18.9453L88.4766 22.9492L96.0938 8.34961Q96.6309 7.32422 96.2646 6.61621Q95.8984 5.9082 94.8242 5.9082L77.4414 5.9082Q76.0742 5.9082 75.4639 6.39648Q74.8535 6.88477 74.4141 7.91016L65.2832 28.6621Q64.7949 29.834 65.2344 30.5176Q65.6738 31.2012 66.9434 31.2012L80.2734 31.2012L80.5664 26.5137L70.2637 51.5137Q69.6289 52.8809 70.6543 53.3203Q71.582 53.7109 72.6562 52.7344L105.713 22.2168Q106.836 21.1914 106.519 20.0684Q106.201 18.9453 104.785 18.9453Z"/>
  </g>
  <g id="Bold-L" transform="matrix(1 0 0 1 2257.87 1556)">
   <path class="multicolor-0:white hierarchical-1:primary SFSymbolsPreviewFFFFFF" d="M42.7246-4.78516L121.68-4.78516Q129.736-4.78516 136.621-7.61719Q143.506-10.4492 148.608-15.5029Q153.711-20.5566 156.543-27.2461Q159.375-33.9355 159.375-41.6016Q159.375-49.4629 156.47-56.1523Q153.564-62.8418 148.315-67.8467Q143.066-72.8516 136.06-75.6104Q129.053-78.3691 120.85-78.3691Q117.041-85.791 111.108-91.5527Q105.176-97.3145 97.1436-100.61Q89.1113-103.906 79.0039-103.906Q69.7754-103.906 61.7188-100.684Q53.6621-97.4609 47.3633-91.6992Q41.0645-85.9375 37.1094-78.2959Q33.1543-70.6543 32.1289-61.8164Q26.1719-59.9121 21.46-56.0059Q16.748-52.0996 14.0137-46.4844Q11.2793-40.8691 11.2793-33.9355Q11.2793-25.7812 15.0879-19.165Q18.8965-12.5488 25.9766-8.66699Q33.0566-4.78516 42.7246-4.78516Z"/>
   <path class="multicolor-0:white hierarchical-0:secondary SFSymbolsPreviewFFFFFF" d="M101.758 18.7988L86.6211 18.7988L86.377 22.2656L94.1406 7.42188Q94.6777 6.39648 94.3115 5.68848Q93.9453 4.98047 92.8711 4.98047L77.4902 4.98047Q76.1719 4.98047 75.5615 5.46875Q74.9512 5.95703 74.5117 6.93359L65.5273 27.3438Q65.0391 28.5156 65.5029 29.1992Q65.9668 29.8828 67.1875 29.8828L79.7363 29.8828L80.2246 25.5371L69.9219 50.4395Q69.3359 51.8555 70.3613 52.2461Q71.2891 52.6367 72.3145 51.6602L102.783 21.9727Q103.809 20.9473 103.491 19.873Q103.174 18.7988 101.758 18.7988Z"/>
  </g>
  <g id="Semibold-L" transform="matrix(1 0 0 1 1962.07 1556)">
   <path class="multicolor-0:white hierarchical-1:primary SFSymbolsPreviewFFFFFF" d="M41.8457-5.22461L120.654-5.22461Q128.516-5.22461 135.254-7.9834Q141.992-10.7422 147.021-15.6982Q152.051-20.6543 154.81-27.1973Q157.568-33.7402 157.568-41.2109Q157.568-48.877 154.688-55.4199Q151.807-61.9629 146.631-66.8213Q141.455-71.6797 134.521-74.3652Q127.588-77.0508 119.482-77.0508Q115.625-84.6191 109.668-90.4053Q103.711-96.1914 95.7764-99.4385Q87.8418-102.686 78.0273-102.686Q68.9941-102.686 61.0352-99.4629Q53.0762-96.2402 46.8506-90.4785Q40.625-84.7168 36.7432-77.0996Q32.8613-69.4824 31.9336-60.6445Q26.0742-58.8867 21.3867-55.0537Q16.6992-51.2207 13.9893-45.7275Q11.2793-40.2344 11.2793-33.3496Q11.2793-25.5371 14.9414-19.1406Q18.6035-12.7441 25.4639-8.98438Q32.3242-5.22461 41.8457-5.22461Z"/>
   <path class="multicolor-0:white hierarchical-0:secondary SFSymbolsPreviewFFFFFF" d="M99.6582 18.6523L85.0586 18.6523L84.9609 21.8262L92.8223 6.73828Q93.3594 5.71289 92.9932 5.00488Q92.627 4.29688 91.5527 4.29688L77.5391 4.29688Q76.1719 4.29688 75.5615 4.78516Q74.9512 5.27344 74.5117 6.29883L65.6738 26.416Q65.1855 27.5879 65.6494 28.2715Q66.1133 28.9551 67.3828 28.9551L79.3457 28.9551L79.9316 24.8047L69.6777 49.707Q69.0918 51.0742 70.1172 51.5137Q71.0938 51.9043 72.0703 50.8789L100.684 21.8262Q101.709 20.752 101.392 19.7021Q101.074 18.6523 99.6582 18.6523Z"/>
  </g>
  <g id="Medium-L" transform="matrix(1 0 0 1 1666.04 1556)">
   <path class="multicolor-0:white hierarchical-1:primary SFSymbolsPreviewFFFFFF" d="M41.1621-5.56641L119.824-5.56641Q127.588-5.56641 134.253-8.27637Q140.918-10.9863 145.85-15.8691Q150.781-20.752 153.491-27.1729Q156.201-33.5938 156.201-40.9668Q156.201-48.4863 153.345-54.9072Q150.488-61.3281 145.361-66.0645Q140.234-70.8008 133.35-73.4131Q126.465-76.0254 118.457-76.0254Q114.551-83.7402 108.594-89.5508Q102.637-95.3613 94.7754-98.584Q86.9141-101.807 77.3438-101.807Q68.4082-101.807 60.5225-98.584Q52.6367-95.3613 46.4844-89.5996Q40.332-83.8379 36.499-76.2207Q32.666-68.6035 31.7871-59.7656Q25.9766-58.0566 21.3379-54.2969Q16.6992-50.5371 13.9893-45.1172Q11.2793-39.6973 11.2793-32.959Q11.2793-25.3906 14.8438-19.165Q18.4082-12.9395 25.1221-9.25293Q31.8359-5.56641 41.1621-5.56641Z"/>
   <path class="multicolor-0:white hierarchical-0:secondary SFSymbolsPreviewFFFFFF" d="M98.0957 18.5547L83.8867 18.5547L83.8379 21.4355L91.7969 6.25Q92.334 5.22461 91.9678 4.5166Q91.6016 3.80859 90.5273 3.80859L77.5391 3.80859Q76.2207 3.80859 75.6104 4.29688Q75 4.78516 74.5605 5.76172L65.8203 25.7324Q65.2832 26.9043 65.7715 27.5879Q66.2598 28.2715 67.4805 28.2715L79.1016 28.2715L79.7363 24.2676L69.5312 49.1211Q68.8965 50.5371 69.9219 50.9277Q70.8984 51.3184 71.9238 50.293L99.1699 21.6797Q100.146 20.6543 99.8047 19.6045Q99.4629 18.5547 98.0957 18.5547Z"/>
  </g>
  <g id="Regular-L" transform="matrix(1 0 0 1 1370.21 1556)">
   <path class="multicolor-0:white hierarchical-1:primary SFSymbolsPreviewFFFFFF" d="M40.332-6.00586L118.799-6.00586Q126.416-6.00586 132.935-8.66699Q139.453-11.3281 144.287-16.0889Q149.121-20.8496 151.782-27.124Q154.443-33.3984 154.443-40.5762Q154.443-47.9492 151.611-54.1992Q148.779-60.4492 143.701-65.0635Q138.623-69.6777 131.836-72.2168Q125.049-74.7559 117.139-74.7559Q113.184-82.6172 107.178-88.4277Q101.172-94.2383 93.4082-97.4365Q85.6445-100.635 76.416-100.635Q67.627-100.635 59.8633-97.4121Q52.0996-94.1895 46.0205-88.4277Q39.9414-82.666 36.1816-75.0488Q32.4219-67.4316 31.6406-58.6426Q25.8789-57.0312 21.2646-53.3691Q16.6504-49.707 13.9648-44.3848Q11.2793-39.0625 11.2793-32.4219Q11.2793-25.1465 14.6973-19.1406Q18.1152-13.1348 24.6338-9.57031Q31.1523-6.00586 40.332-6.00586Z"/>
   <path class="multicolor-0:white hierarchical-0:secondary SFSymbolsPreviewFFFFFF" d="M96.0449 18.4082L82.373 18.4082L82.4219 20.9961L90.4785 5.61523Q91.0156 4.58984 90.6494 3.88184Q90.2832 3.17383 89.209 3.17383L77.5879 3.17383Q76.2695 3.17383 75.6592 3.66211Q75.0488 4.15039 74.6094 5.12695L65.9668 24.8047Q65.4297 26.0254 65.9424 26.6846Q66.4551 27.3438 67.6758 27.3438L78.7109 27.3438L79.4922 23.584L69.2871 48.3887Q68.7012 49.8047 69.7266 50.1953Q70.7031 50.5859 71.6797 49.5117L97.1191 21.5332Q98.0957 20.459 97.7539 19.4336Q97.4121 18.4082 96.0449 18.4082Z"/>
  </g>
  <g id="Light-L" transform="matrix(1 0 0 1 1073.96 1556)">
   <path class="multicolor-0:white hierarchical-1:primary SFSymbolsPreviewFFFFFF" d="M39.5996-6.78711L118.457-6.78711Q125.879-6.78711 132.3-9.39941Q138.721-12.0117 143.481-16.6748Q148.242-21.3379 150.879-27.4902Q153.516-33.6426 153.516-40.6738Q153.516-47.8516 150.732-53.9795Q147.949-60.1074 142.944-64.624Q137.939-69.1406 131.25-71.6064Q124.561-74.0723 116.748-74.0723Q112.793-82.0801 106.885-87.9639Q100.977-93.8477 93.2129-97.0947Q85.4492-100.342 76.0742-100.342Q67.3828-100.342 59.7412-97.1191Q52.0996-93.8965 46.1426-88.1348Q40.1855-82.373 36.4746-74.7559Q32.7637-67.1387 32.0312-58.3496Q26.2207-56.7871 21.5088-53.1982Q16.7969-49.6094 14.0381-44.3604Q11.2793-39.1113 11.2793-32.5195Q11.2793-25.4395 14.624-19.6045Q17.9688-13.7695 24.3164-10.2783Q30.6641-6.78711 39.5996-6.78711Z"/>
   <path class="multicolor-0:white hierarchical-0:secondary SFSymbolsPreviewFFFFFF" d="M92.8711 19.043L80.0293 19.043L80.3711 21.2402L88.8672 5.0293Q89.4043 4.00391 89.0381 3.27148Q88.6719 2.53906 87.5977 2.53906L78.8086 2.53906Q77.4414 2.53906 76.8311 3.02734Q76.2207 3.51562 75.7812 4.54102L67.0898 24.3652Q66.5527 25.6348 67.0898 26.2939Q67.627 26.9531 68.8477 26.9531L79.0039 26.9531L79.834 23.1445L69.5312 48.1934Q68.8965 49.6582 69.9707 50.0488Q71.0449 50.4883 71.9238 49.3164L94.0918 22.0703Q94.9707 20.9961 94.6045 20.0195Q94.2383 19.043 92.8711 19.043Z"/>
  </g>
  <g id="Thin-L" transform="matrix(1 0 0 1 777.858 1556)">
   <path class="multicolor-0:white hierarchical-1:primary SFSymbolsPreviewFFFFFF" d="M38.623-7.86133L117.969-7.86133Q125.195-7.86133 131.47-10.4004Q137.744-12.9395 142.407-17.4561Q147.07-21.9727 149.683-27.9541Q152.295-33.9355 152.295-40.7715Q152.295-47.7539 149.561-53.6865Q146.826-59.6191 141.919-63.9893Q137.012-68.3594 130.444-70.7764Q123.877-73.1934 116.26-73.1934Q112.305-81.3477 106.494-87.3535Q100.684-93.3594 92.9443-96.6553Q85.2051-99.9512 75.5859-99.9512Q67.0898-99.9512 59.6191-96.7285Q52.1484-93.5059 46.3135-87.7441Q40.4785-81.9824 36.8652-74.3652Q33.252-66.748 32.5195-57.959Q26.6113-56.4453 21.7773-52.9541Q16.9434-49.4629 14.1113-44.3115Q11.2793-39.1602 11.2793-32.6172Q11.2793-25.8301 14.502-20.2148Q17.7246-14.5996 23.8525-11.2305Q29.9805-7.86133 38.623-7.86133Z"/>
   <path class="multicolor-0:white hierarchical-0:secondary SFSymbolsPreviewFFFFFF" d="M88.7207 19.873L76.9043 19.873L77.6855 21.582L86.7676 4.19922Q87.3047 3.17383 86.9385 2.44141Q86.5723 1.70898 85.498 1.70898L80.4199 1.70898Q79.0039 1.70898 78.3936 2.19727Q77.7832 2.68555 77.3438 3.71094L68.5547 23.8281Q68.0176 25.0977 68.6035 25.7568Q69.1895 26.416 70.3613 26.416L79.3945 26.416L80.2246 22.5586L69.8242 47.9492Q69.1895 49.4629 70.3125 49.9023Q71.4355 50.293 72.2656 49.0234L90.0879 22.7539Q90.8691 21.6797 90.4541 20.7764Q90.0391 19.873 88.7207 19.873Z"/>
  </g>
  <g id="Ultralight-L" transform="matrix(1 0 0 1 481.464 1556)">
   <path class="multicolor-0:white hierarchical-1:primary SFSymbolsPreviewFFFFFF" d="M38.0859-8.39844L117.725-8.39844Q124.805-8.39844 131.006-10.9131Q137.207-13.4277 141.846-17.8711Q146.484-22.3145 149.072-28.1982Q151.66-34.082 151.66-40.8691Q151.66-47.7051 148.975-53.54Q146.289-59.375 141.406-63.6963Q136.523-68.0176 130.029-70.3857Q123.535-72.7539 116.016-72.7539Q112.061-81.0059 106.299-87.0605Q100.537-93.1152 92.8223-96.4355Q85.1074-99.7559 75.3418-99.7559Q66.9434-99.7559 59.5459-96.5088Q52.1484-93.2617 46.3867-87.5244Q40.625-81.7871 37.0605-74.1699Q33.4961-66.5527 32.7637-57.7637Q26.8555-56.25 21.9482-52.8076Q17.041-49.3652 14.1602-44.2871Q11.2793-39.209 11.2793-32.666Q11.2793-26.0742 14.4531-20.5566Q17.627-15.0391 23.6328-11.7188Q29.6387-8.39844 38.0859-8.39844Z"/>
   <path class="multicolor-0:white hierarchical-0:secondary SFSymbolsPreviewFFFFFF" d="M86.5723 20.2637L75.293 20.2637L76.2695 21.7773L85.6934 3.80859Q86.2305 2.7832 85.8398 2.02637Q85.4492 1.26953 84.375 1.26953L81.2012 1.26953Q79.834 1.26953 79.2236 1.75781Q78.6133 2.24609 78.1738 3.32031L69.2871 23.5352Q68.75 24.8047 69.3848 25.4639Q70.0195 26.123 71.1914 26.123L79.6387 26.123L80.4688 22.2656L69.9707 47.8516Q69.3359 49.3652 70.459 49.8047Q71.6797 50.2441 72.4609 48.877L88.0371 23.1445Q88.7207 22.0703 88.3057 21.167Q87.8906 20.2637 86.5723 20.2637Z"/>
  </g>
  <g id="Black-M" transform="matrix(1 0 0 1 2867.02 1126)">
   <path class="multicolor-0:white hierarchical-1:primary SFSymbolsPreviewFFFFFF" d="M35.6445-10.4492L97.5586-10.4492Q104.248-10.4492 109.985-12.8174Q115.723-15.1855 119.995-19.4092Q124.268-23.6328 126.636-29.2725Q129.004-34.9121 129.004-41.4062Q129.004-47.998 126.66-53.6621Q124.316-59.3262 120.093-63.5986Q115.869-67.8711 110.205-70.2637Q104.541-72.6562 97.8516-72.6562Q95.1172-77.9785 90.625-82.3975Q86.1328-86.8164 79.6143-89.502Q73.0957-92.1875 64.1113-92.1875Q56.4941-92.1875 49.9512-89.6729Q43.4082-87.1582 38.3057-82.6904Q33.2031-78.2227 29.9072-72.2656Q26.6113-66.3086 25.5371-59.4238Q20.752-57.666 16.9434-54.3701Q13.1348-51.0742 10.9375-46.4111Q8.74023-41.748 8.74023-35.9863Q8.74023-28.7598 12.1338-22.9736Q15.5273-17.1875 21.582-13.8184Q27.6367-10.4492 35.6445-10.4492Z"/>
   <path class="multicolor-0:white hierarchical-0:secondary SFSymbolsPreviewFFFFFF" d="M84.5215 7.27539L71.3379 7.27539L70.8984 10.8887L76.7578-0.292969Q77.1484-1.07422 76.8555-1.63574Q76.5625-2.19727 75.7324-2.19727L60.3516-2.19727Q59.2773-2.19727 58.7891-1.83105Q58.3008-1.46484 58.0078-0.634766L50.6348 16.0645Q50.293 16.9434 50.6104 17.5049Q50.9277 18.0664 51.9043 18.0664L63.0859 18.0664L63.0859 13.9648L55.0293 33.4961Q54.541 34.6191 55.3223 34.9609Q56.0547 35.2539 56.8848 34.5215L85.2539 9.81445Q86.1328 9.08203 85.8887 8.17871Q85.6445 7.27539 84.5215 7.27539Z"/>
  </g>
  <g id="Heavy-M" transform="matrix(1 0 0 1 2571.33 1126)">
   <path class="multicolor-0:white hierarchical-1:primary SFSymbolsPreviewFFFFFF" d="M34.7168-10.8398L96.3379-10.8398Q102.832-10.8398 108.423-13.1348Q114.014-15.4297 118.164-19.5557Q122.314-23.6816 124.634-29.1504Q126.953-34.6191 126.953-40.918Q126.953-47.3145 124.634-52.8076Q122.314-58.3008 118.14-62.4268Q113.965-66.5527 108.374-68.8477Q102.783-71.1426 96.2402-71.1426Q93.4082-76.6113 88.8672-81.0547Q84.3262-85.498 77.9297-88.1104Q71.5332-90.7227 62.9883-90.7227Q55.5664-90.7227 49.1211-88.208Q42.6758-85.6934 37.6465-81.25Q32.6172-76.8066 29.4189-70.8496Q26.2207-64.8926 25.2441-58.0566Q20.5566-56.3965 16.8213-53.1982Q13.0859-50 10.9131-45.459Q8.74023-40.918 8.74023-35.3027Q8.74023-28.418 11.9629-22.876Q15.1855-17.334 21.0205-14.0869Q26.8555-10.8398 34.7168-10.8398Z"/>
   <path class="multicolor-0:white hierarchical-0:secondary SFSymbolsPreviewFFFFFF" d="M82.5684 6.98242L69.873 6.98242L69.5312 10.2539L75.3906-0.976562Q75.7812-1.75781 75.4883-2.31934Q75.1953-2.88086 74.4141-2.88086L60.1562-2.88086Q59.082-2.88086 58.5938-2.51465Q58.1055-2.14844 57.8125-1.31836L50.5859 14.9902Q50.2441 15.8691 50.5859 16.4307Q50.9277 16.9922 51.8555 16.9922L62.5488 16.9922L62.6953 13.1836L54.6875 32.6172Q54.1992 33.6914 54.9805 34.0332Q55.7129 34.3262 56.543 33.5938L83.3008 9.47266Q84.1797 8.74023 83.9355 7.86133Q83.6914 6.98242 82.5684 6.98242Z"/>
  </g>
  <g id="Bold-M" transform="matrix(1 0 0 1 2275.79 1126)">
   <path class="multicolor-0:white hierarchical-1:primary SFSymbolsPreviewFFFFFF" d="M33.6914-11.2793L94.9219-11.2793Q101.27-11.2793 106.689-13.5254Q112.109-15.7715 116.138-19.751Q120.166-23.7305 122.388-29.0283Q124.609-34.3262 124.609-40.3809Q124.609-46.582 122.339-51.8799Q120.068-57.1777 115.967-61.1328Q111.865-65.0879 106.372-67.2852Q100.879-69.4824 94.4336-69.4824Q91.5527-75.1465 86.9385-79.5898Q82.3242-84.0332 76.0742-86.5967Q69.8242-89.1602 61.7676-89.1602Q54.541-89.1602 48.2178-86.6455Q41.8945-84.1309 36.9629-79.6631Q32.0312-75.1953 28.9062-69.2627Q25.7812-63.3301 24.9512-56.4941Q20.3125-54.9805 16.6504-51.8799Q12.9883-48.7793 10.8643-44.3848Q8.74023-39.9902 8.74023-34.5215Q8.74023-28.0273 11.792-22.7539Q14.8438-17.4805 20.4346-14.3799Q26.0254-11.2793 33.6914-11.2793Z"/>
   <path class="multicolor-0:white hierarchical-0:secondary SFSymbolsPreviewFFFFFF" d="M80.3711 6.64062L68.2617 6.64062L67.9688 9.57031L73.877-1.75781Q74.3164-2.58789 74.0234-3.125Q73.7305-3.66211 72.9004-3.66211L59.9121-3.66211Q58.8867-3.66211 58.3984-3.2959Q57.9102-2.92969 57.5684-2.14844L50.5859 13.8184Q50.1953 14.6973 50.5371 15.2344Q50.8789 15.7715 51.8555 15.7715L61.9629 15.7715L62.2559 12.3047L54.2969 31.5918Q53.8574 32.7148 54.6387 33.0078Q55.3711 33.3008 56.1523 32.5684L81.1523 9.13086Q81.9824 8.39844 81.7383 7.51953Q81.4941 6.64062 80.3711 6.64062Z"/>
  </g>
  <g id="Semibold-M" transform="matrix(1 0 0 1 1979.89 1126)">
   <path class="multicolor-0:white hierarchical-1:primary SFSymbolsPreviewFFFFFF" d="M32.959-11.5723L93.9453-11.5723Q100.195-11.5723 105.493-13.7695Q110.791-15.9668 114.722-19.8486Q118.652-23.7305 120.825-28.9062Q122.998-34.082 122.998-39.9902Q122.998-46.0449 120.752-51.1963Q118.506-56.3477 114.429-60.2051Q110.352-64.0625 104.932-66.1865Q99.5117-68.3105 93.1641-68.3105Q90.2344-74.0723 85.5957-78.54Q80.957-83.0078 74.7803-85.5225Q68.6035-88.0371 60.9375-88.0371Q53.8086-88.0371 47.583-85.5225Q41.3574-83.0078 36.4746-78.54Q31.5918-74.0723 28.5156-68.1641Q25.4395-62.2559 24.707-55.4199Q20.166-54.0039 16.5527-50.9766Q12.9395-47.9492 10.8398-43.6279Q8.74023-39.3066 8.74023-33.9355Q8.74023-27.7344 11.6699-22.6562Q14.5996-17.5781 20.0195-14.5752Q25.4395-11.5723 32.959-11.5723Z"/>
   <path class="multicolor-0:white hierarchical-0:secondary SFSymbolsPreviewFFFFFF" d="M78.8574 6.39648L67.0898 6.39648L66.8945 9.0332L72.8516-2.29492Q73.2422-3.125 72.9492-3.66211Q72.6562-4.19922 71.875-4.19922L59.7656-4.19922Q58.6914-4.19922 58.2031-3.80859Q57.7148-3.41797 57.4219-2.68555L50.5371 12.9883Q50.1465 13.8672 50.5127 14.4043Q50.8789 14.9414 51.8066 14.9414L61.5234 14.9414L61.9629 11.6699L54.0527 30.9082Q53.5645 31.9824 54.3457 32.2754Q55.0781 32.5684 55.9082 31.8359L79.6387 8.88672Q80.4199 8.10547 80.1758 7.25098Q79.9316 6.39648 78.8574 6.39648Z"/>
  </g>
  <g id="Medium-M" transform="matrix(1 0 0 1 1683.79 1126)">
   <path class="multicolor-0:white hierarchical-1:primary SFSymbolsPreviewFFFFFF" d="M32.4219-11.8164L93.2129-11.8164Q99.3652-11.8164 104.59-13.9648Q109.814-16.1133 113.672-19.9219Q117.529-23.7305 119.653-28.8086Q121.777-33.8867 121.777-39.6973Q121.777-45.6543 119.531-50.708Q117.285-55.7617 113.281-59.5215Q109.277-63.2812 103.882-65.3564Q98.4863-67.4316 92.1875-67.4316Q89.209-73.291 84.5459-77.7588Q79.8828-82.2266 73.7793-84.6924Q67.6758-87.1582 60.2539-87.1582Q53.2715-87.1582 47.0947-84.6436Q40.918-82.1289 36.084-77.6855Q31.25-73.2422 28.2227-67.334Q25.1953-61.4258 24.5117-54.6387Q20.0195-53.2715 16.4551-50.293Q12.8906-47.3145 10.8154-43.0664Q8.74023-38.8184 8.74023-33.5449Q8.74023-27.5391 11.5723-22.583Q14.4043-17.627 19.7021-14.7217Q25-11.8164 32.4219-11.8164Z"/>
   <path class="multicolor-0:white hierarchical-0:secondary SFSymbolsPreviewFFFFFF" d="M77.7344 6.25L66.2598 6.25L66.1133 8.69141L72.0215-2.68555Q72.4609-3.51562 72.168-4.05273Q71.875-4.58984 71.0938-4.58984L59.6191-4.58984Q58.5938-4.58984 58.1055-4.19922Q57.6172-3.80859 57.2754-3.07617L50.5371 12.3535Q50.1465 13.2812 50.4883 13.7939Q50.8301 14.3066 51.8066 14.3066L61.1816 14.3066L61.7188 11.1816L53.8086 30.3711Q53.3691 31.4453 54.1504 31.7383Q54.8828 32.0312 55.6641 31.2988L78.4668 8.69141Q79.2969 7.91016 79.0527 7.08008Q78.8086 6.25 77.7344 6.25Z"/>
  </g>
  <g id="Regular-M" transform="matrix(1 0 0 1 1387.86 1126)">
   <path class="multicolor-0:white hierarchical-1:primary SFSymbolsPreviewFFFFFF" d="M31.6895-12.1094L92.2852-12.1094Q98.291-12.1094 103.394-14.209Q108.496-16.3086 112.28-20.0439Q116.064-23.7793 118.14-28.7354Q120.215-33.6914 120.215-39.3066Q120.215-45.166 117.993-50.0732Q115.771-54.9805 111.792-58.6182Q107.812-62.2559 102.49-64.2578Q97.168-66.2598 90.9668-66.2598Q87.9395-72.2656 83.2275-76.7334Q78.5156-81.2012 72.5098-83.6426Q66.5039-86.084 59.4238-86.084Q52.5391-86.084 46.46-83.5693Q40.3809-81.0547 35.5957-76.6113Q30.8105-72.168 27.8564-66.2598Q24.9023-60.3516 24.3164-53.5645Q19.873-52.2949 16.3574-49.3896Q12.8418-46.4844 10.791-42.334Q8.74023-38.1836 8.74023-33.0078Q8.74023-27.2461 11.4502-22.4854Q14.1602-17.7246 19.2871-14.917Q24.4141-12.1094 31.6895-12.1094Z"/>
   <path class="multicolor-0:white hierarchical-0:secondary SFSymbolsPreviewFFFFFF" d="M76.2207 6.00586L65.1367 6.00586L65.0391 8.20312L70.9961-3.22266Q71.4355-4.05273 71.1426-4.58984Q70.8496-5.12695 70.0684-5.12695L59.4727-5.12695Q58.4473-5.12695 57.959-4.73633Q57.4707-4.3457 57.1289-3.61328L50.4883 11.5234Q50.0977 12.4512 50.4639 12.9639Q50.8301 13.4766 51.7578 13.4766L60.791 13.4766L61.4258 10.5957L53.5645 29.6875Q53.125 30.7617 53.9062 31.0547Q54.6387 31.3477 55.4199 30.5664L77.002 8.44727Q77.7832 7.66602 77.5391 6.83594Q77.2949 6.00586 76.2207 6.00586Z"/>
  </g>
  <g id="Light-M" transform="matrix(1 0 0 1 1091.56 1126)">
   <path class="multicolor-0:white hierarchical-1:primary SFSymbolsPreviewFFFFFF" d="M31.0059-12.8418L91.9434-12.8418Q97.8027-12.8418 102.808-14.8926Q107.812-16.9434 111.548-20.5811Q115.283-24.2188 117.334-29.0527Q119.385-33.8867 119.385-39.4043Q119.385-45.0684 117.212-49.8535Q115.039-54.6387 111.108-58.2031Q107.178-61.7676 101.953-63.7207Q96.7285-65.6738 90.625-65.6738Q87.5977-71.7773 82.959-76.3184Q78.3203-80.8594 72.3389-83.3496Q66.3574-85.8398 59.082-85.8398Q52.3438-85.8398 46.3623-83.3252Q40.3809-80.8105 35.6934-76.3428Q31.0059-71.875 28.125-65.9912Q25.2441-60.1074 24.6582-53.2715Q20.166-52.0508 16.5527-49.2188Q12.9395-46.3867 10.8398-42.3096Q8.74023-38.2324 8.74023-33.0566Q8.74023-27.5391 11.377-22.9248Q14.0137-18.3105 18.9941-15.5762Q23.9746-12.8418 31.0059-12.8418Z"/>
   <path class="multicolor-0:white hierarchical-0:secondary SFSymbolsPreviewFFFFFF" d="M73.3887 6.54297L63.0371 6.54297L63.1836 8.44727L69.5801-3.75977Q70.0195-4.58984 69.7266-5.12695Q69.4336-5.66406 68.6523-5.66406L60.5469-5.66406Q59.5215-5.66406 59.0332-5.27344Q58.5449-4.88281 58.2031-4.15039L51.4648 11.1328Q51.0742 12.1094 51.4893 12.6221Q51.9043 13.1348 52.7832 13.1348L61.084 13.1348L61.7188 10.2051L53.7598 29.541Q53.3203 30.6152 54.1016 30.957Q54.9316 31.25 55.6641 30.3711L74.2676 8.93555Q75 8.10547 74.7314 7.32422Q74.4629 6.54297 73.3887 6.54297Z"/>
  </g>
  <g id="Thin-M" transform="matrix(1 0 0 1 795.411 1126)">
   <path class="multicolor-0:white hierarchical-1:primary SFSymbolsPreviewFFFFFF" d="M30.127-13.8184L91.5039-13.8184Q97.2168-13.8184 102.075-15.7959Q106.934-17.7734 110.596-21.2891Q114.258-24.8047 116.284-29.4678Q118.311-34.1309 118.311-39.502Q118.311-44.9707 116.187-49.6094Q114.062-54.248 110.205-57.666Q106.348-61.084 101.245-62.9639Q96.1426-64.8438 90.1855-64.8438Q87.1582-71.0938 82.6172-75.7324Q78.0762-80.3711 72.0947-82.9346Q66.1133-85.498 58.6426-85.498Q52.0996-85.498 46.2646-82.9834Q40.4297-80.4688 35.8643-76.001Q31.2988-71.5332 28.4912-65.6494Q25.6836-59.7656 25.0977-52.9297Q20.5566-51.709 16.8457-48.999Q13.1348-46.2891 10.9375-42.2607Q8.74023-38.2324 8.74023-33.1543Q8.74023-27.8809 11.2793-23.4619Q13.8184-19.043 18.5791-16.4307Q23.3398-13.8184 30.127-13.8184Z"/>
   <path class="multicolor-0:white hierarchical-0:secondary SFSymbolsPreviewFFFFFF" d="M69.6289 7.27539L60.2539 7.27539L60.791 8.74023L67.6758-4.49219Q68.1152-5.32227 67.8223-5.88379Q67.5293-6.44531 66.748-6.44531L61.9629-6.44531Q60.8887-6.44531 60.4004-6.05469Q59.9121-5.66406 59.5703-4.88281L52.832 10.6445Q52.3926 11.6211 52.832 12.1338Q53.2715 12.6465 54.1992 12.6465L61.4746 12.6465L62.1094 9.66797L54.0039 29.2969Q53.5645 30.4688 54.3945 30.7617Q55.2734 31.1035 55.957 30.127L70.6543 9.57031Q71.2891 8.74023 70.9961 8.00781Q70.7031 7.27539 69.6289 7.27539Z"/>
  </g>
  <g id="Ultralight-M" transform="matrix(1 0 0 1 498.969 1126)">
   <path class="multicolor-0:white hierarchical-1:primary SFSymbolsPreviewFFFFFF" d="M29.6875-14.3066L91.3086-14.3066Q96.875-14.3066 101.685-16.2354Q106.494-18.1641 110.107-21.6309Q113.721-25.0977 115.747-29.6875Q117.773-34.2773 117.773-39.5996Q117.773-44.9219 115.649-49.4629Q113.525-54.0039 109.741-57.373Q105.957-60.7422 100.903-62.5977Q95.8496-64.4531 89.9902-64.4531Q86.9629-70.752 82.4707-75.4639Q77.9785-80.1758 71.9971-82.7393Q66.0156-85.3027 58.4473-85.3027Q51.9531-85.3027 46.1914-82.7881Q40.4297-80.2734 35.9375-75.8057Q31.4453-71.3379 28.6621-65.4541Q25.8789-59.5703 25.293-52.7344Q20.752-51.5625 16.9678-48.877Q13.1836-46.1914 10.9619-42.2363Q8.74023-38.2812 8.74023-33.2031Q8.74023-28.0762 11.2305-23.7549Q13.7207-19.4336 18.3838-16.8701Q23.0469-14.3066 29.6875-14.3066Z"/>
   <path class="multicolor-0:white hierarchical-0:secondary SFSymbolsPreviewFFFFFF" d="M67.7246 7.61719L58.8379 7.61719L59.5215 8.88672L66.748-4.83398Q67.1875-5.66406 66.8945-6.22559Q66.6016-6.78711 65.7715-6.78711L62.6953-6.78711Q61.6211-6.78711 61.1328-6.39648Q60.6445-6.00586 60.3027-5.22461L53.4668 10.4004Q53.0273 11.4258 53.5156 11.9141Q54.0039 12.4023 54.8828 12.4023L61.6699 12.4023L62.3047 9.42383L54.1504 29.1992Q53.6621 30.3711 54.541 30.7129Q55.4688 31.0059 56.1035 29.9805L68.8477 9.91211Q69.3848 9.0332 69.0674 8.3252Q68.75 7.61719 67.7246 7.61719Z"/>
  </g>
  <g id="Black-S" transform="matrix(1 0 0 1 2881.11 696)">
   <path class="multicolor-0:white hierarchical-1:primary SFSymbolsPreviewFFFFFF" d="M28.1738-15.7227L76.8066-15.7227Q83.8379-15.7227 89.4775-18.9697Q95.1172-22.2168 98.3887-27.7832Q101.66-33.3496 101.66-40.2344Q101.66-47.168 98.4619-52.7588Q95.2637-58.3496 89.7217-61.6699Q84.1797-64.9902 77.1484-64.9902Q75-69.0918 71.5088-72.583Q68.0176-76.0742 62.8662-78.1738Q57.7148-80.2734 50.5371-80.2734Q42.5293-80.2734 36.084-76.8555Q29.6387-73.4375 25.4639-67.627Q21.2891-61.8164 20.1172-54.5898Q14.4531-52.4902 10.6445-47.6807Q6.83594-42.8711 6.83594-36.0352Q6.83594-30.2734 9.5459-25.6836Q12.2559-21.0938 17.0654-18.4082Q21.875-15.7227 28.1738-15.7227Z"/>
   <path class="multicolor-0:white hierarchical-0:secondary SFSymbolsPreviewFFFFFF" d="M66.6504-1.80664L56.2012-1.80664L55.8594 1.12305L60.4492-7.66602Q60.791-8.30078 60.5713-8.74023Q60.3516-9.17969 59.668-9.17969L47.4121-9.17969Q46.0449-9.17969 45.5566-7.95898L39.7461 5.27344Q39.4531 5.95703 39.6973 6.39648Q39.9414 6.83594 40.7227 6.83594L49.6094 6.83594L49.5605 3.51562L43.2129 18.8965Q42.8223 19.7266 43.457 20.0195Q44.043 20.2637 44.6777 19.6777L67.2363 0.195312Q67.9199-0.390625 67.7246-1.09863Q67.5293-1.80664 66.6504-1.80664Z"/>
  </g>
  <g id="Heavy-S" transform="matrix(1 0 0 1 2585.22 696)">
   <path class="multicolor-0:white hierarchical-1:primary SFSymbolsPreviewFFFFFF" d="M27.4414-15.9668L75.7812-15.9668Q82.666-15.9668 88.1592-19.1406Q93.6523-22.3145 96.8262-27.7344Q100-33.1543 100-39.7949Q100-46.5332 96.8262-51.9531Q93.6523-57.373 88.1836-60.5713Q82.7148-63.7695 75.7812-63.7695Q73.584-68.0176 70.0439-71.4844Q66.5039-74.9512 61.4502-77.002Q56.3965-79.0527 49.6582-79.0527Q41.7969-79.0527 35.4492-75.6348Q29.1016-72.2168 25-66.4307Q20.8984-60.6445 19.8242-53.418Q14.2578-51.4648 10.5469-46.7773Q6.83594-42.0898 6.83594-35.4004Q6.83594-29.9316 9.42383-25.5371Q12.0117-21.1426 16.6504-18.5547Q21.2891-15.9668 27.4414-15.9668Z"/>
   <path class="multicolor-0:white hierarchical-0:secondary SFSymbolsPreviewFFFFFF" d="M65.332-2.14844L55.2246-2.14844L54.9316 0.537109L59.4727-8.20312Q59.8145-8.83789 59.5947-9.27734Q59.375-9.7168 58.6914-9.7168L47.0703-9.7168Q45.752-9.7168 45.2637-8.49609L39.5996 4.39453Q39.3066 5.07812 39.5508 5.51758Q39.7949 5.95703 40.5762 5.95703L49.1211 5.95703L49.1699 2.88086L42.9199 18.1152Q42.5293 18.9941 43.1641 19.2383Q43.7012 19.4824 44.3359 18.8965L65.918-0.146484Q66.6016-0.732422 66.4062-1.44043Q66.2109-2.14844 65.332-2.14844Z"/>
  </g>
  <g id="Bold-S" transform="matrix(1 0 0 1 2289.44 696)">
   <path class="multicolor-0:white hierarchical-1:primary SFSymbolsPreviewFFFFFF" d="M26.6602-16.2598L74.6582-16.2598Q81.3477-16.2598 86.6699-19.3359Q91.9922-22.4121 95.0684-27.6611Q98.1445-32.9102 98.1445-39.3066Q98.1445-45.8984 95.0195-51.0986Q91.8945-56.2988 86.499-59.3506Q81.1035-62.4023 74.3164-62.4023Q72.0215-66.7969 68.4326-70.2637Q64.8438-73.7305 59.8877-75.7324Q54.9316-77.7344 48.6328-77.7344Q41.0156-77.7344 34.7412-74.3164Q28.4668-70.8984 24.4385-65.1123Q20.4102-59.3262 19.5312-52.1484Q14.1113-50.3418 10.4736-45.7764Q6.83594-41.2109 6.83594-34.7656Q6.83594-29.541 9.27734-25.3662Q11.7188-21.1914 16.1621-18.7256Q20.6055-16.2598 26.6602-16.2598Z"/>
   <path class="multicolor-0:white hierarchical-0:secondary SFSymbolsPreviewFFFFFF" d="M63.8672-2.49023L54.1504-2.49023L53.8574-0.0976562L58.3984-8.78906Q58.7402-9.42383 58.5205-9.86328Q58.3008-10.3027 57.6172-10.3027L46.7285-10.3027Q45.4102-10.3027 44.9219-9.08203L39.4043 3.4668Q39.1113 4.15039 39.3799 4.56543Q39.6484 4.98047 40.3809 4.98047L48.584 4.98047L48.7793 2.19727L42.5781 17.2852Q42.1875 18.1641 42.8223 18.4082Q43.3594 18.6523 43.9941 18.0664L64.4531-0.537109Q65.1367-1.12305 64.9414-1.80664Q64.7461-2.49023 63.8672-2.49023Z"/>
  </g>
  <g id="Semibold-S" transform="matrix(1 0 0 1 1993.39 696)">
   <path class="multicolor-0:white hierarchical-1:primary SFSymbolsPreviewFFFFFF" d="M26.123-16.4062L73.8281-16.4062Q80.4199-16.4062 85.6201-19.4336Q90.8203-22.4609 93.8232-27.5879Q96.8262-32.7148 96.8262-38.9648Q96.8262-45.4102 93.7256-50.4883Q90.625-55.5664 85.2783-58.5205Q79.9316-61.4746 73.2422-61.4746Q70.9473-65.9668 67.3096-69.4336Q63.6719-72.9004 58.7891-74.8535Q53.9062-76.8066 47.9492-76.8066Q40.4297-76.8066 34.2285-73.3887Q28.0273-69.9707 24.0479-64.1846Q20.0684-58.3984 19.2871-51.2695Q13.9648-49.5605 10.4004-45.0928Q6.83594-40.625 6.83594-34.2773Q6.83594-29.2969 9.15527-25.2441Q11.4746-21.1914 15.8203-18.7988Q20.166-16.4062 26.123-16.4062Z"/>
   <path class="multicolor-0:white hierarchical-0:secondary SFSymbolsPreviewFFFFFF" d="M62.8418-2.73438L53.3691-2.73438L53.125-0.537109L57.6172-9.17969Q57.959-9.81445 57.7393-10.2539Q57.5195-10.6934 56.8848-10.6934L46.4844-10.6934Q45.166-10.6934 44.6777-9.47266L39.2578 2.7832Q38.9648 3.4668 39.2334 3.88184Q39.502 4.29688 40.2344 4.29688L48.1934 4.29688L48.4863 1.70898L42.334 16.6992Q41.9434 17.5781 42.5781 17.8223Q43.1152 18.0176 43.75 17.4316L63.4277-0.78125Q64.1113-1.36719 63.916-2.05078Q63.7207-2.73438 62.8418-2.73438Z"/>
  </g>
  <g id="Medium-S" transform="matrix(1 0 0 1 1697.17 696)">
   <path class="multicolor-0:white hierarchical-1:primary SFSymbolsPreviewFFFFFF" d="M25.6836-16.5527L73.2422-16.5527Q79.7363-16.5527 84.8389-19.5557Q89.9414-22.5586 92.8955-27.5635Q95.8496-32.5684 95.8496-38.7207Q95.8496-45.0684 92.7734-50.0244Q89.6973-54.9805 84.3994-57.8613Q79.1016-60.7422 72.4609-60.7422Q70.1172-65.332 66.4551-68.7744Q62.793-72.2168 57.9834-74.1699Q53.1738-76.123 47.4121-76.123Q39.9902-76.123 33.8623-72.7051Q27.7344-69.2871 23.7793-63.501Q19.8242-57.7148 19.0918-50.5859Q13.8672-48.9746 10.3516-44.5557Q6.83594-40.1367 6.83594-33.9355Q6.83594-29.0527 9.08203-25.1221Q11.3281-21.1914 15.5518-18.8721Q19.7754-16.5527 25.6836-16.5527Z"/>
   <path class="multicolor-0:white hierarchical-0:secondary SFSymbolsPreviewFFFFFF" d="M62.1094-2.92969L52.7832-2.92969L52.5879-0.878906L57.0312-9.52148Q57.373-10.1074 57.1533-10.5469Q56.9336-10.9863 56.2988-10.9863L46.2891-10.9863Q45.0195-10.9863 44.4824-9.81445L39.209 2.24609Q38.916 2.92969 39.1602 3.36914Q39.4043 3.80859 40.1855 3.80859L47.9004 3.80859L48.291 1.36719L42.1387 16.2598Q41.7969 17.1387 42.3828 17.3828Q42.9199 17.5781 43.5547 16.9922L62.6465-0.976562Q63.3301-1.61133 63.1348-2.27051Q62.9395-2.92969 62.1094-2.92969Z"/>
  </g>
  <g id="Regular-S" transform="matrix(1 0 0 1 1401.09 696)">
   <path class="multicolor-0:white hierarchical-1:primary SFSymbolsPreviewFFFFFF" d="M25.1465-16.748L72.4609-16.748Q78.8086-16.748 83.8135-19.6777Q88.8184-22.6074 91.6992-27.5146Q94.5801-32.4219 94.5801-38.3789Q94.5801-44.5801 91.5283-49.4141Q88.4766-54.248 83.2275-57.0312Q77.9785-59.8145 71.4355-59.8145Q69.043-64.502 65.332-67.9443Q61.6211-71.3867 56.8848-73.291Q52.1484-75.1953 46.7285-75.1953Q39.4531-75.1953 33.374-71.7773Q27.2949-68.3594 23.4131-62.5977Q19.5312-56.8359 18.8965-49.707Q13.7207-48.1934 10.2783-43.8721Q6.83594-39.5508 6.83594-33.4473Q6.83594-28.8086 8.98438-25.0244Q11.1328-21.2402 15.2344-18.9941Q19.3359-16.748 25.1465-16.748Z"/>
   <path class="multicolor-0:white hierarchical-0:secondary SFSymbolsPreviewFFFFFF" d="M61.084-3.17383L52.0508-3.17383L51.8555-1.31836L56.2988-9.91211Q56.6406-10.498 56.4209-10.9375Q56.2012-11.377 55.5664-11.377L46.0449-11.377Q44.7754-11.377 44.2383-10.2051L39.0625 1.61133Q38.7695 2.29492 39.0381 2.70996Q39.3066 3.125 40.0391 3.125L47.5098 3.125L47.998 0.878906L41.8945 15.6738Q41.5527 16.5527 42.1387 16.7969Q42.6758 16.9922 43.3105 16.4062L61.6211-1.2207Q62.3047-1.85547 62.1094-2.51465Q61.9141-3.17383 61.084-3.17383Z"/>
  </g>
  <g id="Light-S" transform="matrix(1 0 0 1 1104.74 696)">
   <path class="multicolor-0:white hierarchical-1:primary SFSymbolsPreviewFFFFFF" d="M24.5605-17.3828L72.168-17.3828Q78.3691-17.3828 83.2764-20.2393Q88.1836-23.0957 91.0156-27.8564Q93.8477-32.6172 93.8477-38.4766Q93.8477-44.4824 90.8447-49.1699Q87.8418-53.8574 82.6904-56.5674Q77.5391-59.2773 71.1426-59.2773Q68.75-64.0625 65.1123-67.5781Q61.4746-71.0938 56.7383-73.0225Q52.002-74.9512 46.4355-74.9512Q39.3066-74.9512 33.3496-71.5332Q27.3926-68.1152 23.6084-62.3535Q19.8242-56.5918 19.1895-49.4629Q13.9648-47.998 10.4004-43.7744Q6.83594-39.5508 6.83594-33.4961Q6.83594-29.0527 8.93555-25.415Q11.0352-21.7773 14.9902-19.5801Q18.9453-17.3828 24.5605-17.3828Z"/>
   <path class="multicolor-0:white hierarchical-0:secondary SFSymbolsPreviewFFFFFF" d="M58.5938-2.68555L50.1953-2.68555L50.2441-1.12305L55.0293-10.4004Q55.3711-10.9863 55.1514-11.4258Q54.9316-11.8652 54.2969-11.8652L47.0215-11.8652Q45.7031-11.8652 45.166-10.6934L39.9414 1.26953Q39.6484 1.95312 39.9414 2.36816Q40.2344 2.7832 40.9668 2.7832L47.7539 2.7832L48.2422 0.537109L42.041 15.5273Q41.6992 16.4551 42.334 16.6992Q42.9199 16.8945 43.5059 16.2598L59.2285-0.78125Q59.8145-1.46484 59.6191-2.0752Q59.4238-2.68555 58.5938-2.68555Z"/>
  </g>
  <g id="Thin-S" transform="matrix(1 0 0 1 808.522 696)">
   <path class="multicolor-0:white hierarchical-1:primary SFSymbolsPreviewFFFFFF" d="M23.7793-18.2617L71.7773-18.2617Q77.7344-18.2617 82.5195-20.9961Q87.3047-23.7305 90.0879-28.3203Q92.8711-32.9102 92.8711-38.5742Q92.8711-44.3359 89.9414-48.8525Q87.0117-53.3691 82.0068-55.9814Q77.002-58.5938 70.752-58.5938Q68.3594-63.4766 64.7949-67.0898Q61.2305-70.7031 56.543-72.6807Q51.8555-74.6582 46.0449-74.6582Q39.1113-74.6582 33.3252-71.2402Q27.5391-67.8223 23.8525-62.0361Q20.166-56.25 19.5801-49.1699Q14.2578-47.7539 10.5469-43.6768Q6.83594-39.5996 6.83594-33.5938Q6.83594-29.3945 8.83789-25.9033Q10.8398-22.4121 14.624-20.3369Q18.4082-18.2617 23.7793-18.2617Z"/>
   <path class="multicolor-0:white hierarchical-0:secondary SFSymbolsPreviewFFFFFF" d="M55.2246-2.05078L47.7051-2.05078L48.0957-0.878906L53.3691-11.0352Q53.7109-11.6211 53.4912-12.085Q53.2715-12.5488 52.6367-12.5488L48.2422-12.5488Q46.9727-12.5488 46.4355-11.3281L41.1133 0.830078Q40.7715 1.5625 41.1377 1.97754Q41.5039 2.39258 42.1875 2.39258L48.0957 2.39258L48.584 0.0488281L42.2852 15.3809Q41.8945 16.2598 42.5781 16.5039Q43.2617 16.748 43.75 16.0156L56.0547-0.244141Q56.543-0.927734 56.2988-1.48926Q56.0547-2.05078 55.2246-2.05078Z"/>
  </g>
  <g id="Ultralight-S" transform="matrix(1 0 0 1 512.055 696)">
   <path class="multicolor-0:white hierarchical-1:primary SFSymbolsPreviewFFFFFF" d="M23.3887-18.7012L71.582-18.7012Q77.4414-18.7012 82.1533-21.3867Q86.8652-24.0723 89.624-28.5645Q92.3828-33.0566 92.3828-38.623Q92.3828-44.2383 89.502-48.6816Q86.6211-53.125 81.665-55.6641Q76.709-58.2031 70.5566-58.2031Q68.1641-63.1836 64.6484-66.8213Q61.1328-70.459 56.4453-72.4854Q51.7578-74.5117 45.8496-74.5117Q39.0137-74.5117 33.3252-71.0938Q27.6367-67.6758 23.999-61.8896Q20.3613-56.1035 19.7754-49.0234Q14.4043-47.6074 10.6201-43.6035Q6.83594-39.5996 6.83594-33.6426Q6.83594-29.541 8.81348-26.1719Q10.791-22.8027 14.4775-20.752Q18.1641-18.7012 23.3887-18.7012Z"/>
   <path class="multicolor-0:white hierarchical-0:secondary SFSymbolsPreviewFFFFFF" d="M53.5645-1.70898L46.4844-1.70898L46.9727-0.732422L52.5391-11.377Q52.8809-11.9629 52.6611-12.4268Q52.4414-12.8906 51.7578-12.8906L48.9258-12.8906Q47.6074-12.8906 47.0703-11.6699L41.6992 0.634766Q41.3574 1.31836 41.748 1.7334Q42.1387 2.14844 42.8223 2.14844L48.2422 2.14844L48.7305-0.195312L42.3828 15.2832Q41.9922 16.2109 42.6758 16.4551Q43.4082 16.6504 43.8965 15.918L54.4434 0.0488281Q54.834-0.634766 54.6143-1.17188Q54.3945-1.70898 53.5645-1.70898Z"/>
  </g>
 </g>
</svg>
