<?xml version="1.0" encoding="UTF-8"?>
<!--Generator: Apple Native CoreSVG 175-->
<!DOCTYPE svg
PUBLIC "-//W3C//DTD SVG 1.1//EN"
       "http://www.w3.org/Graphics/SVG/1.1/DTD/svg11.dtd">
<svg version="1.1" xmlns="http://www.w3.org/2000/svg" xmlns:xlink="http://www.w3.org/1999/xlink" width="3300" height="2200">
 <!--glyph: "uni1001C1.medium", point size: 100.0, font version: "17.0d11e1", template writer version: "65.1"-->
 <style>.multicolor-0:white {fill:#FFFFFF;opacity:1.0}

.hierarchical-0:secondary {fill:#4D4D4D}
.hierarchical-1:primary {fill:#212121}

.SFSymbolsPreviewFFFFFF {fill:#FFFFFF;opacity:1.0}
</style>
 <g id="Notes">
  <rect height="2200" id="artboard" style="fill:white;opacity:1" width="3300" x="0" y="0"/>
  <line style="fill:none;stroke:black;opacity:1;stroke-width:0.5;" x1="263" x2="3036" y1="292" y2="292"/>
  <text style="stroke:none;fill:black;font-family:sans-serif;font-size:13;font-weight:bold;" transform="matrix(1 0 0 1 263 322)">Weight/Scale Variations</text>
  <text style="stroke:none;fill:black;font-family:sans-serif;font-size:13;text-anchor:middle;" transform="matrix(1 0 0 1 559.711 322)">Ultralight</text>
  <text style="stroke:none;fill:black;font-family:sans-serif;font-size:13;text-anchor:middle;" transform="matrix(1 0 0 1 856.422 322)">Thin</text>
  <text style="stroke:none;fill:black;font-family:sans-serif;font-size:13;text-anchor:middle;" transform="matrix(1 0 0 1 1153.13 322)">Light</text>
  <text style="stroke:none;fill:black;font-family:sans-serif;font-size:13;text-anchor:middle;" transform="matrix(1 0 0 1 1449.84 322)">Regular</text>
  <text style="stroke:none;fill:black;font-family:sans-serif;font-size:13;text-anchor:middle;" transform="matrix(1 0 0 1 1746.56 322)">Medium</text>
  <text style="stroke:none;fill:black;font-family:sans-serif;font-size:13;text-anchor:middle;" transform="matrix(1 0 0 1 2043.27 322)">Semibold</text>
  <text style="stroke:none;fill:black;font-family:sans-serif;font-size:13;text-anchor:middle;" transform="matrix(1 0 0 1 2339.98 322)">Bold</text>
  <text style="stroke:none;fill:black;font-family:sans-serif;font-size:13;text-anchor:middle;" transform="matrix(1 0 0 1 2636.69 322)">Heavy</text>
  <text style="stroke:none;fill:black;font-family:sans-serif;font-size:13;text-anchor:middle;" transform="matrix(1 0 0 1 2933.4 322)">Black</text>
  <line style="fill:none;stroke:black;opacity:1;stroke-width:0.5;" x1="263" x2="3036" y1="1903" y2="1903"/>
  <g transform="matrix(1 0 0 1 263 1933)">
   <path d="M9.24805 0.830078Q10.8691 0.830078 12.2949 0.214844Q13.7207-0.400391 14.8096-1.49414Q15.8984-2.58789 16.5186-4.01367Q17.1387-5.43945 17.1387-7.05078Q17.1387-8.66211 16.5186-10.0879Q15.8984-11.5137 14.8047-12.6074Q13.7109-13.7012 12.2852-14.3164Q10.8594-14.9316 9.23828-14.9316Q7.62695-14.9316 6.20117-14.3164Q4.77539-13.7012 3.69141-12.6074Q2.60742-11.5137 1.9873-10.0879Q1.36719-8.66211 1.36719-7.05078Q1.36719-5.43945 1.9873-4.01367Q2.60742-2.58789 3.69629-1.49414Q4.78516-0.400391 6.21094 0.214844Q7.63672 0.830078 9.24805 0.830078ZM9.24805-0.654297Q7.91992-0.654297 6.7627-1.14746Q5.60547-1.64062 4.73145-2.51953Q3.85742-3.39844 3.36426-4.56055Q2.87109-5.72266 2.87109-7.05078Q2.87109-8.37891 3.35938-9.54102Q3.84766-10.7031 4.72168-11.582Q5.5957-12.4609 6.75293-12.9541Q7.91016-13.4473 9.23828-13.4473Q10.5762-13.4473 11.7334-12.9541Q12.8906-12.4609 13.7695-11.582Q14.6484-10.7031 15.1465-9.54102Q15.6445-8.37891 15.6445-7.05078Q15.6445-5.72266 15.1514-4.56055Q14.6582-3.39844 13.7842-2.51953Q12.9102-1.64062 11.748-1.14746Q10.5859-0.654297 9.24805-0.654297ZM5.6543-7.05078Q5.6543-6.72852 5.85938-6.52832Q6.06445-6.32812 6.40625-6.32812L8.51562-6.32812L8.51562-4.20898Q8.51562-3.88672 8.71094-3.67676Q8.90625-3.4668 9.23828-3.4668Q9.56055-3.4668 9.77051-3.67676Q9.98047-3.88672 9.98047-4.20898L9.98047-6.32812L12.0898-6.32812Q12.4219-6.32812 12.627-6.52832Q12.832-6.72852 12.832-7.05078Q12.832-7.38281 12.627-7.58789Q12.4219-7.79297 12.0898-7.79297L9.98047-7.79297L9.98047-9.90234Q9.98047-10.2344 9.77051-10.4443Q9.56055-10.6543 9.23828-10.6543Q8.90625-10.6543 8.71094-10.4443Q8.51562-10.2344 8.51562-9.90234L8.51562-7.79297L6.40625-7.79297Q6.06445-7.79297 5.85938-7.58789Q5.6543-7.38281 5.6543-7.05078Z"/>
  </g>
  <g transform="matrix(1 0 0 1 281.867 1933)">
   <path d="M11.709 2.91016Q13.75 2.91016 15.5518 2.12891Q17.3535 1.34766 18.7305-0.0292969Q20.1074-1.40625 20.8887-3.20801Q21.6699-5.00977 21.6699-7.05078Q21.6699-9.0918 20.8887-10.8936Q20.1074-12.6953 18.7305-14.0723Q17.3535-15.4492 15.5469-16.2305Q13.7402-17.0117 11.6992-17.0117Q9.6582-17.0117 7.85645-16.2305Q6.05469-15.4492 4.68262-14.0723Q3.31055-12.6953 2.5293-10.8936Q1.74805-9.0918 1.74805-7.05078Q1.74805-5.00977 2.5293-3.20801Q3.31055-1.40625 4.6875-0.0292969Q6.06445 1.34766 7.86621 2.12891Q9.66797 2.91016 11.709 2.91016ZM11.709 1.25Q9.98047 1.25 8.47656 0.605469Q6.97266-0.0390625 5.83496-1.17676Q4.69727-2.31445 4.05762-3.81836Q3.41797-5.32227 3.41797-7.05078Q3.41797-8.7793 4.05762-10.2832Q4.69727-11.7871 5.83008-12.9297Q6.96289-14.0723 8.4668-14.7119Q9.9707-15.3516 11.6992-15.3516Q13.4277-15.3516 14.9316-14.7119Q16.4355-14.0723 17.5781-12.9297Q18.7207-11.7871 19.3652-10.2832Q20.0098-8.7793 20.0098-7.05078Q20.0098-5.32227 19.3701-3.81836Q18.7305-2.31445 17.5928-1.17676Q16.4551-0.0390625 14.9463 0.605469Q13.4375 1.25 11.709 1.25ZM7.17773-7.05078Q7.17773-6.69922 7.41211-6.47461Q7.64648-6.25 8.01758-6.25L10.8887-6.25L10.8887-3.36914Q10.8887-2.99805 11.1133-2.76855Q11.3379-2.53906 11.6895-2.53906Q12.0605-2.53906 12.29-2.76855Q12.5195-2.99805 12.5195-3.36914L12.5195-6.25L15.4004-6.25Q15.7715-6.25 16.001-6.47461Q16.2305-6.69922 16.2305-7.05078Q16.2305-7.42188 16.001-7.65137Q15.7715-7.88086 15.4004-7.88086L12.5195-7.88086L12.5195-10.752Q12.5195-11.1328 12.29-11.3623Q12.0605-11.5918 11.6895-11.5918Q11.3379-11.5918 11.1133-11.3574Q10.8887-11.123 10.8887-10.752L10.8887-7.88086L8.01758-7.88086Q7.63672-7.88086 7.40723-7.65137Q7.17773-7.42188 7.17773-7.05078Z"/>
  </g>
  <g transform="matrix(1 0 0 1 305.646 1933)">
   <path d="M14.9707 5.66406Q17.0605 5.66406 18.96 5.01465Q20.8594 4.36523 22.4512 3.19336Q24.043 2.02148 25.2197 0.429688Q26.3965-1.16211 27.0459-3.06641Q27.6953-4.9707 27.6953-7.05078Q27.6953-9.14062 27.0459-11.04Q26.3965-12.9395 25.2197-14.5312Q24.043-16.123 22.4512-17.2998Q20.8594-18.4766 18.9551-19.126Q17.0508-19.7754 14.9609-19.7754Q12.8711-19.7754 10.9717-19.126Q9.07227-18.4766 7.48535-17.2998Q5.89844-16.123 4.72168-14.5312Q3.54492-12.9395 2.90039-11.04Q2.25586-9.14062 2.25586-7.05078Q2.25586-4.9707 2.90527-3.06641Q3.55469-1.16211 4.72656 0.429688Q5.89844 2.02148 7.49023 3.19336Q9.08203 4.36523 10.9814 5.01465Q12.8809 5.66406 14.9707 5.66406ZM14.9707 3.84766Q13.1641 3.84766 11.5283 3.2959Q9.89258 2.74414 8.53516 1.74805Q7.17773 0.751953 6.17676-0.610352Q5.17578-1.97266 4.62891-3.6084Q4.08203-5.24414 4.08203-7.05078Q4.08203-8.86719 4.62891-10.5029Q5.17578-12.1387 6.17188-13.501Q7.16797-14.8633 8.52539-15.8594Q9.88281-16.8555 11.5186-17.4023Q13.1543-17.9492 14.9609-17.9492Q16.7773-17.9492 18.4131-17.4023Q20.0488-16.8555 21.4111-15.8594Q22.7734-14.8633 23.7695-13.501Q24.7656-12.1387 25.3174-10.5029Q25.8691-8.86719 25.8691-7.05078Q25.8789-5.24414 25.332-3.6084Q24.7852-1.97266 23.7842-0.610352Q22.7832 0.751953 21.4209 1.74805Q20.0586 2.74414 18.4229 3.2959Q16.7871 3.84766 14.9707 3.84766ZM9.19922-7.05078Q9.19922-6.66992 9.45801-6.4209Q9.7168-6.17188 10.1172-6.17188L14.0625-6.17188L14.0625-2.2168Q14.0625-1.81641 14.3115-1.55762Q14.5605-1.29883 14.9512-1.29883Q15.3516-1.29883 15.6104-1.55273Q15.8691-1.80664 15.8691-2.2168L15.8691-6.17188L19.8242-6.17188Q20.2246-6.17188 20.4785-6.4209Q20.7324-6.66992 20.7324-7.05078Q20.7324-7.46094 20.4785-7.71484Q20.2246-7.96875 19.8242-7.96875L15.8691-7.96875L15.8691-11.9141Q15.8691-12.3242 15.6104-12.583Q15.3516-12.8418 14.9512-12.8418Q14.5605-12.8418 14.3115-12.583Q14.0625-12.3242 14.0625-11.9141L14.0625-7.96875L10.1172-7.96875Q9.70703-7.96875 9.45312-7.71484Q9.19922-7.46094 9.19922-7.05078Z"/>
  </g>
  <text style="stroke:none;fill:black;font-family:sans-serif;font-size:13;font-weight:bold;" transform="matrix(1 0 0 1 263 1953)">Design Variations</text>
  <text style="stroke:none;fill:black;font-family:sans-serif;font-size:13;" transform="matrix(1 0 0 1 263 1971)">Symbols are supported in up to nine weights and three scales.</text>
  <text style="stroke:none;fill:black;font-family:sans-serif;font-size:13;" transform="matrix(1 0 0 1 263 1989)">For optimal layout with text and other symbols, vertically align</text>
  <text style="stroke:none;fill:black;font-family:sans-serif;font-size:13;" transform="matrix(1 0 0 1 263 2007)">symbols with the adjacent text.</text>
  <line style="fill:none;stroke:#00AEEF;stroke-width:0.5;opacity:1.0;" x1="776" x2="776" y1="1919" y2="1933"/>
  <g transform="matrix(1 0 0 1 776 1933)">
   <path d="M3.31055 0.15625Q3.70117 0.15625 3.91602-0.00976562Q4.13086-0.175781 4.26758-0.585938L5.52734-4.0332L11.2891-4.0332L12.5488-0.585938Q12.6855-0.175781 12.9004-0.00976562Q13.1152 0.15625 13.4961 0.15625Q13.8867 0.15625 14.1162-0.0585938Q14.3457-0.273438 14.3457-0.644531Q14.3457-0.869141 14.2383-1.17188L9.6582-13.3691Q9.48242-13.8184 9.17969-14.043Q8.87695-14.2676 8.4082-14.2676Q7.5-14.2676 7.17773-13.3789L2.59766-1.16211Q2.49023-0.859375 2.49023-0.634766Q2.49023-0.263672 2.70996-0.0537109Q2.92969 0.15625 3.31055 0.15625ZM6.00586-5.51758L8.37891-12.0898L8.42773-12.0898L10.8008-5.51758Z"/>
  </g>
  <line style="fill:none;stroke:#00AEEF;stroke-width:0.5;opacity:1.0;" x1="793.197" x2="793.197" y1="1919" y2="1933"/>
  <text style="stroke:none;fill:black;font-family:sans-serif;font-size:13;font-weight:bold;" transform="matrix(1 0 0 1 776 1953)">Margins</text>
  <text style="stroke:none;fill:black;font-family:sans-serif;font-size:13;" transform="matrix(1 0 0 1 776 1971)">Leading and trailing margins on the left and right side of each symbol</text>
  <text style="stroke:none;fill:black;font-family:sans-serif;font-size:13;" transform="matrix(1 0 0 1 776 1989)">can be adjusted by modifying the x-location of the margin guidelines.</text>
  <text style="stroke:none;fill:black;font-family:sans-serif;font-size:13;" transform="matrix(1 0 0 1 776 2007)">Modifications are automatically applied proportionally to all</text>
  <text style="stroke:none;fill:black;font-family:sans-serif;font-size:13;" transform="matrix(1 0 0 1 776 2025)">scales and weights.</text>
  <g transform="matrix(1 0 0 1 1289 1933)">
   <path d="M2.8418 1.86523L4.54102 3.57422Q5.18555 4.22852 5.90332 4.17969Q6.62109 4.13086 7.31445 3.35938L18.0078-8.42773L17.041-9.4043L6.42578 2.27539Q6.16211 2.57812 5.89355 2.61719Q5.625 2.65625 5.27344 2.30469L4.10156 1.14258Q3.75 0.791016 3.79395 0.522461Q3.83789 0.253906 4.14062-0.0195312L15.6152-10.8203L14.6387-11.7871L3.04688-0.898438Q2.30469-0.214844 2.25098 0.498047Q2.19727 1.21094 2.8418 1.86523ZM9.25781-16.3281Q8.94531-16.0254 8.90625-15.6348Q8.86719-15.2441 9.04297-14.9512Q9.21875-14.6777 9.55566-14.541Q9.89258-14.4043 10.3809-14.5215Q11.4746-14.7754 12.5977-14.7314Q13.7207-14.6875 14.7949-13.9844L14.209-12.5293Q13.9551-11.9043 14.0674-11.4404Q14.1797-10.9766 14.5801-10.5664L16.875-8.25195Q17.2363-7.88086 17.5781-7.82227Q17.9199-7.76367 18.3398-7.8418L19.4043-8.03711L20.0684-7.36328L20.0293-6.80664Q20-6.43555 20.1221-6.12305Q20.2441-5.81055 20.6055-5.44922L21.3672-4.70703Q21.7285-4.3457 22.1533-4.33105Q22.5781-4.31641 22.9297-4.66797L25.8398-7.58789Q26.1914-7.93945 26.1816-8.35449Q26.1719-8.76953 25.8105-9.13086L25.0391-9.89258Q24.6875-10.2539 24.3799-10.3857Q24.0723-10.5176 23.7109-10.4883L23.1348-10.4395L22.4902-11.0742L22.7344-12.1973Q22.832-12.6172 22.6953-12.9834Q22.5586-13.3496 22.1191-13.7891L19.9219-15.9766Q18.6719-17.2168 17.2607-17.8369Q15.8496-18.457 14.4189-18.4814Q12.9883-18.5059 11.665-17.959Q10.3418-17.4121 9.25781-16.3281ZM10.752-15.957Q11.6602-16.6211 12.7002-16.9043Q13.7402-17.1875 14.8047-17.085Q15.8691-16.9824 16.8701-16.5137Q17.8711-16.0449 18.7012-15.2051L21.1328-12.793Q21.3086-12.6172 21.3525-12.4512Q21.3965-12.2852 21.3379-12.0312L21.0156-10.5469L22.5195-9.0625L23.5059-9.12109Q23.6914-9.13086 23.7891-9.09668Q23.8867-9.0625 24.0332-8.91602L24.6094-8.33984L22.168-5.89844L21.5918-6.47461Q21.4453-6.62109 21.4062-6.71875Q21.3672-6.81641 21.377-7.01172L21.4453-7.98828L19.9512-9.47266L18.4277-9.21875Q18.1836-9.16992 18.042-9.2041Q17.9004-9.23828 17.7148-9.41406L15.7129-11.416Q15.5176-11.5918 15.4932-11.7529Q15.4688-11.9141 15.5859-12.1875L16.4648-14.2773Q15.293-15.3711 13.8281-15.791Q12.3633-16.2109 10.8398-15.7617Q10.7227-15.7324 10.6885-15.8057Q10.6543-15.8789 10.752-15.957Z"/>
  </g>
  <text style="stroke:none;fill:black;font-family:sans-serif;font-size:13;font-weight:bold;" transform="matrix(1 0 0 1 1289 1953)">Exporting</text>
  <text style="stroke:none;fill:black;font-family:sans-serif;font-size:13;" transform="matrix(1 0 0 1 1289 1971)">Symbols should be outlined when exporting to ensure the</text>
  <text style="stroke:none;fill:black;font-family:sans-serif;font-size:13;" transform="matrix(1 0 0 1 1289 1989)">design is preserved when submitting to Xcode.</text>
  <text id="template-version" style="stroke:none;fill:black;font-family:sans-serif;font-size:13;text-anchor:end;" transform="matrix(1 0 0 1 3036 1933)">Template v.3.0</text>
  <text style="stroke:none;fill:black;font-family:sans-serif;font-size:13;text-anchor:end;" transform="matrix(1 0 0 1 3036 1951)">Requires Xcode 13 or greater</text>
  <text id="descriptive-name" style="stroke:none;fill:black;font-family:sans-serif;font-size:13;text-anchor:end;" transform="matrix(1 0 0 1 3036 1969)">Generated from moon.stars.fill</text>
  <text style="stroke:none;fill:black;font-family:sans-serif;font-size:13;text-anchor:end;" transform="matrix(1 0 0 1 3036 1987)">Typeset at 100 points</text>
  <text style="stroke:none;fill:black;font-family:sans-serif;font-size:13;" transform="matrix(1 0 0 1 263 726)">Small</text>
  <text style="stroke:none;fill:black;font-family:sans-serif;font-size:13;" transform="matrix(1 0 0 1 263 1156)">Medium</text>
  <text style="stroke:none;fill:black;font-family:sans-serif;font-size:13;" transform="matrix(1 0 0 1 263 1586)">Large</text>
 </g>
 <g id="Guides">
  <g id="H-reference" style="fill:#27AAE1;stroke:none;" transform="matrix(1 0 0 1 339 696)">
   <path d="M0.976562 0L3.66211 0L29.3457-67.1387L30.0293-67.1387L30.0293-70.459L28.125-70.459ZM11.6699-24.4629L46.9727-24.4629L46.2402-26.709L12.4512-26.709ZM55.127 0L57.7637 0L30.6152-70.459L29.4434-70.459L29.4434-67.1387Z"/>
  </g>
  <line id="Baseline-S" style="fill:none;stroke:#27AAE1;opacity:1;stroke-width:0.5;" x1="263" x2="3036" y1="696" y2="696"/>
  <line id="Capline-S" style="fill:none;stroke:#27AAE1;opacity:1;stroke-width:0.5;" x1="263" x2="3036" y1="625.541" y2="625.541"/>
  <g id="H-reference" style="fill:#27AAE1;stroke:none;" transform="matrix(1 0 0 1 339 1126)">
   <path d="M0.976562 0L3.66211 0L29.3457-67.1387L30.0293-67.1387L30.0293-70.459L28.125-70.459ZM11.6699-24.4629L46.9727-24.4629L46.2402-26.709L12.4512-26.709ZM55.127 0L57.7637 0L30.6152-70.459L29.4434-70.459L29.4434-67.1387Z"/>
  </g>
  <line id="Baseline-M" style="fill:none;stroke:#27AAE1;opacity:1;stroke-width:0.5;" x1="263" x2="3036" y1="1126" y2="1126"/>
  <line id="Capline-M" style="fill:none;stroke:#27AAE1;opacity:1;stroke-width:0.5;" x1="263" x2="3036" y1="1055.54" y2="1055.54"/>
  <g id="H-reference" style="fill:#27AAE1;stroke:none;" transform="matrix(1 0 0 1 339 1556)">
   <path d="M0.976562 0L3.66211 0L29.3457-67.1387L30.0293-67.1387L30.0293-70.459L28.125-70.459ZM11.6699-24.4629L46.9727-24.4629L46.2402-26.709L12.4512-26.709ZM55.127 0L57.7637 0L30.6152-70.459L29.4434-70.459L29.4434-67.1387Z"/>
  </g>
  <line id="Baseline-L" style="fill:none;stroke:#27AAE1;opacity:1;stroke-width:0.5;" x1="263" x2="3036" y1="1556" y2="1556"/>
  <line id="Capline-L" style="fill:none;stroke:#27AAE1;opacity:1;stroke-width:0.5;" x1="263" x2="3036" y1="1485.54" y2="1485.54"/>
  <line id="left-margin-Ultralight-S" style="fill:none;stroke:#00AEEF;stroke-width:0.5;opacity:1.0;" x1="518.403" x2="518.403" y1="600.785" y2="720.121"/>
  <line id="right-margin-Ultralight-S" style="fill:none;stroke:#00AEEF;stroke-width:0.5;opacity:1.0;" x1="601.02" x2="601.02" y1="600.785" y2="720.121"/>
  <line id="left-margin-Thin-S" style="fill:none;stroke:#00AEEF;stroke-width:0.5;opacity:1.0;" x1="814.454" x2="814.454" y1="600.785" y2="720.121"/>
  <line id="right-margin-Thin-S" style="fill:none;stroke:#00AEEF;stroke-width:0.5;opacity:1.0;" x1="898.39" x2="898.39" y1="600.785" y2="720.121"/>
  <line id="left-margin-Light-S" style="fill:none;stroke:#00AEEF;stroke-width:0.5;opacity:1.0;" x1="1109.85" x2="1109.85" y1="600.785" y2="720.121"/>
  <line id="right-margin-Light-S" style="fill:none;stroke:#00AEEF;stroke-width:0.5;opacity:1.0;" x1="1196.42" x2="1196.42" y1="600.785" y2="720.121"/>
  <line id="left-margin-Regular-S" style="fill:none;stroke:#00AEEF;stroke-width:0.5;opacity:1.0;" x1="1405.58" x2="1405.58" y1="600.785" y2="720.121"/>
  <line id="right-margin-Regular-S" style="fill:none;stroke:#00AEEF;stroke-width:0.5;opacity:1.0;" x1="1494.11" x2="1494.11" y1="600.785" y2="720.121"/>
  <line id="left-margin-Medium-S" style="fill:none;stroke:#00AEEF;stroke-width:0.5;opacity:1.0;" x1="1701.22" x2="1701.22" y1="600.785" y2="720.121"/>
  <line id="right-margin-Medium-S" style="fill:none;stroke:#00AEEF;stroke-width:0.5;opacity:1.0;" x1="1791.89" x2="1791.89" y1="600.785" y2="720.121"/>
  <line id="left-margin-Semibold-S" style="fill:none;stroke:#00AEEF;stroke-width:0.5;opacity:1.0;" x1="1997.1" x2="1997.1" y1="600.785" y2="720.121"/>
  <line id="right-margin-Semibold-S" style="fill:none;stroke:#00AEEF;stroke-width:0.5;opacity:1.0;" x1="2089.43" x2="2089.43" y1="600.785" y2="720.121"/>
  <line id="left-margin-Bold-S" style="fill:none;stroke:#00AEEF;stroke-width:0.5;opacity:1.0;" x1="2292.71" x2="2292.71" y1="600.785" y2="720.121"/>
  <line id="right-margin-Bold-S" style="fill:none;stroke:#00AEEF;stroke-width:0.5;opacity:1.0;" x1="2387.24" x2="2387.24" y1="600.785" y2="720.121"/>
  <line id="left-margin-Heavy-S" style="fill:none;stroke:#00AEEF;stroke-width:0.5;opacity:1.0;" x1="2587.86" x2="2587.86" y1="600.785" y2="720.121"/>
  <line id="right-margin-Heavy-S" style="fill:none;stroke:#00AEEF;stroke-width:0.5;opacity:1.0;" x1="2685.52" x2="2685.52" y1="600.785" y2="720.121"/>
  <line id="left-margin-Black-S" style="fill:none;stroke:#00AEEF;stroke-width:0.5;opacity:1.0;" x1="2883.16" x2="2883.16" y1="600.785" y2="720.121"/>
  <line id="right-margin-Black-S" style="fill:none;stroke:#00AEEF;stroke-width:0.5;opacity:1.0;" x1="2983.64" x2="2983.64" y1="600.785" y2="720.121"/>
  <line id="left-margin-Ultralight-M" style="fill:none;stroke:#00AEEF;stroke-width:0.5;opacity:1.0;" x1="507.245" x2="507.245" y1="1030.79" y2="1150.12"/>
  <line id="right-margin-Ultralight-M" style="fill:none;stroke:#00AEEF;stroke-width:0.5;opacity:1.0;" x1="612.177" x2="612.177" y1="1030.79" y2="1150.12"/>
  <line id="left-margin-Thin-M" style="fill:none;stroke:#00AEEF;stroke-width:0.5;opacity:1.0;" x1="803.2" x2="803.2" y1="1030.79" y2="1150.12"/>
  <line id="right-margin-Thin-M" style="fill:none;stroke:#00AEEF;stroke-width:0.5;opacity:1.0;" x1="909.645" x2="909.645" y1="1030.79" y2="1150.12"/>
  <line id="left-margin-Light-M" style="fill:none;stroke:#00AEEF;stroke-width:0.5;opacity:1.0;" x1="1098.45" x2="1098.45" y1="1030.79" y2="1150.12"/>
  <line id="right-margin-Light-M" style="fill:none;stroke:#00AEEF;stroke-width:0.5;opacity:1.0;" x1="1207.82" x2="1207.82" y1="1030.79" y2="1150.12"/>
  <line id="left-margin-Regular-M" style="fill:none;stroke:#00AEEF;stroke-width:0.5;opacity:1.0;" x1="1394.03" x2="1394.03" y1="1030.79" y2="1150.12"/>
  <line id="right-margin-Regular-M" style="fill:none;stroke:#00AEEF;stroke-width:0.5;opacity:1.0;" x1="1505.65" x2="1505.65" y1="1030.79" y2="1150.12"/>
  <line id="left-margin-Medium-M" style="fill:none;stroke:#00AEEF;stroke-width:0.5;opacity:1.0;" x1="1689.35" x2="1689.35" y1="1030.79" y2="1150.12"/>
  <line id="right-margin-Medium-M" style="fill:none;stroke:#00AEEF;stroke-width:0.5;opacity:1.0;" x1="1803.76" x2="1803.76" y1="1030.79" y2="1150.12"/>
  <line id="left-margin-Semibold-M" style="fill:none;stroke:#00AEEF;stroke-width:0.5;opacity:1.0;" x1="1985.01" x2="1985.01" y1="1030.79" y2="1150.12"/>
  <line id="right-margin-Semibold-M" style="fill:none;stroke:#00AEEF;stroke-width:0.5;opacity:1.0;" x1="2101.52" x2="2101.52" y1="1030.79" y2="1150.12"/>
  <line id="left-margin-Bold-M" style="fill:none;stroke:#00AEEF;stroke-width:0.5;opacity:1.0;" x1="2280.31" x2="2280.31" y1="1030.79" y2="1150.12"/>
  <line id="right-margin-Bold-M" style="fill:none;stroke:#00AEEF;stroke-width:0.5;opacity:1.0;" x1="2399.65" x2="2399.65" y1="1030.79" y2="1150.12"/>
  <line id="left-margin-Heavy-M" style="fill:none;stroke:#00AEEF;stroke-width:0.5;opacity:1.0;" x1="2574.99" x2="2574.99" y1="1030.79" y2="1150.12"/>
  <line id="right-margin-Heavy-M" style="fill:none;stroke:#00AEEF;stroke-width:0.5;opacity:1.0;" x1="2698.38" x2="2698.38" y1="1030.79" y2="1150.12"/>
  <line id="left-margin-Black-M" style="fill:none;stroke:#00AEEF;stroke-width:0.5;opacity:1.0;" x1="2869.9" x2="2869.9" y1="1030.79" y2="1150.12"/>
  <line id="right-margin-Black-M" style="fill:none;stroke:#00AEEF;stroke-width:0.5;opacity:1.0;" x1="2996.9" x2="2996.9" y1="1030.79" y2="1150.12"/>
  <line id="left-margin-Ultralight-L" style="fill:none;stroke:#00AEEF;stroke-width:0.5;opacity:1.0;" x1="492.328" x2="492.328" y1="1460.79" y2="1580.12"/>
  <line id="right-margin-Ultralight-L" style="fill:none;stroke:#00AEEF;stroke-width:0.5;opacity:1.0;" x1="627.094" x2="627.094" y1="1460.79" y2="1580.12"/>
  <line id="left-margin-Thin-L" style="fill:none;stroke:#00AEEF;stroke-width:0.5;opacity:1.0;" x1="788.185" x2="788.185" y1="1460.79" y2="1580.12"/>
  <line id="right-margin-Thin-L" style="fill:none;stroke:#00AEEF;stroke-width:0.5;opacity:1.0;" x1="924.66" x2="924.66" y1="1460.79" y2="1580.12"/>
  <line id="left-margin-Light-L" style="fill:none;stroke:#00AEEF;stroke-width:0.5;opacity:1.0;" x1="1083.28" x2="1083.28" y1="1460.79" y2="1580.12"/>
  <line id="right-margin-Light-L" style="fill:none;stroke:#00AEEF;stroke-width:0.5;opacity:1.0;" x1="1222.98" x2="1222.98" y1="1460.79" y2="1580.12"/>
  <line id="left-margin-Regular-L" style="fill:none;stroke:#00AEEF;stroke-width:0.5;opacity:1.0;" x1="1378.75" x2="1378.75" y1="1460.79" y2="1580.12"/>
  <line id="right-margin-Regular-L" style="fill:none;stroke:#00AEEF;stroke-width:0.5;opacity:1.0;" x1="1520.94" x2="1520.94" y1="1460.79" y2="1580.12"/>
  <line id="left-margin-Medium-L" style="fill:none;stroke:#00AEEF;stroke-width:0.5;opacity:1.0;" x1="1673.83" x2="1673.83" y1="1460.79" y2="1580.12"/>
  <line id="right-margin-Medium-L" style="fill:none;stroke:#00AEEF;stroke-width:0.5;opacity:1.0;" x1="1819.29" x2="1819.29" y1="1460.79" y2="1580.12"/>
  <line id="left-margin-Semibold-L" style="fill:none;stroke:#00AEEF;stroke-width:0.5;opacity:1.0;" x1="1969.29" x2="1969.29" y1="1460.79" y2="1580.12"/>
  <line id="right-margin-Semibold-L" style="fill:none;stroke:#00AEEF;stroke-width:0.5;opacity:1.0;" x1="2117.24" x2="2117.24" y1="1460.79" y2="1580.12"/>
  <line id="left-margin-Bold-L" style="fill:none;stroke:#00AEEF;stroke-width:0.5;opacity:1.0;" x1="2264.37" x2="2264.37" y1="1460.79" y2="1580.12"/>
  <line id="right-margin-Bold-L" style="fill:none;stroke:#00AEEF;stroke-width:0.5;opacity:1.0;" x1="2415.59" x2="2415.59" y1="1460.79" y2="1580.12"/>
  <line id="left-margin-Heavy-L" style="fill:none;stroke:#00AEEF;stroke-width:0.5;opacity:1.0;" x1="2558.69" x2="2558.69" y1="1460.79" y2="1580.12"/>
  <line id="right-margin-Heavy-L" style="fill:none;stroke:#00AEEF;stroke-width:0.5;opacity:1.0;" x1="2714.69" x2="2714.69" y1="1460.79" y2="1580.12"/>
  <line id="left-margin-Black-L" style="fill:none;stroke:#00AEEF;stroke-width:0.5;opacity:1.0;" x1="2853.27" x2="2853.27" y1="1460.79" y2="1580.12"/>
  <line id="right-margin-Black-L" style="fill:none;stroke:#00AEEF;stroke-width:0.5;opacity:1.0;" x1="3013.53" x2="3013.53" y1="1460.79" y2="1580.12"/>
 </g>
 <g id="Symbols">
  <g id="Black-L" transform="matrix(1 0 0 1 2853.27 1556)">
   <path class="multicolor-0:white hierarchical-1:primary SFSymbolsPreviewFFFFFF" d="M79.0039 36.6699Q91.748 36.6699 103.003 31.9336Q114.258 27.1973 122.827 18.7012Q131.396 10.2051 136.084-1.12305Q138.818-7.8125 135.596-10.7422Q134.131-12.0605 131.836-12.207Q129.541-12.3535 127.051-11.1816Q123.047-9.375 117.773-8.17871Q112.5-6.98242 106.982-6.98242Q96.7285-6.98242 88.2812-10.2051Q79.834-13.4277 73.7305-19.3115Q67.627-25.1953 64.2822-33.3496Q60.9375-41.5039 60.9375-51.3184Q60.9375-57.1777 62.2559-63.2812Q63.5742-69.3848 65.625-73.877Q68.3105-79.6875 65.5273-82.8613Q62.7441-86.1328 56.1035-83.4961Q47.3633-80.0781 40.1367-74.2188Q32.9102-68.3594 27.6611-60.6689Q22.4121-52.9785 19.5312-44.0186Q16.6504-35.0586 16.6504-25.3906Q16.6504-11.9629 21.2891-0.634766Q25.9277 10.6934 34.3262 19.0674Q42.7246 27.4414 54.126 32.0557Q65.5273 36.6699 79.0039 36.6699Z"/>
   <path class="multicolor-0:white hierarchical-0:secondary SFSymbolsPreviewFFFFFF" d="M131.494-35.3027Q132.812-35.3027 133.716-36.1572Q134.619-37.0117 134.814-38.4277Q135.352-43.3105 135.938-46.4844Q136.523-49.6582 137.598-51.5869Q138.672-53.5156 140.601-54.6143Q142.529-55.7129 145.801-56.3965Q149.072-57.0801 154.15-57.8125Q157.422-58.3008 157.422-61.1328Q157.422-62.4023 156.592-63.2812Q155.762-64.1602 154.492-64.4531Q149.365-65.5273 146.021-66.3086Q142.676-67.0898 140.674-68.1641Q138.672-69.2383 137.598-71.0449Q136.523-72.8516 135.938-75.9277Q135.352-79.0039 134.814-83.8379Q134.619-85.2539 133.716-86.1084Q132.812-86.9629 131.494-86.9629Q130.176-86.9629 129.272-86.1084Q128.369-85.2539 128.174-83.9355Q127.539-78.9062 126.953-75.6592Q126.367-72.4121 125.293-70.459Q124.219-68.5059 122.241-67.4316Q120.264-66.3574 116.968-65.7471Q113.672-65.1367 108.545-64.4531Q107.275-64.2578 106.421-63.3301Q105.566-62.4023 105.566-61.1328Q105.566-59.8633 106.396-58.9844Q107.227-58.1055 108.496-57.8125Q113.672-56.7383 116.992-55.9326Q120.312-55.127 122.29-54.0527Q124.268-52.9785 125.317-51.1475Q126.367-49.3164 126.953-46.2158Q127.539-43.1152 128.174-38.2812Q128.369-37.0117 129.297-36.1572Q130.225-35.3027 131.494-35.3027ZM100.83-81.6895Q102.588-81.6895 102.881-83.5938Q103.467-87.4023 103.979-89.5264Q104.492-91.6504 105.542-92.7246Q106.592-93.7988 108.789-94.3848Q110.986-94.9707 114.893-95.6543Q116.895-96.0449 116.895-97.7539Q116.895-99.4141 115.088-99.8047Q111.035-100.586 108.789-101.221Q106.543-101.855 105.469-102.905Q104.395-103.955 103.906-106.03Q103.418-108.105 102.881-111.816Q102.588-113.77 100.83-113.77Q99.0234-113.77 98.7793-111.865Q98.1445-108.008 97.6562-105.835Q97.168-103.662 96.0938-102.563Q95.0195-101.465 92.7979-100.928Q90.5762-100.391 86.5723-99.8047Q84.7168-99.5117 84.7168-97.7539Q84.7168-96.0449 86.5234-95.6543Q90.5762-94.873 92.7734-94.2383Q94.9707-93.6035 96.0449-92.5293Q97.1191-91.4551 97.6318-89.3555Q98.1445-87.2559 98.7793-83.4961Q99.0234-81.6895 100.83-81.6895Z"/>
  </g>
  <g id="Heavy-L" transform="matrix(1 0 0 1 2558.69 1556)">
   <path class="multicolor-0:white hierarchical-1:primary SFSymbolsPreviewFFFFFF" d="M76.8066 34.2285Q89.209 34.2285 100.073 29.7607Q110.938 25.293 119.214 17.2119Q127.49 9.13086 132.08-1.80664Q134.473-7.66602 131.641-10.3027Q130.371-11.4746 128.345-11.5967Q126.318-11.7188 124.072-10.7422Q120.117-8.98438 115.039-7.88574Q109.961-6.78711 104.492-6.78711Q94.0918-6.78711 85.5957-10.0098Q77.0996-13.2324 70.9717-19.165Q64.8438-25.0977 61.499-33.3496Q58.1543-41.6016 58.1543-51.6113Q58.1543-57.3242 59.375-63.2324Q60.5957-69.1406 62.5977-73.4375Q64.9902-78.6133 62.5-81.4453Q60.0098-84.375 54.1016-82.0312Q45.752-78.7109 38.8672-73.0469Q31.9824-67.3828 26.9775-59.9365Q21.9727-52.4902 19.2383-43.7988Q16.5039-35.1074 16.5039-25.7324Q16.5039-12.793 20.9717-1.85547Q25.4395 9.08203 33.5449 17.1875Q41.6504 25.293 52.6611 29.7607Q63.6719 34.2285 76.8066 34.2285Z"/>
   <path class="multicolor-0:white hierarchical-0:secondary SFSymbolsPreviewFFFFFF" d="M128.027-34.2285Q129.199-34.2285 130.005-34.9854Q130.811-35.7422 131.006-37.0117Q131.543-41.9434 132.153-45.1416Q132.764-48.3398 133.838-50.2686Q134.912-52.1973 136.865-53.2959Q138.818-54.3945 142.09-55.0781Q145.361-55.7617 150.439-56.543Q153.418-56.9824 153.418-59.5215Q153.418-60.6934 152.661-61.4746Q151.904-62.2559 150.781-62.5Q145.654-63.5254 142.31-64.3066Q138.965-65.0879 136.963-66.1621Q134.961-67.2363 133.862-69.0674Q132.764-70.8984 132.153-74.0234Q131.543-77.1484 131.006-82.0312Q130.811-83.3008 130.005-84.0576Q129.199-84.8145 128.027-84.8145Q126.855-84.8145 126.05-84.0576Q125.244-83.3008 125.049-82.0801Q124.414-77.0508 123.804-73.8037Q123.193-70.5566 122.119-68.6035Q121.045-66.6504 119.067-65.5518Q117.09-64.4531 113.77-63.8184Q110.449-63.1836 105.273-62.5Q104.15-62.3047 103.394-61.499Q102.637-60.6934 102.637-59.5215Q102.637-58.3496 103.394-57.5684Q104.15-56.7871 105.273-56.543Q110.449-55.5176 113.77-54.7119Q117.09-53.9062 119.092-52.8076Q121.094-51.709 122.144-49.8779Q123.193-48.0469 123.804-44.9219Q124.414-41.7969 125.049-36.8652Q125.244-35.7422 126.05-34.9854Q126.855-34.2285 128.027-34.2285ZM97.4609-79.4922Q99.0234-79.4922 99.3164-81.2012Q99.9512-85.0586 100.464-87.207Q100.977-89.3555 102.051-90.4541Q103.125-91.5527 105.347-92.1631Q107.568-92.7734 111.572-93.5059Q113.33-93.8477 113.33-95.3613Q113.33-96.875 111.719-97.2168Q107.617-97.998 105.371-98.6572Q103.125-99.3164 102.051-100.391Q100.977-101.465 100.439-103.589Q99.9023-105.713 99.3164-109.473Q99.0234-111.182 97.4609-111.182Q95.8984-111.182 95.6543-109.473Q94.9707-105.615 94.458-103.418Q93.9453-101.221 92.8467-100.098Q91.748-98.9746 89.5264-98.4131Q87.3047-97.8516 83.252-97.2168Q81.5918-96.9238 81.5918-95.3613Q81.5918-93.8477 83.2031-93.5059Q87.3047-92.6758 89.5264-92.041Q91.748-91.4062 92.8467-90.3076Q93.9453-89.209 94.4824-87.085Q95.0195-84.9609 95.6543-81.1523Q95.8984-79.4922 97.4609-79.4922Z"/>
  </g>
  <g id="Bold-L" transform="matrix(1 0 0 1 2264.37 1556)">
   <path class="multicolor-0:white hierarchical-1:primary SFSymbolsPreviewFFFFFF" d="M74.3652 31.4941Q86.377 31.4941 96.8262 27.3438Q107.275 23.1934 115.21 15.5762Q123.145 7.95898 127.588-2.53906Q129.639-7.51953 127.197-9.81445Q126.172-10.791 124.438-10.9375Q122.705-11.084 120.801-10.2051Q116.846-8.54492 111.963-7.56836Q107.08-6.5918 101.709-6.5918Q91.1621-6.5918 82.5928-9.79004Q74.0234-12.9883 67.8711-18.9697Q61.7188-24.9512 58.3984-33.3252Q55.0781-41.6992 55.0781-51.9531Q55.0781-57.4707 56.2012-63.1836Q57.3242-68.8965 59.1797-72.9004Q61.3281-77.3926 59.1309-79.8828Q56.9336-82.4707 51.8555-80.3711Q43.9453-77.1973 37.4512-71.7529Q30.957-66.3086 26.2451-59.1553Q21.5332-52.002 18.9453-43.6035Q16.3574-35.2051 16.3574-26.123Q16.3574-13.7207 20.6299-3.22266Q24.9023 7.27539 32.666 15.0635Q40.4297 22.8516 51.0498 27.1729Q61.6699 31.4941 74.3652 31.4941Z"/>
   <path class="multicolor-0:white hierarchical-0:secondary SFSymbolsPreviewFFFFFF" d="M124.121-33.0078Q125.195-33.0078 125.879-33.6914Q126.562-34.375 126.709-35.4492Q127.344-40.4297 127.954-43.6523Q128.564-46.875 129.639-48.8037Q130.713-50.7324 132.69-51.8311Q134.668-52.9297 137.964-53.6377Q141.26-54.3457 146.338-55.127Q148.926-55.5176 148.926-57.7148Q148.926-58.7402 148.267-59.4238Q147.607-60.1074 146.631-60.3027Q141.504-61.3281 138.159-62.1094Q134.814-62.8906 132.788-63.9648Q130.762-65.0391 129.663-66.8945Q128.564-68.75 127.954-71.8994Q127.344-75.0488 126.709-79.9805Q126.562-81.1035 125.879-81.7627Q125.195-82.4219 124.121-82.4219Q123.096-82.4219 122.412-81.7627Q121.729-81.1035 121.582-80.0781Q120.898-75 120.288-71.7285Q119.678-68.457 118.579-66.5039Q117.48-64.5508 115.503-63.4521Q113.525-62.3535 110.205-61.6943Q106.885-61.0352 101.66-60.3027Q100.684-60.1562 100.024-59.4482Q99.3652-58.7402 99.3652-57.7148Q99.3652-56.6895 100.024-56.0303Q100.684-55.3711 101.66-55.127Q106.885-54.1016 110.205-53.3203Q113.525-52.5391 115.527-51.4404Q117.529-50.3418 118.604-48.4619Q119.678-46.582 120.288-43.4326Q120.898-40.2832 121.582-35.3516Q121.729-34.3262 122.437-33.667Q123.145-33.0078 124.121-33.0078ZM93.75-77.0996Q95.0684-77.0996 95.3125-78.5645Q95.9961-82.4219 96.5332-84.6191Q97.0703-86.8164 98.1689-87.9639Q99.2676-89.1113 101.538-89.7217Q103.809-90.332 107.812-91.0645Q109.375-91.3574 109.375-92.7246Q109.375-93.9941 107.91-94.2871Q103.809-95.1172 101.562-95.7764Q99.3164-96.4355 98.2178-97.5586Q97.1191-98.6816 96.582-100.854Q96.0449-103.027 95.3125-106.836Q95.0684-108.301 93.75-108.301Q92.3828-108.301 92.1387-106.836Q91.4062-102.979 90.8691-100.757Q90.332-98.5352 89.2334-97.3877Q88.1348-96.2402 85.8887-95.6299Q83.6426-95.0195 79.5898-94.2871Q78.125-94.043 78.125-92.7246Q78.125-91.3574 79.541-91.0645Q83.6426-90.2832 85.9131-89.624Q88.1836-88.9648 89.2822-87.8418Q90.3809-86.7188 90.9424-84.5459Q91.5039-82.373 92.1387-78.5156Q92.3828-77.0996 93.75-77.0996Z"/>
  </g>
  <g id="Semibold-L" transform="matrix(1 0 0 1 1969.29 1556)">
   <path class="multicolor-0:white hierarchical-1:primary SFSymbolsPreviewFFFFFF" d="M72.6562 29.5898Q84.4238 29.5898 94.5801 25.6592Q104.736 21.7285 112.427 14.4287Q120.117 7.12891 124.463-3.07617Q126.318-7.37305 124.121-9.42383Q123.242-10.3516 121.729-10.4736Q120.215-10.5957 118.506-9.86328Q114.6-8.20312 109.863-7.2998Q105.127-6.39648 99.7559-6.39648Q89.1602-6.39648 80.542-9.61914Q71.9238-12.8418 65.7471-18.8477Q59.5703-24.8535 56.25-33.3008Q52.9297-41.748 52.9297-52.1484Q52.9297-57.5684 53.9795-63.1348Q55.0293-68.7012 56.8359-72.5586Q58.7402-76.5625 56.7871-78.8086Q54.834-81.1035 50.293-79.248Q42.6758-76.123 36.4502-70.8252Q30.2246-65.5273 25.708-58.5693Q21.1914-51.6113 18.7256-43.4326Q16.2598-35.2539 16.2598-26.3672Q16.2598-14.3555 20.3857-4.15039Q24.5117 6.05469 32.0557 13.623Q39.5996 21.1914 49.9268 25.3906Q60.2539 29.5898 72.6562 29.5898Z"/>
   <path class="multicolor-0:white hierarchical-0:secondary SFSymbolsPreviewFFFFFF" d="M121.436-32.1777Q122.412-32.1777 123.022-32.7881Q123.633-33.3984 123.779-34.375Q124.414-39.4043 125.024-42.627Q125.635-45.8496 126.733-47.7783Q127.832-49.707 129.81-50.8057Q131.787-51.9043 135.083-52.6123Q138.379-53.3203 143.506-54.1504Q145.801-54.4922 145.801-56.4941Q145.801-57.4219 145.215-58.0078Q144.629-58.5938 143.75-58.7891Q138.623-59.8145 135.278-60.5713Q131.934-61.3281 129.907-62.4268Q127.881-63.5254 126.782-65.3809Q125.684-67.2363 125.049-70.4102Q124.414-73.584 123.779-78.5645Q123.633-79.5898 123.022-80.1758Q122.412-80.7617 121.436-80.7617Q120.508-80.7617 119.897-80.1758Q119.287-79.5898 119.141-78.6621Q118.457-73.5352 117.822-70.2881Q117.188-67.041 116.113-65.0635Q115.039-63.0859 113.062-61.9873Q111.084-60.8887 107.739-60.2051Q104.395-59.5215 99.1699-58.7891Q98.291-58.6426 97.6807-58.0322Q97.0703-57.4219 97.0703-56.4941Q97.0703-55.5176 97.6807-54.9316Q98.291-54.3457 99.1211-54.1504Q104.395-53.125 107.715-52.3438Q111.035-51.5625 113.037-50.4639Q115.039-49.3652 116.113-47.4854Q117.188-45.6055 117.822-42.4316Q118.457-39.2578 119.141-34.2285Q119.287-33.3496 119.922-32.7637Q120.557-32.1777 121.436-32.1777ZM91.1621-75.3906Q92.334-75.3906 92.5781-76.709Q93.2617-80.6152 93.8232-82.8369Q94.3848-85.0586 95.4834-86.2061Q96.582-87.3535 98.877-87.9883Q101.172-88.623 105.225-89.4043Q106.592-89.6484 106.592-90.8691Q106.592-92.041 105.273-92.2852Q101.172-93.1152 98.9258-93.7988Q96.6797-94.4824 95.5811-95.6299Q94.4824-96.7773 93.8965-98.9502Q93.3105-101.123 92.5781-104.98Q92.334-106.299 91.1621-106.299Q89.9414-106.299 89.6973-105.029Q88.9648-101.123 88.3789-98.9014Q87.793-96.6797 86.7188-95.5078Q85.6445-94.3359 83.374-93.6768Q81.1035-93.0176 77.002-92.2852Q75.6836-92.041 75.6836-90.8691Q75.6836-89.6484 77.002-89.4043Q81.1035-88.5742 83.3984-87.915Q85.6934-87.2559 86.8164-86.1084Q87.9395-84.9609 88.501-82.7637Q89.0625-80.5664 89.6973-76.6602Q89.9414-75.3906 91.1621-75.3906Z"/>
  </g>
  <g id="Medium-L" transform="matrix(1 0 0 1 1673.83 1556)">
   <path class="multicolor-0:white hierarchical-1:primary SFSymbolsPreviewFFFFFF" d="M71.3379 28.1738Q82.959 28.1738 92.8711 24.4141Q102.783 20.6543 110.303 13.5742Q117.822 6.49414 122.119-3.4668Q123.779-7.27539 121.826-9.17969Q121.045-9.96094 119.678-10.1074Q118.311-10.2539 116.748-9.57031Q112.891-7.95898 108.252-7.12891Q103.613-6.29883 98.291-6.29883Q87.5977-6.29883 78.9551-9.49707Q70.3125-12.6953 64.1357-18.75Q57.959-24.8047 54.6143-33.3008Q51.2695-41.7969 51.2695-52.3438Q51.2695-57.666 52.2705-63.1348Q53.2715-68.6035 55.0781-72.2656Q56.8359-75.9277 55.0293-77.9785Q53.2227-80.0781 49.0723-78.3691Q41.6992-75.293 35.6934-70.1172Q29.6875-64.9414 25.3174-58.1299Q20.9473-51.3184 18.5547-43.3105Q16.1621-35.3027 16.1621-26.5625Q16.1621-14.8438 20.1904-4.88281Q24.2188 5.07812 31.5918 12.5Q38.9648 19.9219 49.0723 24.0479Q59.1797 28.1738 71.3379 28.1738Z"/>
   <path class="multicolor-0:white hierarchical-0:secondary SFSymbolsPreviewFFFFFF" d="M119.385-31.543Q120.264-31.543 120.825-32.1045Q121.387-32.666 121.533-33.5449Q122.168-38.5742 122.803-41.8213Q123.438-45.0684 124.536-46.9971Q125.635-48.9258 127.612-50.0244Q129.59-51.123 132.91-51.8311Q136.23-52.5391 141.357-53.418Q143.457-53.7598 143.457-55.5176Q143.457-56.3965 142.92-56.9336Q142.383-57.4707 141.553-57.666Q136.426-58.6426 133.081-59.3994Q129.736-60.1562 127.71-61.2549Q125.684-62.3535 124.585-64.2334Q123.486-66.1133 122.827-69.2871Q122.168-72.4609 121.533-77.4902Q121.387-78.4668 120.825-78.9795Q120.264-79.4922 119.385-79.4922Q118.555-79.4922 117.993-78.9795Q117.432-78.4668 117.334-77.5879Q116.602-72.4609 115.967-69.1895Q115.332-65.918 114.258-63.9404Q113.184-61.9629 111.206-60.8887Q109.229-59.8145 105.859-59.1064Q102.49-58.3984 97.2656-57.666Q96.4844-57.5195 95.9229-56.958Q95.3613-56.3965 95.3613-55.5176Q95.3613-54.6387 95.8984-54.1016Q96.4355-53.5645 97.2656-53.418Q102.49-52.3926 105.835-51.6113Q109.18-50.8301 111.182-49.7314Q113.184-48.6328 114.258-46.7285Q115.332-44.8242 115.967-41.6504Q116.602-38.4766 117.334-33.4473Q117.432-32.6172 117.993-32.0801Q118.555-31.543 119.385-31.543ZM89.1602-74.1211Q90.2344-74.1211 90.4785-75.293Q91.1621-79.248 91.748-81.4941Q92.334-83.7402 93.457-84.9121Q94.5801-86.084 96.875-86.7188Q99.1699-87.3535 103.271-88.1348Q104.541-88.3789 104.541-89.4531Q104.541-90.5273 103.32-90.7715Q99.1699-91.5527 96.9238-92.2607Q94.6777-92.9688 93.5791-94.1406Q92.4805-95.3125 91.8945-97.5342Q91.3086-99.7559 90.4785-103.613Q90.2344-104.736 89.1602-104.736Q88.1348-104.736 87.8906-103.613Q87.1094-99.707 86.5234-97.4854Q85.9375-95.2637 84.8389-94.0918Q83.7402-92.9199 81.4697-92.2363Q79.1992-91.5527 75.0977-90.7715Q73.877-90.5273 73.877-89.4531Q73.877-88.3789 75.0488-88.1348Q79.1992-87.3047 81.4941-86.6211Q83.7891-85.9375 84.9365-84.79Q86.084-83.6426 86.6455-81.4209Q87.207-79.1992 87.8906-75.293Q88.1348-74.1211 89.1602-74.1211Z"/>
  </g>
  <g id="Regular-L" transform="matrix(1 0 0 1 1378.75 1556)">
   <path class="multicolor-0:white hierarchical-1:primary SFSymbolsPreviewFFFFFF" d="M69.6777 26.3184Q81.0059 26.3184 90.6494 22.7539Q100.293 19.1895 107.568 12.4268Q114.844 5.66406 119.043-3.95508Q120.459-7.17773 118.799-8.83789Q118.164-9.52148 117.017-9.64355Q115.869-9.76562 114.502-9.22852Q110.645-7.66602 106.152-6.90918Q101.66-6.15234 96.3867-6.15234Q85.5957-6.15234 76.9043-9.35059Q68.2129-12.5488 62.0117-18.6279Q55.8105-24.707 52.4902-33.2764Q49.1699-41.8457 49.1699-52.5391Q49.1699-57.7637 50.0977-63.0859Q51.0254-68.4082 52.7344-71.9238Q54.2969-75.0977 52.7344-76.9043Q51.123-78.7598 47.5586-77.2461Q40.4785-74.2676 34.7168-69.2383Q28.9551-64.209 24.7803-57.5928Q20.6055-50.9766 18.335-43.1641Q16.0645-35.3516 16.0645-26.8066Q16.0645-15.4785 19.9463-5.81055Q23.8281 3.85742 30.9814 11.0596Q38.1348 18.2617 47.9492 22.29Q57.7637 26.3184 69.6777 26.3184Z"/>
   <path class="multicolor-0:white hierarchical-0:secondary SFSymbolsPreviewFFFFFF" d="M116.748-30.7129Q117.529-30.7129 118.018-31.2012Q118.506-31.6895 118.604-32.4707Q119.287-37.5488 119.922-40.7959Q120.557-44.043 121.655-45.9717Q122.754-47.9004 124.756-48.999Q126.758-50.0977 130.078-50.8301Q133.398-51.5625 138.525-52.4414Q140.381-52.7344 140.381-54.2969Q140.381-55.0781 139.917-55.542Q139.453-56.0059 138.721-56.1523Q133.594-57.1289 130.249-57.8857Q126.904-58.6426 124.878-59.7412Q122.852-60.8398 121.729-62.7441Q120.605-64.6484 119.946-67.8467Q119.287-71.0449 118.604-76.123Q118.506-76.9531 118.018-77.417Q117.529-77.8809 116.748-77.8809Q116.016-77.8809 115.527-77.417Q115.039-76.9531 114.941-76.1719Q114.209-71.0449 113.574-67.7734Q112.939-64.502 111.841-62.5244Q110.742-60.5469 108.765-59.4482Q106.787-58.3496 103.418-57.6416Q100.049-56.9336 94.7754-56.1523Q94.0918-56.0547 93.6035-55.5664Q93.1152-55.0781 93.1152-54.2969Q93.1152-53.5156 93.6035-53.0518Q94.0918-52.5879 94.7754-52.4414Q100.049-51.4648 103.394-50.6836Q106.738-49.9023 108.74-48.7793Q110.742-47.6562 111.841-45.752Q112.939-43.8477 113.574-40.6494Q114.209-37.4512 114.941-32.373Q115.039-31.6406 115.527-31.1768Q116.016-30.7129 116.748-30.7129ZM86.6211-72.4609Q87.5488-72.4609 87.7441-73.4863Q88.4766-77.4414 89.0625-79.7119Q89.6484-81.9824 90.7959-83.1787Q91.9434-84.375 94.2627-85.0342Q96.582-85.6934 100.732-86.4746Q101.807-86.6699 101.807-87.6465Q101.807-88.5742 100.732-88.7695Q96.582-89.5996 94.3359-90.3076Q92.0898-91.0156 90.9668-92.2119Q89.8438-93.4082 89.2334-95.6543Q88.623-97.9004 87.7441-101.807Q87.5488-102.783 86.6211-102.783Q85.7422-102.783 85.498-101.807Q84.668-97.9004 84.0576-95.6543Q83.4473-93.4082 82.3486-92.2119Q81.25-91.0156 78.9795-90.3076Q76.709-89.5996 72.5586-88.7695Q71.4844-88.5742 71.4844-87.6465Q71.4844-86.6699 72.5586-86.4746Q76.709-85.6445 79.0283-84.9609Q81.3477-84.2773 82.4951-83.1055Q83.6426-81.9336 84.2285-79.6875Q84.8145-77.4414 85.498-73.4863Q85.7422-72.4609 86.6211-72.4609Z"/>
  </g>
  <g id="Light-L" transform="matrix(1 0 0 1 1083.28 1556)">
   <path class="multicolor-0:white hierarchical-1:primary SFSymbolsPreviewFFFFFF" d="M68.5547 25.293Q79.7852 25.293 89.3555 21.8506Q98.9258 18.4082 106.128 11.8408Q113.33 5.27344 117.529-4.05273Q118.799-6.88477 117.383-8.34961Q116.797-8.98438 115.771-9.10645Q114.746-9.22852 113.477-8.74023Q109.619-7.22656 105.151-6.4209Q100.684-5.61523 95.166-5.61523Q84.2773-5.61523 75.5127-8.83789Q66.748-12.0605 60.498-18.1885Q54.248-24.3164 50.9277-33.0566Q47.6074-41.7969 47.6074-52.7832Q47.6074-57.8125 48.5107-62.9883Q49.4141-68.1641 51.3184-72.0703Q52.6855-74.9512 51.2207-76.5625Q49.707-78.2227 46.3867-76.709Q39.6484-73.584 34.082-68.6035Q28.5156-63.623 24.4873-57.1777Q20.459-50.7324 18.2617-43.1152Q16.0645-35.498 16.0645-27.0996Q16.0645-16.0156 19.7998-6.46973Q23.5352 3.07617 30.4688 10.1807Q37.4023 17.2852 47.0459 21.2891Q56.6895 25.293 68.5547 25.293Z"/>
   <path class="multicolor-0:white hierarchical-0:secondary SFSymbolsPreviewFFFFFF" d="M115.234-30.957Q115.82-30.957 116.211-31.3477Q116.602-31.7383 116.699-32.373Q117.432-37.4512 118.066-40.6738Q118.701-43.8965 119.8-45.7764Q120.898-47.6562 122.852-48.7305Q124.805-49.8047 128.101-50.5615Q131.396-51.3184 136.572-52.2461Q137.988-52.4902 137.988-53.7109Q137.988-54.3457 137.622-54.6875Q137.256-55.0293 136.67-55.1758Q131.543-56.1523 128.223-56.9092Q124.902-57.666 122.925-58.7402Q120.947-59.8145 119.849-61.6943Q118.75-63.5742 118.091-66.7725Q117.432-69.9707 116.699-75.0488Q116.602-75.7324 116.211-76.0986Q115.82-76.4648 115.234-76.4648Q114.648-76.4648 114.258-76.0986Q113.867-75.7324 113.77-75.0977Q113.037-70.0195 112.378-66.7725Q111.719-63.5254 110.645-61.5967Q109.57-59.668 107.642-58.5938Q105.713-57.5195 102.368-56.7871Q99.0234-56.0547 93.75-55.1758Q93.2129-55.0781 92.8223-54.7119Q92.4316-54.3457 92.4316-53.7109Q92.4316-53.0762 92.8223-52.71Q93.2129-52.3438 93.75-52.2461Q99.0234-51.2695 102.344-50.4883Q105.664-49.707 107.617-48.6084Q109.57-47.5098 110.645-45.6299Q111.719-43.75 112.378-40.5518Q113.037-37.3535 113.77-32.2754Q113.867-31.6895 114.258-31.3232Q114.648-30.957 115.234-30.957ZM85.1074-71.5332Q85.8398-71.5332 85.9863-72.3145Q86.6699-76.3672 87.2559-78.6865Q87.8418-81.0059 89.0137-82.2266Q90.1855-83.4473 92.5781-84.1309Q94.9707-84.8145 99.1699-85.5469Q100.049-85.6934 100.049-86.4746Q100.049-87.2559 99.1699-87.4023Q94.9707-88.2324 92.7002-88.9893Q90.4297-89.7461 89.3066-90.9668Q88.1836-92.1875 87.5488-94.458Q86.9141-96.7285 85.9863-100.635Q85.8398-101.416 85.1074-101.416Q84.4238-101.416 84.2285-100.635Q83.3496-96.7285 82.7148-94.458Q82.0801-92.1875 80.9814-90.9668Q79.8828-89.7461 77.5879-88.9893Q75.293-88.2324 71.0938-87.4023Q70.2148-87.2559 70.2148-86.4746Q70.2148-85.6934 71.0938-85.5469Q75.293-84.7168 77.6855-84.0088Q80.0781-83.3008 81.25-82.1045Q82.4219-80.9082 83.0078-78.6377Q83.5938-76.3672 84.2285-72.3145Q84.4238-71.5332 85.1074-71.5332Z"/>
  </g>
  <g id="Thin-L" transform="matrix(1 0 0 1 788.185 1556)">
   <path class="multicolor-0:white hierarchical-1:primary SFSymbolsPreviewFFFFFF" d="M67.0898 23.9746Q78.1738 23.9746 87.6221 20.6543Q97.0703 17.334 104.224 11.0596Q111.377 4.78516 115.527-4.15039Q116.65-6.49414 115.479-7.66602Q114.99-8.25195 114.111-8.39844Q113.232-8.54492 112.061-8.10547Q108.203-6.64062 103.76-5.76172Q99.3164-4.88281 93.5547-4.88281Q82.5195-4.88281 73.6328-8.12988Q64.7461-11.377 58.4961-17.6025Q52.2461-23.8281 48.9258-32.7637Q45.6055-41.6992 45.6055-53.125Q45.6055-57.8125 46.46-62.8174Q47.3145-67.8223 49.4141-72.2656Q50.5371-74.707 49.1699-76.0742Q47.8027-77.5391 44.873-75.9766Q38.5254-72.7051 33.252-67.7979Q27.9785-62.8906 24.1455-56.6406Q20.3125-50.3906 18.1885-43.042Q16.0645-35.6934 16.0645-27.4414Q16.0645-16.6504 19.6045-7.32422Q23.1445 2.00195 29.7852 9.0332Q36.4258 16.0645 45.8496 20.0195Q55.2734 23.9746 67.0898 23.9746Z"/>
   <path class="multicolor-0:white hierarchical-0:secondary SFSymbolsPreviewFFFFFF" d="M113.184-31.2988Q113.574-31.2988 113.818-31.5186Q114.062-31.7383 114.16-32.1777Q114.941-37.2559 115.625-40.4541Q116.309-43.6523 117.358-45.5078Q118.408-47.3633 120.337-48.4131Q122.266-49.4629 125.537-50.2197Q128.809-50.9766 133.936-52.002Q134.814-52.1484 134.814-52.9297Q134.814-53.3691 134.57-53.5889Q134.326-53.8086 133.984-53.8574Q128.857-54.9316 125.586-55.6641Q122.314-56.3965 120.386-57.4463Q118.457-58.4961 117.383-60.3516Q116.309-62.207 115.625-65.3809Q114.941-68.5547 114.16-73.6816Q114.062-74.1211 113.818-74.3408Q113.574-74.5605 113.184-74.5605Q112.842-74.5605 112.598-74.3408Q112.354-74.1211 112.256-73.6816Q111.426-68.6035 110.767-65.4053Q110.107-62.207 109.082-60.3516Q108.057-58.4961 106.152-57.4463Q104.248-56.3965 100.977-55.6396Q97.7051-54.8828 92.4316-53.8574Q92.0898-53.8086 91.8213-53.5889Q91.5527-53.3691 91.5527-52.9297Q91.5527-52.4902 91.8213-52.2705Q92.0898-52.0508 92.4316-52.002Q97.7051-50.9766 100.977-50.2197Q104.248-49.4629 106.152-48.3887Q108.057-47.3145 109.082-45.459Q110.107-43.6035 110.767-40.4297Q111.426-37.2559 112.256-32.1777Q112.354-31.7383 112.598-31.5186Q112.842-31.2988 113.184-31.2988ZM83.1055-70.3125Q83.5938-70.3125 83.6426-70.8008Q84.2773-74.9023 84.8633-77.2705Q85.4492-79.6387 86.6699-80.9326Q87.8906-82.2266 90.3564-82.9346Q92.8223-83.6426 97.1191-84.3262Q97.7539-84.4727 97.7539-84.9609Q97.7539-85.498 97.1191-85.5957Q92.8223-86.4746 90.5273-87.2559Q88.2324-88.0371 87.1094-89.3066Q85.9863-90.5762 85.3271-92.8955Q84.668-95.2148 83.6426-99.1211Q83.5938-99.6094 83.1055-99.6094Q82.666-99.6094 82.5684-99.1211Q81.5918-95.2148 80.957-92.8955Q80.3223-90.5762 79.2236-89.3066Q78.125-88.0371 75.8057-87.2559Q73.4863-86.4746 69.0918-85.5957Q68.5059-85.498 68.5059-84.9609Q68.5059-84.4727 69.0918-84.3262Q73.4863-83.4473 75.9521-82.7393Q78.418-82.0312 79.6143-80.7861Q80.8105-79.541 81.3721-77.2217Q81.9336-74.9023 82.5684-70.8008Q82.666-70.3125 83.1055-70.3125Z"/>
  </g>
  <g id="Ultralight-L" transform="matrix(1 0 0 1 492.328 1556)">
   <path class="multicolor-0:white hierarchical-1:primary SFSymbolsPreviewFFFFFF" d="M66.3086 23.291Q77.3926 23.291 86.7676 20.0439Q96.1426 16.7969 103.247 10.6689Q110.352 4.54102 114.502-4.19922Q115.527-6.25 114.551-7.32422Q114.062-7.91016 113.257-8.03223Q112.451-8.1543 111.377-7.76367Q107.52-6.34766 103.101-5.44434Q98.6816-4.54102 92.7246-4.54102Q81.5918-4.54102 72.6807-7.78809Q63.7695-11.0352 57.4707-17.3096Q51.1719-23.584 47.8516-32.6172Q44.5312-41.6504 44.5312-53.2715Q44.5312-57.8613 45.3613-62.7686Q46.1914-67.6758 48.4375-72.3633Q49.4141-74.6094 48.1445-75.8789Q46.8262-77.1484 44.0918-75.6348Q37.9395-72.2168 32.8125-67.3584Q27.6855-62.5 23.9502-56.3721Q20.2148-50.2441 18.1396-43.0176Q16.0645-35.791 16.0645-27.6367Q16.0645-17.041 19.4824-7.78809Q22.9004 1.46484 29.3945 8.42285Q35.8887 15.3809 45.2148 19.3359Q54.541 23.291 66.3086 23.291Z"/>
   <path class="multicolor-0:white hierarchical-0:secondary SFSymbolsPreviewFFFFFF" d="M112.158-31.4941Q112.402-31.4941 112.598-31.6406Q112.793-31.7871 112.842-32.1289Q113.721-37.207 114.38-40.3809Q115.039-43.5547 116.089-45.3857Q117.139-47.2168 119.043-48.2422Q120.947-49.2676 124.194-50.0244Q127.441-50.7812 132.617-51.8555Q133.203-51.9531 133.203-52.5391Q133.203-52.832 133.008-52.9785Q132.812-53.125 132.568-53.2227Q127.441-54.248 124.194-54.9805Q120.947-55.7129 119.067-56.7627Q117.188-57.8125 116.138-59.6436Q115.088-61.4746 114.404-64.6484Q113.721-67.8223 112.842-72.9492Q112.793-73.291 112.598-73.4375Q112.402-73.584 112.158-73.584Q111.914-73.584 111.719-73.4375Q111.523-73.291 111.475-72.9492Q110.645-67.9199 109.985-64.7461Q109.326-61.5723 108.301-59.7168Q107.275-57.8613 105.396-56.8359Q103.516-55.8105 100.269-55.0293Q97.0215-54.248 91.748-53.2227Q91.5039-53.125 91.3086-52.9785Q91.1133-52.832 91.1133-52.5391Q91.1133-52.1973 91.3086-52.0508Q91.5039-51.9043 91.748-51.8555Q97.0215-50.8301 100.269-50.0732Q103.516-49.3164 105.396-48.2666Q107.275-47.2168 108.301-45.3613Q109.326-43.5059 109.985-40.332Q110.645-37.1582 111.475-32.0801Q111.523-31.7871 111.719-31.6406Q111.914-31.4941 112.158-31.4941ZM82.0801-69.6777Q82.4219-69.6777 82.4707-70.0195Q83.0078-74.1699 83.5938-76.5869Q84.1797-79.0039 85.4492-80.2979Q86.7188-81.5918 89.209-82.2998Q91.6992-83.0078 96.0449-83.6914Q96.582-83.7891 96.582-84.1797Q96.582-84.5703 96.0449-84.668Q91.6992-85.5469 89.4043-86.3525Q87.1094-87.1582 85.9863-88.4766Q84.8633-89.7949 84.1797-92.0898Q83.4961-94.3848 82.4707-98.3398Q82.4219-98.6816 82.0801-98.6816Q81.7871-98.6816 81.6895-98.3398Q80.6641-94.3848 80.0293-92.0898Q79.3945-89.7949 78.2959-88.4766Q77.1973-87.1582 74.8535-86.3525Q72.5098-85.5469 68.1152-84.668Q67.627-84.5703 67.627-84.1797Q67.627-83.7891 68.1152-83.6914Q72.5098-82.8125 75.0244-82.0801Q77.5391-81.3477 78.7598-80.1025Q79.9805-78.8574 80.542-76.5137Q81.1035-74.1699 81.6895-70.0195Q81.7871-69.6777 82.0801-69.6777Z"/>
  </g>
  <g id="Black-M" transform="matrix(1 0 0 1 2869.9 1126)">
   <path class="multicolor-0:white hierarchical-1:primary SFSymbolsPreviewFFFFFF" d="M62.6953 22.2168Q72.9004 22.2168 81.9092 18.3594Q90.918 14.502 97.7783 7.6416Q104.639 0.78125 108.398-8.25195Q110.742-14.0137 108.008-16.4551Q105.176-18.9941 100.635-16.8457Q97.5098-15.3809 93.2617-14.3555Q89.0137-13.3301 84.6191-13.3301Q74.1211-13.3301 66.1133-17.6758Q58.1055-22.0215 53.5889-29.7363Q49.0723-37.4512 49.0723-47.5586Q49.0723-52.1484 50.1709-56.9824Q51.2695-61.8164 52.9785-65.625Q55.2246-70.5566 52.8809-73.2422Q50.4883-75.9766 44.8242-73.7305Q35.498-70.0195 28.3203-62.9883Q21.1426-55.957 17.0898-46.7773Q13.0371-37.5977 13.0371-27.4414Q13.0371-16.6504 16.7236-7.59277Q20.4102 1.46484 27.124 8.1543Q33.8379 14.8438 42.8955 18.5303Q51.9531 22.2168 62.6953 22.2168Z"/>
   <path class="multicolor-0:white hierarchical-0:secondary SFSymbolsPreviewFFFFFF" d="M104.346-36.3281Q106.787-36.3281 107.08-38.8672Q107.666-43.5547 108.252-46.2402Q108.838-48.9258 110.205-50.293Q111.572-51.6602 114.307-52.3438Q117.041-53.0273 121.924-53.7598Q124.609-54.1504 124.609-56.4941Q124.609-58.6914 122.217-59.2285Q117.236-60.3027 114.404-61.0596Q111.572-61.8164 110.205-63.0859Q108.838-64.3555 108.252-66.9189Q107.666-69.4824 107.08-74.1211Q106.787-76.6602 104.346-76.6602Q101.953-76.6602 101.611-74.1699Q101.025-69.3359 100.415-66.6016Q99.8047-63.8672 98.4375-62.5Q97.0703-61.1328 94.2871-60.498Q91.5039-59.8633 86.5234-59.2285Q85.498-59.082 84.8145-58.3008Q84.1309-57.5195 84.1309-56.4941Q84.1309-54.248 86.4746-53.7598Q91.5039-52.6855 94.3115-51.9287Q97.1191-51.1719 98.4619-49.8535Q99.8047-48.5352 100.415-45.9717Q101.025-43.4082 101.611-38.7207Q101.758-37.6953 102.539-37.0117Q103.32-36.3281 104.346-36.3281ZM80.4688-72.7539Q81.9336-72.7539 82.1777-74.3652Q82.5684-77.2949 82.959-78.9307Q83.3496-80.5664 84.1797-81.3965Q85.0098-82.2266 86.6943-82.666Q88.3789-83.1055 91.4062-83.6426Q93.0664-83.8867 93.0664-85.3027Q93.0664-86.7188 91.5527-87.0117Q88.4277-87.6465 86.6943-88.1348Q84.9609-88.623 84.1064-89.4287Q83.252-90.2344 82.8857-91.8213Q82.5195-93.4082 82.1777-96.2402Q81.9824-97.8516 80.4688-97.8516Q79.0039-97.8516 78.7598-96.2891Q78.3691-93.2617 77.9785-91.5771Q77.5879-89.8926 76.7822-89.0625Q75.9766-88.2324 74.2676-87.8418Q72.5586-87.4512 69.4336-87.0117Q67.8711-86.8164 67.8711-85.3027Q67.8711-83.9355 69.3848-83.6426Q72.5098-83.0078 74.2188-82.5195Q75.9277-82.0312 76.7578-81.2012Q77.5879-80.3711 77.9541-78.7842Q78.3203-77.1973 78.7598-74.3164Q79.0039-72.7539 80.4688-72.7539Z"/>
  </g>
  <g id="Heavy-M" transform="matrix(1 0 0 1 2574.99 1126)">
   <path class="multicolor-0:white hierarchical-1:primary SFSymbolsPreviewFFFFFF" d="M60.791 20.0684Q70.6543 20.0684 79.3213 16.4551Q87.9883 12.8418 94.5557 6.32324Q101.123-0.195312 104.785-8.88672Q106.836-13.916 104.443-16.1133Q102.002-18.3594 97.9492-16.5039Q94.873-15.0879 90.8203-14.1602Q86.7676-13.2324 82.4219-13.2324Q71.8262-13.2324 63.7695-17.6025Q55.7129-21.9727 51.1963-29.7363Q46.6797-37.5 46.6797-47.8027Q46.6797-52.2949 47.7051-56.958Q48.7305-61.6211 50.293-65.1367Q52.3438-69.5312 50.2441-71.9238Q48.1445-74.3652 43.1152-72.4121Q34.1797-68.8477 27.3682-62.085Q20.5566-55.3223 16.7236-46.46Q12.8906-37.5977 12.8906-27.6855Q12.8906-17.334 16.4551-8.64258Q20.0195 0.0488281 26.4648 6.49414Q32.9102 12.9395 41.6504 16.5039Q50.3906 20.0684 60.791 20.0684Z"/>
   <path class="multicolor-0:white hierarchical-0:secondary SFSymbolsPreviewFFFFFF" d="M101.27-35.2051Q103.467-35.2051 103.76-37.5Q104.346-42.2852 104.956-44.9707Q105.566-47.6562 106.958-49.0479Q108.35-50.4395 111.108-51.123Q113.867-51.8066 118.75-52.5391Q121.191-52.9297 121.191-55.0293Q121.191-57.0312 119.043-57.5195Q114.062-58.5449 111.206-59.3018Q108.35-60.0586 106.958-61.3525Q105.566-62.6465 104.956-65.2588Q104.346-67.8711 103.76-72.5586Q103.467-74.8535 101.27-74.8535Q99.1211-74.8535 98.7793-72.6074Q98.1934-67.7246 97.583-64.9902Q96.9727-62.2559 95.5811-60.8643Q94.1895-59.4727 91.3818-58.8135Q88.5742-58.1543 83.5938-57.5195Q82.6172-57.373 82.0068-56.6895Q81.3965-56.0059 81.3965-55.0293Q81.3965-53.0273 83.5449-52.5391Q88.5742-51.5137 91.4062-50.7568Q94.2383-50 95.6055-48.6572Q96.9727-47.3145 97.583-44.7266Q98.1934-42.1387 98.7793-37.4023Q98.9258-36.4746 99.6338-35.8398Q100.342-35.2051 101.27-35.2051ZM77.5391-70.8496Q78.8574-70.8496 79.0527-72.2656Q79.4922-75.2441 79.9072-76.9043Q80.3223-78.5645 81.1523-79.3945Q81.9824-80.2246 83.6914-80.6885Q85.4004-81.1523 88.4766-81.7383Q89.9414-81.9336 89.9414-83.252Q89.9414-84.5215 88.5742-84.7656Q85.4492-85.4004 83.7158-85.8887Q81.9824-86.377 81.1279-87.207Q80.2734-88.0371 79.8828-89.6729Q79.4922-91.3086 79.0527-94.1895Q78.9062-95.6055 77.5391-95.6055Q76.2207-95.6055 75.9766-94.1895Q75.5371-91.1621 75.1221-89.4775Q74.707-87.793 73.9014-86.9385Q73.0957-86.084 71.3867-85.6689Q69.6777-85.2539 66.5039-84.7656Q65.0879-84.5703 65.0879-83.252Q65.0879-81.9824 66.5039-81.7383Q69.6289-81.0547 71.3379-80.5664Q73.0469-80.0781 73.9014-79.248Q74.7559-78.418 75.1221-76.7822Q75.4883-75.1465 75.9766-72.2656Q76.2207-70.8496 77.5391-70.8496Z"/>
  </g>
  <g id="Bold-M" transform="matrix(1 0 0 1 2280.31 1126)">
   <path class="multicolor-0:white hierarchical-1:primary SFSymbolsPreviewFFFFFF" d="M58.6914 17.627Q68.2129 17.627 76.4648 14.2822Q84.7168 10.9375 90.9912 4.83398Q97.2656-1.26953 100.781-9.61914Q102.539-13.8672 100.439-15.7715Q98.4375-17.627 95.0195-16.1133Q91.9434-14.7949 88.0859-13.9893Q84.2285-13.1836 80.0293-13.1836Q69.2383-13.1836 61.1572-17.5293Q53.0762-21.875 48.5596-29.7119Q44.043-37.5488 44.043-48.0469Q44.043-52.4414 44.9707-56.958Q45.8984-61.4746 47.3633-64.6484Q49.1211-68.4082 47.3145-70.5078Q45.5078-72.6074 41.1621-70.8984Q32.7637-67.5781 26.3672-61.1084Q19.9707-54.6387 16.3574-46.0938Q12.7441-37.5488 12.7441-28.0273Q12.7441-18.1641 16.1377-9.83887Q19.5312-1.51367 25.7324 4.66309Q31.9336 10.8398 40.3076 14.2334Q48.6816 17.627 58.6914 17.627Z"/>
   <path class="multicolor-0:white hierarchical-0:secondary SFSymbolsPreviewFFFFFF" d="M97.8516-33.9844Q99.8047-33.9844 100.049-36.0352Q100.635-40.8203 101.27-43.5547Q101.904-46.2891 103.32-47.6807Q104.736-49.0723 107.52-49.7803Q110.303-50.4883 115.234-51.2207Q117.383-51.5625 117.383-53.418Q117.383-55.2246 115.479-55.6152Q110.498-56.6406 107.617-57.3975Q104.736-58.1543 103.32-59.4727Q101.904-60.791 101.27-63.4277Q100.635-66.0645 100.049-70.8496Q99.8047-72.9004 97.8516-72.9004Q95.9473-72.9004 95.6543-70.8984Q95.0684-65.9668 94.4336-63.208Q93.7988-60.4492 92.3828-59.0332Q90.9668-57.6172 88.1348-56.958Q85.3027-56.2988 80.2734-55.6152Q79.4434-55.5176 78.9062-54.9072Q78.3691-54.2969 78.3691-53.418Q78.3691-51.6113 80.2734-51.2207Q85.3027-50.2441 88.1592-49.4629Q91.0156-48.6816 92.4072-47.3389Q93.7988-45.9961 94.4336-43.335Q95.0684-40.6738 95.6543-35.8887Q95.8008-35.0586 96.4111-34.5215Q97.0215-33.9844 97.8516-33.9844ZM74.2676-68.7012Q75.3906-68.7012 75.5859-69.9707Q76.0742-72.9492 76.5137-74.6338Q76.9531-76.3184 77.7832-77.1729Q78.6133-78.0273 80.3467-78.5156Q82.0801-79.0039 85.2051-79.5898Q86.4746-79.7852 86.4746-80.9082Q86.4746-82.0312 85.2539-82.2754Q82.1289-82.9102 80.3955-83.4229Q78.6621-83.9355 77.8076-84.79Q76.9531-85.6445 76.5381-87.2803Q76.123-88.916 75.5859-91.8457Q75.4395-93.1152 74.2676-93.1152Q73.0957-93.1152 72.9004-91.8945Q72.3633-88.8672 71.9482-87.1582Q71.5332-85.4492 70.7031-84.5947Q69.873-83.7402 68.1396-83.2764Q66.4062-82.8125 63.2812-82.2754Q62.0117-82.0801 62.0117-80.9082Q62.0117-79.7852 63.2324-79.5898Q66.4062-78.9062 68.1396-78.418Q69.873-77.9297 70.7275-77.0752Q71.582-76.2207 71.9727-74.5605Q72.3633-72.9004 72.9004-69.9219Q73.0957-68.7012 74.2676-68.7012Z"/>
  </g>
  <g id="Semibold-M" transform="matrix(1 0 0 1 1985.01 1126)">
   <path class="multicolor-0:white hierarchical-1:primary SFSymbolsPreviewFFFFFF" d="M57.1777 15.9668Q66.4551 15.9668 74.4629 12.793Q82.4707 9.61914 88.501 3.80859Q94.5312-2.00195 97.998-10.1074Q99.5117-13.7695 97.7051-15.5273Q95.9961-17.1387 92.9199-15.8203Q89.8926-14.5508 86.1816-13.8184Q82.4707-13.0859 78.3203-13.0859Q67.4805-13.0859 59.3506-17.4561Q51.2207-21.8262 46.7285-29.7119Q42.2363-37.5977 42.2363-48.2422Q42.2363-52.5391 43.0664-56.9336Q43.8965-61.3281 45.2637-64.2578Q46.875-67.627 45.3125-69.4824Q43.6523-71.3867 39.8438-69.873Q31.7383-66.6504 25.6348-60.376Q19.5312-54.1016 16.0889-45.8252Q12.6465-37.5488 12.6465-28.2227Q12.6465-18.7012 15.918-10.6445Q19.1895-2.58789 25.1953 3.36914Q31.2012 9.32617 39.3555 12.6465Q47.5098 15.9668 57.1777 15.9668Z"/>
   <path class="multicolor-0:white hierarchical-0:secondary SFSymbolsPreviewFFFFFF" d="M95.5078-33.1055Q97.2656-33.1055 97.5098-34.9609Q98.0957-39.8438 98.7305-42.5781Q99.3652-45.3125 100.781-46.7041Q102.197-48.0957 105.005-48.8037Q107.812-49.5117 112.744-50.293Q114.746-50.6348 114.746-52.2949Q114.746-53.9062 112.988-54.2969Q108.008-55.2734 105.127-56.0303Q102.246-56.7871 100.806-58.1299Q99.3652-59.4727 98.7305-62.1338Q98.0957-64.7949 97.5098-69.6289Q97.2656-71.4844 95.5078-71.4844Q93.75-71.4844 93.5059-69.6777Q92.8711-64.7461 92.2363-61.9629Q91.6016-59.1797 90.1611-57.7637Q88.7207-56.3477 85.8887-55.6641Q83.0566-54.9805 77.9785-54.2969Q77.2461-54.1992 76.7334-53.6377Q76.2207-53.0762 76.2207-52.2949Q76.2207-50.6348 77.9785-50.293Q83.0566-49.3164 85.9131-48.5352Q88.7695-47.7539 90.1855-46.3867Q91.6016-45.0195 92.2363-42.3584Q92.8711-39.6973 93.5059-34.8633Q93.6035-34.082 94.1406-33.5938Q94.6777-33.1055 95.5078-33.1055ZM71.9727-67.2363Q72.998-67.2363 73.1934-68.3594Q73.7305-71.3379 74.1699-73.0469Q74.6094-74.7559 75.4395-75.6348Q76.2695-76.5137 78.0273-77.002Q79.7852-77.4902 82.9102-78.0762Q84.082-78.2715 84.082-79.2969Q84.082-80.3223 82.959-80.5176Q79.7852-81.2012 78.0518-81.6895Q76.3184-82.1777 75.4639-83.0566Q74.6094-83.9355 74.1943-85.6201Q73.7793-87.3047 73.1934-90.2344Q73.0469-91.4062 71.9727-91.4062Q70.9473-91.4062 70.752-90.2832Q70.166-87.2559 69.7266-85.5469Q69.2871-83.8379 68.457-82.959Q67.627-82.0801 65.8936-81.5918Q64.1602-81.1035 60.9863-80.5176Q59.8633-80.3711 59.8633-79.2969Q59.8633-78.2715 60.9863-78.0762Q64.1602-77.3926 65.8936-76.9043Q67.627-76.416 68.5059-75.5371Q69.3848-74.6582 69.7998-72.9736Q70.2148-71.2891 70.752-68.3105Q70.9473-67.2363 71.9727-67.2363Z"/>
  </g>
  <g id="Medium-M" transform="matrix(1 0 0 1 1689.35 1126)">
   <path class="multicolor-0:white hierarchical-1:primary SFSymbolsPreviewFFFFFF" d="M56.1035 14.6973Q65.1855 14.6973 72.9736 11.6699Q80.7617 8.64258 86.6455 3.02734Q92.5293-2.58789 95.8496-10.4492Q97.2656-13.7207 95.6055-15.332Q94.1406-16.748 91.4062-15.625Q88.3301-14.3555 84.7168-13.6963Q81.1035-13.0371 77.0508-13.0371Q66.1133-13.0371 57.959-17.4072Q49.8047-21.7773 45.3125-29.6875Q40.8203-37.5977 40.8203-48.3398Q40.8203-52.5879 41.626-56.9092Q42.4316-61.2305 43.75-63.9648Q45.2148-67.041 43.75-68.7012Q42.2852-70.459 38.8184-69.0918Q30.957-65.9668 25.0732-59.8633Q19.1895-53.7598 15.8691-45.6299Q12.5488-37.5 12.5488-28.3691Q12.5488-19.0918 15.7471-11.2549Q18.9453-3.41797 24.8047 2.41699Q30.6641 8.25195 38.623 11.4746Q46.582 14.6973 56.1035 14.6973Z"/>
   <path class="multicolor-0:white hierarchical-0:secondary SFSymbolsPreviewFFFFFF" d="M93.7012-32.4219Q95.3125-32.4219 95.5566-34.1797Q96.1426-39.0625 96.8018-41.8213Q97.4609-44.5801 98.9014-45.9717Q100.342-47.3633 103.149-48.0957Q105.957-48.8281 110.889-49.6094Q112.744-49.9023 112.744-51.4648Q112.744-52.9785 111.133-53.3203Q106.152-54.248 103.247-55.0049Q100.342-55.7617 98.9014-57.1045Q97.4609-58.4473 96.8018-61.1328Q96.1426-63.8184 95.5566-68.7012Q95.3125-70.459 93.7012-70.459Q92.041-70.459 91.8457-68.75Q91.2109-63.8184 90.5518-61.0107Q89.8926-58.2031 88.4766-56.7871Q87.0605-55.3711 84.2041-54.6631Q81.3477-53.9551 76.2695-53.3203Q75.5859-53.1738 75.1221-52.6855Q74.6582-52.1973 74.6582-51.4648Q74.6582-49.9023 76.2695-49.6094Q81.3477-48.6328 84.2041-47.8516Q87.0605-47.0703 88.4766-45.7031Q89.8926-44.3359 90.5518-41.626Q91.2109-38.916 91.8457-34.082Q91.9434-33.3496 92.4561-32.8857Q92.9688-32.4219 93.7012-32.4219ZM70.2637-66.1133Q71.1914-66.1133 71.3867-67.1387Q71.9238-70.1172 72.3633-71.8262Q72.8027-73.5352 73.6572-74.4385Q74.5117-75.3418 76.2695-75.8301Q78.0273-76.3184 81.2012-76.9531Q82.2754-77.0996 82.2754-78.0762Q82.2754-79.0527 81.2012-79.1992Q78.0762-79.8828 76.3428-80.3955Q74.6094-80.9082 73.7549-81.7871Q72.9004-82.666 72.4365-84.3506Q71.9727-86.0352 71.3867-89.0137Q71.1914-90.0879 70.2637-90.0879Q69.3359-90.0879 69.0918-89.0625Q68.5059-86.0352 68.0664-84.3262Q67.627-82.6172 66.7725-81.7139Q65.918-80.8105 64.1846-80.3223Q62.4512-79.834 59.3262-79.1992Q58.252-79.0527 58.252-78.0762Q58.252-77.1484 59.2773-76.9531Q62.4512-76.2695 64.209-75.7568Q65.9668-75.2441 66.8213-74.3896Q67.6758-73.5352 68.1152-71.8262Q68.5547-70.1172 69.0918-67.0898Q69.3359-66.1133 70.2637-66.1133Z"/>
  </g>
  <g id="Regular-M" transform="matrix(1 0 0 1 1394.03 1126)">
   <path class="multicolor-0:white hierarchical-1:primary SFSymbolsPreviewFFFFFF" d="M54.6387 13.0371Q63.4766 13.0371 70.9961 10.2051Q78.5156 7.37305 84.1797 2.02637Q89.8438-3.32031 93.1152-10.9375Q94.2871-13.6719 92.8711-15.0879Q91.6992-16.2598 89.3555-15.332Q86.3281-14.1602 82.8613-13.5742Q79.3945-12.9883 75.3906-12.9883Q64.3555-12.9883 56.1768-17.3584Q47.998-21.7285 43.5059-29.6875Q39.0137-37.6465 39.0137-48.5352Q39.0137-52.6855 39.7461-56.8848Q40.4785-61.084 41.6992-63.623Q43.0176-66.2598 41.748-67.7246Q40.4785-69.2383 37.5-68.0664Q29.9805-65.0879 24.3652-59.1797Q18.75-53.2715 15.6006-45.3857Q12.4512-37.5 12.4512-28.5645Q12.4512-19.6289 15.5518-12.0605Q18.6523-4.49219 24.3164 1.14746Q29.9805 6.78711 37.6953 9.91211Q45.4102 13.0371 54.6387 13.0371Z"/>
   <path class="multicolor-0:white hierarchical-0:secondary SFSymbolsPreviewFFFFFF" d="M91.3574-31.5918Q92.8223-31.5918 93.0176-33.1543Q93.6035-38.0859 94.2871-40.8447Q94.9707-43.6035 96.4111-45.0195Q97.8516-46.4355 100.684-47.168Q103.516-47.9004 108.496-48.6816Q110.156-48.9746 110.156-50.3418Q110.156-51.709 108.691-52.002Q103.711-52.9297 100.806-53.6865Q97.9004-54.4434 96.4355-55.8105Q94.9707-57.1777 94.2871-59.8877Q93.6035-62.5977 93.0176-67.5293Q92.8223-69.0918 91.3574-69.0918Q89.8926-69.0918 89.6973-67.5781Q89.0625-62.5977 88.4033-59.79Q87.7441-56.9824 86.3037-55.542Q84.8633-54.1016 81.9824-53.3936Q79.1016-52.6855 74.0234-52.002Q73.3887-51.9043 72.9736-51.4648Q72.5586-51.0254 72.5586-50.3418Q72.5586-48.9746 74.0234-48.6816Q79.1016-47.7539 81.9824-46.9727Q84.8633-46.1914 86.3037-44.7998Q87.7441-43.4082 88.4033-40.6738Q89.0625-37.9395 89.6973-33.0566Q89.7949-32.4219 90.2344-32.0068Q90.6738-31.5918 91.3574-31.5918ZM68.0176-64.6484Q68.8477-64.6484 68.9941-65.5273Q69.5801-68.5547 70.0439-70.2881Q70.5078-72.0215 71.3623-72.9248Q72.2168-73.8281 73.999-74.3408Q75.7812-74.8535 78.9551-75.4883Q79.8828-75.6348 79.8828-76.5137Q79.8828-77.3438 78.9551-77.4902Q75.7812-78.1738 74.0479-78.6865Q72.3145-79.1992 71.46-80.1025Q70.6055-81.0059 70.1416-82.7148Q69.6777-84.4238 68.9941-87.4512Q68.8477-88.3789 68.0176-88.3789Q67.1875-88.3789 66.9922-87.4512Q66.3574-84.4238 65.8936-82.7148Q65.4297-81.0059 64.5752-80.1025Q63.7207-79.1992 61.9873-78.6865Q60.2539-78.1738 57.0801-77.4902Q56.1523-77.3438 56.1523-76.5137Q56.1523-75.6348 57.0801-75.4883Q60.2539-74.8047 62.0117-74.292Q63.7695-73.7793 64.6484-72.9004Q65.5273-72.0215 65.9668-70.2881Q66.4062-68.5547 66.9922-65.5273Q67.1875-64.6484 68.0176-64.6484Z"/>
  </g>
  <g id="Light-M" transform="matrix(1 0 0 1 1098.45 1126)">
   <path class="multicolor-0:white hierarchical-1:primary SFSymbolsPreviewFFFFFF" d="M53.6133 12.1094Q62.4023 12.1094 69.8486 9.375Q77.2949 6.64062 82.9102 1.48926Q88.5254-3.66211 91.748-11.0352Q92.8223-13.3789 91.6016-14.6484Q90.5273-15.7227 88.3789-14.8926Q85.4004-13.7695 81.9336-13.1348Q78.4668-12.5 74.3164-12.5Q63.1348-12.5 54.8828-16.8945Q46.6309-21.2891 42.1143-29.3945Q37.5977-37.5 37.5977-48.7305Q37.5977-52.7344 38.3057-56.8115Q39.0137-60.8887 40.4297-63.7207Q41.5527-66.1133 40.3809-67.3828Q39.1602-68.75 36.4746-67.5781Q29.2969-64.4531 23.9014-58.667Q18.5059-52.8809 15.4785-45.2393Q12.4512-37.5977 12.4512-28.8086Q12.4512-20.0684 15.4053-12.6465Q18.3594-5.22461 23.8281 0.341797Q29.2969 5.9082 36.8652 9.00879Q44.4336 12.1094 53.6133 12.1094Z"/>
   <path class="multicolor-0:white hierarchical-0:secondary SFSymbolsPreviewFFFFFF" d="M89.9902-31.8359Q91.1133-31.8359 91.3086-33.0566Q91.9434-37.9883 92.627-40.7227Q93.3105-43.457 94.7266-44.8242Q96.1426-46.1914 98.9258-46.9238Q101.709-47.6562 106.738-48.4863Q108.008-48.7305 108.008-49.8047Q108.008-50.8789 106.836-51.123Q101.855-52.0996 98.999-52.832Q96.1426-53.5645 94.7266-54.9072Q93.3105-56.25 92.627-58.9355Q91.9434-61.6211 91.3086-66.5527Q91.1133-67.8223 89.9902-67.8223Q88.8184-67.8223 88.6719-66.6016Q87.9883-61.6699 87.3291-58.9111Q86.6699-56.1523 85.2783-54.7607Q83.8867-53.3691 81.0303-52.6367Q78.1738-51.9043 73.0957-51.123Q72.6074-51.0254 72.29-50.6836Q71.9727-50.3418 71.9727-49.8047Q71.9727-48.7305 73.0957-48.4863Q78.1738-47.5586 81.0303-46.8018Q83.8867-46.0449 85.2783-44.6777Q86.6699-43.3105 87.3291-40.5762Q87.9883-37.8418 88.6719-32.959Q88.7695-32.4707 89.1113-32.1533Q89.4531-31.8359 89.9902-31.8359ZM66.6504-63.8184Q67.2852-63.8184 67.4316-64.502Q67.9688-67.5781 68.4326-69.3604Q68.8965-71.1426 69.7754-72.0703Q70.6543-72.998 72.4854-73.5352Q74.3164-74.0723 77.5391-74.6582Q78.3203-74.7559 78.3203-75.4883Q78.3203-76.1719 77.5391-76.2695Q74.3164-76.9531 72.5586-77.4902Q70.8008-78.0273 69.9463-78.9795Q69.0918-79.9316 68.6279-81.665Q68.1641-83.3984 67.4316-86.4258Q67.2852-87.1582 66.6504-87.1582Q66.0156-87.1582 65.8691-86.4258Q65.1855-83.3984 64.7217-81.665Q64.2578-79.9316 63.4033-78.9795Q62.5488-78.0273 60.7666-77.4902Q58.9844-76.9531 55.7617-76.2695Q54.9805-76.1719 54.9805-75.4883Q54.9805-74.7559 55.7617-74.6582Q58.9844-73.9746 60.791-73.4375Q62.5977-72.9004 63.501-71.9971Q64.4043-71.0938 64.8438-69.3359Q65.2832-67.5781 65.8691-64.502Q66.0156-63.8184 66.6504-63.8184Z"/>
  </g>
  <g id="Thin-M" transform="matrix(1 0 0 1 803.2 1126)">
   <path class="multicolor-0:white hierarchical-1:primary SFSymbolsPreviewFFFFFF" d="M52.2949 10.9375Q60.9375 10.9375 68.3105 8.3252Q75.6836 5.71289 81.2256 0.805664Q86.7676-4.10156 89.9414-11.1328Q90.8203-13.0371 89.9414-14.0137Q89.0137-15.0391 87.1582-14.3555Q84.1309-13.2324 80.7129-12.5488Q77.2949-11.8652 72.8516-11.8652Q61.4746-11.8652 53.1494-16.2842Q44.8242-20.7031 40.3076-29.0283Q35.791-37.3535 35.791-49.0234Q35.791-52.7344 36.4502-56.665Q37.1094-60.5957 38.7207-63.916Q39.6484-65.8691 38.5254-66.9922Q37.4512-68.1641 35.1074-66.9922Q28.418-63.5742 23.3154-57.959Q18.2129-52.3438 15.332-45.0195Q12.4512-37.6953 12.4512-29.1504Q12.4512-20.7031 15.2344-13.4277Q18.0176-6.15234 23.2178-0.683594Q28.418 4.78516 35.7666 7.86133Q43.1152 10.9375 52.2949 10.9375Z"/>
   <path class="multicolor-0:white hierarchical-0:secondary SFSymbolsPreviewFFFFFF" d="M88.1348-32.1289Q88.8672-32.1289 89.0137-32.9102Q89.7949-37.8418 90.4541-40.5273Q91.1133-43.2129 92.4805-44.5312Q93.8477-45.8496 96.6064-46.582Q99.3652-47.3145 104.395-48.2422Q105.176-48.3887 105.176-49.1211Q105.176-49.8047 104.395-49.9512Q99.4141-50.9766 96.6309-51.6846Q93.8477-52.3926 92.5049-53.6865Q91.1621-54.9805 90.4785-57.6904Q89.7949-60.4004 89.0137-65.332Q88.8672-66.1133 88.1348-66.1133Q87.4512-66.1133 87.3535-65.332Q86.5234-60.4004 85.8887-57.7148Q85.2539-55.0293 83.9111-53.6865Q82.5684-52.3438 79.7852-51.6113Q77.002-50.8789 71.9238-49.9512Q71.582-49.9023 71.3867-49.6826Q71.1914-49.4629 71.1914-49.1211Q71.1914-48.3887 71.9238-48.2422Q77.002-47.3145 79.7852-46.5576Q82.5684-45.8008 83.9111-44.4824Q85.2539-43.1641 85.8887-40.4541Q86.5234-37.7441 87.3535-32.8613Q87.3535-32.5195 87.5977-32.3242Q87.8418-32.1289 88.1348-32.1289ZM64.8438-62.6953Q65.2832-62.6953 65.332-63.1348Q65.8203-66.2598 66.2598-68.1152Q66.6992-69.9707 67.6514-70.9473Q68.6035-71.9238 70.5078-72.4609Q72.4121-72.998 75.7324-73.5352Q76.2695-73.6328 76.2695-74.1211Q76.2695-74.5605 75.7324-74.6582Q72.4121-75.3418 70.6299-75.9277Q68.8477-76.5137 67.9932-77.4902Q67.1387-78.4668 66.626-80.249Q66.1133-82.0312 65.332-85.0586Q65.2832-85.5469 64.8438-85.5469Q64.4531-85.5469 64.3555-85.0586Q63.623-82.0312 63.1348-80.249Q62.6465-78.4668 61.792-77.4902Q60.9375-76.5137 59.1309-75.9277Q57.3242-75.3418 54.0039-74.6582Q53.4668-74.5605 53.4668-74.1211Q53.4668-73.6328 54.0039-73.5352Q57.3242-72.8516 59.2041-72.3145Q61.084-71.7773 62.0117-70.8252Q62.9395-69.873 63.3789-68.0664Q63.8184-66.2598 64.3555-63.1348Q64.4531-62.6953 64.8438-62.6953Z"/>
  </g>
  <g id="Ultralight-M" transform="matrix(1 0 0 1 507.245 1126)">
   <path class="multicolor-0:white hierarchical-1:primary SFSymbolsPreviewFFFFFF" d="M51.6113 10.3027Q60.2051 10.3027 67.5293 7.76367Q74.8535 5.22461 80.3467 0.463867Q85.8398-4.29688 89.0137-11.1816Q89.8438-12.8418 89.0625-13.7207Q88.1836-14.6484 86.4746-14.0625Q83.4961-12.9395 80.0781-12.2314Q76.6602-11.5234 72.1191-11.5234Q60.6445-11.5234 52.2705-15.9668Q43.8965-20.4102 39.3555-28.833Q34.8145-37.2559 34.8145-49.1699Q34.8145-52.7832 35.4736-56.6162Q36.1328-60.4492 37.8418-63.9648Q38.6719-65.7715 37.5977-66.748Q36.5723-67.8223 34.4238-66.6504Q27.9785-63.1348 23.0225-57.6172Q18.0664-52.0996 15.2588-44.9463Q12.4512-37.793 12.4512-29.2969Q12.4512-20.9961 15.1367-13.8184Q17.8223-6.64062 22.9004-1.2207Q27.9785 4.19922 35.2295 7.25098Q42.4805 10.3027 51.6113 10.3027Z"/>
   <path class="multicolor-0:white hierarchical-0:secondary SFSymbolsPreviewFFFFFF" d="M87.207-32.2754Q87.7441-32.2754 87.8418-32.8125Q88.6719-37.7441 89.3311-40.4297Q89.9902-43.1152 91.333-44.4092Q92.6758-45.7031 95.4102-46.4111Q98.1445-47.1191 103.174-48.1445Q103.711-48.2422 103.711-48.7305Q103.711-49.2676 103.174-49.3652Q98.1934-50.3906 95.4346-51.0742Q92.6758-51.7578 91.3574-53.0518Q90.0391-54.3457 89.3555-57.0312Q88.6719-59.7168 87.8418-64.6484Q87.7441-65.2344 87.207-65.2344Q86.7188-65.2344 86.6699-64.6484Q85.791-59.7656 85.1562-57.1045Q84.5215-54.4434 83.2275-53.1494Q81.9336-51.8555 79.1504-51.123Q76.3672-50.3906 71.2891-49.3652Q71.0938-49.3164 70.9473-49.1699Q70.8008-49.0234 70.8008-48.7305Q70.8008-48.2422 71.2891-48.1445Q76.3672-47.168 79.1504-46.4355Q81.9336-45.7031 83.2275-44.3848Q84.5215-43.0664 85.1562-40.3809Q85.791-37.6953 86.6699-32.8125Q86.6699-32.5684 86.8408-32.4219Q87.0117-32.2754 87.207-32.2754ZM63.916-62.1582Q64.209-62.1582 64.2578-62.4512Q64.6973-65.625 65.1611-67.4805Q65.625-69.3359 66.5771-70.3613Q67.5293-71.3867 69.4824-71.9238Q71.4355-72.4609 74.7559-72.998Q75.1953-73.0469 75.1953-73.4375Q75.1953-73.7793 74.7559-73.8281Q71.4355-74.5117 69.6289-75.1221Q67.8223-75.7324 66.9678-76.7334Q66.1133-77.7344 65.6006-79.541Q65.0879-81.3477 64.2578-84.375Q64.209-84.7168 63.916-84.7168Q63.623-84.7168 63.5742-84.375Q62.793-81.3477 62.3291-79.541Q61.8652-77.7344 61.0107-76.7334Q60.1562-75.7324 58.3252-75.1221Q56.4941-74.5117 53.0762-73.8281Q52.6367-73.7793 52.6367-73.4375Q52.6367-73.0469 53.0762-72.998Q56.4941-72.3145 58.3984-71.7529Q60.3027-71.1914 61.2549-70.2148Q62.207-69.2383 62.6465-67.4316Q63.0859-65.625 63.5742-62.4512Q63.623-62.1582 63.916-62.1582Z"/>
  </g>
  <g id="Black-S" transform="matrix(1 0 0 1 2883.16 696)">
   <path class="multicolor-0:white hierarchical-1:primary SFSymbolsPreviewFFFFFF" d="M49.6582 10.4004Q57.7148 10.4004 64.8926 7.2998Q72.0703 4.19922 77.5391-1.26953Q83.0078-6.73828 85.9375-13.916Q87.8418-18.6035 85.6445-20.6055Q83.3008-22.7051 79.5898-20.8984Q77.1484-19.7266 73.7549-18.8965Q70.3613-18.0664 66.8945-18.0664Q58.7402-18.0664 52.4658-21.4844Q46.1914-24.9023 42.6514-30.9326Q39.1113-36.9629 39.1113-44.8242Q39.1113-48.4375 39.9902-52.2705Q40.8691-56.1035 42.2363-59.1797Q44.0918-63.2324 42.1387-65.3809Q40.2344-67.627 35.5957-65.7715Q28.1738-62.793 22.4365-57.2266Q16.6992-51.6602 13.4766-44.3848Q10.2539-37.1094 10.2539-29.0527Q10.2539-20.5078 13.1836-13.3057Q16.1133-6.10352 21.4355-0.78125Q26.7578 4.54102 33.9355 7.4707Q41.1133 10.4004 49.6582 10.4004Z"/>
   <path class="multicolor-0:white hierarchical-0:secondary SFSymbolsPreviewFFFFFF" d="M82.6172-36.4258Q84.5703-36.4258 84.8145-38.4766Q85.2539-42.1387 85.7178-44.2383Q86.1816-46.3379 87.2314-47.4121Q88.2812-48.4863 90.4297-49.0234Q92.5781-49.5605 96.3867-50.0977Q98.5352-50.3906 98.5352-52.2949Q98.5352-54.1016 96.6309-54.4922Q92.7246-55.3223 90.5273-55.9326Q88.3301-56.543 87.2559-57.5195Q86.1816-58.4961 85.7178-60.498Q85.2539-62.5 84.8145-66.1133Q84.5703-68.1641 82.6172-68.1641Q80.6641-68.1641 80.4199-66.1621Q79.9316-62.3535 79.4678-60.2295Q79.0039-58.1055 77.9297-57.0557Q76.8555-56.0059 74.6826-55.5176Q72.5098-55.0293 68.6523-54.4922Q66.6992-54.248 66.6992-52.2949Q66.6992-50.4883 68.6035-50.0977Q72.5098-49.2676 74.707-48.6572Q76.9043-48.0469 77.9541-47.0459Q79.0039-46.0449 79.4678-44.043Q79.9316-42.041 80.4199-38.3789Q80.6641-36.4258 82.6172-36.4258ZM63.8672-65.1855Q65.0879-65.1855 65.2344-66.4551Q65.6738-69.5312 66.1133-70.8496Q66.5527-72.168 67.9199-72.6562Q69.2871-73.1445 72.4121-73.6816Q73.7793-73.9258 73.7793-75.0488Q73.7793-76.1719 72.5586-76.416Q69.2871-77.0996 67.8711-77.5879Q66.4551-78.0762 66.04-79.3701Q65.625-80.6641 65.2344-83.5938Q65.0879-84.9121 63.8672-84.9121Q62.6465-84.9121 62.5-83.6426Q62.1094-80.5176 61.6455-79.1504Q61.1816-77.7832 59.8145-77.3193Q58.4473-76.8555 55.2246-76.416Q53.9551-76.2695 53.9551-75.0488Q53.9551-73.9258 55.1758-73.6816Q58.4473-73.0469 59.8145-72.5342Q61.1816-72.0215 61.6211-70.7275Q62.0605-69.4336 62.5-66.4062Q62.6953-65.1855 63.8672-65.1855Z"/>
  </g>
  <g id="Heavy-S" transform="matrix(1 0 0 1 2587.86 696)">
   <path class="multicolor-0:white hierarchical-1:primary SFSymbolsPreviewFFFFFF" d="M48.1445 8.64258Q55.957 8.64258 62.8418 5.7373Q69.7266 2.83203 74.9512-2.34375Q80.1758-7.51953 83.0566-14.4531Q84.7168-18.5547 82.7637-20.4102Q80.7129-22.2168 77.4414-20.6543Q75-19.5312 71.7773-18.7988Q68.5547-18.0664 65.1855-18.0664Q56.9336-18.0664 50.6348-21.4844Q44.3359-24.9023 40.7959-30.957Q37.2559-37.0117 37.2559-45.0195Q37.2559-48.5352 38.0615-52.2461Q38.8672-55.957 40.1367-58.7402Q41.7969-62.4023 40.0879-64.3066Q38.3789-66.3086 34.2285-64.6973Q27.1484-61.8652 21.7041-56.5186Q16.2598-51.1719 13.208-44.1162Q10.1562-37.0605 10.1562-29.248Q10.1562-21.0449 12.9639-14.1357Q15.7715-7.22656 20.9229-2.09961Q26.0742 3.02734 32.9834 5.83496Q39.8926 8.64258 48.1445 8.64258Z"/>
   <path class="multicolor-0:white hierarchical-0:secondary SFSymbolsPreviewFFFFFF" d="M80.1758-35.4492Q81.9824-35.4492 82.1777-37.3535Q82.6172-41.0645 83.1055-43.1885Q83.5938-45.3125 84.668-46.3867Q85.7422-47.4609 87.915-47.998Q90.0879-48.5352 93.8965-49.0723Q95.8984-49.3652 95.8984-51.123Q95.8984-52.7832 94.1406-53.125Q90.2344-53.9551 88.0127-54.5654Q85.791-55.1758 84.6924-56.1768Q83.5938-57.1777 83.1055-59.2041Q82.6172-61.2305 82.1777-64.8926Q81.9824-66.7969 80.1758-66.7969Q78.3691-66.7969 78.1738-64.9414Q77.6855-61.1328 77.1973-58.9844Q76.709-56.8359 75.6104-55.7617Q74.5117-54.6875 72.3145-54.1748Q70.1172-53.6621 66.2598-53.125Q64.4531-52.9297 64.4531-51.123Q64.4531-49.4629 66.2109-49.0723Q70.1172-48.291 72.3389-47.6807Q74.5605-47.0703 75.6348-46.0449Q76.709-45.0195 77.1973-42.9932Q77.6855-40.9668 78.1738-37.2559Q78.3691-35.4492 80.1758-35.4492ZM61.5234-63.623Q62.6465-63.623 62.793-64.7949Q63.2812-67.8711 63.7207-69.2139Q64.1602-70.5566 65.5273-71.0693Q66.8945-71.582 70.0684-72.1191Q71.2891-72.3633 71.2891-73.3887Q71.2891-74.4141 70.2148-74.6582Q66.8945-75.3418 65.5029-75.8301Q64.1113-76.3184 63.6719-77.6367Q63.2324-78.9551 62.793-81.9336Q62.6465-83.1543 61.5234-83.1543Q60.4004-83.1543 60.2539-81.9824Q59.8145-78.8574 59.3506-77.4902Q58.8867-76.123 57.5195-75.6348Q56.1523-75.1465 52.8809-74.6582Q51.709-74.5117 51.709-73.3887Q51.709-72.3633 52.8809-72.1191Q56.1523-71.4844 57.5195-70.9717Q58.8867-70.459 59.3506-69.1406Q59.8145-67.8223 60.2539-64.7461Q60.4492-63.623 61.5234-63.623Z"/>
  </g>
  <g id="Bold-S" transform="matrix(1 0 0 1 2292.71 696)">
   <path class="multicolor-0:white hierarchical-1:primary SFSymbolsPreviewFFFFFF" d="M46.4844 6.73828Q54.0039 6.73828 60.5469 4.05273Q67.0898 1.36719 72.0703-3.54004Q77.0508-8.44727 79.7852-15.0391Q81.2012-18.5547 79.541-20.166Q77.8809-21.6797 75.0488-20.4102Q72.6074-19.3359 69.5557-18.7012Q66.5039-18.0664 63.2812-18.0664Q54.8828-18.0664 48.5596-21.4844Q42.2363-24.9023 38.7207-31.0059Q35.2051-37.1094 35.2051-45.2148Q35.2051-48.6816 35.9131-52.2705Q36.6211-55.8594 37.793-58.3008Q39.2578-61.4258 37.793-63.1348Q36.2793-64.8926 32.7637-63.4766Q26.0254-60.8887 20.8984-55.7617Q15.7715-50.6348 12.8906-43.8477Q10.0098-37.0605 10.0098-29.4922Q10.0098-21.6797 12.7197-15.0635Q15.4297-8.44727 20.3613-3.56445Q25.293 1.31836 31.9336 4.02832Q38.5742 6.73828 46.4844 6.73828Z"/>
   <path class="multicolor-0:white hierarchical-0:secondary SFSymbolsPreviewFFFFFF" d="M77.4414-34.375Q79.0527-34.375 79.2969-36.084Q79.6875-39.8438 80.2002-41.9922Q80.7129-44.1406 81.8115-45.2393Q82.9102-46.3379 85.1074-46.875Q87.3047-47.4121 91.1133-47.998Q92.9688-48.2422 92.9688-49.8047Q92.9688-51.3184 91.3574-51.6602Q87.4512-52.4414 85.2051-53.0518Q82.959-53.6621 81.8359-54.6875Q80.7129-55.7129 80.2002-57.7881Q79.6875-59.8633 79.2969-63.5742Q79.0527-65.2832 77.4414-65.2832Q75.8301-65.2832 75.6348-63.623Q75.1465-59.7656 74.6582-57.5928Q74.1699-55.4199 73.0469-54.3213Q71.9238-53.2227 69.7021-52.71Q67.4805-52.1973 63.5742-51.6602Q61.9141-51.4648 61.9141-49.8047Q61.9141-48.291 63.5254-47.998Q67.4805-47.2168 69.7021-46.6064Q71.9238-45.9961 73.0225-44.9463Q74.1211-43.8965 74.6338-41.8213Q75.1465-39.7461 75.6348-35.9863Q75.8301-34.375 77.4414-34.375ZM58.9355-61.9141Q59.9121-61.9141 60.0586-62.9883Q60.5957-66.0645 61.0596-67.4316Q61.5234-68.7988 62.8906-69.3115Q64.2578-69.8242 67.4805-70.4102Q68.5547-70.6543 68.5547-71.582Q68.5547-72.5098 67.5781-72.7051Q64.2578-73.3887 62.8662-73.9014Q61.4746-74.4141 61.0107-75.7568Q60.5469-77.0996 60.0586-80.127Q59.9121-81.2012 58.9355-81.2012Q57.959-81.2012 57.7637-80.1758Q57.2754-77.002 56.7871-75.6348Q56.2988-74.2676 54.9316-73.7549Q53.5645-73.2422 50.293-72.7051Q49.2676-72.5586 49.2676-71.582Q49.2676-70.6543 50.293-70.4102Q53.5645-69.7754 54.9316-69.2383Q56.2988-68.7012 56.7871-67.3584Q57.2754-66.0156 57.7637-62.9395Q57.959-61.9141 58.9355-61.9141Z"/>
  </g>
  <g id="Semibold-S" transform="matrix(1 0 0 1 1997.1 696)">
   <path class="multicolor-0:white hierarchical-1:primary SFSymbolsPreviewFFFFFF" d="M45.3125 5.37109Q52.6367 5.37109 58.96 2.83203Q65.2832 0.292969 70.0684-4.37012Q74.8535-9.0332 77.5391-15.4297Q78.7598-18.5059 77.2949-19.9707Q75.8789-21.2891 73.3398-20.2148Q70.9473-19.1406 68.0176-18.5791Q65.0879-18.0176 61.9141-18.0176Q53.4668-18.0176 47.1191-21.4355Q40.7715-24.8535 37.2559-30.9814Q33.7402-37.1094 33.7402-45.3125Q33.7402-48.7305 34.3994-52.2217Q35.0586-55.7129 36.1328-57.959Q37.4512-60.791 36.1816-62.3047Q34.8633-63.8672 31.6895-62.6465Q25.1953-60.1562 20.2881-55.2002Q15.3809-50.2441 12.6465-43.6279Q9.91211-37.0117 9.91211-29.6387Q9.91211-22.0703 12.5488-15.6738Q15.1855-9.27734 19.9463-4.56543Q24.707 0.146484 31.1768 2.75879Q37.6465 5.37109 45.3125 5.37109Z"/>
   <path class="multicolor-0:white hierarchical-0:secondary SFSymbolsPreviewFFFFFF" d="M75.5371-33.5938Q77.0508-33.5938 77.2461-35.2051Q77.6855-38.9648 78.1982-41.1377Q78.7109-43.3105 79.8096-44.4092Q80.9082-45.5078 83.1299-46.0693Q85.3516-46.6309 89.209-47.2168Q90.918-47.4609 90.918-48.877Q90.918-50.293 89.4043-50.5859Q85.498-51.3672 83.2275-51.9775Q80.957-52.5879 79.834-53.6377Q78.7109-54.6875 78.1982-56.7871Q77.6855-58.8867 77.2461-62.5977Q77.0508-64.2578 75.5371-64.2578Q74.0234-64.2578 73.877-62.6465Q73.3887-58.7891 72.876-56.5918Q72.3633-54.3945 71.2402-53.2959Q70.1172-52.1973 67.8711-51.6602Q65.625-51.123 61.6699-50.5859Q60.1562-50.4395 60.1562-48.877Q60.1562-47.5098 61.6699-47.2168Q65.625-46.4355 67.8711-45.8252Q70.1172-45.2148 71.2402-44.1406Q72.3633-43.0664 72.876-40.9668Q73.3887-38.8672 73.877-35.1074Q74.0234-33.5938 75.5371-33.5938ZM57.1289-60.7422Q58.0078-60.7422 58.1543-61.6699Q58.6914-64.7949 59.1797-66.1621Q59.668-67.5293 61.0596-68.0664Q62.4512-68.6035 65.6738-69.2383Q66.6504-69.4336 66.6504-70.2637Q66.6504-71.1426 65.7227-71.3379Q62.4512-72.0215 61.0596-72.5342Q59.668-73.0469 59.1797-74.4141Q58.6914-75.7812 58.1543-78.8574Q58.0078-79.834 57.1289-79.834Q56.2012-79.834 56.0547-78.8574Q55.4688-75.7324 55.0049-74.3408Q54.541-72.9492 53.1494-72.4365Q51.7578-71.9238 48.4863-71.3379Q47.5098-71.1914 47.5098-70.2637Q47.5098-69.4336 48.4863-69.2383Q51.7578-68.6035 53.1494-68.042Q54.541-67.4805 55.0293-66.1377Q55.5176-64.7949 56.0547-61.6699Q56.25-60.7422 57.1289-60.7422Z"/>
  </g>
  <g id="Medium-S" transform="matrix(1 0 0 1 1701.22 696)">
   <path class="multicolor-0:white hierarchical-1:primary SFSymbolsPreviewFFFFFF" d="M44.4336 4.3457Q51.6113 4.3457 57.7637 1.92871Q63.916-0.488281 68.5547-5.00488Q73.1934-9.52148 75.8301-15.7715Q76.9531-18.5059 75.5859-19.8242Q74.3652-21.0449 72.1191-20.0684Q69.6777-19.043 66.8457-18.5303Q64.0137-18.0176 60.9375-18.0176Q52.3926-18.0176 46.0205-21.4355Q39.6484-24.8535 36.1572-31.0059Q32.666-37.1582 32.666-45.4102Q32.666-48.7793 33.2764-52.2217Q33.8867-55.6641 34.9121-57.7148Q36.1328-60.2539 34.9609-61.6699Q33.7402-63.0859 30.9082-62.0117Q24.6094-59.6191 19.873-54.7852Q15.1367-49.9512 12.5-43.4814Q9.86328-37.0117 9.86328-29.7363Q9.86328-22.4121 12.4268-16.1865Q14.9902-9.96094 19.6533-5.34668Q24.3164-0.732422 30.6396 1.80664Q36.9629 4.3457 44.4336 4.3457Z"/>
   <path class="multicolor-0:white hierarchical-0:secondary SFSymbolsPreviewFFFFFF" d="M74.1211-33.0078Q75.5371-33.0078 75.7324-34.5703Q76.123-38.3301 76.6357-40.5029Q77.1484-42.6758 78.2959-43.7988Q79.4434-44.9219 81.665-45.4834Q83.8867-46.0449 87.7441-46.6309Q89.3555-46.875 89.3555-48.1934Q89.3555-49.5605 87.9395-49.8047Q84.0332-50.5371 81.7627-51.1475Q79.4922-51.7578 78.3203-52.832Q77.1484-53.9062 76.6357-56.0303Q76.123-58.1543 75.7324-61.9141Q75.5371-63.4277 74.1211-63.4277Q72.7051-63.4277 72.5098-61.9629Q72.0215-58.0566 71.5332-55.8594Q71.0449-53.6621 69.8975-52.5391Q68.75-51.416 66.4795-50.8789Q64.209-50.3418 60.3027-49.8047Q58.8379-49.6582 58.8379-48.1934Q58.8379-46.875 60.2539-46.6309Q64.209-45.8496 66.4795-45.2393Q68.75-44.6289 69.873-43.5547Q70.9961-42.4805 71.5088-40.3564Q72.0215-38.2324 72.5098-34.4727Q72.7051-33.0078 74.1211-33.0078ZM55.7617-59.8145Q56.543-59.8145 56.6895-60.7422Q57.3242-63.8672 57.7881-65.2344Q58.252-66.6016 59.6436-67.1387Q61.0352-67.6758 64.3066-68.3105Q65.2344-68.5059 65.2344-69.3359Q65.2344-70.1172 64.3555-70.3125Q61.0352-70.9961 59.668-71.5088Q58.3008-72.0215 57.7881-73.3887Q57.2754-74.7559 56.6895-77.9297Q56.543-78.8086 55.7617-78.8086Q54.9316-78.8086 54.7363-77.9297Q54.1504-74.7559 53.6621-73.3643Q53.1738-71.9727 51.7822-71.46Q50.3906-70.9473 47.1191-70.3125Q46.2402-70.166 46.2402-69.3359Q46.2402-68.5059 47.1191-68.3105Q50.3906-67.6758 51.7822-67.1143Q53.1738-66.5527 53.6621-65.1855Q54.1504-63.8184 54.7363-60.7422Q54.9316-59.8145 55.7617-59.8145Z"/>
  </g>
  <g id="Regular-S" transform="matrix(1 0 0 1 1405.58 696)">
   <path class="multicolor-0:white hierarchical-1:primary SFSymbolsPreviewFFFFFF" d="M43.3105 3.02734Q50.2441 3.02734 56.1768 0.756836Q62.1094-1.51367 66.5771-5.81055Q71.0449-10.1074 73.6328-16.1621Q74.5605-18.457 73.3887-19.6777Q72.4121-20.6543 70.459-19.873Q68.0664-18.8965 65.3564-18.457Q62.6465-18.0176 59.6191-18.0176Q51.0254-18.0176 44.6289-21.4355Q38.2324-24.8535 34.7412-31.0303Q31.25-37.207 31.25-45.5566Q31.25-48.877 31.8115-52.2217Q32.373-55.5664 33.3008-57.373Q34.375-59.6191 33.3984-60.8398Q32.3242-62.1094 29.8828-61.1816Q23.8281-58.9355 19.3115-54.248Q14.7949-49.5605 12.2803-43.2617Q9.76562-36.9629 9.76562-29.8828Q9.76562-22.8027 12.2559-16.7969Q14.7461-10.791 19.2627-6.34766Q23.7793-1.9043 29.9072 0.561523Q36.0352 3.02734 43.3105 3.02734Z"/>
   <path class="multicolor-0:white hierarchical-0:secondary SFSymbolsPreviewFFFFFF" d="M72.2656-32.2754Q73.5352-32.2754 73.7305-33.6914Q74.1211-37.5 74.6582-39.6973Q75.1953-41.8945 76.3428-43.0176Q77.4902-44.1406 79.7363-44.7021Q81.9824-45.2637 85.8398-45.8496Q87.3535-46.0938 87.3535-47.3145Q87.3535-48.5352 86.0352-48.7793Q82.1289-49.5117 79.834-50.1221Q77.5391-50.7324 76.3672-51.8066Q75.1953-52.8809 74.6582-55.0293Q74.1211-57.1777 73.7305-60.9863Q73.5352-62.4023 72.2656-62.4023Q70.9473-62.4023 70.8008-61.0352Q70.3125-57.1289 69.7998-54.9072Q69.2871-52.6855 68.1396-51.5381Q66.9922-50.3906 64.6973-49.8535Q62.4023-49.3164 58.4473-48.7793Q57.1289-48.6328 57.1289-47.3145Q57.1289-46.0938 58.4473-45.8496Q62.4023-45.1172 64.6729-44.5068Q66.9434-43.8965 68.0908-42.7979Q69.2383-41.6992 69.7754-39.5508Q70.3125-37.4023 70.8008-33.5938Q70.9473-32.2754 72.2656-32.2754ZM53.9551-58.6426Q54.6875-58.6426 54.834-59.4727Q55.4688-62.5977 55.957-63.9893Q56.4453-65.3809 57.8369-65.9424Q59.2285-66.5039 62.5488-67.1387Q63.3301-67.334 63.3301-68.0664Q63.3301-68.7988 62.5488-68.9453Q59.2285-69.6289 57.8613-70.166Q56.4941-70.7031 55.9814-72.0947Q55.4688-73.4863 54.834-76.6602Q54.6875-77.4414 53.9551-77.4414Q53.2227-77.4414 53.0273-76.6602Q52.3926-73.4863 51.9043-72.0947Q51.416-70.7031 50.0244-70.166Q48.6328-69.6289 45.3613-68.9453Q44.5312-68.7988 44.5312-68.0664Q44.5312-67.334 45.3613-67.1387Q48.6328-66.5039 50.0244-65.9424Q51.416-65.3809 51.9287-63.9893Q52.4414-62.5977 53.0273-59.4727Q53.2227-58.6426 53.9551-58.6426Z"/>
  </g>
  <g id="Light-S" transform="matrix(1 0 0 1 1109.85 696)">
   <path class="multicolor-0:white hierarchical-1:primary SFSymbolsPreviewFFFFFF" d="M42.4316 2.24609Q49.2676 2.24609 55.1514 0.0488281Q61.0352-2.14844 65.4541-6.27441Q69.873-10.4004 72.4121-16.2109Q73.2422-18.2129 72.2656-19.2871Q71.3867-20.166 69.6289-19.4824Q67.2363-18.5547 64.5508-18.0664Q61.8652-17.5781 58.6426-17.5781Q49.9023-17.5781 43.4814-21.0205Q37.0605-24.4629 33.5449-30.7861Q30.0293-37.1094 30.0293-45.752Q30.0293-48.9258 30.5664-52.1484Q31.1035-55.3711 32.1289-57.4707Q33.1055-59.4727 32.1777-60.5469Q31.1523-61.6699 28.9551-60.7422Q23.2422-58.3496 18.9209-53.7842Q14.5996-49.2188 12.1826-43.1396Q9.76562-37.0605 9.76562-30.0781Q9.76562-23.1934 12.1338-17.3096Q14.502-11.4258 18.8477-7.03125Q23.1934-2.63672 29.1748-0.195312Q35.1562 2.24609 42.4316 2.24609Z"/>
   <path class="multicolor-0:white hierarchical-0:secondary SFSymbolsPreviewFFFFFF" d="M71.0449-32.4707Q72.0215-32.4707 72.2168-33.5938Q72.6562-37.4023 73.1934-39.5752Q73.7305-41.748 74.8535-42.8467Q75.9766-43.9453 78.1738-44.5068Q80.3711-45.0684 84.2773-45.7031Q85.4492-45.8984 85.4492-46.8262Q85.4492-47.8027 84.4238-47.998Q80.5176-48.7793 78.2715-49.3652Q76.0254-49.9512 74.8779-51.001Q73.7305-52.0508 73.1934-54.1748Q72.6562-56.2988 72.2168-60.1562Q72.0215-61.2305 71.0449-61.2305Q70.0195-61.2305 69.873-60.2051Q69.3359-56.2988 68.8232-54.126Q68.3105-51.9531 67.2119-50.8301Q66.1133-49.707 63.8672-49.1699Q61.6211-48.6328 57.666-47.998Q56.5918-47.9004 56.5918-46.8262Q56.5918-45.8984 57.666-45.7031Q61.6211-44.9707 63.8428-44.3604Q66.0645-43.75 67.1875-42.6758Q68.3105-41.6016 68.8232-39.4775Q69.3359-37.3535 69.873-33.4961Q70.0195-32.4707 71.0449-32.4707ZM52.7344-57.9102Q53.3203-57.9102 53.418-58.5449Q54.0039-61.7676 54.5166-63.208Q55.0293-64.6484 56.4697-65.21Q57.9102-65.7715 61.3281-66.4062Q61.9629-66.5527 61.9629-67.1387Q61.9629-67.7246 61.3281-67.8711Q57.959-68.5547 56.5674-69.1406Q55.1758-69.7266 54.6631-71.1426Q54.1504-72.5586 53.418-75.7324Q53.3203-76.3672 52.7344-76.3672Q52.1973-76.3672 52.0508-75.7324Q51.3184-72.5586 50.8301-71.1426Q50.3418-69.7266 48.9502-69.1406Q47.5586-68.5547 44.1895-67.8711Q43.5059-67.7246 43.5059-67.1387Q43.5059-66.5527 44.1895-66.4062Q47.5586-65.7715 48.999-65.1855Q50.4395-64.5996 50.9521-63.1836Q51.4648-61.7676 52.0508-58.5449Q52.1973-57.9102 52.7344-57.9102Z"/>
  </g>
  <g id="Thin-S" transform="matrix(1 0 0 1 814.454 696)">
   <path class="multicolor-0:white hierarchical-1:primary SFSymbolsPreviewFFFFFF" d="M41.2598 1.17188Q48.0469 1.17188 53.8086-0.90332Q59.5703-2.97852 63.9404-6.88477Q68.3105-10.791 70.8008-16.3086Q71.5332-17.8711 70.752-18.75Q70.0195-19.5312 68.5059-18.9453Q66.1621-18.0664 63.4766-17.5537Q60.791-17.041 57.373-17.041Q48.4375-17.041 41.9434-20.5078Q35.4492-23.9746 31.9092-30.4443Q28.3691-36.9141 28.3691-45.9961Q28.3691-48.9258 28.9062-52.0264Q29.4434-55.127 30.6152-57.666Q31.4453-59.2773 30.5664-60.2051Q29.6387-61.1328 27.7832-60.2051Q22.4609-57.6172 18.4082-53.1738Q14.3555-48.7305 12.0605-42.9443Q9.76562-37.1582 9.76562-30.3711Q9.76562-23.7305 11.9629-17.9932Q14.1602-12.2559 18.3105-7.95898Q22.4609-3.66211 28.2471-1.24512Q34.0332 1.17188 41.2598 1.17188Z"/>
   <path class="multicolor-0:white hierarchical-0:secondary SFSymbolsPreviewFFFFFF" d="M69.4336-32.7148Q70.0684-32.7148 70.166-33.4473Q70.752-37.3047 71.2646-39.4287Q71.7773-41.5527 72.8516-42.6025Q73.9258-43.6523 76.0986-44.2139Q78.2715-44.7754 82.2266-45.5078Q82.9102-45.6543 82.9102-46.2402Q82.9102-46.8262 82.2754-46.9727Q78.3691-47.7539 76.1719-48.3398Q73.9746-48.9258 72.9004-49.9268Q71.8262-50.9277 71.2891-53.0518Q70.752-55.1758 70.166-59.0332Q70.0684-59.7168 69.4336-59.7168Q68.75-59.7168 68.7012-59.082Q68.0664-55.1758 67.5781-53.0518Q67.0898-50.9277 66.0156-49.8779Q64.9414-48.8281 62.7441-48.2666Q60.5469-47.7051 56.5918-46.9727Q55.9082-46.875 55.9082-46.2402Q55.9082-45.6055 56.5918-45.5078Q60.5469-44.7266 62.7441-44.1406Q64.9414-43.5547 65.9912-42.5049Q67.041-41.4551 67.5537-39.3555Q68.0664-37.2559 68.7012-33.3984Q68.75-32.7148 69.4336-32.7148ZM51.123-56.9336Q51.5137-56.9336 51.6113-57.373Q52.0996-60.6445 52.6123-62.1582Q53.125-63.6719 54.6631-64.2578Q56.2012-64.8438 59.668-65.4297Q60.1074-65.5273 60.1074-65.9668Q60.1074-66.3574 59.668-66.4062Q56.25-67.1387 54.834-67.7734Q53.418-68.4082 52.9053-69.8975Q52.3926-71.3867 51.6113-74.5605Q51.5137-74.9023 51.123-74.9023Q50.7812-74.9023 50.6836-74.5605Q49.9512-71.3867 49.4629-69.8975Q48.9746-68.4082 47.5342-67.7734Q46.0938-67.1387 42.627-66.4062Q42.1875-66.3574 42.1875-65.9668Q42.1875-65.5273 42.627-65.4297Q46.0938-64.7461 47.6074-64.1602Q49.1211-63.5742 49.6582-62.1094Q50.1953-60.6445 50.6836-57.373Q50.7812-56.9336 51.123-56.9336Z"/>
  </g>
  <g id="Ultralight-S" transform="matrix(1 0 0 1 518.403 696)">
   <path class="multicolor-0:white hierarchical-1:primary SFSymbolsPreviewFFFFFF" d="M40.625 0.634766Q47.3633 0.634766 53.1006-1.36719Q58.8379-3.36914 63.1592-7.17773Q67.4805-10.9863 70.0195-16.3574Q70.6543-17.7246 69.9707-18.457Q69.3359-19.1895 67.9688-18.7012Q65.625-17.8223 62.9395-17.2852Q60.2539-16.748 56.6895-16.748Q47.7051-16.748 41.1865-20.2393Q34.668-23.7305 31.1035-30.2979Q27.5391-36.8652 27.5391-46.0938Q27.5391-48.9746 28.0518-52.002Q28.5645-55.0293 29.834-57.7148Q30.5664-59.1797 29.7363-60.0098Q28.8574-60.8398 27.1484-59.9121Q22.0703-57.2266 18.1396-52.8809Q14.209-48.5352 11.9873-42.8711Q9.76562-37.207 9.76562-30.5176Q9.76562-23.9746 11.8896-18.335Q14.0137-12.6953 18.042-8.42285Q22.0703-4.15039 27.7588-1.75781Q33.4473 0.634766 40.625 0.634766Z"/>
   <path class="multicolor-0:white hierarchical-0:secondary SFSymbolsPreviewFFFFFF" d="M68.6035-32.8613Q69.043-32.8613 69.1406-33.3496Q69.7754-37.207 70.2881-39.3311Q70.8008-41.4551 71.8506-42.4805Q72.9004-43.5059 75.0488-44.0674Q77.1973-44.6289 81.1523-45.4102Q81.6406-45.5078 81.6406-45.8984Q81.6406-46.3379 81.1523-46.4844Q77.2461-47.2656 75.0977-47.8271Q72.9492-48.3887 71.8994-49.3896Q70.8496-50.3906 70.3125-52.4902Q69.7754-54.5898 69.1406-58.4961Q69.043-58.9355 68.6035-58.9355Q68.1152-58.9355 68.0664-58.4961Q67.3828-54.6387 66.8945-52.5391Q66.4062-50.4395 65.3809-49.3896Q64.3555-48.3398 62.1826-47.7783Q60.0098-47.2168 56.0547-46.4844Q55.5176-46.3867 55.5176-45.8984Q55.5176-45.459 56.0547-45.4102Q60.0098-44.6289 62.1826-44.043Q64.3555-43.457 65.3809-42.4072Q66.4062-41.3574 66.8945-39.2822Q67.3828-37.207 68.0664-33.3496Q68.1152-32.8613 68.6035-32.8613ZM50.3418-56.4453Q50.5859-56.4453 50.6348-56.7383Q51.123-60.0586 51.6602-61.5967Q52.1973-63.1348 53.7598-63.7451Q55.3223-64.3555 58.8379-64.9414Q59.1797-65.0391 59.1797-65.332Q59.1797-65.625 58.8379-65.6738Q55.3711-66.4062 53.9307-67.0898Q52.4902-67.7734 51.9775-69.2627Q51.4648-70.752 50.6348-73.9258Q50.5859-74.1699 50.3418-74.1699Q50.0977-74.1699 50.0488-73.9258Q49.2188-70.752 48.7305-69.2627Q48.2422-67.7734 46.8018-67.0898Q45.3613-66.4062 41.7969-65.6738Q41.5039-65.625 41.5039-65.332Q41.5039-65.0391 41.7969-64.9414Q45.3613-64.2578 46.9238-63.6475Q48.4863-63.0371 48.999-61.5479Q49.5117-60.0586 50.0488-56.7383Q50.0977-56.4453 50.3418-56.4453Z"/>
  </g>
 </g>
</svg>
