<?xml version="1.0" encoding="UTF-8"?>
<!--Generator: Apple Native CoreSVG 175-->
<!DOCTYPE svg
PUBLIC "-//W3C//DTD SVG 1.1//EN"
       "http://www.w3.org/Graphics/SVG/1.1/DTD/svg11.dtd">
<svg version="1.1" xmlns="http://www.w3.org/2000/svg" xmlns:xlink="http://www.w3.org/1999/xlink" width="3300" height="2200">
 <!--glyph: "uni1002CA.medium", point size: 100.0, font version: "17.0d11e1", template writer version: "65.1"-->
 <style>.multicolor-0:systemOrangeColor {fill:#FF9500;opacity:1.0}

.SFSymbolsPreviewFF9500 {fill:#FF9500;opacity:1.0}
</style>
 <g id="Notes">
  <rect height="2200" id="artboard" style="fill:white;opacity:1" width="3300" x="0" y="0"/>
  <line style="fill:none;stroke:black;opacity:1;stroke-width:0.5;" x1="263" x2="3036" y1="292" y2="292"/>
  <text style="stroke:none;fill:black;font-family:sans-serif;font-size:13;font-weight:bold;" transform="matrix(1 0 0 1 263 322)">Weight/Scale Variations</text>
  <text style="stroke:none;fill:black;font-family:sans-serif;font-size:13;text-anchor:middle;" transform="matrix(1 0 0 1 559.711 322)">Ultralight</text>
  <text style="stroke:none;fill:black;font-family:sans-serif;font-size:13;text-anchor:middle;" transform="matrix(1 0 0 1 856.422 322)">Thin</text>
  <text style="stroke:none;fill:black;font-family:sans-serif;font-size:13;text-anchor:middle;" transform="matrix(1 0 0 1 1153.13 322)">Light</text>
  <text style="stroke:none;fill:black;font-family:sans-serif;font-size:13;text-anchor:middle;" transform="matrix(1 0 0 1 1449.84 322)">Regular</text>
  <text style="stroke:none;fill:black;font-family:sans-serif;font-size:13;text-anchor:middle;" transform="matrix(1 0 0 1 1746.56 322)">Medium</text>
  <text style="stroke:none;fill:black;font-family:sans-serif;font-size:13;text-anchor:middle;" transform="matrix(1 0 0 1 2043.27 322)">Semibold</text>
  <text style="stroke:none;fill:black;font-family:sans-serif;font-size:13;text-anchor:middle;" transform="matrix(1 0 0 1 2339.98 322)">Bold</text>
  <text style="stroke:none;fill:black;font-family:sans-serif;font-size:13;text-anchor:middle;" transform="matrix(1 0 0 1 2636.69 322)">Heavy</text>
  <text style="stroke:none;fill:black;font-family:sans-serif;font-size:13;text-anchor:middle;" transform="matrix(1 0 0 1 2933.4 322)">Black</text>
  <line style="fill:none;stroke:black;opacity:1;stroke-width:0.5;" x1="263" x2="3036" y1="1903" y2="1903"/>
  <g transform="matrix(1 0 0 1 263 1933)">
   <path d="M9.24805 0.830078Q10.8691 0.830078 12.2949 0.214844Q13.7207-0.400391 14.8096-1.49414Q15.8984-2.58789 16.5186-4.01367Q17.1387-5.43945 17.1387-7.05078Q17.1387-8.66211 16.5186-10.0879Q15.8984-11.5137 14.8047-12.6074Q13.7109-13.7012 12.2852-14.3164Q10.8594-14.9316 9.23828-14.9316Q7.62695-14.9316 6.20117-14.3164Q4.77539-13.7012 3.69141-12.6074Q2.60742-11.5137 1.9873-10.0879Q1.36719-8.66211 1.36719-7.05078Q1.36719-5.43945 1.9873-4.01367Q2.60742-2.58789 3.69629-1.49414Q4.78516-0.400391 6.21094 0.214844Q7.63672 0.830078 9.24805 0.830078ZM9.24805-0.654297Q7.91992-0.654297 6.7627-1.14746Q5.60547-1.64062 4.73145-2.51953Q3.85742-3.39844 3.36426-4.56055Q2.87109-5.72266 2.87109-7.05078Q2.87109-8.37891 3.35938-9.54102Q3.84766-10.7031 4.72168-11.582Q5.5957-12.4609 6.75293-12.9541Q7.91016-13.4473 9.23828-13.4473Q10.5762-13.4473 11.7334-12.9541Q12.8906-12.4609 13.7695-11.582Q14.6484-10.7031 15.1465-9.54102Q15.6445-8.37891 15.6445-7.05078Q15.6445-5.72266 15.1514-4.56055Q14.6582-3.39844 13.7842-2.51953Q12.9102-1.64062 11.748-1.14746Q10.5859-0.654297 9.24805-0.654297ZM5.6543-7.05078Q5.6543-6.72852 5.85938-6.52832Q6.06445-6.32812 6.40625-6.32812L8.51562-6.32812L8.51562-4.20898Q8.51562-3.88672 8.71094-3.67676Q8.90625-3.4668 9.23828-3.4668Q9.56055-3.4668 9.77051-3.67676Q9.98047-3.88672 9.98047-4.20898L9.98047-6.32812L12.0898-6.32812Q12.4219-6.32812 12.627-6.52832Q12.832-6.72852 12.832-7.05078Q12.832-7.38281 12.627-7.58789Q12.4219-7.79297 12.0898-7.79297L9.98047-7.79297L9.98047-9.90234Q9.98047-10.2344 9.77051-10.4443Q9.56055-10.6543 9.23828-10.6543Q8.90625-10.6543 8.71094-10.4443Q8.51562-10.2344 8.51562-9.90234L8.51562-7.79297L6.40625-7.79297Q6.06445-7.79297 5.85938-7.58789Q5.6543-7.38281 5.6543-7.05078Z"/>
  </g>
  <g transform="matrix(1 0 0 1 281.867 1933)">
   <path d="M11.709 2.91016Q13.75 2.91016 15.5518 2.12891Q17.3535 1.34766 18.7305-0.0292969Q20.1074-1.40625 20.8887-3.20801Q21.6699-5.00977 21.6699-7.05078Q21.6699-9.0918 20.8887-10.8936Q20.1074-12.6953 18.7305-14.0723Q17.3535-15.4492 15.5469-16.2305Q13.7402-17.0117 11.6992-17.0117Q9.6582-17.0117 7.85645-16.2305Q6.05469-15.4492 4.68262-14.0723Q3.31055-12.6953 2.5293-10.8936Q1.74805-9.0918 1.74805-7.05078Q1.74805-5.00977 2.5293-3.20801Q3.31055-1.40625 4.6875-0.0292969Q6.06445 1.34766 7.86621 2.12891Q9.66797 2.91016 11.709 2.91016ZM11.709 1.25Q9.98047 1.25 8.47656 0.605469Q6.97266-0.0390625 5.83496-1.17676Q4.69727-2.31445 4.05762-3.81836Q3.41797-5.32227 3.41797-7.05078Q3.41797-8.7793 4.05762-10.2832Q4.69727-11.7871 5.83008-12.9297Q6.96289-14.0723 8.4668-14.7119Q9.9707-15.3516 11.6992-15.3516Q13.4277-15.3516 14.9316-14.7119Q16.4355-14.0723 17.5781-12.9297Q18.7207-11.7871 19.3652-10.2832Q20.0098-8.7793 20.0098-7.05078Q20.0098-5.32227 19.3701-3.81836Q18.7305-2.31445 17.5928-1.17676Q16.4551-0.0390625 14.9463 0.605469Q13.4375 1.25 11.709 1.25ZM7.17773-7.05078Q7.17773-6.69922 7.41211-6.47461Q7.64648-6.25 8.01758-6.25L10.8887-6.25L10.8887-3.36914Q10.8887-2.99805 11.1133-2.76855Q11.3379-2.53906 11.6895-2.53906Q12.0605-2.53906 12.29-2.76855Q12.5195-2.99805 12.5195-3.36914L12.5195-6.25L15.4004-6.25Q15.7715-6.25 16.001-6.47461Q16.2305-6.69922 16.2305-7.05078Q16.2305-7.42188 16.001-7.65137Q15.7715-7.88086 15.4004-7.88086L12.5195-7.88086L12.5195-10.752Q12.5195-11.1328 12.29-11.3623Q12.0605-11.5918 11.6895-11.5918Q11.3379-11.5918 11.1133-11.3574Q10.8887-11.123 10.8887-10.752L10.8887-7.88086L8.01758-7.88086Q7.63672-7.88086 7.40723-7.65137Q7.17773-7.42188 7.17773-7.05078Z"/>
  </g>
  <g transform="matrix(1 0 0 1 305.646 1933)">
   <path d="M14.9707 5.66406Q17.0605 5.66406 18.96 5.01465Q20.8594 4.36523 22.4512 3.19336Q24.043 2.02148 25.2197 0.429688Q26.3965-1.16211 27.0459-3.06641Q27.6953-4.9707 27.6953-7.05078Q27.6953-9.14062 27.0459-11.04Q26.3965-12.9395 25.2197-14.5312Q24.043-16.123 22.4512-17.2998Q20.8594-18.4766 18.9551-19.126Q17.0508-19.7754 14.9609-19.7754Q12.8711-19.7754 10.9717-19.126Q9.07227-18.4766 7.48535-17.2998Q5.89844-16.123 4.72168-14.5312Q3.54492-12.9395 2.90039-11.04Q2.25586-9.14062 2.25586-7.05078Q2.25586-4.9707 2.90527-3.06641Q3.55469-1.16211 4.72656 0.429688Q5.89844 2.02148 7.49023 3.19336Q9.08203 4.36523 10.9814 5.01465Q12.8809 5.66406 14.9707 5.66406ZM14.9707 3.84766Q13.1641 3.84766 11.5283 3.2959Q9.89258 2.74414 8.53516 1.74805Q7.17773 0.751953 6.17676-0.610352Q5.17578-1.97266 4.62891-3.6084Q4.08203-5.24414 4.08203-7.05078Q4.08203-8.86719 4.62891-10.5029Q5.17578-12.1387 6.17188-13.501Q7.16797-14.8633 8.52539-15.8594Q9.88281-16.8555 11.5186-17.4023Q13.1543-17.9492 14.9609-17.9492Q16.7773-17.9492 18.4131-17.4023Q20.0488-16.8555 21.4111-15.8594Q22.7734-14.8633 23.7695-13.501Q24.7656-12.1387 25.3174-10.5029Q25.8691-8.86719 25.8691-7.05078Q25.8789-5.24414 25.332-3.6084Q24.7852-1.97266 23.7842-0.610352Q22.7832 0.751953 21.4209 1.74805Q20.0586 2.74414 18.4229 3.2959Q16.7871 3.84766 14.9707 3.84766ZM9.19922-7.05078Q9.19922-6.66992 9.45801-6.4209Q9.7168-6.17188 10.1172-6.17188L14.0625-6.17188L14.0625-2.2168Q14.0625-1.81641 14.3115-1.55762Q14.5605-1.29883 14.9512-1.29883Q15.3516-1.29883 15.6104-1.55273Q15.8691-1.80664 15.8691-2.2168L15.8691-6.17188L19.8242-6.17188Q20.2246-6.17188 20.4785-6.4209Q20.7324-6.66992 20.7324-7.05078Q20.7324-7.46094 20.4785-7.71484Q20.2246-7.96875 19.8242-7.96875L15.8691-7.96875L15.8691-11.9141Q15.8691-12.3242 15.6104-12.583Q15.3516-12.8418 14.9512-12.8418Q14.5605-12.8418 14.3115-12.583Q14.0625-12.3242 14.0625-11.9141L14.0625-7.96875L10.1172-7.96875Q9.70703-7.96875 9.45312-7.71484Q9.19922-7.46094 9.19922-7.05078Z"/>
  </g>
  <text style="stroke:none;fill:black;font-family:sans-serif;font-size:13;font-weight:bold;" transform="matrix(1 0 0 1 263 1953)">Design Variations</text>
  <text style="stroke:none;fill:black;font-family:sans-serif;font-size:13;" transform="matrix(1 0 0 1 263 1971)">Symbols are supported in up to nine weights and three scales.</text>
  <text style="stroke:none;fill:black;font-family:sans-serif;font-size:13;" transform="matrix(1 0 0 1 263 1989)">For optimal layout with text and other symbols, vertically align</text>
  <text style="stroke:none;fill:black;font-family:sans-serif;font-size:13;" transform="matrix(1 0 0 1 263 2007)">symbols with the adjacent text.</text>
  <line style="fill:none;stroke:#00AEEF;stroke-width:0.5;opacity:1.0;" x1="776" x2="776" y1="1919" y2="1933"/>
  <g transform="matrix(1 0 0 1 776 1933)">
   <path d="M3.31055 0.15625Q3.70117 0.15625 3.91602-0.00976562Q4.13086-0.175781 4.26758-0.585938L5.52734-4.0332L11.2891-4.0332L12.5488-0.585938Q12.6855-0.175781 12.9004-0.00976562Q13.1152 0.15625 13.4961 0.15625Q13.8867 0.15625 14.1162-0.0585938Q14.3457-0.273438 14.3457-0.644531Q14.3457-0.869141 14.2383-1.17188L9.6582-13.3691Q9.48242-13.8184 9.17969-14.043Q8.87695-14.2676 8.4082-14.2676Q7.5-14.2676 7.17773-13.3789L2.59766-1.16211Q2.49023-0.859375 2.49023-0.634766Q2.49023-0.263672 2.70996-0.0537109Q2.92969 0.15625 3.31055 0.15625ZM6.00586-5.51758L8.37891-12.0898L8.42773-12.0898L10.8008-5.51758Z"/>
  </g>
  <line style="fill:none;stroke:#00AEEF;stroke-width:0.5;opacity:1.0;" x1="793.197" x2="793.197" y1="1919" y2="1933"/>
  <text style="stroke:none;fill:black;font-family:sans-serif;font-size:13;font-weight:bold;" transform="matrix(1 0 0 1 776 1953)">Margins</text>
  <text style="stroke:none;fill:black;font-family:sans-serif;font-size:13;" transform="matrix(1 0 0 1 776 1971)">Leading and trailing margins on the left and right side of each symbol</text>
  <text style="stroke:none;fill:black;font-family:sans-serif;font-size:13;" transform="matrix(1 0 0 1 776 1989)">can be adjusted by modifying the x-location of the margin guidelines.</text>
  <text style="stroke:none;fill:black;font-family:sans-serif;font-size:13;" transform="matrix(1 0 0 1 776 2007)">Modifications are automatically applied proportionally to all</text>
  <text style="stroke:none;fill:black;font-family:sans-serif;font-size:13;" transform="matrix(1 0 0 1 776 2025)">scales and weights.</text>
  <g transform="matrix(1 0 0 1 1289 1933)">
   <path d="M2.8418 1.86523L4.54102 3.57422Q5.18555 4.22852 5.90332 4.17969Q6.62109 4.13086 7.31445 3.35938L18.0078-8.42773L17.041-9.4043L6.42578 2.27539Q6.16211 2.57812 5.89355 2.61719Q5.625 2.65625 5.27344 2.30469L4.10156 1.14258Q3.75 0.791016 3.79395 0.522461Q3.83789 0.253906 4.14062-0.0195312L15.6152-10.8203L14.6387-11.7871L3.04688-0.898438Q2.30469-0.214844 2.25098 0.498047Q2.19727 1.21094 2.8418 1.86523ZM9.25781-16.3281Q8.94531-16.0254 8.90625-15.6348Q8.86719-15.2441 9.04297-14.9512Q9.21875-14.6777 9.55566-14.541Q9.89258-14.4043 10.3809-14.5215Q11.4746-14.7754 12.5977-14.7314Q13.7207-14.6875 14.7949-13.9844L14.209-12.5293Q13.9551-11.9043 14.0674-11.4404Q14.1797-10.9766 14.5801-10.5664L16.875-8.25195Q17.2363-7.88086 17.5781-7.82227Q17.9199-7.76367 18.3398-7.8418L19.4043-8.03711L20.0684-7.36328L20.0293-6.80664Q20-6.43555 20.1221-6.12305Q20.2441-5.81055 20.6055-5.44922L21.3672-4.70703Q21.7285-4.3457 22.1533-4.33105Q22.5781-4.31641 22.9297-4.66797L25.8398-7.58789Q26.1914-7.93945 26.1816-8.35449Q26.1719-8.76953 25.8105-9.13086L25.0391-9.89258Q24.6875-10.2539 24.3799-10.3857Q24.0723-10.5176 23.7109-10.4883L23.1348-10.4395L22.4902-11.0742L22.7344-12.1973Q22.832-12.6172 22.6953-12.9834Q22.5586-13.3496 22.1191-13.7891L19.9219-15.9766Q18.6719-17.2168 17.2607-17.8369Q15.8496-18.457 14.4189-18.4814Q12.9883-18.5059 11.665-17.959Q10.3418-17.4121 9.25781-16.3281ZM10.752-15.957Q11.6602-16.6211 12.7002-16.9043Q13.7402-17.1875 14.8047-17.085Q15.8691-16.9824 16.8701-16.5137Q17.8711-16.0449 18.7012-15.2051L21.1328-12.793Q21.3086-12.6172 21.3525-12.4512Q21.3965-12.2852 21.3379-12.0312L21.0156-10.5469L22.5195-9.0625L23.5059-9.12109Q23.6914-9.13086 23.7891-9.09668Q23.8867-9.0625 24.0332-8.91602L24.6094-8.33984L22.168-5.89844L21.5918-6.47461Q21.4453-6.62109 21.4062-6.71875Q21.3672-6.81641 21.377-7.01172L21.4453-7.98828L19.9512-9.47266L18.4277-9.21875Q18.1836-9.16992 18.042-9.2041Q17.9004-9.23828 17.7148-9.41406L15.7129-11.416Q15.5176-11.5918 15.4932-11.7529Q15.4688-11.9141 15.5859-12.1875L16.4648-14.2773Q15.293-15.3711 13.8281-15.791Q12.3633-16.2109 10.8398-15.7617Q10.7227-15.7324 10.6885-15.8057Q10.6543-15.8789 10.752-15.957Z"/>
  </g>
  <text style="stroke:none;fill:black;font-family:sans-serif;font-size:13;font-weight:bold;" transform="matrix(1 0 0 1 1289 1953)">Exporting</text>
  <text style="stroke:none;fill:black;font-family:sans-serif;font-size:13;" transform="matrix(1 0 0 1 1289 1971)">Symbols should be outlined when exporting to ensure the</text>
  <text style="stroke:none;fill:black;font-family:sans-serif;font-size:13;" transform="matrix(1 0 0 1 1289 1989)">design is preserved when submitting to Xcode.</text>
  <text id="template-version" style="stroke:none;fill:black;font-family:sans-serif;font-size:13;text-anchor:end;" transform="matrix(1 0 0 1 3036 1933)">Template v.3.0</text>
  <text style="stroke:none;fill:black;font-family:sans-serif;font-size:13;text-anchor:end;" transform="matrix(1 0 0 1 3036 1951)">Requires Xcode 13 or greater</text>
  <text id="descriptive-name" style="stroke:none;fill:black;font-family:sans-serif;font-size:13;text-anchor:end;" transform="matrix(1 0 0 1 3036 1969)">Generated from flag.fill</text>
  <text style="stroke:none;fill:black;font-family:sans-serif;font-size:13;text-anchor:end;" transform="matrix(1 0 0 1 3036 1987)">Typeset at 100 points</text>
  <text style="stroke:none;fill:black;font-family:sans-serif;font-size:13;" transform="matrix(1 0 0 1 263 726)">Small</text>
  <text style="stroke:none;fill:black;font-family:sans-serif;font-size:13;" transform="matrix(1 0 0 1 263 1156)">Medium</text>
  <text style="stroke:none;fill:black;font-family:sans-serif;font-size:13;" transform="matrix(1 0 0 1 263 1586)">Large</text>
 </g>
 <g id="Guides">
  <g id="H-reference" style="fill:#27AAE1;stroke:none;" transform="matrix(1 0 0 1 339 696)">
   <path d="M0.976562 0L3.66211 0L29.3457-67.1387L30.0293-67.1387L30.0293-70.459L28.125-70.459ZM11.6699-24.4629L46.9727-24.4629L46.2402-26.709L12.4512-26.709ZM55.127 0L57.7637 0L30.6152-70.459L29.4434-70.459L29.4434-67.1387Z"/>
  </g>
  <line id="Baseline-S" style="fill:none;stroke:#27AAE1;opacity:1;stroke-width:0.5;" x1="263" x2="3036" y1="696" y2="696"/>
  <line id="Capline-S" style="fill:none;stroke:#27AAE1;opacity:1;stroke-width:0.5;" x1="263" x2="3036" y1="625.541" y2="625.541"/>
  <g id="H-reference" style="fill:#27AAE1;stroke:none;" transform="matrix(1 0 0 1 339 1126)">
   <path d="M0.976562 0L3.66211 0L29.3457-67.1387L30.0293-67.1387L30.0293-70.459L28.125-70.459ZM11.6699-24.4629L46.9727-24.4629L46.2402-26.709L12.4512-26.709ZM55.127 0L57.7637 0L30.6152-70.459L29.4434-70.459L29.4434-67.1387Z"/>
  </g>
  <line id="Baseline-M" style="fill:none;stroke:#27AAE1;opacity:1;stroke-width:0.5;" x1="263" x2="3036" y1="1126" y2="1126"/>
  <line id="Capline-M" style="fill:none;stroke:#27AAE1;opacity:1;stroke-width:0.5;" x1="263" x2="3036" y1="1055.54" y2="1055.54"/>
  <g id="H-reference" style="fill:#27AAE1;stroke:none;" transform="matrix(1 0 0 1 339 1556)">
   <path d="M0.976562 0L3.66211 0L29.3457-67.1387L30.0293-67.1387L30.0293-70.459L28.125-70.459ZM11.6699-24.4629L46.9727-24.4629L46.2402-26.709L12.4512-26.709ZM55.127 0L57.7637 0L30.6152-70.459L29.4434-70.459L29.4434-67.1387Z"/>
  </g>
  <line id="Baseline-L" style="fill:none;stroke:#27AAE1;opacity:1;stroke-width:0.5;" x1="263" x2="3036" y1="1556" y2="1556"/>
  <line id="Capline-L" style="fill:none;stroke:#27AAE1;opacity:1;stroke-width:0.5;" x1="263" x2="3036" y1="1485.54" y2="1485.54"/>
  <line id="left-margin-Ultralight-S" style="fill:none;stroke:#00AEEF;stroke-width:0.5;opacity:1.0;" x1="518.5" x2="518.5" y1="600.785" y2="720.121"/>
  <line id="right-margin-Ultralight-S" style="fill:none;stroke:#00AEEF;stroke-width:0.5;opacity:1.0;" x1="600.922" x2="600.922" y1="600.785" y2="720.121"/>
  <line id="left-margin-Thin-S" style="fill:none;stroke:#00AEEF;stroke-width:0.5;opacity:1.0;" x1="814.454" x2="814.454" y1="600.785" y2="720.121"/>
  <line id="right-margin-Thin-S" style="fill:none;stroke:#00AEEF;stroke-width:0.5;opacity:1.0;" x1="898.39" x2="898.39" y1="600.785" y2="720.121"/>
  <line id="left-margin-Light-S" style="fill:none;stroke:#00AEEF;stroke-width:0.5;opacity:1.0;" x1="1109.65" x2="1109.65" y1="600.785" y2="720.121"/>
  <line id="right-margin-Light-S" style="fill:none;stroke:#00AEEF;stroke-width:0.5;opacity:1.0;" x1="1196.61" x2="1196.61" y1="600.785" y2="720.121"/>
  <line id="left-margin-Regular-S" style="fill:none;stroke:#00AEEF;stroke-width:0.5;opacity:1.0;" x1="1405.22" x2="1405.22" y1="600.785" y2="720.121"/>
  <line id="right-margin-Regular-S" style="fill:none;stroke:#00AEEF;stroke-width:0.5;opacity:1.0;" x1="1494.47" x2="1494.47" y1="600.785" y2="720.121"/>
  <line id="left-margin-Medium-S" style="fill:none;stroke:#00AEEF;stroke-width:0.5;opacity:1.0;" x1="1701.78" x2="1701.78" y1="600.785" y2="720.121"/>
  <line id="right-margin-Medium-S" style="fill:none;stroke:#00AEEF;stroke-width:0.5;opacity:1.0;" x1="1791.33" x2="1791.33" y1="600.785" y2="720.121"/>
  <line id="left-margin-Semibold-S" style="fill:none;stroke:#00AEEF;stroke-width:0.5;opacity:1.0;" x1="1998.39" x2="1998.39" y1="600.785" y2="720.121"/>
  <line id="right-margin-Semibold-S" style="fill:none;stroke:#00AEEF;stroke-width:0.5;opacity:1.0;" x1="2088.14" x2="2088.14" y1="600.785" y2="720.121"/>
  <line id="left-margin-Bold-S" style="fill:none;stroke:#00AEEF;stroke-width:0.5;opacity:1.0;" x1="2294.96" x2="2294.96" y1="600.785" y2="720.121"/>
  <line id="right-margin-Bold-S" style="fill:none;stroke:#00AEEF;stroke-width:0.5;opacity:1.0;" x1="2385" x2="2385" y1="600.785" y2="720.121"/>
  <line id="left-margin-Heavy-S" style="fill:none;stroke:#00AEEF;stroke-width:0.5;opacity:1.0;" x1="2591.47" x2="2591.47" y1="600.785" y2="720.121"/>
  <line id="right-margin-Heavy-S" style="fill:none;stroke:#00AEEF;stroke-width:0.5;opacity:1.0;" x1="2681.9" x2="2681.9" y1="600.785" y2="720.121"/>
  <line id="left-margin-Black-S" style="fill:none;stroke:#00AEEF;stroke-width:0.5;opacity:1.0;" x1="2887.99" x2="2887.99" y1="600.785" y2="720.121"/>
  <line id="right-margin-Black-S" style="fill:none;stroke:#00AEEF;stroke-width:0.5;opacity:1.0;" x1="2978.81" x2="2978.81" y1="600.785" y2="720.121"/>
  <line id="left-margin-Ultralight-M" style="fill:none;stroke:#00AEEF;stroke-width:0.5;opacity:1.0;" x1="507.441" x2="507.441" y1="1030.79" y2="1150.12"/>
  <line id="right-margin-Ultralight-M" style="fill:none;stroke:#00AEEF;stroke-width:0.5;opacity:1.0;" x1="611.982" x2="611.982" y1="1030.79" y2="1150.12"/>
  <line id="left-margin-Thin-M" style="fill:none;stroke:#00AEEF;stroke-width:0.5;opacity:1.0;" x1="803.273" x2="803.273" y1="1030.79" y2="1150.12"/>
  <line id="right-margin-Thin-M" style="fill:none;stroke:#00AEEF;stroke-width:0.5;opacity:1.0;" x1="909.572" x2="909.572" y1="1030.79" y2="1150.12"/>
  <line id="left-margin-Light-M" style="fill:none;stroke:#00AEEF;stroke-width:0.5;opacity:1.0;" x1="1098.27" x2="1098.27" y1="1030.79" y2="1150.12"/>
  <line id="right-margin-Light-M" style="fill:none;stroke:#00AEEF;stroke-width:0.5;opacity:1.0;" x1="1207.99" x2="1207.99" y1="1030.79" y2="1150.12"/>
  <line id="left-margin-Regular-M" style="fill:none;stroke:#00AEEF;stroke-width:0.5;opacity:1.0;" x1="1393.69" x2="1393.69" y1="1030.79" y2="1150.12"/>
  <line id="right-margin-Regular-M" style="fill:none;stroke:#00AEEF;stroke-width:0.5;opacity:1.0;" x1="1506" x2="1506" y1="1030.79" y2="1150.12"/>
  <line id="left-margin-Medium-M" style="fill:none;stroke:#00AEEF;stroke-width:0.5;opacity:1.0;" x1="1690.09" x2="1690.09" y1="1030.79" y2="1150.12"/>
  <line id="right-margin-Medium-M" style="fill:none;stroke:#00AEEF;stroke-width:0.5;opacity:1.0;" x1="1803.03" x2="1803.03" y1="1030.79" y2="1150.12"/>
  <line id="left-margin-Semibold-M" style="fill:none;stroke:#00AEEF;stroke-width:0.5;opacity:1.0;" x1="1986.55" x2="1986.55" y1="1030.79" y2="1150.12"/>
  <line id="right-margin-Semibold-M" style="fill:none;stroke:#00AEEF;stroke-width:0.5;opacity:1.0;" x1="2099.98" x2="2099.98" y1="1030.79" y2="1150.12"/>
  <line id="left-margin-Bold-M" style="fill:none;stroke:#00AEEF;stroke-width:0.5;opacity:1.0;" x1="2282.95" x2="2282.95" y1="1030.79" y2="1150.12"/>
  <line id="right-margin-Bold-M" style="fill:none;stroke:#00AEEF;stroke-width:0.5;opacity:1.0;" x1="2397.01" x2="2397.01" y1="1030.79" y2="1150.12"/>
  <line id="left-margin-Heavy-M" style="fill:none;stroke:#00AEEF;stroke-width:0.5;opacity:1.0;" x1="2579.19" x2="2579.19" y1="1030.79" y2="1150.12"/>
  <line id="right-margin-Heavy-M" style="fill:none;stroke:#00AEEF;stroke-width:0.5;opacity:1.0;" x1="2694.18" x2="2694.18" y1="1030.79" y2="1150.12"/>
  <line id="left-margin-Black-M" style="fill:none;stroke:#00AEEF;stroke-width:0.5;opacity:1.0;" x1="2875.49" x2="2875.49" y1="1030.79" y2="1150.12"/>
  <line id="right-margin-Black-M" style="fill:none;stroke:#00AEEF;stroke-width:0.5;opacity:1.0;" x1="2991.31" x2="2991.31" y1="1030.79" y2="1150.12"/>
  <line id="left-margin-Ultralight-L" style="fill:none;stroke:#00AEEF;stroke-width:0.5;opacity:1.0;" x1="492.646" x2="492.646" y1="1460.79" y2="1580.12"/>
  <line id="right-margin-Ultralight-L" style="fill:none;stroke:#00AEEF;stroke-width:0.5;opacity:1.0;" x1="626.777" x2="626.777" y1="1460.79" y2="1580.12"/>
  <line id="left-margin-Thin-L" style="fill:none;stroke:#00AEEF;stroke-width:0.5;opacity:1.0;" x1="788.38" x2="788.38" y1="1460.79" y2="1580.12"/>
  <line id="right-margin-Thin-L" style="fill:none;stroke:#00AEEF;stroke-width:0.5;opacity:1.0;" x1="924.464" x2="924.464" y1="1460.79" y2="1580.12"/>
  <line id="left-margin-Light-L" style="fill:none;stroke:#00AEEF;stroke-width:0.5;opacity:1.0;" x1="1083.16" x2="1083.16" y1="1460.79" y2="1580.12"/>
  <line id="right-margin-Light-L" style="fill:none;stroke:#00AEEF;stroke-width:0.5;opacity:1.0;" x1="1223.1" x2="1223.1" y1="1460.79" y2="1580.12"/>
  <line id="left-margin-Regular-L" style="fill:none;stroke:#00AEEF;stroke-width:0.5;opacity:1.0;" x1="1378.43" x2="1378.43" y1="1460.79" y2="1580.12"/>
  <line id="right-margin-Regular-L" style="fill:none;stroke:#00AEEF;stroke-width:0.5;opacity:1.0;" x1="1521.26" x2="1521.26" y1="1460.79" y2="1580.12"/>
  <line id="left-margin-Medium-L" style="fill:none;stroke:#00AEEF;stroke-width:0.5;opacity:1.0;" x1="1674.58" x2="1674.58" y1="1460.79" y2="1580.12"/>
  <line id="right-margin-Medium-L" style="fill:none;stroke:#00AEEF;stroke-width:0.5;opacity:1.0;" x1="1818.53" x2="1818.53" y1="1460.79" y2="1580.12"/>
  <line id="left-margin-Semibold-L" style="fill:none;stroke:#00AEEF;stroke-width:0.5;opacity:1.0;" x1="1970.85" x2="1970.85" y1="1460.79" y2="1580.12"/>
  <line id="right-margin-Semibold-L" style="fill:none;stroke:#00AEEF;stroke-width:0.5;opacity:1.0;" x1="2115.68" x2="2115.68" y1="1460.79" y2="1580.12"/>
  <line id="left-margin-Bold-L" style="fill:none;stroke:#00AEEF;stroke-width:0.5;opacity:1.0;" x1="2267" x2="2267" y1="1460.79" y2="1580.12"/>
  <line id="right-margin-Bold-L" style="fill:none;stroke:#00AEEF;stroke-width:0.5;opacity:1.0;" x1="2412.95" x2="2412.95" y1="1460.79" y2="1580.12"/>
  <line id="left-margin-Heavy-L" style="fill:none;stroke:#00AEEF;stroke-width:0.5;opacity:1.0;" x1="2562.89" x2="2562.89" y1="1460.79" y2="1580.12"/>
  <line id="right-margin-Heavy-L" style="fill:none;stroke:#00AEEF;stroke-width:0.5;opacity:1.0;" x1="2710.49" x2="2710.49" y1="1460.79" y2="1580.12"/>
  <line id="left-margin-Black-L" style="fill:none;stroke:#00AEEF;stroke-width:0.5;opacity:1.0;" x1="2858.86" x2="2858.86" y1="1460.79" y2="1580.12"/>
  <line id="right-margin-Black-L" style="fill:none;stroke:#00AEEF;stroke-width:0.5;opacity:1.0;" x1="3007.94" x2="3007.94" y1="1460.79" y2="1580.12"/>
 </g>
 <g id="Symbols">
  <g id="Black-L" transform="matrix(1 0 0 1 2858.86 1556)">
   <path class="multicolor-0:systemOrangeColor SFSymbolsPreviewFF9500" d="M27.5391 29.541Q31.4453 29.541 34.2529 26.7822Q37.0605 24.0234 37.0605 20.0195L37.0605-12.3047Q38.0859-12.5488 39.5752-12.8662Q41.0645-13.1836 42.8955-13.3789Q44.7266-13.5742 46.875-13.5742Q53.3691-13.5742 59.4971-12.4023Q65.625-11.2305 71.582-9.49707Q77.5391-7.76367 83.5205-6.00586Q89.502-4.24805 95.7275-3.07617Q101.953-1.9043 108.643-1.9043Q113.33-1.9043 117.188-2.44141Q121.045-2.97852 124.194-3.90625Q127.344-4.83398 129.932-6.05469Q133.74-7.91016 135.449-11.4258Q137.158-14.9414 137.158-19.6289L137.158-79.0039Q137.158-83.8379 134.277-86.9385Q131.396-90.0391 126.709-90.0391Q124.17-90.0391 121.46-89.624Q118.75-89.209 115.576-88.7939Q112.402-88.3789 108.447-88.3789Q102.1-88.3789 95.9717-89.5508Q89.8438-90.7227 83.7891-92.4561Q77.7344-94.1895 71.6797-95.9229Q65.625-97.6562 59.3994-98.8525Q53.1738-100.049 46.6797-100.049Q42.2852-100.049 38.6475-99.5605Q35.0098-99.0723 31.8359-98.1201Q28.6621-97.168 25.6348-95.752Q21.9238-93.9941 20.0195-91.333Q18.1152-88.6719 18.1152-84.2285L18.1152 20.0195Q18.1152 23.9258 20.8984 26.7334Q23.6816 29.541 27.5391 29.541Z"/>
  </g>
  <g id="Heavy-L" transform="matrix(1 0 0 1 2562.89 1556)">
   <path class="multicolor-0:systemOrangeColor SFSymbolsPreviewFF9500" d="M26.7578 28.6133Q30.127 28.6133 32.5684 26.2207Q35.0098 23.8281 35.0098 20.3613L35.0098-12.8418Q35.9863-13.0859 37.6465-13.501Q39.3066-13.916 41.5527-14.209Q43.7988-14.502 46.582-14.502Q53.1738-14.502 59.2773-13.3301Q65.3809-12.1582 71.2402-10.4492Q77.0996-8.74023 82.959-7.00684Q88.8184-5.27344 94.9707-4.10156Q101.123-2.92969 107.764-2.92969Q112.5-2.92969 116.187-3.41797Q119.873-3.90625 122.827-4.78516Q125.781-5.66406 128.271-6.83594Q131.934-8.54492 133.667-11.792Q135.4-15.0391 135.4-19.5312L135.4-79.834Q135.4-84.082 132.812-86.7432Q130.225-89.4043 126.025-89.4043Q123.73-89.4043 121.069-88.916Q118.408-88.4277 115.088-87.9639Q111.768-87.5 107.422-87.5Q101.025-87.5 94.9707-88.6719Q88.916-89.8438 82.9834-91.5527Q77.0508-93.2617 71.1182-94.9951Q65.1855-96.7285 59.0088-97.9004Q52.832-99.0723 46.2402-99.0723Q41.748-99.0723 38.2324-98.6084Q34.7168-98.1445 31.7383-97.2656Q28.7598-96.3867 25.9277-95.0684Q22.3633-93.3594 20.459-90.7959Q18.5547-88.2324 18.5547-83.8867L18.5547 20.3613Q18.5547 23.7305 20.9717 26.1719Q23.3887 28.6133 26.7578 28.6133Z"/>
  </g>
  <g id="Bold-L" transform="matrix(1 0 0 1 2267 1556)">
   <path class="multicolor-0:systemOrangeColor SFSymbolsPreviewFF9500" d="M25.8789 27.5879Q28.6621 27.5879 30.6641 25.6104Q32.666 23.6328 32.666 20.752L32.666-13.4277Q33.6426-13.7207 35.498-14.2334Q37.3535-14.7461 40.0635-15.1611Q42.7734-15.5762 46.2402-15.5762Q52.9297-15.5762 59.0088-14.4043Q65.0879-13.2324 70.8496-11.5234Q76.6113-9.81445 82.3486-8.10547Q88.0859-6.39648 94.1406-5.22461Q100.195-4.05273 106.836-4.05273Q111.572-4.05273 115.063-4.49219Q118.555-4.93164 121.289-5.76172Q124.023-6.5918 126.465-7.71484Q129.883-9.32617 131.665-12.2559Q133.447-15.1855 133.447-19.4824L133.447-80.7129Q133.447-84.3262 131.177-86.5234Q128.906-88.7207 125.293-88.7207Q123.291-88.7207 120.654-88.1592Q118.018-87.5977 114.526-87.0605Q111.035-86.5234 106.348-86.5234Q99.8535-86.5234 93.8721-87.6709Q87.8906-88.8184 82.1045-90.5273Q76.3184-92.2363 70.5078-93.9453Q64.6973-95.6543 58.5693-96.8262Q52.4414-97.998 45.752-97.998Q41.1621-97.998 37.7686-97.583Q34.375-97.168 31.6406-96.3379Q28.9062-95.5078 26.2695-94.2871Q22.8516-92.7246 20.9717-90.21Q19.0918-87.6953 19.0918-83.5449L19.0918 20.752Q19.0918 23.5352 21.0938 25.5615Q23.0957 27.5879 25.8789 27.5879Z"/>
  </g>
  <g id="Semibold-L" transform="matrix(1 0 0 1 1970.85 1556)">
   <path class="multicolor-0:systemOrangeColor SFSymbolsPreviewFF9500" d="M25.2441 26.8555Q27.6367 26.8555 29.3457 25.1709Q31.0547 23.4863 31.0547 20.9961L31.0547-13.8184Q31.9824-14.1113 33.9844-14.6973Q35.9863-15.2832 39.0137-15.7715Q42.041-16.2598 45.9961-16.2598Q52.7832-16.2598 58.8135-15.1123Q64.8438-13.9648 70.5322-12.2559Q76.2207-10.5469 81.8848-8.83789Q87.5488-7.12891 93.5303-5.98145Q99.5117-4.83398 106.152-4.83398Q110.889-4.83398 114.258-5.24902Q117.627-5.66406 120.215-6.4209Q122.803-7.17773 125.146-8.30078Q128.467-9.81445 130.273-12.5488Q132.08-15.2832 132.08-19.3848L132.08-81.3477Q132.08-84.5215 130.029-86.3525Q127.979-88.1836 124.756-88.1836Q122.949-88.1836 120.361-87.5977Q117.773-87.0117 114.136-86.4014Q110.498-85.791 105.566-85.791Q99.0234-85.791 93.0908-86.9629Q87.1582-88.1348 81.4697-89.8193Q75.7812-91.5039 70.0439-93.2129Q64.3066-94.9219 58.252-96.0938Q52.1973-97.2656 45.3613-97.2656Q40.7715-97.2656 37.4512-96.8506Q34.1309-96.4355 31.5674-95.6787Q29.0039-94.9219 26.4648-93.75Q23.1934-92.2363 21.3135-89.7949Q19.4336-87.3535 19.4336-83.3008L19.4336 20.9961Q19.4336 23.3887 21.167 25.1221Q22.9004 26.8555 25.2441 26.8555Z"/>
  </g>
  <g id="Medium-L" transform="matrix(1 0 0 1 1674.58 1556)">
   <path class="multicolor-0:systemOrangeColor SFSymbolsPreviewFF9500" d="M24.7559 26.3184Q26.9043 26.3184 28.3691 24.8535Q29.834 23.3887 29.834 21.2402L29.834-14.1602Q30.7617-14.4531 32.8613-15.0879Q34.9609-15.7227 38.2324-16.2598Q41.5039-16.7969 45.8008-16.7969Q52.6367-16.7969 58.667-15.6494Q64.6973-14.502 70.3369-12.8174Q75.9766-11.1328 81.5674-9.42383Q87.1582-7.71484 93.0908-6.56738Q99.0234-5.41992 105.615-5.41992Q110.4-5.41992 113.672-5.81055Q116.943-6.20117 119.409-6.93359Q121.875-7.66602 124.219-8.74023Q127.393-10.2051 129.224-12.7686Q131.055-15.332 131.055-19.3359L131.055-81.7871Q131.055-84.6191 129.175-86.2305Q127.295-87.8418 124.365-87.8418Q122.705-87.8418 120.117-87.207Q117.529-86.5723 113.818-85.9375Q110.107-85.3027 104.98-85.3027Q98.4375-85.3027 92.5293-86.4502Q86.6211-87.5977 81.0059-89.2822Q75.3906-90.9668 69.7266-92.6758Q64.0625-94.3848 58.0078-95.5322Q51.9531-96.6797 45.1172-96.6797Q40.4297-96.6797 37.207-96.2891Q33.9844-95.8984 31.5186-95.166Q29.0527-94.4336 26.6602-93.3594Q23.4375-91.8945 21.582-89.4775Q19.7266-87.0605 19.7266-83.1055L19.7266 21.2402Q19.7266 23.291 21.2158 24.8047Q22.7051 26.3184 24.7559 26.3184Z"/>
  </g>
  <g id="Regular-L" transform="matrix(1 0 0 1 1378.43 1556)">
   <path class="multicolor-0:systemOrangeColor SFSymbolsPreviewFF9500" d="M24.1699 25.6348Q25.8789 25.6348 27.0752 24.4385Q28.2715 23.2422 28.2715 21.4844L28.2715-14.5508Q29.1504-14.8438 31.3965-15.5518Q33.6426-16.2598 37.207-16.8945Q40.7715-17.5293 45.5566-17.5293Q52.4902-17.5293 58.4961-16.3818Q64.502-15.2344 70.0684-13.5498Q75.6348-11.8652 81.1523-10.1807Q86.6699-8.49609 92.5293-7.34863Q98.3887-6.20117 104.98-6.20117Q109.766-6.20117 112.891-6.54297Q116.016-6.88477 118.335-7.59277Q120.654-8.30078 122.949-9.32617Q126.025-10.6934 127.856-13.0615Q129.688-15.4297 129.688-19.2871L129.688-82.4219Q129.688-84.8145 128.027-86.084Q126.367-87.3535 123.877-87.3535Q122.363-87.3535 119.824-86.6699Q117.285-85.9863 113.452-85.3027Q109.619-84.6191 104.199-84.6191Q97.6074-84.6191 91.748-85.7666Q85.8887-86.9141 80.3711-88.5986Q74.8535-90.2832 69.2871-91.9678Q63.7207-93.6523 57.7148-94.7998Q51.709-95.9473 44.7754-95.9473Q40.0391-95.9473 36.8896-95.5811Q33.7402-95.2148 31.4453-94.5312Q29.1504-93.8477 26.8555-92.8223Q23.7793-91.4062 21.9238-89.0625Q20.0684-86.7188 20.0684-82.8613L20.0684 21.4844Q20.0684 23.1445 21.2891 24.3896Q22.5098 25.6348 24.1699 25.6348Z"/>
  </g>
  <g id="Light-L" transform="matrix(1 0 0 1 1083.16 1556)">
   <path class="multicolor-0:systemOrangeColor SFSymbolsPreviewFF9500" d="M23.7305 24.2188Q25.0488 24.2188 25.9766 23.291Q26.9043 22.3633 26.9043 20.9961L26.9043-16.5039Q27.9297-16.6992 30.2246-17.4072Q32.5195-18.1152 36.1816-18.7988Q39.8438-19.4824 44.9219-19.4824Q51.709-19.4824 57.6172-18.335Q63.5254-17.1875 68.9697-15.5273Q74.4141-13.8672 79.834-12.1826Q85.2539-10.498 91.04-9.375Q96.8262-8.25195 103.418-8.25195Q107.959-8.25195 111.035-8.59375Q114.111-8.93555 116.406-9.61914Q118.701-10.3027 120.898-11.2793Q123.682-12.5488 125.366-14.5752Q127.051-16.6016 127.051-19.7754L127.051-81.7871Q127.051-83.8867 125.708-84.9854Q124.365-86.084 122.266-86.084Q120.801-86.084 118.286-85.376Q115.771-84.668 111.938-83.96Q108.105-83.252 102.686-83.252Q96.0938-83.252 90.2832-84.375Q84.4727-85.498 79.0527-87.1826Q73.6328-88.8672 68.1885-90.5518Q62.7441-92.2363 56.8604-93.3594Q50.9766-94.4824 44.1406-94.4824Q39.6484-94.4824 36.5479-94.1162Q33.4473-93.75 31.1768-93.0908Q28.9062-92.4316 26.7578-91.4551Q23.9258-90.1367 22.2412-88.1348Q20.5566-86.1328 20.5566-82.959L20.5566 20.9961Q20.5566 22.3145 21.5088 23.2666Q22.4609 24.2188 23.7305 24.2188Z"/>
  </g>
  <g id="Thin-L" transform="matrix(1 0 0 1 788.38 1556)">
   <path class="multicolor-0:systemOrangeColor SFSymbolsPreviewFF9500" d="M23.1445 22.4121Q23.9258 22.4121 24.4873 21.8262Q25.0488 21.2402 25.0488 20.4102L25.0488-19.043Q26.2695-19.0918 28.6621-19.8486Q31.0547-20.6055 34.8633-21.3135Q38.6719-22.0215 44.043-22.0215Q50.6836-22.0215 56.4209-20.9229Q62.1582-19.8242 67.4805-18.1396Q72.8027-16.4551 78.1006-14.8193Q83.3984-13.1836 89.1113-12.0361Q94.8242-10.8887 101.416-10.8887Q105.615-10.8887 108.618-11.2549Q111.621-11.6211 113.892-12.2803Q116.162-12.9395 118.115-13.8184Q120.557-14.9414 122.07-16.5283Q123.584-18.1152 123.584-20.3613L123.584-80.957Q123.584-82.7148 122.632-83.5449Q121.68-84.375 120.166-84.375Q118.799-84.375 116.309-83.6426Q113.818-82.9102 109.961-82.1533Q106.104-81.3965 100.635-81.3965Q94.043-81.3965 88.3301-82.5439Q82.6172-83.6914 77.3193-85.3271Q72.0215-86.9629 66.6992-88.6475Q61.377-90.332 55.6641-91.4551Q49.9512-92.5781 43.3105-92.5781Q39.1113-92.5781 36.084-92.2119Q33.0566-91.8457 30.8105-91.1865Q28.5645-90.5273 26.5625-89.5996Q24.1211-88.4766 22.6318-86.9385Q21.1426-85.4004 21.1426-83.0566L21.1426 20.4102Q21.1426 21.1914 21.7529 21.8018Q22.3633 22.4121 23.1445 22.4121Z"/>
  </g>
  <g id="Ultralight-L" transform="matrix(1 0 0 1 492.646 1556)">
   <path class="multicolor-0:systemOrangeColor SFSymbolsPreviewFF9500" d="M22.8516 21.4355Q23.3887 21.4355 23.7549 21.0449Q24.1211 20.6543 24.1211 20.0684L24.1211-20.3613Q25.4395-20.3613 27.8809-21.0938Q30.3223-21.8262 34.1797-22.583Q38.0371-23.3398 43.6035-23.3398Q50.1953-23.3398 55.8594-22.2412Q61.5234-21.1426 66.748-19.4824Q71.9727-17.8223 77.2217-16.1865Q82.4707-14.5508 88.1104-13.4277Q93.75-12.3047 100.342-12.3047Q104.395-12.3047 107.373-12.6709Q110.352-13.0371 112.598-13.6719Q114.844-14.3066 116.748-15.1367Q118.994-16.2109 120.386-17.5537Q121.777-18.8965 121.777-20.7031L121.777-80.5176Q121.777-82.0801 121.045-82.7881Q120.312-83.4961 119.043-83.4961Q117.725-83.4961 115.259-82.7393Q112.793-81.9824 108.936-81.2256Q105.078-80.4688 99.6094-80.4688Q93.0176-80.4688 87.3535-81.5918Q81.6895-82.7148 76.4404-84.375Q71.1914-86.0352 65.9668-87.6953Q60.7422-89.3555 55.1025-90.4785Q49.4629-91.6016 42.9199-91.6016Q38.8184-91.6016 35.8398-91.2354Q32.8613-90.8691 30.6152-90.2344Q28.3691-89.5996 26.5137-88.6719Q24.2188-87.6465 22.8516-86.3281Q21.4844-85.0098 21.4844-83.1543L21.4844 20.0684Q21.4844 20.6055 21.8994 21.0205Q22.3145 21.4355 22.8516 21.4355Z"/>
  </g>
  <g id="Black-M" transform="matrix(1 0 0 1 2875.49 1126)">
   <path class="multicolor-0:systemOrangeColor SFSymbolsPreviewFF9500" d="M21.875 15.2832Q25.1953 15.2832 27.6123 12.915Q30.0293 10.5469 30.0293 7.12891L30.0293-17.6758Q31.3477-17.9199 32.959-18.1152Q34.5703-18.3105 36.377-18.3105Q42.5293-18.3105 48.3887-16.9434Q54.248-15.5762 60.0586-13.7695Q65.8691-11.9629 71.8994-10.5957Q77.9297-9.22852 84.4238-9.22852Q87.9395-9.22852 91.0645-9.66797Q94.1895-10.1074 96.7773-10.8887Q99.3652-11.6699 101.416-12.6465Q104.395-14.1113 105.664-16.9678Q106.934-19.8242 106.934-23.3887L106.934-68.2617Q106.934-72.4121 104.565-75.1221Q102.197-77.832 98.1934-77.832Q94.9707-77.832 91.7725-77.2705Q88.5742-76.709 84.375-76.709Q78.3203-76.709 72.3389-78.0762Q66.3574-79.4434 60.4248-81.25Q54.4922-83.0566 48.4863-84.4238Q42.4805-85.791 36.3281-85.791Q33.0566-85.791 30.1758-85.376Q27.2949-84.9609 24.6826-84.1797Q22.0703-83.3984 19.5801-82.2754Q16.6504-80.8594 15.2344-78.8574Q13.8184-76.8555 13.8184-73.5352L13.8184 7.12891Q13.8184 10.498 16.1865 12.8906Q18.5547 15.2832 21.875 15.2832Z"/>
  </g>
  <g id="Heavy-M" transform="matrix(1 0 0 1 2579.19 1126)">
   <path class="multicolor-0:systemOrangeColor SFSymbolsPreviewFF9500" d="M21.1914 14.6484Q24.1211 14.6484 26.2207 12.5977Q28.3203 10.5469 28.3203 7.56836L28.3203-17.7734Q29.541-18.0664 31.543-18.4326Q33.5449-18.7988 36.2305-18.7988Q42.5293-18.7988 48.3643-17.4316Q54.1992-16.0645 59.8877-14.2822Q65.5762-12.5 71.5088-11.1328Q77.4414-9.76562 83.9355-9.76562Q87.5-9.76562 90.4541-10.1807Q93.4082-10.5957 95.8252-11.3281Q98.2422-12.0605 100.244-12.9883Q103.125-14.3555 104.443-17.0166Q105.762-19.6777 105.762-23.1934L105.762-69.1895Q105.762-72.8027 103.613-75.1465Q101.465-77.4902 97.9004-77.4902Q95.0195-77.4902 91.7236-76.8066Q88.4277-76.123 83.7402-76.123Q77.5879-76.123 71.7041-77.4902Q65.8203-78.8574 60.0098-80.6396Q54.1992-82.4219 48.2666-83.7891Q42.334-85.1562 36.0352-85.1562Q32.6172-85.1562 29.834-84.7656Q27.0508-84.375 24.6338-83.667Q22.2168-82.959 19.873-81.8848Q17.041-80.5176 15.6006-78.5156Q14.1602-76.5137 14.1602-73.1934L14.1602 7.56836Q14.1602 10.498 16.2354 12.5732Q18.3105 14.6484 21.1914 14.6484Z"/>
  </g>
  <g id="Bold-M" transform="matrix(1 0 0 1 2282.95 1126)">
   <path class="multicolor-0:systemOrangeColor SFSymbolsPreviewFF9500" d="M20.459 14.0137Q22.9004 14.0137 24.6338 12.2803Q26.3672 10.5469 26.3672 8.10547L26.3672-17.9199Q27.4902-18.2129 29.9805-18.7988Q32.4707-19.3848 36.0352-19.3848Q42.5293-19.3848 48.3154-18.0176Q54.1016-16.6504 59.6924-14.8926Q65.2832-13.1348 71.0938-11.7676Q76.9043-10.4004 83.3496-10.4004Q87.0117-10.4004 89.7949-10.7666Q92.5781-11.1328 94.7754-11.792Q96.9727-12.4512 98.9258-13.3789Q101.709-14.6484 103.101-17.0898Q104.492-19.5312 104.492-22.998L104.492-70.2148Q104.492-73.291 102.563-75.1953Q100.635-77.0996 97.5586-77.0996Q95.0684-77.0996 91.6748-76.2939Q88.2812-75.4883 83.0078-75.4883Q76.7578-75.4883 70.9961-76.8555Q65.2344-78.2227 59.5703-80.0049Q53.9062-81.7871 48.0469-83.1299Q42.1875-84.4727 35.6934-84.4727Q32.1777-84.4727 29.4922-84.1309Q26.8066-83.7891 24.6094-83.1055Q22.4121-82.4219 20.2148-81.4453Q17.5293-80.1758 16.04-78.1738Q14.5508-76.1719 14.5508-72.8516L14.5508 8.10547Q14.5508 10.498 16.2842 12.2559Q18.0176 14.0137 20.459 14.0137Z"/>
  </g>
  <g id="Semibold-M" transform="matrix(1 0 0 1 1986.55 1126)">
   <path class="multicolor-0:systemOrangeColor SFSymbolsPreviewFF9500" d="M19.9219 13.5254Q22.0215 13.5254 23.5352 12.0361Q25.0488 10.5469 25.0488 8.44727L25.0488-17.9688Q26.0742-18.3105 28.8818-19.0186Q31.6895-19.7266 35.8887-19.7266Q42.4805-19.7266 48.2666-18.3838Q54.0527-17.041 59.5703-15.2832Q65.0879-13.5254 70.8008-12.1826Q76.5137-10.8398 82.959-10.8398Q86.6699-10.8398 89.3311-11.1572Q91.9922-11.4746 94.043-12.1094Q96.0938-12.7441 97.998-13.623Q100.684-14.8438 102.124-17.1387Q103.564-19.4336 103.564-22.8516L103.564-70.9473Q103.564-73.6328 101.807-75.2197Q100.049-76.8066 97.3145-76.8066Q95.0684-76.8066 91.6016-75.9277Q88.1348-75.0488 82.5195-75.0488Q76.1719-75.0488 70.4834-76.3916Q64.7949-77.7344 59.2529-79.5166Q53.7109-81.2988 47.876-82.6172Q42.041-83.9355 35.4492-83.9355Q31.8359-83.9355 29.2236-83.6426Q26.6113-83.3496 24.5605-82.7148Q22.5098-82.0801 20.459-81.1523Q17.8223-79.9316 16.3086-77.9053Q14.7949-75.8789 14.7949-72.5586L14.7949 8.44727Q14.7949 10.498 16.3086 12.0117Q17.8223 13.5254 19.9219 13.5254Z"/>
  </g>
  <g id="Medium-M" transform="matrix(1 0 0 1 1690.09 1126)">
   <path class="multicolor-0:systemOrangeColor SFSymbolsPreviewFF9500" d="M19.5312 13.1836Q21.3867 13.1836 22.7051 11.8652Q24.0234 10.5469 24.0234 8.69141L24.0234-18.0176Q25-18.4082 28.0518-19.2139Q31.1035-20.0195 35.8398-20.0195Q42.4805-20.0195 48.2422-18.6768Q54.0039-17.334 59.4482-15.6006Q64.8926-13.8672 70.5566-12.5Q76.2207-11.1328 82.666-11.1328Q86.4258-11.1328 88.9893-11.4502Q91.5527-11.7676 93.5059-12.3535Q95.459-12.9395 97.3145-13.8184Q99.9512-14.9902 101.416-17.1631Q102.881-19.3359 102.881-22.7539L102.881-71.4844Q102.881-73.877 101.27-75.2441Q99.6582-76.6113 97.168-76.6113Q95.0684-76.6113 91.5527-75.6592Q88.0371-74.707 82.1289-74.707Q75.7812-74.707 70.1172-76.0498Q64.4531-77.3926 58.9844-79.1748Q53.5156-80.957 47.7295-82.2754Q41.9434-83.5938 35.3027-83.5938Q31.5918-83.5938 29.0527-83.3008Q26.5137-83.0078 24.5605-82.3975Q22.6074-81.7871 20.6055-80.9082Q18.0664-79.7363 16.5527-77.71Q15.0391-75.6836 15.0391-72.3633L15.0391 8.69141Q15.0391 10.498 16.3574 11.8408Q17.6758 13.1836 19.5312 13.1836Z"/>
  </g>
  <g id="Regular-M" transform="matrix(1 0 0 1 1393.69 1126)">
   <path class="multicolor-0:systemOrangeColor SFSymbolsPreviewFF9500" d="M18.9941 12.6953Q20.5566 12.6953 21.6309 11.6211Q22.7051 10.5469 22.7051 9.0332L22.7051-18.1152Q23.6328-18.5059 26.9775-19.458Q30.3223-20.4102 35.6934-20.4102Q42.4805-20.4102 48.2178-19.0674Q53.9551-17.7246 59.3262-15.9912Q64.6973-14.2578 70.2637-12.915Q75.8301-11.5723 82.2754-11.5723Q86.084-11.5723 88.5254-11.8408Q90.9668-12.1094 92.7734-12.6709Q94.5801-13.2324 96.4355-14.0625Q98.9746-15.1855 100.488-17.2119Q102.002-19.2383 102.002-22.6074L102.002-72.168Q102.002-74.1699 100.537-75.2441Q99.0723-76.3184 96.9238-76.3184Q95.1172-76.3184 91.5283-75.293Q87.9395-74.2676 81.6406-74.2676Q75.1953-74.2676 69.6289-75.6104Q64.0625-76.9531 58.6914-78.7109Q53.3203-80.4688 47.583-81.7871Q41.8457-83.1055 35.0586-83.1055Q31.25-83.1055 28.7842-82.8369Q26.3184-82.5684 24.5117-82.0068Q22.7051-81.4453 20.8496-80.6152Q18.3594-79.4922 16.8213-77.4658Q15.2832-75.4395 15.2832-72.1191L15.2832 9.0332Q15.2832 10.498 16.3818 11.5967Q17.4805 12.6953 18.9941 12.6953Z"/>
  </g>
  <g id="Light-M" transform="matrix(1 0 0 1 1098.27 1126)">
   <path class="multicolor-0:systemOrangeColor SFSymbolsPreviewFF9500" d="M18.6035 11.4746Q19.8242 11.4746 20.6543 10.6445Q21.4844 9.81445 21.4844 8.59375L21.4844-19.873Q22.5586-20.1172 25.9766-21.1426Q29.3945-22.168 35.1074-22.168Q41.748-22.168 47.3633-20.8252Q52.9785-19.4824 58.2275-17.7734Q63.4766-16.0645 68.9697-14.7217Q74.4629-13.3789 80.8594-13.3789Q84.4727-13.3789 86.8896-13.6719Q89.3066-13.9648 91.0889-14.502Q92.8711-15.0391 94.5801-15.8203Q96.875-16.7969 98.2666-18.5303Q99.6582-20.2637 99.6582-23.0469L99.6582-71.582Q99.6582-73.3398 98.4619-74.2676Q97.2656-75.1953 95.5078-75.1953Q93.75-75.1953 90.1611-74.1211Q86.5723-73.0469 80.2734-73.0469Q73.8281-73.0469 68.335-74.3652Q62.8418-75.6836 57.5928-77.4414Q52.3438-79.1992 46.7529-80.4932Q41.1621-81.7871 34.5215-81.7871Q30.9082-81.7871 28.4912-81.5186Q26.0742-81.25 24.292-80.7129Q22.5098-80.1758 20.752-79.3945Q18.5059-78.3691 17.1143-76.6357Q15.7227-74.9023 15.7227-72.2168L15.7227 8.59375Q15.7227 9.76562 16.5771 10.6201Q17.4316 11.4746 18.6035 11.4746Z"/>
  </g>
  <g id="Thin-M" transform="matrix(1 0 0 1 803.273 1126)">
   <path class="multicolor-0:systemOrangeColor SFSymbolsPreviewFF9500" d="M18.0664 9.81445Q18.7988 9.81445 19.3359 9.30176Q19.873 8.78906 19.873 8.00781L19.873-22.168Q21.1914-22.2168 24.6826-23.3398Q28.1738-24.4629 34.3262-24.4629Q40.8203-24.4629 46.2402-23.1445Q51.6602-21.8262 56.7627-20.1172Q61.8652-18.4082 67.2363-17.0898Q72.6074-15.7715 79.0527-15.7715Q82.373-15.7715 84.7168-16.0645Q87.0605-16.3574 88.8184-16.8701Q90.5762-17.3828 92.1387-18.1152Q94.1406-18.9941 95.3369-20.3125Q96.5332-21.6309 96.5332-23.584L96.5332-70.8496Q96.5332-72.2656 95.7031-72.9736Q94.873-73.6816 93.6035-73.6816Q91.9434-73.6816 88.3789-72.5586Q84.8145-71.4355 78.418-71.4355Q72.0215-71.4355 66.626-72.7295Q61.2305-74.0234 56.1523-75.7568Q51.0742-77.4902 45.6543-78.7842Q40.2344-80.0781 33.7402-80.0781Q30.4199-80.0781 28.0762-79.7852Q25.7324-79.4922 23.9746-79.0039Q22.2168-78.5156 20.6543-77.7832Q18.6523-76.9043 17.4561-75.5859Q16.2598-74.2676 16.2598-72.3145L16.2598 8.00781Q16.2598 8.74023 16.7969 9.27734Q17.334 9.81445 18.0664 9.81445Z"/>
  </g>
  <g id="Ultralight-M" transform="matrix(1 0 0 1 507.441 1126)">
   <path class="multicolor-0:systemOrangeColor SFSymbolsPreviewFF9500" d="M17.8223 8.98438Q18.3105 8.98438 18.6768 8.64258Q19.043 8.30078 19.043 7.71484L19.043-23.3398Q20.459-23.3398 23.999-24.4873Q27.5391-25.6348 33.9355-25.6348Q40.332-25.6348 45.6787-24.3408Q51.0254-23.0469 56.0303-21.3379Q61.0352-19.6289 66.3574-18.335Q71.6797-17.041 78.0762-17.041Q81.25-17.041 83.5938-17.334Q85.9375-17.627 87.6709-18.1152Q89.4043-18.6035 90.918-19.2871Q92.7246-20.0684 93.8232-21.1914Q94.9219-22.3145 94.9219-23.877L94.9219-70.459Q94.9219-71.7285 94.2871-72.3145Q93.6523-72.9004 92.627-72.9004Q91.0156-72.9004 87.4512-71.7529Q83.8867-70.6055 77.4902-70.6055Q71.0938-70.6055 65.7715-71.8994Q60.4492-73.1934 55.4199-74.9023Q50.3906-76.6113 45.0684-77.9053Q39.7461-79.1992 33.3984-79.1992Q30.1758-79.1992 27.8564-78.9062Q25.5371-78.6133 23.8037-78.125Q22.0703-77.6367 20.5566-76.9531Q18.75-76.123 17.6514-75Q16.5527-73.877 16.5527-72.3633L16.5527 7.71484Q16.5527 8.25195 16.9189 8.61816Q17.2852 8.98438 17.8223 8.98438Z"/>
  </g>
  <g id="Black-S" transform="matrix(1 0 0 1 2887.99 696)">
   <path class="multicolor-0:systemOrangeColor SFSymbolsPreviewFF9500" d="M17.334 4.44336Q20.0684 4.44336 22.0215 2.51465Q23.9746 0.585938 23.9746-2.19727L23.9746-21.5332Q25.0488-21.7285 26.1963-21.8262Q27.3438-21.9238 28.5156-21.9238Q33.3008-21.9238 37.8662-20.8496Q42.4316-19.7754 47.0215-18.3594Q51.6113-16.9434 56.3721-15.8691Q61.1328-14.7949 66.2109-14.7949Q70.3125-14.7949 73.8037-15.5762Q77.2949-16.3574 79.6875-17.5293Q82.0801-18.7012 83.0322-20.9717Q83.9844-23.2422 83.9844-26.0254L83.9844-60.791Q83.9844-64.209 82.0801-66.4307Q80.1758-68.6523 76.9531-68.6523Q74.3164-68.6523 71.8506-68.2373Q69.3848-67.8223 66.2109-67.8223Q61.4746-67.8223 56.7871-68.8965Q52.0996-69.9707 47.4121-71.3867Q42.7246-72.8027 38.0127-73.877Q33.3008-74.9512 28.5156-74.9512Q24.8047-74.9512 21.5088-74.2432Q18.2129-73.5352 15.2344-72.1191Q12.9395-71.0449 11.8408-69.4824Q10.7422-67.9199 10.7422-65.332L10.7422-2.19727Q10.7422 0.537109 12.6953 2.49023Q14.6484 4.44336 17.334 4.44336Z"/>
  </g>
  <g id="Heavy-S" transform="matrix(1 0 0 1 2591.47 696)">
   <path class="multicolor-0:systemOrangeColor SFSymbolsPreviewFF9500" d="M16.7969 4.10156Q19.2383 4.10156 20.9473 2.39258Q22.6562 0.683594 22.6562-1.75781L22.6562-21.3867Q23.6328-21.6309 25.1221-21.875Q26.6113-22.1191 28.4668-22.1191Q33.3496-22.1191 37.915-21.0449Q42.4805-19.9707 46.9971-18.5791Q51.5137-17.1875 56.2012-16.1133Q60.8887-15.0391 65.9668-15.0391Q70.166-15.0391 73.3643-15.7471Q76.5625-16.4551 78.9062-17.5781Q81.25-18.7012 82.2754-20.8496Q83.3008-22.998 83.3008-25.8301L83.3008-61.6699Q83.3008-64.6484 81.543-66.5771Q79.7852-68.5059 76.8555-68.5059Q74.5117-68.5059 71.9727-67.9932Q69.4336-67.4805 65.8203-67.4805Q61.0352-67.4805 56.4209-68.5547Q51.8066-69.6289 47.2168-71.0449Q42.627-72.4609 37.9395-73.5107Q33.252-74.5605 28.3203-74.5605Q24.4141-74.5605 21.3623-73.9258Q18.3105-73.291 15.5273-71.9238Q13.2812-70.8984 12.1338-69.3115Q10.9863-67.7246 10.9863-65.0391L10.9863-1.75781Q10.9863 0.634766 12.7197 2.36816Q14.4531 4.10156 16.7969 4.10156Z"/>
  </g>
  <g id="Bold-S" transform="matrix(1 0 0 1 2294.96 696)">
   <path class="multicolor-0:systemOrangeColor SFSymbolsPreviewFF9500" d="M16.2109 3.71094Q18.2617 3.71094 19.7266 2.27051Q21.1914 0.830078 21.1914-1.26953L21.1914-21.2891Q22.0215-21.5332 23.9014-21.9482Q25.7812-22.3633 28.3691-22.3633Q33.4473-22.3633 38.0127-21.2891Q42.5781-20.2148 47.0215-18.8232Q51.4648-17.4316 56.0303-16.3818Q60.5957-15.332 65.6738-15.332Q70.0684-15.332 72.9004-15.9668Q75.7324-16.6016 78.0762-17.6758Q80.3223-18.75 81.4209-20.752Q82.5195-22.7539 82.5195-25.5859L82.5195-62.6465Q82.5195-65.1855 80.9326-66.748Q79.3457-68.3105 76.8066-68.3105Q74.7559-68.3105 72.1191-67.7246Q69.4824-67.1387 65.4297-67.1387Q60.5469-67.1387 56.0059-68.1885Q51.4648-69.2383 46.9727-70.6543Q42.4805-72.0703 37.8418-73.1201Q33.2031-74.1699 28.125-74.1699Q23.9746-74.1699 21.2158-73.584Q18.457-72.998 15.8203-71.7773Q13.623-70.752 12.4512-69.1162Q11.2793-67.4805 11.2793-64.6973L11.2793-1.26953Q11.2793 0.78125 12.7441 2.24609Q14.209 3.71094 16.2109 3.71094Z"/>
  </g>
  <g id="Semibold-S" transform="matrix(1 0 0 1 1998.39 696)">
   <path class="multicolor-0:systemOrangeColor SFSymbolsPreviewFF9500" d="M15.8203 3.41797Q17.627 3.41797 18.8965 2.14844Q20.166 0.878906 20.166-0.927734L20.166-21.1426Q20.8984-21.4844 23.0469-21.9971Q25.1953-22.5098 28.3203-22.5098Q33.4961-22.5098 38.0615-21.4355Q42.627-20.3613 46.9971-18.9941Q51.3672-17.627 55.8838-16.5527Q60.4004-15.4785 65.4785-15.4785Q69.9219-15.4785 72.5342-16.0645Q75.1465-16.6504 77.4902-17.7246Q79.6875-18.75 80.835-20.6543Q81.9824-22.5586 81.9824-25.3906L81.9824-63.2812Q81.9824-65.5273 80.4932-66.8457Q79.0039-68.1641 76.709-68.1641Q74.9023-68.1641 72.1924-67.5049Q69.4824-66.8457 65.1367-66.8457Q60.1562-66.8457 55.6885-67.9199Q51.2207-68.9941 46.8018-70.3857Q42.3828-71.7773 37.7686-72.8271Q33.1543-73.877 27.9785-73.877Q23.6328-73.877 21.0693-73.3154Q18.5059-72.7539 16.0156-71.6309Q13.8672-70.6543 12.6465-68.9697Q11.4258-67.2852 11.4258-64.4531L11.4258-0.927734Q11.4258 0.830078 12.7197 2.12402Q14.0137 3.41797 15.8203 3.41797Z"/>
  </g>
  <g id="Medium-S" transform="matrix(1 0 0 1 1701.78 696)">
   <path class="multicolor-0:systemOrangeColor SFSymbolsPreviewFF9500" d="M15.4785 3.22266Q17.0898 3.22266 18.2373 2.0752Q19.3848 0.927734 19.3848-0.683594L19.3848-21.0938Q20.0684-21.3867 22.4121-22.0215Q24.7559-22.6562 28.2715-22.6562Q33.5449-22.6562 38.1104-21.582Q42.6758-20.5078 46.9971-19.1162Q51.3184-17.7246 55.7861-16.6748Q60.2539-15.625 65.332-15.625Q69.873-15.625 72.3145-16.1621Q74.7559-16.6992 77.0508-17.7734Q79.1992-18.75 80.3955-20.5811Q81.5918-22.4121 81.5918-25.2441L81.5918-63.8184Q81.5918-65.7715 80.1758-66.9434Q78.7598-68.1152 76.6602-68.1152Q75.0488-68.1152 72.2656-67.3828Q69.4824-66.6504 64.9414-66.6504Q59.9121-66.6504 55.4688-67.7002Q51.0254-68.75 46.6797-70.166Q42.334-71.582 37.7441-72.6318Q33.1543-73.6816 27.8809-73.6816Q23.3887-73.6816 20.9717-73.1445Q18.5547-72.6074 16.2109-71.5332Q14.0625-70.5566 12.8174-68.8477Q11.5723-67.1387 11.5723-64.3066L11.5723-0.683594Q11.5723 0.878906 12.7197 2.05078Q13.8672 3.22266 15.4785 3.22266Z"/>
  </g>
  <g id="Regular-S" transform="matrix(1 0 0 1 1405.22 696)">
   <path class="multicolor-0:systemOrangeColor SFSymbolsPreviewFF9500" d="M15.0879 2.92969Q16.4551 2.92969 17.4072 1.97754Q18.3594 1.02539 18.3594-0.341797L18.3594-20.9961Q18.9941-21.3379 21.582-22.0703Q24.1699-22.8027 28.2227-22.8027Q33.5938-22.8027 38.1592-21.7285Q42.7246-20.6543 46.9971-19.2871Q51.2695-17.9199 55.6641-16.8701Q60.0586-15.8203 65.1367-15.8203Q69.7754-15.8203 71.9727-16.3086Q74.1699-16.7969 76.4648-17.8223Q78.5645-18.75 79.8096-20.4834Q81.0547-22.2168 81.0547-25.0977L81.0547-64.4531Q81.0547-66.1133 79.7607-67.041Q78.4668-67.9688 76.6113-67.9688Q75.1953-67.9688 72.3633-67.1875Q69.5312-66.4062 64.6484-66.4062Q59.5703-66.4062 55.1758-67.4561Q50.7812-68.5059 46.5088-69.8975Q42.2363-71.2891 37.6709-72.3389Q33.1055-73.3887 27.7344-73.3887Q23.0957-73.3887 20.874-72.9004Q18.6523-72.4121 16.4062-71.3867Q14.3066-70.459 13.0371-68.7256Q11.7676-66.9922 11.7676-64.0625L11.7676-0.341797Q11.7676 0.976562 12.7441 1.95312Q13.7207 2.92969 15.0879 2.92969Z"/>
  </g>
  <g id="Light-S" transform="matrix(1 0 0 1 1109.65 696)">
   <path class="multicolor-0:systemOrangeColor SFSymbolsPreviewFF9500" d="M14.7461 1.80664Q15.7715 1.80664 16.5283 1.07422Q17.2852 0.341797 17.2852-0.732422L17.2852-22.5098Q18.0664-22.7539 20.7275-23.5352Q23.3887-24.3164 27.6855-24.3164Q32.959-24.3164 37.4023-23.2666Q41.8457-22.2168 46.0205-20.874Q50.1953-19.5312 54.5166-18.4814Q58.8379-17.4316 63.916-17.4316Q68.2617-17.4316 70.4834-17.9199Q72.7051-18.4082 74.8535-19.3359Q76.709-20.2148 77.832-21.6797Q78.9551-23.1445 78.9551-25.4883L78.9551-63.916Q78.9551-65.3809 77.9053-66.1865Q76.8555-66.9922 75.3418-66.9922Q73.9746-66.9922 71.167-66.1621Q68.3594-65.332 63.4277-65.332Q58.3984-65.332 54.0527-66.3574Q49.707-67.3828 45.5322-68.7744Q41.3574-70.166 36.9141-71.1914Q32.4707-72.2168 27.2461-72.2168Q22.8516-72.2168 20.6299-71.7285Q18.4082-71.2402 16.3086-70.3125Q14.4043-69.4824 13.2812-68.0176Q12.1582-66.5527 12.1582-64.1602L12.1582-0.732422Q12.1582 0.292969 12.915 1.0498Q13.6719 1.80664 14.7461 1.80664Z"/>
  </g>
  <g id="Thin-S" transform="matrix(1 0 0 1 814.454 696)">
   <path class="multicolor-0:systemOrangeColor SFSymbolsPreviewFF9500" d="M14.2578 0.341797Q14.8926 0.341797 15.3564-0.0976562Q15.8203-0.537109 15.8203-1.26953L15.8203-24.5605Q16.8457-24.6582 19.5801-25.5127Q22.3145-26.3672 27.0508-26.3672Q32.1289-26.3672 36.4258-25.3418Q40.7227-24.3164 44.751-22.9736Q48.7793-21.6309 53.0029-20.5811Q57.2266-19.5312 62.2559-19.5312Q66.2598-19.5312 68.5059-20.0195Q70.752-20.5078 72.6562-21.3867Q74.2676-22.1191 75.2441-23.2178Q76.2207-24.3164 76.2207-26.0254L76.2207-63.2812Q76.2207-64.4531 75.4883-65.0391Q74.7559-65.625 73.6816-65.625Q72.3633-65.625 69.5557-64.7461Q66.748-63.8672 61.8164-63.8672Q56.7871-63.8672 52.5391-64.8926Q48.291-65.918 44.2627-67.2852Q40.2344-68.6523 35.9375-69.6777Q31.6406-70.7031 26.5625-70.7031Q22.5586-70.7031 20.3125-70.2148Q18.0664-69.7266 16.2109-68.8477Q14.5996-68.1152 13.623-67.0166Q12.6465-65.918 12.6465-64.2578L12.6465-1.26953Q12.6465-0.585938 13.1348-0.12207Q13.623 0.341797 14.2578 0.341797Z"/>
  </g>
  <g id="Ultralight-S" transform="matrix(1 0 0 1 518.5 696)">
   <path class="multicolor-0:systemOrangeColor SFSymbolsPreviewFF9500" d="M14.0137-0.390625Q14.4531-0.390625 14.7705-0.708008Q15.0879-1.02539 15.0879-1.51367L15.0879-25.5859Q16.2109-25.5859 18.9941-26.4893Q21.7773-27.3926 26.6602-27.3926Q31.7383-27.3926 35.9375-26.3916Q40.1367-25.3906 44.0918-24.0479Q48.0469-22.7051 52.2461-21.6797Q56.4453-20.6543 61.4258-20.6543Q65.2344-20.6543 67.5049-21.1426Q69.7754-21.6309 71.582-22.4121Q73.0469-23.0957 73.9258-24.0234Q74.8047-24.9512 74.8047-26.2695L74.8047-62.8906Q74.8047-63.9648 74.2432-64.4775Q73.6816-64.9902 72.8027-64.9902Q71.582-64.9902 68.7744-64.0625Q65.9668-63.1348 60.9863-63.1348Q56.0059-63.1348 51.7822-64.1602Q47.5586-65.1855 43.6035-66.5283Q39.6484-67.8711 35.4492-68.8721Q31.25-69.873 26.2207-69.873Q22.4121-69.873 20.166-69.4092Q17.9199-68.9453 16.1133-68.1152Q14.6484-67.4805 13.7695-66.5527Q12.8906-65.625 12.8906-64.3066L12.8906-1.51367Q12.8906-1.07422 13.2324-0.732422Q13.5742-0.390625 14.0137-0.390625Z"/>
  </g>
 </g>
</svg>
