<?xml version="1.0" encoding="UTF-8"?>
<!--Generator: Apple Native CoreSVG 175-->
<!DOCTYPE svg
PUBLIC "-//W3C//DTD SVG 1.1//EN"
       "http://www.w3.org/Graphics/SVG/1.1/DTD/svg11.dtd">
<svg version="1.1" xmlns="http://www.w3.org/2000/svg" xmlns:xlink="http://www.w3.org/1999/xlink" width="3300" height="2200">
 <!--glyph: "uni100E19.medium", point size: 100.0, font version: "17.0d11e1", template writer version: "65.1"-->
 <g id="Notes">
  <rect height="2200" id="artboard" style="fill:white;opacity:1" width="3300" x="0" y="0"/>
  <line style="fill:none;stroke:black;opacity:1;stroke-width:0.5;" x1="263" x2="3036" y1="292" y2="292"/>
  <text style="stroke:none;fill:black;font-family:sans-serif;font-size:13;font-weight:bold;" transform="matrix(1 0 0 1 263 322)">Weight/Scale Variations</text>
  <text style="stroke:none;fill:black;font-family:sans-serif;font-size:13;text-anchor:middle;" transform="matrix(1 0 0 1 559.711 322)">Ultralight</text>
  <text style="stroke:none;fill:black;font-family:sans-serif;font-size:13;text-anchor:middle;" transform="matrix(1 0 0 1 856.422 322)">Thin</text>
  <text style="stroke:none;fill:black;font-family:sans-serif;font-size:13;text-anchor:middle;" transform="matrix(1 0 0 1 1153.13 322)">Light</text>
  <text style="stroke:none;fill:black;font-family:sans-serif;font-size:13;text-anchor:middle;" transform="matrix(1 0 0 1 1449.84 322)">Regular</text>
  <text style="stroke:none;fill:black;font-family:sans-serif;font-size:13;text-anchor:middle;" transform="matrix(1 0 0 1 1746.56 322)">Medium</text>
  <text style="stroke:none;fill:black;font-family:sans-serif;font-size:13;text-anchor:middle;" transform="matrix(1 0 0 1 2043.27 322)">Semibold</text>
  <text style="stroke:none;fill:black;font-family:sans-serif;font-size:13;text-anchor:middle;" transform="matrix(1 0 0 1 2339.98 322)">Bold</text>
  <text style="stroke:none;fill:black;font-family:sans-serif;font-size:13;text-anchor:middle;" transform="matrix(1 0 0 1 2636.69 322)">Heavy</text>
  <text style="stroke:none;fill:black;font-family:sans-serif;font-size:13;text-anchor:middle;" transform="matrix(1 0 0 1 2933.4 322)">Black</text>
  <line style="fill:none;stroke:black;opacity:1;stroke-width:0.5;" x1="263" x2="3036" y1="1903" y2="1903"/>
  <g transform="matrix(1 0 0 1 263 1933)">
   <path d="M9.24805 0.830078Q10.8691 0.830078 12.2949 0.214844Q13.7207-0.400391 14.8096-1.49414Q15.8984-2.58789 16.5186-4.01367Q17.1387-5.43945 17.1387-7.05078Q17.1387-8.66211 16.5186-10.0879Q15.8984-11.5137 14.8047-12.6074Q13.7109-13.7012 12.2852-14.3164Q10.8594-14.9316 9.23828-14.9316Q7.62695-14.9316 6.20117-14.3164Q4.77539-13.7012 3.69141-12.6074Q2.60742-11.5137 1.9873-10.0879Q1.36719-8.66211 1.36719-7.05078Q1.36719-5.43945 1.9873-4.01367Q2.60742-2.58789 3.69629-1.49414Q4.78516-0.400391 6.21094 0.214844Q7.63672 0.830078 9.24805 0.830078ZM9.24805-0.654297Q7.91992-0.654297 6.7627-1.14746Q5.60547-1.64062 4.73145-2.51953Q3.85742-3.39844 3.36426-4.56055Q2.87109-5.72266 2.87109-7.05078Q2.87109-8.37891 3.35938-9.54102Q3.84766-10.7031 4.72168-11.582Q5.5957-12.4609 6.75293-12.9541Q7.91016-13.4473 9.23828-13.4473Q10.5762-13.4473 11.7334-12.9541Q12.8906-12.4609 13.7695-11.582Q14.6484-10.7031 15.1465-9.54102Q15.6445-8.37891 15.6445-7.05078Q15.6445-5.72266 15.1514-4.56055Q14.6582-3.39844 13.7842-2.51953Q12.9102-1.64062 11.748-1.14746Q10.5859-0.654297 9.24805-0.654297ZM5.6543-7.05078Q5.6543-6.72852 5.85938-6.52832Q6.06445-6.32812 6.40625-6.32812L8.51562-6.32812L8.51562-4.20898Q8.51562-3.88672 8.71094-3.67676Q8.90625-3.4668 9.23828-3.4668Q9.56055-3.4668 9.77051-3.67676Q9.98047-3.88672 9.98047-4.20898L9.98047-6.32812L12.0898-6.32812Q12.4219-6.32812 12.627-6.52832Q12.832-6.72852 12.832-7.05078Q12.832-7.38281 12.627-7.58789Q12.4219-7.79297 12.0898-7.79297L9.98047-7.79297L9.98047-9.90234Q9.98047-10.2344 9.77051-10.4443Q9.56055-10.6543 9.23828-10.6543Q8.90625-10.6543 8.71094-10.4443Q8.51562-10.2344 8.51562-9.90234L8.51562-7.79297L6.40625-7.79297Q6.06445-7.79297 5.85938-7.58789Q5.6543-7.38281 5.6543-7.05078Z"/>
  </g>
  <g transform="matrix(1 0 0 1 281.867 1933)">
   <path d="M11.709 2.91016Q13.75 2.91016 15.5518 2.12891Q17.3535 1.34766 18.7305-0.0292969Q20.1074-1.40625 20.8887-3.20801Q21.6699-5.00977 21.6699-7.05078Q21.6699-9.0918 20.8887-10.8936Q20.1074-12.6953 18.7305-14.0723Q17.3535-15.4492 15.5469-16.2305Q13.7402-17.0117 11.6992-17.0117Q9.6582-17.0117 7.85645-16.2305Q6.05469-15.4492 4.68262-14.0723Q3.31055-12.6953 2.5293-10.8936Q1.74805-9.0918 1.74805-7.05078Q1.74805-5.00977 2.5293-3.20801Q3.31055-1.40625 4.6875-0.0292969Q6.06445 1.34766 7.86621 2.12891Q9.66797 2.91016 11.709 2.91016ZM11.709 1.25Q9.98047 1.25 8.47656 0.605469Q6.97266-0.0390625 5.83496-1.17676Q4.69727-2.31445 4.05762-3.81836Q3.41797-5.32227 3.41797-7.05078Q3.41797-8.7793 4.05762-10.2832Q4.69727-11.7871 5.83008-12.9297Q6.96289-14.0723 8.4668-14.7119Q9.9707-15.3516 11.6992-15.3516Q13.4277-15.3516 14.9316-14.7119Q16.4355-14.0723 17.5781-12.9297Q18.7207-11.7871 19.3652-10.2832Q20.0098-8.7793 20.0098-7.05078Q20.0098-5.32227 19.3701-3.81836Q18.7305-2.31445 17.5928-1.17676Q16.4551-0.0390625 14.9463 0.605469Q13.4375 1.25 11.709 1.25ZM7.17773-7.05078Q7.17773-6.69922 7.41211-6.47461Q7.64648-6.25 8.01758-6.25L10.8887-6.25L10.8887-3.36914Q10.8887-2.99805 11.1133-2.76855Q11.3379-2.53906 11.6895-2.53906Q12.0605-2.53906 12.29-2.76855Q12.5195-2.99805 12.5195-3.36914L12.5195-6.25L15.4004-6.25Q15.7715-6.25 16.001-6.47461Q16.2305-6.69922 16.2305-7.05078Q16.2305-7.42188 16.001-7.65137Q15.7715-7.88086 15.4004-7.88086L12.5195-7.88086L12.5195-10.752Q12.5195-11.1328 12.29-11.3623Q12.0605-11.5918 11.6895-11.5918Q11.3379-11.5918 11.1133-11.3574Q10.8887-11.123 10.8887-10.752L10.8887-7.88086L8.01758-7.88086Q7.63672-7.88086 7.40723-7.65137Q7.17773-7.42188 7.17773-7.05078Z"/>
  </g>
  <g transform="matrix(1 0 0 1 305.646 1933)">
   <path d="M14.9707 5.66406Q17.0605 5.66406 18.96 5.01465Q20.8594 4.36523 22.4512 3.19336Q24.043 2.02148 25.2197 0.429688Q26.3965-1.16211 27.0459-3.06641Q27.6953-4.9707 27.6953-7.05078Q27.6953-9.14062 27.0459-11.04Q26.3965-12.9395 25.2197-14.5312Q24.043-16.123 22.4512-17.2998Q20.8594-18.4766 18.9551-19.126Q17.0508-19.7754 14.9609-19.7754Q12.8711-19.7754 10.9717-19.126Q9.07227-18.4766 7.48535-17.2998Q5.89844-16.123 4.72168-14.5312Q3.54492-12.9395 2.90039-11.04Q2.25586-9.14062 2.25586-7.05078Q2.25586-4.9707 2.90527-3.06641Q3.55469-1.16211 4.72656 0.429688Q5.89844 2.02148 7.49023 3.19336Q9.08203 4.36523 10.9814 5.01465Q12.8809 5.66406 14.9707 5.66406ZM14.9707 3.84766Q13.1641 3.84766 11.5283 3.2959Q9.89258 2.74414 8.53516 1.74805Q7.17773 0.751953 6.17676-0.610352Q5.17578-1.97266 4.62891-3.6084Q4.08203-5.24414 4.08203-7.05078Q4.08203-8.86719 4.62891-10.5029Q5.17578-12.1387 6.17188-13.501Q7.16797-14.8633 8.52539-15.8594Q9.88281-16.8555 11.5186-17.4023Q13.1543-17.9492 14.9609-17.9492Q16.7773-17.9492 18.4131-17.4023Q20.0488-16.8555 21.4111-15.8594Q22.7734-14.8633 23.7695-13.501Q24.7656-12.1387 25.3174-10.5029Q25.8691-8.86719 25.8691-7.05078Q25.8789-5.24414 25.332-3.6084Q24.7852-1.97266 23.7842-0.610352Q22.7832 0.751953 21.4209 1.74805Q20.0586 2.74414 18.4229 3.2959Q16.7871 3.84766 14.9707 3.84766ZM9.19922-7.05078Q9.19922-6.66992 9.45801-6.4209Q9.7168-6.17188 10.1172-6.17188L14.0625-6.17188L14.0625-2.2168Q14.0625-1.81641 14.3115-1.55762Q14.5605-1.29883 14.9512-1.29883Q15.3516-1.29883 15.6104-1.55273Q15.8691-1.80664 15.8691-2.2168L15.8691-6.17188L19.8242-6.17188Q20.2246-6.17188 20.4785-6.4209Q20.7324-6.66992 20.7324-7.05078Q20.7324-7.46094 20.4785-7.71484Q20.2246-7.96875 19.8242-7.96875L15.8691-7.96875L15.8691-11.9141Q15.8691-12.3242 15.6104-12.583Q15.3516-12.8418 14.9512-12.8418Q14.5605-12.8418 14.3115-12.583Q14.0625-12.3242 14.0625-11.9141L14.0625-7.96875L10.1172-7.96875Q9.70703-7.96875 9.45312-7.71484Q9.19922-7.46094 9.19922-7.05078Z"/>
  </g>
  <text style="stroke:none;fill:black;font-family:sans-serif;font-size:13;font-weight:bold;" transform="matrix(1 0 0 1 263 1953)">Design Variations</text>
  <text style="stroke:none;fill:black;font-family:sans-serif;font-size:13;" transform="matrix(1 0 0 1 263 1971)">Symbols are supported in up to nine weights and three scales.</text>
  <text style="stroke:none;fill:black;font-family:sans-serif;font-size:13;" transform="matrix(1 0 0 1 263 1989)">For optimal layout with text and other symbols, vertically align</text>
  <text style="stroke:none;fill:black;font-family:sans-serif;font-size:13;" transform="matrix(1 0 0 1 263 2007)">symbols with the adjacent text.</text>
  <line style="fill:none;stroke:#00AEEF;stroke-width:0.5;opacity:1.0;" x1="776" x2="776" y1="1919" y2="1933"/>
  <g transform="matrix(1 0 0 1 776 1933)">
   <path d="M3.31055 0.15625Q3.70117 0.15625 3.91602-0.00976562Q4.13086-0.175781 4.26758-0.585938L5.52734-4.0332L11.2891-4.0332L12.5488-0.585938Q12.6855-0.175781 12.9004-0.00976562Q13.1152 0.15625 13.4961 0.15625Q13.8867 0.15625 14.1162-0.0585938Q14.3457-0.273438 14.3457-0.644531Q14.3457-0.869141 14.2383-1.17188L9.6582-13.3691Q9.48242-13.8184 9.17969-14.043Q8.87695-14.2676 8.4082-14.2676Q7.5-14.2676 7.17773-13.3789L2.59766-1.16211Q2.49023-0.859375 2.49023-0.634766Q2.49023-0.263672 2.70996-0.0537109Q2.92969 0.15625 3.31055 0.15625ZM6.00586-5.51758L8.37891-12.0898L8.42773-12.0898L10.8008-5.51758Z"/>
  </g>
  <line style="fill:none;stroke:#00AEEF;stroke-width:0.5;opacity:1.0;" x1="793.197" x2="793.197" y1="1919" y2="1933"/>
  <text style="stroke:none;fill:black;font-family:sans-serif;font-size:13;font-weight:bold;" transform="matrix(1 0 0 1 776 1953)">Margins</text>
  <text style="stroke:none;fill:black;font-family:sans-serif;font-size:13;" transform="matrix(1 0 0 1 776 1971)">Leading and trailing margins on the left and right side of each symbol</text>
  <text style="stroke:none;fill:black;font-family:sans-serif;font-size:13;" transform="matrix(1 0 0 1 776 1989)">can be adjusted by modifying the x-location of the margin guidelines.</text>
  <text style="stroke:none;fill:black;font-family:sans-serif;font-size:13;" transform="matrix(1 0 0 1 776 2007)">Modifications are automatically applied proportionally to all</text>
  <text style="stroke:none;fill:black;font-family:sans-serif;font-size:13;" transform="matrix(1 0 0 1 776 2025)">scales and weights.</text>
  <g transform="matrix(1 0 0 1 1289 1933)">
   <path d="M2.8418 1.86523L4.54102 3.57422Q5.18555 4.22852 5.90332 4.17969Q6.62109 4.13086 7.31445 3.35938L18.0078-8.42773L17.041-9.4043L6.42578 2.27539Q6.16211 2.57812 5.89355 2.61719Q5.625 2.65625 5.27344 2.30469L4.10156 1.14258Q3.75 0.791016 3.79395 0.522461Q3.83789 0.253906 4.14062-0.0195312L15.6152-10.8203L14.6387-11.7871L3.04688-0.898438Q2.30469-0.214844 2.25098 0.498047Q2.19727 1.21094 2.8418 1.86523ZM9.25781-16.3281Q8.94531-16.0254 8.90625-15.6348Q8.86719-15.2441 9.04297-14.9512Q9.21875-14.6777 9.55566-14.541Q9.89258-14.4043 10.3809-14.5215Q11.4746-14.7754 12.5977-14.7314Q13.7207-14.6875 14.7949-13.9844L14.209-12.5293Q13.9551-11.9043 14.0674-11.4404Q14.1797-10.9766 14.5801-10.5664L16.875-8.25195Q17.2363-7.88086 17.5781-7.82227Q17.9199-7.76367 18.3398-7.8418L19.4043-8.03711L20.0684-7.36328L20.0293-6.80664Q20-6.43555 20.1221-6.12305Q20.2441-5.81055 20.6055-5.44922L21.3672-4.70703Q21.7285-4.3457 22.1533-4.33105Q22.5781-4.31641 22.9297-4.66797L25.8398-7.58789Q26.1914-7.93945 26.1816-8.35449Q26.1719-8.76953 25.8105-9.13086L25.0391-9.89258Q24.6875-10.2539 24.3799-10.3857Q24.0723-10.5176 23.7109-10.4883L23.1348-10.4395L22.4902-11.0742L22.7344-12.1973Q22.832-12.6172 22.6953-12.9834Q22.5586-13.3496 22.1191-13.7891L19.9219-15.9766Q18.6719-17.2168 17.2607-17.8369Q15.8496-18.457 14.4189-18.4814Q12.9883-18.5059 11.665-17.959Q10.3418-17.4121 9.25781-16.3281ZM10.752-15.957Q11.6602-16.6211 12.7002-16.9043Q13.7402-17.1875 14.8047-17.085Q15.8691-16.9824 16.8701-16.5137Q17.8711-16.0449 18.7012-15.2051L21.1328-12.793Q21.3086-12.6172 21.3525-12.4512Q21.3965-12.2852 21.3379-12.0312L21.0156-10.5469L22.5195-9.0625L23.5059-9.12109Q23.6914-9.13086 23.7891-9.09668Q23.8867-9.0625 24.0332-8.91602L24.6094-8.33984L22.168-5.89844L21.5918-6.47461Q21.4453-6.62109 21.4062-6.71875Q21.3672-6.81641 21.377-7.01172L21.4453-7.98828L19.9512-9.47266L18.4277-9.21875Q18.1836-9.16992 18.042-9.2041Q17.9004-9.23828 17.7148-9.41406L15.7129-11.416Q15.5176-11.5918 15.4932-11.7529Q15.4688-11.9141 15.5859-12.1875L16.4648-14.2773Q15.293-15.3711 13.8281-15.791Q12.3633-16.2109 10.8398-15.7617Q10.7227-15.7324 10.6885-15.8057Q10.6543-15.8789 10.752-15.957Z"/>
  </g>
  <text style="stroke:none;fill:black;font-family:sans-serif;font-size:13;font-weight:bold;" transform="matrix(1 0 0 1 1289 1953)">Exporting</text>
  <text style="stroke:none;fill:black;font-family:sans-serif;font-size:13;" transform="matrix(1 0 0 1 1289 1971)">Symbols should be outlined when exporting to ensure the</text>
  <text style="stroke:none;fill:black;font-family:sans-serif;font-size:13;" transform="matrix(1 0 0 1 1289 1989)">design is preserved when submitting to Xcode.</text>
  <text id="template-version" style="stroke:none;fill:black;font-family:sans-serif;font-size:13;text-anchor:end;" transform="matrix(1 0 0 1 3036 1933)">Template v.3.0</text>
  <text style="stroke:none;fill:black;font-family:sans-serif;font-size:13;text-anchor:end;" transform="matrix(1 0 0 1 3036 1951)">Requires Xcode 13 or greater</text>
  <text id="descriptive-name" style="stroke:none;fill:black;font-family:sans-serif;font-size:13;text-anchor:end;" transform="matrix(1 0 0 1 3036 1969)">Generated from cup.and.saucer.fill</text>
  <text style="stroke:none;fill:black;font-family:sans-serif;font-size:13;text-anchor:end;" transform="matrix(1 0 0 1 3036 1987)">Typeset at 100 points</text>
  <text style="stroke:none;fill:black;font-family:sans-serif;font-size:13;" transform="matrix(1 0 0 1 263 726)">Small</text>
  <text style="stroke:none;fill:black;font-family:sans-serif;font-size:13;" transform="matrix(1 0 0 1 263 1156)">Medium</text>
  <text style="stroke:none;fill:black;font-family:sans-serif;font-size:13;" transform="matrix(1 0 0 1 263 1586)">Large</text>
 </g>
 <g id="Guides">
  <g id="H-reference" style="fill:#27AAE1;stroke:none;" transform="matrix(1 0 0 1 339 696)">
   <path d="M0.976562 0L3.66211 0L29.3457-67.1387L30.0293-67.1387L30.0293-70.459L28.125-70.459ZM11.6699-24.4629L46.9727-24.4629L46.2402-26.709L12.4512-26.709ZM55.127 0L57.7637 0L30.6152-70.459L29.4434-70.459L29.4434-67.1387Z"/>
  </g>
  <line id="Baseline-S" style="fill:none;stroke:#27AAE1;opacity:1;stroke-width:0.5;" x1="263" x2="3036" y1="696" y2="696"/>
  <line id="Capline-S" style="fill:none;stroke:#27AAE1;opacity:1;stroke-width:0.5;" x1="263" x2="3036" y1="625.541" y2="625.541"/>
  <g id="H-reference" style="fill:#27AAE1;stroke:none;" transform="matrix(1 0 0 1 339 1126)">
   <path d="M0.976562 0L3.66211 0L29.3457-67.1387L30.0293-67.1387L30.0293-70.459L28.125-70.459ZM11.6699-24.4629L46.9727-24.4629L46.2402-26.709L12.4512-26.709ZM55.127 0L57.7637 0L30.6152-70.459L29.4434-70.459L29.4434-67.1387Z"/>
  </g>
  <line id="Baseline-M" style="fill:none;stroke:#27AAE1;opacity:1;stroke-width:0.5;" x1="263" x2="3036" y1="1126" y2="1126"/>
  <line id="Capline-M" style="fill:none;stroke:#27AAE1;opacity:1;stroke-width:0.5;" x1="263" x2="3036" y1="1055.54" y2="1055.54"/>
  <g id="H-reference" style="fill:#27AAE1;stroke:none;" transform="matrix(1 0 0 1 339 1556)">
   <path d="M0.976562 0L3.66211 0L29.3457-67.1387L30.0293-67.1387L30.0293-70.459L28.125-70.459ZM11.6699-24.4629L46.9727-24.4629L46.2402-26.709L12.4512-26.709ZM55.127 0L57.7637 0L30.6152-70.459L29.4434-70.459L29.4434-67.1387Z"/>
  </g>
  <line id="Baseline-L" style="fill:none;stroke:#27AAE1;opacity:1;stroke-width:0.5;" x1="263" x2="3036" y1="1556" y2="1556"/>
  <line id="Capline-L" style="fill:none;stroke:#27AAE1;opacity:1;stroke-width:0.5;" x1="263" x2="3036" y1="1485.54" y2="1485.54"/>
  <line id="left-margin-Ultralight-S" style="fill:none;stroke:#00AEEF;stroke-width:0.5;opacity:1.0;" x1="504.755" x2="504.755" y1="600.785" y2="720.121"/>
  <line id="right-margin-Ultralight-S" style="fill:none;stroke:#00AEEF;stroke-width:0.5;opacity:1.0;" x1="614.667" x2="614.667" y1="600.785" y2="720.121"/>
  <line id="left-margin-Thin-S" style="fill:none;stroke:#00AEEF;stroke-width:0.5;opacity:1.0;" x1="800.221" x2="800.221" y1="600.785" y2="720.121"/>
  <line id="right-margin-Thin-S" style="fill:none;stroke:#00AEEF;stroke-width:0.5;opacity:1.0;" x1="912.623" x2="912.623" y1="600.785" y2="720.121"/>
  <line id="left-margin-Light-S" style="fill:none;stroke:#00AEEF;stroke-width:0.5;opacity:1.0;" x1="1094.49" x2="1094.49" y1="600.785" y2="720.121"/>
  <line id="right-margin-Light-S" style="fill:none;stroke:#00AEEF;stroke-width:0.5;opacity:1.0;" x1="1211.78" x2="1211.78" y1="600.785" y2="720.121"/>
  <line id="left-margin-Regular-S" style="fill:none;stroke:#00AEEF;stroke-width:0.5;opacity:1.0;" x1="1389.37" x2="1389.37" y1="600.785" y2="720.121"/>
  <line id="right-margin-Regular-S" style="fill:none;stroke:#00AEEF;stroke-width:0.5;opacity:1.0;" x1="1510.32" x2="1510.32" y1="600.785" y2="720.121"/>
  <line id="left-margin-Medium-S" style="fill:none;stroke:#00AEEF;stroke-width:0.5;opacity:1.0;" x1="1685.3" x2="1685.3" y1="600.785" y2="720.121"/>
  <line id="right-margin-Medium-S" style="fill:none;stroke:#00AEEF;stroke-width:0.5;opacity:1.0;" x1="1807.81" x2="1807.81" y1="600.785" y2="720.121"/>
  <line id="left-margin-Semibold-S" style="fill:none;stroke:#00AEEF;stroke-width:0.5;opacity:1.0;" x1="1981.43" x2="1981.43" y1="600.785" y2="720.121"/>
  <line id="right-margin-Semibold-S" style="fill:none;stroke:#00AEEF;stroke-width:0.5;opacity:1.0;" x1="2105.11" x2="2105.11" y1="600.785" y2="720.121"/>
  <line id="left-margin-Bold-S" style="fill:none;stroke:#00AEEF;stroke-width:0.5;opacity:1.0;" x1="2277.33" x2="2277.33" y1="600.785" y2="720.121"/>
  <line id="right-margin-Bold-S" style="fill:none;stroke:#00AEEF;stroke-width:0.5;opacity:1.0;" x1="2402.62" x2="2402.62" y1="600.785" y2="720.121"/>
  <line id="left-margin-Heavy-S" style="fill:none;stroke:#00AEEF;stroke-width:0.5;opacity:1.0;" x1="2572.92" x2="2572.92" y1="600.785" y2="720.121"/>
  <line id="right-margin-Heavy-S" style="fill:none;stroke:#00AEEF;stroke-width:0.5;opacity:1.0;" x1="2700.46" x2="2700.46" y1="600.785" y2="720.121"/>
  <line id="left-margin-Black-S" style="fill:none;stroke:#00AEEF;stroke-width:0.5;opacity:1.0;" x1="2868.61" x2="2868.61" y1="600.785" y2="720.121"/>
  <line id="right-margin-Black-S" style="fill:none;stroke:#00AEEF;stroke-width:0.5;opacity:1.0;" x1="2998.19" x2="2998.19" y1="600.785" y2="720.121"/>
  <line id="left-margin-Ultralight-M" style="fill:none;stroke:#00AEEF;stroke-width:0.5;opacity:1.0;" x1="490.082" x2="490.082" y1="1030.79" y2="1150.12"/>
  <line id="right-margin-Ultralight-M" style="fill:none;stroke:#00AEEF;stroke-width:0.5;opacity:1.0;" x1="629.34" x2="629.34" y1="1030.79" y2="1150.12"/>
  <line id="left-margin-Thin-M" style="fill:none;stroke:#00AEEF;stroke-width:0.5;opacity:1.0;" x1="785.377" x2="785.377" y1="1030.79" y2="1150.12"/>
  <line id="right-margin-Thin-M" style="fill:none;stroke:#00AEEF;stroke-width:0.5;opacity:1.0;" x1="927.467" x2="927.467" y1="1030.79" y2="1150.12"/>
  <line id="left-margin-Light-M" style="fill:none;stroke:#00AEEF;stroke-width:0.5;opacity:1.0;" x1="1079.33" x2="1079.33" y1="1030.79" y2="1150.12"/>
  <line id="right-margin-Light-M" style="fill:none;stroke:#00AEEF;stroke-width:0.5;opacity:1.0;" x1="1226.94" x2="1226.94" y1="1030.79" y2="1150.12"/>
  <line id="left-margin-Regular-M" style="fill:none;stroke:#00AEEF;stroke-width:0.5;opacity:1.0;" x1="1373.97" x2="1373.97" y1="1030.79" y2="1150.12"/>
  <line id="right-margin-Regular-M" style="fill:none;stroke:#00AEEF;stroke-width:0.5;opacity:1.0;" x1="1525.72" x2="1525.72" y1="1030.79" y2="1150.12"/>
  <line id="left-margin-Medium-M" style="fill:none;stroke:#00AEEF;stroke-width:0.5;opacity:1.0;" x1="1669.53" x2="1669.53" y1="1030.79" y2="1150.12"/>
  <line id="right-margin-Medium-M" style="fill:none;stroke:#00AEEF;stroke-width:0.5;opacity:1.0;" x1="1823.58" x2="1823.58" y1="1030.79" y2="1150.12"/>
  <line id="left-margin-Semibold-M" style="fill:none;stroke:#00AEEF;stroke-width:0.5;opacity:1.0;" x1="1965.36" x2="1965.36" y1="1030.79" y2="1150.12"/>
  <line id="right-margin-Semibold-M" style="fill:none;stroke:#00AEEF;stroke-width:0.5;opacity:1.0;" x1="2121.17" x2="2121.17" y1="1030.79" y2="1150.12"/>
  <line id="left-margin-Bold-M" style="fill:none;stroke:#00AEEF;stroke-width:0.5;opacity:1.0;" x1="2260.9" x2="2260.9" y1="1030.79" y2="1150.12"/>
  <line id="right-margin-Bold-M" style="fill:none;stroke:#00AEEF;stroke-width:0.5;opacity:1.0;" x1="2419.05" x2="2419.05" y1="1030.79" y2="1150.12"/>
  <line id="left-margin-Heavy-M" style="fill:none;stroke:#00AEEF;stroke-width:0.5;opacity:1.0;" x1="2555.95" x2="2555.95" y1="1030.79" y2="1150.12"/>
  <line id="right-margin-Heavy-M" style="fill:none;stroke:#00AEEF;stroke-width:0.5;opacity:1.0;" x1="2717.43" x2="2717.43" y1="1030.79" y2="1150.12"/>
  <line id="left-margin-Black-M" style="fill:none;stroke:#00AEEF;stroke-width:0.5;opacity:1.0;" x1="2851.15" x2="2851.15" y1="1030.79" y2="1150.12"/>
  <line id="right-margin-Black-M" style="fill:none;stroke:#00AEEF;stroke-width:0.5;opacity:1.0;" x1="3015.65" x2="3015.65" y1="1030.79" y2="1150.12"/>
  <line id="left-margin-Ultralight-L" style="fill:none;stroke:#00AEEF;stroke-width:0.5;opacity:1.0;" x1="470.478" x2="470.478" y1="1460.79" y2="1580.12"/>
  <line id="right-margin-Ultralight-L" style="fill:none;stroke:#00AEEF;stroke-width:0.5;opacity:1.0;" x1="648.945" x2="648.945" y1="1460.79" y2="1580.12"/>
  <line id="left-margin-Thin-L" style="fill:none;stroke:#00AEEF;stroke-width:0.5;opacity:1.0;" x1="765.602" x2="765.602" y1="1460.79" y2="1580.12"/>
  <line id="right-margin-Thin-L" style="fill:none;stroke:#00AEEF;stroke-width:0.5;opacity:1.0;" x1="947.243" x2="947.243" y1="1460.79" y2="1580.12"/>
  <line id="left-margin-Light-L" style="fill:none;stroke:#00AEEF;stroke-width:0.5;opacity:1.0;" x1="1059.24" x2="1059.24" y1="1460.79" y2="1580.12"/>
  <line id="right-margin-Light-L" style="fill:none;stroke:#00AEEF;stroke-width:0.5;opacity:1.0;" x1="1247.03" x2="1247.03" y1="1460.79" y2="1580.12"/>
  <line id="left-margin-Regular-L" style="fill:none;stroke:#00AEEF;stroke-width:0.5;opacity:1.0;" x1="1353.63" x2="1353.63" y1="1460.79" y2="1580.12"/>
  <line id="right-margin-Regular-L" style="fill:none;stroke:#00AEEF;stroke-width:0.5;opacity:1.0;" x1="1546.06" x2="1546.06" y1="1460.79" y2="1580.12"/>
  <line id="left-margin-Medium-L" style="fill:none;stroke:#00AEEF;stroke-width:0.5;opacity:1.0;" x1="1648.78" x2="1648.78" y1="1460.79" y2="1580.12"/>
  <line id="right-margin-Medium-L" style="fill:none;stroke:#00AEEF;stroke-width:0.5;opacity:1.0;" x1="1844.33" x2="1844.33" y1="1460.79" y2="1580.12"/>
  <line id="left-margin-Semibold-L" style="fill:none;stroke:#00AEEF;stroke-width:0.5;opacity:1.0;" x1="1944.29" x2="1944.29" y1="1460.79" y2="1580.12"/>
  <line id="right-margin-Semibold-L" style="fill:none;stroke:#00AEEF;stroke-width:0.5;opacity:1.0;" x1="2142.24" x2="2142.24" y1="1460.79" y2="1580.12"/>
  <line id="left-margin-Bold-L" style="fill:none;stroke:#00AEEF;stroke-width:0.5;opacity:1.0;" x1="2239.42" x2="2239.42" y1="1460.79" y2="1580.12"/>
  <line id="right-margin-Bold-L" style="fill:none;stroke:#00AEEF;stroke-width:0.5;opacity:1.0;" x1="2440.54" x2="2440.54" y1="1460.79" y2="1580.12"/>
  <line id="left-margin-Heavy-L" style="fill:none;stroke:#00AEEF;stroke-width:0.5;opacity:1.0;" x1="2533.86" x2="2533.86" y1="1460.79" y2="1580.12"/>
  <line id="right-margin-Heavy-L" style="fill:none;stroke:#00AEEF;stroke-width:0.5;opacity:1.0;" x1="2739.52" x2="2739.52" y1="1460.79" y2="1580.12"/>
  <line id="left-margin-Black-L" style="fill:none;stroke:#00AEEF;stroke-width:0.5;opacity:1.0;" x1="2828.52" x2="2828.52" y1="1460.79" y2="1580.12"/>
  <line id="right-margin-Black-L" style="fill:none;stroke:#00AEEF;stroke-width:0.5;opacity:1.0;" x1="3038.28" x2="3038.28" y1="1460.79" y2="1580.12"/>
 </g>
 <g id="Symbols">
  <g id="Black-L" transform="matrix(1 0 0 1 2828.52 1556)">
   <path d="M102.051-0.927734L108.643-0.927734Q121.533-0.927734 132.031-5.17578Q142.529-9.42383 150.049-17.2607Q157.568-25.0977 161.621-35.9131Q165.674-46.7285 165.674-59.7656L165.674-73.3398Q165.674-79.9316 161.377-85.3027Q157.08-90.6738 149.097-94.4824Q141.113-98.291 130.029-100.317Q118.945-102.344 105.371-102.344Q91.748-102.344 80.6396-100.317Q69.5312-98.291 61.5723-94.4824Q53.6133-90.6738 49.3164-85.3027Q45.0195-79.9316 45.0195-73.3398L45.0195-59.7656Q45.0195-46.875 49.0723-36.084Q53.125-25.293 60.6201-17.4072Q68.1152-9.52148 78.6133-5.22461Q89.1113-0.927734 102.051-0.927734ZM105.371-60.6445Q96.2402-60.6445 88.2812-61.6943Q80.3223-62.7441 74.292-64.5264Q68.2617-66.3086 64.8438-68.5791Q61.4258-70.8496 61.4258-73.3398Q61.4258-75.7812 64.8193-78.0518Q68.2129-80.3223 74.2432-82.1045Q80.2734-83.8867 88.2324-84.9121Q96.1914-85.9375 105.371-85.9375Q114.502-85.9375 122.461-84.9121Q130.42-83.8867 136.45-82.1045Q142.48-80.3223 145.85-78.0518Q149.219-75.7812 149.219-73.3398Q149.219-70.8496 145.825-68.5791Q142.432-66.3086 136.426-64.5264Q130.42-62.7441 122.461-61.6943Q114.502-60.6445 105.371-60.6445ZM156.396-31.6406L163.281-31.6406Q175-31.6406 181.714-37.5244Q188.428-43.4082 188.428-53.7109Q188.428-63.916 181.689-69.7998Q174.951-75.6836 163.281-75.6836L156.396-75.6836L156.396-60.2539L163.281-60.2539Q168.066-60.2539 170.508-58.5449Q172.949-56.8359 172.949-53.7109Q172.949-50.5371 170.483-48.8037Q168.018-47.0703 163.281-47.0703L156.396-47.0703ZM104.883 31.9824Q124.561 31.9824 140.869 29.248Q157.178 26.5137 169.019 21.4844Q180.859 16.4551 187.28 9.42383Q193.701 2.39258 193.701-6.20117Q193.701-11.9629 190.649-17.1143Q187.598-22.2656 181.836-26.5625Q178.32-24.7559 174.194-23.7305Q170.068-22.7051 165.43-22.4609Q159.863-12.8906 151.416-6.00586Q142.969 0.878906 132.153 4.58984Q121.338 8.30078 108.643 8.30078L102.051 8.30078Q87.1094 8.30078 74.8047 3.17383Q62.5-1.95312 53.6377-11.3525Q44.7754-20.752 40.2344-33.5449Q28.6133-28.5156 22.3389-21.5576Q16.0645-14.5996 16.0645-6.20117Q16.0645 2.39258 22.5098 9.42383Q28.9551 16.4551 40.8203 21.4844Q52.6855 26.5137 68.9697 29.248Q85.2539 31.9824 104.883 31.9824Z"/>
  </g>
  <g id="Heavy-L" transform="matrix(1 0 0 1 2533.86 1556)">
   <path d="M100.146-1.75781L106.396-1.75781Q119.043-1.75781 129.346-5.88379Q139.648-10.0098 146.997-17.6514Q154.346-25.293 158.301-35.8887Q162.256-46.4844 162.256-59.3262L162.256-72.6562Q162.256-78.9551 158.057-84.1064Q153.857-89.2578 146.045-92.9443Q138.232-96.6309 127.368-98.6084Q116.504-100.586 103.271-100.586Q89.9902-100.586 79.126-98.6084Q68.2617-96.6309 60.4492-92.9443Q52.6367-89.2578 48.4131-84.1064Q44.1895-78.9551 44.1895-72.6562L44.1895-59.3262Q44.1895-46.6797 48.1689-36.1328Q52.1484-25.5859 59.4971-17.8711Q66.8457-10.1562 77.124-5.95703Q87.4023-1.75781 100.146-1.75781ZM103.271-59.1309Q93.8965-59.1309 85.8154-60.2295Q77.7344-61.3281 71.6553-63.208Q65.5762-65.0879 62.1582-67.5049Q58.7402-69.9219 58.7402-72.6562Q58.7402-75.293 62.1338-77.71Q65.5273-80.127 71.6064-82.0068Q77.6855-83.8867 85.791-84.9609Q93.8965-86.0352 103.271-86.0352Q112.646-86.0352 120.728-84.9609Q128.809-83.8867 134.888-82.0068Q140.967-80.127 144.36-77.71Q147.754-75.293 147.754-72.6562Q147.754-69.9219 144.336-67.5049Q140.918-65.0879 134.863-63.208Q128.809-61.3281 120.728-60.2295Q112.646-59.1309 103.271-59.1309ZM153.662-31.7871L160.107-31.7871Q171.436-31.7871 177.93-37.4756Q184.424-43.1641 184.424-53.125Q184.424-62.9883 177.905-68.6768Q171.387-74.3652 160.107-74.3652L154.102-74.3652L154.102-60.5957L160.107-60.5957Q165.234-60.5957 167.92-58.6182Q170.605-56.6406 170.605-53.125Q170.605-49.5117 167.896-47.5342Q165.186-45.5566 160.107-45.5566L153.662-45.5566ZM102.832 30.2246Q122.021 30.2246 137.939 27.5879Q153.857 24.9512 165.43 20.0928Q177.002 15.2344 183.301 8.47168Q189.6 1.70898 189.6-6.5918Q189.6-12.3047 186.328-17.4316Q183.057-22.5586 176.904-26.8066Q173.633-25.1953 169.873-24.292Q166.113-23.3887 161.865-23.1934Q156.445-13.7695 148.218-7.05566Q139.99-0.341797 129.395 3.2959Q118.799 6.93359 106.396 6.93359L100.146 6.93359Q85.6934 6.93359 73.7793 2.02637Q61.8652-2.88086 53.2471-11.8652Q44.6289-20.8496 40.1367-33.0566Q28.5645-28.2227 22.3145-21.46Q16.0645-14.6973 16.0645-6.5918Q16.0645 1.70898 22.3877 8.47168Q28.7109 15.2344 40.3076 20.0928Q51.9043 24.9512 67.7979 27.5879Q83.6914 30.2246 102.832 30.2246Z"/>
  </g>
  <g id="Bold-L" transform="matrix(1 0 0 1 2239.42 1556)">
   <path d="M97.998-2.68555L103.857-2.68555Q116.26-2.68555 126.318-6.68945Q136.377-10.6934 143.579-18.1396Q150.781-25.5859 154.639-35.9131Q158.496-46.2402 158.496-58.7891L158.496-71.875Q158.496-77.8809 154.37-82.7881Q150.244-87.6953 142.603-91.2354Q134.961-94.7754 124.39-96.6797Q113.818-98.584 100.928-98.584Q87.9883-98.584 77.417-96.6797Q66.8457-94.7754 59.2041-91.2354Q51.5625-87.6953 47.4365-82.7881Q43.3105-77.8809 43.3105-71.875L43.3105-58.7891Q43.3105-46.4844 47.168-36.1816Q51.0254-25.8789 58.2031-18.3838Q65.3809-10.8887 75.4639-6.78711Q85.5469-2.68555 97.998-2.68555ZM100.928-57.4707Q91.3086-57.4707 83.0811-58.5938Q74.8535-59.7168 68.7256-61.7188Q62.5977-63.7207 59.1553-66.3086Q55.7129-68.8965 55.7129-71.875Q55.7129-74.7559 59.1309-77.3682Q62.5488-79.9805 68.7012-81.958Q74.8535-83.9355 83.0811-85.0586Q91.3086-86.1816 100.928-86.1816Q110.547-86.1816 118.774-85.0586Q127.002-83.9355 133.13-81.958Q139.258-79.9805 142.676-77.3682Q146.094-74.7559 146.094-71.875Q146.094-68.8965 142.676-66.3086Q139.258-63.7207 133.13-61.7188Q127.002-59.7168 118.774-58.5938Q110.547-57.4707 100.928-57.4707ZM150.635-31.9824L156.592-31.9824Q167.432-31.9824 173.682-37.4512Q179.932-42.9199 179.932-52.4414Q179.932-61.9141 173.657-67.3828Q167.383-72.8516 156.592-72.8516L151.514-72.8516L151.514-60.9863L156.592-60.9863Q162.061-60.9863 165.039-58.7402Q168.018-56.4941 168.018-52.4414Q168.018-48.4375 165.015-46.1426Q162.012-43.8477 156.592-43.8477L150.635-43.8477ZM100.537 28.3203Q119.141 28.3203 134.644 25.7568Q150.146 23.1934 161.426 18.5303Q172.705 13.8672 178.882 7.39746Q185.059 0.927734 185.059-6.98242Q185.059-12.7441 181.519-17.8223Q177.979-22.9004 171.436-27.0508Q168.457-25.6836 165.063-24.9023Q161.67-24.1211 157.861-23.9746Q152.637-14.7949 144.629-8.22754Q136.621-1.66016 126.318 1.85547Q116.016 5.37109 103.857 5.37109L97.998 5.37109Q84.1309 5.37109 72.6562 0.732422Q61.1816-3.90625 52.832-12.4268Q44.4824-20.9473 40.0391-32.5684Q28.5645-27.8809 22.3145-21.3623Q16.0645-14.8438 16.0645-6.98242Q16.0645 0.927734 22.2412 7.39746Q28.418 13.8672 39.7217 18.5303Q51.0254 23.1934 66.5039 25.7568Q81.9824 28.3203 100.537 28.3203Z"/>
  </g>
  <g id="Semibold-L" transform="matrix(1 0 0 1 1944.29 1556)">
   <path d="M96.4844-3.27148L102.1-3.27148Q114.307-3.27148 124.219-7.20215Q134.131-11.1328 141.211-18.4326Q148.291-25.7324 152.075-35.8887Q155.859-46.0449 155.859-58.4473L155.859-71.2891Q155.859-77.0996 151.782-81.8604Q147.705-86.6211 140.21-90.0635Q132.715-93.5059 122.314-95.3613Q111.914-97.2168 99.2676-97.2168Q86.6211-97.2168 76.2207-95.3613Q65.8203-93.5059 58.3252-90.0635Q50.8301-86.6211 46.7529-81.8604Q42.6758-77.0996 42.6758-71.2891L42.6758-58.4473Q42.6758-46.2891 46.46-36.1816Q50.2441-26.0742 57.3242-18.7256Q64.4043-11.377 74.3164-7.32422Q84.2285-3.27148 96.4844-3.27148ZM99.2676-56.2988Q89.502-56.2988 81.1768-57.4463Q72.8516-58.5938 66.6748-60.6689Q60.498-62.7441 57.0557-65.4541Q53.6133-68.1641 53.6133-71.2891Q53.6133-74.3652 57.0557-77.0996Q60.498-79.834 66.6748-81.8848Q72.8516-83.9355 81.1768-85.1074Q89.502-86.2793 99.2676-86.2793Q109.082-86.2793 117.407-85.1074Q125.732-83.9355 131.909-81.8848Q138.086-79.834 141.504-77.0996Q144.922-74.3652 144.922-71.2891Q144.922-68.1641 141.504-65.4541Q138.086-62.7441 131.909-60.6689Q125.732-58.5938 117.407-57.4463Q109.082-56.2988 99.2676-56.2988ZM148.486-32.0801L154.102-32.0801Q164.697-32.0801 170.752-37.4023Q176.807-42.7246 176.807-52.002Q176.807-61.1816 170.728-66.5039Q164.648-71.8262 154.102-71.8262L149.707-71.8262L149.707-61.2305L154.102-61.2305Q159.863-61.2305 163.037-58.7891Q166.211-56.3477 166.211-52.002Q166.211-47.6562 163.013-45.166Q159.814-42.6758 154.102-42.6758L148.486-42.6758ZM98.9746 26.9531Q117.188 26.9531 132.373 24.4629Q147.559 21.9727 158.643 17.4561Q169.727 12.9395 175.806 6.64062Q181.885 0.341797 181.885-7.27539Q181.885-12.9883 178.174-18.0664Q174.463-23.1445 167.627-27.2461Q164.844-25.9766 161.719-25.3174Q158.594-24.6582 155.078-24.5117Q149.951-15.4785 142.139-9.0332Q134.326-2.58789 124.194 0.854492Q114.062 4.29688 102.1 4.29688L96.4844 4.29688Q83.0078 4.29688 71.8506-0.170898Q60.6934-4.63867 52.5391-12.8174Q44.3848-20.9961 39.9414-32.1777Q28.5156-27.6367 22.29-21.2646Q16.0645-14.8926 16.0645-7.27539Q16.0645 0.341797 22.1436 6.64062Q28.2227 12.9395 39.3311 17.4561Q50.4395 21.9727 65.6006 24.4629Q80.7617 26.9531 98.9746 26.9531Z"/>
  </g>
  <g id="Medium-L" transform="matrix(1 0 0 1 1648.78 1556)">
   <path d="M95.3613-3.75977L100.732-3.75977Q112.842-3.75977 122.632-7.6416Q132.422-11.5234 139.404-18.7012Q146.387-25.8789 150.122-35.8887Q153.857-45.8984 153.857-58.1543L153.857-70.8984Q153.857-76.5137 149.854-81.1523Q145.85-85.791 138.428-89.1602Q131.006-92.5293 120.752-94.3604Q110.498-96.1914 98.0469-96.1914Q85.5957-96.1914 75.3418-94.3604Q65.0879-92.5293 57.666-89.1602Q50.2441-85.791 46.2402-81.1523Q42.2363-76.5137 42.2363-70.8984L42.2363-58.1543Q42.2363-46.1914 45.9473-36.2305Q49.6582-26.2695 56.6406-18.9941Q63.623-11.7188 73.4131-7.73926Q83.2031-3.75977 95.3613-3.75977ZM98.0469-55.4199Q88.1348-55.4199 79.7363-56.5918Q71.3379-57.7637 65.1367-59.8877Q58.9355-62.0117 55.4932-64.8193Q52.0508-67.627 52.0508-70.8984Q52.0508-74.1211 55.4932-76.9287Q58.9355-79.7363 65.1367-81.8604Q71.3379-83.9844 79.7363-85.1562Q88.1348-86.3281 98.0469-86.3281Q107.959-86.3281 116.357-85.1562Q124.756-83.9844 130.981-81.8604Q137.207-79.7363 140.625-76.9287Q144.043-74.1211 144.043-70.8984Q144.043-67.627 140.625-64.8193Q137.207-62.0117 130.981-59.8877Q124.756-57.7637 116.357-56.5918Q107.959-55.4199 98.0469-55.4199ZM146.924-32.1777L152.246-32.1777Q162.598-32.1777 168.53-37.4023Q174.463-42.627 174.463-51.6113Q174.463-60.6445 168.506-65.8447Q162.549-71.0449 152.246-71.0449L148.34-71.0449L148.34-61.4746L152.246-61.4746Q158.154-61.4746 161.499-58.8623Q164.844-56.25 164.844-51.6113Q164.844-47.0703 161.499-44.4336Q158.154-41.7969 152.246-41.7969L146.924-41.7969ZM97.7539 25.9277Q115.674 25.9277 130.64 23.4863Q145.605 21.0449 156.543 16.626Q167.48 12.207 173.486 6.0791Q179.492-0.0488281 179.492-7.4707Q179.492-13.1836 175.659-18.2373Q171.826-23.291 164.746-27.3438Q162.109-26.2207 159.204-25.6348Q156.299-25.0488 152.979-24.9512Q147.949-16.0156 140.259-9.64355Q132.568-3.27148 122.559 0.12207Q112.549 3.51562 100.732 3.51562L95.3613 3.51562Q82.1777 3.51562 71.2646-0.830078Q60.3516-5.17578 52.3193-13.1104Q44.2871-21.0449 39.8926-31.8848Q28.5156-27.4414 22.29-21.1914Q16.0645-14.9414 16.0645-7.4707Q16.0645-0.0488281 22.0703 6.0791Q28.0762 12.207 39.0137 16.626Q49.9512 21.0449 64.8926 23.4863Q79.834 25.9277 97.7539 25.9277Z"/>
  </g>
  <g id="Regular-L" transform="matrix(1 0 0 1 1353.63 1556)">
   <path d="M93.8965-4.39453L99.0234-4.39453Q110.938-4.39453 120.581-8.17871Q130.225-11.9629 137.085-18.9941Q143.945-26.0254 147.607-35.8643Q151.27-45.7031 151.27-57.8125L151.27-70.3613Q151.27-75.7812 147.314-80.249Q143.359-84.7168 136.084-87.9883Q128.809-91.2598 118.726-93.042Q108.643-94.8242 96.4355-94.8242Q84.2285-94.8242 74.1699-93.042Q64.1113-91.2598 56.8115-87.9883Q49.5117-84.7168 45.5566-80.249Q41.6016-75.7812 41.6016-70.3613L41.6016-57.8125Q41.6016-46.0449 45.2637-36.2549Q48.9258-26.4648 55.7861-19.3359Q62.6465-12.207 72.29-8.30078Q81.9336-4.39453 93.8965-4.39453ZM96.4355-54.248Q86.377-54.248 77.8809-55.4688Q69.3848-56.6895 63.1348-58.8867Q56.8848-61.084 53.4424-64.0137Q50-66.9434 50-70.3613Q50-73.7305 53.4424-76.6602Q56.8848-79.5898 63.1348-81.7871Q69.3848-83.9844 77.8809-85.2051Q86.377-86.4258 96.4355-86.4258Q106.543-86.4258 115.039-85.2051Q123.535-83.9844 129.785-81.7871Q136.035-79.5898 139.478-76.6602Q142.92-73.7305 142.92-70.3613Q142.92-66.9434 139.478-64.0137Q136.035-61.084 129.785-58.8867Q123.535-56.6895 115.039-55.4688Q106.543-54.248 96.4355-54.248ZM144.824-32.2754L149.854-32.2754Q159.863-32.2754 165.625-37.3535Q171.387-42.4316 171.387-51.1719Q171.387-59.9121 165.601-64.9658Q159.814-70.0195 149.854-70.0195L146.582-70.0195L146.582-61.7188L149.854-61.7188Q156.006-61.7188 159.521-58.9111Q163.037-56.1035 163.037-51.1719Q163.037-46.2891 159.521-43.457Q156.006-40.625 149.854-40.625L144.824-40.625ZM96.1914 24.6094Q113.721 24.6094 128.394 22.2412Q143.066 19.873 153.809 15.5762Q164.551 11.2793 170.459 5.34668Q176.367-0.585938 176.367-7.76367Q176.367-13.4766 172.363-18.5059Q168.359-23.5352 160.986-27.5391Q158.545-26.5625 155.908-26.0498Q153.271-25.5371 150.244-25.4883Q145.361-16.6992 137.817-10.4492Q130.273-4.19922 120.459-0.878906Q110.645 2.44141 99.0234 2.44141L93.8965 2.44141Q81.1035 2.44141 70.4834-1.70898Q59.8633-5.85938 52.0264-13.4766Q44.1895-21.0938 39.7949-31.543Q28.4668-27.1973 22.2656-21.1182Q16.0645-15.0391 16.0645-7.76367Q16.0645-0.585938 21.9727 5.34668Q27.8809 11.2793 38.623 15.5762Q49.3652 19.873 64.0137 22.2412Q78.6621 24.6094 96.1914 24.6094Z"/>
  </g>
  <g id="Light-L" transform="matrix(1 0 0 1 1059.24 1556)">
   <path d="M91.8457-4.73633L96.1914-4.73633Q108.252-4.73633 117.847-8.49609Q127.441-12.2559 134.131-19.1895Q140.82-26.123 144.36-35.7666Q147.9-45.4102 147.9-57.1777L147.9-69.3359Q147.9-74.4629 143.994-78.7598Q140.088-83.0566 132.91-86.2061Q125.732-89.3555 115.845-91.1133Q105.957-92.8711 93.9941-92.8711Q82.0801-92.8711 72.2168-91.1133Q62.3535-89.3555 55.1514-86.2061Q47.9492-83.0566 44.043-78.7598Q40.1367-74.4629 40.1367-69.3359L40.1367-57.1777Q40.1367-45.6055 43.6523-35.9863Q47.168-26.3672 53.8818-19.3848Q60.5957-12.4023 70.166-8.56934Q79.7363-4.73633 91.8457-4.73633ZM93.9941-52.2461Q83.6914-52.2461 75.0244-53.54Q66.3574-54.834 59.9854-57.1777Q53.6133-59.5215 50.0977-62.6221Q46.582-65.7227 46.582-69.3359Q46.582-72.9004 50.0977-76.001Q53.6133-79.1016 59.9854-81.4453Q66.3574-83.7891 75.0244-85.083Q83.6914-86.377 93.9941-86.377Q104.346-86.377 113.037-85.083Q121.729-83.7891 128.101-81.4453Q134.473-79.1016 137.964-76.001Q141.455-72.9004 141.455-69.3359Q141.455-65.7227 137.964-62.6221Q134.473-59.5215 128.101-57.1777Q121.729-54.834 113.037-53.54Q104.346-52.2461 93.9941-52.2461ZM141.895-32.7148L147.021-32.7148Q156.299-32.7148 161.743-37.5732Q167.188-42.4316 167.188-50.6348Q167.188-58.8379 161.719-63.6719Q156.25-68.5059 147.021-68.5059L144.678-68.5059L144.678-62.1582L147.021-62.1582Q153.32-62.1582 157.056-59.0576Q160.791-55.957 160.791-50.6348Q160.791-45.3613 157.056-42.2363Q153.32-39.1113 147.021-39.1113L141.895-39.1113ZM93.8477 22.6074Q110.84 22.6074 125.073 20.3369Q139.307 18.0664 149.756 13.9648Q160.205 9.86328 165.967 4.19922Q171.729-1.46484 171.729-8.30078Q171.729-14.0137 167.407-19.043Q163.086-24.0723 155.078-27.9785Q153.125-27.3438 151.172-27.002Q149.219-26.6602 146.875-26.6602Q142.236-17.7734 134.79-11.499Q127.344-5.22461 117.603-1.92871Q107.861 1.36719 96.1914 1.36719L91.8457 1.36719Q79.248 1.36719 68.9209-2.53906Q58.5938-6.44531 51.0254-13.6963Q43.457-20.9473 39.1113-30.957Q28.0762-26.7578 22.0703-20.9473Q16.0645-15.1367 16.0645-8.30078Q16.0645-1.46484 21.8018 4.19922Q27.5391 9.86328 38.0127 13.9648Q48.4863 18.0664 62.6953 20.3369Q76.9043 22.6074 93.8477 22.6074Z"/>
  </g>
  <g id="Thin-L" transform="matrix(1 0 0 1 765.602 1556)">
   <path d="M89.0625-5.17578L92.4805-5.17578Q104.736-5.17578 114.258-8.88672Q123.779-12.5977 130.249-19.4092Q136.719-26.2207 140.063-35.6201Q143.408-45.0195 143.408-56.3477L143.408-67.9688Q143.408-72.7051 139.575-76.7578Q135.742-80.8105 128.687-83.8379Q121.631-86.8652 112.012-88.5498Q102.393-90.2344 90.8203-90.2344Q79.248-90.2344 69.6289-88.5498Q60.0098-86.8652 52.9785-83.8379Q45.9473-80.8105 42.0898-76.7578Q38.2324-72.7051 38.2324-67.9688L38.2324-56.3477Q38.2324-45.0195 41.5527-35.6445Q44.873-26.2695 51.3428-19.458Q57.8125-12.6465 67.3096-8.91113Q76.8066-5.17578 89.0625-5.17578ZM90.8203-49.5605Q80.1758-49.5605 71.2646-50.9766Q62.3535-52.3926 55.8105-54.9072Q49.2676-57.4219 45.6787-60.7666Q42.0898-64.1113 42.0898-67.9688Q42.0898-71.7773 45.6787-75.1465Q49.2676-78.5156 55.8105-81.0303Q62.3535-83.5449 71.2646-84.9609Q80.1758-86.377 90.8203-86.377Q101.465-86.377 110.4-84.9609Q119.336-83.5449 125.854-81.0303Q132.373-78.5156 135.962-75.1465Q139.551-71.7773 139.551-67.9688Q139.551-64.1113 135.962-60.7666Q132.373-57.4219 125.854-54.9072Q119.336-52.3926 110.4-50.9766Q101.465-49.5605 90.8203-49.5605ZM138.037-33.252L143.262-33.252Q151.562-33.252 156.616-37.8174Q161.67-42.3828 161.67-49.9512Q161.67-57.4219 156.616-61.9629Q151.562-66.5039 143.262-66.5039L142.188-66.5039L142.188-62.6953L143.262-62.6953Q149.805-62.6953 153.809-59.2041Q157.812-55.7129 157.812-49.9512Q157.812-44.1406 153.809-40.625Q149.805-37.1094 143.262-37.1094L138.037-37.1094ZM90.7715 19.9707Q106.982 19.9707 120.654 17.8223Q134.326 15.6738 144.409 11.8164Q154.492 7.95898 160.034 2.66113Q165.576-2.63672 165.576-8.93555Q165.576-14.6484 160.815-19.7021Q156.055-24.7559 147.266-28.6133Q145.947-28.3691 144.897-28.2715Q143.848-28.1738 142.48-28.1738Q138.037-19.1406 130.786-12.8906Q123.535-6.64062 113.843-3.34473Q104.15-0.0488281 92.4805-0.0488281L89.0625-0.0488281Q76.8555-0.0488281 66.8945-3.66211Q56.9336-7.27539 49.6826-14.0137Q42.4316-20.752 38.2324-30.1758Q27.5391-26.1719 21.8018-20.7031Q16.0645-15.2344 16.0645-8.93555Q16.0645-2.63672 21.6064 2.66113Q27.1484 7.95898 37.2314 11.8164Q47.3145 15.6738 60.9375 17.8223Q74.5605 19.9707 90.7715 19.9707Z"/>
  </g>
  <g id="Ultralight-L" transform="matrix(1 0 0 1 470.478 1556)">
   <path d="M87.6953-5.37109L90.5762-5.37109Q102.93-5.37109 112.402-9.08203Q121.875-12.793 128.247-19.5557Q134.619-26.3184 137.891-35.5469Q141.162-44.7754 141.162-55.9082L141.162-67.2852Q141.162-71.8262 137.329-75.7568Q133.496-79.6875 126.514-82.6416Q119.531-85.5957 110.034-87.2559Q100.537-88.916 89.1602-88.916Q77.832-88.916 68.3105-87.2559Q58.7891-85.5957 51.8311-82.6416Q44.873-79.6875 41.0645-75.7568Q37.2559-71.8262 37.2559-67.2852L37.2559-55.9082Q37.2559-44.7266 40.4785-35.4736Q43.7012-26.2207 50.0732-19.4824Q56.4453-12.7441 65.8691-9.05762Q75.293-5.37109 87.6953-5.37109ZM89.1602-48.1934Q78.3203-48.1934 69.3115-49.6826Q60.3027-51.1719 53.6865-53.7598Q47.0703-56.3477 43.4326-59.8145Q39.7949-63.2812 39.7949-67.2852Q39.7949-71.2402 43.4326-74.707Q47.0703-78.1738 53.6865-80.7861Q60.3027-83.3984 69.3115-84.8633Q78.3203-86.3281 89.1602-86.3281Q100-86.3281 109.033-84.8633Q118.066-83.3984 124.683-80.7861Q131.299-78.1738 134.937-74.707Q138.574-71.2402 138.574-67.2852Q138.574-63.2812 134.937-59.8145Q131.299-56.3477 124.683-53.7598Q118.066-51.1719 109.033-49.6826Q100-48.1934 89.1602-48.1934ZM136.084-33.5449L141.309-33.5449Q149.17-33.5449 153.979-37.9639Q158.789-42.3828 158.789-49.5605Q158.789-56.6895 153.955-61.084Q149.121-65.4785 141.309-65.4785L140.918-65.4785L140.918-62.9883L141.309-62.9883Q147.998-62.9883 152.148-59.3018Q156.299-55.6152 156.299-49.5605Q156.299-43.5059 152.148-39.7949Q147.998-36.084 141.309-36.084L136.084-36.084ZM89.209 18.6035Q105.029 18.6035 118.408 16.5283Q131.787 14.4531 141.675 10.7178Q151.562 6.98242 156.982 1.87988Q162.402-3.22266 162.402-9.32617Q162.402-15.0391 157.446-20.0928Q152.49-25.1465 143.262-28.9062Q142.285-28.8574 141.699-28.9062Q141.113-28.9551 140.186-29.0039Q135.938-19.873 128.735-13.5986Q121.533-7.32422 111.89-4.05273Q102.246-0.78125 90.5762-0.78125L87.6953-0.78125Q75.5859-0.78125 65.8447-4.22363Q56.1035-7.66602 49.0234-14.1602Q41.9434-20.6543 37.793-29.7852Q27.2949-25.8789 21.6797-20.6055Q16.0645-15.332 16.0645-9.32617Q16.0645-3.22266 21.4844 1.87988Q26.9043 6.98242 36.792 10.7178Q46.6797 14.4531 60.0342 16.5283Q73.3887 18.6035 89.209 18.6035Z"/>
  </g>
  <g id="Black-M" transform="matrix(1 0 0 1 2851.15 1126)">
   <path d="M80.0293-8.05664L85.1562-8.05664Q95.459-8.05664 103.735-11.4258Q112.012-14.7949 117.92-20.9961Q123.828-27.1973 126.978-35.7178Q130.127-44.2383 130.127-54.4434L130.127-64.9902Q130.127-72.0703 124.219-77.2461Q118.311-82.4219 107.617-85.2539Q96.9238-88.0859 82.6172-88.0859Q68.3105-88.0859 57.6172-85.2539Q46.9238-82.4219 41.0156-77.2461Q35.1074-72.0703 35.1074-64.9902L35.1074-54.4434Q35.1074-44.2383 38.2568-35.7422Q41.4062-27.2461 47.29-21.0449Q53.1738-14.8438 61.4746-11.4502Q69.7754-8.05664 80.0293-8.05664ZM82.6172-55.5664Q73.3398-55.5664 65.6494-56.9092Q57.959-58.252 53.3691-60.4248Q48.7793-62.5977 48.7793-64.9902Q48.7793-67.4316 53.3691-69.5557Q57.959-71.6797 65.625-73.0469Q73.291-74.4141 82.6172-74.4141Q91.9434-74.4141 99.6094-73.0469Q107.275-71.6797 111.865-69.5557Q116.455-67.4316 116.455-64.9902Q116.455-62.5977 111.865-60.4248Q107.275-58.252 99.585-56.9092Q91.8945-55.5664 82.6172-55.5664ZM122.559-32.4707L128.271-32.4707Q137.5-32.4707 142.773-37.1094Q148.047-41.748 148.047-49.9023Q148.047-57.9102 142.749-62.5488Q137.451-67.1875 128.271-67.1875L122.559-67.1875L122.559-54.4434L128.271-54.4434Q131.787-54.4434 133.545-53.2715Q135.303-52.0996 135.303-49.9023Q135.303-47.6562 133.521-46.4355Q131.738-45.2148 128.271-45.2148L122.559-45.2148ZM82.2754 17.6758Q97.7539 17.6758 110.571 15.5273Q123.389 13.3789 132.666 9.375Q141.943 5.37109 146.997-0.195312Q152.051-5.76172 152.051-12.5977Q152.051-17.041 149.78-21.0693Q147.51-25.0977 143.164-28.4668Q140.381-27.002 137.109-26.1475Q133.838-25.293 130.127-25.1465Q123.535-13.7207 111.914-7.20215Q100.293-0.683594 85.1562-0.683594L80.0293-0.683594Q68.1152-0.683594 58.3496-4.78516Q48.584-8.88672 41.5771-16.3818Q34.5703-23.877 31.0059-34.1309Q22.0703-30.127 17.2607-24.6582Q12.4512-19.1895 12.4512-12.5977Q12.4512-5.76172 17.5049-0.195312Q22.5586 5.37109 31.8604 9.375Q41.1621 13.3789 53.9795 15.5273Q66.7969 17.6758 82.2754 17.6758Z"/>
  </g>
  <g id="Heavy-M" transform="matrix(1 0 0 1 2555.95 1126)">
   <path d="M78.5645-8.78906L83.5449-8.78906Q93.6035-8.78906 101.685-12.0605Q109.766-15.332 115.552-21.3623Q121.338-27.3926 124.438-35.7422Q127.539-44.0918 127.539-54.1504L127.539-64.5508Q127.539-71.2891 121.753-76.2939Q115.967-81.2988 105.518-84.0332Q95.0684-86.7676 81.1035-86.7676Q67.1387-86.7676 56.665-84.0332Q46.1914-81.2988 40.4053-76.2939Q34.6191-71.2891 34.6191-64.5508L34.6191-54.1504Q34.6191-44.1406 37.7197-35.8398Q40.8203-27.5391 46.582-21.4844Q52.3438-15.4297 60.4736-12.1094Q68.6035-8.78906 78.5645-8.78906ZM81.1035-54.541Q71.582-54.541 63.8184-55.9326Q56.0547-57.3242 51.4648-59.6191Q46.875-61.9141 46.875-64.5508Q46.875-67.1875 51.4648-69.4336Q56.0547-71.6797 63.7939-73.1201Q71.5332-74.5605 81.1035-74.5605Q90.625-74.5605 98.3643-73.1201Q106.104-71.6797 110.718-69.4336Q115.332-67.1875 115.332-64.5508Q115.332-61.9141 110.718-59.6191Q106.104-57.3242 98.3398-55.9326Q90.5762-54.541 81.1035-54.541ZM120.508-32.5195L125.781-32.5195Q134.766-32.5195 139.893-37.0361Q145.02-41.5527 145.02-49.4141Q145.02-57.2266 139.868-61.7188Q134.717-66.2109 125.781-66.2109L120.703-66.2109L120.703-54.6875L125.781-54.6875Q129.59-54.6875 131.543-53.3203Q133.496-51.9531 133.496-49.4141Q133.496-46.875 131.519-45.459Q129.541-44.043 125.781-44.043L120.508-44.043ZM80.7617 16.4062Q95.8984 16.4062 108.423 14.3311Q120.947 12.2559 130.029 8.37402Q139.111 4.49219 144.067-0.878906Q149.023-6.25 149.023-12.8418Q149.023-17.2852 146.606-21.2891Q144.189-25.293 139.6-28.6133Q136.963-27.2461 133.887-26.4893Q130.811-25.7324 127.344-25.5859Q120.947-14.4531 109.619-8.12988Q98.291-1.80664 83.5449-1.80664L78.5645-1.80664Q67.1387-1.80664 57.6904-5.7373Q48.2422-9.66797 41.4307-16.8213Q34.6191-23.9746 31.0547-33.7891Q22.1191-29.9316 17.2852-24.6094Q12.4512-19.2871 12.4512-12.8418Q12.4512-6.25 17.4072-0.878906Q22.3633 4.49219 31.4697 8.37402Q40.5762 12.2559 53.125 14.3311Q65.6738 16.4062 80.7617 16.4062Z"/>
  </g>
  <g id="Bold-M" transform="matrix(1 0 0 1 2260.9 1126)">
   <path d="M77.002-9.61914L81.7383-9.61914Q91.5039-9.61914 99.3896-12.7686Q107.275-15.918 112.939-21.7773Q118.604-27.6367 121.631-35.7666Q124.658-43.8965 124.658-53.8086L124.658-64.0137Q124.658-70.459 118.994-75.2441Q113.33-80.0293 103.149-82.6904Q92.9688-85.3516 79.3945-85.3516Q65.8203-85.3516 55.6152-82.6904Q45.4102-80.0293 39.7461-75.2441Q34.082-70.459 34.082-64.0137L34.082-53.8086Q34.082-44.043 37.1338-35.9619Q40.1855-27.8809 45.8252-21.9727Q51.4648-16.0645 59.375-12.8418Q67.2852-9.61914 77.002-9.61914ZM79.3945-53.3691Q69.6289-53.3691 61.792-54.834Q53.9551-56.2988 49.3408-58.7158Q44.7266-61.1328 44.7266-64.0137Q44.7266-66.9434 49.3408-69.3359Q53.9551-71.7285 61.792-73.2178Q69.6289-74.707 79.3945-74.707Q89.1602-74.707 96.9971-73.2178Q104.834-71.7285 109.448-69.3359Q114.062-66.9434 114.062-64.0137Q114.062-61.1328 109.448-58.7158Q104.834-56.2988 96.9971-54.834Q89.1602-53.3691 79.3945-53.3691ZM118.262-32.6172L123.047-32.6172Q131.738-32.6172 136.694-36.9629Q141.65-41.3086 141.65-48.9258Q141.65-56.4453 136.67-60.791Q131.689-65.1367 123.047-65.1367L118.604-65.1367L118.604-54.9805L123.047-54.9805Q127.1-54.9805 129.272-53.3936Q131.445-51.8066 131.445-48.9258Q131.445-45.9961 129.272-44.3848Q127.1-42.7734 123.047-42.7734L118.262-42.7734ZM79.1016 14.9902Q93.7988 14.9902 106.006 12.9883Q118.213 10.9863 127.1 7.25098Q135.986 3.51562 140.845-1.66016Q145.703-6.83594 145.703-13.1348Q145.703-17.5781 143.091-21.5332Q140.479-25.4883 135.645-28.7598Q133.154-27.5391 130.322-26.8799Q127.49-26.2207 124.219-26.0742Q118.018-15.2832 107.056-9.17969Q96.0938-3.07617 81.7383-3.07617L77.002-3.07617Q66.0156-3.07617 56.9336-6.81152Q47.8516-10.5469 41.2598-17.334Q34.668-24.1211 31.1035-33.4473Q22.2168-29.6875 17.334-24.5361Q12.4512-19.3848 12.4512-13.1348Q12.4512-6.83594 17.3096-1.66016Q22.168 3.51562 31.0791 7.25098Q39.9902 10.9863 52.1973 12.9883Q64.4043 14.9902 79.1016 14.9902Z"/>
  </g>
  <g id="Semibold-M" transform="matrix(1 0 0 1 1965.36 1126)">
   <path d="M75.8789-10.1562L80.5176-10.1562Q90.0391-10.1562 97.7783-13.2324Q105.518-16.3086 111.084-22.0459Q116.65-27.7832 119.653-35.7666Q122.656-43.75 122.656-53.5645L122.656-63.6719Q122.656-69.873 117.09-74.5117Q111.523-79.1504 101.514-81.7383Q91.5039-84.3262 78.1738-84.3262Q64.8926-84.3262 54.8828-81.7383Q44.873-79.1504 39.2822-74.5117Q33.6914-69.873 33.6914-63.6719L33.6914-53.5645Q33.6914-43.9941 36.6943-36.0596Q39.6973-28.125 45.2637-22.3145Q50.8301-16.5039 58.5938-13.3301Q66.3574-10.1562 75.8789-10.1562ZM78.1738-52.5391Q68.2617-52.5391 60.3516-54.0527Q52.4414-55.5664 47.8516-58.0811Q43.2617-60.5957 43.2617-63.6719Q43.2617-66.748 47.8516-69.2383Q52.4414-71.7285 60.3516-73.2666Q68.2617-74.8047 78.1738-74.8047Q88.1348-74.8047 96.0449-73.2666Q103.955-71.7285 108.545-69.2383Q113.135-66.748 113.135-63.6719Q113.135-60.5957 108.545-58.0811Q103.955-55.5664 96.0449-54.0527Q88.1348-52.5391 78.1738-52.5391ZM116.65-32.6172L121.094-32.6172Q129.59-32.6172 134.448-36.8652Q139.307-41.1133 139.307-48.5352Q139.307-55.9082 134.424-60.1562Q129.541-64.4043 121.094-64.4043L117.188-64.4043L117.188-55.1758L121.094-55.1758Q125.391-55.1758 127.71-53.418Q130.029-51.6602 130.029-48.5352Q130.029-45.4102 127.71-43.6279Q125.391-41.8457 121.094-41.8457L116.65-41.8457ZM77.9297 13.9648Q92.334 13.9648 104.321 12.0117Q116.309 10.0586 125.073 6.4209Q133.838 2.7832 138.599-2.19727Q143.359-7.17773 143.359-13.2812Q143.359-17.7246 140.649-21.6797Q137.939-25.6348 132.91-28.8574Q130.518-27.7344 127.832-27.124Q125.146-26.5137 122.07-26.416Q116.016-15.8691 105.273-9.8877Q94.5312-3.90625 80.5176-3.90625L75.8789-3.90625Q65.2344-3.90625 56.4209-7.51953Q47.6074-11.1328 41.1377-17.6758Q34.668-24.2188 31.1523-33.1543Q22.2168-29.541 17.334-24.4873Q12.4512-19.4336 12.4512-13.2812Q12.4512-7.17773 17.2363-2.19727Q22.0215 2.7832 30.7861 6.4209Q39.5508 10.0586 51.5137 12.0117Q63.4766 13.9648 77.9297 13.9648Z"/>
  </g>
  <g id="Medium-M" transform="matrix(1 0 0 1 1669.53 1126)">
   <path d="M75-10.5957L79.541-10.5957Q88.916-10.5957 96.5576-13.623Q104.199-16.6504 109.717-22.29Q115.234-27.9297 118.188-35.8154Q121.143-43.7012 121.143-53.3691L121.143-63.3789Q121.143-69.4336 115.649-73.9746Q110.156-78.5156 100.269-81.0303Q90.3809-83.5449 77.2949-83.5449Q64.209-83.5449 54.3213-81.0303Q44.4336-78.5156 38.9404-73.9746Q33.4473-69.4336 33.4473-63.3789L33.4473-53.3691Q33.4473-43.8965 36.4014-36.084Q39.3555-28.2715 44.873-22.5586Q50.3906-16.8457 58.0322-13.7207Q65.6738-10.5957 75-10.5957ZM77.2949-51.9043Q67.2363-51.9043 59.3018-53.4668Q51.3672-55.0293 46.7529-57.6172Q42.1387-60.2051 42.1387-63.3789Q42.1387-66.6016 46.7529-69.1895Q51.3672-71.7773 59.3018-73.3154Q67.2363-74.8535 77.2949-74.8535Q87.4023-74.8535 95.3369-73.3154Q103.271-71.7773 107.886-69.1895Q112.5-66.6016 112.5-63.3789Q112.5-60.2051 107.886-57.6172Q103.271-55.0293 95.3125-53.4668Q87.3535-51.9043 77.2949-51.9043ZM115.479-32.666L119.678-32.666Q128.027-32.666 132.764-36.8164Q137.5-40.9668 137.5-48.2422Q137.5-55.5176 132.739-59.668Q127.979-63.8184 119.678-63.8184L116.064-63.8184L116.064-55.3223L119.678-55.3223Q124.121-55.3223 126.538-53.4424Q128.955-51.5625 128.955-48.2422Q128.955-44.9219 126.514-43.042Q124.072-41.1621 119.678-41.1621L115.479-41.1621ZM77.0508 13.2324Q91.2109 13.2324 103.052 11.3281Q114.893 9.42383 123.535 5.85938Q132.178 2.29492 136.89-2.58789Q141.602-7.4707 141.602-13.4277Q141.602-17.8711 138.794-21.8018Q135.986-25.7324 130.811-28.9062Q128.516-27.8809 125.952-27.3193Q123.389-26.7578 120.459-26.6602Q114.502-16.2598 103.931-10.4248Q93.3594-4.58984 79.541-4.58984L75-4.58984Q64.6484-4.58984 56.0059-8.08105Q47.3633-11.5723 41.0156-17.9199Q34.668-24.2676 31.1523-32.959Q22.2656-29.3945 17.3584-24.4385Q12.4512-19.4824 12.4512-13.4277Q12.4512-7.4707 17.1875-2.58789Q21.9238 2.29492 30.5664 5.85938Q39.209 9.42383 51.0254 11.3281Q62.8418 13.2324 77.0508 13.2324Z"/>
  </g>
  <g id="Regular-M" transform="matrix(1 0 0 1 1373.97 1126)">
   <path d="M73.9258-11.1328L78.3203-11.1328Q87.5-11.1328 94.9951-14.0869Q102.49-17.041 107.91-22.5586Q113.33-28.0762 116.26-35.8154Q119.189-43.5547 119.189-53.125L119.189-63.0371Q119.189-68.8477 113.77-73.2422Q108.35-77.6367 98.6572-80.1025Q88.9648-82.5684 76.123-82.5684Q63.2812-82.5684 53.5889-80.1025Q43.8965-77.6367 38.4766-73.2422Q33.0566-68.8477 33.0566-63.0371L33.0566-53.125Q33.0566-43.8477 35.9863-36.1816Q38.916-28.5156 44.3359-22.9004Q49.7559-17.2852 57.2754-14.209Q64.7949-11.1328 73.9258-11.1328ZM76.123-51.123Q65.918-51.123 57.9102-52.71Q49.9023-54.2969 45.2881-56.9824Q40.6738-59.668 40.6738-63.0371Q40.6738-66.4062 45.2881-69.0918Q49.9023-71.7773 57.9102-73.3643Q65.918-74.9512 76.123-74.9512Q86.377-74.9512 94.3848-73.3643Q102.393-71.7773 107.007-69.0918Q111.621-66.4062 111.621-63.0371Q111.621-59.668 107.007-56.9824Q102.393-54.2969 94.3848-52.71Q86.377-51.123 76.123-51.123ZM113.916-32.7148L117.773-32.7148Q125.928-32.7148 130.566-36.7676Q135.205-40.8203 135.205-47.9004Q135.205-54.9805 130.542-59.0332Q125.879-63.0859 117.773-63.0859L114.648-63.0859L114.648-55.5176L117.773-55.5176Q122.412-55.5176 125-53.4912Q127.588-51.4648 127.588-47.9004Q127.588-44.3359 125-42.3096Q122.412-40.2832 117.773-40.2832L113.916-40.2832ZM75.8789 12.2559Q89.7949 12.2559 101.416 10.4004Q113.037 8.54492 121.533 5.07812Q130.029 1.61133 134.668-3.125Q139.307-7.86133 139.307-13.623Q139.307-18.0664 136.377-21.9727Q133.447-25.8789 128.125-29.0039Q125.928-28.0762 123.511-27.5879Q121.094-27.0996 118.311-27.002Q112.5-16.8457 102.173-11.1328Q91.8457-5.41992 78.3203-5.41992L73.9258-5.41992Q63.916-5.41992 55.5176-8.78906Q47.1191-12.1582 40.918-18.2617Q34.7168-24.3652 31.2012-32.7148Q22.3145-29.248 17.3828-24.3896Q12.4512-19.5312 12.4512-13.623Q12.4512-7.86133 17.1143-3.125Q21.7773 1.61133 30.2734 5.07812Q38.7695 8.54492 50.3662 10.4004Q61.9629 12.2559 75.8789 12.2559Z"/>
  </g>
  <g id="Light-M" transform="matrix(1 0 0 1 1079.33 1126)">
   <path d="M72.0703-11.4258L75.8301-11.4258Q85.1074-11.4258 92.5537-14.3555Q100-17.2852 105.273-22.7051Q110.547-28.125 113.354-35.6934Q116.162-43.2617 116.162-52.5391L116.162-62.1094Q116.162-67.5781 110.815-71.8018Q105.469-76.0254 95.9717-78.418Q86.4746-80.8105 73.9746-80.8105Q61.4258-80.8105 51.9287-78.418Q42.4316-76.0254 37.085-71.8018Q31.7383-67.5781 31.7383-62.1094L31.7383-52.5391Q31.7383-43.457 34.5459-35.9375Q37.3535-28.418 42.627-22.9248Q47.9004-17.4316 55.3467-14.4287Q62.793-11.4258 72.0703-11.4258ZM73.9746-49.3164Q63.4277-49.3164 55.2246-51.0254Q47.0215-52.7344 42.334-55.6152Q37.6465-58.4961 37.6465-62.1094Q37.6465-65.7227 42.334-68.6035Q47.0215-71.4844 55.2246-73.1934Q63.4277-74.9023 73.9746-74.9023Q84.4727-74.9023 92.6758-73.1934Q100.879-71.4844 105.591-68.6035Q110.303-65.7227 110.303-62.1094Q110.303-58.4961 105.591-55.6152Q100.879-52.7344 92.6758-51.0254Q84.4727-49.3164 73.9746-49.3164ZM111.279-33.1055L115.234-33.1055Q122.754-33.1055 127.1-36.9629Q131.445-40.8203 131.445-47.4121Q131.445-54.0039 127.075-57.8613Q122.705-61.7188 115.234-61.7188L112.939-61.7188L112.939-55.9082L115.234-55.9082Q120.02-55.9082 122.803-53.6133Q125.586-51.3184 125.586-47.4121Q125.586-43.5059 122.803-41.2109Q120.02-38.916 115.234-38.916L111.279-38.916ZM73.7793 10.4492Q87.207 10.4492 98.4375 8.69141Q109.668 6.93359 117.896 3.6377Q126.123 0.341797 130.64-4.15039Q135.156-8.64258 135.156-14.1113Q135.156-18.5547 131.934-22.4609Q128.711-26.3672 122.852-29.3945Q121.094-28.7598 119.287-28.4424Q117.48-28.125 115.332-28.0273Q109.766-17.7734 99.5605-12.085Q89.3555-6.39648 75.8301-6.39648L72.0703-6.39648Q62.2559-6.39648 54.126-9.5459Q45.9961-12.6953 40.0146-18.457Q34.0332-24.2188 30.6152-32.1777Q21.9727-28.8574 17.2119-24.2432Q12.4512-19.6289 12.4512-14.1113Q12.4512-8.64258 16.9678-4.15039Q21.4844 0.341797 29.7363 3.6377Q37.9883 6.93359 49.1943 8.69141Q60.4004 10.4492 73.7793 10.4492Z"/>
  </g>
  <g id="Thin-M" transform="matrix(1 0 0 1 785.377 1126)">
   <path d="M69.6289-11.8164L72.4609-11.8164Q81.9336-11.8164 89.3066-14.7217Q96.6797-17.627 101.782-22.9248Q106.885-28.2227 109.497-35.5469Q112.109-42.8711 112.109-51.7578L112.109-60.8887Q112.109-65.918 106.86-69.873Q101.611-73.8281 92.3584-76.1475Q83.1055-78.4668 71.0938-78.4668Q59.0332-78.4668 49.7803-76.1475Q40.5273-73.8281 35.2783-69.873Q30.0293-65.918 30.0293-60.8887L30.0293-51.7578Q30.0293-42.9199 32.666-35.6201Q35.3027-28.3203 40.3564-22.998Q45.4102-17.6758 52.7832-14.7461Q60.1562-11.8164 69.6289-11.8164ZM71.0938-46.9238Q60.2051-46.9238 51.7334-48.7793Q43.2617-50.6348 38.4277-53.8086Q33.5938-56.9824 33.5938-60.8887Q33.5938-64.7949 38.4277-67.9443Q43.2617-71.0938 51.7334-72.9736Q60.2051-74.8535 71.0938-74.8535Q81.9824-74.8535 90.4541-72.9736Q98.9258-71.0938 103.735-67.9443Q108.545-64.7949 108.545-60.8887Q108.545-56.9824 103.735-53.8086Q98.9258-50.6348 90.4541-48.7793Q81.9824-46.9238 71.0938-46.9238ZM107.812-33.5938L111.816-33.5938Q118.506-33.5938 122.485-37.1826Q126.465-40.7715 126.465-46.7773Q126.465-52.7344 122.485-56.3232Q118.506-59.9121 111.816-59.9121L110.693-59.9121L110.693-56.3965L111.816-56.3965Q116.846-56.3965 119.897-53.7842Q122.949-51.1719 122.949-46.7773Q122.949-42.3828 119.897-39.7461Q116.846-37.1094 111.816-37.1094L107.812-37.1094ZM71.0449 8.10547Q83.7891 8.10547 94.4824 6.4209Q105.176 4.73633 113.086 1.68457Q120.996-1.36719 125.317-5.54199Q129.639-9.7168 129.639-14.6973Q129.639-19.1406 126.05-23.0469Q122.461-26.9531 115.82-29.9316Q114.697-29.6875 113.672-29.5654Q112.646-29.4434 111.328-29.4434Q106.152-18.9941 96.0693-13.3301Q85.9863-7.66602 72.4609-7.66602L69.6289-7.66602Q60.1074-7.66602 52.3193-10.5225Q44.5312-13.3789 38.8184-18.7256Q33.1055-24.0723 29.834-31.4941Q21.4844-28.3203 16.9678-24.0234Q12.4512-19.7266 12.4512-14.6973Q12.4512-9.7168 16.7969-5.54199Q21.1426-1.36719 29.0283 1.68457Q36.9141 4.73633 47.6074 6.4209Q58.3008 8.10547 71.0449 8.10547Z"/>
  </g>
  <g id="Ultralight-M" transform="matrix(1 0 0 1 490.082 1126)">
   <path d="M68.4082-12.0605L70.8008-12.0605Q80.3223-12.0605 87.6709-14.917Q95.0195-17.7734 100-23.0225Q104.98-28.2715 107.52-35.4736Q110.059-42.6758 110.059-51.3672L110.059-60.2539Q110.059-65.0391 104.858-68.8965Q99.6582-72.7539 90.5518-75Q81.4453-77.2461 69.6289-77.2461Q57.7637-77.2461 48.6572-75Q39.5508-72.7539 34.3506-68.8965Q29.1504-65.0391 29.1504-60.2539L29.1504-51.3672Q29.1504-42.6758 31.6895-35.4736Q34.2285-28.2715 39.209-23.0225Q44.1895-17.7734 51.4893-14.917Q58.7891-12.0605 68.4082-12.0605ZM69.6289-45.6543Q58.4961-45.6543 49.9023-47.6074Q41.3086-49.5605 36.4258-52.8809Q31.543-56.2012 31.543-60.2539Q31.543-64.3066 36.4258-67.6025Q41.3086-70.8984 49.9023-72.8516Q58.4961-74.8047 69.6289-74.8047Q80.7129-74.8047 89.3066-72.8516Q97.9004-70.8984 102.783-67.6025Q107.666-64.3066 107.666-60.2539Q107.666-56.2012 102.783-52.8809Q97.9004-49.5605 89.3066-47.6074Q80.7129-45.6543 69.6289-45.6543ZM106.055-33.8379L110.107-33.8379Q116.357-33.8379 120.142-37.3047Q123.926-40.7715 123.926-46.4355Q123.926-52.0508 120.142-55.5176Q116.357-58.9844 110.107-58.9844L109.57-58.9844L109.57-56.6406L110.107-56.6406Q115.234-56.6406 118.408-53.8574Q121.582-51.0742 121.582-46.4355Q121.582-41.8457 118.408-39.0137Q115.234-36.1816 110.107-36.1816L106.055-36.1816ZM69.6289 6.88477Q82.0312 6.88477 92.4805 5.27344Q102.93 3.66211 110.645 0.708008Q118.359-2.24609 122.583-6.25Q126.807-10.2539 126.807-15.0391Q126.807-19.4824 123.022-23.3887Q119.238-27.2949 112.256-30.2246Q111.377-30.1758 110.791-30.1514Q110.205-30.127 109.326-30.127Q104.297-19.6289 94.3115-13.9893Q84.3262-8.34961 70.8008-8.34961L68.4082-8.34961Q58.9844-8.34961 51.3672-11.0596Q43.75-13.7695 38.1836-18.8721Q32.6172-23.9746 29.4434-31.1035Q21.2402-28.0762 16.8457-23.9258Q12.4512-19.7754 12.4512-15.0391Q12.4512-10.2539 16.6992-6.25Q20.9473-2.24609 28.6621 0.708008Q36.377 3.66211 46.8018 5.27344Q57.2266 6.88477 69.6289 6.88477Z"/>
  </g>
  <g id="Black-S" transform="matrix(1 0 0 1 2868.61 696)">
   <path d="M63.0371-13.7207L67.0898-13.7207Q77.9297-13.7207 85.9131-18.4082Q93.8965-23.0957 98.2422-31.3721Q102.588-39.6484 102.588-50.3418L102.588-58.6426Q102.588-64.2578 97.9248-68.3594Q93.2617-72.4609 84.8145-74.707Q76.3672-76.9531 65.0879-76.9531Q53.8086-76.9531 45.3613-74.707Q36.9141-72.4609 32.251-68.3594Q27.5879-64.2578 27.5879-58.6426L27.5879-50.3418Q27.5879-39.6484 31.9336-31.3721Q36.2793-23.0957 44.2383-18.4082Q52.1973-13.7207 63.0371-13.7207ZM65.0879-51.3672Q57.8613-51.3672 51.8555-52.417Q45.8496-53.4668 42.2363-55.1514Q38.623-56.8359 38.623-58.6426Q38.623-60.498 42.2119-62.1338Q45.8008-63.7695 51.8311-64.8193Q57.8613-65.8691 65.0879-65.8691Q72.3633-65.8691 78.3447-64.8193Q84.3262-63.7695 87.915-62.1338Q91.5039-60.498 91.5039-58.6426Q91.5039-56.8359 87.915-55.1514Q84.3262-53.4668 78.3203-52.417Q72.3145-51.3672 65.0879-51.3672ZM96.4844-33.0566L101.123-33.0566Q108.398-33.0566 112.549-36.7432Q116.699-40.4297 116.699-46.8262Q116.699-53.1738 112.524-56.8359Q108.35-60.498 101.123-60.498L96.4844-60.498L96.4844-50.2441L101.123-50.2441Q103.809-50.2441 105.127-49.3652Q106.445-48.4863 106.445-46.8262Q106.445-45.166 105.103-44.2383Q103.76-43.3105 101.123-43.3105L96.4844-43.3105ZM64.7949 6.49414Q77.0508 6.49414 87.1338 4.78516Q97.2168 3.07617 104.541-0.0732422Q111.865-3.22266 115.845-7.61719Q119.824-12.0117 119.824-17.4316Q119.824-20.9473 118.066-24.0967Q116.309-27.2461 112.939-29.9316Q110.742-28.7598 108.154-28.0762Q105.566-27.3926 102.637-27.2461Q97.4609-18.2129 88.2568-13.0371Q79.0527-7.86133 67.0898-7.86133L63.0371-7.86133Q53.6133-7.86133 45.8496-11.1084Q38.0859-14.3555 32.5684-20.3369Q27.0508-26.3184 24.2676-34.4238Q17.2852-31.2988 13.5254-26.9775Q9.76562-22.6562 9.76562-17.4316Q9.76562-12.0117 13.7451-7.61719Q17.7246-3.22266 25.0488-0.0732422Q32.373 3.07617 42.4805 4.78516Q52.5879 6.49414 64.7949 6.49414Z"/>
  </g>
  <g id="Heavy-S" transform="matrix(1 0 0 1 2572.92 696)">
   <path d="M62.0605-14.3066L66.0156-14.3066Q76.5625-14.3066 84.375-18.8477Q92.1875-23.3887 96.46-31.4697Q100.732-39.5508 100.732-50.1465L100.732-58.3496Q100.732-63.7695 96.167-67.7246Q91.6016-71.6797 83.3496-73.877Q75.0977-76.0742 64.0625-76.0742Q53.0273-76.0742 44.751-73.877Q36.4746-71.6797 31.9092-67.7246Q27.3438-63.7695 27.3438-58.3496L27.3438-50.1465Q27.3438-39.6484 31.6406-31.5674Q35.9375-23.4863 43.7256-18.8965Q51.5137-14.3066 62.0605-14.3066ZM64.0625-50.6836Q56.6895-50.6836 50.6348-51.7822Q44.5801-52.8809 40.9912-54.6387Q37.4023-56.3965 37.4023-58.3496Q37.4023-60.3516 40.9668-62.085Q44.5312-63.8184 50.6104-64.8926Q56.6895-65.9668 64.0625-65.9668Q71.4844-65.9668 77.5146-64.8926Q83.5449-63.8184 87.1094-62.085Q90.6738-60.3516 90.6738-58.3496Q90.6738-56.3965 87.1094-54.6387Q83.5449-52.8809 77.4902-51.7822Q71.4355-50.6836 64.0625-50.6836ZM95.0684-33.0566L99.3164-33.0566Q106.445-33.0566 110.522-36.6455Q114.6-40.2344 114.6-46.4844Q114.6-52.6855 110.522-56.2744Q106.445-59.8633 99.3164-59.8633L95.1172-59.8633L95.1172-50.3906L99.3164-50.3906Q102.197-50.3906 103.687-49.3896Q105.176-48.3887 105.176-46.4844Q105.176-44.5801 103.687-43.5303Q102.197-42.4805 99.3164-42.4805L95.0684-42.4805ZM63.7695 5.61523Q75.7812 5.61523 85.6689 3.95508Q95.5566 2.29492 102.759-0.756836Q109.961-3.80859 113.867-8.08105Q117.773-12.3535 117.773-17.5781Q117.773-21.0938 115.918-24.2188Q114.062-27.3438 110.596-29.9805Q108.447-28.9062 105.957-28.2715Q103.467-27.6367 100.635-27.4902Q95.6055-18.75 86.6455-13.7207Q77.6855-8.69141 66.0156-8.69141L62.0605-8.69141Q52.9785-8.69141 45.459-11.8164Q37.9395-14.9414 32.5439-20.6787Q27.1484-26.416 24.3652-34.2285Q17.3828-31.1523 13.5742-26.9287Q9.76562-22.7051 9.76562-17.5781Q9.76562-12.3535 13.6719-8.08105Q17.5781-3.80859 24.7803-0.756836Q31.9824 2.29492 41.8945 3.95508Q51.8066 5.61523 63.7695 5.61523Z"/>
  </g>
  <g id="Bold-S" transform="matrix(1 0 0 1 2277.33 696)">
   <path d="M60.9375-14.9902L64.8438-14.9902Q75-14.9902 82.6416-19.3604Q90.2832-23.7305 94.5068-31.6162Q98.7305-39.502 98.7305-49.9512L98.7305-58.0566Q98.7305-63.2324 94.2627-67.041Q89.7949-70.8496 81.7383-72.9492Q73.6816-75.0488 62.8906-75.0488Q52.1484-75.0488 44.0918-72.9492Q36.0352-70.8496 31.5674-67.041Q27.0996-63.2324 27.0996-58.0566L27.0996-49.9512Q27.0996-39.6973 31.3232-31.8115Q35.5469-23.9258 43.1641-19.458Q50.7812-14.9902 60.9375-14.9902ZM62.8906-49.9512Q55.3711-49.9512 49.2676-51.0742Q43.1641-52.1973 39.5752-54.0527Q35.9863-55.9082 35.9863-58.0566Q35.9863-60.2539 39.5752-62.085Q43.1641-63.916 49.2676-65.0146Q55.3711-66.1133 62.8906-66.1133Q70.5078-66.1133 76.5869-65.0146Q82.666-63.916 86.2305-62.085Q89.7949-60.2539 89.7949-58.0566Q89.7949-55.9082 86.2305-54.0527Q82.666-52.1973 76.5625-51.0742Q70.459-49.9512 62.8906-49.9512ZM93.5059-33.0566L97.3145-33.0566Q104.297-33.0566 108.276-36.5479Q112.256-40.0391 112.256-46.0938Q112.256-52.1973 108.276-55.6641Q104.297-59.1309 97.3145-59.1309L93.6035-59.1309L93.6035-50.5859L97.3145-50.5859Q100.439-50.5859 102.075-49.4385Q103.711-48.291 103.711-46.0938Q103.711-43.9941 102.075-42.7979Q100.439-41.6016 97.3145-41.6016L93.5059-41.6016ZM62.6465 4.6875Q74.3652 4.6875 84.0332 3.07617Q93.7012 1.46484 100.757-1.51367Q107.812-4.49219 111.67-8.61816Q115.527-12.7441 115.527-17.7734Q115.527-21.2891 113.574-24.3896Q111.621-27.4902 107.959-30.0293Q105.908-29.0527 103.516-28.4668Q101.123-27.8809 98.3887-27.7832Q93.5059-19.3359 84.8145-14.502Q76.123-9.66797 64.8438-9.66797L60.9375-9.66797Q52.2461-9.66797 45.0195-12.6465Q37.793-15.625 32.5439-21.0938Q27.2949-26.5625 24.5117-33.9844Q17.4805-31.0547 13.623-26.9287Q9.76562-22.8027 9.76562-17.7734Q9.76562-12.7441 13.623-8.61816Q17.4805-4.49219 24.5361-1.51367Q31.5918 1.46484 41.2842 3.07617Q50.9766 4.6875 62.6465 4.6875Z"/>
  </g>
  <g id="Semibold-S" transform="matrix(1 0 0 1 1981.43 696)">
   <path d="M60.1562-15.4297L64.0137-15.4297Q73.9258-15.4297 81.4209-19.7021Q88.916-23.9746 93.1152-31.6895Q97.3145-39.4043 97.3145-49.7559L97.3145-57.8613Q97.3145-62.8418 92.8955-66.5527Q88.4766-70.2637 80.5664-72.3145Q72.6562-74.3652 62.1094-74.3652Q51.5625-74.3652 43.6279-72.3145Q35.6934-70.2637 31.2988-66.5527Q26.9043-62.8418 26.9043-57.8613L26.9043-49.7559Q26.9043-39.6973 31.0791-31.958Q35.2539-24.2188 42.749-19.8242Q50.2441-15.4297 60.1562-15.4297ZM62.1094-49.4141Q54.4434-49.4141 48.3154-50.5859Q42.1875-51.7578 38.5986-53.6377Q35.0098-55.5176 35.0098-57.8613Q35.0098-60.1074 38.5986-62.0117Q42.1875-63.916 48.3154-65.0635Q54.4434-66.2109 62.1094-66.2109Q69.7754-66.2109 75.9033-65.0635Q82.0312-63.916 85.5957-62.0117Q89.1602-60.1074 89.1602-57.8613Q89.1602-55.5176 85.5957-53.6377Q82.0312-51.7578 75.9033-50.5859Q69.7754-49.4141 62.1094-49.4141ZM92.4316-33.0566L95.9473-33.0566Q102.783-33.0566 106.689-36.4502Q110.596-39.8438 110.596-45.8496Q110.596-51.8066 106.689-55.2002Q102.783-58.5938 95.9473-58.5938L92.5293-58.5938L92.5293-50.7324L95.9473-50.7324Q99.2188-50.7324 100.977-49.4629Q102.734-48.1934 102.734-45.8496Q102.734-43.5547 100.977-42.2607Q99.2188-40.9668 95.9473-40.9668L92.4316-40.9668ZM61.8164 4.00391Q73.3398 4.00391 82.8857 2.44141Q92.4316 0.878906 99.3896-2.02637Q106.348-4.93164 110.132-8.95996Q113.916-12.9883 113.916-17.8711Q113.916-21.3867 111.89-24.4629Q109.863-27.5391 106.104-30.0781Q104.102-29.1504 101.782-28.6133Q99.4629-28.0762 96.8262-27.9297Q92.041-19.7266 83.5449-15.0146Q75.0488-10.3027 64.0137-10.3027L60.1562-10.3027Q51.7578-10.3027 44.7021-13.1836Q37.6465-16.0645 32.5195-21.3623Q27.3926-26.6602 24.6094-33.7891Q17.5293-30.9082 13.6475-26.8555Q9.76562-22.8027 9.76562-17.8711Q9.76562-12.9883 13.5498-8.95996Q17.334-4.93164 24.292-2.02637Q31.25 0.878906 40.7959 2.44141Q50.3418 4.00391 61.8164 4.00391Z"/>
  </g>
  <g id="Medium-S" transform="matrix(1 0 0 1 1685.3 696)">
   <path d="M59.5703-15.7715L63.4277-15.7715Q73.1445-15.7715 80.542-19.9463Q87.9395-24.1211 92.0898-31.7383Q96.2402-39.3555 96.2402-49.6582L96.2402-57.666Q96.2402-62.5488 91.8945-66.1865Q87.5488-69.8242 79.7363-71.8262Q71.9238-73.8281 61.4746-73.8281Q51.0742-73.8281 43.2617-71.8262Q35.4492-69.8242 31.1035-66.1865Q26.7578-62.5488 26.7578-57.666L26.7578-49.6582Q26.7578-39.7461 30.9082-32.0801Q35.0586-24.4141 42.4561-20.0928Q49.8535-15.7715 59.5703-15.7715ZM61.4746-49.0234Q53.7598-49.0234 47.6074-50.1953Q41.4551-51.3672 37.8662-53.3203Q34.2773-55.2734 34.2773-57.666Q34.2773-60.0586 37.8662-62.0117Q41.4551-63.9648 47.6074-65.1123Q53.7598-66.2598 61.4746-66.2598Q69.2871-66.2598 75.415-65.1123Q81.543-63.9648 85.1318-62.0117Q88.7207-60.0586 88.7207-57.666Q88.7207-55.2734 85.1318-53.3203Q81.543-51.3672 75.415-50.1953Q69.2871-49.0234 61.4746-49.0234ZM91.6016-33.0566L94.873-33.0566Q101.66-33.0566 105.518-36.4014Q109.375-39.7461 109.375-45.6055Q109.375-51.5137 105.518-54.8584Q101.66-58.2031 94.873-58.2031L91.6992-58.2031L91.6992-50.7812L94.873-50.7812Q98.291-50.7812 100.122-49.4629Q101.953-48.1445 101.953-45.6055Q101.953-43.2129 100.122-41.8457Q98.291-40.4785 94.873-40.4785L91.6016-40.4785ZM61.2305 3.4668Q72.6074 3.4668 82.0312 1.95312Q91.4551 0.439453 98.3398-2.41699Q105.225-5.27344 108.984-9.22852Q112.744-13.1836 112.744-17.9688Q112.744-21.4844 110.669-24.5361Q108.594-27.5879 104.736-30.0781Q102.783-29.1992 100.513-28.6865Q98.2422-28.1738 95.6543-28.0762Q90.918-20.0195 82.5928-15.4053Q74.2676-10.791 63.4277-10.791L59.5703-10.791Q51.3672-10.791 44.458-13.623Q37.5488-16.4551 32.4951-21.582Q27.4414-26.709 24.6582-33.6426Q17.627-30.8594 13.6963-26.8555Q9.76562-22.8516 9.76562-17.9688Q9.76562-13.1836 13.5254-9.22852Q17.2852-5.27344 24.1699-2.41699Q31.0547 0.439453 40.4785 1.95312Q49.9023 3.4668 61.2305 3.4668Z"/>
  </g>
  <g id="Regular-S" transform="matrix(1 0 0 1 1389.37 696)">
   <path d="M58.8379-16.2109L62.5977-16.2109Q72.0703-16.2109 79.3457-20.2881Q86.6211-24.3652 90.7227-31.8359Q94.8242-39.3066 94.8242-49.5117L94.8242-57.4707Q94.8242-62.1582 90.5518-65.6982Q86.2793-69.2383 78.6133-71.1914Q70.9473-73.1445 60.6934-73.1445Q50.4883-73.1445 42.7979-71.1914Q35.1074-69.2383 30.835-65.6982Q26.5625-62.1582 26.5625-57.4707L26.5625-49.5117Q26.5625-39.7461 30.6641-32.2266Q34.7656-24.707 42.0654-20.459Q49.3652-16.2109 58.8379-16.2109ZM60.6934-48.5352Q52.832-48.5352 46.6553-49.7314Q40.4785-50.9277 36.9141-52.9297Q33.3496-54.9316 33.3496-57.4707Q33.3496-59.9609 36.9141-61.9873Q40.4785-64.0137 46.6553-65.1855Q52.832-66.3574 60.6934-66.3574Q68.6035-66.3574 74.7803-65.1855Q80.957-64.0137 84.5215-61.9873Q88.0859-59.9609 88.0859-57.4707Q88.0859-54.9316 84.5215-52.9297Q80.957-50.9277 74.7803-49.7314Q68.6035-48.5352 60.6934-48.5352ZM90.5273-33.0566L93.5059-33.0566Q100.195-33.0566 103.979-36.3281Q107.764-39.5996 107.764-45.3613Q107.764-51.1719 103.979-54.4434Q100.195-57.7148 93.5059-57.7148L90.6738-57.7148L90.6738-50.9277L93.5059-50.9277Q97.0703-50.9277 99.0234-49.4873Q100.977-48.0469 100.977-45.3613Q100.977-42.7734 99.0234-41.3086Q97.0703-39.8438 93.5059-39.8438L90.5273-39.8438ZM60.4492 2.83203Q71.6309 2.83203 80.9082 1.34277Q90.1855-0.146484 96.9727-2.92969Q103.76-5.71289 107.471-9.57031Q111.182-13.4277 111.182-18.0664Q111.182-21.582 109.033-24.6338Q106.885-27.6855 102.93-30.127Q101.025-29.2969 98.8281-28.833Q96.6309-28.3691 94.1406-28.2715Q89.502-20.4102 81.3477-15.918Q73.1934-11.4258 62.5977-11.4258L58.8379-11.4258Q50.8789-11.4258 44.165-14.1602Q37.4512-16.8945 32.4951-21.8506Q27.5391-26.8066 24.7559-33.4961Q17.6758-30.7617 13.7207-26.8311Q9.76562-22.9004 9.76562-18.0664Q9.76562-13.4277 13.4766-9.57031Q17.1875-5.71289 23.9746-2.92969Q30.7617-0.146484 40.0391 1.34277Q49.3164 2.83203 60.4492 2.83203Z"/>
  </g>
  <g id="Light-S" transform="matrix(1 0 0 1 1094.49 696)">
   <path d="M57.2266-16.4551L60.3516-16.4551Q70.0195-16.4551 77.1729-20.4834Q84.3262-24.5117 88.2324-31.8359Q92.1387-39.1602 92.1387-48.9746L92.1387-56.6406Q92.1387-61.0352 87.9395-64.4287Q83.7402-67.8223 76.2207-69.7021Q68.7012-71.582 58.7891-71.582Q48.877-71.582 41.3574-69.7021Q33.8379-67.8223 29.6143-64.4287Q25.3906-61.0352 25.3906-56.6406L25.3906-48.9746Q25.3906-39.4531 29.3213-32.1045Q33.252-24.7559 40.4053-20.6055Q47.5586-16.4551 57.2266-16.4551ZM58.7891-46.9238Q50.6348-46.9238 44.2871-48.2178Q37.9395-49.5117 34.3018-51.709Q30.6641-53.9062 30.6641-56.6406Q30.6641-59.375 34.3018-61.5723Q37.9395-63.7695 44.2871-65.0391Q50.6348-66.3086 58.7891-66.3086Q66.9434-66.3086 73.291-65.0391Q79.6387-63.7695 83.2764-61.5723Q86.9141-59.375 86.9141-56.6406Q86.9141-53.9062 83.2764-51.709Q79.6387-49.5117 73.291-48.2178Q66.9434-46.9238 58.7891-46.9238ZM88.2324-33.3984L91.2598-33.3984Q97.3633-33.3984 100.903-36.499Q104.443-39.5996 104.443-44.9219Q104.443-50.3418 100.903-53.418Q97.3633-56.4941 91.2598-56.4941L89.1602-56.4941L89.1602-51.2695L91.2598-51.2695Q94.9707-51.2695 97.0703-49.585Q99.1699-47.9004 99.1699-44.9219Q99.1699-42.041 97.0703-40.332Q94.9707-38.623 91.2598-38.623L88.2324-38.623ZM58.5938 1.26953Q69.3359 1.26953 78.2715-0.146484Q87.207-1.5625 93.75-4.22363Q100.293-6.88477 103.906-10.498Q107.52-14.1113 107.52-18.5059Q107.52-21.9727 105.103-25.0244Q102.686-28.0762 98.2422-30.5176Q96.7285-29.8828 95.0684-29.5654Q93.4082-29.248 91.5039-29.1992Q87.0605-21.1914 79.0039-16.7236Q70.9473-12.2559 60.3516-12.2559L57.2266-12.2559Q49.4141-12.2559 42.9443-14.8193Q36.4746-17.3828 31.7139-22.0215Q26.9531-26.6602 24.2188-33.0078Q17.334-30.4199 13.5498-26.709Q9.76562-22.998 9.76562-18.5059Q9.76562-14.1113 13.3545-10.498Q16.9434-6.88477 23.4863-4.22363Q30.0293-1.5625 38.9648-0.146484Q47.9004 1.26953 58.5938 1.26953Z"/>
  </g>
  <g id="Thin-S" transform="matrix(1 0 0 1 800.221 696)">
   <path d="M55.0293-16.7969L57.4219-16.7969Q67.2852-16.7969 74.2676-20.7764Q81.25-24.7559 84.9365-31.8604Q88.623-38.9648 88.623-48.3398L88.623-55.5664Q88.623-59.5703 84.4971-62.7441Q80.3711-65.918 73.0713-67.7246Q65.7715-69.5312 56.25-69.5312Q46.7285-69.5312 39.4287-67.7246Q32.1289-65.918 28.0029-62.7441Q23.877-59.5703 23.877-55.5664L23.877-48.3398Q23.877-39.0625 27.5391-31.958Q31.2012-24.8535 38.1836-20.8252Q45.166-16.7969 55.0293-16.7969ZM56.25-44.8242Q47.7539-44.8242 41.1865-46.2646Q34.6191-47.7051 30.8594-50.1465Q27.0996-52.5879 27.0996-55.5664Q27.0996-58.5449 30.8594-60.9863Q34.6191-63.4277 41.1865-64.8682Q47.7539-66.3086 56.25-66.3086Q64.7461-66.3086 71.3135-64.8682Q77.8809-63.4277 81.6406-60.9863Q85.4004-58.5449 85.4004-55.5664Q85.4004-52.5879 81.6406-50.1465Q77.8809-47.7051 71.3135-46.2646Q64.7461-44.8242 56.25-44.8242ZM85.1562-33.8379L88.2812-33.8379Q93.6035-33.8379 96.8262-36.6943Q100.049-39.5508 100.049-44.3848Q100.049-49.2188 96.8262-52.0508Q93.6035-54.8828 88.2812-54.8828L87.207-54.8828L87.207-51.709L88.2812-51.709Q92.1387-51.709 94.4824-49.7314Q96.8262-47.7539 96.8262-44.3848Q96.8262-41.0645 94.4824-39.0381Q92.1387-37.0117 88.2812-37.0117L85.1562-37.0117ZM56.1523-0.830078Q66.3086-0.830078 74.7803-2.14844Q83.252-3.4668 89.502-5.93262Q95.752-8.39844 99.1943-11.7188Q102.637-15.0391 102.637-19.043Q102.637-22.5098 99.9023-25.5615Q97.168-28.6133 92.0898-31.0059Q91.0645-30.7129 90.1123-30.5664Q89.1602-30.4199 87.9883-30.4199Q83.8867-22.2656 75.9521-17.8223Q68.0176-13.3789 57.4219-13.3789L55.0293-13.3789Q47.5098-13.3789 41.333-15.6738Q35.1562-17.9688 30.6396-22.2412Q26.123-26.5137 23.5352-32.4219Q16.9434-29.9316 13.3545-26.5137Q9.76562-23.0957 9.76562-19.043Q9.76562-15.0391 13.1836-11.7188Q16.6016-8.39844 22.8516-5.93262Q29.1016-3.4668 37.5977-2.14844Q46.0938-0.830078 56.1523-0.830078Z"/>
  </g>
  <g id="Ultralight-S" transform="matrix(1 0 0 1 504.755 696)">
   <path d="M53.9551-16.9922L55.9082-16.9922Q65.918-16.9922 72.8027-20.9229Q79.6875-24.8535 83.2275-31.8604Q86.7676-38.8672 86.7676-47.9492L86.7676-55.0293Q86.7676-58.7891 82.7148-61.8652Q78.6621-64.9414 71.46-66.6992Q64.2578-68.457 54.9316-68.457Q45.6055-68.457 38.4277-66.6992Q31.25-64.9414 27.1484-61.8652Q23.0469-58.7891 23.0469-55.0293L23.0469-47.9492Q23.0469-38.8672 26.6113-31.8848Q30.1758-24.9023 37.0605-20.9473Q43.9453-16.9922 53.9551-16.9922ZM54.9316-43.75Q46.2891-43.75 39.5996-45.2393Q32.9102-46.7285 29.0771-49.3164Q25.2441-51.9043 25.2441-55.0293Q25.2441-58.1543 29.0771-60.6934Q32.9102-63.2324 39.5996-64.7461Q46.2891-66.2598 54.9316-66.2598Q63.623-66.2598 70.2881-64.7461Q76.9531-63.2324 80.7617-60.6934Q84.5703-58.1543 84.5703-55.0293Q84.5703-51.9043 80.7617-49.3164Q76.9531-46.7285 70.2881-45.2393Q63.623-43.75 54.9316-43.75ZM83.5938-34.0332L86.7188-34.0332Q91.6992-34.0332 94.7266-36.792Q97.7539-39.5508 97.7539-44.0918Q97.7539-48.6328 94.7266-51.3672Q91.6992-54.1016 86.7188-54.1016L86.1816-54.1016L86.1816-51.9043L86.7188-51.9043Q90.7227-51.9043 93.1641-49.7803Q95.6055-47.6562 95.6055-44.0918Q95.6055-40.5273 93.1641-38.3789Q90.7227-36.2305 86.7188-36.2305L83.5938-36.2305ZM54.9316-1.9043Q64.7461-1.9043 72.998-3.17383Q81.25-4.44336 87.3291-6.81152Q93.4082-9.17969 96.7773-12.3535Q100.146-15.5273 100.146-19.3359Q100.146-22.8027 97.2168-25.8545Q94.2871-28.9062 88.916-31.25Q88.1836-31.1035 87.5977-31.0791Q87.0117-31.0547 86.1816-31.0547Q82.2266-22.8027 74.3652-18.3838Q66.5039-13.9648 55.9082-13.9648L53.9551-13.9648Q46.5332-13.9648 40.5273-16.1377Q34.5215-18.3105 30.127-22.3633Q25.7324-26.416 23.1445-32.0801Q16.6992-29.7363 13.2324-26.4404Q9.76562-23.1445 9.76562-19.3359Q9.76562-15.5273 13.1104-12.3535Q16.4551-9.17969 22.5342-6.81152Q28.6133-4.44336 36.8652-3.17383Q45.1172-1.9043 54.9316-1.9043Z"/>
  </g>
 </g>
</svg>
