<?xml version="1.0" encoding="UTF-8"?>
<!--Generator: Apple Native CoreSVG 175-->
<!DOCTYPE svg
PUBLIC "-//W3C//DTD SVG 1.1//EN"
       "http://www.w3.org/Graphics/SVG/1.1/DTD/svg11.dtd">
<svg version="1.1" xmlns="http://www.w3.org/2000/svg" xmlns:xlink="http://www.w3.org/1999/xlink" width="3300" height="2200">
 <!--glyph: "uni100AF8.medium", point size: 100.0, font version: "17.0d11e1", template writer version: "65.1"-->
 <style>.multicolor-0:systemYellowColor {fill:#FFCC00;opacity:1.0}

.SFSymbolsPreviewFFCC00 {fill:#FFCC00;opacity:1.0}
</style>
 <g id="Notes">
  <rect height="2200" id="artboard" style="fill:white;opacity:1" width="3300" x="0" y="0"/>
  <line style="fill:none;stroke:black;opacity:1;stroke-width:0.5;" x1="263" x2="3036" y1="292" y2="292"/>
  <text style="stroke:none;fill:black;font-family:sans-serif;font-size:13;font-weight:bold;" transform="matrix(1 0 0 1 263 322)">Weight/Scale Variations</text>
  <text style="stroke:none;fill:black;font-family:sans-serif;font-size:13;text-anchor:middle;" transform="matrix(1 0 0 1 559.711 322)">Ultralight</text>
  <text style="stroke:none;fill:black;font-family:sans-serif;font-size:13;text-anchor:middle;" transform="matrix(1 0 0 1 856.422 322)">Thin</text>
  <text style="stroke:none;fill:black;font-family:sans-serif;font-size:13;text-anchor:middle;" transform="matrix(1 0 0 1 1153.13 322)">Light</text>
  <text style="stroke:none;fill:black;font-family:sans-serif;font-size:13;text-anchor:middle;" transform="matrix(1 0 0 1 1449.84 322)">Regular</text>
  <text style="stroke:none;fill:black;font-family:sans-serif;font-size:13;text-anchor:middle;" transform="matrix(1 0 0 1 1746.56 322)">Medium</text>
  <text style="stroke:none;fill:black;font-family:sans-serif;font-size:13;text-anchor:middle;" transform="matrix(1 0 0 1 2043.27 322)">Semibold</text>
  <text style="stroke:none;fill:black;font-family:sans-serif;font-size:13;text-anchor:middle;" transform="matrix(1 0 0 1 2339.98 322)">Bold</text>
  <text style="stroke:none;fill:black;font-family:sans-serif;font-size:13;text-anchor:middle;" transform="matrix(1 0 0 1 2636.69 322)">Heavy</text>
  <text style="stroke:none;fill:black;font-family:sans-serif;font-size:13;text-anchor:middle;" transform="matrix(1 0 0 1 2933.4 322)">Black</text>
  <line style="fill:none;stroke:black;opacity:1;stroke-width:0.5;" x1="263" x2="3036" y1="1903" y2="1903"/>
  <g transform="matrix(1 0 0 1 263 1933)">
   <path d="M9.24805 0.830078Q10.8691 0.830078 12.2949 0.214844Q13.7207-0.400391 14.8096-1.49414Q15.8984-2.58789 16.5186-4.01367Q17.1387-5.43945 17.1387-7.05078Q17.1387-8.66211 16.5186-10.0879Q15.8984-11.5137 14.8047-12.6074Q13.7109-13.7012 12.2852-14.3164Q10.8594-14.9316 9.23828-14.9316Q7.62695-14.9316 6.20117-14.3164Q4.77539-13.7012 3.69141-12.6074Q2.60742-11.5137 1.9873-10.0879Q1.36719-8.66211 1.36719-7.05078Q1.36719-5.43945 1.9873-4.01367Q2.60742-2.58789 3.69629-1.49414Q4.78516-0.400391 6.21094 0.214844Q7.63672 0.830078 9.24805 0.830078ZM9.24805-0.654297Q7.91992-0.654297 6.7627-1.14746Q5.60547-1.64062 4.73145-2.51953Q3.85742-3.39844 3.36426-4.56055Q2.87109-5.72266 2.87109-7.05078Q2.87109-8.37891 3.35938-9.54102Q3.84766-10.7031 4.72168-11.582Q5.5957-12.4609 6.75293-12.9541Q7.91016-13.4473 9.23828-13.4473Q10.5762-13.4473 11.7334-12.9541Q12.8906-12.4609 13.7695-11.582Q14.6484-10.7031 15.1465-9.54102Q15.6445-8.37891 15.6445-7.05078Q15.6445-5.72266 15.1514-4.56055Q14.6582-3.39844 13.7842-2.51953Q12.9102-1.64062 11.748-1.14746Q10.5859-0.654297 9.24805-0.654297ZM5.6543-7.05078Q5.6543-6.72852 5.85938-6.52832Q6.06445-6.32812 6.40625-6.32812L8.51562-6.32812L8.51562-4.20898Q8.51562-3.88672 8.71094-3.67676Q8.90625-3.4668 9.23828-3.4668Q9.56055-3.4668 9.77051-3.67676Q9.98047-3.88672 9.98047-4.20898L9.98047-6.32812L12.0898-6.32812Q12.4219-6.32812 12.627-6.52832Q12.832-6.72852 12.832-7.05078Q12.832-7.38281 12.627-7.58789Q12.4219-7.79297 12.0898-7.79297L9.98047-7.79297L9.98047-9.90234Q9.98047-10.2344 9.77051-10.4443Q9.56055-10.6543 9.23828-10.6543Q8.90625-10.6543 8.71094-10.4443Q8.51562-10.2344 8.51562-9.90234L8.51562-7.79297L6.40625-7.79297Q6.06445-7.79297 5.85938-7.58789Q5.6543-7.38281 5.6543-7.05078Z"/>
  </g>
  <g transform="matrix(1 0 0 1 281.867 1933)">
   <path d="M11.709 2.91016Q13.75 2.91016 15.5518 2.12891Q17.3535 1.34766 18.7305-0.0292969Q20.1074-1.40625 20.8887-3.20801Q21.6699-5.00977 21.6699-7.05078Q21.6699-9.0918 20.8887-10.8936Q20.1074-12.6953 18.7305-14.0723Q17.3535-15.4492 15.5469-16.2305Q13.7402-17.0117 11.6992-17.0117Q9.6582-17.0117 7.85645-16.2305Q6.05469-15.4492 4.68262-14.0723Q3.31055-12.6953 2.5293-10.8936Q1.74805-9.0918 1.74805-7.05078Q1.74805-5.00977 2.5293-3.20801Q3.31055-1.40625 4.6875-0.0292969Q6.06445 1.34766 7.86621 2.12891Q9.66797 2.91016 11.709 2.91016ZM11.709 1.25Q9.98047 1.25 8.47656 0.605469Q6.97266-0.0390625 5.83496-1.17676Q4.69727-2.31445 4.05762-3.81836Q3.41797-5.32227 3.41797-7.05078Q3.41797-8.7793 4.05762-10.2832Q4.69727-11.7871 5.83008-12.9297Q6.96289-14.0723 8.4668-14.7119Q9.9707-15.3516 11.6992-15.3516Q13.4277-15.3516 14.9316-14.7119Q16.4355-14.0723 17.5781-12.9297Q18.7207-11.7871 19.3652-10.2832Q20.0098-8.7793 20.0098-7.05078Q20.0098-5.32227 19.3701-3.81836Q18.7305-2.31445 17.5928-1.17676Q16.4551-0.0390625 14.9463 0.605469Q13.4375 1.25 11.709 1.25ZM7.17773-7.05078Q7.17773-6.69922 7.41211-6.47461Q7.64648-6.25 8.01758-6.25L10.8887-6.25L10.8887-3.36914Q10.8887-2.99805 11.1133-2.76855Q11.3379-2.53906 11.6895-2.53906Q12.0605-2.53906 12.29-2.76855Q12.5195-2.99805 12.5195-3.36914L12.5195-6.25L15.4004-6.25Q15.7715-6.25 16.001-6.47461Q16.2305-6.69922 16.2305-7.05078Q16.2305-7.42188 16.001-7.65137Q15.7715-7.88086 15.4004-7.88086L12.5195-7.88086L12.5195-10.752Q12.5195-11.1328 12.29-11.3623Q12.0605-11.5918 11.6895-11.5918Q11.3379-11.5918 11.1133-11.3574Q10.8887-11.123 10.8887-10.752L10.8887-7.88086L8.01758-7.88086Q7.63672-7.88086 7.40723-7.65137Q7.17773-7.42188 7.17773-7.05078Z"/>
  </g>
  <g transform="matrix(1 0 0 1 305.646 1933)">
   <path d="M14.9707 5.66406Q17.0605 5.66406 18.96 5.01465Q20.8594 4.36523 22.4512 3.19336Q24.043 2.02148 25.2197 0.429688Q26.3965-1.16211 27.0459-3.06641Q27.6953-4.9707 27.6953-7.05078Q27.6953-9.14062 27.0459-11.04Q26.3965-12.9395 25.2197-14.5312Q24.043-16.123 22.4512-17.2998Q20.8594-18.4766 18.9551-19.126Q17.0508-19.7754 14.9609-19.7754Q12.8711-19.7754 10.9717-19.126Q9.07227-18.4766 7.48535-17.2998Q5.89844-16.123 4.72168-14.5312Q3.54492-12.9395 2.90039-11.04Q2.25586-9.14062 2.25586-7.05078Q2.25586-4.9707 2.90527-3.06641Q3.55469-1.16211 4.72656 0.429688Q5.89844 2.02148 7.49023 3.19336Q9.08203 4.36523 10.9814 5.01465Q12.8809 5.66406 14.9707 5.66406ZM14.9707 3.84766Q13.1641 3.84766 11.5283 3.2959Q9.89258 2.74414 8.53516 1.74805Q7.17773 0.751953 6.17676-0.610352Q5.17578-1.97266 4.62891-3.6084Q4.08203-5.24414 4.08203-7.05078Q4.08203-8.86719 4.62891-10.5029Q5.17578-12.1387 6.17188-13.501Q7.16797-14.8633 8.52539-15.8594Q9.88281-16.8555 11.5186-17.4023Q13.1543-17.9492 14.9609-17.9492Q16.7773-17.9492 18.4131-17.4023Q20.0488-16.8555 21.4111-15.8594Q22.7734-14.8633 23.7695-13.501Q24.7656-12.1387 25.3174-10.5029Q25.8691-8.86719 25.8691-7.05078Q25.8789-5.24414 25.332-3.6084Q24.7852-1.97266 23.7842-0.610352Q22.7832 0.751953 21.4209 1.74805Q20.0586 2.74414 18.4229 3.2959Q16.7871 3.84766 14.9707 3.84766ZM9.19922-7.05078Q9.19922-6.66992 9.45801-6.4209Q9.7168-6.17188 10.1172-6.17188L14.0625-6.17188L14.0625-2.2168Q14.0625-1.81641 14.3115-1.55762Q14.5605-1.29883 14.9512-1.29883Q15.3516-1.29883 15.6104-1.55273Q15.8691-1.80664 15.8691-2.2168L15.8691-6.17188L19.8242-6.17188Q20.2246-6.17188 20.4785-6.4209Q20.7324-6.66992 20.7324-7.05078Q20.7324-7.46094 20.4785-7.71484Q20.2246-7.96875 19.8242-7.96875L15.8691-7.96875L15.8691-11.9141Q15.8691-12.3242 15.6104-12.583Q15.3516-12.8418 14.9512-12.8418Q14.5605-12.8418 14.3115-12.583Q14.0625-12.3242 14.0625-11.9141L14.0625-7.96875L10.1172-7.96875Q9.70703-7.96875 9.45312-7.71484Q9.19922-7.46094 9.19922-7.05078Z"/>
  </g>
  <text style="stroke:none;fill:black;font-family:sans-serif;font-size:13;font-weight:bold;" transform="matrix(1 0 0 1 263 1953)">Design Variations</text>
  <text style="stroke:none;fill:black;font-family:sans-serif;font-size:13;" transform="matrix(1 0 0 1 263 1971)">Symbols are supported in up to nine weights and three scales.</text>
  <text style="stroke:none;fill:black;font-family:sans-serif;font-size:13;" transform="matrix(1 0 0 1 263 1989)">For optimal layout with text and other symbols, vertically align</text>
  <text style="stroke:none;fill:black;font-family:sans-serif;font-size:13;" transform="matrix(1 0 0 1 263 2007)">symbols with the adjacent text.</text>
  <line style="fill:none;stroke:#00AEEF;stroke-width:0.5;opacity:1.0;" x1="776" x2="776" y1="1919" y2="1933"/>
  <g transform="matrix(1 0 0 1 776 1933)">
   <path d="M3.31055 0.15625Q3.70117 0.15625 3.91602-0.00976562Q4.13086-0.175781 4.26758-0.585938L5.52734-4.0332L11.2891-4.0332L12.5488-0.585938Q12.6855-0.175781 12.9004-0.00976562Q13.1152 0.15625 13.4961 0.15625Q13.8867 0.15625 14.1162-0.0585938Q14.3457-0.273438 14.3457-0.644531Q14.3457-0.869141 14.2383-1.17188L9.6582-13.3691Q9.48242-13.8184 9.17969-14.043Q8.87695-14.2676 8.4082-14.2676Q7.5-14.2676 7.17773-13.3789L2.59766-1.16211Q2.49023-0.859375 2.49023-0.634766Q2.49023-0.263672 2.70996-0.0537109Q2.92969 0.15625 3.31055 0.15625ZM6.00586-5.51758L8.37891-12.0898L8.42773-12.0898L10.8008-5.51758Z"/>
  </g>
  <line style="fill:none;stroke:#00AEEF;stroke-width:0.5;opacity:1.0;" x1="793.197" x2="793.197" y1="1919" y2="1933"/>
  <text style="stroke:none;fill:black;font-family:sans-serif;font-size:13;font-weight:bold;" transform="matrix(1 0 0 1 776 1953)">Margins</text>
  <text style="stroke:none;fill:black;font-family:sans-serif;font-size:13;" transform="matrix(1 0 0 1 776 1971)">Leading and trailing margins on the left and right side of each symbol</text>
  <text style="stroke:none;fill:black;font-family:sans-serif;font-size:13;" transform="matrix(1 0 0 1 776 1989)">can be adjusted by modifying the x-location of the margin guidelines.</text>
  <text style="stroke:none;fill:black;font-family:sans-serif;font-size:13;" transform="matrix(1 0 0 1 776 2007)">Modifications are automatically applied proportionally to all</text>
  <text style="stroke:none;fill:black;font-family:sans-serif;font-size:13;" transform="matrix(1 0 0 1 776 2025)">scales and weights.</text>
  <g transform="matrix(1 0 0 1 1289 1933)">
   <path d="M2.8418 1.86523L4.54102 3.57422Q5.18555 4.22852 5.90332 4.17969Q6.62109 4.13086 7.31445 3.35938L18.0078-8.42773L17.041-9.4043L6.42578 2.27539Q6.16211 2.57812 5.89355 2.61719Q5.625 2.65625 5.27344 2.30469L4.10156 1.14258Q3.75 0.791016 3.79395 0.522461Q3.83789 0.253906 4.14062-0.0195312L15.6152-10.8203L14.6387-11.7871L3.04688-0.898438Q2.30469-0.214844 2.25098 0.498047Q2.19727 1.21094 2.8418 1.86523ZM9.25781-16.3281Q8.94531-16.0254 8.90625-15.6348Q8.86719-15.2441 9.04297-14.9512Q9.21875-14.6777 9.55566-14.541Q9.89258-14.4043 10.3809-14.5215Q11.4746-14.7754 12.5977-14.7314Q13.7207-14.6875 14.7949-13.9844L14.209-12.5293Q13.9551-11.9043 14.0674-11.4404Q14.1797-10.9766 14.5801-10.5664L16.875-8.25195Q17.2363-7.88086 17.5781-7.82227Q17.9199-7.76367 18.3398-7.8418L19.4043-8.03711L20.0684-7.36328L20.0293-6.80664Q20-6.43555 20.1221-6.12305Q20.2441-5.81055 20.6055-5.44922L21.3672-4.70703Q21.7285-4.3457 22.1533-4.33105Q22.5781-4.31641 22.9297-4.66797L25.8398-7.58789Q26.1914-7.93945 26.1816-8.35449Q26.1719-8.76953 25.8105-9.13086L25.0391-9.89258Q24.6875-10.2539 24.3799-10.3857Q24.0723-10.5176 23.7109-10.4883L23.1348-10.4395L22.4902-11.0742L22.7344-12.1973Q22.832-12.6172 22.6953-12.9834Q22.5586-13.3496 22.1191-13.7891L19.9219-15.9766Q18.6719-17.2168 17.2607-17.8369Q15.8496-18.457 14.4189-18.4814Q12.9883-18.5059 11.665-17.959Q10.3418-17.4121 9.25781-16.3281ZM10.752-15.957Q11.6602-16.6211 12.7002-16.9043Q13.7402-17.1875 14.8047-17.085Q15.8691-16.9824 16.8701-16.5137Q17.8711-16.0449 18.7012-15.2051L21.1328-12.793Q21.3086-12.6172 21.3525-12.4512Q21.3965-12.2852 21.3379-12.0312L21.0156-10.5469L22.5195-9.0625L23.5059-9.12109Q23.6914-9.13086 23.7891-9.09668Q23.8867-9.0625 24.0332-8.91602L24.6094-8.33984L22.168-5.89844L21.5918-6.47461Q21.4453-6.62109 21.4062-6.71875Q21.3672-6.81641 21.377-7.01172L21.4453-7.98828L19.9512-9.47266L18.4277-9.21875Q18.1836-9.16992 18.042-9.2041Q17.9004-9.23828 17.7148-9.41406L15.7129-11.416Q15.5176-11.5918 15.4932-11.7529Q15.4688-11.9141 15.5859-12.1875L16.4648-14.2773Q15.293-15.3711 13.8281-15.791Q12.3633-16.2109 10.8398-15.7617Q10.7227-15.7324 10.6885-15.8057Q10.6543-15.8789 10.752-15.957Z"/>
  </g>
  <text style="stroke:none;fill:black;font-family:sans-serif;font-size:13;font-weight:bold;" transform="matrix(1 0 0 1 1289 1953)">Exporting</text>
  <text style="stroke:none;fill:black;font-family:sans-serif;font-size:13;" transform="matrix(1 0 0 1 1289 1971)">Symbols should be outlined when exporting to ensure the</text>
  <text style="stroke:none;fill:black;font-family:sans-serif;font-size:13;" transform="matrix(1 0 0 1 1289 1989)">design is preserved when submitting to Xcode.</text>
  <text id="template-version" style="stroke:none;fill:black;font-family:sans-serif;font-size:13;text-anchor:end;" transform="matrix(1 0 0 1 3036 1933)">Template v.3.0</text>
  <text style="stroke:none;fill:black;font-family:sans-serif;font-size:13;text-anchor:end;" transform="matrix(1 0 0 1 3036 1951)">Requires Xcode 13 or greater</text>
  <text id="descriptive-name" style="stroke:none;fill:black;font-family:sans-serif;font-size:13;text-anchor:end;" transform="matrix(1 0 0 1 3036 1969)">Generated from sparkle</text>
  <text style="stroke:none;fill:black;font-family:sans-serif;font-size:13;text-anchor:end;" transform="matrix(1 0 0 1 3036 1987)">Typeset at 100 points</text>
  <text style="stroke:none;fill:black;font-family:sans-serif;font-size:13;" transform="matrix(1 0 0 1 263 726)">Small</text>
  <text style="stroke:none;fill:black;font-family:sans-serif;font-size:13;" transform="matrix(1 0 0 1 263 1156)">Medium</text>
  <text style="stroke:none;fill:black;font-family:sans-serif;font-size:13;" transform="matrix(1 0 0 1 263 1586)">Large</text>
 </g>
 <g id="Guides">
  <g id="H-reference" style="fill:#27AAE1;stroke:none;" transform="matrix(1 0 0 1 339 696)">
   <path d="M0.976562 0L3.66211 0L29.3457-67.1387L30.0293-67.1387L30.0293-70.459L28.125-70.459ZM11.6699-24.4629L46.9727-24.4629L46.2402-26.709L12.4512-26.709ZM55.127 0L57.7637 0L30.6152-70.459L29.4434-70.459L29.4434-67.1387Z"/>
  </g>
  <line id="Baseline-S" style="fill:none;stroke:#27AAE1;opacity:1;stroke-width:0.5;" x1="263" x2="3036" y1="696" y2="696"/>
  <line id="Capline-S" style="fill:none;stroke:#27AAE1;opacity:1;stroke-width:0.5;" x1="263" x2="3036" y1="625.541" y2="625.541"/>
  <g id="H-reference" style="fill:#27AAE1;stroke:none;" transform="matrix(1 0 0 1 339 1126)">
   <path d="M0.976562 0L3.66211 0L29.3457-67.1387L30.0293-67.1387L30.0293-70.459L28.125-70.459ZM11.6699-24.4629L46.9727-24.4629L46.2402-26.709L12.4512-26.709ZM55.127 0L57.7637 0L30.6152-70.459L29.4434-70.459L29.4434-67.1387Z"/>
  </g>
  <line id="Baseline-M" style="fill:none;stroke:#27AAE1;opacity:1;stroke-width:0.5;" x1="263" x2="3036" y1="1126" y2="1126"/>
  <line id="Capline-M" style="fill:none;stroke:#27AAE1;opacity:1;stroke-width:0.5;" x1="263" x2="3036" y1="1055.54" y2="1055.54"/>
  <g id="H-reference" style="fill:#27AAE1;stroke:none;" transform="matrix(1 0 0 1 339 1556)">
   <path d="M0.976562 0L3.66211 0L29.3457-67.1387L30.0293-67.1387L30.0293-70.459L28.125-70.459ZM11.6699-24.4629L46.9727-24.4629L46.2402-26.709L12.4512-26.709ZM55.127 0L57.7637 0L30.6152-70.459L29.4434-70.459L29.4434-67.1387Z"/>
  </g>
  <line id="Baseline-L" style="fill:none;stroke:#27AAE1;opacity:1;stroke-width:0.5;" x1="263" x2="3036" y1="1556" y2="1556"/>
  <line id="Capline-L" style="fill:none;stroke:#27AAE1;opacity:1;stroke-width:0.5;" x1="263" x2="3036" y1="1485.54" y2="1485.54"/>
  <line id="left-margin-Ultralight-S" style="fill:none;stroke:#00AEEF;stroke-width:0.5;opacity:1.0;" x1="514.643" x2="514.643" y1="600.785" y2="720.121"/>
  <line id="right-margin-Ultralight-S" style="fill:none;stroke:#00AEEF;stroke-width:0.5;opacity:1.0;" x1="604.779" x2="604.779" y1="600.785" y2="720.121"/>
  <line id="left-margin-Thin-S" style="fill:none;stroke:#00AEEF;stroke-width:0.5;opacity:1.0;" x1="811.354" x2="811.354" y1="600.785" y2="720.121"/>
  <line id="right-margin-Thin-S" style="fill:none;stroke:#00AEEF;stroke-width:0.5;opacity:1.0;" x1="901.491" x2="901.491" y1="600.785" y2="720.121"/>
  <line id="left-margin-Light-S" style="fill:none;stroke:#00AEEF;stroke-width:0.5;opacity:1.0;" x1="1108.06" x2="1108.06" y1="600.785" y2="720.121"/>
  <line id="right-margin-Light-S" style="fill:none;stroke:#00AEEF;stroke-width:0.5;opacity:1.0;" x1="1198.2" x2="1198.2" y1="600.785" y2="720.121"/>
  <line id="left-margin-Regular-S" style="fill:none;stroke:#00AEEF;stroke-width:0.5;opacity:1.0;" x1="1404.78" x2="1404.78" y1="600.785" y2="720.121"/>
  <line id="right-margin-Regular-S" style="fill:none;stroke:#00AEEF;stroke-width:0.5;opacity:1.0;" x1="1494.91" x2="1494.91" y1="600.785" y2="720.121"/>
  <line id="left-margin-Medium-S" style="fill:none;stroke:#00AEEF;stroke-width:0.5;opacity:1.0;" x1="1700.51" x2="1700.51" y1="600.785" y2="720.121"/>
  <line id="right-margin-Medium-S" style="fill:none;stroke:#00AEEF;stroke-width:0.5;opacity:1.0;" x1="1792.6" x2="1792.6" y1="600.785" y2="720.121"/>
  <line id="left-margin-Semibold-S" style="fill:none;stroke:#00AEEF;stroke-width:0.5;opacity:1.0;" x1="1996.46" x2="1996.46" y1="600.785" y2="720.121"/>
  <line id="right-margin-Semibold-S" style="fill:none;stroke:#00AEEF;stroke-width:0.5;opacity:1.0;" x1="2090.07" x2="2090.07" y1="600.785" y2="720.121"/>
  <line id="left-margin-Bold-S" style="fill:none;stroke:#00AEEF;stroke-width:0.5;opacity:1.0;" x1="2292.18" x2="2292.18" y1="600.785" y2="720.121"/>
  <line id="right-margin-Bold-S" style="fill:none;stroke:#00AEEF;stroke-width:0.5;opacity:1.0;" x1="2387.78" x2="2387.78" y1="600.785" y2="720.121"/>
  <line id="left-margin-Heavy-S" style="fill:none;stroke:#00AEEF;stroke-width:0.5;opacity:1.0;" x1="2587.47" x2="2587.47" y1="600.785" y2="720.121"/>
  <line id="right-margin-Heavy-S" style="fill:none;stroke:#00AEEF;stroke-width:0.5;opacity:1.0;" x1="2685.91" x2="2685.91" y1="600.785" y2="720.121"/>
  <line id="left-margin-Black-S" style="fill:none;stroke:#00AEEF;stroke-width:0.5;opacity:1.0;" x1="2882.89" x2="2882.89" y1="600.785" y2="720.121"/>
  <line id="right-margin-Black-S" style="fill:none;stroke:#00AEEF;stroke-width:0.5;opacity:1.0;" x1="2983.91" x2="2983.91" y1="600.785" y2="720.121"/>
  <line id="left-margin-Ultralight-M" style="fill:none;stroke:#00AEEF;stroke-width:0.5;opacity:1.0;" x1="502.192" x2="502.192" y1="1030.79" y2="1150.12"/>
  <line id="right-margin-Ultralight-M" style="fill:none;stroke:#00AEEF;stroke-width:0.5;opacity:1.0;" x1="617.231" x2="617.231" y1="1030.79" y2="1150.12"/>
  <line id="left-margin-Thin-M" style="fill:none;stroke:#00AEEF;stroke-width:0.5;opacity:1.0;" x1="798.903" x2="798.903" y1="1030.79" y2="1150.12"/>
  <line id="right-margin-Thin-M" style="fill:none;stroke:#00AEEF;stroke-width:0.5;opacity:1.0;" x1="913.942" x2="913.942" y1="1030.79" y2="1150.12"/>
  <line id="left-margin-Light-M" style="fill:none;stroke:#00AEEF;stroke-width:0.5;opacity:1.0;" x1="1095.61" x2="1095.61" y1="1030.79" y2="1150.12"/>
  <line id="right-margin-Light-M" style="fill:none;stroke:#00AEEF;stroke-width:0.5;opacity:1.0;" x1="1210.65" x2="1210.65" y1="1030.79" y2="1150.12"/>
  <line id="left-margin-Regular-M" style="fill:none;stroke:#00AEEF;stroke-width:0.5;opacity:1.0;" x1="1392.32" x2="1392.32" y1="1030.79" y2="1150.12"/>
  <line id="right-margin-Regular-M" style="fill:none;stroke:#00AEEF;stroke-width:0.5;opacity:1.0;" x1="1507.36" x2="1507.36" y1="1030.79" y2="1150.12"/>
  <line id="left-margin-Medium-M" style="fill:none;stroke:#00AEEF;stroke-width:0.5;opacity:1.0;" x1="1687.89" x2="1687.89" y1="1030.79" y2="1150.12"/>
  <line id="right-margin-Medium-M" style="fill:none;stroke:#00AEEF;stroke-width:0.5;opacity:1.0;" x1="1805.22" x2="1805.22" y1="1030.79" y2="1150.12"/>
  <line id="left-margin-Semibold-M" style="fill:none;stroke:#00AEEF;stroke-width:0.5;opacity:1.0;" x1="1983.72" x2="1983.72" y1="1030.79" y2="1150.12"/>
  <line id="right-margin-Semibold-M" style="fill:none;stroke:#00AEEF;stroke-width:0.5;opacity:1.0;" x1="2102.81" x2="2102.81" y1="1030.79" y2="1150.12"/>
  <line id="left-margin-Bold-M" style="fill:none;stroke:#00AEEF;stroke-width:0.5;opacity:1.0;" x1="2279.28" x2="2279.28" y1="1030.79" y2="1150.12"/>
  <line id="right-margin-Bold-M" style="fill:none;stroke:#00AEEF;stroke-width:0.5;opacity:1.0;" x1="2400.67" x2="2400.67" y1="1030.79" y2="1150.12"/>
  <line id="left-margin-Heavy-M" style="fill:none;stroke:#00AEEF;stroke-width:0.5;opacity:1.0;" x1="2574.31" x2="2574.31" y1="1030.79" y2="1150.12"/>
  <line id="right-margin-Heavy-M" style="fill:none;stroke:#00AEEF;stroke-width:0.5;opacity:1.0;" x1="2699.07" x2="2699.07" y1="1030.79" y2="1150.12"/>
  <line id="left-margin-Black-M" style="fill:none;stroke:#00AEEF;stroke-width:0.5;opacity:1.0;" x1="2869.53" x2="2869.53" y1="1030.79" y2="1150.12"/>
  <line id="right-margin-Black-M" style="fill:none;stroke:#00AEEF;stroke-width:0.5;opacity:1.0;" x1="2997.27" x2="2997.27" y1="1030.79" y2="1150.12"/>
  <line id="left-margin-Ultralight-L" style="fill:none;stroke:#00AEEF;stroke-width:0.5;opacity:1.0;" x1="485.468" x2="485.468" y1="1460.79" y2="1580.12"/>
  <line id="right-margin-Ultralight-L" style="fill:none;stroke:#00AEEF;stroke-width:0.5;opacity:1.0;" x1="633.954" x2="633.954" y1="1460.79" y2="1580.12"/>
  <line id="left-margin-Thin-L" style="fill:none;stroke:#00AEEF;stroke-width:0.5;opacity:1.0;" x1="782.179" x2="782.179" y1="1460.79" y2="1580.12"/>
  <line id="right-margin-Thin-L" style="fill:none;stroke:#00AEEF;stroke-width:0.5;opacity:1.0;" x1="930.665" x2="930.665" y1="1460.79" y2="1580.12"/>
  <line id="left-margin-Light-L" style="fill:none;stroke:#00AEEF;stroke-width:0.5;opacity:1.0;" x1="1078.89" x2="1078.89" y1="1460.79" y2="1580.12"/>
  <line id="right-margin-Light-L" style="fill:none;stroke:#00AEEF;stroke-width:0.5;opacity:1.0;" x1="1227.38" x2="1227.38" y1="1460.79" y2="1580.12"/>
  <line id="left-margin-Regular-L" style="fill:none;stroke:#00AEEF;stroke-width:0.5;opacity:1.0;" x1="1375.6" x2="1375.6" y1="1460.79" y2="1580.12"/>
  <line id="right-margin-Regular-L" style="fill:none;stroke:#00AEEF;stroke-width:0.5;opacity:1.0;" x1="1524.09" x2="1524.09" y1="1460.79" y2="1580.12"/>
  <line id="left-margin-Medium-L" style="fill:none;stroke:#00AEEF;stroke-width:0.5;opacity:1.0;" x1="1671.14" x2="1671.14" y1="1460.79" y2="1580.12"/>
  <line id="right-margin-Medium-L" style="fill:none;stroke:#00AEEF;stroke-width:0.5;opacity:1.0;" x1="1821.97" x2="1821.97" y1="1460.79" y2="1580.12"/>
  <line id="left-margin-Semibold-L" style="fill:none;stroke:#00AEEF;stroke-width:0.5;opacity:1.0;" x1="1966.95" x2="1966.95" y1="1460.79" y2="1580.12"/>
  <line id="right-margin-Semibold-L" style="fill:none;stroke:#00AEEF;stroke-width:0.5;opacity:1.0;" x1="2119.59" x2="2119.59" y1="1460.79" y2="1580.12"/>
  <line id="left-margin-Bold-L" style="fill:none;stroke:#00AEEF;stroke-width:0.5;opacity:1.0;" x1="2262.46" x2="2262.46" y1="1460.79" y2="1580.12"/>
  <line id="right-margin-Bold-L" style="fill:none;stroke:#00AEEF;stroke-width:0.5;opacity:1.0;" x1="2417.49" x2="2417.49" y1="1460.79" y2="1580.12"/>
  <line id="left-margin-Heavy-L" style="fill:none;stroke:#00AEEF;stroke-width:0.5;opacity:1.0;" x1="2557.47" x2="2557.47" y1="1460.79" y2="1580.12"/>
  <line id="right-margin-Heavy-L" style="fill:none;stroke:#00AEEF;stroke-width:0.5;opacity:1.0;" x1="2715.91" x2="2715.91" y1="1460.79" y2="1580.12"/>
  <line id="left-margin-Black-L" style="fill:none;stroke:#00AEEF;stroke-width:0.5;opacity:1.0;" x1="2852.64" x2="2852.64" y1="1460.79" y2="1580.12"/>
  <line id="right-margin-Black-L" style="fill:none;stroke:#00AEEF;stroke-width:0.5;opacity:1.0;" x1="3014.16" x2="3014.16" y1="1460.79" y2="1580.12"/>
 </g>
 <g id="Symbols">
  <g id="Black-L" transform="matrix(1 0 0 1 2852.64 1556)">
   <path class="multicolor-0:systemYellowColor SFSymbolsPreviewFFCC00" d="M80.7129 32.6172Q83.8379 32.6172 86.1084 30.5664Q88.3789 28.5156 88.8184 25.293Q90.332 14.8926 92.041 7.22656Q93.75-0.439453 96.167-5.81055Q98.584-11.1816 102.173-14.7949Q105.762-18.4082 111.011-20.7031Q116.26-22.998 123.633-24.4385Q131.006-25.8789 141.064-27.0508Q144.287-27.4414 146.46-29.7852Q148.633-32.1289 148.633-35.2539Q148.633-38.3789 146.484-40.6982Q144.336-43.0176 141.113-43.5059Q131.104-44.8242 123.804-46.3867Q116.504-47.9492 111.328-50.2441Q106.152-52.5391 102.588-56.0791Q99.0234-59.6191 96.6064-64.9414Q94.1895-70.2637 92.3828-77.8564Q90.5762-85.4492 88.8184-95.8984Q88.2812-99.0723 86.0352-101.123Q83.7891-103.174 80.7129-103.174Q77.6367-103.174 75.3662-101.123Q73.0957-99.0723 72.6074-95.8496Q71.0938-85.4004 69.3848-77.7588Q67.6758-70.1172 65.2832-64.7461Q62.8906-59.375 59.3262-55.7617Q55.7617-52.1484 50.5127-49.8535Q45.2637-47.5586 37.8906-46.0938Q30.5176-44.6289 20.459-43.5059Q17.1875-43.0664 15.0391-40.7471Q12.8906-38.4277 12.8906-35.2539Q12.8906-32.1289 14.9902-29.8096Q17.0898-27.4902 20.4102-27.0508Q30.4199-25.6348 37.7197-24.0723Q45.0195-22.5098 50.1953-20.2148Q55.3711-17.9199 58.9111-14.3555Q62.4512-10.791 64.8682-5.49316Q67.2852-0.195312 69.0674 7.37305Q70.8496 14.9414 72.6074 25.3418Q73.2422 28.6133 75.4883 30.6152Q77.7344 32.6172 80.7129 32.6172Z"/>
  </g>
  <g id="Heavy-L" transform="matrix(1 0 0 1 2557.47 1556)">
   <path class="multicolor-0:systemYellowColor SFSymbolsPreviewFFCC00" d="M79.1992 31.0547Q81.9824 31.0547 83.9844 29.248Q85.9863 27.4414 86.377 24.5605Q87.8418 14.0625 89.5264 6.34766Q91.2109-1.36719 93.6035-6.78711Q95.9961-12.207 99.585-15.7959Q103.174-19.3848 108.447-21.6797Q113.721-23.9746 121.167-25.3906Q128.613-26.8066 138.818-27.9785Q141.699-28.3203 143.628-30.3955Q145.557-32.4707 145.557-35.2539Q145.557-38.0371 143.652-40.1123Q141.748-42.1875 138.867-42.5781Q128.711-43.8477 121.313-45.3613Q113.916-46.875 108.691-49.1699Q103.467-51.4648 99.9023-55.0049Q96.3379-58.5449 93.9209-63.916Q91.5039-69.2871 89.7705-76.9531Q88.0371-84.6191 86.377-95.1172Q85.9375-97.9492 83.9355-99.7803Q81.9336-101.611 79.1992-101.611Q76.4648-101.611 74.4385-99.7803Q72.4121-97.9492 71.9727-95.0684Q70.5078-84.5703 68.8477-76.8799Q67.1875-69.1895 64.8193-63.7695Q62.4512-58.3496 58.8623-54.7363Q55.2734-51.123 50-48.8525Q44.7266-46.582 37.2803-45.1416Q29.834-43.7012 19.6289-42.5781Q16.6992-42.1875 14.7949-40.1367Q12.8906-38.0859 12.8906-35.2539Q12.8906-32.4707 14.7705-30.4199Q16.6504-28.3691 19.5801-27.9785Q29.7363-26.5625 37.1338-25.0244Q44.5312-23.4863 49.7559-21.2158Q54.9805-18.9453 58.5205-15.3809Q62.0605-11.8164 64.4531-6.49414Q66.8457-1.17188 68.5791 6.44531Q70.3125 14.0625 71.9727 24.5605Q72.5098 27.4902 74.5117 29.2725Q76.5137 31.0547 79.1992 31.0547Z"/>
  </g>
  <g id="Bold-L" transform="matrix(1 0 0 1 2262.46 1556)">
   <path class="multicolor-0:systemYellowColor SFSymbolsPreviewFFCC00" d="M77.4902 29.3457Q79.8828 29.3457 81.6162 27.7832Q83.3496 26.2207 83.6914 23.7305Q85.1074 13.0859 86.7188 5.32227Q88.3301-2.44141 90.6982-7.88574Q93.0664-13.3301 96.6553-16.9189Q100.244-20.5078 105.566-22.7783Q110.889-25.0488 118.433-26.4648Q125.977-27.8809 136.328-29.0039Q138.818-29.2969 140.479-31.0791Q142.139-32.8613 142.139-35.2539Q142.139-37.6953 140.479-39.4531Q138.818-41.2109 136.328-41.5527Q126.025-42.7734 118.53-44.2383Q111.035-45.7031 105.737-47.9736Q100.439-50.2441 96.875-53.8086Q93.3105-57.373 90.9424-62.793Q88.5742-68.2129 86.9141-75.9277Q85.2539-83.6426 83.6914-94.2871Q83.3008-96.7285 81.5918-98.3154Q79.8828-99.9023 77.4902-99.9023Q75.1465-99.9023 73.4131-98.3154Q71.6797-96.7285 71.2891-94.2383Q69.873-83.6426 68.2617-75.8789Q66.6504-68.1152 64.3066-62.6953Q61.9629-57.2754 58.374-53.6621Q54.7852-50.0488 49.4629-47.7783Q44.1406-45.5078 36.5967-44.0918Q29.0527-42.6758 18.75-41.5527Q16.2109-41.2598 14.5508-39.4775Q12.8906-37.6953 12.8906-35.2539Q12.8906-32.8613 14.5264-31.1035Q16.1621-29.3457 18.7012-29.0039Q29.0039-27.6367 36.4746-26.0986Q43.9453-24.5605 49.2188-22.3145Q54.4922-20.0684 58.0566-16.5039Q61.6211-12.9395 63.9893-7.61719Q66.3574-2.29492 68.0176 5.41992Q69.6777 13.1348 71.2891 23.7305Q71.7285 26.2695 73.4619 27.8076Q75.1953 29.3457 77.4902 29.3457Z"/>
  </g>
  <g id="Semibold-L" transform="matrix(1 0 0 1 1966.95 1556)">
   <path class="multicolor-0:systemYellowColor SFSymbolsPreviewFFCC00" d="M76.3184 28.125Q78.4668 28.125 80.0049 26.7334Q81.543 25.3418 81.8359 23.1445Q83.2031 12.4512 84.79 4.63867Q86.377-3.17383 88.7207-8.61816Q91.0645-14.0625 94.6533-17.6758Q98.2422-21.2891 103.589-23.5352Q108.936-25.7812 116.553-27.1973Q124.17-28.6133 134.57-29.7363Q136.816-29.9805 138.281-31.543Q139.746-33.1055 139.746-35.2539Q139.746-37.4023 138.281-38.9893Q136.816-40.5762 134.57-40.8203Q124.17-41.9922 116.602-43.4326Q109.033-44.873 103.687-47.1191Q98.3398-49.3652 94.7754-52.9541Q91.2109-56.543 88.8428-61.9873Q86.4746-67.4316 84.8877-75.2197Q83.3008-83.0078 81.8359-93.6523Q81.4941-95.8984 79.9561-97.29Q78.418-98.6816 76.3184-98.6816Q74.2188-98.6816 72.6807-97.29Q71.1426-95.8984 70.752-93.6523Q69.3848-82.959 67.8223-75.1709Q66.2598-67.3828 63.916-61.9385Q61.5723-56.4941 57.9834-52.8809Q54.3945-49.2676 49.0479-47.0215Q43.7012-44.7754 36.084-43.3594Q28.4668-41.9434 18.1152-40.8203Q15.8203-40.5762 14.3555-39.0137Q12.8906-37.4512 12.8906-35.2539Q12.8906-33.1055 14.3311-31.5674Q15.7715-30.0293 18.0664-29.7363Q28.4668-28.3691 36.0107-26.8311Q43.5547-25.293 48.8525-23.0469Q54.1504-20.8008 57.7393-17.2607Q61.3281-13.7207 63.6475-8.37402Q65.9668-3.02734 67.6025 4.71191Q69.2383 12.4512 70.752 23.1445Q71.1914 25.3906 72.7051 26.7578Q74.2188 28.125 76.3184 28.125Z"/>
  </g>
  <g id="Medium-L" transform="matrix(1 0 0 1 1671.14 1556)">
   <path class="multicolor-0:systemYellowColor SFSymbolsPreviewFFCC00" d="M75.4395 27.1973Q77.3438 27.1973 78.7354 25.9521Q80.127 24.707 80.4199 22.7051Q81.7871 11.9141 83.3252 4.10156Q84.8633-3.71094 87.207-9.17969Q89.5508-14.6484 93.1396-18.2617Q96.7285-21.875 102.1-24.1211Q107.471-26.3672 115.112-27.7588Q122.754-29.1504 133.252-30.2734Q135.254-30.4688 136.597-31.8848Q137.939-33.3008 137.939-35.2539Q137.939-37.207 136.621-38.623Q135.303-40.0391 133.252-40.2832Q122.754-41.4062 115.112-42.8467Q107.471-44.2871 102.124-46.5088Q96.7773-48.7305 93.1885-52.3438Q89.5996-55.957 87.2803-61.4014Q84.9609-66.8457 83.374-74.6582Q81.7871-82.4707 80.4199-93.2129Q80.127-95.2148 78.7354-96.4844Q77.3438-97.7539 75.4395-97.7539Q73.5352-97.7539 72.1436-96.4844Q70.752-95.2148 70.4102-93.2129Q69.043-82.4707 67.5049-74.6582Q65.9668-66.8457 63.6475-61.377Q61.3281-55.9082 57.7148-52.2949Q54.1016-48.6816 48.7305-46.4355Q43.3594-44.1895 35.7178-42.7979Q28.0762-41.4062 17.627-40.2832Q15.5273-40.0391 14.209-38.623Q12.8906-37.207 12.8906-35.2539Q12.8906-33.3008 14.209-31.9092Q15.5273-30.5176 17.627-30.2734Q28.0762-28.9062 35.6689-27.3926Q43.2617-25.8789 48.584-23.6328Q53.9062-21.3867 57.4951-17.8467Q61.084-14.3066 63.4033-8.95996Q65.7227-3.61328 67.334 4.15039Q68.9453 11.9141 70.4102 22.7051Q70.752 24.707 72.1436 25.9521Q73.5352 27.1973 75.4395 27.1973Z"/>
  </g>
  <g id="Regular-L" transform="matrix(1 0 0 1 1375.6 1556)">
   <path class="multicolor-0:systemYellowColor SFSymbolsPreviewFFCC00" d="M74.2676 26.0254Q75.9277 26.0254 77.124 24.9512Q78.3203 23.877 78.5645 22.1191Q79.8828 11.2793 81.3965 3.41797Q82.9102-4.44336 85.2295-9.93652Q87.5488-15.4297 91.1377-19.0186Q94.7266-22.6074 100.122-24.8535Q105.518-27.0996 113.232-28.4912Q120.947-29.8828 131.543-30.957Q133.301-31.1523 134.448-32.3486Q135.596-33.5449 135.596-35.2539Q135.596-36.9629 134.448-38.1836Q133.301-39.4043 131.543-39.5508Q120.947-40.6738 113.232-42.0654Q105.518-43.457 100.122-45.6787Q94.7266-47.9004 91.1377-51.5137Q87.5488-55.127 85.2295-60.6201Q82.9102-66.1133 81.3965-73.9746Q79.8828-81.8359 78.5645-92.627Q78.3203-94.3848 77.124-95.4834Q75.9277-96.582 74.2676-96.582Q72.6074-96.582 71.4111-95.4834Q70.2148-94.3848 69.9219-92.627Q68.6035-81.8359 67.0898-73.9746Q65.5762-66.1133 63.2812-60.6201Q60.9863-55.127 57.373-51.5137Q53.7598-47.9004 48.3643-45.6787Q42.9688-43.457 35.2539-42.0654Q27.5391-40.6738 16.9922-39.5508Q15.1855-39.4043 14.0381-38.1836Q12.8906-36.9629 12.8906-35.2539Q12.8906-33.5449 14.0381-32.373Q15.1855-31.2012 16.9922-30.957Q27.5391-29.6387 35.2051-28.125Q42.8711-26.6113 48.2422-24.3896Q53.6133-22.168 57.2021-18.6279Q60.791-15.0879 63.0859-9.7168Q65.3809-4.3457 66.9434 3.4668Q68.5059 11.2793 69.9219 22.1191Q70.2148 23.877 71.4111 24.9512Q72.6074 26.0254 74.2676 26.0254Z"/>
  </g>
  <g id="Light-L" transform="matrix(1 0 0 1 1078.89 1556)">
   <path class="multicolor-0:systemYellowColor SFSymbolsPreviewFFCC00" d="M74.2676 25.9766Q75.8301 25.9766 76.9043 25.0244Q77.9785 24.0723 78.1738 22.4609Q79.3945 11.1816 80.835 3.10059Q82.2754-4.98047 84.5215-10.5713Q86.7676-16.1621 90.3564-19.7754Q93.9453-23.3887 99.4629-25.5615Q104.98-27.7344 112.964-29.0527Q120.947-30.3711 131.982-31.4453Q133.545-31.5918 134.57-32.6416Q135.596-33.6914 135.596-35.2539Q135.596-36.8164 134.57-37.8906Q133.545-38.9648 131.982-39.1113Q120.947-40.1367 112.964-41.4795Q104.98-42.8223 99.4629-44.9951Q93.9453-47.168 90.3564-50.7812Q86.7676-54.3945 84.5215-59.9609Q82.2754-65.5273 80.835-73.6328Q79.3945-81.7383 78.1738-92.9688Q77.9785-94.5801 76.9043-95.5566Q75.8301-96.5332 74.2676-96.5332Q72.7539-96.5332 71.6553-95.5566Q70.5566-94.5801 70.3125-92.9688Q69.0918-81.7383 67.6514-73.6328Q66.2109-65.5273 63.9893-59.9609Q61.7676-54.3945 58.1543-50.7812Q54.541-47.168 49.0234-44.9951Q43.5059-42.8223 35.5469-41.4795Q27.5879-40.1367 16.5527-39.1113Q14.9414-38.9648 13.916-37.8906Q12.8906-36.8164 12.8906-35.2539Q12.8906-33.6914 13.916-32.666Q14.9414-31.6406 16.5527-31.4453Q27.5391-30.0781 35.4492-28.6377Q43.3594-27.1973 48.8281-25.0488Q54.2969-22.9004 57.8857-19.3848Q61.4746-15.8691 63.7207-10.4004Q65.9668-4.93164 67.4561 3.125Q68.9453 11.1816 70.3125 22.4609Q70.5566 24.0723 71.6553 25.0244Q72.7539 25.9766 74.2676 25.9766Z"/>
  </g>
  <g id="Thin-L" transform="matrix(1 0 0 1 782.179 1556)">
   <path class="multicolor-0:systemYellowColor SFSymbolsPreviewFFCC00" d="M74.2676 25.9766Q75.6836 25.9766 76.6113 25.1465Q77.5391 24.3164 77.6855 22.9492Q78.8086 11.084 80.1025 2.66113Q81.3965-5.76172 83.5693-11.4746Q85.7422-17.1875 89.3311-20.8008Q92.9199-24.4141 98.584-26.5137Q104.248-28.6133 112.573-29.834Q120.898-31.0547 132.568-32.0312Q133.887-32.1289 134.741-33.0322Q135.596-33.9355 135.596-35.2539Q135.596-36.5723 134.741-37.5Q133.887-38.4277 132.568-38.4766Q120.898-39.502 112.573-40.7227Q104.248-41.9434 98.584-44.043Q92.9199-46.1426 89.3311-49.7559Q85.7422-53.3691 83.5693-59.082Q81.3965-64.7949 80.1025-73.2178Q78.8086-81.6406 77.6855-93.457Q77.5391-94.8242 76.6113-95.6543Q75.6836-96.4844 74.2676-96.4844Q72.9004-96.4844 71.9727-95.6543Q71.0449-94.8242 70.8496-93.457Q69.6777-81.6406 68.3838-73.2178Q67.0898-64.7949 64.9414-59.082Q62.793-53.3691 59.1797-49.7559Q55.5664-46.1426 49.9268-44.043Q44.2871-41.9434 35.9375-40.7227Q27.5879-39.502 15.918-38.4766Q14.5996-38.4277 13.7451-37.5Q12.8906-36.5723 12.8906-35.2539Q12.8906-33.9355 13.7451-33.1055Q14.5996-32.2754 15.918-32.0312Q27.4902-30.6641 35.7422-29.3213Q43.9941-27.9785 49.585-25.9277Q55.1758-23.877 58.7891-20.3857Q62.4023-16.8945 64.5996-11.3281Q66.7969-5.76172 68.1885 2.6123Q69.5801 10.9863 70.8496 22.9492Q71.0449 24.3164 71.9727 25.1465Q72.9004 25.9766 74.2676 25.9766Z"/>
  </g>
  <g id="Ultralight-L" transform="matrix(1 0 0 1 485.468 1556)">
   <path class="multicolor-0:systemYellowColor SFSymbolsPreviewFFCC00" d="M74.2676 25.9277Q75.5859 25.9277 76.4648 25.1709Q77.3438 24.4141 77.4414 23.1445Q78.4668 11.0352 79.7119 2.46582Q80.957-6.10352 83.0811-11.8896Q85.2051-17.6758 88.7939-21.2891Q92.3828-24.9023 98.1445-26.9775Q103.906-29.0527 112.402-30.2246Q120.898-31.3965 132.861-32.373Q134.082-32.4219 134.839-33.2275Q135.596-34.0332 135.596-35.2539Q135.596-36.4746 134.839-37.3047Q134.082-38.1348 132.861-38.1836Q120.898-39.1113 112.402-40.3076Q103.906-41.5039 98.1445-43.5791Q92.3828-45.6543 88.7939-49.2676Q85.2051-52.8809 83.0811-58.6426Q80.957-64.4043 79.7119-72.998Q78.4668-81.5918 77.4414-93.6523Q77.3438-94.9707 76.4648-95.7031Q75.5859-96.4355 74.2676-96.4355Q72.998-96.4355 72.1191-95.7031Q71.2402-94.9707 71.0938-93.6523Q70.0195-81.5918 68.7744-72.998Q67.5293-64.4043 65.4297-58.6426Q63.3301-52.8809 59.7168-49.2676Q56.1035-45.6543 50.3662-43.5791Q44.6289-41.5039 36.1328-40.3076Q27.6367-39.1113 15.625-38.1836Q14.4531-38.1348 13.6719-37.3047Q12.8906-36.4746 12.8906-35.2539Q12.8906-34.0332 13.6719-33.3008Q14.4531-32.5684 15.625-32.373Q27.4902-30.957 35.9131-29.6631Q44.3359-28.3691 50-26.3672Q55.6641-24.3652 59.2773-20.874Q62.8906-17.3828 65.0391-11.7676Q67.1875-6.15234 68.5303 2.39258Q69.873 10.9375 71.0938 23.1445Q71.2402 24.4141 72.1191 25.1709Q72.998 25.9277 74.2676 25.9277Z"/>
  </g>
  <g id="Black-M" transform="matrix(1 0 0 1 2869.53 1126)">
   <path class="multicolor-0:systemYellowColor SFSymbolsPreviewFFCC00" d="M63.8672 18.7012Q66.5039 18.7012 68.4326 16.9434Q70.3613 15.1855 70.752 12.4512Q72.168 2.68555 73.8525-4.00391Q75.5371-10.6934 78.125-14.9658Q80.7129-19.2383 84.9121-21.7773Q89.1113-24.3164 95.5322-25.7568Q101.953-27.1973 111.377-28.2715Q114.062-28.6133 115.918-30.6152Q117.773-32.6172 117.773-35.2539Q117.773-37.9395 115.942-39.8926Q114.111-41.8457 111.426-42.2852Q102.1-43.5547 95.752-45.0928Q89.4043-46.6309 85.2783-49.1211Q81.1523-51.6113 78.5645-55.835Q75.9766-60.0586 74.2188-66.6504Q72.4609-73.2422 70.752-83.0078Q70.2637-85.7422 68.3594-87.4756Q66.4551-89.209 63.8672-89.209Q61.1816-89.209 59.2529-87.4512Q57.3242-85.6934 56.8848-82.959Q55.4688-73.1934 53.833-66.5283Q52.1973-59.8633 49.6094-55.5664Q47.0215-51.2695 42.8223-48.7549Q38.623-46.2402 32.2021-44.7998Q25.7812-43.3594 16.4062-42.2852Q13.623-41.8945 11.792-39.917Q9.96094-37.9395 9.96094-35.2539Q9.96094-32.6172 11.7432-30.6396Q13.5254-28.6621 16.3086-28.2715Q24.1211-27.1484 29.7852-25.9277Q35.4492-24.707 39.4531-22.9492Q43.457-21.1914 46.1914-18.4326Q48.9258-15.6738 50.8057-11.5723Q52.6855-7.4707 54.1016-1.5625Q55.5176 4.3457 56.8848 12.5Q57.4219 15.2344 59.3506 16.9678Q61.2793 18.7012 63.8672 18.7012Z"/>
  </g>
  <g id="Heavy-M" transform="matrix(1 0 0 1 2574.31 1126)">
   <path class="multicolor-0:systemYellowColor SFSymbolsPreviewFFCC00" d="M62.3535 17.1875Q64.6973 17.1875 66.4062 15.625Q68.1152 14.0625 68.457 11.6211Q69.873 1.85547 71.5088-4.83398Q73.1445-11.5234 75.7324-15.7959Q78.3203-20.0684 82.5195-22.6074Q86.7188-25.1465 93.1885-26.5869Q99.6582-28.0273 109.082-29.1016Q111.475-29.3945 113.135-31.1523Q114.795-32.9102 114.795-35.2539Q114.795-37.6465 113.159-39.3799Q111.523-41.1133 109.131-41.4551Q99.7559-42.6758 93.3594-44.1895Q86.9629-45.7031 82.8125-48.2178Q78.6621-50.7324 76.0742-54.9561Q73.4863-59.1797 71.7773-65.7959Q70.0684-72.4121 68.457-82.1777Q68.0176-84.6191 66.333-86.1572Q64.6484-87.6953 62.3535-87.6953Q60.0098-87.6953 58.3008-86.1328Q56.5918-84.5703 56.2012-82.1289Q54.834-72.3633 53.1982-65.6982Q51.5625-59.0332 48.9746-54.7363Q46.3867-50.4395 42.1875-47.9248Q37.9883-45.4102 31.543-43.9697Q25.0977-42.5293 15.6738-41.4551Q13.2324-41.1133 11.5967-39.3799Q9.96094-37.6465 9.96094-35.2539Q9.96094-32.9102 11.5479-31.1523Q13.1348-29.3945 15.625-29.1016Q23.4863-27.9785 29.1748-26.7578Q34.8633-25.5371 38.8916-23.7793Q42.9199-22.0215 45.6543-19.2627Q48.3887-16.5039 50.2441-12.4023Q52.0996-8.30078 53.4912-2.39258Q54.8828 3.51562 56.2012 11.6699Q56.6406 14.1113 58.3496 15.6494Q60.0586 17.1875 62.3535 17.1875Z"/>
  </g>
  <g id="Bold-M" transform="matrix(1 0 0 1 2279.28 1126)">
   <path class="multicolor-0:systemYellowColor SFSymbolsPreviewFFCC00" d="M60.6934 15.4785Q62.6953 15.4785 64.1602 14.1602Q65.625 12.8418 65.918 10.7422Q67.2852 0.976562 68.8965-5.71289Q70.5078-12.4023 73.0957-16.6748Q75.6836-20.9473 79.8828-23.4863Q84.082-26.0254 90.5762-27.4658Q97.0703-28.9062 106.543-29.9805Q108.594-30.2246 110.01-31.7383Q111.426-33.252 111.426-35.2539Q111.426-37.3047 110.034-38.7939Q108.643-40.2832 106.543-40.5762Q97.1191-41.748 90.6738-43.2373Q84.2285-44.7266 80.0537-47.2412Q75.8789-49.7559 73.3154-54.0039Q70.752-58.252 69.0918-64.8926Q67.4316-71.5332 65.918-81.2988Q65.5762-83.3984 64.1357-84.6924Q62.6953-85.9863 60.6934-85.9863Q58.6914-85.9863 57.2266-84.668Q55.7617-83.3496 55.4199-81.25Q54.1016-71.4844 52.4902-64.8193Q50.8789-58.1543 48.291-53.8574Q45.7031-49.5605 41.5039-47.0459Q37.3047-44.5312 30.835-43.0908Q24.3652-41.6504 14.8926-40.5762Q12.7441-40.2832 11.3525-38.7939Q9.96094-37.3047 9.96094-35.2539Q9.96094-33.252 11.3281-31.7627Q12.6953-30.2734 14.8438-29.9805Q22.7539-28.9062 28.4912-27.6855Q34.2285-26.4648 38.2812-24.707Q42.334-22.9492 45.0684-20.1904Q47.8027-17.4316 49.6582-13.3301Q51.5137-9.22852 52.8564-3.2959Q54.1992 2.63672 55.4199 10.7422Q55.8105 12.8418 57.2754 14.1602Q58.7402 15.4785 60.6934 15.4785Z"/>
  </g>
  <g id="Semibold-M" transform="matrix(1 0 0 1 1983.72 1126)">
   <path class="multicolor-0:systemYellowColor SFSymbolsPreviewFFCC00" d="M59.5215 14.3066Q61.3281 14.3066 62.5977 13.1348Q63.8672 11.9629 64.1602 10.1074Q65.4785 0.341797 67.0898-6.34766Q68.7012-13.0371 71.2646-17.3096Q73.8281-21.582 78.0518-24.1211Q82.2754-26.6602 88.7695-28.1006Q95.2637-29.541 104.736-30.6152Q106.592-30.8105 107.861-32.1289Q109.131-33.4473 109.131-35.2539Q109.131-37.0605 107.886-38.3789Q106.641-39.6973 104.785-39.9414Q95.3125-41.0645 88.8184-42.5293Q82.3242-43.9941 78.1494-46.5088Q73.9746-49.0234 71.3867-53.2959Q68.7988-57.5684 67.1875-64.2334Q65.5762-70.8984 64.1602-80.6641Q63.8184-82.5195 62.5488-83.667Q61.2793-84.8145 59.5215-84.8145Q57.7637-84.8145 56.4697-83.667Q55.1758-82.5195 54.8828-80.6152Q53.5645-70.8496 51.9775-64.1846Q50.3906-57.5195 47.8027-53.2227Q45.2148-48.9258 40.9912-46.4111Q36.7676-43.8965 30.2979-42.4561Q23.8281-41.0156 14.3555-39.9414Q12.4023-39.6973 11.1816-38.3789Q9.96094-37.0605 9.96094-35.2539Q9.96094-33.4473 11.1816-32.1289Q12.4023-30.8105 14.3066-30.6152Q22.2168-29.4922 27.9785-28.2959Q33.7402-27.0996 37.8174-25.3418Q41.8945-23.584 44.6533-20.8252Q47.4121-18.0664 49.2432-13.9404Q51.0742-9.81445 52.3682-3.90625Q53.6621 2.00195 54.8828 10.1074Q55.2246 11.9629 56.4941 13.1348Q57.7637 14.3066 59.5215 14.3066Z"/>
  </g>
  <g id="Medium-M" transform="matrix(1 0 0 1 1687.89 1126)">
   <path class="multicolor-0:systemYellowColor SFSymbolsPreviewFFCC00" d="M58.6426 13.4277Q60.2539 13.4277 61.4014 12.3535Q62.5488 11.2793 62.8418 9.61914Q64.1113-0.146484 65.6982-6.81152Q67.2852-13.4766 69.8486-17.749Q72.4121-22.0215 76.6357-24.5605Q80.8594-27.0996 87.3779-28.54Q93.8965-29.9805 103.418-31.0547Q105.078-31.25 106.226-32.4463Q107.373-33.6426 107.373-35.2539Q107.373-36.9141 106.226-38.0859Q105.078-39.2578 103.418-39.502Q93.9453-40.5273 87.4268-41.9922Q80.9082-43.457 76.709-45.9961Q72.5098-48.5352 69.9463-52.7832Q67.3828-57.0312 65.7715-63.7207Q64.1602-70.4102 62.8418-80.1758Q62.5488-81.8359 61.4014-82.8857Q60.2539-83.9355 58.6426-83.9355Q57.0801-83.9355 55.9326-82.8857Q54.7852-81.8359 54.4922-80.1758Q53.1738-70.4102 51.6113-63.7207Q50.0488-57.0312 47.4609-52.7588Q44.873-48.4863 40.6494-45.9473Q36.4258-43.4082 29.9316-41.9678Q23.4375-40.5273 13.916-39.502Q12.1582-39.2578 11.0596-38.0859Q9.96094-36.9141 9.96094-35.2539Q9.96094-33.6426 11.0596-32.4463Q12.1582-31.25 13.916-31.0547Q21.8262-29.9805 27.6123-28.7842Q33.3984-27.5879 37.4756-25.8301Q41.5527-24.0723 44.3115-21.3135Q47.0703-18.5547 48.9014-14.4287Q50.7324-10.3027 52.0264-4.39453Q53.3203 1.51367 54.4922 9.61914Q54.7852 11.3281 55.9326 12.3779Q57.0801 13.4277 58.6426 13.4277Z"/>
  </g>
  <g id="Regular-M" transform="matrix(1 0 0 1 1392.32 1126)">
   <path class="multicolor-0:systemYellowColor SFSymbolsPreviewFFCC00" d="M57.5195 12.2559Q58.8867 12.2559 59.8633 11.3525Q60.8398 10.4492 61.084 8.98438Q62.3535-0.78125 63.916-7.44629Q65.4785-14.1113 68.042-18.3838Q70.6055-22.6562 74.8291-25.1953Q79.0527-27.7344 85.5957-29.1748Q92.1387-30.6152 101.66-31.6895Q103.125-31.8359 104.102-32.8369Q105.078-33.8379 105.078-35.2539Q105.078-36.6699 104.102-37.6709Q103.125-38.6719 101.66-38.8672Q92.1387-39.8926 85.5957-41.333Q79.0527-42.7734 74.8291-45.3125Q70.6055-47.8516 68.042-52.124Q65.4785-56.3965 63.916-63.0859Q62.3535-69.7754 61.084-79.541Q60.8398-81.0059 59.8633-81.8848Q58.8867-82.7637 57.5195-82.7637Q56.1523-82.7637 55.1758-81.8848Q54.1992-81.0059 53.9551-79.541Q52.6855-69.7754 51.123-63.0859Q49.5605-56.3965 46.9727-52.124Q44.3848-47.8516 40.1611-45.3125Q35.9375-42.7734 29.4189-41.333Q22.9004-39.8926 13.3789-38.8672Q11.8652-38.6719 10.9131-37.6709Q9.96094-36.6699 9.96094-35.2539Q9.96094-33.8379 10.9131-32.8369Q11.8652-31.8359 13.3789-31.6895Q21.3379-30.6152 27.1484-29.4189Q32.959-28.2227 37.0605-26.4648Q41.1621-24.707 43.9209-21.9482Q46.6797-19.1895 48.4863-15.0635Q50.293-10.9375 51.5625-5.0293Q52.832 0.878906 53.9551 8.98438Q54.1992 10.4492 55.1758 11.3525Q56.1523 12.2559 57.5195 12.2559Z"/>
  </g>
  <g id="Light-M" transform="matrix(1 0 0 1 1095.61 1126)">
   <path class="multicolor-0:systemYellowColor SFSymbolsPreviewFFCC00" d="M57.5195 12.207Q58.7891 12.207 59.668 11.4014Q60.5469 10.5957 60.7422 9.32617Q61.9141-0.927734 63.3789-7.8125Q64.8438-14.6973 67.3584-19.043Q69.873-23.3887 74.1699-25.8789Q78.4668-28.3691 85.2539-29.7363Q92.041-31.1035 102.051-32.0801Q103.369-32.2266 104.224-33.1055Q105.078-33.9844 105.078-35.2539Q105.078-36.5234 104.224-37.4268Q103.369-38.3301 102.051-38.4277Q92.041-39.4531 85.2539-40.7959Q78.4668-42.1387 74.1699-44.6289Q69.873-47.1191 67.3584-51.4648Q64.8438-55.8105 63.3789-62.7197Q61.9141-69.6289 60.7422-79.834Q60.5469-81.1523 59.668-81.9336Q58.7891-82.7148 57.5195-82.7148Q56.2988-82.7148 55.3955-81.9336Q54.4922-81.1523 54.2969-79.834Q53.125-69.6289 51.6602-62.7197Q50.1953-55.8105 47.6562-51.4648Q45.1172-47.1191 40.8203-44.6289Q36.5234-42.1387 29.7607-40.7959Q22.998-39.4531 12.9883-38.4277Q11.6699-38.3301 10.8154-37.4268Q9.96094-36.5234 9.96094-35.2539Q9.96094-33.9844 10.8154-33.1055Q11.6699-32.2266 12.9883-32.0801Q21.3379-31.0059 27.3682-29.8828Q33.3984-28.7598 37.5732-27.0508Q41.748-25.3418 44.5312-22.6074Q47.3145-19.873 49.0723-15.6738Q50.8301-11.4746 52.0264-5.34668Q53.2227 0.78125 54.2969 9.32617Q54.4922 10.5957 55.3955 11.4014Q56.2988 12.207 57.5195 12.207Z"/>
  </g>
  <g id="Thin-M" transform="matrix(1 0 0 1 798.903 1126)">
   <path class="multicolor-0:systemYellowColor SFSymbolsPreviewFFCC00" d="M57.5195 12.207Q58.6426 12.207 59.3994 11.5234Q60.1562 10.8398 60.2539 9.7168Q61.3281-1.07422 62.6709-8.27637Q64.0137-15.4785 66.4551-19.8975Q68.8965-24.3164 73.291-26.7578Q77.6855-29.1992 84.79-30.4443Q91.8945-31.6895 102.588-32.6172Q103.662-32.7148 104.37-33.4473Q105.078-34.1797 105.078-35.2539Q105.078-36.3281 104.37-37.085Q103.662-37.8418 102.588-37.8906Q91.8945-38.8184 84.79-40.0635Q77.6855-41.3086 73.291-43.75Q68.8965-46.1914 66.4551-50.6104Q64.0137-55.0293 62.6709-62.2314Q61.3281-69.4336 60.2539-80.2246Q60.1562-81.3965 59.3994-82.0557Q58.6426-82.7148 57.5195-82.7148Q56.4453-82.7148 55.6641-82.0557Q54.8828-81.3965 54.7852-80.2246Q53.6621-69.4336 52.3438-62.2314Q51.0254-55.0293 48.5596-50.6104Q46.0938-46.1914 41.7236-43.75Q37.3535-41.3086 30.249-40.0635Q23.1445-38.8184 12.4512-37.8906Q11.377-37.8418 10.6689-37.085Q9.96094-36.3281 9.96094-35.2539Q9.96094-34.1797 10.6689-33.4717Q11.377-32.7637 12.4512-32.6172Q21.2891-31.543 27.6123-30.4932Q33.9355-29.4434 38.2568-27.832Q42.5781-26.2207 45.3613-23.5107Q48.1445-20.8008 49.8535-16.5039Q51.5625-12.207 52.6611-5.78613Q53.7598 0.634766 54.7852 9.7168Q54.8828 10.8398 55.6641 11.5234Q56.4453 12.207 57.5195 12.207Z"/>
  </g>
  <g id="Ultralight-M" transform="matrix(1 0 0 1 502.192 1126)">
   <path class="multicolor-0:systemYellowColor SFSymbolsPreviewFFCC00" d="M57.5195 12.1582Q58.5449 12.1582 59.2529 11.5479Q59.9609 10.9375 60.0586 9.96094Q61.0352-1.17188 62.3047-8.52051Q63.5742-15.8691 65.9912-20.3369Q68.4082-24.8047 72.8516-27.1973Q77.2949-29.5898 84.5459-30.8105Q91.7969-32.0312 102.832-32.9102Q103.809-32.959 104.443-33.6182Q105.078-34.2773 105.078-35.2539Q105.078-36.2305 104.443-36.9141Q103.809-37.5977 102.832-37.5977Q91.7969-38.5254 84.5459-39.7217Q77.2949-40.918 72.8516-43.3105Q68.4082-45.7031 65.9912-50.1709Q63.5742-54.6387 62.3047-61.9873Q61.0352-69.3359 60.0586-80.4688Q59.9609-81.4941 59.2529-82.0801Q58.5449-82.666 57.5195-82.666Q56.543-82.666 55.835-82.0801Q55.127-81.4941 54.9805-80.4688Q53.9551-69.3359 52.71-61.9873Q51.4648-54.6387 49.0479-50.1709Q46.6309-45.7031 42.1875-43.3105Q37.7441-40.918 30.4932-39.7217Q23.2422-38.5254 12.207-37.5977Q11.2305-37.5977 10.5957-36.9141Q9.96094-36.2305 9.96094-35.2539Q9.96094-34.2773 10.5957-33.667Q11.2305-33.0566 12.207-32.9102Q21.2891-31.8359 27.7588-30.835Q34.2285-29.834 38.5986-28.2471Q42.9688-26.6602 45.752-23.9746Q48.5352-21.2891 50.2197-16.9189Q51.9043-12.5488 52.9541-6.00586Q54.0039 0.537109 54.9805 9.96094Q55.127 10.9375 55.835 11.5479Q56.543 12.1582 57.5195 12.1582Z"/>
  </g>
  <g id="Black-S" transform="matrix(1 0 0 1 2882.89 696)">
   <path class="multicolor-0:systemYellowColor SFSymbolsPreviewFFCC00" d="M50.4883 7.4707Q52.6367 7.4707 54.2236 6.05469Q55.8105 4.63867 56.1035 2.39258Q57.2266-5.32227 58.5449-10.5469Q59.8633-15.7715 61.8896-19.1406Q63.916-22.5098 67.2119-24.4873Q70.5078-26.4648 75.5615-27.5879Q80.6152-28.7109 87.9883-29.541Q90.1855-29.834 91.6992-31.4697Q93.2129-33.1055 93.2129-35.2539Q93.2129-37.4023 91.7236-39.0137Q90.2344-40.625 88.0371-40.9668Q80.7129-41.9922 75.7324-43.1885Q70.752-44.3848 67.5293-46.3379Q64.3066-48.291 62.2803-51.5869Q60.2539-54.8828 58.8623-60.083Q57.4707-65.2832 56.1035-72.9492Q55.7617-75.1465 54.1992-76.5625Q52.6367-77.9785 50.4883-77.9785Q48.3398-77.9785 46.7529-76.5625Q45.166-75.1465 44.8242-72.9004Q43.7012-65.2344 42.4072-59.9854Q41.1133-54.7363 39.0869-51.3672Q37.0605-47.998 33.7891-46.0205Q30.5176-44.043 25.4639-42.9199Q20.4102-41.7969 13.0371-40.9668Q10.791-40.6738 9.30176-39.0625Q7.8125-37.4512 7.8125-35.2539Q7.8125-33.1055 9.27734-31.4941Q10.7422-29.8828 12.9883-29.541Q20.3125-28.5156 25.293-27.3193Q30.2734-26.123 33.4961-24.1699Q36.7188-22.2168 38.7451-18.9209Q40.7715-15.625 42.1387-10.4248Q43.5059-5.22461 44.8242 2.44141Q45.2637 4.6875 46.8262 6.0791Q48.3887 7.4707 50.4883 7.4707Z"/>
  </g>
  <g id="Heavy-S" transform="matrix(1 0 0 1 2587.47 696)">
   <path class="multicolor-0:systemYellowColor SFSymbolsPreviewFFCC00" d="M49.2188 6.20117Q51.123 6.20117 52.5391 4.93164Q53.9551 3.66211 54.1992 1.66016Q55.3223-6.00586 56.6162-11.2061Q57.9102-16.4062 59.9365-19.751Q61.9629-23.0957 65.2588-25.0977Q68.5547-27.0996 73.584-28.2227Q78.6133-29.3457 85.9863-30.1758Q87.9395-30.4199 89.2822-31.8848Q90.625-33.3496 90.625-35.2539Q90.625-37.1582 89.3066-38.5986Q87.9883-40.0391 85.9863-40.332Q78.7109-41.3086 73.7305-42.5049Q68.75-43.7012 65.5029-45.6543Q62.2559-47.6074 60.2295-50.9277Q58.2031-54.248 56.8359-59.4238Q55.4688-64.5996 54.1992-72.2168Q53.9062-74.1699 52.5146-75.4395Q51.123-76.709 49.2188-76.709Q47.3145-76.709 45.8984-75.4395Q44.4824-74.1699 44.1895-72.168Q43.0664-64.5508 41.7725-59.3262Q40.4785-54.1016 38.4521-50.7568Q36.4258-47.4121 33.1543-45.4102Q29.8828-43.4082 24.8535-42.2852Q19.8242-41.1621 12.5-40.332Q10.4492-40.0879 9.13086-38.6475Q7.8125-37.207 7.8125-35.2539Q7.8125-33.3496 9.13086-31.9092Q10.4492-30.4688 12.4512-30.1758Q19.7266-29.1504 24.707-27.9541Q29.6875-26.7578 32.9346-24.8047Q36.1816-22.8516 38.208-19.5557Q40.2344-16.2598 41.5771-11.084Q42.9199-5.9082 44.1895 1.70898Q44.5801 3.71094 45.9717 4.95605Q47.3633 6.20117 49.2188 6.20117Z"/>
  </g>
  <g id="Bold-S" transform="matrix(1 0 0 1 2292.18 696)">
   <path class="multicolor-0:systemYellowColor SFSymbolsPreviewFFCC00" d="M47.8027 4.73633Q49.4141 4.73633 50.6348 3.66211Q51.8555 2.58789 52.0996 0.830078Q53.1738-6.73828 54.4678-11.9141Q55.7617-17.0898 57.7881-20.4346Q59.8145-23.7793 63.1104-25.7812Q66.4062-27.7832 71.4111-28.9307Q76.416-30.0781 83.7402-30.9082Q85.4492-31.1035 86.6211-32.3486Q87.793-33.5938 87.793-35.2539Q87.793-36.9141 86.6455-38.1592Q85.498-39.4043 83.7402-39.6484Q76.4648-40.5762 71.4844-41.748Q66.5039-42.9199 63.2568-44.8975Q60.0098-46.875 57.9834-50.1953Q55.957-53.5156 54.6143-58.667Q53.2715-63.8184 52.0996-71.3867Q51.8066-73.0957 50.6104-74.1699Q49.4141-75.2441 47.8027-75.2441Q46.1426-75.2441 44.9463-74.1699Q43.75-73.0957 43.457-71.3379Q42.3828-63.8184 41.1133-58.6182Q39.8438-53.418 37.793-50.0732Q35.7422-46.7285 32.4707-44.751Q29.1992-42.7734 24.1943-41.626Q19.1895-40.4785 11.8652-39.6484Q10.1074-39.4043 8.95996-38.1836Q7.8125-36.9629 7.8125-35.2539Q7.8125-33.5938 8.95996-32.373Q10.1074-31.1523 11.8652-30.9082Q19.1406-29.8828 24.1211-28.6865Q29.1016-27.4902 32.3486-25.5127Q35.5957-23.5352 37.6221-20.2393Q39.6484-16.9434 40.9668-11.8164Q42.2852-6.68945 43.457 0.878906Q43.7988 2.58789 44.9951 3.66211Q46.1914 4.73633 47.8027 4.73633Z"/>
  </g>
  <g id="Semibold-S" transform="matrix(1 0 0 1 1996.46 696)">
   <path class="multicolor-0:systemYellowColor SFSymbolsPreviewFFCC00" d="M46.7773 3.75977Q48.2422 3.75977 49.3164 2.7832Q50.3906 1.80664 50.5859 0.244141Q51.6602-7.27539 52.9541-12.4268Q54.248-17.5781 56.2744-20.8984Q58.3008-24.2188 61.5967-26.2207Q64.8926-28.2227 69.8975-29.3945Q74.9023-30.5664 82.1777-31.3965Q83.7402-31.543 84.7656-32.666Q85.791-33.7891 85.791-35.2539Q85.791-36.7188 84.7656-37.8174Q83.7402-38.916 82.1777-39.1113Q74.9023-40.0391 69.9219-41.2109Q64.9414-42.3828 61.6943-44.3604Q58.4473-46.3379 56.3965-49.6582Q54.3457-52.9785 53.0518-58.1299Q51.7578-63.2812 50.5859-70.8008Q50.3906-72.3145 49.3164-73.291Q48.2422-74.2676 46.7773-74.2676Q45.3613-74.2676 44.2871-73.291Q43.2129-72.3145 42.9688-70.752Q41.8945-63.2812 40.625-58.1055Q39.3555-52.9297 37.3047-49.6094Q35.2539-46.2891 31.9824-44.2871Q28.7109-42.2852 23.7061-41.1133Q18.7012-39.9414 11.4258-39.1113Q9.86328-38.9648 8.83789-37.8662Q7.8125-36.7676 7.8125-35.2539Q7.8125-33.7891 8.83789-32.6904Q9.86328-31.5918 11.4258-31.3965Q18.7012-30.3711 23.6816-29.1748Q28.6621-27.9785 31.9092-25.9766Q35.1562-23.9746 37.1826-20.7031Q39.209-17.4316 40.5029-12.3047Q41.7969-7.17773 42.9688 0.292969Q43.2129 1.80664 44.2871 2.7832Q45.3613 3.75977 46.7773 3.75977Z"/>
  </g>
  <g id="Medium-S" transform="matrix(1 0 0 1 1700.51 696)">
   <path class="multicolor-0:systemYellowColor SFSymbolsPreviewFFCC00" d="M46.0449 2.97852Q47.3633 2.97852 48.3154 2.09961Q49.2676 1.2207 49.5117-0.146484Q50.5371-7.66602 51.8066-12.793Q53.0762-17.9199 55.127-21.2646Q57.1777-24.6094 60.4492-26.5869Q63.7207-28.5645 68.7256-29.7363Q73.7305-30.9082 80.957-31.7383Q82.4219-31.9336 83.3496-32.9102Q84.2773-33.8867 84.2773-35.2539Q84.2773-36.6211 83.3496-37.5977Q82.4219-38.5742 81.0059-38.7695Q73.7305-39.6484 68.75-40.8203Q63.7695-41.9922 60.5225-43.9697Q57.2754-45.9473 55.2246-49.2676Q53.1738-52.5879 51.8799-57.7393Q50.5859-62.8906 49.5117-70.3613Q49.2676-71.7285 48.3154-72.6074Q47.3633-73.4863 46.0449-73.4863Q44.7266-73.4863 43.7744-72.6074Q42.8223-71.7285 42.5781-70.3613Q41.5527-62.8906 40.2832-57.7393Q39.0137-52.5879 36.9629-49.2432Q34.9121-45.8984 31.6406-43.9209Q28.3691-41.9434 23.3643-40.7715Q18.3594-39.5996 11.1328-38.7695Q9.66797-38.5742 8.74023-37.5977Q7.8125-36.6211 7.8125-35.2539Q7.8125-33.8867 8.74023-32.9102Q9.66797-31.9336 11.084-31.7383Q18.3594-30.7617 23.3398-29.541Q28.3203-28.3203 31.5674-26.3184Q34.8145-24.3164 36.8408-21.0449Q38.8672-17.7734 40.1611-12.6709Q41.4551-7.56836 42.5781-0.146484Q42.8223 1.2207 43.7744 2.09961Q44.7266 2.97852 46.0449 2.97852Z"/>
  </g>
  <g id="Regular-S" transform="matrix(1 0 0 1 1404.78 696)">
   <path class="multicolor-0:systemYellowColor SFSymbolsPreviewFFCC00" d="M45.0684 2.00195Q46.1914 2.00195 47.0215 1.24512Q47.8516 0.488281 48.0469-0.732422Q49.0723-8.1543 50.3418-13.2812Q51.6113-18.4082 53.6621-21.7285Q55.7129-25.0488 58.9844-27.0508Q62.2559-29.0527 67.2363-30.2246Q72.2168-31.3965 79.4434-32.2266Q80.7129-32.373 81.5186-33.2275Q82.3242-34.082 82.3242-35.2539Q82.3242-36.4258 81.5186-37.2803Q80.7129-38.1348 79.4434-38.2812Q72.2168-39.1113 67.2363-40.2832Q62.2559-41.4551 58.9844-43.457Q55.7129-45.459 53.6621-48.7793Q51.6113-52.0996 50.3418-57.2266Q49.0723-62.3535 48.0469-69.7754Q47.8516-70.9961 47.0215-71.7529Q46.1914-72.5098 45.0684-72.5098Q43.9453-72.5098 43.1152-71.7529Q42.2852-70.9961 42.0898-69.7754Q41.0645-62.3535 39.7949-57.2266Q38.5254-52.0996 36.4746-48.7793Q34.4238-45.459 31.1523-43.457Q27.8809-41.4551 22.9004-40.2832Q17.9199-39.1113 10.6934-38.2812Q9.42383-38.1348 8.61816-37.2803Q7.8125-36.4258 7.8125-35.2539Q7.8125-34.082 8.61816-33.2275Q9.42383-32.373 10.6934-32.2266Q17.9199-31.25 22.9004-30.0293Q27.8809-28.8086 31.1523-26.8066Q34.4238-24.8047 36.4502-21.5332Q38.4766-18.2617 39.7461-13.1836Q41.0156-8.10547 42.0898-0.732422Q42.2852 0.488281 43.1152 1.24512Q43.9453 2.00195 45.0684 2.00195Z"/>
  </g>
  <g id="Light-S" transform="matrix(1 0 0 1 1108.06 696)">
   <path class="multicolor-0:systemYellowColor SFSymbolsPreviewFFCC00" d="M45.0684 1.95312Q46.0938 1.95312 46.8262 1.29395Q47.5586 0.634766 47.7539-0.439453Q48.6816-8.30078 49.8779-13.623Q51.0742-18.9453 53.0762-22.3145Q55.0781-25.6836 58.3984-27.6367Q61.7188-29.5898 66.9189-30.6885Q72.1191-31.7871 79.7852-32.6172Q80.9082-32.7148 81.6162-33.4473Q82.3242-34.1797 82.3242-35.2539Q82.3242-36.3281 81.6162-37.0605Q80.9082-37.793 79.7852-37.8906Q72.1191-38.7207 66.9189-39.8193Q61.7188-40.918 58.3984-42.8711Q55.0781-44.8242 53.0762-48.1934Q51.0742-51.5625 49.8779-56.8848Q48.6816-62.207 47.7539-70.0684Q47.5586-71.1426 46.8262-71.8018Q46.0938-72.4609 45.0684-72.4609Q44.043-72.4609 43.3105-71.8018Q42.5781-71.1426 42.3828-70.0684Q41.4551-62.207 40.2588-56.8848Q39.0625-51.5625 37.0605-48.1934Q35.0586-44.8242 31.7383-42.8711Q28.418-40.918 23.2178-39.8193Q18.0176-38.7207 10.3516-37.8906Q9.22852-37.793 8.52051-37.0605Q7.8125-36.3281 7.8125-35.2539Q7.8125-34.1797 8.52051-33.4473Q9.22852-32.7148 10.3516-32.6172Q17.9688-31.5918 23.1445-30.4443Q28.3203-29.2969 31.665-27.3682Q35.0098-25.4395 36.9873-22.1191Q38.9648-18.7988 40.1611-13.5498Q41.3574-8.30078 42.3828-0.439453Q42.5781 0.634766 43.3105 1.29395Q44.043 1.95312 45.0684 1.95312Z"/>
  </g>
  <g id="Thin-S" transform="matrix(1 0 0 1 811.354 696)">
   <path class="multicolor-0:systemYellowColor SFSymbolsPreviewFFCC00" d="M45.0684 1.95312Q45.9961 1.95312 46.6064 1.3916Q47.2168 0.830078 47.3633-0.0976562Q48.1934-8.44727 49.2432-14.0137Q50.293-19.5801 52.2461-23.0469Q54.1992-26.5137 57.6172-28.4424Q61.0352-30.3711 66.5283-31.3477Q72.0215-32.3242 80.2734-33.1055Q81.1523-33.1543 81.7383-33.7646Q82.3242-34.375 82.3242-35.2539Q82.3242-36.1328 81.7383-36.7432Q81.1523-37.3535 80.2734-37.4023Q72.0215-38.1836 66.5283-39.1602Q61.0352-40.1367 57.6172-42.0654Q54.1992-43.9941 52.2461-47.4609Q50.293-50.9277 49.2432-56.4941Q48.1934-62.0605 47.3633-70.4102Q47.2168-71.3379 46.6064-71.8994Q45.9961-72.4609 45.0684-72.4609Q44.1895-72.4609 43.5791-71.8994Q42.9688-71.3379 42.7734-70.4102Q41.9434-62.0605 40.8936-56.4941Q39.8438-50.9277 37.8906-47.4609Q35.9375-43.9941 32.5195-42.0654Q29.1016-40.1367 23.6084-39.1602Q18.1152-38.1836 9.86328-37.4023Q8.98438-37.3535 8.39844-36.7432Q7.8125-36.1328 7.8125-35.2539Q7.8125-34.375 8.39844-33.7891Q8.98438-33.2031 9.86328-33.1055Q18.0664-32.0801 23.5107-31.0303Q28.9551-29.9805 32.3486-28.125Q35.7422-26.2695 37.6953-22.9248Q39.6484-19.5801 40.7471-14.0625Q41.8457-8.54492 42.7734-0.0976562Q42.9688 0.830078 43.5791 1.3916Q44.1895 1.95312 45.0684 1.95312Z"/>
  </g>
  <g id="Ultralight-S" transform="matrix(1 0 0 1 514.643 696)">
   <path class="multicolor-0:systemYellowColor SFSymbolsPreviewFFCC00" d="M45.0684 1.9043Q45.8984 1.9043 46.46 1.41602Q47.0215 0.927734 47.1191 0.0976562Q47.9492-8.54492 48.9502-14.2578Q49.9512-19.9707 51.8555-23.4375Q53.7598-26.9043 57.2021-28.8086Q60.6445-30.7129 66.2842-31.665Q71.9238-32.6172 80.5176-33.3496Q81.2988-33.3496 81.8115-33.8867Q82.3242-34.4238 82.3242-35.2539Q82.3242-36.084 81.8115-36.6211Q81.2988-37.1582 80.5176-37.1582Q71.9238-37.8906 66.2842-38.8428Q60.6445-39.7949 57.2021-41.6992Q53.7598-43.6035 51.8555-47.0703Q49.9512-50.5371 48.9502-56.25Q47.9492-61.9629 47.1191-70.6055Q47.0215-71.4355 46.46-71.9238Q45.8984-72.4121 45.0684-72.4121Q44.2871-72.4121 43.7256-71.9238Q43.1641-71.4355 43.0176-70.6055Q42.1875-61.9629 41.1865-56.25Q40.1855-50.5371 38.2812-47.0703Q36.377-43.6035 32.9346-41.6992Q29.4922-39.7949 23.8525-38.8428Q18.2129-37.8906 9.61914-37.1582Q8.83789-37.1582 8.3252-36.6211Q7.8125-36.084 7.8125-35.2539Q7.8125-34.4238 8.3252-33.9355Q8.83789-33.4473 9.61914-33.3496Q18.1152-32.3242 23.6816-31.3232Q29.248-30.3223 32.6904-28.4912Q36.1328-26.6602 38.0615-23.291Q39.9902-19.9219 41.04-14.2822Q42.0898-8.64258 43.0176 0.0976562Q43.1641 0.927734 43.7256 1.41602Q44.2871 1.9043 45.0684 1.9043Z"/>
  </g>
 </g>
</svg>
