<?xml version="1.0" encoding="UTF-8"?>
<!--Generator: Apple Native CoreSVG 175-->
<!DOCTYPE svg
PUBLIC "-//W3C//DTD SVG 1.1//EN"
       "http://www.w3.org/Graphics/SVG/1.1/DTD/svg11.dtd">
<svg version="1.1" xmlns="http://www.w3.org/2000/svg" xmlns:xlink="http://www.w3.org/1999/xlink" width="3300" height="2200">
 <!--glyph: "uni10031F.medium", point size: 100.0, font version: "17.0d11e1", template writer version: "65.1"-->
 <g id="Notes">
  <rect height="2200" id="artboard" style="fill:white;opacity:1" width="3300" x="0" y="0"/>
  <line style="fill:none;stroke:black;opacity:1;stroke-width:0.5;" x1="263" x2="3036" y1="292" y2="292"/>
  <text style="stroke:none;fill:black;font-family:sans-serif;font-size:13;font-weight:bold;" transform="matrix(1 0 0 1 263 322)">Weight/Scale Variations</text>
  <text style="stroke:none;fill:black;font-family:sans-serif;font-size:13;text-anchor:middle;" transform="matrix(1 0 0 1 559.711 322)">Ultralight</text>
  <text style="stroke:none;fill:black;font-family:sans-serif;font-size:13;text-anchor:middle;" transform="matrix(1 0 0 1 856.422 322)">Thin</text>
  <text style="stroke:none;fill:black;font-family:sans-serif;font-size:13;text-anchor:middle;" transform="matrix(1 0 0 1 1153.13 322)">Light</text>
  <text style="stroke:none;fill:black;font-family:sans-serif;font-size:13;text-anchor:middle;" transform="matrix(1 0 0 1 1449.84 322)">Regular</text>
  <text style="stroke:none;fill:black;font-family:sans-serif;font-size:13;text-anchor:middle;" transform="matrix(1 0 0 1 1746.56 322)">Medium</text>
  <text style="stroke:none;fill:black;font-family:sans-serif;font-size:13;text-anchor:middle;" transform="matrix(1 0 0 1 2043.27 322)">Semibold</text>
  <text style="stroke:none;fill:black;font-family:sans-serif;font-size:13;text-anchor:middle;" transform="matrix(1 0 0 1 2339.98 322)">Bold</text>
  <text style="stroke:none;fill:black;font-family:sans-serif;font-size:13;text-anchor:middle;" transform="matrix(1 0 0 1 2636.69 322)">Heavy</text>
  <text style="stroke:none;fill:black;font-family:sans-serif;font-size:13;text-anchor:middle;" transform="matrix(1 0 0 1 2933.4 322)">Black</text>
  <line style="fill:none;stroke:black;opacity:1;stroke-width:0.5;" x1="263" x2="3036" y1="1903" y2="1903"/>
  <g transform="matrix(1 0 0 1 263 1933)">
   <path d="M9.24805 0.830078Q10.8691 0.830078 12.2949 0.214844Q13.7207-0.400391 14.8096-1.49414Q15.8984-2.58789 16.5186-4.01367Q17.1387-5.43945 17.1387-7.05078Q17.1387-8.66211 16.5186-10.0879Q15.8984-11.5137 14.8047-12.6074Q13.7109-13.7012 12.2852-14.3164Q10.8594-14.9316 9.23828-14.9316Q7.62695-14.9316 6.20117-14.3164Q4.77539-13.7012 3.69141-12.6074Q2.60742-11.5137 1.9873-10.0879Q1.36719-8.66211 1.36719-7.05078Q1.36719-5.43945 1.9873-4.01367Q2.60742-2.58789 3.69629-1.49414Q4.78516-0.400391 6.21094 0.214844Q7.63672 0.830078 9.24805 0.830078ZM9.24805-0.654297Q7.91992-0.654297 6.7627-1.14746Q5.60547-1.64062 4.73145-2.51953Q3.85742-3.39844 3.36426-4.56055Q2.87109-5.72266 2.87109-7.05078Q2.87109-8.37891 3.35938-9.54102Q3.84766-10.7031 4.72168-11.582Q5.5957-12.4609 6.75293-12.9541Q7.91016-13.4473 9.23828-13.4473Q10.5762-13.4473 11.7334-12.9541Q12.8906-12.4609 13.7695-11.582Q14.6484-10.7031 15.1465-9.54102Q15.6445-8.37891 15.6445-7.05078Q15.6445-5.72266 15.1514-4.56055Q14.6582-3.39844 13.7842-2.51953Q12.9102-1.64062 11.748-1.14746Q10.5859-0.654297 9.24805-0.654297ZM5.6543-7.05078Q5.6543-6.72852 5.85938-6.52832Q6.06445-6.32812 6.40625-6.32812L8.51562-6.32812L8.51562-4.20898Q8.51562-3.88672 8.71094-3.67676Q8.90625-3.4668 9.23828-3.4668Q9.56055-3.4668 9.77051-3.67676Q9.98047-3.88672 9.98047-4.20898L9.98047-6.32812L12.0898-6.32812Q12.4219-6.32812 12.627-6.52832Q12.832-6.72852 12.832-7.05078Q12.832-7.38281 12.627-7.58789Q12.4219-7.79297 12.0898-7.79297L9.98047-7.79297L9.98047-9.90234Q9.98047-10.2344 9.77051-10.4443Q9.56055-10.6543 9.23828-10.6543Q8.90625-10.6543 8.71094-10.4443Q8.51562-10.2344 8.51562-9.90234L8.51562-7.79297L6.40625-7.79297Q6.06445-7.79297 5.85938-7.58789Q5.6543-7.38281 5.6543-7.05078Z"/>
  </g>
  <g transform="matrix(1 0 0 1 281.867 1933)">
   <path d="M11.709 2.91016Q13.75 2.91016 15.5518 2.12891Q17.3535 1.34766 18.7305-0.0292969Q20.1074-1.40625 20.8887-3.20801Q21.6699-5.00977 21.6699-7.05078Q21.6699-9.0918 20.8887-10.8936Q20.1074-12.6953 18.7305-14.0723Q17.3535-15.4492 15.5469-16.2305Q13.7402-17.0117 11.6992-17.0117Q9.6582-17.0117 7.85645-16.2305Q6.05469-15.4492 4.68262-14.0723Q3.31055-12.6953 2.5293-10.8936Q1.74805-9.0918 1.74805-7.05078Q1.74805-5.00977 2.5293-3.20801Q3.31055-1.40625 4.6875-0.0292969Q6.06445 1.34766 7.86621 2.12891Q9.66797 2.91016 11.709 2.91016ZM11.709 1.25Q9.98047 1.25 8.47656 0.605469Q6.97266-0.0390625 5.83496-1.17676Q4.69727-2.31445 4.05762-3.81836Q3.41797-5.32227 3.41797-7.05078Q3.41797-8.7793 4.05762-10.2832Q4.69727-11.7871 5.83008-12.9297Q6.96289-14.0723 8.4668-14.7119Q9.9707-15.3516 11.6992-15.3516Q13.4277-15.3516 14.9316-14.7119Q16.4355-14.0723 17.5781-12.9297Q18.7207-11.7871 19.3652-10.2832Q20.0098-8.7793 20.0098-7.05078Q20.0098-5.32227 19.3701-3.81836Q18.7305-2.31445 17.5928-1.17676Q16.4551-0.0390625 14.9463 0.605469Q13.4375 1.25 11.709 1.25ZM7.17773-7.05078Q7.17773-6.69922 7.41211-6.47461Q7.64648-6.25 8.01758-6.25L10.8887-6.25L10.8887-3.36914Q10.8887-2.99805 11.1133-2.76855Q11.3379-2.53906 11.6895-2.53906Q12.0605-2.53906 12.29-2.76855Q12.5195-2.99805 12.5195-3.36914L12.5195-6.25L15.4004-6.25Q15.7715-6.25 16.001-6.47461Q16.2305-6.69922 16.2305-7.05078Q16.2305-7.42188 16.001-7.65137Q15.7715-7.88086 15.4004-7.88086L12.5195-7.88086L12.5195-10.752Q12.5195-11.1328 12.29-11.3623Q12.0605-11.5918 11.6895-11.5918Q11.3379-11.5918 11.1133-11.3574Q10.8887-11.123 10.8887-10.752L10.8887-7.88086L8.01758-7.88086Q7.63672-7.88086 7.40723-7.65137Q7.17773-7.42188 7.17773-7.05078Z"/>
  </g>
  <g transform="matrix(1 0 0 1 305.646 1933)">
   <path d="M14.9707 5.66406Q17.0605 5.66406 18.96 5.01465Q20.8594 4.36523 22.4512 3.19336Q24.043 2.02148 25.2197 0.429688Q26.3965-1.16211 27.0459-3.06641Q27.6953-4.9707 27.6953-7.05078Q27.6953-9.14062 27.0459-11.04Q26.3965-12.9395 25.2197-14.5312Q24.043-16.123 22.4512-17.2998Q20.8594-18.4766 18.9551-19.126Q17.0508-19.7754 14.9609-19.7754Q12.8711-19.7754 10.9717-19.126Q9.07227-18.4766 7.48535-17.2998Q5.89844-16.123 4.72168-14.5312Q3.54492-12.9395 2.90039-11.04Q2.25586-9.14062 2.25586-7.05078Q2.25586-4.9707 2.90527-3.06641Q3.55469-1.16211 4.72656 0.429688Q5.89844 2.02148 7.49023 3.19336Q9.08203 4.36523 10.9814 5.01465Q12.8809 5.66406 14.9707 5.66406ZM14.9707 3.84766Q13.1641 3.84766 11.5283 3.2959Q9.89258 2.74414 8.53516 1.74805Q7.17773 0.751953 6.17676-0.610352Q5.17578-1.97266 4.62891-3.6084Q4.08203-5.24414 4.08203-7.05078Q4.08203-8.86719 4.62891-10.5029Q5.17578-12.1387 6.17188-13.501Q7.16797-14.8633 8.52539-15.8594Q9.88281-16.8555 11.5186-17.4023Q13.1543-17.9492 14.9609-17.9492Q16.7773-17.9492 18.4131-17.4023Q20.0488-16.8555 21.4111-15.8594Q22.7734-14.8633 23.7695-13.501Q24.7656-12.1387 25.3174-10.5029Q25.8691-8.86719 25.8691-7.05078Q25.8789-5.24414 25.332-3.6084Q24.7852-1.97266 23.7842-0.610352Q22.7832 0.751953 21.4209 1.74805Q20.0586 2.74414 18.4229 3.2959Q16.7871 3.84766 14.9707 3.84766ZM9.19922-7.05078Q9.19922-6.66992 9.45801-6.4209Q9.7168-6.17188 10.1172-6.17188L14.0625-6.17188L14.0625-2.2168Q14.0625-1.81641 14.3115-1.55762Q14.5605-1.29883 14.9512-1.29883Q15.3516-1.29883 15.6104-1.55273Q15.8691-1.80664 15.8691-2.2168L15.8691-6.17188L19.8242-6.17188Q20.2246-6.17188 20.4785-6.4209Q20.7324-6.66992 20.7324-7.05078Q20.7324-7.46094 20.4785-7.71484Q20.2246-7.96875 19.8242-7.96875L15.8691-7.96875L15.8691-11.9141Q15.8691-12.3242 15.6104-12.583Q15.3516-12.8418 14.9512-12.8418Q14.5605-12.8418 14.3115-12.583Q14.0625-12.3242 14.0625-11.9141L14.0625-7.96875L10.1172-7.96875Q9.70703-7.96875 9.45312-7.71484Q9.19922-7.46094 9.19922-7.05078Z"/>
  </g>
  <text style="stroke:none;fill:black;font-family:sans-serif;font-size:13;font-weight:bold;" transform="matrix(1 0 0 1 263 1953)">Design Variations</text>
  <text style="stroke:none;fill:black;font-family:sans-serif;font-size:13;" transform="matrix(1 0 0 1 263 1971)">Symbols are supported in up to nine weights and three scales.</text>
  <text style="stroke:none;fill:black;font-family:sans-serif;font-size:13;" transform="matrix(1 0 0 1 263 1989)">For optimal layout with text and other symbols, vertically align</text>
  <text style="stroke:none;fill:black;font-family:sans-serif;font-size:13;" transform="matrix(1 0 0 1 263 2007)">symbols with the adjacent text.</text>
  <line style="fill:none;stroke:#00AEEF;stroke-width:0.5;opacity:1.0;" x1="776" x2="776" y1="1919" y2="1933"/>
  <g transform="matrix(1 0 0 1 776 1933)">
   <path d="M3.31055 0.15625Q3.70117 0.15625 3.91602-0.00976562Q4.13086-0.175781 4.26758-0.585938L5.52734-4.0332L11.2891-4.0332L12.5488-0.585938Q12.6855-0.175781 12.9004-0.00976562Q13.1152 0.15625 13.4961 0.15625Q13.8867 0.15625 14.1162-0.0585938Q14.3457-0.273438 14.3457-0.644531Q14.3457-0.869141 14.2383-1.17188L9.6582-13.3691Q9.48242-13.8184 9.17969-14.043Q8.87695-14.2676 8.4082-14.2676Q7.5-14.2676 7.17773-13.3789L2.59766-1.16211Q2.49023-0.859375 2.49023-0.634766Q2.49023-0.263672 2.70996-0.0537109Q2.92969 0.15625 3.31055 0.15625ZM6.00586-5.51758L8.37891-12.0898L8.42773-12.0898L10.8008-5.51758Z"/>
  </g>
  <line style="fill:none;stroke:#00AEEF;stroke-width:0.5;opacity:1.0;" x1="793.197" x2="793.197" y1="1919" y2="1933"/>
  <text style="stroke:none;fill:black;font-family:sans-serif;font-size:13;font-weight:bold;" transform="matrix(1 0 0 1 776 1953)">Margins</text>
  <text style="stroke:none;fill:black;font-family:sans-serif;font-size:13;" transform="matrix(1 0 0 1 776 1971)">Leading and trailing margins on the left and right side of each symbol</text>
  <text style="stroke:none;fill:black;font-family:sans-serif;font-size:13;" transform="matrix(1 0 0 1 776 1989)">can be adjusted by modifying the x-location of the margin guidelines.</text>
  <text style="stroke:none;fill:black;font-family:sans-serif;font-size:13;" transform="matrix(1 0 0 1 776 2007)">Modifications are automatically applied proportionally to all</text>
  <text style="stroke:none;fill:black;font-family:sans-serif;font-size:13;" transform="matrix(1 0 0 1 776 2025)">scales and weights.</text>
  <g transform="matrix(1 0 0 1 1289 1933)">
   <path d="M2.8418 1.86523L4.54102 3.57422Q5.18555 4.22852 5.90332 4.17969Q6.62109 4.13086 7.31445 3.35938L18.0078-8.42773L17.041-9.4043L6.42578 2.27539Q6.16211 2.57812 5.89355 2.61719Q5.625 2.65625 5.27344 2.30469L4.10156 1.14258Q3.75 0.791016 3.79395 0.522461Q3.83789 0.253906 4.14062-0.0195312L15.6152-10.8203L14.6387-11.7871L3.04688-0.898438Q2.30469-0.214844 2.25098 0.498047Q2.19727 1.21094 2.8418 1.86523ZM9.25781-16.3281Q8.94531-16.0254 8.90625-15.6348Q8.86719-15.2441 9.04297-14.9512Q9.21875-14.6777 9.55566-14.541Q9.89258-14.4043 10.3809-14.5215Q11.4746-14.7754 12.5977-14.7314Q13.7207-14.6875 14.7949-13.9844L14.209-12.5293Q13.9551-11.9043 14.0674-11.4404Q14.1797-10.9766 14.5801-10.5664L16.875-8.25195Q17.2363-7.88086 17.5781-7.82227Q17.9199-7.76367 18.3398-7.8418L19.4043-8.03711L20.0684-7.36328L20.0293-6.80664Q20-6.43555 20.1221-6.12305Q20.2441-5.81055 20.6055-5.44922L21.3672-4.70703Q21.7285-4.3457 22.1533-4.33105Q22.5781-4.31641 22.9297-4.66797L25.8398-7.58789Q26.1914-7.93945 26.1816-8.35449Q26.1719-8.76953 25.8105-9.13086L25.0391-9.89258Q24.6875-10.2539 24.3799-10.3857Q24.0723-10.5176 23.7109-10.4883L23.1348-10.4395L22.4902-11.0742L22.7344-12.1973Q22.832-12.6172 22.6953-12.9834Q22.5586-13.3496 22.1191-13.7891L19.9219-15.9766Q18.6719-17.2168 17.2607-17.8369Q15.8496-18.457 14.4189-18.4814Q12.9883-18.5059 11.665-17.959Q10.3418-17.4121 9.25781-16.3281ZM10.752-15.957Q11.6602-16.6211 12.7002-16.9043Q13.7402-17.1875 14.8047-17.085Q15.8691-16.9824 16.8701-16.5137Q17.8711-16.0449 18.7012-15.2051L21.1328-12.793Q21.3086-12.6172 21.3525-12.4512Q21.3965-12.2852 21.3379-12.0312L21.0156-10.5469L22.5195-9.0625L23.5059-9.12109Q23.6914-9.13086 23.7891-9.09668Q23.8867-9.0625 24.0332-8.91602L24.6094-8.33984L22.168-5.89844L21.5918-6.47461Q21.4453-6.62109 21.4062-6.71875Q21.3672-6.81641 21.377-7.01172L21.4453-7.98828L19.9512-9.47266L18.4277-9.21875Q18.1836-9.16992 18.042-9.2041Q17.9004-9.23828 17.7148-9.41406L15.7129-11.416Q15.5176-11.5918 15.4932-11.7529Q15.4688-11.9141 15.5859-12.1875L16.4648-14.2773Q15.293-15.3711 13.8281-15.791Q12.3633-16.2109 10.8398-15.7617Q10.7227-15.7324 10.6885-15.8057Q10.6543-15.8789 10.752-15.957Z"/>
  </g>
  <text style="stroke:none;fill:black;font-family:sans-serif;font-size:13;font-weight:bold;" transform="matrix(1 0 0 1 1289 1953)">Exporting</text>
  <text style="stroke:none;fill:black;font-family:sans-serif;font-size:13;" transform="matrix(1 0 0 1 1289 1971)">Symbols should be outlined when exporting to ensure the</text>
  <text style="stroke:none;fill:black;font-family:sans-serif;font-size:13;" transform="matrix(1 0 0 1 1289 1989)">design is preserved when submitting to Xcode.</text>
  <text id="template-version" style="stroke:none;fill:black;font-family:sans-serif;font-size:13;text-anchor:end;" transform="matrix(1 0 0 1 3036 1933)">Template v.3.0</text>
  <text style="stroke:none;fill:black;font-family:sans-serif;font-size:13;text-anchor:end;" transform="matrix(1 0 0 1 3036 1951)">Requires Xcode 13 or greater</text>
  <text id="descriptive-name" style="stroke:none;fill:black;font-family:sans-serif;font-size:13;text-anchor:end;" transform="matrix(1 0 0 1 3036 1969)">Generated from camera.fill</text>
  <text style="stroke:none;fill:black;font-family:sans-serif;font-size:13;text-anchor:end;" transform="matrix(1 0 0 1 3036 1987)">Typeset at 100 points</text>
  <text style="stroke:none;fill:black;font-family:sans-serif;font-size:13;" transform="matrix(1 0 0 1 263 726)">Small</text>
  <text style="stroke:none;fill:black;font-family:sans-serif;font-size:13;" transform="matrix(1 0 0 1 263 1156)">Medium</text>
  <text style="stroke:none;fill:black;font-family:sans-serif;font-size:13;" transform="matrix(1 0 0 1 263 1586)">Large</text>
 </g>
 <g id="Guides">
  <g id="H-reference" style="fill:#27AAE1;stroke:none;" transform="matrix(1 0 0 1 339 696)">
   <path d="M0.976562 0L3.66211 0L29.3457-67.1387L30.0293-67.1387L30.0293-70.459L28.125-70.459ZM11.6699-24.4629L46.9727-24.4629L46.2402-26.709L12.4512-26.709ZM55.127 0L57.7637 0L30.6152-70.459L29.4434-70.459L29.4434-67.1387Z"/>
  </g>
  <line id="Baseline-S" style="fill:none;stroke:#27AAE1;opacity:1;stroke-width:0.5;" x1="263" x2="3036" y1="696" y2="696"/>
  <line id="Capline-S" style="fill:none;stroke:#27AAE1;opacity:1;stroke-width:0.5;" x1="263" x2="3036" y1="625.541" y2="625.541"/>
  <g id="H-reference" style="fill:#27AAE1;stroke:none;" transform="matrix(1 0 0 1 339 1126)">
   <path d="M0.976562 0L3.66211 0L29.3457-67.1387L30.0293-67.1387L30.0293-70.459L28.125-70.459ZM11.6699-24.4629L46.9727-24.4629L46.2402-26.709L12.4512-26.709ZM55.127 0L57.7637 0L30.6152-70.459L29.4434-70.459L29.4434-67.1387Z"/>
  </g>
  <line id="Baseline-M" style="fill:none;stroke:#27AAE1;opacity:1;stroke-width:0.5;" x1="263" x2="3036" y1="1126" y2="1126"/>
  <line id="Capline-M" style="fill:none;stroke:#27AAE1;opacity:1;stroke-width:0.5;" x1="263" x2="3036" y1="1055.54" y2="1055.54"/>
  <g id="H-reference" style="fill:#27AAE1;stroke:none;" transform="matrix(1 0 0 1 339 1556)">
   <path d="M0.976562 0L3.66211 0L29.3457-67.1387L30.0293-67.1387L30.0293-70.459L28.125-70.459ZM11.6699-24.4629L46.9727-24.4629L46.2402-26.709L12.4512-26.709ZM55.127 0L57.7637 0L30.6152-70.459L29.4434-70.459L29.4434-67.1387Z"/>
  </g>
  <line id="Baseline-L" style="fill:none;stroke:#27AAE1;opacity:1;stroke-width:0.5;" x1="263" x2="3036" y1="1556" y2="1556"/>
  <line id="Capline-L" style="fill:none;stroke:#27AAE1;opacity:1;stroke-width:0.5;" x1="263" x2="3036" y1="1485.54" y2="1485.54"/>
  <line id="left-margin-Ultralight-S" style="fill:none;stroke:#00AEEF;stroke-width:0.5;opacity:1.0;" x1="505.146" x2="505.146" y1="600.785" y2="720.121"/>
  <line id="right-margin-Ultralight-S" style="fill:none;stroke:#00AEEF;stroke-width:0.5;opacity:1.0;" x1="614.277" x2="614.277" y1="600.785" y2="720.121"/>
  <line id="left-margin-Thin-S" style="fill:none;stroke:#00AEEF;stroke-width:0.5;opacity:1.0;" x1="801.246" x2="801.246" y1="600.785" y2="720.121"/>
  <line id="right-margin-Thin-S" style="fill:none;stroke:#00AEEF;stroke-width:0.5;opacity:1.0;" x1="911.598" x2="911.598" y1="600.785" y2="720.121"/>
  <line id="left-margin-Light-S" style="fill:none;stroke:#00AEEF;stroke-width:0.5;opacity:1.0;" x1="1096.79" x2="1096.79" y1="600.785" y2="720.121"/>
  <line id="right-margin-Light-S" style="fill:none;stroke:#00AEEF;stroke-width:0.5;opacity:1.0;" x1="1209.48" x2="1209.48" y1="600.785" y2="720.121"/>
  <line id="left-margin-Regular-S" style="fill:none;stroke:#00AEEF;stroke-width:0.5;opacity:1.0;" x1="1392.62" x2="1392.62" y1="600.785" y2="720.121"/>
  <line id="right-margin-Regular-S" style="fill:none;stroke:#00AEEF;stroke-width:0.5;opacity:1.0;" x1="1507.07" x2="1507.07" y1="600.785" y2="720.121"/>
  <line id="left-margin-Medium-S" style="fill:none;stroke:#00AEEF;stroke-width:0.5;opacity:1.0;" x1="1689.11" x2="1689.11" y1="600.785" y2="720.121"/>
  <line id="right-margin-Medium-S" style="fill:none;stroke:#00AEEF;stroke-width:0.5;opacity:1.0;" x1="1804" x2="1804" y1="600.785" y2="720.121"/>
  <line id="left-margin-Semibold-S" style="fill:none;stroke:#00AEEF;stroke-width:0.5;opacity:1.0;" x1="1985.63" x2="1985.63" y1="600.785" y2="720.121"/>
  <line id="right-margin-Semibold-S" style="fill:none;stroke:#00AEEF;stroke-width:0.5;opacity:1.0;" x1="2100.91" x2="2100.91" y1="600.785" y2="720.121"/>
  <line id="left-margin-Bold-S" style="fill:none;stroke:#00AEEF;stroke-width:0.5;opacity:1.0;" x1="2282.12" x2="2282.12" y1="600.785" y2="720.121"/>
  <line id="right-margin-Bold-S" style="fill:none;stroke:#00AEEF;stroke-width:0.5;opacity:1.0;" x1="2397.84" x2="2397.84" y1="600.785" y2="720.121"/>
  <line id="left-margin-Heavy-S" style="fill:none;stroke:#00AEEF;stroke-width:0.5;opacity:1.0;" x1="2578.49" x2="2578.49" y1="600.785" y2="720.121"/>
  <line id="right-margin-Heavy-S" style="fill:none;stroke:#00AEEF;stroke-width:0.5;opacity:1.0;" x1="2694.89" x2="2694.89" y1="600.785" y2="720.121"/>
  <line id="left-margin-Black-S" style="fill:none;stroke:#00AEEF;stroke-width:0.5;opacity:1.0;" x1="2874.9" x2="2874.9" y1="600.785" y2="720.121"/>
  <line id="right-margin-Black-S" style="fill:none;stroke:#00AEEF;stroke-width:0.5;opacity:1.0;" x1="2991.9" x2="2991.9" y1="600.785" y2="720.121"/>
  <line id="left-margin-Ultralight-M" style="fill:none;stroke:#00AEEF;stroke-width:0.5;opacity:1.0;" x1="490.302" x2="490.302" y1="1030.79" y2="1150.12"/>
  <line id="right-margin-Ultralight-M" style="fill:none;stroke:#00AEEF;stroke-width:0.5;opacity:1.0;" x1="629.12" x2="629.12" y1="1030.79" y2="1150.12"/>
  <line id="left-margin-Thin-M" style="fill:none;stroke:#00AEEF;stroke-width:0.5;opacity:1.0;" x1="786.329" x2="786.329" y1="1030.79" y2="1150.12"/>
  <line id="right-margin-Thin-M" style="fill:none;stroke:#00AEEF;stroke-width:0.5;opacity:1.0;" x1="926.515" x2="926.515" y1="1030.79" y2="1150.12"/>
  <line id="left-margin-Light-M" style="fill:none;stroke:#00AEEF;stroke-width:0.5;opacity:1.0;" x1="1081.72" x2="1081.72" y1="1030.79" y2="1150.12"/>
  <line id="right-margin-Light-M" style="fill:none;stroke:#00AEEF;stroke-width:0.5;opacity:1.0;" x1="1224.54" x2="1224.54" y1="1030.79" y2="1150.12"/>
  <line id="left-margin-Regular-M" style="fill:none;stroke:#00AEEF;stroke-width:0.5;opacity:1.0;" x1="1377.43" x2="1377.43" y1="1030.79" y2="1150.12"/>
  <line id="right-margin-Regular-M" style="fill:none;stroke:#00AEEF;stroke-width:0.5;opacity:1.0;" x1="1522.26" x2="1522.26" y1="1030.79" y2="1150.12"/>
  <line id="left-margin-Medium-M" style="fill:none;stroke:#00AEEF;stroke-width:0.5;opacity:1.0;" x1="1673.75" x2="1673.75" y1="1030.79" y2="1150.12"/>
  <line id="right-margin-Medium-M" style="fill:none;stroke:#00AEEF;stroke-width:0.5;opacity:1.0;" x1="1819.36" x2="1819.36" y1="1030.79" y2="1150.12"/>
  <line id="left-margin-Semibold-M" style="fill:none;stroke:#00AEEF;stroke-width:0.5;opacity:1.0;" x1="1970.17" x2="1970.17" y1="1030.79" y2="1150.12"/>
  <line id="right-margin-Semibold-M" style="fill:none;stroke:#00AEEF;stroke-width:0.5;opacity:1.0;" x1="2116.36" x2="2116.36" y1="1030.79" y2="1150.12"/>
  <line id="left-margin-Bold-M" style="fill:none;stroke:#00AEEF;stroke-width:0.5;opacity:1.0;" x1="2266.49" x2="2266.49" y1="1030.79" y2="1150.12"/>
  <line id="right-margin-Bold-M" style="fill:none;stroke:#00AEEF;stroke-width:0.5;opacity:1.0;" x1="2413.46" x2="2413.46" y1="1030.79" y2="1150.12"/>
  <line id="left-margin-Heavy-M" style="fill:none;stroke:#00AEEF;stroke-width:0.5;opacity:1.0;" x1="2562.67" x2="2562.67" y1="1030.79" y2="1150.12"/>
  <line id="right-margin-Heavy-M" style="fill:none;stroke:#00AEEF;stroke-width:0.5;opacity:1.0;" x1="2710.71" x2="2710.71" y1="1030.79" y2="1150.12"/>
  <line id="left-margin-Black-M" style="fill:none;stroke:#00AEEF;stroke-width:0.5;opacity:1.0;" x1="2858.86" x2="2858.86" y1="1030.79" y2="1150.12"/>
  <line id="right-margin-Black-M" style="fill:none;stroke:#00AEEF;stroke-width:0.5;opacity:1.0;" x1="3007.94" x2="3007.94" y1="1030.79" y2="1150.12"/>
  <line id="left-margin-Ultralight-L" style="fill:none;stroke:#00AEEF;stroke-width:0.5;opacity:1.0;" x1="470.429" x2="470.429" y1="1460.79" y2="1580.12"/>
  <line id="right-margin-Ultralight-L" style="fill:none;stroke:#00AEEF;stroke-width:0.5;opacity:1.0;" x1="648.993" x2="648.993" y1="1460.79" y2="1580.12"/>
  <line id="left-margin-Thin-L" style="fill:none;stroke:#00AEEF;stroke-width:0.5;opacity:1.0;" x1="766.383" x2="766.383" y1="1460.79" y2="1580.12"/>
  <line id="right-margin-Thin-L" style="fill:none;stroke:#00AEEF;stroke-width:0.5;opacity:1.0;" x1="946.461" x2="946.461" y1="1460.79" y2="1580.12"/>
  <line id="left-margin-Light-L" style="fill:none;stroke:#00AEEF;stroke-width:0.5;opacity:1.0;" x1="1061.63" x2="1061.63" y1="1460.79" y2="1580.12"/>
  <line id="right-margin-Light-L" style="fill:none;stroke:#00AEEF;stroke-width:0.5;opacity:1.0;" x1="1244.64" x2="1244.64" y1="1460.79" y2="1580.12"/>
  <line id="left-margin-Regular-L" style="fill:none;stroke:#00AEEF;stroke-width:0.5;opacity:1.0;" x1="1357.24" x2="1357.24" y1="1460.79" y2="1580.12"/>
  <line id="right-margin-Regular-L" style="fill:none;stroke:#00AEEF;stroke-width:0.5;opacity:1.0;" x1="1542.45" x2="1542.45" y1="1460.79" y2="1580.12"/>
  <line id="left-margin-Medium-L" style="fill:none;stroke:#00AEEF;stroke-width:0.5;opacity:1.0;" x1="1653.37" x2="1653.37" y1="1460.79" y2="1580.12"/>
  <line id="right-margin-Medium-L" style="fill:none;stroke:#00AEEF;stroke-width:0.5;opacity:1.0;" x1="1839.74" x2="1839.74" y1="1460.79" y2="1580.12"/>
  <line id="left-margin-Semibold-L" style="fill:none;stroke:#00AEEF;stroke-width:0.5;opacity:1.0;" x1="1949.64" x2="1949.64" y1="1460.79" y2="1580.12"/>
  <line id="right-margin-Semibold-L" style="fill:none;stroke:#00AEEF;stroke-width:0.5;opacity:1.0;" x1="2136.89" x2="2136.89" y1="1460.79" y2="1580.12"/>
  <line id="left-margin-Bold-L" style="fill:none;stroke:#00AEEF;stroke-width:0.5;opacity:1.0;" x1="2245.76" x2="2245.76" y1="1460.79" y2="1580.12"/>
  <line id="right-margin-Bold-L" style="fill:none;stroke:#00AEEF;stroke-width:0.5;opacity:1.0;" x1="2434.19" x2="2434.19" y1="1460.79" y2="1580.12"/>
  <line id="left-margin-Heavy-L" style="fill:none;stroke:#00AEEF;stroke-width:0.5;opacity:1.0;" x1="2541.62" x2="2541.62" y1="1460.79" y2="1580.12"/>
  <line id="right-margin-Heavy-L" style="fill:none;stroke:#00AEEF;stroke-width:0.5;opacity:1.0;" x1="2731.76" x2="2731.76" y1="1460.79" y2="1580.12"/>
  <line id="left-margin-Black-L" style="fill:none;stroke:#00AEEF;stroke-width:0.5;opacity:1.0;" x1="2837.57" x2="2837.57" y1="1460.79" y2="1580.12"/>
  <line id="right-margin-Black-L" style="fill:none;stroke:#00AEEF;stroke-width:0.5;opacity:1.0;" x1="3029.23" x2="3029.23" y1="1460.79" y2="1580.12"/>
 </g>
 <g id="Symbols">
  <g id="Black-L" transform="matrix(1 0 0 1 2837.57 1556)">
   <path d="M39.9902 26.5137L151.66 26.5137Q163.086 26.5137 169.336 20.3125Q175.586 14.1113 175.586 2.68555L175.586-63.8184Q175.586-75.2441 169.336-81.4453Q163.086-87.6465 151.66-87.6465L138.77-87.6465Q136.328-87.6465 134.717-87.915Q133.105-88.1836 131.665-89.0137Q130.225-89.8438 128.369-91.5039L123.584-95.8984Q121.777-97.6074 119.824-98.6328Q117.871-99.6582 115.527-100.146Q113.184-100.635 110.059-100.635L81.5918-100.635Q78.4668-100.635 76.123-100.146Q73.7793-99.6582 71.8262-98.6328Q69.873-97.6074 68.0176-95.8984L63.2324-91.5039Q61.4258-89.8438 59.9854-89.0137Q58.5449-88.1836 56.9092-87.915Q55.2734-87.6465 52.8809-87.6465L39.9902-87.6465Q28.5645-87.6465 22.3145-81.4453Q16.0645-75.2441 16.0645-63.8184L16.0645 2.68555Q16.0645 14.1113 22.3145 20.3125Q28.5645 26.5137 39.9902 26.5137ZM95.8008 2.97852Q89.0137 2.97852 83.0566 0.439453Q77.0996-2.09961 72.6074-6.61621Q68.1152-11.1328 65.5762-17.0898Q63.0371-23.0469 63.0371-29.8828Q63.0371-36.7188 65.5762-42.6758Q68.1152-48.6328 72.6074-53.1494Q77.0996-57.666 83.0566-60.2051Q89.0137-62.7441 95.8008-62.7441Q102.637-62.7441 108.594-60.2051Q114.551-57.666 119.043-53.1494Q123.535-48.6328 126.074-42.6758Q128.613-36.7188 128.613-29.8828Q128.613-23.0469 126.074-17.0898Q123.535-11.1328 119.043-6.61621Q114.551-2.09961 108.594 0.439453Q102.637 2.97852 95.8008 2.97852ZM95.8008-14.3555Q99.0723-14.3555 101.88-15.5762Q104.688-16.7969 106.787-18.9209Q108.887-21.0449 110.083-23.8525Q111.279-26.6602 111.279-29.8828Q111.279-33.1055 110.083-35.9375Q108.887-38.7695 106.787-40.8936Q104.688-43.0176 101.88-44.2139Q99.0723-45.4102 95.8008-45.4102Q92.627-45.4102 89.8193-44.2139Q87.0117-43.0176 84.8877-40.8936Q82.7637-38.7695 81.5674-35.9375Q80.3711-33.1055 80.3711-29.8828Q80.3711-26.6602 81.5674-23.8525Q82.7637-21.0449 84.8877-18.9209Q87.0117-16.7969 89.8193-15.5762Q92.627-14.3555 95.8008-14.3555ZM132.178-52.9785Q132.178-56.7871 134.961-59.5459Q137.744-62.3047 141.553-62.3047Q145.312-62.3047 148.096-59.5459Q150.879-56.7871 150.879-52.9785Q150.879-49.1211 148.12-46.4355Q145.361-43.75 141.553-43.7012Q137.695-43.6523 134.937-46.3867Q132.178-49.1211 132.178-52.9785Z"/>
  </g>
  <g id="Heavy-L" transform="matrix(1 0 0 1 2541.62 1556)">
   <path d="M38.8184 25.4883L151.318 25.4883Q162.256 25.4883 168.164 19.6289Q174.072 13.7695 174.072 2.88086L174.072-63.5742Q174.072-74.4629 168.164-80.3223Q162.256-86.1816 151.318-86.1816L137.109-86.1816Q134.668-86.1816 133.081-86.4746Q131.494-86.7676 130.103-87.5977Q128.711-88.4277 126.953-90.0879L122.07-94.8242Q120.312-96.582 118.433-97.6318Q116.553-98.6816 114.233-99.1699Q111.914-99.6582 108.789-99.6582L81.2012-99.6582Q78.0273-99.6582 75.7324-99.1699Q73.4375-98.6816 71.5332-97.6318Q69.6289-96.582 67.8223-94.8242L62.9395-90.0879Q61.2305-88.4766 59.8389-87.6221Q58.4473-86.7676 56.8359-86.4746Q55.2246-86.1816 52.832-86.1816L38.8184-86.1816Q27.8809-86.1816 21.9727-80.3223Q16.0645-74.4629 16.0645-63.5742L16.0645 2.88086Q16.0645 13.7695 21.9727 19.6289Q27.8809 25.4883 38.8184 25.4883ZM95.0684 3.32031Q88.1836 3.32031 82.1533 0.732422Q76.123-1.85547 71.5576-6.4209Q66.9922-10.9863 64.4287-17.0166Q61.8652-23.0469 61.8652-29.9805Q61.8652-36.9141 64.4287-42.9443Q66.9922-48.9746 71.5576-53.54Q76.123-58.1055 82.1533-60.6689Q88.1836-63.2324 95.0684-63.2324Q101.953-63.2324 107.983-60.6689Q114.014-58.1055 118.579-53.54Q123.145-48.9746 125.708-42.9443Q128.271-36.9141 128.271-29.9805Q128.271-23.0469 125.708-17.0166Q123.145-10.9863 118.579-6.4209Q114.014-1.85547 107.983 0.732422Q101.953 3.32031 95.0684 3.32031ZM95.0684-11.8652Q98.8281-11.8652 102.1-13.2812Q105.371-14.6973 107.837-17.1875Q110.303-19.6777 111.694-22.9492Q113.086-26.2207 113.086-29.9805Q113.086-33.7402 111.694-37.0117Q110.303-40.2832 107.837-42.7734Q105.371-45.2637 102.1-46.6553Q98.8281-48.0469 95.0684-48.0469Q91.3574-48.0469 88.0859-46.6553Q84.8145-45.2637 82.3242-42.7734Q79.834-40.2832 78.4424-37.0117Q77.0508-33.7402 77.0508-29.9805Q77.0508-26.2207 78.4424-22.9492Q79.834-19.6777 82.3242-17.1875Q84.8145-14.6973 88.0859-13.2812Q91.3574-11.8652 95.0684-11.8652ZM131.982-53.0762Q131.982-56.7383 134.668-59.3994Q137.354-62.0605 141.016-62.0605Q144.629-62.0605 147.314-59.3994Q150-56.7383 150-53.0762Q150-49.3652 147.339-46.7529Q144.678-44.1406 141.016-44.1406Q137.305-44.0918 134.644-46.7041Q131.982-49.3164 131.982-53.0762Z"/>
  </g>
  <g id="Bold-L" transform="matrix(1 0 0 1 2245.76 1556)">
   <path d="M37.5488 24.3652L150.928 24.3652Q161.328 24.3652 166.846 18.8965Q172.363 13.4277 172.363 3.07617L172.363-63.2812Q172.363-73.6328 166.846-79.1016Q161.328-84.5703 150.928-84.5703L135.303-84.5703Q132.861-84.5703 131.274-84.8877Q129.688-85.2051 128.369-86.0596Q127.051-86.9141 125.391-88.5742L120.41-93.6523Q118.701-95.4102 116.895-96.4844Q115.088-97.5586 112.793-98.0957Q110.498-98.6328 107.373-98.6328L80.7129-98.6328Q77.5879-98.6328 75.3174-98.0957Q73.0469-97.5586 71.2158-96.4844Q69.3848-95.4102 67.627-93.6523L62.6465-88.5742Q61.0352-86.9141 59.7168-86.0596Q58.3984-85.2051 56.8115-84.8877Q55.2246-84.5703 52.7832-84.5703L37.5488-84.5703Q27.0996-84.5703 21.582-79.1016Q16.0645-73.6328 16.0645-63.2812L16.0645 3.07617Q16.0645 13.4277 21.582 18.8965Q27.0996 24.3652 37.5488 24.3652ZM94.2383 3.66211Q87.2559 3.66211 81.1279 1.0498Q75-1.5625 70.3857-6.17676Q65.7715-10.791 63.1836-16.9189Q60.5957-23.0469 60.5957-30.0781Q60.5957-37.1094 63.1836-43.2129Q65.7715-49.3164 70.3857-53.9551Q75-58.5938 81.1279-61.2061Q87.2559-63.8184 94.2383-63.8184Q101.221-63.8184 107.349-61.2061Q113.477-58.5938 118.091-53.9551Q122.705-49.3164 125.293-43.2129Q127.881-37.1094 127.881-30.0781Q127.881-23.0469 125.269-16.9189Q122.656-10.791 118.042-6.17676Q113.428-1.5625 107.324 1.0498Q101.221 3.66211 94.2383 3.66211ZM94.2383-9.13086Q98.584-9.13086 102.368-10.7666Q106.152-12.4023 109.009-15.2588Q111.865-18.1152 113.477-21.9238Q115.088-25.7324 115.088-30.0781Q115.088-34.4238 113.477-38.2324Q111.865-42.041 109.009-44.9219Q106.152-47.8027 102.368-49.4141Q98.584-51.0254 94.2383-51.0254Q89.8926-51.0254 86.1084-49.4141Q82.3242-47.8027 79.4678-44.9219Q76.6113-42.041 74.9756-38.2324Q73.3398-34.4238 73.3398-30.0781Q73.3398-25.7324 74.9756-21.9238Q76.6113-18.1152 79.4678-15.2588Q82.3242-12.4023 86.1084-10.7666Q89.8926-9.13086 94.2383-9.13086ZM131.738-53.1738Q131.738-56.6406 134.326-59.2041Q136.914-61.7676 140.43-61.7676Q143.896-61.7676 146.46-59.2041Q149.023-56.6406 149.023-53.1738Q149.023-49.6094 146.46-47.1191Q143.896-44.6289 140.43-44.6289Q136.865-44.5801 134.302-47.0703Q131.738-49.5605 131.738-53.1738Z"/>
  </g>
  <g id="Semibold-L" transform="matrix(1 0 0 1 1949.64 1556)">
   <path d="M36.6211 23.584L150.635 23.584Q160.693 23.584 165.942 18.3838Q171.191 13.1836 171.191 3.17383L171.191-63.0371Q171.191-73.0469 165.942-78.2471Q160.693-83.4473 150.635-83.4473L134.033-83.4473Q131.543-83.4473 130.005-83.7646Q128.467-84.082 127.173-84.9365Q125.879-85.791 124.316-87.4512L119.238-92.8223Q117.578-94.5801 115.82-95.6787Q114.062-96.7773 111.792-97.3145Q109.521-97.8516 106.348-97.8516L80.3711-97.8516Q77.2461-97.8516 75-97.3145Q72.7539-96.7773 70.9717-95.6787Q69.1895-94.5801 67.4805-92.8223L62.4512-87.4512Q60.8887-85.8398 59.5947-84.9609Q58.3008-84.082 56.7383-83.7646Q55.1758-83.4473 52.7344-83.4473L36.6211-83.4473Q26.5625-83.4473 21.3135-78.2471Q16.0645-73.0469 16.0645-63.0371L16.0645 3.17383Q16.0645 13.1836 21.3135 18.3838Q26.5625 23.584 36.6211 23.584ZM93.6523 3.90625Q86.5723 3.90625 80.3955 1.29395Q74.2188-1.31836 69.5801-5.98145Q64.9414-10.6445 62.3047-16.8457Q59.668-23.0469 59.668-30.127Q59.668-37.207 62.3047-43.3838Q64.9414-49.5605 69.5801-54.248Q74.2188-58.9355 80.3955-61.5479Q86.5723-64.1602 93.6523-64.1602Q100.684-64.1602 106.86-61.5479Q113.037-58.9355 117.7-54.248Q122.363-49.5605 125-43.3838Q127.637-37.207 127.637-30.127Q127.637-23.0469 124.976-16.8457Q122.314-10.6445 117.676-5.98145Q113.037-1.31836 106.86 1.29395Q100.684 3.90625 93.6523 3.90625ZM93.6523-7.22656Q98.3887-7.22656 102.539-9.00879Q106.689-10.791 109.814-13.916Q112.939-17.041 114.697-21.1914Q116.455-25.3418 116.455-30.127Q116.455-34.9121 114.697-39.0625Q112.939-43.2129 109.814-46.3623Q106.689-49.5117 102.539-51.2695Q98.3887-53.0273 93.6523-53.0273Q88.916-53.0273 84.7656-51.2695Q80.6152-49.5117 77.4658-46.3623Q74.3164-43.2129 72.5586-39.0625Q70.8008-34.9121 70.8008-30.127Q70.8008-25.3418 72.5586-21.1914Q74.3164-17.041 77.4658-13.916Q80.6152-10.791 84.7656-9.00879Q88.916-7.22656 93.6523-7.22656ZM131.543-53.2227Q131.543-56.543 134.033-59.0576Q136.523-61.5723 139.941-61.5723Q143.311-61.5723 145.801-59.0576Q148.291-56.543 148.291-53.2227Q148.291-49.7559 145.801-47.3145Q143.311-44.873 139.941-44.9219Q136.523-44.873 134.033-47.29Q131.543-49.707 131.543-53.2227Z"/>
  </g>
  <g id="Medium-L" transform="matrix(1 0 0 1 1653.37 1556)">
   <path d="M35.9375 22.998L150.439 22.998Q160.205 22.998 165.259 17.9932Q170.312 12.9883 170.312 3.27148L170.312-62.8906Q170.312-72.6074 165.259-77.6123Q160.205-82.6172 150.439-82.6172L133.105-82.6172Q130.615-82.6172 129.053-82.9346Q127.49-83.252 126.245-84.1309Q125-85.0098 123.486-86.6699L118.359-92.2363Q116.748-93.9453 115.015-95.0684Q113.281-96.1914 111.035-96.7529Q108.789-97.3145 105.615-97.3145L80.127-97.3145Q77.002-97.3145 74.7803-96.7529Q72.5586-96.1914 70.8008-95.0684Q69.043-93.9453 67.3828-92.2363L62.2559-86.6699Q60.791-85.0586 59.5215-84.1553Q58.252-83.252 56.7139-82.9346Q55.1758-82.6172 52.6855-82.6172L35.9375-82.6172Q26.1719-82.6172 21.1182-77.6123Q16.0645-72.6074 16.0645-62.8906L16.0645 3.27148Q16.0645 12.9883 21.1182 17.9932Q26.1719 22.998 35.9375 22.998ZM93.2129 4.10156Q86.084 4.10156 79.8584 1.46484Q73.6328-1.17188 68.9453-5.88379Q64.2578-10.5957 61.6211-16.8213Q58.9844-23.0469 58.9844-30.1758Q58.9844-37.3047 61.6211-43.5303Q64.2578-49.7559 68.9453-54.4678Q73.6328-59.1797 79.8584-61.8164Q86.084-64.4531 93.2129-64.4531Q100.293-64.4531 106.519-61.8164Q112.744-59.1797 117.432-54.4678Q122.119-49.7559 124.756-43.5303Q127.393-37.3047 127.393-30.1758Q127.393-23.0469 124.731-16.8213Q122.07-10.5957 117.383-5.88379Q112.695-1.17188 106.494 1.46484Q100.293 4.10156 93.2129 4.10156ZM93.2129-5.81055Q98.2422-5.81055 102.661-7.69043Q107.08-9.57031 110.425-12.915Q113.77-16.2598 115.649-20.6787Q117.529-25.0977 117.529-30.1758Q117.529-35.2539 115.649-39.6729Q113.77-44.0918 110.425-47.4609Q107.08-50.8301 102.661-52.71Q98.2422-54.5898 93.2129-54.5898Q88.1348-54.5898 83.7402-52.71Q79.3457-50.8301 76.001-47.4609Q72.6562-44.0918 70.752-39.6729Q68.8477-35.2539 68.8477-30.1758Q68.8477-25.0977 70.752-20.6787Q72.6562-16.2598 76.001-12.915Q79.3457-9.57031 83.7402-7.69043Q88.1348-5.81055 93.2129-5.81055ZM131.396-53.3203Q131.396-56.5918 133.838-59.0088Q136.279-61.4258 139.6-61.4258Q142.871-61.4258 145.312-59.0088Q147.754-56.5918 147.754-53.3203Q147.754-49.9512 145.337-47.5586Q142.92-45.166 139.6-45.2148Q136.279-45.2148 133.838-47.5342Q131.396-49.8535 131.396-53.3203Z"/>
  </g>
  <g id="Regular-L" transform="matrix(1 0 0 1 1357.24 1556)">
   <path d="M35.0586 22.2168L150.146 22.2168Q159.57 22.2168 164.355 17.4805Q169.141 12.7441 169.141 3.41797L169.141-62.6953Q169.141-72.0215 164.355-76.7578Q159.57-81.4941 150.146-81.4941L131.836-81.4941Q129.346-81.4941 127.808-81.8359Q126.27-82.1777 125.073-83.0566Q123.877-83.9355 122.412-85.5957L117.236-91.4062Q115.625-93.1641 113.94-94.3115Q112.256-95.459 110.034-96.0205Q107.812-96.582 104.639-96.582L79.834-96.582Q76.6602-96.582 74.4629-96.0205Q72.2656-95.459 70.5566-94.3115Q68.8477-93.1641 67.2363-91.4062L62.0605-85.5957Q60.6445-83.9844 59.4238-83.0811Q58.2031-82.1777 56.665-81.8359Q55.127-81.4941 52.6367-81.4941L35.0586-81.4941Q25.6348-81.4941 20.8496-76.7578Q16.0645-72.0215 16.0645-62.6953L16.0645 3.41797Q16.0645 12.7441 20.8496 17.4805Q25.6348 22.2168 35.0586 22.2168ZM92.627 4.3457Q85.4492 4.3457 79.1748 1.68457Q72.9004-0.976562 68.1641-5.71289Q63.4277-10.4492 60.7666-16.748Q58.1055-23.0469 58.1055-30.2246Q58.1055-37.4512 60.7666-43.7256Q63.4277-50 68.1641-54.7607Q72.9004-59.5215 79.1748-62.1826Q85.4492-64.8438 92.627-64.8438Q99.8047-64.8438 106.079-62.1826Q112.354-59.5215 117.09-54.7607Q121.826-50 124.487-43.7256Q127.148-37.4512 127.148-30.2246Q127.148-23.0469 124.463-16.748Q121.777-10.4492 117.041-5.71289Q112.305-0.976562 106.055 1.68457Q99.8047 4.3457 92.627 4.3457ZM92.627-3.90625Q98.0469-3.90625 102.832-5.93262Q107.617-7.95898 111.23-11.5723Q114.844-15.1855 116.87-19.9707Q118.896-24.7559 118.896-30.2246Q118.896-35.7422 116.87-40.5029Q114.844-45.2637 111.23-48.9014Q107.617-52.5391 102.832-54.5654Q98.0469-56.5918 92.627-56.5918Q87.1582-56.5918 82.3975-54.5654Q77.6367-52.5391 74.0234-48.9014Q70.4102-45.2637 68.3594-40.5029Q66.3086-35.7422 66.3086-30.2246Q66.3086-24.7559 68.3594-19.9707Q70.4102-15.1855 74.0234-11.5723Q77.6367-7.95898 82.3975-5.93262Q87.1582-3.90625 92.627-3.90625ZM131.25-53.3691Q131.25-56.4941 133.618-58.8623Q135.986-61.2305 139.209-61.2305Q142.383-61.2305 144.727-58.8623Q147.07-56.4941 147.07-53.3691Q147.07-50.0977 144.727-47.7783Q142.383-45.459 139.209-45.5078Q135.986-45.5078 133.618-47.7539Q131.25-50 131.25-53.3691Z"/>
  </g>
  <g id="Light-L" transform="matrix(1 0 0 1 1061.63 1556)">
   <path d="M34.0332 21.4355L148.975 21.4355Q157.861 21.4355 162.402 16.8945Q166.943 12.3535 166.943 3.56445L166.943-62.7441Q166.943-71.4844 162.402-76.0254Q157.861-80.5664 148.975-80.5664L130.273-80.5664Q127.734-80.5664 126.196-80.8594Q124.658-81.1523 123.438-82.0068Q122.217-82.8613 120.654-84.6191L115.332-90.625Q113.672-92.4316 112.036-93.5303Q110.4-94.6289 108.276-95.1172Q106.152-95.6055 103.076-95.6055L78.7598-95.6055Q75.6836-95.6055 73.584-95.1172Q71.4844-94.6289 69.8242-93.5303Q68.1641-92.4316 66.5039-90.625L61.1328-84.6191Q59.668-82.959 58.4229-82.0557Q57.1777-81.1523 55.6152-80.8594Q54.0527-80.5664 51.5137-80.5664L34.0332-80.5664Q25.1465-80.5664 20.6055-76.0254Q16.0645-71.4844 16.0645-62.7441L16.0645 3.56445Q16.0645 12.3535 20.6055 16.8945Q25.1465 21.4355 34.0332 21.4355ZM91.5039 4.49219Q84.2773 4.49219 77.9785 1.80664Q71.6797-0.878906 66.9189-5.63965Q62.1582-10.4004 59.4727-16.748Q56.7871-23.0957 56.7871-30.3223Q56.7871-37.5488 59.4727-43.8721Q62.1582-50.1953 66.9189-54.9805Q71.6797-59.7656 77.9785-62.4512Q84.2773-65.1367 91.5039-65.1367Q98.7305-65.1367 105.054-62.4512Q111.377-59.7656 116.138-54.9805Q120.898-50.1953 123.56-43.8721Q126.221-37.5488 126.221-30.3223Q126.221-23.0957 123.535-16.748Q120.85-10.4004 116.089-5.63965Q111.328-0.878906 105.029 1.80664Q98.7305 4.49219 91.5039 4.49219ZM91.5039-2.00195Q97.3633-2.00195 102.49-4.1748Q107.617-6.34766 111.499-10.2539Q115.381-14.1602 117.554-19.2871Q119.727-24.4141 119.727-30.3223Q119.727-36.2305 117.554-41.3574Q115.381-46.4844 111.499-50.3906Q107.617-54.2969 102.49-56.4697Q97.3633-58.6426 91.5039-58.6426Q85.6445-58.6426 80.5176-56.4697Q75.3906-54.2969 71.5088-50.3906Q67.627-46.4844 65.4297-41.3574Q63.2324-36.2305 63.2324-30.3223Q63.2324-24.4141 65.4297-19.2871Q67.627-14.1602 71.5088-10.2539Q75.3906-6.34766 80.5176-4.1748Q85.6445-2.00195 91.5039-2.00195ZM130.273-53.2715Q130.273-56.2988 132.568-58.5693Q134.863-60.8398 137.939-60.8398Q140.967-60.8398 143.237-58.5693Q145.508-56.2988 145.508-53.2715Q145.508-50.1465 143.237-47.9004Q140.967-45.6543 137.939-45.752Q134.863-45.8008 132.568-47.9248Q130.273-50.0488 130.273-53.2715Z"/>
  </g>
  <g id="Thin-L" transform="matrix(1 0 0 1 766.383 1556)">
   <path d="M32.666 20.3613L147.412 20.3613Q155.566 20.3613 159.79 16.0889Q164.014 11.8164 164.014 3.75977L164.014-62.7441Q164.014-70.8008 159.79-75.0732Q155.566-79.3457 147.412-79.3457L128.223-79.3457Q125.586-79.3457 124.048-79.5654Q122.51-79.7852 121.265-80.6396Q120.02-81.4941 118.311-83.3984L112.793-89.5996Q111.035-91.4551 109.473-92.4805Q107.91-93.5059 105.933-93.9209Q103.955-94.3359 100.977-94.3359L77.2949-94.3359Q74.3164-94.3359 72.3633-93.9209Q70.4102-93.5059 68.8477-92.4805Q67.2852-91.4551 65.5273-89.5996L59.9609-83.3984Q58.3496-81.543 57.0801-80.6885Q55.8105-79.834 54.248-79.5898Q52.6855-79.3457 50.0488-79.3457L32.666-79.3457Q24.5117-79.3457 20.2881-75.0732Q16.0645-70.8008 16.0645-62.7441L16.0645 3.75977Q16.0645 11.8164 20.2881 16.0889Q24.5117 20.3613 32.666 20.3613ZM90.0391 4.63867Q82.7637 4.63867 76.416 1.92871Q70.0684-0.78125 65.2832-5.59082Q60.498-10.4004 57.7637-16.748Q55.0293-23.0957 55.0293-30.4199Q55.0293-37.7441 57.7637-44.0918Q60.498-50.4395 65.2832-55.2734Q70.0684-60.1074 76.416-62.793Q82.7637-65.4785 90.0391-65.4785Q97.3633-65.4785 103.711-62.793Q110.059-60.1074 114.844-55.2734Q119.629-50.4395 122.339-44.0918Q125.049-37.7441 125.049-30.4199Q125.049-23.0957 122.314-16.748Q119.58-10.4004 114.771-5.59082Q109.961-0.78125 103.638 1.92871Q97.3145 4.63867 90.0391 4.63867ZM90.0391 0.537109Q96.4355 0.537109 102.026-1.85547Q107.617-4.24805 111.865-8.49609Q116.113-12.7441 118.481-18.3594Q120.85-23.9746 120.85-30.4199Q120.85-36.8652 118.481-42.4805Q116.113-48.0957 111.865-52.3682Q107.617-56.6406 102.026-59.0332Q96.4355-61.4258 90.0391-61.4258Q83.6426-61.4258 78.0518-59.0332Q72.4609-56.6406 68.2129-52.3682Q63.9648-48.0957 61.5967-42.4805Q59.2285-36.8652 59.2285-30.4199Q59.2285-23.9746 61.5967-18.3594Q63.9648-12.7441 68.2129-8.49609Q72.4609-4.24805 78.0518-1.85547Q83.6426 0.537109 90.0391 0.537109ZM128.955-53.2715Q128.955-56.1035 131.128-58.2764Q133.301-60.4492 136.279-60.4492Q139.111-60.4492 141.26-58.2764Q143.408-56.1035 143.408-53.2715Q143.408-50.3418 141.26-48.1689Q139.111-45.9961 136.279-46.0938Q133.301-46.1914 131.128-48.1689Q128.955-50.1465 128.955-53.2715Z"/>
  </g>
  <g id="Ultralight-L" transform="matrix(1 0 0 1 470.429 1556)">
   <path d="M31.9824 19.8242L146.582 19.8242Q154.395 19.8242 158.447 15.6738Q162.5 11.5234 162.5 3.85742L162.5-62.793Q162.5-70.4102 158.447-74.5605Q154.395-78.7109 146.582-78.7109L127.148-78.7109Q124.463-78.7109 122.925-78.9062Q121.387-79.1016 120.142-79.9316Q118.896-80.7617 117.139-82.7148L111.475-89.0625Q109.717-90.9668 108.203-91.9678Q106.689-92.9688 104.761-93.3105Q102.832-93.6523 99.9023-93.6523L76.5625-93.6523Q73.6816-93.6523 71.7773-93.3105Q69.873-92.9688 68.335-91.9678Q66.7969-90.9668 65.0391-89.0625L59.3262-82.7148Q57.7148-80.8594 56.4209-80.0049Q55.127-79.1504 53.54-78.9307Q51.9531-78.7109 49.3164-78.7109L31.9824-78.7109Q24.1699-78.7109 20.1172-74.5605Q16.0645-70.4102 16.0645-62.793L16.0645 3.85742Q16.0645 11.5234 20.1172 15.6738Q24.1699 19.8242 31.9824 19.8242ZM89.2578 4.73633Q81.9824 4.73633 75.6348 2.02637Q69.2871-0.683594 64.4531-5.51758Q59.6191-10.3516 56.8848-16.748Q54.1504-23.1445 54.1504-30.4688Q54.1504-37.793 56.8848-44.1895Q59.6191-50.5859 64.4531-55.4199Q69.2871-60.2539 75.6348-62.9639Q81.9824-65.6738 89.2578-65.6738Q96.6309-65.6738 103.027-62.9639Q109.424-60.2539 114.209-55.4199Q118.994-50.5859 121.704-44.1895Q124.414-37.793 124.414-30.4688Q124.414-23.1445 121.68-16.748Q118.945-10.3516 114.136-5.51758Q109.326-0.683594 102.954 2.02637Q96.582 4.73633 89.2578 4.73633ZM89.2578 1.85547Q95.9473 1.85547 101.782-0.634766Q107.617-3.125 112.036-7.59277Q116.455-12.0605 118.945-17.9199Q121.436-23.7793 121.436-30.4688Q121.436-37.207 118.945-43.042Q116.455-48.877 112.036-53.3447Q107.617-57.8125 101.782-60.3027Q95.9473-62.793 89.2578-62.793Q82.6172-62.793 76.7822-60.3027Q70.9473-57.8125 66.5283-53.3447Q62.1094-48.877 59.6191-43.042Q57.1289-37.207 57.1289-30.4688Q57.1289-23.7793 59.6191-17.9199Q62.1094-12.0605 66.5283-7.59277Q70.9473-3.125 76.7822-0.634766Q82.6172 1.85547 89.2578 1.85547ZM128.32-53.1738Q128.32-55.957 130.444-58.0566Q132.568-60.1562 135.449-60.1562Q138.184-60.1562 140.283-58.0566Q142.383-55.957 142.383-53.1738Q142.383-50.3418 140.283-48.2178Q138.184-46.0938 135.449-46.2402Q132.568-46.3867 130.444-48.291Q128.32-50.1953 128.32-53.1738Z"/>
  </g>
  <g id="Black-M" transform="matrix(1 0 0 1 2858.86 1126)">
   <path d="M31.5918 13.2324L117.432 13.2324Q126.514 13.2324 131.567 8.17871Q136.621 3.125 136.621-5.9082L136.621-57.666Q136.621-66.6992 131.567-71.7529Q126.514-76.8066 117.432-76.8066L108.398-76.8066Q106.543-76.8066 105.249-76.9775Q103.955-77.1484 102.783-77.7588Q101.611-78.3691 100.098-79.6875L96.4355-82.9102Q94.1895-84.8633 91.7969-85.6201Q89.4043-86.377 85.8887-86.377L63.1836-86.377Q59.668-86.377 57.2754-85.6201Q54.8828-84.8633 52.6367-82.9102L48.9258-79.6875Q46.6797-77.7344 45.0684-77.2705Q43.457-76.8066 40.625-76.8066L31.5918-76.8066Q22.5586-76.8066 17.5049-71.7529Q12.4512-66.6992 12.4512-57.666L12.4512-5.9082Q12.4512 3.125 17.5049 8.17871Q22.5586 13.2324 31.5918 13.2324ZM74.5117-5.85938Q69.3359-5.85938 64.7705-7.8125Q60.2051-9.76562 56.7627-13.208Q53.3203-16.6504 51.3672-21.2158Q49.4141-25.7812 49.4141-31.0547Q49.4141-36.2793 51.3672-40.8447Q53.3203-45.4102 56.7627-48.877Q60.2051-52.3438 64.7705-54.2725Q69.3359-56.2012 74.5117-56.2012Q81.4941-56.2012 87.207-52.832Q92.9199-49.4629 96.2891-43.75Q99.6582-38.0371 99.6582-31.0547Q99.6582-25.7812 97.7051-21.2158Q95.752-16.6504 92.3096-13.208Q88.8672-9.76562 84.3262-7.8125Q79.7852-5.85938 74.5117-5.85938ZM74.5117-20.5078Q77.4414-20.5078 79.8096-21.9482Q82.1777-23.3887 83.5938-25.7568Q85.0098-28.125 85.0098-31.0547Q85.0098-33.9844 83.5938-36.3525Q82.1777-38.7207 79.8096-40.1367Q77.4414-41.5527 74.5117-41.5527Q71.6309-41.5527 69.2627-40.1367Q66.8945-38.7207 65.4785-36.3525Q64.0625-33.9844 64.0625-31.0547Q64.0625-28.125 65.4785-25.7568Q66.8945-23.3887 69.2627-21.9482Q71.6309-20.5078 74.5117-20.5078ZM102.295-48.877Q102.295-51.9043 104.492-54.1016Q106.689-56.2988 109.766-56.2988Q112.744-56.2988 114.941-54.1016Q117.139-51.9043 117.139-48.877Q117.139-45.8008 114.966-43.6768Q112.793-41.5527 109.766-41.5039Q106.641-41.4551 104.468-43.6279Q102.295-45.8008 102.295-48.877Z"/>
  </g>
  <g id="Heavy-M" transform="matrix(1 0 0 1 2562.67 1126)">
   <path d="M30.7129 12.4023L117.334 12.4023Q126.074 12.4023 130.835 7.66602Q135.596 2.92969 135.596-5.76172L135.596-57.373Q135.596-66.0645 130.835-70.8252Q126.074-75.5859 117.334-75.5859L107.129-75.5859Q105.273-75.5859 104.004-75.7812Q102.734-75.9766 101.636-76.6113Q100.537-77.2461 99.0723-78.5156L95.3613-82.0312Q93.2129-83.9844 90.8691-84.8145Q88.5254-85.6445 84.9609-85.6445L63.0371-85.6445Q59.4727-85.6445 57.1289-84.8145Q54.7852-83.9844 52.6367-82.0312L48.877-78.5156Q46.7773-76.6113 45.2148-76.0986Q43.6523-75.5859 40.8203-75.5859L30.7129-75.5859Q21.9727-75.5859 17.2119-70.8252Q12.4512-66.0645 12.4512-57.373L12.4512-5.76172Q12.4512 2.92969 17.2119 7.66602Q21.9727 12.4023 30.7129 12.4023ZM74.0234-5.56641Q68.75-5.56641 64.1113-7.54395Q59.4727-9.52148 55.9814-13.0127Q52.4902-16.5039 50.5127-21.1426Q48.5352-25.7812 48.5352-31.1035Q48.5352-36.4258 50.5127-41.0645Q52.4902-45.7031 55.9814-49.2188Q59.4727-52.7344 64.1113-54.6875Q68.75-56.6406 74.0234-56.6406Q81.1035-56.6406 86.8896-53.2227Q92.6758-49.8047 96.0938-44.0186Q99.5117-38.2324 99.5117-31.1035Q99.5117-25.7812 97.5342-21.1426Q95.5566-16.5039 92.0654-13.0127Q88.5742-9.52148 83.96-7.54395Q79.3457-5.56641 74.0234-5.56641ZM74.0234-18.5059Q77.4902-18.5059 80.3467-20.2148Q83.2031-21.9238 84.8877-24.7803Q86.5723-27.6367 86.5723-31.1035Q86.5723-34.6191 84.8877-37.4512Q83.2031-40.2832 80.3467-41.9922Q77.4902-43.7012 74.0234-43.7012Q70.5566-43.7012 67.7246-41.9922Q64.8926-40.2832 63.1836-37.4512Q61.4746-34.6191 61.4746-31.1035Q61.4746-27.6367 63.1836-24.7803Q64.8926-21.9238 67.7246-20.2148Q70.5566-18.5059 74.0234-18.5059ZM102.295-48.9746Q102.295-51.8555 104.419-53.9795Q106.543-56.1035 109.521-56.1035Q112.354-56.1035 114.478-53.9795Q116.602-51.8555 116.602-48.9746Q116.602-45.9961 114.502-43.9453Q112.402-41.8945 109.521-41.8457Q106.494-41.7969 104.395-43.8965Q102.295-45.9961 102.295-48.9746Z"/>
  </g>
  <g id="Bold-M" transform="matrix(1 0 0 1 2266.49 1126)">
   <path d="M29.6875 11.5234L117.236 11.5234Q125.586 11.5234 130.054 7.10449Q134.521 2.68555 134.521-5.66406L134.521-57.0801Q134.521-65.3809 130.054-69.7998Q125.586-74.2188 117.236-74.2188L105.762-74.2188Q103.857-74.2188 102.612-74.4385Q101.367-74.6582 100.342-75.3174Q99.3164-75.9766 97.998-77.2461L94.1895-81.0547Q92.1875-83.0566 89.8926-83.96Q87.5977-84.8633 83.9355-84.8633L62.8418-84.8633Q59.2285-84.8633 56.9336-83.96Q54.6387-83.0566 52.5879-81.0547L48.7793-77.2461Q46.875-75.3906 45.3857-74.8047Q43.8965-74.2188 41.0156-74.2188L29.6875-74.2188Q21.3379-74.2188 16.8945-69.7998Q12.4512-65.3809 12.4512-57.0801L12.4512-5.66406Q12.4512 2.68555 16.8945 7.10449Q21.3379 11.5234 29.6875 11.5234ZM73.4863-5.27344Q68.1152-5.27344 63.4033-7.27539Q58.6914-9.27734 55.1514-12.8174Q51.6113-16.3574 49.6094-21.0693Q47.6074-25.7812 47.6074-31.2012Q47.6074-36.6211 49.6094-41.3086Q51.6113-45.9961 55.1514-49.5605Q58.6914-53.125 63.4033-55.127Q68.1152-57.1289 73.4863-57.1289Q80.6641-57.1289 86.5479-53.6621Q92.4316-50.1953 95.8984-44.3115Q99.3652-38.4277 99.3652-31.2012Q99.3652-25.7812 97.3633-21.0693Q95.3613-16.3574 91.7969-12.8174Q88.2324-9.27734 83.5449-7.27539Q78.8574-5.27344 73.4863-5.27344ZM73.4863-16.3086Q77.5879-16.3086 80.957-18.3105Q84.3262-20.3125 86.3281-23.6816Q88.3301-27.0508 88.3301-31.2012Q88.3301-35.3516 86.3281-38.7207Q84.3262-42.0898 80.957-44.0918Q77.5879-46.0938 73.4863-46.0938Q69.3848-46.0938 66.0156-44.0918Q62.6465-42.0898 60.6201-38.7207Q58.5938-35.3516 58.5938-31.2012Q58.5938-27.0508 60.6201-23.6816Q62.6465-20.3125 66.0156-18.3105Q69.3848-16.3086 73.4863-16.3086ZM102.295-49.0723Q102.295-51.8555 104.346-53.8818Q106.396-55.9082 109.229-55.9082Q111.963-55.9082 113.989-53.8818Q116.016-51.8555 116.016-49.0723Q116.016-46.2402 113.989-44.2627Q111.963-42.2852 109.229-42.2852Q106.348-42.2363 104.321-44.2383Q102.295-46.2402 102.295-49.0723Z"/>
  </g>
  <g id="Semibold-M" transform="matrix(1 0 0 1 1970.17 1126)">
   <path d="M29.0039 10.8887L117.188 10.8887Q125.244 10.8887 129.492 6.68945Q133.74 2.49023 133.74-5.51758L133.74-56.8848Q133.74-64.8438 129.492-69.043Q125.244-73.2422 117.188-73.2422L104.785-73.2422Q102.832-73.2422 101.636-73.4863Q100.439-73.7305 99.4385-74.4141Q98.4375-75.0977 97.2168-76.3672L93.3594-80.3711Q91.4062-82.373 89.1602-83.3496Q86.9141-84.3262 83.2031-84.3262L62.6953-84.3262Q59.0332-84.3262 56.7871-83.3496Q54.541-82.373 52.5879-80.3711L48.7305-76.3672Q46.9238-74.5117 45.4834-73.877Q44.043-73.2422 41.1621-73.2422L29.0039-73.2422Q20.8984-73.2422 16.6748-69.043Q12.4512-64.8438 12.4512-56.8848L12.4512-5.51758Q12.4512 2.49023 16.6748 6.68945Q20.8984 10.8887 29.0039 10.8887ZM73.0957-5.0293Q67.627-5.0293 62.8906-7.05566Q58.1543-9.08203 54.5654-12.6709Q50.9766-16.2598 48.9502-20.9961Q46.9238-25.7324 46.9238-31.25Q46.9238-36.7188 48.9502-41.4551Q50.9766-46.1914 54.5654-49.8047Q58.1543-53.418 62.8906-55.4199Q67.627-57.4219 73.0957-57.4219Q80.3223-57.4219 86.2793-53.9307Q92.2363-50.4395 95.7275-44.4824Q99.2188-38.5254 99.2188-31.25Q99.2188-25.7324 97.1924-20.9961Q95.166-16.2598 91.5771-12.6709Q87.9883-9.08203 83.252-7.05566Q78.5156-5.0293 73.0957-5.0293ZM73.0957-14.7461Q77.6367-14.7461 81.3721-16.9678Q85.1074-19.1895 87.3291-22.9248Q89.5508-26.6602 89.5508-31.25Q89.5508-35.8398 87.3291-39.5508Q85.1074-43.2617 81.3721-45.5078Q77.6367-47.7539 73.0957-47.7539Q68.5547-47.7539 64.8193-45.5078Q61.084-43.2617 58.8379-39.5508Q56.5918-35.8398 56.5918-31.25Q56.5918-26.6602 58.8379-22.9248Q61.084-19.1895 64.8193-16.9678Q68.5547-14.7461 73.0957-14.7461ZM102.295-49.1699Q102.295-51.8066 104.272-53.8086Q106.25-55.8105 108.984-55.8105Q111.621-55.8105 113.623-53.8086Q115.625-51.8066 115.625-49.1699Q115.625-46.3867 113.647-44.4824Q111.67-42.5781 108.984-42.5781Q106.25-42.5293 104.272-44.458Q102.295-46.3867 102.295-49.1699Z"/>
  </g>
  <g id="Medium-M" transform="matrix(1 0 0 1 1673.75 1126)">
   <path d="M28.4668 10.4004L117.09 10.4004Q125 10.4004 129.077 6.37207Q133.154 2.34375 133.154-5.46875L133.154-56.6895Q133.154-64.502 129.077-68.5059Q125-72.5098 117.09-72.5098L104.053-72.5098Q102.1-72.5098 100.903-72.7783Q99.707-73.0469 98.7549-73.7549Q97.8027-74.4629 96.6309-75.6836L92.7734-79.8828Q90.8691-81.8359 88.623-82.8613Q86.377-83.8867 82.666-83.8867L62.6465-83.8867Q58.8867-83.8867 56.6895-82.8613Q54.4922-81.8359 52.5391-79.8828L48.6816-75.6836Q46.9727-73.8281 45.5566-73.1689Q44.1406-72.5098 41.2598-72.5098L28.4668-72.5098Q20.5566-72.5098 16.5039-68.5059Q12.4512-64.502 12.4512-56.6895L12.4512-5.46875Q12.4512 2.34375 16.5039 6.37207Q20.5566 10.4004 28.4668 10.4004ZM72.8027-4.83398Q67.2852-4.83398 62.5-6.88477Q57.7148-8.93555 54.126-12.5488Q50.5371-16.1621 48.4619-20.9473Q46.3867-25.7324 46.3867-31.2988Q46.3867-36.8164 48.4619-41.6016Q50.5371-46.3867 54.126-50Q57.7148-53.6133 62.5-55.6396Q67.2852-57.666 72.8027-57.666Q80.0781-57.666 86.084-54.1504Q92.0898-50.6348 95.6055-44.6289Q99.1211-38.623 99.1211-31.2988Q99.1211-25.7324 97.0947-20.9473Q95.0684-16.1621 91.4551-12.5488Q87.8418-8.93555 83.0566-6.88477Q78.2715-4.83398 72.8027-4.83398ZM72.8027-13.5742Q77.6855-13.5742 81.6895-15.9668Q85.6934-18.3594 88.0859-22.3633Q90.4785-26.3672 90.4785-31.2988Q90.4785-36.1816 88.0859-40.1855Q85.6934-44.1895 81.6895-46.6064Q77.6855-49.0234 72.8027-49.0234Q67.9199-49.0234 63.8916-46.6064Q59.8633-44.1895 57.4707-40.1855Q55.0781-36.1816 55.0781-31.2988Q55.0781-26.3672 57.4707-22.3633Q59.8633-18.3594 63.8916-15.9668Q67.9199-13.5742 72.8027-13.5742ZM102.295-49.2188Q102.295-51.8066 104.224-53.7354Q106.152-55.6641 108.838-55.6641Q111.426-55.6641 113.354-53.7354Q115.283-51.8066 115.283-49.2188Q115.283-46.4844 113.354-44.6289Q111.426-42.7734 108.838-42.7734Q106.152-42.7246 104.224-44.6045Q102.295-46.4844 102.295-49.2188Z"/>
  </g>
  <g id="Regular-M" transform="matrix(1 0 0 1 1377.43 1126)">
   <path d="M27.7832 9.76562L117.041 9.76562Q124.658 9.76562 128.516 5.98145Q132.373 2.19727 132.373-5.37109L132.373-56.4941Q132.373-64.0137 128.516-67.7979Q124.658-71.582 117.041-71.582L103.076-71.582Q101.123-71.582 99.9512-71.875Q98.7793-72.168 97.876-72.876Q96.9727-73.584 95.8496-74.8047L91.9434-79.1992Q90.1367-81.2012 87.9395-82.2754Q85.7422-83.3496 81.9824-83.3496L62.5-83.3496Q58.7402-83.3496 56.5674-82.2754Q54.3945-81.2012 52.5391-79.1992L48.6328-74.8047Q47.0215-72.998 45.6543-72.29Q44.2871-71.582 41.4062-71.582L27.7832-71.582Q20.1172-71.582 16.2842-67.7979Q12.4512-64.0137 12.4512-56.4941L12.4512-5.37109Q12.4512 2.19727 16.2842 5.98145Q20.1172 9.76562 27.7832 9.76562ZM72.4121-4.63867Q66.8457-4.63867 62.0117-6.68945Q57.1777-8.74023 53.54-12.4023Q49.9023-16.0645 47.8271-20.8984Q45.752-25.7324 45.752-31.3477Q45.752-36.9141 47.8271-41.748Q49.9023-46.582 53.54-50.2441Q57.1777-53.9062 62.0117-55.957Q66.8457-58.0078 72.4121-58.0078Q79.7852-58.0078 85.8398-54.4434Q91.8945-50.8789 95.459-44.8242Q99.0234-38.7695 99.0234-31.3477Q99.0234-25.7324 96.9727-20.8984Q94.9219-16.0645 91.2598-12.4023Q87.5977-8.74023 82.7637-6.68945Q77.9297-4.63867 72.4121-4.63867ZM72.4121-12.0605Q77.7344-12.0605 82.1045-14.6484Q86.4746-17.2363 89.0625-21.6064Q91.6504-25.9766 91.6504-31.3477Q91.6504-36.6699 89.0625-41.04Q86.4746-45.4102 82.1045-48.0225Q77.7344-50.6348 72.4121-50.6348Q67.0898-50.6348 62.7197-48.0225Q58.3496-45.4102 55.7373-41.04Q53.125-36.6699 53.125-31.3477Q53.125-25.9766 55.7373-21.6064Q58.3496-17.2363 62.7197-14.6484Q67.0898-12.0605 72.4121-12.0605ZM102.295-49.3164Q102.295-51.8066 104.175-53.6865Q106.055-55.5664 108.643-55.5664Q111.133-55.5664 113.013-53.6865Q114.893-51.8066 114.893-49.3164Q114.893-46.6797 113.013-44.873Q111.133-43.0664 108.643-43.0664Q106.055-43.0176 104.175-44.8486Q102.295-46.6797 102.295-49.3164Z"/>
  </g>
  <g id="Light-M" transform="matrix(1 0 0 1 1081.72 1126)">
   <path d="M26.8555 9.0332L115.967 9.0332Q123.096 9.0332 126.733 5.44434Q130.371 1.85547 130.371-5.22461L130.371-56.543Q130.371-63.5254 126.733-67.1387Q123.096-70.752 115.967-70.752L101.66-70.752Q99.707-70.752 98.5107-70.9961Q97.3145-71.2402 96.3867-71.9238Q95.459-72.6074 94.2871-73.9258L90.2344-78.5156Q88.3301-80.5664 86.2793-81.5186Q84.2285-82.4707 80.5664-82.4707L61.5234-82.4707Q57.8613-82.4707 55.835-81.5186Q53.8086-80.5664 51.8555-78.5156L47.8027-73.9258Q46.0938-72.0215 44.7266-71.3867Q43.3594-70.752 40.4297-70.752L26.8555-70.752Q19.6777-70.752 16.0645-67.1387Q12.4512-63.5254 12.4512-56.543L12.4512-5.22461Q12.4512 1.85547 16.0645 5.44434Q19.6777 9.0332 26.8555 9.0332ZM71.4355-4.54102Q65.8203-4.54102 60.9619-6.5918Q56.1035-8.64258 52.417-12.3291Q48.7305-16.0156 46.6553-20.8984Q44.5801-25.7812 44.5801-31.3965Q44.5801-37.0117 46.6553-41.8701Q48.7305-46.7285 52.417-50.415Q56.1035-54.1016 60.9619-56.1768Q65.8203-58.252 71.4355-58.252Q78.8574-58.252 84.9365-54.6631Q91.0156-51.0742 94.6289-44.9707Q98.2422-38.8672 98.2422-31.3965Q98.2422-25.7812 96.167-20.8984Q94.0918-16.0156 90.4053-12.3291Q86.7188-8.64258 81.8359-6.5918Q76.9531-4.54102 71.4355-4.54102ZM71.4355-10.3516Q77.1973-10.3516 81.9824-13.1836Q86.7676-16.0156 89.5996-20.7764Q92.4316-25.5371 92.4316-31.3965Q92.4316-37.207 89.5996-41.9922Q86.7676-46.7773 81.9824-49.6338Q77.1973-52.4902 71.4355-52.4902Q65.625-52.4902 60.8398-49.6338Q56.0547-46.7773 53.2227-41.9922Q50.3906-37.207 50.3906-31.3965Q50.3906-25.5371 53.2227-20.7764Q56.0547-16.0156 60.8398-13.1836Q65.625-10.3516 71.4355-10.3516ZM101.416-49.2676Q101.416-51.6113 103.223-53.418Q105.029-55.2246 107.52-55.2246Q109.912-55.2246 111.694-53.418Q113.477-51.6113 113.477-49.2676Q113.477-46.7285 111.694-44.9707Q109.912-43.2129 107.52-43.2617Q105.029-43.2617 103.223-44.9707Q101.416-46.6797 101.416-49.2676Z"/>
  </g>
  <g id="Thin-M" transform="matrix(1 0 0 1 786.329 1126)">
   <path d="M25.5859 8.05664L114.6 8.05664Q121.045 8.05664 124.39 4.71191Q127.734 1.36719 127.734-5.07812L127.734-56.543Q127.734-62.9395 124.39-66.3086Q121.045-69.6777 114.6-69.6777L99.8535-69.6777Q97.8027-69.6777 96.6064-69.873Q95.4102-70.0684 94.458-70.7275Q93.5059-71.3867 92.1875-72.8027L87.9395-77.5879Q85.9863-79.7363 84.082-80.5176Q82.1777-81.2988 78.7109-81.2988L60.2539-81.2988Q56.7383-81.2988 54.8584-80.5176Q52.9785-79.7363 50.9766-77.5879L46.7285-72.8027Q44.873-70.752 43.4814-70.2148Q42.0898-69.6777 39.1113-69.6777L25.5859-69.6777Q19.1406-69.6777 15.7959-66.3086Q12.4512-62.9395 12.4512-56.543L12.4512-5.07812Q12.4512 1.36719 15.7959 4.71191Q19.1406 8.05664 25.5859 8.05664ZM70.0684-4.3457Q64.502-4.3457 59.5947-6.44531Q54.6875-8.54492 50.9521-12.2803Q47.2168-16.0156 45.1416-20.8984Q43.0664-25.7812 43.0664-31.4941Q43.0664-37.1094 45.1416-42.041Q47.2168-46.9727 50.9521-50.6836Q54.6875-54.3945 59.5947-56.4941Q64.502-58.5938 70.0684-58.5938Q77.6367-58.5938 83.7646-54.9561Q89.8926-51.3184 93.5303-45.166Q97.168-39.0137 97.168-31.4941Q97.168-25.7812 95.0684-20.8984Q92.9688-16.0156 89.2578-12.2803Q85.5469-8.54492 80.6396-6.44531Q75.7324-4.3457 70.0684-4.3457ZM70.0684-8.05664Q76.5625-8.05664 81.8604-11.2061Q87.1582-14.3555 90.3076-19.6777Q93.457-25 93.457-31.4941Q93.457-37.9883 90.3076-43.3105Q87.1582-48.6328 81.8604-51.7822Q76.5625-54.9316 70.0684-54.9316Q63.623-54.9316 58.3252-51.7822Q53.0273-48.6328 49.9023-43.3105Q46.7773-37.9883 46.7773-31.4941Q46.7773-25 49.9023-19.6777Q53.0273-14.3555 58.3252-11.2061Q63.623-8.05664 70.0684-8.05664ZM100.244-49.2188Q100.244-51.4648 101.953-53.1738Q103.662-54.8828 106.006-54.8828Q108.252-54.8828 109.937-53.1738Q111.621-51.4648 111.621-49.2188Q111.621-46.9238 109.937-45.2148Q108.252-43.5059 106.006-43.6035Q103.662-43.6523 101.953-45.2148Q100.244-46.7773 100.244-49.2188Z"/>
  </g>
  <g id="Ultralight-M" transform="matrix(1 0 0 1 490.302 1126)">
   <path d="M24.9512 7.56836L113.867 7.56836Q119.971 7.56836 123.169 4.3457Q126.367 1.12305 126.367-4.98047L126.367-56.5918Q126.367-62.5977 123.169-65.8691Q119.971-69.1406 113.867-69.1406L98.877-69.1406Q96.8262-69.1406 95.6299-69.2871Q94.4336-69.4336 93.457-70.0684Q92.4805-70.7031 91.1133-72.2168L86.7676-77.0996Q84.7656-79.2969 82.959-80.0049Q81.1523-80.7129 77.7832-80.7129L59.5703-80.7129Q56.1523-80.7129 54.3701-80.0049Q52.5879-79.2969 50.5371-77.0996L46.1914-72.2168Q44.2383-70.0684 42.8467-69.6045Q41.4551-69.1406 38.4766-69.1406L24.9512-69.1406Q18.8477-69.1406 15.6494-65.8691Q12.4512-62.5977 12.4512-56.5918L12.4512-4.98047Q12.4512 1.12305 15.6494 4.3457Q18.8477 7.56836 24.9512 7.56836ZM69.4336-4.29688Q63.8184-4.29688 58.8867-6.37207Q53.9551-8.44727 50.1953-12.207Q46.4355-15.9668 44.3359-20.8984Q42.2363-25.8301 42.2363-31.543Q42.2363-37.207 44.3359-42.1387Q46.4355-47.0703 50.1953-50.8057Q53.9551-54.541 58.8867-56.665Q63.8184-58.7891 69.4336-58.7891Q77.002-58.7891 83.1543-55.127Q89.3066-51.4648 92.9688-45.2881Q96.6309-39.1113 96.6309-31.543Q96.6309-25.8301 94.5068-20.8984Q92.3828-15.9668 88.6475-12.207Q84.9121-8.44727 79.9805-6.37207Q75.0488-4.29688 69.4336-4.29688ZM69.4336-6.88477Q76.1719-6.88477 81.7627-10.2051Q87.3535-13.5254 90.6494-19.1162Q93.9453-24.707 93.9453-31.543Q93.9453-38.3301 90.6494-43.9453Q87.3535-49.5605 81.7627-52.8564Q76.1719-56.1523 69.4336-56.1523Q62.6465-56.1523 57.0801-52.8564Q51.5137-49.5605 48.2178-43.9453Q44.9219-38.3301 44.9219-31.543Q44.9219-24.707 48.2178-19.1162Q51.5137-13.5254 57.0801-10.2051Q62.6465-6.88477 69.4336-6.88477ZM99.6094-49.1699Q99.6094-51.3184 101.27-52.9785Q102.93-54.6387 105.176-54.6387Q107.373-54.6387 108.984-52.9785Q110.596-51.3184 110.596-49.1699Q110.596-46.9238 108.984-45.2637Q107.373-43.6035 105.176-43.7012Q102.93-43.7988 101.27-45.2881Q99.6094-46.7773 99.6094-49.1699Z"/>
  </g>
  <g id="Black-S" transform="matrix(1 0 0 1 2874.9 696)">
   <path d="M25 2.92969L91.9922 2.92969Q99.1699 2.92969 103.198-1.09863Q107.227-5.12695 107.227-12.3047L107.227-52.8809Q107.227-60.0586 103.198-64.0869Q99.1699-68.1152 91.9922-68.1152L85.2539-68.1152Q83.0566-68.1152 81.7871-68.4814Q80.5176-68.8477 78.6621-70.3613L75.7812-72.8027Q73.9746-74.3652 72.0947-74.9268Q70.2148-75.4883 67.4805-75.4883L49.5117-75.4883Q46.7773-75.4883 44.8975-74.9268Q43.0176-74.3652 41.2109-72.8027L38.3301-70.3613Q36.5234-68.8477 35.2295-68.4814Q33.9355-68.1152 31.7383-68.1152L25-68.1152Q17.8223-68.1152 13.7939-64.0869Q9.76562-60.0586 9.76562-52.8809L9.76562-12.3047Q9.76562-5.12695 13.7939-1.09863Q17.8223 2.92969 25 2.92969ZM58.4961-12.3047Q53.0762-12.3047 48.6328-14.9414Q44.1895-17.5781 41.5527-22.0459Q38.916-26.5137 38.916-31.9336Q38.916-37.4023 41.5527-41.8457Q44.1895-46.2891 48.6328-48.9258Q53.0762-51.5625 58.4961-51.5625Q63.9648-51.5625 68.3838-48.9258Q72.8027-46.2891 75.4395-41.8457Q78.0762-37.4023 78.0762-31.9336Q78.0762-26.5137 75.4395-22.0459Q72.8027-17.5781 68.3838-14.9414Q63.9648-12.3047 58.4961-12.3047ZM58.4961-24.2188Q60.6445-24.2188 62.3779-25.2686Q64.1113-26.3184 65.1367-28.0762Q66.1621-29.834 66.1621-31.9336Q66.1621-34.082 65.1367-35.8398Q64.1113-37.5977 62.3779-38.623Q60.6445-39.6484 58.4961-39.6484Q56.3965-39.6484 54.6387-38.623Q52.8809-37.5977 51.8555-35.8398Q50.8301-34.082 50.8301-31.9336Q50.8301-29.834 51.8555-28.0762Q52.8809-26.3184 54.6387-25.2686Q56.3965-24.2188 58.4961-24.2188ZM80.0781-45.8984Q80.0781-48.291 81.8359-50.0244Q83.5938-51.7578 85.9863-51.7578Q88.3789-51.7578 90.1123-50.0244Q91.8457-48.291 91.8457-45.8984Q91.8457-43.457 90.1367-41.7725Q88.4277-40.0879 85.9863-40.0391Q83.5449-39.9902 81.8115-41.7236Q80.0781-43.457 80.0781-45.8984Z"/>
  </g>
  <g id="Heavy-S" transform="matrix(1 0 0 1 2578.49 696)">
   <path d="M24.3652 2.34375L92.041 2.34375Q98.9746 2.34375 102.808-1.46484Q106.641-5.27344 106.641-12.207L106.641-52.6367Q106.641-59.5703 102.808-63.3789Q98.9746-67.1875 92.041-67.1875L84.375-67.1875Q82.1289-67.1875 80.9082-67.6025Q79.6875-68.0176 78.0273-69.4824L75.0977-72.168Q73.3887-73.6816 71.5332-74.3408Q69.6777-75 66.8945-75L49.5117-75Q46.6797-75 44.8486-74.3408Q43.0176-73.6816 41.2598-72.168L38.3789-69.4824Q36.7188-68.0176 35.4736-67.6025Q34.2285-67.1875 32.0312-67.1875L24.3652-67.1875Q17.3828-67.1875 13.5742-63.3789Q9.76562-59.5703 9.76562-52.6367L9.76562-12.207Q9.76562-5.27344 13.5742-1.46484Q17.3828 2.34375 24.3652 2.34375ZM58.2031-12.0605Q52.6855-12.0605 48.1934-14.7461Q43.7012-17.4316 41.0156-21.9482Q38.3301-26.4648 38.3301-31.9824Q38.3301-37.5488 41.0156-42.041Q43.7012-46.5332 48.1934-49.2188Q52.6855-51.9043 58.2031-51.9043Q63.7207-51.9043 68.2129-49.2188Q72.7051-46.5332 75.3906-42.041Q78.0762-37.5488 78.0762-31.9824Q78.0762-26.4648 75.3906-21.9482Q72.7051-17.4316 68.2129-14.7461Q63.7207-12.0605 58.2031-12.0605ZM58.2031-22.7539Q60.7422-22.7539 62.8418-23.999Q64.9414-25.2441 66.1621-27.3438Q67.3828-29.4434 67.3828-31.9824Q67.3828-34.5703 66.1621-36.6699Q64.9414-38.7695 62.8418-40.0146Q60.7422-41.2598 58.2031-41.2598Q55.6641-41.2598 53.5645-40.0146Q51.4648-38.7695 50.2197-36.6699Q48.9746-34.5703 48.9746-31.9824Q48.9746-29.4434 50.2197-27.3438Q51.4648-25.2441 53.5645-23.999Q55.6641-22.7539 58.2031-22.7539ZM80.1758-45.9961Q80.1758-48.291 81.8848-49.9756Q83.5938-51.6602 85.8887-51.6602Q88.1836-51.6602 89.8682-49.9756Q91.5527-48.291 91.5527-45.9961Q91.5527-43.6523 89.8926-42.0166Q88.2324-40.3809 85.8887-40.332Q83.5449-40.2832 81.8604-41.9678Q80.1758-43.6523 80.1758-45.9961Z"/>
  </g>
  <g id="Bold-S" transform="matrix(1 0 0 1 2282.12 696)">
   <path d="M23.6328 1.66016L92.1387 1.66016Q98.8281 1.66016 102.393-1.9043Q105.957-5.46875 105.957-12.1094L105.957-52.3926Q105.957-59.0332 102.393-62.5732Q98.8281-66.1133 92.1387-66.1133L83.3496-66.1133Q81.1523-66.1133 79.9805-66.6016Q78.8086-67.0898 77.2949-68.5059L74.3652-71.4355Q72.7539-72.9492 70.9229-73.6816Q69.0918-74.4141 66.2109-74.4141L49.5117-74.4141Q46.6309-74.4141 44.7998-73.6816Q42.9688-72.9492 41.3574-71.4355L38.4277-68.5059Q36.9141-67.0898 35.7422-66.6016Q34.5703-66.1133 32.373-66.1133L23.6328-66.1133Q16.9434-66.1133 13.3545-62.5732Q9.76562-59.0332 9.76562-52.3926L9.76562-12.1094Q9.76562-5.46875 13.3545-1.9043Q16.9434 1.66016 23.6328 1.66016ZM57.8613-11.8164Q52.2949-11.8164 47.7051-14.5264Q43.1152-17.2363 40.4053-21.8506Q37.6953-26.4648 37.6953-32.0312Q37.6953-37.6953 40.4053-42.2607Q43.1152-46.8262 47.7051-49.5605Q52.2949-52.2949 57.8613-52.2949Q63.4766-52.2949 68.042-49.5605Q72.6074-46.8262 75.3174-42.2607Q78.0273-37.6953 78.0273-32.0312Q78.0273-26.4648 75.3174-21.8506Q72.6074-17.2363 68.042-14.5264Q63.4766-11.8164 57.8613-11.8164ZM57.8613-21.0938Q60.8887-21.0938 63.3789-22.5586Q65.8691-24.0234 67.334-26.5137Q68.7988-29.0039 68.7988-32.0312Q68.7988-35.1074 67.334-37.5977Q65.8691-40.0879 63.3789-41.5527Q60.8887-43.0176 57.8613-43.0176Q54.834-43.0176 52.3438-41.5527Q49.8535-40.0879 48.3887-37.5977Q46.9238-35.1074 46.9238-32.0312Q46.9238-29.0039 48.3887-26.5137Q49.8535-24.0234 52.3682-22.5586Q54.8828-21.0938 57.8613-21.0938ZM80.3223-46.0938Q80.3223-48.3398 81.958-49.9512Q83.5938-51.5625 85.8398-51.5625Q88.0371-51.5625 89.6484-49.9512Q91.2598-48.3398 91.2598-46.0938Q91.2598-43.8477 89.6729-42.2607Q88.0859-40.6738 85.8398-40.6738Q83.5938-40.625 81.958-42.2363Q80.3223-43.8477 80.3223-46.0938Z"/>
  </g>
  <g id="Semibold-S" transform="matrix(1 0 0 1 1985.63 696)">
   <path d="M23.0957 1.2207L92.1387 1.2207Q98.6816 1.2207 102.1-2.17285Q105.518-5.56641 105.518-12.0605L105.518-52.1973Q105.518-58.6426 102.1-62.0117Q98.6816-65.3809 92.1387-65.3809L82.666-65.3809Q80.4199-65.3809 79.2969-65.8936Q78.1738-66.4062 76.7578-67.8223L73.8281-70.8984Q72.2656-72.4121 70.459-73.2178Q68.6523-74.0234 65.7715-74.0234L49.4629-74.0234Q46.5332-74.0234 44.751-73.2178Q42.9688-72.4121 41.4062-70.8984L38.4277-67.8223Q37.0117-66.4062 35.8887-65.8936Q34.7656-65.3809 32.5684-65.3809L23.0957-65.3809Q16.6016-65.3809 13.1836-62.0117Q9.76562-58.6426 9.76562-52.1973L9.76562-12.0605Q9.76562-5.56641 13.1836-2.17285Q16.6016 1.2207 23.0957 1.2207ZM57.6172-11.6211Q51.9531-11.6211 47.3389-14.3555Q42.7246-17.0898 39.9658-21.7529Q37.207-26.416 37.207-32.0801Q37.207-37.793 39.9658-42.4072Q42.7246-47.0215 47.3389-49.7803Q51.9531-52.5391 57.6172-52.5391Q63.2812-52.5391 67.9199-49.7803Q72.5586-47.0215 75.293-42.4072Q78.0273-37.793 78.0273-32.0801Q78.0273-26.416 75.293-21.7529Q72.5586-17.0898 67.9199-14.3555Q63.2812-11.6211 57.6172-11.6211ZM57.6172-19.9219Q60.9863-19.9219 63.7451-21.5576Q66.5039-23.1934 68.1396-25.9521Q69.7754-28.7109 69.7754-32.0801Q69.7754-35.4492 68.1396-38.2324Q66.5039-41.0156 63.7451-42.627Q60.9863-44.2383 57.6172-44.2383Q54.248-44.2383 51.4893-42.627Q48.7305-41.0156 47.0947-38.2324Q45.459-35.4492 45.459-32.0801Q45.459-28.7109 47.0947-25.9521Q48.7305-23.1934 51.5137-21.5576Q54.2969-19.9219 57.6172-19.9219ZM80.4199-46.1426Q80.4199-48.291 82.0068-49.8535Q83.5938-51.416 85.7422-51.416Q87.9395-51.416 89.502-49.8535Q91.0645-48.291 91.0645-46.1426Q91.0645-43.9453 89.502-42.4072Q87.9395-40.8691 85.7422-40.8691Q83.5938-40.8203 82.0068-42.3828Q80.4199-43.9453 80.4199-46.1426Z"/>
  </g>
  <g id="Medium-S" transform="matrix(1 0 0 1 1689.11 696)">
   <path d="M22.7051 0.830078L92.1875 0.830078Q98.584 0.830078 101.855-2.41699Q105.127-5.66406 105.127-11.9629L105.127-52.0508Q105.127-58.3984 101.855-61.6211Q98.584-64.8438 92.1875-64.8438L82.1289-64.8438Q79.8828-64.8438 78.8086-65.3809Q77.7344-65.918 76.3672-67.334L73.4375-70.5078Q71.9238-72.0215 70.1172-72.876Q68.3105-73.7305 65.3809-73.7305L49.4629-73.7305Q46.4844-73.7305 44.7021-72.876Q42.9199-72.0215 41.4551-70.5078L38.4277-67.334Q37.1094-65.918 36.0352-65.3809Q34.9609-64.8438 32.7637-64.8438L22.7051-64.8438Q16.3574-64.8438 13.0615-61.6211Q9.76562-58.3984 9.76562-52.0508L9.76562-11.9629Q9.76562-5.66406 13.0615-2.41699Q16.3574 0.830078 22.7051 0.830078ZM57.4707-11.5234Q51.7578-11.5234 47.0947-14.2822Q42.4316-17.041 39.6484-21.7285Q36.8652-26.416 36.8652-32.0801Q36.8652-37.8418 39.6484-42.5049Q42.4316-47.168 47.0947-49.9512Q51.7578-52.7344 57.4707-52.7344Q63.1836-52.7344 67.8223-49.9512Q72.4609-47.168 75.2197-42.5049Q77.9785-37.8418 77.9785-32.0801Q77.9785-26.416 75.2197-21.7285Q72.4609-17.041 67.8223-14.2822Q63.1836-11.5234 57.4707-11.5234ZM57.4707-19.043Q61.0352-19.043 64.0137-20.8008Q66.9922-22.5586 68.75-25.5127Q70.5078-28.4668 70.5078-32.0801Q70.5078-35.7422 68.75-38.7207Q66.9922-41.6992 64.0137-43.4326Q61.0352-45.166 57.4707-45.166Q53.8574-45.166 50.8789-43.4326Q47.9004-41.6992 46.1426-38.7207Q44.3848-35.7422 44.3848-32.0801Q44.3848-28.4668 46.1426-25.5127Q47.9004-22.5586 50.8789-20.8008Q53.8574-19.043 57.4707-19.043ZM80.4688-46.2402Q80.4688-48.3398 82.0312-49.8779Q83.5938-51.416 85.6934-51.416Q87.793-51.416 89.3311-49.8779Q90.8691-48.3398 90.8691-46.2402Q90.8691-44.0918 89.3311-42.5781Q87.793-41.0645 85.6934-41.0645Q83.5938-41.0156 82.0312-42.5537Q80.4688-44.0918 80.4688-46.2402Z"/>
  </g>
  <g id="Regular-S" transform="matrix(1 0 0 1 1392.62 696)">
   <path d="M22.2168 0.390625L92.2363 0.390625Q98.4375 0.390625 101.562-2.68555Q104.688-5.76172 104.688-11.9141L104.688-51.8555Q104.688-58.0078 101.562-61.0596Q98.4375-64.1113 92.2363-64.1113L81.4453-64.1113Q79.1992-64.1113 78.1494-64.6973Q77.0996-65.2832 75.8789-66.6504L72.9004-70.0195Q71.4844-71.5332 69.7021-72.4365Q67.9199-73.3398 64.9414-73.3398L49.4629-73.3398Q46.4355-73.3398 44.6777-72.4365Q42.9199-71.5332 41.5039-70.0195L38.4766-66.6504Q37.2559-65.2832 36.2061-64.6973Q35.1562-64.1113 32.959-64.1113L22.2168-64.1113Q16.0156-64.1113 12.8906-61.0596Q9.76562-58.0078 9.76562-51.8555L9.76562-11.9141Q9.76562-5.76172 12.8906-2.68555Q16.0156 0.390625 22.2168 0.390625ZM57.2266-11.3281Q51.4648-11.3281 46.7529-14.1113Q42.041-16.8945 39.2334-21.6309Q36.4258-26.3672 36.4258-32.1289Q36.4258-37.9395 39.2334-42.6514Q42.041-47.3633 46.7529-50.1709Q51.4648-52.9785 57.2266-52.9785Q62.9883-52.9785 67.7002-50.1709Q72.4121-47.3633 75.1953-42.6514Q77.9785-37.9395 77.9785-32.1289Q77.9785-26.3672 75.1953-21.6309Q72.4121-16.8945 67.7002-14.1113Q62.9883-11.3281 57.2266-11.3281ZM57.2266-17.9199Q61.1328-17.9199 64.3799-19.8242Q67.627-21.7285 69.5312-24.9512Q71.4355-28.1738 71.4355-32.1289Q71.4355-36.084 69.5312-39.3311Q67.627-42.5781 64.3799-44.4824Q61.1328-46.3867 57.2266-46.3867Q53.2715-46.3867 50.0488-44.4824Q46.8262-42.5781 44.8975-39.3311Q42.9688-36.084 42.9688-32.1289Q42.9688-28.1738 44.8975-24.9512Q46.8262-21.7285 50.0732-19.8242Q53.3203-17.9199 57.2266-17.9199ZM80.5664-46.2891Q80.5664-48.3398 82.0801-49.8291Q83.5938-51.3184 85.6445-51.3184Q87.6953-51.3184 89.1846-49.8291Q90.6738-48.3398 90.6738-46.2891Q90.6738-44.1895 89.1846-42.7246Q87.6953-41.2598 85.6445-41.2598Q83.5938-41.2109 82.0801-42.7002Q80.5664-44.1895 80.5664-46.2891Z"/>
  </g>
  <g id="Light-S" transform="matrix(1 0 0 1 1096.79 696)">
   <path d="M21.3867-0.244141L91.3086-0.244141Q97.0703-0.244141 100-3.17383Q102.93-6.10352 102.93-11.8164L102.93-51.9043Q102.93-57.6172 100-60.498Q97.0703-63.3789 91.3086-63.3789L80.2246-63.3789Q77.9297-63.3789 76.8799-63.8916Q75.8301-64.4043 74.4629-65.918L71.3867-69.3848Q69.873-70.9961 68.2129-71.7773Q66.5527-72.5586 63.6719-72.5586L48.584-72.5586Q45.7031-72.5586 44.043-71.7773Q42.3828-70.9961 40.918-69.3848L37.7441-65.918Q36.4746-64.4043 35.4004-63.8916Q34.3262-63.3789 32.0801-63.3789L21.3867-63.3789Q15.625-63.3789 12.6953-60.498Q9.76562-57.6172 9.76562-51.9043L9.76562-11.8164Q9.76562-6.10352 12.6953-3.17383Q15.625-0.244141 21.3867-0.244141ZM56.3477-11.2305Q50.5371-11.2305 45.8008-14.0381Q41.0645-16.8457 38.2324-21.6064Q35.4004-26.3672 35.4004-32.1777Q35.4004-38.0371 38.2324-42.7979Q41.0645-47.5586 45.8008-50.3662Q50.5371-53.1738 56.3477-53.1738Q62.1582-53.1738 66.9189-50.3662Q71.6797-47.5586 74.4629-42.7979Q77.2461-38.0371 77.2461-32.1777Q77.2461-26.3672 74.4385-21.6064Q71.6309-16.8457 66.8945-14.0381Q62.1582-11.2305 56.3477-11.2305ZM56.3477-16.4062Q60.6934-16.4062 64.2822-18.5303Q67.8711-20.6543 69.9951-24.2188Q72.1191-27.7832 72.1191-32.1777Q72.1191-36.5723 69.9951-40.1855Q67.8711-43.7988 64.2822-45.8984Q60.6934-47.998 56.3477-47.998Q51.9531-47.998 48.3887-45.8984Q44.8242-43.7988 42.6758-40.1855Q40.5273-36.5723 40.5273-32.1777Q40.5273-27.7832 42.6758-24.2188Q44.8242-20.6543 48.4131-18.5303Q52.002-16.4062 56.3477-16.4062ZM79.7852-46.2402Q79.7852-48.1445 81.2256-49.585Q82.666-51.0254 84.668-51.0254Q86.5723-51.0254 87.9883-49.585Q89.4043-48.1445 89.4043-46.2402Q89.4043-44.2383 87.9883-42.8223Q86.5723-41.4062 84.668-41.4062Q82.666-41.4062 81.2256-42.7979Q79.7852-44.1895 79.7852-46.2402Z"/>
  </g>
  <g id="Thin-S" transform="matrix(1 0 0 1 801.246 696)">
   <path d="M20.3125-1.12305L90.0391-1.12305Q95.2148-1.12305 97.9004-3.80859Q100.586-6.49414 100.586-11.6211L100.586-51.9043Q100.586-57.0801 97.9004-59.7412Q95.2148-62.4023 90.0391-62.4023L78.5645-62.4023Q76.2207-62.4023 75.1709-62.8174Q74.1211-63.2324 72.6562-64.8926L69.3359-68.5547Q67.7734-70.2148 66.2842-70.874Q64.7949-71.5332 62.0117-71.5332L47.4609-71.5332Q44.6777-71.5332 43.1641-70.874Q41.6504-70.2148 40.1367-68.5547L36.8164-64.8926Q35.4004-63.2812 34.3262-62.8418Q33.252-62.4023 30.9082-62.4023L20.3125-62.4023Q15.0879-62.4023 12.4268-59.7412Q9.76562-57.0801 9.76562-51.9043L9.76562-11.6211Q9.76562-6.49414 12.4268-3.80859Q15.0879-1.12305 20.3125-1.12305ZM55.1758-11.084Q49.3164-11.084 44.5068-13.916Q39.6973-16.748 36.8652-21.582Q34.0332-26.416 34.0332-32.2754Q34.0332-38.1836 36.8652-42.9932Q39.6973-47.8027 44.5068-50.6348Q49.3164-53.4668 55.1758-53.4668Q61.0352-53.4668 65.8447-50.6348Q70.6543-47.8027 73.4863-42.9932Q76.3184-38.1836 76.3184-32.2754Q76.3184-26.416 73.4619-21.582Q70.6055-16.748 65.8203-13.916Q61.0352-11.084 55.1758-11.084ZM55.1758-14.3555Q60.1074-14.3555 64.1602-16.7725Q68.2129-19.1895 70.6055-23.2422Q72.998-27.2949 72.998-32.2754Q72.998-37.2559 70.6055-41.333Q68.2129-45.4102 64.1602-47.8027Q60.1074-50.1953 55.1758-50.1953Q50.2441-50.1953 46.1914-47.8027Q42.1387-45.4102 39.7461-41.333Q37.3535-37.2559 37.3535-32.2754Q37.3535-27.2949 39.7461-23.2422Q42.1387-19.1895 46.1914-16.7725Q50.2441-14.3555 55.1758-14.3555ZM78.7598-46.1914Q78.7598-47.998 80.127-49.3408Q81.4941-50.6836 83.3496-50.6836Q85.1074-50.6836 86.4502-49.3408Q87.793-47.998 87.793-46.1914Q87.793-44.3359 86.4502-42.9932Q85.1074-41.6504 83.3496-41.6992Q81.4941-41.748 80.127-43.0176Q78.7598-44.2871 78.7598-46.1914Z"/>
  </g>
  <g id="Ultralight-S" transform="matrix(1 0 0 1 505.146 696)">
   <path d="M19.7754-1.5625L89.4043-1.5625Q94.2871-1.5625 96.8262-4.15039Q99.3652-6.73828 99.3652-11.5723L99.3652-51.9531Q99.3652-56.7871 96.8262-59.3506Q94.2871-61.9141 89.4043-61.9141L77.7344-61.9141Q75.3418-61.9141 74.292-62.2803Q73.2422-62.6465 71.6797-64.4043L68.3105-68.1641Q66.6992-69.873 65.2832-70.459Q63.8672-71.0449 61.1816-71.0449L46.875-71.0449Q44.1895-71.0449 42.749-70.459Q41.3086-69.873 39.7461-68.1641L36.3281-64.4043Q34.8633-62.6953 33.7891-62.3047Q32.7148-61.9141 30.3223-61.9141L19.7754-61.9141Q14.8438-61.9141 12.3047-59.3506Q9.76562-56.7871 9.76562-51.9531L9.76562-11.5723Q9.76562-6.73828 12.3047-4.15039Q14.8438-1.5625 19.7754-1.5625ZM54.5898-10.9863Q48.6816-10.9863 43.8721-13.8428Q39.0625-16.6992 36.2061-21.5576Q33.3496-26.416 33.3496-32.3242Q33.3496-38.2812 36.2061-43.0908Q39.0625-47.9004 43.8721-50.7568Q48.6816-53.6133 54.5898-53.6133Q60.498-53.6133 65.332-50.7568Q70.166-47.9004 72.998-43.0908Q75.8301-38.2812 75.8301-32.3242Q75.8301-26.416 72.9736-21.5576Q70.1172-16.6992 65.2832-13.8428Q60.4492-10.9863 54.5898-10.9863ZM54.5898-13.3301Q59.8145-13.3301 64.1113-15.8936Q68.4082-18.457 70.9473-22.7539Q73.4863-27.0508 73.4863-32.3242Q73.4863-37.5977 70.9473-41.8945Q68.4082-46.1914 64.1113-48.7305Q59.8145-51.2695 54.5898-51.2695Q49.3652-51.2695 45.0684-48.7305Q40.7715-46.1914 38.2324-41.8945Q35.6934-37.5977 35.6934-32.3242Q35.6934-27.0508 38.2324-22.7539Q40.7715-18.457 45.0684-15.8936Q49.3652-13.3301 54.5898-13.3301ZM78.2227-46.1426Q78.2227-47.8516 79.541-49.1699Q80.8594-50.4883 82.666-50.4883Q84.375-50.4883 85.6445-49.1699Q86.9141-47.8516 86.9141-46.1426Q86.9141-44.3848 85.6445-43.0664Q84.375-41.748 82.666-41.7969Q80.8594-41.8945 79.541-43.0908Q78.2227-44.2871 78.2227-46.1426Z"/>
  </g>
 </g>
</svg>
