<?xml version="1.0" encoding="UTF-8"?>
<!--Generator: Apple Native CoreSVG 175-->
<!DOCTYPE svg
PUBLIC "-//W3C//DTD SVG 1.1//EN"
       "http://www.w3.org/Graphics/SVG/1.1/DTD/svg11.dtd">
<svg version="1.1" xmlns="http://www.w3.org/2000/svg" xmlns:xlink="http://www.w3.org/1999/xlink" width="3300" height="2200">
 <!--glyph: "uni1003AA.medium", point size: 100.0, font version: "17.0d11e1", template writer version: "65.1"-->
 <style>.multicolor-0:systemRedColor {fill:#FF3B30;opacity:1.0}
.multicolor-1:white {fill:#FFFFFF;opacity:1.0}

.SFSymbolsPreviewFF3B30 {fill:#FF3B30;opacity:1.0}
.SFSymbolsPreviewFFFFFF {fill:#FFFFFF;opacity:1.0}
</style>
 <g id="Notes">
  <rect height="2200" id="artboard" style="fill:white;opacity:1" width="3300" x="0" y="0"/>
  <line style="fill:none;stroke:black;opacity:1;stroke-width:0.5;" x1="263" x2="3036" y1="292" y2="292"/>
  <text style="stroke:none;fill:black;font-family:sans-serif;font-size:13;font-weight:bold;" transform="matrix(1 0 0 1 263 322)">Weight/Scale Variations</text>
  <text style="stroke:none;fill:black;font-family:sans-serif;font-size:13;text-anchor:middle;" transform="matrix(1 0 0 1 559.711 322)">Ultralight</text>
  <text style="stroke:none;fill:black;font-family:sans-serif;font-size:13;text-anchor:middle;" transform="matrix(1 0 0 1 856.422 322)">Thin</text>
  <text style="stroke:none;fill:black;font-family:sans-serif;font-size:13;text-anchor:middle;" transform="matrix(1 0 0 1 1153.13 322)">Light</text>
  <text style="stroke:none;fill:black;font-family:sans-serif;font-size:13;text-anchor:middle;" transform="matrix(1 0 0 1 1449.84 322)">Regular</text>
  <text style="stroke:none;fill:black;font-family:sans-serif;font-size:13;text-anchor:middle;" transform="matrix(1 0 0 1 1746.56 322)">Medium</text>
  <text style="stroke:none;fill:black;font-family:sans-serif;font-size:13;text-anchor:middle;" transform="matrix(1 0 0 1 2043.27 322)">Semibold</text>
  <text style="stroke:none;fill:black;font-family:sans-serif;font-size:13;text-anchor:middle;" transform="matrix(1 0 0 1 2339.98 322)">Bold</text>
  <text style="stroke:none;fill:black;font-family:sans-serif;font-size:13;text-anchor:middle;" transform="matrix(1 0 0 1 2636.69 322)">Heavy</text>
  <text style="stroke:none;fill:black;font-family:sans-serif;font-size:13;text-anchor:middle;" transform="matrix(1 0 0 1 2933.4 322)">Black</text>
  <line style="fill:none;stroke:black;opacity:1;stroke-width:0.5;" x1="263" x2="3036" y1="1903" y2="1903"/>
  <g transform="matrix(1 0 0 1 263 1933)">
   <path d="M9.24805 0.830078Q10.8691 0.830078 12.2949 0.214844Q13.7207-0.400391 14.8096-1.49414Q15.8984-2.58789 16.5186-4.01367Q17.1387-5.43945 17.1387-7.05078Q17.1387-8.66211 16.5186-10.0879Q15.8984-11.5137 14.8047-12.6074Q13.7109-13.7012 12.2852-14.3164Q10.8594-14.9316 9.23828-14.9316Q7.62695-14.9316 6.20117-14.3164Q4.77539-13.7012 3.69141-12.6074Q2.60742-11.5137 1.9873-10.0879Q1.36719-8.66211 1.36719-7.05078Q1.36719-5.43945 1.9873-4.01367Q2.60742-2.58789 3.69629-1.49414Q4.78516-0.400391 6.21094 0.214844Q7.63672 0.830078 9.24805 0.830078ZM9.24805-0.654297Q7.91992-0.654297 6.7627-1.14746Q5.60547-1.64062 4.73145-2.51953Q3.85742-3.39844 3.36426-4.56055Q2.87109-5.72266 2.87109-7.05078Q2.87109-8.37891 3.35938-9.54102Q3.84766-10.7031 4.72168-11.582Q5.5957-12.4609 6.75293-12.9541Q7.91016-13.4473 9.23828-13.4473Q10.5762-13.4473 11.7334-12.9541Q12.8906-12.4609 13.7695-11.582Q14.6484-10.7031 15.1465-9.54102Q15.6445-8.37891 15.6445-7.05078Q15.6445-5.72266 15.1514-4.56055Q14.6582-3.39844 13.7842-2.51953Q12.9102-1.64062 11.748-1.14746Q10.5859-0.654297 9.24805-0.654297ZM5.6543-7.05078Q5.6543-6.72852 5.85938-6.52832Q6.06445-6.32812 6.40625-6.32812L8.51562-6.32812L8.51562-4.20898Q8.51562-3.88672 8.71094-3.67676Q8.90625-3.4668 9.23828-3.4668Q9.56055-3.4668 9.77051-3.67676Q9.98047-3.88672 9.98047-4.20898L9.98047-6.32812L12.0898-6.32812Q12.4219-6.32812 12.627-6.52832Q12.832-6.72852 12.832-7.05078Q12.832-7.38281 12.627-7.58789Q12.4219-7.79297 12.0898-7.79297L9.98047-7.79297L9.98047-9.90234Q9.98047-10.2344 9.77051-10.4443Q9.56055-10.6543 9.23828-10.6543Q8.90625-10.6543 8.71094-10.4443Q8.51562-10.2344 8.51562-9.90234L8.51562-7.79297L6.40625-7.79297Q6.06445-7.79297 5.85938-7.58789Q5.6543-7.38281 5.6543-7.05078Z"/>
  </g>
  <g transform="matrix(1 0 0 1 281.867 1933)">
   <path d="M11.709 2.91016Q13.75 2.91016 15.5518 2.12891Q17.3535 1.34766 18.7305-0.0292969Q20.1074-1.40625 20.8887-3.20801Q21.6699-5.00977 21.6699-7.05078Q21.6699-9.0918 20.8887-10.8936Q20.1074-12.6953 18.7305-14.0723Q17.3535-15.4492 15.5469-16.2305Q13.7402-17.0117 11.6992-17.0117Q9.6582-17.0117 7.85645-16.2305Q6.05469-15.4492 4.68262-14.0723Q3.31055-12.6953 2.5293-10.8936Q1.74805-9.0918 1.74805-7.05078Q1.74805-5.00977 2.5293-3.20801Q3.31055-1.40625 4.6875-0.0292969Q6.06445 1.34766 7.86621 2.12891Q9.66797 2.91016 11.709 2.91016ZM11.709 1.25Q9.98047 1.25 8.47656 0.605469Q6.97266-0.0390625 5.83496-1.17676Q4.69727-2.31445 4.05762-3.81836Q3.41797-5.32227 3.41797-7.05078Q3.41797-8.7793 4.05762-10.2832Q4.69727-11.7871 5.83008-12.9297Q6.96289-14.0723 8.4668-14.7119Q9.9707-15.3516 11.6992-15.3516Q13.4277-15.3516 14.9316-14.7119Q16.4355-14.0723 17.5781-12.9297Q18.7207-11.7871 19.3652-10.2832Q20.0098-8.7793 20.0098-7.05078Q20.0098-5.32227 19.3701-3.81836Q18.7305-2.31445 17.5928-1.17676Q16.4551-0.0390625 14.9463 0.605469Q13.4375 1.25 11.709 1.25ZM7.17773-7.05078Q7.17773-6.69922 7.41211-6.47461Q7.64648-6.25 8.01758-6.25L10.8887-6.25L10.8887-3.36914Q10.8887-2.99805 11.1133-2.76855Q11.3379-2.53906 11.6895-2.53906Q12.0605-2.53906 12.29-2.76855Q12.5195-2.99805 12.5195-3.36914L12.5195-6.25L15.4004-6.25Q15.7715-6.25 16.001-6.47461Q16.2305-6.69922 16.2305-7.05078Q16.2305-7.42188 16.001-7.65137Q15.7715-7.88086 15.4004-7.88086L12.5195-7.88086L12.5195-10.752Q12.5195-11.1328 12.29-11.3623Q12.0605-11.5918 11.6895-11.5918Q11.3379-11.5918 11.1133-11.3574Q10.8887-11.123 10.8887-10.752L10.8887-7.88086L8.01758-7.88086Q7.63672-7.88086 7.40723-7.65137Q7.17773-7.42188 7.17773-7.05078Z"/>
  </g>
  <g transform="matrix(1 0 0 1 305.646 1933)">
   <path d="M14.9707 5.66406Q17.0605 5.66406 18.96 5.01465Q20.8594 4.36523 22.4512 3.19336Q24.043 2.02148 25.2197 0.429688Q26.3965-1.16211 27.0459-3.06641Q27.6953-4.9707 27.6953-7.05078Q27.6953-9.14062 27.0459-11.04Q26.3965-12.9395 25.2197-14.5312Q24.043-16.123 22.4512-17.2998Q20.8594-18.4766 18.9551-19.126Q17.0508-19.7754 14.9609-19.7754Q12.8711-19.7754 10.9717-19.126Q9.07227-18.4766 7.48535-17.2998Q5.89844-16.123 4.72168-14.5312Q3.54492-12.9395 2.90039-11.04Q2.25586-9.14062 2.25586-7.05078Q2.25586-4.9707 2.90527-3.06641Q3.55469-1.16211 4.72656 0.429688Q5.89844 2.02148 7.49023 3.19336Q9.08203 4.36523 10.9814 5.01465Q12.8809 5.66406 14.9707 5.66406ZM14.9707 3.84766Q13.1641 3.84766 11.5283 3.2959Q9.89258 2.74414 8.53516 1.74805Q7.17773 0.751953 6.17676-0.610352Q5.17578-1.97266 4.62891-3.6084Q4.08203-5.24414 4.08203-7.05078Q4.08203-8.86719 4.62891-10.5029Q5.17578-12.1387 6.17188-13.501Q7.16797-14.8633 8.52539-15.8594Q9.88281-16.8555 11.5186-17.4023Q13.1543-17.9492 14.9609-17.9492Q16.7773-17.9492 18.4131-17.4023Q20.0488-16.8555 21.4111-15.8594Q22.7734-14.8633 23.7695-13.501Q24.7656-12.1387 25.3174-10.5029Q25.8691-8.86719 25.8691-7.05078Q25.8789-5.24414 25.332-3.6084Q24.7852-1.97266 23.7842-0.610352Q22.7832 0.751953 21.4209 1.74805Q20.0586 2.74414 18.4229 3.2959Q16.7871 3.84766 14.9707 3.84766ZM9.19922-7.05078Q9.19922-6.66992 9.45801-6.4209Q9.7168-6.17188 10.1172-6.17188L14.0625-6.17188L14.0625-2.2168Q14.0625-1.81641 14.3115-1.55762Q14.5605-1.29883 14.9512-1.29883Q15.3516-1.29883 15.6104-1.55273Q15.8691-1.80664 15.8691-2.2168L15.8691-6.17188L19.8242-6.17188Q20.2246-6.17188 20.4785-6.4209Q20.7324-6.66992 20.7324-7.05078Q20.7324-7.46094 20.4785-7.71484Q20.2246-7.96875 19.8242-7.96875L15.8691-7.96875L15.8691-11.9141Q15.8691-12.3242 15.6104-12.583Q15.3516-12.8418 14.9512-12.8418Q14.5605-12.8418 14.3115-12.583Q14.0625-12.3242 14.0625-11.9141L14.0625-7.96875L10.1172-7.96875Q9.70703-7.96875 9.45312-7.71484Q9.19922-7.46094 9.19922-7.05078Z"/>
  </g>
  <text style="stroke:none;fill:black;font-family:sans-serif;font-size:13;font-weight:bold;" transform="matrix(1 0 0 1 263 1953)">Design Variations</text>
  <text style="stroke:none;fill:black;font-family:sans-serif;font-size:13;" transform="matrix(1 0 0 1 263 1971)">Symbols are supported in up to nine weights and three scales.</text>
  <text style="stroke:none;fill:black;font-family:sans-serif;font-size:13;" transform="matrix(1 0 0 1 263 1989)">For optimal layout with text and other symbols, vertically align</text>
  <text style="stroke:none;fill:black;font-family:sans-serif;font-size:13;" transform="matrix(1 0 0 1 263 2007)">symbols with the adjacent text.</text>
  <line style="fill:none;stroke:#00AEEF;stroke-width:0.5;opacity:1.0;" x1="776" x2="776" y1="1919" y2="1933"/>
  <g transform="matrix(1 0 0 1 776 1933)">
   <path d="M3.31055 0.15625Q3.70117 0.15625 3.91602-0.00976562Q4.13086-0.175781 4.26758-0.585938L5.52734-4.0332L11.2891-4.0332L12.5488-0.585938Q12.6855-0.175781 12.9004-0.00976562Q13.1152 0.15625 13.4961 0.15625Q13.8867 0.15625 14.1162-0.0585938Q14.3457-0.273438 14.3457-0.644531Q14.3457-0.869141 14.2383-1.17188L9.6582-13.3691Q9.48242-13.8184 9.17969-14.043Q8.87695-14.2676 8.4082-14.2676Q7.5-14.2676 7.17773-13.3789L2.59766-1.16211Q2.49023-0.859375 2.49023-0.634766Q2.49023-0.263672 2.70996-0.0537109Q2.92969 0.15625 3.31055 0.15625ZM6.00586-5.51758L8.37891-12.0898L8.42773-12.0898L10.8008-5.51758Z"/>
  </g>
  <line style="fill:none;stroke:#00AEEF;stroke-width:0.5;opacity:1.0;" x1="793.197" x2="793.197" y1="1919" y2="1933"/>
  <text style="stroke:none;fill:black;font-family:sans-serif;font-size:13;font-weight:bold;" transform="matrix(1 0 0 1 776 1953)">Margins</text>
  <text style="stroke:none;fill:black;font-family:sans-serif;font-size:13;" transform="matrix(1 0 0 1 776 1971)">Leading and trailing margins on the left and right side of each symbol</text>
  <text style="stroke:none;fill:black;font-family:sans-serif;font-size:13;" transform="matrix(1 0 0 1 776 1989)">can be adjusted by modifying the x-location of the margin guidelines.</text>
  <text style="stroke:none;fill:black;font-family:sans-serif;font-size:13;" transform="matrix(1 0 0 1 776 2007)">Modifications are automatically applied proportionally to all</text>
  <text style="stroke:none;fill:black;font-family:sans-serif;font-size:13;" transform="matrix(1 0 0 1 776 2025)">scales and weights.</text>
  <g transform="matrix(1 0 0 1 1289 1933)">
   <path d="M2.8418 1.86523L4.54102 3.57422Q5.18555 4.22852 5.90332 4.17969Q6.62109 4.13086 7.31445 3.35938L18.0078-8.42773L17.041-9.4043L6.42578 2.27539Q6.16211 2.57812 5.89355 2.61719Q5.625 2.65625 5.27344 2.30469L4.10156 1.14258Q3.75 0.791016 3.79395 0.522461Q3.83789 0.253906 4.14062-0.0195312L15.6152-10.8203L14.6387-11.7871L3.04688-0.898438Q2.30469-0.214844 2.25098 0.498047Q2.19727 1.21094 2.8418 1.86523ZM9.25781-16.3281Q8.94531-16.0254 8.90625-15.6348Q8.86719-15.2441 9.04297-14.9512Q9.21875-14.6777 9.55566-14.541Q9.89258-14.4043 10.3809-14.5215Q11.4746-14.7754 12.5977-14.7314Q13.7207-14.6875 14.7949-13.9844L14.209-12.5293Q13.9551-11.9043 14.0674-11.4404Q14.1797-10.9766 14.5801-10.5664L16.875-8.25195Q17.2363-7.88086 17.5781-7.82227Q17.9199-7.76367 18.3398-7.8418L19.4043-8.03711L20.0684-7.36328L20.0293-6.80664Q20-6.43555 20.1221-6.12305Q20.2441-5.81055 20.6055-5.44922L21.3672-4.70703Q21.7285-4.3457 22.1533-4.33105Q22.5781-4.31641 22.9297-4.66797L25.8398-7.58789Q26.1914-7.93945 26.1816-8.35449Q26.1719-8.76953 25.8105-9.13086L25.0391-9.89258Q24.6875-10.2539 24.3799-10.3857Q24.0723-10.5176 23.7109-10.4883L23.1348-10.4395L22.4902-11.0742L22.7344-12.1973Q22.832-12.6172 22.6953-12.9834Q22.5586-13.3496 22.1191-13.7891L19.9219-15.9766Q18.6719-17.2168 17.2607-17.8369Q15.8496-18.457 14.4189-18.4814Q12.9883-18.5059 11.665-17.959Q10.3418-17.4121 9.25781-16.3281ZM10.752-15.957Q11.6602-16.6211 12.7002-16.9043Q13.7402-17.1875 14.8047-17.085Q15.8691-16.9824 16.8701-16.5137Q17.8711-16.0449 18.7012-15.2051L21.1328-12.793Q21.3086-12.6172 21.3525-12.4512Q21.3965-12.2852 21.3379-12.0312L21.0156-10.5469L22.5195-9.0625L23.5059-9.12109Q23.6914-9.13086 23.7891-9.09668Q23.8867-9.0625 24.0332-8.91602L24.6094-8.33984L22.168-5.89844L21.5918-6.47461Q21.4453-6.62109 21.4062-6.71875Q21.3672-6.81641 21.377-7.01172L21.4453-7.98828L19.9512-9.47266L18.4277-9.21875Q18.1836-9.16992 18.042-9.2041Q17.9004-9.23828 17.7148-9.41406L15.7129-11.416Q15.5176-11.5918 15.4932-11.7529Q15.4688-11.9141 15.5859-12.1875L16.4648-14.2773Q15.293-15.3711 13.8281-15.791Q12.3633-16.2109 10.8398-15.7617Q10.7227-15.7324 10.6885-15.8057Q10.6543-15.8789 10.752-15.957Z"/>
  </g>
  <text style="stroke:none;fill:black;font-family:sans-serif;font-size:13;font-weight:bold;" transform="matrix(1 0 0 1 1289 1953)">Exporting</text>
  <text style="stroke:none;fill:black;font-family:sans-serif;font-size:13;" transform="matrix(1 0 0 1 1289 1971)">Symbols should be outlined when exporting to ensure the</text>
  <text style="stroke:none;fill:black;font-family:sans-serif;font-size:13;" transform="matrix(1 0 0 1 1289 1989)">design is preserved when submitting to Xcode.</text>
  <text id="template-version" style="stroke:none;fill:black;font-family:sans-serif;font-size:13;text-anchor:end;" transform="matrix(1 0 0 1 3036 1933)">Template v.3.0</text>
  <text style="stroke:none;fill:black;font-family:sans-serif;font-size:13;text-anchor:end;" transform="matrix(1 0 0 1 3036 1951)">Requires Xcode 13 or greater</text>
  <text id="descriptive-name" style="stroke:none;fill:black;font-family:sans-serif;font-size:13;text-anchor:end;" transform="matrix(1 0 0 1 3036 1969)">Generated from mappin</text>
  <text style="stroke:none;fill:black;font-family:sans-serif;font-size:13;text-anchor:end;" transform="matrix(1 0 0 1 3036 1987)">Typeset at 100 points</text>
  <text style="stroke:none;fill:black;font-family:sans-serif;font-size:13;" transform="matrix(1 0 0 1 263 726)">Small</text>
  <text style="stroke:none;fill:black;font-family:sans-serif;font-size:13;" transform="matrix(1 0 0 1 263 1156)">Medium</text>
  <text style="stroke:none;fill:black;font-family:sans-serif;font-size:13;" transform="matrix(1 0 0 1 263 1586)">Large</text>
 </g>
 <g id="Guides">
  <g id="H-reference" style="fill:#27AAE1;stroke:none;" transform="matrix(1 0 0 1 339 696)">
   <path d="M0.976562 0L3.66211 0L29.3457-67.1387L30.0293-67.1387L30.0293-70.459L28.125-70.459ZM11.6699-24.4629L46.9727-24.4629L46.2402-26.709L12.4512-26.709ZM55.127 0L57.7637 0L30.6152-70.459L29.4434-70.459L29.4434-67.1387Z"/>
  </g>
  <line id="Baseline-S" style="fill:none;stroke:#27AAE1;opacity:1;stroke-width:0.5;" x1="263" x2="3036" y1="696" y2="696"/>
  <line id="Capline-S" style="fill:none;stroke:#27AAE1;opacity:1;stroke-width:0.5;" x1="263" x2="3036" y1="625.541" y2="625.541"/>
  <g id="H-reference" style="fill:#27AAE1;stroke:none;" transform="matrix(1 0 0 1 339 1126)">
   <path d="M0.976562 0L3.66211 0L29.3457-67.1387L30.0293-67.1387L30.0293-70.459L28.125-70.459ZM11.6699-24.4629L46.9727-24.4629L46.2402-26.709L12.4512-26.709ZM55.127 0L57.7637 0L30.6152-70.459L29.4434-70.459L29.4434-67.1387Z"/>
  </g>
  <line id="Baseline-M" style="fill:none;stroke:#27AAE1;opacity:1;stroke-width:0.5;" x1="263" x2="3036" y1="1126" y2="1126"/>
  <line id="Capline-M" style="fill:none;stroke:#27AAE1;opacity:1;stroke-width:0.5;" x1="263" x2="3036" y1="1055.54" y2="1055.54"/>
  <g id="H-reference" style="fill:#27AAE1;stroke:none;" transform="matrix(1 0 0 1 339 1556)">
   <path d="M0.976562 0L3.66211 0L29.3457-67.1387L30.0293-67.1387L30.0293-70.459L28.125-70.459ZM11.6699-24.4629L46.9727-24.4629L46.2402-26.709L12.4512-26.709ZM55.127 0L57.7637 0L30.6152-70.459L29.4434-70.459L29.4434-67.1387Z"/>
  </g>
  <line id="Baseline-L" style="fill:none;stroke:#27AAE1;opacity:1;stroke-width:0.5;" x1="263" x2="3036" y1="1556" y2="1556"/>
  <line id="Capline-L" style="fill:none;stroke:#27AAE1;opacity:1;stroke-width:0.5;" x1="263" x2="3036" y1="1485.54" y2="1485.54"/>
  <line id="left-margin-Ultralight-S" style="fill:none;stroke:#00AEEF;stroke-width:0.5;opacity:1.0;" x1="529.804" x2="529.804" y1="600.785" y2="720.121"/>
  <line id="right-margin-Ultralight-S" style="fill:none;stroke:#00AEEF;stroke-width:0.5;opacity:1.0;" x1="589.618" x2="589.618" y1="600.785" y2="720.121"/>
  <line id="left-margin-Thin-S" style="fill:none;stroke:#00AEEF;stroke-width:0.5;opacity:1.0;" x1="824.586" x2="824.586" y1="600.785" y2="720.121"/>
  <line id="right-margin-Thin-S" style="fill:none;stroke:#00AEEF;stroke-width:0.5;opacity:1.0;" x1="888.258" x2="888.258" y1="600.785" y2="720.121"/>
  <line id="left-margin-Light-S" style="fill:none;stroke:#00AEEF;stroke-width:0.5;opacity:1.0;" x1="1117.54" x2="1117.54" y1="600.785" y2="720.121"/>
  <line id="right-margin-Light-S" style="fill:none;stroke:#00AEEF;stroke-width:0.5;opacity:1.0;" x1="1188.73" x2="1188.73" y1="600.785" y2="720.121"/>
  <line id="left-margin-Regular-S" style="fill:none;stroke:#00AEEF;stroke-width:0.5;opacity:1.0;" x1="1411.42" x2="1411.42" y1="600.785" y2="720.121"/>
  <line id="right-margin-Regular-S" style="fill:none;stroke:#00AEEF;stroke-width:0.5;opacity:1.0;" x1="1488.27" x2="1488.27" y1="600.785" y2="720.121"/>
  <line id="left-margin-Medium-S" style="fill:none;stroke:#00AEEF;stroke-width:0.5;opacity:1.0;" x1="1707.86" x2="1707.86" y1="600.785" y2="720.121"/>
  <line id="right-margin-Medium-S" style="fill:none;stroke:#00AEEF;stroke-width:0.5;opacity:1.0;" x1="1785.25" x2="1785.25" y1="600.785" y2="720.121"/>
  <line id="left-margin-Semibold-S" style="fill:none;stroke:#00AEEF;stroke-width:0.5;opacity:1.0;" x1="2004.38" x2="2004.38" y1="600.785" y2="720.121"/>
  <line id="right-margin-Semibold-S" style="fill:none;stroke:#00AEEF;stroke-width:0.5;opacity:1.0;" x1="2082.16" x2="2082.16" y1="600.785" y2="720.121"/>
  <line id="left-margin-Bold-S" style="fill:none;stroke:#00AEEF;stroke-width:0.5;opacity:1.0;" x1="2300.82" x2="2300.82" y1="600.785" y2="720.121"/>
  <line id="right-margin-Bold-S" style="fill:none;stroke:#00AEEF;stroke-width:0.5;opacity:1.0;" x1="2379.14" x2="2379.14" y1="600.785" y2="720.121"/>
  <line id="left-margin-Heavy-S" style="fill:none;stroke:#00AEEF;stroke-width:0.5;opacity:1.0;" x1="2597.14" x2="2597.14" y1="600.785" y2="720.121"/>
  <line id="right-margin-Heavy-S" style="fill:none;stroke:#00AEEF;stroke-width:0.5;opacity:1.0;" x1="2676.24" x2="2676.24" y1="600.785" y2="720.121"/>
  <line id="left-margin-Black-S" style="fill:none;stroke:#00AEEF;stroke-width:0.5;opacity:1.0;" x1="2893.51" x2="2893.51" y1="600.785" y2="720.121"/>
  <line id="right-margin-Black-S" style="fill:none;stroke:#00AEEF;stroke-width:0.5;opacity:1.0;" x1="2973.29" x2="2973.29" y1="600.785" y2="720.121"/>
  <line id="left-margin-Ultralight-M" style="fill:none;stroke:#00AEEF;stroke-width:0.5;opacity:1.0;" x1="522.236" x2="522.236" y1="1030.79" y2="1150.12"/>
  <line id="right-margin-Ultralight-M" style="fill:none;stroke:#00AEEF;stroke-width:0.5;opacity:1.0;" x1="597.187" x2="597.187" y1="1030.79" y2="1150.12"/>
  <line id="left-margin-Thin-M" style="fill:none;stroke:#00AEEF;stroke-width:0.5;opacity:1.0;" x1="816.774" x2="816.774" y1="1030.79" y2="1150.12"/>
  <line id="right-margin-Thin-M" style="fill:none;stroke:#00AEEF;stroke-width:0.5;opacity:1.0;" x1="896.071" x2="896.071" y1="1030.79" y2="1150.12"/>
  <line id="left-margin-Light-M" style="fill:none;stroke:#00AEEF;stroke-width:0.5;opacity:1.0;" x1="1109.24" x2="1109.24" y1="1030.79" y2="1150.12"/>
  <line id="right-margin-Light-M" style="fill:none;stroke:#00AEEF;stroke-width:0.5;opacity:1.0;" x1="1197.03" x2="1197.03" y1="1030.79" y2="1150.12"/>
  <line id="left-margin-Regular-M" style="fill:none;stroke:#00AEEF;stroke-width:0.5;opacity:1.0;" x1="1402.75" x2="1402.75" y1="1030.79" y2="1150.12"/>
  <line id="right-margin-Regular-M" style="fill:none;stroke:#00AEEF;stroke-width:0.5;opacity:1.0;" x1="1496.94" x2="1496.94" y1="1030.79" y2="1150.12"/>
  <line id="left-margin-Medium-M" style="fill:none;stroke:#00AEEF;stroke-width:0.5;opacity:1.0;" x1="1698.8" x2="1698.8" y1="1030.79" y2="1150.12"/>
  <line id="right-margin-Medium-M" style="fill:none;stroke:#00AEEF;stroke-width:0.5;opacity:1.0;" x1="1794.31" x2="1794.31" y1="1030.79" y2="1150.12"/>
  <line id="left-margin-Semibold-M" style="fill:none;stroke:#00AEEF;stroke-width:0.5;opacity:1.0;" x1="1995" x2="1995" y1="1030.79" y2="1150.12"/>
  <line id="right-margin-Semibold-M" style="fill:none;stroke:#00AEEF;stroke-width:0.5;opacity:1.0;" x1="2091.53" x2="2091.53" y1="1030.79" y2="1150.12"/>
  <line id="left-margin-Bold-M" style="fill:none;stroke:#00AEEF;stroke-width:0.5;opacity:1.0;" x1="2291.03" x2="2291.03" y1="1030.79" y2="1150.12"/>
  <line id="right-margin-Bold-M" style="fill:none;stroke:#00AEEF;stroke-width:0.5;opacity:1.0;" x1="2388.93" x2="2388.93" y1="1030.79" y2="1150.12"/>
  <line id="left-margin-Heavy-M" style="fill:none;stroke:#00AEEF;stroke-width:0.5;opacity:1.0;" x1="2586.76" x2="2586.76" y1="1030.79" y2="1150.12"/>
  <line id="right-margin-Heavy-M" style="fill:none;stroke:#00AEEF;stroke-width:0.5;opacity:1.0;" x1="2686.62" x2="2686.62" y1="1030.79" y2="1150.12"/>
  <line id="left-margin-Black-M" style="fill:none;stroke:#00AEEF;stroke-width:0.5;opacity:1.0;" x1="2882.59" x2="2882.59" y1="1030.79" y2="1150.12"/>
  <line id="right-margin-Black-M" style="fill:none;stroke:#00AEEF;stroke-width:0.5;opacity:1.0;" x1="2984.21" x2="2984.21" y1="1030.79" y2="1150.12"/>
  <line id="left-margin-Ultralight-L" style="fill:none;stroke:#00AEEF;stroke-width:0.5;opacity:1.0;" x1="512.323" x2="512.323" y1="1460.79" y2="1580.12"/>
  <line id="right-margin-Ultralight-L" style="fill:none;stroke:#00AEEF;stroke-width:0.5;opacity:1.0;" x1="607.099" x2="607.099" y1="1460.79" y2="1580.12"/>
  <line id="left-margin-Thin-L" style="fill:none;stroke:#00AEEF;stroke-width:0.5;opacity:1.0;" x1="806.618" x2="806.618" y1="1460.79" y2="1580.12"/>
  <line id="right-margin-Thin-L" style="fill:none;stroke:#00AEEF;stroke-width:0.5;opacity:1.0;" x1="906.227" x2="906.227" y1="1460.79" y2="1580.12"/>
  <line id="left-margin-Light-L" style="fill:none;stroke:#00AEEF;stroke-width:0.5;opacity:1.0;" x1="1098.59" x2="1098.59" y1="1460.79" y2="1580.12"/>
  <line id="right-margin-Light-L" style="fill:none;stroke:#00AEEF;stroke-width:0.5;opacity:1.0;" x1="1207.67" x2="1207.67" y1="1460.79" y2="1580.12"/>
  <line id="left-margin-Regular-L" style="fill:none;stroke:#00AEEF;stroke-width:0.5;opacity:1.0;" x1="1391.71" x2="1391.71" y1="1460.79" y2="1580.12"/>
  <line id="right-margin-Regular-L" style="fill:none;stroke:#00AEEF;stroke-width:0.5;opacity:1.0;" x1="1507.97" x2="1507.97" y1="1460.79" y2="1580.12"/>
  <line id="left-margin-Medium-L" style="fill:none;stroke:#00AEEF;stroke-width:0.5;opacity:1.0;" x1="1687.13" x2="1687.13" y1="1460.79" y2="1580.12"/>
  <line id="right-margin-Medium-L" style="fill:none;stroke:#00AEEF;stroke-width:0.5;opacity:1.0;" x1="1805.98" x2="1805.98" y1="1460.79" y2="1580.12"/>
  <line id="left-margin-Semibold-L" style="fill:none;stroke:#00AEEF;stroke-width:0.5;opacity:1.0;" x1="1982.87" x2="1982.87" y1="1460.79" y2="1580.12"/>
  <line id="right-margin-Semibold-L" style="fill:none;stroke:#00AEEF;stroke-width:0.5;opacity:1.0;" x1="2103.67" x2="2103.67" y1="1460.79" y2="1580.12"/>
  <line id="left-margin-Bold-L" style="fill:none;stroke:#00AEEF;stroke-width:0.5;opacity:1.0;" x1="2278.28" x2="2278.28" y1="1460.79" y2="1580.12"/>
  <line id="right-margin-Bold-L" style="fill:none;stroke:#00AEEF;stroke-width:0.5;opacity:1.0;" x1="2401.67" x2="2401.67" y1="1460.79" y2="1580.12"/>
  <line id="left-margin-Heavy-L" style="fill:none;stroke:#00AEEF;stroke-width:0.5;opacity:1.0;" x1="2573.11" x2="2573.11" y1="1460.79" y2="1580.12"/>
  <line id="right-margin-Heavy-L" style="fill:none;stroke:#00AEEF;stroke-width:0.5;opacity:1.0;" x1="2700.26" x2="2700.26" y1="1460.79" y2="1580.12"/>
  <line id="left-margin-Black-L" style="fill:none;stroke:#00AEEF;stroke-width:0.5;opacity:1.0;" x1="2868.14" x2="2868.14" y1="1460.79" y2="1580.12"/>
  <line id="right-margin-Black-L" style="fill:none;stroke:#00AEEF;stroke-width:0.5;opacity:1.0;" x1="2998.66" x2="2998.66" y1="1460.79" y2="1580.12"/>
 </g>
 <g id="Symbols">
  <g id="Black-L" transform="matrix(1 0 0 1 2868.14 1556)">
   <path class="multicolor-0:systemRedColor SFSymbolsPreviewFF3B30" d="M35.6934-82.4707Q35.6934-75.9277 38.3057-70.2637Q40.918-64.5996 45.459-60.4492Q50-56.2988 55.9082-54.2969L55.9082 6.49414Q55.9082 11.377 56.9336 15.9424Q57.959 20.5078 59.4971 24.1455Q61.0352 27.7832 62.5977 29.8828Q64.1602 31.9824 65.2832 31.9824Q66.3574 31.9824 67.9199 29.8828Q69.4824 27.7832 70.9961 24.1699Q72.5098 20.5566 73.5107 15.9912Q74.5117 11.4258 74.5117 6.49414L74.5117-54.2969Q80.4688-56.25 85.0342-60.4004Q89.5996-64.5508 92.2119-70.2393Q94.8242-75.9277 94.8242-82.4707Q94.8242-88.623 92.5537-93.9941Q90.2832-99.3652 86.2305-103.442Q82.1777-107.52 76.8066-109.839Q71.4355-112.158 65.2832-112.158Q59.1309-112.158 53.7598-109.839Q48.3887-107.52 44.3359-103.442Q40.2832-99.3652 37.9883-93.9941Q35.6934-88.623 35.6934-82.4707Z"/>
   <path class="multicolor-1:white SFSymbolsPreviewFFFFFF" d="M57.0312-80.6152Q54.3457-80.6152 52.0508-82.0312Q49.7559-83.4473 48.3398-85.7666Q46.9238-88.0859 46.9238-90.7715Q46.9238-93.5547 48.3398-95.8496Q49.7559-98.1445 52.0508-99.5117Q54.3457-100.879 57.0312-100.879Q61.2305-100.879 64.1846-97.9004Q67.1387-94.9219 67.1387-90.7715Q67.1387-86.7188 64.1846-83.667Q61.2305-80.6152 57.0312-80.6152Z"/>
  </g>
  <g id="Heavy-L" transform="matrix(1 0 0 1 2573.11 1556)">
   <path class="multicolor-0:systemRedColor SFSymbolsPreviewFF3B30" d="M35.791-81.9336Q35.791-75.6836 38.3057-70.2881Q40.8203-64.8926 45.2148-61.0107Q49.6094-57.1289 55.2734-55.3223L55.2734 5.9082Q55.2734 11.0352 56.1523 15.6006Q57.0312 20.166 58.3984 23.6572Q59.7656 27.1484 61.1572 29.1504Q62.5488 31.1523 63.5742 31.1523Q64.5996 31.1523 65.9912 29.1504Q67.3828 27.1484 68.7256 23.6816Q70.0684 20.2148 70.9229 15.6494Q71.7773 11.084 71.7773 5.9082L71.7773-55.3223Q77.5391-57.0801 81.9336-60.9863Q86.3281-64.8926 88.8428-70.2881Q91.3574-75.6836 91.3574-81.9336Q91.3574-87.6953 89.2334-92.749Q87.1094-97.8027 83.3008-101.636Q79.4922-105.469 74.4385-107.666Q69.3848-109.863 63.5742-109.863Q57.8125-109.863 52.7588-107.666Q47.7051-105.469 43.8965-101.636Q40.0879-97.8027 37.9395-92.749Q35.791-87.6953 35.791-81.9336Z"/>
   <path class="multicolor-1:white SFSymbolsPreviewFFFFFF" d="M55.7617-80.2734Q53.2227-80.2734 51.0498-81.5918Q48.877-82.9102 47.5586-85.083Q46.2402-87.2559 46.2402-89.7949Q46.2402-92.3828 47.5586-94.5557Q48.877-96.7285 51.0498-98.0225Q53.2227-99.3164 55.7617-99.3164Q59.668-99.3164 62.4512-96.5088Q65.2344-93.7012 65.2344-89.7949Q65.2344-85.9863 62.4512-83.1299Q59.668-80.2734 55.7617-80.2734Z"/>
  </g>
  <g id="Bold-L" transform="matrix(1 0 0 1 2278.28 1556)">
   <path class="multicolor-0:systemRedColor SFSymbolsPreviewFF3B30" d="M35.8887-81.3477Q35.8887-75.4395 38.3057-70.3613Q40.7227-65.2832 44.9219-61.6455Q49.1211-58.0078 54.541-56.4941L54.541 5.22461Q54.541 10.6445 55.2979 15.21Q56.0547 19.7754 57.1777 23.1445Q58.3008 26.5137 59.5215 28.3447Q60.7422 30.1758 61.7188 30.1758Q62.6465 30.1758 63.8672 28.3447Q65.0879 26.5137 66.2109 23.1689Q67.334 19.8242 68.042 15.2588Q68.75 10.6934 68.75 5.22461L68.75-56.4941Q74.2188-58.0078 78.4424-61.6211Q82.666-65.2344 85.1074-70.3369Q87.5488-75.4395 87.5488-81.3477Q87.5488-86.7188 85.5469-91.4062Q83.5449-96.0938 80.0049-99.6582Q76.4648-103.223 71.7773-105.249Q67.0898-107.275 61.7188-107.275Q56.3477-107.275 51.6602-105.249Q46.9727-103.223 43.4326-99.6582Q39.8926-96.0938 37.8906-91.4062Q35.8887-86.7188 35.8887-81.3477Z"/>
   <path class="multicolor-1:white SFSymbolsPreviewFFFFFF" d="M54.3457-79.9316Q52.002-79.9316 50-81.1523Q47.998-82.373 46.7529-84.3994Q45.5078-86.4258 45.5078-88.7695Q45.5078-91.2109 46.7529-93.2129Q47.998-95.2148 50-96.4111Q52.002-97.6074 54.3457-97.6074Q58.0078-97.6074 60.5957-94.9951Q63.1836-92.3828 63.1836-88.7695Q63.1836-85.2051 60.5957-82.5684Q58.0078-79.9316 54.3457-79.9316Z"/>
  </g>
  <g id="Semibold-L" transform="matrix(1 0 0 1 1982.87 1556)">
   <path class="multicolor-0:systemRedColor SFSymbolsPreviewFF3B30" d="M35.9375-80.9082Q35.9375-75.2441 38.2812-70.3613Q40.625-65.4785 44.7021-62.0605Q48.7793-58.6426 54.0527-57.2754L54.0527 4.78516Q54.0527 10.4004 54.6875 14.9414Q55.3223 19.4824 56.3232 22.7539Q57.3242 26.0254 58.4229 27.7832Q59.5215 29.541 60.4004 29.541Q61.2793 29.541 62.3779 27.7832Q63.4766 26.0254 64.4531 22.7783Q65.4297 19.5312 66.04 14.9658Q66.6504 10.4004 66.6504 4.78516L66.6504-57.2754Q71.9238-58.5938 76.0254-62.0361Q80.127-65.4785 82.4951-70.3613Q84.8633-75.2441 84.8633-80.9082Q84.8633-85.9863 82.9834-90.4297Q81.1035-94.873 77.7344-98.2422Q74.3652-101.611 69.9463-103.54Q65.5273-105.469 60.4004-105.469Q55.3223-105.469 50.8789-103.54Q46.4355-101.611 43.0664-98.2422Q39.6973-94.873 37.8174-90.4297Q35.9375-85.9863 35.9375-80.9082Z"/>
   <path class="multicolor-1:white SFSymbolsPreviewFFFFFF" d="M53.3691-79.5898Q51.123-79.5898 49.2188-80.7617Q47.3145-81.9336 46.1426-83.8379Q44.9707-85.7422 44.9707-87.9883Q44.9707-90.2832 46.1426-92.1875Q47.3145-94.0918 49.2188-95.2393Q51.123-96.3867 53.3691-96.3867Q56.7871-96.3867 59.2285-93.8965Q61.6699-91.4062 61.6699-87.9883Q61.6699-84.6191 59.2285-82.1045Q56.7871-79.5898 53.3691-79.5898Z"/>
  </g>
  <g id="Medium-L" transform="matrix(1 0 0 1 1687.13 1556)">
   <path class="multicolor-0:systemRedColor SFSymbolsPreviewFF3B30" d="M35.9863-80.5664Q35.9863-75.0977 38.2812-70.3857Q40.5762-65.6738 44.5557-62.3779Q48.5352-59.082 53.6621-57.8613L53.6621 4.39453Q53.6621 10.1562 54.2236 14.7217Q54.7852 19.2871 55.6641 22.4854Q56.543 25.6836 57.5439 27.3438Q58.5449 29.0039 59.375 29.0039Q60.2539 29.0039 61.2549 27.3438Q62.2559 25.6836 63.1104 22.5098Q63.9648 19.3359 64.502 14.7705Q65.0391 10.2051 65.0391 4.39453L65.0391-57.8613Q70.2148-59.082 74.2188-62.3779Q78.2227-65.6738 80.542-70.3857Q82.8613-75.0977 82.8613-80.5664Q82.8613-85.4492 81.0547-89.6973Q79.248-93.9453 76.0254-97.1924Q72.8027-100.439 68.5547-102.271Q64.3066-104.102 59.375-104.102Q54.541-104.102 50.293-102.271Q46.0449-100.439 42.8223-97.1924Q39.5996-93.9453 37.793-89.6973Q35.9863-85.4492 35.9863-80.5664Z"/>
   <path class="multicolor-1:white SFSymbolsPreviewFFFFFF" d="M52.5879-79.3945Q50.4883-79.3945 48.6572-80.5176Q46.8262-81.6406 45.7031-83.4717Q44.5801-85.3027 44.5801-87.4512Q44.5801-89.6484 45.7031-91.4795Q46.8262-93.3105 48.6572-94.3848Q50.4883-95.459 52.5879-95.459Q55.8594-95.459 58.2275-93.0908Q60.5957-90.7227 60.5957-87.4512Q60.5957-84.1797 58.2275-81.7871Q55.8594-79.3945 52.5879-79.3945Z"/>
  </g>
  <g id="Regular-L" transform="matrix(1 0 0 1 1391.71 1556)">
   <path class="multicolor-0:systemRedColor SFSymbolsPreviewFF3B30" d="M36.0352-80.1758Q36.0352-74.9023 38.2568-70.4102Q40.4785-65.918 44.3604-62.8174Q48.2422-59.7168 53.1738-58.6426L53.1738 3.95508Q53.1738 9.91211 53.6377 14.4531Q54.1016 18.9941 54.834 22.0947Q55.5664 25.1953 56.4453 26.7822Q57.3242 28.3691 58.1055 28.3691Q58.9355 28.3691 59.79 26.7822Q60.6445 25.1953 61.377 22.1191Q62.1094 19.043 62.5488 14.4775Q62.9883 9.91211 62.9883 3.95508L62.9883-58.6426Q67.9688-59.7168 71.8506-62.8174Q75.7324-65.918 77.9785-70.4102Q80.2246-74.9023 80.2246-80.1758Q80.2246-84.7656 78.5156-88.7695Q76.8066-92.7734 73.7793-95.8252Q70.752-98.877 66.748-100.61Q62.7441-102.344 58.1055-102.344Q53.5156-102.344 49.5117-100.61Q45.5078-98.877 42.4805-95.8252Q39.4531-92.7734 37.7441-88.7695Q36.0352-84.7656 36.0352-80.1758Z"/>
   <path class="multicolor-1:white SFSymbolsPreviewFFFFFF" d="M51.6602-79.1504Q49.6582-79.1504 47.9248-80.2002Q46.1914-81.25 45.1416-82.959Q44.0918-84.668 44.0918-86.7188Q44.0918-88.7695 45.1416-90.5029Q46.1914-92.2363 47.9248-93.2617Q49.6582-94.2871 51.6602-94.2871Q54.7363-94.2871 56.958-92.041Q59.1797-89.7949 59.1797-86.7188Q59.1797-83.6426 56.958-81.3965Q54.7363-79.1504 51.6602-79.1504Z"/>
  </g>
  <g id="Light-L" transform="matrix(1 0 0 1 1098.59 1556)">
   <path class="multicolor-0:systemRedColor SFSymbolsPreviewFF3B30" d="M34.5703-79.4922Q34.5703-74.5605 36.6943-70.4102Q38.8184-66.2598 42.5049-63.4766Q46.1914-60.6934 50.8789-59.8633L50.8789 8.34961Q50.8789 12.9395 51.2207 16.3818Q51.5625 19.8242 52.0996 22.168Q52.6367 24.5117 53.2959 25.708Q53.9551 26.9043 54.541 26.9043Q55.1758 26.9043 55.8105 25.708Q56.4453 24.5117 56.9824 22.1924Q57.5195 19.873 57.8369 16.4062Q58.1543 12.9395 58.1543 8.34961L58.1543-59.8633Q62.8418-60.6934 66.5283-63.4766Q70.2148-66.2598 72.3633-70.4102Q74.5117-74.5605 74.5117-79.4922Q74.5117-83.5938 72.9736-87.2314Q71.4355-90.8691 68.7012-93.6279Q65.9668-96.3867 62.3535-97.9492Q58.7402-99.5117 54.541-99.5117Q50.3906-99.5117 46.7529-97.9492Q43.1152-96.3867 40.3809-93.6279Q37.6465-90.8691 36.1084-87.2314Q34.5703-83.5938 34.5703-79.4922Z"/>
   <path class="multicolor-1:white SFSymbolsPreviewFFFFFF" d="M48.4863-78.7598Q46.6797-78.7598 45.1172-79.7119Q43.5547-80.6641 42.6025-82.2021Q41.6504-83.7402 41.6504-85.5957Q41.6504-87.4512 42.6025-89.0137Q43.5547-90.5762 45.1172-91.5039Q46.6797-92.4316 48.4863-92.4316Q51.2695-92.4316 53.2959-90.4053Q55.3223-88.3789 55.3223-85.5957Q55.3223-82.8125 53.2959-80.7861Q51.2695-78.7598 48.4863-78.7598Z"/>
  </g>
  <g id="Thin-L" transform="matrix(1 0 0 1 806.618 1556)">
   <path class="multicolor-0:systemRedColor SFSymbolsPreviewFF3B30" d="M32.666-78.5645Q32.666-74.0723 34.668-70.3857Q36.6699-66.6992 40.1123-64.3066Q43.5547-61.9141 47.8516-61.4746L47.8516 14.209Q47.8516 16.8945 48.0225 18.9209Q48.1934 20.9473 48.4863 22.29Q48.7793 23.6328 49.1211 24.2676Q49.4629 24.9023 49.8047 24.9023Q50.1465 24.9023 50.4883 24.2676Q50.8301 23.6328 51.123 22.3145Q51.416 20.9961 51.5869 18.9453Q51.7578 16.8945 51.7578 14.209L51.7578-61.4746Q56.1035-61.9141 59.5459-64.3066Q62.9883-66.6992 64.9902-70.3857Q66.9922-74.0723 66.9922-78.5645Q66.9922-82.0801 65.6494-85.2051Q64.3066-88.3301 61.9629-90.6982Q59.6191-93.0664 56.4941-94.4092Q53.3691-95.752 49.8047-95.752Q46.1914-95.752 43.0908-94.4092Q39.9902-93.0664 37.6465-90.6982Q35.3027-88.3301 33.9844-85.2051Q32.666-82.0801 32.666-78.5645Z"/>
   <path class="multicolor-1:white SFSymbolsPreviewFFFFFF" d="M44.2871-78.2715Q42.7734-78.2715 41.4307-79.0771Q40.0879-79.8828 39.2578-81.2012Q38.4277-82.5195 38.4277-84.1309Q38.4277-85.7422 39.2578-87.085Q40.0879-88.4277 41.4307-89.209Q42.7734-89.9902 44.2871-89.9902Q46.7285-89.9902 48.4619-88.2568Q50.1953-86.5234 50.1953-84.1309Q50.1953-81.7383 48.4619-80.0049Q46.7285-78.2715 44.2871-78.2715Z"/>
  </g>
  <g id="Ultralight-L" transform="matrix(1 0 0 1 512.323 1556)">
   <path class="multicolor-0:systemRedColor SFSymbolsPreviewFF3B30" d="M31.6895-78.0762Q31.6895-73.877 33.6182-70.3857Q35.5469-66.8945 38.8428-64.7461Q42.1387-62.5977 46.2891-62.2559L46.2891 17.1875Q46.2891 18.9453 46.3867 20.2148Q46.4844 21.4844 46.6553 22.3145Q46.8262 23.1445 47.0215 23.5352Q47.2168 23.9258 47.4121 23.9258Q47.6074 23.9258 47.8027 23.5352Q47.998 23.1445 48.1445 22.3389Q48.291 21.5332 48.3887 20.2393Q48.4863 18.9453 48.4863 17.1875L48.4863-62.2559Q52.6367-62.5977 55.9326-64.7461Q59.2285-66.8945 61.1572-70.3857Q63.0859-73.877 63.0859-78.0762Q63.0859-81.2988 61.8896-84.1797Q60.6934-87.0605 58.5449-89.2334Q56.3965-91.4062 53.54-92.627Q50.6836-93.8477 47.4121-93.8477Q44.0918-93.8477 41.2354-92.627Q38.3789-91.4062 36.2305-89.2334Q34.082-87.0605 32.8857-84.1797Q31.6895-81.2988 31.6895-78.0762Z"/>
   <path class="multicolor-1:white SFSymbolsPreviewFFFFFF" d="M42.1387-78.0273Q40.7227-78.0273 39.502-78.7842Q38.2812-79.541 37.5244-80.7373Q36.7676-81.9336 36.7676-83.3984Q36.7676-84.8633 37.5244-86.084Q38.2812-87.3047 39.502-88.0371Q40.7227-88.7695 42.1387-88.7695Q44.3848-88.7695 45.9717-87.1826Q47.5586-85.5957 47.5586-83.3984Q47.5586-81.25 45.9717-79.6387Q44.3848-78.0273 42.1387-78.0273Z"/>
  </g>
  <g id="Black-M" transform="matrix(1 0 0 1 2882.59 1126)">
   <path class="multicolor-0:systemRedColor SFSymbolsPreviewFF3B30" d="M27.0996-72.0703Q27.0996-66.8457 29.1504-62.3291Q31.2012-57.8125 34.8145-54.4922Q38.4277-51.1719 43.1152-49.5605L43.1152-0.878906Q43.1152 2.24609 43.9697 5.41992Q44.8242 8.59375 46.0938 11.2305Q47.3633 13.8672 48.6572 15.4785Q49.9512 17.0898 50.7812 17.0898Q51.6602 17.0898 52.9297 15.5029Q54.1992 13.916 55.4688 11.2549Q56.7383 8.59375 57.5928 5.41992Q58.4473 2.24609 58.4473-0.878906L58.4473-49.5605Q63.1348-51.123 66.7725-54.4434Q70.4102-57.7637 72.4609-62.3047Q74.5117-66.8457 74.5117-72.0703Q74.5117-78.6133 71.3379-84.0332Q68.1641-89.4531 62.793-92.6758Q57.4219-95.8984 50.7812-95.8984Q44.2383-95.8984 38.8672-92.6758Q33.4961-89.4531 30.2979-84.0332Q27.0996-78.6133 27.0996-72.0703Z"/>
   <path class="multicolor-1:white SFSymbolsPreviewFFFFFF" d="M44.1895-70.6055Q40.9668-70.6055 38.5254-73.0469Q36.084-75.4883 36.084-78.7598Q36.084-82.0801 38.5254-84.4727Q40.9668-86.8652 44.1895-86.8652Q47.5586-86.8652 49.9268-84.4727Q52.2949-82.0801 52.2949-78.7598Q52.2949-75.4883 49.9268-73.0469Q47.5586-70.6055 44.1895-70.6055Z"/>
  </g>
  <g id="Heavy-M" transform="matrix(1 0 0 1 2586.76 1126)">
   <path class="multicolor-0:systemRedColor SFSymbolsPreviewFF3B30" d="M27.4902-71.6797Q27.4902-66.6992 29.4678-62.3779Q31.4453-58.0566 34.9609-54.9072Q38.4766-51.7578 42.9688-50.293L42.9688-2.39258Q42.9688 1.26953 43.7256 4.66309Q44.4824 8.05664 45.6055 10.7422Q46.7285 13.4277 47.9248 14.9902Q49.1211 16.5527 49.9023 16.5527Q50.7324 16.5527 51.9043 15.0146Q53.0762 13.4766 54.1992 10.7666Q55.3223 8.05664 56.0791 4.66309Q56.8359 1.26953 56.8359-2.39258L56.8359-50.293Q61.3281-51.709 64.8438-54.8584Q68.3594-58.0078 70.3613-62.3535Q72.3633-66.6992 72.3633-71.6797Q72.3633-77.8809 69.3604-83.0078Q66.3574-88.1348 61.2793-91.1865Q56.2012-94.2383 49.9023-94.2383Q43.7012-94.2383 38.623-91.1865Q33.5449-88.1348 30.5176-83.0078Q27.4902-77.8809 27.4902-71.6797Z"/>
   <path class="multicolor-1:white SFSymbolsPreviewFFFFFF" d="M43.6035-70.3613Q40.5762-70.3613 38.2568-72.6807Q35.9375-75 35.9375-78.0762Q35.9375-81.2012 38.2568-83.4717Q40.5762-85.7422 43.6035-85.7422Q46.7773-85.7422 49.0234-83.4717Q51.2695-81.2012 51.2695-78.0762Q51.2695-75 49.0234-72.6807Q46.7773-70.3613 43.6035-70.3613Z"/>
  </g>
  <g id="Bold-M" transform="matrix(1 0 0 1 2291.03 1126)">
   <path class="multicolor-0:systemRedColor SFSymbolsPreviewFF3B30" d="M27.9297-71.2891Q27.9297-66.5039 29.8584-62.4268Q31.7871-58.3496 35.1562-55.3955Q38.5254-52.4414 42.8223-51.123L42.8223-4.15039Q42.8223 0.146484 43.4814 3.80859Q44.1406 7.4707 45.1172 10.2051Q46.0938 12.9395 47.1191 14.4775Q48.1445 16.0156 48.9258 16.0156Q49.7559 16.0156 50.7812 14.502Q51.8066 12.9883 52.7832 10.2295Q53.7598 7.4707 54.3945 3.80859Q55.0293 0.146484 55.0293-4.15039L55.0293-51.123Q59.375-52.3926 62.7441-55.3467Q66.1133-58.3008 68.042-62.4023Q69.9707-66.5039 69.9707-71.2891Q69.9707-77.0996 67.1631-81.8848Q64.3555-86.6699 59.5947-89.5264Q54.834-92.3828 48.9258-92.3828Q43.1152-92.3828 38.3545-89.5264Q33.5938-86.6699 30.7617-81.8848Q27.9297-77.0996 27.9297-71.2891Z"/>
   <path class="multicolor-1:white SFSymbolsPreviewFFFFFF" d="M43.0176-70.0684Q40.1855-70.0684 38.0127-72.2412Q35.8398-74.4141 35.8398-77.2949Q35.8398-80.2246 38.0127-82.3486Q40.1855-84.4727 43.0176-84.4727Q45.9961-84.4727 48.1201-82.3486Q50.2441-80.2246 50.2441-77.2949Q50.2441-74.4141 48.1201-72.2412Q45.9961-70.0684 43.0176-70.0684Z"/>
  </g>
  <g id="Semibold-M" transform="matrix(1 0 0 1 1995 1126)">
   <path class="multicolor-0:systemRedColor SFSymbolsPreviewFF3B30" d="M28.2227-70.9473Q28.2227-66.3574 30.1025-62.4268Q31.9824-58.4961 35.2539-55.6885Q38.5254-52.8809 42.7246-51.709L42.7246-5.32227Q42.7246-0.634766 43.2861 3.19824Q43.8477 7.03125 44.7266 9.79004Q45.6055 12.5488 46.5576 14.0625Q47.5098 15.5762 48.2422 15.5762Q49.0234 15.5762 49.9756 14.0869Q50.9277 12.5977 51.7822 9.83887Q52.6367 7.08008 53.2227 3.22266Q53.8086-0.634766 53.8086-5.32227L53.8086-51.709Q57.959-52.832 61.2549-55.6641Q64.5508-58.4961 66.4307-62.4268Q68.3105-66.3574 68.3105-70.9473Q68.3105-76.5137 65.625-81.0791Q62.9395-85.6445 58.3984-88.3789Q53.8574-91.1133 48.2422-91.1133Q42.7246-91.1133 38.1836-88.3789Q33.6426-85.6445 30.9326-81.0791Q28.2227-76.5137 28.2227-70.9473Z"/>
   <path class="multicolor-1:white SFSymbolsPreviewFFFFFF" d="M42.5293-69.8242Q39.7949-69.8242 37.7441-71.875Q35.6934-73.9258 35.6934-76.709Q35.6934-79.4922 37.7441-81.5186Q39.7949-83.5449 42.5293-83.5449Q45.3613-83.5449 47.3877-81.5186Q49.4141-79.4922 49.4141-76.709Q49.4141-73.9258 47.3877-71.875Q45.3613-69.8242 42.5293-69.8242Z"/>
  </g>
  <g id="Medium-M" transform="matrix(1 0 0 1 1698.8 1126)">
   <path class="multicolor-0:systemRedColor SFSymbolsPreviewFF3B30" d="M28.4668-70.752Q28.4668-66.3086 30.2979-62.4756Q32.1289-58.6426 35.3271-55.9326Q38.5254-53.2227 42.627-52.0996L42.627-6.20117Q42.627-1.2207 43.1396 2.73438Q43.6523 6.68945 44.458 9.49707Q45.2637 12.3047 46.1182 13.7939Q46.9727 15.2832 47.7539 15.2832Q48.4863 15.2832 49.3896 13.8184Q50.293 12.3535 51.0498 9.5459Q51.8066 6.73828 52.3193 2.75879Q52.832-1.2207 52.832-6.20117L52.832-52.0996Q56.9336-53.2227 60.1562-55.9326Q63.3789-58.6426 65.21-62.4756Q67.041-66.3086 67.041-70.752Q67.041-76.0742 64.4531-80.4932Q61.8652-84.9121 57.4951-87.5244Q53.125-90.1367 47.7539-90.1367Q42.3828-90.1367 38.0127-87.5244Q33.6426-84.9121 31.0547-80.4932Q28.4668-76.0742 28.4668-70.752Z"/>
   <path class="multicolor-1:white SFSymbolsPreviewFFFFFF" d="M42.2363-69.6777Q39.5996-69.6777 37.6221-71.6553Q35.6445-73.6328 35.6445-76.3184Q35.6445-79.0039 37.6221-80.957Q39.5996-82.9102 42.2363-82.9102Q44.9707-82.9102 46.8994-80.957Q48.8281-79.0039 48.8281-76.3184Q48.8281-73.6328 46.8994-71.6553Q44.9707-69.6777 42.2363-69.6777Z"/>
  </g>
  <g id="Regular-M" transform="matrix(1 0 0 1 1402.75 1126)">
   <path class="multicolor-0:systemRedColor SFSymbolsPreviewFF3B30" d="M28.7598-70.459Q28.7598-66.1621 30.542-62.5Q32.3242-58.8379 35.4492-56.25Q38.5742-53.6621 42.5293-52.6855L42.5293-7.37305Q42.5293-1.95312 42.9688 2.17285Q43.4082 6.29883 44.0918 9.13086Q44.7754 11.9629 45.5566 13.4277Q46.3379 14.8926 47.0703 14.8926Q47.8027 14.8926 48.6084 13.4521Q49.4141 12.0117 50.0732 9.17969Q50.7324 6.34766 51.1719 2.19727Q51.6113-1.95312 51.6113-7.37305L51.6113-52.6855Q55.5664-53.6621 58.6914-56.25Q61.8164-58.8379 63.623-62.5Q65.4297-66.1621 65.4297-70.459Q65.4297-75.5371 62.9639-79.7119Q60.498-83.8867 56.3477-86.377Q52.1973-88.8672 47.0703-88.8672Q41.9922-88.8672 37.8418-86.377Q33.6914-83.8867 31.2256-79.7119Q28.7598-75.5371 28.7598-70.459Z"/>
   <path class="multicolor-1:white SFSymbolsPreviewFFFFFF" d="M41.7969-69.4824Q39.3066-69.4824 37.4268-71.3623Q35.5469-73.2422 35.5469-75.7812Q35.5469-78.3203 37.4268-80.1758Q39.3066-82.0312 41.7969-82.0312Q44.3848-82.0312 46.2402-80.1758Q48.0957-78.3203 48.0957-75.7812Q48.0957-73.2422 46.2402-71.3623Q44.3848-69.4824 41.7969-69.4824Z"/>
  </g>
  <g id="Light-M" transform="matrix(1 0 0 1 1109.24 1126)">
   <path class="multicolor-0:systemRedColor SFSymbolsPreviewFF3B30" d="M27.4414-69.8242Q27.4414-65.8691 29.1504-62.5Q30.8594-59.1309 33.7891-56.8115Q36.7188-54.4922 40.4785-53.7598L40.4785-3.41797Q40.4785 0.732422 40.7959 3.88184Q41.1133 7.03125 41.626 9.2041Q42.1387 11.377 42.7246 12.4756Q43.3105 13.5742 43.8477 13.5742Q44.4336 13.5742 45.0439 12.4756Q45.6543 11.377 46.1426 9.22852Q46.6309 7.08008 46.9482 3.90625Q47.2656 0.732422 47.2656-3.41797L47.2656-53.7598Q50.9766-54.4922 53.9307-56.8115Q56.8848-59.1309 58.5938-62.5Q60.3027-65.8691 60.3027-69.8242Q60.3027-74.3652 58.1055-78.1006Q55.9082-81.8359 52.1729-84.082Q48.4375-86.3281 43.8477-86.3281Q39.3066-86.3281 35.5957-84.082Q31.8848-81.8359 29.6631-78.1006Q27.4414-74.3652 27.4414-69.8242Z"/>
   <path class="multicolor-1:white SFSymbolsPreviewFFFFFF" d="M38.9648-69.1895Q36.7188-69.1895 35.0342-70.8496Q33.3496-72.5098 33.3496-74.8047Q33.3496-77.0996 35.0342-78.7598Q36.7188-80.4199 38.9648-80.4199Q41.2598-80.4199 42.9199-78.7598Q44.5801-77.0996 44.5801-74.8047Q44.5801-72.5098 42.9199-70.8496Q41.2598-69.1895 38.9648-69.1895Z"/>
  </g>
  <g id="Thin-M" transform="matrix(1 0 0 1 816.774 1126)">
   <path class="multicolor-0:systemRedColor SFSymbolsPreviewFF3B30" d="M25.7324-68.9941Q25.7324-65.4785 27.2949-62.5Q28.8574-59.5215 31.5918-57.5684Q34.3262-55.6152 37.7441-55.2246L37.7441 1.80664Q37.7441 4.29688 37.915 6.17676Q38.0859 8.05664 38.3789 9.30176Q38.6719 10.5469 38.9893 11.1816Q39.3066 11.8164 39.5996 11.8164Q39.9414 11.8164 40.2832 11.1816Q40.625 10.5469 40.8936 9.30176Q41.1621 8.05664 41.333 6.20117Q41.5039 4.3457 41.5039 1.80664L41.5039-55.2246Q44.9707-55.6152 47.6807-57.5684Q50.3906-59.5215 51.9775-62.5Q53.5645-65.4785 53.5645-68.9941Q53.5645-72.8516 51.6846-76.0254Q49.8047-79.1992 46.6553-81.0791Q43.5059-82.959 39.5996-82.959Q35.791-82.959 32.6416-81.0791Q29.4922-79.1992 27.6123-76.0254Q25.7324-72.8516 25.7324-68.9941Z"/>
   <path class="multicolor-1:white SFSymbolsPreviewFFFFFF" d="M35.2539-68.7012Q33.3496-68.7012 31.9092-70.0928Q30.4688-71.4844 30.4688-73.4375Q30.4688-75.3906 31.9092-76.8066Q33.3496-78.2227 35.2539-78.2227Q37.1582-78.2227 38.5742-76.8066Q39.9902-75.3906 39.9902-73.4375Q39.9902-71.4844 38.5742-70.0928Q37.1582-68.7012 35.2539-68.7012Z"/>
  </g>
  <g id="Ultralight-M" transform="matrix(1 0 0 1 522.236 1126)">
   <path class="multicolor-0:systemRedColor SFSymbolsPreviewFF3B30" d="M24.8535-68.5547Q24.8535-65.2344 26.3672-62.4756Q27.8809-59.7168 30.4688-57.959Q33.0566-56.2012 36.377-55.957L36.377 4.49219Q36.377 6.15234 36.4746 7.34863Q36.5723 8.54492 36.7188 9.35059Q36.8652 10.1562 37.0605 10.5225Q37.2559 10.8887 37.4512 10.8887Q37.6953 10.8887 37.8906 10.5225Q38.0859 10.1562 38.2324 9.375Q38.3789 8.59375 38.4766 7.37305Q38.5742 6.15234 38.5742 4.49219L38.5742-55.957Q41.8457-56.2012 44.458-57.959Q47.0703-59.7168 48.584-62.4756Q50.0977-65.2344 50.0977-68.5547Q50.0977-72.0703 48.3887-74.9268Q46.6797-77.7832 43.8232-79.5166Q40.9668-81.25 37.4512-81.25Q33.9355-81.25 31.0791-79.5166Q28.2227-77.7832 26.5381-74.9268Q24.8535-72.0703 24.8535-68.5547Z"/>
   <path class="multicolor-1:white SFSymbolsPreviewFFFFFF" d="M33.3496-68.5059Q31.6406-68.5059 30.3223-69.7754Q29.0039-71.0449 29.0039-72.8027Q29.0039-74.5605 30.3223-75.8545Q31.6406-77.1484 33.3496-77.1484Q35.0586-77.1484 36.3525-75.8545Q37.6465-74.5605 37.6465-72.8027Q37.6465-71.0449 36.3525-69.7754Q35.0586-68.5059 33.3496-68.5059Z"/>
  </g>
  <g id="Black-S" transform="matrix(1 0 0 1 2893.51 696)">
   <path class="multicolor-0:systemRedColor SFSymbolsPreviewFF3B30" d="M21.0449-64.1602Q21.0449-57.959 24.6094-53.1006Q28.1738-48.2422 33.6914-46.2891L33.6914-7.61719Q33.6914-4.6875 34.8877-1.5625Q36.084 1.5625 37.5488 3.71094Q39.0137 5.85938 39.8926 5.85938Q40.7715 5.85938 42.2363 3.71094Q43.7012 1.5625 44.873-1.5625Q46.0449-4.6875 46.0449-7.61719L46.0449-46.2891Q51.6113-48.1934 55.1758-53.0762Q58.7402-57.959 58.7402-64.1602Q58.7402-69.3848 56.2256-73.6816Q53.7109-77.9785 49.4385-80.542Q45.166-83.1055 39.8926-83.1055Q34.668-83.1055 30.3955-80.542Q26.123-77.9785 23.584-73.6816Q21.0449-69.3848 21.0449-64.1602Z"/>
   <path class="multicolor-1:white SFSymbolsPreviewFFFFFF" d="M34.6191-62.9883Q32.0801-62.9883 30.127-64.9414Q28.1738-66.8945 28.1738-69.4824Q28.1738-72.1191 30.127-74.0234Q32.0801-75.9277 34.6191-75.9277Q37.3047-75.9277 39.1846-74.0234Q41.0645-72.1191 41.0645-69.4824Q41.0645-66.8945 39.1846-64.9414Q37.3047-62.9883 34.6191-62.9883Z"/>
  </g>
  <g id="Heavy-S" transform="matrix(1 0 0 1 2597.14 696)">
   <path class="multicolor-0:systemRedColor SFSymbolsPreviewFF3B30" d="M21.5332-63.916Q21.5332-57.959 25-53.2715Q28.4668-48.584 33.8379-46.7773L33.8379-9.42383Q33.8379-5.66406 34.9121-2.22168Q35.9863 1.2207 37.3291 3.39355Q38.6719 5.56641 39.5508 5.56641Q40.4297 5.56641 41.7725 3.39355Q43.1152 1.2207 44.165-2.22168Q45.2148-5.66406 45.2148-9.42383L45.2148-46.7773Q50.5859-48.5352 54.0771-53.2471Q57.5684-57.959 57.5684-63.916Q57.5684-68.8965 55.1514-72.998Q52.7344-77.0996 48.6572-79.5654Q44.5801-82.0312 39.5508-82.0312Q34.5703-82.0312 30.4688-79.5654Q26.3672-77.0996 23.9502-72.998Q21.5332-68.8965 21.5332-63.916Z"/>
   <path class="multicolor-1:white SFSymbolsPreviewFFFFFF" d="M34.5215-62.793Q32.0801-62.793 30.2246-64.6484Q28.3691-66.5039 28.3691-68.9941Q28.3691-71.4844 30.2246-73.3154Q32.0801-75.1465 34.5215-75.1465Q37.1094-75.1465 38.8916-73.3154Q40.6738-71.4844 40.6738-68.9941Q40.6738-66.5039 38.8916-64.6484Q37.1094-62.793 34.5215-62.793Z"/>
  </g>
  <g id="Bold-S" transform="matrix(1 0 0 1 2300.82 696)">
   <path class="multicolor-0:systemRedColor SFSymbolsPreviewFF3B30" d="M22.1191-63.6719Q22.1191-57.9102 25.4639-53.4668Q28.8086-49.0234 34.0332-47.3145L34.0332-11.4746Q34.0332-6.78711 34.9609-2.97852Q35.8887 0.830078 37.085 3.05176Q38.2812 5.27344 39.1602 5.27344Q40.0391 5.27344 41.2598 3.05176Q42.4805 0.830078 43.3838-2.97852Q44.2871-6.78711 44.2871-11.4746L44.2871-47.3145Q49.5117-48.9746 52.8809-53.4424Q56.25-57.9102 56.25-63.6719Q56.25-68.3594 53.9551-72.2656Q51.6602-76.1719 47.8027-78.4912Q43.9453-80.8105 39.1602-80.8105Q34.4238-80.8105 30.5664-78.4912Q26.709-76.1719 24.4141-72.2656Q22.1191-68.3594 22.1191-63.6719Z"/>
   <path class="multicolor-1:white SFSymbolsPreviewFFFFFF" d="M34.375-62.6465Q32.0312-62.6465 30.2734-64.4043Q28.5156-66.1621 28.5156-68.5059Q28.5156-70.8984 30.2734-72.6318Q32.0312-74.3652 34.375-74.3652Q36.7676-74.3652 38.4766-72.6318Q40.1855-70.8984 40.1855-68.5059Q40.1855-66.1621 38.4766-64.4043Q36.7676-62.6465 34.375-62.6465Z"/>
  </g>
  <g id="Semibold-S" transform="matrix(1 0 0 1 2004.38 696)">
   <path class="multicolor-0:systemRedColor SFSymbolsPreviewFF3B30" d="M22.4609-63.4766Q22.4609-57.9102 25.7568-53.5889Q29.0527-49.2676 34.1309-47.7051L34.1309-12.8418Q34.1309-7.56836 34.9609-3.51562Q35.791 0.537109 36.9141 2.80762Q38.0371 5.07812 38.916 5.07812Q39.7949 5.07812 40.8936 2.80762Q41.9922 0.537109 42.7979-3.49121Q43.6035-7.51953 43.6035-12.8418L43.6035-47.7051Q48.7305-49.2188 52.0264-53.5645Q55.3223-57.9102 55.3223-63.4766Q55.3223-67.9688 53.125-71.7285Q50.9277-75.4883 47.1924-77.71Q43.457-79.9316 38.916-79.9316Q34.3262-79.9316 30.6152-77.71Q26.9043-75.4883 24.6826-71.7285Q22.4609-67.9688 22.4609-63.4766Z"/>
   <path class="multicolor-1:white SFSymbolsPreviewFFFFFF" d="M34.2773-62.4512Q32.0312-62.4512 30.3467-64.1602Q28.6621-65.8691 28.6621-68.1152Q28.6621-70.3613 30.3467-72.0459Q32.0312-73.7305 34.2773-73.7305Q36.5723-73.7305 38.2324-72.0459Q39.8926-70.3613 39.8926-68.1152Q39.8926-65.8691 38.2324-64.1602Q36.5723-62.4512 34.2773-62.4512Z"/>
  </g>
  <g id="Medium-S" transform="matrix(1 0 0 1 1707.86 696)">
   <path class="multicolor-0:systemRedColor SFSymbolsPreviewFF3B30" d="M22.7539-63.3301Q22.7539-57.8613 25.9766-53.6621Q29.1992-49.4629 34.2285-47.9492L34.2285-13.916Q34.2285-8.1543 34.9854-3.90625Q35.7422 0.341797 36.7676 2.6123Q37.793 4.88281 38.6719 4.88281Q39.5508 4.88281 40.6006 2.6123Q41.6504 0.341797 42.3828-3.88184Q43.1152-8.10547 43.1152-13.916L43.1152-47.9492Q48.1445-49.4141 51.3916-53.6377Q54.6387-57.8613 54.6387-63.3301Q54.6387-67.7246 52.4902-71.3379Q50.3418-74.9512 46.7285-77.124Q43.1152-79.2969 38.6719-79.2969Q34.2773-79.2969 30.6641-77.124Q27.0508-74.9512 24.9023-71.3379Q22.7539-67.7246 22.7539-63.3301Z"/>
   <path class="multicolor-1:white SFSymbolsPreviewFFFFFF" d="M34.1797-62.3535Q32.0312-62.3535 30.3955-63.9893Q28.7598-65.625 28.7598-67.8223Q28.7598-70.0195 30.3955-71.6309Q32.0312-73.2422 34.1797-73.2422Q36.4258-73.2422 38.0371-71.6309Q39.6484-70.0195 39.6484-67.8223Q39.6484-65.625 38.0371-63.9893Q36.4258-62.3535 34.1797-62.3535Z"/>
  </g>
  <g id="Regular-S" transform="matrix(1 0 0 1 1411.42 696)">
   <path class="multicolor-0:systemRedColor SFSymbolsPreviewFF3B30" d="M23.1445-63.1348Q23.1445-57.8613 26.2939-53.8086Q29.4434-49.7559 34.3262-48.3398L34.3262-15.2832Q34.3262-8.88672 34.9854-4.41895Q35.6445 0.0488281 36.5967 2.36816Q37.5488 4.6875 38.4277 4.6875Q39.3066 4.6875 40.2588 2.36816Q41.2109 0.0488281 41.8457-4.39453Q42.4805-8.83789 42.4805-15.2832L42.4805-48.3398Q47.3633-49.707 50.5371-53.7842Q53.7109-57.8613 53.7109-63.1348Q53.7109-67.334 51.6602-70.8252Q49.6094-74.3164 46.1426-76.3916Q42.6758-78.4668 38.4277-78.4668Q34.1797-78.4668 30.7129-76.3916Q27.2461-74.3164 25.1953-70.8252Q23.1445-67.334 23.1445-63.1348Z"/>
   <path class="multicolor-1:white SFSymbolsPreviewFFFFFF" d="M34.1309-62.207Q32.0312-62.207 30.4688-63.7939Q28.9062-65.3809 28.9062-67.4805Q28.9062-69.5801 30.4688-71.1426Q32.0312-72.7051 34.1309-72.7051Q36.2793-72.7051 37.8174-71.1426Q39.3555-69.5801 39.3555-67.4805Q39.3555-65.3809 37.8174-63.7939Q36.2793-62.207 34.1309-62.207Z"/>
  </g>
  <g id="Light-S" transform="matrix(1 0 0 1 1117.54 696)">
   <path class="multicolor-0:systemRedColor SFSymbolsPreviewFF3B30" d="M21.9727-62.5977Q21.9727-57.7637 24.9512-54.0771Q27.9297-50.3906 32.4707-49.3164L32.4707-11.8164Q32.4707-6.83594 32.9834-3.41797Q33.4961 0 34.2041 1.75781Q34.9121 3.51562 35.5957 3.51562Q36.2793 3.51562 36.9873 1.75781Q37.6953 0 38.1836-3.41797Q38.6719-6.83594 38.6719-11.8164L38.6719-49.3164Q43.2129-50.3418 46.1914-54.0527Q49.1699-57.7637 49.1699-62.5977Q49.1699-66.3086 47.3633-69.4092Q45.5566-72.5098 42.4561-74.3652Q39.3555-76.2207 35.5957-76.2207Q31.7871-76.2207 28.7109-74.3652Q25.6348-72.5098 23.8037-69.4092Q21.9727-66.3086 21.9727-62.5977Z"/>
   <path class="multicolor-1:white SFSymbolsPreviewFFFFFF" d="M31.5918-61.9141Q29.7363-61.9141 28.3447-63.3301Q26.9531-64.7461 26.9531-66.6016Q26.9531-68.457 28.3447-69.8486Q29.7363-71.2402 31.5918-71.2402Q33.4961-71.2402 34.8633-69.8486Q36.2305-68.457 36.2305-66.6016Q36.2305-64.7461 34.8633-63.3301Q33.4961-61.9141 31.5918-61.9141Z"/>
  </g>
  <g id="Thin-S" transform="matrix(1 0 0 1 824.586 696)">
   <path class="multicolor-0:systemRedColor SFSymbolsPreviewFF3B30" d="M20.459-61.8164Q20.459-57.5684 23.2178-54.3945Q25.9766-51.2207 30.0781-50.5859L30.0781-7.17773Q30.0781-4.19922 30.3467-2.14844Q30.6152-0.0976562 31.0303 0.927734Q31.4453 1.95312 31.8359 1.95312Q32.2266 1.95312 32.6416 0.927734Q33.0566-0.0976562 33.3252-2.12402Q33.5938-4.15039 33.5938-7.17773L33.5938-50.5859Q37.6953-51.2207 40.4541-54.3945Q43.2129-57.5684 43.2129-61.8164Q43.2129-64.9902 41.6748-67.5781Q40.1367-70.166 37.5732-71.7041Q35.0098-73.2422 31.8359-73.2422Q28.6621-73.2422 26.0986-71.7041Q23.5352-70.166 21.9971-67.5781Q20.459-64.9902 20.459-61.8164Z"/>
   <path class="multicolor-1:white SFSymbolsPreviewFFFFFF" d="M28.3203-61.5234Q26.7578-61.5234 25.5859-62.6953Q24.4141-63.8672 24.4141-65.4297Q24.4141-66.9922 25.5859-68.1641Q26.7578-69.3359 28.3203-69.3359Q29.8828-69.3359 31.0303-68.1641Q32.1777-66.9922 32.1777-65.4297Q32.1777-63.8672 31.0303-62.6953Q29.8828-61.5234 28.3203-61.5234Z"/>
  </g>
  <g id="Ultralight-S" transform="matrix(1 0 0 1 529.804 696)">
   <path class="multicolor-0:systemRedColor SFSymbolsPreviewFF3B30" d="M19.6777-61.4746Q19.6777-57.5195 22.3145-54.5898Q24.9512-51.6602 28.8086-51.2695L28.8086-4.83398Q28.8086-2.7832 28.9795-1.46484Q29.1504-0.146484 29.3945 0.488281Q29.6387 1.12305 29.9316 1.12305Q30.1758 1.12305 30.4199 0.488281Q30.6641-0.146484 30.835-1.46484Q31.0059-2.7832 31.0059-4.83398L31.0059-51.2695Q34.8633-51.6602 37.5-54.5898Q40.1367-57.5195 40.1367-61.4746Q40.1367-64.3066 38.7695-66.626Q37.4023-68.9453 35.083-70.3369Q32.7637-71.7285 29.9316-71.7285Q27.0508-71.7285 24.7314-70.3369Q22.4121-68.9453 21.0449-66.626Q19.6777-64.3066 19.6777-61.4746Z"/>
   <path class="multicolor-1:white SFSymbolsPreviewFFFFFF" d="M26.6113-61.3281Q25.2441-61.3281 24.1699-62.3779Q23.0957-63.4277 23.0957-64.8438Q23.0957-66.2598 24.1699-67.3096Q25.2441-68.3594 26.6113-68.3594Q28.0273-68.3594 29.0527-67.3096Q30.0781-66.2598 30.0781-64.8438Q30.0781-63.4277 29.0527-62.3779Q28.0273-61.3281 26.6113-61.3281Z"/>
  </g>
 </g>
</svg>
