<?xml version="1.0" encoding="UTF-8"?>
<!--Generator: Apple Native CoreSVG 175-->
<!DOCTYPE svg
PUBLIC "-//W3C//DTD SVG 1.1//EN"
       "http://www.w3.org/Graphics/SVG/1.1/DTD/svg11.dtd">
<svg version="1.1" xmlns="http://www.w3.org/2000/svg" xmlns:xlink="http://www.w3.org/1999/xlink" width="3300" height="2200">
 <!--glyph: "uni1008EB.medium", point size: 100.0, font version: "17.0d11e1", template writer version: "65.1"-->
 <g id="Notes">
  <rect height="2200" id="artboard" style="fill:white;opacity:1" width="3300" x="0" y="0"/>
  <line style="fill:none;stroke:black;opacity:1;stroke-width:0.5;" x1="263" x2="3036" y1="292" y2="292"/>
  <text style="stroke:none;fill:black;font-family:sans-serif;font-size:13;font-weight:bold;" transform="matrix(1 0 0 1 263 322)">Weight/Scale Variations</text>
  <text style="stroke:none;fill:black;font-family:sans-serif;font-size:13;text-anchor:middle;" transform="matrix(1 0 0 1 559.711 322)">Ultralight</text>
  <text style="stroke:none;fill:black;font-family:sans-serif;font-size:13;text-anchor:middle;" transform="matrix(1 0 0 1 856.422 322)">Thin</text>
  <text style="stroke:none;fill:black;font-family:sans-serif;font-size:13;text-anchor:middle;" transform="matrix(1 0 0 1 1153.13 322)">Light</text>
  <text style="stroke:none;fill:black;font-family:sans-serif;font-size:13;text-anchor:middle;" transform="matrix(1 0 0 1 1449.84 322)">Regular</text>
  <text style="stroke:none;fill:black;font-family:sans-serif;font-size:13;text-anchor:middle;" transform="matrix(1 0 0 1 1746.56 322)">Medium</text>
  <text style="stroke:none;fill:black;font-family:sans-serif;font-size:13;text-anchor:middle;" transform="matrix(1 0 0 1 2043.27 322)">Semibold</text>
  <text style="stroke:none;fill:black;font-family:sans-serif;font-size:13;text-anchor:middle;" transform="matrix(1 0 0 1 2339.98 322)">Bold</text>
  <text style="stroke:none;fill:black;font-family:sans-serif;font-size:13;text-anchor:middle;" transform="matrix(1 0 0 1 2636.69 322)">Heavy</text>
  <text style="stroke:none;fill:black;font-family:sans-serif;font-size:13;text-anchor:middle;" transform="matrix(1 0 0 1 2933.4 322)">Black</text>
  <line style="fill:none;stroke:black;opacity:1;stroke-width:0.5;" x1="263" x2="3036" y1="1903" y2="1903"/>
  <g transform="matrix(1 0 0 1 263 1933)">
   <path d="M9.24805 0.830078Q10.8691 0.830078 12.2949 0.214844Q13.7207-0.400391 14.8096-1.49414Q15.8984-2.58789 16.5186-4.01367Q17.1387-5.43945 17.1387-7.05078Q17.1387-8.66211 16.5186-10.0879Q15.8984-11.5137 14.8047-12.6074Q13.7109-13.7012 12.2852-14.3164Q10.8594-14.9316 9.23828-14.9316Q7.62695-14.9316 6.20117-14.3164Q4.77539-13.7012 3.69141-12.6074Q2.60742-11.5137 1.9873-10.0879Q1.36719-8.66211 1.36719-7.05078Q1.36719-5.43945 1.9873-4.01367Q2.60742-2.58789 3.69629-1.49414Q4.78516-0.400391 6.21094 0.214844Q7.63672 0.830078 9.24805 0.830078ZM9.24805-0.654297Q7.91992-0.654297 6.7627-1.14746Q5.60547-1.64062 4.73145-2.51953Q3.85742-3.39844 3.36426-4.56055Q2.87109-5.72266 2.87109-7.05078Q2.87109-8.37891 3.35938-9.54102Q3.84766-10.7031 4.72168-11.582Q5.5957-12.4609 6.75293-12.9541Q7.91016-13.4473 9.23828-13.4473Q10.5762-13.4473 11.7334-12.9541Q12.8906-12.4609 13.7695-11.582Q14.6484-10.7031 15.1465-9.54102Q15.6445-8.37891 15.6445-7.05078Q15.6445-5.72266 15.1514-4.56055Q14.6582-3.39844 13.7842-2.51953Q12.9102-1.64062 11.748-1.14746Q10.5859-0.654297 9.24805-0.654297ZM5.6543-7.05078Q5.6543-6.72852 5.85938-6.52832Q6.06445-6.32812 6.40625-6.32812L8.51562-6.32812L8.51562-4.20898Q8.51562-3.88672 8.71094-3.67676Q8.90625-3.4668 9.23828-3.4668Q9.56055-3.4668 9.77051-3.67676Q9.98047-3.88672 9.98047-4.20898L9.98047-6.32812L12.0898-6.32812Q12.4219-6.32812 12.627-6.52832Q12.832-6.72852 12.832-7.05078Q12.832-7.38281 12.627-7.58789Q12.4219-7.79297 12.0898-7.79297L9.98047-7.79297L9.98047-9.90234Q9.98047-10.2344 9.77051-10.4443Q9.56055-10.6543 9.23828-10.6543Q8.90625-10.6543 8.71094-10.4443Q8.51562-10.2344 8.51562-9.90234L8.51562-7.79297L6.40625-7.79297Q6.06445-7.79297 5.85938-7.58789Q5.6543-7.38281 5.6543-7.05078Z"/>
  </g>
  <g transform="matrix(1 0 0 1 281.867 1933)">
   <path d="M11.709 2.91016Q13.75 2.91016 15.5518 2.12891Q17.3535 1.34766 18.7305-0.0292969Q20.1074-1.40625 20.8887-3.20801Q21.6699-5.00977 21.6699-7.05078Q21.6699-9.0918 20.8887-10.8936Q20.1074-12.6953 18.7305-14.0723Q17.3535-15.4492 15.5469-16.2305Q13.7402-17.0117 11.6992-17.0117Q9.6582-17.0117 7.85645-16.2305Q6.05469-15.4492 4.68262-14.0723Q3.31055-12.6953 2.5293-10.8936Q1.74805-9.0918 1.74805-7.05078Q1.74805-5.00977 2.5293-3.20801Q3.31055-1.40625 4.6875-0.0292969Q6.06445 1.34766 7.86621 2.12891Q9.66797 2.91016 11.709 2.91016ZM11.709 1.25Q9.98047 1.25 8.47656 0.605469Q6.97266-0.0390625 5.83496-1.17676Q4.69727-2.31445 4.05762-3.81836Q3.41797-5.32227 3.41797-7.05078Q3.41797-8.7793 4.05762-10.2832Q4.69727-11.7871 5.83008-12.9297Q6.96289-14.0723 8.4668-14.7119Q9.9707-15.3516 11.6992-15.3516Q13.4277-15.3516 14.9316-14.7119Q16.4355-14.0723 17.5781-12.9297Q18.7207-11.7871 19.3652-10.2832Q20.0098-8.7793 20.0098-7.05078Q20.0098-5.32227 19.3701-3.81836Q18.7305-2.31445 17.5928-1.17676Q16.4551-0.0390625 14.9463 0.605469Q13.4375 1.25 11.709 1.25ZM7.17773-7.05078Q7.17773-6.69922 7.41211-6.47461Q7.64648-6.25 8.01758-6.25L10.8887-6.25L10.8887-3.36914Q10.8887-2.99805 11.1133-2.76855Q11.3379-2.53906 11.6895-2.53906Q12.0605-2.53906 12.29-2.76855Q12.5195-2.99805 12.5195-3.36914L12.5195-6.25L15.4004-6.25Q15.7715-6.25 16.001-6.47461Q16.2305-6.69922 16.2305-7.05078Q16.2305-7.42188 16.001-7.65137Q15.7715-7.88086 15.4004-7.88086L12.5195-7.88086L12.5195-10.752Q12.5195-11.1328 12.29-11.3623Q12.0605-11.5918 11.6895-11.5918Q11.3379-11.5918 11.1133-11.3574Q10.8887-11.123 10.8887-10.752L10.8887-7.88086L8.01758-7.88086Q7.63672-7.88086 7.40723-7.65137Q7.17773-7.42188 7.17773-7.05078Z"/>
  </g>
  <g transform="matrix(1 0 0 1 305.646 1933)">
   <path d="M14.9707 5.66406Q17.0605 5.66406 18.96 5.01465Q20.8594 4.36523 22.4512 3.19336Q24.043 2.02148 25.2197 0.429688Q26.3965-1.16211 27.0459-3.06641Q27.6953-4.9707 27.6953-7.05078Q27.6953-9.14062 27.0459-11.04Q26.3965-12.9395 25.2197-14.5312Q24.043-16.123 22.4512-17.2998Q20.8594-18.4766 18.9551-19.126Q17.0508-19.7754 14.9609-19.7754Q12.8711-19.7754 10.9717-19.126Q9.07227-18.4766 7.48535-17.2998Q5.89844-16.123 4.72168-14.5312Q3.54492-12.9395 2.90039-11.04Q2.25586-9.14062 2.25586-7.05078Q2.25586-4.9707 2.90527-3.06641Q3.55469-1.16211 4.72656 0.429688Q5.89844 2.02148 7.49023 3.19336Q9.08203 4.36523 10.9814 5.01465Q12.8809 5.66406 14.9707 5.66406ZM14.9707 3.84766Q13.1641 3.84766 11.5283 3.2959Q9.89258 2.74414 8.53516 1.74805Q7.17773 0.751953 6.17676-0.610352Q5.17578-1.97266 4.62891-3.6084Q4.08203-5.24414 4.08203-7.05078Q4.08203-8.86719 4.62891-10.5029Q5.17578-12.1387 6.17188-13.501Q7.16797-14.8633 8.52539-15.8594Q9.88281-16.8555 11.5186-17.4023Q13.1543-17.9492 14.9609-17.9492Q16.7773-17.9492 18.4131-17.4023Q20.0488-16.8555 21.4111-15.8594Q22.7734-14.8633 23.7695-13.501Q24.7656-12.1387 25.3174-10.5029Q25.8691-8.86719 25.8691-7.05078Q25.8789-5.24414 25.332-3.6084Q24.7852-1.97266 23.7842-0.610352Q22.7832 0.751953 21.4209 1.74805Q20.0586 2.74414 18.4229 3.2959Q16.7871 3.84766 14.9707 3.84766ZM9.19922-7.05078Q9.19922-6.66992 9.45801-6.4209Q9.7168-6.17188 10.1172-6.17188L14.0625-6.17188L14.0625-2.2168Q14.0625-1.81641 14.3115-1.55762Q14.5605-1.29883 14.9512-1.29883Q15.3516-1.29883 15.6104-1.55273Q15.8691-1.80664 15.8691-2.2168L15.8691-6.17188L19.8242-6.17188Q20.2246-6.17188 20.4785-6.4209Q20.7324-6.66992 20.7324-7.05078Q20.7324-7.46094 20.4785-7.71484Q20.2246-7.96875 19.8242-7.96875L15.8691-7.96875L15.8691-11.9141Q15.8691-12.3242 15.6104-12.583Q15.3516-12.8418 14.9512-12.8418Q14.5605-12.8418 14.3115-12.583Q14.0625-12.3242 14.0625-11.9141L14.0625-7.96875L10.1172-7.96875Q9.70703-7.96875 9.45312-7.71484Q9.19922-7.46094 9.19922-7.05078Z"/>
  </g>
  <text style="stroke:none;fill:black;font-family:sans-serif;font-size:13;font-weight:bold;" transform="matrix(1 0 0 1 263 1953)">Design Variations</text>
  <text style="stroke:none;fill:black;font-family:sans-serif;font-size:13;" transform="matrix(1 0 0 1 263 1971)">Symbols are supported in up to nine weights and three scales.</text>
  <text style="stroke:none;fill:black;font-family:sans-serif;font-size:13;" transform="matrix(1 0 0 1 263 1989)">For optimal layout with text and other symbols, vertically align</text>
  <text style="stroke:none;fill:black;font-family:sans-serif;font-size:13;" transform="matrix(1 0 0 1 263 2007)">symbols with the adjacent text.</text>
  <line style="fill:none;stroke:#00AEEF;stroke-width:0.5;opacity:1.0;" x1="776" x2="776" y1="1919" y2="1933"/>
  <g transform="matrix(1 0 0 1 776 1933)">
   <path d="M3.31055 0.15625Q3.70117 0.15625 3.91602-0.00976562Q4.13086-0.175781 4.26758-0.585938L5.52734-4.0332L11.2891-4.0332L12.5488-0.585938Q12.6855-0.175781 12.9004-0.00976562Q13.1152 0.15625 13.4961 0.15625Q13.8867 0.15625 14.1162-0.0585938Q14.3457-0.273438 14.3457-0.644531Q14.3457-0.869141 14.2383-1.17188L9.6582-13.3691Q9.48242-13.8184 9.17969-14.043Q8.87695-14.2676 8.4082-14.2676Q7.5-14.2676 7.17773-13.3789L2.59766-1.16211Q2.49023-0.859375 2.49023-0.634766Q2.49023-0.263672 2.70996-0.0537109Q2.92969 0.15625 3.31055 0.15625ZM6.00586-5.51758L8.37891-12.0898L8.42773-12.0898L10.8008-5.51758Z"/>
  </g>
  <line style="fill:none;stroke:#00AEEF;stroke-width:0.5;opacity:1.0;" x1="793.197" x2="793.197" y1="1919" y2="1933"/>
  <text style="stroke:none;fill:black;font-family:sans-serif;font-size:13;font-weight:bold;" transform="matrix(1 0 0 1 776 1953)">Margins</text>
  <text style="stroke:none;fill:black;font-family:sans-serif;font-size:13;" transform="matrix(1 0 0 1 776 1971)">Leading and trailing margins on the left and right side of each symbol</text>
  <text style="stroke:none;fill:black;font-family:sans-serif;font-size:13;" transform="matrix(1 0 0 1 776 1989)">can be adjusted by modifying the x-location of the margin guidelines.</text>
  <text style="stroke:none;fill:black;font-family:sans-serif;font-size:13;" transform="matrix(1 0 0 1 776 2007)">Modifications are automatically applied proportionally to all</text>
  <text style="stroke:none;fill:black;font-family:sans-serif;font-size:13;" transform="matrix(1 0 0 1 776 2025)">scales and weights.</text>
  <g transform="matrix(1 0 0 1 1289 1933)">
   <path d="M2.8418 1.86523L4.54102 3.57422Q5.18555 4.22852 5.90332 4.17969Q6.62109 4.13086 7.31445 3.35938L18.0078-8.42773L17.041-9.4043L6.42578 2.27539Q6.16211 2.57812 5.89355 2.61719Q5.625 2.65625 5.27344 2.30469L4.10156 1.14258Q3.75 0.791016 3.79395 0.522461Q3.83789 0.253906 4.14062-0.0195312L15.6152-10.8203L14.6387-11.7871L3.04688-0.898438Q2.30469-0.214844 2.25098 0.498047Q2.19727 1.21094 2.8418 1.86523ZM9.25781-16.3281Q8.94531-16.0254 8.90625-15.6348Q8.86719-15.2441 9.04297-14.9512Q9.21875-14.6777 9.55566-14.541Q9.89258-14.4043 10.3809-14.5215Q11.4746-14.7754 12.5977-14.7314Q13.7207-14.6875 14.7949-13.9844L14.209-12.5293Q13.9551-11.9043 14.0674-11.4404Q14.1797-10.9766 14.5801-10.5664L16.875-8.25195Q17.2363-7.88086 17.5781-7.82227Q17.9199-7.76367 18.3398-7.8418L19.4043-8.03711L20.0684-7.36328L20.0293-6.80664Q20-6.43555 20.1221-6.12305Q20.2441-5.81055 20.6055-5.44922L21.3672-4.70703Q21.7285-4.3457 22.1533-4.33105Q22.5781-4.31641 22.9297-4.66797L25.8398-7.58789Q26.1914-7.93945 26.1816-8.35449Q26.1719-8.76953 25.8105-9.13086L25.0391-9.89258Q24.6875-10.2539 24.3799-10.3857Q24.0723-10.5176 23.7109-10.4883L23.1348-10.4395L22.4902-11.0742L22.7344-12.1973Q22.832-12.6172 22.6953-12.9834Q22.5586-13.3496 22.1191-13.7891L19.9219-15.9766Q18.6719-17.2168 17.2607-17.8369Q15.8496-18.457 14.4189-18.4814Q12.9883-18.5059 11.665-17.959Q10.3418-17.4121 9.25781-16.3281ZM10.752-15.957Q11.6602-16.6211 12.7002-16.9043Q13.7402-17.1875 14.8047-17.085Q15.8691-16.9824 16.8701-16.5137Q17.8711-16.0449 18.7012-15.2051L21.1328-12.793Q21.3086-12.6172 21.3525-12.4512Q21.3965-12.2852 21.3379-12.0312L21.0156-10.5469L22.5195-9.0625L23.5059-9.12109Q23.6914-9.13086 23.7891-9.09668Q23.8867-9.0625 24.0332-8.91602L24.6094-8.33984L22.168-5.89844L21.5918-6.47461Q21.4453-6.62109 21.4062-6.71875Q21.3672-6.81641 21.377-7.01172L21.4453-7.98828L19.9512-9.47266L18.4277-9.21875Q18.1836-9.16992 18.042-9.2041Q17.9004-9.23828 17.7148-9.41406L15.7129-11.416Q15.5176-11.5918 15.4932-11.7529Q15.4688-11.9141 15.5859-12.1875L16.4648-14.2773Q15.293-15.3711 13.8281-15.791Q12.3633-16.2109 10.8398-15.7617Q10.7227-15.7324 10.6885-15.8057Q10.6543-15.8789 10.752-15.957Z"/>
  </g>
  <text style="stroke:none;fill:black;font-family:sans-serif;font-size:13;font-weight:bold;" transform="matrix(1 0 0 1 1289 1953)">Exporting</text>
  <text style="stroke:none;fill:black;font-family:sans-serif;font-size:13;" transform="matrix(1 0 0 1 1289 1971)">Symbols should be outlined when exporting to ensure the</text>
  <text style="stroke:none;fill:black;font-family:sans-serif;font-size:13;" transform="matrix(1 0 0 1 1289 1989)">design is preserved when submitting to Xcode.</text>
  <text id="template-version" style="stroke:none;fill:black;font-family:sans-serif;font-size:13;text-anchor:end;" transform="matrix(1 0 0 1 3036 1933)">Template v.3.0</text>
  <text style="stroke:none;fill:black;font-family:sans-serif;font-size:13;text-anchor:end;" transform="matrix(1 0 0 1 3036 1951)">Requires Xcode 13 or greater</text>
  <text id="descriptive-name" style="stroke:none;fill:black;font-family:sans-serif;font-size:13;text-anchor:end;" transform="matrix(1 0 0 1 3036 1969)">Generated from mail.fill</text>
  <text style="stroke:none;fill:black;font-family:sans-serif;font-size:13;text-anchor:end;" transform="matrix(1 0 0 1 3036 1987)">Typeset at 100 points</text>
  <text style="stroke:none;fill:black;font-family:sans-serif;font-size:13;" transform="matrix(1 0 0 1 263 726)">Small</text>
  <text style="stroke:none;fill:black;font-family:sans-serif;font-size:13;" transform="matrix(1 0 0 1 263 1156)">Medium</text>
  <text style="stroke:none;fill:black;font-family:sans-serif;font-size:13;" transform="matrix(1 0 0 1 263 1586)">Large</text>
 </g>
 <g id="Guides">
  <g id="H-reference" style="fill:#27AAE1;stroke:none;" transform="matrix(1 0 0 1 339 696)">
   <path d="M0.976562 0L3.66211 0L29.3457-67.1387L30.0293-67.1387L30.0293-70.459L28.125-70.459ZM11.6699-24.4629L46.9727-24.4629L46.2402-26.709L12.4512-26.709ZM55.127 0L57.7637 0L30.6152-70.459L29.4434-70.459L29.4434-67.1387Z"/>
  </g>
  <line id="Baseline-S" style="fill:none;stroke:#27AAE1;opacity:1;stroke-width:0.5;" x1="263" x2="3036" y1="696" y2="696"/>
  <line id="Capline-S" style="fill:none;stroke:#27AAE1;opacity:1;stroke-width:0.5;" x1="263" x2="3036" y1="625.541" y2="625.541"/>
  <g id="H-reference" style="fill:#27AAE1;stroke:none;" transform="matrix(1 0 0 1 339 1126)">
   <path d="M0.976562 0L3.66211 0L29.3457-67.1387L30.0293-67.1387L30.0293-70.459L28.125-70.459ZM11.6699-24.4629L46.9727-24.4629L46.2402-26.709L12.4512-26.709ZM55.127 0L57.7637 0L30.6152-70.459L29.4434-70.459L29.4434-67.1387Z"/>
  </g>
  <line id="Baseline-M" style="fill:none;stroke:#27AAE1;opacity:1;stroke-width:0.5;" x1="263" x2="3036" y1="1126" y2="1126"/>
  <line id="Capline-M" style="fill:none;stroke:#27AAE1;opacity:1;stroke-width:0.5;" x1="263" x2="3036" y1="1055.54" y2="1055.54"/>
  <g id="H-reference" style="fill:#27AAE1;stroke:none;" transform="matrix(1 0 0 1 339 1556)">
   <path d="M0.976562 0L3.66211 0L29.3457-67.1387L30.0293-67.1387L30.0293-70.459L28.125-70.459ZM11.6699-24.4629L46.9727-24.4629L46.2402-26.709L12.4512-26.709ZM55.127 0L57.7637 0L30.6152-70.459L29.4434-70.459L29.4434-67.1387Z"/>
  </g>
  <line id="Baseline-L" style="fill:none;stroke:#27AAE1;opacity:1;stroke-width:0.5;" x1="263" x2="3036" y1="1556" y2="1556"/>
  <line id="Capline-L" style="fill:none;stroke:#27AAE1;opacity:1;stroke-width:0.5;" x1="263" x2="3036" y1="1485.54" y2="1485.54"/>
  <line id="left-margin-Ultralight-S" style="fill:none;stroke:#00AEEF;stroke-width:0.5;opacity:1.0;" x1="505.707" x2="505.707" y1="600.785" y2="720.121"/>
  <line id="right-margin-Ultralight-S" style="fill:none;stroke:#00AEEF;stroke-width:0.5;opacity:1.0;" x1="613.715" x2="613.715" y1="600.785" y2="720.121"/>
  <line id="left-margin-Thin-S" style="fill:none;stroke:#00AEEF;stroke-width:0.5;opacity:1.0;" x1="802.174" x2="802.174" y1="600.785" y2="720.121"/>
  <line id="right-margin-Thin-S" style="fill:none;stroke:#00AEEF;stroke-width:0.5;opacity:1.0;" x1="910.67" x2="910.67" y1="600.785" y2="720.121"/>
  <line id="left-margin-Light-S" style="fill:none;stroke:#00AEEF;stroke-width:0.5;opacity:1.0;" x1="1098.42" x2="1098.42" y1="600.785" y2="720.121"/>
  <line id="right-margin-Light-S" style="fill:none;stroke:#00AEEF;stroke-width:0.5;opacity:1.0;" x1="1207.85" x2="1207.85" y1="600.785" y2="720.121"/>
  <line id="left-margin-Regular-S" style="fill:none;stroke:#00AEEF;stroke-width:0.5;opacity:1.0;" x1="1394.79" x2="1394.79" y1="600.785" y2="720.121"/>
  <line id="right-margin-Regular-S" style="fill:none;stroke:#00AEEF;stroke-width:0.5;opacity:1.0;" x1="1504.9" x2="1504.9" y1="600.785" y2="720.121"/>
  <line id="left-margin-Medium-S" style="fill:none;stroke:#00AEEF;stroke-width:0.5;opacity:1.0;" x1="1691.33" x2="1691.33" y1="600.785" y2="720.121"/>
  <line id="right-margin-Medium-S" style="fill:none;stroke:#00AEEF;stroke-width:0.5;opacity:1.0;" x1="1801.78" x2="1801.78" y1="600.785" y2="720.121"/>
  <line id="left-margin-Semibold-S" style="fill:none;stroke:#00AEEF;stroke-width:0.5;opacity:1.0;" x1="1987.9" x2="1987.9" y1="600.785" y2="720.121"/>
  <line id="right-margin-Semibold-S" style="fill:none;stroke:#00AEEF;stroke-width:0.5;opacity:1.0;" x1="2098.64" x2="2098.64" y1="600.785" y2="720.121"/>
  <line id="left-margin-Bold-S" style="fill:none;stroke:#00AEEF;stroke-width:0.5;opacity:1.0;" x1="2284.41" x2="2284.41" y1="600.785" y2="720.121"/>
  <line id="right-margin-Bold-S" style="fill:none;stroke:#00AEEF;stroke-width:0.5;opacity:1.0;" x1="2395.54" x2="2395.54" y1="600.785" y2="720.121"/>
  <line id="left-margin-Heavy-S" style="fill:none;stroke:#00AEEF;stroke-width:0.5;opacity:1.0;" x1="2580.88" x2="2580.88" y1="600.785" y2="720.121"/>
  <line id="right-margin-Heavy-S" style="fill:none;stroke:#00AEEF;stroke-width:0.5;opacity:1.0;" x1="2692.5" x2="2692.5" y1="600.785" y2="720.121"/>
  <line id="left-margin-Black-S" style="fill:none;stroke:#00AEEF;stroke-width:0.5;opacity:1.0;" x1="2877.35" x2="2877.35" y1="600.785" y2="720.121"/>
  <line id="right-margin-Black-S" style="fill:none;stroke:#00AEEF;stroke-width:0.5;opacity:1.0;" x1="2989.45" x2="2989.45" y1="600.785" y2="720.121"/>
  <line id="left-margin-Ultralight-M" style="fill:none;stroke:#00AEEF;stroke-width:0.5;opacity:1.0;" x1="490.863" x2="490.863" y1="1030.79" y2="1150.12"/>
  <line id="right-margin-Ultralight-M" style="fill:none;stroke:#00AEEF;stroke-width:0.5;opacity:1.0;" x1="628.559" x2="628.559" y1="1030.79" y2="1150.12"/>
  <line id="left-margin-Thin-M" style="fill:none;stroke:#00AEEF;stroke-width:0.5;opacity:1.0;" x1="787.306" x2="787.306" y1="1030.79" y2="1150.12"/>
  <line id="right-margin-Thin-M" style="fill:none;stroke:#00AEEF;stroke-width:0.5;opacity:1.0;" x1="925.538" x2="925.538" y1="1030.79" y2="1150.12"/>
  <line id="left-margin-Light-M" style="fill:none;stroke:#00AEEF;stroke-width:0.5;opacity:1.0;" x1="1083.5" x2="1083.5" y1="1030.79" y2="1150.12"/>
  <line id="right-margin-Light-M" style="fill:none;stroke:#00AEEF;stroke-width:0.5;opacity:1.0;" x1="1222.76" x2="1222.76" y1="1030.79" y2="1150.12"/>
  <line id="left-margin-Regular-M" style="fill:none;stroke:#00AEEF;stroke-width:0.5;opacity:1.0;" x1="1379.82" x2="1379.82" y1="1030.79" y2="1150.12"/>
  <line id="right-margin-Regular-M" style="fill:none;stroke:#00AEEF;stroke-width:0.5;opacity:1.0;" x1="1519.86" x2="1519.86" y1="1030.79" y2="1150.12"/>
  <line id="left-margin-Medium-M" style="fill:none;stroke:#00AEEF;stroke-width:0.5;opacity:1.0;" x1="1676.29" x2="1676.29" y1="1030.79" y2="1150.12"/>
  <line id="right-margin-Medium-M" style="fill:none;stroke:#00AEEF;stroke-width:0.5;opacity:1.0;" x1="1816.82" x2="1816.82" y1="1030.79" y2="1150.12"/>
  <line id="left-margin-Semibold-M" style="fill:none;stroke:#00AEEF;stroke-width:0.5;opacity:1.0;" x1="1972.81" x2="1972.81" y1="1030.79" y2="1150.12"/>
  <line id="right-margin-Semibold-M" style="fill:none;stroke:#00AEEF;stroke-width:0.5;opacity:1.0;" x1="2113.73" x2="2113.73" y1="1030.79" y2="1150.12"/>
  <line id="left-margin-Bold-M" style="fill:none;stroke:#00AEEF;stroke-width:0.5;opacity:1.0;" x1="2269.25" x2="2269.25" y1="1030.79" y2="1150.12"/>
  <line id="right-margin-Bold-M" style="fill:none;stroke:#00AEEF;stroke-width:0.5;opacity:1.0;" x1="2410.71" x2="2410.71" y1="1030.79" y2="1150.12"/>
  <line id="left-margin-Heavy-M" style="fill:none;stroke:#00AEEF;stroke-width:0.5;opacity:1.0;" x1="2565.6" x2="2565.6" y1="1030.79" y2="1150.12"/>
  <line id="right-margin-Heavy-M" style="fill:none;stroke:#00AEEF;stroke-width:0.5;opacity:1.0;" x1="2707.78" x2="2707.78" y1="1030.79" y2="1150.12"/>
  <line id="left-margin-Black-M" style="fill:none;stroke:#00AEEF;stroke-width:0.5;opacity:1.0;" x1="2861.96" x2="2861.96" y1="1030.79" y2="1150.12"/>
  <line id="right-margin-Black-M" style="fill:none;stroke:#00AEEF;stroke-width:0.5;opacity:1.0;" x1="3004.84" x2="3004.84" y1="1030.79" y2="1150.12"/>
  <line id="left-margin-Ultralight-L" style="fill:none;stroke:#00AEEF;stroke-width:0.5;opacity:1.0;" x1="471.015" x2="471.015" y1="1460.79" y2="1580.12"/>
  <line id="right-margin-Ultralight-L" style="fill:none;stroke:#00AEEF;stroke-width:0.5;opacity:1.0;" x1="648.407" x2="648.407" y1="1460.79" y2="1580.12"/>
  <line id="left-margin-Thin-L" style="fill:none;stroke:#00AEEF;stroke-width:0.5;opacity:1.0;" x1="767.409" x2="767.409" y1="1460.79" y2="1580.12"/>
  <line id="right-margin-Thin-L" style="fill:none;stroke:#00AEEF;stroke-width:0.5;opacity:1.0;" x1="945.436" x2="945.436" y1="1460.79" y2="1580.12"/>
  <line id="left-margin-Light-L" style="fill:none;stroke:#00AEEF;stroke-width:0.5;opacity:1.0;" x1="1063.53" x2="1063.53" y1="1460.79" y2="1580.12"/>
  <line id="right-margin-Light-L" style="fill:none;stroke:#00AEEF;stroke-width:0.5;opacity:1.0;" x1="1242.73" x2="1242.73" y1="1460.79" y2="1580.12"/>
  <line id="left-margin-Regular-L" style="fill:none;stroke:#00AEEF;stroke-width:0.5;opacity:1.0;" x1="1359.81" x2="1359.81" y1="1460.79" y2="1580.12"/>
  <line id="right-margin-Regular-L" style="fill:none;stroke:#00AEEF;stroke-width:0.5;opacity:1.0;" x1="1539.88" x2="1539.88" y1="1460.79" y2="1580.12"/>
  <line id="left-margin-Medium-L" style="fill:none;stroke:#00AEEF;stroke-width:0.5;opacity:1.0;" x1="1656.17" x2="1656.17" y1="1460.79" y2="1580.12"/>
  <line id="right-margin-Medium-L" style="fill:none;stroke:#00AEEF;stroke-width:0.5;opacity:1.0;" x1="1836.94" x2="1836.94" y1="1460.79" y2="1580.12"/>
  <line id="left-margin-Semibold-L" style="fill:none;stroke:#00AEEF;stroke-width:0.5;opacity:1.0;" x1="1952.64" x2="1952.64" y1="1460.79" y2="1580.12"/>
  <line id="right-margin-Semibold-L" style="fill:none;stroke:#00AEEF;stroke-width:0.5;opacity:1.0;" x1="2133.89" x2="2133.89" y1="1460.79" y2="1580.12"/>
  <line id="left-margin-Bold-L" style="fill:none;stroke:#00AEEF;stroke-width:0.5;opacity:1.0;" x1="2249.01" x2="2249.01" y1="1460.79" y2="1580.12"/>
  <line id="right-margin-Bold-L" style="fill:none;stroke:#00AEEF;stroke-width:0.5;opacity:1.0;" x1="2430.94" x2="2430.94" y1="1460.79" y2="1580.12"/>
  <line id="left-margin-Heavy-L" style="fill:none;stroke:#00AEEF;stroke-width:0.5;opacity:1.0;" x1="2545.23" x2="2545.23" y1="1460.79" y2="1580.12"/>
  <line id="right-margin-Heavy-L" style="fill:none;stroke:#00AEEF;stroke-width:0.5;opacity:1.0;" x1="2728.14" x2="2728.14" y1="1460.79" y2="1580.12"/>
  <line id="left-margin-Black-L" style="fill:none;stroke:#00AEEF;stroke-width:0.5;opacity:1.0;" x1="2841.51" x2="2841.51" y1="1460.79" y2="1580.12"/>
  <line id="right-margin-Black-L" style="fill:none;stroke:#00AEEF;stroke-width:0.5;opacity:1.0;" x1="3025.29" x2="3025.29" y1="1460.79" y2="1580.12"/>
 </g>
 <g id="Symbols">
  <g id="Black-L" transform="matrix(1 0 0 1 2841.51 1556)">
   <path d="M51.709-48.6816Q49.3652-48.6816 47.7783-50.4395Q46.1914-52.1973 46.1914-54.3945Q46.1914-56.7383 47.7539-58.3984Q49.3164-60.0586 51.709-60.0586L82.7637-60.0586Q85.1562-60.0586 86.7432-58.4229Q88.3301-56.7871 88.3301-54.3945Q88.3301-52.2461 86.7188-50.4639Q85.1074-48.6816 82.7637-48.6816ZM51.709-32.1289Q49.3652-32.1289 47.7783-33.8135Q46.1914-35.498 46.1914-37.7441Q46.1914-40.0391 47.7539-41.7725Q49.3164-43.5059 51.709-43.5059L73.4375-43.5059Q75.7812-43.5059 77.3682-41.7969Q78.9551-40.0879 78.9551-37.7441Q78.9551-35.498 77.3438-33.8135Q75.7324-32.1289 73.4375-32.1289ZM121.973-31.7871Q117.676-31.7871 114.111-33.9111Q110.547-36.0352 108.447-39.5752Q106.348-43.1152 106.348-47.4609Q106.348-51.7578 108.447-55.3223Q110.547-58.8867 114.111-60.9863Q117.676-63.0859 121.973-63.0859Q126.27-63.0859 129.81-60.9863Q133.35-58.8867 135.449-55.3223Q137.549-51.7578 137.549-47.4609Q137.549-43.1152 135.449-39.5752Q133.35-36.0352 129.81-33.9111Q126.27-31.7871 121.973-31.7871ZM39.9902 26.5137L143.799 26.5137Q155.225 26.5137 161.475 20.3125Q167.725 14.1113 167.725 2.68555L167.725-73.0957Q167.725-84.4727 161.475-90.6738Q155.225-96.875 143.799-96.875L39.9902-96.875Q28.5645-96.875 22.3145-90.6738Q16.0645-84.4727 16.0645-73.0957L16.0645 2.68555Q16.0645 14.1113 22.3145 20.3125Q28.5645 26.5137 39.9902 26.5137Z"/>
  </g>
  <g id="Heavy-L" transform="matrix(1 0 0 1 2545.23 1556)">
   <path d="M50.0488-50.4395Q47.9004-50.4395 46.4355-52.0508Q44.9707-53.6621 44.9707-55.7129Q44.9707-57.9102 46.4111-59.4238Q47.8516-60.9375 50.0488-60.9375L83.6426-60.9375Q85.8398-60.9375 87.3047-59.4238Q88.7695-57.9102 88.7695-55.7129Q88.7695-53.7109 87.2803-52.0752Q85.791-50.4395 83.6426-50.4395ZM50.0488-33.9844Q47.9004-33.9844 46.4355-35.5225Q44.9707-37.0605 44.9707-39.1602Q44.9707-41.2598 46.4111-42.8467Q47.8516-44.4336 50.0488-44.4336L73.877-44.4336Q76.0254-44.4336 77.4902-42.8711Q78.9551-41.3086 78.9551-39.1602Q78.9551-37.0605 77.4658-35.5225Q75.9766-33.9844 73.877-33.9844ZM122.461-33.1055Q118.213-33.1055 114.673-35.2051Q111.133-37.3047 109.058-40.8203Q106.982-44.3359 106.982-48.6328Q106.982-52.9297 109.058-56.4453Q111.133-59.9609 114.673-62.0605Q118.213-64.1602 122.461-64.1602Q126.709-64.1602 130.225-62.0605Q133.74-59.9609 135.84-56.4453Q137.939-52.9297 137.939-48.6328Q137.939-44.3359 135.84-40.8203Q133.74-37.3047 130.225-35.2051Q126.709-33.1055 122.461-33.1055ZM38.8184 25.4883L144.092 25.4883Q155.029 25.4883 160.938 19.6289Q166.846 13.7695 166.846 2.83203L166.846-73.2422Q166.846-84.1309 160.938-89.9902Q155.029-95.8496 144.092-95.8496L38.8184-95.8496Q27.8809-95.8496 21.9727-90.0146Q16.0645-84.1797 16.0645-73.2422L16.0645 2.83203Q16.0645 13.7695 21.9727 19.6289Q27.8809 25.4883 38.8184 25.4883Z"/>
  </g>
  <g id="Bold-L" transform="matrix(1 0 0 1 2249.01 1556)">
   <path d="M48.1934-52.4414Q46.2402-52.4414 44.8975-53.8818Q43.5547-55.3223 43.5547-57.2266Q43.5547-59.1797 44.873-60.5469Q46.1914-61.9141 48.1934-61.9141L84.6191-61.9141Q86.5723-61.9141 87.915-60.5713Q89.2578-59.2285 89.2578-57.2266Q89.2578-55.3223 87.915-53.8818Q86.5723-52.4414 84.6191-52.4414ZM48.1934-36.0352Q46.2402-36.0352 44.8975-37.4268Q43.5547-38.8184 43.5547-40.7227Q43.5547-42.6758 44.873-44.0918Q46.1914-45.5078 48.1934-45.5078L74.3652-45.5078Q76.3184-45.5078 77.6611-44.0918Q79.0039-42.6758 79.0039-40.7227Q79.0039-38.8184 77.6611-37.4268Q76.3184-36.0352 74.3652-36.0352ZM123.047-34.6191Q118.799-34.6191 115.308-36.6943Q111.816-38.7695 109.741-42.2607Q107.666-45.752 107.666-50Q107.666-54.248 109.741-57.7393Q111.816-61.2305 115.308-63.3057Q118.799-65.3809 123.047-65.3809Q127.246-65.3809 130.737-63.3057Q134.229-61.2305 136.279-57.7393Q138.33-54.248 138.33-50Q138.33-45.752 136.279-42.2607Q134.229-38.7695 130.737-36.6943Q127.246-34.6191 123.047-34.6191ZM37.5488 24.3652L144.385 24.3652Q154.834 24.3652 160.352 18.8965Q165.869 13.4277 165.869 3.02734L165.869-73.4375Q165.869-83.7891 160.352-89.2822Q154.834-94.7754 144.385-94.7754L37.5488-94.7754Q27.0996-94.7754 21.582-89.3066Q16.0645-83.8379 16.0645-73.4375L16.0645 3.02734Q16.0645 13.4277 21.582 18.8965Q27.0996 24.3652 37.5488 24.3652Z"/>
  </g>
  <g id="Semibold-L" transform="matrix(1 0 0 1 1952.64 1556)">
   <path d="M46.9238-53.8086Q45.0684-53.8086 43.8232-55.127Q42.5781-56.4453 42.5781-58.2031Q42.5781-60.0586 43.8232-61.3281Q45.0684-62.5977 46.9238-62.5977L85.2539-62.5977Q87.1094-62.5977 88.3545-61.3525Q89.5996-60.1074 89.5996-58.2031Q89.5996-56.4453 88.3301-55.127Q87.0605-53.8086 85.2539-53.8086ZM46.9238-37.4023Q45.0684-37.4023 43.8232-38.6963Q42.5781-39.9902 42.5781-41.7969Q42.5781-43.6035 43.8232-44.9219Q45.0684-46.2402 46.9238-46.2402L74.6582-46.2402Q76.5137-46.2402 77.7588-44.9219Q79.0039-43.6035 79.0039-41.7969Q79.0039-39.9902 77.7588-38.6963Q76.5137-37.4023 74.6582-37.4023ZM123.389-35.5957Q119.189-35.5957 115.723-37.6709Q112.256-39.7461 110.205-43.2129Q108.154-46.6797 108.154-50.8789Q108.154-55.127 110.205-58.5938Q112.256-62.0605 115.723-64.1113Q119.189-66.1621 123.389-66.1621Q127.588-66.1621 131.055-64.1113Q134.521-62.0605 136.572-58.5938Q138.623-55.127 138.623-50.8789Q138.623-46.6797 136.572-43.2129Q134.521-39.7461 131.055-37.6709Q127.588-35.5957 123.389-35.5957ZM36.6211 23.5352L144.58 23.5352Q154.688 23.5352 159.937 18.335Q165.186 13.1348 165.186 3.17383L165.186-73.584Q165.186-83.5449 159.937-88.7695Q154.688-93.9941 144.58-93.9941L36.6211-93.9941Q26.5625-93.9941 21.3135-88.7939Q16.0645-83.5938 16.0645-73.584L16.0645 3.17383Q16.0645 13.1836 21.3135 18.3594Q26.5625 23.5352 36.6211 23.5352Z"/>
  </g>
  <g id="Medium-L" transform="matrix(1 0 0 1 1656.17 1556)">
   <path d="M45.9473-54.834Q44.1895-54.834 43.0176-56.0547Q41.8457-57.2754 41.8457-58.9844Q41.8457-60.7422 43.0176-61.9141Q44.1895-63.0859 45.9473-63.0859L85.791-63.0859Q87.5-63.0859 88.6719-61.9141Q89.8438-60.7422 89.8438-58.9844Q89.8438-57.2754 88.6475-56.0547Q87.4512-54.834 85.791-54.834ZM45.9473-38.4766Q44.1895-38.4766 43.0176-39.6973Q41.8457-40.918 41.8457-42.5781Q41.8457-44.3359 43.0176-45.5566Q44.1895-46.7773 45.9473-46.7773L74.9023-46.7773Q76.6602-46.7773 77.8564-45.5566Q79.0527-44.3359 79.0527-42.5781Q79.0527-40.918 77.8564-39.6973Q76.6602-38.4766 74.9023-38.4766ZM123.682-36.377Q119.531-36.377 116.064-38.4277Q112.598-40.4785 110.547-43.9453Q108.496-47.4121 108.496-51.5625Q108.496-55.8105 110.547-59.2529Q112.598-62.6953 116.064-64.7461Q119.531-66.7969 123.682-66.7969Q127.881-66.7969 131.323-64.7461Q134.766-62.6953 136.792-59.2529Q138.818-55.8105 138.818-51.5625Q138.818-47.4121 136.792-43.9453Q134.766-40.4785 131.323-38.4277Q127.881-36.377 123.682-36.377ZM35.9375 22.9492L144.775 22.9492Q154.59 22.9492 159.644 17.9443Q164.697 12.9395 164.697 3.22266L164.697-73.6328Q164.697-83.3496 159.644-88.3789Q154.59-93.4082 144.775-93.4082L35.9375-93.4082Q26.1719-93.4082 21.1182-88.4033Q16.0645-83.3984 16.0645-73.6328L16.0645 3.22266Q16.0645 12.9883 21.1182 17.9688Q26.1719 22.9492 35.9375 22.9492Z"/>
  </g>
  <g id="Regular-L" transform="matrix(1 0 0 1 1359.81 1556)">
   <path d="M44.6777-56.2012Q43.0664-56.2012 41.9922-57.2998Q40.918-58.3984 40.918-60.0098Q40.918-61.6211 41.9922-62.6953Q43.0664-63.7695 44.6777-63.7695L86.4258-63.7695Q87.9883-63.7695 89.0869-62.6953Q90.1855-61.6211 90.1855-60.0098Q90.1855-58.3984 89.0869-57.2998Q87.9883-56.2012 86.4258-56.2012ZM44.6777-39.8926Q43.0664-39.8926 41.9922-40.9912Q40.918-42.0898 40.918-43.6523Q40.918-45.2637 41.9922-46.3867Q43.0664-47.5098 44.6777-47.5098L75.2441-47.5098Q76.8555-47.5098 77.9541-46.3867Q79.0527-45.2637 79.0527-43.6523Q79.0527-42.0898 77.9541-40.9912Q76.8555-39.8926 75.2441-39.8926ZM124.072-37.4023Q119.922-37.4023 116.479-39.4287Q113.037-41.4551 111.011-44.8975Q108.984-48.3398 108.984-52.4902Q108.984-56.6895 111.011-60.1074Q113.037-63.5254 116.479-65.5762Q119.922-67.627 124.072-67.627Q128.223-67.627 131.641-65.5762Q135.059-63.5254 137.085-60.1074Q139.111-56.6895 139.111-52.4902Q139.111-48.3398 137.085-44.8975Q135.059-41.4551 131.641-39.4287Q128.223-37.4023 124.072-37.4023ZM35.0586 22.168L144.971 22.168Q154.443 22.168 159.229 17.4316Q164.014 12.6953 164.014 3.36914L164.014-73.7793Q164.014-83.1055 159.229-87.8662Q154.443-92.627 144.971-92.627L35.0586-92.627Q25.6348-92.627 20.8496-87.8906Q16.0645-83.1543 16.0645-73.7793L16.0645 3.36914Q16.0645 12.7441 20.8496 17.4561Q25.6348 22.168 35.0586 22.168Z"/>
  </g>
  <g id="Light-L" transform="matrix(1 0 0 1 1063.53 1556)">
   <path d="M42.9199-57.7148Q41.6504-57.7148 40.7959-58.5938Q39.9414-59.4727 39.9414-60.6934Q39.9414-61.9629 40.7959-62.8174Q41.6504-63.6719 42.9199-63.6719L86.1328-63.6719Q87.3535-63.6719 88.208-62.8174Q89.0625-61.9629 89.0625-60.6934Q89.0625-59.4727 88.208-58.5938Q87.3535-57.7148 86.1328-57.7148ZM42.9199-42.0898Q41.6504-42.0898 40.7959-42.9688Q39.9414-43.8477 39.9414-45.0684Q39.9414-46.3379 40.7959-47.1924Q41.6504-48.0469 42.9199-48.0469L74.6094-48.0469Q75.8789-48.0469 76.7334-47.1924Q77.5879-46.3379 77.5879-45.0684Q77.5879-43.8477 76.7334-42.9688Q75.8789-42.0898 74.6094-42.0898ZM124.17-38.5742Q120.02-38.5742 116.577-40.6006Q113.135-42.627 111.108-46.0693Q109.082-49.5117 109.082-53.6621Q109.082-57.8613 111.108-61.2793Q113.135-64.6973 116.577-66.748Q120.02-68.7988 124.17-68.7988Q128.32-68.7988 131.738-66.748Q135.156-64.6973 137.183-61.2793Q139.209-57.8613 139.209-53.6621Q139.209-49.5117 137.183-46.0693Q135.156-42.627 131.738-40.6006Q128.32-38.5742 124.17-38.5742ZM34.0332 21.3379L145.117 21.3379Q154.053 21.3379 158.594 16.7969Q163.135 12.2559 163.135 3.4668L163.135-73.9258Q163.135-82.7148 158.594-87.2559Q154.053-91.7969 145.117-91.7969L34.0332-91.7969Q25.1465-91.7969 20.6055-87.2803Q16.0645-82.7637 16.0645-73.9258L16.0645 3.4668Q16.0645 12.3047 20.6055 16.8213Q25.1465 21.3379 34.0332 21.3379Z"/>
  </g>
  <g id="Thin-L" transform="matrix(1 0 0 1 767.409 1556)">
   <path d="M40.5762-59.7656Q39.7949-59.7656 39.2334-60.3027Q38.6719-60.8398 38.6719-61.6211Q38.6719-62.4512 39.2334-62.9883Q39.7949-63.5254 40.5762-63.5254L85.7422-63.5254Q86.5234-63.5254 87.0605-62.9883Q87.5977-62.4512 87.5977-61.6211Q87.5977-60.8398 87.0605-60.3027Q86.5234-59.7656 85.7422-59.7656ZM40.5762-45.0195Q39.7949-45.0195 39.2334-45.5811Q38.6719-46.1426 38.6719-46.9238Q38.6719-47.7051 39.2334-48.2666Q39.7949-48.8281 40.5762-48.8281L73.7793-48.8281Q74.5605-48.8281 75.1221-48.2666Q75.6836-47.7051 75.6836-46.9238Q75.6836-46.1426 75.1221-45.5811Q74.5605-45.0195 73.7793-45.0195ZM124.365-40.0879Q120.166-40.0879 116.748-42.1143Q113.33-44.1406 111.279-47.583Q109.229-51.0254 109.229-55.1758Q109.229-59.375 111.279-62.793Q113.33-66.2109 116.748-68.2617Q120.166-70.3125 124.365-70.3125Q128.516-70.3125 131.909-68.2617Q135.303-66.2109 137.354-62.793Q139.404-59.375 139.404-55.1758Q139.404-51.0254 137.354-47.583Q135.303-44.1406 131.909-42.1143Q128.516-40.0879 124.365-40.0879ZM32.666 20.2148L145.312 20.2148Q153.516 20.2148 157.739 15.918Q161.963 11.6211 161.963 3.61328L161.963-74.1211Q161.963-82.1777 157.739-86.4502Q153.516-90.7227 145.312-90.7227L32.666-90.7227Q24.5117-90.7227 20.2881-86.499Q16.0645-82.2754 16.0645-74.1211L16.0645 3.61328Q16.0645 11.7676 20.2881 15.9912Q24.5117 20.2148 32.666 20.2148Z"/>
  </g>
  <g id="Ultralight-L" transform="matrix(1 0 0 1 471.015 1556)">
   <path d="M39.3555-60.791Q38.8672-60.791 38.4277-61.1816Q37.9883-61.5723 37.9883-62.1094Q37.9883-62.6465 38.4277-63.0371Q38.8672-63.4277 39.3555-63.4277L85.498-63.4277Q86.084-63.4277 86.4746-63.0371Q86.8652-62.6465 86.8652-62.1094Q86.8652-61.5723 86.4746-61.1816Q86.084-60.791 85.498-60.791ZM39.3555-46.5332Q38.8672-46.5332 38.4277-46.9238Q37.9883-47.3145 37.9883-47.8516Q37.9883-48.4375 38.4277-48.8037Q38.8672-49.1699 39.3555-49.1699L73.3398-49.1699Q73.9258-49.1699 74.3164-48.8037Q74.707-48.4375 74.707-47.8516Q74.707-47.3145 74.3164-46.9238Q73.9258-46.5332 73.3398-46.5332ZM124.414-40.918Q120.264-40.918 116.821-42.9443Q113.379-44.9707 111.353-48.4131Q109.326-51.8555 109.326-56.0059Q109.326-60.2051 111.353-63.623Q113.379-67.041 116.821-69.0918Q120.264-71.1426 124.414-71.1426Q128.564-71.1426 131.982-69.0918Q135.4-67.041 137.427-63.623Q139.453-60.2051 139.453-56.0059Q139.453-51.8555 137.427-48.4131Q135.4-44.9707 131.982-42.9443Q128.564-40.918 124.414-40.918ZM31.9824 19.6289L145.41 19.6289Q153.223 19.6289 157.275 15.4785Q161.328 11.3281 161.328 3.71094L161.328-74.2188Q161.328-81.8848 157.275-86.0352Q153.223-90.1855 145.41-90.1855L31.9824-90.1855Q24.1699-90.1855 20.1172-86.1084Q16.0645-82.0312 16.0645-74.2188L16.0645 3.71094Q16.0645 11.4746 20.1172 15.5518Q24.1699 19.6289 31.9824 19.6289Z"/>
  </g>
  <g id="Black-M" transform="matrix(1 0 0 1 2861.96 1126)">
   <path d="M40.8691-44.6777Q39.0625-44.6777 37.8174-46.0693Q36.5723-47.4609 36.5723-49.1699Q36.5723-51.0254 37.793-52.3682Q39.0137-53.7109 40.8691-53.7109L63.3301-53.7109Q65.1855-53.7109 66.4307-52.3926Q67.6758-51.0742 67.6758-49.1699Q67.6758-47.5098 66.4062-46.0938Q65.1367-44.6777 63.3301-44.6777ZM40.8691-32.0312Q39.0625-32.0312 37.8174-33.3496Q36.5723-34.668 36.5723-36.4746Q36.5723-38.2812 37.793-39.6484Q39.0137-41.0156 40.8691-41.0156L56.3477-41.0156Q58.2031-41.0156 59.4482-39.6729Q60.6934-38.3301 60.6934-36.4746Q60.6934-34.668 59.4238-33.3496Q58.1543-32.0312 56.3477-32.0312ZM94.1406-31.8359Q90.7715-31.8359 87.9883-33.4961Q85.2051-35.1562 83.5693-37.915Q81.9336-40.6738 81.9336-44.0918Q81.9336-47.4609 83.5693-50.2441Q85.2051-53.0273 87.9883-54.6631Q90.7715-56.2988 94.1406-56.2988Q97.5098-56.2988 100.269-54.6631Q103.027-53.0273 104.663-50.2441Q106.299-47.4609 106.299-44.0918Q106.299-40.6738 104.663-37.915Q103.027-35.1562 100.269-33.4961Q97.5098-31.8359 94.1406-31.8359ZM31.5918 13.2324L111.279 13.2324Q120.312 13.2324 125.366 8.17871Q130.42 3.125 130.42-5.9082L130.42-64.4531Q130.42-73.5352 125.366-78.5645Q120.312-83.5938 111.279-83.5938L31.5918-83.5938Q22.5586-83.5938 17.5049-78.5645Q12.4512-73.5352 12.4512-64.4531L12.4512-5.9082Q12.4512 3.125 17.5049 8.17871Q22.5586 13.2324 31.5918 13.2324Z"/>
  </g>
  <g id="Heavy-M" transform="matrix(1 0 0 1 2565.6 1126)">
   <path d="M39.6484-46.0938Q37.8906-46.0938 36.7188-47.3877Q35.5469-48.6816 35.5469-50.3418Q35.5469-52.0508 36.7188-53.3203Q37.8906-54.5898 39.6484-54.5898L64.209-54.5898Q65.9668-54.5898 67.1631-53.3447Q68.3594-52.0996 68.3594-50.3418Q68.3594-48.7305 67.1631-47.4121Q65.9668-46.0938 64.209-46.0938ZM39.6484-33.3496Q37.8906-33.3496 36.7188-34.5947Q35.5469-35.8398 35.5469-37.5488Q35.5469-39.2578 36.7188-40.5273Q37.8906-41.7969 39.6484-41.7969L56.8848-41.7969Q58.6426-41.7969 59.8389-40.5518Q61.0352-39.3066 61.0352-37.5488Q61.0352-35.8398 59.8145-34.5947Q58.5938-33.3496 56.8848-33.3496ZM94.5801-32.8613Q91.2598-32.8613 88.501-34.5215Q85.7422-36.1816 84.1309-38.916Q82.5195-41.6504 82.5195-45.0195Q82.5195-48.3398 84.1309-51.0986Q85.7422-53.8574 88.501-55.4688Q91.2598-57.0801 94.5801-57.0801Q97.9492-57.0801 100.684-55.4688Q103.418-53.8574 105.029-51.0986Q106.641-48.3398 106.641-45.0195Q106.641-41.6504 105.029-38.916Q103.418-36.1816 100.684-34.5215Q97.9492-32.8613 94.5801-32.8613ZM30.7129 12.4023L111.523 12.4023Q120.215 12.4023 124.976 7.6416Q129.736 2.88086 129.736-5.76172L129.736-64.5996Q129.736-73.291 124.976-78.0273Q120.215-82.7637 111.523-82.7637L30.7129-82.7637Q21.9727-82.7637 17.2119-78.0518Q12.4512-73.3398 12.4512-64.5996L12.4512-5.76172Q12.4512 2.88086 17.2119 7.6416Q21.9727 12.4023 30.7129 12.4023Z"/>
  </g>
  <g id="Bold-M" transform="matrix(1 0 0 1 2269.25 1126)">
   <path d="M38.2812-47.6562Q36.6211-47.6562 35.5225-48.8525Q34.4238-50.0488 34.4238-51.6113Q34.4238-53.2715 35.5225-54.4189Q36.6211-55.5664 38.2812-55.5664L65.2344-55.5664Q66.8945-55.5664 68.0176-54.4189Q69.1406-53.2715 69.1406-51.6113Q69.1406-50.0488 67.9932-48.8525Q66.8457-47.6562 65.2344-47.6562ZM38.2812-34.8145Q36.6211-34.8145 35.5225-35.9619Q34.4238-37.1094 34.4238-38.7207Q34.4238-40.332 35.5225-41.5283Q36.6211-42.7246 38.2812-42.7246L57.5195-42.7246Q59.1797-42.7246 60.3027-41.5527Q61.4258-40.3809 61.4258-38.7207Q61.4258-37.1094 60.2783-35.9619Q59.1309-34.8145 57.5195-34.8145ZM95.1172-34.0332Q91.8457-34.0332 89.1113-35.6689Q86.377-37.3047 84.7656-40.0146Q83.1543-42.7246 83.1543-46.0449Q83.1543-49.3164 84.7656-52.0508Q86.377-54.7852 89.1113-56.3965Q91.8457-58.0078 95.1172-58.0078Q98.4375-58.0078 101.123-56.3965Q103.809-54.7852 105.42-52.0508Q107.031-49.3164 107.031-46.0449Q107.031-42.7246 105.42-40.0146Q103.809-37.3047 101.123-35.6689Q98.4375-34.0332 95.1172-34.0332ZM29.6875 11.4746L111.768 11.4746Q120.166 11.4746 124.585 7.05566Q129.004 2.63672 129.004-5.66406L129.004-64.7461Q129.004-73.0469 124.585-77.4658Q120.166-81.8848 111.768-81.8848L29.6875-81.8848Q21.3379-81.8848 16.8945-77.4902Q12.4512-73.0957 12.4512-64.7461L12.4512-5.66406Q12.4512 2.63672 16.8945 7.05566Q21.3379 11.4746 29.6875 11.4746Z"/>
  </g>
  <g id="Semibold-M" transform="matrix(1 0 0 1 1972.81 1126)">
   <path d="M37.3047-48.7305Q35.7422-48.7305 34.6924-49.8535Q33.6426-50.9766 33.6426-52.4902Q33.6426-54.0527 34.668-55.1514Q35.6934-56.25 37.3047-56.25L65.918-56.25Q67.4805-56.25 68.5547-55.1514Q69.6289-54.0527 69.6289-52.4902Q69.6289-50.9766 68.5547-49.8535Q67.4805-48.7305 65.918-48.7305ZM37.3047-35.791Q35.7422-35.791 34.6924-36.8896Q33.6426-37.9883 33.6426-39.5508Q33.6426-41.0645 34.668-42.1875Q35.6934-43.3105 37.3047-43.3105L57.959-43.3105Q59.5215-43.3105 60.5957-42.2119Q61.6699-41.1133 61.6699-39.5508Q61.6699-37.9883 60.5713-36.8896Q59.4727-35.791 57.959-35.791ZM95.459-34.8145Q92.1875-34.8145 89.502-36.4258Q86.8164-38.0371 85.2051-40.7471Q83.5938-43.457 83.5938-46.7285Q83.5938-50 85.2051-52.6855Q86.8164-55.3711 89.502-56.9824Q92.1875-58.5938 95.459-58.5938Q98.7305-58.5938 101.416-56.9824Q104.102-55.3711 105.688-52.6855Q107.275-50 107.275-46.7285Q107.275-43.457 105.688-40.7471Q104.102-38.0371 101.416-36.4258Q98.7305-34.8145 95.459-34.8145ZM29.0039 10.8398L111.963 10.8398Q120.068 10.8398 124.268 6.64062Q128.467 2.44141 128.467-5.51758L128.467-64.8438Q128.467-72.8516 124.268-77.0508Q120.068-81.25 111.963-81.25L29.0039-81.25Q20.8984-81.25 16.6748-77.0752Q12.4512-72.9004 12.4512-64.8438L12.4512-5.51758Q12.4512 2.44141 16.6748 6.64062Q20.8984 10.8398 29.0039 10.8398Z"/>
  </g>
  <g id="Medium-M" transform="matrix(1 0 0 1 1676.29 1126)">
   <path d="M36.5723-49.5117Q35.0586-49.5117 34.0576-50.5859Q33.0566-51.6602 33.0566-53.1738Q33.0566-54.6875 34.0576-55.7129Q35.0586-56.7383 36.5723-56.7383L66.4551-56.7383Q67.9688-56.7383 68.9941-55.7129Q70.0195-54.6875 70.0195-53.1738Q70.0195-51.6602 68.9697-50.5859Q67.9199-49.5117 66.4551-49.5117ZM36.5723-36.5723Q35.0586-36.5723 34.0576-37.6221Q33.0566-38.6719 33.0566-40.1367Q33.0566-41.6504 34.0576-42.7246Q35.0586-43.7988 36.5723-43.7988L58.252-43.7988Q59.7656-43.7988 60.8154-42.7246Q61.8652-41.6504 61.8652-40.1367Q61.8652-38.6719 60.8154-37.6221Q59.7656-36.5723 58.252-36.5723ZM95.752-35.4492Q92.4805-35.4492 89.7949-37.0361Q87.1094-38.623 85.5225-41.3086Q83.9355-43.9941 83.9355-47.2656Q83.9355-50.4883 85.5225-53.1738Q87.1094-55.8594 89.7949-57.4707Q92.4805-59.082 95.752-59.082Q98.9746-59.082 101.636-57.4707Q104.297-55.8594 105.908-53.1738Q107.52-50.4883 107.52-47.2656Q107.52-43.9941 105.908-41.3086Q104.297-38.623 101.636-37.0361Q98.9746-35.4492 95.752-35.4492ZM28.4668 10.3516L112.061 10.3516Q120.02 10.3516 124.048 6.34766Q128.076 2.34375 128.076-5.46875L128.076-64.9414Q128.076-72.7539 124.048-76.7822Q120.02-80.8105 112.061-80.8105L28.4668-80.8105Q20.5566-80.8105 16.5039-76.7822Q12.4512-72.7539 12.4512-64.9414L12.4512-5.46875Q12.4512 2.34375 16.5039 6.34766Q20.5566 10.3516 28.4668 10.3516Z"/>
  </g>
  <g id="Regular-M" transform="matrix(1 0 0 1 1379.82 1126)">
   <path d="M35.6445-50.5859Q34.1797-50.5859 33.2275-51.5869Q32.2754-52.5879 32.2754-54.0527Q32.2754-55.4688 33.2275-56.4453Q34.1797-57.4219 35.6445-57.4219L67.1387-57.4219Q68.5547-57.4219 69.5557-56.4453Q70.5566-55.4688 70.5566-54.0527Q70.5566-52.5879 69.5557-51.5869Q68.5547-50.5859 67.1387-50.5859ZM35.6445-37.5488Q34.1797-37.5488 33.2275-38.5498Q32.2754-39.5508 32.2754-40.9668Q32.2754-42.3828 33.2275-43.3838Q34.1797-44.3848 35.6445-44.3848L58.6914-44.3848Q60.1074-44.3848 61.1084-43.3838Q62.1094-42.3828 62.1094-40.9668Q62.1094-39.5508 61.1084-38.5498Q60.1074-37.5488 58.6914-37.5488ZM96.0938-36.2305Q92.8711-36.2305 90.21-37.8174Q87.5488-39.4043 85.9619-42.0654Q84.375-44.7266 84.375-47.9492Q84.375-51.1719 85.9619-53.833Q87.5488-56.4941 90.21-58.0811Q92.8711-59.668 96.0938-59.668Q99.3164-59.668 101.953-58.0811Q104.59-56.4941 106.177-53.833Q107.764-51.1719 107.764-47.9492Q107.764-44.7266 106.177-42.0654Q104.59-39.4043 101.953-37.8174Q99.3164-36.2305 96.0938-36.2305ZM27.7832 9.7168L112.256 9.7168Q119.971 9.7168 123.779 5.93262Q127.588 2.14844 127.588-5.37109L127.588-65.0391Q127.588-72.5586 123.779-76.3672Q119.971-80.1758 112.256-80.1758L27.7832-80.1758Q20.1172-80.1758 16.2842-76.3916Q12.4512-72.6074 12.4512-65.0391L12.4512-5.37109Q12.4512 2.14844 16.2842 5.93262Q20.1172 9.7168 27.7832 9.7168Z"/>
  </g>
  <g id="Light-M" transform="matrix(1 0 0 1 1083.5 1126)">
   <path d="M34.0332-51.9531Q32.9102-51.9531 32.1533-52.7588Q31.3965-53.5645 31.3965-54.6875Q31.3965-55.8105 32.1533-56.5674Q32.9102-57.3242 34.0332-57.3242L66.8945-57.3242Q67.9688-57.3242 68.7744-56.5674Q69.5801-55.8105 69.5801-54.6875Q69.5801-53.5645 68.7744-52.7588Q67.9688-51.9531 66.8945-51.9531ZM34.0332-39.5508Q32.9102-39.5508 32.1533-40.332Q31.3965-41.1133 31.3965-42.2363Q31.3965-43.3594 32.1533-44.1406Q32.9102-44.9219 34.0332-44.9219L58.1055-44.9219Q59.2285-44.9219 60.0098-44.1406Q60.791-43.3594 60.791-42.2363Q60.791-41.1133 60.0098-40.332Q59.2285-39.5508 58.1055-39.5508ZM96.1914-37.2559Q92.9688-37.2559 90.3076-38.8428Q87.6465-40.4297 86.0596-43.0908Q84.4727-45.752 84.4727-48.9746Q84.4727-52.1973 86.0596-54.8584Q87.6465-57.5195 90.3076-59.1064Q92.9688-60.6934 96.1914-60.6934Q99.4141-60.6934 102.051-59.1064Q104.688-57.5195 106.274-54.8584Q107.861-52.1973 107.861-48.9746Q107.861-45.752 106.274-43.0908Q104.688-40.4297 102.051-38.8428Q99.4141-37.2559 96.1914-37.2559ZM26.8555 8.98438L112.402 8.98438Q119.58 8.98438 123.193 5.37109Q126.807 1.75781 126.807-5.27344L126.807-65.1855Q126.807-72.2168 123.193-75.8301Q119.58-79.4434 112.402-79.4434L26.8555-79.4434Q19.6777-79.4434 16.0645-75.8545Q12.4512-72.2656 12.4512-65.1855L12.4512-5.27344Q12.4512 1.80664 16.0645 5.39551Q19.6777 8.98438 26.8555 8.98438Z"/>
  </g>
  <g id="Thin-M" transform="matrix(1 0 0 1 787.306 1126)">
   <path d="M31.9336-53.8086Q31.25-53.8086 30.7617-54.2969Q30.2734-54.7852 30.2734-55.5176Q30.2734-56.2012 30.7617-56.7139Q31.25-57.2266 31.9336-57.2266L66.5527-57.2266Q67.2363-57.2266 67.7246-56.7139Q68.2129-56.2012 68.2129-55.5176Q68.2129-54.7852 67.7246-54.2969Q67.2363-53.8086 66.5527-53.8086ZM31.9336-42.1875Q31.25-42.1875 30.7617-42.6758Q30.2734-43.1641 30.2734-43.8965Q30.2734-44.5801 30.7617-45.0684Q31.25-45.5566 31.9336-45.5566L57.373-45.5566Q58.0566-45.5566 58.5693-45.0684Q59.082-44.5801 59.082-43.8965Q59.082-43.1641 58.5693-42.6758Q58.0566-42.1875 57.373-42.1875ZM96.3379-38.6719Q93.1152-38.6719 90.4541-40.2588Q87.793-41.8457 86.2061-44.5068Q84.6191-47.168 84.6191-50.3906Q84.6191-53.6133 86.2061-56.2744Q87.793-58.9355 90.4541-60.5225Q93.1152-62.1094 96.3379-62.1094Q99.5605-62.1094 102.197-60.5225Q104.834-58.9355 106.421-56.2744Q108.008-53.6133 108.008-50.3906Q108.008-47.168 106.421-44.5068Q104.834-41.8457 102.197-40.2588Q99.5605-38.6719 96.3379-38.6719ZM25.5859 7.95898L112.549 7.95898Q119.092 7.95898 122.437 4.58984Q125.781 1.2207 125.781-5.17578L125.781-65.332Q125.781-71.7285 122.437-75.0977Q119.092-78.4668 112.549-78.4668L25.5859-78.4668Q19.1406-78.4668 15.7959-75.1221Q12.4512-71.7773 12.4512-65.332L12.4512-5.17578Q12.4512 1.31836 15.7959 4.63867Q19.1406 7.95898 25.5859 7.95898Z"/>
  </g>
  <g id="Ultralight-M" transform="matrix(1 0 0 1 490.863 1126)">
   <path d="M30.8594-54.7363Q30.3711-54.7363 30.0293-55.1025Q29.6875-55.4688 29.6875-55.9082Q29.6875-56.4453 30.0293-56.7871Q30.3711-57.1289 30.8594-57.1289L66.3574-57.1289Q66.8457-57.1289 67.2119-56.7871Q67.5781-56.4453 67.5781-55.9082Q67.5781-55.4688 67.2119-55.1025Q66.8457-54.7363 66.3574-54.7363ZM30.8594-43.5547Q30.3711-43.5547 30.0293-43.8965Q29.6875-44.2383 29.6875-44.7266Q29.6875-45.2637 30.0293-45.6055Q30.3711-45.9473 30.8594-45.9473L56.9824-45.9473Q57.4707-45.9473 57.8369-45.6055Q58.2031-45.2637 58.2031-44.7266Q58.2031-44.2383 57.8369-43.8965Q57.4707-43.5547 56.9824-43.5547ZM96.4355-39.3555Q93.2129-39.3555 90.5518-40.9424Q87.8906-42.5293 86.3037-45.1904Q84.7168-47.8516 84.7168-51.0742Q84.7168-54.2969 86.3037-56.958Q87.8906-59.6191 90.5518-61.2061Q93.2129-62.793 96.4355-62.793Q99.6582-62.793 102.295-61.2061Q104.932-59.6191 106.519-56.958Q108.105-54.2969 108.105-51.0742Q108.105-47.8516 106.519-45.1904Q104.932-42.5293 102.295-40.9424Q99.6582-39.3555 96.4355-39.3555ZM24.9512 7.4707L112.646 7.4707Q118.848 7.4707 122.046 4.22363Q125.244 0.976562 125.244-5.07812L125.244-65.4297Q125.244-71.4844 122.046-74.7314Q118.848-77.9785 112.646-77.9785L24.9512-77.9785Q18.8477-77.9785 15.6494-74.7803Q12.4512-71.582 12.4512-65.4297L12.4512-5.07812Q12.4512 1.07422 15.6494 4.27246Q18.8477 7.4707 24.9512 7.4707Z"/>
  </g>
  <g id="Black-S" transform="matrix(1 0 0 1 2877.35 696)">
   <path d="M32.3242-42.2852Q30.9082-42.2852 29.9072-43.3838Q28.9062-44.4824 28.9062-45.8496Q28.9062-47.3145 29.8828-48.3643Q30.8594-49.4141 32.3242-49.4141L49.3164-49.4141Q50.8301-49.4141 51.8066-48.3887Q52.7832-47.3633 52.7832-45.8496Q52.7832-44.5312 51.7822-43.4082Q50.7812-42.2852 49.3164-42.2852ZM32.3242-32.4219Q30.9082-32.4219 29.9072-33.4961Q28.9062-34.5703 28.9062-35.9375Q28.9062-37.3535 29.8828-38.4521Q30.8594-39.5508 32.3242-39.5508L43.9453-39.5508Q45.4102-39.5508 46.3867-38.4766Q47.3633-37.4023 47.3633-35.9375Q47.3633-34.5703 46.3623-33.4961Q45.3613-32.4219 43.9453-32.4219ZM73.6328-32.3242Q69.6289-32.3242 66.8213-35.1318Q64.0137-37.9395 64.0137-41.9434Q64.0137-45.9473 66.8213-48.7549Q69.6289-51.5625 73.6328-51.5625Q77.5879-51.5625 80.3955-48.7549Q83.2031-45.9473 83.2031-41.9434Q83.2031-37.9395 80.3955-35.1318Q77.5879-32.3242 73.6328-32.3242ZM25 2.92969L87.1094 2.92969Q94.2871 2.92969 98.3154-1.09863Q102.344-5.12695 102.344-12.3047L102.344-58.1055Q102.344-65.2832 98.3154-69.3115Q94.2871-73.3398 87.1094-73.3398L25-73.3398Q17.8223-73.3398 13.7939-69.3115Q9.76562-65.2832 9.76562-58.1055L9.76562-12.3047Q9.76562-5.12695 13.7939-1.09863Q17.8223 2.92969 25 2.92969Z"/>
  </g>
  <g id="Heavy-S" transform="matrix(1 0 0 1 2580.88 696)">
   <path d="M31.4941-43.3105Q30.0781-43.3105 29.1016-44.3604Q28.125-45.4102 28.125-46.7285Q28.125-48.1445 29.0771-49.1699Q30.0293-50.1953 31.4941-50.1953L50.1465-50.1953Q51.5625-50.1953 52.5146-49.1943Q53.4668-48.1934 53.4668-46.7285Q53.4668-45.459 52.5146-44.3848Q51.5625-43.3105 50.1465-43.3105ZM31.4941-33.3008Q30.0781-33.3008 29.1016-34.3262Q28.125-35.3516 28.125-36.6699Q28.125-38.0859 29.0771-39.1357Q30.0293-40.1855 31.4941-40.1855L44.4824-40.1855Q45.8984-40.1855 46.8506-39.1357Q47.8027-38.0859 47.8027-36.6699Q47.8027-35.3516 46.8262-34.3262Q45.8496-33.3008 44.4824-33.3008ZM74.0234-33.0566Q70.0684-33.0566 67.2852-35.8398Q64.502-38.623 64.502-42.5781Q64.502-46.5332 67.2852-49.3164Q70.0684-52.0996 74.0234-52.0996Q77.9297-52.0996 80.7129-49.3164Q83.4961-46.5332 83.4961-42.5781Q83.4961-38.623 80.7129-35.8398Q77.9297-33.0566 74.0234-33.0566ZM24.3652 2.34375L87.3047 2.34375Q94.2871 2.34375 98.0713-1.46484Q101.855-5.27344 101.855-12.207L101.855-58.2031Q101.855-65.1367 98.0713-68.9453Q94.2871-72.7539 87.3047-72.7539L24.3652-72.7539Q17.3828-72.7539 13.5742-68.9453Q9.76562-65.1367 9.76562-58.2031L9.76562-12.207Q9.76562-5.27344 13.5742-1.46484Q17.3828 2.34375 24.3652 2.34375Z"/>
  </g>
  <g id="Bold-S" transform="matrix(1 0 0 1 2284.41 696)">
   <path d="M30.5176-44.4336Q29.1504-44.4336 28.2227-45.4346Q27.2949-46.4355 27.2949-47.7539Q27.2949-49.1211 28.2227-50.0977Q29.1504-51.0742 30.5176-51.0742L51.0254-51.0742Q52.4414-51.0742 53.3691-50.1221Q54.2969-49.1699 54.2969-47.7539Q54.2969-46.4844 53.3447-45.459Q52.3926-44.4336 51.0254-44.4336ZM30.5176-34.2773Q29.1504-34.2773 28.2227-35.2539Q27.2949-36.2305 27.2949-37.5488Q27.2949-38.8672 28.2227-39.8682Q29.1504-40.8691 30.5176-40.8691L45.1172-40.8691Q46.4844-40.8691 47.4121-39.8926Q48.3398-38.916 48.3398-37.5488Q48.3398-36.2305 47.3877-35.2539Q46.4355-34.2773 45.1172-34.2773ZM74.4629-33.9355Q70.5566-33.9355 67.7979-36.6699Q65.0391-39.4043 65.0391-43.3105Q65.0391-47.2168 67.7979-49.9756Q70.5566-52.7344 74.4629-52.7344Q78.3203-52.7344 81.0547-49.9756Q83.7891-47.2168 83.7891-43.3105Q83.7891-39.4043 81.0547-36.6699Q78.3203-33.9355 74.4629-33.9355ZM23.6328 1.66016L87.5 1.66016Q94.2383 1.66016 97.8027-1.9043Q101.367-5.46875 101.367-12.1094L101.367-58.3008Q101.367-64.9902 97.8027-68.5303Q94.2383-72.0703 87.5-72.0703L23.6328-72.0703Q16.9434-72.0703 13.3545-68.5303Q9.76562-64.9902 9.76562-58.3008L9.76562-12.1094Q9.76562-5.46875 13.3545-1.9043Q16.9434 1.66016 23.6328 1.66016Z"/>
  </g>
  <g id="Semibold-S" transform="matrix(1 0 0 1 1987.9 696)">
   <path d="M29.8828-45.2148Q28.5156-45.2148 27.6123-46.1914Q26.709-47.168 26.709-48.4375Q26.709-49.7559 27.6123-50.708Q28.5156-51.6602 29.8828-51.6602L51.6602-51.6602Q52.9785-51.6602 53.9062-50.7324Q54.834-49.8047 54.834-48.4375Q54.834-47.168 53.9062-46.1914Q52.9785-45.2148 51.6602-45.2148ZM29.8828-34.9121Q28.5156-34.9121 27.6123-35.8643Q26.709-36.8164 26.709-38.0859Q26.709-39.4043 27.6123-40.3809Q28.5156-41.3574 29.8828-41.3574L45.5078-41.3574Q46.8262-41.3574 47.7539-40.4053Q48.6816-39.4531 48.6816-38.0859Q48.6816-36.8164 47.7539-35.8643Q46.8262-34.9121 45.5078-34.9121ZM74.7559-34.4727Q70.8496-34.4727 68.1396-37.207Q65.4297-39.9414 65.4297-43.7988Q65.4297-47.6562 68.1396-50.3906Q70.8496-53.125 74.7559-53.125Q78.5645-53.125 81.2744-50.3906Q83.9844-47.6562 83.9844-43.7988Q83.9844-39.9414 81.2744-37.207Q78.5645-34.4727 74.7559-34.4727ZM23.0957 1.2207L87.6465 1.2207Q94.2383 1.2207 97.6074-2.17285Q100.977-5.56641 100.977-12.0605L100.977-58.3496Q100.977-64.8438 97.6074-68.2373Q94.2383-71.6309 87.6465-71.6309L23.0957-71.6309Q16.6016-71.6309 13.1836-68.2373Q9.76562-64.8438 9.76562-58.3496L9.76562-12.0605Q9.76562-5.56641 13.1836-2.17285Q16.6016 1.2207 23.0957 1.2207Z"/>
  </g>
  <g id="Medium-S" transform="matrix(1 0 0 1 1691.33 696)">
   <path d="M29.3457-45.8008Q28.0273-45.8008 27.1484-46.7529Q26.2695-47.7051 26.2695-48.9746Q26.2695-50.293 27.1484-51.1963Q28.0273-52.0996 29.3457-52.0996L52.0996-52.0996Q53.418-52.0996 54.3213-51.1963Q55.2246-50.293 55.2246-48.9746Q55.2246-47.7051 54.3213-46.7529Q53.418-45.8008 52.0996-45.8008ZM29.3457-35.4492Q28.0273-35.4492 27.1484-36.3525Q26.2695-37.2559 26.2695-38.5254Q26.2695-39.8438 27.1484-40.7715Q28.0273-41.6992 29.3457-41.6992L45.8496-41.6992Q47.1191-41.6992 48.0469-40.7715Q48.9746-39.8438 48.9746-38.5254Q48.9746-37.2559 48.0469-36.3525Q47.1191-35.4492 45.8496-35.4492ZM74.9512-34.9121Q71.0938-34.9121 68.3838-37.6221Q65.6738-40.332 65.6738-44.1895Q65.6738-48.0469 68.3838-50.7568Q71.0938-53.4668 74.9512-53.4668Q78.8086-53.4668 81.4941-50.7568Q84.1797-48.0469 84.1797-44.1895Q84.1797-40.332 81.4941-37.6221Q78.8086-34.9121 74.9512-34.9121ZM22.7051 0.830078L87.7441 0.830078Q94.1895 0.830078 97.4365-2.41699Q100.684-5.66406 100.684-11.9629L100.684-58.4473Q100.684-64.7461 97.4365-67.9932Q94.1895-71.2402 87.7441-71.2402L22.7051-71.2402Q16.3574-71.2402 13.0615-67.9932Q9.76562-64.7461 9.76562-58.4473L9.76562-11.9629Q9.76562-5.66406 13.0615-2.41699Q16.3574 0.830078 22.7051 0.830078Z"/>
  </g>
  <g id="Regular-S" transform="matrix(1 0 0 1 1394.79 696)">
   <path d="M28.7109-46.582Q27.3926-46.582 26.5381-47.4854Q25.6836-48.3887 25.6836-49.6582Q25.6836-50.9277 26.5381-51.8066Q27.3926-52.6855 28.7109-52.6855L52.7344-52.6855Q54.0039-52.6855 54.8828-51.8066Q55.7617-50.9277 55.7617-49.6582Q55.7617-48.3887 54.8828-47.4854Q54.0039-46.582 52.7344-46.582ZM28.7109-36.084Q27.3926-36.084 26.5381-36.9629Q25.6836-37.8418 25.6836-39.1113Q25.6836-40.3809 26.5381-41.2842Q27.3926-42.1875 28.7109-42.1875L46.2402-42.1875Q47.5098-42.1875 48.4131-41.2842Q49.3164-40.3809 49.3164-39.1113Q49.3164-37.8418 48.4131-36.9629Q47.5098-36.084 46.2402-36.084ZM75.2441-35.498Q71.4355-35.498 68.75-38.1836Q66.0645-40.8691 66.0645-44.6777Q66.0645-48.4863 68.75-51.1719Q71.4355-53.8574 75.2441-53.8574Q79.0527-53.8574 81.7139-51.1719Q84.375-48.4863 84.375-44.6777Q84.375-40.8691 81.7139-38.1836Q79.0527-35.498 75.2441-35.498ZM22.2168 0.390625L87.8906 0.390625Q94.1895 0.390625 97.2656-2.68555Q100.342-5.76172 100.342-11.9141L100.342-58.4961Q100.342-64.6484 97.2656-67.7246Q94.1895-70.8008 87.8906-70.8008L22.2168-70.8008Q16.0156-70.8008 12.8906-67.7246Q9.76562-64.6484 9.76562-58.4961L9.76562-11.9141Q9.76562-5.76172 12.8906-2.68555Q16.0156 0.390625 22.2168 0.390625Z"/>
  </g>
  <g id="Light-S" transform="matrix(1 0 0 1 1098.42 696)">
   <path d="M27.2949-47.8027Q26.2695-47.8027 25.6104-48.5107Q24.9512-49.2188 24.9512-50.1953Q24.9512-51.2207 25.6104-51.9043Q26.2695-52.5879 27.2949-52.5879L52.4902-52.5879Q53.5156-52.5879 54.1992-51.9043Q54.8828-51.2207 54.8828-50.1953Q54.8828-49.2188 54.1992-48.5107Q53.5156-47.8027 52.4902-47.8027ZM27.2949-37.8418Q26.2695-37.8418 25.6104-38.5498Q24.9512-39.2578 24.9512-40.2344Q24.9512-41.2109 25.6104-41.9189Q26.2695-42.627 27.2949-42.627L45.752-42.627Q46.7285-42.627 47.4365-41.9189Q48.1445-41.2109 48.1445-40.2344Q48.1445-39.2578 47.4365-38.5498Q46.7285-37.8418 45.752-37.8418ZM75.3418-36.4258Q71.5332-36.4258 68.8477-39.1113Q66.1621-41.7969 66.1621-45.6055Q66.1621-49.4141 68.8477-52.0996Q71.5332-54.7852 75.3418-54.7852Q79.1504-54.7852 81.8115-52.0996Q84.4727-49.4141 84.4727-45.6055Q84.4727-41.7969 81.8115-39.1113Q79.1504-36.4258 75.3418-36.4258ZM21.3867-0.292969L87.9883-0.292969Q93.8477-0.292969 96.7529-3.19824Q99.6582-6.10352 99.6582-11.8164L99.6582-58.5938Q99.6582-64.3066 96.7529-67.2363Q93.8477-70.166 87.9883-70.166L21.3867-70.166Q15.625-70.166 12.6953-67.2607Q9.76562-64.3555 9.76562-58.5938L9.76562-11.8164Q9.76562-6.10352 12.6953-3.19824Q15.625-0.292969 21.3867-0.292969Z"/>
  </g>
  <g id="Thin-S" transform="matrix(1 0 0 1 802.174 696)">
   <path d="M25.4395-49.4141Q24.8047-49.4141 24.3652-49.8779Q23.9258-50.3418 23.9258-50.9766Q23.9258-51.6113 24.3652-52.0508Q24.8047-52.4902 25.4395-52.4902L52.1973-52.4902Q52.832-52.4902 53.2715-52.0508Q53.7109-51.6113 53.7109-50.9766Q53.7109-50.3418 53.2715-49.8779Q52.832-49.4141 52.1973-49.4141ZM25.4395-40.1855Q24.8047-40.1855 24.3652-40.625Q23.9258-41.0645 23.9258-41.6992Q23.9258-42.334 24.3652-42.7979Q24.8047-43.2617 25.4395-43.2617L45.0684-43.2617Q45.7031-43.2617 46.167-42.7979Q46.6309-42.334 46.6309-41.6992Q46.6309-41.0645 46.167-40.625Q45.7031-40.1855 45.0684-40.1855ZM75.4395-37.6465Q71.6309-37.6465 68.9453-40.332Q66.2598-43.0176 66.2598-46.8262Q66.2598-50.6348 68.9453-53.3203Q71.6309-56.0059 75.4395-56.0059Q79.248-56.0059 81.9092-53.3203Q84.5703-50.6348 84.5703-46.8262Q84.5703-43.0176 81.9092-40.332Q79.248-37.6465 75.4395-37.6465ZM20.3125-1.17188L88.1836-1.17188Q93.4082-1.17188 96.0693-3.88184Q98.7305-6.5918 98.7305-11.7188L98.7305-58.7891Q98.7305-63.916 96.0693-66.6016Q93.4082-69.2871 88.1836-69.2871L20.3125-69.2871Q15.0879-69.2871 12.4268-66.626Q9.76562-63.9648 9.76562-58.7891L9.76562-11.7188Q9.76562-6.49414 12.4268-3.83301Q15.0879-1.17188 20.3125-1.17188Z"/>
  </g>
  <g id="Ultralight-S" transform="matrix(1 0 0 1 505.707 696)">
   <path d="M24.5117-50.2441Q24.0234-50.2441 23.7305-50.5615Q23.4375-50.8789 23.4375-51.3184Q23.4375-51.8066 23.7305-52.0996Q24.0234-52.3926 24.5117-52.3926L52.0508-52.3926Q52.4902-52.3926 52.8076-52.0996Q53.125-51.8066 53.125-51.3184Q53.125-50.8789 52.8076-50.5615Q52.4902-50.2441 52.0508-50.2441ZM24.5117-41.4062Q24.0234-41.4062 23.7305-41.7236Q23.4375-42.041 23.4375-42.4805Q23.4375-42.8711 23.7305-43.2129Q24.0234-43.5547 24.5117-43.5547L44.7266-43.5547Q45.2148-43.5547 45.5078-43.2129Q45.8008-42.8711 45.8008-42.4805Q45.8008-42.041 45.5078-41.7236Q45.2148-41.4062 44.7266-41.4062ZM75.5371-38.2812Q71.7285-38.2812 69.043-40.9668Q66.3574-43.6523 66.3574-47.4609Q66.3574-51.2695 69.043-53.9551Q71.7285-56.6406 75.5371-56.6406Q79.2969-56.6406 81.9824-53.9551Q84.668-51.2695 84.668-47.4609Q84.668-43.6523 81.9824-40.9668Q79.2969-38.2812 75.5371-38.2812ZM19.7754-1.66016L88.2324-1.66016Q93.2129-1.66016 95.7275-4.22363Q98.2422-6.78711 98.2422-11.6211L98.2422-58.8379Q98.2422-63.6719 95.7275-66.2598Q93.2129-68.8477 88.2324-68.8477L19.7754-68.8477Q14.8438-68.8477 12.3047-66.3086Q9.76562-63.7695 9.76562-58.8379L9.76562-11.6211Q9.76562-6.73828 12.3047-4.19922Q14.8438-1.66016 19.7754-1.66016Z"/>
  </g>
 </g>
</svg>
