<?xml version="1.0" encoding="UTF-8"?>
<!--Generator: Apple Native CoreSVG 175-->
<!DOCTYPE svg
PUBLIC "-//W3C//DTD SVG 1.1//EN"
       "http://www.w3.org/Graphics/SVG/1.1/DTD/svg11.dtd">
<svg version="1.1" xmlns="http://www.w3.org/2000/svg" xmlns:xlink="http://www.w3.org/1999/xlink" width="3300" height="2200">
 <!--glyph: "uni10062E.medium", point size: 100.0, font version: "17.0d11e1", template writer version: "65.1"-->
 <g id="Notes">
  <rect height="2200" id="artboard" style="fill:white;opacity:1" width="3300" x="0" y="0"/>
  <line style="fill:none;stroke:black;opacity:1;stroke-width:0.5;" x1="263" x2="3036" y1="292" y2="292"/>
  <text style="stroke:none;fill:black;font-family:sans-serif;font-size:13;font-weight:bold;" transform="matrix(1 0 0 1 263 322)">Weight/Scale Variations</text>
  <text style="stroke:none;fill:black;font-family:sans-serif;font-size:13;text-anchor:middle;" transform="matrix(1 0 0 1 559.711 322)">Ultralight</text>
  <text style="stroke:none;fill:black;font-family:sans-serif;font-size:13;text-anchor:middle;" transform="matrix(1 0 0 1 856.422 322)">Thin</text>
  <text style="stroke:none;fill:black;font-family:sans-serif;font-size:13;text-anchor:middle;" transform="matrix(1 0 0 1 1153.13 322)">Light</text>
  <text style="stroke:none;fill:black;font-family:sans-serif;font-size:13;text-anchor:middle;" transform="matrix(1 0 0 1 1449.84 322)">Regular</text>
  <text style="stroke:none;fill:black;font-family:sans-serif;font-size:13;text-anchor:middle;" transform="matrix(1 0 0 1 1746.56 322)">Medium</text>
  <text style="stroke:none;fill:black;font-family:sans-serif;font-size:13;text-anchor:middle;" transform="matrix(1 0 0 1 2043.27 322)">Semibold</text>
  <text style="stroke:none;fill:black;font-family:sans-serif;font-size:13;text-anchor:middle;" transform="matrix(1 0 0 1 2339.98 322)">Bold</text>
  <text style="stroke:none;fill:black;font-family:sans-serif;font-size:13;text-anchor:middle;" transform="matrix(1 0 0 1 2636.69 322)">Heavy</text>
  <text style="stroke:none;fill:black;font-family:sans-serif;font-size:13;text-anchor:middle;" transform="matrix(1 0 0 1 2933.4 322)">Black</text>
  <line style="fill:none;stroke:black;opacity:1;stroke-width:0.5;" x1="263" x2="3036" y1="1903" y2="1903"/>
  <g transform="matrix(1 0 0 1 263 1933)">
   <path d="M9.24805 0.830078Q10.8691 0.830078 12.2949 0.214844Q13.7207-0.400391 14.8096-1.49414Q15.8984-2.58789 16.5186-4.01367Q17.1387-5.43945 17.1387-7.05078Q17.1387-8.66211 16.5186-10.0879Q15.8984-11.5137 14.8047-12.6074Q13.7109-13.7012 12.2852-14.3164Q10.8594-14.9316 9.23828-14.9316Q7.62695-14.9316 6.20117-14.3164Q4.77539-13.7012 3.69141-12.6074Q2.60742-11.5137 1.9873-10.0879Q1.36719-8.66211 1.36719-7.05078Q1.36719-5.43945 1.9873-4.01367Q2.60742-2.58789 3.69629-1.49414Q4.78516-0.400391 6.21094 0.214844Q7.63672 0.830078 9.24805 0.830078ZM9.24805-0.654297Q7.91992-0.654297 6.7627-1.14746Q5.60547-1.64062 4.73145-2.51953Q3.85742-3.39844 3.36426-4.56055Q2.87109-5.72266 2.87109-7.05078Q2.87109-8.37891 3.35938-9.54102Q3.84766-10.7031 4.72168-11.582Q5.5957-12.4609 6.75293-12.9541Q7.91016-13.4473 9.23828-13.4473Q10.5762-13.4473 11.7334-12.9541Q12.8906-12.4609 13.7695-11.582Q14.6484-10.7031 15.1465-9.54102Q15.6445-8.37891 15.6445-7.05078Q15.6445-5.72266 15.1514-4.56055Q14.6582-3.39844 13.7842-2.51953Q12.9102-1.64062 11.748-1.14746Q10.5859-0.654297 9.24805-0.654297ZM5.6543-7.05078Q5.6543-6.72852 5.85938-6.52832Q6.06445-6.32812 6.40625-6.32812L8.51562-6.32812L8.51562-4.20898Q8.51562-3.88672 8.71094-3.67676Q8.90625-3.4668 9.23828-3.4668Q9.56055-3.4668 9.77051-3.67676Q9.98047-3.88672 9.98047-4.20898L9.98047-6.32812L12.0898-6.32812Q12.4219-6.32812 12.627-6.52832Q12.832-6.72852 12.832-7.05078Q12.832-7.38281 12.627-7.58789Q12.4219-7.79297 12.0898-7.79297L9.98047-7.79297L9.98047-9.90234Q9.98047-10.2344 9.77051-10.4443Q9.56055-10.6543 9.23828-10.6543Q8.90625-10.6543 8.71094-10.4443Q8.51562-10.2344 8.51562-9.90234L8.51562-7.79297L6.40625-7.79297Q6.06445-7.79297 5.85938-7.58789Q5.6543-7.38281 5.6543-7.05078Z"/>
  </g>
  <g transform="matrix(1 0 0 1 281.867 1933)">
   <path d="M11.709 2.91016Q13.75 2.91016 15.5518 2.12891Q17.3535 1.34766 18.7305-0.0292969Q20.1074-1.40625 20.8887-3.20801Q21.6699-5.00977 21.6699-7.05078Q21.6699-9.0918 20.8887-10.8936Q20.1074-12.6953 18.7305-14.0723Q17.3535-15.4492 15.5469-16.2305Q13.7402-17.0117 11.6992-17.0117Q9.6582-17.0117 7.85645-16.2305Q6.05469-15.4492 4.68262-14.0723Q3.31055-12.6953 2.5293-10.8936Q1.74805-9.0918 1.74805-7.05078Q1.74805-5.00977 2.5293-3.20801Q3.31055-1.40625 4.6875-0.0292969Q6.06445 1.34766 7.86621 2.12891Q9.66797 2.91016 11.709 2.91016ZM11.709 1.25Q9.98047 1.25 8.47656 0.605469Q6.97266-0.0390625 5.83496-1.17676Q4.69727-2.31445 4.05762-3.81836Q3.41797-5.32227 3.41797-7.05078Q3.41797-8.7793 4.05762-10.2832Q4.69727-11.7871 5.83008-12.9297Q6.96289-14.0723 8.4668-14.7119Q9.9707-15.3516 11.6992-15.3516Q13.4277-15.3516 14.9316-14.7119Q16.4355-14.0723 17.5781-12.9297Q18.7207-11.7871 19.3652-10.2832Q20.0098-8.7793 20.0098-7.05078Q20.0098-5.32227 19.3701-3.81836Q18.7305-2.31445 17.5928-1.17676Q16.4551-0.0390625 14.9463 0.605469Q13.4375 1.25 11.709 1.25ZM7.17773-7.05078Q7.17773-6.69922 7.41211-6.47461Q7.64648-6.25 8.01758-6.25L10.8887-6.25L10.8887-3.36914Q10.8887-2.99805 11.1133-2.76855Q11.3379-2.53906 11.6895-2.53906Q12.0605-2.53906 12.29-2.76855Q12.5195-2.99805 12.5195-3.36914L12.5195-6.25L15.4004-6.25Q15.7715-6.25 16.001-6.47461Q16.2305-6.69922 16.2305-7.05078Q16.2305-7.42188 16.001-7.65137Q15.7715-7.88086 15.4004-7.88086L12.5195-7.88086L12.5195-10.752Q12.5195-11.1328 12.29-11.3623Q12.0605-11.5918 11.6895-11.5918Q11.3379-11.5918 11.1133-11.3574Q10.8887-11.123 10.8887-10.752L10.8887-7.88086L8.01758-7.88086Q7.63672-7.88086 7.40723-7.65137Q7.17773-7.42188 7.17773-7.05078Z"/>
  </g>
  <g transform="matrix(1 0 0 1 305.646 1933)">
   <path d="M14.9707 5.66406Q17.0605 5.66406 18.96 5.01465Q20.8594 4.36523 22.4512 3.19336Q24.043 2.02148 25.2197 0.429688Q26.3965-1.16211 27.0459-3.06641Q27.6953-4.9707 27.6953-7.05078Q27.6953-9.14062 27.0459-11.04Q26.3965-12.9395 25.2197-14.5312Q24.043-16.123 22.4512-17.2998Q20.8594-18.4766 18.9551-19.126Q17.0508-19.7754 14.9609-19.7754Q12.8711-19.7754 10.9717-19.126Q9.07227-18.4766 7.48535-17.2998Q5.89844-16.123 4.72168-14.5312Q3.54492-12.9395 2.90039-11.04Q2.25586-9.14062 2.25586-7.05078Q2.25586-4.9707 2.90527-3.06641Q3.55469-1.16211 4.72656 0.429688Q5.89844 2.02148 7.49023 3.19336Q9.08203 4.36523 10.9814 5.01465Q12.8809 5.66406 14.9707 5.66406ZM14.9707 3.84766Q13.1641 3.84766 11.5283 3.2959Q9.89258 2.74414 8.53516 1.74805Q7.17773 0.751953 6.17676-0.610352Q5.17578-1.97266 4.62891-3.6084Q4.08203-5.24414 4.08203-7.05078Q4.08203-8.86719 4.62891-10.5029Q5.17578-12.1387 6.17188-13.501Q7.16797-14.8633 8.52539-15.8594Q9.88281-16.8555 11.5186-17.4023Q13.1543-17.9492 14.9609-17.9492Q16.7773-17.9492 18.4131-17.4023Q20.0488-16.8555 21.4111-15.8594Q22.7734-14.8633 23.7695-13.501Q24.7656-12.1387 25.3174-10.5029Q25.8691-8.86719 25.8691-7.05078Q25.8789-5.24414 25.332-3.6084Q24.7852-1.97266 23.7842-0.610352Q22.7832 0.751953 21.4209 1.74805Q20.0586 2.74414 18.4229 3.2959Q16.7871 3.84766 14.9707 3.84766ZM9.19922-7.05078Q9.19922-6.66992 9.45801-6.4209Q9.7168-6.17188 10.1172-6.17188L14.0625-6.17188L14.0625-2.2168Q14.0625-1.81641 14.3115-1.55762Q14.5605-1.29883 14.9512-1.29883Q15.3516-1.29883 15.6104-1.55273Q15.8691-1.80664 15.8691-2.2168L15.8691-6.17188L19.8242-6.17188Q20.2246-6.17188 20.4785-6.4209Q20.7324-6.66992 20.7324-7.05078Q20.7324-7.46094 20.4785-7.71484Q20.2246-7.96875 19.8242-7.96875L15.8691-7.96875L15.8691-11.9141Q15.8691-12.3242 15.6104-12.583Q15.3516-12.8418 14.9512-12.8418Q14.5605-12.8418 14.3115-12.583Q14.0625-12.3242 14.0625-11.9141L14.0625-7.96875L10.1172-7.96875Q9.70703-7.96875 9.45312-7.71484Q9.19922-7.46094 9.19922-7.05078Z"/>
  </g>
  <text style="stroke:none;fill:black;font-family:sans-serif;font-size:13;font-weight:bold;" transform="matrix(1 0 0 1 263 1953)">Design Variations</text>
  <text style="stroke:none;fill:black;font-family:sans-serif;font-size:13;" transform="matrix(1 0 0 1 263 1971)">Symbols are supported in up to nine weights and three scales.</text>
  <text style="stroke:none;fill:black;font-family:sans-serif;font-size:13;" transform="matrix(1 0 0 1 263 1989)">For optimal layout with text and other symbols, vertically align</text>
  <text style="stroke:none;fill:black;font-family:sans-serif;font-size:13;" transform="matrix(1 0 0 1 263 2007)">symbols with the adjacent text.</text>
  <line style="fill:none;stroke:#00AEEF;stroke-width:0.5;opacity:1.0;" x1="776" x2="776" y1="1919" y2="1933"/>
  <g transform="matrix(1 0 0 1 776 1933)">
   <path d="M3.31055 0.15625Q3.70117 0.15625 3.91602-0.00976562Q4.13086-0.175781 4.26758-0.585938L5.52734-4.0332L11.2891-4.0332L12.5488-0.585938Q12.6855-0.175781 12.9004-0.00976562Q13.1152 0.15625 13.4961 0.15625Q13.8867 0.15625 14.1162-0.0585938Q14.3457-0.273438 14.3457-0.644531Q14.3457-0.869141 14.2383-1.17188L9.6582-13.3691Q9.48242-13.8184 9.17969-14.043Q8.87695-14.2676 8.4082-14.2676Q7.5-14.2676 7.17773-13.3789L2.59766-1.16211Q2.49023-0.859375 2.49023-0.634766Q2.49023-0.263672 2.70996-0.0537109Q2.92969 0.15625 3.31055 0.15625ZM6.00586-5.51758L8.37891-12.0898L8.42773-12.0898L10.8008-5.51758Z"/>
  </g>
  <line style="fill:none;stroke:#00AEEF;stroke-width:0.5;opacity:1.0;" x1="793.197" x2="793.197" y1="1919" y2="1933"/>
  <text style="stroke:none;fill:black;font-family:sans-serif;font-size:13;font-weight:bold;" transform="matrix(1 0 0 1 776 1953)">Margins</text>
  <text style="stroke:none;fill:black;font-family:sans-serif;font-size:13;" transform="matrix(1 0 0 1 776 1971)">Leading and trailing margins on the left and right side of each symbol</text>
  <text style="stroke:none;fill:black;font-family:sans-serif;font-size:13;" transform="matrix(1 0 0 1 776 1989)">can be adjusted by modifying the x-location of the margin guidelines.</text>
  <text style="stroke:none;fill:black;font-family:sans-serif;font-size:13;" transform="matrix(1 0 0 1 776 2007)">Modifications are automatically applied proportionally to all</text>
  <text style="stroke:none;fill:black;font-family:sans-serif;font-size:13;" transform="matrix(1 0 0 1 776 2025)">scales and weights.</text>
  <g transform="matrix(1 0 0 1 1289 1933)">
   <path d="M2.8418 1.86523L4.54102 3.57422Q5.18555 4.22852 5.90332 4.17969Q6.62109 4.13086 7.31445 3.35938L18.0078-8.42773L17.041-9.4043L6.42578 2.27539Q6.16211 2.57812 5.89355 2.61719Q5.625 2.65625 5.27344 2.30469L4.10156 1.14258Q3.75 0.791016 3.79395 0.522461Q3.83789 0.253906 4.14062-0.0195312L15.6152-10.8203L14.6387-11.7871L3.04688-0.898438Q2.30469-0.214844 2.25098 0.498047Q2.19727 1.21094 2.8418 1.86523ZM9.25781-16.3281Q8.94531-16.0254 8.90625-15.6348Q8.86719-15.2441 9.04297-14.9512Q9.21875-14.6777 9.55566-14.541Q9.89258-14.4043 10.3809-14.5215Q11.4746-14.7754 12.5977-14.7314Q13.7207-14.6875 14.7949-13.9844L14.209-12.5293Q13.9551-11.9043 14.0674-11.4404Q14.1797-10.9766 14.5801-10.5664L16.875-8.25195Q17.2363-7.88086 17.5781-7.82227Q17.9199-7.76367 18.3398-7.8418L19.4043-8.03711L20.0684-7.36328L20.0293-6.80664Q20-6.43555 20.1221-6.12305Q20.2441-5.81055 20.6055-5.44922L21.3672-4.70703Q21.7285-4.3457 22.1533-4.33105Q22.5781-4.31641 22.9297-4.66797L25.8398-7.58789Q26.1914-7.93945 26.1816-8.35449Q26.1719-8.76953 25.8105-9.13086L25.0391-9.89258Q24.6875-10.2539 24.3799-10.3857Q24.0723-10.5176 23.7109-10.4883L23.1348-10.4395L22.4902-11.0742L22.7344-12.1973Q22.832-12.6172 22.6953-12.9834Q22.5586-13.3496 22.1191-13.7891L19.9219-15.9766Q18.6719-17.2168 17.2607-17.8369Q15.8496-18.457 14.4189-18.4814Q12.9883-18.5059 11.665-17.959Q10.3418-17.4121 9.25781-16.3281ZM10.752-15.957Q11.6602-16.6211 12.7002-16.9043Q13.7402-17.1875 14.8047-17.085Q15.8691-16.9824 16.8701-16.5137Q17.8711-16.0449 18.7012-15.2051L21.1328-12.793Q21.3086-12.6172 21.3525-12.4512Q21.3965-12.2852 21.3379-12.0312L21.0156-10.5469L22.5195-9.0625L23.5059-9.12109Q23.6914-9.13086 23.7891-9.09668Q23.8867-9.0625 24.0332-8.91602L24.6094-8.33984L22.168-5.89844L21.5918-6.47461Q21.4453-6.62109 21.4062-6.71875Q21.3672-6.81641 21.377-7.01172L21.4453-7.98828L19.9512-9.47266L18.4277-9.21875Q18.1836-9.16992 18.042-9.2041Q17.9004-9.23828 17.7148-9.41406L15.7129-11.416Q15.5176-11.5918 15.4932-11.7529Q15.4688-11.9141 15.5859-12.1875L16.4648-14.2773Q15.293-15.3711 13.8281-15.791Q12.3633-16.2109 10.8398-15.7617Q10.7227-15.7324 10.6885-15.8057Q10.6543-15.8789 10.752-15.957Z"/>
  </g>
  <text style="stroke:none;fill:black;font-family:sans-serif;font-size:13;font-weight:bold;" transform="matrix(1 0 0 1 1289 1953)">Exporting</text>
  <text style="stroke:none;fill:black;font-family:sans-serif;font-size:13;" transform="matrix(1 0 0 1 1289 1971)">Symbols should be outlined when exporting to ensure the</text>
  <text style="stroke:none;fill:black;font-family:sans-serif;font-size:13;" transform="matrix(1 0 0 1 1289 1989)">design is preserved when submitting to Xcode.</text>
  <text id="template-version" style="stroke:none;fill:black;font-family:sans-serif;font-size:13;text-anchor:end;" transform="matrix(1 0 0 1 3036 1933)">Template v.3.0</text>
  <text style="stroke:none;fill:black;font-family:sans-serif;font-size:13;text-anchor:end;" transform="matrix(1 0 0 1 3036 1951)">Requires Xcode 13 or greater</text>
  <text id="descriptive-name" style="stroke:none;fill:black;font-family:sans-serif;font-size:13;text-anchor:end;" transform="matrix(1 0 0 1 3036 1969)">Generated from rectangle.split.3x3.fill</text>
  <text style="stroke:none;fill:black;font-family:sans-serif;font-size:13;text-anchor:end;" transform="matrix(1 0 0 1 3036 1987)">Typeset at 100 points</text>
  <text style="stroke:none;fill:black;font-family:sans-serif;font-size:13;" transform="matrix(1 0 0 1 263 726)">Small</text>
  <text style="stroke:none;fill:black;font-family:sans-serif;font-size:13;" transform="matrix(1 0 0 1 263 1156)">Medium</text>
  <text style="stroke:none;fill:black;font-family:sans-serif;font-size:13;" transform="matrix(1 0 0 1 263 1586)">Large</text>
 </g>
 <g id="Guides">
  <g id="H-reference" style="fill:#27AAE1;stroke:none;" transform="matrix(1 0 0 1 339 696)">
   <path d="M0.976562 0L3.66211 0L29.3457-67.1387L30.0293-67.1387L30.0293-70.459L28.125-70.459ZM11.6699-24.4629L46.9727-24.4629L46.2402-26.709L12.4512-26.709ZM55.127 0L57.7637 0L30.6152-70.459L29.4434-70.459L29.4434-67.1387Z"/>
  </g>
  <line id="Baseline-S" style="fill:none;stroke:#27AAE1;opacity:1;stroke-width:0.5;" x1="263" x2="3036" y1="696" y2="696"/>
  <line id="Capline-S" style="fill:none;stroke:#27AAE1;opacity:1;stroke-width:0.5;" x1="263" x2="3036" y1="625.541" y2="625.541"/>
  <g id="H-reference" style="fill:#27AAE1;stroke:none;" transform="matrix(1 0 0 1 339 1126)">
   <path d="M0.976562 0L3.66211 0L29.3457-67.1387L30.0293-67.1387L30.0293-70.459L28.125-70.459ZM11.6699-24.4629L46.9727-24.4629L46.2402-26.709L12.4512-26.709ZM55.127 0L57.7637 0L30.6152-70.459L29.4434-70.459L29.4434-67.1387Z"/>
  </g>
  <line id="Baseline-M" style="fill:none;stroke:#27AAE1;opacity:1;stroke-width:0.5;" x1="263" x2="3036" y1="1126" y2="1126"/>
  <line id="Capline-M" style="fill:none;stroke:#27AAE1;opacity:1;stroke-width:0.5;" x1="263" x2="3036" y1="1055.54" y2="1055.54"/>
  <g id="H-reference" style="fill:#27AAE1;stroke:none;" transform="matrix(1 0 0 1 339 1556)">
   <path d="M0.976562 0L3.66211 0L29.3457-67.1387L30.0293-67.1387L30.0293-70.459L28.125-70.459ZM11.6699-24.4629L46.9727-24.4629L46.2402-26.709L12.4512-26.709ZM55.127 0L57.7637 0L30.6152-70.459L29.4434-70.459L29.4434-67.1387Z"/>
  </g>
  <line id="Baseline-L" style="fill:none;stroke:#27AAE1;opacity:1;stroke-width:0.5;" x1="263" x2="3036" y1="1556" y2="1556"/>
  <line id="Capline-L" style="fill:none;stroke:#27AAE1;opacity:1;stroke-width:0.5;" x1="263" x2="3036" y1="1485.54" y2="1485.54"/>
  <line id="left-margin-Ultralight-S" style="fill:none;stroke:#00AEEF;stroke-width:0.5;opacity:1.0;" x1="505.707" x2="505.707" y1="600.785" y2="720.121"/>
  <line id="right-margin-Ultralight-S" style="fill:none;stroke:#00AEEF;stroke-width:0.5;opacity:1.0;" x1="613.715" x2="613.715" y1="600.785" y2="720.121"/>
  <line id="left-margin-Thin-S" style="fill:none;stroke:#00AEEF;stroke-width:0.5;opacity:1.0;" x1="802.174" x2="802.174" y1="600.785" y2="720.121"/>
  <line id="right-margin-Thin-S" style="fill:none;stroke:#00AEEF;stroke-width:0.5;opacity:1.0;" x1="910.67" x2="910.67" y1="600.785" y2="720.121"/>
  <line id="left-margin-Light-S" style="fill:none;stroke:#00AEEF;stroke-width:0.5;opacity:1.0;" x1="1098.42" x2="1098.42" y1="600.785" y2="720.121"/>
  <line id="right-margin-Light-S" style="fill:none;stroke:#00AEEF;stroke-width:0.5;opacity:1.0;" x1="1207.85" x2="1207.85" y1="600.785" y2="720.121"/>
  <line id="left-margin-Regular-S" style="fill:none;stroke:#00AEEF;stroke-width:0.5;opacity:1.0;" x1="1394.79" x2="1394.79" y1="600.785" y2="720.121"/>
  <line id="right-margin-Regular-S" style="fill:none;stroke:#00AEEF;stroke-width:0.5;opacity:1.0;" x1="1504.9" x2="1504.9" y1="600.785" y2="720.121"/>
  <line id="left-margin-Medium-S" style="fill:none;stroke:#00AEEF;stroke-width:0.5;opacity:1.0;" x1="1691.33" x2="1691.33" y1="600.785" y2="720.121"/>
  <line id="right-margin-Medium-S" style="fill:none;stroke:#00AEEF;stroke-width:0.5;opacity:1.0;" x1="1801.78" x2="1801.78" y1="600.785" y2="720.121"/>
  <line id="left-margin-Semibold-S" style="fill:none;stroke:#00AEEF;stroke-width:0.5;opacity:1.0;" x1="1987.9" x2="1987.9" y1="600.785" y2="720.121"/>
  <line id="right-margin-Semibold-S" style="fill:none;stroke:#00AEEF;stroke-width:0.5;opacity:1.0;" x1="2098.64" x2="2098.64" y1="600.785" y2="720.121"/>
  <line id="left-margin-Bold-S" style="fill:none;stroke:#00AEEF;stroke-width:0.5;opacity:1.0;" x1="2284.41" x2="2284.41" y1="600.785" y2="720.121"/>
  <line id="right-margin-Bold-S" style="fill:none;stroke:#00AEEF;stroke-width:0.5;opacity:1.0;" x1="2395.54" x2="2395.54" y1="600.785" y2="720.121"/>
  <line id="left-margin-Heavy-S" style="fill:none;stroke:#00AEEF;stroke-width:0.5;opacity:1.0;" x1="2580.88" x2="2580.88" y1="600.785" y2="720.121"/>
  <line id="right-margin-Heavy-S" style="fill:none;stroke:#00AEEF;stroke-width:0.5;opacity:1.0;" x1="2692.5" x2="2692.5" y1="600.785" y2="720.121"/>
  <line id="left-margin-Black-S" style="fill:none;stroke:#00AEEF;stroke-width:0.5;opacity:1.0;" x1="2877.35" x2="2877.35" y1="600.785" y2="720.121"/>
  <line id="right-margin-Black-S" style="fill:none;stroke:#00AEEF;stroke-width:0.5;opacity:1.0;" x1="2989.45" x2="2989.45" y1="600.785" y2="720.121"/>
  <line id="left-margin-Ultralight-M" style="fill:none;stroke:#00AEEF;stroke-width:0.5;opacity:1.0;" x1="490.863" x2="490.863" y1="1030.79" y2="1150.12"/>
  <line id="right-margin-Ultralight-M" style="fill:none;stroke:#00AEEF;stroke-width:0.5;opacity:1.0;" x1="628.559" x2="628.559" y1="1030.79" y2="1150.12"/>
  <line id="left-margin-Thin-M" style="fill:none;stroke:#00AEEF;stroke-width:0.5;opacity:1.0;" x1="787.306" x2="787.306" y1="1030.79" y2="1150.12"/>
  <line id="right-margin-Thin-M" style="fill:none;stroke:#00AEEF;stroke-width:0.5;opacity:1.0;" x1="925.538" x2="925.538" y1="1030.79" y2="1150.12"/>
  <line id="left-margin-Light-M" style="fill:none;stroke:#00AEEF;stroke-width:0.5;opacity:1.0;" x1="1083.5" x2="1083.5" y1="1030.79" y2="1150.12"/>
  <line id="right-margin-Light-M" style="fill:none;stroke:#00AEEF;stroke-width:0.5;opacity:1.0;" x1="1222.76" x2="1222.76" y1="1030.79" y2="1150.12"/>
  <line id="left-margin-Regular-M" style="fill:none;stroke:#00AEEF;stroke-width:0.5;opacity:1.0;" x1="1379.82" x2="1379.82" y1="1030.79" y2="1150.12"/>
  <line id="right-margin-Regular-M" style="fill:none;stroke:#00AEEF;stroke-width:0.5;opacity:1.0;" x1="1519.86" x2="1519.86" y1="1030.79" y2="1150.12"/>
  <line id="left-margin-Medium-M" style="fill:none;stroke:#00AEEF;stroke-width:0.5;opacity:1.0;" x1="1676.29" x2="1676.29" y1="1030.79" y2="1150.12"/>
  <line id="right-margin-Medium-M" style="fill:none;stroke:#00AEEF;stroke-width:0.5;opacity:1.0;" x1="1816.82" x2="1816.82" y1="1030.79" y2="1150.12"/>
  <line id="left-margin-Semibold-M" style="fill:none;stroke:#00AEEF;stroke-width:0.5;opacity:1.0;" x1="1972.81" x2="1972.81" y1="1030.79" y2="1150.12"/>
  <line id="right-margin-Semibold-M" style="fill:none;stroke:#00AEEF;stroke-width:0.5;opacity:1.0;" x1="2113.73" x2="2113.73" y1="1030.79" y2="1150.12"/>
  <line id="left-margin-Bold-M" style="fill:none;stroke:#00AEEF;stroke-width:0.5;opacity:1.0;" x1="2269.25" x2="2269.25" y1="1030.79" y2="1150.12"/>
  <line id="right-margin-Bold-M" style="fill:none;stroke:#00AEEF;stroke-width:0.5;opacity:1.0;" x1="2410.71" x2="2410.71" y1="1030.79" y2="1150.12"/>
  <line id="left-margin-Heavy-M" style="fill:none;stroke:#00AEEF;stroke-width:0.5;opacity:1.0;" x1="2565.6" x2="2565.6" y1="1030.79" y2="1150.12"/>
  <line id="right-margin-Heavy-M" style="fill:none;stroke:#00AEEF;stroke-width:0.5;opacity:1.0;" x1="2707.78" x2="2707.78" y1="1030.79" y2="1150.12"/>
  <line id="left-margin-Black-M" style="fill:none;stroke:#00AEEF;stroke-width:0.5;opacity:1.0;" x1="2861.96" x2="2861.96" y1="1030.79" y2="1150.12"/>
  <line id="right-margin-Black-M" style="fill:none;stroke:#00AEEF;stroke-width:0.5;opacity:1.0;" x1="3004.84" x2="3004.84" y1="1030.79" y2="1150.12"/>
  <line id="left-margin-Ultralight-L" style="fill:none;stroke:#00AEEF;stroke-width:0.5;opacity:1.0;" x1="471.015" x2="471.015" y1="1460.79" y2="1580.12"/>
  <line id="right-margin-Ultralight-L" style="fill:none;stroke:#00AEEF;stroke-width:0.5;opacity:1.0;" x1="648.407" x2="648.407" y1="1460.79" y2="1580.12"/>
  <line id="left-margin-Thin-L" style="fill:none;stroke:#00AEEF;stroke-width:0.5;opacity:1.0;" x1="767.409" x2="767.409" y1="1460.79" y2="1580.12"/>
  <line id="right-margin-Thin-L" style="fill:none;stroke:#00AEEF;stroke-width:0.5;opacity:1.0;" x1="945.436" x2="945.436" y1="1460.79" y2="1580.12"/>
  <line id="left-margin-Light-L" style="fill:none;stroke:#00AEEF;stroke-width:0.5;opacity:1.0;" x1="1063.53" x2="1063.53" y1="1460.79" y2="1580.12"/>
  <line id="right-margin-Light-L" style="fill:none;stroke:#00AEEF;stroke-width:0.5;opacity:1.0;" x1="1242.73" x2="1242.73" y1="1460.79" y2="1580.12"/>
  <line id="left-margin-Regular-L" style="fill:none;stroke:#00AEEF;stroke-width:0.5;opacity:1.0;" x1="1359.81" x2="1359.81" y1="1460.79" y2="1580.12"/>
  <line id="right-margin-Regular-L" style="fill:none;stroke:#00AEEF;stroke-width:0.5;opacity:1.0;" x1="1539.88" x2="1539.88" y1="1460.79" y2="1580.12"/>
  <line id="left-margin-Medium-L" style="fill:none;stroke:#00AEEF;stroke-width:0.5;opacity:1.0;" x1="1656.17" x2="1656.17" y1="1460.79" y2="1580.12"/>
  <line id="right-margin-Medium-L" style="fill:none;stroke:#00AEEF;stroke-width:0.5;opacity:1.0;" x1="1836.94" x2="1836.94" y1="1460.79" y2="1580.12"/>
  <line id="left-margin-Semibold-L" style="fill:none;stroke:#00AEEF;stroke-width:0.5;opacity:1.0;" x1="1952.64" x2="1952.64" y1="1460.79" y2="1580.12"/>
  <line id="right-margin-Semibold-L" style="fill:none;stroke:#00AEEF;stroke-width:0.5;opacity:1.0;" x1="2133.89" x2="2133.89" y1="1460.79" y2="1580.12"/>
  <line id="left-margin-Bold-L" style="fill:none;stroke:#00AEEF;stroke-width:0.5;opacity:1.0;" x1="2249.01" x2="2249.01" y1="1460.79" y2="1580.12"/>
  <line id="right-margin-Bold-L" style="fill:none;stroke:#00AEEF;stroke-width:0.5;opacity:1.0;" x1="2430.94" x2="2430.94" y1="1460.79" y2="1580.12"/>
  <line id="left-margin-Heavy-L" style="fill:none;stroke:#00AEEF;stroke-width:0.5;opacity:1.0;" x1="2545.23" x2="2545.23" y1="1460.79" y2="1580.12"/>
  <line id="right-margin-Heavy-L" style="fill:none;stroke:#00AEEF;stroke-width:0.5;opacity:1.0;" x1="2728.14" x2="2728.14" y1="1460.79" y2="1580.12"/>
  <line id="left-margin-Black-L" style="fill:none;stroke:#00AEEF;stroke-width:0.5;opacity:1.0;" x1="2841.51" x2="2841.51" y1="1460.79" y2="1580.12"/>
  <line id="right-margin-Black-L" style="fill:none;stroke:#00AEEF;stroke-width:0.5;opacity:1.0;" x1="3025.29" x2="3025.29" y1="1460.79" y2="1580.12"/>
 </g>
 <g id="Symbols">
  <g id="Black-L" transform="matrix(1 0 0 1 2841.51 1556)">
   <path d="M16.0645-1.95312L16.0645-21.0449L53.9062-21.0449L53.9062-49.4629L16.0645-49.4629L16.0645-68.5059L53.9062-68.5059L53.9062-96.875L72.998-96.875L72.998-68.5059L110.791-68.5059L110.791-96.875L129.834-96.875L129.834-68.5059L167.725-68.5059L167.725-49.4629L129.834-49.4629L129.834-21.0449L167.725-21.0449L167.725-1.95312L129.834-1.95312L129.834 26.5137L110.791 26.5137L110.791-1.95312L72.998-1.95312L72.998 26.5137L53.9062 26.5137L53.9062-1.95312ZM72.998-21.0449L110.791-21.0449L110.791-49.4629L72.998-49.4629ZM39.9902 26.5137L143.799 26.5137Q155.225 26.5137 161.475 20.3125Q167.725 14.1113 167.725 2.68555L167.725-73.0957Q167.725-84.4727 161.475-90.6738Q155.225-96.875 143.799-96.875L39.9902-96.875Q28.5645-96.875 22.3145-90.6738Q16.0645-84.4727 16.0645-73.0957L16.0645 2.68555Q16.0645 14.1113 22.3145 20.3125Q28.5645 26.5137 39.9902 26.5137Z"/>
  </g>
  <g id="Heavy-L" transform="matrix(1 0 0 1 2545.23 1556)">
   <path d="M16.0645-3.90625L16.0645-20.5566L55.2734-20.5566L55.2734-49.9023L16.0645-49.9023L16.0645-66.5039L55.2734-66.5039L55.2734-95.8496L71.875-95.8496L71.875-66.5039L111.035-66.5039L111.035-95.8496L127.588-95.8496L127.588-66.5039L166.846-66.5039L166.846-49.9023L127.588-49.9023L127.588-20.5566L166.846-20.5566L166.846-3.90625L127.588-3.90625L127.588 25.4883L111.035 25.4883L111.035-3.90625L71.875-3.90625L71.875 25.4883L55.2734 25.4883L55.2734-3.90625ZM71.875-20.5566L111.035-20.5566L111.035-49.9023L71.875-49.9023ZM38.8184 25.4883L144.092 25.4883Q155.029 25.4883 160.938 19.6289Q166.846 13.7695 166.846 2.83203L166.846-73.2422Q166.846-84.1309 160.938-89.9902Q155.029-95.8496 144.092-95.8496L38.8184-95.8496Q27.8809-95.8496 21.9727-90.0146Q16.0645-84.1797 16.0645-73.2422L16.0645 2.83203Q16.0645 13.7695 21.9727 19.6289Q27.8809 25.4883 38.8184 25.4883Z"/>
  </g>
  <g id="Bold-L" transform="matrix(1 0 0 1 2249.01 1556)">
   <path d="M16.0645-6.10352L16.0645-19.9707L56.7871-19.9707L56.7871-50.4395L16.0645-50.4395L16.0645-64.3066L56.7871-64.3066L56.7871-94.7266L70.6543-94.7266L70.6543-64.3066L111.279-64.3066L111.279-94.7266L125.146-94.7266L125.146-64.3066L165.869-64.3066L165.869-50.4395L125.146-50.4395L125.146-19.9707L165.869-19.9707L165.869-6.10352L125.146-6.10352L125.146 24.3652L111.279 24.3652L111.279-6.10352L70.6543-6.10352L70.6543 24.3652L56.7871 24.3652L56.7871-6.10352ZM70.6543-19.9707L111.279-19.9707L111.279-50.4395L70.6543-50.4395ZM37.5488 24.3652L144.385 24.3652Q154.834 24.3652 160.352 18.8965Q165.869 13.4277 165.869 3.02734L165.869-73.4375Q165.869-83.7891 160.352-89.2822Q154.834-94.7754 144.385-94.7754L37.5488-94.7754Q27.0996-94.7754 21.582-89.3066Q16.0645-83.8379 16.0645-73.4375L16.0645 3.02734Q16.0645 13.4277 21.582 18.8965Q27.0996 24.3652 37.5488 24.3652Z"/>
  </g>
  <g id="Semibold-L" transform="matrix(1 0 0 1 1952.64 1556)">
   <path d="M16.0645-7.61719L16.0645-19.5801L57.8125-19.5801L57.8125-50.7812L16.0645-50.7812L16.0645-62.7441L57.8125-62.7441L57.8125-93.8965L69.8242-93.8965L69.8242-62.7441L111.475-62.7441L111.475-93.8965L123.389-93.8965L123.389-62.7441L165.186-62.7441L165.186-50.7812L123.389-50.7812L123.389-19.5801L165.186-19.5801L165.186-7.61719L123.389-7.61719L123.389 23.584L111.475 23.584L111.475-7.61719L69.8242-7.61719L69.8242 23.584L57.8125 23.584L57.8125-7.61719ZM69.8242-19.5801L111.475-19.5801L111.475-50.7812L69.8242-50.7812ZM36.6211 23.5352L144.58 23.5352Q154.688 23.5352 159.937 18.335Q165.186 13.1348 165.186 3.17383L165.186-73.584Q165.186-83.5449 159.937-88.7695Q154.688-93.9941 144.58-93.9941L36.6211-93.9941Q26.5625-93.9941 21.3135-88.7939Q16.0645-83.5938 16.0645-73.584L16.0645 3.17383Q16.0645 13.1836 21.3135 18.3594Q26.5625 23.5352 36.6211 23.5352Z"/>
  </g>
  <g id="Medium-L" transform="matrix(1 0 0 1 1656.17 1556)">
   <path d="M16.0645-8.74023L16.0645-19.2871L58.6426-19.2871L58.6426-51.0742L16.0645-51.0742L16.0645-61.5723L58.6426-61.5723L58.6426-93.3105L69.1406-93.3105L69.1406-61.5723L111.572-61.5723L111.572-93.3105L122.119-93.3105L122.119-61.5723L164.697-61.5723L164.697-51.0742L122.119-51.0742L122.119-19.2871L164.697-19.2871L164.697-8.74023L122.119-8.74023L122.119 22.998L111.572 22.998L111.572-8.74023L69.1406-8.74023L69.1406 22.998L58.6426 22.998L58.6426-8.74023ZM69.1406-19.2871L111.572-19.2871L111.572-51.0742L69.1406-51.0742ZM35.9375 22.9492L144.775 22.9492Q154.59 22.9492 159.644 17.9443Q164.697 12.9395 164.697 3.22266L164.697-73.6328Q164.697-83.3496 159.644-88.3789Q154.59-93.4082 144.775-93.4082L35.9375-93.4082Q26.1719-93.4082 21.1182-88.4033Q16.0645-83.3984 16.0645-73.6328L16.0645 3.22266Q16.0645 12.9883 21.1182 17.9688Q26.1719 22.9492 35.9375 22.9492Z"/>
  </g>
  <g id="Regular-L" transform="matrix(1 0 0 1 1359.81 1556)">
   <path d="M16.0645-10.2539L16.0645-18.8965L59.668-18.8965L59.668-51.416L16.0645-51.416L16.0645-60.0586L59.668-60.0586L59.668-92.5293L68.3105-92.5293L68.3105-60.0586L111.768-60.0586L111.768-92.5293L120.41-92.5293L120.41-60.0586L164.014-60.0586L164.014-51.416L120.41-51.416L120.41-18.8965L164.014-18.8965L164.014-10.2539L120.41-10.2539L120.41 22.2168L111.768 22.2168L111.768-10.2539L68.3105-10.2539L68.3105 22.2168L59.668 22.2168L59.668-10.2539ZM68.3105-18.8965L111.768-18.8965L111.768-51.416L68.3105-51.416ZM35.0586 22.168L144.971 22.168Q154.443 22.168 159.229 17.4316Q164.014 12.6953 164.014 3.36914L164.014-73.7793Q164.014-83.1055 159.229-87.8662Q154.443-92.627 144.971-92.627L35.0586-92.627Q25.6348-92.627 20.8496-87.8906Q16.0645-83.1543 16.0645-73.7793L16.0645 3.36914Q16.0645 12.7441 20.8496 17.4561Q25.6348 22.168 35.0586 22.168Z"/>
  </g>
  <g id="Light-L" transform="matrix(1 0 0 1 1063.53 1556)">
   <path d="M16.0645-11.8652L16.0645-18.5059L60.6934-18.5059L60.6934-51.7578L16.0645-51.7578L16.0645-58.3984L60.6934-58.3984L60.6934-91.6992L67.334-91.6992L67.334-58.3984L111.865-58.3984L111.865-91.6992L118.457-91.6992L118.457-58.3984L163.135-58.3984L163.135-51.7578L118.457-51.7578L118.457-18.5059L163.135-18.5059L163.135-11.8652L118.457-11.8652L118.457 21.4355L111.865 21.4355L111.865-11.8652L67.334-11.8652L67.334 21.4355L60.6934 21.4355L60.6934-11.8652ZM67.334-18.5059L111.865-18.5059L111.865-51.7578L67.334-51.7578ZM34.0332 21.3379L145.117 21.3379Q154.053 21.3379 158.594 16.7969Q163.135 12.2559 163.135 3.4668L163.135-73.9258Q163.135-82.7148 158.594-87.2559Q154.053-91.7969 145.117-91.7969L34.0332-91.7969Q25.1465-91.7969 20.6055-87.2803Q16.0645-82.7637 16.0645-73.9258L16.0645 3.4668Q16.0645 12.3047 20.6055 16.8213Q25.1465 21.3379 34.0332 21.3379Z"/>
  </g>
  <g id="Thin-L" transform="matrix(1 0 0 1 767.409 1556)">
   <path d="M16.0645-14.0137L16.0645-17.9688L62.1094-17.9688L62.1094-52.2461L16.0645-52.2461L16.0645-56.2012L62.1094-56.2012L62.1094-90.5762L66.0156-90.5762L66.0156-56.2012L111.963-56.2012L111.963-90.5762L115.918-90.5762L115.918-56.2012L161.963-56.2012L161.963-52.2461L115.918-52.2461L115.918-17.9688L161.963-17.9688L161.963-14.0137L115.918-14.0137L115.918 20.3613L111.963 20.3613L111.963-14.0137L66.0156-14.0137L66.0156 20.3613L62.1094 20.3613L62.1094-14.0137ZM66.0156-17.9688L111.963-17.9688L111.963-52.2461L66.0156-52.2461ZM32.666 20.2148L145.312 20.2148Q153.516 20.2148 157.739 15.918Q161.963 11.6211 161.963 3.61328L161.963-74.1211Q161.963-82.1777 157.739-86.4502Q153.516-90.7227 145.312-90.7227L32.666-90.7227Q24.5117-90.7227 20.2881-86.499Q16.0645-82.2754 16.0645-74.1211L16.0645 3.61328Q16.0645 11.7676 20.2881 15.9912Q24.5117 20.2148 32.666 20.2148Z"/>
  </g>
  <g id="Ultralight-L" transform="matrix(1 0 0 1 471.015 1556)">
   <path d="M16.0645-15.1367L16.0645-17.6758L62.793-17.6758L62.793-52.4902L16.0645-52.4902L16.0645-55.0781L62.793-55.0781L62.793-89.9902L65.3809-89.9902L65.3809-55.0781L112.061-55.0781L112.061-89.9902L114.6-89.9902L114.6-55.0781L161.328-55.0781L161.328-52.4902L114.6-52.4902L114.6-17.6758L161.328-17.6758L161.328-15.1367L114.6-15.1367L114.6 19.8242L112.061 19.8242L112.061-15.1367L65.3809-15.1367L65.3809 19.8242L62.793 19.8242L62.793-15.1367ZM65.3809-17.6758L112.061-17.6758L112.061-52.4902L65.3809-52.4902ZM31.9824 19.6289L145.41 19.6289Q153.223 19.6289 157.275 15.4785Q161.328 11.3281 161.328 3.71094L161.328-74.2188Q161.328-81.8848 157.275-86.0352Q153.223-90.1855 145.41-90.1855L31.9824-90.1855Q24.1699-90.1855 20.1172-86.1084Q16.0645-82.0312 16.0645-74.2188L16.0645 3.71094Q16.0645 11.4746 20.1172 15.5518Q24.1699 19.6289 31.9824 19.6289Z"/>
  </g>
  <g id="Black-M" transform="matrix(1 0 0 1 2861.96 1126)">
   <path d="M12.4512-8.34961L12.4512-24.5117L40.9668-24.5117L40.9668-45.9961L12.4512-45.9961L12.4512-62.1582L40.9668-62.1582L40.9668-83.5938L57.1777-83.5938L57.1777-62.1582L85.6934-62.1582L85.6934-83.5938L101.904-83.5938L101.904-62.1582L130.42-62.1582L130.42-45.9961L101.904-45.9961L101.904-24.5117L130.42-24.5117L130.42-8.34961L101.904-8.34961L101.904 13.2324L85.6934 13.2324L85.6934-8.34961L57.1777-8.34961L57.1777 13.2324L40.9668 13.2324L40.9668-8.34961ZM57.1777-24.5117L85.6934-24.5117L85.6934-45.9961L57.1777-45.9961ZM31.5918 13.2324L111.279 13.2324Q120.312 13.2324 125.366 8.17871Q130.42 3.125 130.42-5.9082L130.42-64.4531Q130.42-73.5352 125.366-78.5645Q120.312-83.5938 111.279-83.5938L31.5918-83.5938Q22.5586-83.5938 17.5049-78.5645Q12.4512-73.5352 12.4512-64.4531L12.4512-5.9082Q12.4512 3.125 17.5049 8.17871Q22.5586 13.2324 31.5918 13.2324Z"/>
  </g>
  <g id="Heavy-M" transform="matrix(1 0 0 1 2565.6 1126)">
   <path d="M12.4512-9.91211L12.4512-24.1211L42.0898-24.1211L42.0898-46.3867L12.4512-46.3867L12.4512-60.5469L42.0898-60.5469L42.0898-82.7637L56.2988-82.7637L56.2988-60.5469L85.8887-60.5469L85.8887-82.7637L100.146-82.7637L100.146-60.5469L129.736-60.5469L129.736-46.3867L100.146-46.3867L100.146-24.1211L129.736-24.1211L129.736-9.91211L100.146-9.91211L100.146 12.4023L85.8887 12.4023L85.8887-9.91211L56.2988-9.91211L56.2988 12.4023L42.0898 12.4023L42.0898-9.91211ZM56.2988-24.1211L85.8887-24.1211L85.8887-46.3867L56.2988-46.3867ZM30.7129 12.4023L111.523 12.4023Q120.215 12.4023 124.976 7.6416Q129.736 2.88086 129.736-5.76172L129.736-64.5996Q129.736-73.291 124.976-78.0273Q120.215-82.7637 111.523-82.7637L30.7129-82.7637Q21.9727-82.7637 17.2119-78.0518Q12.4512-73.3398 12.4512-64.5996L12.4512-5.76172Q12.4512 2.88086 17.2119 7.6416Q21.9727 12.4023 30.7129 12.4023Z"/>
  </g>
  <g id="Bold-M" transform="matrix(1 0 0 1 2269.25 1126)">
   <path d="M12.4512-11.6699L12.4512-23.6816L43.3105-23.6816L43.3105-46.7773L12.4512-46.7773L12.4512-58.7891L43.3105-58.7891L43.3105-81.8848L55.3711-81.8848L55.3711-58.7891L86.1328-58.7891L86.1328-81.8848L98.1934-81.8848L98.1934-58.7891L129.004-58.7891L129.004-46.7773L98.1934-46.7773L98.1934-23.6816L129.004-23.6816L129.004-11.6699L98.1934-11.6699L98.1934 11.5234L86.1328 11.5234L86.1328-11.6699L55.3711-11.6699L55.3711 11.5234L43.3105 11.5234L43.3105-11.6699ZM55.3711-23.6816L86.1328-23.6816L86.1328-46.7773L55.3711-46.7773ZM29.6875 11.4746L111.768 11.4746Q120.166 11.4746 124.585 7.05566Q129.004 2.63672 129.004-5.66406L129.004-64.7461Q129.004-73.0469 124.585-77.4658Q120.166-81.8848 111.768-81.8848L29.6875-81.8848Q21.3379-81.8848 16.8945-77.4902Q12.4512-73.0957 12.4512-64.7461L12.4512-5.66406Q12.4512 2.63672 16.8945 7.05566Q21.3379 11.4746 29.6875 11.4746Z"/>
  </g>
  <g id="Semibold-M" transform="matrix(1 0 0 1 1972.81 1126)">
   <path d="M12.4512-12.8418L12.4512-23.3398L44.1406-23.3398L44.1406-47.0703L12.4512-47.0703L12.4512-57.5684L44.1406-57.5684L44.1406-81.25L54.6875-81.25L54.6875-57.5684L86.2793-57.5684L86.2793-81.25L96.8262-81.25L96.8262-57.5684L128.467-57.5684L128.467-47.0703L96.8262-47.0703L96.8262-23.3398L128.467-23.3398L128.467-12.8418L96.8262-12.8418L96.8262 10.8887L86.2793 10.8887L86.2793-12.8418L54.6875-12.8418L54.6875 10.8887L44.1406 10.8887L44.1406-12.8418ZM54.6875-23.3398L86.2793-23.3398L86.2793-47.0703L54.6875-47.0703ZM29.0039 10.8398L111.963 10.8398Q120.068 10.8398 124.268 6.64062Q128.467 2.44141 128.467-5.51758L128.467-64.8438Q128.467-72.8516 124.268-77.0508Q120.068-81.25 111.963-81.25L29.0039-81.25Q20.8984-81.25 16.6748-77.0752Q12.4512-72.9004 12.4512-64.8438L12.4512-5.51758Q12.4512 2.44141 16.6748 6.64062Q20.8984 10.8398 29.0039 10.8398Z"/>
  </g>
  <g id="Medium-M" transform="matrix(1 0 0 1 1676.29 1126)">
   <path d="M12.4512-13.7695L12.4512-23.0957L44.8242-23.0957L44.8242-47.2656L12.4512-47.2656L12.4512-56.6406L44.8242-56.6406L44.8242-80.7617L54.1504-80.7617L54.1504-56.6406L86.4258-56.6406L86.4258-80.7617L95.8008-80.7617L95.8008-56.6406L128.076-56.6406L128.076-47.2656L95.8008-47.2656L95.8008-23.0957L128.076-23.0957L128.076-13.7695L95.8008-13.7695L95.8008 10.4004L86.4258 10.4004L86.4258-13.7695L54.1504-13.7695L54.1504 10.4004L44.8242 10.4004L44.8242-13.7695ZM54.1504-23.0957L86.4258-23.0957L86.4258-47.2656L54.1504-47.2656ZM28.4668 10.3516L112.061 10.3516Q120.02 10.3516 124.048 6.34766Q128.076 2.34375 128.076-5.46875L128.076-64.9414Q128.076-72.7539 124.048-76.7822Q120.02-80.8105 112.061-80.8105L28.4668-80.8105Q20.5566-80.8105 16.5039-76.7822Q12.4512-72.7539 12.4512-64.9414L12.4512-5.46875Q12.4512 2.34375 16.5039 6.34766Q20.5566 10.3516 28.4668 10.3516Z"/>
  </g>
  <g id="Regular-M" transform="matrix(1 0 0 1 1379.82 1126)">
   <path d="M12.4512-14.9414L12.4512-22.8027L45.6543-22.8027L45.6543-47.5586L12.4512-47.5586L12.4512-55.4199L45.6543-55.4199L45.6543-80.127L53.5156-80.127L53.5156-55.4199L86.5723-55.4199L86.5723-80.127L94.4336-80.127L94.4336-55.4199L127.588-55.4199L127.588-47.5586L94.4336-47.5586L94.4336-22.8027L127.588-22.8027L127.588-14.9414L94.4336-14.9414L94.4336 9.76562L86.5723 9.76562L86.5723-14.9414L53.5156-14.9414L53.5156 9.76562L45.6543 9.76562L45.6543-14.9414ZM53.5156-22.8027L86.5723-22.8027L86.5723-47.5586L53.5156-47.5586ZM27.7832 9.7168L112.256 9.7168Q119.971 9.7168 123.779 5.93262Q127.588 2.14844 127.588-5.37109L127.588-65.0391Q127.588-72.5586 123.779-76.3672Q119.971-80.1758 112.256-80.1758L27.7832-80.1758Q20.1172-80.1758 16.2842-76.3916Q12.4512-72.6074 12.4512-65.0391L12.4512-5.37109Q12.4512 2.14844 16.2842 5.93262Q20.1172 9.7168 27.7832 9.7168Z"/>
  </g>
  <g id="Light-M" transform="matrix(1 0 0 1 1083.5 1126)">
   <path d="M12.4512-16.4062L12.4512-22.4609L46.582-22.4609L46.582-47.9004L12.4512-47.9004L12.4512-53.9062L46.582-53.9062L46.582-79.3945L52.6367-79.3945L52.6367-53.9062L86.6699-53.9062L86.6699-79.3945L92.6758-79.3945L92.6758-53.9062L126.807-53.9062L126.807-47.9004L92.6758-47.9004L92.6758-22.4609L126.807-22.4609L126.807-16.4062L92.6758-16.4062L92.6758 9.0332L86.6699 9.0332L86.6699-16.4062L52.6367-16.4062L52.6367 9.0332L46.582 9.0332L46.582-16.4062ZM52.6367-22.4609L86.6699-22.4609L86.6699-47.9004L52.6367-47.9004ZM26.8555 8.98438L112.402 8.98438Q119.58 8.98438 123.193 5.37109Q126.807 1.75781 126.807-5.27344L126.807-65.1855Q126.807-72.2168 123.193-75.8301Q119.58-79.4434 112.402-79.4434L26.8555-79.4434Q19.6777-79.4434 16.0645-75.8545Q12.4512-72.2656 12.4512-65.1855L12.4512-5.27344Q12.4512 1.80664 16.0645 5.39551Q19.6777 8.98438 26.8555 8.98438Z"/>
  </g>
  <g id="Thin-M" transform="matrix(1 0 0 1 787.306 1126)">
   <path d="M12.4512-18.3105L12.4512-21.9727L47.8516-21.9727L47.8516-48.3398L12.4512-48.3398L12.4512-51.9531L47.8516-51.9531L47.8516-78.3691L51.4648-78.3691L51.4648-51.9531L86.7676-51.9531L86.7676-78.3691L90.3809-78.3691L90.3809-51.9531L125.781-51.9531L125.781-48.3398L90.3809-48.3398L90.3809-21.9727L125.781-21.9727L125.781-18.3105L90.3809-18.3105L90.3809 8.05664L86.7676 8.05664L86.7676-18.3105L51.4648-18.3105L51.4648 8.05664L47.8516 8.05664L47.8516-18.3105ZM51.4648-21.9727L86.7676-21.9727L86.7676-48.3398L51.4648-48.3398ZM25.5859 7.95898L112.549 7.95898Q119.092 7.95898 122.437 4.58984Q125.781 1.2207 125.781-5.17578L125.781-65.332Q125.781-71.7285 122.437-75.0977Q119.092-78.4668 112.549-78.4668L25.5859-78.4668Q19.1406-78.4668 15.7959-75.1221Q12.4512-71.7773 12.4512-65.332L12.4512-5.17578Q12.4512 1.31836 15.7959 4.63867Q19.1406 7.95898 25.5859 7.95898Z"/>
  </g>
  <g id="Ultralight-M" transform="matrix(1 0 0 1 490.863 1126)">
   <path d="M12.4512-19.2871L12.4512-21.7285L48.4863-21.7285L48.4863-48.5352L12.4512-48.5352L12.4512-50.9277L48.4863-50.9277L48.4863-77.8809L50.8301-77.8809L50.8301-50.9277L86.8164-50.9277L86.8164-77.8809L89.209-77.8809L89.209-50.9277L125.244-50.9277L125.244-48.5352L89.209-48.5352L89.209-21.7285L125.244-21.7285L125.244-19.2871L89.209-19.2871L89.209 7.56836L86.8164 7.56836L86.8164-19.2871L50.8301-19.2871L50.8301 7.56836L48.4863 7.56836L48.4863-19.2871ZM50.8301-21.7285L86.8164-21.7285L86.8164-48.5352L50.8301-48.5352ZM24.9512 7.4707L112.646 7.4707Q118.848 7.4707 122.046 4.22363Q125.244 0.976562 125.244-5.07812L125.244-65.4297Q125.244-71.4844 122.046-74.7314Q118.848-77.9785 112.646-77.9785L24.9512-77.9785Q18.8477-77.9785 15.6494-74.7803Q12.4512-71.582 12.4512-65.4297L12.4512-5.07812Q12.4512 1.07422 15.6494 4.27246Q18.8477 7.4707 24.9512 7.4707Z"/>
  </g>
  <g id="Black-S" transform="matrix(1 0 0 1 2877.35 696)">
   <path d="M9.76562-13.7695L9.76562-26.9531L31.8359-26.9531L31.8359-43.5547L9.76562-43.5547L9.76562-56.7383L31.8359-56.7383L31.8359-73.3398L45.0195-73.3398L45.0195-56.7383L67.0898-56.7383L67.0898-73.3398L80.2734-73.3398L80.2734-56.7383L102.344-56.7383L102.344-43.5547L80.2734-43.5547L80.2734-26.9531L102.344-26.9531L102.344-13.7695L80.2734-13.7695L80.2734 2.92969L67.0898 2.92969L67.0898-13.7695L45.0195-13.7695L45.0195 2.92969L31.8359 2.92969L31.8359-13.7695ZM45.0195-26.9531L67.0898-26.9531L67.0898-43.5547L45.0195-43.5547ZM25 2.92969L87.1094 2.92969Q94.2871 2.92969 98.3154-1.09863Q102.344-5.12695 102.344-12.3047L102.344-58.1055Q102.344-65.2832 98.3154-69.3115Q94.2871-73.3398 87.1094-73.3398L25-73.3398Q17.8223-73.3398 13.7939-69.3115Q9.76562-65.2832 9.76562-58.1055L9.76562-12.3047Q9.76562-5.12695 13.7939-1.09863Q17.8223 2.92969 25 2.92969Z"/>
  </g>
  <g id="Heavy-S" transform="matrix(1 0 0 1 2580.88 696)">
   <path d="M9.76562-14.9414L9.76562-26.6602L32.666-26.6602L32.666-43.8477L9.76562-43.8477L9.76562-55.5664L32.666-55.5664L32.666-72.7539L44.3848-72.7539L44.3848-55.5664L67.2363-55.5664L67.2363-72.7539L79.0039-72.7539L79.0039-55.5664L101.855-55.5664L101.855-43.8477L79.0039-43.8477L79.0039-26.6602L101.855-26.6602L101.855-14.9414L79.0039-14.9414L79.0039 2.34375L67.2363 2.34375L67.2363-14.9414L44.3848-14.9414L44.3848 2.34375L32.666 2.34375L32.666-14.9414ZM44.3848-26.6602L67.2363-26.6602L67.2363-43.8477L44.3848-43.8477ZM24.3652 2.34375L87.3047 2.34375Q94.2871 2.34375 98.0713-1.46484Q101.855-5.27344 101.855-12.207L101.855-58.2031Q101.855-65.1367 98.0713-68.9453Q94.2871-72.7539 87.3047-72.7539L24.3652-72.7539Q17.3828-72.7539 13.5742-68.9453Q9.76562-65.1367 9.76562-58.2031L9.76562-12.207Q9.76562-5.27344 13.5742-1.46484Q17.3828 2.34375 24.3652 2.34375Z"/>
  </g>
  <g id="Bold-S" transform="matrix(1 0 0 1 2284.41 696)">
   <path d="M9.76562-16.2109L9.76562-26.3184L33.5938-26.3184L33.5938-44.1406L9.76562-44.1406L9.76562-54.248L33.5938-54.248L33.5938-72.0703L43.7012-72.0703L43.7012-54.248L67.4316-54.248L67.4316-72.0703L77.5391-72.0703L77.5391-54.248L101.367-54.248L101.367-44.1406L77.5391-44.1406L77.5391-26.3184L101.367-26.3184L101.367-16.2109L77.5391-16.2109L77.5391 1.66016L67.4316 1.66016L67.4316-16.2109L43.7012-16.2109L43.7012 1.66016L33.5938 1.66016L33.5938-16.2109ZM43.7012-26.3184L67.4316-26.3184L67.4316-44.1406L43.7012-44.1406ZM23.6328 1.66016L87.5 1.66016Q94.2383 1.66016 97.8027-1.9043Q101.367-5.46875 101.367-12.1094L101.367-58.3008Q101.367-64.9902 97.8027-68.5303Q94.2383-72.0703 87.5-72.0703L23.6328-72.0703Q16.9434-72.0703 13.3545-68.5303Q9.76562-64.9902 9.76562-58.3008L9.76562-12.1094Q9.76562-5.46875 13.3545-1.9043Q16.9434 1.66016 23.6328 1.66016Z"/>
  </g>
  <g id="Semibold-S" transform="matrix(1 0 0 1 1987.9 696)">
   <path d="M9.76562-17.0898L9.76562-26.0742L34.1797-26.0742L34.1797-44.3359L9.76562-44.3359L9.76562-53.3203L34.1797-53.3203L34.1797-71.6309L43.1641-71.6309L43.1641-53.3203L67.5781-53.3203L67.5781-71.6309L76.5625-71.6309L76.5625-53.3203L100.977-53.3203L100.977-44.3359L76.5625-44.3359L76.5625-26.0742L100.977-26.0742L100.977-17.0898L76.5625-17.0898L76.5625 1.2207L67.5781 1.2207L67.5781-17.0898L43.1641-17.0898L43.1641 1.2207L34.1797 1.2207L34.1797-17.0898ZM43.1641-26.0742L67.5781-26.0742L67.5781-44.3359L43.1641-44.3359ZM23.0957 1.2207L87.6465 1.2207Q94.2383 1.2207 97.6074-2.17285Q100.977-5.56641 100.977-12.0605L100.977-58.3496Q100.977-64.8438 97.6074-68.2373Q94.2383-71.6309 87.6465-71.6309L23.0957-71.6309Q16.6016-71.6309 13.1836-68.2373Q9.76562-64.8438 9.76562-58.3496L9.76562-12.0605Q9.76562-5.56641 13.1836-2.17285Q16.6016 1.2207 23.0957 1.2207Z"/>
  </g>
  <g id="Medium-S" transform="matrix(1 0 0 1 1691.33 696)">
   <path d="M9.76562-17.7734L9.76562-25.9277L34.668-25.9277L34.668-44.5312L9.76562-44.5312L9.76562-52.6367L34.668-52.6367L34.668-71.2402L42.8223-71.2402L42.8223-52.6367L67.627-52.6367L67.627-71.2402L75.7812-71.2402L75.7812-52.6367L100.684-52.6367L100.684-44.5312L75.7812-44.5312L75.7812-25.9277L100.684-25.9277L100.684-17.7734L75.7812-17.7734L75.7812 0.830078L67.627 0.830078L67.627-17.7734L42.8223-17.7734L42.8223 0.830078L34.668 0.830078L34.668-17.7734ZM42.8223-25.9277L67.627-25.9277L67.627-44.5312L42.8223-44.5312ZM22.7051 0.830078L87.7441 0.830078Q94.1895 0.830078 97.4365-2.41699Q100.684-5.66406 100.684-11.9629L100.684-58.4473Q100.684-64.7461 97.4365-67.9932Q94.1895-71.2402 87.7441-71.2402L22.7051-71.2402Q16.3574-71.2402 13.0615-67.9932Q9.76562-64.7461 9.76562-58.4473L9.76562-11.9629Q9.76562-5.66406 13.0615-2.41699Q16.3574 0.830078 22.7051 0.830078Z"/>
  </g>
  <g id="Regular-S" transform="matrix(1 0 0 1 1394.79 696)">
   <path d="M9.76562-18.6523L9.76562-25.6836L35.3027-25.6836L35.3027-44.7266L9.76562-44.7266L9.76562-51.7578L35.3027-51.7578L35.3027-70.8008L42.334-70.8008L42.334-51.7578L67.7734-51.7578L67.7734-70.8008L74.8047-70.8008L74.8047-51.7578L100.342-51.7578L100.342-44.7266L74.8047-44.7266L74.8047-25.6836L100.342-25.6836L100.342-18.6523L74.8047-18.6523L74.8047 0.390625L67.7734 0.390625L67.7734-18.6523L42.334-18.6523L42.334 0.390625L35.3027 0.390625L35.3027-18.6523ZM42.334-25.6836L67.7734-25.6836L67.7734-44.7266L42.334-44.7266ZM22.2168 0.390625L87.8906 0.390625Q94.1895 0.390625 97.2656-2.68555Q100.342-5.76172 100.342-11.9141L100.342-58.4961Q100.342-64.6484 97.2656-67.7246Q94.1895-70.8008 87.8906-70.8008L22.2168-70.8008Q16.0156-70.8008 12.8906-67.7246Q9.76562-64.6484 9.76562-58.4961L9.76562-11.9141Q9.76562-5.76172 12.8906-2.68555Q16.0156 0.390625 22.2168 0.390625Z"/>
  </g>
  <g id="Light-S" transform="matrix(1 0 0 1 1098.42 696)">
   <path d="M9.76562-19.9219L9.76562-25.3418L36.1328-25.3418L36.1328-45.0195L9.76562-45.0195L9.76562-50.4395L36.1328-50.4395L36.1328-70.1172L41.5527-70.1172L41.5527-50.4395L67.8711-50.4395L67.8711-70.1172L73.291-70.1172L73.291-50.4395L99.6582-50.4395L99.6582-45.0195L73.291-45.0195L73.291-25.3418L99.6582-25.3418L99.6582-19.9219L73.291-19.9219L73.291-0.244141L67.8711-0.244141L67.8711-19.9219L41.5527-19.9219L41.5527-0.244141L36.1328-0.244141L36.1328-19.9219ZM41.5527-25.3418L67.8711-25.3418L67.8711-45.0195L41.5527-45.0195ZM21.3867-0.292969L87.9883-0.292969Q93.8477-0.292969 96.7529-3.19824Q99.6582-6.10352 99.6582-11.8164L99.6582-58.5938Q99.6582-64.3066 96.7529-67.2363Q93.8477-70.166 87.9883-70.166L21.3867-70.166Q15.625-70.166 12.6953-67.2607Q9.76562-64.3555 9.76562-58.5938L9.76562-11.8164Q9.76562-6.10352 12.6953-3.19824Q15.625-0.292969 21.3867-0.292969Z"/>
  </g>
  <g id="Thin-S" transform="matrix(1 0 0 1 802.174 696)">
   <path d="M9.76562-21.6309L9.76562-24.9512L37.2559-24.9512L37.2559-45.4102L9.76562-45.4102L9.76562-48.6816L37.2559-48.6816L37.2559-69.2383L40.5273-69.2383L40.5273-48.6816L67.9688-48.6816L67.9688-69.2383L71.2402-69.2383L71.2402-48.6816L98.7305-48.6816L98.7305-45.4102L71.2402-45.4102L71.2402-24.9512L98.7305-24.9512L98.7305-21.6309L71.2402-21.6309L71.2402-1.12305L67.9688-1.12305L67.9688-21.6309L40.5273-21.6309L40.5273-1.12305L37.2559-1.12305L37.2559-21.6309ZM40.5273-24.9512L67.9688-24.9512L67.9688-45.4102L40.5273-45.4102ZM20.3125-1.17188L88.1836-1.17188Q93.4082-1.17188 96.0693-3.88184Q98.7305-6.5918 98.7305-11.7188L98.7305-58.7891Q98.7305-63.916 96.0693-66.6016Q93.4082-69.2871 88.1836-69.2871L20.3125-69.2871Q15.0879-69.2871 12.4268-66.626Q9.76562-63.9648 9.76562-58.7891L9.76562-11.7188Q9.76562-6.49414 12.4268-3.83301Q15.0879-1.17188 20.3125-1.17188Z"/>
  </g>
  <g id="Ultralight-S" transform="matrix(1 0 0 1 505.707 696)">
   <path d="M9.76562-22.5098L9.76562-24.707L37.793-24.707L37.793-45.6055L9.76562-45.6055L9.76562-47.8027L37.793-47.8027L37.793-68.75L40.0391-68.75L40.0391-47.8027L68.0176-47.8027L68.0176-68.75L70.2148-68.75L70.2148-47.8027L98.2422-47.8027L98.2422-45.6055L70.2148-45.6055L70.2148-24.707L98.2422-24.707L98.2422-22.5098L70.2148-22.5098L70.2148-1.5625L68.0176-1.5625L68.0176-22.5098L40.0391-22.5098L40.0391-1.5625L37.793-1.5625L37.793-22.5098ZM40.0391-24.707L68.0176-24.707L68.0176-45.6055L40.0391-45.6055ZM19.7754-1.66016L88.2324-1.66016Q93.2129-1.66016 95.7275-4.22363Q98.2422-6.78711 98.2422-11.6211L98.2422-58.8379Q98.2422-63.6719 95.7275-66.2598Q93.2129-68.8477 88.2324-68.8477L19.7754-68.8477Q14.8438-68.8477 12.3047-66.3086Q9.76562-63.7695 9.76562-58.8379L9.76562-11.6211Q9.76562-6.73828 12.3047-4.19922Q14.8438-1.66016 19.7754-1.66016Z"/>
  </g>
 </g>
</svg>
