<?xml version="1.0" encoding="UTF-8"?>
<!--Generator: Apple Native CoreSVG 175-->
<!DOCTYPE svg
PUBLIC "-//W3C//DTD SVG 1.1//EN"
       "http://www.w3.org/Graphics/SVG/1.1/DTD/svg11.dtd">
<svg version="1.1" xmlns="http://www.w3.org/2000/svg" xmlns:xlink="http://www.w3.org/1999/xlink" width="3300" height="2200">
 <!--glyph: "uni10039B.medium", point size: 100.0, font version: "17.0d11e1", template writer version: "65.1"-->
 <g id="Notes">
  <rect height="2200" id="artboard" style="fill:white;opacity:1" width="3300" x="0" y="0"/>
  <line style="fill:none;stroke:black;opacity:1;stroke-width:0.5;" x1="263" x2="3036" y1="292" y2="292"/>
  <text style="stroke:none;fill:black;font-family:sans-serif;font-size:13;font-weight:bold;" transform="matrix(1 0 0 1 263 322)">Weight/Scale Variations</text>
  <text style="stroke:none;fill:black;font-family:sans-serif;font-size:13;text-anchor:middle;" transform="matrix(1 0 0 1 559.711 322)">Ultralight</text>
  <text style="stroke:none;fill:black;font-family:sans-serif;font-size:13;text-anchor:middle;" transform="matrix(1 0 0 1 856.422 322)">Thin</text>
  <text style="stroke:none;fill:black;font-family:sans-serif;font-size:13;text-anchor:middle;" transform="matrix(1 0 0 1 1153.13 322)">Light</text>
  <text style="stroke:none;fill:black;font-family:sans-serif;font-size:13;text-anchor:middle;" transform="matrix(1 0 0 1 1449.84 322)">Regular</text>
  <text style="stroke:none;fill:black;font-family:sans-serif;font-size:13;text-anchor:middle;" transform="matrix(1 0 0 1 1746.56 322)">Medium</text>
  <text style="stroke:none;fill:black;font-family:sans-serif;font-size:13;text-anchor:middle;" transform="matrix(1 0 0 1 2043.27 322)">Semibold</text>
  <text style="stroke:none;fill:black;font-family:sans-serif;font-size:13;text-anchor:middle;" transform="matrix(1 0 0 1 2339.98 322)">Bold</text>
  <text style="stroke:none;fill:black;font-family:sans-serif;font-size:13;text-anchor:middle;" transform="matrix(1 0 0 1 2636.69 322)">Heavy</text>
  <text style="stroke:none;fill:black;font-family:sans-serif;font-size:13;text-anchor:middle;" transform="matrix(1 0 0 1 2933.4 322)">Black</text>
  <line style="fill:none;stroke:black;opacity:1;stroke-width:0.5;" x1="263" x2="3036" y1="1903" y2="1903"/>
  <g transform="matrix(1 0 0 1 263 1933)">
   <path d="M9.24805 0.830078Q10.8691 0.830078 12.2949 0.214844Q13.7207-0.400391 14.8096-1.49414Q15.8984-2.58789 16.5186-4.01367Q17.1387-5.43945 17.1387-7.05078Q17.1387-8.66211 16.5186-10.0879Q15.8984-11.5137 14.8047-12.6074Q13.7109-13.7012 12.2852-14.3164Q10.8594-14.9316 9.23828-14.9316Q7.62695-14.9316 6.20117-14.3164Q4.77539-13.7012 3.69141-12.6074Q2.60742-11.5137 1.9873-10.0879Q1.36719-8.66211 1.36719-7.05078Q1.36719-5.43945 1.9873-4.01367Q2.60742-2.58789 3.69629-1.49414Q4.78516-0.400391 6.21094 0.214844Q7.63672 0.830078 9.24805 0.830078ZM9.24805-0.654297Q7.91992-0.654297 6.7627-1.14746Q5.60547-1.64062 4.73145-2.51953Q3.85742-3.39844 3.36426-4.56055Q2.87109-5.72266 2.87109-7.05078Q2.87109-8.37891 3.35938-9.54102Q3.84766-10.7031 4.72168-11.582Q5.5957-12.4609 6.75293-12.9541Q7.91016-13.4473 9.23828-13.4473Q10.5762-13.4473 11.7334-12.9541Q12.8906-12.4609 13.7695-11.582Q14.6484-10.7031 15.1465-9.54102Q15.6445-8.37891 15.6445-7.05078Q15.6445-5.72266 15.1514-4.56055Q14.6582-3.39844 13.7842-2.51953Q12.9102-1.64062 11.748-1.14746Q10.5859-0.654297 9.24805-0.654297ZM5.6543-7.05078Q5.6543-6.72852 5.85938-6.52832Q6.06445-6.32812 6.40625-6.32812L8.51562-6.32812L8.51562-4.20898Q8.51562-3.88672 8.71094-3.67676Q8.90625-3.4668 9.23828-3.4668Q9.56055-3.4668 9.77051-3.67676Q9.98047-3.88672 9.98047-4.20898L9.98047-6.32812L12.0898-6.32812Q12.4219-6.32812 12.627-6.52832Q12.832-6.72852 12.832-7.05078Q12.832-7.38281 12.627-7.58789Q12.4219-7.79297 12.0898-7.79297L9.98047-7.79297L9.98047-9.90234Q9.98047-10.2344 9.77051-10.4443Q9.56055-10.6543 9.23828-10.6543Q8.90625-10.6543 8.71094-10.4443Q8.51562-10.2344 8.51562-9.90234L8.51562-7.79297L6.40625-7.79297Q6.06445-7.79297 5.85938-7.58789Q5.6543-7.38281 5.6543-7.05078Z"/>
  </g>
  <g transform="matrix(1 0 0 1 281.867 1933)">
   <path d="M11.709 2.91016Q13.75 2.91016 15.5518 2.12891Q17.3535 1.34766 18.7305-0.0292969Q20.1074-1.40625 20.8887-3.20801Q21.6699-5.00977 21.6699-7.05078Q21.6699-9.0918 20.8887-10.8936Q20.1074-12.6953 18.7305-14.0723Q17.3535-15.4492 15.5469-16.2305Q13.7402-17.0117 11.6992-17.0117Q9.6582-17.0117 7.85645-16.2305Q6.05469-15.4492 4.68262-14.0723Q3.31055-12.6953 2.5293-10.8936Q1.74805-9.0918 1.74805-7.05078Q1.74805-5.00977 2.5293-3.20801Q3.31055-1.40625 4.6875-0.0292969Q6.06445 1.34766 7.86621 2.12891Q9.66797 2.91016 11.709 2.91016ZM11.709 1.25Q9.98047 1.25 8.47656 0.605469Q6.97266-0.0390625 5.83496-1.17676Q4.69727-2.31445 4.05762-3.81836Q3.41797-5.32227 3.41797-7.05078Q3.41797-8.7793 4.05762-10.2832Q4.69727-11.7871 5.83008-12.9297Q6.96289-14.0723 8.4668-14.7119Q9.9707-15.3516 11.6992-15.3516Q13.4277-15.3516 14.9316-14.7119Q16.4355-14.0723 17.5781-12.9297Q18.7207-11.7871 19.3652-10.2832Q20.0098-8.7793 20.0098-7.05078Q20.0098-5.32227 19.3701-3.81836Q18.7305-2.31445 17.5928-1.17676Q16.4551-0.0390625 14.9463 0.605469Q13.4375 1.25 11.709 1.25ZM7.17773-7.05078Q7.17773-6.69922 7.41211-6.47461Q7.64648-6.25 8.01758-6.25L10.8887-6.25L10.8887-3.36914Q10.8887-2.99805 11.1133-2.76855Q11.3379-2.53906 11.6895-2.53906Q12.0605-2.53906 12.29-2.76855Q12.5195-2.99805 12.5195-3.36914L12.5195-6.25L15.4004-6.25Q15.7715-6.25 16.001-6.47461Q16.2305-6.69922 16.2305-7.05078Q16.2305-7.42188 16.001-7.65137Q15.7715-7.88086 15.4004-7.88086L12.5195-7.88086L12.5195-10.752Q12.5195-11.1328 12.29-11.3623Q12.0605-11.5918 11.6895-11.5918Q11.3379-11.5918 11.1133-11.3574Q10.8887-11.123 10.8887-10.752L10.8887-7.88086L8.01758-7.88086Q7.63672-7.88086 7.40723-7.65137Q7.17773-7.42188 7.17773-7.05078Z"/>
  </g>
  <g transform="matrix(1 0 0 1 305.646 1933)">
   <path d="M14.9707 5.66406Q17.0605 5.66406 18.96 5.01465Q20.8594 4.36523 22.4512 3.19336Q24.043 2.02148 25.2197 0.429688Q26.3965-1.16211 27.0459-3.06641Q27.6953-4.9707 27.6953-7.05078Q27.6953-9.14062 27.0459-11.04Q26.3965-12.9395 25.2197-14.5312Q24.043-16.123 22.4512-17.2998Q20.8594-18.4766 18.9551-19.126Q17.0508-19.7754 14.9609-19.7754Q12.8711-19.7754 10.9717-19.126Q9.07227-18.4766 7.48535-17.2998Q5.89844-16.123 4.72168-14.5312Q3.54492-12.9395 2.90039-11.04Q2.25586-9.14062 2.25586-7.05078Q2.25586-4.9707 2.90527-3.06641Q3.55469-1.16211 4.72656 0.429688Q5.89844 2.02148 7.49023 3.19336Q9.08203 4.36523 10.9814 5.01465Q12.8809 5.66406 14.9707 5.66406ZM14.9707 3.84766Q13.1641 3.84766 11.5283 3.2959Q9.89258 2.74414 8.53516 1.74805Q7.17773 0.751953 6.17676-0.610352Q5.17578-1.97266 4.62891-3.6084Q4.08203-5.24414 4.08203-7.05078Q4.08203-8.86719 4.62891-10.5029Q5.17578-12.1387 6.17188-13.501Q7.16797-14.8633 8.52539-15.8594Q9.88281-16.8555 11.5186-17.4023Q13.1543-17.9492 14.9609-17.9492Q16.7773-17.9492 18.4131-17.4023Q20.0488-16.8555 21.4111-15.8594Q22.7734-14.8633 23.7695-13.501Q24.7656-12.1387 25.3174-10.5029Q25.8691-8.86719 25.8691-7.05078Q25.8789-5.24414 25.332-3.6084Q24.7852-1.97266 23.7842-0.610352Q22.7832 0.751953 21.4209 1.74805Q20.0586 2.74414 18.4229 3.2959Q16.7871 3.84766 14.9707 3.84766ZM9.19922-7.05078Q9.19922-6.66992 9.45801-6.4209Q9.7168-6.17188 10.1172-6.17188L14.0625-6.17188L14.0625-2.2168Q14.0625-1.81641 14.3115-1.55762Q14.5605-1.29883 14.9512-1.29883Q15.3516-1.29883 15.6104-1.55273Q15.8691-1.80664 15.8691-2.2168L15.8691-6.17188L19.8242-6.17188Q20.2246-6.17188 20.4785-6.4209Q20.7324-6.66992 20.7324-7.05078Q20.7324-7.46094 20.4785-7.71484Q20.2246-7.96875 19.8242-7.96875L15.8691-7.96875L15.8691-11.9141Q15.8691-12.3242 15.6104-12.583Q15.3516-12.8418 14.9512-12.8418Q14.5605-12.8418 14.3115-12.583Q14.0625-12.3242 14.0625-11.9141L14.0625-7.96875L10.1172-7.96875Q9.70703-7.96875 9.45312-7.71484Q9.19922-7.46094 9.19922-7.05078Z"/>
  </g>
  <text style="stroke:none;fill:black;font-family:sans-serif;font-size:13;font-weight:bold;" transform="matrix(1 0 0 1 263 1953)">Design Variations</text>
  <text style="stroke:none;fill:black;font-family:sans-serif;font-size:13;" transform="matrix(1 0 0 1 263 1971)">Symbols are supported in up to nine weights and three scales.</text>
  <text style="stroke:none;fill:black;font-family:sans-serif;font-size:13;" transform="matrix(1 0 0 1 263 1989)">For optimal layout with text and other symbols, vertically align</text>
  <text style="stroke:none;fill:black;font-family:sans-serif;font-size:13;" transform="matrix(1 0 0 1 263 2007)">symbols with the adjacent text.</text>
  <line style="fill:none;stroke:#00AEEF;stroke-width:0.5;opacity:1.0;" x1="776" x2="776" y1="1919" y2="1933"/>
  <g transform="matrix(1 0 0 1 776 1933)">
   <path d="M3.31055 0.15625Q3.70117 0.15625 3.91602-0.00976562Q4.13086-0.175781 4.26758-0.585938L5.52734-4.0332L11.2891-4.0332L12.5488-0.585938Q12.6855-0.175781 12.9004-0.00976562Q13.1152 0.15625 13.4961 0.15625Q13.8867 0.15625 14.1162-0.0585938Q14.3457-0.273438 14.3457-0.644531Q14.3457-0.869141 14.2383-1.17188L9.6582-13.3691Q9.48242-13.8184 9.17969-14.043Q8.87695-14.2676 8.4082-14.2676Q7.5-14.2676 7.17773-13.3789L2.59766-1.16211Q2.49023-0.859375 2.49023-0.634766Q2.49023-0.263672 2.70996-0.0537109Q2.92969 0.15625 3.31055 0.15625ZM6.00586-5.51758L8.37891-12.0898L8.42773-12.0898L10.8008-5.51758Z"/>
  </g>
  <line style="fill:none;stroke:#00AEEF;stroke-width:0.5;opacity:1.0;" x1="793.197" x2="793.197" y1="1919" y2="1933"/>
  <text style="stroke:none;fill:black;font-family:sans-serif;font-size:13;font-weight:bold;" transform="matrix(1 0 0 1 776 1953)">Margins</text>
  <text style="stroke:none;fill:black;font-family:sans-serif;font-size:13;" transform="matrix(1 0 0 1 776 1971)">Leading and trailing margins on the left and right side of each symbol</text>
  <text style="stroke:none;fill:black;font-family:sans-serif;font-size:13;" transform="matrix(1 0 0 1 776 1989)">can be adjusted by modifying the x-location of the margin guidelines.</text>
  <text style="stroke:none;fill:black;font-family:sans-serif;font-size:13;" transform="matrix(1 0 0 1 776 2007)">Modifications are automatically applied proportionally to all</text>
  <text style="stroke:none;fill:black;font-family:sans-serif;font-size:13;" transform="matrix(1 0 0 1 776 2025)">scales and weights.</text>
  <g transform="matrix(1 0 0 1 1289 1933)">
   <path d="M2.8418 1.86523L4.54102 3.57422Q5.18555 4.22852 5.90332 4.17969Q6.62109 4.13086 7.31445 3.35938L18.0078-8.42773L17.041-9.4043L6.42578 2.27539Q6.16211 2.57812 5.89355 2.61719Q5.625 2.65625 5.27344 2.30469L4.10156 1.14258Q3.75 0.791016 3.79395 0.522461Q3.83789 0.253906 4.14062-0.0195312L15.6152-10.8203L14.6387-11.7871L3.04688-0.898438Q2.30469-0.214844 2.25098 0.498047Q2.19727 1.21094 2.8418 1.86523ZM9.25781-16.3281Q8.94531-16.0254 8.90625-15.6348Q8.86719-15.2441 9.04297-14.9512Q9.21875-14.6777 9.55566-14.541Q9.89258-14.4043 10.3809-14.5215Q11.4746-14.7754 12.5977-14.7314Q13.7207-14.6875 14.7949-13.9844L14.209-12.5293Q13.9551-11.9043 14.0674-11.4404Q14.1797-10.9766 14.5801-10.5664L16.875-8.25195Q17.2363-7.88086 17.5781-7.82227Q17.9199-7.76367 18.3398-7.8418L19.4043-8.03711L20.0684-7.36328L20.0293-6.80664Q20-6.43555 20.1221-6.12305Q20.2441-5.81055 20.6055-5.44922L21.3672-4.70703Q21.7285-4.3457 22.1533-4.33105Q22.5781-4.31641 22.9297-4.66797L25.8398-7.58789Q26.1914-7.93945 26.1816-8.35449Q26.1719-8.76953 25.8105-9.13086L25.0391-9.89258Q24.6875-10.2539 24.3799-10.3857Q24.0723-10.5176 23.7109-10.4883L23.1348-10.4395L22.4902-11.0742L22.7344-12.1973Q22.832-12.6172 22.6953-12.9834Q22.5586-13.3496 22.1191-13.7891L19.9219-15.9766Q18.6719-17.2168 17.2607-17.8369Q15.8496-18.457 14.4189-18.4814Q12.9883-18.5059 11.665-17.959Q10.3418-17.4121 9.25781-16.3281ZM10.752-15.957Q11.6602-16.6211 12.7002-16.9043Q13.7402-17.1875 14.8047-17.085Q15.8691-16.9824 16.8701-16.5137Q17.8711-16.0449 18.7012-15.2051L21.1328-12.793Q21.3086-12.6172 21.3525-12.4512Q21.3965-12.2852 21.3379-12.0312L21.0156-10.5469L22.5195-9.0625L23.5059-9.12109Q23.6914-9.13086 23.7891-9.09668Q23.8867-9.0625 24.0332-8.91602L24.6094-8.33984L22.168-5.89844L21.5918-6.47461Q21.4453-6.62109 21.4062-6.71875Q21.3672-6.81641 21.377-7.01172L21.4453-7.98828L19.9512-9.47266L18.4277-9.21875Q18.1836-9.16992 18.042-9.2041Q17.9004-9.23828 17.7148-9.41406L15.7129-11.416Q15.5176-11.5918 15.4932-11.7529Q15.4688-11.9141 15.5859-12.1875L16.4648-14.2773Q15.293-15.3711 13.8281-15.791Q12.3633-16.2109 10.8398-15.7617Q10.7227-15.7324 10.6885-15.8057Q10.6543-15.8789 10.752-15.957Z"/>
  </g>
  <text style="stroke:none;fill:black;font-family:sans-serif;font-size:13;font-weight:bold;" transform="matrix(1 0 0 1 1289 1953)">Exporting</text>
  <text style="stroke:none;fill:black;font-family:sans-serif;font-size:13;" transform="matrix(1 0 0 1 1289 1971)">Symbols should be outlined when exporting to ensure the</text>
  <text style="stroke:none;fill:black;font-family:sans-serif;font-size:13;" transform="matrix(1 0 0 1 1289 1989)">design is preserved when submitting to Xcode.</text>
  <text id="template-version" style="stroke:none;fill:black;font-family:sans-serif;font-size:13;text-anchor:end;" transform="matrix(1 0 0 1 3036 1933)">Template v.3.0</text>
  <text style="stroke:none;fill:black;font-family:sans-serif;font-size:13;text-anchor:end;" transform="matrix(1 0 0 1 3036 1951)">Requires Xcode 13 or greater</text>
  <text id="descriptive-name" style="stroke:none;fill:black;font-family:sans-serif;font-size:13;text-anchor:end;" transform="matrix(1 0 0 1 3036 1969)">Generated from printer.fill</text>
  <text style="stroke:none;fill:black;font-family:sans-serif;font-size:13;text-anchor:end;" transform="matrix(1 0 0 1 3036 1987)">Typeset at 100 points</text>
  <text style="stroke:none;fill:black;font-family:sans-serif;font-size:13;" transform="matrix(1 0 0 1 263 726)">Small</text>
  <text style="stroke:none;fill:black;font-family:sans-serif;font-size:13;" transform="matrix(1 0 0 1 263 1156)">Medium</text>
  <text style="stroke:none;fill:black;font-family:sans-serif;font-size:13;" transform="matrix(1 0 0 1 263 1586)">Large</text>
 </g>
 <g id="Guides">
  <g id="H-reference" style="fill:#27AAE1;stroke:none;" transform="matrix(1 0 0 1 339 696)">
   <path d="M0.976562 0L3.66211 0L29.3457-67.1387L30.0293-67.1387L30.0293-70.459L28.125-70.459ZM11.6699-24.4629L46.9727-24.4629L46.2402-26.709L12.4512-26.709ZM55.127 0L57.7637 0L30.6152-70.459L29.4434-70.459L29.4434-67.1387Z"/>
  </g>
  <line id="Baseline-S" style="fill:none;stroke:#27AAE1;opacity:1;stroke-width:0.5;" x1="263" x2="3036" y1="696" y2="696"/>
  <line id="Capline-S" style="fill:none;stroke:#27AAE1;opacity:1;stroke-width:0.5;" x1="263" x2="3036" y1="625.541" y2="625.541"/>
  <g id="H-reference" style="fill:#27AAE1;stroke:none;" transform="matrix(1 0 0 1 339 1126)">
   <path d="M0.976562 0L3.66211 0L29.3457-67.1387L30.0293-67.1387L30.0293-70.459L28.125-70.459ZM11.6699-24.4629L46.9727-24.4629L46.2402-26.709L12.4512-26.709ZM55.127 0L57.7637 0L30.6152-70.459L29.4434-70.459L29.4434-67.1387Z"/>
  </g>
  <line id="Baseline-M" style="fill:none;stroke:#27AAE1;opacity:1;stroke-width:0.5;" x1="263" x2="3036" y1="1126" y2="1126"/>
  <line id="Capline-M" style="fill:none;stroke:#27AAE1;opacity:1;stroke-width:0.5;" x1="263" x2="3036" y1="1055.54" y2="1055.54"/>
  <g id="H-reference" style="fill:#27AAE1;stroke:none;" transform="matrix(1 0 0 1 339 1556)">
   <path d="M0.976562 0L3.66211 0L29.3457-67.1387L30.0293-67.1387L30.0293-70.459L28.125-70.459ZM11.6699-24.4629L46.9727-24.4629L46.2402-26.709L12.4512-26.709ZM55.127 0L57.7637 0L30.6152-70.459L29.4434-70.459L29.4434-67.1387Z"/>
  </g>
  <line id="Baseline-L" style="fill:none;stroke:#27AAE1;opacity:1;stroke-width:0.5;" x1="263" x2="3036" y1="1556" y2="1556"/>
  <line id="Capline-L" style="fill:none;stroke:#27AAE1;opacity:1;stroke-width:0.5;" x1="263" x2="3036" y1="1485.54" y2="1485.54"/>
  <line id="left-margin-Ultralight-S" style="fill:none;stroke:#00AEEF;stroke-width:0.5;opacity:1.0;" x1="509.272" x2="509.272" y1="600.785" y2="720.121"/>
  <line id="right-margin-Ultralight-S" style="fill:none;stroke:#00AEEF;stroke-width:0.5;opacity:1.0;" x1="610.151" x2="610.151" y1="600.785" y2="720.121"/>
  <line id="left-margin-Thin-S" style="fill:none;stroke:#00AEEF;stroke-width:0.5;opacity:1.0;" x1="805.348" x2="805.348" y1="600.785" y2="720.121"/>
  <line id="right-margin-Thin-S" style="fill:none;stroke:#00AEEF;stroke-width:0.5;opacity:1.0;" x1="907.496" x2="907.496" y1="600.785" y2="720.121"/>
  <line id="left-margin-Light-S" style="fill:none;stroke:#00AEEF;stroke-width:0.5;opacity:1.0;" x1="1100.81" x2="1100.81" y1="600.785" y2="720.121"/>
  <line id="right-margin-Light-S" style="fill:none;stroke:#00AEEF;stroke-width:0.5;opacity:1.0;" x1="1205.45" x2="1205.45" y1="600.785" y2="720.121"/>
  <line id="left-margin-Regular-S" style="fill:none;stroke:#00AEEF;stroke-width:0.5;opacity:1.0;" x1="1396.6" x2="1396.6" y1="600.785" y2="720.121"/>
  <line id="right-margin-Regular-S" style="fill:none;stroke:#00AEEF;stroke-width:0.5;opacity:1.0;" x1="1503.09" x2="1503.09" y1="600.785" y2="720.121"/>
  <line id="left-margin-Medium-S" style="fill:none;stroke:#00AEEF;stroke-width:0.5;opacity:1.0;" x1="1692.99" x2="1692.99" y1="600.785" y2="720.121"/>
  <line id="right-margin-Medium-S" style="fill:none;stroke:#00AEEF;stroke-width:0.5;opacity:1.0;" x1="1800.12" x2="1800.12" y1="600.785" y2="720.121"/>
  <line id="left-margin-Semibold-S" style="fill:none;stroke:#00AEEF;stroke-width:0.5;opacity:1.0;" x1="1989.46" x2="1989.46" y1="600.785" y2="720.121"/>
  <line id="right-margin-Semibold-S" style="fill:none;stroke:#00AEEF;stroke-width:0.5;opacity:1.0;" x1="2097.08" x2="2097.08" y1="600.785" y2="720.121"/>
  <line id="left-margin-Bold-S" style="fill:none;stroke:#00AEEF;stroke-width:0.5;opacity:1.0;" x1="2285.83" x2="2285.83" y1="600.785" y2="720.121"/>
  <line id="right-margin-Bold-S" style="fill:none;stroke:#00AEEF;stroke-width:0.5;opacity:1.0;" x1="2394.13" x2="2394.13" y1="600.785" y2="720.121"/>
  <line id="left-margin-Heavy-S" style="fill:none;stroke:#00AEEF;stroke-width:0.5;opacity:1.0;" x1="2582.07" x2="2582.07" y1="600.785" y2="720.121"/>
  <line id="right-margin-Heavy-S" style="fill:none;stroke:#00AEEF;stroke-width:0.5;opacity:1.0;" x1="2691.3" x2="2691.3" y1="600.785" y2="720.121"/>
  <line id="left-margin-Black-S" style="fill:none;stroke:#00AEEF;stroke-width:0.5;opacity:1.0;" x1="2878.37" x2="2878.37" y1="600.785" y2="720.121"/>
  <line id="right-margin-Black-S" style="fill:none;stroke:#00AEEF;stroke-width:0.5;opacity:1.0;" x1="2988.43" x2="2988.43" y1="600.785" y2="720.121"/>
  <line id="left-margin-Ultralight-M" style="fill:none;stroke:#00AEEF;stroke-width:0.5;opacity:1.0;" x1="495.575" x2="495.575" y1="1030.79" y2="1150.12"/>
  <line id="right-margin-Ultralight-M" style="fill:none;stroke:#00AEEF;stroke-width:0.5;opacity:1.0;" x1="623.847" x2="623.847" y1="1030.79" y2="1150.12"/>
  <line id="left-margin-Thin-M" style="fill:none;stroke:#00AEEF;stroke-width:0.5;opacity:1.0;" x1="791.578" x2="791.578" y1="1030.79" y2="1150.12"/>
  <line id="right-margin-Thin-M" style="fill:none;stroke:#00AEEF;stroke-width:0.5;opacity:1.0;" x1="921.266" x2="921.266" y1="1030.79" y2="1150.12"/>
  <line id="left-margin-Light-M" style="fill:none;stroke:#00AEEF;stroke-width:0.5;opacity:1.0;" x1="1086.87" x2="1086.87" y1="1030.79" y2="1150.12"/>
  <line id="right-margin-Light-M" style="fill:none;stroke:#00AEEF;stroke-width:0.5;opacity:1.0;" x1="1219.39" x2="1219.39" y1="1030.79" y2="1150.12"/>
  <line id="left-margin-Regular-M" style="fill:none;stroke:#00AEEF;stroke-width:0.5;opacity:1.0;" x1="1382.53" x2="1382.53" y1="1030.79" y2="1150.12"/>
  <line id="right-margin-Regular-M" style="fill:none;stroke:#00AEEF;stroke-width:0.5;opacity:1.0;" x1="1517.15" x2="1517.15" y1="1030.79" y2="1150.12"/>
  <line id="left-margin-Medium-M" style="fill:none;stroke:#00AEEF;stroke-width:0.5;opacity:1.0;" x1="1678.76" x2="1678.76" y1="1030.79" y2="1150.12"/>
  <line id="right-margin-Medium-M" style="fill:none;stroke:#00AEEF;stroke-width:0.5;opacity:1.0;" x1="1814.35" x2="1814.35" y1="1030.79" y2="1150.12"/>
  <line id="left-margin-Semibold-M" style="fill:none;stroke:#00AEEF;stroke-width:0.5;opacity:1.0;" x1="1975.08" x2="1975.08" y1="1030.79" y2="1150.12"/>
  <line id="right-margin-Semibold-M" style="fill:none;stroke:#00AEEF;stroke-width:0.5;opacity:1.0;" x1="2111.46" x2="2111.46" y1="1030.79" y2="1150.12"/>
  <line id="left-margin-Bold-M" style="fill:none;stroke:#00AEEF;stroke-width:0.5;opacity:1.0;" x1="2271.3" x2="2271.3" y1="1030.79" y2="1150.12"/>
  <line id="right-margin-Bold-M" style="fill:none;stroke:#00AEEF;stroke-width:0.5;opacity:1.0;" x1="2408.65" x2="2408.65" y1="1030.79" y2="1150.12"/>
  <line id="left-margin-Heavy-M" style="fill:none;stroke:#00AEEF;stroke-width:0.5;opacity:1.0;" x1="2567.28" x2="2567.28" y1="1030.79" y2="1150.12"/>
  <line id="right-margin-Heavy-M" style="fill:none;stroke:#00AEEF;stroke-width:0.5;opacity:1.0;" x1="2706.1" x2="2706.1" y1="1030.79" y2="1150.12"/>
  <line id="left-margin-Black-M" style="fill:none;stroke:#00AEEF;stroke-width:0.5;opacity:1.0;" x1="2863.36" x2="2863.36" y1="1030.79" y2="1150.12"/>
  <line id="right-margin-Black-M" style="fill:none;stroke:#00AEEF;stroke-width:0.5;opacity:1.0;" x1="3003.44" x2="3003.44" y1="1030.79" y2="1150.12"/>
  <line id="left-margin-Ultralight-L" style="fill:none;stroke:#00AEEF;stroke-width:0.5;opacity:1.0;" x1="477.289" x2="477.289" y1="1460.79" y2="1580.12"/>
  <line id="right-margin-Ultralight-L" style="fill:none;stroke:#00AEEF;stroke-width:0.5;opacity:1.0;" x1="642.133" x2="642.133" y1="1460.79" y2="1580.12"/>
  <line id="left-margin-Thin-L" style="fill:none;stroke:#00AEEF;stroke-width:0.5;opacity:1.0;" x1="773.195" x2="773.195" y1="1460.79" y2="1580.12"/>
  <line id="right-margin-Thin-L" style="fill:none;stroke:#00AEEF;stroke-width:0.5;opacity:1.0;" x1="939.65" x2="939.65" y1="1460.79" y2="1580.12"/>
  <line id="left-margin-Light-L" style="fill:none;stroke:#00AEEF;stroke-width:0.5;opacity:1.0;" x1="1068.34" x2="1068.34" y1="1460.79" y2="1580.12"/>
  <line id="right-margin-Light-L" style="fill:none;stroke:#00AEEF;stroke-width:0.5;opacity:1.0;" x1="1237.92" x2="1237.92" y1="1460.79" y2="1580.12"/>
  <line id="left-margin-Regular-L" style="fill:none;stroke:#00AEEF;stroke-width:0.5;opacity:1.0;" x1="1363.86" x2="1363.86" y1="1460.79" y2="1580.12"/>
  <line id="right-margin-Regular-L" style="fill:none;stroke:#00AEEF;stroke-width:0.5;opacity:1.0;" x1="1535.83" x2="1535.83" y1="1460.79" y2="1580.12"/>
  <line id="left-margin-Medium-L" style="fill:none;stroke:#00AEEF;stroke-width:0.5;opacity:1.0;" x1="1659.86" x2="1659.86" y1="1460.79" y2="1580.12"/>
  <line id="right-margin-Medium-L" style="fill:none;stroke:#00AEEF;stroke-width:0.5;opacity:1.0;" x1="1833.25" x2="1833.25" y1="1460.79" y2="1580.12"/>
  <line id="left-margin-Semibold-L" style="fill:none;stroke:#00AEEF;stroke-width:0.5;opacity:1.0;" x1="1956.04" x2="1956.04" y1="1460.79" y2="1580.12"/>
  <line id="right-margin-Semibold-L" style="fill:none;stroke:#00AEEF;stroke-width:0.5;opacity:1.0;" x1="2130.5" x2="2130.5" y1="1460.79" y2="1580.12"/>
  <line id="left-margin-Bold-L" style="fill:none;stroke:#00AEEF;stroke-width:0.5;opacity:1.0;" x1="2252.04" x2="2252.04" y1="1460.79" y2="1580.12"/>
  <line id="right-margin-Bold-L" style="fill:none;stroke:#00AEEF;stroke-width:0.5;opacity:1.0;" x1="2427.92" x2="2427.92" y1="1460.79" y2="1580.12"/>
  <line id="left-margin-Heavy-L" style="fill:none;stroke:#00AEEF;stroke-width:0.5;opacity:1.0;" x1="2547.72" x2="2547.72" y1="1460.79" y2="1580.12"/>
  <line id="right-margin-Heavy-L" style="fill:none;stroke:#00AEEF;stroke-width:0.5;opacity:1.0;" x1="2725.65" x2="2725.65" y1="1460.79" y2="1580.12"/>
  <line id="left-margin-Black-L" style="fill:none;stroke:#00AEEF;stroke-width:0.5;opacity:1.0;" x1="2843.51" x2="2843.51" y1="1460.79" y2="1580.12"/>
  <line id="right-margin-Black-L" style="fill:none;stroke:#00AEEF;stroke-width:0.5;opacity:1.0;" x1="3023.29" x2="3023.29" y1="1460.79" y2="1580.12"/>
 </g>
 <g id="Symbols">
  <g id="Black-L" transform="matrix(1 0 0 1 2843.51 1556)">
   <path d="M39.1113 12.5488L39.3555 12.5488L39.3555-18.9453Q39.3555-27.7832 44.0186-32.4219Q48.6816-37.0605 57.5195-37.0605L122.021-37.0605Q130.859-37.0605 135.522-32.4219Q140.186-27.7832 140.186-18.9453L140.186 12.5488L140.674 12.5488Q151.66 12.5488 157.69 6.56738Q163.721 0.585938 163.721-10.4492L163.721-58.7402Q163.721-69.7266 157.69-75.708Q151.66-81.6895 140.674-81.6895L39.1113-81.6895Q28.2715-81.6895 22.168-75.708Q16.0645-69.7266 16.0645-58.7402L16.0645-10.4492Q16.0645 0.585938 22.0947 6.56738Q28.125 12.5488 39.1113 12.5488ZM43.6523-93.0664L136.133-93.0664L136.133-93.3105Q136.133-98.3887 133.325-101.831Q130.518-105.273 125.781-107.031Q121.045-108.789 115.234-108.789L64.5508-108.789Q58.8379-108.789 54.0771-107.031Q49.3164-105.273 46.4844-101.831Q43.6523-98.3887 43.6523-93.3105ZM50.7324 28.418Q50.7324 32.373 53.1494 34.79Q55.5664 37.207 59.5703 37.207L119.971 37.207Q123.975 37.207 126.392 34.79Q128.809 32.373 128.809 28.418L128.809-18.9453Q128.809-21.9727 126.953-23.8281Q125.098-25.6836 122.021-25.6836L57.5195-25.6836Q54.4434-25.6836 52.5879-23.8281Q50.7324-21.9727 50.7324-18.9453ZM73.2422 0.732422Q70.8008 0.732422 69.1406-0.952148Q67.4805-2.63672 67.4805-5.07812Q67.4805-7.4707 69.1406-9.08203Q70.8008-10.6934 73.2422-10.6934L106.689-10.6934Q109.082-10.6934 110.742-9.08203Q112.402-7.4707 112.402-5.07812Q112.402-2.63672 110.742-0.952148Q109.082 0.732422 106.689 0.732422ZM73.2422 22.2168Q70.8008 22.2168 69.1406 20.5811Q67.4805 18.9453 67.4805 16.6016Q67.4805 14.1602 69.1406 12.4756Q70.8008 10.791 73.2422 10.791L106.689 10.791Q109.082 10.791 110.742 12.4756Q112.402 14.1602 112.402 16.6016Q112.402 18.9453 110.742 20.5811Q109.082 22.2168 106.689 22.2168ZM118.018-56.3965Q118.018-60.2051 120.801-62.9639Q123.584-65.7227 127.393-65.7227Q131.152-65.7227 133.936-62.9639Q136.719-60.2051 136.719-56.3965Q136.719-52.5391 133.96-49.8535Q131.201-47.168 127.393-47.1191Q123.535-47.0703 120.776-49.8047Q118.018-52.5391 118.018-56.3965Z"/>
  </g>
  <g id="Heavy-L" transform="matrix(1 0 0 1 2547.72 1556)">
   <path d="M37.8906 11.8652L38.5742 11.8652L38.5742-20.8008Q38.5742-29.1016 43.042-33.5693Q47.5098-38.0371 55.8594-38.0371L121.924-38.0371Q130.225-38.0371 134.692-33.5693Q139.16-29.1016 139.16-20.8008L139.16 11.8652L140.039 11.8652Q150.488 11.8652 156.177 6.25Q161.865 0.634766 161.865-9.86328L161.865-59.2285Q161.865-69.6777 156.177-75.293Q150.488-80.9082 140.039-80.9082L37.8906-80.9082Q27.6367-80.9082 21.8506-75.293Q16.0645-69.6777 16.0645-59.2285L16.0645-9.86328Q16.0645 0.634766 21.7529 6.25Q27.4414 11.8652 37.8906 11.8652ZM42.9688-91.4062L134.961-91.4062L134.961-91.9434Q134.961-96.9238 132.324-100.269Q129.688-103.613 125.195-105.273Q120.703-106.934 115.088-106.934L62.8418-106.934Q57.373-106.934 52.8564-105.273Q48.3398-103.613 45.6543-100.269Q42.9688-96.9238 42.9688-91.9434ZM49.1211 27.4414Q49.1211 31.3477 51.5137 33.7402Q53.9062 36.1328 57.8613 36.1328L119.922 36.1328Q123.877 36.1328 126.27 33.7402Q128.662 31.3477 128.662 27.4414L128.662-20.8008Q128.662-23.8281 126.807-25.6592Q124.951-27.4902 121.924-27.4902L55.8594-27.4902Q52.7832-27.4902 50.9521-25.6592Q49.1211-23.8281 49.1211-20.8008ZM71.0938-1.31836Q68.8965-1.31836 67.3828-2.85645Q65.8691-4.39453 65.8691-6.64062Q65.8691-8.78906 67.3828-10.2539Q68.8965-11.7188 71.0938-11.7188L106.982-11.7188Q109.131-11.7188 110.645-10.2539Q112.158-8.78906 112.158-6.64062Q112.158-4.39453 110.645-2.85645Q109.131-1.31836 106.982-1.31836ZM71.0938 20.3613Q68.8965 20.3613 67.3828 18.8965Q65.8691 17.4316 65.8691 15.2832Q65.8691 13.0859 67.3828 11.5479Q68.8965 10.0098 71.0938 10.0098L106.982 10.0098Q109.131 10.0098 110.645 11.5479Q112.158 13.0859 112.158 15.2832Q112.158 17.4316 110.645 18.8965Q109.131 20.3613 106.982 20.3613ZM117.578-56.8848Q117.578-60.5469 120.264-63.208Q122.949-65.8691 126.611-65.8691Q130.225-65.8691 132.91-63.208Q135.596-60.5469 135.596-56.8848Q135.596-53.1738 132.935-50.5615Q130.273-47.9492 126.611-47.9492Q122.9-47.9004 120.239-50.5127Q117.578-53.125 117.578-56.8848Z"/>
  </g>
  <g id="Bold-L" transform="matrix(1 0 0 1 2252.04 1556)">
   <path d="M36.5723 11.084L37.6953 11.084L37.6953-22.9004Q37.6953-30.6152 41.9678-34.8633Q46.2402-39.1113 53.9551-39.1113L121.826-39.1113Q129.59-39.1113 133.838-34.8633Q138.086-30.6152 138.086-22.9004L138.086 11.084L139.307 11.084Q149.219 11.084 154.517 5.88379Q159.814 0.683594 159.814-9.27734L159.814-59.7656Q159.814-69.6777 154.517-74.8779Q149.219-80.0781 139.307-80.0781L36.5723-80.0781Q26.9043-80.0781 21.4844-74.8779Q16.0645-69.6777 16.0645-59.7656L16.0645-9.27734Q16.0645 0.683594 21.3623 5.88379Q26.6602 11.084 36.5723 11.084ZM42.2363-89.502L133.643-89.502L133.643-90.4297Q133.643-95.3125 131.201-98.5107Q128.76-101.709 124.536-103.296Q120.312-104.883 114.893-104.883L60.9863-104.883Q55.7129-104.883 51.4648-103.296Q47.2168-101.709 44.7266-98.5107Q42.2363-95.3125 42.2363-90.4297ZM47.3145 26.3184Q47.3145 30.2246 49.6826 32.5928Q52.0508 34.9609 55.957 34.9609L119.824 34.9609Q123.73 34.9609 126.123 32.5928Q128.516 30.2246 128.516 26.3184L128.516-22.9004Q128.516-25.8789 126.685-27.71Q124.854-29.541 121.826-29.541L53.9551-29.541Q50.9766-29.541 49.1455-27.71Q47.3145-25.8789 47.3145-22.9004ZM68.75-3.66211Q66.748-3.66211 65.4053-5.0293Q64.0625-6.39648 64.0625-8.34961Q64.0625-10.3027 65.4053-11.5967Q66.748-12.8906 68.75-12.8906L107.324-12.8906Q109.229-12.8906 110.571-11.5967Q111.914-10.3027 111.914-8.34961Q111.914-6.39648 110.571-5.0293Q109.229-3.66211 107.324-3.66211ZM68.75 18.3594Q66.748 18.3594 65.4053 17.041Q64.0625 15.7227 64.0625 13.8184Q64.0625 11.8652 65.4053 10.498Q66.748 9.13086 68.75 9.13086L107.324 9.13086Q109.229 9.13086 110.571 10.498Q111.914 11.8652 111.914 13.8184Q111.914 15.7227 110.571 17.041Q109.229 18.3594 107.324 18.3594ZM117.09-57.4219Q117.09-60.8887 119.678-63.4521Q122.266-66.0156 125.781-66.0156Q129.248-66.0156 131.812-63.4521Q134.375-60.8887 134.375-57.4219Q134.375-53.8574 131.812-51.3672Q129.248-48.877 125.781-48.877Q122.217-48.8281 119.653-51.3184Q117.09-53.8086 117.09-57.4219Z"/>
  </g>
  <g id="Semibold-L" transform="matrix(1 0 0 1 1956.04 1556)">
   <path d="M35.5957 10.5469L37.1094 10.5469L37.1094-24.3164Q37.1094-31.6406 41.2109-35.7422Q45.3125-39.8438 52.6367-39.8438L121.777-39.8438Q129.102-39.8438 133.203-35.7422Q137.305-31.6406 137.305-24.3164L137.305 10.5469L138.818 10.5469Q148.34 10.5469 153.369 5.63965Q158.398 0.732422 158.398-8.83789L158.398-60.1074Q158.398-69.6289 153.369-74.5605Q148.34-79.4922 138.818-79.4922L35.5957-79.4922Q26.416-79.4922 21.2402-74.5605Q16.0645-69.6289 16.0645-60.1074L16.0645-8.83789Q16.0645 0.732422 21.0938 5.63965Q26.123 10.5469 35.5957 10.5469ZM41.6992-88.1836L132.715-88.1836L132.715-89.4043Q132.715-94.1406 130.42-97.2656Q128.125-100.391 124.097-101.929Q120.068-103.467 114.746-103.467L59.668-103.467Q54.5898-103.467 50.5127-101.929Q46.4355-100.391 44.0674-97.2656Q41.6992-94.1406 41.6992-89.4043ZM46.0449 25.5371Q46.0449 29.4434 48.4131 31.7871Q50.7812 34.1309 54.6387 34.1309L119.775 34.1309Q123.633 34.1309 126.001 31.7871Q128.369 29.4434 128.369 25.5371L128.369-24.3164Q128.369-27.2949 126.538-29.1016Q124.707-30.9082 121.777-30.9082L52.6367-30.9082Q49.6582-30.9082 47.8516-29.1016Q46.0449-27.2949 46.0449-24.3164ZM67.0898-5.27344Q65.2832-5.27344 64.0625-6.49414Q62.8418-7.71484 62.8418-9.52148Q62.8418-11.2793 64.0625-12.4756Q65.2832-13.6719 67.0898-13.6719L107.52-13.6719Q109.277-13.6719 110.498-12.4756Q111.719-11.2793 111.719-9.52148Q111.719-7.71484 110.498-6.49414Q109.277-5.27344 107.52-5.27344ZM67.0898 16.9434Q65.2832 16.9434 64.0625 15.7227Q62.8418 14.502 62.8418 12.793Q62.8418 10.9863 64.0625 9.74121Q65.2832 8.49609 67.0898 8.49609L107.52 8.49609Q109.277 8.49609 110.498 9.74121Q111.719 10.9863 111.719 12.793Q111.719 14.502 110.498 15.7227Q109.277 16.9434 107.52 16.9434ZM116.748-57.8125Q116.748-61.1328 119.238-63.6475Q121.729-66.1621 125.146-66.1621Q128.516-66.1621 131.006-63.6475Q133.496-61.1328 133.496-57.8125Q133.496-54.3457 131.006-51.9043Q128.516-49.4629 125.146-49.5117Q121.729-49.4629 119.238-51.8799Q116.748-54.2969 116.748-57.8125Z"/>
  </g>
  <g id="Medium-L" transform="matrix(1 0 0 1 1659.86 1556)">
   <path d="M34.9121 10.1562L36.6211 10.1562L36.6211-25.4395Q36.6211-32.4219 40.625-36.4014Q44.6289-40.3809 51.6602-40.3809L121.68-40.3809Q128.76-40.3809 132.739-36.4014Q136.719-32.4219 136.719-25.4395L136.719 10.1562L138.428 10.1562Q147.656 10.1562 152.49 5.44434Q157.324 0.732422 157.324-8.49609L157.324-60.4004Q157.324-69.6289 152.49-74.3408Q147.656-79.0527 138.428-79.0527L34.9121-79.0527Q26.0254-79.0527 21.0449-74.3408Q16.0645-69.6289 16.0645-60.4004L16.0645-8.49609Q16.0645 0.732422 20.8984 5.44434Q25.7324 10.1562 34.9121 10.1562ZM41.3086-87.207L132.031-87.207L132.031-88.5742Q132.031-93.3105 129.834-96.3623Q127.637-99.4141 123.73-100.903Q119.824-102.393 114.697-102.393L58.6426-102.393Q53.7109-102.393 49.7803-100.903Q45.8496-99.4141 43.5791-96.3623Q41.3086-93.3105 41.3086-88.5742ZM45.0684 24.9512Q45.0684 28.8574 47.4365 31.2012Q49.8047 33.5449 53.6621 33.5449L119.727 33.5449Q123.584 33.5449 125.928 31.2012Q128.271 28.8574 128.271 24.9512L128.271-25.4395Q128.271-28.3691 126.465-30.1758Q124.658-31.9824 121.68-31.9824L51.6602-31.9824Q48.7305-31.9824 46.8994-30.1758Q45.0684-28.3691 45.0684-25.4395ZM65.8203-6.49414Q64.1602-6.49414 63.0127-7.61719Q61.8652-8.74023 61.8652-10.4492Q61.8652-12.0605 63.0127-13.1836Q64.1602-14.3066 65.8203-14.3066L107.715-14.3066Q109.326-14.3066 110.474-13.1836Q111.621-12.0605 111.621-10.4492Q111.621-8.74023 110.474-7.61719Q109.326-6.49414 107.715-6.49414ZM65.8203 15.8691Q64.1602 15.8691 63.0127 14.7461Q61.8652 13.623 61.8652 12.0605Q61.8652 10.3516 63.0127 9.17969Q64.1602 8.00781 65.8203 8.00781L107.715 8.00781Q109.326 8.00781 110.474 9.17969Q111.621 10.3516 111.621 12.0605Q111.621 13.623 110.474 14.7461Q109.326 15.8691 107.715 15.8691ZM116.504-58.0566Q116.504-61.3281 118.945-63.7451Q121.387-66.1621 124.707-66.1621Q127.979-66.1621 130.42-63.7451Q132.861-61.3281 132.861-58.0566Q132.861-54.6875 130.444-52.2949Q128.027-49.9023 124.707-49.9512Q121.387-49.9512 118.945-52.2705Q116.504-54.5898 116.504-58.0566Z"/>
  </g>
  <g id="Regular-L" transform="matrix(1 0 0 1 1363.86 1556)">
   <path d="M33.9844 9.61914L36.0352 9.61914L36.0352-26.8555Q36.0352-33.4473 39.8926-37.2803Q43.75-41.1133 50.3906-41.1133L121.631-41.1133Q128.271-41.1133 132.104-37.2803Q135.938-33.4473 135.938-26.8555L135.938 9.61914L137.939 9.61914Q146.777 9.61914 151.343 5.2002Q155.908 0.78125 155.908-8.05664L155.908-60.7422Q155.908-69.5801 151.343-74.0234Q146.777-78.4668 137.939-78.4668L33.9844-78.4668Q25.5371-78.4668 20.8008-74.0234Q16.0645-69.5801 16.0645-60.7422L16.0645-8.05664Q16.0645 0.78125 20.6299 5.2002Q25.1953 9.61914 33.9844 9.61914ZM40.8203-85.9375L131.104-85.9375L131.104-87.5488Q131.104-92.1875 129.053-95.166Q127.002-98.1445 123.291-99.5605Q119.58-100.977 114.551-100.977L57.373-100.977Q52.5879-100.977 48.8525-99.5605Q45.1172-98.1445 42.9688-95.166Q40.8203-92.1875 40.8203-87.5488ZM43.8477 24.2188Q43.8477 28.0762 46.1914 30.3955Q48.5352 32.7148 52.3438 32.7148L119.678 32.7148Q123.486 32.7148 125.83 30.3955Q128.174 28.0762 128.174 24.2188L128.174-26.8555Q128.174-29.7852 126.367-31.5674Q124.561-33.3496 121.631-33.3496L50.3906-33.3496Q47.4609-33.3496 45.6543-31.5674Q43.8477-29.7852 43.8477-26.8555ZM64.209-8.05664Q62.6953-8.05664 61.6699-9.08203Q60.6445-10.1074 60.6445-11.6211Q60.6445-13.0859 61.6699-14.0869Q62.6953-15.0879 64.209-15.0879L107.91-15.0879Q109.375-15.0879 110.4-14.0869Q111.426-13.0859 111.426-11.6211Q111.426-10.1074 110.4-9.08203Q109.375-8.05664 107.91-8.05664ZM64.209 14.4531Q62.6953 14.4531 61.6699 13.4521Q60.6445 12.4512 60.6445 11.0352Q60.6445 9.52148 61.6699 8.47168Q62.6953 7.42188 64.209 7.42188L107.91 7.42188Q109.375 7.42188 110.4 8.47168Q111.426 9.52148 111.426 11.0352Q111.426 12.4512 110.4 13.4521Q109.375 14.4531 107.91 14.4531ZM116.162-58.4473Q116.162-61.5723 118.53-63.9404Q120.898-66.3086 124.121-66.3086Q127.295-66.3086 129.639-63.9404Q131.982-61.5723 131.982-58.4473Q131.982-55.1758 129.639-52.8564Q127.295-50.5371 124.121-50.5859Q120.898-50.5859 118.53-52.832Q116.162-55.0781 116.162-58.4473Z"/>
  </g>
  <g id="Light-L" transform="matrix(1 0 0 1 1068.34 1556)">
   <path d="M32.8613 9.7168L35.791 9.7168L35.791-28.7598Q35.791-35.1562 39.5996-38.916Q43.4082-42.6758 49.8047-42.6758L119.873-42.6758Q126.318-42.6758 130.103-38.916Q133.887-35.1562 133.887-28.7598L133.887 9.7168L136.67 9.7168Q145.02 9.7168 149.268 5.59082Q153.516 1.46484 153.516-6.88477L153.516-61.4746Q153.516-69.8242 149.268-73.9746Q145.02-78.125 136.67-78.125L32.8613-78.125Q24.8047-78.125 20.4346-73.9746Q16.0645-69.8242 16.0645-61.4746L16.0645-6.88477Q16.0645 1.46484 20.3125 5.59082Q24.5605 9.7168 32.8613 9.7168ZM40.5762-84.3262L129.004-84.3262L129.004-86.6699Q129.004-91.3086 127.173-94.2627Q125.342-97.2168 121.924-98.6328Q118.506-100.049 113.623-100.049L55.957-100.049Q51.2207-100.049 47.7783-98.6328Q44.3359-97.2168 42.4561-94.2627Q40.5762-91.3086 40.5762-86.6699ZM42.4805 22.9492Q42.4805 26.8066 44.8242 29.126Q47.168 31.4453 51.0254 31.4453L118.701 31.4453Q122.51 31.4453 124.854 29.126Q127.197 26.8066 127.197 22.9492L127.197-28.7598Q127.197-32.0312 125.171-34.0332Q123.145-36.0352 119.873-36.0352L49.8047-36.0352Q46.5332-36.0352 44.5068-34.0332Q42.4805-32.0312 42.4805-28.7598ZM61.3281-10.7422Q60.1074-10.7422 59.2773-11.5479Q58.4473-12.3535 58.4473-13.5254Q58.4473-14.6973 59.2773-15.5029Q60.1074-16.3086 61.3281-16.3086L108.447-16.3086Q109.619-16.3086 110.449-15.5029Q111.279-14.6973 111.279-13.5254Q111.279-12.3535 110.449-11.5479Q109.619-10.7422 108.447-10.7422ZM61.3281 11.7676Q60.1074 11.7676 59.2773 10.9619Q58.4473 10.1562 58.4473 8.98438Q58.4473 7.8125 59.2773 6.98242Q60.1074 6.15234 61.3281 6.15234L108.447 6.15234Q109.619 6.15234 110.449 6.98242Q111.279 7.8125 111.279 8.98438Q111.279 10.1562 110.449 10.9619Q109.619 11.7676 108.447 11.7676ZM114.355-59.1309Q114.355-62.1582 116.65-64.4287Q118.945-66.6992 122.021-66.6992Q125.049-66.6992 127.319-64.4287Q129.59-62.1582 129.59-59.1309Q129.59-56.0059 127.319-53.7598Q125.049-51.5137 122.021-51.6113Q118.945-51.6602 116.65-53.7842Q114.355-55.9082 114.355-59.1309Z"/>
  </g>
  <g id="Thin-L" transform="matrix(1 0 0 1 773.195 1556)">
   <path d="M31.3965 9.91211L35.4492 9.91211L35.4492-31.2988Q35.4492-37.4023 39.1846-41.0889Q42.9199-44.7754 49.0234-44.7754L117.578-44.7754Q123.682-44.7754 127.417-41.0889Q131.152-37.4023 131.152-31.2988L131.152 9.91211L135.01 9.91211Q142.676 9.91211 146.533 6.12793Q150.391 2.34375 150.391-5.37109L150.391-62.4512Q150.391-70.166 146.533-73.9258Q142.676-77.6855 135.01-77.6855L31.3965-77.6855Q23.8281-77.6855 19.9463-73.9258Q16.0645-70.166 16.0645-62.4512L16.0645-5.37109Q16.0645 2.34375 19.8975 6.12793Q23.7305 9.91211 31.3965 9.91211ZM40.2344-82.1777L126.172-82.1777L126.172-85.498Q126.172-90.1367 124.683-93.0908Q123.193-96.0449 120.117-97.4121Q117.041-98.7793 112.402-98.7793L54.0527-98.7793Q49.4141-98.7793 46.3623-97.4121Q43.3105-96.0449 41.7725-93.0908Q40.2344-90.1367 40.2344-85.498ZM40.6738 21.2402Q40.6738 25.0977 43.042 27.4414Q45.4102 29.7852 49.2676 29.7852L117.334 29.7852Q121.191 29.7852 123.56 27.4414Q125.928 25.0977 125.928 21.2402L125.928-31.2988Q125.928-35.0586 123.633-37.3047Q121.338-39.5508 117.578-39.5508L49.0234-39.5508Q45.2637-39.5508 42.9688-37.3047Q40.6738-35.0586 40.6738-31.2988ZM57.5195-14.2578Q56.6895-14.2578 56.1279-14.7949Q55.5664-15.332 55.5664-16.0645Q55.5664-16.8945 56.1279-17.4072Q56.6895-17.9199 57.5195-17.9199L109.082-17.9199Q109.912-17.9199 110.474-17.4072Q111.035-16.8945 111.035-16.0645Q111.035-15.332 110.474-14.7949Q109.912-14.2578 109.082-14.2578ZM57.5195 8.1543Q56.6895 8.1543 56.1279 7.61719Q55.5664 7.08008 55.5664 6.29883Q55.5664 5.51758 56.1279 4.98047Q56.6895 4.44336 57.5195 4.44336L109.082 4.44336Q109.912 4.44336 110.474 4.98047Q111.035 5.51758 111.035 6.29883Q111.035 7.08008 110.474 7.61719Q109.912 8.1543 109.082 8.1543ZM111.963-60.1074Q111.963-62.9395 114.136-65.1123Q116.309-67.2852 119.287-67.2852Q122.119-67.2852 124.268-65.1123Q126.416-62.9395 126.416-60.1074Q126.416-57.1777 124.268-55.0049Q122.119-52.832 119.287-52.9297Q116.309-53.0273 114.136-55.0049Q111.963-56.9824 111.963-60.1074Z"/>
  </g>
  <g id="Ultralight-L" transform="matrix(1 0 0 1 477.289 1556)">
   <path d="M30.6641 9.96094L35.2539 9.96094L35.2539-32.6172Q35.2539-38.5742 38.9648-42.2119Q42.6758-45.8496 48.6328-45.8496L116.406-45.8496Q122.363-45.8496 126.074-42.2119Q129.785-38.5742 129.785-32.6172L129.785 9.96094L134.18 9.96094Q141.504 9.96094 145.142 6.39648Q148.779 2.83203 148.779-4.54102L148.779-62.9395Q148.779-70.3125 145.142-73.9014Q141.504-77.4902 134.18-77.4902L30.6641-77.4902Q23.291-77.4902 19.6777-73.9014Q16.0645-70.3125 16.0645-62.9395L16.0645-4.54102Q16.0645 2.83203 19.7021 6.39648Q23.3398 9.96094 30.6641 9.96094ZM40.0879-81.0547L124.756-81.0547L124.756-84.9121Q124.756-89.5508 123.413-92.4805Q122.07-95.4102 119.189-96.7773Q116.309-98.1445 111.768-98.1445L53.0762-98.1445Q48.4863-98.1445 45.6543-96.7773Q42.8223-95.4102 41.4551-92.4805Q40.0879-89.5508 40.0879-84.9121ZM39.7461 20.3613Q39.7461 24.2188 42.1143 26.5625Q44.4824 28.9062 48.3398 28.9062L116.699 28.9062Q120.557 28.9062 122.9 26.5625Q125.244 24.2188 125.244 20.3613L125.244-32.6172Q125.244-36.5723 122.803-38.9893Q120.361-41.4062 116.406-41.4062L48.6328-41.4062Q44.6289-41.4062 42.1875-38.9893Q39.7461-36.5723 39.7461-32.6172ZM55.5664-16.0645Q54.9316-16.0645 54.5166-16.4551Q54.1016-16.8457 54.1016-17.3828Q54.1016-17.9688 54.5166-18.3594Q54.9316-18.75 55.5664-18.75L109.473-18.75Q110.059-18.75 110.498-18.3594Q110.938-17.9688 110.938-17.3828Q110.938-16.8457 110.498-16.4551Q110.059-16.0645 109.473-16.0645ZM55.5664 6.34766Q54.9316 6.34766 54.5166 5.93262Q54.1016 5.51758 54.1016 4.88281Q54.1016 4.3457 54.5166 3.95508Q54.9316 3.56445 55.5664 3.56445L109.473 3.56445Q110.059 3.56445 110.498 3.95508Q110.938 4.3457 110.938 4.88281Q110.938 5.51758 110.498 5.93262Q110.059 6.34766 109.473 6.34766ZM110.693-60.5957Q110.693-63.3789 112.817-65.4785Q114.941-67.5781 117.822-67.5781Q120.557-67.5781 122.656-65.4785Q124.756-63.3789 124.756-60.5957Q124.756-57.7637 122.656-55.6396Q120.557-53.5156 117.822-53.6621Q114.941-53.8086 112.817-55.7129Q110.693-57.6172 110.693-60.5957Z"/>
  </g>
  <g id="Black-M" transform="matrix(1 0 0 1 2863.36 1126)">
   <path d="M30.957 2.39258L31.0547 2.39258L31.0547-21.6797Q31.0547-28.8574 34.8145-32.6172Q38.5742-36.377 45.8008-36.377L94.0918-36.377Q101.27-36.377 105.029-32.6172Q108.789-28.8574 108.789-21.6797L108.789 2.39258L109.131 2.39258Q117.92 2.39258 122.778-2.44141Q127.637-7.27539 127.637-16.1133L127.637-53.2715Q127.637-62.1094 122.778-66.9434Q117.92-71.7773 109.131-71.7773L30.957-71.7773Q22.2168-71.7773 17.334-66.9434Q12.4512-62.1094 12.4512-53.2715L12.4512-16.1133Q12.4512-7.27539 17.3096-2.44141Q22.168 2.39258 30.957 2.39258ZM34.2773-80.9082L105.811-80.9082L105.811-81.1035Q105.811-85.1074 103.564-87.8662Q101.318-90.625 97.5098-92.041Q93.7012-93.457 89.1113-93.457L50.9766-93.457Q46.3867-93.457 42.6025-92.041Q38.8184-90.625 36.5479-87.8662Q34.2773-85.1074 34.2773-81.1035ZM40.2832 14.502Q40.2832 17.5781 42.1631 19.4824Q44.043 21.3867 47.168 21.3867L92.7246 21.3867Q95.8496 21.3867 97.7295 19.4824Q99.6094 17.5781 99.6094 14.502L99.6094-21.6797Q99.6094-24.1699 98.0957-25.6836Q96.582-27.1973 94.0918-27.1973L45.8008-27.1973Q43.3105-27.1973 41.7969-25.6836Q40.2832-24.1699 40.2832-21.6797ZM57.6172-6.49414Q55.6641-6.49414 54.2969-7.86133Q52.9297-9.22852 52.9297-11.1816Q52.9297-13.1348 54.2725-14.4531Q55.6152-15.7715 57.6172-15.7715L82.6172-15.7715Q84.5703-15.7715 85.9131-14.4531Q87.2559-13.1348 87.2559-11.1816Q87.2559-9.22852 85.9131-7.86133Q84.5703-6.49414 82.6172-6.49414ZM57.6172 9.96094Q55.6152 9.96094 54.2725 8.61816Q52.9297 7.27539 52.9297 5.37109Q52.9297 3.36914 54.2969 2.00195Q55.6641 0.634766 57.6172 0.634766L82.6172 0.634766Q84.5703 0.634766 85.9131 2.00195Q87.2559 3.36914 87.2559 5.37109Q87.2559 7.27539 85.9131 8.61816Q84.5703 9.96094 82.6172 9.96094ZM91.2598-51.4648Q91.2598-54.4922 93.457-56.6895Q95.6543-58.8867 98.7305-58.8867Q101.709-58.8867 103.906-56.6895Q106.104-54.4922 106.104-51.4648Q106.104-48.3887 103.931-46.2646Q101.758-44.1406 98.7305-44.0918Q95.6055-44.043 93.4326-46.2158Q91.2598-48.3887 91.2598-51.4648Z"/>
  </g>
  <g id="Heavy-M" transform="matrix(1 0 0 1 2567.28 1126)">
   <path d="M30.0293 1.70898L30.3711 1.70898L30.3711-23.0957Q30.3711-29.834 33.96-33.3984Q37.5488-36.9629 44.2871-36.9629L94.3848-36.9629Q101.074-36.9629 104.663-33.3984Q108.252-29.834 108.252-23.0957L108.252 1.70898L108.789 1.70898Q117.188 1.70898 121.777-2.83203Q126.367-7.37305 126.367-15.8203L126.367-53.5645Q126.367-62.0117 121.777-66.5527Q117.188-71.0938 108.789-71.0938L30.0293-71.0938Q21.7285-71.0938 17.0898-66.5527Q12.4512-62.0117 12.4512-53.5645L12.4512-15.8203Q12.4512-7.37305 17.041-2.83203Q21.6309 1.70898 30.0293 1.70898ZM33.6914-79.6387L105.127-79.6387L105.127-79.9805Q105.127-83.8867 103.003-86.5234Q100.879-89.1602 97.2412-90.5029Q93.6035-91.8457 89.1602-91.8457L49.6582-91.8457Q45.2637-91.8457 41.626-90.5029Q37.9883-89.1602 35.8398-86.5234Q33.6914-83.8867 33.6914-79.9805ZM38.9648 13.8184Q38.9648 16.8457 40.8447 18.7256Q42.7246 20.6055 45.8008 20.6055L92.8711 20.6055Q95.9473 20.6055 97.8027 18.7256Q99.6582 16.8457 99.6582 13.8184L99.6582-23.0957Q99.6582-25.4883 98.2178-26.9287Q96.7773-28.3691 94.3848-28.3691L44.2871-28.3691Q41.8945-28.3691 40.4297-26.9287Q38.9648-25.4883 38.9648-23.0957ZM56.1523-7.95898Q54.3457-7.95898 53.0762-9.2041Q51.8066-10.4492 51.8066-12.3047Q51.8066-14.0625 53.0518-15.2832Q54.2969-16.5039 56.1523-16.5039L82.7637-16.5039Q84.5703-16.5039 85.8154-15.2832Q87.0605-14.0625 87.0605-12.3047Q87.0605-10.4492 85.8154-9.2041Q84.5703-7.95898 82.7637-7.95898ZM56.1523 8.74023Q54.2969 8.74023 53.0518 7.49512Q51.8066 6.25 51.8066 4.54102Q51.8066 2.68555 53.0762 1.41602Q54.3457 0.146484 56.1523 0.146484L82.7637 0.146484Q84.5703 0.146484 85.8154 1.41602Q87.0605 2.68555 87.0605 4.54102Q87.0605 6.25 85.8154 7.49512Q84.5703 8.74023 82.7637 8.74023ZM91.2109-51.8066Q91.2109-54.6875 93.335-56.8115Q95.459-58.9355 98.4375-58.9355Q101.27-58.9355 103.394-56.8115Q105.518-54.6875 105.518-51.8066Q105.518-48.8281 103.418-46.7773Q101.318-44.7266 98.4375-44.6777Q95.4102-44.6289 93.3105-46.7285Q91.2109-48.8281 91.2109-51.8066Z"/>
  </g>
  <g id="Bold-M" transform="matrix(1 0 0 1 2271.3 1126)">
   <path d="M28.9551 0.927734L29.5898 0.927734L29.5898-24.6582Q29.5898-30.9082 32.9834-34.2773Q36.377-37.6465 42.5781-37.6465L94.6777-37.6465Q100.928-37.6465 104.297-34.2773Q107.666-30.9082 107.666-24.6582L107.666 0.927734L108.398 0.927734Q116.357 0.927734 120.63-3.2959Q124.902-7.51953 124.902-15.4785L124.902-53.9551Q124.902-61.9141 120.63-66.1377Q116.357-70.3613 108.398-70.3613L28.9551-70.3613Q21.2402-70.3613 16.8457-66.1377Q12.4512-61.9141 12.4512-53.9551L12.4512-15.4785Q12.4512-7.51953 16.748-3.2959Q21.0449 0.927734 28.9551 0.927734ZM33.0566-78.1738L104.346-78.1738L104.346-78.7109Q104.346-82.5195 102.344-85.0586Q100.342-87.5977 96.9238-88.8428Q93.5059-90.0879 89.209-90.0879L48.1445-90.0879Q43.9941-90.0879 40.5518-88.8428Q37.1094-87.5977 35.083-85.0586Q33.0566-82.5195 33.0566-78.7109ZM37.5488 13.0371Q37.5488 16.0645 39.3799 17.9199Q41.2109 19.7754 44.2383 19.7754L93.0176 19.7754Q96.0449 19.7754 97.9004 17.9199Q99.7559 16.0645 99.7559 13.0371L99.7559-24.6582Q99.7559-26.9531 98.3643-28.3447Q96.9727-29.7363 94.6777-29.7363L42.5781-29.7363Q40.332-29.7363 38.9404-28.3447Q37.5488-26.9531 37.5488-24.6582ZM54.541-9.57031Q52.8809-9.57031 51.7334-10.7178Q50.5859-11.8652 50.5859-13.5254Q50.5859-15.1367 51.709-16.2354Q52.832-17.334 54.541-17.334L82.959-17.334Q84.6191-17.334 85.7422-16.2354Q86.8652-15.1367 86.8652-13.5254Q86.8652-11.8652 85.7422-10.7178Q84.6191-9.57031 82.959-9.57031ZM54.541 7.42188Q52.832 7.42188 51.709 6.29883Q50.5859 5.17578 50.5859 3.56445Q50.5859 1.9043 51.7334 0.756836Q52.8809-0.390625 54.541-0.390625L82.959-0.390625Q84.6191-0.390625 85.7422 0.756836Q86.8652 1.9043 86.8652 3.56445Q86.8652 5.17578 85.7422 6.29883Q84.6191 7.42188 82.959 7.42188ZM91.1621-52.1484Q91.1621-54.9316 93.2129-56.958Q95.2637-58.9844 98.0957-58.9844Q100.83-58.9844 102.856-56.958Q104.883-54.9316 104.883-52.1484Q104.883-49.3164 102.856-47.3389Q100.83-45.3613 98.0957-45.3613Q95.2148-45.3125 93.1885-47.3145Q91.1621-49.3164 91.1621-52.1484Z"/>
  </g>
  <g id="Semibold-M" transform="matrix(1 0 0 1 1975.08 1126)">
   <path d="M28.2227 0.390625L29.0039 0.390625L29.0039-25.7324Q29.0039-31.6406 32.2754-34.8633Q35.5469-38.0859 41.4062-38.0859L94.873-38.0859Q100.781-38.0859 104.028-34.8633Q107.275-31.6406 107.275-25.7324L107.275 0.390625L108.105 0.390625Q115.771 0.390625 119.849-3.58887Q123.926-7.56836 123.926-15.2344L123.926-54.1504Q123.926-61.8652 119.849-65.8447Q115.771-69.8242 108.105-69.8242L28.2227-69.8242Q20.8496-69.8242 16.6504-65.8447Q12.4512-61.8652 12.4512-54.1504L12.4512-15.2344Q12.4512-7.56836 16.5283-3.58887Q20.6055 0.390625 28.2227 0.390625ZM32.5684-77.1973L103.76-77.1973L103.76-77.7832Q103.76-81.543 101.88-84.0088Q100-86.4746 96.7041-87.6709Q93.4082-88.8672 89.2578-88.8672L47.1191-88.8672Q43.0664-88.8672 39.7705-87.6709Q36.4746-86.4746 34.5215-84.0088Q32.5684-81.543 32.5684-77.7832ZM36.5234 12.5Q36.5234 15.5273 38.3545 17.3584Q40.1855 19.1895 43.1641 19.1895L93.1152 19.1895Q96.0938 19.1895 97.9248 17.3584Q99.7559 15.5273 99.7559 12.5L99.7559-25.7324Q99.7559-27.9297 98.4131-29.2725Q97.0703-30.6152 94.873-30.6152L41.4062-30.6152Q39.209-30.6152 37.8662-29.2725Q36.5234-27.9297 36.5234-25.7324ZM53.3691-10.6934Q51.8555-10.6934 50.8057-11.7676Q49.7559-12.8418 49.7559-14.3555Q49.7559-15.8691 50.7812-16.8945Q51.8066-17.9199 53.3691-17.9199L83.1055-17.9199Q84.6191-17.9199 85.6445-16.8945Q86.6699-15.8691 86.6699-14.3555Q86.6699-12.8418 85.6445-11.7676Q84.6191-10.6934 83.1055-10.6934ZM53.3691 6.44531Q51.8066 6.44531 50.7812 5.41992Q49.7559 4.39453 49.7559 2.92969Q49.7559 1.31836 50.8057 0.268555Q51.8555-0.78125 53.3691-0.78125L83.1055-0.78125Q84.6191-0.78125 85.6445 0.268555Q86.6699 1.31836 86.6699 2.92969Q86.6699 4.39453 85.6445 5.41992Q84.6191 6.44531 83.1055 6.44531ZM91.1133-52.3926Q91.1133-55.0293 93.0908-57.0312Q95.0684-59.0332 97.8027-59.0332Q100.439-59.0332 102.441-57.0312Q104.443-55.0293 104.443-52.3926Q104.443-49.6094 102.466-47.7051Q100.488-45.8008 97.8027-45.8008Q95.0684-45.752 93.0908-47.6807Q91.1133-49.6094 91.1133-52.3926Z"/>
  </g>
  <g id="Medium-M" transform="matrix(1 0 0 1 1678.76 1126)">
   <path d="M27.6855 0L28.6133 0L28.6133-26.5625Q28.6133-32.1777 31.7627-35.3271Q34.9121-38.4766 40.5273-38.4766L95.0684-38.4766Q100.684-38.4766 103.809-35.3271Q106.934-32.1777 106.934-26.5625L106.934 0L107.91 0Q115.332 0 119.238-3.80859Q123.145-7.61719 123.145-15.0879L123.145-54.3457Q123.145-61.7676 119.238-65.6006Q115.332-69.4336 107.91-69.4336L27.6855-69.4336Q20.5566-69.4336 16.5039-65.6006Q12.4512-61.7676 12.4512-54.3457L12.4512-15.0879Q12.4512-7.61719 16.3574-3.80859Q20.2637 0 27.6855 0ZM32.2266-76.416L103.369-76.416L103.369-77.1484Q103.369-80.8105 101.538-83.2031Q99.707-85.5957 96.5332-86.7676Q93.3594-87.9395 89.2578-87.9395L46.3379-87.9395Q42.4316-87.9395 39.2334-86.7676Q36.0352-85.5957 34.1309-83.2031Q32.2266-80.8105 32.2266-77.1484ZM35.7422 12.1094Q35.7422 15.0879 37.5732 16.9189Q39.4043 18.75 42.3828 18.75L93.2129 18.75Q96.1914 18.75 97.998 16.9189Q99.8047 15.0879 99.8047 12.1094L99.8047-26.5625Q99.8047-28.7109 98.4863-30.0049Q97.168-31.2988 95.0684-31.2988L40.5273-31.2988Q38.3789-31.2988 37.0605-30.0049Q35.7422-28.7109 35.7422-26.5625ZM52.5391-11.5234Q51.0742-11.5234 50.0732-12.5488Q49.0723-13.5742 49.0723-15.0391Q49.0723-16.4062 50.0732-17.3584Q51.0742-18.3105 52.5391-18.3105L83.1543-18.3105Q84.668-18.3105 85.6201-17.3584Q86.5723-16.4062 86.5723-15.0391Q86.5723-13.5742 85.6201-12.5488Q84.668-11.5234 83.1543-11.5234ZM52.5391 5.76172Q51.0742 5.76172 50.0732 4.78516Q49.0723 3.80859 49.0723 2.39258Q49.0723 0.927734 50.0732-0.0488281Q51.0742-1.02539 52.5391-1.02539L83.1543-1.02539Q84.668-1.02539 85.6201-0.0488281Q86.5723 0.927734 86.5723 2.39258Q86.5723 3.80859 85.6201 4.78516Q84.668 5.76172 83.1543 5.76172ZM91.1133-52.5879Q91.1133-55.1758 93.042-57.1045Q94.9707-59.0332 97.6562-59.0332Q100.244-59.0332 102.173-57.1045Q104.102-55.1758 104.102-52.5879Q104.102-49.8535 102.173-47.998Q100.244-46.1426 97.6562-46.1426Q94.9707-46.0938 93.042-47.9736Q91.1133-49.8535 91.1133-52.5879Z"/>
  </g>
  <g id="Regular-M" transform="matrix(1 0 0 1 1382.53 1126)">
   <path d="M26.9531-0.537109L28.0762-0.537109L28.0762-27.6367Q28.0762-32.9102 31.1035-35.9131Q34.1309-38.916 39.3555-38.916L95.2637-38.916Q100.537-38.916 103.54-35.9131Q106.543-32.9102 106.543-27.6367L106.543-0.537109L107.617-0.537109Q114.746-0.537109 118.457-4.12598Q122.168-7.71484 122.168-14.8438L122.168-54.5898Q122.168-61.7188 118.457-65.332Q114.746-68.9453 107.617-68.9453L26.9531-68.9453Q20.2148-68.9453 16.333-65.332Q12.4512-61.7188 12.4512-54.5898L12.4512-14.8438Q12.4512-7.71484 16.1621-4.12598Q19.873-0.537109 26.9531-0.537109ZM31.7871-75.4395L102.832-75.4395L102.832-76.2695Q102.832-79.8828 101.099-82.2021Q99.3652-84.5215 96.3135-85.6201Q93.2617-86.7188 89.3066-86.7188L45.3125-86.7188Q41.5527-86.7188 38.4766-85.6201Q35.4004-84.5215 33.5938-82.2021Q31.7871-79.8828 31.7871-76.2695ZM34.7656 11.5723Q34.7656 14.5508 36.5723 16.3574Q38.3789 18.1641 41.3086 18.1641L93.3105 18.1641Q96.2402 18.1641 98.0469 16.3574Q99.8535 14.5508 99.8535 11.5723L99.8535-27.6367Q99.8535-29.6875 98.584-30.957Q97.3145-32.2266 95.2637-32.2266L39.3555-32.2266Q37.3047-32.2266 36.0352-30.957Q34.7656-29.6875 34.7656-27.6367ZM51.416-12.6465Q50.0488-12.6465 49.1455-13.5742Q48.2422-14.502 48.2422-15.8691Q48.2422-17.1387 49.1455-18.0176Q50.0488-18.8965 51.416-18.8965L83.3008-18.8965Q84.668-18.8965 85.5469-18.0176Q86.4258-17.1387 86.4258-15.8691Q86.4258-14.502 85.5469-13.5742Q84.668-12.6465 83.3008-12.6465ZM51.416 4.83398Q50.0488 4.83398 49.1455 3.93066Q48.2422 3.02734 48.2422 1.75781Q48.2422 0.390625 49.1455-0.512695Q50.0488-1.41602 51.416-1.41602L83.3008-1.41602Q84.668-1.41602 85.5469-0.512695Q86.4258 0.390625 86.4258 1.75781Q86.4258 3.02734 85.5469 3.93066Q84.668 4.83398 83.3008 4.83398ZM91.0645-52.832Q91.0645-55.3223 92.9443-57.2021Q94.8242-59.082 97.4121-59.082Q99.9023-59.082 101.782-57.2021Q103.662-55.3223 103.662-52.832Q103.662-50.1953 101.782-48.3887Q99.9023-46.582 97.4121-46.582Q94.8242-46.5332 92.9443-48.3643Q91.0645-50.1953 91.0645-52.832Z"/>
  </g>
  <g id="Light-M" transform="matrix(1 0 0 1 1086.87 1126)">
   <path d="M25.9766-0.439453L27.832-0.439453L27.832-29.3457Q27.832-34.4238 30.8105-37.3779Q33.7891-40.332 38.8184-40.332L93.7012-40.332Q98.7793-40.332 101.733-37.3779Q104.688-34.4238 104.688-29.3457L104.688-0.439453L106.494-0.439453Q113.184-0.439453 116.626-3.78418Q120.068-7.12891 120.068-13.8184L120.068-55.2246Q120.068-61.9141 116.626-65.2832Q113.184-68.6523 106.494-68.6523L25.9766-68.6523Q19.5312-68.6523 15.9912-65.2832Q12.4512-61.9141 12.4512-55.2246L12.4512-13.8184Q12.4512-7.12891 15.8936-3.78418Q19.3359-0.439453 25.9766-0.439453ZM31.5918-73.9746L100.928-73.9746L100.928-75.4883Q100.928-79.1016 99.4141-81.3965Q97.9004-83.6914 95.0928-84.79Q92.2852-85.8887 88.4766-85.8887L43.9941-85.8887Q40.332-85.8887 37.5244-84.79Q34.7168-83.6914 33.1543-81.3965Q31.5918-79.1016 31.5918-75.4883ZM33.5449 10.4004Q33.5449 13.3789 35.3516 15.1855Q37.1582 16.9922 40.1367 16.9922L92.4316 16.9922Q95.3613 16.9922 97.168 15.1855Q98.9746 13.3789 98.9746 10.4004L98.9746-29.3457Q98.9746-31.7383 97.5342-33.1787Q96.0938-34.6191 93.7012-34.6191L38.8184-34.6191Q36.4746-34.6191 35.0098-33.1787Q33.5449-31.7383 33.5449-29.3457ZM48.8281-15.0391Q47.7539-15.0391 47.0215-15.7715Q46.2891-16.5039 46.2891-17.5781Q46.2891-18.6035 47.0215-19.3115Q47.7539-20.0195 48.8281-20.0195L83.7891-20.0195Q84.8633-20.0195 85.5713-19.3115Q86.2793-18.6035 86.2793-17.5781Q86.2793-16.5039 85.5713-15.7715Q84.8633-15.0391 83.7891-15.0391ZM48.8281 2.39258Q47.7539 2.39258 47.0215 1.68457Q46.2891 0.976562 46.2891-0.0488281Q46.2891-1.12305 47.0215-1.85547Q47.7539-2.58789 48.8281-2.58789L83.7891-2.58789Q84.8633-2.58789 85.5713-1.85547Q86.2793-1.12305 86.2793-0.0488281Q86.2793 0.976562 85.5713 1.68457Q84.8633 2.39258 83.7891 2.39258ZM89.4531-53.4668Q89.4531-55.8105 91.2598-57.6172Q93.0664-59.4238 95.5566-59.4238Q97.9492-59.4238 99.7314-57.6172Q101.514-55.8105 101.514-53.4668Q101.514-50.9277 99.7314-49.1699Q97.9492-47.4121 95.5566-47.4609Q93.0664-47.4609 91.2598-49.1699Q89.4531-50.8789 89.4531-53.4668Z"/>
  </g>
  <g id="Thin-M" transform="matrix(1 0 0 1 791.578 1126)">
   <path d="M24.6582-0.292969L27.5391-0.292969L27.5391-31.6406Q27.5391-36.4258 30.4443-39.3066Q33.3496-42.1875 38.1348-42.1875L91.6504-42.1875Q96.4355-42.1875 99.3164-39.3066Q102.197-36.4258 102.197-31.6406L102.197-0.292969L105.029-0.292969Q111.084-0.292969 114.16-3.2959Q117.236-6.29883 117.236-12.4023L117.236-56.1035Q117.236-62.207 114.16-65.2344Q111.084-68.2617 105.029-68.2617L24.6582-68.2617Q18.6523-68.2617 15.5518-65.2344Q12.4512-62.207 12.4512-56.1035L12.4512-12.4023Q12.4512-6.29883 15.5273-3.2959Q18.6035-0.292969 24.6582-0.292969ZM31.2988-72.0703L98.3887-72.0703L98.3887-74.4629Q98.3887-78.0762 97.1436-80.3467Q95.8984-82.6172 93.457-83.6914Q91.0156-84.7656 87.3535-84.7656L42.2852-84.7656Q38.7207-84.7656 36.2549-83.6914Q33.7891-82.6172 32.5439-80.3467Q31.2988-78.0762 31.2988-74.4629ZM31.9336 8.88672Q31.9336 11.8652 33.7402 13.6719Q35.5469 15.4785 38.5742 15.4785L91.2598 15.4785Q94.1895 15.4785 96.0205 13.6719Q97.8516 11.8652 97.8516 8.88672L97.8516-31.6406Q97.8516-34.4238 96.1426-36.1084Q94.4336-37.793 91.6504-37.793L38.1348-37.793Q35.3516-37.793 33.6426-36.1084Q31.9336-34.4238 31.9336-31.6406ZM45.4102-18.2129Q44.6777-18.2129 44.1895-18.7012Q43.7012-19.1895 43.7012-19.8242Q43.7012-20.5566 44.1895-21.0205Q44.6777-21.4844 45.4102-21.4844L84.375-21.4844Q85.1074-21.4844 85.5957-21.0205Q86.084-20.5566 86.084-19.8242Q86.084-19.1895 85.5957-18.7012Q85.1074-18.2129 84.375-18.2129ZM45.4102-0.830078Q44.6777-0.830078 44.1895-1.31836Q43.7012-1.80664 43.7012-2.44141Q43.7012-3.17383 44.1895-3.6377Q44.6777-4.10156 45.4102-4.10156L84.375-4.10156Q85.1074-4.10156 85.5957-3.6377Q86.084-3.17383 86.084-2.44141Q86.084-1.80664 85.5957-1.31836Q85.1074-0.830078 84.375-0.830078ZM87.3047-54.2969Q87.3047-56.543 89.0137-58.252Q90.7227-59.9609 93.0664-59.9609Q95.3125-59.9609 96.9971-58.252Q98.6816-56.543 98.6816-54.2969Q98.6816-52.002 96.9971-50.293Q95.3125-48.584 93.0664-48.6816Q90.7227-48.7305 89.0137-50.293Q87.3047-51.8555 87.3047-54.2969Z"/>
  </g>
  <g id="Ultralight-M" transform="matrix(1 0 0 1 495.575 1126)">
   <path d="M24.0234-0.195312L27.3926-0.195312L27.3926-32.8125Q27.3926-37.4512 30.2734-40.2832Q33.1543-43.1152 37.7441-43.1152L90.5762-43.1152Q95.2637-43.1152 98.1201-40.2832Q100.977-37.4512 100.977-32.8125L100.977-0.195312L104.248-0.195312Q110.01-0.195312 112.915-3.05176Q115.82-5.9082 115.82-11.7188L115.82-56.543Q115.82-62.3535 112.915-65.1855Q110.01-68.0176 104.248-68.0176L24.0234-68.0176Q18.2129-68.0176 15.332-65.1855Q12.4512-62.3535 12.4512-56.543L12.4512-11.7188Q12.4512-5.9082 15.3564-3.05176Q18.2617-0.195312 24.0234-0.195312ZM31.1523-71.0938L97.1191-71.0938L97.1191-73.9258Q97.1191-77.5391 96.0205-79.8096Q94.9219-82.0801 92.627-83.1543Q90.332-84.2285 86.8164-84.2285L41.4062-84.2285Q37.8906-84.2285 35.5957-83.1543Q33.3008-82.0801 32.2266-79.8096Q31.1523-77.5391 31.1523-73.9258ZM31.1035 8.10547Q31.1035 11.084 32.9346 12.8906Q34.7656 14.6973 37.7441 14.6973L90.625 14.6973Q93.6035 14.6973 95.4346 12.8906Q97.2656 11.084 97.2656 8.10547L97.2656-32.8125Q97.2656-35.8398 95.4346-37.6465Q93.6035-39.4531 90.5762-39.4531L37.7441-39.4531Q34.7656-39.4531 32.9346-37.6465Q31.1035-35.8398 31.1035-32.8125ZM43.6523-19.8242Q43.1152-19.8242 42.749-20.1904Q42.3828-20.5566 42.3828-20.9961Q42.3828-21.5332 42.749-21.875Q43.1152-22.2168 43.6523-22.2168L84.7168-22.2168Q85.2539-22.2168 85.6201-21.875Q85.9863-21.5332 85.9863-20.9961Q85.9863-20.5566 85.6201-20.1904Q85.2539-19.8242 84.7168-19.8242ZM43.6523-2.49023Q43.1152-2.49023 42.749-2.83203Q42.3828-3.17383 42.3828-3.71094Q42.3828-4.19922 42.749-4.56543Q43.1152-4.93164 43.6523-4.93164L84.7168-4.93164Q85.2539-4.93164 85.6201-4.56543Q85.9863-4.19922 85.9863-3.71094Q85.9863-3.17383 85.6201-2.83203Q85.2539-2.49023 84.7168-2.49023ZM86.1816-54.7363Q86.1816-56.8848 87.8418-58.5449Q89.502-60.2051 91.748-60.2051Q93.9453-60.2051 95.5566-58.5449Q97.168-56.8848 97.168-54.7363Q97.168-52.4902 95.5566-50.8301Q93.9453-49.1699 91.748-49.2676Q89.502-49.3652 87.8418-50.8545Q86.1816-52.3438 86.1816-54.7363Z"/>
  </g>
  <g id="Black-S" transform="matrix(1 0 0 1 2878.37 696)">
   <path d="M24.5117-5.51758L24.5605-5.51758L24.5605-24.2676Q24.5605-30.0781 27.5635-33.0566Q30.5664-36.0352 36.3281-36.0352L73.5352-36.0352Q79.3457-36.0352 82.3242-33.0566Q85.3027-30.0781 85.3027-24.2676L85.3027-5.51758L85.5469-5.51758Q92.5293-5.51758 96.4111-9.39941Q100.293-13.2812 100.293-20.2637L100.293-49.3164Q100.293-56.2988 96.4111-60.1807Q92.5293-64.0625 85.5469-64.0625L24.5117-64.0625Q17.5293-64.0625 13.6475-60.1807Q9.76562-56.2988 9.76562-49.3164L9.76562-20.2637Q9.76562-13.2812 13.6475-9.39941Q17.5293-5.51758 24.5117-5.51758ZM27.0508-71.3379L83.0078-71.3379L83.0078-71.4844Q83.0078-76.2695 79.126-78.7842Q75.2441-81.2988 69.7754-81.2988L40.2832-81.2988Q34.8145-81.2988 30.9326-78.7842Q27.0508-76.2695 27.0508-71.4844ZM31.8848 3.85742Q31.8848 6.29883 33.374 7.78809Q34.8633 9.27734 37.3047 9.27734L72.5586 9.27734Q75 9.27734 76.4893 7.78809Q77.9785 6.29883 77.9785 3.85742L77.9785-24.2676Q77.9785-26.2695 76.7578-27.4902Q75.5371-28.7109 73.5352-28.7109L36.3281-28.7109Q34.3262-28.7109 33.1055-27.4902Q31.8848-26.2695 31.8848-24.2676ZM45.459-12.4023Q43.8965-12.4023 42.7979-13.501Q41.6992-14.5996 41.6992-16.1621Q41.6992-17.7246 42.7734-18.7744Q43.8477-19.8242 45.459-19.8242L64.6973-19.8242Q66.2598-19.8242 67.334-18.7744Q68.4082-17.7246 68.4082-16.1621Q68.4082-14.5996 67.334-13.501Q66.2598-12.4023 64.6973-12.4023ZM45.459 0.390625Q43.8477 0.390625 42.7734-0.683594Q41.6992-1.75781 41.6992-3.27148Q41.6992-4.83398 42.7979-5.93262Q43.8965-7.03125 45.459-7.03125L64.6973-7.03125Q66.2598-7.03125 67.334-5.93262Q68.4082-4.83398 68.4082-3.27148Q68.4082-1.75781 67.334-0.683594Q66.2598 0.390625 64.6973 0.390625ZM71.3867-47.9004Q71.3867-50.293 73.1445-52.0264Q74.9023-53.7598 77.2949-53.7598Q79.6875-53.7598 81.4209-52.0264Q83.1543-50.293 83.1543-47.9004Q83.1543-45.459 81.4453-43.7744Q79.7363-42.0898 77.2949-42.041Q74.8535-41.9922 73.1201-43.7256Q71.3867-45.459 71.3867-47.9004Z"/>
  </g>
  <g id="Heavy-S" transform="matrix(1 0 0 1 2582.07 696)">
   <path d="M23.8281-6.15234L23.9746-6.15234L23.9746-25.2441Q23.9746-30.7129 26.8311-33.5449Q29.6875-36.377 35.1074-36.377L73.9746-36.377Q79.3945-36.377 82.251-33.5449Q85.1074-30.7129 85.1074-25.2441L85.1074-6.15234L85.4004-6.15234Q92.0898-6.15234 95.7764-9.79004Q99.4629-13.4277 99.4629-20.166L99.4629-49.5117Q99.4629-56.2012 95.7764-59.8633Q92.0898-63.5254 85.4004-63.5254L23.8281-63.5254Q17.1875-63.5254 13.4766-59.8633Q9.76562-56.2012 9.76562-49.5117L9.76562-20.166Q9.76562-13.4277 13.4521-9.79004Q17.1387-6.15234 23.8281-6.15234ZM26.5625-70.4102L82.666-70.4102L82.666-70.6055Q82.666-75.2441 78.9551-77.6367Q75.2441-80.0293 69.9219-80.0293L39.3066-80.0293Q34.082-80.0293 30.3223-77.6367Q26.5625-75.2441 26.5625-70.6055ZM30.9082 3.41797Q30.9082 5.85938 32.3975 7.32422Q33.8867 8.78906 36.2793 8.78906L72.8027 8.78906Q75.1953 8.78906 76.6602 7.32422Q78.125 5.85938 78.125 3.41797L78.125-25.2441Q78.125-27.1484 76.9775-28.2959Q75.8301-29.4434 73.9746-29.4434L35.1074-29.4434Q33.2031-29.4434 32.0557-28.2959Q30.9082-27.1484 30.9082-25.2441ZM44.5312-13.3301Q43.0664-13.3301 42.041-14.3799Q41.0156-15.4297 41.0156-16.8945Q41.0156-18.3594 42.0166-19.3359Q43.0176-20.3125 44.5312-20.3125L64.7949-20.3125Q66.2598-20.3125 67.2607-19.3359Q68.2617-18.3594 68.2617-16.8945Q68.2617-15.4297 67.2607-14.3799Q66.2598-13.3301 64.7949-13.3301ZM44.5312-0.341797Q43.0176-0.341797 42.0166-1.34277Q41.0156-2.34375 41.0156-3.75977Q41.0156-5.22461 42.041-6.27441Q43.0664-7.32422 44.5312-7.32422L64.7949-7.32422Q66.2598-7.32422 67.2607-6.27441Q68.2617-5.22461 68.2617-3.75977Q68.2617-2.34375 67.2607-1.34277Q66.2598-0.341797 64.7949-0.341797ZM71.582-48.0957Q71.582-50.3906 73.291-52.0752Q75-53.7598 77.2949-53.7598Q79.5898-53.7598 81.2744-52.0752Q82.959-50.3906 82.959-48.0957Q82.959-45.752 81.2988-44.1162Q79.6387-42.4805 77.2949-42.4316Q74.9512-42.3828 73.2666-44.0674Q71.582-45.752 71.582-48.0957Z"/>
  </g>
  <g id="Bold-S" transform="matrix(1 0 0 1 2285.83 696)">
   <path d="M23.0957-6.83594L23.3398-6.83594L23.3398-26.3672Q23.3398-31.3965 26.0498-34.0576Q28.7598-36.7188 33.7402-36.7188L74.4629-36.7188Q79.4922-36.7188 82.1777-34.0576Q84.8633-31.3965 84.8633-26.3672L84.8633-6.83594L85.2051-6.83594Q91.6016-6.83594 95.0684-10.2295Q98.5352-13.623 98.5352-20.0195L98.5352-49.707Q98.5352-56.1035 95.0684-59.5215Q91.6016-62.9395 85.2051-62.9395L23.0957-62.9395Q16.8457-62.9395 13.3057-59.5215Q9.76562-56.1035 9.76562-49.707L9.76562-20.0195Q9.76562-13.623 13.2324-10.2295Q16.6992-6.83594 23.0957-6.83594ZM26.0254-69.3848L82.2754-69.3848L82.2754-69.6289Q82.2754-74.1211 78.7354-76.3916Q75.1953-78.6621 70.0684-78.6621L38.2324-78.6621Q33.252-78.6621 29.6387-76.3916Q26.0254-74.1211 26.0254-69.6289ZM29.8828 2.92969Q29.8828 5.32227 31.3232 6.7627Q32.7637 8.20312 35.1562 8.20312L73.0469 8.20312Q75.4395 8.20312 76.8799 6.7627Q78.3203 5.32227 78.3203 2.92969L78.3203-26.3672Q78.3203-28.125 77.2705-29.1748Q76.2207-30.2246 74.4629-30.2246L33.7402-30.2246Q31.9824-30.2246 30.9326-29.1748Q29.8828-28.125 29.8828-26.3672ZM43.5059-14.4043Q42.1387-14.4043 41.1865-15.3564Q40.2344-16.3086 40.2344-17.6758Q40.2344-19.043 41.1621-19.9707Q42.0898-20.8984 43.5059-20.8984L64.8926-20.8984Q66.2598-20.8984 67.1875-19.9707Q68.1152-19.043 68.1152-17.6758Q68.1152-16.3086 67.1875-15.3564Q66.2598-14.4043 64.8926-14.4043ZM43.5059-1.17188Q42.0898-1.17188 41.1621-2.09961Q40.2344-3.02734 40.2344-4.3457Q40.2344-5.71289 41.1865-6.66504Q42.1387-7.61719 43.5059-7.61719L64.8926-7.61719Q66.2598-7.61719 67.1875-6.66504Q68.1152-5.71289 68.1152-4.3457Q68.1152-3.02734 67.1875-2.09961Q66.2598-1.17188 64.8926-1.17188ZM71.7285-48.291Q71.7285-50.5371 73.3643-52.1484Q75-53.7598 77.2461-53.7598Q79.4434-53.7598 81.0547-52.1484Q82.666-50.5371 82.666-48.291Q82.666-46.0449 81.0791-44.458Q79.4922-42.8711 77.2461-42.8711Q75-42.8223 73.3643-44.4336Q71.7285-46.0449 71.7285-48.291Z"/>
  </g>
  <g id="Semibold-S" transform="matrix(1 0 0 1 1989.46 696)">
   <path d="M22.5586-7.27539L22.9004-7.27539L22.9004-27.0996Q22.9004-31.8359 25.4883-34.3994Q28.0762-36.9629 32.7637-36.9629L74.8047-36.9629Q79.4922-36.9629 82.0801-34.3994Q84.668-31.8359 84.668-27.0996L84.668-7.27539L85.0586-7.27539Q91.2598-7.27539 94.5557-10.5225Q97.8516-13.7695 97.8516-19.9219L97.8516-49.8535Q97.8516-56.0547 94.5557-59.2773Q91.2598-62.5 85.0586-62.5L22.5586-62.5Q16.6016-62.5 13.1836-59.2773Q9.76562-56.0547 9.76562-49.8535L9.76562-19.9219Q9.76562-13.7695 13.0615-10.5225Q16.3574-7.27539 22.5586-7.27539ZM25.6348-68.6523L81.9824-68.6523L81.9824-68.9453Q81.9824-73.3398 78.5889-75.5127Q75.1953-77.6855 70.166-77.6855L37.4512-77.6855Q32.666-77.6855 29.1504-75.5127Q25.6348-73.3398 25.6348-68.9453ZM29.1016 2.58789Q29.1016 4.98047 30.542 6.39648Q31.9824 7.8125 34.3262 7.8125L73.2422 7.8125Q75.5859 7.8125 77.0264 6.39648Q78.4668 4.98047 78.4668 2.58789L78.4668-27.0996Q78.4668-28.7598 77.4414-29.7607Q76.416-30.7617 74.8047-30.7617L32.7637-30.7617Q31.1523-30.7617 30.127-29.7607Q29.1016-28.7598 29.1016-27.0996ZM42.7734-15.1367Q41.4551-15.1367 40.5762-16.04Q39.6973-16.9434 39.6973-18.2129Q39.6973-19.5312 40.5762-20.3857Q41.4551-21.2402 42.7734-21.2402L64.9414-21.2402Q66.2109-21.2402 67.1143-20.3857Q68.0176-19.5312 68.0176-18.2129Q68.0176-16.9434 67.1143-16.04Q66.2109-15.1367 64.9414-15.1367ZM42.7734-1.70898Q41.4551-1.70898 40.5762-2.58789Q39.6973-3.4668 39.6973-4.6875Q39.6973-6.00586 40.5762-6.90918Q41.4551-7.8125 42.7734-7.8125L64.9414-7.8125Q66.2109-7.8125 67.1143-6.90918Q68.0176-6.00586 68.0176-4.6875Q68.0176-3.4668 67.1143-2.58789Q66.2109-1.70898 64.9414-1.70898ZM71.875-48.4375Q71.875-50.5859 73.4619-52.1484Q75.0488-53.7109 77.1973-53.7109Q79.3945-53.7109 80.957-52.1484Q82.5195-50.5859 82.5195-48.4375Q82.5195-46.2402 80.957-44.7021Q79.3945-43.1641 77.1973-43.1641Q75.0488-43.1152 73.4619-44.6777Q71.875-46.2402 71.875-48.4375Z"/>
  </g>
  <g id="Medium-S" transform="matrix(1 0 0 1 1692.99 696)">
   <path d="M22.168-7.61719L22.5586-7.61719L22.5586-27.6855Q22.5586-32.1777 25.0488-34.668Q27.5391-37.1582 32.0312-37.1582L75.0488-37.1582Q79.541-37.1582 82.0312-34.668Q84.5215-32.1777 84.5215-27.6855L84.5215-7.61719L85.0098-7.61719Q91.0156-7.61719 94.1895-10.7178Q97.3633-13.8184 97.3633-19.873L97.3633-49.9512Q97.3633-55.957 94.1895-59.0576Q91.0156-62.1582 85.0098-62.1582L22.168-62.1582Q16.4062-62.1582 13.0859-59.0576Q9.76562-55.957 9.76562-49.9512L9.76562-19.873Q9.76562-13.8184 12.9395-10.7178Q16.1133-7.61719 22.168-7.61719ZM25.3906-68.1152L81.7871-68.1152L81.7871-68.457Q81.7871-72.7539 78.4668-74.8535Q75.1465-76.9531 70.2637-76.9531L36.8652-76.9531Q32.2266-76.9531 28.8086-74.8535Q25.3906-72.7539 25.3906-68.457ZM28.5645 2.34375Q28.5645 4.6875 29.9805 6.10352Q31.3965 7.51953 33.7402 7.51953L73.3398 7.51953Q75.6836 7.51953 77.0996 6.10352Q78.5156 4.6875 78.5156 2.34375L78.5156-27.6855Q78.5156-29.2969 77.5635-30.249Q76.6113-31.2012 75.0488-31.2012L32.0312-31.2012Q30.4688-31.2012 29.5166-30.249Q28.5645-29.2969 28.5645-27.6855ZM42.2363-15.6738Q40.9668-15.6738 40.1367-16.5283Q39.3066-17.3828 39.3066-18.6523Q39.3066-19.873 40.1367-20.7031Q40.9668-21.5332 42.2363-21.5332L64.9902-21.5332Q66.2109-21.5332 67.0654-20.7031Q67.9199-19.873 67.9199-18.6523Q67.9199-17.3828 67.0654-16.5283Q66.2109-15.6738 64.9902-15.6738ZM42.2363-2.14844Q40.9668-2.14844 40.1367-2.97852Q39.3066-3.80859 39.3066-4.98047Q39.3066-6.25 40.1367-7.12891Q40.9668-8.00781 42.2363-8.00781L64.9902-8.00781Q66.2109-8.00781 67.0654-7.12891Q67.9199-6.25 67.9199-4.98047Q67.9199-3.80859 67.0654-2.97852Q66.2109-2.14844 64.9902-2.14844ZM71.9727-48.5352Q71.9727-50.6348 73.5352-52.1729Q75.0977-53.7109 77.1973-53.7109Q79.2969-53.7109 80.835-52.1729Q82.373-50.6348 82.373-48.5352Q82.373-46.3867 80.835-44.873Q79.2969-43.3594 77.1973-43.3594Q75.0977-43.3105 73.5352-44.8486Q71.9727-46.3867 71.9727-48.5352Z"/>
  </g>
  <g id="Regular-S" transform="matrix(1 0 0 1 1396.6 696)">
   <path d="M21.6309-8.10547L22.1191-8.10547L22.1191-28.418Q22.1191-32.666 24.5117-35.0342Q26.9043-37.4023 31.1035-37.4023L75.3906-37.4023Q79.5898-37.4023 81.9824-35.0342Q84.375-32.666 84.375-28.418L84.375-8.10547L84.8633-8.10547Q90.6738-8.10547 93.7012-11.0352Q96.7285-13.9648 96.7285-19.7754L96.7285-50.0977Q96.7285-55.9082 93.7012-58.8379Q90.6738-61.7676 84.8633-61.7676L21.6309-61.7676Q16.1621-61.7676 12.9639-58.8379Q9.76562-55.9082 9.76562-50.0977L9.76562-19.7754Q9.76562-13.9648 12.793-11.0352Q15.8203-8.10547 21.6309-8.10547ZM25-67.4316L81.4941-67.4316L81.4941-67.7734Q81.4941-71.9727 78.3203-73.9746Q75.1465-75.9766 70.3613-75.9766L36.1328-75.9766Q31.6406-75.9766 28.3203-73.9746Q25-71.9727 25-67.7734ZM27.832 2.00195Q27.832 4.3457 29.248 5.7373Q30.6641 7.12891 32.959 7.12891L73.5352 7.12891Q75.8301 7.12891 77.2461 5.7373Q78.6621 4.3457 78.6621 2.00195L78.6621-28.418Q78.6621-29.9316 77.7588-30.835Q76.8555-31.7383 75.3906-31.7383L31.1035-31.7383Q29.6387-31.7383 28.7354-30.835Q27.832-29.9316 27.832-28.418ZM41.5527-16.4062Q40.332-16.4062 39.5508-17.2119Q38.7695-18.0176 38.7695-19.1895Q38.7695-20.3613 39.5508-21.1426Q40.332-21.9238 41.5527-21.9238L65.0391-21.9238Q66.2109-21.9238 67.0166-21.1426Q67.8223-20.3613 67.8223-19.1895Q67.8223-18.0176 67.0166-17.2119Q66.2109-16.4062 65.0391-16.4062ZM41.5527-2.68555Q40.332-2.68555 39.5508-3.4668Q38.7695-4.24805 38.7695-5.37109Q38.7695-6.54297 39.5508-7.37305Q40.332-8.20312 41.5527-8.20312L65.0391-8.20312Q66.2109-8.20312 67.0166-7.37305Q67.8223-6.54297 67.8223-5.37109Q67.8223-4.24805 67.0166-3.4668Q66.2109-2.68555 65.0391-2.68555ZM72.1191-48.6816Q72.1191-50.7324 73.6328-52.2217Q75.1465-53.7109 77.1973-53.7109Q79.248-53.7109 80.7373-52.2217Q82.2266-50.7324 82.2266-48.6816Q82.2266-46.582 80.7373-45.1172Q79.248-43.6523 77.1973-43.6523Q75.1465-43.6035 73.6328-45.0928Q72.1191-46.582 72.1191-48.6816Z"/>
  </g>
  <g id="Light-S" transform="matrix(1 0 0 1 1100.81 696)">
   <path d="M20.752-8.00781L21.9238-8.00781L21.9238-29.9316Q21.9238-34.0332 24.2676-36.3525Q26.6113-38.6719 30.6152-38.6719L74.0234-38.6719Q78.0273-38.6719 80.3955-36.3525Q82.7637-34.0332 82.7637-29.9316L82.7637-8.00781L83.8867-8.00781Q89.2578-8.00781 92.0654-10.7178Q94.873-13.4277 94.873-18.8477L94.873-50.6836Q94.873-56.1035 92.0654-58.8135Q89.2578-61.5234 83.8867-61.5234L20.752-61.5234Q15.5762-61.5234 12.6709-58.8135Q9.76562-56.1035 9.76562-50.6836L9.76562-18.8477Q9.76562-13.4277 12.5488-10.7178Q15.332-8.00781 20.752-8.00781ZM24.8047-66.1621L79.834-66.1621L79.834-67.0898Q79.834-71.2891 77.0264-73.2666Q74.2188-75.2441 69.6289-75.2441L34.9609-75.2441Q30.6152-75.2441 27.71-73.2666Q24.8047-71.2891 24.8047-67.0898ZM26.7578 0.976562Q26.7578 3.32031 28.1738 4.73633Q29.5898 6.15234 31.8848 6.15234L72.7539 6.15234Q75.0488 6.15234 76.4893 4.73633Q77.9297 3.32031 77.9297 0.976562L77.9297-29.9316Q77.9297-31.7383 76.8311-32.7881Q75.7324-33.8379 74.0234-33.8379L30.6152-33.8379Q28.9062-33.8379 27.832-32.7881Q26.7578-31.7383 26.7578-29.9316ZM39.2578-18.5059Q38.2812-18.5059 37.6709-19.1406Q37.0605-19.7754 37.0605-20.7031Q37.0605-21.6309 37.6709-22.2656Q38.2812-22.9004 39.2578-22.9004L65.4785-22.9004Q66.4062-22.9004 67.041-22.2656Q67.6758-21.6309 67.6758-20.7031Q67.6758-19.7754 67.041-19.1406Q66.4062-18.5059 65.4785-18.5059ZM39.2578-4.83398Q38.2812-4.83398 37.6709-5.46875Q37.0605-6.10352 37.0605-6.98242Q37.0605-7.91016 37.6709-8.56934Q38.2812-9.22852 39.2578-9.22852L65.4785-9.22852Q66.4062-9.22852 67.041-8.56934Q67.6758-7.91016 67.6758-6.98242Q67.6758-6.10352 67.041-5.46875Q66.4062-4.83398 65.4785-4.83398ZM70.7031-49.2676Q70.7031-51.1719 72.1436-52.6123Q73.584-54.0527 75.5859-54.0527Q77.4902-54.0527 78.9062-52.6123Q80.3223-51.1719 80.3223-49.2676Q80.3223-47.2656 78.9062-45.8496Q77.4902-44.4336 75.5859-44.4336Q73.584-44.4336 72.1436-45.8252Q70.7031-47.2168 70.7031-49.2676Z"/>
  </g>
  <g id="Thin-S" transform="matrix(1 0 0 1 805.348 696)">
   <path d="M19.5801-7.91016L21.6797-7.91016L21.6797-31.9824Q21.6797-35.791 23.9502-38.0615Q26.2207-40.332 30.0293-40.332L72.168-40.332Q76.0254-40.332 78.2959-38.0615Q80.5664-35.791 80.5664-31.9824L80.5664-7.91016L82.5684-7.91016Q87.4512-7.91016 89.917-10.3027Q92.3828-12.6953 92.3828-17.627L92.3828-51.416Q92.3828-56.3477 89.917-58.7646Q87.4512-61.1816 82.5684-61.1816L19.5801-61.1816Q14.7949-61.1816 12.2803-58.7646Q9.76562-56.3477 9.76562-51.416L9.76562-17.627Q9.76562-12.6953 12.2314-10.3027Q14.6973-7.91016 19.5801-7.91016ZM24.5605-64.4531L77.5879-64.4531L77.5879-66.1621Q77.5879-70.3613 75.293-72.3145Q72.998-74.2676 68.6523-74.2676L33.4473-74.2676Q29.1992-74.2676 26.8799-72.3145Q24.5605-70.3613 24.5605-66.1621ZM25.293-0.341797Q25.293 2.00195 26.7334 3.39355Q28.1738 4.78516 30.5176 4.78516L71.7285 4.78516Q74.0234 4.78516 75.4639 3.39355Q76.9043 2.00195 76.9043-0.341797L76.9043-31.9824Q76.9043-34.1309 75.5859-35.4004Q74.2676-36.6699 72.168-36.6699L30.0293-36.6699Q27.9297-36.6699 26.6113-35.4004Q25.293-34.1309 25.293-31.9824ZM36.2305-21.2891Q35.5957-21.2891 35.1807-21.7041Q34.7656-22.1191 34.7656-22.7539Q34.7656-23.3398 35.1807-23.7549Q35.5957-24.1699 36.2305-24.1699L66.0156-24.1699Q66.6504-24.1699 67.0898-23.7549Q67.5293-23.3398 67.5293-22.7539Q67.5293-22.1191 67.0898-21.7041Q66.6504-21.2891 66.0156-21.2891ZM36.2305-7.66602Q35.5957-7.66602 35.1807-8.08105Q34.7656-8.49609 34.7656-9.08203Q34.7656-9.7168 35.1807-10.1318Q35.5957-10.5469 36.2305-10.5469L66.0156-10.5469Q66.6504-10.5469 67.0898-10.1318Q67.5293-9.7168 67.5293-9.08203Q67.5293-8.49609 67.0898-8.08105Q66.6504-7.66602 66.0156-7.66602ZM68.7988-50Q68.7988-51.8066 70.166-53.1494Q71.5332-54.4922 73.3887-54.4922Q75.1465-54.4922 76.4893-53.1494Q77.832-51.8066 77.832-50Q77.832-48.1445 76.4893-46.8018Q75.1465-45.459 73.3887-45.5078Q71.5332-45.5566 70.166-46.8262Q68.7988-48.0957 68.7988-50Z"/>
  </g>
  <g id="Ultralight-S" transform="matrix(1 0 0 1 509.272 696)">
   <path d="M18.9941-7.8125L21.5332-7.8125L21.5332-33.0078Q21.5332-36.7188 23.7793-38.9404Q26.0254-41.1621 29.6875-41.1621L71.2402-41.1621Q74.9512-41.1621 77.2217-38.9404Q79.4922-36.7188 79.4922-33.0078L79.4922-7.8125L81.9336-7.8125Q86.4746-7.8125 88.7939-10.083Q91.1133-12.3535 91.1133-16.9922L91.1133-51.8066Q91.1133-56.4453 88.7939-58.7158Q86.4746-60.9863 81.9336-60.9863L18.9941-60.9863Q14.4043-60.9863 12.085-58.7158Q9.76562-56.4453 9.76562-51.8066L9.76562-16.9922Q9.76562-12.3535 12.0605-10.083Q14.3555-7.8125 18.9941-7.8125ZM24.4629-63.5742L76.4648-63.5742L76.4648-65.6738Q76.4648-69.873 74.4141-71.8018Q72.3633-73.7305 68.1641-73.7305L32.666-73.7305Q28.5156-73.7305 26.4893-71.8018Q24.4629-69.873 24.4629-65.6738ZM24.5605-1.02539Q24.5605 1.31836 26.001 2.73438Q27.4414 4.15039 29.7852 4.15039L71.1914 4.15039Q73.5352 4.15039 74.9756 2.73438Q76.416 1.31836 76.416-1.02539L76.416-33.0078Q76.416-35.3516 74.9756-36.7188Q73.5352-38.0859 71.2402-38.0859L29.6875-38.0859Q27.3926-38.0859 25.9766-36.7188Q24.5605-35.3516 24.5605-33.0078ZM34.7168-22.7051Q34.1797-22.7051 33.8867-23.0225Q33.5938-23.3398 33.5938-23.7793Q33.5938-24.2188 33.8867-24.5361Q34.1797-24.8535 34.7168-24.8535L66.3086-24.8535Q66.748-24.8535 67.0898-24.5361Q67.4316-24.2188 67.4316-23.7793Q67.4316-23.3398 67.0898-23.0225Q66.748-22.7051 66.3086-22.7051ZM34.7168-9.13086Q34.1797-9.13086 33.8867-9.44824Q33.5938-9.76562 33.5938-10.2051Q33.5938-10.6445 33.8867-10.9375Q34.1797-11.2305 34.7168-11.2305L66.3086-11.2305Q66.748-11.2305 67.0898-10.9375Q67.4316-10.6445 67.4316-10.2051Q67.4316-9.76562 67.0898-9.44824Q66.748-9.13086 66.3086-9.13086ZM67.8223-50.3906Q67.8223-52.0996 69.1406-53.418Q70.459-54.7363 72.2656-54.7363Q73.9746-54.7363 75.2441-53.418Q76.5137-52.0996 76.5137-50.3906Q76.5137-48.6328 75.2441-47.3145Q73.9746-45.9961 72.2656-46.0449Q70.459-46.1426 69.1406-47.3389Q67.8223-48.5352 67.8223-50.3906Z"/>
  </g>
 </g>
</svg>
