<?xml version="1.0" encoding="UTF-8"?>
<!--Generator: Apple Native CoreSVG 175-->
<!DOCTYPE svg
PUBLIC "-//W3C//DTD SVG 1.1//EN"
       "http://www.w3.org/Graphics/SVG/1.1/DTD/svg11.dtd">
<svg version="1.1" xmlns="http://www.w3.org/2000/svg" xmlns:xlink="http://www.w3.org/1999/xlink" width="3300" height="2200">
 <!--glyph: "uni1008B0.medium", point size: 100.0, font version: "17.0d11e1", template writer version: "65.1"-->
 <style>.hierarchical-0:secondary {fill:#4D4D4D}
.hierarchical-1:primary {fill:#212121}

.SFSymbolsPreview212121 {fill:#212121;opacity:1.0}
.SFSymbolsPreview4D4D4D {fill:#4D4D4D;opacity:1.0}
</style>
 <g id="Notes">
  <rect height="2200" id="artboard" style="fill:white;opacity:1" width="3300" x="0" y="0"/>
  <line style="fill:none;stroke:black;opacity:1;stroke-width:0.5;" x1="263" x2="3036" y1="292" y2="292"/>
  <text style="stroke:none;fill:black;font-family:sans-serif;font-size:13;font-weight:bold;" transform="matrix(1 0 0 1 263 322)">Weight/Scale Variations</text>
  <text style="stroke:none;fill:black;font-family:sans-serif;font-size:13;text-anchor:middle;" transform="matrix(1 0 0 1 559.711 322)">Ultralight</text>
  <text style="stroke:none;fill:black;font-family:sans-serif;font-size:13;text-anchor:middle;" transform="matrix(1 0 0 1 856.422 322)">Thin</text>
  <text style="stroke:none;fill:black;font-family:sans-serif;font-size:13;text-anchor:middle;" transform="matrix(1 0 0 1 1153.13 322)">Light</text>
  <text style="stroke:none;fill:black;font-family:sans-serif;font-size:13;text-anchor:middle;" transform="matrix(1 0 0 1 1449.84 322)">Regular</text>
  <text style="stroke:none;fill:black;font-family:sans-serif;font-size:13;text-anchor:middle;" transform="matrix(1 0 0 1 1746.56 322)">Medium</text>
  <text style="stroke:none;fill:black;font-family:sans-serif;font-size:13;text-anchor:middle;" transform="matrix(1 0 0 1 2043.27 322)">Semibold</text>
  <text style="stroke:none;fill:black;font-family:sans-serif;font-size:13;text-anchor:middle;" transform="matrix(1 0 0 1 2339.98 322)">Bold</text>
  <text style="stroke:none;fill:black;font-family:sans-serif;font-size:13;text-anchor:middle;" transform="matrix(1 0 0 1 2636.69 322)">Heavy</text>
  <text style="stroke:none;fill:black;font-family:sans-serif;font-size:13;text-anchor:middle;" transform="matrix(1 0 0 1 2933.4 322)">Black</text>
  <line style="fill:none;stroke:black;opacity:1;stroke-width:0.5;" x1="263" x2="3036" y1="1903" y2="1903"/>
  <g transform="matrix(1 0 0 1 263 1933)">
   <path d="M9.24805 0.830078Q10.8691 0.830078 12.2949 0.214844Q13.7207-0.400391 14.8096-1.49414Q15.8984-2.58789 16.5186-4.01367Q17.1387-5.43945 17.1387-7.05078Q17.1387-8.66211 16.5186-10.0879Q15.8984-11.5137 14.8047-12.6074Q13.7109-13.7012 12.2852-14.3164Q10.8594-14.9316 9.23828-14.9316Q7.62695-14.9316 6.20117-14.3164Q4.77539-13.7012 3.69141-12.6074Q2.60742-11.5137 1.9873-10.0879Q1.36719-8.66211 1.36719-7.05078Q1.36719-5.43945 1.9873-4.01367Q2.60742-2.58789 3.69629-1.49414Q4.78516-0.400391 6.21094 0.214844Q7.63672 0.830078 9.24805 0.830078ZM9.24805-0.654297Q7.91992-0.654297 6.7627-1.14746Q5.60547-1.64062 4.73145-2.51953Q3.85742-3.39844 3.36426-4.56055Q2.87109-5.72266 2.87109-7.05078Q2.87109-8.37891 3.35938-9.54102Q3.84766-10.7031 4.72168-11.582Q5.5957-12.4609 6.75293-12.9541Q7.91016-13.4473 9.23828-13.4473Q10.5762-13.4473 11.7334-12.9541Q12.8906-12.4609 13.7695-11.582Q14.6484-10.7031 15.1465-9.54102Q15.6445-8.37891 15.6445-7.05078Q15.6445-5.72266 15.1514-4.56055Q14.6582-3.39844 13.7842-2.51953Q12.9102-1.64062 11.748-1.14746Q10.5859-0.654297 9.24805-0.654297ZM5.6543-7.05078Q5.6543-6.72852 5.85938-6.52832Q6.06445-6.32812 6.40625-6.32812L8.51562-6.32812L8.51562-4.20898Q8.51562-3.88672 8.71094-3.67676Q8.90625-3.4668 9.23828-3.4668Q9.56055-3.4668 9.77051-3.67676Q9.98047-3.88672 9.98047-4.20898L9.98047-6.32812L12.0898-6.32812Q12.4219-6.32812 12.627-6.52832Q12.832-6.72852 12.832-7.05078Q12.832-7.38281 12.627-7.58789Q12.4219-7.79297 12.0898-7.79297L9.98047-7.79297L9.98047-9.90234Q9.98047-10.2344 9.77051-10.4443Q9.56055-10.6543 9.23828-10.6543Q8.90625-10.6543 8.71094-10.4443Q8.51562-10.2344 8.51562-9.90234L8.51562-7.79297L6.40625-7.79297Q6.06445-7.79297 5.85938-7.58789Q5.6543-7.38281 5.6543-7.05078Z"/>
  </g>
  <g transform="matrix(1 0 0 1 281.867 1933)">
   <path d="M11.709 2.91016Q13.75 2.91016 15.5518 2.12891Q17.3535 1.34766 18.7305-0.0292969Q20.1074-1.40625 20.8887-3.20801Q21.6699-5.00977 21.6699-7.05078Q21.6699-9.0918 20.8887-10.8936Q20.1074-12.6953 18.7305-14.0723Q17.3535-15.4492 15.5469-16.2305Q13.7402-17.0117 11.6992-17.0117Q9.6582-17.0117 7.85645-16.2305Q6.05469-15.4492 4.68262-14.0723Q3.31055-12.6953 2.5293-10.8936Q1.74805-9.0918 1.74805-7.05078Q1.74805-5.00977 2.5293-3.20801Q3.31055-1.40625 4.6875-0.0292969Q6.06445 1.34766 7.86621 2.12891Q9.66797 2.91016 11.709 2.91016ZM11.709 1.25Q9.98047 1.25 8.47656 0.605469Q6.97266-0.0390625 5.83496-1.17676Q4.69727-2.31445 4.05762-3.81836Q3.41797-5.32227 3.41797-7.05078Q3.41797-8.7793 4.05762-10.2832Q4.69727-11.7871 5.83008-12.9297Q6.96289-14.0723 8.4668-14.7119Q9.9707-15.3516 11.6992-15.3516Q13.4277-15.3516 14.9316-14.7119Q16.4355-14.0723 17.5781-12.9297Q18.7207-11.7871 19.3652-10.2832Q20.0098-8.7793 20.0098-7.05078Q20.0098-5.32227 19.3701-3.81836Q18.7305-2.31445 17.5928-1.17676Q16.4551-0.0390625 14.9463 0.605469Q13.4375 1.25 11.709 1.25ZM7.17773-7.05078Q7.17773-6.69922 7.41211-6.47461Q7.64648-6.25 8.01758-6.25L10.8887-6.25L10.8887-3.36914Q10.8887-2.99805 11.1133-2.76855Q11.3379-2.53906 11.6895-2.53906Q12.0605-2.53906 12.29-2.76855Q12.5195-2.99805 12.5195-3.36914L12.5195-6.25L15.4004-6.25Q15.7715-6.25 16.001-6.47461Q16.2305-6.69922 16.2305-7.05078Q16.2305-7.42188 16.001-7.65137Q15.7715-7.88086 15.4004-7.88086L12.5195-7.88086L12.5195-10.752Q12.5195-11.1328 12.29-11.3623Q12.0605-11.5918 11.6895-11.5918Q11.3379-11.5918 11.1133-11.3574Q10.8887-11.123 10.8887-10.752L10.8887-7.88086L8.01758-7.88086Q7.63672-7.88086 7.40723-7.65137Q7.17773-7.42188 7.17773-7.05078Z"/>
  </g>
  <g transform="matrix(1 0 0 1 305.646 1933)">
   <path d="M14.9707 5.66406Q17.0605 5.66406 18.96 5.01465Q20.8594 4.36523 22.4512 3.19336Q24.043 2.02148 25.2197 0.429688Q26.3965-1.16211 27.0459-3.06641Q27.6953-4.9707 27.6953-7.05078Q27.6953-9.14062 27.0459-11.04Q26.3965-12.9395 25.2197-14.5312Q24.043-16.123 22.4512-17.2998Q20.8594-18.4766 18.9551-19.126Q17.0508-19.7754 14.9609-19.7754Q12.8711-19.7754 10.9717-19.126Q9.07227-18.4766 7.48535-17.2998Q5.89844-16.123 4.72168-14.5312Q3.54492-12.9395 2.90039-11.04Q2.25586-9.14062 2.25586-7.05078Q2.25586-4.9707 2.90527-3.06641Q3.55469-1.16211 4.72656 0.429688Q5.89844 2.02148 7.49023 3.19336Q9.08203 4.36523 10.9814 5.01465Q12.8809 5.66406 14.9707 5.66406ZM14.9707 3.84766Q13.1641 3.84766 11.5283 3.2959Q9.89258 2.74414 8.53516 1.74805Q7.17773 0.751953 6.17676-0.610352Q5.17578-1.97266 4.62891-3.6084Q4.08203-5.24414 4.08203-7.05078Q4.08203-8.86719 4.62891-10.5029Q5.17578-12.1387 6.17188-13.501Q7.16797-14.8633 8.52539-15.8594Q9.88281-16.8555 11.5186-17.4023Q13.1543-17.9492 14.9609-17.9492Q16.7773-17.9492 18.4131-17.4023Q20.0488-16.8555 21.4111-15.8594Q22.7734-14.8633 23.7695-13.501Q24.7656-12.1387 25.3174-10.5029Q25.8691-8.86719 25.8691-7.05078Q25.8789-5.24414 25.332-3.6084Q24.7852-1.97266 23.7842-0.610352Q22.7832 0.751953 21.4209 1.74805Q20.0586 2.74414 18.4229 3.2959Q16.7871 3.84766 14.9707 3.84766ZM9.19922-7.05078Q9.19922-6.66992 9.45801-6.4209Q9.7168-6.17188 10.1172-6.17188L14.0625-6.17188L14.0625-2.2168Q14.0625-1.81641 14.3115-1.55762Q14.5605-1.29883 14.9512-1.29883Q15.3516-1.29883 15.6104-1.55273Q15.8691-1.80664 15.8691-2.2168L15.8691-6.17188L19.8242-6.17188Q20.2246-6.17188 20.4785-6.4209Q20.7324-6.66992 20.7324-7.05078Q20.7324-7.46094 20.4785-7.71484Q20.2246-7.96875 19.8242-7.96875L15.8691-7.96875L15.8691-11.9141Q15.8691-12.3242 15.6104-12.583Q15.3516-12.8418 14.9512-12.8418Q14.5605-12.8418 14.3115-12.583Q14.0625-12.3242 14.0625-11.9141L14.0625-7.96875L10.1172-7.96875Q9.70703-7.96875 9.45312-7.71484Q9.19922-7.46094 9.19922-7.05078Z"/>
  </g>
  <text style="stroke:none;fill:black;font-family:sans-serif;font-size:13;font-weight:bold;" transform="matrix(1 0 0 1 263 1953)">Design Variations</text>
  <text style="stroke:none;fill:black;font-family:sans-serif;font-size:13;" transform="matrix(1 0 0 1 263 1971)">Symbols are supported in up to nine weights and three scales.</text>
  <text style="stroke:none;fill:black;font-family:sans-serif;font-size:13;" transform="matrix(1 0 0 1 263 1989)">For optimal layout with text and other symbols, vertically align</text>
  <text style="stroke:none;fill:black;font-family:sans-serif;font-size:13;" transform="matrix(1 0 0 1 263 2007)">symbols with the adjacent text.</text>
  <line style="fill:none;stroke:#00AEEF;stroke-width:0.5;opacity:1.0;" x1="776" x2="776" y1="1919" y2="1933"/>
  <g transform="matrix(1 0 0 1 776 1933)">
   <path d="M3.31055 0.15625Q3.70117 0.15625 3.91602-0.00976562Q4.13086-0.175781 4.26758-0.585938L5.52734-4.0332L11.2891-4.0332L12.5488-0.585938Q12.6855-0.175781 12.9004-0.00976562Q13.1152 0.15625 13.4961 0.15625Q13.8867 0.15625 14.1162-0.0585938Q14.3457-0.273438 14.3457-0.644531Q14.3457-0.869141 14.2383-1.17188L9.6582-13.3691Q9.48242-13.8184 9.17969-14.043Q8.87695-14.2676 8.4082-14.2676Q7.5-14.2676 7.17773-13.3789L2.59766-1.16211Q2.49023-0.859375 2.49023-0.634766Q2.49023-0.263672 2.70996-0.0537109Q2.92969 0.15625 3.31055 0.15625ZM6.00586-5.51758L8.37891-12.0898L8.42773-12.0898L10.8008-5.51758Z"/>
  </g>
  <line style="fill:none;stroke:#00AEEF;stroke-width:0.5;opacity:1.0;" x1="793.197" x2="793.197" y1="1919" y2="1933"/>
  <text style="stroke:none;fill:black;font-family:sans-serif;font-size:13;font-weight:bold;" transform="matrix(1 0 0 1 776 1953)">Margins</text>
  <text style="stroke:none;fill:black;font-family:sans-serif;font-size:13;" transform="matrix(1 0 0 1 776 1971)">Leading and trailing margins on the left and right side of each symbol</text>
  <text style="stroke:none;fill:black;font-family:sans-serif;font-size:13;" transform="matrix(1 0 0 1 776 1989)">can be adjusted by modifying the x-location of the margin guidelines.</text>
  <text style="stroke:none;fill:black;font-family:sans-serif;font-size:13;" transform="matrix(1 0 0 1 776 2007)">Modifications are automatically applied proportionally to all</text>
  <text style="stroke:none;fill:black;font-family:sans-serif;font-size:13;" transform="matrix(1 0 0 1 776 2025)">scales and weights.</text>
  <g transform="matrix(1 0 0 1 1289 1933)">
   <path d="M2.8418 1.86523L4.54102 3.57422Q5.18555 4.22852 5.90332 4.17969Q6.62109 4.13086 7.31445 3.35938L18.0078-8.42773L17.041-9.4043L6.42578 2.27539Q6.16211 2.57812 5.89355 2.61719Q5.625 2.65625 5.27344 2.30469L4.10156 1.14258Q3.75 0.791016 3.79395 0.522461Q3.83789 0.253906 4.14062-0.0195312L15.6152-10.8203L14.6387-11.7871L3.04688-0.898438Q2.30469-0.214844 2.25098 0.498047Q2.19727 1.21094 2.8418 1.86523ZM9.25781-16.3281Q8.94531-16.0254 8.90625-15.6348Q8.86719-15.2441 9.04297-14.9512Q9.21875-14.6777 9.55566-14.541Q9.89258-14.4043 10.3809-14.5215Q11.4746-14.7754 12.5977-14.7314Q13.7207-14.6875 14.7949-13.9844L14.209-12.5293Q13.9551-11.9043 14.0674-11.4404Q14.1797-10.9766 14.5801-10.5664L16.875-8.25195Q17.2363-7.88086 17.5781-7.82227Q17.9199-7.76367 18.3398-7.8418L19.4043-8.03711L20.0684-7.36328L20.0293-6.80664Q20-6.43555 20.1221-6.12305Q20.2441-5.81055 20.6055-5.44922L21.3672-4.70703Q21.7285-4.3457 22.1533-4.33105Q22.5781-4.31641 22.9297-4.66797L25.8398-7.58789Q26.1914-7.93945 26.1816-8.35449Q26.1719-8.76953 25.8105-9.13086L25.0391-9.89258Q24.6875-10.2539 24.3799-10.3857Q24.0723-10.5176 23.7109-10.4883L23.1348-10.4395L22.4902-11.0742L22.7344-12.1973Q22.832-12.6172 22.6953-12.9834Q22.5586-13.3496 22.1191-13.7891L19.9219-15.9766Q18.6719-17.2168 17.2607-17.8369Q15.8496-18.457 14.4189-18.4814Q12.9883-18.5059 11.665-17.959Q10.3418-17.4121 9.25781-16.3281ZM10.752-15.957Q11.6602-16.6211 12.7002-16.9043Q13.7402-17.1875 14.8047-17.085Q15.8691-16.9824 16.8701-16.5137Q17.8711-16.0449 18.7012-15.2051L21.1328-12.793Q21.3086-12.6172 21.3525-12.4512Q21.3965-12.2852 21.3379-12.0312L21.0156-10.5469L22.5195-9.0625L23.5059-9.12109Q23.6914-9.13086 23.7891-9.09668Q23.8867-9.0625 24.0332-8.91602L24.6094-8.33984L22.168-5.89844L21.5918-6.47461Q21.4453-6.62109 21.4062-6.71875Q21.3672-6.81641 21.377-7.01172L21.4453-7.98828L19.9512-9.47266L18.4277-9.21875Q18.1836-9.16992 18.042-9.2041Q17.9004-9.23828 17.7148-9.41406L15.7129-11.416Q15.5176-11.5918 15.4932-11.7529Q15.4688-11.9141 15.5859-12.1875L16.4648-14.2773Q15.293-15.3711 13.8281-15.791Q12.3633-16.2109 10.8398-15.7617Q10.7227-15.7324 10.6885-15.8057Q10.6543-15.8789 10.752-15.957Z"/>
  </g>
  <text style="stroke:none;fill:black;font-family:sans-serif;font-size:13;font-weight:bold;" transform="matrix(1 0 0 1 1289 1953)">Exporting</text>
  <text style="stroke:none;fill:black;font-family:sans-serif;font-size:13;" transform="matrix(1 0 0 1 1289 1971)">Symbols should be outlined when exporting to ensure the</text>
  <text style="stroke:none;fill:black;font-family:sans-serif;font-size:13;" transform="matrix(1 0 0 1 1289 1989)">design is preserved when submitting to Xcode.</text>
  <text id="template-version" style="stroke:none;fill:black;font-family:sans-serif;font-size:13;text-anchor:end;" transform="matrix(1 0 0 1 3036 1933)">Template v.3.0</text>
  <text style="stroke:none;fill:black;font-family:sans-serif;font-size:13;text-anchor:end;" transform="matrix(1 0 0 1 3036 1951)">Requires Xcode 13 or greater</text>
  <text id="descriptive-name" style="stroke:none;fill:black;font-family:sans-serif;font-size:13;text-anchor:end;" transform="matrix(1 0 0 1 3036 1969)">Generated from camera.metering.unknown</text>
  <text style="stroke:none;fill:black;font-family:sans-serif;font-size:13;text-anchor:end;" transform="matrix(1 0 0 1 3036 1987)">Typeset at 100 points</text>
  <text style="stroke:none;fill:black;font-family:sans-serif;font-size:13;" transform="matrix(1 0 0 1 263 726)">Small</text>
  <text style="stroke:none;fill:black;font-family:sans-serif;font-size:13;" transform="matrix(1 0 0 1 263 1156)">Medium</text>
  <text style="stroke:none;fill:black;font-family:sans-serif;font-size:13;" transform="matrix(1 0 0 1 263 1586)">Large</text>
 </g>
 <g id="Guides">
  <g id="H-reference" style="fill:#27AAE1;stroke:none;" transform="matrix(1 0 0 1 339 696)">
   <path d="M0.976562 0L3.66211 0L29.3457-67.1387L30.0293-67.1387L30.0293-70.459L28.125-70.459ZM11.6699-24.4629L46.9727-24.4629L46.2402-26.709L12.4512-26.709ZM55.127 0L57.7637 0L30.6152-70.459L29.4434-70.459L29.4434-67.1387Z"/>
  </g>
  <line id="Baseline-S" style="fill:none;stroke:#27AAE1;opacity:1;stroke-width:0.5;" x1="263" x2="3036" y1="696" y2="696"/>
  <line id="Capline-S" style="fill:none;stroke:#27AAE1;opacity:1;stroke-width:0.5;" x1="263" x2="3036" y1="625.541" y2="625.541"/>
  <g id="H-reference" style="fill:#27AAE1;stroke:none;" transform="matrix(1 0 0 1 339 1126)">
   <path d="M0.976562 0L3.66211 0L29.3457-67.1387L30.0293-67.1387L30.0293-70.459L28.125-70.459ZM11.6699-24.4629L46.9727-24.4629L46.2402-26.709L12.4512-26.709ZM55.127 0L57.7637 0L30.6152-70.459L29.4434-70.459L29.4434-67.1387Z"/>
  </g>
  <line id="Baseline-M" style="fill:none;stroke:#27AAE1;opacity:1;stroke-width:0.5;" x1="263" x2="3036" y1="1126" y2="1126"/>
  <line id="Capline-M" style="fill:none;stroke:#27AAE1;opacity:1;stroke-width:0.5;" x1="263" x2="3036" y1="1055.54" y2="1055.54"/>
  <g id="H-reference" style="fill:#27AAE1;stroke:none;" transform="matrix(1 0 0 1 339 1556)">
   <path d="M0.976562 0L3.66211 0L29.3457-67.1387L30.0293-67.1387L30.0293-70.459L28.125-70.459ZM11.6699-24.4629L46.9727-24.4629L46.2402-26.709L12.4512-26.709ZM55.127 0L57.7637 0L30.6152-70.459L29.4434-70.459L29.4434-67.1387Z"/>
  </g>
  <line id="Baseline-L" style="fill:none;stroke:#27AAE1;opacity:1;stroke-width:0.5;" x1="263" x2="3036" y1="1556" y2="1556"/>
  <line id="Capline-L" style="fill:none;stroke:#27AAE1;opacity:1;stroke-width:0.5;" x1="263" x2="3036" y1="1485.54" y2="1485.54"/>
  <line id="left-margin-Ultralight-S" style="fill:none;stroke:#00AEEF;stroke-width:0.5;opacity:1.0;" x1="505.707" x2="505.707" y1="600.785" y2="720.121"/>
  <line id="right-margin-Ultralight-S" style="fill:none;stroke:#00AEEF;stroke-width:0.5;opacity:1.0;" x1="613.715" x2="613.715" y1="600.785" y2="720.121"/>
  <line id="left-margin-Thin-S" style="fill:none;stroke:#00AEEF;stroke-width:0.5;opacity:1.0;" x1="802.174" x2="802.174" y1="600.785" y2="720.121"/>
  <line id="right-margin-Thin-S" style="fill:none;stroke:#00AEEF;stroke-width:0.5;opacity:1.0;" x1="910.67" x2="910.67" y1="600.785" y2="720.121"/>
  <line id="left-margin-Light-S" style="fill:none;stroke:#00AEEF;stroke-width:0.5;opacity:1.0;" x1="1098.42" x2="1098.42" y1="600.785" y2="720.121"/>
  <line id="right-margin-Light-S" style="fill:none;stroke:#00AEEF;stroke-width:0.5;opacity:1.0;" x1="1207.85" x2="1207.85" y1="600.785" y2="720.121"/>
  <line id="left-margin-Regular-S" style="fill:none;stroke:#00AEEF;stroke-width:0.5;opacity:1.0;" x1="1394.79" x2="1394.79" y1="600.785" y2="720.121"/>
  <line id="right-margin-Regular-S" style="fill:none;stroke:#00AEEF;stroke-width:0.5;opacity:1.0;" x1="1504.9" x2="1504.9" y1="600.785" y2="720.121"/>
  <line id="left-margin-Medium-S" style="fill:none;stroke:#00AEEF;stroke-width:0.5;opacity:1.0;" x1="1691.33" x2="1691.33" y1="600.785" y2="720.121"/>
  <line id="right-margin-Medium-S" style="fill:none;stroke:#00AEEF;stroke-width:0.5;opacity:1.0;" x1="1801.78" x2="1801.78" y1="600.785" y2="720.121"/>
  <line id="left-margin-Semibold-S" style="fill:none;stroke:#00AEEF;stroke-width:0.5;opacity:1.0;" x1="1987.9" x2="1987.9" y1="600.785" y2="720.121"/>
  <line id="right-margin-Semibold-S" style="fill:none;stroke:#00AEEF;stroke-width:0.5;opacity:1.0;" x1="2098.64" x2="2098.64" y1="600.785" y2="720.121"/>
  <line id="left-margin-Bold-S" style="fill:none;stroke:#00AEEF;stroke-width:0.5;opacity:1.0;" x1="2284.41" x2="2284.41" y1="600.785" y2="720.121"/>
  <line id="right-margin-Bold-S" style="fill:none;stroke:#00AEEF;stroke-width:0.5;opacity:1.0;" x1="2395.54" x2="2395.54" y1="600.785" y2="720.121"/>
  <line id="left-margin-Heavy-S" style="fill:none;stroke:#00AEEF;stroke-width:0.5;opacity:1.0;" x1="2580.88" x2="2580.88" y1="600.785" y2="720.121"/>
  <line id="right-margin-Heavy-S" style="fill:none;stroke:#00AEEF;stroke-width:0.5;opacity:1.0;" x1="2692.5" x2="2692.5" y1="600.785" y2="720.121"/>
  <line id="left-margin-Black-S" style="fill:none;stroke:#00AEEF;stroke-width:0.5;opacity:1.0;" x1="2877.35" x2="2877.35" y1="600.785" y2="720.121"/>
  <line id="right-margin-Black-S" style="fill:none;stroke:#00AEEF;stroke-width:0.5;opacity:1.0;" x1="2989.45" x2="2989.45" y1="600.785" y2="720.121"/>
  <line id="left-margin-Ultralight-M" style="fill:none;stroke:#00AEEF;stroke-width:0.5;opacity:1.0;" x1="490.863" x2="490.863" y1="1030.79" y2="1150.12"/>
  <line id="right-margin-Ultralight-M" style="fill:none;stroke:#00AEEF;stroke-width:0.5;opacity:1.0;" x1="628.559" x2="628.559" y1="1030.79" y2="1150.12"/>
  <line id="left-margin-Thin-M" style="fill:none;stroke:#00AEEF;stroke-width:0.5;opacity:1.0;" x1="787.306" x2="787.306" y1="1030.79" y2="1150.12"/>
  <line id="right-margin-Thin-M" style="fill:none;stroke:#00AEEF;stroke-width:0.5;opacity:1.0;" x1="925.538" x2="925.538" y1="1030.79" y2="1150.12"/>
  <line id="left-margin-Light-M" style="fill:none;stroke:#00AEEF;stroke-width:0.5;opacity:1.0;" x1="1083.5" x2="1083.5" y1="1030.79" y2="1150.12"/>
  <line id="right-margin-Light-M" style="fill:none;stroke:#00AEEF;stroke-width:0.5;opacity:1.0;" x1="1222.76" x2="1222.76" y1="1030.79" y2="1150.12"/>
  <line id="left-margin-Regular-M" style="fill:none;stroke:#00AEEF;stroke-width:0.5;opacity:1.0;" x1="1379.82" x2="1379.82" y1="1030.79" y2="1150.12"/>
  <line id="right-margin-Regular-M" style="fill:none;stroke:#00AEEF;stroke-width:0.5;opacity:1.0;" x1="1519.86" x2="1519.86" y1="1030.79" y2="1150.12"/>
  <line id="left-margin-Medium-M" style="fill:none;stroke:#00AEEF;stroke-width:0.5;opacity:1.0;" x1="1676.29" x2="1676.29" y1="1030.79" y2="1150.12"/>
  <line id="right-margin-Medium-M" style="fill:none;stroke:#00AEEF;stroke-width:0.5;opacity:1.0;" x1="1816.82" x2="1816.82" y1="1030.79" y2="1150.12"/>
  <line id="left-margin-Semibold-M" style="fill:none;stroke:#00AEEF;stroke-width:0.5;opacity:1.0;" x1="1972.81" x2="1972.81" y1="1030.79" y2="1150.12"/>
  <line id="right-margin-Semibold-M" style="fill:none;stroke:#00AEEF;stroke-width:0.5;opacity:1.0;" x1="2113.73" x2="2113.73" y1="1030.79" y2="1150.12"/>
  <line id="left-margin-Bold-M" style="fill:none;stroke:#00AEEF;stroke-width:0.5;opacity:1.0;" x1="2269.25" x2="2269.25" y1="1030.79" y2="1150.12"/>
  <line id="right-margin-Bold-M" style="fill:none;stroke:#00AEEF;stroke-width:0.5;opacity:1.0;" x1="2410.71" x2="2410.71" y1="1030.79" y2="1150.12"/>
  <line id="left-margin-Heavy-M" style="fill:none;stroke:#00AEEF;stroke-width:0.5;opacity:1.0;" x1="2565.6" x2="2565.6" y1="1030.79" y2="1150.12"/>
  <line id="right-margin-Heavy-M" style="fill:none;stroke:#00AEEF;stroke-width:0.5;opacity:1.0;" x1="2707.78" x2="2707.78" y1="1030.79" y2="1150.12"/>
  <line id="left-margin-Black-M" style="fill:none;stroke:#00AEEF;stroke-width:0.5;opacity:1.0;" x1="2861.96" x2="2861.96" y1="1030.79" y2="1150.12"/>
  <line id="right-margin-Black-M" style="fill:none;stroke:#00AEEF;stroke-width:0.5;opacity:1.0;" x1="3004.84" x2="3004.84" y1="1030.79" y2="1150.12"/>
  <line id="left-margin-Ultralight-L" style="fill:none;stroke:#00AEEF;stroke-width:0.5;opacity:1.0;" x1="471.015" x2="471.015" y1="1460.79" y2="1580.12"/>
  <line id="right-margin-Ultralight-L" style="fill:none;stroke:#00AEEF;stroke-width:0.5;opacity:1.0;" x1="648.407" x2="648.407" y1="1460.79" y2="1580.12"/>
  <line id="left-margin-Thin-L" style="fill:none;stroke:#00AEEF;stroke-width:0.5;opacity:1.0;" x1="767.409" x2="767.409" y1="1460.79" y2="1580.12"/>
  <line id="right-margin-Thin-L" style="fill:none;stroke:#00AEEF;stroke-width:0.5;opacity:1.0;" x1="945.436" x2="945.436" y1="1460.79" y2="1580.12"/>
  <line id="left-margin-Light-L" style="fill:none;stroke:#00AEEF;stroke-width:0.5;opacity:1.0;" x1="1063.53" x2="1063.53" y1="1460.79" y2="1580.12"/>
  <line id="right-margin-Light-L" style="fill:none;stroke:#00AEEF;stroke-width:0.5;opacity:1.0;" x1="1242.73" x2="1242.73" y1="1460.79" y2="1580.12"/>
  <line id="left-margin-Regular-L" style="fill:none;stroke:#00AEEF;stroke-width:0.5;opacity:1.0;" x1="1359.81" x2="1359.81" y1="1460.79" y2="1580.12"/>
  <line id="right-margin-Regular-L" style="fill:none;stroke:#00AEEF;stroke-width:0.5;opacity:1.0;" x1="1539.88" x2="1539.88" y1="1460.79" y2="1580.12"/>
  <line id="left-margin-Medium-L" style="fill:none;stroke:#00AEEF;stroke-width:0.5;opacity:1.0;" x1="1656.17" x2="1656.17" y1="1460.79" y2="1580.12"/>
  <line id="right-margin-Medium-L" style="fill:none;stroke:#00AEEF;stroke-width:0.5;opacity:1.0;" x1="1836.94" x2="1836.94" y1="1460.79" y2="1580.12"/>
  <line id="left-margin-Semibold-L" style="fill:none;stroke:#00AEEF;stroke-width:0.5;opacity:1.0;" x1="1952.64" x2="1952.64" y1="1460.79" y2="1580.12"/>
  <line id="right-margin-Semibold-L" style="fill:none;stroke:#00AEEF;stroke-width:0.5;opacity:1.0;" x1="2133.89" x2="2133.89" y1="1460.79" y2="1580.12"/>
  <line id="left-margin-Bold-L" style="fill:none;stroke:#00AEEF;stroke-width:0.5;opacity:1.0;" x1="2249.01" x2="2249.01" y1="1460.79" y2="1580.12"/>
  <line id="right-margin-Bold-L" style="fill:none;stroke:#00AEEF;stroke-width:0.5;opacity:1.0;" x1="2430.94" x2="2430.94" y1="1460.79" y2="1580.12"/>
  <line id="left-margin-Heavy-L" style="fill:none;stroke:#00AEEF;stroke-width:0.5;opacity:1.0;" x1="2545.23" x2="2545.23" y1="1460.79" y2="1580.12"/>
  <line id="right-margin-Heavy-L" style="fill:none;stroke:#00AEEF;stroke-width:0.5;opacity:1.0;" x1="2728.14" x2="2728.14" y1="1460.79" y2="1580.12"/>
  <line id="left-margin-Black-L" style="fill:none;stroke:#00AEEF;stroke-width:0.5;opacity:1.0;" x1="2841.51" x2="2841.51" y1="1460.79" y2="1580.12"/>
  <line id="right-margin-Black-L" style="fill:none;stroke:#00AEEF;stroke-width:0.5;opacity:1.0;" x1="3025.29" x2="3025.29" y1="1460.79" y2="1580.12"/>
 </g>
 <g id="Symbols">
  <g id="Black-L" transform="matrix(1 0 0 1 2841.51 1556)">
   <path class="hierarchical-0:secondary SFSymbolsPreview4D4D4D" d="M16.0645-40.8691L36.3281-40.8691L36.3281-70.2148Q36.3281-73.6328 37.9395-75.1465Q39.5508-76.6602 42.6758-76.6602L86.1816-76.6602L86.1816-96.875L39.9902-96.875Q28.5645-96.875 22.3145-90.6738Q16.0645-84.4727 16.0645-73.0957ZM39.9902 26.5137L86.1816 26.5137L86.1816 6.29883L42.6758 6.29883Q39.5508 6.29883 37.9395 4.78516Q36.3281 3.27148 36.3281-0.146484L36.3281-29.4922L16.0645-29.4922L16.0645 2.68555Q16.0645 14.1113 22.3145 20.3125Q28.5645 26.5137 39.9902 26.5137ZM147.461-40.8691L167.725-40.8691L167.725-73.0957Q167.725-84.4727 161.475-90.6738Q155.225-96.875 143.799-96.875L97.6074-96.875L97.6074-76.6602L141.064-76.6602Q144.238-76.6602 145.85-75.1465Q147.461-73.6328 147.461-70.2148ZM97.6074 26.5137L143.799 26.5137Q155.225 26.5137 161.475 20.3125Q167.725 14.1113 167.725 2.68555L167.725-29.4922L147.461-29.4922L147.461-0.146484Q147.461 3.27148 145.85 4.78516Q144.238 6.29883 141.064 6.29883L97.6074 6.29883Z"/>
   <path class="hierarchical-1:primary SFSymbolsPreview212121" d="M90.1855-24.2188Q93.6035-24.2188 95.8984-25.6836Q98.1934-27.1484 98.7305-29.3457Q98.7793-29.4922 98.8037-29.6875Q98.8281-29.8828 98.877-29.9805Q99.4629-31.7383 101.343-33.252Q103.223-34.7656 105.518-36.1816Q110.498-39.2578 112.793-42.3584Q115.088-45.459 115.088-50.4395Q115.088-55.8105 112.061-59.8145Q109.033-63.8184 103.857-66.0645Q98.6816-68.3105 92.2852-68.3105Q86.9141-68.3105 82.5439-66.9922Q78.1738-65.6738 75.1221-63.3301Q72.0703-60.9863 70.7031-57.9102Q70.2637-56.9336 70.0439-55.9814Q69.8242-55.0293 69.8242-53.9551Q69.8242-51.0742 71.8262-49.0234Q73.8281-46.9727 77.002-46.9727Q79.1504-46.9727 80.835-47.7051Q82.5195-48.4375 83.7402-50L84.3262-50.6836Q85.3027-51.9531 86.2793-52.6367Q87.2559-53.3203 88.2568-53.5889Q89.2578-53.8574 90.332-53.8574Q92.4805-53.8574 93.9941-52.5146Q95.5078-51.1719 95.5078-49.3652Q95.5078-47.0703 93.5791-45.5566Q91.6504-44.043 88.1348-41.6016Q84.8633-39.3555 82.8613-37.0117Q80.8594-34.668 80.8594-31.4941Q80.8594-31.4453 80.8594-31.3965Q80.8594-31.3477 80.8594-31.2988Q80.8594-24.2188 90.1855-24.2188ZM90.1855-3.07617Q94.2383-3.07617 96.9238-5.29785Q99.6094-7.51953 99.6094-11.377Q99.6094-15.1855 96.9482-17.4316Q94.2871-19.6777 90.1855-19.6777Q86.084-19.6777 83.374-17.4561Q80.6641-15.2344 80.6641-11.377Q80.6641-7.51953 83.3984-5.29785Q86.1328-3.07617 90.1855-3.07617Z"/>
  </g>
  <g id="Heavy-L" transform="matrix(1 0 0 1 2545.23 1556)">
   <path class="hierarchical-0:secondary SFSymbolsPreview4D4D4D" d="M16.0645-40.4785L33.5938-40.4785L33.5938-70.9473Q33.5938-74.8047 35.4492-76.5869Q37.3047-78.3691 40.918-78.3691L86.1816-78.3691L86.1816-95.8496L38.8184-95.8496Q27.8809-95.8496 21.9727-90.0146Q16.0645-84.1797 16.0645-73.2422ZM38.8184 25.4883L86.1816 25.4883L86.1816 8.00781L40.918 8.00781Q37.3047 8.00781 35.4492 6.22559Q33.5938 4.44336 33.5938 0.585938L33.5938-29.9316L16.0645-29.9316L16.0645 2.83203Q16.0645 13.7695 21.9727 19.6289Q27.8809 25.4883 38.8184 25.4883ZM149.316-40.4785L166.846-40.4785L166.846-73.2422Q166.846-84.1309 160.938-89.9902Q155.029-95.8496 144.092-95.8496L96.7773-95.8496L96.7773-78.3691L141.943-78.3691Q145.557-78.3691 147.437-76.5869Q149.316-74.8047 149.316-70.9473ZM96.7773 25.4883L144.092 25.4883Q155.029 25.4883 160.938 19.6289Q166.846 13.7695 166.846 2.83203L166.846-29.9316L149.316-29.9316L149.316 0.585938Q149.316 4.44336 147.437 6.22559Q145.557 8.00781 141.943 8.00781L96.7773 8.00781Z"/>
   <path class="hierarchical-1:primary SFSymbolsPreview212121" d="M89.8926-23.7793Q92.9688-23.7793 94.9951-25.1709Q97.0215-26.5625 97.4609-28.6133Q97.4609-28.8086 97.4854-29.0283Q97.5098-29.248 97.5586-29.3457Q97.998-31.3477 99.8047-32.959Q101.611-34.5703 104.199-36.2305Q109.082-39.3066 111.475-42.4316Q113.867-45.5566 113.867-50.6348Q113.867-55.9082 110.938-59.7656Q108.008-63.623 103.027-65.7715Q98.0469-67.9199 91.9434-67.9199Q86.5723-67.9199 82.2998-66.5527Q78.0273-65.1855 75.0977-62.793Q72.168-60.4004 70.9473-57.3242Q70.5566-56.3965 70.3613-55.5176Q70.166-54.6387 70.166-53.6133Q70.166-50.9766 71.9727-49.1699Q73.7793-47.3633 76.5625-47.3633Q78.5156-47.3633 80.0293-48.0957Q81.543-48.8281 82.6172-50.2441L83.3008-51.0742Q84.2285-52.5391 85.3516-53.4424Q86.4746-54.3457 87.7197-54.7363Q88.9648-55.127 90.332-55.127Q93.1152-55.127 94.9219-53.5645Q96.7285-52.002 96.7285-49.707Q96.7285-47.2168 94.7754-45.5322Q92.8223-43.8477 89.1602-41.3086Q85.791-39.0137 83.7646-36.5479Q81.7383-34.082 81.7383-30.6152Q81.7383-30.5176 81.7383-30.4199Q81.7383-30.3223 81.7383-30.2246Q81.7383-23.7793 89.8926-23.7793ZM89.8926-3.32031Q93.5547-3.32031 96.0449-5.41992Q98.5352-7.51953 98.5352-11.084Q98.5352-14.5508 96.0693-16.6992Q93.6035-18.8477 89.8926-18.8477Q86.1328-18.8477 83.6426-16.7236Q81.1523-14.5996 81.1523-11.084Q81.1523-7.51953 83.667-5.41992Q86.1816-3.32031 89.8926-3.32031Z"/>
  </g>
  <g id="Bold-L" transform="matrix(1 0 0 1 2249.01 1556)">
   <path class="hierarchical-0:secondary SFSymbolsPreview4D4D4D" d="M16.0645-39.9902L30.5176-39.9902L30.5176-71.7773Q30.5176-76.123 32.6904-78.2227Q34.8633-80.3223 38.9648-80.3223L86.2305-80.3223L86.2305-94.7754L37.5488-94.7754Q27.0996-94.7754 21.582-89.3066Q16.0645-83.8379 16.0645-73.4375ZM37.5488 24.3652L86.2305 24.3652L86.2305 9.91211L38.9648 9.91211Q34.8633 9.91211 32.6904 7.8125Q30.5176 5.71289 30.5176 1.36719L30.5176-30.4199L16.0645-30.4199L16.0645 3.02734Q16.0645 13.4277 21.582 18.8965Q27.0996 24.3652 37.5488 24.3652ZM151.416-39.9902L165.869-39.9902L165.869-73.4375Q165.869-83.7891 160.352-89.2822Q154.834-94.7754 144.385-94.7754L95.8008-94.7754L95.8008-80.3223L142.969-80.3223Q147.07-80.3223 149.243-78.2227Q151.416-76.123 151.416-71.7773ZM95.8008 24.3652L144.385 24.3652Q154.834 24.3652 160.352 18.8965Q165.869 13.4277 165.869 3.02734L165.869-30.4199L151.416-30.4199L151.416 1.36719Q151.416 5.71289 149.243 7.8125Q147.07 9.91211 142.969 9.91211L95.8008 9.91211Z"/>
   <path class="hierarchical-1:primary SFSymbolsPreview212121" d="M89.5508-23.291Q92.2852-23.291 94.0186-24.585Q95.752-25.8789 95.9961-27.832Q96.0449-28.0273 96.0449-28.2715Q96.0449-28.5156 96.0938-28.6621Q96.3867-30.9082 98.0957-32.666Q99.8047-34.4238 102.686-36.2793Q107.52-39.3555 110.034-42.5293Q112.549-45.7031 112.549-50.8789Q112.549-56.0059 109.717-59.7412Q106.885-63.4766 102.1-65.5029Q97.3145-67.5293 91.5039-67.5293Q86.1816-67.5293 82.0068-66.0889Q77.832-64.6484 75.0732-62.1826Q72.3145-59.7168 71.2402-56.6895Q70.8984-55.8594 70.752-55.0293Q70.6055-54.1992 70.6055-53.2715Q70.6055-50.8789 72.1924-49.3652Q73.7793-47.8516 76.0254-47.8516Q77.832-47.8516 79.1504-48.5352Q80.4688-49.2188 81.3965-50.5371L82.1777-51.5625Q83.0566-53.2227 84.3018-54.3457Q85.5469-55.4688 87.0605-56.0303Q88.5742-56.5918 90.3809-56.5918Q93.7988-56.5918 95.9229-54.7363Q98.0469-52.8809 98.0469-50.0977Q98.0469-47.3633 96.0938-45.5322Q94.1406-43.7012 90.2832-40.9668Q86.8652-38.623 84.8145-36.0596Q82.7637-33.4961 82.7637-29.6875Q82.7637-29.4922 82.7637-29.3213Q82.7637-29.1504 82.7637-29.0039Q82.7637-23.291 89.5508-23.291ZM89.502-3.56445Q92.7734-3.56445 95.0439-5.56641Q97.3145-7.56836 97.3145-10.7422Q97.3145-13.916 95.0684-15.8936Q92.8223-17.8711 89.502-17.8711Q86.1816-17.8711 83.9111-15.8936Q81.6406-13.916 81.6406-10.7422Q81.6406-7.56836 83.9355-5.56641Q86.2305-3.56445 89.502-3.56445Z"/>
  </g>
  <g id="Semibold-L" transform="matrix(1 0 0 1 1952.64 1556)">
   <path class="hierarchical-0:secondary SFSymbolsPreview4D4D4D" d="M16.0645-39.6484L28.418-39.6484L28.418-72.3633Q28.418-77.0508 30.7617-79.3457Q33.1055-81.6406 37.5977-81.6406L86.2305-81.6406L86.2305-93.9941L36.6211-93.9941Q26.5625-93.9941 21.3135-88.7939Q16.0645-83.5938 16.0645-73.584ZM36.6211 23.5352L86.2305 23.5352L86.2305 11.2305L37.5977 11.2305Q33.1055 11.2305 30.7617 8.91113Q28.418 6.5918 28.418 1.9043L28.418-30.7617L16.0645-30.7617L16.0645 3.17383Q16.0645 13.1836 21.3135 18.3594Q26.5625 23.5352 36.6211 23.5352ZM152.832-39.6484L165.186-39.6484L165.186-73.584Q165.186-83.5449 159.937-88.7695Q154.688-93.9941 144.58-93.9941L95.166-93.9941L95.166-81.6406L143.652-81.6406Q148.047-81.6406 150.439-79.3457Q152.832-77.0508 152.832-72.3633ZM95.166 23.5352L144.58 23.5352Q154.688 23.5352 159.937 18.335Q165.186 13.1348 165.186 3.17383L165.186-30.7617L152.832-30.7617L152.832 1.9043Q152.832 6.5918 150.439 8.91113Q148.047 11.2305 143.652 11.2305L95.166 11.2305Z"/>
   <path class="hierarchical-1:primary SFSymbolsPreview212121" d="M89.3066-22.9492Q91.7969-22.9492 93.3105-24.1943Q94.8242-25.4395 94.9707-27.2461Q95.0195-27.4414 95.0195-27.71Q95.0195-27.9785 95.0195-28.1738Q95.2148-30.6152 96.875-32.4463Q98.5352-34.2773 101.611-36.2793Q106.396-39.3555 108.984-42.5781Q111.572-45.8008 111.572-51.0254Q111.572-56.0547 108.813-59.6924Q106.055-63.3301 101.416-65.2588Q96.7773-67.1875 91.2109-67.1875Q85.8887-67.1875 81.7871-65.7227Q77.6855-64.2578 75.0244-61.7676Q72.3633-59.2773 71.4355-56.25Q71.0938-55.4199 70.9717-54.6387Q70.8496-53.8574 70.8496-52.9785Q70.8496-50.8301 72.29-49.5117Q73.7305-48.1934 75.6348-48.1934Q77.3438-48.1934 78.5156-48.8525Q79.6875-49.5117 80.5176-50.7324L81.3477-51.8555Q82.2266-53.6621 83.5693-54.9316Q84.9121-56.2012 86.6211-56.8848Q88.3301-57.5684 90.332-57.5684Q94.2383-57.5684 96.6064-55.542Q98.9746-53.5156 98.9746-50.3418Q98.9746-47.4609 96.9971-45.5078Q95.0195-43.5547 91.0156-40.7227Q87.5977-38.3789 85.498-35.7178Q83.3984-33.0566 83.3984-29.0039Q83.3984-28.7598 83.3984-28.5645Q83.3984-28.3691 83.3984-28.125Q83.3984-22.9492 89.3066-22.9492ZM89.2578-3.75977Q92.2363-3.75977 94.3604-5.66406Q96.4844-7.56836 96.4844-10.498Q96.4844-13.4277 94.3848-15.332Q92.2852-17.2363 89.2578-17.2363Q86.1816-17.2363 84.082-15.3076Q81.9824-13.3789 81.9824-10.498Q81.9824-7.56836 84.1064-5.66406Q86.2305-3.75977 89.2578-3.75977Z"/>
  </g>
  <g id="Medium-L" transform="matrix(1 0 0 1 1656.17 1556)">
   <path class="hierarchical-0:secondary SFSymbolsPreview4D4D4D" d="M16.0645-39.4043L26.8066-39.4043L26.8066-72.7539Q26.8066-77.7344 29.3213-80.2002Q31.8359-82.666 36.5723-82.666L86.2305-82.666L86.2305-93.4082L35.9375-93.4082Q26.1719-93.4082 21.1182-88.4033Q16.0645-83.3984 16.0645-73.6328ZM35.9375 22.9492L86.2305 22.9492L86.2305 12.207L36.5723 12.207Q31.8359 12.207 29.3213 9.74121Q26.8066 7.27539 26.8066 2.34375L26.8066-31.0059L16.0645-31.0059L16.0645 3.22266Q16.0645 12.9883 21.1182 17.9688Q26.1719 22.9492 35.9375 22.9492ZM153.906-39.4043L164.697-39.4043L164.697-73.6328Q164.697-83.3496 159.644-88.3789Q154.59-93.4082 144.775-93.4082L94.6289-93.4082L94.6289-82.666L144.141-82.666Q148.828-82.666 151.367-80.2002Q153.906-77.7344 153.906-72.7539ZM94.6289 22.9492L144.775 22.9492Q154.59 22.9492 159.644 17.9443Q164.697 12.9395 164.697 3.22266L164.697-31.0059L153.906-31.0059L153.906 2.34375Q153.906 7.27539 151.367 9.74121Q148.828 12.207 144.141 12.207L94.6289 12.207Z"/>
   <path class="hierarchical-1:primary SFSymbolsPreview212121" d="M89.1602-22.7051Q91.4551-22.7051 92.7979-23.877Q94.1406-25.0488 94.2383-26.8066Q94.2871-27.0508 94.2871-27.3193Q94.2871-27.5879 94.2871-27.832Q94.3848-30.3711 95.9961-32.2754Q97.6074-34.1797 100.83-36.2793Q105.566-39.3555 108.228-42.6025Q110.889-45.8496 110.889-51.123Q110.889-56.1035 108.179-59.668Q105.469-63.2324 100.952-65.1123Q96.4355-66.9922 91.0156-66.9922Q85.7422-66.9922 81.6895-65.4785Q77.6367-63.9648 75.0488-61.4258Q72.4609-58.8867 71.582-55.9082Q71.3379-55.127 71.2158-54.3701Q71.0938-53.6133 71.0938-52.7832Q71.0938-50.7324 72.4121-49.585Q73.7305-48.4375 75.3906-48.4375Q77.002-48.4375 78.0762-49.0723Q79.1504-49.707 79.9316-50.8789L80.7617-52.0996Q81.6406-54.0039 83.0566-55.3955Q84.4727-56.7871 86.3037-57.5684Q88.1348-58.3496 90.3809-58.3496Q94.6289-58.3496 97.168-56.1523Q99.707-53.9551 99.707-50.5859Q99.707-47.5098 97.7295-45.4834Q95.752-43.457 91.6504-40.5762Q88.1836-38.1348 86.0596-35.4248Q83.9355-32.7148 83.9355-28.4668Q83.9355-28.2227 83.9355-27.9785Q83.9355-27.7344 83.9355-27.4902Q83.9355-22.7051 89.1602-22.7051ZM89.0625-3.85742Q91.8457-3.85742 93.8477-5.71289Q95.8496-7.56836 95.8496-10.3027Q95.8496-13.0859 93.8721-14.8926Q91.8945-16.6992 89.0625-16.6992Q86.2793-16.6992 84.2773-14.8682Q82.2754-13.0371 82.2754-10.3027Q82.2754-7.61719 84.2773-5.7373Q86.2793-3.85742 89.0625-3.85742Z"/>
  </g>
  <g id="Regular-L" transform="matrix(1 0 0 1 1359.81 1556)">
   <path class="hierarchical-0:secondary SFSymbolsPreview4D4D4D" d="M16.0645-39.1113L24.707-39.1113L24.707-73.3398Q24.707-78.6133 27.417-81.2988Q30.127-83.9844 35.2539-83.9844L86.2305-83.9844L86.2305-92.627L35.0586-92.627Q25.6348-92.627 20.8496-87.8906Q16.0645-83.1543 16.0645-73.7793ZM35.0586 22.168L86.2305 22.168L86.2305 13.5254L35.2539 13.5254Q30.127 13.5254 27.417 10.8398Q24.707 8.1543 24.707 2.88086L24.707-31.3477L16.0645-31.3477L16.0645 3.36914Q16.0645 12.7441 20.8496 17.4561Q25.6348 22.168 35.0586 22.168ZM155.322-39.1113L164.014-39.1113L164.014-73.7793Q164.014-83.1055 159.229-87.8662Q154.443-92.627 144.971-92.627L93.9941-92.627L93.9941-83.9844L144.824-83.9844Q149.854-83.9844 152.588-81.2988Q155.322-78.6133 155.322-73.3398ZM93.9941 22.168L144.971 22.168Q154.443 22.168 159.229 17.4316Q164.014 12.6953 164.014 3.36914L164.014-31.3477L155.322-31.3477L155.322 2.88086Q155.322 8.1543 152.588 10.8398Q149.854 13.5254 144.824 13.5254L93.9941 13.5254Z"/>
   <path class="hierarchical-1:primary SFSymbolsPreview212121" d="M88.916-22.3633Q90.9668-22.3633 92.1143-23.4863Q93.2617-24.6094 93.2617-26.2695Q93.2617-26.5137 93.2617-26.8066Q93.2617-27.0996 93.2617-27.3438Q93.2617-30.0781 94.8242-32.0557Q96.3867-34.0332 99.8047-36.3281Q104.492-39.4043 107.227-42.6758Q109.961-45.9473 109.961-51.2695Q109.961-56.1523 107.324-59.6191Q104.688-63.0859 100.317-64.8926Q95.9473-66.6992 90.7227-66.6992Q85.4492-66.6992 81.4697-65.1367Q77.4902-63.5742 75-61.0107Q72.5098-58.4473 71.7773-55.4688Q71.5332-54.7363 71.4355-54.0283Q71.3379-53.3203 71.3379-52.5391Q71.3379-50.6836 72.5098-49.707Q73.6816-48.7305 75.0488-48.7305Q76.5137-48.7305 77.4658-49.3652Q78.418-50 79.0527-51.0742L79.9805-52.3926Q80.8105-54.4434 82.3242-56.0059Q83.8379-57.5684 85.8643-58.4473Q87.8906-59.3262 90.3809-59.3262Q95.0684-59.3262 97.8271-56.958Q100.586-54.5898 100.586-50.8301Q100.586-47.6074 98.6084-45.459Q96.6309-43.3105 92.3828-40.332Q88.8672-37.8906 86.7432-35.083Q84.6191-32.2754 84.6191-27.832Q84.6191-27.5391 84.6191-27.2461Q84.6191-26.9531 84.6191-26.6602Q84.6191-22.3633 88.916-22.3633ZM88.8184-4.05273Q91.3086-4.05273 93.1641-5.81055Q95.0195-7.56836 95.0195-10.0586Q95.0195-12.5977 93.1885-14.3311Q91.3574-16.0645 88.8184-16.0645Q86.2793-16.0645 84.4482-14.3066Q82.6172-12.5488 82.6172-10.0586Q82.6172-7.61719 84.4482-5.83496Q86.2793-4.05273 88.8184-4.05273Z"/>
  </g>
  <g id="Light-L" transform="matrix(1 0 0 1 1063.53 1556)">
   <path class="hierarchical-0:secondary SFSymbolsPreview4D4D4D" d="M16.0645-38.5742L22.6562-38.5742L22.6562-73.584Q22.6562-79.3457 25.6104-82.2754Q28.5645-85.2051 34.2285-85.2051L86.3281-85.2051L86.3281-91.7969L34.0332-91.7969Q25.1465-91.7969 20.6055-87.2803Q16.0645-82.7637 16.0645-73.9258ZM34.0332 21.3379L86.3281 21.3379L86.3281 14.6973L34.2285 14.6973Q28.5645 14.6973 25.6104 11.7676Q22.6562 8.83789 22.6562 3.125L22.6562-31.8848L16.0645-31.8848L16.0645 3.4668Q16.0645 12.3047 20.6055 16.8213Q25.1465 21.3379 34.0332 21.3379ZM156.494-38.5742L163.135-38.5742L163.135-73.9258Q163.135-82.7148 158.594-87.2559Q154.053-91.7969 145.117-91.7969L93.0176-91.7969L93.0176-85.2051L144.971-85.2051Q150.488-85.2051 153.491-82.2754Q156.494-79.3457 156.494-73.584ZM93.0176 21.3379L145.117 21.3379Q154.053 21.3379 158.594 16.7969Q163.135 12.2559 163.135 3.4668L163.135-31.8848L156.494-31.8848L156.494 3.125Q156.494 8.83789 153.491 11.7676Q150.488 14.6973 144.971 14.6973L93.0176 14.6973Z"/>
   <path class="hierarchical-1:primary SFSymbolsPreview212121" d="M88.5254-22.5098Q90.0879-22.5098 90.9668-23.4131Q91.8457-24.3164 91.8457-25.6348Q91.8457-26.0254 91.8457-26.416Q91.8457-26.8066 91.8457-27.1973Q91.8457-30.0293 93.3838-32.0801Q94.9219-34.1309 98.5352-36.5723Q103.32-39.7461 105.786-42.9688Q108.252-46.1914 108.252-51.123Q108.252-55.5664 105.835-58.8379Q103.418-62.1094 99.292-63.8916Q95.166-65.6738 90.1367-65.6738Q85.0586-65.6738 81.2256-64.0381Q77.3926-62.4023 75.0732-59.7168Q72.7539-57.0312 72.1191-53.9062Q71.9727-53.2715 71.8994-52.6367Q71.8262-52.002 71.8262-51.2695Q71.8262-49.8047 72.7295-49.0234Q73.6328-48.2422 74.7559-48.2422Q75.9277-48.2422 76.709-48.7793Q77.4902-49.3164 77.8809-50.293L78.4668-51.3672Q79.0039-53.7109 80.5664-55.6152Q82.1289-57.5195 84.4971-58.6914Q86.8652-59.8633 89.8438-59.8633Q95.0195-59.8633 98.0469-57.2998Q101.074-54.7363 101.074-50.7324Q101.074-47.5098 99.1455-45.2148Q97.2168-42.9199 92.8223-39.8438Q89.1113-37.2559 87.1582-34.4971Q85.2051-31.7383 85.2051-27.5879Q85.2051-27.1484 85.2051-26.7334Q85.2051-26.3184 85.2051-25.8789Q85.2051-22.5098 88.5254-22.5098ZM88.4277-4.93164Q90.625-4.93164 92.2363-6.49414Q93.8477-8.05664 93.8477-10.2051Q93.8477-12.4023 92.2607-13.9404Q90.6738-15.4785 88.4277-15.4785Q86.2305-15.4785 84.6436-13.916Q83.0566-12.3535 83.0566-10.2051Q83.0566-8.10547 84.6436-6.51855Q86.2305-4.93164 88.4277-4.93164Z"/>
  </g>
  <g id="Thin-L" transform="matrix(1 0 0 1 767.409 1556)">
   <path class="hierarchical-0:secondary SFSymbolsPreview4D4D4D" d="M16.0645-37.8906L20.0195-37.8906L20.0195-73.9258Q20.0195-80.3223 23.2666-83.5693Q26.5137-86.8164 32.8125-86.8164L86.4746-86.8164L86.4746-90.7227L32.666-90.7227Q24.5117-90.7227 20.2881-86.499Q16.0645-82.2754 16.0645-74.1211ZM32.666 20.2148L86.4746 20.2148L86.4746 16.2598L32.8125 16.2598Q26.5137 16.2598 23.2666 13.0127Q20.0195 9.76562 20.0195 3.41797L20.0195-32.666L16.0645-32.666L16.0645 3.61328Q16.0645 11.7676 20.2881 15.9912Q24.5117 20.2148 32.666 20.2148ZM158.008-37.8906L161.963-37.8906L161.963-74.1211Q161.963-82.1777 157.739-86.4502Q153.516-90.7227 145.312-90.7227L91.6504-90.7227L91.6504-86.8164L145.166-86.8164Q151.318-86.8164 154.663-83.5693Q158.008-80.3223 158.008-73.9258ZM91.6504 20.2148L145.312 20.2148Q153.516 20.2148 157.739 15.918Q161.963 11.6211 161.963 3.61328L161.963-32.666L158.008-32.666L158.008 3.41797Q158.008 9.76562 154.663 13.0127Q151.318 16.2598 145.166 16.2598L91.6504 16.2598Z"/>
   <path class="hierarchical-1:primary SFSymbolsPreview212121" d="M88.0371-22.7539Q88.916-22.7539 89.4531-23.3398Q89.9902-23.9258 89.9902-24.8047Q89.9902-25.3418 89.9902-25.8789Q89.9902-26.416 89.9902-26.9531Q89.9902-30.0293 91.5039-32.1533Q93.0176-34.2773 96.7773-36.9141Q101.758-40.2344 103.857-43.3838Q105.957-46.5332 105.957-50.9277Q105.957-54.7852 103.809-57.7881Q101.66-60.791 97.9004-62.5244Q94.1406-64.2578 89.3066-64.2578Q84.4727-64.2578 80.8594-62.5488Q77.2461-60.8398 75.1221-58.0078Q72.998-55.1758 72.6074-51.9043Q72.5098-51.3184 72.4854-50.8057Q72.4609-50.293 72.4609-49.6094Q72.4609-48.6328 72.998-48.0957Q73.5352-47.5586 74.3652-47.5586Q75.1465-47.5586 75.708-47.998Q76.2695-48.4375 76.3184-49.2188L76.4648-50.0488Q76.5625-52.6855 78.2227-55.1025Q79.8828-57.5195 82.6904-59.0332Q85.498-60.5469 89.1602-60.5469Q94.9219-60.5469 98.3154-57.7637Q101.709-54.9805 101.709-50.6348Q101.709-47.4121 99.8535-44.9219Q97.998-42.4316 93.3594-39.209Q89.4043-36.4258 87.6953-33.7158Q85.9863-31.0059 85.9863-27.2461Q85.9863-26.6113 85.9863-26.0498Q85.9863-25.4883 85.9863-24.8535Q85.9863-22.7539 88.0371-22.7539ZM87.9395-6.10352Q89.7461-6.10352 90.9912-7.39746Q92.2363-8.69141 92.2363-10.3516Q92.2363-12.1094 90.9912-13.3789Q89.7461-14.6484 87.9395-14.6484Q86.1328-14.6484 84.8877-13.3789Q83.6426-12.1094 83.6426-10.3516Q83.6426-8.69141 84.8877-7.39746Q86.1328-6.10352 87.9395-6.10352Z"/>
  </g>
  <g id="Ultralight-L" transform="matrix(1 0 0 1 471.015 1556)">
   <path class="hierarchical-0:secondary SFSymbolsPreview4D4D4D" d="M16.0645-37.5L18.6035-37.5L18.6035-74.1211Q18.6035-80.8105 22.0215-84.2041Q25.4395-87.5977 32.1289-87.5977L86.5723-87.5977L86.5723-90.1855L31.9824-90.1855Q24.1699-90.1855 20.1172-86.1084Q16.0645-82.0312 16.0645-74.2188ZM31.9824 19.6289L86.5723 19.6289L86.5723 17.0898L32.1289 17.0898Q25.4395 17.0898 22.0215 13.6719Q18.6035 10.2539 18.6035 3.56445L18.6035-33.0078L16.0645-33.0078L16.0645 3.71094Q16.0645 11.4746 20.1172 15.5518Q24.1699 19.6289 31.9824 19.6289ZM158.789-37.5L161.328-37.5L161.328-74.2188Q161.328-81.8848 157.275-86.0352Q153.223-90.1855 145.41-90.1855L91.0156-90.1855L91.0156-87.5977L145.264-87.5977Q151.709-87.5977 155.249-84.2041Q158.789-80.8105 158.789-74.1211ZM91.0156 19.6289L145.41 19.6289Q153.223 19.6289 157.275 15.4785Q161.328 11.3281 161.328 3.71094L161.328-33.0078L158.789-33.0078L158.789 3.56445Q158.789 10.2539 155.249 13.6719Q151.709 17.0898 145.264 17.0898L91.0156 17.0898Z"/>
   <path class="hierarchical-1:primary SFSymbolsPreview212121" d="M87.7441-22.8516Q88.3301-22.8516 88.6719-23.2666Q89.0137-23.6816 89.0137-24.3652Q89.0137-25 89.0137-25.5859Q89.0137-26.1719 89.0137-26.8555Q89.0137-29.9805 90.5029-32.1777Q91.9922-34.375 95.8984-37.0605Q100.928-40.4785 102.856-43.6035Q104.785-46.7285 104.785-50.8301Q104.785-54.3945 102.783-57.2754Q100.781-60.1562 97.1924-61.8652Q93.6035-63.5742 88.8672-63.5742Q84.1797-63.5742 80.6641-61.792Q77.1484-60.0098 75.1465-57.1289Q73.1445-54.248 72.8027-50.8301Q72.7539-50.3418 72.7539-49.8779Q72.7539-49.4141 72.7539-48.7793Q72.7539-48.0469 73.1201-47.6318Q73.4863-47.2168 74.1211-47.2168Q74.707-47.2168 75.1465-47.6074Q75.5859-47.998 75.4883-48.6816L75.4395-49.3652Q75.293-52.1973 76.9775-54.834Q78.6621-57.4707 81.7139-59.2041Q84.7656-60.9375 88.7695-60.9375Q94.873-60.9375 98.4375-58.0078Q102.002-55.0781 102.002-50.5859Q102.002-47.3145 100.195-44.751Q98.3887-42.1875 93.6523-38.8672Q89.502-36.0352 87.9395-33.3496Q86.377-30.6641 86.377-27.0508Q86.377-26.3672 86.377-25.708Q86.377-25.0488 86.377-24.3164Q86.377-22.8516 87.7441-22.8516ZM87.6465-6.68945Q89.2578-6.68945 90.332-7.86133Q91.4062-9.0332 91.4062-10.4492Q91.4062-11.9629 90.332-13.1104Q89.2578-14.2578 87.6465-14.2578Q86.084-14.2578 85.0098-13.1348Q83.9355-12.0117 83.9355-10.4492Q83.9355-9.0332 85.0098-7.86133Q86.084-6.68945 87.6465-6.68945Z"/>
  </g>
  <g id="Black-M" transform="matrix(1 0 0 1 2861.96 1126)">
   <path class="hierarchical-0:secondary SFSymbolsPreview4D4D4D" d="M12.4512-39.7949L29.7852-39.7949L29.7852-61.8164Q29.7852-64.2578 30.8838-65.2588Q31.9824-66.2598 34.2285-66.2598L66.8457-66.2598L66.8457-83.5938L31.5918-83.5938Q22.5586-83.5938 17.5049-78.5645Q12.4512-73.5352 12.4512-64.4531ZM31.5918 13.2324L66.8457 13.2324L66.8457-4.10156L34.2285-4.10156Q31.9824-4.10156 30.8838-5.12695Q29.7852-6.15234 29.7852-8.59375L29.7852-30.6152L12.4512-30.6152L12.4512-5.9082Q12.4512 3.125 17.5049 8.17871Q22.5586 13.2324 31.5918 13.2324ZM113.086-39.7949L130.42-39.7949L130.42-64.4531Q130.42-73.5352 125.366-78.5645Q120.312-83.5938 111.279-83.5938L76.0254-83.5938L76.0254-66.2598L108.643-66.2598Q110.889-66.2598 111.987-65.2588Q113.086-64.2578 113.086-61.8164ZM76.0254 13.2324L111.279 13.2324Q120.312 13.2324 125.366 8.17871Q130.42 3.125 130.42-5.9082L130.42-30.6152L113.086-30.6152L113.086-8.59375Q113.086-6.15234 111.987-5.12695Q110.889-4.10156 108.643-4.10156L76.0254-4.10156Z"/>
   <path class="hierarchical-1:primary SFSymbolsPreview212121" d="M70.0195-27.1484Q72.7539-27.1484 74.6826-28.2471Q76.6113-29.3457 77.1484-31.1035Q77.1973-31.2012 77.2461-31.3721Q77.2949-31.543 77.2949-31.6406Q77.8809-32.8613 79.3945-33.96Q80.9082-35.0586 82.5195-36.0352Q86.4746-38.4766 88.0859-40.7959Q89.6973-43.1152 89.6973-46.8262Q89.6973-50.8789 87.3291-54.0527Q84.9609-57.2266 80.8838-59.0332Q76.8066-60.8398 71.6309-60.8398Q65.4297-60.8398 60.9375-58.667Q56.4453-56.4941 54.7363-52.7832Q54.3457-52.002 54.1748-51.2451Q54.0039-50.4883 54.0039-49.6094Q54.0039-47.3145 55.6152-45.5566Q57.2266-43.7988 59.9609-43.7988Q61.6699-43.7988 63.0859-44.3604Q64.502-44.9219 65.4785-46.1914L65.7227-46.5332Q66.4062-47.4609 67.0898-47.9248Q67.7734-48.3887 68.4326-48.584Q69.0918-48.7793 69.8242-48.7793Q71.1426-48.7793 72.1436-47.876Q73.1445-46.9727 73.1445-45.8496Q73.1445-44.2383 71.7041-43.1641Q70.2637-42.0898 67.5781-40.2832Q65.0879-38.5254 63.5986-36.8164Q62.1094-35.1074 62.1094-32.959Q62.1094-32.9102 62.1094-32.9102Q62.1094-32.9102 62.1094-32.8613Q62.1094-27.1484 70.0195-27.1484ZM70.0684-10.4004Q73.4375-10.4004 75.5859-12.1582Q77.7344-13.916 77.7344-17.041Q77.7344-20.166 75.5859-21.9238Q73.4375-23.6816 70.0684-23.6816Q66.6992-23.6816 64.4775-21.9482Q62.2559-20.2148 62.2559-17.041Q62.2559-13.916 64.4775-12.1582Q66.6992-10.4004 70.0684-10.4004Z"/>
  </g>
  <g id="Heavy-M" transform="matrix(1 0 0 1 2565.6 1126)">
   <path class="hierarchical-0:secondary SFSymbolsPreview4D4D4D" d="M12.4512-39.502L27.5391-39.502L27.5391-62.4512Q27.5391-65.2344 28.833-66.4551Q30.127-67.6758 32.7148-67.6758L66.8457-67.6758L66.8457-82.7637L30.7129-82.7637Q21.9727-82.7637 17.2119-78.0518Q12.4512-73.3398 12.4512-64.5996ZM30.7129 12.4023L66.8457 12.4023L66.8457-2.68555L32.7148-2.68555Q30.127-2.68555 28.833-3.93066Q27.5391-5.17578 27.5391-7.95898L27.5391-30.9082L12.4512-30.9082L12.4512-5.76172Q12.4512 2.88086 17.2119 7.6416Q21.9727 12.4023 30.7129 12.4023ZM114.648-39.502L129.736-39.502L129.736-64.5996Q129.736-73.291 124.976-78.0273Q120.215-82.7637 111.523-82.7637L75.3906-82.7637L75.3906-67.6758L109.473-67.6758Q112.061-67.6758 113.354-66.4551Q114.648-65.2344 114.648-62.4512ZM75.3906 12.4023L111.523 12.4023Q120.215 12.4023 124.976 7.6416Q129.736 2.88086 129.736-5.76172L129.736-30.9082L114.648-30.9082L114.648-7.95898Q114.648-5.17578 113.354-3.93066Q112.061-2.68555 109.473-2.68555L75.3906-2.68555Z"/>
   <path class="hierarchical-1:primary SFSymbolsPreview212121" d="M69.8242-26.6602Q72.3145-26.6602 74.0479-27.7588Q75.7812-28.8574 76.1719-30.5176Q76.2207-30.6152 76.2451-30.7861Q76.2695-30.957 76.2695-31.0547Q76.7578-32.4707 78.1982-33.667Q79.6387-34.8633 81.4941-36.0352Q85.3027-38.4277 87.085-40.7959Q88.8672-43.1641 88.8672-47.0215Q88.8672-51.0742 86.5479-54.1748Q84.2285-57.2754 80.2734-58.9844Q76.3184-60.6934 71.3867-60.6934Q65.1855-60.6934 60.8154-58.4229Q56.4453-56.1523 54.8828-52.5391Q54.541-51.8066 54.3945-51.0986Q54.248-50.3906 54.248-49.5605Q54.248-47.4121 55.7373-45.874Q57.2266-44.3359 59.5703-44.3359Q61.1816-44.3359 62.4512-44.873Q63.7207-45.4102 64.6484-46.582L65.0391-47.168Q65.7715-48.1934 66.5527-48.7793Q67.334-49.3652 68.1641-49.6338Q68.9941-49.9023 69.9219-49.9023Q71.7285-49.9023 72.9736-48.8037Q74.2188-47.7051 74.2188-46.1914Q74.2188-44.3848 72.7539-43.1885Q71.2891-41.9922 68.457-40.0879Q65.918-38.3301 64.3799-36.499Q62.8418-34.668 62.8418-32.1777Q62.8418-32.0801 62.8418-32.0557Q62.8418-32.0312 62.8418-31.9336Q62.8418-26.6602 69.8242-26.6602ZM69.8242-10.4492Q72.9004-10.4492 74.9023-12.1338Q76.9043-13.8184 76.9043-16.6992Q76.9043-19.6289 74.9023-21.3135Q72.9004-22.998 69.8242-22.998Q66.748-22.998 64.6729-21.3135Q62.5977-19.6289 62.5977-16.6992Q62.5977-13.8184 64.6729-12.1338Q66.748-10.4492 69.8242-10.4492Z"/>
  </g>
  <g id="Bold-M" transform="matrix(1 0 0 1 2269.25 1126)">
   <path class="hierarchical-0:secondary SFSymbolsPreview4D4D4D" d="M12.4512-39.1602L25.0488-39.1602L25.0488-63.2324Q25.0488-66.3574 26.5869-67.8223Q28.125-69.2871 31.0547-69.2871L66.7969-69.2871L66.7969-81.8848L29.6875-81.8848Q21.3379-81.8848 16.8945-77.4902Q12.4512-73.0957 12.4512-64.7461ZM29.6875 11.4746L66.7969 11.4746L66.7969-1.12305L31.0547-1.12305Q28.125-1.12305 26.5869-2.6123Q25.0488-4.10156 25.0488-7.22656L25.0488-31.25L12.4512-31.25L12.4512-5.66406Q12.4512 2.63672 16.8945 7.05566Q21.3379 11.4746 29.6875 11.4746ZM116.406-39.1602L129.004-39.1602L129.004-64.7461Q129.004-73.0469 124.585-77.4658Q120.166-81.8848 111.768-81.8848L74.7559-81.8848L74.7559-69.2871L110.4-69.2871Q113.33-69.2871 114.868-67.8223Q116.406-66.3574 116.406-63.2324ZM74.7559 11.4746L111.768 11.4746Q120.166 11.4746 124.585 7.05566Q129.004 2.63672 129.004-5.66406L129.004-31.25L116.406-31.25L116.406-7.22656Q116.406-4.10156 114.868-2.6123Q113.33-1.12305 110.4-1.12305L74.7559-1.12305Z"/>
   <path class="hierarchical-1:primary SFSymbolsPreview212121" d="M69.5801-26.1719Q71.875-26.1719 73.3643-27.2217Q74.8535-28.2715 75.0977-29.8828Q75.1465-29.9805 75.1709-30.1514Q75.1953-30.3223 75.1953-30.4199Q75.4883-32.0801 76.8555-33.374Q78.2227-34.668 80.3223-35.9863Q84.0332-38.3789 85.9863-40.8203Q87.9395-43.2617 87.9395-47.3145Q87.9395-51.3672 85.6689-54.3457Q83.3984-57.3242 79.6143-58.9355Q75.8301-60.5469 71.1426-60.5469Q64.8926-60.5469 60.6689-58.1787Q56.4453-55.8105 55.0781-52.2949Q54.7852-51.6113 54.6387-50.9277Q54.4922-50.2441 54.4922-49.5117Q54.4922-47.5098 55.835-46.2158Q57.1777-44.9219 59.1797-44.9219Q60.6445-44.9219 61.7676-45.459Q62.8906-45.9961 63.7207-47.0703L64.2578-47.8516Q65.0391-49.0234 65.9424-49.7559Q66.8457-50.4883 67.8711-50.8545Q68.8965-51.2207 70.0684-51.2207Q72.4121-51.2207 73.9258-49.9023Q75.4395-48.584 75.4395-46.6309Q75.4395-44.5801 73.9258-43.2373Q72.4121-41.8945 69.4824-39.8926Q66.8945-38.0859 65.2832-36.1328Q63.6719-34.1797 63.6719-31.2988Q63.6719-31.2012 63.6719-31.1279Q63.6719-31.0547 63.6719-30.957Q63.6719-26.1719 69.5801-26.1719ZM69.5312-10.498Q72.3145-10.498 74.1699-12.1094Q76.0254-13.7207 76.0254-16.3574Q76.0254-18.9941 74.1699-20.6055Q72.3145-22.2168 69.5312-22.2168Q66.7969-22.2168 64.917-20.6055Q63.0371-18.9941 63.0371-16.3574Q63.0371-13.7695 64.917-12.1338Q66.7969-10.498 69.5312-10.498Z"/>
  </g>
  <g id="Semibold-M" transform="matrix(1 0 0 1 1972.81 1126)">
   <path class="hierarchical-0:secondary SFSymbolsPreview4D4D4D" d="M12.4512-38.916L23.3398-38.916L23.3398-63.7207Q23.3398-67.0898 25.0244-68.75Q26.709-70.4102 29.8828-70.4102L66.7969-70.4102L66.7969-81.25L29.0039-81.25Q20.8984-81.25 16.6748-77.0752Q12.4512-72.9004 12.4512-64.8438ZM29.0039 10.8398L66.7969 10.8398L66.7969-0.0488281L29.8828-0.0488281Q26.709-0.0488281 25.0244-1.68457Q23.3398-3.32031 23.3398-6.68945L23.3398-31.4941L12.4512-31.4941L12.4512-5.51758Q12.4512 2.44141 16.6748 6.64062Q20.8984 10.8398 29.0039 10.8398ZM117.627-38.916L128.467-38.916L128.467-64.8438Q128.467-72.8516 124.268-77.0508Q120.068-81.25 111.963-81.25L74.2676-81.25L74.2676-70.4102L111.035-70.4102Q114.209-70.4102 115.918-68.75Q117.627-67.0898 117.627-63.7207ZM74.2676 10.8398L111.963 10.8398Q120.068 10.8398 124.268 6.64062Q128.467 2.44141 128.467-5.51758L128.467-31.4941L117.627-31.4941L117.627-6.68945Q117.627-3.32031 115.918-1.68457Q114.209-0.0488281 111.035-0.0488281L74.2676-0.0488281Z"/>
   <path class="hierarchical-1:primary SFSymbolsPreview212121" d="M69.4824-25.7812Q71.582-25.7812 72.9004-26.8311Q74.2188-27.8809 74.4141-29.3945Q74.4141-29.541 74.4385-29.7119Q74.4629-29.8828 74.4629-29.9805Q74.6582-31.7383 75.9521-33.1055Q77.2461-34.4727 79.541-35.9863Q83.2031-38.3301 85.2783-40.7959Q87.3535-43.2617 87.3535-47.4609Q87.3535-51.5137 85.1074-54.4189Q82.8613-57.3242 79.1748-58.8867Q75.4883-60.4492 70.9961-60.4492Q64.7461-60.4492 60.5957-58.0078Q56.4453-55.5664 55.2246-52.0996Q54.9805-51.416 54.8584-50.7812Q54.7363-50.1465 54.7363-49.4629Q54.7363-47.5586 55.9814-46.4355Q57.2266-45.3125 58.9355-45.3125Q60.3027-45.3125 61.3281-45.8496Q62.3535-46.3867 63.0859-47.4121L63.7695-48.291Q64.5996-49.5605 65.5762-50.3906Q66.5527-51.2207 67.7246-51.6602Q68.8965-52.0996 70.2148-52.0996Q72.9492-52.0996 74.6338-50.6104Q76.3184-49.1211 76.3184-46.875Q76.3184-44.6777 74.7803-43.2617Q73.2422-41.8457 70.2148-39.6973Q67.627-37.9395 65.9668-35.8887Q64.3066-33.8379 64.3066-30.7129Q64.3066-30.5664 64.3066-30.4443Q64.3066-30.3223 64.3066-30.2246Q64.3066-25.7812 69.4824-25.7812ZM69.3848-10.5469Q71.9238-10.5469 73.6816-12.1094Q75.4395-13.6719 75.4395-16.1133Q75.4395-18.5547 73.6816-20.1172Q71.9238-21.6797 69.3848-21.6797Q66.8457-21.6797 65.0879-20.1172Q63.3301-18.5547 63.3301-16.1133Q63.3301-13.6719 65.1123-12.1094Q66.8945-10.5469 69.3848-10.5469Z"/>
  </g>
  <g id="Medium-M" transform="matrix(1 0 0 1 1676.29 1126)">
   <path class="hierarchical-0:secondary SFSymbolsPreview4D4D4D" d="M12.4512-38.7695L22.0215-38.7695L22.0215-64.1113Q22.0215-67.6758 23.8281-69.458Q25.6348-71.2402 29.0039-71.2402L66.748-71.2402L66.748-80.8105L28.4668-80.8105Q20.5566-80.8105 16.5039-76.7822Q12.4512-72.7539 12.4512-64.9414ZM28.4668 10.3516L66.748 10.3516L66.748 0.78125L29.0039 0.78125Q25.6348 0.78125 23.8281-0.976562Q22.0215-2.73438 22.0215-6.29883L22.0215-31.6406L12.4512-31.6406L12.4512-5.46875Q12.4512 2.34375 16.5039 6.34766Q20.5566 10.3516 28.4668 10.3516ZM118.555-38.7695L128.076-38.7695L128.076-64.9414Q128.076-72.7539 124.048-76.7822Q120.02-80.8105 112.061-80.8105L73.9258-80.8105L73.9258-71.2402L111.523-71.2402Q114.893-71.2402 116.724-69.458Q118.555-67.6758 118.555-64.1113ZM73.9258 10.3516L112.061 10.3516Q120.02 10.3516 124.048 6.34766Q128.076 2.34375 128.076-5.46875L128.076-31.6406L118.555-31.6406L118.555-6.29883Q118.555-2.73438 116.724-0.976562Q114.893 0.78125 111.523 0.78125L73.9258 0.78125Z"/>
   <path class="hierarchical-1:primary SFSymbolsPreview212121" d="M69.3359-25.4883Q71.2891-25.4883 72.5098-26.5381Q73.7305-27.5879 73.8281-29.0527Q73.8281-29.1992 73.8281-29.3701Q73.8281-29.541 73.8281-29.6387Q73.9746-31.543 75.2441-32.959Q76.5137-34.375 78.9062-35.9375Q82.5195-38.3301 84.6924-40.8203Q86.8652-43.3105 86.8652-47.6074Q86.8652-51.6602 84.6436-54.4922Q82.4219-57.3242 78.8086-58.8379Q75.1953-60.3516 70.8496-60.3516Q64.5996-60.3516 60.5225-57.8613Q56.4453-55.3711 55.2734-51.9531Q55.0781-51.3184 54.9561-50.708Q54.834-50.0977 54.834-49.4141Q54.834-47.6562 56.0059-46.6309Q57.1777-45.6055 58.6914-45.6055Q60.0098-45.6055 60.9619-46.1426Q61.9141-46.6797 62.5977-47.6562L63.3789-48.6328Q64.209-50 65.2588-50.9033Q66.3086-51.8066 67.5537-52.2705Q68.7988-52.7344 70.2637-52.7344Q73.2422-52.7344 75.0732-51.1475Q76.9043-49.5605 76.9043-47.0703Q76.9043-44.7754 75.3662-43.2617Q73.8281-41.748 70.7031-39.5996Q68.1152-37.793 66.4062-35.6934Q64.6973-33.5938 64.6973-30.2246Q64.6973-30.127 64.6973-29.9805Q64.6973-29.834 64.6973-29.6875Q64.6973-25.4883 69.3359-25.4883ZM69.2383-10.5469Q71.582-10.5469 73.2666-12.0605Q74.9512-13.5742 74.9512-15.918Q74.9512-18.2617 73.2666-19.7754Q71.582-21.2891 69.2383-21.2891Q66.8457-21.2891 65.1855-19.751Q63.5254-18.2129 63.5254-15.918Q63.5254-13.623 65.21-12.085Q66.8945-10.5469 69.2383-10.5469Z"/>
  </g>
  <g id="Regular-M" transform="matrix(1 0 0 1 1379.82 1126)">
   <path class="hierarchical-0:secondary SFSymbolsPreview4D4D4D" d="M12.4512-38.5254L20.3125-38.5254L20.3125-64.5996Q20.3125-68.4082 22.2656-70.3613Q24.2188-72.3145 27.8809-72.3145L66.748-72.3145L66.748-80.1758L27.7832-80.1758Q20.1172-80.1758 16.2842-76.3916Q12.4512-72.6074 12.4512-65.0391ZM27.7832 9.7168L66.748 9.7168L66.748 1.85547L27.8809 1.85547Q24.2188 1.85547 22.2656-0.0732422Q20.3125-2.00195 20.3125-5.81055L20.3125-31.8848L12.4512-31.8848L12.4512-5.37109Q12.4512 2.14844 16.2842 5.93262Q20.1172 9.7168 27.7832 9.7168ZM119.727-38.5254L127.588-38.5254L127.588-65.0391Q127.588-72.5586 123.779-76.3672Q119.971-80.1758 112.256-80.1758L73.4375-80.1758L73.4375-72.3145L112.158-72.3145Q115.771-72.3145 117.749-70.3613Q119.727-68.4082 119.727-64.5996ZM73.4375 9.7168L112.256 9.7168Q119.971 9.7168 123.779 5.93262Q127.588 2.14844 127.588-5.37109L127.588-31.8848L119.727-31.8848L119.727-5.81055Q119.727-2.00195 117.749-0.0732422Q115.771 1.85547 112.158 1.85547L73.4375 1.85547Z"/>
   <path class="hierarchical-1:primary SFSymbolsPreview212121" d="M69.1895-25.1465Q70.9961-25.1465 72.0459-26.1719Q73.0957-27.1973 73.0957-28.6133Q73.0957-28.7598 73.0957-28.9307Q73.0957-29.1016 73.0957-29.1992Q73.0957-31.25 74.3164-32.7393Q75.5371-34.2285 78.125-35.9375Q81.6406-38.2812 83.9355-40.8203Q86.2305-43.3594 86.2305-47.7539Q86.2305-51.8066 84.0576-54.5898Q81.8848-57.373 78.3691-58.8135Q74.8535-60.2539 70.7031-60.2539Q64.4043-60.2539 60.4248-57.6904Q56.4453-55.127 55.4199-51.7578Q55.2246-51.1719 55.127-50.5859Q55.0293-50 55.0293-49.3652Q55.0293-47.7051 56.1035-46.8506Q57.1777-45.9961 58.3984-45.9961Q59.6191-45.9961 60.4736-46.5332Q61.3281-47.0703 61.9629-47.9492L62.8418-49.1211Q63.7207-50.5371 64.8438-51.5381Q65.9668-52.5391 67.3584-53.0762Q68.75-53.6133 70.3613-53.6133Q73.7305-53.6133 75.7324-51.8799Q77.7344-50.1465 77.7344-47.3633Q77.7344-44.873 76.1719-43.2861Q74.6094-41.6992 71.3867-39.4531Q68.75-37.6465 67.0166-35.4492Q65.2832-33.252 65.2832-29.6387Q65.2832-29.4922 65.2832-29.3213Q65.2832-29.1504 65.2832-29.0039Q65.2832-25.1465 69.1895-25.1465ZM69.043-10.5957Q71.1914-10.5957 72.7539-12.0605Q74.3164-13.5254 74.3164-15.6738Q74.3164-17.8223 72.7539-19.2871Q71.1914-20.752 69.043-20.752Q66.8945-20.752 65.3564-19.2627Q63.8184-17.7734 63.8184-15.6738Q63.8184-13.5742 65.3809-12.085Q66.9434-10.5957 69.043-10.5957Z"/>
  </g>
  <g id="Light-M" transform="matrix(1 0 0 1 1083.5 1126)">
   <path class="hierarchical-0:secondary SFSymbolsPreview4D4D4D" d="M12.4512-38.0371L18.5059-38.0371L18.5059-64.8438Q18.5059-69.0918 20.6543-71.2402Q22.8027-73.3887 26.9531-73.3887L66.8457-73.3887L66.8457-79.4434L26.8555-79.4434Q19.6777-79.4434 16.0645-75.8545Q12.4512-72.2656 12.4512-65.1855ZM26.8555 8.98438L66.8457 8.98438L66.8457 2.92969L26.9531 2.92969Q22.8027 2.92969 20.6543 0.78125Q18.5059-1.36719 18.5059-5.61523L18.5059-32.4219L12.4512-32.4219L12.4512-5.27344Q12.4512 1.80664 16.0645 5.39551Q19.6777 8.98438 26.8555 8.98438ZM120.752-38.0371L126.807-38.0371L126.807-65.1855Q126.807-72.2168 123.193-75.8301Q119.58-79.4434 112.402-79.4434L72.5586-79.4434L72.5586-73.3887L112.305-73.3887Q116.309-73.3887 118.53-71.2402Q120.752-69.0918 120.752-64.8438ZM72.5586 8.98438L112.402 8.98438Q119.58 8.98438 123.193 5.37109Q126.807 1.75781 126.807-5.27344L126.807-32.4219L120.752-32.4219L120.752-5.61523Q120.752-1.36719 118.53 0.78125Q116.309 2.92969 112.305 2.92969L72.5586 2.92969Z"/>
   <path class="hierarchical-1:primary SFSymbolsPreview212121" d="M68.8477-25.293Q70.2148-25.293 71.0205-26.0986Q71.8262-26.9043 71.8262-28.0762Q71.8262-28.3203 71.8262-28.5645Q71.8262-28.8086 71.8262-29.0527Q71.8262-31.2012 73.0225-32.7637Q74.2188-34.3262 76.9531-36.1328Q80.5664-38.623 82.6172-41.1133Q84.668-43.6035 84.668-47.6074Q84.668-51.2695 82.6904-53.8818Q80.7129-56.4941 77.4414-57.8857Q74.1699-59.2773 70.166-59.2773Q64.1113-59.2773 60.3271-56.6162Q56.543-53.9551 55.7129-50.3906Q55.6152-49.8535 55.542-49.3408Q55.4688-48.8281 55.4688-48.2422Q55.4688-46.9238 56.2988-46.2402Q57.1289-45.5566 58.1055-45.5566Q59.082-45.5566 59.79-46.0205Q60.498-46.4844 60.8887-47.2168L61.4746-48.1934Q62.0605-49.8535 63.2324-51.1963Q64.4043-52.5391 66.1133-53.3203Q67.8223-54.1016 69.873-54.1016Q73.6816-54.1016 75.9033-52.1973Q78.125-50.293 78.125-47.3145Q78.125-44.7754 76.6357-43.0664Q75.1465-41.3574 71.7773-39.0137Q68.9453-37.1094 67.3828-34.9365Q65.8203-32.7637 65.8203-29.3945Q65.8203-29.1504 65.8203-28.8818Q65.8203-28.6133 65.8203-28.3203Q65.8203-25.293 68.8477-25.293ZM68.7012-11.377Q70.5566-11.377 71.8994-12.6709Q73.2422-13.9648 73.2422-15.7715Q73.2422-17.627 71.8994-18.9209Q70.5566-20.2148 68.7012-20.2148Q66.8457-20.2148 65.5273-18.9209Q64.209-17.627 64.209-15.7715Q64.209-13.9648 65.5518-12.6709Q66.8945-11.377 68.7012-11.377Z"/>
  </g>
  <g id="Thin-M" transform="matrix(1 0 0 1 787.306 1126)">
   <path class="hierarchical-0:secondary SFSymbolsPreview4D4D4D" d="M12.4512-37.4512L16.1133-37.4512L16.1133-65.1855Q16.1133-69.9707 18.5547-72.4121Q20.9961-74.8535 25.7324-74.8535L66.9922-74.8535L66.9922-78.4668L25.5859-78.4668Q19.1406-78.4668 15.7959-75.1221Q12.4512-71.7773 12.4512-65.332ZM25.5859 7.95898L66.9922 7.95898L66.9922 4.3457L25.7324 4.3457Q20.9961 4.3457 18.5547 1.9043Q16.1133-0.537109 16.1133-5.37109L16.1133-33.0566L12.4512-33.0566L12.4512-5.17578Q12.4512 1.31836 15.7959 4.63867Q19.1406 7.95898 25.5859 7.95898ZM122.119-37.4512L125.781-37.4512L125.781-65.332Q125.781-71.7285 122.437-75.0977Q119.092-78.4668 112.549-78.4668L71.3867-78.4668L71.3867-74.8535L112.451-74.8535Q117.09-74.8535 119.604-72.4121Q122.119-69.9707 122.119-65.1855ZM71.3867 7.95898L112.549 7.95898Q119.092 7.95898 122.437 4.58984Q125.781 1.2207 125.781-5.17578L125.781-33.0566L122.119-33.0566L122.119-5.37109Q122.119-0.537109 119.604 1.9043Q117.09 4.3457 112.451 4.3457L71.3867 4.3457Z"/>
   <path class="hierarchical-1:primary SFSymbolsPreview212121" d="M68.3594-25.4883Q69.1895-25.4883 69.6777-26.001Q70.166-26.5137 70.166-27.2949Q70.166-27.6855 70.166-28.0762Q70.166-28.4668 70.166-28.9062Q70.166-31.2012 71.3379-32.8125Q72.5098-34.4238 75.3906-36.4258Q79.1992-39.0137 80.9082-41.4795Q82.6172-43.9453 82.6172-47.4609Q82.6172-50.5371 80.9082-52.9297Q79.1992-55.3223 76.1963-56.6895Q73.1934-58.0566 69.4336-58.0566Q63.6719-58.0566 60.1807-55.2002Q56.6895-52.3438 56.1523-48.584Q56.1035-48.0957 56.0547-47.7051Q56.0059-47.3145 56.0059-46.7285Q56.0059-45.8984 56.5186-45.4102Q57.0312-44.9219 57.7148-44.9219Q58.3984-44.9219 58.8867-45.2881Q59.375-45.6543 59.5215-46.2891L59.7168-46.9727Q59.8633-48.9746 61.1328-50.7324Q62.4023-52.4902 64.4775-53.6133Q66.5527-54.7363 69.2383-54.7363Q73.584-54.7363 76.1475-52.6123Q78.7109-50.4883 78.7109-47.2168Q78.7109-44.6777 77.2705-42.7979Q75.8301-40.918 72.2656-38.4766Q69.2383-36.3281 67.8711-34.2285Q66.5039-32.1289 66.5039-29.1016Q66.5039-28.6621 66.5039-28.2471Q66.5039-27.832 66.5039-27.3926Q66.5039-25.4883 68.3594-25.4883ZM68.2617-12.4023Q69.7754-12.4023 70.8008-13.4521Q71.8262-14.502 71.8262-15.918Q71.8262-17.3828 70.8008-18.4082Q69.7754-19.4336 68.2617-19.4336Q66.7969-19.4336 65.7471-18.4082Q64.6973-17.3828 64.6973-15.918Q64.6973-14.502 65.7471-13.4521Q66.7969-12.4023 68.2617-12.4023Z"/>
  </g>
  <g id="Ultralight-M" transform="matrix(1 0 0 1 490.863 1126)">
   <path class="hierarchical-0:secondary SFSymbolsPreview4D4D4D" d="M12.4512-37.1094L14.8438-37.1094L14.8438-65.332Q14.8438-70.4102 17.4316-72.998Q20.0195-75.5859 25.0977-75.5859L67.0898-75.5859L67.0898-77.9785L24.9512-77.9785Q18.8477-77.9785 15.6494-74.7803Q12.4512-71.582 12.4512-65.4297ZM24.9512 7.4707L67.0898 7.4707L67.0898 5.07812L25.0977 5.07812Q20.0195 5.07812 17.4316 2.46582Q14.8438-0.146484 14.8438-5.22461L14.8438-33.4473L12.4512-33.4473L12.4512-5.07812Q12.4512 1.07422 15.6494 4.27246Q18.8477 7.4707 24.9512 7.4707ZM122.803-37.1094L125.244-37.1094L125.244-65.4297Q125.244-71.4844 122.046-74.7314Q118.848-77.9785 112.646-77.9785L70.752-77.9785L70.752-75.5859L112.549-75.5859Q117.432-75.5859 120.117-72.998Q122.803-70.4102 122.803-65.332ZM70.752 7.4707L112.646 7.4707Q118.848 7.4707 122.046 4.22363Q125.244 0.976562 125.244-5.07812L125.244-33.4473L122.803-33.4473L122.803-5.22461Q122.803-0.146484 120.117 2.46582Q117.432 5.07812 112.549 5.07812L70.752 5.07812Z"/>
   <path class="hierarchical-1:primary SFSymbolsPreview212121" d="M68.1152-25.5859Q68.6523-25.5859 68.9697-25.9521Q69.2871-26.3184 69.2871-26.9531Q69.2871-27.3926 69.2871-27.832Q69.2871-28.2715 69.2871-28.8086Q69.2871-31.1523 70.4346-32.8369Q71.582-34.5215 74.6094-36.5723Q78.4668-39.2578 80.0293-41.6748Q81.5918-44.0918 81.5918-47.3633Q81.5918-50.1953 80.0049-52.4658Q78.418-54.7363 75.5859-56.0547Q72.7539-57.373 69.043-57.373Q63.4766-57.373 60.1318-54.4678Q56.7871-51.5625 56.3477-47.6562Q56.3477-47.2168 56.3232-46.8506Q56.2988-46.4844 56.2988-45.9473Q56.2988-45.3613 56.6406-44.9951Q56.9824-44.6289 57.5195-44.6289Q58.0566-44.6289 58.4229-44.9463Q58.7891-45.2637 58.7891-45.8008L58.7891-46.3379Q58.7402-48.4863 60.0342-50.4883Q61.3281-52.4902 63.623-53.7842Q65.918-55.0781 68.9453-55.0781Q73.584-55.0781 76.2695-52.832Q78.9551-50.5859 78.9551-47.168Q78.9551-44.6289 77.5635-42.6758Q76.1719-40.7227 72.5098-38.1836Q69.3359-35.9863 68.0908-33.8867Q66.8457-31.7871 66.8457-28.9551Q66.8457-28.4668 66.8457-27.9785Q66.8457-27.4902 66.8457-26.9043Q66.8457-25.5859 68.1152-25.5859ZM68.0664-12.8906Q69.3359-12.8906 70.2148-13.8428Q71.0938-14.7949 71.0938-16.0156Q71.0938-17.2852 70.2148-18.1885Q69.3359-19.0918 68.0664-19.0918Q66.7969-19.0918 65.8936-18.1885Q64.9902-17.2852 64.9902-16.0156Q64.9902-14.7949 65.8691-13.8428Q66.748-12.8906 68.0664-12.8906Z"/>
  </g>
  <g id="Black-S" transform="matrix(1 0 0 1 2877.35 696)">
   <path class="hierarchical-0:secondary SFSymbolsPreview4D4D4D" d="M9.76562-38.8672L23.9258-38.8672L23.9258-55.8594Q23.9258-57.7148 24.7559-58.4473Q25.5859-59.1797 27.2461-59.1797L52.3926-59.1797L52.3926-73.3398L25-73.3398Q17.8223-73.3398 13.7939-69.3115Q9.76562-65.2832 9.76562-58.1055ZM25 2.92969L52.3926 2.92969L52.3926-11.2305L27.2461-11.2305Q25.5859-11.2305 24.7559-11.9873Q23.9258-12.7441 23.9258-14.5508L23.9258-31.543L9.76562-31.543L9.76562-12.3047Q9.76562-5.12695 13.7939-1.09863Q17.8223 2.92969 25 2.92969ZM88.1836-38.8672L102.344-38.8672L102.344-58.1055Q102.344-65.2832 98.3154-69.3115Q94.2871-73.3398 87.1094-73.3398L59.7168-73.3398L59.7168-59.1797L84.8633-59.1797Q86.5723-59.1797 87.3779-58.4473Q88.1836-57.7148 88.1836-55.8594ZM59.7168 2.92969L87.1094 2.92969Q94.2871 2.92969 98.3154-1.09863Q102.344-5.12695 102.344-12.3047L102.344-31.543L88.1836-31.543L88.1836-14.5508Q88.1836-12.7441 87.3779-11.9873Q86.5723-11.2305 84.8633-11.2305L59.7168-11.2305Z"/>
   <path class="hierarchical-1:primary SFSymbolsPreview212121" d="M54.8828-29.0527Q57.0801-29.0527 58.6426-29.9072Q60.2051-30.7617 60.6445-32.1289Q60.6934-32.2266 60.7178-32.373Q60.7422-32.5195 60.791-32.5684Q61.2793-33.4961 62.4756-34.3262Q63.6719-35.1562 64.8926-35.8887Q68.0176-37.793 69.2139-39.5996Q70.4102-41.4062 70.4102-44.2383Q70.4102-49.0234 66.3574-52.1484Q62.3047-55.2734 56.1523-55.2734Q51.3184-55.2734 47.7783-53.5889Q44.2383-51.9043 42.8223-48.9746Q42.2363-47.7539 42.2363-46.4355Q42.2363-44.6289 43.5303-43.1885Q44.8242-41.748 47.0703-41.748Q48.4375-41.748 49.5605-42.1875Q50.6836-42.627 51.4648-43.6523L51.6113-43.8477Q52.3926-44.873 53.125-45.1904Q53.8574-45.5078 54.6387-45.5078Q55.5664-45.5078 56.2744-44.8486Q56.9824-44.1895 56.9824-43.457Q56.9824-42.2363 55.8594-41.4307Q54.7363-40.625 52.6855-39.209Q50.7324-37.8418 49.585-36.5479Q48.4375-35.2539 48.4375-33.6914Q48.4375-33.6426 48.4375-33.6426Q48.4375-33.6426 48.4375-33.5938Q48.4375-29.0527 54.8828-29.0527ZM54.9316-15.8203Q57.666-15.8203 59.375-17.1875Q61.084-18.5547 61.084-21.0938Q61.084-23.584 59.375-24.9756Q57.666-26.3672 54.9316-26.3672Q52.2461-26.3672 50.4639-25Q48.6816-23.6328 48.6816-21.0938Q48.6816-18.5547 50.4639-17.1875Q52.2461-15.8203 54.9316-15.8203Z"/>
  </g>
  <g id="Heavy-S" transform="matrix(1 0 0 1 2580.88 696)">
   <path class="hierarchical-0:secondary SFSymbolsPreview4D4D4D" d="M9.76562-38.6719L22.2656-38.6719L22.2656-56.3965Q22.2656-58.4961 23.2178-59.375Q24.1699-60.2539 26.0742-60.2539L52.3438-60.2539L52.3438-72.7539L24.3652-72.7539Q17.3828-72.7539 13.5742-68.9453Q9.76562-65.1367 9.76562-58.2031ZM24.3652 2.34375L52.3438 2.34375L52.3438-10.1562L26.0742-10.1562Q24.1699-10.1562 23.2178-11.0596Q22.2656-11.9629 22.2656-14.0137L22.2656-31.7383L9.76562-31.7383L9.76562-12.207Q9.76562-5.27344 13.5742-1.46484Q17.3828 2.34375 24.3652 2.34375ZM89.4043-38.6719L101.855-38.6719L101.855-58.2031Q101.855-65.1367 98.0713-68.9453Q94.2871-72.7539 87.3047-72.7539L59.3262-72.7539L59.3262-60.2539L85.5469-60.2539Q87.5-60.2539 88.4521-59.375Q89.4043-58.4961 89.4043-56.3965ZM59.3262 2.34375L87.3047 2.34375Q94.2871 2.34375 98.0713-1.46484Q101.855-5.27344 101.855-12.207L101.855-31.7383L89.4043-31.7383L89.4043-14.0137Q89.4043-11.9629 88.4521-11.0596Q87.5-10.1562 85.5469-10.1562L59.3262-10.1562Z"/>
   <path class="hierarchical-1:primary SFSymbolsPreview212121" d="M54.7363-28.6133Q56.8359-28.6133 58.252-29.4922Q59.668-30.3711 59.9609-31.6895Q60.0098-31.7871 60.0342-31.9092Q60.0586-32.0312 60.1074-32.1289Q60.4492-33.1543 61.5967-34.0576Q62.7441-34.9609 64.1602-35.8398Q67.1875-37.6953 68.5547-39.5508Q69.9219-41.4062 69.9219-44.4336Q69.9219-49.2676 65.918-52.2705Q61.9141-55.2734 56.0059-55.2734Q51.123-55.2734 47.6562-53.54Q44.1895-51.8066 42.9199-48.9746Q42.3828-47.7539 42.3828-46.5332Q42.3828-44.8242 43.6035-43.5303Q44.8242-42.2363 46.7773-42.2363Q48.0957-42.2363 49.1211-42.6758Q50.1465-43.1152 50.8789-44.0918L51.2207-44.4824Q52.0996-45.6055 52.9541-46.0205Q53.8086-46.4355 54.7852-46.4355Q56.1035-46.4355 56.9824-45.6299Q57.8613-44.8242 57.8613-43.75Q57.8613-42.3828 56.6895-41.4795Q55.5176-40.5762 53.418-39.1113Q51.4648-37.7441 50.2441-36.3281Q49.0234-34.9121 49.0234-33.0566Q49.0234-33.0078 49.0234-32.9834Q49.0234-32.959 49.0234-32.9102Q49.0234-28.6133 54.7363-28.6133ZM54.7852-15.7715Q57.2754-15.7715 58.9111-17.0898Q60.5469-18.4082 60.5469-20.8008Q60.5469-23.1445 58.9111-24.4873Q57.2754-25.8301 54.7852-25.8301Q52.2949-25.8301 50.6104-24.4873Q48.9258-23.1445 48.9258-20.8008Q48.9258-18.457 50.6104-17.1143Q52.2949-15.7715 54.7852-15.7715Z"/>
  </g>
  <g id="Bold-S" transform="matrix(1 0 0 1 2284.41 696)">
   <path class="hierarchical-0:secondary SFSymbolsPreview4D4D4D" d="M9.76562-38.4766L20.3613-38.4766L20.3613-57.0312Q20.3613-59.3262 21.5088-60.4004Q22.6562-61.4746 24.8047-61.4746L52.3438-61.4746L52.3438-72.0703L23.6328-72.0703Q16.9434-72.0703 13.3545-68.5303Q9.76562-64.9902 9.76562-58.3008ZM23.6328 1.66016L52.3438 1.66016L52.3438-8.98438L24.8047-8.98438Q22.6562-8.98438 21.5088-10.0586Q20.3613-11.1328 20.3613-13.4277L20.3613-31.9824L9.76562-31.9824L9.76562-12.1094Q9.76562-5.46875 13.3545-1.9043Q16.9434 1.66016 23.6328 1.66016ZM90.7715-38.4766L101.367-38.4766L101.367-58.3008Q101.367-64.9902 97.8027-68.5303Q94.2383-72.0703 87.5-72.0703L58.8379-72.0703L58.8379-61.4746L86.3281-61.4746Q88.5254-61.4746 89.6484-60.4004Q90.7715-59.3262 90.7715-57.0312ZM58.8379 1.66016L87.5 1.66016Q94.2383 1.66016 97.8027-1.9043Q101.367-5.46875 101.367-12.1094L101.367-31.9824L90.7715-31.9824L90.7715-13.4277Q90.7715-11.1328 89.6484-10.0586Q88.5254-8.98438 86.3281-8.98438L58.8379-8.98438Z"/>
   <path class="hierarchical-1:primary SFSymbolsPreview212121" d="M54.6387-28.1738Q56.543-28.1738 57.7881-29.0527Q59.0332-29.9316 59.2773-31.25Q59.2773-31.2988 59.3018-31.4209Q59.3262-31.543 59.3262-31.5918Q59.5703-32.8125 60.6689-33.8135Q61.7676-34.8145 63.3301-35.791Q66.2598-37.6465 67.7979-39.5508Q69.3359-41.4551 69.3359-44.6777Q69.3359-49.6094 65.4053-52.4414Q61.4746-55.2734 55.9082-55.2734Q50.9766-55.2734 47.583-53.4668Q44.1895-51.6602 43.0664-48.9258Q42.5781-47.8027 42.5781-46.6309Q42.5781-45.0195 43.7012-43.9209Q44.8242-42.8223 46.4844-42.8223Q47.7051-42.8223 48.6328-43.2617Q49.5605-43.7012 50.293-44.6289L50.7812-45.2148Q51.7578-46.4844 52.7832-46.9727Q53.8086-47.4609 55.0293-47.4609Q56.6895-47.4609 57.7637-46.4844Q58.8379-45.5078 58.8379-44.1406Q58.8379-42.5293 57.6416-41.5283Q56.4453-40.5273 54.1992-39.0137Q52.2461-37.5977 50.9521-36.084Q49.6582-34.5703 49.6582-32.3242Q49.6582-32.2754 49.6582-32.251Q49.6582-32.2266 49.6582-32.1777Q49.6582-28.1738 54.6387-28.1738ZM54.5898-15.6738Q56.8848-15.6738 58.3984-16.9922Q59.9121-18.3105 59.9121-20.459Q59.9121-22.6562 58.3984-23.9502Q56.8848-25.2441 54.5898-25.2441Q52.3438-25.2441 50.7812-23.9502Q49.2188-22.6562 49.2188-20.459Q49.2188-18.3105 50.7812-16.9922Q52.3438-15.6738 54.5898-15.6738Z"/>
  </g>
  <g id="Semibold-S" transform="matrix(1 0 0 1 1987.9 696)">
   <path class="hierarchical-0:secondary SFSymbolsPreview4D4D4D" d="M9.76562-38.2812L19.043-38.2812L19.043-57.4219Q19.043-59.9121 20.2881-61.084Q21.5332-62.2559 23.877-62.2559L52.2949-62.2559L52.2949-71.6309L23.0957-71.6309Q16.6016-71.6309 13.1836-68.2373Q9.76562-64.8438 9.76562-58.3496ZM23.0957 1.2207L52.2949 1.2207L52.2949-8.1543L23.877-8.1543Q21.5332-8.1543 20.2881-9.35059Q19.043-10.5469 19.043-12.9883L19.043-32.1289L9.76562-32.1289L9.76562-12.0605Q9.76562-5.56641 13.1836-2.17285Q16.6016 1.2207 23.0957 1.2207ZM91.6992-38.2812L100.977-38.2812L100.977-58.3496Q100.977-64.8438 97.6074-68.2373Q94.2383-71.6309 87.6465-71.6309L58.4961-71.6309L58.4961-62.2559L86.8652-62.2559Q89.209-62.2559 90.4541-61.084Q91.6992-59.9121 91.6992-57.4219ZM58.4961 1.2207L87.6465 1.2207Q94.2383 1.2207 97.6074-2.17285Q100.977-5.56641 100.977-12.0605L100.977-32.1289L91.6992-32.1289L91.6992-12.9883Q91.6992-10.5469 90.4541-9.35059Q89.209-8.1543 86.8652-8.1543L58.4961-8.1543Z"/>
   <path class="hierarchical-1:primary SFSymbolsPreview212121" d="M54.4922-27.832Q56.3477-27.832 57.4707-28.7109Q58.5938-29.5898 58.7402-30.9082Q58.7402-30.957 58.7402-31.0547Q58.7402-31.1523 58.7891-31.25Q58.9355-32.5684 59.9854-33.6182Q61.0352-34.668 62.6953-35.7422Q65.5762-37.5488 67.2607-39.502Q68.9453-41.4551 68.9453-44.8242Q68.9453-49.8047 65.0391-52.5391Q61.1328-55.2734 55.7617-55.2734Q50.7812-55.2734 47.4609-53.418Q44.1406-51.5625 43.1152-48.9258Q42.627-47.8027 42.627-46.6797Q42.627-45.166 43.7012-44.1895Q44.7754-43.2129 46.1914-43.2129Q47.4121-43.2129 48.2666-43.6523Q49.1211-44.0918 49.8047-44.9707L50.4395-45.7031Q51.5137-47.0215 52.6367-47.6074Q53.7598-48.1934 55.127-48.1934Q57.0312-48.1934 58.252-47.0947Q59.4727-45.9961 59.4727-44.3359Q59.4727-42.627 58.252-41.5527Q57.0312-40.4785 54.7363-38.916Q52.7832-37.5 51.4404-35.9131Q50.0977-34.3262 50.0977-31.8359Q50.0977-31.7871 50.0977-31.7383Q50.0977-31.6895 50.0977-31.6406Q50.0977-27.832 54.4922-27.832ZM54.4434-15.625Q56.543-15.625 58.0078-16.8945Q59.4727-18.1641 59.4727-20.2148Q59.4727-22.2656 58.0078-23.5596Q56.543-24.8535 54.4434-24.8535Q52.3438-24.8535 50.8789-23.5596Q49.4141-22.2656 49.4141-20.2148Q49.4141-18.2129 50.8789-16.9189Q52.3438-15.625 54.4434-15.625Z"/>
  </g>
  <g id="Medium-S" transform="matrix(1 0 0 1 1691.33 696)">
   <path class="hierarchical-0:secondary SFSymbolsPreview4D4D4D" d="M9.76562-38.1836L18.0664-38.1836L18.0664-57.7637Q18.0664-60.3516 19.4092-61.6211Q20.752-62.8906 23.1934-62.8906L52.2949-62.8906L52.2949-71.2402L22.7051-71.2402Q16.3574-71.2402 13.0615-67.9932Q9.76562-64.7461 9.76562-58.4473ZM22.7051 0.830078L52.2949 0.830078L52.2949-7.51953L23.1934-7.51953Q20.752-7.51953 19.4092-8.81348Q18.0664-10.1074 18.0664-12.6465L18.0664-32.2266L9.76562-32.2266L9.76562-11.9629Q9.76562-5.66406 13.0615-2.41699Q16.3574 0.830078 22.7051 0.830078ZM92.3828-38.1836L100.684-38.1836L100.684-58.4473Q100.684-64.7461 97.4365-67.9932Q94.1895-71.2402 87.7441-71.2402L58.252-71.2402L58.252-62.8906L87.2559-62.8906Q89.7461-62.8906 91.0645-61.6211Q92.3828-60.3516 92.3828-57.7637ZM58.252 0.830078L87.7441 0.830078Q94.1895 0.830078 97.4365-2.41699Q100.684-5.66406 100.684-11.9629L100.684-32.2266L92.3828-32.2266L92.3828-12.6465Q92.3828-10.1074 91.0645-8.81348Q89.7461-7.51953 87.2559-7.51953L58.252-7.51953Z"/>
   <path class="hierarchical-1:primary SFSymbolsPreview212121" d="M54.4434-27.5879Q56.2012-27.5879 57.251-28.4668Q58.3008-29.3457 58.3984-30.6641Q58.3984-30.7129 58.3984-30.7861Q58.3984-30.8594 58.3984-30.957Q58.4961-32.373 59.5215-33.4717Q60.5469-34.5703 62.3047-35.7422Q65.1367-37.5 66.8945-39.502Q68.6523-41.5039 68.6523-44.9707Q68.6523-49.9512 64.7949-52.6123Q60.9375-55.2734 55.7129-55.2734Q50.7324-55.2734 47.4609-53.3936Q44.1895-51.5137 43.2129-48.877Q42.7734-47.8027 42.7734-46.7773Q42.7734-45.2637 43.7988-44.3848Q44.8242-43.5059 46.0938-43.5059Q47.2656-43.5059 48.0713-43.9453Q48.877-44.3848 49.5117-45.2148L50.2441-46.0449Q51.3672-47.4609 52.5879-48.0957Q53.8086-48.7305 55.2734-48.7305Q57.373-48.7305 58.6914-47.5342Q60.0098-46.3379 60.0098-44.5312Q60.0098-42.7246 58.7891-41.6016Q57.5684-40.4785 55.1758-38.8672Q53.2227-37.4512 51.8311-35.791Q50.4395-34.1309 50.4395-31.4453Q50.4395-31.3965 50.4395-31.3477Q50.4395-31.2988 50.4395-31.25Q50.4395-27.5879 54.4434-27.5879ZM54.3945-15.5762Q56.3477-15.5762 57.7637-16.8457Q59.1797-18.1152 59.1797-20.0684Q59.1797-22.0215 57.7637-23.2666Q56.3477-24.5117 54.3945-24.5117Q52.4414-24.5117 51.001-23.2422Q49.5605-21.9727 49.5605-20.0684Q49.5605-18.1641 51.001-16.8701Q52.4414-15.5762 54.3945-15.5762Z"/>
  </g>
  <g id="Regular-S" transform="matrix(1 0 0 1 1394.79 696)">
   <path class="hierarchical-0:secondary SFSymbolsPreview4D4D4D" d="M9.76562-38.0371L16.7969-38.0371L16.7969-58.1543Q16.7969-60.9375 18.2373-62.3291Q19.6777-63.7207 22.3145-63.7207L52.2461-63.7207L52.2461-70.8008L22.2168-70.8008Q16.0156-70.8008 12.8906-67.7246Q9.76562-64.6484 9.76562-58.4961ZM22.2168 0.390625L52.2461 0.390625L52.2461-6.68945L22.3145-6.68945Q19.6777-6.68945 18.2373-8.10547Q16.7969-9.52148 16.7969-12.2559L16.7969-32.373L9.76562-32.373L9.76562-11.9141Q9.76562-5.76172 12.8906-2.68555Q16.0156 0.390625 22.2168 0.390625ZM93.3105-38.0371L100.342-38.0371L100.342-58.4961Q100.342-64.6484 97.2656-67.7246Q94.1895-70.8008 87.8906-70.8008L57.959-70.8008L57.959-63.7207L87.793-63.7207Q90.4297-63.7207 91.8701-62.3291Q93.3105-60.9375 93.3105-58.1543ZM57.959 0.390625L87.8906 0.390625Q94.1895 0.390625 97.2656-2.68555Q100.342-5.76172 100.342-11.9141L100.342-32.373L93.3105-32.373L93.3105-12.2559Q93.3105-9.52148 91.8701-8.10547Q90.4297-6.68945 87.793-6.68945L57.959-6.68945Z"/>
   <path class="hierarchical-1:primary SFSymbolsPreview212121" d="M54.3457-27.2461Q56.0059-27.2461 56.9336-28.1494Q57.8613-29.0527 57.8613-30.3223Q57.8613-30.3711 57.8613-30.4443Q57.8613-30.5176 57.8613-30.6152Q57.8613-32.1289 58.8379-33.2764Q59.8145-34.4238 61.7188-35.6934Q64.4531-37.4512 66.3574-39.4775Q68.2617-41.5039 68.2617-45.1172Q68.2617-50.1465 64.4287-52.71Q60.5957-55.2734 55.6152-55.2734Q50.5859-55.2734 47.3633-53.3447Q44.1406-51.416 43.2617-48.877Q42.8711-47.8027 42.8711-46.8262Q42.8711-45.4102 43.8232-44.6533Q44.7754-43.8965 45.8496-43.8965Q46.9727-43.8965 47.7051-44.3359Q48.4375-44.7754 49.0723-45.5566L49.9023-46.5332Q51.123-48.0469 52.4414-48.7305Q53.7598-49.4141 55.3711-49.4141Q57.7637-49.4141 59.2041-48.1201Q60.6445-46.8262 60.6445-44.7754Q60.6445-42.8223 59.3994-41.626Q58.1543-40.4297 55.7129-38.7695Q53.7598-37.3535 52.3193-35.6201Q50.8789-33.8867 50.8789-30.957Q50.8789-30.9082 50.8789-30.835Q50.8789-30.7617 50.8789-30.7129Q50.8789-27.2461 54.3457-27.2461ZM54.248-15.5273Q56.0547-15.5273 57.3975-16.7725Q58.7402-18.0176 58.7402-19.8242Q58.7402-21.6797 57.3975-22.9004Q56.0547-24.1211 54.248-24.1211Q52.4414-24.1211 51.0986-22.876Q49.7559-21.6309 49.7559-19.8242Q49.7559-18.0664 51.0986-16.7969Q52.4414-15.5273 54.248-15.5273Z"/>
  </g>
  <g id="Light-S" transform="matrix(1 0 0 1 1098.42 696)">
   <path class="hierarchical-0:secondary SFSymbolsPreview4D4D4D" d="M9.76562-37.5977L15.1855-37.5977L15.1855-58.3496Q15.1855-61.5234 16.8213-63.1104Q18.457-64.6973 21.4844-64.6973L52.3438-64.6973L52.3438-70.166L21.3867-70.166Q15.625-70.166 12.6953-67.2607Q9.76562-64.3555 9.76562-58.5938ZM21.3867-0.292969L52.3438-0.292969L52.3438-5.76172L21.4844-5.76172Q18.457-5.76172 16.8213-7.37305Q15.1855-8.98438 15.1855-12.1094L15.1855-32.8125L9.76562-32.8125L9.76562-11.8164Q9.76562-6.10352 12.6953-3.19824Q15.625-0.292969 21.3867-0.292969ZM94.2383-37.5977L99.6582-37.5977L99.6582-58.5938Q99.6582-64.3066 96.7529-67.2363Q93.8477-70.166 87.9883-70.166L57.1777-70.166L57.1777-64.6973L87.8906-64.6973Q90.918-64.6973 92.5781-63.1104Q94.2383-61.5234 94.2383-58.3496ZM57.1777-0.292969L87.9883-0.292969Q93.8477-0.292969 96.7529-3.19824Q99.6582-6.10352 99.6582-11.8164L99.6582-32.8125L94.2383-32.8125L94.2383-12.1094Q94.2383-8.98438 92.5781-7.37305Q90.918-5.76172 87.8906-5.76172L57.1777-5.76172Z"/>
   <path class="hierarchical-1:primary SFSymbolsPreview212121" d="M54.0039-27.3926Q55.2734-27.3926 56.0059-28.1006Q56.7383-28.8086 56.7383-29.834Q56.7383-29.9805 56.7383-30.127Q56.7383-30.2734 56.7383-30.4688Q56.7383-32.0801 57.6904-33.3008Q58.6426-34.5215 60.6934-35.8887Q63.5254-37.7441 65.21-39.7217Q66.8945-41.6992 66.8945-45.0195Q66.8945-49.5117 63.4033-51.9775Q59.9121-54.4434 55.127-54.4434Q50.293-54.4434 47.2656-52.3926Q44.2383-50.3418 43.5059-47.6562Q43.2129-46.7773 43.2129-45.8496Q43.2129-44.6777 43.9697-44.0918Q44.7266-43.5059 45.5566-43.5059Q46.4844-43.5059 47.0947-43.8721Q47.7051-44.2383 48.0957-44.9219L48.6816-45.752Q49.5117-47.5586 51.123-48.7061Q52.7344-49.8535 54.9316-49.8535Q57.7148-49.8535 59.3506-48.4131Q60.9863-46.9727 60.9863-44.7266Q60.9863-42.7246 59.79-41.4307Q58.5938-40.1367 56.0547-38.3789Q53.9062-36.8652 52.6123-35.1562Q51.3184-33.4473 51.3184-30.7617Q51.3184-30.5664 51.3184-30.4199Q51.3184-30.2734 51.3184-30.0781Q51.3184-27.3926 54.0039-27.3926ZM53.9551-16.2109Q55.5176-16.2109 56.6406-17.3096Q57.7637-18.4082 57.7637-19.9219Q57.7637-21.5332 56.6406-22.583Q55.5176-23.6328 53.9551-23.6328Q52.3926-23.6328 51.2451-22.5586Q50.0977-21.4844 50.0977-19.9219Q50.0977-18.4082 51.2451-17.3096Q52.3926-16.2109 53.9551-16.2109Z"/>
  </g>
  <g id="Thin-S" transform="matrix(1 0 0 1 802.174 696)">
   <path class="hierarchical-0:secondary SFSymbolsPreview4D4D4D" d="M9.76562-37.0605L13.0859-37.0605L13.0859-58.5938Q13.0859-62.2559 14.9414-64.1113Q16.7969-65.9668 20.4102-65.9668L52.4414-65.9668L52.4414-69.2871L20.3125-69.2871Q15.0879-69.2871 12.4268-66.626Q9.76562-63.9648 9.76562-58.7891ZM20.3125-1.17188L52.4414-1.17188L52.4414-4.49219L20.4102-4.49219Q16.7969-4.49219 14.9414-6.34766Q13.0859-8.20312 13.0859-11.8652L13.0859-33.4473L9.76562-33.4473L9.76562-11.7188Q9.76562-6.49414 12.4268-3.83301Q15.0879-1.17188 20.3125-1.17188ZM95.4102-37.0605L98.7305-37.0605L98.7305-58.7891Q98.7305-63.916 96.0693-66.6016Q93.4082-69.2871 88.1836-69.2871L56.1523-69.2871L56.1523-65.9668L88.0859-65.9668Q91.6016-65.9668 93.5059-64.1113Q95.4102-62.2559 95.4102-58.5938ZM56.1523-1.17188L88.1836-1.17188Q93.4082-1.17188 96.0693-3.88184Q98.7305-6.5918 98.7305-11.7188L98.7305-33.4473L95.4102-33.4473L95.4102-11.8652Q95.4102-8.20312 93.5059-6.34766Q91.6016-4.49219 88.0859-4.49219L56.1523-4.49219Z"/>
   <path class="hierarchical-1:primary SFSymbolsPreview212121" d="M53.6133-27.5391Q54.3945-27.5391 54.8096-28.0029Q55.2246-28.4668 55.2246-29.1504Q55.2246-29.4434 55.2246-29.7119Q55.2246-29.9805 55.2246-30.3223Q55.2246-32.0801 56.1523-33.3496Q57.0801-34.6191 59.3262-36.1328Q62.3047-38.1348 63.6963-40.0635Q65.0879-41.9922 65.0879-44.8242Q65.0879-48.6328 62.0361-50.9766Q58.9844-53.3203 54.4922-53.3203Q49.9512-53.3203 47.168-51.1475Q44.3848-48.9746 43.8965-46.0449Q43.75-45.459 43.75-44.5312Q43.75-43.75 44.2139-43.3594Q44.6777-42.9688 45.2637-42.9688Q45.8496-42.9688 46.2646-43.2617Q46.6797-43.5547 46.8262-44.0918L47.0703-44.6777Q47.3633-46.875 49.3652-48.6328Q51.3672-50.3906 54.3457-50.3906Q57.666-50.3906 59.5947-48.7549Q61.5234-47.1191 61.5234-44.6289Q61.5234-42.627 60.376-41.1865Q59.2285-39.7461 56.4941-37.8418Q54.1504-36.2305 53.0273-34.5703Q51.9043-32.9102 51.9043-30.5176Q51.9043-30.1758 51.9043-29.8828Q51.9043-29.5898 51.9043-29.248Q51.9043-27.5391 53.6133-27.5391ZM53.5156-17.1387Q54.7852-17.1387 55.6396-18.0176Q56.4941-18.8965 56.4941-20.0684Q56.4941-21.2891 55.6396-22.1436Q54.7852-22.998 53.5156-22.998Q52.3438-22.998 51.4404-22.1436Q50.5371-21.2891 50.5371-20.0684Q50.5371-18.8965 51.4404-18.0176Q52.3438-17.1387 53.5156-17.1387Z"/>
  </g>
  <g id="Ultralight-S" transform="matrix(1 0 0 1 505.707 696)">
   <path class="hierarchical-0:secondary SFSymbolsPreview4D4D4D" d="M9.76562-36.7676L11.9629-36.7676L11.9629-58.7402Q11.9629-62.6465 13.9648-64.6484Q15.9668-66.6504 19.873-66.6504L52.5391-66.6504L52.5391-68.8477L19.7754-68.8477Q14.8438-68.8477 12.3047-66.3086Q9.76562-63.7695 9.76562-58.8379ZM19.7754-1.66016L52.5391-1.66016L52.5391-3.85742L19.873-3.85742Q15.9668-3.85742 13.9648-5.85938Q11.9629-7.86133 11.9629-11.7676L11.9629-33.7402L9.76562-33.7402L9.76562-11.6211Q9.76562-6.73828 12.3047-4.19922Q14.8438-1.66016 19.7754-1.66016ZM96.0449-36.7676L98.2422-36.7676L98.2422-58.8379Q98.2422-63.6719 95.7275-66.2598Q93.2129-68.8477 88.2324-68.8477L55.6152-68.8477L55.6152-66.6504L88.1348-66.6504Q91.9434-66.6504 93.9941-64.6484Q96.0449-62.6465 96.0449-58.7402ZM55.6152-1.66016L88.2324-1.66016Q93.2129-1.66016 95.7275-4.22363Q98.2422-6.78711 98.2422-11.6211L98.2422-33.7402L96.0449-33.7402L96.0449-11.7676Q96.0449-7.86133 93.9941-5.85938Q91.9434-3.85742 88.1348-3.85742L55.6152-3.85742Z"/>
   <path class="hierarchical-1:primary SFSymbolsPreview212121" d="M53.418-27.6367Q53.9062-27.6367 54.1992-27.9785Q54.4922-28.3203 54.4922-28.8086Q54.4922-29.1992 54.4922-29.5166Q54.4922-29.834 54.4922-30.2246Q54.4922-32.0312 55.4199-33.3496Q56.3477-34.668 58.6426-36.2305Q61.6699-38.3301 62.915-40.2344Q64.1602-42.1387 64.1602-44.7754Q64.1602-48.1934 61.3525-50.4883Q58.5449-52.7832 54.1504-52.7832Q49.7559-52.7832 47.1191-50.5127Q44.4824-48.2422 44.0918-45.2148Q43.9941-44.7754 43.9941-43.8965Q43.9941-43.2617 44.3115-42.9688Q44.6289-42.6758 45.0684-42.6758Q45.5566-42.6758 45.8984-42.9199Q46.2402-43.1641 46.2402-43.6523L46.2891-44.1406Q46.3379-46.5332 48.5107-48.6084Q50.6836-50.6836 54.0527-50.6836Q57.6172-50.6836 59.6924-48.9502Q61.7676-47.2168 61.7676-44.5801Q61.7676-42.5781 60.6689-41.0645Q59.5703-39.5508 56.7383-37.5977Q54.2969-35.8887 53.2715-34.2529Q52.2461-32.6172 52.2461-30.3711Q52.2461-29.9316 52.2461-29.5898Q52.2461-29.248 52.2461-28.8574Q52.2461-27.6367 53.418-27.6367ZM53.3691-17.627Q54.4434-17.627 55.1758-18.3838Q55.9082-19.1406 55.9082-20.166Q55.9082-21.1914 55.1758-21.9238Q54.4434-22.6562 53.3691-22.6562Q52.2949-22.6562 51.5625-21.9238Q50.8301-21.1914 50.8301-20.166Q50.8301-19.1406 51.5625-18.3838Q52.2949-17.627 53.3691-17.627Z"/>
  </g>
 </g>
</svg>
