<?xml version="1.0" encoding="UTF-8"?>
<!--Generator: Apple Native CoreSVG 175-->
<!DOCTYPE svg
PUBLIC "-//W3C//DTD SVG 1.1//EN"
       "http://www.w3.org/Graphics/SVG/1.1/DTD/svg11.dtd">
<svg version="1.1" xmlns="http://www.w3.org/2000/svg" xmlns:xlink="http://www.w3.org/1999/xlink" width="3300" height="2200">
 <!--glyph: "uni100986.medium", point size: 100.0, font version: "17.0d11e1", template writer version: "65.1"-->
 <g id="Notes">
  <rect height="2200" id="artboard" style="fill:white;opacity:1" width="3300" x="0" y="0"/>
  <line style="fill:none;stroke:black;opacity:1;stroke-width:0.5;" x1="263" x2="3036" y1="292" y2="292"/>
  <text style="stroke:none;fill:black;font-family:sans-serif;font-size:13;font-weight:bold;" transform="matrix(1 0 0 1 263 322)">Weight/Scale Variations</text>
  <text style="stroke:none;fill:black;font-family:sans-serif;font-size:13;text-anchor:middle;" transform="matrix(1 0 0 1 559.711 322)">Ultralight</text>
  <text style="stroke:none;fill:black;font-family:sans-serif;font-size:13;text-anchor:middle;" transform="matrix(1 0 0 1 856.422 322)">Thin</text>
  <text style="stroke:none;fill:black;font-family:sans-serif;font-size:13;text-anchor:middle;" transform="matrix(1 0 0 1 1153.13 322)">Light</text>
  <text style="stroke:none;fill:black;font-family:sans-serif;font-size:13;text-anchor:middle;" transform="matrix(1 0 0 1 1449.84 322)">Regular</text>
  <text style="stroke:none;fill:black;font-family:sans-serif;font-size:13;text-anchor:middle;" transform="matrix(1 0 0 1 1746.56 322)">Medium</text>
  <text style="stroke:none;fill:black;font-family:sans-serif;font-size:13;text-anchor:middle;" transform="matrix(1 0 0 1 2043.27 322)">Semibold</text>
  <text style="stroke:none;fill:black;font-family:sans-serif;font-size:13;text-anchor:middle;" transform="matrix(1 0 0 1 2339.98 322)">Bold</text>
  <text style="stroke:none;fill:black;font-family:sans-serif;font-size:13;text-anchor:middle;" transform="matrix(1 0 0 1 2636.69 322)">Heavy</text>
  <text style="stroke:none;fill:black;font-family:sans-serif;font-size:13;text-anchor:middle;" transform="matrix(1 0 0 1 2933.4 322)">Black</text>
  <line style="fill:none;stroke:black;opacity:1;stroke-width:0.5;" x1="263" x2="3036" y1="1903" y2="1903"/>
  <g transform="matrix(1 0 0 1 263 1933)">
   <path d="M9.24805 0.830078Q10.8691 0.830078 12.2949 0.214844Q13.7207-0.400391 14.8096-1.49414Q15.8984-2.58789 16.5186-4.01367Q17.1387-5.43945 17.1387-7.05078Q17.1387-8.66211 16.5186-10.0879Q15.8984-11.5137 14.8047-12.6074Q13.7109-13.7012 12.2852-14.3164Q10.8594-14.9316 9.23828-14.9316Q7.62695-14.9316 6.20117-14.3164Q4.77539-13.7012 3.69141-12.6074Q2.60742-11.5137 1.9873-10.0879Q1.36719-8.66211 1.36719-7.05078Q1.36719-5.43945 1.9873-4.01367Q2.60742-2.58789 3.69629-1.49414Q4.78516-0.400391 6.21094 0.214844Q7.63672 0.830078 9.24805 0.830078ZM9.24805-0.654297Q7.91992-0.654297 6.7627-1.14746Q5.60547-1.64062 4.73145-2.51953Q3.85742-3.39844 3.36426-4.56055Q2.87109-5.72266 2.87109-7.05078Q2.87109-8.37891 3.35938-9.54102Q3.84766-10.7031 4.72168-11.582Q5.5957-12.4609 6.75293-12.9541Q7.91016-13.4473 9.23828-13.4473Q10.5762-13.4473 11.7334-12.9541Q12.8906-12.4609 13.7695-11.582Q14.6484-10.7031 15.1465-9.54102Q15.6445-8.37891 15.6445-7.05078Q15.6445-5.72266 15.1514-4.56055Q14.6582-3.39844 13.7842-2.51953Q12.9102-1.64062 11.748-1.14746Q10.5859-0.654297 9.24805-0.654297ZM5.6543-7.05078Q5.6543-6.72852 5.85938-6.52832Q6.06445-6.32812 6.40625-6.32812L8.51562-6.32812L8.51562-4.20898Q8.51562-3.88672 8.71094-3.67676Q8.90625-3.4668 9.23828-3.4668Q9.56055-3.4668 9.77051-3.67676Q9.98047-3.88672 9.98047-4.20898L9.98047-6.32812L12.0898-6.32812Q12.4219-6.32812 12.627-6.52832Q12.832-6.72852 12.832-7.05078Q12.832-7.38281 12.627-7.58789Q12.4219-7.79297 12.0898-7.79297L9.98047-7.79297L9.98047-9.90234Q9.98047-10.2344 9.77051-10.4443Q9.56055-10.6543 9.23828-10.6543Q8.90625-10.6543 8.71094-10.4443Q8.51562-10.2344 8.51562-9.90234L8.51562-7.79297L6.40625-7.79297Q6.06445-7.79297 5.85938-7.58789Q5.6543-7.38281 5.6543-7.05078Z"/>
  </g>
  <g transform="matrix(1 0 0 1 281.867 1933)">
   <path d="M11.709 2.91016Q13.75 2.91016 15.5518 2.12891Q17.3535 1.34766 18.7305-0.0292969Q20.1074-1.40625 20.8887-3.20801Q21.6699-5.00977 21.6699-7.05078Q21.6699-9.0918 20.8887-10.8936Q20.1074-12.6953 18.7305-14.0723Q17.3535-15.4492 15.5469-16.2305Q13.7402-17.0117 11.6992-17.0117Q9.6582-17.0117 7.85645-16.2305Q6.05469-15.4492 4.68262-14.0723Q3.31055-12.6953 2.5293-10.8936Q1.74805-9.0918 1.74805-7.05078Q1.74805-5.00977 2.5293-3.20801Q3.31055-1.40625 4.6875-0.0292969Q6.06445 1.34766 7.86621 2.12891Q9.66797 2.91016 11.709 2.91016ZM11.709 1.25Q9.98047 1.25 8.47656 0.605469Q6.97266-0.0390625 5.83496-1.17676Q4.69727-2.31445 4.05762-3.81836Q3.41797-5.32227 3.41797-7.05078Q3.41797-8.7793 4.05762-10.2832Q4.69727-11.7871 5.83008-12.9297Q6.96289-14.0723 8.4668-14.7119Q9.9707-15.3516 11.6992-15.3516Q13.4277-15.3516 14.9316-14.7119Q16.4355-14.0723 17.5781-12.9297Q18.7207-11.7871 19.3652-10.2832Q20.0098-8.7793 20.0098-7.05078Q20.0098-5.32227 19.3701-3.81836Q18.7305-2.31445 17.5928-1.17676Q16.4551-0.0390625 14.9463 0.605469Q13.4375 1.25 11.709 1.25ZM7.17773-7.05078Q7.17773-6.69922 7.41211-6.47461Q7.64648-6.25 8.01758-6.25L10.8887-6.25L10.8887-3.36914Q10.8887-2.99805 11.1133-2.76855Q11.3379-2.53906 11.6895-2.53906Q12.0605-2.53906 12.29-2.76855Q12.5195-2.99805 12.5195-3.36914L12.5195-6.25L15.4004-6.25Q15.7715-6.25 16.001-6.47461Q16.2305-6.69922 16.2305-7.05078Q16.2305-7.42188 16.001-7.65137Q15.7715-7.88086 15.4004-7.88086L12.5195-7.88086L12.5195-10.752Q12.5195-11.1328 12.29-11.3623Q12.0605-11.5918 11.6895-11.5918Q11.3379-11.5918 11.1133-11.3574Q10.8887-11.123 10.8887-10.752L10.8887-7.88086L8.01758-7.88086Q7.63672-7.88086 7.40723-7.65137Q7.17773-7.42188 7.17773-7.05078Z"/>
  </g>
  <g transform="matrix(1 0 0 1 305.646 1933)">
   <path d="M14.9707 5.66406Q17.0605 5.66406 18.96 5.01465Q20.8594 4.36523 22.4512 3.19336Q24.043 2.02148 25.2197 0.429688Q26.3965-1.16211 27.0459-3.06641Q27.6953-4.9707 27.6953-7.05078Q27.6953-9.14062 27.0459-11.04Q26.3965-12.9395 25.2197-14.5312Q24.043-16.123 22.4512-17.2998Q20.8594-18.4766 18.9551-19.126Q17.0508-19.7754 14.9609-19.7754Q12.8711-19.7754 10.9717-19.126Q9.07227-18.4766 7.48535-17.2998Q5.89844-16.123 4.72168-14.5312Q3.54492-12.9395 2.90039-11.04Q2.25586-9.14062 2.25586-7.05078Q2.25586-4.9707 2.90527-3.06641Q3.55469-1.16211 4.72656 0.429688Q5.89844 2.02148 7.49023 3.19336Q9.08203 4.36523 10.9814 5.01465Q12.8809 5.66406 14.9707 5.66406ZM14.9707 3.84766Q13.1641 3.84766 11.5283 3.2959Q9.89258 2.74414 8.53516 1.74805Q7.17773 0.751953 6.17676-0.610352Q5.17578-1.97266 4.62891-3.6084Q4.08203-5.24414 4.08203-7.05078Q4.08203-8.86719 4.62891-10.5029Q5.17578-12.1387 6.17188-13.501Q7.16797-14.8633 8.52539-15.8594Q9.88281-16.8555 11.5186-17.4023Q13.1543-17.9492 14.9609-17.9492Q16.7773-17.9492 18.4131-17.4023Q20.0488-16.8555 21.4111-15.8594Q22.7734-14.8633 23.7695-13.501Q24.7656-12.1387 25.3174-10.5029Q25.8691-8.86719 25.8691-7.05078Q25.8789-5.24414 25.332-3.6084Q24.7852-1.97266 23.7842-0.610352Q22.7832 0.751953 21.4209 1.74805Q20.0586 2.74414 18.4229 3.2959Q16.7871 3.84766 14.9707 3.84766ZM9.19922-7.05078Q9.19922-6.66992 9.45801-6.4209Q9.7168-6.17188 10.1172-6.17188L14.0625-6.17188L14.0625-2.2168Q14.0625-1.81641 14.3115-1.55762Q14.5605-1.29883 14.9512-1.29883Q15.3516-1.29883 15.6104-1.55273Q15.8691-1.80664 15.8691-2.2168L15.8691-6.17188L19.8242-6.17188Q20.2246-6.17188 20.4785-6.4209Q20.7324-6.66992 20.7324-7.05078Q20.7324-7.46094 20.4785-7.71484Q20.2246-7.96875 19.8242-7.96875L15.8691-7.96875L15.8691-11.9141Q15.8691-12.3242 15.6104-12.583Q15.3516-12.8418 14.9512-12.8418Q14.5605-12.8418 14.3115-12.583Q14.0625-12.3242 14.0625-11.9141L14.0625-7.96875L10.1172-7.96875Q9.70703-7.96875 9.45312-7.71484Q9.19922-7.46094 9.19922-7.05078Z"/>
  </g>
  <text style="stroke:none;fill:black;font-family:sans-serif;font-size:13;font-weight:bold;" transform="matrix(1 0 0 1 263 1953)">Design Variations</text>
  <text style="stroke:none;fill:black;font-family:sans-serif;font-size:13;" transform="matrix(1 0 0 1 263 1971)">Symbols are supported in up to nine weights and three scales.</text>
  <text style="stroke:none;fill:black;font-family:sans-serif;font-size:13;" transform="matrix(1 0 0 1 263 1989)">For optimal layout with text and other symbols, vertically align</text>
  <text style="stroke:none;fill:black;font-family:sans-serif;font-size:13;" transform="matrix(1 0 0 1 263 2007)">symbols with the adjacent text.</text>
  <line style="fill:none;stroke:#00AEEF;stroke-width:0.5;opacity:1.0;" x1="776" x2="776" y1="1919" y2="1933"/>
  <g transform="matrix(1 0 0 1 776 1933)">
   <path d="M3.31055 0.15625Q3.70117 0.15625 3.91602-0.00976562Q4.13086-0.175781 4.26758-0.585938L5.52734-4.0332L11.2891-4.0332L12.5488-0.585938Q12.6855-0.175781 12.9004-0.00976562Q13.1152 0.15625 13.4961 0.15625Q13.8867 0.15625 14.1162-0.0585938Q14.3457-0.273438 14.3457-0.644531Q14.3457-0.869141 14.2383-1.17188L9.6582-13.3691Q9.48242-13.8184 9.17969-14.043Q8.87695-14.2676 8.4082-14.2676Q7.5-14.2676 7.17773-13.3789L2.59766-1.16211Q2.49023-0.859375 2.49023-0.634766Q2.49023-0.263672 2.70996-0.0537109Q2.92969 0.15625 3.31055 0.15625ZM6.00586-5.51758L8.37891-12.0898L8.42773-12.0898L10.8008-5.51758Z"/>
  </g>
  <line style="fill:none;stroke:#00AEEF;stroke-width:0.5;opacity:1.0;" x1="793.197" x2="793.197" y1="1919" y2="1933"/>
  <text style="stroke:none;fill:black;font-family:sans-serif;font-size:13;font-weight:bold;" transform="matrix(1 0 0 1 776 1953)">Margins</text>
  <text style="stroke:none;fill:black;font-family:sans-serif;font-size:13;" transform="matrix(1 0 0 1 776 1971)">Leading and trailing margins on the left and right side of each symbol</text>
  <text style="stroke:none;fill:black;font-family:sans-serif;font-size:13;" transform="matrix(1 0 0 1 776 1989)">can be adjusted by modifying the x-location of the margin guidelines.</text>
  <text style="stroke:none;fill:black;font-family:sans-serif;font-size:13;" transform="matrix(1 0 0 1 776 2007)">Modifications are automatically applied proportionally to all</text>
  <text style="stroke:none;fill:black;font-family:sans-serif;font-size:13;" transform="matrix(1 0 0 1 776 2025)">scales and weights.</text>
  <g transform="matrix(1 0 0 1 1289 1933)">
   <path d="M2.8418 1.86523L4.54102 3.57422Q5.18555 4.22852 5.90332 4.17969Q6.62109 4.13086 7.31445 3.35938L18.0078-8.42773L17.041-9.4043L6.42578 2.27539Q6.16211 2.57812 5.89355 2.61719Q5.625 2.65625 5.27344 2.30469L4.10156 1.14258Q3.75 0.791016 3.79395 0.522461Q3.83789 0.253906 4.14062-0.0195312L15.6152-10.8203L14.6387-11.7871L3.04688-0.898438Q2.30469-0.214844 2.25098 0.498047Q2.19727 1.21094 2.8418 1.86523ZM9.25781-16.3281Q8.94531-16.0254 8.90625-15.6348Q8.86719-15.2441 9.04297-14.9512Q9.21875-14.6777 9.55566-14.541Q9.89258-14.4043 10.3809-14.5215Q11.4746-14.7754 12.5977-14.7314Q13.7207-14.6875 14.7949-13.9844L14.209-12.5293Q13.9551-11.9043 14.0674-11.4404Q14.1797-10.9766 14.5801-10.5664L16.875-8.25195Q17.2363-7.88086 17.5781-7.82227Q17.9199-7.76367 18.3398-7.8418L19.4043-8.03711L20.0684-7.36328L20.0293-6.80664Q20-6.43555 20.1221-6.12305Q20.2441-5.81055 20.6055-5.44922L21.3672-4.70703Q21.7285-4.3457 22.1533-4.33105Q22.5781-4.31641 22.9297-4.66797L25.8398-7.58789Q26.1914-7.93945 26.1816-8.35449Q26.1719-8.76953 25.8105-9.13086L25.0391-9.89258Q24.6875-10.2539 24.3799-10.3857Q24.0723-10.5176 23.7109-10.4883L23.1348-10.4395L22.4902-11.0742L22.7344-12.1973Q22.832-12.6172 22.6953-12.9834Q22.5586-13.3496 22.1191-13.7891L19.9219-15.9766Q18.6719-17.2168 17.2607-17.8369Q15.8496-18.457 14.4189-18.4814Q12.9883-18.5059 11.665-17.959Q10.3418-17.4121 9.25781-16.3281ZM10.752-15.957Q11.6602-16.6211 12.7002-16.9043Q13.7402-17.1875 14.8047-17.085Q15.8691-16.9824 16.8701-16.5137Q17.8711-16.0449 18.7012-15.2051L21.1328-12.793Q21.3086-12.6172 21.3525-12.4512Q21.3965-12.2852 21.3379-12.0312L21.0156-10.5469L22.5195-9.0625L23.5059-9.12109Q23.6914-9.13086 23.7891-9.09668Q23.8867-9.0625 24.0332-8.91602L24.6094-8.33984L22.168-5.89844L21.5918-6.47461Q21.4453-6.62109 21.4062-6.71875Q21.3672-6.81641 21.377-7.01172L21.4453-7.98828L19.9512-9.47266L18.4277-9.21875Q18.1836-9.16992 18.042-9.2041Q17.9004-9.23828 17.7148-9.41406L15.7129-11.416Q15.5176-11.5918 15.4932-11.7529Q15.4688-11.9141 15.5859-12.1875L16.4648-14.2773Q15.293-15.3711 13.8281-15.791Q12.3633-16.2109 10.8398-15.7617Q10.7227-15.7324 10.6885-15.8057Q10.6543-15.8789 10.752-15.957Z"/>
  </g>
  <text style="stroke:none;fill:black;font-family:sans-serif;font-size:13;font-weight:bold;" transform="matrix(1 0 0 1 1289 1953)">Exporting</text>
  <text style="stroke:none;fill:black;font-family:sans-serif;font-size:13;" transform="matrix(1 0 0 1 1289 1971)">Symbols should be outlined when exporting to ensure the</text>
  <text style="stroke:none;fill:black;font-family:sans-serif;font-size:13;" transform="matrix(1 0 0 1 1289 1989)">design is preserved when submitting to Xcode.</text>
  <text id="template-version" style="stroke:none;fill:black;font-family:sans-serif;font-size:13;text-anchor:end;" transform="matrix(1 0 0 1 3036 1933)">Template v.3.0</text>
  <text style="stroke:none;fill:black;font-family:sans-serif;font-size:13;text-anchor:end;" transform="matrix(1 0 0 1 3036 1951)">Requires Xcode 13 or greater</text>
  <text id="descriptive-name" style="stroke:none;fill:black;font-family:sans-serif;font-size:13;text-anchor:end;" transform="matrix(1 0 0 1 3036 1969)">Generated from crown.fill</text>
  <text style="stroke:none;fill:black;font-family:sans-serif;font-size:13;text-anchor:end;" transform="matrix(1 0 0 1 3036 1987)">Typeset at 100 points</text>
  <text style="stroke:none;fill:black;font-family:sans-serif;font-size:13;" transform="matrix(1 0 0 1 263 726)">Small</text>
  <text style="stroke:none;fill:black;font-family:sans-serif;font-size:13;" transform="matrix(1 0 0 1 263 1156)">Medium</text>
  <text style="stroke:none;fill:black;font-family:sans-serif;font-size:13;" transform="matrix(1 0 0 1 263 1586)">Large</text>
 </g>
 <g id="Guides">
  <g id="H-reference" style="fill:#27AAE1;stroke:none;" transform="matrix(1 0 0 1 339 696)">
   <path d="M0.976562 0L3.66211 0L29.3457-67.1387L30.0293-67.1387L30.0293-70.459L28.125-70.459ZM11.6699-24.4629L46.9727-24.4629L46.2402-26.709L12.4512-26.709ZM55.127 0L57.7637 0L30.6152-70.459L29.4434-70.459L29.4434-67.1387Z"/>
  </g>
  <line id="Baseline-S" style="fill:none;stroke:#27AAE1;opacity:1;stroke-width:0.5;" x1="263" x2="3036" y1="696" y2="696"/>
  <line id="Capline-S" style="fill:none;stroke:#27AAE1;opacity:1;stroke-width:0.5;" x1="263" x2="3036" y1="625.541" y2="625.541"/>
  <g id="H-reference" style="fill:#27AAE1;stroke:none;" transform="matrix(1 0 0 1 339 1126)">
   <path d="M0.976562 0L3.66211 0L29.3457-67.1387L30.0293-67.1387L30.0293-70.459L28.125-70.459ZM11.6699-24.4629L46.9727-24.4629L46.2402-26.709L12.4512-26.709ZM55.127 0L57.7637 0L30.6152-70.459L29.4434-70.459L29.4434-67.1387Z"/>
  </g>
  <line id="Baseline-M" style="fill:none;stroke:#27AAE1;opacity:1;stroke-width:0.5;" x1="263" x2="3036" y1="1126" y2="1126"/>
  <line id="Capline-M" style="fill:none;stroke:#27AAE1;opacity:1;stroke-width:0.5;" x1="263" x2="3036" y1="1055.54" y2="1055.54"/>
  <g id="H-reference" style="fill:#27AAE1;stroke:none;" transform="matrix(1 0 0 1 339 1556)">
   <path d="M0.976562 0L3.66211 0L29.3457-67.1387L30.0293-67.1387L30.0293-70.459L28.125-70.459ZM11.6699-24.4629L46.9727-24.4629L46.2402-26.709L12.4512-26.709ZM55.127 0L57.7637 0L30.6152-70.459L29.4434-70.459L29.4434-67.1387Z"/>
  </g>
  <line id="Baseline-L" style="fill:none;stroke:#27AAE1;opacity:1;stroke-width:0.5;" x1="263" x2="3036" y1="1556" y2="1556"/>
  <line id="Capline-L" style="fill:none;stroke:#27AAE1;opacity:1;stroke-width:0.5;" x1="263" x2="3036" y1="1485.54" y2="1485.54"/>
  <line id="left-margin-Ultralight-S" style="fill:none;stroke:#00AEEF;stroke-width:0.5;opacity:1.0;" x1="505.536" x2="505.536" y1="600.785" y2="720.121"/>
  <line id="right-margin-Ultralight-S" style="fill:none;stroke:#00AEEF;stroke-width:0.5;opacity:1.0;" x1="613.886" x2="613.886" y1="600.785" y2="720.121"/>
  <line id="left-margin-Thin-S" style="fill:none;stroke:#00AEEF;stroke-width:0.5;opacity:1.0;" x1="800.978" x2="800.978" y1="600.785" y2="720.121"/>
  <line id="right-margin-Thin-S" style="fill:none;stroke:#00AEEF;stroke-width:0.5;opacity:1.0;" x1="911.867" x2="911.867" y1="600.785" y2="720.121"/>
  <line id="left-margin-Light-S" style="fill:none;stroke:#00AEEF;stroke-width:0.5;opacity:1.0;" x1="1095.17" x2="1095.17" y1="600.785" y2="720.121"/>
  <line id="right-margin-Light-S" style="fill:none;stroke:#00AEEF;stroke-width:0.5;opacity:1.0;" x1="1211.09" x2="1211.09" y1="600.785" y2="720.121"/>
  <line id="left-margin-Regular-S" style="fill:none;stroke:#00AEEF;stroke-width:0.5;opacity:1.0;" x1="1389.98" x2="1389.98" y1="600.785" y2="720.121"/>
  <line id="right-margin-Regular-S" style="fill:none;stroke:#00AEEF;stroke-width:0.5;opacity:1.0;" x1="1509.71" x2="1509.71" y1="600.785" y2="720.121"/>
  <line id="left-margin-Medium-S" style="fill:none;stroke:#00AEEF;stroke-width:0.5;opacity:1.0;" x1="1685.79" x2="1685.79" y1="600.785" y2="720.121"/>
  <line id="right-margin-Medium-S" style="fill:none;stroke:#00AEEF;stroke-width:0.5;opacity:1.0;" x1="1807.32" x2="1807.32" y1="600.785" y2="720.121"/>
  <line id="left-margin-Semibold-S" style="fill:none;stroke:#00AEEF;stroke-width:0.5;opacity:1.0;" x1="1981.79" x2="1981.79" y1="600.785" y2="720.121"/>
  <line id="right-margin-Semibold-S" style="fill:none;stroke:#00AEEF;stroke-width:0.5;opacity:1.0;" x1="2104.74" x2="2104.74" y1="600.785" y2="720.121"/>
  <line id="left-margin-Bold-S" style="fill:none;stroke:#00AEEF;stroke-width:0.5;opacity:1.0;" x1="2277.58" x2="2277.58" y1="600.785" y2="720.121"/>
  <line id="right-margin-Bold-S" style="fill:none;stroke:#00AEEF;stroke-width:0.5;opacity:1.0;" x1="2402.38" x2="2402.38" y1="600.785" y2="720.121"/>
  <line id="left-margin-Heavy-S" style="fill:none;stroke:#00AEEF;stroke-width:0.5;opacity:1.0;" x1="2572.97" x2="2572.97" y1="600.785" y2="720.121"/>
  <line id="right-margin-Heavy-S" style="fill:none;stroke:#00AEEF;stroke-width:0.5;opacity:1.0;" x1="2700.41" x2="2700.41" y1="600.785" y2="720.121"/>
  <line id="left-margin-Black-S" style="fill:none;stroke:#00AEEF;stroke-width:0.5;opacity:1.0;" x1="2868.48" x2="2868.48" y1="600.785" y2="720.121"/>
  <line id="right-margin-Black-S" style="fill:none;stroke:#00AEEF;stroke-width:0.5;opacity:1.0;" x1="2998.32" x2="2998.32" y1="600.785" y2="720.121"/>
  <line id="left-margin-Ultralight-M" style="fill:none;stroke:#00AEEF;stroke-width:0.5;opacity:1.0;" x1="491.108" x2="491.108" y1="1030.79" y2="1150.12"/>
  <line id="right-margin-Ultralight-M" style="fill:none;stroke:#00AEEF;stroke-width:0.5;opacity:1.0;" x1="628.315" x2="628.315" y1="1030.79" y2="1150.12"/>
  <line id="left-margin-Thin-M" style="fill:none;stroke:#00AEEF;stroke-width:0.5;opacity:1.0;" x1="786.354" x2="786.354" y1="1030.79" y2="1150.12"/>
  <line id="right-margin-Thin-M" style="fill:none;stroke:#00AEEF;stroke-width:0.5;opacity:1.0;" x1="926.491" x2="926.491" y1="1030.79" y2="1150.12"/>
  <line id="left-margin-Light-M" style="fill:none;stroke:#00AEEF;stroke-width:0.5;opacity:1.0;" x1="1080.21" x2="1080.21" y1="1030.79" y2="1150.12"/>
  <line id="right-margin-Light-M" style="fill:none;stroke:#00AEEF;stroke-width:0.5;opacity:1.0;" x1="1226.06" x2="1226.06" y1="1030.79" y2="1150.12"/>
  <line id="left-margin-Regular-M" style="fill:none;stroke:#00AEEF;stroke-width:0.5;opacity:1.0;" x1="1374.77" x2="1374.77" y1="1030.79" y2="1150.12"/>
  <line id="right-margin-Regular-M" style="fill:none;stroke:#00AEEF;stroke-width:0.5;opacity:1.0;" x1="1524.92" x2="1524.92" y1="1030.79" y2="1150.12"/>
  <line id="left-margin-Medium-M" style="fill:none;stroke:#00AEEF;stroke-width:0.5;opacity:1.0;" x1="1670.16" x2="1670.16" y1="1030.79" y2="1150.12"/>
  <line id="right-margin-Medium-M" style="fill:none;stroke:#00AEEF;stroke-width:0.5;opacity:1.0;" x1="1822.95" x2="1822.95" y1="1030.79" y2="1150.12"/>
  <line id="left-margin-Semibold-M" style="fill:none;stroke:#00AEEF;stroke-width:0.5;opacity:1.0;" x1="1965.87" x2="1965.87" y1="1030.79" y2="1150.12"/>
  <line id="right-margin-Semibold-M" style="fill:none;stroke:#00AEEF;stroke-width:0.5;opacity:1.0;" x1="2120.66" x2="2120.66" y1="1030.79" y2="1150.12"/>
  <line id="left-margin-Bold-M" style="fill:none;stroke:#00AEEF;stroke-width:0.5;opacity:1.0;" x1="2261.27" x2="2261.27" y1="1030.79" y2="1150.12"/>
  <line id="right-margin-Bold-M" style="fill:none;stroke:#00AEEF;stroke-width:0.5;opacity:1.0;" x1="2418.69" x2="2418.69" y1="1030.79" y2="1150.12"/>
  <line id="left-margin-Heavy-M" style="fill:none;stroke:#00AEEF;stroke-width:0.5;opacity:1.0;" x1="2556.05" x2="2556.05" y1="1030.79" y2="1150.12"/>
  <line id="right-margin-Heavy-M" style="fill:none;stroke:#00AEEF;stroke-width:0.5;opacity:1.0;" x1="2717.33" x2="2717.33" y1="1030.79" y2="1150.12"/>
  <line id="left-margin-Black-M" style="fill:none;stroke:#00AEEF;stroke-width:0.5;opacity:1.0;" x1="2851.05" x2="2851.05" y1="1030.79" y2="1150.12"/>
  <line id="right-margin-Black-M" style="fill:none;stroke:#00AEEF;stroke-width:0.5;opacity:1.0;" x1="3015.75" x2="3015.75" y1="1030.79" y2="1150.12"/>
  <line id="left-margin-Ultralight-L" style="fill:none;stroke:#00AEEF;stroke-width:0.5;opacity:1.0;" x1="471.82" x2="471.82" y1="1460.79" y2="1580.12"/>
  <line id="right-margin-Ultralight-L" style="fill:none;stroke:#00AEEF;stroke-width:0.5;opacity:1.0;" x1="647.602" x2="647.602" y1="1460.79" y2="1580.12"/>
  <line id="left-margin-Thin-L" style="fill:none;stroke:#00AEEF;stroke-width:0.5;opacity:1.0;" x1="766.896" x2="766.896" y1="1460.79" y2="1580.12"/>
  <line id="right-margin-Thin-L" style="fill:none;stroke:#00AEEF;stroke-width:0.5;opacity:1.0;" x1="945.949" x2="945.949" y1="1460.79" y2="1580.12"/>
  <line id="left-margin-Light-L" style="fill:none;stroke:#00AEEF;stroke-width:0.5;opacity:1.0;" x1="1060.43" x2="1060.43" y1="1460.79" y2="1580.12"/>
  <line id="right-margin-Light-L" style="fill:none;stroke:#00AEEF;stroke-width:0.5;opacity:1.0;" x1="1245.83" x2="1245.83" y1="1460.79" y2="1580.12"/>
  <line id="left-margin-Regular-L" style="fill:none;stroke:#00AEEF;stroke-width:0.5;opacity:1.0;" x1="1354.73" x2="1354.73" y1="1460.79" y2="1580.12"/>
  <line id="right-margin-Regular-L" style="fill:none;stroke:#00AEEF;stroke-width:0.5;opacity:1.0;" x1="1544.96" x2="1544.96" y1="1460.79" y2="1580.12"/>
  <line id="left-margin-Medium-L" style="fill:none;stroke:#00AEEF;stroke-width:0.5;opacity:1.0;" x1="1649.7" x2="1649.7" y1="1460.79" y2="1580.12"/>
  <line id="right-margin-Medium-L" style="fill:none;stroke:#00AEEF;stroke-width:0.5;opacity:1.0;" x1="1843.41" x2="1843.41" y1="1460.79" y2="1580.12"/>
  <line id="left-margin-Semibold-L" style="fill:none;stroke:#00AEEF;stroke-width:0.5;opacity:1.0;" x1="1945.07" x2="1945.07" y1="1460.79" y2="1580.12"/>
  <line id="right-margin-Semibold-L" style="fill:none;stroke:#00AEEF;stroke-width:0.5;opacity:1.0;" x1="2141.46" x2="2141.46" y1="1460.79" y2="1580.12"/>
  <line id="left-margin-Bold-L" style="fill:none;stroke:#00AEEF;stroke-width:0.5;opacity:1.0;" x1="2240.03" x2="2240.03" y1="1460.79" y2="1580.12"/>
  <line id="right-margin-Bold-L" style="fill:none;stroke:#00AEEF;stroke-width:0.5;opacity:1.0;" x1="2439.93" x2="2439.93" y1="1460.79" y2="1580.12"/>
  <line id="left-margin-Heavy-L" style="fill:none;stroke:#00AEEF;stroke-width:0.5;opacity:1.0;" x1="2534.17" x2="2534.17" y1="1460.79" y2="1580.12"/>
  <line id="right-margin-Heavy-L" style="fill:none;stroke:#00AEEF;stroke-width:0.5;opacity:1.0;" x1="2739.2" x2="2739.2" y1="1460.79" y2="1580.12"/>
  <line id="left-margin-Black-L" style="fill:none;stroke:#00AEEF;stroke-width:0.5;opacity:1.0;" x1="2828.61" x2="2828.61" y1="1460.79" y2="1580.12"/>
  <line id="right-margin-Black-L" style="fill:none;stroke:#00AEEF;stroke-width:0.5;opacity:1.0;" x1="3038.19" x2="3038.19" y1="1460.79" y2="1580.12"/>
 </g>
 <g id="Symbols">
  <g id="Black-L" transform="matrix(1 0 0 1 2828.61 1556)">
   <path d="M44.873 0.78125L47.5586 11.6699Q49.7559 20.7031 55.2246 25.293Q60.6934 29.8828 69.8242 29.8828L140.137 29.8828Q149.268 29.8828 154.712 25.3174Q160.156 20.752 162.402 11.6699L165.088 0.78125ZM41.3574-13.623L168.604-13.623L178.809-55.1758L163.623-62.5488L139.404-45.7031Q138.623-45.166 138.062-45.2881Q137.5-45.4102 137.061-45.9961L110.889-82.6172L99.0723-82.6172L73.291-46.582Q72.8516-45.9473 72.3145-45.8252Q71.7773-45.7031 70.9473-46.2891L46.9727-62.9883L31.5918-53.4668ZM34.9609-44.5312Q40.1367-44.5312 44.4092-47.0703Q48.6816-49.6094 51.2207-53.9062Q53.7598-58.2031 53.7598-63.4277Q53.7598-68.6035 51.2207-72.876Q48.6816-77.1484 44.4092-79.6875Q40.1367-82.2266 34.9609-82.2266Q29.7363-82.2266 25.4395-79.6875Q21.1426-77.1484 18.6035-72.876Q16.0645-68.6035 16.0645-63.4277Q16.0645-58.2031 18.6279-53.9062Q21.1914-49.6094 25.4639-47.0703Q29.7363-44.5312 34.9609-44.5312ZM104.98-73.584Q110.156-73.584 114.429-76.1475Q118.701-78.7109 121.24-82.9834Q123.779-87.2559 123.779-92.4805Q123.779-97.6562 121.24-101.929Q118.701-106.201 114.429-108.74Q110.156-111.279 104.98-111.279Q99.7559-111.279 95.459-108.74Q91.1621-106.201 88.623-101.929Q86.084-97.6562 86.084-92.4805Q86.084-87.2559 88.6475-82.9834Q91.2109-78.7109 95.4834-76.1475Q99.7559-73.584 104.98-73.584ZM174.658-44.5312Q179.834-44.5312 184.106-47.0703Q188.379-49.6094 190.942-53.9062Q193.506-58.2031 193.506-63.4277Q193.506-68.6035 190.942-72.876Q188.379-77.1484 184.106-79.6875Q179.834-82.2266 174.658-82.2266Q169.434-82.2266 165.161-79.6875Q160.889-77.1484 158.325-72.876Q155.762-68.6035 155.762-63.4277Q155.762-58.2031 158.325-53.9062Q160.889-49.6094 165.161-47.0703Q169.434-44.5312 174.658-44.5312Z"/>
  </g>
  <g id="Heavy-L" transform="matrix(1 0 0 1 2534.17 1556)">
   <path d="M44.4336 0.537109L46.9238 10.6445Q48.9746 19.2383 54.126 23.584Q59.2773 27.9297 68.0176 27.9297L137.305 27.9297Q146.045 27.9297 151.172 23.6084Q156.299 19.2871 158.398 10.6445L160.889 0.537109ZM41.2598-12.3047L164.062-12.3047L174.561-55.127L161.768-61.4746L136.914-44.0918Q135.84-43.3594 135.107-43.5303Q134.375-43.7012 133.74-44.5312L107.617-81.543L97.7051-81.543L71.7773-44.873Q71.1914-44.0918 70.5078-43.9209Q69.8242-43.75 68.7988-44.4824L44.1406-61.7188L31.0547-54.0039ZM33.9355-44.5801Q38.8672-44.5801 42.8955-46.9727Q46.9238-49.3652 49.3408-53.4424Q51.7578-57.5195 51.7578-62.4512Q51.7578-67.334 49.3408-71.3867Q46.9238-75.4395 42.8955-77.832Q38.8672-80.2246 33.9355-80.2246Q29.0039-80.2246 24.9512-77.832Q20.8984-75.4395 18.4814-71.3867Q16.0645-67.334 16.0645-62.4512Q16.0645-57.5195 18.4814-53.4424Q20.8984-49.3652 24.9512-46.9727Q29.0039-44.5801 33.9355-44.5801ZM102.637-72.6074Q107.568-72.6074 111.597-75.0488Q115.625-77.4902 118.042-81.5186Q120.459-85.5469 120.459-90.4785Q120.459-95.4102 118.042-99.4385Q115.625-103.467 111.597-105.884Q107.568-108.301 102.637-108.301Q97.7051-108.301 93.6523-105.908Q89.5996-103.516 87.1826-99.4629Q84.7656-95.4102 84.7656-90.4785Q84.7656-85.5469 87.207-81.5186Q89.6484-77.4902 93.6768-75.0488Q97.7051-72.6074 102.637-72.6074ZM171.094-44.5801Q175.977-44.5801 180.029-46.9727Q184.082-49.3652 186.523-53.4424Q188.965-57.5195 188.965-62.4512Q188.965-67.334 186.523-71.3867Q184.082-75.4395 180.029-77.832Q175.977-80.2246 171.094-80.2246Q166.162-80.2246 162.109-77.832Q158.057-75.4395 155.64-71.3867Q153.223-67.334 153.223-62.4512Q153.223-57.5195 155.64-53.4424Q158.057-49.3652 162.109-46.9727Q166.162-44.5801 171.094-44.5801Z"/>
  </g>
  <g id="Bold-L" transform="matrix(1 0 0 1 2240.03 1556)">
   <path d="M43.8965 0.292969L46.1914 9.47266Q48.1445 17.5781 52.9053 21.6553Q57.666 25.7324 65.9668 25.7324L134.131 25.7324Q142.48 25.7324 147.217 21.6797Q151.953 17.627 153.955 9.47266L156.25 0.292969ZM41.2109-10.8398L158.984-10.8398L169.824-55.0781L159.717-60.3027L134.082-42.2852Q132.764-41.4062 131.812-41.6016Q130.859-41.7969 130.078-42.8711L103.955-80.3223L96.1914-80.3711L70.1172-43.0176Q69.3848-41.9922 68.5059-41.7969Q67.627-41.6016 66.3574-42.4805L40.9668-60.3516L30.4688-54.5898ZM32.8125-44.6289Q37.4023-44.6289 41.1865-46.875Q44.9707-49.1211 47.2412-52.9297Q49.5117-56.7383 49.5117-61.377Q49.5117-65.918 47.2412-69.7266Q44.9707-73.5352 41.1865-75.7812Q37.4023-78.0273 32.8125-78.0273Q28.1738-78.0273 24.3896-75.7812Q20.6055-73.5352 18.335-69.751Q16.0645-65.9668 16.0645-61.377Q16.0645-56.7383 18.335-52.9297Q20.6055-49.1211 24.4141-46.875Q28.2227-44.6289 32.8125-44.6289ZM100.049-71.582Q104.639-71.582 108.447-73.8281Q112.256-76.0742 114.502-79.8828Q116.748-83.6914 116.748-88.2812Q116.748-92.8711 114.502-96.6553Q112.256-100.439 108.447-102.71Q104.639-104.98 100.049-104.98Q95.459-104.98 91.6504-102.734Q87.8418-100.488 85.5713-96.7041Q83.3008-92.9199 83.3008-88.2812Q83.3008-83.6914 85.5957-79.8828Q87.8906-76.0742 91.6748-73.8281Q95.459-71.582 100.049-71.582ZM167.139-44.6289Q171.729-44.6289 175.513-46.875Q179.297-49.1211 181.567-52.9297Q183.838-56.7383 183.838-61.377Q183.838-65.9668 181.567-69.751Q179.297-73.5352 175.513-75.7812Q171.729-78.0273 167.139-78.0273Q162.5-78.0273 158.716-75.7812Q154.932-73.5352 152.661-69.7266Q150.391-65.918 150.391-61.377Q150.391-56.7383 152.661-52.9297Q154.932-49.1211 158.716-46.875Q162.5-44.6289 167.139-44.6289Z"/>
  </g>
  <g id="Semibold-L" transform="matrix(1 0 0 1 1945.07 1556)">
   <path d="M43.5547 0.0976562L45.6543 8.64258Q47.5586 16.4551 52.0508 20.3369Q56.543 24.2188 64.5508 24.2188L131.934 24.2188Q139.99 24.2188 144.482 20.3613Q148.975 16.5039 150.879 8.64258L152.979 0.0976562ZM41.1133-9.81445L155.469-9.81445L166.504-55.0293L158.252-59.4727L132.129-41.0156Q130.615-39.9902 129.517-40.2344Q128.418-40.4785 127.49-41.748L101.416-79.4434L95.166-79.541L68.9453-41.6992Q68.1152-40.5762 67.0898-40.332Q66.0645-40.0879 64.6973-41.1133L38.7695-59.375L30.0293-54.9805ZM32.0312-44.6289Q36.4258-44.6289 40.0146-46.7773Q43.6035-48.9258 45.7764-52.5391Q47.9492-56.1523 47.9492-60.5957Q47.9492-64.9414 45.7764-68.5547Q43.6035-72.168 40.0146-74.3408Q36.4258-76.5137 32.0312-76.5137Q27.5879-76.5137 23.9746-74.3408Q20.3613-72.168 18.2129-68.5791Q16.0645-64.9902 16.0645-60.5957Q16.0645-56.1523 18.2373-52.5391Q20.4102-48.9258 24.0234-46.7773Q27.6367-44.6289 32.0312-44.6289ZM98.2422-70.8008Q102.637-70.8008 106.25-72.9492Q109.863-75.0977 112.012-78.7354Q114.16-82.373 114.16-86.7676Q114.16-91.1133 112.012-94.7266Q109.863-98.3398 106.25-100.488Q102.637-102.637 98.2422-102.637Q93.8477-102.637 90.2344-100.513Q86.6211-98.3887 84.4482-94.7754Q82.2754-91.1621 82.2754-86.7676Q82.2754-82.373 84.4727-78.7354Q86.6699-75.0977 90.2588-72.9492Q93.8477-70.8008 98.2422-70.8008ZM164.355-44.6289Q168.75-44.6289 172.363-46.7773Q175.977-48.9258 178.149-52.5391Q180.322-56.1523 180.322-60.5957Q180.322-64.9902 178.149-68.5791Q175.977-72.168 172.363-74.3408Q168.75-76.5137 164.355-76.5137Q159.961-76.5137 156.348-74.3408Q152.734-72.168 150.586-68.5547Q148.438-64.9414 148.438-60.5957Q148.438-56.1523 150.586-52.5391Q152.734-48.9258 156.348-46.7773Q159.961-44.6289 164.355-44.6289Z"/>
  </g>
  <g id="Medium-L" transform="matrix(1 0 0 1 1649.7 1556)">
   <path d="M43.2617 0L45.2637 8.00781Q47.1191 15.5762 51.416 19.3359Q55.7129 23.0957 63.4766 23.0957L130.273 23.0957Q138.086 23.0957 142.383 19.3604Q146.68 15.625 148.535 8.00781L150.537 0ZM41.0645-9.0332L152.783-9.0332L164.014-54.9805L157.178-58.8379L130.664-40.0391Q129.004-38.9648 127.783-39.2334Q126.562-39.502 125.586-40.8691L99.5117-78.8086L94.3359-78.9062L68.0664-40.6738Q67.1875-39.4531 66.0645-39.209Q64.9414-38.9648 63.4277-40.0391L37.1094-58.6426L29.6875-55.3223ZM31.4453-44.6289Q35.6445-44.6289 39.1113-46.7285Q42.5781-48.8281 44.6533-52.2949Q46.7285-55.7617 46.7285-60.0098Q46.7285-64.209 44.6533-67.7002Q42.5781-71.1914 39.1113-73.2666Q35.6445-75.3418 31.4453-75.3418Q27.1973-75.3418 23.7061-73.2666Q20.2148-71.1914 18.1396-67.7246Q16.0645-64.2578 16.0645-60.0098Q16.0645-55.7617 18.1396-52.2949Q20.2148-48.8281 23.7061-46.7285Q27.1973-44.6289 31.4453-44.6289ZM96.875-70.2637Q101.123-70.2637 104.614-72.3145Q108.105-74.3652 110.156-77.8564Q112.207-81.3477 112.207-85.5957Q112.207-89.7949 110.156-93.2617Q108.105-96.7285 104.614-98.8281Q101.123-100.928 96.875-100.928Q92.6758-100.928 89.1846-98.8525Q85.6934-96.7773 83.6182-93.3105Q81.543-89.8438 81.543-85.5957Q81.543-81.3477 83.6426-77.8564Q85.7422-74.3652 89.209-72.3145Q92.6758-70.2637 96.875-70.2637ZM162.305-44.6289Q166.504-44.6289 169.971-46.7285Q173.438-48.8281 175.537-52.2949Q177.637-55.7617 177.637-60.0098Q177.637-64.2578 175.562-67.7246Q173.486-71.1914 169.995-73.2666Q166.504-75.3418 162.305-75.3418Q158.057-75.3418 154.565-73.2666Q151.074-71.1914 149.023-67.7002Q146.973-64.209 146.973-60.0098Q146.973-55.7617 149.023-52.2949Q151.074-48.8281 154.565-46.7285Q158.057-44.6289 162.305-44.6289Z"/>
  </g>
  <g id="Regular-L" transform="matrix(1 0 0 1 1354.73 1556)">
   <path d="M42.9199-0.195312L44.7754 7.22656Q46.5332 14.4531 50.5859 18.0176Q54.6387 21.582 62.1094 21.582L128.125 21.582Q135.645 21.582 139.697 18.042Q143.75 14.502 145.508 7.22656L147.363-0.195312ZM41.0156-8.00781L149.316-8.00781L160.791-54.9316L155.762-58.0078L128.76-38.8184Q126.904-37.5977 125.537-37.8906Q124.17-38.1836 123.047-39.7461L97.0215-77.9785L93.3105-78.0762L66.8945-39.4043Q65.918-38.0371 64.6729-37.7686Q63.4277-37.5 61.7676-38.6719L34.9609-57.666L29.2969-55.7129ZM30.6641-44.6777Q34.668-44.6777 37.9639-46.6553Q41.2598-48.6328 43.2373-51.9287Q45.2148-55.2246 45.2148-59.2773Q45.2148-63.2324 43.2373-66.5527Q41.2598-69.873 37.9639-71.8506Q34.668-73.8281 30.6641-73.8281Q26.6113-73.8281 23.3154-71.8506Q20.0195-69.873 18.042-66.5771Q16.0645-63.2812 16.0645-59.2773Q16.0645-55.2246 18.042-51.9287Q20.0195-48.6328 23.3398-46.6553Q26.6602-44.6777 30.6641-44.6777ZM95.1172-69.5312Q99.1211-69.5312 102.441-71.4844Q105.762-73.4375 107.715-76.7578Q109.668-80.0781 109.668-84.082Q109.668-88.0859 107.715-91.3818Q105.762-94.6777 102.441-96.6553Q99.1211-98.6328 95.1172-98.6328Q91.1133-98.6328 87.793-96.6797Q84.4727-94.7266 82.4951-91.4307Q80.5176-88.1348 80.5176-84.082Q80.5176-80.0781 82.5195-76.7578Q84.5215-73.4375 87.8174-71.4844Q91.1133-69.5312 95.1172-69.5312ZM159.57-44.6777Q163.574-44.6777 166.87-46.6553Q170.166-48.6328 172.168-51.9287Q174.17-55.2246 174.17-59.2773Q174.17-63.2812 172.192-66.5771Q170.215-69.873 166.895-71.8506Q163.574-73.8281 159.57-73.8281Q155.566-73.8281 152.246-71.8506Q148.926-69.873 146.973-66.5527Q145.02-63.2324 145.02-59.2773Q145.02-55.2246 146.973-51.9287Q148.926-48.6328 152.246-46.6553Q155.566-44.6777 159.57-44.6777Z"/>
  </g>
  <g id="Light-L" transform="matrix(1 0 0 1 1060.43 1556)">
   <path d="M42.7734-0.390625L44.5801 6.83594Q46.2891 13.8672 50.1221 17.1631Q53.9551 20.459 60.9863 20.459L124.463 20.459Q131.592 20.459 135.425 17.1631Q139.258 13.8672 140.967 6.83594L142.725-0.390625ZM41.1133-7.08008L144.434-7.08008L155.42-51.9043L150.537-55.127L126.27-38.623Q124.121-37.2559 122.437-37.5732Q120.752-37.8906 119.336-39.7461L95.0684-73.7793L90.4785-73.8281L65.625-39.209Q64.4531-37.5977 62.9395-37.3535Q61.4258-37.1094 59.6191-38.3301L35.1562-54.9316L29.9805-52.3926ZM30.0293-44.7754Q33.8379-44.7754 36.9873-46.6553Q40.1367-48.5352 42.041-51.709Q43.9453-54.8828 43.9453-58.7402Q43.9453-62.5 42.041-65.6738Q40.1367-68.8477 36.9873-70.752Q33.8379-72.6562 30.0293-72.6562Q26.1719-72.6562 22.998-70.752Q19.8242-68.8477 17.9443-65.6982Q16.0645-62.5488 16.0645-58.7402Q16.0645-54.8828 17.9443-51.709Q19.8242-48.5352 22.998-46.6553Q26.1719-44.7754 30.0293-44.7754ZM92.7246-67.7734Q96.582-67.7734 99.7559-69.6533Q102.93-71.5332 104.785-74.707Q106.641-77.8809 106.641-81.6895Q106.641-85.5469 104.785-88.6963Q102.93-91.8457 99.7559-93.7256Q96.582-95.6055 92.7246-95.6055Q88.916-95.6055 85.7422-93.75Q82.5684-91.8945 80.6885-88.7207Q78.8086-85.5469 78.8086-81.6895Q78.8086-77.8809 80.7129-74.707Q82.6172-71.5332 85.7666-69.6533Q88.916-67.7734 92.7246-67.7734ZM155.42-44.7754Q159.229-44.7754 162.378-46.6553Q165.527-48.5352 167.432-51.709Q169.336-54.8828 169.336-58.7402Q169.336-62.5488 167.456-65.6982Q165.576-68.8477 162.402-70.752Q159.229-72.6562 155.42-72.6562Q151.562-72.6562 148.389-70.752Q145.215-68.8477 143.335-65.6738Q141.455-62.5 141.455-58.7402Q141.455-54.8828 143.335-51.709Q145.215-48.5352 148.389-46.6553Q151.562-44.7754 155.42-44.7754Z"/>
  </g>
  <g id="Thin-L" transform="matrix(1 0 0 1 766.896 1556)">
   <path d="M42.5781-0.634766L44.2871 6.29883Q45.9473 13.0371 49.4873 16.0156Q53.0273 18.9941 59.5215 18.9941L119.629 18.9941Q126.172 18.9941 129.712 16.0156Q133.252 13.0371 134.912 6.29883L136.621-0.634766ZM41.2598-5.9082L137.939-5.9082L148.291-47.9004L143.652-51.3184L122.998-38.3301Q120.459-36.7676 118.335-37.1338Q116.211-37.5 114.453-39.7949L92.5293-68.2129L86.7188-68.2129L63.9648-38.9648Q62.4512-37.0605 60.6201-36.8408Q58.7891-36.6211 56.7871-37.8906L35.4492-51.2695L30.8594-47.998ZM29.1504-44.873Q32.7637-44.873 35.7178-46.6553Q38.6719-48.4375 40.4785-51.416Q42.2852-54.3945 42.2852-57.959Q42.2852-61.5723 40.4785-64.5508Q38.6719-67.5293 35.7178-69.3115Q32.7637-71.0938 29.1504-71.0938Q25.5371-71.0938 22.5586-69.3115Q19.5801-67.5293 17.8223-64.5508Q16.0645-61.5723 16.0645-57.959Q16.0645-54.3945 17.8223-51.416Q19.5801-48.4375 22.583-46.6553Q25.5859-44.873 29.1504-44.873ZM89.5996-65.4785Q93.1641-65.4785 96.167-67.2363Q99.1699-68.9941 100.928-71.9971Q102.686-75 102.686-78.5645Q102.686-82.1777 100.928-85.1318Q99.1699-88.0859 96.167-89.8682Q93.1641-91.6504 89.5996-91.6504Q86.0352-91.6504 83.0322-89.8926Q80.0293-88.1348 78.2715-85.1562Q76.5137-82.1777 76.5137-78.5645Q76.5137-75 78.2959-71.9971Q80.0781-68.9941 83.0322-67.2363Q85.9863-65.4785 89.5996-65.4785ZM149.902-44.873Q153.467-44.873 156.445-46.6553Q159.424-48.4375 161.206-51.416Q162.988-54.3945 162.988-57.959Q162.988-61.5723 161.23-64.5508Q159.473-67.5293 156.47-69.3115Q153.467-71.0938 149.902-71.0938Q146.289-71.0938 143.311-69.3115Q140.332-67.5293 138.574-64.5508Q136.816-61.5723 136.816-57.959Q136.816-54.3945 138.574-51.416Q140.332-48.4375 143.311-46.6553Q146.289-44.873 149.902-44.873Z"/>
  </g>
  <g id="Ultralight-L" transform="matrix(1 0 0 1 471.82 1556)">
   <path d="M42.4805-0.732422L44.1406 6.00586Q45.752 12.6465 49.1455 15.4541Q52.5391 18.2617 58.7891 18.2617L117.188 18.2617Q123.438 18.2617 126.831 15.4541Q130.225 12.6465 131.836 6.00586L133.496-0.732422ZM41.3574-5.27344L134.619-5.27344L144.678-45.8496L140.137-49.3652L121.289-38.1836Q118.604-36.5234 116.235-36.8896Q113.867-37.2559 111.914-39.7949L91.2109-65.332L84.7656-65.332L63.1348-38.8184Q61.4746-36.7676 59.4482-36.5723Q57.4219-36.377 55.3223-37.6953L35.5957-49.4141L31.3477-45.752ZM28.7109-44.9707Q32.2266-44.9707 35.083-46.6553Q37.9395-48.3398 39.6729-51.2451Q41.4062-54.1504 41.4062-57.6172Q41.4062-61.084 39.6729-63.9648Q37.9395-66.8457 35.083-68.5547Q32.2266-70.2637 28.7109-70.2637Q25.2441-70.2637 22.3633-68.5547Q19.4824-66.8457 17.7734-63.9648Q16.0645-61.084 16.0645-57.6172Q16.0645-54.1504 17.7734-51.2451Q19.4824-48.3398 22.3633-46.6553Q25.2441-44.9707 28.7109-44.9707ZM87.9883-64.3066Q91.4551-64.3066 94.3359-66.0156Q97.2168-67.7246 98.9258-70.6055Q100.635-73.4863 100.635-76.9531Q100.635-80.4688 98.9258-83.3252Q97.2168-86.1816 94.3359-87.8906Q91.4551-89.5996 87.9883-89.5996Q84.5215-89.5996 81.6406-87.8906Q78.7598-86.1816 77.0508-83.3008Q75.3418-80.4199 75.3418-76.9531Q75.3418-73.4863 77.0508-70.6055Q78.7598-67.7246 81.6162-66.0156Q84.4727-64.3066 87.9883-64.3066ZM147.07-44.9707Q150.537-44.9707 153.418-46.6553Q156.299-48.3398 158.008-51.2451Q159.717-54.1504 159.717-57.6172Q159.717-61.084 158.008-63.9648Q156.299-66.8457 153.418-68.5547Q150.537-70.2637 147.07-70.2637Q143.555-70.2637 140.698-68.5547Q137.842-66.8457 136.108-63.9648Q134.375-61.084 134.375-57.6172Q134.375-54.1504 136.108-51.2451Q137.842-48.3398 140.698-46.6553Q143.555-44.9707 147.07-44.9707Z"/>
  </g>
  <g id="Black-M" transform="matrix(1 0 0 1 2851.05 1126)">
   <path d="M35.1074-7.22656L37.3535 1.85547Q39.1602 9.17969 43.6035 12.8418Q48.0469 16.5039 55.3223 16.5039L109.766 16.5039Q117.041 16.5039 121.46 12.8662Q125.879 9.22852 127.734 1.85547L129.98-7.22656ZM32.1777-19.3359L132.91-19.3359L140.381-49.707L126.66-56.3477L109.326-44.6289Q108.887-44.3359 108.496-44.3848Q108.105-44.4336 107.812-44.873L88.0859-71.4355L77.002-71.4355L57.666-45.4102Q57.373-45.0195 56.9824-44.9463Q56.5918-44.873 56.1523-45.2148L38.8672-56.8848L25.1465-47.8027ZM27.7344-42.4316Q31.9336-42.4316 35.4004-44.4824Q38.8672-46.5332 40.918-50.0244Q42.9688-53.5156 42.9688-57.7148Q42.9688-61.9141 40.918-65.3809Q38.8672-68.8477 35.4004-70.8984Q31.9336-72.9492 27.7344-72.9492Q23.5352-72.9492 20.0684-70.8984Q16.6016-68.8477 14.5264-65.3809Q12.4512-61.9141 12.4512-57.7148Q12.4512-53.5156 14.5264-50.0244Q16.6016-46.5332 20.0684-44.4824Q23.5352-42.4316 27.7344-42.4316ZM82.5195-65.1855Q86.7188-65.1855 90.1855-67.2607Q93.6523-69.3359 95.7031-72.8027Q97.7539-76.2695 97.7539-80.4688Q97.7539-84.668 95.7031-88.1348Q93.6523-91.6016 90.1855-93.6523Q86.7188-95.7031 82.5195-95.7031Q78.3203-95.7031 74.8535-93.6523Q71.3867-91.6016 69.3115-88.1348Q67.2363-84.668 67.2363-80.4688Q67.2363-76.2695 69.3115-72.8027Q71.3867-69.3359 74.8535-67.2607Q78.3203-65.1855 82.5195-65.1855ZM137.012-42.4316Q141.162-42.4316 144.629-44.4824Q148.096-46.5332 150.171-50.0244Q152.246-53.5156 152.246-57.7148Q152.246-61.9141 150.171-65.3809Q148.096-68.8477 144.629-70.8984Q141.162-72.9492 137.012-72.9492Q132.764-72.9492 129.297-70.8984Q125.83-68.8477 123.779-65.3809Q121.729-61.9141 121.729-57.7148Q121.729-53.5156 123.779-50.0244Q125.83-46.5332 129.297-44.4824Q132.764-42.4316 137.012-42.4316Z"/>
  </g>
  <g id="Heavy-M" transform="matrix(1 0 0 1 2556.05 1126)">
   <path d="M34.7168-7.42188L36.7676 0.927734Q38.4766 7.86133 42.627 11.3525Q46.7773 14.8438 53.7598 14.8438L107.764 14.8438Q114.795 14.8438 118.921 11.377Q123.047 7.91016 124.805 0.927734L126.904-7.42188ZM32.0801-18.2129L129.492-18.2129L137.402-50.293L125.977-55.9082L107.422-43.1152Q106.787-42.6758 106.274-42.749Q105.762-42.8223 105.371-43.4082L85.3027-71.2891L76.2695-71.2891L56.4453-43.7988Q56.1035-43.2617 55.6152-43.1641Q55.127-43.0664 54.4922-43.5547L36.084-56.25L24.4629-49.0234ZM26.9043-42.4316Q30.8594-42.4316 34.1309-44.3848Q37.4023-46.3379 39.3311-49.6094Q41.2598-52.8809 41.2598-56.8848Q41.2598-60.8398 39.3311-64.1113Q37.4023-67.3828 34.1309-69.3359Q30.8594-71.2891 26.9043-71.2891Q22.9004-71.2891 19.6289-69.3359Q16.3574-67.3828 14.4043-64.1113Q12.4512-60.8398 12.4512-56.8848Q12.4512-52.8809 14.4043-49.6094Q16.3574-46.3379 19.6289-44.3848Q22.9004-42.4316 26.9043-42.4316ZM80.7617-64.5996Q84.7168-64.5996 87.9883-66.5527Q91.2598-68.5059 93.2129-71.8018Q95.166-75.0977 95.166-79.0527Q95.166-83.0078 93.2129-86.2793Q91.2598-89.5508 87.9883-91.5039Q84.7168-93.457 80.7617-93.457Q76.8066-93.457 73.5352-91.5039Q70.2637-89.5508 68.3105-86.2793Q66.3574-83.0078 66.3574-79.0527Q66.3574-75.0977 68.3105-71.8018Q70.2637-68.5059 73.5352-66.5527Q76.8066-64.5996 80.7617-64.5996ZM134.424-42.4316Q138.33-42.4316 141.602-44.3848Q144.873-46.3379 146.851-49.6094Q148.828-52.8809 148.828-56.8848Q148.828-60.8398 146.875-64.1113Q144.922-67.3828 141.626-69.3359Q138.33-71.2891 134.424-71.2891Q130.42-71.2891 127.148-69.3359Q123.877-67.3828 121.948-64.1113Q120.02-60.8398 120.02-56.8848Q120.02-52.8809 121.948-49.6094Q123.877-46.3379 127.148-44.3848Q130.42-42.4316 134.424-42.4316Z"/>
  </g>
  <g id="Bold-M" transform="matrix(1 0 0 1 2261.27 1126)">
   <path d="M34.2285-7.61719L36.084-0.146484Q37.6953 6.39648 41.5527 9.69238Q45.4102 12.9883 52.0508 12.9883L105.566 12.9883Q112.256 12.9883 116.089 9.7168Q119.922 6.44531 121.582-0.146484L123.438-7.61719ZM31.9824-16.9922L125.732-16.9922L134.033-50.9766L125.195-55.4688L105.273-41.4062Q104.443-40.8203 103.784-40.9424Q103.125-41.0645 102.637-41.7969L82.1777-71.0938L75.4883-71.1426L55.127-41.9922Q54.6387-41.3574 54.0527-41.2109Q53.4668-41.0645 52.6367-41.6504L32.959-55.5664L23.7305-50.3906ZM25.9277-42.4805Q29.6387-42.4805 32.6904-44.2871Q35.7422-46.0938 37.5488-49.1699Q39.3555-52.2461 39.3555-55.957Q39.3555-59.668 37.5488-62.7197Q35.7422-65.7715 32.6904-67.5781Q29.6387-69.3848 25.9277-69.3848Q22.2168-69.3848 19.165-67.5781Q16.1133-65.7715 14.2822-62.7197Q12.4512-59.668 12.4512-55.957Q12.4512-52.2461 14.2822-49.1699Q16.1133-46.0938 19.1895-44.2871Q22.2656-42.4805 25.9277-42.4805ZM78.8086-64.0137Q82.5195-64.0137 85.5713-65.8203Q88.623-67.627 90.4297-70.7031Q92.2363-73.7793 92.2363-77.4902Q92.2363-81.1523 90.4297-84.2041Q88.623-87.2559 85.5713-89.0869Q82.5195-90.918 78.8086-90.918Q75.0977-90.918 72.0459-89.1113Q68.9941-87.3047 67.1631-84.2529Q65.332-81.2012 65.332-77.4902Q65.332-73.7793 67.1631-70.7031Q68.9941-67.627 72.0459-65.8203Q75.0977-64.0137 78.8086-64.0137ZM131.543-42.4805Q135.205-42.4805 138.257-44.2871Q141.309-46.0938 143.14-49.1699Q144.971-52.2461 144.971-55.957Q144.971-59.668 143.164-62.7197Q141.357-65.7715 138.281-67.5781Q135.205-69.3848 131.543-69.3848Q127.783-69.3848 124.731-67.5781Q121.68-65.7715 119.873-62.7197Q118.066-59.668 118.066-55.957Q118.066-52.2461 119.873-49.1699Q121.68-46.0938 124.731-44.2871Q127.783-42.4805 131.543-42.4805Z"/>
  </g>
  <g id="Semibold-M" transform="matrix(1 0 0 1 1965.87 1126)">
   <path d="M33.8867-7.71484L35.6445-0.830078Q37.1582 5.37109 40.7959 8.52051Q44.4336 11.6699 50.8789 11.6699L104.053 11.6699Q110.498 11.6699 114.136 8.54492Q117.773 5.41992 119.287-0.830078L121.045-7.71484ZM31.8848-16.1621L123.096-16.1621L131.738-51.416L124.609-55.127L103.76-40.1855Q102.783-39.502 102.051-39.6729Q101.318-39.8438 100.732-40.6738L80.0293-70.9473L74.9023-71.0449L54.1504-40.7715Q53.6621-39.9902 52.9785-39.8193Q52.2949-39.6484 51.3184-40.332L30.7617-55.0293L23.1934-51.3184ZM25.293-42.4805Q28.8086-42.4805 31.7139-44.2139Q34.6191-45.9473 36.3281-48.8525Q38.0371-51.7578 38.0371-55.3223Q38.0371-58.8379 36.3281-61.7188Q34.6191-64.5996 31.7139-66.333Q28.8086-68.0664 25.293-68.0664Q21.7285-68.0664 18.8232-66.333Q15.918-64.5996 14.1846-61.7188Q12.4512-58.8379 12.4512-55.3223Q12.4512-51.7578 14.1846-48.8525Q15.918-45.9473 18.8477-44.2139Q21.7773-42.4805 25.293-42.4805ZM77.4414-63.5742Q80.957-63.5742 83.8867-65.2832Q86.8164-66.9922 88.5254-69.9219Q90.2344-72.8516 90.2344-76.3672Q90.2344-79.8828 88.5254-82.7881Q86.8164-85.6934 83.8867-87.4268Q80.957-89.1602 77.4414-89.1602Q73.9258-89.1602 70.9961-87.4268Q68.0664-85.6934 66.3574-82.7881Q64.6484-79.8828 64.6484-76.3672Q64.6484-72.8516 66.3574-69.9219Q68.0664-66.9922 70.9961-65.2832Q73.9258-63.5742 77.4414-63.5742ZM129.541-42.4805Q133.008-42.4805 135.913-44.2139Q138.818-45.9473 140.576-48.8525Q142.334-51.7578 142.334-55.3223Q142.334-58.8379 140.601-61.7188Q138.867-64.5996 135.962-66.333Q133.057-68.0664 129.541-68.0664Q125.977-68.0664 123.071-66.333Q120.166-64.5996 118.457-61.7188Q116.748-58.8379 116.748-55.3223Q116.748-51.7578 118.457-48.8525Q120.166-45.9473 123.071-44.2139Q125.977-42.4805 129.541-42.4805Z"/>
  </g>
  <g id="Medium-M" transform="matrix(1 0 0 1 1670.16 1126)">
   <path d="M33.6426-7.8125L35.2539-1.36719Q36.7676 4.63867 40.2344 7.66602Q43.7012 10.6934 49.9512 10.6934L102.881 10.6934Q109.131 10.6934 112.622 7.69043Q116.113 4.6875 117.627-1.36719L119.189-7.8125ZM31.8359-15.4785L121.094-15.4785L129.98-51.8066L124.219-54.8828L102.637-39.3066Q101.562-38.5254 100.757-38.7207Q99.9512-38.916 99.3164-39.8438L78.418-70.8984L74.4629-70.9473L53.4668-39.7949Q52.8809-38.9648 52.1484-38.7695Q51.416-38.5742 50.3418-39.3555L29.1504-54.6875L22.8027-52.0508ZM24.7559-42.4805Q28.1738-42.4805 30.957-44.1406Q33.7402-45.8008 35.4004-48.6084Q37.0605-51.416 37.0605-54.834Q37.0605-58.2031 35.4004-60.9863Q33.7402-63.7695 30.957-65.4297Q28.1738-67.0898 24.7559-67.0898Q21.3867-67.0898 18.5791-65.4297Q15.7715-63.7695 14.1113-60.9863Q12.4512-58.2031 12.4512-54.834Q12.4512-51.416 14.1357-48.6084Q15.8203-45.8008 18.6279-44.1406Q21.4355-42.4805 24.7559-42.4805ZM76.416-63.2324Q79.7852-63.2324 82.5928-64.8926Q85.4004-66.5527 87.0605-69.3604Q88.7207-72.168 88.7207-75.5371Q88.7207-78.9062 87.0605-81.6895Q85.4004-84.4727 82.5928-86.1328Q79.7852-87.793 76.416-87.793Q73.0469-87.793 70.2393-86.1572Q67.4316-84.5215 65.7715-81.7383Q64.1113-78.9551 64.1113-75.5371Q64.1113-72.168 65.7715-69.3604Q67.4316-66.5527 70.2393-64.8926Q73.0469-63.2324 76.416-63.2324ZM127.979-42.4805Q131.348-42.4805 134.155-44.1406Q136.963-45.8008 138.647-48.6084Q140.332-51.416 140.332-54.834Q140.332-58.2031 138.672-60.9863Q137.012-63.7695 134.204-65.4297Q131.396-67.0898 127.979-67.0898Q124.609-67.0898 121.826-65.4297Q119.043-63.7695 117.383-60.9863Q115.723-58.2031 115.723-54.834Q115.723-51.416 117.383-48.6084Q119.043-45.8008 121.826-44.1406Q124.609-42.4805 127.979-42.4805Z"/>
  </g>
  <g id="Regular-M" transform="matrix(1 0 0 1 1374.77 1126)">
   <path d="M33.3496-7.95898L34.8145-2.09961Q36.2305 3.61328 39.4775 6.51855Q42.7246 9.42383 48.7793 9.42383L101.367 9.42383Q107.422 9.42383 110.693 6.54297Q113.965 3.66211 115.381-2.09961L116.846-7.95898ZM31.7383-14.6484L118.506-14.6484L127.686-52.2461L123.682-54.541L101.172-38.1348Q99.9512-37.2559 99.0479-37.4756Q98.1445-37.6953 97.4609-38.7207L76.2695-70.752L73.9258-70.8496L52.5391-38.5742Q51.9043-37.6465 51.0986-37.4268Q50.293-37.207 49.0723-38.0859L27.002-54.1992L22.3145-52.9785ZM24.1211-42.4805Q27.3438-42.4805 29.9805-44.0674Q32.6172-45.6543 34.1797-48.291Q35.7422-50.9277 35.7422-54.1992Q35.7422-57.373 34.1797-60.0098Q32.6172-62.6465 29.9805-64.2334Q27.3438-65.8203 24.1211-65.8203Q20.8984-65.8203 18.2373-64.2334Q15.5762-62.6465 14.0137-60.0098Q12.4512-57.373 12.4512-54.1992Q12.4512-50.9277 14.0381-48.291Q15.625-45.6543 18.2861-44.0674Q20.9473-42.4805 24.1211-42.4805ZM75.0977-62.793Q78.2715-62.793 80.9326-64.3555Q83.5938-65.918 85.1562-68.5791Q86.7188-71.2402 86.7188-74.4629Q86.7188-77.6367 85.1562-80.2734Q83.5938-82.9102 80.9326-84.4971Q78.2715-86.084 75.0977-86.084Q71.875-86.084 69.2139-84.5215Q66.5527-82.959 64.9902-80.3223Q63.4277-77.6855 63.4277-74.4629Q63.4277-71.2402 64.9902-68.5791Q66.5527-65.918 69.2139-64.3555Q71.875-62.793 75.0977-62.793ZM126.025-42.4805Q129.199-42.4805 131.86-44.0674Q134.521-45.6543 136.108-48.291Q137.695-50.9277 137.695-54.1992Q137.695-57.373 136.133-60.0098Q134.57-62.6465 131.909-64.2334Q129.248-65.8203 126.025-65.8203Q122.803-65.8203 120.166-64.2334Q117.529-62.6465 115.967-60.0098Q114.404-57.373 114.404-54.1992Q114.404-50.9277 115.967-48.291Q117.529-45.6543 120.166-44.0674Q122.803-42.4805 126.025-42.4805Z"/>
  </g>
  <g id="Light-M" transform="matrix(1 0 0 1 1080.21 1126)">
   <path d="M33.2031-8.10547L34.6191-2.44141Q35.9863 3.07617 39.0381 5.76172Q42.0898 8.44727 47.8027 8.44727L98.0957 8.44727Q103.76 8.44727 106.836 5.78613Q109.912 3.125 111.279-2.44141L112.695-8.10547ZM31.8359-13.8184L114.111-13.8184L122.852-49.5117L118.994-51.9531L98.9746-37.9395Q97.4609-36.9141 96.2646-37.1582Q95.0684-37.4023 94.1406-38.7207L74.5117-66.9922L71.3867-67.041L51.416-38.4277Q50.5859-37.2559 49.5361-37.0605Q48.4863-36.8652 47.168-37.793L27.1973-51.709L22.9004-50ZM23.5352-42.5781Q26.6113-42.5781 29.126-44.0674Q31.6406-45.5566 33.1299-48.0713Q34.6191-50.5859 34.6191-53.7109Q34.6191-56.7383 33.1299-59.2285Q31.6406-61.7188 29.126-63.2324Q26.6113-64.7461 23.5352-64.7461Q20.5078-64.7461 17.9688-63.2324Q15.4297-61.7188 13.9404-59.2285Q12.4512-56.7383 12.4512-53.7109Q12.4512-50.5859 13.9648-48.0713Q15.4785-45.5566 17.9932-44.0674Q20.5078-42.5781 23.5352-42.5781ZM72.9492-61.2305Q75.9766-61.2305 78.5156-62.7197Q81.0547-64.209 82.5439-66.748Q84.0332-69.2871 84.0332-72.3145Q84.0332-75.3418 82.5439-77.8564Q81.0547-80.3711 78.5156-81.8848Q75.9766-83.3984 72.9492-83.3984Q69.873-83.3984 67.3584-81.9092Q64.8438-80.4199 63.3545-77.9053Q61.8652-75.3906 61.8652-72.3145Q61.8652-69.2871 63.3545-66.748Q64.8438-64.209 67.3584-62.7197Q69.873-61.2305 72.9492-61.2305ZM122.314-42.5781Q125.342-42.5781 127.856-44.0674Q130.371-45.5566 131.885-48.0713Q133.398-50.5859 133.398-53.7109Q133.398-56.7383 131.909-59.2285Q130.42-61.7188 127.881-63.2324Q125.342-64.7461 122.314-64.7461Q119.238-64.7461 116.724-63.2324Q114.209-61.7188 112.72-59.2285Q111.23-56.7383 111.23-53.7109Q111.23-50.5859 112.72-48.0713Q114.209-45.5566 116.724-44.0674Q119.238-42.5781 122.314-42.5781Z"/>
  </g>
  <g id="Thin-M" transform="matrix(1 0 0 1 786.354 1126)">
   <path d="M33.0566-8.34961L34.375-2.92969Q35.6445 2.34375 38.4521 4.71191Q41.2598 7.08008 46.4355 7.08008L93.75 7.08008Q98.9258 7.08008 101.758 4.71191Q104.59 2.34375 105.859-2.92969L107.227-8.34961ZM31.9336-12.7441L108.301-12.7441L116.455-45.8984L112.842-48.5352L96.0449-37.6953Q94.1406-36.5234 92.6025-36.792Q91.0645-37.0605 89.7461-38.7695L72.2168-61.9629L68.0176-62.0117L49.9512-38.1836Q48.8281-36.7676 47.4854-36.5967Q46.1426-36.4258 44.6289-37.4023L27.4414-48.4863L23.7305-46.0938ZM22.8027-42.6758Q25.6348-42.6758 27.9541-44.0674Q30.2734-45.459 31.6895-47.8027Q33.1055-50.1465 33.1055-53.0273Q33.1055-55.8594 31.6895-58.2031Q30.2734-60.5469 27.9541-61.9629Q25.6348-63.3789 22.8027-63.3789Q19.9707-63.3789 17.6025-61.9629Q15.2344-60.5469 13.8428-58.2031Q12.4512-55.8594 12.4512-53.0273Q12.4512-50.1465 13.8428-47.8027Q15.2344-45.459 17.6025-44.0674Q19.9707-42.6758 22.8027-42.6758ZM70.1172-59.1797Q72.9492-59.1797 75.293-60.5713Q77.6367-61.9629 79.0527-64.3066Q80.4688-66.6504 80.4688-69.4824Q80.4688-72.3145 79.0527-74.6582Q77.6367-77.002 75.293-78.418Q72.9492-79.834 70.1172-79.834Q67.2852-79.834 64.9414-78.418Q62.5977-77.002 61.2061-74.6826Q59.8145-72.3633 59.8145-69.4824Q59.8145-66.6504 61.2061-64.3066Q62.5977-61.9629 64.9414-60.5713Q67.2852-59.1797 70.1172-59.1797ZM117.383-42.6758Q120.215-42.6758 122.559-44.0674Q124.902-45.459 126.294-47.8027Q127.686-50.1465 127.686-53.0273Q127.686-55.8594 126.294-58.2031Q124.902-60.5469 122.559-61.9629Q120.215-63.3789 117.383-63.3789Q114.502-63.3789 112.158-61.9629Q109.814-60.5469 108.447-58.2031Q107.08-55.8594 107.08-53.0273Q107.08-50.1465 108.447-47.8027Q109.814-45.459 112.158-44.0674Q114.502-42.6758 117.383-42.6758Z"/>
  </g>
  <g id="Ultralight-M" transform="matrix(1 0 0 1 491.108 1126)">
   <path d="M32.959-8.44727L34.2773-3.17383Q35.498 2.00195 38.1836 4.22363Q40.8691 6.44531 45.8008 6.44531L91.5527 6.44531Q96.4844 6.44531 99.1699 4.22363Q101.855 2.00195 103.076-3.17383L104.395-8.44727ZM32.0312-12.207L105.322-12.207L113.184-44.0918L109.668-46.7773L94.5312-37.5488Q92.4805-36.2793 90.7227-36.5723Q88.9648-36.8652 87.4512-38.7695L71.0449-59.4238L66.3086-59.4238L49.1699-38.0859Q47.9492-36.5234 46.4355-36.377Q44.9219-36.2305 43.3105-37.1582L27.5391-46.7773L24.1211-44.0918ZM22.4121-42.7734Q25.0977-42.7734 27.3682-44.0918Q29.6387-45.4102 30.9814-47.6807Q32.3242-49.9512 32.3242-52.6855Q32.3242-55.4199 30.9814-57.666Q29.6387-59.9121 27.3682-61.2793Q25.0977-62.6465 22.4121-62.6465Q19.6777-62.6465 17.4072-61.2793Q15.1367-59.9121 13.7939-57.666Q12.4512-55.4199 12.4512-52.6855Q12.4512-49.9512 13.7939-47.6807Q15.1367-45.4102 17.4072-44.0918Q19.6777-42.7734 22.4121-42.7734ZM68.7012-58.1055Q71.4355-58.1055 73.6816-59.4482Q75.9277-60.791 77.2705-63.0615Q78.6133-65.332 78.6133-68.0664Q78.6133-70.8008 77.2705-73.0469Q75.9277-75.293 73.6816-76.6357Q71.4355-77.9785 68.7012-77.9785Q65.918-77.9785 63.6719-76.6357Q61.4258-75.293 60.083-73.0469Q58.7402-70.8008 58.7402-68.0664Q58.7402-65.332 60.083-63.0615Q61.4258-60.791 63.6719-59.4482Q65.918-58.1055 68.7012-58.1055ZM114.844-42.7734Q117.578-42.7734 119.824-44.0918Q122.07-45.4102 123.413-47.6807Q124.756-49.9512 124.756-52.6855Q124.756-55.4199 123.413-57.666Q122.07-59.9121 119.824-61.2793Q117.578-62.6465 114.844-62.6465Q112.109-62.6465 109.839-61.2793Q107.568-59.9121 106.25-57.666Q104.932-55.4199 104.932-52.6855Q104.932-49.9512 106.25-47.6807Q107.568-45.4102 109.839-44.0918Q112.109-42.7734 114.844-42.7734Z"/>
  </g>
  <g id="Black-S" transform="matrix(1 0 0 1 2868.48 696)">
   <path d="M27.6367-13.2324L29.4434-5.9082Q30.8594-0.0488281 34.4238 2.85645Q37.9883 5.76172 43.75 5.76172L86.4258 5.76172Q92.1875 5.76172 95.7275 2.85645Q99.2676-0.0488281 100.732-5.9082L102.539-13.2324ZM25.2441-23.0469L104.932-23.0469L110.645-46.2402L99.1699-51.7578L86.1328-43.0664Q85.4492-42.627 85.0098-43.2129L69.7754-63.4277L60.4004-63.4277L45.5078-43.7012Q45.3125-43.4082 45.0195-43.3838Q44.7266-43.3594 44.3848-43.5547L31.3477-52.2461L19.9707-44.5312ZM21.9727-40.8691Q25.3418-40.8691 28.1006-42.5293Q30.8594-44.1895 32.4951-46.9482Q34.1309-49.707 34.1309-53.0762Q34.1309-56.4453 32.4951-59.2041Q30.8594-61.9629 28.1006-63.5986Q25.3418-65.2344 21.9727-65.2344Q18.6035-65.2344 15.8447-63.5986Q13.0859-61.9629 11.4258-59.2041Q9.76562-56.4453 9.76562-53.0762Q9.76562-49.707 11.4258-46.9482Q13.0859-44.1895 15.8447-42.5293Q18.6035-40.8691 21.9727-40.8691ZM65.0879-58.7891Q68.457-58.7891 71.2158-60.4492Q73.9746-62.1094 75.6104-64.8682Q77.2461-67.627 77.2461-70.9961Q77.2461-74.3652 75.6104-77.124Q73.9746-79.8828 71.2158-81.5186Q68.457-83.1543 65.0879-83.1543Q61.7188-83.1543 58.96-81.5186Q56.2012-79.8828 54.541-77.124Q52.8809-74.3652 52.8809-70.9961Q52.8809-67.627 54.541-64.8682Q56.2012-62.1094 58.96-60.4492Q61.7188-58.7891 65.0879-58.7891ZM107.91-40.8691Q111.279-40.8691 114.038-42.5293Q116.797-44.1895 118.433-46.9482Q120.068-49.707 120.068-53.0762Q120.068-56.4453 118.433-59.2041Q116.797-61.9629 114.038-63.5986Q111.279-65.2344 107.91-65.2344Q104.541-65.2344 101.782-63.5986Q99.0234-61.9629 97.3633-59.2041Q95.7031-56.4453 95.7031-53.0762Q95.7031-49.707 97.3633-46.9482Q99.0234-44.1895 101.782-42.5293Q104.541-40.8691 107.91-40.8691Z"/>
  </g>
  <g id="Heavy-S" transform="matrix(1 0 0 1 2572.97 696)">
   <path d="M27.2949-13.3789L28.9551-6.64062Q30.3223-1.12305 33.667 1.66016Q37.0117 4.44336 42.5781 4.44336L85.1562 4.44336Q90.7227 4.44336 94.043 1.68457Q97.3633-1.07422 98.7793-6.64062L100.439-13.3789ZM25.1465-22.2168L102.588-22.2168L108.691-47.0703L99.1699-51.709L84.7656-41.7969Q83.8867-41.1621 83.3496-41.9922L67.627-63.7695L60.1074-63.8184L44.6289-42.334Q44.3848-41.9434 44.043-41.8945Q43.7012-41.8457 43.2129-42.1387L28.9062-52.002L19.3359-45.9473ZM21.3379-40.8691Q24.5117-40.8691 27.124-42.4316Q29.7363-43.9941 31.2744-46.6064Q32.8125-49.2188 32.8125-52.4414Q32.8125-55.6152 31.2744-58.2275Q29.7363-60.8398 27.124-62.3779Q24.5117-63.916 21.3379-63.916Q18.1152-63.916 15.5029-62.3779Q12.8906-60.8398 11.3281-58.2275Q9.76562-55.6152 9.76562-52.4414Q9.76562-49.2188 11.3281-46.6064Q12.8906-43.9941 15.5029-42.4316Q18.1152-40.8691 21.3379-40.8691ZM63.8672-58.4961Q67.041-58.4961 69.6533-60.0586Q72.2656-61.6211 73.8037-64.2334Q75.3418-66.8457 75.3418-70.0684Q75.3418-73.2422 73.8037-75.8545Q72.2656-78.4668 69.6533-80.0049Q67.041-81.543 63.8672-81.543Q60.6934-81.543 58.0566-80.0049Q55.4199-78.4668 53.8574-75.8545Q52.2949-73.2422 52.2949-70.0684Q52.2949-66.8457 53.8574-64.2334Q55.4199-61.6211 58.0566-60.0586Q60.6934-58.4961 63.8672-58.4961ZM106.152-40.8691Q109.375-40.8691 111.987-42.4316Q114.6-43.9941 116.138-46.6064Q117.676-49.2188 117.676-52.4414Q117.676-55.6152 116.138-58.2275Q114.6-60.8398 111.987-62.3779Q109.375-63.916 106.152-63.916Q102.979-63.916 100.366-62.3779Q97.7539-60.8398 96.1914-58.2275Q94.6289-55.6152 94.6289-52.4414Q94.6289-49.2188 96.1914-46.6064Q97.7539-43.9941 100.366-42.4316Q102.979-40.8691 106.152-40.8691Z"/>
  </g>
  <g id="Bold-S" transform="matrix(1 0 0 1 2277.58 696)">
   <path d="M26.9531-13.5254L28.418-7.51953Q29.6875-2.29492 32.7881 0.366211Q35.8887 3.02734 41.2598 3.02734L83.7402 3.02734Q89.0625 3.02734 92.1631 0.366211Q95.2637-2.29492 96.582-7.51953L98.0469-13.5254ZM25.0488-21.2891L99.9512-21.2891L106.543-48.0469L99.1699-51.709L83.252-40.332Q82.1777-39.5996 81.4941-40.5762L65.1855-64.1602L59.8145-64.209L43.6035-40.8203Q43.3105-40.3809 42.9199-40.2588Q42.5293-40.1367 41.8945-40.5762L26.2207-51.7578L18.6035-47.5586ZM20.6055-40.8691Q23.584-40.8691 26.0254-42.334Q28.4668-43.7988 29.9072-46.2646Q31.3477-48.7305 31.3477-51.709Q31.3477-54.6875 29.9072-57.1289Q28.4668-59.5703 26.0254-61.0352Q23.584-62.5 20.6055-62.5Q17.627-62.5 15.1611-61.0352Q12.6953-59.5703 11.2305-57.1289Q9.76562-54.6875 9.76562-51.709Q9.76562-48.7305 11.2305-46.2646Q12.6953-43.7988 15.1611-42.334Q17.627-40.8691 20.6055-40.8691ZM62.5-58.2031Q65.4785-58.2031 67.9199-59.668Q70.3613-61.1328 71.8018-63.5742Q73.2422-66.0156 73.2422-68.9941Q73.2422-71.9727 71.8018-74.4141Q70.3613-76.8555 67.9199-78.3203Q65.4785-79.7852 62.5-79.7852Q59.5215-79.7852 57.0557-78.3203Q54.5898-76.8555 53.125-74.4141Q51.6602-71.9727 51.6602-68.9941Q51.6602-66.0156 53.125-63.5742Q54.5898-61.1328 57.0557-59.668Q59.5215-58.2031 62.5-58.2031ZM104.248-40.8691Q107.227-40.8691 109.668-42.334Q112.109-43.7988 113.574-46.2646Q115.039-48.7305 115.039-51.709Q115.039-54.6875 113.574-57.1289Q112.109-59.5703 109.668-61.0352Q107.227-62.5 104.248-62.5Q101.27-62.5 98.8281-61.0352Q96.3867-59.5703 94.9219-57.1289Q93.457-54.6875 93.457-51.709Q93.457-48.7305 94.9219-46.2646Q96.3867-43.7988 98.8281-42.334Q101.27-40.8691 104.248-40.8691Z"/>
  </g>
  <g id="Semibold-S" transform="matrix(1 0 0 1 1981.79 696)">
   <path d="M26.6602-13.623L28.0273-8.05664Q29.248-3.125 32.1777-0.561523Q35.1074 2.00195 40.332 2.00195L82.7637 2.00195Q87.9395 2.00195 90.8691-0.537109Q93.7988-3.07617 95.0195-8.05664L96.4355-13.623ZM24.9512-20.6055L98.1445-20.6055L105.029-48.6816L99.1699-51.6602L82.2266-39.3555Q81.0059-38.4766 80.2246-39.5996L63.5254-64.4043L59.5703-64.502L42.9199-39.7461Q42.5781-39.2578 42.1387-39.1113Q41.6992-38.9648 40.9668-39.502L24.3652-51.5625L18.0664-48.6816ZM20.0684-40.8691Q22.9004-40.8691 25.2197-42.2607Q27.5391-43.6523 28.9307-45.9961Q30.3223-48.3398 30.3223-51.1719Q30.3223-54.0039 28.9307-56.3232Q27.5391-58.6426 25.2197-60.0586Q22.9004-61.4746 20.0684-61.4746Q17.2363-61.4746 14.8926-60.083Q12.5488-58.6914 11.1572-56.3477Q9.76562-54.0039 9.76562-51.1719Q9.76562-48.3398 11.1572-45.9961Q12.5488-43.6523 14.8926-42.2607Q17.2363-40.8691 20.0684-40.8691ZM61.5234-57.959Q64.3555-57.959 66.6748-59.3506Q68.9941-60.7422 70.3857-63.0859Q71.7773-65.4297 71.7773-68.2617Q71.7773-71.0938 70.3857-73.4131Q68.9941-75.7324 66.6748-77.124Q64.3555-78.5156 61.5234-78.5156Q58.6914-78.5156 56.3477-77.124Q54.0039-75.7324 52.6123-73.4131Q51.2207-71.0938 51.2207-68.2617Q51.2207-65.4297 52.6123-63.0859Q54.0039-60.7422 56.3477-59.3506Q58.6914-57.959 61.5234-57.959ZM102.881-40.8691Q105.713-40.8691 108.057-42.2607Q110.4-43.6523 111.792-45.9961Q113.184-48.3398 113.184-51.1719Q113.184-54.0039 111.792-56.3477Q110.4-58.6914 108.081-60.083Q105.762-61.4746 102.881-61.4746Q100.049-61.4746 97.7295-60.0586Q95.4102-58.6426 94.0186-56.3232Q92.627-54.0039 92.627-51.1719Q92.627-48.3398 94.0186-45.9961Q95.4102-43.6523 97.7295-42.2607Q100.049-40.8691 102.881-40.8691Z"/>
  </g>
  <g id="Medium-S" transform="matrix(1 0 0 1 1685.79 696)">
   <path d="M26.4648-13.7207L27.7344-8.49609Q28.9551-3.71094 31.7383-1.24512Q34.5215 1.2207 39.6484 1.2207L82.0312 1.2207Q87.0605 1.2207 89.8926-1.24512Q92.7246-3.71094 93.8965-8.49609L95.166-13.7207ZM24.9023-20.1172L96.7773-20.1172L103.857-49.2188L99.1699-51.6602L81.3965-38.5742Q80.0781-37.5977 79.248-38.8672L62.2559-64.6484L59.375-64.6973L42.3828-38.916Q42.041-38.3789 41.5527-38.2324Q41.0645-38.0859 40.2832-38.6719L22.9492-51.4648L17.6758-49.5117ZM19.6777-40.8691Q22.4121-40.8691 24.6582-42.2119Q26.9043-43.5547 28.2471-45.8008Q29.5898-48.0469 29.5898-50.7812Q29.5898-53.5156 28.2471-55.7617Q26.9043-58.0078 24.6582-59.3506Q22.4121-60.6934 19.6777-60.6934Q16.9434-60.6934 14.6973-59.375Q12.4512-58.0566 11.1084-55.7861Q9.76562-53.5156 9.76562-50.7812Q9.76562-48.0469 11.1084-45.8008Q12.4512-43.5547 14.6973-42.2119Q16.9434-40.8691 19.6777-40.8691ZM60.791-57.7637Q63.5254-57.7637 65.7715-59.1064Q68.0176-60.4492 69.3604-62.7197Q70.7031-64.9902 70.7031-67.7246Q70.7031-70.459 69.3604-72.6807Q68.0176-74.9023 65.7715-76.2451Q63.5254-77.5879 60.791-77.5879Q58.0566-77.5879 55.8105-76.2451Q53.5645-74.9023 52.2217-72.6807Q50.8789-70.459 50.8789-67.7246Q50.8789-64.9902 52.2217-62.7197Q53.5645-60.4492 55.8105-59.1064Q58.0566-57.7637 60.791-57.7637ZM101.855-40.8691Q104.59-40.8691 106.86-42.2119Q109.131-43.5547 110.449-45.8008Q111.768-48.0469 111.768-50.7812Q111.768-53.5156 110.449-55.7861Q109.131-58.0566 106.885-59.375Q104.639-60.6934 101.855-60.6934Q99.1211-60.6934 96.8994-59.3506Q94.6777-58.0078 93.335-55.7617Q91.9922-53.5156 91.9922-50.7812Q91.9922-48.0469 93.335-45.8008Q94.6777-43.5547 96.8994-42.2119Q99.1211-40.8691 101.855-40.8691Z"/>
  </g>
  <g id="Regular-S" transform="matrix(1 0 0 1 1389.98 696)">
   <path d="M26.2207-13.8184L27.3438-9.08203Q28.5156-4.54102 31.1523-2.14844Q33.7891 0.244141 38.7207 0.244141L81.0547 0.244141Q85.9375 0.244141 88.5986-2.12402Q91.2598-4.49219 92.3828-9.08203L93.5547-13.8184ZM24.8047-19.4824L94.9707-19.4824L102.393-49.8535L99.1699-51.6113L80.3711-37.5977Q78.9062-36.5234 77.9785-37.9395L60.5957-64.8926L59.1797-64.9902L41.6992-37.8906Q41.3086-37.3047 40.7959-37.1094Q40.2832-36.9141 39.4043-37.5977L21.0938-51.2695L17.1875-50.5859ZM19.1895-40.8691Q21.7773-40.8691 23.9014-42.1387Q26.0254-43.4082 27.2949-45.5566Q28.5645-47.7051 28.5645-50.293Q28.5645-52.8809 27.2949-55.0049Q26.0254-57.1289 23.9014-58.4229Q21.7773-59.7168 19.1895-59.7168Q16.6016-59.7168 14.4531-58.4473Q12.3047-57.1777 11.0352-55.0293Q9.76562-52.8809 9.76562-50.293Q9.76562-47.7051 11.0352-45.5566Q12.3047-43.4082 14.4531-42.1387Q16.6016-40.8691 19.1895-40.8691ZM59.8633-57.5684Q62.4512-57.5684 64.5752-58.8379Q66.6992-60.1074 67.9688-62.2559Q69.2383-64.4043 69.2383-66.9922Q69.2383-69.5801 67.9688-71.7041Q66.6992-73.8281 64.5752-75.0977Q62.4512-76.3672 59.8633-76.3672Q57.2754-76.3672 55.127-75.0977Q52.9785-73.8281 51.709-71.7041Q50.4395-69.5801 50.4395-66.9922Q50.4395-64.4043 51.709-62.2559Q52.9785-60.1074 55.127-58.8379Q57.2754-57.5684 59.8633-57.5684ZM100.537-40.8691Q103.125-40.8691 105.273-42.1387Q107.422-43.4082 108.691-45.5566Q109.961-47.7051 109.961-50.293Q109.961-52.8809 108.691-55.0293Q107.422-57.1777 105.298-58.4473Q103.174-59.7168 100.537-59.7168Q97.9492-59.7168 95.8252-58.4229Q93.7012-57.1289 92.4316-55.0049Q91.1621-52.8809 91.1621-50.293Q91.1621-47.7051 92.4316-45.5566Q93.7012-43.4082 95.8252-42.1387Q97.9492-40.8691 100.537-40.8691Z"/>
  </g>
  <g id="Light-S" transform="matrix(1 0 0 1 1095.17 696)">
   <path d="M26.123-13.9648L27.1973-9.42383Q28.3203-5.0293 30.7861-2.83203Q33.252-0.634766 37.8418-0.634766L78.125-0.634766Q82.7148-0.634766 85.2051-2.80762Q87.6953-4.98047 88.7695-9.42383L89.8926-13.9648ZM24.9023-18.75L91.0645-18.75L98.1445-47.4609L95.0195-49.3164L78.418-37.4512Q76.3672-36.084 75.0488-37.9395L59.082-61.5234L56.9336-61.6211L40.7227-37.7441Q40.1367-36.9629 39.4043-36.792Q38.6719-36.6211 37.6953-37.3535L21.2402-49.0723L17.7246-47.9492ZM18.6523-40.9668Q21.1426-40.9668 23.1445-42.1631Q25.1465-43.3594 26.3672-45.3857Q27.5879-47.4121 27.5879-49.8535Q27.5879-52.2949 26.3672-54.3213Q25.1465-56.3477 23.1445-57.5684Q21.1426-58.7891 18.6523-58.7891Q16.2109-58.7891 14.1846-57.5928Q12.1582-56.3965 10.9619-54.3457Q9.76562-52.2949 9.76562-49.8535Q9.76562-47.4121 10.9619-45.3857Q12.1582-43.3594 14.1846-42.1631Q16.2109-40.9668 18.6523-40.9668ZM57.959-56.2012Q60.4004-56.2012 62.4268-57.3975Q64.4531-58.5938 65.6494-60.6201Q66.8457-62.6465 66.8457-65.0879Q66.8457-67.5293 65.6494-69.5557Q64.4531-71.582 62.4268-72.7783Q60.4004-73.9746 57.959-73.9746Q55.5176-73.9746 53.4912-72.7783Q51.4648-71.582 50.2686-69.5557Q49.0723-67.5293 49.0723-65.0879Q49.0723-62.6465 50.2686-60.6201Q51.4648-58.5938 53.4912-57.3975Q55.5176-56.2012 57.959-56.2012ZM97.2168-40.9668Q99.707-40.9668 101.733-42.1631Q103.76-43.3594 104.956-45.3857Q106.152-47.4121 106.152-49.8535Q106.152-52.2949 104.956-54.3457Q103.76-56.3965 101.733-57.5928Q99.707-58.7891 97.2168-58.7891Q94.7754-58.7891 92.7734-57.5684Q90.7715-56.3477 89.5752-54.3213Q88.3789-52.2949 88.3789-49.8535Q88.3789-47.4121 89.5752-45.3857Q90.7715-43.3594 92.7734-42.1631Q94.7754-40.9668 97.2168-40.9668Z"/>
  </g>
  <g id="Thin-S" transform="matrix(1 0 0 1 800.978 696)">
   <path d="M25.9277-14.1113L27.002-9.81445Q28.0273-5.61523 30.2734-3.71094Q32.5195-1.80664 36.6699-1.80664L74.3164-1.80664Q78.4668-1.80664 80.7129-3.71094Q82.959-5.61523 83.9844-9.81445L85.0586-14.1113ZM25-17.8223L85.9375-17.8223L92.4805-44.2871L89.5508-46.2891L75.7812-37.207Q73.0469-35.4492 71.1426-37.9883L57.0312-57.1289L53.9551-57.1289L39.4043-37.5977Q38.623-36.5234 37.5977-36.377Q36.5723-36.2305 35.4492-37.0117L21.4355-46.1914L18.457-44.4824ZM18.0176-41.0645Q20.2637-41.0645 22.1191-42.1631Q23.9746-43.2617 25.0977-45.1416Q26.2207-47.0215 26.2207-49.2676Q26.2207-51.5625 25.0977-53.4424Q23.9746-55.3223 22.1191-56.4209Q20.2637-57.5195 18.0176-57.5195Q15.7227-57.5195 13.8672-56.4209Q12.0117-55.3223 10.8887-53.4424Q9.76562-51.5625 9.76562-49.2676Q9.76562-47.0215 10.8887-45.1416Q12.0117-43.2617 13.8672-42.1631Q15.7227-41.0645 18.0176-41.0645ZM55.4688-54.3457Q57.7637-54.3457 59.6191-55.4688Q61.4746-56.5918 62.5977-58.4473Q63.7207-60.3027 63.7207-62.5977Q63.7207-64.8926 62.5977-66.748Q61.4746-68.6035 59.6191-69.7266Q57.7637-70.8496 55.4688-70.8496Q53.1738-70.8496 51.3184-69.7266Q49.4629-68.6035 48.3398-66.748Q47.2168-64.8926 47.2168-62.5977Q47.2168-60.3027 48.3398-58.4473Q49.4629-56.5918 51.3184-55.4688Q53.1738-54.3457 55.4688-54.3457ZM92.8711-41.0645Q95.166-41.0645 97.0215-42.1631Q98.877-43.2617 100-45.1416Q101.123-47.0215 101.123-49.2676Q101.123-51.5625 100-53.4424Q98.877-55.3223 97.0215-56.4209Q95.166-57.5195 92.8711-57.5195Q90.625-57.5195 88.7451-56.4209Q86.8652-55.3223 85.7666-53.4424Q84.668-51.5625 84.668-49.2676Q84.668-47.0215 85.7666-45.1416Q86.8652-43.2617 88.7451-42.1631Q90.625-41.0645 92.8711-41.0645Z"/>
  </g>
  <g id="Ultralight-S" transform="matrix(1 0 0 1 505.536 696)">
   <path d="M25.8789-14.209L26.9043-10.0586Q27.8809-5.95703 30.0293-4.1748Q32.1777-2.39258 36.084-2.39258L72.3145-2.39258Q76.2695-2.39258 78.418-4.1748Q80.5664-5.95703 81.543-10.0586L82.5684-14.209ZM25.0977-17.334L83.3008-17.334L89.5996-42.6758L86.7676-44.7754L74.4629-37.1094Q71.3379-35.1562 69.1895-37.9883L56.0059-54.834L52.3926-54.8828L38.7695-37.5Q37.793-36.3281 36.6455-36.1816Q35.498-36.0352 34.3262-36.8164L21.5332-44.7266L18.7988-42.6758ZM17.627-41.1133Q19.8242-41.1133 21.6064-42.1631Q23.3887-43.2129 24.4873-45.0195Q25.5859-46.8262 25.5859-48.9746Q25.5859-51.1719 24.4873-52.9785Q23.3887-54.7852 21.6064-55.835Q19.8242-56.8848 17.627-56.8848Q15.4785-56.8848 13.6963-55.835Q11.9141-54.7852 10.8398-52.9785Q9.76562-51.1719 9.76562-48.9746Q9.76562-46.8262 10.8398-45.0195Q11.9141-43.2129 13.6963-42.1631Q15.4785-41.1133 17.627-41.1133ZM54.1992-53.418Q56.3477-53.418 58.1299-54.4922Q59.9121-55.5664 61.0107-57.3486Q62.1094-59.1309 62.1094-61.3281Q62.1094-63.4766 61.0107-65.2588Q59.9121-67.041 58.1299-68.1396Q56.3477-69.2383 54.1992-69.2383Q52.002-69.2383 50.2197-68.1396Q48.4375-67.041 47.3633-65.2588Q46.2891-63.4766 46.2891-61.3281Q46.2891-59.1309 47.3633-57.3486Q48.4375-55.5664 50.2197-54.4922Q52.002-53.418 54.1992-53.418ZM90.625-41.1133Q92.8223-41.1133 94.6045-42.1631Q96.3867-43.2129 97.4854-45.0195Q98.584-46.8262 98.584-48.9746Q98.584-51.1719 97.4854-52.9785Q96.3867-54.7852 94.6045-55.835Q92.8223-56.8848 90.625-56.8848Q88.4766-56.8848 86.6943-55.835Q84.9121-54.7852 83.8379-52.9785Q82.7637-51.1719 82.7637-48.9746Q82.7637-46.8262 83.8379-45.0195Q84.9121-43.2129 86.6943-42.1631Q88.4766-41.1133 90.625-41.1133Z"/>
  </g>
 </g>
</svg>
