<?xml version="1.0" encoding="UTF-8"?>
<!--Generator: Apple Native CoreSVG 175-->
<!DOCTYPE svg
PUBLIC "-//W3C//DTD SVG 1.1//EN"
       "http://www.w3.org/Graphics/SVG/1.1/DTD/svg11.dtd">
<svg version="1.1" xmlns="http://www.w3.org/2000/svg" xmlns:xlink="http://www.w3.org/1999/xlink" width="3300" height="2200">
 <!--glyph: "uni1003DC.medium", point size: 100.0, font version: "17.0d11e1", template writer version: "65.1"-->
 <style>.multicolor-0:tertiaryLabelColor {fill:#BDBDBD;opacity:1.0}
.multicolor-1:systemRedColor {fill:#FF3B30;opacity:1.0}
.multicolor-2:systemYellowColor {fill:#FFCC00;opacity:1.0}
.multicolor-3:systemGreenColor {fill:#28CD41;opacity:1.0}
.multicolor-4:tertiaryLabelColor {fill:#BDBDBD;opacity:0.5}

.SFSymbolsPreview28CD41 {fill:#28CD41;opacity:1.0}
.SFSymbolsPreviewBDBDBD {fill:#BDBDBD;opacity:1.0}
.SFSymbolsPreviewDEDEDE {fill:#DEDEDE;opacity:1.0}
.SFSymbolsPreviewFF3B30 {fill:#FF3B30;opacity:1.0}
.SFSymbolsPreviewFFCC00 {fill:#FFCC00;opacity:1.0}
</style>
 <g id="Notes">
  <rect height="2200" id="artboard" style="fill:white;opacity:1" width="3300" x="0" y="0"/>
  <line style="fill:none;stroke:black;opacity:1;stroke-width:0.5;" x1="263" x2="3036" y1="292" y2="292"/>
  <text style="stroke:none;fill:black;font-family:sans-serif;font-size:13;font-weight:bold;" transform="matrix(1 0 0 1 263 322)">Weight/Scale Variations</text>
  <text style="stroke:none;fill:black;font-family:sans-serif;font-size:13;text-anchor:middle;" transform="matrix(1 0 0 1 559.711 322)">Ultralight</text>
  <text style="stroke:none;fill:black;font-family:sans-serif;font-size:13;text-anchor:middle;" transform="matrix(1 0 0 1 856.422 322)">Thin</text>
  <text style="stroke:none;fill:black;font-family:sans-serif;font-size:13;text-anchor:middle;" transform="matrix(1 0 0 1 1153.13 322)">Light</text>
  <text style="stroke:none;fill:black;font-family:sans-serif;font-size:13;text-anchor:middle;" transform="matrix(1 0 0 1 1449.84 322)">Regular</text>
  <text style="stroke:none;fill:black;font-family:sans-serif;font-size:13;text-anchor:middle;" transform="matrix(1 0 0 1 1746.56 322)">Medium</text>
  <text style="stroke:none;fill:black;font-family:sans-serif;font-size:13;text-anchor:middle;" transform="matrix(1 0 0 1 2043.27 322)">Semibold</text>
  <text style="stroke:none;fill:black;font-family:sans-serif;font-size:13;text-anchor:middle;" transform="matrix(1 0 0 1 2339.98 322)">Bold</text>
  <text style="stroke:none;fill:black;font-family:sans-serif;font-size:13;text-anchor:middle;" transform="matrix(1 0 0 1 2636.69 322)">Heavy</text>
  <text style="stroke:none;fill:black;font-family:sans-serif;font-size:13;text-anchor:middle;" transform="matrix(1 0 0 1 2933.4 322)">Black</text>
  <line style="fill:none;stroke:black;opacity:1;stroke-width:0.5;" x1="263" x2="3036" y1="1903" y2="1903"/>
  <g transform="matrix(1 0 0 1 263 1933)">
   <path d="M9.24805 0.830078Q10.8691 0.830078 12.2949 0.214844Q13.7207-0.400391 14.8096-1.49414Q15.8984-2.58789 16.5186-4.01367Q17.1387-5.43945 17.1387-7.05078Q17.1387-8.66211 16.5186-10.0879Q15.8984-11.5137 14.8047-12.6074Q13.7109-13.7012 12.2852-14.3164Q10.8594-14.9316 9.23828-14.9316Q7.62695-14.9316 6.20117-14.3164Q4.77539-13.7012 3.69141-12.6074Q2.60742-11.5137 1.9873-10.0879Q1.36719-8.66211 1.36719-7.05078Q1.36719-5.43945 1.9873-4.01367Q2.60742-2.58789 3.69629-1.49414Q4.78516-0.400391 6.21094 0.214844Q7.63672 0.830078 9.24805 0.830078ZM9.24805-0.654297Q7.91992-0.654297 6.7627-1.14746Q5.60547-1.64062 4.73145-2.51953Q3.85742-3.39844 3.36426-4.56055Q2.87109-5.72266 2.87109-7.05078Q2.87109-8.37891 3.35938-9.54102Q3.84766-10.7031 4.72168-11.582Q5.5957-12.4609 6.75293-12.9541Q7.91016-13.4473 9.23828-13.4473Q10.5762-13.4473 11.7334-12.9541Q12.8906-12.4609 13.7695-11.582Q14.6484-10.7031 15.1465-9.54102Q15.6445-8.37891 15.6445-7.05078Q15.6445-5.72266 15.1514-4.56055Q14.6582-3.39844 13.7842-2.51953Q12.9102-1.64062 11.748-1.14746Q10.5859-0.654297 9.24805-0.654297ZM5.6543-7.05078Q5.6543-6.72852 5.85938-6.52832Q6.06445-6.32812 6.40625-6.32812L8.51562-6.32812L8.51562-4.20898Q8.51562-3.88672 8.71094-3.67676Q8.90625-3.4668 9.23828-3.4668Q9.56055-3.4668 9.77051-3.67676Q9.98047-3.88672 9.98047-4.20898L9.98047-6.32812L12.0898-6.32812Q12.4219-6.32812 12.627-6.52832Q12.832-6.72852 12.832-7.05078Q12.832-7.38281 12.627-7.58789Q12.4219-7.79297 12.0898-7.79297L9.98047-7.79297L9.98047-9.90234Q9.98047-10.2344 9.77051-10.4443Q9.56055-10.6543 9.23828-10.6543Q8.90625-10.6543 8.71094-10.4443Q8.51562-10.2344 8.51562-9.90234L8.51562-7.79297L6.40625-7.79297Q6.06445-7.79297 5.85938-7.58789Q5.6543-7.38281 5.6543-7.05078Z"/>
  </g>
  <g transform="matrix(1 0 0 1 281.867 1933)">
   <path d="M11.709 2.91016Q13.75 2.91016 15.5518 2.12891Q17.3535 1.34766 18.7305-0.0292969Q20.1074-1.40625 20.8887-3.20801Q21.6699-5.00977 21.6699-7.05078Q21.6699-9.0918 20.8887-10.8936Q20.1074-12.6953 18.7305-14.0723Q17.3535-15.4492 15.5469-16.2305Q13.7402-17.0117 11.6992-17.0117Q9.6582-17.0117 7.85645-16.2305Q6.05469-15.4492 4.68262-14.0723Q3.31055-12.6953 2.5293-10.8936Q1.74805-9.0918 1.74805-7.05078Q1.74805-5.00977 2.5293-3.20801Q3.31055-1.40625 4.6875-0.0292969Q6.06445 1.34766 7.86621 2.12891Q9.66797 2.91016 11.709 2.91016ZM11.709 1.25Q9.98047 1.25 8.47656 0.605469Q6.97266-0.0390625 5.83496-1.17676Q4.69727-2.31445 4.05762-3.81836Q3.41797-5.32227 3.41797-7.05078Q3.41797-8.7793 4.05762-10.2832Q4.69727-11.7871 5.83008-12.9297Q6.96289-14.0723 8.4668-14.7119Q9.9707-15.3516 11.6992-15.3516Q13.4277-15.3516 14.9316-14.7119Q16.4355-14.0723 17.5781-12.9297Q18.7207-11.7871 19.3652-10.2832Q20.0098-8.7793 20.0098-7.05078Q20.0098-5.32227 19.3701-3.81836Q18.7305-2.31445 17.5928-1.17676Q16.4551-0.0390625 14.9463 0.605469Q13.4375 1.25 11.709 1.25ZM7.17773-7.05078Q7.17773-6.69922 7.41211-6.47461Q7.64648-6.25 8.01758-6.25L10.8887-6.25L10.8887-3.36914Q10.8887-2.99805 11.1133-2.76855Q11.3379-2.53906 11.6895-2.53906Q12.0605-2.53906 12.29-2.76855Q12.5195-2.99805 12.5195-3.36914L12.5195-6.25L15.4004-6.25Q15.7715-6.25 16.001-6.47461Q16.2305-6.69922 16.2305-7.05078Q16.2305-7.42188 16.001-7.65137Q15.7715-7.88086 15.4004-7.88086L12.5195-7.88086L12.5195-10.752Q12.5195-11.1328 12.29-11.3623Q12.0605-11.5918 11.6895-11.5918Q11.3379-11.5918 11.1133-11.3574Q10.8887-11.123 10.8887-10.752L10.8887-7.88086L8.01758-7.88086Q7.63672-7.88086 7.40723-7.65137Q7.17773-7.42188 7.17773-7.05078Z"/>
  </g>
  <g transform="matrix(1 0 0 1 305.646 1933)">
   <path d="M14.9707 5.66406Q17.0605 5.66406 18.96 5.01465Q20.8594 4.36523 22.4512 3.19336Q24.043 2.02148 25.2197 0.429688Q26.3965-1.16211 27.0459-3.06641Q27.6953-4.9707 27.6953-7.05078Q27.6953-9.14062 27.0459-11.04Q26.3965-12.9395 25.2197-14.5312Q24.043-16.123 22.4512-17.2998Q20.8594-18.4766 18.9551-19.126Q17.0508-19.7754 14.9609-19.7754Q12.8711-19.7754 10.9717-19.126Q9.07227-18.4766 7.48535-17.2998Q5.89844-16.123 4.72168-14.5312Q3.54492-12.9395 2.90039-11.04Q2.25586-9.14062 2.25586-7.05078Q2.25586-4.9707 2.90527-3.06641Q3.55469-1.16211 4.72656 0.429688Q5.89844 2.02148 7.49023 3.19336Q9.08203 4.36523 10.9814 5.01465Q12.8809 5.66406 14.9707 5.66406ZM14.9707 3.84766Q13.1641 3.84766 11.5283 3.2959Q9.89258 2.74414 8.53516 1.74805Q7.17773 0.751953 6.17676-0.610352Q5.17578-1.97266 4.62891-3.6084Q4.08203-5.24414 4.08203-7.05078Q4.08203-8.86719 4.62891-10.5029Q5.17578-12.1387 6.17188-13.501Q7.16797-14.8633 8.52539-15.8594Q9.88281-16.8555 11.5186-17.4023Q13.1543-17.9492 14.9609-17.9492Q16.7773-17.9492 18.4131-17.4023Q20.0488-16.8555 21.4111-15.8594Q22.7734-14.8633 23.7695-13.501Q24.7656-12.1387 25.3174-10.5029Q25.8691-8.86719 25.8691-7.05078Q25.8789-5.24414 25.332-3.6084Q24.7852-1.97266 23.7842-0.610352Q22.7832 0.751953 21.4209 1.74805Q20.0586 2.74414 18.4229 3.2959Q16.7871 3.84766 14.9707 3.84766ZM9.19922-7.05078Q9.19922-6.66992 9.45801-6.4209Q9.7168-6.17188 10.1172-6.17188L14.0625-6.17188L14.0625-2.2168Q14.0625-1.81641 14.3115-1.55762Q14.5605-1.29883 14.9512-1.29883Q15.3516-1.29883 15.6104-1.55273Q15.8691-1.80664 15.8691-2.2168L15.8691-6.17188L19.8242-6.17188Q20.2246-6.17188 20.4785-6.4209Q20.7324-6.66992 20.7324-7.05078Q20.7324-7.46094 20.4785-7.71484Q20.2246-7.96875 19.8242-7.96875L15.8691-7.96875L15.8691-11.9141Q15.8691-12.3242 15.6104-12.583Q15.3516-12.8418 14.9512-12.8418Q14.5605-12.8418 14.3115-12.583Q14.0625-12.3242 14.0625-11.9141L14.0625-7.96875L10.1172-7.96875Q9.70703-7.96875 9.45312-7.71484Q9.19922-7.46094 9.19922-7.05078Z"/>
  </g>
  <text style="stroke:none;fill:black;font-family:sans-serif;font-size:13;font-weight:bold;" transform="matrix(1 0 0 1 263 1953)">Design Variations</text>
  <text style="stroke:none;fill:black;font-family:sans-serif;font-size:13;" transform="matrix(1 0 0 1 263 1971)">Symbols are supported in up to nine weights and three scales.</text>
  <text style="stroke:none;fill:black;font-family:sans-serif;font-size:13;" transform="matrix(1 0 0 1 263 1989)">For optimal layout with text and other symbols, vertically align</text>
  <text style="stroke:none;fill:black;font-family:sans-serif;font-size:13;" transform="matrix(1 0 0 1 263 2007)">symbols with the adjacent text.</text>
  <line style="fill:none;stroke:#00AEEF;stroke-width:0.5;opacity:1.0;" x1="776" x2="776" y1="1919" y2="1933"/>
  <g transform="matrix(1 0 0 1 776 1933)">
   <path d="M3.31055 0.15625Q3.70117 0.15625 3.91602-0.00976562Q4.13086-0.175781 4.26758-0.585938L5.52734-4.0332L11.2891-4.0332L12.5488-0.585938Q12.6855-0.175781 12.9004-0.00976562Q13.1152 0.15625 13.4961 0.15625Q13.8867 0.15625 14.1162-0.0585938Q14.3457-0.273438 14.3457-0.644531Q14.3457-0.869141 14.2383-1.17188L9.6582-13.3691Q9.48242-13.8184 9.17969-14.043Q8.87695-14.2676 8.4082-14.2676Q7.5-14.2676 7.17773-13.3789L2.59766-1.16211Q2.49023-0.859375 2.49023-0.634766Q2.49023-0.263672 2.70996-0.0537109Q2.92969 0.15625 3.31055 0.15625ZM6.00586-5.51758L8.37891-12.0898L8.42773-12.0898L10.8008-5.51758Z"/>
  </g>
  <line style="fill:none;stroke:#00AEEF;stroke-width:0.5;opacity:1.0;" x1="793.197" x2="793.197" y1="1919" y2="1933"/>
  <text style="stroke:none;fill:black;font-family:sans-serif;font-size:13;font-weight:bold;" transform="matrix(1 0 0 1 776 1953)">Margins</text>
  <text style="stroke:none;fill:black;font-family:sans-serif;font-size:13;" transform="matrix(1 0 0 1 776 1971)">Leading and trailing margins on the left and right side of each symbol</text>
  <text style="stroke:none;fill:black;font-family:sans-serif;font-size:13;" transform="matrix(1 0 0 1 776 1989)">can be adjusted by modifying the x-location of the margin guidelines.</text>
  <text style="stroke:none;fill:black;font-family:sans-serif;font-size:13;" transform="matrix(1 0 0 1 776 2007)">Modifications are automatically applied proportionally to all</text>
  <text style="stroke:none;fill:black;font-family:sans-serif;font-size:13;" transform="matrix(1 0 0 1 776 2025)">scales and weights.</text>
  <g transform="matrix(1 0 0 1 1289 1933)">
   <path d="M2.8418 1.86523L4.54102 3.57422Q5.18555 4.22852 5.90332 4.17969Q6.62109 4.13086 7.31445 3.35938L18.0078-8.42773L17.041-9.4043L6.42578 2.27539Q6.16211 2.57812 5.89355 2.61719Q5.625 2.65625 5.27344 2.30469L4.10156 1.14258Q3.75 0.791016 3.79395 0.522461Q3.83789 0.253906 4.14062-0.0195312L15.6152-10.8203L14.6387-11.7871L3.04688-0.898438Q2.30469-0.214844 2.25098 0.498047Q2.19727 1.21094 2.8418 1.86523ZM9.25781-16.3281Q8.94531-16.0254 8.90625-15.6348Q8.86719-15.2441 9.04297-14.9512Q9.21875-14.6777 9.55566-14.541Q9.89258-14.4043 10.3809-14.5215Q11.4746-14.7754 12.5977-14.7314Q13.7207-14.6875 14.7949-13.9844L14.209-12.5293Q13.9551-11.9043 14.0674-11.4404Q14.1797-10.9766 14.5801-10.5664L16.875-8.25195Q17.2363-7.88086 17.5781-7.82227Q17.9199-7.76367 18.3398-7.8418L19.4043-8.03711L20.0684-7.36328L20.0293-6.80664Q20-6.43555 20.1221-6.12305Q20.2441-5.81055 20.6055-5.44922L21.3672-4.70703Q21.7285-4.3457 22.1533-4.33105Q22.5781-4.31641 22.9297-4.66797L25.8398-7.58789Q26.1914-7.93945 26.1816-8.35449Q26.1719-8.76953 25.8105-9.13086L25.0391-9.89258Q24.6875-10.2539 24.3799-10.3857Q24.0723-10.5176 23.7109-10.4883L23.1348-10.4395L22.4902-11.0742L22.7344-12.1973Q22.832-12.6172 22.6953-12.9834Q22.5586-13.3496 22.1191-13.7891L19.9219-15.9766Q18.6719-17.2168 17.2607-17.8369Q15.8496-18.457 14.4189-18.4814Q12.9883-18.5059 11.665-17.959Q10.3418-17.4121 9.25781-16.3281ZM10.752-15.957Q11.6602-16.6211 12.7002-16.9043Q13.7402-17.1875 14.8047-17.085Q15.8691-16.9824 16.8701-16.5137Q17.8711-16.0449 18.7012-15.2051L21.1328-12.793Q21.3086-12.6172 21.3525-12.4512Q21.3965-12.2852 21.3379-12.0312L21.0156-10.5469L22.5195-9.0625L23.5059-9.12109Q23.6914-9.13086 23.7891-9.09668Q23.8867-9.0625 24.0332-8.91602L24.6094-8.33984L22.168-5.89844L21.5918-6.47461Q21.4453-6.62109 21.4062-6.71875Q21.3672-6.81641 21.377-7.01172L21.4453-7.98828L19.9512-9.47266L18.4277-9.21875Q18.1836-9.16992 18.042-9.2041Q17.9004-9.23828 17.7148-9.41406L15.7129-11.416Q15.5176-11.5918 15.4932-11.7529Q15.4688-11.9141 15.5859-12.1875L16.4648-14.2773Q15.293-15.3711 13.8281-15.791Q12.3633-16.2109 10.8398-15.7617Q10.7227-15.7324 10.6885-15.8057Q10.6543-15.8789 10.752-15.957Z"/>
  </g>
  <text style="stroke:none;fill:black;font-family:sans-serif;font-size:13;font-weight:bold;" transform="matrix(1 0 0 1 1289 1953)">Exporting</text>
  <text style="stroke:none;fill:black;font-family:sans-serif;font-size:13;" transform="matrix(1 0 0 1 1289 1971)">Symbols should be outlined when exporting to ensure the</text>
  <text style="stroke:none;fill:black;font-family:sans-serif;font-size:13;" transform="matrix(1 0 0 1 1289 1989)">design is preserved when submitting to Xcode.</text>
  <text id="template-version" style="stroke:none;fill:black;font-family:sans-serif;font-size:13;text-anchor:end;" transform="matrix(1 0 0 1 3036 1933)">Template v.3.0</text>
  <text style="stroke:none;fill:black;font-family:sans-serif;font-size:13;text-anchor:end;" transform="matrix(1 0 0 1 3036 1951)">Requires Xcode 13 or greater</text>
  <text id="descriptive-name" style="stroke:none;fill:black;font-family:sans-serif;font-size:13;text-anchor:end;" transform="matrix(1 0 0 1 3036 1969)">Generated from macwindow</text>
  <text style="stroke:none;fill:black;font-family:sans-serif;font-size:13;text-anchor:end;" transform="matrix(1 0 0 1 3036 1987)">Typeset at 100 points</text>
  <text style="stroke:none;fill:black;font-family:sans-serif;font-size:13;" transform="matrix(1 0 0 1 263 726)">Small</text>
  <text style="stroke:none;fill:black;font-family:sans-serif;font-size:13;" transform="matrix(1 0 0 1 263 1156)">Medium</text>
  <text style="stroke:none;fill:black;font-family:sans-serif;font-size:13;" transform="matrix(1 0 0 1 263 1586)">Large</text>
 </g>
 <g id="Guides">
  <g id="H-reference" style="fill:#27AAE1;stroke:none;" transform="matrix(1 0 0 1 339 696)">
   <path d="M0.976562 0L3.66211 0L29.3457-67.1387L30.0293-67.1387L30.0293-70.459L28.125-70.459ZM11.6699-24.4629L46.9727-24.4629L46.2402-26.709L12.4512-26.709ZM55.127 0L57.7637 0L30.6152-70.459L29.4434-70.459L29.4434-67.1387Z"/>
  </g>
  <line id="Baseline-S" style="fill:none;stroke:#27AAE1;opacity:1;stroke-width:0.5;" x1="263" x2="3036" y1="696" y2="696"/>
  <line id="Capline-S" style="fill:none;stroke:#27AAE1;opacity:1;stroke-width:0.5;" x1="263" x2="3036" y1="625.541" y2="625.541"/>
  <g id="H-reference" style="fill:#27AAE1;stroke:none;" transform="matrix(1 0 0 1 339 1126)">
   <path d="M0.976562 0L3.66211 0L29.3457-67.1387L30.0293-67.1387L30.0293-70.459L28.125-70.459ZM11.6699-24.4629L46.9727-24.4629L46.2402-26.709L12.4512-26.709ZM55.127 0L57.7637 0L30.6152-70.459L29.4434-70.459L29.4434-67.1387Z"/>
  </g>
  <line id="Baseline-M" style="fill:none;stroke:#27AAE1;opacity:1;stroke-width:0.5;" x1="263" x2="3036" y1="1126" y2="1126"/>
  <line id="Capline-M" style="fill:none;stroke:#27AAE1;opacity:1;stroke-width:0.5;" x1="263" x2="3036" y1="1055.54" y2="1055.54"/>
  <g id="H-reference" style="fill:#27AAE1;stroke:none;" transform="matrix(1 0 0 1 339 1556)">
   <path d="M0.976562 0L3.66211 0L29.3457-67.1387L30.0293-67.1387L30.0293-70.459L28.125-70.459ZM11.6699-24.4629L46.9727-24.4629L46.2402-26.709L12.4512-26.709ZM55.127 0L57.7637 0L30.6152-70.459L29.4434-70.459L29.4434-67.1387Z"/>
  </g>
  <line id="Baseline-L" style="fill:none;stroke:#27AAE1;opacity:1;stroke-width:0.5;" x1="263" x2="3036" y1="1556" y2="1556"/>
  <line id="Capline-L" style="fill:none;stroke:#27AAE1;opacity:1;stroke-width:0.5;" x1="263" x2="3036" y1="1485.54" y2="1485.54"/>
  <line id="left-margin-Ultralight-S" style="fill:none;stroke:#00AEEF;stroke-width:0.5;opacity:1.0;" x1="505.707" x2="505.707" y1="600.785" y2="720.121"/>
  <line id="right-margin-Ultralight-S" style="fill:none;stroke:#00AEEF;stroke-width:0.5;opacity:1.0;" x1="613.715" x2="613.715" y1="600.785" y2="720.121"/>
  <line id="left-margin-Thin-S" style="fill:none;stroke:#00AEEF;stroke-width:0.5;opacity:1.0;" x1="802.174" x2="802.174" y1="600.785" y2="720.121"/>
  <line id="right-margin-Thin-S" style="fill:none;stroke:#00AEEF;stroke-width:0.5;opacity:1.0;" x1="910.67" x2="910.67" y1="600.785" y2="720.121"/>
  <line id="left-margin-Light-S" style="fill:none;stroke:#00AEEF;stroke-width:0.5;opacity:1.0;" x1="1098.42" x2="1098.42" y1="600.785" y2="720.121"/>
  <line id="right-margin-Light-S" style="fill:none;stroke:#00AEEF;stroke-width:0.5;opacity:1.0;" x1="1207.85" x2="1207.85" y1="600.785" y2="720.121"/>
  <line id="left-margin-Regular-S" style="fill:none;stroke:#00AEEF;stroke-width:0.5;opacity:1.0;" x1="1394.79" x2="1394.79" y1="600.785" y2="720.121"/>
  <line id="right-margin-Regular-S" style="fill:none;stroke:#00AEEF;stroke-width:0.5;opacity:1.0;" x1="1504.9" x2="1504.9" y1="600.785" y2="720.121"/>
  <line id="left-margin-Medium-S" style="fill:none;stroke:#00AEEF;stroke-width:0.5;opacity:1.0;" x1="1691.33" x2="1691.33" y1="600.785" y2="720.121"/>
  <line id="right-margin-Medium-S" style="fill:none;stroke:#00AEEF;stroke-width:0.5;opacity:1.0;" x1="1801.78" x2="1801.78" y1="600.785" y2="720.121"/>
  <line id="left-margin-Semibold-S" style="fill:none;stroke:#00AEEF;stroke-width:0.5;opacity:1.0;" x1="1987.9" x2="1987.9" y1="600.785" y2="720.121"/>
  <line id="right-margin-Semibold-S" style="fill:none;stroke:#00AEEF;stroke-width:0.5;opacity:1.0;" x1="2098.64" x2="2098.64" y1="600.785" y2="720.121"/>
  <line id="left-margin-Bold-S" style="fill:none;stroke:#00AEEF;stroke-width:0.5;opacity:1.0;" x1="2284.41" x2="2284.41" y1="600.785" y2="720.121"/>
  <line id="right-margin-Bold-S" style="fill:none;stroke:#00AEEF;stroke-width:0.5;opacity:1.0;" x1="2395.54" x2="2395.54" y1="600.785" y2="720.121"/>
  <line id="left-margin-Heavy-S" style="fill:none;stroke:#00AEEF;stroke-width:0.5;opacity:1.0;" x1="2580.88" x2="2580.88" y1="600.785" y2="720.121"/>
  <line id="right-margin-Heavy-S" style="fill:none;stroke:#00AEEF;stroke-width:0.5;opacity:1.0;" x1="2692.5" x2="2692.5" y1="600.785" y2="720.121"/>
  <line id="left-margin-Black-S" style="fill:none;stroke:#00AEEF;stroke-width:0.5;opacity:1.0;" x1="2877.35" x2="2877.35" y1="600.785" y2="720.121"/>
  <line id="right-margin-Black-S" style="fill:none;stroke:#00AEEF;stroke-width:0.5;opacity:1.0;" x1="2989.45" x2="2989.45" y1="600.785" y2="720.121"/>
  <line id="left-margin-Ultralight-M" style="fill:none;stroke:#00AEEF;stroke-width:0.5;opacity:1.0;" x1="490.863" x2="490.863" y1="1030.79" y2="1150.12"/>
  <line id="right-margin-Ultralight-M" style="fill:none;stroke:#00AEEF;stroke-width:0.5;opacity:1.0;" x1="628.559" x2="628.559" y1="1030.79" y2="1150.12"/>
  <line id="left-margin-Thin-M" style="fill:none;stroke:#00AEEF;stroke-width:0.5;opacity:1.0;" x1="787.306" x2="787.306" y1="1030.79" y2="1150.12"/>
  <line id="right-margin-Thin-M" style="fill:none;stroke:#00AEEF;stroke-width:0.5;opacity:1.0;" x1="925.538" x2="925.538" y1="1030.79" y2="1150.12"/>
  <line id="left-margin-Light-M" style="fill:none;stroke:#00AEEF;stroke-width:0.5;opacity:1.0;" x1="1083.5" x2="1083.5" y1="1030.79" y2="1150.12"/>
  <line id="right-margin-Light-M" style="fill:none;stroke:#00AEEF;stroke-width:0.5;opacity:1.0;" x1="1222.76" x2="1222.76" y1="1030.79" y2="1150.12"/>
  <line id="left-margin-Regular-M" style="fill:none;stroke:#00AEEF;stroke-width:0.5;opacity:1.0;" x1="1379.82" x2="1379.82" y1="1030.79" y2="1150.12"/>
  <line id="right-margin-Regular-M" style="fill:none;stroke:#00AEEF;stroke-width:0.5;opacity:1.0;" x1="1519.86" x2="1519.86" y1="1030.79" y2="1150.12"/>
  <line id="left-margin-Medium-M" style="fill:none;stroke:#00AEEF;stroke-width:0.5;opacity:1.0;" x1="1676.29" x2="1676.29" y1="1030.79" y2="1150.12"/>
  <line id="right-margin-Medium-M" style="fill:none;stroke:#00AEEF;stroke-width:0.5;opacity:1.0;" x1="1816.82" x2="1816.82" y1="1030.79" y2="1150.12"/>
  <line id="left-margin-Semibold-M" style="fill:none;stroke:#00AEEF;stroke-width:0.5;opacity:1.0;" x1="1972.81" x2="1972.81" y1="1030.79" y2="1150.12"/>
  <line id="right-margin-Semibold-M" style="fill:none;stroke:#00AEEF;stroke-width:0.5;opacity:1.0;" x1="2113.73" x2="2113.73" y1="1030.79" y2="1150.12"/>
  <line id="left-margin-Bold-M" style="fill:none;stroke:#00AEEF;stroke-width:0.5;opacity:1.0;" x1="2269.25" x2="2269.25" y1="1030.79" y2="1150.12"/>
  <line id="right-margin-Bold-M" style="fill:none;stroke:#00AEEF;stroke-width:0.5;opacity:1.0;" x1="2410.71" x2="2410.71" y1="1030.79" y2="1150.12"/>
  <line id="left-margin-Heavy-M" style="fill:none;stroke:#00AEEF;stroke-width:0.5;opacity:1.0;" x1="2565.6" x2="2565.6" y1="1030.79" y2="1150.12"/>
  <line id="right-margin-Heavy-M" style="fill:none;stroke:#00AEEF;stroke-width:0.5;opacity:1.0;" x1="2707.78" x2="2707.78" y1="1030.79" y2="1150.12"/>
  <line id="left-margin-Black-M" style="fill:none;stroke:#00AEEF;stroke-width:0.5;opacity:1.0;" x1="2861.96" x2="2861.96" y1="1030.79" y2="1150.12"/>
  <line id="right-margin-Black-M" style="fill:none;stroke:#00AEEF;stroke-width:0.5;opacity:1.0;" x1="3004.84" x2="3004.84" y1="1030.79" y2="1150.12"/>
  <line id="left-margin-Ultralight-L" style="fill:none;stroke:#00AEEF;stroke-width:0.5;opacity:1.0;" x1="471.015" x2="471.015" y1="1460.79" y2="1580.12"/>
  <line id="right-margin-Ultralight-L" style="fill:none;stroke:#00AEEF;stroke-width:0.5;opacity:1.0;" x1="648.407" x2="648.407" y1="1460.79" y2="1580.12"/>
  <line id="left-margin-Thin-L" style="fill:none;stroke:#00AEEF;stroke-width:0.5;opacity:1.0;" x1="767.409" x2="767.409" y1="1460.79" y2="1580.12"/>
  <line id="right-margin-Thin-L" style="fill:none;stroke:#00AEEF;stroke-width:0.5;opacity:1.0;" x1="945.436" x2="945.436" y1="1460.79" y2="1580.12"/>
  <line id="left-margin-Light-L" style="fill:none;stroke:#00AEEF;stroke-width:0.5;opacity:1.0;" x1="1063.53" x2="1063.53" y1="1460.79" y2="1580.12"/>
  <line id="right-margin-Light-L" style="fill:none;stroke:#00AEEF;stroke-width:0.5;opacity:1.0;" x1="1242.73" x2="1242.73" y1="1460.79" y2="1580.12"/>
  <line id="left-margin-Regular-L" style="fill:none;stroke:#00AEEF;stroke-width:0.5;opacity:1.0;" x1="1359.81" x2="1359.81" y1="1460.79" y2="1580.12"/>
  <line id="right-margin-Regular-L" style="fill:none;stroke:#00AEEF;stroke-width:0.5;opacity:1.0;" x1="1539.88" x2="1539.88" y1="1460.79" y2="1580.12"/>
  <line id="left-margin-Medium-L" style="fill:none;stroke:#00AEEF;stroke-width:0.5;opacity:1.0;" x1="1656.17" x2="1656.17" y1="1460.79" y2="1580.12"/>
  <line id="right-margin-Medium-L" style="fill:none;stroke:#00AEEF;stroke-width:0.5;opacity:1.0;" x1="1836.94" x2="1836.94" y1="1460.79" y2="1580.12"/>
  <line id="left-margin-Semibold-L" style="fill:none;stroke:#00AEEF;stroke-width:0.5;opacity:1.0;" x1="1952.64" x2="1952.64" y1="1460.79" y2="1580.12"/>
  <line id="right-margin-Semibold-L" style="fill:none;stroke:#00AEEF;stroke-width:0.5;opacity:1.0;" x1="2133.89" x2="2133.89" y1="1460.79" y2="1580.12"/>
  <line id="left-margin-Bold-L" style="fill:none;stroke:#00AEEF;stroke-width:0.5;opacity:1.0;" x1="2249.01" x2="2249.01" y1="1460.79" y2="1580.12"/>
  <line id="right-margin-Bold-L" style="fill:none;stroke:#00AEEF;stroke-width:0.5;opacity:1.0;" x1="2430.94" x2="2430.94" y1="1460.79" y2="1580.12"/>
  <line id="left-margin-Heavy-L" style="fill:none;stroke:#00AEEF;stroke-width:0.5;opacity:1.0;" x1="2545.23" x2="2545.23" y1="1460.79" y2="1580.12"/>
  <line id="right-margin-Heavy-L" style="fill:none;stroke:#00AEEF;stroke-width:0.5;opacity:1.0;" x1="2728.14" x2="2728.14" y1="1460.79" y2="1580.12"/>
  <line id="left-margin-Black-L" style="fill:none;stroke:#00AEEF;stroke-width:0.5;opacity:1.0;" x1="2841.51" x2="2841.51" y1="1460.79" y2="1580.12"/>
  <line id="right-margin-Black-L" style="fill:none;stroke:#00AEEF;stroke-width:0.5;opacity:1.0;" x1="3025.29" x2="3025.29" y1="1460.79" y2="1580.12"/>
 </g>
 <g id="Symbols">
  <g id="Black-L" transform="matrix(1 0 0 1 2841.51 1556)">
   <path class="multicolor-0:tertiaryLabelColor SFSymbolsPreviewBDBDBD" d="M16.0645 2.68555Q16.0645 14.1113 22.3145 20.3125Q28.5645 26.5137 39.9902 26.5137L143.799 26.5137Q155.225 26.5137 161.475 20.3125Q167.725 14.1113 167.725 2.68555L167.725-73.0957Q167.725-84.4727 161.475-90.6738Q155.225-96.875 143.799-96.875L39.9902-96.875Q28.5645-96.875 22.3145-90.6738Q16.0645-84.4727 16.0645-73.0957Z"/>
   <path class="multicolor-1:systemRedColor SFSymbolsPreviewFF3B30" d="M44.2383-72.168Q41.4062-72.168 39.4287-74.1699Q37.4512-76.1719 37.4512-78.9551Q37.4512-81.7383 39.4287-83.7402Q41.4062-85.7422 44.2383-85.7422Q47.0215-85.7422 48.999-83.7402Q50.9766-81.7383 50.9766-78.9551Q50.9766-76.1719 48.999-74.1699Q47.0215-72.168 44.2383-72.168Z"/>
   <path class="multicolor-2:systemYellowColor SFSymbolsPreviewFFCC00" d="M64.6973-72.168Q61.8652-72.168 59.8877-74.1699Q57.9102-76.1719 57.9102-78.9551Q57.9102-81.7383 59.8877-83.7402Q61.8652-85.7422 64.6973-85.7422Q67.5293-85.7422 69.5068-83.7402Q71.4844-81.7383 71.4844-78.9551Q71.4844-76.1719 69.5068-74.1699Q67.5293-72.168 64.6973-72.168Z"/>
   <path class="multicolor-3:systemGreenColor SFSymbolsPreview28CD41" d="M85.2051-72.168Q82.3242-72.168 80.3467-74.1699Q78.3691-76.1719 78.3691-78.9551Q78.3691-81.7383 80.3467-83.7402Q82.3242-85.7422 85.2051-85.7422Q87.9883-85.7422 89.9658-83.7402Q91.9434-81.7383 91.9434-78.9551Q91.9434-76.1719 89.9658-74.1699Q87.9883-72.168 85.2051-72.168Z"/>
   <path class="multicolor-0:tertiaryLabelColor multicolor-4:tertiaryLabelColor SFSymbolsPreviewDEDEDE" d="M36.3281-0.146484L36.3281-60.9375L147.461-60.9375L147.461-0.146484Q147.461 3.27148 145.85 4.78516Q144.238 6.29883 141.064 6.29883L42.6758 6.29883Q39.5508 6.29883 37.9395 4.78516Q36.3281 3.27148 36.3281-0.146484Z"/>
  </g>
  <g id="Heavy-L" transform="matrix(1 0 0 1 2545.23 1556)">
   <path class="multicolor-0:tertiaryLabelColor SFSymbolsPreviewBDBDBD" d="M16.0645 2.88086Q16.0645 13.8184 21.9727 19.6533Q27.8809 25.4883 38.8184 25.4883L144.092 25.4883Q155.029 25.4883 160.938 19.6289Q166.846 13.7695 166.846 2.88086L166.846-73.2422Q166.846-84.1309 160.938-89.9902Q155.029-95.8496 144.092-95.8496L38.8184-95.8496Q27.8809-95.8496 21.9727-89.9902Q16.0645-84.1309 16.0645-73.2422Z"/>
   <path class="multicolor-1:systemRedColor SFSymbolsPreviewFF3B30" d="M42.0898-72.1191Q39.4043-72.1191 37.5244-74.0234Q35.6445-75.9277 35.6445-78.5645Q35.6445-81.1523 37.5244-83.0566Q39.4043-84.9609 42.0898-84.9609Q44.7266-84.9609 46.6064-83.0566Q48.4863-81.1523 48.4863-78.5645Q48.4863-75.9277 46.6064-74.0234Q44.7266-72.1191 42.0898-72.1191Z"/>
   <path class="multicolor-2:systemYellowColor SFSymbolsPreviewFFCC00" d="M61.7676-72.1191Q59.082-72.1191 57.2021-74.0234Q55.3223-75.9277 55.3223-78.5645Q55.3223-81.1523 57.2021-83.0566Q59.082-84.9609 61.7676-84.9609Q64.4531-84.9609 66.3086-83.0566Q68.1641-81.1523 68.1641-78.5645Q68.1641-75.9277 66.3086-74.0234Q64.4531-72.1191 61.7676-72.1191Z"/>
   <path class="multicolor-3:systemGreenColor SFSymbolsPreview28CD41" d="M81.4453-72.1191Q78.7598-72.1191 76.8799-74.0234Q75-75.9277 75-78.5645Q75-81.1523 76.8799-83.0566Q78.7598-84.9609 81.4453-84.9609Q84.082-84.9609 85.9619-83.0566Q87.8418-81.1523 87.8418-78.5645Q87.8418-75.9277 85.9619-74.0234Q84.082-72.1191 81.4453-72.1191Z"/>
   <path class="multicolor-0:tertiaryLabelColor multicolor-4:tertiaryLabelColor SFSymbolsPreviewDEDEDE" d="M33.5938 0.585938L33.5938-61.1816L149.316-61.1816L149.316 0.585938Q149.316 4.44336 147.437 6.22559Q145.557 8.00781 141.943 8.00781L40.918 8.00781Q37.3047 8.00781 35.4492 6.22559Q33.5938 4.44336 33.5938 0.585938Z"/>
  </g>
  <g id="Bold-L" transform="matrix(1 0 0 1 2249.01 1556)">
   <path class="multicolor-0:tertiaryLabelColor SFSymbolsPreviewBDBDBD" d="M16.0645 3.07617Q16.0645 13.4766 21.582 18.9209Q27.0996 24.3652 37.5488 24.3652L144.385 24.3652Q154.834 24.3652 160.352 18.8965Q165.869 13.4277 165.869 3.07617L165.869-73.4375Q165.869-83.7891 160.352-89.2578Q154.834-94.7266 144.385-94.7266L37.5488-94.7266Q27.0996-94.7266 21.582-89.2578Q16.0645-83.7891 16.0645-73.4375Z"/>
   <path class="multicolor-1:systemRedColor SFSymbolsPreviewFF3B30" d="M39.6973-72.0703Q37.1582-72.0703 35.4004-73.877Q33.6426-75.6836 33.6426-78.125Q33.6426-80.5664 35.4004-82.3486Q37.1582-84.1309 39.6973-84.1309Q42.1387-84.1309 43.8965-82.3486Q45.6543-80.5664 45.6543-78.125Q45.6543-75.6836 43.8965-73.877Q42.1387-72.0703 39.6973-72.0703Z"/>
   <path class="multicolor-2:systemYellowColor SFSymbolsPreviewFFCC00" d="M58.4961-72.0703Q55.957-72.0703 54.1992-73.877Q52.4414-75.6836 52.4414-78.125Q52.4414-80.5664 54.1992-82.3486Q55.957-84.1309 58.4961-84.1309Q60.9863-84.1309 62.7441-82.3486Q64.502-80.5664 64.502-78.125Q64.502-75.6836 62.7441-73.877Q60.9863-72.0703 58.4961-72.0703Z"/>
   <path class="multicolor-3:systemGreenColor SFSymbolsPreview28CD41" d="M77.2949-72.1191Q74.7559-72.1191 72.998-73.9014Q71.2402-75.6836 71.2402-78.125Q71.2402-80.5664 72.998-82.3486Q74.7559-84.1309 77.2949-84.1309Q79.7852-84.1309 81.543-82.3486Q83.3008-80.5664 83.3008-78.125Q83.3008-75.6836 81.543-73.9014Q79.7852-72.1191 77.2949-72.1191Z"/>
   <path class="multicolor-0:tertiaryLabelColor multicolor-4:tertiaryLabelColor SFSymbolsPreviewDEDEDE" d="M30.5176 1.41602L30.5176-61.4258L151.416-61.4258L151.416 1.41602Q151.416 5.76172 149.243 7.86133Q147.07 9.96094 142.969 9.96094L38.9648 9.96094Q34.8633 9.96094 32.6904 7.86133Q30.5176 5.76172 30.5176 1.41602Z"/>
  </g>
  <g id="Semibold-L" transform="matrix(1 0 0 1 1952.64 1556)">
   <path class="multicolor-0:tertiaryLabelColor SFSymbolsPreviewBDBDBD" d="M16.0645 3.17383Q16.0645 13.2324 21.3135 18.4082Q26.5625 23.584 36.6211 23.584L144.58 23.584Q154.688 23.584 159.937 18.3838Q165.186 13.1836 165.186 3.17383L165.186-73.5352Q165.186-83.4961 159.937-88.6963Q154.688-93.8965 144.58-93.8965L36.6211-93.8965Q26.5625-93.8965 21.3135-88.7207Q16.0645-83.5449 16.0645-73.5352Z"/>
   <path class="multicolor-1:systemRedColor SFSymbolsPreviewFF3B30" d="M37.9883-72.0215Q35.5957-72.0215 33.9355-73.7549Q32.2754-75.4883 32.2754-77.7832Q32.2754-80.127 33.9355-81.8115Q35.5957-83.4961 37.9883-83.4961Q40.3809-83.4961 42.041-81.8115Q43.7012-80.127 43.7012-77.7832Q43.7012-75.4883 42.041-73.7549Q40.3809-72.0215 37.9883-72.0215Z"/>
   <path class="multicolor-2:systemYellowColor SFSymbolsPreviewFFCC00" d="M56.2012-72.0215Q53.8086-72.0215 52.124-73.7549Q50.4395-75.4883 50.4395-77.7832Q50.4395-80.127 52.124-81.8115Q53.8086-83.4961 56.2012-83.4961Q58.5938-83.4961 60.2539-81.8115Q61.9141-80.127 61.9141-77.7832Q61.9141-75.4883 60.2539-73.7549Q58.5938-72.0215 56.2012-72.0215Z"/>
   <path class="multicolor-3:systemGreenColor SFSymbolsPreview28CD41" d="M74.3652-72.0703Q72.0215-72.0703 70.3369-73.7793Q68.6523-75.4883 68.6523-77.7832Q68.6523-80.127 70.3369-81.8115Q72.0215-83.4961 74.3652-83.4961Q76.7578-83.4961 78.4424-81.8115Q80.127-80.127 80.127-77.7832Q80.127-75.4883 78.4424-73.7793Q76.7578-72.0703 74.3652-72.0703Z"/>
   <path class="multicolor-0:tertiaryLabelColor multicolor-4:tertiaryLabelColor SFSymbolsPreviewDEDEDE" d="M28.418 2.00195L28.418-61.6211L152.832-61.6211L152.832 2.00195Q152.832 6.64062 150.439 8.95996Q148.047 11.2793 143.652 11.2793L37.5977 11.2793Q33.1055 11.2793 30.7617 8.95996Q28.418 6.64062 28.418 2.00195Z"/>
  </g>
  <g id="Medium-L" transform="matrix(1 0 0 1 1656.17 1556)">
   <path class="multicolor-0:tertiaryLabelColor SFSymbolsPreviewBDBDBD" d="M16.0645 3.27148Q16.0645 13.0371 21.1182 18.0176Q26.1719 22.998 35.9375 22.998L144.775 22.998Q154.59 22.998 159.644 17.9932Q164.697 12.9883 164.697 3.27148L164.697-73.6328Q164.697-83.3008 159.644-88.3057Q154.59-93.3105 144.775-93.3105L35.9375-93.3105Q26.1719-93.3105 21.1182-88.3301Q16.0645-83.3496 16.0645-73.6328Z"/>
   <path class="multicolor-1:systemRedColor SFSymbolsPreviewFF3B30" d="M36.7676-72.0215Q34.4238-72.0215 32.8125-73.7061Q31.2012-75.3906 31.2012-77.5391Q31.2012-79.7852 32.8125-81.4209Q34.4238-83.0566 36.7676-83.0566Q39.0137-83.0566 40.625-81.4209Q42.2363-79.7852 42.2363-77.5391Q42.2363-75.3906 40.625-73.7061Q39.0137-72.0215 36.7676-72.0215Z"/>
   <path class="multicolor-2:systemYellowColor SFSymbolsPreviewFFCC00" d="M54.4922-72.0215Q52.1973-72.0215 50.5615-73.6816Q48.9258-75.3418 48.9258-77.5391Q48.9258-79.7852 50.5615-81.4209Q52.1973-83.0566 54.4922-83.0566Q56.7383-83.0566 58.374-81.4209Q60.0098-79.7852 60.0098-77.5391Q60.0098-75.3418 58.374-73.6816Q56.7383-72.0215 54.4922-72.0215Z"/>
   <path class="multicolor-3:systemGreenColor SFSymbolsPreview28CD41" d="M72.168-72.0703Q69.9219-72.0703 68.3105-73.7061Q66.6992-75.3418 66.6992-77.5391Q66.6992-79.7852 68.3105-81.4209Q69.9219-83.0566 72.168-83.0566Q74.5117-83.0566 76.123-81.4209Q77.7344-79.7852 77.7344-77.5391Q77.7344-75.3418 76.123-73.7061Q74.5117-72.0703 72.168-72.0703Z"/>
   <path class="multicolor-0:tertiaryLabelColor multicolor-4:tertiaryLabelColor SFSymbolsPreviewDEDEDE" d="M26.8066 2.39258L26.8066-61.7188L153.906-61.7188L153.906 2.39258Q153.906 7.32422 151.367 9.79004Q148.828 12.2559 144.141 12.2559L36.5723 12.2559Q31.8359 12.2559 29.3213 9.79004Q26.8066 7.32422 26.8066 2.39258Z"/>
  </g>
  <g id="Regular-L" transform="matrix(1 0 0 1 1359.81 1556)">
   <path class="multicolor-0:tertiaryLabelColor SFSymbolsPreviewBDBDBD" d="M16.0645 3.41797Q16.0645 12.793 20.8496 17.5049Q25.6348 22.2168 35.0586 22.2168L144.971 22.2168Q154.443 22.2168 159.229 17.4805Q164.014 12.7441 164.014 3.41797L164.014-73.7305Q164.014-83.0566 159.229-87.793Q154.443-92.5293 144.971-92.5293L35.0586-92.5293Q25.6348-92.5293 20.8496-87.8174Q16.0645-83.1055 16.0645-73.7305Z"/>
   <path class="multicolor-1:systemRedColor SFSymbolsPreviewFF3B30" d="M35.1074-71.9727Q32.9102-71.9727 31.3721-73.584Q29.834-75.1953 29.834-77.2461Q29.834-79.3457 31.3721-80.9082Q32.9102-82.4707 35.1074-82.4707Q37.2559-82.4707 38.7939-80.9082Q40.332-79.3457 40.332-77.2461Q40.332-75.1953 38.7939-73.584Q37.2559-71.9727 35.1074-71.9727Z"/>
   <path class="multicolor-2:systemYellowColor SFSymbolsPreviewFFCC00" d="M52.2461-71.9727Q50.0488-71.9727 48.5107-73.5596Q46.9727-75.1465 46.9727-77.2461Q46.9727-79.3457 48.5107-80.9082Q50.0488-82.4707 52.2461-82.4707Q54.3945-82.4707 55.9326-80.9082Q57.4707-79.3457 57.4707-77.2461Q57.4707-75.1465 55.9326-73.5596Q54.3945-71.9727 52.2461-71.9727Z"/>
   <path class="multicolor-3:systemGreenColor SFSymbolsPreview28CD41" d="M69.3359-72.0215Q67.1875-72.0215 65.6494-73.584Q64.1113-75.1465 64.1113-77.2461Q64.1113-79.3457 65.6494-80.9082Q67.1875-82.4707 69.3359-82.4707Q71.5332-82.4707 73.0713-80.9082Q74.6094-79.3457 74.6094-77.2461Q74.6094-75.1465 73.0713-73.584Q71.5332-72.0215 69.3359-72.0215Z"/>
   <path class="multicolor-0:tertiaryLabelColor multicolor-4:tertiaryLabelColor SFSymbolsPreviewDEDEDE" d="M24.707 2.97852L24.707-61.9141L155.322-61.9141L155.322 2.97852Q155.322 8.20312 152.588 10.8887Q149.854 13.5742 144.824 13.5742L35.2539 13.5742Q30.127 13.5742 27.417 10.8887Q24.707 8.20312 24.707 2.97852Z"/>
  </g>
  <g id="Light-L" transform="matrix(1 0 0 1 1063.53 1556)">
   <path class="multicolor-0:tertiaryLabelColor SFSymbolsPreviewBDBDBD" d="M16.0645 3.56445Q16.0645 12.4023 20.6055 16.9189Q25.1465 21.4355 34.0332 21.4355L145.117 21.4355Q154.053 21.4355 158.594 16.8945Q163.135 12.3535 163.135 3.56445L163.135-73.8281Q163.135-82.6172 158.594-87.1582Q154.053-91.6992 145.117-91.6992L34.0332-91.6992Q25.1465-91.6992 20.6055-87.207Q16.0645-82.7148 16.0645-73.8281Z"/>
   <path class="multicolor-1:systemRedColor SFSymbolsPreviewFF3B30" d="M33.7891-72.4609Q31.8359-72.4609 30.4443-73.9014Q29.0527-75.3418 29.0527-77.1973Q29.0527-79.1016 30.4443-80.4932Q31.8359-81.8848 33.7891-81.8848Q35.7422-81.8848 37.1094-80.4932Q38.4766-79.1016 38.4766-77.1973Q38.4766-75.3418 37.1094-73.9014Q35.7422-72.4609 33.7891-72.4609Z"/>
   <path class="multicolor-2:systemYellowColor SFSymbolsPreviewFFCC00" d="M49.6094-72.4609Q47.6562-72.4609 46.2646-73.877Q44.873-75.293 44.873-77.1973Q44.873-79.1016 46.2646-80.4932Q47.6562-81.8848 49.6094-81.8848Q51.5625-81.8848 52.9541-80.4932Q54.3457-79.1016 54.3457-77.1973Q54.3457-75.293 52.9541-73.877Q51.5625-72.4609 49.6094-72.4609Z"/>
   <path class="multicolor-3:systemGreenColor SFSymbolsPreview28CD41" d="M65.4297-72.5098Q63.5254-72.5098 62.1338-73.9014Q60.7422-75.293 60.7422-77.1973Q60.7422-79.1016 62.1338-80.4932Q63.5254-81.8848 65.4297-81.8848Q67.3828-81.8848 68.7744-80.4932Q70.166-79.1016 70.166-77.1973Q70.166-75.293 68.7744-73.9014Q67.3828-72.5098 65.4297-72.5098Z"/>
   <path class="multicolor-0:tertiaryLabelColor multicolor-4:tertiaryLabelColor SFSymbolsPreviewDEDEDE" d="M22.6562 3.22266L22.6562-62.6465L156.494-62.6465L156.494 3.22266Q156.494 8.93555 153.491 11.8652Q150.488 14.7949 144.971 14.7949L34.2285 14.7949Q28.5645 14.7949 25.6104 11.8652Q22.6562 8.93555 22.6562 3.22266Z"/>
  </g>
  <g id="Thin-L" transform="matrix(1 0 0 1 767.409 1556)">
   <path class="multicolor-0:tertiaryLabelColor SFSymbolsPreviewBDBDBD" d="M16.0645 3.75977Q16.0645 11.9141 20.2881 16.1377Q24.5117 20.3613 32.666 20.3613L145.312 20.3613Q153.516 20.3613 157.739 16.0889Q161.963 11.8164 161.963 3.75977L161.963-73.9746Q161.963-82.0312 157.739-86.3037Q153.516-90.5762 145.312-90.5762L32.666-90.5762Q24.5117-90.5762 20.2881-86.377Q16.0645-82.1777 16.0645-73.9746Z"/>
   <path class="multicolor-1:systemRedColor SFSymbolsPreviewFF3B30" d="M32.0312-73.0469Q30.3711-73.0469 29.1992-74.292Q28.0273-75.5371 28.0273-77.0996Q28.0273-78.7598 29.1992-79.9561Q30.3711-81.1523 32.0312-81.1523Q33.6914-81.1523 34.8877-79.9561Q36.084-78.7598 36.084-77.0996Q36.084-75.5371 34.8877-74.292Q33.6914-73.0469 32.0312-73.0469Z"/>
   <path class="multicolor-2:systemYellowColor SFSymbolsPreviewFFCC00" d="M46.1426-73.0469Q44.5312-73.0469 43.335-74.2432Q42.1387-75.4395 42.1387-77.0996Q42.1387-78.7598 43.335-79.9561Q44.5312-81.1523 46.1426-81.1523Q47.8027-81.1523 49.0234-79.9561Q50.2441-78.7598 50.2441-77.0996Q50.2441-75.4395 49.0234-74.2432Q47.8027-73.0469 46.1426-73.0469Z"/>
   <path class="multicolor-3:systemGreenColor SFSymbolsPreview28CD41" d="M60.3027-73.1445Q58.6426-73.1445 57.4463-74.292Q56.25-75.4395 56.25-77.0996Q56.25-78.7598 57.4463-79.9561Q58.6426-81.1523 60.3027-81.1523Q61.9141-81.1523 63.1348-79.9561Q64.3555-78.7598 64.3555-77.0996Q64.3555-75.4395 63.1348-74.292Q61.9141-73.1445 60.3027-73.1445Z"/>
   <path class="multicolor-0:tertiaryLabelColor multicolor-4:tertiaryLabelColor SFSymbolsPreviewDEDEDE" d="M20.0195 3.56445L20.0195-63.623L158.008-63.623L158.008 3.56445Q158.008 9.91211 154.663 13.1592Q151.318 16.4062 145.166 16.4062L32.8125 16.4062Q26.5137 16.4062 23.2666 13.1592Q20.0195 9.91211 20.0195 3.56445Z"/>
  </g>
  <g id="Ultralight-L" transform="matrix(1 0 0 1 471.015 1556)">
   <path class="multicolor-0:tertiaryLabelColor SFSymbolsPreviewBDBDBD" d="M16.0645 3.85742Q16.0645 11.6699 20.1172 15.7471Q24.1699 19.8242 31.9824 19.8242L145.41 19.8242Q153.223 19.8242 157.275 15.6738Q161.328 11.5234 161.328 3.85742L161.328-74.0723Q161.328-81.7383 157.275-85.8643Q153.223-89.9902 145.41-89.9902L31.9824-89.9902Q24.1699-89.9902 20.1172-85.9375Q16.0645-81.8848 16.0645-74.0723Z"/>
   <path class="multicolor-1:systemRedColor SFSymbolsPreviewFF3B30" d="M31.1523-73.3887Q29.6387-73.3887 28.5645-74.5117Q27.4902-75.6348 27.4902-77.0508Q27.4902-78.5645 28.5645-79.6631Q29.6387-80.7617 31.1523-80.7617Q32.666-80.7617 33.7402-79.6631Q34.8145-78.5645 34.8145-77.0508Q34.8145-75.6348 33.7402-74.5117Q32.666-73.3887 31.1523-73.3887Z"/>
   <path class="multicolor-2:systemYellowColor SFSymbolsPreviewFFCC00" d="M44.3848-73.3887Q42.9199-73.3887 41.8213-74.4629Q40.7227-75.5371 40.7227-77.0508Q40.7227-78.5645 41.8213-79.6631Q42.9199-80.7617 44.3848-80.7617Q45.8984-80.7617 46.9971-79.6631Q48.0957-78.5645 48.0957-77.0508Q48.0957-75.5371 46.9971-74.4629Q45.8984-73.3887 44.3848-73.3887Z"/>
   <path class="multicolor-3:systemGreenColor SFSymbolsPreview28CD41" d="M57.666-73.4863Q56.1523-73.4863 55.0537-74.5117Q53.9551-75.5371 53.9551-77.0508Q53.9551-78.5645 55.0537-79.6631Q56.1523-80.7617 57.666-80.7617Q59.1309-80.7617 60.2295-79.6631Q61.3281-78.5645 61.3281-77.0508Q61.3281-75.5371 60.2295-74.5117Q59.1309-73.4863 57.666-73.4863Z"/>
   <path class="multicolor-0:tertiaryLabelColor multicolor-4:tertiaryLabelColor SFSymbolsPreviewDEDEDE" d="M18.6035 3.75977L18.6035-64.1602L158.789-64.1602L158.789 3.75977Q158.789 10.4004 155.249 13.8184Q151.709 17.2363 145.264 17.2363L32.1289 17.2363Q25.4395 17.2363 22.0215 13.8184Q18.6035 10.4004 18.6035 3.75977Z"/>
  </g>
  <g id="Black-M" transform="matrix(1 0 0 1 2861.96 1126)">
   <path class="multicolor-0:tertiaryLabelColor SFSymbolsPreviewBDBDBD" d="M12.4512-5.9082Q12.4512 3.125 17.5049 8.17871Q22.5586 13.2324 31.5918 13.2324L111.279 13.2324Q120.312 13.2324 125.366 8.17871Q130.42 3.125 130.42-5.9082L130.42-64.4531Q130.42-73.5352 125.366-78.5645Q120.312-83.5938 111.279-83.5938L31.5918-83.5938Q22.5586-83.5938 17.5049-78.5645Q12.4512-73.5352 12.4512-64.4531Z"/>
   <path class="multicolor-1:systemRedColor SFSymbolsPreviewFF3B30" d="M35.6934-64.0137Q33.4473-64.0137 31.8604-65.6006Q30.2734-67.1875 30.2734-69.4336Q30.2734-71.6797 31.8604-73.2422Q33.4473-74.8047 35.6934-74.8047Q37.9395-74.8047 39.502-73.2422Q41.0645-71.6797 41.0645-69.4336Q41.0645-67.1875 39.502-65.6006Q37.9395-64.0137 35.6934-64.0137Z"/>
   <path class="multicolor-2:systemYellowColor SFSymbolsPreviewFFCC00" d="M51.8066-64.0137Q49.5117-64.0137 47.9492-65.6006Q46.3867-67.1875 46.3867-69.4336Q46.3867-71.6797 47.9492-73.2422Q49.5117-74.8047 51.8066-74.8047Q54.0039-74.8047 55.5908-73.2422Q57.1777-71.6797 57.1777-69.4336Q57.1777-67.1875 55.5908-65.6006Q54.0039-64.0137 51.8066-64.0137Z"/>
   <path class="multicolor-3:systemGreenColor SFSymbolsPreview28CD41" d="M67.8711-64.0137Q65.625-64.0137 64.0381-65.6006Q62.4512-67.1875 62.4512-69.4336Q62.4512-71.6797 64.0381-73.2422Q65.625-74.8047 67.8711-74.8047Q70.1172-74.8047 71.6797-73.2422Q73.2422-71.6797 73.2422-69.4336Q73.2422-67.1875 71.6797-65.6006Q70.1172-64.0137 67.8711-64.0137Z"/>
   <path class="multicolor-0:tertiaryLabelColor multicolor-4:tertiaryLabelColor SFSymbolsPreviewDEDEDE" d="M29.7852-8.59375L29.7852-55.1758L113.086-55.1758L113.086-8.59375Q113.086-6.15234 111.987-5.12695Q110.889-4.10156 108.643-4.10156L34.2285-4.10156Q31.9824-4.10156 30.8838-5.12695Q29.7852-6.15234 29.7852-8.59375Z"/>
  </g>
  <g id="Heavy-M" transform="matrix(1 0 0 1 2565.6 1126)">
   <path class="multicolor-0:tertiaryLabelColor SFSymbolsPreviewBDBDBD" d="M12.4512-5.76172Q12.4512 2.92969 17.2119 7.66602Q21.9727 12.4023 30.7129 12.4023L111.523 12.4023Q120.215 12.4023 124.976 7.66602Q129.736 2.92969 129.736-5.76172L129.736-64.5996Q129.736-73.291 124.976-78.0273Q120.215-82.7637 111.523-82.7637L30.7129-82.7637Q21.9727-82.7637 17.2119-78.0273Q12.4512-73.291 12.4512-64.5996Z"/>
   <path class="multicolor-1:systemRedColor SFSymbolsPreviewFF3B30" d="M33.8379-63.8672Q31.7383-63.8672 30.2246-65.4053Q28.7109-66.9434 28.7109-69.043Q28.7109-71.1914 30.2246-72.6807Q31.7383-74.1699 33.8379-74.1699Q35.9863-74.1699 37.5-72.6807Q39.0137-71.1914 39.0137-69.043Q39.0137-66.9434 37.5-65.4053Q35.9863-63.8672 33.8379-63.8672Z"/>
   <path class="multicolor-2:systemYellowColor SFSymbolsPreviewFFCC00" d="M49.4629-63.8672Q47.3145-63.8672 45.8252-65.4053Q44.3359-66.9434 44.3359-69.043Q44.3359-71.1914 45.8252-72.6807Q47.3145-74.1699 49.4629-74.1699Q51.5625-74.1699 53.1006-72.6807Q54.6387-71.1914 54.6387-69.043Q54.6387-66.9434 53.1006-65.4053Q51.5625-63.8672 49.4629-63.8672Z"/>
   <path class="multicolor-3:systemGreenColor SFSymbolsPreview28CD41" d="M65.0391-63.8672Q62.9395-63.8672 61.4258-65.4053Q59.9121-66.9434 59.9121-69.043Q59.9121-71.1914 61.4258-72.6807Q62.9395-74.1699 65.0391-74.1699Q67.1875-74.1699 68.6768-72.6807Q70.166-71.1914 70.166-69.043Q70.166-66.9434 68.6768-65.4053Q67.1875-63.8672 65.0391-63.8672Z"/>
   <path class="multicolor-0:tertiaryLabelColor multicolor-4:tertiaryLabelColor SFSymbolsPreviewDEDEDE" d="M27.5391-7.91016L27.5391-55.2734L114.648-55.2734L114.648-7.91016Q114.648-5.17578 113.354-3.93066Q112.061-2.68555 109.473-2.68555L32.7148-2.68555Q30.127-2.68555 28.833-3.93066Q27.5391-5.17578 27.5391-7.91016Z"/>
  </g>
  <g id="Bold-M" transform="matrix(1 0 0 1 2269.25 1126)">
   <path class="multicolor-0:tertiaryLabelColor SFSymbolsPreviewBDBDBD" d="M12.4512-5.66406Q12.4512 2.68555 16.8945 7.10449Q21.3379 11.5234 29.6875 11.5234L111.768 11.5234Q120.166 11.5234 124.585 7.10449Q129.004 2.68555 129.004-5.66406L129.004-64.7461Q129.004-73.0469 124.585-77.4658Q120.166-81.8848 111.768-81.8848L29.6875-81.8848Q21.3379-81.8848 16.8945-77.4658Q12.4512-73.0469 12.4512-64.7461Z"/>
   <path class="multicolor-1:systemRedColor SFSymbolsPreviewFF3B30" d="M31.8359-63.7695Q29.7852-63.7695 28.3691-65.21Q26.9531-66.6504 26.9531-68.6523Q26.9531-70.6055 28.3691-72.0459Q29.7852-73.4863 31.8359-73.4863Q33.8379-73.4863 35.2783-72.0459Q36.7188-70.6055 36.7188-68.6523Q36.7188-66.6504 35.2783-65.21Q33.8379-63.7695 31.8359-63.7695Z"/>
   <path class="multicolor-2:systemYellowColor SFSymbolsPreviewFFCC00" d="M46.875-63.7695Q44.8242-63.7695 43.4082-65.21Q41.9922-66.6504 41.9922-68.6523Q41.9922-70.6055 43.4082-72.0459Q44.8242-73.4863 46.875-73.4863Q48.877-73.4863 50.3174-72.0459Q51.7578-70.6055 51.7578-68.6523Q51.7578-66.6504 50.3174-65.21Q48.877-63.7695 46.875-63.7695Z"/>
   <path class="multicolor-3:systemGreenColor SFSymbolsPreview28CD41" d="M61.9141-63.7695Q59.9121-63.7695 58.4717-65.21Q57.0312-66.6504 57.0312-68.6523Q57.0312-70.6055 58.4717-72.0459Q59.9121-73.4863 61.9141-73.4863Q63.9648-73.4863 65.3809-72.0459Q66.7969-70.6055 66.7969-68.6523Q66.7969-66.6504 65.3809-65.21Q63.9648-63.7695 61.9141-63.7695Z"/>
   <path class="multicolor-0:tertiaryLabelColor multicolor-4:tertiaryLabelColor SFSymbolsPreviewDEDEDE" d="M25.0488-7.17773L25.0488-55.3711L116.406-55.3711L116.406-7.17773Q116.406-4.05273 114.868-2.58789Q113.33-1.12305 110.4-1.12305L31.0547-1.12305Q28.125-1.12305 26.5869-2.58789Q25.0488-4.05273 25.0488-7.17773Z"/>
  </g>
  <g id="Semibold-M" transform="matrix(1 0 0 1 1972.81 1126)">
   <path class="multicolor-0:tertiaryLabelColor SFSymbolsPreviewBDBDBD" d="M12.4512-5.51758Q12.4512 2.49023 16.6748 6.68945Q20.8984 10.8887 29.0039 10.8887L111.963 10.8887Q120.068 10.8887 124.268 6.68945Q128.467 2.49023 128.467-5.51758L128.467-64.8438Q128.467-72.8516 124.268-77.0508Q120.068-81.25 111.963-81.25L29.0039-81.25Q20.8984-81.25 16.6748-77.0508Q12.4512-72.8516 12.4512-64.8438Z"/>
   <path class="multicolor-1:systemRedColor SFSymbolsPreviewFF3B30" d="M30.4199-63.623Q28.4668-63.623 27.0996-65.0391Q25.7324-66.4551 25.7324-68.3105Q25.7324-70.2148 27.0996-71.6064Q28.4668-72.998 30.4199-72.998Q32.3242-72.998 33.7158-71.6064Q35.1074-70.2148 35.1074-68.3105Q35.1074-66.4551 33.7158-65.0391Q32.3242-63.623 30.4199-63.623Z"/>
   <path class="multicolor-2:systemYellowColor SFSymbolsPreviewFFCC00" d="M45.0684-63.623Q43.1152-63.623 41.748-65.0146Q40.3809-66.4062 40.3809-68.3105Q40.3809-70.2148 41.748-71.6064Q43.1152-72.998 45.0684-72.998Q47.0215-72.998 48.4131-71.6064Q49.8047-70.2148 49.8047-68.3105Q49.8047-66.4062 48.4131-65.0146Q47.0215-63.623 45.0684-63.623Z"/>
   <path class="multicolor-3:systemGreenColor SFSymbolsPreview28CD41" d="M59.7656-63.623Q57.8125-63.623 56.4453-65.0146Q55.0781-66.4062 55.0781-68.3105Q55.0781-70.2148 56.4453-71.6064Q57.8125-72.998 59.7656-72.998Q61.6699-72.998 63.0371-71.6064Q64.4043-70.2148 64.4043-68.3105Q64.4043-66.4062 63.0371-65.0146Q61.6699-63.623 59.7656-63.623Z"/>
   <path class="multicolor-0:tertiaryLabelColor multicolor-4:tertiaryLabelColor SFSymbolsPreviewDEDEDE" d="M23.3398-6.64062L23.3398-55.4199L117.627-55.4199L117.627-6.64062Q117.627-3.27148 115.918-1.63574Q114.209 0 111.035 0L29.8828 0Q26.709 0 25.0244-1.63574Q23.3398-3.27148 23.3398-6.64062Z"/>
  </g>
  <g id="Medium-M" transform="matrix(1 0 0 1 1676.29 1126)">
   <path class="multicolor-0:tertiaryLabelColor SFSymbolsPreviewBDBDBD" d="M12.4512-5.46875Q12.4512 2.34375 16.5039 6.37207Q20.5566 10.4004 28.4668 10.4004L112.061 10.4004Q120.02 10.4004 124.048 6.37207Q128.076 2.34375 128.076-5.46875L128.076-64.8926Q128.076-72.7539 124.048-76.7578Q120.02-80.7617 112.061-80.7617L28.4668-80.7617Q20.5566-80.7617 16.5039-76.7578Q12.4512-72.7539 12.4512-64.8926Z"/>
   <path class="multicolor-1:systemRedColor SFSymbolsPreviewFF3B30" d="M29.3457-63.5742Q27.4414-63.5742 26.123-64.9414Q24.8047-66.3086 24.8047-68.1152Q24.8047-69.9219 26.123-71.2891Q27.4414-72.6562 29.3457-72.6562Q31.2012-72.6562 32.5439-71.2891Q33.8867-69.9219 33.8867-68.1152Q33.8867-66.3086 32.5439-64.9414Q31.2012-63.5742 29.3457-63.5742Z"/>
   <path class="multicolor-2:systemYellowColor SFSymbolsPreviewFFCC00" d="M43.7012-63.5742Q41.8457-63.5742 40.5029-64.917Q39.1602-66.2598 39.1602-68.1152Q39.1602-69.9219 40.5029-71.2891Q41.8457-72.6562 43.7012-72.6562Q45.6055-72.6562 46.9482-71.2891Q48.291-69.9219 48.291-68.1152Q48.291-66.2598 46.9482-64.917Q45.6055-63.5742 43.7012-63.5742Z"/>
   <path class="multicolor-3:systemGreenColor SFSymbolsPreview28CD41" d="M58.1055-63.5742Q56.2012-63.5742 54.8828-64.917Q53.5645-66.2598 53.5645-68.1152Q53.5645-69.9219 54.8828-71.2891Q56.2012-72.6562 58.1055-72.6562Q60.0098-72.6562 61.3281-71.2891Q62.6465-69.9219 62.6465-68.1152Q62.6465-66.2598 61.3281-64.917Q60.0098-63.5742 58.1055-63.5742Z"/>
   <path class="multicolor-0:tertiaryLabelColor multicolor-4:tertiaryLabelColor SFSymbolsPreviewDEDEDE" d="M22.0215-6.25L22.0215-55.4688L118.555-55.4688L118.555-6.25Q118.555-2.68555 116.724-0.927734Q114.893 0.830078 111.523 0.830078L29.0039 0.830078Q25.6348 0.830078 23.8281-0.927734Q22.0215-2.68555 22.0215-6.25Z"/>
  </g>
  <g id="Regular-M" transform="matrix(1 0 0 1 1379.82 1126)">
   <path class="multicolor-0:tertiaryLabelColor SFSymbolsPreviewBDBDBD" d="M12.4512-5.37109Q12.4512 2.19727 16.2842 5.98145Q20.1172 9.76562 27.7832 9.76562L112.256 9.76562Q119.971 9.76562 123.779 5.98145Q127.588 2.19727 127.588-5.37109L127.588-64.9902Q127.588-72.5586 123.779-76.3428Q119.971-80.127 112.256-80.127L27.7832-80.127Q20.1172-80.127 16.2842-76.3428Q12.4512-72.5586 12.4512-64.9902Z"/>
   <path class="multicolor-1:systemRedColor SFSymbolsPreviewFF3B30" d="M27.9297-63.4766Q26.123-63.4766 24.8535-64.7949Q23.584-66.1133 23.584-67.8223Q23.584-69.5312 24.8535-70.8496Q26.123-72.168 27.9297-72.168Q29.7363-72.168 31.0303-70.8496Q32.3242-69.5312 32.3242-67.8223Q32.3242-66.1133 31.0303-64.7949Q29.7363-63.4766 27.9297-63.4766Z"/>
   <path class="multicolor-2:systemYellowColor SFSymbolsPreviewFFCC00" d="M41.9434-63.4766Q40.1367-63.4766 38.8672-64.7705Q37.5977-66.0645 37.5977-67.8223Q37.5977-69.5312 38.8672-70.8496Q40.1367-72.168 41.9434-72.168Q43.75-72.168 45.0439-70.8496Q46.3379-69.5312 46.3379-67.8223Q46.3379-66.0645 45.0439-64.7705Q43.75-63.4766 41.9434-63.4766Z"/>
   <path class="multicolor-3:systemGreenColor SFSymbolsPreview28CD41" d="M55.957-63.4766Q54.1504-63.4766 52.8809-64.7705Q51.6113-66.0645 51.6113-67.8223Q51.6113-69.5312 52.8809-70.8496Q54.1504-72.168 55.957-72.168Q57.7637-72.168 59.0332-70.8496Q60.3027-69.5312 60.3027-67.8223Q60.3027-66.0645 59.0332-64.7705Q57.7637-63.4766 55.957-63.4766Z"/>
   <path class="multicolor-0:tertiaryLabelColor multicolor-4:tertiaryLabelColor SFSymbolsPreviewDEDEDE" d="M20.3125-5.76172L20.3125-55.5176L119.727-55.5176L119.727-5.76172Q119.727-1.95312 117.749-0.0244141Q115.771 1.9043 112.158 1.9043L27.8809 1.9043Q24.2188 1.9043 22.2656-0.0244141Q20.3125-1.95312 20.3125-5.76172Z"/>
  </g>
  <g id="Light-M" transform="matrix(1 0 0 1 1083.5 1126)">
   <path class="multicolor-0:tertiaryLabelColor SFSymbolsPreviewBDBDBD" d="M12.4512-5.22461Q12.4512 1.85547 16.0645 5.44434Q19.6777 9.0332 26.8555 9.0332L112.402 9.0332Q119.58 9.0332 123.193 5.44434Q126.807 1.85547 126.807-5.22461L126.807-65.0879Q126.807-72.168 123.193-75.7812Q119.58-79.3945 112.402-79.3945L26.8555-79.3945Q19.6777-79.3945 16.0645-75.8057Q12.4512-72.2168 12.4512-65.0879Z"/>
   <path class="multicolor-1:systemRedColor SFSymbolsPreviewFF3B30" d="M26.7578-63.8672Q25.1465-63.8672 23.999-65.0635Q22.8516-66.2598 22.8516-67.7734Q22.8516-69.2871 23.999-70.459Q25.1465-71.6309 26.7578-71.6309Q28.3691-71.6309 29.5166-70.459Q30.6641-69.2871 30.6641-67.7734Q30.6641-66.2598 29.5166-65.0635Q28.3691-63.8672 26.7578-63.8672Z"/>
   <path class="multicolor-2:systemYellowColor SFSymbolsPreviewFFCC00" d="M39.5996-63.8672Q37.9883-63.8672 36.8652-65.0391Q35.7422-66.2109 35.7422-67.7734Q35.7422-69.2871 36.8652-70.459Q37.9883-71.6309 39.5996-71.6309Q41.2109-71.6309 42.3584-70.459Q43.5059-69.2871 43.5059-67.7734Q43.5059-66.2109 42.3584-65.0391Q41.2109-63.8672 39.5996-63.8672Z"/>
   <path class="multicolor-3:systemGreenColor SFSymbolsPreview28CD41" d="M52.4414-63.916Q50.8301-63.916 49.707-65.0635Q48.584-66.2109 48.584-67.7734Q48.584-69.2871 49.707-70.459Q50.8301-71.6309 52.4414-71.6309Q54.0527-71.6309 55.2002-70.459Q56.3477-69.2871 56.3477-67.7734Q56.3477-66.2109 55.2002-65.0635Q54.0527-63.916 52.4414-63.916Z"/>
   <path class="multicolor-0:tertiaryLabelColor multicolor-4:tertiaryLabelColor SFSymbolsPreviewDEDEDE" d="M18.5059-5.51758L18.5059-56.1523L120.752-56.1523L120.752-5.51758Q120.752-1.31836 118.53 0.830078Q116.309 2.97852 112.305 2.97852L26.9531 2.97852Q22.8027 2.97852 20.6543 0.830078Q18.5059-1.31836 18.5059-5.51758Z"/>
  </g>
  <g id="Thin-M" transform="matrix(1 0 0 1 787.306 1126)">
   <path class="multicolor-0:tertiaryLabelColor SFSymbolsPreviewBDBDBD" d="M12.4512-5.07812Q12.4512 1.41602 15.7959 4.73633Q19.1406 8.05664 25.5859 8.05664L112.549 8.05664Q119.092 8.05664 122.437 4.71191Q125.781 1.36719 125.781-5.07812L125.781-65.2344Q125.781-71.6309 122.437-75Q119.092-78.3691 112.549-78.3691L25.5859-78.3691Q19.1406-78.3691 15.7959-75.0488Q12.4512-71.7285 12.4512-65.2344Z"/>
   <path class="multicolor-1:systemRedColor SFSymbolsPreviewFF3B30" d="M25.2441-64.4043Q23.877-64.4043 22.9004-65.4053Q21.9238-66.4062 21.9238-67.7246Q21.9238-68.9941 22.9004-69.9951Q23.877-70.9961 25.2441-70.9961Q26.5137-70.9961 27.5146-69.9951Q28.5156-68.9941 28.5156-67.7246Q28.5156-66.4062 27.5146-65.4053Q26.5137-64.4043 25.2441-64.4043Z"/>
   <path class="multicolor-2:systemYellowColor SFSymbolsPreviewFFCC00" d="M36.5234-64.4043Q35.1562-64.4043 34.2041-65.3809Q33.252-66.3574 33.252-67.7246Q33.252-68.9941 34.2041-69.9951Q35.1562-70.9961 36.5234-70.9961Q37.8906-70.9961 38.8428-69.9951Q39.7949-68.9941 39.7949-67.7246Q39.7949-66.3574 38.8428-65.3809Q37.8906-64.4043 36.5234-64.4043Z"/>
   <path class="multicolor-3:systemGreenColor SFSymbolsPreview28CD41" d="M47.8516-64.4531Q46.4844-64.4531 45.5322-65.4053Q44.5801-66.3574 44.5801-67.7246Q44.5801-68.9941 45.5322-69.9951Q46.4844-70.9961 47.8516-70.9961Q49.1699-70.9961 50.1465-69.9951Q51.123-68.9941 51.123-67.7246Q51.123-66.3574 50.1465-65.4053Q49.1699-64.4531 47.8516-64.4531Z"/>
   <path class="multicolor-0:tertiaryLabelColor multicolor-4:tertiaryLabelColor SFSymbolsPreviewDEDEDE" d="M16.1133-5.22461L16.1133-57.0312L122.119-57.0312L122.119-5.22461Q122.119-0.439453 119.604 2.00195Q117.09 4.44336 112.451 4.44336L25.7324 4.44336Q20.9961 4.44336 18.5547 2.00195Q16.1133-0.439453 16.1133-5.22461Z"/>
  </g>
  <g id="Ultralight-M" transform="matrix(1 0 0 1 490.863 1126)">
   <path class="multicolor-0:tertiaryLabelColor SFSymbolsPreviewBDBDBD" d="M12.4512-4.98047Q12.4512 1.2207 15.6494 4.39453Q18.8477 7.56836 24.9512 7.56836L112.646 7.56836Q118.848 7.56836 122.046 4.3457Q125.244 1.12305 125.244-4.98047L125.244-65.332Q125.244-71.3867 122.046-74.6338Q118.848-77.8809 112.646-77.8809L24.9512-77.8809Q18.8477-77.8809 15.6494-74.6826Q12.4512-71.4844 12.4512-65.332Z"/>
   <path class="multicolor-1:systemRedColor SFSymbolsPreviewFF3B30" d="M24.4141-64.6973Q23.1934-64.6973 22.3145-65.6006Q21.4355-66.5039 21.4355-67.6758Q21.4355-68.8477 22.3145-69.7266Q23.1934-70.6055 24.4141-70.6055Q25.5859-70.6055 26.4893-69.7266Q27.3926-68.8477 27.3926-67.6758Q27.3926-66.5039 26.4893-65.6006Q25.5859-64.6973 24.4141-64.6973Z"/>
   <path class="multicolor-2:systemYellowColor SFSymbolsPreviewFFCC00" d="M34.9609-64.6973Q33.7402-64.6973 32.8613-65.5762Q31.9824-66.4551 31.9824-67.6758Q31.9824-68.8477 32.8613-69.7266Q33.7402-70.6055 34.9609-70.6055Q36.1816-70.6055 37.0361-69.7266Q37.8906-68.8477 37.8906-67.6758Q37.8906-66.4551 37.0361-65.5762Q36.1816-64.6973 34.9609-64.6973Z"/>
   <path class="multicolor-3:systemGreenColor SFSymbolsPreview28CD41" d="M45.459-64.7461Q44.2383-64.7461 43.3838-65.6006Q42.5293-66.4551 42.5293-67.6758Q42.5293-68.8477 43.3838-69.7266Q44.2383-70.6055 45.459-70.6055Q46.6797-70.6055 47.5586-69.7266Q48.4375-68.8477 48.4375-67.6758Q48.4375-66.4551 47.5586-65.6006Q46.6797-64.7461 45.459-64.7461Z"/>
   <path class="multicolor-0:tertiaryLabelColor multicolor-4:tertiaryLabelColor SFSymbolsPreviewDEDEDE" d="M14.8438-5.07812L14.8438-57.4707L122.803-57.4707L122.803-5.07812Q122.803 0 120.117 2.58789Q117.432 5.17578 112.549 5.17578L25.0977 5.17578Q20.0195 5.17578 17.4316 2.58789Q14.8438 0 14.8438-5.07812Z"/>
  </g>
  <g id="Black-S" transform="matrix(1 0 0 1 2877.35 696)">
   <path class="multicolor-0:tertiaryLabelColor SFSymbolsPreviewBDBDBD" d="M9.76562-12.3047Q9.76562-5.12695 13.7939-1.09863Q17.8223 2.92969 25 2.92969L87.1094 2.92969Q94.2871 2.92969 98.3154-1.09863Q102.344-5.12695 102.344-12.3047L102.344-58.1055Q102.344-65.2832 98.3154-69.3115Q94.2871-73.3398 87.1094-73.3398L25-73.3398Q17.8223-73.3398 13.7939-69.3115Q9.76562-65.2832 9.76562-58.1055Z"/>
   <path class="multicolor-1:systemRedColor SFSymbolsPreviewFF3B30" d="M28.4668-57.8613Q26.6602-57.8613 25.415-59.1064Q24.1699-60.3516 24.1699-62.1582Q24.1699-63.916 25.415-65.1611Q26.6602-66.4062 28.4668-66.4062Q30.2246-66.4062 31.4697-65.1611Q32.7148-63.916 32.7148-62.1582Q32.7148-60.3516 31.4697-59.1064Q30.2246-57.8613 28.4668-57.8613Z"/>
   <path class="multicolor-2:systemYellowColor SFSymbolsPreviewFFCC00" d="M41.1621-57.8613Q39.3555-57.8613 38.1104-59.1064Q36.8652-60.3516 36.8652-62.1582Q36.8652-63.916 38.1104-65.1611Q39.3555-66.4062 41.1621-66.4062Q42.9199-66.4062 44.165-65.1611Q45.4102-63.916 45.4102-62.1582Q45.4102-60.3516 44.165-59.1064Q42.9199-57.8613 41.1621-57.8613Z"/>
   <path class="multicolor-3:systemGreenColor SFSymbolsPreview28CD41" d="M53.8574-57.8613Q52.0508-57.8613 50.8057-59.1064Q49.5605-60.3516 49.5605-62.1582Q49.5605-63.916 50.8057-65.1611Q52.0508-66.4062 53.8574-66.4062Q55.6152-66.4062 56.8604-65.1611Q58.1055-63.916 58.1055-62.1582Q58.1055-60.3516 56.8604-59.1064Q55.6152-57.8613 53.8574-57.8613Z"/>
   <path class="multicolor-0:tertiaryLabelColor multicolor-4:tertiaryLabelColor SFSymbolsPreviewDEDEDE" d="M23.9258-14.5508L23.9258-50.8789L88.1836-50.8789L88.1836-14.5508Q88.1836-12.7441 87.3779-11.9873Q86.5723-11.2305 84.8633-11.2305L27.2461-11.2305Q25.5859-11.2305 24.7559-11.9873Q23.9258-12.7441 23.9258-14.5508Z"/>
  </g>
  <g id="Heavy-S" transform="matrix(1 0 0 1 2580.88 696)">
   <path class="multicolor-0:tertiaryLabelColor SFSymbolsPreviewBDBDBD" d="M9.76562-12.207Q9.76562-5.27344 13.5742-1.46484Q17.3828 2.34375 24.3652 2.34375L87.3047 2.34375Q94.2871 2.34375 98.0713-1.46484Q101.855-5.27344 101.855-12.207L101.855-58.2031Q101.855-65.1367 98.0713-68.9453Q94.2871-72.7539 87.3047-72.7539L24.3652-72.7539Q17.3828-72.7539 13.5742-68.9453Q9.76562-65.1367 9.76562-58.2031Z"/>
   <path class="multicolor-1:systemRedColor SFSymbolsPreviewFF3B30" d="M27.0508-57.666Q25.293-57.666 24.0967-58.8867Q22.9004-60.1074 22.9004-61.8164Q22.9004-63.5254 24.0967-64.7217Q25.293-65.918 27.0508-65.918Q28.7598-65.918 29.9561-64.7217Q31.1523-63.5254 31.1523-61.8164Q31.1523-60.1074 29.9561-58.8867Q28.7598-57.666 27.0508-57.666Z"/>
   <path class="multicolor-2:systemYellowColor SFSymbolsPreviewFFCC00" d="M39.502-57.666Q37.7441-57.666 36.5479-58.8867Q35.3516-60.1074 35.3516-61.8164Q35.3516-63.5254 36.5479-64.7217Q37.7441-65.918 39.502-65.918Q41.1621-65.918 42.3584-64.7217Q43.5547-63.5254 43.5547-61.8164Q43.5547-60.1074 42.3584-58.8867Q41.1621-57.666 39.502-57.666Z"/>
   <path class="multicolor-3:systemGreenColor SFSymbolsPreview28CD41" d="M51.9043-57.666Q50.1465-57.666 48.9502-58.8867Q47.7539-60.1074 47.7539-61.8164Q47.7539-63.5254 48.9502-64.7217Q50.1465-65.918 51.9043-65.918Q53.6133-65.918 54.8096-64.7217Q56.0059-63.5254 56.0059-61.8164Q56.0059-60.1074 54.8096-58.8867Q53.6133-57.666 51.9043-57.666Z"/>
   <path class="multicolor-0:tertiaryLabelColor multicolor-4:tertiaryLabelColor SFSymbolsPreviewDEDEDE" d="M22.2656-14.0137L22.2656-50.8789L89.4043-50.8789L89.4043-14.0137Q89.4043-11.9629 88.4521-11.0596Q87.5-10.1562 85.5469-10.1562L26.0742-10.1562Q24.1699-10.1562 23.2178-11.0596Q22.2656-11.9629 22.2656-14.0137Z"/>
  </g>
  <g id="Bold-S" transform="matrix(1 0 0 1 2284.41 696)">
   <path class="multicolor-0:tertiaryLabelColor SFSymbolsPreviewBDBDBD" d="M9.76562-12.1094Q9.76562-5.46875 13.3545-1.9043Q16.9434 1.66016 23.6328 1.66016L87.5 1.66016Q94.2383 1.66016 97.8027-1.9043Q101.367-5.46875 101.367-12.1094L101.367-58.3008Q101.367-64.9902 97.8027-68.5303Q94.2383-72.0703 87.5-72.0703L23.6328-72.0703Q16.9434-72.0703 13.3545-68.5303Q9.76562-64.9902 9.76562-58.3008Z"/>
   <path class="multicolor-1:systemRedColor SFSymbolsPreviewFF3B30" d="M25.4883-57.5195Q23.8281-57.5195 22.6807-58.6914Q21.5332-59.8633 21.5332-61.4746Q21.5332-63.0859 22.6807-64.2578Q23.8281-65.4297 25.4883-65.4297Q27.0996-65.4297 28.2715-64.2578Q29.4434-63.0859 29.4434-61.4746Q29.4434-59.8633 28.2715-58.6914Q27.0996-57.5195 25.4883-57.5195Z"/>
   <path class="multicolor-2:systemYellowColor SFSymbolsPreviewFFCC00" d="M37.5977-57.5195Q35.9375-57.5195 34.79-58.6914Q33.6426-59.8633 33.6426-61.4746Q33.6426-63.0859 34.79-64.2578Q35.9375-65.4297 37.5977-65.4297Q39.209-65.4297 40.3809-64.2578Q41.5527-63.0859 41.5527-61.4746Q41.5527-59.8633 40.3809-58.6914Q39.209-57.5195 37.5977-57.5195Z"/>
   <path class="multicolor-3:systemGreenColor SFSymbolsPreview28CD41" d="M49.707-57.5195Q48.0469-57.5195 46.8994-58.6914Q45.752-59.8633 45.752-61.4746Q45.752-63.0859 46.8994-64.2578Q48.0469-65.4297 49.707-65.4297Q51.3672-65.4297 52.5146-64.2578Q53.6621-63.0859 53.6621-61.4746Q53.6621-59.8633 52.5146-58.6914Q51.3672-57.5195 49.707-57.5195Z"/>
   <path class="multicolor-0:tertiaryLabelColor multicolor-4:tertiaryLabelColor SFSymbolsPreviewDEDEDE" d="M20.3613-13.4277L20.3613-50.8301L90.7715-50.8301L90.7715-13.4277Q90.7715-11.1328 89.6484-10.0586Q88.5254-8.98438 86.3281-8.98438L24.8047-8.98438Q22.6562-8.98438 21.5088-10.0586Q20.3613-11.1328 20.3613-13.4277Z"/>
  </g>
  <g id="Semibold-S" transform="matrix(1 0 0 1 1987.9 696)">
   <path class="multicolor-0:tertiaryLabelColor SFSymbolsPreviewBDBDBD" d="M9.76562-12.0605Q9.76562-5.56641 13.1836-2.17285Q16.6016 1.2207 23.0957 1.2207L87.6465 1.2207Q94.2383 1.2207 97.6074-2.17285Q100.977-5.56641 100.977-12.0605L100.977-58.3496Q100.977-64.8438 97.6074-68.2373Q94.2383-71.6309 87.6465-71.6309L23.0957-71.6309Q16.6016-71.6309 13.1836-68.2373Q9.76562-64.8438 9.76562-58.3496Z"/>
   <path class="multicolor-1:systemRedColor SFSymbolsPreviewFF3B30" d="M24.3652-57.373Q22.7539-57.373 21.6553-58.5205Q20.5566-59.668 20.5566-61.2305Q20.5566-62.7441 21.6553-63.8916Q22.7539-65.0391 24.3652-65.0391Q25.9766-65.0391 27.0996-63.8916Q28.2227-62.7441 28.2227-61.2305Q28.2227-59.668 27.0996-58.5205Q25.9766-57.373 24.3652-57.373Z"/>
   <path class="multicolor-2:systemYellowColor SFSymbolsPreviewFFCC00" d="M36.2793-57.373Q34.7168-57.373 33.5693-58.5205Q32.4219-59.668 32.4219-61.2305Q32.4219-62.7441 33.5693-63.8916Q34.7168-65.0391 36.2793-65.0391Q37.8418-65.0391 38.9893-63.8916Q40.1367-62.7441 40.1367-61.2305Q40.1367-59.668 38.9893-58.5205Q37.8418-57.373 36.2793-57.373Z"/>
   <path class="multicolor-3:systemGreenColor SFSymbolsPreview28CD41" d="M48.1934-57.373Q46.582-57.373 45.459-58.5205Q44.3359-59.668 44.3359-61.2305Q44.3359-62.7441 45.459-63.8916Q46.582-65.0391 48.1934-65.0391Q49.8047-65.0391 50.9033-63.8916Q52.002-62.7441 52.002-61.2305Q52.002-59.668 50.9033-58.5205Q49.8047-57.373 48.1934-57.373Z"/>
   <path class="multicolor-0:tertiaryLabelColor multicolor-4:tertiaryLabelColor SFSymbolsPreviewDEDEDE" d="M19.043-12.9883L19.043-50.8301L91.6992-50.8301L91.6992-12.9883Q91.6992-10.498 90.4541-9.32617Q89.209-8.1543 86.8652-8.1543L23.877-8.1543Q21.5332-8.1543 20.2881-9.32617Q19.043-10.498 19.043-12.9883Z"/>
  </g>
  <g id="Medium-S" transform="matrix(1 0 0 1 1691.33 696)">
   <path class="multicolor-0:tertiaryLabelColor SFSymbolsPreviewBDBDBD" d="M9.76562-11.9629Q9.76562-5.66406 13.0615-2.41699Q16.3574 0.830078 22.7051 0.830078L87.7441 0.830078Q94.1895 0.830078 97.4365-2.41699Q100.684-5.66406 100.684-11.9629L100.684-58.4473Q100.684-64.7461 97.4365-67.9932Q94.1895-71.2402 87.7441-71.2402L22.7051-71.2402Q16.3574-71.2402 13.0615-67.9932Q9.76562-64.7461 9.76562-58.4473Z"/>
   <path class="multicolor-1:systemRedColor SFSymbolsPreviewFF3B30" d="M23.5352-57.2754Q21.9727-57.2754 20.8984-58.3984Q19.8242-59.5215 19.8242-61.0352Q19.8242-62.5 20.8984-63.623Q21.9727-64.7461 23.5352-64.7461Q25.0977-64.7461 26.1963-63.623Q27.2949-62.5 27.2949-61.0352Q27.2949-59.5215 26.1963-58.3984Q25.0977-57.2754 23.5352-57.2754Z"/>
   <path class="multicolor-2:systemYellowColor SFSymbolsPreviewFFCC00" d="M35.3027-57.2754Q33.7402-57.2754 32.6416-58.3984Q31.543-59.5215 31.543-61.0352Q31.543-62.5 32.6416-63.623Q33.7402-64.7461 35.3027-64.7461Q36.8164-64.7461 37.9395-63.623Q39.0625-62.5 39.0625-61.0352Q39.0625-59.5215 37.9395-58.3984Q36.8164-57.2754 35.3027-57.2754Z"/>
   <path class="multicolor-3:systemGreenColor SFSymbolsPreview28CD41" d="M47.0703-57.2754Q45.5078-57.2754 44.3848-58.3984Q43.2617-59.5215 43.2617-61.0352Q43.2617-62.5 44.3848-63.623Q45.5078-64.7461 47.0703-64.7461Q48.584-64.7461 49.6826-63.623Q50.7812-62.5 50.7812-61.0352Q50.7812-59.5215 49.6826-58.3984Q48.584-57.2754 47.0703-57.2754Z"/>
   <path class="multicolor-0:tertiaryLabelColor multicolor-4:tertiaryLabelColor SFSymbolsPreviewDEDEDE" d="M18.0664-12.6465L18.0664-50.7812L92.3828-50.7812L92.3828-12.6465Q92.3828-10.0586 91.0645-8.78906Q89.7461-7.51953 87.2559-7.51953L23.1934-7.51953Q20.752-7.51953 19.4092-8.78906Q18.0664-10.0586 18.0664-12.6465Z"/>
  </g>
  <g id="Regular-S" transform="matrix(1 0 0 1 1394.79 696)">
   <path class="multicolor-0:tertiaryLabelColor SFSymbolsPreviewBDBDBD" d="M9.76562-11.9141Q9.76562-5.76172 12.8906-2.68555Q16.0156 0.390625 22.2168 0.390625L87.8906 0.390625Q94.1895 0.390625 97.2656-2.68555Q100.342-5.76172 100.342-11.9141L100.342-58.4961Q100.342-64.6484 97.2656-67.7246Q94.1895-70.8008 87.8906-70.8008L22.2168-70.8008Q16.0156-70.8008 12.8906-67.7246Q9.76562-64.6484 9.76562-58.4961Z"/>
   <path class="multicolor-1:systemRedColor SFSymbolsPreviewFF3B30" d="M22.4609-57.1289Q20.9473-57.1289 19.8975-58.2275Q18.8477-59.3262 18.8477-60.791Q18.8477-62.207 19.8975-63.3057Q20.9473-64.4043 22.4609-64.4043Q23.9746-64.4043 25.0488-63.3057Q26.123-62.207 26.123-60.791Q26.123-59.3262 25.0488-58.2275Q23.9746-57.1289 22.4609-57.1289Z"/>
   <path class="multicolor-2:systemYellowColor SFSymbolsPreviewFFCC00" d="M34.0332-57.1289Q32.5195-57.1289 31.4453-58.2275Q30.3711-59.3262 30.3711-60.791Q30.3711-62.207 31.4453-63.3057Q32.5195-64.4043 34.0332-64.4043Q35.498-64.4043 36.5723-63.3057Q37.6465-62.207 37.6465-60.791Q37.6465-59.3262 36.5723-58.2275Q35.498-57.1289 34.0332-57.1289Z"/>
   <path class="multicolor-3:systemGreenColor SFSymbolsPreview28CD41" d="M45.5566-57.1289Q44.043-57.1289 42.9688-58.2275Q41.8945-59.3262 41.8945-60.791Q41.8945-62.207 42.9688-63.3057Q44.043-64.4043 45.5566-64.4043Q47.0703-64.4043 48.1201-63.3057Q49.1699-62.207 49.1699-60.791Q49.1699-59.3262 48.1201-58.2275Q47.0703-57.1289 45.5566-57.1289Z"/>
   <path class="multicolor-0:tertiaryLabelColor multicolor-4:tertiaryLabelColor SFSymbolsPreviewDEDEDE" d="M16.7969-12.2559L16.7969-50.7812L93.3105-50.7812L93.3105-12.2559Q93.3105-9.47266 91.8701-8.08105Q90.4297-6.68945 87.793-6.68945L22.3145-6.68945Q19.6777-6.68945 18.2373-8.08105Q16.7969-9.47266 16.7969-12.2559Z"/>
  </g>
  <g id="Light-S" transform="matrix(1 0 0 1 1098.42 696)">
   <path class="multicolor-0:tertiaryLabelColor SFSymbolsPreviewBDBDBD" d="M9.76562-11.8164Q9.76562-6.05469 12.6953-3.14941Q15.625-0.244141 21.3867-0.244141L87.9883-0.244141Q93.8477-0.244141 96.7529-3.17383Q99.6582-6.10352 99.6582-11.8164L99.6582-58.5938Q99.6582-64.3066 96.7529-67.2119Q93.8477-70.1172 87.9883-70.1172L21.3867-70.1172Q15.625-70.1172 12.6953-67.2119Q9.76562-64.3066 9.76562-58.5938Z"/>
   <path class="multicolor-1:systemRedColor SFSymbolsPreviewFF3B30" d="M21.4355-57.5195Q20.0684-57.5195 19.1406-58.4717Q18.2129-59.4238 18.2129-60.7422Q18.2129-62.0117 19.1406-62.9883Q20.0684-63.9648 21.4355-63.9648Q22.7539-63.9648 23.7061-62.9883Q24.6582-62.0117 24.6582-60.7422Q24.6582-59.4238 23.7061-58.4717Q22.7539-57.5195 21.4355-57.5195Z"/>
   <path class="multicolor-2:systemYellowColor SFSymbolsPreviewFFCC00" d="M31.9824-57.5195Q30.6152-57.5195 29.6631-58.4717Q28.7109-59.4238 28.7109-60.7422Q28.7109-62.0117 29.6631-62.9883Q30.6152-63.9648 31.9824-63.9648Q33.252-63.9648 34.2041-62.9883Q35.1562-62.0117 35.1562-60.7422Q35.1562-59.4238 34.2041-58.4717Q33.252-57.5195 31.9824-57.5195Z"/>
   <path class="multicolor-3:systemGreenColor SFSymbolsPreview28CD41" d="M42.4805-57.5195Q41.1133-57.5195 40.1611-58.4717Q39.209-59.4238 39.209-60.7422Q39.209-62.0117 40.1611-62.9883Q41.1133-63.9648 42.4805-63.9648Q43.7988-63.9648 44.7266-62.9883Q45.6543-62.0117 45.6543-60.7422Q45.6543-59.4238 44.7266-58.4717Q43.7988-57.5195 42.4805-57.5195Z"/>
   <path class="multicolor-0:tertiaryLabelColor multicolor-4:tertiaryLabelColor SFSymbolsPreviewDEDEDE" d="M15.1855-12.0605L15.1855-51.3672L94.2383-51.3672L94.2383-12.0605Q94.2383-8.88672 92.5781-7.2998Q90.918-5.71289 87.8906-5.71289L21.4844-5.71289Q18.457-5.71289 16.8213-7.2998Q15.1855-8.88672 15.1855-12.0605Z"/>
  </g>
  <g id="Thin-S" transform="matrix(1 0 0 1 802.174 696)">
   <path class="multicolor-0:tertiaryLabelColor SFSymbolsPreviewBDBDBD" d="M9.76562-11.6211Q9.76562-6.44531 12.4268-3.78418Q15.0879-1.12305 20.3125-1.12305L88.1836-1.12305Q93.4082-1.12305 96.0693-3.80859Q98.7305-6.49414 98.7305-11.6211L98.7305-58.6914Q98.7305-63.8184 96.0693-66.5283Q93.4082-69.2383 88.1836-69.2383L20.3125-69.2383Q15.0879-69.2383 12.4268-66.5771Q9.76562-63.916 9.76562-58.6914Z"/>
   <path class="multicolor-1:systemRedColor SFSymbolsPreviewFF3B30" d="M20.0684-58.0078Q18.9453-58.0078 18.1641-58.8135Q17.3828-59.6191 17.3828-60.6934Q17.3828-61.7676 18.1641-62.5488Q18.9453-63.3301 20.0684-63.3301Q21.1426-63.3301 21.9482-62.5488Q22.7539-61.7676 22.7539-60.6934Q22.7539-59.6191 21.9482-58.8135Q21.1426-58.0078 20.0684-58.0078Z"/>
   <path class="multicolor-2:systemYellowColor SFSymbolsPreviewFFCC00" d="M29.1992-58.0078Q28.125-58.0078 27.3438-58.8135Q26.5625-59.6191 26.5625-60.6934Q26.5625-61.7676 27.3438-62.5488Q28.125-63.3301 29.1992-63.3301Q30.2734-63.3301 31.0791-62.5488Q31.8848-61.7676 31.8848-60.6934Q31.8848-59.6191 31.0791-58.8135Q30.2734-58.0078 29.1992-58.0078Z"/>
   <path class="multicolor-3:systemGreenColor SFSymbolsPreview28CD41" d="M38.3789-58.0566Q37.2559-58.0566 36.4746-58.8379Q35.6934-59.6191 35.6934-60.6934Q35.6934-61.7676 36.4746-62.5488Q37.2559-63.3301 38.3789-63.3301Q39.4531-63.3301 40.2588-62.5488Q41.0645-61.7676 41.0645-60.6934Q41.0645-59.6191 40.2588-58.8379Q39.4531-58.0566 38.3789-58.0566Z"/>
   <path class="multicolor-0:tertiaryLabelColor multicolor-4:tertiaryLabelColor SFSymbolsPreviewDEDEDE" d="M13.0859-11.8164L13.0859-52.1484L95.4102-52.1484L95.4102-11.8164Q95.4102-8.1543 93.5059-6.29883Q91.6016-4.44336 88.0859-4.44336L20.4102-4.44336Q16.7969-4.44336 14.9414-6.29883Q13.0859-8.1543 13.0859-11.8164Z"/>
  </g>
  <g id="Ultralight-S" transform="matrix(1 0 0 1 505.707 696)">
   <path class="multicolor-0:tertiaryLabelColor SFSymbolsPreviewBDBDBD" d="M9.76562-11.5723Q9.76562-6.64062 12.3047-4.10156Q14.8438-1.5625 19.7754-1.5625L88.2324-1.5625Q93.2129-1.5625 95.7275-4.15039Q98.2422-6.73828 98.2422-11.5723L98.2422-58.7891Q98.2422-63.623 95.7275-66.1865Q93.2129-68.75 88.2324-68.75L19.7754-68.75Q14.8438-68.75 12.3047-66.2109Q9.76562-63.6719 9.76562-58.7891Z"/>
   <path class="multicolor-1:systemRedColor SFSymbolsPreviewFF3B30" d="M19.3848-58.252Q18.3594-58.252 17.6514-58.96Q16.9434-59.668 16.9434-60.6445Q16.9434-61.6211 17.6514-62.3291Q18.3594-63.0371 19.3848-63.0371Q20.3613-63.0371 21.0693-62.3291Q21.7773-61.6211 21.7773-60.6445Q21.7773-59.668 21.0693-58.96Q20.3613-58.252 19.3848-58.252Z"/>
   <path class="multicolor-2:systemYellowColor SFSymbolsPreviewFFCC00" d="M27.832-58.252Q26.8555-58.252 26.1475-58.96Q25.4395-59.668 25.4395-60.6445Q25.4395-61.6211 26.1475-62.3291Q26.8555-63.0371 27.832-63.0371Q28.7598-63.0371 29.4678-62.3291Q30.1758-61.6211 30.1758-60.6445Q30.1758-59.668 29.4678-58.96Q28.7598-58.252 27.832-58.252Z"/>
   <path class="multicolor-3:systemGreenColor SFSymbolsPreview28CD41" d="M36.2793-58.3008Q35.3027-58.3008 34.5703-58.9844Q33.8379-59.668 33.8379-60.6445Q33.8379-61.6211 34.5703-62.3291Q35.3027-63.0371 36.2793-63.0371Q37.2559-63.0371 37.9639-62.3291Q38.6719-61.6211 38.6719-60.6445Q38.6719-59.668 37.9639-58.9844Q37.2559-58.3008 36.2793-58.3008Z"/>
   <path class="multicolor-0:tertiaryLabelColor multicolor-4:tertiaryLabelColor SFSymbolsPreviewDEDEDE" d="M11.9629-11.6699L11.9629-52.5391L96.0449-52.5391L96.0449-11.6699Q96.0449-7.76367 93.9941-5.76172Q91.9434-3.75977 88.1348-3.75977L19.873-3.75977Q15.9668-3.75977 13.9648-5.76172Q11.9629-7.76367 11.9629-11.6699Z"/>
  </g>
 </g>
</svg>
