<?xml version="1.0" encoding="UTF-8"?>
<!--Generator: Apple Native CoreSVG 175-->
<!DOCTYPE svg
PUBLIC "-//W3C//DTD SVG 1.1//EN"
       "http://www.w3.org/Graphics/SVG/1.1/DTD/svg11.dtd">
<svg version="1.1" xmlns="http://www.w3.org/2000/svg" xmlns:xlink="http://www.w3.org/1999/xlink" width="3300" height="2200">
 <!--glyph: "uni10044A.medium", point size: 100.0, font version: "17.0d11e1", template writer version: "65.1"-->
 <style>.multicolor-0:systemRedColor {fill:#FF3B30;opacity:1.0}

.SFSymbolsPreviewFF3B30 {fill:#FF3B30;opacity:1.0}
</style>
 <g id="Notes">
  <rect height="2200" id="artboard" style="fill:white;opacity:1" width="3300" x="0" y="0"/>
  <line style="fill:none;stroke:black;opacity:1;stroke-width:0.5;" x1="263" x2="3036" y1="292" y2="292"/>
  <text style="stroke:none;fill:black;font-family:sans-serif;font-size:13;font-weight:bold;" transform="matrix(1 0 0 1 263 322)">Weight/Scale Variations</text>
  <text style="stroke:none;fill:black;font-family:sans-serif;font-size:13;text-anchor:middle;" transform="matrix(1 0 0 1 559.711 322)">Ultralight</text>
  <text style="stroke:none;fill:black;font-family:sans-serif;font-size:13;text-anchor:middle;" transform="matrix(1 0 0 1 856.422 322)">Thin</text>
  <text style="stroke:none;fill:black;font-family:sans-serif;font-size:13;text-anchor:middle;" transform="matrix(1 0 0 1 1153.13 322)">Light</text>
  <text style="stroke:none;fill:black;font-family:sans-serif;font-size:13;text-anchor:middle;" transform="matrix(1 0 0 1 1449.84 322)">Regular</text>
  <text style="stroke:none;fill:black;font-family:sans-serif;font-size:13;text-anchor:middle;" transform="matrix(1 0 0 1 1746.56 322)">Medium</text>
  <text style="stroke:none;fill:black;font-family:sans-serif;font-size:13;text-anchor:middle;" transform="matrix(1 0 0 1 2043.27 322)">Semibold</text>
  <text style="stroke:none;fill:black;font-family:sans-serif;font-size:13;text-anchor:middle;" transform="matrix(1 0 0 1 2339.98 322)">Bold</text>
  <text style="stroke:none;fill:black;font-family:sans-serif;font-size:13;text-anchor:middle;" transform="matrix(1 0 0 1 2636.69 322)">Heavy</text>
  <text style="stroke:none;fill:black;font-family:sans-serif;font-size:13;text-anchor:middle;" transform="matrix(1 0 0 1 2933.4 322)">Black</text>
  <line style="fill:none;stroke:black;opacity:1;stroke-width:0.5;" x1="263" x2="3036" y1="1903" y2="1903"/>
  <g transform="matrix(1 0 0 1 263 1933)">
   <path d="M9.24805 0.830078Q10.8691 0.830078 12.2949 0.214844Q13.7207-0.400391 14.8096-1.49414Q15.8984-2.58789 16.5186-4.01367Q17.1387-5.43945 17.1387-7.05078Q17.1387-8.66211 16.5186-10.0879Q15.8984-11.5137 14.8047-12.6074Q13.7109-13.7012 12.2852-14.3164Q10.8594-14.9316 9.23828-14.9316Q7.62695-14.9316 6.20117-14.3164Q4.77539-13.7012 3.69141-12.6074Q2.60742-11.5137 1.9873-10.0879Q1.36719-8.66211 1.36719-7.05078Q1.36719-5.43945 1.9873-4.01367Q2.60742-2.58789 3.69629-1.49414Q4.78516-0.400391 6.21094 0.214844Q7.63672 0.830078 9.24805 0.830078ZM9.24805-0.654297Q7.91992-0.654297 6.7627-1.14746Q5.60547-1.64062 4.73145-2.51953Q3.85742-3.39844 3.36426-4.56055Q2.87109-5.72266 2.87109-7.05078Q2.87109-8.37891 3.35938-9.54102Q3.84766-10.7031 4.72168-11.582Q5.5957-12.4609 6.75293-12.9541Q7.91016-13.4473 9.23828-13.4473Q10.5762-13.4473 11.7334-12.9541Q12.8906-12.4609 13.7695-11.582Q14.6484-10.7031 15.1465-9.54102Q15.6445-8.37891 15.6445-7.05078Q15.6445-5.72266 15.1514-4.56055Q14.6582-3.39844 13.7842-2.51953Q12.9102-1.64062 11.748-1.14746Q10.5859-0.654297 9.24805-0.654297ZM5.6543-7.05078Q5.6543-6.72852 5.85938-6.52832Q6.06445-6.32812 6.40625-6.32812L8.51562-6.32812L8.51562-4.20898Q8.51562-3.88672 8.71094-3.67676Q8.90625-3.4668 9.23828-3.4668Q9.56055-3.4668 9.77051-3.67676Q9.98047-3.88672 9.98047-4.20898L9.98047-6.32812L12.0898-6.32812Q12.4219-6.32812 12.627-6.52832Q12.832-6.72852 12.832-7.05078Q12.832-7.38281 12.627-7.58789Q12.4219-7.79297 12.0898-7.79297L9.98047-7.79297L9.98047-9.90234Q9.98047-10.2344 9.77051-10.4443Q9.56055-10.6543 9.23828-10.6543Q8.90625-10.6543 8.71094-10.4443Q8.51562-10.2344 8.51562-9.90234L8.51562-7.79297L6.40625-7.79297Q6.06445-7.79297 5.85938-7.58789Q5.6543-7.38281 5.6543-7.05078Z"/>
  </g>
  <g transform="matrix(1 0 0 1 281.867 1933)">
   <path d="M11.709 2.91016Q13.75 2.91016 15.5518 2.12891Q17.3535 1.34766 18.7305-0.0292969Q20.1074-1.40625 20.8887-3.20801Q21.6699-5.00977 21.6699-7.05078Q21.6699-9.0918 20.8887-10.8936Q20.1074-12.6953 18.7305-14.0723Q17.3535-15.4492 15.5469-16.2305Q13.7402-17.0117 11.6992-17.0117Q9.6582-17.0117 7.85645-16.2305Q6.05469-15.4492 4.68262-14.0723Q3.31055-12.6953 2.5293-10.8936Q1.74805-9.0918 1.74805-7.05078Q1.74805-5.00977 2.5293-3.20801Q3.31055-1.40625 4.6875-0.0292969Q6.06445 1.34766 7.86621 2.12891Q9.66797 2.91016 11.709 2.91016ZM11.709 1.25Q9.98047 1.25 8.47656 0.605469Q6.97266-0.0390625 5.83496-1.17676Q4.69727-2.31445 4.05762-3.81836Q3.41797-5.32227 3.41797-7.05078Q3.41797-8.7793 4.05762-10.2832Q4.69727-11.7871 5.83008-12.9297Q6.96289-14.0723 8.4668-14.7119Q9.9707-15.3516 11.6992-15.3516Q13.4277-15.3516 14.9316-14.7119Q16.4355-14.0723 17.5781-12.9297Q18.7207-11.7871 19.3652-10.2832Q20.0098-8.7793 20.0098-7.05078Q20.0098-5.32227 19.3701-3.81836Q18.7305-2.31445 17.5928-1.17676Q16.4551-0.0390625 14.9463 0.605469Q13.4375 1.25 11.709 1.25ZM7.17773-7.05078Q7.17773-6.69922 7.41211-6.47461Q7.64648-6.25 8.01758-6.25L10.8887-6.25L10.8887-3.36914Q10.8887-2.99805 11.1133-2.76855Q11.3379-2.53906 11.6895-2.53906Q12.0605-2.53906 12.29-2.76855Q12.5195-2.99805 12.5195-3.36914L12.5195-6.25L15.4004-6.25Q15.7715-6.25 16.001-6.47461Q16.2305-6.69922 16.2305-7.05078Q16.2305-7.42188 16.001-7.65137Q15.7715-7.88086 15.4004-7.88086L12.5195-7.88086L12.5195-10.752Q12.5195-11.1328 12.29-11.3623Q12.0605-11.5918 11.6895-11.5918Q11.3379-11.5918 11.1133-11.3574Q10.8887-11.123 10.8887-10.752L10.8887-7.88086L8.01758-7.88086Q7.63672-7.88086 7.40723-7.65137Q7.17773-7.42188 7.17773-7.05078Z"/>
  </g>
  <g transform="matrix(1 0 0 1 305.646 1933)">
   <path d="M14.9707 5.66406Q17.0605 5.66406 18.96 5.01465Q20.8594 4.36523 22.4512 3.19336Q24.043 2.02148 25.2197 0.429688Q26.3965-1.16211 27.0459-3.06641Q27.6953-4.9707 27.6953-7.05078Q27.6953-9.14062 27.0459-11.04Q26.3965-12.9395 25.2197-14.5312Q24.043-16.123 22.4512-17.2998Q20.8594-18.4766 18.9551-19.126Q17.0508-19.7754 14.9609-19.7754Q12.8711-19.7754 10.9717-19.126Q9.07227-18.4766 7.48535-17.2998Q5.89844-16.123 4.72168-14.5312Q3.54492-12.9395 2.90039-11.04Q2.25586-9.14062 2.25586-7.05078Q2.25586-4.9707 2.90527-3.06641Q3.55469-1.16211 4.72656 0.429688Q5.89844 2.02148 7.49023 3.19336Q9.08203 4.36523 10.9814 5.01465Q12.8809 5.66406 14.9707 5.66406ZM14.9707 3.84766Q13.1641 3.84766 11.5283 3.2959Q9.89258 2.74414 8.53516 1.74805Q7.17773 0.751953 6.17676-0.610352Q5.17578-1.97266 4.62891-3.6084Q4.08203-5.24414 4.08203-7.05078Q4.08203-8.86719 4.62891-10.5029Q5.17578-12.1387 6.17188-13.501Q7.16797-14.8633 8.52539-15.8594Q9.88281-16.8555 11.5186-17.4023Q13.1543-17.9492 14.9609-17.9492Q16.7773-17.9492 18.4131-17.4023Q20.0488-16.8555 21.4111-15.8594Q22.7734-14.8633 23.7695-13.501Q24.7656-12.1387 25.3174-10.5029Q25.8691-8.86719 25.8691-7.05078Q25.8789-5.24414 25.332-3.6084Q24.7852-1.97266 23.7842-0.610352Q22.7832 0.751953 21.4209 1.74805Q20.0586 2.74414 18.4229 3.2959Q16.7871 3.84766 14.9707 3.84766ZM9.19922-7.05078Q9.19922-6.66992 9.45801-6.4209Q9.7168-6.17188 10.1172-6.17188L14.0625-6.17188L14.0625-2.2168Q14.0625-1.81641 14.3115-1.55762Q14.5605-1.29883 14.9512-1.29883Q15.3516-1.29883 15.6104-1.55273Q15.8691-1.80664 15.8691-2.2168L15.8691-6.17188L19.8242-6.17188Q20.2246-6.17188 20.4785-6.4209Q20.7324-6.66992 20.7324-7.05078Q20.7324-7.46094 20.4785-7.71484Q20.2246-7.96875 19.8242-7.96875L15.8691-7.96875L15.8691-11.9141Q15.8691-12.3242 15.6104-12.583Q15.3516-12.8418 14.9512-12.8418Q14.5605-12.8418 14.3115-12.583Q14.0625-12.3242 14.0625-11.9141L14.0625-7.96875L10.1172-7.96875Q9.70703-7.96875 9.45312-7.71484Q9.19922-7.46094 9.19922-7.05078Z"/>
  </g>
  <text style="stroke:none;fill:black;font-family:sans-serif;font-size:13;font-weight:bold;" transform="matrix(1 0 0 1 263 1953)">Design Variations</text>
  <text style="stroke:none;fill:black;font-family:sans-serif;font-size:13;" transform="matrix(1 0 0 1 263 1971)">Symbols are supported in up to nine weights and three scales.</text>
  <text style="stroke:none;fill:black;font-family:sans-serif;font-size:13;" transform="matrix(1 0 0 1 263 1989)">For optimal layout with text and other symbols, vertically align</text>
  <text style="stroke:none;fill:black;font-family:sans-serif;font-size:13;" transform="matrix(1 0 0 1 263 2007)">symbols with the adjacent text.</text>
  <line style="fill:none;stroke:#00AEEF;stroke-width:0.5;opacity:1.0;" x1="776" x2="776" y1="1919" y2="1933"/>
  <g transform="matrix(1 0 0 1 776 1933)">
   <path d="M3.31055 0.15625Q3.70117 0.15625 3.91602-0.00976562Q4.13086-0.175781 4.26758-0.585938L5.52734-4.0332L11.2891-4.0332L12.5488-0.585938Q12.6855-0.175781 12.9004-0.00976562Q13.1152 0.15625 13.4961 0.15625Q13.8867 0.15625 14.1162-0.0585938Q14.3457-0.273438 14.3457-0.644531Q14.3457-0.869141 14.2383-1.17188L9.6582-13.3691Q9.48242-13.8184 9.17969-14.043Q8.87695-14.2676 8.4082-14.2676Q7.5-14.2676 7.17773-13.3789L2.59766-1.16211Q2.49023-0.859375 2.49023-0.634766Q2.49023-0.263672 2.70996-0.0537109Q2.92969 0.15625 3.31055 0.15625ZM6.00586-5.51758L8.37891-12.0898L8.42773-12.0898L10.8008-5.51758Z"/>
  </g>
  <line style="fill:none;stroke:#00AEEF;stroke-width:0.5;opacity:1.0;" x1="793.197" x2="793.197" y1="1919" y2="1933"/>
  <text style="stroke:none;fill:black;font-family:sans-serif;font-size:13;font-weight:bold;" transform="matrix(1 0 0 1 776 1953)">Margins</text>
  <text style="stroke:none;fill:black;font-family:sans-serif;font-size:13;" transform="matrix(1 0 0 1 776 1971)">Leading and trailing margins on the left and right side of each symbol</text>
  <text style="stroke:none;fill:black;font-family:sans-serif;font-size:13;" transform="matrix(1 0 0 1 776 1989)">can be adjusted by modifying the x-location of the margin guidelines.</text>
  <text style="stroke:none;fill:black;font-family:sans-serif;font-size:13;" transform="matrix(1 0 0 1 776 2007)">Modifications are automatically applied proportionally to all</text>
  <text style="stroke:none;fill:black;font-family:sans-serif;font-size:13;" transform="matrix(1 0 0 1 776 2025)">scales and weights.</text>
  <g transform="matrix(1 0 0 1 1289 1933)">
   <path d="M2.8418 1.86523L4.54102 3.57422Q5.18555 4.22852 5.90332 4.17969Q6.62109 4.13086 7.31445 3.35938L18.0078-8.42773L17.041-9.4043L6.42578 2.27539Q6.16211 2.57812 5.89355 2.61719Q5.625 2.65625 5.27344 2.30469L4.10156 1.14258Q3.75 0.791016 3.79395 0.522461Q3.83789 0.253906 4.14062-0.0195312L15.6152-10.8203L14.6387-11.7871L3.04688-0.898438Q2.30469-0.214844 2.25098 0.498047Q2.19727 1.21094 2.8418 1.86523ZM9.25781-16.3281Q8.94531-16.0254 8.90625-15.6348Q8.86719-15.2441 9.04297-14.9512Q9.21875-14.6777 9.55566-14.541Q9.89258-14.4043 10.3809-14.5215Q11.4746-14.7754 12.5977-14.7314Q13.7207-14.6875 14.7949-13.9844L14.209-12.5293Q13.9551-11.9043 14.0674-11.4404Q14.1797-10.9766 14.5801-10.5664L16.875-8.25195Q17.2363-7.88086 17.5781-7.82227Q17.9199-7.76367 18.3398-7.8418L19.4043-8.03711L20.0684-7.36328L20.0293-6.80664Q20-6.43555 20.1221-6.12305Q20.2441-5.81055 20.6055-5.44922L21.3672-4.70703Q21.7285-4.3457 22.1533-4.33105Q22.5781-4.31641 22.9297-4.66797L25.8398-7.58789Q26.1914-7.93945 26.1816-8.35449Q26.1719-8.76953 25.8105-9.13086L25.0391-9.89258Q24.6875-10.2539 24.3799-10.3857Q24.0723-10.5176 23.7109-10.4883L23.1348-10.4395L22.4902-11.0742L22.7344-12.1973Q22.832-12.6172 22.6953-12.9834Q22.5586-13.3496 22.1191-13.7891L19.9219-15.9766Q18.6719-17.2168 17.2607-17.8369Q15.8496-18.457 14.4189-18.4814Q12.9883-18.5059 11.665-17.959Q10.3418-17.4121 9.25781-16.3281ZM10.752-15.957Q11.6602-16.6211 12.7002-16.9043Q13.7402-17.1875 14.8047-17.085Q15.8691-16.9824 16.8701-16.5137Q17.8711-16.0449 18.7012-15.2051L21.1328-12.793Q21.3086-12.6172 21.3525-12.4512Q21.3965-12.2852 21.3379-12.0312L21.0156-10.5469L22.5195-9.0625L23.5059-9.12109Q23.6914-9.13086 23.7891-9.09668Q23.8867-9.0625 24.0332-8.91602L24.6094-8.33984L22.168-5.89844L21.5918-6.47461Q21.4453-6.62109 21.4062-6.71875Q21.3672-6.81641 21.377-7.01172L21.4453-7.98828L19.9512-9.47266L18.4277-9.21875Q18.1836-9.16992 18.042-9.2041Q17.9004-9.23828 17.7148-9.41406L15.7129-11.416Q15.5176-11.5918 15.4932-11.7529Q15.4688-11.9141 15.5859-12.1875L16.4648-14.2773Q15.293-15.3711 13.8281-15.791Q12.3633-16.2109 10.8398-15.7617Q10.7227-15.7324 10.6885-15.8057Q10.6543-15.8789 10.752-15.957Z"/>
  </g>
  <text style="stroke:none;fill:black;font-family:sans-serif;font-size:13;font-weight:bold;" transform="matrix(1 0 0 1 1289 1953)">Exporting</text>
  <text style="stroke:none;fill:black;font-family:sans-serif;font-size:13;" transform="matrix(1 0 0 1 1289 1971)">Symbols should be outlined when exporting to ensure the</text>
  <text style="stroke:none;fill:black;font-family:sans-serif;font-size:13;" transform="matrix(1 0 0 1 1289 1989)">design is preserved when submitting to Xcode.</text>
  <text id="template-version" style="stroke:none;fill:black;font-family:sans-serif;font-size:13;text-anchor:end;" transform="matrix(1 0 0 1 3036 1933)">Template v.3.0</text>
  <text style="stroke:none;fill:black;font-family:sans-serif;font-size:13;text-anchor:end;" transform="matrix(1 0 0 1 3036 1951)">Requires Xcode 13 or greater</text>
  <text id="descriptive-name" style="stroke:none;fill:black;font-family:sans-serif;font-size:13;text-anchor:end;" transform="matrix(1 0 0 1 3036 1969)">Generated from gift.fill</text>
  <text style="stroke:none;fill:black;font-family:sans-serif;font-size:13;text-anchor:end;" transform="matrix(1 0 0 1 3036 1987)">Typeset at 100 points</text>
  <text style="stroke:none;fill:black;font-family:sans-serif;font-size:13;" transform="matrix(1 0 0 1 263 726)">Small</text>
  <text style="stroke:none;fill:black;font-family:sans-serif;font-size:13;" transform="matrix(1 0 0 1 263 1156)">Medium</text>
  <text style="stroke:none;fill:black;font-family:sans-serif;font-size:13;" transform="matrix(1 0 0 1 263 1586)">Large</text>
 </g>
 <g id="Guides">
  <g id="H-reference" style="fill:#27AAE1;stroke:none;" transform="matrix(1 0 0 1 339 696)">
   <path d="M0.976562 0L3.66211 0L29.3457-67.1387L30.0293-67.1387L30.0293-70.459L28.125-70.459ZM11.6699-24.4629L46.9727-24.4629L46.2402-26.709L12.4512-26.709ZM55.127 0L57.7637 0L30.6152-70.459L29.4434-70.459L29.4434-67.1387Z"/>
  </g>
  <line id="Baseline-S" style="fill:none;stroke:#27AAE1;opacity:1;stroke-width:0.5;" x1="263" x2="3036" y1="696" y2="696"/>
  <line id="Capline-S" style="fill:none;stroke:#27AAE1;opacity:1;stroke-width:0.5;" x1="263" x2="3036" y1="625.541" y2="625.541"/>
  <g id="H-reference" style="fill:#27AAE1;stroke:none;" transform="matrix(1 0 0 1 339 1126)">
   <path d="M0.976562 0L3.66211 0L29.3457-67.1387L30.0293-67.1387L30.0293-70.459L28.125-70.459ZM11.6699-24.4629L46.9727-24.4629L46.2402-26.709L12.4512-26.709ZM55.127 0L57.7637 0L30.6152-70.459L29.4434-70.459L29.4434-67.1387Z"/>
  </g>
  <line id="Baseline-M" style="fill:none;stroke:#27AAE1;opacity:1;stroke-width:0.5;" x1="263" x2="3036" y1="1126" y2="1126"/>
  <line id="Capline-M" style="fill:none;stroke:#27AAE1;opacity:1;stroke-width:0.5;" x1="263" x2="3036" y1="1055.54" y2="1055.54"/>
  <g id="H-reference" style="fill:#27AAE1;stroke:none;" transform="matrix(1 0 0 1 339 1556)">
   <path d="M0.976562 0L3.66211 0L29.3457-67.1387L30.0293-67.1387L30.0293-70.459L28.125-70.459ZM11.6699-24.4629L46.9727-24.4629L46.2402-26.709L12.4512-26.709ZM55.127 0L57.7637 0L30.6152-70.459L29.4434-70.459L29.4434-67.1387Z"/>
  </g>
  <line id="Baseline-L" style="fill:none;stroke:#27AAE1;opacity:1;stroke-width:0.5;" x1="263" x2="3036" y1="1556" y2="1556"/>
  <line id="Capline-L" style="fill:none;stroke:#27AAE1;opacity:1;stroke-width:0.5;" x1="263" x2="3036" y1="1485.54" y2="1485.54"/>
  <line id="left-margin-Ultralight-S" style="fill:none;stroke:#00AEEF;stroke-width:0.5;opacity:1.0;" x1="514.667" x2="514.667" y1="600.785" y2="720.121"/>
  <line id="right-margin-Ultralight-S" style="fill:none;stroke:#00AEEF;stroke-width:0.5;opacity:1.0;" x1="604.755" x2="604.755" y1="600.785" y2="720.121"/>
  <line id="left-margin-Thin-S" style="fill:none;stroke:#00AEEF;stroke-width:0.5;opacity:1.0;" x1="810.963" x2="810.963" y1="600.785" y2="720.121"/>
  <line id="right-margin-Thin-S" style="fill:none;stroke:#00AEEF;stroke-width:0.5;opacity:1.0;" x1="901.881" x2="901.881" y1="600.785" y2="720.121"/>
  <line id="left-margin-Light-S" style="fill:none;stroke:#00AEEF;stroke-width:0.5;opacity:1.0;" x1="1106.89" x2="1106.89" y1="600.785" y2="720.121"/>
  <line id="right-margin-Light-S" style="fill:none;stroke:#00AEEF;stroke-width:0.5;opacity:1.0;" x1="1199.37" x2="1199.37" y1="600.785" y2="720.121"/>
  <line id="left-margin-Regular-S" style="fill:none;stroke:#00AEEF;stroke-width:0.5;opacity:1.0;" x1="1403.02" x2="1403.02" y1="600.785" y2="720.121"/>
  <line id="right-margin-Regular-S" style="fill:none;stroke:#00AEEF;stroke-width:0.5;opacity:1.0;" x1="1496.67" x2="1496.67" y1="600.785" y2="720.121"/>
  <line id="left-margin-Medium-S" style="fill:none;stroke:#00AEEF;stroke-width:0.5;opacity:1.0;" x1="1699.14" x2="1699.14" y1="600.785" y2="720.121"/>
  <line id="right-margin-Medium-S" style="fill:none;stroke:#00AEEF;stroke-width:0.5;opacity:1.0;" x1="1793.97" x2="1793.97" y1="600.785" y2="720.121"/>
  <line id="left-margin-Semibold-S" style="fill:none;stroke:#00AEEF;stroke-width:0.5;opacity:1.0;" x1="1995.39" x2="1995.39" y1="600.785" y2="720.121"/>
  <line id="right-margin-Semibold-S" style="fill:none;stroke:#00AEEF;stroke-width:0.5;opacity:1.0;" x1="2091.14" x2="2091.14" y1="600.785" y2="720.121"/>
  <line id="left-margin-Bold-S" style="fill:none;stroke:#00AEEF;stroke-width:0.5;opacity:1.0;" x1="2291.52" x2="2291.52" y1="600.785" y2="720.121"/>
  <line id="right-margin-Bold-S" style="fill:none;stroke:#00AEEF;stroke-width:0.5;opacity:1.0;" x1="2388.44" x2="2388.44" y1="600.785" y2="720.121"/>
  <line id="left-margin-Heavy-S" style="fill:none;stroke:#00AEEF;stroke-width:0.5;opacity:1.0;" x1="2587.37" x2="2587.37" y1="600.785" y2="720.121"/>
  <line id="right-margin-Heavy-S" style="fill:none;stroke:#00AEEF;stroke-width:0.5;opacity:1.0;" x1="2686.01" x2="2686.01" y1="600.785" y2="720.121"/>
  <line id="left-margin-Black-S" style="fill:none;stroke:#00AEEF;stroke-width:0.5;opacity:1.0;" x1="2883.3" x2="2883.3" y1="600.785" y2="720.121"/>
  <line id="right-margin-Black-S" style="fill:none;stroke:#00AEEF;stroke-width:0.5;opacity:1.0;" x1="2983.5" x2="2983.5" y1="600.785" y2="720.121"/>
  <line id="left-margin-Ultralight-M" style="fill:none;stroke:#00AEEF;stroke-width:0.5;opacity:1.0;" x1="502.362" x2="502.362" y1="1030.79" y2="1150.12"/>
  <line id="right-margin-Ultralight-M" style="fill:none;stroke:#00AEEF;stroke-width:0.5;opacity:1.0;" x1="617.06" x2="617.06" y1="1030.79" y2="1150.12"/>
  <line id="left-margin-Thin-M" style="fill:none;stroke:#00AEEF;stroke-width:0.5;opacity:1.0;" x1="798.61" x2="798.61" y1="1030.79" y2="1150.12"/>
  <line id="right-margin-Thin-M" style="fill:none;stroke:#00AEEF;stroke-width:0.5;opacity:1.0;" x1="914.235" x2="914.235" y1="1030.79" y2="1150.12"/>
  <line id="left-margin-Light-M" style="fill:none;stroke:#00AEEF;stroke-width:0.5;opacity:1.0;" x1="1094.44" x2="1094.44" y1="1030.79" y2="1150.12"/>
  <line id="right-margin-Light-M" style="fill:none;stroke:#00AEEF;stroke-width:0.5;opacity:1.0;" x1="1211.82" x2="1211.82" y1="1030.79" y2="1150.12"/>
  <line id="left-margin-Regular-M" style="fill:none;stroke:#00AEEF;stroke-width:0.5;opacity:1.0;" x1="1390.49" x2="1390.49" y1="1030.79" y2="1150.12"/>
  <line id="right-margin-Regular-M" style="fill:none;stroke:#00AEEF;stroke-width:0.5;opacity:1.0;" x1="1509.2" x2="1509.2" y1="1030.79" y2="1150.12"/>
  <line id="left-margin-Medium-M" style="fill:none;stroke:#00AEEF;stroke-width:0.5;opacity:1.0;" x1="1686.45" x2="1686.45" y1="1030.79" y2="1150.12"/>
  <line id="right-margin-Medium-M" style="fill:none;stroke:#00AEEF;stroke-width:0.5;opacity:1.0;" x1="1806.66" x2="1806.66" y1="1030.79" y2="1150.12"/>
  <line id="left-margin-Semibold-M" style="fill:none;stroke:#00AEEF;stroke-width:0.5;opacity:1.0;" x1="1982.57" x2="1982.57" y1="1030.79" y2="1150.12"/>
  <line id="right-margin-Semibold-M" style="fill:none;stroke:#00AEEF;stroke-width:0.5;opacity:1.0;" x1="2103.96" x2="2103.96" y1="1030.79" y2="1150.12"/>
  <line id="left-margin-Bold-M" style="fill:none;stroke:#00AEEF;stroke-width:0.5;opacity:1.0;" x1="2278.5" x2="2278.5" y1="1030.79" y2="1150.12"/>
  <line id="right-margin-Bold-M" style="fill:none;stroke:#00AEEF;stroke-width:0.5;opacity:1.0;" x1="2401.45" x2="2401.45" y1="1030.79" y2="1150.12"/>
  <line id="left-margin-Heavy-M" style="fill:none;stroke:#00AEEF;stroke-width:0.5;opacity:1.0;" x1="2574.09" x2="2574.09" y1="1030.79" y2="1150.12"/>
  <line id="right-margin-Heavy-M" style="fill:none;stroke:#00AEEF;stroke-width:0.5;opacity:1.0;" x1="2699.29" x2="2699.29" y1="1030.79" y2="1150.12"/>
  <line id="left-margin-Black-M" style="fill:none;stroke:#00AEEF;stroke-width:0.5;opacity:1.0;" x1="2869.8" x2="2869.8" y1="1030.79" y2="1150.12"/>
  <line id="right-margin-Black-M" style="fill:none;stroke:#00AEEF;stroke-width:0.5;opacity:1.0;" x1="2997" x2="2997" y1="1030.79" y2="1150.12"/>
  <line id="left-margin-Ultralight-L" style="fill:none;stroke:#00AEEF;stroke-width:0.5;opacity:1.0;" x1="485.907" x2="485.907" y1="1460.79" y2="1580.12"/>
  <line id="right-margin-Ultralight-L" style="fill:none;stroke:#00AEEF;stroke-width:0.5;opacity:1.0;" x1="633.515" x2="633.515" y1="1460.79" y2="1580.12"/>
  <line id="left-margin-Thin-L" style="fill:none;stroke:#00AEEF;stroke-width:0.5;opacity:1.0;" x1="782.13" x2="782.13" y1="1460.79" y2="1580.12"/>
  <line id="right-margin-Thin-L" style="fill:none;stroke:#00AEEF;stroke-width:0.5;opacity:1.0;" x1="930.714" x2="930.714" y1="1460.79" y2="1580.12"/>
  <line id="left-margin-Light-L" style="fill:none;stroke:#00AEEF;stroke-width:0.5;opacity:1.0;" x1="1077.84" x2="1077.84" y1="1460.79" y2="1580.12"/>
  <line id="right-margin-Light-L" style="fill:none;stroke:#00AEEF;stroke-width:0.5;opacity:1.0;" x1="1228.43" x2="1228.43" y1="1460.79" y2="1580.12"/>
  <line id="left-margin-Regular-L" style="fill:none;stroke:#00AEEF;stroke-width:0.5;opacity:1.0;" x1="1373.82" x2="1373.82" y1="1460.79" y2="1580.12"/>
  <line id="right-margin-Regular-L" style="fill:none;stroke:#00AEEF;stroke-width:0.5;opacity:1.0;" x1="1525.87" x2="1525.87" y1="1460.79" y2="1580.12"/>
  <line id="left-margin-Medium-L" style="fill:none;stroke:#00AEEF;stroke-width:0.5;opacity:1.0;" x1="1669.63" x2="1669.63" y1="1460.79" y2="1580.12"/>
  <line id="right-margin-Medium-L" style="fill:none;stroke:#00AEEF;stroke-width:0.5;opacity:1.0;" x1="1823.48" x2="1823.48" y1="1460.79" y2="1580.12"/>
  <line id="left-margin-Semibold-L" style="fill:none;stroke:#00AEEF;stroke-width:0.5;opacity:1.0;" x1="1965.63" x2="1965.63" y1="1460.79" y2="1580.12"/>
  <line id="right-margin-Semibold-L" style="fill:none;stroke:#00AEEF;stroke-width:0.5;opacity:1.0;" x1="2120.9" x2="2120.9" y1="1460.79" y2="1580.12"/>
  <line id="left-margin-Bold-L" style="fill:none;stroke:#00AEEF;stroke-width:0.5;opacity:1.0;" x1="2261.44" x2="2261.44" y1="1460.79" y2="1580.12"/>
  <line id="right-margin-Bold-L" style="fill:none;stroke:#00AEEF;stroke-width:0.5;opacity:1.0;" x1="2418.52" x2="2418.52" y1="1460.79" y2="1580.12"/>
  <line id="left-margin-Heavy-L" style="fill:none;stroke:#00AEEF;stroke-width:0.5;opacity:1.0;" x1="2556.83" x2="2556.83" y1="1460.79" y2="1580.12"/>
  <line id="right-margin-Heavy-L" style="fill:none;stroke:#00AEEF;stroke-width:0.5;opacity:1.0;" x1="2716.55" x2="2716.55" y1="1460.79" y2="1580.12"/>
  <line id="left-margin-Black-L" style="fill:none;stroke:#00AEEF;stroke-width:0.5;opacity:1.0;" x1="2852.35" x2="2852.35" y1="1460.79" y2="1580.12"/>
  <line id="right-margin-Black-L" style="fill:none;stroke:#00AEEF;stroke-width:0.5;opacity:1.0;" x1="3014.45" x2="3014.45" y1="1460.79" y2="1580.12"/>
 </g>
 <g id="Symbols">
  <g id="Black-L" transform="matrix(1 0 0 1 2852.35 1556)">
   <path class="multicolor-0:systemRedColor SFSymbolsPreviewFF3B30" d="M16.0645-42.7246Q16.0645-36.7188 19.458-33.374Q22.8516-30.0293 28.5645-30.0293L72.4121-30.0293L72.4121-70.2148L63.8672-70.2148Q57.373-70.2148 53.8818-73.3887Q50.3906-76.5625 50.3906-81.3477Q50.3906-85.8887 53.0029-88.7451Q55.6152-91.6016 60.4492-91.6016Q63.7207-91.6016 66.4307-89.7949Q69.1406-87.9883 70.7764-84.9365Q72.4121-81.8848 72.4121-78.1738L72.4121-70.2148L89.7461-70.2148L89.7461-78.1738Q89.7461-81.8848 91.3818-84.9365Q93.0176-87.9883 95.7275-89.7949Q98.4375-91.6016 101.66-91.6016Q106.494-91.6016 109.131-88.7451Q111.768-85.8887 111.768-81.3477Q111.768-76.5625 108.276-73.3887Q104.785-70.2148 98.2422-70.2148L89.7461-70.2148L89.7461-30.0293L133.545-30.0293Q139.307-30.0293 142.676-33.374Q146.045-36.7188 146.045-42.7246L146.045-52.8809Q146.045-61.2305 141.528-65.7227Q137.012-70.2148 128.857-70.2148L123.584-70.2148Q126.221-73.0469 127.71-76.6846Q129.199-80.3223 129.199-84.5215Q129.199-91.4062 125.83-96.7773Q122.461-102.148 116.821-105.2Q111.182-108.252 104.346-108.252Q98.9746-108.252 94.1895-106.152Q89.4043-104.053 85.9375-99.9756Q82.4707-95.8984 81.0547-90.0879Q79.6875-95.8984 76.2207-99.9756Q72.7539-104.053 67.9443-106.152Q63.1348-108.252 57.7637-108.252Q50.9766-108.252 45.3125-105.2Q39.6484-102.148 36.2793-96.7773Q32.9102-91.4062 32.9102-84.5215Q32.9102-80.3223 34.4238-76.6846Q35.9375-73.0469 38.5254-70.2148L33.252-70.2148Q25.1953-70.2148 20.6299-65.7227Q16.0645-61.2305 16.0645-52.8809ZM89.7461 31.9336L119.678 31.9336Q128.516 31.9336 133.472 27.124Q138.428 22.3145 138.428 13.5742L138.428-19.2871L89.7461-19.2871ZM23.7305 13.5742Q23.7305 22.3145 28.6621 27.124Q33.5938 31.9336 42.4316 31.9336L72.4121 31.9336L72.4121-19.2871L23.7305-19.2871Z"/>
  </g>
  <g id="Heavy-L" transform="matrix(1 0 0 1 2556.83 1556)">
   <path class="multicolor-0:systemRedColor SFSymbolsPreviewFF3B30" d="M16.0645-43.2617Q16.0645-37.5488 19.2871-34.4727Q22.5098-31.3965 27.9785-31.3965L72.1191-31.3965L72.1191-69.9707L63.4766-69.9707Q56.6406-69.9707 52.9541-73.3398Q49.2676-76.709 49.2676-81.6406Q49.2676-86.3281 52.0264-89.1846Q54.7852-92.041 59.7168-92.041Q63.1348-92.041 65.9424-90.21Q68.75-88.3789 70.4346-85.2051Q72.1191-82.0312 72.1191-78.0273L72.1191-69.9707L87.6465-69.9707L87.6465-78.0273Q87.6465-82.0312 89.3311-85.2051Q91.0156-88.3789 93.8232-90.21Q96.6309-92.041 100-92.041Q104.932-92.041 107.715-89.1846Q110.498-86.3281 110.498-81.6406Q110.498-76.709 106.812-73.3398Q103.125-69.9707 96.2891-69.9707L87.6465-69.9707L87.6465-31.3965L131.738-31.3965Q137.305-31.3965 140.479-34.4727Q143.652-37.5488 143.652-43.2617L143.652-54.541Q143.652-62.0605 139.6-66.0156Q135.547-69.9707 128.174-69.9707L120.312-69.9707Q123.047-72.7051 124.585-76.3184Q126.123-79.9316 126.123-84.1797Q126.123-90.8203 122.876-95.9717Q119.629-101.123 114.209-104.077Q108.789-107.031 102.197-107.031Q97.0215-107.031 92.4805-105.029Q87.9395-103.027 84.6191-99.1943Q81.2988-95.3613 79.8828-89.9414Q78.4668-95.3613 75.1465-99.1943Q71.8262-103.027 67.2607-105.029Q62.6953-107.031 57.5684-107.031Q50.9766-107.031 45.5322-104.077Q40.0879-101.123 36.8652-95.9717Q33.6426-90.8203 33.6426-84.1797Q33.6426-79.9316 35.2051-76.3184Q36.7676-72.7051 39.4043-69.9707L31.5918-69.9707Q24.3164-69.9707 20.1904-66.0156Q16.0645-62.0605 16.0645-54.541ZM87.6465 30.7617L117.529 30.7617Q126.074 30.7617 130.859 26.1475Q135.645 21.5332 135.645 13.0859L135.645-21.6797L87.6465-21.6797ZM24.1211 13.0859Q24.1211 21.5332 28.8818 26.1475Q33.6426 30.7617 42.1875 30.7617L72.1191 30.7617L72.1191-21.6797L24.1211-21.6797Z"/>
  </g>
  <g id="Bold-L" transform="matrix(1 0 0 1 2261.44 1556)">
   <path class="multicolor-0:systemRedColor SFSymbolsPreviewFF3B30" d="M16.0645-43.8965Q16.0645-38.4766 19.0918-35.6934Q22.1191-32.9102 27.3926-32.9102L71.8262-32.9102L71.8262-69.6777L62.9883-69.6777Q55.8594-69.6777 51.9287-73.2666Q47.998-76.8555 47.998-82.0312Q47.998-86.8164 50.9521-89.6729Q53.9062-92.5293 58.8867-92.5293Q62.5-92.5293 65.4297-90.6494Q68.3594-88.7695 70.0928-85.4736Q71.8262-82.1777 71.8262-77.9297L71.8262-69.6777L85.3027-69.6777L85.3027-77.9297Q85.3027-82.1777 87.0361-85.4736Q88.7695-88.7695 91.6992-90.6494Q94.6289-92.5293 98.1934-92.5293Q103.174-92.5293 106.152-89.6729Q109.131-86.8164 109.131-82.0312Q109.131-76.8555 105.2-73.2666Q101.27-69.6777 94.0918-69.6777L85.3027-69.6777L85.3027-32.9102L129.736-32.9102Q135.059-32.9102 138.037-35.6934Q141.016-38.4766 141.016-43.8965L141.016-56.3477Q141.016-62.9395 137.451-66.3086Q133.887-69.6777 127.393-69.6777L116.65-69.6777Q119.482-72.3633 121.069-75.9521Q122.656-79.541 122.656-83.8379Q122.656-90.1855 119.58-95.1172Q116.504-100.049 111.328-102.832Q106.152-105.615 99.8047-105.615Q94.873-105.615 90.5762-103.76Q86.2793-101.904 83.1543-98.3643Q80.0293-94.8242 78.5645-89.7461Q77.0996-94.8242 73.9746-98.3643Q70.8496-101.904 66.5283-103.76Q62.207-105.615 57.3242-105.615Q50.9766-105.615 45.7764-102.832Q40.5762-100.049 37.5-95.1172Q34.4238-90.1855 34.4238-83.8379Q34.4238-79.541 36.0352-75.9521Q37.6465-72.3633 40.4297-69.6777L29.7363-69.6777Q23.3887-69.6777 19.7266-66.3086Q16.0645-62.9395 16.0645-56.3477ZM85.3027 29.4922L115.186 29.4922Q123.34 29.4922 127.954 25.0977Q132.568 20.7031 132.568 12.5488L132.568-24.3652L85.3027-24.3652ZM24.5605 12.5488Q24.5605 20.7031 29.1504 25.0977Q33.7402 29.4922 41.9434 29.4922L71.8262 29.4922L71.8262-24.3652L24.5605-24.3652Z"/>
  </g>
  <g id="Semibold-L" transform="matrix(1 0 0 1 1965.63 1556)">
   <path class="multicolor-0:systemRedColor SFSymbolsPreviewFF3B30" d="M16.0645-44.2871Q16.0645-39.1113 18.9453-36.5234Q21.8262-33.9355 26.9531-33.9355L71.582-33.9355L71.582-69.4336L62.6465-69.4336Q55.3223-69.4336 51.2207-73.1934Q47.1191-76.9531 47.1191-82.2266Q47.1191-87.1094 50.1953-89.9658Q53.2715-92.8223 58.3008-92.8223Q62.0117-92.8223 65.0146-90.9424Q68.0176-89.0625 69.7998-85.6689Q71.582-82.2754 71.582-77.7832L71.582-69.4336L83.6914-69.4336L83.6914-77.7832Q83.6914-82.2754 85.4492-85.6689Q87.207-89.0625 90.2344-90.9424Q93.2617-92.8223 96.9238-92.8223Q101.953-92.8223 105.054-89.9658Q108.154-87.1094 108.154-82.2266Q108.154-76.9531 104.053-73.1934Q99.9512-69.4336 92.5781-69.4336L83.6914-69.4336L83.6914-33.9355L128.32-33.9355Q133.496-33.9355 136.353-36.5234Q139.209-39.1113 139.209-44.2871L139.209-57.6172Q139.209-63.5742 135.986-66.5039Q132.764-69.4336 126.807-69.4336L114.111-69.4336Q116.992-72.0703 118.628-75.6592Q120.264-79.248 120.264-83.5449Q120.264-89.6973 117.31-94.4824Q114.355-99.2676 109.351-101.953Q104.346-104.639 98.0957-104.639Q93.3594-104.639 89.2578-102.881Q85.1562-101.123 82.1289-97.7539Q79.1016-94.3848 77.6367-89.5996Q76.1719-94.3848 73.1445-97.7539Q70.1172-101.123 65.9912-102.881Q61.8652-104.639 57.1289-104.639Q50.9277-104.639 45.9229-101.953Q40.918-99.2676 37.9395-94.4824Q34.9609-89.6973 34.9609-83.5449Q34.9609-79.248 36.6211-75.6592Q38.2812-72.0703 41.1133-69.4336L28.418-69.4336Q22.7051-69.4336 19.3848-66.5039Q16.0645-63.5742 16.0645-57.6172ZM83.6914 28.5645L113.525 28.5645Q121.436 28.5645 125.928 24.3164Q130.42 20.0684 130.42 12.1582L130.42-26.2207L83.6914-26.2207ZM24.8535 12.1582Q24.8535 20.0684 29.3213 24.3164Q33.7891 28.5645 41.748 28.5645L71.582 28.5645L71.582-26.2207L24.8535-26.2207Z"/>
  </g>
  <g id="Medium-L" transform="matrix(1 0 0 1 1669.63 1556)">
   <path class="multicolor-0:systemRedColor SFSymbolsPreviewFF3B30" d="M16.0645-44.6289Q16.0645-39.5996 18.8477-37.1582Q21.6309-34.7168 26.6113-34.7168L71.3867-34.7168L71.3867-69.2871L62.4023-69.2871Q54.8828-69.2871 50.6836-73.1445Q46.4844-77.002 46.4844-82.4219Q46.4844-87.3535 49.6582-90.21Q52.832-93.0664 57.9102-93.0664Q61.6699-93.0664 64.7461-91.1621Q67.8223-89.2578 69.6045-85.8154Q71.3867-82.373 71.3867-77.7344L71.3867-69.2871L82.4707-69.2871L82.4707-77.7344Q82.4707-82.373 84.2529-85.8154Q86.0352-89.2578 89.1113-91.1621Q92.1875-93.0664 95.9961-93.0664Q101.025-93.0664 104.224-90.21Q107.422-87.3535 107.422-82.4219Q107.422-77.002 103.198-73.1445Q98.9746-69.2871 91.4551-69.2871L82.4707-69.2871L82.4707-34.7168L127.246-34.7168Q132.275-34.7168 135.034-37.1582Q137.793-39.5996 137.793-44.6289L137.793-58.5449Q137.793-64.0137 134.839-66.6504Q131.885-69.2871 126.416-69.2871L112.207-69.2871Q115.137-71.875 116.797-75.4639Q118.457-79.0527 118.457-83.3496Q118.457-89.3555 115.576-94.0186Q112.695-98.6816 107.812-101.294Q102.93-103.906 96.875-103.906Q92.2363-103.906 88.2568-102.222Q84.2773-100.537 81.3477-97.3145Q78.418-94.0918 76.9531-89.5508Q75.4395-94.0918 72.5098-97.3145Q69.5801-100.537 65.6006-102.222Q61.6211-103.906 56.9824-103.906Q50.9277-103.906 46.0449-101.294Q41.1621-98.6816 38.2812-94.0186Q35.4004-89.3555 35.4004-83.3496Q35.4004-79.0527 37.0605-75.4639Q38.7207-71.875 41.6504-69.2871L27.4414-69.2871Q22.168-69.2871 19.1162-66.6504Q16.0645-64.0137 16.0645-58.5449ZM82.4707 27.8809L112.256 27.8809Q120.02 27.8809 124.39 23.7549Q128.76 19.6289 128.76 11.9141L128.76-27.6367L82.4707-27.6367ZM25.0977 11.9141Q25.0977 19.6289 29.4678 23.7549Q33.8379 27.8809 41.6016 27.8809L71.3867 27.8809L71.3867-27.6367L25.0977-27.6367Z"/>
  </g>
  <g id="Regular-L" transform="matrix(1 0 0 1 1373.82 1556)">
   <path class="multicolor-0:systemRedColor SFSymbolsPreviewFF3B30" d="M16.0645-45.0195Q16.0645-40.2344 18.7012-37.9883Q21.3379-35.7422 26.1719-35.7422L71.1914-35.7422L71.1914-69.0918L62.1094-69.0918Q54.3457-69.0918 49.9756-73.0957Q45.6055-77.0996 45.6055-82.666Q45.6055-87.6953 48.9014-90.5518Q52.1973-93.4082 57.3242-93.4082Q61.2305-93.4082 64.3799-91.4795Q67.5293-89.5508 69.3604-86.0107Q71.1914-82.4707 71.1914-77.6367L71.1914-69.0918L80.8594-69.0918L80.8594-77.6367Q80.8594-82.4707 82.6904-86.0107Q84.5215-89.5508 87.6709-91.4795Q90.8203-93.4082 94.7266-93.4082Q99.8535-93.4082 103.149-90.5518Q106.445-87.6953 106.445-82.666Q106.445-77.0996 102.075-73.0957Q97.7051-69.0918 89.9414-69.0918L80.8594-69.0918L80.8594-35.7422L125.879-35.7422Q130.762-35.7422 133.374-37.9883Q135.986-40.2344 135.986-45.0195L135.986-59.8145Q135.986-64.6484 133.374-66.8701Q130.762-69.0918 125.879-69.0918L109.717-69.0918Q112.695-71.6309 114.404-75.1953Q116.113-78.7598 116.113-83.1055Q116.113-88.916 113.33-93.4082Q110.547-97.9004 105.835-100.439Q101.123-102.979 95.2148-102.979Q90.7715-102.979 86.9629-101.367Q83.1543-99.7559 80.3467-96.7285Q77.5391-93.7012 76.0254-89.4043Q74.5117-93.7012 71.7041-96.7285Q68.8965-99.7559 65.0879-101.367Q61.2793-102.979 56.8359-102.979Q50.9277-102.979 46.2158-100.439Q41.5039-97.9004 38.7207-93.4082Q35.9375-88.916 35.9375-83.1055Q35.9375-78.7598 37.6465-75.1953Q39.3555-71.6309 42.334-69.0918L26.1719-69.0918Q21.5332-69.0918 18.7988-66.8701Q16.0645-64.6484 16.0645-59.8145ZM80.8594 27.002L110.645 27.002Q118.164 27.002 122.412 23.0225Q126.66 19.043 126.66 11.5234L126.66-29.4434L80.8594-29.4434ZM25.3906 11.5234Q25.3906 19.043 29.6387 23.0225Q33.8867 27.002 41.4062 27.002L71.1914 27.002L71.1914-29.4434L25.3906-29.4434Z"/>
  </g>
  <g id="Light-L" transform="matrix(1 0 0 1 1077.84 1556)">
   <path class="multicolor-0:systemRedColor SFSymbolsPreviewFF3B30" d="M16.0645-44.4336Q16.0645-39.9414 18.5547-37.6221Q21.0449-35.3027 25.5371-35.3027L70.9473-35.3027L70.9473-67.627L62.793-67.627Q54.6875-67.627 49.9512-71.6797Q45.2148-75.7324 45.2148-81.7871Q45.2148-86.5723 48.4131-89.3555Q51.6113-92.1387 56.5918-92.1387Q60.7422-92.1387 63.9893-90.0635Q67.2363-87.9883 69.0918-84.2041Q70.9473-80.4199 70.9473-75.3418L70.9473-67.627L79.6387-67.627L79.6387-75.3418Q79.6387-80.4199 81.4941-84.2041Q83.3496-87.9883 86.5967-90.0635Q89.8438-92.1387 93.9941-92.1387Q98.9746-92.1387 102.148-89.3555Q105.322-86.5723 105.322-81.7871Q105.322-75.7324 100.61-71.6797Q95.8984-67.627 87.793-67.627L79.6387-67.627L79.6387-35.3027L125-35.3027Q129.541-35.3027 132.031-37.6221Q134.521-39.9414 134.521-44.4336L134.521-58.5449Q134.521-63.0371 132.031-65.332Q129.541-67.627 125-67.627L106.787-67.627Q110.059-70.1172 111.938-73.7793Q113.818-77.4414 113.818-81.9824Q113.818-87.4512 111.255-91.626Q108.691-95.8008 104.297-98.1445Q99.9023-100.488 94.2871-100.488Q89.7949-100.488 85.9863-98.8037Q82.1777-97.1191 79.4434-94.0186Q76.709-90.918 75.293-86.5234Q73.877-90.918 71.1182-94.0186Q68.3594-97.1191 64.5752-98.8037Q60.791-100.488 56.2988-100.488Q50.6836-100.488 46.2891-98.1445Q41.8945-95.8008 39.3311-91.626Q36.7676-87.4512 36.7676-81.9824Q36.7676-77.4414 38.6475-73.7793Q40.5273-70.1172 43.7988-67.627L25.5371-67.627Q21.1914-67.627 18.6279-65.332Q16.0645-63.0371 16.0645-58.5449ZM79.6387 26.6602L109.619 26.6602Q116.65 26.6602 120.679 22.8027Q124.707 18.9453 124.707 11.8652L124.707-29.5898L79.6387-29.5898ZM25.8789 11.8652Q25.8789 18.9453 29.8828 22.8027Q33.8867 26.6602 40.9668 26.6602L70.9473 26.6602L70.9473-29.5898L25.8789-29.5898Z"/>
  </g>
  <g id="Thin-L" transform="matrix(1 0 0 1 782.13 1556)">
   <path class="multicolor-0:systemRedColor SFSymbolsPreviewFF3B30" d="M16.0645-43.6035Q16.0645-39.5508 18.3594-37.1582Q20.6543-34.7656 24.707-34.7656L70.6055-34.7656L70.6055-65.6738L63.6719-65.6738Q55.127-65.6738 49.9268-69.8242Q44.7266-73.9746 44.7266-80.6152Q44.7266-85.1074 47.7539-87.793Q50.7812-90.4785 55.6152-90.4785Q60.1074-90.4785 63.4766-88.2324Q66.8457-85.9863 68.7256-81.8848Q70.6055-77.7832 70.6055-72.2656L70.6055-65.6738L78.0273-65.6738L78.0273-72.2656Q78.0273-77.7832 79.9072-81.8848Q81.7871-85.9863 85.1318-88.2324Q88.4766-90.4785 92.9688-90.4785Q97.8516-90.4785 100.854-87.793Q103.857-85.1074 103.857-80.6152Q103.857-73.9746 98.6816-69.8242Q93.5059-65.6738 84.9609-65.6738L78.0273-65.6738L78.0273-34.7656L123.877-34.7656Q127.93-34.7656 130.225-37.1582Q132.52-39.5508 132.52-43.6035L132.52-56.8848Q132.52-60.9375 130.225-63.3057Q127.93-65.6738 123.877-65.6738L102.881-65.6738Q106.592-68.0664 108.667-71.875Q110.742-75.6836 110.742-80.5176Q110.742-85.498 108.496-89.2578Q106.25-93.0176 102.271-95.0928Q98.291-97.168 93.0176-97.168Q88.4277-97.168 84.6924-95.4102Q80.957-93.6523 78.2715-90.4297Q75.5859-87.207 74.3164-82.7637Q72.998-87.207 70.3613-90.4297Q67.7246-93.6523 63.9648-95.4102Q60.2051-97.168 55.5664-97.168Q50.3418-97.168 46.3623-95.0928Q42.3828-93.0176 40.1367-89.2578Q37.8906-85.498 37.8906-80.5176Q37.8906-75.6836 39.9658-71.875Q42.041-68.0664 45.7031-65.6738L24.707-65.6738Q20.7031-65.6738 18.3838-63.3057Q16.0645-60.9375 16.0645-56.8848ZM78.0273 26.1719L108.252 26.1719Q114.697 26.1719 118.384 22.4854Q122.07 18.7988 122.07 12.3535L122.07-29.7363L78.0273-29.7363ZM26.5137 12.3535Q26.5137 18.7988 30.2246 22.4854Q33.9355 26.1719 40.332 26.1719L70.6055 26.1719L70.6055-29.7363L26.5137-29.7363Z"/>
  </g>
  <g id="Ultralight-L" transform="matrix(1 0 0 1 485.907 1556)">
   <path class="multicolor-0:systemRedColor SFSymbolsPreviewFF3B30" d="M16.0645-43.2129Q16.0645-39.3555 18.2617-36.9141Q20.459-34.4727 24.3164-34.4727L70.4102-34.4727L70.4102-64.6973L64.1602-64.6973Q55.3223-64.6973 49.9023-68.8721Q44.4824-73.0469 44.4824-80.0293Q44.4824-84.3262 47.4365-86.9873Q50.3906-89.6484 55.127-89.6484Q59.7656-89.6484 63.1836-87.2803Q66.6016-84.9121 68.5059-80.6396Q70.4102-76.3672 70.4102-70.7031L70.4102-64.6973L77.1973-64.6973L77.1973-70.7031Q77.1973-76.3672 79.0771-80.6396Q80.957-84.9121 84.3994-87.2803Q87.8418-89.6484 92.4805-89.6484Q97.2656-89.6484 100.195-86.9873Q103.125-84.3262 103.125-80.0293Q103.125-73.0469 97.6807-68.8721Q92.2363-64.6973 83.4961-64.6973L77.1973-64.6973L77.1973-34.4727L123.291-34.4727Q127.148-34.4727 129.346-36.9141Q131.543-39.3555 131.543-43.2129L131.543-56.0059Q131.543-59.8145 129.346-62.2559Q127.148-64.6973 123.291-64.6973L100.928-64.6973Q104.785-67.041 106.982-70.8984Q109.18-74.7559 109.18-79.7852Q109.18-84.5215 107.104-88.0615Q105.029-91.6016 101.245-93.5547Q97.4609-95.5078 92.3828-95.5078Q87.793-95.5078 84.0332-93.7012Q80.2734-91.8945 77.6611-88.5986Q75.0488-85.3027 73.7793-80.8105Q72.5586-85.3027 69.9463-88.5986Q67.334-91.8945 63.5986-93.7012Q59.8633-95.5078 55.2246-95.5078Q50.1465-95.5078 46.3867-93.5547Q42.627-91.6016 40.5273-88.0615Q38.4277-84.5215 38.4277-79.7852Q38.4277-74.7559 40.625-70.8984Q42.8223-67.041 46.6797-64.6973L24.3164-64.6973Q20.5078-64.6973 18.2861-62.2559Q16.0645-59.8145 16.0645-56.0059ZM77.1973 25.9277L107.568 25.9277Q113.672 25.9277 117.212 22.3145Q120.752 18.7012 120.752 12.5977L120.752-29.834L77.1973-29.834ZM26.8555 12.5977Q26.8555 18.7012 30.3955 22.3145Q33.9355 25.9277 40.0391 25.9277L70.4102 25.9277L70.4102-29.834L26.8555-29.834Z"/>
  </g>
  <g id="Black-M" transform="matrix(1 0 0 1 2869.8 1126)">
   <path class="multicolor-0:systemRedColor SFSymbolsPreviewFF3B30" d="M12.4512-40.3809Q12.4512-35.5957 15.1855-32.7637Q17.9199-29.9316 22.4121-29.9316L56.25-29.9316L56.25-62.0605L50.0977-62.0605Q45.166-62.0605 42.5293-64.3799Q39.8926-66.6992 39.8926-70.4102Q39.8926-73.7305 41.748-75.9277Q43.6035-78.125 47.2656-78.125Q50.9277-78.125 53.5889-75.0488Q56.25-71.9727 56.25-67.8223L56.25-62.0605L70.8984-62.0605L70.8984-67.8223Q70.8984-71.9727 73.6084-75.0488Q76.3184-78.125 79.9316-78.125Q83.5938-78.125 85.4492-75.9277Q87.3047-73.7305 87.3047-70.4102Q87.3047-66.6992 84.668-64.3799Q82.0312-62.0605 77.0996-62.0605L70.8984-62.0605L70.8984-29.9316L104.736-29.9316Q109.277-29.9316 112.012-32.7637Q114.746-35.5957 114.746-40.3809L114.746-47.0703Q114.746-54.1504 110.889-58.1055Q107.031-62.0605 100.195-62.0605L97.6074-62.0605Q99.6582-64.3066 100.83-67.1631Q102.002-70.0195 102.002-73.3398Q102.002-78.7598 99.3408-82.9834Q96.6797-87.207 92.2119-89.624Q87.7441-92.041 82.373-92.041Q75.8301-92.041 70.5078-88.1104Q65.1855-84.1797 63.5742-76.9043Q62.0605-84.1797 56.6895-88.1104Q51.3184-92.041 44.7754-92.041Q39.4043-92.041 34.9609-89.624Q30.5176-87.207 27.8564-82.9834Q25.1953-78.7598 25.1953-73.3398Q25.1953-70.0195 26.3672-67.1631Q27.5391-64.3066 29.5898-62.0605L27.002-62.0605Q20.166-62.0605 16.3086-58.1055Q12.4512-54.1504 12.4512-47.0703ZM70.8984 17.6758L94.2383 17.6758Q101.221 17.6758 105.103 13.8184Q108.984 9.96094 108.984 3.125L108.984-20.8984L70.8984-20.8984ZM18.2129 3.125Q18.2129 9.96094 22.0947 13.8184Q25.9766 17.6758 32.959 17.6758L56.25 17.6758L56.25-20.8984L18.2129-20.8984Z"/>
  </g>
  <g id="Heavy-M" transform="matrix(1 0 0 1 2574.09 1126)">
   <path class="multicolor-0:systemRedColor SFSymbolsPreviewFF3B30" d="M12.4512-41.0156Q12.4512-36.4746 15.0391-33.9111Q17.627-31.3477 22.0215-31.3477L56.0547-31.3477L56.0547-62.1094L49.5117-62.1094Q44.3848-62.1094 41.626-64.5996Q38.8672-67.0898 38.8672-70.8984Q38.8672-74.4141 40.918-76.6113Q42.9688-78.8086 46.6797-78.8086Q50.5371-78.8086 53.2959-75.7324Q56.0547-72.6562 56.0547-68.2129L56.0547-62.1094L69.0918-62.1094L69.0918-68.2129Q69.0918-72.6562 71.8994-75.7324Q74.707-78.8086 78.4668-78.8086Q82.2266-78.8086 84.2773-76.6113Q86.3281-74.4141 86.3281-70.8984Q86.3281-67.0898 83.5449-64.5996Q80.7617-62.1094 75.6348-62.1094L69.0918-62.1094L69.0918-31.3477L103.174-31.3477Q107.568-31.3477 110.156-33.9111Q112.744-36.4746 112.744-41.0156L112.744-48.9258Q112.744-55.2734 109.302-58.6914Q105.859-62.1094 99.707-62.1094L95.0195-62.1094Q97.1191-64.3066 98.291-67.1387Q99.4629-69.9707 99.4629-73.2422Q99.4629-78.5156 96.8994-82.5928Q94.3359-86.6699 90.0146-89.0137Q85.6934-91.3574 80.4688-91.3574Q74.2676-91.3574 69.2627-87.7197Q64.2578-84.082 62.5488-77.3438Q60.9863-84.082 55.9326-87.7197Q50.8789-91.3574 44.6777-91.3574Q39.4531-91.3574 35.1562-89.0137Q30.8594-86.6699 28.2959-82.5928Q25.7324-78.5156 25.7324-73.2422Q25.7324-69.9707 26.9043-67.1387Q28.0762-64.3066 30.1758-62.1094L25.4883-62.1094Q19.3848-62.1094 15.918-58.6914Q12.4512-55.2734 12.4512-48.9258ZM69.0918 16.6016L92.3828 16.6016Q99.1699 16.6016 102.93 12.915Q106.689 9.22852 106.689 2.58789L106.689-23.1934L69.0918-23.1934ZM18.5059 2.58789Q18.5059 9.22852 22.2656 12.915Q26.0254 16.6016 32.8125 16.6016L56.0547 16.6016L56.0547-23.1934L18.5059-23.1934Z"/>
  </g>
  <g id="Bold-M" transform="matrix(1 0 0 1 2278.5 1126)">
   <path class="multicolor-0:systemRedColor SFSymbolsPreviewFF3B30" d="M12.4512-41.7969Q12.4512-37.4512 14.8926-35.1807Q17.334-32.9102 21.5332-32.9102L55.8105-32.9102L55.8105-62.207L48.9258-62.207Q43.5547-62.207 40.6494-64.8926Q37.7441-67.5781 37.7441-71.4844Q37.7441-75.1465 39.9902-77.3682Q42.2363-79.5898 46.0449-79.5898Q50.0977-79.5898 52.9541-76.4893Q55.8105-73.3887 55.8105-68.6035L55.8105-62.207L67.1387-62.207L67.1387-68.6035Q67.1387-73.3887 70.0195-76.4893Q72.9004-79.5898 76.9043-79.5898Q80.7617-79.5898 82.9834-77.3682Q85.2051-75.1465 85.2051-71.4844Q85.2051-67.5781 82.2998-64.8926Q79.3945-62.207 74.0234-62.207L67.1387-62.207L67.1387-32.9102L101.416-32.9102Q105.664-32.9102 108.081-35.1807Q110.498-37.4512 110.498-41.7969L110.498-51.0742Q110.498-56.543 107.52-59.375Q104.541-62.207 99.1211-62.207L92.1875-62.207Q94.2871-64.3066 95.459-67.0898Q96.6309-69.873 96.6309-73.1445Q96.6309-78.2227 94.165-82.1777Q91.6992-86.1328 87.5488-88.3789Q83.3984-90.625 78.3691-90.625Q72.5098-90.625 67.8467-87.3047Q63.1836-83.9844 61.4746-77.8809Q59.7656-83.9844 55.1025-87.3047Q50.4395-90.625 44.5801-90.625Q39.502-90.625 35.376-88.3789Q31.25-86.1328 28.7842-82.1777Q26.3184-78.2227 26.3184-73.1445Q26.3184-69.873 27.5146-67.0898Q28.7109-64.3066 30.8105-62.207L23.8281-62.207Q18.5547-62.207 15.5029-59.375Q12.4512-56.543 12.4512-51.0742ZM67.1387 15.4297L90.2832 15.4297Q96.8262 15.4297 100.488 11.9385Q104.15 8.44727 104.15 1.95312L104.15-25.7812L67.1387-25.7812ZM18.8477 1.95312Q18.8477 8.44727 22.4854 11.9385Q26.123 15.4297 32.666 15.4297L55.8105 15.4297L55.8105-25.7812L18.8477-25.7812Z"/>
  </g>
  <g id="Semibold-M" transform="matrix(1 0 0 1 1982.57 1126)">
   <path class="multicolor-0:systemRedColor SFSymbolsPreviewFF3B30" d="M12.4512-42.2852Q12.4512-38.0859 14.7705-36.0352Q17.0898-33.9844 21.1914-33.9844L55.6152-33.9844L55.6152-62.207L48.4863-62.207Q42.9688-62.207 39.9414-65.0635Q36.9141-67.9199 36.9141-71.8262Q36.9141-75.6836 39.3066-77.8809Q41.6992-80.0781 45.6055-80.0781Q49.7559-80.0781 52.6855-77.002Q55.6152-73.9258 55.6152-68.8965L55.6152-62.207L65.7227-62.207L65.7227-68.8965Q65.7227-73.9258 68.7012-77.002Q71.6797-80.0781 75.7812-80.0781Q79.6875-80.0781 82.0557-77.8809Q84.4238-75.6836 84.4238-71.8262Q84.4238-67.9199 81.4209-65.0635Q78.418-62.207 72.9004-62.207L65.7227-62.207L65.7227-33.9844L100.195-33.9844Q104.297-33.9844 106.616-36.0352Q108.936-38.0859 108.936-42.2852L108.936-52.4902Q108.936-57.4219 106.274-59.8145Q103.613-62.207 98.7305-62.207L90.1855-62.207Q92.2852-64.3066 93.4814-67.0654Q94.6777-69.8242 94.6777-73.0957Q94.6777-78.0273 92.2852-81.8604Q89.8926-85.6934 85.8643-87.8906Q81.8359-90.0879 76.8555-90.0879Q71.2891-90.0879 66.8701-87.0117Q62.4512-83.9355 60.6934-78.2227Q58.9355-83.9355 54.5166-87.0117Q50.0977-90.0879 44.4824-90.0879Q39.5508-90.0879 35.5225-87.8906Q31.4941-85.6934 29.1016-81.8604Q26.709-78.0273 26.709-73.0957Q26.709-69.8242 27.9053-67.0654Q29.1016-64.3066 31.2012-62.207L22.6562-62.207Q17.9199-62.207 15.1855-59.8145Q12.4512-57.4219 12.4512-52.4902ZM65.7227 14.5996L88.8672 14.5996Q95.2148 14.5996 98.7793 11.2305Q102.344 7.86133 102.344 1.51367L102.344-27.5391L65.7227-27.5391ZM19.043 1.51367Q19.043 7.86133 22.6074 11.2305Q26.1719 14.5996 32.5684 14.5996L55.6152 14.5996L55.6152-27.5391L19.043-27.5391Z"/>
  </g>
  <g id="Medium-M" transform="matrix(1 0 0 1 1686.45 1126)">
   <path class="multicolor-0:systemRedColor SFSymbolsPreviewFF3B30" d="M12.4512-42.6758Q12.4512-38.623 14.6729-36.7188Q16.8945-34.8145 20.9473-34.8145L55.4688-34.8145L55.4688-62.2559L48.1445-62.2559Q42.5293-62.2559 39.4287-65.21Q36.3281-68.1641 36.3281-72.1191Q36.3281-76.0742 38.8184-78.2715Q41.3086-80.4688 45.2637-80.4688Q49.5117-80.4688 52.4902-77.3926Q55.4688-74.3164 55.4688-69.0918L55.4688-62.2559L64.6973-62.2559L64.6973-69.0918Q64.6973-74.3164 67.7002-77.3926Q70.7031-80.4688 74.9023-80.4688Q78.9062-80.4688 81.3721-78.2715Q83.8379-76.0742 83.8379-72.1191Q83.8379-68.1641 80.7617-65.21Q77.6855-62.2559 72.0703-62.2559L64.6973-62.2559L64.6973-34.8145L99.2676-34.8145Q103.32-34.8145 105.542-36.7188Q107.764-38.623 107.764-42.6758L107.764-53.6133Q107.764-58.0566 105.347-60.1562Q102.93-62.2559 98.4375-62.2559L88.6719-62.2559Q90.8203-64.3066 92.0166-67.041Q93.2129-69.7754 93.2129-72.998Q93.2129-77.8809 90.8691-81.6406Q88.5254-85.4004 84.5703-87.5488Q80.6152-89.6973 75.7812-89.6973Q70.3613-89.6973 66.1377-86.7676Q61.9141-83.8379 60.1074-78.5156Q58.3008-83.8379 54.0771-86.7676Q49.8535-89.6973 44.4336-89.6973Q39.5508-89.6973 35.6201-87.5488Q31.6895-85.4004 29.3457-81.6406Q27.002-77.8809 27.002-72.998Q27.002-69.7754 28.2227-67.041Q29.4434-64.3066 31.543-62.2559L21.7773-62.2559Q17.4805-62.2559 14.9658-60.1562Q12.4512-58.0566 12.4512-53.6133ZM64.6973 14.0137L87.7441 14.0137Q93.9941 14.0137 97.5098 10.7178Q101.025 7.42188 101.025 1.2207L101.025-28.9062L64.6973-28.9062ZM19.2383 1.2207Q19.2383 7.42188 22.7295 10.7178Q26.2207 14.0137 32.4707 14.0137L55.4688 14.0137L55.4688-28.9062L19.2383-28.9062Z"/>
  </g>
  <g id="Regular-M" transform="matrix(1 0 0 1 1390.49 1126)">
   <path class="multicolor-0:systemRedColor SFSymbolsPreviewFF3B30" d="M12.4512-43.1641Q12.4512-39.2578 14.5752-37.5732Q16.6992-35.8887 20.6543-35.8887L55.3223-35.8887L55.3223-62.3047L47.7051-62.3047Q41.9434-62.3047 38.7451-65.3809Q35.5469-68.457 35.5469-72.5098Q35.5469-76.5625 38.1836-78.7842Q40.8203-81.0059 44.8242-81.0059Q49.2188-81.0059 52.2705-77.9053Q55.3223-74.8047 55.3223-69.3848L55.3223-62.3047L63.3301-62.3047L63.3301-69.3848Q63.3301-74.8047 66.4062-77.9053Q69.4824-81.0059 73.8281-81.0059Q77.8809-81.0059 80.4932-78.7842Q83.1055-76.5625 83.1055-72.5098Q83.1055-68.457 79.9072-65.3809Q76.709-62.3047 70.9473-62.3047L63.3301-62.3047L63.3301-35.8887L98.0469-35.8887Q102.002-35.8887 104.126-37.5732Q106.25-39.2578 106.25-43.1641L106.25-55.0293Q106.25-58.9355 104.126-60.6201Q102.002-62.3047 98.0469-62.3047L86.7188-62.3047Q88.8672-64.3066 90.0635-67.0166Q91.2598-69.7266 91.2598-72.9492Q91.2598-77.6855 88.9893-81.3477Q86.7188-85.0098 82.8857-87.085Q79.0527-89.1602 74.3164-89.1602Q69.1895-89.1602 65.1855-86.4746Q61.1816-83.7891 59.3262-78.8574Q57.4707-83.7891 53.4912-86.4746Q49.5117-89.1602 44.3359-89.1602Q39.5996-89.1602 35.7666-87.085Q31.9336-85.0098 29.6631-81.3477Q27.3926-77.6855 27.3926-72.9492Q27.3926-69.7266 28.6133-67.0166Q29.834-64.3066 31.9824-62.3047L20.6543-62.3047Q16.8945-62.3047 14.6729-60.6201Q12.4512-58.9355 12.4512-55.0293ZM63.3301 13.1836L86.3281 13.1836Q92.4316 13.1836 95.8496 10.0342Q99.2676 6.88477 99.2676 0.78125L99.2676-30.6641L63.3301-30.6641ZM19.4336 0.78125Q19.4336 6.88477 22.8516 10.0342Q26.2695 13.1836 32.373 13.1836L55.3223 13.1836L55.3223-30.6641L19.4336-30.6641Z"/>
  </g>
  <g id="Light-M" transform="matrix(1 0 0 1 1094.44 1126)">
   <path class="multicolor-0:systemRedColor SFSymbolsPreviewFF3B30" d="M12.4512-42.627Q12.4512-39.0137 14.4531-37.2559Q16.4551-35.498 20.1172-35.498L55.0781-35.498L55.0781-60.9863L48.3398-60.9863Q42.2363-60.9863 38.7207-64.1113Q35.2051-67.2363 35.2051-71.7285Q35.2051-75.5371 37.7441-77.71Q40.2832-79.8828 44.1895-79.8828Q48.877-79.8828 51.9775-76.4893Q55.0781-73.0957 55.0781-67.334L55.0781-60.9863L62.2559-60.9863L62.2559-67.334Q62.2559-73.0957 65.3809-76.4893Q68.5059-79.8828 73.1445-79.8828Q77.0996-79.8828 79.6143-77.71Q82.1289-75.5371 82.1289-71.7285Q82.1289-67.2363 78.6133-64.1113Q75.0977-60.9863 68.9941-60.9863L62.2559-60.9863L62.2559-35.498L97.2656-35.498Q100.928-35.498 102.93-37.2559Q104.932-39.0137 104.932-42.627L104.932-53.8574Q104.932-57.5195 102.93-59.2529Q100.928-60.9863 97.2656-60.9863L84.082-60.9863Q86.5234-62.9395 87.8662-65.7471Q89.209-68.5547 89.209-71.9727Q89.209-76.3672 87.1338-79.7363Q85.0586-83.1055 81.5186-85.0098Q77.9785-86.9141 73.4863-86.9141Q68.2617-86.9141 64.3311-84.1064Q60.4004-81.2988 58.6426-76.2695Q56.9336-81.2988 53.0273-84.1064Q49.1211-86.9141 43.8477-86.9141Q39.3555-86.9141 35.8154-85.0098Q32.2754-83.1055 30.2002-79.7363Q28.125-76.3672 28.125-71.9727Q28.125-68.5547 29.4922-65.7471Q30.8594-62.9395 33.3008-60.9863L20.1172-60.9863Q16.5527-60.9863 14.502-59.2529Q12.4512-57.5195 12.4512-53.8574ZM62.2559 12.8418L85.4004 12.8418Q91.1133 12.8418 94.3115 9.81445Q97.5098 6.78711 97.5098 1.12305L97.5098-30.7617L62.2559-30.7617ZM19.873 1.12305Q19.873 6.78711 23.0713 9.81445Q26.2695 12.8418 31.9824 12.8418L55.0781 12.8418L55.0781-30.7617L19.873-30.7617Z"/>
  </g>
  <g id="Thin-M" transform="matrix(1 0 0 1 798.61 1126)">
   <path class="multicolor-0:systemRedColor SFSymbolsPreviewFF3B30" d="M12.4512-41.8945Q12.4512-38.6719 14.2822-36.8408Q16.1133-35.0098 19.3359-35.0098L54.7852-35.0098L54.7852-59.2285L49.1699-59.2285Q42.627-59.2285 38.6963-62.4268Q34.7656-65.625 34.7656-70.6543Q34.7656-74.2188 37.1338-76.3184Q39.502-78.418 43.3105-78.418Q48.3887-78.418 51.5869-74.6338Q54.7852-70.8496 54.7852-64.5996L54.7852-59.2285L60.791-59.2285L60.791-64.5996Q60.791-70.8496 63.9893-74.6338Q67.1875-78.418 72.2656-78.418Q76.0742-78.418 78.4424-76.3184Q80.8105-74.2188 80.8105-70.6543Q80.8105-65.625 76.9043-62.4268Q72.998-59.2285 66.4551-59.2285L60.791-59.2285L60.791-35.0098L96.2402-35.0098Q99.5117-35.0098 101.343-36.8408Q103.174-38.6719 103.174-41.8945L103.174-52.3438Q103.174-55.6152 101.343-57.4219Q99.5117-59.2285 96.2402-59.2285L80.6152-59.2285Q83.3984-61.084 84.9365-64.0137Q86.4746-66.9434 86.4746-70.6543Q86.4746-74.6094 84.668-77.6123Q82.8613-80.6152 79.6875-82.2754Q76.5137-83.9355 72.3633-83.9355Q67.041-83.9355 63.208-80.9814Q59.375-78.0273 57.7637-72.9004Q56.25-78.0273 52.417-80.9814Q48.584-83.9355 43.2129-83.9355Q39.0625-83.9355 35.8887-82.2754Q32.7148-80.6152 30.9082-77.6123Q29.1016-74.6094 29.1016-70.6543Q29.1016-66.9434 30.6641-64.0137Q32.2266-61.084 35.0098-59.2285L19.3359-59.2285Q16.1621-59.2285 14.3066-57.4219Q12.4512-55.6152 12.4512-52.3438ZM60.791 12.4512L84.1797 12.4512Q89.3555 12.4512 92.2607 9.57031Q95.166 6.68945 95.166 1.5625L95.166-30.957L60.791-30.957ZM20.4102 1.5625Q20.4102 6.68945 23.3398 9.57031Q26.2695 12.4512 31.4453 12.4512L54.7852 12.4512L54.7852-30.957L20.4102-30.957Z"/>
  </g>
  <g id="Ultralight-M" transform="matrix(1 0 0 1 502.362 1126)">
   <path class="multicolor-0:systemRedColor SFSymbolsPreviewFF3B30" d="M12.4512-41.5527Q12.4512-38.4766 14.1846-36.6211Q15.918-34.7656 18.9941-34.7656L54.6387-34.7656L54.6387-58.3496L49.5605-58.3496Q42.8223-58.3496 38.6963-61.5967Q34.5703-64.8438 34.5703-70.1172Q34.5703-73.5352 36.8652-75.5859Q39.1602-77.6367 42.8711-77.6367Q48.1934-77.6367 51.416-73.6816Q54.6387-69.7266 54.6387-63.2324L54.6387-58.3496L60.0586-58.3496L60.0586-63.2324Q60.0586-69.7266 63.3057-73.6816Q66.5527-77.6367 71.8262-77.6367Q75.5859-77.6367 77.8809-75.5859Q80.1758-73.5352 80.1758-70.1172Q80.1758-64.8438 76.0254-61.5967Q71.875-58.3496 65.1367-58.3496L60.0586-58.3496L60.0586-34.7656L95.752-34.7656Q98.7793-34.7656 100.513-36.6211Q102.246-38.4766 102.246-41.5527L102.246-51.5625Q102.246-54.6387 100.513-56.4941Q98.7793-58.3496 95.752-58.3496L78.8086-58.3496Q81.7871-60.1562 83.4473-63.1592Q85.1074-66.1621 85.1074-70.0195Q85.1074-73.7305 83.4229-76.5381Q81.7383-79.3457 78.7598-80.8838Q75.7812-82.4219 71.8262-82.4219Q66.4062-82.4219 62.6221-79.3701Q58.8379-76.3184 57.3242-71.1426Q55.8594-76.3184 52.0752-79.3701Q48.291-82.4219 42.8711-82.4219Q38.916-82.4219 35.9131-80.8838Q32.9102-79.3457 31.2744-76.5381Q29.6387-73.7305 29.6387-70.0195Q29.6387-66.1621 31.2744-63.1592Q32.9102-60.1562 35.8887-58.3496L18.9941-58.3496Q15.918-58.3496 14.1846-56.4941Q12.4512-54.6387 12.4512-51.5625ZM60.0586 12.207L83.5449 12.207Q88.4277 12.207 91.2109 9.39941Q93.9941 6.5918 93.9941 1.75781L93.9941-31.0059L60.0586-31.0059ZM20.7031 1.75781Q20.7031 6.5918 23.4863 9.39941Q26.2695 12.207 31.1523 12.207L54.6387 12.207L54.6387-31.0059L20.7031-31.0059Z"/>
  </g>
  <g id="Black-S" transform="matrix(1 0 0 1 2883.3 696)">
   <path class="multicolor-0:systemRedColor SFSymbolsPreviewFF3B30" d="M9.76562-39.0137Q9.76562-35.2539 11.9385-32.9346Q14.1113-30.6152 17.6758-30.6152L44.1406-30.6152L44.1406-56.1523L39.4531-56.1523Q35.6445-56.1523 33.5938-57.9102Q31.543-59.668 31.543-62.5977Q31.543-65.1367 32.9346-66.8457Q34.3262-68.5547 37.1582-68.5547Q40.0391-68.5547 42.0898-66.1377Q44.1406-63.7207 44.1406-60.5469L44.1406-56.1523L56.0547-56.1523L56.0547-60.5469Q56.0547-63.7207 58.1299-66.1377Q60.2051-68.5547 63.0371-68.5547Q65.8691-68.5547 67.2607-66.8457Q68.6523-65.1367 68.6523-62.5977Q68.6523-59.668 66.6016-57.9102Q64.5508-56.1523 60.7422-56.1523L56.0547-56.1523L56.0547-30.6152L82.5195-30.6152Q86.084-30.6152 88.2568-32.9346Q90.4297-35.2539 90.4297-39.0137L90.4297-43.8477Q90.4297-49.6582 87.3047-52.9053Q84.1797-56.1523 78.6133-56.1523L77.0996-56.1523Q78.7109-57.9102 79.6387-60.1807Q80.5664-62.4512 80.5664-65.0391Q80.5664-69.3359 78.4668-72.6807Q76.3672-76.0254 72.8516-77.9297Q69.3359-79.834 65.0879-79.834Q59.8633-79.834 55.5908-76.6602Q51.3184-73.4863 50.0977-67.5781Q48.9258-73.4863 44.6289-76.6602Q40.332-79.834 35.1074-79.834Q30.8594-79.834 27.3438-77.9297Q23.8281-76.0254 21.7285-72.6807Q19.6289-69.3359 19.6289-65.0391Q19.6289-62.4512 20.5566-60.1807Q21.4844-57.9102 23.0957-56.1523L21.582-56.1523Q16.0156-56.1523 12.8906-52.9053Q9.76562-49.6582 9.76562-43.8477ZM56.0547 6.54297L74.3652 6.54297Q79.8828 6.54297 82.9346 3.4668Q85.9863 0.390625 85.9863-4.98047L85.9863-23.291L56.0547-23.291ZM14.209-4.98047Q14.209 0.390625 17.2852 3.4668Q20.3613 6.54297 25.8301 6.54297L44.1406 6.54297L44.1406-23.291L14.209-23.291Z"/>
  </g>
  <g id="Heavy-S" transform="matrix(1 0 0 1 2587.37 696)">
   <path class="multicolor-0:systemRedColor SFSymbolsPreviewFF3B30" d="M9.76562-39.6484Q9.76562-36.0352 11.8408-33.96Q13.916-31.8848 17.3828-31.8848L43.9941-31.8848L43.9941-56.3477L38.916-56.3477Q34.9609-56.3477 32.8369-58.2764Q30.7129-60.2051 30.7129-63.1348Q30.7129-65.8203 32.2754-67.5537Q33.8379-69.2871 36.7676-69.2871Q39.7461-69.2871 41.8701-66.8945Q43.9941-64.502 43.9941-61.1328L43.9941-56.3477L54.6875-56.3477L54.6875-61.1328Q54.6875-64.502 56.8359-66.8945Q58.9844-69.2871 61.9141-69.2871Q64.8438-69.2871 66.3818-67.5537Q67.9199-65.8203 67.9199-63.1348Q67.9199-60.2051 65.7959-58.2764Q63.6719-56.3477 59.7656-56.3477L54.6875-56.3477L54.6875-31.8848L81.25-31.8848Q84.7656-31.8848 86.8164-33.96Q88.8672-36.0352 88.8672-39.6484L88.8672-45.6055Q88.8672-50.7812 86.084-53.5645Q83.3008-56.3477 78.2715-56.3477L75.2441-56.3477Q76.8555-58.1055 77.7588-60.3271Q78.6621-62.5488 78.6621-65.0879Q78.6621-69.2871 76.6113-72.5586Q74.5605-75.8301 71.1426-77.6855Q67.7246-79.541 63.5742-79.541Q58.6426-79.541 54.6387-76.6357Q50.6348-73.7305 49.3164-68.3105Q48.0957-73.7305 44.043-76.6357Q39.9902-79.541 35.0586-79.541Q30.9082-79.541 27.4902-77.6855Q24.0723-75.8301 22.0215-72.5586Q19.9707-69.2871 19.9707-65.0879Q19.9707-62.5488 20.8984-60.3271Q21.8262-58.1055 23.3887-56.3477L20.3613-56.3477Q15.3809-56.3477 12.5732-53.5645Q9.76562-50.7812 9.76562-45.6055ZM54.6875 5.66406L72.9004 5.66406Q78.2715 5.66406 81.25 2.70996Q84.2285-0.244141 84.2285-5.51758L84.2285-25.2441L54.6875-25.2441ZM14.4043-5.51758Q14.4043-0.244141 17.4072 2.70996Q20.4102 5.66406 25.7812 5.66406L43.9941 5.66406L43.9941-25.2441L14.4043-25.2441Z"/>
  </g>
  <g id="Bold-S" transform="matrix(1 0 0 1 2291.52 696)">
   <path class="multicolor-0:systemRedColor SFSymbolsPreviewFF3B30" d="M9.76562-40.3809Q9.76562-36.8652 11.7188-35.083Q13.6719-33.3008 17.0898-33.3008L43.7988-33.3008L43.7988-56.6406L38.2812-56.6406Q34.1797-56.6406 31.9824-58.7158Q29.7852-60.791 29.7852-63.7207Q29.7852-66.6016 31.543-68.3594Q33.3008-70.1172 36.3281-70.1172Q39.4043-70.1172 41.6016-67.749Q43.7988-65.3809 43.7988-61.7676L43.7988-56.6406L53.125-56.6406L53.125-61.7676Q53.125-65.3809 55.3467-67.749Q57.5684-70.1172 60.6445-70.1172Q63.6719-70.1172 65.4053-68.3594Q67.1387-66.6016 67.1387-63.7207Q67.1387-60.791 64.9414-58.7158Q62.7441-56.6406 58.6426-56.6406L53.125-56.6406L53.125-33.3008L79.8828-33.3008Q83.3008-33.3008 85.2295-35.083Q87.1582-36.8652 87.1582-40.3809L87.1582-47.5586Q87.1582-52.0996 84.7412-54.3701Q82.3242-56.6406 77.9297-56.6406L73.1934-56.6406Q74.7559-58.3008 75.6592-60.4736Q76.5625-62.6465 76.5625-65.1855Q76.5625-69.2383 74.585-72.4121Q72.6074-75.5859 69.2627-77.3926Q65.918-79.1992 61.8652-79.1992Q57.2754-79.1992 53.5645-76.5869Q49.8535-73.9746 48.4863-69.1406Q47.1191-73.9746 43.3838-76.5869Q39.6484-79.1992 35.0586-79.1992Q31.0059-79.1992 27.6855-77.3926Q24.3652-75.5859 22.3633-72.4121Q20.3613-69.2383 20.3613-65.1855Q20.3613-62.6465 21.2891-60.4736Q22.2168-58.3008 23.7793-56.6406L19.043-56.6406Q14.6973-56.6406 12.2314-54.3701Q9.76562-52.0996 9.76562-47.5586ZM53.125 4.73633L71.2402 4.73633Q76.4648 4.73633 79.3945 1.9043Q82.3242-0.927734 82.3242-6.10352L82.3242-27.4414L53.125-27.4414ZM14.5996-6.10352Q14.5996-0.927734 17.5537 1.9043Q20.5078 4.73633 25.7324 4.73633L43.7988 4.73633L43.7988-27.4414L14.5996-27.4414Z"/>
  </g>
  <g id="Semibold-S" transform="matrix(1 0 0 1 1995.39 696)">
   <path class="multicolor-0:systemRedColor SFSymbolsPreviewFF3B30" d="M9.76562-40.8691Q9.76562-37.4512 11.6455-35.8398Q13.5254-34.2285 16.8457-34.2285L43.6523-34.2285L43.6523-56.7871L37.8418-56.7871Q33.6426-56.7871 31.3965-58.9844Q29.1504-61.1816 29.1504-64.1113Q29.1504-67.1387 31.0303-68.8965Q32.9102-70.6543 35.9863-70.6543Q39.1602-70.6543 41.4062-68.3105Q43.6523-65.9668 43.6523-62.207L43.6523-56.7871L52.0508-56.7871L52.0508-62.207Q52.0508-65.9668 54.3213-68.3105Q56.5918-70.6543 59.7168-70.6543Q62.8418-70.6543 64.7217-68.8965Q66.6016-67.1387 66.6016-64.1113Q66.6016-61.1816 64.3311-58.9844Q62.0605-56.7871 57.8613-56.7871L52.0508-56.7871L52.0508-34.2285L78.9062-34.2285Q82.2754-34.2285 84.1309-35.8398Q85.9863-37.4512 85.9863-40.8691L85.9863-48.9258Q85.9863-52.9785 83.8135-54.8828Q81.6406-56.7871 77.6367-56.7871L71.7285-56.7871Q73.291-58.4473 74.1699-60.5713Q75.0488-62.6953 75.0488-65.1855Q75.0488-69.1895 73.1201-72.3145Q71.1914-75.4395 67.9443-77.1973Q64.6973-78.9551 60.6934-78.9551Q56.2988-78.9551 52.7832-76.5625Q49.2676-74.1699 47.8516-69.6777Q46.4844-74.1699 42.9443-76.5625Q39.4043-78.9551 35.0098-78.9551Q31.0547-78.9551 27.7832-77.1973Q24.5117-75.4395 22.5586-72.3145Q20.6055-69.1895 20.6055-65.1855Q20.6055-62.6953 21.5332-60.5713Q22.4609-58.4473 23.9746-56.7871L18.0664-56.7871Q14.209-56.7871 11.9873-54.8828Q9.76562-52.9785 9.76562-48.9258ZM52.0508 4.05273L70.0684 4.05273Q75.2441 4.05273 78.1006 1.34277Q80.957-1.36719 80.957-6.49414L80.957-28.9551L52.0508-28.9551ZM14.7461-6.49414Q14.7461-1.36719 17.627 1.34277Q20.5078 4.05273 25.6836 4.05273L43.6523 4.05273L43.6523-28.9551L14.7461-28.9551Z"/>
  </g>
  <g id="Medium-S" transform="matrix(1 0 0 1 1699.14 696)">
   <path class="multicolor-0:systemRedColor SFSymbolsPreviewFF3B30" d="M9.76562-41.2109Q9.76562-37.8906 11.5723-36.4258Q13.3789-34.9609 16.6504-34.9609L43.6035-34.9609L43.6035-56.9336L37.5488-56.9336Q33.252-56.9336 30.957-59.2041Q28.6621-61.4746 28.6621-64.4043Q28.6621-67.5293 30.6396-69.3115Q32.6172-71.0938 35.7422-71.0938Q38.9648-71.0938 41.2842-68.7744Q43.6035-66.4551 43.6035-62.5488L43.6035-56.9336L51.2695-56.9336L51.2695-62.5488Q51.2695-66.4551 53.5645-68.7744Q55.8594-71.0938 59.082-71.0938Q62.207-71.0938 64.1846-69.3115Q66.1621-67.5293 66.1621-64.4043Q66.1621-61.4746 63.8428-59.2041Q61.5234-56.9336 57.2754-56.9336L51.2695-56.9336L51.2695-34.9609L78.1738-34.9609Q81.4941-34.9609 83.2764-36.4258Q85.0586-37.8906 85.0586-41.2109L85.0586-49.9512Q85.0586-53.6133 83.1055-55.2734Q81.1523-56.9336 77.4414-56.9336L70.6543-56.9336Q72.168-58.5449 73.0713-60.6689Q73.9746-62.793 73.9746-65.2344Q73.9746-69.1895 72.0703-72.2412Q70.166-75.293 66.9434-77.0508Q63.7207-78.8086 59.8145-78.8086Q55.5664-78.8086 52.2217-76.5381Q48.877-74.2676 47.4121-70.1172Q45.9473-74.2676 42.5781-76.5381Q39.209-78.8086 35.0098-78.8086Q31.1035-78.8086 27.8809-77.0508Q24.6582-75.293 22.7539-72.2412Q20.8496-69.1895 20.8496-65.2344Q20.8496-62.793 21.7529-60.6689Q22.6562-58.5449 24.1699-56.9336L17.3828-56.9336Q13.8672-56.9336 11.8164-55.2734Q9.76562-53.6133 9.76562-49.9512ZM51.2695 3.51562L69.1895 3.51562Q74.2676 3.51562 77.0996 0.90332Q79.9316-1.70898 79.9316-6.78711L79.9316-30.0781L51.2695-30.0781ZM14.8438-6.78711Q14.8438-1.70898 17.7002 0.90332Q20.5566 3.51562 25.6348 3.51562L43.6035 3.51562L43.6035-30.0781L14.8438-30.0781Z"/>
  </g>
  <g id="Regular-S" transform="matrix(1 0 0 1 1403.02 696)">
   <path class="multicolor-0:systemRedColor SFSymbolsPreviewFF3B30" d="M9.76562-41.6992Q9.76562-38.4766 11.499-37.207Q13.2324-35.9375 16.4551-35.9375L43.457-35.9375L43.457-57.0801L37.1094-57.0801Q32.7148-57.0801 30.3711-59.4727Q28.0273-61.8652 28.0273-64.7949Q28.0273-68.0664 30.127-69.8486Q32.2266-71.6309 35.4492-71.6309Q38.7207-71.6309 41.0889-69.3359Q43.457-67.041 43.457-62.9883L43.457-57.0801L50.1953-57.0801L50.1953-62.9883Q50.1953-67.041 52.5635-69.3359Q54.9316-71.6309 58.2031-71.6309Q61.4258-71.6309 63.5254-69.8486Q65.625-68.0664 65.625-64.7949Q65.625-61.8652 63.2568-59.4727Q60.8887-57.0801 56.543-57.0801L50.1953-57.0801L50.1953-35.9375L77.1973-35.9375Q80.4688-35.9375 82.1777-37.207Q83.8867-38.4766 83.8867-41.6992L83.8867-51.2695Q83.8867-54.4922 82.1777-55.7861Q80.4688-57.0801 77.1973-57.0801L69.2383-57.0801Q70.752-58.6914 71.6309-60.7666Q72.5098-62.8418 72.5098-65.2832Q72.5098-69.1406 70.6543-72.1436Q68.7988-75.1465 65.6494-76.8555Q62.5-78.5645 58.6426-78.5645Q54.6387-78.5645 51.4893-76.5137Q48.3398-74.4629 46.8262-70.6543Q45.3125-74.4629 42.1387-76.5137Q38.9648-78.5645 34.9609-78.5645Q31.1523-78.5645 28.0029-76.8555Q24.8535-75.1465 22.9736-72.1436Q21.0938-69.1406 21.0938-65.2832Q21.0938-62.8418 21.9971-60.7666Q22.9004-58.6914 24.4141-57.0801L16.4551-57.0801Q13.3789-57.0801 11.5723-55.7861Q9.76562-54.4922 9.76562-51.2695ZM50.1953 2.88086L68.0664 2.88086Q73.0469 2.88086 75.8301 0.341797Q78.6133-2.19727 78.6133-7.17773L78.6133-31.5918L50.1953-31.5918ZM14.9902-7.17773Q14.9902-2.19727 17.7979 0.341797Q20.6055 2.88086 25.5859 2.88086L43.457 2.88086L43.457-31.5918L14.9902-31.5918Z"/>
  </g>
  <g id="Light-S" transform="matrix(1 0 0 1 1106.89 696)">
   <path class="multicolor-0:systemRedColor SFSymbolsPreviewFF3B30" d="M9.76562-41.2109Q9.76562-38.2812 11.377-36.9385Q12.9883-35.5957 15.9668-35.5957L43.2617-35.5957L43.2617-55.9082L37.6465-55.9082Q32.959-55.9082 30.3467-58.3496Q27.7344-60.791 27.7344-64.1113Q27.7344-67.1875 29.7363-68.9209Q31.7383-70.6543 34.8633-70.6543Q38.4277-70.6543 40.8447-68.0908Q43.2617-65.5273 43.2617-61.1328L43.2617-55.9082L49.2188-55.9082L49.2188-61.1328Q49.2188-65.5273 51.6357-68.0908Q54.0527-70.6543 57.6172-70.6543Q60.7422-70.6543 62.7441-68.9209Q64.7461-67.1875 64.7461-64.1113Q64.7461-60.791 62.1094-58.3496Q59.4727-55.9082 54.834-55.9082L49.2188-55.9082L49.2188-35.5957L76.5137-35.5957Q79.4922-35.5957 81.1035-36.9385Q82.7148-38.2812 82.7148-41.2109L82.7148-50.293Q82.7148-53.2227 81.1035-54.5654Q79.4922-55.9082 76.5137-55.9082L66.8945-55.9082Q68.6523-57.4707 69.6533-59.6191Q70.6543-61.7676 70.6543-64.4043Q70.6543-67.9688 68.9941-70.7275Q67.334-73.4863 64.4287-75.0244Q61.5234-76.5625 57.9102-76.5625Q53.8574-76.5625 50.7568-74.4141Q47.6562-72.2656 46.2402-68.4082Q44.8242-72.2656 41.7236-74.4141Q38.623-76.5625 34.5215-76.5625Q30.957-76.5625 28.0518-75.0244Q25.1465-73.4863 23.4619-70.7275Q21.7773-67.9688 21.7773-64.4043Q21.7773-61.7676 22.8027-59.6191Q23.8281-57.4707 25.5859-55.9082L15.9668-55.9082Q13.0859-55.9082 11.4258-54.5654Q9.76562-53.2227 9.76562-50.293ZM49.2188 2.58789L67.2852 2.58789Q71.875 2.58789 74.4629 0.146484Q77.0508-2.29492 77.0508-6.88477L77.0508-31.6895L49.2188-31.6895ZM15.3809-6.88477Q15.3809-2.29492 17.9932 0.146484Q20.6055 2.58789 25.1953 2.58789L43.2617 2.58789L43.2617-31.6895L15.3809-31.6895Z"/>
  </g>
  <g id="Thin-S" transform="matrix(1 0 0 1 810.963 696)">
   <path class="multicolor-0:systemRedColor SFSymbolsPreviewFF3B30" d="M9.76562-40.5762Q9.76562-37.9883 11.2305-36.5723Q12.6953-35.1562 15.2832-35.1562L43.0176-35.1562L43.0176-54.3945L38.3789-54.3945Q33.3008-54.3945 30.3223-56.8848Q27.3438-59.375 27.3438-63.1836Q27.3438-66.0156 29.2236-67.6758Q31.1035-69.3359 34.1309-69.3359Q38.0371-69.3359 40.5273-66.4551Q43.0176-63.5742 43.0176-58.7402L43.0176-54.3945L47.9492-54.3945L47.9492-58.7402Q47.9492-63.5742 50.415-66.4551Q52.8809-69.3359 56.7871-69.3359Q59.8145-69.3359 61.6943-67.6758Q63.5742-66.0156 63.5742-63.1836Q63.5742-59.375 60.5713-56.8848Q57.5684-54.3945 52.5879-54.3945L47.9492-54.3945L47.9492-35.1562L75.6348-35.1562Q78.2227-35.1562 79.6875-36.5723Q81.1523-37.9883 81.1523-40.5762L81.1523-48.9258Q81.1523-51.5625 79.6875-52.9785Q78.2227-54.3945 75.6348-54.3945L63.8184-54.3945Q65.918-55.8594 67.0898-58.1299Q68.2617-60.4004 68.2617-63.2324Q68.2617-66.4551 66.7969-68.8721Q65.332-71.2891 62.793-72.6318Q60.2539-73.9746 56.9336-73.9746Q52.7832-73.9746 49.7559-71.6797Q46.7285-69.3848 45.459-65.3809Q44.1895-69.3848 41.1621-71.6797Q38.1348-73.9746 33.9844-73.9746Q30.7129-73.9746 28.125-72.6318Q25.5371-71.2891 24.0967-68.8721Q22.6562-66.4551 22.6562-63.2324Q22.6562-60.4004 23.8281-58.1299Q25-55.8594 27.0996-54.3945L15.2832-54.3945Q12.7441-54.3945 11.2549-52.9785Q9.76562-51.5625 9.76562-48.9258ZM47.9492 2.19727L66.2109 2.19727Q70.3125 2.19727 72.6807-0.0976562Q75.0488-2.39258 75.0488-6.49414L75.0488-31.8359L47.9492-31.8359ZM15.918-6.49414Q15.918-2.39258 18.2617-0.0976562Q20.6055 2.19727 24.707 2.19727L43.0176 2.19727L43.0176-31.8359L15.918-31.8359Z"/>
  </g>
  <g id="Ultralight-S" transform="matrix(1 0 0 1 514.667 696)">
   <path class="multicolor-0:systemRedColor SFSymbolsPreviewFF3B30" d="M9.76562-40.2344Q9.76562-37.8418 11.1572-36.4014Q12.5488-34.9609 14.9414-34.9609L42.8711-34.9609L42.8711-53.5645L38.7207-53.5645Q33.4961-53.5645 30.3223-56.1035Q27.1484-58.6426 27.1484-62.6953Q27.1484-65.3809 28.9551-67.041Q30.7617-68.7012 33.7402-68.7012Q37.793-68.7012 40.332-65.625Q42.8711-62.5488 42.8711-57.4707L42.8711-53.5645L47.2656-53.5645L47.2656-57.4707Q47.2656-62.5488 49.7803-65.625Q52.2949-68.7012 56.3965-68.7012Q59.3262-68.7012 61.1572-67.041Q62.9883-65.3809 62.9883-62.6953Q62.9883-58.6426 59.8145-56.1035Q56.6406-53.5645 51.416-53.5645L47.2656-53.5645L47.2656-34.9609L75.1465-34.9609Q77.5391-34.9609 78.9307-36.4014Q80.3223-37.8418 80.3223-40.2344L80.3223-48.291Q80.3223-50.6836 78.9307-52.124Q77.5391-53.5645 75.1465-53.5645L62.2559-53.5645Q64.502-55.0781 65.7471-57.373Q66.9922-59.668 66.9922-62.6465Q66.9922-65.625 65.6738-67.8955Q64.3555-70.166 61.9629-71.3867Q59.5703-72.6074 56.3965-72.6074Q52.2461-72.6074 49.2432-70.2393Q46.2402-67.8711 45.0684-63.8672Q43.8477-67.8711 40.8936-70.2393Q37.9395-72.6074 33.6914-72.6074Q30.5664-72.6074 28.1738-71.3867Q25.7812-70.166 24.4385-67.8955Q23.0957-65.625 23.0957-62.6465Q23.0957-59.668 24.3652-57.373Q25.6348-55.0781 27.9297-53.5645L14.9414-53.5645Q12.5488-53.5645 11.1572-52.124Q9.76562-50.6836 9.76562-48.291ZM47.2656 2.00195L65.6738 2.00195Q69.4824 2.00195 71.7285-0.219727Q73.9746-2.44141 73.9746-6.29883L73.9746-31.9336L47.2656-31.9336ZM16.1621-6.29883Q16.1621-2.44141 18.3838-0.219727Q20.6055 2.00195 24.4629 2.00195L42.8711 2.00195L42.8711-31.9336L16.1621-31.9336Z"/>
  </g>
 </g>
</svg>
