<?xml version="1.0" encoding="UTF-8"?>
<!--Generator: Apple Native CoreSVG 175-->
<!DOCTYPE svg
PUBLIC "-//W3C//DTD SVG 1.1//EN"
       "http://www.w3.org/Graphics/SVG/1.1/DTD/svg11.dtd">
<svg version="1.1" xmlns="http://www.w3.org/2000/svg" xmlns:xlink="http://www.w3.org/1999/xlink" width="3300" height="2200">
 <!--glyph: "uni100448.medium", point size: 100.0, font version: "17.0d11e1", template writer version: "65.1"-->
 <g id="Notes">
  <rect height="2200" id="artboard" style="fill:white;opacity:1" width="3300" x="0" y="0"/>
  <line style="fill:none;stroke:black;opacity:1;stroke-width:0.5;" x1="263" x2="3036" y1="292" y2="292"/>
  <text style="stroke:none;fill:black;font-family:sans-serif;font-size:13;font-weight:bold;" transform="matrix(1 0 0 1 263 322)">Weight/Scale Variations</text>
  <text style="stroke:none;fill:black;font-family:sans-serif;font-size:13;text-anchor:middle;" transform="matrix(1 0 0 1 559.711 322)">Ultralight</text>
  <text style="stroke:none;fill:black;font-family:sans-serif;font-size:13;text-anchor:middle;" transform="matrix(1 0 0 1 856.422 322)">Thin</text>
  <text style="stroke:none;fill:black;font-family:sans-serif;font-size:13;text-anchor:middle;" transform="matrix(1 0 0 1 1153.13 322)">Light</text>
  <text style="stroke:none;fill:black;font-family:sans-serif;font-size:13;text-anchor:middle;" transform="matrix(1 0 0 1 1449.84 322)">Regular</text>
  <text style="stroke:none;fill:black;font-family:sans-serif;font-size:13;text-anchor:middle;" transform="matrix(1 0 0 1 1746.56 322)">Medium</text>
  <text style="stroke:none;fill:black;font-family:sans-serif;font-size:13;text-anchor:middle;" transform="matrix(1 0 0 1 2043.27 322)">Semibold</text>
  <text style="stroke:none;fill:black;font-family:sans-serif;font-size:13;text-anchor:middle;" transform="matrix(1 0 0 1 2339.98 322)">Bold</text>
  <text style="stroke:none;fill:black;font-family:sans-serif;font-size:13;text-anchor:middle;" transform="matrix(1 0 0 1 2636.69 322)">Heavy</text>
  <text style="stroke:none;fill:black;font-family:sans-serif;font-size:13;text-anchor:middle;" transform="matrix(1 0 0 1 2933.4 322)">Black</text>
  <line style="fill:none;stroke:black;opacity:1;stroke-width:0.5;" x1="263" x2="3036" y1="1903" y2="1903"/>
  <g transform="matrix(1 0 0 1 263 1933)">
   <path d="M9.24805 0.830078Q10.8691 0.830078 12.2949 0.214844Q13.7207-0.400391 14.8096-1.49414Q15.8984-2.58789 16.5186-4.01367Q17.1387-5.43945 17.1387-7.05078Q17.1387-8.66211 16.5186-10.0879Q15.8984-11.5137 14.8047-12.6074Q13.7109-13.7012 12.2852-14.3164Q10.8594-14.9316 9.23828-14.9316Q7.62695-14.9316 6.20117-14.3164Q4.77539-13.7012 3.69141-12.6074Q2.60742-11.5137 1.9873-10.0879Q1.36719-8.66211 1.36719-7.05078Q1.36719-5.43945 1.9873-4.01367Q2.60742-2.58789 3.69629-1.49414Q4.78516-0.400391 6.21094 0.214844Q7.63672 0.830078 9.24805 0.830078ZM9.24805-0.654297Q7.91992-0.654297 6.7627-1.14746Q5.60547-1.64062 4.73145-2.51953Q3.85742-3.39844 3.36426-4.56055Q2.87109-5.72266 2.87109-7.05078Q2.87109-8.37891 3.35938-9.54102Q3.84766-10.7031 4.72168-11.582Q5.5957-12.4609 6.75293-12.9541Q7.91016-13.4473 9.23828-13.4473Q10.5762-13.4473 11.7334-12.9541Q12.8906-12.4609 13.7695-11.582Q14.6484-10.7031 15.1465-9.54102Q15.6445-8.37891 15.6445-7.05078Q15.6445-5.72266 15.1514-4.56055Q14.6582-3.39844 13.7842-2.51953Q12.9102-1.64062 11.748-1.14746Q10.5859-0.654297 9.24805-0.654297ZM5.6543-7.05078Q5.6543-6.72852 5.85938-6.52832Q6.06445-6.32812 6.40625-6.32812L8.51562-6.32812L8.51562-4.20898Q8.51562-3.88672 8.71094-3.67676Q8.90625-3.4668 9.23828-3.4668Q9.56055-3.4668 9.77051-3.67676Q9.98047-3.88672 9.98047-4.20898L9.98047-6.32812L12.0898-6.32812Q12.4219-6.32812 12.627-6.52832Q12.832-6.72852 12.832-7.05078Q12.832-7.38281 12.627-7.58789Q12.4219-7.79297 12.0898-7.79297L9.98047-7.79297L9.98047-9.90234Q9.98047-10.2344 9.77051-10.4443Q9.56055-10.6543 9.23828-10.6543Q8.90625-10.6543 8.71094-10.4443Q8.51562-10.2344 8.51562-9.90234L8.51562-7.79297L6.40625-7.79297Q6.06445-7.79297 5.85938-7.58789Q5.6543-7.38281 5.6543-7.05078Z"/>
  </g>
  <g transform="matrix(1 0 0 1 281.867 1933)">
   <path d="M11.709 2.91016Q13.75 2.91016 15.5518 2.12891Q17.3535 1.34766 18.7305-0.0292969Q20.1074-1.40625 20.8887-3.20801Q21.6699-5.00977 21.6699-7.05078Q21.6699-9.0918 20.8887-10.8936Q20.1074-12.6953 18.7305-14.0723Q17.3535-15.4492 15.5469-16.2305Q13.7402-17.0117 11.6992-17.0117Q9.6582-17.0117 7.85645-16.2305Q6.05469-15.4492 4.68262-14.0723Q3.31055-12.6953 2.5293-10.8936Q1.74805-9.0918 1.74805-7.05078Q1.74805-5.00977 2.5293-3.20801Q3.31055-1.40625 4.6875-0.0292969Q6.06445 1.34766 7.86621 2.12891Q9.66797 2.91016 11.709 2.91016ZM11.709 1.25Q9.98047 1.25 8.47656 0.605469Q6.97266-0.0390625 5.83496-1.17676Q4.69727-2.31445 4.05762-3.81836Q3.41797-5.32227 3.41797-7.05078Q3.41797-8.7793 4.05762-10.2832Q4.69727-11.7871 5.83008-12.9297Q6.96289-14.0723 8.4668-14.7119Q9.9707-15.3516 11.6992-15.3516Q13.4277-15.3516 14.9316-14.7119Q16.4355-14.0723 17.5781-12.9297Q18.7207-11.7871 19.3652-10.2832Q20.0098-8.7793 20.0098-7.05078Q20.0098-5.32227 19.3701-3.81836Q18.7305-2.31445 17.5928-1.17676Q16.4551-0.0390625 14.9463 0.605469Q13.4375 1.25 11.709 1.25ZM7.17773-7.05078Q7.17773-6.69922 7.41211-6.47461Q7.64648-6.25 8.01758-6.25L10.8887-6.25L10.8887-3.36914Q10.8887-2.99805 11.1133-2.76855Q11.3379-2.53906 11.6895-2.53906Q12.0605-2.53906 12.29-2.76855Q12.5195-2.99805 12.5195-3.36914L12.5195-6.25L15.4004-6.25Q15.7715-6.25 16.001-6.47461Q16.2305-6.69922 16.2305-7.05078Q16.2305-7.42188 16.001-7.65137Q15.7715-7.88086 15.4004-7.88086L12.5195-7.88086L12.5195-10.752Q12.5195-11.1328 12.29-11.3623Q12.0605-11.5918 11.6895-11.5918Q11.3379-11.5918 11.1133-11.3574Q10.8887-11.123 10.8887-10.752L10.8887-7.88086L8.01758-7.88086Q7.63672-7.88086 7.40723-7.65137Q7.17773-7.42188 7.17773-7.05078Z"/>
  </g>
  <g transform="matrix(1 0 0 1 305.646 1933)">
   <path d="M14.9707 5.66406Q17.0605 5.66406 18.96 5.01465Q20.8594 4.36523 22.4512 3.19336Q24.043 2.02148 25.2197 0.429688Q26.3965-1.16211 27.0459-3.06641Q27.6953-4.9707 27.6953-7.05078Q27.6953-9.14062 27.0459-11.04Q26.3965-12.9395 25.2197-14.5312Q24.043-16.123 22.4512-17.2998Q20.8594-18.4766 18.9551-19.126Q17.0508-19.7754 14.9609-19.7754Q12.8711-19.7754 10.9717-19.126Q9.07227-18.4766 7.48535-17.2998Q5.89844-16.123 4.72168-14.5312Q3.54492-12.9395 2.90039-11.04Q2.25586-9.14062 2.25586-7.05078Q2.25586-4.9707 2.90527-3.06641Q3.55469-1.16211 4.72656 0.429688Q5.89844 2.02148 7.49023 3.19336Q9.08203 4.36523 10.9814 5.01465Q12.8809 5.66406 14.9707 5.66406ZM14.9707 3.84766Q13.1641 3.84766 11.5283 3.2959Q9.89258 2.74414 8.53516 1.74805Q7.17773 0.751953 6.17676-0.610352Q5.17578-1.97266 4.62891-3.6084Q4.08203-5.24414 4.08203-7.05078Q4.08203-8.86719 4.62891-10.5029Q5.17578-12.1387 6.17188-13.501Q7.16797-14.8633 8.52539-15.8594Q9.88281-16.8555 11.5186-17.4023Q13.1543-17.9492 14.9609-17.9492Q16.7773-17.9492 18.4131-17.4023Q20.0488-16.8555 21.4111-15.8594Q22.7734-14.8633 23.7695-13.501Q24.7656-12.1387 25.3174-10.5029Q25.8691-8.86719 25.8691-7.05078Q25.8789-5.24414 25.332-3.6084Q24.7852-1.97266 23.7842-0.610352Q22.7832 0.751953 21.4209 1.74805Q20.0586 2.74414 18.4229 3.2959Q16.7871 3.84766 14.9707 3.84766ZM9.19922-7.05078Q9.19922-6.66992 9.45801-6.4209Q9.7168-6.17188 10.1172-6.17188L14.0625-6.17188L14.0625-2.2168Q14.0625-1.81641 14.3115-1.55762Q14.5605-1.29883 14.9512-1.29883Q15.3516-1.29883 15.6104-1.55273Q15.8691-1.80664 15.8691-2.2168L15.8691-6.17188L19.8242-6.17188Q20.2246-6.17188 20.4785-6.4209Q20.7324-6.66992 20.7324-7.05078Q20.7324-7.46094 20.4785-7.71484Q20.2246-7.96875 19.8242-7.96875L15.8691-7.96875L15.8691-11.9141Q15.8691-12.3242 15.6104-12.583Q15.3516-12.8418 14.9512-12.8418Q14.5605-12.8418 14.3115-12.583Q14.0625-12.3242 14.0625-11.9141L14.0625-7.96875L10.1172-7.96875Q9.70703-7.96875 9.45312-7.71484Q9.19922-7.46094 9.19922-7.05078Z"/>
  </g>
  <text style="stroke:none;fill:black;font-family:sans-serif;font-size:13;font-weight:bold;" transform="matrix(1 0 0 1 263 1953)">Design Variations</text>
  <text style="stroke:none;fill:black;font-family:sans-serif;font-size:13;" transform="matrix(1 0 0 1 263 1971)">Symbols are supported in up to nine weights and three scales.</text>
  <text style="stroke:none;fill:black;font-family:sans-serif;font-size:13;" transform="matrix(1 0 0 1 263 1989)">For optimal layout with text and other symbols, vertically align</text>
  <text style="stroke:none;fill:black;font-family:sans-serif;font-size:13;" transform="matrix(1 0 0 1 263 2007)">symbols with the adjacent text.</text>
  <line style="fill:none;stroke:#00AEEF;stroke-width:0.5;opacity:1.0;" x1="776" x2="776" y1="1919" y2="1933"/>
  <g transform="matrix(1 0 0 1 776 1933)">
   <path d="M3.31055 0.15625Q3.70117 0.15625 3.91602-0.00976562Q4.13086-0.175781 4.26758-0.585938L5.52734-4.0332L11.2891-4.0332L12.5488-0.585938Q12.6855-0.175781 12.9004-0.00976562Q13.1152 0.15625 13.4961 0.15625Q13.8867 0.15625 14.1162-0.0585938Q14.3457-0.273438 14.3457-0.644531Q14.3457-0.869141 14.2383-1.17188L9.6582-13.3691Q9.48242-13.8184 9.17969-14.043Q8.87695-14.2676 8.4082-14.2676Q7.5-14.2676 7.17773-13.3789L2.59766-1.16211Q2.49023-0.859375 2.49023-0.634766Q2.49023-0.263672 2.70996-0.0537109Q2.92969 0.15625 3.31055 0.15625ZM6.00586-5.51758L8.37891-12.0898L8.42773-12.0898L10.8008-5.51758Z"/>
  </g>
  <line style="fill:none;stroke:#00AEEF;stroke-width:0.5;opacity:1.0;" x1="793.197" x2="793.197" y1="1919" y2="1933"/>
  <text style="stroke:none;fill:black;font-family:sans-serif;font-size:13;font-weight:bold;" transform="matrix(1 0 0 1 776 1953)">Margins</text>
  <text style="stroke:none;fill:black;font-family:sans-serif;font-size:13;" transform="matrix(1 0 0 1 776 1971)">Leading and trailing margins on the left and right side of each symbol</text>
  <text style="stroke:none;fill:black;font-family:sans-serif;font-size:13;" transform="matrix(1 0 0 1 776 1989)">can be adjusted by modifying the x-location of the margin guidelines.</text>
  <text style="stroke:none;fill:black;font-family:sans-serif;font-size:13;" transform="matrix(1 0 0 1 776 2007)">Modifications are automatically applied proportionally to all</text>
  <text style="stroke:none;fill:black;font-family:sans-serif;font-size:13;" transform="matrix(1 0 0 1 776 2025)">scales and weights.</text>
  <g transform="matrix(1 0 0 1 1289 1933)">
   <path d="M2.8418 1.86523L4.54102 3.57422Q5.18555 4.22852 5.90332 4.17969Q6.62109 4.13086 7.31445 3.35938L18.0078-8.42773L17.041-9.4043L6.42578 2.27539Q6.16211 2.57812 5.89355 2.61719Q5.625 2.65625 5.27344 2.30469L4.10156 1.14258Q3.75 0.791016 3.79395 0.522461Q3.83789 0.253906 4.14062-0.0195312L15.6152-10.8203L14.6387-11.7871L3.04688-0.898438Q2.30469-0.214844 2.25098 0.498047Q2.19727 1.21094 2.8418 1.86523ZM9.25781-16.3281Q8.94531-16.0254 8.90625-15.6348Q8.86719-15.2441 9.04297-14.9512Q9.21875-14.6777 9.55566-14.541Q9.89258-14.4043 10.3809-14.5215Q11.4746-14.7754 12.5977-14.7314Q13.7207-14.6875 14.7949-13.9844L14.209-12.5293Q13.9551-11.9043 14.0674-11.4404Q14.1797-10.9766 14.5801-10.5664L16.875-8.25195Q17.2363-7.88086 17.5781-7.82227Q17.9199-7.76367 18.3398-7.8418L19.4043-8.03711L20.0684-7.36328L20.0293-6.80664Q20-6.43555 20.1221-6.12305Q20.2441-5.81055 20.6055-5.44922L21.3672-4.70703Q21.7285-4.3457 22.1533-4.33105Q22.5781-4.31641 22.9297-4.66797L25.8398-7.58789Q26.1914-7.93945 26.1816-8.35449Q26.1719-8.76953 25.8105-9.13086L25.0391-9.89258Q24.6875-10.2539 24.3799-10.3857Q24.0723-10.5176 23.7109-10.4883L23.1348-10.4395L22.4902-11.0742L22.7344-12.1973Q22.832-12.6172 22.6953-12.9834Q22.5586-13.3496 22.1191-13.7891L19.9219-15.9766Q18.6719-17.2168 17.2607-17.8369Q15.8496-18.457 14.4189-18.4814Q12.9883-18.5059 11.665-17.959Q10.3418-17.4121 9.25781-16.3281ZM10.752-15.957Q11.6602-16.6211 12.7002-16.9043Q13.7402-17.1875 14.8047-17.085Q15.8691-16.9824 16.8701-16.5137Q17.8711-16.0449 18.7012-15.2051L21.1328-12.793Q21.3086-12.6172 21.3525-12.4512Q21.3965-12.2852 21.3379-12.0312L21.0156-10.5469L22.5195-9.0625L23.5059-9.12109Q23.6914-9.13086 23.7891-9.09668Q23.8867-9.0625 24.0332-8.91602L24.6094-8.33984L22.168-5.89844L21.5918-6.47461Q21.4453-6.62109 21.4062-6.71875Q21.3672-6.81641 21.377-7.01172L21.4453-7.98828L19.9512-9.47266L18.4277-9.21875Q18.1836-9.16992 18.042-9.2041Q17.9004-9.23828 17.7148-9.41406L15.7129-11.416Q15.5176-11.5918 15.4932-11.7529Q15.4688-11.9141 15.5859-12.1875L16.4648-14.2773Q15.293-15.3711 13.8281-15.791Q12.3633-16.2109 10.8398-15.7617Q10.7227-15.7324 10.6885-15.8057Q10.6543-15.8789 10.752-15.957Z"/>
  </g>
  <text style="stroke:none;fill:black;font-family:sans-serif;font-size:13;font-weight:bold;" transform="matrix(1 0 0 1 1289 1953)">Exporting</text>
  <text style="stroke:none;fill:black;font-family:sans-serif;font-size:13;" transform="matrix(1 0 0 1 1289 1971)">Symbols should be outlined when exporting to ensure the</text>
  <text style="stroke:none;fill:black;font-family:sans-serif;font-size:13;" transform="matrix(1 0 0 1 1289 1989)">design is preserved when submitting to Xcode.</text>
  <text id="template-version" style="stroke:none;fill:black;font-family:sans-serif;font-size:13;text-anchor:end;" transform="matrix(1 0 0 1 3036 1933)">Template v.3.0</text>
  <text style="stroke:none;fill:black;font-family:sans-serif;font-size:13;text-anchor:end;" transform="matrix(1 0 0 1 3036 1951)">Requires Xcode 13 or greater</text>
  <text id="descriptive-name" style="stroke:none;fill:black;font-family:sans-serif;font-size:13;text-anchor:end;" transform="matrix(1 0 0 1 3036 1969)">Generated from headphones</text>
  <text style="stroke:none;fill:black;font-family:sans-serif;font-size:13;text-anchor:end;" transform="matrix(1 0 0 1 3036 1987)">Typeset at 100 points</text>
  <text style="stroke:none;fill:black;font-family:sans-serif;font-size:13;" transform="matrix(1 0 0 1 263 726)">Small</text>
  <text style="stroke:none;fill:black;font-family:sans-serif;font-size:13;" transform="matrix(1 0 0 1 263 1156)">Medium</text>
  <text style="stroke:none;fill:black;font-family:sans-serif;font-size:13;" transform="matrix(1 0 0 1 263 1586)">Large</text>
 </g>
 <g id="Guides">
  <g id="H-reference" style="fill:#27AAE1;stroke:none;" transform="matrix(1 0 0 1 339 696)">
   <path d="M0.976562 0L3.66211 0L29.3457-67.1387L30.0293-67.1387L30.0293-70.459L28.125-70.459ZM11.6699-24.4629L46.9727-24.4629L46.2402-26.709L12.4512-26.709ZM55.127 0L57.7637 0L30.6152-70.459L29.4434-70.459L29.4434-67.1387Z"/>
  </g>
  <line id="Baseline-S" style="fill:none;stroke:#27AAE1;opacity:1;stroke-width:0.5;" x1="263" x2="3036" y1="696" y2="696"/>
  <line id="Capline-S" style="fill:none;stroke:#27AAE1;opacity:1;stroke-width:0.5;" x1="263" x2="3036" y1="625.541" y2="625.541"/>
  <g id="H-reference" style="fill:#27AAE1;stroke:none;" transform="matrix(1 0 0 1 339 1126)">
   <path d="M0.976562 0L3.66211 0L29.3457-67.1387L30.0293-67.1387L30.0293-70.459L28.125-70.459ZM11.6699-24.4629L46.9727-24.4629L46.2402-26.709L12.4512-26.709ZM55.127 0L57.7637 0L30.6152-70.459L29.4434-70.459L29.4434-67.1387Z"/>
  </g>
  <line id="Baseline-M" style="fill:none;stroke:#27AAE1;opacity:1;stroke-width:0.5;" x1="263" x2="3036" y1="1126" y2="1126"/>
  <line id="Capline-M" style="fill:none;stroke:#27AAE1;opacity:1;stroke-width:0.5;" x1="263" x2="3036" y1="1055.54" y2="1055.54"/>
  <g id="H-reference" style="fill:#27AAE1;stroke:none;" transform="matrix(1 0 0 1 339 1556)">
   <path d="M0.976562 0L3.66211 0L29.3457-67.1387L30.0293-67.1387L30.0293-70.459L28.125-70.459ZM11.6699-24.4629L46.9727-24.4629L46.2402-26.709L12.4512-26.709ZM55.127 0L57.7637 0L30.6152-70.459L29.4434-70.459L29.4434-67.1387Z"/>
  </g>
  <line id="Baseline-L" style="fill:none;stroke:#27AAE1;opacity:1;stroke-width:0.5;" x1="263" x2="3036" y1="1556" y2="1556"/>
  <line id="Capline-L" style="fill:none;stroke:#27AAE1;opacity:1;stroke-width:0.5;" x1="263" x2="3036" y1="1485.54" y2="1485.54"/>
  <line id="left-margin-Ultralight-S" style="fill:none;stroke:#00AEEF;stroke-width:0.5;opacity:1.0;" x1="513.153" x2="513.153" y1="600.785" y2="720.121"/>
  <line id="right-margin-Ultralight-S" style="fill:none;stroke:#00AEEF;stroke-width:0.5;opacity:1.0;" x1="606.269" x2="606.269" y1="600.785" y2="720.121"/>
  <line id="left-margin-Thin-S" style="fill:none;stroke:#00AEEF;stroke-width:0.5;opacity:1.0;" x1="809.279" x2="809.279" y1="600.785" y2="720.121"/>
  <line id="right-margin-Thin-S" style="fill:none;stroke:#00AEEF;stroke-width:0.5;opacity:1.0;" x1="903.566" x2="903.566" y1="600.785" y2="720.121"/>
  <line id="left-margin-Light-S" style="fill:none;stroke:#00AEEF;stroke-width:0.5;opacity:1.0;" x1="1104.82" x2="1104.82" y1="600.785" y2="720.121"/>
  <line id="right-margin-Light-S" style="fill:none;stroke:#00AEEF;stroke-width:0.5;opacity:1.0;" x1="1201.45" x2="1201.45" y1="600.785" y2="720.121"/>
  <line id="left-margin-Regular-S" style="fill:none;stroke:#00AEEF;stroke-width:0.5;opacity:1.0;" x1="1400.65" x2="1400.65" y1="600.785" y2="720.121"/>
  <line id="right-margin-Regular-S" style="fill:none;stroke:#00AEEF;stroke-width:0.5;opacity:1.0;" x1="1499.04" x2="1499.04" y1="600.785" y2="720.121"/>
  <line id="left-margin-Medium-S" style="fill:none;stroke:#00AEEF;stroke-width:0.5;opacity:1.0;" x1="1696.75" x2="1696.75" y1="600.785" y2="720.121"/>
  <line id="right-margin-Medium-S" style="fill:none;stroke:#00AEEF;stroke-width:0.5;opacity:1.0;" x1="1796.36" x2="1796.36" y1="600.785" y2="720.121"/>
  <line id="left-margin-Semibold-S" style="fill:none;stroke:#00AEEF;stroke-width:0.5;opacity:1.0;" x1="1993" x2="1993" y1="600.785" y2="720.121"/>
  <line id="right-margin-Semibold-S" style="fill:none;stroke:#00AEEF;stroke-width:0.5;opacity:1.0;" x1="2093.54" x2="2093.54" y1="600.785" y2="720.121"/>
  <line id="left-margin-Bold-S" style="fill:none;stroke:#00AEEF;stroke-width:0.5;opacity:1.0;" x1="2289.1" x2="2289.1" y1="600.785" y2="720.121"/>
  <line id="right-margin-Bold-S" style="fill:none;stroke:#00AEEF;stroke-width:0.5;opacity:1.0;" x1="2390.86" x2="2390.86" y1="600.785" y2="720.121"/>
  <line id="left-margin-Heavy-S" style="fill:none;stroke:#00AEEF;stroke-width:0.5;opacity:1.0;" x1="2584.93" x2="2584.93" y1="600.785" y2="720.121"/>
  <line id="right-margin-Heavy-S" style="fill:none;stroke:#00AEEF;stroke-width:0.5;opacity:1.0;" x1="2688.45" x2="2688.45" y1="600.785" y2="720.121"/>
  <line id="left-margin-Black-S" style="fill:none;stroke:#00AEEF;stroke-width:0.5;opacity:1.0;" x1="2880.86" x2="2880.86" y1="600.785" y2="720.121"/>
  <line id="right-margin-Black-S" style="fill:none;stroke:#00AEEF;stroke-width:0.5;opacity:1.0;" x1="2985.94" x2="2985.94" y1="600.785" y2="720.121"/>
  <line id="left-margin-Ultralight-M" style="fill:none;stroke:#00AEEF;stroke-width:0.5;opacity:1.0;" x1="500.507" x2="500.507" y1="1030.79" y2="1150.12"/>
  <line id="right-margin-Ultralight-M" style="fill:none;stroke:#00AEEF;stroke-width:0.5;opacity:1.0;" x1="618.915" x2="618.915" y1="1030.79" y2="1150.12"/>
  <line id="left-margin-Thin-M" style="fill:none;stroke:#00AEEF;stroke-width:0.5;opacity:1.0;" x1="796.559" x2="796.559" y1="1030.79" y2="1150.12"/>
  <line id="right-margin-Thin-M" style="fill:none;stroke:#00AEEF;stroke-width:0.5;opacity:1.0;" x1="916.286" x2="916.286" y1="1030.79" y2="1150.12"/>
  <line id="left-margin-Light-M" style="fill:none;stroke:#00AEEF;stroke-width:0.5;opacity:1.0;" x1="1091.95" x2="1091.95" y1="1030.79" y2="1150.12"/>
  <line id="right-margin-Light-M" style="fill:none;stroke:#00AEEF;stroke-width:0.5;opacity:1.0;" x1="1214.31" x2="1214.31" y1="1030.79" y2="1150.12"/>
  <line id="left-margin-Regular-M" style="fill:none;stroke:#00AEEF;stroke-width:0.5;opacity:1.0;" x1="1387.69" x2="1387.69" y1="1030.79" y2="1150.12"/>
  <line id="right-margin-Regular-M" style="fill:none;stroke:#00AEEF;stroke-width:0.5;opacity:1.0;" x1="1512" x2="1512" y1="1030.79" y2="1150.12"/>
  <line id="left-margin-Medium-M" style="fill:none;stroke:#00AEEF;stroke-width:0.5;opacity:1.0;" x1="1683.59" x2="1683.59" y1="1030.79" y2="1150.12"/>
  <line id="right-margin-Medium-M" style="fill:none;stroke:#00AEEF;stroke-width:0.5;opacity:1.0;" x1="1809.52" x2="1809.52" y1="1030.79" y2="1150.12"/>
  <line id="left-margin-Semibold-M" style="fill:none;stroke:#00AEEF;stroke-width:0.5;opacity:1.0;" x1="1979.67" x2="1979.67" y1="1030.79" y2="1150.12"/>
  <line id="right-margin-Semibold-M" style="fill:none;stroke:#00AEEF;stroke-width:0.5;opacity:1.0;" x1="2106.87" x2="2106.87" y1="1030.79" y2="1150.12"/>
  <line id="left-margin-Bold-M" style="fill:none;stroke:#00AEEF;stroke-width:0.5;opacity:1.0;" x1="2275.55" x2="2275.55" y1="1030.79" y2="1150.12"/>
  <line id="right-margin-Bold-M" style="fill:none;stroke:#00AEEF;stroke-width:0.5;opacity:1.0;" x1="2404.41" x2="2404.41" y1="1030.79" y2="1150.12"/>
  <line id="left-margin-Heavy-M" style="fill:none;stroke:#00AEEF;stroke-width:0.5;opacity:1.0;" x1="2571.06" x2="2571.06" y1="1030.79" y2="1150.12"/>
  <line id="right-margin-Heavy-M" style="fill:none;stroke:#00AEEF;stroke-width:0.5;opacity:1.0;" x1="2702.31" x2="2702.31" y1="1030.79" y2="1150.12"/>
  <line id="left-margin-Black-M" style="fill:none;stroke:#00AEEF;stroke-width:0.5;opacity:1.0;" x1="2866.7" x2="2866.7" y1="1030.79" y2="1150.12"/>
  <line id="right-margin-Black-M" style="fill:none;stroke:#00AEEF;stroke-width:0.5;opacity:1.0;" x1="3000.1" x2="3000.1" y1="1030.79" y2="1150.12"/>
  <line id="left-margin-Ultralight-L" style="fill:none;stroke:#00AEEF;stroke-width:0.5;opacity:1.0;" x1="483.612" x2="483.612" y1="1460.79" y2="1580.12"/>
  <line id="right-margin-Ultralight-L" style="fill:none;stroke:#00AEEF;stroke-width:0.5;opacity:1.0;" x1="635.81" x2="635.81" y1="1460.79" y2="1580.12"/>
  <line id="left-margin-Thin-L" style="fill:none;stroke:#00AEEF;stroke-width:0.5;opacity:1.0;" x1="779.567" x2="779.567" y1="1460.79" y2="1580.12"/>
  <line id="right-margin-Thin-L" style="fill:none;stroke:#00AEEF;stroke-width:0.5;opacity:1.0;" x1="933.278" x2="933.278" y1="1460.79" y2="1580.12"/>
  <line id="left-margin-Light-L" style="fill:none;stroke:#00AEEF;stroke-width:0.5;opacity:1.0;" x1="1074.84" x2="1074.84" y1="1460.79" y2="1580.12"/>
  <line id="right-margin-Light-L" style="fill:none;stroke:#00AEEF;stroke-width:0.5;opacity:1.0;" x1="1231.43" x2="1231.43" y1="1460.79" y2="1580.12"/>
  <line id="left-margin-Regular-L" style="fill:none;stroke:#00AEEF;stroke-width:0.5;opacity:1.0;" x1="1370.45" x2="1370.45" y1="1460.79" y2="1580.12"/>
  <line id="right-margin-Regular-L" style="fill:none;stroke:#00AEEF;stroke-width:0.5;opacity:1.0;" x1="1529.24" x2="1529.24" y1="1460.79" y2="1580.12"/>
  <line id="left-margin-Medium-L" style="fill:none;stroke:#00AEEF;stroke-width:0.5;opacity:1.0;" x1="1666.14" x2="1666.14" y1="1460.79" y2="1580.12"/>
  <line id="right-margin-Medium-L" style="fill:none;stroke:#00AEEF;stroke-width:0.5;opacity:1.0;" x1="1826.98" x2="1826.98" y1="1460.79" y2="1580.12"/>
  <line id="left-margin-Semibold-L" style="fill:none;stroke:#00AEEF;stroke-width:0.5;opacity:1.0;" x1="1962.07" x2="1962.07" y1="1460.79" y2="1580.12"/>
  <line id="right-margin-Semibold-L" style="fill:none;stroke:#00AEEF;stroke-width:0.5;opacity:1.0;" x1="2124.47" x2="2124.47" y1="1460.79" y2="1580.12"/>
  <line id="left-margin-Bold-L" style="fill:none;stroke:#00AEEF;stroke-width:0.5;opacity:1.0;" x1="2257.75" x2="2257.75" y1="1460.79" y2="1580.12"/>
  <line id="right-margin-Bold-L" style="fill:none;stroke:#00AEEF;stroke-width:0.5;opacity:1.0;" x1="2422.2" x2="2422.2" y1="1460.79" y2="1580.12"/>
  <line id="left-margin-Heavy-L" style="fill:none;stroke:#00AEEF;stroke-width:0.5;opacity:1.0;" x1="2552.97" x2="2552.97" y1="1460.79" y2="1580.12"/>
  <line id="right-margin-Heavy-L" style="fill:none;stroke:#00AEEF;stroke-width:0.5;opacity:1.0;" x1="2720.4" x2="2720.4" y1="1460.79" y2="1580.12"/>
  <line id="left-margin-Black-L" style="fill:none;stroke:#00AEEF;stroke-width:0.5;opacity:1.0;" x1="2848.34" x2="2848.34" y1="1460.79" y2="1580.12"/>
  <line id="right-margin-Black-L" style="fill:none;stroke:#00AEEF;stroke-width:0.5;opacity:1.0;" x1="3018.46" x2="3018.46" y1="1460.79" y2="1580.12"/>
 </g>
 <g id="Symbols">
  <g id="Black-L" transform="matrix(1 0 0 1 2848.34 1556)">
   <path d="M16.0645-32.666Q16.0645-22.8516 17.8955-12.6221Q19.7266-2.39258 23.1689 7.39746Q26.6113 17.1875 31.3965 25.5859Q33.4473 29.1504 37.1582 30.1514Q40.8691 31.1523 44.5312 29.1504Q48.1445 27.1484 49.0967 23.4131Q50.0488 19.6777 47.998 15.918Q41.8945 4.78516 38.623-7.8125Q35.3516-20.4102 35.3516-32.666Q35.3516-44.8242 38.8916-54.7607Q42.4316-64.6973 48.999-71.8262Q55.5664-78.9551 64.7217-82.8125Q73.877-86.6699 85.0586-86.6699Q96.2402-86.6699 105.396-82.8125Q114.551-78.9551 121.143-71.8262Q127.734-64.6973 131.274-54.7607Q134.814-44.8242 134.814-32.666Q134.814-20.4102 131.519-7.8125Q128.223 4.78516 122.119 15.918Q120.068 19.6777 121.021 23.4131Q121.973 27.1484 125.586 29.1504Q129.248 31.1523 132.959 30.1514Q136.67 29.1504 138.721 25.5859Q143.506 17.1875 146.948 7.39746Q150.391-2.39258 152.222-12.6221Q154.053-22.8516 154.053-32.666Q154.053-49.1699 149.146-62.6465Q144.238-76.123 135.107-85.8154Q125.977-95.5078 113.281-100.732Q100.586-105.957 85.0586-105.957Q69.5312-105.957 56.8359-100.732Q44.1406-95.5078 35.0098-85.8154Q25.8789-76.123 20.9717-62.6465Q16.0645-49.1699 16.0645-32.666ZM42.7734 23.584Q44.9219 29.8828 50.1709 32.4219Q55.4199 34.9609 61.8164 32.8613Q68.1641 30.6641 70.7031 25.415Q73.2422 20.166 71.0449 13.8184L61.9141-13.2812Q59.7656-19.5801 54.541-22.1436Q49.3164-24.707 42.9199-22.6074Q36.5723-20.4102 34.0332-15.1611Q31.4941-9.91211 33.6426-3.51562ZM127.344 23.584L136.475-3.51562Q138.623-9.91211 136.084-15.1611Q133.545-20.4102 127.197-22.6074Q120.801-24.707 115.576-22.1436Q110.352-19.5801 108.203-13.2812L99.0723 13.8184Q96.875 20.166 99.4141 25.415Q101.953 30.6641 108.301 32.8613Q114.697 34.9609 119.946 32.4219Q125.195 29.8828 127.344 23.584Z"/>
  </g>
  <g id="Heavy-L" transform="matrix(1 0 0 1 2552.97 1556)">
   <path d="M16.0645-32.7148Q16.0645-22.998 17.8711-12.8662Q19.6777-2.73438 23.0957 6.93359Q26.5137 16.6016 31.25 24.9512Q33.0566 28.0762 36.2793 28.9307Q39.502 29.7852 42.7246 28.0273Q45.8984 26.3184 46.7285 23.0469Q47.5586 19.7754 45.752 16.4551Q39.5996 5.17578 36.2793-7.56836Q32.959-20.3125 32.959-32.7148Q32.959-45.1172 36.5723-55.2734Q40.1855-65.4297 46.8994-72.7295Q53.6133-80.0293 62.9639-83.9844Q72.3145-87.9395 83.7402-87.9395Q95.1172-87.9395 104.468-83.9844Q113.818-80.0293 120.557-72.7295Q127.295-65.4297 130.908-55.2734Q134.521-45.1172 134.521-32.7148Q134.521-20.3125 131.177-7.56836Q127.832 5.17578 121.68 16.4551Q119.873 19.7754 120.703 23.0469Q121.533 26.3184 124.707 28.0273Q127.93 29.7852 131.177 28.9307Q134.424 28.0762 136.182 24.9512Q140.918 16.6016 144.336 6.93359Q147.754-2.73438 149.561-12.8662Q151.367-22.998 151.367-32.7148Q151.367-48.9746 146.558-62.2314Q141.748-75.4883 132.812-85.0098Q123.877-94.5312 111.426-99.6582Q98.9746-104.785 83.7402-104.785Q68.5059-104.785 56.0547-99.6582Q43.6035-94.5312 34.6436-85.0098Q25.6836-75.4883 20.874-62.2314Q16.0645-48.9746 16.0645-32.7148ZM40.8203 23.0469Q42.8223 29.0527 47.7539 31.4941Q52.6855 33.9355 58.7891 31.9824Q64.8438 29.9316 67.3096 24.9756Q69.7754 20.0195 67.7246 13.9648L58.5938-13.9648Q56.5918-19.9707 51.6602-22.4365Q46.7285-24.9023 40.625-22.9492Q34.5703-20.9473 32.1045-15.9912Q29.6387-11.0352 31.6406-4.93164ZM126.611 23.0469L135.791-4.93164Q137.793-11.0352 135.327-15.9912Q132.861-20.9473 126.807-22.9492Q120.703-24.9023 115.771-22.4365Q110.84-19.9707 108.838-13.9648L99.707 13.9648Q97.6562 20.0195 100.122 24.9756Q102.588 29.9316 108.643 31.9824Q114.746 33.9355 119.678 31.4941Q124.609 29.0527 126.611 23.0469Z"/>
  </g>
  <g id="Bold-L" transform="matrix(1 0 0 1 2257.75 1556)">
   <path d="M16.0645-32.8125Q16.0645-23.1445 17.8711-13.1592Q19.6777-3.17383 23.0225 6.4209Q26.3672 16.0156 31.0547 24.2188Q32.5684 26.8555 35.3027 27.5879Q38.0371 28.3203 40.7715 26.8066Q43.4082 25.3418 44.0918 22.6074Q44.7754 19.873 43.2129 17.041Q37.0117 5.66406 33.6426-7.2998Q30.2734-20.2637 30.2734-32.8125Q30.2734-45.5078 33.9844-55.9082Q37.6953-66.3086 44.5557-73.7793Q51.416-81.25 60.9863-85.3027Q70.5566-89.3555 82.2266-89.3555Q93.8965-89.3555 103.467-85.3027Q113.037-81.25 119.922-73.7793Q126.807-66.3086 130.518-55.9082Q134.229-45.5078 134.229-32.8125Q134.229-20.2637 130.835-7.2998Q127.441 5.66406 121.24 17.041Q119.678 19.873 120.361 22.6074Q121.045 25.3418 123.682 26.8066Q126.416 28.3203 129.15 27.5879Q131.885 26.8555 133.398 24.2188Q138.086 16.0156 141.455 6.4209Q144.824-3.17383 146.606-13.1592Q148.389-23.1445 148.389-32.8125Q148.389-48.7305 143.701-61.7432Q139.014-74.7559 130.249-84.1064Q121.484-93.457 109.326-98.4863Q97.168-103.516 82.2266-103.516Q67.334-103.516 55.1514-98.4863Q42.9688-93.457 34.2285-84.1064Q25.4883-74.7559 20.7764-61.7432Q16.0645-48.7305 16.0645-32.8125ZM38.623 22.4121Q40.4785 28.125 45.0684 30.4443Q49.6582 32.7637 55.4688 31.0059Q61.1816 29.1504 63.5254 24.5117Q65.8691 19.873 64.0137 14.1113L54.8828-14.7949Q53.0273-20.459 48.4375-22.8271Q43.8477-25.1953 38.0371-23.3887Q32.3242-21.5332 29.9805-16.8945Q27.6367-12.2559 29.4434-6.49414ZM125.83 22.4121L135.01-6.49414Q136.816-12.2559 134.473-16.8945Q132.129-21.5332 126.416-23.3887Q120.605-25.1953 116.016-22.8271Q111.426-20.459 109.619-14.7949L100.439 14.1113Q98.584 19.873 100.928 24.5117Q103.271 29.1504 108.984 31.0059Q114.795 32.7637 119.385 30.4443Q123.975 28.125 125.83 22.4121Z"/>
  </g>
  <g id="Semibold-L" transform="matrix(1 0 0 1 1962.07 1556)">
   <path d="M16.0645-32.8125Q16.0645-23.2422 17.8467-13.3301Q19.6289-3.41797 22.9492 6.0791Q26.2695 15.5762 30.9082 23.7305Q32.2266 26.0254 34.5947 26.6357Q36.9629 27.2461 39.3555 25.9766Q41.6992 24.707 42.2852 22.3145Q42.8711 19.9219 41.4551 17.4316Q35.2051 6.00586 31.7871-7.08008Q28.3691-20.166 28.3691-32.8125Q28.3691-45.7031 32.1533-56.2744Q35.9375-66.8457 42.9199-74.4629Q49.9023-82.0801 59.6191-86.1816Q69.3359-90.2832 81.2012-90.2832Q93.0664-90.2832 102.783-86.1816Q112.5-82.0801 119.482-74.4629Q126.465-66.8457 130.249-56.2744Q134.033-45.7031 134.033-32.8125Q134.033-20.166 130.591-7.08008Q127.148 6.00586 120.898 17.4316Q119.482 19.9219 120.068 22.3145Q120.654 24.707 122.998 25.9766Q125.391 27.2461 127.759 26.6357Q130.127 26.0254 131.445 23.7305Q136.084 15.5762 139.429 6.0791Q142.773-3.41797 144.556-13.3301Q146.338-23.2422 146.338-32.8125Q146.338-48.584 141.699-61.4014Q137.061-74.2188 128.467-83.4473Q119.873-92.6758 107.886-97.6562Q95.8984-102.637 81.2012-102.637Q66.5039-102.637 54.5166-97.6562Q42.5293-92.6758 33.9111-83.4473Q25.293-74.2188 20.6787-61.4014Q16.0645-48.584 16.0645-32.8125ZM37.0605 21.9727Q38.8184 27.4414 43.1885 29.7119Q47.5586 31.9824 53.125 30.2734Q58.6426 28.5645 60.9131 24.1455Q63.1836 19.7266 61.4746 14.209L52.2949-15.332Q50.5371-20.8008 46.1914-23.0713Q41.8457-25.3418 36.2793-23.6328Q30.7617-21.9238 28.4912-17.5049Q26.2207-13.0859 27.9297-7.56836ZM125.293 21.9727L134.424-7.56836Q136.182-13.0859 133.887-17.5049Q131.592-21.9238 126.074-23.6328Q120.557-25.3418 116.187-23.0713Q111.816-20.8008 110.107-15.332L100.928 14.209Q99.1699 19.7754 101.465 24.1699Q103.76 28.5645 109.229 30.2734Q114.795 31.9824 119.165 29.7119Q123.535 27.4414 125.293 21.9727Z"/>
  </g>
  <g id="Medium-L" transform="matrix(1 0 0 1 1666.14 1556)">
   <path d="M16.0645-32.8613Q16.0645-23.3398 17.8467-13.4766Q19.6289-3.61328 22.9248 5.81055Q26.2207 15.2344 30.8594 23.3398Q31.9824 25.3906 34.082 25.9277Q36.1816 26.4648 38.3301 25.293Q40.3809 24.1699 40.8936 22.0947Q41.4062 20.0195 40.1367 17.7734Q33.8379 6.25 30.4199-6.93359Q27.002-20.1172 27.002-32.8613Q27.002-45.8984 30.8105-56.5918Q34.6191-67.2852 41.6992-75Q48.7793-82.7148 58.5938-86.8652Q68.4082-91.0156 80.4199-91.0156Q92.3828-91.0156 102.222-86.8652Q112.061-82.7148 119.141-75Q126.221-67.2852 130.029-56.5918Q133.838-45.8984 133.838-32.8613Q133.838-20.1172 130.396-6.93359Q126.953 6.25 120.654 17.7734Q119.385 20.0195 119.897 22.0947Q120.41 24.1699 122.461 25.293Q124.609 26.4648 126.685 25.9277Q128.76 25.3906 129.932 23.3398Q134.57 15.2344 137.891 5.81055Q141.211-3.61328 142.993-13.4766Q144.775-23.3398 144.775-32.8613Q144.775-48.4375 140.21-61.1328Q135.645-73.8281 127.124-82.959Q118.604-92.0898 106.763-97.0215Q94.9219-101.953 80.4199-101.953Q65.8691-101.953 54.0527-97.0215Q42.2363-92.0898 33.7158-82.959Q25.1953-73.8281 20.6299-61.1328Q16.0645-48.4375 16.0645-32.8613ZM35.9375 21.6797Q37.5977 26.9531 41.7725 29.1504Q45.9473 31.3477 51.3672 29.7852Q56.6895 28.125 58.9111 23.877Q61.1328 19.6289 59.5215 14.3066L50.3418-15.7227Q48.6816-21.0449 44.4824-23.2666Q40.2832-25.4883 34.9121-23.8281Q29.5898-22.2656 27.3682-18.0176Q25.1465-13.7695 26.7578-8.39844ZM124.854 21.6797L134.033-8.39844Q135.645-13.7695 133.423-18.0176Q131.201-22.2656 125.879-23.8281Q120.459-25.4883 116.284-23.2666Q112.109-21.0449 110.498-15.7227L101.27 14.3066Q99.6582 19.6777 101.88 23.9014Q104.102 28.125 109.424 29.7852Q114.795 31.3477 118.994 29.1504Q123.193 26.9531 124.854 21.6797Z"/>
  </g>
  <g id="Regular-L" transform="matrix(1 0 0 1 1370.45 1556)">
   <path d="M16.0645-32.9102Q16.0645-23.4375 17.8223-13.6719Q19.5801-3.90625 22.8516 5.44434Q26.123 14.7949 30.7129 22.8516Q31.6895 24.5605 33.4229 25Q35.1562 25.4395 36.9629 24.4629Q38.6719 23.5352 39.0869 21.8018Q39.502 20.0684 38.4277 18.1641Q32.0801 6.54297 28.6133-6.7627Q25.1465-20.0684 25.1465-32.9102Q25.1465-46.1426 29.0283-57.0068Q32.9102-67.8711 40.0879-75.708Q47.2656-83.5449 57.2266-87.7686Q67.1875-91.9922 79.3945-91.9922Q91.5527-91.9922 101.538-87.7686Q111.523-83.5449 118.701-75.708Q125.879-67.8711 129.761-57.0068Q133.643-46.1426 133.643-32.9102Q133.643-20.0684 130.151-6.7627Q126.66 6.54297 120.312 18.1641Q119.238 20.0684 119.653 21.8018Q120.068 23.5352 121.777 24.4629Q123.584 25.4395 125.317 25Q127.051 24.5605 128.027 22.8516Q132.617 14.7949 135.913 5.44434Q139.209-3.90625 140.967-13.6719Q142.725-23.4375 142.725-32.9102Q142.725-48.291 138.232-60.8154Q133.74-73.3398 125.366-82.3486Q116.992-91.3574 105.347-96.2158Q93.7012-101.074 79.3945-101.074Q65.0879-101.074 53.4424-96.2158Q41.7969-91.3574 33.4229-82.3486Q25.0488-73.3398 20.5566-60.8154Q16.0645-48.291 16.0645-32.9102ZM34.4238 21.2402Q35.9863 26.3184 39.9414 28.4424Q43.8965 30.5664 49.0723 29.1016Q54.1992 27.5879 56.3477 23.5596Q58.4961 19.5312 56.9824 14.4043L47.8027-16.2598Q46.2402-21.3379 42.2852-23.4863Q38.3301-25.6348 33.1543-24.1211Q28.0762-22.6562 25.9033-18.6279Q23.7305-14.5996 25.2441-9.47266ZM124.316 21.2402L133.496-9.47266Q135.01-14.5996 132.861-18.6279Q130.713-22.6562 125.586-24.1211Q120.41-25.6348 116.455-23.4863Q112.5-21.3379 110.986-16.2598L101.758 14.4043Q100.244 19.5801 102.417 23.584Q104.59 27.5879 109.668 29.1016Q114.844 30.5664 118.799 28.4424Q122.754 26.3184 124.316 21.2402Z"/>
  </g>
  <g id="Light-L" transform="matrix(1 0 0 1 1074.84 1556)">
   <path d="M16.0645-32.666Q16.0645-23.291 17.7979-13.623Q19.5312-3.95508 22.7783 5.29785Q26.0254 14.5508 30.6152 22.5098Q31.2988 23.8281 32.6416 24.1455Q33.9844 24.4629 35.3516 23.7305Q36.6211 22.998 36.9141 21.7041Q37.207 20.4102 36.377 18.8965Q29.9805 7.17773 26.4648-6.27441Q22.9492-19.7266 22.9492-32.666Q22.9492-46.1426 26.9043-57.2021Q30.8594-68.2617 38.208-76.2451Q45.5566-84.2285 55.7129-88.5498Q65.8691-92.8711 78.3203-92.8711Q90.7227-92.8711 100.903-88.5498Q111.084-84.2285 118.408-76.2451Q125.732-68.2617 129.688-57.2021Q133.643-46.1426 133.643-32.666Q133.643-19.7266 130.103-6.27441Q126.562 7.17773 120.166 18.8965Q119.336 20.4102 119.653 21.7041Q119.971 22.998 121.24 23.7305Q122.607 24.4629 123.926 24.1455Q125.244 23.8281 125.977 22.5098Q130.518 14.5508 133.789 5.29785Q137.061-3.95508 138.794-13.623Q140.527-23.291 140.527-32.666Q140.527-47.8516 136.108-60.1807Q131.689-72.5098 123.486-81.3477Q115.283-90.1855 103.833-94.9707Q92.3828-99.7559 78.3203-99.7559Q64.209-99.7559 52.7588-94.9707Q41.3086-90.1855 33.1055-81.3477Q24.9023-72.5098 20.4834-60.1807Q16.0645-47.8516 16.0645-32.666ZM32.6172 20.8496Q34.082 25.4395 37.6465 27.3193Q41.2109 29.1992 45.9961 27.832Q50.6348 26.416 52.5635 22.7783Q54.4922 19.1406 53.0273 14.4531L43.6035-16.1621Q42.1387-20.8008 38.5742-22.6807Q35.0098-24.5605 30.2246-23.1445Q25.6348-21.7773 23.7061-18.1396Q21.7773-14.502 23.1934-9.81445ZM123.926 20.8496L133.398-9.81445Q134.766-14.502 132.861-18.1396Q130.957-21.7773 126.318-23.1445Q121.582-24.5605 117.993-22.6807Q114.404-20.8008 112.988-16.1621L103.516 14.4531Q102.1 19.1895 104.028 22.8027Q105.957 26.416 110.596 27.832Q115.332 29.1992 118.896 27.3193Q122.461 25.4395 123.926 20.8496Z"/>
  </g>
  <g id="Thin-L" transform="matrix(1 0 0 1 779.567 1556)">
   <path d="M16.0645-32.373Q16.0645-23.1445 17.7734-13.5986Q19.4824-4.05273 22.7051 5.07812Q25.9277 14.209 30.4199 22.1191Q30.8105 22.8516 31.5918 23.0225Q32.373 23.1934 33.2031 22.7539Q33.8867 22.3633 34.0332 21.582Q34.1797 20.8008 33.6914 19.873Q27.1973 8.00781 23.6328-5.61523Q20.0684-19.2383 20.0684-32.373Q20.0684-46.1426 24.1455-57.4707Q28.2227-68.7988 35.7422-76.9775Q43.2617-85.1562 53.6865-89.5752Q64.1113-93.9941 76.8555-93.9941Q89.5996-93.9941 100.024-89.5752Q110.449-85.1562 117.969-76.9775Q125.488-68.7988 129.565-57.4707Q133.643-46.1426 133.643-32.373Q133.643-19.2383 130.054-5.61523Q126.465 8.00781 120.02 19.873Q119.482 20.8008 119.629 21.582Q119.775 22.3633 120.459 22.7539Q121.289 23.1934 122.07 23.0225Q122.852 22.8516 123.242 22.1191Q127.783 14.209 131.006 5.07812Q134.229-4.05273 135.938-13.5986Q137.646-23.1445 137.646-32.373Q137.646-47.2168 133.35-59.3018Q129.053-71.3867 121.021-80.0293Q112.988-88.6719 101.807-93.335Q90.625-97.998 76.8555-97.998Q63.0859-97.998 51.9043-93.335Q40.7227-88.6719 32.6904-80.0293Q24.6582-71.3867 20.3613-59.3018Q16.0645-47.2168 16.0645-32.373ZM30.2734 20.3125Q31.5918 24.3164 34.6436 25.8789Q37.6953 27.4414 41.8945 26.1719Q45.8984 24.9023 47.5098 21.7529Q49.1211 18.6035 47.8516 14.502L38.0371-16.0156Q36.7676-20.0195 33.6914-21.6064Q30.6152-23.1934 26.416-21.875Q22.4609-20.6055 20.8252-17.4805Q19.1895-14.3555 20.5078-10.2539ZM123.389 20.3125L133.203-10.2539Q134.473-14.3555 132.861-17.4805Q131.25-20.6055 127.295-21.875Q123.096-23.1934 120.02-21.6064Q116.943-20.0195 115.674-16.0156L105.859 14.502Q104.541 18.6523 106.177 21.7773Q107.812 24.9023 111.768 26.1719Q115.967 27.4414 119.019 25.8789Q122.07 24.3164 123.389 20.3125Z"/>
  </g>
  <g id="Ultralight-L" transform="matrix(1 0 0 1 483.612 1556)">
   <path d="M16.0645-32.2266Q16.0645-23.0469 17.749-13.5742Q19.4336-4.10156 22.6318 4.95605Q25.8301 14.0137 30.3711 21.875Q30.5664 22.3145 31.0791 22.4121Q31.5918 22.5098 32.0801 22.2168Q32.5195 21.9727 32.5928 21.5088Q32.666 21.0449 32.2754 20.4102Q25.7812 8.44727 22.168-5.29785Q18.5547-19.043 18.5547-32.2266Q18.5547-46.1426 22.6807-57.5928Q26.8066-69.043 34.4482-77.3438Q42.0898-85.6445 52.6367-90.1123Q63.1836-94.5801 76.123-94.5801Q89.0137-94.5801 99.585-90.1123Q110.156-85.6445 117.773-77.3438Q125.391-69.043 129.517-57.5928Q133.643-46.1426 133.643-32.2266Q133.643-19.043 130.029-5.29785Q126.416 8.44727 119.922 20.4102Q119.58 21.0449 119.653 21.5088Q119.727 21.9727 120.117 22.2168Q120.654 22.5098 121.143 22.4121Q121.631 22.3145 121.875 21.875Q126.367 14.0137 129.565 4.95605Q132.764-4.10156 134.448-13.5742Q136.133-23.0469 136.133-32.2266Q136.133-46.9238 131.885-58.8623Q127.637-70.8008 119.727-79.3457Q111.816-87.8906 100.757-92.4805Q89.6973-97.0703 76.123-97.0703Q62.5-97.0703 51.4404-92.4805Q40.3809-87.8906 32.4707-79.3457Q24.5605-70.8008 20.3125-58.8623Q16.0645-46.9238 16.0645-32.2266ZM29.0527 20.0195Q30.3223 23.7305 33.1055 25.1221Q35.8887 26.5137 39.7949 25.293Q43.5059 24.0723 44.9707 21.2158Q46.4355 18.3594 45.166 14.5508L35.1562-15.918Q33.9844-19.6777 31.1523-21.0693Q28.3203-22.4609 24.4141-21.1914Q20.8008-20.0195 19.3359-17.1387Q17.8711-14.2578 19.0918-10.4492ZM123.145 20.0195L133.154-10.4492Q134.326-14.2578 132.861-17.1387Q131.396-20.0195 127.783-21.1914Q123.877-22.4609 121.045-21.0693Q118.213-19.6777 117.041-15.918L107.031 14.5508Q105.762 18.3594 107.251 21.2158Q108.74 24.0723 112.402 25.293Q116.309 26.5137 119.092 25.1221Q121.875 23.7305 123.145 20.0195Z"/>
  </g>
  <g id="Black-M" transform="matrix(1 0 0 1 2866.7 1126)">
   <path d="M12.4512-33.1543Q12.4512-25.4883 13.8916-17.4805Q15.332-9.47266 18.0176-1.83105Q20.7031 5.81055 24.4141 12.3535Q26.1719 15.332 29.2969 16.1865Q32.4219 17.041 35.498 15.332Q38.5254 13.6719 39.3555 10.498Q40.1855 7.32422 38.4277 4.19922Q33.7402-4.3457 31.2256-14.0137Q28.7109-23.6816 28.7109-33.1543Q28.7109-42.4316 31.4209-50Q34.1309-57.5684 39.1357-63.0127Q44.1406-68.457 51.1475-71.3867Q58.1543-74.3164 66.6992-74.3164Q75.2441-74.3164 82.251-71.3867Q89.2578-68.457 94.2627-63.0127Q99.2676-57.5684 101.978-50Q104.688-42.4316 104.688-33.1543Q104.688-23.6816 102.173-14.0137Q99.6582-4.3457 94.9707 4.19922Q93.2129 7.32422 94.043 10.498Q94.873 13.6719 97.9004 15.332Q100.977 17.041 104.102 16.1865Q107.227 15.332 108.984 12.3535Q112.744 5.81055 115.405-1.83105Q118.066-9.47266 119.507-17.4805Q120.947-25.4883 120.947-33.1543Q120.947-46.0449 117.09-56.6162Q113.232-67.1875 106.055-74.7803Q98.877-82.373 88.8916-86.4746Q78.9062-90.5762 66.6992-90.5762Q54.4922-90.5762 44.5068-86.4746Q34.5215-82.373 27.3438-74.7803Q20.166-67.1875 16.3086-56.6162Q12.4512-46.0449 12.4512-33.1543ZM34.2285 10.6934Q35.9863 15.6738 40.1855 17.6514Q44.3848 19.6289 49.4141 17.8711Q54.4434 16.0645 56.3965 11.8652Q58.3496 7.66602 56.5918 2.68555L49.4141-17.5781Q47.6562-22.5586 43.4814-24.5361Q39.3066-26.5137 34.2773-24.8047Q29.248-22.998 27.2705-18.7988Q25.293-14.5996 27.0996-9.57031ZM99.1699 10.6934L106.299-9.57031Q108.105-14.5996 106.128-18.7988Q104.15-22.998 99.1211-24.8047Q94.0918-26.5137 89.917-24.5361Q85.7422-22.5586 83.9844-17.5781L76.8066 2.68555Q75.0488 7.66602 77.002 11.8652Q78.9551 16.0645 83.9844 17.8711Q89.0137 19.6289 93.2129 17.6514Q97.4121 15.6738 99.1699 10.6934Z"/>
  </g>
  <g id="Heavy-M" transform="matrix(1 0 0 1 2571.06 1126)">
   <path d="M12.4512-33.252Q12.4512-25.6348 13.8672-17.7246Q15.2832-9.81445 17.9443-2.24609Q20.6055 5.32227 24.2676 11.7676Q25.8301 14.4531 28.5889 15.1855Q31.3477 15.918 34.082 14.4043Q36.7676 12.9395 37.5 10.1318Q38.2324 7.32422 36.6699 4.54102Q31.9336-4.10156 29.3945-13.8916Q26.8555-23.6816 26.8555-33.252Q26.8555-42.7246 29.6143-50.4639Q32.373-58.2031 37.4756-63.7695Q42.5781-69.3359 49.7314-72.3389Q56.8848-75.3418 65.625-75.3418Q74.3652-75.3418 81.4941-72.3389Q88.623-69.3359 93.75-63.7695Q98.877-58.2031 101.66-50.4639Q104.443-42.7246 104.443-33.252Q104.443-23.6816 101.88-13.8916Q99.3164-4.10156 94.5801 4.54102Q93.0176 7.32422 93.75 10.1318Q94.4824 12.9395 97.1191 14.4043Q99.9023 15.918 102.661 15.1855Q105.42 14.4531 106.934 11.7676Q110.693 5.32227 113.33-2.24609Q115.967-9.81445 117.383-17.7246Q118.799-25.6348 118.799-33.252Q118.799-45.9473 115.015-56.3477Q111.23-66.748 104.199-74.2188Q97.168-81.6895 87.3779-85.7178Q77.5879-89.7461 65.625-89.7461Q53.6621-89.7461 43.8721-85.7178Q34.082-81.6895 27.0508-74.2188Q20.0195-66.748 16.2354-56.3477Q12.4512-45.9473 12.4512-33.252ZM32.7148 10.2539Q34.3262 15.0391 38.3057 16.9678Q42.2852 18.8965 47.168 17.2852Q52.002 15.625 53.9062 11.6211Q55.8105 7.61719 54.1992 2.83203L47.0703-18.3105Q45.4102-23.0957 41.4551-25.0244Q37.5-26.9531 32.6172-25.3906Q27.7832-23.6816 25.8545-19.7021Q23.9258-15.7227 25.5859-10.8398ZM98.5352 10.2539L105.664-10.8398Q107.324-15.7227 105.396-19.7021Q103.467-23.6816 98.584-25.3906Q93.75-26.9531 89.7949-25.0244Q85.8398-23.0957 84.1797-18.3105L77.0508 2.83203Q75.4395 7.61719 77.3438 11.6211Q79.248 15.625 84.082 17.2852Q88.9648 18.8965 92.9443 16.9678Q96.9238 15.0391 98.5352 10.2539Z"/>
  </g>
  <g id="Bold-M" transform="matrix(1 0 0 1 2275.55 1126)">
   <path d="M12.4512-33.3496Q12.4512-25.8301 13.8672-18.0176Q15.2832-10.2051 17.8955-2.73438Q20.5078 4.73633 24.1699 11.1816Q25.4883 13.4277 27.832 14.0625Q30.1758 14.6973 32.5684 13.3789Q34.8633 12.1582 35.4492 9.76562Q36.0352 7.37305 34.7168 4.98047Q29.9316-3.80859 27.3438-13.7451Q24.7559-23.6816 24.7559-33.3496Q24.7559-43.0664 27.5879-51.001Q30.4199-58.9355 35.6445-64.6484Q40.8691-70.3613 48.1934-73.4375Q55.5176-76.5137 64.4531-76.5137Q73.3398-76.5137 80.6641-73.4375Q87.9883-70.3613 93.2373-64.6484Q98.4863-58.9355 101.318-51.001Q104.15-43.0664 104.15-33.3496Q104.15-23.6816 101.538-13.7451Q98.9258-3.80859 94.1406 4.98047Q92.8223 7.37305 93.4082 9.76562Q93.9941 12.1582 96.2891 13.3789Q98.6816 14.6973 101.025 14.0625Q103.369 13.4277 104.688 11.1816Q108.35 4.73633 110.986-2.73438Q113.623-10.2051 115.015-18.0176Q116.406-25.8301 116.406-33.3496Q116.406-45.8496 112.72-56.0547Q109.033-66.2598 102.148-73.584Q95.2637-80.9082 85.6934-84.8633Q76.123-88.8184 64.4531-88.8184Q52.7344-88.8184 43.1641-84.8633Q33.5938-80.9082 26.7334-73.584Q19.873-66.2598 16.1621-56.0547Q12.4512-45.8496 12.4512-33.3496ZM31.0059 9.7168Q32.4707 14.3066 36.2305 16.2109Q39.9902 18.1152 44.6289 16.6016Q49.2676 15.0879 51.1475 11.3281Q53.0273 7.56836 51.5137 2.97852L44.4336-19.0918Q42.9199-23.6816 39.1846-25.5615Q35.4492-27.4414 30.8105-26.0254Q26.1719-24.5117 24.292-20.7275Q22.4121-16.9434 23.9258-12.3047ZM97.8516 9.7168L104.932-12.3047Q106.445-16.9922 104.565-20.752Q102.686-24.5117 98.0469-26.0254Q93.4082-27.4414 89.6729-25.5615Q85.9375-23.6816 84.4238-19.0918L77.3438 2.97852Q75.8301 7.56836 77.7344 11.3281Q79.6387 15.0879 84.2285 16.6016Q88.8672 18.1152 92.627 16.2109Q96.3867 14.3066 97.8516 9.7168Z"/>
  </g>
  <g id="Semibold-M" transform="matrix(1 0 0 1 1979.67 1126)">
   <path d="M12.4512-33.3984Q12.4512-25.9766 13.8428-18.2129Q15.2344-10.4492 17.8467-3.05176Q20.459 4.3457 24.0234 10.7422Q25.1953 12.7441 27.2705 13.3057Q29.3457 13.8672 31.4453 12.6465Q33.4961 11.5723 34.0088 9.47266Q34.5215 7.37305 33.3496 5.22461Q28.5156-3.56445 25.9033-13.623Q23.291-23.6816 23.291-33.3984Q23.291-43.3105 26.1719-51.3672Q29.0527-59.4238 34.375-65.2344Q39.6973-71.0449 47.1191-74.1699Q54.541-77.2949 63.623-77.2949Q72.6562-77.2949 80.0781-74.1699Q87.5-71.0449 92.8223-65.2344Q98.1445-59.4238 101.025-51.3672Q103.906-43.3105 103.906-33.3984Q103.906-23.6816 101.294-13.623Q98.6816-3.56445 93.8477 5.22461Q92.627 7.37305 93.1396 9.47266Q93.6523 11.5723 95.7031 12.6465Q97.8027 13.8672 99.8779 13.3057Q101.953 12.7441 103.125 10.7422Q106.738 4.3457 109.351-3.05176Q111.963-10.4492 113.354-18.2129Q114.746-25.9766 114.746-33.3984Q114.746-45.752 111.108-55.8105Q107.471-65.8691 100.708-73.0957Q93.9453-80.3223 84.5215-84.2285Q75.0977-88.1348 63.623-88.1348Q52.0508-88.1348 42.627-84.2285Q33.2031-80.3223 26.4648-73.0957Q19.7266-65.8691 16.0889-55.8105Q12.4512-45.752 12.4512-33.3984ZM29.7852 9.375Q31.2012 13.8184 34.79 15.6738Q38.3789 17.5293 42.8711 16.1621Q47.3633 14.7461 49.2188 11.1328Q51.0742 7.51953 49.6094 3.07617L42.5781-19.6289Q41.2109-24.0723 37.6221-25.9277Q34.0332-27.7832 29.541-26.416Q25.0488-25.0488 23.1934-21.4111Q21.3379-17.7734 22.7539-13.2812ZM97.3633 9.375L104.395-13.2812Q105.859-17.8223 103.979-21.4355Q102.1-25.0488 97.6074-26.416Q93.1152-27.7832 89.5508-25.9277Q85.9863-24.0723 84.5703-19.6289L77.5391 3.07617Q76.123 7.51953 77.9785 11.1328Q79.834 14.7461 84.3262 16.1621Q88.8184 17.5293 92.4072 15.6738Q95.9961 13.8184 97.3633 9.375Z"/>
  </g>
  <g id="Medium-M" transform="matrix(1 0 0 1 1683.59 1126)">
   <path d="M12.4512-33.4961Q12.4512-26.0254 13.8428-18.335Q15.2344-10.6445 17.7979-3.2959Q20.3613 4.05273 23.9746 10.4004Q25 12.207 26.8799 12.6953Q28.7598 13.1836 30.6641 12.1094Q32.4707 11.1328 32.9346 9.27734Q33.3984 7.42188 32.3242 5.41992Q27.4414-3.41797 24.8047-13.5498Q22.168-23.6816 22.168-33.4961Q22.168-43.457 25.0977-51.6357Q28.0273-59.8145 33.3984-65.6982Q38.7695-71.582 46.2891-74.7559Q53.8086-77.9297 62.9883-77.9297Q72.1191-77.9297 79.6387-74.7559Q87.1582-71.582 92.5537-65.6982Q97.9492-59.8145 100.854-51.6357Q103.76-43.457 103.76-33.4961Q103.76-23.6816 101.099-13.5498Q98.4375-3.41797 93.6035 5.41992Q92.5293 7.42188 92.9688 9.27734Q93.4082 11.1328 95.2637 12.1094Q97.168 13.1836 99.0234 12.6953Q100.879 12.207 101.953 10.4004Q105.518 4.05273 108.13-3.2959Q110.742-10.6445 112.109-18.335Q113.477-26.0254 113.477-33.4961Q113.477-45.7031 109.888-55.6641Q106.299-65.625 99.6338-72.7783Q92.9688-79.9316 83.667-83.7891Q74.3652-87.6465 62.9883-87.6465Q51.5625-87.6465 42.2607-83.7891Q32.959-79.9316 26.2939-72.7783Q19.6289-65.625 16.04-55.6641Q12.4512-45.7031 12.4512-33.4961ZM28.9062 9.08203Q30.2246 13.4277 33.6914 15.2588Q37.1582 17.0898 41.5039 15.7715Q45.8984 14.4531 47.7295 10.9619Q49.5605 7.4707 48.2422 3.125L41.2109-20.0684Q39.8926-24.4141 36.4258-26.2207Q32.959-28.0273 28.6133-26.7578Q24.2188-25.4395 22.3633-21.9482Q20.5078-18.457 21.875-14.0625ZM97.0215 9.08203L104.004-14.0625Q105.371-18.5059 103.54-21.9727Q101.709-25.4395 97.3145-26.7578Q92.9199-28.0273 89.4775-26.2207Q86.0352-24.4141 84.7168-20.0684L77.6855 3.125Q76.3184 7.51953 78.1738 10.9863Q80.0293 14.4531 84.375 15.7715Q88.7695 17.0898 92.2363 15.2588Q95.7031 13.4277 97.0215 9.08203Z"/>
  </g>
  <g id="Regular-M" transform="matrix(1 0 0 1 1387.69 1126)">
   <path d="M12.4512-33.5449Q12.4512-26.1719 13.8184-18.5303Q15.1855-10.8887 17.749-3.61328Q20.3125 3.66211 23.877 9.96094Q24.7559 11.5234 26.3428 11.9385Q27.9297 12.3535 29.5898 11.4258Q31.1523 10.5957 31.5186 9.00879Q31.8848 7.42188 30.957 5.71289Q26.0742-3.22266 23.4131-13.4521Q20.752-23.6816 20.752-33.5449Q20.752-43.7012 23.7061-52.002Q26.6602-60.3027 32.1289-66.2842Q37.5977-72.2656 45.2148-75.4883Q52.832-78.7109 62.1582-78.7109Q71.4355-78.7109 79.0527-75.4883Q86.6699-72.2656 92.1631-66.2842Q97.6562-60.3027 100.61-52.002Q103.564-43.7012 103.564-33.5449Q103.564-23.6816 100.879-13.4521Q98.1934-3.22266 93.3105 5.71289Q92.3828 7.42188 92.749 9.00879Q93.1152 10.5957 94.6777 11.4258Q96.3379 12.3535 97.9248 11.9385Q99.5117 11.5234 100.391 9.96094Q103.955 3.66211 106.543-3.61328Q109.131-10.8887 110.498-18.5303Q111.865-26.1719 111.865-33.5449Q111.865-45.6055 108.325-55.4443Q104.785-65.2832 98.2178-72.3389Q91.6504-79.3945 82.4951-83.2031Q73.3398-87.0117 62.1582-87.0117Q50.9277-87.0117 41.7725-83.2031Q32.6172-79.3945 26.0742-72.3389Q19.5312-65.2832 15.9912-55.4443Q12.4512-45.6055 12.4512-33.5449ZM27.7344 8.74023Q28.9551 12.9395 32.251 14.7461Q35.5469 16.5527 39.7949 15.332Q44.043 14.1113 45.8496 10.7666Q47.6562 7.42188 46.3867 3.22266L39.4043-20.6055Q38.1836-24.8047 34.8877-26.5869Q31.5918-28.3691 27.3438-27.1973Q23.0957-25.9766 21.2891-22.6318Q19.4824-19.2871 20.752-15.0391ZM96.5332 8.74023L103.516-15.0391Q104.785-19.3359 102.979-22.6562Q101.172-25.9766 96.9238-27.1973Q92.6758-28.3691 89.3799-26.5869Q86.084-24.8047 84.8633-20.6055L77.8809 3.22266Q76.6113 7.4707 78.4424 10.791Q80.2734 14.1113 84.4727 15.332Q88.7207 16.5527 92.0166 14.7461Q95.3125 12.9395 96.5332 8.74023Z"/>
  </g>
  <g id="Light-M" transform="matrix(1 0 0 1 1091.95 1126)">
   <path d="M12.4512-33.3496Q12.4512-26.0742 13.7939-18.5059Q15.1367-10.9375 17.6758-3.75977Q20.2148 3.41797 23.7793 9.66797Q24.4141 10.8398 25.6348 11.1572Q26.8555 11.4746 28.125 10.791Q29.2969 10.1562 29.5654 8.93555Q29.834 7.71484 29.1016 6.39648Q24.1699-2.63672 21.4844-12.9883Q18.7988-23.3398 18.7988-33.3496Q18.7988-43.7012 21.8262-52.1729Q24.8535-60.6445 30.4443-66.7725Q36.0352-72.9004 43.8477-76.1963Q51.6602-79.4922 61.1816-79.4922Q70.7031-79.4922 78.4912-76.1963Q86.2793-72.9004 91.8945-66.7725Q97.5098-60.6445 100.537-52.1729Q103.564-43.7012 103.564-33.3496Q103.564-23.3398 100.854-12.9883Q98.1445-2.63672 93.2129 6.39648Q92.4805 7.71484 92.749 8.93555Q93.0176 10.1562 94.1895 10.791Q95.459 11.4746 96.6797 11.1572Q97.9004 10.8398 98.5352 9.66797Q102.1 3.41797 104.639-3.75977Q107.178-10.9375 108.545-18.5059Q109.912-26.0742 109.912-33.3496Q109.912-45.2148 106.445-54.8584Q102.979-64.502 96.5332-71.4355Q90.0879-78.3691 81.1279-82.1045Q72.168-85.8398 61.1816-85.8398Q50.1465-85.8398 41.1865-82.1045Q32.2266-78.3691 25.8057-71.4355Q19.3848-64.502 15.918-54.8584Q12.4512-45.2148 12.4512-33.3496ZM26.123 8.39844Q27.2461 12.1582 30.2002 13.7451Q33.1543 15.332 37.0117 14.209Q40.8203 13.0859 42.4316 10.083Q44.043 7.08008 42.8711 3.27148L35.6445-20.5078Q34.5215-24.2676 31.5674-25.8301Q28.6133-27.3926 24.7559-26.3184Q20.9473-25.1953 19.3359-22.1924Q17.7246-19.1895 18.8965-15.332ZM96.1914 8.39844L103.418-15.332Q104.59-19.2383 102.979-22.2168Q101.367-25.1953 97.5586-26.3184Q93.7012-27.3926 90.7471-25.8301Q87.793-24.2676 86.6699-20.5078L79.4434 3.27148Q78.2715 7.12891 79.8828 10.1074Q81.4941 13.0859 85.3027 14.209Q89.1602 15.332 92.1143 13.7451Q95.0684 12.1582 96.1914 8.39844Z"/>
  </g>
  <g id="Thin-M" transform="matrix(1 0 0 1 796.559 1126)">
   <path d="M12.4512-33.1055Q12.4512-25.8789 13.7939-18.457Q15.1367-11.0352 17.627-3.95508Q20.1172 3.125 23.6328 9.27734Q23.9746 9.96094 24.707 10.1318Q25.4395 10.3027 26.2207 9.91211Q26.8555 9.52148 27.002 8.81348Q27.1484 8.10547 26.6602 7.27539Q21.6797-1.9043 18.9209-12.4268Q16.1621-22.9492 16.1621-33.1055Q16.1621-43.7012 19.3115-52.417Q22.4609-61.1328 28.2471-67.4316Q34.0332-73.7305 42.041-77.124Q50.0488-80.5176 59.8633-80.5176Q69.6777-80.5176 77.71-77.124Q85.7422-73.7305 91.5283-67.4316Q97.3145-61.1328 100.439-52.417Q103.564-43.7012 103.564-33.1055Q103.564-22.9492 100.806-12.4268Q98.0469-1.9043 93.0176 7.27539Q92.5781 8.10547 92.7246 8.81348Q92.8711 9.52148 93.5059 9.91211Q94.2871 10.3027 95.0195 10.1318Q95.752 9.96094 96.0938 9.27734Q99.6094 3.125 102.124-3.95508Q104.639-11.0352 105.957-18.457Q107.275-25.8789 107.275-33.1055Q107.275-44.6777 103.931-54.0771Q100.586-63.4766 94.3359-70.2393Q88.0859-77.002 79.3457-80.6152Q70.6055-84.2285 59.8633-84.2285Q49.1211-84.2285 40.4053-80.6152Q31.6895-77.002 25.4395-70.2393Q19.1895-63.4766 15.8203-54.0771Q12.4512-44.6777 12.4512-33.1055ZM23.9746 7.91016Q25 11.1328 27.4902 12.4268Q29.9805 13.7207 33.3496 12.6953Q36.5723 11.6699 37.915 9.13086Q39.2578 6.5918 38.1836 3.27148L30.6641-20.3613Q29.6387-23.6328 27.1484-24.9023Q24.6582-26.1719 21.2891-25.1465Q18.0664-24.1699 16.748-21.6309Q15.4297-19.0918 16.4551-15.7227ZM95.7031 7.91016L103.271-15.7227Q104.297-19.0918 102.979-21.6309Q101.66-24.1699 98.4375-25.1465Q95.0684-26.1719 92.5781-24.9023Q90.0879-23.6328 89.0625-20.3613L81.543 3.27148Q80.4688 6.64062 81.8115 9.15527Q83.1543 11.6699 86.377 12.6953Q89.7461 13.7207 92.2363 12.4268Q94.7266 11.1328 95.7031 7.91016Z"/>
  </g>
  <g id="Ultralight-M" transform="matrix(1 0 0 1 500.507 1126)">
   <path d="M12.4512-32.959Q12.4512-25.8301 13.7695-18.457Q15.0879-11.084 17.5537-4.05273Q20.0195 2.97852 23.5352 9.08203Q23.7793 9.52148 24.2432 9.61914Q24.707 9.7168 25.2441 9.47266Q25.6348 9.22852 25.6836 8.76465Q25.7324 8.30078 25.4395 7.71484Q20.4102-1.51367 17.627-12.1094Q14.8438-22.7051 14.8438-32.959Q14.8438-43.7012 18.0176-52.5391Q21.1914-61.377 27.0752-67.749Q32.959-74.1211 41.1133-77.5635Q49.2676-81.0059 59.2285-81.0059Q69.1895-81.0059 77.3193-77.5635Q85.4492-74.1211 91.333-67.749Q97.2168-61.377 100.391-52.5391Q103.564-43.7012 103.564-32.959Q103.564-22.7051 100.781-12.1094Q97.998-1.51367 92.9688 7.71484Q92.6758 8.30078 92.7246 8.76465Q92.7734 9.22852 93.1641 9.47266Q93.7012 9.7168 94.165 9.61914Q94.6289 9.52148 94.873 9.08203Q98.3887 2.97852 100.854-4.05273Q103.32-11.084 104.639-18.457Q105.957-25.8301 105.957-32.959Q105.957-44.3848 102.637-53.6865Q99.3164-62.9883 93.1641-69.6533Q87.0117-76.3184 78.3936-79.8828Q69.7754-83.4473 59.2285-83.4473Q48.6328-83.4473 40.0146-79.8828Q31.3965-76.3184 25.2441-69.6533Q19.0918-62.9883 15.7715-53.6865Q12.4512-44.3848 12.4512-32.959ZM22.8516 7.66602Q23.877 10.6445 26.123 11.7676Q28.3691 12.8906 31.4941 11.9141Q34.4238 10.9863 35.6201 8.69141Q36.8164 6.39648 35.791 3.32031L28.125-20.2637Q27.1484-23.2422 24.9023-24.3652Q22.6562-25.4883 19.5312-24.5605Q16.6016-23.6328 15.4297-21.3135Q14.2578-18.9941 15.2344-15.9668ZM95.5078 7.66602L103.174-15.9668Q104.15-18.9941 102.979-21.3135Q101.807-23.6328 98.877-24.5605Q95.752-25.4883 93.5059-24.3652Q91.2598-23.2422 90.2832-20.2637L82.6172 3.32031Q81.5918 6.39648 82.7881 8.69141Q83.9844 10.9863 86.9141 11.9141Q90.0391 12.8906 92.2852 11.7676Q94.5312 10.6445 95.5078 7.66602Z"/>
  </g>
  <g id="Black-S" transform="matrix(1 0 0 1 2880.86 696)">
   <path d="M9.76562-33.5449Q9.76562-24.5605 12.2559-15.0391Q14.7461-5.51758 19.1895 2.19727Q20.6055 4.58984 23.1445 5.29785Q25.6836 6.00586 28.1738 4.63867Q30.6152 3.27148 31.2988 0.708008Q31.9824-1.85547 30.5664-4.39453Q26.9043-11.084 24.9268-18.6279Q22.9492-26.1719 22.9492-33.5449Q22.9492-43.1641 26.6357-50.3662Q30.3223-57.5684 36.9873-61.5723Q43.6523-65.5762 52.5391-65.5762Q61.4258-65.5762 68.0908-61.5723Q74.7559-57.5684 78.4424-50.3662Q82.1289-43.1641 82.1289-33.5449Q82.1289-26.1719 80.1514-18.6279Q78.1738-11.084 74.5117-4.39453Q73.1445-1.85547 73.8037 0.708008Q74.4629 3.27148 76.9043 4.63867Q79.3945 6.00586 81.958 5.29785Q84.5215 4.58984 85.8887 2.19727Q90.332-5.51758 92.8223-15.0391Q95.3125-24.5605 95.3125-33.5449Q95.3125-47.1191 89.9658-57.2998Q84.6191-67.4805 75-73.1201Q65.3809-78.7598 52.5391-78.7598Q39.6973-78.7598 30.0781-73.1201Q20.459-67.4805 15.1123-57.2998Q9.76562-47.1191 9.76562-33.5449ZM27.1973 0.878906Q28.6133 4.78516 31.9336 6.32324Q35.2539 7.86133 39.2578 6.49414Q43.2129 5.0293 44.751 1.70898Q46.2891-1.61133 44.873-5.56641L39.209-21.1914Q37.8418-25.0977 34.5215-26.6602Q31.2012-28.2227 27.1973-26.8555Q23.2422-25.3906 21.7041-22.0703Q20.166-18.75 21.582-14.7461ZM77.8809 0.878906L83.4961-14.7461Q84.9121-18.75 83.374-22.0703Q81.8359-25.3906 77.8809-26.8555Q73.877-28.2227 70.5811-26.6602Q67.2852-25.0977 65.8691-21.1914L60.2051-5.56641Q58.7891-1.61133 60.3271 1.70898Q61.8652 5.0293 65.8203 6.49414Q69.8242 7.86133 73.1445 6.32324Q76.4648 4.78516 77.8809 0.878906Z"/>
  </g>
  <g id="Heavy-S" transform="matrix(1 0 0 1 2584.93 696)">
   <path d="M9.76562-33.6426Q9.76562-24.7559 12.2314-15.332Q14.6973-5.9082 19.0918 1.75781Q20.3613 3.90625 22.6318 4.54102Q24.9023 5.17578 27.1484 3.95508Q29.3457 2.68555 29.9561 0.415039Q30.5664-1.85547 29.2969-4.19922Q25.5859-10.9375 23.584-18.5791Q21.582-26.2207 21.582-33.6426Q21.582-43.457 25.3418-50.8301Q29.1016-58.2031 35.8887-62.2803Q42.6758-66.3574 51.7578-66.3574Q60.791-66.3574 67.5781-62.2803Q74.3652-58.2031 78.125-50.8301Q81.8848-43.457 81.8848-33.6426Q81.8848-26.2207 79.8828-18.5791Q77.8809-10.9375 74.2188-4.19922Q72.9492-1.85547 73.5352 0.415039Q74.1211 2.68555 76.3184 3.95508Q78.5645 5.17578 80.8594 4.54102Q83.1543 3.90625 84.375 1.75781Q88.7695-5.9082 91.2598-15.332Q93.75-24.7559 93.75-33.6426Q93.75-47.0215 88.501-57.0557Q83.252-67.0898 73.8037-72.6318Q64.3555-78.1738 51.7578-78.1738Q39.1113-78.1738 29.6875-72.6318Q20.2637-67.0898 15.0146-57.0557Q9.76562-47.0215 9.76562-33.6426ZM26.0742 0.537109Q27.3926 4.3457 30.5908 5.88379Q33.7891 7.42188 37.6465 6.10352Q41.5039 4.78516 43.042 1.58691Q44.5801-1.61133 43.2617-5.46875L37.6953-21.8262Q36.377-25.6348 33.2031-27.1729Q30.0293-28.7109 26.123-27.4414Q22.2656-26.0742 20.7275-22.876Q19.1895-19.6777 20.5566-15.8203ZM77.3926 0.537109L82.959-15.8203Q84.2773-19.7266 82.7393-22.9004Q81.2012-26.0742 77.3438-27.4414Q73.4863-28.7109 70.3125-27.1729Q67.1387-25.6348 65.8203-21.8262L60.2051-5.46875Q58.8867-1.61133 60.4248 1.58691Q61.9629 4.78516 65.8203 6.10352Q69.7266 7.42188 72.9004 5.88379Q76.0742 4.3457 77.3926 0.537109Z"/>
  </g>
  <g id="Bold-S" transform="matrix(1 0 0 1 2289.1 696)">
   <path d="M9.76562-33.7891Q9.76562-24.9512 12.207-15.6494Q14.6484-6.34766 18.9941 1.26953Q20.1172 3.17383 22.0947 3.71094Q24.0723 4.24805 26.0254 3.17383Q27.9785 2.09961 28.4912 0.0976562Q29.0039-1.9043 27.8809-3.95508Q24.1211-10.791 22.1191-18.5303Q20.1172-26.2695 20.1172-33.7891Q20.1172-43.8477 23.9502-51.3672Q27.7832-58.8867 34.7168-63.0615Q41.6504-67.2363 50.8789-67.2363Q60.1074-67.2363 67.041-63.0615Q73.9746-58.8867 77.8076-51.3672Q81.6406-43.8477 81.6406-33.7891Q81.6406-26.2695 79.6143-18.5303Q77.5879-10.791 73.877-3.95508Q72.7539-1.9043 73.2666 0.0976562Q73.7793 2.09961 75.6836 3.17383Q77.6855 4.24805 79.6631 3.71094Q81.6406 3.17383 82.7148 1.26953Q87.0605-6.34766 89.5264-15.6494Q91.9922-24.9512 91.9922-33.7891Q91.9922-46.9238 86.8408-56.7871Q81.6895-66.6504 72.4609-72.1191Q63.2324-77.5879 50.8789-77.5879Q38.5254-77.5879 29.2725-72.1191Q20.0195-66.6504 14.8926-56.7871Q9.76562-46.9238 9.76562-33.7891ZM24.8535 0.146484Q26.0742 3.85742 29.1016 5.37109Q32.1289 6.88477 35.8887 5.71289Q39.6484 4.49219 41.1865 1.44043Q42.7246-1.61133 41.5039-5.37109L35.9863-22.5098Q34.7656-26.2207 31.7383-27.7588Q28.7109-29.2969 24.9512-28.125Q21.2402-26.9043 19.7021-23.8281Q18.1641-20.752 19.3848-17.041ZM76.8555 0.146484L82.373-17.041Q83.5449-20.8008 82.0312-23.8525Q80.5176-26.9043 76.7578-28.125Q72.998-29.2969 69.9707-27.7588Q66.9434-26.2207 65.7715-22.5098L60.2539-5.37109Q59.0332-1.61133 60.5469 1.44043Q62.0605 4.49219 65.8203 5.71289Q69.5801 6.88477 72.6074 5.37109Q75.6348 3.85742 76.8555 0.146484Z"/>
  </g>
  <g id="Semibold-S" transform="matrix(1 0 0 1 1993 696)">
   <path d="M9.76562-33.8379Q9.76562-25.0488 12.1826-15.8447Q14.5996-6.64062 18.9453 0.878906Q19.9219 2.63672 21.6797 3.10059Q23.4375 3.56445 25.2441 2.58789Q27.002 1.66016 27.4414-0.12207Q27.8809-1.9043 26.8555-3.75977Q23.0957-10.6445 21.0693-18.457Q19.043-26.2695 19.043-33.8379Q19.043-44.043 22.9248-51.709Q26.8066-59.375 33.8379-63.5986Q40.8691-67.8223 50.2441-67.8223Q59.5703-67.8223 66.6016-63.5986Q73.6328-59.375 77.5391-51.709Q81.4453-44.043 81.4453-33.8379Q81.4453-26.2695 79.4189-18.457Q77.3926-10.6445 73.6328-3.75977Q72.5586-1.9043 73.0225-0.12207Q73.4863 1.66016 75.1953 2.58789Q77.0508 3.56445 78.833 3.10059Q80.6152 2.63672 81.543 0.878906Q85.8887-6.64062 88.3301-15.8447Q90.7715-25.0488 90.7715-33.8379Q90.7715-46.875 85.6934-56.5918Q80.6152-66.3086 71.5088-71.7285Q62.4023-77.1484 50.2441-77.1484Q38.0859-77.1484 28.9795-71.7285Q19.873-66.3086 14.8193-56.5918Q9.76562-46.875 9.76562-33.8379ZM24.0234-0.0976562Q25.1465 3.4668 28.0762 5.00488Q31.0059 6.54297 34.668 5.41992Q38.3301 4.29688 39.8682 1.34277Q41.4062-1.61133 40.2344-5.27344L34.7656-22.998Q33.6426-26.6113 30.7129-28.125Q27.7832-29.6387 24.1211-28.5645Q20.459-27.4414 18.9209-24.4629Q17.3828-21.4844 18.5547-17.8223ZM76.4648-0.0976562L81.9336-17.8223Q83.0566-21.5332 81.5186-24.4873Q79.9805-27.4414 76.3672-28.5645Q72.6562-29.6387 69.7266-28.125Q66.7969-26.6113 65.7227-22.998L60.2539-5.27344Q59.082-1.61133 60.5957 1.34277Q62.1094 4.29688 65.8203 5.41992Q69.4824 6.54297 72.4121 5.00488Q75.3418 3.4668 76.4648-0.0976562Z"/>
  </g>
  <g id="Medium-S" transform="matrix(1 0 0 1 1696.75 696)">
   <path d="M9.76562-33.8867Q9.76562-25.1465 12.1826-15.9912Q14.5996-6.83594 18.8477 0.634766Q19.7754 2.24609 21.3867 2.66113Q22.998 3.07617 24.6582 2.19727Q26.2695 1.31836 26.6602-0.317383Q27.0508-1.95312 26.123-3.61328Q22.3633-10.5469 20.3125-18.4082Q18.2617-26.2695 18.2617-33.8867Q18.2617-44.2383 22.1924-51.9775Q26.123-59.7168 33.2275-64.0137Q40.332-68.3105 49.7559-68.3105Q59.2285-68.3105 66.333-64.0137Q73.4375-59.7168 77.3926-51.9775Q81.3477-44.2383 81.3477-33.8867Q81.3477-26.2695 79.2725-18.4082Q77.1973-10.5469 73.4375-3.61328Q72.4609-1.95312 72.876-0.317383Q73.291 1.31836 74.8535 2.19727Q76.5625 3.07617 78.1738 2.66113Q79.7852 2.24609 80.6641 0.634766Q84.9609-6.83594 87.4023-15.9912Q89.8438-25.1465 89.8438-33.8867Q89.8438-46.7773 84.8389-56.4209Q79.834-66.0645 70.8252-71.4355Q61.8164-76.8066 49.7559-76.8066Q37.7441-76.8066 28.7354-71.4355Q19.7266-66.0645 14.7461-56.4209Q9.76562-46.7773 9.76562-33.8867ZM23.3398-0.341797Q24.4629 3.22266 27.2949 4.73633Q30.127 6.25 33.7402 5.22461Q37.3047 4.15039 38.8428 1.26953Q40.3809-1.61133 39.3066-5.22461L33.8867-23.3398Q32.8125-26.9043 29.9561-28.418Q27.0996-29.9316 23.5352-28.9062Q19.9219-27.832 18.3838-24.9268Q16.8457-22.0215 17.9199-18.457ZM76.2207-0.341797L81.5918-18.457Q82.666-22.0703 81.1523-24.9512Q79.6387-27.832 76.0254-28.9062Q72.4121-29.9316 69.5801-28.418Q66.748-26.9043 65.6738-23.3398L60.2539-5.22461Q59.1309-1.61133 60.6689 1.26953Q62.207 4.15039 65.8203 5.22461Q69.4336 6.25 72.2656 4.73633Q75.0977 3.22266 76.2207-0.341797Z"/>
  </g>
  <g id="Regular-S" transform="matrix(1 0 0 1 1400.65 696)">
   <path d="M9.76562-33.9844Q9.76562-25.293 12.1582-16.2109Q14.5508-7.12891 18.7988 0.292969Q19.5801 1.75781 20.9961 2.09961Q22.4121 2.44141 23.877 1.66016Q25.293 0.878906 25.6348-0.537109Q25.9766-1.95312 25.1465-3.4668Q21.3379-10.4492 19.2871-18.3838Q17.2363-26.3184 17.2363-33.9844Q17.2363-44.4824 21.2158-52.3438Q25.1953-60.2051 32.3975-64.5508Q39.5996-68.8965 49.1699-68.8965Q58.7402-68.8965 65.9424-64.5508Q73.1445-60.2051 77.1484-52.3438Q81.1523-44.4824 81.1523-33.9844Q81.1523-26.3184 79.0771-18.3838Q77.002-10.4492 73.1934-3.4668Q72.3145-1.95312 72.6807-0.537109Q73.0469 0.878906 74.4141 1.66016Q75.9277 2.44141 77.3438 2.09961Q78.7598 1.75781 79.541 0.292969Q83.7891-7.12891 86.2061-16.2109Q88.623-25.293 88.623-33.9844Q88.623-46.7285 83.6914-56.25Q78.7598-65.7715 69.8975-71.0693Q61.0352-76.3672 49.1699-76.3672Q37.3047-76.3672 28.4424-71.0693Q19.5801-65.7715 14.6729-56.25Q9.76562-46.7285 9.76562-33.9844ZM22.5098-0.585938Q23.5352 2.88086 26.2695 4.39453Q29.0039 5.9082 32.5195 4.93164Q36.0352 3.95508 37.5732 1.17188Q39.1113-1.61133 38.0859-5.12695L32.7148-23.8281Q31.6895-27.2949 28.9551-28.8086Q26.2207-30.3223 22.7051-29.3457Q19.1895-28.3691 17.6514-25.5615Q16.1133-22.7539 17.1387-19.2871ZM75.8301-0.585938L81.2012-19.2871Q82.1777-22.8027 80.6641-25.5859Q79.1504-28.3691 75.6348-29.3457Q72.1191-30.3223 69.3604-28.8086Q66.6016-27.2949 65.625-23.8281L60.2539-5.12695Q59.2285-1.61133 60.7422 1.17188Q62.2559 3.95508 65.8203 4.93164Q69.3359 5.9082 72.0703 4.39453Q74.8047 2.88086 75.8301-0.585938Z"/>
  </g>
  <g id="Light-S" transform="matrix(1 0 0 1 1104.82 696)">
   <path d="M9.76562-33.8379Q9.76562-25.1953 12.1338-16.2354Q14.502-7.27539 18.7012 0.0488281Q19.2871 1.17188 20.3613 1.41602Q21.4355 1.66016 22.6074 1.07422Q23.6816 0.488281 23.9258-0.610352Q24.1699-1.70898 23.5352-2.88086Q19.6777-9.91211 17.5781-17.9688Q15.4785-26.0254 15.4785-33.8379Q15.4785-44.5312 19.5801-52.5879Q23.6816-60.6445 31.0791-65.1123Q38.4766-69.5801 48.291-69.5801Q58.1543-69.5801 65.5273-65.1123Q72.9004-60.6445 77.0264-52.5879Q81.1523-44.5312 81.1523-33.8379Q81.1523-26.0254 79.0527-17.9688Q76.9531-9.91211 73.0957-2.88086Q72.4121-1.70898 72.6807-0.610352Q72.9492 0.488281 73.9746 1.07422Q75.1465 1.66016 76.2451 1.41602Q77.3438 1.17188 77.9297 0.0488281Q82.1289-7.27539 84.4971-16.2354Q86.8652-25.1953 86.8652-33.8379Q86.8652-46.2891 82.0557-55.6152Q77.2461-64.9414 68.5791-70.1172Q59.9121-75.293 48.291-75.293Q36.6699-75.293 28.0029-70.1172Q19.3359-64.9414 14.5508-55.6152Q9.76562-46.2891 9.76562-33.8379ZM21.0938-0.927734Q22.0215 2.19727 24.4629 3.51562Q26.9043 4.83398 30.0781 3.95508Q33.2031 3.02734 34.5459 0.537109Q35.8887-1.95312 34.9609-5.07812L29.3945-23.7305Q28.4668-26.8555 26.0254-28.1738Q23.584-29.4922 20.4102-28.5645Q17.2852-27.6855 15.918-25.1709Q14.5508-22.6562 15.5273-19.5312ZM75.5371-0.927734L81.1035-19.5312Q81.9824-22.7051 80.6641-25.1953Q79.3457-27.6855 76.2207-28.5645Q73.0469-29.4922 70.5811-28.1738Q68.1152-26.8555 67.2363-23.7305L61.6699-5.07812Q60.6934-1.95312 62.0361 0.537109Q63.3789 3.02734 66.5527 3.95508Q69.7266 4.83398 72.1436 3.51562Q74.5605 2.19727 75.5371-0.927734Z"/>
  </g>
  <g id="Thin-S" transform="matrix(1 0 0 1 809.279 696)">
   <path d="M9.76562-33.5938Q9.76562-25.0977 12.085-16.3086Q14.4043-7.51953 18.5547-0.292969Q18.8965 0.390625 19.5557 0.512695Q20.2148 0.634766 20.8984 0.292969Q21.4844-0.0488281 21.6309-0.708008Q21.7773-1.36719 21.3867-2.09961Q17.4805-9.27734 15.3076-17.4805Q13.1348-25.6836 13.1348-33.5938Q13.1348-44.6289 17.4072-52.9541Q21.6797-61.2793 29.3457-65.8936Q37.0117-70.5078 47.168-70.5078Q57.3242-70.5078 64.9658-65.8936Q72.6074-61.2793 76.8799-52.9541Q81.1523-44.6289 81.1523-33.5938Q81.1523-25.6836 79.0039-17.4805Q76.8555-9.27734 72.9492-2.09961Q72.5098-1.36719 72.6562-0.708008Q72.8027-0.0488281 73.3887 0.292969Q74.1211 0.634766 74.7803 0.512695Q75.4395 0.390625 75.7812-0.292969Q79.9316-7.51953 82.2266-16.3086Q84.5215-25.0977 84.5215-33.5938Q84.5215-45.752 79.9072-54.8096Q75.293-63.8672 66.8701-68.8965Q58.4473-73.9258 47.168-73.9258Q35.8398-73.9258 27.4414-68.8965Q19.043-63.8672 14.4043-54.8096Q9.76562-45.752 9.76562-33.5938ZM19.1895-1.31836Q20.0684 1.31836 22.0947 2.36816Q24.1211 3.41797 26.8066 2.58789Q29.4434 1.80664 30.542-0.268555Q31.6406-2.34375 30.8594-5.07812L25-23.6328Q24.1699-26.2207 22.1191-27.2949Q20.0684-28.3691 17.3828-27.5391Q14.7461-26.7578 13.6475-24.6582Q12.5488-22.5586 13.3789-19.873ZM75.1465-1.31836L80.957-19.873Q81.7383-22.6074 80.6641-24.6826Q79.5898-26.7578 76.9531-27.5391Q74.2188-28.3691 72.1924-27.2949Q70.166-26.2207 69.3359-23.6328L63.4766-5.07812Q62.6465-2.34375 63.7451-0.268555Q64.8438 1.80664 67.4805 2.58789Q70.2148 3.41797 72.2412 2.36816Q74.2676 1.31836 75.1465-1.31836Z"/>
  </g>
  <g id="Ultralight-S" transform="matrix(1 0 0 1 513.153 696)">
   <path d="M9.76562-33.4961Q9.76562-25.0488 12.0605-16.333Q14.3555-7.61719 18.457-0.439453Q18.6523 0 19.0918 0.0732422Q19.5312 0.146484 20.0195-0.0976562Q20.4102-0.292969 20.4834-0.732422Q20.5566-1.17188 20.2637-1.70898Q16.3574-8.88672 14.1602-17.1875Q11.9629-25.4883 11.9629-33.4961Q11.9629-44.6777 16.3086-53.125Q20.6543-61.5723 28.4424-66.2842Q36.2305-70.9961 46.582-70.9961Q56.9336-70.9961 64.6973-66.2842Q72.4609-61.5723 76.8066-53.125Q81.1523-44.6777 81.1523-33.4961Q81.1523-25.4883 78.9795-17.1875Q76.8066-8.88672 72.8516-1.70898Q72.6074-1.17188 72.6562-0.732422Q72.7051-0.292969 73.0957-0.0976562Q73.584 0.146484 74.0234 0.0732422Q74.4629 0 74.6582-0.439453Q78.8086-7.61719 81.0791-16.333Q83.3496-25.0488 83.3496-33.4961Q83.3496-45.459 78.8086-54.3945Q74.2676-63.3301 65.9668-68.2617Q57.666-73.1934 46.582-73.1934Q35.4492-73.1934 27.1729-68.2617Q18.8965-63.3301 14.3311-54.3945Q9.76562-45.459 9.76562-33.4961ZM18.2617-1.5625Q19.043 0.830078 20.874 1.75781Q22.7051 2.68555 25.1465 1.95312Q27.5391 1.17188 28.5156-0.708008Q29.4922-2.58789 28.7109-5.0293L22.7051-23.5352Q21.9727-25.9277 20.1172-26.8799Q18.2617-27.832 15.8203-27.0508Q13.4277-26.2695 12.4512-24.3896Q11.4746-22.5098 12.2559-20.0684ZM74.9023-1.5625L80.8594-20.0684Q81.6406-22.5098 80.6885-24.3896Q79.7363-26.2695 77.3438-27.0508Q74.8535-27.832 73.0225-26.8799Q71.1914-25.9277 70.4102-23.5352L64.4531-5.0293Q63.623-2.58789 64.5996-0.708008Q65.5762 1.17188 67.9688 1.95312Q70.459 2.68555 72.29 1.75781Q74.1211 0.830078 74.9023-1.5625Z"/>
  </g>
 </g>
</svg>
