<?xml version="1.0" encoding="UTF-8"?>
<svg width="420px" height="506px" viewBox="0 0 420 506" version="1.1" xmlns="http://www.w3.org/2000/svg" xmlns:xlink="http://www.w3.org/1999/xlink">
    <!-- Generator: Sketch 53.2 (72643) - https://sketchapp.com -->
    <title>Group</title>
    <desc>Created with Sketch.</desc>
    <g id="Page-1" stroke="none" stroke-width="1" fill="none" fill-rule="evenodd">
        <g id="Group" transform="translate(30.000000, 1.000000)">
            <path d="M64.9052475,29 L294.905248,29 L354.905248,89 C362.670588,164.912897 360.745094,218.24954 349.128765,249.009929 C299.362509,380.792474 209.121336,453.874163 178.405248,468.254998 C148.885804,454.434415 59.4684844,381.389721 10.1532886,249.120914 C-1.32038569,218.347251 -3.06973269,164.973613 4.90524755,89 L64.9052475,29 Z" id="Rectangle" fill="#19465B" fill-rule="nonzero"></path>
            <g id="Rectangle" transform="translate(0.000000, 29.000000)">
                <g id="path-1-link" fill="#000000" fill-rule="nonzero">
                    <path d="M64.9052475,0 L294.905248,0 L354.905248,60 C362.670588,135.912897 360.745094,189.24954 349.128765,220.009929 C299.362509,351.792474 209.121336,424.874163 178.405248,439.254998 C148.885804,425.434415 59.4684844,352.389721 10.1532886,220.120914 C-1.32038569,189.347251 -3.06973269,135.973613 4.90524755,60 L64.9052475,0 Z" id="path-1"></path>
                </g>
                <g id="path-1-link" stroke="#F11411" stroke-width="60">
                    <path d="M64.9052475,0 L294.905248,0 L354.905248,60 C362.670588,135.912897 360.745094,189.24954 349.128765,220.009929 C299.362509,351.792474 209.121336,424.874163 178.405248,439.254998 C148.885804,425.434415 59.4684844,352.389721 10.1532886,220.120914 C-1.32038569,189.347251 -3.06973269,135.973613 4.90524755,60 L64.9052475,0 Z" id="path-1"></path>
                </g>
            </g>
            <g id="lock" transform="translate(113.905248, 129.501470)">
                <path d="M32.5,62.4985305 C25.9729692,20.8328435 36.8063026,3.11147155e-15 65,0 C93.1936974,0 104.360364,20.8328435 98.5,62.4985305" id="Line" stroke="#B4D2D7" stroke-width="25" stroke-linecap="square"></path>
                <rect id="Rectangle" fill="#FCDA4B" fill-rule="nonzero" x="0" y="62" width="129" height="99" rx="5"></rect>
                <path d="M72,119.416592 L72,139 L57,139 L57,119.416592 C50.5196098,116.539226 46,110.047419 46,102.5 C46,92.2827321 54.2827321,84 64.5,84 C74.7172679,84 83,92.2827321 83,102.5 C83,110.047419 78.4803902,116.539226 72,119.416592 Z" id="Combined-Shape" fill="#F6B554" fill-rule="nonzero"></path>
            </g>
            <path d="M175.410813,0 L311.839913,0 L382.106693,70.2667804 C391.200785,159.169362 390.945814,221.632598 377.34178,257.656489 C319.059869,411.988742 211.377258,487.575659 175.405248,504.417242" id="Path" fill="#000000" fill-rule="nonzero" opacity="0.235997518"></path>
        </g>
    </g>
</svg>