<?xml version="1.0" encoding="UTF-8"?>
<!--Generator: Apple Native CoreSVG 175-->
<!DOCTYPE svg
PUBLIC "-//W3C//DTD SVG 1.1//EN"
       "http://www.w3.org/Graphics/SVG/1.1/DTD/svg11.dtd">
<svg version="1.1" xmlns="http://www.w3.org/2000/svg" xmlns:xlink="http://www.w3.org/1999/xlink" width="3300" height="2200">
 <!--glyph: "uni10096E.medium", point size: 100.0, font version: "17.0d11e1", template writer version: "65.1"-->
 <g id="Notes">
  <rect height="2200" id="artboard" style="fill:white;opacity:1" width="3300" x="0" y="0"/>
  <line style="fill:none;stroke:black;opacity:1;stroke-width:0.5;" x1="263" x2="3036" y1="292" y2="292"/>
  <text style="stroke:none;fill:black;font-family:sans-serif;font-size:13;font-weight:bold;" transform="matrix(1 0 0 1 263 322)">Weight/Scale Variations</text>
  <text style="stroke:none;fill:black;font-family:sans-serif;font-size:13;text-anchor:middle;" transform="matrix(1 0 0 1 559.711 322)">Ultralight</text>
  <text style="stroke:none;fill:black;font-family:sans-serif;font-size:13;text-anchor:middle;" transform="matrix(1 0 0 1 856.422 322)">Thin</text>
  <text style="stroke:none;fill:black;font-family:sans-serif;font-size:13;text-anchor:middle;" transform="matrix(1 0 0 1 1153.13 322)">Light</text>
  <text style="stroke:none;fill:black;font-family:sans-serif;font-size:13;text-anchor:middle;" transform="matrix(1 0 0 1 1449.84 322)">Regular</text>
  <text style="stroke:none;fill:black;font-family:sans-serif;font-size:13;text-anchor:middle;" transform="matrix(1 0 0 1 1746.56 322)">Medium</text>
  <text style="stroke:none;fill:black;font-family:sans-serif;font-size:13;text-anchor:middle;" transform="matrix(1 0 0 1 2043.27 322)">Semibold</text>
  <text style="stroke:none;fill:black;font-family:sans-serif;font-size:13;text-anchor:middle;" transform="matrix(1 0 0 1 2339.98 322)">Bold</text>
  <text style="stroke:none;fill:black;font-family:sans-serif;font-size:13;text-anchor:middle;" transform="matrix(1 0 0 1 2636.69 322)">Heavy</text>
  <text style="stroke:none;fill:black;font-family:sans-serif;font-size:13;text-anchor:middle;" transform="matrix(1 0 0 1 2933.4 322)">Black</text>
  <line style="fill:none;stroke:black;opacity:1;stroke-width:0.5;" x1="263" x2="3036" y1="1903" y2="1903"/>
  <g transform="matrix(1 0 0 1 263 1933)">
   <path d="M9.24805 0.830078Q10.8691 0.830078 12.2949 0.214844Q13.7207-0.400391 14.8096-1.49414Q15.8984-2.58789 16.5186-4.01367Q17.1387-5.43945 17.1387-7.05078Q17.1387-8.66211 16.5186-10.0879Q15.8984-11.5137 14.8047-12.6074Q13.7109-13.7012 12.2852-14.3164Q10.8594-14.9316 9.23828-14.9316Q7.62695-14.9316 6.20117-14.3164Q4.77539-13.7012 3.69141-12.6074Q2.60742-11.5137 1.9873-10.0879Q1.36719-8.66211 1.36719-7.05078Q1.36719-5.43945 1.9873-4.01367Q2.60742-2.58789 3.69629-1.49414Q4.78516-0.400391 6.21094 0.214844Q7.63672 0.830078 9.24805 0.830078ZM9.24805-0.654297Q7.91992-0.654297 6.7627-1.14746Q5.60547-1.64062 4.73145-2.51953Q3.85742-3.39844 3.36426-4.56055Q2.87109-5.72266 2.87109-7.05078Q2.87109-8.37891 3.35938-9.54102Q3.84766-10.7031 4.72168-11.582Q5.5957-12.4609 6.75293-12.9541Q7.91016-13.4473 9.23828-13.4473Q10.5762-13.4473 11.7334-12.9541Q12.8906-12.4609 13.7695-11.582Q14.6484-10.7031 15.1465-9.54102Q15.6445-8.37891 15.6445-7.05078Q15.6445-5.72266 15.1514-4.56055Q14.6582-3.39844 13.7842-2.51953Q12.9102-1.64062 11.748-1.14746Q10.5859-0.654297 9.24805-0.654297ZM5.6543-7.05078Q5.6543-6.72852 5.85938-6.52832Q6.06445-6.32812 6.40625-6.32812L8.51562-6.32812L8.51562-4.20898Q8.51562-3.88672 8.71094-3.67676Q8.90625-3.4668 9.23828-3.4668Q9.56055-3.4668 9.77051-3.67676Q9.98047-3.88672 9.98047-4.20898L9.98047-6.32812L12.0898-6.32812Q12.4219-6.32812 12.627-6.52832Q12.832-6.72852 12.832-7.05078Q12.832-7.38281 12.627-7.58789Q12.4219-7.79297 12.0898-7.79297L9.98047-7.79297L9.98047-9.90234Q9.98047-10.2344 9.77051-10.4443Q9.56055-10.6543 9.23828-10.6543Q8.90625-10.6543 8.71094-10.4443Q8.51562-10.2344 8.51562-9.90234L8.51562-7.79297L6.40625-7.79297Q6.06445-7.79297 5.85938-7.58789Q5.6543-7.38281 5.6543-7.05078Z"/>
  </g>
  <g transform="matrix(1 0 0 1 281.867 1933)">
   <path d="M11.709 2.91016Q13.75 2.91016 15.5518 2.12891Q17.3535 1.34766 18.7305-0.0292969Q20.1074-1.40625 20.8887-3.20801Q21.6699-5.00977 21.6699-7.05078Q21.6699-9.0918 20.8887-10.8936Q20.1074-12.6953 18.7305-14.0723Q17.3535-15.4492 15.5469-16.2305Q13.7402-17.0117 11.6992-17.0117Q9.6582-17.0117 7.85645-16.2305Q6.05469-15.4492 4.68262-14.0723Q3.31055-12.6953 2.5293-10.8936Q1.74805-9.0918 1.74805-7.05078Q1.74805-5.00977 2.5293-3.20801Q3.31055-1.40625 4.6875-0.0292969Q6.06445 1.34766 7.86621 2.12891Q9.66797 2.91016 11.709 2.91016ZM11.709 1.25Q9.98047 1.25 8.47656 0.605469Q6.97266-0.0390625 5.83496-1.17676Q4.69727-2.31445 4.05762-3.81836Q3.41797-5.32227 3.41797-7.05078Q3.41797-8.7793 4.05762-10.2832Q4.69727-11.7871 5.83008-12.9297Q6.96289-14.0723 8.4668-14.7119Q9.9707-15.3516 11.6992-15.3516Q13.4277-15.3516 14.9316-14.7119Q16.4355-14.0723 17.5781-12.9297Q18.7207-11.7871 19.3652-10.2832Q20.0098-8.7793 20.0098-7.05078Q20.0098-5.32227 19.3701-3.81836Q18.7305-2.31445 17.5928-1.17676Q16.4551-0.0390625 14.9463 0.605469Q13.4375 1.25 11.709 1.25ZM7.17773-7.05078Q7.17773-6.69922 7.41211-6.47461Q7.64648-6.25 8.01758-6.25L10.8887-6.25L10.8887-3.36914Q10.8887-2.99805 11.1133-2.76855Q11.3379-2.53906 11.6895-2.53906Q12.0605-2.53906 12.29-2.76855Q12.5195-2.99805 12.5195-3.36914L12.5195-6.25L15.4004-6.25Q15.7715-6.25 16.001-6.47461Q16.2305-6.69922 16.2305-7.05078Q16.2305-7.42188 16.001-7.65137Q15.7715-7.88086 15.4004-7.88086L12.5195-7.88086L12.5195-10.752Q12.5195-11.1328 12.29-11.3623Q12.0605-11.5918 11.6895-11.5918Q11.3379-11.5918 11.1133-11.3574Q10.8887-11.123 10.8887-10.752L10.8887-7.88086L8.01758-7.88086Q7.63672-7.88086 7.40723-7.65137Q7.17773-7.42188 7.17773-7.05078Z"/>
  </g>
  <g transform="matrix(1 0 0 1 305.646 1933)">
   <path d="M14.9707 5.66406Q17.0605 5.66406 18.96 5.01465Q20.8594 4.36523 22.4512 3.19336Q24.043 2.02148 25.2197 0.429688Q26.3965-1.16211 27.0459-3.06641Q27.6953-4.9707 27.6953-7.05078Q27.6953-9.14062 27.0459-11.04Q26.3965-12.9395 25.2197-14.5312Q24.043-16.123 22.4512-17.2998Q20.8594-18.4766 18.9551-19.126Q17.0508-19.7754 14.9609-19.7754Q12.8711-19.7754 10.9717-19.126Q9.07227-18.4766 7.48535-17.2998Q5.89844-16.123 4.72168-14.5312Q3.54492-12.9395 2.90039-11.04Q2.25586-9.14062 2.25586-7.05078Q2.25586-4.9707 2.90527-3.06641Q3.55469-1.16211 4.72656 0.429688Q5.89844 2.02148 7.49023 3.19336Q9.08203 4.36523 10.9814 5.01465Q12.8809 5.66406 14.9707 5.66406ZM14.9707 3.84766Q13.1641 3.84766 11.5283 3.2959Q9.89258 2.74414 8.53516 1.74805Q7.17773 0.751953 6.17676-0.610352Q5.17578-1.97266 4.62891-3.6084Q4.08203-5.24414 4.08203-7.05078Q4.08203-8.86719 4.62891-10.5029Q5.17578-12.1387 6.17188-13.501Q7.16797-14.8633 8.52539-15.8594Q9.88281-16.8555 11.5186-17.4023Q13.1543-17.9492 14.9609-17.9492Q16.7773-17.9492 18.4131-17.4023Q20.0488-16.8555 21.4111-15.8594Q22.7734-14.8633 23.7695-13.501Q24.7656-12.1387 25.3174-10.5029Q25.8691-8.86719 25.8691-7.05078Q25.8789-5.24414 25.332-3.6084Q24.7852-1.97266 23.7842-0.610352Q22.7832 0.751953 21.4209 1.74805Q20.0586 2.74414 18.4229 3.2959Q16.7871 3.84766 14.9707 3.84766ZM9.19922-7.05078Q9.19922-6.66992 9.45801-6.4209Q9.7168-6.17188 10.1172-6.17188L14.0625-6.17188L14.0625-2.2168Q14.0625-1.81641 14.3115-1.55762Q14.5605-1.29883 14.9512-1.29883Q15.3516-1.29883 15.6104-1.55273Q15.8691-1.80664 15.8691-2.2168L15.8691-6.17188L19.8242-6.17188Q20.2246-6.17188 20.4785-6.4209Q20.7324-6.66992 20.7324-7.05078Q20.7324-7.46094 20.4785-7.71484Q20.2246-7.96875 19.8242-7.96875L15.8691-7.96875L15.8691-11.9141Q15.8691-12.3242 15.6104-12.583Q15.3516-12.8418 14.9512-12.8418Q14.5605-12.8418 14.3115-12.583Q14.0625-12.3242 14.0625-11.9141L14.0625-7.96875L10.1172-7.96875Q9.70703-7.96875 9.45312-7.71484Q9.19922-7.46094 9.19922-7.05078Z"/>
  </g>
  <text style="stroke:none;fill:black;font-family:sans-serif;font-size:13;font-weight:bold;" transform="matrix(1 0 0 1 263 1953)">Design Variations</text>
  <text style="stroke:none;fill:black;font-family:sans-serif;font-size:13;" transform="matrix(1 0 0 1 263 1971)">Symbols are supported in up to nine weights and three scales.</text>
  <text style="stroke:none;fill:black;font-family:sans-serif;font-size:13;" transform="matrix(1 0 0 1 263 1989)">For optimal layout with text and other symbols, vertically align</text>
  <text style="stroke:none;fill:black;font-family:sans-serif;font-size:13;" transform="matrix(1 0 0 1 263 2007)">symbols with the adjacent text.</text>
  <line style="fill:none;stroke:#00AEEF;stroke-width:0.5;opacity:1.0;" x1="776" x2="776" y1="1919" y2="1933"/>
  <g transform="matrix(1 0 0 1 776 1933)">
   <path d="M3.31055 0.15625Q3.70117 0.15625 3.91602-0.00976562Q4.13086-0.175781 4.26758-0.585938L5.52734-4.0332L11.2891-4.0332L12.5488-0.585938Q12.6855-0.175781 12.9004-0.00976562Q13.1152 0.15625 13.4961 0.15625Q13.8867 0.15625 14.1162-0.0585938Q14.3457-0.273438 14.3457-0.644531Q14.3457-0.869141 14.2383-1.17188L9.6582-13.3691Q9.48242-13.8184 9.17969-14.043Q8.87695-14.2676 8.4082-14.2676Q7.5-14.2676 7.17773-13.3789L2.59766-1.16211Q2.49023-0.859375 2.49023-0.634766Q2.49023-0.263672 2.70996-0.0537109Q2.92969 0.15625 3.31055 0.15625ZM6.00586-5.51758L8.37891-12.0898L8.42773-12.0898L10.8008-5.51758Z"/>
  </g>
  <line style="fill:none;stroke:#00AEEF;stroke-width:0.5;opacity:1.0;" x1="793.197" x2="793.197" y1="1919" y2="1933"/>
  <text style="stroke:none;fill:black;font-family:sans-serif;font-size:13;font-weight:bold;" transform="matrix(1 0 0 1 776 1953)">Margins</text>
  <text style="stroke:none;fill:black;font-family:sans-serif;font-size:13;" transform="matrix(1 0 0 1 776 1971)">Leading and trailing margins on the left and right side of each symbol</text>
  <text style="stroke:none;fill:black;font-family:sans-serif;font-size:13;" transform="matrix(1 0 0 1 776 1989)">can be adjusted by modifying the x-location of the margin guidelines.</text>
  <text style="stroke:none;fill:black;font-family:sans-serif;font-size:13;" transform="matrix(1 0 0 1 776 2007)">Modifications are automatically applied proportionally to all</text>
  <text style="stroke:none;fill:black;font-family:sans-serif;font-size:13;" transform="matrix(1 0 0 1 776 2025)">scales and weights.</text>
  <g transform="matrix(1 0 0 1 1289 1933)">
   <path d="M2.8418 1.86523L4.54102 3.57422Q5.18555 4.22852 5.90332 4.17969Q6.62109 4.13086 7.31445 3.35938L18.0078-8.42773L17.041-9.4043L6.42578 2.27539Q6.16211 2.57812 5.89355 2.61719Q5.625 2.65625 5.27344 2.30469L4.10156 1.14258Q3.75 0.791016 3.79395 0.522461Q3.83789 0.253906 4.14062-0.0195312L15.6152-10.8203L14.6387-11.7871L3.04688-0.898438Q2.30469-0.214844 2.25098 0.498047Q2.19727 1.21094 2.8418 1.86523ZM9.25781-16.3281Q8.94531-16.0254 8.90625-15.6348Q8.86719-15.2441 9.04297-14.9512Q9.21875-14.6777 9.55566-14.541Q9.89258-14.4043 10.3809-14.5215Q11.4746-14.7754 12.5977-14.7314Q13.7207-14.6875 14.7949-13.9844L14.209-12.5293Q13.9551-11.9043 14.0674-11.4404Q14.1797-10.9766 14.5801-10.5664L16.875-8.25195Q17.2363-7.88086 17.5781-7.82227Q17.9199-7.76367 18.3398-7.8418L19.4043-8.03711L20.0684-7.36328L20.0293-6.80664Q20-6.43555 20.1221-6.12305Q20.2441-5.81055 20.6055-5.44922L21.3672-4.70703Q21.7285-4.3457 22.1533-4.33105Q22.5781-4.31641 22.9297-4.66797L25.8398-7.58789Q26.1914-7.93945 26.1816-8.35449Q26.1719-8.76953 25.8105-9.13086L25.0391-9.89258Q24.6875-10.2539 24.3799-10.3857Q24.0723-10.5176 23.7109-10.4883L23.1348-10.4395L22.4902-11.0742L22.7344-12.1973Q22.832-12.6172 22.6953-12.9834Q22.5586-13.3496 22.1191-13.7891L19.9219-15.9766Q18.6719-17.2168 17.2607-17.8369Q15.8496-18.457 14.4189-18.4814Q12.9883-18.5059 11.665-17.959Q10.3418-17.4121 9.25781-16.3281ZM10.752-15.957Q11.6602-16.6211 12.7002-16.9043Q13.7402-17.1875 14.8047-17.085Q15.8691-16.9824 16.8701-16.5137Q17.8711-16.0449 18.7012-15.2051L21.1328-12.793Q21.3086-12.6172 21.3525-12.4512Q21.3965-12.2852 21.3379-12.0312L21.0156-10.5469L22.5195-9.0625L23.5059-9.12109Q23.6914-9.13086 23.7891-9.09668Q23.8867-9.0625 24.0332-8.91602L24.6094-8.33984L22.168-5.89844L21.5918-6.47461Q21.4453-6.62109 21.4062-6.71875Q21.3672-6.81641 21.377-7.01172L21.4453-7.98828L19.9512-9.47266L18.4277-9.21875Q18.1836-9.16992 18.042-9.2041Q17.9004-9.23828 17.7148-9.41406L15.7129-11.416Q15.5176-11.5918 15.4932-11.7529Q15.4688-11.9141 15.5859-12.1875L16.4648-14.2773Q15.293-15.3711 13.8281-15.791Q12.3633-16.2109 10.8398-15.7617Q10.7227-15.7324 10.6885-15.8057Q10.6543-15.8789 10.752-15.957Z"/>
  </g>
  <text style="stroke:none;fill:black;font-family:sans-serif;font-size:13;font-weight:bold;" transform="matrix(1 0 0 1 1289 1953)">Exporting</text>
  <text style="stroke:none;fill:black;font-family:sans-serif;font-size:13;" transform="matrix(1 0 0 1 1289 1971)">Symbols should be outlined when exporting to ensure the</text>
  <text style="stroke:none;fill:black;font-family:sans-serif;font-size:13;" transform="matrix(1 0 0 1 1289 1989)">design is preserved when submitting to Xcode.</text>
  <text id="template-version" style="stroke:none;fill:black;font-family:sans-serif;font-size:13;text-anchor:end;" transform="matrix(1 0 0 1 3036 1933)">Template v.3.0</text>
  <text style="stroke:none;fill:black;font-family:sans-serif;font-size:13;text-anchor:end;" transform="matrix(1 0 0 1 3036 1951)">Requires Xcode 13 or greater</text>
  <text id="descriptive-name" style="stroke:none;fill:black;font-family:sans-serif;font-size:13;text-anchor:end;" transform="matrix(1 0 0 1 3036 1969)">Generated from puzzlepiece.extension.fill</text>
  <text style="stroke:none;fill:black;font-family:sans-serif;font-size:13;text-anchor:end;" transform="matrix(1 0 0 1 3036 1987)">Typeset at 100 points</text>
  <text style="stroke:none;fill:black;font-family:sans-serif;font-size:13;" transform="matrix(1 0 0 1 263 726)">Small</text>
  <text style="stroke:none;fill:black;font-family:sans-serif;font-size:13;" transform="matrix(1 0 0 1 263 1156)">Medium</text>
  <text style="stroke:none;fill:black;font-family:sans-serif;font-size:13;" transform="matrix(1 0 0 1 263 1586)">Large</text>
 </g>
 <g id="Guides">
  <g id="H-reference" style="fill:#27AAE1;stroke:none;" transform="matrix(1 0 0 1 339 696)">
   <path d="M0.976562 0L3.66211 0L29.3457-67.1387L30.0293-67.1387L30.0293-70.459L28.125-70.459ZM11.6699-24.4629L46.9727-24.4629L46.2402-26.709L12.4512-26.709ZM55.127 0L57.7637 0L30.6152-70.459L29.4434-70.459L29.4434-67.1387Z"/>
  </g>
  <line id="Baseline-S" style="fill:none;stroke:#27AAE1;opacity:1;stroke-width:0.5;" x1="263" x2="3036" y1="696" y2="696"/>
  <line id="Capline-S" style="fill:none;stroke:#27AAE1;opacity:1;stroke-width:0.5;" x1="263" x2="3036" y1="625.541" y2="625.541"/>
  <g id="H-reference" style="fill:#27AAE1;stroke:none;" transform="matrix(1 0 0 1 339 1126)">
   <path d="M0.976562 0L3.66211 0L29.3457-67.1387L30.0293-67.1387L30.0293-70.459L28.125-70.459ZM11.6699-24.4629L46.9727-24.4629L46.2402-26.709L12.4512-26.709ZM55.127 0L57.7637 0L30.6152-70.459L29.4434-70.459L29.4434-67.1387Z"/>
  </g>
  <line id="Baseline-M" style="fill:none;stroke:#27AAE1;opacity:1;stroke-width:0.5;" x1="263" x2="3036" y1="1126" y2="1126"/>
  <line id="Capline-M" style="fill:none;stroke:#27AAE1;opacity:1;stroke-width:0.5;" x1="263" x2="3036" y1="1055.54" y2="1055.54"/>
  <g id="H-reference" style="fill:#27AAE1;stroke:none;" transform="matrix(1 0 0 1 339 1556)">
   <path d="M0.976562 0L3.66211 0L29.3457-67.1387L30.0293-67.1387L30.0293-70.459L28.125-70.459ZM11.6699-24.4629L46.9727-24.4629L46.2402-26.709L12.4512-26.709ZM55.127 0L57.7637 0L30.6152-70.459L29.4434-70.459L29.4434-67.1387Z"/>
  </g>
  <line id="Baseline-L" style="fill:none;stroke:#27AAE1;opacity:1;stroke-width:0.5;" x1="263" x2="3036" y1="1556" y2="1556"/>
  <line id="Capline-L" style="fill:none;stroke:#27AAE1;opacity:1;stroke-width:0.5;" x1="263" x2="3036" y1="1485.54" y2="1485.54"/>
  <line id="left-margin-Ultralight-S" style="fill:none;stroke:#00AEEF;stroke-width:0.5;opacity:1.0;" x1="506.269" x2="506.269" y1="600.785" y2="720.121"/>
  <line id="right-margin-Ultralight-S" style="fill:none;stroke:#00AEEF;stroke-width:0.5;opacity:1.0;" x1="613.153" x2="613.153" y1="600.785" y2="720.121"/>
  <line id="left-margin-Thin-S" style="fill:none;stroke:#00AEEF;stroke-width:0.5;opacity:1.0;" x1="802.858" x2="802.858" y1="600.785" y2="720.121"/>
  <line id="right-margin-Thin-S" style="fill:none;stroke:#00AEEF;stroke-width:0.5;opacity:1.0;" x1="909.987" x2="909.987" y1="600.785" y2="720.121"/>
  <line id="left-margin-Light-S" style="fill:none;stroke:#00AEEF;stroke-width:0.5;opacity:1.0;" x1="1099.32" x2="1099.32" y1="600.785" y2="720.121"/>
  <line id="right-margin-Light-S" style="fill:none;stroke:#00AEEF;stroke-width:0.5;opacity:1.0;" x1="1206.94" x2="1206.94" y1="600.785" y2="720.121"/>
  <line id="left-margin-Regular-S" style="fill:none;stroke:#00AEEF;stroke-width:0.5;opacity:1.0;" x1="1395.86" x2="1395.86" y1="600.785" y2="720.121"/>
  <line id="right-margin-Regular-S" style="fill:none;stroke:#00AEEF;stroke-width:0.5;opacity:1.0;" x1="1503.82" x2="1503.82" y1="600.785" y2="720.121"/>
  <line id="left-margin-Medium-S" style="fill:none;stroke:#00AEEF;stroke-width:0.5;opacity:1.0;" x1="1692.14" x2="1692.14" y1="600.785" y2="720.121"/>
  <line id="right-margin-Medium-S" style="fill:none;stroke:#00AEEF;stroke-width:0.5;opacity:1.0;" x1="1800.97" x2="1800.97" y1="600.785" y2="720.121"/>
  <line id="left-margin-Semibold-S" style="fill:none;stroke:#00AEEF;stroke-width:0.5;opacity:1.0;" x1="1988.51" x2="1988.51" y1="600.785" y2="720.121"/>
  <line id="right-margin-Semibold-S" style="fill:none;stroke:#00AEEF;stroke-width:0.5;opacity:1.0;" x1="2098.03" x2="2098.03" y1="600.785" y2="720.121"/>
  <line id="left-margin-Bold-S" style="fill:none;stroke:#00AEEF;stroke-width:0.5;opacity:1.0;" x1="2284.75" x2="2284.75" y1="600.785" y2="720.121"/>
  <line id="right-margin-Bold-S" style="fill:none;stroke:#00AEEF;stroke-width:0.5;opacity:1.0;" x1="2395.2" x2="2395.2" y1="600.785" y2="720.121"/>
  <line id="left-margin-Heavy-S" style="fill:none;stroke:#00AEEF;stroke-width:0.5;opacity:1.0;" x1="2580.81" x2="2580.81" y1="600.785" y2="720.121"/>
  <line id="right-margin-Heavy-S" style="fill:none;stroke:#00AEEF;stroke-width:0.5;opacity:1.0;" x1="2692.57" x2="2692.57" y1="600.785" y2="720.121"/>
  <line id="left-margin-Black-S" style="fill:none;stroke:#00AEEF;stroke-width:0.5;opacity:1.0;" x1="2876.93" x2="2876.93" y1="600.785" y2="720.121"/>
  <line id="right-margin-Black-S" style="fill:none;stroke:#00AEEF;stroke-width:0.5;opacity:1.0;" x1="2989.87" x2="2989.87" y1="600.785" y2="720.121"/>
  <line id="left-margin-Ultralight-M" style="fill:none;stroke:#00AEEF;stroke-width:0.5;opacity:1.0;" x1="491.547" x2="491.547" y1="1030.79" y2="1150.12"/>
  <line id="right-margin-Ultralight-M" style="fill:none;stroke:#00AEEF;stroke-width:0.5;opacity:1.0;" x1="627.875" x2="627.875" y1="1030.79" y2="1150.12"/>
  <line id="left-margin-Thin-M" style="fill:none;stroke:#00AEEF;stroke-width:0.5;opacity:1.0;" x1="788.112" x2="788.112" y1="1030.79" y2="1150.12"/>
  <line id="right-margin-Thin-M" style="fill:none;stroke:#00AEEF;stroke-width:0.5;opacity:1.0;" x1="924.733" x2="924.733" y1="1030.79" y2="1150.12"/>
  <line id="left-margin-Light-M" style="fill:none;stroke:#00AEEF;stroke-width:0.5;opacity:1.0;" x1="1084.55" x2="1084.55" y1="1030.79" y2="1150.12"/>
  <line id="right-margin-Light-M" style="fill:none;stroke:#00AEEF;stroke-width:0.5;opacity:1.0;" x1="1221.71" x2="1221.71" y1="1030.79" y2="1150.12"/>
  <line id="left-margin-Regular-M" style="fill:none;stroke:#00AEEF;stroke-width:0.5;opacity:1.0;" x1="1381.07" x2="1381.07" y1="1030.79" y2="1150.12"/>
  <line id="right-margin-Regular-M" style="fill:none;stroke:#00AEEF;stroke-width:0.5;opacity:1.0;" x1="1518.62" x2="1518.62" y1="1030.79" y2="1150.12"/>
  <line id="left-margin-Medium-M" style="fill:none;stroke:#00AEEF;stroke-width:0.5;opacity:1.0;" x1="1677.24" x2="1677.24" y1="1030.79" y2="1150.12"/>
  <line id="right-margin-Medium-M" style="fill:none;stroke:#00AEEF;stroke-width:0.5;opacity:1.0;" x1="1815.87" x2="1815.87" y1="1030.79" y2="1150.12"/>
  <line id="left-margin-Semibold-M" style="fill:none;stroke:#00AEEF;stroke-width:0.5;opacity:1.0;" x1="1973.54" x2="1973.54" y1="1030.79" y2="1150.12"/>
  <line id="right-margin-Semibold-M" style="fill:none;stroke:#00AEEF;stroke-width:0.5;opacity:1.0;" x1="2112.99" x2="2112.99" y1="1030.79" y2="1150.12"/>
  <line id="left-margin-Bold-M" style="fill:none;stroke:#00AEEF;stroke-width:0.5;opacity:1.0;" x1="2269.69" x2="2269.69" y1="1030.79" y2="1150.12"/>
  <line id="right-margin-Bold-M" style="fill:none;stroke:#00AEEF;stroke-width:0.5;opacity:1.0;" x1="2410.27" x2="2410.27" y1="1030.79" y2="1150.12"/>
  <line id="left-margin-Heavy-M" style="fill:none;stroke:#00AEEF;stroke-width:0.5;opacity:1.0;" x1="2565.6" x2="2565.6" y1="1030.79" y2="1150.12"/>
  <line id="right-margin-Heavy-M" style="fill:none;stroke:#00AEEF;stroke-width:0.5;opacity:1.0;" x1="2707.78" x2="2707.78" y1="1030.79" y2="1150.12"/>
  <line id="left-margin-Black-M" style="fill:none;stroke:#00AEEF;stroke-width:0.5;opacity:1.0;" x1="2861.6" x2="2861.6" y1="1030.79" y2="1150.12"/>
  <line id="right-margin-Black-M" style="fill:none;stroke:#00AEEF;stroke-width:0.5;opacity:1.0;" x1="3005.2" x2="3005.2" y1="1030.79" y2="1150.12"/>
  <line id="left-margin-Ultralight-L" style="fill:none;stroke:#00AEEF;stroke-width:0.5;opacity:1.0;" x1="471.796" x2="471.796" y1="1460.79" y2="1580.12"/>
  <line id="right-margin-Ultralight-L" style="fill:none;stroke:#00AEEF;stroke-width:0.5;opacity:1.0;" x1="647.626" x2="647.626" y1="1460.79" y2="1580.12"/>
  <line id="left-margin-Thin-L" style="fill:none;stroke:#00AEEF;stroke-width:0.5;opacity:1.0;" x1="768.361" x2="768.361" y1="1460.79" y2="1580.12"/>
  <line id="right-margin-Thin-L" style="fill:none;stroke:#00AEEF;stroke-width:0.5;opacity:1.0;" x1="944.484" x2="944.484" y1="1460.79" y2="1580.12"/>
  <line id="left-margin-Light-L" style="fill:none;stroke:#00AEEF;stroke-width:0.5;opacity:1.0;" x1="1064.78" x2="1064.78" y1="1460.79" y2="1580.12"/>
  <line id="right-margin-Light-L" style="fill:none;stroke:#00AEEF;stroke-width:0.5;opacity:1.0;" x1="1241.49" x2="1241.49" y1="1460.79" y2="1580.12"/>
  <line id="left-margin-Regular-L" style="fill:none;stroke:#00AEEF;stroke-width:0.5;opacity:1.0;" x1="1361.27" x2="1361.27" y1="1460.79" y2="1580.12"/>
  <line id="right-margin-Regular-L" style="fill:none;stroke:#00AEEF;stroke-width:0.5;opacity:1.0;" x1="1538.42" x2="1538.42" y1="1460.79" y2="1580.12"/>
  <line id="left-margin-Medium-L" style="fill:none;stroke:#00AEEF;stroke-width:0.5;opacity:1.0;" x1="1657.4" x2="1657.4" y1="1460.79" y2="1580.12"/>
  <line id="right-margin-Medium-L" style="fill:none;stroke:#00AEEF;stroke-width:0.5;opacity:1.0;" x1="1835.72" x2="1835.72" y1="1460.79" y2="1580.12"/>
  <line id="left-margin-Semibold-L" style="fill:none;stroke:#00AEEF;stroke-width:0.5;opacity:1.0;" x1="1953.64" x2="1953.64" y1="1460.79" y2="1580.12"/>
  <line id="right-margin-Semibold-L" style="fill:none;stroke:#00AEEF;stroke-width:0.5;opacity:1.0;" x1="2132.89" x2="2132.89" y1="1460.79" y2="1580.12"/>
  <line id="left-margin-Bold-L" style="fill:none;stroke:#00AEEF;stroke-width:0.5;opacity:1.0;" x1="2249.74" x2="2249.74" y1="1460.79" y2="1580.12"/>
  <line id="right-margin-Bold-L" style="fill:none;stroke:#00AEEF;stroke-width:0.5;opacity:1.0;" x1="2430.21" x2="2430.21" y1="1460.79" y2="1580.12"/>
  <line id="left-margin-Heavy-L" style="fill:none;stroke:#00AEEF;stroke-width:0.5;opacity:1.0;" x1="2545.58" x2="2545.58" y1="1460.79" y2="1580.12"/>
  <line id="right-margin-Heavy-L" style="fill:none;stroke:#00AEEF;stroke-width:0.5;opacity:1.0;" x1="2727.8" x2="2727.8" y1="1460.79" y2="1580.12"/>
  <line id="left-margin-Black-L" style="fill:none;stroke:#00AEEF;stroke-width:0.5;opacity:1.0;" x1="2841.51" x2="2841.51" y1="1460.79" y2="1580.12"/>
  <line id="right-margin-Black-L" style="fill:none;stroke:#00AEEF;stroke-width:0.5;opacity:1.0;" x1="3025.29" x2="3025.29" y1="1460.79" y2="1580.12"/>
 </g>
 <g id="Symbols">
  <g id="Black-L" transform="matrix(1 0 0 1 2841.51 1556)">
   <path d="M16.0645 6.05469Q16.0645 17.5293 22.0703 23.5107Q28.0762 29.4922 39.6484 29.4922L115.82 29.4922Q127.393 29.4922 133.423 23.5596Q139.453 17.627 139.453 6.10352L139.453-14.502Q139.453-15.625 140.112-15.7959Q140.771-15.9668 141.504-15.625Q142.871-14.9414 144.36-14.4287Q145.85-13.916 147.412-13.6475Q148.975-13.3789 150.635-13.3789Q157.08-13.3789 162.012-16.1621Q166.943-18.9453 169.727-23.9014Q172.51-28.8574 172.51-35.3027Q172.51-41.748 169.727-46.6797Q166.943-51.6113 162.012-54.3945Q157.08-57.1777 150.635-57.1777Q148.975-57.1777 147.412-56.9336Q145.85-56.6895 144.36-56.1768Q142.871-55.6641 141.504-54.9316Q140.771-54.5898 140.112-54.7607Q139.453-54.9316 139.453-56.0547L139.453-76.709Q139.453-88.1836 133.423-94.1162Q127.393-100.049 115.82-100.049L39.6484-100.049Q28.0762-100.049 22.0703-94.0918Q16.0645-88.1348 16.0645-76.6113L16.0645-48.9746Q16.0645-44.6777 18.7012-42.4561Q21.3379-40.2344 24.7559-40.2344Q26.9531-40.2344 29.1992-41.2598Q31.4453-42.2852 33.0078-44.3359Q34.082-45.6543 35.9863-47.4609Q37.8906-49.2676 40.7471-50.6104Q43.6035-51.9531 47.5586-51.9531Q52.2949-51.9531 56.2256-49.6094Q60.1562-47.2656 62.5244-43.2861Q64.8926-39.3066 65.0391-34.5215Q65.1855-29.6875 62.8174-25.7324Q60.4492-21.7773 56.4209-19.4092Q52.3926-17.041 47.5586-17.041Q43.6035-17.041 40.7471-18.4082Q37.8906-19.7754 35.9863-21.5576Q34.082-23.3398 33.0078-24.707Q31.4453-26.709 29.1992-27.7344Q26.9531-28.7598 24.7559-28.7598Q21.3379-28.7598 18.7012-26.5625Q16.0645-24.3652 16.0645-20.0195Z"/>
  </g>
  <g id="Heavy-L" transform="matrix(1 0 0 1 2545.58 1556)">
   <path d="M16.0645 6.29883Q16.0645 17.0898 21.7285 22.7295Q27.3926 28.3691 38.2324 28.3691L115.137 28.3691Q126.025 28.3691 131.714 22.7783Q137.402 17.1875 137.402 6.39648L137.402-15.7227Q137.402-16.7969 138.062-17.0166Q138.721-17.2363 139.551-16.7969Q141.016-15.9668 142.603-15.3076Q144.189-14.6484 145.972-14.2578Q147.754-13.8672 149.707-13.8672Q155.957-13.8672 160.742-16.6016Q165.527-19.3359 168.237-24.1455Q170.947-28.9551 170.947-35.2051Q170.947-41.4551 168.237-46.2646Q165.527-51.0742 160.742-53.7842Q155.957-56.4941 149.707-56.4941Q147.754-56.4941 145.972-56.1523Q144.189-55.8105 142.603-55.127Q141.016-54.4434 139.551-53.5645Q138.721-53.125 138.062-53.3447Q137.402-53.5645 137.402-54.6875L137.402-77.002Q137.402-87.793 131.714-93.3838Q126.025-98.9746 115.137-98.9746L38.2324-98.9746Q27.3926-98.9746 21.7285-93.3594Q16.0645-87.7441 16.0645-76.9043L16.0645-49.2676Q16.0645-45.3125 18.5303-43.1885Q20.9961-41.0645 24.2676-41.0645Q26.2695-41.0645 28.3447-41.9922Q30.4199-42.9199 31.9336-44.7754Q33.1055-46.1426 35.0098-47.8516Q36.9141-49.5605 39.6729-50.8057Q42.4316-52.0508 46.2891-52.0508Q51.0254-52.0508 54.9316-49.7314Q58.8379-47.4121 61.1816-43.457Q63.5254-39.502 63.623-34.7168Q63.7207-29.834 61.4014-25.9033Q59.082-21.9727 55.1025-19.6289Q51.123-17.2852 46.2891-17.2852Q42.4316-17.2852 39.6729-18.5547Q36.9141-19.8242 35.0098-21.5332Q33.1055-23.2422 31.9336-24.6094Q30.4199-26.4648 28.3447-27.3926Q26.2695-28.3203 24.2676-28.3203Q20.9961-28.3203 18.5303-26.2207Q16.0645-24.1211 16.0645-20.0684Z"/>
  </g>
  <g id="Bold-L" transform="matrix(1 0 0 1 2249.74 1556)">
   <path d="M16.0645 6.5918Q16.0645 16.6016 21.3379 21.875Q26.6113 27.1484 36.6699 27.1484L114.355 27.1484Q124.463 27.1484 129.785 21.9482Q135.107 16.748 135.107 6.73828L135.107-17.0898Q135.107-18.1641 135.791-18.4326Q136.475-18.7012 137.354-18.1152Q138.916-17.1387 140.649-16.2842Q142.383-15.4297 144.385-14.9414Q146.387-14.4531 148.73-14.4531Q154.688-14.4531 159.302-17.1143Q163.916-19.7754 166.553-24.4385Q169.189-29.1016 169.189-35.1074Q169.189-41.1133 166.553-45.7764Q163.916-50.4395 159.302-53.1006Q154.688-55.7617 148.73-55.7617Q146.387-55.7617 144.385-55.2734Q142.383-54.7852 140.649-53.9551Q138.916-53.125 137.354-52.0996Q136.475-51.5137 135.791-51.8066Q135.107-52.0996 135.107-53.1738L135.107-77.3926Q135.107-87.3535 129.785-92.5781Q124.463-97.8027 114.355-97.8027L36.6699-97.8027Q26.6113-97.8027 21.3379-92.5293Q16.0645-87.2559 16.0645-77.2461L16.0645-49.6582Q16.0645-45.9961 18.3594-43.9941Q20.6543-41.9922 23.6816-41.9922Q25.5371-41.9922 27.3926-42.8223Q29.248-43.6523 30.7617-45.3125Q32.0801-46.6797 33.96-48.291Q35.8398-49.9023 38.501-51.0498Q41.1621-52.1973 44.873-52.1973Q49.6582-52.1973 53.5156-49.9023Q57.373-47.6074 59.668-43.6768Q61.9629-39.7461 62.0605-34.9121Q62.1094-30.0293 59.8145-26.123Q57.5195-22.2168 53.6133-19.8975Q49.707-17.5781 44.873-17.5781Q41.1621-17.5781 38.501-18.7256Q35.8398-19.873 33.96-21.4844Q32.0801-23.0957 30.7617-24.5117Q29.248-26.1719 27.3926-27.002Q25.5371-27.832 23.6816-27.832Q20.6543-27.832 18.3594-25.8301Q16.0645-23.8281 16.0645-20.166Z"/>
  </g>
  <g id="Semibold-L" transform="matrix(1 0 0 1 1953.64 1556)">
   <path d="M16.0645 6.78711Q16.0645 16.2598 21.0449 21.2891Q26.0254 26.3184 35.5957 26.3184L113.818 26.3184Q123.389 26.3184 128.442 21.3623Q133.496 16.4062 133.496 6.93359L133.496-18.0176Q133.496-19.043 134.18-19.3604Q134.863-19.6777 135.791-19.043Q137.451-17.9199 139.282-16.9434Q141.113-15.9668 143.262-15.3809Q145.41-14.7949 147.998-14.7949Q153.76-14.7949 158.276-17.4316Q162.793-20.0684 165.381-24.6338Q167.969-29.1992 167.969-35.0586Q167.969-40.8691 165.381-45.4346Q162.793-50 158.276-52.6123Q153.76-55.2246 147.998-55.2246Q145.41-55.2246 143.262-54.6631Q141.113-54.1016 139.282-53.125Q137.451-52.1484 135.791-51.0254Q134.863-50.3906 134.18-50.708Q133.496-51.0254 133.496-52.0996L133.496-77.5879Q133.496-87.0605 128.442-92.0166Q123.389-96.9727 113.818-96.9727L35.5957-96.9727Q26.0254-96.9727 21.0449-91.9434Q16.0645-86.9141 16.0645-77.4414L16.0645-49.8535Q16.0645-46.4844 18.2129-44.5312Q20.3613-42.5781 23.291-42.5781Q25-42.5781 26.7334-43.3594Q28.4668-44.1406 29.9316-45.6543Q31.2988-47.0703 33.1787-48.6084Q35.0586-50.1465 37.6709-51.2207Q40.2832-52.2949 43.8965-52.2949Q48.6816-52.2949 52.5146-50Q56.3477-47.7051 58.6182-43.7988Q60.8887-39.8926 60.9375-35.0098Q60.9863-30.1758 58.7158-26.2695Q56.4453-22.3633 52.5635-20.0684Q48.6816-17.7734 43.8965-17.7734Q40.2832-17.7734 37.6709-18.8477Q35.0586-19.9219 33.1787-21.46Q31.2988-22.998 29.9316-24.4141Q28.4668-25.9277 26.7334-26.6846Q25-27.4414 23.291-27.4414Q20.3613-27.4414 18.2129-25.5127Q16.0645-23.584 16.0645-20.166Z"/>
  </g>
  <g id="Medium-L" transform="matrix(1 0 0 1 1657.4 1556)">
   <path d="M16.0645 6.93359Q16.0645 16.0156 20.8496 20.8252Q25.6348 25.6348 34.7656 25.6348L113.428 25.6348Q122.607 25.6348 127.441 20.8984Q132.275 16.1621 132.275 7.12891L132.275-18.7012Q132.275-19.7266 132.983-20.0684Q133.691-20.4102 134.668-19.7266Q136.328-18.5059 138.257-17.4561Q140.186-16.4062 142.432-15.7471Q144.678-15.0879 147.461-15.0879Q153.125-15.0879 157.544-17.6758Q161.963-20.2637 164.502-24.7559Q167.041-29.248 167.041-34.9609Q167.041-40.7227 164.502-45.2148Q161.963-49.707 157.544-52.2705Q153.125-54.834 147.461-54.834Q144.678-54.834 142.432-54.1992Q140.186-53.5645 138.257-52.5146Q136.328-51.4648 134.668-50.2441Q133.691-49.5605 132.983-49.9023Q132.275-50.2441 132.275-51.2695L132.275-77.7832Q132.275-86.8164 127.441-91.5771Q122.607-96.3379 113.428-96.3379L34.7656-96.3379Q25.6348-96.3379 20.8496-91.5039Q16.0645-86.6699 16.0645-77.6367L16.0645-50.0488Q16.0645-46.8262 18.1152-44.9463Q20.166-43.0664 22.998-43.0664Q24.6094-43.0664 26.2207-43.7744Q27.832-44.4824 29.2969-45.9473Q30.7617-47.3145 32.6172-48.8037Q34.4727-50.293 37.0361-51.3184Q39.5996-52.3438 43.1641-52.3438Q47.9492-52.3438 51.7822-50.0732Q55.6152-47.8027 57.8613-43.8965Q60.1074-39.9902 60.1074-35.1074Q60.1562-30.2246 57.9102-26.3428Q55.6641-22.4609 51.8066-20.1904Q47.9492-17.9199 43.1641-17.9199Q39.5996-17.9199 37.0361-18.9209Q34.4727-19.9219 32.6172-21.4355Q30.7617-22.9492 29.2969-24.3652Q27.832-25.7812 26.2207-26.4893Q24.6094-27.1973 22.998-27.1973Q20.166-27.1973 18.1152-25.3174Q16.0645-23.4375 16.0645-20.2148Z"/>
  </g>
  <g id="Regular-L" transform="matrix(1 0 0 1 1361.27 1556)">
   <path d="M16.0645 7.12891Q16.0645 15.6738 20.5811 20.2393Q25.0977 24.8047 33.6914 24.8047L112.891 24.8047Q121.533 24.8047 126.123 20.3125Q130.713 15.8203 130.713 7.32422L130.713-19.6289Q130.713-20.6543 131.421-21.0205Q132.129-21.3867 133.154-20.6055Q134.912-19.2871 136.914-18.1152Q138.916-16.9434 141.333-16.2109Q143.75-15.4785 146.777-15.4785Q152.246-15.4785 156.567-18.0176Q160.889-20.5566 163.379-24.9512Q165.869-29.3457 165.869-34.9121Q165.869-40.4785 163.379-44.873Q160.889-49.2676 156.567-51.8066Q152.246-54.3457 146.777-54.3457Q143.75-54.3457 141.333-53.6133Q138.916-52.8809 136.914-51.709Q134.912-50.5371 133.154-49.2188Q132.129-48.4375 131.421-48.8281Q130.713-49.2188 130.713-50.2441L130.713-78.0273Q130.713-86.5234 126.123-91.0156Q121.533-95.5078 112.891-95.5078L33.6914-95.5078Q25.0977-95.5078 20.5811-90.9424Q16.0645-86.377 16.0645-77.832L16.0645-50.293Q16.0645-47.3145 17.9932-45.5078Q19.9219-43.7012 22.6074-43.7012Q24.0723-43.7012 25.5615-44.3359Q27.0508-44.9707 28.4668-46.2891Q30.0293-47.7051 31.8848-49.1211Q33.7402-50.5371 36.2305-51.4893Q38.7207-52.4414 42.1875-52.4414Q46.9727-52.4414 50.7812-50.1709Q54.5898-47.9004 56.8115-44.0186Q59.0332-40.1367 59.0332-35.2539Q59.0332-30.3711 56.8115-26.4893Q54.5898-22.6074 50.7812-20.3613Q46.9727-18.1152 42.1875-18.1152Q38.7207-18.1152 36.2305-19.043Q33.7402-19.9707 31.8848-21.4111Q30.0293-22.8516 28.4668-24.2676Q27.0508-25.5859 25.5615-26.2207Q24.0723-26.8555 22.6074-26.8555Q19.9219-26.8555 17.9932-25.0488Q16.0645-23.2422 16.0645-20.2637Z"/>
  </g>
  <g id="Light-L" transform="matrix(1 0 0 1 1064.78 1556)">
   <path d="M16.0645 7.91016Q16.0645 15.4297 20.2393 19.6045Q24.4141 23.7793 32.0312 23.7793L112.939 23.7793Q120.557 23.7793 124.78 19.6533Q129.004 15.5273 129.004 8.05664L129.004-19.3359Q129.004-20.5078 129.785-20.9473Q130.566-21.3867 131.738-20.5566Q133.496-19.2383 135.522-17.9443Q137.549-16.6504 140.161-15.7959Q142.773-14.9414 146.24-14.9414Q151.855-14.9414 156.177-17.4805Q160.498-20.0195 162.964-24.4629Q165.43-28.9062 165.43-34.668Q165.43-40.4297 162.964-44.873Q160.498-49.3164 156.177-51.8555Q151.855-54.3945 146.24-54.3945Q142.773-54.3945 140.161-53.5156Q137.549-52.6367 135.522-51.3428Q133.496-50.0488 131.738-48.7305Q130.566-47.9004 129.785-48.3887Q129.004-48.877 129.004-50L129.004-78.7598Q129.004-86.2305 124.78-90.3564Q120.557-94.4824 112.939-94.4824L32.0312-94.4824Q24.4141-94.4824 20.2393-90.3076Q16.0645-86.1328 16.0645-78.6133L16.0645-50.3418Q16.0645-47.5586 17.7734-45.8496Q19.4824-44.1406 22.0215-44.1406Q23.291-44.1406 24.6094-44.7021Q25.9277-45.2637 27.2949-46.4844Q29.0039-47.9492 30.8838-49.292Q32.7637-50.6348 35.1807-51.4893Q37.5977-52.3438 40.8203-52.3438Q45.6543-52.3438 49.3896-50.1465Q53.125-47.9492 55.2734-44.0918Q57.4219-40.2344 57.4219-35.2539Q57.4219-30.2734 55.2734-26.416Q53.125-22.5586 49.3896-20.3857Q45.6543-18.2129 40.8203-18.2129Q37.5977-18.2129 35.1807-19.043Q32.7637-19.873 30.8838-21.2402Q29.0039-22.6074 27.2949-24.0723Q25.9277-25.293 24.6094-25.8545Q23.291-26.416 22.0215-26.416Q19.4824-26.416 17.7734-24.707Q16.0645-22.998 16.0645-20.166Z"/>
  </g>
  <g id="Thin-L" transform="matrix(1 0 0 1 768.361 1556)">
   <path d="M16.0645 8.98438Q16.0645 15.0879 19.7998 18.75Q23.5352 22.4121 29.7852 22.4121L112.939 22.4121Q119.238 22.4121 122.974 18.7744Q126.709 15.1367 126.709 9.0332L126.709-18.9453Q126.709-20.2637 127.637-20.8496Q128.564-21.4355 129.834-20.5078Q131.592-19.1895 133.691-17.7246Q135.791-16.2598 138.623-15.2344Q141.455-14.209 145.605-14.209Q151.318-14.209 155.664-16.7236Q160.01-19.2383 162.427-23.7549Q164.844-28.2715 164.844-34.3262Q164.844-40.332 162.427-44.8486Q160.01-49.3652 155.664-51.8799Q151.318-54.3945 145.605-54.3945Q141.455-54.3945 138.623-53.3691Q135.791-52.3438 133.691-50.9033Q131.592-49.4629 129.834-48.1445Q128.564-47.2168 127.637-47.8027Q126.709-48.3887 126.709-49.6582L126.709-79.7363Q126.709-85.8398 122.974-89.4775Q119.238-93.1152 112.939-93.1152L29.7852-93.1152Q23.5352-93.1152 19.7998-89.4531Q16.0645-85.791 16.0645-79.6875L16.0645-50.4395Q16.0645-47.9004 17.4805-46.2891Q18.8965-44.6777 21.1914-44.6777Q22.2656-44.6777 23.3643-45.166Q24.4629-45.6543 25.7812-46.7285Q27.6855-48.291 29.6143-49.5605Q31.543-50.8301 33.8379-51.5381Q36.1328-52.2461 39.0625-52.2461Q43.8965-52.2461 47.5342-50.1221Q51.1719-47.998 53.2227-44.165Q55.2734-40.332 55.2734-35.2539Q55.2734-30.1758 53.2227-26.3672Q51.1719-22.5586 47.5342-20.4346Q43.8965-18.3105 39.0625-18.3105Q36.1328-18.3105 33.8379-19.0186Q31.543-19.7266 29.6143-20.9961Q27.6855-22.2656 25.7812-23.8281Q24.4629-24.9023 23.3643-25.3906Q22.2656-25.8789 21.1914-25.8789Q18.8965-25.8789 17.4805-24.2676Q16.0645-22.6562 16.0645-20.0684Z"/>
  </g>
  <g id="Ultralight-L" transform="matrix(1 0 0 1 471.796 1556)">
   <path d="M16.0645 9.52148Q16.0645 14.9414 19.5557 18.335Q23.0469 21.7285 28.6621 21.7285L112.988 21.7285Q118.604 21.7285 122.07 18.3105Q125.537 14.8926 125.537 9.52148L125.537-18.75Q125.537-20.166 126.514-20.8008Q127.49-21.4355 128.857-20.459Q130.664-19.1406 132.764-17.6025Q134.863-16.0645 137.842-14.9658Q140.82-13.8672 145.215-13.8672Q151.074-13.8672 155.42-16.3818Q159.766-18.8965 162.158-23.4375Q164.551-27.9785 164.551-34.1309Q164.551-40.2832 162.158-44.8486Q159.766-49.4141 155.42-51.9287Q151.074-54.4434 145.215-54.4434Q140.82-54.4434 137.842-53.3203Q134.863-52.1973 132.764-50.6592Q130.664-49.1211 128.857-47.8027Q127.49-46.8262 126.514-47.4854Q125.537-48.1445 125.537-49.5117L125.537-80.2246Q125.537-85.5957 122.07-89.0137Q118.604-92.4316 112.988-92.4316L28.6621-92.4316Q23.0469-92.4316 19.5557-89.0381Q16.0645-85.6445 16.0645-80.2246L16.0645-50.4883Q16.0645-48.0957 17.334-46.5332Q18.6035-44.9707 20.8008-44.9707Q21.7773-44.9707 22.7295-45.4102Q23.6816-45.8496 24.9512-46.8262Q27.002-48.4863 28.9307-49.6826Q30.8594-50.8789 33.1055-51.5381Q35.3516-52.1973 38.1348-52.1973Q42.9688-52.1973 46.582-50.1221Q50.1953-48.0469 52.1729-44.2383Q54.1504-40.4297 54.1504-35.2539Q54.1504-30.127 52.1729-26.3184Q50.1953-22.5098 46.582-20.4346Q42.9688-18.3594 38.1348-18.3594Q35.3516-18.3594 33.1055-18.9941Q30.8594-19.6289 28.9307-20.8496Q27.002-22.0703 24.9512-23.7305Q23.6816-24.6582 22.7295-25.1221Q21.7773-25.5859 20.8008-25.5859Q18.6035-25.5859 17.334-24.0234Q16.0645-22.4609 16.0645-20.0195Z"/>
  </g>
  <g id="Black-M" transform="matrix(1 0 0 1 2861.6 1126)">
   <path d="M12.4512-3.17383Q12.4512 5.95703 17.3096 10.7422Q22.168 15.5273 31.3965 15.5273L90.332 15.5273Q99.6094 15.5273 104.443 10.7422Q109.277 5.95703 109.277-3.17383L109.277-18.0664Q109.277-18.9941 109.79-19.1162Q110.303-19.2383 110.84-18.9941Q111.865-18.6035 112.915-18.3105Q113.965-18.0176 115.088-17.8711Q116.211-17.7246 117.334-17.7246Q122.607-17.7246 126.562-19.9219Q130.518-22.1191 132.715-26.0742Q134.912-30.0293 134.912-35.2539Q134.912-40.5273 132.715-44.4824Q130.518-48.4375 126.562-50.6348Q122.607-52.832 117.334-52.832Q116.211-52.832 115.088-52.6855Q113.965-52.5391 112.915-52.2461Q111.865-51.9531 110.84-51.5137Q110.303-51.3184 109.79-51.4404Q109.277-51.5625 109.277-52.4902L109.277-67.3828Q109.277-76.5137 104.443-81.2744Q99.6094-86.0352 90.332-86.0352L31.3965-86.0352Q22.168-86.0352 17.3096-81.2744Q12.4512-76.5137 12.4512-67.334L12.4512-45.6543Q12.4512-42.0898 14.5752-40.332Q16.6992-38.5742 19.3848-38.5742Q21.2402-38.5742 23.0469-39.4287Q24.8535-40.2832 26.123-41.9434Q26.9043-42.9688 28.3936-44.4336Q29.8828-45.8984 32.1289-46.9971Q34.375-48.0957 37.5-48.0957Q41.1621-48.0957 44.1895-46.2646Q47.2168-44.4336 49.0723-41.333Q50.9277-38.2324 51.0742-34.5215Q51.2207-30.7617 49.3652-27.6855Q47.5098-24.6094 44.3604-22.7783Q41.2109-20.9473 37.5-20.9473Q34.375-20.9473 32.1289-22.0459Q29.8828-23.1445 28.3936-24.6094Q26.9043-26.0742 26.123-27.0996Q24.8535-28.7598 23.0469-29.6143Q21.2402-30.4688 19.3848-30.4688Q16.6992-30.4688 14.5752-28.7109Q12.4512-26.9531 12.4512-23.3887Z"/>
  </g>
  <g id="Heavy-M" transform="matrix(1 0 0 1 2565.6 1126)">
   <path d="M12.4512-3.125Q12.4512 5.56641 17.041 10.1074Q21.6309 14.6484 30.3711 14.6484L89.6484 14.6484Q98.4863 14.6484 103.052 10.1318Q107.617 5.61523 107.617-3.07617L107.617-19.2871Q107.617-20.166 108.13-20.3125Q108.643-20.459 109.229-20.166Q110.352-19.6289 111.499-19.2139Q112.646-18.7988 113.916-18.5547Q115.186-18.3105 116.553-18.3105Q121.582-18.3105 125.391-20.459Q129.199-22.6074 131.323-26.416Q133.447-30.2246 133.447-35.2539Q133.447-40.2344 131.323-44.0674Q129.199-47.9004 125.391-50.0488Q121.582-52.1973 116.553-52.1973Q115.186-52.1973 113.916-51.9531Q112.646-51.709 111.499-51.2939Q110.352-50.8789 109.229-50.293Q108.643-50 108.13-50.1465Q107.617-50.293 107.617-51.1719L107.617-67.5293Q107.617-76.1719 103.052-80.6885Q98.4863-85.2051 89.6484-85.2051L30.3711-85.2051Q21.6309-85.2051 17.041-80.6885Q12.4512-76.1719 12.4512-67.4316L12.4512-45.9473Q12.4512-42.627 14.4531-40.9424Q16.4551-39.2578 19.043-39.2578Q20.752-39.2578 22.4121-40.0391Q24.0723-40.8203 25.293-42.334Q26.1719-43.4082 27.6367-44.7754Q29.1016-46.1426 31.2988-47.168Q33.4961-48.1934 36.5723-48.1934Q40.2344-48.1934 43.2373-46.3867Q46.2402-44.5801 48.0713-41.5039Q49.9023-38.4277 50.0488-34.7168Q50.1465-30.957 48.3154-27.8809Q46.4844-24.8047 43.3594-22.998Q40.2344-21.1914 36.5723-21.1914Q33.4961-21.1914 31.2988-22.2168Q29.1016-23.2422 27.6367-24.6338Q26.1719-26.0254 25.293-27.0508Q24.0723-28.5645 22.4121-29.3457Q20.752-30.127 19.043-30.127Q16.4551-30.127 14.4531-28.4424Q12.4512-26.7578 12.4512-23.4375Z"/>
  </g>
  <g id="Bold-M" transform="matrix(1 0 0 1 2269.69 1126)">
   <path d="M12.4512-3.02734Q12.4512 5.17578 16.7236 9.44824Q20.9961 13.7207 29.248 13.7207L88.916 13.7207Q97.2168 13.7207 101.489 9.47266Q105.762 5.22461 105.762-2.92969L105.762-20.7031Q105.762-21.5332 106.274-21.7041Q106.787-21.875 107.422-21.4844Q108.643-20.752 109.912-20.1904Q111.182-19.6289 112.646-19.3115Q114.111-18.9941 115.723-18.9941Q120.41-18.9941 124.072-21.0693Q127.734-23.1445 129.81-26.8311Q131.885-30.5176 131.885-35.2051Q131.885-39.9414 129.81-43.6035Q127.734-47.2656 124.072-49.3652Q120.41-51.4648 115.723-51.4648Q114.111-51.4648 112.646-51.123Q111.182-50.7812 109.912-50.2197Q108.643-49.6582 107.422-48.9258Q106.787-48.5352 106.274-48.7305Q105.762-48.9258 105.762-49.7559L105.762-67.6758Q105.762-75.8301 101.489-80.0537Q97.2168-84.2773 88.916-84.2773L29.248-84.2773Q20.9961-84.2773 16.7236-80.0293Q12.4512-75.7812 12.4512-67.5781L12.4512-46.2402Q12.4512-43.2617 14.3311-41.6748Q16.2109-40.0879 18.6523-40.0879Q20.166-40.0879 21.7041-40.7715Q23.2422-41.4551 24.4141-42.8223Q25.3906-43.8965 26.8311-45.1904Q28.2715-46.4844 30.3955-47.4121Q32.5195-48.3398 35.498-48.3398Q39.1602-48.3398 42.1875-46.5576Q45.2148-44.7754 47.0215-41.6992Q48.8281-38.623 48.877-34.9121Q48.9746-31.1523 47.168-28.1006Q45.3613-25.0488 42.2852-23.2422Q39.209-21.4355 35.498-21.4355Q32.5195-21.4355 30.3955-22.3877Q28.2715-23.3398 26.8311-24.6338Q25.3906-25.9277 24.4141-27.002Q23.2422-28.3691 21.7041-29.0527Q20.166-29.7363 18.6523-29.7363Q16.2109-29.7363 14.3311-28.125Q12.4512-26.5137 12.4512-23.5352Z"/>
  </g>
  <g id="Semibold-M" transform="matrix(1 0 0 1 1973.54 1126)">
   <path d="M12.4512-2.97852Q12.4512 4.88281 16.5039 8.95996Q20.5566 13.0371 28.418 13.0371L88.3789 13.0371Q96.2891 13.0371 100.391 9.00879Q104.492 4.98047 104.492-2.83203L104.492-21.6309Q104.492-22.4121 105.005-22.6318Q105.518-22.8516 106.201-22.3633Q107.422-21.5332 108.789-20.874Q110.156-20.2148 111.743-19.8242Q113.33-19.4336 115.088-19.4336Q119.629-19.4336 123.169-21.4844Q126.709-23.5352 128.735-27.0996Q130.762-30.6641 130.762-35.2051Q130.762-39.6973 128.735-43.2617Q126.709-46.8262 123.169-48.877Q119.629-50.9277 115.088-50.9277Q113.33-50.9277 111.743-50.5371Q110.156-50.1465 108.789-49.4873Q107.422-48.8281 106.201-47.998Q105.518-47.5098 105.005-47.7295Q104.492-47.9492 104.492-48.7305L104.492-67.7734Q104.492-75.5859 100.391-79.6143Q96.2891-83.6426 88.3789-83.6426L28.418-83.6426Q20.5566-83.6426 16.5039-79.5898Q12.4512-75.5371 12.4512-67.627L12.4512-46.4355Q12.4512-43.7012 14.2334-42.1631Q16.0156-40.625 18.3594-40.625Q19.7754-40.625 21.1914-41.2354Q22.6074-41.8457 23.7793-43.1641Q24.8047-44.1895 26.2451-45.4346Q27.6855-46.6797 29.7607-47.5586Q31.8359-48.4375 34.7656-48.4375Q38.4277-48.4375 41.4307-46.6553Q44.4336-44.873 46.2402-41.8213Q48.0469-38.7695 48.0957-35.0098Q48.1445-31.2988 46.3379-28.2471Q44.5312-25.1953 41.4795-23.4131Q38.4277-21.6309 34.7656-21.6309Q31.8359-21.6309 29.7607-22.5098Q27.6855-23.3887 26.2451-24.6338Q24.8047-25.8789 23.7793-26.9531Q22.6074-28.1738 21.1914-28.8086Q19.7754-29.4434 18.3594-29.4434Q16.0156-29.4434 14.2334-27.9053Q12.4512-26.3672 12.4512-23.584Z"/>
  </g>
  <g id="Medium-M" transform="matrix(1 0 0 1 1677.24 1126)">
   <path d="M12.4512-2.92969Q12.4512 4.6875 16.3574 8.59375Q20.2637 12.5 27.832 12.5L87.9883 12.5Q95.6543 12.5 99.585 8.61816Q103.516 4.73633 103.516-2.7832L103.516-22.3633Q103.516-23.0957 104.028-23.3398Q104.541-23.584 105.225-23.0469Q106.543-22.1191 107.983-21.3867Q109.424-20.6543 111.084-20.2148Q112.744-19.7754 114.648-19.7754Q118.994-19.7754 122.461-21.7773Q125.928-23.7793 127.905-27.2949Q129.883-30.8105 129.883-35.1562Q129.883-39.502 127.905-43.0176Q125.928-46.5332 122.461-48.5352Q118.994-50.5371 114.648-50.5371Q112.744-50.5371 111.084-50.0977Q109.424-49.6582 107.983-48.9258Q106.543-48.1934 105.225-47.2656Q104.541-46.7773 104.028-46.9971Q103.516-47.2168 103.516-47.9492L103.516-67.8711Q103.516-75.3906 99.585-79.2725Q95.6543-83.1543 87.9883-83.1543L27.832-83.1543Q20.2637-83.1543 16.3574-79.2236Q12.4512-75.293 12.4512-67.6758L12.4512-46.6309Q12.4512-43.9941 14.1602-42.5049Q15.8691-41.0156 18.1641-41.0156Q19.4824-41.0156 20.8252-41.6016Q22.168-42.1875 23.3398-43.4082Q24.3652-44.4336 25.8057-45.6299Q27.2461-46.8262 29.2969-47.6562Q31.3477-48.4863 34.2285-48.4863Q37.8906-48.4863 40.8936-46.7285Q43.8965-44.9707 45.6787-41.9189Q47.4609-38.8672 47.4609-35.1074Q47.5098-31.3965 45.7275-28.3691Q43.9453-25.3418 40.918-23.5352Q37.8906-21.7285 34.2285-21.7285Q31.3477-21.7285 29.2969-22.583Q27.2461-23.4375 25.8057-24.6338Q24.3652-25.8301 23.3398-26.9043Q22.168-28.0762 20.8252-28.6621Q19.4824-29.248 18.1641-29.248Q15.8691-29.248 14.1602-27.7344Q12.4512-26.2207 12.4512-23.6328Z"/>
  </g>
  <g id="Regular-M" transform="matrix(1 0 0 1 1381.07 1126)">
   <path d="M12.4512-2.88086Q12.4512 4.39453 16.1377 8.12988Q19.8242 11.8652 27.0508 11.8652L87.4512 11.8652Q94.7754 11.8652 98.5107 8.17871Q102.246 4.49219 102.246-2.68555L102.246-23.291Q102.246-24.0234 102.759-24.2676Q103.271-24.5117 104.004-23.9258Q105.371-22.9004 106.885-22.0703Q108.398-21.2402 110.181-20.7275Q111.963-20.2148 114.062-20.2148Q118.213-20.2148 121.558-22.1924Q124.902-24.1699 126.855-27.5635Q128.809-30.957 128.809-35.1562Q128.809-39.3066 126.855-42.7002Q124.902-46.0938 121.558-48.0713Q118.213-50.0488 114.062-50.0488Q111.963-50.0488 110.181-49.5361Q108.398-49.0234 106.885-48.1934Q105.371-47.3633 104.004-46.3379Q103.271-45.752 102.759-45.9961Q102.246-46.2402 102.246-46.9727L102.246-67.9688Q102.246-75.1465 98.5107-78.833Q94.7754-82.5195 87.4512-82.5195L27.0508-82.5195Q19.8242-82.5195 16.1377-78.7842Q12.4512-75.0488 12.4512-67.7734L12.4512-46.8262Q12.4512-44.4336 14.0625-42.9932Q15.6738-41.5527 17.8711-41.5527Q19.0918-41.5527 20.3369-42.0654Q21.582-42.5781 22.7051-43.7012Q23.8281-44.7754 25.2441-45.8984Q26.6602-47.0215 28.6621-47.8027Q30.6641-48.584 33.4961-48.584Q37.1582-48.584 40.1611-46.8262Q43.1641-45.0684 44.9219-42.041Q46.6797-39.0137 46.6797-35.2539Q46.6797-31.543 44.9219-28.5156Q43.1641-25.4883 40.1611-23.7061Q37.1582-21.9238 33.4961-21.9238Q30.6641-21.9238 28.6621-22.7051Q26.6602-23.4863 25.2441-24.6338Q23.8281-25.7812 22.7051-26.8555Q21.582-27.9297 20.3369-28.4424Q19.0918-28.9551 17.8711-28.9551Q15.6738-28.9551 14.0625-27.5146Q12.4512-26.0742 12.4512-23.6816Z"/>
  </g>
  <g id="Light-M" transform="matrix(1 0 0 1 1084.55 1126)">
   <path d="M12.4512-2.14844Q12.4512 4.15039 15.8447 7.54395Q19.2383 10.9375 25.5371 10.9375L87.5 10.9375Q93.8965 10.9375 97.3145 7.56836Q100.732 4.19922 100.732-2.00195L100.732-23.0469Q100.732-23.877 101.294-24.1943Q101.855-24.5117 102.734-23.877Q104.102-22.8516 105.664-21.9238Q107.227-20.9961 109.155-20.3613Q111.084-19.7266 113.574-19.7266Q117.871-19.7266 121.216-21.7041Q124.561-23.6816 126.489-27.124Q128.418-30.5664 128.418-34.9121Q128.418-39.2578 126.489-42.7002Q124.561-46.1426 121.216-48.0957Q117.871-50.0488 113.574-50.0488Q111.084-50.0488 109.155-49.4385Q107.227-48.8281 105.664-47.876Q104.102-46.9238 102.734-45.8984Q101.855-45.2637 101.294-45.5811Q100.732-45.8984 100.732-46.7773L100.732-68.6523Q100.732-74.8535 97.3145-78.2227Q93.8965-81.5918 87.5-81.5918L25.5371-81.5918Q19.2383-81.5918 15.8447-78.1982Q12.4512-74.8047 12.4512-68.5059L12.4512-46.9238Q12.4512-44.6777 13.8672-43.3105Q15.2832-41.9434 17.334-41.9434Q18.4082-41.9434 19.5068-42.4072Q20.6055-42.8711 21.6797-43.8477Q22.9004-44.9707 24.3652-46.0449Q25.8301-47.1191 27.7344-47.8271Q29.6387-48.5352 32.2754-48.5352Q35.9863-48.5352 38.916-46.8262Q41.8457-45.1172 43.5303-42.1143Q45.2148-39.1113 45.2148-35.2539Q45.2148-31.4453 43.5303-28.4424Q41.8457-25.4395 38.916-23.7061Q35.9863-21.9727 32.2754-21.9727Q29.6387-21.9727 27.7344-22.6807Q25.8301-23.3887 24.3652-24.4629Q22.9004-25.5371 21.6797-26.709Q20.6055-27.6367 19.5068-28.1006Q18.4082-28.5645 17.334-28.5645Q15.2832-28.5645 13.8672-27.1973Q12.4512-25.8301 12.4512-23.6328Z"/>
  </g>
  <g id="Thin-M" transform="matrix(1 0 0 1 788.112 1126)">
   <path d="M12.4512-1.17188Q12.4512 3.85742 15.4297 6.81152Q18.4082 9.76562 23.584 9.76562L87.5488 9.76562Q92.7246 9.76562 95.7031 6.81152Q98.6816 3.85742 98.6816-1.12305L98.6816-22.7051Q98.6816-23.6816 99.3652-24.1211Q100.049-24.5605 101.025-23.8281Q102.441-22.8516 104.028-21.7529Q105.615-20.6543 107.764-19.873Q109.912-19.0918 112.988-19.0918Q117.383-19.0918 120.752-21.0449Q124.121-22.998 126.001-26.5137Q127.881-30.0293 127.881-34.5703Q127.881-39.209 126.001-42.6758Q124.121-46.1426 120.752-48.1201Q117.383-50.0977 112.988-50.0977Q109.912-50.0977 107.764-49.3408Q105.615-48.584 104.028-47.4854Q102.441-46.3867 101.025-45.3613Q100.049-44.6777 99.3652-45.0928Q98.6816-45.5078 98.6816-46.4844L98.6816-69.5312Q98.6816-74.5117 95.7031-77.4658Q92.7246-80.4199 87.5488-80.4199L23.584-80.4199Q18.4082-80.4199 15.4297-77.4414Q12.4512-74.4629 12.4512-69.4824L12.4512-47.0215Q12.4512-44.9707 13.623-43.7012Q14.7949-42.4316 16.6016-42.4316Q17.4805-42.4316 18.3594-42.8223Q19.2383-43.2129 20.2637-44.0918Q21.7285-45.2637 23.2178-46.2646Q24.707-47.2656 26.5137-47.8516Q28.3203-48.4375 30.6641-48.4375Q34.375-48.4375 37.2314-46.7773Q40.0879-45.1172 41.6992-42.1631Q43.3105-39.209 43.3105-35.2539Q43.3105-31.3477 41.6992-28.3936Q40.0879-25.4395 37.2314-23.7549Q34.375-22.0703 30.6641-22.0703Q28.3203-22.0703 26.5137-22.6562Q24.707-23.2422 23.2178-24.2432Q21.7285-25.2441 20.2637-26.4648Q19.2383-27.2949 18.3594-27.6855Q17.4805-28.0762 16.6016-28.0762Q14.7949-28.0762 13.623-26.8066Q12.4512-25.5371 12.4512-23.5352Z"/>
  </g>
  <g id="Ultralight-M" transform="matrix(1 0 0 1 491.547 1126)">
   <path d="M12.4512-0.683594Q12.4512 3.71094 15.2344 6.4209Q18.0176 9.13086 22.5586 9.13086L87.5977 9.13086Q92.0898 9.13086 94.873 6.39648Q97.6562 3.66211 97.6562-0.683594L97.6562-22.5098Q97.6562-23.584 98.3643-24.0723Q99.0723-24.5605 100.146-23.7793Q101.562-22.8027 103.198-21.6309Q104.834-20.459 107.08-19.6045Q109.326-18.75 112.646-18.75Q117.188-18.75 120.557-20.7031Q123.926-22.6562 125.781-26.1963Q127.637-29.7363 127.637-34.4238Q127.637-39.1602 125.781-42.6758Q123.926-46.1914 120.557-48.1445Q117.188-50.0977 112.646-50.0977Q109.326-50.0977 107.08-49.2676Q104.834-48.4375 103.198-47.2656Q101.562-46.0938 100.146-45.0684Q99.0723-44.3359 98.3643-44.7998Q97.6562-45.2637 97.6562-46.3379L97.6562-69.9707Q97.6562-74.3164 94.873-77.0508Q92.0898-79.7852 87.5977-79.7852L22.5586-79.7852Q18.0176-79.7852 15.2344-77.0508Q12.4512-74.3164 12.4512-69.9707L12.4512-47.0703Q12.4512-45.1172 13.501-43.8965Q14.5508-42.6758 16.2598-42.6758Q16.9922-42.6758 17.7979-43.042Q18.6035-43.4082 19.5801-44.1895Q21.0938-45.4102 22.6074-46.3867Q24.1211-47.3633 25.8789-47.876Q27.6367-48.3887 29.8828-48.3887Q33.5938-48.3887 36.4014-46.7773Q39.209-45.166 40.7715-42.2119Q42.334-39.2578 42.334-35.2539Q42.334-31.2988 40.7715-28.3447Q39.209-25.3906 36.4014-23.7549Q33.5938-22.1191 29.8828-22.1191Q27.6367-22.1191 25.8789-22.6318Q24.1211-23.1445 22.6074-24.1211Q21.0938-25.0977 19.5801-26.3672Q18.6035-27.0996 17.7979-27.4658Q16.9922-27.832 16.2598-27.832Q14.5508-27.832 13.501-26.6113Q12.4512-25.3906 12.4512-23.4863Z"/>
  </g>
  <g id="Black-S" transform="matrix(1 0 0 1 2876.93 696)">
   <path d="M9.76562-10.1074Q9.76562-2.88086 13.623 0.927734Q17.4805 4.73633 24.8047 4.73633L70.9961 4.73633Q78.3203 4.73633 82.1777 0.927734Q86.0352-2.88086 86.0352-10.1074L86.0352-21.3867Q86.0352-22.1191 86.4502-22.2168Q86.8652-22.3145 87.2559-22.168Q88.4277-21.7285 89.6484-21.5088Q90.8691-21.2891 92.1387-21.2891Q96.3379-21.2891 99.4873-23.0225Q102.637-24.7559 104.37-27.9053Q106.104-31.0547 106.104-35.2539Q106.104-39.4531 104.37-42.6025Q102.637-45.752 99.4873-47.4854Q96.3379-49.2188 92.1387-49.2188Q90.8691-49.2188 89.6484-48.999Q88.4277-48.7793 87.2559-48.3398Q86.8652-48.1934 86.4502-48.291Q86.0352-48.3887 86.0352-49.1211L86.0352-60.4004Q86.0352-67.6758 82.1777-71.46Q78.3203-75.2441 70.9961-75.2441L24.8047-75.2441Q17.4805-75.2441 13.623-71.46Q9.76562-67.6758 9.76562-60.4004L9.76562-43.3105Q9.76562-40.4785 11.4502-39.0625Q13.1348-37.6465 15.2832-37.6465Q16.748-37.6465 18.2129-38.3301Q19.6777-39.0137 20.6543-40.3809Q21.5332-41.6016 23.7305-43.4326Q25.9277-45.2637 29.5898-45.2637Q33.9355-45.2637 36.9873-42.1387Q40.0391-39.0137 40.2344-34.6191Q40.3809-31.6895 38.916-29.2725Q37.4512-26.8555 34.9854-25.415Q32.5195-23.9746 29.5898-23.9746Q25.9277-23.9746 23.7305-25.8057Q21.5332-27.6367 20.6543-28.8574Q19.6777-30.2246 18.2129-30.9082Q16.748-31.5918 15.2832-31.5918Q13.1348-31.5918 11.4502-30.2002Q9.76562-28.8086 9.76562-25.9277Z"/>
  </g>
  <g id="Heavy-S" transform="matrix(1 0 0 1 2580.81 696)">
   <path d="M9.76562-10.1562Q9.76562-3.17383 13.4277 0.463867Q17.0898 4.10156 24.1211 4.10156L70.4102 4.10156Q77.4414 4.10156 81.1279 0.488281Q84.8145-3.125 84.8145-10.1074L84.8145-22.4609Q84.8145-23.1445 85.2295-23.2666Q85.6445-23.3887 86.0352-23.1934Q87.3047-22.5586 88.6719-22.2168Q90.0391-21.875 91.5527-21.875Q95.5078-21.875 98.5352-23.5596Q101.562-25.2441 103.247-28.2715Q104.932-31.2988 104.932-35.2539Q104.932-39.209 103.247-42.2363Q101.562-45.2637 98.5352-46.9482Q95.5078-48.6328 91.5527-48.6328Q90.0391-48.6328 88.6719-48.291Q87.3047-47.9492 86.0352-47.3633Q85.6445-47.1191 85.2295-47.2412Q84.8145-47.3633 84.8145-48.0469L84.8145-60.4492Q84.8145-67.4316 81.1279-71.0449Q77.4414-74.6582 70.4102-74.6582L24.1211-74.6582Q17.0898-74.6582 13.4277-71.0205Q9.76562-67.3828 9.76562-60.4004L9.76562-43.5547Q9.76562-40.918 11.377-39.5508Q12.9883-38.1836 15.0391-38.1836Q16.4062-38.1836 17.7734-38.8184Q19.1406-39.4531 20.1172-40.7227Q21.0449-41.9434 23.1689-43.6523Q25.293-45.3613 28.9551-45.3613Q33.3008-45.3613 36.3525-42.2607Q39.4043-39.1602 39.5508-34.7656Q39.6484-31.8359 38.1836-29.4434Q36.7188-27.0508 34.2773-25.6104Q31.8359-24.1699 28.9551-24.1699Q25.293-24.1699 23.1689-25.8789Q21.0449-27.5879 20.1172-28.8086Q19.1406-30.0781 17.7734-30.7129Q16.4062-31.3477 15.0391-31.3477Q12.9883-31.3477 11.377-30.0049Q9.76562-28.6621 9.76562-25.9766Z"/>
  </g>
  <g id="Bold-S" transform="matrix(1 0 0 1 2284.75 696)">
   <path d="M9.76562-10.2051Q9.76562-3.51562 13.2324-0.0488281Q16.6992 3.41797 23.3887 3.41797L69.7754 3.41797Q76.5137 3.41797 79.9805 0Q83.4473-3.41797 83.4473-10.1074L83.4473-23.6816Q83.4473-24.3164 83.8379-24.4385Q84.2285-24.5605 84.7168-24.3164Q86.084-23.4863 87.6221-22.998Q89.1602-22.5098 90.8691-22.5098Q94.5801-22.5098 97.4609-24.1455Q100.342-25.7812 101.978-28.6865Q103.613-31.5918 103.613-35.2539Q103.613-38.9648 101.978-41.8457Q100.342-44.7266 97.4609-46.3867Q94.5801-48.0469 90.8691-48.0469Q89.1602-48.0469 87.6221-47.5586Q86.084-47.0703 84.7168-46.2402Q84.2285-45.9473 83.8379-46.0938Q83.4473-46.2402 83.4473-46.8262L83.4473-60.498Q83.4473-67.1875 79.9805-70.5811Q76.5137-73.9746 69.7754-73.9746L23.3887-73.9746Q16.6992-73.9746 13.2324-70.5322Q9.76562-67.0898 9.76562-60.4004L9.76562-43.7988Q9.76562-41.4062 11.2793-40.1123Q12.793-38.8184 14.7949-38.8184Q16.0156-38.8184 17.2852-39.3799Q18.5547-39.9414 19.4824-41.1133Q20.5566-42.334 22.6074-43.9209Q24.6582-45.5078 28.2227-45.5078Q32.5684-45.5078 35.6201-42.4072Q38.6719-39.3066 38.7695-34.9609Q38.8184-32.0312 37.3779-29.6387Q35.9375-27.2461 33.5205-25.8057Q31.1035-24.3652 28.2227-24.3652Q24.6582-24.3652 22.6074-25.9766Q20.5566-27.5879 19.4824-28.8086Q18.5547-29.9316 17.2852-30.4932Q16.0156-31.0547 14.7949-31.0547Q12.793-31.0547 11.2793-29.7852Q9.76562-28.5156 9.76562-26.0742Z"/>
  </g>
  <g id="Semibold-S" transform="matrix(1 0 0 1 1988.51 696)">
   <path d="M9.76562-10.2051Q9.76562-3.71094 13.0615-0.390625Q16.3574 2.92969 22.8516 2.92969L69.2871 2.92969Q75.8301 2.92969 79.1748-0.341797Q82.5195-3.61328 82.5195-10.0586L82.5195-24.5117Q82.5195-25.0977 82.8857-25.2441Q83.252-25.3906 83.7402-25.0488Q85.2051-24.0723 86.8652-23.4863Q88.5254-22.9004 90.4297-22.9004Q93.8965-22.9004 96.6797-24.5361Q99.4629-26.1719 101.074-28.9551Q102.686-31.7383 102.686-35.2539Q102.686-38.7695 101.074-41.5527Q99.4629-44.3359 96.6797-45.9717Q93.8965-47.6074 90.4297-47.6074Q88.5254-47.6074 86.8652-47.0215Q85.2051-46.4355 83.7402-45.459Q83.252-45.1172 82.8857-45.2637Q82.5195-45.4102 82.5195-45.9961L82.5195-60.498Q82.5195-66.9922 79.1748-70.2637Q75.8301-73.5352 69.2871-73.5352L22.8516-73.5352Q16.3574-73.5352 13.0615-70.2148Q9.76562-66.8945 9.76562-60.3516L9.76562-43.9941Q9.76562-41.748 11.2061-40.5029Q12.6465-39.2578 14.5996-39.2578Q15.7715-39.2578 16.9434-39.7705Q18.1152-40.2832 19.043-41.3574Q20.166-42.5781 22.168-44.0918Q24.1699-45.6055 27.6855-45.6055Q32.0312-45.6055 35.083-42.5049Q38.1348-39.4043 38.1836-35.0586Q38.2324-32.1777 36.8164-29.7607Q35.4004-27.3438 32.9834-25.9277Q30.5664-24.5117 27.6855-24.5117Q24.1699-24.5117 22.168-26.0254Q20.166-27.5391 19.043-28.7598Q18.1152-29.834 16.9434-30.3467Q15.7715-30.8594 14.5996-30.8594Q12.6465-30.8594 11.2061-29.6143Q9.76562-28.3691 9.76562-26.123Z"/>
  </g>
  <g id="Medium-S" transform="matrix(1 0 0 1 1692.14 696)">
   <path d="M9.76562-10.2051Q9.76562-3.90625 12.9639-0.65918Q16.1621 2.58789 22.4609 2.58789L68.9453 2.58789Q75.293 2.58789 78.54-0.585938Q81.7871-3.75977 81.7871-10.0586L81.7871-25.1465Q81.7871-25.7324 82.1533-25.8545Q82.5195-25.9766 83.0566-25.6348Q84.5215-24.5605 86.3037-23.9014Q88.0859-23.2422 90.0391-23.2422Q93.4082-23.2422 96.1182-24.8291Q98.8281-26.416 100.415-29.1504Q102.002-31.8848 102.002-35.2539Q102.002-38.6719 100.415-41.3818Q98.8281-44.0918 96.1182-45.6787Q93.4082-47.2656 90.0391-47.2656Q88.0859-47.2656 86.3037-46.6064Q84.5215-45.9473 83.0566-44.873Q82.5195-44.5312 82.1533-44.6777Q81.7871-44.8242 81.7871-45.3613L81.7871-60.498Q81.7871-66.8457 78.54-69.9951Q75.293-73.1445 68.9453-73.1445L22.4609-73.1445Q16.1621-73.1445 12.9639-69.9219Q9.76562-66.6992 9.76562-60.3516L9.76562-44.0918Q9.76562-41.9922 11.1816-40.7715Q12.5977-39.5508 14.4531-39.5508Q15.5273-39.5508 16.6504-40.0391Q17.7734-40.5273 18.75-41.5527Q19.873-42.7734 21.8506-44.2139Q23.8281-45.6543 27.2949-45.6543Q31.6406-45.6543 34.6924-42.5781Q37.7441-39.502 37.793-35.1562Q37.8418-32.2266 36.4014-29.834Q34.9609-27.4414 32.5684-26.0254Q30.1758-24.6094 27.2949-24.6094Q23.8281-24.6094 21.8506-26.0742Q19.873-27.5391 18.75-28.7598Q17.7734-29.7363 16.6504-30.2246Q15.5273-30.7129 14.4531-30.7129Q12.5977-30.7129 11.1816-29.4922Q9.76562-28.2715 9.76562-26.1719Z"/>
  </g>
  <g id="Regular-S" transform="matrix(1 0 0 1 1395.86 696)">
   <path d="M9.76562-10.2539Q9.76562-4.10156 12.8174-1.00098Q15.8691 2.09961 21.9238 2.09961L68.5059 2.09961Q74.6582 2.09961 77.7588-0.927734Q80.8594-3.95508 80.8594-10.0586L80.8594-25.9766Q80.8594-26.5137 81.2256-26.6602Q81.5918-26.8066 82.1289-26.416Q83.6914-25.1953 85.5713-24.4385Q87.4512-23.6816 89.5996-23.6816Q92.7734-23.6816 95.3857-25.2441Q97.998-26.8066 99.5605-29.4434Q101.123-32.0801 101.123-35.2539Q101.123-38.4766 99.5605-41.0889Q97.998-43.7012 95.3857-45.2637Q92.7734-46.8262 89.5996-46.8262Q87.4512-46.8262 85.5713-46.0693Q83.6914-45.3125 82.1289-44.1406Q81.5918-43.7012 81.2256-43.8721Q80.8594-44.043 80.8594-44.5312L80.8594-60.5469Q80.8594-66.6504 77.7588-69.6777Q74.6582-72.7051 68.5059-72.7051L21.9238-72.7051Q15.8691-72.7051 12.8174-69.6045Q9.76562-66.5039 9.76562-60.3516L9.76562-44.2871Q9.76562-42.334 11.1084-41.1621Q12.4512-39.9902 14.2578-39.9902Q15.2832-39.9902 16.333-40.4297Q17.3828-40.8691 18.3105-41.7969Q19.5312-43.0176 21.4355-44.3848Q23.3398-45.752 26.8066-45.752Q31.1523-45.752 34.2041-42.6758Q37.2559-39.5996 37.2559-35.2539Q37.2559-32.373 35.8398-29.9805Q34.4238-27.5879 32.0557-26.1719Q29.6875-24.7559 26.8066-24.7559Q23.3398-24.7559 21.4355-26.123Q19.5312-27.4902 18.3105-28.7109Q17.3828-29.6387 16.333-30.0781Q15.2832-30.5176 14.2578-30.5176Q12.4512-30.5176 11.1084-29.3457Q9.76562-28.1738 9.76562-26.2207Z"/>
  </g>
  <g id="Light-S" transform="matrix(1 0 0 1 1099.32 696)">
   <path d="M9.76562-9.61914Q9.76562-4.29688 12.5488-1.48926Q15.332 1.31836 20.6055 1.31836L68.5547 1.31836Q73.877 1.31836 76.6846-1.44043Q79.4922-4.19922 79.4922-9.47266L79.4922-25.7812Q79.4922-26.3672 79.9316-26.5869Q80.3711-26.8066 80.957-26.3672Q82.5684-25.1465 84.5215-24.1943Q86.4746-23.2422 89.1602-23.2422Q92.4805-23.2422 95.0928-24.8047Q97.7051-26.3672 99.2432-29.0527Q100.781-31.7383 100.781-35.0586Q100.781-38.4277 99.2432-41.0889Q97.7051-43.75 95.0928-45.2881Q92.4805-46.8262 89.1602-46.8262Q86.4746-46.8262 84.5215-45.874Q82.5684-44.9219 80.957-43.75Q80.3711-43.2617 79.9316-43.5059Q79.4922-43.75 79.4922-44.3359L79.4922-61.1328Q79.4922-66.4062 76.6846-69.165Q73.877-71.9238 68.5547-71.9238L20.6055-71.9238Q15.332-71.9238 12.5488-69.1162Q9.76562-66.3086 9.76562-60.9863L9.76562-44.3359Q9.76562-42.5293 10.9375-41.4307Q12.1094-40.332 13.7695-40.332Q14.6973-40.332 15.6006-40.7227Q16.5039-41.1133 17.3828-41.9434Q18.7988-43.2129 20.6787-44.458Q22.5586-45.7031 25.7324-45.7031Q30.0781-45.7031 33.0322-42.7002Q35.9863-39.6973 35.9863-35.2539Q35.9863-32.2754 34.6191-29.9316Q33.252-27.5879 30.9326-26.1963Q28.6133-24.8047 25.7324-24.8047Q22.5586-24.8047 20.6787-26.0498Q18.7988-27.2949 17.3828-28.5645Q16.5039-29.3945 15.6006-29.7852Q14.6973-30.1758 13.7695-30.1758Q12.1094-30.1758 10.9375-29.0771Q9.76562-27.9785 9.76562-26.1719Z"/>
  </g>
  <g id="Thin-S" transform="matrix(1 0 0 1 802.858 696)">
   <path d="M9.76562-8.74023Q9.76562-4.54102 12.1826-2.14844Q14.5996 0.244141 18.8477 0.244141L68.5547 0.244141Q72.8516 0.244141 75.2686-2.14844Q77.6855-4.54102 77.6855-8.69141L77.6855-25.4883Q77.6855-26.2207 78.2227-26.5381Q78.7598-26.8555 79.4434-26.3184Q81.1035-25.1465 83.1543-23.9258Q85.2051-22.7051 88.623-22.7051Q92.0898-22.7051 94.7021-24.2432Q97.3145-25.7812 98.8037-28.5156Q100.293-31.25 100.293-34.8145Q100.293-38.3301 98.8037-41.04Q97.3145-43.75 94.7021-45.3125Q92.0898-46.875 88.623-46.875Q85.2051-46.875 83.1543-45.6543Q81.1035-44.4336 79.4434-43.2617Q78.7598-42.7246 78.2227-43.042Q77.6855-43.3594 77.6855-44.0918L77.6855-61.9141Q77.6855-66.0645 75.2686-68.457Q72.8516-70.8496 68.5547-70.8496L18.8477-70.8496Q14.5996-70.8496 12.1826-68.457Q9.76562-66.0645 9.76562-61.8652L9.76562-44.4336Q9.76562-42.8223 10.7178-41.7969Q11.6699-40.7715 13.1348-40.7715Q13.8672-40.7715 14.5996-41.1133Q15.332-41.4551 16.1621-42.0898Q17.8223-43.5059 19.6533-44.5557Q21.4844-45.6055 24.3164-45.6055Q28.7109-45.6055 31.4941-42.7002Q34.2773-39.7949 34.2773-35.2539Q34.2773-32.1777 33.0078-29.8584Q31.7383-27.5391 29.4922-26.2207Q27.2461-24.9023 24.3164-24.9023Q21.4844-24.9023 19.6533-25.9521Q17.8223-27.002 16.1621-28.418Q15.332-29.0527 14.5996-29.3945Q13.8672-29.7363 13.1348-29.7363Q11.6699-29.7363 10.7178-28.7109Q9.76562-27.6855 9.76562-26.0742Z"/>
  </g>
  <g id="Ultralight-S" transform="matrix(1 0 0 1 506.269 696)">
   <path d="M9.76562-8.30078Q9.76562-4.6875 12.0117-2.49023Q14.2578-0.292969 17.9199-0.292969L68.6035-0.292969Q72.3145-0.292969 74.5361-2.49023Q76.7578-4.6875 76.7578-8.30078L76.7578-25.3418Q76.7578-26.123 77.3438-26.4893Q77.9297-26.8555 78.6621-26.2695Q80.3223-25.0977 82.4219-23.7549Q84.5215-22.4121 88.3301-22.4121Q91.8457-22.4121 94.4824-23.9502Q97.1191-25.4883 98.584-28.2471Q100.049-31.0059 100.049-34.668Q100.049-38.2812 98.584-41.04Q97.1191-43.7988 94.4824-45.3369Q91.8457-46.875 88.3301-46.875Q84.5215-46.875 82.4219-45.5322Q80.3223-44.1895 78.6621-43.0176Q77.9297-42.4316 77.3438-42.7979Q76.7578-43.1641 76.7578-43.9941L76.7578-62.3047Q76.7578-65.918 74.5361-68.1152Q72.3145-70.3125 68.6035-70.3125L17.9199-70.3125Q14.2578-70.3125 12.0117-68.1152Q9.76562-65.918 9.76562-62.3047L9.76562-44.4824Q9.76562-42.9688 10.6201-41.9678Q11.4746-40.9668 12.793-40.9668Q13.4766-40.9668 14.1113-41.2842Q14.7461-41.6016 15.5273-42.1875Q17.2852-43.6523 19.1162-44.6045Q20.9473-45.5566 23.584-45.5566Q27.9785-45.5566 30.6885-42.7246Q33.3984-39.8926 33.3984-35.2539Q33.3984-32.1289 32.1533-29.834Q30.9082-27.5391 28.7109-26.2451Q26.5137-24.9512 23.584-24.9512Q20.9473-24.9512 19.1162-25.9033Q17.2852-26.8555 15.5273-28.3203Q14.7461-28.9062 14.1113-29.2236Q13.4766-29.541 12.793-29.541Q11.4746-29.541 10.6201-28.54Q9.76562-27.5391 9.76562-26.0254Z"/>
  </g>
 </g>
</svg>
