<?xml version="1.0" encoding="UTF-8"?>
<!--Generator: Apple Native CoreSVG 175-->
<!DOCTYPE svg
PUBLIC "-//W3C//DTD SVG 1.1//EN"
       "http://www.w3.org/Graphics/SVG/1.1/DTD/svg11.dtd">
<svg version="1.1" xmlns="http://www.w3.org/2000/svg" xmlns:xlink="http://www.w3.org/1999/xlink" width="3300" height="2200">
 <!--glyph: "uni100AD4.medium", point size: 100.0, font version: "17.0d11e1", template writer version: "65.1"-->
 <g id="Notes">
  <rect height="2200" id="artboard" style="fill:white;opacity:1" width="3300" x="0" y="0"/>
  <line style="fill:none;stroke:black;opacity:1;stroke-width:0.5;" x1="263" x2="3036" y1="292" y2="292"/>
  <text style="stroke:none;fill:black;font-family:sans-serif;font-size:13;font-weight:bold;" transform="matrix(1 0 0 1 263 322)">Weight/Scale Variations</text>
  <text style="stroke:none;fill:black;font-family:sans-serif;font-size:13;text-anchor:middle;" transform="matrix(1 0 0 1 559.711 322)">Ultralight</text>
  <text style="stroke:none;fill:black;font-family:sans-serif;font-size:13;text-anchor:middle;" transform="matrix(1 0 0 1 856.422 322)">Thin</text>
  <text style="stroke:none;fill:black;font-family:sans-serif;font-size:13;text-anchor:middle;" transform="matrix(1 0 0 1 1153.13 322)">Light</text>
  <text style="stroke:none;fill:black;font-family:sans-serif;font-size:13;text-anchor:middle;" transform="matrix(1 0 0 1 1449.84 322)">Regular</text>
  <text style="stroke:none;fill:black;font-family:sans-serif;font-size:13;text-anchor:middle;" transform="matrix(1 0 0 1 1746.56 322)">Medium</text>
  <text style="stroke:none;fill:black;font-family:sans-serif;font-size:13;text-anchor:middle;" transform="matrix(1 0 0 1 2043.27 322)">Semibold</text>
  <text style="stroke:none;fill:black;font-family:sans-serif;font-size:13;text-anchor:middle;" transform="matrix(1 0 0 1 2339.98 322)">Bold</text>
  <text style="stroke:none;fill:black;font-family:sans-serif;font-size:13;text-anchor:middle;" transform="matrix(1 0 0 1 2636.69 322)">Heavy</text>
  <text style="stroke:none;fill:black;font-family:sans-serif;font-size:13;text-anchor:middle;" transform="matrix(1 0 0 1 2933.4 322)">Black</text>
  <line style="fill:none;stroke:black;opacity:1;stroke-width:0.5;" x1="263" x2="3036" y1="1903" y2="1903"/>
  <g transform="matrix(1 0 0 1 263 1933)">
   <path d="M9.24805 0.830078Q10.8691 0.830078 12.2949 0.214844Q13.7207-0.400391 14.8096-1.49414Q15.8984-2.58789 16.5186-4.01367Q17.1387-5.43945 17.1387-7.05078Q17.1387-8.66211 16.5186-10.0879Q15.8984-11.5137 14.8047-12.6074Q13.7109-13.7012 12.2852-14.3164Q10.8594-14.9316 9.23828-14.9316Q7.62695-14.9316 6.20117-14.3164Q4.77539-13.7012 3.69141-12.6074Q2.60742-11.5137 1.9873-10.0879Q1.36719-8.66211 1.36719-7.05078Q1.36719-5.43945 1.9873-4.01367Q2.60742-2.58789 3.69629-1.49414Q4.78516-0.400391 6.21094 0.214844Q7.63672 0.830078 9.24805 0.830078ZM9.24805-0.654297Q7.91992-0.654297 6.7627-1.14746Q5.60547-1.64062 4.73145-2.51953Q3.85742-3.39844 3.36426-4.56055Q2.87109-5.72266 2.87109-7.05078Q2.87109-8.37891 3.35938-9.54102Q3.84766-10.7031 4.72168-11.582Q5.5957-12.4609 6.75293-12.9541Q7.91016-13.4473 9.23828-13.4473Q10.5762-13.4473 11.7334-12.9541Q12.8906-12.4609 13.7695-11.582Q14.6484-10.7031 15.1465-9.54102Q15.6445-8.37891 15.6445-7.05078Q15.6445-5.72266 15.1514-4.56055Q14.6582-3.39844 13.7842-2.51953Q12.9102-1.64062 11.748-1.14746Q10.5859-0.654297 9.24805-0.654297ZM5.6543-7.05078Q5.6543-6.72852 5.85938-6.52832Q6.06445-6.32812 6.40625-6.32812L8.51562-6.32812L8.51562-4.20898Q8.51562-3.88672 8.71094-3.67676Q8.90625-3.4668 9.23828-3.4668Q9.56055-3.4668 9.77051-3.67676Q9.98047-3.88672 9.98047-4.20898L9.98047-6.32812L12.0898-6.32812Q12.4219-6.32812 12.627-6.52832Q12.832-6.72852 12.832-7.05078Q12.832-7.38281 12.627-7.58789Q12.4219-7.79297 12.0898-7.79297L9.98047-7.79297L9.98047-9.90234Q9.98047-10.2344 9.77051-10.4443Q9.56055-10.6543 9.23828-10.6543Q8.90625-10.6543 8.71094-10.4443Q8.51562-10.2344 8.51562-9.90234L8.51562-7.79297L6.40625-7.79297Q6.06445-7.79297 5.85938-7.58789Q5.6543-7.38281 5.6543-7.05078Z"/>
  </g>
  <g transform="matrix(1 0 0 1 281.867 1933)">
   <path d="M11.709 2.91016Q13.75 2.91016 15.5518 2.12891Q17.3535 1.34766 18.7305-0.0292969Q20.1074-1.40625 20.8887-3.20801Q21.6699-5.00977 21.6699-7.05078Q21.6699-9.0918 20.8887-10.8936Q20.1074-12.6953 18.7305-14.0723Q17.3535-15.4492 15.5469-16.2305Q13.7402-17.0117 11.6992-17.0117Q9.6582-17.0117 7.85645-16.2305Q6.05469-15.4492 4.68262-14.0723Q3.31055-12.6953 2.5293-10.8936Q1.74805-9.0918 1.74805-7.05078Q1.74805-5.00977 2.5293-3.20801Q3.31055-1.40625 4.6875-0.0292969Q6.06445 1.34766 7.86621 2.12891Q9.66797 2.91016 11.709 2.91016ZM11.709 1.25Q9.98047 1.25 8.47656 0.605469Q6.97266-0.0390625 5.83496-1.17676Q4.69727-2.31445 4.05762-3.81836Q3.41797-5.32227 3.41797-7.05078Q3.41797-8.7793 4.05762-10.2832Q4.69727-11.7871 5.83008-12.9297Q6.96289-14.0723 8.4668-14.7119Q9.9707-15.3516 11.6992-15.3516Q13.4277-15.3516 14.9316-14.7119Q16.4355-14.0723 17.5781-12.9297Q18.7207-11.7871 19.3652-10.2832Q20.0098-8.7793 20.0098-7.05078Q20.0098-5.32227 19.3701-3.81836Q18.7305-2.31445 17.5928-1.17676Q16.4551-0.0390625 14.9463 0.605469Q13.4375 1.25 11.709 1.25ZM7.17773-7.05078Q7.17773-6.69922 7.41211-6.47461Q7.64648-6.25 8.01758-6.25L10.8887-6.25L10.8887-3.36914Q10.8887-2.99805 11.1133-2.76855Q11.3379-2.53906 11.6895-2.53906Q12.0605-2.53906 12.29-2.76855Q12.5195-2.99805 12.5195-3.36914L12.5195-6.25L15.4004-6.25Q15.7715-6.25 16.001-6.47461Q16.2305-6.69922 16.2305-7.05078Q16.2305-7.42188 16.001-7.65137Q15.7715-7.88086 15.4004-7.88086L12.5195-7.88086L12.5195-10.752Q12.5195-11.1328 12.29-11.3623Q12.0605-11.5918 11.6895-11.5918Q11.3379-11.5918 11.1133-11.3574Q10.8887-11.123 10.8887-10.752L10.8887-7.88086L8.01758-7.88086Q7.63672-7.88086 7.40723-7.65137Q7.17773-7.42188 7.17773-7.05078Z"/>
  </g>
  <g transform="matrix(1 0 0 1 305.646 1933)">
   <path d="M14.9707 5.66406Q17.0605 5.66406 18.96 5.01465Q20.8594 4.36523 22.4512 3.19336Q24.043 2.02148 25.2197 0.429688Q26.3965-1.16211 27.0459-3.06641Q27.6953-4.9707 27.6953-7.05078Q27.6953-9.14062 27.0459-11.04Q26.3965-12.9395 25.2197-14.5312Q24.043-16.123 22.4512-17.2998Q20.8594-18.4766 18.9551-19.126Q17.0508-19.7754 14.9609-19.7754Q12.8711-19.7754 10.9717-19.126Q9.07227-18.4766 7.48535-17.2998Q5.89844-16.123 4.72168-14.5312Q3.54492-12.9395 2.90039-11.04Q2.25586-9.14062 2.25586-7.05078Q2.25586-4.9707 2.90527-3.06641Q3.55469-1.16211 4.72656 0.429688Q5.89844 2.02148 7.49023 3.19336Q9.08203 4.36523 10.9814 5.01465Q12.8809 5.66406 14.9707 5.66406ZM14.9707 3.84766Q13.1641 3.84766 11.5283 3.2959Q9.89258 2.74414 8.53516 1.74805Q7.17773 0.751953 6.17676-0.610352Q5.17578-1.97266 4.62891-3.6084Q4.08203-5.24414 4.08203-7.05078Q4.08203-8.86719 4.62891-10.5029Q5.17578-12.1387 6.17188-13.501Q7.16797-14.8633 8.52539-15.8594Q9.88281-16.8555 11.5186-17.4023Q13.1543-17.9492 14.9609-17.9492Q16.7773-17.9492 18.4131-17.4023Q20.0488-16.8555 21.4111-15.8594Q22.7734-14.8633 23.7695-13.501Q24.7656-12.1387 25.3174-10.5029Q25.8691-8.86719 25.8691-7.05078Q25.8789-5.24414 25.332-3.6084Q24.7852-1.97266 23.7842-0.610352Q22.7832 0.751953 21.4209 1.74805Q20.0586 2.74414 18.4229 3.2959Q16.7871 3.84766 14.9707 3.84766ZM9.19922-7.05078Q9.19922-6.66992 9.45801-6.4209Q9.7168-6.17188 10.1172-6.17188L14.0625-6.17188L14.0625-2.2168Q14.0625-1.81641 14.3115-1.55762Q14.5605-1.29883 14.9512-1.29883Q15.3516-1.29883 15.6104-1.55273Q15.8691-1.80664 15.8691-2.2168L15.8691-6.17188L19.8242-6.17188Q20.2246-6.17188 20.4785-6.4209Q20.7324-6.66992 20.7324-7.05078Q20.7324-7.46094 20.4785-7.71484Q20.2246-7.96875 19.8242-7.96875L15.8691-7.96875L15.8691-11.9141Q15.8691-12.3242 15.6104-12.583Q15.3516-12.8418 14.9512-12.8418Q14.5605-12.8418 14.3115-12.583Q14.0625-12.3242 14.0625-11.9141L14.0625-7.96875L10.1172-7.96875Q9.70703-7.96875 9.45312-7.71484Q9.19922-7.46094 9.19922-7.05078Z"/>
  </g>
  <text style="stroke:none;fill:black;font-family:sans-serif;font-size:13;font-weight:bold;" transform="matrix(1 0 0 1 263 1953)">Design Variations</text>
  <text style="stroke:none;fill:black;font-family:sans-serif;font-size:13;" transform="matrix(1 0 0 1 263 1971)">Symbols are supported in up to nine weights and three scales.</text>
  <text style="stroke:none;fill:black;font-family:sans-serif;font-size:13;" transform="matrix(1 0 0 1 263 1989)">For optimal layout with text and other symbols, vertically align</text>
  <text style="stroke:none;fill:black;font-family:sans-serif;font-size:13;" transform="matrix(1 0 0 1 263 2007)">symbols with the adjacent text.</text>
  <line style="fill:none;stroke:#00AEEF;stroke-width:0.5;opacity:1.0;" x1="776" x2="776" y1="1919" y2="1933"/>
  <g transform="matrix(1 0 0 1 776 1933)">
   <path d="M3.31055 0.15625Q3.70117 0.15625 3.91602-0.00976562Q4.13086-0.175781 4.26758-0.585938L5.52734-4.0332L11.2891-4.0332L12.5488-0.585938Q12.6855-0.175781 12.9004-0.00976562Q13.1152 0.15625 13.4961 0.15625Q13.8867 0.15625 14.1162-0.0585938Q14.3457-0.273438 14.3457-0.644531Q14.3457-0.869141 14.2383-1.17188L9.6582-13.3691Q9.48242-13.8184 9.17969-14.043Q8.87695-14.2676 8.4082-14.2676Q7.5-14.2676 7.17773-13.3789L2.59766-1.16211Q2.49023-0.859375 2.49023-0.634766Q2.49023-0.263672 2.70996-0.0537109Q2.92969 0.15625 3.31055 0.15625ZM6.00586-5.51758L8.37891-12.0898L8.42773-12.0898L10.8008-5.51758Z"/>
  </g>
  <line style="fill:none;stroke:#00AEEF;stroke-width:0.5;opacity:1.0;" x1="793.197" x2="793.197" y1="1919" y2="1933"/>
  <text style="stroke:none;fill:black;font-family:sans-serif;font-size:13;font-weight:bold;" transform="matrix(1 0 0 1 776 1953)">Margins</text>
  <text style="stroke:none;fill:black;font-family:sans-serif;font-size:13;" transform="matrix(1 0 0 1 776 1971)">Leading and trailing margins on the left and right side of each symbol</text>
  <text style="stroke:none;fill:black;font-family:sans-serif;font-size:13;" transform="matrix(1 0 0 1 776 1989)">can be adjusted by modifying the x-location of the margin guidelines.</text>
  <text style="stroke:none;fill:black;font-family:sans-serif;font-size:13;" transform="matrix(1 0 0 1 776 2007)">Modifications are automatically applied proportionally to all</text>
  <text style="stroke:none;fill:black;font-family:sans-serif;font-size:13;" transform="matrix(1 0 0 1 776 2025)">scales and weights.</text>
  <g transform="matrix(1 0 0 1 1289 1933)">
   <path d="M2.8418 1.86523L4.54102 3.57422Q5.18555 4.22852 5.90332 4.17969Q6.62109 4.13086 7.31445 3.35938L18.0078-8.42773L17.041-9.4043L6.42578 2.27539Q6.16211 2.57812 5.89355 2.61719Q5.625 2.65625 5.27344 2.30469L4.10156 1.14258Q3.75 0.791016 3.79395 0.522461Q3.83789 0.253906 4.14062-0.0195312L15.6152-10.8203L14.6387-11.7871L3.04688-0.898438Q2.30469-0.214844 2.25098 0.498047Q2.19727 1.21094 2.8418 1.86523ZM9.25781-16.3281Q8.94531-16.0254 8.90625-15.6348Q8.86719-15.2441 9.04297-14.9512Q9.21875-14.6777 9.55566-14.541Q9.89258-14.4043 10.3809-14.5215Q11.4746-14.7754 12.5977-14.7314Q13.7207-14.6875 14.7949-13.9844L14.209-12.5293Q13.9551-11.9043 14.0674-11.4404Q14.1797-10.9766 14.5801-10.5664L16.875-8.25195Q17.2363-7.88086 17.5781-7.82227Q17.9199-7.76367 18.3398-7.8418L19.4043-8.03711L20.0684-7.36328L20.0293-6.80664Q20-6.43555 20.1221-6.12305Q20.2441-5.81055 20.6055-5.44922L21.3672-4.70703Q21.7285-4.3457 22.1533-4.33105Q22.5781-4.31641 22.9297-4.66797L25.8398-7.58789Q26.1914-7.93945 26.1816-8.35449Q26.1719-8.76953 25.8105-9.13086L25.0391-9.89258Q24.6875-10.2539 24.3799-10.3857Q24.0723-10.5176 23.7109-10.4883L23.1348-10.4395L22.4902-11.0742L22.7344-12.1973Q22.832-12.6172 22.6953-12.9834Q22.5586-13.3496 22.1191-13.7891L19.9219-15.9766Q18.6719-17.2168 17.2607-17.8369Q15.8496-18.457 14.4189-18.4814Q12.9883-18.5059 11.665-17.959Q10.3418-17.4121 9.25781-16.3281ZM10.752-15.957Q11.6602-16.6211 12.7002-16.9043Q13.7402-17.1875 14.8047-17.085Q15.8691-16.9824 16.8701-16.5137Q17.8711-16.0449 18.7012-15.2051L21.1328-12.793Q21.3086-12.6172 21.3525-12.4512Q21.3965-12.2852 21.3379-12.0312L21.0156-10.5469L22.5195-9.0625L23.5059-9.12109Q23.6914-9.13086 23.7891-9.09668Q23.8867-9.0625 24.0332-8.91602L24.6094-8.33984L22.168-5.89844L21.5918-6.47461Q21.4453-6.62109 21.4062-6.71875Q21.3672-6.81641 21.377-7.01172L21.4453-7.98828L19.9512-9.47266L18.4277-9.21875Q18.1836-9.16992 18.042-9.2041Q17.9004-9.23828 17.7148-9.41406L15.7129-11.416Q15.5176-11.5918 15.4932-11.7529Q15.4688-11.9141 15.5859-12.1875L16.4648-14.2773Q15.293-15.3711 13.8281-15.791Q12.3633-16.2109 10.8398-15.7617Q10.7227-15.7324 10.6885-15.8057Q10.6543-15.8789 10.752-15.957Z"/>
  </g>
  <text style="stroke:none;fill:black;font-family:sans-serif;font-size:13;font-weight:bold;" transform="matrix(1 0 0 1 1289 1953)">Exporting</text>
  <text style="stroke:none;fill:black;font-family:sans-serif;font-size:13;" transform="matrix(1 0 0 1 1289 1971)">Symbols should be outlined when exporting to ensure the</text>
  <text style="stroke:none;fill:black;font-family:sans-serif;font-size:13;" transform="matrix(1 0 0 1 1289 1989)">design is preserved when submitting to Xcode.</text>
  <text id="template-version" style="stroke:none;fill:black;font-family:sans-serif;font-size:13;text-anchor:end;" transform="matrix(1 0 0 1 3036 1933)">Template v.3.0</text>
  <text style="stroke:none;fill:black;font-family:sans-serif;font-size:13;text-anchor:end;" transform="matrix(1 0 0 1 3036 1951)">Requires Xcode 13 or greater</text>
  <text id="descriptive-name" style="stroke:none;fill:black;font-family:sans-serif;font-size:13;text-anchor:end;" transform="matrix(1 0 0 1 3036 1969)">Generated from graduationcap.fill</text>
  <text style="stroke:none;fill:black;font-family:sans-serif;font-size:13;text-anchor:end;" transform="matrix(1 0 0 1 3036 1987)">Typeset at 100 points</text>
  <text style="stroke:none;fill:black;font-family:sans-serif;font-size:13;" transform="matrix(1 0 0 1 263 726)">Small</text>
  <text style="stroke:none;fill:black;font-family:sans-serif;font-size:13;" transform="matrix(1 0 0 1 263 1156)">Medium</text>
  <text style="stroke:none;fill:black;font-family:sans-serif;font-size:13;" transform="matrix(1 0 0 1 263 1586)">Large</text>
 </g>
 <g id="Guides">
  <g id="H-reference" style="fill:#27AAE1;stroke:none;" transform="matrix(1 0 0 1 339 696)">
   <path d="M0.976562 0L3.66211 0L29.3457-67.1387L30.0293-67.1387L30.0293-70.459L28.125-70.459ZM11.6699-24.4629L46.9727-24.4629L46.2402-26.709L12.4512-26.709ZM55.127 0L57.7637 0L30.6152-70.459L29.4434-70.459L29.4434-67.1387Z"/>
  </g>
  <line id="Baseline-S" style="fill:none;stroke:#27AAE1;opacity:1;stroke-width:0.5;" x1="263" x2="3036" y1="696" y2="696"/>
  <line id="Capline-S" style="fill:none;stroke:#27AAE1;opacity:1;stroke-width:0.5;" x1="263" x2="3036" y1="625.541" y2="625.541"/>
  <g id="H-reference" style="fill:#27AAE1;stroke:none;" transform="matrix(1 0 0 1 339 1126)">
   <path d="M0.976562 0L3.66211 0L29.3457-67.1387L30.0293-67.1387L30.0293-70.459L28.125-70.459ZM11.6699-24.4629L46.9727-24.4629L46.2402-26.709L12.4512-26.709ZM55.127 0L57.7637 0L30.6152-70.459L29.4434-70.459L29.4434-67.1387Z"/>
  </g>
  <line id="Baseline-M" style="fill:none;stroke:#27AAE1;opacity:1;stroke-width:0.5;" x1="263" x2="3036" y1="1126" y2="1126"/>
  <line id="Capline-M" style="fill:none;stroke:#27AAE1;opacity:1;stroke-width:0.5;" x1="263" x2="3036" y1="1055.54" y2="1055.54"/>
  <g id="H-reference" style="fill:#27AAE1;stroke:none;" transform="matrix(1 0 0 1 339 1556)">
   <path d="M0.976562 0L3.66211 0L29.3457-67.1387L30.0293-67.1387L30.0293-70.459L28.125-70.459ZM11.6699-24.4629L46.9727-24.4629L46.2402-26.709L12.4512-26.709ZM55.127 0L57.7637 0L30.6152-70.459L29.4434-70.459L29.4434-67.1387Z"/>
  </g>
  <line id="Baseline-L" style="fill:none;stroke:#27AAE1;opacity:1;stroke-width:0.5;" x1="263" x2="3036" y1="1556" y2="1556"/>
  <line id="Capline-L" style="fill:none;stroke:#27AAE1;opacity:1;stroke-width:0.5;" x1="263" x2="3036" y1="1485.54" y2="1485.54"/>
  <line id="left-margin-Ultralight-S" style="fill:none;stroke:#00AEEF;stroke-width:0.5;opacity:1.0;" x1="499.311" x2="499.311" y1="600.785" y2="720.121"/>
  <line id="right-margin-Ultralight-S" style="fill:none;stroke:#00AEEF;stroke-width:0.5;opacity:1.0;" x1="620.112" x2="620.112" y1="600.785" y2="720.121"/>
  <line id="left-margin-Thin-S" style="fill:none;stroke:#00AEEF;stroke-width:0.5;opacity:1.0;" x1="795.851" x2="795.851" y1="600.785" y2="720.121"/>
  <line id="right-margin-Thin-S" style="fill:none;stroke:#00AEEF;stroke-width:0.5;opacity:1.0;" x1="916.994" x2="916.994" y1="600.785" y2="720.121"/>
  <line id="left-margin-Light-S" style="fill:none;stroke:#00AEEF;stroke-width:0.5;opacity:1.0;" x1="1092.17" x2="1092.17" y1="600.785" y2="720.121"/>
  <line id="right-margin-Light-S" style="fill:none;stroke:#00AEEF;stroke-width:0.5;opacity:1.0;" x1="1214.1" x2="1214.1" y1="600.785" y2="720.121"/>
  <line id="left-margin-Regular-S" style="fill:none;stroke:#00AEEF;stroke-width:0.5;opacity:1.0;" x1="1388.61" x2="1388.61" y1="600.785" y2="720.121"/>
  <line id="right-margin-Regular-S" style="fill:none;stroke:#00AEEF;stroke-width:0.5;opacity:1.0;" x1="1511.07" x2="1511.07" y1="600.785" y2="720.121"/>
  <line id="left-margin-Medium-S" style="fill:none;stroke:#00AEEF;stroke-width:0.5;opacity:1.0;" x1="1684.74" x2="1684.74" y1="600.785" y2="720.121"/>
  <line id="right-margin-Medium-S" style="fill:none;stroke:#00AEEF;stroke-width:0.5;opacity:1.0;" x1="1808.37" x2="1808.37" y1="600.785" y2="720.121"/>
  <line id="left-margin-Semibold-S" style="fill:none;stroke:#00AEEF;stroke-width:0.5;opacity:1.0;" x1="1980.99" x2="1980.99" y1="600.785" y2="720.121"/>
  <line id="right-margin-Semibold-S" style="fill:none;stroke:#00AEEF;stroke-width:0.5;opacity:1.0;" x1="2105.55" x2="2105.55" y1="600.785" y2="720.121"/>
  <line id="left-margin-Bold-S" style="fill:none;stroke:#00AEEF;stroke-width:0.5;opacity:1.0;" x1="2277.09" x2="2277.09" y1="600.785" y2="720.121"/>
  <line id="right-margin-Bold-S" style="fill:none;stroke:#00AEEF;stroke-width:0.5;opacity:1.0;" x1="2402.87" x2="2402.87" y1="600.785" y2="720.121"/>
  <line id="left-margin-Heavy-S" style="fill:none;stroke:#00AEEF;stroke-width:0.5;opacity:1.0;" x1="2572.92" x2="2572.92" y1="600.785" y2="720.121"/>
  <line id="right-margin-Heavy-S" style="fill:none;stroke:#00AEEF;stroke-width:0.5;opacity:1.0;" x1="2700.46" x2="2700.46" y1="600.785" y2="720.121"/>
  <line id="left-margin-Black-S" style="fill:none;stroke:#00AEEF;stroke-width:0.5;opacity:1.0;" x1="2868.85" x2="2868.85" y1="600.785" y2="720.121"/>
  <line id="right-margin-Black-S" style="fill:none;stroke:#00AEEF;stroke-width:0.5;opacity:1.0;" x1="2997.95" x2="2997.95" y1="600.785" y2="720.121"/>
  <line id="left-margin-Ultralight-M" style="fill:none;stroke:#00AEEF;stroke-width:0.5;opacity:1.0;" x1="482.709" x2="482.709" y1="1030.79" y2="1150.12"/>
  <line id="right-margin-Ultralight-M" style="fill:none;stroke:#00AEEF;stroke-width:0.5;opacity:1.0;" x1="636.713" x2="636.713" y1="1030.79" y2="1150.12"/>
  <line id="left-margin-Thin-M" style="fill:none;stroke:#00AEEF;stroke-width:0.5;opacity:1.0;" x1="779.201" x2="779.201" y1="1030.79" y2="1150.12"/>
  <line id="right-margin-Thin-M" style="fill:none;stroke:#00AEEF;stroke-width:0.5;opacity:1.0;" x1="933.644" x2="933.644" y1="1030.79" y2="1150.12"/>
  <line id="left-margin-Light-M" style="fill:none;stroke:#00AEEF;stroke-width:0.5;opacity:1.0;" x1="1075.5" x2="1075.5" y1="1030.79" y2="1150.12"/>
  <line id="right-margin-Light-M" style="fill:none;stroke:#00AEEF;stroke-width:0.5;opacity:1.0;" x1="1230.77" x2="1230.77" y1="1030.79" y2="1150.12"/>
  <line id="left-margin-Regular-M" style="fill:none;stroke:#00AEEF;stroke-width:0.5;opacity:1.0;" x1="1371.89" x2="1371.89" y1="1030.79" y2="1150.12"/>
  <line id="right-margin-Regular-M" style="fill:none;stroke:#00AEEF;stroke-width:0.5;opacity:1.0;" x1="1527.8" x2="1527.8" y1="1030.79" y2="1150.12"/>
  <line id="left-margin-Medium-M" style="fill:none;stroke:#00AEEF;stroke-width:0.5;opacity:1.0;" x1="1667.87" x2="1667.87" y1="1030.79" y2="1150.12"/>
  <line id="right-margin-Medium-M" style="fill:none;stroke:#00AEEF;stroke-width:0.5;opacity:1.0;" x1="1825.24" x2="1825.24" y1="1030.79" y2="1150.12"/>
  <line id="left-margin-Semibold-M" style="fill:none;stroke:#00AEEF;stroke-width:0.5;opacity:1.0;" x1="1964.02" x2="1964.02" y1="1030.79" y2="1150.12"/>
  <line id="right-margin-Semibold-M" style="fill:none;stroke:#00AEEF;stroke-width:0.5;opacity:1.0;" x1="2122.51" x2="2122.51" y1="1030.79" y2="1150.12"/>
  <line id="left-margin-Bold-M" style="fill:none;stroke:#00AEEF;stroke-width:0.5;opacity:1.0;" x1="2259.97" x2="2259.97" y1="1030.79" y2="1150.12"/>
  <line id="right-margin-Bold-M" style="fill:none;stroke:#00AEEF;stroke-width:0.5;opacity:1.0;" x1="2419.98" x2="2419.98" y1="1030.79" y2="1150.12"/>
  <line id="left-margin-Heavy-M" style="fill:none;stroke:#00AEEF;stroke-width:0.5;opacity:1.0;" x1="2555.61" x2="2555.61" y1="1030.79" y2="1150.12"/>
  <line id="right-margin-Heavy-M" style="fill:none;stroke:#00AEEF;stroke-width:0.5;opacity:1.0;" x1="2717.77" x2="2717.77" y1="1030.79" y2="1150.12"/>
  <line id="left-margin-Black-M" style="fill:none;stroke:#00AEEF;stroke-width:0.5;opacity:1.0;" x1="2851.37" x2="2851.37" y1="1030.79" y2="1150.12"/>
  <line id="right-margin-Black-M" style="fill:none;stroke:#00AEEF;stroke-width:0.5;opacity:1.0;" x1="3015.43" x2="3015.43" y1="1030.79" y2="1150.12"/>
  <line id="left-margin-Ultralight-L" style="fill:none;stroke:#00AEEF;stroke-width:0.5;opacity:1.0;" x1="460.444" x2="460.444" y1="1460.79" y2="1580.12"/>
  <line id="right-margin-Ultralight-L" style="fill:none;stroke:#00AEEF;stroke-width:0.5;opacity:1.0;" x1="658.979" x2="658.979" y1="1460.79" y2="1580.12"/>
  <line id="left-margin-Thin-L" style="fill:none;stroke:#00AEEF;stroke-width:0.5;opacity:1.0;" x1="756.911" x2="756.911" y1="1460.79" y2="1580.12"/>
  <line id="right-margin-Thin-L" style="fill:none;stroke:#00AEEF;stroke-width:0.5;opacity:1.0;" x1="955.934" x2="955.934" y1="1460.79" y2="1580.12"/>
  <line id="left-margin-Light-L" style="fill:none;stroke:#00AEEF;stroke-width:0.5;opacity:1.0;" x1="1053.16" x2="1053.16" y1="1460.79" y2="1580.12"/>
  <line id="right-margin-Light-L" style="fill:none;stroke:#00AEEF;stroke-width:0.5;opacity:1.0;" x1="1253.11" x2="1253.11" y1="1460.79" y2="1580.12"/>
  <line id="left-margin-Regular-L" style="fill:none;stroke:#00AEEF;stroke-width:0.5;opacity:1.0;" x1="1349.53" x2="1349.53" y1="1460.79" y2="1580.12"/>
  <line id="right-margin-Regular-L" style="fill:none;stroke:#00AEEF;stroke-width:0.5;opacity:1.0;" x1="1550.16" x2="1550.16" y1="1460.79" y2="1580.12"/>
  <line id="left-margin-Medium-L" style="fill:none;stroke:#00AEEF;stroke-width:0.5;opacity:1.0;" x1="1645.43" x2="1645.43" y1="1460.79" y2="1580.12"/>
  <line id="right-margin-Medium-L" style="fill:none;stroke:#00AEEF;stroke-width:0.5;opacity:1.0;" x1="1847.68" x2="1847.68" y1="1460.79" y2="1580.12"/>
  <line id="left-margin-Semibold-L" style="fill:none;stroke:#00AEEF;stroke-width:0.5;opacity:1.0;" x1="1941.51" x2="1941.51" y1="1460.79" y2="1580.12"/>
  <line id="right-margin-Semibold-L" style="fill:none;stroke:#00AEEF;stroke-width:0.5;opacity:1.0;" x1="2145.02" x2="2145.02" y1="1460.79" y2="1580.12"/>
  <line id="left-margin-Bold-L" style="fill:none;stroke:#00AEEF;stroke-width:0.5;opacity:1.0;" x1="2237.41" x2="2237.41" y1="1460.79" y2="1580.12"/>
  <line id="right-margin-Bold-L" style="fill:none;stroke:#00AEEF;stroke-width:0.5;opacity:1.0;" x1="2442.54" x2="2442.54" y1="1460.79" y2="1580.12"/>
  <line id="left-margin-Heavy-L" style="fill:none;stroke:#00AEEF;stroke-width:0.5;opacity:1.0;" x1="2532.93" x2="2532.93" y1="1460.79" y2="1580.12"/>
  <line id="right-margin-Heavy-L" style="fill:none;stroke:#00AEEF;stroke-width:0.5;opacity:1.0;" x1="2740.45" x2="2740.45" y1="1460.79" y2="1580.12"/>
  <line id="left-margin-Black-L" style="fill:none;stroke:#00AEEF;stroke-width:0.5;opacity:1.0;" x1="2828.59" x2="2828.59" y1="1460.79" y2="1580.12"/>
  <line id="right-margin-Black-L" style="fill:none;stroke:#00AEEF;stroke-width:0.5;opacity:1.0;" x1="3038.21" x2="3038.21" y1="1460.79" y2="1580.12"/>
 </g>
 <g id="Symbols">
  <g id="Black-L" transform="matrix(1 0 0 1 2828.59 1556)">
   <path d="M184.717-68.4082L123.584-96.3379Q118.262-98.7305 113.672-99.9023Q109.082-101.074 104.834-101.025Q100.586-101.074 95.9717-99.9023Q91.3574-98.7305 86.0352-96.3379L24.9512-68.4082Q20.752-66.5039 18.4082-63.1348Q16.0645-59.7656 16.0645-55.6641Q16.0645-51.5625 18.4082-48.1201Q20.752-44.6777 24.9512-42.9199L44.043-34.668L88.2812-54.9316Q88.2812-55.1758 88.2812-55.6641Q88.2812-58.8867 90.6738-61.2793Q93.0664-63.6719 96.875-64.9658Q100.684-66.2598 104.932-66.2598Q109.131-66.2598 112.915-64.9658Q116.699-63.6719 119.092-61.3037Q121.484-58.9355 121.484-55.6641Q121.484-52.3926 119.092-49.9756Q116.699-47.5586 112.915-46.2158Q109.131-44.873 104.932-44.873Q100.83-44.873 97.168-46.0938L57.373-28.0762L86.0352-14.9902Q91.3574-12.5488 95.9717-11.4014Q100.586-10.2539 104.834-10.3027Q109.082-10.2539 113.672-11.4258Q118.262-12.5977 123.584-14.9902L184.717-42.9199Q188.867-44.8242 191.211-48.1934Q193.555-51.5625 193.555-55.6641Q193.555-59.7656 191.211-63.1348Q188.867-66.5039 184.717-68.4082ZM57.2754-15.5762L57.2754 17.1875Q66.3574 22.5098 78.6377 25.4395Q90.918 28.3691 104.834 28.3691Q118.604 28.3691 130.664 25.5371Q142.725 22.7051 151.88 17.5293Q161.035 12.3535 166.211 5.32227Q171.387-1.70898 171.387-10.0586L171.387-24.3652L128.32-4.58984Q121.973-1.70898 116.089-0.292969Q110.205 1.12305 104.834 1.07422Q99.4141 1.12305 93.5547-0.292969Q87.6953-1.70898 81.3477-4.58984ZM38.2324-24.2676L38.2324-10.0586Q38.2324-5.95703 39.7705-1.83105Q41.3086 2.29492 44.1895 6.00586L44.1895-21.582ZM44.1895 27.7344L57.2754 27.832L57.2754 17.1875Q53.1738 14.7949 49.8779 11.9629Q46.582 9.13086 44.1895 6.00586ZM36.8652 32.1289L36.8652 47.7051Q36.8652 52.7832 39.9414 55.835Q43.0176 58.8867 48.0469 58.8867L53.3203 58.8867Q58.3496 58.8867 61.4258 55.835Q64.502 52.7832 64.502 47.7051L64.502 32.1289Q64.502 27.0996 61.4258 24.0234Q58.3496 20.9473 53.3203 20.9473L48.0469 20.9473Q43.0176 20.9473 39.9414 24.0234Q36.8652 27.0996 36.8652 32.1289Z"/>
  </g>
  <g id="Heavy-L" transform="matrix(1 0 0 1 2532.93 1556)">
   <path d="M183.398-67.1875L122.021-95.2148Q116.797-97.5586 112.354-98.6816Q107.91-99.8047 103.76-99.7559Q99.6094-99.8047 95.1416-98.6816Q90.6738-97.5586 85.4492-95.2148L24.1699-67.1875Q20.3125-65.4297 18.1885-62.3535Q16.0645-59.2773 16.0645-55.6152Q16.0645-51.9531 18.1885-48.8281Q20.3125-45.7031 24.1699-44.0918L45.3125-34.7656L88.2812-54.6387Q88.0859-55.0293 88.0859-55.6152Q88.0859-58.4961 90.3564-60.6934Q92.627-62.8906 96.2402-64.0869Q99.8535-65.2832 103.906-65.2832Q107.91-65.2832 111.499-64.0869Q115.088-62.8906 117.358-60.7178Q119.629-58.5449 119.629-55.6152Q119.629-52.6855 117.358-50.4639Q115.088-48.2422 111.499-46.9971Q107.91-45.752 103.906-45.752Q99.9512-45.752 96.4844-46.9238L57.2754-28.9062L85.4492-16.0156Q90.6738-13.623 95.1416-12.5244Q99.6094-11.4258 103.76-11.4746Q107.91-11.4258 112.354-12.5488Q116.797-13.6719 122.021-16.0156L183.398-44.0918Q187.207-45.8496 189.331-48.9014Q191.455-51.9531 191.455-55.6152Q191.455-59.2773 189.331-62.3535Q187.207-65.4297 183.398-67.1875ZM57.1289-17.3828L57.1289 16.6504Q65.918 21.8262 77.9053 24.7314Q89.8926 27.6367 103.76 27.6367Q117.529 27.6367 129.346 24.8291Q141.162 22.0215 150 16.9434Q158.838 11.8652 163.77 5.07812Q168.701-1.70898 168.701-9.61914L168.701-25.8301L126.416-6.39648Q120.312-3.61328 114.648-2.24609Q108.984-0.878906 103.76-0.927734Q98.5352-0.878906 92.8955-2.24609Q87.2559-3.61328 81.1035-6.39648ZM38.7695-25.7324L38.7695-9.61914Q38.7695-5.56641 40.5029-1.29395Q42.2363 2.97852 45.459 6.78711L45.459-22.7051ZM45.459 27.8809L57.1289 27.9785L57.1289 16.6504Q53.5156 14.502 50.5859 12.0117Q47.6562 9.52148 45.459 6.78711ZM38.7207 31.3477L38.7207 47.168Q38.7207 51.9043 41.5527 54.7119Q44.3848 57.5195 49.0234 57.5195L53.4668 57.5195Q58.1543 57.5195 60.9863 54.7119Q63.8184 51.9043 63.8184 47.168L63.8184 31.3477Q63.8184 26.6602 60.9863 23.8281Q58.1543 20.9961 53.4668 20.9961L49.0234 20.9961Q44.3848 20.9961 41.5527 23.8281Q38.7207 26.6602 38.7207 31.3477Z"/>
  </g>
  <g id="Bold-L" transform="matrix(1 0 0 1 2237.41 1556)">
   <path d="M181.885-65.7715L120.312-93.9453Q115.234-96.2402 110.938-97.3389Q106.641-98.4375 102.588-98.3398Q98.5352-98.4375 94.2383-97.3389Q89.9414-96.2402 84.8633-93.9453L23.291-65.7715Q19.7754-64.209 17.9199-61.4746Q16.0645-58.7402 16.0645-55.5664Q16.0645-52.3926 17.9199-49.6338Q19.7754-46.875 23.291-45.3613L46.7285-34.9121L88.2324-54.3457Q87.8418-54.8828 87.8418-55.5664Q87.8418-58.1055 89.9658-60.0586Q92.0898-62.0117 95.4834-63.1104Q98.877-64.209 102.734-64.209Q106.543-64.209 109.937-63.1104Q113.33-62.0117 115.43-60.083Q117.529-58.1543 117.529-55.5664Q117.529-52.9785 115.43-51.001Q113.33-49.0234 109.937-47.9004Q106.543-46.7773 102.734-46.7773Q99.0234-46.7773 95.752-47.8027L57.1289-29.834L84.8633-17.1875Q89.9414-14.8438 94.2383-13.7695Q98.5352-12.6953 102.588-12.7441Q106.641-12.6953 110.938-13.7695Q115.234-14.8438 120.312-17.1875L181.885-45.3613Q185.352-46.9727 187.207-49.6826Q189.062-52.3926 189.062-55.5664Q189.062-58.7402 187.207-61.4746Q185.352-64.209 181.885-65.7715ZM56.9824-19.3848L56.9824 16.0156Q65.4297 21.0449 77.0752 23.9258Q88.7207 26.8066 102.588 26.8066Q116.357 26.8066 127.905 24.0234Q139.453 21.2402 147.949 16.2842Q156.445 11.3281 161.108 4.80957Q165.771-1.70898 165.771-9.13086L165.771-27.4902L124.316-8.44727Q118.408-5.76172 113.013-4.44336Q107.617-3.125 102.588-3.17383Q97.5098-3.125 92.1387-4.44336Q86.7676-5.76172 80.8594-8.44727ZM39.4043-27.3926L39.4043-9.13086Q39.4043-5.07812 41.333-0.683594Q43.2617 3.71094 46.9238 7.66602L46.9238-23.9746ZM46.9238 28.0762L56.9824 28.125L56.9824 16.0156Q53.9551 14.209 51.3916 12.1094Q48.8281 10.0098 46.9238 7.66602ZM40.7715 30.4688L40.7715 46.582Q40.7715 50.8789 43.335 53.4424Q45.8984 56.0059 50.1465 56.0059L53.6621 56.0059Q57.9102 56.0059 60.4736 53.4424Q63.0371 50.8789 63.0371 46.582L63.0371 30.4688Q63.0371 26.2207 60.4736 23.6572Q57.9102 21.0938 53.6621 21.0938L50.1465 21.0938Q45.8984 21.0938 43.335 23.6572Q40.7715 26.2207 40.7715 30.4688Z"/>
  </g>
  <g id="Semibold-L" transform="matrix(1 0 0 1 1941.51 1556)">
   <path d="M180.859-64.7949L119.092-93.0664Q114.111-95.3125 109.912-96.3867Q105.713-97.4609 101.758-97.3633Q97.8027-97.4609 93.6035-96.3867Q89.4043-95.3125 84.4238-93.0664L22.6562-64.7949Q19.4336-63.3301 17.749-60.8398Q16.0645-58.3496 16.0645-55.5176Q16.0645-52.6855 17.749-50.1709Q19.4336-47.6562 22.6562-46.2402L47.6562-35.0098L88.2324-54.1016Q87.6953-54.7852 87.6953-55.5176Q87.6953-57.8125 89.7217-59.6191Q91.748-61.4258 94.9951-62.4512Q98.2422-63.4766 101.953-63.4766Q105.615-63.4766 108.838-62.4512Q112.061-61.4258 114.087-59.6191Q116.113-57.8125 116.113-55.5176Q116.113-53.1738 114.087-51.3672Q112.061-49.5605 108.838-48.5107Q105.615-47.4609 101.953-47.4609Q98.3398-47.4609 95.2148-48.4375L57.0312-30.4688L84.4238-17.9688Q89.4043-15.625 93.6035-14.5996Q97.8027-13.5742 101.758-13.623Q105.713-13.5742 109.912-14.624Q114.111-15.6738 119.092-17.9688L180.859-46.2402Q184.082-47.7051 185.767-50.1953Q187.451-52.6855 187.451-55.5176Q187.451-58.3496 185.767-60.8398Q184.082-63.3301 180.859-64.7949ZM56.8848-20.752L56.8848 15.5762Q65.0391 20.5078 76.4893 23.3643Q87.9395 26.2207 101.758 26.2207Q115.527 26.2207 126.904 23.4375Q138.281 20.6543 146.509 15.7959Q154.736 10.9375 159.204 4.61426Q163.672-1.70898 163.672-8.78906L163.672-28.6133L122.803-9.86328Q117.09-7.22656 111.89-5.95703Q106.689-4.6875 101.758-4.73633Q96.8262-4.6875 91.6016-5.95703Q86.377-7.22656 80.6641-9.86328ZM39.7949-28.5156L39.7949-8.78906Q39.7949-4.73633 41.8701-0.244141Q43.9453 4.24805 47.9004 8.25195L47.9004-24.8535ZM47.9004 28.2227L56.8848 28.2227L56.8848 15.5762Q54.1992 13.9648 51.9287 12.1338Q49.6582 10.3027 47.9004 8.25195ZM42.1875 29.834L42.1875 46.1914Q42.1875 50.1953 44.5557 52.5635Q46.9238 54.9316 50.9277 54.9316L53.7598 54.9316Q57.7637 54.9316 60.1318 52.5635Q62.5 50.1953 62.5 46.1914L62.5 29.834Q62.5 25.8789 60.1318 23.4863Q57.7637 21.0938 53.7598 21.0938L50.9277 21.0938Q46.9238 21.0938 44.5557 23.4863Q42.1875 25.8789 42.1875 29.834Z"/>
  </g>
  <g id="Medium-L" transform="matrix(1 0 0 1 1645.43 1556)">
   <path d="M180.078-64.0625L118.164-92.4316Q113.232-94.6289 109.131-95.6787Q105.029-96.7285 101.172-96.6309Q97.2168-96.7285 93.1152-95.6787Q89.0137-94.6289 84.082-92.4316L22.168-64.0625Q19.1406-62.6953 17.6025-60.4004Q16.0645-58.1055 16.0645-55.4688Q16.0645-52.8809 17.6025-50.5859Q19.1406-48.291 22.168-46.9238L48.3887-35.0586L88.1836-53.9062Q87.5488-54.6875 87.5488-55.5176Q87.5488-57.6172 89.502-59.2773Q91.4551-60.9375 94.5801-61.9141Q97.7051-62.8906 101.318-62.8906Q104.883-62.8906 108.008-61.9141Q111.133-60.9375 113.062-59.2773Q114.99-57.6172 114.99-55.5176Q114.99-53.3691 113.062-51.6602Q111.133-49.9512 108.008-48.9502Q104.883-47.9492 101.318-47.9492Q97.8027-47.9492 94.8242-48.877L56.9824-30.957L84.082-18.5547Q89.0137-16.2598 93.1152-15.2588Q97.2168-14.2578 101.172-14.3066Q105.029-14.2578 109.131-15.2588Q113.232-16.2598 118.164-18.5547L180.078-46.9238Q183.105-48.291 184.644-50.5859Q186.182-52.8809 186.182-55.4688Q186.182-58.1055 184.644-60.4004Q183.105-62.6953 180.078-64.0625ZM56.7871-21.7773L56.7871 15.2832Q64.7949 20.1172 76.0498 22.9736Q87.3047 25.8301 101.172 25.8301Q114.941 25.8301 126.147 23.0469Q137.354 20.2637 145.41 15.4541Q153.467 10.6445 157.812 4.46777Q162.158-1.70898 162.158-8.54492L162.158-29.4434L121.729-10.9375Q116.113-8.34961 111.035-7.10449Q105.957-5.85938 101.172-5.9082Q96.2891-5.85938 91.2109-7.10449Q86.1328-8.34961 80.5664-10.9375ZM40.1367-29.3945L40.1367-8.54492Q40.1367-4.49219 42.3096 0.0732422Q44.4824 4.63867 48.6328 8.74023L48.6328-25.4883ZM48.6328 28.2715L56.7871 28.3203L56.7871 15.2832Q54.3945 13.7695 52.3193 12.1582Q50.2441 10.5469 48.6328 8.74023ZM43.2617 29.3457L43.2617 45.8496Q43.2617 49.6582 45.5078 51.8799Q47.7539 54.1016 51.5137 54.1016L53.8574 54.1016Q57.6172 54.1016 59.8633 51.8799Q62.1094 49.6582 62.1094 45.8496L62.1094 29.3457Q62.1094 25.6348 59.8633 23.3887Q57.6172 21.1426 53.8574 21.1426L51.5137 21.1426Q47.7539 21.1426 45.5078 23.3887Q43.2617 25.6348 43.2617 29.3457Z"/>
  </g>
  <g id="Regular-L" transform="matrix(1 0 0 1 1349.53 1556)">
   <path d="M179.053-63.1348L116.992-91.5527Q112.158-93.75 108.154-94.751Q104.15-95.752 100.342-95.6543Q96.4844-95.752 92.4805-94.751Q88.4766-93.75 83.6426-91.5527L21.582-63.1348Q18.7988-61.8652 17.4316-59.79Q16.0645-57.7148 16.0645-55.4199Q16.0645-53.1738 17.4316-51.123Q18.7988-49.0723 21.582-47.8027L49.3652-35.1562L88.1836-53.7109Q87.4023-54.5898 87.4023-55.4688Q87.4023-57.3242 89.2578-58.8379Q91.1133-60.3516 94.0918-61.2549Q97.0703-62.1582 100.537-62.1582Q103.955-62.1582 106.934-61.2549Q109.912-60.3516 111.743-58.8379Q113.574-57.3242 113.574-55.4688Q113.574-53.5645 111.743-52.0264Q109.912-50.4883 106.934-49.5605Q103.955-48.6328 100.537-48.6328Q97.168-48.6328 94.2871-49.5117L56.8848-31.5918L83.6426-19.3359Q88.5254-17.0898 92.5049-16.1133Q96.4844-15.1367 100.342-15.1855Q104.15-15.1367 108.154-16.1133Q112.158-17.0898 116.992-19.3359L179.053-47.8027Q181.836-49.0723 183.203-51.123Q184.57-53.1738 184.57-55.4199Q184.57-57.7148 183.203-59.79Q181.836-61.8652 179.053-63.1348ZM56.6895-23.1445L56.6895 14.8438Q64.4531 19.5801 75.4883 22.4121Q86.5234 25.2441 100.342 25.2441Q114.111 25.2441 125.146 22.4854Q136.182 19.7266 143.994 14.9902Q151.807 10.2539 155.957 4.27246Q160.107-1.70898 160.107-8.20312L160.107-30.5664L120.264-12.3047Q114.844-9.81445 109.937-8.59375Q105.029-7.37305 100.342-7.42188Q95.6055-7.37305 90.6982-8.59375Q85.791-9.81445 80.3711-12.3047ZM40.5273-30.5176L40.5273-8.20312Q40.5273-4.19922 42.8467 0.463867Q45.166 5.12695 49.6094 9.32617L49.6094-26.3672ZM49.6094 28.418L56.6895 28.418L56.6895 14.8438Q54.6875 13.5742 52.8809 12.207Q51.0742 10.8398 49.6094 9.32617ZM44.6777 28.7598L44.6777 45.459Q44.6777 48.9746 46.7285 51.0254Q48.7793 53.0762 52.2461 53.0762L53.9551 53.0762Q57.4707 53.0762 59.5215 51.0254Q61.5723 48.9746 61.5723 45.459L61.5723 28.7598Q61.5723 25.293 59.5215 23.2422Q57.4707 21.1914 53.9551 21.1914L52.2461 21.1914Q48.7793 21.1914 46.7285 23.2422Q44.6777 25.293 44.6777 28.7598Z"/>
  </g>
  <g id="Light-L" transform="matrix(1 0 0 1 1053.16 1556)">
   <path d="M179.004-62.1094L116.406-90.8203Q111.523-93.0176 107.617-93.9697Q103.711-94.9219 100-94.873Q96.2402-94.9219 92.334-93.9697Q88.4277-93.0176 83.5449-90.8203L20.9473-62.1094Q18.5059-60.9863 17.2852-59.1553Q16.0645-57.3242 16.0645-55.2246Q16.0645-53.1738 17.2852-51.3428Q18.5059-49.5117 20.9473-48.3887L51.1719-34.668L88.5742-53.0762Q87.4023-54.1992 87.4023-55.2734Q87.4023-56.9336 89.1357-58.3496Q90.8691-59.7656 93.7256-60.6689Q96.582-61.5723 100.098-61.5723Q103.564-61.5723 106.445-60.6689Q109.326-59.7656 111.011-58.3496Q112.695-56.9336 112.695-55.2734Q112.695-53.6133 111.011-52.1484Q109.326-50.6836 106.445-49.7803Q103.564-48.877 100.098-48.877Q96.5332-48.877 93.6035-49.8535L57.0801-31.7871L83.5449-19.6777Q88.4766-17.4316 92.3584-16.4795Q96.2402-15.5273 100-15.5762Q103.711-15.5273 107.617-16.4795Q111.523-17.4316 116.406-19.6777L179.004-48.3887Q181.445-49.5117 182.666-51.3428Q183.887-53.1738 183.887-55.2246Q183.887-57.3242 182.666-59.1553Q181.445-60.9863 179.004-62.1094ZM56.9336-24.5117L56.9336 12.9395Q64.4531 17.5781 75.3174 20.5078Q86.1816 23.4375 100 23.4375Q113.574 23.4375 124.292 20.6543Q135.01 17.8711 142.554 13.2812Q150.098 8.69141 154.053 3.125Q158.008-2.44141 158.008-8.10547L158.008-31.4453L119.189-13.6719Q113.916-11.2305 109.204-10.0586Q104.492-8.88672 100-8.93555Q95.4102-8.88672 90.6982-10.0586Q85.9863-11.2305 80.7617-13.6719ZM41.8945-31.3965L41.8945-8.10547Q41.8945-4.29688 44.3115 0.146484Q46.7285 4.58984 51.3184 8.59375L51.3184-27.0996ZM51.3184 25.1465L56.9336 25.1465L56.9336 12.9395Q55.3711 11.9141 53.9307 10.8643Q52.4902 9.81445 51.3184 8.59375ZM46.4355 25.3906L46.4355 42.2363Q46.4355 45.4102 48.2666 47.2412Q50.0977 49.0723 53.2715 49.0723L54.9316 49.0723Q58.1543 49.0723 59.9854 47.2412Q61.8164 45.4102 61.8164 42.2363L61.8164 25.3906Q61.8164 22.2168 59.9854 20.3857Q58.1543 18.5547 54.9316 18.5547L53.2715 18.5547Q50.0977 18.5547 48.2666 20.3857Q46.4355 22.2168 46.4355 25.3906Z"/>
  </g>
  <g id="Thin-L" transform="matrix(1 0 0 1 756.911 1556)">
   <path d="M178.955-60.6934L115.576-89.8438Q110.693-92.0898 106.885-92.9688Q103.076-93.8477 99.5117-93.7988Q95.8984-93.8477 92.1143-92.9688Q88.3301-92.0898 83.3984-89.8438L20.0684-60.6934Q18.1152-59.8145 17.0898-58.3008Q16.0645-56.7871 16.0645-54.9805Q16.0645-53.125 17.0898-51.6357Q18.1152-50.1465 20.0684-49.2188L53.5645-33.9844L89.1113-52.2461Q87.4023-53.6621 87.4023-55.0293Q87.4023-56.3965 88.9648-57.6904Q90.5273-58.9844 93.2617-59.8633Q95.9961-60.7422 99.5117-60.7422Q103.076-60.7422 105.811-59.8633Q108.545-58.9844 110.059-57.6904Q111.572-56.3965 111.572-55.0293Q111.572-53.6133 110.059-52.2705Q108.545-50.9277 105.811-50.0732Q103.076-49.2188 99.5117-49.2188Q95.7031-49.2188 92.7246-50.293L57.3242-32.0312L83.3984-20.1172Q88.3789-17.8223 92.1387-16.9434Q95.8984-16.0645 99.5117-16.1133Q103.076-16.0645 106.885-16.9434Q110.693-17.8223 115.576-20.1172L178.955-49.2188Q180.908-50.1465 181.934-51.6357Q182.959-53.125 182.959-54.9805Q182.959-56.7871 181.934-58.3008Q180.908-59.8145 178.955-60.6934ZM57.2754-26.3672L57.2754 10.4004Q64.4531 14.8926 75.0732 17.9688Q85.6934 21.0449 99.5117 21.0449Q112.793 21.0449 123.145 18.2617Q133.496 15.4785 140.649 11.0352Q147.803 6.5918 151.514 1.5625Q155.225-3.4668 155.225-8.00781L155.225-32.6172L117.773-15.4297Q112.695-13.1348 108.276-12.0117Q103.857-10.8887 99.5117-10.9375Q95.166-10.8887 90.7227-12.0117Q86.2793-13.1348 81.25-15.4297ZM43.75-32.5684L43.75-8.00781Q43.75-4.39453 46.2402-0.292969Q48.7305 3.80859 53.5645 7.66602L53.5645-28.0273ZM53.5645 20.8496L57.2754 20.8496L57.2754 10.4004Q56.2988 9.7168 55.3467 9.05762Q54.3945 8.39844 53.5645 7.66602ZM48.7793 20.8984L48.7793 37.9395Q48.7793 40.7715 50.293 42.2852Q51.8066 43.7988 54.6387 43.7988L56.25 43.7988Q59.0332 43.7988 60.5957 42.2852Q62.1582 40.7715 62.1582 37.9395L62.1582 20.8984Q62.1582 18.1152 60.5957 16.5771Q59.0332 15.0391 56.25 15.0391L54.6387 15.0391Q51.8066 15.0391 50.293 16.5771Q48.7793 18.1152 48.7793 20.8984Z"/>
  </g>
  <g id="Ultralight-L" transform="matrix(1 0 0 1 460.444 1556)">
   <path d="M178.906-60.0098L115.186-89.3066Q110.254-91.6016 106.519-92.4561Q102.783-93.3105 99.2676-93.2617Q95.752-93.3105 92.0166-92.4561Q88.2812-91.6016 83.3008-89.3066L19.6289-60.0098Q17.9199-59.2285 16.9922-57.8857Q16.0645-56.543 16.0645-54.834Q16.0645-53.125 16.9922-51.7822Q17.9199-50.4395 19.6289-49.6094L54.7852-33.6426L89.3555-51.8066Q87.4023-53.3691 87.4023-54.9316Q87.4023-56.1035 88.8672-57.3486Q90.332-58.5938 92.9932-59.4727Q95.6543-60.3516 99.2188-60.3516Q102.832-60.3516 105.493-59.4727Q108.154-58.5938 109.57-57.3486Q110.986-56.1035 110.986-54.9316Q110.986-53.6621 109.57-52.3682Q108.154-51.0742 105.493-50.2197Q102.832-49.3652 99.2188-49.3652Q95.2637-49.3652 92.2363-50.4883L57.4707-32.1777L83.3008-20.3125Q88.3301-18.0664 92.041-17.2119Q95.752-16.3574 99.2676-16.4062Q102.783-16.3574 106.519-17.2119Q110.254-18.0664 115.186-20.3125L178.906-49.6094Q180.615-50.4395 181.543-51.7822Q182.471-53.125 182.471-54.834Q182.471-56.543 181.543-57.8857Q180.615-59.2285 178.906-60.0098ZM57.4707-27.2949L57.4707 9.08203Q64.4531 13.5254 74.9512 16.6504Q85.4492 19.7754 99.2676 19.7754Q112.451 19.7754 122.583 16.9922Q132.715 14.209 139.673 9.86328Q146.631 5.51758 150.22 0.78125Q153.809-3.95508 153.809-7.95898L153.809-33.252L117.041-16.3574Q112.061-14.0625 107.764-12.9883Q103.467-11.9141 99.2676-11.9629Q95.0195-11.9141 90.7227-12.9883Q86.4258-14.0625 81.4941-16.3574ZM44.6777-33.1543L44.6777-7.95898Q44.6777-4.49219 47.2412-0.512695Q49.8047 3.4668 54.7363 7.17773L54.7363-28.5156ZM54.7363 18.6523L57.4707 18.6523L57.4707 9.08203Q56.7871 8.59375 56.0791 8.1543Q55.3711 7.71484 54.7363 7.17773ZM49.9512 18.6523L49.9512 35.7422Q49.9512 38.3301 51.3184 39.6973Q52.6855 41.0645 55.3223 41.0645L56.8848 41.0645Q59.5215 41.0645 60.9131 39.6973Q62.3047 38.3301 62.3047 35.7422L62.3047 18.6523Q62.3047 16.0156 60.9131 14.624Q59.5215 13.2324 56.8848 13.2324L55.3223 13.2324Q52.6855 13.2324 51.3184 14.624Q49.9512 16.0156 49.9512 18.6523Z"/>
  </g>
  <g id="Black-M" transform="matrix(1 0 0 1 2851.37 1126)">
   <path d="M144.287-61.6699L96.9238-83.3008Q92.6758-85.2051 89.0137-86.1328Q85.3516-87.0605 82.0312-87.0117Q78.6621-87.0605 75.0244-86.1328Q71.3867-85.2051 67.1387-83.3008L19.7754-61.6699Q16.4062-60.1074 14.4287-57.2998Q12.4512-54.4922 12.4512-51.0254Q12.4512-47.5586 14.4287-44.7021Q16.4062-41.8457 19.7754-40.4297L33.6426-34.5215L68.6035-50.5371Q68.6035-50.7324 68.6035-51.0254Q68.6035-53.7598 70.5078-55.7373Q72.4121-57.7148 75.4883-58.8135Q78.5645-59.9121 82.0312-59.9121Q85.498-59.9121 88.5498-58.8379Q91.6016-57.7637 93.5303-55.7617Q95.459-53.7598 95.459-51.0254Q95.459-48.291 93.5547-46.2646Q91.6504-44.2383 88.5742-43.1396Q85.498-42.041 82.0312-42.041Q78.6621-42.041 75.6836-43.0664L44.5801-29.0527L67.1387-18.7988Q71.3867-16.8457 75.0244-15.9424Q78.6621-15.0391 82.0312-15.0879Q85.3516-15.0391 89.0137-15.9668Q92.6758-16.8945 96.9238-18.7988L144.287-40.4297Q147.656-41.9434 149.634-44.751Q151.611-47.5586 151.611-51.0254Q151.611-54.4922 149.634-57.2998Q147.656-60.1074 144.287-61.6699ZM44.5801-18.9453L44.5801 5.22461Q51.8066 9.42383 61.499 11.7676Q71.1914 14.1113 82.0312 14.1113Q92.627 14.1113 102.1 11.8652Q111.572 9.61914 118.848 5.59082Q126.123 1.5625 130.273-3.97949Q134.424-9.52148 134.424-16.1133L134.424-25.8301L100.684-10.4004Q90.6738-5.81055 82.0312-5.85938Q73.4375-5.81055 63.3301-10.4004ZM29.6387-25.7812L29.6387-16.1133Q29.6387-12.9395 30.6885-9.93652Q31.7383-6.93359 33.7402-4.19922L33.7402-23.9258ZM33.7402 12.3535L44.5801 12.4023L44.5801 5.22461Q41.1621 3.22266 38.4277 0.854492Q35.6934-1.51367 33.7402-4.19922ZM27.5879 16.5039L27.5879 28.418Q27.5879 32.5195 30.1025 35.0342Q32.6172 37.5488 36.7188 37.5488L41.5527 37.5488Q45.6543 37.5488 48.1689 35.0342Q50.6836 32.5195 50.6836 28.418L50.6836 16.5039Q50.6836 12.4023 48.1689 9.8877Q45.6543 7.37305 41.5527 7.37305L36.7188 7.37305Q32.6172 7.37305 30.1025 9.8877Q27.5879 12.4023 27.5879 16.5039Z"/>
  </g>
  <g id="Heavy-M" transform="matrix(1 0 0 1 2555.61 1126)">
   <path d="M143.018-60.6445L95.5078-82.373Q91.4062-84.2285 87.8662-85.1074Q84.3262-85.9863 81.0547-85.9375Q77.7832-85.9863 74.2676-85.1074Q70.752-84.2285 66.6016-82.373L19.1406-60.6445Q16.0156-59.2285 14.2334-56.665Q12.4512-54.1016 12.4512-51.0254Q12.4512-47.9492 14.2334-45.3613Q16.0156-42.7734 19.1406-41.4062L34.4727-34.7168L68.5059-50.3906Q68.4082-50.6836 68.4082-51.0254Q68.4082-53.4668 70.2148-55.2734Q72.0215-57.0801 74.9268-58.0811Q77.832-59.082 81.1035-59.082Q84.375-59.082 87.2559-58.1055Q90.1367-57.1289 91.9678-55.2979Q93.7988-53.4668 93.7988-51.0254Q93.7988-48.5352 91.9922-46.7041Q90.1855-44.873 87.2803-43.8721Q84.375-42.8711 81.1035-42.8711Q77.9297-42.8711 75.1465-43.7988L44.4336-29.834L66.6016-19.7266Q70.752-17.8223 74.2676-16.9434Q77.7832-16.0645 81.0547-16.1133Q84.3262-16.0645 87.8662-16.9678Q91.4062-17.8711 95.5078-19.7266L143.018-41.4062Q146.143-42.8223 147.925-45.3857Q149.707-47.9492 149.707-51.0254Q149.707-54.1016 147.925-56.665Q146.143-59.2285 143.018-60.6445ZM44.3848-20.4102L44.3848 5.07812Q51.3672 9.17969 60.8154 11.4746Q70.2637 13.7695 81.0547 13.7695Q91.6992 13.7695 101.001 11.5479Q110.303 9.32617 117.334 5.37109Q124.365 1.41602 128.32-3.97949Q132.275-9.375 132.275-15.6738L132.275-27.0508L99.0723-11.8652Q89.3555-7.4707 81.0547-7.51953Q72.8027-7.4707 63.0371-11.8652ZM29.8828-27.0508L29.8828-15.6738Q29.8828-12.5 31.1035-9.32617Q32.3242-6.15234 34.6191-3.27148L34.6191-24.8535ZM34.6191 13.1836L44.3848 13.2324L44.3848 5.07812Q41.3574 3.27148 38.8916 1.19629Q36.4258-0.878906 34.6191-3.27148ZM29.0039 16.4551L29.0039 28.6133Q29.0039 32.4219 31.3232 34.7412Q33.6426 37.0605 37.5 37.0605L41.5039 37.0605Q45.3125 37.0605 47.6318 34.7412Q49.9512 32.4219 49.9512 28.6133L49.9512 16.4551Q49.9512 12.6465 47.6318 10.3271Q45.3125 8.00781 41.5039 8.00781L37.5 8.00781Q33.6426 8.00781 31.3232 10.3271Q29.0039 12.6465 29.0039 16.4551Z"/>
  </g>
  <g id="Bold-M" transform="matrix(1 0 0 1 2259.97 1126)">
   <path d="M141.553-59.5703L93.9941-81.2988Q89.9902-83.1055 86.5723-83.96Q83.1543-84.8145 79.9805-84.7656Q76.8066-84.8145 73.4131-83.96Q70.0195-83.1055 66.0156-81.2988L18.457-59.5703Q15.5762-58.252 14.0137-55.9814Q12.4512-53.7109 12.4512-51.0254Q12.4512-48.3398 14.0137-46.0693Q15.5762-43.7988 18.457-42.5293L35.4492-35.0098L68.3594-50.2441Q68.1641-50.5859 68.1641-51.0254Q68.1641-53.1738 69.873-54.7852Q71.582-56.3965 74.3164-57.2998Q77.0508-58.2031 80.0781-58.2031Q83.1543-58.2031 85.8643-57.2998Q88.5742-56.3965 90.2832-54.7852Q91.9922-53.1738 91.9922-51.0254Q91.9922-48.877 90.2832-47.2412Q88.5742-45.6055 85.8643-44.6777Q83.1543-43.75 80.0781-43.75Q77.1484-43.75 74.6094-44.5801L44.2871-30.6641L66.0156-20.752Q70.0195-18.9453 73.4131-18.0908Q76.8066-17.2363 79.9805-17.2852Q83.1543-17.2363 86.5723-18.0908Q89.9902-18.9453 93.9941-20.752L141.553-42.5293Q144.434-43.8477 145.996-46.0938Q147.559-48.3398 147.559-51.0254Q147.559-53.7109 145.996-55.9814Q144.434-58.252 141.553-59.5703ZM44.1895-22.0215L44.1895 4.93164Q50.8789 8.93555 60.0586 11.1572Q69.2383 13.3789 79.9805 13.3789Q90.6738 13.3789 99.7803 11.2061Q108.887 9.0332 115.625 5.15137Q122.363 1.26953 126.123-3.95508Q129.883-9.17969 129.883-15.2344L129.883-28.4668L97.2656-13.5742Q87.9395-9.27734 79.9805-9.32617Q72.1191-9.27734 62.6953-13.5742ZM30.127-28.4668L30.127-15.2344Q30.127-12.0605 31.543-8.69141Q32.959-5.32227 35.5957-2.24609L35.5957-25.9277ZM35.5957 14.1602L44.1895 14.209L44.1895 4.93164Q41.6016 3.36914 39.4287 1.5625Q37.2559-0.244141 35.5957-2.24609ZM30.6152 16.4062L30.6152 28.8086Q30.6152 32.2754 32.7393 34.3994Q34.8633 36.5234 38.3301 36.5234L41.4062 36.5234Q44.9219 36.5234 47.0459 34.3994Q49.1699 32.2754 49.1699 28.8086L49.1699 16.4062Q49.1699 12.9395 47.0459 10.8154Q44.9219 8.69141 41.4062 8.69141L38.3301 8.69141Q34.8633 8.69141 32.7393 10.8154Q30.6152 12.9395 30.6152 16.4062Z"/>
  </g>
  <g id="Semibold-M" transform="matrix(1 0 0 1 1964.02 1126)">
   <path d="M140.576-58.7891L92.8711-80.5664Q88.9648-82.3242 85.6689-83.1543Q82.373-83.9844 79.248-83.9355Q76.123-83.9844 72.8027-83.1543Q69.4824-82.3242 65.5762-80.5664L17.9199-58.7891Q15.2832-57.5684 13.8672-55.4688Q12.4512-53.3691 12.4512-51.0254Q12.4512-48.6328 13.8672-46.5576Q15.2832-44.4824 17.9199-43.3105L36.084-35.1562L68.2617-50.1465Q68.0176-50.5371 68.0176-51.0254Q68.0176-52.9785 69.6533-54.4189Q71.2891-55.8594 73.9014-56.7139Q76.5137-57.5684 79.3457-57.5684Q82.2754-57.5684 84.8633-56.7383Q87.4512-55.9082 89.0625-54.4434Q90.6738-52.9785 90.6738-51.0254Q90.6738-49.0723 89.0625-47.583Q87.4512-46.0938 84.8633-45.2393Q82.2754-44.3848 79.3457-44.3848Q76.6113-44.3848 74.1699-45.1172L44.1895-31.25L65.5762-21.4844Q69.5312-19.6777 72.8271-18.8477Q76.123-18.0176 79.248-18.0664Q82.373-18.0176 85.6689-18.8477Q88.9648-19.6777 92.8711-21.4844L140.576-43.3105Q143.213-44.5312 144.629-46.582Q146.045-48.6328 146.045-51.0254Q146.045-53.3691 144.629-55.4688Q143.213-57.5684 140.576-58.7891ZM44.043-23.0957L44.043 4.83398Q50.5371 8.74023 59.5215 10.9375Q68.5059 13.1348 79.248 13.1348Q89.9414 13.1348 98.9258 10.9619Q107.91 8.78906 114.453 4.95605Q120.996 1.12305 124.585-3.95508Q128.174-9.0332 128.174-14.8926L128.174-29.4434L95.9961-14.6973Q86.9141-10.5469 79.248-10.5957Q71.582-10.5469 62.4512-14.6973ZM30.3223-29.3945L30.3223-14.8926Q30.3223-11.7188 31.8359-8.20312Q33.3496-4.6875 36.2793-1.51367L36.2793-26.6602ZM36.2793 14.7949L44.043 14.8438L44.043 4.83398Q41.748 3.41797 39.7705 1.83105Q37.793 0.244141 36.2793-1.51367ZM31.6895 16.3574L31.6895 28.9062Q31.6895 32.1777 33.667 34.1553Q35.6445 36.1328 38.916 36.1328L41.3574 36.1328Q44.6289 36.1328 46.6064 34.1553Q48.584 32.1777 48.584 28.9062L48.584 16.3574Q48.584 13.0859 46.6064 11.1084Q44.6289 9.13086 41.3574 9.13086L38.916 9.13086Q35.6445 9.13086 33.667 11.1084Q31.6895 13.0859 31.6895 16.3574Z"/>
  </g>
  <g id="Medium-M" transform="matrix(1 0 0 1 1667.87 1126)">
   <path d="M139.795-58.2031L92.0898-80.0293Q88.2324-81.7383 84.9854-82.5684Q81.7383-83.3984 78.6621-83.3496Q75.6348-83.3984 72.3633-82.5684Q69.0918-81.7383 65.2344-80.0293L17.5781-58.2031Q15.0391-57.0801 13.7451-55.127Q12.4512-53.1738 12.4512-51.0254Q12.4512-48.8281 13.7451-46.9238Q15.0391-45.0195 17.5781-43.8965L36.5723-35.3027L68.2129-50.0488Q67.8711-50.4883 67.8711-51.0254Q67.8711-52.7832 69.458-54.1504Q71.0449-55.5176 73.5596-56.2988Q76.0742-57.0801 78.8086-57.0801Q81.5918-57.0801 84.082-56.2988Q86.5723-55.5176 88.1592-54.1504Q89.7461-52.7832 89.7461-51.0254Q89.7461-49.2188 88.1836-47.8271Q86.6211-46.4355 84.1064-45.6299Q81.5918-44.8242 78.8086-44.8242Q76.1719-44.8242 73.877-45.5566L44.0918-31.6895L65.2344-22.0215Q69.1406-20.2637 72.3877-19.458Q75.6348-18.6523 78.6621-18.7012Q81.7383-18.6523 84.9854-19.458Q88.2324-20.2637 92.0898-22.0215L139.795-43.8965Q142.334-45.0195 143.628-46.9238Q144.922-48.8281 144.922-51.0254Q144.922-53.1738 143.628-55.127Q142.334-57.0801 139.795-58.2031ZM43.9453-23.9746L43.9453 4.73633Q50.293 8.59375 59.1309 10.7422Q67.9688 12.8906 78.6621 12.8906Q89.4043 12.8906 98.291 10.7422Q107.178 8.59375 113.574 4.80957Q119.971 1.02539 123.462-3.97949Q126.953-8.98438 126.953-14.6484L126.953-30.1758L95.0195-15.5762Q86.1328-11.4746 78.6621-11.5234Q71.2402-11.4746 62.3047-15.5762ZM30.4199-30.127L30.4199-14.6484Q30.4199-11.4746 32.0557-7.86133Q33.6914-4.24805 36.7676-0.976562L36.7676-27.1973ZM36.7676 15.332L43.9453 15.332L43.9453 4.73633Q41.8457 3.4668 40.0391 2.02637Q38.2324 0.585938 36.7676-0.976562ZM32.5195 16.3574L32.5195 29.0039Q32.5195 32.1289 34.3994 34.0088Q36.2793 35.8887 39.3555 35.8887L41.3086 35.8887Q44.4336 35.8887 46.2891 34.0088Q48.1445 32.1289 48.1445 29.0039L48.1445 16.3574Q48.1445 13.2324 46.2891 11.3525Q44.4336 9.47266 41.3086 9.47266L39.3555 9.47266Q36.2793 9.47266 34.3994 11.3525Q32.5195 13.2324 32.5195 16.3574Z"/>
  </g>
  <g id="Regular-M" transform="matrix(1 0 0 1 1371.89 1126)">
   <path d="M138.818-57.4219L91.0156-79.2969Q87.2559-81.0059 84.1064-81.7871Q80.957-82.5684 77.9297-82.5195Q74.9512-82.5684 71.7773-81.7871Q68.6035-81.0059 64.8438-79.2969L17.0898-57.4219Q14.7461-56.3965 13.5986-54.6387Q12.4512-52.8809 12.4512-51.0254Q12.4512-49.1211 13.5986-47.4121Q14.7461-45.7031 17.0898-44.6289L37.207-35.4492L68.1152-49.9512Q67.7246-50.4395 67.7246-51.0254Q67.7246-52.5879 69.2383-53.8086Q70.752-55.0293 73.1445-55.7373Q75.5371-56.4453 78.125-56.4453Q80.7617-56.4453 83.1299-55.7373Q85.498-55.0293 86.9873-53.8086Q88.4766-52.5879 88.4766-51.0254Q88.4766-49.4141 86.9873-48.1689Q85.498-46.9238 83.1299-46.1914Q80.7617-45.459 78.125-45.459Q75.6348-45.459 73.4863-46.0938L43.9941-32.2754L64.8438-22.7051Q68.6523-20.9961 71.8018-20.2148Q74.9512-19.4336 77.9297-19.4824Q80.957-19.4336 84.1064-20.2148Q87.2559-20.9961 91.0156-22.7051L138.818-44.6289Q141.162-45.7031 142.31-47.4121Q143.457-49.1211 143.457-51.0254Q143.457-52.8809 142.31-54.6387Q141.162-56.3965 138.818-57.4219ZM43.7988-25.0488L43.7988 4.63867Q49.9512 8.39844 58.6182 10.5225Q67.2852 12.6465 77.9297 12.6465Q88.7207 12.6465 97.4609 10.5225Q106.201 8.39844 112.402 4.66309Q118.604 0.927734 121.948-3.95508Q125.293-8.83789 125.293-14.3066L125.293-31.1035L93.7988-16.6992Q85.1562-12.7441 77.9297-12.793Q70.752-12.7441 62.0605-16.6992ZM30.6152-31.1035L30.6152-14.3066Q30.6152-11.1328 32.373-7.39746Q34.1309-3.66211 37.4512-0.292969L37.4512-27.9297ZM37.4512 15.9668L43.7988 15.9668L43.7988 4.63867Q41.9922 3.51562 40.3809 2.29492Q38.7695 1.07422 37.4512-0.292969ZM33.5938 16.3086L33.5938 29.1504Q33.5938 32.0312 35.3271 33.7646Q37.0605 35.498 39.9414 35.498L41.2598 35.498Q44.1406 35.498 45.874 33.7646Q47.6074 32.0312 47.6074 29.1504L47.6074 16.3086Q47.6074 13.4277 45.874 11.6943Q44.1406 9.96094 41.2598 9.96094L39.9414 9.96094Q37.0605 9.96094 35.3271 11.6943Q33.5938 13.4277 33.5938 16.3086Z"/>
  </g>
  <g id="Light-M" transform="matrix(1 0 0 1 1075.5 1126)">
   <path d="M138.77-56.4941L90.4785-78.6133Q86.7188-80.3711 83.6426-81.1035Q80.5664-81.8359 77.6367-81.7871Q74.707-81.8359 71.6309-81.1035Q68.5547-80.3711 64.7461-78.6133L16.5039-56.4941Q14.502-55.6152 13.4766-54.0771Q12.4512-52.5391 12.4512-50.8301Q12.4512-49.1211 13.4766-47.6074Q14.502-46.0938 16.5039-45.166L38.8184-35.0098L68.457-49.3652Q67.7246-50.0977 67.7246-50.8789Q67.7246-52.2461 69.1162-53.3691Q70.5078-54.4922 72.8027-55.2002Q75.0977-55.9082 77.7344-55.9082Q80.4199-55.9082 82.6904-55.2002Q84.9609-54.4922 86.3525-53.3691Q87.7441-52.2461 87.7441-50.8789Q87.7441-49.4629 86.3525-48.291Q84.9609-47.1191 82.6904-46.3867Q80.4199-45.6543 77.7344-45.6543Q75.0977-45.6543 72.8516-46.3867L44.1406-32.4707L64.7461-22.998Q68.6035-21.2891 71.6553-20.5322Q74.707-19.7754 77.6367-19.8242Q80.5664-19.7754 83.6426-20.5322Q86.7188-21.2891 90.4785-22.998L138.77-45.166Q140.771-46.0938 141.797-47.6074Q142.822-49.1211 142.822-50.8301Q142.822-52.5391 141.797-54.0771Q140.771-55.6152 138.77-56.4941ZM44.043-26.2695L44.043 2.92969Q49.9512 6.5918 58.4473 8.81348Q66.9434 11.0352 77.6367 11.0352Q88.2324 11.0352 96.7041 8.88672Q105.176 6.73828 111.133 3.125Q117.09-0.488281 120.239-5.00488Q123.389-9.52148 123.389-14.2578L123.389-31.8848L92.8223-17.8711Q84.5215-14.1113 77.6367-14.1602Q70.752-14.1113 62.4023-17.8711ZM31.8359-31.8848L31.8359-14.2578Q31.8359-11.2305 33.667-7.69043Q35.498-4.15039 39.0137-0.927734L39.0137-28.5645ZM39.0137 13.0371L44.043 13.0371L44.043 2.92969Q42.627 2.05078 41.333 1.09863Q40.0391 0.146484 39.0137-0.927734ZM35.1562 13.2812L35.1562 26.2207Q35.1562 28.8574 36.6943 30.3955Q38.2324 31.9336 40.8691 31.9336L42.1387 31.9336Q44.7754 31.9336 46.2891 30.3955Q47.8027 28.8574 47.8027 26.2207L47.8027 13.2812Q47.8027 10.6445 46.2891 9.13086Q44.7754 7.61719 42.1387 7.61719L40.8691 7.61719Q38.2324 7.61719 36.6943 9.13086Q35.1562 10.6445 35.1562 13.2812Z"/>
  </g>
  <g id="Thin-M" transform="matrix(1 0 0 1 779.201 1126)">
   <path d="M138.672-55.2734L89.7461-77.7344Q85.9375-79.4922 82.9834-80.1758Q80.0293-80.8594 77.2461-80.8105Q74.4141-80.8594 71.46-80.1758Q68.5059-79.4922 64.6484-77.7344L15.7715-55.2734Q14.1602-54.541 13.3057-53.2959Q12.4512-52.0508 12.4512-50.5859Q12.4512-49.1211 13.3057-47.876Q14.1602-46.6309 15.7715-45.8984L40.9668-34.4238L68.9453-48.584Q67.7246-49.6094 67.7246-50.6348Q67.7246-51.7578 68.9697-52.7832Q70.2148-53.8086 72.3633-54.4922Q74.5117-55.1758 77.2461-55.1758Q79.9805-55.1758 82.1289-54.4922Q84.2773-53.8086 85.498-52.7832Q86.7188-51.7578 86.7188-50.6348Q86.7188-49.4629 85.498-48.4131Q84.2773-47.3633 82.1289-46.6553Q79.9805-45.9473 77.2461-45.9473Q74.3164-45.9473 72.0215-46.7773L44.3848-32.7148L64.6484-23.3887Q68.5547-21.6797 71.4844-20.9717Q74.4141-20.2637 77.2461-20.3125Q80.0293-20.2637 82.9834-20.9717Q85.9375-21.6797 89.7461-23.3887L138.672-45.8984Q140.283-46.6309 141.138-47.876Q141.992-49.1211 141.992-50.5859Q141.992-52.0508 141.138-53.2959Q140.283-54.541 138.672-55.2734ZM44.3359-27.9297L44.3359 0.634766Q49.9512 4.19922 58.2275 6.54297Q66.5039 8.88672 77.2461 8.88672Q87.5977 8.88672 95.7031 6.73828Q103.809 4.58984 109.424 1.12305Q115.039-2.34375 117.969-6.37207Q120.898-10.4004 120.898-14.1602L120.898-32.959L91.6016-19.4824Q83.6914-15.8691 77.2461-15.9668Q70.752-15.8691 62.8418-19.4824ZM33.4961-32.9102L33.4961-14.1602Q33.4961-11.3281 35.4248-8.08105Q37.3535-4.83398 41.0156-1.75781L41.0156-29.4434ZM41.0156 9.17969L44.3359 9.17969L44.3359 0.634766Q43.457 0.0488281 42.6025-0.537109Q41.748-1.12305 41.0156-1.75781ZM37.2559 9.22852L37.2559 22.4121Q37.2559 24.6582 38.501 25.9033Q39.7461 27.1484 42.041 27.1484L43.3105 27.1484Q45.6055 27.1484 46.8506 25.9033Q48.0957 24.6582 48.0957 22.4121L48.0957 9.22852Q48.0957 6.98242 46.8506 5.7373Q45.6055 4.49219 43.3105 4.49219L42.041 4.49219Q39.7461 4.49219 38.501 5.7373Q37.2559 6.98242 37.2559 9.22852Z"/>
  </g>
  <g id="Ultralight-M" transform="matrix(1 0 0 1 482.709 1126)">
   <path d="M138.623-54.6387L89.4043-77.2949Q85.5957-79.0527 82.6904-79.7119Q79.7852-80.3711 77.002-80.3223Q74.2676-80.3711 71.3623-79.7119Q68.457-79.0527 64.5996-77.2949L15.3809-54.6387Q13.9648-54.0039 13.208-52.9053Q12.4512-51.8066 12.4512-50.4883Q12.4512-49.1211 13.208-47.998Q13.9648-46.875 15.3809-46.2402L42.0898-34.1309L69.1895-48.1934Q67.7246-49.3652 67.7246-50.5371Q67.7246-51.5137 68.8965-52.4658Q70.0684-53.418 72.1436-54.126Q74.2188-54.834 77.002-54.834Q79.7852-54.834 81.8359-54.126Q83.8867-53.418 85.0586-52.4658Q86.2305-51.5137 86.2305-50.5371Q86.2305-49.5117 85.0586-48.4863Q83.8867-47.4609 81.8359-46.7773Q79.7852-46.0938 77.002-46.0938Q73.9746-46.0938 71.6309-47.0215L44.4824-32.8125L64.5996-23.6328Q68.5059-21.875 71.3867-21.1914Q74.2676-20.5078 77.002-20.5566Q79.7852-20.5078 82.6904-21.1914Q85.5957-21.875 89.4043-23.6328L138.623-46.2402Q140.039-46.875 140.796-47.998Q141.553-49.1211 141.553-50.4883Q141.553-51.8066 140.796-52.9053Q140.039-54.0039 138.623-54.6387ZM44.4824-28.7598L44.4824-0.537109Q49.9512 2.97852 58.1299 5.37109Q66.3086 7.76367 77.002 7.76367Q87.2559 7.76367 95.1904 5.61523Q103.125 3.4668 108.569 0.0976562Q114.014-3.27148 116.821-7.08008Q119.629-10.8887 119.629-14.1113L119.629-33.4961L90.918-20.2637Q83.252-16.7969 77.002-16.8945Q70.752-16.7969 63.0371-20.2637ZM34.3262-33.3984L34.3262-14.1113Q34.3262-11.377 36.3037-8.27637Q38.2812-5.17578 42.0898-2.19727L42.0898-29.8828ZM42.0898 7.22656L44.4824 7.22656L44.4824-0.537109Q43.8477-0.927734 43.2373-1.34277Q42.627-1.75781 42.0898-2.19727ZM38.3301 7.17773L38.3301 20.4102Q38.3301 22.5098 39.4531 23.6328Q40.5762 24.7559 42.6758 24.7559L43.8965 24.7559Q45.9961 24.7559 47.1191 23.6328Q48.2422 22.5098 48.2422 20.4102L48.2422 7.17773Q48.2422 5.12695 47.1191 4.00391Q45.9961 2.88086 43.8965 2.88086L42.6758 2.88086Q40.5762 2.88086 39.4531 4.00391Q38.3301 5.12695 38.3301 7.17773Z"/>
  </g>
  <g id="Black-S" transform="matrix(1 0 0 1 2868.85 696)">
   <path d="M113.428-56.2012L76.3184-73.1445Q72.998-74.6582 70.0928-75.3906Q67.1875-76.123 64.5508-76.0742Q61.9141-76.123 59.0088-75.3906Q56.1035-74.6582 52.7832-73.1445L15.6738-56.2012Q12.9883-54.9805 11.377-52.71Q9.76562-50.4395 9.76562-47.6074Q9.76562-44.7754 11.377-42.4561Q12.9883-40.1367 15.6738-39.0137L26.2207-34.5703L53.8086-47.2168Q53.8086-47.3145 53.8086-47.4121Q53.8086-47.5098 53.8086-47.6074Q53.8086-50.9277 57.1045-52.8564Q60.4004-54.7852 64.5508-54.7852Q68.7012-54.7852 71.9727-52.8564Q75.2441-50.9277 75.2441-47.6074Q75.2441-44.2871 71.9971-42.3096Q68.75-40.332 64.5508-40.332Q61.8164-40.332 59.4238-41.1621L35.0098-30.1758L52.7832-22.0703Q56.1035-20.5566 59.0088-19.8242Q61.9141-19.0918 64.5508-19.1406Q67.1875-19.0918 70.0928-19.8242Q72.998-20.5566 76.3184-22.0703L113.428-39.0137Q116.162-40.2832 117.749-42.5293Q119.336-44.7754 119.336-47.6074Q119.336-50.4395 117.749-52.71Q116.162-54.9805 113.428-56.2012ZM35.0098-22.1191L35.0098-3.61328Q40.7227-0.292969 48.3887 1.5625Q56.0547 3.41797 64.5508 3.41797Q72.8516 3.41797 80.2979 1.66016Q87.7441-0.0976562 93.5059-3.27148Q99.2676-6.44531 102.563-10.8154Q105.859-15.1855 105.859-20.3613L105.859-27.5391L79.3457-15.3809Q71.4355-11.7188 64.5508-11.8164Q57.7637-11.7188 49.7559-15.3809ZM23.2422-27.4902L23.2422-20.3613Q23.2422-17.9199 24.0234-15.625Q24.8047-13.3301 26.2695-11.2305L26.2695-26.123ZM26.2695 1.61133L35.0098 1.66016L35.0098-3.61328Q32.2266-5.22461 30.0293-7.15332Q27.832-9.08203 26.2695-11.2305ZM21.2891 5.12695L21.2891 14.4043Q21.2891 17.6758 23.3154 19.7021Q25.3418 21.7285 28.6133 21.7285L32.6172 21.7285Q35.9375 21.7285 37.9395 19.7021Q39.9414 17.6758 39.9414 14.4043L39.9414 5.12695Q39.9414 1.80664 37.9395-0.195312Q35.9375-2.19727 32.6172-2.19727L28.6133-2.19727Q25.3418-2.19727 23.3154-0.195312Q21.2891 1.80664 21.2891 5.12695Z"/>
  </g>
  <g id="Heavy-S" transform="matrix(1 0 0 1 2572.92 696)">
   <path d="M112.354-55.4688L75.1953-72.4121Q71.9727-73.877 69.165-74.585Q66.3574-75.293 63.7695-75.2441Q61.1816-75.293 58.374-74.585Q55.5664-73.877 52.3438-72.4121L15.1855-55.4688Q12.6953-54.3457 11.2305-52.2461Q9.76562-50.1465 9.76562-47.6074Q9.76562-45.1172 11.2305-42.9932Q12.6953-40.8691 15.1855-39.7949L26.709-34.8145L53.6621-47.168Q53.6621-47.2656 53.6377-47.3877Q53.6133-47.5098 53.6133-47.6074Q53.6133-50.6348 56.7627-52.3926Q59.9121-54.1504 63.8184-54.1504Q67.6758-54.1504 70.8008-52.3926Q73.9258-50.6348 73.9258-47.6074Q73.9258-44.6289 70.8252-42.8223Q67.7246-41.0156 63.8184-41.0156Q61.2793-41.0156 59.0332-41.748L34.8633-30.8105L52.3438-22.8516Q55.5664-21.3379 58.374-20.6299Q61.1816-19.9219 63.7695-19.9707Q66.3574-19.9219 69.165-20.6299Q71.9727-21.3379 75.1953-22.8516L112.354-39.7949Q114.893-40.9668 116.333-43.042Q117.773-45.1172 117.773-47.6074Q117.773-50.1465 116.333-52.2461Q114.893-54.3457 112.354-55.4688ZM34.8145-23.1934L34.8145-3.51562Q40.332-0.292969 47.8271 1.51367Q55.3223 3.32031 63.7695 3.32031Q72.1191 3.32031 79.4434 1.58691Q86.7676-0.146484 92.3584-3.27148Q97.9492-6.39648 101.099-10.6689Q104.248-14.9414 104.248-20.0195L104.248-28.5156L78.0762-16.5039Q70.4102-12.9395 63.7695-13.0371Q57.2266-12.9395 49.4629-16.5039ZM23.291-28.4668L23.291-20.0195Q23.291-17.5293 24.1943-15.0635Q25.0977-12.5977 26.8066-10.3516L26.8066-26.8555ZM26.8066 2.73438L34.8145 2.73438L34.8145-3.51562Q32.3242-4.98047 30.2979-6.71387Q28.2715-8.44727 26.8066-10.3516ZM22.3145 5.46875L22.3145 14.9414Q22.3145 17.9688 24.1943 19.873Q26.0742 21.7773 29.1504 21.7773L32.4707 21.7773Q35.5469 21.7773 37.4268 19.873Q39.3066 17.9688 39.3066 14.9414L39.3066 5.46875Q39.3066 2.39258 37.4268 0.512695Q35.5469-1.36719 32.4707-1.36719L29.1504-1.36719Q26.0742-1.36719 24.1943 0.512695Q22.3145 2.39258 22.3145 5.46875Z"/>
  </g>
  <g id="Bold-S" transform="matrix(1 0 0 1 2277.09 696)">
   <path d="M111.133-54.6387L73.9746-71.6309Q70.8496-73.0469 68.1396-73.7305Q65.4297-74.4141 62.8906-74.3652Q60.4004-74.4141 57.6904-73.7305Q54.9805-73.0469 51.8555-71.6309L14.6973-54.6387Q12.3535-53.6133 11.0596-51.7334Q9.76562-49.8535 9.76562-47.6562Q9.76562-45.459 11.0596-43.5791Q12.3535-41.6992 14.6973-40.6738L27.2949-35.1074L53.5156-47.1191Q53.4668-47.2656 53.4668-47.3877Q53.4668-47.5098 53.4668-47.6562Q53.4668-50.293 56.4209-51.8799Q59.375-53.4668 62.9883-53.4668Q66.6016-53.4668 69.5557-51.8799Q72.5098-50.293 72.5098-47.6562Q72.5098-44.9707 69.5557-43.3594Q66.6016-41.748 62.9883-41.748Q60.6934-41.748 58.6426-42.3828L34.7168-31.543L51.8555-23.6816Q54.9805-22.2656 57.6904-21.582Q60.4004-20.8984 62.8906-20.9473Q65.4297-20.8984 68.1396-21.582Q70.8496-22.2656 73.9746-23.6816L111.133-40.6738Q113.477-41.7969 114.746-43.6279Q116.016-45.459 116.016-47.6562Q116.016-49.8535 114.746-51.7334Q113.477-53.6133 111.133-54.6387ZM34.6191-24.4141L34.6191-3.36914Q39.9414-0.244141 47.2168 1.51367Q54.4922 3.27148 62.8906 3.27148Q71.3379 3.27148 78.54 1.53809Q85.7422-0.195312 91.1133-3.27148Q96.4844-6.34766 99.4873-10.5225Q102.49-14.6973 102.49-19.6289L102.49-29.5898L76.6602-17.7734Q69.2383-14.3555 62.8906-14.4043Q56.5918-14.3555 49.1211-17.7734ZM23.3398-29.541L23.3398-19.6289Q23.3398-17.1387 24.3896-14.4775Q25.4395-11.8164 27.4414-9.42383L27.4414-27.6855ZM27.4414 3.95508L34.6191 4.00391L34.6191-3.36914Q32.4219-4.6875 30.6152-6.20117Q28.8086-7.71484 27.4414-9.42383ZM23.4375 5.85938L23.4375 15.5273Q23.4375 18.3594 25.1709 20.0928Q26.9043 21.8262 29.7363 21.8262L32.2754 21.8262Q35.1074 21.8262 36.8408 20.0928Q38.5742 18.3594 38.5742 15.5273L38.5742 5.85938Q38.5742 3.02734 36.8408 1.29395Q35.1074-0.439453 32.2754-0.439453L29.7363-0.439453Q26.9043-0.439453 25.1709 1.29395Q23.4375 3.02734 23.4375 5.85938Z"/>
  </g>
  <g id="Semibold-S" transform="matrix(1 0 0 1 1980.99 696)">
   <path d="M110.254-54.0527L73.0957-71.0449Q70.0195-72.4121 67.3828-73.0957Q64.7461-73.7793 62.3047-73.7305Q59.8145-73.7793 57.1777-73.0957Q54.541-72.4121 51.4648-71.0449L14.3066-54.0527Q12.1094-53.0762 10.9375-51.3428Q9.76562-49.6094 9.76562-47.6562Q9.76562-45.7031 10.9375-43.9941Q12.1094-42.2852 14.3066-41.2598L27.6855-35.3027L53.3691-47.0703Q53.3203-47.2168 53.3203-47.3633Q53.3203-47.5098 53.3203-47.6562Q53.3203-50.0488 56.1523-51.4893Q58.9844-52.9297 62.4023-52.9297Q65.8203-52.9297 68.6523-51.4893Q71.4844-50.0488 71.4844-47.6562Q71.4844-45.2148 68.6523-43.75Q65.8203-42.2852 62.4023-42.2852Q60.3027-42.2852 58.3496-42.8223L34.6191-32.0312L51.4648-24.2676Q54.541-22.8516 57.1777-22.1924Q59.8145-21.5332 62.3047-21.582Q64.7461-21.5332 67.3828-22.1924Q70.0195-22.8516 73.0957-24.2676L110.254-41.2598Q112.5-42.334 113.647-44.0186Q114.795-45.7031 114.795-47.6562Q114.795-49.6094 113.647-51.3428Q112.5-53.0762 110.254-54.0527ZM34.4727-25.1953L34.4727-3.27148Q39.6484-0.244141 46.7773 1.46484Q53.9062 3.17383 62.3047 3.17383Q70.752 3.17383 77.8564 1.48926Q84.9609-0.195312 90.21-3.24707Q95.459-6.29883 98.3398-10.4004Q101.221-14.502 101.221-19.3848L101.221-30.3223L75.6836-18.6035Q68.457-15.2832 62.3047-15.332Q56.1523-15.2832 48.877-18.6035ZM23.3398-30.2734L23.3398-19.3848Q23.3398-16.7969 24.5117-14.0137Q25.6836-11.2305 27.8809-8.74023L27.8809-28.2227ZM27.8809 4.78516L34.4727 4.83398L34.4727-3.27148Q32.4707-4.49219 30.8105-5.85938Q29.1504-7.22656 27.8809-8.74023ZM24.2188 6.10352L24.2188 15.918Q24.2188 18.5547 25.8545 20.2148Q27.4902 21.875 30.127 21.875L32.1289 21.875Q34.8145 21.875 36.4502 20.2148Q38.0859 18.5547 38.0859 15.918L38.0859 6.10352Q38.0859 3.4668 36.4502 1.83105Q34.8145 0.195312 32.1289 0.195312L30.127 0.195312Q27.4902 0.195312 25.8545 1.83105Q24.2188 3.4668 24.2188 6.10352Z"/>
  </g>
  <g id="Medium-S" transform="matrix(1 0 0 1 1684.74 696)">
   <path d="M109.619-53.6621L72.4121-70.6055Q69.4336-71.9727 66.8457-72.6318Q64.2578-73.291 61.8164-73.291Q59.375-73.291 56.7871-72.6318Q54.1992-71.9727 51.2207-70.6055L14.0137-53.6621Q11.9141-52.6855 10.8398-51.0498Q9.76562-49.4141 9.76562-47.6562Q9.76562-45.8984 10.8398-44.2871Q11.9141-42.6758 14.0137-41.748L27.9785-35.4492L53.2715-47.0703Q53.2715-47.2168 53.2471-47.3633Q53.2227-47.5098 53.2227-47.6562Q53.2227-49.9023 55.9814-51.2451Q58.7402-52.5879 62.0117-52.5879Q65.2344-52.5879 67.9688-51.2451Q70.7031-49.9023 70.7031-47.6562Q70.7031-45.4102 67.9688-44.043Q65.2344-42.6758 62.0117-42.6758Q59.9609-42.6758 58.1543-43.1641L34.5215-32.373L51.2207-24.707Q54.1992-23.3398 56.7871-22.6807Q59.375-22.0215 61.8164-22.0703Q64.2578-22.0215 66.8457-22.6807Q69.4336-23.3398 72.4121-24.707L109.619-41.748Q111.768-42.7246 112.817-44.3115Q113.867-45.8984 113.867-47.6562Q113.867-49.4141 112.817-51.0498Q111.768-52.6855 109.619-53.6621ZM34.375-25.8301L34.375-3.22266Q39.4531-0.195312 46.46 1.46484Q53.4668 3.125 61.8164 3.125Q70.3125 3.125 77.3682 1.46484Q84.4238-0.195312 89.5752-3.24707Q94.7266-6.29883 97.5098-10.3516Q100.293-14.4043 100.293-19.1406L100.293-30.9082L74.9512-19.2871Q67.8223-16.0156 61.8164-16.0645Q55.8594-16.0156 48.7305-19.2871ZM23.3398-30.8594L23.3398-19.1406Q23.3398-16.6016 24.585-13.6963Q25.8301-10.791 28.1738-8.20312L28.1738-28.6621ZM28.1738 5.46875L34.375 5.46875L34.375-3.22266Q32.5684-4.3457 31.0059-5.59082Q29.4434-6.83594 28.1738-8.20312ZM24.8047 6.34766L24.8047 16.2598Q24.8047 18.75 26.3428 20.3125Q27.8809 21.875 30.4688 21.875L32.0801 21.875Q34.5703 21.875 36.1328 20.3125Q37.6953 18.75 37.6953 16.2598L37.6953 6.34766Q37.6953 3.80859 36.1328 2.24609Q34.5703 0.683594 32.0801 0.683594L30.4688 0.683594Q27.8809 0.683594 26.3428 2.24609Q24.8047 3.80859 24.8047 6.34766Z"/>
  </g>
  <g id="Regular-S" transform="matrix(1 0 0 1 1388.61 696)">
   <path d="M108.789-53.0762L71.582-70.0684Q68.6523-71.3867 66.1377-72.0215Q63.623-72.6562 61.2305-72.6562Q58.8379-72.6562 56.3232-72.0215Q53.8086-71.3867 50.8789-70.0684L13.6719-53.0762Q11.6699-52.1973 10.7178-50.708Q9.76562-49.2188 9.76562-47.6562Q9.76562-46.1426 10.7178-44.7021Q11.6699-43.2617 13.6719-42.334L28.3691-35.6445L53.1738-47.0215Q53.125-47.168 53.1006-47.3389Q53.0762-47.5098 53.0762-47.6562Q53.0762-49.6582 55.7129-50.8789Q58.3496-52.0996 61.4258-52.0996Q64.4531-52.0996 67.0898-50.8789Q69.7266-49.6582 69.7266-47.6562Q69.7266-45.6543 67.0898-44.4092Q64.4531-43.1641 61.4258-43.1641Q59.5703-43.1641 57.8613-43.6035L34.4238-32.8613L50.8789-25.293Q53.8086-23.9258 56.3232-23.291Q58.8379-22.6562 61.2305-22.7051Q63.623-22.6562 66.1377-23.291Q68.6523-23.9258 71.582-25.293L108.789-42.334Q110.791-43.2617 111.743-44.7021Q112.695-46.1426 112.695-47.6562Q112.695-49.2188 111.743-50.708Q110.791-52.1973 108.789-53.0762ZM34.2285-26.6602L34.2285-3.125Q39.1602-0.195312 46.0205 1.44043Q52.8809 3.07617 61.2305 3.07617Q69.7754 3.07617 76.7334 1.41602Q83.6914-0.244141 88.6963-3.24707Q93.7012-6.25 96.3867-10.2295Q99.0723-14.209 99.0723-18.8965L99.0723-31.6406L73.9746-20.1172Q67.041-16.9434 61.2305-16.9922Q55.4199-16.9434 48.4863-20.1172ZM23.3887-31.5918L23.3887-18.8965Q23.3887-16.3086 24.7314-13.2812Q26.0742-10.2539 28.6133-7.56836L28.6133-29.1992ZM28.6133 6.29883L34.2285 6.29883L34.2285-3.125Q32.6172-4.15039 31.2012-5.24902Q29.7852-6.34766 28.6133-7.56836ZM25.5859 6.5918L25.5859 16.6504Q25.5859 18.9941 27.0264 20.459Q28.4668 21.9238 30.8594 21.9238L31.9336 21.9238Q34.2773 21.9238 35.7422 20.459Q37.207 18.9941 37.207 16.6504L37.207 6.5918Q37.207 4.24805 35.7422 2.7832Q34.2773 1.31836 31.9336 1.31836L30.8594 1.31836Q28.4668 1.31836 27.0264 2.7832Q25.5859 4.24805 25.5859 6.5918Z"/>
  </g>
  <g id="Light-S" transform="matrix(1 0 0 1 1092.17 696)">
   <path d="M108.74-52.2461L71.0938-69.4824Q68.1641-70.8496 65.7227-71.4355Q63.2812-72.0215 60.9375-72.0215Q58.6426-72.0215 56.2012-71.4355Q53.7598-70.8496 50.7812-69.4824L13.1348-52.2461Q11.4258-51.4648 10.5957-50.1709Q9.76562-48.877 9.76562-47.5098Q9.76562-46.1426 10.5957-44.873Q11.4258-43.6035 13.1348-42.8223L29.7852-35.2539L53.5156-46.4844Q53.2715-46.7285 53.1738-46.9971Q53.0762-47.2656 53.0762-47.5098Q53.0762-49.2676 55.5176-50.4395Q57.959-51.6113 61.084-51.6113Q64.1602-51.6113 66.6016-50.4395Q69.043-49.2676 69.043-47.5098Q69.043-45.752 66.6016-44.5557Q64.1602-43.3594 61.084-43.3594Q59.082-43.3594 57.3242-43.8477L34.5703-33.0078L50.7812-25.5371Q53.7598-24.1699 56.2012-23.584Q58.6426-22.998 60.9375-23.0469Q63.2812-22.998 65.7227-23.584Q68.1641-24.1699 71.0938-25.5371L108.74-42.8223Q110.449-43.6035 111.304-44.873Q112.158-46.1426 112.158-47.5098Q112.158-48.877 111.304-50.1709Q110.449-51.4648 108.74-52.2461ZM34.4238-27.7832L34.4238-4.63867Q39.1602-1.80664 45.874-0.0732422Q52.5879 1.66016 60.9375 1.66016Q69.3359 1.66016 76.0498-0.0244141Q82.7637-1.70898 87.5488-4.58984Q92.334-7.4707 94.873-11.1328Q97.4121-14.7949 97.4121-18.8477L97.4121-32.3242L73.1445-21.1914Q66.5039-18.1152 60.9375-18.2129Q55.4199-18.1152 48.7793-21.1914ZM24.5117-32.2754L24.5117-18.8477Q24.5117-16.4062 25.9033-13.5498Q27.2949-10.6934 29.9805-8.10547L29.9805-29.7852ZM29.9805 3.71094L34.4238 3.71094L34.4238-4.63867Q33.1543-5.46875 32.0312-6.32324Q30.9082-7.17773 29.9805-8.10547ZM27.002 3.90625L27.002 14.0625Q27.002 16.2109 28.2471 17.4805Q29.4922 18.75 31.6406 18.75L32.7148 18.75Q34.8145 18.75 36.1084 17.4805Q37.4023 16.2109 37.4023 14.0625L37.4023 3.90625Q37.4023 1.80664 36.1084 0.512695Q34.8145-0.78125 32.7148-0.78125L31.6406-0.78125Q29.4922-0.78125 28.2471 0.512695Q27.002 1.80664 27.002 3.90625Z"/>
  </g>
  <g id="Thin-S" transform="matrix(1 0 0 1 795.851 696)">
   <path d="M108.691-51.1719L70.459-68.7012Q67.4805-70.0684 65.1367-70.6299Q62.793-71.1914 60.5957-71.1426Q58.3496-71.1914 56.0059-70.6299Q53.6621-70.0684 50.6836-68.7012L12.5-51.1719Q11.1328-50.5371 10.4492-49.5117Q9.76562-48.4863 9.76562-47.3145Q9.76562-46.0938 10.4492-45.0928Q11.1328-44.0918 12.5-43.457L31.6895-34.7168L53.9062-45.8496Q53.5156-46.1914 53.2959-46.582Q53.0762-46.9727 53.0762-47.3633Q53.0762-48.7305 55.249-49.8535Q57.4219-50.9766 60.6445-50.9766Q63.8184-50.9766 65.9912-49.8535Q68.1641-48.7305 68.1641-47.3633Q68.1641-45.8984 65.9912-44.751Q63.8184-43.6035 60.6445-43.6035Q58.3984-43.6035 56.5918-44.1895L34.7168-33.2031L50.6836-25.8789Q53.7109-24.5117 56.0303-23.9746Q58.3496-23.4375 60.5957-23.4375Q62.793-23.4375 65.1367-23.9746Q67.4805-24.5117 70.459-25.8789L108.691-43.457Q110.01-44.0918 110.693-45.0928Q111.377-46.0938 111.377-47.3145Q111.377-48.4863 110.693-49.5117Q110.01-50.5371 108.691-51.1719ZM34.668-29.248L34.668-6.68945Q39.1602-3.90625 45.6787-2.0752Q52.1973-0.244141 60.5957-0.244141Q68.75-0.244141 75.1709-1.92871Q81.5918-3.61328 86.0596-6.37207Q90.5273-9.13086 92.8711-12.3779Q95.2148-15.625 95.2148-18.75L95.2148-33.252L72.0215-22.6074Q65.7227-19.7266 60.5957-19.8242Q55.4199-19.7266 49.1699-22.6074ZM25.9766-33.2031L25.9766-18.75Q25.9766-16.5039 27.4414-13.8916Q28.9062-11.2793 31.7871-8.88672L31.7871-30.5176ZM31.7871 0.292969L34.668 0.292969L34.668-6.68945Q33.8867-7.22656 33.1543-7.76367Q32.4219-8.30078 31.7871-8.88672ZM28.8086 0.390625L28.8086 10.6445Q28.8086 12.5 29.8584 13.5254Q30.9082 14.5508 32.7148 14.5508L33.7402 14.5508Q35.5957 14.5508 36.6211 13.5254Q37.6465 12.5 37.6465 10.6445L37.6465 0.390625Q37.6465-1.46484 36.6211-2.49023Q35.5957-3.51562 33.7402-3.51562L32.7148-3.51562Q30.9082-3.51562 29.8584-2.49023Q28.8086-1.46484 28.8086 0.390625Z"/>
  </g>
  <g id="Ultralight-S" transform="matrix(1 0 0 1 499.311 696)">
   <path d="M108.643-50.6348L70.1172-68.3105Q67.1387-69.7266 64.8682-70.2393Q62.5977-70.752 60.4004-70.7031Q58.2031-70.752 55.9082-70.2393Q53.6133-69.7266 50.6348-68.3105L12.1094-50.6348Q10.9863-50.0488 10.376-49.1455Q9.76562-48.2422 9.76562-47.2168Q9.76562-46.0938 10.376-45.1904Q10.9863-44.2871 12.1094-43.7988L32.666-34.4238L54.1504-45.459Q53.6133-45.8984 53.3447-46.3623Q53.0762-46.8262 53.0762-47.2656Q53.0762-48.4375 55.127-49.5361Q57.1777-50.6348 60.4492-50.6348Q63.623-50.6348 65.6494-49.5361Q67.6758-48.4375 67.6758-47.2656Q67.6758-45.9961 65.6494-44.8486Q63.623-43.7012 60.4492-43.7012Q58.0566-43.7012 56.25-44.3848L34.8145-33.3008L50.6348-26.0742Q53.6621-24.707 55.9326-24.1699Q58.2031-23.6328 60.4004-23.6816Q62.5977-23.6328 64.8682-24.1699Q67.1387-24.707 70.1172-26.0742L108.643-43.7988Q109.814-44.2871 110.425-45.1904Q111.035-46.0938 111.035-47.2168Q111.035-48.2422 110.425-49.1455Q109.814-50.0488 108.643-50.6348ZM34.8145-29.9805L34.8145-7.71484Q39.1602-4.98047 45.5811-3.10059Q52.002-1.2207 60.4004-1.2207Q68.457-1.2207 74.707-2.90527Q80.957-4.58984 85.2783-7.27539Q89.5996-9.96094 91.8457-12.9883Q94.0918-16.0156 94.0918-18.7012L94.0918-33.7402L71.4355-23.3398Q65.3809-20.5078 60.4004-20.6055Q55.4199-20.5078 49.3652-23.3398ZM26.709-33.6914L26.709-18.7012Q26.709-16.5527 28.2227-14.0625Q29.7363-11.5723 32.7148-9.22852L32.7148-30.9082ZM32.7148-1.46484L34.8145-1.46484L34.8145-7.71484Q34.2285-8.10547 33.7158-8.47168Q33.2031-8.83789 32.7148-9.22852ZM29.7852-1.46484L29.7852 8.88672Q29.7852 10.5957 30.6885 11.499Q31.5918 12.4023 33.252 12.4023L34.2285 12.4023Q35.9375 12.4023 36.8408 11.499Q37.7441 10.5957 37.7441 8.88672L37.7441-1.46484Q37.7441-3.125 36.8408-4.02832Q35.9375-4.93164 34.2285-4.93164L33.252-4.93164Q31.5918-4.93164 30.6885-4.02832Q29.7852-3.125 29.7852-1.46484Z"/>
  </g>
 </g>
</svg>
