<?xml version="1.0" encoding="UTF-8"?>
<!--Generator: Apple Native CoreSVG 175-->
<!DOCTYPE svg
PUBLIC "-//W3C//DTD SVG 1.1//EN"
       "http://www.w3.org/Graphics/SVG/1.1/DTD/svg11.dtd">
<svg version="1.1" xmlns="http://www.w3.org/2000/svg" xmlns:xlink="http://www.w3.org/1999/xlink" width="3300" height="2200">
 <!--glyph: "uni100F36.medium", point size: 100.0, font version: "17.0d11e1", template writer version: "65.1"-->
 <style>.multicolor-0:systemYellowColor {fill:#FFCC00;opacity:1.0}
.multicolor-1:white {fill:#FFFFFF;opacity:1.0}

.hierarchical-0:tertiary {fill:#8E8E8E}
.hierarchical-1:primary {fill:#212121}

.SFSymbolsPreviewFFCC00 {fill:#FFCC00;opacity:1.0}
.SFSymbolsPreviewFFFFFF {fill:#FFFFFF;opacity:1.0}
</style>
 <g id="Notes">
  <rect height="2200" id="artboard" style="fill:white;opacity:1" width="3300" x="0" y="0"/>
  <line style="fill:none;stroke:black;opacity:1;stroke-width:0.5;" x1="263" x2="3036" y1="292" y2="292"/>
  <text style="stroke:none;fill:black;font-family:sans-serif;font-size:13;font-weight:bold;" transform="matrix(1 0 0 1 263 322)">Weight/Scale Variations</text>
  <text style="stroke:none;fill:black;font-family:sans-serif;font-size:13;text-anchor:middle;" transform="matrix(1 0 0 1 559.711 322)">Ultralight</text>
  <text style="stroke:none;fill:black;font-family:sans-serif;font-size:13;text-anchor:middle;" transform="matrix(1 0 0 1 856.422 322)">Thin</text>
  <text style="stroke:none;fill:black;font-family:sans-serif;font-size:13;text-anchor:middle;" transform="matrix(1 0 0 1 1153.13 322)">Light</text>
  <text style="stroke:none;fill:black;font-family:sans-serif;font-size:13;text-anchor:middle;" transform="matrix(1 0 0 1 1449.84 322)">Regular</text>
  <text style="stroke:none;fill:black;font-family:sans-serif;font-size:13;text-anchor:middle;" transform="matrix(1 0 0 1 1746.56 322)">Medium</text>
  <text style="stroke:none;fill:black;font-family:sans-serif;font-size:13;text-anchor:middle;" transform="matrix(1 0 0 1 2043.27 322)">Semibold</text>
  <text style="stroke:none;fill:black;font-family:sans-serif;font-size:13;text-anchor:middle;" transform="matrix(1 0 0 1 2339.98 322)">Bold</text>
  <text style="stroke:none;fill:black;font-family:sans-serif;font-size:13;text-anchor:middle;" transform="matrix(1 0 0 1 2636.69 322)">Heavy</text>
  <text style="stroke:none;fill:black;font-family:sans-serif;font-size:13;text-anchor:middle;" transform="matrix(1 0 0 1 2933.4 322)">Black</text>
  <line style="fill:none;stroke:black;opacity:1;stroke-width:0.5;" x1="263" x2="3036" y1="1903" y2="1903"/>
  <g transform="matrix(1 0 0 1 263 1933)">
   <path d="M9.24805 0.830078Q10.8691 0.830078 12.2949 0.214844Q13.7207-0.400391 14.8096-1.49414Q15.8984-2.58789 16.5186-4.01367Q17.1387-5.43945 17.1387-7.05078Q17.1387-8.66211 16.5186-10.0879Q15.8984-11.5137 14.8047-12.6074Q13.7109-13.7012 12.2852-14.3164Q10.8594-14.9316 9.23828-14.9316Q7.62695-14.9316 6.20117-14.3164Q4.77539-13.7012 3.69141-12.6074Q2.60742-11.5137 1.9873-10.0879Q1.36719-8.66211 1.36719-7.05078Q1.36719-5.43945 1.9873-4.01367Q2.60742-2.58789 3.69629-1.49414Q4.78516-0.400391 6.21094 0.214844Q7.63672 0.830078 9.24805 0.830078ZM9.24805-0.654297Q7.91992-0.654297 6.7627-1.14746Q5.60547-1.64062 4.73145-2.51953Q3.85742-3.39844 3.36426-4.56055Q2.87109-5.72266 2.87109-7.05078Q2.87109-8.37891 3.35938-9.54102Q3.84766-10.7031 4.72168-11.582Q5.5957-12.4609 6.75293-12.9541Q7.91016-13.4473 9.23828-13.4473Q10.5762-13.4473 11.7334-12.9541Q12.8906-12.4609 13.7695-11.582Q14.6484-10.7031 15.1465-9.54102Q15.6445-8.37891 15.6445-7.05078Q15.6445-5.72266 15.1514-4.56055Q14.6582-3.39844 13.7842-2.51953Q12.9102-1.64062 11.748-1.14746Q10.5859-0.654297 9.24805-0.654297ZM5.6543-7.05078Q5.6543-6.72852 5.85938-6.52832Q6.06445-6.32812 6.40625-6.32812L8.51562-6.32812L8.51562-4.20898Q8.51562-3.88672 8.71094-3.67676Q8.90625-3.4668 9.23828-3.4668Q9.56055-3.4668 9.77051-3.67676Q9.98047-3.88672 9.98047-4.20898L9.98047-6.32812L12.0898-6.32812Q12.4219-6.32812 12.627-6.52832Q12.832-6.72852 12.832-7.05078Q12.832-7.38281 12.627-7.58789Q12.4219-7.79297 12.0898-7.79297L9.98047-7.79297L9.98047-9.90234Q9.98047-10.2344 9.77051-10.4443Q9.56055-10.6543 9.23828-10.6543Q8.90625-10.6543 8.71094-10.4443Q8.51562-10.2344 8.51562-9.90234L8.51562-7.79297L6.40625-7.79297Q6.06445-7.79297 5.85938-7.58789Q5.6543-7.38281 5.6543-7.05078Z"/>
  </g>
  <g transform="matrix(1 0 0 1 281.867 1933)">
   <path d="M11.709 2.91016Q13.75 2.91016 15.5518 2.12891Q17.3535 1.34766 18.7305-0.0292969Q20.1074-1.40625 20.8887-3.20801Q21.6699-5.00977 21.6699-7.05078Q21.6699-9.0918 20.8887-10.8936Q20.1074-12.6953 18.7305-14.0723Q17.3535-15.4492 15.5469-16.2305Q13.7402-17.0117 11.6992-17.0117Q9.6582-17.0117 7.85645-16.2305Q6.05469-15.4492 4.68262-14.0723Q3.31055-12.6953 2.5293-10.8936Q1.74805-9.0918 1.74805-7.05078Q1.74805-5.00977 2.5293-3.20801Q3.31055-1.40625 4.6875-0.0292969Q6.06445 1.34766 7.86621 2.12891Q9.66797 2.91016 11.709 2.91016ZM11.709 1.25Q9.98047 1.25 8.47656 0.605469Q6.97266-0.0390625 5.83496-1.17676Q4.69727-2.31445 4.05762-3.81836Q3.41797-5.32227 3.41797-7.05078Q3.41797-8.7793 4.05762-10.2832Q4.69727-11.7871 5.83008-12.9297Q6.96289-14.0723 8.4668-14.7119Q9.9707-15.3516 11.6992-15.3516Q13.4277-15.3516 14.9316-14.7119Q16.4355-14.0723 17.5781-12.9297Q18.7207-11.7871 19.3652-10.2832Q20.0098-8.7793 20.0098-7.05078Q20.0098-5.32227 19.3701-3.81836Q18.7305-2.31445 17.5928-1.17676Q16.4551-0.0390625 14.9463 0.605469Q13.4375 1.25 11.709 1.25ZM7.17773-7.05078Q7.17773-6.69922 7.41211-6.47461Q7.64648-6.25 8.01758-6.25L10.8887-6.25L10.8887-3.36914Q10.8887-2.99805 11.1133-2.76855Q11.3379-2.53906 11.6895-2.53906Q12.0605-2.53906 12.29-2.76855Q12.5195-2.99805 12.5195-3.36914L12.5195-6.25L15.4004-6.25Q15.7715-6.25 16.001-6.47461Q16.2305-6.69922 16.2305-7.05078Q16.2305-7.42188 16.001-7.65137Q15.7715-7.88086 15.4004-7.88086L12.5195-7.88086L12.5195-10.752Q12.5195-11.1328 12.29-11.3623Q12.0605-11.5918 11.6895-11.5918Q11.3379-11.5918 11.1133-11.3574Q10.8887-11.123 10.8887-10.752L10.8887-7.88086L8.01758-7.88086Q7.63672-7.88086 7.40723-7.65137Q7.17773-7.42188 7.17773-7.05078Z"/>
  </g>
  <g transform="matrix(1 0 0 1 305.646 1933)">
   <path d="M14.9707 5.66406Q17.0605 5.66406 18.96 5.01465Q20.8594 4.36523 22.4512 3.19336Q24.043 2.02148 25.2197 0.429688Q26.3965-1.16211 27.0459-3.06641Q27.6953-4.9707 27.6953-7.05078Q27.6953-9.14062 27.0459-11.04Q26.3965-12.9395 25.2197-14.5312Q24.043-16.123 22.4512-17.2998Q20.8594-18.4766 18.9551-19.126Q17.0508-19.7754 14.9609-19.7754Q12.8711-19.7754 10.9717-19.126Q9.07227-18.4766 7.48535-17.2998Q5.89844-16.123 4.72168-14.5312Q3.54492-12.9395 2.90039-11.04Q2.25586-9.14062 2.25586-7.05078Q2.25586-4.9707 2.90527-3.06641Q3.55469-1.16211 4.72656 0.429688Q5.89844 2.02148 7.49023 3.19336Q9.08203 4.36523 10.9814 5.01465Q12.8809 5.66406 14.9707 5.66406ZM14.9707 3.84766Q13.1641 3.84766 11.5283 3.2959Q9.89258 2.74414 8.53516 1.74805Q7.17773 0.751953 6.17676-0.610352Q5.17578-1.97266 4.62891-3.6084Q4.08203-5.24414 4.08203-7.05078Q4.08203-8.86719 4.62891-10.5029Q5.17578-12.1387 6.17188-13.501Q7.16797-14.8633 8.52539-15.8594Q9.88281-16.8555 11.5186-17.4023Q13.1543-17.9492 14.9609-17.9492Q16.7773-17.9492 18.4131-17.4023Q20.0488-16.8555 21.4111-15.8594Q22.7734-14.8633 23.7695-13.501Q24.7656-12.1387 25.3174-10.5029Q25.8691-8.86719 25.8691-7.05078Q25.8789-5.24414 25.332-3.6084Q24.7852-1.97266 23.7842-0.610352Q22.7832 0.751953 21.4209 1.74805Q20.0586 2.74414 18.4229 3.2959Q16.7871 3.84766 14.9707 3.84766ZM9.19922-7.05078Q9.19922-6.66992 9.45801-6.4209Q9.7168-6.17188 10.1172-6.17188L14.0625-6.17188L14.0625-2.2168Q14.0625-1.81641 14.3115-1.55762Q14.5605-1.29883 14.9512-1.29883Q15.3516-1.29883 15.6104-1.55273Q15.8691-1.80664 15.8691-2.2168L15.8691-6.17188L19.8242-6.17188Q20.2246-6.17188 20.4785-6.4209Q20.7324-6.66992 20.7324-7.05078Q20.7324-7.46094 20.4785-7.71484Q20.2246-7.96875 19.8242-7.96875L15.8691-7.96875L15.8691-11.9141Q15.8691-12.3242 15.6104-12.583Q15.3516-12.8418 14.9512-12.8418Q14.5605-12.8418 14.3115-12.583Q14.0625-12.3242 14.0625-11.9141L14.0625-7.96875L10.1172-7.96875Q9.70703-7.96875 9.45312-7.71484Q9.19922-7.46094 9.19922-7.05078Z"/>
  </g>
  <text style="stroke:none;fill:black;font-family:sans-serif;font-size:13;font-weight:bold;" transform="matrix(1 0 0 1 263 1953)">Design Variations</text>
  <text style="stroke:none;fill:black;font-family:sans-serif;font-size:13;" transform="matrix(1 0 0 1 263 1971)">Symbols are supported in up to nine weights and three scales.</text>
  <text style="stroke:none;fill:black;font-family:sans-serif;font-size:13;" transform="matrix(1 0 0 1 263 1989)">For optimal layout with text and other symbols, vertically align</text>
  <text style="stroke:none;fill:black;font-family:sans-serif;font-size:13;" transform="matrix(1 0 0 1 263 2007)">symbols with the adjacent text.</text>
  <line style="fill:none;stroke:#00AEEF;stroke-width:0.5;opacity:1.0;" x1="776" x2="776" y1="1919" y2="1933"/>
  <g transform="matrix(1 0 0 1 776 1933)">
   <path d="M3.31055 0.15625Q3.70117 0.15625 3.91602-0.00976562Q4.13086-0.175781 4.26758-0.585938L5.52734-4.0332L11.2891-4.0332L12.5488-0.585938Q12.6855-0.175781 12.9004-0.00976562Q13.1152 0.15625 13.4961 0.15625Q13.8867 0.15625 14.1162-0.0585938Q14.3457-0.273438 14.3457-0.644531Q14.3457-0.869141 14.2383-1.17188L9.6582-13.3691Q9.48242-13.8184 9.17969-14.043Q8.87695-14.2676 8.4082-14.2676Q7.5-14.2676 7.17773-13.3789L2.59766-1.16211Q2.49023-0.859375 2.49023-0.634766Q2.49023-0.263672 2.70996-0.0537109Q2.92969 0.15625 3.31055 0.15625ZM6.00586-5.51758L8.37891-12.0898L8.42773-12.0898L10.8008-5.51758Z"/>
  </g>
  <line style="fill:none;stroke:#00AEEF;stroke-width:0.5;opacity:1.0;" x1="793.197" x2="793.197" y1="1919" y2="1933"/>
  <text style="stroke:none;fill:black;font-family:sans-serif;font-size:13;font-weight:bold;" transform="matrix(1 0 0 1 776 1953)">Margins</text>
  <text style="stroke:none;fill:black;font-family:sans-serif;font-size:13;" transform="matrix(1 0 0 1 776 1971)">Leading and trailing margins on the left and right side of each symbol</text>
  <text style="stroke:none;fill:black;font-family:sans-serif;font-size:13;" transform="matrix(1 0 0 1 776 1989)">can be adjusted by modifying the x-location of the margin guidelines.</text>
  <text style="stroke:none;fill:black;font-family:sans-serif;font-size:13;" transform="matrix(1 0 0 1 776 2007)">Modifications are automatically applied proportionally to all</text>
  <text style="stroke:none;fill:black;font-family:sans-serif;font-size:13;" transform="matrix(1 0 0 1 776 2025)">scales and weights.</text>
  <g transform="matrix(1 0 0 1 1289 1933)">
   <path d="M2.8418 1.86523L4.54102 3.57422Q5.18555 4.22852 5.90332 4.17969Q6.62109 4.13086 7.31445 3.35938L18.0078-8.42773L17.041-9.4043L6.42578 2.27539Q6.16211 2.57812 5.89355 2.61719Q5.625 2.65625 5.27344 2.30469L4.10156 1.14258Q3.75 0.791016 3.79395 0.522461Q3.83789 0.253906 4.14062-0.0195312L15.6152-10.8203L14.6387-11.7871L3.04688-0.898438Q2.30469-0.214844 2.25098 0.498047Q2.19727 1.21094 2.8418 1.86523ZM9.25781-16.3281Q8.94531-16.0254 8.90625-15.6348Q8.86719-15.2441 9.04297-14.9512Q9.21875-14.6777 9.55566-14.541Q9.89258-14.4043 10.3809-14.5215Q11.4746-14.7754 12.5977-14.7314Q13.7207-14.6875 14.7949-13.9844L14.209-12.5293Q13.9551-11.9043 14.0674-11.4404Q14.1797-10.9766 14.5801-10.5664L16.875-8.25195Q17.2363-7.88086 17.5781-7.82227Q17.9199-7.76367 18.3398-7.8418L19.4043-8.03711L20.0684-7.36328L20.0293-6.80664Q20-6.43555 20.1221-6.12305Q20.2441-5.81055 20.6055-5.44922L21.3672-4.70703Q21.7285-4.3457 22.1533-4.33105Q22.5781-4.31641 22.9297-4.66797L25.8398-7.58789Q26.1914-7.93945 26.1816-8.35449Q26.1719-8.76953 25.8105-9.13086L25.0391-9.89258Q24.6875-10.2539 24.3799-10.3857Q24.0723-10.5176 23.7109-10.4883L23.1348-10.4395L22.4902-11.0742L22.7344-12.1973Q22.832-12.6172 22.6953-12.9834Q22.5586-13.3496 22.1191-13.7891L19.9219-15.9766Q18.6719-17.2168 17.2607-17.8369Q15.8496-18.457 14.4189-18.4814Q12.9883-18.5059 11.665-17.959Q10.3418-17.4121 9.25781-16.3281ZM10.752-15.957Q11.6602-16.6211 12.7002-16.9043Q13.7402-17.1875 14.8047-17.085Q15.8691-16.9824 16.8701-16.5137Q17.8711-16.0449 18.7012-15.2051L21.1328-12.793Q21.3086-12.6172 21.3525-12.4512Q21.3965-12.2852 21.3379-12.0312L21.0156-10.5469L22.5195-9.0625L23.5059-9.12109Q23.6914-9.13086 23.7891-9.09668Q23.8867-9.0625 24.0332-8.91602L24.6094-8.33984L22.168-5.89844L21.5918-6.47461Q21.4453-6.62109 21.4062-6.71875Q21.3672-6.81641 21.377-7.01172L21.4453-7.98828L19.9512-9.47266L18.4277-9.21875Q18.1836-9.16992 18.042-9.2041Q17.9004-9.23828 17.7148-9.41406L15.7129-11.416Q15.5176-11.5918 15.4932-11.7529Q15.4688-11.9141 15.5859-12.1875L16.4648-14.2773Q15.293-15.3711 13.8281-15.791Q12.3633-16.2109 10.8398-15.7617Q10.7227-15.7324 10.6885-15.8057Q10.6543-15.8789 10.752-15.957Z"/>
  </g>
  <text style="stroke:none;fill:black;font-family:sans-serif;font-size:13;font-weight:bold;" transform="matrix(1 0 0 1 1289 1953)">Exporting</text>
  <text style="stroke:none;fill:black;font-family:sans-serif;font-size:13;" transform="matrix(1 0 0 1 1289 1971)">Symbols should be outlined when exporting to ensure the</text>
  <text style="stroke:none;fill:black;font-family:sans-serif;font-size:13;" transform="matrix(1 0 0 1 1289 1989)">design is preserved when submitting to Xcode.</text>
  <text id="template-version" style="stroke:none;fill:black;font-family:sans-serif;font-size:13;text-anchor:end;" transform="matrix(1 0 0 1 3036 1933)">Template v.3.0</text>
  <text style="stroke:none;fill:black;font-family:sans-serif;font-size:13;text-anchor:end;" transform="matrix(1 0 0 1 3036 1951)">Requires Xcode 13 or greater</text>
  <text id="descriptive-name" style="stroke:none;fill:black;font-family:sans-serif;font-size:13;text-anchor:end;" transform="matrix(1 0 0 1 3036 1969)">Generated from bolt.square.fill</text>
  <text style="stroke:none;fill:black;font-family:sans-serif;font-size:13;text-anchor:end;" transform="matrix(1 0 0 1 3036 1987)">Typeset at 100 points</text>
  <text style="stroke:none;fill:black;font-family:sans-serif;font-size:13;" transform="matrix(1 0 0 1 263 726)">Small</text>
  <text style="stroke:none;fill:black;font-family:sans-serif;font-size:13;" transform="matrix(1 0 0 1 263 1156)">Medium</text>
  <text style="stroke:none;fill:black;font-family:sans-serif;font-size:13;" transform="matrix(1 0 0 1 263 1586)">Large</text>
 </g>
 <g id="Guides">
  <g id="H-reference" style="fill:#27AAE1;stroke:none;" transform="matrix(1 0 0 1 339 696)">
   <path d="M0.976562 0L3.66211 0L29.3457-67.1387L30.0293-67.1387L30.0293-70.459L28.125-70.459ZM11.6699-24.4629L46.9727-24.4629L46.2402-26.709L12.4512-26.709ZM55.127 0L57.7637 0L30.6152-70.459L29.4434-70.459L29.4434-67.1387Z"/>
  </g>
  <line id="Baseline-S" style="fill:none;stroke:#27AAE1;opacity:1;stroke-width:0.5;" x1="263" x2="3036" y1="696" y2="696"/>
  <line id="Capline-S" style="fill:none;stroke:#27AAE1;opacity:1;stroke-width:0.5;" x1="263" x2="3036" y1="625.541" y2="625.541"/>
  <g id="H-reference" style="fill:#27AAE1;stroke:none;" transform="matrix(1 0 0 1 339 1126)">
   <path d="M0.976562 0L3.66211 0L29.3457-67.1387L30.0293-67.1387L30.0293-70.459L28.125-70.459ZM11.6699-24.4629L46.9727-24.4629L46.2402-26.709L12.4512-26.709ZM55.127 0L57.7637 0L30.6152-70.459L29.4434-70.459L29.4434-67.1387Z"/>
  </g>
  <line id="Baseline-M" style="fill:none;stroke:#27AAE1;opacity:1;stroke-width:0.5;" x1="263" x2="3036" y1="1126" y2="1126"/>
  <line id="Capline-M" style="fill:none;stroke:#27AAE1;opacity:1;stroke-width:0.5;" x1="263" x2="3036" y1="1055.54" y2="1055.54"/>
  <g id="H-reference" style="fill:#27AAE1;stroke:none;" transform="matrix(1 0 0 1 339 1556)">
   <path d="M0.976562 0L3.66211 0L29.3457-67.1387L30.0293-67.1387L30.0293-70.459L28.125-70.459ZM11.6699-24.4629L46.9727-24.4629L46.2402-26.709L12.4512-26.709ZM55.127 0L57.7637 0L30.6152-70.459L29.4434-70.459L29.4434-67.1387Z"/>
  </g>
  <line id="Baseline-L" style="fill:none;stroke:#27AAE1;opacity:1;stroke-width:0.5;" x1="263" x2="3036" y1="1556" y2="1556"/>
  <line id="Capline-L" style="fill:none;stroke:#27AAE1;opacity:1;stroke-width:0.5;" x1="263" x2="3036" y1="1485.54" y2="1485.54"/>
  <line id="left-margin-Ultralight-S" style="fill:none;stroke:#00AEEF;stroke-width:0.5;opacity:1.0;" x1="516.352" x2="516.352" y1="600.785" y2="720.121"/>
  <line id="right-margin-Ultralight-S" style="fill:none;stroke:#00AEEF;stroke-width:0.5;opacity:1.0;" x1="603.07" x2="603.07" y1="600.785" y2="720.121"/>
  <line id="left-margin-Thin-S" style="fill:none;stroke:#00AEEF;stroke-width:0.5;opacity:1.0;" x1="812.623" x2="812.623" y1="600.785" y2="720.121"/>
  <line id="right-margin-Thin-S" style="fill:none;stroke:#00AEEF;stroke-width:0.5;opacity:1.0;" x1="900.221" x2="900.221" y1="600.785" y2="720.121"/>
  <line id="left-margin-Light-S" style="fill:none;stroke:#00AEEF;stroke-width:0.5;opacity:1.0;" x1="1108.46" x2="1108.46" y1="600.785" y2="720.121"/>
  <line id="right-margin-Light-S" style="fill:none;stroke:#00AEEF;stroke-width:0.5;opacity:1.0;" x1="1197.81" x2="1197.81" y1="600.785" y2="720.121"/>
  <line id="left-margin-Regular-S" style="fill:none;stroke:#00AEEF;stroke-width:0.5;opacity:1.0;" x1="1404.51" x2="1404.51" y1="600.785" y2="720.121"/>
  <line id="right-margin-Regular-S" style="fill:none;stroke:#00AEEF;stroke-width:0.5;opacity:1.0;" x1="1495.18" x2="1495.18" y1="600.785" y2="720.121"/>
  <line id="left-margin-Medium-S" style="fill:none;stroke:#00AEEF;stroke-width:0.5;opacity:1.0;" x1="1700.75" x2="1700.75" y1="600.785" y2="720.121"/>
  <line id="right-margin-Medium-S" style="fill:none;stroke:#00AEEF;stroke-width:0.5;opacity:1.0;" x1="1792.36" x2="1792.36" y1="600.785" y2="720.121"/>
  <line id="left-margin-Semibold-S" style="fill:none;stroke:#00AEEF;stroke-width:0.5;opacity:1.0;" x1="1997.12" x2="1997.12" y1="600.785" y2="720.121"/>
  <line id="right-margin-Semibold-S" style="fill:none;stroke:#00AEEF;stroke-width:0.5;opacity:1.0;" x1="2089.41" x2="2089.41" y1="600.785" y2="720.121"/>
  <line id="left-margin-Bold-S" style="fill:none;stroke:#00AEEF;stroke-width:0.5;opacity:1.0;" x1="2293.35" x2="2293.35" y1="600.785" y2="720.121"/>
  <line id="right-margin-Bold-S" style="fill:none;stroke:#00AEEF;stroke-width:0.5;opacity:1.0;" x1="2386.61" x2="2386.61" y1="600.785" y2="720.121"/>
  <line id="left-margin-Heavy-S" style="fill:none;stroke:#00AEEF;stroke-width:0.5;opacity:1.0;" x1="2589.4" x2="2589.4" y1="600.785" y2="720.121"/>
  <line id="right-margin-Heavy-S" style="fill:none;stroke:#00AEEF;stroke-width:0.5;opacity:1.0;" x1="2683.98" x2="2683.98" y1="600.785" y2="720.121"/>
  <line id="left-margin-Black-S" style="fill:none;stroke:#00AEEF;stroke-width:0.5;opacity:1.0;" x1="2885.5" x2="2885.5" y1="600.785" y2="720.121"/>
  <line id="right-margin-Black-S" style="fill:none;stroke:#00AEEF;stroke-width:0.5;opacity:1.0;" x1="2981.3" x2="2981.3" y1="600.785" y2="720.121"/>
  <line id="left-margin-Ultralight-M" style="fill:none;stroke:#00AEEF;stroke-width:0.5;opacity:1.0;" x1="504.535" x2="504.535" y1="1030.79" y2="1150.12"/>
  <line id="right-margin-Ultralight-M" style="fill:none;stroke:#00AEEF;stroke-width:0.5;opacity:1.0;" x1="614.887" x2="614.887" y1="1030.79" y2="1150.12"/>
  <line id="left-margin-Thin-M" style="fill:none;stroke:#00AEEF;stroke-width:0.5;opacity:1.0;" x1="800.758" x2="800.758" y1="1030.79" y2="1150.12"/>
  <line id="right-margin-Thin-M" style="fill:none;stroke:#00AEEF;stroke-width:0.5;opacity:1.0;" x1="912.086" x2="912.086" y1="1030.79" y2="1150.12"/>
  <line id="left-margin-Light-M" style="fill:none;stroke:#00AEEF;stroke-width:0.5;opacity:1.0;" x1="1096.47" x2="1096.47" y1="1030.79" y2="1150.12"/>
  <line id="right-margin-Light-M" style="fill:none;stroke:#00AEEF;stroke-width:0.5;opacity:1.0;" x1="1209.8" x2="1209.8" y1="1030.79" y2="1150.12"/>
  <line id="left-margin-Regular-M" style="fill:none;stroke:#00AEEF;stroke-width:0.5;opacity:1.0;" x1="1392.45" x2="1392.45" y1="1030.79" y2="1150.12"/>
  <line id="right-margin-Regular-M" style="fill:none;stroke:#00AEEF;stroke-width:0.5;opacity:1.0;" x1="1507.24" x2="1507.24" y1="1030.79" y2="1150.12"/>
  <line id="left-margin-Medium-M" style="fill:none;stroke:#00AEEF;stroke-width:0.5;opacity:1.0;" x1="1688.52" x2="1688.52" y1="1030.79" y2="1150.12"/>
  <line id="right-margin-Medium-M" style="fill:none;stroke:#00AEEF;stroke-width:0.5;opacity:1.0;" x1="1804.59" x2="1804.59" y1="1030.79" y2="1150.12"/>
  <line id="left-margin-Semibold-M" style="fill:none;stroke:#00AEEF;stroke-width:0.5;opacity:1.0;" x1="1984.77" x2="1984.77" y1="1030.79" y2="1150.12"/>
  <line id="right-margin-Semibold-M" style="fill:none;stroke:#00AEEF;stroke-width:0.5;opacity:1.0;" x1="2101.76" x2="2101.76" y1="1030.79" y2="1150.12"/>
  <line id="left-margin-Bold-M" style="fill:none;stroke:#00AEEF;stroke-width:0.5;opacity:1.0;" x1="2280.85" x2="2280.85" y1="1030.79" y2="1150.12"/>
  <line id="right-margin-Bold-M" style="fill:none;stroke:#00AEEF;stroke-width:0.5;opacity:1.0;" x1="2399.11" x2="2399.11" y1="1030.79" y2="1150.12"/>
  <line id="left-margin-Heavy-M" style="fill:none;stroke:#00AEEF;stroke-width:0.5;opacity:1.0;" x1="2576.65" x2="2576.65" y1="1030.79" y2="1150.12"/>
  <line id="right-margin-Heavy-M" style="fill:none;stroke:#00AEEF;stroke-width:0.5;opacity:1.0;" x1="2696.72" x2="2696.72" y1="1030.79" y2="1150.12"/>
  <line id="left-margin-Black-M" style="fill:none;stroke:#00AEEF;stroke-width:0.5;opacity:1.0;" x1="2872.54" x2="2872.54" y1="1030.79" y2="1150.12"/>
  <line id="right-margin-Black-M" style="fill:none;stroke:#00AEEF;stroke-width:0.5;opacity:1.0;" x1="2994.26" x2="2994.26" y1="1030.79" y2="1150.12"/>
  <line id="left-margin-Ultralight-L" style="fill:none;stroke:#00AEEF;stroke-width:0.5;opacity:1.0;" x1="488.739" x2="488.739" y1="1460.79" y2="1580.12"/>
  <line id="right-margin-Ultralight-L" style="fill:none;stroke:#00AEEF;stroke-width:0.5;opacity:1.0;" x1="630.683" x2="630.683" y1="1460.79" y2="1580.12"/>
  <line id="left-margin-Thin-L" style="fill:none;stroke:#00AEEF;stroke-width:0.5;opacity:1.0;" x1="784.889" x2="784.889" y1="1460.79" y2="1580.12"/>
  <line id="right-margin-Thin-L" style="fill:none;stroke:#00AEEF;stroke-width:0.5;opacity:1.0;" x1="927.955" x2="927.955" y1="1460.79" y2="1580.12"/>
  <line id="left-margin-Light-L" style="fill:none;stroke:#00AEEF;stroke-width:0.5;opacity:1.0;" x1="1080.5" x2="1080.5" y1="1460.79" y2="1580.12"/>
  <line id="right-margin-Light-L" style="fill:none;stroke:#00AEEF;stroke-width:0.5;opacity:1.0;" x1="1225.77" x2="1225.77" y1="1460.79" y2="1580.12"/>
  <line id="left-margin-Regular-L" style="fill:none;stroke:#00AEEF;stroke-width:0.5;opacity:1.0;" x1="1376.38" x2="1376.38" y1="1460.79" y2="1580.12"/>
  <line id="right-margin-Regular-L" style="fill:none;stroke:#00AEEF;stroke-width:0.5;opacity:1.0;" x1="1523.31" x2="1523.31" y1="1460.79" y2="1580.12"/>
  <line id="left-margin-Medium-L" style="fill:none;stroke:#00AEEF;stroke-width:0.5;opacity:1.0;" x1="1672.31" x2="1672.31" y1="1460.79" y2="1580.12"/>
  <line id="right-margin-Medium-L" style="fill:none;stroke:#00AEEF;stroke-width:0.5;opacity:1.0;" x1="1820.8" x2="1820.8" y1="1460.79" y2="1580.12"/>
  <line id="left-margin-Semibold-L" style="fill:none;stroke:#00AEEF;stroke-width:0.5;opacity:1.0;" x1="1968.44" x2="1968.44" y1="1460.79" y2="1580.12"/>
  <line id="right-margin-Semibold-L" style="fill:none;stroke:#00AEEF;stroke-width:0.5;opacity:1.0;" x1="2118.1" x2="2118.1" y1="1460.79" y2="1580.12"/>
  <line id="left-margin-Bold-L" style="fill:none;stroke:#00AEEF;stroke-width:0.5;opacity:1.0;" x1="2264.34" x2="2264.34" y1="1460.79" y2="1580.12"/>
  <line id="right-margin-Bold-L" style="fill:none;stroke:#00AEEF;stroke-width:0.5;opacity:1.0;" x1="2415.61" x2="2415.61" y1="1460.79" y2="1580.12"/>
  <line id="left-margin-Heavy-L" style="fill:none;stroke:#00AEEF;stroke-width:0.5;opacity:1.0;" x1="2559.93" x2="2559.93" y1="1460.79" y2="1580.12"/>
  <line id="right-margin-Heavy-L" style="fill:none;stroke:#00AEEF;stroke-width:0.5;opacity:1.0;" x1="2713.45" x2="2713.45" y1="1460.79" y2="1580.12"/>
  <line id="left-margin-Black-L" style="fill:none;stroke:#00AEEF;stroke-width:0.5;opacity:1.0;" x1="2855.62" x2="2855.62" y1="1460.79" y2="1580.12"/>
  <line id="right-margin-Black-L" style="fill:none;stroke:#00AEEF;stroke-width:0.5;opacity:1.0;" x1="3011.18" x2="3011.18" y1="1460.79" y2="1580.12"/>
 </g>
 <g id="Symbols">
  <g id="Black-L" transform="matrix(1 0 0 1 2855.62 1556)">
   <path class="multicolor-0:systemYellowColor hierarchical-0:tertiary SFSymbolsPreviewFFCC00" d="M39.9902 26.5137L115.576 26.5137Q127.002 26.5137 133.252 20.3125Q139.502 14.1113 139.502 2.68555L139.502-73.0957Q139.502-84.4727 133.252-90.6738Q127.002-96.875 115.576-96.875L39.9902-96.875Q28.5645-96.875 22.3145-90.6738Q16.0645-84.4727 16.0645-73.0957L16.0645 2.68555Q16.0645 14.1113 22.3145 20.3125Q28.5645 26.5137 39.9902 26.5137Z"/>
   <path class="multicolor-1:white hierarchical-1:primary SFSymbolsPreviewFFFFFF" d="M50.5371-31.25Q50.5371-33.0078 51.7578-34.4727L85.8887-75.5371Q87.6953-77.6855 89.8438-77.5879Q91.9922-77.4902 93.1641-75.7812Q94.3359-74.0723 93.3594-71.4355L82.8613-44.1406L102.588-44.1406Q104.248-44.1406 105.444-43.0176Q106.641-41.8945 106.641-40.2344Q106.641-38.5254 105.371-37.0605L71.2891 4.05273Q69.4336 6.20117 67.3096 6.0791Q65.1855 5.95703 63.9893 4.24805Q62.793 2.53906 63.8184-0.0976562L74.3164-27.3438L54.5898-27.3438Q52.8809-27.3438 51.709-28.4668Q50.5371-29.5898 50.5371-31.25Z"/>
  </g>
  <g id="Heavy-L" transform="matrix(1 0 0 1 2559.93 1556)">
   <path class="multicolor-0:systemYellowColor hierarchical-0:tertiary SFSymbolsPreviewFFCC00" d="M38.8184 25.4883L114.697 25.4883Q125.684 25.4883 131.567 19.6289Q137.451 13.7695 137.451 2.88086L137.451-73.2422Q137.451-84.1309 131.567-89.9902Q125.684-95.8496 114.697-95.8496L38.8184-95.8496Q27.8809-95.8496 21.9727-89.9902Q16.0645-84.1309 16.0645-73.2422L16.0645 2.88086Q16.0645 13.8184 21.9727 19.6533Q27.8809 25.4883 38.8184 25.4883Z"/>
   <path class="multicolor-1:white hierarchical-1:primary SFSymbolsPreviewFFFFFF" d="M49.2188-31.0547Q49.2188-32.7148 50.3906-34.082L84.9609-76.123Q86.6211-78.125 88.623-78.0518Q90.625-77.9785 91.7236-76.3916Q92.8223-74.8047 91.8945-72.3145L81.0547-43.8965L101.367-43.8965Q102.93-43.8965 104.028-42.8711Q105.127-41.8457 105.127-40.332Q105.127-38.7207 103.906-37.3535L69.3359 4.73633Q67.6758 6.73828 65.6982 6.64062Q63.7207 6.54297 62.5977 4.95605Q61.4746 3.36914 62.4512 0.927734L73.291-27.4902L52.9297-27.4902Q51.3672-27.4902 50.293-28.5156Q49.2188-29.541 49.2188-31.0547Z"/>
  </g>
  <g id="Bold-L" transform="matrix(1 0 0 1 2264.34 1556)">
   <path class="multicolor-0:systemYellowColor hierarchical-0:tertiary SFSymbolsPreviewFFCC00" d="M37.5488 24.3652L113.721 24.3652Q124.17 24.3652 129.688 18.8965Q135.205 13.4277 135.205 3.07617L135.205-73.4375Q135.205-83.7891 129.688-89.2578Q124.17-94.7266 113.721-94.7266L37.5488-94.7266Q27.0996-94.7266 21.582-89.2578Q16.0645-83.7891 16.0645-73.4375L16.0645 3.07617Q16.0645 13.4766 21.582 18.9209Q27.0996 24.3652 37.5488 24.3652Z"/>
   <path class="multicolor-1:white hierarchical-1:primary SFSymbolsPreviewFFFFFF" d="M47.8027-30.9082Q47.8027-32.373 48.9258-33.6914L83.9844-76.8066Q85.498-78.6621 87.3291-78.5889Q89.1602-78.5156 90.1611-77.0752Q91.1621-75.6348 90.2832-73.3398L79.0527-43.6523L100.049-43.6523Q101.465-43.6523 102.466-42.749Q103.467-41.8457 103.467-40.4297Q103.467-38.9648 102.295-37.6465L67.2852 5.51758Q65.7227 7.37305 63.916 7.2998Q62.1094 7.22656 61.1084 5.76172Q60.1074 4.29688 60.9863 2.05078L72.2168-27.6855L51.1719-27.6855Q49.7559-27.6855 48.7793-28.5889Q47.8027-29.4922 47.8027-30.9082Z"/>
  </g>
  <g id="Semibold-L" transform="matrix(1 0 0 1 1968.44 1556)">
   <path class="multicolor-0:systemYellowColor hierarchical-0:tertiary SFSymbolsPreviewFFCC00" d="M36.6211 23.584L112.988 23.584Q123.145 23.584 128.369 18.3838Q133.594 13.1836 133.594 3.17383L133.594-73.5352Q133.594-83.4961 128.369-88.6963Q123.145-93.8965 112.988-93.8965L36.6211-93.8965Q26.5625-93.8965 21.3135-88.7207Q16.0645-83.5449 16.0645-73.5352L16.0645 3.17383Q16.0645 13.2324 21.3135 18.4082Q26.5625 23.584 36.6211 23.584Z"/>
   <path class="multicolor-1:white hierarchical-1:primary SFSymbolsPreviewFFFFFF" d="M46.7773-30.8105Q46.7773-32.1777 47.8516-33.4473L83.252-77.2949Q84.668-79.0527 86.377-79.0039Q88.0859-78.9551 89.0137-77.6123Q89.9414-76.2695 89.1113-74.0723L77.6367-43.5059L99.0723-43.5059Q100.439-43.5059 101.343-42.6758Q102.246-41.8457 102.246-40.5273Q102.246-39.1602 101.123-37.8906L65.7715 5.95703Q64.3555 7.71484 62.6465 7.66602Q60.9375 7.61719 60.0098 6.25Q59.082 4.88281 59.9121 2.73438L71.3867-27.832L49.9023-27.832Q48.584-27.832 47.6807-28.6621Q46.7773-29.4922 46.7773-30.8105Z"/>
  </g>
  <g id="Medium-L" transform="matrix(1 0 0 1 1672.31 1556)">
   <path class="multicolor-0:systemYellowColor hierarchical-0:tertiary SFSymbolsPreviewFFCC00" d="M35.9375 22.998L112.5 22.998Q122.363 22.998 127.393 17.9932Q132.422 12.9883 132.422 3.27148L132.422-73.6328Q132.422-83.3008 127.393-88.3057Q122.363-93.3105 112.5-93.3105L35.9375-93.3105Q26.1719-93.3105 21.1182-88.3301Q16.0645-83.3496 16.0645-73.6328L16.0645 3.27148Q16.0645 13.0371 21.1182 18.0176Q26.1719 22.998 35.9375 22.998Z"/>
   <path class="multicolor-1:white hierarchical-1:primary SFSymbolsPreviewFFFFFF" d="M45.9961-30.7129Q45.9961-31.9824 47.0703-33.252L82.666-77.6855Q84.0332-79.3457 85.6445-79.2725Q87.2559-79.1992 88.1348-77.9297Q89.0137-76.6602 88.2812-74.6094L76.5625-43.4082L98.3887-43.4082Q99.6094-43.4082 100.464-42.627Q101.318-41.8457 101.318-40.625Q101.318-39.3066 100.293-38.0859L64.6484 6.34766Q63.2812 8.05664 61.6943 8.00781Q60.1074 7.95898 59.2041 6.66504Q58.3008 5.37109 59.082 3.32031L70.8008-27.9297L48.9258-27.9297Q47.7051-27.9297 46.8506-28.7109Q45.9961-29.4922 45.9961-30.7129Z"/>
  </g>
  <g id="Regular-L" transform="matrix(1 0 0 1 1376.38 1556)">
   <path class="multicolor-0:systemYellowColor hierarchical-0:tertiary SFSymbolsPreviewFFCC00" d="M35.0586 22.2168L111.816 22.2168Q121.338 22.2168 126.099 17.4805Q130.859 12.7441 130.859 3.41797L130.859-73.7305Q130.859-83.0566 126.099-87.793Q121.338-92.5293 111.816-92.5293L35.0586-92.5293Q25.6348-92.5293 20.8496-87.8174Q16.0645-83.1055 16.0645-73.7305L16.0645 3.41797Q16.0645 12.793 20.8496 17.5049Q25.6348 22.2168 35.0586 22.2168Z"/>
   <path class="multicolor-1:white hierarchical-1:primary SFSymbolsPreviewFFFFFF" d="M45.0195-30.5664Q45.0195-31.7383 46.0449-32.959L81.9824-78.125Q83.252-79.6875 84.7412-79.6387Q86.2305-79.5898 87.0605-78.418Q87.8906-77.2461 87.1582-75.293L75.1953-43.2129L97.4609-43.2129Q98.6328-43.2129 99.4141-42.5049Q100.195-41.7969 100.195-40.6738Q100.195-39.4531 99.1699-38.2812L63.1836 6.88477Q61.9629 8.44727 60.4736 8.42285Q58.9844 8.39844 58.1543 7.20215Q57.3242 6.00586 58.0566 4.10156L70.0195-28.0273L47.7051-28.0273Q46.582-28.0273 45.8008-28.7354Q45.0195-29.4434 45.0195-30.5664Z"/>
  </g>
  <g id="Light-L" transform="matrix(1 0 0 1 1080.5 1556)">
   <path class="multicolor-0:systemYellowColor hierarchical-0:tertiary SFSymbolsPreviewFFCC00" d="M34.0332 21.4355L111.182 21.4355Q120.117 21.4355 124.658 16.8945Q129.199 12.3535 129.199 3.56445L129.199-73.8281Q129.199-82.6172 124.658-87.1582Q120.117-91.6992 111.182-91.6992L34.0332-91.6992Q25.1465-91.6992 20.6055-87.207Q16.0645-82.7148 16.0645-73.8281L16.0645 3.56445Q16.0645 12.4023 20.6055 16.9189Q25.1465 21.4355 34.0332 21.4355Z"/>
   <path class="multicolor-1:white hierarchical-1:primary SFSymbolsPreviewFFFFFF" d="M44.1406-30.2734Q44.1406-31.2988 45.0684-32.4707L81.543-78.2715Q82.666-79.6875 83.96-79.6387Q85.2539-79.5898 85.9863-78.54Q86.7188-77.4902 86.084-75.7812L73.877-42.9688L96.4844-42.9688Q97.4609-42.9688 98.1445-42.3828Q98.8281-41.7969 98.8281-40.8203Q98.8281-39.7949 97.9004-38.623L61.4258 7.17773Q60.3027 8.54492 59.0088 8.52051Q57.7148 8.49609 56.9824 7.44629Q56.25 6.39648 56.8848 4.6875L69.0918-28.125L46.4844-28.125Q45.5078-28.125 44.8242-28.7109Q44.1406-29.2969 44.1406-30.2734Z"/>
  </g>
  <g id="Thin-L" transform="matrix(1 0 0 1 784.889 1556)">
   <path class="multicolor-0:systemYellowColor hierarchical-0:tertiary SFSymbolsPreviewFFCC00" d="M32.666 20.3613L110.352 20.3613Q118.506 20.3613 122.754 16.0889Q127.002 11.8164 127.002 3.75977L127.002-73.9746Q127.002-82.0312 122.754-86.3037Q118.506-90.5762 110.352-90.5762L32.666-90.5762Q24.5117-90.5762 20.2881-86.377Q16.0645-82.1777 16.0645-73.9746L16.0645 3.75977Q16.0645 11.9141 20.2881 16.1377Q24.5117 20.3613 32.666 20.3613Z"/>
   <path class="multicolor-1:white hierarchical-1:primary SFSymbolsPreviewFFFFFF" d="M43.0176-29.8828Q43.0176-30.6641 43.8477-31.8359L80.957-78.4668Q81.9336-79.6387 82.9834-79.6143Q84.0332-79.5898 84.6191-78.7109Q85.2051-77.832 84.668-76.4648L72.1191-42.6758L95.166-42.6758Q95.9961-42.6758 96.5332-42.2363Q97.0703-41.7969 97.0703-41.0156Q97.0703-40.2344 96.2402-39.0625L59.1309 7.56836Q58.1543 8.69141 57.1045 8.69141Q56.0547 8.69141 55.4688 7.8125Q54.8828 6.93359 55.4199 5.51758L67.9688-28.2227L44.873-28.2227Q44.0918-28.2227 43.5547-28.6621Q43.0176-29.1016 43.0176-29.8828Z"/>
  </g>
  <g id="Ultralight-L" transform="matrix(1 0 0 1 488.739 1556)">
   <path class="multicolor-0:systemYellowColor hierarchical-0:tertiary SFSymbolsPreviewFFCC00" d="M31.9824 19.8242L109.961 19.8242Q117.725 19.8242 121.802 15.6738Q125.879 11.5234 125.879 3.85742L125.879-74.0723Q125.879-81.7383 121.802-85.8643Q117.725-89.9902 109.961-89.9902L31.9824-89.9902Q24.1699-89.9902 20.1172-85.9375Q16.0645-81.8848 16.0645-74.0723L16.0645 3.85742Q16.0645 11.6699 20.1172 15.7471Q24.1699 19.8242 31.9824 19.8242Z"/>
   <path class="multicolor-1:white hierarchical-1:primary SFSymbolsPreviewFFFFFF" d="M42.4316-29.7363Q42.4316-30.3711 43.2129-31.4941L80.6641-78.6133Q81.543-79.6387 82.4707-79.6143Q83.3984-79.5898 83.9111-78.8086Q84.4238-78.0273 83.9355-76.8066L71.2402-42.5293L94.5312-42.5293Q95.2148-42.5293 95.6787-42.1631Q96.1426-41.7969 96.1426-41.1621Q96.1426-40.4785 95.3613-39.3555L57.9102 7.71484Q57.0801 8.74023 56.1279 8.74023Q55.1758 8.74023 54.6631 7.95898Q54.1504 7.17773 54.6387 5.9082L67.334-28.3203L44.0918-28.3203Q43.3594-28.3203 42.8955-28.6865Q42.4316-29.0527 42.4316-29.7363Z"/>
  </g>
  <g id="Black-M" transform="matrix(1 0 0 1 2872.54 1126)">
   <path class="multicolor-0:systemYellowColor hierarchical-0:tertiary SFSymbolsPreviewFFCC00" d="M31.5918 13.2324L90.1367 13.2324Q99.1699 13.2324 104.224 8.17871Q109.277 3.125 109.277-5.9082L109.277-64.4531Q109.277-73.5352 104.224-78.5645Q99.1699-83.5938 90.1367-83.5938L31.5918-83.5938Q22.5586-83.5938 17.5049-78.5645Q12.4512-73.5352 12.4512-64.4531L12.4512-5.9082Q12.4512 3.125 17.5049 8.17871Q22.5586 13.2324 31.5918 13.2324Z"/>
   <path class="multicolor-1:white hierarchical-1:primary SFSymbolsPreviewFFFFFF" d="M39.9902-32.1777Q39.9902-33.5938 40.9668-34.7656L67.1875-66.0156Q68.7012-67.7246 70.4102-67.627Q72.1191-67.5293 73.0713-66.1377Q74.0234-64.7461 73.2422-62.6465L65.2832-42.2363L80.1758-42.2363Q81.543-42.2363 82.5195-41.333Q83.4961-40.4297 83.4961-39.0625Q83.4961-37.6953 82.5195-36.5234L56.2988-5.27344Q54.7852-3.56445 53.0762-3.66211Q51.3672-3.75977 50.3906-5.12695Q49.4141-6.49414 50.2441-8.64258L58.1543-29.0039L43.3105-29.0039Q41.8945-29.0039 40.9424-29.9316Q39.9902-30.8594 39.9902-32.1777Z"/>
  </g>
  <g id="Heavy-M" transform="matrix(1 0 0 1 2576.65 1126)">
   <path class="multicolor-0:systemYellowColor hierarchical-0:tertiary SFSymbolsPreviewFFCC00" d="M30.7129 12.4023L89.4043 12.4023Q98.0957 12.4023 102.856 7.66602Q107.617 2.92969 107.617-5.76172L107.617-64.5996Q107.617-73.291 102.856-78.0273Q98.0957-82.7637 89.4043-82.7637L30.7129-82.7637Q21.9727-82.7637 17.2119-78.0273Q12.4512-73.291 12.4512-64.5996L12.4512-5.76172Q12.4512 2.92969 17.2119 7.66602Q21.9727 12.4023 30.7129 12.4023Z"/>
   <path class="multicolor-1:white hierarchical-1:primary SFSymbolsPreviewFFFFFF" d="M38.916-32.0801Q38.916-33.3984 39.8438-34.5215L66.4062-66.5527Q67.8223-68.1641 69.4092-68.0908Q70.9961-68.0176 71.8994-66.7236Q72.8027-65.4297 72.0703-63.4277L63.8184-42.0898L79.248-42.0898Q80.5176-42.0898 81.4209-41.2354Q82.3242-40.3809 82.3242-39.1113Q82.3242-37.8418 81.3477-36.7188L54.834-4.6875Q53.418-3.07617 51.8066-3.14941Q50.1953-3.22266 49.292-4.5166Q48.3887-5.81055 49.1699-7.8125L57.373-29.1504L41.9922-29.1504Q40.6738-29.1504 39.7949-30.0049Q38.916-30.8594 38.916-32.0801Z"/>
  </g>
  <g id="Bold-M" transform="matrix(1 0 0 1 2280.85 1126)">
   <path class="multicolor-0:systemYellowColor hierarchical-0:tertiary SFSymbolsPreviewFFCC00" d="M29.6875 11.5234L88.5742 11.5234Q96.9238 11.5234 101.367 7.10449Q105.811 2.68555 105.811-5.66406L105.811-64.7461Q105.811-73.0469 101.367-77.4658Q96.9238-81.8848 88.5742-81.8848L29.6875-81.8848Q21.3379-81.8848 16.8945-77.4658Q12.4512-73.0469 12.4512-64.7461L12.4512-5.66406Q12.4512 2.68555 16.8945 7.10449Q21.3379 11.5234 29.6875 11.5234Z"/>
   <path class="multicolor-1:white hierarchical-1:primary SFSymbolsPreviewFFFFFF" d="M37.6953-31.9824Q37.6953-33.2031 38.623-34.2773L65.5273-67.1875Q66.7969-68.7012 68.2861-68.6523Q69.7754-68.6035 70.6055-67.4072Q71.4355-66.2109 70.7031-64.3555L62.1582-41.8945L78.1738-41.8945Q79.3457-41.8945 80.1514-41.1377Q80.957-40.3809 80.957-39.209Q80.957-38.0371 80.0781-36.9629L53.1738-4.00391Q51.9043-2.49023 50.415-2.56348Q48.9258-2.63672 48.0713-3.83301Q47.2168-5.0293 47.9492-6.88477L56.4941-29.2969L40.5273-29.2969Q39.3066-29.2969 38.501-30.0781Q37.6953-30.8594 37.6953-31.9824Z"/>
  </g>
  <g id="Semibold-M" transform="matrix(1 0 0 1 1984.77 1126)">
   <path class="multicolor-0:systemYellowColor hierarchical-0:tertiary SFSymbolsPreviewFFCC00" d="M29.0039 10.8887L87.9883 10.8887Q96.0938 10.8887 100.317 6.68945Q104.541 2.49023 104.541-5.51758L104.541-64.8438Q104.541-72.8516 100.317-77.0508Q96.0938-81.25 87.9883-81.25L29.0039-81.25Q20.8984-81.25 16.6748-77.0508Q12.4512-72.8516 12.4512-64.8438L12.4512-5.51758Q12.4512 2.49023 16.6748 6.68945Q20.8984 10.8887 29.0039 10.8887Z"/>
   <path class="multicolor-1:white hierarchical-1:primary SFSymbolsPreviewFFFFFF" d="M36.8652-31.9824Q36.8652-33.1055 37.7441-34.1309L64.8926-67.6758Q66.1133-69.0918 67.5049-69.043Q68.8965-68.9941 69.6777-67.8711Q70.459-66.748 69.7754-64.9902L61.0352-41.7969L77.4414-41.7969Q78.5156-41.7969 79.2725-41.0889Q80.0293-40.3809 80.0293-39.2578Q80.0293-38.1836 79.1504-37.1582L52.002-3.61328Q50.8301-2.14844 49.4141-2.19727Q47.998-2.24609 47.2168-3.36914Q46.4355-4.49219 47.1191-6.29883L55.8594-29.4434L39.502-29.4434Q38.3789-29.4434 37.6221-30.1514Q36.8652-30.8594 36.8652-31.9824Z"/>
  </g>
  <g id="Medium-M" transform="matrix(1 0 0 1 1688.52 1126)">
   <path class="multicolor-0:systemYellowColor hierarchical-0:tertiary SFSymbolsPreviewFFCC00" d="M28.4668 10.4004L87.5977 10.4004Q95.5078 10.4004 99.5605 6.37207Q103.613 2.34375 103.613-5.46875L103.613-64.8926Q103.613-72.7539 99.5605-76.7578Q95.5078-80.7617 87.5977-80.7617L28.4668-80.7617Q20.5566-80.7617 16.5039-76.7578Q12.4512-72.7539 12.4512-64.8926L12.4512-5.46875Q12.4512 2.34375 16.5039 6.37207Q20.5566 10.4004 28.4668 10.4004Z"/>
   <path class="multicolor-1:white hierarchical-1:primary SFSymbolsPreviewFFFFFF" d="M36.2305-31.8848Q36.2305-33.0078 37.1094-33.9844L64.4531-67.9688Q65.5762-69.3848 66.9189-69.3359Q68.2617-69.2871 68.9941-68.2129Q69.7266-67.1387 69.0918-65.4785L60.1562-41.748L76.8555-41.748Q77.8809-41.748 78.6133-41.0645Q79.3457-40.3809 79.3457-39.3066Q79.3457-38.2812 78.4668-37.2559L51.123-3.22266Q50-1.85547 48.6572-1.87988Q47.3145-1.9043 46.5576-3.00293Q45.8008-4.10156 46.4844-5.81055L55.4199-29.541L38.7207-29.541Q37.6465-29.541 36.9385-30.2002Q36.2305-30.8594 36.2305-31.8848Z"/>
  </g>
  <g id="Regular-M" transform="matrix(1 0 0 1 1392.45 1126)">
   <path class="multicolor-0:systemYellowColor hierarchical-0:tertiary SFSymbolsPreviewFFCC00" d="M27.7832 9.76562L87.0117 9.76562Q94.6777 9.76562 98.5107 5.98145Q102.344 2.19727 102.344-5.37109L102.344-64.9902Q102.344-72.5586 98.5107-76.3428Q94.6777-80.127 87.0117-80.127L27.7832-80.127Q20.1172-80.127 16.2842-76.3428Q12.4512-72.5586 12.4512-64.9902L12.4512-5.37109Q12.4512 2.19727 16.2842 5.98145Q20.1172 9.76562 27.7832 9.76562Z"/>
   <path class="multicolor-1:white hierarchical-1:primary SFSymbolsPreviewFFFFFF" d="M35.4004-31.8359Q35.4004-32.8613 36.2305-33.7891L63.8184-68.4082Q64.8926-69.7266 66.1377-69.7021Q67.3828-69.6777 68.0908-68.6768Q68.7988-67.6758 68.1641-66.0645L59.0332-41.6016L76.123-41.6016Q77.0996-41.6016 77.7588-40.9668Q78.418-40.332 78.418-39.3555Q78.418-38.3789 77.5879-37.4023L50-2.7832Q48.9746-1.46484 47.7051-1.48926Q46.4355-1.51367 45.7275-2.53906Q45.0195-3.56445 45.6543-5.17578L54.7852-29.6387L37.6953-29.6387Q36.7188-29.6387 36.0596-30.249Q35.4004-30.8594 35.4004-31.8359Z"/>
  </g>
  <g id="Light-M" transform="matrix(1 0 0 1 1096.47 1126)">
   <path class="multicolor-0:systemYellowColor hierarchical-0:tertiary SFSymbolsPreviewFFCC00" d="M26.8555 9.0332L86.4746 9.0332Q93.6035 9.0332 97.2412 5.44434Q100.879 1.85547 100.879-5.22461L100.879-65.0879Q100.879-72.168 97.2412-75.7812Q93.6035-79.3945 86.4746-79.3945L26.8555-79.3945Q19.6777-79.3945 16.0645-75.8057Q12.4512-72.2168 12.4512-65.0879L12.4512-5.22461Q12.4512 1.85547 16.0645 5.44434Q19.6777 9.0332 26.8555 9.0332Z"/>
   <path class="multicolor-1:white hierarchical-1:primary SFSymbolsPreviewFFFFFF" d="M34.6191-31.5918Q34.6191-32.4219 35.3516-33.3496L63.4277-68.5547Q64.3555-69.7266 65.4541-69.7021Q66.5527-69.6777 67.1631-68.7988Q67.7734-67.9199 67.1875-66.5039L57.8613-41.4062L75.2441-41.4062Q76.0742-41.4062 76.6357-40.8691Q77.1973-40.332 77.1973-39.502Q77.1973-38.6719 76.4648-37.7441L48.4375-2.53906Q47.5098-1.36719 46.4111-1.3916Q45.3125-1.41602 44.7021-2.31934Q44.0918-3.22266 44.6289-4.63867L54.0039-29.7363L36.5723-29.7363Q35.7422-29.7363 35.1807-30.249Q34.6191-30.7617 34.6191-31.5918Z"/>
  </g>
  <g id="Thin-M" transform="matrix(1 0 0 1 800.758 1126)">
   <path class="multicolor-0:systemYellowColor hierarchical-0:tertiary SFSymbolsPreviewFFCC00" d="M25.5859 8.05664L85.6934 8.05664Q92.2363 8.05664 95.5566 4.71191Q98.877 1.36719 98.877-5.07812L98.877-65.2344Q98.877-71.6309 95.5566-75Q92.2363-78.3691 85.6934-78.3691L25.5859-78.3691Q19.1406-78.3691 15.7959-75.0488Q12.4512-71.7285 12.4512-65.2344L12.4512-5.07812Q12.4512 1.41602 15.7959 4.73633Q19.1406 8.05664 25.5859 8.05664Z"/>
   <path class="multicolor-1:white hierarchical-1:primary SFSymbolsPreviewFFFFFF" d="M33.5938-31.2012Q33.5938-31.8359 34.2285-32.7148L62.8906-68.7012Q63.6719-69.6289 64.5508-69.6289Q65.4297-69.6289 65.918-68.8965Q66.4062-68.1641 65.918-67.041L56.2988-41.0645L74.0234-41.0645Q74.707-41.0645 75.1709-40.6982Q75.6348-40.332 75.6348-39.6484Q75.6348-39.0137 74.9512-38.1348L46.3379-2.14844Q45.5566-1.2207 44.6777-1.24512Q43.7988-1.26953 43.3105-1.97754Q42.8223-2.68555 43.2617-3.80859L52.9297-29.7852L35.1562-29.7852Q34.4727-29.7852 34.0332-30.1514Q33.5938-30.5176 33.5938-31.2012Z"/>
  </g>
  <g id="Ultralight-M" transform="matrix(1 0 0 1 504.535 1126)">
   <path class="multicolor-0:systemYellowColor hierarchical-0:tertiary SFSymbolsPreviewFFCC00" d="M24.9512 7.56836L85.3516 7.56836Q91.5039 7.56836 94.7021 4.3457Q97.9004 1.12305 97.9004-4.98047L97.9004-65.332Q97.9004-71.3867 94.7021-74.6338Q91.5039-77.8809 85.3516-77.8809L24.9512-77.8809Q18.8477-77.8809 15.6494-74.6826Q12.4512-71.4844 12.4512-65.332L12.4512-4.98047Q12.4512 1.2207 15.6494 4.39453Q18.8477 7.56836 24.9512 7.56836Z"/>
   <path class="multicolor-1:white hierarchical-1:primary SFSymbolsPreviewFFFFFF" d="M33.1055-31.0059Q33.1055-31.543 33.6914-32.4219L62.6465-68.8477Q63.3789-69.6289 64.1357-69.6289Q64.8926-69.6289 65.3076-68.9941Q65.7227-68.3594 65.332-67.334L55.5176-40.918L73.4863-40.918Q74.0723-40.918 74.4629-40.625Q74.8535-40.332 74.8535-39.7949Q74.8535-39.2578 74.2188-38.3789L45.3125-1.95312Q44.5801-1.17188 43.8232-1.19629Q43.0664-1.2207 42.6514-1.83105Q42.2363-2.44141 42.627-3.4668L52.4414-29.8828L34.4238-29.8828Q33.8867-29.8828 33.4961-30.1758Q33.1055-30.4688 33.1055-31.0059Z"/>
  </g>
  <g id="Black-S" transform="matrix(1 0 0 1 2885.5 696)">
   <path class="multicolor-0:systemYellowColor hierarchical-0:tertiary SFSymbolsPreviewFFCC00" d="M25 2.92969L70.8008 2.92969Q77.9785 2.92969 82.0068-1.09863Q86.0352-5.12695 86.0352-12.3047L86.0352-58.1055Q86.0352-65.2832 82.0068-69.3115Q77.9785-73.3398 70.8008-73.3398L25-73.3398Q17.8223-73.3398 13.7939-69.3115Q9.76562-65.2832 9.76562-58.1055L9.76562-12.3047Q9.76562-5.12695 13.7939-1.09863Q17.8223 2.92969 25 2.92969Z"/>
   <path class="multicolor-1:white hierarchical-1:primary SFSymbolsPreviewFFFFFF" d="M31.5918-32.8613Q31.5918-33.9844 32.373-34.9121L52.832-59.1797Q54.0527-60.5469 55.4199-60.4736Q56.7871-60.4004 57.5439-59.3018Q58.3008-58.2031 57.666-56.4941L51.5137-40.7715L63.0371-40.7715Q64.1602-40.7715 64.917-40.0391Q65.6738-39.3066 65.6738-38.2324Q65.6738-37.1094 64.8926-36.1816L44.4336-11.9141Q43.2617-10.5469 41.8701-10.6201Q40.4785-10.6934 39.7217-11.8164Q38.9648-12.9395 39.5996-14.5996L45.752-30.3223L34.2285-30.3223Q33.1543-30.3223 32.373-31.0547Q31.5918-31.7871 31.5918-32.8613Z"/>
  </g>
  <g id="Heavy-S" transform="matrix(1 0 0 1 2589.4 696)">
   <path class="multicolor-0:systemYellowColor hierarchical-0:tertiary SFSymbolsPreviewFFCC00" d="M24.3652 2.34375L70.2637 2.34375Q77.1973 2.34375 81.0059-1.46484Q84.8145-5.27344 84.8145-12.207L84.8145-58.2031Q84.8145-65.1367 81.0059-68.9453Q77.1973-72.7539 70.2637-72.7539L24.3652-72.7539Q17.3828-72.7539 13.5742-68.9453Q9.76562-65.1367 9.76562-58.2031L9.76562-12.207Q9.76562-5.27344 13.5742-1.46484Q17.3828 2.34375 24.3652 2.34375Z"/>
   <path class="multicolor-1:white hierarchical-1:primary SFSymbolsPreviewFFFFFF" d="M30.7617-32.8125Q30.7617-33.8867 31.543-34.7656L52.1973-59.6191Q53.3203-60.9375 54.6387-60.8887Q55.957-60.8398 56.665-59.79Q57.373-58.7402 56.7383-57.1289L50.3906-40.6738L62.3535-40.6738Q63.3789-40.6738 64.0869-39.9902Q64.7949-39.3066 64.7949-38.2812Q64.7949-37.207 64.0625-36.3281L43.3594-11.4258Q42.2363-10.1562 40.9424-10.2051Q39.6484-10.2539 38.916-11.3037Q38.1836-12.3535 38.8184-13.9648L45.166-30.4199L33.252-30.4199Q32.2266-30.4199 31.4941-31.1035Q30.7617-31.7871 30.7617-32.8125Z"/>
  </g>
  <g id="Bold-S" transform="matrix(1 0 0 1 2293.35 696)">
   <path class="multicolor-0:systemYellowColor hierarchical-0:tertiary SFSymbolsPreviewFFCC00" d="M23.6328 1.66016L69.6289 1.66016Q76.3672 1.66016 79.9316-1.9043Q83.4961-5.46875 83.4961-12.1094L83.4961-58.3008Q83.4961-64.9902 79.9316-68.5303Q76.3672-72.0703 69.6289-72.0703L23.6328-72.0703Q16.9434-72.0703 13.3545-68.5303Q9.76562-64.9902 9.76562-58.3008L9.76562-12.1094Q9.76562-5.46875 13.3545-1.9043Q16.9434 1.66016 23.6328 1.66016Z"/>
   <path class="multicolor-1:white hierarchical-1:primary SFSymbolsPreviewFFFFFF" d="M29.8828-32.7637Q29.8828-33.7891 30.6152-34.6191L51.5625-60.1562Q52.5879-61.4258 53.8086-61.377Q55.0293-61.3281 55.7129-60.3516Q56.3965-59.375 55.8105-57.8125L49.2188-40.5273L61.6211-40.5273Q62.5488-40.5273 63.2324-39.8926Q63.916-39.2578 63.916-38.3301Q63.916-37.3047 63.1836-36.4746L42.2363-10.9375Q41.2109-9.7168 39.9902-9.76562Q38.7695-9.81445 38.0859-10.791Q37.4023-11.7676 37.9883-13.2812L44.5801-30.5664L32.1777-30.5664Q31.25-30.5664 30.5664-31.2012Q29.8828-31.8359 29.8828-32.7637Z"/>
  </g>
  <g id="Semibold-S" transform="matrix(1 0 0 1 1997.12 696)">
   <path class="multicolor-0:systemYellowColor hierarchical-0:tertiary SFSymbolsPreviewFFCC00" d="M23.0957 1.2207L69.1895 1.2207Q75.7324 1.2207 79.126-2.17285Q82.5195-5.56641 82.5195-12.0605L82.5195-58.3496Q82.5195-64.8438 79.126-68.2373Q75.7324-71.6309 69.1895-71.6309L23.0957-71.6309Q16.6016-71.6309 13.1836-68.2373Q9.76562-64.8438 9.76562-58.3496L9.76562-12.0605Q9.76562-5.56641 13.1836-2.17285Q16.6016 1.2207 23.0957 1.2207Z"/>
   <path class="multicolor-1:white hierarchical-1:primary SFSymbolsPreviewFFFFFF" d="M29.248-32.7148Q29.248-33.6914 29.9805-34.4727L51.0742-60.498Q52.0508-61.7188 53.2227-61.6699Q54.3945-61.6211 55.0293-60.6934Q55.6641-59.7656 55.0781-58.3008L48.3887-40.4297L61.084-40.4297Q61.9629-40.4297 62.5977-39.8438Q63.2324-39.2578 63.2324-38.3301Q63.2324-37.3535 62.5-36.5723L41.4062-10.5469Q40.4297-9.375 39.2578-9.42383Q38.0859-9.47266 37.4268-10.4004Q36.7676-11.3281 37.3535-12.7441L44.0918-30.6152L31.3965-30.6152Q30.5176-30.6152 29.8828-31.2256Q29.248-31.8359 29.248-32.7148Z"/>
  </g>
  <g id="Medium-S" transform="matrix(1 0 0 1 1700.75 696)">
   <path class="multicolor-0:systemYellowColor hierarchical-0:tertiary SFSymbolsPreviewFFCC00" d="M22.7051 0.830078L68.8965 0.830078Q75.293 0.830078 78.5645-2.41699Q81.8359-5.66406 81.8359-11.9629L81.8359-58.4473Q81.8359-64.7461 78.5645-67.9932Q75.293-71.2402 68.8965-71.2402L22.7051-71.2402Q16.3574-71.2402 13.0615-67.9932Q9.76562-64.7461 9.76562-58.4473L9.76562-11.9629Q9.76562-5.66406 13.0615-2.41699Q16.3574 0.830078 22.7051 0.830078Z"/>
   <path class="multicolor-1:white hierarchical-1:primary SFSymbolsPreviewFFFFFF" d="M28.7598-32.7148Q28.7598-33.6426 29.4434-34.375L50.6836-60.791Q51.6113-61.9629 52.7344-61.9141Q53.8574-61.8652 54.4922-60.9863Q55.127-60.1074 54.541-58.6426L47.7051-40.3809L60.6445-40.3809Q61.4746-40.3809 62.1094-39.7949Q62.7441-39.209 62.7441-38.3301Q62.7441-37.4512 62.0117-36.6699L40.7715-10.2539Q39.8438-9.13086 38.7207-9.17969Q37.5977-9.22852 36.9629-10.1074Q36.3281-10.9863 36.8652-12.4023L43.75-30.6641L30.8594-30.6641Q29.9805-30.6641 29.3701-31.25Q28.7598-31.8359 28.7598-32.7148Z"/>
  </g>
  <g id="Regular-S" transform="matrix(1 0 0 1 1404.51 696)">
   <path class="multicolor-0:systemYellowColor hierarchical-0:tertiary SFSymbolsPreviewFFCC00" d="M22.2168 0.390625L68.457 0.390625Q74.707 0.390625 77.8076-2.68555Q80.9082-5.76172 80.9082-11.9141L80.9082-58.4961Q80.9082-64.6484 77.8076-67.7246Q74.707-70.8008 68.457-70.8008L22.2168-70.8008Q16.0156-70.8008 12.8906-67.7246Q9.76562-64.6484 9.76562-58.4961L9.76562-11.9141Q9.76562-5.76172 12.8906-2.68555Q16.0156 0.390625 22.2168 0.390625Z"/>
   <path class="multicolor-1:white hierarchical-1:primary SFSymbolsPreviewFFFFFF" d="M28.125-32.666Q28.125-33.5449 28.8086-34.2773L50.1953-61.1328Q51.0742-62.2559 52.1484-62.2314Q53.2227-62.207 53.8086-61.3525Q54.3945-60.498 53.8574-59.1309L46.875-40.2832L60.1074-40.2832Q60.8887-40.2832 61.4746-39.7461Q62.0605-39.209 62.0605-38.3789Q62.0605-37.5 61.377-36.7676L39.9414-9.91211Q39.0625-8.83789 38.0127-8.8623Q36.9629-8.88672 36.3525-9.7168Q35.7422-10.5469 36.2793-11.9141L43.3105-30.7617L30.0781-30.7617Q29.248-30.7617 28.6865-31.2988Q28.125-31.8359 28.125-32.666Z"/>
  </g>
  <g id="Light-S" transform="matrix(1 0 0 1 1108.46 696)">
   <path class="multicolor-0:systemYellowColor hierarchical-0:tertiary SFSymbolsPreviewFFCC00" d="M21.3867-0.244141L67.9688-0.244141Q73.7793-0.244141 76.6846-3.17383Q79.5898-6.10352 79.5898-11.8164L79.5898-58.5938Q79.5898-64.3066 76.6846-67.2119Q73.7793-70.1172 67.9688-70.1172L21.3867-70.1172Q15.625-70.1172 12.6953-67.2119Q9.76562-64.3066 9.76562-58.5938L9.76562-11.8164Q9.76562-6.05469 12.6953-3.14941Q15.625-0.244141 21.3867-0.244141Z"/>
   <path class="multicolor-1:white hierarchical-1:primary SFSymbolsPreviewFFFFFF" d="M27.4414-32.4707Q27.4414-33.2031 28.0762-33.8867L49.8535-61.2793Q50.6348-62.2559 51.5625-62.2314Q52.4902-62.207 52.9785-61.4746Q53.4668-60.7422 53.0273-59.5215L45.8008-40.1367L59.3262-40.1367Q60.0098-40.1367 60.498-39.6729Q60.9863-39.209 60.9863-38.5254Q60.9863-37.793 60.3516-37.0605L38.5254-9.7168Q37.793-8.74023 36.8652-8.76465Q35.9375-8.78906 35.4248-9.52148Q34.9121-10.2539 35.4004-11.4258L42.627-30.8594L29.1016-30.8594Q28.418-30.8594 27.9297-31.2988Q27.4414-31.7383 27.4414-32.4707Z"/>
  </g>
  <g id="Thin-S" transform="matrix(1 0 0 1 812.623 696)">
   <path class="multicolor-0:systemYellowColor hierarchical-0:tertiary SFSymbolsPreviewFFCC00" d="M20.3125-1.12305L67.2852-1.12305Q72.5098-1.12305 75.1709-3.80859Q77.832-6.49414 77.832-11.6211L77.832-58.6914Q77.832-63.8184 75.1709-66.5283Q72.5098-69.2383 67.2852-69.2383L20.3125-69.2383Q15.0879-69.2383 12.4268-66.5771Q9.76562-63.916 9.76562-58.6914L9.76562-11.6211Q9.76562-6.44531 12.4268-3.78418Q15.0879-1.12305 20.3125-1.12305Z"/>
   <path class="multicolor-1:white hierarchical-1:primary SFSymbolsPreviewFFFFFF" d="M26.5137-32.1289Q26.5137-32.666 27.0508-33.3496L49.3652-61.377Q50-62.1582 50.7324-62.1582Q51.4648-62.1582 51.8555-61.5723Q52.2461-60.9863 51.9043-60.0098L44.3848-39.8438L58.252-39.8438Q58.7891-39.8438 59.1553-39.5264Q59.5215-39.209 59.5215-38.623Q59.5215-38.1348 59.0332-37.4023L36.6699-9.375Q36.0352-8.59375 35.3027-8.61816Q34.5703-8.64258 34.1797-9.2041Q33.7891-9.76562 34.1797-10.7422L41.6504-30.9082L27.832-30.9082Q27.2461-30.9082 26.8799-31.25Q26.5137-31.5918 26.5137-32.1289Z"/>
  </g>
  <g id="Ultralight-S" transform="matrix(1 0 0 1 516.352 696)">
   <path class="multicolor-0:systemYellowColor hierarchical-0:tertiary SFSymbolsPreviewFFCC00" d="M19.7754-1.5625L66.9434-1.5625Q71.875-1.5625 74.4141-4.15039Q76.9531-6.73828 76.9531-11.5723L76.9531-58.7891Q76.9531-63.623 74.4141-66.1865Q71.875-68.75 66.9434-68.75L19.7754-68.75Q14.8438-68.75 12.3047-66.2109Q9.76562-63.6719 9.76562-58.7891L9.76562-11.5723Q9.76562-6.64062 12.3047-4.10156Q14.8438-1.5625 19.7754-1.5625Z"/>
   <path class="multicolor-1:white hierarchical-1:primary SFSymbolsPreviewFFFFFF" d="M26.0254-31.9824Q26.0254-32.4219 26.5137-33.1055L49.0723-61.5234Q49.6582-62.1582 50.293-62.1582Q50.9277-62.1582 51.2695-61.6455Q51.6113-61.1328 51.3184-60.3027L43.6523-39.7461L57.666-39.7461Q58.1543-39.7461 58.4717-39.4775Q58.7891-39.209 58.7891-38.7695Q58.7891-38.3301 58.3008-37.5977L35.6934-9.22852Q35.1562-8.54492 34.5215-8.56934Q33.8867-8.59375 33.5449-9.10645Q33.2031-9.61914 33.5449-10.4004L41.1621-31.0059L27.1484-31.0059Q26.6602-31.0059 26.3428-31.2744Q26.0254-31.543 26.0254-31.9824Z"/>
  </g>
 </g>
</svg>
