<?xml version="1.0" encoding="UTF-8"?>
<!--Generator: Apple Native CoreSVG 175-->
<!DOCTYPE svg
PUBLIC "-//W3C//DTD SVG 1.1//EN"
       "http://www.w3.org/Graphics/SVG/1.1/DTD/svg11.dtd">
<svg version="1.1" xmlns="http://www.w3.org/2000/svg" xmlns:xlink="http://www.w3.org/1999/xlink" width="3300" height="2200">
 <!--glyph: "uni1001C7.medium", point size: 100.0, font version: "17.0d11e1", template writer version: "65.1"-->
 <style>.multicolor-0:white {fill:#FFFFFF;opacity:1.0}
.multicolor-1:systemCyanColor {fill:#55BEF0;opacity:1.0}

.hierarchical-0:secondary {fill:#4D4D4D}
.hierarchical-1:primary {fill:#212121}

.SFSymbolsPreview55BEF0 {fill:#55BEF0;opacity:1.0}
.SFSymbolsPreviewFFFFFF {fill:#FFFFFF;opacity:1.0}
</style>
 <g id="Notes">
  <rect height="2200" id="artboard" style="fill:white;opacity:1" width="3300" x="0" y="0"/>
  <line style="fill:none;stroke:black;opacity:1;stroke-width:0.5;" x1="263" x2="3036" y1="292" y2="292"/>
  <text style="stroke:none;fill:black;font-family:sans-serif;font-size:13;font-weight:bold;" transform="matrix(1 0 0 1 263 322)">Weight/Scale Variations</text>
  <text style="stroke:none;fill:black;font-family:sans-serif;font-size:13;text-anchor:middle;" transform="matrix(1 0 0 1 559.711 322)">Ultralight</text>
  <text style="stroke:none;fill:black;font-family:sans-serif;font-size:13;text-anchor:middle;" transform="matrix(1 0 0 1 856.422 322)">Thin</text>
  <text style="stroke:none;fill:black;font-family:sans-serif;font-size:13;text-anchor:middle;" transform="matrix(1 0 0 1 1153.13 322)">Light</text>
  <text style="stroke:none;fill:black;font-family:sans-serif;font-size:13;text-anchor:middle;" transform="matrix(1 0 0 1 1449.84 322)">Regular</text>
  <text style="stroke:none;fill:black;font-family:sans-serif;font-size:13;text-anchor:middle;" transform="matrix(1 0 0 1 1746.56 322)">Medium</text>
  <text style="stroke:none;fill:black;font-family:sans-serif;font-size:13;text-anchor:middle;" transform="matrix(1 0 0 1 2043.27 322)">Semibold</text>
  <text style="stroke:none;fill:black;font-family:sans-serif;font-size:13;text-anchor:middle;" transform="matrix(1 0 0 1 2339.98 322)">Bold</text>
  <text style="stroke:none;fill:black;font-family:sans-serif;font-size:13;text-anchor:middle;" transform="matrix(1 0 0 1 2636.69 322)">Heavy</text>
  <text style="stroke:none;fill:black;font-family:sans-serif;font-size:13;text-anchor:middle;" transform="matrix(1 0 0 1 2933.4 322)">Black</text>
  <line style="fill:none;stroke:black;opacity:1;stroke-width:0.5;" x1="263" x2="3036" y1="1903" y2="1903"/>
  <g transform="matrix(1 0 0 1 263 1933)">
   <path d="M9.24805 0.830078Q10.8691 0.830078 12.2949 0.214844Q13.7207-0.400391 14.8096-1.49414Q15.8984-2.58789 16.5186-4.01367Q17.1387-5.43945 17.1387-7.05078Q17.1387-8.66211 16.5186-10.0879Q15.8984-11.5137 14.8047-12.6074Q13.7109-13.7012 12.2852-14.3164Q10.8594-14.9316 9.23828-14.9316Q7.62695-14.9316 6.20117-14.3164Q4.77539-13.7012 3.69141-12.6074Q2.60742-11.5137 1.9873-10.0879Q1.36719-8.66211 1.36719-7.05078Q1.36719-5.43945 1.9873-4.01367Q2.60742-2.58789 3.69629-1.49414Q4.78516-0.400391 6.21094 0.214844Q7.63672 0.830078 9.24805 0.830078ZM9.24805-0.654297Q7.91992-0.654297 6.7627-1.14746Q5.60547-1.64062 4.73145-2.51953Q3.85742-3.39844 3.36426-4.56055Q2.87109-5.72266 2.87109-7.05078Q2.87109-8.37891 3.35938-9.54102Q3.84766-10.7031 4.72168-11.582Q5.5957-12.4609 6.75293-12.9541Q7.91016-13.4473 9.23828-13.4473Q10.5762-13.4473 11.7334-12.9541Q12.8906-12.4609 13.7695-11.582Q14.6484-10.7031 15.1465-9.54102Q15.6445-8.37891 15.6445-7.05078Q15.6445-5.72266 15.1514-4.56055Q14.6582-3.39844 13.7842-2.51953Q12.9102-1.64062 11.748-1.14746Q10.5859-0.654297 9.24805-0.654297ZM5.6543-7.05078Q5.6543-6.72852 5.85938-6.52832Q6.06445-6.32812 6.40625-6.32812L8.51562-6.32812L8.51562-4.20898Q8.51562-3.88672 8.71094-3.67676Q8.90625-3.4668 9.23828-3.4668Q9.56055-3.4668 9.77051-3.67676Q9.98047-3.88672 9.98047-4.20898L9.98047-6.32812L12.0898-6.32812Q12.4219-6.32812 12.627-6.52832Q12.832-6.72852 12.832-7.05078Q12.832-7.38281 12.627-7.58789Q12.4219-7.79297 12.0898-7.79297L9.98047-7.79297L9.98047-9.90234Q9.98047-10.2344 9.77051-10.4443Q9.56055-10.6543 9.23828-10.6543Q8.90625-10.6543 8.71094-10.4443Q8.51562-10.2344 8.51562-9.90234L8.51562-7.79297L6.40625-7.79297Q6.06445-7.79297 5.85938-7.58789Q5.6543-7.38281 5.6543-7.05078Z"/>
  </g>
  <g transform="matrix(1 0 0 1 281.867 1933)">
   <path d="M11.709 2.91016Q13.75 2.91016 15.5518 2.12891Q17.3535 1.34766 18.7305-0.0292969Q20.1074-1.40625 20.8887-3.20801Q21.6699-5.00977 21.6699-7.05078Q21.6699-9.0918 20.8887-10.8936Q20.1074-12.6953 18.7305-14.0723Q17.3535-15.4492 15.5469-16.2305Q13.7402-17.0117 11.6992-17.0117Q9.6582-17.0117 7.85645-16.2305Q6.05469-15.4492 4.68262-14.0723Q3.31055-12.6953 2.5293-10.8936Q1.74805-9.0918 1.74805-7.05078Q1.74805-5.00977 2.5293-3.20801Q3.31055-1.40625 4.6875-0.0292969Q6.06445 1.34766 7.86621 2.12891Q9.66797 2.91016 11.709 2.91016ZM11.709 1.25Q9.98047 1.25 8.47656 0.605469Q6.97266-0.0390625 5.83496-1.17676Q4.69727-2.31445 4.05762-3.81836Q3.41797-5.32227 3.41797-7.05078Q3.41797-8.7793 4.05762-10.2832Q4.69727-11.7871 5.83008-12.9297Q6.96289-14.0723 8.4668-14.7119Q9.9707-15.3516 11.6992-15.3516Q13.4277-15.3516 14.9316-14.7119Q16.4355-14.0723 17.5781-12.9297Q18.7207-11.7871 19.3652-10.2832Q20.0098-8.7793 20.0098-7.05078Q20.0098-5.32227 19.3701-3.81836Q18.7305-2.31445 17.5928-1.17676Q16.4551-0.0390625 14.9463 0.605469Q13.4375 1.25 11.709 1.25ZM7.17773-7.05078Q7.17773-6.69922 7.41211-6.47461Q7.64648-6.25 8.01758-6.25L10.8887-6.25L10.8887-3.36914Q10.8887-2.99805 11.1133-2.76855Q11.3379-2.53906 11.6895-2.53906Q12.0605-2.53906 12.29-2.76855Q12.5195-2.99805 12.5195-3.36914L12.5195-6.25L15.4004-6.25Q15.7715-6.25 16.001-6.47461Q16.2305-6.69922 16.2305-7.05078Q16.2305-7.42188 16.001-7.65137Q15.7715-7.88086 15.4004-7.88086L12.5195-7.88086L12.5195-10.752Q12.5195-11.1328 12.29-11.3623Q12.0605-11.5918 11.6895-11.5918Q11.3379-11.5918 11.1133-11.3574Q10.8887-11.123 10.8887-10.752L10.8887-7.88086L8.01758-7.88086Q7.63672-7.88086 7.40723-7.65137Q7.17773-7.42188 7.17773-7.05078Z"/>
  </g>
  <g transform="matrix(1 0 0 1 305.646 1933)">
   <path d="M14.9707 5.66406Q17.0605 5.66406 18.96 5.01465Q20.8594 4.36523 22.4512 3.19336Q24.043 2.02148 25.2197 0.429688Q26.3965-1.16211 27.0459-3.06641Q27.6953-4.9707 27.6953-7.05078Q27.6953-9.14062 27.0459-11.04Q26.3965-12.9395 25.2197-14.5312Q24.043-16.123 22.4512-17.2998Q20.8594-18.4766 18.9551-19.126Q17.0508-19.7754 14.9609-19.7754Q12.8711-19.7754 10.9717-19.126Q9.07227-18.4766 7.48535-17.2998Q5.89844-16.123 4.72168-14.5312Q3.54492-12.9395 2.90039-11.04Q2.25586-9.14062 2.25586-7.05078Q2.25586-4.9707 2.90527-3.06641Q3.55469-1.16211 4.72656 0.429688Q5.89844 2.02148 7.49023 3.19336Q9.08203 4.36523 10.9814 5.01465Q12.8809 5.66406 14.9707 5.66406ZM14.9707 3.84766Q13.1641 3.84766 11.5283 3.2959Q9.89258 2.74414 8.53516 1.74805Q7.17773 0.751953 6.17676-0.610352Q5.17578-1.97266 4.62891-3.6084Q4.08203-5.24414 4.08203-7.05078Q4.08203-8.86719 4.62891-10.5029Q5.17578-12.1387 6.17188-13.501Q7.16797-14.8633 8.52539-15.8594Q9.88281-16.8555 11.5186-17.4023Q13.1543-17.9492 14.9609-17.9492Q16.7773-17.9492 18.4131-17.4023Q20.0488-16.8555 21.4111-15.8594Q22.7734-14.8633 23.7695-13.501Q24.7656-12.1387 25.3174-10.5029Q25.8691-8.86719 25.8691-7.05078Q25.8789-5.24414 25.332-3.6084Q24.7852-1.97266 23.7842-0.610352Q22.7832 0.751953 21.4209 1.74805Q20.0586 2.74414 18.4229 3.2959Q16.7871 3.84766 14.9707 3.84766ZM9.19922-7.05078Q9.19922-6.66992 9.45801-6.4209Q9.7168-6.17188 10.1172-6.17188L14.0625-6.17188L14.0625-2.2168Q14.0625-1.81641 14.3115-1.55762Q14.5605-1.29883 14.9512-1.29883Q15.3516-1.29883 15.6104-1.55273Q15.8691-1.80664 15.8691-2.2168L15.8691-6.17188L19.8242-6.17188Q20.2246-6.17188 20.4785-6.4209Q20.7324-6.66992 20.7324-7.05078Q20.7324-7.46094 20.4785-7.71484Q20.2246-7.96875 19.8242-7.96875L15.8691-7.96875L15.8691-11.9141Q15.8691-12.3242 15.6104-12.583Q15.3516-12.8418 14.9512-12.8418Q14.5605-12.8418 14.3115-12.583Q14.0625-12.3242 14.0625-11.9141L14.0625-7.96875L10.1172-7.96875Q9.70703-7.96875 9.45312-7.71484Q9.19922-7.46094 9.19922-7.05078Z"/>
  </g>
  <text style="stroke:none;fill:black;font-family:sans-serif;font-size:13;font-weight:bold;" transform="matrix(1 0 0 1 263 1953)">Design Variations</text>
  <text style="stroke:none;fill:black;font-family:sans-serif;font-size:13;" transform="matrix(1 0 0 1 263 1971)">Symbols are supported in up to nine weights and three scales.</text>
  <text style="stroke:none;fill:black;font-family:sans-serif;font-size:13;" transform="matrix(1 0 0 1 263 1989)">For optimal layout with text and other symbols, vertically align</text>
  <text style="stroke:none;fill:black;font-family:sans-serif;font-size:13;" transform="matrix(1 0 0 1 263 2007)">symbols with the adjacent text.</text>
  <line style="fill:none;stroke:#00AEEF;stroke-width:0.5;opacity:1.0;" x1="776" x2="776" y1="1919" y2="1933"/>
  <g transform="matrix(1 0 0 1 776 1933)">
   <path d="M3.31055 0.15625Q3.70117 0.15625 3.91602-0.00976562Q4.13086-0.175781 4.26758-0.585938L5.52734-4.0332L11.2891-4.0332L12.5488-0.585938Q12.6855-0.175781 12.9004-0.00976562Q13.1152 0.15625 13.4961 0.15625Q13.8867 0.15625 14.1162-0.0585938Q14.3457-0.273438 14.3457-0.644531Q14.3457-0.869141 14.2383-1.17188L9.6582-13.3691Q9.48242-13.8184 9.17969-14.043Q8.87695-14.2676 8.4082-14.2676Q7.5-14.2676 7.17773-13.3789L2.59766-1.16211Q2.49023-0.859375 2.49023-0.634766Q2.49023-0.263672 2.70996-0.0537109Q2.92969 0.15625 3.31055 0.15625ZM6.00586-5.51758L8.37891-12.0898L8.42773-12.0898L10.8008-5.51758Z"/>
  </g>
  <line style="fill:none;stroke:#00AEEF;stroke-width:0.5;opacity:1.0;" x1="793.197" x2="793.197" y1="1919" y2="1933"/>
  <text style="stroke:none;fill:black;font-family:sans-serif;font-size:13;font-weight:bold;" transform="matrix(1 0 0 1 776 1953)">Margins</text>
  <text style="stroke:none;fill:black;font-family:sans-serif;font-size:13;" transform="matrix(1 0 0 1 776 1971)">Leading and trailing margins on the left and right side of each symbol</text>
  <text style="stroke:none;fill:black;font-family:sans-serif;font-size:13;" transform="matrix(1 0 0 1 776 1989)">can be adjusted by modifying the x-location of the margin guidelines.</text>
  <text style="stroke:none;fill:black;font-family:sans-serif;font-size:13;" transform="matrix(1 0 0 1 776 2007)">Modifications are automatically applied proportionally to all</text>
  <text style="stroke:none;fill:black;font-family:sans-serif;font-size:13;" transform="matrix(1 0 0 1 776 2025)">scales and weights.</text>
  <g transform="matrix(1 0 0 1 1289 1933)">
   <path d="M2.8418 1.86523L4.54102 3.57422Q5.18555 4.22852 5.90332 4.17969Q6.62109 4.13086 7.31445 3.35938L18.0078-8.42773L17.041-9.4043L6.42578 2.27539Q6.16211 2.57812 5.89355 2.61719Q5.625 2.65625 5.27344 2.30469L4.10156 1.14258Q3.75 0.791016 3.79395 0.522461Q3.83789 0.253906 4.14062-0.0195312L15.6152-10.8203L14.6387-11.7871L3.04688-0.898438Q2.30469-0.214844 2.25098 0.498047Q2.19727 1.21094 2.8418 1.86523ZM9.25781-16.3281Q8.94531-16.0254 8.90625-15.6348Q8.86719-15.2441 9.04297-14.9512Q9.21875-14.6777 9.55566-14.541Q9.89258-14.4043 10.3809-14.5215Q11.4746-14.7754 12.5977-14.7314Q13.7207-14.6875 14.7949-13.9844L14.209-12.5293Q13.9551-11.9043 14.0674-11.4404Q14.1797-10.9766 14.5801-10.5664L16.875-8.25195Q17.2363-7.88086 17.5781-7.82227Q17.9199-7.76367 18.3398-7.8418L19.4043-8.03711L20.0684-7.36328L20.0293-6.80664Q20-6.43555 20.1221-6.12305Q20.2441-5.81055 20.6055-5.44922L21.3672-4.70703Q21.7285-4.3457 22.1533-4.33105Q22.5781-4.31641 22.9297-4.66797L25.8398-7.58789Q26.1914-7.93945 26.1816-8.35449Q26.1719-8.76953 25.8105-9.13086L25.0391-9.89258Q24.6875-10.2539 24.3799-10.3857Q24.0723-10.5176 23.7109-10.4883L23.1348-10.4395L22.4902-11.0742L22.7344-12.1973Q22.832-12.6172 22.6953-12.9834Q22.5586-13.3496 22.1191-13.7891L19.9219-15.9766Q18.6719-17.2168 17.2607-17.8369Q15.8496-18.457 14.4189-18.4814Q12.9883-18.5059 11.665-17.959Q10.3418-17.4121 9.25781-16.3281ZM10.752-15.957Q11.6602-16.6211 12.7002-16.9043Q13.7402-17.1875 14.8047-17.085Q15.8691-16.9824 16.8701-16.5137Q17.8711-16.0449 18.7012-15.2051L21.1328-12.793Q21.3086-12.6172 21.3525-12.4512Q21.3965-12.2852 21.3379-12.0312L21.0156-10.5469L22.5195-9.0625L23.5059-9.12109Q23.6914-9.13086 23.7891-9.09668Q23.8867-9.0625 24.0332-8.91602L24.6094-8.33984L22.168-5.89844L21.5918-6.47461Q21.4453-6.62109 21.4062-6.71875Q21.3672-6.81641 21.377-7.01172L21.4453-7.98828L19.9512-9.47266L18.4277-9.21875Q18.1836-9.16992 18.042-9.2041Q17.9004-9.23828 17.7148-9.41406L15.7129-11.416Q15.5176-11.5918 15.4932-11.7529Q15.4688-11.9141 15.5859-12.1875L16.4648-14.2773Q15.293-15.3711 13.8281-15.791Q12.3633-16.2109 10.8398-15.7617Q10.7227-15.7324 10.6885-15.8057Q10.6543-15.8789 10.752-15.957Z"/>
  </g>
  <text style="stroke:none;fill:black;font-family:sans-serif;font-size:13;font-weight:bold;" transform="matrix(1 0 0 1 1289 1953)">Exporting</text>
  <text style="stroke:none;fill:black;font-family:sans-serif;font-size:13;" transform="matrix(1 0 0 1 1289 1971)">Symbols should be outlined when exporting to ensure the</text>
  <text style="stroke:none;fill:black;font-family:sans-serif;font-size:13;" transform="matrix(1 0 0 1 1289 1989)">design is preserved when submitting to Xcode.</text>
  <text id="template-version" style="stroke:none;fill:black;font-family:sans-serif;font-size:13;text-anchor:end;" transform="matrix(1 0 0 1 3036 1933)">Template v.3.0</text>
  <text style="stroke:none;fill:black;font-family:sans-serif;font-size:13;text-anchor:end;" transform="matrix(1 0 0 1 3036 1951)">Requires Xcode 13 or greater</text>
  <text id="descriptive-name" style="stroke:none;fill:black;font-family:sans-serif;font-size:13;text-anchor:end;" transform="matrix(1 0 0 1 3036 1969)">Generated from cloud.rain.fill</text>
  <text style="stroke:none;fill:black;font-family:sans-serif;font-size:13;text-anchor:end;" transform="matrix(1 0 0 1 3036 1987)">Typeset at 100 points</text>
  <text style="stroke:none;fill:black;font-family:sans-serif;font-size:13;" transform="matrix(1 0 0 1 263 726)">Small</text>
  <text style="stroke:none;fill:black;font-family:sans-serif;font-size:13;" transform="matrix(1 0 0 1 263 1156)">Medium</text>
  <text style="stroke:none;fill:black;font-family:sans-serif;font-size:13;" transform="matrix(1 0 0 1 263 1586)">Large</text>
 </g>
 <g id="Guides">
  <g id="H-reference" style="fill:#27AAE1;stroke:none;" transform="matrix(1 0 0 1 339 696)">
   <path d="M0.976562 0L3.66211 0L29.3457-67.1387L30.0293-67.1387L30.0293-70.459L28.125-70.459ZM11.6699-24.4629L46.9727-24.4629L46.2402-26.709L12.4512-26.709ZM55.127 0L57.7637 0L30.6152-70.459L29.4434-70.459L29.4434-67.1387Z"/>
  </g>
  <line id="Baseline-S" style="fill:none;stroke:#27AAE1;opacity:1;stroke-width:0.5;" x1="263" x2="3036" y1="696" y2="696"/>
  <line id="Capline-S" style="fill:none;stroke:#27AAE1;opacity:1;stroke-width:0.5;" x1="263" x2="3036" y1="625.541" y2="625.541"/>
  <g id="H-reference" style="fill:#27AAE1;stroke:none;" transform="matrix(1 0 0 1 339 1126)">
   <path d="M0.976562 0L3.66211 0L29.3457-67.1387L30.0293-67.1387L30.0293-70.459L28.125-70.459ZM11.6699-24.4629L46.9727-24.4629L46.2402-26.709L12.4512-26.709ZM55.127 0L57.7637 0L30.6152-70.459L29.4434-70.459L29.4434-67.1387Z"/>
  </g>
  <line id="Baseline-M" style="fill:none;stroke:#27AAE1;opacity:1;stroke-width:0.5;" x1="263" x2="3036" y1="1126" y2="1126"/>
  <line id="Capline-M" style="fill:none;stroke:#27AAE1;opacity:1;stroke-width:0.5;" x1="263" x2="3036" y1="1055.54" y2="1055.54"/>
  <g id="H-reference" style="fill:#27AAE1;stroke:none;" transform="matrix(1 0 0 1 339 1556)">
   <path d="M0.976562 0L3.66211 0L29.3457-67.1387L30.0293-67.1387L30.0293-70.459L28.125-70.459ZM11.6699-24.4629L46.9727-24.4629L46.2402-26.709L12.4512-26.709ZM55.127 0L57.7637 0L30.6152-70.459L29.4434-70.459L29.4434-67.1387Z"/>
  </g>
  <line id="Baseline-L" style="fill:none;stroke:#27AAE1;opacity:1;stroke-width:0.5;" x1="263" x2="3036" y1="1556" y2="1556"/>
  <line id="Capline-L" style="fill:none;stroke:#27AAE1;opacity:1;stroke-width:0.5;" x1="263" x2="3036" y1="1485.54" y2="1485.54"/>
  <line id="left-margin-Ultralight-S" style="fill:none;stroke:#00AEEF;stroke-width:0.5;opacity:1.0;" x1="512.055" x2="512.055" y1="600.785" y2="720.121"/>
  <line id="right-margin-Ultralight-S" style="fill:none;stroke:#00AEEF;stroke-width:0.5;opacity:1.0;" x1="607.367" x2="607.367" y1="600.785" y2="720.121"/>
  <line id="left-margin-Thin-S" style="fill:none;stroke:#00AEEF;stroke-width:0.5;opacity:1.0;" x1="808.522" x2="808.522" y1="600.785" y2="720.121"/>
  <line id="right-margin-Thin-S" style="fill:none;stroke:#00AEEF;stroke-width:0.5;opacity:1.0;" x1="904.323" x2="904.323" y1="600.785" y2="720.121"/>
  <line id="left-margin-Light-S" style="fill:none;stroke:#00AEEF;stroke-width:0.5;opacity:1.0;" x1="1104.74" x2="1104.74" y1="600.785" y2="720.121"/>
  <line id="right-margin-Light-S" style="fill:none;stroke:#00AEEF;stroke-width:0.5;opacity:1.0;" x1="1201.52" x2="1201.52" y1="600.785" y2="720.121"/>
  <line id="left-margin-Regular-S" style="fill:none;stroke:#00AEEF;stroke-width:0.5;opacity:1.0;" x1="1401.09" x2="1401.09" y1="600.785" y2="720.121"/>
  <line id="right-margin-Regular-S" style="fill:none;stroke:#00AEEF;stroke-width:0.5;opacity:1.0;" x1="1498.6" x2="1498.6" y1="600.785" y2="720.121"/>
  <line id="left-margin-Medium-S" style="fill:none;stroke:#00AEEF;stroke-width:0.5;opacity:1.0;" x1="1697.17" x2="1697.17" y1="600.785" y2="720.121"/>
  <line id="right-margin-Medium-S" style="fill:none;stroke:#00AEEF;stroke-width:0.5;opacity:1.0;" x1="1795.95" x2="1795.95" y1="600.785" y2="720.121"/>
  <line id="left-margin-Semibold-S" style="fill:none;stroke:#00AEEF;stroke-width:0.5;opacity:1.0;" x1="1993.39" x2="1993.39" y1="600.785" y2="720.121"/>
  <line id="right-margin-Semibold-S" style="fill:none;stroke:#00AEEF;stroke-width:0.5;opacity:1.0;" x1="2093.14" x2="2093.14" y1="600.785" y2="720.121"/>
  <line id="left-margin-Bold-S" style="fill:none;stroke:#00AEEF;stroke-width:0.5;opacity:1.0;" x1="2289.44" x2="2289.44" y1="600.785" y2="720.121"/>
  <line id="right-margin-Bold-S" style="fill:none;stroke:#00AEEF;stroke-width:0.5;opacity:1.0;" x1="2390.51" x2="2390.51" y1="600.785" y2="720.121"/>
  <line id="left-margin-Heavy-S" style="fill:none;stroke:#00AEEF;stroke-width:0.5;opacity:1.0;" x1="2585.22" x2="2585.22" y1="600.785" y2="720.121"/>
  <line id="right-margin-Heavy-S" style="fill:none;stroke:#00AEEF;stroke-width:0.5;opacity:1.0;" x1="2688.15" x2="2688.15" y1="600.785" y2="720.121"/>
  <line id="left-margin-Black-S" style="fill:none;stroke:#00AEEF;stroke-width:0.5;opacity:1.0;" x1="2881.11" x2="2881.11" y1="600.785" y2="720.121"/>
  <line id="right-margin-Black-S" style="fill:none;stroke:#00AEEF;stroke-width:0.5;opacity:1.0;" x1="2985.69" x2="2985.69" y1="600.785" y2="720.121"/>
  <line id="left-margin-Ultralight-M" style="fill:none;stroke:#00AEEF;stroke-width:0.5;opacity:1.0;" x1="498.969" x2="498.969" y1="1030.79" y2="1150.12"/>
  <line id="right-margin-Ultralight-M" style="fill:none;stroke:#00AEEF;stroke-width:0.5;opacity:1.0;" x1="620.453" x2="620.453" y1="1030.79" y2="1150.12"/>
  <line id="left-margin-Thin-M" style="fill:none;stroke:#00AEEF;stroke-width:0.5;opacity:1.0;" x1="795.411" x2="795.411" y1="1030.79" y2="1150.12"/>
  <line id="right-margin-Thin-M" style="fill:none;stroke:#00AEEF;stroke-width:0.5;opacity:1.0;" x1="917.433" x2="917.433" y1="1030.79" y2="1150.12"/>
  <line id="left-margin-Light-M" style="fill:none;stroke:#00AEEF;stroke-width:0.5;opacity:1.0;" x1="1091.56" x2="1091.56" y1="1030.79" y2="1150.12"/>
  <line id="right-margin-Light-M" style="fill:none;stroke:#00AEEF;stroke-width:0.5;opacity:1.0;" x1="1214.71" x2="1214.71" y1="1030.79" y2="1150.12"/>
  <line id="left-margin-Regular-M" style="fill:none;stroke:#00AEEF;stroke-width:0.5;opacity:1.0;" x1="1387.86" x2="1387.86" y1="1030.79" y2="1150.12"/>
  <line id="right-margin-Regular-M" style="fill:none;stroke:#00AEEF;stroke-width:0.5;opacity:1.0;" x1="1511.83" x2="1511.83" y1="1030.79" y2="1150.12"/>
  <line id="left-margin-Medium-M" style="fill:none;stroke:#00AEEF;stroke-width:0.5;opacity:1.0;" x1="1683.79" x2="1683.79" y1="1030.79" y2="1150.12"/>
  <line id="right-margin-Medium-M" style="fill:none;stroke:#00AEEF;stroke-width:0.5;opacity:1.0;" x1="1809.32" x2="1809.32" y1="1030.79" y2="1150.12"/>
  <line id="left-margin-Semibold-M" style="fill:none;stroke:#00AEEF;stroke-width:0.5;opacity:1.0;" x1="1979.89" x2="1979.89" y1="1030.79" y2="1150.12"/>
  <line id="right-margin-Semibold-M" style="fill:none;stroke:#00AEEF;stroke-width:0.5;opacity:1.0;" x1="2106.65" x2="2106.65" y1="1030.79" y2="1150.12"/>
  <line id="left-margin-Bold-M" style="fill:none;stroke:#00AEEF;stroke-width:0.5;opacity:1.0;" x1="2275.79" x2="2275.79" y1="1030.79" y2="1150.12"/>
  <line id="right-margin-Bold-M" style="fill:none;stroke:#00AEEF;stroke-width:0.5;opacity:1.0;" x1="2404.16" x2="2404.16" y1="1030.79" y2="1150.12"/>
  <line id="left-margin-Heavy-M" style="fill:none;stroke:#00AEEF;stroke-width:0.5;opacity:1.0;" x1="2571.33" x2="2571.33" y1="1030.79" y2="1150.12"/>
  <line id="right-margin-Heavy-M" style="fill:none;stroke:#00AEEF;stroke-width:0.5;opacity:1.0;" x1="2702.05" x2="2702.05" y1="1030.79" y2="1150.12"/>
  <line id="left-margin-Black-M" style="fill:none;stroke:#00AEEF;stroke-width:0.5;opacity:1.0;" x1="2867.02" x2="2867.02" y1="1030.79" y2="1150.12"/>
  <line id="right-margin-Black-M" style="fill:none;stroke:#00AEEF;stroke-width:0.5;opacity:1.0;" x1="2999.78" x2="2999.78" y1="1030.79" y2="1150.12"/>
  <line id="left-margin-Ultralight-L" style="fill:none;stroke:#00AEEF;stroke-width:0.5;opacity:1.0;" x1="481.464" x2="481.464" y1="1460.79" y2="1580.12"/>
  <line id="right-margin-Ultralight-L" style="fill:none;stroke:#00AEEF;stroke-width:0.5;opacity:1.0;" x1="637.958" x2="637.958" y1="1460.79" y2="1580.12"/>
  <line id="left-margin-Thin-L" style="fill:none;stroke:#00AEEF;stroke-width:0.5;opacity:1.0;" x1="777.858" x2="777.858" y1="1460.79" y2="1580.12"/>
  <line id="right-margin-Thin-L" style="fill:none;stroke:#00AEEF;stroke-width:0.5;opacity:1.0;" x1="934.987" x2="934.987" y1="1460.79" y2="1580.12"/>
  <line id="left-margin-Light-L" style="fill:none;stroke:#00AEEF;stroke-width:0.5;opacity:1.0;" x1="1073.96" x2="1073.96" y1="1460.79" y2="1580.12"/>
  <line id="right-margin-Light-L" style="fill:none;stroke:#00AEEF;stroke-width:0.5;opacity:1.0;" x1="1232.31" x2="1232.31" y1="1460.79" y2="1580.12"/>
  <line id="left-margin-Regular-L" style="fill:none;stroke:#00AEEF;stroke-width:0.5;opacity:1.0;" x1="1370.21" x2="1370.21" y1="1460.79" y2="1580.12"/>
  <line id="right-margin-Regular-L" style="fill:none;stroke:#00AEEF;stroke-width:0.5;opacity:1.0;" x1="1529.48" x2="1529.48" y1="1460.79" y2="1580.12"/>
  <line id="left-margin-Medium-L" style="fill:none;stroke:#00AEEF;stroke-width:0.5;opacity:1.0;" x1="1666.04" x2="1666.04" y1="1460.79" y2="1580.12"/>
  <line id="right-margin-Medium-L" style="fill:none;stroke:#00AEEF;stroke-width:0.5;opacity:1.0;" x1="1827.07" x2="1827.07" y1="1460.79" y2="1580.12"/>
  <line id="left-margin-Semibold-L" style="fill:none;stroke:#00AEEF;stroke-width:0.5;opacity:1.0;" x1="1962.07" x2="1962.07" y1="1460.79" y2="1580.12"/>
  <line id="right-margin-Semibold-L" style="fill:none;stroke:#00AEEF;stroke-width:0.5;opacity:1.0;" x1="2124.47" x2="2124.47" y1="1460.79" y2="1580.12"/>
  <line id="left-margin-Bold-L" style="fill:none;stroke:#00AEEF;stroke-width:0.5;opacity:1.0;" x1="2257.87" x2="2257.87" y1="1460.79" y2="1580.12"/>
  <line id="right-margin-Bold-L" style="fill:none;stroke:#00AEEF;stroke-width:0.5;opacity:1.0;" x1="2422.08" x2="2422.08" y1="1460.79" y2="1580.12"/>
  <line id="left-margin-Heavy-L" style="fill:none;stroke:#00AEEF;stroke-width:0.5;opacity:1.0;" x1="2553.29" x2="2553.29" y1="1460.79" y2="1580.12"/>
  <line id="right-margin-Heavy-L" style="fill:none;stroke:#00AEEF;stroke-width:0.5;opacity:1.0;" x1="2720.09" x2="2720.09" y1="1460.79" y2="1580.12"/>
  <line id="left-margin-Black-L" style="fill:none;stroke:#00AEEF;stroke-width:0.5;opacity:1.0;" x1="2848.83" x2="2848.83" y1="1460.79" y2="1580.12"/>
  <line id="right-margin-Black-L" style="fill:none;stroke:#00AEEF;stroke-width:0.5;opacity:1.0;" x1="3017.97" x2="3017.97" y1="1460.79" y2="1580.12"/>
 </g>
 <g id="Symbols">
  <g id="Black-L" transform="matrix(1 0 0 1 2848.83 1556)">
   <path class="multicolor-0:white hierarchical-1:primary SFSymbolsPreviewFFFFFF" d="M45.0684-3.51562L124.561-3.51562Q133.057-3.51562 140.283-6.51855Q147.51-9.52148 152.905-14.8682Q158.301-20.2148 161.304-27.3193Q164.307-34.4238 164.307-42.627Q164.307-50.9277 161.304-58.0811Q158.301-65.2344 152.905-70.6055Q147.51-75.9766 140.259-78.9551Q133.008-81.9336 124.512-81.9336Q120.85-88.9648 115.015-94.6777Q109.18-100.391 100.879-103.76Q92.5781-107.129 81.543-107.129Q71.875-107.129 63.5254-103.906Q55.1758-100.684 48.6572-94.9219Q42.1387-89.1602 37.9883-81.4941Q33.8379-73.8281 32.5684-64.9414Q26.4648-62.793 21.6553-58.6182Q16.8457-54.4434 14.0625-48.5596Q11.2793-42.6758 11.2793-35.4004Q11.2793-26.416 15.4785-19.1895Q19.6777-11.9629 27.2949-7.73926Q34.9121-3.51562 45.0684-3.51562Z"/>
   <path class="multicolor-1:systemCyanColor hierarchical-0:secondary SFSymbolsPreview55BEF0" d="M113.086 47.6074L131.201 16.3086Q132.324 14.4531 131.836 12.3535Q131.348 10.2539 129.395 9.08203Q127.441 7.95898 125.415 8.59375Q123.389 9.22852 122.266 11.2305L104.15 42.4805Q103.076 44.3359 103.516 46.4355Q103.955 48.5352 105.957 49.6582Q107.91 50.7812 109.961 50.1465Q112.012 49.5117 113.086 47.6074ZM62.8906 47.6562L81.0547 16.3086Q82.1289 14.4531 81.665 12.3535Q81.2012 10.2539 79.248 9.13086Q77.2949 7.95898 75.2686 8.59375Q73.2422 9.22852 72.1191 11.2305L54.0039 42.4805Q52.9297 44.3848 53.3691 46.46Q53.8086 48.5352 55.7617 49.707Q57.7637 50.8301 59.79 50.1709Q61.8164 49.5117 62.8906 47.6562ZM48.1445 29.7852L55.8594 16.4062Q56.9824 14.502 56.4941 12.4023Q56.0059 10.3027 54.0527 9.13086Q52.0508 8.00781 50.0732 8.64258Q48.0957 9.27734 46.875 11.2793L39.1113 24.707Q38.0371 26.5625 38.4766 28.6377Q38.916 30.7129 40.918 31.8848Q42.9199 33.0078 44.9707 32.3486Q47.0215 31.6895 48.1445 29.7852ZM98.291 29.7852L106.055 16.4062Q107.129 14.502 106.641 12.3779Q106.152 10.2539 104.199 9.13086Q102.197 8.00781 100.22 8.61816Q98.2422 9.22852 97.0703 11.2793L89.2578 24.707Q88.1836 26.5625 88.6475 28.6377Q89.1113 30.7129 91.0645 31.8359Q93.0664 32.959 95.1416 32.2998Q97.2168 31.6406 98.291 29.7852Z"/>
  </g>
  <g id="Heavy-L" transform="matrix(1 0 0 1 2553.29 1556)">
   <path class="multicolor-0:white hierarchical-1:primary SFSymbolsPreviewFFFFFF" d="M43.9453-4.10156L123.193-4.10156Q131.494-4.10156 138.55-7.03125Q145.605-9.96094 150.879-15.1611Q156.152-20.3613 159.058-27.2705Q161.963-34.1797 161.963-42.1387Q161.963-50.2441 159.009-57.1777Q156.055-64.1113 150.732-69.3115Q145.41-74.5117 138.281-77.3682Q131.152-80.2246 122.754-80.2246Q119.043-87.4512 113.159-93.1885Q107.275-98.9258 99.0967-102.271Q90.918-105.615 80.3223-105.615Q70.8496-105.615 62.6465-102.393Q54.4434-99.1699 48.0225-93.4082Q41.6016-87.6465 37.5488-79.9805Q33.4961-72.3145 32.373-63.4766Q26.3184-61.4258 21.5576-57.373Q16.7969-53.3203 14.0381-47.583Q11.2793-41.8457 11.2793-34.7168Q11.2793-26.123 15.2832-19.1895Q19.2871-12.2559 26.6602-8.17871Q34.0332-4.10156 43.9453-4.10156Z"/>
   <path class="multicolor-1:systemCyanColor hierarchical-0:secondary SFSymbolsPreview55BEF0" d="M111.426 46.1914L129.785 14.502Q130.811 12.793 130.347 10.8887Q129.883 8.98438 128.125 7.91016Q126.367 6.88477 124.512 7.44629Q122.656 8.00781 121.631 9.86328L103.32 41.5039Q102.295 43.2129 102.71 45.1172Q103.125 47.0215 104.932 48.0469Q106.738 49.0723 108.594 48.5107Q110.449 47.9492 111.426 46.1914ZM61.2793 46.2402L79.6387 14.502Q80.6152 12.793 80.2002 10.8887Q79.7852 8.98438 77.9785 7.95898Q76.2207 6.93359 74.3652 7.49512Q72.5098 8.05664 71.4844 9.86328L53.1738 41.5039Q52.1484 43.2617 52.5635 45.166Q52.9785 47.0703 54.7852 48.0957Q56.5918 49.1211 58.4229 48.5352Q60.2539 47.9492 61.2793 46.2402ZM46.5332 28.3691L54.4434 14.5996Q55.5176 12.8418 55.0537 10.9375Q54.5898 9.0332 52.832 7.95898Q50.9766 6.93359 49.1699 7.49512Q47.3633 8.05664 46.2402 9.91211L38.2812 23.7305Q37.2559 25.4395 37.6709 27.3193Q38.0859 29.1992 39.9414 30.2734Q41.748 31.2988 43.6279 30.7129Q45.5078 30.127 46.5332 28.3691ZM96.6797 28.3691L104.639 14.5996Q105.664 12.8418 105.2 10.9131Q104.736 8.98438 102.979 7.95898Q101.123 6.93359 99.3164 7.4707Q97.5098 8.00781 96.4355 9.91211L88.4277 23.7305Q87.4023 25.4395 87.8418 27.3193Q88.2812 29.1992 90.0879 30.2246Q91.8945 31.25 93.7988 30.6641Q95.7031 30.0781 96.6797 28.3691Z"/>
  </g>
  <g id="Bold-L" transform="matrix(1 0 0 1 2257.87 1556)">
   <path class="multicolor-0:white hierarchical-1:primary SFSymbolsPreviewFFFFFF" d="M42.7246-4.78516L121.68-4.78516Q129.736-4.78516 136.621-7.61719Q143.506-10.4492 148.608-15.5029Q153.711-20.5566 156.543-27.2461Q159.375-33.9355 159.375-41.6016Q159.375-49.4629 156.47-56.1523Q153.564-62.8418 148.315-67.8467Q143.066-72.8516 136.06-75.6104Q129.053-78.3691 120.85-78.3691Q117.041-85.791 111.108-91.5527Q105.176-97.3145 97.1436-100.61Q89.1113-103.906 79.0039-103.906Q69.7754-103.906 61.7188-100.684Q53.6621-97.4609 47.3633-91.6992Q41.0645-85.9375 37.1094-78.2959Q33.1543-70.6543 32.1289-61.8164Q26.1719-59.9121 21.46-56.0059Q16.748-52.0996 14.0137-46.4844Q11.2793-40.8691 11.2793-33.9355Q11.2793-25.7812 15.0879-19.165Q18.8965-12.5488 25.9766-8.66699Q33.0566-4.78516 42.7246-4.78516Z"/>
   <path class="multicolor-1:systemCyanColor hierarchical-0:secondary SFSymbolsPreview55BEF0" d="M109.619 44.6289L128.174 12.5Q129.15 10.9375 128.735 9.25293Q128.32 7.56836 126.758 6.64062Q125.195 5.71289 123.511 6.20117Q121.826 6.68945 120.898 8.34961L102.393 40.3809Q101.465 41.9922 101.855 43.6768Q102.246 45.3613 103.857 46.2891Q105.42 47.2168 107.08 46.7285Q108.74 46.2402 109.619 44.6289ZM59.4727 44.6777L78.0762 12.5488Q78.9551 10.9863 78.5645 9.30176Q78.1738 7.61719 76.6113 6.68945Q75.0488 5.76172 73.3643 6.25Q71.6797 6.73828 70.752 8.34961L52.2461 40.4297Q51.3184 42.041 51.709 43.7256Q52.0996 45.4102 53.6621 46.3379Q55.2734 47.2656 56.9092 46.7529Q58.5449 46.2402 59.4727 44.6777ZM44.7266 26.8066L52.9297 12.6465Q53.8574 11.0352 53.4424 9.32617Q53.0273 7.61719 51.416 6.68945Q49.8047 5.76172 48.1689 6.25Q46.5332 6.73828 45.5566 8.39844L37.3535 22.6562Q36.4258 24.1699 36.8164 25.8545Q37.207 27.5391 38.8184 28.5156Q40.4297 29.3945 42.1143 28.8818Q43.7988 28.3691 44.7266 26.8066ZM94.873 26.7578L103.076 12.5977Q104.004 10.9863 103.589 9.27734Q103.174 7.56836 101.562 6.64062Q99.9512 5.71289 98.3154 6.20117Q96.6797 6.68945 95.7031 8.39844L87.4512 22.6074Q86.5723 24.1699 86.9629 25.8545Q87.3535 27.5391 88.9648 28.4668Q90.5762 29.3457 92.2852 28.833Q93.9941 28.3203 94.873 26.7578Z"/>
  </g>
  <g id="Semibold-L" transform="matrix(1 0 0 1 1962.07 1556)">
   <path class="multicolor-0:white hierarchical-1:primary SFSymbolsPreviewFFFFFF" d="M41.8457-5.22461L120.654-5.22461Q128.516-5.22461 135.254-7.9834Q141.992-10.7422 147.021-15.6982Q152.051-20.6543 154.81-27.1973Q157.568-33.7402 157.568-41.2109Q157.568-48.877 154.688-55.4199Q151.807-61.9629 146.631-66.8213Q141.455-71.6797 134.521-74.3652Q127.588-77.0508 119.482-77.0508Q115.625-84.6191 109.668-90.4053Q103.711-96.1914 95.7764-99.4385Q87.8418-102.686 78.0273-102.686Q68.9941-102.686 61.0352-99.4629Q53.0762-96.2402 46.8506-90.4785Q40.625-84.7168 36.7432-77.0996Q32.8613-69.4824 31.9336-60.6445Q26.0742-58.8867 21.3867-55.0537Q16.6992-51.2207 13.9893-45.7275Q11.2793-40.2344 11.2793-33.3496Q11.2793-25.5371 14.9414-19.1406Q18.6035-12.7441 25.4639-8.98438Q32.3242-5.22461 41.8457-5.22461Z"/>
   <path class="multicolor-1:systemCyanColor hierarchical-0:secondary SFSymbolsPreview55BEF0" d="M108.35 43.5547L127.051 11.1328Q127.979 9.66797 127.588 8.12988Q127.197 6.5918 125.781 5.71289Q124.365 4.88281 122.803 5.32227Q121.24 5.76172 120.361 7.27539L101.709 39.5996Q100.879 41.1133 101.245 42.6514Q101.611 44.1895 103.076 45.0684Q104.492 45.8984 106.006 45.459Q107.52 45.0195 108.35 43.5547ZM58.2031 43.6035L76.9531 11.1328Q77.7832 9.66797 77.417 8.1543Q77.0508 6.64062 75.6348 5.76172Q74.2188 4.93164 72.6562 5.37109Q71.0938 5.81055 70.2637 7.32422L51.5625 39.6484Q50.7324 41.1621 51.0986 42.7002Q51.4648 44.2383 52.8809 45.1172Q54.3457 45.9473 55.8594 45.5078Q57.373 45.0684 58.2031 43.6035ZM43.5059 25.6836L51.8066 11.2305Q52.7344 9.7168 52.3193 8.17871Q51.9043 6.64062 50.4395 5.76172Q48.9746 4.93164 47.4609 5.37109Q45.9473 5.81055 45.0195 7.37305L36.6699 21.875Q35.8398 23.291 36.2061 24.8291Q36.5723 26.3672 38.0371 27.2461Q39.502 28.0762 41.0645 27.6123Q42.627 27.1484 43.5059 25.6836ZM93.6035 25.6348L101.953 11.2305Q102.832 9.7168 102.441 8.1543Q102.051 6.5918 100.586 5.71289Q99.1211 4.88281 97.6074 5.32227Q96.0938 5.76172 95.2148 7.32422L86.8164 21.8262Q85.9863 23.2422 86.3525 24.8047Q86.7188 26.3672 88.1836 27.1973Q89.6484 28.0273 91.2109 27.5635Q92.7734 27.0996 93.6035 25.6348Z"/>
  </g>
  <g id="Medium-L" transform="matrix(1 0 0 1 1666.04 1556)">
   <path class="multicolor-0:white hierarchical-1:primary SFSymbolsPreviewFFFFFF" d="M41.1621-5.56641L119.824-5.56641Q127.588-5.56641 134.253-8.27637Q140.918-10.9863 145.85-15.8691Q150.781-20.752 153.491-27.1729Q156.201-33.5938 156.201-40.9668Q156.201-48.4863 153.345-54.9072Q150.488-61.3281 145.361-66.0645Q140.234-70.8008 133.35-73.4131Q126.465-76.0254 118.457-76.0254Q114.551-83.7402 108.594-89.5508Q102.637-95.3613 94.7754-98.584Q86.9141-101.807 77.3438-101.807Q68.4082-101.807 60.5225-98.584Q52.6367-95.3613 46.4844-89.5996Q40.332-83.8379 36.499-76.2207Q32.666-68.6035 31.7871-59.7656Q25.9766-58.0566 21.3379-54.2969Q16.6992-50.5371 13.9893-45.1172Q11.2793-39.6973 11.2793-32.959Q11.2793-25.3906 14.8438-19.165Q18.4082-12.9395 25.1221-9.25293Q31.8359-5.56641 41.1621-5.56641Z"/>
   <path class="multicolor-1:systemCyanColor hierarchical-0:secondary SFSymbolsPreview55BEF0" d="M107.422 42.7246L126.221 10.0586Q127.1 8.69141 126.709 7.27539Q126.318 5.85938 125.049 5.0293Q123.73 4.29688 122.29 4.6875Q120.85 5.07812 119.971 6.44531L101.221 39.0137Q100.439 40.4297 100.781 41.8701Q101.123 43.3105 102.49 44.1406Q103.809 44.873 105.2 44.4824Q106.592 44.0918 107.422 42.7246ZM57.2266 42.7734L76.123 10.1074Q76.9043 8.74023 76.5625 7.32422Q76.2207 5.9082 74.9023 5.07812Q73.584 4.29688 72.1436 4.71191Q70.7031 5.12695 69.873 6.49414L51.0742 39.0625Q50.293 40.4785 50.6348 41.9189Q50.9766 43.3594 52.2949 44.1895Q53.6621 44.9219 55.0537 44.5312Q56.4453 44.1406 57.2266 42.7734ZM42.5293 24.8535L51.0254 10.2051Q51.8555 8.78906 51.4648 7.34863Q51.0742 5.9082 49.707 5.07812Q48.3887 4.29688 46.9727 4.71191Q45.5566 5.12695 44.6777 6.54297L36.1816 21.2891Q35.4004 22.6562 35.7422 24.0723Q36.084 25.4883 37.4512 26.3184Q38.8184 27.0996 40.2832 26.6602Q41.748 26.2207 42.5293 24.8535ZM92.627 24.8047L101.123 10.1562Q101.953 8.74023 101.587 7.2998Q101.221 5.85938 99.8535 5.0293Q98.4863 4.24805 97.0947 4.66309Q95.7031 5.07812 94.8242 6.49414L86.2793 21.2402Q85.5469 22.6074 85.8887 24.0479Q86.2305 25.4883 87.5977 26.2695Q88.9648 27.0508 90.4297 26.6113Q91.8945 26.1719 92.627 24.8047Z"/>
  </g>
  <g id="Regular-L" transform="matrix(1 0 0 1 1370.21 1556)">
   <path class="multicolor-0:white hierarchical-1:primary SFSymbolsPreviewFFFFFF" d="M40.332-6.00586L118.799-6.00586Q126.416-6.00586 132.935-8.66699Q139.453-11.3281 144.287-16.0889Q149.121-20.8496 151.782-27.124Q154.443-33.3984 154.443-40.5762Q154.443-47.9492 151.611-54.1992Q148.779-60.4492 143.701-65.0635Q138.623-69.6777 131.836-72.2168Q125.049-74.7559 117.139-74.7559Q113.184-82.6172 107.178-88.4277Q101.172-94.2383 93.4082-97.4365Q85.6445-100.635 76.416-100.635Q67.627-100.635 59.8633-97.4121Q52.0996-94.1895 46.0205-88.4277Q39.9414-82.666 36.1816-75.0488Q32.4219-67.4316 31.6406-58.6426Q25.8789-57.0312 21.2646-53.3691Q16.6504-49.707 13.9648-44.3848Q11.2793-39.0625 11.2793-32.4219Q11.2793-25.1465 14.6973-19.1406Q18.1152-13.1348 24.6338-9.57031Q31.1523-6.00586 40.332-6.00586Z"/>
   <path class="multicolor-1:systemCyanColor hierarchical-0:secondary SFSymbolsPreview55BEF0" d="M106.152 41.6504L125.146 8.69141Q125.928 7.42188 125.586 6.15234Q125.244 4.88281 124.072 4.15039Q122.9 3.4668 121.582 3.80859Q120.264 4.15039 119.482 5.41992L100.586 38.2812Q99.8535 39.5996 100.171 40.8936Q100.488 42.1875 101.709 42.9199Q102.93 43.6035 104.175 43.2617Q105.42 42.9199 106.152 41.6504ZM56.0059 41.6992L75.0488 8.74023Q75.7812 7.4707 75.4639 6.20117Q75.1465 4.93164 73.9258 4.19922Q72.7539 3.51562 71.4355 3.85742Q70.1172 4.19922 69.3848 5.46875L50.4395 38.3301Q49.707 39.6484 50.0244 40.9424Q50.3418 42.2363 51.5625 42.9688Q52.7832 43.6523 54.0283 43.3105Q55.2734 42.9688 56.0059 41.6992ZM41.3086 23.7793L49.9512 8.83789Q50.7324 7.51953 50.3662 6.22559Q50 4.93164 48.7793 4.19922Q47.5586 3.4668 46.2646 3.83301Q44.9707 4.19922 44.1895 5.51758L35.5469 20.5566Q34.8145 21.7773 35.1318 23.0713Q35.4492 24.3652 36.7188 25.0977Q37.9395 25.7812 39.2578 25.415Q40.5762 25.0488 41.3086 23.7793ZM91.4062 23.7305L100.049 8.78906Q100.83 7.4707 100.488 6.17676Q100.146 4.88281 98.9258 4.15039Q97.6562 3.41797 96.3867 3.78418Q95.1172 4.15039 94.3359 5.46875L85.6445 20.5078Q84.9609 21.7285 85.2783 23.0225Q85.5957 24.3164 86.8652 25.0488Q88.0859 25.7324 89.4043 25.3662Q90.7227 25 91.4062 23.7305Z"/>
  </g>
  <g id="Light-L" transform="matrix(1 0 0 1 1073.96 1556)">
   <path class="multicolor-0:white hierarchical-1:primary SFSymbolsPreviewFFFFFF" d="M39.5996-6.78711L118.457-6.78711Q125.879-6.78711 132.3-9.39941Q138.721-12.0117 143.481-16.6748Q148.242-21.3379 150.879-27.4902Q153.516-33.6426 153.516-40.6738Q153.516-47.8516 150.732-53.9795Q147.949-60.1074 142.944-64.624Q137.939-69.1406 131.25-71.6064Q124.561-74.0723 116.748-74.0723Q112.793-82.0801 106.885-87.9639Q100.977-93.8477 93.2129-97.0947Q85.4492-100.342 76.0742-100.342Q67.3828-100.342 59.7412-97.1191Q52.0996-93.8965 46.1426-88.1348Q40.1855-82.373 36.4746-74.7559Q32.7637-67.1387 32.0312-58.3496Q26.2207-56.7871 21.5088-53.1982Q16.7969-49.6094 14.0381-44.3604Q11.2793-39.1113 11.2793-32.5195Q11.2793-25.4395 14.624-19.6045Q17.9688-13.7695 24.3164-10.2783Q30.6641-6.78711 39.5996-6.78711Z"/>
   <path class="multicolor-1:systemCyanColor hierarchical-0:secondary SFSymbolsPreview55BEF0" d="M104.541 41.1621L124.121 7.27539Q124.805 6.20117 124.536 5.17578Q124.268 4.15039 123.291 3.56445Q122.363 2.97852 121.313 3.27148Q120.264 3.56445 119.58 4.6875L100.098 38.5254Q99.4629 39.6484 99.707 40.6738Q99.9512 41.6992 100.928 42.334Q101.953 42.8711 102.954 42.5781Q103.955 42.2852 104.541 41.1621ZM54.3945 41.2109L73.9746 7.32422Q74.6094 6.25 74.3652 5.2002Q74.1211 4.15039 73.1445 3.56445Q72.2168 3.02734 71.1426 3.32031Q70.0684 3.61328 69.4336 4.6875L49.9023 38.5254Q49.3164 39.6484 49.5605 40.6982Q49.8047 41.748 50.7812 42.334Q51.7578 42.9199 52.7588 42.6025Q53.7598 42.2852 54.3945 41.2109ZM39.5996 23.3398L48.8281 7.42188Q49.5117 6.29883 49.2188 5.24902Q48.9258 4.19922 47.9492 3.61328Q46.9727 3.02734 45.9473 3.34473Q44.9219 3.66211 44.2383 4.78516L35.0098 20.752Q34.375 21.8262 34.6191 22.876Q34.8633 23.9258 35.8887 24.5117Q36.8652 25.0488 37.915 24.7559Q38.9648 24.4629 39.5996 23.3398ZM89.7461 23.3398L98.9746 7.37305Q99.6582 6.25 99.3896 5.2002Q99.1211 4.15039 98.0957 3.56445Q97.1191 2.97852 96.0938 3.2959Q95.0684 3.61328 94.3848 4.73633L85.1074 20.752Q84.5703 21.7773 84.8145 22.8271Q85.0586 23.877 86.0352 24.4629Q87.0605 25.0488 88.1104 24.7314Q89.1602 24.4141 89.7461 23.3398Z"/>
  </g>
  <g id="Thin-L" transform="matrix(1 0 0 1 777.858 1556)">
   <path class="multicolor-0:white hierarchical-1:primary SFSymbolsPreviewFFFFFF" d="M38.623-7.86133L117.969-7.86133Q125.195-7.86133 131.47-10.4004Q137.744-12.9395 142.407-17.4561Q147.07-21.9727 149.683-27.9541Q152.295-33.9355 152.295-40.7715Q152.295-47.7539 149.561-53.6865Q146.826-59.6191 141.919-63.9893Q137.012-68.3594 130.444-70.7764Q123.877-73.1934 116.26-73.1934Q112.305-81.3477 106.494-87.3535Q100.684-93.3594 92.9443-96.6553Q85.2051-99.9512 75.5859-99.9512Q67.0898-99.9512 59.6191-96.7285Q52.1484-93.5059 46.3135-87.7441Q40.4785-81.9824 36.8652-74.3652Q33.252-66.748 32.5195-57.959Q26.6113-56.4453 21.7773-52.9541Q16.9434-49.4629 14.1113-44.3115Q11.2793-39.1602 11.2793-32.6172Q11.2793-25.8301 14.502-20.2148Q17.7246-14.5996 23.8525-11.2305Q29.9805-7.86133 38.623-7.86133Z"/>
   <path class="multicolor-1:systemCyanColor hierarchical-0:secondary SFSymbolsPreview55BEF0" d="M102.441 40.5762L122.754 5.41992Q123.291 4.58984 123.12 3.88184Q122.949 3.17383 122.266 2.73438Q121.631 2.39258 120.923 2.6123Q120.215 2.83203 119.678 3.66211L99.4141 38.8184Q98.9258 39.6484 99.0723 40.3809Q99.2188 41.1133 99.9023 41.5039Q100.586 41.8945 101.27 41.6504Q101.953 41.4062 102.441 40.5762ZM52.2949 40.5762L72.6074 5.41992Q73.0957 4.58984 72.9492 3.85742Q72.8027 3.125 72.1191 2.73438Q71.4355 2.39258 70.752 2.6123Q70.0684 2.83203 69.5312 3.66211L49.2676 38.8184Q48.7793 39.6484 48.9014 40.3809Q49.0234 41.1133 49.7559 41.5039Q50.4395 41.9434 51.123 41.6748Q51.8066 41.4062 52.2949 40.5762ZM37.3535 22.8027L47.3633 5.51758Q47.9004 4.6875 47.7295 3.95508Q47.5586 3.22266 46.8262 2.83203Q46.2402 2.44141 45.5322 2.66113Q44.8242 2.88086 44.2871 3.75977L34.2773 21.0449Q33.8379 21.875 33.9844 22.583Q34.1309 23.291 34.7656 23.7305Q35.498 24.1211 36.1816 23.877Q36.8652 23.6328 37.3535 22.8027ZM87.5 22.8027L97.5098 5.51758Q98.0469 4.63867 97.876 3.93066Q97.7051 3.22266 97.0215 2.83203Q96.3867 2.44141 95.6787 2.66113Q94.9707 2.88086 94.4824 3.75977L84.4727 21.0449Q84.0332 21.875 84.1553 22.583Q84.2773 23.291 84.9609 23.7305Q85.6445 24.1211 86.3525 23.877Q87.0605 23.6328 87.5 22.8027Z"/>
  </g>
  <g id="Ultralight-L" transform="matrix(1 0 0 1 481.464 1556)">
   <path class="multicolor-0:white hierarchical-1:primary SFSymbolsPreviewFFFFFF" d="M38.0859-8.39844L117.725-8.39844Q124.805-8.39844 131.006-10.9131Q137.207-13.4277 141.846-17.8711Q146.484-22.3145 149.072-28.1982Q151.66-34.082 151.66-40.8691Q151.66-47.7051 148.975-53.54Q146.289-59.375 141.406-63.6963Q136.523-68.0176 130.029-70.3857Q123.535-72.7539 116.016-72.7539Q112.061-81.0059 106.299-87.0605Q100.537-93.1152 92.8223-96.4355Q85.1074-99.7559 75.3418-99.7559Q66.9434-99.7559 59.5459-96.5088Q52.1484-93.2617 46.3867-87.5244Q40.625-81.7871 37.0605-74.1699Q33.4961-66.5527 32.7637-57.7637Q26.8555-56.25 21.9482-52.8076Q17.041-49.3652 14.1602-44.2871Q11.2793-39.209 11.2793-32.666Q11.2793-26.0742 14.4531-20.5566Q17.627-15.0391 23.6328-11.7188Q29.6387-8.39844 38.0859-8.39844Z"/>
   <path class="multicolor-1:systemCyanColor hierarchical-0:secondary SFSymbolsPreview55BEF0" d="M101.367 40.2344L122.07 4.49219Q122.51 3.75977 122.412 3.19824Q122.314 2.63672 121.777 2.34375Q121.289 2.05078 120.752 2.24609Q120.215 2.44141 119.775 3.17383L99.0723 38.9648Q98.6816 39.6973 98.7793 40.2344Q98.877 40.7715 99.4141 41.1133Q99.9512 41.4062 100.464 41.1865Q100.977 40.9668 101.367 40.2344ZM51.1719 40.2344L71.875 4.49219Q72.3145 3.75977 72.2168 3.19824Q72.1191 2.63672 71.582 2.34375Q71.0938 2.05078 70.5566 2.24609Q70.0195 2.44141 69.5801 3.17383L48.877 38.9648Q48.4863 39.6484 48.584 40.21Q48.6816 40.7715 49.2188 41.1133Q49.7559 41.4062 50.2686 41.1865Q50.7812 40.9668 51.1719 40.2344ZM36.1816 22.5098L46.582 4.58984Q47.0703 3.85742 46.9482 3.2959Q46.8262 2.73438 46.2891 2.44141Q45.8496 2.14844 45.3125 2.34375Q44.7754 2.53906 44.3359 3.27148L33.9355 21.1914Q33.5449 21.9238 33.6426 22.4609Q33.7402 22.998 34.2285 23.3398Q34.7656 23.6328 35.2783 23.4375Q35.791 23.2422 36.1816 22.5098ZM86.377 22.5098L96.7773 4.58984Q97.2656 3.85742 97.1436 3.2959Q97.0215 2.73438 96.4844 2.44141Q96.0449 2.14844 95.4834 2.34375Q94.9219 2.53906 94.5312 3.22266L84.082 21.1914Q83.7402 21.9238 83.8379 22.4609Q83.9355 22.998 84.4238 23.3398Q84.9609 23.6328 85.4736 23.4375Q85.9863 23.2422 86.377 22.5098Z"/>
  </g>
  <g id="Black-M" transform="matrix(1 0 0 1 2867.02 1126)">
   <path class="multicolor-0:white hierarchical-1:primary SFSymbolsPreviewFFFFFF" d="M35.6445-10.4492L97.5586-10.4492Q104.248-10.4492 109.985-12.8174Q115.723-15.1855 119.995-19.4092Q124.268-23.6328 126.636-29.2725Q129.004-34.9121 129.004-41.4062Q129.004-47.998 126.66-53.6621Q124.316-59.3262 120.093-63.5986Q115.869-67.8711 110.205-70.2637Q104.541-72.6562 97.8516-72.6562Q95.1172-77.9785 90.625-82.3975Q86.1328-86.8164 79.6143-89.502Q73.0957-92.1875 64.1113-92.1875Q56.4941-92.1875 49.9512-89.6729Q43.4082-87.1582 38.3057-82.6904Q33.2031-78.2227 29.9072-72.2656Q26.6113-66.3086 25.5371-59.4238Q20.752-57.666 16.9434-54.3701Q13.1348-51.0742 10.9375-46.4111Q8.74023-41.748 8.74023-35.9863Q8.74023-28.7598 12.1338-22.9736Q15.5273-17.1875 21.582-13.8184Q27.6367-10.4492 35.6445-10.4492Z"/>
   <path class="multicolor-1:systemCyanColor hierarchical-0:secondary SFSymbolsPreview55BEF0" d="M88.4766 30.0293L102.588 5.76172Q103.467 4.24805 103.076 2.53906Q102.686 0.830078 101.123-0.0976562Q99.5117-1.02539 97.876-0.488281Q96.2402 0.0488281 95.3613 1.66016L81.25 25.9277Q80.4199 27.4414 80.7617 29.126Q81.1035 30.8105 82.7148 31.7383Q84.2773 32.6172 85.9375 32.0801Q87.5977 31.543 88.4766 30.0293ZM49.6094 30.0293L63.6719 5.76172Q64.5508 4.24805 64.1846 2.53906Q63.8184 0.830078 62.207-0.0976562Q60.5957-1.02539 58.9844-0.488281Q57.373 0.0488281 56.4453 1.66016L42.3828 25.9277Q41.5039 27.4414 41.8457 29.126Q42.1875 30.8105 43.7988 31.7383Q45.4102 32.666 47.0703 32.1045Q48.7305 31.543 49.6094 30.0293ZM38.0859 16.2598L44.1406 5.85938Q45.0195 4.3457 44.6289 2.6123Q44.2383 0.878906 42.6758-0.0488281Q41.0645-0.927734 39.4531-0.415039Q37.8418 0.0976562 36.9141 1.70898L30.8594 12.1582Q29.9805 13.6719 30.3223 15.3564Q30.6641 17.041 32.2754 17.9199Q33.8867 18.8477 35.5469 18.3105Q37.207 17.7734 38.0859 16.2598ZM77.002 16.2109L83.0078 5.85938Q83.8867 4.29688 83.5205 2.58789Q83.1543 0.878906 81.543-0.0488281Q79.9316-0.976562 78.3447-0.439453Q76.7578 0.0976562 75.7812 1.70898L69.7266 12.1094Q68.8477 13.623 69.2139 15.332Q69.5801 17.041 71.1426 17.9199Q72.7539 18.8477 74.4385 18.2861Q76.123 17.7246 77.002 16.2109Z"/>
  </g>
  <g id="Heavy-M" transform="matrix(1 0 0 1 2571.33 1126)">
   <path class="multicolor-0:white hierarchical-1:primary SFSymbolsPreviewFFFFFF" d="M34.7168-10.8398L96.3379-10.8398Q102.832-10.8398 108.423-13.1348Q114.014-15.4297 118.164-19.5557Q122.314-23.6816 124.634-29.1504Q126.953-34.6191 126.953-40.918Q126.953-47.3145 124.634-52.8076Q122.314-58.3008 118.14-62.4268Q113.965-66.5527 108.374-68.8477Q102.783-71.1426 96.2402-71.1426Q93.4082-76.6113 88.8672-81.0547Q84.3262-85.498 77.9297-88.1104Q71.5332-90.7227 62.9883-90.7227Q55.5664-90.7227 49.1211-88.208Q42.6758-85.6934 37.6465-81.25Q32.6172-76.8066 29.4189-70.8496Q26.2207-64.8926 25.2441-58.0566Q20.5566-56.3965 16.8213-53.1982Q13.0859-50 10.9131-45.459Q8.74023-40.918 8.74023-35.3027Q8.74023-28.418 11.9629-22.876Q15.1855-17.334 21.0205-14.0869Q26.8555-10.8398 34.7168-10.8398Z"/>
   <path class="multicolor-1:systemCyanColor hierarchical-0:secondary SFSymbolsPreview55BEF0" d="M87.207 28.7598L101.416 4.29688Q102.246 2.88086 101.88 1.31836Q101.514-0.244141 100.049-1.12305Q98.584-1.95312 97.0459-1.46484Q95.5078-0.976562 94.7266 0.488281L80.5176 24.9023Q79.7363 26.3184 80.0781 27.8809Q80.4199 29.4434 81.8848 30.3223Q83.3496 31.1035 84.8633 30.6396Q86.377 30.1758 87.207 28.7598ZM48.3887 28.7598L62.5 4.29688Q63.3301 2.92969 62.9883 1.34277Q62.6465-0.244141 61.1816-1.07422Q59.668-1.95312 58.1543-1.46484Q56.6406-0.976562 55.8105 0.488281L41.6992 24.9023Q40.8691 26.3672 41.1865 27.9053Q41.5039 29.4434 43.0176 30.3223Q44.4824 31.1523 46.0205 30.6641Q47.5586 30.1758 48.3887 28.7598ZM36.8652 14.9414L43.0176 4.39453Q43.8477 2.97852 43.457 1.3916Q43.0664-0.195312 41.6504-1.07422Q40.1367-1.9043 38.6475-1.41602Q37.1582-0.927734 36.2793 0.537109L30.127 11.1328Q29.3457 12.5488 29.6631 14.1113Q29.9805 15.6738 31.4941 16.5039Q32.959 17.334 34.5215 16.8457Q36.084 16.3574 36.8652 14.9414ZM75.7812 14.8926L81.8848 4.39453Q82.7148 2.92969 82.3486 1.36719Q81.9824-0.195312 80.5176-1.07422Q79.0039-1.95312 77.5146-1.46484Q76.0254-0.976562 75.1465 0.537109L68.9941 11.084Q68.2129 12.5 68.5547 14.0869Q68.8965 15.6738 70.3613 16.4551Q71.8262 17.334 73.3887 16.8213Q74.9512 16.3086 75.7812 14.8926Z"/>
  </g>
  <g id="Bold-M" transform="matrix(1 0 0 1 2275.79 1126)">
   <path class="multicolor-0:white hierarchical-1:primary SFSymbolsPreviewFFFFFF" d="M33.6914-11.2793L94.9219-11.2793Q101.27-11.2793 106.689-13.5254Q112.109-15.7715 116.138-19.751Q120.166-23.7305 122.388-29.0283Q124.609-34.3262 124.609-40.3809Q124.609-46.582 122.339-51.8799Q120.068-57.1777 115.967-61.1328Q111.865-65.0879 106.372-67.2852Q100.879-69.4824 94.4336-69.4824Q91.5527-75.1465 86.9385-79.5898Q82.3242-84.0332 76.0742-86.5967Q69.8242-89.1602 61.7676-89.1602Q54.541-89.1602 48.2178-86.6455Q41.8945-84.1309 36.9629-79.6631Q32.0312-75.1953 28.9062-69.2627Q25.7812-63.3301 24.9512-56.4941Q20.3125-54.9805 16.6504-51.8799Q12.9883-48.7793 10.8643-44.3848Q8.74023-39.9902 8.74023-34.5215Q8.74023-28.0273 11.792-22.7539Q14.8438-17.4805 20.4346-14.3799Q26.0254-11.2793 33.6914-11.2793Z"/>
   <path class="multicolor-1:systemCyanColor hierarchical-0:secondary SFSymbolsPreview55BEF0" d="M85.8398 27.3438L100.098 2.68555Q100.879 1.41602 100.537-0.0244141Q100.195-1.46484 98.877-2.24609Q97.5586-3.02734 96.1426-2.6123Q94.7266-2.19727 93.9941-0.830078L79.7363 23.7793Q79.0039 25.0977 79.3213 26.5137Q79.6387 27.9297 81.0059 28.7109Q82.3242 29.4434 83.6914 29.0283Q85.0586 28.6133 85.8398 27.3438ZM46.9727 27.3438L61.2305 2.73438Q61.9629 1.41602 61.6455 0Q61.3281-1.41602 60.0098-2.19727Q58.6426-2.97852 57.251-2.56348Q55.8594-2.14844 55.0781-0.78125L40.918 23.8281Q40.1367 25.1465 40.4541 26.5625Q40.7715 27.9785 42.1387 28.7598Q43.457 29.4922 44.8486 29.0771Q46.2402 28.6621 46.9727 27.3438ZM35.5469 13.5254L41.748 2.7832Q42.5293 1.46484 42.1631 0.0244141Q41.7969-1.41602 40.4785-2.19727Q39.1113-2.97852 37.7441-2.56348Q36.377-2.14844 35.5957-0.78125L29.3457 10.0586Q28.6133 11.3281 28.9307 12.7441Q29.248 14.1602 30.6152 14.8926Q31.9824 15.6738 33.3984 15.2344Q34.8145 14.7949 35.5469 13.5254ZM74.4141 13.4766L80.6152 2.7832Q81.3965 1.41602 81.0547-0.0244141Q80.7129-1.46484 79.3457-2.24609Q77.9785-3.02734 76.6113-2.58789Q75.2441-2.14844 74.4629-0.78125L68.2129 10.0098Q67.4805 11.2793 67.7979 12.6953Q68.1152 14.1113 69.4824 14.8926Q70.8008 15.625 72.2412 15.1855Q73.6816 14.7461 74.4141 13.4766Z"/>
  </g>
  <g id="Semibold-M" transform="matrix(1 0 0 1 1979.89 1126)">
   <path class="multicolor-0:white hierarchical-1:primary SFSymbolsPreviewFFFFFF" d="M32.959-11.5723L93.9453-11.5723Q100.195-11.5723 105.493-13.7695Q110.791-15.9668 114.722-19.8486Q118.652-23.7305 120.825-28.9062Q122.998-34.082 122.998-39.9902Q122.998-46.0449 120.752-51.1963Q118.506-56.3477 114.429-60.2051Q110.352-64.0625 104.932-66.1865Q99.5117-68.3105 93.1641-68.3105Q90.2344-74.0723 85.5957-78.54Q80.957-83.0078 74.7803-85.5225Q68.6035-88.0371 60.9375-88.0371Q53.8086-88.0371 47.583-85.5225Q41.3574-83.0078 36.4746-78.54Q31.5918-74.0723 28.5156-68.1641Q25.4395-62.2559 24.707-55.4199Q20.166-54.0039 16.5527-50.9766Q12.9395-47.9492 10.8398-43.6279Q8.74023-39.3066 8.74023-33.9355Q8.74023-27.7344 11.6699-22.6562Q14.5996-17.5781 20.0195-14.5752Q25.4395-11.5723 32.959-11.5723Z"/>
   <path class="multicolor-1:systemCyanColor hierarchical-0:secondary SFSymbolsPreview55BEF0" d="M84.8633 26.3184L99.1699 1.5625Q99.9023 0.341797 99.585-0.952148Q99.2676-2.24609 98.0469-2.97852Q96.8262-3.71094 95.5078-3.34473Q94.1895-2.97852 93.457-1.70898L79.1992 22.998Q78.4668 24.2676 78.7842 25.5859Q79.1016 26.9043 80.3711 27.5879Q81.5918 28.2715 82.8613 27.9053Q84.1309 27.5391 84.8633 26.3184ZM45.9961 26.3672L60.3027 1.61133Q61.0352 0.390625 60.7178-0.927734Q60.4004-2.24609 59.1797-2.97852Q57.9102-3.71094 56.6162-3.32031Q55.3223-2.92969 54.5898-1.66016L40.332 23.0469Q39.6484 24.2676 39.9414 25.5859Q40.2344 26.9043 41.5039 27.6367Q42.7246 28.3203 44.0186 27.9541Q45.3125 27.5879 45.9961 26.3672ZM34.5703 12.5L40.8203 1.66016Q41.6016 0.439453 41.2598-0.90332Q40.918-2.24609 39.6973-2.97852Q38.3789-3.71094 37.1094-3.32031Q35.8398-2.92969 35.0586-1.66016L28.8086 9.27734Q28.0762 10.4492 28.3936 11.7676Q28.7109 13.0859 30.0293 13.7695Q31.25 14.502 32.5684 14.1113Q33.8867 13.7207 34.5703 12.5ZM73.4863 12.4512L79.6875 1.61133Q80.4688 0.390625 80.127-0.952148Q79.7852-2.29492 78.5156-3.02734Q77.2461-3.75977 75.9766-3.36914Q74.707-2.97852 73.9258-1.70898L67.6758 9.22852Q66.9434 10.4004 67.2607 11.7188Q67.5781 13.0371 68.8477 13.7695Q70.0684 14.4531 71.4111 14.0625Q72.7539 13.6719 73.4863 12.4512Z"/>
  </g>
  <g id="Medium-M" transform="matrix(1 0 0 1 1683.79 1126)">
   <path class="multicolor-0:white hierarchical-1:primary SFSymbolsPreviewFFFFFF" d="M32.4219-11.8164L93.2129-11.8164Q99.3652-11.8164 104.59-13.9648Q109.814-16.1133 113.672-19.9219Q117.529-23.7305 119.653-28.8086Q121.777-33.8867 121.777-39.6973Q121.777-45.6543 119.531-50.708Q117.285-55.7617 113.281-59.5215Q109.277-63.2812 103.882-65.3564Q98.4863-67.4316 92.1875-67.4316Q89.209-73.291 84.5459-77.7588Q79.8828-82.2266 73.7793-84.6924Q67.6758-87.1582 60.2539-87.1582Q53.2715-87.1582 47.0947-84.6436Q40.918-82.1289 36.084-77.6855Q31.25-73.2422 28.2227-67.334Q25.1953-61.4258 24.5117-54.6387Q20.0195-53.2715 16.4551-50.293Q12.8906-47.3145 10.8154-43.0664Q8.74023-38.8184 8.74023-33.5449Q8.74023-27.5391 11.5723-22.583Q14.4043-17.627 19.7021-14.7217Q25-11.8164 32.4219-11.8164Z"/>
   <path class="multicolor-1:systemCyanColor hierarchical-0:secondary SFSymbolsPreview55BEF0" d="M84.1309 25.5859L98.4863 0.732422Q99.1699-0.439453 98.877-1.66016Q98.584-2.88086 97.4121-3.56445Q96.2891-4.24805 95.0195-3.93066Q93.75-3.61328 93.0664-2.39258L78.7598 22.4121Q78.0762 23.584 78.3936 24.8291Q78.7109 26.0742 79.8828 26.7578Q81.0547 27.3926 82.251 27.0752Q83.4473 26.7578 84.1309 25.5859ZM45.2637 25.6348L59.6191 0.732422Q60.3027-0.390625 60.0098-1.61133Q59.7168-2.83203 58.5449-3.56445Q57.373-4.24805 56.1279-3.90625Q54.8828-3.56445 54.1992-2.34375L39.9414 22.4609Q39.2578 23.6328 39.5508 24.8779Q39.8438 26.123 41.0156 26.8066Q42.1875 27.4414 43.4082 27.0996Q44.6289 26.7578 45.2637 25.6348ZM33.8867 11.7188L40.1855 0.830078Q40.918-0.390625 40.5762-1.63574Q40.2344-2.88086 39.0625-3.56445Q37.8418-4.24805 36.6455-3.90625Q35.4492-3.56445 34.7168-2.34375L28.3691 8.69141Q27.6855 9.76562 28.0029 11.0107Q28.3203 12.2559 29.541 12.9395Q30.7129 13.623 31.9824 13.2568Q33.252 12.8906 33.8867 11.7188ZM72.7539 11.6699L79.0527 0.78125Q79.7852-0.439453 79.4434-1.68457Q79.1016-2.92969 77.8809-3.61328Q76.709-4.29688 75.4883-3.93066Q74.2676-3.56445 73.584-2.39258L67.2363 8.64258Q66.5527 9.7168 66.8701 10.9863Q67.1875 12.2559 68.3594 12.8906Q69.5312 13.5742 70.8008 13.208Q72.0703 12.8418 72.7539 11.6699Z"/>
  </g>
  <g id="Regular-M" transform="matrix(1 0 0 1 1387.86 1126)">
   <path class="multicolor-0:white hierarchical-1:primary SFSymbolsPreviewFFFFFF" d="M31.6895-12.1094L92.2852-12.1094Q98.291-12.1094 103.394-14.209Q108.496-16.3086 112.28-20.0439Q116.064-23.7793 118.14-28.7354Q120.215-33.6914 120.215-39.3066Q120.215-45.166 117.993-50.0732Q115.771-54.9805 111.792-58.6182Q107.812-62.2559 102.49-64.2578Q97.168-66.2598 90.9668-66.2598Q87.9395-72.2656 83.2275-76.7334Q78.5156-81.2012 72.5098-83.6426Q66.5039-86.084 59.4238-86.084Q52.5391-86.084 46.46-83.5693Q40.3809-81.0547 35.5957-76.6113Q30.8105-72.168 27.8564-66.2598Q24.9023-60.3516 24.3164-53.5645Q19.873-52.2949 16.3574-49.3896Q12.8418-46.4844 10.791-42.334Q8.74023-38.1836 8.74023-33.0078Q8.74023-27.2461 11.4502-22.4854Q14.1602-17.7246 19.2871-14.917Q24.4141-12.1094 31.6895-12.1094Z"/>
   <path class="multicolor-1:systemCyanColor hierarchical-0:secondary SFSymbolsPreview55BEF0" d="M83.1543 24.6094L97.6074-0.390625Q98.2422-1.46484 97.9492-2.58789Q97.6562-3.71094 96.582-4.3457Q95.5566-4.98047 94.3848-4.6875Q93.2129-4.39453 92.5781-3.27148L78.2227 21.6309Q77.5879 22.7539 77.8809 23.9014Q78.1738 25.0488 79.248 25.6836Q80.3223 26.2695 81.4209 25.9766Q82.5195 25.6836 83.1543 24.6094ZM44.3359 24.6582L58.7402-0.341797Q59.375-1.41602 59.082-2.53906Q58.7891-3.66211 57.7637-4.29688Q56.6895-4.93164 55.5176-4.63867Q54.3457-4.3457 53.7109-3.22266L39.4043 21.6797Q38.7695 22.8027 39.0625 23.9502Q39.3555 25.0977 40.4297 25.7324Q41.5039 26.3184 42.6025 26.0254Q43.7012 25.7324 44.3359 24.6582ZM32.959 10.7422L39.3066-0.292969Q39.9902-1.41602 39.6729-2.56348Q39.3555-3.71094 38.2812-4.3457Q37.1582-4.98047 36.0352-4.66309Q34.9121-4.3457 34.2285-3.22266L27.832 7.91016Q27.1973 8.93555 27.4902 10.083Q27.7832 11.2305 28.9551 11.8652Q30.0293 12.4512 31.2012 12.1338Q32.373 11.8164 32.959 10.7422ZM71.8262 10.6934L78.1738-0.341797Q78.8574-1.46484 78.54-2.6123Q78.2227-3.75977 77.0996-4.39453Q76.0254-5.0293 74.8779-4.71191Q73.7305-4.39453 73.0957-3.27148L66.6992 7.86133Q66.0645 8.88672 66.3574 10.0342Q66.6504 11.1816 67.7734 11.8164Q68.8477 12.4023 70.0195 12.085Q71.1914 11.7676 71.8262 10.6934Z"/>
  </g>
  <g id="Light-M" transform="matrix(1 0 0 1 1091.56 1126)">
   <path class="multicolor-0:white hierarchical-1:primary SFSymbolsPreviewFFFFFF" d="M31.0059-12.8418L91.9434-12.8418Q97.8027-12.8418 102.808-14.8926Q107.812-16.9434 111.548-20.5811Q115.283-24.2188 117.334-29.0527Q119.385-33.8867 119.385-39.4043Q119.385-45.0684 117.212-49.8535Q115.039-54.6387 111.108-58.2031Q107.178-61.7676 101.953-63.7207Q96.7285-65.6738 90.625-65.6738Q87.5977-71.7773 82.959-76.3184Q78.3203-80.8594 72.3389-83.3496Q66.3574-85.8398 59.082-85.8398Q52.3438-85.8398 46.3623-83.3252Q40.3809-80.8105 35.6934-76.3428Q31.0059-71.875 28.125-65.9912Q25.2441-60.1074 24.6582-53.2715Q20.166-52.0508 16.5527-49.2188Q12.9395-46.3867 10.8398-42.3096Q8.74023-38.2324 8.74023-33.0566Q8.74023-27.5391 11.377-22.9248Q14.0137-18.3105 18.9941-15.5762Q23.9746-12.8418 31.0059-12.8418Z"/>
   <path class="multicolor-1:systemCyanColor hierarchical-0:secondary SFSymbolsPreview55BEF0" d="M81.7383 24.2188L96.6797-1.66016Q97.2168-2.58789 96.9971-3.49121Q96.7773-4.39453 95.8984-4.88281Q95.0684-5.37109 94.1406-5.15137Q93.2129-4.93164 92.6758-3.95508L77.7832 21.8262Q77.2461 22.7539 77.4658 23.6816Q77.6855 24.6094 78.5645 25.1465Q79.4434 25.6348 80.3223 25.3662Q81.2012 25.0977 81.7383 24.2188ZM42.8711 24.2188L57.8125-1.61133Q58.3496-2.53906 58.1055-3.44238Q57.8613-4.3457 57.0312-4.83398Q56.2012-5.37109 55.2734-5.12695Q54.3457-4.88281 53.7598-3.90625L38.916 21.875Q38.4277 22.8027 38.6475 23.7305Q38.8672 24.6582 39.6973 25.1953Q40.5762 25.6348 41.4551 25.3906Q42.334 25.1465 42.8711 24.2188ZM31.4453 10.3516L38.3301-1.5625Q38.916-2.49023 38.6475-3.41797Q38.3789-4.3457 37.5488-4.88281Q36.6211-5.37109 35.7422-5.10254Q34.8633-4.83398 34.2773-3.90625L27.3438 8.10547Q26.8066 8.98438 27.0264 9.91211Q27.2461 10.8398 28.2227 11.3281Q29.0527 11.8164 30.0049 11.5479Q30.957 11.2793 31.4453 10.3516ZM70.3125 10.3516L77.1973-1.61133Q77.7832-2.53906 77.5391-3.4668Q77.2949-4.39453 76.3672-4.93164Q75.5371-5.41992 74.6094-5.15137Q73.6816-4.88281 73.1445-3.95508L66.2109 8.05664Q65.7227 8.93555 65.9424 9.86328Q66.1621 10.791 67.041 11.2793Q67.9199 11.7676 68.8477 11.499Q69.7754 11.2305 70.3125 10.3516Z"/>
  </g>
  <g id="Thin-M" transform="matrix(1 0 0 1 795.411 1126)">
   <path class="multicolor-0:white hierarchical-1:primary SFSymbolsPreviewFFFFFF" d="M30.127-13.8184L91.5039-13.8184Q97.2168-13.8184 102.075-15.7959Q106.934-17.7734 110.596-21.2891Q114.258-24.8047 116.284-29.4678Q118.311-34.1309 118.311-39.502Q118.311-44.9707 116.187-49.6094Q114.062-54.248 110.205-57.666Q106.348-61.084 101.245-62.9639Q96.1426-64.8438 90.1855-64.8438Q87.1582-71.0938 82.6172-75.7324Q78.0762-80.3711 72.0947-82.9346Q66.1133-85.498 58.6426-85.498Q52.0996-85.498 46.2646-82.9834Q40.4297-80.4688 35.8643-76.001Q31.2988-71.5332 28.4912-65.6494Q25.6836-59.7656 25.0977-52.9297Q20.5566-51.709 16.8457-48.999Q13.1348-46.2891 10.9375-42.2607Q8.74023-38.2324 8.74023-33.1543Q8.74023-27.8809 11.2793-23.4619Q13.8184-19.043 18.5791-16.4307Q23.3398-13.8184 30.127-13.8184Z"/>
   <path class="multicolor-1:systemCyanColor hierarchical-0:secondary SFSymbolsPreview55BEF0" d="M79.834 23.6816L95.4102-3.32031Q95.8984-4.05273 95.752-4.66309Q95.6055-5.27344 94.9707-5.61523Q94.4336-5.9082 93.7988-5.7373Q93.1641-5.56641 92.7734-4.83398L77.1973 22.0703Q76.7578 22.8027 76.9043 23.4375Q77.0508 24.0723 77.6367 24.4141Q78.2715 24.7559 78.8574 24.5605Q79.4434 24.3652 79.834 23.6816ZM40.9668 23.6328L56.543-3.27148Q56.9824-4.00391 56.8359-4.61426Q56.6895-5.22461 56.1035-5.61523Q55.5176-5.9082 54.9072-5.7373Q54.2969-5.56641 53.8574-4.83398L38.3301 22.1191Q37.9395 22.8027 38.0615 23.4375Q38.1836 24.0723 38.7695 24.4141Q39.3555 24.7559 39.9658 24.5605Q40.5762 24.3652 40.9668 23.6328ZM29.4434 9.86328L37.0117-3.22266Q37.4512-3.95508 37.3047-4.58984Q37.1582-5.22461 36.5723-5.56641Q35.9863-5.9082 35.376-5.71289Q34.7656-5.51758 34.2773-4.78516L26.709 8.34961Q26.3184 8.98438 26.4648 9.64355Q26.6113 10.3027 27.1973 10.6445Q27.832 10.9863 28.4424 10.7666Q29.0527 10.5469 29.4434 9.86328ZM68.3105 9.86328L75.8789-3.27148Q76.3184-3.95508 76.1719-4.58984Q76.0254-5.22461 75.3906-5.56641Q74.8535-5.9082 74.2432-5.71289Q73.6328-5.51758 73.1934-4.83398L65.625 8.30078Q65.2344 8.98438 65.3564 9.61914Q65.4785 10.2539 66.0645 10.6445Q66.6504 10.9375 67.2852 10.7422Q67.9199 10.5469 68.3105 9.86328Z"/>
  </g>
  <g id="Ultralight-M" transform="matrix(1 0 0 1 498.969 1126)">
   <path class="multicolor-0:white hierarchical-1:primary SFSymbolsPreviewFFFFFF" d="M29.6875-14.3066L91.3086-14.3066Q96.875-14.3066 101.685-16.2354Q106.494-18.1641 110.107-21.6309Q113.721-25.0977 115.747-29.6875Q117.773-34.2773 117.773-39.5996Q117.773-44.9219 115.649-49.4629Q113.525-54.0039 109.741-57.373Q105.957-60.7422 100.903-62.5977Q95.8496-64.4531 89.9902-64.4531Q86.9629-70.752 82.4707-75.4639Q77.9785-80.1758 71.9971-82.7393Q66.0156-85.3027 58.4473-85.3027Q51.9531-85.3027 46.1914-82.7881Q40.4297-80.2734 35.9375-75.8057Q31.4453-71.3379 28.6621-65.4541Q25.8789-59.5703 25.293-52.7344Q20.752-51.5625 16.9678-48.877Q13.1836-46.1914 10.9619-42.2363Q8.74023-38.2812 8.74023-33.2031Q8.74023-28.0762 11.2305-23.7549Q13.7207-19.4336 18.3838-16.8701Q23.0469-14.3066 29.6875-14.3066Z"/>
   <path class="multicolor-1:systemCyanColor hierarchical-0:secondary SFSymbolsPreview55BEF0" d="M78.9062 23.3887L94.7754-4.15039Q95.2148-4.78516 95.0928-5.24902Q94.9707-5.71289 94.4824-5.95703Q94.0918-6.20117 93.6279-6.0791Q93.1641-5.95703 92.8223-5.32227L76.9043 22.2168Q76.5625 22.8027 76.6357 23.291Q76.709 23.7793 77.1484 24.0723Q77.6367 24.3164 78.1006 24.1455Q78.5645 23.9746 78.9062 23.3887ZM39.9902 23.3398L55.9082-4.15039Q56.2988-4.78516 56.1768-5.24902Q56.0547-5.71289 55.6152-5.95703Q55.1758-6.20117 54.7363-6.0791Q54.2969-5.95703 53.9062-5.32227L37.9883 22.2168Q37.6953 22.8027 37.7686 23.291Q37.8418 23.7793 38.2812 24.0723Q38.7207 24.3164 39.1846 24.1455Q39.6484 23.9746 39.9902 23.3398ZM28.418 9.61914L36.377-4.10156Q36.7188-4.6875 36.5967-5.17578Q36.4746-5.66406 36.0352-5.95703Q35.5957-6.15234 35.1562-6.00586Q34.7168-5.85938 34.3262-5.27344L26.3672 8.44727Q26.0742 9.0332 26.1475 9.52148Q26.2207 10.0098 26.709 10.2539Q27.1484 10.5469 27.6123 10.376Q28.0762 10.2051 28.418 9.61914ZM67.2852 9.61914L75.2441-4.10156Q75.5859-4.6875 75.4883-5.17578Q75.3906-5.66406 74.9023-5.95703Q74.5117-6.15234 74.0479-6.00586Q73.584-5.85938 73.2422-5.27344L65.2832 8.44727Q64.9902 9.0332 65.0635 9.52148Q65.1367 10.0098 65.5762 10.2539Q66.0156 10.5469 66.5039 10.3516Q66.9922 10.1562 67.2852 9.61914Z"/>
  </g>
  <g id="Black-S" transform="matrix(1 0 0 1 2881.11 696)">
   <path class="multicolor-0:white hierarchical-1:primary SFSymbolsPreviewFFFFFF" d="M28.1738-15.7227L76.8066-15.7227Q83.8379-15.7227 89.4775-18.9697Q95.1172-22.2168 98.3887-27.7832Q101.66-33.3496 101.66-40.2344Q101.66-47.168 98.4619-52.7588Q95.2637-58.3496 89.7217-61.6699Q84.1797-64.9902 77.1484-64.9902Q75-69.0918 71.5088-72.583Q68.0176-76.0742 62.8662-78.1738Q57.7148-80.2734 50.5371-80.2734Q42.5293-80.2734 36.084-76.8555Q29.6387-73.4375 25.4639-67.627Q21.2891-61.8164 20.1172-54.5898Q14.4531-52.4902 10.6445-47.6807Q6.83594-42.8711 6.83594-36.0352Q6.83594-30.2734 9.5459-25.6836Q12.2559-21.0938 17.0654-18.4082Q21.875-15.7227 28.1738-15.7227Z"/>
   <path class="multicolor-1:systemCyanColor hierarchical-0:secondary SFSymbolsPreview55BEF0" d="M69.6289 16.2598L80.6641-2.73438Q81.3477-3.95508 81.0547-5.32227Q80.7617-6.68945 79.4922-7.42188Q78.2227-8.1543 76.9287-7.71484Q75.6348-7.27539 74.9023-6.00586L63.8672 12.9883Q63.1836 14.209 63.4521 15.5518Q63.7207 16.8945 64.9902 17.627Q66.2598 18.3594 67.6025 17.9199Q68.9453 17.4805 69.6289 16.2598ZM39.1602 16.2598L50.1953-2.73438Q50.8789-3.95508 50.5859-5.32227Q50.293-6.68945 49.0234-7.42188Q47.7539-8.1543 46.46-7.71484Q45.166-7.27539 44.4336-6.00586L33.3984 12.9883Q32.7148 14.209 32.9834 15.5518Q33.252 16.8945 34.5215 17.627Q35.791 18.3594 37.1338 17.9199Q38.4766 17.4805 39.1602 16.2598ZM30.127 5.46875L34.8633-2.68555Q35.5469-3.90625 35.2539-5.27344Q34.9609-6.64062 33.6914-7.37305Q32.4219-8.10547 31.1523-7.69043Q29.8828-7.27539 29.1016-5.95703L24.3652 2.19727Q23.6816 3.41797 23.9502 4.76074Q24.2188 6.10352 25.4883 6.83594Q26.7578 7.56836 28.1006 7.12891Q29.4434 6.68945 30.127 5.46875ZM60.5957 5.46875L65.332-2.68555Q66.0156-3.90625 65.7227-5.27344Q65.4297-6.64062 64.1602-7.37305Q62.8906-8.10547 61.6211-7.69043Q60.3516-7.27539 59.5703-5.95703L54.834 2.19727Q54.1504 3.41797 54.4189 4.76074Q54.6875 6.10352 55.957 6.83594Q57.2266 7.56836 58.5693 7.12891Q59.9121 6.68945 60.5957 5.46875Z"/>
  </g>
  <g id="Heavy-S" transform="matrix(1 0 0 1 2585.22 696)">
   <path class="multicolor-0:white hierarchical-1:primary SFSymbolsPreviewFFFFFF" d="M27.4414-15.9668L75.7812-15.9668Q82.666-15.9668 88.1592-19.1406Q93.6523-22.3145 96.8262-27.7344Q100-33.1543 100-39.7949Q100-46.5332 96.8262-51.9531Q93.6523-57.373 88.1836-60.5713Q82.7148-63.7695 75.7812-63.7695Q73.584-68.0176 70.0439-71.4844Q66.5039-74.9512 61.4502-77.002Q56.3965-79.0527 49.6582-79.0527Q41.7969-79.0527 35.4492-75.6348Q29.1016-72.2168 25-66.4307Q20.8984-60.6445 19.8242-53.418Q14.2578-51.4648 10.5469-46.7773Q6.83594-42.0898 6.83594-35.4004Q6.83594-29.9316 9.42383-25.5371Q12.0117-21.1426 16.6504-18.5547Q21.2891-15.9668 27.4414-15.9668Z"/>
   <path class="multicolor-1:systemCyanColor hierarchical-0:secondary SFSymbolsPreview55BEF0" d="M68.75 15.2344L79.7852-3.80859Q80.4199-4.98047 80.1514-6.25Q79.8828-7.51953 78.6621-8.20312Q77.4902-8.88672 76.2451-8.49609Q75-8.10547 74.3164-6.93359L63.3301 12.1094Q62.6465 13.2324 62.915 14.502Q63.1836 15.7715 64.4043 16.4551Q65.5762 17.1387 66.8457 16.748Q68.1152 16.3574 68.75 15.2344ZM38.2812 15.2344L49.3164-3.80859Q49.9512-4.98047 49.6826-6.25Q49.4141-7.51953 48.1934-8.20312Q47.0215-8.88672 45.7764-8.49609Q44.5312-8.10547 43.8477-6.88477L32.8613 12.1094Q32.2266 13.2812 32.4707 14.5508Q32.7148 15.8203 33.9355 16.5039Q35.1074 17.1875 36.377 16.7969Q37.6465 16.4062 38.2812 15.2344ZM29.2969 4.39453L34.0332-3.75977Q34.668-4.93164 34.375-6.20117Q34.082-7.4707 32.9102-8.20312Q31.6895-8.88672 30.4932-8.49609Q29.2969-8.10547 28.5645-6.88477L23.8281 1.31836Q23.1934 2.44141 23.4375 3.71094Q23.6816 4.98047 24.9023 5.66406Q26.123 6.34766 27.3682 5.95703Q28.6133 5.56641 29.2969 4.39453ZM59.7656 4.39453L64.502-3.75977Q65.1367-4.93164 64.8438-6.20117Q64.5508-7.4707 63.3789-8.20312Q62.1582-8.88672 60.9619-8.49609Q59.7656-8.10547 59.0332-6.88477L54.2969 1.31836Q53.6133 2.44141 53.8818 3.71094Q54.1504 4.98047 55.3711 5.66406Q56.543 6.34766 57.8125 5.95703Q59.082 5.56641 59.7656 4.39453Z"/>
  </g>
  <g id="Bold-S" transform="matrix(1 0 0 1 2289.44 696)">
   <path class="multicolor-0:white hierarchical-1:primary SFSymbolsPreviewFFFFFF" d="M26.6602-16.2598L74.6582-16.2598Q81.3477-16.2598 86.6699-19.3359Q91.9922-22.4121 95.0684-27.6611Q98.1445-32.9102 98.1445-39.3066Q98.1445-45.8984 95.0195-51.0986Q91.8945-56.2988 86.499-59.3506Q81.1035-62.4023 74.3164-62.4023Q72.0215-66.7969 68.4326-70.2637Q64.8438-73.7305 59.8877-75.7324Q54.9316-77.7344 48.6328-77.7344Q41.0156-77.7344 34.7412-74.3164Q28.4668-70.8984 24.4385-65.1123Q20.4102-59.3262 19.5312-52.1484Q14.1113-50.3418 10.4736-45.7764Q6.83594-41.2109 6.83594-34.7656Q6.83594-29.541 9.27734-25.3662Q11.7188-21.1914 16.1621-18.7256Q20.6055-16.2598 26.6602-16.2598Z"/>
   <path class="multicolor-1:systemCyanColor hierarchical-0:secondary SFSymbolsPreview55BEF0" d="M67.7246 14.0625L78.8086-5.0293Q79.3945-6.10352 79.126-7.27539Q78.8574-8.44727 77.7832-9.13086Q76.6602-9.76562 75.5127-9.42383Q74.3652-9.08203 73.6816-7.95898L62.6953 11.1328Q62.1094 12.207 62.3535 13.3789Q62.5977 14.5508 63.7207 15.1855Q64.8438 15.8203 65.9912 15.4785Q67.1387 15.1367 67.7246 14.0625ZM37.3047 14.1113L48.3398-5.0293Q48.9746-6.10352 48.7061-7.27539Q48.4375-8.44727 47.3145-9.08203Q46.2402-9.7168 45.0684-9.375Q43.8965-9.0332 43.2617-7.91016L32.2754 11.1328Q31.6406 12.207 31.9092 13.4033Q32.1777 14.5996 33.3008 15.2344Q34.375 15.8691 35.5225 15.5273Q36.6699 15.1855 37.3047 14.1113ZM28.3691 3.22266L33.1055-4.98047Q33.7402-6.05469 33.4473-7.25098Q33.1543-8.44727 32.0312-9.08203Q30.9082-9.7168 29.7852-9.375Q28.6621-9.0332 27.9785-7.91016L23.1934 0.341797Q22.6074 1.41602 22.876 2.58789Q23.1445 3.75977 24.2676 4.39453Q25.3906 5.0293 26.5625 4.66309Q27.7344 4.29688 28.3691 3.22266ZM58.7891 3.22266L63.5254-4.98047Q64.1602-6.10352 63.8672-7.27539Q63.5742-8.44727 62.5-9.13086Q61.3281-9.76562 60.2051-9.42383Q59.082-9.08203 58.3984-7.91016L53.6621 0.341797Q53.0762 1.36719 53.3203 2.53906Q53.5645 3.71094 54.7363 4.3457Q55.8105 4.98047 57.0068 4.63867Q58.2031 4.29688 58.7891 3.22266Z"/>
  </g>
  <g id="Semibold-S" transform="matrix(1 0 0 1 1993.39 696)">
   <path class="multicolor-0:white hierarchical-1:primary SFSymbolsPreviewFFFFFF" d="M26.123-16.4062L73.8281-16.4062Q80.4199-16.4062 85.6201-19.4336Q90.8203-22.4609 93.8232-27.5879Q96.8262-32.7148 96.8262-38.9648Q96.8262-45.4102 93.7256-50.4883Q90.625-55.5664 85.2783-58.5205Q79.9316-61.4746 73.2422-61.4746Q70.9473-65.9668 67.3096-69.4336Q63.6719-72.9004 58.7891-74.8535Q53.9062-76.8066 47.9492-76.8066Q40.4297-76.8066 34.2285-73.3887Q28.0273-69.9707 24.0479-64.1846Q20.0684-58.3984 19.2871-51.2695Q13.9648-49.5605 10.4004-45.0928Q6.83594-40.625 6.83594-34.2773Q6.83594-29.2969 9.15527-25.2441Q11.4746-21.1914 15.8203-18.7988Q20.166-16.4062 26.123-16.4062Z"/>
   <path class="multicolor-1:systemCyanColor hierarchical-0:secondary SFSymbolsPreview55BEF0" d="M67.041 13.2812L78.0762-5.85938Q78.6621-6.88477 78.418-7.9834Q78.1738-9.08203 77.1484-9.7168Q76.0742-10.3027 74.9756-10.0098Q73.877-9.7168 73.2422-8.64258L62.2559 10.4004Q61.6699 11.4258 61.9385 12.5732Q62.207 13.7207 63.2812 14.3066Q64.3066 14.8926 65.4053 14.5996Q66.5039 14.3066 67.041 13.2812ZM36.5723 13.2812L47.6562-5.81055Q48.2422-6.83594 47.9736-7.93457Q47.7051-9.0332 46.6797-9.66797Q45.6543-10.3027 44.5312-9.98535Q43.4082-9.66797 42.8223-8.59375L31.8359 10.4492Q31.25 11.4746 31.4941 12.5977Q31.7383 13.7207 32.8125 14.3066Q33.8379 14.9414 34.9365 14.624Q36.0352 14.3066 36.5723 13.2812ZM27.6855 2.39258L32.4219-5.76172Q33.0566-6.83594 32.7637-7.95898Q32.4707-9.08203 31.4453-9.7168Q30.3223-10.3027 29.248-9.98535Q28.1738-9.66797 27.5391-8.59375L22.7539-0.341797Q22.2168 0.634766 22.4609 1.75781Q22.7051 2.88086 23.8281 3.4668Q24.8535 4.05273 25.9766 3.73535Q27.0996 3.41797 27.6855 2.39258ZM58.1543 2.39258L62.8906-5.81055Q63.4766-6.88477 63.1836-7.9834Q62.8906-9.08203 61.8652-9.7168Q60.7422-10.3516 59.6924-10.0342Q58.6426-9.7168 57.959-8.64258L53.2227-0.390625Q52.6367 0.634766 52.9053 1.7334Q53.1738 2.83203 54.248 3.41797Q55.2734 4.05273 56.4209 3.71094Q57.5684 3.36914 58.1543 2.39258Z"/>
  </g>
  <g id="Medium-S" transform="matrix(1 0 0 1 1697.17 696)">
   <path class="multicolor-0:white hierarchical-1:primary SFSymbolsPreviewFFFFFF" d="M25.6836-16.5527L73.2422-16.5527Q79.7363-16.5527 84.8389-19.5557Q89.9414-22.5586 92.8955-27.5635Q95.8496-32.5684 95.8496-38.7207Q95.8496-45.0684 92.7734-50.0244Q89.6973-54.9805 84.3994-57.8613Q79.1016-60.7422 72.4609-60.7422Q70.1172-65.332 66.4551-68.7744Q62.793-72.2168 57.9834-74.1699Q53.1738-76.123 47.4121-76.123Q39.9902-76.123 33.8623-72.7051Q27.7344-69.2871 23.7793-63.501Q19.8242-57.7148 19.0918-50.5859Q13.8672-48.9746 10.3516-44.5557Q6.83594-40.1367 6.83594-33.9355Q6.83594-29.0527 9.08203-25.1221Q11.3281-21.1914 15.5518-18.8721Q19.7754-16.5527 25.6836-16.5527Z"/>
   <path class="multicolor-1:systemCyanColor hierarchical-0:secondary SFSymbolsPreview55BEF0" d="M66.5039 12.6465L77.5879-6.49414Q78.125-7.4707 77.8809-8.52051Q77.6367-9.57031 76.6602-10.2051Q75.6836-10.7422 74.6094-10.4736Q73.5352-10.2051 72.9004-9.17969L61.9629 9.91211Q61.377 10.8887 61.6211 11.9629Q61.8652 13.0371 62.8906 13.623Q63.916 14.209 64.9414 13.916Q65.9668 13.623 66.5039 12.6465ZM36.084 12.6953L47.168-6.44531Q47.7051-7.42188 47.4609-8.47168Q47.2168-9.52148 46.2402-10.1562Q45.2148-10.6934 44.1406-10.4248Q43.0664-10.1562 42.4805-9.13086L31.4941 9.96094Q30.957 10.9375 31.2012 12.0117Q31.4453 13.0859 32.4707 13.6719Q33.4473 14.2578 34.4727 13.9648Q35.498 13.6719 36.084 12.6953ZM27.1973 1.80664L31.9336-6.39648Q32.5195-7.42188 32.2266-8.49609Q31.9336-9.57031 30.957-10.1562Q29.8828-10.7422 28.8574-10.4492Q27.832-10.1562 27.1973-9.13086L22.4609-0.830078Q21.9238 0.0976562 22.168 1.14746Q22.4121 2.19727 23.4863 2.7832Q24.4629 3.36914 25.5615 3.07617Q26.6602 2.7832 27.1973 1.80664ZM57.6172 1.75781L62.3535-6.44531Q62.9883-7.4707 62.6953-8.54492Q62.4023-9.61914 61.377-10.2051Q60.3516-10.791 59.3018-10.498Q58.252-10.2051 57.666-9.17969L52.9297-0.878906Q52.3438 0.0488281 52.5879 1.12305Q52.832 2.19727 53.9062 2.73438Q54.8828 3.32031 55.9814 3.02734Q57.0801 2.73438 57.6172 1.75781Z"/>
  </g>
  <g id="Regular-S" transform="matrix(1 0 0 1 1401.09 696)">
   <path class="multicolor-0:white hierarchical-1:primary SFSymbolsPreviewFFFFFF" d="M25.1465-16.748L72.4609-16.748Q78.8086-16.748 83.8135-19.6777Q88.8184-22.6074 91.6992-27.5146Q94.5801-32.4219 94.5801-38.3789Q94.5801-44.5801 91.5283-49.4141Q88.4766-54.248 83.2275-57.0312Q77.9785-59.8145 71.4355-59.8145Q69.043-64.502 65.332-67.9443Q61.6211-71.3867 56.8848-73.291Q52.1484-75.1953 46.7285-75.1953Q39.4531-75.1953 33.374-71.7773Q27.2949-68.3594 23.4131-62.5977Q19.5312-56.8359 18.8965-49.707Q13.7207-48.1934 10.2783-43.8721Q6.83594-39.5508 6.83594-33.4473Q6.83594-28.8086 8.98438-25.0244Q11.1328-21.2402 15.2344-18.9941Q19.3359-16.748 25.1465-16.748Z"/>
   <path class="multicolor-1:systemCyanColor hierarchical-0:secondary SFSymbolsPreview55BEF0" d="M65.8203 11.8652L76.9043-7.32422Q77.4414-8.25195 77.1973-9.22852Q76.9531-10.2051 76.0254-10.791Q75.0977-11.3281 74.0723-11.084Q73.0469-10.8398 72.4609-9.86328L61.5234 9.22852Q60.9863 10.1562 61.2305 11.1816Q61.4746 12.207 62.4512 12.7441Q63.3789 13.2812 64.3555 13.0371Q65.332 12.793 65.8203 11.8652ZM35.4004 11.9141L46.4844-7.27539Q47.0215-8.20312 46.7773-9.17969Q46.5332-10.1562 45.6055-10.7422Q44.6777-11.2793 43.6279-11.0352Q42.5781-10.791 42.041-9.81445L31.1035 9.27734Q30.5664 10.2051 30.8105 11.2305Q31.0547 12.2559 32.0312 12.793Q32.959 13.3301 33.9111 13.0859Q34.8633 12.8418 35.4004 11.9141ZM26.5625 0.976562L31.2988-7.22656Q31.8848-8.20312 31.5918-9.2041Q31.2988-10.2051 30.3711-10.791Q29.3457-11.3281 28.3691-11.0596Q27.3926-10.791 26.8066-9.81445L22.0215-1.51367Q21.5332-0.634766 21.7773 0.366211Q22.0215 1.36719 23.0469 1.9043Q23.9746 2.44141 25 2.17285Q26.0254 1.9043 26.5625 0.976562ZM56.9824 0.927734L61.7188-7.27539Q62.3047-8.25195 62.0117-9.25293Q61.7188-10.2539 60.791-10.8398Q59.7656-11.377 58.7891-11.1084Q57.8125-10.8398 57.2266-9.86328L52.4902-1.5625Q51.9531-0.683594 52.1973 0.317383Q52.4414 1.31836 53.4668 1.85547Q54.3945 2.39258 55.4199 2.12402Q56.4453 1.85547 56.9824 0.927734Z"/>
  </g>
  <g id="Light-S" transform="matrix(1 0 0 1 1104.74 696)">
   <path class="multicolor-0:white hierarchical-1:primary SFSymbolsPreviewFFFFFF" d="M24.5605-17.3828L72.168-17.3828Q78.3691-17.3828 83.2764-20.2393Q88.1836-23.0957 91.0156-27.8564Q93.8477-32.6172 93.8477-38.4766Q93.8477-44.4824 90.8447-49.1699Q87.8418-53.8574 82.6904-56.5674Q77.5391-59.2773 71.1426-59.2773Q68.75-64.0625 65.1123-67.5781Q61.4746-71.0938 56.7383-73.0225Q52.002-74.9512 46.4355-74.9512Q39.3066-74.9512 33.3496-71.5332Q27.3926-68.1152 23.6084-62.3535Q19.8242-56.5918 19.1895-49.4629Q13.9648-47.998 10.4004-43.7744Q6.83594-39.5508 6.83594-33.4961Q6.83594-29.0527 8.93555-25.415Q11.0352-21.7773 14.9902-19.5801Q18.9453-17.3828 24.5605-17.3828Z"/>
   <path class="multicolor-1:systemCyanColor hierarchical-0:secondary SFSymbolsPreview55BEF0" d="M64.5508 11.4746L76.0742-8.44727Q76.5625-9.22852 76.3672-10.0098Q76.1719-10.791 75.3906-11.2793Q74.6582-11.6699 73.8525-11.4746Q73.0469-11.2793 72.5586-10.4492L61.1328 9.375Q60.6445 10.2051 60.8398 11.0107Q61.0352 11.8164 61.8164 12.2559Q62.5977 12.6953 63.3789 12.4756Q64.1602 12.2559 64.5508 11.4746ZM34.1309 11.5234L45.6543-8.39844Q46.0938-9.17969 45.8984-9.96094Q45.7031-10.7422 44.9707-11.2305Q44.2383-11.6699 43.4082-11.4502Q42.5781-11.2305 42.0898-10.4492L30.6641 9.42383Q30.2246 10.2051 30.4199 11.0352Q30.6152 11.8652 31.3965 12.3047Q32.1289 12.7441 32.9102 12.5244Q33.6914 12.3047 34.1309 11.5234ZM25.1953 0.634766L30.4199-8.34961Q30.9082-9.17969 30.6885-9.98535Q30.4688-10.791 29.6875-11.2793Q28.9062-11.6699 28.125-11.4502Q27.3438-11.2305 26.8555-10.4004L21.582-1.36719Q21.1914-0.585938 21.3867 0.219727Q21.582 1.02539 22.3633 1.41602Q23.1445 1.9043 23.9502 1.66016Q24.7559 1.41602 25.1953 0.634766ZM55.6641 0.585938L60.8398-8.39844Q61.3281-9.22852 61.1084-10.0098Q60.8887-10.791 60.1562-11.2793Q59.3262-11.7188 58.5449-11.499Q57.7637-11.2793 57.2754-10.4492L52.0508-1.41602Q51.6113-0.634766 51.8066 0.170898Q52.002 0.976562 52.832 1.41602Q53.5645 1.85547 54.3945 1.61133Q55.2246 1.36719 55.6641 0.585938Z"/>
  </g>
  <g id="Thin-S" transform="matrix(1 0 0 1 808.522 696)">
   <path class="multicolor-0:white hierarchical-1:primary SFSymbolsPreviewFFFFFF" d="M23.7793-18.2617L71.7773-18.2617Q77.7344-18.2617 82.5195-20.9961Q87.3047-23.7305 90.0879-28.3203Q92.8711-32.9102 92.8711-38.5742Q92.8711-44.3359 89.9414-48.8525Q87.0117-53.3691 82.0068-55.9814Q77.002-58.5938 70.752-58.5938Q68.3594-63.4766 64.7949-67.0898Q61.2305-70.7031 56.543-72.6807Q51.8555-74.6582 46.0449-74.6582Q39.1113-74.6582 33.3252-71.2402Q27.5391-67.8223 23.8525-62.0361Q20.166-56.25 19.5801-49.1699Q14.2578-47.7539 10.5469-43.6768Q6.83594-39.5996 6.83594-33.5938Q6.83594-29.3945 8.83789-25.9033Q10.8398-22.4121 14.624-20.3369Q18.4082-18.2617 23.7793-18.2617Z"/>
   <path class="multicolor-1:systemCyanColor hierarchical-0:secondary SFSymbolsPreview55BEF0" d="M62.8906 10.9863L75-9.91211Q75.3906-10.498 75.2441-11.0352Q75.0977-11.5723 74.5605-11.9141Q74.1211-12.1582 73.5596-12.0117Q72.998-11.8652 72.6562-11.2793L60.5957 9.61914Q60.2539 10.2051 60.376 10.7666Q60.498 11.3281 60.9863 11.6211Q61.5234 11.9629 62.0605 11.792Q62.5977 11.6211 62.8906 10.9863ZM32.4707 10.9863L44.5312-9.91211Q44.9219-10.498 44.7754-11.0352Q44.6289-11.5723 44.1406-11.9141Q43.6523-12.1582 43.0908-12.0117Q42.5293-11.8652 42.1875-11.2793L30.127 9.61914Q29.7852 10.2539 29.9072 10.791Q30.0293 11.3281 30.5664 11.6211Q31.0547 11.9629 31.5918 11.792Q32.1289 11.6211 32.4707 10.9863ZM23.4375 0.195312L29.248-9.86328Q29.6387-10.4492 29.4922-10.9863Q29.3457-11.5234 28.8086-11.8652Q28.3203-12.1582 27.7832-11.9873Q27.2461-11.8164 26.8555-11.2305L21.0449-1.17188Q20.7031-0.585938 20.8252-0.0244141Q20.9473 0.537109 21.4844 0.830078Q22.0215 1.12305 22.5586 0.952148Q23.0957 0.78125 23.4375 0.195312ZM53.9062 0.195312L59.7168-9.86328Q60.1074-10.4492 59.9365-11.0107Q59.7656-11.5723 59.2773-11.9141Q58.7891-12.1582 58.252-11.9873Q57.7148-11.8164 57.3242-11.2305L51.5137-1.17188Q51.1719-0.585938 51.2939-0.0488281Q51.416 0.488281 51.9531 0.78125Q52.4414 1.12305 53.0029 0.952148Q53.5645 0.78125 53.9062 0.195312Z"/>
  </g>
  <g id="Ultralight-S" transform="matrix(1 0 0 1 512.055 696)">
   <path class="multicolor-0:white hierarchical-1:primary SFSymbolsPreviewFFFFFF" d="M23.3887-18.7012L71.582-18.7012Q77.4414-18.7012 82.1533-21.3867Q86.8652-24.0723 89.624-28.5645Q92.3828-33.0566 92.3828-38.623Q92.3828-44.2383 89.502-48.6816Q86.6211-53.125 81.665-55.6641Q76.709-58.2031 70.5566-58.2031Q68.1641-63.1836 64.6484-66.8213Q61.1328-70.459 56.4453-72.4854Q51.7578-74.5117 45.8496-74.5117Q39.0137-74.5117 33.3252-71.0938Q27.6367-67.6758 23.999-61.8896Q20.3613-56.1035 19.7754-49.0234Q14.4043-47.6074 10.6201-43.6035Q6.83594-39.5996 6.83594-33.6426Q6.83594-29.541 8.81348-26.1719Q10.791-22.8027 14.4775-20.752Q18.1641-18.7012 23.3887-18.7012Z"/>
   <path class="multicolor-1:systemCyanColor hierarchical-0:secondary SFSymbolsPreview55BEF0" d="M62.0605 10.7422L74.4629-10.6934Q74.7559-11.1816 74.6582-11.5723Q74.5605-11.9629 74.1699-12.2559Q73.8281-12.4023 73.4131-12.2803Q72.998-12.1582 72.7051-11.6699L60.3027 9.7168Q60.0098 10.2539 60.1074 10.6689Q60.2051 11.084 60.5957 11.2793Q60.9863 11.5723 61.377 11.4014Q61.7676 11.2305 62.0605 10.7422ZM31.5918 10.7422L43.9941-10.6934Q44.2871-11.1328 44.1895-11.5479Q44.0918-11.9629 43.7012-12.2559Q43.3594-12.4023 42.9443-12.2803Q42.5293-12.1582 42.2363-11.6699L29.834 9.7168Q29.5898 10.2539 29.6631 10.6689Q29.7363 11.084 30.127 11.2793Q30.5176 11.5723 30.9082 11.4014Q31.2988 11.2305 31.5918 10.7422ZM22.5098 0L28.6621-10.6445Q28.9551-11.1328 28.8574-11.5234Q28.7598-11.9141 28.3691-12.207Q28.0273-12.3535 27.6123-12.2314Q27.1973-12.1094 26.9043-11.6211L20.752-1.07422Q20.5078-0.537109 20.5811-0.12207Q20.6543 0.292969 21.0449 0.488281Q21.4355 0.78125 21.8506 0.610352Q22.2656 0.439453 22.5098 0ZM52.9785-0.0488281L59.1309-10.6445Q59.4238-11.1328 59.3262-11.5234Q59.2285-11.9141 58.8379-12.207Q58.4961-12.3535 58.0811-12.2314Q57.666-12.1094 57.373-11.6211L51.2207-1.07422Q50.9766-0.537109 51.0498-0.12207Q51.123 0.292969 51.5137 0.488281Q51.9043 0.78125 52.3193 0.610352Q52.7344 0.439453 52.9785-0.0488281Z"/>
  </g>
 </g>
</svg>
