<?xml version="1.0" encoding="UTF-8"?>
<!--Generator: Apple Native CoreSVG 175-->
<!DOCTYPE svg
PUBLIC "-//W3C//DTD SVG 1.1//EN"
       "http://www.w3.org/Graphics/SVG/1.1/DTD/svg11.dtd">
<svg version="1.1" xmlns="http://www.w3.org/2000/svg" xmlns:xlink="http://www.w3.org/1999/xlink" width="3300" height="2200">
 <!--glyph: "uni100973.medium", point size: 100.0, font version: "17.0d11e1", template writer version: "65.1"-->
 <style>.multicolor-0:systemGreenColor {fill:#28CD41;opacity:1.0}

.SFSymbolsPreview28CD41 {fill:#28CD41;opacity:1.0}
</style>
 <g id="Notes">
  <rect height="2200" id="artboard" style="fill:white;opacity:1" width="3300" x="0" y="0"/>
  <line style="fill:none;stroke:black;opacity:1;stroke-width:0.5;" x1="263" x2="3036" y1="292" y2="292"/>
  <text style="stroke:none;fill:black;font-family:sans-serif;font-size:13;font-weight:bold;" transform="matrix(1 0 0 1 263 322)">Weight/Scale Variations</text>
  <text style="stroke:none;fill:black;font-family:sans-serif;font-size:13;text-anchor:middle;" transform="matrix(1 0 0 1 559.711 322)">Ultralight</text>
  <text style="stroke:none;fill:black;font-family:sans-serif;font-size:13;text-anchor:middle;" transform="matrix(1 0 0 1 856.422 322)">Thin</text>
  <text style="stroke:none;fill:black;font-family:sans-serif;font-size:13;text-anchor:middle;" transform="matrix(1 0 0 1 1153.13 322)">Light</text>
  <text style="stroke:none;fill:black;font-family:sans-serif;font-size:13;text-anchor:middle;" transform="matrix(1 0 0 1 1449.84 322)">Regular</text>
  <text style="stroke:none;fill:black;font-family:sans-serif;font-size:13;text-anchor:middle;" transform="matrix(1 0 0 1 1746.56 322)">Medium</text>
  <text style="stroke:none;fill:black;font-family:sans-serif;font-size:13;text-anchor:middle;" transform="matrix(1 0 0 1 2043.27 322)">Semibold</text>
  <text style="stroke:none;fill:black;font-family:sans-serif;font-size:13;text-anchor:middle;" transform="matrix(1 0 0 1 2339.98 322)">Bold</text>
  <text style="stroke:none;fill:black;font-family:sans-serif;font-size:13;text-anchor:middle;" transform="matrix(1 0 0 1 2636.69 322)">Heavy</text>
  <text style="stroke:none;fill:black;font-family:sans-serif;font-size:13;text-anchor:middle;" transform="matrix(1 0 0 1 2933.4 322)">Black</text>
  <line style="fill:none;stroke:black;opacity:1;stroke-width:0.5;" x1="263" x2="3036" y1="1903" y2="1903"/>
  <g transform="matrix(1 0 0 1 263 1933)">
   <path d="M9.24805 0.830078Q10.8691 0.830078 12.2949 0.214844Q13.7207-0.400391 14.8096-1.49414Q15.8984-2.58789 16.5186-4.01367Q17.1387-5.43945 17.1387-7.05078Q17.1387-8.66211 16.5186-10.0879Q15.8984-11.5137 14.8047-12.6074Q13.7109-13.7012 12.2852-14.3164Q10.8594-14.9316 9.23828-14.9316Q7.62695-14.9316 6.20117-14.3164Q4.77539-13.7012 3.69141-12.6074Q2.60742-11.5137 1.9873-10.0879Q1.36719-8.66211 1.36719-7.05078Q1.36719-5.43945 1.9873-4.01367Q2.60742-2.58789 3.69629-1.49414Q4.78516-0.400391 6.21094 0.214844Q7.63672 0.830078 9.24805 0.830078ZM9.24805-0.654297Q7.91992-0.654297 6.7627-1.14746Q5.60547-1.64062 4.73145-2.51953Q3.85742-3.39844 3.36426-4.56055Q2.87109-5.72266 2.87109-7.05078Q2.87109-8.37891 3.35938-9.54102Q3.84766-10.7031 4.72168-11.582Q5.5957-12.4609 6.75293-12.9541Q7.91016-13.4473 9.23828-13.4473Q10.5762-13.4473 11.7334-12.9541Q12.8906-12.4609 13.7695-11.582Q14.6484-10.7031 15.1465-9.54102Q15.6445-8.37891 15.6445-7.05078Q15.6445-5.72266 15.1514-4.56055Q14.6582-3.39844 13.7842-2.51953Q12.9102-1.64062 11.748-1.14746Q10.5859-0.654297 9.24805-0.654297ZM5.6543-7.05078Q5.6543-6.72852 5.85938-6.52832Q6.06445-6.32812 6.40625-6.32812L8.51562-6.32812L8.51562-4.20898Q8.51562-3.88672 8.71094-3.67676Q8.90625-3.4668 9.23828-3.4668Q9.56055-3.4668 9.77051-3.67676Q9.98047-3.88672 9.98047-4.20898L9.98047-6.32812L12.0898-6.32812Q12.4219-6.32812 12.627-6.52832Q12.832-6.72852 12.832-7.05078Q12.832-7.38281 12.627-7.58789Q12.4219-7.79297 12.0898-7.79297L9.98047-7.79297L9.98047-9.90234Q9.98047-10.2344 9.77051-10.4443Q9.56055-10.6543 9.23828-10.6543Q8.90625-10.6543 8.71094-10.4443Q8.51562-10.2344 8.51562-9.90234L8.51562-7.79297L6.40625-7.79297Q6.06445-7.79297 5.85938-7.58789Q5.6543-7.38281 5.6543-7.05078Z"/>
  </g>
  <g transform="matrix(1 0 0 1 281.867 1933)">
   <path d="M11.709 2.91016Q13.75 2.91016 15.5518 2.12891Q17.3535 1.34766 18.7305-0.0292969Q20.1074-1.40625 20.8887-3.20801Q21.6699-5.00977 21.6699-7.05078Q21.6699-9.0918 20.8887-10.8936Q20.1074-12.6953 18.7305-14.0723Q17.3535-15.4492 15.5469-16.2305Q13.7402-17.0117 11.6992-17.0117Q9.6582-17.0117 7.85645-16.2305Q6.05469-15.4492 4.68262-14.0723Q3.31055-12.6953 2.5293-10.8936Q1.74805-9.0918 1.74805-7.05078Q1.74805-5.00977 2.5293-3.20801Q3.31055-1.40625 4.6875-0.0292969Q6.06445 1.34766 7.86621 2.12891Q9.66797 2.91016 11.709 2.91016ZM11.709 1.25Q9.98047 1.25 8.47656 0.605469Q6.97266-0.0390625 5.83496-1.17676Q4.69727-2.31445 4.05762-3.81836Q3.41797-5.32227 3.41797-7.05078Q3.41797-8.7793 4.05762-10.2832Q4.69727-11.7871 5.83008-12.9297Q6.96289-14.0723 8.4668-14.7119Q9.9707-15.3516 11.6992-15.3516Q13.4277-15.3516 14.9316-14.7119Q16.4355-14.0723 17.5781-12.9297Q18.7207-11.7871 19.3652-10.2832Q20.0098-8.7793 20.0098-7.05078Q20.0098-5.32227 19.3701-3.81836Q18.7305-2.31445 17.5928-1.17676Q16.4551-0.0390625 14.9463 0.605469Q13.4375 1.25 11.709 1.25ZM7.17773-7.05078Q7.17773-6.69922 7.41211-6.47461Q7.64648-6.25 8.01758-6.25L10.8887-6.25L10.8887-3.36914Q10.8887-2.99805 11.1133-2.76855Q11.3379-2.53906 11.6895-2.53906Q12.0605-2.53906 12.29-2.76855Q12.5195-2.99805 12.5195-3.36914L12.5195-6.25L15.4004-6.25Q15.7715-6.25 16.001-6.47461Q16.2305-6.69922 16.2305-7.05078Q16.2305-7.42188 16.001-7.65137Q15.7715-7.88086 15.4004-7.88086L12.5195-7.88086L12.5195-10.752Q12.5195-11.1328 12.29-11.3623Q12.0605-11.5918 11.6895-11.5918Q11.3379-11.5918 11.1133-11.3574Q10.8887-11.123 10.8887-10.752L10.8887-7.88086L8.01758-7.88086Q7.63672-7.88086 7.40723-7.65137Q7.17773-7.42188 7.17773-7.05078Z"/>
  </g>
  <g transform="matrix(1 0 0 1 305.646 1933)">
   <path d="M14.9707 5.66406Q17.0605 5.66406 18.96 5.01465Q20.8594 4.36523 22.4512 3.19336Q24.043 2.02148 25.2197 0.429688Q26.3965-1.16211 27.0459-3.06641Q27.6953-4.9707 27.6953-7.05078Q27.6953-9.14062 27.0459-11.04Q26.3965-12.9395 25.2197-14.5312Q24.043-16.123 22.4512-17.2998Q20.8594-18.4766 18.9551-19.126Q17.0508-19.7754 14.9609-19.7754Q12.8711-19.7754 10.9717-19.126Q9.07227-18.4766 7.48535-17.2998Q5.89844-16.123 4.72168-14.5312Q3.54492-12.9395 2.90039-11.04Q2.25586-9.14062 2.25586-7.05078Q2.25586-4.9707 2.90527-3.06641Q3.55469-1.16211 4.72656 0.429688Q5.89844 2.02148 7.49023 3.19336Q9.08203 4.36523 10.9814 5.01465Q12.8809 5.66406 14.9707 5.66406ZM14.9707 3.84766Q13.1641 3.84766 11.5283 3.2959Q9.89258 2.74414 8.53516 1.74805Q7.17773 0.751953 6.17676-0.610352Q5.17578-1.97266 4.62891-3.6084Q4.08203-5.24414 4.08203-7.05078Q4.08203-8.86719 4.62891-10.5029Q5.17578-12.1387 6.17188-13.501Q7.16797-14.8633 8.52539-15.8594Q9.88281-16.8555 11.5186-17.4023Q13.1543-17.9492 14.9609-17.9492Q16.7773-17.9492 18.4131-17.4023Q20.0488-16.8555 21.4111-15.8594Q22.7734-14.8633 23.7695-13.501Q24.7656-12.1387 25.3174-10.5029Q25.8691-8.86719 25.8691-7.05078Q25.8789-5.24414 25.332-3.6084Q24.7852-1.97266 23.7842-0.610352Q22.7832 0.751953 21.4209 1.74805Q20.0586 2.74414 18.4229 3.2959Q16.7871 3.84766 14.9707 3.84766ZM9.19922-7.05078Q9.19922-6.66992 9.45801-6.4209Q9.7168-6.17188 10.1172-6.17188L14.0625-6.17188L14.0625-2.2168Q14.0625-1.81641 14.3115-1.55762Q14.5605-1.29883 14.9512-1.29883Q15.3516-1.29883 15.6104-1.55273Q15.8691-1.80664 15.8691-2.2168L15.8691-6.17188L19.8242-6.17188Q20.2246-6.17188 20.4785-6.4209Q20.7324-6.66992 20.7324-7.05078Q20.7324-7.46094 20.4785-7.71484Q20.2246-7.96875 19.8242-7.96875L15.8691-7.96875L15.8691-11.9141Q15.8691-12.3242 15.6104-12.583Q15.3516-12.8418 14.9512-12.8418Q14.5605-12.8418 14.3115-12.583Q14.0625-12.3242 14.0625-11.9141L14.0625-7.96875L10.1172-7.96875Q9.70703-7.96875 9.45312-7.71484Q9.19922-7.46094 9.19922-7.05078Z"/>
  </g>
  <text style="stroke:none;fill:black;font-family:sans-serif;font-size:13;font-weight:bold;" transform="matrix(1 0 0 1 263 1953)">Design Variations</text>
  <text style="stroke:none;fill:black;font-family:sans-serif;font-size:13;" transform="matrix(1 0 0 1 263 1971)">Symbols are supported in up to nine weights and three scales.</text>
  <text style="stroke:none;fill:black;font-family:sans-serif;font-size:13;" transform="matrix(1 0 0 1 263 1989)">For optimal layout with text and other symbols, vertically align</text>
  <text style="stroke:none;fill:black;font-family:sans-serif;font-size:13;" transform="matrix(1 0 0 1 263 2007)">symbols with the adjacent text.</text>
  <line style="fill:none;stroke:#00AEEF;stroke-width:0.5;opacity:1.0;" x1="776" x2="776" y1="1919" y2="1933"/>
  <g transform="matrix(1 0 0 1 776 1933)">
   <path d="M3.31055 0.15625Q3.70117 0.15625 3.91602-0.00976562Q4.13086-0.175781 4.26758-0.585938L5.52734-4.0332L11.2891-4.0332L12.5488-0.585938Q12.6855-0.175781 12.9004-0.00976562Q13.1152 0.15625 13.4961 0.15625Q13.8867 0.15625 14.1162-0.0585938Q14.3457-0.273438 14.3457-0.644531Q14.3457-0.869141 14.2383-1.17188L9.6582-13.3691Q9.48242-13.8184 9.17969-14.043Q8.87695-14.2676 8.4082-14.2676Q7.5-14.2676 7.17773-13.3789L2.59766-1.16211Q2.49023-0.859375 2.49023-0.634766Q2.49023-0.263672 2.70996-0.0537109Q2.92969 0.15625 3.31055 0.15625ZM6.00586-5.51758L8.37891-12.0898L8.42773-12.0898L10.8008-5.51758Z"/>
  </g>
  <line style="fill:none;stroke:#00AEEF;stroke-width:0.5;opacity:1.0;" x1="793.197" x2="793.197" y1="1919" y2="1933"/>
  <text style="stroke:none;fill:black;font-family:sans-serif;font-size:13;font-weight:bold;" transform="matrix(1 0 0 1 776 1953)">Margins</text>
  <text style="stroke:none;fill:black;font-family:sans-serif;font-size:13;" transform="matrix(1 0 0 1 776 1971)">Leading and trailing margins on the left and right side of each symbol</text>
  <text style="stroke:none;fill:black;font-family:sans-serif;font-size:13;" transform="matrix(1 0 0 1 776 1989)">can be adjusted by modifying the x-location of the margin guidelines.</text>
  <text style="stroke:none;fill:black;font-family:sans-serif;font-size:13;" transform="matrix(1 0 0 1 776 2007)">Modifications are automatically applied proportionally to all</text>
  <text style="stroke:none;fill:black;font-family:sans-serif;font-size:13;" transform="matrix(1 0 0 1 776 2025)">scales and weights.</text>
  <g transform="matrix(1 0 0 1 1289 1933)">
   <path d="M2.8418 1.86523L4.54102 3.57422Q5.18555 4.22852 5.90332 4.17969Q6.62109 4.13086 7.31445 3.35938L18.0078-8.42773L17.041-9.4043L6.42578 2.27539Q6.16211 2.57812 5.89355 2.61719Q5.625 2.65625 5.27344 2.30469L4.10156 1.14258Q3.75 0.791016 3.79395 0.522461Q3.83789 0.253906 4.14062-0.0195312L15.6152-10.8203L14.6387-11.7871L3.04688-0.898438Q2.30469-0.214844 2.25098 0.498047Q2.19727 1.21094 2.8418 1.86523ZM9.25781-16.3281Q8.94531-16.0254 8.90625-15.6348Q8.86719-15.2441 9.04297-14.9512Q9.21875-14.6777 9.55566-14.541Q9.89258-14.4043 10.3809-14.5215Q11.4746-14.7754 12.5977-14.7314Q13.7207-14.6875 14.7949-13.9844L14.209-12.5293Q13.9551-11.9043 14.0674-11.4404Q14.1797-10.9766 14.5801-10.5664L16.875-8.25195Q17.2363-7.88086 17.5781-7.82227Q17.9199-7.76367 18.3398-7.8418L19.4043-8.03711L20.0684-7.36328L20.0293-6.80664Q20-6.43555 20.1221-6.12305Q20.2441-5.81055 20.6055-5.44922L21.3672-4.70703Q21.7285-4.3457 22.1533-4.33105Q22.5781-4.31641 22.9297-4.66797L25.8398-7.58789Q26.1914-7.93945 26.1816-8.35449Q26.1719-8.76953 25.8105-9.13086L25.0391-9.89258Q24.6875-10.2539 24.3799-10.3857Q24.0723-10.5176 23.7109-10.4883L23.1348-10.4395L22.4902-11.0742L22.7344-12.1973Q22.832-12.6172 22.6953-12.9834Q22.5586-13.3496 22.1191-13.7891L19.9219-15.9766Q18.6719-17.2168 17.2607-17.8369Q15.8496-18.457 14.4189-18.4814Q12.9883-18.5059 11.665-17.959Q10.3418-17.4121 9.25781-16.3281ZM10.752-15.957Q11.6602-16.6211 12.7002-16.9043Q13.7402-17.1875 14.8047-17.085Q15.8691-16.9824 16.8701-16.5137Q17.8711-16.0449 18.7012-15.2051L21.1328-12.793Q21.3086-12.6172 21.3525-12.4512Q21.3965-12.2852 21.3379-12.0312L21.0156-10.5469L22.5195-9.0625L23.5059-9.12109Q23.6914-9.13086 23.7891-9.09668Q23.8867-9.0625 24.0332-8.91602L24.6094-8.33984L22.168-5.89844L21.5918-6.47461Q21.4453-6.62109 21.4062-6.71875Q21.3672-6.81641 21.377-7.01172L21.4453-7.98828L19.9512-9.47266L18.4277-9.21875Q18.1836-9.16992 18.042-9.2041Q17.9004-9.23828 17.7148-9.41406L15.7129-11.416Q15.5176-11.5918 15.4932-11.7529Q15.4688-11.9141 15.5859-12.1875L16.4648-14.2773Q15.293-15.3711 13.8281-15.791Q12.3633-16.2109 10.8398-15.7617Q10.7227-15.7324 10.6885-15.8057Q10.6543-15.8789 10.752-15.957Z"/>
  </g>
  <text style="stroke:none;fill:black;font-family:sans-serif;font-size:13;font-weight:bold;" transform="matrix(1 0 0 1 1289 1953)">Exporting</text>
  <text style="stroke:none;fill:black;font-family:sans-serif;font-size:13;" transform="matrix(1 0 0 1 1289 1971)">Symbols should be outlined when exporting to ensure the</text>
  <text style="stroke:none;fill:black;font-family:sans-serif;font-size:13;" transform="matrix(1 0 0 1 1289 1989)">design is preserved when submitting to Xcode.</text>
  <text id="template-version" style="stroke:none;fill:black;font-family:sans-serif;font-size:13;text-anchor:end;" transform="matrix(1 0 0 1 3036 1933)">Template v.3.0</text>
  <text style="stroke:none;fill:black;font-family:sans-serif;font-size:13;text-anchor:end;" transform="matrix(1 0 0 1 3036 1951)">Requires Xcode 13 or greater</text>
  <text id="descriptive-name" style="stroke:none;fill:black;font-family:sans-serif;font-size:13;text-anchor:end;" transform="matrix(1 0 0 1 3036 1969)">Generated from leaf.fill</text>
  <text style="stroke:none;fill:black;font-family:sans-serif;font-size:13;text-anchor:end;" transform="matrix(1 0 0 1 3036 1987)">Typeset at 100 points</text>
  <text style="stroke:none;fill:black;font-family:sans-serif;font-size:13;" transform="matrix(1 0 0 1 263 726)">Small</text>
  <text style="stroke:none;fill:black;font-family:sans-serif;font-size:13;" transform="matrix(1 0 0 1 263 1156)">Medium</text>
  <text style="stroke:none;fill:black;font-family:sans-serif;font-size:13;" transform="matrix(1 0 0 1 263 1586)">Large</text>
 </g>
 <g id="Guides">
  <g id="H-reference" style="fill:#27AAE1;stroke:none;" transform="matrix(1 0 0 1 339 696)">
   <path d="M0.976562 0L3.66211 0L29.3457-67.1387L30.0293-67.1387L30.0293-70.459L28.125-70.459ZM11.6699-24.4629L46.9727-24.4629L46.2402-26.709L12.4512-26.709ZM55.127 0L57.7637 0L30.6152-70.459L29.4434-70.459L29.4434-67.1387Z"/>
  </g>
  <line id="Baseline-S" style="fill:none;stroke:#27AAE1;opacity:1;stroke-width:0.5;" x1="263" x2="3036" y1="696" y2="696"/>
  <line id="Capline-S" style="fill:none;stroke:#27AAE1;opacity:1;stroke-width:0.5;" x1="263" x2="3036" y1="625.541" y2="625.541"/>
  <g id="H-reference" style="fill:#27AAE1;stroke:none;" transform="matrix(1 0 0 1 339 1126)">
   <path d="M0.976562 0L3.66211 0L29.3457-67.1387L30.0293-67.1387L30.0293-70.459L28.125-70.459ZM11.6699-24.4629L46.9727-24.4629L46.2402-26.709L12.4512-26.709ZM55.127 0L57.7637 0L30.6152-70.459L29.4434-70.459L29.4434-67.1387Z"/>
  </g>
  <line id="Baseline-M" style="fill:none;stroke:#27AAE1;opacity:1;stroke-width:0.5;" x1="263" x2="3036" y1="1126" y2="1126"/>
  <line id="Capline-M" style="fill:none;stroke:#27AAE1;opacity:1;stroke-width:0.5;" x1="263" x2="3036" y1="1055.54" y2="1055.54"/>
  <g id="H-reference" style="fill:#27AAE1;stroke:none;" transform="matrix(1 0 0 1 339 1556)">
   <path d="M0.976562 0L3.66211 0L29.3457-67.1387L30.0293-67.1387L30.0293-70.459L28.125-70.459ZM11.6699-24.4629L46.9727-24.4629L46.2402-26.709L12.4512-26.709ZM55.127 0L57.7637 0L30.6152-70.459L29.4434-70.459L29.4434-67.1387Z"/>
  </g>
  <line id="Baseline-L" style="fill:none;stroke:#27AAE1;opacity:1;stroke-width:0.5;" x1="263" x2="3036" y1="1556" y2="1556"/>
  <line id="Capline-L" style="fill:none;stroke:#27AAE1;opacity:1;stroke-width:0.5;" x1="263" x2="3036" y1="1485.54" y2="1485.54"/>
  <line id="left-margin-Ultralight-S" style="fill:none;stroke:#00AEEF;stroke-width:0.5;opacity:1.0;" x1="514.081" x2="514.081" y1="600.785" y2="720.121"/>
  <line id="right-margin-Ultralight-S" style="fill:none;stroke:#00AEEF;stroke-width:0.5;opacity:1.0;" x1="605.341" x2="605.341" y1="600.785" y2="720.121"/>
  <line id="left-margin-Thin-S" style="fill:none;stroke:#00AEEF;stroke-width:0.5;opacity:1.0;" x1="810.084" x2="810.084" y1="600.785" y2="720.121"/>
  <line id="right-margin-Thin-S" style="fill:none;stroke:#00AEEF;stroke-width:0.5;opacity:1.0;" x1="902.76" x2="902.76" y1="600.785" y2="720.121"/>
  <line id="left-margin-Light-S" style="fill:none;stroke:#00AEEF;stroke-width:0.5;opacity:1.0;" x1="1105.45" x2="1105.45" y1="600.785" y2="720.121"/>
  <line id="right-margin-Light-S" style="fill:none;stroke:#00AEEF;stroke-width:0.5;opacity:1.0;" x1="1200.81" x2="1200.81" y1="600.785" y2="720.121"/>
  <line id="left-margin-Regular-S" style="fill:none;stroke:#00AEEF;stroke-width:0.5;opacity:1.0;" x1="1401.14" x2="1401.14" y1="600.785" y2="720.121"/>
  <line id="right-margin-Regular-S" style="fill:none;stroke:#00AEEF;stroke-width:0.5;opacity:1.0;" x1="1498.55" x2="1498.55" y1="600.785" y2="720.121"/>
  <line id="left-margin-Medium-S" style="fill:none;stroke:#00AEEF;stroke-width:0.5;opacity:1.0;" x1="1697.31" x2="1697.31" y1="600.785" y2="720.121"/>
  <line id="right-margin-Medium-S" style="fill:none;stroke:#00AEEF;stroke-width:0.5;opacity:1.0;" x1="1795.8" x2="1795.8" y1="600.785" y2="720.121"/>
  <line id="left-margin-Semibold-S" style="fill:none;stroke:#00AEEF;stroke-width:0.5;opacity:1.0;" x1="1993.58" x2="1993.58" y1="600.785" y2="720.121"/>
  <line id="right-margin-Semibold-S" style="fill:none;stroke:#00AEEF;stroke-width:0.5;opacity:1.0;" x1="2092.95" x2="2092.95" y1="600.785" y2="720.121"/>
  <line id="left-margin-Bold-S" style="fill:none;stroke:#00AEEF;stroke-width:0.5;opacity:1.0;" x1="2289.73" x2="2289.73" y1="600.785" y2="720.121"/>
  <line id="right-margin-Bold-S" style="fill:none;stroke:#00AEEF;stroke-width:0.5;opacity:1.0;" x1="2390.22" x2="2390.22" y1="600.785" y2="720.121"/>
  <line id="left-margin-Heavy-S" style="fill:none;stroke:#00AEEF;stroke-width:0.5;opacity:1.0;" x1="2585.66" x2="2585.66" y1="600.785" y2="720.121"/>
  <line id="right-margin-Heavy-S" style="fill:none;stroke:#00AEEF;stroke-width:0.5;opacity:1.0;" x1="2687.71" x2="2687.71" y1="600.785" y2="720.121"/>
  <line id="left-margin-Black-S" style="fill:none;stroke:#00AEEF;stroke-width:0.5;opacity:1.0;" x1="2881.64" x2="2881.64" y1="600.785" y2="720.121"/>
  <line id="right-margin-Black-S" style="fill:none;stroke:#00AEEF;stroke-width:0.5;opacity:1.0;" x1="2985.16" x2="2985.16" y1="600.785" y2="720.121"/>
  <line id="left-margin-Ultralight-M" style="fill:none;stroke:#00AEEF;stroke-width:0.5;opacity:1.0;" x1="501.703" x2="501.703" y1="1030.79" y2="1150.12"/>
  <line id="right-margin-Ultralight-M" style="fill:none;stroke:#00AEEF;stroke-width:0.5;opacity:1.0;" x1="617.719" x2="617.719" y1="1030.79" y2="1150.12"/>
  <line id="left-margin-Thin-M" style="fill:none;stroke:#00AEEF;stroke-width:0.5;opacity:1.0;" x1="797.633" x2="797.633" y1="1030.79" y2="1150.12"/>
  <line id="right-margin-Thin-M" style="fill:none;stroke:#00AEEF;stroke-width:0.5;opacity:1.0;" x1="915.211" x2="915.211" y1="1030.79" y2="1150.12"/>
  <line id="left-margin-Light-M" style="fill:none;stroke:#00AEEF;stroke-width:0.5;opacity:1.0;" x1="1092.83" x2="1092.83" y1="1030.79" y2="1150.12"/>
  <line id="right-margin-Light-M" style="fill:none;stroke:#00AEEF;stroke-width:0.5;opacity:1.0;" x1="1213.44" x2="1213.44" y1="1030.79" y2="1150.12"/>
  <line id="left-margin-Regular-M" style="fill:none;stroke:#00AEEF;stroke-width:0.5;opacity:1.0;" x1="1388.39" x2="1388.39" y1="1030.79" y2="1150.12"/>
  <line id="right-margin-Regular-M" style="fill:none;stroke:#00AEEF;stroke-width:0.5;opacity:1.0;" x1="1511.29" x2="1511.29" y1="1030.79" y2="1150.12"/>
  <line id="left-margin-Medium-M" style="fill:none;stroke:#00AEEF;stroke-width:0.5;opacity:1.0;" x1="1684.32" x2="1684.32" y1="1030.79" y2="1150.12"/>
  <line id="right-margin-Medium-M" style="fill:none;stroke:#00AEEF;stroke-width:0.5;opacity:1.0;" x1="1808.79" x2="1808.79" y1="1030.79" y2="1150.12"/>
  <line id="left-margin-Semibold-M" style="fill:none;stroke:#00AEEF;stroke-width:0.5;opacity:1.0;" x1="1980.45" x2="1980.45" y1="1030.79" y2="1150.12"/>
  <line id="right-margin-Semibold-M" style="fill:none;stroke:#00AEEF;stroke-width:0.5;opacity:1.0;" x1="2106.08" x2="2106.08" y1="1030.79" y2="1150.12"/>
  <line id="left-margin-Bold-M" style="fill:none;stroke:#00AEEF;stroke-width:0.5;opacity:1.0;" x1="2276.35" x2="2276.35" y1="1030.79" y2="1150.12"/>
  <line id="right-margin-Bold-M" style="fill:none;stroke:#00AEEF;stroke-width:0.5;opacity:1.0;" x1="2403.6" x2="2403.6" y1="1030.79" y2="1150.12"/>
  <line id="left-margin-Heavy-M" style="fill:none;stroke:#00AEEF;stroke-width:0.5;opacity:1.0;" x1="2571.94" x2="2571.94" y1="1030.79" y2="1150.12"/>
  <line id="right-margin-Heavy-M" style="fill:none;stroke:#00AEEF;stroke-width:0.5;opacity:1.0;" x1="2701.43" x2="2701.43" y1="1030.79" y2="1150.12"/>
  <line id="left-margin-Black-M" style="fill:none;stroke:#00AEEF;stroke-width:0.5;opacity:1.0;" x1="2867.63" x2="2867.63" y1="1030.79" y2="1150.12"/>
  <line id="right-margin-Black-M" style="fill:none;stroke:#00AEEF;stroke-width:0.5;opacity:1.0;" x1="2999.17" x2="2999.17" y1="1030.79" y2="1150.12"/>
  <line id="left-margin-Ultralight-L" style="fill:none;stroke:#00AEEF;stroke-width:0.5;opacity:1.0;" x1="485.199" x2="485.199" y1="1460.79" y2="1580.12"/>
  <line id="right-margin-Ultralight-L" style="fill:none;stroke:#00AEEF;stroke-width:0.5;opacity:1.0;" x1="634.223" x2="634.223" y1="1460.79" y2="1580.12"/>
  <line id="left-margin-Thin-L" style="fill:none;stroke:#00AEEF;stroke-width:0.5;opacity:1.0;" x1="781.032" x2="781.032" y1="1460.79" y2="1580.12"/>
  <line id="right-margin-Thin-L" style="fill:none;stroke:#00AEEF;stroke-width:0.5;opacity:1.0;" x1="931.813" x2="931.813" y1="1460.79" y2="1580.12"/>
  <line id="left-margin-Light-L" style="fill:none;stroke:#00AEEF;stroke-width:0.5;opacity:1.0;" x1="1076.06" x2="1076.06" y1="1460.79" y2="1580.12"/>
  <line id="right-margin-Light-L" style="fill:none;stroke:#00AEEF;stroke-width:0.5;opacity:1.0;" x1="1230.21" x2="1230.21" y1="1460.79" y2="1580.12"/>
  <line id="left-margin-Regular-L" style="fill:none;stroke:#00AEEF;stroke-width:0.5;opacity:1.0;" x1="1371.48" x2="1371.48" y1="1460.79" y2="1580.12"/>
  <line id="right-margin-Regular-L" style="fill:none;stroke:#00AEEF;stroke-width:0.5;opacity:1.0;" x1="1528.21" x2="1528.21" y1="1460.79" y2="1580.12"/>
  <line id="left-margin-Medium-L" style="fill:none;stroke:#00AEEF;stroke-width:0.5;opacity:1.0;" x1="1667.19" x2="1667.19" y1="1460.79" y2="1580.12"/>
  <line id="right-margin-Medium-L" style="fill:none;stroke:#00AEEF;stroke-width:0.5;opacity:1.0;" x1="1825.93" x2="1825.93" y1="1460.79" y2="1580.12"/>
  <line id="left-margin-Semibold-L" style="fill:none;stroke:#00AEEF;stroke-width:0.5;opacity:1.0;" x1="1963.12" x2="1963.12" y1="1460.79" y2="1580.12"/>
  <line id="right-margin-Semibold-L" style="fill:none;stroke:#00AEEF;stroke-width:0.5;opacity:1.0;" x1="2123.42" x2="2123.42" y1="1460.79" y2="1580.12"/>
  <line id="left-margin-Bold-L" style="fill:none;stroke:#00AEEF;stroke-width:0.5;opacity:1.0;" x1="2258.8" x2="2258.8" y1="1460.79" y2="1580.12"/>
  <line id="right-margin-Bold-L" style="fill:none;stroke:#00AEEF;stroke-width:0.5;opacity:1.0;" x1="2421.15" x2="2421.15" y1="1460.79" y2="1580.12"/>
  <line id="left-margin-Heavy-L" style="fill:none;stroke:#00AEEF;stroke-width:0.5;opacity:1.0;" x1="2554.05" x2="2554.05" y1="1460.79" y2="1580.12"/>
  <line id="right-margin-Heavy-L" style="fill:none;stroke:#00AEEF;stroke-width:0.5;opacity:1.0;" x1="2719.33" x2="2719.33" y1="1460.79" y2="1580.12"/>
  <line id="left-margin-Black-L" style="fill:none;stroke:#00AEEF;stroke-width:0.5;opacity:1.0;" x1="2849.44" x2="2849.44" y1="1460.79" y2="1580.12"/>
  <line id="right-margin-Black-L" style="fill:none;stroke:#00AEEF;stroke-width:0.5;opacity:1.0;" x1="3017.36" x2="3017.36" y1="1460.79" y2="1580.12"/>
 </g>
 <g id="Symbols">
  <g id="Black-L" transform="matrix(1 0 0 1 2849.44 1556)">
   <path class="multicolor-0:systemGreenColor SFSymbolsPreview28CD41" d="M13.3301-89.9414Q12.207-85.0586 11.7432-79.0527Q11.2793-73.0469 11.2793-68.457Q11.2793-49.8535 16.6504-34.668Q22.0215-19.4824 32.0312-8.59375Q42.041 2.29492 56.0303 8.12988Q70.0195 13.9648 87.207 13.9648Q96.8262 13.9648 104.224 11.9629Q111.621 9.96094 117.065 6.83594Q122.51 3.71094 126.27 0.292969Q130.029-3.125 132.373-6.03027Q134.717-8.93555 135.84-10.3516L121.289-12.0117Q125.244-7.8125 127.954-3.88184Q130.664 0.0488281 132.593 4.07715Q134.521 8.10547 136.084 12.5732Q137.646 17.041 139.307 22.3145Q140.137 24.9023 141.968 26.2451Q143.799 27.5879 146.191 27.5879Q150.537 27.5879 153.589 24.2432Q156.641 20.8984 156.641 16.0156Q156.641 12.5488 154.443 8.10547Q152.246 3.66211 148.901-0.90332Q145.557-5.46875 142.041-9.39941Q138.525-13.3301 135.938-15.7227Q129.541-21.6797 122.412-25.1709Q115.283-28.6621 107.886-30.5908Q100.488-32.5195 93.2617-33.7158Q86.0352-34.9121 79.4434-36.1084Q72.8516-37.3047 67.3096-39.3555Q61.7676-41.4062 57.7148-45.0928Q53.6621-48.7793 51.6113-54.9805Q51.1719-56.1523 52.0508-56.5918Q52.9297-57.0312 53.7109-56.2012Q58.4961-50.8789 63.7451-47.9736Q68.9941-45.0684 74.6094-43.75Q80.2246-42.4316 86.084-41.9434Q91.9434-41.4551 97.9492-40.9668Q103.955-40.4785 109.985-39.2334Q116.016-37.9883 121.948-35.1807Q127.881-32.373 133.643-27.1484Q136.279-24.7559 138.965-25.5371Q141.65-26.3184 142.188-29.1016Q142.432-30.4199 142.578-32.4463Q142.725-34.4727 142.725-36.8164Q142.725-52.5391 135.962-63.5986Q129.199-74.6582 116.797-80.4443Q104.395-86.2305 87.4512-86.2305Q82.0801-86.2305 76.2451-85.498Q70.4102-84.7656 64.7705-84.0088Q59.1309-83.252 54.3457-83.252Q49.6094-83.252 44.4824-83.7402Q39.3555-84.2285 34.2773-86.3037Q29.1992-88.3789 24.4629-93.1152Q22.4121-95.1172 20.0928-95.3857Q17.7734-95.6543 15.8936-94.2627Q14.0137-92.8711 13.3301-89.9414Z"/>
  </g>
  <g id="Heavy-L" transform="matrix(1 0 0 1 2554.05 1556)">
   <path class="multicolor-0:systemGreenColor SFSymbolsPreview28CD41" d="M13.2812-89.3555Q12.207-84.4727 11.7432-78.5645Q11.2793-72.6562 11.2793-68.1641Q11.2793-49.8047 16.5527-34.8389Q21.8262-19.873 31.6406-9.10645Q41.4551 1.66016 55.1758 7.42188Q68.8965 13.1836 85.7422 13.1836Q94.873 13.1836 102.002 11.2793Q109.131 9.375 114.453 6.39648Q119.775 3.41797 123.486 0.12207Q127.197-3.17383 129.517-6.05469Q131.836-8.93555 132.959-10.5469L120.215-11.7188Q123.926-7.76367 126.514-3.97949Q129.102-0.195312 130.981 3.73535Q132.861 7.66602 134.424 12.085Q135.986 16.5039 137.646 21.7285Q138.428 24.2188 140.161 25.4639Q141.895 26.709 144.092 26.709Q148.242 26.709 151.123 23.5352Q154.004 20.3613 154.004 15.625Q154.004 12.207 151.855 7.83691Q149.707 3.4668 146.46-1.0498Q143.213-5.56641 139.795-9.42383Q136.377-13.2812 133.838-15.6738Q127.539-21.4844 120.581-24.9268Q113.623-28.3691 106.372-30.2734Q99.1211-32.1777 92.0166-33.374Q84.9121-34.5703 78.418-35.791Q71.9238-37.0117 66.4307-39.0869Q60.9375-41.1621 56.8604-44.8242Q52.7832-48.4863 50.6348-54.5898Q50.1465-55.8594 51.0986-56.4209Q52.0508-56.9824 53.0273-55.957Q57.7637-50.8301 62.9395-48.0225Q68.1152-45.2148 73.6328-43.9453Q79.1504-42.6758 84.9121-42.1631Q90.6738-41.6504 96.6064-41.1377Q102.539-40.625 108.496-39.3311Q114.453-38.0371 120.361-35.1807Q126.27-32.3242 132.08-27.0508Q134.424-24.9023 136.816-25.6104Q139.209-26.3184 139.697-28.8574Q139.941-30.1758 140.088-32.2266Q140.234-34.2773 140.234-36.5723Q140.234-52.1484 133.521-62.9395Q126.807-73.7305 114.624-79.2969Q102.441-84.8633 85.9863-84.8633Q80.7129-84.8633 75-84.1797Q69.2871-83.4961 63.7695-82.7881Q58.252-82.0801 53.5156-82.0801Q48.6328-82.0801 43.4082-82.6172Q38.1836-83.1543 33.0811-85.3027Q27.9785-87.4512 23.3398-92.2363Q21.5332-94.043 19.4092-94.3115Q17.2852-94.5801 15.5762-93.3105Q13.8672-92.041 13.2812-89.3555Z"/>
  </g>
  <g id="Bold-L" transform="matrix(1 0 0 1 2258.8 1556)">
   <path class="multicolor-0:systemGreenColor SFSymbolsPreview28CD41" d="M13.1836-88.7695Q12.1582-83.8379 11.7188-78.0029Q11.2793-72.168 11.2793-67.8711Q11.2793-49.7559 16.4307-35.0098Q21.582-20.2637 31.2012-9.66797Q40.8203 0.927734 54.2236 6.61621Q67.627 12.3047 84.082 12.3047Q92.7246 12.3047 99.5605 10.5225Q106.396 8.74023 111.548 5.93262Q116.699 3.125 120.361-0.0488281Q124.023-3.22266 126.318-6.10352Q128.613-8.98438 129.688-10.7422L118.994-11.4258Q122.412-7.71484 124.878-4.10156Q127.344-0.488281 129.175 3.34473Q131.006 7.17773 132.568 11.5479Q134.131 15.918 135.742 21.0938Q136.523 23.4863 138.135 24.6094Q139.746 25.7324 141.748 25.7324Q145.654 25.7324 148.364 22.7295Q151.074 19.7266 151.074 15.2344Q151.074 11.8652 148.999 7.54395Q146.924 3.22266 143.774-1.2207Q140.625-5.66406 137.28-9.47266Q133.936-13.2812 131.445-15.625Q125.342-21.2891 118.555-24.6582Q111.768-28.0273 104.688-29.9316Q97.6074-31.8359 90.6494-33.0322Q83.6914-34.2285 77.2949-35.4736Q70.8984-36.7188 65.4541-38.7939Q60.0098-40.8691 55.9082-44.5068Q51.8066-48.1445 49.5605-54.1504Q48.9746-55.5664 50.0488-56.2256Q51.123-56.8848 52.2461-55.7129Q56.9336-50.7324 62.0361-48.0469Q67.1387-45.3613 72.5586-44.1406Q77.9785-42.9199 83.6426-42.4316Q89.3066-41.9434 95.1172-41.3818Q100.928-40.8203 106.836-39.4531Q112.744-38.0859 118.628-35.1562Q124.512-32.2266 130.322-26.9531Q132.373-25.0977 134.448-25.7324Q136.523-26.3672 136.914-28.5645Q137.158-29.9316 137.28-31.9824Q137.402-34.0332 137.402-36.2793Q137.402-51.709 130.786-62.207Q124.17-72.7051 112.207-78.0518Q100.244-83.3984 84.3262-83.3984Q79.1504-83.3984 73.6084-82.7637Q68.0664-82.1289 62.6709-81.4697Q57.2754-80.8105 52.6367-80.8105Q47.5586-80.8105 42.2363-81.3965Q36.9141-81.9824 31.7871-84.2041Q26.6602-86.4258 22.1191-91.2109Q20.5078-92.8223 18.6523-93.0908Q16.7969-93.3594 15.2832-92.2607Q13.7695-91.1621 13.1836-88.7695Z"/>
  </g>
  <g id="Semibold-L" transform="matrix(1 0 0 1 1963.12 1556)">
   <path class="multicolor-0:systemGreenColor SFSymbolsPreview28CD41" d="M13.1348-88.3301Q12.1582-83.3984 11.7188-77.6123Q11.2793-71.8262 11.2793-67.627Q11.2793-49.707 16.3574-35.1318Q21.4355-20.5566 30.8838-10.083Q40.332 0.390625 53.5156 6.03027Q66.6992 11.6699 82.959 11.6699Q91.2109 11.6699 97.8271 9.98535Q104.443 8.30078 109.521 5.59082Q114.6 2.88086 118.213-0.195312Q121.826-3.27148 124.097-6.12793Q126.367-8.98438 127.441-10.8887L118.115-11.1816Q121.387-7.66602 123.755-4.1748Q126.123-0.683594 127.93 3.07617Q129.736 6.83594 131.274 11.1572Q132.812 15.4785 134.424 20.6543Q135.156 22.9492 136.719 23.999Q138.281 25.0488 140.137 25.0488Q143.848 25.0488 146.436 22.168Q149.023 19.2871 149.023 14.9414Q149.023 11.5723 146.997 7.2998Q144.971 3.02734 141.895-1.34277Q138.818-5.71289 135.547-9.47266Q132.275-13.2324 129.834-15.5762Q123.828-21.0938 117.139-24.4385Q110.449-27.7832 103.491-29.6631Q96.5332-31.543 89.6973-32.7637Q82.8613-33.9844 76.5137-35.2539Q70.166-36.5234 64.7461-38.5742Q59.3262-40.625 55.2246-44.2627Q51.123-47.9004 48.7793-53.8574Q48.1934-55.3223 49.3164-56.0791Q50.4395-56.8359 51.709-55.5176Q56.3477-50.6836 61.377-48.0713Q66.4062-45.459 71.7773-44.2871Q77.1484-43.1152 82.7393-42.6025Q88.3301-42.0898 94.0674-41.5039Q99.8047-40.918 105.664-39.5264Q111.523-38.1348 117.407-35.1562Q123.291-32.1777 129.102-26.8555Q130.908-25.2441 132.764-25.8057Q134.619-26.3672 134.961-28.3691Q135.205-29.7363 135.327-31.7871Q135.449-33.8379 135.449-36.084Q135.449-51.416 128.882-61.6943Q122.314-71.9727 110.522-77.1484Q98.7305-82.3242 83.1543-82.3242Q78.0762-82.3242 72.6562-81.7383Q67.2363-81.1523 61.9141-80.542Q56.5918-79.9316 52.002-79.9316Q46.7773-79.9316 41.3818-80.542Q35.9863-81.1523 30.8594-83.4229Q25.7324-85.6934 21.2891-90.5273Q19.8242-91.9922 18.1152-92.2607Q16.4062-92.5293 15.0146-91.5283Q13.623-90.5273 13.1348-88.3301Z"/>
  </g>
  <g id="Medium-L" transform="matrix(1 0 0 1 1667.19 1556)">
   <path class="multicolor-0:systemGreenColor SFSymbolsPreview28CD41" d="M13.0859-87.9883Q12.1094-83.0566 11.6943-77.3193Q11.2793-71.582 11.2793-67.4316Q11.2793-49.707 16.2842-35.2295Q21.2891-20.752 30.6396-10.376Q39.9902 0 53.0273 5.59082Q66.0645 11.1816 82.0801 11.1816Q90.0879 11.1816 96.5576 9.57031Q103.027 7.95898 108.008 5.32227Q112.988 2.68555 116.577-0.292969Q120.166-3.27148 122.437-6.12793Q124.707-8.98438 125.732-10.9863L117.48-10.9863Q120.605-7.66602 122.9-4.24805Q125.195-0.830078 126.978 2.88086Q128.76 6.5918 130.298 10.8643Q131.836 15.1367 133.447 20.3125Q134.18 22.5586 135.669 23.5596Q137.158 24.5605 138.916 24.5605Q142.48 24.5605 144.971 21.7773Q147.461 18.9941 147.461 14.7461Q147.461 11.377 145.459 7.12891Q143.457 2.88086 140.454-1.46484Q137.451-5.81055 134.229-9.52148Q131.006-13.2324 128.564-15.5273Q122.656-20.9961 116.064-24.3164Q109.473-27.6367 102.588-29.4922Q95.7031-31.3477 88.9404-32.5684Q82.1777-33.7891 75.9033-35.0586Q69.6289-36.3281 64.2334-38.4033Q58.8379-40.4785 54.7363-44.0918Q50.6348-47.7051 48.1934-53.6133Q47.5586-55.127 48.7305-55.957Q49.9023-56.7871 51.3184-55.3711Q55.957-50.6348 60.9375-48.0957Q65.918-45.5566 71.2158-44.3848Q76.5137-43.2129 82.0557-42.7246Q87.5977-42.2363 93.2861-41.626Q98.9746-41.0156 104.785-39.5752Q110.596-38.1348 116.479-35.1318Q122.363-32.1289 128.174-26.8066Q129.834-25.293 131.519-25.8545Q133.203-26.416 133.496-28.2227Q133.74-29.6387 133.862-31.665Q133.984-33.6914 133.984-35.9375Q133.984-51.1719 127.441-61.3037Q120.898-71.4355 109.253-76.4893Q97.6074-81.543 82.2754-81.543Q77.2949-81.543 71.9238-80.9814Q66.5527-80.4199 61.3281-79.834Q56.1035-79.248 51.5137-79.248Q46.1914-79.248 40.7471-79.9072Q35.3027-80.5664 30.1758-82.8613Q25.0488-85.1562 20.6055-89.9902Q19.2871-91.3574 17.7002-91.626Q16.1133-91.8945 14.8438-90.9912Q13.5742-90.0879 13.0859-87.9883Z"/>
  </g>
  <g id="Regular-L" transform="matrix(1 0 0 1 1371.48 1556)">
   <path class="multicolor-0:systemGreenColor SFSymbolsPreview28CD41" d="M13.0371-87.5488Q12.1094-82.6172 11.6943-76.9531Q11.2793-71.2891 11.2793-67.2363Q11.2793-49.6582 16.2109-35.3516Q21.1426-21.0449 30.3467-10.7666Q39.5508-0.488281 52.3682 5.05371Q65.1855 10.5957 80.957 10.5957Q88.623 10.5957 94.873 9.05762Q101.123 7.51953 106.006 5.00488Q110.889 2.49023 114.453-0.415039Q118.018-3.32031 120.264-6.15234Q122.51-8.98438 123.535-11.1328L116.65-10.791Q119.58-7.61719 121.802-4.32129Q124.023-1.02539 125.757 2.6123Q127.49 6.25 129.028 10.498Q130.566 14.7461 132.178 19.873Q132.861 22.0703 134.277 22.9736Q135.693 23.877 137.305 23.877Q140.723 23.877 143.091 21.2158Q145.459 18.5547 145.459 14.4531Q145.459 11.1328 143.506 6.93359Q141.553 2.73438 138.599-1.5625Q135.645-5.85938 132.495-9.52148Q129.346-13.1836 126.953-15.4785Q121.143-20.8496 114.673-24.1211Q108.203-27.3926 101.44-29.248Q94.6777-31.1035 88.0127-32.3242Q81.3477-33.5449 75.1465-34.8389Q68.9453-36.1328 63.5742-38.208Q58.2031-40.2832 54.0771-43.8721Q49.9512-47.4609 47.4609-53.3203Q46.7773-54.9316 48.0225-55.835Q49.2676-56.7383 50.7812-55.1758Q55.3711-50.5859 60.3027-48.1201Q65.2344-45.6543 70.459-44.5312Q75.6836-43.4082 81.1523-42.8955Q86.6211-42.3828 92.2607-41.748Q97.9004-41.1133 103.662-39.6484Q109.424-38.1836 115.283-35.1318Q121.143-32.0801 127.002-26.709Q128.418-25.4395 129.883-25.9277Q131.348-26.416 131.592-28.0273Q131.836-29.4434 131.958-31.4941Q132.08-33.5449 132.08-35.7422Q132.08-50.8789 125.586-60.8154Q119.092-70.752 107.593-75.6348Q96.0938-80.5176 81.1523-80.5176Q76.2207-80.5176 70.9717-79.9805Q65.7227-79.4434 60.5713-78.9062Q55.4199-78.3691 50.8789-78.3691Q45.459-78.3691 39.9414-79.0527Q34.4238-79.7363 29.2725-82.0801Q24.1211-84.4238 19.7754-89.3066Q18.6035-90.5273 17.1875-90.7959Q15.7715-91.0645 14.624-90.2588Q13.4766-89.4531 13.0371-87.5488Z"/>
  </g>
  <g id="Light-L" transform="matrix(1 0 0 1 1076.06 1556)">
   <path class="multicolor-0:systemGreenColor SFSymbolsPreview28CD41" d="M12.9395-87.8418Q12.1094-82.7148 11.6943-77.124Q11.2793-71.5332 11.2793-67.627Q11.2793-50.1953 16.1133-35.9863Q20.9473-21.7773 29.9316-11.5723Q38.916-1.36719 51.4404 4.15039Q63.9648 9.66797 79.3457 9.66797Q86.1328 9.66797 91.9434 8.3252Q97.7539 6.98242 102.539 4.6875Q107.324 2.39258 110.962-0.439453Q114.6-3.27148 117.065-6.37207Q119.531-9.47266 120.752-12.4023L115.186-11.3281Q117.969-8.20312 120.044-5.05371Q122.119-1.9043 123.755 1.61133Q125.391 5.12695 126.904 9.39941Q128.418 13.6719 130.078 19.0918Q130.762 21.2402 132.153 22.1191Q133.545 22.998 135.107 22.998Q138.428 22.998 140.649 20.4102Q142.871 17.8223 142.871 13.7695Q142.871 10.4004 141.016 6.17676Q139.16 1.95312 136.328-2.34375Q133.496-6.64062 130.469-10.2783Q127.441-13.916 125.098-16.1621Q119.434-21.4844 113.159-24.707Q106.885-27.9297 100.317-29.7852Q93.75-31.6406 87.2803-32.8369Q80.8105-34.0332 74.7559-35.2783Q68.7012-36.5234 63.3789-38.5254Q58.0566-40.5273 53.833-43.9697Q49.6094-47.4121 46.875-53.0762Q46.0938-54.6875 47.29-55.542Q48.4863-56.3965 49.9512-54.9316Q54.3945-50.4395 59.2285-48.0225Q64.0625-45.6055 69.165-44.5068Q74.2676-43.4082 79.6387-42.8711Q85.0098-42.334 90.5762-41.6748Q96.1426-41.0156 101.855-39.5264Q107.568-38.0371 113.428-34.9365Q119.287-31.8359 125.146-26.4648Q126.367-25.3906 127.637-25.7812Q128.906-26.1719 129.15-27.6855Q129.395-29.1992 129.517-31.2744Q129.639-33.3496 129.639-35.6934Q129.639-50.5371 123.291-60.2295Q116.943-69.9219 105.64-74.6582Q94.3359-79.3945 79.4922-79.3945Q74.707-79.3945 69.7021-78.9795Q64.6973-78.5645 59.7656-78.125Q54.834-77.6855 50.3418-77.6855Q44.4824-77.6855 38.7451-78.4912Q33.0078-79.2969 27.8564-81.7871Q22.7051-84.2773 18.6523-89.209Q17.627-90.332 16.4307-90.5518Q15.2344-90.7715 14.2578-90.0879Q13.2812-89.4043 12.9395-87.8418Z"/>
  </g>
  <g id="Thin-L" transform="matrix(1 0 0 1 781.032 1556)">
   <path class="multicolor-0:systemGreenColor SFSymbolsPreview28CD41" d="M12.8418-88.2324Q12.1582-82.8613 11.7188-77.3438Q11.2793-71.8262 11.2793-68.1641Q11.2793-50.9277 15.9912-36.8408Q20.7031-22.7539 29.3945-12.6465Q38.0859-2.53906 50.2197 2.92969Q62.3535 8.39844 77.2461 8.39844Q82.9102 8.39844 88.1348 7.34863Q93.3594 6.29883 97.9492 4.29688Q102.539 2.29492 106.323-0.488281Q110.107-3.27148 112.817-6.71387Q115.527-10.1562 117.041-14.0625L113.184-12.1094Q115.869-8.98438 117.749-6.03027Q119.629-3.07617 121.118 0.292969Q122.607 3.66211 124.072 7.93457Q125.537 12.207 127.344 18.0176Q128.027 20.1172 129.346 20.9717Q130.664 21.8262 132.227 21.8262Q135.4 21.8262 137.451 19.3115Q139.502 16.7969 139.502 12.8906Q139.502 9.42383 137.744 5.15137Q135.986 0.878906 133.325-3.39355Q130.664-7.66602 127.808-11.2793Q124.951-14.8926 122.656-17.0898Q117.188-22.3145 111.157-25.4883Q105.127-28.6621 98.8525-30.4688Q92.5781-32.2754 86.3525-33.4473Q80.127-34.6191 74.2432-35.8398Q68.3594-37.0605 63.0859-38.9404Q57.8125-40.8203 53.4912-44.1162Q49.1699-47.4121 46.0938-52.7832Q45.2148-54.3457 46.3379-55.1758Q47.4609-56.0059 48.8281-54.5898Q53.1738-50.2441 57.8613-47.9004Q62.5488-45.5566 67.5049-44.458Q72.4609-43.3594 77.6855-42.8467Q82.9102-42.334 88.3545-41.626Q93.7988-40.918 99.4629-39.3555Q105.127-37.793 110.962-34.668Q116.797-31.543 122.754-26.123Q123.682-25.3418 124.707-25.6104Q125.732-25.8789 125.928-27.1973Q126.172-28.8574 126.294-30.9814Q126.416-33.1055 126.416-35.5957Q126.416-50.0977 120.264-59.4727Q114.111-68.8477 103.052-73.3887Q91.9922-77.9297 77.3438-77.9297Q72.7539-77.9297 68.042-77.6611Q63.3301-77.3926 58.6914-77.0752Q54.0527-76.7578 49.6582-76.7578Q43.1152-76.7578 37.1094-77.7344Q31.1035-78.7109 25.9766-81.3721Q20.8496-84.0332 17.1387-89.0137Q16.4062-90.0391 15.4541-90.21Q14.502-90.3809 13.7451-89.8682Q12.9883-89.3555 12.8418-88.2324Z"/>
  </g>
  <g id="Ultralight-L" transform="matrix(1 0 0 1 485.199 1556)">
   <path class="multicolor-0:systemGreenColor SFSymbolsPreview28CD41" d="M12.7441-88.4766Q12.1582-82.959 11.7188-77.4658Q11.2793-71.9727 11.2793-68.457Q11.2793-51.2695 15.918-37.2803Q20.5566-23.291 29.126-13.208Q37.6953-3.125 49.6338 2.31934Q61.5723 7.76367 76.123 7.76367Q81.2012 7.76367 86.1328 6.83594Q91.0645 5.9082 95.6055 4.05273Q100.146 2.19727 103.979-0.512695Q107.812-3.22266 110.669-6.86035Q113.525-10.498 115.137-14.9414L112.207-12.4512Q114.746-9.375 116.553-6.54297Q118.359-3.71094 119.775-0.415039Q121.191 2.88086 122.632 7.17773Q124.072 11.4746 125.928 17.4805Q126.611 19.5801 127.905 20.3857Q129.199 21.1914 130.713 21.1914Q133.887 21.1914 135.815 18.75Q137.744 16.3086 137.744 12.4512Q137.744 8.88672 136.06 4.61426Q134.375 0.341797 131.812-3.93066Q129.248-8.20312 126.465-11.8164Q123.682-15.4297 121.436-17.5781Q116.016-22.7539 110.107-25.8789Q104.199-29.0039 98.0713-30.835Q91.9434-32.666 85.8398-33.8135Q79.7363-34.9609 73.9502-36.1328Q68.1641-37.3047 62.9395-39.1357Q57.7148-40.9668 53.3447-44.165Q48.9746-47.3633 45.7031-52.6367Q44.7266-54.1992 45.8496-54.9805Q46.9727-55.7617 48.2422-54.3945Q52.4902-50.1465 57.1045-47.8271Q61.7188-45.5078 66.6016-44.4336Q71.4844-43.3594 76.6602-42.8223Q81.8359-42.2852 87.2314-41.5527Q92.627-40.8203 98.2666-39.2578Q103.906-37.6953 109.717-34.5459Q115.527-31.3965 121.484-25.9277Q122.266-25.293 123.169-25.5127Q124.072-25.7324 124.268-26.9531Q124.512-28.6621 124.634-30.835Q124.756-33.0078 124.756-35.5469Q124.756-49.9023 118.701-59.1064Q112.646-68.3105 101.709-72.7539Q90.7715-77.1973 76.2207-77.1973Q71.7285-77.1973 67.1875-76.9775Q62.6465-76.7578 58.1543-76.5137Q53.6621-76.2695 49.2676-76.2695Q42.4805-76.2695 36.3037-77.3438Q30.127-78.418 25.0244-81.1768Q19.9219-83.9355 16.3574-88.9648Q15.7227-89.8926 14.9414-90.0391Q14.1602-90.1855 13.501-89.7461Q12.8418-89.3066 12.7441-88.4766Z"/>
  </g>
  <g id="Black-M" transform="matrix(1 0 0 1 2867.63 1126)">
   <path class="multicolor-0:systemGreenColor SFSymbolsPreview28CD41" d="M10.3516-78.1738Q9.47266-74.3652 9.10645-69.6777Q8.74023-64.9902 8.74023-61.377Q8.74023-46.7773 12.9639-34.8633Q17.1875-22.9492 25.0488-14.4287Q32.9102-5.9082 43.8721-1.31836Q54.834 3.27148 68.3105 3.27148Q75.8789 3.27148 81.6895 1.68457Q87.5 0.0976562 91.7969-2.36816Q96.0938-4.83398 99.0723-7.56836Q102.051-10.3027 103.931-12.6465Q105.811-14.9902 106.836-16.2598L94.4336-17.6758Q98.7305-13.0859 101.196-9.00879Q103.662-4.93164 105.298-0.488281Q106.934 3.95508 108.691 9.57031Q109.326 11.6699 110.84 12.793Q112.354 13.916 114.355 13.916Q117.871 13.916 120.337 11.2061Q122.803 8.49609 122.803 4.58984Q122.803 1.85547 121.069-1.66016Q119.336-5.17578 116.699-8.76465Q114.062-12.3535 111.328-15.4541Q108.594-18.5547 106.543-20.4102Q100.684-25.8789 94.0674-28.7598Q87.4512-31.6406 80.7129-33.0566Q73.9746-34.4727 67.6025-35.4004Q61.2305-36.3281 55.8105-37.793Q50.3906-39.2578 46.4355-42.2363Q42.4805-45.2148 40.625-50.7812Q40.332-51.6113 40.918-51.8555Q41.5039-52.0996 41.9434-51.6113Q46.2402-46.6309 51.0986-44.2627Q55.957-41.8945 61.1816-41.04Q66.4062-40.1855 71.8506-39.8682Q77.2949-39.5508 82.7881-38.7939Q88.2812-38.0371 93.7012-35.8398Q99.1211-33.6426 104.297-28.9551Q106.494-26.9531 108.765-27.5879Q111.035-28.2227 111.475-30.6152Q111.67-31.6406 111.792-33.2031Q111.914-34.7656 111.914-36.6699Q111.914-48.877 106.665-57.5684Q101.416-66.2598 91.6992-70.8984Q81.9824-75.5371 68.5059-75.5371Q64.2578-75.5371 59.6924-74.9512Q55.127-74.3652 50.7324-73.7793Q46.3379-73.1934 42.6758-73.1934Q38.916-73.1934 34.9609-73.584Q31.0059-73.9746 27.0996-75.5615Q23.1934-77.1484 19.5312-80.8105Q16.9922-83.3496 14.0869-82.5439Q11.1816-81.7383 10.3516-78.1738Z"/>
  </g>
  <g id="Heavy-M" transform="matrix(1 0 0 1 2571.94 1126)">
   <path class="multicolor-0:systemGreenColor SFSymbolsPreview28CD41" d="M10.3027-77.5879Q9.47266-73.7793 9.10645-69.165Q8.74023-64.5508 8.74023-60.9863Q8.74023-46.6309 12.8906-34.8877Q17.041-23.1445 24.7559-14.7461Q32.4707-6.34766 43.2373-1.83105Q54.0039 2.68555 67.2363 2.68555Q74.5117 2.68555 80.1514 1.17188Q85.791-0.341797 89.9902-2.70996Q94.1895-5.07812 97.0947-7.71484Q100-10.3516 101.831-12.6221Q103.662-14.8926 104.59-16.1621L93.6523-17.2852Q97.7051-12.9883 100.098-9.0332Q102.49-5.07812 104.126-0.683594Q105.762 3.71094 107.471 9.17969Q108.105 11.1816 109.521 12.207Q110.938 13.2324 112.793 13.2324Q116.113 13.2324 118.433 10.6689Q120.752 8.10547 120.752 4.39453Q120.752 1.66016 119.067-1.78223Q117.383-5.22461 114.819-8.74023Q112.256-12.2559 109.57-15.3076Q106.885-18.3594 104.883-20.2148Q99.1211-25.5371 92.627-28.3691Q86.1328-31.2012 79.5166-32.6172Q72.9004-34.0332 66.626-34.9854Q60.3516-35.9375 54.9805-37.4268Q49.6094-38.916 45.6543-41.9189Q41.6992-44.9219 39.7949-50.4395Q39.4531-51.3672 40.1367-51.7334Q40.8203-52.0996 41.4551-51.416Q45.7031-46.6309 50.5127-44.3604Q55.3223-42.0898 60.4492-41.2598Q65.5762-40.4297 70.9473-40.0879Q76.3184-39.7461 81.7383-38.9404Q87.1582-38.1348 92.5537-35.8887Q97.9492-33.6426 103.174-28.9062Q105.127-27.1484 107.153-27.71Q109.18-28.2715 109.57-30.4199Q109.766-31.4453 109.888-33.0078Q110.01-34.5703 110.01-36.4258Q110.01-48.584 104.785-57.0557Q99.5605-65.5273 90.0146-69.9951Q80.4688-74.4629 67.3828-74.4629Q63.2324-74.4629 58.7646-73.9014Q54.2969-73.3398 49.9512-72.7783Q45.6055-72.2168 41.9922-72.2168Q38.1836-72.2168 34.1797-72.6318Q30.1758-73.0469 26.2451-74.6582Q22.3145-76.2695 18.7012-79.9805Q16.4062-82.2754 13.7451-81.5918Q11.084-80.9082 10.3027-77.5879Z"/>
  </g>
  <g id="Bold-M" transform="matrix(1 0 0 1 2276.35 1126)">
   <path class="multicolor-0:systemGreenColor SFSymbolsPreview28CD41" d="M10.2539-76.9043Q9.42383-73.1445 9.08203-68.6035Q8.74023-64.0625 8.74023-60.5957Q8.74023-46.4355 12.793-34.9121Q16.8457-23.3887 24.4141-15.1367Q31.9824-6.88477 42.5049-2.41699Q53.0273 2.05078 66.0156 2.05078Q72.998 2.05078 78.4424 0.585938Q83.8867-0.878906 87.9639-3.125Q92.041-5.37109 94.8975-7.91016Q97.7539-10.4492 99.5117-12.6221Q101.27-14.7949 102.1-16.0645L92.8223-16.8457Q96.582-12.8906 98.9014-9.05762Q101.221-5.22461 102.856-0.90332Q104.492 3.41797 106.152 8.74023Q106.787 10.6934 108.081 11.5967Q109.375 12.5 111.035 12.5Q114.111 12.5 116.309 10.1074Q118.506 7.71484 118.506 4.15039Q118.506 1.51367 116.87-1.87988Q115.234-5.27344 112.72-8.74023Q110.205-12.207 107.593-15.1855Q104.98-18.1641 103.027-19.9707Q97.4121-25.1953 91.0645-27.9785Q84.7168-30.7617 78.1982-32.1777Q71.6797-33.5938 65.5029-34.5703Q59.3262-35.5469 54.0283-37.0605Q48.7305-38.5742 44.7998-41.5771Q40.8691-44.5801 38.8672-50.0977Q38.4766-51.123 39.2822-51.6113Q40.0879-52.0996 40.918-51.2207Q45.166-46.6309 49.8779-44.458Q54.5898-42.2852 59.6436-41.4795Q64.6973-40.6738 69.9707-40.332Q75.2441-39.9902 80.5908-39.1113Q85.9375-38.2324 91.3086-35.9375Q96.6797-33.6426 101.904-28.8574Q103.613-27.3438 105.371-27.8564Q107.129-28.3691 107.422-30.2246Q107.617-31.25 107.739-32.8369Q107.861-34.4238 107.861-36.1816Q107.861-48.2422 102.661-56.4941Q97.4609-64.7461 88.1104-68.9941Q78.7598-73.2422 66.1621-73.2422Q62.1094-73.2422 57.7148-72.7295Q53.3203-72.2168 49.0723-71.6797Q44.8242-71.1426 41.2109-71.1426Q37.3535-71.1426 33.3008-71.5576Q29.248-71.9727 25.293-73.6328Q21.3379-75.293 17.7734-79.0039Q15.7227-81.0547 13.3545-80.4932Q10.9863-79.9316 10.2539-76.9043Z"/>
  </g>
  <g id="Semibold-M" transform="matrix(1 0 0 1 1980.45 1126)">
   <path class="multicolor-0:systemGreenColor SFSymbolsPreview28CD41" d="M10.2051-76.4648Q9.42383-72.6562 9.08203-68.1641Q8.74023-63.6719 8.74023-60.3027Q8.74023-46.2891 12.7197-34.9121Q16.6992-23.5352 24.1455-15.3809Q31.5918-7.22656 41.9922-2.80762Q52.3926 1.61133 65.1367 1.61133Q71.9238 1.61133 77.2461 0.195312Q82.5684-1.2207 86.5723-3.39355Q90.5762-5.56641 93.3594-8.00781Q96.1426-10.4492 97.8516-12.5977Q99.5605-14.7461 100.342-15.9668L92.2363-16.5039Q95.752-12.793 98.0225-9.05762Q100.293-5.32227 101.929-1.0498Q103.564 3.22266 105.225 8.44727Q105.811 10.3027 107.056 11.1328Q108.301 11.9629 109.814 11.9629Q112.744 11.9629 114.819 9.66797Q116.895 7.37305 116.895 3.95508Q116.895 1.36719 115.308-1.95312Q113.721-5.27344 111.255-8.69141Q108.789-12.1094 106.201-15.0391Q103.613-17.9688 101.709-19.8242Q96.1914-24.9023 89.9414-27.6611Q83.6914-30.4199 77.2705-31.8359Q70.8496-33.252 64.7461-34.2285Q58.6426-35.2051 53.3691-36.7676Q48.0957-38.3301 44.165-41.333Q40.2344-44.3359 38.2324-49.8047Q37.793-50.9277 38.6719-51.4893Q39.5508-52.0508 40.5273-51.0742Q44.7266-46.6309 49.4141-44.5312Q54.1016-42.4316 59.082-41.6504Q64.0625-40.8691 69.2627-40.5029Q74.4629-40.1367 79.7852-39.209Q85.1074-38.2812 90.4297-35.9619Q95.752-33.6426 100.977-28.8086Q102.539-27.4414 104.102-27.9297Q105.664-28.418 105.957-30.0781Q106.152-31.1035 106.25-32.6904Q106.348-34.2773 106.348-35.9863Q106.348-47.998 101.196-56.1035Q96.0449-64.209 86.792-68.3105Q77.5391-72.4121 65.332-72.4121Q61.2793-72.4121 56.9824-71.8994Q52.6855-71.3867 48.4863-70.874Q44.2871-70.3613 40.625-70.3613Q36.7676-70.3613 32.6904-70.8008Q28.6133-71.2402 24.6338-72.9248Q20.6543-74.6094 17.0898-78.3691Q15.2832-80.2246 13.0859-79.7607Q10.8887-79.2969 10.2051-76.4648Z"/>
  </g>
  <g id="Medium-M" transform="matrix(1 0 0 1 1684.32 1126)">
   <path class="multicolor-0:systemGreenColor SFSymbolsPreview28CD41" d="M10.2051-76.0742Q9.375-72.3145 9.05762-67.8711Q8.74023-63.4277 8.74023-60.1074Q8.74023-46.2402 12.6953-34.9609Q16.6504-23.6816 23.999-15.5762Q31.3477-7.4707 41.6016-3.10059Q51.8555 1.26953 64.502 1.26953Q71.0938 1.26953 76.3428-0.0976562Q81.5918-1.46484 85.5225-3.58887Q89.4531-5.71289 92.2119-8.10547Q94.9707-10.498 96.6553-12.5732Q98.3398-14.6484 99.0234-15.918L91.7969-16.2598Q95.166-12.7441 97.3877-9.05762Q99.6094-5.37109 101.245-1.14746Q102.881 3.07617 104.541 8.20312Q105.127 10.0098 106.299 10.791Q107.471 11.5723 108.887 11.5723Q111.719 11.5723 113.721 9.375Q115.723 7.17773 115.723 3.80859Q115.723 1.26953 114.136-2.00195Q112.549-5.27344 110.132-8.66699Q107.715-12.0605 105.176-14.9658Q102.637-17.8711 100.732-19.6777Q95.2637-24.707 89.0869-27.4414Q82.9102-30.1758 76.5625-31.5918Q70.2148-33.0078 64.1602-34.0088Q58.1055-35.0098 52.8564-36.5723Q47.6074-38.1348 43.7012-41.1621Q39.7949-44.1895 37.7441-49.6094Q37.3047-50.8301 38.2324-51.4404Q39.1602-52.0508 40.2344-50.9766Q44.4336-46.6309 49.0723-44.5801Q53.7109-42.5293 58.667-41.748Q63.623-40.9668 68.75-40.6006Q73.877-40.2344 79.1504-39.3066Q84.4238-38.3789 89.7461-36.0107Q95.0684-33.6426 100.342-28.8086Q101.709-27.5391 103.149-28.0029Q104.59-28.4668 104.834-29.9805Q105.029-31.0059 105.127-32.5928Q105.225-34.1797 105.225-35.8398Q105.225-47.8027 100.073-55.7861Q94.9219-63.7695 85.791-67.7734Q76.6602-71.7773 64.6484-71.7773Q60.6934-71.7773 56.4209-71.2891Q52.1484-70.8008 47.998-70.2881Q43.8477-69.7754 40.2344-69.7754Q36.377-69.7754 32.251-70.2393Q28.125-70.7031 24.1455-72.4121Q20.166-74.1211 16.6016-77.832Q14.8926-79.5898 12.8662-79.1748Q10.8398-78.7598 10.2051-76.0742Z"/>
  </g>
  <g id="Regular-M" transform="matrix(1 0 0 1 1388.39 1126)">
   <path class="multicolor-0:systemGreenColor SFSymbolsPreview28CD41" d="M10.1562-75.6348Q9.375-71.875 9.05762-67.4805Q8.74023-63.0859 8.74023-59.8145Q8.74023-46.0938 12.6221-34.9609Q16.5039-23.8281 23.7549-15.8203Q31.0059-7.8125 41.1133-3.49121Q51.2207 0.830078 63.6719 0.830078Q70.0684 0.830078 75.1709-0.488281Q80.2734-1.80664 84.1309-3.85742Q87.9883-5.9082 90.6982-8.22754Q93.4082-10.5469 95.0439-12.5732Q96.6797-14.5996 97.3145-15.8203L91.2109-15.9668Q94.3848-12.6465 96.5576-9.05762Q98.7305-5.46875 100.366-1.29395Q102.002 2.88086 103.613 7.91016Q104.199 9.66797 105.298 10.376Q106.396 11.084 107.666 11.084Q110.352 11.084 112.256 8.98438Q114.16 6.88477 114.16 3.66211Q114.16 1.12305 112.622-2.09961Q111.084-5.32227 108.716-8.66699Q106.348-12.0117 103.833-14.8682Q101.318-17.7246 99.4629-19.5312Q94.0918-24.4629 88.0127-27.1484Q81.9336-29.834 75.6592-31.25Q69.3848-32.666 63.4033-33.6914Q57.4219-34.7168 52.2217-36.3037Q47.0215-37.8906 43.1152-40.918Q39.209-43.9453 37.1094-49.3652Q36.6211-50.6348 37.6221-51.3428Q38.623-52.0508 39.8438-50.8301Q44.043-46.6309 48.6328-44.6533Q53.2227-42.6758 58.1055-41.9189Q62.9883-41.1621 68.0664-40.7715Q73.1445-40.3809 78.3691-39.4043Q83.5938-38.4277 88.8916-36.0352Q94.1895-33.6426 99.4629-28.7598Q100.684-27.6855 101.929-28.1006Q103.174-28.5156 103.369-29.834Q103.564-30.8594 103.662-32.4463Q103.76-34.0332 103.76-35.6445Q103.76-47.5586 98.6328-55.3955Q93.5059-63.2324 84.4971-67.0898Q75.4883-70.9473 63.8184-70.9473Q59.9121-70.9473 55.7129-70.4834Q51.5137-70.0195 47.4121-69.5312Q43.3105-69.043 39.6973-69.043Q35.791-69.043 31.6406-69.5068Q27.4902-69.9707 23.4863-71.7041Q19.4824-73.4375 15.9668-77.1973Q14.4531-78.7598 12.5977-78.4424Q10.7422-78.125 10.1562-75.6348Z"/>
  </g>
  <g id="Light-M" transform="matrix(1 0 0 1 1092.83 1126)">
   <path class="multicolor-0:systemGreenColor SFSymbolsPreview28CD41" d="M10.0586-75.8789Q9.375-71.9727 9.05762-67.627Q8.74023-63.2812 8.74023-60.1562Q8.74023-46.582 12.5244-35.5469Q16.3086-24.5117 23.3887-16.5527Q30.4688-8.59375 40.3076-4.29688Q50.1465 0 62.207 0Q67.8711 0 72.583-1.14746Q77.2949-2.29492 81.0303-4.15039Q84.7656-6.00586 87.5488-8.25195Q90.332-10.498 92.1631-12.7686Q93.9941-15.0391 94.8242-16.9434L89.8926-16.4551Q92.9199-13.1836 94.9219-9.79004Q96.9238-6.39648 98.4863-2.29492Q100.049 1.80664 101.758 7.17773Q102.295 8.93555 103.369 9.61914Q104.443 10.3027 105.713 10.3027Q108.301 10.3027 110.083 8.25195Q111.865 6.20117 111.865 3.07617Q111.865 0.439453 110.4-2.80762Q108.936-6.05469 106.689-9.39941Q104.443-12.7441 102.026-15.5762Q99.6094-18.4082 97.8027-20.166Q92.5781-25 86.7188-27.6611Q80.8594-30.3223 74.8047-31.7139Q68.75-33.1055 62.9395-34.1064Q57.1289-35.1074 52.002-36.6211Q46.875-38.1348 42.8955-41.04Q38.916-43.9453 36.5723-49.1699Q36.0352-50.4395 36.9873-51.0986Q37.9395-51.7578 39.1113-50.5859Q43.1641-46.4844 47.6318-44.5557Q52.0996-42.627 56.8848-41.8945Q61.6699-41.1621 66.6504-40.7471Q71.6309-40.332 76.7822-39.3311Q81.9336-38.3301 87.207-35.8887Q92.4805-33.4473 97.8027-28.5156Q98.8281-27.6367 99.9268-27.9785Q101.025-28.3203 101.172-29.4922Q101.367-30.6152 101.465-32.251Q101.562-33.8867 101.562-35.5957Q101.562-47.2656 96.582-54.8828Q91.6016-62.5 82.7393-66.2354Q73.877-69.9707 62.3535-69.9707Q58.5449-69.9707 54.5654-69.6045Q50.5859-69.2383 46.6797-68.8232Q42.7734-68.4082 39.2578-68.4082Q34.9121-68.4082 30.5664-68.9941Q26.2207-69.5801 22.2168-71.4355Q18.2129-73.291 14.9414-77.0996Q13.6719-78.5156 12.085-78.2227Q10.498-77.9297 10.0586-75.8789Z"/>
  </g>
  <g id="Thin-M" transform="matrix(1 0 0 1 797.633 1126)">
   <path class="multicolor-0:systemGreenColor SFSymbolsPreview28CD41" d="M9.96094-76.2207Q9.42383-72.1191 9.08203-67.8223Q8.74023-63.5254 8.74023-60.6445Q8.74023-47.2656 12.4023-36.3281Q16.0645-25.3906 22.876-17.5049Q29.6875-9.61914 39.1846-5.37109Q48.6816-1.12305 60.3027-1.12305Q64.9414-1.12305 69.1162-2.00195Q73.291-2.88086 76.9043-4.49219Q80.5176-6.10352 83.4229-8.30078Q86.3281-10.498 88.3789-13.0615Q90.4297-15.625 91.5039-18.457L88.1348-17.1387Q90.9668-13.916 92.749-10.791Q94.5312-7.66602 95.9717-3.6377Q97.4121 0.390625 99.2676 6.25Q99.8047 7.91016 100.854 8.56934Q101.904 9.22852 103.076 9.22852Q105.615 9.22852 107.227 7.27539Q108.838 5.32227 108.838 2.24609Q108.838-0.439453 107.471-3.73535Q106.104-7.03125 104.004-10.3516Q101.904-13.6719 99.6338-16.4795Q97.3633-19.2871 95.6055-20.9961Q90.5762-25.7324 84.9854-28.3447Q79.3945-30.957 73.6328-32.3242Q67.8711-33.6914 62.3047-34.668Q56.7383-35.6445 51.7334-37.0605Q46.7285-38.4766 42.6514-41.2109Q38.5742-43.9453 35.8887-48.9258Q35.2051-50.1465 36.1084-50.7812Q37.0117-51.416 38.0859-50.293Q42.041-46.3379 46.3379-44.4824Q50.6348-42.627 55.2734-41.8701Q59.9121-41.1133 64.7705-40.6738Q69.6289-40.2344 74.707-39.1846Q79.7852-38.1348 85.0098-35.6445Q90.2344-33.1543 95.6543-28.2227Q96.4355-27.5879 97.29-27.832Q98.1445-28.0762 98.291-29.1016Q98.4863-30.3223 98.584-31.9824Q98.6816-33.6426 98.6816-35.5469Q98.6816-46.875 93.8721-54.1992Q89.0625-61.5234 80.4199-65.0879Q71.7773-68.6523 60.4004-68.6523Q56.7871-68.6523 53.0762-68.4082Q49.3652-68.1641 45.7275-67.8711Q42.0898-67.5781 38.623-67.5781Q33.7402-67.5781 29.126-68.3105Q24.5117-69.043 20.5322-71.0693Q16.5527-73.0957 13.623-76.9531Q12.6465-78.1738 11.4258-77.9297Q10.2051-77.6855 9.96094-76.2207Z"/>
  </g>
  <g id="Ultralight-M" transform="matrix(1 0 0 1 501.703 1126)">
   <path class="multicolor-0:systemGreenColor SFSymbolsPreview28CD41" d="M9.91211-76.416Q9.42383-72.2168 9.08203-67.9199Q8.74023-63.623 8.74023-60.8887Q8.74023-47.6074 12.3535-36.7188Q15.9668-25.8301 22.6562-17.9932Q29.3457-10.1562 38.6475-5.93262Q47.9492-1.70898 59.3262-1.70898Q63.4277-1.70898 67.3584-2.46582Q71.2891-3.22266 74.8291-4.71191Q78.3691-6.20117 81.2988-8.3252Q84.2285-10.4492 86.4014-13.1836Q88.5742-15.918 89.8438-19.2383L87.2559-17.4805Q89.9902-14.2578 91.626-11.2793Q93.2617-8.30078 94.6777-4.32129Q96.0938-0.341797 98.0469 5.76172Q98.5352 7.42188 99.5605 8.05664Q100.586 8.69141 101.758 8.69141Q104.199 8.69141 105.737 6.7627Q107.275 4.83398 107.275 1.85547Q107.275-0.878906 105.957-4.19922Q104.639-7.51953 102.612-10.8398Q100.586-14.1602 98.4131-16.9434Q96.2402-19.7266 94.4824-21.3867Q89.5508-26.0742 84.1064-28.6865Q78.6621-31.2988 73.0469-32.6416Q67.4316-33.9844 61.9629-34.9365Q56.4941-35.8887 51.5625-37.2803Q46.6309-38.6719 42.5049-41.3086Q38.3789-43.9453 35.498-48.7793Q34.8145-50 35.6689-50.6104Q36.5234-51.2207 37.5977-50.1465Q41.4551-46.2402 45.6787-44.4092Q49.9023-42.5781 54.4434-41.8457Q58.9844-41.1133 63.7939-40.6494Q68.6035-40.1855 73.6328-39.1357Q78.6621-38.0859 83.8867-35.5469Q89.1113-33.0078 94.5312-28.0762Q95.166-27.5391 95.9229-27.7344Q96.6797-27.9297 96.8262-28.8574Q96.9727-30.1758 97.0703-31.8604Q97.168-33.5449 97.168-35.498Q97.168-46.6309 92.4561-53.833Q87.7441-61.0352 79.2236-64.5264Q70.7031-68.0176 59.4238-68.0176Q55.8594-68.0176 52.2949-67.8223Q48.7305-67.627 45.2148-67.4072Q41.6992-67.1875 38.3301-67.1875Q33.1055-67.1875 28.3691-67.9932Q23.6328-68.7988 19.6777-70.8984Q15.7227-72.998 12.9395-76.8555Q12.1582-77.9785 11.1084-77.7588Q10.0586-77.5391 9.91211-76.416Z"/>
  </g>
  <g id="Black-S" transform="matrix(1 0 0 1 2881.64 696)">
   <path class="multicolor-0:systemGreenColor SFSymbolsPreview28CD41" d="M8.10547-69.0918Q7.42188-66.1133 7.12891-62.4023Q6.83594-58.6914 6.83594-55.8594Q6.83594-44.3359 10.1562-34.9609Q13.4766-25.5859 19.6777-18.8721Q25.8789-12.1582 34.5215-8.54492Q43.1641-4.93164 53.7598-4.93164Q61.1816-4.93164 66.5039-6.81152Q71.8262-8.69141 75.3906-11.4014Q78.9551-14.1113 81.0791-16.6504Q83.2031-19.1895 84.2285-20.459L74.1211-21.6309Q77.5879-17.9688 79.541-14.7217Q81.4941-11.4746 82.7637-8.00781Q84.0332-4.54102 85.4004-0.0488281Q85.9375 1.61133 87.1338 2.51465Q88.3301 3.41797 89.9414 3.41797Q92.7734 3.41797 94.7266 1.26953Q96.6797-0.878906 96.6797-4.00391Q96.6797-6.15234 95.3125-8.93555Q93.9453-11.7188 91.8701-14.5508Q89.7949-17.3828 87.6465-19.8242Q85.498-22.2656 83.8867-23.7305Q79.248-28.0273 74.0479-30.2979Q68.8477-32.5684 63.5254-33.667Q58.2031-34.7656 53.1982-35.498Q48.1934-36.2305 43.9453-37.3535Q39.6973-38.4766 36.5967-40.7959Q33.4961-43.1152 32.0312-47.5098Q31.8359-48.1445 32.251-48.291Q32.666-48.4375 32.959-48.0957Q36.3281-44.1406 40.1367-42.2607Q43.9453-40.3809 48.0713-39.6973Q52.1973-39.0137 56.4697-38.7695Q60.7422-38.5254 65.0635-37.9639Q69.3848-37.4023 73.6328-35.6934Q77.8809-33.9844 81.9336-30.3223Q83.7402-28.7109 85.5957-29.1992Q87.4512-29.6875 87.793-31.6406Q87.9395-32.4707 88.0371-33.6914Q88.1348-34.9121 88.1348-36.4258Q88.1348-45.9961 84.0332-52.8564Q79.9316-59.7168 72.2656-63.4033Q64.5996-67.0898 53.9062-67.0898Q48.9258-67.0898 43.4326-66.1621Q37.9395-65.2344 33.5938-65.2344Q30.6641-65.2344 27.5635-65.5273Q24.4629-65.8203 21.4111-67.0898Q18.3594-68.3594 15.4785-71.1914Q13.4277-73.2422 11.1084-72.583Q8.78906-71.9238 8.10547-69.0918Z"/>
  </g>
  <g id="Heavy-S" transform="matrix(1 0 0 1 2585.66 696)">
   <path class="multicolor-0:systemGreenColor SFSymbolsPreview28CD41" d="M8.10547-68.5547Q7.42188-65.5762 7.12891-61.9385Q6.83594-58.3008 6.83594-55.4688Q6.83594-44.1406 10.1074-34.9121Q13.3789-25.6836 19.458-19.0674Q25.5371-12.4512 34.0576-8.88672Q42.5781-5.32227 52.9785-5.32227Q60.2539-5.32227 65.4785-7.15332Q70.7031-8.98438 74.1699-11.5967Q77.6367-14.209 79.6875-16.6504Q81.7383-19.0918 82.6172-20.2148L73.6328-21.2402Q76.9043-17.8223 78.8086-14.6484Q80.7129-11.4746 82.0068-8.05664Q83.3008-4.63867 84.6191-0.292969Q85.1074 1.31836 86.2305 2.12402Q87.3535 2.92969 88.8672 2.92969Q91.5039 2.92969 93.3594 0.90332Q95.2148-1.12305 95.2148-4.10156Q95.2148-6.20117 93.8721-8.93555Q92.5293-11.6699 90.5029-14.4531Q88.4766-17.2363 86.377-19.6289Q84.2773-22.0215 82.666-23.4863Q78.125-27.6855 72.998-29.9072Q67.8711-32.1289 62.6221-33.252Q57.373-34.375 52.417-35.1074Q47.4609-35.8398 43.2617-37.0117Q39.0625-38.1836 35.9619-40.5273Q32.8613-42.8711 31.3965-47.2656Q31.1523-47.9492 31.665-48.1934Q32.1777-48.4375 32.6172-47.9492Q35.9863-44.1406 39.7705-42.334Q43.5547-40.5273 47.6074-39.8682Q51.6602-39.209 55.8838-38.9648Q60.1074-38.7207 64.3799-38.1104Q68.6523-37.5 72.876-35.7422Q77.0996-33.9844 81.1523-30.3223Q82.8125-28.8574 84.4727-29.3213Q86.1328-29.7852 86.4258-31.543Q86.5723-32.3242 86.6699-33.5449Q86.7676-34.7656 86.7676-36.2305Q86.7676-45.8008 82.666-52.4902Q78.5645-59.1797 71.0205-62.7441Q63.4766-66.3086 53.125-66.3086Q48.2422-66.3086 42.8223-65.3809Q37.4023-64.4531 33.0566-64.4531Q30.127-64.4531 27.0264-64.7705Q23.9258-65.0879 20.8496-66.3574Q17.7734-67.627 14.8926-70.459Q13.0371-72.3633 10.8887-71.8018Q8.74023-71.2402 8.10547-68.5547Z"/>
  </g>
  <g id="Bold-S" transform="matrix(1 0 0 1 2289.73 696)">
   <path class="multicolor-0:systemGreenColor SFSymbolsPreview28CD41" d="M8.05664-67.9199Q7.42188-65.0391 7.12891-61.4258Q6.83594-57.8125 6.83594-55.0781Q6.83594-43.9453 10.0586-34.8633Q13.2812-25.7812 19.2383-19.2871Q25.1953-12.793 33.5449-9.27734Q41.8945-5.76172 52.1484-5.76172Q59.2773-5.76172 64.3555-7.54395Q69.4336-9.32617 72.8271-11.8408Q76.2207-14.3555 78.1494-16.6504Q80.0781-18.9453 80.8594-19.9707L73.1445-20.8008Q76.123-17.627 78.0029-14.5508Q79.8828-11.4746 81.1768-8.10547Q82.4707-4.73633 83.7402-0.585938Q84.2285 0.976562 85.2783 1.70898Q86.3281 2.44141 87.6465 2.44141Q90.1367 2.44141 91.8945 0.512695Q93.6523-1.41602 93.6523-4.24805Q93.6523-6.29883 92.334-8.95996Q91.0156-11.6211 89.0137-14.3311Q87.0117-17.041 84.9365-19.3848Q82.8613-21.7285 81.2988-23.1934Q76.8555-27.2949 71.8262-29.4922Q66.7969-31.6895 61.6211-32.7881Q56.4453-33.8867 51.5625-34.668Q46.6797-35.4492 42.5049-36.6455Q38.3301-37.8418 35.2539-40.21Q32.1777-42.5781 30.6641-46.9727Q30.4199-47.8027 31.0303-48.1445Q31.6406-48.4863 32.2754-47.8516Q35.6445-44.1895 39.3799-42.4561Q43.1152-40.7227 47.0947-40.0879Q51.0742-39.4531 55.249-39.1846Q59.4238-38.916 63.6475-38.2568Q67.8711-37.5977 72.0703-35.8154Q76.2695-34.0332 80.3223-30.3223Q81.7871-29.0527 83.2275-29.4678Q84.668-29.8828 84.9121-31.3965Q85.0586-32.2266 85.1562-33.4473Q85.2539-34.668 85.2539-36.0352Q85.2539-45.5566 81.1523-52.0996Q77.0508-58.6426 69.6533-62.0361Q62.2559-65.4297 52.2949-65.4297Q47.4609-65.4297 42.1143-64.5264Q36.7676-63.623 32.4707-63.623Q29.5898-63.623 26.4648-63.9404Q23.3398-64.2578 20.2393-65.5273Q17.1387-66.7969 14.2578-69.6777Q12.5977-71.3379 10.6445-70.8984Q8.69141-70.459 8.05664-67.9199Z"/>
  </g>
  <g id="Semibold-S" transform="matrix(1 0 0 1 1993.58 696)">
   <path class="multicolor-0:systemGreenColor SFSymbolsPreview28CD41" d="M8.05664-67.4805Q7.37305-64.5996 7.10449-61.0352Q6.83594-57.4707 6.83594-54.7852Q6.83594-43.75 10.0098-34.79Q13.1836-25.8301 19.0674-19.4092Q24.9512-12.9883 33.2031-9.52148Q41.4551-6.05469 51.5625-6.05469Q58.5449-6.05469 63.5498-7.78809Q68.5547-9.52148 71.875-11.9873Q75.1953-14.4531 77.0508-16.6504Q78.9062-18.8477 79.5898-19.7754L72.7539-20.459Q75.5859-17.4805 77.417-14.4775Q79.248-11.4746 80.5664-8.12988Q81.8848-4.78516 83.1543-0.732422Q83.5938 0.732422 84.5703 1.3916Q85.5469 2.05078 86.7676 2.05078Q89.1602 2.05078 90.8447 0.244141Q92.5293-1.5625 92.5293-4.3457Q92.5293-6.34766 91.2109-8.95996Q89.8926-11.5723 87.9395-14.2334Q85.9863-16.8945 83.9355-19.2139Q81.8848-21.5332 80.3711-22.9492Q75.9766-27.002 71.0205-29.1748Q66.0645-31.3477 60.9375-32.4463Q55.8105-33.5449 50.9521-34.3506Q46.0938-35.1562 41.9434-36.377Q37.793-37.5977 34.7168-39.9902Q31.6406-42.3828 30.1758-46.7285Q29.8828-47.6562 30.5664-48.0713Q31.25-48.4863 32.0312-47.7051Q35.3516-44.1895 39.0625-42.5293Q42.7734-40.8691 46.7285-40.2344Q50.6836-39.5996 54.7852-39.3066Q58.8867-39.0137 63.0859-38.3301Q67.2852-37.6465 71.46-35.8398Q75.6348-34.0332 79.7363-30.2734Q81.0547-29.1504 82.3486-29.541Q83.6426-29.9316 83.8867-31.2988Q84.0332-32.0801 84.1064-33.3008Q84.1797-34.5215 84.1797-35.8398Q84.1797-45.3613 80.1025-51.7822Q76.0254-58.2031 68.7012-61.499Q61.377-64.7949 51.709-64.7949Q46.9238-64.7949 41.626-63.916Q36.3281-63.0371 32.0801-63.0371Q29.1504-63.0371 26.0254-63.3545Q22.9004-63.6719 19.7754-64.9414Q16.6504-66.2109 13.7695-69.1406Q12.2559-70.6543 10.4492-70.2637Q8.64258-69.873 8.05664-67.4805Z"/>
  </g>
  <g id="Medium-S" transform="matrix(1 0 0 1 1697.31 696)">
   <path class="multicolor-0:systemGreenColor SFSymbolsPreview28CD41" d="M8.00781-67.1875Q7.37305-64.3066 7.10449-60.7666Q6.83594-57.2266 6.83594-54.5898Q6.83594-43.6523 9.98535-34.79Q13.1348-25.9277 18.9453-19.5557Q24.7559-13.1836 32.9102-9.74121Q41.0645-6.29883 51.123-6.29883Q58.0078-6.29883 62.9639-8.00781Q67.9199-9.7168 71.167-12.1094Q74.4141-14.502 76.2207-16.6504Q78.0273-18.7988 78.6621-19.6777L72.4609-20.2148Q75.1953-17.4316 77.002-14.4531Q78.8086-11.4746 80.127-8.1543Q81.4453-4.83398 82.666-0.878906Q83.1543 0.537109 84.082 1.14746Q85.0098 1.75781 86.1328 1.75781Q88.4277 1.75781 90.0391 0.0244141Q91.6504-1.70898 91.6504-4.39453Q91.6504-6.39648 90.3809-8.95996Q89.1113-11.5234 87.1826-14.1846Q85.2539-16.8457 83.2031-19.1162Q81.1523-21.3867 79.6387-22.8027Q75.3418-26.8066 70.4102-28.9551Q65.4785-31.1035 60.4004-32.2021Q55.3223-33.3008 50.4883-34.1309Q45.6543-34.9609 41.5283-36.2061Q37.4023-37.4512 34.3506-39.8438Q31.2988-42.2363 29.7852-46.582Q29.4922-47.5586 30.249-48.0469Q31.0059-48.5352 31.8359-47.6562Q35.1562-44.2383 38.8428-42.5781Q42.5293-40.918 46.4355-40.332Q50.3418-39.7461 54.4434-39.4287Q58.5449-39.1113 62.6953-38.4277Q66.8457-37.7441 71.0205-35.9131Q75.1953-34.082 79.2969-30.2734Q80.5176-29.248 81.6895-29.6387Q82.8613-30.0293 83.0566-31.25Q83.2031-32.0312 83.2764-33.252Q83.3496-34.4727 83.3496-35.7422Q83.3496-45.2148 79.2725-51.5625Q75.1953-57.9102 67.9443-61.1084Q60.6934-64.3066 51.2695-64.3066Q46.5332-64.3066 41.2842-63.4521Q36.0352-62.5977 31.7383-62.5977Q28.8574-62.5977 25.708-62.915Q22.5586-63.2324 19.4336-64.5264Q16.3086-65.8203 13.4277-68.7012Q12.0117-70.1172 10.3027-69.7998Q8.59375-69.4824 8.00781-67.1875Z"/>
  </g>
  <g id="Regular-S" transform="matrix(1 0 0 1 1401.14 696)">
   <path class="multicolor-0:systemGreenColor SFSymbolsPreview28CD41" d="M8.00781-66.748Q7.37305-63.916 7.10449-60.4248Q6.83594-56.9336 6.83594-54.2969Q6.83594-43.5059 9.93652-34.7412Q13.0371-25.9766 18.7744-19.6777Q24.5117-13.3789 32.5684-9.98535Q40.625-6.5918 50.5371-6.5918Q57.3242-6.5918 62.1826-8.25195Q67.041-9.91211 70.2393-12.2559Q73.4375-14.5996 75.1709-16.6504Q76.9043-18.7012 77.4414-19.4824L72.1191-19.9219Q74.6582-17.2852 76.4404-14.3799Q78.2227-11.4746 79.541-8.17871Q80.8594-4.88281 82.0801-1.07422Q82.5195 0.292969 83.3984 0.854492Q84.2773 1.41602 85.3027 1.41602Q87.4512 1.41602 89.0137-0.244141Q90.5762-1.9043 90.5762-4.49219Q90.5762-6.44531 89.3066-8.95996Q88.0371-11.4746 86.1328-14.0869Q84.2285-16.6992 82.2266-18.9453Q80.2246-21.1914 78.7109-22.6074Q74.4629-26.5137 69.6045-28.6377Q64.7461-30.7617 59.7168-31.8848Q54.6875-33.0078 49.9023-33.8379Q45.1172-34.668 41.0156-35.9375Q36.9141-37.207 33.8623-39.624Q30.8105-42.041 29.2969-46.3867Q28.9551-47.4121 29.7852-47.9736Q30.6152-48.5352 31.5918-47.5586Q34.9121-44.2383 38.5742-42.6514Q42.2363-41.0645 46.0938-40.4785Q49.9512-39.8926 54.0039-39.5752Q58.0566-39.2578 62.1826-38.5254Q66.3086-37.793 70.459-35.9375Q74.6094-34.082 78.7109-30.2734Q79.7852-29.3457 80.8105-29.7119Q81.8359-30.0781 82.0312-31.1523Q82.1777-31.9336 82.251-33.1543Q82.3242-34.375 82.3242-35.5957Q82.3242-45.0684 78.2471-51.2939Q74.1699-57.5195 67.0166-60.6201Q59.8633-63.7207 50.6836-63.7207Q45.9961-63.7207 40.7959-62.8662Q35.5957-62.0117 31.3477-62.0117Q28.4668-62.0117 25.3174-62.3291Q22.168-62.6465 19.0186-63.9404Q15.8691-65.2344 12.9883-68.1641Q11.7188-69.4336 10.1318-69.1895Q8.54492-68.9453 8.00781-66.748Z"/>
  </g>
  <g id="Light-S" transform="matrix(1 0 0 1 1105.45 696)">
   <path class="multicolor-0:systemGreenColor SFSymbolsPreview28CD41" d="M7.91016-66.9922Q7.37305-64.0137 7.10449-60.5469Q6.83594-57.0801 6.83594-54.6387Q6.83594-43.9453 9.86328-35.2539Q12.8906-26.5625 18.457-20.3125Q24.0234-14.0625 31.8359-10.6934Q39.6484-7.32422 49.2676-7.32422Q55.1758-7.32422 59.7168-8.76465Q64.2578-10.2051 67.4561-12.3535Q70.6543-14.502 72.583-16.7236Q74.5117-18.9453 75.2441-20.459L70.9473-20.3613Q73.3398-17.7734 74.9756-15.0391Q76.6113-12.3047 77.8564-9.05762Q79.1016-5.81055 80.4199-1.70898Q80.8594-0.390625 81.7139 0.170898Q82.5684 0.732422 83.5449 0.732422Q85.6445 0.732422 87.085-0.878906Q88.5254-2.49023 88.5254-5.0293Q88.5254-7.03125 87.3291-9.57031Q86.1328-12.1094 84.3262-14.7217Q82.5195-17.334 80.6152-19.5557Q78.7109-21.7773 77.2461-23.1445Q73.0957-27.002 68.4326-29.1016Q63.7695-31.2012 58.9355-32.2998Q54.1016-33.3984 49.4873-34.2041Q44.873-35.0098 40.8447-36.2305Q36.8164-37.4512 33.6914-39.7461Q30.5664-42.041 28.8086-46.2402Q28.418-47.2168 29.1992-47.7539Q29.9805-48.291 30.9082-47.3633Q34.1797-44.1406 37.7197-42.5781Q41.2598-41.0156 45.0195-40.4541Q48.7793-39.8926 52.7344-39.5508Q56.6895-39.209 60.7666-38.4521Q64.8438-37.6953 68.9697-35.791Q73.0957-33.8867 77.2461-30.0781Q78.1738-29.2969 79.0527-29.5898Q79.9316-29.8828 80.0781-30.8594Q80.2246-31.7383 80.2979-32.9834Q80.3711-34.2285 80.3711-35.5469Q80.3711-44.7754 76.416-50.8301Q72.4609-56.8848 65.4541-59.8633Q58.4473-62.8418 49.3652-62.8418Q44.873-62.8418 39.9902-62.1582Q35.1074-61.4746 30.9082-61.4746Q27.6855-61.4746 24.3408-61.8896Q20.9961-62.3047 17.8711-63.6963Q14.7461-65.0879 12.1094-68.0664Q11.0352-69.2383 9.69238-69.0186Q8.34961-68.7988 7.91016-66.9922Z"/>
  </g>
  <g id="Thin-S" transform="matrix(1 0 0 1 810.084 696)">
   <path class="multicolor-0:systemGreenColor SFSymbolsPreview28CD41" d="M7.8125-67.2852Q7.37305-64.1113 7.10449-60.7178Q6.83594-57.3242 6.83594-55.0293Q6.83594-44.5312 9.74121-35.9375Q12.6465-27.3438 18.0176-21.167Q23.3887-14.9902 30.9082-11.6455Q38.4277-8.30078 47.6074-8.30078Q52.3438-8.30078 56.4453-9.44824Q60.5469-10.5957 63.7451-12.5Q66.9434-14.4043 69.1406-16.8457Q71.3379-19.2871 72.3145-21.8262L69.3848-20.9473Q71.6309-18.4082 73.0713-15.8936Q74.5117-13.3789 75.6592-10.2295Q76.8066-7.08008 78.2715-2.53906Q78.6621-1.26953 79.4922-0.732422Q80.3223-0.195312 81.2012-0.195312Q83.252-0.195312 84.5459-1.75781Q85.8398-3.32031 85.8398-5.71289Q85.8398-7.8125 84.7412-10.376Q83.6426-12.9395 81.958-15.5518Q80.2734-18.1641 78.4912-20.3613Q76.709-22.5586 75.293-23.9258Q71.3379-27.6367 66.9189-29.6875Q62.5-31.7383 57.9346-32.8369Q53.3691-33.9355 48.9502-34.6924Q44.5312-35.4492 40.5762-36.5967Q36.6211-37.7441 33.4473-39.917Q30.2734-42.0898 28.2227-45.9961Q27.7344-46.9727 28.4424-47.4609Q29.1504-47.9492 30.0293-47.1191Q33.1543-43.9453 36.5479-42.4805Q39.9414-41.0156 43.6035-40.4297Q47.2656-39.8438 51.0986-39.502Q54.9316-39.1602 58.9111-38.3545Q62.8906-37.5488 67.0166-35.5957Q71.1426-33.6426 75.3418-29.834Q75.9766-29.248 76.6846-29.4434Q77.3926-29.6387 77.5391-30.5176Q77.6855-31.4941 77.7588-32.7637Q77.832-34.0332 77.832-35.498Q77.832-44.4336 74.0234-50.2197Q70.2148-56.0059 63.4277-58.8379Q56.6406-61.6699 47.6562-61.6699Q43.4082-61.6699 38.916-61.2061Q34.4238-60.7422 30.3711-60.7422Q26.6602-60.7422 23.0713-61.2793Q19.4824-61.8164 16.3818-63.3789Q13.2812-64.9414 10.9375-67.9688Q10.1074-68.9453 9.08203-68.75Q8.05664-68.5547 7.8125-67.2852Z"/>
  </g>
  <g id="Ultralight-S" transform="matrix(1 0 0 1 514.081 696)">
   <path class="multicolor-0:systemGreenColor SFSymbolsPreview28CD41" d="M7.76367-67.4316Q7.37305-64.209 7.10449-60.8154Q6.83594-57.4219 6.83594-55.2734Q6.83594-44.8242 9.69238-36.2793Q12.5488-27.7344 17.7979-21.6064Q23.0469-15.4785 30.3955-12.1582Q37.7441-8.83789 46.7285-8.83789Q50.9277-8.83789 54.7852-9.81445Q58.6426-10.791 61.8408-12.5732Q65.0391-14.3555 67.3584-16.8945Q69.6777-19.4336 70.8008-22.4609L68.5547-21.2402Q70.752-18.75 72.0703-16.333Q73.3887-13.916 74.5117-10.8154Q75.6348-7.71484 77.1484-2.97852Q77.5391-1.70898 78.3447-1.19629Q79.1504-0.683594 80.0293-0.683594Q81.9824-0.683594 83.2031-2.19727Q84.4238-3.71094 84.4238-6.10352Q84.4238-8.20312 83.3984-10.791Q82.373-13.3789 80.7617-15.9668Q79.1504-18.5547 77.417-20.752Q75.6836-22.9492 74.3164-24.2676Q70.4102-27.9785 66.1133-30.0049Q61.8164-32.0312 57.3975-33.1055Q52.9785-34.1797 48.6572-34.9121Q44.3359-35.6445 40.4541-36.7676Q36.5723-37.8906 33.3496-39.9902Q30.127-42.0898 27.8809-45.8984Q27.3438-46.8262 28.0518-47.3145Q28.7598-47.8027 29.541-46.9727Q32.666-43.8965 35.9863-42.4316Q39.3066-40.9668 42.8711-40.4053Q46.4355-39.8438 50.2197-39.4775Q54.0039-39.1113 57.959-38.2812Q61.9141-37.4512 66.0156-35.498Q70.1172-33.5449 74.3652-29.6875Q74.9023-29.1992 75.5127-29.3701Q76.123-29.541 76.2207-30.3223Q76.3672-31.3477 76.4404-32.6416Q76.5137-33.9355 76.5137-35.4492Q76.5137-44.2383 72.8027-49.9023Q69.0918-55.5664 62.3779-58.3252Q55.6641-61.084 46.7773-61.084Q42.627-61.084 38.3545-60.7422Q34.082-60.4004 30.0781-60.4004Q26.123-60.4004 22.4121-61.0107Q18.7012-61.6211 15.6006-63.2324Q12.5-64.8438 10.3027-67.8711Q9.61914-68.7988 8.76465-68.6279Q7.91016-68.457 7.76367-67.4316Z"/>
  </g>
 </g>
</svg>
