<?xml version="1.0" encoding="UTF-8"?>
<!--Generator: Apple Native CoreSVG 175-->
<!DOCTYPE svg
PUBLIC "-//W3C//DTD SVG 1.1//EN"
       "http://www.w3.org/Graphics/SVG/1.1/DTD/svg11.dtd">
<svg version="1.1" xmlns="http://www.w3.org/2000/svg" xmlns:xlink="http://www.w3.org/1999/xlink" width="3300" height="2200">
 <!--glyph: "uni10032F.medium", point size: 100.0, font version: "17.0d11e1", template writer version: "65.1"-->
 <style>.hierarchical-0:tertiary {fill:#8E8E8E}
.hierarchical-1:primary {fill:#212121}

.SFSymbolsPreview212121 {fill:#212121;opacity:1.0}
.SFSymbolsPreview8E8E8E {fill:#8E8E8E;opacity:1.0}
</style>
 <g id="Notes">
  <rect height="2200" id="artboard" style="fill:white;opacity:1" width="3300" x="0" y="0"/>
  <line style="fill:none;stroke:black;opacity:1;stroke-width:0.5;" x1="263" x2="3036" y1="292" y2="292"/>
  <text style="stroke:none;fill:black;font-family:sans-serif;font-size:13;font-weight:bold;" transform="matrix(1 0 0 1 263 322)">Weight/Scale Variations</text>
  <text style="stroke:none;fill:black;font-family:sans-serif;font-size:13;text-anchor:middle;" transform="matrix(1 0 0 1 559.711 322)">Ultralight</text>
  <text style="stroke:none;fill:black;font-family:sans-serif;font-size:13;text-anchor:middle;" transform="matrix(1 0 0 1 856.422 322)">Thin</text>
  <text style="stroke:none;fill:black;font-family:sans-serif;font-size:13;text-anchor:middle;" transform="matrix(1 0 0 1 1153.13 322)">Light</text>
  <text style="stroke:none;fill:black;font-family:sans-serif;font-size:13;text-anchor:middle;" transform="matrix(1 0 0 1 1449.84 322)">Regular</text>
  <text style="stroke:none;fill:black;font-family:sans-serif;font-size:13;text-anchor:middle;" transform="matrix(1 0 0 1 1746.56 322)">Medium</text>
  <text style="stroke:none;fill:black;font-family:sans-serif;font-size:13;text-anchor:middle;" transform="matrix(1 0 0 1 2043.27 322)">Semibold</text>
  <text style="stroke:none;fill:black;font-family:sans-serif;font-size:13;text-anchor:middle;" transform="matrix(1 0 0 1 2339.98 322)">Bold</text>
  <text style="stroke:none;fill:black;font-family:sans-serif;font-size:13;text-anchor:middle;" transform="matrix(1 0 0 1 2636.69 322)">Heavy</text>
  <text style="stroke:none;fill:black;font-family:sans-serif;font-size:13;text-anchor:middle;" transform="matrix(1 0 0 1 2933.4 322)">Black</text>
  <line style="fill:none;stroke:black;opacity:1;stroke-width:0.5;" x1="263" x2="3036" y1="1903" y2="1903"/>
  <g transform="matrix(1 0 0 1 263 1933)">
   <path d="M9.24805 0.830078Q10.8691 0.830078 12.2949 0.214844Q13.7207-0.400391 14.8096-1.49414Q15.8984-2.58789 16.5186-4.01367Q17.1387-5.43945 17.1387-7.05078Q17.1387-8.66211 16.5186-10.0879Q15.8984-11.5137 14.8047-12.6074Q13.7109-13.7012 12.2852-14.3164Q10.8594-14.9316 9.23828-14.9316Q7.62695-14.9316 6.20117-14.3164Q4.77539-13.7012 3.69141-12.6074Q2.60742-11.5137 1.9873-10.0879Q1.36719-8.66211 1.36719-7.05078Q1.36719-5.43945 1.9873-4.01367Q2.60742-2.58789 3.69629-1.49414Q4.78516-0.400391 6.21094 0.214844Q7.63672 0.830078 9.24805 0.830078ZM9.24805-0.654297Q7.91992-0.654297 6.7627-1.14746Q5.60547-1.64062 4.73145-2.51953Q3.85742-3.39844 3.36426-4.56055Q2.87109-5.72266 2.87109-7.05078Q2.87109-8.37891 3.35938-9.54102Q3.84766-10.7031 4.72168-11.582Q5.5957-12.4609 6.75293-12.9541Q7.91016-13.4473 9.23828-13.4473Q10.5762-13.4473 11.7334-12.9541Q12.8906-12.4609 13.7695-11.582Q14.6484-10.7031 15.1465-9.54102Q15.6445-8.37891 15.6445-7.05078Q15.6445-5.72266 15.1514-4.56055Q14.6582-3.39844 13.7842-2.51953Q12.9102-1.64062 11.748-1.14746Q10.5859-0.654297 9.24805-0.654297ZM5.6543-7.05078Q5.6543-6.72852 5.85938-6.52832Q6.06445-6.32812 6.40625-6.32812L8.51562-6.32812L8.51562-4.20898Q8.51562-3.88672 8.71094-3.67676Q8.90625-3.4668 9.23828-3.4668Q9.56055-3.4668 9.77051-3.67676Q9.98047-3.88672 9.98047-4.20898L9.98047-6.32812L12.0898-6.32812Q12.4219-6.32812 12.627-6.52832Q12.832-6.72852 12.832-7.05078Q12.832-7.38281 12.627-7.58789Q12.4219-7.79297 12.0898-7.79297L9.98047-7.79297L9.98047-9.90234Q9.98047-10.2344 9.77051-10.4443Q9.56055-10.6543 9.23828-10.6543Q8.90625-10.6543 8.71094-10.4443Q8.51562-10.2344 8.51562-9.90234L8.51562-7.79297L6.40625-7.79297Q6.06445-7.79297 5.85938-7.58789Q5.6543-7.38281 5.6543-7.05078Z"/>
  </g>
  <g transform="matrix(1 0 0 1 281.867 1933)">
   <path d="M11.709 2.91016Q13.75 2.91016 15.5518 2.12891Q17.3535 1.34766 18.7305-0.0292969Q20.1074-1.40625 20.8887-3.20801Q21.6699-5.00977 21.6699-7.05078Q21.6699-9.0918 20.8887-10.8936Q20.1074-12.6953 18.7305-14.0723Q17.3535-15.4492 15.5469-16.2305Q13.7402-17.0117 11.6992-17.0117Q9.6582-17.0117 7.85645-16.2305Q6.05469-15.4492 4.68262-14.0723Q3.31055-12.6953 2.5293-10.8936Q1.74805-9.0918 1.74805-7.05078Q1.74805-5.00977 2.5293-3.20801Q3.31055-1.40625 4.6875-0.0292969Q6.06445 1.34766 7.86621 2.12891Q9.66797 2.91016 11.709 2.91016ZM11.709 1.25Q9.98047 1.25 8.47656 0.605469Q6.97266-0.0390625 5.83496-1.17676Q4.69727-2.31445 4.05762-3.81836Q3.41797-5.32227 3.41797-7.05078Q3.41797-8.7793 4.05762-10.2832Q4.69727-11.7871 5.83008-12.9297Q6.96289-14.0723 8.4668-14.7119Q9.9707-15.3516 11.6992-15.3516Q13.4277-15.3516 14.9316-14.7119Q16.4355-14.0723 17.5781-12.9297Q18.7207-11.7871 19.3652-10.2832Q20.0098-8.7793 20.0098-7.05078Q20.0098-5.32227 19.3701-3.81836Q18.7305-2.31445 17.5928-1.17676Q16.4551-0.0390625 14.9463 0.605469Q13.4375 1.25 11.709 1.25ZM7.17773-7.05078Q7.17773-6.69922 7.41211-6.47461Q7.64648-6.25 8.01758-6.25L10.8887-6.25L10.8887-3.36914Q10.8887-2.99805 11.1133-2.76855Q11.3379-2.53906 11.6895-2.53906Q12.0605-2.53906 12.29-2.76855Q12.5195-2.99805 12.5195-3.36914L12.5195-6.25L15.4004-6.25Q15.7715-6.25 16.001-6.47461Q16.2305-6.69922 16.2305-7.05078Q16.2305-7.42188 16.001-7.65137Q15.7715-7.88086 15.4004-7.88086L12.5195-7.88086L12.5195-10.752Q12.5195-11.1328 12.29-11.3623Q12.0605-11.5918 11.6895-11.5918Q11.3379-11.5918 11.1133-11.3574Q10.8887-11.123 10.8887-10.752L10.8887-7.88086L8.01758-7.88086Q7.63672-7.88086 7.40723-7.65137Q7.17773-7.42188 7.17773-7.05078Z"/>
  </g>
  <g transform="matrix(1 0 0 1 305.646 1933)">
   <path d="M14.9707 5.66406Q17.0605 5.66406 18.96 5.01465Q20.8594 4.36523 22.4512 3.19336Q24.043 2.02148 25.2197 0.429688Q26.3965-1.16211 27.0459-3.06641Q27.6953-4.9707 27.6953-7.05078Q27.6953-9.14062 27.0459-11.04Q26.3965-12.9395 25.2197-14.5312Q24.043-16.123 22.4512-17.2998Q20.8594-18.4766 18.9551-19.126Q17.0508-19.7754 14.9609-19.7754Q12.8711-19.7754 10.9717-19.126Q9.07227-18.4766 7.48535-17.2998Q5.89844-16.123 4.72168-14.5312Q3.54492-12.9395 2.90039-11.04Q2.25586-9.14062 2.25586-7.05078Q2.25586-4.9707 2.90527-3.06641Q3.55469-1.16211 4.72656 0.429688Q5.89844 2.02148 7.49023 3.19336Q9.08203 4.36523 10.9814 5.01465Q12.8809 5.66406 14.9707 5.66406ZM14.9707 3.84766Q13.1641 3.84766 11.5283 3.2959Q9.89258 2.74414 8.53516 1.74805Q7.17773 0.751953 6.17676-0.610352Q5.17578-1.97266 4.62891-3.6084Q4.08203-5.24414 4.08203-7.05078Q4.08203-8.86719 4.62891-10.5029Q5.17578-12.1387 6.17188-13.501Q7.16797-14.8633 8.52539-15.8594Q9.88281-16.8555 11.5186-17.4023Q13.1543-17.9492 14.9609-17.9492Q16.7773-17.9492 18.4131-17.4023Q20.0488-16.8555 21.4111-15.8594Q22.7734-14.8633 23.7695-13.501Q24.7656-12.1387 25.3174-10.5029Q25.8691-8.86719 25.8691-7.05078Q25.8789-5.24414 25.332-3.6084Q24.7852-1.97266 23.7842-0.610352Q22.7832 0.751953 21.4209 1.74805Q20.0586 2.74414 18.4229 3.2959Q16.7871 3.84766 14.9707 3.84766ZM9.19922-7.05078Q9.19922-6.66992 9.45801-6.4209Q9.7168-6.17188 10.1172-6.17188L14.0625-6.17188L14.0625-2.2168Q14.0625-1.81641 14.3115-1.55762Q14.5605-1.29883 14.9512-1.29883Q15.3516-1.29883 15.6104-1.55273Q15.8691-1.80664 15.8691-2.2168L15.8691-6.17188L19.8242-6.17188Q20.2246-6.17188 20.4785-6.4209Q20.7324-6.66992 20.7324-7.05078Q20.7324-7.46094 20.4785-7.71484Q20.2246-7.96875 19.8242-7.96875L15.8691-7.96875L15.8691-11.9141Q15.8691-12.3242 15.6104-12.583Q15.3516-12.8418 14.9512-12.8418Q14.5605-12.8418 14.3115-12.583Q14.0625-12.3242 14.0625-11.9141L14.0625-7.96875L10.1172-7.96875Q9.70703-7.96875 9.45312-7.71484Q9.19922-7.46094 9.19922-7.05078Z"/>
  </g>
  <text style="stroke:none;fill:black;font-family:sans-serif;font-size:13;font-weight:bold;" transform="matrix(1 0 0 1 263 1953)">Design Variations</text>
  <text style="stroke:none;fill:black;font-family:sans-serif;font-size:13;" transform="matrix(1 0 0 1 263 1971)">Symbols are supported in up to nine weights and three scales.</text>
  <text style="stroke:none;fill:black;font-family:sans-serif;font-size:13;" transform="matrix(1 0 0 1 263 1989)">For optimal layout with text and other symbols, vertically align</text>
  <text style="stroke:none;fill:black;font-family:sans-serif;font-size:13;" transform="matrix(1 0 0 1 263 2007)">symbols with the adjacent text.</text>
  <line style="fill:none;stroke:#00AEEF;stroke-width:0.5;opacity:1.0;" x1="776" x2="776" y1="1919" y2="1933"/>
  <g transform="matrix(1 0 0 1 776 1933)">
   <path d="M3.31055 0.15625Q3.70117 0.15625 3.91602-0.00976562Q4.13086-0.175781 4.26758-0.585938L5.52734-4.0332L11.2891-4.0332L12.5488-0.585938Q12.6855-0.175781 12.9004-0.00976562Q13.1152 0.15625 13.4961 0.15625Q13.8867 0.15625 14.1162-0.0585938Q14.3457-0.273438 14.3457-0.644531Q14.3457-0.869141 14.2383-1.17188L9.6582-13.3691Q9.48242-13.8184 9.17969-14.043Q8.87695-14.2676 8.4082-14.2676Q7.5-14.2676 7.17773-13.3789L2.59766-1.16211Q2.49023-0.859375 2.49023-0.634766Q2.49023-0.263672 2.70996-0.0537109Q2.92969 0.15625 3.31055 0.15625ZM6.00586-5.51758L8.37891-12.0898L8.42773-12.0898L10.8008-5.51758Z"/>
  </g>
  <line style="fill:none;stroke:#00AEEF;stroke-width:0.5;opacity:1.0;" x1="793.197" x2="793.197" y1="1919" y2="1933"/>
  <text style="stroke:none;fill:black;font-family:sans-serif;font-size:13;font-weight:bold;" transform="matrix(1 0 0 1 776 1953)">Margins</text>
  <text style="stroke:none;fill:black;font-family:sans-serif;font-size:13;" transform="matrix(1 0 0 1 776 1971)">Leading and trailing margins on the left and right side of each symbol</text>
  <text style="stroke:none;fill:black;font-family:sans-serif;font-size:13;" transform="matrix(1 0 0 1 776 1989)">can be adjusted by modifying the x-location of the margin guidelines.</text>
  <text style="stroke:none;fill:black;font-family:sans-serif;font-size:13;" transform="matrix(1 0 0 1 776 2007)">Modifications are automatically applied proportionally to all</text>
  <text style="stroke:none;fill:black;font-family:sans-serif;font-size:13;" transform="matrix(1 0 0 1 776 2025)">scales and weights.</text>
  <g transform="matrix(1 0 0 1 1289 1933)">
   <path d="M2.8418 1.86523L4.54102 3.57422Q5.18555 4.22852 5.90332 4.17969Q6.62109 4.13086 7.31445 3.35938L18.0078-8.42773L17.041-9.4043L6.42578 2.27539Q6.16211 2.57812 5.89355 2.61719Q5.625 2.65625 5.27344 2.30469L4.10156 1.14258Q3.75 0.791016 3.79395 0.522461Q3.83789 0.253906 4.14062-0.0195312L15.6152-10.8203L14.6387-11.7871L3.04688-0.898438Q2.30469-0.214844 2.25098 0.498047Q2.19727 1.21094 2.8418 1.86523ZM9.25781-16.3281Q8.94531-16.0254 8.90625-15.6348Q8.86719-15.2441 9.04297-14.9512Q9.21875-14.6777 9.55566-14.541Q9.89258-14.4043 10.3809-14.5215Q11.4746-14.7754 12.5977-14.7314Q13.7207-14.6875 14.7949-13.9844L14.209-12.5293Q13.9551-11.9043 14.0674-11.4404Q14.1797-10.9766 14.5801-10.5664L16.875-8.25195Q17.2363-7.88086 17.5781-7.82227Q17.9199-7.76367 18.3398-7.8418L19.4043-8.03711L20.0684-7.36328L20.0293-6.80664Q20-6.43555 20.1221-6.12305Q20.2441-5.81055 20.6055-5.44922L21.3672-4.70703Q21.7285-4.3457 22.1533-4.33105Q22.5781-4.31641 22.9297-4.66797L25.8398-7.58789Q26.1914-7.93945 26.1816-8.35449Q26.1719-8.76953 25.8105-9.13086L25.0391-9.89258Q24.6875-10.2539 24.3799-10.3857Q24.0723-10.5176 23.7109-10.4883L23.1348-10.4395L22.4902-11.0742L22.7344-12.1973Q22.832-12.6172 22.6953-12.9834Q22.5586-13.3496 22.1191-13.7891L19.9219-15.9766Q18.6719-17.2168 17.2607-17.8369Q15.8496-18.457 14.4189-18.4814Q12.9883-18.5059 11.665-17.959Q10.3418-17.4121 9.25781-16.3281ZM10.752-15.957Q11.6602-16.6211 12.7002-16.9043Q13.7402-17.1875 14.8047-17.085Q15.8691-16.9824 16.8701-16.5137Q17.8711-16.0449 18.7012-15.2051L21.1328-12.793Q21.3086-12.6172 21.3525-12.4512Q21.3965-12.2852 21.3379-12.0312L21.0156-10.5469L22.5195-9.0625L23.5059-9.12109Q23.6914-9.13086 23.7891-9.09668Q23.8867-9.0625 24.0332-8.91602L24.6094-8.33984L22.168-5.89844L21.5918-6.47461Q21.4453-6.62109 21.4062-6.71875Q21.3672-6.81641 21.377-7.01172L21.4453-7.98828L19.9512-9.47266L18.4277-9.21875Q18.1836-9.16992 18.042-9.2041Q17.9004-9.23828 17.7148-9.41406L15.7129-11.416Q15.5176-11.5918 15.4932-11.7529Q15.4688-11.9141 15.5859-12.1875L16.4648-14.2773Q15.293-15.3711 13.8281-15.791Q12.3633-16.2109 10.8398-15.7617Q10.7227-15.7324 10.6885-15.8057Q10.6543-15.8789 10.752-15.957Z"/>
  </g>
  <text style="stroke:none;fill:black;font-family:sans-serif;font-size:13;font-weight:bold;" transform="matrix(1 0 0 1 1289 1953)">Exporting</text>
  <text style="stroke:none;fill:black;font-family:sans-serif;font-size:13;" transform="matrix(1 0 0 1 1289 1971)">Symbols should be outlined when exporting to ensure the</text>
  <text style="stroke:none;fill:black;font-family:sans-serif;font-size:13;" transform="matrix(1 0 0 1 1289 1989)">design is preserved when submitting to Xcode.</text>
  <text id="template-version" style="stroke:none;fill:black;font-family:sans-serif;font-size:13;text-anchor:end;" transform="matrix(1 0 0 1 3036 1933)">Template v.3.0</text>
  <text style="stroke:none;fill:black;font-family:sans-serif;font-size:13;text-anchor:end;" transform="matrix(1 0 0 1 3036 1951)">Requires Xcode 13 or greater</text>
  <text id="descriptive-name" style="stroke:none;fill:black;font-family:sans-serif;font-size:13;text-anchor:end;" transform="matrix(1 0 0 1 3036 1969)">Generated from quote.bubble.fill</text>
  <text style="stroke:none;fill:black;font-family:sans-serif;font-size:13;text-anchor:end;" transform="matrix(1 0 0 1 3036 1987)">Typeset at 100 points</text>
  <text style="stroke:none;fill:black;font-family:sans-serif;font-size:13;" transform="matrix(1 0 0 1 263 726)">Small</text>
  <text style="stroke:none;fill:black;font-family:sans-serif;font-size:13;" transform="matrix(1 0 0 1 263 1156)">Medium</text>
  <text style="stroke:none;fill:black;font-family:sans-serif;font-size:13;" transform="matrix(1 0 0 1 263 1586)">Large</text>
 </g>
 <g id="Guides">
  <g id="H-reference" style="fill:#27AAE1;stroke:none;" transform="matrix(1 0 0 1 339 696)">
   <path d="M0.976562 0L3.66211 0L29.3457-67.1387L30.0293-67.1387L30.0293-70.459L28.125-70.459ZM11.6699-24.4629L46.9727-24.4629L46.2402-26.709L12.4512-26.709ZM55.127 0L57.7637 0L30.6152-70.459L29.4434-70.459L29.4434-67.1387Z"/>
  </g>
  <line id="Baseline-S" style="fill:none;stroke:#27AAE1;opacity:1;stroke-width:0.5;" x1="263" x2="3036" y1="696" y2="696"/>
  <line id="Capline-S" style="fill:none;stroke:#27AAE1;opacity:1;stroke-width:0.5;" x1="263" x2="3036" y1="625.541" y2="625.541"/>
  <g id="H-reference" style="fill:#27AAE1;stroke:none;" transform="matrix(1 0 0 1 339 1126)">
   <path d="M0.976562 0L3.66211 0L29.3457-67.1387L30.0293-67.1387L30.0293-70.459L28.125-70.459ZM11.6699-24.4629L46.9727-24.4629L46.2402-26.709L12.4512-26.709ZM55.127 0L57.7637 0L30.6152-70.459L29.4434-70.459L29.4434-67.1387Z"/>
  </g>
  <line id="Baseline-M" style="fill:none;stroke:#27AAE1;opacity:1;stroke-width:0.5;" x1="263" x2="3036" y1="1126" y2="1126"/>
  <line id="Capline-M" style="fill:none;stroke:#27AAE1;opacity:1;stroke-width:0.5;" x1="263" x2="3036" y1="1055.54" y2="1055.54"/>
  <g id="H-reference" style="fill:#27AAE1;stroke:none;" transform="matrix(1 0 0 1 339 1556)">
   <path d="M0.976562 0L3.66211 0L29.3457-67.1387L30.0293-67.1387L30.0293-70.459L28.125-70.459ZM11.6699-24.4629L46.9727-24.4629L46.2402-26.709L12.4512-26.709ZM55.127 0L57.7637 0L30.6152-70.459L29.4434-70.459L29.4434-67.1387Z"/>
  </g>
  <line id="Baseline-L" style="fill:none;stroke:#27AAE1;opacity:1;stroke-width:0.5;" x1="263" x2="3036" y1="1556" y2="1556"/>
  <line id="Capline-L" style="fill:none;stroke:#27AAE1;opacity:1;stroke-width:0.5;" x1="263" x2="3036" y1="1485.54" y2="1485.54"/>
  <line id="left-margin-Ultralight-S" style="fill:none;stroke:#00AEEF;stroke-width:0.5;opacity:1.0;" x1="509.54" x2="509.54" y1="600.785" y2="720.121"/>
  <line id="right-margin-Ultralight-S" style="fill:none;stroke:#00AEEF;stroke-width:0.5;opacity:1.0;" x1="609.882" x2="609.882" y1="600.785" y2="720.121"/>
  <line id="left-margin-Thin-S" style="fill:none;stroke:#00AEEF;stroke-width:0.5;opacity:1.0;" x1="805.763" x2="805.763" y1="600.785" y2="720.121"/>
  <line id="right-margin-Thin-S" style="fill:none;stroke:#00AEEF;stroke-width:0.5;opacity:1.0;" x1="907.081" x2="907.081" y1="600.785" y2="720.121"/>
  <line id="left-margin-Light-S" style="fill:none;stroke:#00AEEF;stroke-width:0.5;opacity:1.0;" x1="1101.52" x2="1101.52" y1="600.785" y2="720.121"/>
  <line id="right-margin-Light-S" style="fill:none;stroke:#00AEEF;stroke-width:0.5;opacity:1.0;" x1="1204.74" x2="1204.74" y1="600.785" y2="720.121"/>
  <line id="left-margin-Regular-S" style="fill:none;stroke:#00AEEF;stroke-width:0.5;opacity:1.0;" x1="1397.53" x2="1397.53" y1="600.785" y2="720.121"/>
  <line id="right-margin-Regular-S" style="fill:none;stroke:#00AEEF;stroke-width:0.5;opacity:1.0;" x1="1502.16" x2="1502.16" y1="600.785" y2="720.121"/>
  <line id="left-margin-Medium-S" style="fill:none;stroke:#00AEEF;stroke-width:0.5;opacity:1.0;" x1="1694.09" x2="1694.09" y1="600.785" y2="720.121"/>
  <line id="right-margin-Medium-S" style="fill:none;stroke:#00AEEF;stroke-width:0.5;opacity:1.0;" x1="1799.02" x2="1799.02" y1="600.785" y2="720.121"/>
  <line id="left-margin-Semibold-S" style="fill:none;stroke:#00AEEF;stroke-width:0.5;opacity:1.0;" x1="1990.7" x2="1990.7" y1="600.785" y2="720.121"/>
  <line id="right-margin-Semibold-S" style="fill:none;stroke:#00AEEF;stroke-width:0.5;opacity:1.0;" x1="2095.83" x2="2095.83" y1="600.785" y2="720.121"/>
  <line id="left-margin-Bold-S" style="fill:none;stroke:#00AEEF;stroke-width:0.5;opacity:1.0;" x1="2287.24" x2="2287.24" y1="600.785" y2="720.121"/>
  <line id="right-margin-Bold-S" style="fill:none;stroke:#00AEEF;stroke-width:0.5;opacity:1.0;" x1="2392.71" x2="2392.71" y1="600.785" y2="720.121"/>
  <line id="left-margin-Heavy-S" style="fill:none;stroke:#00AEEF;stroke-width:0.5;opacity:1.0;" x1="2583.76" x2="2583.76" y1="600.785" y2="720.121"/>
  <line id="right-margin-Heavy-S" style="fill:none;stroke:#00AEEF;stroke-width:0.5;opacity:1.0;" x1="2689.62" x2="2689.62" y1="600.785" y2="720.121"/>
  <line id="left-margin-Black-S" style="fill:none;stroke:#00AEEF;stroke-width:0.5;opacity:1.0;" x1="2880.28" x2="2880.28" y1="600.785" y2="720.121"/>
  <line id="right-margin-Black-S" style="fill:none;stroke:#00AEEF;stroke-width:0.5;opacity:1.0;" x1="2986.53" x2="2986.53" y1="600.785" y2="720.121"/>
  <line id="left-margin-Ultralight-M" style="fill:none;stroke:#00AEEF;stroke-width:0.5;opacity:1.0;" x1="495.893" x2="495.893" y1="1030.79" y2="1150.12"/>
  <line id="right-margin-Ultralight-M" style="fill:none;stroke:#00AEEF;stroke-width:0.5;opacity:1.0;" x1="623.529" x2="623.529" y1="1030.79" y2="1150.12"/>
  <line id="left-margin-Thin-M" style="fill:none;stroke:#00AEEF;stroke-width:0.5;opacity:1.0;" x1="792.042" x2="792.042" y1="1030.79" y2="1150.12"/>
  <line id="right-margin-Thin-M" style="fill:none;stroke:#00AEEF;stroke-width:0.5;opacity:1.0;" x1="920.802" x2="920.802" y1="1030.79" y2="1150.12"/>
  <line id="left-margin-Light-M" style="fill:none;stroke:#00AEEF;stroke-width:0.5;opacity:1.0;" x1="1087.68" x2="1087.68" y1="1030.79" y2="1150.12"/>
  <line id="right-margin-Light-M" style="fill:none;stroke:#00AEEF;stroke-width:0.5;opacity:1.0;" x1="1218.59" x2="1218.59" y1="1030.79" y2="1150.12"/>
  <line id="left-margin-Regular-M" style="fill:none;stroke:#00AEEF;stroke-width:0.5;opacity:1.0;" x1="1383.58" x2="1383.58" y1="1030.79" y2="1150.12"/>
  <line id="right-margin-Regular-M" style="fill:none;stroke:#00AEEF;stroke-width:0.5;opacity:1.0;" x1="1516.1" x2="1516.1" y1="1030.79" y2="1150.12"/>
  <line id="left-margin-Medium-M" style="fill:none;stroke:#00AEEF;stroke-width:0.5;opacity:1.0;" x1="1680.03" x2="1680.03" y1="1030.79" y2="1150.12"/>
  <line id="right-margin-Medium-M" style="fill:none;stroke:#00AEEF;stroke-width:0.5;opacity:1.0;" x1="1813.08" x2="1813.08" y1="1030.79" y2="1150.12"/>
  <line id="left-margin-Semibold-M" style="fill:none;stroke:#00AEEF;stroke-width:0.5;opacity:1.0;" x1="1976.54" x2="1976.54" y1="1030.79" y2="1150.12"/>
  <line id="right-margin-Semibold-M" style="fill:none;stroke:#00AEEF;stroke-width:0.5;opacity:1.0;" x1="2109.99" x2="2109.99" y1="1030.79" y2="1150.12"/>
  <line id="left-margin-Bold-M" style="fill:none;stroke:#00AEEF;stroke-width:0.5;opacity:1.0;" x1="2272.99" x2="2272.99" y1="1030.79" y2="1150.12"/>
  <line id="right-margin-Bold-M" style="fill:none;stroke:#00AEEF;stroke-width:0.5;opacity:1.0;" x1="2406.97" x2="2406.97" y1="1030.79" y2="1150.12"/>
  <line id="left-margin-Heavy-M" style="fill:none;stroke:#00AEEF;stroke-width:0.5;opacity:1.0;" x1="2569.31" x2="2569.31" y1="1030.79" y2="1150.12"/>
  <line id="right-margin-Heavy-M" style="fill:none;stroke:#00AEEF;stroke-width:0.5;opacity:1.0;" x1="2704.07" x2="2704.07" y1="1030.79" y2="1150.12"/>
  <line id="left-margin-Black-M" style="fill:none;stroke:#00AEEF;stroke-width:0.5;opacity:1.0;" x1="2865.68" x2="2865.68" y1="1030.79" y2="1150.12"/>
  <line id="right-margin-Black-M" style="fill:none;stroke:#00AEEF;stroke-width:0.5;opacity:1.0;" x1="3001.12" x2="3001.12" y1="1030.79" y2="1150.12"/>
  <line id="left-margin-Ultralight-L" style="fill:none;stroke:#00AEEF;stroke-width:0.5;opacity:1.0;" x1="477.607" x2="477.607" y1="1460.79" y2="1580.12"/>
  <line id="right-margin-Ultralight-L" style="fill:none;stroke:#00AEEF;stroke-width:0.5;opacity:1.0;" x1="641.816" x2="641.816" y1="1460.79" y2="1580.12"/>
  <line id="left-margin-Thin-L" style="fill:none;stroke:#00AEEF;stroke-width:0.5;opacity:1.0;" x1="773.683" x2="773.683" y1="1460.79" y2="1580.12"/>
  <line id="right-margin-Thin-L" style="fill:none;stroke:#00AEEF;stroke-width:0.5;opacity:1.0;" x1="939.161" x2="939.161" y1="1460.79" y2="1580.12"/>
  <line id="left-margin-Light-L" style="fill:none;stroke:#00AEEF;stroke-width:0.5;opacity:1.0;" x1="1069.2" x2="1069.2" y1="1460.79" y2="1580.12"/>
  <line id="right-margin-Light-L" style="fill:none;stroke:#00AEEF;stroke-width:0.5;opacity:1.0;" x1="1237.07" x2="1237.07" y1="1460.79" y2="1580.12"/>
  <line id="left-margin-Regular-L" style="fill:none;stroke:#00AEEF;stroke-width:0.5;opacity:1.0;" x1="1365.01" x2="1365.01" y1="1460.79" y2="1580.12"/>
  <line id="right-margin-Regular-L" style="fill:none;stroke:#00AEEF;stroke-width:0.5;opacity:1.0;" x1="1534.68" x2="1534.68" y1="1460.79" y2="1580.12"/>
  <line id="left-margin-Medium-L" style="fill:none;stroke:#00AEEF;stroke-width:0.5;opacity:1.0;" x1="1661.3" x2="1661.3" y1="1460.79" y2="1580.12"/>
  <line id="right-margin-Medium-L" style="fill:none;stroke:#00AEEF;stroke-width:0.5;opacity:1.0;" x1="1831.81" x2="1831.81" y1="1460.79" y2="1580.12"/>
  <line id="left-margin-Semibold-L" style="fill:none;stroke:#00AEEF;stroke-width:0.5;opacity:1.0;" x1="1957.7" x2="1957.7" y1="1460.79" y2="1580.12"/>
  <line id="right-margin-Semibold-L" style="fill:none;stroke:#00AEEF;stroke-width:0.5;opacity:1.0;" x1="2128.84" x2="2128.84" y1="1460.79" y2="1580.12"/>
  <line id="left-margin-Bold-L" style="fill:none;stroke:#00AEEF;stroke-width:0.5;opacity:1.0;" x1="2253.97" x2="2253.97" y1="1460.79" y2="1580.12"/>
  <line id="right-margin-Bold-L" style="fill:none;stroke:#00AEEF;stroke-width:0.5;opacity:1.0;" x1="2425.99" x2="2425.99" y1="1460.79" y2="1580.12"/>
  <line id="left-margin-Heavy-L" style="fill:none;stroke:#00AEEF;stroke-width:0.5;opacity:1.0;" x1="2550.07" x2="2550.07" y1="1460.79" y2="1580.12"/>
  <line id="right-margin-Heavy-L" style="fill:none;stroke:#00AEEF;stroke-width:0.5;opacity:1.0;" x1="2723.31" x2="2723.31" y1="1460.79" y2="1580.12"/>
  <line id="left-margin-Black-L" style="fill:none;stroke:#00AEEF;stroke-width:0.5;opacity:1.0;" x1="2846.24" x2="2846.24" y1="1460.79" y2="1580.12"/>
  <line id="right-margin-Black-L" style="fill:none;stroke:#00AEEF;stroke-width:0.5;opacity:1.0;" x1="3020.56" x2="3020.56" y1="1460.79" y2="1580.12"/>
 </g>
 <g id="Symbols">
  <g id="Black-L" transform="matrix(1 0 0 1 2846.24 1556)">
   <path class="hierarchical-0:tertiary SFSymbolsPreview8E8E8E" d="M55.1758 39.0625Q57.5684 39.0625 59.7656 38.0371Q61.9629 37.0117 64.8926 34.375L89.4043 12.8418L125.83 12.8418Q135.791 12.8418 143.066 8.8623Q150.342 4.88281 154.297-2.39258Q158.252-9.66797 158.252-19.5801L158.252-70.1172Q158.252-79.9805 154.297-87.2803Q150.342-94.5801 143.066-98.5596Q135.791-102.539 125.83-102.539L48.4863-102.539Q38.5742-102.539 31.2744-98.5596Q23.9746-94.5801 20.0195-87.2803Q16.0645-79.9805 16.0645-70.1172L16.0645-19.5801Q16.0645-9.66797 20.1904-2.39258Q24.3164 4.88281 31.2988 8.8623Q38.2812 12.8418 46.7285 12.8418L47.6562 12.8418L47.6562 30.8105Q47.6562 34.668 49.6582 36.8652Q51.6602 39.0625 55.1758 39.0625Z"/>
   <path class="hierarchical-1:primary SFSymbolsPreview212121" d="M90.625-51.3672Q90.625-55.7617 92.5781-59.1797Q94.5312-62.5977 97.9736-64.5508Q101.416-66.5039 105.811-66.5039Q110.986-66.5039 114.673-63.9648Q118.359-61.4258 120.337-57.1533Q122.314-52.8809 122.314-47.7051Q122.314-42.3828 120.312-37.915Q118.311-33.4473 115.137-30.1758Q111.963-26.9043 108.374-25.1221Q104.785-23.3398 101.611-23.3398Q99.9512-23.3398 98.8037-24.2188Q97.6562-25.0977 97.6562-26.709Q97.6562-27.9785 98.4131-28.8574Q99.1699-29.7363 100.586-30.0781Q104.102-30.8105 106.763-32.3486Q109.424-33.8867 111.157-35.9375Q112.891-37.9883 113.574-40.1855L112.061-40.1855Q110.645-38.5254 108.447-37.7197Q106.25-36.9141 103.516-36.9141Q97.8027-36.9141 94.2139-41.0156Q90.625-45.1172 90.625-51.3672ZM53.6133-51.3672Q53.6133-55.7617 55.5664-59.1797Q57.5195-62.5977 60.9619-64.5508Q64.4043-66.5039 68.8477-66.5039Q74.0234-66.5039 77.71-63.9648Q81.3965-61.4258 83.3496-57.1533Q85.3027-52.8809 85.3027-47.7051Q85.3027-42.3828 83.3008-37.915Q81.2988-33.4473 78.125-30.1758Q74.9512-26.9043 71.3623-25.1221Q67.7734-23.3398 64.5508-23.3398Q62.9395-23.3398 61.7676-24.2188Q60.5957-25.0977 60.5957-26.709Q60.5957-27.9785 61.377-28.8574Q62.1582-29.7363 63.623-30.0781Q67.041-30.8105 69.7021-32.3486Q72.3633-33.8867 74.1211-35.9375Q75.8789-37.9883 76.5625-40.1855L75.0488-40.1855Q73.6328-38.5254 71.4355-37.7197Q69.2383-36.9141 66.4551-36.9141Q60.791-36.9141 57.2021-41.0156Q53.6133-45.1172 53.6133-51.3672Z"/>
  </g>
  <g id="Heavy-L" transform="matrix(1 0 0 1 2550.07 1556)">
   <path class="hierarchical-0:tertiary SFSymbolsPreview8E8E8E" d="M54.4434 37.6953Q56.6895 37.6953 58.6914 36.7188Q60.6934 35.7422 63.3789 33.3008L87.4512 12.0117L125.879 12.0117Q135.596 12.0117 142.603 8.20312Q149.609 4.39453 153.394-2.6123Q157.178-9.61914 157.178-19.2383L157.178-69.6289Q157.178-79.1992 153.394-86.2305Q149.609-93.2617 142.603-97.0703Q135.596-100.879 125.879-100.879L47.3145-100.879Q37.6953-100.879 30.6641-97.0703Q23.6328-93.2617 19.8486-86.2305Q16.0645-79.1992 16.0645-69.6289L16.0645-19.2383Q16.0645-9.61914 19.9707-2.6123Q23.877 4.39453 30.6641 8.20312Q37.4512 12.0117 45.9961 12.0117L47.5586 12.0117L47.5586 30.0293Q47.5586 33.5938 49.3896 35.6445Q51.2207 37.6953 54.4434 37.6953Z"/>
   <path class="hierarchical-1:primary SFSymbolsPreview212121" d="M90.1855-51.0254Q90.1855-55.2734 92.0898-58.5693Q93.9941-61.8652 97.3389-63.7695Q100.684-65.6738 104.932-65.6738Q109.863-65.6738 113.428-63.2568Q116.992-60.8398 118.921-56.7383Q120.85-52.6367 120.85-47.6562Q120.85-42.1387 118.823-37.6709Q116.797-33.2031 113.623-30.0049Q110.449-26.8066 106.934-25.0977Q103.418-23.3887 100.439-23.3887Q98.877-23.3887 97.8027-24.2676Q96.7285-25.1465 96.7285-26.6602Q96.7285-27.8809 97.4365-28.7354Q98.1445-29.5898 99.6582-29.9316Q102.832-30.6152 105.396-32.1045Q107.959-33.5938 109.741-35.6689Q111.523-37.7441 112.354-40.0879L111.035-40.0879Q109.668-38.4277 107.544-37.6709Q105.42-36.9141 102.832-36.9141Q97.168-36.9141 93.6768-40.918Q90.1855-44.9219 90.1855-51.0254ZM53.6133-51.0254Q53.6133-55.2734 55.5176-58.5693Q57.4219-61.8652 60.791-63.7695Q64.1602-65.6738 68.457-65.6738Q73.3398-65.6738 76.9043-63.2568Q80.4688-60.8398 82.3975-56.7383Q84.3262-52.6367 84.3262-47.6562Q84.3262-42.1387 82.2998-37.6709Q80.2734-33.2031 77.0996-30.0049Q73.9258-26.8066 70.4102-25.0977Q66.8945-23.3887 63.8672-23.3887Q62.3047-23.3887 61.2305-24.2676Q60.1562-25.1465 60.1562-26.6602Q60.1562-27.8809 60.8887-28.7354Q61.6211-29.5898 63.1348-29.9316Q66.2109-30.6152 68.7744-32.1045Q71.3379-33.5938 73.1689-35.6689Q75-37.7441 75.7812-40.0879L74.5117-40.0879Q73.0957-38.4277 70.9717-37.6709Q68.8477-36.9141 66.2598-36.9141Q60.5957-36.9141 57.1045-40.918Q53.6133-44.9219 53.6133-51.0254Z"/>
  </g>
  <g id="Bold-L" transform="matrix(1 0 0 1 2253.97 1556)">
   <path class="hierarchical-0:tertiary SFSymbolsPreview8E8E8E" d="M53.6621 36.1816Q55.6641 36.1816 57.4463 35.2295Q59.2285 34.2773 61.6699 32.1289L85.3027 11.084L125.977 11.084Q135.352 11.1328 142.065 7.51953Q148.779 3.90625 152.368-2.83203Q155.957-9.57031 155.957-18.8965L155.957-69.043Q155.957-78.3691 152.368-85.083Q148.779-91.7969 142.065-95.4102Q135.352-99.0234 125.977-99.0234L46.0449-99.0234Q36.6699-99.0234 29.9561-95.4102Q23.2422-91.7969 19.6533-85.083Q16.0645-78.3691 16.0645-69.043L16.0645-18.8965Q16.0645-9.57031 19.7266-2.85645Q23.3887 3.85742 29.9561 7.4707Q36.5234 11.084 45.166 11.084L47.4609 11.084L47.4609 29.1992Q47.4609 32.4219 49.0967 34.3018Q50.7324 36.1816 53.6621 36.1816Z"/>
   <path class="hierarchical-1:primary SFSymbolsPreview212121" d="M89.6484-50.5859Q89.6484-54.6387 91.5039-57.8369Q93.3594-61.0352 96.6064-62.8418Q99.8535-64.6484 103.955-64.6484Q108.594-64.6484 112.012-62.3779Q115.43-60.1074 117.334-56.2256Q119.238-52.3438 119.238-47.5586Q119.238-41.8457 117.188-37.3535Q115.137-32.8613 111.963-29.7607Q108.789-26.6602 105.347-25.0488Q101.904-23.4375 99.1699-23.4375Q97.7051-23.4375 96.7041-24.292Q95.7031-25.1465 95.7031-26.5625Q95.7031-27.7344 96.3867-28.54Q97.0703-29.3457 98.6328-29.7363Q101.367-30.3711 103.833-31.8115Q106.299-33.252 108.179-35.3271Q110.059-37.4023 110.986-39.9414L109.961-39.9414Q108.594-38.2812 106.519-37.5977Q104.443-36.9141 102.051-36.9141Q96.4844-36.9141 93.0664-40.8203Q89.6484-44.7266 89.6484-50.5859ZM53.6133-50.5859Q53.6133-54.6387 55.4932-57.8369Q57.373-61.0352 60.6201-62.8418Q63.8672-64.6484 67.9688-64.6484Q72.6074-64.6484 76.0254-62.3779Q79.4434-60.1074 81.3232-56.2256Q83.2031-52.3438 83.2031-47.5586Q83.2031-41.8457 81.1523-37.3535Q79.1016-32.8613 75.9277-29.7607Q72.7539-26.6602 69.3115-25.0488Q65.8691-23.4375 63.1348-23.4375Q61.6699-23.4375 60.6445-24.292Q59.6191-25.1465 59.6191-26.5625Q59.6191-27.7344 60.3271-28.54Q61.0352-29.3457 62.6465-29.7363Q65.332-30.3711 67.7979-31.8115Q70.2637-33.252 72.1436-35.3271Q74.0234-37.4023 74.9512-39.9414L73.9258-39.9414Q72.5586-38.2812 70.5078-37.5977Q68.457-36.9141 66.0156-36.9141Q60.4492-36.9141 57.0312-40.8203Q53.6133-44.7266 53.6133-50.5859Z"/>
  </g>
  <g id="Semibold-L" transform="matrix(1 0 0 1 1957.7 1556)">
   <path class="hierarchical-0:tertiary SFSymbolsPreview8E8E8E" d="M53.125 35.1074Q54.9805 35.1074 56.6162 34.2041Q58.252 33.3008 60.4492 31.2988L83.7891 10.4004L125.977 10.4492Q135.205 10.498 141.699 7.00684Q148.193 3.51562 151.636-3.00293Q155.078-9.52148 155.078-18.6035L155.078-68.6523Q155.078-77.7344 151.636-84.2529Q148.193-90.7715 141.699-94.2627Q135.205-97.7539 125.977-97.7539L45.166-97.7539Q35.9863-97.7539 29.4678-94.2627Q22.9492-90.7715 19.5068-84.2529Q16.0645-77.7344 16.0645-68.6523L16.0645-18.6035Q16.0645-9.52148 19.5557-3.02734Q23.0469 3.4668 29.4678 6.93359Q35.8887 10.4004 44.5801 10.4004L47.3633 10.4004L47.3633 28.6133Q47.3633 31.5918 48.877 33.3496Q50.3906 35.1074 53.125 35.1074Z"/>
   <path class="hierarchical-1:primary SFSymbolsPreview212121" d="M89.3066-50.2441Q89.3066-54.1992 91.1133-57.2998Q92.9199-60.4004 96.0938-62.1826Q99.2676-63.9648 103.271-63.9648Q107.666-63.9648 111.011-61.792Q114.355-59.6191 116.211-55.8838Q118.066-52.1484 118.066-47.4609Q118.066-41.6016 116.016-37.1094Q113.965-32.6172 110.791-29.5654Q107.617-26.5137 104.248-24.9756Q100.879-23.4375 98.291-23.4375Q96.875-23.4375 95.9229-24.292Q94.9707-25.1465 94.9707-26.4648Q94.9707-27.5879 95.6299-28.3936Q96.2891-29.1992 97.9004-29.5898Q100.391-30.1758 102.783-31.5918Q105.176-33.0078 107.08-35.083Q108.984-37.1582 110.01-39.7949L109.18-39.7949Q107.812-38.1836 105.811-37.5244Q103.809-36.8652 101.465-36.8652Q95.9473-36.8652 92.627-40.6982Q89.3066-44.5312 89.3066-50.2441ZM53.6133-50.2441Q53.6133-54.1992 55.4443-57.2998Q57.2754-60.4004 60.4492-62.1826Q63.623-63.9648 67.627-63.9648Q72.0703-63.9648 75.3906-61.792Q78.7109-59.6191 80.5664-55.8838Q82.4219-52.1484 82.4219-47.4609Q82.4219-41.6016 80.3467-37.1094Q78.2715-32.6172 75.0977-29.5654Q71.9238-26.5137 68.5547-24.9756Q65.1855-23.4375 62.5977-23.4375Q61.1816-23.4375 60.2295-24.292Q59.2773-25.1465 59.2773-26.4648Q59.2773-27.5879 59.9365-28.3936Q60.5957-29.1992 62.2559-29.5898Q64.6973-30.1758 67.0898-31.5918Q69.4824-33.0078 71.3867-35.083Q73.291-37.1582 74.3164-39.7949L73.4863-39.7949Q72.1191-38.1836 70.1172-37.5244Q68.1152-36.8652 65.8203-36.8652Q60.3027-36.8652 56.958-40.6982Q53.6133-44.5312 53.6133-50.2441Z"/>
  </g>
  <g id="Medium-L" transform="matrix(1 0 0 1 1661.3 1556)">
   <path class="hierarchical-0:tertiary SFSymbolsPreview8E8E8E" d="M52.6855 34.2773Q54.4434 34.2773 55.957 33.3984Q57.4707 32.5195 59.5703 30.6641L82.666 9.91211L126.025 9.96094Q135.059 10.0098 141.431 6.61621Q147.803 3.22266 151.123-3.14941Q154.443-9.52148 154.443-18.4082L154.443-68.3594Q154.443-77.2949 151.123-83.667Q147.803-90.0391 141.431-93.4082Q135.059-96.7773 126.025-96.7773L44.4824-96.7773Q35.4492-96.7773 29.1016-93.4082Q22.7539-90.0391 19.4092-83.667Q16.0645-77.2949 16.0645-68.3594L16.0645-18.4082Q16.0645-9.47266 19.4336-3.125Q22.8027 3.22266 29.1016 6.56738Q35.4004 9.91211 44.1895 9.91211L47.3145 9.91211L47.3145 28.1738Q47.3145 31.0059 48.7305 32.6416Q50.1465 34.2773 52.6855 34.2773Z"/>
   <path class="hierarchical-1:primary SFSymbolsPreview212121" d="M89.0137-50Q89.0137-53.9062 90.8203-56.9336Q92.627-59.9609 95.752-61.6943Q98.877-63.4277 102.783-63.4277Q107.031-63.4277 110.303-61.3281Q113.574-59.2285 115.405-55.5908Q117.236-51.9531 117.236-47.4121Q117.236-41.4551 115.161-36.9629Q113.086-32.4707 109.912-29.4678Q106.738-26.4648 103.394-24.9756Q100.049-23.4863 97.6074-23.4863Q96.2402-23.4863 95.3369-24.3164Q94.4336-25.1465 94.4336-26.416Q94.4336-27.5391 95.0684-28.2959Q95.7031-29.0527 97.3633-29.4922Q99.6094-30.0781 101.953-31.4453Q104.297-32.8125 106.25-34.9121Q108.203-37.0117 109.277-39.7461L108.594-39.7461Q107.227-38.0859 105.249-37.4756Q103.271-36.8652 101.074-36.8652Q95.6055-36.8652 92.3096-40.6494Q89.0137-44.4336 89.0137-50ZM53.6133-50Q53.6133-53.9062 55.4199-56.9336Q57.2266-59.9609 60.3516-61.6943Q63.4766-63.4277 67.3828-63.4277Q71.6797-63.4277 74.9268-61.3281Q78.1738-59.2285 80.0049-55.5908Q81.8359-51.9531 81.8359-47.4121Q81.8359-41.4551 79.7363-36.9629Q77.6367-32.4707 74.4629-29.4678Q71.2891-26.4648 67.9688-24.9756Q64.6484-23.4863 62.207-23.4863Q60.8398-23.4863 59.9121-24.3164Q58.9844-25.1465 58.9844-26.416Q58.9844-27.5391 59.6191-28.2959Q60.2539-29.0527 61.9629-29.4922Q64.209-30.0781 66.5527-31.4453Q68.8965-32.8125 70.8496-34.9121Q72.8027-37.0117 73.877-39.7461L73.1445-39.7461Q71.8262-38.0859 69.873-37.4756Q67.9199-36.8652 65.6738-36.8652Q60.2051-36.8652 56.9092-40.6494Q53.6133-44.4336 53.6133-50Z"/>
  </g>
  <g id="Regular-L" transform="matrix(1 0 0 1 1365.01 1556)">
   <path class="hierarchical-0:tertiary SFSymbolsPreview8E8E8E" d="M52.1484 33.252Q53.7598 33.252 55.127 32.3975Q56.4941 31.543 58.3984 29.834L81.2012 9.27734L126.074 9.32617Q134.912 9.375 141.064 6.12793Q147.217 2.88086 150.415-3.2959Q153.613-9.47266 153.613-18.1641L153.613-67.9688Q153.613-76.709 150.415-82.8613Q147.217-89.0137 141.064-92.2607Q134.912-95.5078 126.074-95.5078L43.6035-95.5078Q34.7656-95.5078 28.6133-92.2607Q22.4609-89.0137 19.2627-82.8613Q16.0645-76.709 16.0645-67.9688L16.0645-18.1641Q16.0645-9.42383 19.2627-3.2959Q22.4609 2.83203 28.6133 6.05469Q34.7656 9.27734 43.6035 9.27734L47.2168 9.27734L47.2168 27.5879Q47.2168 30.1758 48.5107 31.7139Q49.8047 33.252 52.1484 33.252Z"/>
   <path class="hierarchical-1:primary SFSymbolsPreview212121" d="M88.6719-49.7559Q88.6719-53.5156 90.4297-56.4697Q92.1875-59.4238 95.2393-61.1084Q98.291-62.793 102.1-62.793Q106.152-62.793 109.326-60.791Q112.5-58.7891 114.307-55.2979Q116.113-51.8066 116.113-47.3633Q116.113-41.2598 114.014-36.7676Q111.914-32.2754 108.74-29.3213Q105.566-26.3672 102.295-24.9512Q99.0234-23.5352 96.7285-23.5352Q95.4102-23.5352 94.5557-24.3652Q93.7012-25.1953 93.7012-26.3672Q93.7012-27.4414 94.3115-28.1982Q94.9219-28.9551 96.6309-29.3945Q98.6328-29.9316 100.903-31.2744Q103.174-32.6172 105.176-34.7168Q107.178-36.8164 108.35-39.6484L107.812-39.6484Q106.494-38.0371 104.565-37.4512Q102.637-36.8652 100.537-36.8652Q95.1172-36.8652 91.8945-40.5762Q88.6719-44.2871 88.6719-49.7559ZM53.6133-49.7559Q53.6133-53.5156 55.3955-56.4697Q57.1777-59.4238 60.2295-61.1084Q63.2812-62.793 67.0898-62.793Q71.1914-62.793 74.3408-60.791Q77.4902-58.7891 79.2969-55.2979Q81.1035-51.8066 81.1035-47.3633Q81.1035-41.2598 78.9795-36.7676Q76.8555-32.2754 73.6816-29.3213Q70.5078-26.3672 67.2363-24.9512Q63.9648-23.5352 61.6699-23.5352Q60.3516-23.5352 59.4971-24.3652Q58.6426-25.1953 58.6426-26.3672Q58.6426-27.4414 59.2529-28.1982Q59.8633-28.9551 61.6211-29.3945Q63.5742-29.9316 65.8447-31.2744Q68.1152-32.6172 70.1172-34.7168Q72.1191-36.8164 73.291-39.6484L72.7539-39.6484Q71.4355-38.0371 69.5312-37.4512Q67.627-36.8652 65.5273-36.8652Q60.0586-36.8652 56.8359-40.5762Q53.6133-44.2871 53.6133-49.7559Z"/>
  </g>
  <g id="Light-L" transform="matrix(1 0 0 1 1069.2 1556)">
   <path class="hierarchical-0:tertiary SFSymbolsPreview8E8E8E" d="M50.293 31.7871Q51.6113 31.7871 52.71 31.0791Q53.8086 30.3711 55.2734 29.1016L78.0762 8.93555L126.074 8.98438Q134.18 9.0332 139.941 5.93262Q145.703 2.83203 148.755-2.9541Q151.807-8.74023 151.807-16.6992L151.807-68.5547Q151.807-76.6113 148.755-82.373Q145.703-88.1348 139.941-91.2109Q134.18-94.2871 126.074-94.2871L41.7969-94.2871Q33.6426-94.2871 27.9053-91.2109Q22.168-88.1348 19.1162-82.373Q16.0645-76.6113 16.0645-68.5547L16.0645-16.6992Q16.0645-8.64258 19.1162-2.90527Q22.168 2.83203 27.9053 5.88379Q33.6426 8.93555 41.7969 8.93555L46.2891 8.93555L46.2891 27.1973Q46.2891 29.2969 47.3633 30.542Q48.4375 31.7871 50.293 31.7871Z"/>
   <path class="hierarchical-1:primary SFSymbolsPreview212121" d="M87.9883-49.0723Q87.9883-52.7344 89.7217-55.6396Q91.4551-58.5449 94.4336-60.2051Q97.4121-61.8652 101.123-61.8652Q104.98-61.8652 108.13-59.9609Q111.279-58.0566 113.11-54.6387Q114.941-51.2207 114.941-46.7285Q114.941-40.7227 112.817-36.3281Q110.693-31.9336 107.544-29.0771Q104.395-26.2207 101.221-24.8535Q98.0469-23.4863 95.9473-23.4863Q94.7266-23.4863 93.9453-24.2432Q93.1641-25 93.1641-26.0742Q93.1641-27.0996 93.75-27.7832Q94.3359-28.4668 95.8984-28.8574Q97.7051-29.3457 100.049-30.7373Q102.393-32.1289 104.492-34.3506Q106.592-36.5723 107.715-39.5508L107.178-39.5508Q105.811-37.8906 103.857-37.207Q101.904-36.5234 99.7559-36.5234Q94.4336-36.5234 91.2109-40.1367Q87.9883-43.75 87.9883-49.0723ZM52.9785-49.0723Q52.9785-52.7344 54.7119-55.6396Q56.4453-58.5449 59.4482-60.2051Q62.4512-61.8652 66.1621-61.8652Q70.0684-61.8652 73.1934-59.9609Q76.3184-58.0566 78.1494-54.6387Q79.9805-51.2207 79.9805-46.7285Q79.9805-40.7227 77.832-36.3281Q75.6836-31.9336 72.5586-29.0771Q69.4336-26.2207 66.2354-24.8535Q63.0371-23.4863 60.9375-23.4863Q59.7168-23.4863 58.9355-24.2432Q58.1543-25 58.1543-26.0742Q58.1543-27.0996 58.7402-27.7832Q59.3262-28.4668 60.8887-28.8574Q62.6953-29.3457 65.0391-30.7373Q67.3828-32.1289 69.4824-34.3506Q71.582-36.5723 72.7539-39.5508L72.168-39.5508Q70.8496-37.8906 68.8965-37.207Q66.9434-36.5234 64.7949-36.5234Q59.4238-36.5234 56.2012-40.1367Q52.9785-43.75 52.9785-49.0723Z"/>
  </g>
  <g id="Thin-L" transform="matrix(1 0 0 1 773.683 1556)">
   <path class="hierarchical-0:tertiary SFSymbolsPreview8E8E8E" d="M47.8027 29.7852Q48.7305 29.7852 49.5117 29.3213Q50.293 28.8574 51.0742 28.1738L73.9746 8.49609L126.074 8.49609Q133.252 8.54492 138.477 5.66406Q143.701 2.7832 146.558-2.46582Q149.414-7.71484 149.414-14.7949L149.414-69.3848Q149.414-76.5137 146.558-81.7383Q143.701-86.9629 138.477-89.8193Q133.252-92.6758 126.074-92.6758L39.4043-92.6758Q32.1777-92.6758 26.9775-89.8438Q21.7773-87.0117 18.9209-81.7627Q16.0645-76.5137 16.0645-69.3848L16.0645-14.7949Q16.0645-7.61719 18.9209-2.39258Q21.7773 2.83203 26.9775 5.66406Q32.1777 8.49609 39.4043 8.49609L45.1172 8.49609L45.1172 26.709Q45.1172 28.125 45.874 28.9551Q46.6309 29.7852 47.8027 29.7852Z"/>
   <path class="hierarchical-1:primary SFSymbolsPreview212121" d="M87.0117-48.1934Q87.0117-51.709 88.6963-54.541Q90.3809-57.373 93.2861-59.0332Q96.1914-60.6934 99.8047-60.6934Q103.467-60.6934 106.519-58.8867Q109.57-57.0801 111.45-53.7354Q113.33-50.3906 113.33-45.8984Q113.33-39.9414 111.206-35.6934Q109.082-31.4453 105.981-28.7109Q102.881-25.9766 99.8047-24.6826Q96.7285-23.3887 94.873-23.3887Q93.7988-23.3887 93.1152-24.0723Q92.4316-24.7559 92.4316-25.7324Q92.4316-26.6113 92.9688-27.1973Q93.5059-27.7832 94.8242-28.1738Q96.4844-28.6133 98.877-30.0293Q101.27-31.4453 103.516-33.8379Q105.762-36.2305 106.885-39.4531L106.299-39.4531Q104.932-37.6953 102.93-36.9141Q100.928-36.1328 98.6328-36.1328Q93.457-36.1328 90.2344-39.5508Q87.0117-42.9688 87.0117-48.1934ZM52.0996-48.1934Q52.0996-51.709 53.7842-54.541Q55.4688-57.373 58.374-59.0332Q61.2793-60.6934 64.8926-60.6934Q68.5059-60.6934 71.582-58.8867Q74.6582-57.0801 76.5381-53.7354Q78.418-50.3906 78.418-45.8984Q78.418-39.9414 76.2939-35.6934Q74.1699-31.4453 71.0449-28.7109Q67.9199-25.9766 64.8682-24.6826Q61.8164-23.3887 59.9609-23.3887Q58.8867-23.3887 58.2031-24.0723Q57.5195-24.7559 57.5195-25.7324Q57.5195-26.6113 58.0322-27.1973Q58.5449-27.7832 59.9121-28.1738Q61.4746-28.6133 63.8916-30.0293Q66.3086-31.4453 68.5547-33.8379Q70.8008-36.2305 71.9727-39.4531L71.3867-39.4531Q69.9707-37.6953 67.9932-36.9141Q66.0156-36.1328 63.7207-36.1328Q58.5449-36.1328 55.3223-39.5508Q52.0996-42.9688 52.0996-48.1934Z"/>
  </g>
  <g id="Ultralight-L" transform="matrix(1 0 0 1 477.607 1556)">
   <path class="hierarchical-0:tertiary SFSymbolsPreview8E8E8E" d="M46.582 28.8086Q47.2656 28.8086 47.8516 28.4424Q48.4375 28.0762 48.9746 27.6855L71.875 8.30078L126.074 8.30078Q132.764 8.30078 137.72 5.51758Q142.676 2.73438 145.41-2.24609Q148.145-7.22656 148.145-13.8184L148.145-69.7754Q148.145-76.416 145.41-81.3965Q142.676-86.377 137.72-89.1357Q132.764-91.8945 126.074-91.8945L38.1348-91.8945Q31.4453-91.8945 26.4893-89.1602Q21.5332-86.4258 18.7988-81.4453Q16.0645-76.4648 16.0645-69.7754L16.0645-13.8184Q16.0645-7.12891 18.7988-2.14844Q21.5332 2.83203 26.4893 5.56641Q31.4453 8.30078 38.1348 8.30078L44.4824 8.30078L44.4824 26.4648Q44.4824 27.5391 45.0928 28.1738Q45.7031 28.8086 46.582 28.8086Z"/>
   <path class="hierarchical-1:primary SFSymbolsPreview212121" d="M86.5234-47.7539Q86.5234-51.2207 88.208-54.0039Q89.8926-56.7871 92.7246-58.4229Q95.5566-60.0586 99.1699-60.0586Q102.637-60.0586 105.688-58.3008Q108.74-56.543 110.645-53.2715Q112.549-50 112.549-45.459Q112.549-39.5996 110.4-35.4248Q108.252-31.25 105.151-28.5645Q102.051-25.8789 99.0723-24.6094Q96.0938-23.3398 94.3359-23.3398Q93.3105-23.3398 92.7002-23.9746Q92.0898-24.6094 92.0898-25.5371Q92.0898-26.3672 92.6025-26.9043Q93.1152-27.4414 94.3359-27.7832Q95.8496-28.2227 98.291-29.6631Q100.732-31.1035 103.052-33.5693Q105.371-36.0352 106.445-39.4043L105.859-39.4043Q104.443-37.6465 102.417-36.7676Q100.391-35.8887 98.0957-35.8887Q92.9688-35.8887 89.7461-39.2578Q86.5234-42.627 86.5234-47.7539ZM51.6602-47.7539Q51.6602-51.2207 53.2959-54.0039Q54.9316-56.7871 57.8125-58.4229Q60.6934-60.0586 64.2578-60.0586Q67.7246-60.0586 70.8008-58.3008Q73.877-56.543 75.7568-53.2715Q77.6367-50 77.6367-45.459Q77.6367-39.5996 75.4883-35.4248Q73.3398-31.25 70.2637-28.5645Q67.1875-25.8789 64.1846-24.6094Q61.1816-23.3398 59.4238-23.3398Q58.4473-23.3398 57.8125-23.9746Q57.1777-24.6094 57.1777-25.5371Q57.1777-26.3672 57.666-26.9043Q58.1543-27.4414 59.4238-27.7832Q60.8887-28.2227 63.3545-29.6631Q65.8203-31.1035 68.1396-33.5693Q70.459-36.0352 71.582-39.4043L70.9961-39.4043Q69.5801-37.6465 67.5537-36.7676Q65.5273-35.8887 63.2324-35.8887Q58.1055-35.8887 54.8828-39.2578Q51.6602-42.627 51.6602-47.7539Z"/>
  </g>
  <g id="Black-M" transform="matrix(1 0 0 1 2865.68 1126)">
   <path class="hierarchical-0:tertiary SFSymbolsPreview8E8E8E" d="M42.7246 23.0469Q44.6289 23.0469 46.4355 22.2412Q48.2422 21.4355 50.5371 19.3848L69.873 2.63672L97.4609 2.63672Q105.176 2.63672 110.913-0.561523Q116.65-3.75977 119.824-9.49707Q122.998-15.2344 122.998-22.9004L122.998-62.8906Q122.998-70.5566 119.824-76.2939Q116.65-82.0312 110.913-85.2295Q105.176-88.4277 97.4609-88.4277L37.9395-88.4277Q30.2734-88.4277 24.5361-85.2295Q18.7988-82.0312 15.625-76.2939Q12.4512-70.5566 12.4512-62.8906L12.4512-22.9004Q12.4512-15.2344 15.7959-9.49707Q19.1406-3.75977 24.5605-0.561523Q29.9805 2.63672 36.2305 2.63672L36.7188 2.63672L36.7188 16.5039Q36.7188 19.5312 38.3545 21.2891Q39.9902 23.0469 42.7246 23.0469Z"/>
   <path class="hierarchical-1:primary SFSymbolsPreview212121" d="M70.3613-47.8027Q70.3613-53.0273 73.7549-56.4453Q77.1484-59.8633 82.4219-59.8633Q86.5723-59.8633 89.5264-57.8125Q92.4805-55.7617 94.043-52.3193Q95.6055-48.877 95.6055-44.7266Q95.6055-40.7715 94.0918-37.3535Q92.5781-33.9355 90.1123-31.3721Q87.6465-28.8086 84.8389-27.3682Q82.0312-25.9277 79.4434-25.9277Q78.125-25.9277 77.1973-26.5869Q76.2695-27.2461 76.2695-28.5645Q76.2695-29.541 76.8799-30.2246Q77.4902-30.9082 78.4668-31.1523Q81.4453-31.7383 83.5938-32.9834Q85.7422-34.2285 87.085-35.8398Q88.4277-37.4512 88.8184-39.1113L87.5-39.1113Q86.3281-37.793 84.5703-37.1094Q82.8125-36.4258 80.5176-36.4258Q76.0742-36.4258 73.2178-39.5996Q70.3613-42.7734 70.3613-47.8027ZM41.3086-47.8027Q41.3086-53.0273 44.7021-56.4453Q48.0957-59.8633 53.3691-59.8633Q57.5195-59.8633 60.4736-57.8125Q63.4277-55.7617 64.9902-52.3193Q66.5527-48.877 66.5527-44.7266Q66.5527-40.7715 65.0146-37.3535Q63.4766-33.9355 61.0352-31.3721Q58.5938-28.8086 55.7617-27.3682Q52.9297-25.9277 50.3418-25.9277Q49.0723-25.9277 48.1201-26.5869Q47.168-27.2461 47.168-28.5645Q47.168-29.541 47.7783-30.2246Q48.3887-30.9082 49.4141-31.1523Q52.3438-31.7383 54.5166-32.9834Q56.6895-34.2285 58.0078-35.8398Q59.3262-37.4512 59.7656-39.1113L58.3984-39.1113Q57.2754-37.793 55.4932-37.1094Q53.7109-36.4258 51.416-36.4258Q47.0215-36.4258 44.165-39.5996Q41.3086-42.7734 41.3086-47.8027Z"/>
  </g>
  <g id="Heavy-M" transform="matrix(1 0 0 1 2569.31 1126)">
   <path class="hierarchical-0:tertiary SFSymbolsPreview8E8E8E" d="M42.4316 22.0215Q44.2383 22.0215 45.8984 21.2158Q47.5586 20.4102 49.707 18.5059L68.6523 1.9043L97.5098 1.9043Q105.127 1.9043 110.693-1.14746Q116.26-4.19922 119.287-9.76562Q122.314-15.332 122.314-22.9004L122.314-62.2559Q122.314-69.8242 119.287-75.3906Q116.26-80.957 110.693-84.0088Q105.127-87.0605 97.5098-87.0605L37.207-87.0605Q29.6387-87.0605 24.0723-84.0088Q18.5059-80.957 15.4785-75.3906Q12.4512-69.8242 12.4512-62.2559L12.4512-22.9004Q12.4512-15.332 15.6006-9.76562Q18.75-4.19922 24.0723-1.14746Q29.3945 1.9043 35.8887 1.9043L36.8164 1.9043L36.8164 15.8203Q36.8164 18.7012 38.3301 20.3613Q39.8438 22.0215 42.4316 22.0215Z"/>
   <path class="hierarchical-1:primary SFSymbolsPreview212121" d="M70.0684-47.6074Q70.0684-52.6367 73.3643-55.9326Q76.6602-59.2285 81.7871-59.2285Q85.6934-59.2285 88.5498-57.2754Q91.4062-55.3223 92.9199-52.0508Q94.4336-48.7793 94.4336-44.8242Q94.4336-40.6738 92.8955-37.207Q91.3574-33.7402 88.8916-31.2256Q86.4258-28.7109 83.667-27.3438Q80.9082-25.9766 78.5156-25.9766Q77.2461-25.9766 76.3672-26.6602Q75.4883-27.3438 75.4883-28.5645Q75.4883-29.541 76.0742-30.2002Q76.6602-30.8594 77.7344-31.1035Q80.3711-31.6895 82.4219-32.8857Q84.4727-34.082 85.8643-35.6689Q87.2559-37.2559 87.7441-39.0137L86.6699-39.0137Q85.5469-37.7441 83.8379-37.1338Q82.1289-36.5234 80.0293-36.5234Q75.5859-36.5234 72.8271-39.624Q70.0684-42.7246 70.0684-47.6074ZM41.4551-47.6074Q41.4551-52.6367 44.7754-55.9326Q48.0957-59.2285 53.1738-59.2285Q57.1289-59.2285 59.9609-57.2754Q62.793-55.3223 64.3066-52.0508Q65.8203-48.7793 65.8203-44.8242Q65.8203-40.6738 64.2578-37.207Q62.6953-33.7402 60.2539-31.2256Q57.8125-28.7109 55.0293-27.3438Q52.2461-25.9766 49.8535-25.9766Q48.6328-25.9766 47.7295-26.6602Q46.8262-27.3438 46.8262-28.5645Q46.8262-29.541 47.4121-30.2002Q47.998-30.8594 49.1211-31.1035Q51.7578-31.6895 53.8086-32.8857Q55.8594-34.082 57.2266-35.6689Q58.5938-37.2559 59.1309-39.0137L58.0078-39.0137Q56.9336-37.7441 55.2246-37.1338Q53.5156-36.5234 51.3672-36.5234Q47.0215-36.5234 44.2383-39.624Q41.4551-42.7246 41.4551-47.6074Z"/>
  </g>
  <g id="Bold-M" transform="matrix(1 0 0 1 2272.99 1126)">
   <path class="hierarchical-0:tertiary SFSymbolsPreview8E8E8E" d="M42.0898 20.8984Q43.7988 20.8984 45.2881 20.1172Q46.7773 19.3359 48.8281 17.4805L67.2852 1.07422L97.6074 1.07422Q105.078 1.07422 110.449-1.83105Q115.82-4.73633 118.677-10.1074Q121.533-15.4785 121.533-22.9004L121.533-61.5723Q121.533-68.9941 118.677-74.3652Q115.82-79.7363 110.449-82.6416Q105.078-85.5469 97.6074-85.5469L36.377-85.5469Q28.9062-85.5469 23.5596-82.6416Q18.2129-79.7363 15.332-74.3652Q12.4512-68.9941 12.4512-61.5723L12.4512-22.9004Q12.4512-15.4785 15.4053-10.1074Q18.3594-4.73633 23.5596-1.83105Q28.7598 1.07422 35.5469 1.07422L36.9141 1.07422L36.9141 15.0879Q36.9141 17.7734 38.3057 19.3359Q39.6973 20.8984 42.0898 20.8984Z"/>
   <path class="hierarchical-1:primary SFSymbolsPreview212121" d="M69.7266-47.3633Q69.7266-52.1973 72.9492-55.3467Q76.1719-58.4961 81.0547-58.4961Q84.7656-58.4961 87.4756-56.665Q90.1855-54.834 91.6748-51.7578Q93.1641-48.6816 93.1641-44.873Q93.1641-40.5273 91.5771-37.0361Q89.9902-33.5449 87.5244-31.1035Q85.0586-28.6621 82.373-27.3682Q79.6875-26.0742 77.4414-26.0742Q76.2207-26.0742 75.415-26.7334Q74.6094-27.3926 74.6094-28.5645Q74.6094-29.4922 75.1465-30.1514Q75.6836-30.8105 76.9043-31.1035Q79.1992-31.5918 81.1523-32.7393Q83.1055-33.8867 84.4971-35.4736Q85.8887-37.0605 86.5723-38.916L85.6934-38.916Q84.6191-37.6465 83.0078-37.1094Q81.3965-36.5723 79.4434-36.5723Q75.0977-36.5723 72.4121-39.624Q69.7266-42.6758 69.7266-47.3633ZM41.6016-47.3633Q41.6016-52.1973 44.8242-55.3467Q48.0469-58.4961 52.9785-58.4961Q56.6406-58.4961 59.3506-56.665Q62.0605-54.834 63.5498-51.7578Q65.0391-48.6816 65.0391-44.873Q65.0391-40.5273 63.4521-37.0361Q61.8652-33.5449 59.3994-31.1035Q56.9336-28.6621 54.2236-27.3682Q51.5137-26.0742 49.2676-26.0742Q48.0957-26.0742 47.2656-26.7334Q46.4355-27.3926 46.4355-28.5645Q46.4355-29.4922 46.9971-30.1514Q47.5586-30.8105 48.7793-31.1035Q51.0742-31.5918 53.0273-32.7393Q54.9805-33.8867 56.3721-35.4736Q57.7637-37.0605 58.4473-38.916L57.5684-38.916Q56.4941-37.6465 54.8828-37.1094Q53.2715-36.5723 51.3184-36.5723Q46.9727-36.5723 44.2871-39.624Q41.6016-42.6758 41.6016-47.3633Z"/>
  </g>
  <g id="Semibold-M" transform="matrix(1 0 0 1 1976.54 1126)">
   <path class="hierarchical-0:tertiary SFSymbolsPreview8E8E8E" d="M41.8457 20.0684Q43.457 20.0684 44.8486 19.3115Q46.2402 18.5547 48.1934 16.7969L66.3574 0.488281L97.6074 0.488281Q105.029 0.488281 110.254-2.29492Q115.479-5.07812 118.237-10.3027Q120.996-15.5273 120.996-22.8516L120.996-61.084Q120.996-68.4082 118.237-73.6328Q115.479-78.8574 110.254-81.665Q105.029-84.4727 97.6074-84.4727L35.791-84.4727Q28.418-84.4727 23.1934-81.665Q17.9688-78.8574 15.21-73.6328Q12.4512-68.4082 12.4512-61.084L12.4512-22.8516Q12.4512-15.5273 15.2588-10.3027Q18.0664-5.07812 23.1934-2.29492Q28.3203 0.488281 35.2539 0.488281L36.9629 0.488281L36.9629 14.5508Q36.9629 17.0898 38.2568 18.5791Q39.5508 20.0684 41.8457 20.0684Z"/>
   <path class="hierarchical-1:primary SFSymbolsPreview212121" d="M69.5312-47.168Q69.5312-51.9043 72.6807-54.9316Q75.8301-57.959 80.6152-57.959Q84.1309-57.959 86.7676-56.2256Q89.4043-54.4922 90.8447-51.5381Q92.2852-48.584 92.2852-44.9219Q92.2852-40.3809 90.6982-36.8896Q89.1113-33.3984 86.6211-30.9814Q84.1309-28.5645 81.4941-27.3193Q78.8574-26.0742 76.709-26.0742Q75.5371-26.0742 74.7803-26.7578Q74.0234-27.4414 74.0234-28.5156Q74.0234-29.4434 74.5361-30.0781Q75.0488-30.7129 76.3184-31.0547Q78.418-31.543 80.2734-32.6416Q82.1289-33.7402 83.5693-35.3027Q85.0098-36.8652 85.7422-38.8184L85.0586-38.8184Q84.0332-37.5977 82.4707-37.1094Q80.9082-36.6211 79.1016-36.6211Q74.7559-36.6211 72.1436-39.624Q69.5312-42.627 69.5312-47.168ZM41.748-47.168Q41.748-51.9043 44.8975-54.9316Q48.0469-57.959 52.832-57.959Q56.3477-57.959 58.9844-56.2256Q61.6211-54.4922 63.0615-51.5381Q64.502-48.584 64.502-44.9219Q64.502-40.3809 62.8906-36.8896Q61.2793-33.3984 58.8135-30.9814Q56.3477-28.5645 53.6865-27.3193Q51.0254-26.0742 48.9258-26.0742Q47.8027-26.0742 46.9971-26.7578Q46.1914-27.4414 46.1914-28.5156Q46.1914-29.4434 46.7529-30.0781Q47.3145-30.7129 48.584-31.0547Q50.6348-31.543 52.4902-32.6416Q54.3457-33.7402 55.7617-35.3027Q57.1777-36.8652 57.959-38.8184L57.2754-38.8184Q56.25-37.5977 54.6875-37.1094Q53.125-36.6211 51.3184-36.6211Q46.9727-36.6211 44.3604-39.624Q41.748-42.627 41.748-47.168Z"/>
  </g>
  <g id="Medium-M" transform="matrix(1 0 0 1 1680.03 1126)">
   <path class="hierarchical-0:tertiary SFSymbolsPreview8E8E8E" d="M41.6992 19.4824Q43.2129 19.4824 44.5312 18.7256Q45.8496 17.9688 47.7051 16.2598L65.625 0.0488281L97.6562 0.0976562Q105.029 0.0976562 110.132-2.63672Q115.234-5.37109 117.92-10.4736Q120.605-15.5762 120.605-22.8516L120.605-60.7422Q120.605-68.0176 117.92-73.1201Q115.234-78.2227 110.132-80.9326Q105.029-83.6426 97.6562-83.6426L35.4004-83.6426Q28.0273-83.6426 22.9004-80.9326Q17.7734-78.2227 15.1123-73.1201Q12.4512-68.0176 12.4512-60.7422L12.4512-22.8516Q12.4512-15.5762 15.1611-10.4736Q17.8711-5.37109 22.9248-2.66113Q27.9785 0.0488281 35.0586 0.0488281L37.0605 0.0488281L37.0605 14.1602Q37.0605 16.6016 38.2568 18.042Q39.4531 19.4824 41.6992 19.4824Z"/>
   <path class="hierarchical-1:primary SFSymbolsPreview212121" d="M69.3848-47.0703Q69.3848-51.6602 72.4854-54.6387Q75.5859-57.6172 80.2246-57.6172Q83.6426-57.6172 86.2061-55.9326Q88.7695-54.248 90.1855-51.3916Q91.6016-48.5352 91.6016-44.9707Q91.6016-40.332 89.9902-36.8164Q88.3789-33.3008 85.8887-30.9326Q83.3984-28.5645 80.8105-27.3438Q78.2227-26.123 76.1719-26.123Q75-26.123 74.292-26.8066Q73.584-27.4902 73.584-28.5645Q73.584-29.4922 74.0723-30.1025Q74.5605-30.7129 75.9277-31.0547Q77.832-31.4941 79.6387-32.5684Q81.4453-33.6426 82.8857-35.2051Q84.3262-36.7676 85.1562-38.8184L84.5703-38.8184Q83.5938-37.5488 82.0557-37.1094Q80.5176-36.6699 78.8086-36.6699Q74.5117-36.6699 71.9482-39.6484Q69.3848-42.627 69.3848-47.0703ZM41.8457-47.0703Q41.8457-51.6602 44.9707-54.6387Q48.0957-57.6172 52.7344-57.6172Q56.1523-57.6172 58.6914-55.9326Q61.2305-54.248 62.6465-51.3916Q64.0625-48.5352 64.0625-44.9707Q64.0625-40.332 62.4512-36.8164Q60.8398-33.3008 58.374-30.9326Q55.9082-28.5645 53.2959-27.3438Q50.6836-26.123 48.6328-26.123Q47.5098-26.123 46.7773-26.8066Q46.0449-27.4902 46.0449-28.5645Q46.0449-29.4922 46.5576-30.1025Q47.0703-30.7129 48.4375-31.0547Q50.293-31.4941 52.0996-32.5684Q53.9062-33.6426 55.3467-35.2051Q56.7871-36.7676 57.6172-38.8184L57.0312-38.8184Q56.0547-37.5488 54.541-37.1094Q53.0273-36.6699 51.3184-36.6699Q47.0215-36.6699 44.4336-39.6484Q41.8457-42.627 41.8457-47.0703Z"/>
  </g>
  <g id="Regular-M" transform="matrix(1 0 0 1 1383.58 1126)">
   <path class="hierarchical-0:tertiary SFSymbolsPreview8E8E8E" d="M41.4551 18.7012Q42.9199 18.7012 44.1162 17.9443Q45.3125 17.1875 47.0703 15.5762L64.6973-0.537109L97.7051-0.488281Q104.98-0.488281 109.961-3.10059Q114.941-5.71289 117.505-10.6934Q120.068-15.6738 120.068-22.8516L120.068-60.2539Q120.068-67.4316 117.505-72.4121Q114.941-77.3926 109.961-80.0049Q104.98-82.6172 97.7051-82.6172L34.8145-82.6172Q27.5391-82.6172 22.5586-80.0049Q17.5781-77.3926 15.0146-72.4121Q12.4512-67.4316 12.4512-60.2539L12.4512-22.8516Q12.4512-15.6738 15.0146-10.6934Q17.5781-5.71289 22.5586-3.125Q27.5391-0.537109 34.8145-0.537109L37.1094-0.537109L37.1094 13.6719Q37.1094 15.9668 38.2324 17.334Q39.3555 18.7012 41.4551 18.7012Z"/>
   <path class="hierarchical-1:primary SFSymbolsPreview212121" d="M69.1406-46.875Q69.1406-51.3672 72.168-54.2236Q75.1953-57.0801 79.7363-57.0801Q82.959-57.0801 85.4492-55.4932Q87.9395-53.9062 89.3311-51.1719Q90.7227-48.4375 90.7227-45.0195Q90.7227-40.2344 89.0869-36.6943Q87.4512-33.1543 84.9609-30.8105Q82.4707-28.4668 79.9072-27.3193Q77.3438-26.1719 75.4395-26.1719Q74.3164-26.1719 73.6328-26.8555Q72.9492-27.5391 72.9492-28.5156Q72.9492-29.4434 73.4375-30.0537Q73.9258-30.6641 75.3418-31.0059Q77.002-31.4453 78.7354-32.4707Q80.4688-33.4961 81.9336-35.0586Q83.3984-36.6211 84.3262-38.7207L83.9355-38.7207Q82.959-37.5 81.4697-37.1094Q79.9805-36.7188 78.418-36.7188Q74.1211-36.7188 71.6309-39.6484Q69.1406-42.5781 69.1406-46.875ZM41.9434-46.875Q41.9434-51.3672 44.9951-54.2236Q48.0469-57.0801 52.5879-57.0801Q55.8105-57.0801 58.2764-55.4932Q60.7422-53.9062 62.1338-51.1719Q63.5254-48.4375 63.5254-45.0195Q63.5254-40.2344 61.8896-36.6943Q60.2539-33.1543 57.7881-30.8105Q55.3223-28.4668 52.7344-27.3193Q50.1465-26.1719 48.2422-26.1719Q47.168-26.1719 46.46-26.8555Q45.752-27.5391 45.752-28.5156Q45.752-29.4434 46.2646-30.0537Q46.7773-30.6641 48.1934-31.0059Q49.8047-31.4453 51.5381-32.4707Q53.2715-33.4961 54.7363-35.0586Q56.2012-36.6211 57.1289-38.7207L56.7383-38.7207Q55.7617-37.5 54.2969-37.1094Q52.832-36.7188 51.2695-36.7188Q46.9727-36.7188 44.458-39.6484Q41.9434-42.5781 41.9434-46.875Z"/>
  </g>
  <g id="Light-M" transform="matrix(1 0 0 1 1087.68 1126)">
   <path class="hierarchical-0:tertiary SFSymbolsPreview8E8E8E" d="M39.7949 17.3828Q40.9668 17.3828 41.9434 16.7725Q42.9199 16.1621 44.2383 14.9414L61.9141-0.830078L97.7051-0.830078Q104.346-0.830078 108.96-3.2959Q113.574-5.76172 116.016-10.376Q118.457-14.9902 118.457-21.5332L118.457-60.791Q118.457-67.334 116.016-71.9727Q113.574-76.6113 108.96-79.0771Q104.346-81.543 97.7051-81.543L33.2031-81.543Q26.5625-81.543 21.9238-79.0771Q17.2852-76.6113 14.8682-71.9971Q12.4512-67.3828 12.4512-60.791L12.4512-21.5332Q12.4512-14.9902 14.8682-10.3516Q17.2852-5.71289 21.9238-3.27148Q26.5625-0.830078 33.2031-0.830078L36.2793-0.830078L36.2793 13.3301Q36.2793 15.1855 37.207 16.2842Q38.1348 17.3828 39.7949 17.3828Z"/>
   <path class="hierarchical-1:primary SFSymbolsPreview212121" d="M68.5059-46.2891Q68.5059-50.6348 71.46-53.4668Q74.4141-56.2988 78.8574-56.2988Q81.8848-56.2988 84.3506-54.7607Q86.8164-53.2227 88.2324-50.5615Q89.6484-47.9004 89.6484-44.4336Q89.6484-39.7461 87.9883-36.3037Q86.3281-32.8613 83.8867-30.5908Q81.4453-28.3203 78.9551-27.2217Q76.4648-26.123 74.707-26.123Q73.6816-26.123 73.0713-26.7578Q72.4609-27.3926 72.4609-28.2715Q72.4609-29.1016 72.9248-29.6631Q73.3887-30.2246 74.6582-30.5176Q76.1719-30.957 77.9541-32.0068Q79.7363-33.0566 81.2988-34.7168Q82.8613-36.377 83.7402-38.6719L83.3496-38.6719Q82.3242-37.3535 80.8105-36.8896Q79.2969-36.4258 77.6855-36.4258Q73.4863-36.4258 70.9961-39.2578Q68.5059-42.0898 68.5059-46.2891ZM41.3574-46.2891Q41.3574-50.6348 44.3359-53.4668Q47.3145-56.2988 51.709-56.2988Q54.7852-56.2988 57.2266-54.7607Q59.668-53.2227 61.084-50.5615Q62.5-47.9004 62.5-44.4336Q62.5-39.7461 60.8643-36.3037Q59.2285-32.8613 56.7627-30.5908Q54.2969-28.3203 51.8066-27.2217Q49.3164-26.123 47.5586-26.123Q46.582-26.123 45.9473-26.7578Q45.3125-27.3926 45.3125-28.2715Q45.3125-29.1016 45.7764-29.6631Q46.2402-30.2246 47.5098-30.5176Q49.0234-30.957 50.8057-32.0068Q52.5879-33.0566 54.1504-34.7168Q55.7129-36.377 56.6406-38.6719L56.2012-38.6719Q55.1758-37.3535 53.6865-36.8896Q52.1973-36.4258 50.5859-36.4258Q46.3867-36.4258 43.8721-39.2578Q41.3574-42.0898 41.3574-46.2891Z"/>
  </g>
  <g id="Thin-M" transform="matrix(1 0 0 1 792.042 1126)">
   <path class="hierarchical-0:tertiary SFSymbolsPreview8E8E8E" d="M37.5977 15.625Q38.3789 15.625 39.0625 15.21Q39.7461 14.7949 40.4785 14.1113L58.252-1.2207L97.7051-1.2207Q103.467-1.2207 107.642-3.49121Q111.816-5.76172 114.062-9.93652Q116.309-14.1113 116.309-19.7754L116.309-61.5234Q116.309-67.2363 114.062-71.4111Q111.816-75.5859 107.642-77.8564Q103.467-80.127 97.7051-80.127L31.0547-80.127Q25.293-80.127 21.1182-77.8564Q16.9434-75.5859 14.6973-71.4355Q12.4512-67.2852 12.4512-61.5234L12.4512-19.7754Q12.4512-14.0625 14.6973-9.91211Q16.9434-5.76172 21.1182-3.49121Q25.293-1.2207 31.0547-1.2207L35.2051-1.2207L35.2051 12.8418Q35.2051 14.1602 35.8643 14.8926Q36.5234 15.625 37.5977 15.625Z"/>
   <path class="hierarchical-1:primary SFSymbolsPreview212121" d="M67.6758-45.5078Q67.6758-49.6094 70.5322-52.417Q73.3887-55.2246 77.6855-55.2246Q80.5176-55.2246 82.9102-53.7842Q85.3027-52.3438 86.7432-49.7559Q88.1836-47.168 88.1836-43.6523Q88.1836-39.0625 86.5479-35.7422Q84.9121-32.4219 82.4707-30.2734Q80.0293-28.125 77.6611-27.0996Q75.293-26.0742 73.7793-26.0742Q72.9004-26.0742 72.3389-26.6113Q71.7773-27.1484 71.7773-27.9297Q71.7773-28.6621 72.2168-29.126Q72.6562-29.5898 73.7305-29.8828Q75.0488-30.2246 76.9043-31.3477Q78.7598-32.4707 80.4443-34.2773Q82.1289-36.084 83.0078-38.5254L82.5684-38.5254Q81.543-37.1582 79.9805-36.5723Q78.418-35.9863 76.709-35.9863Q72.6562-35.9863 70.166-38.6963Q67.6758-41.4062 67.6758-45.5078ZM40.5762-45.5078Q40.5762-49.6094 43.457-52.417Q46.3379-55.2246 50.5859-55.2246Q53.418-55.2246 55.8105-53.7842Q58.2031-52.3438 59.6436-49.7559Q61.084-47.168 61.084-43.6523Q61.084-39.0625 59.4482-35.7422Q57.8125-32.4219 55.3955-30.2734Q52.9785-28.125 50.5859-27.0996Q48.1934-26.0742 46.6797-26.0742Q45.8496-26.0742 45.2881-26.6113Q44.7266-27.1484 44.7266-27.9297Q44.7266-28.6621 45.1416-29.126Q45.5566-29.5898 46.6309-29.8828Q47.9492-30.2246 49.7803-31.3477Q51.6113-32.4707 53.3203-34.2773Q55.0293-36.084 55.957-38.5254L55.5176-38.5254Q54.4434-37.1582 52.9053-36.5723Q51.3672-35.9863 49.6094-35.9863Q45.5566-35.9863 43.0664-38.6963Q40.5762-41.4062 40.5762-45.5078Z"/>
  </g>
  <g id="Ultralight-M" transform="matrix(1 0 0 1 495.893 1126)">
   <path class="hierarchical-0:tertiary SFSymbolsPreview8E8E8E" d="M36.4746 14.6973Q37.0605 14.6973 37.5732 14.4043Q38.0859 14.1113 38.5742 13.6719L56.3477-1.46484L97.7051-1.46484Q103.027-1.46484 106.958-3.6377Q110.889-5.81055 113.037-9.74121Q115.186-13.6719 115.186-18.8965L115.186-61.8652Q115.186-67.1387 113.037-71.0938Q110.889-75.0488 106.958-77.2217Q103.027-79.3945 97.7051-79.3945L29.9316-79.3945Q24.6094-79.3945 20.6787-77.2461Q16.748-75.0977 14.5996-71.167Q12.4512-67.2363 12.4512-61.8652L12.4512-18.8965Q12.4512-13.5742 14.5996-9.66797Q16.748-5.76172 20.6787-3.61328Q24.6094-1.46484 29.9316-1.46484L34.668-1.46484L34.668 12.6465Q34.668 13.623 35.2051 14.1602Q35.7422 14.6973 36.4746 14.6973Z"/>
   <path class="hierarchical-1:primary SFSymbolsPreview212121" d="M67.2363-45.1172Q67.2363-49.1211 70.0439-51.9043Q72.8516-54.6875 77.0508-54.6875Q79.7852-54.6875 82.1777-53.2959Q84.5703-51.9043 86.0107-49.3652Q87.4512-46.8262 87.4512-43.3105Q87.4512-38.7207 85.791-35.4736Q84.1309-32.2266 81.7383-30.127Q79.3457-28.0273 77.002-27.0264Q74.6582-26.0254 73.291-26.0254Q72.4609-26.0254 71.9727-26.5381Q71.4844-27.0508 71.4844-27.7832Q71.4844-28.4668 71.8994-28.8818Q72.3145-29.2969 73.2422-29.5898Q74.4629-29.9316 76.3672-31.0547Q78.2715-32.1777 80.0293-34.0576Q81.7871-35.9375 82.6172-38.5254L82.1777-38.5254Q81.1035-37.1094 79.541-36.4746Q77.9785-35.8398 76.2207-35.8398Q72.2168-35.8398 69.7266-38.4521Q67.2363-41.0645 67.2363-45.1172ZM40.1855-45.1172Q40.1855-49.1211 43.0176-51.9043Q45.8496-54.6875 50-54.6875Q52.7344-54.6875 55.1025-53.2959Q57.4707-51.9043 58.9355-49.3652Q60.4004-46.8262 60.4004-43.3105Q60.4004-38.7207 58.7646-35.4736Q57.1289-32.2266 54.7119-30.127Q52.2949-28.0273 49.9512-27.0264Q47.6074-26.0254 46.1914-26.0254Q45.459-26.0254 44.9463-26.5381Q44.4336-27.0508 44.4336-27.7832Q44.4336-28.4668 44.8242-28.8818Q45.2148-29.2969 46.1914-29.5898Q47.4121-29.9316 49.292-31.0547Q51.1719-32.1777 52.9541-34.0576Q54.7363-35.9375 55.6152-38.5254L55.1758-38.5254Q54.0527-37.1094 52.4902-36.4746Q50.9277-35.8398 49.1699-35.8398Q45.166-35.8398 42.6758-38.4521Q40.1855-41.0645 40.1855-45.1172Z"/>
  </g>
  <g id="Black-S" transform="matrix(1 0 0 1 2880.28 696)">
   <path class="hierarchical-0:tertiary SFSymbolsPreview8E8E8E" d="M33.4961 10.6445Q35.0098 10.6445 36.4502 10.0342Q37.8906 9.42383 39.6973 7.8125L54.9805-5.37109L76.3672-5.37109Q82.373-5.37109 86.8896-7.91016Q91.4062-10.4492 93.9453-14.9658Q96.4844-19.4824 96.4844-25.4883L96.4844-57.1289Q96.4844-63.1348 93.9453-67.6514Q91.4062-72.168 86.8896-74.707Q82.373-77.2461 76.3672-77.2461L29.8828-77.2461Q23.877-77.2461 19.3604-74.707Q14.8438-72.168 12.3047-67.6514Q9.76562-63.1348 9.76562-57.1289L9.76562-25.4883Q9.76562-19.4824 12.4268-14.9658Q15.0879-10.4492 19.3604-7.91016Q23.6328-5.37109 28.418-5.37109L28.7109-5.37109L28.7109 5.46875Q28.7109 7.86133 30.0049 9.25293Q31.2988 10.6445 33.4961 10.6445Z"/>
   <path class="hierarchical-1:primary SFSymbolsPreview212121" d="M55.1758-45.1172Q55.1758-49.2676 57.8613-51.9775Q60.5469-54.6875 64.6973-54.6875Q69.6777-54.6875 72.4365-51.1475Q75.1953-47.6074 75.1953-42.627Q75.1953-39.5996 73.999-36.9385Q72.8027-34.2773 70.8984-32.251Q68.9941-30.2246 66.7725-29.0771Q64.5508-27.9297 62.5-27.9297Q61.4258-27.9297 60.6934-28.4424Q59.9609-28.9551 59.9609-30.0293Q59.9609-30.8105 60.4492-31.3232Q60.9375-31.8359 61.6699-32.0312Q65.2832-32.7637 67.3584-34.5703Q69.4336-36.377 69.873-38.3301L68.75-38.3301Q67.8223-37.2559 66.4307-36.6943Q65.0391-36.1328 63.1836-36.1328Q59.7168-36.1328 57.4463-38.6475Q55.1758-41.1621 55.1758-45.1172ZM32.2754-45.1172Q32.2754-49.2676 34.9609-51.9775Q37.6465-54.6875 41.7969-54.6875Q46.7773-54.6875 49.5361-51.1475Q52.2949-47.6074 52.2949-42.627Q52.2949-39.5996 51.0986-36.9385Q49.9023-34.2773 47.998-32.251Q46.0938-30.2246 43.8477-29.0771Q41.6016-27.9297 39.5508-27.9297Q38.5254-27.9297 37.7686-28.4424Q37.0117-28.9551 37.0117-30.0293Q37.0117-30.8105 37.5-31.3232Q37.9883-31.8359 38.7695-32.0312Q42.334-32.7637 44.4336-34.5703Q46.5332-36.377 46.9727-38.3301L45.8496-38.3301Q44.9219-37.2559 43.5059-36.6943Q42.0898-36.1328 40.2344-36.1328Q36.8164-36.1328 34.5459-38.6475Q32.2754-41.1621 32.2754-45.1172Z"/>
  </g>
  <g id="Heavy-S" transform="matrix(1 0 0 1 2583.76 696)">
   <path class="hierarchical-0:tertiary SFSymbolsPreview8E8E8E" d="M33.4473 9.96094Q34.9121 9.96094 36.2549 9.32617Q37.5977 8.69141 39.3555 7.12891L54.2969-5.95703L76.416-5.95703Q82.4219-5.95703 86.8408-8.39844Q91.2598-10.8398 93.6768-15.2588Q96.0938-19.6777 96.0938-25.6348L96.0938-56.543Q96.0938-62.5 93.6768-66.9189Q91.2598-71.3379 86.8408-73.7793Q82.4219-76.2207 76.416-76.2207L29.4434-76.2207Q23.4375-76.2207 19.043-73.7793Q14.6484-71.3379 12.207-66.9189Q9.76562-62.5 9.76562-56.543L9.76562-25.6348Q9.76562-19.6777 12.2803-15.2588Q14.7949-10.8398 19.0186-8.39844Q23.2422-5.95703 28.3203-5.95703L28.9062-5.95703L28.9062 4.93164Q28.9062 7.22656 30.127 8.59375Q31.3477 9.96094 33.4473 9.96094Z"/>
   <path class="hierarchical-1:primary SFSymbolsPreview212121" d="M54.9805-45.0195Q54.9805-49.0234 57.6172-51.6357Q60.2539-54.248 64.2578-54.248Q68.9941-54.248 71.6553-50.8789Q74.3164-47.5098 74.3164-42.7734Q74.3164-39.5508 73.1201-36.8652Q71.9238-34.1797 69.9951-32.1777Q68.0664-30.1758 65.8936-29.0771Q63.7207-27.9785 61.7676-27.9785Q60.7422-27.9785 60.0342-28.5156Q59.3262-29.0527 59.3262-30.0293Q59.3262-30.8105 59.8145-31.3232Q60.3027-31.8359 61.1328-32.0801Q64.3555-32.7637 66.4062-34.4971Q68.457-36.2305 69.043-38.2812L68.1152-38.2812Q67.1875-37.207 65.8691-36.7188Q64.5508-36.2305 62.8418-36.2305Q59.375-36.2305 57.1777-38.7207Q54.9805-41.2109 54.9805-45.0195ZM32.4707-45.0195Q32.4707-49.0234 35.083-51.6357Q37.6953-54.248 41.748-54.248Q46.4844-54.248 49.1455-50.8789Q51.8066-47.5098 51.8066-42.7734Q51.8066-39.5508 50.5859-36.8652Q49.3652-34.1797 47.4609-32.1777Q45.5566-30.1758 43.3594-29.0771Q41.1621-27.9785 39.209-27.9785Q38.1836-27.9785 37.4756-28.5156Q36.7676-29.0527 36.7676-30.0293Q36.7676-30.8105 37.2314-31.3232Q37.6953-31.8359 38.5742-32.0801Q41.7969-32.7637 43.8477-34.4971Q45.8984-36.2305 46.4844-38.2812L45.5566-38.2812Q44.6777-37.207 43.335-36.7188Q41.9922-36.2305 40.2832-36.2305Q36.8652-36.2305 34.668-38.7207Q32.4707-41.2109 32.4707-45.0195Z"/>
  </g>
  <g id="Bold-S" transform="matrix(1 0 0 1 2287.24 696)">
   <path class="hierarchical-0:tertiary SFSymbolsPreview8E8E8E" d="M33.3984 9.17969Q34.8145 9.17969 36.0596 8.52051Q37.3047 7.86133 38.9648 6.34766L53.5156-6.64062L76.4648-6.64062Q82.4707-6.64062 86.7676-8.95996Q91.0645-11.2793 93.3838-15.5762Q95.7031-19.873 95.7031-25.8301L95.7031-55.8594Q95.7031-61.8164 93.3838-66.1133Q91.0645-70.4102 86.7676-72.7539Q82.4707-75.0977 76.4648-75.0977L29.0039-75.0977Q22.998-75.0977 18.7012-72.7539Q14.4043-70.4102 12.085-66.1133Q9.76562-61.8164 9.76562-55.8594L9.76562-25.8301Q9.76562-19.873 12.1338-15.5762Q14.502-11.2793 18.6768-8.95996Q22.8516-6.64062 28.2715-6.64062L29.1016-6.64062L29.1016 4.39453Q29.1016 6.5918 30.249 7.88574Q31.3965 9.17969 33.3984 9.17969Z"/>
   <path class="hierarchical-1:primary SFSymbolsPreview212121" d="M54.7852-44.873Q54.7852-48.7793 57.3242-51.2695Q59.8633-53.7598 63.7695-53.7598Q68.2129-53.7598 70.7764-50.5859Q73.3398-47.4121 73.3398-42.9199Q73.3398-39.502 72.1191-36.7676Q70.8984-34.0332 68.9697-32.0801Q67.041-30.127 64.8926-29.1016Q62.7441-28.0762 60.9375-28.0762Q59.9609-28.0762 59.3018-28.6133Q58.6426-29.1504 58.6426-30.0781Q58.6426-30.8594 59.082-31.3721Q59.5215-31.8848 60.498-32.1289Q63.3301-32.7637 65.332-34.3994Q67.334-36.0352 68.0664-38.1836L67.3828-38.1836Q66.5039-37.1582 65.2344-36.7432Q63.9648-36.3281 62.4512-36.3281Q59.0332-36.3281 56.9092-38.7695Q54.7852-41.2109 54.7852-44.873ZM32.666-44.873Q32.666-48.7793 35.2295-51.2695Q37.793-53.7598 41.6504-53.7598Q46.1426-53.7598 48.7061-50.5859Q51.2695-47.4121 51.2695-42.9199Q51.2695-39.502 50.0244-36.7676Q48.7793-34.0332 46.8506-32.0801Q44.9219-30.127 42.7734-29.1016Q40.625-28.0762 38.8184-28.0762Q37.8418-28.0762 37.1582-28.6133Q36.4746-29.1504 36.4746-30.0781Q36.4746-30.8594 36.9385-31.3721Q37.4023-31.8848 38.3789-32.1289Q41.1621-32.7637 43.1885-34.3994Q45.2148-36.0352 45.9473-38.1836L45.2637-38.1836Q44.3848-37.1582 43.1152-36.7432Q41.8457-36.3281 40.332-36.3281Q36.9141-36.3281 34.79-38.7695Q32.666-41.2109 32.666-44.873Z"/>
  </g>
  <g id="Semibold-S" transform="matrix(1 0 0 1 1990.7 696)">
   <path class="hierarchical-0:tertiary SFSymbolsPreview8E8E8E" d="M33.3496 8.59375Q34.7168 8.59375 35.8887 7.93457Q37.0605 7.27539 38.7207 5.81055L52.9785-7.08008L76.5137-7.08008Q82.5195-7.08008 86.7188-9.32617Q90.918-11.5723 93.1396-15.7959Q95.3613-20.0195 95.3613-25.9766L95.3613-55.4199Q95.3613-61.3281 93.1396-65.5518Q90.918-69.7754 86.7188-72.0215Q82.5195-74.2676 76.5137-74.2676L28.6621-74.2676Q22.6562-74.2676 18.4326-72.0215Q14.209-69.7754 11.9873-65.5518Q9.76562-61.3281 9.76562-55.4199L9.76562-25.9766Q9.76562-20.0195 12.0361-15.7959Q14.3066-11.5723 18.4326-9.32617Q22.5586-7.08008 28.1738-7.08008L29.1992-7.08008L29.1992 3.95508Q29.1992 6.10352 30.2979 7.34863Q31.3965 8.59375 33.3496 8.59375Z"/>
   <path class="hierarchical-1:primary SFSymbolsPreview212121" d="M54.6875-44.7754Q54.6875-48.584 57.1777-51.001Q59.668-53.418 63.4277-53.418Q67.7246-53.418 70.2148-50.3662Q72.7051-47.3145 72.7051-43.0176Q72.7051-39.502 71.46-36.7188Q70.2148-33.9355 68.2861-32.0312Q66.3574-30.127 64.2578-29.126Q62.1582-28.125 60.4004-28.125Q59.4238-28.125 58.8135-28.6621Q58.2031-29.1992 58.2031-30.0781Q58.2031-30.8594 58.6426-31.3721Q59.082-31.8848 60.1074-32.1289Q62.6465-32.7637 64.624-34.3506Q66.6016-35.9375 67.4805-38.1348L66.8945-38.1348Q66.0645-37.1582 64.8438-36.792Q63.623-36.4258 62.2559-36.4258Q58.7891-36.4258 56.7383-38.8428Q54.6875-41.2598 54.6875-44.7754ZM32.8613-44.7754Q32.8613-48.584 35.3516-51.001Q37.8418-53.418 41.6504-53.418Q45.9473-53.418 48.4375-50.3662Q50.9277-47.3145 50.9277-43.0176Q50.9277-39.502 49.6582-36.7188Q48.3887-33.9355 46.46-32.0312Q44.5312-30.127 42.4072-29.126Q40.2832-28.125 38.5742-28.125Q37.5977-28.125 36.9629-28.6621Q36.3281-29.1992 36.3281-30.0781Q36.3281-30.8594 36.7676-31.3721Q37.207-31.8848 38.2812-32.1289Q40.7715-32.7637 42.7734-34.3506Q44.7754-35.9375 45.6055-38.1348L45.0684-38.1348Q44.2383-37.1582 43.0176-36.792Q41.7969-36.4258 40.4297-36.4258Q36.9629-36.4258 34.9121-38.8428Q32.8613-41.2598 32.8613-44.7754Z"/>
  </g>
  <g id="Medium-S" transform="matrix(1 0 0 1 1694.09 696)">
   <path class="hierarchical-0:tertiary SFSymbolsPreview8E8E8E" d="M33.3496 8.20312Q34.668 8.20312 35.7666 7.54395Q36.8652 6.88477 38.4766 5.41992L52.5879-7.4707L76.5137-7.42188Q82.5195-7.42188 86.6943-9.59473Q90.8691-11.7676 93.0176-15.9424Q95.166-20.1172 95.166-26.0254L95.166-55.0293Q95.166-60.9863 93.0176-65.1367Q90.8691-69.2871 86.6943-71.4844Q82.5195-73.6816 76.5137-73.6816L28.418-73.6816Q22.4121-73.6816 18.2373-71.4844Q14.0625-69.2871 11.9141-65.1367Q9.76562-60.9863 9.76562-55.0293L9.76562-26.0254Q9.76562-20.1172 11.9385-15.9668Q14.1113-11.8164 18.2373-9.64355Q22.3633-7.4707 28.125-7.4707L29.2969-7.4707L29.2969 3.66211Q29.2969 5.76172 30.3467 6.98242Q31.3965 8.20312 33.3496 8.20312Z"/>
   <path class="hierarchical-1:primary SFSymbolsPreview212121" d="M54.5898-44.7266Q54.5898-48.4375 57.0312-50.7812Q59.4727-53.125 63.1836-53.125Q67.334-53.125 69.7754-50.1709Q72.2168-47.2168 72.2168-43.0664Q72.2168-39.4043 70.9473-36.6211Q69.6777-33.8379 67.7246-31.9336Q65.7715-30.0293 63.6963-29.0771Q61.6211-28.125 59.9609-28.125Q59.0332-28.125 58.4229-28.6865Q57.8125-29.248 57.8125-30.0781Q57.8125-30.8594 58.2275-31.3721Q58.6426-31.8848 59.7656-32.1289Q62.0605-32.7148 64.0381-34.2529Q66.0156-35.791 66.9434-38.0371L66.5039-38.0371Q65.7227-37.0605 64.5264-36.7432Q63.3301-36.4258 62.0117-36.4258Q58.5938-36.4258 56.5918-38.8184Q54.5898-41.2109 54.5898-44.7266ZM32.959-44.7266Q32.959-48.4375 35.4248-50.7812Q37.8906-53.125 41.6016-53.125Q45.752-53.125 48.1934-50.1709Q50.6348-47.2168 50.6348-43.0664Q50.6348-39.4043 49.3408-36.6211Q48.0469-33.8379 46.1182-31.9336Q44.1895-30.0293 42.0898-29.0771Q39.9902-28.125 38.3301-28.125Q37.4023-28.125 36.792-28.6865Q36.1816-29.248 36.1816-30.0781Q36.1816-30.8594 36.5967-31.3721Q37.0117-31.8848 38.1836-32.1289Q40.4785-32.7148 42.4316-34.2529Q44.3848-35.791 45.3125-38.0371L44.873-38.0371Q44.0918-37.0605 42.9199-36.7432Q41.748-36.4258 40.4297-36.4258Q36.9629-36.4258 34.9609-38.8184Q32.959-41.2109 32.959-44.7266Z"/>
  </g>
  <g id="Regular-S" transform="matrix(1 0 0 1 1397.53 696)">
   <path class="hierarchical-0:tertiary SFSymbolsPreview8E8E8E" d="M33.3008 7.66602Q34.5703 7.66602 35.6201 6.98242Q36.6699 6.29883 38.2324 4.88281L52.0508-7.91016L76.5625-7.86133Q82.5684-7.86133 86.6455-9.96094Q90.7227-12.0605 92.7979-16.1621Q94.873-20.2637 94.873-26.1719L94.873-54.5898Q94.873-60.498 92.7979-64.5752Q90.7227-68.6523 86.6455-70.7764Q82.5684-72.9004 76.5625-72.9004L28.0762-72.9004Q22.0703-72.9004 17.9932-70.7764Q13.916-68.6523 11.8408-64.5752Q9.76562-60.498 9.76562-54.5898L9.76562-26.1719Q9.76562-20.2637 11.8408-16.1865Q13.916-12.1094 17.9932-10.0098Q22.0703-7.91016 28.0762-7.91016L29.4434-7.91016L29.4434 3.27148Q29.4434 5.27344 30.4443 6.46973Q31.4453 7.66602 33.3008 7.66602Z"/>
   <path class="hierarchical-1:primary SFSymbolsPreview212121" d="M54.4434-44.6289Q54.4434-48.2422 56.8359-50.5127Q59.2285-52.7832 62.8418-52.7832Q66.7969-52.7832 69.165-49.9756Q71.5332-47.168 71.5332-43.1641Q71.5332-39.4043 70.2637-36.5723Q68.9941-33.7402 67.041-31.8848Q65.0879-30.0293 63.0371-29.1016Q60.9863-28.1738 59.4238-28.1738Q58.4961-28.1738 57.9102-28.7354Q57.3242-29.2969 57.3242-30.0781Q57.3242-30.8594 57.7393-31.3721Q58.1543-31.8848 59.3262-32.1777Q61.377-32.7148 63.3057-34.2041Q65.2344-35.6934 66.3086-37.9883L66.0156-37.9883Q65.2344-37.0605 64.0869-36.792Q62.9395-36.5234 61.7676-36.5234Q58.3496-36.5234 56.3965-38.8916Q54.4434-41.2598 54.4434-44.6289ZM33.1055-44.6289Q33.1055-48.2422 35.5225-50.5127Q37.9395-52.7832 41.5527-52.7832Q45.5078-52.7832 47.876-49.9756Q50.2441-47.168 50.2441-43.1641Q50.2441-39.4043 48.9502-36.5723Q47.6562-33.7402 45.7031-31.8848Q43.75-30.0293 41.6992-29.1016Q39.6484-28.1738 38.0859-28.1738Q37.1582-28.1738 36.5723-28.7354Q35.9863-29.2969 35.9863-30.0781Q35.9863-30.8594 36.4014-31.3721Q36.8164-31.8848 38.0371-32.1777Q40.0391-32.7148 41.9678-34.2041Q43.8965-35.6934 44.9707-37.9883L44.6777-37.9883Q43.8965-37.0605 42.7734-36.792Q41.6504-36.5234 40.4785-36.5234Q37.0117-36.5234 35.0586-38.8916Q33.1055-41.2598 33.1055-44.6289Z"/>
  </g>
  <g id="Light-S" transform="matrix(1 0 0 1 1101.52 696)">
   <path class="hierarchical-0:tertiary SFSymbolsPreview8E8E8E" d="M31.8359 6.49414Q32.8613 6.49414 33.7158 5.93262Q34.5703 5.37109 35.7422 4.3457L49.5605-8.1543L76.5625-8.1543Q81.9824-8.1543 85.7666-10.1318Q89.5508-12.1094 91.5039-15.8936Q93.457-19.6777 93.457-25L93.457-55.0781Q93.457-60.4004 91.5039-64.1846Q89.5508-67.9688 85.7666-69.9463Q81.9824-71.9238 76.5625-71.9238L26.6602-71.9238Q21.1914-71.9238 17.4316-69.9463Q13.6719-67.9688 11.7188-64.209Q9.76562-60.4492 9.76562-55.0781L9.76562-25Q9.76562-19.6289 11.7188-15.8691Q13.6719-12.1094 17.4316-10.1318Q21.1914-8.1543 26.6602-8.1543L28.7109-8.1543L28.7109 2.97852Q28.7109 4.58984 29.541 5.54199Q30.3711 6.49414 31.8359 6.49414Z"/>
   <path class="hierarchical-1:primary SFSymbolsPreview212121" d="M53.8574-44.1406Q53.8574-47.5586 56.2012-49.8047Q58.5449-52.0508 62.0605-52.0508Q65.7715-52.0508 68.1641-49.3896Q70.5566-46.7285 70.5566-42.6758Q70.5566-38.9648 69.2871-36.2305Q68.0176-33.4961 66.0889-31.6895Q64.1602-29.8828 62.1582-29.0039Q60.1562-28.125 58.7891-28.125Q57.9102-28.125 57.3975-28.6377Q56.8848-29.1504 56.8848-29.8828Q56.8848-30.5664 57.2754-31.0303Q57.666-31.4941 58.6914-31.7383Q60.5469-32.2754 62.6465-33.8379Q64.7461-35.4004 65.7715-37.9395L65.4785-37.9395Q64.6973-36.9629 63.501-36.6211Q62.3047-36.2793 61.084-36.2793Q57.7637-36.2793 55.8105-38.5498Q53.8574-40.8203 53.8574-44.1406ZM32.5684-44.1406Q32.5684-47.5586 34.9121-49.8047Q37.2559-52.0508 40.7715-52.0508Q44.4824-52.0508 46.8994-49.3896Q49.3164-46.7285 49.3164-42.6758Q49.3164-38.9648 48.0225-36.2305Q46.7285-33.4961 44.7998-31.6895Q42.8711-29.8828 40.8691-29.0039Q38.8672-28.125 37.4512-28.125Q36.6211-28.125 36.1084-28.6377Q35.5957-29.1504 35.5957-29.8828Q35.5957-30.5664 35.9863-31.0303Q36.377-31.4941 37.4512-31.7383Q39.2578-32.2754 41.3574-33.8379Q43.457-35.4004 44.4824-37.9395L44.1895-37.9395Q43.4082-36.9629 42.2363-36.6211Q41.0645-36.2793 39.8438-36.2793Q36.4746-36.2793 34.5215-38.5498Q32.5684-40.8203 32.5684-44.1406Z"/>
  </g>
  <g id="Thin-S" transform="matrix(1 0 0 1 805.763 696)">
   <path class="hierarchical-0:tertiary SFSymbolsPreview8E8E8E" d="M29.8828 4.93164Q30.5664 4.93164 31.1523 4.56543Q31.7383 4.19922 32.4219 3.56445L46.3379-8.49609L76.5625-8.49609Q81.25-8.49609 84.5947-10.3027Q87.9395-12.1094 89.7461-15.4785Q91.5527-18.8477 91.5527-23.4863L91.5527-55.7129Q91.5527-60.3027 89.7461-63.6719Q87.9395-67.041 84.5947-68.8721Q81.25-70.7031 76.5625-70.7031L24.7559-70.7031Q20.0684-70.7031 16.6992-68.8965Q13.3301-67.0898 11.5479-63.7207Q9.76562-60.3516 9.76562-55.7129L9.76562-23.4863Q9.76562-18.7988 11.5479-15.4541Q13.3301-12.1094 16.6992-10.3027Q20.0684-8.49609 24.7559-8.49609L27.7832-8.49609L27.7832 2.58789Q27.7832 3.66211 28.3691 4.29688Q28.9551 4.93164 29.8828 4.93164Z"/>
   <path class="hierarchical-1:primary SFSymbolsPreview212121" d="M53.1738-43.4082Q53.1738-46.6797 55.4199-48.877Q57.666-51.0742 61.084-51.0742Q64.4531-51.0742 66.8945-48.584Q69.3359-46.0938 69.3359-41.9922Q69.3359-38.3789 68.042-35.7422Q66.748-33.1055 64.8682-31.3965Q62.9883-29.6875 61.084-28.8574Q59.1797-28.0273 57.959-28.0273Q57.2754-28.0273 56.8115-28.4668Q56.3477-28.9062 56.3477-29.541Q56.3477-30.1758 56.6895-30.542Q57.0312-30.9082 57.959-31.1523Q59.5215-31.5918 61.8408-33.3008Q64.1602-35.0098 65.1855-37.8418L64.8438-37.8418Q64.0137-36.8164 62.793-36.3525Q61.5723-35.8887 60.3027-35.8887Q57.0801-35.8887 55.127-38.0371Q53.1738-40.1855 53.1738-43.4082ZM31.9336-43.4082Q31.9336-46.6797 34.2041-48.877Q36.4746-51.0742 39.8438-51.0742Q43.2617-51.0742 45.7031-48.584Q48.1445-46.0938 48.1445-41.9922Q48.1445-38.3789 46.8506-35.7422Q45.5566-33.1055 43.6523-31.3965Q41.748-29.6875 39.8438-28.8574Q37.9395-28.0273 36.7188-28.0273Q36.0352-28.0273 35.5713-28.4668Q35.1074-28.9062 35.1074-29.541Q35.1074-30.1758 35.4736-30.542Q35.8398-30.9082 36.7188-31.1523Q38.2812-31.5918 40.6006-33.3008Q42.9199-35.0098 43.9453-37.8418L43.6035-37.8418Q42.7734-36.8164 41.5771-36.3525Q40.3809-35.8887 39.0625-35.8887Q35.8398-35.8887 33.8867-38.0371Q31.9336-40.1855 31.9336-43.4082Z"/>
  </g>
  <g id="Ultralight-S" transform="matrix(1 0 0 1 509.54 696)">
   <path class="hierarchical-0:tertiary SFSymbolsPreview8E8E8E" d="M28.9062 4.10156Q29.3945 4.10156 29.8584 3.83301Q30.3223 3.56445 30.7617 3.22266L44.6289-8.69141L76.5625-8.69141Q80.8594-8.69141 84.0088-10.4248Q87.1582-12.1582 88.8672-15.3076Q90.5762-18.457 90.5762-22.6562L90.5762-56.0547Q90.5762-60.2539 88.8672-63.4033Q87.1582-66.5527 84.0088-68.2861Q80.8594-70.0195 76.5625-70.0195L23.7793-70.0195Q19.4824-70.0195 16.333-68.3105Q13.1836-66.6016 11.4746-63.4521Q9.76562-60.3027 9.76562-56.0547L9.76562-22.6562Q9.76562-18.4082 11.4746-15.2588Q13.1836-12.1094 16.333-10.4004Q19.4824-8.69141 23.7793-8.69141L27.2949-8.69141L27.2949 2.34375Q27.2949 3.17383 27.7588 3.6377Q28.2227 4.10156 28.9062 4.10156Z"/>
   <path class="hierarchical-1:primary SFSymbolsPreview212121" d="M52.7344-43.0664Q52.7344-46.1914 54.9561-48.3887Q57.1777-50.5859 60.498-50.5859Q63.7207-50.5859 66.1865-48.1689Q68.6523-45.752 68.6523-41.6504Q68.6523-38.0371 67.3584-35.4736Q66.0645-32.9102 64.1846-31.25Q62.3047-29.5898 60.4492-28.8086Q58.5938-28.0273 57.5195-28.0273Q56.8359-28.0273 56.4453-28.418Q56.0547-28.8086 56.0547-29.3945Q56.0547-29.9805 56.3721-30.2979Q56.6895-30.6152 57.4707-30.8594Q58.9355-31.2988 61.377-33.0566Q63.8184-34.8145 64.7949-37.793L64.4531-37.793Q63.623-36.7188 62.3779-36.2305Q61.1328-35.7422 59.8145-35.7422Q56.6406-35.7422 54.6875-37.793Q52.7344-39.8438 52.7344-43.0664ZM31.543-43.0664Q31.543-46.1914 33.7646-48.3887Q35.9863-50.5859 39.3066-50.5859Q42.5293-50.5859 44.9951-48.1689Q47.4609-45.752 47.4609-41.6504Q47.4609-38.0371 46.167-35.4736Q44.873-32.9102 42.9932-31.25Q41.1133-29.5898 39.2578-28.8086Q37.4023-28.0273 36.2793-28.0273Q35.6445-28.0273 35.2295-28.418Q34.8145-28.8086 34.8145-29.3945Q34.8145-29.9805 35.1562-30.2979Q35.498-30.6152 36.2793-30.8594Q37.6953-31.2988 40.1367-33.0566Q42.5781-34.8145 43.6035-37.793L43.2617-37.793Q42.4316-36.7188 41.1865-36.2305Q39.9414-35.7422 38.5742-35.7422Q35.4492-35.7422 33.4961-37.793Q31.543-39.8438 31.543-43.0664Z"/>
  </g>
 </g>
</svg>
