<?xml version="1.0" encoding="UTF-8"?>
<!--Generator: Apple Native CoreSVG 175-->
<!DOCTYPE svg
PUBLIC "-//W3C//DTD SVG 1.1//EN"
       "http://www.w3.org/Graphics/SVG/1.1/DTD/svg11.dtd">
<svg version="1.1" xmlns="http://www.w3.org/2000/svg" xmlns:xlink="http://www.w3.org/1999/xlink" width="3300" height="2200">
 <!--glyph: "uni100F0E.medium", point size: 100.0, font version: "17.0d11e1", template writer version: "65.1"-->
 <style>.multicolor-0:tertiaryLabelColor {fill:#BDBDBD;opacity:1.0}
.multicolor-1:systemPurpleColor {fill:#AF52DE;opacity:1.0}
.multicolor-2:white {fill:#FFFFFF;opacity:1.0}

.SFSymbolsPreviewAF52DE {fill:#AF52DE;opacity:1.0}
.SFSymbolsPreviewBDBDBD {fill:#BDBDBD;opacity:1.0}
.SFSymbolsPreviewFFFFFF {fill:#FFFFFF;opacity:1.0}
</style>
 <g id="Notes">
  <rect height="2200" id="artboard" style="fill:white;opacity:1" width="3300" x="0" y="0"/>
  <line style="fill:none;stroke:black;opacity:1;stroke-width:0.5;" x1="263" x2="3036" y1="292" y2="292"/>
  <text style="stroke:none;fill:black;font-family:sans-serif;font-size:13;font-weight:bold;" transform="matrix(1 0 0 1 263 322)">Weight/Scale Variations</text>
  <text style="stroke:none;fill:black;font-family:sans-serif;font-size:13;text-anchor:middle;" transform="matrix(1 0 0 1 559.711 322)">Ultralight</text>
  <text style="stroke:none;fill:black;font-family:sans-serif;font-size:13;text-anchor:middle;" transform="matrix(1 0 0 1 856.422 322)">Thin</text>
  <text style="stroke:none;fill:black;font-family:sans-serif;font-size:13;text-anchor:middle;" transform="matrix(1 0 0 1 1153.13 322)">Light</text>
  <text style="stroke:none;fill:black;font-family:sans-serif;font-size:13;text-anchor:middle;" transform="matrix(1 0 0 1 1449.84 322)">Regular</text>
  <text style="stroke:none;fill:black;font-family:sans-serif;font-size:13;text-anchor:middle;" transform="matrix(1 0 0 1 1746.56 322)">Medium</text>
  <text style="stroke:none;fill:black;font-family:sans-serif;font-size:13;text-anchor:middle;" transform="matrix(1 0 0 1 2043.27 322)">Semibold</text>
  <text style="stroke:none;fill:black;font-family:sans-serif;font-size:13;text-anchor:middle;" transform="matrix(1 0 0 1 2339.98 322)">Bold</text>
  <text style="stroke:none;fill:black;font-family:sans-serif;font-size:13;text-anchor:middle;" transform="matrix(1 0 0 1 2636.69 322)">Heavy</text>
  <text style="stroke:none;fill:black;font-family:sans-serif;font-size:13;text-anchor:middle;" transform="matrix(1 0 0 1 2933.4 322)">Black</text>
  <line style="fill:none;stroke:black;opacity:1;stroke-width:0.5;" x1="263" x2="3036" y1="1903" y2="1903"/>
  <g transform="matrix(1 0 0 1 263 1933)">
   <path d="M9.24805 0.830078Q10.8691 0.830078 12.2949 0.214844Q13.7207-0.400391 14.8096-1.49414Q15.8984-2.58789 16.5186-4.01367Q17.1387-5.43945 17.1387-7.05078Q17.1387-8.66211 16.5186-10.0879Q15.8984-11.5137 14.8047-12.6074Q13.7109-13.7012 12.2852-14.3164Q10.8594-14.9316 9.23828-14.9316Q7.62695-14.9316 6.20117-14.3164Q4.77539-13.7012 3.69141-12.6074Q2.60742-11.5137 1.9873-10.0879Q1.36719-8.66211 1.36719-7.05078Q1.36719-5.43945 1.9873-4.01367Q2.60742-2.58789 3.69629-1.49414Q4.78516-0.400391 6.21094 0.214844Q7.63672 0.830078 9.24805 0.830078ZM9.24805-0.654297Q7.91992-0.654297 6.7627-1.14746Q5.60547-1.64062 4.73145-2.51953Q3.85742-3.39844 3.36426-4.56055Q2.87109-5.72266 2.87109-7.05078Q2.87109-8.37891 3.35938-9.54102Q3.84766-10.7031 4.72168-11.582Q5.5957-12.4609 6.75293-12.9541Q7.91016-13.4473 9.23828-13.4473Q10.5762-13.4473 11.7334-12.9541Q12.8906-12.4609 13.7695-11.582Q14.6484-10.7031 15.1465-9.54102Q15.6445-8.37891 15.6445-7.05078Q15.6445-5.72266 15.1514-4.56055Q14.6582-3.39844 13.7842-2.51953Q12.9102-1.64062 11.748-1.14746Q10.5859-0.654297 9.24805-0.654297ZM5.6543-7.05078Q5.6543-6.72852 5.85938-6.52832Q6.06445-6.32812 6.40625-6.32812L8.51562-6.32812L8.51562-4.20898Q8.51562-3.88672 8.71094-3.67676Q8.90625-3.4668 9.23828-3.4668Q9.56055-3.4668 9.77051-3.67676Q9.98047-3.88672 9.98047-4.20898L9.98047-6.32812L12.0898-6.32812Q12.4219-6.32812 12.627-6.52832Q12.832-6.72852 12.832-7.05078Q12.832-7.38281 12.627-7.58789Q12.4219-7.79297 12.0898-7.79297L9.98047-7.79297L9.98047-9.90234Q9.98047-10.2344 9.77051-10.4443Q9.56055-10.6543 9.23828-10.6543Q8.90625-10.6543 8.71094-10.4443Q8.51562-10.2344 8.51562-9.90234L8.51562-7.79297L6.40625-7.79297Q6.06445-7.79297 5.85938-7.58789Q5.6543-7.38281 5.6543-7.05078Z"/>
  </g>
  <g transform="matrix(1 0 0 1 281.867 1933)">
   <path d="M11.709 2.91016Q13.75 2.91016 15.5518 2.12891Q17.3535 1.34766 18.7305-0.0292969Q20.1074-1.40625 20.8887-3.20801Q21.6699-5.00977 21.6699-7.05078Q21.6699-9.0918 20.8887-10.8936Q20.1074-12.6953 18.7305-14.0723Q17.3535-15.4492 15.5469-16.2305Q13.7402-17.0117 11.6992-17.0117Q9.6582-17.0117 7.85645-16.2305Q6.05469-15.4492 4.68262-14.0723Q3.31055-12.6953 2.5293-10.8936Q1.74805-9.0918 1.74805-7.05078Q1.74805-5.00977 2.5293-3.20801Q3.31055-1.40625 4.6875-0.0292969Q6.06445 1.34766 7.86621 2.12891Q9.66797 2.91016 11.709 2.91016ZM11.709 1.25Q9.98047 1.25 8.47656 0.605469Q6.97266-0.0390625 5.83496-1.17676Q4.69727-2.31445 4.05762-3.81836Q3.41797-5.32227 3.41797-7.05078Q3.41797-8.7793 4.05762-10.2832Q4.69727-11.7871 5.83008-12.9297Q6.96289-14.0723 8.4668-14.7119Q9.9707-15.3516 11.6992-15.3516Q13.4277-15.3516 14.9316-14.7119Q16.4355-14.0723 17.5781-12.9297Q18.7207-11.7871 19.3652-10.2832Q20.0098-8.7793 20.0098-7.05078Q20.0098-5.32227 19.3701-3.81836Q18.7305-2.31445 17.5928-1.17676Q16.4551-0.0390625 14.9463 0.605469Q13.4375 1.25 11.709 1.25ZM7.17773-7.05078Q7.17773-6.69922 7.41211-6.47461Q7.64648-6.25 8.01758-6.25L10.8887-6.25L10.8887-3.36914Q10.8887-2.99805 11.1133-2.76855Q11.3379-2.53906 11.6895-2.53906Q12.0605-2.53906 12.29-2.76855Q12.5195-2.99805 12.5195-3.36914L12.5195-6.25L15.4004-6.25Q15.7715-6.25 16.001-6.47461Q16.2305-6.69922 16.2305-7.05078Q16.2305-7.42188 16.001-7.65137Q15.7715-7.88086 15.4004-7.88086L12.5195-7.88086L12.5195-10.752Q12.5195-11.1328 12.29-11.3623Q12.0605-11.5918 11.6895-11.5918Q11.3379-11.5918 11.1133-11.3574Q10.8887-11.123 10.8887-10.752L10.8887-7.88086L8.01758-7.88086Q7.63672-7.88086 7.40723-7.65137Q7.17773-7.42188 7.17773-7.05078Z"/>
  </g>
  <g transform="matrix(1 0 0 1 305.646 1933)">
   <path d="M14.9707 5.66406Q17.0605 5.66406 18.96 5.01465Q20.8594 4.36523 22.4512 3.19336Q24.043 2.02148 25.2197 0.429688Q26.3965-1.16211 27.0459-3.06641Q27.6953-4.9707 27.6953-7.05078Q27.6953-9.14062 27.0459-11.04Q26.3965-12.9395 25.2197-14.5312Q24.043-16.123 22.4512-17.2998Q20.8594-18.4766 18.9551-19.126Q17.0508-19.7754 14.9609-19.7754Q12.8711-19.7754 10.9717-19.126Q9.07227-18.4766 7.48535-17.2998Q5.89844-16.123 4.72168-14.5312Q3.54492-12.9395 2.90039-11.04Q2.25586-9.14062 2.25586-7.05078Q2.25586-4.9707 2.90527-3.06641Q3.55469-1.16211 4.72656 0.429688Q5.89844 2.02148 7.49023 3.19336Q9.08203 4.36523 10.9814 5.01465Q12.8809 5.66406 14.9707 5.66406ZM14.9707 3.84766Q13.1641 3.84766 11.5283 3.2959Q9.89258 2.74414 8.53516 1.74805Q7.17773 0.751953 6.17676-0.610352Q5.17578-1.97266 4.62891-3.6084Q4.08203-5.24414 4.08203-7.05078Q4.08203-8.86719 4.62891-10.5029Q5.17578-12.1387 6.17188-13.501Q7.16797-14.8633 8.52539-15.8594Q9.88281-16.8555 11.5186-17.4023Q13.1543-17.9492 14.9609-17.9492Q16.7773-17.9492 18.4131-17.4023Q20.0488-16.8555 21.4111-15.8594Q22.7734-14.8633 23.7695-13.501Q24.7656-12.1387 25.3174-10.5029Q25.8691-8.86719 25.8691-7.05078Q25.8789-5.24414 25.332-3.6084Q24.7852-1.97266 23.7842-0.610352Q22.7832 0.751953 21.4209 1.74805Q20.0586 2.74414 18.4229 3.2959Q16.7871 3.84766 14.9707 3.84766ZM9.19922-7.05078Q9.19922-6.66992 9.45801-6.4209Q9.7168-6.17188 10.1172-6.17188L14.0625-6.17188L14.0625-2.2168Q14.0625-1.81641 14.3115-1.55762Q14.5605-1.29883 14.9512-1.29883Q15.3516-1.29883 15.6104-1.55273Q15.8691-1.80664 15.8691-2.2168L15.8691-6.17188L19.8242-6.17188Q20.2246-6.17188 20.4785-6.4209Q20.7324-6.66992 20.7324-7.05078Q20.7324-7.46094 20.4785-7.71484Q20.2246-7.96875 19.8242-7.96875L15.8691-7.96875L15.8691-11.9141Q15.8691-12.3242 15.6104-12.583Q15.3516-12.8418 14.9512-12.8418Q14.5605-12.8418 14.3115-12.583Q14.0625-12.3242 14.0625-11.9141L14.0625-7.96875L10.1172-7.96875Q9.70703-7.96875 9.45312-7.71484Q9.19922-7.46094 9.19922-7.05078Z"/>
  </g>
  <text style="stroke:none;fill:black;font-family:sans-serif;font-size:13;font-weight:bold;" transform="matrix(1 0 0 1 263 1953)">Design Variations</text>
  <text style="stroke:none;fill:black;font-family:sans-serif;font-size:13;" transform="matrix(1 0 0 1 263 1971)">Symbols are supported in up to nine weights and three scales.</text>
  <text style="stroke:none;fill:black;font-family:sans-serif;font-size:13;" transform="matrix(1 0 0 1 263 1989)">For optimal layout with text and other symbols, vertically align</text>
  <text style="stroke:none;fill:black;font-family:sans-serif;font-size:13;" transform="matrix(1 0 0 1 263 2007)">symbols with the adjacent text.</text>
  <line style="fill:none;stroke:#00AEEF;stroke-width:0.5;opacity:1.0;" x1="776" x2="776" y1="1919" y2="1933"/>
  <g transform="matrix(1 0 0 1 776 1933)">
   <path d="M3.31055 0.15625Q3.70117 0.15625 3.91602-0.00976562Q4.13086-0.175781 4.26758-0.585938L5.52734-4.0332L11.2891-4.0332L12.5488-0.585938Q12.6855-0.175781 12.9004-0.00976562Q13.1152 0.15625 13.4961 0.15625Q13.8867 0.15625 14.1162-0.0585938Q14.3457-0.273438 14.3457-0.644531Q14.3457-0.869141 14.2383-1.17188L9.6582-13.3691Q9.48242-13.8184 9.17969-14.043Q8.87695-14.2676 8.4082-14.2676Q7.5-14.2676 7.17773-13.3789L2.59766-1.16211Q2.49023-0.859375 2.49023-0.634766Q2.49023-0.263672 2.70996-0.0537109Q2.92969 0.15625 3.31055 0.15625ZM6.00586-5.51758L8.37891-12.0898L8.42773-12.0898L10.8008-5.51758Z"/>
  </g>
  <line style="fill:none;stroke:#00AEEF;stroke-width:0.5;opacity:1.0;" x1="793.197" x2="793.197" y1="1919" y2="1933"/>
  <text style="stroke:none;fill:black;font-family:sans-serif;font-size:13;font-weight:bold;" transform="matrix(1 0 0 1 776 1953)">Margins</text>
  <text style="stroke:none;fill:black;font-family:sans-serif;font-size:13;" transform="matrix(1 0 0 1 776 1971)">Leading and trailing margins on the left and right side of each symbol</text>
  <text style="stroke:none;fill:black;font-family:sans-serif;font-size:13;" transform="matrix(1 0 0 1 776 1989)">can be adjusted by modifying the x-location of the margin guidelines.</text>
  <text style="stroke:none;fill:black;font-family:sans-serif;font-size:13;" transform="matrix(1 0 0 1 776 2007)">Modifications are automatically applied proportionally to all</text>
  <text style="stroke:none;fill:black;font-family:sans-serif;font-size:13;" transform="matrix(1 0 0 1 776 2025)">scales and weights.</text>
  <g transform="matrix(1 0 0 1 1289 1933)">
   <path d="M2.8418 1.86523L4.54102 3.57422Q5.18555 4.22852 5.90332 4.17969Q6.62109 4.13086 7.31445 3.35938L18.0078-8.42773L17.041-9.4043L6.42578 2.27539Q6.16211 2.57812 5.89355 2.61719Q5.625 2.65625 5.27344 2.30469L4.10156 1.14258Q3.75 0.791016 3.79395 0.522461Q3.83789 0.253906 4.14062-0.0195312L15.6152-10.8203L14.6387-11.7871L3.04688-0.898438Q2.30469-0.214844 2.25098 0.498047Q2.19727 1.21094 2.8418 1.86523ZM9.25781-16.3281Q8.94531-16.0254 8.90625-15.6348Q8.86719-15.2441 9.04297-14.9512Q9.21875-14.6777 9.55566-14.541Q9.89258-14.4043 10.3809-14.5215Q11.4746-14.7754 12.5977-14.7314Q13.7207-14.6875 14.7949-13.9844L14.209-12.5293Q13.9551-11.9043 14.0674-11.4404Q14.1797-10.9766 14.5801-10.5664L16.875-8.25195Q17.2363-7.88086 17.5781-7.82227Q17.9199-7.76367 18.3398-7.8418L19.4043-8.03711L20.0684-7.36328L20.0293-6.80664Q20-6.43555 20.1221-6.12305Q20.2441-5.81055 20.6055-5.44922L21.3672-4.70703Q21.7285-4.3457 22.1533-4.33105Q22.5781-4.31641 22.9297-4.66797L25.8398-7.58789Q26.1914-7.93945 26.1816-8.35449Q26.1719-8.76953 25.8105-9.13086L25.0391-9.89258Q24.6875-10.2539 24.3799-10.3857Q24.0723-10.5176 23.7109-10.4883L23.1348-10.4395L22.4902-11.0742L22.7344-12.1973Q22.832-12.6172 22.6953-12.9834Q22.5586-13.3496 22.1191-13.7891L19.9219-15.9766Q18.6719-17.2168 17.2607-17.8369Q15.8496-18.457 14.4189-18.4814Q12.9883-18.5059 11.665-17.959Q10.3418-17.4121 9.25781-16.3281ZM10.752-15.957Q11.6602-16.6211 12.7002-16.9043Q13.7402-17.1875 14.8047-17.085Q15.8691-16.9824 16.8701-16.5137Q17.8711-16.0449 18.7012-15.2051L21.1328-12.793Q21.3086-12.6172 21.3525-12.4512Q21.3965-12.2852 21.3379-12.0312L21.0156-10.5469L22.5195-9.0625L23.5059-9.12109Q23.6914-9.13086 23.7891-9.09668Q23.8867-9.0625 24.0332-8.91602L24.6094-8.33984L22.168-5.89844L21.5918-6.47461Q21.4453-6.62109 21.4062-6.71875Q21.3672-6.81641 21.377-7.01172L21.4453-7.98828L19.9512-9.47266L18.4277-9.21875Q18.1836-9.16992 18.042-9.2041Q17.9004-9.23828 17.7148-9.41406L15.7129-11.416Q15.5176-11.5918 15.4932-11.7529Q15.4688-11.9141 15.5859-12.1875L16.4648-14.2773Q15.293-15.3711 13.8281-15.791Q12.3633-16.2109 10.8398-15.7617Q10.7227-15.7324 10.6885-15.8057Q10.6543-15.8789 10.752-15.957Z"/>
  </g>
  <text style="stroke:none;fill:black;font-family:sans-serif;font-size:13;font-weight:bold;" transform="matrix(1 0 0 1 1289 1953)">Exporting</text>
  <text style="stroke:none;fill:black;font-family:sans-serif;font-size:13;" transform="matrix(1 0 0 1 1289 1971)">Symbols should be outlined when exporting to ensure the</text>
  <text style="stroke:none;fill:black;font-family:sans-serif;font-size:13;" transform="matrix(1 0 0 1 1289 1989)">design is preserved when submitting to Xcode.</text>
  <text id="template-version" style="stroke:none;fill:black;font-family:sans-serif;font-size:13;text-anchor:end;" transform="matrix(1 0 0 1 3036 1933)">Template v.3.0</text>
  <text style="stroke:none;fill:black;font-family:sans-serif;font-size:13;text-anchor:end;" transform="matrix(1 0 0 1 3036 1951)">Requires Xcode 13 or greater</text>
  <text id="descriptive-name" style="stroke:none;fill:black;font-family:sans-serif;font-size:13;text-anchor:end;" transform="matrix(1 0 0 1 3036 1969)">Generated from ivfluid.bag.fill</text>
  <text style="stroke:none;fill:black;font-family:sans-serif;font-size:13;text-anchor:end;" transform="matrix(1 0 0 1 3036 1987)">Typeset at 100 points</text>
  <text style="stroke:none;fill:black;font-family:sans-serif;font-size:13;" transform="matrix(1 0 0 1 263 726)">Small</text>
  <text style="stroke:none;fill:black;font-family:sans-serif;font-size:13;" transform="matrix(1 0 0 1 263 1156)">Medium</text>
  <text style="stroke:none;fill:black;font-family:sans-serif;font-size:13;" transform="matrix(1 0 0 1 263 1586)">Large</text>
 </g>
 <g id="Guides">
  <g id="H-reference" style="fill:#27AAE1;stroke:none;" transform="matrix(1 0 0 1 339 696)">
   <path d="M0.976562 0L3.66211 0L29.3457-67.1387L30.0293-67.1387L30.0293-70.459L28.125-70.459ZM11.6699-24.4629L46.9727-24.4629L46.2402-26.709L12.4512-26.709ZM55.127 0L57.7637 0L30.6152-70.459L29.4434-70.459L29.4434-67.1387Z"/>
  </g>
  <line id="Baseline-S" style="fill:none;stroke:#27AAE1;opacity:1;stroke-width:0.5;" x1="263" x2="3036" y1="696" y2="696"/>
  <line id="Capline-S" style="fill:none;stroke:#27AAE1;opacity:1;stroke-width:0.5;" x1="263" x2="3036" y1="625.541" y2="625.541"/>
  <g id="H-reference" style="fill:#27AAE1;stroke:none;" transform="matrix(1 0 0 1 339 1126)">
   <path d="M0.976562 0L3.66211 0L29.3457-67.1387L30.0293-67.1387L30.0293-70.459L28.125-70.459ZM11.6699-24.4629L46.9727-24.4629L46.2402-26.709L12.4512-26.709ZM55.127 0L57.7637 0L30.6152-70.459L29.4434-70.459L29.4434-67.1387Z"/>
  </g>
  <line id="Baseline-M" style="fill:none;stroke:#27AAE1;opacity:1;stroke-width:0.5;" x1="263" x2="3036" y1="1126" y2="1126"/>
  <line id="Capline-M" style="fill:none;stroke:#27AAE1;opacity:1;stroke-width:0.5;" x1="263" x2="3036" y1="1055.54" y2="1055.54"/>
  <g id="H-reference" style="fill:#27AAE1;stroke:none;" transform="matrix(1 0 0 1 339 1556)">
   <path d="M0.976562 0L3.66211 0L29.3457-67.1387L30.0293-67.1387L30.0293-70.459L28.125-70.459ZM11.6699-24.4629L46.9727-24.4629L46.2402-26.709L12.4512-26.709ZM55.127 0L57.7637 0L30.6152-70.459L29.4434-70.459L29.4434-67.1387Z"/>
  </g>
  <line id="Baseline-L" style="fill:none;stroke:#27AAE1;opacity:1;stroke-width:0.5;" x1="263" x2="3036" y1="1556" y2="1556"/>
  <line id="Capline-L" style="fill:none;stroke:#27AAE1;opacity:1;stroke-width:0.5;" x1="263" x2="3036" y1="1485.54" y2="1485.54"/>
  <line id="left-margin-Ultralight-S" style="fill:none;stroke:#00AEEF;stroke-width:0.5;opacity:1.0;" x1="525.8" x2="525.8" y1="600.785" y2="720.121"/>
  <line id="right-margin-Ultralight-S" style="fill:none;stroke:#00AEEF;stroke-width:0.5;opacity:1.0;" x1="593.622" x2="593.622" y1="600.785" y2="720.121"/>
  <line id="left-margin-Thin-S" style="fill:none;stroke:#00AEEF;stroke-width:0.5;opacity:1.0;" x1="821.339" x2="821.339" y1="600.785" y2="720.121"/>
  <line id="right-margin-Thin-S" style="fill:none;stroke:#00AEEF;stroke-width:0.5;opacity:1.0;" x1="891.505" x2="891.505" y1="600.785" y2="720.121"/>
  <line id="left-margin-Light-S" style="fill:none;stroke:#00AEEF;stroke-width:0.5;opacity:1.0;" x1="1115.78" x2="1115.78" y1="600.785" y2="720.121"/>
  <line id="right-margin-Light-S" style="fill:none;stroke:#00AEEF;stroke-width:0.5;opacity:1.0;" x1="1190.49" x2="1190.49" y1="600.785" y2="720.121"/>
  <line id="left-margin-Regular-S" style="fill:none;stroke:#00AEEF;stroke-width:0.5;opacity:1.0;" x1="1410.78" x2="1410.78" y1="600.785" y2="720.121"/>
  <line id="right-margin-Regular-S" style="fill:none;stroke:#00AEEF;stroke-width:0.5;opacity:1.0;" x1="1488.91" x2="1488.91" y1="600.785" y2="720.121"/>
  <line id="left-margin-Medium-S" style="fill:none;stroke:#00AEEF;stroke-width:0.5;opacity:1.0;" x1="1706.69" x2="1706.69" y1="600.785" y2="720.121"/>
  <line id="right-margin-Medium-S" style="fill:none;stroke:#00AEEF;stroke-width:0.5;opacity:1.0;" x1="1786.42" x2="1786.42" y1="600.785" y2="720.121"/>
  <line id="left-margin-Semibold-S" style="fill:none;stroke:#00AEEF;stroke-width:0.5;opacity:1.0;" x1="2002.76" x2="2002.76" y1="600.785" y2="720.121"/>
  <line id="right-margin-Semibold-S" style="fill:none;stroke:#00AEEF;stroke-width:0.5;opacity:1.0;" x1="2083.77" x2="2083.77" y1="600.785" y2="720.121"/>
  <line id="left-margin-Bold-S" style="fill:none;stroke:#00AEEF;stroke-width:0.5;opacity:1.0;" x1="2298.64" x2="2298.64" y1="600.785" y2="720.121"/>
  <line id="right-margin-Bold-S" style="fill:none;stroke:#00AEEF;stroke-width:0.5;opacity:1.0;" x1="2381.31" x2="2381.31" y1="600.785" y2="720.121"/>
  <line id="left-margin-Heavy-S" style="fill:none;stroke:#00AEEF;stroke-width:0.5;opacity:1.0;" x1="2594.16" x2="2594.16" y1="600.785" y2="720.121"/>
  <line id="right-margin-Heavy-S" style="fill:none;stroke:#00AEEF;stroke-width:0.5;opacity:1.0;" x1="2679.22" x2="2679.22" y1="600.785" y2="720.121"/>
  <line id="left-margin-Black-S" style="fill:none;stroke:#00AEEF;stroke-width:0.5;opacity:1.0;" x1="2889.8" x2="2889.8" y1="600.785" y2="720.121"/>
  <line id="right-margin-Black-S" style="fill:none;stroke:#00AEEF;stroke-width:0.5;opacity:1.0;" x1="2977" x2="2977" y1="600.785" y2="720.121"/>
  <line id="left-margin-Ultralight-M" style="fill:none;stroke:#00AEEF;stroke-width:0.5;opacity:1.0;" x1="516.889" x2="516.889" y1="1030.79" y2="1150.12"/>
  <line id="right-margin-Ultralight-M" style="fill:none;stroke:#00AEEF;stroke-width:0.5;opacity:1.0;" x1="602.533" x2="602.533" y1="1030.79" y2="1150.12"/>
  <line id="left-margin-Thin-M" style="fill:none;stroke:#00AEEF;stroke-width:0.5;opacity:1.0;" x1="812.282" x2="812.282" y1="1030.79" y2="1150.12"/>
  <line id="right-margin-Thin-M" style="fill:none;stroke:#00AEEF;stroke-width:0.5;opacity:1.0;" x1="900.563" x2="900.563" y1="1030.79" y2="1150.12"/>
  <line id="left-margin-Light-M" style="fill:none;stroke:#00AEEF;stroke-width:0.5;opacity:1.0;" x1="1106.43" x2="1106.43" y1="1030.79" y2="1150.12"/>
  <line id="right-margin-Light-M" style="fill:none;stroke:#00AEEF;stroke-width:0.5;opacity:1.0;" x1="1199.84" x2="1199.84" y1="1030.79" y2="1150.12"/>
  <line id="left-margin-Regular-M" style="fill:none;stroke:#00AEEF;stroke-width:0.5;opacity:1.0;" x1="1401.21" x2="1401.21" y1="1030.79" y2="1150.12"/>
  <line id="right-margin-Regular-M" style="fill:none;stroke:#00AEEF;stroke-width:0.5;opacity:1.0;" x1="1498.48" x2="1498.48" y1="1030.79" y2="1150.12"/>
  <line id="left-margin-Medium-M" style="fill:none;stroke:#00AEEF;stroke-width:0.5;opacity:1.0;" x1="1696.75" x2="1696.75" y1="1030.79" y2="1150.12"/>
  <line id="right-margin-Medium-M" style="fill:none;stroke:#00AEEF;stroke-width:0.5;opacity:1.0;" x1="1796.36" x2="1796.36" y1="1030.79" y2="1150.12"/>
  <line id="left-margin-Semibold-M" style="fill:none;stroke:#00AEEF;stroke-width:0.5;opacity:1.0;" x1="1992.56" x2="1992.56" y1="1030.79" y2="1150.12"/>
  <line id="right-margin-Semibold-M" style="fill:none;stroke:#00AEEF;stroke-width:0.5;opacity:1.0;" x1="2093.97" x2="2093.97" y1="1030.79" y2="1150.12"/>
  <line id="left-margin-Bold-M" style="fill:none;stroke:#00AEEF;stroke-width:0.5;opacity:1.0;" x1="2288.07" x2="2288.07" y1="1030.79" y2="1150.12"/>
  <line id="right-margin-Bold-M" style="fill:none;stroke:#00AEEF;stroke-width:0.5;opacity:1.0;" x1="2391.88" x2="2391.88" y1="1030.79" y2="1150.12"/>
  <line id="left-margin-Heavy-M" style="fill:none;stroke:#00AEEF;stroke-width:0.5;opacity:1.0;" x1="2583.05" x2="2583.05" y1="1030.79" y2="1150.12"/>
  <line id="right-margin-Heavy-M" style="fill:none;stroke:#00AEEF;stroke-width:0.5;opacity:1.0;" x1="2690.33" x2="2690.33" y1="1030.79" y2="1150.12"/>
  <line id="left-margin-Black-M" style="fill:none;stroke:#00AEEF;stroke-width:0.5;opacity:1.0;" x1="2878.22" x2="2878.22" y1="1030.79" y2="1150.12"/>
  <line id="right-margin-Black-M" style="fill:none;stroke:#00AEEF;stroke-width:0.5;opacity:1.0;" x1="2988.58" x2="2988.58" y1="1030.79" y2="1150.12"/>
  <line id="left-margin-Ultralight-L" style="fill:none;stroke:#00AEEF;stroke-width:0.5;opacity:1.0;" x1="505.024" x2="505.024" y1="1460.79" y2="1580.12"/>
  <line id="right-margin-Ultralight-L" style="fill:none;stroke:#00AEEF;stroke-width:0.5;opacity:1.0;" x1="614.399" x2="614.399" y1="1460.79" y2="1580.12"/>
  <line id="left-margin-Thin-L" style="fill:none;stroke:#00AEEF;stroke-width:0.5;opacity:1.0;" x1="800.27" x2="800.27" y1="1460.79" y2="1580.12"/>
  <line id="right-margin-Thin-L" style="fill:none;stroke:#00AEEF;stroke-width:0.5;opacity:1.0;" x1="912.575" x2="912.575" y1="1460.79" y2="1580.12"/>
  <line id="left-margin-Light-L" style="fill:none;stroke:#00AEEF;stroke-width:0.5;opacity:1.0;" x1="1094.12" x2="1094.12" y1="1460.79" y2="1580.12"/>
  <line id="right-margin-Light-L" style="fill:none;stroke:#00AEEF;stroke-width:0.5;opacity:1.0;" x1="1212.14" x2="1212.14" y1="1460.79" y2="1580.12"/>
  <line id="left-margin-Regular-L" style="fill:none;stroke:#00AEEF;stroke-width:0.5;opacity:1.0;" x1="1388.66" x2="1388.66" y1="1460.79" y2="1580.12"/>
  <line id="right-margin-Regular-L" style="fill:none;stroke:#00AEEF;stroke-width:0.5;opacity:1.0;" x1="1511.03" x2="1511.03" y1="1460.79" y2="1580.12"/>
  <line id="left-margin-Medium-L" style="fill:none;stroke:#00AEEF;stroke-width:0.5;opacity:1.0;" x1="1683.81" x2="1683.81" y1="1460.79" y2="1580.12"/>
  <line id="right-margin-Medium-L" style="fill:none;stroke:#00AEEF;stroke-width:0.5;opacity:1.0;" x1="1809.3" x2="1809.3" y1="1460.79" y2="1580.12"/>
  <line id="left-margin-Semibold-L" style="fill:none;stroke:#00AEEF;stroke-width:0.5;opacity:1.0;" x1="1979.33" x2="1979.33" y1="1460.79" y2="1580.12"/>
  <line id="right-margin-Semibold-L" style="fill:none;stroke:#00AEEF;stroke-width:0.5;opacity:1.0;" x1="2107.21" x2="2107.21" y1="1460.79" y2="1580.12"/>
  <line id="left-margin-Bold-L" style="fill:none;stroke:#00AEEF;stroke-width:0.5;opacity:1.0;" x1="2274.45" x2="2274.45" y1="1460.79" y2="1580.12"/>
  <line id="right-margin-Bold-L" style="fill:none;stroke:#00AEEF;stroke-width:0.5;opacity:1.0;" x1="2405.51" x2="2405.51" y1="1460.79" y2="1580.12"/>
  <line id="left-margin-Heavy-L" style="fill:none;stroke:#00AEEF;stroke-width:0.5;opacity:1.0;" x1="2568.87" x2="2568.87" y1="1460.79" y2="1580.12"/>
  <line id="right-margin-Heavy-L" style="fill:none;stroke:#00AEEF;stroke-width:0.5;opacity:1.0;" x1="2704.51" x2="2704.51" y1="1460.79" y2="1580.12"/>
  <line id="left-margin-Black-L" style="fill:none;stroke:#00AEEF;stroke-width:0.5;opacity:1.0;" x1="2863.53" x2="2863.53" y1="1460.79" y2="1580.12"/>
  <line id="right-margin-Black-L" style="fill:none;stroke:#00AEEF;stroke-width:0.5;opacity:1.0;" x1="3003.27" x2="3003.27" y1="1460.79" y2="1580.12"/>
 </g>
 <g id="Symbols">
  <g id="Black-L" transform="matrix(1 0 0 1 2863.53 1556)">
   <path class="multicolor-0:tertiaryLabelColor SFSymbolsPreviewBDBDBD" d="M39.4043 28.1738L100.342 28.1738Q111.377 28.1738 117.529 21.9727Q123.682 15.7715 123.682 4.73633L123.682-86.5723Q123.682-97.6074 117.529-103.809Q111.377-110.01 100.342-110.01L87.0605-110.01L87.0605-110.107Q87.0605-117.822 82.3486-122.51Q77.6367-127.197 69.873-127.197Q62.1582-127.197 57.4219-122.51Q52.6855-117.822 52.6855-110.107L52.6855-110.01L39.4043-110.01Q28.418-110.01 22.2412-103.809Q16.0645-97.6074 16.0645-86.5723L16.0645 4.73633Q16.0645 15.7715 22.2412 21.9727Q28.418 28.1738 39.4043 28.1738ZM83.9355 56.2012L114.502 56.2012Q118.311 56.2012 120.996 53.5156Q123.682 50.8301 123.682 47.0215Q123.682 43.1152 120.996 40.4297Q118.311 37.7441 114.502 37.7441L84.5215 37.7441Q81.25 37.7441 79.5166 36.2305Q77.7832 34.7168 77.7832 31.6895L77.7832 17.627L59.2773 17.627L59.2773 32.2266Q59.2773 43.5547 65.8447 49.8779Q72.4121 56.2012 83.9355 56.2012ZM69.9219-105.371Q67.9688-105.371 66.626-106.738Q65.2832-108.105 65.2832-110.059Q65.2832-111.963 66.626-113.33Q67.9688-114.697 69.9219-114.697Q71.8262-114.697 73.1934-113.33Q74.5605-111.963 74.5605-110.059Q74.5605-108.105 73.1934-106.738Q71.8262-105.371 69.9219-105.371Z"/>
   <path class="multicolor-1:systemPurpleColor SFSymbolsPreviewAF52DE" d="M47.8027 4.29688Q44.7754 4.29688 43.0176 2.6123Q41.2598 0.927734 41.2598-2.05078L41.2598-70.8008Q41.2598-73.7793 43.0176-75.4883Q44.7754-77.1973 47.8027-77.1973L91.9922-77.1973Q95.0195-77.1973 96.7773-75.4883Q98.5352-73.7793 98.4863-70.8008L98.4863-2.05078Q98.5352 0.927734 96.7773 2.6123Q95.0195 4.29688 91.9922 4.29688Z"/>
   <path class="multicolor-2:white SFSymbolsPreviewFFFFFF" d="M69.9219-39.4531Q73.877-39.4531 76.709-42.1631Q79.541-44.873 79.541-48.8281Q79.541-51.0254 78.5889-53.1738Q77.6367-55.3223 76.6113-57.2754L72.5098-64.7949Q71.2891-67.041 69.9463-66.9922Q68.6035-66.9434 67.3828-64.7949L63.2324-57.2754Q62.207-55.3223 61.2549-53.1738Q60.3027-51.0254 60.3027-48.8281Q60.3027-44.873 63.1592-42.1631Q66.0156-39.4531 69.9219-39.4531ZM56.543-22.8027L83.2031-22.8027Q85.0586-22.8027 86.2305-24.0234Q87.4023-25.2441 87.4023-27.0996Q87.4023-28.8086 86.2305-30.0049Q85.0586-31.2012 83.2031-31.2012L56.543-31.2012Q54.7363-31.2012 53.54-30.0049Q52.3438-28.8086 52.3438-27.0996Q52.3438-25.2441 53.54-24.0234Q54.7363-22.8027 56.543-22.8027ZM61.6211-7.12891L78.2227-7.12891Q80.127-7.12891 81.2988-8.27637Q82.4707-9.42383 82.4707-11.1328Q82.4707-12.8906 81.2988-14.1602Q80.127-15.4297 78.2227-15.4297L61.6211-15.4297Q59.7656-15.4297 58.5693-14.1602Q57.373-12.8906 57.373-11.1328Q57.373-9.42383 58.5693-8.27637Q59.7656-7.12891 61.6211-7.12891Z"/>
  </g>
  <g id="Heavy-L" transform="matrix(1 0 0 1 2568.87 1556)">
   <path class="multicolor-0:tertiaryLabelColor SFSymbolsPreviewBDBDBD" d="M37.7441 25.6348L97.8516 25.6348Q108.154 25.6348 113.867 19.873Q119.58 14.1113 119.58 3.80859L119.58-86.7676Q119.58-97.0703 113.867-102.856Q108.154-108.643 97.8516-108.643L83.5938-108.643L83.5938-108.838Q83.5938-115.918 79.248-120.239Q74.9023-124.561 67.8223-124.561Q60.7422-124.561 56.3965-120.239Q52.0508-115.918 52.0508-108.838L52.0508-108.643L37.7441-108.643Q27.5391-108.643 21.8018-102.856Q16.0645-97.0703 16.0645-86.7676L16.0645 3.80859Q16.0645 14.1113 21.8018 19.873Q27.5391 25.6348 37.7441 25.6348ZM81.9824 53.5156L111.621 53.5156Q114.941 53.5156 117.261 51.1963Q119.58 48.877 119.58 45.5566Q119.58 42.1875 117.261 39.8682Q114.941 37.5488 111.621 37.5488L82.4707 37.5488Q78.6133 37.5488 76.6357 35.791Q74.6582 34.0332 74.6582 30.4199L74.6582 16.2598L58.6426 16.2598L58.6426 30.8105Q58.6426 41.5527 64.8682 47.5342Q71.0938 53.5156 81.9824 53.5156ZM67.8711-104.248Q65.9668-104.248 64.6484-105.566Q63.3301-106.885 63.3301-108.789Q63.3301-110.693 64.6484-112.012Q65.9668-113.33 67.8711-113.33Q69.7266-113.33 71.0449-112.012Q72.3633-110.693 72.3633-108.789Q72.3633-106.885 71.0449-105.566Q69.7266-104.248 67.8711-104.248Z"/>
   <path class="multicolor-1:systemPurpleColor SFSymbolsPreviewAF52DE" d="M45.9473 3.32031Q42.9688 3.32031 41.2109 1.63574Q39.4531-0.0488281 39.4531-2.97852L39.4531-71.6309Q39.4531-74.6094 41.2109-76.3184Q42.9688-78.0273 45.9473-78.0273L89.7461-78.0273Q92.7246-78.0273 94.4824-76.3184Q96.2402-74.6094 96.1914-71.6309L96.1914-2.97852Q96.2402-0.0488281 94.4824 1.63574Q92.7246 3.32031 89.7461 3.32031Z"/>
   <path class="multicolor-2:white SFSymbolsPreviewFFFFFF" d="M67.8711-39.5508Q71.875-39.5508 74.7314-42.3096Q77.5879-45.0684 77.5879-49.0723Q77.5879-51.2695 76.6357-53.4668Q75.6836-55.6641 74.6094-57.6172L70.2148-65.7227Q69.0918-67.7246 67.8711-67.7002Q66.6504-67.6758 65.5273-65.7227L61.084-57.6172Q60.0586-55.6641 59.082-53.4668Q58.1055-51.2695 58.1055-49.0723Q58.1055-45.0684 61.0107-42.3096Q63.916-39.5508 67.8711-39.5508ZM54.5898-23.3887L81.1523-23.3887Q82.8613-23.3887 83.9355-24.5117Q85.0098-25.6348 85.0098-27.3438Q85.0098-28.9551 83.9355-30.0537Q82.8613-31.1523 81.1523-31.1523L54.5898-31.1523Q52.9297-31.1523 51.8066-30.0537Q50.6836-28.9551 50.6836-27.3438Q50.6836-25.6348 51.8066-24.5117Q52.9297-23.3887 54.5898-23.3887ZM59.6191-8.34961L76.123-8.34961Q77.8809-8.34961 78.9795-9.39941Q80.0781-10.4492 80.0781-12.0605Q80.0781-13.6719 78.9795-14.8438Q77.8809-16.0156 76.123-16.0156L59.6191-16.0156Q57.8613-16.0156 56.7627-14.8438Q55.6641-13.6719 55.6641-12.0605Q55.6641-10.4492 56.7627-9.39941Q57.8613-8.34961 59.6191-8.34961Z"/>
  </g>
  <g id="Bold-L" transform="matrix(1 0 0 1 2274.45 1556)">
   <path class="multicolor-0:tertiaryLabelColor SFSymbolsPreviewBDBDBD" d="M35.9375 22.8516L95.1172 22.8516Q104.59 22.8516 109.79 17.5537Q114.99 12.2559 114.99 2.7832L114.99-87.0117Q114.99-96.5332 109.79-101.807Q104.59-107.08 95.1172-107.08L79.6875-107.08L79.6875-107.471Q79.6875-113.818 75.7812-117.7Q71.875-121.582 65.5273-121.582Q59.2285-121.582 55.2979-117.7Q51.3672-113.818 51.3672-107.471L51.3672-107.08L35.9375-107.08Q26.5137-107.08 21.2891-101.807Q16.0645-96.5332 16.0645-87.0117L16.0645 2.7832Q16.0645 12.2559 21.2891 17.5537Q26.5137 22.8516 35.9375 22.8516ZM79.834 50.4883L108.447 50.4883Q111.133 50.4883 113.062 48.584Q114.99 46.6797 114.99 43.9453Q114.99 41.1621 113.062 39.2334Q111.133 37.3047 108.447 37.3047L80.127 37.3047Q75.6836 37.3047 73.4131 35.2783Q71.1426 33.252 71.1426 28.9551L71.1426 14.6973L57.9102 14.6973L57.9102 29.248Q57.9102 39.3066 63.7939 44.8975Q69.6777 50.4883 79.834 50.4883ZM65.5762-102.979Q63.7207-102.979 62.4512-104.272Q61.1816-105.566 61.1816-107.422Q61.1816-109.229 62.4512-110.522Q63.7207-111.816 65.5762-111.816Q67.3828-111.816 68.6523-110.522Q69.9219-109.229 69.9219-107.422Q69.9219-105.566 68.6523-104.272Q67.3828-102.979 65.5762-102.979Z"/>
   <path class="multicolor-1:systemPurpleColor SFSymbolsPreviewAF52DE" d="M43.8965 2.29492Q40.918 2.29492 39.1846 0.585938Q37.4512-1.12305 37.4512-4.00391L37.4512-72.6074Q37.4512-75.4883 39.1846-77.1973Q40.918-78.9062 43.8965-78.9062L87.2559-78.9062Q90.1855-78.9062 91.9434-77.1973Q93.7012-75.4883 93.6523-72.6074L93.6523-4.00391Q93.7012-1.12305 91.9434 0.585938Q90.1855 2.29492 87.2559 2.29492Z"/>
   <path class="multicolor-2:white SFSymbolsPreviewFFFFFF" d="M65.5762-39.6973Q69.6289-39.6973 72.5342-42.4805Q75.4395-45.2637 75.4395-49.3164Q75.4395-51.6113 74.4629-53.8086Q73.4863-56.0059 72.4121-58.0566L67.6758-66.748Q66.6992-68.5547 65.5762-68.5303Q64.4531-68.5059 63.4766-66.748L58.6914-58.0566Q57.6172-56.0059 56.6406-53.8086Q55.6641-51.6113 55.6641-49.3164Q55.6641-45.2637 58.6182-42.4805Q61.5723-39.6973 65.5762-39.6973ZM52.4414-24.0234L78.8574-24.0234Q80.3711-24.0234 81.3721-25.0732Q82.373-26.123 82.373-27.6367Q82.373-29.1016 81.3721-30.1025Q80.3711-31.1035 78.8574-31.1035L52.4414-31.1035Q50.8789-31.1035 49.8779-30.1025Q48.877-29.1016 48.877-27.6367Q48.877-26.123 49.8779-25.0732Q50.8789-24.0234 52.4414-24.0234ZM57.373-9.66797L73.8281-9.66797Q75.3906-9.66797 76.3916-10.6445Q77.3926-11.6211 77.3926-13.0859Q77.3926-14.5508 76.3916-15.625Q75.3906-16.6992 73.8281-16.6992L57.373-16.6992Q55.7617-16.6992 54.7607-15.625Q53.7598-14.5508 53.7598-13.0859Q53.7598-11.6211 54.7607-10.6445Q55.7617-9.66797 57.373-9.66797Z"/>
  </g>
  <g id="Semibold-L" transform="matrix(1 0 0 1 1979.33 1556)">
   <path class="multicolor-0:tertiaryLabelColor SFSymbolsPreviewBDBDBD" d="M34.6191 20.8984L93.2129 20.8984Q102.1 20.8984 106.958 15.9424Q111.816 10.9863 111.816 2.05078L111.816-87.1582Q111.816-96.0938 106.958-101.05Q102.1-106.006 93.2129-106.006L77.002-106.006L77.002-106.494Q77.002-112.305 73.3643-115.918Q69.7266-119.531 63.9648-119.531Q58.1055-119.531 54.4678-115.918Q50.8301-112.305 50.8301-106.494L50.8301-106.006L34.6191-106.006Q25.8301-106.006 20.9473-101.05Q16.0645-96.0938 16.0645-87.1582L16.0645 2.05078Q16.0645 10.9863 20.9473 15.9424Q25.8301 20.8984 34.6191 20.8984ZM78.3203 48.3887L106.201 48.3887Q108.496 48.3887 110.156 46.7529Q111.816 45.1172 111.816 42.8223Q111.816 40.4297 110.156 38.7939Q108.496 37.1582 106.201 37.1582L78.5156 37.1582Q73.6816 37.1582 71.1914 34.9121Q68.7012 32.666 68.7012 27.9785L68.7012 13.623L57.373 13.623L57.373 28.125Q57.373 37.7441 63.0127 43.0664Q68.6523 48.3887 78.3203 48.3887ZM63.9648-102.051Q62.1582-102.051 60.9131-103.345Q59.668-104.639 59.668-106.445Q59.668-108.252 60.9131-109.521Q62.1582-110.791 63.9648-110.791Q65.7227-110.791 66.9678-109.521Q68.2129-108.252 68.2129-106.445Q68.2129-104.639 66.9678-103.345Q65.7227-102.051 63.9648-102.051Z"/>
   <path class="multicolor-1:systemPurpleColor SFSymbolsPreviewAF52DE" d="M42.4805 1.51367Q39.502 1.51367 37.7686-0.170898Q36.0352-1.85547 36.0352-4.73633L36.0352-73.2422Q36.0352-76.123 37.7686-77.832Q39.502-79.541 42.4805-79.541L85.498-79.541Q88.4277-79.541 90.1611-77.832Q91.8945-76.123 91.8945-73.2422L91.8945-4.73633Q91.8945-1.85547 90.1611-0.170898Q88.4277 1.51367 85.498 1.51367Z"/>
   <path class="multicolor-2:white SFSymbolsPreviewFFFFFF" d="M63.9648-39.7949Q68.0664-39.7949 70.9961-42.6025Q73.9258-45.4102 73.9258-49.5117Q73.9258-51.8066 72.9492-54.0283Q71.9727-56.25 70.8984-58.3008L65.918-67.4316Q64.9902-69.0918 63.9404-69.0674Q62.8906-69.043 62.0117-67.4316L57.0312-58.3008Q55.957-56.25 54.9561-54.0283Q53.9551-51.8066 53.9551-49.5117Q53.9551-45.4102 56.9336-42.6025Q59.9121-39.7949 63.9648-39.7949ZM50.9277-24.4629L77.2461-24.4629Q78.6621-24.4629 79.6143-25.4395Q80.5664-26.416 80.5664-27.832Q80.5664-29.1992 79.6143-30.127Q78.6621-31.0547 77.2461-31.0547L50.9277-31.0547Q49.4629-31.0547 48.5107-30.127Q47.5586-29.1992 47.5586-27.832Q47.5586-26.416 48.5107-25.4395Q49.4629-24.4629 50.9277-24.4629ZM55.8105-10.5957L72.2168-10.5957Q73.6816-10.5957 74.6094-11.499Q75.5371-12.4023 75.5371-13.7695Q75.5371-15.1367 74.6094-16.1377Q73.6816-17.1387 72.2168-17.1387L55.8105-17.1387Q54.2969-17.1387 53.3691-16.1377Q52.4414-15.1367 52.4414-13.7695Q52.4414-12.4023 53.3691-11.499Q54.2969-10.5957 55.8105-10.5957Z"/>
  </g>
  <g id="Medium-L" transform="matrix(1 0 0 1 1683.81 1556)">
   <path class="multicolor-0:tertiaryLabelColor SFSymbolsPreviewBDBDBD" d="M33.6914 19.3848L91.7969 19.3848Q100.195 19.3848 104.81 14.6973Q109.424 10.0098 109.424 1.51367L109.424-87.3047Q109.424-95.8008 104.81-100.513Q100.195-105.225 91.7969-105.225L74.9512-105.225L74.9512-105.762Q74.9512-111.23 71.5576-114.6Q68.1641-117.969 62.7441-117.969Q57.3242-117.969 53.9062-114.6Q50.4883-111.23 50.4883-105.762L50.4883-105.225L33.6914-105.225Q25.293-105.225 20.6787-100.513Q16.0645-95.8008 16.0645-87.3047L16.0645 1.51367Q16.0645 10.0098 20.6787 14.6973Q25.293 19.3848 33.6914 19.3848ZM77.1973 46.8262L104.541 46.8262Q106.543 46.8262 107.983 45.4102Q109.424 43.9941 109.424 41.9922Q109.424 39.8926 107.983 38.4521Q106.543 37.0117 104.541 37.0117L77.2949 37.0117Q72.1191 37.0117 69.4824 34.6436Q66.8457 32.2754 66.8457 27.1973L66.8457 12.8418L56.9824 12.8418L56.9824 27.2949Q56.9824 36.5234 62.4268 41.6748Q67.8711 46.8262 77.1973 46.8262ZM62.7441-101.416Q60.9375-101.416 59.7168-102.686Q58.4961-103.955 58.4961-105.713Q58.4961-107.471 59.7168-108.716Q60.9375-109.961 62.7441-109.961Q64.502-109.961 65.7227-108.716Q66.9434-107.471 66.9434-105.713Q66.9434-103.955 65.7227-102.686Q64.502-101.416 62.7441-101.416Z"/>
   <path class="multicolor-1:systemPurpleColor SFSymbolsPreviewAF52DE" d="M41.4062 0.976562Q38.4277 0.976562 36.6943-0.708008Q34.9609-2.39258 34.9609-5.27344L34.9609-73.7305Q34.9609-76.5625 36.6943-78.2715Q38.4277-79.9805 41.4062-79.9805L84.1797-79.9805Q87.1094-79.9805 88.8428-78.2715Q90.5762-76.5625 90.5762-73.7305L90.5762-5.27344Q90.5762-2.39258 88.8428-0.708008Q87.1094 0.976562 84.1797 0.976562Z"/>
   <path class="multicolor-2:white SFSymbolsPreviewFFFFFF" d="M62.7441-39.8438Q66.8457-39.8438 69.8242-42.6758Q72.8027-45.5078 72.8027-49.6094Q72.8027-51.9531 71.8262-54.1992Q70.8496-56.4453 69.7266-58.4961L64.5996-67.9688Q63.7207-69.4824 62.7441-69.4824Q61.7676-69.4824 60.9375-67.9688L55.7617-58.4961Q54.6875-56.4453 53.6865-54.1992Q52.6855-51.9531 52.6855-49.6094Q52.6855-45.5078 55.6885-42.6758Q58.6914-39.8438 62.7441-39.8438ZM49.7559-24.8047L76.0254-24.8047Q77.3926-24.8047 78.2715-25.7324Q79.1504-26.6602 79.1504-27.9785Q79.1504-29.2969 78.2715-30.1758Q77.3926-31.0547 76.0254-31.0547L49.7559-31.0547Q48.3887-31.0547 47.5098-30.1758Q46.6309-29.2969 46.6309-27.9785Q46.6309-26.6602 47.5098-25.7324Q48.3887-24.8047 49.7559-24.8047ZM54.5898-11.2793L70.9961-11.2793Q72.3633-11.2793 73.2422-12.1582Q74.1211-13.0371 74.1211-14.3066Q74.1211-15.625 73.2422-16.5771Q72.3633-17.5293 70.9961-17.5293L54.5898-17.5293Q53.2227-17.5293 52.3438-16.5771Q51.4648-15.625 51.4648-14.3066Q51.4648-13.0371 52.3438-12.1582Q53.2227-11.2793 54.5898-11.2793Z"/>
  </g>
  <g id="Regular-L" transform="matrix(1 0 0 1 1388.66 1556)">
   <path class="multicolor-0:tertiaryLabelColor SFSymbolsPreviewBDBDBD" d="M32.4219 17.4805L89.8926 17.4805Q97.7539 17.4805 102.026 13.1104Q106.299 8.74023 106.299 0.78125L106.299-87.4512Q106.299-95.4102 102.026-99.7803Q97.7539-104.15 89.8926-104.15L72.3145-104.15L72.3145-104.785Q72.3145-109.766 69.1895-112.866Q66.0645-115.967 61.1816-115.967Q56.25-115.967 53.125-112.866Q50-109.766 50-104.785L50-104.15L32.4219-104.15Q24.6094-104.15 20.3369-99.7803Q16.0645-95.4102 16.0645-87.4512L16.0645 0.78125Q16.0645 8.74023 20.3369 13.1104Q24.6094 17.4805 32.4219 17.4805ZM75.7324 44.7754L102.344 44.7754Q103.955 44.7754 105.127 43.6279Q106.299 42.4805 106.299 40.8691Q106.299 39.1602 105.127 38.0127Q103.955 36.8652 102.344 36.8652L75.7324 36.8652Q70.1172 36.8652 67.2852 34.3018Q64.4531 31.7383 64.4531 26.2207L64.4531 11.7676L56.4941 11.7676L56.4941 26.2207Q56.4941 35.0098 61.6943 39.8926Q66.8945 44.7754 75.7324 44.7754ZM61.1816-100.537Q59.4238-100.537 58.2275-101.782Q57.0312-103.027 57.0312-104.736Q57.0312-106.494 58.2275-107.715Q59.4238-108.936 61.1816-108.936Q62.8906-108.936 64.0869-107.715Q65.2832-106.494 65.2832-104.736Q65.2832-103.027 64.0869-101.782Q62.8906-100.537 61.1816-100.537Z"/>
   <path class="multicolor-1:systemPurpleColor SFSymbolsPreviewAF52DE" d="M39.9902 0.244141Q37.0605 0.244141 35.3271-1.44043Q33.5938-3.125 33.5938-5.95703L33.5938-74.3652Q33.5938-77.1973 35.3271-78.9062Q37.0605-80.6152 39.9902-80.6152L82.4707-80.6152Q85.3516-80.6152 87.085-78.9062Q88.8184-77.1973 88.8184-74.3652L88.8184-5.95703Q88.8184-3.125 87.085-1.44043Q85.3516 0.244141 82.4707 0.244141Z"/>
   <path class="multicolor-2:white SFSymbolsPreviewFFFFFF" d="M61.1816-39.9414Q65.332-39.9414 68.335-42.7979Q71.3379-45.6543 71.3379-49.8047Q71.3379-52.1484 70.3369-54.4189Q69.3359-56.6895 68.2129-58.7891L62.8418-68.6523Q62.0605-70.0195 61.1572-70.0195Q60.2539-70.0195 59.5215-68.6523L54.1504-58.7891Q53.0273-56.6895 52.0264-54.4189Q51.0254-52.1484 51.0254-49.8047Q51.0254-45.6543 54.0527-42.7979Q57.0801-39.9414 61.1816-39.9414ZM48.291-25.2441L74.4629-25.2441Q75.6836-25.2441 76.5137-26.0986Q77.3438-26.9531 77.3438-28.1738Q77.3438-29.3945 76.5137-30.2002Q75.6836-31.0059 74.4629-31.0059L48.291-31.0059Q47.0215-31.0059 46.1914-30.2002Q45.3613-29.3945 45.3613-28.1738Q45.3613-26.9531 46.1914-26.0986Q47.0215-25.2441 48.291-25.2441ZM53.0762-12.207L69.3848-12.207Q70.6543-12.207 71.4844-13.0127Q72.3145-13.8184 72.3145-14.9902Q72.3145-16.2109 71.4844-17.0898Q70.6543-17.9688 69.3848-17.9688L53.0762-17.9688Q51.7578-17.9688 50.9521-17.0898Q50.1465-16.2109 50.1465-14.9902Q50.1465-13.8184 50.9521-13.0127Q51.7578-12.207 53.0762-12.207Z"/>
  </g>
  <g id="Light-L" transform="matrix(1 0 0 1 1094.12 1556)">
   <path class="multicolor-0:tertiaryLabelColor SFSymbolsPreviewBDBDBD" d="M31.0059 14.5508L86.9629 14.5508Q94.1895 14.5508 98.0713 10.5957Q101.953 6.64062 101.953-0.732422L101.953-86.6211Q101.953-93.9941 98.0713-97.9492Q94.1895-101.904 86.9629-101.904L68.1152-101.904L68.1152-102.93Q68.1152-106.885 65.5273-109.473Q62.9395-112.061 59.0332-112.061Q55.0293-112.061 52.4414-109.473Q49.8535-106.885 49.8535-102.93L49.8535-101.904L31.0059-101.904Q23.8281-101.904 19.9463-97.9492Q16.0645-93.9941 16.0645-86.6211L16.0645-0.732422Q16.0645 6.64062 19.9463 10.5957Q23.8281 14.5508 31.0059 14.5508ZM73.4375 41.2598L98.877 41.2598Q100.146 41.2598 101.05 40.3564Q101.953 39.4531 101.953 38.1836Q101.953 36.8652 101.05 35.9863Q100.146 35.1074 98.877 35.1074L73.4375 35.1074Q67.627 35.1074 64.6729 32.3486Q61.7188 29.5898 61.7188 23.9746L61.7188 10.4492L55.4688 10.4492L55.4688 23.9746Q55.4688 32.1289 60.2783 36.6943Q65.0879 41.2598 73.4375 41.2598ZM59.0332-99.2676Q57.5195-99.2676 56.4941-100.342Q55.4688-101.416 55.4688-102.881Q55.4688-104.346 56.4941-105.396Q57.5195-106.445 59.0332-106.445Q60.4492-106.445 61.4746-105.396Q62.5-104.346 62.5-102.881Q62.5-101.416 61.4746-100.342Q60.4492-99.2676 59.0332-99.2676Z"/>
   <path class="multicolor-1:systemPurpleColor SFSymbolsPreviewAF52DE" d="M38.4277-1.41602Q35.5957-1.41602 33.9111-3.05176Q32.2266-4.6875 32.2266-7.42188L32.2266-73.584Q32.2266-76.3184 33.9111-77.9541Q35.5957-79.5898 38.4277-79.5898L79.7363-79.5898Q82.4707-79.5898 84.1553-77.9541Q85.8398-76.3184 85.8398-73.584L85.8398-7.42188Q85.8398-4.6875 84.1553-3.05176Q82.4707-1.41602 79.7363-1.41602Z"/>
   <path class="multicolor-2:white SFSymbolsPreviewFFFFFF" d="M59.0332-39.502Q63.0859-39.502 66.04-42.3096Q68.9941-45.1172 68.9941-49.2188Q68.9941-51.5137 68.0176-53.7354Q67.041-55.957 65.918-58.0078L60.4004-68.1152Q59.8145-69.2383 59.0088-69.2383Q58.2031-69.2383 57.6172-68.1152L52.0996-58.0078Q51.0254-55.957 50.0244-53.7354Q49.0234-51.5137 49.0234-49.2188Q49.0234-45.1172 52.002-42.3096Q54.9805-39.502 59.0332-39.502ZM46.2402-25.9766L72.4121-25.9766Q73.4375-25.9766 74.1455-26.6846Q74.8535-27.3926 74.8535-28.418Q74.8535-29.4434 74.1455-30.127Q73.4375-30.8105 72.4121-30.8105L46.2402-30.8105Q45.166-30.8105 44.458-30.127Q43.75-29.4434 43.75-28.418Q43.75-27.3926 44.458-26.6846Q45.166-25.9766 46.2402-25.9766ZM50.7324-13.623L67.4316-13.623Q68.5059-13.623 69.1895-14.3066Q69.873-14.9902 69.873-15.9668Q69.873-16.9434 69.1895-17.6758Q68.5059-18.4082 67.4316-18.4082L50.7324-18.4082Q49.6094-18.4082 48.9258-17.6758Q48.2422-16.9434 48.2422-15.9668Q48.2422-14.9902 48.9258-14.3066Q49.6094-13.623 50.7324-13.623Z"/>
  </g>
  <g id="Thin-L" transform="matrix(1 0 0 1 800.27 1556)">
   <path class="multicolor-0:tertiaryLabelColor SFSymbolsPreviewBDBDBD" d="M29.1992 10.6934L83.1055 10.6934Q89.5508 10.6934 92.8955 7.27539Q96.2402 3.85742 96.2402-2.73438L96.2402-85.498Q96.2402-92.0898 92.8955-95.5078Q89.5508-98.9258 83.1055-98.9258L62.5977-98.9258L62.5977-100.439Q62.5977-103.125 60.7178-105.005Q58.8379-106.885 56.1523-106.885Q53.418-106.885 51.5381-105.005Q49.6582-103.125 49.6582-100.439L49.6582-98.9258L29.1992-98.9258Q22.7539-98.9258 19.4092-95.5078Q16.0645-92.0898 16.0645-85.498L16.0645-2.73438Q16.0645 3.85742 19.4092 7.27539Q22.7539 10.6934 29.1992 10.6934ZM70.4102 36.5723L94.3359 36.5723Q95.1172 36.5723 95.6787 36.0107Q96.2402 35.4492 96.2402 34.668Q96.2402 33.8379 95.6787 33.3008Q95.1172 32.7637 94.3359 32.7637L70.4102 32.7637Q64.2578 32.7637 61.1572 29.7607Q58.0566 26.7578 58.0566 20.9473L58.0566 8.69141L54.1504 8.69141L54.1504 20.9473Q54.1504 28.3203 58.4229 32.4463Q62.6953 36.5723 70.4102 36.5723ZM56.1523-97.6074Q54.9805-97.6074 54.1748-98.4375Q53.3691-99.2676 53.3691-100.391Q53.3691-101.514 54.1748-102.319Q54.9805-103.125 56.1523-103.125Q57.2754-103.125 58.0566-102.319Q58.8379-101.514 58.8379-100.391Q58.8379-99.2676 58.0566-98.4375Q57.2754-97.6074 56.1523-97.6074Z"/>
   <path class="multicolor-1:systemPurpleColor SFSymbolsPreviewAF52DE" d="M36.3281-3.66211Q33.6914-3.66211 32.0801-5.22461Q30.4688-6.78711 30.4688-9.32617L30.4688-72.5586Q30.4688-75.1465 32.0801-76.709Q33.6914-78.2715 36.3281-78.2715L76.0742-78.2715Q78.7109-78.2715 80.3223-76.709Q81.9336-75.1465 81.9336-72.5586L81.9336-9.32617Q81.9336-6.78711 80.3223-5.22461Q78.7109-3.66211 76.0742-3.66211Z"/>
   <path class="multicolor-2:white SFSymbolsPreviewFFFFFF" d="M56.1523-38.9648Q60.1562-38.9648 63.0127-41.6992Q65.8691-44.4336 65.8691-48.4375Q65.8691-50.6836 64.917-52.832Q63.9648-54.9805 62.8906-56.9824L57.2266-67.3828Q56.7871-68.1641 56.1523-68.1641Q55.5176-68.1641 55.0781-67.4805L49.4629-56.9824Q48.3398-54.9805 47.3877-52.832Q46.4355-50.6836 46.4355-48.4375Q46.4355-44.4336 49.3164-41.6992Q52.1973-38.9648 56.1523-38.9648ZM43.457-26.9531L69.6777-26.9531Q70.459-26.9531 70.9961-27.4902Q71.5332-28.0273 71.5332-28.7598Q71.5332-29.4922 70.9961-30.0049Q70.459-30.5176 69.6777-30.5176L43.457-30.5176Q42.6758-30.5176 42.1631-30.0049Q41.6504-29.4922 41.6504-28.7598Q41.6504-28.0273 42.1631-27.4902Q42.6758-26.9531 43.457-26.9531ZM47.6074-15.4785L64.8438-15.4785Q65.625-15.4785 66.1621-15.9912Q66.6992-16.5039 66.6992-17.2363Q66.6992-17.9688 66.1621-18.5059Q65.625-19.043 64.8438-19.043L47.6074-19.043Q46.7773-19.043 46.2646-18.5059Q45.752-17.9688 45.752-17.2363Q45.752-16.5039 46.2646-15.9912Q46.7773-15.4785 47.6074-15.4785Z"/>
  </g>
  <g id="Ultralight-L" transform="matrix(1 0 0 1 505.024 1556)">
   <path class="multicolor-0:tertiaryLabelColor SFSymbolsPreviewBDBDBD" d="M28.2227 8.74023L81.1523 8.74023Q87.1094 8.74023 90.21 5.59082Q93.3105 2.44141 93.3105-3.75977L93.3105-84.9609Q93.3105-91.1621 90.21-94.2871Q87.1094-97.4121 81.1523-97.4121L59.7168-97.4121L59.7168-99.1699Q59.7168-101.172 58.2031-102.686Q56.6895-104.199 54.6875-104.199Q52.5879-104.199 51.0742-102.686Q49.5605-101.172 49.5605-99.1699L49.5605-97.4121L28.2227-97.4121Q22.2168-97.4121 19.1406-94.2871Q16.0645-91.1621 16.0645-84.9609L16.0645-3.75977Q16.0645 2.44141 19.1406 5.59082Q22.2168 8.74023 28.2227 8.74023ZM68.8965 34.1797L91.9922 34.1797Q92.5293 34.1797 92.9199 33.7891Q93.3105 33.3984 93.3105 32.8613Q93.3105 32.3242 92.9199 31.9336Q92.5293 31.543 91.9922 31.543L68.8965 31.543Q62.5977 31.543 59.3994 28.4424Q56.2012 25.3418 56.2012 19.4336L56.2012 7.8125L53.4668 7.8125L53.4668 19.4336Q53.4668 26.3672 57.4707 30.2734Q61.4746 34.1797 68.8965 34.1797ZM54.6875-96.7773Q53.6621-96.7773 52.9785-97.4609Q52.2949-98.1445 52.2949-99.1699Q52.2949-100.098 52.9785-100.781Q53.6621-101.465 54.6875-101.465Q55.6152-101.465 56.2988-100.781Q56.9824-100.098 56.9824-99.1699Q56.9824-98.1445 56.2988-97.4609Q55.6152-96.7773 54.6875-96.7773Z"/>
   <path class="multicolor-1:systemPurpleColor SFSymbolsPreviewAF52DE" d="M35.2539-4.78516Q32.7148-4.78516 31.1279-6.32324Q29.541-7.86133 29.541-10.3027L29.541-72.0215Q29.541-74.5117 31.1279-76.0498Q32.7148-77.5879 35.2539-77.5879L74.2188-77.5879Q76.7578-77.5879 78.3447-76.0498Q79.9316-74.5117 79.9316-72.0215L79.9316-10.3027Q79.9316-7.86133 78.3447-6.32324Q76.7578-4.78516 74.2188-4.78516Z"/>
   <path class="multicolor-2:white SFSymbolsPreviewFFFFFF" d="M54.6875-38.6719Q58.6426-38.6719 61.4502-41.3574Q64.2578-44.043 64.2578-48.0469Q64.2578-50.293 63.3301-52.3926Q62.4023-54.4922 61.3281-56.4941L55.5664-67.041Q55.2734-67.627 54.6875-67.627Q54.1016-67.627 53.8086-67.0898L48.0469-56.4941Q46.9727-54.4922 46.0205-52.3926Q45.0684-50.293 45.0684-48.0469Q45.0684-44.043 47.9248-41.3574Q50.7812-38.6719 54.6875-38.6719ZM42.0898-27.4902L68.3105-27.4902Q68.9453-27.4902 69.4092-27.9053Q69.873-28.3203 69.873-28.9062Q69.873-29.541 69.4092-29.9561Q68.9453-30.3711 68.3105-30.3711L42.0898-30.3711Q41.4551-30.3711 40.9912-29.9561Q40.5273-29.541 40.5273-28.9062Q40.5273-28.3203 40.9912-27.9053Q41.4551-27.4902 42.0898-27.4902ZM46.0449-16.4062L63.5254-16.4062Q64.1602-16.4062 64.5996-16.8457Q65.0391-17.2852 65.0391-17.9199Q65.0391-18.457 64.5996-18.8965Q64.1602-19.3359 63.5254-19.3359L46.0449-19.3359Q45.3613-19.3359 44.9219-18.8965Q44.4824-18.457 44.4824-17.9199Q44.4824-17.2852 44.9219-16.8457Q45.3613-16.4062 46.0449-16.4062Z"/>
  </g>
  <g id="Black-M" transform="matrix(1 0 0 1 2878.22 1126)">
   <path class="multicolor-0:tertiaryLabelColor SFSymbolsPreviewBDBDBD" d="M31.4941 15.0879L78.9062 15.0879Q87.8418 15.0879 92.8711 10.0342Q97.9004 4.98047 97.9004-3.95508L97.9004-74.5605Q97.9004-83.4961 92.8711-88.5498Q87.8418-93.6035 78.9062-93.6035L69.043-93.6035L69.043-93.7012Q69.043-99.9023 65.2344-103.687Q61.4258-107.471 55.1758-107.471Q48.9258-107.471 45.1416-103.687Q41.3574-99.9023 41.3574-93.7012L41.3574-93.6035L31.4941-93.6035Q22.5098-93.6035 17.4805-88.5498Q12.4512-83.4961 12.4512-74.5605L12.4512-3.95508Q12.4512 4.98047 17.4805 10.0342Q22.5098 15.0879 31.4941 15.0879ZM65.918 36.7188L90.0391 36.7188Q93.3105 36.7188 95.6055 34.4238Q97.9004 32.1289 97.9004 28.8574Q97.9004 25.5371 95.6055 23.2178Q93.3105 20.8984 90.0391 20.8984L66.5039 20.8984Q64.4043 20.8984 63.208 19.873Q62.0117 18.8477 62.0117 16.9434L62.0117 6.49414L46.1426 6.49414L46.1426 17.5293Q46.1426 26.6113 51.3916 31.665Q56.6406 36.7188 65.918 36.7188ZM55.2246-90.1367Q53.7598-90.1367 52.7344-91.1621Q51.709-92.1875 51.709-93.6523Q51.709-95.0684 52.7344-96.0938Q53.7598-97.1191 55.2246-97.1191Q56.6895-97.1191 57.7148-96.0938Q58.7402-95.0684 58.7402-93.6523Q58.7402-92.1875 57.7148-91.1621Q56.6895-90.1367 55.2246-90.1367Z"/>
   <path class="multicolor-1:systemPurpleColor SFSymbolsPreviewAF52DE" d="M38.0859-4.3457Q35.7422-4.3457 34.3994-5.63965Q33.0566-6.93359 33.1055-9.22852L33.1055-61.8164Q33.0566-64.1113 34.3994-65.4053Q35.7422-66.6992 38.0859-66.6992L72.2656-66.6992Q74.6094-66.6992 75.9766-65.4053Q77.3438-64.1113 77.2949-61.8164L77.2949-9.22852Q77.3438-6.93359 75.9766-5.63965Q74.6094-4.3457 72.2656-4.3457Z"/>
   <path class="multicolor-2:white SFSymbolsPreviewFFFFFF" d="M55.2246-38.2324Q58.2031-38.2324 60.3516-40.3076Q62.5-42.3828 62.5-45.3613Q62.5-47.0703 61.792-48.6816Q61.084-50.293 60.3027-51.7578L57.3242-57.1777Q56.3477-58.9844 55.249-58.96Q54.1504-58.9355 53.1738-57.1777L50.1465-51.7578Q49.3652-50.293 48.6572-48.6816Q47.9492-47.0703 47.9492-45.3613Q47.9492-42.3828 50.0977-40.3076Q52.2461-38.2324 55.2246-38.2324ZM44.8242-25.3418L65.5762-25.3418Q67.041-25.3418 67.9932-26.3184Q68.9453-27.2949 68.9453-28.7598Q68.9453-30.1758 67.9932-31.1279Q67.041-32.0801 65.5762-32.0801L44.8242-32.0801Q43.3105-32.0801 42.3584-31.1279Q41.4062-30.1758 41.4062-28.7598Q41.4062-27.2949 42.3584-26.3184Q43.3105-25.3418 44.8242-25.3418ZM48.6816-12.8906L61.7676-12.8906Q63.2812-12.8906 64.209-13.8184Q65.1367-14.7461 65.1367-16.0645Q65.1367-17.5293 64.209-18.5303Q63.2812-19.5312 61.7676-19.5312L48.6816-19.5312Q47.2168-19.5312 46.2646-18.5303Q45.3125-17.5293 45.3125-16.0645Q45.3125-14.7461 46.2646-13.8184Q47.2168-12.8906 48.6816-12.8906Z"/>
  </g>
  <g id="Heavy-M" transform="matrix(1 0 0 1 2583.05 1126)">
   <path class="multicolor-0:tertiaryLabelColor SFSymbolsPreviewBDBDBD" d="M30.1758 13.2324L77.0996 13.2324Q85.4492 13.2324 90.1367 8.52051Q94.8242 3.80859 94.8242-4.54102L94.8242-74.9512Q94.8242-83.3008 90.1367-88.0127Q85.4492-92.7246 77.0996-92.7246L66.5527-92.7246L66.5527-92.8711Q66.5527-98.6816 62.9883-102.197Q59.4238-105.713 53.6133-105.713Q47.8516-105.713 44.3115-102.197Q40.7715-98.6816 40.7715-92.8711L40.7715-92.7246L30.1758-92.7246Q21.8262-92.7246 17.1387-88.0127Q12.4512-83.3008 12.4512-74.9512L12.4512-4.54102Q12.4512 3.80859 17.1387 8.52051Q21.8262 13.2324 30.1758 13.2324ZM64.502 34.8633L87.9883 34.8633Q90.8203 34.8633 92.8223 32.8613Q94.8242 30.8594 94.8242 28.0273Q94.8242 25.0977 92.8223 23.0957Q90.8203 21.0938 87.9883 21.0938L64.9902 21.0938Q62.3535 21.0938 60.9375 19.873Q59.5215 18.6523 59.5215 16.1621L59.5215 5.41992L45.752 5.41992L45.752 16.6016Q45.752 25.2441 50.7568 30.0537Q55.7617 34.8633 64.502 34.8633ZM53.6621-89.3066Q52.1973-89.3066 51.1719-90.332Q50.1465-91.3574 50.1465-92.8223Q50.1465-94.2383 51.1719-95.2881Q52.1973-96.3379 53.6621-96.3379Q55.127-96.3379 56.1523-95.2881Q57.1777-94.2383 57.1777-92.8223Q57.1777-91.3574 56.1523-90.332Q55.127-89.3066 53.6621-89.3066Z"/>
   <path class="multicolor-1:systemPurpleColor SFSymbolsPreviewAF52DE" d="M36.6211-4.93164Q34.2773-4.93164 32.9346-6.22559Q31.5918-7.51953 31.6406-9.81445L31.6406-62.793Q31.5918-65.0879 32.9346-66.4062Q34.2773-67.7246 36.6211-67.7246L70.6543-67.7246Q72.998-67.7246 74.3652-66.4062Q75.7324-65.0879 75.6836-62.793L75.6836-9.81445Q75.7324-7.51953 74.3652-6.22559Q72.998-4.93164 70.6543-4.93164Z"/>
   <path class="multicolor-2:white SFSymbolsPreviewFFFFFF" d="M53.6621-38.4277Q56.7383-38.4277 58.9111-40.5518Q61.084-42.6758 61.084-45.7031Q61.084-47.4609 60.376-49.0967Q59.668-50.7324 58.8379-52.2461L55.6152-58.2031Q54.6875-59.8633 53.6865-59.8389Q52.6855-59.8145 51.7578-58.2031L48.4863-52.2461Q47.7051-50.7324 46.9727-49.0967Q46.2402-47.4609 46.2402-45.7031Q46.2402-42.6758 48.4375-40.5518Q50.6348-38.4277 53.6621-38.4277ZM43.3594-25.7324L64.0137-25.7324Q65.3809-25.7324 66.2598-26.6602Q67.1387-27.5879 67.1387-28.9551Q67.1387-30.2734 66.2598-31.1768Q65.3809-32.0801 64.0137-32.0801L43.3594-32.0801Q41.9434-32.0801 41.04-31.1768Q40.1367-30.2734 40.1367-28.9551Q40.1367-27.5879 41.04-26.6602Q41.9434-25.7324 43.3594-25.7324ZM47.2168-13.7695L60.1562-13.7695Q61.5723-13.7695 62.4512-14.6484Q63.3301-15.5273 63.3301-16.748Q63.3301-18.1152 62.4512-19.0674Q61.5723-20.0195 60.1562-20.0195L47.2168-20.0195Q45.8496-20.0195 44.9463-19.0674Q44.043-18.1152 44.043-16.748Q44.043-15.5273 44.9463-14.6484Q45.8496-13.7695 47.2168-13.7695Z"/>
  </g>
  <g id="Bold-M" transform="matrix(1 0 0 1 2288.07 1126)">
   <path class="multicolor-0:tertiaryLabelColor SFSymbolsPreviewBDBDBD" d="M28.7109 11.1816L75.1465 11.1816Q82.8125 11.1816 87.085 6.86035Q91.3574 2.53906 91.3574-5.22461L91.3574-75.3906Q91.3574-83.1055 87.085-87.4268Q82.8125-91.748 75.1465-91.748L63.7695-91.748L63.7695-91.9922Q63.7695-97.2656 60.498-100.513Q57.2266-103.76 51.9043-103.76Q46.6309-103.76 43.3594-100.513Q40.0879-97.2656 40.0879-91.9922L40.0879-91.748L28.7109-91.748Q21.0449-91.748 16.748-87.4268Q12.4512-83.1055 12.4512-75.3906L12.4512-5.22461Q12.4512 2.53906 16.748 6.86035Q21.0449 11.1816 28.7109 11.1816ZM62.9883 32.7637L85.6934 32.7637Q88.0371 32.7637 89.6973 31.1035Q91.3574 29.4434 91.3574 27.0508Q91.3574 24.6582 89.6973 22.9736Q88.0371 21.2891 85.6934 21.2891L63.2812 21.2891Q60.1074 21.2891 58.4473 19.8486Q56.7871 18.4082 56.7871 15.332L56.7871 4.19922L45.2637 4.19922L45.2637 15.625Q45.2637 23.7305 50 28.2471Q54.7363 32.7637 62.9883 32.7637ZM51.9531-88.3789Q50.4395-88.3789 49.4141-89.4043Q48.3887-90.4297 48.3887-91.9434Q48.3887-93.3594 49.4141-94.4092Q50.4395-95.459 51.9531-95.459Q53.418-95.459 54.4434-94.4092Q55.4688-93.3594 55.4688-91.9434Q55.4688-90.4297 54.4434-89.4043Q53.418-88.3789 51.9531-88.3789Z"/>
   <path class="multicolor-1:systemPurpleColor SFSymbolsPreviewAF52DE" d="M35.0098-5.56641Q32.666-5.56641 31.2988-6.88477Q29.9316-8.20312 29.9805-10.498L29.9805-63.916Q29.9316-66.2109 31.2988-67.5293Q32.666-68.8477 35.0098-68.8477L68.8965-68.8477Q71.1914-68.8477 72.583-67.5293Q73.9746-66.2109 73.9258-63.916L73.9258-10.498Q73.9746-8.20312 72.583-6.88477Q71.1914-5.56641 68.8965-5.56641Z"/>
   <path class="multicolor-2:white SFSymbolsPreviewFFFFFF" d="M51.9531-38.6719Q55.0781-38.6719 57.3242-40.8447Q59.5703-43.0176 59.5703-46.1426Q59.5703-47.9004 58.8135-49.585Q58.0566-51.2695 57.2266-52.832L53.7109-59.3262Q52.8809-60.8398 51.9531-60.8154Q51.0254-60.791 50.1953-59.3262L46.6309-52.832Q45.8008-51.2695 45.0684-49.585Q44.3359-47.9004 44.3359-46.1426Q44.3359-43.0176 46.582-40.8447Q48.8281-38.6719 51.9531-38.6719ZM41.748-26.2207L62.2559-26.2207Q63.5254-26.2207 64.3555-27.0752Q65.1855-27.9297 65.1855-29.1992Q65.1855-30.4199 64.3555-31.25Q63.5254-32.0801 62.2559-32.0801L41.748-32.0801Q40.4297-32.0801 39.5996-31.25Q38.7695-30.4199 38.7695-29.1992Q38.7695-27.9297 39.5996-27.0752Q40.4297-26.2207 41.748-26.2207ZM45.6055-14.7461L58.3496-14.7461Q59.6191-14.7461 60.4492-15.5518Q61.2793-16.3574 61.2793-17.5293Q61.2793-18.7988 60.4492-19.6777Q59.6191-20.5566 58.3496-20.5566L45.6055-20.5566Q44.2871-20.5566 43.457-19.6777Q42.627-18.7988 42.627-17.5293Q42.627-16.3574 43.457-15.5518Q44.2871-14.7461 45.6055-14.7461Z"/>
  </g>
  <g id="Semibold-M" transform="matrix(1 0 0 1 1992.56 1126)">
   <path class="multicolor-0:tertiaryLabelColor SFSymbolsPreviewBDBDBD" d="M27.6855 9.76562L73.7305 9.76562Q80.957 9.76562 84.9609 5.68848Q88.9648 1.61133 88.9648-5.66406L88.9648-75.6836Q88.9648-82.9102 84.9609-86.9873Q80.957-91.0645 73.7305-91.0645L61.8164-91.0645L61.8164-91.3574Q61.8164-96.2891 58.7402-99.3408Q55.6641-102.393 50.7324-102.393Q45.752-102.393 42.7002-99.3408Q39.6484-96.2891 39.6484-91.3574L39.6484-91.0645L27.6855-91.0645Q20.459-91.0645 16.4551-86.9873Q12.4512-82.9102 12.4512-75.6836L12.4512-5.66406Q12.4512 1.61133 16.4551 5.68848Q20.459 9.76562 27.6855 9.76562ZM61.8652 31.2988L84.082 31.2988Q86.1328 31.2988 87.5488 29.8584Q88.9648 28.418 88.9648 26.416Q88.9648 24.3164 87.5488 22.8516Q86.1328 21.3867 84.082 21.3867L62.0605 21.3867Q58.4961 21.3867 56.665 19.7998Q54.834 18.2129 54.834 14.6973L54.834 3.36914L44.9219 3.36914L44.9219 14.8926Q44.9219 22.7051 49.4873 27.002Q54.0527 31.2988 61.8652 31.2988ZM50.7324-87.6953Q49.2188-87.6953 48.1934-88.7451Q47.168-89.7949 47.168-91.3086Q47.168-92.7246 48.1934-93.7744Q49.2188-94.8242 50.7324-94.8242Q52.2461-94.8242 53.2715-93.7744Q54.2969-92.7246 54.2969-91.3086Q54.2969-89.7949 53.2715-88.7451Q52.2461-87.6953 50.7324-87.6953Z"/>
   <path class="multicolor-1:systemPurpleColor SFSymbolsPreviewAF52DE" d="M33.8379-6.00586Q31.543-6.00586 30.1758-7.32422Q28.8086-8.64258 28.8086-10.9375L28.8086-64.6973Q28.8086-66.9434 30.1758-68.2861Q31.543-69.6289 33.8379-69.6289L67.627-69.6289Q69.9707-69.6289 71.3379-68.2861Q72.7051-66.9434 72.7051-64.6973L72.7051-10.9375Q72.7051-8.64258 71.3379-7.32422Q69.9707-6.00586 67.627-6.00586Z"/>
   <path class="multicolor-2:white SFSymbolsPreviewFFFFFF" d="M50.7324-38.8184Q53.9062-38.8184 56.1768-41.0156Q58.4473-43.2129 58.4473-46.3867Q58.4473-48.1934 57.6904-49.9023Q56.9336-51.6113 56.1035-53.2227L52.3438-60.0586Q51.5625-61.4746 50.708-61.4746Q49.8535-61.4746 49.1211-60.0586L45.3613-53.2227Q44.4824-51.6113 43.7256-49.9023Q42.9688-48.1934 42.9688-46.3867Q42.9688-43.2129 45.2881-41.0156Q47.6074-38.8184 50.7324-38.8184ZM40.5762-26.5625L61.0352-26.5625Q62.207-26.5625 62.9883-27.3682Q63.7695-28.1738 63.7695-29.3457Q63.7695-30.5176 62.9883-31.2988Q62.207-32.0801 61.0352-32.0801L40.5762-32.0801Q39.3555-32.0801 38.5742-31.2988Q37.793-30.5176 37.793-29.3457Q37.793-28.1738 38.5742-27.3682Q39.3555-26.5625 40.5762-26.5625ZM44.4336-15.4297L57.0801-15.4297Q58.3008-15.4297 59.082-16.1865Q59.8633-16.9434 59.8633-18.0664Q59.8633-19.2383 59.082-20.0928Q58.3008-20.9473 57.0801-20.9473L44.4336-20.9473Q43.2129-20.9473 42.4316-20.0928Q41.6504-19.2383 41.6504-18.0664Q41.6504-16.9434 42.4316-16.1865Q43.2129-15.4297 44.4336-15.4297Z"/>
  </g>
  <g id="Medium-M" transform="matrix(1 0 0 1 1696.75 1126)">
   <path class="multicolor-0:tertiaryLabelColor SFSymbolsPreviewBDBDBD" d="M26.9531 8.69141L72.7051 8.69141Q79.541 8.69141 83.3496 4.80957Q87.1582 0.927734 87.1582-6.00586L87.1582-75.8789Q87.1582-82.8125 83.3496-86.6943Q79.541-90.5762 72.7051-90.5762L60.3516-90.5762L60.3516-90.8691Q60.3516-95.5566 57.4219-98.4619Q54.4922-101.367 49.8047-101.367Q45.1172-101.367 42.1875-98.4619Q39.2578-95.5566 39.2578-90.8691L39.2578-90.5762L26.9531-90.5762Q20.0684-90.5762 16.2598-86.6943Q12.4512-82.8125 12.4512-75.8789L12.4512-6.00586Q12.4512 0.927734 16.2598 4.80957Q20.0684 8.69141 26.9531 8.69141ZM61.084 30.1758L82.8613 30.1758Q84.668 30.1758 85.9131 28.9307Q87.1582 27.6855 87.1582 25.8789Q87.1582 24.0723 85.9131 22.7783Q84.668 21.4844 82.8613 21.4844L61.1816 21.4844Q57.3242 21.4844 55.3711 19.7754Q53.418 18.0664 53.418 14.2578L53.418 2.73438L44.6777 2.73438L44.6777 14.3555Q44.6777 21.875 49.0967 26.0254Q53.5156 30.1758 61.084 30.1758ZM49.8047-87.207Q48.291-87.207 47.2656-88.2568Q46.2402-89.3066 46.2402-90.8203Q46.2402-92.2852 47.2656-93.3105Q48.291-94.3359 49.8047-94.3359Q51.3184-94.3359 52.3438-93.3105Q53.3691-92.2852 53.3691-90.8203Q53.3691-89.3066 52.3438-88.2568Q51.3184-87.207 49.8047-87.207Z"/>
   <path class="multicolor-1:systemPurpleColor SFSymbolsPreviewAF52DE" d="M33.0078-6.34766Q30.7129-6.34766 29.3213-7.69043Q27.9297-9.0332 27.9297-11.2793L27.9297-65.2832Q27.9297-67.5293 29.3213-68.8721Q30.7129-70.2148 33.0078-70.2148L66.6992-70.2148Q68.9941-70.2148 70.3857-68.8721Q71.7773-67.5293 71.7773-65.2832L71.7773-11.2793Q71.7773-9.0332 70.3857-7.69043Q68.9941-6.34766 66.6992-6.34766Z"/>
   <path class="multicolor-2:white SFSymbolsPreviewFFFFFF" d="M49.8047-38.9648Q53.0273-38.9648 55.3467-41.1865Q57.666-43.4082 57.666-46.582Q57.666-48.3887 56.8848-50.1465Q56.1035-51.9043 55.2734-53.5156L51.3672-60.6445Q50.6348-62.0117 49.8047-61.9873Q48.9746-61.9629 48.291-60.6445L44.3848-53.5156Q43.5059-51.9043 42.749-50.1465Q41.9922-48.3887 41.9922-46.582Q41.9922-43.4082 44.3115-41.1865Q46.6309-38.9648 49.8047-38.9648ZM39.7461-26.8066L60.1074-26.8066Q61.2305-26.8066 61.9873-27.5635Q62.7441-28.3203 62.7441-29.4922Q62.7441-30.5664 61.9873-31.3232Q61.2305-32.0801 60.1074-32.0801L39.7461-32.0801Q38.5254-32.0801 37.793-31.3232Q37.0605-30.5664 37.0605-29.4922Q37.0605-28.3203 37.793-27.5635Q38.5254-26.8066 39.7461-26.8066ZM43.6035-15.918L56.1035-15.918Q57.2754-15.918 58.0322-16.6504Q58.7891-17.3828 58.7891-18.457Q58.7891-19.6289 58.0322-20.4102Q57.2754-21.1914 56.1035-21.1914L43.6035-21.1914Q42.4316-21.1914 41.6748-20.4102Q40.918-19.6289 40.918-18.457Q40.918-17.3828 41.6748-16.6504Q42.4316-15.918 43.6035-15.918Z"/>
  </g>
  <g id="Regular-M" transform="matrix(1 0 0 1 1401.21 1126)">
   <path class="multicolor-0:tertiaryLabelColor SFSymbolsPreviewBDBDBD" d="M25.9277 7.27539L71.3379 7.27539Q77.7344 7.27539 81.2744 3.66211Q84.8145 0.0488281 84.8145-6.44531L84.8145-76.1719Q84.8145-82.666 81.2744-86.2793Q77.7344-89.8926 71.3379-89.8926L58.4473-89.8926L58.4473-90.2344Q58.4473-94.6289 55.7129-97.3145Q52.9785-100 48.6328-100Q44.2871-100 41.5527-97.3145Q38.8184-94.6289 38.8184-90.2344L38.8184-89.8926L25.9277-89.8926Q19.5312-89.8926 15.9912-86.2793Q12.4512-82.666 12.4512-76.1719L12.4512-6.44531Q12.4512 0.0488281 15.9912 3.66211Q19.5312 7.27539 25.9277 7.27539ZM60.0098 28.7598L81.2988 28.7598Q82.7637 28.7598 83.7891 27.7344Q84.8145 26.709 84.8145 25.2441Q84.8145 23.7305 83.7891 22.6807Q82.7637 21.6309 81.2988 21.6309L60.0098 21.6309Q55.7617 21.6309 53.6377 19.7754Q51.5137 17.9199 51.5137 13.6719L51.5137 1.9043L44.3848 1.9043L44.3848 13.6719Q44.3848 20.8496 48.6084 24.8047Q52.832 28.7598 60.0098 28.7598ZM48.6328-86.5723Q47.1191-86.5723 46.0938-87.6221Q45.0684-88.6719 45.0684-90.1855Q45.0684-91.6504 46.0938-92.7002Q47.1191-93.75 48.6328-93.75Q50.1465-93.75 51.1719-92.7002Q52.1973-91.6504 52.1973-90.1855Q52.1973-88.6719 51.1719-87.6221Q50.1465-86.5723 48.6328-86.5723Z"/>
   <path class="multicolor-1:systemPurpleColor SFSymbolsPreviewAF52DE" d="M31.8848-6.78711Q29.5898-6.78711 28.1982-8.12988Q26.8066-9.47266 26.8066-11.7188L26.8066-66.0156Q26.8066-68.2617 28.1982-69.6289Q29.5898-70.9961 31.8848-70.9961L65.4785-70.9961Q67.7734-70.9961 69.165-69.6289Q70.5566-68.2617 70.5566-66.0156L70.5566-11.7188Q70.5566-9.47266 69.165-8.12988Q67.7734-6.78711 65.4785-6.78711Z"/>
   <path class="multicolor-2:white SFSymbolsPreviewFFFFFF" d="M48.6328-39.1113Q51.9043-39.1113 54.248-41.3574Q56.5918-43.6035 56.5918-46.875Q56.5918-48.6816 55.8105-50.4639Q55.0293-52.2461 54.1504-53.9062L50.0488-61.4258Q49.3652-62.6465 48.6084-62.6465Q47.8516-62.6465 47.2168-61.4258L43.1152-53.9062Q42.2363-52.2461 41.4551-50.4639Q40.6738-48.6816 40.6738-46.875Q40.6738-43.6035 43.042-41.3574Q45.4102-39.1113 48.6328-39.1113ZM38.623-27.0996L58.8867-27.0996Q59.9609-27.0996 60.6689-27.832Q61.377-28.5645 61.377-29.6387Q61.377-30.6641 60.6689-31.3721Q59.9609-32.0801 58.8867-32.0801L38.623-32.0801Q37.5-32.0801 36.792-31.3721Q36.084-30.6641 36.084-29.6387Q36.084-28.5645 36.792-27.832Q37.5-27.0996 38.623-27.0996ZM42.4805-16.6016L54.8828-16.6016Q55.957-16.6016 56.6895-17.2852Q57.4219-17.9688 57.4219-18.9941Q57.4219-20.0684 56.6895-20.8252Q55.957-21.582 54.8828-21.582L42.4805-21.582Q41.3574-21.582 40.6494-20.8252Q39.9414-20.0684 39.9414-18.9941Q39.9414-17.9688 40.6494-17.2852Q41.3574-16.6016 42.4805-16.6016Z"/>
  </g>
  <g id="Light-M" transform="matrix(1 0 0 1 1106.43 1126)">
   <path class="multicolor-0:tertiaryLabelColor SFSymbolsPreviewBDBDBD" d="M24.6582 4.63867L68.7012 4.63867Q74.5605 4.63867 77.7588 1.41602Q80.957-1.80664 80.957-7.8125L80.957-75.4395Q80.957-81.3965 77.7588-84.6436Q74.5605-87.8906 68.7012-87.8906L54.6875-87.8906L54.6875-88.5254Q54.6875-92.041 52.4414-94.2627Q50.1953-96.4844 46.6797-96.4844Q43.2129-96.4844 40.9424-94.2627Q38.6719-92.041 38.6719-88.5254L38.6719-87.8906L24.6582-87.8906Q18.7988-87.8906 15.625-84.6436Q12.4512-81.3965 12.4512-75.4395L12.4512-7.8125Q12.4512-1.80664 15.625 1.41602Q18.7988 4.63867 24.6582 4.63867ZM57.959 25.5859L78.1738 25.5859Q79.3457 25.5859 80.1514 24.8047Q80.957 24.0234 80.957 22.8516Q80.957 21.6797 80.1514 20.8496Q79.3457 20.0195 78.1738 20.0195L57.959 20.0195Q53.5156 20.0195 51.2695 18.0176Q49.0234 16.0156 49.0234 11.6211L49.0234 0.732422L43.457 0.732422L43.457 11.6211Q43.457 18.2617 47.3389 21.9238Q51.2207 25.5859 57.959 25.5859ZM46.6797-85.4492Q45.4102-85.4492 44.5312-86.3281Q43.6523-87.207 43.6523-88.5254Q43.6523-89.7461 44.5312-90.625Q45.4102-91.5039 46.6797-91.5039Q47.9492-91.5039 48.8281-90.625Q49.707-89.7461 49.707-88.5254Q49.707-87.207 48.8281-86.3281Q47.9492-85.4492 46.6797-85.4492Z"/>
   <path class="multicolor-1:systemPurpleColor SFSymbolsPreviewAF52DE" d="M30.4688-8.30078Q28.2715-8.30078 26.9287-9.59473Q25.5859-10.8887 25.5859-13.0371L25.5859-65.2832Q25.5859-67.4805 26.9287-68.7744Q28.2715-70.0684 30.4688-70.0684L62.9883-70.0684Q65.1855-70.0684 66.5283-68.7744Q67.8711-67.4805 67.8711-65.2832L67.8711-13.0371Q67.8711-10.8887 66.5283-9.59473Q65.1855-8.30078 62.9883-8.30078Z"/>
   <path class="multicolor-2:white SFSymbolsPreviewFFFFFF" d="M46.6797-38.7207Q49.9023-38.7207 52.1973-40.918Q54.4922-43.1152 54.4922-46.3379Q54.4922-48.1445 53.7354-49.8779Q52.9785-51.6113 52.0996-53.2227L47.9004-60.9375Q47.3145-61.9141 46.6553-61.9141Q45.9961-61.9141 45.5078-60.9375L41.3086-53.2227Q40.4297-51.6113 39.6729-49.8779Q38.916-48.1445 38.916-46.3379Q38.916-43.1152 41.2354-40.918Q43.5547-38.7207 46.6797-38.7207ZM36.7676-27.7344L57.0312-27.7344Q57.959-27.7344 58.5449-28.3447Q59.1309-28.9551 59.1309-29.834Q59.1309-30.7129 58.5449-31.2988Q57.959-31.8848 57.0312-31.8848L36.7676-31.8848Q35.8398-31.8848 35.2539-31.2988Q34.668-30.7129 34.668-29.834Q34.668-28.9551 35.2539-28.3447Q35.8398-27.7344 36.7676-27.7344ZM40.3809-17.8711L53.125-17.8711Q54.0527-17.8711 54.6631-18.4326Q55.2734-18.9941 55.2734-19.873Q55.2734-20.752 54.6631-21.3623Q54.0527-21.9727 53.125-21.9727L40.3809-21.9727Q39.4531-21.9727 38.8428-21.3623Q38.2324-20.752 38.2324-19.873Q38.2324-18.9941 38.8428-18.4326Q39.4531-17.8711 40.3809-17.8711Z"/>
  </g>
  <g id="Thin-M" transform="matrix(1 0 0 1 812.282 1126)">
   <path class="multicolor-0:tertiaryLabelColor SFSymbolsPreviewBDBDBD" d="M22.998 1.17188L65.2344 1.17188Q70.4102 1.17188 73.1201-1.5625Q75.8301-4.29688 75.8301-9.61914L75.8301-74.4141Q75.8301-79.7363 73.1201-82.4951Q70.4102-85.2539 65.2344-85.2539L49.707-85.2539L49.707-86.2793Q49.707-88.6719 48.0957-90.2588Q46.4844-91.8457 44.1406-91.8457Q41.748-91.8457 40.1367-90.2588Q38.5254-88.6719 38.5254-86.2793L38.5254-85.2539L22.998-85.2539Q17.8711-85.2539 15.1611-82.4951Q12.4512-79.7363 12.4512-74.4141L12.4512-9.61914Q12.4512-4.29688 15.1611-1.5625Q17.8711 1.17188 22.998 1.17188ZM55.2246 21.4355L74.0723 21.4355Q74.8047 21.4355 75.3174 20.9229Q75.8301 20.4102 75.8301 19.6777Q75.8301 18.9941 75.3174 18.457Q74.8047 17.9199 74.0723 17.9199L55.2246 17.9199Q50.5371 17.9199 48.1689 15.6982Q45.8008 13.4766 45.8008 8.98438L45.8008-0.78125L42.2363-0.78125L42.2363 8.98438Q42.2363 14.8438 45.6787 18.1396Q49.1211 21.4355 55.2246 21.4355ZM44.1406-83.9355Q43.1641-83.9355 42.4805-84.6191Q41.7969-85.3027 41.7969-86.2793Q41.7969-87.207 42.4805-87.8906Q43.1641-88.5742 44.1406-88.5742Q45.0684-88.5742 45.7275-87.8906Q46.3867-87.207 46.3867-86.2793Q46.3867-85.3027 45.7275-84.6191Q45.0684-83.9355 44.1406-83.9355Z"/>
   <path class="multicolor-1:systemPurpleColor SFSymbolsPreviewAF52DE" d="M28.6133-10.2539Q26.5137-10.2539 25.2441-11.499Q23.9746-12.7441 23.9746-14.7461L23.9746-64.3555Q23.9746-66.4062 25.2441-67.627Q26.5137-68.8477 28.6133-68.8477L59.7656-68.8477Q61.8164-68.8477 63.0859-67.627Q64.3555-66.4062 64.3555-64.3555L64.3555-14.7461Q64.3555-12.7441 63.0859-11.499Q61.8164-10.2539 59.7656-10.2539Z"/>
   <path class="multicolor-2:white SFSymbolsPreviewFFFFFF" d="M44.1406-38.2324Q47.2656-38.2324 49.4873-40.3809Q51.709-42.5293 51.709-45.6543Q51.709-47.4121 50.9521-49.0967Q50.1953-50.7812 49.3652-52.3438L45.0195-60.3027Q44.6777-60.9375 44.1406-60.9619Q43.6035-60.9863 43.2617-60.3516L38.916-52.3438Q38.0371-50.7812 37.3047-49.0967Q36.5723-47.4121 36.5723-45.6543Q36.5723-42.5293 38.8184-40.3809Q41.0645-38.2324 44.1406-38.2324ZM34.2773-28.6133L54.5898-28.6133Q55.2734-28.6133 55.7129-29.0527Q56.1523-29.4922 56.1523-30.127Q56.1523-30.7617 55.7129-31.2012Q55.2734-31.6406 54.5898-31.6406L34.2773-31.6406Q33.6426-31.6406 33.2031-31.2012Q32.7637-30.7617 32.7637-30.127Q32.7637-29.4922 33.2031-29.0527Q33.6426-28.6133 34.2773-28.6133ZM37.5488-19.5312L50.7812-19.5312Q51.5137-19.5312 51.9531-19.9707Q52.3926-20.4102 52.3926-20.9961Q52.3926-21.6309 51.9531-22.0703Q51.5137-22.5098 50.7812-22.5098L37.5488-22.5098Q36.9141-22.5098 36.4502-22.0703Q35.9863-21.6309 35.9863-20.9961Q35.9863-20.4102 36.4502-19.9707Q36.9141-19.5312 37.5488-19.5312Z"/>
  </g>
  <g id="Ultralight-M" transform="matrix(1 0 0 1 516.889 1126)">
   <path class="multicolor-0:tertiaryLabelColor SFSymbolsPreviewBDBDBD" d="M22.168-0.585938L63.4766-0.585938Q68.2617-0.585938 70.7275-3.07617Q73.1934-5.56641 73.1934-10.5469L73.1934-73.9258Q73.1934-78.8574 70.7275-81.3721Q68.2617-83.8867 63.4766-83.8867L47.1191-83.8867L47.1191-85.1562Q47.1191-86.9141 45.8496-88.1836Q44.5801-89.4531 42.8223-89.4531Q41.0156-89.4531 39.7217-88.1836Q38.4277-86.9141 38.4277-85.1562L38.4277-83.8867L22.168-83.8867Q17.3828-83.8867 14.917-81.3721Q12.4512-78.8574 12.4512-73.9258L12.4512-10.5469Q12.4512-5.56641 14.917-3.07617Q17.3828-0.585938 22.168-0.585938ZM53.8574 19.2871L71.9727 19.2871Q72.5098 19.2871 72.8516 18.9453Q73.1934 18.6035 73.1934 18.0664Q73.1934 17.5781 72.8516 17.2119Q72.5098 16.8457 71.9727 16.8457L53.8574 16.8457Q49.0234 16.8457 46.5576 14.502Q44.0918 12.1582 44.0918 7.56836L44.0918-1.61133L41.6016-1.61133L41.6016 7.56836Q41.6016 13.0859 44.7998 16.1865Q47.998 19.2871 53.8574 19.2871ZM42.8223-83.1543Q41.9922-83.1543 41.4307-83.7402Q40.8691-84.3262 40.8691-85.1562Q40.8691-85.9375 41.4307-86.499Q41.9922-87.0605 42.8223-87.0605Q43.6035-87.0605 44.165-86.499Q44.7266-85.9375 44.7266-85.1562Q44.7266-84.3262 44.165-83.7402Q43.6035-83.1543 42.8223-83.1543Z"/>
   <path class="multicolor-1:systemPurpleColor SFSymbolsPreviewAF52DE" d="M27.6855-11.2793Q25.6348-11.2793 24.4141-12.4756Q23.1934-13.6719 23.1934-15.625L23.1934-63.8672Q23.1934-65.8691 24.4141-67.041Q25.6348-68.2129 27.6855-68.2129L58.0566-68.2129Q60.0586-68.2129 61.2793-67.041Q62.5-65.8691 62.5-63.8672L62.5-15.625Q62.5-13.6719 61.2793-12.4756Q60.0586-11.2793 58.0566-11.2793Z"/>
   <path class="multicolor-2:white SFSymbolsPreviewFFFFFF" d="M42.8223-37.9883Q45.8984-37.9883 48.0957-40.0879Q50.293-42.1875 50.293-45.2637Q50.293-47.0703 49.5605-48.7061Q48.8281-50.3418 47.998-51.8555L43.5547-59.9609Q43.2617-60.4492 42.7979-60.4736Q42.334-60.498 42.0898-60.0098L37.6465-51.8555Q36.8164-50.3418 36.084-48.7061Q35.3516-47.0703 35.3516-45.2637Q35.3516-42.1875 37.5732-40.0879Q39.7949-37.9883 42.8223-37.9883ZM33.0566-29.0527L53.3691-29.0527Q53.9062-29.0527 54.2725-29.4189Q54.6387-29.7852 54.6387-30.2734Q54.6387-30.8105 54.2725-31.1768Q53.9062-31.543 53.3691-31.543L33.0566-31.543Q32.5195-31.543 32.1533-31.1768Q31.7871-30.8105 31.7871-30.2734Q31.7871-29.7852 32.1533-29.4189Q32.5195-29.0527 33.0566-29.0527ZM36.1328-20.3613L49.6094-20.3613Q50.1953-20.3613 50.5615-20.7275Q50.9277-21.0938 50.9277-21.582Q50.9277-22.1191 50.5615-22.4609Q50.1953-22.8027 49.6094-22.8027L36.1328-22.8027Q35.5957-22.8027 35.2295-22.4609Q34.8633-22.1191 34.8633-21.582Q34.8633-21.0938 35.2295-20.7275Q35.5957-20.3613 36.1328-20.3613Z"/>
  </g>
  <g id="Black-S" transform="matrix(1 0 0 1 2889.8 696)">
   <path class="multicolor-0:tertiaryLabelColor SFSymbolsPreviewBDBDBD" d="M25 4.58984L62.207 4.58984Q69.3848 4.58984 73.4131 0.561523Q77.4414-3.4668 77.4414-10.6445L77.4414-65.8691Q77.4414-73.0469 73.4131-77.0752Q69.3848-81.1035 62.207-81.1035L54.6387-81.1035L54.6387-81.2012Q54.6387-86.1328 51.6113-89.1357Q48.584-92.1387 43.6035-92.1387Q38.623-92.1387 35.5957-89.1357Q32.5684-86.1328 32.5684-81.2012L32.5684-81.1035L25-81.1035Q17.8223-81.1035 13.7939-77.0752Q9.76562-73.0469 9.76562-65.8691L9.76562-10.6445Q9.76562-3.4668 13.7939 0.561523Q17.8223 4.58984 25 4.58984ZM51.9531 21.5332L70.9961 21.5332Q73.6816 21.5332 75.5615 19.6533Q77.4414 17.7734 77.4414 15.0879Q77.4414 12.3535 75.5615 10.4736Q73.6816 8.59375 70.9961 8.59375L52.4414 8.59375Q50.9277 8.59375 50.0732 7.83691Q49.2188 7.08008 49.2188 5.76172L49.2188-2.29492L36.2305-2.29492L36.2305 6.25Q36.2305 13.4766 40.4053 17.5049Q44.5801 21.5332 51.9531 21.5332ZM43.6523-78.418Q42.5293-78.418 41.7236-79.2236Q40.918-80.0293 40.918-81.1523Q40.918-82.2754 41.7236-83.0566Q42.5293-83.8379 43.6523-83.8379Q44.7754-83.8379 45.5566-83.0566Q46.3379-82.2754 46.3379-81.1523Q46.3379-80.0293 45.5566-79.2236Q44.7754-78.418 43.6523-78.418Z"/>
   <path class="multicolor-1:systemPurpleColor SFSymbolsPreviewAF52DE" d="M30.2246-10.9375Q28.418-10.9375 27.3438-11.9385Q26.2695-12.9395 26.3184-14.7461L26.3184-55.7129Q26.2695-57.5195 27.3438-58.5205Q28.418-59.5215 30.2246-59.5215L56.9824-59.5215Q58.8379-59.5215 59.8877-58.5205Q60.9375-57.5195 60.8887-55.7129L60.8887-14.7461Q60.9375-12.9395 59.8877-11.9385Q58.8379-10.9375 56.9824-10.9375Z"/>
   <path class="multicolor-2:white SFSymbolsPreviewFFFFFF" d="M43.6523-37.5Q45.9473-37.5 47.6074-39.1113Q49.2676-40.7227 49.2676-43.0176Q49.2676-44.3359 48.7305-45.6055Q48.1934-46.875 47.5586-47.998L45.3125-52.0996Q44.5312-53.5156 43.6768-53.5156Q42.8223-53.5156 41.9922-52.0996L39.6973-47.998Q39.1113-46.875 38.5498-45.6055Q37.9883-44.3359 37.9883-43.0176Q37.9883-40.7227 39.6729-39.1113Q41.3574-37.5 43.6523-37.5ZM35.4492-27.3926L51.7578-27.3926Q52.9297-27.3926 53.6865-28.1738Q54.4434-28.9551 54.4434-30.127Q54.4434-31.25 53.6865-32.0068Q52.9297-32.7637 51.7578-32.7637L35.4492-32.7637Q34.2773-32.7637 33.5205-32.0068Q32.7637-31.25 32.7637-30.127Q32.7637-28.9551 33.5205-28.1738Q34.2773-27.3926 35.4492-27.3926ZM38.4766-17.5293L48.7793-17.5293Q50-17.5293 50.7324-18.2617Q51.4648-18.9941 51.4648-20.0684Q51.4648-21.1914 50.7324-21.9971Q50-22.8027 48.7793-22.8027L38.4766-22.8027Q37.3047-22.8027 36.5479-21.9971Q35.791-21.1914 35.791-20.0684Q35.791-18.9941 36.5479-18.2617Q37.3047-17.5293 38.4766-17.5293Z"/>
  </g>
  <g id="Heavy-S" transform="matrix(1 0 0 1 2594.16 696)">
   <path class="multicolor-0:tertiaryLabelColor SFSymbolsPreviewBDBDBD" d="M24.0234 3.36914L61.0352 3.36914Q67.7246 3.36914 71.5088-0.439453Q75.293-4.24805 75.293-10.9863L75.293-66.3086Q75.293-73.0469 71.5088-76.8311Q67.7246-80.6152 61.0352-80.6152L52.9785-80.6152L52.9785-80.7129Q52.9785-85.4004 50.0977-88.2568Q47.2168-91.1133 42.5293-91.1133Q37.8418-91.1133 34.9609-88.2568Q32.0801-85.4004 32.0801-80.7129L32.0801-80.6152L24.0234-80.6152Q17.2852-80.6152 13.5254-76.8311Q9.76562-73.0469 9.76562-66.3086L9.76562-10.9863Q9.76562-4.24805 13.5254-0.439453Q17.2852 3.36914 24.0234 3.36914ZM51.0254 20.3125L69.6289 20.3125Q71.9727 20.3125 73.6328 18.6768Q75.293 17.041 75.293 14.6484Q75.293 12.2559 73.6328 10.5957Q71.9727 8.93555 69.6289 8.93555L51.416 8.93555Q49.4629 8.93555 48.4375 8.03223Q47.4121 7.12891 47.4121 5.37109L47.4121-3.07617L35.9863-3.07617L35.9863 5.76172Q35.9863 12.6465 39.9902 16.4795Q43.9941 20.3125 51.0254 20.3125ZM42.5781-77.832Q41.4062-77.832 40.5762-78.6621Q39.7461-79.4922 39.7461-80.6641Q39.7461-81.8359 40.5762-82.6416Q41.4062-83.4473 42.5781-83.4473Q43.75-83.4473 44.5312-82.6416Q45.3125-81.8359 45.3125-80.6641Q45.3125-79.4922 44.5312-78.6621Q43.75-77.832 42.5781-77.832Z"/>
   <path class="multicolor-1:systemPurpleColor SFSymbolsPreviewAF52DE" d="M29.1504-11.2305Q27.3438-11.2305 26.2451-12.2559Q25.1465-13.2812 25.1953-15.0879L25.1953-56.6406Q25.1465-58.4473 26.2451-59.4727Q27.3438-60.498 29.1504-60.498L55.9082-60.498Q57.7637-60.498 58.8379-59.4727Q59.9121-58.4473 59.8633-56.6406L59.8633-15.0879Q59.9121-13.2812 58.8379-12.2559Q57.7637-11.2305 55.9082-11.2305Z"/>
   <path class="multicolor-2:white SFSymbolsPreviewFFFFFF" d="M42.5781-37.7441Q44.9219-37.7441 46.6309-39.3799Q48.3398-41.0156 48.3398-43.4082Q48.3398-44.7266 47.7783-46.0449Q47.2168-47.3633 46.582-48.5352L44.1406-53.0273Q43.4082-54.3457 42.6025-54.3457Q41.7969-54.3457 41.0156-53.0273L38.5254-48.5352Q37.8906-47.3633 37.3291-46.0449Q36.7676-44.7266 36.7676-43.4082Q36.7676-41.0156 38.501-39.3799Q40.2344-37.7441 42.5781-37.7441ZM34.4238-27.6367L50.6348-27.6367Q51.7578-27.6367 52.4902-28.3936Q53.2227-29.1504 53.2227-30.2734Q53.2227-31.3477 52.4902-32.0557Q51.7578-32.7637 50.6348-32.7637L34.4238-32.7637Q33.3008-32.7637 32.5928-32.0557Q31.8848-31.3477 31.8848-30.2734Q31.8848-29.1504 32.5928-28.3936Q33.3008-27.6367 34.4238-27.6367ZM37.5-18.1152L47.6074-18.1152Q48.7793-18.1152 49.4873-18.8232Q50.1953-19.5312 50.1953-20.5566Q50.1953-21.6309 49.4873-22.3877Q48.7793-23.1445 47.6074-23.1445L37.5-23.1445Q36.377-23.1445 35.6445-22.3877Q34.9121-21.6309 34.9121-20.5566Q34.9121-19.5312 35.6445-18.8232Q36.377-18.1152 37.5-18.1152Z"/>
  </g>
  <g id="Bold-S" transform="matrix(1 0 0 1 2298.64 696)">
   <path class="multicolor-0:tertiaryLabelColor SFSymbolsPreviewBDBDBD" d="M22.998 2.00195L59.7168 2.00195Q65.918 2.00195 69.4092-1.53809Q72.9004-5.07812 72.9004-11.3281L72.9004-66.7969Q72.9004-73.0469 69.4092-76.5625Q65.918-80.0781 59.7168-80.0781L51.123-80.0781L51.123-80.1758Q51.123-84.5703 48.4375-87.2559Q45.752-89.9414 41.3574-89.9414Q36.9629-89.9414 34.2529-87.2559Q31.543-84.5703 31.543-80.1758L31.543-80.0781L22.998-80.0781Q16.748-80.0781 13.2568-76.5625Q9.76562-73.0469 9.76562-66.7969L9.76562-11.3281Q9.76562-5.07812 13.2568-1.53809Q16.748 2.00195 22.998 2.00195ZM50 18.9941L68.1152 18.9941Q70.1172 18.9941 71.5088 17.6025Q72.9004 16.2109 72.9004 14.209Q72.9004 12.1582 71.5088 10.7666Q70.1172 9.375 68.1152 9.375L50.2441 9.375Q47.9004 9.375 46.6553 8.30078Q45.4102 7.22656 45.4102 4.93164L45.4102-3.95508L35.7422-3.95508L35.7422 5.17578Q35.7422 11.7188 39.5752 15.3564Q43.4082 18.9941 50 18.9941ZM41.3574-77.1973Q40.1855-77.1973 39.3311-78.0518Q38.4766-78.9062 38.4766-80.127Q38.4766-81.3477 39.3311-82.1777Q40.1855-83.0078 41.3574-83.0078Q42.5781-83.0078 43.4082-82.1777Q44.2383-81.3477 44.2383-80.127Q44.2383-78.9062 43.4082-78.0518Q42.5781-77.1973 41.3574-77.1973Z"/>
   <path class="multicolor-1:systemPurpleColor SFSymbolsPreviewAF52DE" d="M27.9785-11.5723Q26.123-11.5723 25.0244-12.6221Q23.9258-13.6719 23.9746-15.4785L23.9746-57.7148Q23.9258-59.5215 25.0244-60.5713Q26.123-61.6211 27.9785-61.6211L54.7363-61.6211Q56.5918-61.6211 57.6904-60.5713Q58.7891-59.5215 58.7402-57.7148L58.7402-15.4785Q58.7891-13.6719 57.6904-12.6221Q56.5918-11.5723 54.7363-11.5723Z"/>
   <path class="multicolor-2:white SFSymbolsPreviewFFFFFF" d="M41.3574-37.9883Q43.7988-37.9883 45.5566-39.6729Q47.3145-41.3574 47.3145-43.7988Q47.3145-45.2148 46.7529-46.5576Q46.1914-47.9004 45.5078-49.1211L42.8223-54.0527Q42.1387-55.3223 41.3818-55.2979Q40.625-55.2734 39.9414-54.0527L37.207-49.1211Q36.5723-47.9004 35.9619-46.5576Q35.3516-45.2148 35.3516-43.7988Q35.3516-41.3574 37.1582-39.6729Q38.9648-37.9883 41.3574-37.9883ZM33.3008-27.9785L49.4141-27.9785Q50.4395-27.9785 51.123-28.6865Q51.8066-29.3945 51.8066-30.4688Q51.8066-31.4453 51.123-32.1289Q50.4395-32.8125 49.4141-32.8125L33.3008-32.8125Q32.2266-32.8125 31.543-32.1289Q30.8594-31.4453 30.8594-30.4688Q30.8594-29.3945 31.543-28.6865Q32.2266-27.9785 33.3008-27.9785ZM36.377-18.7988L46.3379-18.7988Q47.4121-18.7988 48.0957-19.458Q48.7793-20.1172 48.7793-21.0938Q48.7793-22.1191 48.0957-22.8516Q47.4121-23.584 46.3379-23.584L36.377-23.584Q35.3516-23.584 34.668-22.8516Q33.9844-22.1191 33.9844-21.0938Q33.9844-20.1172 34.668-19.458Q35.3516-18.7988 36.377-18.7988Z"/>
  </g>
  <g id="Semibold-S" transform="matrix(1 0 0 1 2002.76 696)">
   <path class="multicolor-0:tertiaryLabelColor SFSymbolsPreviewBDBDBD" d="M22.2168 1.02539L58.7891 1.02539Q64.6484 1.02539 67.9443-2.31934Q71.2402-5.66406 71.2402-11.5723L71.2402-67.0898Q71.2402-73.0469 67.9443-76.3672Q64.6484-79.6875 58.7891-79.6875L49.8535-79.6875L49.8535-79.7852Q49.8535-83.9844 47.2656-86.5479Q44.6777-89.1113 40.5273-89.1113Q36.3281-89.1113 33.7402-86.5479Q31.1523-83.9844 31.1523-79.7852L31.1523-79.6875L22.2168-79.6875Q16.3086-79.6875 13.0371-76.3672Q9.76562-73.0469 9.76562-67.0898L9.76562-11.5723Q9.76562-5.66406 13.0371-2.31934Q16.3086 1.02539 22.2168 1.02539ZM49.2676 18.0664L67.041 18.0664Q68.7988 18.0664 70.0195 16.8457Q71.2402 15.625 71.2402 13.8672Q71.2402 12.1094 70.0195 10.8643Q68.7988 9.61914 67.041 9.61914L49.4141 9.61914Q46.7773 9.61914 45.3857 8.42285Q43.9941 7.22656 43.9941 4.63867L43.9941-4.54102L35.5469-4.54102L35.5469 4.78516Q35.5469 11.084 39.2578 14.5752Q42.9688 18.0664 49.2676 18.0664ZM40.5273-76.7578Q39.3066-76.7578 38.4521-77.6367Q37.5977-78.5156 37.5977-79.7363Q37.5977-80.957 38.4521-81.8359Q39.3066-82.7148 40.5273-82.7148Q41.748-82.7148 42.6025-81.8359Q43.457-80.957 43.457-79.7363Q43.457-78.5156 42.6025-77.6367Q41.748-76.7578 40.5273-76.7578Z"/>
   <path class="multicolor-1:systemPurpleColor SFSymbolsPreviewAF52DE" d="M27.1484-11.8164Q25.293-11.8164 24.1943-12.8662Q23.0957-13.916 23.0957-15.7227L23.0957-58.4473Q23.0957-60.2051 24.1943-61.2793Q25.293-62.3535 27.1484-62.3535L53.9062-62.3535Q55.7617-62.3535 56.8604-61.2793Q57.959-60.2051 57.959-58.4473L57.959-15.7227Q57.959-13.916 56.8604-12.8662Q55.7617-11.8164 53.9062-11.8164Z"/>
   <path class="multicolor-2:white SFSymbolsPreviewFFFFFF" d="M40.5273-38.1836Q43.0176-38.1836 44.7998-39.8926Q46.582-41.6016 46.582-44.0918Q46.582-45.5078 45.9961-46.875Q45.4102-48.2422 44.7266-49.5117L41.8945-54.7363Q41.2109-55.957 40.5029-55.9326Q39.7949-55.9082 39.1602-54.7852L36.2793-49.5117Q35.5957-48.2422 34.9854-46.875Q34.375-45.5078 34.375-44.0918Q34.375-41.6016 36.2061-39.8926Q38.0371-38.1836 40.5273-38.1836ZM32.5195-28.1738L48.5352-28.1738Q49.5117-28.1738 50.1709-28.8574Q50.8301-29.541 50.8301-30.5664Q50.8301-31.4941 50.1709-32.1533Q49.5117-32.8125 48.5352-32.8125L32.5195-32.8125Q31.4941-32.8125 30.835-32.1533Q30.1758-31.4941 30.1758-30.5664Q30.1758-29.541 30.835-28.8574Q31.4941-28.1738 32.5195-28.1738ZM35.5957-19.2383L45.4102-19.2383Q46.4355-19.2383 47.0947-19.873Q47.7539-20.5078 47.7539-21.4844Q47.7539-22.4609 47.0947-23.1445Q46.4355-23.8281 45.4102-23.8281L35.5957-23.8281Q34.6191-23.8281 33.96-23.1445Q33.3008-22.4609 33.3008-21.4844Q33.3008-20.5078 33.96-19.873Q34.6191-19.2383 35.5957-19.2383Z"/>
  </g>
  <g id="Medium-S" transform="matrix(1 0 0 1 1706.69 696)">
   <path class="multicolor-0:tertiaryLabelColor SFSymbolsPreviewBDBDBD" d="M21.6797 0.292969L58.1055 0.292969Q63.7207 0.292969 66.8457-2.90527Q69.9707-6.10352 69.9707-11.7676L69.9707-67.334Q69.9707-73.0469 66.8457-76.2451Q63.7207-79.4434 58.1055-79.4434L48.877-79.4434L48.877-79.541Q48.877-83.5938 46.3867-86.0352Q43.8965-88.4766 39.8926-88.4766Q35.8398-88.4766 33.374-86.0352Q30.9082-83.5938 30.9082-79.541L30.9082-79.4434L21.6797-79.4434Q16.0156-79.4434 12.8906-76.2451Q9.76562-73.0469 9.76562-67.334L9.76562-11.7676Q9.76562-6.10352 12.8906-2.90527Q16.0156 0.292969 21.6797 0.292969ZM48.7305 17.3828L66.2109 17.3828Q67.7734 17.3828 68.8721 16.2842Q69.9707 15.1855 69.9707 13.623Q69.9707 12.0117 68.8721 10.9131Q67.7734 9.81445 66.2109 9.81445L48.7793 9.81445Q45.8984 9.81445 44.4092 8.54492Q42.9199 7.27539 42.9199 4.39453L42.9199-4.98047L35.4004-4.98047L35.4004 4.49219Q35.4004 10.5957 39.0137 13.9893Q42.627 17.3828 48.7305 17.3828ZM39.8926-76.416Q38.623-76.416 37.7686-77.2949Q36.9141-78.1738 36.9141-79.4922Q36.9141-80.7129 37.7686-81.5918Q38.623-82.4707 39.8926-82.4707Q41.1133-82.4707 41.9922-81.5918Q42.8711-80.7129 42.8711-79.4922Q42.8711-78.1738 41.9922-77.2949Q41.1133-76.416 39.8926-76.416Z"/>
   <path class="multicolor-1:systemPurpleColor SFSymbolsPreviewAF52DE" d="M26.5137-11.9629Q24.6582-11.9629 23.5352-13.0371Q22.4121-14.1113 22.4121-15.918L22.4121-58.9844Q22.4121-60.7422 23.5352-61.8408Q24.6582-62.9395 26.5137-62.9395L53.3203-62.9395Q55.1758-62.9395 56.2744-61.8408Q57.373-60.7422 57.373-58.9844L57.373-15.918Q57.373-14.1113 56.2744-13.0371Q55.1758-11.9629 53.3203-11.9629Z"/>
   <path class="multicolor-2:white SFSymbolsPreviewFFFFFF" d="M39.8926-38.2812Q42.4316-38.2812 44.2383-40.0146Q46.0449-41.748 46.0449-44.2871Q46.0449-45.752 45.459-47.1436Q44.873-48.5352 44.1406-49.8047L41.2109-55.2734Q40.5762-56.4453 39.8682-56.4209Q39.1602-56.3965 38.5742-55.3223L35.5957-49.8047Q34.9121-48.5352 34.2773-47.1436Q33.6426-45.752 33.6426-44.2871Q33.6426-41.748 35.5225-40.0146Q37.4023-38.2812 39.8926-38.2812ZM31.9336-28.3203L47.8516-28.3203Q48.8281-28.3203 49.4629-29.0039Q50.0977-29.6875 50.0977-30.6641Q50.0977-31.5918 49.4629-32.2021Q48.8281-32.8125 47.8516-32.8125L31.9336-32.8125Q30.9082-32.8125 30.2734-32.2021Q29.6387-31.5918 29.6387-30.6641Q29.6387-29.6875 30.2734-29.0039Q30.9082-28.3203 31.9336-28.3203ZM35.0098-19.5801L44.7266-19.5801Q45.7031-19.5801 46.3623-20.2148Q47.0215-20.8496 47.0215-21.7285Q47.0215-22.7051 46.3623-23.3643Q45.7031-24.0234 44.7266-24.0234L35.0098-24.0234Q34.082-24.0234 33.4229-23.3643Q32.7637-22.7051 32.7637-21.7285Q32.7637-20.8496 33.4229-20.2148Q34.082-19.5801 35.0098-19.5801Z"/>
  </g>
  <g id="Regular-S" transform="matrix(1 0 0 1 1410.78 696)">
   <path class="multicolor-0:tertiaryLabelColor SFSymbolsPreviewBDBDBD" d="M20.9473-0.634766L57.1777-0.634766Q62.4512-0.634766 65.4053-3.66211Q68.3594-6.68945 68.3594-12.0117L68.3594-67.6758Q68.3594-73.0469 65.4053-76.0498Q62.4512-79.0527 57.1777-79.0527L47.6074-79.0527L47.6074-79.1504Q47.6074-83.0078 45.2393-85.3516Q42.8711-87.6953 39.0625-87.6953Q35.2539-87.6953 32.8857-85.3516Q30.5176-83.0078 30.5176-79.1504L30.5176-79.0527L20.9473-79.0527Q15.625-79.0527 12.6953-76.0498Q9.76562-73.0469 9.76562-67.6758L9.76562-12.0117Q9.76562-6.68945 12.6953-3.66211Q15.625-0.634766 20.9473-0.634766ZM47.998 16.4551L65.1855 16.4551Q66.5039 16.4551 67.4316 15.5273Q68.3594 14.5996 68.3594 13.2812Q68.3594 11.9629 67.4316 11.0352Q66.5039 10.1074 65.1855 10.1074L47.998 10.1074Q44.8242 10.1074 43.1885 8.71582Q41.5527 7.32422 41.5527 4.10156L41.5527-5.56641L35.2051-5.56641L35.2051 4.10156Q35.2051 9.96094 38.6963 13.208Q42.1875 16.4551 47.998 16.4551ZM39.0625-75.9766Q37.793-75.9766 36.9141-76.8799Q36.0352-77.7832 36.0352-79.1016Q36.0352-80.3711 36.9141-81.2744Q37.793-82.1777 39.0625-82.1777Q40.332-82.1777 41.2109-81.2744Q42.0898-80.3711 42.0898-79.1016Q42.0898-77.7832 41.2109-76.8799Q40.332-75.9766 39.0625-75.9766Z"/>
   <path class="multicolor-1:systemPurpleColor SFSymbolsPreviewAF52DE" d="M25.6836-12.207Q23.8281-12.207 22.7051-13.2812Q21.582-14.3555 21.582-16.1621L21.582-59.7168Q21.582-61.4746 22.7051-62.5732Q23.8281-63.6719 25.6836-63.6719L52.4902-63.6719Q54.3457-63.6719 55.4688-62.5732Q56.5918-61.4746 56.5918-59.7168L56.5918-16.1621Q56.5918-14.3555 55.4688-13.2812Q54.3457-12.207 52.4902-12.207Z"/>
   <path class="multicolor-2:white SFSymbolsPreviewFFFFFF" d="M39.0625-38.4766Q41.6504-38.4766 43.5059-40.2344Q45.3613-41.9922 45.3613-44.5801Q45.3613-46.0449 44.751-47.4609Q44.1406-48.877 43.4082-50.1953L40.2832-55.957Q39.6973-57.0801 39.0381-57.0557Q38.3789-57.0312 37.8418-56.0059L34.668-50.1953Q33.9844-48.877 33.3496-47.4609Q32.7148-46.0449 32.7148-44.5801Q32.7148-41.9922 34.6191-40.2344Q36.5234-38.4766 39.0625-38.4766ZM31.1523-28.5156L47.0215-28.5156Q47.9492-28.5156 48.5596-29.1748Q49.1699-29.834 49.1699-30.7617Q49.1699-31.6406 48.5596-32.2266Q47.9492-32.8125 47.0215-32.8125L31.1523-32.8125Q30.1758-32.8125 29.5654-32.2266Q28.9551-31.6406 28.9551-30.7617Q28.9551-29.834 29.5654-29.1748Q30.1758-28.5156 31.1523-28.5156ZM34.2773-20.0195L43.8477-20.0195Q44.7754-20.0195 45.4102-20.6299Q46.0449-21.2402 46.0449-22.1191Q46.0449-23.0469 45.4102-23.6816Q44.7754-24.3164 43.8477-24.3164L34.2773-24.3164Q33.3496-24.3164 32.7393-23.6816Q32.1289-23.0469 32.1289-22.1191Q32.1289-21.2402 32.7393-20.6299Q33.3496-20.0195 34.2773-20.0195Z"/>
  </g>
  <g id="Light-S" transform="matrix(1 0 0 1 1115.78 696)">
   <path class="multicolor-0:tertiaryLabelColor SFSymbolsPreviewBDBDBD" d="M19.8242-2.92969L54.8828-2.92969Q59.668-2.92969 62.3047-5.63965Q64.9414-8.34961 64.9414-13.2324L64.9414-66.9922Q64.9414-71.9238 62.3047-74.585Q59.668-77.2461 54.8828-77.2461L44.2871-77.2461L44.2871-77.6367Q44.2871-80.7617 42.334-82.666Q40.3809-84.5703 37.3535-84.5703Q34.2773-84.5703 32.3486-82.666Q30.4199-80.7617 30.4199-77.6367L30.4199-77.2461L19.8242-77.2461Q14.9902-77.2461 12.3779-74.585Q9.76562-71.9238 9.76562-66.9922L9.76562-13.2324Q9.76562-8.34961 12.3779-5.63965Q14.9902-2.92969 19.8242-2.92969ZM46.1914 13.6719L62.4512 13.6719Q63.4766 13.6719 64.209 12.9395Q64.9414 12.207 64.9414 11.1816Q64.9414 10.1562 64.209 9.42383Q63.4766 8.69141 62.4512 8.69141L46.1914 8.69141Q42.8223 8.69141 41.0889 7.15332Q39.3555 5.61523 39.3555 2.29492L39.3555-6.5918L34.4238-6.5918L34.4238 2.29492Q34.4238 7.66602 37.5977 10.6689Q40.7715 13.6719 46.1914 13.6719ZM37.3535-75Q36.2793-75 35.5225-75.7568Q34.7656-76.5137 34.7656-77.6367Q34.7656-78.6621 35.5225-79.4189Q36.2793-80.1758 37.3535-80.1758Q38.4277-80.1758 39.1602-79.4189Q39.8926-78.6621 39.8926-77.6367Q39.8926-76.5137 39.1602-75.7568Q38.4277-75 37.3535-75Z"/>
   <path class="multicolor-1:systemPurpleColor SFSymbolsPreviewAF52DE" d="M24.4141-13.5254Q22.6562-13.5254 21.582-14.5508Q20.5078-15.5762 20.5078-17.334L20.5078-59.082Q20.5078-60.7422 21.582-61.8164Q22.6562-62.8906 24.4141-62.8906L50.293-62.8906Q52.0996-62.8906 53.1738-61.8164Q54.248-60.7422 54.248-59.082L54.248-17.334Q54.248-15.5762 53.1738-14.5508Q52.0996-13.5254 50.293-13.5254Z"/>
   <path class="multicolor-2:white SFSymbolsPreviewFFFFFF" d="M37.3535-38.1348Q39.8926-38.1348 41.6992-39.8682Q43.5059-41.6016 43.5059-44.0918Q43.5059-45.5566 42.8955-46.9238Q42.2852-48.291 41.6016-49.6094L38.3789-55.5176Q37.8906-56.4453 37.3291-56.4209Q36.7676-56.3965 36.3281-55.5664L33.0566-49.6094Q32.373-48.291 31.7627-46.9238Q31.1523-45.5566 31.1523-44.0918Q31.1523-41.6016 33.0078-39.8682Q34.8633-38.1348 37.3535-38.1348ZM29.541-29.1016L45.4102-29.1016Q46.1426-29.1016 46.6553-29.6387Q47.168-30.1758 47.168-30.957Q47.168-31.6895 46.6553-32.1777Q46.1426-32.666 45.4102-32.666L29.541-32.666Q28.7109-32.666 28.1982-32.1777Q27.6855-31.6895 27.6855-30.957Q27.6855-30.1758 28.1982-29.6387Q28.7109-29.1016 29.541-29.1016ZM32.4219-21.1426L42.2852-21.1426Q43.0664-21.1426 43.6035-21.6553Q44.1406-22.168 44.1406-22.8516Q44.1406-23.6328 43.6035-24.1699Q43.0664-24.707 42.2852-24.707L32.4219-24.707Q31.6406-24.707 31.1279-24.1699Q30.6152-23.6328 30.6152-22.8516Q30.6152-22.168 31.1279-21.6553Q31.6406-21.1426 32.4219-21.1426Z"/>
  </g>
  <g id="Thin-S" transform="matrix(1 0 0 1 821.339 696)">
   <path class="multicolor-0:tertiaryLabelColor SFSymbolsPreviewBDBDBD" d="M18.3594-6.00586L51.8066-6.00586Q55.957-6.00586 58.1787-8.27637Q60.4004-10.5469 60.4004-14.8438L60.4004-66.1133Q60.4004-70.4102 58.1787-72.6562Q55.957-74.9023 51.8066-74.9023L39.8926-74.9023L39.8926-75.6836Q39.8926-77.7344 38.5254-79.1016Q37.1582-80.4688 35.1074-80.4688Q33.0078-80.4688 31.6162-79.1016Q30.2246-77.7344 30.2246-75.6836L30.2246-74.9023L18.3594-74.9023Q14.1602-74.9023 11.9629-72.6562Q9.76562-70.4102 9.76562-66.1133L9.76562-14.8438Q9.76562-10.5469 11.9629-8.27637Q14.1602-6.00586 18.3594-6.00586ZM43.7988 9.96094L58.8379 9.96094Q59.4727 9.96094 59.9365 9.49707Q60.4004 9.0332 60.4004 8.39844Q60.4004 7.76367 59.9365 7.2998Q59.4727 6.83594 58.8379 6.83594L43.7988 6.83594Q40.1855 6.83594 38.3301 5.10254Q36.4746 3.36914 36.4746-0.0976562L36.4746-7.95898L33.3496-7.95898L33.3496-0.0976562Q33.3496 4.63867 36.1084 7.2998Q38.8672 9.96094 43.7988 9.96094ZM35.1074-73.6816Q34.2285-73.6816 33.667-74.2676Q33.1055-74.8535 33.1055-75.6348Q33.1055-76.416 33.667-77.002Q34.2285-77.5879 35.1074-77.5879Q35.8887-77.5879 36.4502-77.002Q37.0117-76.416 37.0117-75.6348Q37.0117-74.8535 36.4502-74.2676Q35.8887-73.6816 35.1074-73.6816Z"/>
   <path class="multicolor-1:systemPurpleColor SFSymbolsPreviewAF52DE" d="M22.7539-15.2832Q21.1426-15.2832 20.1172-16.2598Q19.0918-17.2363 19.0918-18.8477L19.0918-58.252Q19.0918-59.8145 20.1172-60.8154Q21.1426-61.8164 22.7539-61.8164L47.4121-61.8164Q49.0723-61.8164 50.0977-60.8154Q51.123-59.8145 51.123-58.252L51.123-18.8477Q51.123-17.2363 50.0977-16.2598Q49.0723-15.2832 47.4121-15.2832Z"/>
   <path class="multicolor-2:white SFSymbolsPreviewFFFFFF" d="M35.1074-37.6953Q37.5488-37.6953 39.2822-39.3799Q41.0156-41.0645 41.0156-43.5059Q41.0156-44.9219 40.4541-46.2402Q39.8926-47.5586 39.209-48.7793L35.8398-54.9805Q35.498-55.5664 35.0586-55.5664Q34.6191-55.5664 34.3262-55.0293L30.957-48.7793Q30.2734-47.5586 29.6875-46.2402Q29.1016-44.9219 29.1016-43.5059Q29.1016-41.0645 30.8838-39.3799Q32.666-37.6953 35.1074-37.6953ZM27.3438-29.8828L43.2617-29.8828Q43.7988-29.8828 44.1895-30.2734Q44.5801-30.6641 44.5801-31.2012Q44.5801-31.6895 44.1895-32.0801Q43.7988-32.4707 43.2617-32.4707L27.3438-32.4707Q26.7578-32.4707 26.3916-32.0801Q26.0254-31.6895 26.0254-31.2012Q26.0254-30.6641 26.3916-30.2734Q26.7578-29.8828 27.3438-29.8828ZM29.9316-22.6074L40.2832-22.6074Q40.8203-22.6074 41.2109-22.9736Q41.6016-23.3398 41.6016-23.877Q41.6016-24.4141 41.2109-24.8047Q40.8203-25.1953 40.2832-25.1953L29.9316-25.1953Q29.3945-25.1953 29.0283-24.8047Q28.6621-24.4141 28.6621-23.877Q28.6621-23.3398 29.0283-22.9736Q29.3945-22.6074 29.9316-22.6074Z"/>
  </g>
  <g id="Ultralight-S" transform="matrix(1 0 0 1 525.8 696)">
   <path class="multicolor-0:tertiaryLabelColor SFSymbolsPreviewBDBDBD" d="M17.5781-7.56836L50.2441-7.56836Q54.0527-7.56836 56.0547-9.61914Q58.0566-11.6699 58.0566-15.625L58.0566-65.6738Q58.0566-69.6289 56.0547-71.6553Q54.0527-73.6816 50.2441-73.6816L37.5977-73.6816L37.5977-74.6582Q37.5977-76.2207 36.5234-77.2949Q35.4492-78.3691 33.9355-78.3691Q32.3242-78.3691 31.25-77.2949Q30.1758-76.2207 30.1758-74.6582L30.1758-73.6816L17.5781-73.6816Q13.7695-73.6816 11.7676-71.6553Q9.76562-69.6289 9.76562-65.6738L9.76562-15.625Q9.76562-11.6699 11.7676-9.61914Q13.7695-7.56836 17.5781-7.56836ZM42.5293 8.05664L56.9824 8.05664Q57.4219 8.05664 57.7393 7.73926Q58.0566 7.42188 58.0566 6.98242Q58.0566 6.49414 57.7393 6.20117Q57.4219 5.9082 56.9824 5.9082L42.5293 5.9082Q38.8184 5.9082 36.9141 4.07715Q35.0098 2.24609 35.0098-1.36719L35.0098-8.64258L32.8125-8.64258L32.8125-1.36719Q32.8125 3.125 35.376 5.59082Q37.9395 8.05664 42.5293 8.05664ZM33.9355-73.0469Q33.2031-73.0469 32.7393-73.5107Q32.2754-73.9746 32.2754-74.6582Q32.2754-75.293 32.7393-75.7568Q33.2031-76.2207 33.9355-76.2207Q34.5703-76.2207 35.0342-75.7568Q35.498-75.293 35.498-74.6582Q35.498-73.9746 35.0342-73.5107Q34.5703-73.0469 33.9355-73.0469Z"/>
   <path class="multicolor-1:systemPurpleColor SFSymbolsPreviewAF52DE" d="M21.9238-16.2109Q20.3125-16.2109 19.3359-17.1387Q18.3594-18.0664 18.3594-19.6777L18.3594-57.8125Q18.3594-59.3262 19.3359-60.3027Q20.3125-61.2793 21.9238-61.2793L45.9473-61.2793Q47.5586-61.2793 48.5352-60.3027Q49.5117-59.3262 49.5117-57.8125L49.5117-19.6777Q49.5117-18.0664 48.5352-17.1387Q47.5586-16.2109 45.9473-16.2109Z"/>
   <path class="multicolor-2:white SFSymbolsPreviewFFFFFF" d="M33.9355-37.5Q36.3281-37.5 38.0615-39.1357Q39.7949-40.7715 39.7949-43.1641Q39.7949-44.5801 39.209-45.874Q38.623-47.168 37.9395-48.3887L34.5215-54.6875Q34.2773-55.127 33.8867-55.1514Q33.4961-55.1758 33.3008-54.7363L29.834-48.3887Q29.1504-47.168 28.5889-45.874Q28.0273-44.5801 28.0273-43.1641Q28.0273-40.7715 29.7852-39.1357Q31.543-37.5 33.9355-37.5ZM26.2695-30.2734L42.1387-30.2734Q42.5781-30.2734 42.8955-30.5664Q43.2129-30.8594 43.2129-31.2988Q43.2129-31.7383 42.8955-32.0557Q42.5781-32.373 42.1387-32.373L26.2695-32.373Q25.7812-32.373 25.4639-32.0557Q25.1465-31.7383 25.1465-31.2988Q25.1465-30.8594 25.4639-30.5664Q25.7812-30.2734 26.2695-30.2734ZM28.7109-23.3887L39.209-23.3887Q39.6973-23.3887 39.9902-23.6816Q40.2832-23.9746 40.2832-24.3652Q40.2832-24.8047 39.9902-25.1221Q39.6973-25.4395 39.209-25.4395L28.7109-25.4395Q28.2715-25.4395 27.9541-25.1221Q27.6367-24.8047 27.6367-24.3652Q27.6367-23.9746 27.9541-23.6816Q28.2715-23.3887 28.7109-23.3887Z"/>
  </g>
 </g>
</svg>
