<?xml version="1.0" encoding="UTF-8"?>
<!--Generator: Apple Native CoreSVG 175-->
<!DOCTYPE svg
PUBLIC "-//W3C//DTD SVG 1.1//EN"
       "http://www.w3.org/Graphics/SVG/1.1/DTD/svg11.dtd">
<svg version="1.1" xmlns="http://www.w3.org/2000/svg" xmlns:xlink="http://www.w3.org/1999/xlink" width="3300" height="2200">
 <!--glyph: "uni100363.medium", point size: 100.0, font version: "17.0d11e1", template writer version: "65.1"-->
 <g id="Notes">
  <rect height="2200" id="artboard" style="fill:white;opacity:1" width="3300" x="0" y="0"/>
  <line style="fill:none;stroke:black;opacity:1;stroke-width:0.5;" x1="263" x2="3036" y1="292" y2="292"/>
  <text style="stroke:none;fill:black;font-family:sans-serif;font-size:13;font-weight:bold;" transform="matrix(1 0 0 1 263 322)">Weight/Scale Variations</text>
  <text style="stroke:none;fill:black;font-family:sans-serif;font-size:13;text-anchor:middle;" transform="matrix(1 0 0 1 559.711 322)">Ultralight</text>
  <text style="stroke:none;fill:black;font-family:sans-serif;font-size:13;text-anchor:middle;" transform="matrix(1 0 0 1 856.422 322)">Thin</text>
  <text style="stroke:none;fill:black;font-family:sans-serif;font-size:13;text-anchor:middle;" transform="matrix(1 0 0 1 1153.13 322)">Light</text>
  <text style="stroke:none;fill:black;font-family:sans-serif;font-size:13;text-anchor:middle;" transform="matrix(1 0 0 1 1449.84 322)">Regular</text>
  <text style="stroke:none;fill:black;font-family:sans-serif;font-size:13;text-anchor:middle;" transform="matrix(1 0 0 1 1746.56 322)">Medium</text>
  <text style="stroke:none;fill:black;font-family:sans-serif;font-size:13;text-anchor:middle;" transform="matrix(1 0 0 1 2043.27 322)">Semibold</text>
  <text style="stroke:none;fill:black;font-family:sans-serif;font-size:13;text-anchor:middle;" transform="matrix(1 0 0 1 2339.98 322)">Bold</text>
  <text style="stroke:none;fill:black;font-family:sans-serif;font-size:13;text-anchor:middle;" transform="matrix(1 0 0 1 2636.69 322)">Heavy</text>
  <text style="stroke:none;fill:black;font-family:sans-serif;font-size:13;text-anchor:middle;" transform="matrix(1 0 0 1 2933.4 322)">Black</text>
  <line style="fill:none;stroke:black;opacity:1;stroke-width:0.5;" x1="263" x2="3036" y1="1903" y2="1903"/>
  <g transform="matrix(1 0 0 1 263 1933)">
   <path d="M9.24805 0.830078Q10.8691 0.830078 12.2949 0.214844Q13.7207-0.400391 14.8096-1.49414Q15.8984-2.58789 16.5186-4.01367Q17.1387-5.43945 17.1387-7.05078Q17.1387-8.66211 16.5186-10.0879Q15.8984-11.5137 14.8047-12.6074Q13.7109-13.7012 12.2852-14.3164Q10.8594-14.9316 9.23828-14.9316Q7.62695-14.9316 6.20117-14.3164Q4.77539-13.7012 3.69141-12.6074Q2.60742-11.5137 1.9873-10.0879Q1.36719-8.66211 1.36719-7.05078Q1.36719-5.43945 1.9873-4.01367Q2.60742-2.58789 3.69629-1.49414Q4.78516-0.400391 6.21094 0.214844Q7.63672 0.830078 9.24805 0.830078ZM9.24805-0.654297Q7.91992-0.654297 6.7627-1.14746Q5.60547-1.64062 4.73145-2.51953Q3.85742-3.39844 3.36426-4.56055Q2.87109-5.72266 2.87109-7.05078Q2.87109-8.37891 3.35938-9.54102Q3.84766-10.7031 4.72168-11.582Q5.5957-12.4609 6.75293-12.9541Q7.91016-13.4473 9.23828-13.4473Q10.5762-13.4473 11.7334-12.9541Q12.8906-12.4609 13.7695-11.582Q14.6484-10.7031 15.1465-9.54102Q15.6445-8.37891 15.6445-7.05078Q15.6445-5.72266 15.1514-4.56055Q14.6582-3.39844 13.7842-2.51953Q12.9102-1.64062 11.748-1.14746Q10.5859-0.654297 9.24805-0.654297ZM5.6543-7.05078Q5.6543-6.72852 5.85938-6.52832Q6.06445-6.32812 6.40625-6.32812L8.51562-6.32812L8.51562-4.20898Q8.51562-3.88672 8.71094-3.67676Q8.90625-3.4668 9.23828-3.4668Q9.56055-3.4668 9.77051-3.67676Q9.98047-3.88672 9.98047-4.20898L9.98047-6.32812L12.0898-6.32812Q12.4219-6.32812 12.627-6.52832Q12.832-6.72852 12.832-7.05078Q12.832-7.38281 12.627-7.58789Q12.4219-7.79297 12.0898-7.79297L9.98047-7.79297L9.98047-9.90234Q9.98047-10.2344 9.77051-10.4443Q9.56055-10.6543 9.23828-10.6543Q8.90625-10.6543 8.71094-10.4443Q8.51562-10.2344 8.51562-9.90234L8.51562-7.79297L6.40625-7.79297Q6.06445-7.79297 5.85938-7.58789Q5.6543-7.38281 5.6543-7.05078Z"/>
  </g>
  <g transform="matrix(1 0 0 1 281.867 1933)">
   <path d="M11.709 2.91016Q13.75 2.91016 15.5518 2.12891Q17.3535 1.34766 18.7305-0.0292969Q20.1074-1.40625 20.8887-3.20801Q21.6699-5.00977 21.6699-7.05078Q21.6699-9.0918 20.8887-10.8936Q20.1074-12.6953 18.7305-14.0723Q17.3535-15.4492 15.5469-16.2305Q13.7402-17.0117 11.6992-17.0117Q9.6582-17.0117 7.85645-16.2305Q6.05469-15.4492 4.68262-14.0723Q3.31055-12.6953 2.5293-10.8936Q1.74805-9.0918 1.74805-7.05078Q1.74805-5.00977 2.5293-3.20801Q3.31055-1.40625 4.6875-0.0292969Q6.06445 1.34766 7.86621 2.12891Q9.66797 2.91016 11.709 2.91016ZM11.709 1.25Q9.98047 1.25 8.47656 0.605469Q6.97266-0.0390625 5.83496-1.17676Q4.69727-2.31445 4.05762-3.81836Q3.41797-5.32227 3.41797-7.05078Q3.41797-8.7793 4.05762-10.2832Q4.69727-11.7871 5.83008-12.9297Q6.96289-14.0723 8.4668-14.7119Q9.9707-15.3516 11.6992-15.3516Q13.4277-15.3516 14.9316-14.7119Q16.4355-14.0723 17.5781-12.9297Q18.7207-11.7871 19.3652-10.2832Q20.0098-8.7793 20.0098-7.05078Q20.0098-5.32227 19.3701-3.81836Q18.7305-2.31445 17.5928-1.17676Q16.4551-0.0390625 14.9463 0.605469Q13.4375 1.25 11.709 1.25ZM7.17773-7.05078Q7.17773-6.69922 7.41211-6.47461Q7.64648-6.25 8.01758-6.25L10.8887-6.25L10.8887-3.36914Q10.8887-2.99805 11.1133-2.76855Q11.3379-2.53906 11.6895-2.53906Q12.0605-2.53906 12.29-2.76855Q12.5195-2.99805 12.5195-3.36914L12.5195-6.25L15.4004-6.25Q15.7715-6.25 16.001-6.47461Q16.2305-6.69922 16.2305-7.05078Q16.2305-7.42188 16.001-7.65137Q15.7715-7.88086 15.4004-7.88086L12.5195-7.88086L12.5195-10.752Q12.5195-11.1328 12.29-11.3623Q12.0605-11.5918 11.6895-11.5918Q11.3379-11.5918 11.1133-11.3574Q10.8887-11.123 10.8887-10.752L10.8887-7.88086L8.01758-7.88086Q7.63672-7.88086 7.40723-7.65137Q7.17773-7.42188 7.17773-7.05078Z"/>
  </g>
  <g transform="matrix(1 0 0 1 305.646 1933)">
   <path d="M14.9707 5.66406Q17.0605 5.66406 18.96 5.01465Q20.8594 4.36523 22.4512 3.19336Q24.043 2.02148 25.2197 0.429688Q26.3965-1.16211 27.0459-3.06641Q27.6953-4.9707 27.6953-7.05078Q27.6953-9.14062 27.0459-11.04Q26.3965-12.9395 25.2197-14.5312Q24.043-16.123 22.4512-17.2998Q20.8594-18.4766 18.9551-19.126Q17.0508-19.7754 14.9609-19.7754Q12.8711-19.7754 10.9717-19.126Q9.07227-18.4766 7.48535-17.2998Q5.89844-16.123 4.72168-14.5312Q3.54492-12.9395 2.90039-11.04Q2.25586-9.14062 2.25586-7.05078Q2.25586-4.9707 2.90527-3.06641Q3.55469-1.16211 4.72656 0.429688Q5.89844 2.02148 7.49023 3.19336Q9.08203 4.36523 10.9814 5.01465Q12.8809 5.66406 14.9707 5.66406ZM14.9707 3.84766Q13.1641 3.84766 11.5283 3.2959Q9.89258 2.74414 8.53516 1.74805Q7.17773 0.751953 6.17676-0.610352Q5.17578-1.97266 4.62891-3.6084Q4.08203-5.24414 4.08203-7.05078Q4.08203-8.86719 4.62891-10.5029Q5.17578-12.1387 6.17188-13.501Q7.16797-14.8633 8.52539-15.8594Q9.88281-16.8555 11.5186-17.4023Q13.1543-17.9492 14.9609-17.9492Q16.7773-17.9492 18.4131-17.4023Q20.0488-16.8555 21.4111-15.8594Q22.7734-14.8633 23.7695-13.501Q24.7656-12.1387 25.3174-10.5029Q25.8691-8.86719 25.8691-7.05078Q25.8789-5.24414 25.332-3.6084Q24.7852-1.97266 23.7842-0.610352Q22.7832 0.751953 21.4209 1.74805Q20.0586 2.74414 18.4229 3.2959Q16.7871 3.84766 14.9707 3.84766ZM9.19922-7.05078Q9.19922-6.66992 9.45801-6.4209Q9.7168-6.17188 10.1172-6.17188L14.0625-6.17188L14.0625-2.2168Q14.0625-1.81641 14.3115-1.55762Q14.5605-1.29883 14.9512-1.29883Q15.3516-1.29883 15.6104-1.55273Q15.8691-1.80664 15.8691-2.2168L15.8691-6.17188L19.8242-6.17188Q20.2246-6.17188 20.4785-6.4209Q20.7324-6.66992 20.7324-7.05078Q20.7324-7.46094 20.4785-7.71484Q20.2246-7.96875 19.8242-7.96875L15.8691-7.96875L15.8691-11.9141Q15.8691-12.3242 15.6104-12.583Q15.3516-12.8418 14.9512-12.8418Q14.5605-12.8418 14.3115-12.583Q14.0625-12.3242 14.0625-11.9141L14.0625-7.96875L10.1172-7.96875Q9.70703-7.96875 9.45312-7.71484Q9.19922-7.46094 9.19922-7.05078Z"/>
  </g>
  <text style="stroke:none;fill:black;font-family:sans-serif;font-size:13;font-weight:bold;" transform="matrix(1 0 0 1 263 1953)">Design Variations</text>
  <text style="stroke:none;fill:black;font-family:sans-serif;font-size:13;" transform="matrix(1 0 0 1 263 1971)">Symbols are supported in up to nine weights and three scales.</text>
  <text style="stroke:none;fill:black;font-family:sans-serif;font-size:13;" transform="matrix(1 0 0 1 263 1989)">For optimal layout with text and other symbols, vertically align</text>
  <text style="stroke:none;fill:black;font-family:sans-serif;font-size:13;" transform="matrix(1 0 0 1 263 2007)">symbols with the adjacent text.</text>
  <line style="fill:none;stroke:#00AEEF;stroke-width:0.5;opacity:1.0;" x1="776" x2="776" y1="1919" y2="1933"/>
  <g transform="matrix(1 0 0 1 776 1933)">
   <path d="M3.31055 0.15625Q3.70117 0.15625 3.91602-0.00976562Q4.13086-0.175781 4.26758-0.585938L5.52734-4.0332L11.2891-4.0332L12.5488-0.585938Q12.6855-0.175781 12.9004-0.00976562Q13.1152 0.15625 13.4961 0.15625Q13.8867 0.15625 14.1162-0.0585938Q14.3457-0.273438 14.3457-0.644531Q14.3457-0.869141 14.2383-1.17188L9.6582-13.3691Q9.48242-13.8184 9.17969-14.043Q8.87695-14.2676 8.4082-14.2676Q7.5-14.2676 7.17773-13.3789L2.59766-1.16211Q2.49023-0.859375 2.49023-0.634766Q2.49023-0.263672 2.70996-0.0537109Q2.92969 0.15625 3.31055 0.15625ZM6.00586-5.51758L8.37891-12.0898L8.42773-12.0898L10.8008-5.51758Z"/>
  </g>
  <line style="fill:none;stroke:#00AEEF;stroke-width:0.5;opacity:1.0;" x1="793.197" x2="793.197" y1="1919" y2="1933"/>
  <text style="stroke:none;fill:black;font-family:sans-serif;font-size:13;font-weight:bold;" transform="matrix(1 0 0 1 776 1953)">Margins</text>
  <text style="stroke:none;fill:black;font-family:sans-serif;font-size:13;" transform="matrix(1 0 0 1 776 1971)">Leading and trailing margins on the left and right side of each symbol</text>
  <text style="stroke:none;fill:black;font-family:sans-serif;font-size:13;" transform="matrix(1 0 0 1 776 1989)">can be adjusted by modifying the x-location of the margin guidelines.</text>
  <text style="stroke:none;fill:black;font-family:sans-serif;font-size:13;" transform="matrix(1 0 0 1 776 2007)">Modifications are automatically applied proportionally to all</text>
  <text style="stroke:none;fill:black;font-family:sans-serif;font-size:13;" transform="matrix(1 0 0 1 776 2025)">scales and weights.</text>
  <g transform="matrix(1 0 0 1 1289 1933)">
   <path d="M2.8418 1.86523L4.54102 3.57422Q5.18555 4.22852 5.90332 4.17969Q6.62109 4.13086 7.31445 3.35938L18.0078-8.42773L17.041-9.4043L6.42578 2.27539Q6.16211 2.57812 5.89355 2.61719Q5.625 2.65625 5.27344 2.30469L4.10156 1.14258Q3.75 0.791016 3.79395 0.522461Q3.83789 0.253906 4.14062-0.0195312L15.6152-10.8203L14.6387-11.7871L3.04688-0.898438Q2.30469-0.214844 2.25098 0.498047Q2.19727 1.21094 2.8418 1.86523ZM9.25781-16.3281Q8.94531-16.0254 8.90625-15.6348Q8.86719-15.2441 9.04297-14.9512Q9.21875-14.6777 9.55566-14.541Q9.89258-14.4043 10.3809-14.5215Q11.4746-14.7754 12.5977-14.7314Q13.7207-14.6875 14.7949-13.9844L14.209-12.5293Q13.9551-11.9043 14.0674-11.4404Q14.1797-10.9766 14.5801-10.5664L16.875-8.25195Q17.2363-7.88086 17.5781-7.82227Q17.9199-7.76367 18.3398-7.8418L19.4043-8.03711L20.0684-7.36328L20.0293-6.80664Q20-6.43555 20.1221-6.12305Q20.2441-5.81055 20.6055-5.44922L21.3672-4.70703Q21.7285-4.3457 22.1533-4.33105Q22.5781-4.31641 22.9297-4.66797L25.8398-7.58789Q26.1914-7.93945 26.1816-8.35449Q26.1719-8.76953 25.8105-9.13086L25.0391-9.89258Q24.6875-10.2539 24.3799-10.3857Q24.0723-10.5176 23.7109-10.4883L23.1348-10.4395L22.4902-11.0742L22.7344-12.1973Q22.832-12.6172 22.6953-12.9834Q22.5586-13.3496 22.1191-13.7891L19.9219-15.9766Q18.6719-17.2168 17.2607-17.8369Q15.8496-18.457 14.4189-18.4814Q12.9883-18.5059 11.665-17.959Q10.3418-17.4121 9.25781-16.3281ZM10.752-15.957Q11.6602-16.6211 12.7002-16.9043Q13.7402-17.1875 14.8047-17.085Q15.8691-16.9824 16.8701-16.5137Q17.8711-16.0449 18.7012-15.2051L21.1328-12.793Q21.3086-12.6172 21.3525-12.4512Q21.3965-12.2852 21.3379-12.0312L21.0156-10.5469L22.5195-9.0625L23.5059-9.12109Q23.6914-9.13086 23.7891-9.09668Q23.8867-9.0625 24.0332-8.91602L24.6094-8.33984L22.168-5.89844L21.5918-6.47461Q21.4453-6.62109 21.4062-6.71875Q21.3672-6.81641 21.377-7.01172L21.4453-7.98828L19.9512-9.47266L18.4277-9.21875Q18.1836-9.16992 18.042-9.2041Q17.9004-9.23828 17.7148-9.41406L15.7129-11.416Q15.5176-11.5918 15.4932-11.7529Q15.4688-11.9141 15.5859-12.1875L16.4648-14.2773Q15.293-15.3711 13.8281-15.791Q12.3633-16.2109 10.8398-15.7617Q10.7227-15.7324 10.6885-15.8057Q10.6543-15.8789 10.752-15.957Z"/>
  </g>
  <text style="stroke:none;fill:black;font-family:sans-serif;font-size:13;font-weight:bold;" transform="matrix(1 0 0 1 1289 1953)">Exporting</text>
  <text style="stroke:none;fill:black;font-family:sans-serif;font-size:13;" transform="matrix(1 0 0 1 1289 1971)">Symbols should be outlined when exporting to ensure the</text>
  <text style="stroke:none;fill:black;font-family:sans-serif;font-size:13;" transform="matrix(1 0 0 1 1289 1989)">design is preserved when submitting to Xcode.</text>
  <text id="template-version" style="stroke:none;fill:black;font-family:sans-serif;font-size:13;text-anchor:end;" transform="matrix(1 0 0 1 3036 1933)">Template v.3.0</text>
  <text style="stroke:none;fill:black;font-family:sans-serif;font-size:13;text-anchor:end;" transform="matrix(1 0 0 1 3036 1951)">Requires Xcode 13 or greater</text>
  <text id="descriptive-name" style="stroke:none;fill:black;font-family:sans-serif;font-size:13;text-anchor:end;" transform="matrix(1 0 0 1 3036 1969)">Generated from bag</text>
  <text style="stroke:none;fill:black;font-family:sans-serif;font-size:13;text-anchor:end;" transform="matrix(1 0 0 1 3036 1987)">Typeset at 100 points</text>
  <text style="stroke:none;fill:black;font-family:sans-serif;font-size:13;" transform="matrix(1 0 0 1 263 726)">Small</text>
  <text style="stroke:none;fill:black;font-family:sans-serif;font-size:13;" transform="matrix(1 0 0 1 263 1156)">Medium</text>
  <text style="stroke:none;fill:black;font-family:sans-serif;font-size:13;" transform="matrix(1 0 0 1 263 1586)">Large</text>
 </g>
 <g id="Guides">
  <g id="H-reference" style="fill:#27AAE1;stroke:none;" transform="matrix(1 0 0 1 339 696)">
   <path d="M0.976562 0L3.66211 0L29.3457-67.1387L30.0293-67.1387L30.0293-70.459L28.125-70.459ZM11.6699-24.4629L46.9727-24.4629L46.2402-26.709L12.4512-26.709ZM55.127 0L57.7637 0L30.6152-70.459L29.4434-70.459L29.4434-67.1387Z"/>
  </g>
  <line id="Baseline-S" style="fill:none;stroke:#27AAE1;opacity:1;stroke-width:0.5;" x1="263" x2="3036" y1="696" y2="696"/>
  <line id="Capline-S" style="fill:none;stroke:#27AAE1;opacity:1;stroke-width:0.5;" x1="263" x2="3036" y1="625.541" y2="625.541"/>
  <g id="H-reference" style="fill:#27AAE1;stroke:none;" transform="matrix(1 0 0 1 339 1126)">
   <path d="M0.976562 0L3.66211 0L29.3457-67.1387L30.0293-67.1387L30.0293-70.459L28.125-70.459ZM11.6699-24.4629L46.9727-24.4629L46.2402-26.709L12.4512-26.709ZM55.127 0L57.7637 0L30.6152-70.459L29.4434-70.459L29.4434-67.1387Z"/>
  </g>
  <line id="Baseline-M" style="fill:none;stroke:#27AAE1;opacity:1;stroke-width:0.5;" x1="263" x2="3036" y1="1126" y2="1126"/>
  <line id="Capline-M" style="fill:none;stroke:#27AAE1;opacity:1;stroke-width:0.5;" x1="263" x2="3036" y1="1055.54" y2="1055.54"/>
  <g id="H-reference" style="fill:#27AAE1;stroke:none;" transform="matrix(1 0 0 1 339 1556)">
   <path d="M0.976562 0L3.66211 0L29.3457-67.1387L30.0293-67.1387L30.0293-70.459L28.125-70.459ZM11.6699-24.4629L46.9727-24.4629L46.2402-26.709L12.4512-26.709ZM55.127 0L57.7637 0L30.6152-70.459L29.4434-70.459L29.4434-67.1387Z"/>
  </g>
  <line id="Baseline-L" style="fill:none;stroke:#27AAE1;opacity:1;stroke-width:0.5;" x1="263" x2="3036" y1="1556" y2="1556"/>
  <line id="Capline-L" style="fill:none;stroke:#27AAE1;opacity:1;stroke-width:0.5;" x1="263" x2="3036" y1="1485.54" y2="1485.54"/>
  <line id="left-margin-Ultralight-S" style="fill:none;stroke:#00AEEF;stroke-width:0.5;opacity:1.0;" x1="517.792" x2="517.792" y1="600.785" y2="720.121"/>
  <line id="right-margin-Ultralight-S" style="fill:none;stroke:#00AEEF;stroke-width:0.5;opacity:1.0;" x1="601.63" x2="601.63" y1="600.785" y2="720.121"/>
  <line id="left-margin-Thin-S" style="fill:none;stroke:#00AEEF;stroke-width:0.5;opacity:1.0;" x1="814.015" x2="814.015" y1="600.785" y2="720.121"/>
  <line id="right-margin-Thin-S" style="fill:none;stroke:#00AEEF;stroke-width:0.5;opacity:1.0;" x1="898.829" x2="898.829" y1="600.785" y2="720.121"/>
  <line id="left-margin-Light-S" style="fill:none;stroke:#00AEEF;stroke-width:0.5;opacity:1.0;" x1="1109.75" x2="1109.75" y1="600.785" y2="720.121"/>
  <line id="right-margin-Light-S" style="fill:none;stroke:#00AEEF;stroke-width:0.5;opacity:1.0;" x1="1196.52" x2="1196.52" y1="600.785" y2="720.121"/>
  <line id="left-margin-Regular-S" style="fill:none;stroke:#00AEEF;stroke-width:0.5;opacity:1.0;" x1="1405.73" x2="1405.73" y1="600.785" y2="720.121"/>
  <line id="right-margin-Regular-S" style="fill:none;stroke:#00AEEF;stroke-width:0.5;opacity:1.0;" x1="1493.96" x2="1493.96" y1="600.785" y2="720.121"/>
  <line id="left-margin-Medium-S" style="fill:none;stroke:#00AEEF;stroke-width:0.5;opacity:1.0;" x1="1701.85" x2="1701.85" y1="600.785" y2="720.121"/>
  <line id="right-margin-Medium-S" style="fill:none;stroke:#00AEEF;stroke-width:0.5;opacity:1.0;" x1="1791.26" x2="1791.26" y1="600.785" y2="720.121"/>
  <line id="left-margin-Semibold-S" style="fill:none;stroke:#00AEEF;stroke-width:0.5;opacity:1.0;" x1="1998.1" x2="1998.1" y1="600.785" y2="720.121"/>
  <line id="right-margin-Semibold-S" style="fill:none;stroke:#00AEEF;stroke-width:0.5;opacity:1.0;" x1="2088.43" x2="2088.43" y1="600.785" y2="720.121"/>
  <line id="left-margin-Bold-S" style="fill:none;stroke:#00AEEF;stroke-width:0.5;opacity:1.0;" x1="2294.2" x2="2294.2" y1="600.785" y2="720.121"/>
  <line id="right-margin-Bold-S" style="fill:none;stroke:#00AEEF;stroke-width:0.5;opacity:1.0;" x1="2385.75" x2="2385.75" y1="600.785" y2="720.121"/>
  <line id="left-margin-Heavy-S" style="fill:none;stroke:#00AEEF;stroke-width:0.5;opacity:1.0;" x1="2590.06" x2="2590.06" y1="600.785" y2="720.121"/>
  <line id="right-margin-Heavy-S" style="fill:none;stroke:#00AEEF;stroke-width:0.5;opacity:1.0;" x1="2683.32" x2="2683.32" y1="600.785" y2="720.121"/>
  <line id="left-margin-Black-S" style="fill:none;stroke:#00AEEF;stroke-width:0.5;opacity:1.0;" x1="2885.99" x2="2885.99" y1="600.785" y2="720.121"/>
  <line id="right-margin-Black-S" style="fill:none;stroke:#00AEEF;stroke-width:0.5;opacity:1.0;" x1="2980.81" x2="2980.81" y1="600.785" y2="720.121"/>
  <line id="left-margin-Ultralight-M" style="fill:none;stroke:#00AEEF;stroke-width:0.5;opacity:1.0;" x1="506.415" x2="506.415" y1="1030.79" y2="1150.12"/>
  <line id="right-margin-Ultralight-M" style="fill:none;stroke:#00AEEF;stroke-width:0.5;opacity:1.0;" x1="613.007" x2="613.007" y1="1030.79" y2="1150.12"/>
  <line id="left-margin-Thin-M" style="fill:none;stroke:#00AEEF;stroke-width:0.5;opacity:1.0;" x1="802.565" x2="802.565" y1="1030.79" y2="1150.12"/>
  <line id="right-margin-Thin-M" style="fill:none;stroke:#00AEEF;stroke-width:0.5;opacity:1.0;" x1="910.28" x2="910.28" y1="1030.79" y2="1150.12"/>
  <line id="left-margin-Light-M" style="fill:none;stroke:#00AEEF;stroke-width:0.5;opacity:1.0;" x1="1098.18" x2="1098.18" y1="1030.79" y2="1150.12"/>
  <line id="right-margin-Light-M" style="fill:none;stroke:#00AEEF;stroke-width:0.5;opacity:1.0;" x1="1208.09" x2="1208.09" y1="1030.79" y2="1150.12"/>
  <line id="left-margin-Regular-M" style="fill:none;stroke:#00AEEF;stroke-width:0.5;opacity:1.0;" x1="1394.06" x2="1394.06" y1="1030.79" y2="1150.12"/>
  <line id="right-margin-Regular-M" style="fill:none;stroke:#00AEEF;stroke-width:0.5;opacity:1.0;" x1="1505.63" x2="1505.63" y1="1030.79" y2="1150.12"/>
  <line id="left-margin-Medium-M" style="fill:none;stroke:#00AEEF;stroke-width:0.5;opacity:1.0;" x1="1689.99" x2="1689.99" y1="1030.79" y2="1150.12"/>
  <line id="right-margin-Medium-M" style="fill:none;stroke:#00AEEF;stroke-width:0.5;opacity:1.0;" x1="1803.12" x2="1803.12" y1="1030.79" y2="1150.12"/>
  <line id="left-margin-Semibold-M" style="fill:none;stroke:#00AEEF;stroke-width:0.5;opacity:1.0;" x1="1986.09" x2="1986.09" y1="1030.79" y2="1150.12"/>
  <line id="right-margin-Semibold-M" style="fill:none;stroke:#00AEEF;stroke-width:0.5;opacity:1.0;" x1="2100.44" x2="2100.44" y1="1030.79" y2="1150.12"/>
  <line id="left-margin-Bold-M" style="fill:none;stroke:#00AEEF;stroke-width:0.5;opacity:1.0;" x1="2281.99" x2="2281.99" y1="1030.79" y2="1150.12"/>
  <line id="right-margin-Bold-M" style="fill:none;stroke:#00AEEF;stroke-width:0.5;opacity:1.0;" x1="2397.96" x2="2397.96" y1="1030.79" y2="1150.12"/>
  <line id="left-margin-Heavy-M" style="fill:none;stroke:#00AEEF;stroke-width:0.5;opacity:1.0;" x1="2577.56" x2="2577.56" y1="1030.79" y2="1150.12"/>
  <line id="right-margin-Heavy-M" style="fill:none;stroke:#00AEEF;stroke-width:0.5;opacity:1.0;" x1="2695.82" x2="2695.82" y1="1030.79" y2="1150.12"/>
  <line id="left-margin-Black-M" style="fill:none;stroke:#00AEEF;stroke-width:0.5;opacity:1.0;" x1="2873.24" x2="2873.24" y1="1030.79" y2="1150.12"/>
  <line id="right-margin-Black-M" style="fill:none;stroke:#00AEEF;stroke-width:0.5;opacity:1.0;" x1="2993.56" x2="2993.56" y1="1030.79" y2="1150.12"/>
  <line id="left-margin-Ultralight-L" style="fill:none;stroke:#00AEEF;stroke-width:0.5;opacity:1.0;" x1="491.181" x2="491.181" y1="1460.79" y2="1580.12"/>
  <line id="right-margin-Ultralight-L" style="fill:none;stroke:#00AEEF;stroke-width:0.5;opacity:1.0;" x1="628.241" x2="628.241" y1="1460.79" y2="1580.12"/>
  <line id="left-margin-Thin-L" style="fill:none;stroke:#00AEEF;stroke-width:0.5;opacity:1.0;" x1="787.282" x2="787.282" y1="1460.79" y2="1580.12"/>
  <line id="right-margin-Thin-L" style="fill:none;stroke:#00AEEF;stroke-width:0.5;opacity:1.0;" x1="925.563" x2="925.563" y1="1460.79" y2="1580.12"/>
  <line id="left-margin-Light-L" style="fill:none;stroke:#00AEEF;stroke-width:0.5;opacity:1.0;" x1="1082.77" x2="1082.77" y1="1460.79" y2="1580.12"/>
  <line id="right-margin-Light-L" style="fill:none;stroke:#00AEEF;stroke-width:0.5;opacity:1.0;" x1="1223.49" x2="1223.49" y1="1460.79" y2="1580.12"/>
  <line id="left-margin-Regular-L" style="fill:none;stroke:#00AEEF;stroke-width:0.5;opacity:1.0;" x1="1378.56" x2="1378.56" y1="1460.79" y2="1580.12"/>
  <line id="right-margin-Regular-L" style="fill:none;stroke:#00AEEF;stroke-width:0.5;opacity:1.0;" x1="1521.13" x2="1521.13" y1="1460.79" y2="1580.12"/>
  <line id="left-margin-Medium-L" style="fill:none;stroke:#00AEEF;stroke-width:0.5;opacity:1.0;" x1="1674.31" x2="1674.31" y1="1460.79" y2="1580.12"/>
  <line id="right-margin-Medium-L" style="fill:none;stroke:#00AEEF;stroke-width:0.5;opacity:1.0;" x1="1818.8" x2="1818.8" y1="1460.79" y2="1580.12"/>
  <line id="left-margin-Semibold-L" style="fill:none;stroke:#00AEEF;stroke-width:0.5;opacity:1.0;" x1="1970.27" x2="1970.27" y1="1460.79" y2="1580.12"/>
  <line id="right-margin-Semibold-L" style="fill:none;stroke:#00AEEF;stroke-width:0.5;opacity:1.0;" x1="2116.26" x2="2116.26" y1="1460.79" y2="1580.12"/>
  <line id="left-margin-Bold-L" style="fill:none;stroke:#00AEEF;stroke-width:0.5;opacity:1.0;" x1="2266" x2="2266" y1="1460.79" y2="1580.12"/>
  <line id="right-margin-Bold-L" style="fill:none;stroke:#00AEEF;stroke-width:0.5;opacity:1.0;" x1="2413.95" x2="2413.95" y1="1460.79" y2="1580.12"/>
  <line id="left-margin-Heavy-L" style="fill:none;stroke:#00AEEF;stroke-width:0.5;opacity:1.0;" x1="2561.32" x2="2561.32" y1="1460.79" y2="1580.12"/>
  <line id="right-margin-Heavy-L" style="fill:none;stroke:#00AEEF;stroke-width:0.5;opacity:1.0;" x1="2712.06" x2="2712.06" y1="1460.79" y2="1580.12"/>
  <line id="left-margin-Black-L" style="fill:none;stroke:#00AEEF;stroke-width:0.5;opacity:1.0;" x1="2856.76" x2="2856.76" y1="1460.79" y2="1580.12"/>
  <line id="right-margin-Black-L" style="fill:none;stroke:#00AEEF;stroke-width:0.5;opacity:1.0;" x1="3010.04" x2="3010.04" y1="1460.79" y2="1580.12"/>
 </g>
 <g id="Symbols">
  <g id="Black-L" transform="matrix(1 0 0 1 2856.76 1556)">
   <path d="M16.0645 2.68555Q16.0645 14.1113 22.3145 20.3125Q28.5645 26.5137 39.9902 26.5137L113.965 26.5137Q124.902 26.5137 131.055 20.3125Q137.207 14.1113 137.207 2.68555L137.207-62.0605Q137.207-73.4863 130.981-79.6875Q124.756-85.8887 113.33-85.8887L108.105-85.8887Q108.057-92.2852 105.566-97.7539Q103.076-103.223 98.7793-107.324Q94.4824-111.426 88.7939-113.696Q83.1055-115.967 76.6602-115.967Q70.166-115.967 64.4775-113.696Q58.7891-111.426 54.4922-107.324Q50.1953-103.223 47.7295-97.7539Q45.2637-92.2852 45.166-85.8887L39.9902-85.8887Q28.5645-85.8887 22.3145-79.6875Q16.0645-73.4863 16.0645-62.0605ZM36.3281-0.146484L36.3281-59.2285Q36.3281-62.5977 37.9395-64.1113Q39.5508-65.625 42.6758-65.625L110.596-65.625Q113.77-65.625 115.381-64.1113Q116.992-62.5977 116.992-59.2285L116.992-0.146484Q116.992 3.27148 115.454 4.78516Q113.916 6.29883 111.23 6.29883L42.6758 6.29883Q39.5508 6.29883 37.9395 4.78516Q36.3281 3.27148 36.3281-0.146484ZM63.6719-85.8887Q63.7207-89.8926 65.3809-93.042Q67.041-96.1914 69.9463-97.998Q72.8516-99.8047 76.6602-99.8047Q80.4199-99.8047 83.3252-97.998Q86.2305-96.1914 87.8906-93.042Q89.5508-89.8926 89.5996-85.8887Z"/>
  </g>
  <g id="Heavy-L" transform="matrix(1 0 0 1 2561.32 1556)">
   <path d="M16.0645 2.88086Q16.0645 13.8184 21.9727 19.6533Q27.8809 25.4883 38.8184 25.4883L112.793 25.4883Q123.096 25.4883 128.882 19.6289Q134.668 13.7695 134.668 2.88086L134.668-62.1094Q134.668-73.0469 128.784-78.9062Q122.9-84.7656 111.963-84.7656L105.42-84.7656Q105.322-90.7715 102.954-95.9717Q100.586-101.172 96.5088-105.078Q92.4316-108.984 87.0117-111.157Q81.5918-113.33 75.3906-113.33Q69.1406-113.33 63.7207-111.157Q58.3008-108.984 54.2236-105.078Q50.1465-101.172 47.8027-95.9717Q45.459-90.7715 45.3613-84.7656L38.8184-84.7656Q27.8809-84.7656 21.9727-78.9062Q16.0645-73.0469 16.0645-62.1094ZM33.5938 0.585938L33.5938-59.8633Q33.5938-63.6719 35.4492-65.4541Q37.3047-67.2363 40.918-67.2363L109.814-67.2363Q113.428-67.2363 115.308-65.4541Q117.188-63.6719 117.188-59.8633L117.188 0.585938Q117.188 4.44336 115.405 6.22559Q113.623 8.00781 110.645 8.00781L40.918 8.00781Q37.3047 8.00781 35.4492 6.22559Q33.5938 4.44336 33.5938 0.585938ZM61.5234-84.7656Q61.5723-88.8184 63.3545-92.0654Q65.1367-95.3125 68.2373-97.1924Q71.3379-99.0723 75.3906-99.0723Q79.3945-99.0723 82.4951-97.1924Q85.5957-95.3125 87.3779-92.0654Q89.1602-88.8184 89.209-84.7656Z"/>
  </g>
  <g id="Bold-L" transform="matrix(1 0 0 1 2266 1556)">
   <path d="M16.0645 3.07617Q16.0645 13.4766 21.582 18.9209Q27.0996 24.3652 37.5488 24.3652L111.475 24.3652Q121.143 24.3652 126.514 18.8965Q131.885 13.4277 131.885 3.07617L131.885-62.207Q131.885-72.5586 126.367-78.0273Q120.85-83.4961 110.449-83.4961L102.393-83.4961Q102.295-89.0625 100.073-93.9453Q97.8516-98.8281 93.9941-102.539Q90.1367-106.25 85.0098-108.35Q79.8828-110.449 73.9746-110.449Q68.0664-110.449 62.9395-108.35Q57.8125-106.25 53.9551-102.539Q50.0977-98.8281 47.876-93.9453Q45.6543-89.0625 45.5566-83.4961L37.5488-83.4961Q27.0996-83.4961 21.582-78.0518Q16.0645-72.6074 16.0645-62.207ZM30.5176 1.41602L30.5176-60.5469Q30.5176-64.8438 32.6904-66.9434Q34.8633-69.043 38.9648-69.043L108.984-69.043Q113.086-69.043 115.259-66.9434Q117.432-64.8438 117.432-60.5469L117.432 1.41602Q117.432 5.76172 115.381 7.86133Q113.33 9.96094 110.059 9.96094L38.9648 9.96094Q34.8633 9.96094 32.6904 7.86133Q30.5176 5.76172 30.5176 1.41602ZM59.1309-83.4961Q59.2285-87.5977 61.1328-90.9424Q63.0371-94.2871 66.3574-96.2646Q69.6777-98.2422 73.9746-98.2422Q78.2715-98.2422 81.5918-96.2646Q84.9121-94.2871 86.8164-90.9424Q88.7207-87.5977 88.8184-83.4961Z"/>
  </g>
  <g id="Semibold-L" transform="matrix(1 0 0 1 1970.27 1556)">
   <path d="M16.0645 3.17383Q16.0645 13.2324 21.3135 18.4082Q26.5625 23.584 36.6211 23.584L110.547 23.584Q119.727 23.584 124.829 18.3838Q129.932 13.1836 129.932 3.17383L129.932-62.207Q129.932-72.2168 124.683-77.417Q119.434-82.6172 109.375-82.6172L100.293-82.6172Q100.195-87.8906 98.0713-92.5537Q95.9473-97.2168 92.2607-100.781Q88.5742-104.346 83.6426-106.372Q78.7109-108.398 72.998-108.398Q67.2852-108.398 62.3535-106.372Q57.4219-104.346 53.7354-100.781Q50.0488-97.2168 47.9248-92.5537Q45.8008-87.8906 45.6543-82.6172L36.6211-82.6172Q26.5625-82.6172 21.3135-77.4414Q16.0645-72.2656 16.0645-62.207ZM28.418 2.00195L28.418-60.9863Q28.418-65.6738 30.7617-67.9688Q33.1055-70.2637 37.5977-70.2637L108.35-70.2637Q112.793-70.2637 115.186-67.9688Q117.578-65.6738 117.578-60.9863L117.578 2.00195Q117.578 6.64062 115.356 8.95996Q113.135 11.2793 109.619 11.2793L37.5977 11.2793Q33.1055 11.2793 30.7617 8.95996Q28.418 6.64062 28.418 2.00195ZM57.4219-82.6172Q57.5684-86.7188 59.5459-90.1611Q61.5234-93.6035 65.0146-95.6299Q68.5059-97.6562 72.998-97.6562Q77.4902-97.6562 80.957-95.6299Q84.4238-93.6035 86.4258-90.1611Q88.4277-86.7188 88.5254-82.6172Z"/>
  </g>
  <g id="Medium-L" transform="matrix(1 0 0 1 1674.31 1556)">
   <path d="M16.0645 3.27148Q16.0645 13.0371 21.1182 18.0176Q26.1719 22.998 35.9375 22.998L109.863 22.998Q118.701 22.998 123.56 17.9932Q128.418 12.9883 128.418 3.27148L128.418-62.2559Q128.418-71.9727 123.389-76.9775Q118.359-81.9824 108.545-81.9824L98.7305-81.9824Q98.584-87.0117 96.5576-91.5039Q94.5312-95.9961 90.9424-99.4629Q87.3535-102.93 82.5928-104.907Q77.832-106.885 72.2656-106.885Q66.6992-106.885 61.9141-104.907Q57.1289-102.93 53.5645-99.4629Q50-95.9961 47.9492-91.5039Q45.8984-87.0117 45.752-81.9824L35.9375-81.9824Q26.1719-81.9824 21.1182-77.002Q16.0645-72.0215 16.0645-62.2559ZM26.8066 2.39258L26.8066-61.3281Q26.8066-66.2598 29.3213-68.75Q31.8359-71.2402 36.5723-71.2402L107.91-71.2402Q112.598-71.2402 115.161-68.75Q117.725-66.2598 117.725-61.3281L117.725 2.39258Q117.725 7.32422 115.332 9.79004Q112.939 12.2559 109.277 12.2559L36.5723 12.2559Q31.8359 12.2559 29.3213 9.79004Q26.8066 7.32422 26.8066 2.39258ZM56.2012-81.9824Q56.2988-86.084 58.374-89.5752Q60.4492-93.0664 64.0381-95.166Q67.627-97.2656 72.2656-97.2656Q76.9043-97.2656 80.4932-95.166Q84.082-93.0664 86.1328-89.5752Q88.1836-86.084 88.3301-81.9824Z"/>
  </g>
  <g id="Regular-L" transform="matrix(1 0 0 1 1378.56 1556)">
   <path d="M16.0645 3.41797Q16.0645 12.793 20.8496 17.5049Q25.6348 22.2168 35.0586 22.2168L108.984 22.2168Q117.334 22.2168 121.924 17.4805Q126.514 12.7441 126.514 3.41797L126.514-62.3047Q126.514-71.6309 121.729-76.3672Q116.943-81.1035 107.52-81.1035L96.6797-81.1035Q96.5332-85.8398 94.5801-90.1367Q92.627-94.4336 89.209-97.7539Q85.791-101.074 81.2256-102.979Q76.6602-104.883 71.2891-104.883Q65.918-104.883 61.3525-102.979Q56.7871-101.074 53.3691-97.7539Q49.9512-94.4336 47.998-90.1367Q46.0449-85.8398 45.8984-81.1035L35.0586-81.1035Q25.6348-81.1035 20.8496-76.3916Q16.0645-71.6797 16.0645-62.3047ZM24.707 2.97852L24.707-61.8164Q24.707-67.0898 27.417-69.7754Q30.127-72.4609 35.2539-72.4609L107.324-72.4609Q112.354-72.4609 115.112-69.7754Q117.871-67.0898 117.871-61.8164L117.871 2.97852Q117.871 8.20312 115.308 10.8887Q112.744 13.5742 108.838 13.5742L35.2539 13.5742Q30.127 13.5742 27.417 10.8887Q24.707 8.20312 24.707 2.97852ZM54.541-81.1035Q54.6875-85.2539 56.8359-88.8184Q58.9844-92.3828 62.7197-94.5312Q66.4551-96.6797 71.2891-96.6797Q76.123-96.6797 79.8584-94.5312Q83.5938-92.3828 85.7422-88.8184Q87.8906-85.2539 88.0371-81.1035Z"/>
  </g>
  <g id="Light-L" transform="matrix(1 0 0 1 1082.77 1556)">
   <path d="M16.0645 3.56445Q16.0645 12.4023 20.6055 16.9189Q25.1465 21.4355 34.0332 21.4355L107.617 21.4355Q115.82 21.4355 120.239 16.8945Q124.658 12.3535 124.658 3.56445L124.658-62.793Q124.658-71.5332 120.117-76.0742Q115.576-80.6152 106.689-80.6152L94.7754-80.6152Q94.6777-85.1074 92.8711-89.209Q91.0645-93.3105 87.8418-96.5088Q84.6191-99.707 80.1758-101.587Q75.7324-103.467 70.3613-103.467Q64.9902-103.467 60.5713-101.587Q56.1523-99.707 52.9053-96.5088Q49.6582-93.3105 47.876-89.209Q46.0938-85.1074 45.9473-80.6152L34.0332-80.6152Q25.1465-80.6152 20.6055-76.123Q16.0645-71.6309 16.0645-62.793ZM22.6562 3.22266L22.6562-62.4023Q22.6562-68.1641 25.6104-71.0938Q28.5645-74.0234 34.2285-74.0234L106.543-74.0234Q112.012-74.0234 115.039-71.0938Q118.066-68.1641 118.066-62.4023L118.066 3.22266Q118.066 8.93555 115.161 11.8652Q112.256 14.7949 107.471 14.7949L34.2285 14.7949Q28.5645 14.7949 25.6104 11.8652Q22.6562 8.93555 22.6562 3.22266ZM52.5879-80.6152Q52.6855-84.8633 54.8828-88.6475Q57.0801-92.4316 61.0352-94.7754Q64.9902-97.1191 70.3613-97.1191Q75.7324-97.1191 79.6875-94.7754Q83.6426-92.4316 85.8398-88.6475Q88.0371-84.8633 88.1348-80.6152Z"/>
  </g>
  <g id="Thin-L" transform="matrix(1 0 0 1 787.282 1556)">
   <path d="M16.0645 3.75977Q16.0645 11.9141 20.2881 16.1377Q24.5117 20.3613 32.666 20.3613L105.811 20.3613Q113.818 20.3613 118.018 16.0889Q122.217 11.8164 122.217 3.75977L122.217-63.4277Q122.217-71.4355 117.993-75.708Q113.77-79.9805 105.615-79.9805L92.2363-79.9805Q92.1875-84.082 90.5762-87.9395Q88.9648-91.7969 85.9863-94.873Q83.0078-97.9492 78.7598-99.7559Q74.5117-101.562 69.1406-101.562Q63.7695-101.562 59.5215-99.7559Q55.2734-97.9492 52.2949-94.873Q49.3164-91.7969 47.7051-87.9395Q46.0938-84.082 46.0449-79.9805L32.666-79.9805Q24.5117-79.9805 20.2881-75.7812Q16.0645-71.582 16.0645-63.4277ZM20.0195 3.56445L20.0195-63.1836Q20.0195-69.5312 23.2666-72.7783Q26.5137-76.0254 32.8125-76.0254L105.469-76.0254Q111.523-76.0254 114.917-72.7783Q118.311-69.5312 118.311-63.1836L118.311 3.56445Q118.311 9.91211 114.966 13.1592Q111.621 16.4062 105.615 16.4062L32.8125 16.4062Q26.5137 16.4062 23.2666 13.1592Q20.0195 9.91211 20.0195 3.56445ZM49.9512-79.9805Q50.0488-84.3262 52.2949-88.3789Q54.541-92.4316 58.7891-95.0684Q63.0371-97.7051 69.1406-97.7051Q75.2441-97.7051 79.4922-95.0684Q83.7402-92.4316 85.9863-88.3789Q88.2324-84.3262 88.3301-79.9805Z"/>
  </g>
  <g id="Ultralight-L" transform="matrix(1 0 0 1 491.181 1556)">
   <path d="M16.0645 3.85742Q16.0645 11.6699 20.1172 15.7471Q24.1699 19.8242 31.9824 19.8242L104.883 19.8242Q112.793 19.8242 116.895 15.6738Q120.996 11.5234 120.996 3.85742L120.996-63.7695Q120.996-71.3867 116.919-75.5127Q112.842-79.6387 105.078-79.6387L90.9668-79.6387Q90.918-83.5938 89.4043-87.3047Q87.8906-91.0156 85.0586-94.0186Q82.2266-97.0215 78.0518-98.8037Q73.877-100.586 68.5059-100.586Q63.1348-100.586 58.9844-98.8037Q54.834-97.0215 51.9775-94.0186Q49.1211-91.0156 47.6318-87.3047Q46.1426-83.5938 46.0938-79.6387L31.9824-79.6387Q24.1699-79.6387 20.1172-75.5859Q16.0645-71.5332 16.0645-63.7695ZM18.6035 3.75977L18.6035-63.5742Q18.6035-70.2637 22.0215-73.6816Q25.4395-77.0996 32.1289-77.0996L104.932-77.0996Q111.328-77.0996 114.868-73.6816Q118.408-70.2637 118.408-63.5742L118.408 3.75977Q118.408 10.4004 114.844 13.8184Q111.279 17.2363 104.688 17.2363L32.1289 17.2363Q25.4395 17.2363 22.0215 13.8184Q18.6035 10.4004 18.6035 3.75977ZM48.6328-79.6387Q48.6816-84.082 50.9766-88.2812Q53.2715-92.4805 57.666-95.2393Q62.0605-97.998 68.5059-97.998Q75-97.998 79.3945-95.2393Q83.7891-92.4805 86.0596-88.2812Q88.3301-84.082 88.3789-79.6387Z"/>
  </g>
  <g id="Black-M" transform="matrix(1 0 0 1 2873.24 1126)">
   <path d="M12.4512-5.9082Q12.4512 3.125 17.5049 8.17871Q22.5586 13.2324 31.5918 13.2324L88.8672 13.2324Q97.8027 13.2324 102.832 8.17871Q107.861 3.125 107.861-5.9082L107.861-56.1523Q107.861-65.1855 102.808-70.2393Q97.7539-75.293 88.7207-75.293L85.4492-75.293Q85.4004-82.2266 82.0068-87.7197Q78.6133-93.2129 72.876-96.3867Q67.1387-99.5605 60.1562-99.5605Q53.1738-99.5605 47.4609-96.3867Q41.748-93.2129 38.3301-87.7197Q34.9121-82.2266 34.8633-75.293L31.5918-75.293Q22.5586-75.293 17.5049-70.2393Q12.4512-65.1855 12.4512-56.1523ZM29.7852-8.59375L29.7852-53.4668Q29.7852-55.9082 30.8838-56.9336Q31.9824-57.959 34.2285-57.959L86.084-57.959Q88.3301-57.959 89.4287-56.9336Q90.5273-55.9082 90.5273-53.4668L90.5273-8.59375Q90.5273-6.15234 89.4531-5.12695Q88.3789-4.10156 86.2305-4.10156L34.2285-4.10156Q31.9824-4.10156 30.8838-5.12695Q29.7852-6.15234 29.7852-8.59375ZM50.4883-75.293Q50.5371-78.418 51.7334-80.835Q52.9297-83.252 55.0781-84.6436Q57.2266-86.0352 60.1562-86.0352Q63.0859-86.0352 65.2344-84.6436Q67.3828-83.252 68.5791-80.835Q69.7754-78.418 69.8242-75.293Z"/>
  </g>
  <g id="Heavy-M" transform="matrix(1 0 0 1 2577.56 1126)">
   <path d="M12.4512-5.76172Q12.4512 2.92969 17.2119 7.66602Q21.9727 12.4023 30.7129 12.4023L88.0371 12.4023Q96.3867 12.4023 101.099 7.66602Q105.811 2.92969 105.811-5.76172L105.811-56.1035Q105.811-64.7949 101.025-69.5312Q96.2402-74.2676 87.5488-74.2676L83.2031-74.2676Q83.1543-80.8105 79.9072-86.0107Q76.6602-91.2109 71.2158-94.2627Q65.7715-97.3145 59.1309-97.3145Q52.4902-97.3145 47.0459-94.2627Q41.6016-91.2109 38.3545-86.0107Q35.1074-80.8105 35.0098-74.2676L30.7129-74.2676Q21.9727-74.2676 17.2119-69.5312Q12.4512-64.7949 12.4512-56.1035ZM27.5391-7.91016L27.5391-53.9551Q27.5391-56.7383 28.833-57.959Q30.127-59.1797 32.7148-59.1797L85.498-59.1797Q88.0859-59.1797 89.4043-57.959Q90.7227-56.7383 90.7227-53.9551L90.7227-7.91016Q90.7227-5.17578 89.4531-3.93066Q88.1836-2.68555 85.9863-2.68555L32.7148-2.68555Q30.127-2.68555 28.833-3.93066Q27.5391-5.17578 27.5391-7.91016ZM48.8281-74.2676Q48.877-77.4414 50.1709-79.9072Q51.4648-82.373 53.7598-83.7891Q56.0547-85.2051 59.1309-85.2051Q62.1582-85.2051 64.4531-83.7891Q66.748-82.373 68.0664-79.9072Q69.3848-77.4414 69.4336-74.2676Z"/>
  </g>
  <g id="Bold-M" transform="matrix(1 0 0 1 2281.99 1126)">
   <path d="M12.4512-5.66406Q12.4512 2.68555 16.8945 7.10449Q21.3379 11.5234 29.6875 11.5234L87.0605 11.5234Q94.8242 11.5234 99.1699 7.10449Q103.516 2.68555 103.516-5.66406L103.516-56.0547Q103.516-64.3555 99.0479-68.7744Q94.5801-73.1934 86.2793-73.1934L80.7129-73.1934Q80.6641-79.1992 77.5879-84.1064Q74.5117-89.0137 69.3604-91.9189Q64.209-94.8242 57.959-94.8242Q51.709-94.8242 46.582-91.9189Q41.4551-89.0137 38.3789-84.1064Q35.3027-79.1992 35.2051-73.1934L29.6875-73.1934Q21.3379-73.1934 16.8945-68.7744Q12.4512-64.3555 12.4512-56.0547ZM25.0488-7.17773L25.0488-54.4922Q25.0488-57.6172 26.5869-59.1064Q28.125-60.5957 31.0547-60.5957L84.8633-60.5957Q87.793-60.5957 89.3555-59.1064Q90.918-57.6172 90.918-54.4922L90.918-7.17773Q90.918-4.05273 89.4775-2.58789Q88.0371-1.12305 85.6934-1.12305L31.0547-1.12305Q28.125-1.12305 26.5869-2.58789Q25.0488-4.05273 25.0488-7.17773ZM46.9727-73.1934Q47.0215-76.3184 48.4619-78.8574Q49.9023-81.3965 52.3438-82.8613Q54.7852-84.3262 57.959-84.3262Q61.1816-84.3262 63.623-82.8613Q66.0645-81.3965 67.4805-78.8574Q68.8965-76.3184 68.9941-73.1934Z"/>
  </g>
  <g id="Semibold-M" transform="matrix(1 0 0 1 1986.09 1126)">
   <path d="M12.4512-5.51758Q12.4512 2.49023 16.6748 6.68945Q20.8984 10.8887 29.0039 10.8887L86.4258 10.8887Q93.7012 10.8887 97.8027 6.68945Q101.904 2.49023 101.904-5.51758L101.904-56.0059Q101.904-64.0137 97.6562-68.2129Q93.4082-72.4121 85.3516-72.4121L79.0039-72.4121Q78.9062-78.0762 75.9521-82.7881Q72.998-87.5 68.0664-90.2832Q63.1348-93.0664 57.1777-93.0664Q51.1719-93.0664 46.2646-90.2832Q41.3574-87.5 38.4033-82.7881Q35.4492-78.0762 35.3516-72.4121L29.0039-72.4121Q20.8984-72.4121 16.6748-68.2129Q12.4512-64.0137 12.4512-56.0059ZM23.3398-6.64062L23.3398-54.8828Q23.3398-58.252 25.0244-59.8877Q26.709-61.5234 29.8828-61.5234L84.4238-61.5234Q87.5977-61.5234 89.3066-59.8877Q91.0156-58.252 91.0156-54.8828L91.0156-6.64062Q91.0156-3.27148 89.4531-1.63574Q87.8906 0 85.4492 0L29.8828 0Q26.709 0 25.0244-1.63574Q23.3398-3.27148 23.3398-6.64062ZM45.6543-72.4121Q45.752-75.5371 47.2656-78.1006Q48.7793-80.6641 51.3428-82.1777Q53.9062-83.6914 57.1777-83.6914Q60.4492-83.6914 63.0127-82.1777Q65.5762-80.6641 67.0654-78.1006Q68.5547-75.5371 68.6523-72.4121Z"/>
  </g>
  <g id="Medium-M" transform="matrix(1 0 0 1 1689.99 1126)">
   <path d="M12.4512-5.46875Q12.4512 2.34375 16.5039 6.37207Q20.5566 10.4004 28.4668 10.4004L85.8887 10.4004Q92.8711 10.4004 96.7773 6.37207Q100.684 2.34375 100.684-5.46875L100.684-55.957Q100.684-63.7695 96.6064-67.7979Q92.5293-71.8262 84.668-71.8262L77.6855-71.8262Q77.5879-77.2461 74.707-81.7871Q71.8262-86.3281 67.0898-89.0381Q62.3535-91.748 56.543-91.748Q50.7812-91.748 46.0205-89.0381Q41.2598-86.3281 38.4033-81.7871Q35.5469-77.2461 35.4004-71.8262L28.4668-71.8262Q20.5566-71.8262 16.5039-67.7979Q12.4512-63.7695 12.4512-55.957ZM22.0215-6.25L22.0215-55.127Q22.0215-58.6914 23.8281-60.4736Q25.6348-62.2559 29.0039-62.2559L84.082-62.2559Q87.4512-62.2559 89.2822-60.4736Q91.1133-58.6914 91.1133-55.127L91.1133-6.25Q91.1133-2.68555 89.4531-0.927734Q87.793 0.830078 85.3027 0.830078L29.0039 0.830078Q25.6348 0.830078 23.8281-0.927734Q22.0215-2.68555 22.0215-6.25ZM44.6777-71.8262Q44.7754-74.9512 46.3379-77.5635Q47.9004-80.1758 50.5615-81.7139Q53.2227-83.252 56.543-83.252Q59.9121-83.252 62.5732-81.7139Q65.2344-80.1758 66.7725-77.5635Q68.3105-74.9512 68.4082-71.8262Z"/>
  </g>
  <g id="Regular-M" transform="matrix(1 0 0 1 1394.06 1126)">
   <path d="M12.4512-5.37109Q12.4512 2.19727 16.2842 5.98145Q20.1172 9.76562 27.7832 9.76562L85.2539 9.76562Q91.7969 9.76562 95.459 5.98145Q99.1211 2.19727 99.1211-5.37109L99.1211-55.9082Q99.1211-63.4766 95.2637-67.2607Q91.4062-71.0449 83.7891-71.0449L75.9766-71.0449Q75.8789-76.1719 73.1201-80.4932Q70.3613-84.8145 65.8203-87.4268Q61.2793-90.0391 55.7617-90.0391Q50.2441-90.0391 45.7031-87.4268Q41.1621-84.8145 38.4277-80.4932Q35.6934-76.1719 35.5469-71.0449L27.7832-71.0449Q20.1172-71.0449 16.2842-67.2607Q12.4512-63.4766 12.4512-55.9082ZM20.3125-5.76172L20.3125-55.5176Q20.3125-59.3262 22.2656-61.2549Q24.2188-63.1836 27.8809-63.1836L83.6426-63.1836Q87.2559-63.1836 89.2578-61.2549Q91.2598-59.3262 91.2598-55.5176L91.2598-5.76172Q91.2598-1.95312 89.4531-0.0244141Q87.6465 1.9043 85.1074 1.9043L27.8809 1.9043Q24.2188 1.9043 22.2656-0.0244141Q20.3125-1.95312 20.3125-5.76172ZM43.4082-71.0449Q43.5059-74.2188 45.166-76.8555Q46.8262-79.4922 49.585-81.0547Q52.3438-82.6172 55.7617-82.6172Q59.2285-82.6172 61.9873-81.0547Q64.7461-79.4922 66.3818-76.8555Q68.0176-74.2188 68.1152-71.0449Z"/>
  </g>
  <g id="Light-M" transform="matrix(1 0 0 1 1098.18 1126)">
   <path d="M12.4512-5.22461Q12.4512 1.85547 16.0645 5.44434Q19.6777 9.0332 26.8555 9.0332L84.0332 9.0332Q90.4297 9.0332 93.9453 5.44434Q97.4609 1.85547 97.4609-5.22461L97.4609-56.3477Q97.4609-63.3789 93.8232-66.9922Q90.1855-70.6055 83.0566-70.6055L74.2676-70.6055Q74.2188-75.3906 71.6797-79.5166Q69.1406-83.6426 64.7949-86.2061Q60.4492-88.7695 54.9316-88.7695Q49.4141-88.7695 45.0928-86.2061Q40.7715-83.6426 38.2568-79.5166Q35.7422-75.3906 35.5957-70.6055L26.8555-70.6055Q19.6777-70.6055 16.0645-67.0166Q12.4512-63.4277 12.4512-56.3477ZM18.5059-5.51758L18.5059-56.0547Q18.5059-60.3027 20.6543-62.4512Q22.8027-64.5996 26.9531-64.5996L82.9102-64.5996Q86.9629-64.5996 89.1846-62.4512Q91.4062-60.3027 91.4062-56.0547L91.4062-5.51758Q91.4062-1.31836 89.3066 0.830078Q87.207 2.97852 83.8867 2.97852L26.9531 2.97852Q22.8027 2.97852 20.6543 0.830078Q18.5059-1.31836 18.5059-5.51758ZM41.6504-70.6055Q41.6992-73.877 43.4082-76.709Q45.1172-79.541 48.0713-81.2744Q51.0254-83.0078 54.9316-83.0078Q58.8867-83.0078 61.8408-81.2744Q64.7949-79.541 66.4795-76.709Q68.1641-73.877 68.2129-70.6055Z"/>
  </g>
  <g id="Thin-M" transform="matrix(1 0 0 1 802.565 1126)">
   <path d="M12.4512-5.07812Q12.4512 1.41602 15.7959 4.73633Q19.1406 8.05664 25.5859 8.05664L82.4219 8.05664Q88.623 8.05664 91.9434 4.71191Q95.2637 1.36719 95.2637-5.07812L95.2637-56.9336Q95.2637-63.2812 91.9189-66.6748Q88.5742-70.0684 82.0801-70.0684L72.0215-70.0684Q71.9727-74.3652 69.7266-78.2471Q67.4805-82.1289 63.4277-84.5947Q59.375-87.0605 53.8574-87.0605Q48.291-87.0605 44.2627-84.5947Q40.2344-82.1289 37.9883-78.2471Q35.7422-74.3652 35.6445-70.0684L25.5859-70.0684Q19.1406-70.0684 15.7959-66.748Q12.4512-63.4277 12.4512-56.9336ZM16.1133-5.22461L16.1133-56.7383Q16.1133-61.5234 18.5547-63.9648Q20.9961-66.4062 25.7324-66.4062L81.9336-66.4062Q86.5723-66.4062 89.1113-63.9648Q91.6504-61.5234 91.6504-56.7383L91.6504-5.22461Q91.6504-0.439453 89.1357 2.00195Q86.6211 4.44336 82.2754 4.44336L25.7324 4.44336Q20.9961 4.44336 18.5547 2.00195Q16.1133-0.439453 16.1133-5.22461ZM39.3066-70.0684Q39.3555-73.3887 41.0889-76.4648Q42.8223-79.541 46.0449-81.5186Q49.2676-83.4961 53.8574-83.4961Q58.3984-83.4961 61.6455-81.5186Q64.8926-79.541 66.6016-76.4648Q68.3105-73.3887 68.4082-70.0684Z"/>
  </g>
  <g id="Ultralight-M" transform="matrix(1 0 0 1 506.415 1126)">
   <path d="M12.4512-4.98047Q12.4512 1.2207 15.6494 4.39453Q18.8477 7.56836 24.9512 7.56836L81.5918 7.56836Q87.6953 7.56836 90.918 4.3457Q94.1406 1.12305 94.1406-4.98047L94.1406-57.2266Q94.1406-63.2324 90.9424-66.5039Q87.7441-69.7754 81.5918-69.7754L70.8984-69.7754Q70.8496-73.877 68.75-77.6123Q66.6504-81.3477 62.7441-83.7646Q58.8379-86.1816 53.3203-86.1816Q47.7539-86.1816 43.8477-83.7646Q39.9414-81.3477 37.8662-77.6123Q35.791-73.877 35.6934-69.7754L24.9512-69.7754Q18.8477-69.7754 15.6494-66.5771Q12.4512-63.3789 12.4512-57.2266ZM14.8438-5.07812L14.8438-57.1289Q14.8438-62.207 17.4316-64.7949Q20.0195-67.3828 25.0977-67.3828L81.4453-67.3828Q86.3281-67.3828 89.0381-64.7949Q91.748-62.207 91.748-57.1289L91.748-5.07812Q91.748 0 89.0381 2.58789Q86.3281 5.17578 81.4453 5.17578L25.0977 5.17578Q20.0195 5.17578 17.4316 2.58789Q14.8438 0 14.8438-5.07812ZM38.0859-69.7754Q38.1348-73.1934 39.8926-76.3916Q41.6504-79.5898 45.0195-81.665Q48.3887-83.7402 53.3203-83.7402Q58.2031-83.7402 61.5723-81.665Q64.9414-79.5898 66.6748-76.3916Q68.4082-73.1934 68.457-69.7754Z"/>
  </g>
  <g id="Black-S" transform="matrix(1 0 0 1 2885.99 696)">
   <path d="M9.76562-12.3047Q9.76562-5.12695 13.7939-1.09863Q17.8223 2.92969 25 2.92969L69.8242 2.92969Q77.002 2.92969 81.0303-1.09863Q85.0586-5.12695 85.0586-12.3047L85.0586-51.6602Q85.0586-58.8379 81.0303-62.8662Q77.002-66.8945 69.8242-66.8945L67.5293-66.8945Q67.5293-72.4609 64.8193-76.8311Q62.1094-81.2012 57.5684-83.7158Q53.0273-86.2305 47.4121-86.2305Q41.8457-86.2305 37.2803-83.7158Q32.7148-81.2012 30.0293-76.8311Q27.3438-72.4609 27.2949-66.8945L25-66.8945Q17.8223-66.8945 13.7939-62.8662Q9.76562-58.8379 9.76562-51.6602ZM23.9258-14.5508L23.9258-49.4141Q23.9258-51.2695 24.7559-52.002Q25.5859-52.7344 27.2461-52.7344L67.5781-52.7344Q69.2871-52.7344 70.0928-52.002Q70.8984-51.2695 70.8984-49.4141L70.8984-14.5508Q70.8984-12.7441 70.0928-11.9873Q69.2871-11.2305 67.5781-11.2305L27.2461-11.2305Q25.5859-11.2305 24.7559-11.9873Q23.9258-12.7441 23.9258-14.5508ZM39.9902-66.8945Q40.0391-69.3359 40.9424-71.2402Q41.8457-73.1445 43.5059-74.2188Q45.166-75.293 47.4121-75.293Q49.707-75.293 51.3428-74.2188Q52.9785-73.1445 53.9062-71.2402Q54.834-69.3359 54.834-66.8945Z"/>
  </g>
  <g id="Heavy-S" transform="matrix(1 0 0 1 2590.06 696)">
   <path d="M9.76562-12.207Q9.76562-5.27344 13.5742-1.46484Q17.3828 2.34375 24.3652 2.34375L69.2383 2.34375Q75.9766 2.34375 79.7363-1.46484Q83.4961-5.27344 83.4961-12.207L83.4961-51.5625Q83.4961-58.4961 79.6875-62.3047Q75.8789-66.1133 68.9453-66.1133L65.8691-66.1133Q65.8203-71.3379 63.208-75.4883Q60.5957-79.6387 56.2744-82.0557Q51.9531-84.4727 46.6309-84.4727Q41.3574-84.4727 37.0117-82.0557Q32.666-79.6387 30.0781-75.4883Q27.4902-71.3379 27.4414-66.1133L24.3652-66.1133Q17.3828-66.1133 13.5742-62.3047Q9.76562-58.4961 9.76562-51.5625ZM22.2656-14.0137L22.2656-49.7559Q22.2656-51.8555 23.2178-52.7344Q24.1699-53.6133 26.0742-53.6133L67.1875-53.6133Q69.0918-53.6133 70.0684-52.7344Q71.0449-51.8555 71.0449-49.7559L71.0449-14.0137Q71.0449-11.9629 70.1172-11.0596Q69.1895-10.1562 67.5293-10.1562L26.0742-10.1562Q24.1699-10.1562 23.2178-11.0596Q22.2656-11.9629 22.2656-14.0137ZM38.7695-66.1133Q38.8184-68.5547 39.8193-70.459Q40.8203-72.3633 42.5781-73.4619Q44.3359-74.5605 46.6309-74.5605Q48.9746-74.5605 50.708-73.4619Q52.4414-72.3633 53.4424-70.459Q54.4434-68.5547 54.4922-66.1133Z"/>
  </g>
  <g id="Bold-S" transform="matrix(1 0 0 1 2294.2 696)">
   <path d="M9.76562-12.1094Q9.76562-5.46875 13.3545-1.9043Q16.9434 1.66016 23.6328 1.66016L68.6035 1.66016Q74.8047 1.66016 78.2959-1.9043Q81.7871-5.46875 81.7871-12.1094L81.7871-51.4648Q81.7871-58.1055 78.1982-61.6699Q74.6094-65.2344 67.9199-65.2344L63.9648-65.2344Q63.916-70.0684 61.4258-73.999Q58.9355-77.9297 54.834-80.2246Q50.7324-82.5195 45.752-82.5195Q40.8203-82.5195 36.7188-80.2246Q32.6172-77.9297 30.1514-73.999Q27.6855-70.0684 27.5879-65.2344L23.6328-65.2344Q16.9434-65.2344 13.3545-61.6699Q9.76562-58.1055 9.76562-51.4648ZM20.3613-13.4277L20.3613-50.1465Q20.3613-52.4902 21.5088-53.54Q22.6562-54.5898 24.8047-54.5898L66.748-54.5898Q68.9453-54.5898 70.0684-53.54Q71.1914-52.4902 71.1914-50.1465L71.1914-13.4277Q71.1914-11.1328 70.1416-10.0586Q69.0918-8.98438 67.4316-8.98438L24.8047-8.98438Q22.6562-8.98438 21.5088-10.0586Q20.3613-11.1328 20.3613-13.4277ZM37.4512-65.2344Q37.5-67.6758 38.5986-69.6045Q39.6973-71.5332 41.5527-72.6318Q43.4082-73.7305 45.752-73.7305Q48.1445-73.7305 50-72.6318Q51.8555-71.5332 52.9541-69.6045Q54.0527-67.6758 54.1016-65.2344Z"/>
  </g>
  <g id="Semibold-S" transform="matrix(1 0 0 1 1998.1 696)">
   <path d="M9.76562-12.0605Q9.76562-5.56641 13.1836-2.17285Q16.6016 1.2207 23.0957 1.2207L68.1641 1.2207Q74.0234 1.2207 77.2949-2.17285Q80.5664-5.56641 80.5664-12.0605L80.5664-51.3672Q80.5664-57.8613 77.1484-61.2305Q73.7305-64.5996 67.2363-64.5996L62.6465-64.5996Q62.5488-69.1895 60.1562-72.9492Q57.7637-76.709 53.833-78.9307Q49.9023-81.1523 45.166-81.1523Q40.4297-81.1523 36.499-78.9307Q32.5684-76.709 30.1758-72.9492Q27.7832-69.1895 27.6855-64.5996L23.0957-64.5996Q16.6016-64.5996 13.1836-61.2305Q9.76562-57.8613 9.76562-51.3672ZM19.043-12.9883L19.043-50.3906Q19.043-52.8809 20.2881-54.0771Q21.5332-55.2734 23.877-55.2734L66.4551-55.2734Q68.7988-55.2734 70.0439-54.0771Q71.2891-52.8809 71.2891-50.3906L71.2891-12.9883Q71.2891-10.498 70.166-9.32617Q69.043-8.1543 67.3828-8.1543L23.877-8.1543Q21.5332-8.1543 20.2881-9.32617Q19.043-10.498 19.043-12.9883ZM36.4746-64.5996Q36.5723-67.041 37.7197-68.9697Q38.8672-70.8984 40.8203-72.0215Q42.7734-73.1445 45.166-73.1445Q47.5586-73.1445 49.4873-72.0215Q51.416-70.8984 52.5635-68.9697Q53.7109-67.041 53.8086-64.5996Z"/>
  </g>
  <g id="Medium-S" transform="matrix(1 0 0 1 1701.85 696)">
   <path d="M9.76562-11.9629Q9.76562-5.66406 13.0615-2.41699Q16.3574 0.830078 22.7051 0.830078L67.8223 0.830078Q73.3887 0.830078 76.5137-2.41699Q79.6387-5.66406 79.6387-11.9629L79.6387-51.3184Q79.6387-57.6172 76.3672-60.8643Q73.0957-64.1113 66.6992-64.1113L61.6699-64.1113Q61.5723-68.5547 59.2285-72.168Q56.8848-75.7812 53.0762-77.9541Q49.2676-80.127 44.6777-80.127Q40.1855-80.127 36.3525-77.9541Q32.5195-75.7812 30.2002-72.168Q27.8809-68.5547 27.7344-64.1113L22.7051-64.1113Q16.3574-64.1113 13.0615-60.8643Q9.76562-57.6172 9.76562-51.3184ZM18.0664-12.6465L18.0664-50.6348Q18.0664-53.2227 19.4092-54.4922Q20.752-55.7617 23.1934-55.7617L66.2109-55.7617Q68.7012-55.7617 70.0195-54.4922Q71.3379-53.2227 71.3379-50.6348L71.3379-12.6465Q71.3379-10.0586 70.1416-8.78906Q68.9453-7.51953 67.334-7.51953L23.1934-7.51953Q20.752-7.51953 19.4092-8.78906Q18.0664-10.0586 18.0664-12.6465ZM35.791-64.1113Q35.8887-66.5527 37.085-68.5059Q38.2812-70.459 40.2832-71.6064Q42.2852-72.7539 44.6777-72.7539Q47.168-72.7539 49.1211-71.6064Q51.0742-70.459 52.2949-68.5059Q53.5156-66.5527 53.6133-64.1113Z"/>
  </g>
  <g id="Regular-S" transform="matrix(1 0 0 1 1405.73 696)">
   <path d="M9.76562-11.9141Q9.76562-5.76172 12.8906-2.68555Q16.0156 0.390625 22.2168 0.390625L67.3828 0.390625Q72.6074 0.390625 75.5371-2.68555Q78.4668-5.76172 78.4668-11.9141L78.4668-51.2207Q78.4668-57.373 75.3418-60.4492Q72.2168-63.5254 66.0156-63.5254L60.4004-63.5254Q60.2539-67.6758 58.0078-71.1426Q55.7617-74.6094 52.0996-76.709Q48.4375-78.8086 44.0918-78.8086Q39.7949-78.8086 36.1328-76.709Q32.4707-74.6094 30.2246-71.1426Q27.9785-67.6758 27.832-63.5254L22.2168-63.5254Q16.0156-63.5254 12.8906-60.4492Q9.76562-57.373 9.76562-51.2207ZM16.7969-12.2559L16.7969-50.8789Q16.7969-53.6621 18.2373-55.0537Q19.6777-56.4453 22.3145-56.4453L65.918-56.4453Q68.5547-56.4453 69.9951-55.0537Q71.4355-53.6621 71.4355-50.8789L71.4355-12.2559Q71.4355-9.47266 70.166-8.08105Q68.8965-6.68945 67.2852-6.68945L22.3145-6.68945Q19.6777-6.68945 18.2373-8.08105Q16.7969-9.47266 16.7969-12.2559ZM34.8633-63.5254Q34.9609-65.9668 36.2305-67.9199Q37.5-69.873 39.5752-71.0205Q41.6504-72.168 44.0918-72.168Q46.582-72.168 48.6328-71.0205Q50.6836-69.873 51.9531-67.9199Q53.2227-65.9668 53.3203-63.5254Z"/>
  </g>
  <g id="Light-S" transform="matrix(1 0 0 1 1109.75 696)">
   <path d="M9.76562-11.8164Q9.76562-6.05469 12.6953-3.14941Q15.625-0.244141 21.3867-0.244141L66.3086-0.244141Q71.3867-0.244141 74.1943-3.17383Q77.002-6.10352 77.002-11.8164L77.002-51.6113Q77.002-57.3242 74.0723-60.2295Q71.1426-63.1348 65.3809-63.1348L58.8867-63.1348Q58.7891-66.9922 56.7139-70.3125Q54.6387-73.6328 51.1719-75.6348Q47.7051-77.6367 43.3594-77.6367Q39.0625-77.6367 35.5957-75.6348Q32.1289-73.6328 30.0537-70.3125Q27.9785-66.9922 27.8809-63.1348L21.3867-63.1348Q15.625-63.1348 12.6953-60.2295Q9.76562-57.3242 9.76562-51.6113ZM15.1855-12.0605L15.1855-51.3672Q15.1855-54.4922 16.8213-56.0791Q18.457-57.666 21.4844-57.666L65.2832-57.666Q68.2617-57.666 69.9219-56.0791Q71.582-54.4922 71.582-51.3672L71.582-12.0605Q71.582-8.88672 70.0439-7.2998Q68.5059-5.71289 66.2109-5.71289L21.4844-5.71289Q18.457-5.71289 16.8213-7.2998Q15.1855-8.88672 15.1855-12.0605ZM33.3008-63.1348Q33.3984-65.625 34.6924-67.7734Q35.9863-69.9219 38.2324-71.2158Q40.4785-72.5098 43.3594-72.5098Q46.2891-72.5098 48.5107-71.2158Q50.7324-69.9219 52.0264-67.7734Q53.3203-65.625 53.418-63.1348Z"/>
  </g>
  <g id="Thin-S" transform="matrix(1 0 0 1 814.015 696)">
   <path d="M9.76562-11.6211Q9.76562-6.44531 12.4268-3.78418Q15.0879-1.12305 20.3125-1.12305L64.8438-1.12305Q69.7754-1.12305 72.4121-3.80859Q75.0488-6.49414 75.0488-11.6211L75.0488-52.1484Q75.0488-57.2266 72.3633-59.9121Q69.6777-62.5977 64.502-62.5977L56.8848-62.5977Q56.7871-66.1133 54.9805-69.1895Q53.1738-72.2656 49.9512-74.1943Q46.7285-76.123 42.3828-76.123Q38.0859-76.123 34.8633-74.1943Q31.6406-72.2656 29.834-69.1895Q28.0273-66.1133 27.9297-62.5977L20.3125-62.5977Q15.0879-62.5977 12.4268-59.9609Q9.76562-57.3242 9.76562-52.1484ZM13.0859-11.8164L13.0859-51.9531Q13.0859-55.6152 14.9414-57.4707Q16.7969-59.3262 20.4102-59.3262L64.4043-59.3262Q67.9199-59.3262 69.8242-57.4707Q71.7285-55.6152 71.7285-51.9531L71.7285-11.8164Q71.7285-8.1543 69.8486-6.29883Q67.9688-4.44336 64.7461-4.44336L20.4102-4.44336Q16.7969-4.44336 14.9414-6.29883Q13.0859-8.1543 13.0859-11.8164ZM31.25-62.5977Q31.2988-65.2344 32.6416-67.5781Q33.9844-69.9219 36.4746-71.4355Q38.9648-72.9492 42.3828-72.9492Q45.8984-72.9492 48.3643-71.4355Q50.8301-69.9219 52.1729-67.5781Q53.5156-65.2344 53.5645-62.5977Z"/>
  </g>
  <g id="Ultralight-S" transform="matrix(1 0 0 1 517.792 696)">
   <path d="M9.76562-11.5723Q9.76562-6.64062 12.3047-4.10156Q14.8438-1.5625 19.7754-1.5625L64.1113-1.5625Q68.9941-1.5625 71.5332-4.15039Q74.0723-6.73828 74.0723-11.5723L74.0723-52.3926Q74.0723-57.1777 71.5088-59.7656Q68.9453-62.3535 64.0625-62.3535L55.8594-62.3535Q55.8105-65.625 54.126-68.6279Q52.4414-71.6309 49.3408-73.4863Q46.2402-75.3418 41.8945-75.3418Q37.5488-75.3418 34.4727-73.4863Q31.3965-71.6309 29.7119-68.6279Q28.0273-65.625 27.9785-62.3535L19.7754-62.3535Q14.8438-62.3535 12.3047-59.8145Q9.76562-57.2754 9.76562-52.3926ZM11.9629-11.6699L11.9629-52.2949Q11.9629-56.1523 13.9648-58.1543Q15.9668-60.1562 19.873-60.1562L63.9648-60.1562Q67.7246-60.1562 69.7754-58.1543Q71.8262-56.1523 71.8262-52.2949L71.8262-11.6699Q71.8262-7.76367 69.7754-5.76172Q67.7246-3.75977 64.0137-3.75977L19.873-3.75977Q15.9668-3.75977 13.9648-5.76172Q11.9629-7.76367 11.9629-11.6699ZM30.1758-62.3535Q30.2246-64.9902 31.5918-67.4805Q32.959-69.9707 35.5469-71.5576Q38.1348-73.1445 41.8945-73.1445Q45.6543-73.1445 48.2666-71.5576Q50.8789-69.9707 52.2217-67.4805Q53.5645-64.9902 53.6621-62.3535Z"/>
  </g>
 </g>
</svg>
