<?xml version="1.0" encoding="UTF-8"?>
<!--Generator: Apple Native CoreSVG 175-->
<!DOCTYPE svg
PUBLIC "-//W3C//DTD SVG 1.1//EN"
       "http://www.w3.org/Graphics/SVG/1.1/DTD/svg11.dtd">
<svg version="1.1" xmlns="http://www.w3.org/2000/svg" xmlns:xlink="http://www.w3.org/1999/xlink" width="3300" height="2200">
 <!--glyph: "uni1003C6.medium", point size: 100.0, font version: "17.0d11e1", template writer version: "65.1"-->
 <g id="Notes">
  <rect height="2200" id="artboard" style="fill:white;opacity:1" width="3300" x="0" y="0"/>
  <line style="fill:none;stroke:black;opacity:1;stroke-width:0.5;" x1="263" x2="3036" y1="292" y2="292"/>
  <text style="stroke:none;fill:black;font-family:sans-serif;font-size:13;font-weight:bold;" transform="matrix(1 0 0 1 263 322)">Weight/Scale Variations</text>
  <text style="stroke:none;fill:black;font-family:sans-serif;font-size:13;text-anchor:middle;" transform="matrix(1 0 0 1 559.711 322)">Ultralight</text>
  <text style="stroke:none;fill:black;font-family:sans-serif;font-size:13;text-anchor:middle;" transform="matrix(1 0 0 1 856.422 322)">Thin</text>
  <text style="stroke:none;fill:black;font-family:sans-serif;font-size:13;text-anchor:middle;" transform="matrix(1 0 0 1 1153.13 322)">Light</text>
  <text style="stroke:none;fill:black;font-family:sans-serif;font-size:13;text-anchor:middle;" transform="matrix(1 0 0 1 1449.84 322)">Regular</text>
  <text style="stroke:none;fill:black;font-family:sans-serif;font-size:13;text-anchor:middle;" transform="matrix(1 0 0 1 1746.56 322)">Medium</text>
  <text style="stroke:none;fill:black;font-family:sans-serif;font-size:13;text-anchor:middle;" transform="matrix(1 0 0 1 2043.27 322)">Semibold</text>
  <text style="stroke:none;fill:black;font-family:sans-serif;font-size:13;text-anchor:middle;" transform="matrix(1 0 0 1 2339.98 322)">Bold</text>
  <text style="stroke:none;fill:black;font-family:sans-serif;font-size:13;text-anchor:middle;" transform="matrix(1 0 0 1 2636.69 322)">Heavy</text>
  <text style="stroke:none;fill:black;font-family:sans-serif;font-size:13;text-anchor:middle;" transform="matrix(1 0 0 1 2933.4 322)">Black</text>
  <line style="fill:none;stroke:black;opacity:1;stroke-width:0.5;" x1="263" x2="3036" y1="1903" y2="1903"/>
  <g transform="matrix(1 0 0 1 263 1933)">
   <path d="M9.24805 0.830078Q10.8691 0.830078 12.2949 0.214844Q13.7207-0.400391 14.8096-1.49414Q15.8984-2.58789 16.5186-4.01367Q17.1387-5.43945 17.1387-7.05078Q17.1387-8.66211 16.5186-10.0879Q15.8984-11.5137 14.8047-12.6074Q13.7109-13.7012 12.2852-14.3164Q10.8594-14.9316 9.23828-14.9316Q7.62695-14.9316 6.20117-14.3164Q4.77539-13.7012 3.69141-12.6074Q2.60742-11.5137 1.9873-10.0879Q1.36719-8.66211 1.36719-7.05078Q1.36719-5.43945 1.9873-4.01367Q2.60742-2.58789 3.69629-1.49414Q4.78516-0.400391 6.21094 0.214844Q7.63672 0.830078 9.24805 0.830078ZM9.24805-0.654297Q7.91992-0.654297 6.7627-1.14746Q5.60547-1.64062 4.73145-2.51953Q3.85742-3.39844 3.36426-4.56055Q2.87109-5.72266 2.87109-7.05078Q2.87109-8.37891 3.35938-9.54102Q3.84766-10.7031 4.72168-11.582Q5.5957-12.4609 6.75293-12.9541Q7.91016-13.4473 9.23828-13.4473Q10.5762-13.4473 11.7334-12.9541Q12.8906-12.4609 13.7695-11.582Q14.6484-10.7031 15.1465-9.54102Q15.6445-8.37891 15.6445-7.05078Q15.6445-5.72266 15.1514-4.56055Q14.6582-3.39844 13.7842-2.51953Q12.9102-1.64062 11.748-1.14746Q10.5859-0.654297 9.24805-0.654297ZM5.6543-7.05078Q5.6543-6.72852 5.85938-6.52832Q6.06445-6.32812 6.40625-6.32812L8.51562-6.32812L8.51562-4.20898Q8.51562-3.88672 8.71094-3.67676Q8.90625-3.4668 9.23828-3.4668Q9.56055-3.4668 9.77051-3.67676Q9.98047-3.88672 9.98047-4.20898L9.98047-6.32812L12.0898-6.32812Q12.4219-6.32812 12.627-6.52832Q12.832-6.72852 12.832-7.05078Q12.832-7.38281 12.627-7.58789Q12.4219-7.79297 12.0898-7.79297L9.98047-7.79297L9.98047-9.90234Q9.98047-10.2344 9.77051-10.4443Q9.56055-10.6543 9.23828-10.6543Q8.90625-10.6543 8.71094-10.4443Q8.51562-10.2344 8.51562-9.90234L8.51562-7.79297L6.40625-7.79297Q6.06445-7.79297 5.85938-7.58789Q5.6543-7.38281 5.6543-7.05078Z"/>
  </g>
  <g transform="matrix(1 0 0 1 281.867 1933)">
   <path d="M11.709 2.91016Q13.75 2.91016 15.5518 2.12891Q17.3535 1.34766 18.7305-0.0292969Q20.1074-1.40625 20.8887-3.20801Q21.6699-5.00977 21.6699-7.05078Q21.6699-9.0918 20.8887-10.8936Q20.1074-12.6953 18.7305-14.0723Q17.3535-15.4492 15.5469-16.2305Q13.7402-17.0117 11.6992-17.0117Q9.6582-17.0117 7.85645-16.2305Q6.05469-15.4492 4.68262-14.0723Q3.31055-12.6953 2.5293-10.8936Q1.74805-9.0918 1.74805-7.05078Q1.74805-5.00977 2.5293-3.20801Q3.31055-1.40625 4.6875-0.0292969Q6.06445 1.34766 7.86621 2.12891Q9.66797 2.91016 11.709 2.91016ZM11.709 1.25Q9.98047 1.25 8.47656 0.605469Q6.97266-0.0390625 5.83496-1.17676Q4.69727-2.31445 4.05762-3.81836Q3.41797-5.32227 3.41797-7.05078Q3.41797-8.7793 4.05762-10.2832Q4.69727-11.7871 5.83008-12.9297Q6.96289-14.0723 8.4668-14.7119Q9.9707-15.3516 11.6992-15.3516Q13.4277-15.3516 14.9316-14.7119Q16.4355-14.0723 17.5781-12.9297Q18.7207-11.7871 19.3652-10.2832Q20.0098-8.7793 20.0098-7.05078Q20.0098-5.32227 19.3701-3.81836Q18.7305-2.31445 17.5928-1.17676Q16.4551-0.0390625 14.9463 0.605469Q13.4375 1.25 11.709 1.25ZM7.17773-7.05078Q7.17773-6.69922 7.41211-6.47461Q7.64648-6.25 8.01758-6.25L10.8887-6.25L10.8887-3.36914Q10.8887-2.99805 11.1133-2.76855Q11.3379-2.53906 11.6895-2.53906Q12.0605-2.53906 12.29-2.76855Q12.5195-2.99805 12.5195-3.36914L12.5195-6.25L15.4004-6.25Q15.7715-6.25 16.001-6.47461Q16.2305-6.69922 16.2305-7.05078Q16.2305-7.42188 16.001-7.65137Q15.7715-7.88086 15.4004-7.88086L12.5195-7.88086L12.5195-10.752Q12.5195-11.1328 12.29-11.3623Q12.0605-11.5918 11.6895-11.5918Q11.3379-11.5918 11.1133-11.3574Q10.8887-11.123 10.8887-10.752L10.8887-7.88086L8.01758-7.88086Q7.63672-7.88086 7.40723-7.65137Q7.17773-7.42188 7.17773-7.05078Z"/>
  </g>
  <g transform="matrix(1 0 0 1 305.646 1933)">
   <path d="M14.9707 5.66406Q17.0605 5.66406 18.96 5.01465Q20.8594 4.36523 22.4512 3.19336Q24.043 2.02148 25.2197 0.429688Q26.3965-1.16211 27.0459-3.06641Q27.6953-4.9707 27.6953-7.05078Q27.6953-9.14062 27.0459-11.04Q26.3965-12.9395 25.2197-14.5312Q24.043-16.123 22.4512-17.2998Q20.8594-18.4766 18.9551-19.126Q17.0508-19.7754 14.9609-19.7754Q12.8711-19.7754 10.9717-19.126Q9.07227-18.4766 7.48535-17.2998Q5.89844-16.123 4.72168-14.5312Q3.54492-12.9395 2.90039-11.04Q2.25586-9.14062 2.25586-7.05078Q2.25586-4.9707 2.90527-3.06641Q3.55469-1.16211 4.72656 0.429688Q5.89844 2.02148 7.49023 3.19336Q9.08203 4.36523 10.9814 5.01465Q12.8809 5.66406 14.9707 5.66406ZM14.9707 3.84766Q13.1641 3.84766 11.5283 3.2959Q9.89258 2.74414 8.53516 1.74805Q7.17773 0.751953 6.17676-0.610352Q5.17578-1.97266 4.62891-3.6084Q4.08203-5.24414 4.08203-7.05078Q4.08203-8.86719 4.62891-10.5029Q5.17578-12.1387 6.17188-13.501Q7.16797-14.8633 8.52539-15.8594Q9.88281-16.8555 11.5186-17.4023Q13.1543-17.9492 14.9609-17.9492Q16.7773-17.9492 18.4131-17.4023Q20.0488-16.8555 21.4111-15.8594Q22.7734-14.8633 23.7695-13.501Q24.7656-12.1387 25.3174-10.5029Q25.8691-8.86719 25.8691-7.05078Q25.8789-5.24414 25.332-3.6084Q24.7852-1.97266 23.7842-0.610352Q22.7832 0.751953 21.4209 1.74805Q20.0586 2.74414 18.4229 3.2959Q16.7871 3.84766 14.9707 3.84766ZM9.19922-7.05078Q9.19922-6.66992 9.45801-6.4209Q9.7168-6.17188 10.1172-6.17188L14.0625-6.17188L14.0625-2.2168Q14.0625-1.81641 14.3115-1.55762Q14.5605-1.29883 14.9512-1.29883Q15.3516-1.29883 15.6104-1.55273Q15.8691-1.80664 15.8691-2.2168L15.8691-6.17188L19.8242-6.17188Q20.2246-6.17188 20.4785-6.4209Q20.7324-6.66992 20.7324-7.05078Q20.7324-7.46094 20.4785-7.71484Q20.2246-7.96875 19.8242-7.96875L15.8691-7.96875L15.8691-11.9141Q15.8691-12.3242 15.6104-12.583Q15.3516-12.8418 14.9512-12.8418Q14.5605-12.8418 14.3115-12.583Q14.0625-12.3242 14.0625-11.9141L14.0625-7.96875L10.1172-7.96875Q9.70703-7.96875 9.45312-7.71484Q9.19922-7.46094 9.19922-7.05078Z"/>
  </g>
  <text style="stroke:none;fill:black;font-family:sans-serif;font-size:13;font-weight:bold;" transform="matrix(1 0 0 1 263 1953)">Design Variations</text>
  <text style="stroke:none;fill:black;font-family:sans-serif;font-size:13;" transform="matrix(1 0 0 1 263 1971)">Symbols are supported in up to nine weights and three scales.</text>
  <text style="stroke:none;fill:black;font-family:sans-serif;font-size:13;" transform="matrix(1 0 0 1 263 1989)">For optimal layout with text and other symbols, vertically align</text>
  <text style="stroke:none;fill:black;font-family:sans-serif;font-size:13;" transform="matrix(1 0 0 1 263 2007)">symbols with the adjacent text.</text>
  <line style="fill:none;stroke:#00AEEF;stroke-width:0.5;opacity:1.0;" x1="776" x2="776" y1="1919" y2="1933"/>
  <g transform="matrix(1 0 0 1 776 1933)">
   <path d="M3.31055 0.15625Q3.70117 0.15625 3.91602-0.00976562Q4.13086-0.175781 4.26758-0.585938L5.52734-4.0332L11.2891-4.0332L12.5488-0.585938Q12.6855-0.175781 12.9004-0.00976562Q13.1152 0.15625 13.4961 0.15625Q13.8867 0.15625 14.1162-0.0585938Q14.3457-0.273438 14.3457-0.644531Q14.3457-0.869141 14.2383-1.17188L9.6582-13.3691Q9.48242-13.8184 9.17969-14.043Q8.87695-14.2676 8.4082-14.2676Q7.5-14.2676 7.17773-13.3789L2.59766-1.16211Q2.49023-0.859375 2.49023-0.634766Q2.49023-0.263672 2.70996-0.0537109Q2.92969 0.15625 3.31055 0.15625ZM6.00586-5.51758L8.37891-12.0898L8.42773-12.0898L10.8008-5.51758Z"/>
  </g>
  <line style="fill:none;stroke:#00AEEF;stroke-width:0.5;opacity:1.0;" x1="793.197" x2="793.197" y1="1919" y2="1933"/>
  <text style="stroke:none;fill:black;font-family:sans-serif;font-size:13;font-weight:bold;" transform="matrix(1 0 0 1 776 1953)">Margins</text>
  <text style="stroke:none;fill:black;font-family:sans-serif;font-size:13;" transform="matrix(1 0 0 1 776 1971)">Leading and trailing margins on the left and right side of each symbol</text>
  <text style="stroke:none;fill:black;font-family:sans-serif;font-size:13;" transform="matrix(1 0 0 1 776 1989)">can be adjusted by modifying the x-location of the margin guidelines.</text>
  <text style="stroke:none;fill:black;font-family:sans-serif;font-size:13;" transform="matrix(1 0 0 1 776 2007)">Modifications are automatically applied proportionally to all</text>
  <text style="stroke:none;fill:black;font-family:sans-serif;font-size:13;" transform="matrix(1 0 0 1 776 2025)">scales and weights.</text>
  <g transform="matrix(1 0 0 1 1289 1933)">
   <path d="M2.8418 1.86523L4.54102 3.57422Q5.18555 4.22852 5.90332 4.17969Q6.62109 4.13086 7.31445 3.35938L18.0078-8.42773L17.041-9.4043L6.42578 2.27539Q6.16211 2.57812 5.89355 2.61719Q5.625 2.65625 5.27344 2.30469L4.10156 1.14258Q3.75 0.791016 3.79395 0.522461Q3.83789 0.253906 4.14062-0.0195312L15.6152-10.8203L14.6387-11.7871L3.04688-0.898438Q2.30469-0.214844 2.25098 0.498047Q2.19727 1.21094 2.8418 1.86523ZM9.25781-16.3281Q8.94531-16.0254 8.90625-15.6348Q8.86719-15.2441 9.04297-14.9512Q9.21875-14.6777 9.55566-14.541Q9.89258-14.4043 10.3809-14.5215Q11.4746-14.7754 12.5977-14.7314Q13.7207-14.6875 14.7949-13.9844L14.209-12.5293Q13.9551-11.9043 14.0674-11.4404Q14.1797-10.9766 14.5801-10.5664L16.875-8.25195Q17.2363-7.88086 17.5781-7.82227Q17.9199-7.76367 18.3398-7.8418L19.4043-8.03711L20.0684-7.36328L20.0293-6.80664Q20-6.43555 20.1221-6.12305Q20.2441-5.81055 20.6055-5.44922L21.3672-4.70703Q21.7285-4.3457 22.1533-4.33105Q22.5781-4.31641 22.9297-4.66797L25.8398-7.58789Q26.1914-7.93945 26.1816-8.35449Q26.1719-8.76953 25.8105-9.13086L25.0391-9.89258Q24.6875-10.2539 24.3799-10.3857Q24.0723-10.5176 23.7109-10.4883L23.1348-10.4395L22.4902-11.0742L22.7344-12.1973Q22.832-12.6172 22.6953-12.9834Q22.5586-13.3496 22.1191-13.7891L19.9219-15.9766Q18.6719-17.2168 17.2607-17.8369Q15.8496-18.457 14.4189-18.4814Q12.9883-18.5059 11.665-17.959Q10.3418-17.4121 9.25781-16.3281ZM10.752-15.957Q11.6602-16.6211 12.7002-16.9043Q13.7402-17.1875 14.8047-17.085Q15.8691-16.9824 16.8701-16.5137Q17.8711-16.0449 18.7012-15.2051L21.1328-12.793Q21.3086-12.6172 21.3525-12.4512Q21.3965-12.2852 21.3379-12.0312L21.0156-10.5469L22.5195-9.0625L23.5059-9.12109Q23.6914-9.13086 23.7891-9.09668Q23.8867-9.0625 24.0332-8.91602L24.6094-8.33984L22.168-5.89844L21.5918-6.47461Q21.4453-6.62109 21.4062-6.71875Q21.3672-6.81641 21.377-7.01172L21.4453-7.98828L19.9512-9.47266L18.4277-9.21875Q18.1836-9.16992 18.042-9.2041Q17.9004-9.23828 17.7148-9.41406L15.7129-11.416Q15.5176-11.5918 15.4932-11.7529Q15.4688-11.9141 15.5859-12.1875L16.4648-14.2773Q15.293-15.3711 13.8281-15.791Q12.3633-16.2109 10.8398-15.7617Q10.7227-15.7324 10.6885-15.8057Q10.6543-15.8789 10.752-15.957Z"/>
  </g>
  <text style="stroke:none;fill:black;font-family:sans-serif;font-size:13;font-weight:bold;" transform="matrix(1 0 0 1 1289 1953)">Exporting</text>
  <text style="stroke:none;fill:black;font-family:sans-serif;font-size:13;" transform="matrix(1 0 0 1 1289 1971)">Symbols should be outlined when exporting to ensure the</text>
  <text style="stroke:none;fill:black;font-family:sans-serif;font-size:13;" transform="matrix(1 0 0 1 1289 1989)">design is preserved when submitting to Xcode.</text>
  <text id="template-version" style="stroke:none;fill:black;font-family:sans-serif;font-size:13;text-anchor:end;" transform="matrix(1 0 0 1 3036 1933)">Template v.3.0</text>
  <text style="stroke:none;fill:black;font-family:sans-serif;font-size:13;text-anchor:end;" transform="matrix(1 0 0 1 3036 1951)">Requires Xcode 13 or greater</text>
  <text id="descriptive-name" style="stroke:none;fill:black;font-family:sans-serif;font-size:13;text-anchor:end;" transform="matrix(1 0 0 1 3036 1969)">Generated from photo.fill</text>
  <text style="stroke:none;fill:black;font-family:sans-serif;font-size:13;text-anchor:end;" transform="matrix(1 0 0 1 3036 1987)">Typeset at 100 points</text>
  <text style="stroke:none;fill:black;font-family:sans-serif;font-size:13;" transform="matrix(1 0 0 1 263 726)">Small</text>
  <text style="stroke:none;fill:black;font-family:sans-serif;font-size:13;" transform="matrix(1 0 0 1 263 1156)">Medium</text>
  <text style="stroke:none;fill:black;font-family:sans-serif;font-size:13;" transform="matrix(1 0 0 1 263 1586)">Large</text>
 </g>
 <g id="Guides">
  <g id="H-reference" style="fill:#27AAE1;stroke:none;" transform="matrix(1 0 0 1 339 696)">
   <path d="M0.976562 0L3.66211 0L29.3457-67.1387L30.0293-67.1387L30.0293-70.459L28.125-70.459ZM11.6699-24.4629L46.9727-24.4629L46.2402-26.709L12.4512-26.709ZM55.127 0L57.7637 0L30.6152-70.459L29.4434-70.459L29.4434-67.1387Z"/>
  </g>
  <line id="Baseline-S" style="fill:none;stroke:#27AAE1;opacity:1;stroke-width:0.5;" x1="263" x2="3036" y1="696" y2="696"/>
  <line id="Capline-S" style="fill:none;stroke:#27AAE1;opacity:1;stroke-width:0.5;" x1="263" x2="3036" y1="625.541" y2="625.541"/>
  <g id="H-reference" style="fill:#27AAE1;stroke:none;" transform="matrix(1 0 0 1 339 1126)">
   <path d="M0.976562 0L3.66211 0L29.3457-67.1387L30.0293-67.1387L30.0293-70.459L28.125-70.459ZM11.6699-24.4629L46.9727-24.4629L46.2402-26.709L12.4512-26.709ZM55.127 0L57.7637 0L30.6152-70.459L29.4434-70.459L29.4434-67.1387Z"/>
  </g>
  <line id="Baseline-M" style="fill:none;stroke:#27AAE1;opacity:1;stroke-width:0.5;" x1="263" x2="3036" y1="1126" y2="1126"/>
  <line id="Capline-M" style="fill:none;stroke:#27AAE1;opacity:1;stroke-width:0.5;" x1="263" x2="3036" y1="1055.54" y2="1055.54"/>
  <g id="H-reference" style="fill:#27AAE1;stroke:none;" transform="matrix(1 0 0 1 339 1556)">
   <path d="M0.976562 0L3.66211 0L29.3457-67.1387L30.0293-67.1387L30.0293-70.459L28.125-70.459ZM11.6699-24.4629L46.9727-24.4629L46.2402-26.709L12.4512-26.709ZM55.127 0L57.7637 0L30.6152-70.459L29.4434-70.459L29.4434-67.1387Z"/>
  </g>
  <line id="Baseline-L" style="fill:none;stroke:#27AAE1;opacity:1;stroke-width:0.5;" x1="263" x2="3036" y1="1556" y2="1556"/>
  <line id="Capline-L" style="fill:none;stroke:#27AAE1;opacity:1;stroke-width:0.5;" x1="263" x2="3036" y1="1485.54" y2="1485.54"/>
  <line id="left-margin-Ultralight-S" style="fill:none;stroke:#00AEEF;stroke-width:0.5;opacity:1.0;" x1="505.707" x2="505.707" y1="600.785" y2="720.121"/>
  <line id="right-margin-Ultralight-S" style="fill:none;stroke:#00AEEF;stroke-width:0.5;opacity:1.0;" x1="613.715" x2="613.715" y1="600.785" y2="720.121"/>
  <line id="left-margin-Thin-S" style="fill:none;stroke:#00AEEF;stroke-width:0.5;opacity:1.0;" x1="802.174" x2="802.174" y1="600.785" y2="720.121"/>
  <line id="right-margin-Thin-S" style="fill:none;stroke:#00AEEF;stroke-width:0.5;opacity:1.0;" x1="910.67" x2="910.67" y1="600.785" y2="720.121"/>
  <line id="left-margin-Light-S" style="fill:none;stroke:#00AEEF;stroke-width:0.5;opacity:1.0;" x1="1098.42" x2="1098.42" y1="600.785" y2="720.121"/>
  <line id="right-margin-Light-S" style="fill:none;stroke:#00AEEF;stroke-width:0.5;opacity:1.0;" x1="1207.85" x2="1207.85" y1="600.785" y2="720.121"/>
  <line id="left-margin-Regular-S" style="fill:none;stroke:#00AEEF;stroke-width:0.5;opacity:1.0;" x1="1394.79" x2="1394.79" y1="600.785" y2="720.121"/>
  <line id="right-margin-Regular-S" style="fill:none;stroke:#00AEEF;stroke-width:0.5;opacity:1.0;" x1="1504.9" x2="1504.9" y1="600.785" y2="720.121"/>
  <line id="left-margin-Medium-S" style="fill:none;stroke:#00AEEF;stroke-width:0.5;opacity:1.0;" x1="1691.33" x2="1691.33" y1="600.785" y2="720.121"/>
  <line id="right-margin-Medium-S" style="fill:none;stroke:#00AEEF;stroke-width:0.5;opacity:1.0;" x1="1801.78" x2="1801.78" y1="600.785" y2="720.121"/>
  <line id="left-margin-Semibold-S" style="fill:none;stroke:#00AEEF;stroke-width:0.5;opacity:1.0;" x1="1987.9" x2="1987.9" y1="600.785" y2="720.121"/>
  <line id="right-margin-Semibold-S" style="fill:none;stroke:#00AEEF;stroke-width:0.5;opacity:1.0;" x1="2098.64" x2="2098.64" y1="600.785" y2="720.121"/>
  <line id="left-margin-Bold-S" style="fill:none;stroke:#00AEEF;stroke-width:0.5;opacity:1.0;" x1="2284.41" x2="2284.41" y1="600.785" y2="720.121"/>
  <line id="right-margin-Bold-S" style="fill:none;stroke:#00AEEF;stroke-width:0.5;opacity:1.0;" x1="2395.54" x2="2395.54" y1="600.785" y2="720.121"/>
  <line id="left-margin-Heavy-S" style="fill:none;stroke:#00AEEF;stroke-width:0.5;opacity:1.0;" x1="2580.88" x2="2580.88" y1="600.785" y2="720.121"/>
  <line id="right-margin-Heavy-S" style="fill:none;stroke:#00AEEF;stroke-width:0.5;opacity:1.0;" x1="2692.5" x2="2692.5" y1="600.785" y2="720.121"/>
  <line id="left-margin-Black-S" style="fill:none;stroke:#00AEEF;stroke-width:0.5;opacity:1.0;" x1="2877.35" x2="2877.35" y1="600.785" y2="720.121"/>
  <line id="right-margin-Black-S" style="fill:none;stroke:#00AEEF;stroke-width:0.5;opacity:1.0;" x1="2989.45" x2="2989.45" y1="600.785" y2="720.121"/>
  <line id="left-margin-Ultralight-M" style="fill:none;stroke:#00AEEF;stroke-width:0.5;opacity:1.0;" x1="490.863" x2="490.863" y1="1030.79" y2="1150.12"/>
  <line id="right-margin-Ultralight-M" style="fill:none;stroke:#00AEEF;stroke-width:0.5;opacity:1.0;" x1="628.559" x2="628.559" y1="1030.79" y2="1150.12"/>
  <line id="left-margin-Thin-M" style="fill:none;stroke:#00AEEF;stroke-width:0.5;opacity:1.0;" x1="787.306" x2="787.306" y1="1030.79" y2="1150.12"/>
  <line id="right-margin-Thin-M" style="fill:none;stroke:#00AEEF;stroke-width:0.5;opacity:1.0;" x1="925.538" x2="925.538" y1="1030.79" y2="1150.12"/>
  <line id="left-margin-Light-M" style="fill:none;stroke:#00AEEF;stroke-width:0.5;opacity:1.0;" x1="1083.5" x2="1083.5" y1="1030.79" y2="1150.12"/>
  <line id="right-margin-Light-M" style="fill:none;stroke:#00AEEF;stroke-width:0.5;opacity:1.0;" x1="1222.76" x2="1222.76" y1="1030.79" y2="1150.12"/>
  <line id="left-margin-Regular-M" style="fill:none;stroke:#00AEEF;stroke-width:0.5;opacity:1.0;" x1="1379.82" x2="1379.82" y1="1030.79" y2="1150.12"/>
  <line id="right-margin-Regular-M" style="fill:none;stroke:#00AEEF;stroke-width:0.5;opacity:1.0;" x1="1519.86" x2="1519.86" y1="1030.79" y2="1150.12"/>
  <line id="left-margin-Medium-M" style="fill:none;stroke:#00AEEF;stroke-width:0.5;opacity:1.0;" x1="1676.29" x2="1676.29" y1="1030.79" y2="1150.12"/>
  <line id="right-margin-Medium-M" style="fill:none;stroke:#00AEEF;stroke-width:0.5;opacity:1.0;" x1="1816.82" x2="1816.82" y1="1030.79" y2="1150.12"/>
  <line id="left-margin-Semibold-M" style="fill:none;stroke:#00AEEF;stroke-width:0.5;opacity:1.0;" x1="1972.81" x2="1972.81" y1="1030.79" y2="1150.12"/>
  <line id="right-margin-Semibold-M" style="fill:none;stroke:#00AEEF;stroke-width:0.5;opacity:1.0;" x1="2113.73" x2="2113.73" y1="1030.79" y2="1150.12"/>
  <line id="left-margin-Bold-M" style="fill:none;stroke:#00AEEF;stroke-width:0.5;opacity:1.0;" x1="2269.25" x2="2269.25" y1="1030.79" y2="1150.12"/>
  <line id="right-margin-Bold-M" style="fill:none;stroke:#00AEEF;stroke-width:0.5;opacity:1.0;" x1="2410.71" x2="2410.71" y1="1030.79" y2="1150.12"/>
  <line id="left-margin-Heavy-M" style="fill:none;stroke:#00AEEF;stroke-width:0.5;opacity:1.0;" x1="2565.6" x2="2565.6" y1="1030.79" y2="1150.12"/>
  <line id="right-margin-Heavy-M" style="fill:none;stroke:#00AEEF;stroke-width:0.5;opacity:1.0;" x1="2707.78" x2="2707.78" y1="1030.79" y2="1150.12"/>
  <line id="left-margin-Black-M" style="fill:none;stroke:#00AEEF;stroke-width:0.5;opacity:1.0;" x1="2861.96" x2="2861.96" y1="1030.79" y2="1150.12"/>
  <line id="right-margin-Black-M" style="fill:none;stroke:#00AEEF;stroke-width:0.5;opacity:1.0;" x1="3004.84" x2="3004.84" y1="1030.79" y2="1150.12"/>
  <line id="left-margin-Ultralight-L" style="fill:none;stroke:#00AEEF;stroke-width:0.5;opacity:1.0;" x1="471.015" x2="471.015" y1="1460.79" y2="1580.12"/>
  <line id="right-margin-Ultralight-L" style="fill:none;stroke:#00AEEF;stroke-width:0.5;opacity:1.0;" x1="648.407" x2="648.407" y1="1460.79" y2="1580.12"/>
  <line id="left-margin-Thin-L" style="fill:none;stroke:#00AEEF;stroke-width:0.5;opacity:1.0;" x1="767.409" x2="767.409" y1="1460.79" y2="1580.12"/>
  <line id="right-margin-Thin-L" style="fill:none;stroke:#00AEEF;stroke-width:0.5;opacity:1.0;" x1="945.436" x2="945.436" y1="1460.79" y2="1580.12"/>
  <line id="left-margin-Light-L" style="fill:none;stroke:#00AEEF;stroke-width:0.5;opacity:1.0;" x1="1063.53" x2="1063.53" y1="1460.79" y2="1580.12"/>
  <line id="right-margin-Light-L" style="fill:none;stroke:#00AEEF;stroke-width:0.5;opacity:1.0;" x1="1242.73" x2="1242.73" y1="1460.79" y2="1580.12"/>
  <line id="left-margin-Regular-L" style="fill:none;stroke:#00AEEF;stroke-width:0.5;opacity:1.0;" x1="1359.81" x2="1359.81" y1="1460.79" y2="1580.12"/>
  <line id="right-margin-Regular-L" style="fill:none;stroke:#00AEEF;stroke-width:0.5;opacity:1.0;" x1="1539.88" x2="1539.88" y1="1460.79" y2="1580.12"/>
  <line id="left-margin-Medium-L" style="fill:none;stroke:#00AEEF;stroke-width:0.5;opacity:1.0;" x1="1656.17" x2="1656.17" y1="1460.79" y2="1580.12"/>
  <line id="right-margin-Medium-L" style="fill:none;stroke:#00AEEF;stroke-width:0.5;opacity:1.0;" x1="1836.94" x2="1836.94" y1="1460.79" y2="1580.12"/>
  <line id="left-margin-Semibold-L" style="fill:none;stroke:#00AEEF;stroke-width:0.5;opacity:1.0;" x1="1952.64" x2="1952.64" y1="1460.79" y2="1580.12"/>
  <line id="right-margin-Semibold-L" style="fill:none;stroke:#00AEEF;stroke-width:0.5;opacity:1.0;" x1="2133.89" x2="2133.89" y1="1460.79" y2="1580.12"/>
  <line id="left-margin-Bold-L" style="fill:none;stroke:#00AEEF;stroke-width:0.5;opacity:1.0;" x1="2249.01" x2="2249.01" y1="1460.79" y2="1580.12"/>
  <line id="right-margin-Bold-L" style="fill:none;stroke:#00AEEF;stroke-width:0.5;opacity:1.0;" x1="2430.94" x2="2430.94" y1="1460.79" y2="1580.12"/>
  <line id="left-margin-Heavy-L" style="fill:none;stroke:#00AEEF;stroke-width:0.5;opacity:1.0;" x1="2545.23" x2="2545.23" y1="1460.79" y2="1580.12"/>
  <line id="right-margin-Heavy-L" style="fill:none;stroke:#00AEEF;stroke-width:0.5;opacity:1.0;" x1="2728.14" x2="2728.14" y1="1460.79" y2="1580.12"/>
  <line id="left-margin-Black-L" style="fill:none;stroke:#00AEEF;stroke-width:0.5;opacity:1.0;" x1="2841.51" x2="2841.51" y1="1460.79" y2="1580.12"/>
  <line id="right-margin-Black-L" style="fill:none;stroke:#00AEEF;stroke-width:0.5;opacity:1.0;" x1="3025.29" x2="3025.29" y1="1460.79" y2="1580.12"/>
 </g>
 <g id="Symbols">
  <g id="Black-L" transform="matrix(1 0 0 1 2841.51 1556)">
   <path d="M43.5059 6.29883Q40.1367 6.29883 38.2324 4.37012Q36.3281 2.44141 36.3281-0.927734L36.3281-9.7168L48.877-20.8008Q50.8789-22.5586 52.7832-23.4375Q54.6875-24.3164 57.0801-24.3164Q61.6699-24.3164 65.7227-20.752L77.3926-10.2539L106.201-36.0352Q110.352-39.6973 115.674-39.6973Q118.115-39.6973 120.581-38.7695Q123.047-37.8418 125.049-35.9375L147.461-15.1855L147.461-0.976562Q147.461 2.44141 145.361 4.37012Q143.262 6.29883 140.283 6.29883ZM71.6797-34.9609Q67.2363-34.9609 63.5498-37.1582Q59.8633-39.3555 57.666-43.042Q55.4688-46.7285 55.4688-51.2207Q55.4688-55.6152 57.666-59.3018Q59.8633-62.9883 63.5498-65.21Q67.2363-67.4316 71.6797-67.4316Q76.123-67.4316 79.7852-65.21Q83.4473-62.9883 85.6445-59.3018Q87.8418-55.6152 87.8418-51.2207Q87.8418-46.7285 85.6445-43.042Q83.4473-39.3555 79.7852-37.1582Q76.123-34.9609 71.6797-34.9609ZM39.9902 26.5137L143.799 26.5137Q155.225 26.5137 161.475 20.3125Q167.725 14.1113 167.725 2.68555L167.725-73.0957Q167.725-84.4727 161.475-90.6738Q155.225-96.875 143.799-96.875L39.9902-96.875Q28.5645-96.875 22.3145-90.6738Q16.0645-84.4727 16.0645-73.0957L16.0645 2.68555Q16.0645 14.1113 22.3145 20.3125Q28.5645 26.5137 39.9902 26.5137Z"/>
  </g>
  <g id="Heavy-L" transform="matrix(1 0 0 1 2545.23 1556)">
   <path d="M41.5039 8.00781Q37.793 8.00781 35.6934 5.88379Q33.5938 3.75977 33.5938 0.0488281L33.5938-7.51953L47.998-20.166Q50-21.9238 51.9775-22.8271Q53.9551-23.7305 56.2988-23.7305Q60.9375-23.7305 65.0391-20.0684L76.7578-9.52148L105.908-35.498Q110.205-39.3066 115.576-39.3066Q118.066-39.3066 120.557-38.3301Q123.047-37.3535 125.146-35.4004L149.316-13.0859L149.316 0.0488281Q149.316 3.75977 147.07 5.88379Q144.824 8.00781 141.406 8.00781ZM69.4336-34.7168Q65.0391-34.7168 61.4014-36.8652Q57.7637-39.0137 55.5908-42.6758Q53.418-46.3379 53.418-50.7812Q53.418-55.127 55.5908-58.7646Q57.7637-62.4023 61.4014-64.5996Q65.0391-66.7969 69.4336-66.7969Q73.8281-66.7969 77.4414-64.5996Q81.0547-62.4023 83.2275-58.7646Q85.4004-55.127 85.4004-50.7812Q85.4004-46.3379 83.2275-42.6758Q81.0547-39.0137 77.4414-36.8652Q73.8281-34.7168 69.4336-34.7168ZM38.8184 25.4883L144.092 25.4883Q155.029 25.4883 160.938 19.6289Q166.846 13.7695 166.846 2.83203L166.846-73.2422Q166.846-84.1309 160.938-89.9902Q155.029-95.8496 144.092-95.8496L38.8184-95.8496Q27.8809-95.8496 21.9727-90.0146Q16.0645-84.1797 16.0645-73.2422L16.0645 2.83203Q16.0645 13.7695 21.9727 19.6289Q27.8809 25.4883 38.8184 25.4883Z"/>
  </g>
  <g id="Bold-L" transform="matrix(1 0 0 1 2249.01 1556)">
   <path d="M39.3066 9.96094Q35.2051 9.96094 32.8613 7.61719Q30.5176 5.27344 30.5176 1.12305L30.5176-5.07812L46.9727-19.4336Q49.0723-21.2402 51.123-22.168Q53.1738-23.0957 55.4199-23.0957Q60.1562-23.0957 64.3066-19.3359L76.0742-8.69141L105.566-34.9121Q110.059-38.8184 115.43-38.8184Q117.969-38.8184 120.532-37.8174Q123.096-36.8164 125.293-34.8145L151.416-10.7422L151.416 1.17188Q151.416 5.27344 148.975 7.61719Q146.533 9.96094 142.676 9.96094ZM66.9434-34.4238Q62.5977-34.4238 59.0088-36.5479Q55.4199-38.6719 53.2715-42.2852Q51.123-45.8984 51.123-50.2441Q51.123-54.541 53.2715-58.1543Q55.4199-61.7676 59.0088-63.916Q62.5977-66.0645 66.9434-66.0645Q71.2402-66.0645 74.8291-63.916Q78.418-61.7676 80.542-58.1543Q82.666-54.541 82.666-50.2441Q82.666-45.8984 80.542-42.2852Q78.418-38.6719 74.8291-36.5479Q71.2402-34.4238 66.9434-34.4238ZM37.5488 24.3652L144.385 24.3652Q154.834 24.3652 160.352 18.8965Q165.869 13.4277 165.869 3.02734L165.869-73.4375Q165.869-83.7891 160.352-89.2822Q154.834-94.7754 144.385-94.7754L37.5488-94.7754Q27.0996-94.7754 21.582-89.3066Q16.0645-83.8379 16.0645-73.4375L16.0645 3.02734Q16.0645 13.4277 21.582 18.8965Q27.0996 24.3652 37.5488 24.3652Z"/>
  </g>
  <g id="Semibold-L" transform="matrix(1 0 0 1 1952.64 1556)">
   <path d="M37.793 11.2793Q33.3984 11.2793 30.9082 8.76465Q28.418 6.25 28.418 1.85547L28.418-3.36914L46.2891-18.8965Q48.3887-20.7031 50.4883-21.6553Q52.5879-22.6074 54.834-22.6074Q59.5703-22.6074 63.7695-18.7988L75.5859-8.10547L105.322-34.4727Q109.912-38.4766 115.332-38.4766Q117.92-38.4766 120.508-37.4512Q123.096-36.4258 125.342-34.375L152.832-9.08203L152.832 1.9043Q152.832 6.29883 150.269 8.78906Q147.705 11.2793 143.506 11.2793ZM65.1855-34.1797Q60.8887-34.1797 57.3242-36.3037Q53.7598-38.4277 51.6357-41.9922Q49.5117-45.5566 49.5117-49.9023Q49.5117-54.1504 51.6357-57.7148Q53.7598-61.2793 57.3242-63.4277Q60.8887-65.5762 65.1855-65.5762Q69.4824-65.5762 73.0225-63.4277Q76.5625-61.2793 78.6621-57.7148Q80.7617-54.1504 80.7617-49.9023Q80.7617-45.5566 78.6621-41.9922Q76.5625-38.4277 73.0225-36.3037Q69.4824-34.1797 65.1855-34.1797ZM36.6211 23.5352L144.58 23.5352Q154.688 23.5352 159.937 18.335Q165.186 13.1348 165.186 3.17383L165.186-73.584Q165.186-83.5449 159.937-88.7695Q154.688-93.9941 144.58-93.9941L36.6211-93.9941Q26.5625-93.9941 21.3135-88.7939Q16.0645-83.5938 16.0645-73.584L16.0645 3.17383Q16.0645 13.1836 21.3135 18.3594Q26.5625 23.5352 36.6211 23.5352Z"/>
  </g>
  <g id="Medium-L" transform="matrix(1 0 0 1 1656.17 1556)">
   <path d="M36.6211 12.2559Q32.0312 12.2559 29.4189 9.64355Q26.8066 7.03125 26.8066 2.44141L26.8066-2.05078L45.752-18.5059Q47.8516-20.3613 50-21.3135Q52.1484-22.2656 54.3457-22.2656Q59.1309-22.2656 63.3789-18.4082L75.2441-7.71484L105.127-34.1309Q109.814-38.2324 115.283-38.2324Q117.871-38.2324 120.508-37.207Q123.145-36.1816 125.391-34.0332L153.906-7.86133L153.906 2.49023Q153.906 7.08008 151.27 9.66797Q148.633 12.2559 144.189 12.2559ZM63.8672-34.0332Q59.5703-34.0332 56.0547-36.1328Q52.5391-38.2324 50.415-41.7725Q48.291-45.3125 48.291-49.6094Q48.291-53.8574 50.415-57.3975Q52.5391-60.9375 56.0547-63.0615Q59.5703-65.1855 63.8672-65.1855Q68.1152-65.1855 71.6309-63.0615Q75.1465-60.9375 77.2461-57.3975Q79.3457-53.8574 79.3457-49.6094Q79.3457-45.3125 77.2461-41.7725Q75.1465-38.2324 71.6309-36.1328Q68.1152-34.0332 63.8672-34.0332ZM35.9375 22.9492L144.775 22.9492Q154.59 22.9492 159.644 17.9443Q164.697 12.9395 164.697 3.22266L164.697-73.6328Q164.697-83.3496 159.644-88.3789Q154.59-93.4082 144.775-93.4082L35.9375-93.4082Q26.1719-93.4082 21.1182-88.4033Q16.0645-83.3984 16.0645-73.6328L16.0645 3.22266Q16.0645 12.9883 21.1182 17.9688Q26.1719 22.9492 35.9375 22.9492Z"/>
  </g>
  <g id="Regular-L" transform="matrix(1 0 0 1 1359.81 1556)">
   <path d="M35.1074 13.5742Q30.2246 13.5742 27.4658 10.8154Q24.707 8.05664 24.707 3.17383L24.707-0.390625L45.0684-18.0176Q47.2168-19.873 49.4141-20.8496Q51.6113-21.8262 53.7598-21.8262Q58.5938-21.8262 62.8418-17.9199L74.7559-7.12891L104.883-33.7402Q109.717-37.9395 115.186-37.9395Q117.822-37.9395 120.483-36.8652Q123.145-35.791 125.488-33.6426L155.322-6.25L155.322 3.27148Q155.322 8.10547 152.563 10.8398Q149.805 13.5742 145.02 13.5742ZM62.1582-33.8379Q57.9102-33.8379 54.4189-35.9131Q50.9277-37.9883 48.8281-41.5039Q46.7285-45.0195 46.7285-49.2676Q46.7285-53.4668 48.8281-56.9824Q50.9277-60.498 54.4189-62.5977Q57.9102-64.6973 62.1582-64.6973Q66.3574-64.6973 69.8486-62.5977Q73.3398-60.498 75.415-56.9824Q77.4902-53.4668 77.4902-49.2676Q77.4902-45.0195 75.415-41.5039Q73.3398-37.9883 69.8486-35.9131Q66.3574-33.8379 62.1582-33.8379ZM35.0586 22.168L144.971 22.168Q154.443 22.168 159.229 17.4316Q164.014 12.6953 164.014 3.36914L164.014-73.7793Q164.014-83.1055 159.229-87.8662Q154.443-92.627 144.971-92.627L35.0586-92.627Q25.6348-92.627 20.8496-87.8906Q16.0645-83.1543 16.0645-73.7793L16.0645 3.36914Q16.0645 12.7441 20.8496 17.4561Q25.6348 22.168 35.0586 22.168Z"/>
  </g>
  <g id="Light-L" transform="matrix(1 0 0 1 1063.53 1556)">
   <path d="M33.8867 14.7949Q28.6133 14.7949 25.6348 11.8164Q22.6562 8.83789 22.6562 3.61328L22.6562 0.439453L44.4336-18.2617Q46.6309-20.1172 48.8525-21.1182Q51.0742-22.1191 53.2227-22.1191Q57.959-22.1191 62.3535-18.1152L74.0723-7.42188L104.297-33.8379Q109.424-38.2812 114.795-38.2812Q117.48-38.2812 120.215-37.1338Q122.949-35.9863 125.391-33.7402L156.494-5.61523L156.494 3.66211Q156.494 8.88672 153.516 11.8408Q150.537 14.7949 145.361 14.7949ZM60.5957-34.1309Q56.3965-34.1309 52.9541-36.1816Q49.5117-38.2324 47.4365-41.6992Q45.3613-45.166 45.3613-49.3652Q45.3613-53.5156 47.4365-56.9824Q49.5117-60.4492 52.9541-62.5244Q56.3965-64.5996 60.5957-64.5996Q64.7461-64.5996 68.1885-62.5244Q71.6309-60.4492 73.6816-56.9824Q75.7324-53.5156 75.7324-49.3652Q75.7324-45.166 73.6816-41.6992Q71.6309-38.2324 68.1885-36.1816Q64.7461-34.1309 60.5957-34.1309ZM34.0332 21.3379L145.117 21.3379Q154.053 21.3379 158.594 16.7969Q163.135 12.2559 163.135 3.4668L163.135-73.9258Q163.135-82.7148 158.594-87.2559Q154.053-91.7969 145.117-91.7969L34.0332-91.7969Q25.1465-91.7969 20.6055-87.2803Q16.0645-82.7637 16.0645-73.9258L16.0645 3.4668Q16.0645 12.3047 20.6055 16.8213Q25.1465 21.3379 34.0332 21.3379Z"/>
  </g>
  <g id="Thin-L" transform="matrix(1 0 0 1 767.409 1556)">
   <path d="M32.2754 16.4062Q26.5137 16.4062 23.2666 13.1592Q20.0195 9.91211 20.0195 4.15039L20.0195 1.51367L43.6035-18.5547Q45.8496-20.459 48.0957-21.4844Q50.3418-22.5098 52.4414-22.5098Q57.1289-22.5098 61.6699-18.3594L73.1934-7.8125L103.516-34.0332Q109.033-38.7207 114.258-38.7207Q116.992-38.7207 119.849-37.5Q122.705-36.2793 125.293-33.9355L158.008-4.78516L158.008 4.15039Q158.008 9.91211 154.736 13.1592Q151.465 16.4062 145.752 16.4062ZM58.4961-34.5215Q54.3945-34.5215 51.001-36.5479Q47.6074-38.5742 45.5811-41.9678Q43.5547-45.3613 43.5547-49.4629Q43.5547-53.5156 45.5811-56.9336Q47.6074-60.3516 51.001-62.3779Q54.3945-64.4043 58.4961-64.4043Q62.5977-64.4043 65.9668-62.3779Q69.3359-60.3516 71.3623-56.9336Q73.3887-53.5156 73.3887-49.4629Q73.3887-45.3613 71.3623-41.9678Q69.3359-38.5742 65.9668-36.5479Q62.5977-34.5215 58.4961-34.5215ZM32.666 20.2148L145.312 20.2148Q153.516 20.2148 157.739 15.918Q161.963 11.6211 161.963 3.61328L161.963-74.1211Q161.963-82.1777 157.739-86.4502Q153.516-90.7227 145.312-90.7227L32.666-90.7227Q24.5117-90.7227 20.2881-86.499Q16.0645-82.2754 16.0645-74.1211L16.0645 3.61328Q16.0645 11.7676 20.2881 15.9912Q24.5117 20.2148 32.666 20.2148Z"/>
  </g>
  <g id="Ultralight-L" transform="matrix(1 0 0 1 471.015 1556)">
   <path d="M31.4453 17.2363Q25.4395 17.2363 22.0215 13.8428Q18.6035 10.4492 18.6035 4.44336L18.6035 2.05078L43.2129-18.7012Q45.459-20.6543 47.7295-21.7041Q50-22.7539 52.0996-22.7539Q56.7383-22.7539 61.3281-18.5059L72.7051-8.05664L103.125-34.082Q108.838-38.916 113.965-38.916Q116.797-38.916 119.678-37.6709Q122.559-36.4258 125.244-33.9844L158.789-4.3457L158.789 4.39453Q158.789 10.4492 155.371 13.8428Q151.953 17.2363 145.996 17.2363ZM57.4219-34.7168Q53.3691-34.7168 50.0244-36.7188Q46.6797-38.7207 44.6533-42.0898Q42.627-45.459 42.627-49.5605Q42.627-53.5645 44.6533-56.9336Q46.6797-60.3027 50.0244-62.3291Q53.3691-64.3555 57.4219-64.3555Q61.4746-64.3555 64.8193-62.3291Q68.1641-60.3027 70.166-56.9336Q72.168-53.5645 72.168-49.5605Q72.168-45.459 70.166-42.0898Q68.1641-38.7207 64.8193-36.7188Q61.4746-34.7168 57.4219-34.7168ZM31.9824 19.6289L145.41 19.6289Q153.223 19.6289 157.275 15.4785Q161.328 11.3281 161.328 3.71094L161.328-74.2188Q161.328-81.8848 157.275-86.0352Q153.223-90.1855 145.41-90.1855L31.9824-90.1855Q24.1699-90.1855 20.1172-86.1084Q16.0645-82.0312 16.0645-74.2188L16.0645 3.71094Q16.0645 11.4746 20.1172 15.5518Q24.1699 19.6289 31.9824 19.6289Z"/>
  </g>
  <g id="Black-M" transform="matrix(1 0 0 1 2861.96 1126)">
   <path d="M35.0098-4.10156Q32.5684-4.10156 31.1768-5.51758Q29.7852-6.93359 29.7852-9.32617L29.7852-17.0898L38.4277-24.707Q39.9902-26.0742 41.4062-26.7334Q42.8223-27.3926 44.7266-27.3926Q48.2422-27.3926 51.3672-24.6094L60.3027-16.6016L82.373-36.3281Q85.5469-39.1602 89.6484-39.1602Q91.5039-39.1602 93.3838-38.4521Q95.2637-37.7441 96.8262-36.2793L113.086-21.2891L113.086-9.375Q113.086-6.93359 111.523-5.51758Q109.961-4.10156 107.861-4.10156ZM56.9336-35.3516Q53.4668-35.3516 50.5859-37.085Q47.7051-38.8184 45.9961-41.6748Q44.2871-44.5312 44.2871-48.0469Q44.2871-51.4648 45.9961-54.3457Q47.7051-57.2266 50.5859-58.96Q53.4668-60.6934 56.9336-60.6934Q60.4004-60.6934 63.2568-58.96Q66.1133-57.2266 67.8467-54.3457Q69.5801-51.4648 69.5801-48.0469Q69.5801-44.5312 67.8467-41.6748Q66.1133-38.8184 63.2568-37.085Q60.4004-35.3516 56.9336-35.3516ZM31.5918 13.2324L111.279 13.2324Q120.312 13.2324 125.366 8.17871Q130.42 3.125 130.42-5.9082L130.42-64.4531Q130.42-73.5352 125.366-78.5645Q120.312-83.5938 111.279-83.5938L31.5918-83.5938Q22.5586-83.5938 17.5049-78.5645Q12.4512-73.5352 12.4512-64.4531L12.4512-5.9082Q12.4512 3.125 17.5049 8.17871Q22.5586 13.2324 31.5918 13.2324Z"/>
  </g>
  <g id="Heavy-M" transform="matrix(1 0 0 1 2565.6 1126)">
   <path d="M33.3496-2.68555Q30.6152-2.68555 29.0771-4.24805Q27.5391-5.81055 27.5391-8.49609L27.5391-15.0879L37.6953-24.0234Q39.2578-25.3906 40.7471-26.0742Q42.2363-26.7578 44.0918-26.7578Q47.6562-26.7578 50.7812-23.9258L59.8145-15.8203L82.1777-35.791Q85.4492-38.6719 89.5996-38.6719Q91.5039-38.6719 93.4082-37.9395Q95.3125-37.207 96.9238-35.7422L114.648-19.3848L114.648-8.49609Q114.648-5.81055 112.988-4.24805Q111.328-2.68555 108.887-2.68555ZM55.0781-35.0098Q51.6602-35.0098 48.8037-36.7188Q45.9473-38.4277 44.2627-41.2598Q42.5781-44.0918 42.5781-47.5586Q42.5781-50.9766 44.2627-53.8086Q45.9473-56.6406 48.8037-58.3496Q51.6602-60.0586 55.0781-60.0586Q58.4961-60.0586 61.3281-58.3496Q64.1602-56.6406 65.8691-53.8086Q67.5781-50.9766 67.5781-47.5586Q67.5781-44.0918 65.8691-41.2598Q64.1602-38.4277 61.3281-36.7188Q58.4961-35.0098 55.0781-35.0098ZM30.7129 12.4023L111.523 12.4023Q120.215 12.4023 124.976 7.6416Q129.736 2.88086 129.736-5.76172L129.736-64.5996Q129.736-73.291 124.976-78.0273Q120.215-82.7637 111.523-82.7637L30.7129-82.7637Q21.9727-82.7637 17.2119-78.0518Q12.4512-73.3398 12.4512-64.5996L12.4512-5.76172Q12.4512 2.88086 17.2119 7.6416Q21.9727 12.4023 30.7129 12.4023Z"/>
  </g>
  <g id="Bold-M" transform="matrix(1 0 0 1 2269.25 1126)">
   <path d="M31.4453-1.12305Q28.4668-1.12305 26.7578-2.83203Q25.0488-4.54102 25.0488-7.51953L25.0488-12.8906L36.8652-23.2422Q38.4766-24.6582 40.0391-25.3418Q41.6016-26.0254 43.3594-26.0254Q47.0215-26.0254 50.1953-23.1445L59.3262-14.9414L82.0312-35.1562Q85.4004-38.1348 89.5996-38.1348Q91.5039-38.1348 93.457-37.4023Q95.4102-36.6699 97.0703-35.1074L116.406-17.2363L116.406-7.51953Q116.406-4.54102 114.624-2.83203Q112.842-1.12305 110.059-1.12305ZM53.0273-34.668Q49.6094-34.668 46.8018-36.3525Q43.9941-38.0371 42.334-40.8447Q40.6738-43.6523 40.6738-47.0703Q40.6738-50.4395 42.334-53.2471Q43.9941-56.0547 46.8018-57.7393Q49.6094-59.4238 53.0273-59.4238Q56.3965-59.4238 59.1797-57.7393Q61.9629-56.0547 63.6475-53.2471Q65.332-50.4395 65.332-47.0703Q65.332-43.6523 63.6475-40.8447Q61.9629-38.0371 59.1797-36.3525Q56.3965-34.668 53.0273-34.668ZM29.6875 11.4746L111.768 11.4746Q120.166 11.4746 124.585 7.05566Q129.004 2.63672 129.004-5.66406L129.004-64.7461Q129.004-73.0469 124.585-77.4658Q120.166-81.8848 111.768-81.8848L29.6875-81.8848Q21.3379-81.8848 16.8945-77.4902Q12.4512-73.0957 12.4512-64.7461L12.4512-5.66406Q12.4512 2.63672 16.8945 7.05566Q21.3379 11.4746 29.6875 11.4746Z"/>
  </g>
  <g id="Semibold-M" transform="matrix(1 0 0 1 1972.81 1126)">
   <path d="M30.127 0Q26.9531 0 25.1465-1.83105Q23.3398-3.66211 23.3398-6.88477L23.3398-11.377L36.2793-22.7051Q37.8906-24.1211 39.502-24.8291Q41.1133-25.5371 42.8223-25.5371Q46.5332-25.5371 49.7559-22.6074L58.9355-14.3555L81.8848-34.7168Q85.3027-37.7441 89.5508-37.7441Q91.5039-37.7441 93.4814-36.9873Q95.459-36.2305 97.1191-34.668L117.627-15.7227L117.627-6.78711Q117.627-3.61328 115.747-1.80664Q113.867 0 110.84 0ZM51.5625-34.4238Q48.1934-34.4238 45.4102-36.084Q42.627-37.7441 40.9668-40.5273Q39.3066-43.3105 39.3066-46.6797Q39.3066-50.0488 40.9668-52.832Q42.627-55.6152 45.4102-57.2754Q48.1934-58.9355 51.5625-58.9355Q54.8828-58.9355 57.666-57.2754Q60.4492-55.6152 62.1094-52.832Q63.7695-50.0488 63.7695-46.6797Q63.7695-43.3105 62.1094-40.5273Q60.4492-37.7441 57.666-36.084Q54.8828-34.4238 51.5625-34.4238ZM29.0039 10.8398L111.963 10.8398Q120.068 10.8398 124.268 6.64062Q128.467 2.44141 128.467-5.51758L128.467-64.8438Q128.467-72.8516 124.268-77.0508Q120.068-81.25 111.963-81.25L29.0039-81.25Q20.8984-81.25 16.6748-77.0752Q12.4512-72.9004 12.4512-64.8438L12.4512-5.51758Q12.4512 2.44141 16.6748 6.64062Q20.8984 10.8398 29.0039 10.8398Z"/>
  </g>
  <g id="Medium-M" transform="matrix(1 0 0 1 1676.29 1126)">
   <path d="M29.1504 0.830078Q25.8301 0.830078 23.9258-1.09863Q22.0215-3.02734 22.0215-6.34766L22.0215-10.2051L35.8887-22.3145Q37.4512-23.7305 39.1113-24.4385Q40.7715-25.1465 42.4316-25.1465Q46.1914-25.1465 49.4141-22.2168L58.6426-13.8672L81.7871-34.4238Q85.2539-37.5 89.5508-37.5Q91.5039-37.5 93.5059-36.7188Q95.5078-35.9375 97.168-34.375L118.555-14.5996L118.555-6.29883Q118.555-2.97852 116.602-1.07422Q114.648 0.830078 111.426 0.830078ZM50.4883-34.2285Q47.1191-34.2285 44.3604-35.8887Q41.6016-37.5488 39.9658-40.3076Q38.3301-43.0664 38.3301-46.3867Q38.3301-49.7559 39.9658-52.5146Q41.6016-55.2734 44.3604-56.9336Q47.1191-58.5938 50.4883-58.5938Q53.8086-58.5938 56.5674-56.9336Q59.3262-55.2734 60.9619-52.5146Q62.5977-49.7559 62.5977-46.3867Q62.5977-43.0664 60.9619-40.3076Q59.3262-37.5488 56.5674-35.8887Q53.8086-34.2285 50.4883-34.2285ZM28.4668 10.3516L112.061 10.3516Q120.02 10.3516 124.048 6.34766Q128.076 2.34375 128.076-5.46875L128.076-64.9414Q128.076-72.7539 124.048-76.7822Q120.02-80.8105 112.061-80.8105L28.4668-80.8105Q20.5566-80.8105 16.5039-76.7822Q12.4512-72.7539 12.4512-64.9414L12.4512-5.46875Q12.4512 2.34375 16.5039 6.34766Q20.5566 10.3516 28.4668 10.3516Z"/>
  </g>
  <g id="Regular-M" transform="matrix(1 0 0 1 1379.82 1126)">
   <path d="M27.8809 1.9043Q24.3652 1.9043 22.3389-0.12207Q20.3125-2.14844 20.3125-5.71289L20.3125-8.69141L35.3027-21.7773Q36.9141-23.1934 38.623-23.9258Q40.332-24.6582 41.9434-24.6582Q45.752-24.6582 48.9746-21.6797L58.3008-13.2812L81.6406-33.9844Q85.2051-37.1094 89.502-37.1094Q91.5039-37.1094 93.5303-36.3281Q95.5566-35.5469 97.2656-33.9355L119.727-13.1348L119.727-5.61523Q119.727-2.09961 117.7-0.0976562Q115.674 1.9043 112.207 1.9043ZM49.0723-33.9844Q45.752-33.9844 43.0176-35.6201Q40.2832-37.2559 38.6475-39.9902Q37.0117-42.7246 37.0117-46.0449Q37.0117-49.3652 38.6475-52.0996Q40.2832-54.834 43.0176-56.4697Q45.752-58.1055 49.0723-58.1055Q52.3438-58.1055 55.0781-56.4697Q57.8125-54.834 59.4482-52.0996Q61.084-49.3652 61.084-46.0449Q61.084-42.7246 59.4482-39.9902Q57.8125-37.2559 55.0781-35.6201Q52.3438-33.9844 49.0723-33.9844ZM27.7832 9.7168L112.256 9.7168Q119.971 9.7168 123.779 5.93262Q127.588 2.14844 127.588-5.37109L127.588-65.0391Q127.588-72.5586 123.779-76.3672Q119.971-80.1758 112.256-80.1758L27.7832-80.1758Q20.1172-80.1758 16.2842-76.3916Q12.4512-72.6074 12.4512-65.0391L12.4512-5.37109Q12.4512 2.14844 16.2842 5.93262Q20.1172 9.7168 27.7832 9.7168Z"/>
  </g>
  <g id="Light-M" transform="matrix(1 0 0 1 1083.5 1126)">
   <path d="M26.8066 2.97852Q22.9492 2.97852 20.7275 0.78125Q18.5059-1.41602 18.5059-5.32227L18.5059-7.95898L34.7656-21.9727Q36.377-23.4375 38.1104-24.1943Q39.8438-24.9512 41.4551-24.9512Q45.2148-24.9512 48.5352-21.875L57.7148-13.5742L81.1035-34.082Q84.9609-37.4023 89.1602-37.4023Q91.1621-37.4023 93.2617-36.5723Q95.3613-35.7422 97.2168-34.0332L120.752-12.5488L120.752-5.27344Q120.752-1.36719 118.53 0.805664Q116.309 2.97852 112.5 2.97852ZM47.6562-34.2285Q44.3848-34.2285 41.6992-35.8398Q39.0137-37.4512 37.4023-40.1611Q35.791-42.8711 35.791-46.1426Q35.791-49.4141 37.4023-52.0996Q39.0137-54.7852 41.6992-56.3965Q44.3848-58.0078 47.6562-58.0078Q50.8789-58.0078 53.5645-56.3965Q56.25-54.7852 57.8613-52.0996Q59.4727-49.4141 59.4727-46.1426Q59.4727-42.8711 57.8613-40.1611Q56.25-37.4512 53.5645-35.8398Q50.8789-34.2285 47.6562-34.2285ZM26.8555 8.98438L112.402 8.98438Q119.58 8.98438 123.193 5.37109Q126.807 1.75781 126.807-5.27344L126.807-65.1855Q126.807-72.2168 123.193-75.8301Q119.58-79.4434 112.402-79.4434L26.8555-79.4434Q19.6777-79.4434 16.0645-75.8545Q12.4512-72.2656 12.4512-65.1855L12.4512-5.27344Q12.4512 1.80664 16.0645 5.39551Q19.6777 8.98438 26.8555 8.98438Z"/>
  </g>
  <g id="Thin-M" transform="matrix(1 0 0 1 787.306 1126)">
   <path d="M25.3418 4.44336Q21.0449 4.44336 18.5791 2.00195Q16.1133-0.439453 16.1133-4.83398L16.1133-6.98242L33.9844-22.2168Q35.6934-23.7305 37.4268-24.5117Q39.1602-25.293 40.8203-25.293Q44.4824-25.293 47.9492-22.1191L56.8848-13.916L80.4199-34.2773Q84.6191-37.793 88.6719-37.793Q90.7715-37.793 92.9443-36.8896Q95.1172-35.9863 97.1191-34.1797L122.119-11.8164L122.119-4.78516Q122.119-0.439453 119.653 2.00195Q117.188 4.44336 112.891 4.44336ZM45.8008-34.5703Q42.5781-34.5703 39.9414-36.1572Q37.3047-37.7441 35.7422-40.3809Q34.1797-43.0176 34.1797-46.2402Q34.1797-49.4141 35.7422-52.0752Q37.3047-54.7363 39.9414-56.3232Q42.5781-57.9102 45.8008-57.9102Q48.9746-57.9102 51.6113-56.3232Q54.248-54.7363 55.8105-52.0752Q57.373-49.4141 57.373-46.2402Q57.373-43.0176 55.8105-40.3809Q54.248-37.7441 51.6113-36.1572Q48.9746-34.5703 45.8008-34.5703ZM25.5859 7.95898L112.549 7.95898Q119.092 7.95898 122.437 4.58984Q125.781 1.2207 125.781-5.17578L125.781-65.332Q125.781-71.7285 122.437-75.0977Q119.092-78.4668 112.549-78.4668L25.5859-78.4668Q19.1406-78.4668 15.7959-75.1221Q12.4512-71.7773 12.4512-65.332L12.4512-5.17578Q12.4512 1.31836 15.7959 4.63867Q19.1406 7.95898 25.5859 7.95898Z"/>
  </g>
  <g id="Ultralight-M" transform="matrix(1 0 0 1 490.863 1126)">
   <path d="M24.6094 5.17578Q20.0684 5.17578 17.4561 2.6123Q14.8438 0.0488281 14.8438-4.58984L14.8438-6.49414L33.6426-22.3633Q35.3027-23.877 37.0605-24.6826Q38.8184-25.4883 40.4785-25.4883Q44.1406-25.4883 47.6562-22.2168L56.4941-14.1113L80.0293-34.3262Q84.4238-38.0371 88.4277-38.0371Q90.5273-38.0371 92.7734-37.0605Q95.0195-36.084 97.0703-34.2773L122.803-11.4258L122.803-4.58984Q122.803 0.0488281 120.215 2.6123Q117.627 5.17578 113.086 5.17578ZM44.873-34.7656Q41.6504-34.7656 39.0381-36.3281Q36.4258-37.8906 34.8877-40.5029Q33.3496-43.1152 33.3496-46.3379Q33.3496-49.4629 34.8877-52.0752Q36.4258-54.6875 39.0381-56.25Q41.6504-57.8125 44.873-57.8125Q47.998-57.8125 50.5859-56.25Q53.1738-54.6875 54.7363-52.0752Q56.2988-49.4629 56.2988-46.3379Q56.2988-43.1152 54.7363-40.5029Q53.1738-37.8906 50.5859-36.3281Q47.998-34.7656 44.873-34.7656ZM24.9512 7.4707L112.646 7.4707Q118.848 7.4707 122.046 4.22363Q125.244 0.976562 125.244-5.07812L125.244-65.4297Q125.244-71.4844 122.046-74.7314Q118.848-77.9785 112.646-77.9785L24.9512-77.9785Q18.8477-77.9785 15.6494-74.7803Q12.4512-71.582 12.4512-65.4297L12.4512-5.07812Q12.4512 1.07422 15.6494 4.27246Q18.8477 7.4707 24.9512 7.4707Z"/>
  </g>
  <g id="Black-S" transform="matrix(1 0 0 1 2877.35 696)">
   <path d="M27.8809-11.2305Q26.0742-11.2305 25-12.3047Q23.9258-13.3789 23.9258-15.1855L23.9258-21.582L30.3223-27.1973Q31.543-28.2715 32.6172-28.7842Q33.6914-29.2969 35.2051-29.2969Q37.9395-29.2969 40.3809-27.1484L47.3633-20.8984L64.5508-36.2793Q67.041-38.4766 70.2148-38.4766Q73.4375-38.4766 75.8301-36.2305L88.1836-24.8535L88.1836-15.2344Q88.1836-13.3789 86.9873-12.3047Q85.791-11.2305 84.2285-11.2305ZM45.1172-35.4492Q41.0156-35.4492 38.0859-38.3789Q35.1562-41.3086 35.1562-45.4102Q35.1562-49.4629 38.0859-52.417Q41.0156-55.3711 45.1172-55.3711Q49.1699-55.3711 52.0996-52.417Q55.0293-49.4629 55.0293-45.4102Q55.0293-41.3086 52.0996-38.3789Q49.1699-35.4492 45.1172-35.4492ZM25 2.92969L87.1094 2.92969Q94.2871 2.92969 98.3154-1.09863Q102.344-5.12695 102.344-12.3047L102.344-58.1055Q102.344-65.2832 98.3154-69.3115Q94.2871-73.3398 87.1094-73.3398L25-73.3398Q17.8223-73.3398 13.7939-69.3115Q9.76562-65.2832 9.76562-58.1055L9.76562-12.3047Q9.76562-5.12695 13.7939-1.09863Q17.8223 2.92969 25 2.92969Z"/>
  </g>
  <g id="Heavy-S" transform="matrix(1 0 0 1 2580.88 696)">
   <path d="M26.6113-10.1562Q24.6094-10.1562 23.4375-11.3281Q22.2656-12.5 22.2656-14.502L22.2656-19.9707L29.7363-26.5625Q31.0059-27.6367 32.1289-28.1738Q33.252-28.7109 34.7168-28.7109Q37.5-28.7109 39.9902-26.5137L47.0215-20.2148L64.4531-35.791Q66.9922-38.0371 70.2148-38.0371Q73.4863-38.0371 75.9277-35.7422L89.4043-23.291L89.4043-14.502Q89.4043-12.5 88.1348-11.3281Q86.8652-10.1562 85.0586-10.1562ZM43.7012-35.1562Q39.6484-35.1562 36.7432-38.0371Q33.8379-40.918 33.8379-45.0195Q33.8379-49.0234 36.7432-51.9531Q39.6484-54.8828 43.7012-54.8828Q47.7051-54.8828 50.6104-51.9531Q53.5156-49.0234 53.5156-45.0195Q53.5156-40.918 50.6104-38.0371Q47.7051-35.1562 43.7012-35.1562ZM24.3652 2.34375L87.3047 2.34375Q94.2871 2.34375 98.0713-1.46484Q101.855-5.27344 101.855-12.207L101.855-58.2031Q101.855-65.1367 98.0713-68.9453Q94.2871-72.7539 87.3047-72.7539L24.3652-72.7539Q17.3828-72.7539 13.5742-68.9453Q9.76562-65.1367 9.76562-58.2031L9.76562-12.207Q9.76562-5.27344 13.5742-1.46484Q17.3828 2.34375 24.3652 2.34375Z"/>
  </g>
  <g id="Bold-S" transform="matrix(1 0 0 1 2284.41 696)">
   <path d="M25.1465-8.98438Q22.9492-8.98438 21.6553-10.2539Q20.3613-11.5234 20.3613-13.7695L20.3613-18.2129L29.1504-25.9277Q30.3711-27.002 31.5674-27.5391Q32.7637-28.0762 34.1797-28.0762Q37.0605-28.0762 39.502-25.8789L46.6797-19.4336L64.4043-35.2539Q66.9922-37.5488 70.2637-37.5488Q73.584-37.5488 76.0742-35.2051L90.7715-21.5332L90.7715-13.7207Q90.7715-11.5234 89.4287-10.2539Q88.0859-8.98438 86.0352-8.98438ZM42.1387-34.8145Q38.1348-34.8145 35.2539-37.6709Q32.373-40.5273 32.373-44.5312Q32.373-48.5352 35.2539-51.416Q38.1348-54.2969 42.1387-54.2969Q46.1426-54.2969 48.999-51.416Q51.8555-48.5352 51.8555-44.5312Q51.8555-40.5273 48.999-37.6709Q46.1426-34.8145 42.1387-34.8145ZM23.6328 1.66016L87.5 1.66016Q94.2383 1.66016 97.8027-1.9043Q101.367-5.46875 101.367-12.1094L101.367-58.3008Q101.367-64.9902 97.8027-68.5303Q94.2383-72.0703 87.5-72.0703L23.6328-72.0703Q16.9434-72.0703 13.3545-68.5303Q9.76562-64.9902 9.76562-58.3008L9.76562-12.1094Q9.76562-5.46875 13.3545-1.9043Q16.9434 1.66016 23.6328 1.66016Z"/>
  </g>
  <g id="Semibold-S" transform="matrix(1 0 0 1 1987.9 696)">
   <path d="M24.1699-8.1543Q21.7773-8.1543 20.4102-9.47266Q19.043-10.791 19.043-13.2324L19.043-16.9434L28.7109-25.4395Q29.9316-26.5137 31.1768-27.0508Q32.4219-27.5879 33.7891-27.5879Q36.7188-27.5879 39.1602-25.3906L46.4355-18.8477L64.3066-34.8633Q66.9434-37.1582 70.2637-37.1582Q73.584-37.1582 76.123-34.8145L91.6992-20.3125L91.6992-13.1836Q91.6992-10.791 90.2832-9.47266Q88.8672-8.1543 86.6699-8.1543ZM41.0645-34.5703Q37.0605-34.5703 34.2041-37.4023Q31.3477-40.2344 31.3477-44.1895Q31.3477-48.1445 34.2041-51.0254Q37.0605-53.9062 41.0645-53.9062Q45.0195-53.9062 47.8516-51.0254Q50.6836-48.1445 50.6836-44.1895Q50.6836-40.2344 47.8516-37.4023Q45.0195-34.5703 41.0645-34.5703ZM23.0957 1.2207L87.6465 1.2207Q94.2383 1.2207 97.6074-2.17285Q100.977-5.56641 100.977-12.0605L100.977-58.3496Q100.977-64.8438 97.6074-68.2373Q94.2383-71.6309 87.6465-71.6309L23.0957-71.6309Q16.6016-71.6309 13.1836-68.2373Q9.76562-64.8438 9.76562-58.3496L9.76562-12.0605Q9.76562-5.56641 13.1836-2.17285Q16.6016 1.2207 23.0957 1.2207Z"/>
  </g>
  <g id="Medium-S" transform="matrix(1 0 0 1 1691.33 696)">
   <path d="M23.3887-7.51953Q20.8984-7.51953 19.4824-8.91113Q18.0664-10.3027 18.0664-12.8418L18.0664-16.0156L28.3691-25.0977Q29.6387-26.1719 30.9082-26.709Q32.1777-27.2461 33.4961-27.2461Q36.4746-27.2461 38.916-25.0488L46.2402-18.457L64.2578-34.5703Q66.9434-36.9141 70.3125-36.9141Q73.6328-36.9141 76.1719-34.5215L92.3828-19.3848L92.3828-12.7441Q92.3828-10.3027 90.9424-8.91113Q89.502-7.51953 87.1582-7.51953ZM40.2344-34.375Q36.2305-34.375 33.4229-37.207Q30.6152-40.0391 30.6152-43.9453Q30.6152-47.9004 33.4229-50.7568Q36.2305-53.6133 40.2344-53.6133Q44.1406-53.6133 46.9727-50.7568Q49.8047-47.9004 49.8047-43.9453Q49.8047-40.0391 46.9727-37.207Q44.1406-34.375 40.2344-34.375ZM22.7051 0.830078L87.7441 0.830078Q94.1895 0.830078 97.4365-2.41699Q100.684-5.66406 100.684-11.9629L100.684-58.4473Q100.684-64.7461 97.4365-67.9932Q94.1895-71.2402 87.7441-71.2402L22.7051-71.2402Q16.3574-71.2402 13.0615-67.9932Q9.76562-64.7461 9.76562-58.4473L9.76562-11.9629Q9.76562-5.66406 13.0615-2.41699Q16.3574 0.830078 22.7051 0.830078Z"/>
  </g>
  <g id="Regular-S" transform="matrix(1 0 0 1 1394.79 696)">
   <path d="M22.4121-6.68945Q19.7754-6.68945 18.2861-8.1543Q16.7969-9.61914 16.7969-12.3047L16.7969-14.7949L27.9297-24.6094Q29.1992-25.6836 30.5176-26.2451Q31.8359-26.8066 33.1055-26.8066Q36.1328-26.8066 38.623-24.5605L45.9961-17.9199L64.209-34.1797Q66.8945-36.5723 70.3125-36.5723Q73.6816-36.5723 76.2695-34.1309L93.3105-18.1641L93.3105-12.207Q93.3105-9.61914 91.8213-8.1543Q90.332-6.68945 87.793-6.68945ZM39.1602-34.1309Q35.2051-34.1309 32.3975-36.9385Q29.5898-39.7461 29.5898-43.6523Q29.5898-47.5586 32.3975-50.3906Q35.2051-53.2227 39.1602-53.2227Q43.0664-53.2227 45.8496-50.3906Q48.6328-47.5586 48.6328-43.6523Q48.6328-39.7461 45.8496-36.9385Q43.0664-34.1309 39.1602-34.1309ZM22.2168 0.390625L87.8906 0.390625Q94.1895 0.390625 97.2656-2.68555Q100.342-5.76172 100.342-11.9141L100.342-58.4961Q100.342-64.6484 97.2656-67.7246Q94.1895-70.8008 87.8906-70.8008L22.2168-70.8008Q16.0156-70.8008 12.8906-67.7246Q9.76562-64.6484 9.76562-58.4961L9.76562-11.9141Q9.76562-5.76172 12.8906-2.68555Q16.0156 0.390625 22.2168 0.390625Z"/>
  </g>
  <g id="Light-S" transform="matrix(1 0 0 1 1098.42 696)">
   <path d="M21.4355-5.71289Q18.5059-5.71289 16.8457-7.34863Q15.1855-8.98438 15.1855-11.9629L15.1855-14.1602L27.4414-24.7559Q28.7109-25.8789 30.0537-26.4648Q31.3965-27.0508 32.666-27.0508Q35.6445-27.0508 38.2324-24.707L45.459-18.1641L63.7207-34.2773Q66.6504-36.8164 69.9707-36.8164Q73.3887-36.8164 76.2207-34.2285L94.2383-17.6758L94.2383-11.9141Q94.2383-8.98438 92.5781-7.34863Q90.918-5.71289 88.0371-5.71289ZM37.8906-34.375Q34.0332-34.375 31.2744-37.1338Q28.5156-39.8926 28.5156-43.75Q28.5156-47.5586 31.2744-50.3418Q34.0332-53.125 37.8906-53.125Q41.748-53.125 44.4824-50.3418Q47.2168-47.5586 47.2168-43.75Q47.2168-39.8926 44.4824-37.1338Q41.748-34.375 37.8906-34.375ZM21.3867-0.292969L87.9883-0.292969Q93.8477-0.292969 96.7529-3.19824Q99.6582-6.10352 99.6582-11.8164L99.6582-58.5938Q99.6582-64.3066 96.7529-67.2363Q93.8477-70.166 87.9883-70.166L21.3867-70.166Q15.625-70.166 12.6953-67.2607Q9.76562-64.3555 9.76562-58.5938L9.76562-11.8164Q9.76562-6.10352 12.6953-3.19824Q15.625-0.292969 21.3867-0.292969Z"/>
  </g>
  <g id="Thin-S" transform="matrix(1 0 0 1 802.174 696)">
   <path d="M20.166-4.44336Q16.8457-4.44336 14.9658-6.29883Q13.0859-8.1543 13.0859-11.5234L13.0859-13.2812L26.7578-25Q28.125-26.123 29.4678-26.7578Q30.8105-27.3926 32.0801-27.3926Q35.0098-27.3926 37.6953-24.9023L44.7266-18.457L63.1348-34.4238Q66.3574-37.1582 69.5801-37.1582Q72.998-37.1582 76.123-34.375L95.4102-16.9922L95.4102-11.5234Q95.4102-8.1543 93.5303-6.29883Q91.6504-4.44336 88.3789-4.44336ZM36.2305-34.668Q32.4707-34.668 29.7607-37.3535Q27.0508-40.0391 27.0508-43.8477Q27.0508-47.6074 29.7607-50.3174Q32.4707-53.0273 36.2305-53.0273Q39.9902-53.0273 42.6758-50.3174Q45.3613-47.6074 45.3613-43.8477Q45.3613-40.0391 42.6758-37.3535Q39.9902-34.668 36.2305-34.668ZM20.3125-1.17188L88.1836-1.17188Q93.4082-1.17188 96.0693-3.88184Q98.7305-6.5918 98.7305-11.7188L98.7305-58.7891Q98.7305-63.916 96.0693-66.6016Q93.4082-69.2871 88.1836-69.2871L20.3125-69.2871Q15.0879-69.2871 12.4268-66.626Q9.76562-63.9648 9.76562-58.7891L9.76562-11.7188Q9.76562-6.49414 12.4268-3.83301Q15.0879-1.17188 20.3125-1.17188Z"/>
  </g>
  <g id="Ultralight-S" transform="matrix(1 0 0 1 505.707 696)">
   <path d="M19.4824-3.75977Q15.9668-3.75977 13.9648-5.76172Q11.9629-7.76367 11.9629-11.3281L11.9629-12.8418L26.416-25.0977Q27.7832-26.2695 29.1504-26.9043Q30.5176-27.5391 31.7871-27.5391Q34.668-27.5391 37.4023-25L44.3848-18.6035L62.793-34.5215Q66.2109-37.3535 69.3359-37.3535Q72.8027-37.3535 76.0742-34.4727L96.0449-16.6504L96.0449-11.2793Q96.0449-7.76367 94.043-5.76172Q92.041-3.75977 88.5254-3.75977ZM35.4004-34.8145Q31.6406-34.8145 28.9795-37.4756Q26.3184-40.1367 26.3184-43.8965Q26.3184-47.6074 28.9795-50.2686Q31.6406-52.9297 35.4004-52.9297Q39.1113-52.9297 41.7725-50.2686Q44.4336-47.6074 44.4336-43.8965Q44.4336-40.1367 41.7725-37.4756Q39.1113-34.8145 35.4004-34.8145ZM19.7754-1.66016L88.2324-1.66016Q93.2129-1.66016 95.7275-4.22363Q98.2422-6.78711 98.2422-11.6211L98.2422-58.8379Q98.2422-63.6719 95.7275-66.2598Q93.2129-68.8477 88.2324-68.8477L19.7754-68.8477Q14.8438-68.8477 12.3047-66.3086Q9.76562-63.7695 9.76562-58.8379L9.76562-11.6211Q9.76562-6.73828 12.3047-4.19922Q14.8438-1.66016 19.7754-1.66016Z"/>
  </g>
 </g>
</svg>
