<?xml version="1.0" encoding="UTF-8"?>
<!--Generator: Apple Native CoreSVG 175-->
<!DOCTYPE svg
PUBLIC "-//W3C//DTD SVG 1.1//EN"
       "http://www.w3.org/Graphics/SVG/1.1/DTD/svg11.dtd">
<svg version="1.1" xmlns="http://www.w3.org/2000/svg" xmlns:xlink="http://www.w3.org/1999/xlink" width="3300" height="2200">
 <!--glyph: "uni100AED.medium", point size: 100.0, font version: "17.0d11e1", template writer version: "65.1"-->
 <style>.hierarchical-0:tertiary {fill:#8E8E8E}
.hierarchical-1:primary {fill:#212121}

.SFSymbolsPreview212121 {fill:#212121;opacity:1.0}
.SFSymbolsPreview8E8E8E {fill:#8E8E8E;opacity:1.0}
</style>
 <g id="Notes">
  <rect height="2200" id="artboard" style="fill:white;opacity:1" width="3300" x="0" y="0"/>
  <line style="fill:none;stroke:black;opacity:1;stroke-width:0.5;" x1="263" x2="3036" y1="292" y2="292"/>
  <text style="stroke:none;fill:black;font-family:sans-serif;font-size:13;font-weight:bold;" transform="matrix(1 0 0 1 263 322)">Weight/Scale Variations</text>
  <text style="stroke:none;fill:black;font-family:sans-serif;font-size:13;text-anchor:middle;" transform="matrix(1 0 0 1 559.711 322)">Ultralight</text>
  <text style="stroke:none;fill:black;font-family:sans-serif;font-size:13;text-anchor:middle;" transform="matrix(1 0 0 1 856.422 322)">Thin</text>
  <text style="stroke:none;fill:black;font-family:sans-serif;font-size:13;text-anchor:middle;" transform="matrix(1 0 0 1 1153.13 322)">Light</text>
  <text style="stroke:none;fill:black;font-family:sans-serif;font-size:13;text-anchor:middle;" transform="matrix(1 0 0 1 1449.84 322)">Regular</text>
  <text style="stroke:none;fill:black;font-family:sans-serif;font-size:13;text-anchor:middle;" transform="matrix(1 0 0 1 1746.56 322)">Medium</text>
  <text style="stroke:none;fill:black;font-family:sans-serif;font-size:13;text-anchor:middle;" transform="matrix(1 0 0 1 2043.27 322)">Semibold</text>
  <text style="stroke:none;fill:black;font-family:sans-serif;font-size:13;text-anchor:middle;" transform="matrix(1 0 0 1 2339.98 322)">Bold</text>
  <text style="stroke:none;fill:black;font-family:sans-serif;font-size:13;text-anchor:middle;" transform="matrix(1 0 0 1 2636.69 322)">Heavy</text>
  <text style="stroke:none;fill:black;font-family:sans-serif;font-size:13;text-anchor:middle;" transform="matrix(1 0 0 1 2933.4 322)">Black</text>
  <line style="fill:none;stroke:black;opacity:1;stroke-width:0.5;" x1="263" x2="3036" y1="1903" y2="1903"/>
  <g transform="matrix(1 0 0 1 263 1933)">
   <path d="M9.24805 0.830078Q10.8691 0.830078 12.2949 0.214844Q13.7207-0.400391 14.8096-1.49414Q15.8984-2.58789 16.5186-4.01367Q17.1387-5.43945 17.1387-7.05078Q17.1387-8.66211 16.5186-10.0879Q15.8984-11.5137 14.8047-12.6074Q13.7109-13.7012 12.2852-14.3164Q10.8594-14.9316 9.23828-14.9316Q7.62695-14.9316 6.20117-14.3164Q4.77539-13.7012 3.69141-12.6074Q2.60742-11.5137 1.9873-10.0879Q1.36719-8.66211 1.36719-7.05078Q1.36719-5.43945 1.9873-4.01367Q2.60742-2.58789 3.69629-1.49414Q4.78516-0.400391 6.21094 0.214844Q7.63672 0.830078 9.24805 0.830078ZM9.24805-0.654297Q7.91992-0.654297 6.7627-1.14746Q5.60547-1.64062 4.73145-2.51953Q3.85742-3.39844 3.36426-4.56055Q2.87109-5.72266 2.87109-7.05078Q2.87109-8.37891 3.35938-9.54102Q3.84766-10.7031 4.72168-11.582Q5.5957-12.4609 6.75293-12.9541Q7.91016-13.4473 9.23828-13.4473Q10.5762-13.4473 11.7334-12.9541Q12.8906-12.4609 13.7695-11.582Q14.6484-10.7031 15.1465-9.54102Q15.6445-8.37891 15.6445-7.05078Q15.6445-5.72266 15.1514-4.56055Q14.6582-3.39844 13.7842-2.51953Q12.9102-1.64062 11.748-1.14746Q10.5859-0.654297 9.24805-0.654297ZM5.6543-7.05078Q5.6543-6.72852 5.85938-6.52832Q6.06445-6.32812 6.40625-6.32812L8.51562-6.32812L8.51562-4.20898Q8.51562-3.88672 8.71094-3.67676Q8.90625-3.4668 9.23828-3.4668Q9.56055-3.4668 9.77051-3.67676Q9.98047-3.88672 9.98047-4.20898L9.98047-6.32812L12.0898-6.32812Q12.4219-6.32812 12.627-6.52832Q12.832-6.72852 12.832-7.05078Q12.832-7.38281 12.627-7.58789Q12.4219-7.79297 12.0898-7.79297L9.98047-7.79297L9.98047-9.90234Q9.98047-10.2344 9.77051-10.4443Q9.56055-10.6543 9.23828-10.6543Q8.90625-10.6543 8.71094-10.4443Q8.51562-10.2344 8.51562-9.90234L8.51562-7.79297L6.40625-7.79297Q6.06445-7.79297 5.85938-7.58789Q5.6543-7.38281 5.6543-7.05078Z"/>
  </g>
  <g transform="matrix(1 0 0 1 281.867 1933)">
   <path d="M11.709 2.91016Q13.75 2.91016 15.5518 2.12891Q17.3535 1.34766 18.7305-0.0292969Q20.1074-1.40625 20.8887-3.20801Q21.6699-5.00977 21.6699-7.05078Q21.6699-9.0918 20.8887-10.8936Q20.1074-12.6953 18.7305-14.0723Q17.3535-15.4492 15.5469-16.2305Q13.7402-17.0117 11.6992-17.0117Q9.6582-17.0117 7.85645-16.2305Q6.05469-15.4492 4.68262-14.0723Q3.31055-12.6953 2.5293-10.8936Q1.74805-9.0918 1.74805-7.05078Q1.74805-5.00977 2.5293-3.20801Q3.31055-1.40625 4.6875-0.0292969Q6.06445 1.34766 7.86621 2.12891Q9.66797 2.91016 11.709 2.91016ZM11.709 1.25Q9.98047 1.25 8.47656 0.605469Q6.97266-0.0390625 5.83496-1.17676Q4.69727-2.31445 4.05762-3.81836Q3.41797-5.32227 3.41797-7.05078Q3.41797-8.7793 4.05762-10.2832Q4.69727-11.7871 5.83008-12.9297Q6.96289-14.0723 8.4668-14.7119Q9.9707-15.3516 11.6992-15.3516Q13.4277-15.3516 14.9316-14.7119Q16.4355-14.0723 17.5781-12.9297Q18.7207-11.7871 19.3652-10.2832Q20.0098-8.7793 20.0098-7.05078Q20.0098-5.32227 19.3701-3.81836Q18.7305-2.31445 17.5928-1.17676Q16.4551-0.0390625 14.9463 0.605469Q13.4375 1.25 11.709 1.25ZM7.17773-7.05078Q7.17773-6.69922 7.41211-6.47461Q7.64648-6.25 8.01758-6.25L10.8887-6.25L10.8887-3.36914Q10.8887-2.99805 11.1133-2.76855Q11.3379-2.53906 11.6895-2.53906Q12.0605-2.53906 12.29-2.76855Q12.5195-2.99805 12.5195-3.36914L12.5195-6.25L15.4004-6.25Q15.7715-6.25 16.001-6.47461Q16.2305-6.69922 16.2305-7.05078Q16.2305-7.42188 16.001-7.65137Q15.7715-7.88086 15.4004-7.88086L12.5195-7.88086L12.5195-10.752Q12.5195-11.1328 12.29-11.3623Q12.0605-11.5918 11.6895-11.5918Q11.3379-11.5918 11.1133-11.3574Q10.8887-11.123 10.8887-10.752L10.8887-7.88086L8.01758-7.88086Q7.63672-7.88086 7.40723-7.65137Q7.17773-7.42188 7.17773-7.05078Z"/>
  </g>
  <g transform="matrix(1 0 0 1 305.646 1933)">
   <path d="M14.9707 5.66406Q17.0605 5.66406 18.96 5.01465Q20.8594 4.36523 22.4512 3.19336Q24.043 2.02148 25.2197 0.429688Q26.3965-1.16211 27.0459-3.06641Q27.6953-4.9707 27.6953-7.05078Q27.6953-9.14062 27.0459-11.04Q26.3965-12.9395 25.2197-14.5312Q24.043-16.123 22.4512-17.2998Q20.8594-18.4766 18.9551-19.126Q17.0508-19.7754 14.9609-19.7754Q12.8711-19.7754 10.9717-19.126Q9.07227-18.4766 7.48535-17.2998Q5.89844-16.123 4.72168-14.5312Q3.54492-12.9395 2.90039-11.04Q2.25586-9.14062 2.25586-7.05078Q2.25586-4.9707 2.90527-3.06641Q3.55469-1.16211 4.72656 0.429688Q5.89844 2.02148 7.49023 3.19336Q9.08203 4.36523 10.9814 5.01465Q12.8809 5.66406 14.9707 5.66406ZM14.9707 3.84766Q13.1641 3.84766 11.5283 3.2959Q9.89258 2.74414 8.53516 1.74805Q7.17773 0.751953 6.17676-0.610352Q5.17578-1.97266 4.62891-3.6084Q4.08203-5.24414 4.08203-7.05078Q4.08203-8.86719 4.62891-10.5029Q5.17578-12.1387 6.17188-13.501Q7.16797-14.8633 8.52539-15.8594Q9.88281-16.8555 11.5186-17.4023Q13.1543-17.9492 14.9609-17.9492Q16.7773-17.9492 18.4131-17.4023Q20.0488-16.8555 21.4111-15.8594Q22.7734-14.8633 23.7695-13.501Q24.7656-12.1387 25.3174-10.5029Q25.8691-8.86719 25.8691-7.05078Q25.8789-5.24414 25.332-3.6084Q24.7852-1.97266 23.7842-0.610352Q22.7832 0.751953 21.4209 1.74805Q20.0586 2.74414 18.4229 3.2959Q16.7871 3.84766 14.9707 3.84766ZM9.19922-7.05078Q9.19922-6.66992 9.45801-6.4209Q9.7168-6.17188 10.1172-6.17188L14.0625-6.17188L14.0625-2.2168Q14.0625-1.81641 14.3115-1.55762Q14.5605-1.29883 14.9512-1.29883Q15.3516-1.29883 15.6104-1.55273Q15.8691-1.80664 15.8691-2.2168L15.8691-6.17188L19.8242-6.17188Q20.2246-6.17188 20.4785-6.4209Q20.7324-6.66992 20.7324-7.05078Q20.7324-7.46094 20.4785-7.71484Q20.2246-7.96875 19.8242-7.96875L15.8691-7.96875L15.8691-11.9141Q15.8691-12.3242 15.6104-12.583Q15.3516-12.8418 14.9512-12.8418Q14.5605-12.8418 14.3115-12.583Q14.0625-12.3242 14.0625-11.9141L14.0625-7.96875L10.1172-7.96875Q9.70703-7.96875 9.45312-7.71484Q9.19922-7.46094 9.19922-7.05078Z"/>
  </g>
  <text style="stroke:none;fill:black;font-family:sans-serif;font-size:13;font-weight:bold;" transform="matrix(1 0 0 1 263 1953)">Design Variations</text>
  <text style="stroke:none;fill:black;font-family:sans-serif;font-size:13;" transform="matrix(1 0 0 1 263 1971)">Symbols are supported in up to nine weights and three scales.</text>
  <text style="stroke:none;fill:black;font-family:sans-serif;font-size:13;" transform="matrix(1 0 0 1 263 1989)">For optimal layout with text and other symbols, vertically align</text>
  <text style="stroke:none;fill:black;font-family:sans-serif;font-size:13;" transform="matrix(1 0 0 1 263 2007)">symbols with the adjacent text.</text>
  <line style="fill:none;stroke:#00AEEF;stroke-width:0.5;opacity:1.0;" x1="776" x2="776" y1="1919" y2="1933"/>
  <g transform="matrix(1 0 0 1 776 1933)">
   <path d="M3.31055 0.15625Q3.70117 0.15625 3.91602-0.00976562Q4.13086-0.175781 4.26758-0.585938L5.52734-4.0332L11.2891-4.0332L12.5488-0.585938Q12.6855-0.175781 12.9004-0.00976562Q13.1152 0.15625 13.4961 0.15625Q13.8867 0.15625 14.1162-0.0585938Q14.3457-0.273438 14.3457-0.644531Q14.3457-0.869141 14.2383-1.17188L9.6582-13.3691Q9.48242-13.8184 9.17969-14.043Q8.87695-14.2676 8.4082-14.2676Q7.5-14.2676 7.17773-13.3789L2.59766-1.16211Q2.49023-0.859375 2.49023-0.634766Q2.49023-0.263672 2.70996-0.0537109Q2.92969 0.15625 3.31055 0.15625ZM6.00586-5.51758L8.37891-12.0898L8.42773-12.0898L10.8008-5.51758Z"/>
  </g>
  <line style="fill:none;stroke:#00AEEF;stroke-width:0.5;opacity:1.0;" x1="793.197" x2="793.197" y1="1919" y2="1933"/>
  <text style="stroke:none;fill:black;font-family:sans-serif;font-size:13;font-weight:bold;" transform="matrix(1 0 0 1 776 1953)">Margins</text>
  <text style="stroke:none;fill:black;font-family:sans-serif;font-size:13;" transform="matrix(1 0 0 1 776 1971)">Leading and trailing margins on the left and right side of each symbol</text>
  <text style="stroke:none;fill:black;font-family:sans-serif;font-size:13;" transform="matrix(1 0 0 1 776 1989)">can be adjusted by modifying the x-location of the margin guidelines.</text>
  <text style="stroke:none;fill:black;font-family:sans-serif;font-size:13;" transform="matrix(1 0 0 1 776 2007)">Modifications are automatically applied proportionally to all</text>
  <text style="stroke:none;fill:black;font-family:sans-serif;font-size:13;" transform="matrix(1 0 0 1 776 2025)">scales and weights.</text>
  <g transform="matrix(1 0 0 1 1289 1933)">
   <path d="M2.8418 1.86523L4.54102 3.57422Q5.18555 4.22852 5.90332 4.17969Q6.62109 4.13086 7.31445 3.35938L18.0078-8.42773L17.041-9.4043L6.42578 2.27539Q6.16211 2.57812 5.89355 2.61719Q5.625 2.65625 5.27344 2.30469L4.10156 1.14258Q3.75 0.791016 3.79395 0.522461Q3.83789 0.253906 4.14062-0.0195312L15.6152-10.8203L14.6387-11.7871L3.04688-0.898438Q2.30469-0.214844 2.25098 0.498047Q2.19727 1.21094 2.8418 1.86523ZM9.25781-16.3281Q8.94531-16.0254 8.90625-15.6348Q8.86719-15.2441 9.04297-14.9512Q9.21875-14.6777 9.55566-14.541Q9.89258-14.4043 10.3809-14.5215Q11.4746-14.7754 12.5977-14.7314Q13.7207-14.6875 14.7949-13.9844L14.209-12.5293Q13.9551-11.9043 14.0674-11.4404Q14.1797-10.9766 14.5801-10.5664L16.875-8.25195Q17.2363-7.88086 17.5781-7.82227Q17.9199-7.76367 18.3398-7.8418L19.4043-8.03711L20.0684-7.36328L20.0293-6.80664Q20-6.43555 20.1221-6.12305Q20.2441-5.81055 20.6055-5.44922L21.3672-4.70703Q21.7285-4.3457 22.1533-4.33105Q22.5781-4.31641 22.9297-4.66797L25.8398-7.58789Q26.1914-7.93945 26.1816-8.35449Q26.1719-8.76953 25.8105-9.13086L25.0391-9.89258Q24.6875-10.2539 24.3799-10.3857Q24.0723-10.5176 23.7109-10.4883L23.1348-10.4395L22.4902-11.0742L22.7344-12.1973Q22.832-12.6172 22.6953-12.9834Q22.5586-13.3496 22.1191-13.7891L19.9219-15.9766Q18.6719-17.2168 17.2607-17.8369Q15.8496-18.457 14.4189-18.4814Q12.9883-18.5059 11.665-17.959Q10.3418-17.4121 9.25781-16.3281ZM10.752-15.957Q11.6602-16.6211 12.7002-16.9043Q13.7402-17.1875 14.8047-17.085Q15.8691-16.9824 16.8701-16.5137Q17.8711-16.0449 18.7012-15.2051L21.1328-12.793Q21.3086-12.6172 21.3525-12.4512Q21.3965-12.2852 21.3379-12.0312L21.0156-10.5469L22.5195-9.0625L23.5059-9.12109Q23.6914-9.13086 23.7891-9.09668Q23.8867-9.0625 24.0332-8.91602L24.6094-8.33984L22.168-5.89844L21.5918-6.47461Q21.4453-6.62109 21.4062-6.71875Q21.3672-6.81641 21.377-7.01172L21.4453-7.98828L19.9512-9.47266L18.4277-9.21875Q18.1836-9.16992 18.042-9.2041Q17.9004-9.23828 17.7148-9.41406L15.7129-11.416Q15.5176-11.5918 15.4932-11.7529Q15.4688-11.9141 15.5859-12.1875L16.4648-14.2773Q15.293-15.3711 13.8281-15.791Q12.3633-16.2109 10.8398-15.7617Q10.7227-15.7324 10.6885-15.8057Q10.6543-15.8789 10.752-15.957Z"/>
  </g>
  <text style="stroke:none;fill:black;font-family:sans-serif;font-size:13;font-weight:bold;" transform="matrix(1 0 0 1 1289 1953)">Exporting</text>
  <text style="stroke:none;fill:black;font-family:sans-serif;font-size:13;" transform="matrix(1 0 0 1 1289 1971)">Symbols should be outlined when exporting to ensure the</text>
  <text style="stroke:none;fill:black;font-family:sans-serif;font-size:13;" transform="matrix(1 0 0 1 1289 1989)">design is preserved when submitting to Xcode.</text>
  <text id="template-version" style="stroke:none;fill:black;font-family:sans-serif;font-size:13;text-anchor:end;" transform="matrix(1 0 0 1 3036 1933)">Template v.3.0</text>
  <text style="stroke:none;fill:black;font-family:sans-serif;font-size:13;text-anchor:end;" transform="matrix(1 0 0 1 3036 1951)">Requires Xcode 13 or greater</text>
  <text id="descriptive-name" style="stroke:none;fill:black;font-family:sans-serif;font-size:13;text-anchor:end;" transform="matrix(1 0 0 1 3036 1969)">Generated from minus.plus.batteryblock.fill</text>
  <text style="stroke:none;fill:black;font-family:sans-serif;font-size:13;text-anchor:end;" transform="matrix(1 0 0 1 3036 1987)">Typeset at 100 points</text>
  <text style="stroke:none;fill:black;font-family:sans-serif;font-size:13;" transform="matrix(1 0 0 1 263 726)">Small</text>
  <text style="stroke:none;fill:black;font-family:sans-serif;font-size:13;" transform="matrix(1 0 0 1 263 1156)">Medium</text>
  <text style="stroke:none;fill:black;font-family:sans-serif;font-size:13;" transform="matrix(1 0 0 1 263 1586)">Large</text>
 </g>
 <g id="Guides">
  <g id="H-reference" style="fill:#27AAE1;stroke:none;" transform="matrix(1 0 0 1 339 696)">
   <path d="M0.976562 0L3.66211 0L29.3457-67.1387L30.0293-67.1387L30.0293-70.459L28.125-70.459ZM11.6699-24.4629L46.9727-24.4629L46.2402-26.709L12.4512-26.709ZM55.127 0L57.7637 0L30.6152-70.459L29.4434-70.459L29.4434-67.1387Z"/>
  </g>
  <line id="Baseline-S" style="fill:none;stroke:#27AAE1;opacity:1;stroke-width:0.5;" x1="263" x2="3036" y1="696" y2="696"/>
  <line id="Capline-S" style="fill:none;stroke:#27AAE1;opacity:1;stroke-width:0.5;" x1="263" x2="3036" y1="625.541" y2="625.541"/>
  <g id="H-reference" style="fill:#27AAE1;stroke:none;" transform="matrix(1 0 0 1 339 1126)">
   <path d="M0.976562 0L3.66211 0L29.3457-67.1387L30.0293-67.1387L30.0293-70.459L28.125-70.459ZM11.6699-24.4629L46.9727-24.4629L46.2402-26.709L12.4512-26.709ZM55.127 0L57.7637 0L30.6152-70.459L29.4434-70.459L29.4434-67.1387Z"/>
  </g>
  <line id="Baseline-M" style="fill:none;stroke:#27AAE1;opacity:1;stroke-width:0.5;" x1="263" x2="3036" y1="1126" y2="1126"/>
  <line id="Capline-M" style="fill:none;stroke:#27AAE1;opacity:1;stroke-width:0.5;" x1="263" x2="3036" y1="1055.54" y2="1055.54"/>
  <g id="H-reference" style="fill:#27AAE1;stroke:none;" transform="matrix(1 0 0 1 339 1556)">
   <path d="M0.976562 0L3.66211 0L29.3457-67.1387L30.0293-67.1387L30.0293-70.459L28.125-70.459ZM11.6699-24.4629L46.9727-24.4629L46.2402-26.709L12.4512-26.709ZM55.127 0L57.7637 0L30.6152-70.459L29.4434-70.459L29.4434-67.1387Z"/>
  </g>
  <line id="Baseline-L" style="fill:none;stroke:#27AAE1;opacity:1;stroke-width:0.5;" x1="263" x2="3036" y1="1556" y2="1556"/>
  <line id="Capline-L" style="fill:none;stroke:#27AAE1;opacity:1;stroke-width:0.5;" x1="263" x2="3036" y1="1485.54" y2="1485.54"/>
  <line id="left-margin-Ultralight-S" style="fill:none;stroke:#00AEEF;stroke-width:0.5;opacity:1.0;" x1="505.707" x2="505.707" y1="600.785" y2="720.121"/>
  <line id="right-margin-Ultralight-S" style="fill:none;stroke:#00AEEF;stroke-width:0.5;opacity:1.0;" x1="613.715" x2="613.715" y1="600.785" y2="720.121"/>
  <line id="left-margin-Thin-S" style="fill:none;stroke:#00AEEF;stroke-width:0.5;opacity:1.0;" x1="802.174" x2="802.174" y1="600.785" y2="720.121"/>
  <line id="right-margin-Thin-S" style="fill:none;stroke:#00AEEF;stroke-width:0.5;opacity:1.0;" x1="910.67" x2="910.67" y1="600.785" y2="720.121"/>
  <line id="left-margin-Light-S" style="fill:none;stroke:#00AEEF;stroke-width:0.5;opacity:1.0;" x1="1098.42" x2="1098.42" y1="600.785" y2="720.121"/>
  <line id="right-margin-Light-S" style="fill:none;stroke:#00AEEF;stroke-width:0.5;opacity:1.0;" x1="1207.85" x2="1207.85" y1="600.785" y2="720.121"/>
  <line id="left-margin-Regular-S" style="fill:none;stroke:#00AEEF;stroke-width:0.5;opacity:1.0;" x1="1394.79" x2="1394.79" y1="600.785" y2="720.121"/>
  <line id="right-margin-Regular-S" style="fill:none;stroke:#00AEEF;stroke-width:0.5;opacity:1.0;" x1="1504.9" x2="1504.9" y1="600.785" y2="720.121"/>
  <line id="left-margin-Medium-S" style="fill:none;stroke:#00AEEF;stroke-width:0.5;opacity:1.0;" x1="1691.33" x2="1691.33" y1="600.785" y2="720.121"/>
  <line id="right-margin-Medium-S" style="fill:none;stroke:#00AEEF;stroke-width:0.5;opacity:1.0;" x1="1801.78" x2="1801.78" y1="600.785" y2="720.121"/>
  <line id="left-margin-Semibold-S" style="fill:none;stroke:#00AEEF;stroke-width:0.5;opacity:1.0;" x1="1987.9" x2="1987.9" y1="600.785" y2="720.121"/>
  <line id="right-margin-Semibold-S" style="fill:none;stroke:#00AEEF;stroke-width:0.5;opacity:1.0;" x1="2098.64" x2="2098.64" y1="600.785" y2="720.121"/>
  <line id="left-margin-Bold-S" style="fill:none;stroke:#00AEEF;stroke-width:0.5;opacity:1.0;" x1="2284.41" x2="2284.41" y1="600.785" y2="720.121"/>
  <line id="right-margin-Bold-S" style="fill:none;stroke:#00AEEF;stroke-width:0.5;opacity:1.0;" x1="2395.54" x2="2395.54" y1="600.785" y2="720.121"/>
  <line id="left-margin-Heavy-S" style="fill:none;stroke:#00AEEF;stroke-width:0.5;opacity:1.0;" x1="2580.88" x2="2580.88" y1="600.785" y2="720.121"/>
  <line id="right-margin-Heavy-S" style="fill:none;stroke:#00AEEF;stroke-width:0.5;opacity:1.0;" x1="2692.5" x2="2692.5" y1="600.785" y2="720.121"/>
  <line id="left-margin-Black-S" style="fill:none;stroke:#00AEEF;stroke-width:0.5;opacity:1.0;" x1="2877.35" x2="2877.35" y1="600.785" y2="720.121"/>
  <line id="right-margin-Black-S" style="fill:none;stroke:#00AEEF;stroke-width:0.5;opacity:1.0;" x1="2989.45" x2="2989.45" y1="600.785" y2="720.121"/>
  <line id="left-margin-Ultralight-M" style="fill:none;stroke:#00AEEF;stroke-width:0.5;opacity:1.0;" x1="490.863" x2="490.863" y1="1030.79" y2="1150.12"/>
  <line id="right-margin-Ultralight-M" style="fill:none;stroke:#00AEEF;stroke-width:0.5;opacity:1.0;" x1="628.559" x2="628.559" y1="1030.79" y2="1150.12"/>
  <line id="left-margin-Thin-M" style="fill:none;stroke:#00AEEF;stroke-width:0.5;opacity:1.0;" x1="787.306" x2="787.306" y1="1030.79" y2="1150.12"/>
  <line id="right-margin-Thin-M" style="fill:none;stroke:#00AEEF;stroke-width:0.5;opacity:1.0;" x1="925.538" x2="925.538" y1="1030.79" y2="1150.12"/>
  <line id="left-margin-Light-M" style="fill:none;stroke:#00AEEF;stroke-width:0.5;opacity:1.0;" x1="1083.5" x2="1083.5" y1="1030.79" y2="1150.12"/>
  <line id="right-margin-Light-M" style="fill:none;stroke:#00AEEF;stroke-width:0.5;opacity:1.0;" x1="1222.76" x2="1222.76" y1="1030.79" y2="1150.12"/>
  <line id="left-margin-Regular-M" style="fill:none;stroke:#00AEEF;stroke-width:0.5;opacity:1.0;" x1="1379.82" x2="1379.82" y1="1030.79" y2="1150.12"/>
  <line id="right-margin-Regular-M" style="fill:none;stroke:#00AEEF;stroke-width:0.5;opacity:1.0;" x1="1519.86" x2="1519.86" y1="1030.79" y2="1150.12"/>
  <line id="left-margin-Medium-M" style="fill:none;stroke:#00AEEF;stroke-width:0.5;opacity:1.0;" x1="1676.29" x2="1676.29" y1="1030.79" y2="1150.12"/>
  <line id="right-margin-Medium-M" style="fill:none;stroke:#00AEEF;stroke-width:0.5;opacity:1.0;" x1="1816.82" x2="1816.82" y1="1030.79" y2="1150.12"/>
  <line id="left-margin-Semibold-M" style="fill:none;stroke:#00AEEF;stroke-width:0.5;opacity:1.0;" x1="1972.81" x2="1972.81" y1="1030.79" y2="1150.12"/>
  <line id="right-margin-Semibold-M" style="fill:none;stroke:#00AEEF;stroke-width:0.5;opacity:1.0;" x1="2113.73" x2="2113.73" y1="1030.79" y2="1150.12"/>
  <line id="left-margin-Bold-M" style="fill:none;stroke:#00AEEF;stroke-width:0.5;opacity:1.0;" x1="2269.25" x2="2269.25" y1="1030.79" y2="1150.12"/>
  <line id="right-margin-Bold-M" style="fill:none;stroke:#00AEEF;stroke-width:0.5;opacity:1.0;" x1="2410.71" x2="2410.71" y1="1030.79" y2="1150.12"/>
  <line id="left-margin-Heavy-M" style="fill:none;stroke:#00AEEF;stroke-width:0.5;opacity:1.0;" x1="2565.6" x2="2565.6" y1="1030.79" y2="1150.12"/>
  <line id="right-margin-Heavy-M" style="fill:none;stroke:#00AEEF;stroke-width:0.5;opacity:1.0;" x1="2707.78" x2="2707.78" y1="1030.79" y2="1150.12"/>
  <line id="left-margin-Black-M" style="fill:none;stroke:#00AEEF;stroke-width:0.5;opacity:1.0;" x1="2861.96" x2="2861.96" y1="1030.79" y2="1150.12"/>
  <line id="right-margin-Black-M" style="fill:none;stroke:#00AEEF;stroke-width:0.5;opacity:1.0;" x1="3004.84" x2="3004.84" y1="1030.79" y2="1150.12"/>
  <line id="left-margin-Ultralight-L" style="fill:none;stroke:#00AEEF;stroke-width:0.5;opacity:1.0;" x1="471.015" x2="471.015" y1="1460.79" y2="1580.12"/>
  <line id="right-margin-Ultralight-L" style="fill:none;stroke:#00AEEF;stroke-width:0.5;opacity:1.0;" x1="648.407" x2="648.407" y1="1460.79" y2="1580.12"/>
  <line id="left-margin-Thin-L" style="fill:none;stroke:#00AEEF;stroke-width:0.5;opacity:1.0;" x1="767.409" x2="767.409" y1="1460.79" y2="1580.12"/>
  <line id="right-margin-Thin-L" style="fill:none;stroke:#00AEEF;stroke-width:0.5;opacity:1.0;" x1="945.436" x2="945.436" y1="1460.79" y2="1580.12"/>
  <line id="left-margin-Light-L" style="fill:none;stroke:#00AEEF;stroke-width:0.5;opacity:1.0;" x1="1063.53" x2="1063.53" y1="1460.79" y2="1580.12"/>
  <line id="right-margin-Light-L" style="fill:none;stroke:#00AEEF;stroke-width:0.5;opacity:1.0;" x1="1242.73" x2="1242.73" y1="1460.79" y2="1580.12"/>
  <line id="left-margin-Regular-L" style="fill:none;stroke:#00AEEF;stroke-width:0.5;opacity:1.0;" x1="1359.81" x2="1359.81" y1="1460.79" y2="1580.12"/>
  <line id="right-margin-Regular-L" style="fill:none;stroke:#00AEEF;stroke-width:0.5;opacity:1.0;" x1="1539.88" x2="1539.88" y1="1460.79" y2="1580.12"/>
  <line id="left-margin-Medium-L" style="fill:none;stroke:#00AEEF;stroke-width:0.5;opacity:1.0;" x1="1656.17" x2="1656.17" y1="1460.79" y2="1580.12"/>
  <line id="right-margin-Medium-L" style="fill:none;stroke:#00AEEF;stroke-width:0.5;opacity:1.0;" x1="1836.94" x2="1836.94" y1="1460.79" y2="1580.12"/>
  <line id="left-margin-Semibold-L" style="fill:none;stroke:#00AEEF;stroke-width:0.5;opacity:1.0;" x1="1952.64" x2="1952.64" y1="1460.79" y2="1580.12"/>
  <line id="right-margin-Semibold-L" style="fill:none;stroke:#00AEEF;stroke-width:0.5;opacity:1.0;" x1="2133.89" x2="2133.89" y1="1460.79" y2="1580.12"/>
  <line id="left-margin-Bold-L" style="fill:none;stroke:#00AEEF;stroke-width:0.5;opacity:1.0;" x1="2249.01" x2="2249.01" y1="1460.79" y2="1580.12"/>
  <line id="right-margin-Bold-L" style="fill:none;stroke:#00AEEF;stroke-width:0.5;opacity:1.0;" x1="2430.94" x2="2430.94" y1="1460.79" y2="1580.12"/>
  <line id="left-margin-Heavy-L" style="fill:none;stroke:#00AEEF;stroke-width:0.5;opacity:1.0;" x1="2545.23" x2="2545.23" y1="1460.79" y2="1580.12"/>
  <line id="right-margin-Heavy-L" style="fill:none;stroke:#00AEEF;stroke-width:0.5;opacity:1.0;" x1="2728.14" x2="2728.14" y1="1460.79" y2="1580.12"/>
  <line id="left-margin-Black-L" style="fill:none;stroke:#00AEEF;stroke-width:0.5;opacity:1.0;" x1="2841.51" x2="2841.51" y1="1460.79" y2="1580.12"/>
  <line id="right-margin-Black-L" style="fill:none;stroke:#00AEEF;stroke-width:0.5;opacity:1.0;" x1="3025.29" x2="3025.29" y1="1460.79" y2="1580.12"/>
 </g>
 <g id="Symbols">
  <g id="Black-L" transform="matrix(1 0 0 1 2841.51 1556)">
   <path class="hierarchical-0:tertiary SFSymbolsPreview8E8E8E" d="M39.9902 26.416L143.799 26.416Q155.225 26.416 161.475 20.2148Q167.725 14.0137 167.725 2.63672L167.725-55.3223Q167.725-66.6992 161.475-72.9248Q155.225-79.1504 143.799-79.1504L39.9902-79.1504Q28.5645-79.1504 22.3145-72.9248Q16.0645-66.6992 16.0645-55.3223L16.0645 2.63672Q16.0645 14.0137 22.3145 20.2148Q28.5645 26.416 39.9902 26.416ZM45.6543-75.2441L82.9102-75.2441L82.9102-85.2539Q82.9102-90.7715 79.8828-93.8721Q76.8555-96.9727 71.3867-96.9727L57.1777-96.9727Q51.709-96.9727 48.6816-93.8721Q45.6543-90.7715 45.6543-85.2539ZM100.781-75.2441L138.086-75.2441L138.086-85.2539Q138.086-90.7715 135.034-93.8721Q131.982-96.9727 126.514-96.9727L112.354-96.9727Q106.885-96.9727 103.833-93.8721Q100.781-90.7715 100.781-85.2539Z"/>
   <path class="hierarchical-1:primary SFSymbolsPreview212121" d="M100.244-26.3672Q100.244-29.1016 102.173-31.0303Q104.102-32.959 106.885-32.959L115.332-32.959L115.332-41.4551Q115.332-44.1406 117.261-46.0938Q119.189-48.0469 121.924-48.0469Q124.658-48.0469 126.611-46.0938Q128.564-44.1406 128.564-41.4551L128.564-32.959L136.963-32.959Q139.697-32.959 141.626-31.0303Q143.555-29.1016 143.555-26.3672Q143.555-23.584 141.626-21.6553Q139.697-19.7266 136.963-19.7266L128.564-19.7266L128.564-11.2793Q128.564-8.59375 126.636-6.66504Q124.707-4.73633 121.973-4.73633Q119.238-4.73633 117.285-6.66504Q115.332-8.59375 115.332-11.2793L115.332-19.7266L106.885-19.7266Q104.102-19.7266 102.173-21.6553Q100.244-23.584 100.244-26.3672ZM40.1855-26.3672Q40.1855-29.1016 42.0898-31.0303Q43.9941-32.959 46.7773-32.959L76.8555-32.959Q79.5898-32.959 81.543-31.0303Q83.4961-29.1016 83.4961-26.3672Q83.4961-23.584 81.543-21.6553Q79.5898-19.7266 76.8555-19.7266L46.7773-19.7266Q43.9941-19.7266 42.0898-21.6553Q40.1855-23.584 40.1855-26.3672Z"/>
  </g>
  <g id="Heavy-L" transform="matrix(1 0 0 1 2545.23 1556)">
   <path class="hierarchical-0:tertiary SFSymbolsPreview8E8E8E" d="M38.8184 25.3906L144.092 25.3906Q155.029 25.3906 160.938 19.5312Q166.846 13.6719 166.846 2.7832L166.846-55.9082Q166.846-66.7969 160.938-72.6562Q155.029-78.5156 144.092-78.5156L38.8184-78.5156Q27.8809-78.5156 21.9727-72.6562Q16.0645-66.7969 16.0645-55.9082L16.0645 2.7832Q16.0645 13.7207 21.9727 19.5557Q27.8809 25.3906 38.8184 25.3906ZM45.0195-74.6094L81.4941-74.6094L81.4941-85.3027Q81.4941-90.332 78.7354-93.1396Q75.9766-95.9473 70.9473-95.9473L55.5664-95.9473Q50.5371-95.9473 47.7783-93.1396Q45.0195-90.332 45.0195-85.3027ZM101.318-74.6094L137.793-74.6094L137.793-85.3027Q137.793-90.332 135.01-93.1396Q132.227-95.9473 127.246-95.9473L111.914-95.9473Q106.885-95.9473 104.102-93.1396Q101.318-90.332 101.318-85.3027Z"/>
   <path class="hierarchical-1:primary SFSymbolsPreview212121" d="M100.049-26.5625Q100.049-29.0527 101.807-30.8105Q103.564-32.5684 106.104-32.5684L115.625-32.5684L115.625-42.1387Q115.625-44.5801 117.383-46.3623Q119.141-48.1445 121.631-48.1445Q124.121-48.1445 125.903-46.3623Q127.686-44.5801 127.686-42.1387L127.686-32.5684L137.158-32.5684Q139.648-32.5684 141.406-30.8105Q143.164-29.0527 143.164-26.5625Q143.164-24.0234 141.406-22.2656Q139.648-20.5078 137.158-20.5078L127.686-20.5078L127.686-11.0352Q127.686-8.54492 125.928-6.78711Q124.17-5.0293 121.68-5.0293Q119.189-5.0293 117.407-6.78711Q115.625-8.54492 115.625-11.0352L115.625-20.5078L106.104-20.5078Q103.564-20.5078 101.807-22.2656Q100.049-24.0234 100.049-26.5625ZM39.6973-26.5625Q39.6973-29.0527 41.4307-30.8105Q43.1641-32.5684 45.7031-32.5684L76.709-32.5684Q79.1992-32.5684 80.9814-30.8105Q82.7637-29.0527 82.7637-26.5625Q82.7637-24.0234 80.9814-22.2656Q79.1992-20.5078 76.709-20.5078L45.7031-20.5078Q43.1641-20.5078 41.4307-22.2656Q39.6973-24.0234 39.6973-26.5625Z"/>
  </g>
  <g id="Bold-L" transform="matrix(1 0 0 1 2249.01 1556)">
   <path class="hierarchical-0:tertiary SFSymbolsPreview8E8E8E" d="M37.5488 24.2676L144.385 24.2676Q154.834 24.2676 160.352 18.7988Q165.869 13.3301 165.869 2.97852L165.869-56.543Q165.869-66.8945 160.352-72.3877Q154.834-77.8809 144.385-77.8809L37.5488-77.8809Q27.0996-77.8809 21.582-72.4121Q16.0645-66.9434 16.0645-56.543L16.0645 2.97852Q16.0645 13.3789 21.582 18.8232Q27.0996 24.2676 37.5488 24.2676ZM44.3848-73.877L79.8828-73.877L79.8828-85.3516Q79.8828-89.7949 77.4414-92.3096Q75-94.8242 70.5078-94.8242L53.7598-94.8242Q49.2676-94.8242 46.8262-92.3096Q44.3848-89.7949 44.3848-85.3516ZM101.953-73.877L137.5-73.877L137.5-85.3516Q137.5-89.7949 135.034-92.3096Q132.568-94.8242 128.076-94.8242L111.377-94.8242Q106.885-94.8242 104.419-92.3096Q101.953-89.7949 101.953-85.3516Z"/>
   <path class="hierarchical-1:primary SFSymbolsPreview212121" d="M99.9023-26.8066Q99.9023-29.0527 101.465-30.6152Q103.027-32.1777 105.273-32.1777L115.967-32.1777L115.967-42.9199Q115.967-45.1172 117.529-46.6797Q119.092-48.2422 121.338-48.2422Q123.535-48.2422 125.122-46.6797Q126.709-45.1172 126.709-42.9199L126.709-32.1777L137.354-32.1777Q139.6-32.1777 141.162-30.6152Q142.725-29.0527 142.725-26.8066Q142.725-24.5605 141.162-22.998Q139.6-21.4355 137.354-21.4355L126.709-21.4355L126.709-10.7422Q126.709-8.54492 125.146-6.95801Q123.584-5.37109 121.338-5.41992Q119.141-5.37109 117.554-6.95801Q115.967-8.54492 115.967-10.7422L115.967-21.4355L105.273-21.4355Q103.027-21.4355 101.465-22.998Q99.9023-24.5605 99.9023-26.8066ZM39.1113-26.8066Q39.1113-29.0527 40.6738-30.6152Q42.2363-32.1777 44.4824-32.1777L76.5625-32.1777Q78.8086-32.1777 80.3955-30.6152Q81.9824-29.0527 81.9824-26.8066Q81.9824-24.5605 80.3955-22.998Q78.8086-21.4355 76.5625-21.4355L44.4824-21.4355Q42.2363-21.4355 40.6738-22.998Q39.1113-24.5605 39.1113-26.8066Z"/>
  </g>
  <g id="Semibold-L" transform="matrix(1 0 0 1 1952.64 1556)">
   <path class="hierarchical-0:tertiary SFSymbolsPreview8E8E8E" d="M36.6211 23.4863L144.58 23.4863Q154.688 23.4863 159.937 18.2861Q165.186 13.0859 165.186 3.125L165.186-56.9824Q165.186-66.9434 159.937-72.168Q154.688-77.3926 144.58-77.3926L36.6211-77.3926Q26.5625-77.3926 21.3135-72.1924Q16.0645-66.9922 16.0645-56.9824L16.0645 3.125Q16.0645 13.1348 21.3135 18.3105Q26.5625 23.4863 36.6211 23.4863ZM43.8965-73.3887L78.7598-73.3887L78.7598-85.3516Q78.7598-89.4531 76.5137-91.748Q74.2676-94.043 70.166-94.043L52.5391-94.043Q48.3887-94.043 46.1426-91.748Q43.8965-89.4531 43.8965-85.3516ZM102.393-73.3887L137.305-73.3887L137.305-85.3516Q137.305-89.4531 135.034-91.748Q132.764-94.043 128.662-94.043L111.035-94.043Q106.885-94.043 104.639-91.748Q102.393-89.4531 102.393-85.3516Z"/>
   <path class="hierarchical-1:primary SFSymbolsPreview212121" d="M99.7559-26.9531Q99.7559-29.0039 101.172-30.4199Q102.588-31.8359 104.688-31.8359L116.211-31.8359L116.211-43.4082Q116.211-45.459 117.627-46.875Q119.043-48.291 121.094-48.291Q123.145-48.291 124.561-46.875Q125.977-45.459 125.977-43.4082L125.977-31.8359L137.5-31.8359Q139.551-31.8359 140.991-30.4199Q142.432-29.0039 142.432-26.9531Q142.432-24.9023 140.991-23.4619Q139.551-22.0215 137.5-22.0215L125.977-22.0215L125.977-10.498Q125.977-8.49609 124.561-7.05566Q123.145-5.61523 121.094-5.61523Q119.092-5.61523 117.651-7.05566Q116.211-8.49609 116.211-10.498L116.211-22.0215L104.688-22.0215Q102.588-22.0215 101.172-23.4619Q99.7559-24.9023 99.7559-26.9531ZM38.7207-26.9531Q38.7207-29.0039 40.1367-30.4199Q41.5527-31.8359 43.6523-31.8359L76.4648-31.8359Q78.5156-31.8359 79.9561-30.4199Q81.3965-29.0039 81.3965-26.9531Q81.3965-24.9023 79.9561-23.4619Q78.5156-22.0215 76.4648-22.0215L43.6523-22.0215Q41.5527-22.0215 40.1367-23.4619Q38.7207-24.9023 38.7207-26.9531Z"/>
  </g>
  <g id="Medium-L" transform="matrix(1 0 0 1 1656.17 1556)">
   <path class="hierarchical-0:tertiary SFSymbolsPreview8E8E8E" d="M35.9375 22.9004L144.775 22.9004Q154.59 22.9004 159.644 17.8955Q164.697 12.8906 164.697 3.17383L164.697-57.3242Q164.697-67.041 159.644-72.0459Q154.59-77.0508 144.775-77.0508L35.9375-77.0508Q26.1719-77.0508 21.1182-72.0459Q16.0645-67.041 16.0645-57.3242L16.0645 3.17383Q16.0645 12.9395 21.1182 17.9199Q26.1719 22.9004 35.9375 22.9004ZM43.5547-72.998L77.9297-72.998L77.9297-85.3516Q77.9297-89.1602 75.8545-91.3086Q73.7793-93.457 69.9219-93.457L51.5625-93.457Q47.7051-93.457 45.6299-91.3086Q43.5547-89.1602 43.5547-85.3516ZM102.686-72.998L137.109-72.998L137.109-85.3516Q137.109-89.1602 135.01-91.3086Q132.91-93.457 129.053-93.457L110.742-93.457Q106.885-93.457 104.785-91.3086Q102.686-89.1602 102.686-85.3516Z"/>
   <path class="hierarchical-1:primary SFSymbolsPreview212121" d="M99.6582-27.0996Q99.6582-29.0039 100.977-30.3223Q102.295-31.6406 104.248-31.6406L116.357-31.6406L116.357-43.7988Q116.357-45.7031 117.7-47.0459Q119.043-48.3887 120.898-48.3887Q122.803-48.3887 124.146-47.0459Q125.488-45.7031 125.488-43.7988L125.488-31.6406L137.598-31.6406Q139.551-31.6406 140.869-30.3223Q142.188-29.0039 142.188-27.0996Q142.188-25.1465 140.869-23.8281Q139.551-22.5098 137.598-22.5098L125.488-22.5098L125.488-10.3516Q125.488-8.49609 124.146-7.12891Q122.803-5.76172 120.947-5.81055Q119.043-5.76172 117.7-7.12891Q116.357-8.49609 116.357-10.3516L116.357-22.5098L104.248-22.5098Q102.295-22.5098 100.977-23.8281Q99.6582-25.1465 99.6582-27.0996ZM38.4277-27.0996Q38.4277-29.0039 39.7461-30.3223Q41.0645-31.6406 43.0176-31.6406L76.3672-31.6406Q78.3203-31.6406 79.6387-30.3223Q80.957-29.0039 80.957-27.0996Q80.957-25.1465 79.6387-23.8281Q78.3203-22.5098 76.3672-22.5098L43.0176-22.5098Q41.0645-22.5098 39.7461-23.8281Q38.4277-25.1465 38.4277-27.0996Z"/>
  </g>
  <g id="Regular-L" transform="matrix(1 0 0 1 1359.81 1556)">
   <path class="hierarchical-0:tertiary SFSymbolsPreview8E8E8E" d="M35.0586 22.1191L144.971 22.1191Q154.443 22.1191 159.229 17.3828Q164.014 12.6465 164.014 3.32031L164.014-57.7637Q164.014-67.0898 159.229-71.8262Q154.443-76.5625 144.971-76.5625L35.0586-76.5625Q25.6348-76.5625 20.8496-71.8506Q16.0645-67.1387 16.0645-57.7637L16.0645 3.32031Q16.0645 12.6953 20.8496 17.4072Q25.6348 22.1191 35.0586 22.1191ZM43.0664-72.5098L76.8555-72.5098L76.8555-85.4004Q76.8555-88.8184 74.9756-90.7471Q73.0957-92.6758 69.5801-92.6758L50.3418-92.6758Q46.8262-92.6758 44.9463-90.7471Q43.0664-88.8184 43.0664-85.4004ZM103.125-72.5098L136.914-72.5098L136.914-85.4004Q136.914-88.8184 135.01-90.7471Q133.105-92.6758 129.639-92.6758L110.4-92.6758Q106.885-92.6758 105.005-90.7471Q103.125-88.8184 103.125-85.4004Z"/>
   <path class="hierarchical-1:primary SFSymbolsPreview212121" d="M99.5117-27.2461Q99.5117-28.9551 100.708-30.1514Q101.904-31.3477 103.662-31.3477L116.602-31.3477L116.602-44.3359Q116.602-46.0449 117.798-47.2412Q118.994-48.4375 120.703-48.4375Q122.412-48.4375 123.608-47.2412Q124.805-46.0449 124.805-44.3359L124.805-31.3477L137.744-31.3477Q139.502-31.3477 140.698-30.1514Q141.895-28.9551 141.895-27.2461Q141.895-25.4883 140.698-24.292Q139.502-23.0957 137.744-23.0957L124.805-23.0957L124.805-10.1562Q124.805-8.44727 123.608-7.22656Q122.412-6.00586 120.703-6.05469Q118.994-6.00586 117.798-7.22656Q116.602-8.44727 116.602-10.1562L116.602-23.0957L103.662-23.0957Q101.904-23.0957 100.708-24.292Q99.5117-25.4883 99.5117-27.2461ZM38.0371-27.2461Q38.0371-28.9551 39.2334-30.1514Q40.4297-31.3477 42.1875-31.3477L76.2695-31.3477Q78.0273-31.3477 79.2236-30.1514Q80.4199-28.9551 80.4199-27.2461Q80.4199-25.4883 79.2236-24.292Q78.0273-23.0957 76.2695-23.0957L42.1875-23.0957Q40.4297-23.0957 39.2334-24.292Q38.0371-25.4883 38.0371-27.2461Z"/>
  </g>
  <g id="Light-L" transform="matrix(1 0 0 1 1063.53 1556)">
   <path class="hierarchical-0:tertiary SFSymbolsPreview8E8E8E" d="M34.0332 21.2891L145.117 21.2891Q154.053 21.2891 158.594 16.748Q163.135 12.207 163.135 3.41797L163.135-57.9102Q163.135-66.6504 158.594-71.1914Q154.053-75.7324 145.117-75.7324L34.0332-75.7324Q25.1465-75.7324 20.6055-71.2402Q16.0645-66.748 16.0645-57.9102L16.0645 3.41797Q16.0645 12.3047 20.6055 16.7969Q25.1465 21.2891 34.0332 21.2891ZM42.041-72.6074L75.8301-72.6074L75.8301-85.1074Q75.8301-88.2812 74.0967-90.0635Q72.3633-91.8457 69.043-91.8457L48.877-91.8457Q45.5078-91.8457 43.7744-90.0635Q42.041-88.2812 42.041-85.1074ZM103.271-72.6074L137.061-72.6074L137.061-85.1074Q137.061-88.2812 135.303-90.0635Q133.545-91.8457 130.273-91.8457L110.107-91.8457Q106.787-91.8457 105.029-90.0635Q103.271-88.2812 103.271-85.1074Z"/>
   <path class="hierarchical-1:primary SFSymbolsPreview212121" d="M100.049-27.2461Q100.049-28.5645 100.977-29.4922Q101.904-30.4199 103.223-30.4199L117.432-30.4199L117.432-44.6289Q117.432-45.9473 118.359-46.875Q119.287-47.8027 120.605-47.8027Q121.924-47.8027 122.852-46.875Q123.779-45.9473 123.779-44.6289L123.779-30.4199L137.939-30.4199Q139.307-30.4199 140.234-29.4922Q141.162-28.5645 141.162-27.2461Q141.162-25.8789 140.234-24.9512Q139.307-24.0234 137.939-24.0234L123.779-24.0234L123.779-9.86328Q123.779-8.54492 122.852-7.59277Q121.924-6.64062 120.605-6.68945Q119.287-6.64062 118.359-7.59277Q117.432-8.54492 117.432-9.86328L117.432-24.0234L103.223-24.0234Q101.904-24.0234 100.977-24.9512Q100.049-25.8789 100.049-27.2461ZM37.9395-27.2461Q37.9395-28.5645 38.8428-29.4922Q39.7461-30.4199 41.1133-30.4199L75.8301-30.4199Q77.1973-30.4199 78.1006-29.4922Q79.0039-28.5645 79.0039-27.2461Q79.0039-25.8789 78.1006-24.9512Q77.1973-24.0234 75.8301-24.0234L41.1133-24.0234Q39.7461-24.0234 38.8428-24.9512Q37.9395-25.8789 37.9395-27.2461Z"/>
  </g>
  <g id="Thin-L" transform="matrix(1 0 0 1 767.409 1556)">
   <path class="hierarchical-0:tertiary SFSymbolsPreview8E8E8E" d="M32.666 20.166L145.312 20.166Q153.516 20.166 157.739 15.918Q161.963 11.6699 161.963 3.61328L161.963-58.0566Q161.963-66.1133 157.739-70.3613Q153.516-74.6094 145.312-74.6094L32.666-74.6094Q24.5117-74.6094 20.2881-70.4102Q16.0645-66.2109 16.0645-58.0566L16.0645 3.61328Q16.0645 11.7676 20.2881 15.9668Q24.5117 20.166 32.666 20.166ZM40.7227-72.8027L74.5117-72.8027L74.5117-84.7168Q74.5117-87.5488 72.9492-89.1357Q71.3867-90.7227 68.2617-90.7227L46.875-90.7227Q43.7988-90.7227 42.2607-89.1357Q40.7227-87.5488 40.7227-84.7168ZM103.516-72.8027L137.305-72.8027L137.305-84.7168Q137.305-87.5488 135.742-89.1357Q134.18-90.7227 131.104-90.7227L109.717-90.7227Q106.592-90.7227 105.054-89.1357Q103.516-87.5488 103.516-84.7168Z"/>
   <path class="hierarchical-1:primary SFSymbolsPreview212121" d="M100.684-27.2461Q100.684-28.0273 101.27-28.5889Q101.855-29.1504 102.686-29.1504L118.555-29.1504L118.555-45.0195Q118.555-45.8496 119.116-46.4111Q119.678-46.9727 120.508-46.9727Q121.289-46.9727 121.851-46.4111Q122.412-45.8496 122.412-45.0195L122.412-29.1504L138.232-29.1504Q139.062-29.1504 139.624-28.5889Q140.186-28.0273 140.186-27.2461Q140.186-26.416 139.624-25.8545Q139.062-25.293 138.232-25.293L122.412-25.293L122.412-9.47266Q122.412-8.64258 121.851-8.05664Q121.289-7.4707 120.508-7.51953Q119.678-7.4707 119.116-8.05664Q118.555-8.64258 118.555-9.47266L118.555-25.293L102.686-25.293Q101.855-25.293 101.27-25.8545Q100.684-26.416 100.684-27.2461ZM37.7441-27.2461Q37.7441-28.0273 38.3057-28.5889Q38.8672-29.1504 39.6973-29.1504L75.2441-29.1504Q76.0742-29.1504 76.6357-28.5889Q77.1973-28.0273 77.1973-27.2461Q77.1973-26.416 76.6357-25.8545Q76.0742-25.293 75.2441-25.293L39.6973-25.293Q38.8672-25.293 38.3057-25.8545Q37.7441-26.416 37.7441-27.2461Z"/>
  </g>
  <g id="Ultralight-L" transform="matrix(1 0 0 1 471.015 1556)">
   <path class="hierarchical-0:tertiary SFSymbolsPreview8E8E8E" d="M31.9824 19.6289L145.41 19.6289Q153.223 19.6289 157.275 15.5029Q161.328 11.377 161.328 3.66211L161.328-58.1543Q161.328-65.8203 157.275-69.9463Q153.223-74.0723 145.41-74.0723L31.9824-74.0723Q24.1699-74.0723 20.1172-70.0195Q16.0645-65.9668 16.0645-58.1543L16.0645 3.66211Q16.0645 11.4746 20.1172 15.5518Q24.1699 19.6289 31.9824 19.6289ZM40.0391-72.8516L73.8281-72.8516L73.8281-84.5215Q73.8281-87.207 72.3389-88.6963Q70.8496-90.1855 67.9199-90.1855L45.8984-90.1855Q42.9199-90.1855 41.4795-88.6963Q40.0391-87.207 40.0391-84.5215ZM103.613-72.8516L137.402-72.8516L137.402-84.5215Q137.402-87.207 135.938-88.6963Q134.473-90.1855 131.494-90.1855L109.473-90.1855Q106.543-90.1855 105.078-88.6963Q103.613-87.207 103.613-84.5215Z"/>
   <path class="hierarchical-1:primary SFSymbolsPreview212121" d="M101.074-27.2461Q101.074-27.7832 101.465-28.1494Q101.855-28.5156 102.393-28.5156L119.092-28.5156L119.092-45.2637Q119.092-45.8008 119.507-46.1914Q119.922-46.582 120.41-46.582Q120.947-46.582 121.338-46.1914Q121.729-45.8008 121.729-45.2637L121.729-28.5156L138.379-28.5156Q138.916-28.5156 139.282-28.1494Q139.648-27.7832 139.648-27.2461Q139.648-26.709 139.282-26.3184Q138.916-25.9277 138.379-25.9277L121.729-25.9277L121.729-9.27734Q121.729-8.74023 121.338-8.3252Q120.947-7.91016 120.41-7.95898Q119.922-7.91016 119.507-8.30078Q119.092-8.69141 119.092-9.27734L119.092-25.9277L102.393-25.9277Q101.855-25.9277 101.465-26.3184Q101.074-26.709 101.074-27.2461ZM37.6953-27.2461Q37.6953-27.7832 38.0615-28.1494Q38.4277-28.5156 38.9648-28.5156L74.9512-28.5156Q75.4883-28.5156 75.8545-28.1494Q76.2207-27.7832 76.2207-27.2461Q76.2207-26.709 75.8545-26.3184Q75.4883-25.9277 74.9512-25.9277L38.9648-25.9277Q38.4277-25.9277 38.0615-26.3184Q37.6953-26.709 37.6953-27.2461Z"/>
  </g>
  <g id="Black-M" transform="matrix(1 0 0 1 2861.96 1126)">
   <path class="hierarchical-0:tertiary SFSymbolsPreview8E8E8E" d="M31.5918 13.1348L111.279 13.1348Q120.312 13.1348 125.366 8.10547Q130.42 3.07617 130.42-6.00586L130.42-50.3418Q130.42-59.4238 125.366-64.4531Q120.312-69.4824 111.279-69.4824L31.5918-69.4824Q22.5586-69.4824 17.5049-64.4531Q12.4512-59.4238 12.4512-50.3418L12.4512-6.00586Q12.4512 3.07617 17.5049 8.10547Q22.5586 13.1348 31.5918 13.1348ZM35.5469-66.8457L65.1367-66.8457L65.1367-73.877Q65.1367-78.5156 62.5977-81.1035Q60.0586-83.6914 55.5176-83.6914L45.2148-83.6914Q40.625-83.6914 38.0859-81.1035Q35.5469-78.5156 35.5469-73.877ZM77.6855-66.8457L107.324-66.8457L107.324-73.877Q107.324-78.5156 104.761-81.1035Q102.197-83.6914 97.6562-83.6914L87.3535-83.6914Q82.7637-83.6914 80.2246-81.1035Q77.6855-78.5156 77.6855-73.877Z"/>
   <path class="hierarchical-1:primary SFSymbolsPreview212121" d="M77.9785-28.1738Q77.9785-30.3711 79.541-31.9092Q81.1035-33.4473 83.3496-33.4473L89.4043-33.4473L89.4043-39.5996Q89.4043-41.748 90.9668-43.3105Q92.5293-44.873 94.6777-44.873Q96.875-44.873 98.4619-43.3105Q100.049-41.748 100.049-39.5996L100.049-33.4473L106.055-33.4473Q108.252-33.4473 109.79-31.9092Q111.328-30.3711 111.328-28.1738Q111.328-25.9766 109.79-24.4141Q108.252-22.8516 106.055-22.8516L100.049-22.8516L100.049-16.7969Q100.049-14.6484 98.5107-13.0859Q96.9727-11.5234 94.7266-11.5234Q92.5293-11.5234 90.9668-13.0859Q89.4043-14.6484 89.4043-16.7969L89.4043-22.8516L83.3496-22.8516Q81.1035-22.8516 79.541-24.4141Q77.9785-25.9766 77.9785-28.1738ZM31.543-28.1738Q31.543-30.3711 33.0811-31.9092Q34.6191-33.4473 36.8164-33.4473L59.5215-33.4473Q61.7188-33.4473 63.2812-31.9092Q64.8438-30.3711 64.8438-28.1738Q64.8438-25.9766 63.2812-24.4141Q61.7188-22.8516 59.5215-22.8516L36.8164-22.8516Q34.6191-22.8516 33.0811-24.4141Q31.543-25.9766 31.543-28.1738Z"/>
  </g>
  <g id="Heavy-M" transform="matrix(1 0 0 1 2565.6 1126)">
   <path class="hierarchical-0:tertiary SFSymbolsPreview8E8E8E" d="M30.7129 12.3047L111.523 12.3047Q120.215 12.3047 124.976 7.56836Q129.736 2.83203 129.736-5.85938L129.736-50.8789Q129.736-59.6191 124.976-64.3555Q120.215-69.0918 111.523-69.0918L30.7129-69.0918Q21.9727-69.0918 17.2119-64.3555Q12.4512-59.6191 12.4512-50.8789L12.4512-5.85938Q12.4512 2.83203 17.2119 7.56836Q21.9727 12.3047 30.7129 12.3047ZM35.1562-66.2109L63.9648-66.2109L63.9648-73.9746Q63.9648-78.1738 61.6455-80.5176Q59.3262-82.8613 55.2246-82.8613L43.9453-82.8613Q39.7949-82.8613 37.4756-80.5176Q35.1562-78.1738 35.1562-73.9746ZM78.1738-66.2109L107.031-66.2109L107.031-73.9746Q107.031-78.1738 104.712-80.5176Q102.393-82.8613 98.2422-82.8613L86.9629-82.8613Q82.8125-82.8613 80.4932-80.5176Q78.1738-78.1738 78.1738-73.9746Z"/>
   <path class="hierarchical-1:primary SFSymbolsPreview212121" d="M77.7344-28.3691Q77.7344-30.4199 79.1748-31.8604Q80.6152-33.3008 82.7148-33.3008L89.502-33.3008L89.502-40.1855Q89.502-42.1875 90.9668-43.6523Q92.4316-45.1172 94.4336-45.1172Q96.4844-45.1172 97.9492-43.6523Q99.4141-42.1875 99.4141-40.1855L99.4141-33.3008L106.201-33.3008Q108.252-33.3008 109.692-31.8604Q111.133-30.4199 111.133-28.3691Q111.133-26.3184 109.692-24.8779Q108.252-23.4375 106.201-23.4375L99.4141-23.4375L99.4141-16.6016Q99.4141-14.5996 97.9736-13.1348Q96.5332-11.6699 94.4824-11.7188Q92.4316-11.6699 90.9668-13.1348Q89.502-14.5996 89.502-16.6016L89.502-23.4375L82.7148-23.4375Q80.6152-23.4375 79.1748-24.8779Q77.7344-26.3184 77.7344-28.3691ZM31.0547-28.3691Q31.0547-30.4199 32.4951-31.8604Q33.9355-33.3008 35.9863-33.3008L59.4727-33.3008Q61.5234-33.3008 62.9883-31.8604Q64.4531-30.4199 64.4531-28.3691Q64.4531-26.3184 62.9883-24.8779Q61.5234-23.4375 59.4727-23.4375L35.9863-23.4375Q33.9355-23.4375 32.4951-24.8779Q31.0547-26.3184 31.0547-28.3691Z"/>
  </g>
  <g id="Bold-M" transform="matrix(1 0 0 1 2269.25 1126)">
   <path class="hierarchical-0:tertiary SFSymbolsPreview8E8E8E" d="M29.6875 11.4258L111.768 11.4258Q120.166 11.4258 124.585 7.00684Q129.004 2.58789 129.004-5.71289L129.004-51.5137Q129.004-59.8145 124.585-64.209Q120.166-68.6035 111.768-68.6035L29.6875-68.6035Q21.3379-68.6035 16.8945-64.209Q12.4512-59.8145 12.4512-51.5137L12.4512-5.71289Q12.4512 2.58789 16.8945 7.00684Q21.3379 11.4258 29.6875 11.4258ZM34.7656-65.4785L62.6465-65.4785L62.6465-74.0723Q62.6465-77.7832 60.5957-79.8828Q58.5449-81.9824 54.8828-81.9824L42.5293-81.9824Q38.8672-81.9824 36.8164-79.8828Q34.7656-77.7832 34.7656-74.0723ZM78.7598-65.4785L106.689-65.4785L106.689-74.0723Q106.689-77.7832 104.639-79.8828Q102.588-81.9824 98.877-81.9824L86.5234-81.9824Q82.8613-81.9824 80.8105-79.8828Q78.7598-77.7832 78.7598-74.0723Z"/>
   <path class="hierarchical-1:primary SFSymbolsPreview212121" d="M77.4414-28.6133Q77.4414-30.5176 78.7598-31.8115Q80.0781-33.1055 81.9824-33.1055L89.6484-33.1055L89.6484-40.8691Q89.6484-42.7246 90.9668-44.043Q92.2852-45.3613 94.1406-45.3613Q96.0449-45.3613 97.3633-44.043Q98.6816-42.7246 98.6816-40.8691L98.6816-33.1055L106.348-33.1055Q108.252-33.1055 109.57-31.8115Q110.889-30.5176 110.889-28.6133Q110.889-26.709 109.57-25.3906Q108.252-24.0723 106.348-24.0723L98.6816-24.0723L98.6816-16.4062Q98.6816-14.5508 97.3877-13.208Q96.0938-11.8652 94.1895-11.9141Q92.2852-11.8652 90.9668-13.208Q89.6484-14.5508 89.6484-16.4062L89.6484-24.0723L81.9824-24.0723Q80.0781-24.0723 78.7598-25.3906Q77.4414-26.709 77.4414-28.6133ZM30.5664-28.6133Q30.5664-30.5176 31.8848-31.8115Q33.2031-33.1055 35.0586-33.1055L59.4727-33.1055Q61.3281-33.1055 62.6465-31.8115Q63.9648-30.5176 63.9648-28.6133Q63.9648-26.709 62.6465-25.3906Q61.3281-24.0723 59.4727-24.0723L35.0586-24.0723Q33.2031-24.0723 31.8848-25.3906Q30.5664-26.709 30.5664-28.6133Z"/>
  </g>
  <g id="Semibold-M" transform="matrix(1 0 0 1 1972.81 1126)">
   <path class="hierarchical-0:tertiary SFSymbolsPreview8E8E8E" d="M29.0039 10.791L111.963 10.791Q120.068 10.791 124.268 6.5918Q128.467 2.39258 128.467-5.61523L128.467-51.9043Q128.467-59.9121 124.268-64.0869Q120.068-68.2617 111.963-68.2617L29.0039-68.2617Q20.8984-68.2617 16.6748-64.0869Q12.4512-59.9121 12.4512-51.9043L12.4512-5.61523Q12.4512 2.39258 16.6748 6.5918Q20.8984 10.791 29.0039 10.791ZM34.4238-64.9414L61.7188-64.9414L61.7188-74.1211Q61.7188-77.5391 59.8633-79.4434Q58.0078-81.3477 54.6387-81.3477L41.5527-81.3477Q38.1836-81.3477 36.3037-79.4434Q34.4238-77.5391 34.4238-74.1211ZM79.1504-64.9414L106.445-64.9414L106.445-74.1211Q106.445-77.5391 104.565-79.4434Q102.686-81.3477 99.3164-81.3477L86.2305-81.3477Q82.8613-81.3477 81.0059-79.4434Q79.1504-77.5391 79.1504-74.1211Z"/>
   <path class="hierarchical-1:primary SFSymbolsPreview212121" d="M77.1973-28.7598Q77.1973-30.5176 78.4424-31.7383Q79.6875-32.959 81.4453-32.959L89.7461-32.959L89.7461-41.3086Q89.7461-43.0664 90.9668-44.3115Q92.1875-45.5566 93.9453-45.5566Q95.7031-45.5566 96.9482-44.3115Q98.1934-43.0664 98.1934-41.3086L98.1934-32.959L106.445-32.959Q108.203-32.959 109.448-31.7383Q110.693-30.5176 110.693-28.7598Q110.693-26.9531 109.448-25.7324Q108.203-24.5117 106.445-24.5117L98.1934-24.5117L98.1934-16.2109Q98.1934-14.502 96.9727-13.2568Q95.752-12.0117 93.9453-12.0117Q92.1875-12.0117 90.9668-13.2568Q89.7461-14.502 89.7461-16.2109L89.7461-24.5117L81.4453-24.5117Q79.6875-24.5117 78.4424-25.7324Q77.1973-26.9531 77.1973-28.7598ZM30.1758-28.7598Q30.1758-30.5176 31.4209-31.7383Q32.666-32.959 34.4238-32.959L59.4238-32.959Q61.1816-32.959 62.4023-31.7383Q63.623-30.5176 63.623-28.7598Q63.623-26.9531 62.4023-25.7324Q61.1816-24.5117 59.4238-24.5117L34.4238-24.5117Q32.666-24.5117 31.4209-25.7324Q30.1758-26.9531 30.1758-28.7598Z"/>
  </g>
  <g id="Medium-M" transform="matrix(1 0 0 1 1676.29 1126)">
   <path class="hierarchical-0:tertiary SFSymbolsPreview8E8E8E" d="M28.4668 10.3027L112.061 10.3027Q120.02 10.3027 124.048 6.29883Q128.076 2.29492 128.076-5.51758L128.076-52.2461Q128.076-60.0098 124.048-64.0137Q120.02-68.0176 112.061-68.0176L28.4668-68.0176Q20.5566-68.0176 16.5039-64.0137Q12.4512-60.0098 12.4512-52.2461L12.4512-5.51758Q12.4512 2.29492 16.5039 6.29883Q20.5566 10.3027 28.4668 10.3027ZM34.2285-64.5508L61.0352-64.5508L61.0352-74.2188Q61.0352-77.2949 59.3018-79.0771Q57.5684-80.8594 54.4922-80.8594L40.8203-80.8594Q37.6953-80.8594 35.9619-79.0771Q34.2285-77.2949 34.2285-74.2188ZM79.4434-64.5508L106.25-64.5508L106.25-74.2188Q106.25-77.2949 104.517-79.0771Q102.783-80.8594 99.6582-80.8594L85.9863-80.8594Q82.8613-80.8594 81.1523-79.0771Q79.4434-77.2949 79.4434-74.2188Z"/>
   <path class="hierarchical-1:primary SFSymbolsPreview212121" d="M77.0508-28.8574Q77.0508-30.5664 78.2227-31.7383Q79.3945-32.9102 81.0547-32.9102L89.7949-32.9102L89.7949-41.6504Q89.7949-43.3105 90.9668-44.4824Q92.1387-45.6543 93.7988-45.6543Q95.459-45.6543 96.6309-44.4824Q97.8027-43.3105 97.8027-41.6504L97.8027-32.9102L106.543-32.9102Q108.203-32.9102 109.375-31.7383Q110.547-30.5664 110.547-28.8574Q110.547-27.1973 109.375-26.0254Q108.203-24.8535 106.543-24.8535L97.8027-24.8535L97.8027-16.1133Q97.8027-14.502 96.6553-13.2812Q95.5078-12.0605 93.7988-12.1094Q92.1387-12.0605 90.9668-13.2568Q89.7949-14.4531 89.7949-16.1133L89.7949-24.8535L81.0547-24.8535Q79.3945-24.8535 78.2227-26.0254Q77.0508-27.1973 77.0508-28.8574ZM29.8828-28.8574Q29.8828-30.5664 31.0791-31.7383Q32.2754-32.9102 33.9355-32.9102L59.4238-32.9102Q61.084-32.9102 62.2314-31.7383Q63.3789-30.5664 63.3789-28.8574Q63.3789-27.1973 62.2314-26.0254Q61.084-24.8535 59.4238-24.8535L33.9355-24.8535Q32.2754-24.8535 31.0791-26.0254Q29.8828-27.1973 29.8828-28.8574Z"/>
  </g>
  <g id="Regular-M" transform="matrix(1 0 0 1 1379.82 1126)">
   <path class="hierarchical-0:tertiary SFSymbolsPreview8E8E8E" d="M27.7832 9.66797L112.256 9.66797Q119.971 9.66797 123.779 5.88379Q127.588 2.09961 127.588-5.41992L127.588-52.6367Q127.588-60.1562 123.779-63.9404Q119.971-67.7246 112.256-67.7246L27.7832-67.7246Q20.1172-67.7246 16.2842-63.9404Q12.4512-60.1562 12.4512-52.6367L12.4512-5.41992Q12.4512 2.09961 16.2842 5.88379Q20.1172 9.66797 27.7832 9.66797ZM33.9355-64.0625L60.1562-64.0625L60.1562-74.2676Q60.1562-77.0508 58.5938-78.6377Q57.0312-80.2246 54.248-80.2246L39.8438-80.2246Q37.0605-80.2246 35.498-78.6377Q33.9355-77.0508 33.9355-74.2676ZM79.834-64.0625L106.006-64.0625L106.006-74.2676Q106.006-77.0508 104.468-78.6377Q102.93-80.2246 100.098-80.2246L85.6934-80.2246Q82.9102-80.2246 81.3721-78.6377Q79.834-77.0508 79.834-74.2676Z"/>
   <path class="hierarchical-1:primary SFSymbolsPreview212121" d="M76.8555-29.0039Q76.8555-30.6152 77.9297-31.6895Q79.0039-32.7637 80.5664-32.7637L89.8926-32.7637L89.8926-42.0898Q89.8926-43.6523 90.9668-44.751Q92.041-45.8496 93.6035-45.8496Q95.166-45.8496 96.2402-44.751Q97.3145-43.6523 97.3145-42.0898L97.3145-32.7637L106.641-32.7637Q108.203-32.7637 109.302-31.6895Q110.4-30.6152 110.4-29.0039Q110.4-27.4414 109.302-26.3672Q108.203-25.293 106.641-25.293L97.3145-25.293L97.3145-15.9668Q97.3145-14.4531 96.2402-13.3301Q95.166-12.207 93.6035-12.2559Q92.041-12.207 90.9668-13.3057Q89.8926-14.4043 89.8926-15.9668L89.8926-25.293L80.5664-25.293Q79.0039-25.293 77.9297-26.3672Q76.8555-27.4414 76.8555-29.0039ZM29.541-29.0039Q29.541-30.6152 30.6396-31.6895Q31.7383-32.7637 33.3008-32.7637L59.375-32.7637Q60.9375-32.7637 62.0117-31.6895Q63.0859-30.6152 63.0859-29.0039Q63.0859-27.4414 62.0117-26.3672Q60.9375-25.293 59.375-25.293L33.3008-25.293Q31.7383-25.293 30.6396-26.3672Q29.541-27.4414 29.541-29.0039Z"/>
  </g>
  <g id="Light-M" transform="matrix(1 0 0 1 1083.5 1126)">
   <path class="hierarchical-0:tertiary SFSymbolsPreview8E8E8E" d="M26.8555 8.93555L112.402 8.93555Q119.58 8.93555 123.193 5.32227Q126.807 1.70898 126.807-5.32227L126.807-52.7344Q126.807-59.7656 123.193-63.3789Q119.58-66.9922 112.402-66.9922L26.8555-66.9922Q19.6777-66.9922 16.0645-63.4033Q12.4512-59.8145 12.4512-52.7344L12.4512-5.32227Q12.4512 1.75781 16.0645 5.34668Q19.6777 8.93555 26.8555 8.93555ZM33.0078-64.1602L59.2285-64.1602L59.2285-74.0234Q59.2285-76.5625 57.8125-78.0273Q56.3965-79.4922 53.7598-79.4922L38.5254-79.4922Q35.8887-79.4922 34.4482-78.0273Q33.0078-76.5625 33.0078-74.0234ZM79.9805-64.1602L106.152-64.1602L106.152-74.0234Q106.152-76.5625 104.736-78.0273Q103.32-79.4922 100.635-79.4922L85.4492-79.4922Q82.8125-79.4922 81.3965-78.0273Q79.9805-76.5625 79.9805-74.0234Z"/>
   <path class="hierarchical-1:primary SFSymbolsPreview212121" d="M77.2949-29.0039Q77.2949-30.2734 78.125-31.1035Q78.9551-31.9336 80.1758-31.9336L90.625-31.9336L90.625-42.3828Q90.625-43.5547 91.4795-44.4092Q92.334-45.2637 93.5059-45.2637Q94.7266-45.2637 95.5566-44.4092Q96.3867-43.5547 96.3867-42.3828L96.3867-31.9336L106.836-31.9336Q108.057-31.9336 108.887-31.1035Q109.717-30.2734 109.717-29.0039Q109.717-27.7832 108.887-26.9531Q108.057-26.123 106.836-26.123L96.3867-26.123L96.3867-15.7227Q96.3867-14.5508 95.5566-13.6719Q94.7266-12.793 93.5059-12.8418Q92.334-12.793 91.4795-13.6475Q90.625-14.502 90.625-15.7227L90.625-26.123L80.1758-26.123Q78.9551-26.123 78.125-26.9531Q77.2949-27.7832 77.2949-29.0039ZM29.4434-29.0039Q29.4434-30.2734 30.2979-31.1035Q31.1523-31.9336 32.3242-31.9336L58.9844-31.9336Q60.2051-31.9336 61.0352-31.1035Q61.8652-30.2734 61.8652-29.0039Q61.8652-27.7832 61.0352-26.9531Q60.2051-26.123 58.9844-26.123L32.3242-26.123Q31.1523-26.123 30.2979-26.9531Q29.4434-27.7832 29.4434-29.0039Z"/>
  </g>
  <g id="Thin-M" transform="matrix(1 0 0 1 787.306 1126)">
   <path class="hierarchical-0:tertiary SFSymbolsPreview8E8E8E" d="M25.5859 7.95898L112.549 7.95898Q119.092 7.95898 122.437 4.58984Q125.781 1.2207 125.781-5.17578L125.781-52.8809Q125.781-59.2773 122.437-62.6465Q119.092-66.0156 112.549-66.0156L25.5859-66.0156Q19.1406-66.0156 15.7959-62.6709Q12.4512-59.3262 12.4512-52.8809L12.4512-5.17578Q12.4512 1.26953 15.7959 4.61426Q19.1406 7.95898 25.5859 7.95898ZM31.8359-64.3066L58.0078-64.3066L58.0078-73.6816Q58.0078-75.9277 56.7627-77.1973Q55.5176-78.4668 53.0762-78.4668L36.7676-78.4668Q34.375-78.4668 33.1055-77.1973Q31.8359-75.9277 31.8359-73.6816ZM80.1758-64.3066L106.348-64.3066L106.348-73.6816Q106.348-75.9277 105.103-77.1973Q103.857-78.4668 101.416-78.4668L85.1074-78.4668Q82.666-78.4668 81.4209-77.1973Q80.1758-75.9277 80.1758-73.6816Z"/>
   <path class="hierarchical-1:primary SFSymbolsPreview212121" d="M77.9297-29.0039Q77.9297-29.7852 78.4424-30.2979Q78.9551-30.8105 79.6875-30.8105L91.6504-30.8105L91.6504-42.7734Q91.6504-43.457 92.1631-43.9941Q92.6758-44.5312 93.4082-44.5312Q94.1406-44.5312 94.6533-43.9941Q95.166-43.457 95.166-42.7734L95.166-30.8105L107.08-30.8105Q107.812-30.8105 108.325-30.2979Q108.838-29.7852 108.838-29.0039Q108.838-28.2715 108.325-27.7588Q107.812-27.2461 107.08-27.2461L95.166-27.2461L95.166-15.3809Q95.166-14.6484 94.6533-14.0869Q94.1406-13.5254 93.4082-13.5742Q92.6758-13.5254 92.1631-14.0625Q91.6504-14.5996 91.6504-15.3809L91.6504-27.2461L79.6875-27.2461Q78.9551-27.2461 78.4424-27.7588Q77.9297-28.2715 77.9297-29.0039ZM29.2969-29.0039Q29.2969-29.7852 29.8096-30.2979Q30.3223-30.8105 31.0547-30.8105L58.4473-30.8105Q59.1797-30.8105 59.6924-30.2979Q60.2051-29.7852 60.2051-29.0039Q60.2051-28.2715 59.6924-27.7588Q59.1797-27.2461 58.4473-27.2461L31.0547-27.2461Q30.3223-27.2461 29.8096-27.7588Q29.2969-28.2715 29.2969-29.0039Z"/>
  </g>
  <g id="Ultralight-M" transform="matrix(1 0 0 1 490.863 1126)">
   <path class="hierarchical-0:tertiary SFSymbolsPreview8E8E8E" d="M24.9512 7.42188L112.646 7.42188Q118.848 7.42188 122.046 4.19922Q125.244 0.976562 125.244-5.07812L125.244-52.9785Q125.244-59.0332 122.046-62.2559Q118.848-65.4785 112.646-65.4785L24.9512-65.4785Q18.8477-65.4785 15.6494-62.3047Q12.4512-59.1309 12.4512-52.9785L12.4512-5.07812Q12.4512 1.07422 15.6494 4.24805Q18.8477 7.42188 24.9512 7.42188ZM31.2012-64.4043L57.373-64.4043L57.373-73.4863Q57.373-75.5859 56.2256-76.7822Q55.0781-77.9785 52.7344-77.9785L35.8887-77.9785Q33.5449-77.9785 32.373-76.7822Q31.2012-75.5859 31.2012-73.4863ZM80.2734-64.4043L106.445-64.4043L106.445-73.4863Q106.445-75.5859 105.273-76.7822Q104.102-77.9785 101.758-77.9785L84.9121-77.9785Q82.5684-77.9785 81.4209-76.7822Q80.2734-75.5859 80.2734-73.4863Z"/>
   <path class="hierarchical-1:primary SFSymbolsPreview212121" d="M78.2227-29.0039Q78.2227-29.541 78.5645-29.8828Q78.9062-30.2246 79.4434-30.2246L92.1387-30.2246L92.1387-42.9688Q92.1387-43.4082 92.5049-43.7744Q92.8711-44.1406 93.3105-44.1406Q93.8477-44.1406 94.1895-43.7744Q94.5312-43.4082 94.5312-42.9688L94.5312-30.2246L107.178-30.2246Q107.715-30.2246 108.057-29.8828Q108.398-29.541 108.398-29.0039Q108.398-28.5156 108.057-28.1738Q107.715-27.832 107.178-27.832L94.5312-27.832L94.5312-15.1855Q94.5312-14.6973 94.1895-14.3066Q93.8477-13.916 93.3105-13.9648Q92.8711-13.916 92.5049-14.2822Q92.1387-14.6484 92.1387-15.1855L92.1387-27.832L79.4434-27.832Q78.9062-27.832 78.5645-28.1738Q78.2227-28.5156 78.2227-29.0039ZM29.1992-29.0039Q29.1992-29.541 29.5654-29.8828Q29.9316-30.2246 30.3711-30.2246L58.2031-30.2246Q58.6914-30.2246 59.0332-29.8828Q59.375-29.541 59.375-29.0039Q59.375-28.5156 59.0332-28.1738Q58.6914-27.832 58.2031-27.832L30.3711-27.832Q29.9316-27.832 29.5654-28.1738Q29.1992-28.5156 29.1992-29.0039Z"/>
  </g>
  <g id="Black-S" transform="matrix(1 0 0 1 2877.35 696)">
   <path class="hierarchical-0:tertiary SFSymbolsPreview8E8E8E" d="M25 2.88086L87.1094 2.88086Q94.2871 2.88086 98.3154-1.14746Q102.344-5.17578 102.344-12.3535L102.344-46.9238Q102.344-54.1016 98.3154-58.1299Q94.2871-62.1582 87.1094-62.1582L25-62.1582Q17.8223-62.1582 13.7939-58.1299Q9.76562-54.1016 9.76562-46.9238L9.76562-12.3535Q9.76562-5.17578 13.7939-1.14746Q17.8223 2.88086 25 2.88086ZM27.9297-60.2051L51.3672-60.2051L51.3672-65.4785Q51.3672-69.2383 49.3164-71.3135Q47.2656-73.3887 43.5547-73.3887L35.7422-73.3887Q32.0312-73.3887 29.9805-71.3135Q27.9297-69.2383 27.9297-65.4785ZM60.7422-60.2051L84.1797-60.2051L84.1797-65.4785Q84.1797-69.2383 82.1289-71.3135Q80.0781-73.3887 76.3672-73.3887L68.5547-73.3887Q64.8438-73.3887 62.793-71.3135Q60.7422-69.2383 60.7422-65.4785Z"/>
   <path class="hierarchical-1:primary SFSymbolsPreview212121" d="M61.2305-29.6387Q61.2305-31.3965 62.4756-32.6172Q63.7207-33.8379 65.4785-33.8379L70.0684-33.8379L70.0684-38.4766Q70.0684-40.1855 71.3135-41.4307Q72.5586-42.6758 74.2676-42.6758Q76.0254-42.6758 77.2705-41.4307Q78.5156-40.1855 78.5156-38.4766L78.5156-33.8379L83.0566-33.8379Q84.8145-33.8379 86.0352-32.6172Q87.2559-31.3965 87.2559-29.6387Q87.2559-27.8809 86.0352-26.6357Q84.8145-25.3906 83.0566-25.3906L78.5156-25.3906L78.5156-20.8496Q78.5156-19.1406 77.2949-17.8955Q76.0742-16.6504 74.3164-16.6504Q72.5586-16.6504 71.3135-17.8955Q70.0684-19.1406 70.0684-20.8496L70.0684-25.3906L65.4785-25.3906Q63.7207-25.3906 62.4756-26.6357Q61.2305-27.8809 61.2305-29.6387ZM24.8535-29.6387Q24.8535-31.3965 26.0742-32.6172Q27.2949-33.8379 29.0527-33.8379L46.6309-33.8379Q48.3887-33.8379 49.6338-32.6172Q50.8789-31.3965 50.8789-29.6387Q50.8789-27.8809 49.6338-26.6357Q48.3887-25.3906 46.6309-25.3906L29.0527-25.3906Q27.2949-25.3906 26.0742-26.6357Q24.8535-27.8809 24.8535-29.6387Z"/>
  </g>
  <g id="Heavy-S" transform="matrix(1 0 0 1 2580.88 696)">
   <path class="hierarchical-0:tertiary SFSymbolsPreview8E8E8E" d="M24.3652 2.29492L87.3047 2.29492Q94.2871 2.29492 98.0713-1.51367Q101.855-5.32227 101.855-12.2559L101.855-47.3633Q101.855-54.2969 98.0713-58.1055Q94.2871-61.9141 87.3047-61.9141L24.3652-61.9141Q17.3828-61.9141 13.5742-58.1055Q9.76562-54.2969 9.76562-47.3633L9.76562-12.2559Q9.76562-5.32227 13.5742-1.51367Q17.3828 2.29492 24.3652 2.29492ZM27.7344-59.6191L50.4883-59.6191L50.4883-65.5762Q50.4883-68.9941 48.6084-70.8984Q46.7285-72.8027 43.3594-72.8027L34.8145-72.8027Q31.4453-72.8027 29.5898-70.8984Q27.7344-68.9941 27.7344-65.5762ZM61.1328-59.6191L83.8867-59.6191L83.8867-65.5762Q83.8867-68.9941 82.0312-70.8984Q80.1758-72.8027 76.8066-72.8027L68.2617-72.8027Q64.8926-72.8027 63.0127-70.8984Q61.1328-68.9941 61.1328-65.5762Z"/>
   <path class="hierarchical-1:primary SFSymbolsPreview212121" d="M60.9375-29.834Q60.9375-31.4941 62.1094-32.6416Q63.2812-33.7891 64.9902-33.7891L70.0684-33.7891L70.0684-38.9648Q70.0684-40.5762 71.2402-41.748Q72.4121-42.9199 74.0723-42.9199Q75.7324-42.9199 76.9043-41.748Q78.0762-40.5762 78.0762-38.9648L78.0762-33.7891L83.1543-33.7891Q84.8145-33.7891 85.9863-32.6416Q87.1582-31.4941 87.1582-29.834Q87.1582-28.125 85.9863-26.9531Q84.8145-25.7812 83.1543-25.7812L78.0762-25.7812L78.0762-20.7031Q78.0762-19.0918 76.9287-17.8955Q75.7812-16.6992 74.1211-16.6992Q72.4121-16.6992 71.2402-17.8955Q70.0684-19.0918 70.0684-20.7031L70.0684-25.7812L64.9902-25.7812Q63.2812-25.7812 62.1094-26.9531Q60.9375-28.125 60.9375-29.834ZM24.4629-29.834Q24.4629-31.4941 25.6348-32.6416Q26.8066-33.7891 28.4668-33.7891L46.6309-33.7891Q48.3398-33.7891 49.5117-32.6416Q50.6836-31.4941 50.6836-29.834Q50.6836-28.125 49.5117-26.9531Q48.3398-25.7812 46.6309-25.7812L28.4668-25.7812Q26.8066-25.7812 25.6348-26.9531Q24.4629-28.125 24.4629-29.834Z"/>
  </g>
  <g id="Bold-S" transform="matrix(1 0 0 1 2284.41 696)">
   <path class="hierarchical-0:tertiary SFSymbolsPreview8E8E8E" d="M23.6328 1.61133L87.5 1.61133Q94.2383 1.61133 97.8027-1.95312Q101.367-5.51758 101.367-12.1582L101.367-47.8516Q101.367-54.541 97.8027-58.0811Q94.2383-61.6211 87.5-61.6211L23.6328-61.6211Q16.9434-61.6211 13.3545-58.0811Q9.76562-54.541 9.76562-47.8516L9.76562-12.1582Q9.76562-5.51758 13.3545-1.95312Q16.9434 1.61133 23.6328 1.61133ZM27.4902-58.9844L49.4629-58.9844L49.4629-65.7227Q49.4629-68.75 47.8027-70.4346Q46.1426-72.1191 43.1641-72.1191L33.8379-72.1191Q30.8105-72.1191 29.1504-70.4346Q27.4902-68.75 27.4902-65.7227ZM61.6211-58.9844L83.5938-58.9844L83.5938-65.7227Q83.5938-68.75 81.9336-70.4346Q80.2734-72.1191 77.2949-72.1191L67.9199-72.1191Q64.9414-72.1191 63.2812-70.4346Q61.6211-68.75 61.6211-65.7227Z"/>
   <path class="hierarchical-1:primary SFSymbolsPreview212121" d="M60.5957-30.0293Q60.5957-31.5918 61.7188-32.6904Q62.8418-33.7891 64.4043-33.7891L70.0684-33.7891L70.0684-39.502Q70.0684-41.0156 71.1914-42.1387Q72.3145-43.2617 73.8281-43.2617Q75.4395-43.2617 76.5381-42.1387Q77.6367-41.0156 77.6367-39.502L77.6367-33.7891L83.3008-33.7891Q84.8633-33.7891 85.9619-32.6904Q87.0605-31.5918 87.0605-30.0293Q87.0605-28.418 85.9619-27.3193Q84.8633-26.2207 83.3008-26.2207L77.6367-26.2207L77.6367-20.5566Q77.6367-19.043 76.5381-17.9199Q75.4395-16.7969 73.877-16.7969Q72.3145-16.7969 71.1914-17.9199Q70.0684-19.043 70.0684-20.5566L70.0684-26.2207L64.4043-26.2207Q62.8418-26.2207 61.7188-27.3193Q60.5957-28.418 60.5957-30.0293ZM24.0723-30.0293Q24.0723-31.5918 25.1465-32.6904Q26.2207-33.7891 27.832-33.7891L46.6797-33.7891Q48.291-33.7891 49.3896-32.6904Q50.4883-31.5918 50.4883-30.0293Q50.4883-28.418 49.3896-27.3193Q48.291-26.2207 46.6797-26.2207L27.832-26.2207Q26.2207-26.2207 25.1465-27.3193Q24.0723-28.418 24.0723-30.0293Z"/>
  </g>
  <g id="Semibold-S" transform="matrix(1 0 0 1 1987.9 696)">
   <path class="hierarchical-0:tertiary SFSymbolsPreview8E8E8E" d="M23.0957 1.17188L87.6465 1.17188Q94.2383 1.17188 97.6074-2.22168Q100.977-5.61523 100.977-12.1094L100.977-48.1934Q100.977-54.6875 97.6074-58.0566Q94.2383-61.4258 87.6465-61.4258L23.0957-61.4258Q16.6016-61.4258 13.1836-58.0566Q9.76562-54.6875 9.76562-48.1934L9.76562-12.1094Q9.76562-5.61523 13.1836-2.22168Q16.6016 1.17188 23.0957 1.17188ZM27.3438-58.5449L48.7793-58.5449L48.7793-65.7715Q48.7793-68.5547 47.2656-70.1172Q45.752-71.6797 42.9688-71.6797L33.1055-71.6797Q30.3711-71.6797 28.8574-70.1172Q27.3438-68.5547 27.3438-65.7715ZM61.9141-58.5449L83.3496-58.5449L83.3496-65.7715Q83.3496-68.5547 81.8359-70.1172Q80.3223-71.6797 77.5879-71.6797L67.6758-71.6797Q64.9414-71.6797 63.4277-70.1172Q61.9141-68.5547 61.9141-65.7715Z"/>
   <path class="hierarchical-1:primary SFSymbolsPreview212121" d="M60.3516-30.127Q60.3516-31.6406 61.4258-32.6904Q62.5-33.7402 64.0137-33.7402L70.0684-33.7402L70.0684-39.8438Q70.0684-41.3086 71.1182-42.3828Q72.168-43.457 73.6816-43.457Q75.1953-43.457 76.2451-42.3828Q77.2949-41.3086 77.2949-39.8438L77.2949-33.7402L83.3496-33.7402Q84.8633-33.7402 85.9131-32.6904Q86.9629-31.6406 86.9629-30.127Q86.9629-28.6133 85.9131-27.5635Q84.8633-26.5137 83.3496-26.5137L77.2949-26.5137L77.2949-20.459Q77.2949-18.9941 76.2451-17.9199Q75.1953-16.8457 73.6816-16.8457Q72.168-16.8457 71.1182-17.9199Q70.0684-18.9941 70.0684-20.459L70.0684-26.5137L64.0137-26.5137Q62.5-26.5137 61.4258-27.5635Q60.3516-28.6133 60.3516-30.127ZM23.7305-30.127Q23.7305-31.6406 24.7803-32.6904Q25.8301-33.7402 27.3438-33.7402L46.6797-33.7402Q48.2422-33.7402 49.2676-32.6904Q50.293-31.6406 50.293-30.127Q50.293-28.6133 49.2676-27.5635Q48.2422-26.5137 46.6797-26.5137L27.3438-26.5137Q25.8301-26.5137 24.7803-27.5635Q23.7305-28.6133 23.7305-30.127Z"/>
  </g>
  <g id="Medium-S" transform="matrix(1 0 0 1 1691.33 696)">
   <path class="hierarchical-0:tertiary SFSymbolsPreview8E8E8E" d="M22.7051 0.78125L87.7441 0.78125Q94.1895 0.78125 97.4365-2.46582Q100.684-5.71289 100.684-12.0117L100.684-48.4375Q100.684-54.7852 97.4365-58.0322Q94.1895-61.2793 87.7441-61.2793L22.7051-61.2793Q16.3574-61.2793 13.0615-58.0322Q9.76562-54.7852 9.76562-48.4375L9.76562-12.0117Q9.76562-5.71289 13.0615-2.46582Q16.3574 0.78125 22.7051 0.78125ZM27.1973-58.2031L48.2422-58.2031L48.2422-65.8203Q48.2422-68.4082 46.8262-69.8486Q45.4102-71.2891 42.8711-71.2891L32.5684-71.2891Q30.0293-71.2891 28.6133-69.8486Q27.1973-68.4082 27.1973-65.8203ZM62.1582-58.2031L83.1543-58.2031L83.1543-65.8203Q83.1543-68.4082 81.7871-69.8486Q80.4199-71.2891 77.832-71.2891L67.5293-71.2891Q64.9414-71.2891 63.5498-69.8486Q62.1582-68.4082 62.1582-65.8203Z"/>
   <path class="hierarchical-1:primary SFSymbolsPreview212121" d="M60.2051-30.2246Q60.2051-31.7383 61.2305-32.7393Q62.2559-33.7402 63.7207-33.7402L70.0684-33.7402L70.0684-40.1367Q70.0684-41.5527 71.0938-42.5781Q72.1191-43.6035 73.5352-43.6035Q75-43.6035 76.0254-42.5781Q77.0508-41.5527 77.0508-40.1367L77.0508-33.7402L83.3984-33.7402Q84.8633-33.7402 85.8887-32.7393Q86.9141-31.7383 86.9141-30.2246Q86.9141-28.7598 85.8887-27.7588Q84.8633-26.7578 83.3984-26.7578L77.0508-26.7578L77.0508-20.3613Q77.0508-18.9453 76.0498-17.9199Q75.0488-16.8945 73.5352-16.8945Q72.1191-16.8945 71.0938-17.9199Q70.0684-18.9453 70.0684-20.3613L70.0684-26.7578L63.7207-26.7578Q62.2559-26.7578 61.2305-27.7588Q60.2051-28.7598 60.2051-30.2246ZM23.5352-30.2246Q23.5352-31.7383 24.5361-32.7393Q25.5371-33.7402 27.002-33.7402L46.7285-33.7402Q48.1934-33.7402 49.1943-32.7393Q50.1953-31.7383 50.1953-30.2246Q50.1953-28.7598 49.1943-27.7588Q48.1934-26.7578 46.7285-26.7578L27.002-26.7578Q25.5371-26.7578 24.5361-27.7588Q23.5352-28.7598 23.5352-30.2246Z"/>
  </g>
  <g id="Regular-S" transform="matrix(1 0 0 1 1394.79 696)">
   <path class="hierarchical-0:tertiary SFSymbolsPreview8E8E8E" d="M22.2168 0.341797L87.8906 0.341797Q94.1895 0.341797 97.2656-2.73438Q100.342-5.81055 100.342-11.9629L100.342-48.7793Q100.342-54.9316 97.2656-58.0078Q94.1895-61.084 87.8906-61.084L22.2168-61.084Q16.0156-61.084 12.8906-58.0078Q9.76562-54.9316 9.76562-48.7793L9.76562-11.9629Q9.76562-5.81055 12.8906-2.73438Q16.0156 0.341797 22.2168 0.341797ZM27.0508-57.7637L47.5586-57.7637L47.5586-65.918Q47.5586-68.2129 46.2891-69.5312Q45.0195-70.8496 42.7246-70.8496L31.8848-70.8496Q29.5898-70.8496 28.3203-69.5312Q27.0508-68.2129 27.0508-65.918ZM62.4512-57.7637L82.959-57.7637L82.959-65.918Q82.959-68.2129 81.7139-69.5312Q80.4688-70.8496 78.1738-70.8496L67.2852-70.8496Q64.9902-70.8496 63.7207-69.5312Q62.4512-68.2129 62.4512-65.918Z"/>
   <path class="hierarchical-1:primary SFSymbolsPreview212121" d="M59.9609-30.3711Q59.9609-31.7871 60.9375-32.7393Q61.9141-33.6914 63.3301-33.6914L70.0684-33.6914L70.0684-40.4785Q70.0684-41.8457 71.0449-42.8223Q72.0215-43.7988 73.3887-43.7988Q74.8047-43.7988 75.7568-42.8223Q76.709-41.8457 76.709-40.4785L76.709-33.6914L83.4961-33.6914Q84.8633-33.6914 85.8398-32.7393Q86.8164-31.7871 86.8164-30.3711Q86.8164-28.9551 85.8398-28.0029Q84.8633-27.0508 83.4961-27.0508L76.709-27.0508L76.709-20.2637Q76.709-18.8965 75.7568-17.9199Q74.8047-16.9434 73.3887-16.9434Q72.0215-16.9434 71.0449-17.9199Q70.0684-18.8965 70.0684-20.2637L70.0684-27.0508L63.3301-27.0508Q61.9141-27.0508 60.9375-28.0029Q59.9609-28.9551 59.9609-30.3711ZM23.2422-30.3711Q23.2422-31.7871 24.1943-32.7393Q25.1465-33.6914 26.5625-33.6914L46.7285-33.6914Q48.1445-33.6914 49.0967-32.7393Q50.0488-31.7871 50.0488-30.3711Q50.0488-28.9551 49.0967-28.0029Q48.1445-27.0508 46.7285-27.0508L26.5625-27.0508Q25.1465-27.0508 24.1943-28.0029Q23.2422-28.9551 23.2422-30.3711Z"/>
  </g>
  <g id="Light-S" transform="matrix(1 0 0 1 1098.42 696)">
   <path class="hierarchical-0:tertiary SFSymbolsPreview8E8E8E" d="M21.3867-0.341797L87.9883-0.341797Q93.8477-0.341797 96.7529-3.24707Q99.6582-6.15234 99.6582-11.8652L99.6582-48.877Q99.6582-54.5898 96.7529-57.4951Q93.8477-60.4004 87.9883-60.4004L21.3867-60.4004Q15.625-60.4004 12.6953-57.5195Q9.76562-54.6387 9.76562-48.877L9.76562-11.8652Q9.76562-6.10352 12.6953-3.22266Q15.625-0.341797 21.3867-0.341797ZM26.2695-57.8613L46.7773-57.8613L46.7773-65.7227Q46.7773-67.7734 45.6055-68.9697Q44.4336-70.166 42.2852-70.166L30.7129-70.166Q28.5645-70.166 27.417-68.9697Q26.2695-67.7734 26.2695-65.7227ZM62.5977-57.8613L83.1055-57.8613L83.1055-65.7227Q83.1055-67.7734 81.958-68.9697Q80.8105-70.166 78.6621-70.166L67.041-70.166Q64.8926-70.166 63.7451-68.9697Q62.5977-67.7734 62.5977-65.7227Z"/>
   <path class="hierarchical-1:primary SFSymbolsPreview212121" d="M60.4004-30.3711Q60.4004-31.4453 61.1572-32.2021Q61.9141-32.959 62.9883-32.959L70.752-32.959L70.752-40.7227Q70.752-41.7969 71.5088-42.5537Q72.2656-43.3105 73.291-43.3105Q74.4141-43.3105 75.1465-42.5537Q75.8789-41.7969 75.8789-40.7227L75.8789-32.959L83.6426-32.959Q84.7168-32.959 85.4736-32.2021Q86.2305-31.4453 86.2305-30.3711Q86.2305-29.2969 85.4736-28.54Q84.7168-27.7832 83.6426-27.7832L75.8789-27.7832L75.8789-20.0195Q75.8789-18.9941 75.1465-18.2129Q74.4141-17.4316 73.291-17.4805Q72.2656-17.4316 71.5088-18.1885Q70.752-18.9453 70.752-20.0195L70.752-27.7832L62.9883-27.7832Q61.9141-27.7832 61.1572-28.54Q60.4004-29.2969 60.4004-30.3711ZM23.1445-30.3711Q23.1445-31.4453 23.877-32.2021Q24.6094-32.959 25.7324-32.959L46.3867-32.959Q47.4609-32.959 48.1934-32.2021Q48.9258-31.4453 48.9258-30.3711Q48.9258-29.2969 48.1934-28.54Q47.4609-27.7832 46.3867-27.7832L25.7324-27.7832Q24.6094-27.7832 23.877-28.54Q23.1445-29.2969 23.1445-30.3711Z"/>
  </g>
  <g id="Thin-S" transform="matrix(1 0 0 1 802.174 696)">
   <path class="hierarchical-0:tertiary SFSymbolsPreview8E8E8E" d="M20.3125-1.2207L88.1836-1.2207Q93.4082-1.2207 96.0693-3.90625Q98.7305-6.5918 98.7305-11.7188L98.7305-49.0234Q98.7305-54.1504 96.0693-56.8359Q93.4082-59.5215 88.1836-59.5215L20.3125-59.5215Q15.0879-59.5215 12.4268-56.8848Q9.76562-54.248 9.76562-49.0234L9.76562-11.7188Q9.76562-6.49414 12.4268-3.85742Q15.0879-1.2207 20.3125-1.2207ZM25.1953-57.959L45.7031-57.959L45.7031-65.4297Q45.7031-67.2363 44.7021-68.2617Q43.7012-69.2871 41.6992-69.2871L29.1504-69.2871Q27.1973-69.2871 26.1963-68.2617Q25.1953-67.2363 25.1953-65.4297ZM62.7441-57.959L83.252-57.959L83.252-65.4297Q83.252-67.2363 82.2754-68.2617Q81.2988-69.2871 79.3457-69.2871L66.748-69.2871Q64.7949-69.2871 63.7695-68.2617Q62.7441-67.2363 62.7441-65.4297Z"/>
   <path class="hierarchical-1:primary SFSymbolsPreview212121" d="M60.9375-30.3711Q60.9375-31.0547 61.4014-31.5186Q61.8652-31.9824 62.5488-31.9824L71.6309-31.9824L71.6309-41.0645Q71.6309-41.6992 72.0947-42.1631Q72.5586-42.627 73.1934-42.627Q73.877-42.627 74.3408-42.1631Q74.8047-41.6992 74.8047-41.0645L74.8047-31.9824L83.8379-31.9824Q84.5215-31.9824 84.9854-31.5186Q85.4492-31.0547 85.4492-30.3711Q85.4492-29.6875 84.9854-29.2236Q84.5215-28.7598 83.8379-28.7598L74.8047-28.7598L74.8047-19.7266Q74.8047-19.0918 74.3408-18.6035Q73.877-18.1152 73.1934-18.1152Q72.5586-18.1152 72.0947-18.5791Q71.6309-19.043 71.6309-19.7266L71.6309-28.7598L62.5488-28.7598Q61.8652-28.7598 61.4014-29.2236Q60.9375-29.6875 60.9375-30.3711ZM22.998-30.3711Q22.998-31.0547 23.4619-31.5186Q23.9258-31.9824 24.6094-31.9824L45.8984-31.9824Q46.582-31.9824 47.0215-31.5186Q47.4609-31.0547 47.4609-30.3711Q47.4609-29.6875 47.0215-29.2236Q46.582-28.7598 45.8984-28.7598L24.6094-28.7598Q23.9258-28.7598 23.4619-29.2236Q22.998-29.6875 22.998-30.3711Z"/>
  </g>
  <g id="Ultralight-S" transform="matrix(1 0 0 1 505.707 696)">
   <path class="hierarchical-0:tertiary SFSymbolsPreview8E8E8E" d="M19.7754-1.66016L88.2324-1.66016Q93.2129-1.66016 95.7275-4.22363Q98.2422-6.78711 98.2422-11.6211L98.2422-49.1211Q98.2422-53.9551 95.7275-56.5186Q93.2129-59.082 88.2324-59.082L19.7754-59.082Q14.8438-59.082 12.3047-56.543Q9.76562-54.0039 9.76562-49.1211L9.76562-11.6211Q9.76562-6.73828 12.3047-4.19922Q14.8438-1.66016 19.7754-1.66016ZM24.6582-58.0566L45.166-58.0566L45.166-65.2832Q45.166-66.9434 44.2383-67.8955Q43.3105-68.8477 41.4062-68.8477L28.3203-68.8477Q26.5137-68.8477 25.5859-67.8955Q24.6582-66.9434 24.6582-65.2832ZM62.8418-58.0566L83.3496-58.0566L83.3496-65.2832Q83.3496-66.9434 82.4219-67.8955Q81.4941-68.8477 79.6875-68.8477L66.6016-68.8477Q64.6973-68.8477 63.7695-67.8955Q62.8418-66.9434 62.8418-65.2832Z"/>
   <path class="hierarchical-1:primary SFSymbolsPreview212121" d="M61.2305-30.3711Q61.2305-30.8105 61.5479-31.1279Q61.8652-31.4453 62.3535-31.4453L72.0703-31.4453L72.0703-41.2109Q72.0703-41.6504 72.3877-41.9678Q72.7051-42.2852 73.1445-42.2852Q73.6328-42.2852 73.9502-41.9678Q74.2676-41.6504 74.2676-41.2109L74.2676-31.4453L83.9355-31.4453Q84.4238-31.4453 84.7412-31.1279Q85.0586-30.8105 85.0586-30.3711Q85.0586-29.9316 84.7412-29.6143Q84.4238-29.2969 83.9355-29.2969L74.2676-29.2969L74.2676-19.5801Q74.2676-19.1406 73.9502-18.7988Q73.6328-18.457 73.1445-18.5059Q72.7051-18.457 72.3877-18.7744Q72.0703-19.0918 72.0703-19.5801L72.0703-29.2969L62.3535-29.2969Q61.8652-29.2969 61.5479-29.6143Q61.2305-29.9316 61.2305-30.3711ZM22.9004-30.3711Q22.9004-30.8105 23.2178-31.1279Q23.5352-31.4453 24.0234-31.4453L45.6543-31.4453Q46.0938-31.4453 46.4111-31.1279Q46.7285-30.8105 46.7285-30.3711Q46.7285-29.9316 46.4111-29.6143Q46.0938-29.2969 45.6543-29.2969L24.0234-29.2969Q23.5352-29.2969 23.2178-29.6143Q22.9004-29.9316 22.9004-30.3711Z"/>
  </g>
 </g>
</svg>
