<?xml version="1.0" encoding="UTF-8"?>
<!--Generator: Apple Native CoreSVG 175-->
<!DOCTYPE svg
PUBLIC "-//W3C//DTD SVG 1.1//EN"
       "http://www.w3.org/Graphics/SVG/1.1/DTD/svg11.dtd">
<svg version="1.1" xmlns="http://www.w3.org/2000/svg" xmlns:xlink="http://www.w3.org/1999/xlink" width="3300" height="2200">
 <!--glyph: "uni100B02.medium", point size: 100.0, font version: "17.0d11e1", template writer version: "65.1"-->
 <style>.hierarchical-0:secondary {fill:#4D4D4D}
.hierarchical-1:primary {fill:#212121}

.SFSymbolsPreview212121 {fill:#212121;opacity:1.0}
.SFSymbolsPreview4D4D4D {fill:#4D4D4D;opacity:1.0}
</style>
 <g id="Notes">
  <rect height="2200" id="artboard" style="fill:white;opacity:1" width="3300" x="0" y="0"/>
  <line style="fill:none;stroke:black;opacity:1;stroke-width:0.5;" x1="263" x2="3036" y1="292" y2="292"/>
  <text style="stroke:none;fill:black;font-family:sans-serif;font-size:13;font-weight:bold;" transform="matrix(1 0 0 1 263 322)">Weight/Scale Variations</text>
  <text style="stroke:none;fill:black;font-family:sans-serif;font-size:13;text-anchor:middle;" transform="matrix(1 0 0 1 559.711 322)">Ultralight</text>
  <text style="stroke:none;fill:black;font-family:sans-serif;font-size:13;text-anchor:middle;" transform="matrix(1 0 0 1 856.422 322)">Thin</text>
  <text style="stroke:none;fill:black;font-family:sans-serif;font-size:13;text-anchor:middle;" transform="matrix(1 0 0 1 1153.13 322)">Light</text>
  <text style="stroke:none;fill:black;font-family:sans-serif;font-size:13;text-anchor:middle;" transform="matrix(1 0 0 1 1449.84 322)">Regular</text>
  <text style="stroke:none;fill:black;font-family:sans-serif;font-size:13;text-anchor:middle;" transform="matrix(1 0 0 1 1746.56 322)">Medium</text>
  <text style="stroke:none;fill:black;font-family:sans-serif;font-size:13;text-anchor:middle;" transform="matrix(1 0 0 1 2043.27 322)">Semibold</text>
  <text style="stroke:none;fill:black;font-family:sans-serif;font-size:13;text-anchor:middle;" transform="matrix(1 0 0 1 2339.98 322)">Bold</text>
  <text style="stroke:none;fill:black;font-family:sans-serif;font-size:13;text-anchor:middle;" transform="matrix(1 0 0 1 2636.69 322)">Heavy</text>
  <text style="stroke:none;fill:black;font-family:sans-serif;font-size:13;text-anchor:middle;" transform="matrix(1 0 0 1 2933.4 322)">Black</text>
  <line style="fill:none;stroke:black;opacity:1;stroke-width:0.5;" x1="263" x2="3036" y1="1903" y2="1903"/>
  <g transform="matrix(1 0 0 1 263 1933)">
   <path d="M9.24805 0.830078Q10.8691 0.830078 12.2949 0.214844Q13.7207-0.400391 14.8096-1.49414Q15.8984-2.58789 16.5186-4.01367Q17.1387-5.43945 17.1387-7.05078Q17.1387-8.66211 16.5186-10.0879Q15.8984-11.5137 14.8047-12.6074Q13.7109-13.7012 12.2852-14.3164Q10.8594-14.9316 9.23828-14.9316Q7.62695-14.9316 6.20117-14.3164Q4.77539-13.7012 3.69141-12.6074Q2.60742-11.5137 1.9873-10.0879Q1.36719-8.66211 1.36719-7.05078Q1.36719-5.43945 1.9873-4.01367Q2.60742-2.58789 3.69629-1.49414Q4.78516-0.400391 6.21094 0.214844Q7.63672 0.830078 9.24805 0.830078ZM9.24805-0.654297Q7.91992-0.654297 6.7627-1.14746Q5.60547-1.64062 4.73145-2.51953Q3.85742-3.39844 3.36426-4.56055Q2.87109-5.72266 2.87109-7.05078Q2.87109-8.37891 3.35938-9.54102Q3.84766-10.7031 4.72168-11.582Q5.5957-12.4609 6.75293-12.9541Q7.91016-13.4473 9.23828-13.4473Q10.5762-13.4473 11.7334-12.9541Q12.8906-12.4609 13.7695-11.582Q14.6484-10.7031 15.1465-9.54102Q15.6445-8.37891 15.6445-7.05078Q15.6445-5.72266 15.1514-4.56055Q14.6582-3.39844 13.7842-2.51953Q12.9102-1.64062 11.748-1.14746Q10.5859-0.654297 9.24805-0.654297ZM5.6543-7.05078Q5.6543-6.72852 5.85938-6.52832Q6.06445-6.32812 6.40625-6.32812L8.51562-6.32812L8.51562-4.20898Q8.51562-3.88672 8.71094-3.67676Q8.90625-3.4668 9.23828-3.4668Q9.56055-3.4668 9.77051-3.67676Q9.98047-3.88672 9.98047-4.20898L9.98047-6.32812L12.0898-6.32812Q12.4219-6.32812 12.627-6.52832Q12.832-6.72852 12.832-7.05078Q12.832-7.38281 12.627-7.58789Q12.4219-7.79297 12.0898-7.79297L9.98047-7.79297L9.98047-9.90234Q9.98047-10.2344 9.77051-10.4443Q9.56055-10.6543 9.23828-10.6543Q8.90625-10.6543 8.71094-10.4443Q8.51562-10.2344 8.51562-9.90234L8.51562-7.79297L6.40625-7.79297Q6.06445-7.79297 5.85938-7.58789Q5.6543-7.38281 5.6543-7.05078Z"/>
  </g>
  <g transform="matrix(1 0 0 1 281.867 1933)">
   <path d="M11.709 2.91016Q13.75 2.91016 15.5518 2.12891Q17.3535 1.34766 18.7305-0.0292969Q20.1074-1.40625 20.8887-3.20801Q21.6699-5.00977 21.6699-7.05078Q21.6699-9.0918 20.8887-10.8936Q20.1074-12.6953 18.7305-14.0723Q17.3535-15.4492 15.5469-16.2305Q13.7402-17.0117 11.6992-17.0117Q9.6582-17.0117 7.85645-16.2305Q6.05469-15.4492 4.68262-14.0723Q3.31055-12.6953 2.5293-10.8936Q1.74805-9.0918 1.74805-7.05078Q1.74805-5.00977 2.5293-3.20801Q3.31055-1.40625 4.6875-0.0292969Q6.06445 1.34766 7.86621 2.12891Q9.66797 2.91016 11.709 2.91016ZM11.709 1.25Q9.98047 1.25 8.47656 0.605469Q6.97266-0.0390625 5.83496-1.17676Q4.69727-2.31445 4.05762-3.81836Q3.41797-5.32227 3.41797-7.05078Q3.41797-8.7793 4.05762-10.2832Q4.69727-11.7871 5.83008-12.9297Q6.96289-14.0723 8.4668-14.7119Q9.9707-15.3516 11.6992-15.3516Q13.4277-15.3516 14.9316-14.7119Q16.4355-14.0723 17.5781-12.9297Q18.7207-11.7871 19.3652-10.2832Q20.0098-8.7793 20.0098-7.05078Q20.0098-5.32227 19.3701-3.81836Q18.7305-2.31445 17.5928-1.17676Q16.4551-0.0390625 14.9463 0.605469Q13.4375 1.25 11.709 1.25ZM7.17773-7.05078Q7.17773-6.69922 7.41211-6.47461Q7.64648-6.25 8.01758-6.25L10.8887-6.25L10.8887-3.36914Q10.8887-2.99805 11.1133-2.76855Q11.3379-2.53906 11.6895-2.53906Q12.0605-2.53906 12.29-2.76855Q12.5195-2.99805 12.5195-3.36914L12.5195-6.25L15.4004-6.25Q15.7715-6.25 16.001-6.47461Q16.2305-6.69922 16.2305-7.05078Q16.2305-7.42188 16.001-7.65137Q15.7715-7.88086 15.4004-7.88086L12.5195-7.88086L12.5195-10.752Q12.5195-11.1328 12.29-11.3623Q12.0605-11.5918 11.6895-11.5918Q11.3379-11.5918 11.1133-11.3574Q10.8887-11.123 10.8887-10.752L10.8887-7.88086L8.01758-7.88086Q7.63672-7.88086 7.40723-7.65137Q7.17773-7.42188 7.17773-7.05078Z"/>
  </g>
  <g transform="matrix(1 0 0 1 305.646 1933)">
   <path d="M14.9707 5.66406Q17.0605 5.66406 18.96 5.01465Q20.8594 4.36523 22.4512 3.19336Q24.043 2.02148 25.2197 0.429688Q26.3965-1.16211 27.0459-3.06641Q27.6953-4.9707 27.6953-7.05078Q27.6953-9.14062 27.0459-11.04Q26.3965-12.9395 25.2197-14.5312Q24.043-16.123 22.4512-17.2998Q20.8594-18.4766 18.9551-19.126Q17.0508-19.7754 14.9609-19.7754Q12.8711-19.7754 10.9717-19.126Q9.07227-18.4766 7.48535-17.2998Q5.89844-16.123 4.72168-14.5312Q3.54492-12.9395 2.90039-11.04Q2.25586-9.14062 2.25586-7.05078Q2.25586-4.9707 2.90527-3.06641Q3.55469-1.16211 4.72656 0.429688Q5.89844 2.02148 7.49023 3.19336Q9.08203 4.36523 10.9814 5.01465Q12.8809 5.66406 14.9707 5.66406ZM14.9707 3.84766Q13.1641 3.84766 11.5283 3.2959Q9.89258 2.74414 8.53516 1.74805Q7.17773 0.751953 6.17676-0.610352Q5.17578-1.97266 4.62891-3.6084Q4.08203-5.24414 4.08203-7.05078Q4.08203-8.86719 4.62891-10.5029Q5.17578-12.1387 6.17188-13.501Q7.16797-14.8633 8.52539-15.8594Q9.88281-16.8555 11.5186-17.4023Q13.1543-17.9492 14.9609-17.9492Q16.7773-17.9492 18.4131-17.4023Q20.0488-16.8555 21.4111-15.8594Q22.7734-14.8633 23.7695-13.501Q24.7656-12.1387 25.3174-10.5029Q25.8691-8.86719 25.8691-7.05078Q25.8789-5.24414 25.332-3.6084Q24.7852-1.97266 23.7842-0.610352Q22.7832 0.751953 21.4209 1.74805Q20.0586 2.74414 18.4229 3.2959Q16.7871 3.84766 14.9707 3.84766ZM9.19922-7.05078Q9.19922-6.66992 9.45801-6.4209Q9.7168-6.17188 10.1172-6.17188L14.0625-6.17188L14.0625-2.2168Q14.0625-1.81641 14.3115-1.55762Q14.5605-1.29883 14.9512-1.29883Q15.3516-1.29883 15.6104-1.55273Q15.8691-1.80664 15.8691-2.2168L15.8691-6.17188L19.8242-6.17188Q20.2246-6.17188 20.4785-6.4209Q20.7324-6.66992 20.7324-7.05078Q20.7324-7.46094 20.4785-7.71484Q20.2246-7.96875 19.8242-7.96875L15.8691-7.96875L15.8691-11.9141Q15.8691-12.3242 15.6104-12.583Q15.3516-12.8418 14.9512-12.8418Q14.5605-12.8418 14.3115-12.583Q14.0625-12.3242 14.0625-11.9141L14.0625-7.96875L10.1172-7.96875Q9.70703-7.96875 9.45312-7.71484Q9.19922-7.46094 9.19922-7.05078Z"/>
  </g>
  <text style="stroke:none;fill:black;font-family:sans-serif;font-size:13;font-weight:bold;" transform="matrix(1 0 0 1 263 1953)">Design Variations</text>
  <text style="stroke:none;fill:black;font-family:sans-serif;font-size:13;" transform="matrix(1 0 0 1 263 1971)">Symbols are supported in up to nine weights and three scales.</text>
  <text style="stroke:none;fill:black;font-family:sans-serif;font-size:13;" transform="matrix(1 0 0 1 263 1989)">For optimal layout with text and other symbols, vertically align</text>
  <text style="stroke:none;fill:black;font-family:sans-serif;font-size:13;" transform="matrix(1 0 0 1 263 2007)">symbols with the adjacent text.</text>
  <line style="fill:none;stroke:#00AEEF;stroke-width:0.5;opacity:1.0;" x1="776" x2="776" y1="1919" y2="1933"/>
  <g transform="matrix(1 0 0 1 776 1933)">
   <path d="M3.31055 0.15625Q3.70117 0.15625 3.91602-0.00976562Q4.13086-0.175781 4.26758-0.585938L5.52734-4.0332L11.2891-4.0332L12.5488-0.585938Q12.6855-0.175781 12.9004-0.00976562Q13.1152 0.15625 13.4961 0.15625Q13.8867 0.15625 14.1162-0.0585938Q14.3457-0.273438 14.3457-0.644531Q14.3457-0.869141 14.2383-1.17188L9.6582-13.3691Q9.48242-13.8184 9.17969-14.043Q8.87695-14.2676 8.4082-14.2676Q7.5-14.2676 7.17773-13.3789L2.59766-1.16211Q2.49023-0.859375 2.49023-0.634766Q2.49023-0.263672 2.70996-0.0537109Q2.92969 0.15625 3.31055 0.15625ZM6.00586-5.51758L8.37891-12.0898L8.42773-12.0898L10.8008-5.51758Z"/>
  </g>
  <line style="fill:none;stroke:#00AEEF;stroke-width:0.5;opacity:1.0;" x1="793.197" x2="793.197" y1="1919" y2="1933"/>
  <text style="stroke:none;fill:black;font-family:sans-serif;font-size:13;font-weight:bold;" transform="matrix(1 0 0 1 776 1953)">Margins</text>
  <text style="stroke:none;fill:black;font-family:sans-serif;font-size:13;" transform="matrix(1 0 0 1 776 1971)">Leading and trailing margins on the left and right side of each symbol</text>
  <text style="stroke:none;fill:black;font-family:sans-serif;font-size:13;" transform="matrix(1 0 0 1 776 1989)">can be adjusted by modifying the x-location of the margin guidelines.</text>
  <text style="stroke:none;fill:black;font-family:sans-serif;font-size:13;" transform="matrix(1 0 0 1 776 2007)">Modifications are automatically applied proportionally to all</text>
  <text style="stroke:none;fill:black;font-family:sans-serif;font-size:13;" transform="matrix(1 0 0 1 776 2025)">scales and weights.</text>
  <g transform="matrix(1 0 0 1 1289 1933)">
   <path d="M2.8418 1.86523L4.54102 3.57422Q5.18555 4.22852 5.90332 4.17969Q6.62109 4.13086 7.31445 3.35938L18.0078-8.42773L17.041-9.4043L6.42578 2.27539Q6.16211 2.57812 5.89355 2.61719Q5.625 2.65625 5.27344 2.30469L4.10156 1.14258Q3.75 0.791016 3.79395 0.522461Q3.83789 0.253906 4.14062-0.0195312L15.6152-10.8203L14.6387-11.7871L3.04688-0.898438Q2.30469-0.214844 2.25098 0.498047Q2.19727 1.21094 2.8418 1.86523ZM9.25781-16.3281Q8.94531-16.0254 8.90625-15.6348Q8.86719-15.2441 9.04297-14.9512Q9.21875-14.6777 9.55566-14.541Q9.89258-14.4043 10.3809-14.5215Q11.4746-14.7754 12.5977-14.7314Q13.7207-14.6875 14.7949-13.9844L14.209-12.5293Q13.9551-11.9043 14.0674-11.4404Q14.1797-10.9766 14.5801-10.5664L16.875-8.25195Q17.2363-7.88086 17.5781-7.82227Q17.9199-7.76367 18.3398-7.8418L19.4043-8.03711L20.0684-7.36328L20.0293-6.80664Q20-6.43555 20.1221-6.12305Q20.2441-5.81055 20.6055-5.44922L21.3672-4.70703Q21.7285-4.3457 22.1533-4.33105Q22.5781-4.31641 22.9297-4.66797L25.8398-7.58789Q26.1914-7.93945 26.1816-8.35449Q26.1719-8.76953 25.8105-9.13086L25.0391-9.89258Q24.6875-10.2539 24.3799-10.3857Q24.0723-10.5176 23.7109-10.4883L23.1348-10.4395L22.4902-11.0742L22.7344-12.1973Q22.832-12.6172 22.6953-12.9834Q22.5586-13.3496 22.1191-13.7891L19.9219-15.9766Q18.6719-17.2168 17.2607-17.8369Q15.8496-18.457 14.4189-18.4814Q12.9883-18.5059 11.665-17.959Q10.3418-17.4121 9.25781-16.3281ZM10.752-15.957Q11.6602-16.6211 12.7002-16.9043Q13.7402-17.1875 14.8047-17.085Q15.8691-16.9824 16.8701-16.5137Q17.8711-16.0449 18.7012-15.2051L21.1328-12.793Q21.3086-12.6172 21.3525-12.4512Q21.3965-12.2852 21.3379-12.0312L21.0156-10.5469L22.5195-9.0625L23.5059-9.12109Q23.6914-9.13086 23.7891-9.09668Q23.8867-9.0625 24.0332-8.91602L24.6094-8.33984L22.168-5.89844L21.5918-6.47461Q21.4453-6.62109 21.4062-6.71875Q21.3672-6.81641 21.377-7.01172L21.4453-7.98828L19.9512-9.47266L18.4277-9.21875Q18.1836-9.16992 18.042-9.2041Q17.9004-9.23828 17.7148-9.41406L15.7129-11.416Q15.5176-11.5918 15.4932-11.7529Q15.4688-11.9141 15.5859-12.1875L16.4648-14.2773Q15.293-15.3711 13.8281-15.791Q12.3633-16.2109 10.8398-15.7617Q10.7227-15.7324 10.6885-15.8057Q10.6543-15.8789 10.752-15.957Z"/>
  </g>
  <text style="stroke:none;fill:black;font-family:sans-serif;font-size:13;font-weight:bold;" transform="matrix(1 0 0 1 1289 1953)">Exporting</text>
  <text style="stroke:none;fill:black;font-family:sans-serif;font-size:13;" transform="matrix(1 0 0 1 1289 1971)">Symbols should be outlined when exporting to ensure the</text>
  <text style="stroke:none;fill:black;font-family:sans-serif;font-size:13;" transform="matrix(1 0 0 1 1289 1989)">design is preserved when submitting to Xcode.</text>
  <text id="template-version" style="stroke:none;fill:black;font-family:sans-serif;font-size:13;text-anchor:end;" transform="matrix(1 0 0 1 3036 1933)">Template v.3.0</text>
  <text style="stroke:none;fill:black;font-family:sans-serif;font-size:13;text-anchor:end;" transform="matrix(1 0 0 1 3036 1951)">Requires Xcode 13 or greater</text>
  <text id="descriptive-name" style="stroke:none;fill:black;font-family:sans-serif;font-size:13;text-anchor:end;" transform="matrix(1 0 0 1 3036 1969)">Generated from hand.tap.fill</text>
  <text style="stroke:none;fill:black;font-family:sans-serif;font-size:13;text-anchor:end;" transform="matrix(1 0 0 1 3036 1987)">Typeset at 100 points</text>
  <text style="stroke:none;fill:black;font-family:sans-serif;font-size:13;" transform="matrix(1 0 0 1 263 726)">Small</text>
  <text style="stroke:none;fill:black;font-family:sans-serif;font-size:13;" transform="matrix(1 0 0 1 263 1156)">Medium</text>
  <text style="stroke:none;fill:black;font-family:sans-serif;font-size:13;" transform="matrix(1 0 0 1 263 1586)">Large</text>
 </g>
 <g id="Guides">
  <g id="H-reference" style="fill:#27AAE1;stroke:none;" transform="matrix(1 0 0 1 339 696)">
   <path d="M0.976562 0L3.66211 0L29.3457-67.1387L30.0293-67.1387L30.0293-70.459L28.125-70.459ZM11.6699-24.4629L46.9727-24.4629L46.2402-26.709L12.4512-26.709ZM55.127 0L57.7637 0L30.6152-70.459L29.4434-70.459L29.4434-67.1387Z"/>
  </g>
  <line id="Baseline-S" style="fill:none;stroke:#27AAE1;opacity:1;stroke-width:0.5;" x1="263" x2="3036" y1="696" y2="696"/>
  <line id="Capline-S" style="fill:none;stroke:#27AAE1;opacity:1;stroke-width:0.5;" x1="263" x2="3036" y1="625.541" y2="625.541"/>
  <g id="H-reference" style="fill:#27AAE1;stroke:none;" transform="matrix(1 0 0 1 339 1126)">
   <path d="M0.976562 0L3.66211 0L29.3457-67.1387L30.0293-67.1387L30.0293-70.459L28.125-70.459ZM11.6699-24.4629L46.9727-24.4629L46.2402-26.709L12.4512-26.709ZM55.127 0L57.7637 0L30.6152-70.459L29.4434-70.459L29.4434-67.1387Z"/>
  </g>
  <line id="Baseline-M" style="fill:none;stroke:#27AAE1;opacity:1;stroke-width:0.5;" x1="263" x2="3036" y1="1126" y2="1126"/>
  <line id="Capline-M" style="fill:none;stroke:#27AAE1;opacity:1;stroke-width:0.5;" x1="263" x2="3036" y1="1055.54" y2="1055.54"/>
  <g id="H-reference" style="fill:#27AAE1;stroke:none;" transform="matrix(1 0 0 1 339 1556)">
   <path d="M0.976562 0L3.66211 0L29.3457-67.1387L30.0293-67.1387L30.0293-70.459L28.125-70.459ZM11.6699-24.4629L46.9727-24.4629L46.2402-26.709L12.4512-26.709ZM55.127 0L57.7637 0L30.6152-70.459L29.4434-70.459L29.4434-67.1387Z"/>
  </g>
  <line id="Baseline-L" style="fill:none;stroke:#27AAE1;opacity:1;stroke-width:0.5;" x1="263" x2="3036" y1="1556" y2="1556"/>
  <line id="Capline-L" style="fill:none;stroke:#27AAE1;opacity:1;stroke-width:0.5;" x1="263" x2="3036" y1="1485.54" y2="1485.54"/>
  <line id="left-margin-Ultralight-S" style="fill:none;stroke:#00AEEF;stroke-width:0.5;opacity:1.0;" x1="520.429" x2="520.429" y1="600.785" y2="720.121"/>
  <line id="right-margin-Ultralight-S" style="fill:none;stroke:#00AEEF;stroke-width:0.5;opacity:1.0;" x1="598.993" x2="598.993" y1="600.785" y2="720.121"/>
  <line id="left-margin-Thin-S" style="fill:none;stroke:#00AEEF;stroke-width:0.5;opacity:1.0;" x1="815.944" x2="815.944" y1="600.785" y2="720.121"/>
  <line id="right-margin-Thin-S" style="fill:none;stroke:#00AEEF;stroke-width:0.5;opacity:1.0;" x1="896.901" x2="896.901" y1="600.785" y2="720.121"/>
  <line id="left-margin-Light-S" style="fill:none;stroke:#00AEEF;stroke-width:0.5;opacity:1.0;" x1="1110.34" x2="1110.34" y1="600.785" y2="720.121"/>
  <line id="right-margin-Light-S" style="fill:none;stroke:#00AEEF;stroke-width:0.5;opacity:1.0;" x1="1195.93" x2="1195.93" y1="600.785" y2="720.121"/>
  <line id="left-margin-Regular-S" style="fill:none;stroke:#00AEEF;stroke-width:0.5;opacity:1.0;" x1="1405.29" x2="1405.29" y1="600.785" y2="720.121"/>
  <line id="right-margin-Regular-S" style="fill:none;stroke:#00AEEF;stroke-width:0.5;opacity:1.0;" x1="1494.4" x2="1494.4" y1="600.785" y2="720.121"/>
  <line id="left-margin-Medium-S" style="fill:none;stroke:#00AEEF;stroke-width:0.5;opacity:1.0;" x1="1700.73" x2="1700.73" y1="600.785" y2="720.121"/>
  <line id="right-margin-Medium-S" style="fill:none;stroke:#00AEEF;stroke-width:0.5;opacity:1.0;" x1="1792.38" x2="1792.38" y1="600.785" y2="720.121"/>
  <line id="left-margin-Semibold-S" style="fill:none;stroke:#00AEEF;stroke-width:0.5;opacity:1.0;" x1="1996.46" x2="1996.46" y1="600.785" y2="720.121"/>
  <line id="right-margin-Semibold-S" style="fill:none;stroke:#00AEEF;stroke-width:0.5;opacity:1.0;" x1="2090.07" x2="2090.07" y1="600.785" y2="720.121"/>
  <line id="left-margin-Bold-S" style="fill:none;stroke:#00AEEF;stroke-width:0.5;opacity:1.0;" x1="2291.88" x2="2291.88" y1="600.785" y2="720.121"/>
  <line id="right-margin-Bold-S" style="fill:none;stroke:#00AEEF;stroke-width:0.5;opacity:1.0;" x1="2388.07" x2="2388.07" y1="600.785" y2="720.121"/>
  <line id="left-margin-Heavy-S" style="fill:none;stroke:#00AEEF;stroke-width:0.5;opacity:1.0;" x1="2586.74" x2="2586.74" y1="600.785" y2="720.121"/>
  <line id="right-margin-Heavy-S" style="fill:none;stroke:#00AEEF;stroke-width:0.5;opacity:1.0;" x1="2686.64" x2="2686.64" y1="600.785" y2="720.121"/>
  <line id="left-margin-Black-S" style="fill:none;stroke:#00AEEF;stroke-width:0.5;opacity:1.0;" x1="2881.79" x2="2881.79" y1="600.785" y2="720.121"/>
  <line id="right-margin-Black-S" style="fill:none;stroke:#00AEEF;stroke-width:0.5;opacity:1.0;" x1="2985.01" x2="2985.01" y1="600.785" y2="720.121"/>
  <line id="left-margin-Ultralight-M" style="fill:none;stroke:#00AEEF;stroke-width:0.5;opacity:1.0;" x1="510.028" x2="510.028" y1="1030.79" y2="1150.12"/>
  <line id="right-margin-Ultralight-M" style="fill:none;stroke:#00AEEF;stroke-width:0.5;opacity:1.0;" x1="609.394" x2="609.394" y1="1030.79" y2="1150.12"/>
  <line id="left-margin-Thin-M" style="fill:none;stroke:#00AEEF;stroke-width:0.5;opacity:1.0;" x1="805.372" x2="805.372" y1="1030.79" y2="1150.12"/>
  <line id="right-margin-Thin-M" style="fill:none;stroke:#00AEEF;stroke-width:0.5;opacity:1.0;" x1="907.472" x2="907.472" y1="1030.79" y2="1150.12"/>
  <line id="left-margin-Light-M" style="fill:none;stroke:#00AEEF;stroke-width:0.5;opacity:1.0;" x1="1099.47" x2="1099.47" y1="1030.79" y2="1150.12"/>
  <line id="right-margin-Light-M" style="fill:none;stroke:#00AEEF;stroke-width:0.5;opacity:1.0;" x1="1206.8" x2="1206.8" y1="1030.79" y2="1150.12"/>
  <line id="left-margin-Regular-M" style="fill:none;stroke:#00AEEF;stroke-width:0.5;opacity:1.0;" x1="1394.18" x2="1394.18" y1="1030.79" y2="1150.12"/>
  <line id="right-margin-Regular-M" style="fill:none;stroke:#00AEEF;stroke-width:0.5;opacity:1.0;" x1="1505.51" x2="1505.51" y1="1030.79" y2="1150.12"/>
  <line id="left-margin-Medium-M" style="fill:none;stroke:#00AEEF;stroke-width:0.5;opacity:1.0;" x1="1689.18" x2="1689.18" y1="1030.79" y2="1150.12"/>
  <line id="right-margin-Medium-M" style="fill:none;stroke:#00AEEF;stroke-width:0.5;opacity:1.0;" x1="1803.93" x2="1803.93" y1="1030.79" y2="1150.12"/>
  <line id="left-margin-Semibold-M" style="fill:none;stroke:#00AEEF;stroke-width:0.5;opacity:1.0;" x1="1984.58" x2="1984.58" y1="1030.79" y2="1150.12"/>
  <line id="right-margin-Semibold-M" style="fill:none;stroke:#00AEEF;stroke-width:0.5;opacity:1.0;" x1="2101.96" x2="2101.96" y1="1030.79" y2="1150.12"/>
  <line id="left-margin-Bold-M" style="fill:none;stroke:#00AEEF;stroke-width:0.5;opacity:1.0;" x1="2279.55" x2="2279.55" y1="1030.79" y2="1150.12"/>
  <line id="right-margin-Bold-M" style="fill:none;stroke:#00AEEF;stroke-width:0.5;opacity:1.0;" x1="2400.4" x2="2400.4" y1="1030.79" y2="1150.12"/>
  <line id="left-margin-Heavy-M" style="fill:none;stroke:#00AEEF;stroke-width:0.5;opacity:1.0;" x1="2573.77" x2="2573.77" y1="1030.79" y2="1150.12"/>
  <line id="right-margin-Heavy-M" style="fill:none;stroke:#00AEEF;stroke-width:0.5;opacity:1.0;" x1="2699.6" x2="2699.6" y1="1030.79" y2="1150.12"/>
  <line id="left-margin-Black-M" style="fill:none;stroke:#00AEEF;stroke-width:0.5;opacity:1.0;" x1="2868.24" x2="2868.24" y1="1030.79" y2="1150.12"/>
  <line id="right-margin-Black-M" style="fill:none;stroke:#00AEEF;stroke-width:0.5;opacity:1.0;" x1="2998.56" x2="2998.56" y1="1030.79" y2="1150.12"/>
  <line id="left-margin-Ultralight-L" style="fill:none;stroke:#00AEEF;stroke-width:0.5;opacity:1.0;" x1="496.161" x2="496.161" y1="1460.79" y2="1580.12"/>
  <line id="right-margin-Ultralight-L" style="fill:none;stroke:#00AEEF;stroke-width:0.5;opacity:1.0;" x1="623.261" x2="623.261" y1="1460.79" y2="1580.12"/>
  <line id="left-margin-Thin-L" style="fill:none;stroke:#00AEEF;stroke-width:0.5;opacity:1.0;" x1="791.359" x2="791.359" y1="1460.79" y2="1580.12"/>
  <line id="right-margin-Thin-L" style="fill:none;stroke:#00AEEF;stroke-width:0.5;opacity:1.0;" x1="921.486" x2="921.486" y1="1460.79" y2="1580.12"/>
  <line id="left-margin-Light-L" style="fill:none;stroke:#00AEEF;stroke-width:0.5;opacity:1.0;" x1="1085.16" x2="1085.16" y1="1460.79" y2="1580.12"/>
  <line id="right-margin-Light-L" style="fill:none;stroke:#00AEEF;stroke-width:0.5;opacity:1.0;" x1="1221.1" x2="1221.1" y1="1460.79" y2="1580.12"/>
  <line id="left-margin-Regular-L" style="fill:none;stroke:#00AEEF;stroke-width:0.5;opacity:1.0;" x1="1379.65" x2="1379.65" y1="1460.79" y2="1580.12"/>
  <line id="right-margin-Regular-L" style="fill:none;stroke:#00AEEF;stroke-width:0.5;opacity:1.0;" x1="1520.03" x2="1520.03" y1="1460.79" y2="1580.12"/>
  <line id="left-margin-Medium-L" style="fill:none;stroke:#00AEEF;stroke-width:0.5;opacity:1.0;" x1="1674.24" x2="1674.24" y1="1460.79" y2="1580.12"/>
  <line id="right-margin-Medium-L" style="fill:none;stroke:#00AEEF;stroke-width:0.5;opacity:1.0;" x1="1818.87" x2="1818.87" y1="1460.79" y2="1580.12"/>
  <line id="left-margin-Semibold-L" style="fill:none;stroke:#00AEEF;stroke-width:0.5;opacity:1.0;" x1="1969.32" x2="1969.32" y1="1460.79" y2="1580.12"/>
  <line id="right-margin-Semibold-L" style="fill:none;stroke:#00AEEF;stroke-width:0.5;opacity:1.0;" x1="2117.22" x2="2117.22" y1="1460.79" y2="1580.12"/>
  <line id="left-margin-Bold-L" style="fill:none;stroke:#00AEEF;stroke-width:0.5;opacity:1.0;" x1="2263.88" x2="2263.88" y1="1460.79" y2="1580.12"/>
  <line id="right-margin-Bold-L" style="fill:none;stroke:#00AEEF;stroke-width:0.5;opacity:1.0;" x1="2416.08" x2="2416.08" y1="1460.79" y2="1580.12"/>
  <line id="left-margin-Heavy-L" style="fill:none;stroke:#00AEEF;stroke-width:0.5;opacity:1.0;" x1="2557.49" x2="2557.49" y1="1460.79" y2="1580.12"/>
  <line id="right-margin-Heavy-L" style="fill:none;stroke:#00AEEF;stroke-width:0.5;opacity:1.0;" x1="2715.89" x2="2715.89" y1="1460.79" y2="1580.12"/>
  <line id="left-margin-Black-L" style="fill:none;stroke:#00AEEF;stroke-width:0.5;opacity:1.0;" x1="2851.42" x2="2851.42" y1="1460.79" y2="1580.12"/>
  <line id="right-margin-Black-L" style="fill:none;stroke:#00AEEF;stroke-width:0.5;opacity:1.0;" x1="3015.38" x2="3015.38" y1="1460.79" y2="1580.12"/>
 </g>
 <g id="Symbols">
  <g id="Black-L" transform="matrix(1 0 0 1 2851.42 1556)">
   <path class="hierarchical-0:secondary SFSymbolsPreview4D4D4D" d="M52.5391-130.078Q43.9941-130.078 36.5234-126.88Q29.0527-123.682 23.3643-118.042Q17.6758-112.402 14.4775-104.956Q11.2793-97.5098 11.2793-89.0137Q11.2793-83.1055 13.1592-76.6602Q15.0391-70.2148 18.2617-65.4785Q19.6777-63.3789 21.5088-62.4512Q23.3398-61.5234 25.2441-61.5234Q28.2715-61.5234 30.3955-63.3545Q32.5195-65.1855 32.9834-67.9932Q33.4473-70.8008 31.4941-73.6816Q29.3945-76.8066 28.0518-80.835Q26.709-84.8633 26.709-89.0137Q26.709-96.0938 30.2002-101.904Q33.6914-107.715 39.5264-111.157Q45.3613-114.6 52.4414-114.6Q58.4961-114.6 63.7451-111.938Q68.9941-109.277 72.6318-104.614Q76.2695-99.9512 77.4902-93.8965Q77.5391-93.6523 77.5879-93.4082Q77.6367-93.1641 77.6367-92.8711Q78.3203-90.0879 79.9805-88.2568Q81.6406-86.4258 84.9121-86.4258Q88.5742-86.4258 90.6738-88.5742Q92.7734-90.7227 92.8223-93.9453Q92.8711-94.4824 92.7734-95.459Q92.6758-96.4355 92.5293-97.168Q91.0645-104.443 87.3535-110.474Q83.6426-116.504 78.2471-120.898Q72.8516-125.293 66.2842-127.686Q59.7168-130.078 52.5391-130.078Z"/>
   <path class="hierarchical-1:primary SFSymbolsPreview212121" d="M119.727 25.6348Q134.375 20.3125 142.627 10.5957Q150.879 0.878906 152.393-12.207Q153.906-25.293 148.291-40.7227L143.457-53.9551Q141.357-59.7656 137.988-63.623Q134.619-67.4805 130.713-68.9453Q126.807-70.4102 123.047-69.043Q119.531-67.7734 120.801-64.3066L122.705-59.082Q123.242-57.6172 122.974-56.665Q122.705-55.7129 121.875-55.4199Q120.996-55.127 120.166-55.6396Q119.336-56.1523 118.799-57.666L117.578-61.0352Q115.576-66.5039 111.06-68.8232Q106.543-71.1426 101.562-69.3359Q96.3867-67.4316 98.0957-62.6953L100.732-55.4688Q101.27-53.9551 101.025-53.0518Q100.781-52.1484 99.9512-51.8555Q99.0234-51.5137 98.2178-52.0264Q97.4121-52.5391 96.8262-54.0527L94.3848-60.791Q92.2852-66.6016 87.9639-68.7744Q83.6426-70.9473 78.4668-69.043Q76.0254-68.1641 75.0977-66.4307Q74.1699-64.6973 75-62.5L80.2734-48.0469Q80.8105-46.582 80.542-45.6299Q80.2734-44.6777 79.4922-44.3848Q78.6133-44.0918 77.7832-44.6045Q76.9531-45.1172 76.416-46.6309L59.4238-93.3105Q57.9102-97.4121 54.4678-99.1699Q51.0254-100.928 47.3145-99.5605Q43.4082-98.1445 41.8701-94.6045Q40.332-91.0645 41.8457-86.9141L66.0645-20.459Q66.3574-19.5801 66.1621-18.9697Q65.9668-18.3594 65.4297-18.1641Q64.9414-18.0176 64.4287-18.1885Q63.916-18.3594 63.3789-18.9453L47.7051-35.9863Q45.5078-38.3789 42.7002-39.502Q39.8926-40.625 36.4746-39.3555Q32.373-37.8418 30.6396-34.375Q28.9062-30.9082 30.3223-26.9531Q30.7617-25.7324 31.3721-24.6338Q31.9824-23.5352 32.666-22.7539L56.1035 5.66406Q65.625 17.2363 75.9277 23.0225Q86.2305 28.8086 97.1924 29.3213Q108.154 29.834 119.727 25.6348Z"/>
  </g>
  <g id="Heavy-L" transform="matrix(1 0 0 1 2557.49 1556)">
   <path class="hierarchical-0:secondary SFSymbolsPreview4D4D4D" d="M49.9023-126.074Q41.9434-126.074 34.9365-123.071Q27.9297-120.068 22.6074-114.795Q17.2852-109.521 14.2822-102.539Q11.2793-95.5566 11.2793-87.5977Q11.2793-81.8359 13.1348-75.7568Q14.9902-69.6777 18.2129-65.1367Q19.4336-63.3301 21.0205-62.5488Q22.6074-61.7676 24.2676-61.7676Q26.9043-61.7676 28.7598-63.3789Q30.6152-64.9902 31.0303-67.4561Q31.4453-69.9219 29.6875-72.4121Q27.4902-75.5371 26.123-79.4922Q24.7559-83.4473 24.7559-87.5977Q24.7559-94.5312 28.1494-100.195Q31.543-105.859 37.2314-109.204Q42.9199-112.549 49.8535-112.549Q55.957-112.549 61.2061-109.79Q66.4551-107.031 69.9463-102.246Q73.4375-97.4609 74.3652-91.3574Q74.4141-91.0645 74.4629-90.8203Q74.5117-90.5762 74.5117-90.2344Q75-87.6953 76.5381-86.1084Q78.0762-84.5215 80.8594-84.5215Q83.9844-84.5215 85.8398-86.3525Q87.6953-88.1836 87.793-91.0156Q87.8418-91.4551 87.7686-92.3096Q87.6953-93.1641 87.5488-93.8477Q86.4258-100.879 83.0566-106.763Q79.6875-112.646 74.585-116.992Q69.4824-121.338 63.1836-123.706Q56.8848-126.074 49.9023-126.074Z"/>
   <path class="hierarchical-1:primary SFSymbolsPreview212121" d="M115.381 24.2676Q129.541 19.1406 137.5 9.79004Q145.459 0.439453 146.875-12.2314Q148.291-24.9023 142.773-39.9414L138.184-52.6367Q136.133-58.3008 132.886-61.9873Q129.639-65.6738 125.903-67.0654Q122.168-68.457 118.652-67.1387Q115.479-66.0156 116.602-62.9395L118.506-57.666Q119.043-56.2012 118.75-55.2246Q118.457-54.248 117.578-53.9062Q116.65-53.6133 115.796-54.126Q114.941-54.6387 114.404-56.2012L113.135-59.5703Q111.23-64.8438 106.909-67.041Q102.588-69.2383 97.8516-67.5293Q93.0664-65.7715 94.6289-61.4746L97.2656-54.248Q97.8027-52.7344 97.5342-51.7822Q97.2656-50.8301 96.3867-50.5371Q95.459-50.1953 94.5801-50.708Q93.7012-51.2207 93.1152-52.7832L90.7227-59.4238Q88.6719-65.0879 84.5215-67.1143Q80.3711-69.1406 75.5371-67.3828Q73.2422-66.5527 72.3877-64.9658Q71.5332-63.3789 72.3145-61.3281L77.5391-47.0703Q78.0762-45.6055 77.7588-44.6289Q77.4414-43.6523 76.6113-43.3105Q75.7324-43.0176 74.8535-43.5303Q73.9746-44.043 73.4375-45.6055L56.6406-91.6992Q55.1758-95.6055 51.9531-97.2412Q48.7305-98.877 45.2148-97.6074Q41.5527-96.2891 40.1123-92.9443Q38.6719-89.5996 40.0879-85.6934L64.0625-19.8242Q64.4043-18.8965 64.1602-18.2373Q63.916-17.5781 63.3301-17.334Q62.793-17.1875 62.207-17.3828Q61.6211-17.5781 60.9863-18.2617L45.2148-35.3027Q43.1152-37.5977 40.5518-38.5498Q37.9883-39.502 34.9121-38.3789Q31.0547-36.9629 29.4678-33.7402Q27.8809-30.5176 29.1992-26.9043Q29.5898-25.7324 30.1758-24.707Q30.7617-23.6816 31.3965-22.9492L54.1016 4.78516Q63.2324 16.0156 73.2178 21.6309Q83.2031 27.2461 93.7744 27.7588Q104.346 28.2715 115.381 24.2676Z"/>
  </g>
  <g id="Bold-L" transform="matrix(1 0 0 1 2263.88 1556)">
   <path class="hierarchical-0:secondary SFSymbolsPreview4D4D4D" d="M47.0215-121.631Q39.5996-121.631 33.1299-118.848Q26.6602-116.064 21.7529-111.182Q16.8457-106.299 14.0625-99.8535Q11.2793-93.4082 11.2793-86.0352Q11.2793-80.4199 13.1104-74.7803Q14.9414-69.1406 18.1152-64.7949Q19.1895-63.3301 20.5078-62.6709Q21.8262-62.0117 23.1934-62.0117Q25.3418-62.0117 26.9287-63.3789Q28.5156-64.7461 28.8574-66.8213Q29.1992-68.8965 27.6367-71.0449Q25.3418-74.0723 23.9746-77.9785Q22.6074-81.8848 22.6074-86.0352Q22.6074-92.7734 25.9033-98.2666Q29.1992-103.76 34.7168-107.031Q40.2344-110.303 46.9727-110.303Q53.125-110.303 58.3496-107.422Q63.5742-104.541 66.9434-99.6094Q70.3125-94.6777 70.8984-88.4766Q70.9473-88.2324 70.9717-87.9639Q70.9961-87.6953 70.9961-87.3535Q71.3379-85.0586 72.7051-83.7158Q74.0723-82.373 76.3672-82.373Q78.8574-82.373 80.4688-83.8623Q82.0801-85.3516 82.1289-87.6953Q82.1777-88.1348 82.1289-88.8184Q82.0801-89.502 82.0312-90.1367Q81.2988-96.875 78.2715-102.612Q75.2441-108.35 70.4834-112.622Q65.7227-116.895 59.7168-119.263Q53.7109-121.631 47.0215-121.631Z"/>
   <path class="hierarchical-1:primary SFSymbolsPreview212121" d="M110.498 22.8027Q124.17 17.8223 131.787 8.8623Q139.404-0.0976562 140.698-12.2803Q141.992-24.4629 136.67-39.1113L132.275-51.123Q130.273-56.6406 127.173-60.1562Q124.072-63.6719 120.532-64.9658Q116.992-66.2598 113.721-65.0391Q110.938-64.0625 111.914-61.377L113.867-56.1523Q114.404-54.5898 114.062-53.5889Q113.721-52.5879 112.842-52.2461Q111.865-51.9531 110.938-52.4658Q110.01-52.9785 109.473-54.541L108.203-58.0078Q106.348-63.0371 102.271-65.0879Q98.1934-67.1387 93.75-65.5273Q89.4043-63.9648 90.8203-60.0586L93.4082-52.9297Q93.9941-51.3672 93.6523-50.3662Q93.3105-49.3652 92.4316-49.0723Q91.4551-48.6816 90.5273-49.2188Q89.5996-49.7559 89.0137-51.3184L86.6211-57.959Q84.6191-63.4277 80.6885-65.2832Q76.7578-67.1387 72.2656-65.4785Q70.166-64.7461 69.4092-63.3301Q68.6523-61.9141 69.3359-60.0586L74.4629-45.9961Q75-44.4824 74.6582-43.4814Q74.3164-42.4805 73.4375-42.1387Q72.4609-41.7969 71.5576-42.334Q70.6543-42.8711 70.0684-44.4336L53.5156-89.8926Q52.1484-93.6035 49.1455-95.1172Q46.1426-96.6309 42.9199-95.4102Q39.502-94.1895 38.1592-91.1133Q36.8164-88.0371 38.1348-84.2773L61.8652-19.1406Q62.2559-18.1152 61.9385-17.4072Q61.6211-16.6992 60.9863-16.4551Q60.4004-16.2598 59.7412-16.4795Q59.082-16.6992 58.3496-17.4805L42.4805-34.5215Q40.4785-36.7188 38.1592-37.5Q35.8398-38.2812 33.1543-37.3047Q29.5898-35.9863 28.1738-33.0322Q26.7578-30.0781 27.9297-26.8555Q28.3203-25.7324 28.8818-24.8047Q29.4434-23.877 30.0293-23.1445L51.8555 3.80859Q60.5957 14.6484 70.2148 20.0684Q79.834 25.4883 89.9658 26.0254Q100.098 26.5625 110.498 22.8027Z"/>
  </g>
  <g id="Semibold-L" transform="matrix(1 0 0 1 1969.32 1556)">
   <path class="hierarchical-0:secondary SFSymbolsPreview4D4D4D" d="M44.9707-118.506Q37.9883-118.506 31.8848-115.894Q25.7812-113.281 21.1426-108.667Q16.5039-104.053 13.8916-97.9736Q11.2793-91.8945 11.2793-84.9609Q11.2793-79.4434 13.0859-74.0723Q14.8926-68.7012 18.0664-64.502Q18.9941-63.2812 20.1172-62.7441Q21.2402-62.207 22.4121-62.207Q24.2676-62.207 25.6592-63.4033Q27.0508-64.5996 27.3438-66.4062Q27.6367-68.2129 26.2207-70.0684Q23.8281-73.0957 22.4609-76.9287Q21.0938-80.7617 21.0938-84.9609Q21.0938-91.5527 24.3164-96.9482Q27.5391-102.344 32.9346-105.518Q38.3301-108.691 44.9707-108.691Q51.1719-108.691 56.3965-105.762Q61.6211-102.832 64.8682-97.8027Q68.1152-92.7734 68.5059-86.5234Q68.5059-86.2305 68.5303-85.9619Q68.5547-85.6934 68.5547-85.3027Q68.7988-83.2031 70.0684-82.0312Q71.3379-80.8594 73.2422-80.8594Q75.3418-80.8594 76.7578-82.1289Q78.1738-83.3984 78.2227-85.4004Q78.2715-85.791 78.2471-86.377Q78.2227-86.9629 78.1738-87.5488Q77.7344-94.1406 74.9512-99.7559Q72.168-105.371 67.627-109.595Q63.0859-113.818 57.2998-116.162Q51.5137-118.506 44.9707-118.506Z"/>
   <path class="hierarchical-1:primary SFSymbolsPreview212121" d="M107.129 21.7285Q120.41 16.8945 127.808 8.22754Q135.205-0.439453 136.401-12.3047Q137.598-24.1699 132.422-38.4766L128.174-50.0977Q126.221-55.4688 123.218-58.8623Q120.215-62.2559 116.821-63.4766Q113.428-64.6973 110.303-63.5742Q107.812-62.6953 108.691-60.3027L110.596-55.0293Q111.133-53.4668 110.767-52.4658Q110.4-51.4648 109.521-51.0742Q108.496-50.7812 107.544-51.2939Q106.592-51.8066 106.055-53.418L104.736-56.8848Q102.979-61.7188 99.0723-63.6963Q95.166-65.6738 90.8691-64.1113Q86.8652-62.6465 88.1348-59.082L90.7227-51.9531Q91.3086-50.3906 90.9424-49.3652Q90.5762-48.3398 89.6484-48.0469Q88.6719-47.6562 87.7197-48.1934Q86.7676-48.7305 86.1816-50.3418L83.7402-56.8848Q81.8359-62.2559 78.0518-63.9893Q74.2676-65.7227 69.9707-64.1602Q68.0176-63.4766 67.3096-62.1826Q66.6016-60.8887 67.2363-59.1797L72.3145-45.2637Q72.9004-43.7012 72.5342-42.6758Q72.168-41.6504 71.2402-41.3086Q70.2148-40.9668 69.2627-41.5039Q68.3105-42.041 67.7734-43.6035L51.3672-88.623Q50.0488-92.1875 47.2168-93.6035Q44.3848-95.0195 41.3086-93.8965Q38.0371-92.7246 36.7676-89.8193Q35.498-86.9141 36.7676-83.3008L60.3516-18.6523Q60.7422-17.5781 60.4004-16.8213Q60.0586-16.0645 59.3262-15.8203Q58.6914-15.5762 58.0078-15.8203Q57.3242-16.0645 56.543-16.8945L40.5762-33.9844Q38.6719-36.084 36.499-36.7676Q34.3262-37.4512 31.9336-36.5723Q28.5645-35.3027 27.2705-32.5439Q25.9766-29.7852 27.0508-26.8066Q27.4414-25.7324 27.9541-24.8779Q28.4668-24.0234 29.0527-23.291L50.293 3.07617Q58.7891 13.6719 68.1396 18.9697Q77.4902 24.2676 87.3047 24.8291Q97.1191 25.3906 107.129 21.7285Z"/>
  </g>
  <g id="Medium-L" transform="matrix(1 0 0 1 1674.24 1556)">
   <path class="hierarchical-0:secondary SFSymbolsPreview4D4D4D" d="M43.457-116.162Q36.7676-116.162 30.957-113.672Q25.1465-111.182 20.7031-106.787Q16.2598-102.393 13.7695-96.582Q11.2793-90.7715 11.2793-84.1309Q11.2793-78.7109 13.0615-73.5596Q14.8438-68.4082 18.0176-64.3066Q18.8477-63.2812 19.8242-62.793Q20.8008-62.3047 21.8262-62.3047Q23.4863-62.3047 24.7314-63.3789Q25.9766-64.4531 26.1963-66.0645Q26.416-67.6758 25.1465-69.3359Q22.7051-72.3145 21.3135-76.123Q19.9219-79.9316 19.9219-84.1309Q19.9219-90.625 23.0957-95.9229Q26.2695-101.221 31.5918-104.37Q36.9141-107.52 43.4082-107.52Q49.707-107.52 54.9072-104.517Q60.1074-101.514 63.2812-96.4111Q66.4551-91.3086 66.6992-85.0098Q66.6992-84.7168 66.6992-84.4482Q66.6992-84.1797 66.6992-83.7891Q66.8457-81.7871 68.042-80.7617Q69.2383-79.7363 70.8496-79.7363Q72.6562-79.7363 73.9258-80.835Q75.1953-81.9336 75.293-83.6914Q75.3418-84.0332 75.3174-84.5215Q75.293-85.0098 75.293-85.5957Q75-92.041 72.4121-97.583Q69.8242-103.125 65.4785-107.3Q61.1328-111.475 55.4688-113.818Q49.8047-116.162 43.457-116.162Z"/>
   <path class="hierarchical-1:primary SFSymbolsPreview212121" d="M104.59 20.9473Q117.578 16.2109 124.805 7.73926Q132.031-0.732422 133.179-12.3291Q134.326-23.9258 129.199-38.0371L125.098-49.3164Q123.145-54.5898 120.215-57.8857Q117.285-61.1816 113.989-62.3779Q110.693-63.5742 107.715-62.5Q105.42-61.6699 106.25-59.5215L108.154-54.248Q108.691-52.6367 108.301-51.6113Q107.91-50.5859 107.031-50.1953Q105.957-49.9023 105.005-50.415Q104.053-50.9277 103.467-52.5391L102.148-56.0059Q100.439-60.791 96.6553-62.6953Q92.8711-64.5996 88.7207-63.0371Q84.9121-61.7188 86.1328-58.3496L88.7207-51.2695Q89.3066-49.6582 88.916-48.6328Q88.5254-47.6074 87.5977-47.2656Q86.5723-46.875 85.5957-47.4365Q84.6191-47.998 84.0332-49.5605L81.5918-56.1035Q79.7363-61.377 76.0498-63.0127Q72.3633-64.6484 68.2617-63.1836Q66.4062-62.5 65.7471-61.3037Q65.0879-60.1074 65.6738-58.4961L70.7031-44.6777Q71.2891-43.1152 70.8984-42.0654Q70.5078-41.0156 69.5801-40.7227Q68.5059-40.332 67.5537-40.8691Q66.6016-41.4062 66.0156-42.9688L49.7559-87.6465Q48.4375-91.1133 45.7275-92.4805Q43.0176-93.8477 40.0879-92.7734Q36.9629-91.6016 35.7422-88.8184Q34.5215-86.0352 35.7422-82.5684L59.1797-18.3105Q59.5703-17.1875 59.2041-16.3818Q58.8379-15.5762 58.1055-15.3809Q57.4707-15.0879 56.7383-15.332Q56.0059-15.5762 55.127-16.5039L39.1602-33.5938Q37.2559-35.5957 35.2295-36.1816Q33.2031-36.7676 31.0059-35.9863Q27.7832-34.8145 26.5869-32.1777Q25.3906-29.541 26.416-26.7578Q26.7578-25.7324 27.2705-24.9023Q27.7832-24.0723 28.3203-23.3887L49.0723 2.58789Q57.373 12.9395 66.5283 18.1396Q75.6836 23.3398 85.3027 23.9014Q94.9219 24.4629 104.59 20.9473Z"/>
  </g>
  <g id="Regular-L" transform="matrix(1 0 0 1 1379.65 1556)">
   <path class="hierarchical-0:secondary SFSymbolsPreview4D4D4D" d="M41.4551-113.135Q35.2051-113.135 29.7363-110.791Q24.2676-108.447 20.1172-104.321Q15.9668-100.195 13.623-94.751Q11.2793-89.3066 11.2793-83.0566Q11.2793-77.7344 13.0371-72.876Q14.7949-68.0176 17.9688-64.0625Q18.6523-63.2324 19.458-62.8662Q20.2637-62.5 21.0938-62.5Q22.4121-62.5 23.4619-63.4033Q24.5117-64.3066 24.707-65.6494Q24.9023-66.9922 23.7793-68.3594Q21.2402-71.3379 19.8486-75.0977Q18.457-78.8574 18.457-83.0566Q18.457-89.4043 21.5576-94.6045Q24.6582-99.8047 29.8584-102.881Q35.0586-105.957 41.4551-105.957Q47.7539-105.957 52.9541-102.881Q58.1543-99.8047 61.2305-94.6045Q64.3066-89.4043 64.3066-83.0566Q64.3066-82.7637 64.3066-82.4951Q64.3066-82.2266 64.3066-81.7871Q64.3555-79.9805 65.4297-79.126Q66.5039-78.2715 67.7734-78.2715Q69.1406-78.2715 70.2393-79.126Q71.3379-79.9805 71.4355-81.4453Q71.4844-81.7383 71.4844-82.1289Q71.4844-82.5195 71.4844-83.0566Q71.4844-89.3066 69.1406-94.751Q66.7969-100.195 62.6709-104.321Q58.5449-108.447 53.1006-110.791Q47.6562-113.135 41.4551-113.135Z"/>
   <path class="hierarchical-1:primary SFSymbolsPreview212121" d="M101.27 19.9219Q113.916 15.2832 120.898 7.10449Q127.881-1.07422 128.955-12.3535Q130.029-23.6328 125-37.4512L121.045-48.291Q119.141-53.4668 116.309-56.6406Q113.477-59.8145 110.327-60.9375Q107.178-62.0605 104.346-61.0352Q102.344-60.3027 103.027-58.4473L104.98-53.1738Q105.518-51.5625 105.103-50.5127Q104.688-49.4629 103.76-49.0723Q102.686-48.7305 101.685-49.2676Q100.684-49.8047 100.098-51.416L98.7793-54.9316Q97.1191-59.5215 93.4814-61.3281Q89.8438-63.1348 85.8887-61.6699Q82.4219-60.4492 83.4961-57.4219L86.084-50.3418Q86.6699-48.7305 86.2549-47.6562Q85.8398-46.582 84.8633-46.2402Q83.8379-45.8496 82.8125-46.4111Q81.7871-46.9727 81.2012-48.584L78.8086-55.0781Q76.9531-60.2539 73.4131-61.7676Q69.873-63.2812 66.0156-61.9141Q64.3066-61.2793 63.6963-60.1807Q63.0859-59.082 63.623-57.6172L68.6035-43.9453Q69.1895-42.3828 68.7744-41.3086Q68.3594-40.2344 67.3828-39.8926Q66.3086-39.502 65.3076-40.0391Q64.3066-40.5762 63.7207-42.1875L47.6074-86.4258Q46.3867-89.7461 43.8232-91.0156Q41.2598-92.2852 38.4766-91.2598Q35.5469-90.1855 34.3994-87.5732Q33.252-84.9609 34.4238-81.6406L57.666-17.8223Q58.1055-16.6504 57.6904-15.8203Q57.2754-14.9902 56.4941-14.7461Q55.8105-14.4531 55.0293-14.7217Q54.248-14.9902 53.3203-15.9668L37.2559-33.0566Q35.4492-35.0098 33.5938-35.4736Q31.7383-35.9375 29.834-35.2539Q26.7578-34.1309 25.6836-31.6895Q24.6094-29.248 25.5371-26.709Q25.8789-25.7324 26.3672-24.9756Q26.8555-24.2188 27.3438-23.5352L47.5586 1.9043Q55.5664 12.0117 64.4775 17.0654Q73.3887 22.1191 82.6904 22.7051Q91.9922 23.291 101.27 19.9219Z"/>
  </g>
  <g id="Light-L" transform="matrix(1 0 0 1 1085.16 1556)">
   <path class="hierarchical-0:secondary SFSymbolsPreview4D4D4D" d="M39.5996-110.205Q33.7402-110.205 28.6133-107.983Q23.4863-105.762 19.5801-101.904Q15.6738-98.0469 13.4766-92.9443Q11.2793-87.8418 11.2793-81.9824Q11.2793-77.002 12.915-72.4609Q14.5508-67.9199 17.5293-64.1602Q18.1152-63.5254 18.7744-63.208Q19.4336-62.8906 20.0684-62.8906Q21.1426-62.8906 21.9727-63.5986Q22.8027-64.3066 22.9492-65.3809Q23.0957-66.4551 22.2168-67.5293Q19.7266-70.459 18.3594-74.1699Q16.9922-77.8809 16.9922-81.9824Q16.9922-88.2324 20.0195-93.335Q23.0469-98.4375 28.1738-101.465Q33.3008-104.492 39.5996-104.492Q45.8008-104.492 50.9033-101.465Q56.0059-98.4375 59.0332-93.3105Q62.0605-88.1836 62.0605-81.9824Q62.0605-81.6895 62.0605-81.4453Q62.0605-81.2012 62.0605-80.8594Q62.0605-79.4434 62.915-78.7598Q63.7695-78.0762 64.7949-78.0762Q65.9668-78.0762 66.7969-78.8086Q67.627-79.541 67.6758-80.7129Q67.7246-80.9082 67.7246-81.2256Q67.7246-81.543 67.7246-81.9824Q67.7246-87.8418 65.5273-92.9443Q63.3301-98.0469 59.4727-101.904Q55.6152-105.762 50.5127-107.983Q45.4102-110.205 39.5996-110.205Z"/>
   <path class="hierarchical-1:primary SFSymbolsPreview212121" d="M97.5098 19.1895Q109.912 14.6484 116.724 6.78711Q123.535-1.07422 124.536-12.085Q125.537-23.0957 120.459-37.0117L116.797-47.1191Q114.893-52.2949 112.085-55.4199Q109.277-58.5449 106.128-59.6436Q102.979-60.7422 100.146-59.7168Q98.1445-58.9844 98.8281-57.1289L100.879-51.5625Q101.318-50.1953 100.977-49.292Q100.635-48.3887 99.8047-48.0469Q98.9258-47.7539 98.0469-48.2178Q97.168-48.6816 96.6797-50.0488L95.2637-53.8574Q93.6035-58.4473 89.9658-60.2539Q86.3281-62.0605 82.373-60.5957Q78.9062-59.375 79.9805-56.3477L82.7148-48.9746Q83.1543-47.6074 82.8125-46.6797Q82.4707-45.752 81.6406-45.459Q80.7617-45.1172 79.8828-45.6299Q79.0039-46.1426 78.5156-47.4609L76.0254-54.2969Q74.1211-59.4238 70.5811-60.9619Q67.041-62.5 63.1836-61.084Q61.4746-60.4492 60.8643-59.3506Q60.2539-58.252 60.791-56.7871L65.918-42.8223Q66.4062-41.5527 66.04-40.625Q65.6738-39.6973 64.8438-39.3555Q63.916-39.0137 63.0615-39.502Q62.207-39.9902 61.7188-41.3574L45.9473-84.668Q44.7266-87.9395 42.2119-89.1846Q39.6973-90.4297 36.9141-89.4043Q34.082-88.3789 32.9102-85.8154Q31.7383-83.252 32.9102-79.9316L55.1758-18.7988Q55.6152-17.7246 55.2002-16.9434Q54.7852-16.1621 54.0039-15.918Q53.3691-15.625 52.6367-15.8447Q51.9043-16.0645 51.0742-16.9922L35.2051-33.6914Q33.3496-35.6445 31.5186-36.084Q29.6875-36.5234 27.8809-35.8887Q24.7559-34.7656 23.7793-32.373Q22.8027-29.9805 23.7305-27.3926Q24.0723-26.4648 24.5361-25.708Q25-24.9512 25.5371-24.2676L45.9961 1.66016Q53.418 11.084 61.9385 16.04Q70.459 20.9961 79.4678 21.7285Q88.4766 22.4609 97.5098 19.1895Z"/>
  </g>
  <g id="Thin-L" transform="matrix(1 0 0 1 791.359 1556)">
   <path class="hierarchical-0:secondary SFSymbolsPreview4D4D4D" d="M37.1094-106.299Q31.7383-106.299 27.0752-104.272Q22.4121-102.246 18.8477-98.7061Q15.2832-95.166 13.2812-90.5029Q11.2793-85.8398 11.2793-80.5176Q11.2793-76.0254 12.7441-71.875Q14.209-67.7246 16.9922-64.3555Q17.3828-63.8672 17.8467-63.6475Q18.3105-63.4277 18.7012-63.4277Q19.4336-63.4277 19.9707-63.8916Q20.5078-64.3555 20.6055-65.0391Q20.7031-65.7227 20.1172-66.4062Q17.6758-69.2871 16.333-72.9248Q14.9902-76.5625 14.9902-80.5176Q14.9902-86.6211 17.9688-91.6016Q20.9473-96.582 25.9521-99.5605Q30.957-102.539 37.1094-102.539Q43.1641-102.539 48.1445-99.5605Q53.125-96.582 56.0791-91.5771Q59.0332-86.5723 59.0332-80.5176Q59.0332-80.2246 59.0332-80.0537Q59.0332-79.8828 59.0332-79.6387Q59.0332-78.6621 59.5947-78.2471Q60.1562-77.832 60.791-77.832Q61.7188-77.832 62.2314-78.3691Q62.7441-78.9062 62.7441-79.6875Q62.7441-79.834 62.7441-80.0293Q62.7441-80.2246 62.7441-80.5176Q62.7441-85.8398 60.7666-90.5029Q58.7891-95.166 55.249-98.7061Q51.709-102.246 47.0703-104.272Q42.4316-106.299 37.1094-106.299Z"/>
   <path class="hierarchical-1:primary SFSymbolsPreview212121" d="M92.4805 18.2129Q104.59 13.8184 111.206 6.37207Q117.822-1.07422 118.701-11.7432Q119.58-22.4121 114.502-36.377L111.133-45.6055Q109.277-50.6836 106.47-53.7842Q103.662-56.8848 100.537-57.9346Q97.4121-58.9844 94.5801-57.959Q92.627-57.2266 93.3105-55.3711L95.459-49.4629Q95.8008-48.4375 95.5322-47.7051Q95.2637-46.9727 94.6289-46.7285Q93.9453-46.4844 93.2617-46.8506Q92.5781-47.2168 92.1875-48.2422L90.6738-52.4414Q89.0137-57.0801 85.376-58.8867Q81.7383-60.6934 77.7344-59.2285Q74.2676-57.959 75.3906-54.9316L78.2227-47.168Q78.5645-46.1426 78.2715-45.4102Q77.9785-44.6777 77.3438-44.4336Q76.6602-44.1895 75.9766-44.6045Q75.293-45.0195 74.9512-45.9961L72.3145-53.2227Q70.4102-58.3496 66.8701-59.8877Q63.3301-61.4258 59.4727-60.0098Q57.7637-59.375 57.1533-58.2764Q56.543-57.1777 57.0801-55.7129L62.3047-41.3574Q62.6953-40.4297 62.4268-39.6729Q62.1582-38.916 61.4746-38.6719Q60.791-38.4277 60.1074-38.8184Q59.4238-39.209 59.0332-40.2344L43.7012-82.3242Q42.5293-85.5957 40.0879-86.8164Q37.6465-88.0371 34.8633-87.0117Q32.1289-85.9863 30.957-83.4717Q29.7852-80.957 30.957-77.6855L51.9531-20.0684Q52.2461-19.0918 51.8555-18.3838Q51.4648-17.6758 50.7324-17.4316Q50.1465-17.1875 49.4629-17.3584Q48.7793-17.5293 48.0469-18.3105L32.4219-34.5215Q30.6152-36.4746 28.7842-36.9141Q26.9531-37.3535 25.2441-36.7188Q22.168-35.5957 21.2891-33.252Q20.4102-30.9082 21.3379-28.2715Q21.6797-27.4414 22.1191-26.709Q22.5586-25.9766 23.1445-25.2441L43.8965 1.31836Q50.5859 9.91211 58.5938 14.7217Q66.6016 19.5312 75.2441 20.4346Q83.8867 21.3379 92.4805 18.2129Z"/>
  </g>
  <g id="Ultralight-L" transform="matrix(1 0 0 1 496.161 1556)">
   <path class="hierarchical-0:secondary SFSymbolsPreview4D4D4D" d="M35.8398-104.297Q30.7617-104.297 26.3184-102.368Q21.875-100.439 18.4814-97.0703Q15.0879-93.7012 13.1836-89.2822Q11.2793-84.8633 11.2793-79.7852Q11.2793-75.5371 12.6465-71.6064Q14.0137-67.6758 16.6992-64.4043Q17.041-64.0625 17.3828-63.8916Q17.7246-63.7207 18.0176-63.7207Q18.5547-63.7207 18.9453-64.0381Q19.3359-64.3555 19.4092-64.8682Q19.4824-65.3809 19.043-65.8691Q16.6504-68.7012 15.332-72.3145Q14.0137-75.9277 14.0137-79.7852Q14.0137-85.8398 16.9434-90.7471Q19.873-95.6543 24.8291-98.6084Q29.7852-101.562 35.8398-101.562Q41.8457-101.562 46.7529-98.6084Q51.6602-95.6543 54.5898-90.7227Q57.5195-85.791 57.5195-79.7852Q57.5195-79.4922 57.5195-79.3457Q57.5195-79.1992 57.5195-79.0039Q57.5195-78.3203 57.9346-78.0029Q58.3496-77.6855 58.7891-77.6855Q59.5703-77.6855 59.9121-78.1494Q60.2539-78.6133 60.2051-79.1992Q60.2051-79.2969 60.2051-79.4434Q60.2051-79.5898 60.2051-79.7852Q60.2051-84.8633 58.3252-89.2822Q56.4453-93.7012 53.0762-97.0703Q49.707-100.439 45.2881-102.368Q40.8691-104.297 35.8398-104.297Z"/>
   <path class="hierarchical-1:primary SFSymbolsPreview212121" d="M89.9414 17.7246Q101.904 13.3789 108.398 6.15234Q114.893-1.07422 115.723-11.5479Q116.553-22.0215 111.426-36.084L108.252-44.8242Q106.445-49.9023 103.638-52.9541Q100.83-56.0059 97.6807-57.0557Q94.5312-58.1055 91.6992-57.0801Q89.7461-56.3477 90.4297-54.4922L92.6758-48.3398Q92.9688-47.5098 92.749-46.875Q92.5293-46.2402 91.9434-46.0449Q91.3574-45.8008 90.7715-46.1426Q90.1855-46.4844 89.8926-47.3145L88.2812-51.709Q86.6211-56.3477 82.9834-58.1543Q79.3457-59.9609 75.3418-58.4961Q71.875-57.2266 72.998-54.1992L75.9277-46.2402Q76.1719-45.4102 75.9521-44.7754Q75.7324-44.1406 75.1465-43.9453Q74.5605-43.7012 73.9746-44.0674Q73.3887-44.4336 73.0957-45.2148L70.4102-52.6855Q68.5059-57.8125 64.9658-59.3506Q61.4258-60.8887 57.5684-59.4727Q55.8594-58.8379 55.249-57.7393Q54.6387-56.6406 55.1758-55.1758L60.498-40.625Q60.791-39.8438 60.5469-39.209Q60.3027-38.5742 59.7656-38.2812Q59.1797-38.0859 58.5938-38.4521Q58.0078-38.8184 57.666-39.6484L42.5781-81.1035Q41.4062-84.375 38.9893-85.5713Q36.5723-86.7676 33.7891-85.7422Q31.1523-84.7656 29.9561-82.2754Q28.7598-79.7852 29.9316-76.5137L50.2441-20.752Q50.5859-19.8242 50.1953-19.165Q49.8047-18.5059 49.0234-18.2129Q48.4863-18.0176 47.8516-18.1396Q47.2168-18.2617 46.5332-18.9941L31.0547-34.9609Q29.1992-36.9141 27.3926-37.3291Q25.5859-37.7441 23.9258-37.1582Q20.8008-36.0352 19.9707-33.7158Q19.1406-31.3965 20.1172-28.7598Q20.4102-27.9785 20.874-27.2217Q21.3379-26.4648 21.875-25.7324L42.8223 1.12305Q49.1699 9.27734 56.9092 14.0381Q64.6484 18.7988 73.0713 19.7998Q81.4941 20.8008 89.9414 17.7246Z"/>
  </g>
  <g id="Black-M" transform="matrix(1 0 0 1 2868.24 1126)">
   <path class="hierarchical-0:secondary SFSymbolsPreview4D4D4D" d="M42.2852-111.133Q35.3516-111.133 29.2725-108.545Q23.1934-105.957 18.5791-101.367Q13.9648-96.7773 11.3525-90.7227Q8.74023-84.668 8.74023-77.7832Q8.74023-73.1934 10.1807-67.9688Q11.6211-62.7441 14.0625-58.9844Q15.2832-57.1777 16.8701-56.3721Q18.457-55.5664 20.0684-55.5664Q22.6562-55.5664 24.4629-57.1045Q26.2695-58.6426 26.6602-61.0107Q27.0508-63.3789 25.4395-65.8203Q23.9258-68.2617 22.9004-71.4111Q21.875-74.5605 21.875-77.7832Q21.875-83.3496 24.6338-87.9395Q27.3926-92.5293 32.0312-95.2393Q36.6699-97.9492 42.2363-97.9492Q46.8262-97.9492 50.8789-95.9961Q54.9316-94.043 57.8369-90.5762Q60.7422-87.1094 61.9141-82.5195Q61.9629-82.373 62.0117-82.1777Q62.0605-81.9824 62.1094-81.8359Q62.7441-79.6387 64.0869-78.0762Q65.4297-76.5137 68.2129-76.5137Q71.4844-76.5137 73.2422-78.3936Q75-80.2734 75-83.0078Q75-83.4473 74.9268-84.3018Q74.8535-85.1562 74.6582-85.6934Q72.8027-93.3594 67.9932-99.0723Q63.1836-104.785 56.4941-107.959Q49.8047-111.133 42.2852-111.133Z"/>
   <path class="hierarchical-1:primary SFSymbolsPreview212121" d="M95.2148 12.8418Q106.934 8.59375 113.525 0.878906Q120.117-6.83594 121.338-17.2607Q122.559-27.6855 118.066-39.9902L114.258-50.4883Q112.598-55.0781 109.888-58.2031Q107.178-61.3281 103.979-62.5244Q100.781-63.7207 97.7051-62.5977Q94.6777-61.5234 95.8008-58.4961L97.3145-54.3457Q97.6562-53.3203 97.5098-52.6611Q97.3633-52.002 96.7773-51.8066Q96.1914-51.6113 95.6299-51.9775Q95.0684-52.3438 94.6777-53.418L93.75-56.1035Q92.0898-60.5469 88.4277-62.4268Q84.7656-64.3066 80.6641-62.8418Q76.3184-61.2305 77.7832-57.2266L79.8828-51.5137Q80.2734-50.4395 80.127-49.8047Q79.9805-49.1699 79.4434-48.9746Q78.7598-48.7305 78.2227-49.0967Q77.6855-49.4629 77.2949-50.5371L75.3418-55.9082Q73.6328-60.5469 70.1416-62.3535Q66.6504-64.1602 62.4023-62.5977Q58.0078-61.0352 59.4727-57.0801L63.623-45.6055Q64.0137-44.5801 63.8672-43.9209Q63.7207-43.2617 63.1836-43.0664Q62.5977-42.8711 62.0361-43.2373Q61.4746-43.6035 61.084-44.6777L47.8516-81.0059Q46.6309-84.375 43.8232-85.8154Q41.0156-87.2559 37.9395-86.1328Q34.7168-84.9609 33.4473-82.0557Q32.1777-79.1504 33.4473-75.7812L52.0508-24.6582Q52.2461-24.0234 52.124-23.6328Q52.002-23.2422 51.6602-23.0957Q50.9766-22.8516 50.3906-23.5352L38.3301-36.6211Q36.5723-38.5742 34.2285-39.5508Q31.8848-40.5273 28.9551-39.502Q25.5371-38.2324 24.0967-35.3516Q22.6562-32.4707 23.877-29.1016Q24.2188-28.0762 24.707-27.1973Q25.1953-26.3184 25.7812-25.6348L44.6777-2.88086Q55.9082 10.6934 68.5547 14.3311Q81.2012 17.9688 95.2148 12.8418Z"/>
  </g>
  <g id="Heavy-M" transform="matrix(1 0 0 1 2573.77 1126)">
   <path class="hierarchical-0:secondary SFSymbolsPreview4D4D4D" d="M40.1367-107.861Q33.6426-107.861 27.9541-105.444Q22.2656-103.027 17.9443-98.7305Q13.623-94.4336 11.1816-88.7695Q8.74023-83.1055 8.74023-76.6113Q8.74023-72.1191 10.1807-67.1875Q11.6211-62.2559 14.0625-58.6426Q15.1855-57.0801 16.5527-56.3965Q17.9199-55.7129 19.3359-55.7129Q21.582-55.7129 23.1934-57.0801Q24.8047-58.4473 25.1221-60.5225Q25.4395-62.5977 23.9746-64.7949Q22.3633-67.1875 21.3135-70.2881Q20.2637-73.3887 20.2637-76.6113Q20.2637-82.0801 22.9492-86.5479Q25.6348-91.0156 30.1514-93.6523Q34.668-96.2891 40.0879-96.2891Q44.7754-96.2891 48.8281-94.2139Q52.8809-92.1387 55.6885-88.5254Q58.4961-84.9121 59.375-80.2734Q59.4238-80.0781 59.4482-79.8828Q59.4727-79.6875 59.5215-79.4922Q60.0098-77.3926 61.2549-76.0254Q62.5-74.6582 64.8926-74.6582Q67.6758-74.6582 69.2627-76.2695Q70.8496-77.8809 70.8496-80.2734Q70.8984-80.7129 70.8252-81.4453Q70.752-82.1777 70.6055-82.666Q69.1895-90.1367 64.7461-95.8008Q60.3027-101.465 53.8818-104.663Q47.4609-107.861 40.1367-107.861Z"/>
   <path class="hierarchical-1:primary SFSymbolsPreview212121" d="M91.748 11.6699Q103.076 7.56836 109.399 0.146484Q115.723-7.27539 116.87-17.334Q118.018-27.3926 113.672-39.3555L110.01-49.4141Q108.398-53.9062 105.811-56.8848Q103.223-59.8633 100.195-60.9619Q97.168-62.0605 94.2871-61.0352Q91.6016-60.0586 92.5781-57.4219L94.0918-53.3203Q94.4824-52.2461 94.2871-51.5137Q94.0918-50.7812 93.457-50.5859Q92.7734-50.3418 92.1387-50.7324Q91.5039-51.123 91.1133-52.2461L90.1855-54.9316Q88.5742-59.1309 85.1318-60.9131Q81.6895-62.6953 77.7832-61.3281Q73.8281-59.8633 75.1465-56.25L77.2461-50.6348Q77.6367-49.4629 77.4414-48.7793Q77.2461-48.0957 76.6602-47.8516Q75.9277-47.6074 75.3174-47.9736Q74.707-48.3398 74.2676-49.5117L72.3633-54.7852Q70.7031-59.2773 67.3828-60.9375Q64.0625-62.5977 60.1074-61.1328Q56.1523-59.7168 57.4707-56.1035L61.5234-44.9219Q61.9141-43.7988 61.7188-43.0664Q61.5234-42.334 60.9375-42.1387Q60.2539-41.8945 59.6191-42.2852Q58.9844-42.6758 58.5938-43.8477L45.5078-79.7852Q44.3359-82.959 41.7236-84.3018Q39.1113-85.6445 36.2305-84.6191Q33.2031-83.4961 32.0312-80.8105Q30.8594-78.125 32.0312-74.9512L50.6348-23.8281Q50.8789-23.1445 50.708-22.6807Q50.5371-22.2168 50.1465-22.0703Q49.3164-21.7773 48.5352-22.6562L36.377-35.791Q34.7168-37.6465 32.5684-38.4766Q30.4199-39.3066 27.832-38.4277Q24.6582-37.2559 23.3643-34.5947Q22.0703-31.9336 23.1445-28.9062Q23.4863-27.9297 23.9502-27.124Q24.4141-26.3184 24.9512-25.6836L43.0176-3.71094Q53.9551 9.57031 66.2109 13.0615Q78.4668 16.5527 91.748 11.6699Z"/>
  </g>
  <g id="Bold-M" transform="matrix(1 0 0 1 2279.55 1126)">
   <path class="hierarchical-0:secondary SFSymbolsPreview4D4D4D" d="M37.7441-104.248Q31.7383-104.248 26.4893-102.002Q21.2402-99.7559 17.2607-95.7764Q13.2812-91.7969 11.0107-86.5723Q8.74023-81.3477 8.74023-75.3418Q8.74023-70.8984 10.1807-66.3086Q11.6211-61.7188 14.1113-58.252Q15.0391-56.9824 16.1865-56.4209Q17.334-55.8594 18.5059-55.8594Q20.4102-55.8594 21.7773-57.0312Q23.1445-58.2031 23.4131-59.9854Q23.6816-61.7676 22.3633-63.623Q20.6543-66.0156 19.5801-69.0674Q18.5059-72.1191 18.5059-75.3418Q18.5059-80.6152 21.0938-84.9609Q23.6816-89.3066 28.0518-91.8701Q32.4219-94.4336 37.6953-94.4336Q42.4805-94.4336 46.5576-92.2363Q50.6348-90.0391 53.2959-86.2793Q55.957-82.5195 56.543-77.7344Q56.543-77.5391 56.5674-77.3193Q56.5918-77.0996 56.6406-76.8555Q56.9824-74.9512 58.1299-73.7793Q59.2773-72.6074 61.2305-72.6074Q63.4277-72.6074 64.8193-73.9258Q66.2109-75.2441 66.2598-77.2461Q66.2598-77.6367 66.2354-78.2227Q66.2109-78.8086 66.1133-79.2969Q65.1855-86.5234 61.1328-92.1387Q57.0801-97.7539 50.9766-101.001Q44.873-104.248 37.7441-104.248Z"/>
   <path class="hierarchical-1:primary SFSymbolsPreview212121" d="M87.9395 10.4004Q98.7793 6.44531 104.81-0.683594Q110.84-7.8125 111.89-17.4561Q112.939-27.0996 108.74-38.623L105.273-48.2422Q103.711-52.5879 101.245-55.3955Q98.7793-58.2031 95.9473-59.2285Q93.1152-60.2539 90.4785-59.3262Q88.1836-58.4961 89.0137-56.25L90.5273-52.1973Q90.918-51.0254 90.6738-50.2441Q90.4297-49.4629 89.6973-49.1699Q88.9648-48.9258 88.2568-49.3408Q87.5488-49.7559 87.1094-50.9766L86.1816-53.6133Q84.668-57.6172 81.4453-59.2529Q78.2227-60.8887 74.6094-59.6191Q71.0938-58.3008 72.2656-55.127L74.2676-49.6094Q74.707-48.3887 74.4629-47.6318Q74.2188-46.875 73.5352-46.582Q72.7539-46.3379 72.0459-46.7285Q71.3379-47.1191 70.8984-48.3887L69.043-53.5156Q67.4316-57.8125 64.3066-59.3262Q61.1816-60.8398 57.5684-59.4727Q54.0527-58.2031 55.2246-55.0781L59.1797-44.1406Q59.6191-42.9199 59.375-42.1387Q59.1309-41.3574 58.4473-41.1133Q57.666-40.8691 56.958-41.2598Q56.25-41.6504 55.8105-42.9199L42.8711-78.4668Q41.7969-81.4453 39.3799-82.666Q36.9629-83.8867 34.3262-82.9102Q31.543-81.9336 30.4688-79.4434Q29.3945-76.9531 30.5176-73.9746L49.0723-22.9492Q49.3652-22.168 49.1455-21.6309Q48.9258-21.0938 48.4375-20.8984Q47.5098-20.5566 46.5332-21.6309L34.2285-34.9121Q32.6172-36.6211 30.7373-37.3047Q28.8574-37.9883 26.6113-37.207Q23.7305-36.1328 22.5586-33.7402Q21.3867-31.3477 22.3633-28.6621Q22.6562-27.7832 23.0957-27.0508Q23.5352-26.3184 24.0234-25.7324L41.2109-4.58984Q51.7578 8.34961 63.5986 11.6455Q75.4395 14.9414 87.9395 10.4004Z"/>
  </g>
  <g id="Semibold-M" transform="matrix(1 0 0 1 1984.58 1126)">
   <path class="hierarchical-0:secondary SFSymbolsPreview4D4D4D" d="M36.0352-101.709Q30.4199-101.709 25.4639-99.585Q20.5078-97.4609 16.748-93.7256Q12.9883-89.9902 10.8643-85.0586Q8.74023-80.127 8.74023-74.4629Q8.74023-70.0195 10.1807-65.6738Q11.6211-61.3281 14.1113-58.0078Q14.9414-56.9336 15.9424-56.4453Q16.9434-55.957 17.9199-55.957Q19.5801-55.957 20.7764-56.9824Q21.9727-58.0078 22.2168-59.5947Q22.4609-61.1816 21.2402-62.793Q19.4336-65.1855 18.3594-68.1885Q17.2852-71.1914 17.2852-74.4629Q17.2852-79.6387 19.7998-83.8623Q22.3145-88.0859 26.5869-90.625Q30.8594-93.1641 36.0352-93.1641Q40.918-93.1641 44.9707-90.8691Q49.0234-88.5742 51.6113-84.6924Q54.1992-80.8105 54.541-75.9766Q54.5898-75.7812 54.5898-75.5615Q54.5898-75.3418 54.6387-75.0488Q54.834-73.1934 55.9082-72.1924Q56.9824-71.1914 58.6914-71.1914Q60.498-71.1914 61.7432-72.3145Q62.9883-73.4375 63.0371-75.1465Q63.0859-75.4883 63.0615-76.001Q63.0371-76.5137 62.9883-76.9531Q62.4023-83.9844 58.6182-89.5996Q54.834-95.2148 48.9502-98.4619Q43.0664-101.709 36.0352-101.709Z"/>
   <path class="hierarchical-1:primary SFSymbolsPreview212121" d="M85.2539 9.47266Q95.8008 5.66406 101.636-1.24512Q107.471-8.1543 108.447-17.5293Q109.424-26.9043 105.322-38.0859L101.953-47.4121Q100.439-51.6602 98.0713-54.3457Q95.7031-57.0312 93.0176-58.0078Q90.332-58.9844 87.8418-58.1055Q85.8398-57.373 86.5234-55.4199L88.0371-51.416Q88.4766-50.1465 88.1836-49.3164Q87.8906-48.4863 87.1094-48.1934Q86.3281-47.9492 85.5469-48.3887Q84.7656-48.8281 84.3262-50.0977L83.3984-52.6855Q81.9824-56.4941 78.9062-58.0811Q75.8301-59.668 72.4121-58.3984Q69.1895-57.2266 70.2148-54.3457L72.2168-48.9258Q72.7051-47.6562 72.4121-46.8262Q72.1191-45.9961 71.3867-45.7031Q70.5566-45.4102 69.7998-45.8496Q69.043-46.2891 68.5547-47.5586L66.6992-52.5879Q65.1855-56.8359 62.1826-58.2275Q59.1797-59.6191 55.8105-58.3496Q52.5879-57.1777 53.6621-54.2969L57.5195-43.5547Q58.0078-42.334 57.7148-41.4795Q57.4219-40.625 56.6895-40.3809Q55.8594-40.0879 55.1025-40.5029Q54.3457-40.918 53.9062-42.2363L41.0156-77.5391Q39.9902-80.3223 37.7197-81.4697Q35.4492-82.6172 33.0078-81.7383Q30.3711-80.8105 29.3701-78.4668Q28.3691-76.123 29.3945-73.3398L47.998-22.3145Q48.291-21.4355 48.0225-20.8496Q47.7539-20.2637 47.2656-20.1172Q46.1914-19.7266 45.1172-20.9473L32.7148-34.2773Q31.2012-35.8887 29.4678-36.4746Q27.7344-37.0605 25.7324-36.3281Q23.0469-35.3516 21.9971-33.1299Q20.9473-30.9082 21.7773-28.5156Q22.0703-27.6367 22.5098-26.9531Q22.9492-26.2695 23.3887-25.7324L39.9414-5.22461Q50.1953 7.51953 61.7432 10.6689Q73.291 13.8184 85.2539 9.47266Z"/>
  </g>
  <g id="Medium-M" transform="matrix(1 0 0 1 1689.18 1126)">
   <path class="hierarchical-0:secondary SFSymbolsPreview4D4D4D" d="M34.8145-99.8047Q29.4434-99.8047 24.707-97.7783Q19.9707-95.752 16.3818-92.1875Q12.793-88.623 10.7666-83.9111Q8.74023-79.1992 8.74023-73.7793Q8.74023-69.3848 10.1807-65.2344Q11.6211-61.084 14.1602-57.7637Q14.8926-56.8359 15.7471-56.4209Q16.6016-56.0059 17.4805-56.0059Q18.9453-56.0059 20.0195-56.9336Q21.0938-57.8613 21.3135-59.3018Q21.5332-60.7422 20.4102-62.1582Q18.5059-64.5508 17.4316-67.5293Q16.3574-70.5078 16.3574-73.7793Q16.3574-78.8574 18.8232-83.0322Q21.2891-87.207 25.4883-89.6973Q29.6875-92.1875 34.7656-92.1875Q39.6973-92.1875 43.7744-89.8438Q47.8516-87.5 50.3418-83.5205Q52.832-79.541 53.0762-74.6094Q53.0762-74.4629 53.0762-74.2188Q53.0762-73.9746 53.0762-73.6816Q53.2715-71.9238 54.2969-71.0205Q55.3223-70.1172 56.7383-70.1172Q58.252-70.1172 59.3994-71.0693Q60.5469-72.0215 60.6445-73.5352Q60.6445-73.877 60.6445-74.3164Q60.6445-74.7559 60.5957-75.1953Q60.2539-82.1289 56.7139-87.6953Q53.1738-93.2617 47.4365-96.5332Q41.6992-99.8047 34.8145-99.8047Z"/>
   <path class="hierarchical-1:primary SFSymbolsPreview212121" d="M83.252 8.78906Q93.5059 5.07812 99.1943-1.68457Q104.883-8.44727 105.835-17.5781Q106.787-26.709 102.783-37.6953L99.4629-46.8262Q97.998-50.9766 95.6787-53.5645Q93.3594-56.1523 90.7959-57.1045Q88.2324-58.0566 85.8398-57.1777Q84.0332-56.4941 84.668-54.7852L86.1328-50.8301Q86.6211-49.5117 86.2793-48.6572Q85.9375-47.8027 85.1562-47.4609Q84.3262-47.2168 83.5205-47.6562Q82.7148-48.0957 82.2266-49.4141L81.2988-52.002Q79.9316-55.7129 76.9531-57.2021Q73.9746-58.6914 70.752-57.5195Q67.7734-56.4453 68.7012-53.7598L70.6543-48.3887Q71.1426-47.0703 70.8252-46.2158Q70.5078-45.3613 69.7754-45.0684Q68.8477-44.7754 68.0664-45.1904Q67.2852-45.6055 66.748-46.9727L64.9902-51.9531Q63.4766-56.0547 60.5713-57.373Q57.666-58.6914 54.4922-57.4707Q51.4648-56.3965 52.4414-53.7598L56.2988-43.1641Q56.7871-41.8457 56.4697-40.9668Q56.1523-40.0879 55.3711-39.8438Q54.4922-39.5508 53.7109-39.9658Q52.9297-40.3809 52.4414-41.748L39.6484-76.8555Q38.6719-79.541 36.499-80.6152Q34.3262-81.6895 32.0312-80.8594Q29.4922-79.9316 28.5645-77.71Q27.6367-75.4883 28.6133-72.8027L47.168-21.8262Q47.4609-20.9473 47.1924-20.3125Q46.9238-19.6777 46.3867-19.4824Q45.2637-19.0918 44.043-20.4102L31.543-33.8379Q30.0781-35.3516 28.4668-35.8643Q26.8555-36.377 25.0488-35.6934Q22.5098-34.7656 21.5332-32.666Q20.5566-30.5664 21.3379-28.3691Q21.6797-27.5391 22.0703-26.9043Q22.4609-26.2695 22.9004-25.7324L39.0137-5.66406Q49.0723 6.83594 60.4004 9.91211Q71.7285 12.9883 83.252 8.78906Z"/>
  </g>
  <g id="Regular-M" transform="matrix(1 0 0 1 1394.18 1126)">
   <path class="hierarchical-0:secondary SFSymbolsPreview4D4D4D" d="M33.1543-97.3145Q28.125-97.3145 23.6816-95.4102Q19.2383-93.5059 15.8936-90.1611Q12.5488-86.8164 10.6445-82.3975Q8.74023-77.9785 8.74023-72.9004Q8.74023-68.5547 10.1807-64.624Q11.6211-60.6934 14.1602-57.5195Q14.7949-56.7871 15.5029-56.4453Q16.2109-56.1035 16.8945-56.1035Q18.1152-56.1035 19.043-56.9092Q19.9707-57.7148 20.1416-58.9355Q20.3125-60.1562 19.2871-61.377Q17.334-63.7207 16.2354-66.6748Q15.1367-69.6289 15.1367-72.9004Q15.1367-77.8809 17.5537-81.958Q19.9707-86.0352 24.0723-88.4766Q28.1738-90.918 33.1543-90.918Q38.1348-90.918 42.2119-88.4766Q46.2891-86.0352 48.7061-81.958Q51.123-77.8809 51.123-72.9004Q51.123-72.7051 51.123-72.4609Q51.123-72.2168 51.123-71.875Q51.1719-70.2148 52.124-69.458Q53.0762-68.7012 54.248-68.7012Q55.3711-68.7012 56.3721-69.458Q57.373-70.2148 57.4707-71.4844Q57.5195-71.7773 57.5195-72.1191Q57.5195-72.4609 57.5195-72.9004Q57.5195-79.6387 54.248-85.1807Q50.9766-90.7227 45.4346-94.0186Q39.8926-97.3145 33.1543-97.3145Z"/>
   <path class="hierarchical-1:primary SFSymbolsPreview212121" d="M80.6152 7.91016Q90.5762 4.29688 96.0693-2.24609Q101.562-8.78906 102.441-17.6514Q103.32-26.5137 99.4141-37.207L96.2402-45.9961Q94.7754-50.0488 92.5537-52.5391Q90.332-55.0293 87.8906-55.9082Q85.4492-56.7871 83.252-56.0059Q81.6895-55.4199 82.2266-53.9551L83.6914-50.0488Q84.1797-48.6816 83.8135-47.7783Q83.4473-46.875 82.6172-46.5332Q81.7383-46.2402 80.8594-46.7041Q79.9805-47.168 79.4922-48.5352L78.5645-51.0742Q77.2461-54.6387 74.4385-56.0547Q71.6309-57.4707 68.5547-56.3477Q65.8691-55.3711 66.6992-53.0273L68.6523-47.7051Q69.1406-46.3379 68.7988-45.4346Q68.457-44.5312 67.627-44.1895Q66.6992-43.8965 65.8447-44.3359Q64.9902-44.7754 64.4531-46.1914L62.6953-51.0742Q61.2305-55.0781 58.4717-56.2744Q55.7129-57.4707 52.7344-56.3477Q50.0488-55.3711 50.9277-53.0273L54.6875-42.627Q55.1758-41.2598 54.834-40.332Q54.4922-39.4043 53.6621-39.1113Q52.7344-38.8184 51.8799-39.2578Q51.0254-39.6973 50.5371-41.1133L37.8418-75.9277Q36.9141-78.4668 34.8877-79.4678Q32.8613-80.4688 30.7129-79.6875Q28.3691-78.8574 27.4902-76.7822Q26.6113-74.707 27.5391-72.168L46.0938-21.1914Q46.4355-20.2637 46.1182-19.5801Q45.8008-18.8965 45.2148-18.7012Q43.9941-18.2617 42.627-19.7266L30.0781-33.2031Q28.6621-34.668 27.2217-35.0586Q25.7812-35.4492 24.2188-34.8633Q21.875-34.0332 20.9961-32.1045Q20.1172-30.1758 20.8008-28.2227Q21.0938-27.4414 21.4844-26.8555Q21.875-26.2695 22.2656-25.7812L37.7441-6.29883Q47.5586 6.00586 58.5938 8.95996Q69.6289 11.9141 80.6152 7.91016Z"/>
  </g>
  <g id="Light-M" transform="matrix(1 0 0 1 1099.47 1126)">
   <path class="hierarchical-0:secondary SFSymbolsPreview4D4D4D" d="M31.4941-94.6289Q26.8066-94.6289 22.6562-92.8711Q18.5059-91.1133 15.4053-87.9883Q12.3047-84.8633 10.5225-80.7617Q8.74023-76.6602 8.74023-71.9238Q8.74023-67.9199 10.0586-64.2578Q11.377-60.5957 13.7695-57.6172Q14.3066-57.0312 14.8682-56.7627Q15.4297-56.4941 15.9668-56.4941Q16.9434-56.4941 17.6758-57.1289Q18.4082-57.7637 18.5547-58.7158Q18.7012-59.668 17.8711-60.6445Q15.9668-62.9395 14.8926-65.8447Q13.8184-68.75 13.8184-71.9238Q13.8184-76.8066 16.1865-80.8105Q18.5547-84.8145 22.583-87.207Q26.6113-89.5996 31.4941-89.5996Q36.377-89.5996 40.3564-87.207Q44.3359-84.8145 46.7041-80.8105Q49.0723-76.8066 49.0723-71.9238Q49.0723-71.7285 49.0723-71.5088Q49.0723-71.2891 49.0723-71.0449Q49.1211-69.7266 49.8779-69.1162Q50.6348-68.5059 51.5625-68.5059Q52.5391-68.5059 53.2959-69.1406Q54.0527-69.7754 54.1016-70.8008Q54.1504-71.0449 54.1504-71.3135Q54.1504-71.582 54.1504-71.9238Q54.1504-78.2227 51.0986-83.374Q48.0469-88.5254 42.8955-91.5771Q37.7441-94.6289 31.4941-94.6289Z"/>
   <path class="hierarchical-1:primary SFSymbolsPreview212121" d="M77.2461 7.27539Q86.9629 3.71094 92.334-2.53906Q97.7051-8.78906 98.5107-17.4072Q99.3164-26.0254 95.3613-36.8164L92.4316-44.9707Q90.9668-48.9746 88.7695-51.416Q86.5723-53.8574 84.1309-54.7363Q81.6895-55.6152 79.4922-54.834Q77.9297-54.248 78.4668-52.7832L80.0293-48.6328Q80.4199-47.4609 80.1025-46.6797Q79.7852-45.8984 79.1016-45.6055Q78.3691-45.3613 77.6123-45.7764Q76.8555-46.1914 76.4648-47.3145L75.4395-50.0977Q74.1211-53.6621 71.3135-55.0781Q68.5059-56.4941 65.4297-55.3711Q62.7441-54.3945 63.5742-52.0508L65.625-46.4844Q66.0156-45.3613 65.7227-44.5801Q65.4297-43.7988 64.6973-43.5059Q63.9648-43.2617 63.2324-43.6523Q62.5-44.043 62.0117-45.2148L60.1562-50.3418Q58.7402-54.3457 55.9814-55.542Q53.2227-56.7383 50.2441-55.6152Q47.5586-54.6387 48.3887-52.2949L52.2461-41.6504Q52.6855-40.4785 52.3926-39.6973Q52.0996-38.916 51.3672-38.6719Q50.5859-38.3789 49.8535-38.7695Q49.1211-39.1602 48.7305-40.332L36.3281-74.3164Q35.4004-76.8555 33.4229-77.8564Q31.4453-78.8574 29.2969-78.0762Q27.0508-77.2461 26.1475-75.2197Q25.2441-73.1934 26.1719-70.6543L43.8965-22.0703Q44.1895-21.1914 43.8721-20.5566Q43.5547-19.9219 42.9688-19.7266Q41.7969-19.3359 40.5762-20.6543L28.2227-33.7402Q26.8066-35.2539 25.3662-35.6201Q23.9258-35.9863 22.4609-35.4492Q20.0684-34.5703 19.2871-32.6904Q18.5059-30.8105 19.1895-28.8574Q19.4824-28.125 19.8486-27.5391Q20.2148-26.9531 20.6543-26.416L36.3281-6.54297Q45.4102 4.88281 56.0059 8.00781Q66.6016 11.1328 77.2461 7.27539Z"/>
  </g>
  <g id="Thin-M" transform="matrix(1 0 0 1 805.372 1126)">
   <path class="hierarchical-0:secondary SFSymbolsPreview4D4D4D" d="M29.2969-91.1133Q25.0488-91.1133 21.3135-89.5264Q17.5781-87.9395 14.7705-85.1318Q11.9629-82.3242 10.3516-78.6133Q8.74023-74.9023 8.74023-70.6543Q8.74023-67.0898 9.91211-63.7695Q11.084-60.4492 13.2812-57.7637Q13.623-57.373 14.0137-57.1777Q14.4043-56.9824 14.7949-56.9824Q15.4297-56.9824 15.918-57.373Q16.4062-57.7637 16.4795-58.3984Q16.5527-59.0332 16.0156-59.668Q14.1113-61.9141 13.0859-64.7461Q12.0605-67.5781 12.0605-70.6543Q12.0605-75.4395 14.3799-79.3213Q16.6992-83.2031 20.6055-85.5225Q24.5117-87.8418 29.2969-87.8418Q34.0332-87.8418 37.915-85.5225Q41.7969-83.2031 44.1162-79.2969Q46.4355-75.3906 46.4355-70.6543Q46.4355-70.4102 46.4355-70.2637Q46.4355-70.1172 46.4355-69.9219Q46.4355-69.043 46.9238-68.6523Q47.4121-68.2617 47.998-68.2617Q48.7793-68.2617 49.2188-68.75Q49.6582-69.2383 49.707-69.9219Q49.707-70.0684 49.707-70.2393Q49.707-70.4102 49.707-70.6543Q49.707-76.3184 46.9482-80.957Q44.1895-85.5957 39.5508-88.3545Q34.9121-91.1133 29.2969-91.1133Z"/>
   <path class="hierarchical-1:primary SFSymbolsPreview212121" d="M72.7539 6.39648Q82.2266 2.97852 87.4023-2.90527Q92.5781-8.78906 93.2617-17.1143Q93.9453-25.4395 90.0391-36.2793L87.3535-43.6035Q85.9375-47.5586 83.7402-49.9512Q81.543-52.3438 79.126-53.1982Q76.709-54.0527 74.5117-53.2227Q72.9492-52.6855 73.4863-51.2207L75.1465-46.7285Q75.4395-45.8496 75.1953-45.2393Q74.9512-44.6289 74.4141-44.4336Q73.877-44.1895 73.291-44.5068Q72.7051-44.8242 72.4121-45.7031L71.2402-48.877Q69.9707-52.4414 67.1387-53.8574Q64.3066-55.2734 61.2305-54.1504Q58.5449-53.1738 59.4238-50.8301L61.5723-44.873Q61.8652-44.043 61.6455-43.4326Q61.4258-42.8223 60.8887-42.627Q60.3027-42.3828 59.7168-42.7002Q59.1309-43.0176 58.8379-43.8477L56.8359-49.3652Q55.3711-53.3691 52.6123-54.5654Q49.8535-55.7617 46.875-54.6387Q44.1895-53.6621 45.0684-51.3184L49.0723-40.2832Q49.3652-39.4531 49.1455-38.8428Q48.9258-38.2324 48.3398-38.0371Q47.7539-37.8418 47.1924-38.1592Q46.6309-38.4766 46.3379-39.3066L34.375-72.2168Q33.4473-74.7559 31.543-75.708Q29.6387-76.6602 27.4902-75.8789Q25.293-75.0977 24.3896-73.1201Q23.4863-71.1426 24.4141-68.6035L40.9668-23.1934Q41.2109-22.4609 40.8936-21.875Q40.5762-21.2891 40.0391-21.0938Q38.916-20.7031 37.8906-21.8262L25.7324-34.5215Q24.3164-35.9863 22.9004-36.3281Q21.4844-36.6699 20.1172-36.1816Q17.7246-35.3516 17.0166-33.4961Q16.3086-31.6406 17.0898-29.6875Q17.2852-29.0039 17.6514-28.418Q18.0176-27.832 18.457-27.2949L34.4727-6.83594Q42.5293 3.41797 52.5879 6.7627Q62.6465 10.1074 72.7539 6.39648Z"/>
  </g>
  <g id="Ultralight-M" transform="matrix(1 0 0 1 510.028 1126)">
   <path class="hierarchical-0:secondary SFSymbolsPreview4D4D4D" d="M28.1738-89.3066Q24.1211-89.3066 20.6055-87.8174Q17.0898-86.3281 14.4287-83.667Q11.7676-81.0059 10.2539-77.4902Q8.74023-73.9746 8.74023-69.9707Q8.74023-66.6504 9.83887-63.501Q10.9375-60.3516 13.0371-57.8613Q13.2812-57.5195 13.5986-57.373Q13.916-57.2266 14.1602-57.2266Q14.5996-57.2266 14.9658-57.5195Q15.332-57.8125 15.3809-58.252Q15.4297-58.6914 15.0879-59.1309Q13.1836-61.377 12.1582-64.1602Q11.1328-66.9434 11.1328-69.9707Q11.1328-74.707 13.4521-78.54Q15.7715-82.373 19.6045-84.6436Q23.4375-86.9141 28.1738-86.9141Q32.8125-86.9141 36.6455-84.6436Q40.4785-82.373 42.749-78.5156Q45.0195-74.6582 45.0195-69.9707Q45.0195-69.7754 45.0195-69.6289Q45.0195-69.4824 45.0195-69.3848Q45.0195-68.7012 45.3857-68.4326Q45.752-68.1641 46.1426-68.1641Q46.8262-68.1641 47.1191-68.5547Q47.4121-68.9453 47.4121-69.4336Q47.4609-69.5312 47.4609-69.6533Q47.4609-69.7754 47.4609-69.9707Q47.4609-75.3418 44.8486-79.7119Q42.2363-84.082 37.8418-86.6943Q33.4473-89.3066 28.1738-89.3066Z"/>
   <path class="hierarchical-1:primary SFSymbolsPreview212121" d="M70.459 5.95703Q79.7852 2.58789 84.8633-3.10059Q89.9414-8.78906 90.6006-16.9434Q91.2598-25.0977 87.3047-35.9863L84.7656-42.9199Q83.3496-46.8262 81.1768-49.1943Q79.0039-51.5625 76.5625-52.3926Q74.1211-53.2227 71.9238-52.4414Q70.4102-51.8555 70.9473-50.3906L72.6562-45.752Q72.9004-45.0684 72.7051-44.5068Q72.5098-43.9453 72.0215-43.7988Q71.582-43.6035 71.0693-43.8965Q70.5566-44.1895 70.3613-44.9219L69.1406-48.1934Q67.8223-51.7578 65.0146-53.1738Q62.207-54.5898 59.1309-53.4668Q56.4453-52.4902 57.2754-50.1465L59.5215-44.0918Q59.7168-43.4082 59.5459-42.8467Q59.375-42.2852 58.8867-42.1387Q58.4473-41.9434 57.959-42.2363Q57.4707-42.5293 57.1777-43.2129L55.127-48.877Q53.7109-52.8809 50.9521-54.0527Q48.1934-55.2246 45.2148-54.1504Q42.5293-53.1738 43.3594-50.8301L47.4121-39.6484Q47.7051-38.9648 47.4854-38.4277Q47.2656-37.8906 46.8262-37.7441Q46.3379-37.5488 45.8496-37.8174Q45.3613-38.0859 45.1172-38.8184L33.3496-71.1426Q32.4219-73.6816 30.542-74.6338Q28.6621-75.5859 26.5137-74.8047Q24.4141-73.9746 23.4863-72.0459Q22.5586-70.1172 23.4863-67.5781L39.4531-23.7793Q39.6973-23.0957 39.3799-22.5342Q39.0625-21.9727 38.5254-21.7773Q37.4512-21.4355 36.4746-22.4609L24.5117-34.8633Q23.0469-36.377 21.6553-36.7188Q20.2637-37.0605 18.9453-36.5723Q16.5039-35.6934 15.8691-33.8867Q15.2344-32.0801 15.9668-30.0781Q16.2109-29.4434 16.5527-28.8818Q16.8945-28.3203 17.3828-27.7344L33.5449-6.98242Q41.0645 2.68555 50.8301 6.12793Q60.5957 9.57031 70.459 5.95703Z"/>
  </g>
  <g id="Black-S" transform="matrix(1 0 0 1 2881.79 696)">
   <path class="hierarchical-0:secondary SFSymbolsPreview4D4D4D" d="M33.6914-95.5566Q28.125-95.5566 23.2666-93.4814Q18.4082-91.4062 14.7217-87.7441Q11.0352-84.082 8.93555-79.2236Q6.83594-74.3652 6.83594-68.8477Q6.83594-65.2832 7.95898-61.1084Q9.08203-56.9336 10.9863-53.9551Q11.9629-52.4414 13.2568-51.7822Q14.5508-51.123 15.8691-51.123Q18.0176-51.123 19.458-52.3926Q20.8984-53.6621 21.2402-55.5908Q21.582-57.5195 20.2637-59.4727Q19.1406-61.377 18.335-63.8672Q17.5293-66.3574 17.5293-68.8477Q17.5293-73.291 19.7266-76.9043Q21.9238-80.5176 25.5859-82.666Q29.248-84.8145 33.6426-84.8145Q37.207-84.8145 40.3809-83.3252Q43.5547-81.8359 45.874-79.1504Q48.1934-76.4648 49.1699-72.9004Q49.2188-72.8027 49.2432-72.6562Q49.2676-72.5098 49.3164-72.4121Q49.8535-70.6543 50.9277-69.3848Q52.002-68.1152 54.2969-68.1152Q56.9824-68.1152 58.3984-69.6533Q59.8145-71.1914 59.8145-73.4375Q59.8145-73.8281 59.7412-74.5117Q59.668-75.1953 59.5215-75.6348Q57.9102-81.6895 54.0527-86.1572Q50.1953-90.625 44.8975-93.0908Q39.5996-95.5566 33.6914-95.5566Z"/>
   <path class="hierarchical-1:primary SFSymbolsPreview212121" d="M75.4395 2.73438Q89.3555-2.29492 94.1406-13.3789Q98.9258-24.4629 93.6035-39.1602L90.5762-47.4609Q88.623-52.9297 84.8633-55.6885Q81.1035-58.4473 77.3926-57.0801Q74.9023-56.2012 75.7812-53.7109L77.002-50.4395Q77.2461-49.707 77.1484-49.1943Q77.0508-48.6816 76.6113-48.5352Q75.6836-48.1934 75.0977-49.7559L74.3164-51.8555Q73.0469-55.4199 70.0928-56.9336Q67.1387-58.4473 63.916-57.2754Q60.3516-56.0059 61.5234-52.7344L63.1836-48.1934Q63.4766-47.4121 63.4033-46.9238Q63.3301-46.4355 62.8906-46.2891Q61.8652-45.9473 61.3281-47.5098L59.7656-51.709Q58.4473-55.4199 55.6396-56.8848Q52.832-58.3496 49.4141-57.0801Q45.8984-55.8105 47.0215-52.5879L50.3418-43.5059Q50.6348-42.7734 50.5371-42.2607Q50.4395-41.748 50.0488-41.6504Q49.0723-41.2598 48.5352-42.8223L38.1348-71.3867Q37.1582-74.0723 34.8877-75.2197Q32.6172-76.3672 30.127-75.4883Q27.5391-74.5605 26.5381-72.2168Q25.5371-69.873 26.5137-67.1387L41.0645-27.2461Q41.2109-26.8066 41.1377-26.5137Q41.0645-26.2207 40.7715-26.123Q40.2832-25.9277 39.8926-26.416L30.5176-36.6211Q29.1016-38.1348 27.1973-38.9648Q25.293-39.7949 22.9004-38.916Q20.166-37.9395 18.9941-35.5957Q17.8223-33.252 18.7988-30.5176Q19.0918-29.7363 19.4824-29.0039Q19.873-28.2715 20.3613-27.7344L35.4004-9.61914Q44.2871 1.02539 54.2725 3.93066Q64.2578 6.83594 75.4395 2.73438Z"/>
  </g>
  <g id="Heavy-S" transform="matrix(1 0 0 1 2586.74 696)">
   <path class="hierarchical-0:secondary SFSymbolsPreview4D4D4D" d="M32.0801-93.1152Q26.8555-93.1152 22.29-91.1621Q17.7246-89.209 14.2578-85.7666Q10.791-82.3242 8.81348-77.7588Q6.83594-73.1934 6.83594-68.0176Q6.83594-64.4531 7.9834-60.498Q9.13086-56.543 11.0352-53.6621Q11.9141-52.3438 13.0615-51.7578Q14.209-51.1719 15.332-51.1719Q17.2363-51.1719 18.5303-52.3193Q19.8242-53.4668 20.1172-55.2002Q20.4102-56.9336 19.2383-58.6914Q17.9688-60.5469 17.1631-63.0127Q16.3574-65.4785 16.3574-68.0176Q16.3574-72.3145 18.4814-75.8301Q20.6055-79.3457 24.1699-81.4453Q27.7344-83.5449 32.0312-83.5449Q35.6934-83.5449 38.8672-81.958Q42.041-80.3711 44.2871-77.5635Q46.5332-74.7559 47.2656-71.0938Q47.3145-70.9473 47.3145-70.8008Q47.3145-70.6543 47.3633-70.5078Q47.8027-68.7988 48.8037-67.6758Q49.8047-66.5527 51.8066-66.5527Q54.1016-66.5527 55.3955-67.8955Q56.6895-69.2383 56.6895-71.1914Q56.7383-71.582 56.665-72.168Q56.5918-72.7539 56.4941-73.1934Q55.2734-79.1016 51.6846-83.5938Q48.0957-88.0859 42.9932-90.6006Q37.8906-93.1152 32.0801-93.1152Z"/>
   <path class="hierarchical-1:primary SFSymbolsPreview212121" d="M72.9492 1.80664Q86.377-3.02734 90.9424-13.7451Q95.5078-24.4629 90.332-38.623L87.4512-46.6797Q85.5469-52.002 81.958-54.5898Q78.3691-57.1777 74.9512-55.9082Q72.7539-55.127 73.5352-52.9297L74.707-49.7559Q75-48.9258 74.8535-48.3398Q74.707-47.7539 74.2188-47.6074Q73.0469-47.168 72.4121-48.9258L71.6309-50.9766Q70.459-54.3457 67.6758-55.7617Q64.8926-57.1777 61.8652-56.1035Q58.6426-54.9316 59.668-52.002L61.3281-47.5586Q61.6211-46.6797 61.499-46.1426Q61.377-45.6055 60.8887-45.4102Q59.668-45.0195 59.0332-46.7285L57.5195-50.8301Q56.25-54.3945 53.6133-55.7373Q50.9766-57.0801 47.8027-55.9082Q44.6289-54.7852 45.6055-51.8555L48.8281-43.0176Q49.1699-42.1875 49.0234-41.626Q48.877-41.0645 48.3887-40.918Q47.2168-40.4297 46.6309-42.1875L36.2793-70.5566Q35.4004-73.0957 33.2764-74.1455Q31.1523-75.1953 28.8574-74.4141Q26.416-73.5352 25.4883-71.3623Q24.5605-69.1895 25.4883-66.6016L40.1367-26.416Q40.332-25.9277 40.21-25.5615Q40.0879-25.1953 39.7461-25.0977Q39.1602-24.8535 38.5742-25.5371L29.1016-35.8398Q27.7344-37.3047 26.0254-38.0127Q24.3164-38.7207 22.168-37.8906Q19.6777-37.0117 18.6035-34.8633Q17.5293-32.7148 18.4082-30.2734Q18.6523-29.541 19.043-28.8574Q19.4336-28.1738 19.873-27.6855L34.1797-10.3027Q42.8711 0.195312 52.5879 2.9541Q62.3047 5.71289 72.9492 1.80664Z"/>
  </g>
  <g id="Bold-S" transform="matrix(1 0 0 1 2291.88 696)">
   <path class="hierarchical-0:secondary SFSymbolsPreview4D4D4D" d="M30.2734-90.3809Q25.3906-90.3809 21.167-88.5498Q16.9434-86.7188 13.7207-83.5205Q10.498-80.3223 8.66699-76.0986Q6.83594-71.875 6.83594-67.041Q6.83594-63.4766 8.00781-59.79Q9.17969-56.1035 11.1328-53.3203Q11.9141-52.2461 12.8662-51.7578Q13.8184-51.2695 14.7949-51.2695Q16.4062-51.2695 17.5293-52.2705Q18.6523-53.2715 18.8965-54.7607Q19.1406-56.25 18.0664-57.8125Q16.6992-59.668 15.8691-62.085Q15.0391-64.502 15.0391-67.041Q15.0391-71.2402 17.0898-74.6582Q19.1406-78.0762 22.6074-80.127Q26.0742-82.1777 30.2246-82.1777Q33.9844-82.1777 37.1826-80.4688Q40.3809-78.7598 42.5049-75.8057Q44.6289-72.8516 45.1172-69.0918Q45.166-68.9453 45.166-68.7744Q45.166-68.6035 45.2148-68.3594Q45.459-66.7969 46.4355-65.8203Q47.4121-64.8438 49.0234-64.8438Q50.8789-64.8438 52.0264-65.9424Q53.1738-67.041 53.2227-68.7012Q53.2715-69.043 53.2227-69.5312Q53.1738-70.0195 53.125-70.459Q52.2949-76.2207 49.0234-80.7129Q45.752-85.2051 40.8447-87.793Q35.9375-90.3809 30.2734-90.3809Z"/>
   <path class="hierarchical-1:primary SFSymbolsPreview212121" d="M70.1172 0.830078Q83.0078-3.85742 87.3291-14.1846Q91.6504-24.5117 86.7188-38.0859L83.9355-45.8008Q82.0801-50.9277 78.7109-53.3203Q75.3418-55.7129 72.2168-54.5898Q70.3613-53.9062 71.0449-52.0996L72.168-49.0234Q72.5098-48.0469 72.3145-47.4121Q72.1191-46.7773 71.5332-46.5332Q70.166-46.0449 69.4336-47.998L68.7012-50Q67.5781-53.1738 64.9902-54.4922Q62.4023-55.8105 59.5703-54.7852Q56.7383-53.7598 57.666-51.1719L59.2285-46.9238Q59.5703-45.8984 59.3994-45.2881Q59.2285-44.6777 58.6426-44.4336Q57.2266-43.9453 56.4941-45.8984L55.0781-49.8535Q53.8086-53.2715 51.3428-54.4678Q48.877-55.6641 45.9961-54.6387Q43.1641-53.6133 44.0918-51.0742L47.168-42.5293Q47.5586-41.5527 47.3633-40.918Q47.168-40.2832 46.582-40.0879Q45.2148-39.5508 44.4824-41.5039L34.2773-69.6289Q33.3984-71.9727 31.4697-72.9492Q29.541-73.9258 27.4414-73.1934Q25.1953-72.3633 24.3652-70.3857Q23.5352-68.4082 24.3652-66.0645L39.1113-25.5371Q39.3555-24.9512 39.1846-24.5117Q39.0137-24.0723 38.623-23.9746Q37.8906-23.6816 37.1582-24.5605L27.4902-35.0098Q26.2207-36.3281 24.707-36.9141Q23.1934-37.5 21.3867-36.8164Q19.0918-35.9863 18.1396-34.0576Q17.1875-32.1289 17.9688-29.9805Q18.2129-29.2969 18.5547-28.6865Q18.8965-28.0762 19.2871-27.6367L32.8125-11.0352Q41.3086-0.683594 50.7324 1.9043Q60.1562 4.49219 70.1172 0.830078Z"/>
  </g>
  <g id="Semibold-S" transform="matrix(1 0 0 1 1996.46 696)">
   <path class="hierarchical-0:secondary SFSymbolsPreview4D4D4D" d="M29.0039-88.4766Q24.4141-88.4766 20.3857-86.7432Q16.3574-85.0098 13.3057-81.9824Q10.2539-78.9551 8.54492-74.9512Q6.83594-70.9473 6.83594-66.4062Q6.83594-62.8418 8.00781-59.3018Q9.17969-55.7617 11.1816-53.0762Q11.8652-52.1484 12.6953-51.7334Q13.5254-51.3184 14.3555-51.3184Q15.7715-51.3184 16.7969-52.1973Q17.8223-53.0762 18.042-54.4434Q18.2617-55.8105 17.2363-57.1777Q15.7715-59.0332 14.9414-61.4014Q14.1113-63.7695 14.1113-66.4062Q14.1113-70.5078 16.1133-73.8525Q18.1152-77.1973 21.5088-79.1992Q24.9023-81.2012 29.0039-81.2012Q32.7637-81.2012 35.9863-79.3945Q39.209-77.5879 41.2598-74.5361Q43.3105-71.4844 43.6523-67.6758Q43.6523-67.5293 43.6523-67.334Q43.6523-67.1387 43.7012-66.8945Q43.8477-65.3809 44.7754-64.502Q45.7031-63.623 47.1191-63.623Q48.6328-63.623 49.6826-64.5508Q50.7324-65.4785 50.8301-66.9922Q50.8789-67.2852 50.8545-67.7002Q50.8301-68.1152 50.7812-68.5547Q50.2441-74.2188 47.1924-78.7354Q44.1406-83.252 39.3799-85.8643Q34.6191-88.4766 29.0039-88.4766Z"/>
   <path class="hierarchical-1:primary SFSymbolsPreview212121" d="M68.1641 0.0976562Q80.7129-4.44336 84.8633-14.4775Q89.0137-24.5117 84.2285-37.6465L81.4941-45.2148Q79.6875-50.1953 76.4648-52.4658Q73.2422-54.7363 70.3125-53.6621Q68.7012-53.0762 69.2871-51.5137L70.4102-48.4863Q70.8008-47.4121 70.5566-46.7285Q70.3125-46.0449 69.6777-45.8008Q68.1152-45.2637 67.334-47.3633L66.6016-49.3164Q65.5762-52.3438 63.1104-53.5889Q60.6445-54.834 58.0078-53.8574Q55.4199-52.9297 56.25-50.5859L57.7637-46.4355Q58.1543-45.3613 57.9346-44.6777Q57.7148-43.9941 57.0801-43.75Q55.5176-43.2129 54.7363-45.3125L53.3203-49.1699Q52.0996-52.4902 49.7559-53.5889Q47.4121-54.6875 44.7266-53.7109Q42.1875-52.7832 42.9688-50.4883L45.9961-42.1387Q46.3867-41.0645 46.167-40.3809Q45.9473-39.6973 45.3125-39.502Q43.7988-38.916 43.0176-41.0156L32.8613-68.9941Q32.0312-71.1914 30.2002-72.1191Q28.3691-73.0469 26.416-72.3145Q24.3652-71.582 23.5596-69.7021Q22.7539-67.8223 23.584-65.625L38.3789-24.9023Q38.623-24.2188 38.4521-23.7549Q38.2812-23.291 37.8418-23.1445Q37.0117-22.8516 36.1328-23.8281L26.3672-34.375Q25.1953-35.6934 23.8037-36.1572Q22.4121-36.6211 20.8008-36.0352Q18.7012-35.2539 17.8223-33.4717Q16.9434-31.6895 17.627-29.7852Q17.8711-29.1016 18.2129-28.5645Q18.5547-28.0273 18.8965-27.5879L31.8848-11.5723Q40.1855-1.31836 49.4141 1.14746Q58.6426 3.61328 68.1641 0.0976562Z"/>
  </g>
  <g id="Medium-S" transform="matrix(1 0 0 1 1700.73 696)">
   <path class="hierarchical-0:secondary SFSymbolsPreview4D4D4D" d="M28.0273-87.0117Q23.6328-87.0117 19.7998-85.376Q15.9668-83.7402 13.0371-80.835Q10.1074-77.9297 8.47168-74.0967Q6.83594-70.2637 6.83594-65.8691Q6.83594-62.3047 8.00781-58.9111Q9.17969-55.5176 11.2305-52.8809Q11.8652-52.0996 12.5977-51.7334Q13.3301-51.3672 14.0625-51.3672Q15.332-51.3672 16.2598-52.1729Q17.1875-52.9785 17.3828-54.1992Q17.5781-55.4199 16.6016-56.6895Q15.0879-58.5938 14.2578-60.9375Q13.4277-63.2812 13.4277-65.8691Q13.4277-69.9219 15.4053-73.2178Q17.3828-76.5137 20.7031-78.4912Q24.0234-80.4688 28.0273-80.4688Q31.8848-80.4688 35.1074-78.6133Q38.3301-76.7578 40.332-73.6328Q42.334-70.5078 42.5293-66.6016Q42.5293-66.4551 42.5293-66.2598Q42.5293-66.0645 42.5293-65.7715Q42.627-64.3066 43.5303-63.501Q44.4336-62.6953 45.6543-62.6953Q46.9727-62.6953 47.9492-63.5254Q48.9258-64.3555 49.0234-65.6738Q49.0234-65.918 49.0234-66.2842Q49.0234-66.6504 48.9746-67.0898Q48.6816-72.6562 45.8008-77.1973Q42.9199-81.7383 38.2568-84.375Q33.5938-87.0117 28.0273-87.0117Z"/>
   <path class="hierarchical-1:primary SFSymbolsPreview212121" d="M66.6992-0.439453Q78.9551-4.83398 82.9834-14.6729Q87.0117-24.5117 82.3242-37.3535L79.6387-44.7266Q77.832-49.6582 74.7314-51.8066Q71.6309-53.9551 68.8965-52.9785Q67.4316-52.4414 67.9688-51.0742L69.0918-48.0957Q69.4824-46.9238 69.2139-46.2158Q68.9453-45.5078 68.2617-45.2637Q66.6016-44.6777 65.7715-46.875L65.0879-48.8281Q64.0137-51.7578 61.6699-52.9297Q59.3262-54.1016 56.7871-53.1738Q54.4434-52.2949 55.1758-50.1953L56.6406-46.0938Q57.0801-44.9219 56.8115-44.2139Q56.543-43.5059 55.8594-43.2617Q54.1992-42.6758 53.418-44.873L52.0508-48.6816Q50.8301-51.9043 48.5596-52.9297Q46.2891-53.9551 43.75-53.0273Q41.4062-52.1484 42.1875-50.0488L45.1172-41.8457Q45.5566-40.7227 45.2881-40.0146Q45.0195-39.3066 44.3848-39.1113Q42.7246-38.4766 41.8945-40.6738L31.7871-68.5059Q31.0059-70.6055 29.2725-71.4844Q27.5391-72.3633 25.6836-71.6797Q23.6816-70.9473 22.9492-69.1895Q22.2168-67.4316 22.998-65.332L37.8418-24.4629Q38.1348-23.7305 37.915-23.2178Q37.6953-22.7051 37.2559-22.5586Q36.377-22.2656 35.3516-23.3398L25.5371-33.9355Q24.3652-35.1562 23.0957-35.5713Q21.8262-35.9863 20.3613-35.4492Q18.4082-34.7168 17.5781-33.0322Q16.748-31.3477 17.3828-29.6387Q17.627-28.9551 17.9443-28.4424Q18.2617-27.9297 18.6035-27.5391L31.1523-11.9629Q39.3555-1.75781 48.4131 0.585938Q57.4707 2.92969 66.6992-0.439453Z"/>
  </g>
  <g id="Regular-S" transform="matrix(1 0 0 1 1405.29 696)">
   <path class="hierarchical-0:secondary SFSymbolsPreview4D4D4D" d="M26.8066-85.1562Q22.6562-85.1562 19.043-83.5938Q15.4297-82.0312 12.6709-79.2969Q9.91211-76.5625 8.37402-72.9492Q6.83594-69.3359 6.83594-65.2344Q6.83594-61.6699 8.03223-58.4473Q9.22852-55.2246 11.2793-52.6367Q11.8164-52.002 12.4268-51.709Q13.0371-51.416 13.6719-51.416Q14.7461-51.416 15.5518-52.124Q16.3574-52.832 16.5283-53.9062Q16.6992-54.9805 15.8203-56.1035Q14.209-57.959 13.3545-60.2783Q12.5-62.5977 12.5-65.2344Q12.5-69.1895 14.4287-72.4121Q16.3574-75.6348 19.6045-77.5635Q22.8516-79.4922 26.8066-79.4922Q30.7129-79.4922 33.96-77.5635Q37.207-75.6348 39.1357-72.4121Q41.0645-69.1895 41.0645-65.2344Q41.0645-65.0391 41.0645-64.8438Q41.0645-64.6484 41.0645-64.3066Q41.0645-62.8906 41.9189-62.207Q42.7734-61.5234 43.75-61.5234Q44.7754-61.5234 45.6543-62.1826Q46.5332-62.8418 46.6309-63.9648Q46.6797-64.209 46.6797-64.502Q46.6797-64.7949 46.6797-65.2344Q46.6797-70.7031 43.9941-75.2441Q41.3086-79.7852 36.792-82.4707Q32.2754-85.1562 26.8066-85.1562Z"/>
   <path class="hierarchical-1:primary SFSymbolsPreview212121" d="M64.7949-1.12305Q76.6602-5.41992 80.5176-14.9658Q84.375-24.5117 79.834-36.9629L77.2461-44.1406Q75.4883-48.9258 72.5342-50.9521Q69.5801-52.9785 67.041-52.0508Q65.8203-51.6113 66.2598-50.4883L67.334-47.5586Q67.7734-46.3379 67.4561-45.5811Q67.1387-44.8242 66.4551-44.5312Q64.5996-43.8965 63.7207-46.2402L63.0371-48.1445Q62.0605-50.9277 59.8389-52.0264Q57.6172-53.125 55.2246-52.2461Q53.125-51.4648 53.7598-49.6094L55.2246-45.6055Q55.6641-44.3848 55.3711-43.6279Q55.0781-42.8711 54.3457-42.5781Q52.5391-41.9434 51.6602-44.2871L50.3418-47.998Q49.1699-51.123 47.0215-52.0508Q44.873-52.9785 42.5293-52.1484Q40.4297-51.3672 41.1133-49.5117L43.9941-41.5039Q44.4336-40.2832 44.1406-39.5264Q43.8477-38.7695 43.1152-38.5254Q41.3086-37.8418 40.4297-40.1855L30.3711-67.8711Q29.6387-69.873 28.0273-70.6787Q26.416-71.4844 24.707-70.8496Q22.8516-70.166 22.168-68.5303Q21.4844-66.8945 22.2168-64.9414L37.1582-23.8281Q37.4512-23.0469 37.207-22.4854Q36.9629-21.9238 36.4746-21.7773Q35.498-21.4355 34.375-22.6562L24.4629-33.3496Q23.3398-34.5215 22.2168-34.8389Q21.0938-35.1562 19.8242-34.668Q18.0176-34.0332 17.2607-32.4951Q16.5039-30.957 17.0898-29.4434Q17.2852-28.8086 17.6025-28.3447Q17.9199-27.8809 18.2129-27.4902L30.2246-12.4512Q38.2812-2.39258 47.1436-0.146484Q56.0059 2.09961 64.7949-1.12305Z"/>
  </g>
  <g id="Light-S" transform="matrix(1 0 0 1 1110.34 696)">
   <path class="hierarchical-0:secondary SFSymbolsPreview4D4D4D" d="M25.3418-82.8125Q21.4844-82.8125 18.1396-81.3721Q14.7949-79.9316 12.2314-77.3926Q9.66797-74.8535 8.25195-71.5088Q6.83594-68.1641 6.83594-64.3555Q6.83594-61.084 7.93457-58.1055Q9.0332-55.127 10.9375-52.7344Q11.377-52.1973 11.8652-51.9775Q12.3535-51.7578 12.8906-51.7578Q13.7207-51.7578 14.3555-52.3193Q14.9902-52.8809 15.1367-53.7109Q15.2832-54.541 14.5508-55.4199Q12.9883-57.2266 12.1582-59.5215Q11.3281-61.8164 11.3281-64.3555Q11.3281-68.2129 13.208-71.3867Q15.0879-74.5605 18.2617-76.4404Q21.4355-78.3203 25.3418-78.3203Q29.1504-78.3203 32.3242-76.4404Q35.498-74.5605 37.3779-71.3867Q39.2578-68.2129 39.2578-64.3555Q39.2578-64.1602 39.2578-64.0137Q39.2578-63.8672 39.2578-63.5742Q39.2578-62.4512 39.9414-61.9141Q40.625-61.377 41.4062-61.377Q42.2363-61.377 42.9199-61.9141Q43.6035-62.4512 43.7012-63.3789Q43.7012-63.5742 43.7012-63.7939Q43.7012-64.0137 43.7012-64.3555Q43.7012-69.4336 41.2109-73.6328Q38.7207-77.832 34.5459-80.3223Q30.3711-82.8125 25.3418-82.8125Z"/>
   <path class="hierarchical-1:primary SFSymbolsPreview212121" d="M61.8164-1.70898Q73.3887-5.9082 77.0996-14.9902Q80.8105-24.0723 76.2695-36.6211L73.877-43.2617Q72.1191-47.9492 69.1895-49.9512Q66.2598-51.9531 63.7207-51.0254Q62.5-50.5859 62.9395-49.4629L64.0625-46.2891Q64.4531-45.2637 64.1846-44.6045Q63.916-43.9453 63.3301-43.75Q61.7676-43.1641 61.0352-45.166L60.2539-47.3145Q59.2773-50.0977 57.0557-51.1963Q54.834-52.2949 52.4414-51.416Q50.3418-50.6348 50.9766-48.7793L52.5391-44.5312Q52.8809-43.5059 52.6367-42.8711Q52.3926-42.2363 51.8066-41.9922Q50.2441-41.4062 49.5117-43.4082L48.0957-47.3633Q46.9238-50.4883 44.7754-51.416Q42.627-52.3438 40.2832-51.5137Q38.1836-50.7324 38.8672-48.877L41.8457-40.625Q42.2363-39.5996 41.9922-38.9648Q41.748-38.3301 41.1133-38.0859Q39.5996-37.5488 38.8184-39.502L29.0527-66.4551Q28.3203-68.457 26.7578-69.2383Q25.1953-70.0195 23.4863-69.3848Q21.6797-68.75 20.9961-67.1387Q20.3125-65.5273 21.0449-63.5742L35.2051-24.5605Q35.4492-23.877 35.2051-23.3643Q34.9609-22.8516 34.5215-22.7051Q33.5938-22.3633 32.5684-23.4375L22.8027-33.8379Q21.6797-35.0586 20.5811-35.3516Q19.4824-35.6445 18.2617-35.2051Q16.4062-34.5215 15.7471-33.0078Q15.0879-31.4941 15.6738-29.9805Q15.8691-29.3945 16.1621-28.9307Q16.4551-28.4668 16.7969-28.0762L29.0039-12.6465Q36.377-3.36914 44.8486-0.976562Q53.3203 1.41602 61.8164-1.70898Z"/>
  </g>
  <g id="Thin-S" transform="matrix(1 0 0 1 815.944 696)">
   <path class="hierarchical-0:secondary SFSymbolsPreview4D4D4D" d="M23.3398-79.6875Q19.9219-79.6875 16.9434-78.3936Q13.9648-77.0996 11.6699-74.8535Q9.375-72.6074 8.10547-69.6289Q6.83594-66.6504 6.83594-63.2324Q6.83594-60.3516 7.78809-57.6904Q8.74023-55.0293 10.498-52.832Q10.791-52.4902 11.1328-52.3193Q11.4746-52.1484 11.8164-52.1484Q12.3535-52.1484 12.7686-52.5146Q13.1836-52.8809 13.2812-53.4424Q13.3789-54.0039 12.8906-54.541Q11.377-56.2988 10.5713-58.5449Q9.76562-60.791 9.76562-63.2324Q9.76562-66.9922 11.5967-70.0439Q13.4277-73.0957 16.5283-74.9268Q19.6289-76.7578 23.3398-76.7578Q27.0996-76.7578 30.1758-74.9268Q33.252-73.0957 35.0586-70.0439Q36.8652-66.9922 36.8652-63.2324Q36.8652-63.0371 36.8652-62.915Q36.8652-62.793 36.8652-62.5977Q36.8652-61.8652 37.3047-61.5234Q37.7441-61.1816 38.2812-61.1816Q38.916-61.1816 39.3311-61.5723Q39.7461-61.9629 39.7949-62.5488Q39.7949-62.6953 39.7949-62.8418Q39.7949-62.9883 39.7949-63.2324Q39.7949-67.7734 37.5732-71.5088Q35.3516-75.2441 31.6162-77.4658Q27.8809-79.6875 23.3398-79.6875Z"/>
   <path class="hierarchical-1:primary SFSymbolsPreview212121" d="M57.8125-2.44141Q69.043-6.49414 72.6074-14.9658Q76.1719-23.4375 71.5332-36.1328L69.3848-42.0898Q67.6758-46.6797 64.7705-48.6084Q61.8652-50.5371 59.3262-49.6094Q58.1055-49.1699 58.5449-48.0469L59.7656-44.5801Q60.0586-43.8477 59.8633-43.335Q59.668-42.8223 59.1797-42.6758Q58.0078-42.2363 57.4707-43.75L56.5918-46.1914Q55.6152-48.9746 53.3936-50.0732Q51.1719-51.1719 48.7793-50.293Q46.6797-49.5117 47.3145-47.6562L48.9746-43.1152Q49.2188-42.3828 49.0479-41.8701Q48.877-41.3574 48.3887-41.1621Q47.2168-40.7715 46.6797-42.2363L45.1172-46.5332Q43.9941-49.6582 41.8457-50.5859Q39.6973-51.5137 37.3535-50.6348Q35.2539-49.8535 35.8887-48.0469L39.0137-39.4531Q39.3066-38.7207 39.1113-38.208Q38.916-37.6953 38.4277-37.5488Q37.3047-37.1582 36.7188-38.623L27.2949-64.5996Q26.5625-66.6016 25.0488-67.3584Q23.5352-68.1152 21.875-67.4805Q20.166-66.8457 19.458-65.3076Q18.75-63.7695 19.4336-61.7676L32.6172-25.5859Q32.8613-25 32.6172-24.5361Q32.373-24.0723 31.8848-23.877Q31.0547-23.584 30.1758-24.5117L20.6543-34.5215Q19.5312-35.6934 18.4082-35.9619Q17.2852-36.2305 16.2109-35.8398Q14.3066-35.1562 13.7451-33.7158Q13.1836-32.2754 13.7695-30.7129Q13.9648-30.1758 14.2334-29.7363Q14.502-29.2969 14.8926-28.8086L27.3438-12.8906Q33.8379-4.63867 41.8213-2.0752Q49.8047 0.488281 57.8125-2.44141Z"/>
  </g>
  <g id="Ultralight-S" transform="matrix(1 0 0 1 520.429 696)">
   <path class="hierarchical-0:secondary SFSymbolsPreview4D4D4D" d="M22.3633-78.125Q19.0918-78.125 16.3086-76.9043Q13.5254-75.6836 11.377-73.5596Q9.22852-71.4355 8.03223-68.6279Q6.83594-65.8203 6.83594-62.6465Q6.83594-59.9609 7.71484-57.4463Q8.59375-54.9316 10.3027-52.9297Q10.498-52.6367 10.7666-52.5146Q11.0352-52.3926 11.2793-52.3926Q11.6699-52.3926 11.9629-52.6611Q12.2559-52.9297 12.3291-53.3203Q12.4023-53.7109 12.0605-54.1016Q10.5957-55.8105 9.76562-58.0322Q8.93555-60.2539 8.93555-62.6465Q8.93555-66.3086 10.7666-69.3359Q12.5977-72.3633 15.625-74.1455Q18.6523-75.9277 22.3633-75.9277Q26.0254-75.9277 29.0527-74.1455Q32.0801-72.3633 33.8379-69.3359Q35.5957-66.3086 35.5957-62.6465Q35.5957-62.4512 35.5957-62.3535Q35.5957-62.2559 35.5957-62.1094Q35.5957-61.5723 35.9375-61.3281Q36.2793-61.084 36.6699-61.084Q37.207-61.084 37.5-61.4014Q37.793-61.7188 37.793-62.1582Q37.793-62.2559 37.793-62.3779Q37.793-62.5 37.793-62.6465Q37.793-66.8945 35.6934-70.4102Q33.5938-73.9258 30.1025-76.0254Q26.6113-78.125 22.3633-78.125Z"/>
   <path class="hierarchical-1:primary SFSymbolsPreview212121" d="M55.8105-2.83203Q66.7969-6.83594 70.2637-14.9902Q73.7305-23.1445 69.1406-35.8887L67.0898-41.4551Q65.4297-45.9961 62.5-47.9248Q59.5703-49.8535 57.0312-48.9258Q55.8105-48.4863 56.25-47.3633L57.5684-43.7012Q57.7637-43.1152 57.6172-42.6758Q57.4707-42.2363 57.0312-42.1387Q56.1035-41.748 55.6152-43.0176L54.7363-45.6055Q53.7109-48.3887 51.5137-49.4873Q49.3164-50.5859 46.875-49.707Q44.7754-48.9258 45.459-47.1191L47.1191-42.3828Q47.3633-41.7969 47.1924-41.3574Q47.0215-40.918 46.6797-40.7715Q45.7031-40.3809 45.2637-41.6504L43.6035-46.0938Q42.4805-49.2188 40.332-50.1465Q38.1836-51.0742 35.8398-50.1953Q33.7402-49.4141 34.375-47.6074L37.5977-38.8672Q37.793-38.2812 37.6465-37.8418Q37.5-37.4023 37.0605-37.2559Q36.1328-36.9141 35.6445-38.1836L26.3672-63.6719Q25.6348-65.6738 24.1699-66.4062Q22.7051-67.1387 21.0449-66.5039Q19.3359-65.918 18.6279-64.3799Q17.9199-62.8418 18.6523-60.8398L31.2988-26.0742Q31.4941-25.5371 31.25-25.1221Q31.0059-24.707 30.5664-24.5117Q29.7363-24.2188 28.9551-25.0488L19.5312-34.8633Q18.4082-36.084 17.3096-36.3281Q16.2109-36.5723 15.1367-36.2305Q13.2324-35.498 12.7441-34.0576Q12.2559-32.6172 12.793-31.0547Q12.9883-30.5664 13.2568-30.127Q13.5254-29.6875 13.916-29.1992L26.5137-13.0371Q32.5684-5.32227 40.2832-2.66113Q47.998 0 55.8105-2.83203Z"/>
  </g>
 </g>
</svg>
