<?xml version="1.0" encoding="UTF-8"?>
<!--Generator: Apple Native CoreSVG 175-->
<!DOCTYPE svg
PUBLIC "-//W3C//DTD SVG 1.1//EN"
       "http://www.w3.org/Graphics/SVG/1.1/DTD/svg11.dtd">
<svg version="1.1" xmlns="http://www.w3.org/2000/svg" xmlns:xlink="http://www.w3.org/1999/xlink" width="3300" height="2200">
 <!--glyph: "uni100832.medium", point size: 100.0, font version: "17.0d11e1", template writer version: "65.1"-->
 <style>.multicolor-0:systemGrayColor {fill:#8E8E93;opacity:1.0}
.multicolor-1:systemOrangeColor {fill:#FF9500;opacity:1.0}

.hierarchical-0:secondary {fill:#4D4D4D}
.hierarchical-1:primary {fill:#212121}

.SFSymbolsPreview8E8E93 {fill:#8E8E93;opacity:1.0}
.SFSymbolsPreviewFF9500 {fill:#FF9500;opacity:1.0}
</style>
 <g id="Notes">
  <rect height="2200" id="artboard" style="fill:white;opacity:1" width="3300" x="0" y="0"/>
  <line style="fill:none;stroke:black;opacity:1;stroke-width:0.5;" x1="263" x2="3036" y1="292" y2="292"/>
  <text style="stroke:none;fill:black;font-family:sans-serif;font-size:13;font-weight:bold;" transform="matrix(1 0 0 1 263 322)">Weight/Scale Variations</text>
  <text style="stroke:none;fill:black;font-family:sans-serif;font-size:13;text-anchor:middle;" transform="matrix(1 0 0 1 559.711 322)">Ultralight</text>
  <text style="stroke:none;fill:black;font-family:sans-serif;font-size:13;text-anchor:middle;" transform="matrix(1 0 0 1 856.422 322)">Thin</text>
  <text style="stroke:none;fill:black;font-family:sans-serif;font-size:13;text-anchor:middle;" transform="matrix(1 0 0 1 1153.13 322)">Light</text>
  <text style="stroke:none;fill:black;font-family:sans-serif;font-size:13;text-anchor:middle;" transform="matrix(1 0 0 1 1449.84 322)">Regular</text>
  <text style="stroke:none;fill:black;font-family:sans-serif;font-size:13;text-anchor:middle;" transform="matrix(1 0 0 1 1746.56 322)">Medium</text>
  <text style="stroke:none;fill:black;font-family:sans-serif;font-size:13;text-anchor:middle;" transform="matrix(1 0 0 1 2043.27 322)">Semibold</text>
  <text style="stroke:none;fill:black;font-family:sans-serif;font-size:13;text-anchor:middle;" transform="matrix(1 0 0 1 2339.98 322)">Bold</text>
  <text style="stroke:none;fill:black;font-family:sans-serif;font-size:13;text-anchor:middle;" transform="matrix(1 0 0 1 2636.69 322)">Heavy</text>
  <text style="stroke:none;fill:black;font-family:sans-serif;font-size:13;text-anchor:middle;" transform="matrix(1 0 0 1 2933.4 322)">Black</text>
  <line style="fill:none;stroke:black;opacity:1;stroke-width:0.5;" x1="263" x2="3036" y1="1903" y2="1903"/>
  <g transform="matrix(1 0 0 1 263 1933)">
   <path d="M9.24805 0.830078Q10.8691 0.830078 12.2949 0.214844Q13.7207-0.400391 14.8096-1.49414Q15.8984-2.58789 16.5186-4.01367Q17.1387-5.43945 17.1387-7.05078Q17.1387-8.66211 16.5186-10.0879Q15.8984-11.5137 14.8047-12.6074Q13.7109-13.7012 12.2852-14.3164Q10.8594-14.9316 9.23828-14.9316Q7.62695-14.9316 6.20117-14.3164Q4.77539-13.7012 3.69141-12.6074Q2.60742-11.5137 1.9873-10.0879Q1.36719-8.66211 1.36719-7.05078Q1.36719-5.43945 1.9873-4.01367Q2.60742-2.58789 3.69629-1.49414Q4.78516-0.400391 6.21094 0.214844Q7.63672 0.830078 9.24805 0.830078ZM9.24805-0.654297Q7.91992-0.654297 6.7627-1.14746Q5.60547-1.64062 4.73145-2.51953Q3.85742-3.39844 3.36426-4.56055Q2.87109-5.72266 2.87109-7.05078Q2.87109-8.37891 3.35938-9.54102Q3.84766-10.7031 4.72168-11.582Q5.5957-12.4609 6.75293-12.9541Q7.91016-13.4473 9.23828-13.4473Q10.5762-13.4473 11.7334-12.9541Q12.8906-12.4609 13.7695-11.582Q14.6484-10.7031 15.1465-9.54102Q15.6445-8.37891 15.6445-7.05078Q15.6445-5.72266 15.1514-4.56055Q14.6582-3.39844 13.7842-2.51953Q12.9102-1.64062 11.748-1.14746Q10.5859-0.654297 9.24805-0.654297ZM5.6543-7.05078Q5.6543-6.72852 5.85938-6.52832Q6.06445-6.32812 6.40625-6.32812L8.51562-6.32812L8.51562-4.20898Q8.51562-3.88672 8.71094-3.67676Q8.90625-3.4668 9.23828-3.4668Q9.56055-3.4668 9.77051-3.67676Q9.98047-3.88672 9.98047-4.20898L9.98047-6.32812L12.0898-6.32812Q12.4219-6.32812 12.627-6.52832Q12.832-6.72852 12.832-7.05078Q12.832-7.38281 12.627-7.58789Q12.4219-7.79297 12.0898-7.79297L9.98047-7.79297L9.98047-9.90234Q9.98047-10.2344 9.77051-10.4443Q9.56055-10.6543 9.23828-10.6543Q8.90625-10.6543 8.71094-10.4443Q8.51562-10.2344 8.51562-9.90234L8.51562-7.79297L6.40625-7.79297Q6.06445-7.79297 5.85938-7.58789Q5.6543-7.38281 5.6543-7.05078Z"/>
  </g>
  <g transform="matrix(1 0 0 1 281.867 1933)">
   <path d="M11.709 2.91016Q13.75 2.91016 15.5518 2.12891Q17.3535 1.34766 18.7305-0.0292969Q20.1074-1.40625 20.8887-3.20801Q21.6699-5.00977 21.6699-7.05078Q21.6699-9.0918 20.8887-10.8936Q20.1074-12.6953 18.7305-14.0723Q17.3535-15.4492 15.5469-16.2305Q13.7402-17.0117 11.6992-17.0117Q9.6582-17.0117 7.85645-16.2305Q6.05469-15.4492 4.68262-14.0723Q3.31055-12.6953 2.5293-10.8936Q1.74805-9.0918 1.74805-7.05078Q1.74805-5.00977 2.5293-3.20801Q3.31055-1.40625 4.6875-0.0292969Q6.06445 1.34766 7.86621 2.12891Q9.66797 2.91016 11.709 2.91016ZM11.709 1.25Q9.98047 1.25 8.47656 0.605469Q6.97266-0.0390625 5.83496-1.17676Q4.69727-2.31445 4.05762-3.81836Q3.41797-5.32227 3.41797-7.05078Q3.41797-8.7793 4.05762-10.2832Q4.69727-11.7871 5.83008-12.9297Q6.96289-14.0723 8.4668-14.7119Q9.9707-15.3516 11.6992-15.3516Q13.4277-15.3516 14.9316-14.7119Q16.4355-14.0723 17.5781-12.9297Q18.7207-11.7871 19.3652-10.2832Q20.0098-8.7793 20.0098-7.05078Q20.0098-5.32227 19.3701-3.81836Q18.7305-2.31445 17.5928-1.17676Q16.4551-0.0390625 14.9463 0.605469Q13.4375 1.25 11.709 1.25ZM7.17773-7.05078Q7.17773-6.69922 7.41211-6.47461Q7.64648-6.25 8.01758-6.25L10.8887-6.25L10.8887-3.36914Q10.8887-2.99805 11.1133-2.76855Q11.3379-2.53906 11.6895-2.53906Q12.0605-2.53906 12.29-2.76855Q12.5195-2.99805 12.5195-3.36914L12.5195-6.25L15.4004-6.25Q15.7715-6.25 16.001-6.47461Q16.2305-6.69922 16.2305-7.05078Q16.2305-7.42188 16.001-7.65137Q15.7715-7.88086 15.4004-7.88086L12.5195-7.88086L12.5195-10.752Q12.5195-11.1328 12.29-11.3623Q12.0605-11.5918 11.6895-11.5918Q11.3379-11.5918 11.1133-11.3574Q10.8887-11.123 10.8887-10.752L10.8887-7.88086L8.01758-7.88086Q7.63672-7.88086 7.40723-7.65137Q7.17773-7.42188 7.17773-7.05078Z"/>
  </g>
  <g transform="matrix(1 0 0 1 305.646 1933)">
   <path d="M14.9707 5.66406Q17.0605 5.66406 18.96 5.01465Q20.8594 4.36523 22.4512 3.19336Q24.043 2.02148 25.2197 0.429688Q26.3965-1.16211 27.0459-3.06641Q27.6953-4.9707 27.6953-7.05078Q27.6953-9.14062 27.0459-11.04Q26.3965-12.9395 25.2197-14.5312Q24.043-16.123 22.4512-17.2998Q20.8594-18.4766 18.9551-19.126Q17.0508-19.7754 14.9609-19.7754Q12.8711-19.7754 10.9717-19.126Q9.07227-18.4766 7.48535-17.2998Q5.89844-16.123 4.72168-14.5312Q3.54492-12.9395 2.90039-11.04Q2.25586-9.14062 2.25586-7.05078Q2.25586-4.9707 2.90527-3.06641Q3.55469-1.16211 4.72656 0.429688Q5.89844 2.02148 7.49023 3.19336Q9.08203 4.36523 10.9814 5.01465Q12.8809 5.66406 14.9707 5.66406ZM14.9707 3.84766Q13.1641 3.84766 11.5283 3.2959Q9.89258 2.74414 8.53516 1.74805Q7.17773 0.751953 6.17676-0.610352Q5.17578-1.97266 4.62891-3.6084Q4.08203-5.24414 4.08203-7.05078Q4.08203-8.86719 4.62891-10.5029Q5.17578-12.1387 6.17188-13.501Q7.16797-14.8633 8.52539-15.8594Q9.88281-16.8555 11.5186-17.4023Q13.1543-17.9492 14.9609-17.9492Q16.7773-17.9492 18.4131-17.4023Q20.0488-16.8555 21.4111-15.8594Q22.7734-14.8633 23.7695-13.501Q24.7656-12.1387 25.3174-10.5029Q25.8691-8.86719 25.8691-7.05078Q25.8789-5.24414 25.332-3.6084Q24.7852-1.97266 23.7842-0.610352Q22.7832 0.751953 21.4209 1.74805Q20.0586 2.74414 18.4229 3.2959Q16.7871 3.84766 14.9707 3.84766ZM9.19922-7.05078Q9.19922-6.66992 9.45801-6.4209Q9.7168-6.17188 10.1172-6.17188L14.0625-6.17188L14.0625-2.2168Q14.0625-1.81641 14.3115-1.55762Q14.5605-1.29883 14.9512-1.29883Q15.3516-1.29883 15.6104-1.55273Q15.8691-1.80664 15.8691-2.2168L15.8691-6.17188L19.8242-6.17188Q20.2246-6.17188 20.4785-6.4209Q20.7324-6.66992 20.7324-7.05078Q20.7324-7.46094 20.4785-7.71484Q20.2246-7.96875 19.8242-7.96875L15.8691-7.96875L15.8691-11.9141Q15.8691-12.3242 15.6104-12.583Q15.3516-12.8418 14.9512-12.8418Q14.5605-12.8418 14.3115-12.583Q14.0625-12.3242 14.0625-11.9141L14.0625-7.96875L10.1172-7.96875Q9.70703-7.96875 9.45312-7.71484Q9.19922-7.46094 9.19922-7.05078Z"/>
  </g>
  <text style="stroke:none;fill:black;font-family:sans-serif;font-size:13;font-weight:bold;" transform="matrix(1 0 0 1 263 1953)">Design Variations</text>
  <text style="stroke:none;fill:black;font-family:sans-serif;font-size:13;" transform="matrix(1 0 0 1 263 1971)">Symbols are supported in up to nine weights and three scales.</text>
  <text style="stroke:none;fill:black;font-family:sans-serif;font-size:13;" transform="matrix(1 0 0 1 263 1989)">For optimal layout with text and other symbols, vertically align</text>
  <text style="stroke:none;fill:black;font-family:sans-serif;font-size:13;" transform="matrix(1 0 0 1 263 2007)">symbols with the adjacent text.</text>
  <line style="fill:none;stroke:#00AEEF;stroke-width:0.5;opacity:1.0;" x1="776" x2="776" y1="1919" y2="1933"/>
  <g transform="matrix(1 0 0 1 776 1933)">
   <path d="M3.31055 0.15625Q3.70117 0.15625 3.91602-0.00976562Q4.13086-0.175781 4.26758-0.585938L5.52734-4.0332L11.2891-4.0332L12.5488-0.585938Q12.6855-0.175781 12.9004-0.00976562Q13.1152 0.15625 13.4961 0.15625Q13.8867 0.15625 14.1162-0.0585938Q14.3457-0.273438 14.3457-0.644531Q14.3457-0.869141 14.2383-1.17188L9.6582-13.3691Q9.48242-13.8184 9.17969-14.043Q8.87695-14.2676 8.4082-14.2676Q7.5-14.2676 7.17773-13.3789L2.59766-1.16211Q2.49023-0.859375 2.49023-0.634766Q2.49023-0.263672 2.70996-0.0537109Q2.92969 0.15625 3.31055 0.15625ZM6.00586-5.51758L8.37891-12.0898L8.42773-12.0898L10.8008-5.51758Z"/>
  </g>
  <line style="fill:none;stroke:#00AEEF;stroke-width:0.5;opacity:1.0;" x1="793.197" x2="793.197" y1="1919" y2="1933"/>
  <text style="stroke:none;fill:black;font-family:sans-serif;font-size:13;font-weight:bold;" transform="matrix(1 0 0 1 776 1953)">Margins</text>
  <text style="stroke:none;fill:black;font-family:sans-serif;font-size:13;" transform="matrix(1 0 0 1 776 1971)">Leading and trailing margins on the left and right side of each symbol</text>
  <text style="stroke:none;fill:black;font-family:sans-serif;font-size:13;" transform="matrix(1 0 0 1 776 1989)">can be adjusted by modifying the x-location of the margin guidelines.</text>
  <text style="stroke:none;fill:black;font-family:sans-serif;font-size:13;" transform="matrix(1 0 0 1 776 2007)">Modifications are automatically applied proportionally to all</text>
  <text style="stroke:none;fill:black;font-family:sans-serif;font-size:13;" transform="matrix(1 0 0 1 776 2025)">scales and weights.</text>
  <g transform="matrix(1 0 0 1 1289 1933)">
   <path d="M2.8418 1.86523L4.54102 3.57422Q5.18555 4.22852 5.90332 4.17969Q6.62109 4.13086 7.31445 3.35938L18.0078-8.42773L17.041-9.4043L6.42578 2.27539Q6.16211 2.57812 5.89355 2.61719Q5.625 2.65625 5.27344 2.30469L4.10156 1.14258Q3.75 0.791016 3.79395 0.522461Q3.83789 0.253906 4.14062-0.0195312L15.6152-10.8203L14.6387-11.7871L3.04688-0.898438Q2.30469-0.214844 2.25098 0.498047Q2.19727 1.21094 2.8418 1.86523ZM9.25781-16.3281Q8.94531-16.0254 8.90625-15.6348Q8.86719-15.2441 9.04297-14.9512Q9.21875-14.6777 9.55566-14.541Q9.89258-14.4043 10.3809-14.5215Q11.4746-14.7754 12.5977-14.7314Q13.7207-14.6875 14.7949-13.9844L14.209-12.5293Q13.9551-11.9043 14.0674-11.4404Q14.1797-10.9766 14.5801-10.5664L16.875-8.25195Q17.2363-7.88086 17.5781-7.82227Q17.9199-7.76367 18.3398-7.8418L19.4043-8.03711L20.0684-7.36328L20.0293-6.80664Q20-6.43555 20.1221-6.12305Q20.2441-5.81055 20.6055-5.44922L21.3672-4.70703Q21.7285-4.3457 22.1533-4.33105Q22.5781-4.31641 22.9297-4.66797L25.8398-7.58789Q26.1914-7.93945 26.1816-8.35449Q26.1719-8.76953 25.8105-9.13086L25.0391-9.89258Q24.6875-10.2539 24.3799-10.3857Q24.0723-10.5176 23.7109-10.4883L23.1348-10.4395L22.4902-11.0742L22.7344-12.1973Q22.832-12.6172 22.6953-12.9834Q22.5586-13.3496 22.1191-13.7891L19.9219-15.9766Q18.6719-17.2168 17.2607-17.8369Q15.8496-18.457 14.4189-18.4814Q12.9883-18.5059 11.665-17.959Q10.3418-17.4121 9.25781-16.3281ZM10.752-15.957Q11.6602-16.6211 12.7002-16.9043Q13.7402-17.1875 14.8047-17.085Q15.8691-16.9824 16.8701-16.5137Q17.8711-16.0449 18.7012-15.2051L21.1328-12.793Q21.3086-12.6172 21.3525-12.4512Q21.3965-12.2852 21.3379-12.0312L21.0156-10.5469L22.5195-9.0625L23.5059-9.12109Q23.6914-9.13086 23.7891-9.09668Q23.8867-9.0625 24.0332-8.91602L24.6094-8.33984L22.168-5.89844L21.5918-6.47461Q21.4453-6.62109 21.4062-6.71875Q21.3672-6.81641 21.377-7.01172L21.4453-7.98828L19.9512-9.47266L18.4277-9.21875Q18.1836-9.16992 18.042-9.2041Q17.9004-9.23828 17.7148-9.41406L15.7129-11.416Q15.5176-11.5918 15.4932-11.7529Q15.4688-11.9141 15.5859-12.1875L16.4648-14.2773Q15.293-15.3711 13.8281-15.791Q12.3633-16.2109 10.8398-15.7617Q10.7227-15.7324 10.6885-15.8057Q10.6543-15.8789 10.752-15.957Z"/>
  </g>
  <text style="stroke:none;fill:black;font-family:sans-serif;font-size:13;font-weight:bold;" transform="matrix(1 0 0 1 1289 1953)">Exporting</text>
  <text style="stroke:none;fill:black;font-family:sans-serif;font-size:13;" transform="matrix(1 0 0 1 1289 1971)">Symbols should be outlined when exporting to ensure the</text>
  <text style="stroke:none;fill:black;font-family:sans-serif;font-size:13;" transform="matrix(1 0 0 1 1289 1989)">design is preserved when submitting to Xcode.</text>
  <text id="template-version" style="stroke:none;fill:black;font-family:sans-serif;font-size:13;text-anchor:end;" transform="matrix(1 0 0 1 3036 1933)">Template v.3.0</text>
  <text style="stroke:none;fill:black;font-family:sans-serif;font-size:13;text-anchor:end;" transform="matrix(1 0 0 1 3036 1951)">Requires Xcode 13 or greater</text>
  <text id="descriptive-name" style="stroke:none;fill:black;font-family:sans-serif;font-size:13;text-anchor:end;" transform="matrix(1 0 0 1 3036 1969)">Generated from pills.fill</text>
  <text style="stroke:none;fill:black;font-family:sans-serif;font-size:13;text-anchor:end;" transform="matrix(1 0 0 1 3036 1987)">Typeset at 100 points</text>
  <text style="stroke:none;fill:black;font-family:sans-serif;font-size:13;" transform="matrix(1 0 0 1 263 726)">Small</text>
  <text style="stroke:none;fill:black;font-family:sans-serif;font-size:13;" transform="matrix(1 0 0 1 263 1156)">Medium</text>
  <text style="stroke:none;fill:black;font-family:sans-serif;font-size:13;" transform="matrix(1 0 0 1 263 1586)">Large</text>
 </g>
 <g id="Guides">
  <g id="H-reference" style="fill:#27AAE1;stroke:none;" transform="matrix(1 0 0 1 339 696)">
   <path d="M0.976562 0L3.66211 0L29.3457-67.1387L30.0293-67.1387L30.0293-70.459L28.125-70.459ZM11.6699-24.4629L46.9727-24.4629L46.2402-26.709L12.4512-26.709ZM55.127 0L57.7637 0L30.6152-70.459L29.4434-70.459L29.4434-67.1387Z"/>
  </g>
  <line id="Baseline-S" style="fill:none;stroke:#27AAE1;opacity:1;stroke-width:0.5;" x1="263" x2="3036" y1="696" y2="696"/>
  <line id="Capline-S" style="fill:none;stroke:#27AAE1;opacity:1;stroke-width:0.5;" x1="263" x2="3036" y1="625.541" y2="625.541"/>
  <g id="H-reference" style="fill:#27AAE1;stroke:none;" transform="matrix(1 0 0 1 339 1126)">
   <path d="M0.976562 0L3.66211 0L29.3457-67.1387L30.0293-67.1387L30.0293-70.459L28.125-70.459ZM11.6699-24.4629L46.9727-24.4629L46.2402-26.709L12.4512-26.709ZM55.127 0L57.7637 0L30.6152-70.459L29.4434-70.459L29.4434-67.1387Z"/>
  </g>
  <line id="Baseline-M" style="fill:none;stroke:#27AAE1;opacity:1;stroke-width:0.5;" x1="263" x2="3036" y1="1126" y2="1126"/>
  <line id="Capline-M" style="fill:none;stroke:#27AAE1;opacity:1;stroke-width:0.5;" x1="263" x2="3036" y1="1055.54" y2="1055.54"/>
  <g id="H-reference" style="fill:#27AAE1;stroke:none;" transform="matrix(1 0 0 1 339 1556)">
   <path d="M0.976562 0L3.66211 0L29.3457-67.1387L30.0293-67.1387L30.0293-70.459L28.125-70.459ZM11.6699-24.4629L46.9727-24.4629L46.2402-26.709L12.4512-26.709ZM55.127 0L57.7637 0L30.6152-70.459L29.4434-70.459L29.4434-67.1387Z"/>
  </g>
  <line id="Baseline-L" style="fill:none;stroke:#27AAE1;opacity:1;stroke-width:0.5;" x1="263" x2="3036" y1="1556" y2="1556"/>
  <line id="Capline-L" style="fill:none;stroke:#27AAE1;opacity:1;stroke-width:0.5;" x1="263" x2="3036" y1="1485.54" y2="1485.54"/>
  <line id="left-margin-Ultralight-S" style="fill:none;stroke:#00AEEF;stroke-width:0.5;opacity:1.0;" x1="508.1" x2="508.1" y1="600.785" y2="720.121"/>
  <line id="right-margin-Ultralight-S" style="fill:none;stroke:#00AEEF;stroke-width:0.5;opacity:1.0;" x1="611.322" x2="611.322" y1="600.785" y2="720.121"/>
  <line id="left-margin-Thin-S" style="fill:none;stroke:#00AEEF;stroke-width:0.5;opacity:1.0;" x1="804.176" x2="804.176" y1="600.785" y2="720.121"/>
  <line id="right-margin-Thin-S" style="fill:none;stroke:#00AEEF;stroke-width:0.5;opacity:1.0;" x1="908.668" x2="908.668" y1="600.785" y2="720.121"/>
  <line id="left-margin-Light-S" style="fill:none;stroke:#00AEEF;stroke-width:0.5;opacity:1.0;" x1="1099.69" x2="1099.69" y1="600.785" y2="720.121"/>
  <line id="right-margin-Light-S" style="fill:none;stroke:#00AEEF;stroke-width:0.5;opacity:1.0;" x1="1206.58" x2="1206.58" y1="600.785" y2="720.121"/>
  <line id="left-margin-Regular-S" style="fill:none;stroke:#00AEEF;stroke-width:0.5;opacity:1.0;" x1="1395.5" x2="1395.5" y1="600.785" y2="720.121"/>
  <line id="right-margin-Regular-S" style="fill:none;stroke:#00AEEF;stroke-width:0.5;opacity:1.0;" x1="1504.19" x2="1504.19" y1="600.785" y2="720.121"/>
  <line id="left-margin-Medium-S" style="fill:none;stroke:#00AEEF;stroke-width:0.5;opacity:1.0;" x1="1691.23" x2="1691.23" y1="600.785" y2="720.121"/>
  <line id="right-margin-Medium-S" style="fill:none;stroke:#00AEEF;stroke-width:0.5;opacity:1.0;" x1="1801.88" x2="1801.88" y1="600.785" y2="720.121"/>
  <line id="left-margin-Semibold-S" style="fill:none;stroke:#00AEEF;stroke-width:0.5;opacity:1.0;" x1="1987.21" x2="1987.21" y1="600.785" y2="720.121"/>
  <line id="right-margin-Semibold-S" style="fill:none;stroke:#00AEEF;stroke-width:0.5;opacity:1.0;" x1="2099.32" x2="2099.32" y1="600.785" y2="720.121"/>
  <line id="left-margin-Bold-S" style="fill:none;stroke:#00AEEF;stroke-width:0.5;opacity:1.0;" x1="2282.92" x2="2282.92" y1="600.785" y2="720.121"/>
  <line id="right-margin-Bold-S" style="fill:none;stroke:#00AEEF;stroke-width:0.5;opacity:1.0;" x1="2397.03" x2="2397.03" y1="600.785" y2="720.121"/>
  <line id="left-margin-Heavy-S" style="fill:none;stroke:#00AEEF;stroke-width:0.5;opacity:1.0;" x1="2578.22" x2="2578.22" y1="600.785" y2="720.121"/>
  <line id="right-margin-Heavy-S" style="fill:none;stroke:#00AEEF;stroke-width:0.5;opacity:1.0;" x1="2695.16" x2="2695.16" y1="600.785" y2="720.121"/>
  <line id="left-margin-Black-S" style="fill:none;stroke:#00AEEF;stroke-width:0.5;opacity:1.0;" x1="2873.66" x2="2873.66" y1="600.785" y2="720.121"/>
  <line id="right-margin-Black-S" style="fill:none;stroke:#00AEEF;stroke-width:0.5;opacity:1.0;" x1="2993.14" x2="2993.14" y1="600.785" y2="720.121"/>
  <line id="left-margin-Ultralight-M" style="fill:none;stroke:#00AEEF;stroke-width:0.5;opacity:1.0;" x1="494.037" x2="494.037" y1="1030.79" y2="1150.12"/>
  <line id="right-margin-Ultralight-M" style="fill:none;stroke:#00AEEF;stroke-width:0.5;opacity:1.0;" x1="625.385" x2="625.385" y1="1030.79" y2="1150.12"/>
  <line id="left-margin-Thin-M" style="fill:none;stroke:#00AEEF;stroke-width:0.5;opacity:1.0;" x1="790.065" x2="790.065" y1="1030.79" y2="1150.12"/>
  <line id="right-margin-Thin-M" style="fill:none;stroke:#00AEEF;stroke-width:0.5;opacity:1.0;" x1="922.78" x2="922.78" y1="1030.79" y2="1150.12"/>
  <line id="left-margin-Light-M" style="fill:none;stroke:#00AEEF;stroke-width:0.5;opacity:1.0;" x1="1085.41" x2="1085.41" y1="1030.79" y2="1150.12"/>
  <line id="right-margin-Light-M" style="fill:none;stroke:#00AEEF;stroke-width:0.5;opacity:1.0;" x1="1220.86" x2="1220.86" y1="1030.79" y2="1150.12"/>
  <line id="left-margin-Regular-M" style="fill:none;stroke:#00AEEF;stroke-width:0.5;opacity:1.0;" x1="1381.09" x2="1381.09" y1="1030.79" y2="1150.12"/>
  <line id="right-margin-Regular-M" style="fill:none;stroke:#00AEEF;stroke-width:0.5;opacity:1.0;" x1="1518.59" x2="1518.59" y1="1030.79" y2="1150.12"/>
  <line id="left-margin-Medium-M" style="fill:none;stroke:#00AEEF;stroke-width:0.5;opacity:1.0;" x1="1676.56" x2="1676.56" y1="1030.79" y2="1150.12"/>
  <line id="right-margin-Medium-M" style="fill:none;stroke:#00AEEF;stroke-width:0.5;opacity:1.0;" x1="1816.55" x2="1816.55" y1="1030.79" y2="1150.12"/>
  <line id="left-margin-Semibold-M" style="fill:none;stroke:#00AEEF;stroke-width:0.5;opacity:1.0;" x1="1972.32" x2="1972.32" y1="1030.79" y2="1150.12"/>
  <line id="right-margin-Semibold-M" style="fill:none;stroke:#00AEEF;stroke-width:0.5;opacity:1.0;" x1="2114.21" x2="2114.21" y1="1030.79" y2="1150.12"/>
  <line id="left-margin-Bold-M" style="fill:none;stroke:#00AEEF;stroke-width:0.5;opacity:1.0;" x1="2267.76" x2="2267.76" y1="1030.79" y2="1150.12"/>
  <line id="right-margin-Bold-M" style="fill:none;stroke:#00AEEF;stroke-width:0.5;opacity:1.0;" x1="2412.19" x2="2412.19" y1="1030.79" y2="1150.12"/>
  <line id="left-margin-Heavy-M" style="fill:none;stroke:#00AEEF;stroke-width:0.5;opacity:1.0;" x1="2562.64" x2="2562.64" y1="1030.79" y2="1150.12"/>
  <line id="right-margin-Heavy-M" style="fill:none;stroke:#00AEEF;stroke-width:0.5;opacity:1.0;" x1="2710.74" x2="2710.74" y1="1030.79" y2="1150.12"/>
  <line id="left-margin-Black-M" style="fill:none;stroke:#00AEEF;stroke-width:0.5;opacity:1.0;" x1="2857.72" x2="2857.72" y1="1030.79" y2="1150.12"/>
  <line id="right-margin-Black-M" style="fill:none;stroke:#00AEEF;stroke-width:0.5;opacity:1.0;" x1="3009.08" x2="3009.08" y1="1030.79" y2="1150.12"/>
  <line id="left-margin-Ultralight-L" style="fill:none;stroke:#00AEEF;stroke-width:0.5;opacity:1.0;" x1="475.263" x2="475.263" y1="1460.79" y2="1580.12"/>
  <line id="right-margin-Ultralight-L" style="fill:none;stroke:#00AEEF;stroke-width:0.5;opacity:1.0;" x1="644.159" x2="644.159" y1="1460.79" y2="1580.12"/>
  <line id="left-margin-Thin-L" style="fill:none;stroke:#00AEEF;stroke-width:0.5;opacity:1.0;" x1="771.217" x2="771.217" y1="1460.79" y2="1580.12"/>
  <line id="right-margin-Thin-L" style="fill:none;stroke:#00AEEF;stroke-width:0.5;opacity:1.0;" x1="941.627" x2="941.627" y1="1460.79" y2="1580.12"/>
  <line id="left-margin-Light-L" style="fill:none;stroke:#00AEEF;stroke-width:0.5;opacity:1.0;" x1="1066.41" x2="1066.41" y1="1460.79" y2="1580.12"/>
  <line id="right-margin-Light-L" style="fill:none;stroke:#00AEEF;stroke-width:0.5;opacity:1.0;" x1="1239.85" x2="1239.85" y1="1460.79" y2="1580.12"/>
  <line id="left-margin-Regular-L" style="fill:none;stroke:#00AEEF;stroke-width:0.5;opacity:1.0;" x1="1361.98" x2="1361.98" y1="1460.79" y2="1580.12"/>
  <line id="right-margin-Regular-L" style="fill:none;stroke:#00AEEF;stroke-width:0.5;opacity:1.0;" x1="1537.71" x2="1537.71" y1="1460.79" y2="1580.12"/>
  <line id="left-margin-Medium-L" style="fill:none;stroke:#00AEEF;stroke-width:0.5;opacity:1.0;" x1="1657.22" x2="1657.22" y1="1460.79" y2="1580.12"/>
  <line id="right-margin-Medium-L" style="fill:none;stroke:#00AEEF;stroke-width:0.5;opacity:1.0;" x1="1835.89" x2="1835.89" y1="1460.79" y2="1580.12"/>
  <line id="left-margin-Semibold-L" style="fill:none;stroke:#00AEEF;stroke-width:0.5;opacity:1.0;" x1="1952.79" x2="1952.79" y1="1460.79" y2="1580.12"/>
  <line id="right-margin-Semibold-L" style="fill:none;stroke:#00AEEF;stroke-width:0.5;opacity:1.0;" x1="2133.75" x2="2133.75" y1="1460.79" y2="1580.12"/>
  <line id="left-margin-Bold-L" style="fill:none;stroke:#00AEEF;stroke-width:0.5;opacity:1.0;" x1="2248.01" x2="2248.01" y1="1460.79" y2="1580.12"/>
  <line id="right-margin-Bold-L" style="fill:none;stroke:#00AEEF;stroke-width:0.5;opacity:1.0;" x1="2431.95" x2="2431.95" y1="1460.79" y2="1580.12"/>
  <line id="left-margin-Heavy-L" style="fill:none;stroke:#00AEEF;stroke-width:0.5;opacity:1.0;" x1="2542.57" x2="2542.57" y1="1460.79" y2="1580.12"/>
  <line id="right-margin-Heavy-L" style="fill:none;stroke:#00AEEF;stroke-width:0.5;opacity:1.0;" x1="2730.81" x2="2730.81" y1="1460.79" y2="1580.12"/>
  <line id="left-margin-Black-L" style="fill:none;stroke:#00AEEF;stroke-width:0.5;opacity:1.0;" x1="2837.36" x2="2837.36" y1="1460.79" y2="1580.12"/>
  <line id="right-margin-Black-L" style="fill:none;stroke:#00AEEF;stroke-width:0.5;opacity:1.0;" x1="3029.44" x2="3029.44" y1="1460.79" y2="1580.12"/>
 </g>
 <g id="Symbols">
  <g id="Black-L" transform="matrix(1 0 0 1 2837.36 1556)">
   <path class="multicolor-0:systemGrayColor hierarchical-0:secondary SFSymbolsPreview8E8E93" d="M108.252-20.0195L123.779-4.49219Q130.518 2.24609 138.379 4.54102Q146.24 6.83594 153.979 4.76074Q161.719 2.68555 168.164-3.66211Q174.512-9.96094 176.611-17.749Q178.711-25.5371 176.392-33.4473Q174.072-41.3574 167.383-48.0957L151.855-63.623Z"/>
   <path class="multicolor-1:systemOrangeColor hierarchical-1:primary SFSymbolsPreviewFF9500" d="M94.1406-34.1309L137.695-77.7344L122.266-93.1641Q115.527-99.9512 107.666-102.246Q99.8047-104.541 92.041-102.466Q84.2773-100.391 77.8809-94.043Q71.5332-87.6953 69.458-79.9072Q67.3828-72.1191 69.6777-64.2334Q71.9727-56.3477 78.7109-49.6094ZM14.502 8.98438Q16.0156 15.1855 19.4336 20.4102Q22.8516 25.6348 27.7344 29.541Q32.6172 33.4473 38.5986 35.5713Q44.5801 37.6953 51.2695 37.6953Q57.9102 37.6953 63.8916 35.5469Q69.873 33.3984 74.7314 29.5166Q79.5898 25.6348 83.0078 20.3857Q86.4258 15.1367 87.9883 8.98438ZM14.502-9.375L87.9883-9.375Q86.4258-15.5273 83.0078-20.752Q79.5898-25.9766 74.7314-29.8584Q69.873-33.7402 63.8916-35.8887Q57.9102-38.0371 51.2695-38.0371Q44.6289-38.0371 38.6475-35.8887Q32.666-33.7402 27.7832-29.8584Q22.9004-25.9766 19.458-20.752Q16.0156-15.5273 14.502-9.375Z"/>
  </g>
  <g id="Heavy-L" transform="matrix(1 0 0 1 2542.57 1556)">
   <path class="multicolor-0:systemGrayColor hierarchical-0:secondary SFSymbolsPreview8E8E93" d="M105.225-21.2402L121.875-4.58984Q128.369 1.9043 135.913 4.12598Q143.457 6.34766 150.903 4.3457Q158.35 2.34375 164.6-3.80859Q170.752-9.91211 172.778-17.4072Q174.805-24.9023 172.583-32.4951Q170.361-40.0879 163.867-46.582L147.217-63.2324Z"/>
   <path class="multicolor-1:systemOrangeColor hierarchical-1:primary SFSymbolsPreviewFF9500" d="M93.1152-33.3984L135.01-75.3906L118.457-91.9434Q111.963-98.4863 104.419-100.708Q96.875-102.93 89.4043-100.928Q81.9336-98.9258 75.7324-92.7734Q69.5801-86.6211 67.5781-79.1504Q65.5762-71.6797 67.7734-64.0869Q69.9707-56.4941 76.5137-50ZM14.502 6.93359Q15.8203 13.0859 19.0918 18.3105Q22.3633 23.5352 27.124 27.4414Q31.8848 31.3477 37.7441 33.4961Q43.6035 35.6445 50.2441 35.6445Q56.7871 35.6445 62.6465 33.4717Q68.5059 31.2988 73.2422 27.417Q77.9785 23.5352 81.25 18.2861Q84.5215 13.0371 85.8887 6.93359ZM14.502-8.98438L85.8887-8.98438Q84.5215-15.0879 81.25-20.3125Q77.9785-25.5371 73.2422-29.4189Q68.5059-33.3008 62.6221-35.4492Q56.7383-37.5977 50.2441-37.5977Q43.6523-37.5977 37.793-35.4492Q31.9336-33.3008 27.1729-29.4189Q22.4121-25.5371 19.1162-20.3125Q15.8203-15.0879 14.502-8.98438Z"/>
  </g>
  <g id="Bold-L" transform="matrix(1 0 0 1 2248.01 1556)">
   <path class="multicolor-0:systemGrayColor hierarchical-0:secondary SFSymbolsPreview8E8E93" d="M101.807-22.6562L119.775-4.6875Q125.977 1.5625 133.179 3.68652Q140.381 5.81055 147.51 3.88184Q154.639 1.95312 160.645-4.00391Q166.553-9.91211 168.506-17.041Q170.459-24.1699 168.311-31.4209Q166.162-38.6719 159.961-44.873L141.992-62.8418Z"/>
   <path class="multicolor-1:systemOrangeColor hierarchical-1:primary SFSymbolsPreviewFF9500" d="M91.9434-32.5684L132.031-72.7539L114.209-90.625Q107.959-96.875 100.757-99.0234Q93.5547-101.172 86.4502-99.2432Q79.3457-97.3145 73.3398-91.3574Q67.3828-85.4492 65.4541-78.2959Q63.5254-71.1426 65.6494-63.916Q67.7734-56.6895 74.0234-50.4883ZM14.502 4.63867Q15.625 10.7422 18.7012 15.9668Q21.7773 21.1914 26.416 25.0977Q31.0547 29.0039 36.8164 31.1523Q42.5781 33.3008 49.0723 33.3008Q55.5176 33.3008 61.2549 31.1279Q66.9922 28.9551 71.6064 25.0732Q76.2207 21.1914 79.2969 15.9668Q82.373 10.7422 83.5449 4.63867ZM14.502-8.54492L83.5449-8.54492Q82.373-14.5996 79.2969-19.8242Q76.2207-25.0488 71.6064-28.9307Q66.9922-32.8125 61.2305-34.9854Q55.4688-37.1582 49.0723-37.1582Q42.627-37.1582 36.8652-34.9854Q31.1035-32.8125 26.4648-28.9307Q21.8262-25.0488 18.7256-19.8242Q15.625-14.5996 14.502-8.54492Z"/>
  </g>
  <g id="Semibold-L" transform="matrix(1 0 0 1 1952.79 1556)">
   <path class="multicolor-0:systemGrayColor hierarchical-0:secondary SFSymbolsPreview8E8E93" d="M99.4629-23.584L118.262-4.73633Q124.316 1.26953 131.274 3.34473Q138.232 5.41992 145.142 3.56445Q152.051 1.70898 157.861-4.15039Q163.672-9.86328 165.552-16.7725Q167.432-23.6816 165.356-30.6641Q163.281-37.6465 157.227-43.7012L138.379-62.5Z"/>
   <path class="multicolor-1:systemOrangeColor hierarchical-1:primary SFSymbolsPreviewFF9500" d="M91.1133-31.9824L129.98-70.8984L111.23-89.6973Q105.225-95.752 98.2422-97.8271Q91.2598-99.9023 84.3994-98.0225Q77.5391-96.1426 71.6309-90.332Q65.8691-84.6191 63.9893-77.71Q62.1094-70.8008 64.1846-63.8184Q66.2598-56.8359 72.3145-50.7812ZM14.502 3.02734Q15.4785 9.13086 18.4326 14.3555Q21.3867 19.5801 25.9277 23.4619Q30.4688 27.3438 36.1328 29.5166Q41.7969 31.6895 48.2422 31.6895Q54.5898 31.6895 60.2783 29.5166Q65.9668 27.3438 70.459 23.4375Q74.9512 19.5312 77.9297 14.3311Q80.9082 9.13086 81.8848 3.02734ZM14.502-8.20312L81.8848-8.20312Q80.9082-14.2578 77.9297-19.458Q74.9512-24.6582 70.459-28.5645Q65.9668-32.4707 60.2783-34.6436Q54.5898-36.8164 48.2422-36.8164Q41.8457-36.8164 36.1816-34.6436Q30.5176-32.4707 25.9766-28.5645Q21.4355-24.6582 18.457-19.458Q15.4785-14.2578 14.502-8.20312Z"/>
  </g>
  <g id="Medium-L" transform="matrix(1 0 0 1 1657.22 1556)">
   <path class="multicolor-0:systemGrayColor hierarchical-0:secondary SFSymbolsPreview8E8E93" d="M97.7051-24.3164L117.188-4.83398Q123.047 1.07422 129.834 3.125Q136.621 5.17578 143.335 3.32031Q150.049 1.46484 155.811-4.19922Q161.475-9.86328 163.33-16.5771Q165.186-23.291 163.135-30.1025Q161.084-36.9141 155.176-42.8223L135.693-62.3047Z"/>
   <path class="multicolor-1:systemOrangeColor hierarchical-1:primary SFSymbolsPreviewFF9500" d="M90.4785-31.5918L128.418-69.5312L109.033-89.0137Q103.125-94.9219 96.3379-96.9482Q89.5508-98.9746 82.8613-97.1436Q76.1719-95.3125 70.4102-89.5996Q64.7461-83.9844 62.8906-77.2461Q61.0352-70.5078 63.0615-63.6963Q65.0879-56.8848 71.0449-51.0254ZM14.502 1.80664Q15.3809 7.91016 18.2373 13.1348Q21.0938 18.3594 25.5615 22.2412Q30.0293 26.123 35.6445 28.2959Q41.2598 30.4688 47.6074 30.4688Q53.9551 30.4688 59.5459 28.2959Q65.1367 26.123 69.5801 22.2168Q74.0234 18.3105 76.9043 13.1104Q79.7852 7.91016 80.6641 1.80664ZM14.502-7.95898L80.6641-7.95898Q79.7852-14.0137 76.9043-19.2139Q74.0234-24.4141 69.5801-28.3203Q65.1367-32.2266 59.5215-34.3994Q53.9062-36.5723 47.6074-36.5723Q41.3086-36.5723 35.6934-34.3994Q30.0781-32.2266 25.6104-28.3203Q21.1426-24.4141 18.2617-19.2139Q15.3809-14.0137 14.502-7.95898Z"/>
  </g>
  <g id="Regular-L" transform="matrix(1 0 0 1 1361.98 1556)">
   <path class="multicolor-0:systemGrayColor hierarchical-0:secondary SFSymbolsPreview8E8E93" d="M95.3613-25.2441L115.723-4.88281Q121.436 0.830078 127.979 2.80762Q134.521 4.78516 141.016 3.00293Q147.51 1.2207 153.076-4.3457Q158.594-9.81445 160.4-16.3086Q162.207-22.8027 160.229-29.3701Q158.252-35.9375 152.49-41.6504L132.129-62.0117Z"/>
   <path class="multicolor-1:systemOrangeColor hierarchical-1:primary SFSymbolsPreviewFF9500" d="M89.6973-31.0059L126.367-67.7246L106.104-88.0859Q100.391-93.7988 93.8477-95.7764Q87.3047-97.7539 80.835-95.9717Q74.3652-94.1895 68.75-88.623Q63.2324-83.1543 61.4502-76.6602Q59.668-70.166 61.6211-63.5986Q63.5742-57.0312 69.3359-51.3184ZM14.502 0.244141Q15.2344 6.29883 17.9688 11.5234Q20.7031 16.748 25.0732 20.6299Q29.4434 24.5117 34.9854 26.709Q40.5273 28.9062 46.8262 28.9062Q53.0762 28.9062 58.5938 26.709Q64.1113 24.5117 68.457 20.6055Q72.8027 16.6992 75.5615 11.499Q78.3203 6.29883 79.0527 0.244141ZM14.502-7.66602L79.0527-7.66602Q78.3203-13.6719 75.5615-18.8721Q72.8027-24.0723 68.457-27.9785Q64.1113-31.8848 58.5693-34.0576Q53.0273-36.2305 46.8262-36.2305Q40.5762-36.2305 35.0342-34.0576Q29.4922-31.8848 25.1221-27.9785Q20.752-24.0723 17.9932-18.8721Q15.2344-13.6719 14.502-7.66602Z"/>
  </g>
  <g id="Light-L" transform="matrix(1 0 0 1 1066.41 1556)">
   <path class="multicolor-0:systemGrayColor hierarchical-0:secondary SFSymbolsPreview8E8E93" d="M93.4082-26.2695L114.551-5.17578Q120.068 0.341797 126.416 2.24609Q132.764 4.15039 139.087 2.36816Q145.41 0.585938 150.879-4.88281Q156.299-10.2539 158.105-16.5771Q159.912-22.9004 158.008-29.2725Q156.104-35.6445 150.537-41.1621L129.443-62.3047Z"/>
   <path class="multicolor-1:systemOrangeColor hierarchical-1:primary SFSymbolsPreviewFF9500" d="M89.0137-30.7617L124.951-66.748L103.955-87.8418Q98.3887-93.3594 92.041-95.2637Q85.6934-97.168 79.3945-95.3857Q73.0957-93.6035 67.5781-88.1348Q62.1582-82.7637 60.376-76.4404Q58.5938-70.1172 60.4736-63.7451Q62.3535-57.373 67.9199-51.8066ZM14.502-0.634766Q15.0879 5.46875 17.7246 10.7178Q20.3613 15.9668 24.6826 19.8975Q29.0039 23.8281 34.4971 26.0498Q39.9902 28.2715 46.2891 28.2715Q52.5391 28.2715 58.0078 26.0498Q63.4766 23.8281 67.7734 19.873Q72.0703 15.918 74.7314 10.6934Q77.3926 5.46875 77.9785-0.634766ZM14.502-6.78711L77.9785-6.78711Q77.3926-12.8418 74.7314-18.0908Q72.0703-23.3398 67.7734-27.2705Q63.4766-31.2012 57.9834-33.3984Q52.4902-35.5957 46.2891-35.5957Q40.0391-35.5957 34.5459-33.3984Q29.0527-31.2012 24.7314-27.2705Q20.4102-23.3398 17.749-18.0908Q15.0879-12.8418 14.502-6.78711Z"/>
  </g>
  <g id="Thin-L" transform="matrix(1 0 0 1 771.217 1556)">
   <path class="multicolor-0:systemGrayColor hierarchical-0:secondary SFSymbolsPreview8E8E93" d="M90.8691-27.6855L112.939-5.56641Q118.262-0.244141 124.341 1.53809Q130.42 3.32031 136.523 1.53809Q142.627-0.244141 147.998-5.56641Q153.271-10.8398 155.054-16.9189Q156.836-22.998 155.054-29.126Q153.271-35.2539 147.949-40.5762L125.879-62.6953Z"/>
   <path class="multicolor-1:systemOrangeColor hierarchical-1:primary SFSymbolsPreviewFF9500" d="M88.0859-30.4199L123.047-65.4297L101.074-87.5Q95.752-92.8223 89.6729-94.5801Q83.5938-96.3379 77.5146-94.5557Q71.4355-92.7734 66.0645-87.4512Q60.791-82.2266 59.0088-76.123Q57.2266-70.0195 58.9844-63.916Q60.7422-57.8125 66.0645-52.4902ZM14.502-1.75781Q14.8438 4.3457 17.3828 9.64355Q19.9219 14.9414 24.1455 18.9453Q28.3691 22.9492 33.8623 25.1953Q39.3555 27.4414 45.5566 27.4414Q51.7578 27.4414 57.2021 25.1953Q62.6465 22.9492 66.8701 18.9209Q71.0938 14.8926 73.6572 9.61914Q76.2207 4.3457 76.5625-1.75781ZM14.502-5.66406L76.5625-5.66406Q76.2207-11.7188 73.6572-17.0166Q71.0938-22.3145 66.8701-26.3184Q62.6465-30.3223 57.1777-32.5439Q51.709-34.7656 45.5566-34.7656Q39.4043-34.7656 33.9111-32.5439Q28.418-30.3223 24.1943-26.3184Q19.9707-22.3145 17.4072-17.0166Q14.8438-11.7188 14.502-5.66406Z"/>
  </g>
  <g id="Ultralight-L" transform="matrix(1 0 0 1 475.263 1556)">
   <path class="multicolor-0:systemGrayColor hierarchical-0:secondary SFSymbolsPreview8E8E93" d="M89.5508-28.3691L112.158-5.81055Q117.334-0.585938 123.291 1.14746Q129.248 2.88086 135.229 1.09863Q141.211-0.683594 146.484-5.95703Q151.709-11.1328 153.491-17.1143Q155.273-23.0957 153.564-29.0771Q151.855-35.0586 146.631-40.2344L124.023-62.8906Z"/>
   <path class="multicolor-1:systemOrangeColor hierarchical-1:primary SFSymbolsPreviewFF9500" d="M87.5977-30.2734L122.119-64.7949L99.6094-87.3047Q94.3848-92.5293 88.4277-94.2383Q82.4707-95.9473 76.5137-94.165Q70.5566-92.3828 65.2344-87.1094Q60.0586-81.9336 58.2764-75.9521Q56.4941-69.9707 58.2031-63.9893Q59.9121-58.0078 65.1367-52.832ZM14.502-2.34375Q14.7461 3.80859 17.2363 9.13086Q19.7266 14.4531 23.9014 18.457Q28.0762 22.4609 33.5205 24.7314Q38.9648 27.002 45.2148 27.002Q51.416 27.002 56.8359 24.7314Q62.2559 22.4609 66.4307 18.4326Q70.6055 14.4043 73.0957 9.08203Q75.5859 3.75977 75.8301-2.34375ZM14.502-5.07812L75.8301-5.07812Q75.5859-11.1816 73.0957-16.5039Q70.6055-21.8262 66.4062-25.8301Q62.207-29.834 56.7871-32.0801Q51.3672-34.3262 45.2148-34.3262Q39.0137-34.3262 33.5693-32.0801Q28.125-29.834 23.9502-25.8301Q19.7754-21.8262 17.2607-16.5039Q14.7461-11.1816 14.502-5.07812Z"/>
  </g>
  <g id="Black-M" transform="matrix(1 0 0 1 2857.72 1126)">
   <path class="multicolor-0:systemGrayColor hierarchical-0:secondary SFSymbolsPreview8E8E93" d="M85.8398-22.7539L97.1191-11.4258Q102.539-6.05469 108.813-4.24805Q115.088-2.44141 121.289-4.10156Q127.49-5.76172 132.617-10.791Q137.695-15.8203 139.355-22.0459Q141.016-28.2715 139.209-34.6191Q137.402-40.9668 132.031-46.3379L120.752-57.6172Z"/>
   <path class="multicolor-1:systemOrangeColor hierarchical-1:primary SFSymbolsPreviewFF9500" d="M73.6328-34.9609L108.545-69.8242L97.3145-81.1035Q91.8945-86.4746 85.5957-88.3057Q79.2969-90.1367 73.0957-88.4766Q66.8945-86.8164 61.8164-81.7383Q56.7383-76.6602 55.0781-70.4346Q53.418-64.209 55.2246-57.8857Q57.0312-51.5625 62.4023-46.1914ZM11.2305 0.488281Q12.9395 6.93359 17.1875 11.9873Q21.4355 17.041 27.4414 19.9463Q33.4473 22.8516 40.4297 22.8516Q47.4121 22.8516 53.3936 19.9463Q59.375 17.041 63.623 11.9873Q67.8711 6.93359 69.6289 0.488281ZM11.2305-15.2344L69.6289-15.2344Q67.8711-21.6797 63.623-26.709Q59.375-31.7383 53.3936-34.6436Q47.4121-37.5488 40.4297-37.5488Q33.4961-37.5488 27.4902-34.6436Q21.4844-31.7383 17.2363-26.709Q12.9883-21.6797 11.2305-15.2344Z"/>
  </g>
  <g id="Heavy-M" transform="matrix(1 0 0 1 2562.64 1126)">
   <path class="multicolor-0:systemGrayColor hierarchical-0:secondary SFSymbolsPreview8E8E93" d="M83.3008-23.7305L95.5078-11.4258Q100.732-6.29883 106.738-4.54102Q112.744-2.7832 118.701-4.37012Q124.658-5.95703 129.59-10.8398Q134.521-15.6738 136.108-21.6553Q137.695-27.6367 135.938-33.7158Q134.18-39.7949 129.004-44.9707L116.797-57.2266Z"/>
   <path class="multicolor-1:systemOrangeColor hierarchical-1:primary SFSymbolsPreviewFF9500" d="M72.7539-34.2773L106.25-67.7246L94.043-79.9805Q88.8184-85.1562 82.7881-86.9141Q76.7578-88.6719 70.8008-87.085Q64.8438-85.498 59.9609-80.6152Q55.0781-75.6836 53.4668-69.7266Q51.8555-63.7695 53.6133-57.7148Q55.3711-51.6602 60.5469-46.4844ZM11.2305-1.31836Q12.7441 5.07812 16.8213 10.1074Q20.8984 15.1367 26.7822 18.042Q32.666 20.9473 39.502 20.9473Q46.3867 20.9473 52.2217 18.042Q58.0566 15.1367 62.1582 10.1074Q66.2598 5.07812 67.7734-1.31836ZM11.2305-15.0391L67.7734-15.0391Q66.2598-21.4355 62.1826-26.4404Q58.1055-31.4453 52.2461-34.3506Q46.3867-37.2559 39.502-37.2559Q32.666-37.2559 26.8066-34.3506Q20.9473-31.4453 16.8701-26.4404Q12.793-21.4355 11.2305-15.0391Z"/>
  </g>
  <g id="Bold-M" transform="matrix(1 0 0 1 2267.76 1126)">
   <path class="multicolor-0:systemGrayColor hierarchical-0:secondary SFSymbolsPreview8E8E93" d="M80.4199-24.8535L93.75-11.4746Q98.7305-6.54297 104.443-4.8584Q110.156-3.17383 115.82-4.6875Q121.484-6.20117 126.27-10.8887Q130.957-15.5762 132.495-21.2402Q134.033-26.9043 132.324-32.6904Q130.615-38.4766 125.684-43.4082L112.354-56.7383Z"/>
   <path class="multicolor-1:systemOrangeColor hierarchical-1:primary SFSymbolsPreviewFF9500" d="M71.7773-33.5449L103.662-65.4297L90.3809-78.7109Q85.4004-83.6914 79.6631-85.4004Q73.9258-87.1094 68.2617-85.5713Q62.5977-84.0332 57.9102-79.3457Q53.1738-74.6094 51.6602-68.9453Q50.1465-63.2812 51.8311-57.5195Q53.5156-51.7578 58.4473-46.8262ZM11.2305-3.36914Q12.5 2.97852 16.4062 8.00781Q20.3125 13.0371 26.0498 15.9424Q31.7871 18.8477 38.5254 18.8477Q45.2148 18.8477 50.9277 15.9424Q56.6406 13.0371 60.5469 8.00781Q64.4531 2.97852 65.7715-3.36914ZM11.2305-14.7949L65.7715-14.7949Q64.4531-21.1426 60.5469-26.1475Q56.6406-31.1523 50.9277-34.0576Q45.2148-36.9629 38.5254-36.9629Q31.7871-36.9629 26.0742-34.0576Q20.3613-31.1523 16.4551-26.1475Q12.5488-21.1426 11.2305-14.7949Z"/>
  </g>
  <g id="Semibold-M" transform="matrix(1 0 0 1 1972.32 1126)">
   <path class="multicolor-0:systemGrayColor hierarchical-0:secondary SFSymbolsPreview8E8E93" d="M78.4668-25.5859L92.5293-11.4746Q97.3145-6.73828 102.832-5.07812Q108.35-3.41797 113.818-4.88281Q119.287-6.34766 123.926-10.9375Q128.516-15.4297 129.98-20.9229Q131.445-26.416 129.785-31.9824Q128.125-37.5488 123.34-42.334L109.277-56.3965Z"/>
   <path class="multicolor-1:systemOrangeColor hierarchical-1:primary SFSymbolsPreviewFF9500" d="M71.0449-33.0078L101.855-63.8184L87.8418-77.832Q83.0566-82.666 77.5146-84.3262Q71.9727-85.9863 66.5039-84.4971Q61.0352-83.0078 56.4453-78.418Q51.8555-73.877 50.3906-68.4082Q48.9258-62.9395 50.5615-57.373Q52.1973-51.8066 57.0312-47.0215ZM11.2305-4.78516Q12.3535 1.5625 16.1377 6.54297Q19.9219 11.5234 25.5371 14.4531Q31.1523 17.3828 37.793 17.3828Q44.4336 17.3828 50.0244 14.4531Q55.6152 11.5234 59.3994 6.51855Q63.1836 1.51367 64.3555-4.78516ZM11.2305-14.6484L64.3555-14.6484Q63.2324-20.8984 59.4482-25.9033Q55.6641-30.9082 50.0488-33.8379Q44.4336-36.7676 37.793-36.7676Q31.1523-36.7676 25.5371-33.8379Q19.9219-30.9082 16.1377-25.9033Q12.3535-20.8984 11.2305-14.6484Z"/>
  </g>
  <g id="Medium-M" transform="matrix(1 0 0 1 1676.56 1126)">
   <path class="multicolor-0:systemGrayColor hierarchical-0:secondary SFSymbolsPreview8E8E93" d="M76.9531-26.1719L91.6016-11.5234Q96.2402-6.83594 101.611-5.22461Q106.982-3.61328 112.305-5.05371Q117.627-6.49414 122.168-10.9375Q126.66-15.3809 128.101-20.7031Q129.541-26.0254 127.905-31.4453Q126.27-36.8652 121.582-41.5527L106.934-56.1523Z"/>
   <path class="multicolor-1:systemOrangeColor hierarchical-1:primary SFSymbolsPreviewFF9500" d="M70.5566-32.6172L100.488-62.5977L85.9375-77.1973Q81.25-81.8848 75.8789-83.4961Q70.5078-85.1074 65.1855-83.6914Q59.8633-82.2754 55.3711-77.7832Q50.8789-73.291 49.4385-67.9932Q47.998-62.6953 49.6094-57.2998Q51.2207-51.9043 55.9082-47.2168ZM11.2305-5.85938Q12.207 0.439453 15.8936 5.44434Q19.5801 10.4492 25.1221 13.3789Q30.6641 16.3086 37.2559 16.3086Q43.7988 16.3086 49.3164 13.3789Q54.834 10.4492 58.5205 5.41992Q62.207 0.390625 63.2812-5.85938ZM11.2305-14.502L63.2812-14.502Q62.2559-20.752 58.5693-25.7324Q54.8828-30.7129 49.3408-33.6426Q43.7988-36.5723 37.2559-36.5723Q30.7129-36.5723 25.1465-33.6426Q19.5801-30.7129 15.8936-25.7324Q12.207-20.752 11.2305-14.502Z"/>
  </g>
  <g id="Regular-M" transform="matrix(1 0 0 1 1381.09 1126)">
   <path class="multicolor-0:systemGrayColor hierarchical-0:secondary SFSymbolsPreview8E8E93" d="M75-26.9043L90.3809-11.5234Q94.873-7.03125 100.049-5.44434Q105.225-3.85742 110.352-5.24902Q115.479-6.64062 119.873-10.9863Q124.219-15.2832 125.61-20.4102Q127.002-25.5371 125.415-30.7373Q123.828-35.9375 119.287-40.4785L103.906-55.8594Z"/>
   <path class="multicolor-1:systemOrangeColor hierarchical-1:primary SFSymbolsPreviewFF9500" d="M69.873-32.0801L98.7305-60.9863L83.4473-76.3184Q78.9062-80.8594 73.7305-82.4463Q68.5547-84.0332 63.4277-82.6416Q58.3008-81.25 53.9551-76.9043Q49.6094-72.5586 48.2178-67.4561Q46.8262-62.3535 48.3887-57.1533Q49.9512-51.9531 54.4922-47.4121ZM11.2305-7.22656Q12.0605-0.976562 15.625 4.00391Q19.1895 8.98438 24.6338 11.9141Q30.0781 14.8438 36.5723 14.8438Q43.0176 14.8438 48.4375 11.9141Q53.8574 8.98438 57.4219 3.97949Q60.9863-1.02539 61.8652-7.22656ZM11.2305-14.3555L61.8652-14.3555Q61.0352-20.5566 57.4707-25.5371Q53.9062-30.5176 48.4619-33.4473Q43.0176-36.377 36.5723-36.377Q30.0781-36.377 24.6338-33.4473Q19.1895-30.5176 15.625-25.5371Q12.0605-20.5566 11.2305-14.3555Z"/>
  </g>
  <g id="Light-M" transform="matrix(1 0 0 1 1085.41 1126)">
   <path class="multicolor-0:systemGrayColor hierarchical-0:secondary SFSymbolsPreview8E8E93" d="M73.2422-27.832L89.3066-11.8164Q93.6523-7.42188 98.6572-5.93262Q103.662-4.44336 108.643-5.81055Q113.623-7.17773 117.92-11.4746Q122.168-15.6738 123.56-20.6543Q124.951-25.6348 123.438-30.6641Q121.924-35.6934 117.529-40.0391L101.514-56.1035Z"/>
   <path class="multicolor-1:systemOrangeColor hierarchical-1:primary SFSymbolsPreviewFF9500" d="M69.2871-31.8848L97.4609-60.1074L81.4941-76.0742Q77.0996-80.4688 72.1191-81.9824Q67.1387-83.4961 62.1582-82.1045Q57.1777-80.7129 52.9297-76.4648Q48.6328-72.2168 47.2412-67.2607Q45.8496-62.3047 47.3633-57.2754Q48.877-52.2461 53.2227-47.8516ZM11.2305-8.00781Q11.8652-1.70898 15.3564 3.32031Q18.8477 8.34961 24.2432 11.3037Q29.6387 14.2578 36.084 14.2578Q42.5293 14.2578 47.9004 11.3037Q53.2715 8.34961 56.7383 3.2959Q60.2051-1.75781 60.8887-8.00781ZM11.2305-13.5742L60.8887-13.5742Q60.2539-19.8242 56.7871-24.8535Q53.3203-29.8828 47.9004-32.8369Q42.4805-35.791 36.084-35.791Q29.6387-35.791 24.2432-32.8369Q18.8477-29.8828 15.3564-24.8535Q11.8652-19.8242 11.2305-13.5742Z"/>
  </g>
  <g id="Thin-M" transform="matrix(1 0 0 1 790.065 1126)">
   <path class="multicolor-0:systemGrayColor hierarchical-0:secondary SFSymbolsPreview8E8E93" d="M70.9473-29.1016L87.8906-12.1582Q92.041-7.95898 96.8018-6.56738Q101.562-5.17578 106.348-6.56738Q111.133-7.95898 115.283-12.0605Q119.434-16.2109 120.801-20.9717Q122.168-25.7324 120.776-30.542Q119.385-35.3516 115.186-39.502L98.3398-56.4453Z"/>
   <path class="multicolor-1:systemOrangeColor hierarchical-1:primary SFSymbolsPreviewFF9500" d="M68.457-31.5918L95.8008-58.9355L78.9551-75.7812Q74.7559-79.9805 69.9951-81.3721Q65.2344-82.7637 60.4736-81.3721Q55.7129-79.9805 51.5137-75.8301Q47.4121-71.7285 46.0205-66.9678Q44.6289-62.207 46.0205-57.4219Q47.4121-52.6367 51.5625-48.4375ZM11.2305-9.0332Q11.6211-2.73438 14.9902 2.39258Q18.3594 7.51953 23.6816 10.5225Q29.0039 13.5254 35.4492 13.5254Q41.8457 13.5254 47.1924 10.498Q52.5391 7.4707 55.8594 2.36816Q59.1797-2.73438 59.6191-9.0332ZM11.2305-12.5488L59.6191-12.5488Q59.2285-18.8477 55.8594-23.9502Q52.4902-29.0527 47.168-32.0557Q41.8457-35.0586 35.4492-35.0586Q29.0527-35.0586 23.7061-32.0557Q18.3594-29.0527 14.9902-23.9502Q11.6211-18.8477 11.2305-12.5488Z"/>
  </g>
  <g id="Ultralight-M" transform="matrix(1 0 0 1 494.037 1126)">
   <path class="multicolor-0:systemGrayColor hierarchical-0:secondary SFSymbolsPreview8E8E93" d="M69.7754-29.7363L87.1582-12.3535Q91.2109-8.25195 95.8496-6.90918Q100.488-5.56641 105.176-6.93359Q109.863-8.30078 113.965-12.4023Q118.066-16.4551 119.434-21.1426Q120.801-25.8301 119.458-30.4932Q118.115-35.1562 114.014-39.209L96.6797-56.5918Z"/>
   <path class="multicolor-1:systemOrangeColor hierarchical-1:primary SFSymbolsPreviewFF9500" d="M68.0664-31.4453L94.9219-58.3496L77.6367-75.6348Q73.5352-79.7363 68.8965-81.0791Q64.2578-82.4219 59.5947-81.0303Q54.9316-79.6387 50.8301-75.5371Q46.7285-71.5332 45.3369-66.8457Q43.9453-62.1582 45.3125-57.4951Q46.6797-52.832 50.7324-48.7305ZM11.2305-9.52148Q11.5234-3.22266 14.8193 1.92871Q18.1152 7.08008 23.4131 10.1074Q28.7109 13.1348 35.1074 13.1348Q41.5039 13.1348 46.8262 10.083Q52.1484 7.03125 55.4199 1.87988Q58.6914-3.27148 58.9355-9.52148ZM11.2305-12.0605L58.9355-12.0605Q58.6914-18.3105 55.3955-23.4619Q52.0996-28.6133 46.7773-31.6406Q41.4551-34.668 35.1074-34.668Q28.7598-34.668 23.4375-31.6406Q18.1152-28.6133 14.8193-23.4619Q11.5234-18.3105 11.2305-12.0605Z"/>
  </g>
  <g id="Black-S" transform="matrix(1 0 0 1 2873.66 696)">
   <path class="multicolor-0:systemGrayColor hierarchical-0:secondary SFSymbolsPreview8E8E93" d="M67.9199-25.1953L76.5137-16.6016Q80.8105-12.3535 85.791-10.9131Q90.7715-9.47266 95.7031-10.791Q100.635-12.1094 104.688-16.1133Q108.74-20.1172 110.059-25.0488Q111.377-29.9805 109.937-35.0342Q108.496-40.0879 104.248-44.3359L95.6543-52.9297Z"/>
   <path class="multicolor-1:systemOrangeColor hierarchical-1:primary SFSymbolsPreviewFF9500" d="M57.9102-35.2051L85.6445-62.9395L77.0996-71.4844Q72.8516-75.7812 67.8223-77.2217Q62.793-78.6621 57.8857-77.3438Q52.9785-76.0254 48.9258-71.9727Q44.9219-67.9688 43.6035-63.0127Q42.2852-58.0566 43.7012-53.0273Q45.1172-47.998 49.3652-43.75ZM8.78906-6.73828Q10.2051-1.66016 13.5742 2.31934Q16.9434 6.29883 21.6797 8.56934Q26.416 10.8398 31.9336 10.8398Q37.4512 10.8398 42.1631 8.54492Q46.875 6.25 50.2441 2.27051Q53.6133-1.70898 55.0293-6.73828ZM8.78906-19.5801L55.0293-19.5801Q53.6133-24.6582 50.2441-28.6133Q46.875-32.5684 42.1631-34.8389Q37.4512-37.1094 31.9336-37.1094Q26.4648-37.1094 21.7041-34.8389Q16.9434-32.5684 13.5742-28.6133Q10.2051-24.6582 8.78906-19.5801Z"/>
  </g>
  <g id="Heavy-S" transform="matrix(1 0 0 1 2578.22 696)">
   <path class="multicolor-0:systemGrayColor hierarchical-0:secondary SFSymbolsPreview8E8E93" d="M65.9668-25.9277L75.293-16.6016Q79.4434-12.5 84.2041-11.084Q88.9648-9.66797 93.7012-10.9375Q98.4375-12.207 102.393-16.1133Q106.25-19.9707 107.52-24.6826Q108.789-29.3945 107.397-34.2529Q106.006-39.1113 101.904-43.2129L92.5781-52.5391Z"/>
   <path class="multicolor-1:systemOrangeColor hierarchical-1:primary SFSymbolsPreviewFF9500" d="M57.2266-34.668L83.8379-61.2793L74.5605-70.5566Q70.459-74.707 65.625-76.0986Q60.791-77.4902 56.0791-76.2207Q51.3672-74.9512 47.4609-71.0449Q43.6035-67.1875 42.334-62.4268Q41.0645-57.666 42.4561-52.8564Q43.8477-48.0469 47.9492-43.9453ZM8.78906-8.20312Q10.0586-3.17383 13.3057 0.78125Q16.5527 4.73633 21.167 7.00684Q25.7812 9.27734 31.2012 9.27734Q36.6211 9.27734 41.2354 6.98242Q45.8496 4.6875 49.0967 0.732422Q52.3438-3.22266 53.5645-8.20312ZM8.78906-19.5312L53.5645-19.5312Q52.3438-24.5117 49.0967-28.4424Q45.8496-32.373 41.2354-34.6436Q36.6211-36.9141 31.2012-36.9141Q25.8301-36.9141 21.1914-34.6436Q16.5527-32.373 13.3057-28.4424Q10.0586-24.5117 8.78906-19.5312Z"/>
  </g>
  <g id="Bold-S" transform="matrix(1 0 0 1 2282.92 696)">
   <path class="multicolor-0:systemGrayColor hierarchical-0:secondary SFSymbolsPreview8E8E93" d="M63.7695-26.7578L73.9258-16.6016Q77.8809-12.6465 82.4463-11.3037Q87.0117-9.96094 91.5283-11.1572Q96.0449-12.3535 99.8047-16.0645Q103.516-19.7754 104.736-24.292Q105.957-28.8086 104.59-33.3984Q103.223-37.9883 99.2676-41.9434L89.1113-52.0996Z"/>
   <path class="multicolor-1:systemOrangeColor hierarchical-1:primary SFSymbolsPreviewFF9500" d="M56.4941-34.0332L81.8359-59.375L71.7285-69.5312Q67.7734-73.4863 63.1836-74.8535Q58.5938-76.2207 54.1016-75Q49.6094-73.7793 45.8496-70.0684Q42.1387-66.3086 40.918-61.792Q39.6973-57.2754 41.0645-52.6855Q42.4316-48.0957 46.3379-44.1406ZM8.78906-9.81445Q9.86328-4.88281 12.9639-0.927734Q16.0645 3.02734 20.5811 5.29785Q25.0977 7.56836 30.4199 7.56836Q35.6934 7.56836 40.1855 5.27344Q44.6777 2.97852 47.7783-0.952148Q50.8789-4.88281 52.002-9.81445ZM8.78906-19.4336L52.002-19.4336Q50.9277-24.4141 47.8027-28.3203Q44.6777-32.2266 40.1855-34.4971Q35.6934-36.7676 30.4199-36.7676Q25.1465-36.7676 20.6299-34.4971Q16.1133-32.2266 12.9883-28.3203Q9.86328-24.4141 8.78906-19.4336Z"/>
  </g>
  <g id="Semibold-S" transform="matrix(1 0 0 1 1987.21 696)">
   <path class="multicolor-0:systemGrayColor hierarchical-0:secondary SFSymbolsPreview8E8E93" d="M62.207-27.2949L72.998-16.5527Q76.8066-12.7441 81.2012-11.4258Q85.5957-10.1074 89.9658-11.2549Q94.3359-12.4023 97.998-16.0645Q101.611-19.6289 102.783-23.999Q103.955-28.3691 102.637-32.7881Q101.318-37.207 97.4609-41.0645L86.7188-51.8066Z"/>
   <path class="multicolor-1:systemOrangeColor hierarchical-1:primary SFSymbolsPreviewFF9500" d="M55.957-33.5938L80.4199-58.0566L69.7266-68.7988Q65.918-72.6074 61.499-73.9502Q57.0801-75.293 52.7344-74.1211Q48.3887-72.9492 44.7266-69.3359Q41.1133-65.7227 39.9414-61.3525Q38.7695-56.9824 40.0879-52.5635Q41.4062-48.1445 45.2148-44.2871ZM8.78906-10.9375Q9.7168-6.00586 12.7197-2.09961Q15.7227 1.80664 20.166 4.07715Q24.6094 6.34766 29.834 6.34766Q35.0586 6.34766 39.4775 4.07715Q43.8965 1.80664 46.8994-2.12402Q49.9023-6.05469 50.8789-10.9375ZM8.78906-19.3848L50.8789-19.3848Q49.9023-24.2676 46.8994-28.1738Q43.8965-32.0801 39.4775-34.3506Q35.0586-36.6211 29.834-36.6211Q24.6094-36.6211 20.1904-34.3506Q15.7715-32.0801 12.7441-28.1738Q9.7168-24.2676 8.78906-19.3848Z"/>
  </g>
  <g id="Medium-S" transform="matrix(1 0 0 1 1691.23 696)">
   <path class="multicolor-0:systemGrayColor hierarchical-0:secondary SFSymbolsPreview8E8E93" d="M61.084-27.7344L72.2656-16.5527Q76.0254-12.8418 80.2979-11.5479Q84.5703-10.2539 88.8184-11.3525Q93.0664-12.4512 96.6309-16.0156Q100.195-19.5801 101.318-23.8037Q102.441-28.0273 101.147-32.3242Q99.8535-36.6211 96.0938-40.4297L84.9121-51.5625Z"/>
   <path class="multicolor-1:systemOrangeColor hierarchical-1:primary SFSymbolsPreviewFF9500" d="M55.5664-33.3008L79.3457-57.0801L68.2617-68.2617Q64.502-71.9727 60.2051-73.291Q55.9082-74.6094 51.6846-73.4863Q47.4609-72.3633 43.8965-68.7988Q40.332-65.2344 39.1846-61.0107Q38.0371-56.7871 39.3555-52.4658Q40.6738-48.1445 44.3848-44.3848ZM8.78906-11.7676Q9.66797-6.88477 12.5732-3.00293Q15.4785 0.878906 19.873 3.14941Q24.2676 5.41992 29.3945 5.41992Q34.5703 5.41992 38.916 3.14941Q43.2617 0.878906 46.1914-3.02734Q49.1211-6.93359 50-11.7676ZM8.78906-19.3359L50-19.3359Q49.1699-24.2188 46.2158-28.1006Q43.2617-31.9824 38.916-34.2529Q34.5703-36.5234 29.3945-36.5234Q24.2676-36.5234 19.8975-34.2529Q15.5273-31.9824 12.5977-28.1006Q9.66797-24.2188 8.78906-19.3359Z"/>
  </g>
  <g id="Regular-S" transform="matrix(1 0 0 1 1395.5 696)">
   <path class="multicolor-0:systemGrayColor hierarchical-0:secondary SFSymbolsPreview8E8E93" d="M59.5703-28.2715L71.3379-16.5527Q74.9512-12.9395 79.0771-11.6699Q83.2031-10.4004 87.3047-11.4746Q91.4062-12.5488 94.873-16.0156Q98.291-19.4336 99.3896-23.5107Q100.488-27.5879 99.2188-31.7383Q97.9492-35.8887 94.2871-39.5508L82.5684-51.2695Z"/>
   <path class="multicolor-1:systemOrangeColor hierarchical-1:primary SFSymbolsPreviewFF9500" d="M55.0293-32.8613L77.9785-55.8105L66.3086-67.5293Q62.6953-71.1426 58.5449-72.4365Q54.3945-73.7305 50.3174-72.6318Q46.2402-71.5332 42.7734-68.1152Q39.3066-64.6484 38.208-60.5713Q37.1094-56.4941 38.4033-52.3438Q39.6973-48.1934 43.3105-44.5312ZM8.78906-12.8906Q9.52148-8.05664 12.3535-4.1748Q15.1855-0.292969 19.4824 1.97754Q23.7793 4.24805 28.8574 4.24805Q33.9355 4.24805 38.208 1.97754Q42.4805-0.292969 45.3125-4.1748Q48.1445-8.05664 48.9258-12.8906ZM8.78906-19.2871L48.9258-19.2871Q48.1934-24.1211 45.3369-27.9785Q42.4805-31.8359 38.208-34.1064Q33.9355-36.377 28.8574-36.377Q23.7793-36.377 19.5068-34.1064Q15.2344-31.8359 12.3779-27.9785Q9.52148-24.1211 8.78906-19.2871Z"/>
  </g>
  <g id="Light-S" transform="matrix(1 0 0 1 1099.69 696)">
   <path class="multicolor-0:systemGrayColor hierarchical-0:secondary SFSymbolsPreview8E8E93" d="M58.0566-29.1016L70.3613-16.7969Q73.877-13.2812 77.832-12.085Q81.7871-10.8887 85.7666-11.9629Q89.7461-13.0371 93.1152-16.4551Q96.4844-19.7754 97.5586-23.7305Q98.6328-27.6855 97.4365-31.665Q96.2402-35.6445 92.7246-39.1602L80.4199-51.4648Z"/>
   <path class="multicolor-1:systemOrangeColor hierarchical-1:primary SFSymbolsPreviewFF9500" d="M54.4922-32.666L76.8555-55.0293L64.5996-67.334Q61.084-70.8008 57.1045-72.0215Q53.125-73.2422 49.1943-72.1436Q45.2637-71.0449 41.8457-67.7246Q38.4766-64.3555 37.3779-60.4004Q36.2793-56.4453 37.5-52.4414Q38.7207-48.4375 42.1875-44.9219ZM8.78906-13.5742Q9.375-8.69141 12.1094-4.76074Q14.8438-0.830078 19.1162 1.46484Q23.3887 3.75977 28.418 3.75977Q33.4961 3.75977 37.7197 1.44043Q41.9434-0.878906 44.7021-4.80957Q47.4609-8.74023 48.0957-13.5742ZM8.78906-18.6035L48.0957-18.6035Q47.5098-23.4375 44.7266-27.3682Q41.9434-31.2988 37.7197-33.5938Q33.4961-35.8887 28.418-35.8887Q23.3887-35.8887 19.1406-33.5938Q14.8926-31.2988 12.1338-27.3682Q9.375-23.4375 8.78906-18.6035Z"/>
  </g>
  <g id="Thin-S" transform="matrix(1 0 0 1 804.176 696)">
   <path class="multicolor-0:systemGrayColor hierarchical-0:secondary SFSymbolsPreview8E8E93" d="M56.0059-30.1758L69.1406-17.0898Q72.4121-13.7695 76.1963-12.6709Q79.9805-11.5723 83.7646-12.6465Q87.5488-13.7207 90.7715-16.9922Q94.0918-20.2148 95.166-23.999Q96.2402-27.7832 95.1172-31.5674Q93.9941-35.3516 90.7227-38.6719L77.5879-51.7578Z"/>
   <path class="multicolor-1:systemOrangeColor hierarchical-1:primary SFSymbolsPreviewFF9500" d="M53.7598-32.4219L75.3418-54.0039L62.3535-67.0898Q58.9844-70.3613 55.2246-71.4844Q51.4648-72.6074 47.6807-71.5332Q43.8965-70.459 40.625-67.1875Q37.3535-63.9648 36.2549-60.1807Q35.1562-56.3965 36.2793-52.5879Q37.4023-48.7793 40.7227-45.459ZM8.78906-14.502Q9.17969-9.57031 11.8164-5.59082Q14.4531-1.61133 18.6523 0.732422Q22.8516 3.07617 27.8809 3.07617Q32.9102 3.07617 37.1094 0.732422Q41.3086-1.61133 43.9453-5.61523Q46.582-9.61914 46.9727-14.502ZM8.78906-17.6758L46.9727-17.6758Q46.582-22.5586 43.9453-26.5381Q41.3086-30.5176 37.085-32.8613Q32.8613-35.2051 27.8809-35.2051Q22.8516-35.2051 18.6523-32.8613Q14.4531-30.5176 11.8164-26.5381Q9.17969-22.5586 8.78906-17.6758Z"/>
  </g>
  <g id="Ultralight-S" transform="matrix(1 0 0 1 508.1 696)">
   <path class="multicolor-0:systemGrayColor hierarchical-0:secondary SFSymbolsPreview8E8E93" d="M54.9805-30.7129L68.457-17.2363Q71.6797-14.0137 75.3418-12.9639Q79.0039-11.9141 82.7148-12.9883Q86.4258-14.0625 89.5996-17.2852Q92.8223-20.4102 93.8965-24.1211Q94.9707-27.832 93.9209-31.5186Q92.8711-35.2051 89.6484-38.4277L76.1719-51.9043Z"/>
   <path class="multicolor-1:systemOrangeColor hierarchical-1:primary SFSymbolsPreviewFF9500" d="M53.418-32.3242L74.5605-53.5156L61.1816-66.9434Q57.9102-70.166 54.248-71.2158Q50.5859-72.2656 46.9238-71.1914Q43.2617-70.1172 39.9902-66.8945Q36.7676-63.7207 35.6934-60.0342Q34.6191-56.3477 35.6934-52.6611Q36.7676-48.9746 39.9414-45.752ZM8.78906-14.9902Q9.08203-10.0098 11.6455-5.98145Q14.209-1.95312 18.3838 0.390625Q22.5586 2.73438 27.5879 2.73438Q32.6172 2.73438 36.7676 0.366211Q40.918-2.00195 43.5059-6.03027Q46.0938-10.0586 46.3867-14.9902ZM8.78906-17.1875L46.3867-17.1875Q46.0938-22.1191 43.5059-26.1475Q40.918-30.1758 36.7432-32.5195Q32.5684-34.8633 27.5879-34.8633Q22.6074-34.8633 18.4326-32.5195Q14.2578-30.1758 11.6699-26.1475Q9.08203-22.1191 8.78906-17.1875Z"/>
  </g>
 </g>
</svg>
