<?xml version="1.0" encoding="UTF-8"?>
<!--Generator: Apple Native CoreSVG 175-->
<!DOCTYPE svg
PUBLIC "-//W3C//DTD SVG 1.1//EN"
       "http://www.w3.org/Graphics/SVG/1.1/DTD/svg11.dtd">
<svg version="1.1" xmlns="http://www.w3.org/2000/svg" xmlns:xlink="http://www.w3.org/1999/xlink" width="3300" height="2200">
 <!--glyph: "uni100945.medium", point size: 100.0, font version: "17.0d11e1", template writer version: "65.1"-->
 <g id="Notes">
  <rect height="2200" id="artboard" style="fill:white;opacity:1" width="3300" x="0" y="0"/>
  <line style="fill:none;stroke:black;opacity:1;stroke-width:0.5;" x1="263" x2="3036" y1="292" y2="292"/>
  <text style="stroke:none;fill:black;font-family:sans-serif;font-size:13;font-weight:bold;" transform="matrix(1 0 0 1 263 322)">Weight/Scale Variations</text>
  <text style="stroke:none;fill:black;font-family:sans-serif;font-size:13;text-anchor:middle;" transform="matrix(1 0 0 1 559.711 322)">Ultralight</text>
  <text style="stroke:none;fill:black;font-family:sans-serif;font-size:13;text-anchor:middle;" transform="matrix(1 0 0 1 856.422 322)">Thin</text>
  <text style="stroke:none;fill:black;font-family:sans-serif;font-size:13;text-anchor:middle;" transform="matrix(1 0 0 1 1153.13 322)">Light</text>
  <text style="stroke:none;fill:black;font-family:sans-serif;font-size:13;text-anchor:middle;" transform="matrix(1 0 0 1 1449.84 322)">Regular</text>
  <text style="stroke:none;fill:black;font-family:sans-serif;font-size:13;text-anchor:middle;" transform="matrix(1 0 0 1 1746.56 322)">Medium</text>
  <text style="stroke:none;fill:black;font-family:sans-serif;font-size:13;text-anchor:middle;" transform="matrix(1 0 0 1 2043.27 322)">Semibold</text>
  <text style="stroke:none;fill:black;font-family:sans-serif;font-size:13;text-anchor:middle;" transform="matrix(1 0 0 1 2339.98 322)">Bold</text>
  <text style="stroke:none;fill:black;font-family:sans-serif;font-size:13;text-anchor:middle;" transform="matrix(1 0 0 1 2636.69 322)">Heavy</text>
  <text style="stroke:none;fill:black;font-family:sans-serif;font-size:13;text-anchor:middle;" transform="matrix(1 0 0 1 2933.4 322)">Black</text>
  <line style="fill:none;stroke:black;opacity:1;stroke-width:0.5;" x1="263" x2="3036" y1="1903" y2="1903"/>
  <g transform="matrix(1 0 0 1 263 1933)">
   <path d="M9.24805 0.830078Q10.8691 0.830078 12.2949 0.214844Q13.7207-0.400391 14.8096-1.49414Q15.8984-2.58789 16.5186-4.01367Q17.1387-5.43945 17.1387-7.05078Q17.1387-8.66211 16.5186-10.0879Q15.8984-11.5137 14.8047-12.6074Q13.7109-13.7012 12.2852-14.3164Q10.8594-14.9316 9.23828-14.9316Q7.62695-14.9316 6.20117-14.3164Q4.77539-13.7012 3.69141-12.6074Q2.60742-11.5137 1.9873-10.0879Q1.36719-8.66211 1.36719-7.05078Q1.36719-5.43945 1.9873-4.01367Q2.60742-2.58789 3.69629-1.49414Q4.78516-0.400391 6.21094 0.214844Q7.63672 0.830078 9.24805 0.830078ZM9.24805-0.654297Q7.91992-0.654297 6.7627-1.14746Q5.60547-1.64062 4.73145-2.51953Q3.85742-3.39844 3.36426-4.56055Q2.87109-5.72266 2.87109-7.05078Q2.87109-8.37891 3.35938-9.54102Q3.84766-10.7031 4.72168-11.582Q5.5957-12.4609 6.75293-12.9541Q7.91016-13.4473 9.23828-13.4473Q10.5762-13.4473 11.7334-12.9541Q12.8906-12.4609 13.7695-11.582Q14.6484-10.7031 15.1465-9.54102Q15.6445-8.37891 15.6445-7.05078Q15.6445-5.72266 15.1514-4.56055Q14.6582-3.39844 13.7842-2.51953Q12.9102-1.64062 11.748-1.14746Q10.5859-0.654297 9.24805-0.654297ZM5.6543-7.05078Q5.6543-6.72852 5.85938-6.52832Q6.06445-6.32812 6.40625-6.32812L8.51562-6.32812L8.51562-4.20898Q8.51562-3.88672 8.71094-3.67676Q8.90625-3.4668 9.23828-3.4668Q9.56055-3.4668 9.77051-3.67676Q9.98047-3.88672 9.98047-4.20898L9.98047-6.32812L12.0898-6.32812Q12.4219-6.32812 12.627-6.52832Q12.832-6.72852 12.832-7.05078Q12.832-7.38281 12.627-7.58789Q12.4219-7.79297 12.0898-7.79297L9.98047-7.79297L9.98047-9.90234Q9.98047-10.2344 9.77051-10.4443Q9.56055-10.6543 9.23828-10.6543Q8.90625-10.6543 8.71094-10.4443Q8.51562-10.2344 8.51562-9.90234L8.51562-7.79297L6.40625-7.79297Q6.06445-7.79297 5.85938-7.58789Q5.6543-7.38281 5.6543-7.05078Z"/>
  </g>
  <g transform="matrix(1 0 0 1 281.867 1933)">
   <path d="M11.709 2.91016Q13.75 2.91016 15.5518 2.12891Q17.3535 1.34766 18.7305-0.0292969Q20.1074-1.40625 20.8887-3.20801Q21.6699-5.00977 21.6699-7.05078Q21.6699-9.0918 20.8887-10.8936Q20.1074-12.6953 18.7305-14.0723Q17.3535-15.4492 15.5469-16.2305Q13.7402-17.0117 11.6992-17.0117Q9.6582-17.0117 7.85645-16.2305Q6.05469-15.4492 4.68262-14.0723Q3.31055-12.6953 2.5293-10.8936Q1.74805-9.0918 1.74805-7.05078Q1.74805-5.00977 2.5293-3.20801Q3.31055-1.40625 4.6875-0.0292969Q6.06445 1.34766 7.86621 2.12891Q9.66797 2.91016 11.709 2.91016ZM11.709 1.25Q9.98047 1.25 8.47656 0.605469Q6.97266-0.0390625 5.83496-1.17676Q4.69727-2.31445 4.05762-3.81836Q3.41797-5.32227 3.41797-7.05078Q3.41797-8.7793 4.05762-10.2832Q4.69727-11.7871 5.83008-12.9297Q6.96289-14.0723 8.4668-14.7119Q9.9707-15.3516 11.6992-15.3516Q13.4277-15.3516 14.9316-14.7119Q16.4355-14.0723 17.5781-12.9297Q18.7207-11.7871 19.3652-10.2832Q20.0098-8.7793 20.0098-7.05078Q20.0098-5.32227 19.3701-3.81836Q18.7305-2.31445 17.5928-1.17676Q16.4551-0.0390625 14.9463 0.605469Q13.4375 1.25 11.709 1.25ZM7.17773-7.05078Q7.17773-6.69922 7.41211-6.47461Q7.64648-6.25 8.01758-6.25L10.8887-6.25L10.8887-3.36914Q10.8887-2.99805 11.1133-2.76855Q11.3379-2.53906 11.6895-2.53906Q12.0605-2.53906 12.29-2.76855Q12.5195-2.99805 12.5195-3.36914L12.5195-6.25L15.4004-6.25Q15.7715-6.25 16.001-6.47461Q16.2305-6.69922 16.2305-7.05078Q16.2305-7.42188 16.001-7.65137Q15.7715-7.88086 15.4004-7.88086L12.5195-7.88086L12.5195-10.752Q12.5195-11.1328 12.29-11.3623Q12.0605-11.5918 11.6895-11.5918Q11.3379-11.5918 11.1133-11.3574Q10.8887-11.123 10.8887-10.752L10.8887-7.88086L8.01758-7.88086Q7.63672-7.88086 7.40723-7.65137Q7.17773-7.42188 7.17773-7.05078Z"/>
  </g>
  <g transform="matrix(1 0 0 1 305.646 1933)">
   <path d="M14.9707 5.66406Q17.0605 5.66406 18.96 5.01465Q20.8594 4.36523 22.4512 3.19336Q24.043 2.02148 25.2197 0.429688Q26.3965-1.16211 27.0459-3.06641Q27.6953-4.9707 27.6953-7.05078Q27.6953-9.14062 27.0459-11.04Q26.3965-12.9395 25.2197-14.5312Q24.043-16.123 22.4512-17.2998Q20.8594-18.4766 18.9551-19.126Q17.0508-19.7754 14.9609-19.7754Q12.8711-19.7754 10.9717-19.126Q9.07227-18.4766 7.48535-17.2998Q5.89844-16.123 4.72168-14.5312Q3.54492-12.9395 2.90039-11.04Q2.25586-9.14062 2.25586-7.05078Q2.25586-4.9707 2.90527-3.06641Q3.55469-1.16211 4.72656 0.429688Q5.89844 2.02148 7.49023 3.19336Q9.08203 4.36523 10.9814 5.01465Q12.8809 5.66406 14.9707 5.66406ZM14.9707 3.84766Q13.1641 3.84766 11.5283 3.2959Q9.89258 2.74414 8.53516 1.74805Q7.17773 0.751953 6.17676-0.610352Q5.17578-1.97266 4.62891-3.6084Q4.08203-5.24414 4.08203-7.05078Q4.08203-8.86719 4.62891-10.5029Q5.17578-12.1387 6.17188-13.501Q7.16797-14.8633 8.52539-15.8594Q9.88281-16.8555 11.5186-17.4023Q13.1543-17.9492 14.9609-17.9492Q16.7773-17.9492 18.4131-17.4023Q20.0488-16.8555 21.4111-15.8594Q22.7734-14.8633 23.7695-13.501Q24.7656-12.1387 25.3174-10.5029Q25.8691-8.86719 25.8691-7.05078Q25.8789-5.24414 25.332-3.6084Q24.7852-1.97266 23.7842-0.610352Q22.7832 0.751953 21.4209 1.74805Q20.0586 2.74414 18.4229 3.2959Q16.7871 3.84766 14.9707 3.84766ZM9.19922-7.05078Q9.19922-6.66992 9.45801-6.4209Q9.7168-6.17188 10.1172-6.17188L14.0625-6.17188L14.0625-2.2168Q14.0625-1.81641 14.3115-1.55762Q14.5605-1.29883 14.9512-1.29883Q15.3516-1.29883 15.6104-1.55273Q15.8691-1.80664 15.8691-2.2168L15.8691-6.17188L19.8242-6.17188Q20.2246-6.17188 20.4785-6.4209Q20.7324-6.66992 20.7324-7.05078Q20.7324-7.46094 20.4785-7.71484Q20.2246-7.96875 19.8242-7.96875L15.8691-7.96875L15.8691-11.9141Q15.8691-12.3242 15.6104-12.583Q15.3516-12.8418 14.9512-12.8418Q14.5605-12.8418 14.3115-12.583Q14.0625-12.3242 14.0625-11.9141L14.0625-7.96875L10.1172-7.96875Q9.70703-7.96875 9.45312-7.71484Q9.19922-7.46094 9.19922-7.05078Z"/>
  </g>
  <text style="stroke:none;fill:black;font-family:sans-serif;font-size:13;font-weight:bold;" transform="matrix(1 0 0 1 263 1953)">Design Variations</text>
  <text style="stroke:none;fill:black;font-family:sans-serif;font-size:13;" transform="matrix(1 0 0 1 263 1971)">Symbols are supported in up to nine weights and three scales.</text>
  <text style="stroke:none;fill:black;font-family:sans-serif;font-size:13;" transform="matrix(1 0 0 1 263 1989)">For optimal layout with text and other symbols, vertically align</text>
  <text style="stroke:none;fill:black;font-family:sans-serif;font-size:13;" transform="matrix(1 0 0 1 263 2007)">symbols with the adjacent text.</text>
  <line style="fill:none;stroke:#00AEEF;stroke-width:0.5;opacity:1.0;" x1="776" x2="776" y1="1919" y2="1933"/>
  <g transform="matrix(1 0 0 1 776 1933)">
   <path d="M3.31055 0.15625Q3.70117 0.15625 3.91602-0.00976562Q4.13086-0.175781 4.26758-0.585938L5.52734-4.0332L11.2891-4.0332L12.5488-0.585938Q12.6855-0.175781 12.9004-0.00976562Q13.1152 0.15625 13.4961 0.15625Q13.8867 0.15625 14.1162-0.0585938Q14.3457-0.273438 14.3457-0.644531Q14.3457-0.869141 14.2383-1.17188L9.6582-13.3691Q9.48242-13.8184 9.17969-14.043Q8.87695-14.2676 8.4082-14.2676Q7.5-14.2676 7.17773-13.3789L2.59766-1.16211Q2.49023-0.859375 2.49023-0.634766Q2.49023-0.263672 2.70996-0.0537109Q2.92969 0.15625 3.31055 0.15625ZM6.00586-5.51758L8.37891-12.0898L8.42773-12.0898L10.8008-5.51758Z"/>
  </g>
  <line style="fill:none;stroke:#00AEEF;stroke-width:0.5;opacity:1.0;" x1="793.197" x2="793.197" y1="1919" y2="1933"/>
  <text style="stroke:none;fill:black;font-family:sans-serif;font-size:13;font-weight:bold;" transform="matrix(1 0 0 1 776 1953)">Margins</text>
  <text style="stroke:none;fill:black;font-family:sans-serif;font-size:13;" transform="matrix(1 0 0 1 776 1971)">Leading and trailing margins on the left and right side of each symbol</text>
  <text style="stroke:none;fill:black;font-family:sans-serif;font-size:13;" transform="matrix(1 0 0 1 776 1989)">can be adjusted by modifying the x-location of the margin guidelines.</text>
  <text style="stroke:none;fill:black;font-family:sans-serif;font-size:13;" transform="matrix(1 0 0 1 776 2007)">Modifications are automatically applied proportionally to all</text>
  <text style="stroke:none;fill:black;font-family:sans-serif;font-size:13;" transform="matrix(1 0 0 1 776 2025)">scales and weights.</text>
  <g transform="matrix(1 0 0 1 1289 1933)">
   <path d="M2.8418 1.86523L4.54102 3.57422Q5.18555 4.22852 5.90332 4.17969Q6.62109 4.13086 7.31445 3.35938L18.0078-8.42773L17.041-9.4043L6.42578 2.27539Q6.16211 2.57812 5.89355 2.61719Q5.625 2.65625 5.27344 2.30469L4.10156 1.14258Q3.75 0.791016 3.79395 0.522461Q3.83789 0.253906 4.14062-0.0195312L15.6152-10.8203L14.6387-11.7871L3.04688-0.898438Q2.30469-0.214844 2.25098 0.498047Q2.19727 1.21094 2.8418 1.86523ZM9.25781-16.3281Q8.94531-16.0254 8.90625-15.6348Q8.86719-15.2441 9.04297-14.9512Q9.21875-14.6777 9.55566-14.541Q9.89258-14.4043 10.3809-14.5215Q11.4746-14.7754 12.5977-14.7314Q13.7207-14.6875 14.7949-13.9844L14.209-12.5293Q13.9551-11.9043 14.0674-11.4404Q14.1797-10.9766 14.5801-10.5664L16.875-8.25195Q17.2363-7.88086 17.5781-7.82227Q17.9199-7.76367 18.3398-7.8418L19.4043-8.03711L20.0684-7.36328L20.0293-6.80664Q20-6.43555 20.1221-6.12305Q20.2441-5.81055 20.6055-5.44922L21.3672-4.70703Q21.7285-4.3457 22.1533-4.33105Q22.5781-4.31641 22.9297-4.66797L25.8398-7.58789Q26.1914-7.93945 26.1816-8.35449Q26.1719-8.76953 25.8105-9.13086L25.0391-9.89258Q24.6875-10.2539 24.3799-10.3857Q24.0723-10.5176 23.7109-10.4883L23.1348-10.4395L22.4902-11.0742L22.7344-12.1973Q22.832-12.6172 22.6953-12.9834Q22.5586-13.3496 22.1191-13.7891L19.9219-15.9766Q18.6719-17.2168 17.2607-17.8369Q15.8496-18.457 14.4189-18.4814Q12.9883-18.5059 11.665-17.959Q10.3418-17.4121 9.25781-16.3281ZM10.752-15.957Q11.6602-16.6211 12.7002-16.9043Q13.7402-17.1875 14.8047-17.085Q15.8691-16.9824 16.8701-16.5137Q17.8711-16.0449 18.7012-15.2051L21.1328-12.793Q21.3086-12.6172 21.3525-12.4512Q21.3965-12.2852 21.3379-12.0312L21.0156-10.5469L22.5195-9.0625L23.5059-9.12109Q23.6914-9.13086 23.7891-9.09668Q23.8867-9.0625 24.0332-8.91602L24.6094-8.33984L22.168-5.89844L21.5918-6.47461Q21.4453-6.62109 21.4062-6.71875Q21.3672-6.81641 21.377-7.01172L21.4453-7.98828L19.9512-9.47266L18.4277-9.21875Q18.1836-9.16992 18.042-9.2041Q17.9004-9.23828 17.7148-9.41406L15.7129-11.416Q15.5176-11.5918 15.4932-11.7529Q15.4688-11.9141 15.5859-12.1875L16.4648-14.2773Q15.293-15.3711 13.8281-15.791Q12.3633-16.2109 10.8398-15.7617Q10.7227-15.7324 10.6885-15.8057Q10.6543-15.8789 10.752-15.957Z"/>
  </g>
  <text style="stroke:none;fill:black;font-family:sans-serif;font-size:13;font-weight:bold;" transform="matrix(1 0 0 1 1289 1953)">Exporting</text>
  <text style="stroke:none;fill:black;font-family:sans-serif;font-size:13;" transform="matrix(1 0 0 1 1289 1971)">Symbols should be outlined when exporting to ensure the</text>
  <text style="stroke:none;fill:black;font-family:sans-serif;font-size:13;" transform="matrix(1 0 0 1 1289 1989)">design is preserved when submitting to Xcode.</text>
  <text id="template-version" style="stroke:none;fill:black;font-family:sans-serif;font-size:13;text-anchor:end;" transform="matrix(1 0 0 1 3036 1933)">Template v.3.0</text>
  <text style="stroke:none;fill:black;font-family:sans-serif;font-size:13;text-anchor:end;" transform="matrix(1 0 0 1 3036 1951)">Requires Xcode 13 or greater</text>
  <text id="descriptive-name" style="stroke:none;fill:black;font-family:sans-serif;font-size:13;text-anchor:end;" transform="matrix(1 0 0 1 3036 1969)">Generated from newspaper.fill</text>
  <text style="stroke:none;fill:black;font-family:sans-serif;font-size:13;text-anchor:end;" transform="matrix(1 0 0 1 3036 1987)">Typeset at 100 points</text>
  <text style="stroke:none;fill:black;font-family:sans-serif;font-size:13;" transform="matrix(1 0 0 1 263 726)">Small</text>
  <text style="stroke:none;fill:black;font-family:sans-serif;font-size:13;" transform="matrix(1 0 0 1 263 1156)">Medium</text>
  <text style="stroke:none;fill:black;font-family:sans-serif;font-size:13;" transform="matrix(1 0 0 1 263 1586)">Large</text>
 </g>
 <g id="Guides">
  <g id="H-reference" style="fill:#27AAE1;stroke:none;" transform="matrix(1 0 0 1 339 696)">
   <path d="M0.976562 0L3.66211 0L29.3457-67.1387L30.0293-67.1387L30.0293-70.459L28.125-70.459ZM11.6699-24.4629L46.9727-24.4629L46.2402-26.709L12.4512-26.709ZM55.127 0L57.7637 0L30.6152-70.459L29.4434-70.459L29.4434-67.1387Z"/>
  </g>
  <line id="Baseline-S" style="fill:none;stroke:#27AAE1;opacity:1;stroke-width:0.5;" x1="263" x2="3036" y1="696" y2="696"/>
  <line id="Capline-S" style="fill:none;stroke:#27AAE1;opacity:1;stroke-width:0.5;" x1="263" x2="3036" y1="625.541" y2="625.541"/>
  <g id="H-reference" style="fill:#27AAE1;stroke:none;" transform="matrix(1 0 0 1 339 1126)">
   <path d="M0.976562 0L3.66211 0L29.3457-67.1387L30.0293-67.1387L30.0293-70.459L28.125-70.459ZM11.6699-24.4629L46.9727-24.4629L46.2402-26.709L12.4512-26.709ZM55.127 0L57.7637 0L30.6152-70.459L29.4434-70.459L29.4434-67.1387Z"/>
  </g>
  <line id="Baseline-M" style="fill:none;stroke:#27AAE1;opacity:1;stroke-width:0.5;" x1="263" x2="3036" y1="1126" y2="1126"/>
  <line id="Capline-M" style="fill:none;stroke:#27AAE1;opacity:1;stroke-width:0.5;" x1="263" x2="3036" y1="1055.54" y2="1055.54"/>
  <g id="H-reference" style="fill:#27AAE1;stroke:none;" transform="matrix(1 0 0 1 339 1556)">
   <path d="M0.976562 0L3.66211 0L29.3457-67.1387L30.0293-67.1387L30.0293-70.459L28.125-70.459ZM11.6699-24.4629L46.9727-24.4629L46.2402-26.709L12.4512-26.709ZM55.127 0L57.7637 0L30.6152-70.459L29.4434-70.459L29.4434-67.1387Z"/>
  </g>
  <line id="Baseline-L" style="fill:none;stroke:#27AAE1;opacity:1;stroke-width:0.5;" x1="263" x2="3036" y1="1556" y2="1556"/>
  <line id="Capline-L" style="fill:none;stroke:#27AAE1;opacity:1;stroke-width:0.5;" x1="263" x2="3036" y1="1485.54" y2="1485.54"/>
  <line id="left-margin-Ultralight-S" style="fill:none;stroke:#00AEEF;stroke-width:0.5;opacity:1.0;" x1="509.613" x2="509.613" y1="600.785" y2="720.121"/>
  <line id="right-margin-Ultralight-S" style="fill:none;stroke:#00AEEF;stroke-width:0.5;opacity:1.0;" x1="609.809" x2="609.809" y1="600.785" y2="720.121"/>
  <line id="left-margin-Thin-S" style="fill:none;stroke:#00AEEF;stroke-width:0.5;opacity:1.0;" x1="805.665" x2="805.665" y1="600.785" y2="720.121"/>
  <line id="right-margin-Thin-S" style="fill:none;stroke:#00AEEF;stroke-width:0.5;opacity:1.0;" x1="907.179" x2="907.179" y1="600.785" y2="720.121"/>
  <line id="left-margin-Light-S" style="fill:none;stroke:#00AEEF;stroke-width:0.5;opacity:1.0;" x1="1101.08" x2="1101.08" y1="600.785" y2="720.121"/>
  <line id="right-margin-Light-S" style="fill:none;stroke:#00AEEF;stroke-width:0.5;opacity:1.0;" x1="1205.18" x2="1205.18" y1="600.785" y2="720.121"/>
  <line id="left-margin-Regular-S" style="fill:none;stroke:#00AEEF;stroke-width:0.5;opacity:1.0;" x1="1396.82" x2="1396.82" y1="600.785" y2="720.121"/>
  <line id="right-margin-Regular-S" style="fill:none;stroke:#00AEEF;stroke-width:0.5;opacity:1.0;" x1="1502.87" x2="1502.87" y1="600.785" y2="720.121"/>
  <line id="left-margin-Medium-S" style="fill:none;stroke:#00AEEF;stroke-width:0.5;opacity:1.0;" x1="1692.99" x2="1692.99" y1="600.785" y2="720.121"/>
  <line id="right-margin-Medium-S" style="fill:none;stroke:#00AEEF;stroke-width:0.5;opacity:1.0;" x1="1800.12" x2="1800.12" y1="600.785" y2="720.121"/>
  <line id="left-margin-Semibold-S" style="fill:none;stroke:#00AEEF;stroke-width:0.5;opacity:1.0;" x1="1989.29" x2="1989.29" y1="600.785" y2="720.121"/>
  <line id="right-margin-Semibold-S" style="fill:none;stroke:#00AEEF;stroke-width:0.5;opacity:1.0;" x1="2097.25" x2="2097.25" y1="600.785" y2="720.121"/>
  <line id="left-margin-Bold-S" style="fill:none;stroke:#00AEEF;stroke-width:0.5;opacity:1.0;" x1="2285.44" x2="2285.44" y1="600.785" y2="720.121"/>
  <line id="right-margin-Bold-S" style="fill:none;stroke:#00AEEF;stroke-width:0.5;opacity:1.0;" x1="2394.52" x2="2394.52" y1="600.785" y2="720.121"/>
  <line id="left-margin-Heavy-S" style="fill:none;stroke:#00AEEF;stroke-width:0.5;opacity:1.0;" x1="2581.37" x2="2581.37" y1="600.785" y2="720.121"/>
  <line id="right-margin-Heavy-S" style="fill:none;stroke:#00AEEF;stroke-width:0.5;opacity:1.0;" x1="2692.01" x2="2692.01" y1="600.785" y2="720.121"/>
  <line id="left-margin-Black-S" style="fill:none;stroke:#00AEEF;stroke-width:0.5;opacity:1.0;" x1="2877.37" x2="2877.37" y1="600.785" y2="720.121"/>
  <line id="right-margin-Black-S" style="fill:none;stroke:#00AEEF;stroke-width:0.5;opacity:1.0;" x1="2989.43" x2="2989.43" y1="600.785" y2="720.121"/>
  <line id="left-margin-Ultralight-M" style="fill:none;stroke:#00AEEF;stroke-width:0.5;opacity:1.0;" x1="496.039" x2="496.039" y1="1030.79" y2="1150.12"/>
  <line id="right-margin-Ultralight-M" style="fill:none;stroke:#00AEEF;stroke-width:0.5;opacity:1.0;" x1="623.383" x2="623.383" y1="1030.79" y2="1150.12"/>
  <line id="left-margin-Thin-M" style="fill:none;stroke:#00AEEF;stroke-width:0.5;opacity:1.0;" x1="791.994" x2="791.994" y1="1030.79" y2="1150.12"/>
  <line id="right-margin-Thin-M" style="fill:none;stroke:#00AEEF;stroke-width:0.5;opacity:1.0;" x1="920.851" x2="920.851" y1="1030.79" y2="1150.12"/>
  <line id="left-margin-Light-M" style="fill:none;stroke:#00AEEF;stroke-width:0.5;opacity:1.0;" x1="1087.24" x2="1087.24" y1="1030.79" y2="1150.12"/>
  <line id="right-margin-Light-M" style="fill:none;stroke:#00AEEF;stroke-width:0.5;opacity:1.0;" x1="1219.03" x2="1219.03" y1="1030.79" y2="1150.12"/>
  <line id="left-margin-Regular-M" style="fill:none;stroke:#00AEEF;stroke-width:0.5;opacity:1.0;" x1="1382.85" x2="1382.85" y1="1030.79" y2="1150.12"/>
  <line id="right-margin-Regular-M" style="fill:none;stroke:#00AEEF;stroke-width:0.5;opacity:1.0;" x1="1516.84" x2="1516.84" y1="1030.79" y2="1150.12"/>
  <line id="left-margin-Medium-M" style="fill:none;stroke:#00AEEF;stroke-width:0.5;opacity:1.0;" x1="1678.81" x2="1678.81" y1="1030.79" y2="1150.12"/>
  <line id="right-margin-Medium-M" style="fill:none;stroke:#00AEEF;stroke-width:0.5;opacity:1.0;" x1="1814.3" x2="1814.3" y1="1030.79" y2="1150.12"/>
  <line id="left-margin-Semibold-M" style="fill:none;stroke:#00AEEF;stroke-width:0.5;opacity:1.0;" x1="1974.93" x2="1974.93" y1="1030.79" y2="1150.12"/>
  <line id="right-margin-Semibold-M" style="fill:none;stroke:#00AEEF;stroke-width:0.5;opacity:1.0;" x1="2111.6" x2="2111.6" y1="1030.79" y2="1150.12"/>
  <line id="left-margin-Bold-M" style="fill:none;stroke:#00AEEF;stroke-width:0.5;opacity:1.0;" x1="2270.89" x2="2270.89" y1="1030.79" y2="1150.12"/>
  <line id="right-margin-Bold-M" style="fill:none;stroke:#00AEEF;stroke-width:0.5;opacity:1.0;" x1="2409.07" x2="2409.07" y1="1030.79" y2="1150.12"/>
  <line id="left-margin-Heavy-M" style="fill:none;stroke:#00AEEF;stroke-width:0.5;opacity:1.0;" x1="2566.5" x2="2566.5" y1="1030.79" y2="1150.12"/>
  <line id="right-margin-Heavy-M" style="fill:none;stroke:#00AEEF;stroke-width:0.5;opacity:1.0;" x1="2706.88" x2="2706.88" y1="1030.79" y2="1150.12"/>
  <line id="left-margin-Black-M" style="fill:none;stroke:#00AEEF;stroke-width:0.5;opacity:1.0;" x1="2862.21" x2="2862.21" y1="1030.79" y2="1150.12"/>
  <line id="right-margin-Black-M" style="fill:none;stroke:#00AEEF;stroke-width:0.5;opacity:1.0;" x1="3004.59" x2="3004.59" y1="1030.79" y2="1150.12"/>
  <line id="left-margin-Ultralight-L" style="fill:none;stroke:#00AEEF;stroke-width:0.5;opacity:1.0;" x1="477.875" x2="477.875" y1="1460.79" y2="1580.12"/>
  <line id="right-margin-Ultralight-L" style="fill:none;stroke:#00AEEF;stroke-width:0.5;opacity:1.0;" x1="641.547" x2="641.547" y1="1460.79" y2="1580.12"/>
  <line id="left-margin-Thin-L" style="fill:none;stroke:#00AEEF;stroke-width:0.5;opacity:1.0;" x1="773.732" x2="773.732" y1="1460.79" y2="1580.12"/>
  <line id="right-margin-Thin-L" style="fill:none;stroke:#00AEEF;stroke-width:0.5;opacity:1.0;" x1="939.113" x2="939.113" y1="1460.79" y2="1580.12"/>
  <line id="left-margin-Light-L" style="fill:none;stroke:#00AEEF;stroke-width:0.5;opacity:1.0;" x1="1068.83" x2="1068.83" y1="1460.79" y2="1580.12"/>
  <line id="right-margin-Light-L" style="fill:none;stroke:#00AEEF;stroke-width:0.5;opacity:1.0;" x1="1237.44" x2="1237.44" y1="1460.79" y2="1580.12"/>
  <line id="left-margin-Regular-L" style="fill:none;stroke:#00AEEF;stroke-width:0.5;opacity:1.0;" x1="1364.3" x2="1364.3" y1="1460.79" y2="1580.12"/>
  <line id="right-margin-Regular-L" style="fill:none;stroke:#00AEEF;stroke-width:0.5;opacity:1.0;" x1="1535.39" x2="1535.39" y1="1460.79" y2="1580.12"/>
  <line id="left-margin-Medium-L" style="fill:none;stroke:#00AEEF;stroke-width:0.5;opacity:1.0;" x1="1660.03" x2="1660.03" y1="1460.79" y2="1580.12"/>
  <line id="right-margin-Medium-L" style="fill:none;stroke:#00AEEF;stroke-width:0.5;opacity:1.0;" x1="1833.08" x2="1833.08" y1="1460.79" y2="1580.12"/>
  <line id="left-margin-Semibold-L" style="fill:none;stroke:#00AEEF;stroke-width:0.5;opacity:1.0;" x1="1955.99" x2="1955.99" y1="1460.79" y2="1580.12"/>
  <line id="right-margin-Semibold-L" style="fill:none;stroke:#00AEEF;stroke-width:0.5;opacity:1.0;" x1="2130.55" x2="2130.55" y1="1460.79" y2="1580.12"/>
  <line id="left-margin-Bold-L" style="fill:none;stroke:#00AEEF;stroke-width:0.5;opacity:1.0;" x1="2251.7" x2="2251.7" y1="1460.79" y2="1580.12"/>
  <line id="right-margin-Bold-L" style="fill:none;stroke:#00AEEF;stroke-width:0.5;opacity:1.0;" x1="2428.26" x2="2428.26" y1="1460.79" y2="1580.12"/>
  <line id="left-margin-Heavy-L" style="fill:none;stroke:#00AEEF;stroke-width:0.5;opacity:1.0;" x1="2546.99" x2="2546.99" y1="1460.79" y2="1580.12"/>
  <line id="right-margin-Heavy-L" style="fill:none;stroke:#00AEEF;stroke-width:0.5;opacity:1.0;" x1="2726.39" x2="2726.39" y1="1460.79" y2="1580.12"/>
  <line id="left-margin-Black-L" style="fill:none;stroke:#00AEEF;stroke-width:0.5;opacity:1.0;" x1="2842.41" x2="2842.41" y1="1460.79" y2="1580.12"/>
  <line id="right-margin-Black-L" style="fill:none;stroke:#00AEEF;stroke-width:0.5;opacity:1.0;" x1="3024.39" x2="3024.39" y1="1460.79" y2="1580.12"/>
 </g>
 <g id="Symbols">
  <g id="Black-L" transform="matrix(1 0 0 1 2842.41 1556)">
   <path d="M16.0645-39.7949L16.0645 13.8184Q16.0645 17.334 17.6025 19.458Q19.1406 21.582 21.3379 22.5342Q23.5352 23.4863 25.5371 23.4863Q27.5879 23.4863 29.7607 22.5342Q31.9336 21.582 33.4473 19.458Q34.9609 17.334 34.9609 13.8184L34.9609-60.3516L34.5215-60.3516Q30.0781-60.3516 25.8301-58.0566Q21.582-55.7617 18.8232-51.1963Q16.0645-46.6309 16.0645-39.7949ZM42.0898 35.2539L141.992 35.2539Q153.467 35.2539 159.692 29.0283Q165.918 22.8027 165.918 11.4258L165.918-81.8359Q165.918-93.2129 159.692-99.4385Q153.467-105.664 141.992-105.664L71.4844-105.664Q60.0586-105.664 53.833-99.4385Q47.6074-93.2129 47.6074-81.8359L47.6074 24.5605Q47.6074 28.7109 46.3379 31.25Q45.0684 33.7891 42.0898 35.2539ZM79.3457-60.4004Q77.0508-60.4004 75.4639-61.9873Q73.877-63.5742 73.877-65.8691Q73.877-68.1152 75.4395-69.6777Q77.002-71.2402 79.3457-71.2402L134.18-71.2402Q136.475-71.2402 138.037-69.6777Q139.6-68.1152 139.6-65.8691Q139.6-63.5742 138.037-61.9873Q136.475-60.4004 134.18-60.4004ZM79.3457-40.1367Q77.002-40.1367 75.4395-41.6748Q73.877-43.2129 73.877-45.459Q73.877-47.7539 75.4639-49.3408Q77.0508-50.9277 79.3457-50.9277L134.18-50.9277Q136.475-50.9277 138.037-49.3408Q139.6-47.7539 139.6-45.459Q139.6-43.2129 138.037-41.6748Q136.475-40.1367 134.18-40.1367ZM115.039-19.7754Q112.744-19.7754 111.182-21.3135Q109.619-22.8516 109.619-25.0977Q109.619-27.4414 111.182-29.0039Q112.744-30.5664 115.039-30.5664L134.18-30.5664Q136.475-30.5664 138.013-29.0039Q139.551-27.4414 139.551-25.0977Q139.551-22.8516 138.013-21.3135Q136.475-19.7754 134.18-19.7754ZM115.039-0.0976562Q112.744-0.0976562 111.182-1.63574Q109.619-3.17383 109.619-5.41992Q109.619-7.71484 111.182-9.30176Q112.744-10.8887 115.039-10.8887L134.18-10.8887Q136.475-10.8887 138.013-9.30176Q139.551-7.71484 139.551-5.41992Q139.551-3.17383 138.013-1.63574Q136.475-0.0976562 134.18-0.0976562ZM81.9336-0.0976562Q78.1738-0.0976562 76.001-2.27051Q73.8281-4.44336 73.8281-8.20312L73.8281-22.5098Q73.8281-26.2207 76.001-28.3936Q78.1738-30.5664 81.9336-30.5664L94.873-30.5664Q98.6328-30.5664 100.806-28.3936Q102.979-26.2207 102.979-22.5098L102.979-8.20312Q102.979-4.44336 100.806-2.27051Q98.6328-0.0976562 94.873-0.0976562Z"/>
  </g>
  <g id="Heavy-L" transform="matrix(1 0 0 1 2546.99 1556)">
   <path d="M16.0645-40.1367L16.0645 14.3066Q16.0645 17.5293 17.5049 19.5557Q18.9453 21.582 21.0449 22.5342Q23.1445 23.4863 25.1465 23.4863Q27.2461 23.4863 29.3213 22.5342Q31.3965 21.582 32.8125 19.5557Q34.2285 17.5293 34.2285 14.3066L34.2285-58.4473L32.9102-58.4473Q28.6621-58.4473 24.8047-56.3721Q20.9473-54.2969 18.5059-50.2197Q16.0645-46.1426 16.0645-40.1367ZM40.7227 34.5215L140.576 34.5215Q151.562 34.5215 157.446 28.6377Q163.33 22.7539 163.33 11.8652L163.33-82.2754Q163.33-93.1641 157.446-99.0479Q151.562-104.932 140.576-104.932L69.1895-104.932Q58.252-104.932 52.3682-99.0479Q46.4844-93.1641 46.4844-82.2754L46.4844 23.3887Q46.4844 27.6855 45.166 30.3223Q43.8477 32.959 40.7227 34.5215ZM76.5137-61.7188Q74.4141-61.7188 72.9736-63.1592Q71.5332-64.5996 71.5332-66.6992Q71.5332-68.75 72.9736-70.166Q74.4141-71.582 76.5137-71.582L133.301-71.582Q135.4-71.582 136.816-70.166Q138.232-68.75 138.232-66.6992Q138.232-64.5996 136.816-63.1592Q135.4-61.7188 133.301-61.7188ZM76.5137-40.9668Q74.4141-40.9668 72.9736-42.3584Q71.5332-43.75 71.5332-45.8008Q71.5332-47.9004 72.9736-49.3408Q74.4141-50.7812 76.5137-50.7812L133.301-50.7812Q135.4-50.7812 136.816-49.3408Q138.232-47.9004 138.232-45.8008Q138.232-43.75 136.816-42.3584Q135.4-40.9668 133.301-40.9668ZM113.086-20.0684Q110.938-20.0684 109.521-21.4844Q108.105-22.9004 108.105-24.9023Q108.105-27.0508 109.521-28.4912Q110.938-29.9316 113.086-29.9316L133.301-29.9316Q135.4-29.9316 136.792-28.4912Q138.184-27.0508 138.184-24.9023Q138.184-22.9004 136.792-21.4844Q135.4-20.0684 133.301-20.0684ZM113.086 0.341797Q110.938 0.341797 109.521-1.0498Q108.105-2.44141 108.105-4.49219Q108.105-6.5918 109.521-8.03223Q110.938-9.47266 113.086-9.47266L133.301-9.47266Q135.4-9.47266 136.792-8.03223Q138.184-6.5918 138.184-4.49219Q138.184-2.44141 136.792-1.0498Q135.4 0.341797 133.301 0.341797ZM79.3945 0.488281Q75.6836 0.488281 73.584-1.63574Q71.4844-3.75977 71.4844-7.42188L71.4844-22.0703Q71.4844-25.6836 73.584-27.8076Q75.6836-29.9316 79.3945-29.9316L93.0176-29.9316Q96.6797-29.9316 98.8037-27.8076Q100.928-25.6836 100.928-22.0703L100.928-7.42188Q100.928-3.75977 98.8037-1.63574Q96.6797 0.488281 93.0176 0.488281Z"/>
  </g>
  <g id="Bold-L" transform="matrix(1 0 0 1 2251.7 1556)">
   <path d="M16.0645-40.4785L16.0645 14.8438Q16.0645 17.7734 17.3828 19.6777Q18.7012 21.582 20.6787 22.5098Q22.6562 23.4375 24.7559 23.4375Q26.9043 23.4375 28.8574 22.5098Q30.8105 21.582 32.1045 19.6777Q33.3984 17.7734 33.3984 14.8438L33.3984-56.2988L31.1523-56.2988Q27.0996-56.2988 23.6816-54.4922Q20.2637-52.6855 18.1641-49.1699Q16.0645-45.6543 16.0645-40.4785ZM39.1602 33.6914L139.014 33.6914Q149.463 33.6914 154.98 28.2227Q160.498 22.7539 160.498 12.3535L160.498-82.7637Q160.498-93.1641 154.98-98.6328Q149.463-104.102 139.014-104.102L66.6504-104.102Q56.2012-104.102 50.708-98.6328Q45.2148-93.1641 45.2148-82.7637L45.2148 22.0703Q45.2148 26.5625 43.8477 29.2969Q42.4805 32.0312 39.1602 33.6914ZM73.3887-63.1836Q71.5332-63.1836 70.2393-64.4775Q68.9453-65.7715 68.9453-67.627Q68.9453-69.4824 70.2148-70.752Q71.4844-72.0215 73.3887-72.0215L132.324-72.0215Q134.229-72.0215 135.498-70.752Q136.768-69.4824 136.768-67.627Q136.768-65.7715 135.498-64.4775Q134.229-63.1836 132.324-63.1836ZM73.3887-41.8457Q71.4844-41.8457 70.2148-43.0908Q68.9453-44.3359 68.9453-46.1914Q68.9453-48.0469 70.2393-49.3408Q71.5332-50.6348 73.3887-50.6348L132.324-50.6348Q134.229-50.6348 135.498-49.3408Q136.768-48.0469 136.768-46.1914Q136.768-44.3359 135.498-43.0908Q134.229-41.8457 132.324-41.8457ZM110.889-20.4102Q108.984-20.4102 107.715-21.6797Q106.445-22.9492 106.445-24.7559Q106.445-26.6602 107.715-27.9297Q108.984-29.1992 110.889-29.1992L132.324-29.1992Q134.18-29.1992 135.449-27.9297Q136.719-26.6602 136.719-24.7559Q136.719-22.9492 135.449-21.6797Q134.18-20.4102 132.324-20.4102ZM110.889 0.830078Q108.984 0.830078 107.715-0.415039Q106.445-1.66016 106.445-3.51562Q106.445-5.37109 107.715-6.66504Q108.984-7.95898 110.889-7.95898L132.324-7.95898Q134.18-7.95898 135.449-6.66504Q136.719-5.37109 136.719-3.51562Q136.719-1.66016 135.449-0.415039Q134.18 0.830078 132.324 0.830078ZM76.5137 1.12305Q72.9492 1.12305 70.8984-0.927734Q68.8477-2.97852 68.8477-6.54297L68.8477-21.582Q68.8477-25.0977 70.8984-27.1484Q72.9492-29.1992 76.5137-29.1992L90.9668-29.1992Q94.5312-29.1992 96.582-27.1484Q98.6328-25.0977 98.6328-21.582L98.6328-6.54297Q98.6328-2.97852 96.582-0.927734Q94.5312 1.12305 90.9668 1.12305Z"/>
  </g>
  <g id="Semibold-L" transform="matrix(1 0 0 1 1955.99 1556)">
   <path d="M16.0645-40.7227L16.0645 15.1855Q16.0645 17.9199 17.2852 19.751Q18.5059 21.582 20.4102 22.5098Q22.3145 23.4375 24.4629 23.4375Q26.6113 23.4375 28.5156 22.4854Q30.4199 21.5332 31.6162 19.7266Q32.8125 17.9199 32.8125 15.1855L32.8125-54.7852L29.8828-54.7852Q26.0254-54.7852 22.876-53.1494Q19.7266-51.5137 17.8955-48.3887Q16.0645-45.2637 16.0645-40.7227ZM38.0859 33.1055L137.891 33.1055Q147.998 33.1055 153.247 27.9053Q158.496 22.7051 158.496 12.6953L158.496-83.1055Q158.496-93.1152 153.247-98.3154Q147.998-103.516 137.891-103.516L64.8926-103.516Q54.7852-103.516 49.5605-98.3154Q44.3359-93.1152 44.3359-83.1055L44.3359 21.1426Q44.3359 25.7812 42.9443 28.5645Q41.5527 31.3477 38.0859 33.1055ZM71.2402-64.209Q69.4824-64.209 68.3105-65.3809Q67.1387-66.5527 67.1387-68.2617Q67.1387-69.9707 68.3105-71.1182Q69.4824-72.2656 71.2402-72.2656L131.641-72.2656Q133.398-72.2656 134.546-71.1182Q135.693-69.9707 135.693-68.2617Q135.693-66.5527 134.546-65.3809Q133.398-64.209 131.641-64.209ZM71.2402-42.4805Q69.4824-42.4805 68.3105-43.6035Q67.1387-44.7266 67.1387-46.4355Q67.1387-48.1445 68.3105-49.3164Q69.4824-50.4883 71.2402-50.4883L131.641-50.4883Q133.398-50.4883 134.546-49.3164Q135.693-48.1445 135.693-46.4355Q135.693-44.7266 134.546-43.6035Q133.398-42.4805 131.641-42.4805ZM109.326-20.6543Q107.568-20.6543 106.421-21.8018Q105.273-22.9492 105.273-24.6094Q105.273-26.3184 106.421-27.5146Q107.568-28.7109 109.326-28.7109L131.592-28.7109Q133.35-28.7109 134.497-27.5146Q135.645-26.3184 135.645-24.6094Q135.645-22.9492 134.497-21.8018Q133.35-20.6543 131.592-20.6543ZM109.326 1.17188Q107.568 1.17188 106.421 0.0244141Q105.273-1.12305 105.273-2.7832Q105.273-4.49219 106.421-5.66406Q107.568-6.83594 109.326-6.83594L131.592-6.83594Q133.35-6.83594 134.497-5.66406Q135.645-4.49219 135.645-2.7832Q135.645-1.12305 134.497 0.0244141Q133.35 1.17188 131.592 1.17188ZM74.5605 1.5625Q71.0449 1.5625 69.0186-0.439453Q66.9922-2.44141 66.9922-5.95703L66.9922-21.1914Q66.9922-24.6582 69.0186-26.6846Q71.0449-28.7109 74.5605-28.7109L89.502-28.7109Q93.0176-28.7109 95.0439-26.6846Q97.0703-24.6582 97.0703-21.1914L97.0703-5.95703Q97.0703-2.44141 95.0439-0.439453Q93.0176 1.5625 89.502 1.5625Z"/>
  </g>
  <g id="Medium-L" transform="matrix(1 0 0 1 1660.03 1556)">
   <path d="M16.0645-40.918L16.0645 15.4785Q16.0645 18.0664 17.2119 19.8242Q18.3594 21.582 20.2148 22.4854Q22.0703 23.3887 24.2676 23.3887Q26.416 23.3887 28.2471 22.4609Q30.0781 21.5332 31.2256 19.7754Q32.373 18.0176 32.373 15.4785L32.373-53.6621L28.9551-53.6621Q25.1953-53.6621 22.29-52.1729Q19.3848-50.6836 17.7246-47.8271Q16.0645-44.9707 16.0645-40.918ZM37.3047 32.666L137.061 32.666Q146.924 32.666 151.953 27.6855Q156.982 22.7051 156.982 12.9395L156.982-83.3496Q156.982-93.1152 151.953-98.0957Q146.924-103.076 137.061-103.076L63.5742-103.076Q53.7109-103.076 48.7061-98.0957Q43.7012-93.1152 43.7012-83.3496L43.7012 20.459Q43.7012 25.1953 42.2607 28.0273Q40.8203 30.8594 37.3047 32.666ZM69.5801-64.9414Q67.9688-64.9414 66.8701-66.0645Q65.7715-67.1875 65.7715-68.75Q65.7715-70.3125 66.8701-71.3867Q67.9688-72.4609 69.5801-72.4609L131.152-72.4609Q132.764-72.4609 133.838-71.3867Q134.912-70.3125 134.912-68.75Q134.912-67.1875 133.838-66.0645Q132.764-64.9414 131.152-64.9414ZM69.5801-42.9199Q67.9688-42.9199 66.8701-43.9941Q65.7715-45.0684 65.7715-46.6309Q65.7715-48.1934 66.8701-49.292Q67.9688-50.3906 69.5801-50.3906L131.152-50.3906Q132.764-50.3906 133.838-49.292Q134.912-48.1934 134.912-46.6309Q134.912-45.0684 133.838-43.9941Q132.764-42.9199 131.152-42.9199ZM108.203-20.8008Q106.543-20.8008 105.469-21.875Q104.395-22.9492 104.395-24.5117Q104.395-26.123 105.469-27.2217Q106.543-28.3203 108.203-28.3203L131.104-28.3203Q132.715-28.3203 133.789-27.2217Q134.863-26.123 134.863-24.5117Q134.863-22.9492 133.789-21.875Q132.715-20.8008 131.104-20.8008ZM108.203 1.41602Q106.543 1.41602 105.469 0.366211Q104.395-0.683594 104.395-2.24609Q104.395-3.80859 105.469-4.93164Q106.543-6.05469 108.203-6.05469L131.104-6.05469Q132.715-6.05469 133.789-4.93164Q134.863-3.80859 134.863-2.24609Q134.863-0.683594 133.789 0.366211Q132.715 1.41602 131.104 1.41602ZM73.0469 1.9043Q69.6289 1.9043 67.627-0.0732422Q65.625-2.05078 65.625-5.46875L65.625-20.9473Q65.625-24.3164 67.627-26.3184Q69.6289-28.3203 73.0469-28.3203L88.4277-28.3203Q91.8457-28.3203 93.8477-26.3184Q95.8496-24.3164 95.8496-20.9473L95.8496-5.46875Q95.8496-2.05078 93.8477-0.0732422Q91.8457 1.9043 88.4277 1.9043Z"/>
  </g>
  <g id="Regular-L" transform="matrix(1 0 0 1 1364.3 1556)">
   <path d="M16.0645-41.1621L16.0645 15.8203Q16.0645 18.2129 17.1387 19.8975Q18.2129 21.582 19.9951 22.4854Q21.7773 23.3887 23.9746 23.3887Q26.1719 23.3887 27.9297 22.4609Q29.6875 21.5332 30.7373 19.8486Q31.7871 18.1641 31.7871 15.8203L31.7871-52.1973L27.7344-52.1973Q24.1211-52.1973 21.5088-50.8789Q18.8965-49.5605 17.4805-47.0947Q16.0645-44.6289 16.0645-41.1621ZM36.2305 32.0801L135.986 32.0801Q145.459 32.0801 150.244 27.3682Q155.029 22.6562 155.029 13.2812L155.029-83.6914Q155.029-93.0664 150.244-97.7783Q145.459-102.49 135.986-102.49L61.8164-102.49Q52.3438-102.49 47.583-97.7783Q42.8223-93.0664 42.8223-83.6914L42.8223 19.5801Q42.8223 24.4141 41.3574 27.3193Q39.8926 30.2246 36.2305 32.0801ZM67.4316-65.9668Q65.9668-65.9668 64.9658-66.9678Q63.9648-67.9688 63.9648-69.3848Q63.9648-70.8008 64.9658-71.7773Q65.9668-72.7539 67.4316-72.7539L130.469-72.7539Q131.934-72.7539 132.91-71.7773Q133.887-70.8008 133.887-69.3848Q133.887-67.9688 132.91-66.9678Q131.934-65.9668 130.469-65.9668ZM67.4316-43.5547Q65.9668-43.5547 64.9658-44.5068Q63.9648-45.459 63.9648-46.875Q63.9648-48.291 64.9658-49.292Q65.9668-50.293 67.4316-50.293L130.469-50.293Q131.934-50.293 132.91-49.292Q133.887-48.291 133.887-46.875Q133.887-45.459 132.91-44.5068Q131.934-43.5547 130.469-43.5547ZM106.689-21.0449Q105.176-21.0449 104.199-22.0215Q103.223-22.998 103.223-24.3652Q103.223-25.8301 104.199-26.8311Q105.176-27.832 106.689-27.832L130.42-27.832Q131.885-27.832 132.861-26.8311Q133.838-25.8301 133.838-24.3652Q133.838-22.998 132.861-22.0215Q131.885-21.0449 130.42-21.0449ZM106.689 1.75781Q105.176 1.75781 104.199 0.805664Q103.223-0.146484 103.223-1.5625Q103.223-2.97852 104.199-3.97949Q105.176-4.98047 106.689-4.98047L130.42-4.98047Q131.885-4.98047 132.861-3.97949Q133.838-2.97852 133.838-1.5625Q133.838-0.146484 132.861 0.805664Q131.885 1.75781 130.42 1.75781ZM71.0938 2.34375Q67.7246 2.34375 65.7715 0.415039Q63.8184-1.51367 63.8184-4.88281L63.8184-20.6055Q63.8184-23.9258 65.7715-25.8789Q67.7246-27.832 71.0938-27.832L87.0117-27.832Q90.3809-27.832 92.334-25.8789Q94.2871-23.9258 94.2871-20.6055L94.2871-4.88281Q94.2871-1.51367 92.334 0.415039Q90.3809 2.34375 87.0117 2.34375Z"/>
  </g>
  <g id="Light-L" transform="matrix(1 0 0 1 1068.83 1556)">
   <path d="M16.0645-40.8203L16.0645 17.1387Q16.0645 19.5801 17.1875 21.2891Q18.3105 22.998 20.166 23.8525Q22.0215 24.707 24.2188 24.707Q26.3672 24.707 28.1494 23.8037Q29.9316 22.9004 31.0547 21.2158Q32.1777 19.5312 32.1777 17.1387L32.1777-50.7812L26.6602-50.7812Q23.3887-50.7812 20.9961-49.585Q18.6035-48.3887 17.334-46.167Q16.0645-43.9453 16.0645-40.8203ZM34.7168 31.7383L134.57 31.7383Q143.457 31.7383 147.998 27.2461Q152.539 22.7539 152.539 13.916L152.539-84.2773Q152.539-93.1152 147.998-97.6074Q143.457-102.1 134.57-102.1L59.3262-102.1Q50.4395-102.1 45.8984-97.6074Q41.3574-93.1152 41.3574-84.2773L41.3574 20.2637Q41.3574 24.8047 39.8193 27.5146Q38.2812 30.2246 34.7168 31.7383ZM65.1855-66.8945Q64.0137-66.8945 63.1836-67.7002Q62.3535-68.5059 62.3535-69.6289Q62.3535-70.8008 63.1836-71.582Q64.0137-72.3633 65.1855-72.3633L128.809-72.3633Q129.98-72.3633 130.786-71.582Q131.592-70.8008 131.592-69.6289Q131.592-68.5059 130.786-67.7002Q129.98-66.8945 128.809-66.8945ZM65.1855-44.1406Q64.0137-44.1406 63.1836-44.9219Q62.3535-45.7031 62.3535-46.8262Q62.3535-47.9492 63.1836-48.7549Q64.0137-49.5605 65.1855-49.5605L128.809-49.5605Q129.98-49.5605 130.786-48.7549Q131.592-47.9492 131.592-46.8262Q131.592-45.7031 130.786-44.9219Q129.98-44.1406 128.809-44.1406ZM104.639-21.3379Q103.418-21.3379 102.612-22.1191Q101.807-22.9004 101.807-24.0234Q101.807-25.1953 102.612-26.001Q103.418-26.8066 104.639-26.8066L128.76-26.8066Q129.932-26.8066 130.713-26.001Q131.494-25.1953 131.494-24.0234Q131.494-22.9004 130.713-22.1191Q129.932-21.3379 128.76-21.3379ZM104.639 1.66016Q103.418 1.66016 102.612 0.878906Q101.807 0.0976562 101.807-1.02539Q101.807-2.14844 102.612-2.9541Q103.418-3.75977 104.639-3.75977L128.76-3.75977Q129.932-3.75977 130.713-2.9541Q131.494-2.14844 131.494-1.02539Q131.494 0.0976562 130.713 0.878906Q129.932 1.66016 128.76 1.66016ZM69.1895 2.58789Q65.9668 2.58789 64.0625 0.683594Q62.1582-1.2207 62.1582-4.44336L62.1582-19.8242Q62.1582-22.998 64.0625-24.9023Q65.9668-26.8066 69.1895-26.8066L85.3516-26.8066Q88.5742-26.8066 90.4785-24.9023Q92.3828-22.998 92.3828-19.8242L92.3828-4.44336Q92.3828-1.2207 90.4785 0.683594Q88.5742 2.58789 85.3516 2.58789Z"/>
  </g>
  <g id="Thin-L" transform="matrix(1 0 0 1 773.732 1556)">
   <path d="M16.0645-40.3809L16.0645 18.8965Q16.0645 21.4355 17.2852 23.1201Q18.5059 24.8047 20.4346 25.6348Q22.3633 26.4648 24.5117 26.4648Q26.6113 26.416 28.4424 25.5615Q30.2734 24.707 31.4697 23.0469Q32.666 21.3867 32.666 18.8965L32.666-48.877L25.293-48.877Q22.4121-48.877 20.3369-47.876Q18.2617-46.875 17.1631-44.9707Q16.0645-43.0664 16.0645-40.3809ZM32.666 31.3477L132.666 31.3477Q140.869 31.3477 145.093 27.124Q149.316 22.9004 149.316 14.7461L149.316-85.0098Q149.316-93.1641 145.093-97.3633Q140.869-101.562 132.666-101.562L56.0059-101.562Q47.9004-101.562 43.6523-97.3633Q39.4043-93.1641 39.4043-85.0098L39.4043 21.1426Q39.4043 25.3418 37.793 27.7832Q36.1816 30.2246 32.666 31.3477ZM62.207-68.1641Q61.377-68.1641 60.8154-68.7012Q60.2539-69.2383 60.2539-69.9707Q60.2539-70.752 60.8154-71.2891Q61.377-71.8262 62.207-71.8262L126.611-71.8262Q127.393-71.8262 127.954-71.2891Q128.516-70.752 128.516-69.9707Q128.516-69.2383 127.954-68.7012Q127.393-68.1641 126.611-68.1641ZM62.207-44.9707Q61.377-44.9707 60.8154-45.5078Q60.2539-46.0449 60.2539-46.7773Q60.2539-47.5586 60.8154-48.0957Q61.377-48.6328 62.207-48.6328L126.611-48.6328Q127.393-48.6328 127.954-48.0957Q128.516-47.5586 128.516-46.7773Q128.516-46.0449 127.954-45.5078Q127.393-44.9707 126.611-44.9707ZM101.855-21.7285Q101.074-21.7285 100.513-22.2656Q99.9512-22.8027 99.9512-23.5352Q99.9512-24.3652 100.513-24.8779Q101.074-25.3906 101.855-25.3906L126.514-25.3906Q127.295-25.3906 127.856-24.8779Q128.418-24.3652 128.418-23.5352Q128.418-22.8027 127.856-22.2656Q127.295-21.7285 126.514-21.7285ZM101.855 1.51367Q101.074 1.51367 100.513 0.976562Q99.9512 0.439453 99.9512-0.341797Q99.9512-1.07422 100.513-1.61133Q101.074-2.14844 101.855-2.14844L126.514-2.14844Q127.295-2.14844 127.856-1.61133Q128.418-1.07422 128.418-0.341797Q128.418 0.439453 127.856 0.976562Q127.295 1.51367 126.514 1.51367ZM66.6504 2.88086Q63.623 2.88086 61.7676 1.02539Q59.9121-0.830078 59.9121-3.80859L59.9121-18.75Q59.9121-21.7285 61.7676-23.5596Q63.623-25.3906 66.6504-25.3906L83.1543-25.3906Q86.1816-25.3906 88.0371-23.5596Q89.8926-21.7285 89.8926-18.75L89.8926-3.80859Q89.8926-0.830078 88.0371 1.02539Q86.1816 2.88086 83.1543 2.88086Z"/>
  </g>
  <g id="Ultralight-L" transform="matrix(1 0 0 1 477.875 1556)">
   <path d="M16.0645-40.1855L16.0645 19.7754Q16.0645 22.3633 17.3096 24.0723Q18.5547 25.7812 20.5566 26.5869Q22.5586 27.3926 24.6582 27.3438Q26.709 27.2949 28.5889 26.4648Q30.4688 25.6348 31.6895 23.9746Q32.9102 22.3145 32.9102 19.7754L32.9102-47.9492L24.5605-47.9492Q21.875-47.9492 19.9707-46.9971Q18.0664-46.0449 17.0654-44.3115Q16.0645-42.5781 16.0645-40.1855ZM31.6406 31.1035L131.738 31.1035Q139.502 31.1035 143.555 27.0508Q147.607 22.998 147.607 15.1855L147.607-85.4004Q147.607-93.2129 143.555-97.2656Q139.502-101.318 131.738-101.318L54.3457-101.318Q46.582-101.318 42.5049-97.2656Q38.4277-93.2129 38.4277-85.4004L38.4277 21.582Q38.4277 25.5859 36.7676 27.9053Q35.1074 30.2246 31.6406 31.1035ZM60.6445-68.7988Q60.0586-68.7988 59.6191-69.1895Q59.1797-69.5801 59.1797-70.166Q59.1797-70.752 59.6191-71.167Q60.0586-71.582 60.6445-71.582L125.488-71.582Q126.074-71.582 126.514-71.167Q126.953-70.752 126.953-70.166Q126.953-69.5801 126.514-69.1895Q126.074-68.7988 125.488-68.7988ZM60.6445-45.3613Q60.0586-45.3613 59.6191-45.7764Q59.1797-46.1914 59.1797-46.7285Q59.1797-47.3145 59.6191-47.7295Q60.0586-48.1445 60.6445-48.1445L125.488-48.1445Q126.074-48.1445 126.514-47.7295Q126.953-47.3145 126.953-46.7285Q126.953-46.1914 126.514-45.7764Q126.074-45.3613 125.488-45.3613ZM100.488-21.9727Q99.8535-21.9727 99.4385-22.3633Q99.0234-22.7539 99.0234-23.3398Q99.0234-23.9258 99.4385-24.3164Q99.8535-24.707 100.488-24.707L125.391-24.707Q125.977-24.707 126.416-24.3164Q126.855-23.9258 126.855-23.3398Q126.855-22.7539 126.416-22.3633Q125.977-21.9727 125.391-21.9727ZM100.488 1.41602Q99.8535 1.41602 99.4385 1.02539Q99.0234 0.634766 99.0234 0.0488281Q99.0234-0.537109 99.4385-0.952148Q99.8535-1.36719 100.488-1.36719L125.391-1.36719Q125.977-1.36719 126.416-0.952148Q126.855-0.537109 126.855 0.0488281Q126.855 0.634766 126.416 1.02539Q125.977 1.41602 125.391 1.41602ZM65.3809 3.02734Q62.4023 3.02734 60.5957 1.2207Q58.7891-0.585938 58.7891-3.51562L58.7891-18.2129Q58.7891-21.0938 60.5957-22.9004Q62.4023-24.707 65.3809-24.707L82.0312-24.707Q84.9609-24.707 86.792-22.9004Q88.623-21.0938 88.623-18.2129L88.623-3.51562Q88.623-0.585938 86.792 1.2207Q84.9609 3.02734 82.0312 3.02734Z"/>
  </g>
  <g id="Black-M" transform="matrix(1 0 0 1 2862.21 1126)">
   <path d="M12.4512-38.3789L12.4512 2.7832Q12.4512 5.81055 13.7451 7.54395Q15.0391 9.27734 16.8457 9.98535Q18.6523 10.6934 20.2148 10.6934Q21.7285 10.6934 23.5107 9.98535Q25.293 9.27734 26.5869 7.54395Q27.8809 5.81055 27.8809 2.7832L27.8809-55.8594L27.7832-55.8594Q24.2676-55.8594 20.7275-53.9307Q17.1875-52.002 14.8193-48.1201Q12.4512-44.2383 12.4512-38.3789ZM33.3008 19.9219L110.791 19.9219Q119.873 19.9219 124.902 14.8682Q129.932 9.81445 129.932 0.78125L129.932-71.1914Q129.932-80.2246 124.902-85.2783Q119.873-90.332 110.791-90.332L56.543-90.332Q47.4609-90.332 42.4072-85.2783Q37.3535-80.2246 37.3535-71.1914L37.3535 12.3535Q37.3535 15.332 36.377 17.1631Q35.4004 18.9941 33.3008 19.9219ZM63.1348-53.9551Q61.2793-53.9551 60.0098-55.2246Q58.7402-56.4941 58.7402-58.3496Q58.7402-60.2051 59.9854-61.4502Q61.2305-62.6953 63.1348-62.6953L104.15-62.6953Q106.055-62.6953 107.324-61.4502Q108.594-60.2051 108.594-58.3496Q108.594-56.4941 107.3-55.2246Q106.006-53.9551 104.15-53.9551ZM63.1348-38.5254Q61.2305-38.5254 59.9854-39.7705Q58.7402-41.0156 58.7402-42.8711Q58.7402-44.7266 60.0098-45.9961Q61.2793-47.2656 63.1348-47.2656L104.15-47.2656Q106.006-47.2656 107.3-45.9961Q108.594-44.7266 108.594-42.8711Q108.594-41.0156 107.324-39.7705Q106.055-38.5254 104.15-38.5254ZM90.1855-23.0957Q88.3301-23.0957 87.0361-24.3408Q85.7422-25.5859 85.7422-27.3926Q85.7422-29.2969 87.0117-30.542Q88.2812-31.7871 90.1855-31.7871L104.15-31.7871Q106.006-31.7871 107.251-30.542Q108.496-29.2969 108.496-27.3926Q108.496-25.5859 107.251-24.3408Q106.006-23.0957 104.15-23.0957ZM90.1855-8.39844Q88.2812-8.39844 87.0117-9.64355Q85.7422-10.8887 85.7422-12.7441Q85.7422-14.5996 87.0361-15.8691Q88.3301-17.1387 90.1855-17.1387L104.15-17.1387Q106.006-17.1387 107.251-15.8691Q108.496-14.5996 108.496-12.7441Q108.496-10.8887 107.251-9.64355Q106.006-8.39844 104.15-8.39844ZM65.0391-8.39844Q62.1094-8.39844 60.4004-10.1318Q58.6914-11.8652 58.6914-14.7949L58.6914-25.4883Q58.6914-28.3691 60.4004-30.0781Q62.1094-31.7871 65.0391-31.7871L74.5605-31.7871Q77.4902-31.7871 79.2236-30.0781Q80.957-28.3691 80.957-25.4883L80.957-14.7949Q80.957-11.8652 79.2236-10.1318Q77.4902-8.39844 74.5605-8.39844Z"/>
  </g>
  <g id="Heavy-M" transform="matrix(1 0 0 1 2566.5 1126)">
   <path d="M12.4512-38.7695L12.4512 2.97852Q12.4512 5.71289 13.623 7.34863Q14.7949 8.98438 16.5039 9.69238Q18.2129 10.4004 19.8242 10.4004Q21.3379 10.4004 23.0225 9.69238Q24.707 8.98438 25.8789 7.34863Q27.0508 5.71289 27.0508 2.97852L27.0508-54.2969L26.416-54.2969Q23.0469-54.2969 19.8242-52.5635Q16.6016-50.8301 14.5264-47.3633Q12.4512-43.8965 12.4512-38.7695ZM32.2754 19.2383L109.717 19.2383Q118.457 19.2383 123.193 14.502Q127.93 9.76562 127.93 1.07422L127.93-71.4844Q127.93-80.1758 123.193-84.9365Q118.457-89.6973 109.717-89.6973L54.834-89.6973Q46.0938-89.6973 41.333-84.9365Q36.5723-80.1758 36.5723-71.4844L36.5723 11.0352Q36.5723 14.2578 35.5713 16.2109Q34.5703 18.1641 32.2754 19.2383ZM60.8887-55.0293Q59.1309-55.0293 57.959-56.2012Q56.7871-57.373 56.7871-59.1309Q56.7871-60.8398 57.959-61.9873Q59.1309-63.1348 60.8887-63.1348L103.662-63.1348Q105.42-63.1348 106.592-61.9873Q107.764-60.8398 107.764-59.1309Q107.764-57.373 106.567-56.2012Q105.371-55.0293 103.662-55.0293ZM60.8887-39.1602Q59.1309-39.1602 57.959-40.332Q56.7871-41.5039 56.7871-43.2129Q56.7871-44.9219 57.959-46.0938Q59.1309-47.2656 60.8887-47.2656L103.662-47.2656Q105.371-47.2656 106.567-46.0938Q107.764-44.9219 107.764-43.2129Q107.764-41.5039 106.592-40.332Q105.42-39.1602 103.662-39.1602ZM88.6719-23.3398Q86.9629-23.3398 85.7666-24.4873Q84.5703-25.6348 84.5703-27.2949Q84.5703-29.0527 85.7422-30.2246Q86.9141-31.3965 88.6719-31.3965L103.662-31.3965Q105.371-31.3965 106.519-30.2246Q107.666-29.0527 107.666-27.2949Q107.666-25.6348 106.519-24.4873Q105.371-23.3398 103.662-23.3398ZM88.6719-7.95898Q86.9141-7.95898 85.7422-9.10645Q84.5703-10.2539 84.5703-11.9629Q84.5703-13.6719 85.7666-14.8682Q86.9629-16.0645 88.6719-16.0645L103.662-16.0645Q105.371-16.0645 106.519-14.8682Q107.666-13.6719 107.666-11.9629Q107.666-10.2539 106.519-9.10645Q105.371-7.95898 103.662-7.95898ZM62.9395-7.91016Q60.0586-7.91016 58.3984-9.57031Q56.7383-11.2305 56.7383-14.1113L56.7383-25.1953Q56.7383-28.0273 58.3984-29.7119Q60.0586-31.3965 62.9395-31.3965L73.0957-31.3965Q75.9766-31.3965 77.6611-29.7119Q79.3457-28.0273 79.3457-25.1953L79.3457-14.1113Q79.3457-11.2305 77.6611-9.57031Q75.9766-7.91016 73.0957-7.91016Z"/>
  </g>
  <g id="Bold-M" transform="matrix(1 0 0 1 2270.89 1126)">
   <path d="M12.4512-39.209L12.4512 3.22266Q12.4512 5.61523 13.501 7.12891Q14.5508 8.64258 16.1377 9.375Q17.7246 10.1074 19.3359 10.1074Q20.9473 10.0586 22.5342 9.35059Q24.1211 8.64258 25.1465 7.12891Q26.1719 5.61523 26.1719 3.22266L26.1719-52.5391L24.9512-52.5391Q21.6797-52.5391 18.8477-51.0254Q16.0156-49.5117 14.2334-46.5332Q12.4512-43.5547 12.4512-39.209ZM31.1523 18.5059L108.496 18.5059Q116.895 18.5059 121.313 14.0869Q125.732 9.66797 125.732 1.41602L125.732-71.8262Q125.732-80.127 121.313-84.5459Q116.895-88.9648 108.496-88.9648L52.9297-88.9648Q44.5801-88.9648 40.1367-84.5459Q35.6934-80.127 35.6934-71.8262L35.6934 9.61914Q35.6934 13.0859 34.668 15.1855Q33.6426 17.2852 31.1523 18.5059ZM58.3496-56.25Q56.7871-56.25 55.7129-57.3242Q54.6387-58.3984 54.6387-59.9609Q54.6387-61.5234 55.6885-62.5732Q56.7383-63.623 58.3496-63.623L103.125-63.623Q104.688-63.623 105.762-62.5732Q106.836-61.5234 106.836-59.9609Q106.836-58.3984 105.762-57.3242Q104.688-56.25 103.125-56.25ZM58.3496-39.9414Q56.7383-39.9414 55.6885-40.9912Q54.6387-42.041 54.6387-43.6035Q54.6387-45.166 55.7129-46.2402Q56.7871-47.3145 58.3496-47.3145L103.125-47.3145Q104.688-47.3145 105.762-46.2402Q106.836-45.166 106.836-43.6035Q106.836-42.041 105.762-40.9912Q104.688-39.9414 103.125-39.9414ZM87.0117-23.584Q85.4492-23.584 84.375-24.6338Q83.3008-25.6836 83.3008-27.1973Q83.3008-28.8086 84.3506-29.8828Q85.4004-30.957 87.0117-30.957L103.125-30.957Q104.688-30.957 105.737-29.8828Q106.787-28.8086 106.787-27.1973Q106.787-25.6836 105.737-24.6338Q104.688-23.584 103.125-23.584ZM87.0117-7.4707Q85.4004-7.4707 84.3506-8.52051Q83.3008-9.57031 83.3008-11.084Q83.3008-12.6953 84.375-13.7695Q85.4492-14.8438 87.0117-14.8438L103.125-14.8438Q104.688-14.8438 105.737-13.7695Q106.787-12.6953 106.787-11.084Q106.787-9.57031 105.737-8.52051Q104.688-7.4707 103.125-7.4707ZM60.6445-7.32422Q57.8125-7.32422 56.2012-8.95996Q54.5898-10.5957 54.5898-13.3789L54.5898-24.9023Q54.5898-27.6855 56.2012-29.3213Q57.8125-30.957 60.6445-30.957L71.4844-30.957Q74.3164-30.957 75.9277-29.3213Q77.5391-27.6855 77.5391-24.9023L77.5391-13.3789Q77.5391-10.5957 75.9277-8.95996Q74.3164-7.32422 71.4844-7.32422Z"/>
  </g>
  <g id="Semibold-M" transform="matrix(1 0 0 1 1974.93 1126)">
   <path d="M12.4512-39.502L12.4512 3.36914Q12.4512 5.51758 13.4033 6.95801Q14.3555 8.39844 15.8447 9.13086Q17.334 9.86328 18.9941 9.86328Q20.6543 9.81445 22.168 9.10645Q23.6816 8.39844 24.6094 6.95801Q25.5371 5.51758 25.5371 3.36914L25.5371-51.3184L23.877-51.3184Q20.752-51.3184 18.1641-49.9512Q15.5762-48.584 14.0137-45.9473Q12.4512-43.3105 12.4512-39.502ZM30.3223 17.9688L107.666 17.9688Q115.771 17.9688 119.995 13.7939Q124.219 9.61914 124.219 1.61133L124.219-72.0703Q124.219-80.0781 119.995-84.2773Q115.771-88.4766 107.666-88.4766L51.6113-88.4766Q43.5059-88.4766 39.2822-84.2773Q35.0586-80.0781 35.0586-72.0703L35.0586 8.59375Q35.0586 12.2559 34.0088 14.4531Q32.959 16.6504 30.3223 17.9688ZM56.5918-57.0312Q55.127-57.0312 54.126-58.0566Q53.125-59.082 53.125-60.5469Q53.125-61.9629 54.126-62.9395Q55.127-63.916 56.5918-63.916L102.734-63.916Q104.199-63.916 105.2-62.9395Q106.201-61.9629 106.201-60.5469Q106.201-59.082 105.176-58.0566Q104.15-57.0312 102.734-57.0312ZM56.5918-40.4297Q55.127-40.4297 54.126-41.4062Q53.125-42.3828 53.125-43.8477Q53.125-45.3125 54.126-46.3135Q55.127-47.3145 56.5918-47.3145L102.734-47.3145Q104.15-47.3145 105.176-46.3135Q106.201-45.3125 106.201-43.8477Q106.201-42.3828 105.2-41.4062Q104.199-40.4297 102.734-40.4297ZM85.8398-23.7793Q84.375-23.7793 83.374-24.7559Q82.373-25.7324 82.373-27.1484Q82.373-28.6133 83.374-29.6143Q84.375-30.6152 85.8398-30.6152L102.734-30.6152Q104.15-30.6152 105.151-29.6143Q106.152-28.6133 106.152-27.1484Q106.152-25.7324 105.151-24.7559Q104.15-23.7793 102.734-23.7793ZM85.8398-7.08008Q84.375-7.08008 83.374-8.05664Q82.373-9.0332 82.373-10.498Q82.373-11.9629 83.374-12.9639Q84.375-13.9648 85.8398-13.9648L102.734-13.9648Q104.15-13.9648 105.151-12.9639Q106.152-11.9629 106.152-10.498Q106.152-9.0332 105.151-8.05664Q104.15-7.08008 102.734-7.08008ZM59.0332-6.93359Q56.2012-6.93359 54.6387-8.52051Q53.0762-10.1074 53.0762-12.8418L53.0762-24.707Q53.0762-27.4414 54.6387-29.0283Q56.2012-30.6152 59.0332-30.6152L70.3613-30.6152Q73.1445-30.6152 74.7314-29.0283Q76.3184-27.4414 76.3184-24.707L76.3184-12.8418Q76.3184-10.1074 74.7314-8.52051Q73.1445-6.93359 70.3613-6.93359Z"/>
  </g>
  <g id="Medium-M" transform="matrix(1 0 0 1 1678.81 1126)">
   <path d="M12.4512-39.6973L12.4512 3.4668Q12.4512 5.46875 13.3301 6.86035Q14.209 8.25195 15.6494 8.95996Q17.0898 9.66797 18.75 9.66797Q20.459 9.66797 21.8994 8.95996Q23.3398 8.25195 24.2188 6.86035Q25.0977 5.46875 25.0977 3.4668L25.0977-50.3906L23.0957-50.3906Q20.0195-50.3906 17.627-49.1455Q15.2344-47.9004 13.8428-45.5078Q12.4512-43.1152 12.4512-39.6973ZM29.7363 17.5781L107.031 17.5781Q114.941 17.5781 118.994 13.5742Q123.047 9.57031 123.047 1.80664L123.047-72.2168Q123.047-80.0781 118.994-84.082Q114.941-88.0859 107.031-88.0859L50.6348-88.0859Q42.6758-88.0859 38.623-84.082Q34.5703-80.0781 34.5703-72.2168L34.5703 7.8125Q34.5703 11.6211 33.5205 13.8916Q32.4707 16.1621 29.7363 17.5781ZM55.2734-57.666Q53.8574-57.666 52.9053-58.6426Q51.9531-59.6191 51.9531-60.9863Q51.9531-62.3047 52.9053-63.2324Q53.8574-64.1602 55.2734-64.1602L102.441-64.1602Q103.809-64.1602 104.761-63.2324Q105.713-62.3047 105.713-60.9863Q105.713-59.6191 104.761-58.6426Q103.809-57.666 102.441-57.666ZM55.2734-40.8203Q53.8574-40.8203 52.9053-41.748Q51.9531-42.6758 51.9531-44.043Q51.9531-45.4102 52.9053-46.3623Q53.8574-47.3145 55.2734-47.3145L102.441-47.3145Q103.809-47.3145 104.761-46.3623Q105.713-45.4102 105.713-44.043Q105.713-42.6758 104.761-41.748Q103.809-40.8203 102.441-40.8203ZM84.9609-23.877Q83.5449-23.877 82.6172-24.8047Q81.6895-25.7324 81.6895-27.0508Q81.6895-28.5156 82.6172-29.4434Q83.5449-30.3711 84.9609-30.3711L102.441-30.3711Q103.809-30.3711 104.736-29.4434Q105.664-28.5156 105.664-27.0508Q105.664-25.7324 104.736-24.8047Q103.809-23.877 102.441-23.877ZM84.9609-6.83594Q83.5449-6.83594 82.6172-7.76367Q81.6895-8.69141 81.6895-10.0098Q81.6895-11.4258 82.6172-12.3779Q83.5449-13.3301 84.9609-13.3301L102.441-13.3301Q103.809-13.3301 104.736-12.3779Q105.664-11.4258 105.664-10.0098Q105.664-8.69141 104.736-7.76367Q103.809-6.83594 102.441-6.83594ZM57.8125-6.64062Q55.0293-6.64062 53.4668-8.20312Q51.9043-9.76562 51.9043-12.4512L51.9043-24.5117Q51.9043-27.2461 53.4668-28.8086Q55.0293-30.3711 57.8125-30.3711L69.5312-30.3711Q72.2656-30.3711 73.8037-28.8086Q75.3418-27.2461 75.3418-24.5117L75.3418-12.4512Q75.3418-9.76562 73.8037-8.20312Q72.2656-6.64062 69.5312-6.64062Z"/>
  </g>
  <g id="Regular-M" transform="matrix(1 0 0 1 1382.85 1126)">
   <path d="M12.4512-39.9902L12.4512 3.61328Q12.4512 5.37109 13.2324 6.68945Q14.0137 8.00781 15.3809 8.74023Q16.748 9.47266 18.457 9.47266Q20.166 9.42383 21.5332 8.71582Q22.9004 8.00781 23.6816 6.68945Q24.4629 5.37109 24.4629 3.61328L24.4629-49.1699L22.0703-49.1699Q19.0918-49.1699 16.9434-48.0957Q14.7949-47.0215 13.623-44.9463Q12.4512-42.8711 12.4512-39.9902ZM28.9551 17.0898L106.201 17.0898Q113.867 17.0898 117.7 13.3057Q121.533 9.52148 121.533 2.00195L121.533-72.4609Q121.533-80.0293 117.7-83.8135Q113.867-87.5977 106.201-87.5977L49.3164-87.5977Q41.6504-87.5977 37.8174-83.8135Q33.9844-80.0293 33.9844-72.4609L33.9844 6.83594Q33.9844 10.791 32.9102 13.1592Q31.8359 15.5273 28.9551 17.0898ZM53.5645-58.4961Q52.2461-58.4961 51.3672-59.3994Q50.4883-60.3027 50.4883-61.5723Q50.4883-62.793 51.3672-63.6475Q52.2461-64.502 53.5645-64.502L102.051-64.502Q103.32-64.502 104.199-63.6475Q105.078-62.793 105.078-61.5723Q105.078-60.3027 104.199-59.3994Q103.32-58.4961 102.051-58.4961ZM53.5645-41.3086Q52.2461-41.3086 51.3672-42.1631Q50.4883-43.0176 50.4883-44.2871Q50.4883-45.5566 51.3672-46.4355Q52.2461-47.3145 53.5645-47.3145L102.051-47.3145Q103.32-47.3145 104.199-46.4355Q105.078-45.5566 105.078-44.2871Q105.078-43.0176 104.199-42.1631Q103.32-41.3086 102.051-41.3086ZM83.8379-24.0723Q82.5195-24.0723 81.665-24.9268Q80.8105-25.7812 80.8105-27.002Q80.8105-28.3203 81.665-29.1992Q82.5195-30.0781 83.8379-30.0781L102.051-30.0781Q103.32-30.0781 104.175-29.1992Q105.029-28.3203 105.029-27.002Q105.029-25.7812 104.175-24.9268Q103.32-24.0723 102.051-24.0723ZM83.8379-6.49414Q82.5195-6.49414 81.665-7.34863Q80.8105-8.20312 80.8105-9.42383Q80.8105-10.7422 81.665-11.6211Q82.5195-12.5 83.8379-12.5L102.051-12.5Q103.32-12.5 104.175-11.6211Q105.029-10.7422 105.029-9.42383Q105.029-8.20312 104.175-7.34863Q103.32-6.49414 102.051-6.49414ZM56.2012-6.25Q53.4668-6.25 51.9531-7.76367Q50.4395-9.27734 50.4395-11.9629L50.4395-24.3164Q50.4395-27.002 51.9531-28.54Q53.4668-30.0781 56.2012-30.0781L68.4082-30.0781Q71.0938-30.0781 72.6074-28.54Q74.1211-27.002 74.1211-24.3164L74.1211-11.9629Q74.1211-9.27734 72.6074-7.76367Q71.0938-6.25 68.4082-6.25Z"/>
  </g>
  <g id="Light-M" transform="matrix(1 0 0 1 1087.24 1126)">
   <path d="M12.4512-39.6973L12.4512 4.78516Q12.4512 6.64062 13.2812 7.93457Q14.1113 9.22852 15.5518 9.93652Q16.9922 10.6445 18.6523 10.6445Q20.3125 10.5957 21.7285 9.91211Q23.1445 9.22852 23.9746 7.91016Q24.8047 6.5918 24.8047 4.78516L24.8047-47.9004L21.1426-47.9004Q18.457-47.9004 16.5039-46.9238Q14.5508-45.9473 13.501-44.1162Q12.4512-42.2852 12.4512-39.6973ZM27.5879 16.7969L104.932 16.7969Q112.061 16.7969 115.698 13.208Q119.336 9.61914 119.336 2.58789L119.336-72.998Q119.336-80.0781 115.698-83.667Q112.061-87.2559 104.932-87.2559L47.0703-87.2559Q39.9414-87.2559 36.3037-83.667Q32.666-80.0781 32.666-72.998L32.666 7.42188Q32.666 11.1328 31.543 13.3301Q30.4199 15.5273 27.5879 16.7969ZM51.5137-59.3262Q50.4883-59.3262 49.7803-60.0586Q49.0723-60.791 49.0723-61.8164Q49.0723-62.793 49.7803-63.4766Q50.4883-64.1602 51.5137-64.1602L100.537-64.1602Q101.562-64.1602 102.295-63.4766Q103.027-62.793 103.027-61.8164Q103.027-60.791 102.295-60.0586Q101.562-59.3262 100.537-59.3262ZM51.5137-41.8457Q50.4883-41.8457 49.7803-42.5293Q49.0723-43.2129 49.0723-44.2383Q49.0723-45.2637 49.7803-45.9717Q50.4883-46.6797 51.5137-46.6797L100.537-46.6797Q101.562-46.6797 102.295-45.9717Q103.027-45.2637 103.027-44.2383Q103.027-43.2129 102.295-42.5293Q101.562-41.8457 100.537-41.8457ZM81.9824-24.3652Q80.9082-24.3652 80.2246-25.0488Q79.541-25.7324 79.541-26.709Q79.541-27.7344 80.2246-28.4424Q80.9082-29.1504 81.9824-29.1504L100.537-29.1504Q101.562-29.1504 102.246-28.4424Q102.93-27.7344 102.93-26.709Q102.93-25.7324 102.246-25.0488Q101.562-24.3652 100.537-24.3652ZM81.9824-6.5918Q80.9082-6.5918 80.2246-7.27539Q79.541-7.95898 79.541-8.93555Q79.541-10.0098 80.2246-10.7178Q80.9082-11.4258 81.9824-11.4258L100.537-11.4258Q101.562-11.4258 102.246-10.7178Q102.93-10.0098 102.93-8.93555Q102.93-7.95898 102.246-7.27539Q101.562-6.5918 100.537-6.5918ZM54.4922-6.05469Q51.9043-6.05469 50.415-7.51953Q48.9258-8.98438 48.9258-11.5723L48.9258-23.584Q48.9258-26.1719 50.415-27.6611Q51.9043-29.1504 54.4922-29.1504L66.8945-29.1504Q69.4824-29.1504 70.9717-27.6611Q72.4609-26.1719 72.4609-23.584L72.4609-11.5723Q72.4609-8.98438 70.9717-7.51953Q69.4824-6.05469 66.8945-6.05469Z"/>
  </g>
  <g id="Thin-M" transform="matrix(1 0 0 1 791.994 1126)">
   <path d="M12.4512-39.3066L12.4512 6.29883Q12.4512 8.30078 13.3789 9.59473Q14.3066 10.8887 15.7959 11.5479Q17.2852 12.207 18.8965 12.1582Q20.5566 12.1582 21.9971 11.499Q23.4375 10.8398 24.3164 9.52148Q25.1953 8.20312 25.1953 6.29883L25.1953-46.2402L19.873-46.2402Q17.5781-46.2402 15.8936-45.4102Q14.209-44.5801 13.3301-43.0176Q12.4512-41.4551 12.4512-39.3066ZM25.7324 16.4551L103.271 16.4551Q109.717 16.4551 113.062 13.1348Q116.406 9.81445 116.406 3.32031L116.406-73.6328Q116.406-80.0781 113.062-83.4229Q109.717-86.7676 103.271-86.7676L44.0918-86.7676Q37.6465-86.7676 34.3018-83.4229Q30.957-80.0781 30.957-73.6328L30.957 8.25195Q30.957 11.6211 29.7363 13.5498Q28.5156 15.4785 25.7324 16.4551ZM48.877-60.4492Q48.1445-60.4492 47.6562-60.9375Q47.168-61.4258 47.168-62.1094Q47.168-62.7441 47.6562-63.208Q48.1445-63.6719 48.877-63.6719L98.584-63.6719Q99.2676-63.6719 99.7559-63.208Q100.244-62.7441 100.244-62.1094Q100.244-61.4258 99.7559-60.9375Q99.2676-60.4492 98.584-60.4492ZM48.877-42.5781Q48.1445-42.5781 47.6562-43.042Q47.168-43.5059 47.168-44.1895Q47.168-44.873 47.6562-45.3369Q48.1445-45.8008 48.877-45.8008L98.584-45.8008Q99.2676-45.8008 99.7559-45.3369Q100.244-44.873 100.244-44.1895Q100.244-43.5059 99.7559-43.042Q99.2676-42.5781 98.584-42.5781ZM79.541-24.707Q78.8086-24.707 78.3447-25.1709Q77.8809-25.6348 77.8809-26.3184Q77.8809-27.002 78.3447-27.4658Q78.8086-27.9297 79.541-27.9297L98.5352-27.9297Q99.2188-27.9297 99.707-27.4658Q100.195-27.002 100.195-26.3184Q100.195-25.6348 99.707-25.1709Q99.2188-24.707 98.5352-24.707ZM79.541-6.68945Q78.8086-6.68945 78.3447-7.15332Q77.8809-7.61719 77.8809-8.34961Q77.8809-9.0332 78.3447-9.49707Q78.8086-9.96094 79.541-9.96094L98.5352-9.96094Q99.2188-9.96094 99.707-9.49707Q100.195-9.0332 100.195-8.34961Q100.195-7.61719 99.707-7.15332Q99.2188-6.68945 98.5352-6.68945ZM52.2461-5.81055Q49.8047-5.81055 48.3643-7.22656Q46.9238-8.64258 46.9238-11.0352L46.9238-22.6562Q46.9238-25.0488 48.3643-26.4893Q49.8047-27.9297 52.2461-27.9297L64.9414-27.9297Q67.334-27.9297 68.7744-26.4893Q70.2148-25.0488 70.2148-22.6562L70.2148-11.0352Q70.2148-8.64258 68.7744-7.22656Q67.334-5.81055 64.9414-5.81055Z"/>
  </g>
  <g id="Ultralight-M" transform="matrix(1 0 0 1 496.039 1126)">
   <path d="M12.4512-39.1113L12.4512 7.12891Q12.4512 9.13086 13.4033 10.4248Q14.3555 11.7188 15.8936 12.3779Q17.4316 13.0371 19.043 12.9883Q20.6543 12.9883 22.1191 12.3047Q23.584 11.6211 24.5117 10.3271Q25.4395 9.0332 25.4395 7.12891L25.4395-45.3613L19.2383-45.3613Q17.1387-45.3613 15.6006-44.6045Q14.0625-43.8477 13.2568-42.4561Q12.4512-41.0645 12.4512-39.1113ZM24.8047 16.2598L102.393 16.2598Q108.496 16.2598 111.694 13.0615Q114.893 9.86328 114.893 3.71094L114.893-74.0234Q114.893-80.127 111.694-83.3496Q108.496-86.5723 102.393-86.5723L42.5781-86.5723Q36.4746-86.5723 33.2764-83.3496Q30.0781-80.127 30.0781-74.0234L30.0781 8.64258Q30.0781 11.8164 28.833 13.6475Q27.5879 15.4785 24.8047 16.2598ZM47.4609-61.0352Q46.9238-61.0352 46.582-61.4014Q46.2402-61.7676 46.2402-62.2559Q46.2402-62.7441 46.582-63.1104Q46.9238-63.4766 47.4609-63.4766L97.5586-63.4766Q98.0957-63.4766 98.4863-63.1104Q98.877-62.7441 98.877-62.2559Q98.877-61.7676 98.4863-61.4014Q98.0957-61.0352 97.5586-61.0352ZM47.4609-42.9199Q46.9238-42.9199 46.582-43.2861Q46.2402-43.6523 46.2402-44.1406Q46.2402-44.6777 46.582-45.0195Q46.9238-45.3613 47.4609-45.3613L97.5586-45.3613Q98.0957-45.3613 98.4863-45.0195Q98.877-44.6777 98.877-44.1406Q98.877-43.6523 98.4863-43.2861Q98.0957-42.9199 97.5586-42.9199ZM78.3203-24.9023Q77.7344-24.9023 77.3682-25.2441Q77.002-25.5859 77.002-26.0742Q77.002-26.6113 77.3682-26.9531Q77.7344-27.2949 78.3203-27.2949L97.5098-27.2949Q98.0469-27.2949 98.4131-26.9531Q98.7793-26.6113 98.7793-26.0742Q98.7793-25.5859 98.4131-25.2441Q98.0469-24.9023 97.5098-24.9023ZM78.3203-6.78711Q77.7344-6.78711 77.3682-7.12891Q77.002-7.4707 77.002-8.00781Q77.002-8.49609 77.3682-8.8623Q77.7344-9.22852 78.3203-9.22852L97.5098-9.22852Q98.0469-9.22852 98.4131-8.8623Q98.7793-8.49609 98.7793-8.00781Q98.7793-7.4707 98.4131-7.12891Q98.0469-6.78711 97.5098-6.78711ZM51.0742-5.66406Q48.7305-5.66406 47.3145-7.05566Q45.8984-8.44727 45.8984-10.7422L45.8984-22.168Q45.8984-24.4629 47.3145-25.8789Q48.7305-27.2949 51.0742-27.2949L63.916-27.2949Q66.2109-27.2949 67.6514-25.8789Q69.0918-24.4629 69.0918-22.168L69.0918-10.7422Q69.0918-8.44727 67.6514-7.05566Q66.2109-5.66406 63.916-5.66406Z"/>
  </g>
  <g id="Black-S" transform="matrix(1 0 0 1 2877.37 696)">
   <path d="M9.76562-37.5488L9.76562-5.41992Q9.76562-2.97852 10.8154-1.58691Q11.8652-0.195312 13.3301 0.366211Q14.7949 0.927734 15.9668 0.927734Q17.1387 0.927734 18.5791 0.366211Q20.0195-0.195312 21.0693-1.58691Q22.1191-2.97852 22.1191-5.41992L22.1191-51.8066L22.1191-51.8066Q19.3359-51.8066 16.4795-50.2441Q13.623-48.6816 11.6943-45.5078Q9.76562-42.334 9.76562-37.5488ZM26.3184 8.1543L87.0605 8.1543Q94.2383 8.1543 98.2666 4.12598Q102.295 0.0976562 102.295-7.08008L102.295-63.3301Q102.295-70.5078 98.2666-74.5361Q94.2383-78.5645 87.0605-78.5645L44.6777-78.5645Q37.5-78.5645 33.4717-74.5361Q29.4434-70.5078 29.4434-63.3301L29.4434 2.49023Q29.4434 4.73633 28.6865 6.10352Q27.9297 7.4707 26.3184 8.1543ZM50.0488-49.6094Q48.584-49.6094 47.5586-50.6348Q46.5332-51.6602 46.5332-53.125Q46.5332-54.5898 47.5342-55.5908Q48.5352-56.5918 50.0488-56.5918L81.6895-56.5918Q83.2031-56.5918 84.2041-55.5908Q85.2051-54.5898 85.2051-53.125Q85.2051-51.6602 84.1797-50.6348Q83.1543-49.6094 81.6895-49.6094ZM50.0488-37.6465Q48.5352-37.6465 47.5342-38.6475Q46.5332-39.6484 46.5332-41.1133Q46.5332-42.5781 47.5586-43.6035Q48.584-44.6289 50.0488-44.6289L81.6895-44.6289Q83.1543-44.6289 84.1797-43.6035Q85.2051-42.5781 85.2051-41.1133Q85.2051-39.6484 84.2041-38.6475Q83.2031-37.6465 81.6895-37.6465ZM70.9961-25.6836Q69.5312-25.6836 68.5059-26.6846Q67.4805-27.6855 67.4805-29.1016Q67.4805-30.6152 68.4814-31.6162Q69.4824-32.6172 70.9961-32.6172L81.6895-32.6172Q83.1543-32.6172 84.1553-31.6162Q85.1562-30.6152 85.1562-29.1016Q85.1562-27.6855 84.1553-26.6846Q83.1543-25.6836 81.6895-25.6836ZM70.9961-14.3555Q69.4824-14.3555 68.4814-15.3564Q67.4805-16.3574 67.4805-17.8223Q67.4805-19.2871 68.5059-20.3125Q69.5312-21.3379 70.9961-21.3379L81.6895-21.3379Q83.1543-21.3379 84.1553-20.3125Q85.1562-19.2871 85.1562-17.8223Q85.1562-16.3574 84.1553-15.3564Q83.1543-14.3555 81.6895-14.3555ZM51.5137-14.3555Q49.2188-14.3555 47.8516-15.7227Q46.4844-17.0898 46.4844-19.3848L46.4844-27.6367Q46.4844-29.9316 47.8516-31.2744Q49.2188-32.6172 51.5137-32.6172L58.7891-32.6172Q61.084-32.6172 62.4512-31.2744Q63.8184-29.9316 63.8184-27.6367L63.8184-19.3848Q63.8184-17.0898 62.4512-15.7227Q61.084-14.3555 58.7891-14.3555Z"/>
  </g>
  <g id="Heavy-S" transform="matrix(1 0 0 1 2581.37 696)">
   <path d="M9.76562-37.9395L9.76562-5.41992Q9.76562-3.22266 10.7178-1.9043Q11.6699-0.585938 13.0371-0.0244141Q14.4043 0.537109 15.5762 0.537109Q16.7969 0.537109 18.1396-0.0244141Q19.4824-0.585938 20.4346-1.9043Q21.3867-3.22266 21.3867-5.41992L21.3867-50.6348L21.0938-50.6348Q18.3594-50.6348 15.7715-49.2188Q13.1836-47.8027 11.4746-44.9707Q9.76562-42.1387 9.76562-37.9395ZM25.6348 7.61719L86.2793 7.61719Q93.2617 7.61719 97.0703 3.83301Q100.879 0.0488281 100.879-6.88477L100.879-63.5254Q100.879-70.459 97.0703-74.2676Q93.2617-78.0762 86.2793-78.0762L43.5059-78.0762Q36.5723-78.0762 32.7637-74.2676Q28.9551-70.459 28.9551-63.5254L28.9551 1.31836Q28.9551 3.75977 28.1738 5.27344Q27.3926 6.78711 25.6348 7.61719ZM48.3887-50.4395Q46.9727-50.4395 46.0205-51.3916Q45.0684-52.3438 45.0684-53.7598Q45.0684-55.127 45.9961-56.0547Q46.9238-56.9824 48.3887-56.9824L81.4453-56.9824Q82.8613-56.9824 83.8135-56.0547Q84.7656-55.127 84.7656-53.7598Q84.7656-52.3438 83.7891-51.3916Q82.8125-50.4395 81.4453-50.4395ZM48.3887-38.1348Q46.9238-38.1348 45.9961-39.0869Q45.0684-40.0391 45.0684-41.4062Q45.0684-42.7734 46.0205-43.75Q46.9727-44.7266 48.3887-44.7266L81.4453-44.7266Q82.8125-44.7266 83.7891-43.75Q84.7656-42.7734 84.7656-41.4062Q84.7656-40.0391 83.8135-39.0869Q82.8613-38.1348 81.4453-38.1348ZM69.9707-25.8301Q68.5547-25.8301 67.6025-26.7822Q66.6504-27.7344 66.6504-29.0527Q66.6504-30.4688 67.5781-31.4209Q68.5059-32.373 69.9707-32.373L81.4453-32.373Q82.8125-32.373 83.7646-31.4209Q84.7168-30.4688 84.7168-29.0527Q84.7168-27.7344 83.7646-26.7822Q82.8125-25.8301 81.4453-25.8301ZM69.9707-13.9648Q68.5059-13.9648 67.5781-14.8926Q66.6504-15.8203 66.6504-17.1875Q66.6504-18.6035 67.6025-19.5801Q68.5547-20.5566 69.9707-20.5566L81.4453-20.5566Q82.8125-20.5566 83.7646-19.5801Q84.7168-18.6035 84.7168-17.1875Q84.7168-15.8203 83.7646-14.8926Q82.8125-13.9648 81.4453-13.9648ZM49.9512-13.9648Q47.6562-13.9648 46.3379-15.2832Q45.0195-16.6016 45.0195-18.8965L45.0195-27.4902Q45.0195-29.7363 46.3379-31.0547Q47.6562-32.373 49.9512-32.373L57.7148-32.373Q60.0098-32.373 61.3281-31.0547Q62.6465-29.7363 62.6465-27.4902L62.6465-18.8965Q62.6465-16.6016 61.3281-15.2832Q60.0098-13.9648 57.7148-13.9648Z"/>
  </g>
  <g id="Bold-S" transform="matrix(1 0 0 1 2285.44 696)">
   <path d="M9.76562-38.3301L9.76562-5.41992Q9.76562-3.51562 10.5957-2.29492Q11.4258-1.07422 12.6709-0.488281Q13.916 0.0976562 15.1855 0.0976562Q16.4551 0.0976562 17.7002-0.488281Q18.9453-1.07422 19.751-2.29492Q20.5566-3.51562 20.5566-5.41992L20.5566-49.3164L19.9707-49.3164Q17.334-49.3164 15.0146-48.0713Q12.6953-46.8262 11.2305-44.3848Q9.76562-41.9434 9.76562-38.3301ZM24.8535 7.03125L85.4492 7.03125Q92.1875 7.03125 95.752 3.49121Q99.3164-0.0488281 99.3164-6.73828L99.3164-63.7695Q99.3164-70.4102 95.752-73.9502Q92.1875-77.4902 85.4492-77.4902L42.2363-77.4902Q35.498-77.4902 31.9336-73.9502Q28.3691-70.4102 28.3691-63.7695L28.3691-0.0488281Q28.3691 2.68555 27.5879 4.3457Q26.8066 6.00586 24.8535 7.03125ZM46.5332-51.3672Q45.2148-51.3672 44.3115-52.2705Q43.4082-53.1738 43.4082-54.4434Q43.4082-55.7129 44.2871-56.5918Q45.166-57.4707 46.5332-57.4707L81.2012-57.4707Q82.5195-57.4707 83.3984-56.5918Q84.2773-55.7129 84.2773-54.4434Q84.2773-53.1738 83.374-52.2705Q82.4707-51.3672 81.2012-51.3672ZM46.5332-38.7207Q45.166-38.7207 44.2871-39.5752Q43.4082-40.4297 43.4082-41.748Q43.4082-43.0176 44.3115-43.9209Q45.2148-44.8242 46.5332-44.8242L81.2012-44.8242Q82.4707-44.8242 83.374-43.9209Q84.2773-43.0176 84.2773-41.748Q84.2773-40.4297 83.3984-39.5752Q82.5195-38.7207 81.2012-38.7207ZM68.7988-26.0254Q67.4805-26.0254 66.6016-26.9043Q65.7227-27.7832 65.7227-29.0527Q65.7227-30.3711 66.6016-31.25Q67.4805-32.1289 68.7988-32.1289L81.2012-32.1289Q82.4707-32.1289 83.3496-31.25Q84.2285-30.3711 84.2285-29.0527Q84.2285-27.7832 83.3496-26.9043Q82.4707-26.0254 81.2012-26.0254ZM68.7988-13.5254Q67.4805-13.5254 66.6016-14.4043Q65.7227-15.2832 65.7227-16.5527Q65.7227-17.8711 66.6016-18.7744Q67.4805-19.6777 68.7988-19.6777L81.2012-19.6777Q82.4707-19.6777 83.3496-18.7744Q84.2285-17.8711 84.2285-16.5527Q84.2285-15.2832 83.3496-14.4043Q82.4707-13.5254 81.2012-13.5254ZM48.1934-13.4766Q45.9473-13.4766 44.6533-14.7705Q43.3594-16.0645 43.3594-18.3105L43.3594-27.3438Q43.3594-29.5898 44.6533-30.8594Q45.9473-32.1289 48.1934-32.1289L56.543-32.1289Q58.7891-32.1289 60.083-30.8594Q61.377-29.5898 61.377-27.3438L61.377-18.3105Q61.377-16.0645 60.083-14.7705Q58.7891-13.4766 56.543-13.4766Z"/>
  </g>
  <g id="Semibold-S" transform="matrix(1 0 0 1 1989.29 696)">
   <path d="M9.76562-38.623L9.76562-5.37109Q9.76562-3.66211 10.498-2.53906Q11.2305-1.41602 12.4023-0.830078Q13.5742-0.244141 14.8926-0.244141Q16.2109-0.244141 17.3584-0.830078Q18.5059-1.41602 19.2383-2.53906Q19.9707-3.66211 19.9707-5.37109L19.9707-48.3887L19.1406-48.3887Q16.5527-48.3887 14.4287-47.2656Q12.3047-46.1426 11.0352-43.9697Q9.76562-41.7969 9.76562-38.623ZM24.3164 6.64062L84.8633 6.64062Q91.4062 6.64062 94.7998 3.27148Q98.1934-0.0976562 98.1934-6.5918L98.1934-63.916Q98.1934-70.3613 94.7998-73.7305Q91.4062-77.0996 84.8633-77.0996L41.3086-77.0996Q34.7656-77.0996 31.3721-73.7305Q27.9785-70.3613 27.9785-63.916L27.9785-0.927734Q27.9785 1.95312 27.1729 3.71094Q26.3672 5.46875 24.3164 6.64062ZM45.2148-51.9531Q43.9453-51.9531 43.0908-52.832Q42.2363-53.7109 42.2363-54.9316Q42.2363-56.1035 43.0908-56.958Q43.9453-57.8125 45.2148-57.8125L81.0059-57.8125Q82.2266-57.8125 83.0566-56.958Q83.8867-56.1035 83.8867-54.9316Q83.8867-53.7109 83.0566-52.832Q82.2266-51.9531 81.0059-51.9531ZM45.2148-39.0625Q43.9453-39.0625 43.0908-39.8926Q42.2363-40.7227 42.2363-41.9434Q42.2363-43.1641 43.0908-44.0186Q43.9453-44.873 45.2148-44.873L81.0059-44.873Q82.2266-44.873 83.0566-44.0186Q83.8867-43.1641 83.8867-41.9434Q83.8867-40.7227 83.0566-39.8926Q82.2266-39.0625 81.0059-39.0625ZM68.0176-26.1719Q66.748-26.1719 65.8936-27.002Q65.0391-27.832 65.0391-29.0039Q65.0391-30.2246 65.8691-31.0791Q66.6992-31.9336 68.0176-31.9336L81.0059-31.9336Q82.2266-31.9336 83.0566-31.0791Q83.8867-30.2246 83.8867-29.0039Q83.8867-27.832 83.0566-27.002Q82.2266-26.1719 81.0059-26.1719ZM68.0176-13.1836Q66.6992-13.1836 65.8691-14.0137Q65.0391-14.8438 65.0391-16.0645Q65.0391-17.334 65.8936-18.1885Q66.748-19.043 68.0176-19.043L81.0059-19.043Q82.2266-19.043 83.0566-18.1885Q83.8867-17.334 83.8867-16.0645Q83.8867-14.8438 83.0566-14.0137Q82.2266-13.1836 81.0059-13.1836ZM46.9727-13.1348Q44.7754-13.1348 43.5059-14.4043Q42.2363-15.6738 42.2363-17.9199L42.2363-27.2461Q42.2363-29.4434 43.5059-30.6885Q44.7754-31.9336 46.9727-31.9336L55.7129-31.9336Q57.959-31.9336 59.2285-30.6885Q60.498-29.4434 60.498-27.2461L60.498-17.9199Q60.498-15.6738 59.2285-14.4043Q57.959-13.1348 55.7129-13.1348Z"/>
  </g>
  <g id="Medium-S" transform="matrix(1 0 0 1 1692.99 696)">
   <path d="M9.76562-38.8184L9.76562-5.37109Q9.76562-3.80859 10.4248-2.73438Q11.084-1.66016 12.207-1.07422Q13.3301-0.488281 14.6973-0.488281Q16.0156-0.488281 17.1143-1.07422Q18.2129-1.66016 18.8965-2.73438Q19.5801-3.80859 19.5801-5.37109L19.5801-47.7051L18.5547-47.7051Q16.0156-47.7051 14.0381-46.6797Q12.0605-45.6543 10.9131-43.6768Q9.76562-41.6992 9.76562-38.8184ZM23.9258 6.29883L84.4238 6.29883Q90.8203 6.29883 94.0918 3.07617Q97.3633-0.146484 97.3633-6.49414L97.3633-64.0137Q97.3633-70.3613 94.0918-73.584Q90.8203-76.8066 84.4238-76.8066L40.625-76.8066Q34.2285-76.8066 30.957-73.584Q27.6855-70.3613 27.6855-64.0137L27.6855-1.61133Q27.6855 1.36719 26.8555 3.22266Q26.0254 5.07812 23.9258 6.29883ZM44.2383-52.4414Q43.0176-52.4414 42.1875-53.2715Q41.3574-54.1016 41.3574-55.2734Q41.3574-56.4453 42.1875-57.251Q43.0176-58.0566 44.2383-58.0566L80.8594-58.0566Q82.0312-58.0566 82.8369-57.251Q83.6426-56.4453 83.6426-55.2734Q83.6426-54.1016 82.8369-53.2715Q82.0312-52.4414 80.8594-52.4414ZM44.2383-39.3555Q43.0176-39.3555 42.1875-40.1367Q41.3574-40.918 41.3574-42.1387Q41.3574-43.3105 42.1875-44.1406Q43.0176-44.9707 44.2383-44.9707L80.8594-44.9707Q82.0312-44.9707 82.8369-44.1406Q83.6426-43.3105 83.6426-42.1387Q83.6426-40.918 82.8369-40.1367Q82.0312-39.3555 80.8594-39.3555ZM67.3828-26.2207Q66.1621-26.2207 65.3564-27.0264Q64.5508-27.832 64.5508-29.0039Q64.5508-30.1758 65.3564-31.0059Q66.1621-31.8359 67.3828-31.8359L80.8594-31.8359Q82.0312-31.8359 82.8369-31.0059Q83.6426-30.1758 83.6426-29.0039Q83.6426-27.832 82.8369-27.0264Q82.0312-26.2207 80.8594-26.2207ZM67.3828-12.9395Q66.1621-12.9395 65.3564-13.7451Q64.5508-14.5508 64.5508-15.7227Q64.5508-16.9434 65.3564-17.749Q66.1621-18.5547 67.3828-18.5547L80.8594-18.5547Q82.0312-18.5547 82.8369-17.749Q83.6426-16.9434 83.6426-15.7227Q83.6426-14.5508 82.8369-13.7451Q82.0312-12.9395 80.8594-12.9395ZM46.0449-12.8906Q43.8477-12.8906 42.6025-14.1602Q41.3574-15.4297 41.3574-17.627L41.3574-27.1484Q41.3574-29.3457 42.6025-30.5908Q43.8477-31.8359 46.0449-31.8359L55.127-31.8359Q57.3242-31.8359 58.5693-30.5908Q59.8145-29.3457 59.8145-27.1484L59.8145-17.627Q59.8145-15.4297 58.5693-14.1602Q57.3242-12.8906 55.127-12.8906Z"/>
  </g>
  <g id="Regular-S" transform="matrix(1 0 0 1 1396.82 696)">
   <path d="M9.76562-39.1113L9.76562-5.37109Q9.76562-4.00391 10.3516-2.97852Q10.9375-1.95312 11.9873-1.36719Q13.0371-0.78125 14.4043-0.78125Q15.7715-0.78125 16.7969-1.36719Q17.8223-1.95312 18.4082-2.97852Q18.9941-4.00391 18.9941-5.37109L18.9941-46.7773L17.7734-46.7773Q15.2832-46.7773 13.501-45.874Q11.7188-44.9707 10.7422-43.2617Q9.76562-41.5527 9.76562-39.1113ZM23.3887 5.9082L83.8379 5.9082Q90.0879 5.9082 93.1885 2.85645Q96.2891-0.195312 96.2891-6.34766L96.2891-64.1602Q96.2891-70.3125 93.1885-73.3643Q90.0879-76.416 83.8379-76.416L39.7461-76.416Q33.4961-76.416 30.3955-73.3643Q27.2949-70.3125 27.2949-64.1602L27.2949-2.53906Q27.2949 0.634766 26.4648 2.58789Q25.6348 4.54102 23.3887 5.9082ZM42.9688-53.0762Q41.7969-53.0762 41.0156-53.8574Q40.2344-54.6387 40.2344-55.7617Q40.2344-56.8359 41.0156-57.5928Q41.7969-58.3496 42.9688-58.3496L80.6641-58.3496Q81.7871-58.3496 82.5439-57.5928Q83.3008-56.8359 83.3008-55.7617Q83.3008-54.6387 82.5439-53.8574Q81.7871-53.0762 80.6641-53.0762ZM42.9688-39.7461Q41.7969-39.7461 41.0156-40.4785Q40.2344-41.2109 40.2344-42.334Q40.2344-43.457 41.0156-44.2383Q41.7969-45.0195 42.9688-45.0195L80.6641-45.0195Q81.7871-45.0195 82.5439-44.2383Q83.3008-43.457 83.3008-42.334Q83.3008-41.2109 82.5439-40.4785Q81.7871-39.7461 80.6641-39.7461ZM66.6016-26.3672Q65.4297-26.3672 64.6729-27.124Q63.916-27.8809 63.916-28.9551Q63.916-30.0781 64.6729-30.8594Q65.4297-31.6406 66.6016-31.6406L80.6641-31.6406Q81.7871-31.6406 82.5439-30.8594Q83.3008-30.0781 83.3008-28.9551Q83.3008-27.8809 82.5439-27.124Q81.7871-26.3672 80.6641-26.3672ZM66.6016-12.6465Q65.4297-12.6465 64.6729-13.4033Q63.916-14.1602 63.916-15.2344Q63.916-16.4062 64.6729-17.1875Q65.4297-17.9688 66.6016-17.9688L80.6641-17.9688Q81.7871-17.9688 82.5439-17.1875Q83.3008-16.4062 83.3008-15.2344Q83.3008-14.1602 82.5439-13.4033Q81.7871-12.6465 80.6641-12.6465ZM44.873-12.5977Q42.6758-12.5977 41.4551-13.8184Q40.2344-15.0391 40.2344-17.2363L40.2344-27.0508Q40.2344-29.1992 41.4551-30.4199Q42.6758-31.6406 44.873-31.6406L54.2969-31.6406Q56.4941-31.6406 57.7148-30.4199Q58.9355-29.1992 58.9355-27.0508L58.9355-17.2363Q58.9355-15.0391 57.7148-13.8184Q56.4941-12.5977 54.2969-12.5977Z"/>
  </g>
  <g id="Light-S" transform="matrix(1 0 0 1 1101.08 696)">
   <path d="M9.76562-38.8672L9.76562-4.3457Q9.76562-2.88086 10.4004-1.85547Q11.0352-0.830078 12.1338-0.292969Q13.2324 0.244141 14.5508 0.244141Q15.918 0.244141 16.9678-0.317383Q18.0176-0.878906 18.6523-1.9043Q19.2871-2.92969 19.2871-4.3457L19.2871-45.6543L16.9434-45.6543Q14.6973-45.6543 13.1104-44.8486Q11.5234-44.043 10.6445-42.5293Q9.76562-41.0156 9.76562-38.8672ZM22.168 5.66406L82.7148 5.66406Q88.5254 5.66406 91.4307 2.7832Q94.3359-0.0976562 94.3359-5.81055L94.3359-64.5996Q94.3359-70.3613 91.4307-73.2422Q88.5254-76.123 82.7148-76.123L37.7441-76.123Q31.9824-76.123 29.0527-73.2422Q26.123-70.3613 26.123-64.5996L26.123-2.00195Q26.123 0.927734 25.2441 2.73438Q24.3652 4.54102 22.168 5.66406ZM41.1621-53.8086Q40.2344-53.8086 39.5996-54.4434Q38.9648-55.0781 38.9648-55.957Q38.9648-56.8359 39.5996-57.4463Q40.2344-58.0566 41.1621-58.0566L79.3457-58.0566Q80.2734-58.0566 80.8594-57.4463Q81.4453-56.8359 81.4453-55.957Q81.4453-55.0781 80.8594-54.4434Q80.2734-53.8086 79.3457-53.8086ZM41.1621-40.2344Q40.2344-40.2344 39.5996-40.8203Q38.9648-41.4062 38.9648-42.2852Q38.9648-43.2129 39.5996-43.8232Q40.2344-44.4336 41.1621-44.4336L79.3457-44.4336Q80.2734-44.4336 80.8594-43.8232Q81.4453-43.2129 81.4453-42.2852Q81.4453-41.4062 80.8594-40.8203Q80.2734-40.2344 79.3457-40.2344ZM64.9902-26.6113Q64.0137-26.6113 63.4033-27.2217Q62.793-27.832 62.793-28.6621Q62.793-29.5898 63.4033-30.2002Q64.0137-30.8105 64.9902-30.8105L79.3457-30.8105Q80.2246-30.8105 80.835-30.2002Q81.4453-29.5898 81.4453-28.6621Q81.4453-27.832 80.835-27.2217Q80.2246-26.6113 79.3457-26.6113ZM64.9902-12.7441Q64.0137-12.7441 63.4033-13.3545Q62.793-13.9648 62.793-14.7949Q62.793-15.7227 63.4033-16.3574Q64.0137-16.9922 64.9902-16.9922L79.3457-16.9922Q80.2246-16.9922 80.835-16.3574Q81.4453-15.7227 81.4453-14.7949Q81.4453-13.9648 80.835-13.3545Q80.2246-12.7441 79.3457-12.7441ZM43.3594-12.4512Q41.2598-12.4512 40.0879-13.623Q38.916-14.7949 38.916-16.8457L38.916-26.416Q38.916-28.4668 40.0879-29.6387Q41.2598-30.8105 43.3594-30.8105L52.9785-30.8105Q55.0781-30.8105 56.25-29.6387Q57.4219-28.4668 57.4219-26.416L57.4219-16.8457Q57.4219-14.7949 56.25-13.623Q55.0781-12.4512 52.9785-12.4512Z"/>
  </g>
  <g id="Thin-S" transform="matrix(1 0 0 1 805.665 696)">
   <path d="M9.76562-38.5254L9.76562-2.97852Q9.76562-1.41602 10.4736-0.390625Q11.1816 0.634766 12.3291 1.14746Q13.4766 1.66016 14.7949 1.61133Q16.0645 1.61133 17.1875 1.07422Q18.3105 0.537109 18.9941-0.463867Q19.6777-1.46484 19.6777-2.97852L19.6777-44.1406L15.8203-44.1406Q13.9648-44.1406 12.5977-43.457Q11.2305-42.7734 10.498-41.5283Q9.76562-40.2832 9.76562-38.5254ZM20.5566 5.32227L81.2012 5.32227Q86.4258 5.32227 89.0869 2.66113Q91.748 0 91.748-5.17578L91.748-65.2344Q91.748-70.3613 89.0869-73.0469Q86.4258-75.7324 81.2012-75.7324L35.1562-75.7324Q29.9316-75.7324 27.2705-73.0469Q24.6094-70.3613 24.6094-65.2344L24.6094-1.31836Q24.6094 1.31836 23.6572 2.90527Q22.7051 4.49219 20.5566 5.32227ZM38.7695-54.7852Q38.1836-54.7852 37.7441-55.2002Q37.3047-55.6152 37.3047-56.2012Q37.3047-56.7871 37.7441-57.2266Q38.1836-57.666 38.7695-57.666L77.5879-57.666Q78.2227-57.666 78.6377-57.2266Q79.0527-56.7871 79.0527-56.2012Q79.0527-55.6152 78.6377-55.2002Q78.2227-54.7852 77.5879-54.7852ZM38.7695-40.8691Q38.1836-40.8691 37.7441-41.2598Q37.3047-41.6504 37.3047-42.2852Q37.3047-42.8711 37.7441-43.2861Q38.1836-43.7012 38.7695-43.7012L77.5879-43.7012Q78.2227-43.7012 78.6377-43.2861Q79.0527-42.8711 79.0527-42.2852Q79.0527-41.6504 78.6377-41.2598Q78.2227-40.8691 77.5879-40.8691ZM62.793-26.9043Q62.1582-26.9043 61.7432-27.3193Q61.3281-27.7344 61.3281-28.3203Q61.3281-28.9062 61.7432-29.3213Q62.1582-29.7363 62.793-29.7363L77.5879-29.7363Q78.2227-29.7363 78.6133-29.3213Q79.0039-28.9062 79.0039-28.3203Q79.0039-27.7344 78.6133-27.3193Q78.2227-26.9043 77.5879-26.9043ZM62.793-12.8418Q62.1582-12.8418 61.7432-13.2568Q61.3281-13.6719 61.3281-14.2578Q61.3281-14.8438 61.7432-15.2832Q62.1582-15.7227 62.793-15.7227L77.5879-15.7227Q78.2227-15.7227 78.6133-15.2832Q79.0039-14.8438 79.0039-14.2578Q79.0039-13.6719 78.6133-13.2568Q78.2227-12.8418 77.5879-12.8418ZM41.3574-12.207Q39.4043-12.207 38.2812-13.3301Q37.1582-14.4531 37.1582-16.3574L37.1582-25.5859Q37.1582-27.4902 38.2812-28.6133Q39.4043-29.7363 41.3574-29.7363L51.2207-29.7363Q53.1738-29.7363 54.3213-28.6133Q55.4688-27.4902 55.4688-25.5859L55.4688-16.3574Q55.4688-14.4531 54.3213-13.3301Q53.1738-12.207 51.2207-12.207Z"/>
  </g>
  <g id="Ultralight-S" transform="matrix(1 0 0 1 509.613 696)">
   <path d="M9.76562-38.3301L9.76562-2.29492Q9.76562-0.683594 10.5225 0.341797Q11.2793 1.36719 12.4512 1.85547Q13.623 2.34375 14.8926 2.29492Q16.1621 2.29492 17.3096 1.78223Q18.457 1.26953 19.165 0.268555Q19.873-0.732422 19.873-2.29492L19.873-43.3594L15.2832-43.3594Q13.5742-43.3594 12.3291-42.749Q11.084-42.1387 10.4248-41.04Q9.76562-39.9414 9.76562-38.3301ZM19.7266 5.17578L80.4199 5.17578Q85.3516 5.17578 87.8906 2.63672Q90.4297 0.0976562 90.4297-4.78516L90.4297-65.5273Q90.4297-70.4102 87.8906-72.9492Q85.3516-75.4883 80.4199-75.4883L33.7891-75.4883Q28.9062-75.4883 26.3428-72.9492Q23.7793-70.4102 23.7793-65.5273L23.7793-0.927734Q23.7793 1.5625 22.8271 3.02734Q21.875 4.49219 19.7266 5.17578ZM37.5488-55.3223Q37.1094-55.3223 36.792-55.6152Q36.4746-55.9082 36.4746-56.3477Q36.4746-56.7871 36.792-57.1045Q37.1094-57.4219 37.5488-57.4219L76.709-57.4219Q77.1973-57.4219 77.4902-57.1045Q77.7832-56.7871 77.7832-56.3477Q77.7832-55.9082 77.4902-55.6152Q77.1973-55.3223 76.709-55.3223ZM37.5488-41.2109Q37.1094-41.2109 36.792-41.5039Q36.4746-41.7969 36.4746-42.2363Q36.4746-42.6758 36.792-42.9932Q37.1094-43.3105 37.5488-43.3105L76.709-43.3105Q77.1973-43.3105 77.4902-42.9932Q77.7832-42.6758 77.7832-42.2363Q77.7832-41.7969 77.4902-41.5039Q77.1973-41.2109 76.709-41.2109ZM61.7188-27.0508Q61.2305-27.0508 60.8887-27.3682Q60.5469-27.6855 60.5469-28.125Q60.5469-28.5645 60.8887-28.8818Q61.2305-29.1992 61.7188-29.1992L76.6602-29.1992Q77.1484-29.1992 77.4658-28.8818Q77.7832-28.5645 77.7832-28.125Q77.7832-27.6855 77.4658-27.3682Q77.1484-27.0508 76.6602-27.0508ZM61.7188-12.9395Q61.2305-12.9395 60.8887-13.2324Q60.5469-13.5254 60.5469-13.9648Q60.5469-14.4043 60.8887-14.7217Q61.2305-15.0391 61.7188-15.0391L76.6602-15.0391Q77.1484-15.0391 77.4658-14.7217Q77.7832-14.4043 77.7832-13.9648Q77.7832-13.5254 77.4658-13.2324Q77.1484-12.9395 76.6602-12.9395ZM40.332-12.1094Q38.4766-12.1094 37.3535-13.208Q36.2305-14.3066 36.2305-16.1133L36.2305-25.1465Q36.2305-26.9531 37.3535-28.0762Q38.4766-29.1992 40.332-29.1992L50.3418-29.1992Q52.1973-29.1992 53.3203-28.0762Q54.4434-26.9531 54.4434-25.1465L54.4434-16.1133Q54.4434-14.3066 53.3203-13.208Q52.1973-12.1094 50.3418-12.1094Z"/>
  </g>
 </g>
</svg>
