<?xml version="1.0" encoding="UTF-8"?>
<svg width="310px" height="310px" viewBox="0 0 310 310" version="1.1" xmlns="http://www.w3.org/2000/svg" xmlns:xlink="http://www.w3.org/1999/xlink">
    <!-- Generator: Sketch 53.2 (72643) - https://sketchapp.com -->
    <title>trash.red</title>
    <desc>Created with Sketch.</desc>
    <g id="budget-tracker" stroke="none" stroke-width="1" fill="none" fill-rule="evenodd">
        <g id="Artboard" transform="translate(-1025.000000, -23.000000)" fill="#E01200">
            <g id="trash.red" transform="translate(1025.000000, 23.000000)">
                <g transform="translate(107.000000, 101.000000)" fill-rule="nonzero" id="Shape">
                    <path d="M25.373,108.7949 L70.1484,108.7949 C73.6314667,108.7949 76.4635,107.753233 78.6445,105.6699 C80.8255,103.58658 81.9974,100.787107 82.1602,97.27148 L85.5293,26.2754 L91.3887,26.2754 C92.3977667,26.2754 93.2522,25.9092 93.952,25.1768 C94.652,24.4443333 95.002,23.5735667 95.002,22.5645 C95.002,21.5553667 94.644,20.6927333 93.928,19.9766 C93.2116667,19.2604 92.3652333,18.9023 91.3887,18.9023 L4.1328,18.9023 C3.15624667,18.9023 2.30176,19.2685333 1.56934,20.001 C0.836913333,20.7334 0.4707,21.5879 0.4707,22.5645 C0.4707,23.5735667 0.836913333,24.4443333 1.56934,25.1768 C2.30176,25.9092 3.15624667,26.2754 4.1328,26.2754 L9.9922,26.2754 L13.3613,97.32031 C13.5241,100.835937 14.6878333,103.627267 16.8525,105.6943 C19.0172333,107.761367 21.8574,108.7949 25.373,108.7949 Z M26.0566,101.42188 C24.6568667,101.42188 23.485,100.949873 22.541,100.00586 C21.597,99.0618467 21.0924333,97.8736967 21.0273,96.44141 L17.6094,26.2754 L77.668,26.2754 L74.4453,96.44141 C74.3802333,97.90625 73.8756667,99.1025367 72.9316,100.03027 C71.9876,100.95801 70.7994667,101.42188 69.3672,101.42188 L26.0566,101.42188 Z M26.3008,22.3691 L34.0645,22.3691 L34.0645,11.9199 C34.0645,10.5527 34.5120667,9.44593333 35.4072,8.5996 C36.3024,7.75326667 37.4824333,7.3301 38.9473,7.3301 L56.4277,7.3301 C57.8925667,7.3301 59.0726,7.75326667 59.9678,8.5996 C60.8629333,9.44593333 61.3105,10.5527 61.3105,11.9199 L61.3105,22.3691 L69.0742,22.3691 L69.0742,11.4316 C69.0742,7.916 67.9918333,5.14093333 65.8271,3.1064 C63.6624333,1.07193333 60.7083333,0.0547 56.9648,0.0547 L38.4102,0.0547 C34.6666667,0.0547 31.7125667,1.07193333 29.5479,3.1064 C27.3831667,5.14093333 26.3008,7.916 26.3008,11.4316 L26.3008,22.3691 Z M47.7363,93.072266 C48.6803,93.072266 49.4452667,92.8037107 50.0312,92.2666 C50.6172,91.7294933 50.9102,91.0377633 50.9102,90.19141 L50.9102,37.9941 C50.9102,37.1477667 50.6172,36.4560333 50.0312,35.9189 C49.4452667,35.3818333 48.6803,35.1133 47.7363,35.1133 C46.8248333,35.1133 46.0761333,35.3818333 45.4902,35.9189 C44.9042667,36.4560333 44.6113,37.1477667 44.6113,37.9941 L44.6113,90.19141 C44.6113,91.0377633 44.9042667,91.7294933 45.4902,92.2666 C46.0761333,92.8037107 46.8248333,93.072266 47.7363,93.072266 Z M33.2832,93.072266 C34.1946667,93.072266 34.9271,92.8037107 35.4805,92.2666 C36.0338333,91.7294933 36.3105,91.0377633 36.3105,90.19141 L34.7969,37.9453 C34.7969,37.0989667 34.5120667,36.4153667 33.9424,35.8945 C33.3727333,35.3737 32.6484333,35.1133 31.7695,35.1133 C30.8580333,35.1133 30.1175,35.3818333 29.5479,35.9189 C28.9782333,36.4560333 28.7096667,37.1477667 28.7422,37.9941 L30.207,90.19141 C30.2396,91.0703167 30.5325667,91.7701867 31.0859,92.29102 C31.6393,92.8118507 32.3717333,93.072266 33.2832,93.072266 Z M62.2383,93.072266 C63.1171667,93.072266 63.8333,92.8118507 64.3867,92.29102 C64.9401,91.7701867 65.2330667,91.0703167 65.2656,90.19141 L66.7305,37.9941 C66.7630333,37.1477667 66.5026,36.4560333 65.9492,35.9189 C65.3958,35.3818333 64.6471,35.1133 63.7031,35.1133 C62.8242333,35.1133 62.1081,35.3737 61.5547,35.8945 C61.0013,36.4153667 60.7083333,37.1152333 60.6758,37.9941 L59.2109,90.19141 C59.1783667,91.0377633 59.4388,91.7294933 59.9922,92.2666 C60.5456,92.8037107 61.2943,93.072266 62.2383,93.072266 Z"></path>
                </g>
                <rect id="Rectangle" opacity="0.005" x="0" y="0" width="310" height="310" rx="155"></rect>
            </g>
        </g>
    </g>
</svg>