<?xml version="1.0" encoding="UTF-8"?>
<svg width="3300px" height="2200px" viewBox="0 0 3300 2200" version="1.1" xmlns="http://www.w3.org/2000/svg" xmlns:xlink="http://www.w3.org/1999/xlink">
    <!-- Generator: Sketch 53.2 (72643) - https://sketchapp.com -->
    <title>add</title>
    <desc>Created with Sketch.</desc>
    <g id="symbols" stroke="none" stroke-width="1" fill="none" fill-rule="evenodd">
        <g id="add" transform="translate(-65.000000, -69.000000)">
            <g transform="translate(65.000000, 69.000000)">
                <g id="Notes">
                    <rect id="artboard" fill="#FFFFFF" fill-rule="nonzero" x="0" y="0" width="3300" height="2200"></rect>
                    <path d="M263,292 L3036,292" id="Path" stroke="#000000" stroke-width="0.5"></path>
                    <text id="Weight/Scale-Variations" fill="#000000" font-family="Helvetica" font-size="13" font-weight="normal">
                        <tspan x="263" y="322">Weight/Scale Variations</tspan>
                    </text>
                    <text id="Ultralight" fill="#000000" font-family="Helvetica" font-size="13" font-weight="normal">
                        <tspan x="533.711" y="322">Ultralight</tspan>
                    </text>
                    <text id="Thin" fill="#000000" font-family="Helvetica" font-size="13" font-weight="normal">
                        <tspan x="843.422" y="322">Thin</tspan>
                    </text>
                    <text id="Light" fill="#000000" font-family="Helvetica" font-size="13" font-weight="normal">
                        <tspan x="1138.63" y="322">Light</tspan>
                    </text>
                    <text id="Regular" fill="#000000" font-family="Helvetica" font-size="13" font-weight="normal">
                        <tspan x="1426.84" y="322">Regular</tspan>
                    </text>
                    <text id="Medium" fill="#000000" font-family="Helvetica" font-size="13" font-weight="normal">
                        <tspan x="1723.06" y="322">Medium</tspan>
                    </text>
                    <text id="Semibold" fill="#000000" font-family="Helvetica" font-size="13" font-weight="normal">
                        <tspan x="2015.77" y="322">Semibold</tspan>
                    </text>
                    <text id="Bold" fill="#000000" font-family="Helvetica" font-size="13" font-weight="normal">
                        <tspan x="2326.48" y="322">Bold</tspan>
                    </text>
                    <text id="Heavy" fill="#000000" font-family="Helvetica" font-size="13" font-weight="normal">
                        <tspan x="2618.19" y="322">Heavy</tspan>
                    </text>
                    <text id="Black" fill="#000000" font-family="Helvetica" font-size="13" font-weight="normal">
                        <tspan x="2917.4" y="322">Black</tspan>
                    </text>
                    <path d="M263,1903 L3036,1903" id="Path" stroke="#000000" stroke-width="0.5"></path>
                    <g id="Group" transform="translate(264.000000, 1918.000000)" fill="#000000" fill-rule="nonzero">
                        <path d="M8.24805,15.830078 C9.32875,15.830078 10.3443667,15.625 11.2949,15.214844 C12.2454333,14.8046873 13.0836667,14.235026 13.8096,13.50586 C14.5354667,12.7766933 15.1051333,11.93685 15.5186,10.98633 C15.932,10.03581 16.1387,9.02344 16.1387,7.94922 C16.1387,6.875 15.932,5.86262667 15.5186,4.9121 C15.1051333,3.96156667 14.5338333,3.12173333 13.8047,2.3926 C13.0755,1.6634 12.2356667,1.09373333 11.2852,0.6836 C10.3346667,0.273466667 9.31902667,0.0684 8.23828,0.0684 C7.16406,0.0684 6.15169,0.273466667 5.20117,0.6836 C4.25065,1.09373333 3.41406333,1.6634 2.69141,2.3926 C1.96875,3.12173333 1.40071333,3.96156667 0.9873,4.9121 C0.573893333,5.86262667 0.36719,6.875 0.36719,7.94922 C0.36719,9.02344 0.573893333,10.03581 0.9873,10.98633 C1.40071333,11.93685 1.97037667,12.7766933 2.69629,13.50586 C3.42220333,14.235026 4.26042,14.8046873 5.21094,15.214844 C6.16146,15.625 7.17383,15.830078 8.24805,15.830078 Z M8.24805,14.345703 C7.36263,14.345703 6.53418,14.1813153 5.7627,13.85254 C4.99121333,13.5237667 4.31413,13.06641 3.73145,12.48047 C3.14876333,11.89453 2.69303333,11.21419 2.36426,10.43945 C2.03548,9.66471 1.87109,8.83463333 1.87109,7.94922 C1.87109,7.0638 2.03385333,6.23372 2.35938,5.45898 C2.6849,4.68426 3.139,4.00393333 3.72168,3.418 C4.30436,2.83206667 4.98144333,2.3747 5.75293,2.0459 C6.52441667,1.7171 7.35286667,1.5527 8.23828,1.5527 C9.13022667,1.5527 9.96193333,1.7171 10.7334,2.0459 C11.5048667,2.3747 12.1835667,2.83206667 12.7695,3.418 C13.3554333,4.00393333 13.8144333,4.68426 14.1465,5.45898 C14.4785,6.23372 14.6445,7.0638 14.6445,7.94922 C14.6445,8.83463333 14.4801333,9.66471 14.1514,10.43945 C13.8226,11.21419 13.3668667,11.89453 12.7842,12.48047 C12.2015333,13.06641 11.5228,13.5237667 10.748,13.85254 C9.97326667,14.1813153 9.13995,14.345703 8.24805,14.345703 Z M4.6543,7.94922 C4.6543,8.16406 4.72266,8.33821333 4.85938,8.47168 C4.99609333,8.60514667 5.17838333,8.67188 5.40625,8.67188 L7.51562,8.67188 L7.51562,10.79102 C7.51562,11.00586 7.58072667,11.1832667 7.71094,11.32324 C7.84114667,11.4632133 8.01692667,11.5332 8.23828,11.5332 C8.45312667,11.5332 8.63053667,11.4632133 8.77051,11.32324 C8.91048333,11.1832667 8.98047,11.00586 8.98047,10.79102 L8.98047,8.67188 L11.0898,8.67188 C11.3112,8.67188 11.4902667,8.60514667 11.627,8.47168 C11.7636667,8.33821333 11.832,8.16406 11.832,7.94922 C11.832,7.72786667 11.7636667,7.54883 11.627,7.41211 C11.4902667,7.27539 11.3112,7.20703 11.0898,7.20703 L8.98047,7.20703 L8.98047,5.09766 C8.98047,4.87628667 8.91048333,4.69563333 8.77051,4.5557 C8.63053667,4.4157 8.45312667,4.3457 8.23828,4.3457 C8.01692667,4.3457 7.84114667,4.4157 7.71094,4.5557 C7.58072667,4.69563333 7.51562,4.87628667 7.51562,5.09766 L7.51562,7.20703 L5.40625,7.20703 C5.17838333,7.20703 4.99609333,7.27539 4.85938,7.41211 C4.72266,7.54883 4.6543,7.72786667 4.6543,7.94922 Z" id="Shape"></path>
                    </g>
                    <g id="Group" transform="translate(282.867000, 1915.000000)" fill="#000000" fill-rule="nonzero">
                        <path d="M10.709,20.91016 C12.0696667,20.91016 13.3506,20.6497433 14.5518,20.12891 C15.7529333,19.6080767 16.8125,18.8886744 17.7305,17.9707031 C18.6484333,17.0527344 19.3678333,15.9931633 19.8887,14.79199 C20.4095,13.5908167 20.6699,12.3098933 20.6699,10.94922 C20.6699,9.58854 20.4095,8.3076 19.8887,7.1064 C19.3678333,5.90526667 18.6484333,4.8457 17.7305,3.9277 C16.8125,3.00976667 15.7513,2.29036667 14.5469,1.7695 C13.3424333,1.2487 12.0598667,0.9883 10.6992,0.9883 C9.33853333,0.9883 8.05761667,1.2487 6.85645,1.7695 C5.65527667,2.29036667 4.59733333,3.00976667 3.68262,3.9277 C2.76790667,4.8457 2.05013333,5.90526667 1.5293,7.1064 C1.00846667,8.3076 0.74805,9.58854 0.74805,10.94922 C0.74805,12.3098933 1.00846667,13.5908167 1.5293,14.79199 C2.05013333,15.9931633 2.76953333,17.0527344 3.6875,17.9707031 C4.60546667,18.8886744 5.66503667,19.6080767 6.86621,20.12891 C8.06738333,20.6497433 9.34831333,20.91016 10.709,20.91016 Z M10.709,19.25 C9.55664667,19.25 8.47916667,19.0351563 7.47656,18.605469 C6.47396,18.1757813 5.59342667,17.581705 4.83496,16.82324 C4.0765,16.06478 3.48405333,15.1842467 3.05762,14.18164 C2.63118667,13.1790333 2.41797,12.10156 2.41797,10.94922 C2.41797,9.79687333 2.63118667,8.7194 3.05762,7.7168 C3.48405333,6.7142 4.07487333,5.83203333 4.83008,5.0703 C5.58528667,4.30856667 6.46419333,3.7145 7.4668,3.2881 C8.4694,2.86163333 9.54686667,2.6484 10.6992,2.6484 C11.8515333,2.6484 12.929,2.86163333 13.9316,3.2881 C14.9342,3.7145 15.8163667,4.30856667 16.5781,5.0703 C17.3398333,5.83203333 17.9355333,6.7142 18.3652,7.7168 C18.7949333,8.7194 19.0098,9.79687333 19.0098,10.94922 C19.0098,12.10156 18.7965667,13.1790333 18.3701,14.18164 C17.9437,15.1842467 17.3512667,16.06478 16.5928,16.82324 C15.8343333,17.581705 14.9521667,18.1757813 13.9463,18.605469 C12.9404333,19.0351563 11.8613333,19.25 10.709,19.25 Z M6.17773,10.94922 C6.17773,11.1835933 6.25585667,11.37565 6.41211,11.52539 C6.56835667,11.67513 6.77018,11.75 7.01758,11.75 L9.8887,11.75 L9.8887,14.63086 C9.8887,14.8782533 9.96356667,15.07845 10.1133,15.23145 C10.2630333,15.3844433 10.4551,15.46094 10.6895,15.46094 C10.9368333,15.46094 11.137,15.3844433 11.29,15.23145 C11.443,15.07845 11.5195,14.8782533 11.5195,14.63086 L11.5195,11.75 L14.4004,11.75 C14.6478,11.75 14.848,11.67513 15.001,11.52539 C15.154,11.37565 15.2305,11.1835933 15.2305,10.94922 C15.2305,10.70182 15.154,10.5016233 15.001,10.34863 C14.848,10.1956367 14.6478,10.11914 14.4004,10.11914 L11.5195,10.11914 L11.5195,7.248 C11.5195,6.99413333 11.443,6.7907 11.29,6.6377 C11.137,6.4847 10.9368333,6.4082 10.6895,6.4082 C10.4551,6.4082 10.2630333,6.48633333 10.1133,6.6426 C9.96356667,6.79886667 9.8887,7.00066667 9.8887,7.248 L9.8887,10.11914 L7.01758,10.11914 C6.76367333,10.11914 6.56022333,10.1956367 6.40723,10.34863 C6.25423,10.5016233 6.17773,10.70182 6.17773,10.94922 Z" id="Shape"></path>
                    </g>
                    <g id="Group" transform="translate(307.646000, 1913.000000)" fill="#000000" fill-rule="nonzero">
                        <path d="M12.9707,25.66406 C14.3639,25.66406 15.6936667,25.44759 16.96,25.01465 C18.2262667,24.5817033 19.39,23.9746067 20.4512,23.19336 C21.5124,22.4121067 22.4352333,21.4908827 23.2197,20.429688 C24.0042333,19.3684893 24.6129667,18.2031233 25.0459,16.93359 C25.4788333,15.6640633 25.6953,14.33594 25.6953,12.94922 C25.6953,11.5559933 25.4788333,10.2262533 25.0459,8.96 C24.6129667,7.69366667 24.0042333,6.52993333 23.2197,5.4688 C22.4352333,4.4076 21.5124,3.48473333 20.4512,2.7002 C19.39,1.91566667 18.2246333,1.30693333 16.9551,0.874 C15.6855667,0.441066667 14.3541667,0.2246 12.9609,0.2246 C11.5677,0.2246 10.2379667,0.441066667 8.9717,0.874 C7.70541333,1.30693333 6.54329667,1.91566667 5.48535,2.7002 C4.42741,3.48473333 3.50618667,4.4076 2.72168,5.4688 C1.93717333,6.52993333 1.33007667,7.69366667 0.90039,8.96 C0.470703333,10.2262533 0.25586,11.5559933 0.25586,12.94922 C0.25586,14.33594 0.47233,15.6640633 0.90527,16.93359 C1.33821667,18.2031233 1.94531333,19.3684893 2.72656,20.429688 C3.50781333,21.4908827 4.42903667,22.4121067 5.49023,23.19336 C6.55143,23.9746067 7.71515333,24.5817033 8.9814,25.01465 C10.2477333,25.44759 11.5775,25.66406 12.9707,25.66406 Z M12.9707,23.84766 C11.7663,23.84766 10.6188333,23.66374 9.5283,23.2959 C8.43782,22.92806 7.44010667,22.41211 6.53516,21.74805 C5.63020667,21.0839853 4.84407333,20.2978513 4.17676,19.389648 C3.50944,18.4814427 2.99349,17.4820933 2.62891,16.3916 C2.26432333,15.3011067 2.08203,14.1536467 2.08203,12.94922 C2.08203,11.73828 2.26432333,10.5875733 2.62891,9.4971 C2.99349,8.40656667 3.50781333,7.4072 4.17188,6.499 C4.83594,5.5908 5.62044333,4.80466667 6.52539,4.1406 C7.43033667,3.47653333 8.42807333,2.96223333 9.5186,2.5977 C10.6090667,2.2331 11.7565,2.0508 12.9609,2.0508 C14.1718333,2.0508 15.3225667,2.2331 16.4131,2.5977 C17.5035667,2.96223333 18.5029,3.47653333 19.4111,4.1406 C20.3193,4.80466667 21.1054333,5.5908 21.7695,6.499 C22.4335667,7.4072 22.9495333,8.40656667 23.3174,9.4971 C23.6852,10.5875733 23.8691,11.73828 23.8691,12.94922 C23.8756333,14.1536467 23.6966,15.3011067 23.332,16.3916 C22.9674667,17.4820933 22.4515333,18.4814427 21.7842,19.389648 C21.1168667,20.2978513 20.3291,21.0839853 19.4209,21.74805 C18.5127,22.41211 17.5133667,22.92806 16.4229,23.2959 C15.3323667,23.66374 14.1816333,23.84766 12.9707,23.84766 Z M7.19922,12.94922 C7.19922,13.2031267 7.28548333,13.4130867 7.45801,13.5791 C7.63053667,13.7451133 7.85026667,13.82812 8.1172,13.82812 L12.0625,13.82812 L12.0625,17.7832 C12.0625,18.0501267 12.1455,18.2698533 12.3115,18.44238 C12.4775,18.6149067 12.6907333,18.70117 12.9512,18.70117 C13.2181333,18.70117 13.4378667,18.6165367 13.6104,18.44727 C13.7828667,18.2779967 13.8691,18.05664 13.8691,17.7832 L13.8691,13.82812 L17.8242,13.82812 C18.0911333,13.82812 18.3092333,13.7451133 18.4785,13.5791 C18.6477667,13.4130867 18.7324,13.2031267 18.7324,12.94922 C18.7324,12.67578 18.6477667,12.4544267 18.4785,12.28516 C18.3092333,12.1158867 18.0911333,12.03125 17.8242,12.03125 L13.8691,12.03125 L13.8691,8.0859 C13.8691,7.8125 13.7828667,7.58953333 13.6104,7.417 C13.4378667,7.24446667 13.2181333,7.1582 12.9512,7.1582 C12.6907333,7.1582 12.4775,7.24446667 12.3115,7.417 C12.1455,7.58953333 12.0625,7.8125 12.0625,8.0859 L12.0625,12.03125 L8.1172,12.03125 C7.84375333,12.03125 7.62239333,12.1158867 7.45312,12.28516 C7.28385333,12.4544267 7.19922,12.67578 7.19922,12.94922 Z" id="Shape"></path>
                    </g>
                    <text id="Design-Variations" fill="#000000" font-family="Helvetica" font-size="13" font-weight="normal">
                        <tspan x="263" y="1953">Design Variations</tspan>
                    </text>
                    <text id="Symbols-are-supported-in-up-to-nine-weights-and-three-scales." fill="#000000" font-family="Helvetica" font-size="13" font-weight="normal">
                        <tspan x="263" y="1971">Symbols are supported in up to nine weights and three scales.</tspan>
                    </text>
                    <text id="For-optimal-layout-with-text-and-other-symbols,-vertically-align" fill="#000000" font-family="Helvetica" font-size="13" font-weight="normal">
                        <tspan x="263" y="1989">For optimal layout with text and other symbols, vertically align</tspan>
                    </text>
                    <text id="symbols-with-the-adjacent-text." fill="#000000" font-family="Helvetica" font-size="13" font-weight="normal">
                        <tspan x="263" y="2007">symbols with the adjacent text.</tspan>
                    </text>
                    <path d="M776,1919 L776,1933" id="Path" stroke="#00AEEF" stroke-width="0.5"></path>
                    <g id="Group" transform="translate(778.000000, 1918.000000)" fill="#000000" fill-rule="nonzero">
                        <path d="M1.31055,15.15625 C1.57096333,15.15625 1.77278667,15.1009115 1.91602,14.9902344 C2.05924667,14.8795575 2.17643333,14.6875 2.26758,14.414062 L3.52734,10.9668 L9.2891,10.9668 L10.5488,14.414062 C10.6399333,14.6875 10.7571333,14.8795575 10.9004,14.9902344 C11.0436,15.1009115 11.2421667,15.15625 11.4961,15.15625 C11.7565,15.15625 11.9632,15.0846354 12.1162,14.9414062 C12.2692,14.7981767 12.3457,14.6028643 12.3457,14.355469 C12.3457,14.205729 12.3099,14.029946 12.2383,13.82812 L7.6582,1.6309 C7.54101333,1.33136667 7.38151,1.10673333 7.17969,0.957 C6.97786333,0.807266667 6.7207,0.7324 6.4082,0.7324 C5.80273333,0.7324 5.39257667,1.02863333 5.17773,1.6211 L0.59766,13.83789 C0.52604,14.0397133 0.49023,14.2154947 0.49023,14.365234 C0.49023,14.61263 0.563473333,14.806315 0.70996,14.9462891 C0.856446667,15.086263 1.05664333,15.15625 1.31055,15.15625 Z M4.00586,9.48242 L6.37891,2.9102 L6.42773,2.9102 L8.8008,9.48242 L4.00586,9.48242 Z" id="Shape"></path>
                    </g>
                    <path d="M793.197,1919 L793.197,1933" id="Path" stroke="#00AEEF" stroke-width="0.5"></path>
                    <text id="Margins" fill="#000000" font-family="Helvetica" font-size="13" font-weight="normal">
                        <tspan x="776" y="1953">Margins</tspan>
                    </text>
                    <text id="Leading-and-trailing-margins-on-the-left-and-right-side-of-each-symbol" fill="#000000" font-family="Helvetica" font-size="13" font-weight="normal">
                        <tspan x="776" y="1971">Leading and trailing margins on the left and right side of each symbol</tspan>
                    </text>
                    <text id="can-be-adjusted-by-modifying-the-x-location-of-the-margin-guidelines." fill="#000000" font-family="Helvetica" font-size="13" font-weight="normal">
                        <tspan x="776" y="1989">can be adjusted by modifying the x-location of the margin guidelines.</tspan>
                    </text>
                    <text id="Modifications-are-automatically-applied-proportionally-to-all" fill="#000000" font-family="Helvetica" font-size="13" font-weight="normal">
                        <tspan x="776" y="2007">Modifications are automatically applied proportionally to all</tspan>
                    </text>
                    <text id="scales-and-weights." fill="#000000" font-family="Helvetica" font-size="13" font-weight="normal">
                        <tspan x="776" y="2025">scales and weights.</tspan>
                    </text>
                    <g id="Group" transform="translate(1291.000000, 1914.000000)" fill="#000000" fill-rule="nonzero">
                        <path d="M0.8418,20.86523 L2.54102,22.57422 C2.97070667,23.01042 3.42480667,23.2122433 3.90332,23.17969 C4.38183333,23.1471367 4.85221,22.8737 5.31445,22.35938 L16.0078,10.57227 L15.041,9.5957 L4.42578,21.27539 C4.25,21.47721 4.07259,21.5911433 3.89355,21.61719 C3.71451667,21.64323 3.50781333,21.5390633 3.27344,21.30469 L2.10156,20.14258 C1.86718667,19.908204 1.76465,19.7014977 1.79395,19.522461 C1.82324333,19.3434243 1.9388,19.1627603 2.14062,18.9804688 L13.6152,8.1797 L12.6387,7.2129 L1.04688,18.101562 C0.552086667,18.5572913 0.286786667,19.0227863 0.25098,19.498047 C0.215173333,19.973309 0.412113333,20.4290367 0.8418,20.86523 Z M7.25781,2.6719 C7.04947667,2.8737 6.93229,3.1048 6.90625,3.3652 C6.88021,3.62566667 6.92578333,3.85353333 7.04297,4.0488 C7.16015667,4.23113333 7.33105333,4.36786667 7.55566,4.459 C7.78027333,4.55013333 8.05535333,4.55663333 8.3809,4.4785 C9.11003333,4.30923333 9.84896667,4.23926667 10.5977,4.2686 C11.3463667,4.29786667 12.0787667,4.54686667 12.7949,5.0156 L12.209,6.4707 C12.0397333,6.88736667 11.9925333,7.25033333 12.0674,7.5596 C12.1422667,7.8688 12.3131667,8.16013333 12.5801,8.4336 L14.875,10.74805 C15.1158667,10.9954433 15.3502333,11.13867 15.5781,11.17773 C15.8059667,11.2167967 16.0598667,11.2102867 16.3398,11.1582 L17.4043,10.96289 L18.0684,11.63672 L18.0293,12.19336 C18.0097667,12.4407533 18.0407,12.6686167 18.1221,12.87695 C18.2034333,13.0852833 18.3645667,13.3098933 18.6055,13.55078 L19.3672,14.29297 C19.6080667,14.5338567 19.8701,14.6591833 20.1533,14.66895 C20.4365,14.67871 20.6953,14.5664033 20.9297,14.33203 L23.8398,11.41211 C24.0742,11.1777367 24.1881333,10.9222033 24.1816,10.64551 C24.1751333,10.3688167 24.0514333,10.1100267 23.8105,9.86914 L23.0391,9.10742 C22.8047,8.86654 22.5849667,8.70216667 22.3799,8.6143 C22.1748333,8.52636667 21.9518333,8.49216667 21.7109,8.5117 L21.1348,8.5605 L20.4902,7.9258 L20.7344,6.8027 C20.7994667,6.52276667 20.7864333,6.26073333 20.6953,6.0166 C20.6041667,5.77246667 20.4121,5.5039 20.1191,5.2109 L17.9219,3.0234 C17.0885667,2.1966 16.2015,1.5765 15.2607,1.1631 C14.3199667,0.7497 13.3727,0.534866667 12.4189,0.5186 C11.4651667,0.502266667 10.5472,0.6764 9.665,1.041 C8.78286667,1.4056 7.98047,1.94923333 7.25781,2.6719 Z M8.752,3.043 C9.35746667,2.60026667 10.0068667,2.2845 10.7002,2.0957 C11.3935333,1.9069 12.0950333,1.84666667 12.8047,1.915 C13.5143,1.9834 14.2027667,2.17383333 14.8701,2.4863 C15.5374333,2.79883333 16.1478,3.23503333 16.7012,3.7949 L19.1328,6.207 C19.25,6.3242 19.3232333,6.43813333 19.3525,6.5488 C19.3818333,6.65946667 19.3769667,6.79946667 19.3379,6.9688 L19.0156,8.4531 L20.5195,9.9375 L21.5059,9.87891 C21.6295667,9.87239667 21.7239667,9.88053333 21.7891,9.90332 C21.8541667,9.92610667 21.9355333,9.98632667 22.0332,10.08398 L22.6094,10.66016 L20.168,13.10156 L19.5918,12.52539 C19.4941333,12.4277367 19.4322667,12.3463567 19.4062,12.28125 C19.3802,12.2161433 19.3704667,12.1184867 19.377,11.98828 L19.4453,11.01172 L17.9512,9.52734 L16.4277,9.78125 C16.2649667,9.81380333 16.1364,9.81868667 16.042,9.7959 C15.9476,9.77311333 15.8385333,9.70312667 15.7148,9.58594 L13.7129,7.584 C13.5827,7.4668 13.5094667,7.3545 13.4932,7.2471 C13.4769333,7.13963333 13.5078333,6.99476667 13.5859,6.8125 L14.4648,4.7227 C13.6836,3.9935 12.8047,3.48893333 11.8281,3.209 C10.8515667,2.92906667 9.85546667,2.93883333 8.8398,3.2383 C8.76173333,3.25783333 8.7113,3.24316667 8.6885,3.1943 C8.6657,3.1455 8.68686667,3.09506667 8.752,3.043 Z" id="Shape"></path>
                    </g>
                    <text id="Exporting" fill="#000000" font-family="Helvetica" font-size="13" font-weight="normal">
                        <tspan x="1289" y="1953">Exporting</tspan>
                    </text>
                    <text id="Symbols-should-be-outlined-when-exporting-to-ensure-the" fill="#000000" font-family="Helvetica" font-size="13" font-weight="normal">
                        <tspan x="1289" y="1971">Symbols should be outlined when exporting to ensure the</tspan>
                    </text>
                    <text id="design-is-preserved-when-submitting-to-Xcode." fill="#000000" font-family="Helvetica" font-size="13" font-weight="normal">
                        <tspan x="1289" y="1989">design is preserved when submitting to Xcode.</tspan>
                    </text>
                    <text id="template-version" fill="#000000" font-family="Helvetica" font-size="13" font-weight="normal">
                        <tspan x="2952" y="1933">Template v.3.0</tspan>
                    </text>
                    <text id="Requires-Xcode-13-or-greater" fill="#000000" font-family="Helvetica" font-size="13" font-weight="normal">
                        <tspan x="2865" y="1951">Requires Xcode 13 or greater</tspan>
                    </text>
                    <text id="descriptive-name" fill="#000000" font-family="Helvetica" font-size="13" font-weight="normal">
                        <tspan x="2872" y="1969">Generated from xmark.circle</tspan>
                    </text>
                    <text id="Typeset-at-100-points" fill="#000000" font-family="Helvetica" font-size="13" font-weight="normal">
                        <tspan x="2912" y="1987">Typeset at 100 points</tspan>
                    </text>
                    <text id="Small" fill="#000000" font-family="Helvetica" font-size="13" font-weight="normal">
                        <tspan x="263" y="726">Small</tspan>
                    </text>
                    <text id="Medium" fill="#000000" font-family="Helvetica" font-size="13" font-weight="normal">
                        <tspan x="263" y="1156">Medium</tspan>
                    </text>
                    <text id="Large" fill="#000000" font-family="Helvetica" font-size="13" font-weight="normal">
                        <tspan x="263" y="1586">Large</tspan>
                    </text>
                </g>
                <g id="Guides" transform="translate(263.000000, 600.000000)">
                    <g id="H-reference" transform="translate(76.000000, 25.000000)" fill="#27AAE1" fill-rule="nonzero">
                        <path d="M0.976562,71 L3.66211,71 L29.3457,3.8613 L30.0293,3.8613 L30.0293,0.541 L28.125,0.541 L0.976562,71 Z M11.6699,46.5371 L46.9727,46.5371 L46.2402,44.291 L12.4512,44.291 L11.6699,46.5371 Z M55.127,71 L57.7637,71 L30.6152,0.541 L29.4434,0.541 L29.4434,3.8613 L55.127,71 Z" id="Shape"></path>
                    </g>
                    <path d="M0,96 L2773,96" id="Baseline-S" stroke="#27AAE1" stroke-width="0.5"></path>
                    <path d="M0,25.541 L2773,25.541" id="Capline-S" stroke="#27AAE1" stroke-width="0.5"></path>
                    <g id="H-reference" transform="translate(76.000000, 455.000000)" fill="#27AAE1" fill-rule="nonzero">
                        <path d="M0.976562,71 L3.66211,71 L29.3457,3.8613 L30.0293,3.8613 L30.0293,0.541 L28.125,0.541 L0.976562,71 Z M11.6699,46.5371 L46.9727,46.5371 L46.2402,44.291 L12.4512,44.291 L11.6699,46.5371 Z M55.127,71 L57.7637,71 L30.6152,0.541 L29.4434,0.541 L29.4434,3.8613 L55.127,71 Z" id="Shape"></path>
                    </g>
                    <path d="M0,526 L2773,526" id="Baseline-M" stroke="#27AAE1" stroke-width="0.5"></path>
                    <path d="M0,455.54 L2773,455.54" id="Capline-M" stroke="#27AAE1" stroke-width="0.5"></path>
                    <g id="H-reference" transform="translate(76.000000, 885.000000)" fill="#27AAE1" fill-rule="nonzero">
                        <path d="M0.976562,71 L3.66211,71 L29.3457,3.8613 L30.0293,3.8613 L30.0293,0.541 L28.125,0.541 L0.976562,71 Z M11.6699,46.5371 L46.9727,46.5371 L46.2402,44.291 L12.4512,44.291 L11.6699,46.5371 Z M55.127,71 L57.7637,71 L30.6152,0.541 L29.4434,0.541 L29.4434,3.8613 L55.127,71 Z" id="Shape"></path>
                    </g>
                    <path d="M0,956 L2773,956" id="Baseline-L" stroke="#27AAE1" stroke-width="0.5"></path>
                    <path d="M0,885.54 L2773,885.54" id="Capline-L" stroke="#27AAE1" stroke-width="0.5"></path>
                    <path d="M252.644,0.785 L252.644,120.121" id="left-margin-Ultralight-S" stroke="#00AEEF" stroke-width="0.5"></path>
                    <path d="M340.778,0.785 L340.778,120.121" id="right-margin-Ultralight-S" stroke="#00AEEF" stroke-width="0.5"></path>
                    <path d="M548.867,0.785 L548.867,120.121" id="left-margin-Thin-S" stroke="#00AEEF" stroke-width="0.5"></path>
                    <path d="M637.978,0.785 L637.978,120.121" id="right-margin-Thin-S" stroke="#00AEEF" stroke-width="0.5"></path>
                    <path d="M844.6,0.785 L844.6,120.121" id="left-margin-Light-S" stroke="#00AEEF" stroke-width="0.5"></path>
                    <path d="M935.67,0.785 L935.67,120.121" id="right-margin-Light-S" stroke="#00AEEF" stroke-width="0.5"></path>
                    <path d="M1140.58,0.785 L1140.58,120.121" id="left-margin-Regular-S" stroke="#00AEEF" stroke-width="0.5"></path>
                    <path d="M1233.11,0.785 L1233.11,120.121" id="right-margin-Regular-S" stroke="#00AEEF" stroke-width="0.5"></path>
                    <path d="M1436.83,0.785 L1436.83,120.121" id="left-margin-Medium-S" stroke="#00AEEF" stroke-width="0.5"></path>
                    <path d="M1530.28,0.785 L1530.28,120.121" id="right-margin-Medium-S" stroke="#00AEEF" stroke-width="0.5"></path>
                    <path d="M1733.2,0.785 L1733.2,120.121" id="left-margin-Semibold-S" stroke="#00AEEF" stroke-width="0.5"></path>
                    <path d="M1827.34,0.785 L1827.34,120.121" id="right-margin-Semibold-S" stroke="#00AEEF" stroke-width="0.5"></path>
                    <path d="M2029.42,0.785 L2029.42,120.121" id="left-margin-Bold-S" stroke="#00AEEF" stroke-width="0.5"></path>
                    <path d="M2124.54,0.785 L2124.54,120.121" id="right-margin-Bold-S" stroke="#00AEEF" stroke-width="0.5"></path>
                    <path d="M2325.47,0.785 L2325.47,120.121" id="left-margin-Heavy-S" stroke="#00AEEF" stroke-width="0.5"></path>
                    <path d="M2421.91,0.785 L2421.91,120.121" id="right-margin-Heavy-S" stroke="#00AEEF" stroke-width="0.5"></path>
                    <path d="M2621.57,0.785 L2621.57,120.121" id="left-margin-Black-S" stroke="#00AEEF" stroke-width="0.5"></path>
                    <path d="M2719.23,0.785 L2719.23,120.121" id="right-margin-Black-S" stroke="#00AEEF" stroke-width="0.5"></path>
                    <path d="M240.632,430.79 L240.632,550.12" id="left-margin-Ultralight-M" stroke="#00AEEF" stroke-width="0.5"></path>
                    <path d="M352.79,430.79 L352.79,550.12" id="right-margin-Ultralight-M" stroke="#00AEEF" stroke-width="0.5"></path>
                    <path d="M536.782,430.79 L536.782,550.12" id="left-margin-Thin-M" stroke="#00AEEF" stroke-width="0.5"></path>
                    <path d="M650.063,430.79 L650.063,550.12" id="right-margin-Thin-M" stroke="#00AEEF" stroke-width="0.5"></path>
                    <path d="M832.42,430.79 L832.42,550.12" id="left-margin-Light-M" stroke="#00AEEF" stroke-width="0.5"></path>
                    <path d="M947.85,430.79 L947.85,550.12" id="right-margin-Light-M" stroke="#00AEEF" stroke-width="0.5"></path>
                    <path d="M1128.3,430.79 L1128.3,550.12" id="left-margin-Regular-M" stroke="#00AEEF" stroke-width="0.5"></path>
                    <path d="M1245.39,430.79 L1245.39,550.12" id="right-margin-Regular-M" stroke="#00AEEF" stroke-width="0.5"></path>
                    <path d="M1424.38,430.79 L1424.38,550.12" id="left-margin-Medium-M" stroke="#00AEEF" stroke-width="0.5"></path>
                    <path d="M1542.74,430.79 L1542.74,550.12" id="right-margin-Medium-M" stroke="#00AEEF" stroke-width="0.5"></path>
                    <path d="M1720.6,430.79 L1720.6,550.12" id="left-margin-Semibold-M" stroke="#00AEEF" stroke-width="0.5"></path>
                    <path d="M1839.93,430.79 L1839.93,550.12" id="right-margin-Semibold-M" stroke="#00AEEF" stroke-width="0.5"></path>
                    <path d="M2016.65,430.79 L2016.65,550.12" id="left-margin-Bold-M" stroke="#00AEEF" stroke-width="0.5"></path>
                    <path d="M2137.3,430.79 L2137.3,550.12" id="right-margin-Bold-M" stroke="#00AEEF" stroke-width="0.5"></path>
                    <path d="M2312.43,430.79 L2312.43,550.12" id="left-margin-Heavy-M" stroke="#00AEEF" stroke-width="0.5"></path>
                    <path d="M2434.94,430.79 L2434.94,550.12" id="right-margin-Heavy-M" stroke="#00AEEF" stroke-width="0.5"></path>
                    <path d="M2608.32,430.79 L2608.32,550.12" id="left-margin-Black-M" stroke="#00AEEF" stroke-width="0.5"></path>
                    <path d="M2732.48,430.79 L2732.48,550.12" id="right-margin-Black-M" stroke="#00AEEF" stroke-width="0.5"></path>
                    <path d="M224.592,860.79 L224.592,980.12" id="left-margin-Ultralight-L" stroke="#00AEEF" stroke-width="0.5"></path>
                    <path d="M368.83,860.79 L368.83,980.12" id="right-margin-Ultralight-L" stroke="#00AEEF" stroke-width="0.5"></path>
                    <path d="M520.693,860.79 L520.693,980.12" id="left-margin-Thin-L" stroke="#00AEEF" stroke-width="0.5"></path>
                    <path d="M666.152,860.79 L666.152,980.12" id="right-margin-Thin-L" stroke="#00AEEF" stroke-width="0.5"></path>
                    <path d="M816.18,860.79 L816.18,980.12" id="left-margin-Light-L" stroke="#00AEEF" stroke-width="0.5"></path>
                    <path d="M964.08,860.79 L964.08,980.12" id="right-margin-Light-L" stroke="#00AEEF" stroke-width="0.5"></path>
                    <path d="M1111.97,860.79 L1111.97,980.12" id="left-margin-Regular-L" stroke="#00AEEF" stroke-width="0.5"></path>
                    <path d="M1261.72,860.79 L1261.72,980.12" id="right-margin-Regular-L" stroke="#00AEEF" stroke-width="0.5"></path>
                    <path d="M1407.87,860.79 L1407.87,980.12" id="left-margin-Medium-L" stroke="#00AEEF" stroke-width="0.5"></path>
                    <path d="M1559.24,860.79 L1559.24,980.12" id="right-margin-Medium-L" stroke="#00AEEF" stroke-width="0.5"></path>
                    <path d="M1703.97,860.79 L1703.97,980.12" id="left-margin-Semibold-L" stroke="#00AEEF" stroke-width="0.5"></path>
                    <path d="M1856.56,860.79 L1856.56,980.12" id="right-margin-Semibold-L" stroke="#00AEEF" stroke-width="0.5"></path>
                    <path d="M1999.85,860.79 L1999.85,980.12" id="left-margin-Bold-L" stroke="#00AEEF" stroke-width="0.5"></path>
                    <path d="M2154.1,860.79 L2154.1,980.12" id="right-margin-Bold-L" stroke="#00AEEF" stroke-width="0.5"></path>
                    <path d="M2295.39,860.79 L2295.39,980.12" id="left-margin-Heavy-L" stroke="#00AEEF" stroke-width="0.5"></path>
                    <path d="M2451.98,860.79 L2451.98,980.12" id="right-margin-Heavy-L" stroke="#00AEEF" stroke-width="0.5"></path>
                    <path d="M2591.05,860.79 L2591.05,980.12" id="left-margin-Black-L" stroke="#00AEEF" stroke-width="0.5"></path>
                    <path d="M2749.75,860.79 L2749.75,980.12" id="right-margin-Black-L" stroke="#00AEEF" stroke-width="0.5"></path>
                </g>
                <g id="Symbols" transform="translate(495.000000, 596.000000)" fill="#000000" fill-rule="nonzero" stroke="#000000" stroke-linecap="round" stroke-linejoin="round" stroke-width="5">
                    <g id="Black-L" transform="translate(2438.000000, 925.000000) rotate(45.000000) translate(-2438.000000, -925.000000) translate(2393.000000, 880.000000)">
                        <path d="M3.63488681,90 C4.7011044,90 5.71888462,89.5616412 6.68822747,88.6849236 L37.8392094,57.2632629 C41.7275225,53.3411632 48.0591131,53.3137738 51.9812127,57.2020869 C51.9972037,57.2179401 52.013141,57.2338473 52.0290245,57.2498081 L83.3117725,88.6849236 C84.1840421,89.5616412 85.153385,90 86.2198011,90 C87.2860187,90 88.1826062,89.6834242 88.9095637,89.0502725 C89.6365212,88.4171208 90,87.6135128 90,86.6394486 C90,85.5680379 89.5637659,84.5940734 88.6912978,83.7175553 L57.1811808,52.0537187 C53.2988404,48.1524386 53.2988526,41.8472743 57.1812081,37.9460092 L88.6912978,6.2824447 C89.5637659,5.40572709 90,4.48033619 90,3.50627201 C90,2.43486124 89.6365212,1.58258002 88.9095637,0.949428322 C88.1826062,0.316476107 87.2860187,0 86.2198011,0 C85.153385,0 84.1840421,0.438259066 83.3117725,1.3147772 L52.0156092,32.6443183 C48.1124482,36.551642 41.7807993,36.5550166 37.8734755,32.6518556 C37.8664894,32.6448769 37.8595137,32.6378879 37.8525483,32.6308886 L6.68822747,1.3147772 C5.71888462,0.438259066 4.7011044,0 3.63488681,0 C2.66554396,0 1.81739378,0.316476107 1.09043627,0.949428322 C0.363478756,1.58258002 0,2.38618796 0,3.36025214 C0,4.4316629 0.436134804,5.40572709 1.30840441,6.2824447 L32.8187104,37.9459818 C36.7011022,41.8472532 36.7011144,48.1524597 32.8187377,52.0537461 L1.30840441,83.7175553 C0.436134804,84.5940734 0,85.5680379 0,86.6394486 C0,87.6135128 0.363478756,88.4171208 1.09043627,89.0502725 C1.81739378,89.6834242 2.66554396,90 3.63488681,90 Z" id="Path"></path>
                    </g>
                    <g id="Heavy-L" transform="translate(2141.500000, 926.000000) rotate(45.000000) translate(-2141.500000, -926.000000) translate(2096.000000, 881.000000)">
                        <path d="M4.24488681,90 C5.3111044,90 6.32888462,89.5616412 7.29822747,88.6849236 L38.4492094,57.2632629 C42.3375225,53.3411632 48.6691131,53.3137738 52.5912127,57.2020869 C52.6072037,57.2179401 52.623141,57.2338473 52.6390245,57.2498081 L83.9217725,88.6849236 C84.7940421,89.5616412 85.763385,90 86.8298011,90 C87.8960187,90 88.7926062,89.6834242 89.5195637,89.0502725 C90.2465212,88.4171208 90.61,87.6135128 90.61,86.6394486 C90.61,85.5680379 90.1737659,84.5940734 89.3012978,83.7175553 L57.7911808,52.0537187 C53.9088404,48.1524386 53.9088526,41.8472743 57.7912081,37.9460092 L89.3012978,6.2824447 C90.1737659,5.40572709 90.61,4.48033619 90.61,3.50627201 C90.61,2.43486124 90.2465212,1.58258002 89.5195637,0.949428322 C88.7926062,0.316476107 87.8960187,0 86.8298011,0 C85.763385,0 84.7940421,0.438259066 83.9217725,1.3147772 L52.6256092,32.6443183 C48.7224482,36.551642 42.3907993,36.5550166 38.4834755,32.6518556 C38.4764894,32.6448769 38.4695137,32.6378879 38.4625483,32.6308886 L7.29822747,1.3147772 C6.32888462,0.438259066 5.3111044,0 4.24488681,0 C3.27554396,0 2.42739378,0.316476107 1.70043627,0.949428322 C0.973478756,1.58258002 0.61,2.38618796 0.61,3.36025214 C0.61,4.4316629 1.0461348,5.40572709 1.91840441,6.2824447 L33.4287104,37.9459818 C37.3111022,41.8472532 37.3111144,48.1524597 33.4287377,52.0537461 L1.91840441,83.7175553 C1.0461348,84.5940734 0.61,85.5680379 0.61,86.6394486 C0.61,87.6135128 0.973478756,88.4171208 1.70043627,89.0502725 C2.42739378,89.6834242 3.27554396,90 4.24488681,90 Z" id="Path"></path>
                    </g>
                    <g id="Bold-L" transform="translate(1844.500000, 926.000000) rotate(45.000000) translate(-1844.500000, -926.000000) translate(1799.000000, 881.000000)">
                        <path d="M3.78488681,90 C4.8511044,90 5.86888462,89.5616412 6.83822747,88.6849236 L37.9892094,57.2632629 C41.8775225,53.3411632 48.2091131,53.3137738 52.1312127,57.2020869 C52.1472037,57.2179401 52.163141,57.2338473 52.1790245,57.2498081 L83.4617725,88.6849236 C84.3340421,89.5616412 85.303385,90 86.3698011,90 C87.4360187,90 88.3326062,89.6834242 89.0595637,89.0502725 C89.7865212,88.4171208 90.15,87.6135128 90.15,86.6394486 C90.15,85.5680379 89.7137659,84.5940734 88.8412978,83.7175553 L57.3311808,52.0537187 C53.4488404,48.1524386 53.4488526,41.8472743 57.3312081,37.9460092 L88.8412978,6.2824447 C89.7137659,5.40572709 90.15,4.48033619 90.15,3.50627201 C90.15,2.43486124 89.7865212,1.58258002 89.0595637,0.949428322 C88.3326062,0.316476107 87.4360187,0 86.3698011,0 C85.303385,0 84.3340421,0.438259066 83.4617725,1.3147772 L52.1656092,32.6443183 C48.2624482,36.551642 41.9307993,36.5550166 38.0234755,32.6518556 C38.0164894,32.6448769 38.0095137,32.6378879 38.0025483,32.6308886 L6.83822747,1.3147772 C5.86888462,0.438259066 4.8511044,0 3.78488681,0 C2.81554396,0 1.96739378,0.316476107 1.24043627,0.949428322 C0.513478756,1.58258002 0.15,2.38618796 0.15,3.36025214 C0.15,4.4316629 0.586134804,5.40572709 1.45840441,6.2824447 L32.9687104,37.9459818 C36.8511022,41.8472532 36.8511144,48.1524597 32.9687377,52.0537461 L1.45840441,83.7175553 C0.586134804,84.5940734 0.15,85.5680379 0.15,86.6394486 C0.15,87.6135128 0.513478756,88.4171208 1.24043627,89.0502725 C1.96739378,89.6834242 2.81554396,90 3.78488681,90 Z" id="Path"></path>
                    </g>
                    <g id="Semibold-L" transform="translate(1548.500000, 926.000000) rotate(45.000000) translate(-1548.500000, -926.000000) translate(1503.000000, 881.000000)">
                        <path d="M3.66488681,90 C4.7311044,90 5.74888462,89.5616412 6.71822747,88.6849236 L37.8692094,57.2632629 C41.7575225,53.3411632 48.0891131,53.3137738 52.0112127,57.2020869 C52.0272037,57.2179401 52.043141,57.2338473 52.0590245,57.2498081 L83.3417725,88.6849236 C84.2140421,89.5616412 85.183385,90 86.2498011,90 C87.3160187,90 88.2126062,89.6834242 88.9395637,89.0502725 C89.6665212,88.4171208 90.03,87.6135128 90.03,86.6394486 C90.03,85.5680379 89.5937659,84.5940734 88.7212978,83.7175553 L57.2111808,52.0537187 C53.3288404,48.1524386 53.3288526,41.8472743 57.2112081,37.9460092 L88.7212978,6.2824447 C89.5937659,5.40572709 90.03,4.48033619 90.03,3.50627201 C90.03,2.43486124 89.6665212,1.58258002 88.9395637,0.949428322 C88.2126062,0.316476107 87.3160187,0 86.2498011,0 C85.183385,0 84.2140421,0.438259066 83.3417725,1.3147772 L52.0456092,32.6443183 C48.1424482,36.551642 41.8107993,36.5550166 37.9034755,32.6518556 C37.8964894,32.6448769 37.8895137,32.6378879 37.8825483,32.6308886 L6.71822747,1.3147772 C5.74888462,0.438259066 4.7311044,0 3.66488681,0 C2.69554396,0 1.84739378,0.316476107 1.12043627,0.949428322 C0.393478756,1.58258002 0.03,2.38618796 0.03,3.36025214 C0.03,4.4316629 0.466134804,5.40572709 1.33840441,6.2824447 L32.8487104,37.9459818 C36.7311022,41.8472532 36.7311144,48.1524597 32.8487377,52.0537461 L1.33840441,83.7175553 C0.466134804,84.5940734 0.03,85.5680379 0.03,86.6394486 C0.03,87.6135128 0.393478756,88.4171208 1.12043627,89.0502725 C1.84739378,89.6834242 2.69554396,90 3.66488681,90 Z" id="Path"></path>
                    </g>
                    <g id="Medium-L" transform="translate(1251.500000, 926.000000) rotate(45.000000) translate(-1251.500000, -926.000000) translate(1206.000000, 881.000000)">
                        <path d="M3.76488681,90 C4.8311044,90 5.84888462,89.5616412 6.81822747,88.6849236 L37.9692094,57.2632629 C41.8575225,53.3411632 48.1891131,53.3137738 52.1112127,57.2020869 C52.1272037,57.2179401 52.143141,57.2338473 52.1590245,57.2498081 L83.4417725,88.6849236 C84.3140421,89.5616412 85.283385,90 86.3498011,90 C87.4160187,90 88.3126062,89.6834242 89.0395637,89.0502725 C89.7665212,88.4171208 90.13,87.6135128 90.13,86.6394486 C90.13,85.5680379 89.6937659,84.5940734 88.8212978,83.7175553 L57.3111808,52.0537187 C53.4288404,48.1524386 53.4288526,41.8472743 57.3112081,37.9460092 L88.8212978,6.2824447 C89.6937659,5.40572709 90.13,4.48033619 90.13,3.50627201 C90.13,2.43486124 89.7665212,1.58258002 89.0395637,0.949428322 C88.3126062,0.316476107 87.4160187,0 86.3498011,0 C85.283385,0 84.3140421,0.438259066 83.4417725,1.3147772 L52.1456092,32.6443183 C48.2424482,36.551642 41.9107993,36.5550166 38.0034755,32.6518556 C37.9964894,32.6448769 37.9895137,32.6378879 37.9825483,32.6308886 L6.81822747,1.3147772 C5.84888462,0.438259066 4.8311044,0 3.76488681,0 C2.79554396,0 1.94739378,0.316476107 1.22043627,0.949428322 C0.493478756,1.58258002 0.13,2.38618796 0.13,3.36025214 C0.13,4.4316629 0.566134804,5.40572709 1.43840441,6.2824447 L32.9487104,37.9459818 C36.8311022,41.8472532 36.8311144,48.1524597 32.9487377,52.0537461 L1.43840441,83.7175553 C0.566134804,84.5940734 0.13,85.5680379 0.13,86.6394486 C0.13,87.6135128 0.493478756,88.4171208 1.22043627,89.0502725 C1.94739378,89.6834242 2.79554396,90 3.76488681,90 Z" id="Path"></path>
                    </g>
                    <g id="Regular-L" transform="translate(955.500000, 926.000000) rotate(45.000000) translate(-955.500000, -926.000000) translate(910.000000, 881.000000)">
                        <path d="M3.66488681,90 C4.7311044,90 5.74888462,89.5616412 6.71822747,88.6849236 L37.8692094,57.2632629 C41.7575225,53.3411632 48.0891131,53.3137738 52.0112127,57.2020869 C52.0272037,57.2179401 52.043141,57.2338473 52.0590245,57.2498081 L83.3417725,88.6849236 C84.2140421,89.5616412 85.183385,90 86.2498011,90 C87.3160187,90 88.2126062,89.6834242 88.9395637,89.0502725 C89.6665212,88.4171208 90.03,87.6135128 90.03,86.6394486 C90.03,85.5680379 89.5937659,84.5940734 88.7212978,83.7175553 L57.2111808,52.0537187 C53.3288404,48.1524386 53.3288526,41.8472743 57.2112081,37.9460092 L88.7212978,6.2824447 C89.5937659,5.40572709 90.03,4.48033619 90.03,3.50627201 C90.03,2.43486124 89.6665212,1.58258002 88.9395637,0.949428322 C88.2126062,0.316476107 87.3160187,0 86.2498011,0 C85.183385,0 84.2140421,0.438259066 83.3417725,1.3147772 L52.0456092,32.6443183 C48.1424482,36.551642 41.8107993,36.5550166 37.9034755,32.6518556 C37.8964894,32.6448769 37.8895137,32.6378879 37.8825483,32.6308886 L6.71822747,1.3147772 C5.74888462,0.438259066 4.7311044,0 3.66488681,0 C2.69554396,0 1.84739378,0.316476107 1.12043627,0.949428322 C0.393478756,1.58258002 0.03,2.38618796 0.03,3.36025214 C0.03,4.4316629 0.466134804,5.40572709 1.33840441,6.2824447 L32.8487104,37.9459818 C36.7311022,41.8472532 36.7311144,48.1524597 32.8487377,52.0537461 L1.33840441,83.7175553 C0.466134804,84.5940734 0.03,85.5680379 0.03,86.6394486 C0.03,87.6135128 0.393478756,88.4171208 1.12043627,89.0502725 C1.84739378,89.6834242 2.69554396,90 3.66488681,90 Z" id="Path"></path>
                    </g>
                    <g id="Light-L" transform="translate(658.500000, 926.000000) rotate(45.000000) translate(-658.500000, -926.000000) translate(613.000000, 881.000000)">
                        <path d="M4.45488681,90 C5.5211044,90 6.53888462,89.5616412 7.50822747,88.6849236 L38.6592094,57.2632629 C42.5475225,53.3411632 48.8791131,53.3137738 52.8012127,57.2020869 C52.8172037,57.2179401 52.833141,57.2338473 52.8490245,57.2498081 L84.1317725,88.6849236 C85.0040421,89.5616412 85.973385,90 87.0398011,90 C88.1060187,90 89.0026062,89.6834242 89.7295637,89.0502725 C90.4565212,88.4171208 90.82,87.6135128 90.82,86.6394486 C90.82,85.5680379 90.3837659,84.5940734 89.5112978,83.7175553 L58.0011808,52.0537187 C54.1188404,48.1524386 54.1188526,41.8472743 58.0012081,37.9460092 L89.5112978,6.2824447 C90.3837659,5.40572709 90.82,4.48033619 90.82,3.50627201 C90.82,2.43486124 90.4565212,1.58258002 89.7295637,0.949428322 C89.0026062,0.316476107 88.1060187,0 87.0398011,0 C85.973385,0 85.0040421,0.438259066 84.1317725,1.3147772 L52.8356092,32.6443183 C48.9324482,36.551642 42.6007993,36.5550166 38.6934755,32.6518556 C38.6864894,32.6448769 38.6795137,32.6378879 38.6725483,32.6308886 L7.50822747,1.3147772 C6.53888462,0.438259066 5.5211044,0 4.45488681,0 C3.48554396,0 2.63739378,0.316476107 1.91043627,0.949428322 C1.18347876,1.58258002 0.82,2.38618796 0.82,3.36025214 C0.82,4.4316629 1.2561348,5.40572709 2.12840441,6.2824447 L33.6387104,37.9459818 C37.5211022,41.8472532 37.5211144,48.1524597 33.6387377,52.0537461 L2.12840441,83.7175553 C1.2561348,84.5940734 0.82,85.5680379 0.82,86.6394486 C0.82,87.6135128 1.18347876,88.4171208 1.91043627,89.0502725 C2.63739378,89.6834242 3.48554396,90 4.45488681,90 Z" id="Path"></path>
                    </g>
                    <g id="Thin-L" transform="translate(361.500000, 926.000000) rotate(45.000000) translate(-361.500000, -926.000000) translate(316.000000, 881.000000)">
                        <path d="M3.94188681,90 C5.0081044,90 6.02588462,89.5616412 6.99522747,88.6849236 L38.1462094,57.2632629 C42.0345225,53.3411632 48.3661131,53.3137738 52.2882127,57.2020869 C52.3042037,57.2179401 52.320141,57.2338473 52.3360245,57.2498081 L83.6187725,88.6849236 C84.4910421,89.5616412 85.460385,90 86.5268011,90 C87.5930187,90 88.4896062,89.6834242 89.2165637,89.0502725 C89.9435212,88.4171208 90.307,87.6135128 90.307,86.6394486 C90.307,85.5680379 89.8707659,84.5940734 88.9982978,83.7175553 L57.4881808,52.0537187 C53.6058404,48.1524386 53.6058526,41.8472743 57.4882081,37.9460092 L88.9982978,6.2824447 C89.8707659,5.40572709 90.307,4.48033619 90.307,3.50627201 C90.307,2.43486124 89.9435212,1.58258002 89.2165637,0.949428322 C88.4896062,0.316476107 87.5930187,0 86.5268011,0 C85.460385,0 84.4910421,0.438259066 83.6187725,1.3147772 L52.3226092,32.6443183 C48.4194482,36.551642 42.0877993,36.5550166 38.1804755,32.6518556 C38.1734894,32.6448769 38.1665137,32.6378879 38.1595483,32.6308886 L6.99522747,1.3147772 C6.02588462,0.438259066 5.0081044,0 3.94188681,0 C2.97254396,0 2.12439378,0.316476107 1.39743627,0.949428322 C0.670478756,1.58258002 0.307,2.38618796 0.307,3.36025214 C0.307,4.4316629 0.743134804,5.40572709 1.61540441,6.2824447 L33.1257104,37.9459818 C37.0081022,41.8472532 37.0081144,48.1524597 33.1257377,52.0537461 L1.61540441,83.7175553 C0.743134804,84.5940734 0.307,85.5680379 0.307,86.6394486 C0.307,87.6135128 0.670478756,88.4171208 1.39743627,89.0502725 C2.12439378,89.6834242 2.97254396,90 3.94188681,90 Z" id="Path"></path>
                    </g>
                    <g id="Ultralight-L" transform="translate(64.500000, 926.000000) rotate(45.000000) translate(-64.500000, -926.000000) translate(19.000000, 881.000000)">
                        <path d="M4.04288681,90 C5.1091044,90 6.12688462,89.5616412 7.09622747,88.6849236 L38.2472094,57.2632629 C42.1355225,53.3411632 48.4671131,53.3137738 52.3892127,57.2020869 C52.4052037,57.2179401 52.421141,57.2338473 52.4370245,57.2498081 L83.7197725,88.6849236 C84.5920421,89.5616412 85.561385,90 86.6278011,90 C87.6940187,90 88.5906062,89.6834242 89.3175637,89.0502725 C90.0445212,88.4171208 90.408,87.6135128 90.408,86.6394486 C90.408,85.5680379 89.9717659,84.5940734 89.0992978,83.7175553 L57.5891808,52.0537187 C53.7068404,48.1524386 53.7068526,41.8472743 57.5892081,37.9460092 L89.0992978,6.2824447 C89.9717659,5.40572709 90.408,4.48033619 90.408,3.50627201 C90.408,2.43486124 90.0445212,1.58258002 89.3175637,0.949428322 C88.5906062,0.316476107 87.6940187,0 86.6278011,0 C85.561385,0 84.5920421,0.438259066 83.7197725,1.3147772 L52.4236092,32.6443183 C48.5204482,36.551642 42.1887993,36.5550166 38.2814755,32.6518556 C38.2744894,32.6448769 38.2675137,32.6378879 38.2605483,32.6308886 L7.09622747,1.3147772 C6.12688462,0.438259066 5.1091044,0 4.04288681,0 C3.07354396,0 2.22539378,0.316476107 1.49843627,0.949428322 C0.771478756,1.58258002 0.408,2.38618796 0.408,3.36025214 C0.408,4.4316629 0.844134804,5.40572709 1.71640441,6.2824447 L33.2267104,37.9459818 C37.1091022,41.8472532 37.1091144,48.1524597 33.2267377,52.0537461 L1.71640441,83.7175553 C0.844134804,84.5940734 0.408,85.5680379 0.408,86.6394486 C0.408,87.6135128 0.771478756,88.4171208 1.49843627,89.0502725 C2.22539378,89.6834242 3.07354396,90 4.04288681,90 Z" id="Path"></path>
                    </g>
                    <g id="Black-M" transform="translate(2438.500000, 497.000000) rotate(45.000000) translate(-2438.500000, -497.000000) translate(2393.000000, 452.000000)">
                        <path d="M4.31488681,90 C5.3811044,90 6.39888462,89.5616412 7.36822747,88.6849236 L38.5192094,57.2632629 C42.4075225,53.3411632 48.7391131,53.3137738 52.6612127,57.2020869 C52.6772037,57.2179401 52.693141,57.2338473 52.7090245,57.2498081 L83.9917725,88.6849236 C84.8640421,89.5616412 85.833385,90 86.8998011,90 C87.9660187,90 88.8626062,89.6834242 89.5895637,89.0502725 C90.3165212,88.4171208 90.68,87.6135128 90.68,86.6394486 C90.68,85.5680379 90.2437659,84.5940734 89.3712978,83.7175553 L57.8611808,52.0537187 C53.9788404,48.1524386 53.9788526,41.8472743 57.8612081,37.9460092 L89.3712978,6.2824447 C90.2437659,5.40572709 90.68,4.48033619 90.68,3.50627201 C90.68,2.43486124 90.3165212,1.58258002 89.5895637,0.949428322 C88.8626062,0.316476107 87.9660187,0 86.8998011,0 C85.833385,0 84.8640421,0.438259066 83.9917725,1.3147772 L52.6956092,32.6443183 C48.7924482,36.551642 42.4607993,36.5550166 38.5534755,32.6518556 C38.5464894,32.6448769 38.5395137,32.6378879 38.5325483,32.6308886 L7.36822747,1.3147772 C6.39888462,0.438259066 5.3811044,0 4.31488681,0 C3.34554396,0 2.49739378,0.316476107 1.77043627,0.949428322 C1.04347876,1.58258002 0.68,2.38618796 0.68,3.36025214 C0.68,4.4316629 1.1161348,5.40572709 1.98840441,6.2824447 L33.4987104,37.9459818 C37.3811022,41.8472532 37.3811144,48.1524597 33.4987377,52.0537461 L1.98840441,83.7175553 C1.1161348,84.5940734 0.68,85.5680379 0.68,86.6394486 C0.68,87.6135128 1.04347876,88.4171208 1.77043627,89.0502725 C2.49739378,89.6834242 3.34554396,90 4.31488681,90 Z" id="Path"></path>
                    </g>
                    <g id="Heavy-M" transform="translate(2141.500000, 495.000000) rotate(45.000000) translate(-2141.500000, -495.000000) translate(2096.000000, 450.000000)">
                        <path d="M4.20488681,90 C5.2711044,90 6.28888462,89.5616412 7.25822747,88.6849236 L38.4092094,57.2632629 C42.2975225,53.3411632 48.6291131,53.3137738 52.5512127,57.2020869 C52.5672037,57.2179401 52.583141,57.2338473 52.5990245,57.2498081 L83.8817725,88.6849236 C84.7540421,89.5616412 85.723385,90 86.7898011,90 C87.8560187,90 88.7526062,89.6834242 89.4795637,89.0502725 C90.2065212,88.4171208 90.57,87.6135128 90.57,86.6394486 C90.57,85.5680379 90.1337659,84.5940734 89.2612978,83.7175553 L57.7511808,52.0537187 C53.8688404,48.1524386 53.8688526,41.8472743 57.7512081,37.9460092 L89.2612978,6.2824447 C90.1337659,5.40572709 90.57,4.48033619 90.57,3.50627201 C90.57,2.43486124 90.2065212,1.58258002 89.4795637,0.949428322 C88.7526062,0.316476107 87.8560187,0 86.7898011,0 C85.723385,0 84.7540421,0.438259066 83.8817725,1.3147772 L52.5856092,32.6443183 C48.6824482,36.551642 42.3507993,36.5550166 38.4434755,32.6518556 C38.4364894,32.6448769 38.4295137,32.6378879 38.4225483,32.6308886 L7.25822747,1.3147772 C6.28888462,0.438259066 5.2711044,0 4.20488681,0 C3.23554396,0 2.38739378,0.316476107 1.66043627,0.949428322 C0.933478756,1.58258002 0.57,2.38618796 0.57,3.36025214 C0.57,4.4316629 1.0061348,5.40572709 1.87840441,6.2824447 L33.3887104,37.9459818 C37.2711022,41.8472532 37.2711144,48.1524597 33.3887377,52.0537461 L1.87840441,83.7175553 C1.0061348,84.5940734 0.57,85.5680379 0.57,86.6394486 C0.57,87.6135128 0.933478756,88.4171208 1.66043627,89.0502725 C2.38739378,89.6834242 3.23554396,90 4.20488681,90 Z" id="Path"></path>
                    </g>
                    <g id="Bold-M" transform="translate(1844.500000, 495.000000) rotate(45.000000) translate(-1844.500000, -495.000000) translate(1799.000000, 450.000000)">
                        <path d="M3.98488681,90 C5.0511044,90 6.06888462,89.5616412 7.03822747,88.6849236 L38.1892094,57.2632629 C42.0775225,53.3411632 48.4091131,53.3137738 52.3312127,57.2020869 C52.3472037,57.2179401 52.363141,57.2338473 52.3790245,57.2498081 L83.6617725,88.6849236 C84.5340421,89.5616412 85.503385,90 86.5698011,90 C87.6360187,90 88.5326062,89.6834242 89.2595637,89.0502725 C89.9865212,88.4171208 90.35,87.6135128 90.35,86.6394486 C90.35,85.5680379 89.9137659,84.5940734 89.0412978,83.7175553 L57.5311808,52.0537187 C53.6488404,48.1524386 53.6488526,41.8472743 57.5312081,37.9460092 L89.0412978,6.2824447 C89.9137659,5.40572709 90.35,4.48033619 90.35,3.50627201 C90.35,2.43486124 89.9865212,1.58258002 89.2595637,0.949428322 C88.5326062,0.316476107 87.6360187,0 86.5698011,0 C85.503385,0 84.5340421,0.438259066 83.6617725,1.3147772 L52.3656092,32.6443183 C48.4624482,36.551642 42.1307993,36.5550166 38.2234755,32.6518556 C38.2164894,32.6448769 38.2095137,32.6378879 38.2025483,32.6308886 L7.03822747,1.3147772 C6.06888462,0.438259066 5.0511044,0 3.98488681,0 C3.01554396,0 2.16739378,0.316476107 1.44043627,0.949428322 C0.713478756,1.58258002 0.35,2.38618796 0.35,3.36025214 C0.35,4.4316629 0.786134804,5.40572709 1.65840441,6.2824447 L33.1687104,37.9459818 C37.0511022,41.8472532 37.0511144,48.1524597 33.1687377,52.0537461 L1.65840441,83.7175553 C0.786134804,84.5940734 0.35,85.5680379 0.35,86.6394486 C0.35,87.6135128 0.713478756,88.4171208 1.44043627,89.0502725 C2.16739378,89.6834242 3.01554396,90 3.98488681,90 Z" id="Path"></path>
                    </g>
                    <g id="Semibold-M" transform="translate(1548.000000, 495.000000) rotate(45.000000) translate(-1548.000000, -495.000000) translate(1503.000000, 450.000000)">
                        <path d="M3.63488681,90 C4.7011044,90 5.71888462,89.5616412 6.68822747,88.6849236 L37.8392094,57.2632629 C41.7275225,53.3411632 48.0591131,53.3137738 51.9812127,57.2020869 C51.9972037,57.2179401 52.013141,57.2338473 52.0290245,57.2498081 L83.3117725,88.6849236 C84.1840421,89.5616412 85.153385,90 86.2198011,90 C87.2860187,90 88.1826062,89.6834242 88.9095637,89.0502725 C89.6365212,88.4171208 90,87.6135128 90,86.6394486 C90,85.5680379 89.5637659,84.5940734 88.6912978,83.7175553 L57.1811808,52.0537187 C53.2988404,48.1524386 53.2988526,41.8472743 57.1812081,37.9460092 L88.6912978,6.2824447 C89.5637659,5.40572709 90,4.48033619 90,3.50627201 C90,2.43486124 89.6365212,1.58258002 88.9095637,0.949428322 C88.1826062,0.316476107 87.2860187,0 86.2198011,0 C85.153385,0 84.1840421,0.438259066 83.3117725,1.3147772 L52.0156092,32.6443183 C48.1124482,36.551642 41.7807993,36.5550166 37.8734755,32.6518556 C37.8664894,32.6448769 37.8595137,32.6378879 37.8525483,32.6308886 L6.68822747,1.3147772 C5.71888462,0.438259066 4.7011044,0 3.63488681,0 C2.66554396,0 1.81739378,0.316476107 1.09043627,0.949428322 C0.363478756,1.58258002 0,2.38618796 0,3.36025214 C0,4.4316629 0.436134804,5.40572709 1.30840441,6.2824447 L32.8187104,37.9459818 C36.7011022,41.8472532 36.7011144,48.1524597 32.8187377,52.0537461 L1.30840441,83.7175553 C0.436134804,84.5940734 0,85.5680379 0,86.6394486 C0,87.6135128 0.363478756,88.4171208 1.09043627,89.0502725 C1.81739378,89.6834242 2.66554396,90 3.63488681,90 Z" id="Path"></path>
                    </g>
                    <g id="Medium-M" transform="translate(1251.500000, 495.000000) rotate(45.000000) translate(-1251.500000, -495.000000) translate(1206.000000, 450.000000)">
                        <path d="M4.25488681,90 C5.3211044,90 6.33888462,89.5616412 7.30822747,88.6849236 L38.4592094,57.2632629 C42.3475225,53.3411632 48.6791131,53.3137738 52.6012127,57.2020869 C52.6172037,57.2179401 52.633141,57.2338473 52.6490245,57.2498081 L83.9317725,88.6849236 C84.8040421,89.5616412 85.773385,90 86.8398011,90 C87.9060187,90 88.8026062,89.6834242 89.5295637,89.0502725 C90.2565212,88.4171208 90.62,87.6135128 90.62,86.6394486 C90.62,85.5680379 90.1837659,84.5940734 89.3112978,83.7175553 L57.8011808,52.0537187 C53.9188404,48.1524386 53.9188526,41.8472743 57.8012081,37.9460092 L89.3112978,6.2824447 C90.1837659,5.40572709 90.62,4.48033619 90.62,3.50627201 C90.62,2.43486124 90.2565212,1.58258002 89.5295637,0.949428322 C88.8026062,0.316476107 87.9060187,0 86.8398011,0 C85.773385,0 84.8040421,0.438259066 83.9317725,1.3147772 L52.6356092,32.6443183 C48.7324482,36.551642 42.4007993,36.5550166 38.4934755,32.6518556 C38.4864894,32.6448769 38.4795137,32.6378879 38.4725483,32.6308886 L7.30822747,1.3147772 C6.33888462,0.438259066 5.3211044,0 4.25488681,0 C3.28554396,0 2.43739378,0.316476107 1.71043627,0.949428322 C0.983478756,1.58258002 0.62,2.38618796 0.62,3.36025214 C0.62,4.4316629 1.0561348,5.40572709 1.92840441,6.2824447 L33.4387104,37.9459818 C37.3211022,41.8472532 37.3211144,48.1524597 33.4387377,52.0537461 L1.92840441,83.7175553 C1.0561348,84.5940734 0.62,85.5680379 0.62,86.6394486 C0.62,87.6135128 0.983478756,88.4171208 1.71043627,89.0502725 C2.43739378,89.6834242 3.28554396,90 4.25488681,90 Z" id="Path"></path>
                    </g>
                    <g id="Regular-M" transform="translate(955.500000, 495.000000) rotate(45.000000) translate(-955.500000, -495.000000) translate(910.000000, 450.000000)">
                        <path d="M4.33488681,90 C5.4011044,90 6.41888462,89.5616412 7.38822747,88.6849236 L38.5392094,57.2632629 C42.4275225,53.3411632 48.7591131,53.3137738 52.6812127,57.2020869 C52.6972037,57.2179401 52.713141,57.2338473 52.7290245,57.2498081 L84.0117725,88.6849236 C84.8840421,89.5616412 85.853385,90 86.9198011,90 C87.9860187,90 88.8826062,89.6834242 89.6095637,89.0502725 C90.3365212,88.4171208 90.7,87.6135128 90.7,86.6394486 C90.7,85.5680379 90.2637659,84.5940734 89.3912978,83.7175553 L57.8811808,52.0537187 C53.9988404,48.1524386 53.9988526,41.8472743 57.8812081,37.9460092 L89.3912978,6.2824447 C90.2637659,5.40572709 90.7,4.48033619 90.7,3.50627201 C90.7,2.43486124 90.3365212,1.58258002 89.6095637,0.949428322 C88.8826062,0.316476107 87.9860187,0 86.9198011,0 C85.853385,0 84.8840421,0.438259066 84.0117725,1.3147772 L52.7156092,32.6443183 C48.8124482,36.551642 42.4807993,36.5550166 38.5734755,32.6518556 C38.5664894,32.6448769 38.5595137,32.6378879 38.5525483,32.6308886 L7.38822747,1.3147772 C6.41888462,0.438259066 5.4011044,0 4.33488681,0 C3.36554396,0 2.51739378,0.316476107 1.79043627,0.949428322 C1.06347876,1.58258002 0.7,2.38618796 0.7,3.36025214 C0.7,4.4316629 1.1361348,5.40572709 2.00840441,6.2824447 L33.5187104,37.9459818 C37.4011022,41.8472532 37.4011144,48.1524597 33.5187377,52.0537461 L2.00840441,83.7175553 C1.1361348,84.5940734 0.7,85.5680379 0.7,86.6394486 C0.7,87.6135128 1.06347876,88.4171208 1.79043627,89.0502725 C2.51739378,89.6834242 3.36554396,90 4.33488681,90 Z" id="Path"></path>
                    </g>
                    <g id="Light-M" transform="translate(658.500000, 495.000000) rotate(45.000000) translate(-658.500000, -495.000000) translate(613.000000, 450.000000)">
                        <path d="M4.21488681,90 C5.2811044,90 6.29888462,89.5616412 7.26822747,88.6849236 L38.4192094,57.2632629 C42.3075225,53.3411632 48.6391131,53.3137738 52.5612127,57.2020869 C52.5772037,57.2179401 52.593141,57.2338473 52.6090245,57.2498081 L83.8917725,88.6849236 C84.7640421,89.5616412 85.733385,90 86.7998011,90 C87.8660187,90 88.7626062,89.6834242 89.4895637,89.0502725 C90.2165212,88.4171208 90.58,87.6135128 90.58,86.6394486 C90.58,85.5680379 90.1437659,84.5940734 89.2712978,83.7175553 L57.7611808,52.0537187 C53.8788404,48.1524386 53.8788526,41.8472743 57.7612081,37.9460092 L89.2712978,6.2824447 C90.1437659,5.40572709 90.58,4.48033619 90.58,3.50627201 C90.58,2.43486124 90.2165212,1.58258002 89.4895637,0.949428322 C88.7626062,0.316476107 87.8660187,0 86.7998011,0 C85.733385,0 84.7640421,0.438259066 83.8917725,1.3147772 L52.5956092,32.6443183 C48.6924482,36.551642 42.3607993,36.5550166 38.4534755,32.6518556 C38.4464894,32.6448769 38.4395137,32.6378879 38.4325483,32.6308886 L7.26822747,1.3147772 C6.29888462,0.438259066 5.2811044,0 4.21488681,0 C3.24554396,0 2.39739378,0.316476107 1.67043627,0.949428322 C0.943478756,1.58258002 0.58,2.38618796 0.58,3.36025214 C0.58,4.4316629 1.0161348,5.40572709 1.88840441,6.2824447 L33.3987104,37.9459818 C37.2811022,41.8472532 37.2811144,48.1524597 33.3987377,52.0537461 L1.88840441,83.7175553 C1.0161348,84.5940734 0.58,85.5680379 0.58,86.6394486 C0.58,87.6135128 0.943478756,88.4171208 1.67043627,89.0502725 C2.39739378,89.6834242 3.24554396,90 4.21488681,90 Z" id="Path"></path>
                    </g>
                    <g id="Thin-M" transform="translate(361.500000, 495.000000) rotate(45.000000) translate(-361.500000, -495.000000) translate(316.000000, 450.000000)">
                        <path d="M3.85288681,90 C4.9191044,90 5.93688462,89.5616412 6.90622747,88.6849236 L38.0572094,57.2632629 C41.9455225,53.3411632 48.2771131,53.3137738 52.1992127,57.2020869 C52.2152037,57.2179401 52.231141,57.2338473 52.2470245,57.2498081 L83.5297725,88.6849236 C84.4020421,89.5616412 85.371385,90 86.4378011,90 C87.5040187,90 88.4006062,89.6834242 89.1275637,89.0502725 C89.8545212,88.4171208 90.218,87.6135128 90.218,86.6394486 C90.218,85.5680379 89.7817659,84.5940734 88.9092978,83.7175553 L57.3991808,52.0537187 C53.5168404,48.1524386 53.5168526,41.8472743 57.3992081,37.9460092 L88.9092978,6.2824447 C89.7817659,5.40572709 90.218,4.48033619 90.218,3.50627201 C90.218,2.43486124 89.8545212,1.58258002 89.1275637,0.949428322 C88.4006062,0.316476107 87.5040187,0 86.4378011,0 C85.371385,0 84.4020421,0.438259066 83.5297725,1.3147772 L52.2336092,32.6443183 C48.3304482,36.551642 41.9987993,36.5550166 38.0914755,32.6518556 C38.0844894,32.6448769 38.0775137,32.6378879 38.0705483,32.6308886 L6.90622747,1.3147772 C5.93688462,0.438259066 4.9191044,0 3.85288681,0 C2.88354396,0 2.03539378,0.316476107 1.30843627,0.949428322 C0.581478756,1.58258002 0.218,2.38618796 0.218,3.36025214 C0.218,4.4316629 0.654134804,5.40572709 1.52640441,6.2824447 L33.0367104,37.9459818 C36.9191022,41.8472532 36.9191144,48.1524597 33.0367377,52.0537461 L1.52640441,83.7175553 C0.654134804,84.5940734 0.218,85.5680379 0.218,86.6394486 C0.218,87.6135128 0.581478756,88.4171208 1.30843627,89.0502725 C2.03539378,89.6834242 2.88354396,90 3.85288681,90 Z" id="Path"></path>
                    </g>
                    <g id="Ultralight-M" transform="translate(64.500000, 495.000000) rotate(45.000000) translate(-64.500000, -495.000000) translate(19.000000, 450.000000)">
                        <path d="M4.00288681,90 C5.0691044,90 6.08688462,89.5616412 7.05622747,88.6849236 L38.2072094,57.2632629 C42.0955225,53.3411632 48.4271131,53.3137738 52.3492127,57.2020869 C52.3652037,57.2179401 52.381141,57.2338473 52.3970245,57.2498081 L83.6797725,88.6849236 C84.5520421,89.5616412 85.521385,90 86.5878011,90 C87.6540187,90 88.5506062,89.6834242 89.2775637,89.0502725 C90.0045212,88.4171208 90.368,87.6135128 90.368,86.6394486 C90.368,85.5680379 89.9317659,84.5940734 89.0592978,83.7175553 L57.5491808,52.0537187 C53.6668404,48.1524386 53.6668526,41.8472743 57.5492081,37.9460092 L89.0592978,6.2824447 C89.9317659,5.40572709 90.368,4.48033619 90.368,3.50627201 C90.368,2.43486124 90.0045212,1.58258002 89.2775637,0.949428322 C88.5506062,0.316476107 87.6540187,0 86.5878011,0 C85.521385,0 84.5520421,0.438259066 83.6797725,1.3147772 L52.3836092,32.6443183 C48.4804482,36.551642 42.1487993,36.5550166 38.2414755,32.6518556 C38.2344894,32.6448769 38.2275137,32.6378879 38.2205483,32.6308886 L7.05622747,1.3147772 C6.08688462,0.438259066 5.0691044,0 4.00288681,0 C3.03354396,0 2.18539378,0.316476107 1.45843627,0.949428322 C0.731478756,1.58258002 0.368,2.38618796 0.368,3.36025214 C0.368,4.4316629 0.804134804,5.40572709 1.67640441,6.2824447 L33.1867104,37.9459818 C37.0691022,41.8472532 37.0691144,48.1524597 33.1867377,52.0537461 L1.67640441,83.7175553 C0.804134804,84.5940734 0.368,85.5680379 0.368,86.6394486 C0.368,87.6135128 0.731478756,88.4171208 1.45843627,89.0502725 C2.18539378,89.6834242 3.03354396,90 4.00288681,90 Z" id="Path"></path>
                    </g>
                    <g id="Black-S" transform="translate(2438.500000, 65.000000) rotate(45.000000) translate(-2438.500000, -65.000000) translate(2393.000000, 20.000000)">
                        <path d="M4.06488681,90 C5.1311044,90 6.14888462,89.5616412 7.11822747,88.6849236 L38.2692094,57.2632629 C42.1575225,53.3411632 48.4891131,53.3137738 52.4112127,57.2020869 C52.4272037,57.2179401 52.443141,57.2338473 52.4590245,57.2498081 L83.7417725,88.6849236 C84.6140421,89.5616412 85.583385,90 86.6498011,90 C87.7160187,90 88.6126062,89.6834242 89.3395637,89.0502725 C90.0665212,88.4171208 90.43,87.6135128 90.43,86.6394486 C90.43,85.5680379 89.9937659,84.5940734 89.1212978,83.7175553 L57.6111808,52.0537187 C53.7288404,48.1524386 53.7288526,41.8472743 57.6112081,37.9460092 L89.1212978,6.2824447 C89.9937659,5.40572709 90.43,4.48033619 90.43,3.50627201 C90.43,2.43486124 90.0665212,1.58258002 89.3395637,0.949428322 C88.6126062,0.316476107 87.7160187,0 86.6498011,0 C85.583385,0 84.6140421,0.438259066 83.7417725,1.3147772 L52.4456092,32.6443183 C48.5424482,36.551642 42.2107993,36.5550166 38.3034755,32.6518556 C38.2964894,32.6448769 38.2895137,32.6378879 38.2825483,32.6308886 L7.11822747,1.3147772 C6.14888462,0.438259066 5.1311044,0 4.06488681,0 C3.09554396,0 2.24739378,0.316476107 1.52043627,0.949428322 C0.793478756,1.58258002 0.43,2.38618796 0.43,3.36025214 C0.43,4.4316629 0.866134804,5.40572709 1.73840441,6.2824447 L33.2487104,37.9459818 C37.1311022,41.8472532 37.1311144,48.1524597 33.2487377,52.0537461 L1.73840441,83.7175553 C0.866134804,84.5940734 0.43,85.5680379 0.43,86.6394486 C0.43,87.6135128 0.793478756,88.4171208 1.52043627,89.0502725 C2.24739378,89.6834242 3.09554396,90 4.06488681,90 Z" id="Path"></path>
                    </g>
                    <g id="Heavy-S" transform="translate(2141.500000, 65.000000) rotate(45.000000) translate(-2141.500000, -65.000000) translate(2096.000000, 20.000000)">
                        <path d="M4.16488681,90 C5.2311044,90 6.24888462,89.5616412 7.21822747,88.6849236 L38.3692094,57.2632629 C42.2575225,53.3411632 48.5891131,53.3137738 52.5112127,57.2020869 C52.5272037,57.2179401 52.543141,57.2338473 52.5590245,57.2498081 L83.8417725,88.6849236 C84.7140421,89.5616412 85.683385,90 86.7498011,90 C87.8160187,90 88.7126062,89.6834242 89.4395637,89.0502725 C90.1665212,88.4171208 90.53,87.6135128 90.53,86.6394486 C90.53,85.5680379 90.0937659,84.5940734 89.2212978,83.7175553 L57.7111808,52.0537187 C53.8288404,48.1524386 53.8288526,41.8472743 57.7112081,37.9460092 L89.2212978,6.2824447 C90.0937659,5.40572709 90.53,4.48033619 90.53,3.50627201 C90.53,2.43486124 90.1665212,1.58258002 89.4395637,0.949428322 C88.7126062,0.316476107 87.8160187,0 86.7498011,0 C85.683385,0 84.7140421,0.438259066 83.8417725,1.3147772 L52.5456092,32.6443183 C48.6424482,36.551642 42.3107993,36.5550166 38.4034755,32.6518556 C38.3964894,32.6448769 38.3895137,32.6378879 38.3825483,32.6308886 L7.21822747,1.3147772 C6.24888462,0.438259066 5.2311044,0 4.16488681,0 C3.19554396,0 2.34739378,0.316476107 1.62043627,0.949428322 C0.893478756,1.58258002 0.53,2.38618796 0.53,3.36025214 C0.53,4.4316629 0.966134804,5.40572709 1.83840441,6.2824447 L33.3487104,37.9459818 C37.2311022,41.8472532 37.2311144,48.1524597 33.3487377,52.0537461 L1.83840441,83.7175553 C0.966134804,84.5940734 0.53,85.5680379 0.53,86.6394486 C0.53,87.6135128 0.893478756,88.4171208 1.62043627,89.0502725 C2.34739378,89.6834242 3.19554396,90 4.16488681,90 Z" id="Path"></path>
                    </g>
                    <g id="Bold-S" transform="translate(1844.420000, 64.000000) rotate(45.000000) translate(-1844.420000, -64.000000) translate(1799.420000, 19.000000)">
                        <path d="M3.63488681,90 C4.7011044,90 5.71888462,89.5616412 6.68822747,88.6849236 L37.8392094,57.2632629 C41.7275225,53.3411632 48.0591131,53.3137738 51.9812127,57.2020869 C51.9972037,57.2179401 52.013141,57.2338473 52.0290245,57.2498081 L83.3117725,88.6849236 C84.1840421,89.5616412 85.153385,90 86.2198011,90 C87.2860187,90 88.1826062,89.6834242 88.9095637,89.0502725 C89.6365212,88.4171208 90,87.6135128 90,86.6394486 C90,85.5680379 89.5637659,84.5940734 88.6912978,83.7175553 L57.1811808,52.0537187 C53.2988404,48.1524386 53.2988526,41.8472743 57.1812081,37.9460092 L88.6912978,6.2824447 C89.5637659,5.40572709 90,4.48033619 90,3.50627201 C90,2.43486124 89.6365212,1.58258002 88.9095637,0.949428322 C88.1826062,0.316476107 87.2860187,0 86.2198011,0 C85.153385,0 84.1840421,0.438259066 83.3117725,1.3147772 L52.0156092,32.6443183 C48.1124482,36.551642 41.7807993,36.5550166 37.8734755,32.6518556 C37.8664894,32.6448769 37.8595137,32.6378879 37.8525483,32.6308886 L6.68822747,1.3147772 C5.71888462,0.438259066 4.7011044,0 3.63488681,0 C2.66554396,0 1.81739378,0.316476107 1.09043627,0.949428322 C0.363478756,1.58258002 0,2.38618796 0,3.36025214 C0,4.4316629 0.436134804,5.40572709 1.30840441,6.2824447 L32.8187104,37.9459818 C36.7011022,41.8472532 36.7011144,48.1524597 32.8187377,52.0537461 L1.30840441,83.7175553 C0.436134804,84.5940734 0,85.5680379 0,86.6394486 C0,87.6135128 0.363478756,88.4171208 1.09043627,89.0502725 C1.81739378,89.6834242 2.66554396,90 3.63488681,90 Z" id="Path"></path>
                    </g>
                    <g id="Semibold-S" transform="translate(1548.200000, 64.000000) rotate(45.000000) translate(-1548.200000, -64.000000) translate(1503.200000, 19.000000)">
                        <path d="M3.63488681,90 C4.7011044,90 5.71888462,89.5616412 6.68822747,88.6849236 L37.8392094,57.2632629 C41.7275225,53.3411632 48.0591131,53.3137738 51.9812127,57.2020869 C51.9972037,57.2179401 52.013141,57.2338473 52.0290245,57.2498081 L83.3117725,88.6849236 C84.1840421,89.5616412 85.153385,90 86.2198011,90 C87.2860187,90 88.1826062,89.6834242 88.9095637,89.0502725 C89.6365212,88.4171208 90,87.6135128 90,86.6394486 C90,85.5680379 89.5637659,84.5940734 88.6912978,83.7175553 L57.1811808,52.0537187 C53.2988404,48.1524386 53.2988526,41.8472743 57.1812081,37.9460092 L88.6912978,6.2824447 C89.5637659,5.40572709 90,4.48033619 90,3.50627201 C90,2.43486124 89.6365212,1.58258002 88.9095637,0.949428322 C88.1826062,0.316476107 87.2860187,0 86.2198011,0 C85.153385,0 84.1840421,0.438259066 83.3117725,1.3147772 L52.0156092,32.6443183 C48.1124482,36.551642 41.7807993,36.5550166 37.8734755,32.6518556 C37.8664894,32.6448769 37.8595137,32.6378879 37.8525483,32.6308886 L6.68822747,1.3147772 C5.71888462,0.438259066 4.7011044,0 3.63488681,0 C2.66554396,0 1.81739378,0.316476107 1.09043627,0.949428322 C0.363478756,1.58258002 0,2.38618796 0,3.36025214 C0,4.4316629 0.436134804,5.40572709 1.30840441,6.2824447 L32.8187104,37.9459818 C36.7011022,41.8472532 36.7011144,48.1524597 32.8187377,52.0537461 L1.30840441,83.7175553 C0.436134804,84.5940734 0,85.5680379 0,86.6394486 C0,87.6135128 0.363478756,88.4171208 1.09043627,89.0502725 C1.81739378,89.6834242 2.66554396,90 3.63488681,90 Z" id="Path"></path>
                    </g>
                    <g id="Medium-S" transform="translate(1251.830000, 64.000000) rotate(45.000000) translate(-1251.830000, -64.000000) translate(1206.830000, 19.000000)">
                        <path d="M3.63488681,90 C4.7011044,90 5.71888462,89.5616412 6.68822747,88.6849236 L37.8392094,57.2632629 C41.7275225,53.3411632 48.0591131,53.3137738 51.9812127,57.2020869 C51.9972037,57.2179401 52.013141,57.2338473 52.0290245,57.2498081 L83.3117725,88.6849236 C84.1840421,89.5616412 85.153385,90 86.2198011,90 C87.2860187,90 88.1826062,89.6834242 88.9095637,89.0502725 C89.6365212,88.4171208 90,87.6135128 90,86.6394486 C90,85.5680379 89.5637659,84.5940734 88.6912978,83.7175553 L57.1811808,52.0537187 C53.2988404,48.1524386 53.2988526,41.8472743 57.1812081,37.9460092 L88.6912978,6.2824447 C89.5637659,5.40572709 90,4.48033619 90,3.50627201 C90,2.43486124 89.6365212,1.58258002 88.9095637,0.949428322 C88.1826062,0.316476107 87.2860187,0 86.2198011,0 C85.153385,0 84.1840421,0.438259066 83.3117725,1.3147772 L52.0156092,32.6443183 C48.1124482,36.551642 41.7807993,36.5550166 37.8734755,32.6518556 C37.8664894,32.6448769 37.8595137,32.6378879 37.8525483,32.6308886 L6.68822747,1.3147772 C5.71888462,0.438259066 4.7011044,0 3.63488681,0 C2.66554396,0 1.81739378,0.316476107 1.09043627,0.949428322 C0.363478756,1.58258002 0,2.38618796 0,3.36025214 C0,4.4316629 0.436134804,5.40572709 1.30840441,6.2824447 L32.8187104,37.9459818 C36.7011022,41.8472532 36.7011144,48.1524597 32.8187377,52.0537461 L1.30840441,83.7175553 C0.436134804,84.5940734 0,85.5680379 0,86.6394486 C0,87.6135128 0.363478756,88.4171208 1.09043627,89.0502725 C1.81739378,89.6834242 2.66554396,90 3.63488681,90 Z" id="Path"></path>
                    </g>
                    <g id="Regular-S" transform="translate(955.500000, 65.000000) rotate(45.000000) translate(-955.500000, -65.000000) translate(910.000000, 20.000000)">
                        <path d="M4.05488681,90 C5.1211044,90 6.13888462,89.5616412 7.10822747,88.6849236 L38.2592094,57.2632629 C42.1475225,53.3411632 48.4791131,53.3137738 52.4012127,57.2020869 C52.4172037,57.2179401 52.433141,57.2338473 52.4490245,57.2498081 L83.7317725,88.6849236 C84.6040421,89.5616412 85.573385,90 86.6398011,90 C87.7060187,90 88.6026062,89.6834242 89.3295637,89.0502725 C90.0565212,88.4171208 90.42,87.6135128 90.42,86.6394486 C90.42,85.5680379 89.9837659,84.5940734 89.1112978,83.7175553 L57.6011808,52.0537187 C53.7188404,48.1524386 53.7188526,41.8472743 57.6012081,37.9460092 L89.1112978,6.2824447 C89.9837659,5.40572709 90.42,4.48033619 90.42,3.50627201 C90.42,2.43486124 90.0565212,1.58258002 89.3295637,0.949428322 C88.6026062,0.316476107 87.7060187,0 86.6398011,0 C85.573385,0 84.6040421,0.438259066 83.7317725,1.3147772 L52.4356092,32.6443183 C48.5324482,36.551642 42.2007993,36.5550166 38.2934755,32.6518556 C38.2864894,32.6448769 38.2795137,32.6378879 38.2725483,32.6308886 L7.10822747,1.3147772 C6.13888462,0.438259066 5.1211044,0 4.05488681,0 C3.08554396,0 2.23739378,0.316476107 1.51043627,0.949428322 C0.783478756,1.58258002 0.42,2.38618796 0.42,3.36025214 C0.42,4.4316629 0.856134804,5.40572709 1.72840441,6.2824447 L33.2387104,37.9459818 C37.1211022,41.8472532 37.1211144,48.1524597 33.2387377,52.0537461 L1.72840441,83.7175553 C0.856134804,84.5940734 0.42,85.5680379 0.42,86.6394486 C0.42,87.6135128 0.783478756,88.4171208 1.51043627,89.0502725 C2.23739378,89.6834242 3.08554396,90 4.05488681,90 Z" id="Path"></path>
                    </g>
                    <g id="Light-S" transform="translate(657.600000, 65.000000) rotate(45.000000) translate(-657.600000, -65.000000) translate(612.600000, 20.000000)">
                        <path d="M3.63488681,90 C4.7011044,90 5.71888462,89.5616412 6.68822747,88.6849236 L37.8392094,57.2632629 C41.7275225,53.3411632 48.0591131,53.3137738 51.9812127,57.2020869 C51.9972037,57.2179401 52.013141,57.2338473 52.0290245,57.2498081 L83.3117725,88.6849236 C84.1840421,89.5616412 85.153385,90 86.2198011,90 C87.2860187,90 88.1826062,89.6834242 88.9095637,89.0502725 C89.6365212,88.4171208 90,87.6135128 90,86.6394486 C90,85.5680379 89.5637659,84.5940734 88.6912978,83.7175553 L57.1811808,52.0537187 C53.2988404,48.1524386 53.2988526,41.8472743 57.1812081,37.9460092 L88.6912978,6.2824447 C89.5637659,5.40572709 90,4.48033619 90,3.50627201 C90,2.43486124 89.6365212,1.58258002 88.9095637,0.949428322 C88.1826062,0.316476107 87.2860187,0 86.2198011,0 C85.153385,0 84.1840421,0.438259066 83.3117725,1.3147772 L52.0156092,32.6443183 C48.1124482,36.551642 41.7807993,36.5550166 37.8734755,32.6518556 C37.8664894,32.6448769 37.8595137,32.6378879 37.8525483,32.6308886 L6.68822747,1.3147772 C5.71888462,0.438259066 4.7011044,0 3.63488681,0 C2.66554396,0 1.81739378,0.316476107 1.09043627,0.949428322 C0.363478756,1.58258002 0,2.38618796 0,3.36025214 C0,4.4316629 0.436134804,5.40572709 1.30840441,6.2824447 L32.8187104,37.9459818 C36.7011022,41.8472532 36.7011144,48.1524597 32.8187377,52.0537461 L1.30840441,83.7175553 C0.436134804,84.5940734 0,85.5680379 0,86.6394486 C0,87.6135128 0.363478756,88.4171208 1.09043627,89.0502725 C1.81739378,89.6834242 2.66554396,90 3.63488681,90 Z" id="Path"></path>
                    </g>
                    <g id="Thin-S" transform="translate(362.000000, 65.000000) rotate(45.000000) translate(-362.000000, -65.000000) translate(317.000000, 20.000000)">
                        <path d="M3.63488681,90 C4.7011044,90 5.71888462,89.5616412 6.68822747,88.6849236 L37.8392094,57.2632629 C41.7275225,53.3411632 48.0591131,53.3137738 51.9812127,57.2020869 C51.9972037,57.2179401 52.013141,57.2338473 52.0290245,57.2498081 L83.3117725,88.6849236 C84.1840421,89.5616412 85.153385,90 86.2198011,90 C87.2860187,90 88.1826062,89.6834242 88.9095637,89.0502725 C89.6365212,88.4171208 90,87.6135128 90,86.6394486 C90,85.5680379 89.5637659,84.5940734 88.6912978,83.7175553 L57.1811808,52.0537187 C53.2988404,48.1524386 53.2988526,41.8472743 57.1812081,37.9460092 L88.6912978,6.2824447 C89.5637659,5.40572709 90,4.48033619 90,3.50627201 C90,2.43486124 89.6365212,1.58258002 88.9095637,0.949428322 C88.1826062,0.316476107 87.2860187,0 86.2198011,0 C85.153385,0 84.1840421,0.438259066 83.3117725,1.3147772 L52.0156092,32.6443183 C48.1124482,36.551642 41.7807993,36.5550166 37.8734755,32.6518556 C37.8664894,32.6448769 37.8595137,32.6378879 37.8525483,32.6308886 L6.68822747,1.3147772 C5.71888462,0.438259066 4.7011044,0 3.63488681,0 C2.66554396,0 1.81739378,0.316476107 1.09043627,0.949428322 C0.363478756,1.58258002 0,2.38618796 0,3.36025214 C0,4.4316629 0.436134804,5.40572709 1.30840441,6.2824447 L32.8187104,37.9459818 C36.7011022,41.8472532 36.7011144,48.1524597 32.8187377,52.0537461 L1.30840441,83.7175553 C0.436134804,84.5940734 0,85.5680379 0,86.6394486 C0,87.6135128 0.363478756,88.4171208 1.09043627,89.0502725 C1.81739378,89.6834242 2.66554396,90 3.63488681,90 Z" id="Path"></path>
                    </g>
                    <g id="Ultralight-S" transform="translate(64.000000, 65.000000) rotate(45.000000) translate(-64.000000, -65.000000) translate(19.000000, 20.000000)">
                        <path d="M3.63488681,90 C4.7011044,90 5.71888462,89.5616412 6.68822747,88.6849236 L37.8392094,57.2632629 C41.7275225,53.3411632 48.0591131,53.3137738 51.9812127,57.2020869 C51.9972037,57.2179401 52.013141,57.2338473 52.0290245,57.2498081 L83.3117725,88.6849236 C84.1840421,89.5616412 85.153385,90 86.2198011,90 C87.2860187,90 88.1826062,89.6834242 88.9095637,89.0502725 C89.6365212,88.4171208 90,87.6135128 90,86.6394486 C90,85.5680379 89.5637659,84.5940734 88.6912978,83.7175553 L57.1811808,52.0537187 C53.2988404,48.1524386 53.2988526,41.8472743 57.1812081,37.9460092 L88.6912978,6.2824447 C89.5637659,5.40572709 90,4.48033619 90,3.50627201 C90,2.43486124 89.6365212,1.58258002 88.9095637,0.949428322 C88.1826062,0.316476107 87.2860187,0 86.2198011,0 C85.153385,0 84.1840421,0.438259066 83.3117725,1.3147772 L52.0156092,32.6443183 C48.1124482,36.551642 41.7807993,36.5550166 37.8734755,32.6518556 C37.8664894,32.6448769 37.8595137,32.6378879 37.8525483,32.6308886 L6.68822747,1.3147772 C5.71888462,0.438259066 4.7011044,0 3.63488681,0 C2.66554396,0 1.81739378,0.316476107 1.09043627,0.949428322 C0.363478756,1.58258002 0,2.38618796 0,3.36025214 C0,4.4316629 0.436134804,5.40572709 1.30840441,6.2824447 L32.8187104,37.9459818 C36.7011022,41.8472532 36.7011144,48.1524597 32.8187377,52.0537461 L1.30840441,83.7175553 C0.436134804,84.5940734 0,85.5680379 0,86.6394486 C0,87.6135128 0.363478756,88.4171208 1.09043627,89.0502725 C1.81739378,89.6834242 2.66554396,90 3.63488681,90 Z" id="Path"></path>
                    </g>
                </g>
            </g>
        </g>
    </g>
</svg>