<?xml version="1.0" encoding="UTF-8"?>
<!--Generator: Apple Native CoreSVG 175-->
<!DOCTYPE svg
PUBLIC "-//W3C//DTD SVG 1.1//EN"
       "http://www.w3.org/Graphics/SVG/1.1/DTD/svg11.dtd">
<svg version="1.1" xmlns="http://www.w3.org/2000/svg" xmlns:xlink="http://www.w3.org/1999/xlink" width="3300" height="2200">
 <!--glyph: "uni100CFE.medium", point size: 100.0, font version: "17.0d11e1", template writer version: "65.1"-->
 <g id="Notes">
  <rect height="2200" id="artboard" style="fill:white;opacity:1" width="3300" x="0" y="0"/>
  <line style="fill:none;stroke:black;opacity:1;stroke-width:0.5;" x1="263" x2="3036" y1="292" y2="292"/>
  <text style="stroke:none;fill:black;font-family:sans-serif;font-size:13;font-weight:bold;" transform="matrix(1 0 0 1 263 322)">Weight/Scale Variations</text>
  <text style="stroke:none;fill:black;font-family:sans-serif;font-size:13;text-anchor:middle;" transform="matrix(1 0 0 1 559.711 322)">Ultralight</text>
  <text style="stroke:none;fill:black;font-family:sans-serif;font-size:13;text-anchor:middle;" transform="matrix(1 0 0 1 856.422 322)">Thin</text>
  <text style="stroke:none;fill:black;font-family:sans-serif;font-size:13;text-anchor:middle;" transform="matrix(1 0 0 1 1153.13 322)">Light</text>
  <text style="stroke:none;fill:black;font-family:sans-serif;font-size:13;text-anchor:middle;" transform="matrix(1 0 0 1 1449.84 322)">Regular</text>
  <text style="stroke:none;fill:black;font-family:sans-serif;font-size:13;text-anchor:middle;" transform="matrix(1 0 0 1 1746.56 322)">Medium</text>
  <text style="stroke:none;fill:black;font-family:sans-serif;font-size:13;text-anchor:middle;" transform="matrix(1 0 0 1 2043.27 322)">Semibold</text>
  <text style="stroke:none;fill:black;font-family:sans-serif;font-size:13;text-anchor:middle;" transform="matrix(1 0 0 1 2339.98 322)">Bold</text>
  <text style="stroke:none;fill:black;font-family:sans-serif;font-size:13;text-anchor:middle;" transform="matrix(1 0 0 1 2636.69 322)">Heavy</text>
  <text style="stroke:none;fill:black;font-family:sans-serif;font-size:13;text-anchor:middle;" transform="matrix(1 0 0 1 2933.4 322)">Black</text>
  <line style="fill:none;stroke:black;opacity:1;stroke-width:0.5;" x1="263" x2="3036" y1="1903" y2="1903"/>
  <g transform="matrix(1 0 0 1 263 1933)">
   <path d="M9.24805 0.830078Q10.8691 0.830078 12.2949 0.214844Q13.7207-0.400391 14.8096-1.49414Q15.8984-2.58789 16.5186-4.01367Q17.1387-5.43945 17.1387-7.05078Q17.1387-8.66211 16.5186-10.0879Q15.8984-11.5137 14.8047-12.6074Q13.7109-13.7012 12.2852-14.3164Q10.8594-14.9316 9.23828-14.9316Q7.62695-14.9316 6.20117-14.3164Q4.77539-13.7012 3.69141-12.6074Q2.60742-11.5137 1.9873-10.0879Q1.36719-8.66211 1.36719-7.05078Q1.36719-5.43945 1.9873-4.01367Q2.60742-2.58789 3.69629-1.49414Q4.78516-0.400391 6.21094 0.214844Q7.63672 0.830078 9.24805 0.830078ZM9.24805-0.654297Q7.91992-0.654297 6.7627-1.14746Q5.60547-1.64062 4.73145-2.51953Q3.85742-3.39844 3.36426-4.56055Q2.87109-5.72266 2.87109-7.05078Q2.87109-8.37891 3.35938-9.54102Q3.84766-10.7031 4.72168-11.582Q5.5957-12.4609 6.75293-12.9541Q7.91016-13.4473 9.23828-13.4473Q10.5762-13.4473 11.7334-12.9541Q12.8906-12.4609 13.7695-11.582Q14.6484-10.7031 15.1465-9.54102Q15.6445-8.37891 15.6445-7.05078Q15.6445-5.72266 15.1514-4.56055Q14.6582-3.39844 13.7842-2.51953Q12.9102-1.64062 11.748-1.14746Q10.5859-0.654297 9.24805-0.654297ZM5.6543-7.05078Q5.6543-6.72852 5.85938-6.52832Q6.06445-6.32812 6.40625-6.32812L8.51562-6.32812L8.51562-4.20898Q8.51562-3.88672 8.71094-3.67676Q8.90625-3.4668 9.23828-3.4668Q9.56055-3.4668 9.77051-3.67676Q9.98047-3.88672 9.98047-4.20898L9.98047-6.32812L12.0898-6.32812Q12.4219-6.32812 12.627-6.52832Q12.832-6.72852 12.832-7.05078Q12.832-7.38281 12.627-7.58789Q12.4219-7.79297 12.0898-7.79297L9.98047-7.79297L9.98047-9.90234Q9.98047-10.2344 9.77051-10.4443Q9.56055-10.6543 9.23828-10.6543Q8.90625-10.6543 8.71094-10.4443Q8.51562-10.2344 8.51562-9.90234L8.51562-7.79297L6.40625-7.79297Q6.06445-7.79297 5.85938-7.58789Q5.6543-7.38281 5.6543-7.05078Z"/>
  </g>
  <g transform="matrix(1 0 0 1 281.867 1933)">
   <path d="M11.709 2.91016Q13.75 2.91016 15.5518 2.12891Q17.3535 1.34766 18.7305-0.0292969Q20.1074-1.40625 20.8887-3.20801Q21.6699-5.00977 21.6699-7.05078Q21.6699-9.0918 20.8887-10.8936Q20.1074-12.6953 18.7305-14.0723Q17.3535-15.4492 15.5469-16.2305Q13.7402-17.0117 11.6992-17.0117Q9.6582-17.0117 7.85645-16.2305Q6.05469-15.4492 4.68262-14.0723Q3.31055-12.6953 2.5293-10.8936Q1.74805-9.0918 1.74805-7.05078Q1.74805-5.00977 2.5293-3.20801Q3.31055-1.40625 4.6875-0.0292969Q6.06445 1.34766 7.86621 2.12891Q9.66797 2.91016 11.709 2.91016ZM11.709 1.25Q9.98047 1.25 8.47656 0.605469Q6.97266-0.0390625 5.83496-1.17676Q4.69727-2.31445 4.05762-3.81836Q3.41797-5.32227 3.41797-7.05078Q3.41797-8.7793 4.05762-10.2832Q4.69727-11.7871 5.83008-12.9297Q6.96289-14.0723 8.4668-14.7119Q9.9707-15.3516 11.6992-15.3516Q13.4277-15.3516 14.9316-14.7119Q16.4355-14.0723 17.5781-12.9297Q18.7207-11.7871 19.3652-10.2832Q20.0098-8.7793 20.0098-7.05078Q20.0098-5.32227 19.3701-3.81836Q18.7305-2.31445 17.5928-1.17676Q16.4551-0.0390625 14.9463 0.605469Q13.4375 1.25 11.709 1.25ZM7.17773-7.05078Q7.17773-6.69922 7.41211-6.47461Q7.64648-6.25 8.01758-6.25L10.8887-6.25L10.8887-3.36914Q10.8887-2.99805 11.1133-2.76855Q11.3379-2.53906 11.6895-2.53906Q12.0605-2.53906 12.29-2.76855Q12.5195-2.99805 12.5195-3.36914L12.5195-6.25L15.4004-6.25Q15.7715-6.25 16.001-6.47461Q16.2305-6.69922 16.2305-7.05078Q16.2305-7.42188 16.001-7.65137Q15.7715-7.88086 15.4004-7.88086L12.5195-7.88086L12.5195-10.752Q12.5195-11.1328 12.29-11.3623Q12.0605-11.5918 11.6895-11.5918Q11.3379-11.5918 11.1133-11.3574Q10.8887-11.123 10.8887-10.752L10.8887-7.88086L8.01758-7.88086Q7.63672-7.88086 7.40723-7.65137Q7.17773-7.42188 7.17773-7.05078Z"/>
  </g>
  <g transform="matrix(1 0 0 1 305.646 1933)">
   <path d="M14.9707 5.66406Q17.0605 5.66406 18.96 5.01465Q20.8594 4.36523 22.4512 3.19336Q24.043 2.02148 25.2197 0.429688Q26.3965-1.16211 27.0459-3.06641Q27.6953-4.9707 27.6953-7.05078Q27.6953-9.14062 27.0459-11.04Q26.3965-12.9395 25.2197-14.5312Q24.043-16.123 22.4512-17.2998Q20.8594-18.4766 18.9551-19.126Q17.0508-19.7754 14.9609-19.7754Q12.8711-19.7754 10.9717-19.126Q9.07227-18.4766 7.48535-17.2998Q5.89844-16.123 4.72168-14.5312Q3.54492-12.9395 2.90039-11.04Q2.25586-9.14062 2.25586-7.05078Q2.25586-4.9707 2.90527-3.06641Q3.55469-1.16211 4.72656 0.429688Q5.89844 2.02148 7.49023 3.19336Q9.08203 4.36523 10.9814 5.01465Q12.8809 5.66406 14.9707 5.66406ZM14.9707 3.84766Q13.1641 3.84766 11.5283 3.2959Q9.89258 2.74414 8.53516 1.74805Q7.17773 0.751953 6.17676-0.610352Q5.17578-1.97266 4.62891-3.6084Q4.08203-5.24414 4.08203-7.05078Q4.08203-8.86719 4.62891-10.5029Q5.17578-12.1387 6.17188-13.501Q7.16797-14.8633 8.52539-15.8594Q9.88281-16.8555 11.5186-17.4023Q13.1543-17.9492 14.9609-17.9492Q16.7773-17.9492 18.4131-17.4023Q20.0488-16.8555 21.4111-15.8594Q22.7734-14.8633 23.7695-13.501Q24.7656-12.1387 25.3174-10.5029Q25.8691-8.86719 25.8691-7.05078Q25.8789-5.24414 25.332-3.6084Q24.7852-1.97266 23.7842-0.610352Q22.7832 0.751953 21.4209 1.74805Q20.0586 2.74414 18.4229 3.2959Q16.7871 3.84766 14.9707 3.84766ZM9.19922-7.05078Q9.19922-6.66992 9.45801-6.4209Q9.7168-6.17188 10.1172-6.17188L14.0625-6.17188L14.0625-2.2168Q14.0625-1.81641 14.3115-1.55762Q14.5605-1.29883 14.9512-1.29883Q15.3516-1.29883 15.6104-1.55273Q15.8691-1.80664 15.8691-2.2168L15.8691-6.17188L19.8242-6.17188Q20.2246-6.17188 20.4785-6.4209Q20.7324-6.66992 20.7324-7.05078Q20.7324-7.46094 20.4785-7.71484Q20.2246-7.96875 19.8242-7.96875L15.8691-7.96875L15.8691-11.9141Q15.8691-12.3242 15.6104-12.583Q15.3516-12.8418 14.9512-12.8418Q14.5605-12.8418 14.3115-12.583Q14.0625-12.3242 14.0625-11.9141L14.0625-7.96875L10.1172-7.96875Q9.70703-7.96875 9.45312-7.71484Q9.19922-7.46094 9.19922-7.05078Z"/>
  </g>
  <text style="stroke:none;fill:black;font-family:sans-serif;font-size:13;font-weight:bold;" transform="matrix(1 0 0 1 263 1953)">Design Variations</text>
  <text style="stroke:none;fill:black;font-family:sans-serif;font-size:13;" transform="matrix(1 0 0 1 263 1971)">Symbols are supported in up to nine weights and three scales.</text>
  <text style="stroke:none;fill:black;font-family:sans-serif;font-size:13;" transform="matrix(1 0 0 1 263 1989)">For optimal layout with text and other symbols, vertically align</text>
  <text style="stroke:none;fill:black;font-family:sans-serif;font-size:13;" transform="matrix(1 0 0 1 263 2007)">symbols with the adjacent text.</text>
  <line style="fill:none;stroke:#00AEEF;stroke-width:0.5;opacity:1.0;" x1="776" x2="776" y1="1919" y2="1933"/>
  <g transform="matrix(1 0 0 1 776 1933)">
   <path d="M3.31055 0.15625Q3.70117 0.15625 3.91602-0.00976562Q4.13086-0.175781 4.26758-0.585938L5.52734-4.0332L11.2891-4.0332L12.5488-0.585938Q12.6855-0.175781 12.9004-0.00976562Q13.1152 0.15625 13.4961 0.15625Q13.8867 0.15625 14.1162-0.0585938Q14.3457-0.273438 14.3457-0.644531Q14.3457-0.869141 14.2383-1.17188L9.6582-13.3691Q9.48242-13.8184 9.17969-14.043Q8.87695-14.2676 8.4082-14.2676Q7.5-14.2676 7.17773-13.3789L2.59766-1.16211Q2.49023-0.859375 2.49023-0.634766Q2.49023-0.263672 2.70996-0.0537109Q2.92969 0.15625 3.31055 0.15625ZM6.00586-5.51758L8.37891-12.0898L8.42773-12.0898L10.8008-5.51758Z"/>
  </g>
  <line style="fill:none;stroke:#00AEEF;stroke-width:0.5;opacity:1.0;" x1="793.197" x2="793.197" y1="1919" y2="1933"/>
  <text style="stroke:none;fill:black;font-family:sans-serif;font-size:13;font-weight:bold;" transform="matrix(1 0 0 1 776 1953)">Margins</text>
  <text style="stroke:none;fill:black;font-family:sans-serif;font-size:13;" transform="matrix(1 0 0 1 776 1971)">Leading and trailing margins on the left and right side of each symbol</text>
  <text style="stroke:none;fill:black;font-family:sans-serif;font-size:13;" transform="matrix(1 0 0 1 776 1989)">can be adjusted by modifying the x-location of the margin guidelines.</text>
  <text style="stroke:none;fill:black;font-family:sans-serif;font-size:13;" transform="matrix(1 0 0 1 776 2007)">Modifications are automatically applied proportionally to all</text>
  <text style="stroke:none;fill:black;font-family:sans-serif;font-size:13;" transform="matrix(1 0 0 1 776 2025)">scales and weights.</text>
  <g transform="matrix(1 0 0 1 1289 1933)">
   <path d="M2.8418 1.86523L4.54102 3.57422Q5.18555 4.22852 5.90332 4.17969Q6.62109 4.13086 7.31445 3.35938L18.0078-8.42773L17.041-9.4043L6.42578 2.27539Q6.16211 2.57812 5.89355 2.61719Q5.625 2.65625 5.27344 2.30469L4.10156 1.14258Q3.75 0.791016 3.79395 0.522461Q3.83789 0.253906 4.14062-0.0195312L15.6152-10.8203L14.6387-11.7871L3.04688-0.898438Q2.30469-0.214844 2.25098 0.498047Q2.19727 1.21094 2.8418 1.86523ZM9.25781-16.3281Q8.94531-16.0254 8.90625-15.6348Q8.86719-15.2441 9.04297-14.9512Q9.21875-14.6777 9.55566-14.541Q9.89258-14.4043 10.3809-14.5215Q11.4746-14.7754 12.5977-14.7314Q13.7207-14.6875 14.7949-13.9844L14.209-12.5293Q13.9551-11.9043 14.0674-11.4404Q14.1797-10.9766 14.5801-10.5664L16.875-8.25195Q17.2363-7.88086 17.5781-7.82227Q17.9199-7.76367 18.3398-7.8418L19.4043-8.03711L20.0684-7.36328L20.0293-6.80664Q20-6.43555 20.1221-6.12305Q20.2441-5.81055 20.6055-5.44922L21.3672-4.70703Q21.7285-4.3457 22.1533-4.33105Q22.5781-4.31641 22.9297-4.66797L25.8398-7.58789Q26.1914-7.93945 26.1816-8.35449Q26.1719-8.76953 25.8105-9.13086L25.0391-9.89258Q24.6875-10.2539 24.3799-10.3857Q24.0723-10.5176 23.7109-10.4883L23.1348-10.4395L22.4902-11.0742L22.7344-12.1973Q22.832-12.6172 22.6953-12.9834Q22.5586-13.3496 22.1191-13.7891L19.9219-15.9766Q18.6719-17.2168 17.2607-17.8369Q15.8496-18.457 14.4189-18.4814Q12.9883-18.5059 11.665-17.959Q10.3418-17.4121 9.25781-16.3281ZM10.752-15.957Q11.6602-16.6211 12.7002-16.9043Q13.7402-17.1875 14.8047-17.085Q15.8691-16.9824 16.8701-16.5137Q17.8711-16.0449 18.7012-15.2051L21.1328-12.793Q21.3086-12.6172 21.3525-12.4512Q21.3965-12.2852 21.3379-12.0312L21.0156-10.5469L22.5195-9.0625L23.5059-9.12109Q23.6914-9.13086 23.7891-9.09668Q23.8867-9.0625 24.0332-8.91602L24.6094-8.33984L22.168-5.89844L21.5918-6.47461Q21.4453-6.62109 21.4062-6.71875Q21.3672-6.81641 21.377-7.01172L21.4453-7.98828L19.9512-9.47266L18.4277-9.21875Q18.1836-9.16992 18.042-9.2041Q17.9004-9.23828 17.7148-9.41406L15.7129-11.416Q15.5176-11.5918 15.4932-11.7529Q15.4688-11.9141 15.5859-12.1875L16.4648-14.2773Q15.293-15.3711 13.8281-15.791Q12.3633-16.2109 10.8398-15.7617Q10.7227-15.7324 10.6885-15.8057Q10.6543-15.8789 10.752-15.957Z"/>
  </g>
  <text style="stroke:none;fill:black;font-family:sans-serif;font-size:13;font-weight:bold;" transform="matrix(1 0 0 1 1289 1953)">Exporting</text>
  <text style="stroke:none;fill:black;font-family:sans-serif;font-size:13;" transform="matrix(1 0 0 1 1289 1971)">Symbols should be outlined when exporting to ensure the</text>
  <text style="stroke:none;fill:black;font-family:sans-serif;font-size:13;" transform="matrix(1 0 0 1 1289 1989)">design is preserved when submitting to Xcode.</text>
  <text id="template-version" style="stroke:none;fill:black;font-family:sans-serif;font-size:13;text-anchor:end;" transform="matrix(1 0 0 1 3036 1933)">Template v.3.0</text>
  <text style="stroke:none;fill:black;font-family:sans-serif;font-size:13;text-anchor:end;" transform="matrix(1 0 0 1 3036 1951)">Requires Xcode 13 or greater</text>
  <text id="descriptive-name" style="stroke:none;fill:black;font-family:sans-serif;font-size:13;text-anchor:end;" transform="matrix(1 0 0 1 3036 1969)">Generated from figure.stand</text>
  <text style="stroke:none;fill:black;font-family:sans-serif;font-size:13;text-anchor:end;" transform="matrix(1 0 0 1 3036 1987)">Typeset at 100 points</text>
  <text style="stroke:none;fill:black;font-family:sans-serif;font-size:13;" transform="matrix(1 0 0 1 263 726)">Small</text>
  <text style="stroke:none;fill:black;font-family:sans-serif;font-size:13;" transform="matrix(1 0 0 1 263 1156)">Medium</text>
  <text style="stroke:none;fill:black;font-family:sans-serif;font-size:13;" transform="matrix(1 0 0 1 263 1586)">Large</text>
 </g>
 <g id="Guides">
  <g id="H-reference" style="fill:#27AAE1;stroke:none;" transform="matrix(1 0 0 1 339 696)">
   <path d="M0.976562 0L3.66211 0L29.3457-67.1387L30.0293-67.1387L30.0293-70.459L28.125-70.459ZM11.6699-24.4629L46.9727-24.4629L46.2402-26.709L12.4512-26.709ZM55.127 0L57.7637 0L30.6152-70.459L29.4434-70.459L29.4434-67.1387Z"/>
  </g>
  <line id="Baseline-S" style="fill:none;stroke:#27AAE1;opacity:1;stroke-width:0.5;" x1="263" x2="3036" y1="696" y2="696"/>
  <line id="Capline-S" style="fill:none;stroke:#27AAE1;opacity:1;stroke-width:0.5;" x1="263" x2="3036" y1="625.541" y2="625.541"/>
  <g id="H-reference" style="fill:#27AAE1;stroke:none;" transform="matrix(1 0 0 1 339 1126)">
   <path d="M0.976562 0L3.66211 0L29.3457-67.1387L30.0293-67.1387L30.0293-70.459L28.125-70.459ZM11.6699-24.4629L46.9727-24.4629L46.2402-26.709L12.4512-26.709ZM55.127 0L57.7637 0L30.6152-70.459L29.4434-70.459L29.4434-67.1387Z"/>
  </g>
  <line id="Baseline-M" style="fill:none;stroke:#27AAE1;opacity:1;stroke-width:0.5;" x1="263" x2="3036" y1="1126" y2="1126"/>
  <line id="Capline-M" style="fill:none;stroke:#27AAE1;opacity:1;stroke-width:0.5;" x1="263" x2="3036" y1="1055.54" y2="1055.54"/>
  <g id="H-reference" style="fill:#27AAE1;stroke:none;" transform="matrix(1 0 0 1 339 1556)">
   <path d="M0.976562 0L3.66211 0L29.3457-67.1387L30.0293-67.1387L30.0293-70.459L28.125-70.459ZM11.6699-24.4629L46.9727-24.4629L46.2402-26.709L12.4512-26.709ZM55.127 0L57.7637 0L30.6152-70.459L29.4434-70.459L29.4434-67.1387Z"/>
  </g>
  <line id="Baseline-L" style="fill:none;stroke:#27AAE1;opacity:1;stroke-width:0.5;" x1="263" x2="3036" y1="1556" y2="1556"/>
  <line id="Capline-L" style="fill:none;stroke:#27AAE1;opacity:1;stroke-width:0.5;" x1="263" x2="3036" y1="1485.54" y2="1485.54"/>
  <line id="left-margin-Ultralight-S" style="fill:none;stroke:#00AEEF;stroke-width:0.5;opacity:1.0;" x1="532.758" x2="532.758" y1="600.785" y2="720.121"/>
  <line id="right-margin-Ultralight-S" style="fill:none;stroke:#00AEEF;stroke-width:0.5;opacity:1.0;" x1="586.664" x2="586.664" y1="600.785" y2="720.121"/>
  <line id="left-margin-Thin-S" style="fill:none;stroke:#00AEEF;stroke-width:0.5;opacity:1.0;" x1="828.786" x2="828.786" y1="600.785" y2="720.121"/>
  <line id="right-margin-Thin-S" style="fill:none;stroke:#00AEEF;stroke-width:0.5;opacity:1.0;" x1="884.059" x2="884.059" y1="600.785" y2="720.121"/>
  <line id="left-margin-Light-S" style="fill:none;stroke:#00AEEF;stroke-width:0.5;opacity:1.0;" x1="1124.18" x2="1124.18" y1="600.785" y2="720.121"/>
  <line id="right-margin-Light-S" style="fill:none;stroke:#00AEEF;stroke-width:0.5;opacity:1.0;" x1="1182.09" x2="1182.09" y1="600.785" y2="720.121"/>
  <line id="left-margin-Regular-S" style="fill:none;stroke:#00AEEF;stroke-width:0.5;opacity:1.0;" x1="1419.89" x2="1419.89" y1="600.785" y2="720.121"/>
  <line id="right-margin-Regular-S" style="fill:none;stroke:#00AEEF;stroke-width:0.5;opacity:1.0;" x1="1479.8" x2="1479.8" y1="600.785" y2="720.121"/>
  <line id="left-margin-Medium-S" style="fill:none;stroke:#00AEEF;stroke-width:0.5;opacity:1.0;" x1="1715.6" x2="1715.6" y1="600.785" y2="720.121"/>
  <line id="right-margin-Medium-S" style="fill:none;stroke:#00AEEF;stroke-width:0.5;opacity:1.0;" x1="1777.51" x2="1777.51" y1="600.785" y2="720.121"/>
  <line id="left-margin-Semibold-S" style="fill:none;stroke:#00AEEF;stroke-width:0.5;opacity:1.0;" x1="2011.55" x2="2011.55" y1="600.785" y2="720.121"/>
  <line id="right-margin-Semibold-S" style="fill:none;stroke:#00AEEF;stroke-width:0.5;opacity:1.0;" x1="2074.98" x2="2074.98" y1="600.785" y2="720.121"/>
  <line id="left-margin-Bold-S" style="fill:none;stroke:#00AEEF;stroke-width:0.5;opacity:1.0;" x1="2307.24" x2="2307.24" y1="600.785" y2="720.121"/>
  <line id="right-margin-Bold-S" style="fill:none;stroke:#00AEEF;stroke-width:0.5;opacity:1.0;" x1="2372.72" x2="2372.72" y1="600.785" y2="720.121"/>
  <line id="left-margin-Heavy-S" style="fill:none;stroke:#00AEEF;stroke-width:0.5;opacity:1.0;" x1="2602.51" x2="2602.51" y1="600.785" y2="720.121"/>
  <line id="right-margin-Heavy-S" style="fill:none;stroke:#00AEEF;stroke-width:0.5;opacity:1.0;" x1="2670.87" x2="2670.87" y1="600.785" y2="720.121"/>
  <line id="left-margin-Black-S" style="fill:none;stroke:#00AEEF;stroke-width:0.5;opacity:1.0;" x1="2897.9" x2="2897.9" y1="600.785" y2="720.121"/>
  <line id="right-margin-Black-S" style="fill:none;stroke:#00AEEF;stroke-width:0.5;opacity:1.0;" x1="2968.9" x2="2968.9" y1="600.785" y2="720.121"/>
  <line id="left-margin-Ultralight-M" style="fill:none;stroke:#00AEEF;stroke-width:0.5;opacity:1.0;" x1="525.58" x2="525.58" y1="1030.79" y2="1150.12"/>
  <line id="right-margin-Ultralight-M" style="fill:none;stroke:#00AEEF;stroke-width:0.5;opacity:1.0;" x1="593.842" x2="593.842" y1="1030.79" y2="1150.12"/>
  <line id="left-margin-Thin-M" style="fill:none;stroke:#00AEEF;stroke-width:0.5;opacity:1.0;" x1="821.51" x2="821.51" y1="1030.79" y2="1150.12"/>
  <line id="right-margin-Thin-M" style="fill:none;stroke:#00AEEF;stroke-width:0.5;opacity:1.0;" x1="891.334" x2="891.334" y1="1030.79" y2="1150.12"/>
  <line id="left-margin-Light-M" style="fill:none;stroke:#00AEEF;stroke-width:0.5;opacity:1.0;" x1="1116.73" x2="1116.73" y1="1030.79" y2="1150.12"/>
  <line id="right-margin-Light-M" style="fill:none;stroke:#00AEEF;stroke-width:0.5;opacity:1.0;" x1="1189.53" x2="1189.53" y1="1030.79" y2="1150.12"/>
  <line id="left-margin-Regular-M" style="fill:none;stroke:#00AEEF;stroke-width:0.5;opacity:1.0;" x1="1412.32" x2="1412.32" y1="1030.79" y2="1150.12"/>
  <line id="right-margin-Regular-M" style="fill:none;stroke:#00AEEF;stroke-width:0.5;opacity:1.0;" x1="1487.37" x2="1487.37" y1="1030.79" y2="1150.12"/>
  <line id="left-margin-Medium-M" style="fill:none;stroke:#00AEEF;stroke-width:0.5;opacity:1.0;" x1="1707.74" x2="1707.74" y1="1030.79" y2="1150.12"/>
  <line id="right-margin-Medium-M" style="fill:none;stroke:#00AEEF;stroke-width:0.5;opacity:1.0;" x1="1785.37" x2="1785.37" y1="1030.79" y2="1150.12"/>
  <line id="left-margin-Semibold-M" style="fill:none;stroke:#00AEEF;stroke-width:0.5;opacity:1.0;" x1="2003.45" x2="2003.45" y1="1030.79" y2="1150.12"/>
  <line id="right-margin-Semibold-M" style="fill:none;stroke:#00AEEF;stroke-width:0.5;opacity:1.0;" x1="2083.09" x2="2083.09" y1="1030.79" y2="1150.12"/>
  <line id="left-margin-Bold-M" style="fill:none;stroke:#00AEEF;stroke-width:0.5;opacity:1.0;" x1="2298.84" x2="2298.84" y1="1030.79" y2="1150.12"/>
  <line id="right-margin-Bold-M" style="fill:none;stroke:#00AEEF;stroke-width:0.5;opacity:1.0;" x1="2381.12" x2="2381.12" y1="1030.79" y2="1150.12"/>
  <line id="left-margin-Heavy-M" style="fill:none;stroke:#00AEEF;stroke-width:0.5;opacity:1.0;" x1="2593.67" x2="2593.67" y1="1030.79" y2="1150.12"/>
  <line id="right-margin-Heavy-M" style="fill:none;stroke:#00AEEF;stroke-width:0.5;opacity:1.0;" x1="2679.71" x2="2679.71" y1="1030.79" y2="1150.12"/>
  <line id="left-margin-Black-M" style="fill:none;stroke:#00AEEF;stroke-width:0.5;opacity:1.0;" x1="2888.67" x2="2888.67" y1="1030.79" y2="1150.12"/>
  <line id="right-margin-Black-M" style="fill:none;stroke:#00AEEF;stroke-width:0.5;opacity:1.0;" x1="2978.13" x2="2978.13" y1="1030.79" y2="1150.12"/>
  <line id="left-margin-Ultralight-L" style="fill:none;stroke:#00AEEF;stroke-width:0.5;opacity:1.0;" x1="515.986" x2="515.986" y1="1460.79" y2="1580.12"/>
  <line id="right-margin-Ultralight-L" style="fill:none;stroke:#00AEEF;stroke-width:0.5;opacity:1.0;" x1="603.437" x2="603.437" y1="1460.79" y2="1580.12"/>
  <line id="left-margin-Thin-L" style="fill:none;stroke:#00AEEF;stroke-width:0.5;opacity:1.0;" x1="811.867" x2="811.867" y1="1460.79" y2="1580.12"/>
  <line id="right-margin-Thin-L" style="fill:none;stroke:#00AEEF;stroke-width:0.5;opacity:1.0;" x1="900.978" x2="900.978" y1="1460.79" y2="1580.12"/>
  <line id="left-margin-Light-L" style="fill:none;stroke:#00AEEF;stroke-width:0.5;opacity:1.0;" x1="1106.89" x2="1106.89" y1="1460.79" y2="1580.12"/>
  <line id="right-margin-Light-L" style="fill:none;stroke:#00AEEF;stroke-width:0.5;opacity:1.0;" x1="1199.37" x2="1199.37" y1="1460.79" y2="1580.12"/>
  <line id="left-margin-Regular-L" style="fill:none;stroke:#00AEEF;stroke-width:0.5;opacity:1.0;" x1="1402.36" x2="1402.36" y1="1460.79" y2="1580.12"/>
  <line id="right-margin-Regular-L" style="fill:none;stroke:#00AEEF;stroke-width:0.5;opacity:1.0;" x1="1497.33" x2="1497.33" y1="1460.79" y2="1580.12"/>
  <line id="left-margin-Medium-L" style="fill:none;stroke:#00AEEF;stroke-width:0.5;opacity:1.0;" x1="1697.53" x2="1697.53" y1="1460.79" y2="1580.12"/>
  <line id="right-margin-Medium-L" style="fill:none;stroke:#00AEEF;stroke-width:0.5;opacity:1.0;" x1="1795.58" x2="1795.58" y1="1460.79" y2="1580.12"/>
  <line id="left-margin-Semibold-L" style="fill:none;stroke:#00AEEF;stroke-width:0.5;opacity:1.0;" x1="1993.07" x2="1993.07" y1="1460.79" y2="1580.12"/>
  <line id="right-margin-Semibold-L" style="fill:none;stroke:#00AEEF;stroke-width:0.5;opacity:1.0;" x1="2093.46" x2="2093.46" y1="1460.79" y2="1580.12"/>
  <line id="left-margin-Bold-L" style="fill:none;stroke:#00AEEF;stroke-width:0.5;opacity:1.0;" x1="2288.22" x2="2288.22" y1="1460.79" y2="1580.12"/>
  <line id="right-margin-Bold-L" style="fill:none;stroke:#00AEEF;stroke-width:0.5;opacity:1.0;" x1="2391.74" x2="2391.74" y1="1460.79" y2="1580.12"/>
  <line id="left-margin-Heavy-L" style="fill:none;stroke:#00AEEF;stroke-width:0.5;opacity:1.0;" x1="2582.68" x2="2582.68" y1="1460.79" y2="1580.12"/>
  <line id="right-margin-Heavy-L" style="fill:none;stroke:#00AEEF;stroke-width:0.5;opacity:1.0;" x1="2690.69" x2="2690.69" y1="1460.79" y2="1580.12"/>
  <line id="left-margin-Black-L" style="fill:none;stroke:#00AEEF;stroke-width:0.5;opacity:1.0;" x1="2877.37" x2="2877.37" y1="1460.79" y2="1580.12"/>
  <line id="right-margin-Black-L" style="fill:none;stroke:#00AEEF;stroke-width:0.5;opacity:1.0;" x1="2989.43" x2="2989.43" y1="1460.79" y2="1580.12"/>
 </g>
 <g id="Symbols">
  <g id="Black-L" transform="matrix(1 0 0 1 2877.37 1556)">
   <path d="M16.0645-14.9902Q16.0645-11.1328 18.1641-9.05762Q20.2637-6.98242 23.5352-6.98242Q26.7578-6.98242 28.8818-9.05762Q31.0059-11.1328 31.0059-14.9902L31.0059-47.4121Q31.0059-50.5371 33.6914-50.5371Q36.3281-50.5371 36.3281-47.4121L36.3281 36.7188Q36.3281 41.0156 38.6475 43.2861Q40.9668 45.5566 44.5801 45.5566Q48.1445 45.5566 50.5371 43.2861Q52.9297 41.0156 52.9297 36.7188L52.9297-10.7422Q52.9297-14.6973 56.0059-14.6973Q59.1309-14.6973 59.1309-10.7422L59.1309 36.7188Q59.1309 41.0156 61.499 43.2861Q63.8672 45.5566 67.4316 45.5566Q71.0449 45.5566 73.3887 43.2861Q75.7324 41.0156 75.7324 36.7188L75.7324-47.4121Q75.7324-50.5371 78.3691-50.5371Q81.0059-50.5371 81.0059-47.4121L81.0059-14.9902Q81.0059-11.1328 83.1299-9.05762Q85.2539-6.98242 88.5254-6.98242Q91.7969-6.98242 93.8965-9.05762Q95.9961-11.1328 95.9961-14.9902L95.9961-45.9961Q95.9961-60.5469 85.5225-68.5303Q75.0488-76.5137 56.0059-76.5137Q37.0117-76.5137 26.5381-68.5303Q16.0645-60.5469 16.0645-45.9961ZM56.0059-83.6426Q60.5469-83.6426 64.2334-85.8643Q67.9199-88.0859 70.1416-91.748Q72.3633-95.4102 72.3633-99.7559Q72.3633-104.297 70.1416-108.008Q67.9199-111.719 64.2334-113.916Q60.5469-116.113 56.0059-116.113Q51.5137-116.113 47.8516-113.916Q44.1895-111.719 42.041-108.008Q39.8926-104.297 39.8926-99.7559Q39.8926-95.4102 42.041-91.748Q44.1895-88.0859 47.8516-85.8643Q51.5137-83.6426 56.0059-83.6426Z"/>
  </g>
  <g id="Heavy-L" transform="matrix(1 0 0 1 2582.68 1556)">
   <path d="M16.0645-15.332Q16.0645-11.6211 18.0664-9.64355Q20.0684-7.66602 23.1934-7.66602Q26.2695-7.66602 28.2715-9.64355Q30.2734-11.6211 30.2734-15.332L30.2734-47.3145Q30.2734-50.2441 32.8125-50.2441Q35.2539-50.2441 35.2539-47.3145L35.2539 35.1074Q35.2539 39.209 37.4756 41.3818Q39.6973 43.5547 43.1152 43.5547Q46.5332 43.5547 48.8037 41.3818Q51.0742 39.209 51.0742 35.1074L51.0742-11.8652Q51.0742-15.5273 54.0039-15.5273Q56.9336-15.5273 56.9336-11.8652L56.9336 35.1074Q56.9336 39.209 59.1797 41.3818Q61.4258 43.5547 64.8438 43.5547Q68.3105 43.5547 70.5322 41.3818Q72.7539 39.209 72.7539 35.1074L72.7539-47.3145Q72.7539-50.2441 75.2441-50.2441Q77.6855-50.2441 77.6855-47.3145L77.6855-15.332Q77.6855-11.6211 79.7119-9.64355Q81.7383-7.66602 84.8633-7.66602Q87.9883-7.66602 89.9658-9.64355Q91.9434-11.6211 91.9434-15.332L91.9434-46.4355Q91.9434-60.4004 82.0557-68.0176Q72.168-75.6348 54.0039-75.6348Q35.8887-75.6348 25.9766-68.0176Q16.0645-60.4004 16.0645-46.4355ZM54.0039-82.4219Q58.3984-82.4219 62.0117-84.5947Q65.625-86.7676 67.7734-90.3564Q69.9219-93.9453 69.9219-98.1934Q69.9219-102.588 67.7734-106.201Q65.625-109.814 62.0117-111.963Q58.3984-114.111 54.0039-114.111Q49.6094-114.111 46.0449-111.963Q42.4805-109.814 40.3809-106.201Q38.2812-102.588 38.2812-98.1934Q38.2812-93.8965 40.3809-90.332Q42.4805-86.7676 46.0449-84.5947Q49.6094-82.4219 54.0039-82.4219Z"/>
  </g>
  <g id="Bold-L" transform="matrix(1 0 0 1 2288.22 1556)">
   <path d="M16.0645-15.7227Q16.0645-12.207 17.9443-10.3271Q19.8242-8.44727 22.8027-8.44727Q25.6836-8.44727 27.5879-10.3271Q29.4922-12.207 29.4922-15.7227L29.4922-47.2168Q29.4922-49.9023 31.7871-49.9023Q34.082-49.9023 34.082-47.2168L34.082 33.3496Q34.082 37.2559 36.1816 39.3066Q38.2812 41.3574 41.5527 41.3574Q44.7754 41.3574 46.9238 39.3066Q49.0723 37.2559 49.0723 33.3496L49.0723-13.0859Q49.0723-16.4551 51.7578-16.4551Q54.4922-16.4551 54.4922-13.0859L54.4922 33.3496Q54.4922 37.2559 56.6162 39.3066Q58.7402 41.3574 61.9629 41.3574Q65.2344 41.3574 67.3584 39.3066Q69.4824 37.2559 69.4824 33.3496L69.4824-47.2168Q69.4824-49.9023 71.7773-49.9023Q74.0234-49.9023 74.0234-47.2168L74.0234-15.7227Q74.0234-12.207 75.9277-10.3271Q77.832-8.44727 80.7617-8.44727Q83.7402-8.44727 85.5957-10.3271Q87.4512-12.207 87.4512-15.7227L87.4512-46.9727Q87.4512-60.2539 78.1738-67.4316Q68.8965-74.6094 51.7578-74.6094Q34.6191-74.6094 25.3418-67.4316Q16.0645-60.2539 16.0645-46.9727ZM51.7578-81.1035Q56.0547-81.1035 59.5459-83.2275Q63.0371-85.3516 65.1123-88.8184Q67.1875-92.2852 67.1875-96.4355Q67.1875-100.684 65.1123-104.199Q63.0371-107.715 59.5459-109.814Q56.0547-111.914 51.7578-111.914Q47.5098-111.914 44.0186-109.814Q40.5273-107.715 38.501-104.199Q36.4746-100.684 36.4746-96.4355Q36.4746-92.2363 38.501-88.7451Q40.5273-85.2539 44.0186-83.1787Q47.5098-81.1035 51.7578-81.1035Z"/>
  </g>
  <g id="Semibold-L" transform="matrix(1 0 0 1 1993.07 1556)">
   <path d="M16.0645-15.9668Q16.0645-12.5977 17.8467-10.7666Q19.6289-8.93555 22.5098-8.93555Q25.293-8.93555 27.0996-10.7666Q28.9062-12.5977 28.9062-15.9668L28.9062-47.1191Q28.9062-49.6582 31.1035-49.6582Q33.252-49.6582 33.252-47.1191L33.252 32.1289Q33.252 35.8398 35.2783 37.8418Q37.3047 39.8438 40.4297 39.8438Q43.5059 39.8438 45.5811 37.8418Q47.6562 35.8398 47.6562 32.1289L47.6562-13.916Q47.6562-17.041 50.1953-17.041Q52.7832-17.041 52.7832-13.916L52.7832 32.1289Q52.7832 35.8398 54.834 37.8418Q56.8848 39.8438 59.9609 39.8438Q63.0859 39.8438 65.1367 37.8418Q67.1875 35.8398 67.1875 32.1289L67.1875-47.1191Q67.1875-49.6582 69.3359-49.6582Q71.4844-49.6582 71.4844-47.1191L71.4844-15.9668Q71.4844-12.5977 73.291-10.7666Q75.0977-8.93555 77.8809-8.93555Q80.7617-8.93555 82.5439-10.7666Q84.3262-12.5977 84.3262-15.9668L84.3262-47.3145Q84.3262-60.1562 75.4883-67.041Q66.6504-73.9258 50.1953-73.9258Q33.7402-73.9258 24.9023-67.041Q16.0645-60.1562 16.0645-47.3145ZM50.1953-80.1758Q54.3945-80.1758 57.8125-82.251Q61.2305-84.3262 63.2568-87.7441Q65.2832-91.1621 65.2832-95.2148Q65.2832-99.3652 63.2568-102.808Q61.2305-106.25 57.8125-108.301Q54.3945-110.352 50.1953-110.352Q45.9961-110.352 42.6025-108.301Q39.209-106.25 37.207-102.808Q35.2051-99.3652 35.2051-95.2148Q35.2051-91.0645 37.207-87.6465Q39.209-84.2285 42.6025-82.2021Q45.9961-80.1758 50.1953-80.1758Z"/>
  </g>
  <g id="Medium-L" transform="matrix(1 0 0 1 1697.53 1556)">
   <path d="M16.0645-16.1621Q16.0645-12.8906 17.7734-11.1084Q19.4824-9.32617 22.3145-9.32617Q25-9.32617 26.7334-11.1084Q28.4668-12.8906 28.4668-16.1621L28.4668-47.0703Q28.4668-49.5117 30.5664-49.5117Q32.6172-49.5117 32.6172-47.0703L32.6172 31.2012Q32.6172 34.8145 34.5947 36.7432Q36.5723 38.6719 39.5508 38.6719Q42.5781 38.6719 44.5801 36.7432Q46.582 34.8145 46.582 31.2012L46.582-14.5996Q46.582-17.5293 49.0234-17.5293Q51.4648-17.5293 51.4648-14.5996L51.4648 31.2012Q51.4648 34.8145 53.4668 36.7432Q55.4688 38.6719 58.4473 38.6719Q61.4746 38.6719 63.4521 36.7432Q65.4297 34.8145 65.4297 31.2012L65.4297-47.0703Q65.4297-49.5117 67.5293-49.5117Q69.5312-49.5117 69.5312-47.0703L69.5312-16.1621Q69.5312-12.8906 71.2891-11.1084Q73.0469-9.32617 75.7324-9.32617Q78.5645-9.32617 80.2734-11.1084Q81.9824-12.8906 81.9824-16.1621L81.9824-47.6074Q81.9824-60.0586 73.4619-66.7236Q64.9414-73.3887 49.0234-73.3887Q33.1055-73.3887 24.585-66.7236Q16.0645-60.0586 16.0645-47.6074ZM49.0234-79.4922Q53.125-79.4922 56.4941-81.5186Q59.8633-83.5449 61.8652-86.9141Q63.8672-90.2832 63.8672-94.2871Q63.8672-98.3887 61.8652-101.782Q59.8633-105.176 56.4941-107.178Q53.125-109.18 49.0234-109.18Q44.9219-109.18 41.5527-107.178Q38.1836-105.176 36.2061-101.782Q34.2285-98.3887 34.2285-94.2871Q34.2285-90.1855 36.2061-86.8164Q38.1836-83.4473 41.5527-81.4697Q44.9219-79.4922 49.0234-79.4922Z"/>
  </g>
  <g id="Regular-L" transform="matrix(1 0 0 1 1402.36 1556)">
   <path d="M16.0645-16.4062Q16.0645-13.2812 17.7002-11.5723Q19.3359-9.86328 22.0215-9.86328Q24.6094-9.86328 26.2695-11.5723Q27.9297-13.2812 27.9297-16.4062L27.9297-46.9727Q27.9297-49.2676 29.8828-49.2676Q31.7871-49.2676 31.7871-46.9727L31.7871 29.9805Q31.7871 33.4473 33.6914 35.3027Q35.5957 37.1582 38.4766 37.1582Q41.3574 37.1582 43.2617 35.3027Q45.166 33.4473 45.166 29.9805L45.166-15.4297Q45.166-18.1641 47.5098-18.1641Q49.8047-18.1641 49.8047-15.4297L49.8047 29.9805Q49.8047 33.4473 51.709 35.3027Q53.6133 37.1582 56.4941 37.1582Q59.375 37.1582 61.2793 35.3027Q63.1836 33.4473 63.1836 29.9805L63.1836-46.9727Q63.1836-49.2676 65.1367-49.2676Q67.041-49.2676 67.041-46.9727L67.041-16.4062Q67.041-13.2812 68.7012-11.5723Q70.3613-9.86328 72.9492-9.86328Q75.6348-9.86328 77.2705-11.5723Q78.9062-13.2812 78.9062-16.4062L78.9062-47.9492Q78.9062-59.9609 70.8252-66.333Q62.7441-72.7051 47.5098-72.7051Q32.2266-72.7051 24.1455-66.333Q16.0645-59.9609 16.0645-47.9492ZM47.5098-78.5645Q51.5137-78.5645 54.8096-80.5664Q58.1055-82.5684 60.0586-85.8643Q62.0117-89.1602 62.0117-93.0664Q62.0117-97.0703 60.0586-100.391Q58.1055-103.711 54.8096-105.688Q51.5137-107.666 47.5098-107.666Q43.457-107.666 40.1611-105.688Q36.8652-103.711 34.9365-100.391Q33.0078-97.0703 33.0078-93.0664Q33.0078-89.0137 34.9365-85.7178Q36.8652-82.4219 40.1611-80.4932Q43.457-78.5645 47.5098-78.5645Z"/>
  </g>
  <g id="Light-L" transform="matrix(1 0 0 1 1106.89 1556)">
   <path d="M16.0645-16.6992Q16.0645-13.623 17.6514-11.9629Q19.2383-10.3027 21.875-10.3027Q24.4141-10.3027 26.0254-11.9629Q27.6367-13.623 27.6367-16.6992L27.6367-47.7539Q27.6367-49.8047 29.3945-49.8047Q31.1035-49.8047 31.1035-47.7539L31.1035 28.8574Q31.1035 32.2754 32.959 34.1064Q34.8145 35.9375 37.6465 35.9375Q40.4785 35.9375 42.334 34.1064Q44.1895 32.2754 44.1895 28.8574L44.1895-16.748Q44.1895-19.1406 46.2402-19.1406Q48.2422-19.1406 48.2422-16.748L48.2422 28.8574Q48.2422 32.2754 50.1221 34.1064Q52.002 35.9375 54.834 35.9375Q57.666 35.9375 59.4971 34.1064Q61.3281 32.2754 61.3281 28.8574L61.3281-47.7539Q61.3281-49.8047 63.1348-49.8047Q64.7949-49.8047 64.7949-47.7539L64.7949-16.6992Q64.7949-13.623 66.4307-11.9629Q68.0664-10.3027 70.6055-10.3027Q73.1934-10.3027 74.8047-11.9629Q76.416-13.623 76.416-16.6992L76.416-48.5352Q76.416-60.0586 68.5547-66.2842Q60.6934-72.5098 46.2402-72.5098Q31.7383-72.5098 23.9014-66.2842Q16.0645-60.0586 16.0645-48.5352ZM46.2402-78.0762Q50.1465-78.0762 53.3691-80.0293Q56.5918-81.9824 58.5205-85.2051Q60.4492-88.4277 60.4492-92.2363Q60.4492-96.1426 58.5205-99.3896Q56.5918-102.637 53.3691-104.565Q50.1465-106.494 46.2402-106.494Q42.2852-106.494 39.0625-104.565Q35.8398-102.637 33.96-99.3896Q32.0801-96.1426 32.0801-92.2363Q32.0801-88.1836 33.96-84.9609Q35.8398-81.7383 39.0625-79.9072Q42.2852-78.0762 46.2402-78.0762Z"/>
  </g>
  <g id="Thin-L" transform="matrix(1 0 0 1 811.867 1556)">
   <path d="M16.0645-17.0898Q16.0645-14.1113 17.6025-12.4756Q19.1406-10.8398 21.6797-10.8398Q24.1699-10.8398 25.708-12.4756Q27.2461-14.1113 27.2461-17.0898L27.2461-48.8281Q27.2461-50.5371 28.7109-50.5371Q30.2246-50.5371 30.2246-48.8281L30.2246 27.3926Q30.2246 30.7129 32.0068 32.5195Q33.7891 34.3262 36.5234 34.3262Q39.3066 34.3262 41.1377 32.5195Q42.9688 30.7129 42.9688 27.3926L42.9688-18.5059Q42.9688-20.459 44.5801-20.459Q46.2402-20.459 46.2402-18.5059L46.2402 27.3926Q46.2402 30.7129 48.0225 32.5195Q49.8047 34.3262 52.5879 34.3262Q55.4199 34.3262 57.1777 32.5195Q58.9355 30.7129 58.9355 27.3926L58.9355-48.8281Q58.9355-50.5371 60.4492-50.5371Q61.8652-50.5371 61.8652-48.8281L61.8652-17.0898Q61.8652-14.1113 63.4277-12.4756Q64.9902-10.8398 67.4805-10.8398Q69.9707-10.8398 71.5088-12.4756Q73.0469-14.1113 73.0469-17.0898L73.0469-49.2676Q73.0469-60.1562 65.5518-66.2109Q58.0566-72.2656 44.5801-72.2656Q31.1035-72.2656 23.584-66.2109Q16.0645-60.1562 16.0645-49.2676ZM44.5801-77.3926Q48.3398-77.3926 51.4893-79.2969Q54.6387-81.2012 56.4941-84.3262Q58.3496-87.4512 58.3496-91.1133Q58.3496-94.9219 56.4941-98.0957Q54.6387-101.27 51.4893-103.125Q48.3398-104.98 44.5801-104.98Q40.7227-104.98 37.6221-103.125Q34.5215-101.27 32.6904-98.0957Q30.8594-94.9219 30.8594-91.1133Q30.8594-87.0605 32.6904-83.96Q34.5215-80.8594 37.6221-79.126Q40.7227-77.3926 44.5801-77.3926Z"/>
  </g>
  <g id="Ultralight-L" transform="matrix(1 0 0 1 515.986 1556)">
   <path d="M16.0645-17.2852Q16.0645-14.3066 17.5781-12.7197Q19.0918-11.1328 21.582-11.1328Q24.0234-11.1328 25.5371-12.7197Q27.0508-14.3066 27.0508-17.2852L27.0508-49.3652Q27.0508-50.8789 28.3691-50.8789Q29.7363-50.8789 29.7363-49.3652L29.7363 26.6113Q29.7363 29.8828 31.4941 31.6895Q33.252 33.4961 35.9863 33.4961Q38.7207 33.4961 40.5029 31.6895Q42.2852 29.8828 42.2852 26.6113L42.2852-19.3848Q42.2852-21.0938 43.75-21.0938Q45.166-21.0938 45.166-19.3848L45.166 26.6113Q45.166 29.8828 46.9482 31.6895Q48.7305 33.4961 51.4648 33.4961Q54.248 33.4961 55.957 31.6895Q57.666 29.8828 57.666 26.6113L57.666-49.3652Q57.666-50.8789 59.082-50.8789Q60.3516-50.8789 60.3516-49.3652L60.3516-17.2852Q60.3516-14.3066 61.8896-12.7197Q63.4277-11.1328 65.8691-11.1328Q68.3105-11.1328 69.8486-12.7197Q71.3867-14.3066 71.3867-17.2852L71.3867-49.6582Q71.3867-60.2051 64.0137-66.1621Q56.6406-72.1191 43.75-72.1191Q30.7617-72.1191 23.4131-66.1621Q16.0645-60.2051 16.0645-49.6582ZM43.75-77.0508Q47.4121-77.0508 50.5127-78.9307Q53.6133-80.8105 55.4443-83.8623Q57.2754-86.9141 57.2754-90.5762Q57.2754-94.2871 55.4443-97.4121Q53.6133-100.537 50.5127-102.368Q47.4121-104.199 43.75-104.199Q39.8926-104.199 36.8652-102.368Q33.8379-100.537 32.0312-97.4121Q30.2246-94.2871 30.2246-90.5762Q30.2246-86.5234 32.0312-83.4717Q33.8379-80.4199 36.8652-78.7354Q39.8926-77.0508 43.75-77.0508Z"/>
  </g>
  <g id="Black-M" transform="matrix(1 0 0 1 2888.67 1126)">
   <path d="M12.4512-19.3848Q12.4512-16.2109 14.1357-14.5508Q15.8203-12.8906 18.5059-12.8906Q21.1426-12.8906 22.8516-14.5508Q24.5605-16.2109 24.5605-19.3848L24.5605-45.0195Q24.5605-47.5098 26.709-47.5098Q28.8574-47.5098 28.8574-45.0195L28.8574 21.5332Q28.8574 25 30.7129 26.8311Q32.5684 28.6621 35.498 28.6621Q38.4277 28.6621 40.332 26.8311Q42.2363 25 42.2363 21.5332L42.2363-15.7227Q42.2363-18.9941 44.7266-18.9941Q47.168-18.9941 47.168-15.7227L47.168 21.5332Q47.168 25 49.0967 26.8311Q51.0254 28.6621 53.9062 28.6621Q56.8359 28.6621 58.7158 26.8311Q60.5957 25 60.5957 21.5332L60.5957-45.0195Q60.5957-47.5098 62.7441-47.5098Q64.8926-47.5098 64.8926-45.0195L64.8926-19.3848Q64.8926-16.2109 66.6016-14.5508Q68.3105-12.8906 70.9473-12.8906Q73.584-12.8906 75.293-14.5508Q77.002-16.2109 77.002-19.3848L77.002-43.4082Q77.002-54.9805 68.4814-61.4502Q59.9609-67.9199 44.7266-67.9199Q29.4922-67.9199 20.9717-61.4502Q12.4512-54.9805 12.4512-43.4082ZM44.7266-73.584Q48.291-73.584 51.2207-75.3418Q54.1504-77.0996 55.8838-80.0049Q57.6172-82.9102 57.6172-86.3281Q57.6172-89.8926 55.8838-92.8223Q54.1504-95.752 51.2207-97.4854Q48.291-99.2188 44.7266-99.2188Q41.1621-99.2188 38.2812-97.4854Q35.4004-95.752 33.6914-92.8223Q31.9824-89.8926 31.9824-86.3281Q31.9824-82.9102 33.6914-80.0049Q35.4004-77.0996 38.2812-75.3418Q41.1621-73.584 44.7266-73.584Z"/>
  </g>
  <g id="Heavy-M" transform="matrix(1 0 0 1 2593.67 1126)">
   <path d="M12.4512-19.6289Q12.4512-16.6504 14.0381-15.0635Q15.625-13.4766 18.1641-13.4766Q20.7031-13.4766 22.3145-15.0635Q23.9258-16.6504 23.9258-19.6289L23.9258-44.7754Q23.9258-47.1191 25.9277-47.1191Q27.9785-47.1191 27.9785-44.7754L27.9785 20.2148Q27.9785 23.4863 29.7363 25.2441Q31.4941 27.002 34.2773 27.002Q37.0605 27.002 38.8672 25.2441Q40.6738 23.4863 40.6738 20.2148L40.6738-16.5527Q40.6738-19.5801 43.0176-19.5801Q45.3613-19.5801 45.3613-16.5527L45.3613 20.2148Q45.3613 23.4863 47.1924 25.2441Q49.0234 27.002 51.7578 27.002Q54.541 27.002 56.3232 25.2441Q58.1055 23.4863 58.1055 20.2148L58.1055-44.7754Q58.1055-47.1191 60.1074-47.1191Q62.1582-47.1191 62.1582-44.7754L62.1582-19.6289Q62.1582-16.6504 63.7695-15.0635Q65.3809-13.4766 67.8711-13.4766Q70.3613-13.4766 71.9727-15.0635Q73.584-16.6504 73.584-19.6289L73.584-43.75Q73.584-54.834 65.5762-60.9619Q57.5684-67.0898 43.0176-67.0898Q28.5156-67.0898 20.4834-60.9619Q12.4512-54.834 12.4512-43.75ZM43.0176-72.5098Q46.4844-72.5098 49.3408-74.2432Q52.1973-75.9766 53.8818-78.8086Q55.5664-81.6406 55.5664-84.9609Q55.5664-88.4277 53.8818-91.2842Q52.1973-94.1406 49.3408-95.8252Q46.4844-97.5098 43.0176-97.5098Q39.5508-97.5098 36.7432-95.8252Q33.9355-94.1406 32.2754-91.2842Q30.6152-88.4277 30.6152-84.9609Q30.6152-81.5918 32.2754-78.7598Q33.9355-75.9277 36.7432-74.2188Q39.5508-72.5098 43.0176-72.5098Z"/>
  </g>
  <g id="Bold-M" transform="matrix(1 0 0 1 2298.84 1126)">
   <path d="M12.4512-19.9219Q12.4512-17.1387 13.9404-15.625Q15.4297-14.1113 17.8223-14.1113Q20.166-14.1113 21.6797-15.625Q23.1934-17.1387 23.1934-19.9219L23.1934-44.4824Q23.1934-46.6797 25.0977-46.6797Q26.9531-46.6797 26.9531-44.4824L26.9531 18.75Q26.9531 21.8262 28.6377 23.4863Q30.3223 25.1465 32.9102 25.1465Q35.498 25.1465 37.207 23.4863Q38.916 21.8262 38.916 18.75L38.916-17.4316Q38.916-20.2148 41.1133-20.2148Q43.3594-20.2148 43.3594-17.4316L43.3594 18.75Q43.3594 21.8262 45.0684 23.4863Q46.7773 25.1465 49.3164 25.1465Q51.9531 25.1465 53.6377 23.4863Q55.3223 21.8262 55.3223 18.75L55.3223-44.4824Q55.3223-46.6797 57.1777-46.6797Q59.082-46.6797 59.082-44.4824L59.082-19.9219Q59.082-17.1387 60.5957-15.625Q62.1094-14.1113 64.4531-14.1113Q66.7969-14.1113 68.3105-15.625Q69.8242-17.1387 69.8242-19.9219L69.8242-44.0918Q69.8242-54.6875 62.3535-60.4248Q54.8828-66.1621 41.1133-66.1621Q27.3926-66.1621 19.9219-60.4248Q12.4512-54.6875 12.4512-44.0918ZM41.1133-71.3379Q44.4824-71.3379 47.2412-73.0225Q50-74.707 51.6357-77.4414Q53.2715-80.1758 53.2715-83.4473Q53.2715-86.8164 51.6357-89.5752Q50-92.334 47.2412-93.9697Q44.4824-95.6055 41.1133-95.6055Q37.7441-95.6055 35.0098-93.9697Q32.2754-92.334 30.6641-89.5752Q29.0527-86.8164 29.0527-83.4473Q29.0527-80.1758 30.6641-77.417Q32.2754-74.6582 35.0098-72.998Q37.7441-71.3379 41.1133-71.3379Z"/>
  </g>
  <g id="Semibold-M" transform="matrix(1 0 0 1 2003.45 1126)">
   <path d="M12.4512-20.1172Q12.4512-17.4316 13.8672-15.9912Q15.2832-14.5508 17.5781-14.5508Q19.8242-14.5508 21.2646-15.9912Q22.7051-17.4316 22.7051-20.1172L22.7051-44.2383Q22.7051-46.3379 24.4629-46.3379Q26.2695-46.3379 26.2695-44.2383L26.2695 17.7246Q26.2695 20.6543 27.8809 22.2412Q29.4922 23.8281 31.9336 23.8281Q34.4238 23.8281 36.0596 22.2412Q37.6953 20.6543 37.6953 17.7246L37.6953-18.0664Q37.6953-20.6543 39.7949-20.6543Q41.9434-20.6543 41.9434-18.0664L41.9434 17.7246Q41.9434 20.6543 43.5791 22.2412Q45.2148 23.8281 47.6562 23.8281Q50.1465 23.8281 51.7578 22.2412Q53.3691 20.6543 53.3691 17.7246L53.3691-44.2383Q53.3691-46.3379 55.1758-46.3379Q56.9336-46.3379 56.9336-44.2383L56.9336-20.1172Q56.9336-17.4316 58.374-15.9912Q59.8145-14.5508 62.0605-14.5508Q64.3066-14.5508 65.7471-15.9912Q67.1875-17.4316 67.1875-20.1172L67.1875-44.3359Q67.1875-54.5898 60.083-60.0586Q52.9785-65.5273 39.7949-65.5273Q26.6113-65.5273 19.5312-60.0586Q12.4512-54.5898 12.4512-44.3359ZM39.7949-70.5078Q43.1152-70.5078 45.8008-72.1436Q48.4863-73.7793 50.0977-76.4893Q51.709-79.1992 51.709-82.373Q51.709-85.6445 50.0977-88.3789Q48.4863-91.1133 45.8008-92.7002Q43.1152-94.2871 39.7949-94.2871Q36.5234-94.2871 33.8379-92.7002Q31.1523-91.1133 29.5654-88.3789Q27.9785-85.6445 27.9785-82.373Q27.9785-79.1504 29.5654-76.4648Q31.1523-73.7793 33.8379-72.1436Q36.5234-70.5078 39.7949-70.5078Z"/>
  </g>
  <g id="Medium-M" transform="matrix(1 0 0 1 1707.74 1126)">
   <path d="M12.4512-20.2637Q12.4512-17.6758 13.8184-16.2842Q15.1855-14.8926 17.3828-14.8926Q19.5312-14.8926 20.9229-16.2842Q22.3145-17.6758 22.3145-20.2637L22.3145-44.0918Q22.3145-46.0938 24.0234-46.0938Q25.7324-46.0938 25.7324-44.0918L25.7324 16.9922Q25.7324 19.7754 27.2949 21.3135Q28.8574 22.8516 31.2012 22.8516Q33.6426 22.8516 35.2051 21.3135Q36.7676 19.7754 36.7676 16.9922L36.7676-18.5059Q36.7676-20.9961 38.8184-20.9961Q40.8691-20.9961 40.8691-18.5059L40.8691 16.9922Q40.8691 19.7754 42.4316 21.3135Q43.9941 22.8516 46.3867 22.8516Q48.7793 22.8516 50.3418 21.3135Q51.9043 19.7754 51.9043 16.9922L51.9043-44.0918Q51.9043-46.0938 53.6133-46.0938Q55.3223-46.0938 55.3223-44.0918L55.3223-20.2637Q55.3223-17.6758 56.7139-16.2842Q58.1055-14.8926 60.2539-14.8926Q62.4512-14.8926 63.8184-16.2842Q65.1855-17.6758 65.1855-20.2637L65.1855-44.5312Q65.1855-54.4922 58.3984-59.7656Q51.6113-65.0391 38.8184-65.0391Q26.0254-65.0391 19.2383-59.7656Q12.4512-54.4922 12.4512-44.5312ZM38.8184-69.9219Q42.041-69.9219 44.7021-71.5332Q47.3633-73.1445 48.9258-75.7812Q50.4883-78.418 50.4883-81.543Q50.4883-84.8145 48.9258-87.4756Q47.3633-90.1367 44.7021-91.7236Q42.041-93.3105 38.8184-93.3105Q35.5469-93.3105 32.9102-91.7236Q30.2734-90.1367 28.7354-87.4756Q27.1973-84.8145 27.1973-81.543Q27.1973-78.3691 28.7354-75.7324Q30.2734-73.0957 32.9102-71.5088Q35.5469-69.9219 38.8184-69.9219Z"/>
  </g>
  <g id="Regular-M" transform="matrix(1 0 0 1 1412.32 1126)">
   <path d="M12.4512-20.459Q12.4512-18.0176 13.7451-16.6748Q15.0391-15.332 17.1387-15.332Q19.1895-15.332 20.5078-16.6748Q21.8262-18.0176 21.8262-20.459L21.8262-43.8965Q21.8262-45.8008 23.4375-45.8008Q25.0488-45.8008 25.0488-43.8965L25.0488 15.9668Q25.0488 18.6523 26.5381 20.1172Q28.0273 21.582 30.2734 21.582Q32.5684 21.582 34.0576 20.1172Q35.5469 18.6523 35.5469 15.9668L35.5469-19.1406Q35.5469-21.4355 37.5-21.4355Q39.502-21.4355 39.502-19.1406L39.502 15.9668Q39.502 18.6523 40.9912 20.1172Q42.4805 21.582 44.7266 21.582Q47.0215 21.582 48.5107 20.1172Q50 18.6523 50 15.9668L50-43.8965Q50-45.8008 51.6113-45.8008Q53.2227-45.8008 53.2227-43.8965L53.2227-20.459Q53.2227-18.0176 54.541-16.6748Q55.8594-15.332 57.9102-15.332Q60.0098-15.332 61.3037-16.6748Q62.5977-18.0176 62.5977-20.459L62.5977-44.7754Q62.5977-54.3945 56.1768-59.3994Q49.7559-64.4043 37.5-64.4043Q25.293-64.4043 18.8721-59.3994Q12.4512-54.3945 12.4512-44.7754ZM37.5-69.0918Q40.6738-69.0918 43.2617-70.6787Q45.8496-72.2656 47.3877-74.8535Q48.9258-77.4414 48.9258-80.5176Q48.9258-83.6914 47.3877-86.3037Q45.8496-88.916 43.2617-90.4541Q40.6738-91.9922 37.5-91.9922Q34.3262-91.9922 31.7383-90.4541Q29.1504-88.916 27.6367-86.3037Q26.123-83.6914 26.123-80.5176Q26.123-77.3926 27.6367-74.8047Q29.1504-72.2168 31.7383-70.6543Q34.3262-69.0918 37.5-69.0918Z"/>
  </g>
  <g id="Light-M" transform="matrix(1 0 0 1 1116.73 1126)">
   <path d="M12.4512-20.7031Q12.4512-18.3594 13.6963-17.041Q14.9414-15.7227 16.9922-15.7227Q18.9941-15.7227 20.2881-17.041Q21.582-18.3594 21.582-20.7031L21.582-44.6289Q21.582-46.2891 22.998-46.2891Q24.4141-46.2891 24.4141-44.6289L24.4141 14.9414Q24.4141 17.5781 25.8545 19.0186Q27.2949 20.459 29.541 20.459Q31.7871 20.459 33.2275 19.0186Q34.668 17.5781 34.668 14.9414L34.668-20.3125Q34.668-22.3145 36.377-22.3145Q38.0859-22.3145 38.0859-20.3125L38.0859 14.9414Q38.0859 17.5781 39.5508 19.0186Q41.0156 20.459 43.2129 20.459Q45.459 20.459 46.9238 19.0186Q48.3887 17.5781 48.3887 14.9414L48.3887-44.6289Q48.3887-46.2891 49.8047-46.2891Q51.2207-46.2891 51.2207-44.6289L51.2207-20.7031Q51.2207-18.3594 52.5146-17.041Q53.8086-15.7227 55.8105-15.7227Q57.8125-15.7227 59.082-17.041Q60.3516-18.3594 60.3516-20.7031L60.3516-45.3125Q60.3516-54.4434 54.1504-59.3262Q47.9492-64.209 36.377-64.209Q24.8535-64.209 18.6523-59.3262Q12.4512-54.4434 12.4512-45.3125ZM36.377-68.6523Q39.4531-68.6523 41.9922-70.1904Q44.5312-71.7285 46.0205-74.2432Q47.5098-76.7578 47.5098-79.7852Q47.5098-82.8613 46.0205-85.4004Q44.5312-87.9395 41.9922-89.4531Q39.4531-90.9668 36.377-90.9668Q33.3008-90.9668 30.7617-89.4531Q28.2227-87.9395 26.7578-85.4004Q25.293-82.8613 25.293-79.7852Q25.293-76.6602 26.7578-74.1455Q28.2227-71.6309 30.7617-70.1416Q33.3008-68.6523 36.377-68.6523Z"/>
  </g>
  <g id="Thin-M" transform="matrix(1 0 0 1 821.51 1126)">
   <path d="M12.4512-21.0449Q12.4512-18.75 13.6475-17.4805Q14.8438-16.2109 16.8457-16.2109Q18.75-16.2109 19.9951-17.4805Q21.2402-18.75 21.2402-21.0449L21.2402-45.5566Q21.2402-46.9238 22.3633-46.9238Q23.584-46.9238 23.584-45.5566L23.584 13.623Q23.584 16.2109 24.9756 17.6025Q26.3672 18.9941 28.5645 18.9941Q30.7617 18.9941 32.1533 17.6025Q33.5449 16.2109 33.5449 13.623L33.5449-21.875Q33.5449-23.4863 34.9121-23.4863Q36.2793-23.4863 36.2793-21.875L36.2793 13.623Q36.2793 16.2109 37.6709 17.6025Q39.0625 18.9941 41.2598 18.9941Q43.457 18.9941 44.8242 17.6025Q46.1914 16.2109 46.1914 13.623L46.1914-45.5566Q46.1914-46.9238 47.4121-46.9238Q48.584-46.9238 48.584-45.5566L48.584-21.0449Q48.584-18.75 49.8047-17.4805Q51.0254-16.2109 52.9785-16.2109Q54.9316-16.2109 56.1523-17.4805Q57.373-18.75 57.373-21.0449L57.373-45.9473Q57.373-54.541 51.4648-59.2529Q45.5566-63.9648 34.9121-63.9648Q24.2188-63.9648 18.335-59.2529Q12.4512-54.541 12.4512-45.9473ZM34.9121-68.0664Q37.8418-68.0664 40.3076-69.5557Q42.7734-71.0449 44.2139-73.4619Q45.6543-75.8789 45.6543-78.8086Q45.6543-81.7383 44.2139-84.2285Q42.7734-86.7188 40.3076-88.1592Q37.8418-89.5996 34.9121-89.5996Q31.8848-89.5996 29.4678-88.1592Q27.0508-86.7188 25.6104-84.2285Q24.1699-81.7383 24.1699-78.8086Q24.1699-75.6348 25.6104-73.2178Q27.0508-70.8008 29.4678-69.4336Q31.8848-68.0664 34.9121-68.0664Z"/>
  </g>
  <g id="Ultralight-M" transform="matrix(1 0 0 1 525.58 1126)">
   <path d="M12.4512-21.2402Q12.4512-18.9941 13.623-17.7246Q14.7949-16.4551 16.748-16.4551Q18.6523-16.4551 19.8486-17.7246Q21.0449-18.9941 21.0449-21.2402L21.0449-46.0449Q21.0449-47.2656 22.0703-47.2656Q23.1934-47.2656 23.1934-46.0449L23.1934 12.9395Q23.1934 15.4785 24.5361 16.8701Q25.8789 18.2617 28.0273 18.2617Q30.2246 18.2617 31.5918 16.8701Q32.959 15.4785 32.959 12.9395L32.959-22.7051Q32.959-24.0723 34.1309-24.0723Q35.3027-24.0723 35.3027-22.7051L35.3027 12.9395Q35.3027 15.4785 36.6943 16.8701Q38.0859 18.2617 40.2344 18.2617Q42.3828 18.2617 43.75 16.8701Q45.1172 15.4785 45.1172 12.9395L45.1172-46.0449Q45.1172-47.2656 46.1914-47.2656Q47.2168-47.2656 47.2168-46.0449L47.2168-21.2402Q47.2168-18.9941 48.4375-17.7246Q49.6582-16.4551 51.5625-16.4551Q53.4668-16.4551 54.6387-17.7246Q55.8105-18.9941 55.8105-21.2402L55.8105-46.3379Q55.8105-54.5898 50.0732-59.2285Q44.3359-63.8672 34.1309-63.8672Q23.9258-63.8672 18.1885-59.2285Q12.4512-54.5898 12.4512-46.3379ZM34.1309-67.7734Q37.0605-67.7734 39.4531-69.2139Q41.8457-70.6543 43.2861-73.0469Q44.7266-75.4395 44.7266-78.2715Q44.7266-81.2012 43.2861-83.6182Q41.8457-86.0352 39.4531-87.4756Q37.0605-88.916 34.1309-88.916Q31.2012-88.916 28.8086-87.4756Q26.416-86.0352 25.0244-83.6182Q23.6328-81.2012 23.6328-78.2715Q23.6328-75.1465 25.0244-72.7783Q26.416-70.4102 28.8086-69.0918Q31.2012-67.7734 34.1309-67.7734Z"/>
  </g>
  <g id="Black-S" transform="matrix(1 0 0 1 2897.9 696)">
   <path d="M9.76562-22.7539Q9.76562-20.2148 11.1328-18.8965Q12.5-17.5781 14.5996-17.5781Q16.6992-17.5781 18.0664-18.8965Q19.4336-20.2148 19.4336-22.7539L19.4336-43.0176Q19.4336-45.0195 21.1426-45.0195Q22.8516-45.0195 22.8516-43.0176L22.8516 9.57031Q22.8516 12.3535 24.3408 13.8184Q25.8301 15.2832 28.1738 15.2832Q30.4688 15.2832 32.0068 13.8184Q33.5449 12.3535 33.5449 9.57031L33.5449-19.7754Q33.5449-22.3633 35.498-22.3633Q37.4512-22.3633 37.4512-19.7754L37.4512 9.57031Q37.4512 12.3535 38.9893 13.8184Q40.5273 15.2832 42.8223 15.2832Q45.166 15.2832 46.6553 13.8184Q48.1445 12.3535 48.1445 9.57031L48.1445-43.0176Q48.1445-45.0195 49.8535-45.0195Q51.5625-45.0195 51.5625-43.0176L51.5625-22.7539Q51.5625-20.2148 52.9297-18.8965Q54.2969-17.5781 56.3965-17.5781Q58.5449-17.5781 59.8877-18.8965Q61.2305-20.2148 61.2305-22.7539L61.2305-41.5527Q61.2305-50.7324 54.4189-55.9082Q47.6074-61.084 35.498-61.084Q23.3887-61.084 16.5771-55.9082Q9.76562-50.7324 9.76562-41.5527ZM35.498-65.5762Q39.6973-65.5762 42.7002-68.5791Q45.7031-71.582 45.7031-75.6348Q45.7031-79.8828 42.7002-82.8613Q39.6973-85.8398 35.498-85.8398Q31.2988-85.8398 28.3691-82.8613Q25.4395-79.8828 25.4395-75.6348Q25.4395-71.582 28.3691-68.5791Q31.2988-65.5762 35.498-65.5762Z"/>
  </g>
  <g id="Heavy-S" transform="matrix(1 0 0 1 2602.51 696)">
   <path d="M9.76562-22.9492Q9.76562-20.5566 11.0596-19.2871Q12.3535-18.0176 14.3555-18.0176Q16.3086-18.0176 17.6025-19.2871Q18.8965-20.5566 18.8965-22.9492L18.8965-42.6758Q18.8965-44.6289 20.5566-44.6289Q22.168-44.6289 22.168-42.6758L22.168 8.59375Q22.168 11.2305 23.584 12.6221Q25 14.0137 27.1973 14.0137Q29.3945 14.0137 30.8594 12.6221Q32.3242 11.2305 32.3242 8.59375L32.3242-20.3125Q32.3242-22.7539 34.1797-22.7539Q36.084-22.7539 36.084-20.3125L36.084 8.59375Q36.084 11.2305 37.5488 12.6221Q39.0137 14.0137 41.1621 14.0137Q43.3594 14.0137 44.7998 12.6221Q46.2402 11.2305 46.2402 8.59375L46.2402-42.6758Q46.2402-44.6289 47.8516-44.6289Q49.4629-44.6289 49.4629-42.6758L49.4629-22.9492Q49.4629-20.5566 50.7568-19.2871Q52.0508-18.0176 54.0527-18.0176Q56.0547-18.0176 57.3242-19.2871Q58.5938-20.5566 58.5938-22.9492L58.5938-41.748Q58.5938-50.5859 52.1973-55.4932Q45.8008-60.4004 34.1797-60.4004Q22.6074-60.4004 16.1865-55.4932Q9.76562-50.5859 9.76562-41.748ZM34.1797-64.7461Q38.2812-64.7461 41.2109-67.6758Q44.1406-70.6055 44.1406-74.5605Q44.1406-78.7109 41.2109-81.6162Q38.2812-84.5215 34.1797-84.5215Q30.0781-84.5215 27.2217-81.6162Q24.3652-78.7109 24.3652-74.5605Q24.3652-70.6055 27.2217-67.6758Q30.0781-64.7461 34.1797-64.7461Z"/>
  </g>
  <g id="Bold-S" transform="matrix(1 0 0 1 2307.24 696)">
   <path d="M9.76562-23.1445Q9.76562-20.8984 10.9619-19.7021Q12.1582-18.5059 14.0625-18.5059Q15.918-18.5059 17.1387-19.7021Q18.3594-20.8984 18.3594-23.1445L18.3594-42.334Q18.3594-44.1895 19.873-44.1895Q21.3867-44.1895 21.3867-42.334L21.3867 7.4707Q21.3867 9.96094 22.7295 11.2549Q24.0723 12.5488 26.1719 12.5488Q28.1738 12.5488 29.541 11.2549Q30.9082 9.96094 30.9082 7.4707L30.9082-20.9473Q30.9082-23.1934 32.7148-23.1934Q34.5703-23.1934 34.5703-20.9473L34.5703 7.4707Q34.5703 9.96094 35.9375 11.2549Q37.3047 12.5488 39.3066 12.5488Q41.4062 12.5488 42.749 11.2549Q44.0918 9.96094 44.0918 7.4707L44.0918-42.334Q44.0918-44.1895 45.6055-44.1895Q47.1191-44.1895 47.1191-42.334L47.1191-23.1445Q47.1191-20.8984 48.3398-19.7021Q49.5605-18.5059 51.416-18.5059Q53.3203-18.5059 54.5166-19.7021Q55.7129-20.8984 55.7129-23.1445L55.7129-42.041Q55.7129-50.4883 49.7314-55.0537Q43.75-59.6191 32.7148-59.6191Q21.7285-59.6191 15.7471-55.0537Q9.76562-50.4883 9.76562-42.041ZM32.7148-63.8184Q36.7188-63.8184 39.5508-66.6504Q42.3828-69.4824 42.3828-73.3887Q42.3828-77.3926 39.5508-80.2246Q36.7188-83.0566 32.7148-83.0566Q28.7598-83.0566 25.9521-80.2246Q23.1445-77.3926 23.1445-73.3887Q23.1445-69.4824 25.9521-66.6504Q28.7598-63.8184 32.7148-63.8184Z"/>
  </g>
  <g id="Semibold-S" transform="matrix(1 0 0 1 2011.55 696)">
   <path d="M9.76562-23.291Q9.76562-21.1426 10.8887-19.9951Q12.0117-18.8477 13.8672-18.8477Q15.625-18.8477 16.7725-19.9951Q17.9199-21.1426 17.9199-23.291L17.9199-42.0898Q17.9199-43.8477 19.4336-43.8477Q20.8496-43.8477 20.8496-42.0898L20.8496 6.68945Q20.8496 9.0332 22.1436 10.3027Q23.4375 11.5723 25.3906 11.5723Q27.3438 11.5723 28.6377 10.3027Q29.9316 9.0332 29.9316 6.68945L29.9316-21.3379Q29.9316-23.4863 31.6895-23.4863Q33.4961-23.4863 33.4961-21.3379L33.4961 6.68945Q33.4961 9.0332 34.79 10.3027Q36.084 11.5723 38.0371 11.5723Q39.9902 11.5723 41.2842 10.3027Q42.5781 9.0332 42.5781 6.68945L42.5781-42.0898Q42.5781-43.8477 44.043-43.8477Q45.5078-43.8477 45.5078-42.0898L45.5078-23.291Q45.5078-21.1426 46.6553-19.9951Q47.8027-18.8477 49.5605-18.8477Q51.416-18.8477 52.5391-19.9951Q53.6621-21.1426 53.6621-23.291L53.6621-42.1875Q53.6621-50.3418 47.998-54.7119Q42.334-59.082 31.6895-59.082Q21.0938-59.082 15.4297-54.7119Q9.76562-50.3418 9.76562-42.1875ZM31.6895-63.1348Q35.6445-63.1348 38.4033-65.918Q41.1621-68.7012 41.1621-72.5586Q41.1621-76.4648 38.4033-79.248Q35.6445-82.0312 31.6895-82.0312Q27.7832-82.0312 25.0488-79.248Q22.3145-76.4648 22.3145-72.5586Q22.3145-68.7012 25.0488-65.918Q27.7832-63.1348 31.6895-63.1348Z"/>
  </g>
  <g id="Medium-S" transform="matrix(1 0 0 1 1715.6 696)">
   <path d="M9.76562-23.3887Q9.76562-21.3379 10.8643-20.2148Q11.9629-19.0918 13.7207-19.0918Q15.4297-19.0918 16.5283-20.2148Q17.627-21.3379 17.627-23.3887L17.627-41.8945Q17.627-43.6035 19.043-43.6035Q20.459-43.6035 20.459-41.8945L20.459 6.10352Q20.459 8.39844 21.7041 9.59473Q22.9492 10.791 24.8535 10.791Q26.709 10.791 27.9541 9.59473Q29.1992 8.39844 29.1992 6.10352L29.1992-21.6797Q29.1992-23.7305 30.957-23.7305Q32.666-23.7305 32.666-21.6797L32.666 6.10352Q32.666 8.39844 33.9355 9.59473Q35.2051 10.791 37.0605 10.791Q38.9648 10.791 40.21 9.59473Q41.4551 8.39844 41.4551 6.10352L41.4551-41.8945Q41.4551-43.6035 42.8223-43.6035Q44.2871-43.6035 44.2871-41.8945L44.2871-23.3887Q44.2871-21.3379 45.3857-20.2148Q46.4844-19.0918 48.1934-19.0918Q50-19.0918 51.0742-20.2148Q52.1484-21.3379 52.1484-23.3887L52.1484-42.334Q52.1484-50.293 46.7041-54.4922Q41.2598-58.6914 30.957-58.6914Q20.6055-58.6914 15.1855-54.4922Q9.76562-50.293 9.76562-42.334ZM30.957-62.6465Q34.8145-62.6465 37.5244-65.3809Q40.2344-68.1152 40.2344-71.9238Q40.2344-75.7812 37.5244-78.5156Q34.8145-81.25 30.957-81.25Q27.0996-81.25 24.3896-78.5156Q21.6797-75.7812 21.6797-71.9238Q21.6797-68.1152 24.3896-65.3809Q27.0996-62.6465 30.957-62.6465Z"/>
  </g>
  <g id="Regular-S" transform="matrix(1 0 0 1 1419.89 696)">
   <path d="M9.76562-23.5352Q9.76562-21.582 10.791-20.5078Q11.8164-19.4336 13.5254-19.4336Q15.1367-19.4336 16.1865-20.5078Q17.2363-21.582 17.2363-23.5352L17.2363-41.6504Q17.2363-43.3105 18.6035-43.3105Q19.9219-43.3105 19.9219-41.6504L19.9219 5.37109Q19.9219 7.51953 21.1182 8.66699Q22.3145 9.81445 24.1211 9.81445Q25.8789 9.81445 27.0752 8.66699Q28.2715 7.51953 28.2715 5.37109L28.2715-22.0703Q28.2715-24.0234 29.9316-24.0234Q31.6406-24.0234 31.6406-22.0703L31.6406 5.37109Q31.6406 7.51953 32.8369 8.66699Q34.0332 9.81445 35.791 9.81445Q37.5977 9.81445 38.7939 8.66699Q39.9902 7.51953 39.9902 5.37109L39.9902-41.6504Q39.9902-43.3105 41.3086-43.3105Q42.6758-43.3105 42.6758-41.6504L42.6758-23.5352Q42.6758-21.582 43.7256-20.5078Q44.7754-19.4336 46.3867-19.4336Q48.0957-19.4336 49.1211-20.5078Q50.1465-21.582 50.1465-23.5352L50.1465-42.4805Q50.1465-50.1953 45.0195-54.1748Q39.8926-58.1543 29.9316-58.1543Q20.0195-58.1543 14.8926-54.1748Q9.76562-50.1953 9.76562-42.4805ZM29.9316-62.0117Q33.7402-62.0117 36.4014-64.6973Q39.0625-67.3828 39.0625-71.0938Q39.0625-74.8535 36.4014-77.5391Q33.7402-80.2246 29.9316-80.2246Q26.1719-80.2246 23.5107-77.5391Q20.8496-74.8535 20.8496-71.0938Q20.8496-67.3828 23.5107-64.6973Q26.1719-62.0117 29.9316-62.0117Z"/>
  </g>
  <g id="Light-S" transform="matrix(1 0 0 1 1124.18 696)">
   <path d="M9.76562-23.7793Q9.76562-21.875 10.7666-20.8252Q11.7676-19.7754 13.4277-19.7754Q14.9902-19.7754 15.9912-20.8252Q16.9922-21.875 16.9922-23.7793L16.9922-42.2852Q16.9922-43.75 18.2129-43.75Q19.3848-43.75 19.3848-42.2852L19.3848 4.49219Q19.3848 6.5918 20.5322 7.71484Q21.6797 8.83789 23.4375 8.83789Q25.1953 8.83789 26.3672 7.71484Q27.5391 6.5918 27.5391 4.49219L27.5391-23.0957Q27.5391-24.8047 28.9551-24.8047Q30.4199-24.8047 30.4199-23.0957L30.4199 4.49219Q30.4199 6.5918 31.5674 7.71484Q32.7148 8.83789 34.4727 8.83789Q36.2305 8.83789 37.3779 7.71484Q38.5254 6.5918 38.5254 4.49219L38.5254-42.2852Q38.5254-43.75 39.6973-43.75Q40.918-43.75 40.918-42.2852L40.918-23.7793Q40.918-21.875 41.9189-20.8252Q42.9199-19.7754 44.5312-19.7754Q46.1426-19.7754 47.1436-20.8252Q48.1445-21.875 48.1445-23.7793L48.1445-42.9199Q48.1445-50.2441 43.2129-54.126Q38.2812-58.0078 28.9551-58.0078Q19.6289-58.0078 14.6973-54.126Q9.76562-50.2441 9.76562-42.9199ZM28.9551-61.6211Q32.6172-61.6211 35.2051-64.2334Q37.793-66.8457 37.793-70.4102Q37.793-74.0723 35.2051-76.6846Q32.6172-79.2969 28.9551-79.2969Q25.2441-79.2969 22.6807-76.6846Q20.1172-74.0723 20.1172-70.4102Q20.1172-66.6992 22.6807-64.1602Q25.2441-61.6211 28.9551-61.6211Z"/>
  </g>
  <g id="Thin-S" transform="matrix(1 0 0 1 828.786 696)">
   <path d="M9.76562-24.0723Q9.76562-22.2656 10.7178-21.2402Q11.6699-20.2148 13.2324-20.2148Q14.7949-20.2148 15.7471-21.2402Q16.6992-22.2656 16.6992-24.0723L16.6992-43.1152Q16.6992-44.2871 17.6758-44.2871Q18.6523-44.2871 18.6523-43.1152L18.6523 3.32031Q18.6523 5.32227 19.751 6.44531Q20.8496 7.56836 22.5586 7.56836Q24.3164 7.56836 25.415 6.44531Q26.5137 5.32227 26.5137 3.32031L26.5137-24.4629Q26.5137-25.8301 27.6367-25.8301Q28.7598-25.8301 28.7598-24.4629L28.7598 3.32031Q28.7598 5.32227 29.8828 6.44531Q31.0059 7.56836 32.7148 7.56836Q34.4238 7.56836 35.5225 6.44531Q36.6211 5.32227 36.6211 3.32031L36.6211-43.1152Q36.6211-44.2871 37.5977-44.2871Q38.5742-44.2871 38.5742-43.1152L38.5742-24.0723Q38.5742-22.2656 39.5508-21.2402Q40.5273-20.2148 42.041-20.2148Q43.6035-20.2148 44.5557-21.2402Q45.5078-22.2656 45.5078-24.0723L45.5078-43.5547Q45.5078-50.3418 40.8447-54.0771Q36.1816-57.8125 27.6367-57.8125Q19.0918-57.8125 14.4287-54.0771Q9.76562-50.3418 9.76562-43.5547ZM27.6367-61.084Q31.1523-61.084 33.6426-63.5986Q36.1328-66.1133 36.1328-69.5312Q36.1328-73.0469 33.6426-75.5859Q31.1523-78.125 27.6367-78.125Q24.0723-78.125 21.6064-75.5859Q19.1406-73.0469 19.1406-69.5312Q19.1406-65.8203 21.6064-63.4521Q24.0723-61.084 27.6367-61.084Z"/>
  </g>
  <g id="Ultralight-S" transform="matrix(1 0 0 1 532.758 696)">
   <path d="M9.76562-24.2188Q9.76562-22.4609 10.6934-21.4355Q11.6211-20.4102 13.1836-20.4102Q14.6973-20.4102 15.625-21.4355Q16.5527-22.4609 16.5527-24.2188L16.5527-43.5547Q16.5527-44.5801 17.3828-44.5801Q18.3105-44.5801 18.3105-43.5547L18.3105 2.68555Q18.3105 4.6875 19.3848 5.78613Q20.459 6.88477 22.1191 6.88477Q23.8281 6.88477 24.9268 5.78613Q26.0254 4.6875 26.0254 2.68555L26.0254-25.1465Q26.0254-26.3184 27.002-26.3184Q27.9297-26.3184 27.9297-25.1465L27.9297 2.68555Q27.9297 4.6875 29.0283 5.78613Q30.127 6.88477 31.7871 6.88477Q33.4961 6.88477 34.5703 5.78613Q35.6445 4.6875 35.6445 2.68555L35.6445-43.5547Q35.6445-44.5801 36.5234-44.5801Q37.3535-44.5801 37.3535-43.5547L37.3535-24.2188Q37.3535-22.4609 38.3057-21.4355Q39.2578-20.4102 40.7715-20.4102Q42.2852-20.4102 43.2129-21.4355Q44.1406-22.4609 44.1406-24.2188L44.1406-43.8477Q44.1406-50.3906 39.5996-54.0527Q35.0586-57.7148 27.002-57.7148Q18.8477-57.7148 14.3066-54.0527Q9.76562-50.3906 9.76562-43.8477ZM27.002-60.791Q30.3711-60.791 32.8369-63.2812Q35.3027-65.7715 35.3027-69.0918Q35.3027-72.5586 32.8369-75.0244Q30.3711-77.4902 27.002-77.4902Q23.4375-77.4902 21.0449-75.0244Q18.6523-72.5586 18.6523-69.0918Q18.6523-65.3809 21.0449-63.0859Q23.4375-60.791 27.002-60.791Z"/>
  </g>
 </g>
</svg>
