<?xml version="1.0" encoding="UTF-8"?>
<!--Generator: Apple Native CoreSVG 175-->
<!DOCTYPE svg
PUBLIC "-//W3C//DTD SVG 1.1//EN"
       "http://www.w3.org/Graphics/SVG/1.1/DTD/svg11.dtd">
<svg version="1.1" xmlns="http://www.w3.org/2000/svg" xmlns:xlink="http://www.w3.org/1999/xlink" width="3300" height="2200">
 <!--glyph: "uni100EB5.medium", point size: 100.0, font version: "17.0d11e1", template writer version: "65.1"-->
 <g id="Notes">
  <rect height="2200" id="artboard" style="fill:white;opacity:1" width="3300" x="0" y="0"/>
  <line style="fill:none;stroke:black;opacity:1;stroke-width:0.5;" x1="263" x2="3036" y1="292" y2="292"/>
  <text style="stroke:none;fill:black;font-family:sans-serif;font-size:13;font-weight:bold;" transform="matrix(1 0 0 1 263 322)">Weight/Scale Variations</text>
  <text style="stroke:none;fill:black;font-family:sans-serif;font-size:13;text-anchor:middle;" transform="matrix(1 0 0 1 559.711 322)">Ultralight</text>
  <text style="stroke:none;fill:black;font-family:sans-serif;font-size:13;text-anchor:middle;" transform="matrix(1 0 0 1 856.422 322)">Thin</text>
  <text style="stroke:none;fill:black;font-family:sans-serif;font-size:13;text-anchor:middle;" transform="matrix(1 0 0 1 1153.13 322)">Light</text>
  <text style="stroke:none;fill:black;font-family:sans-serif;font-size:13;text-anchor:middle;" transform="matrix(1 0 0 1 1449.84 322)">Regular</text>
  <text style="stroke:none;fill:black;font-family:sans-serif;font-size:13;text-anchor:middle;" transform="matrix(1 0 0 1 1746.56 322)">Medium</text>
  <text style="stroke:none;fill:black;font-family:sans-serif;font-size:13;text-anchor:middle;" transform="matrix(1 0 0 1 2043.27 322)">Semibold</text>
  <text style="stroke:none;fill:black;font-family:sans-serif;font-size:13;text-anchor:middle;" transform="matrix(1 0 0 1 2339.98 322)">Bold</text>
  <text style="stroke:none;fill:black;font-family:sans-serif;font-size:13;text-anchor:middle;" transform="matrix(1 0 0 1 2636.69 322)">Heavy</text>
  <text style="stroke:none;fill:black;font-family:sans-serif;font-size:13;text-anchor:middle;" transform="matrix(1 0 0 1 2933.4 322)">Black</text>
  <line style="fill:none;stroke:black;opacity:1;stroke-width:0.5;" x1="263" x2="3036" y1="1903" y2="1903"/>
  <g transform="matrix(1 0 0 1 263 1933)">
   <path d="M9.24805 0.830078Q10.8691 0.830078 12.2949 0.214844Q13.7207-0.400391 14.8096-1.49414Q15.8984-2.58789 16.5186-4.01367Q17.1387-5.43945 17.1387-7.05078Q17.1387-8.66211 16.5186-10.0879Q15.8984-11.5137 14.8047-12.6074Q13.7109-13.7012 12.2852-14.3164Q10.8594-14.9316 9.23828-14.9316Q7.62695-14.9316 6.20117-14.3164Q4.77539-13.7012 3.69141-12.6074Q2.60742-11.5137 1.9873-10.0879Q1.36719-8.66211 1.36719-7.05078Q1.36719-5.43945 1.9873-4.01367Q2.60742-2.58789 3.69629-1.49414Q4.78516-0.400391 6.21094 0.214844Q7.63672 0.830078 9.24805 0.830078ZM9.24805-0.654297Q7.91992-0.654297 6.7627-1.14746Q5.60547-1.64062 4.73145-2.51953Q3.85742-3.39844 3.36426-4.56055Q2.87109-5.72266 2.87109-7.05078Q2.87109-8.37891 3.35938-9.54102Q3.84766-10.7031 4.72168-11.582Q5.5957-12.4609 6.75293-12.9541Q7.91016-13.4473 9.23828-13.4473Q10.5762-13.4473 11.7334-12.9541Q12.8906-12.4609 13.7695-11.582Q14.6484-10.7031 15.1465-9.54102Q15.6445-8.37891 15.6445-7.05078Q15.6445-5.72266 15.1514-4.56055Q14.6582-3.39844 13.7842-2.51953Q12.9102-1.64062 11.748-1.14746Q10.5859-0.654297 9.24805-0.654297ZM5.6543-7.05078Q5.6543-6.72852 5.85938-6.52832Q6.06445-6.32812 6.40625-6.32812L8.51562-6.32812L8.51562-4.20898Q8.51562-3.88672 8.71094-3.67676Q8.90625-3.4668 9.23828-3.4668Q9.56055-3.4668 9.77051-3.67676Q9.98047-3.88672 9.98047-4.20898L9.98047-6.32812L12.0898-6.32812Q12.4219-6.32812 12.627-6.52832Q12.832-6.72852 12.832-7.05078Q12.832-7.38281 12.627-7.58789Q12.4219-7.79297 12.0898-7.79297L9.98047-7.79297L9.98047-9.90234Q9.98047-10.2344 9.77051-10.4443Q9.56055-10.6543 9.23828-10.6543Q8.90625-10.6543 8.71094-10.4443Q8.51562-10.2344 8.51562-9.90234L8.51562-7.79297L6.40625-7.79297Q6.06445-7.79297 5.85938-7.58789Q5.6543-7.38281 5.6543-7.05078Z"/>
  </g>
  <g transform="matrix(1 0 0 1 281.867 1933)">
   <path d="M11.709 2.91016Q13.75 2.91016 15.5518 2.12891Q17.3535 1.34766 18.7305-0.0292969Q20.1074-1.40625 20.8887-3.20801Q21.6699-5.00977 21.6699-7.05078Q21.6699-9.0918 20.8887-10.8936Q20.1074-12.6953 18.7305-14.0723Q17.3535-15.4492 15.5469-16.2305Q13.7402-17.0117 11.6992-17.0117Q9.6582-17.0117 7.85645-16.2305Q6.05469-15.4492 4.68262-14.0723Q3.31055-12.6953 2.5293-10.8936Q1.74805-9.0918 1.74805-7.05078Q1.74805-5.00977 2.5293-3.20801Q3.31055-1.40625 4.6875-0.0292969Q6.06445 1.34766 7.86621 2.12891Q9.66797 2.91016 11.709 2.91016ZM11.709 1.25Q9.98047 1.25 8.47656 0.605469Q6.97266-0.0390625 5.83496-1.17676Q4.69727-2.31445 4.05762-3.81836Q3.41797-5.32227 3.41797-7.05078Q3.41797-8.7793 4.05762-10.2832Q4.69727-11.7871 5.83008-12.9297Q6.96289-14.0723 8.4668-14.7119Q9.9707-15.3516 11.6992-15.3516Q13.4277-15.3516 14.9316-14.7119Q16.4355-14.0723 17.5781-12.9297Q18.7207-11.7871 19.3652-10.2832Q20.0098-8.7793 20.0098-7.05078Q20.0098-5.32227 19.3701-3.81836Q18.7305-2.31445 17.5928-1.17676Q16.4551-0.0390625 14.9463 0.605469Q13.4375 1.25 11.709 1.25ZM7.17773-7.05078Q7.17773-6.69922 7.41211-6.47461Q7.64648-6.25 8.01758-6.25L10.8887-6.25L10.8887-3.36914Q10.8887-2.99805 11.1133-2.76855Q11.3379-2.53906 11.6895-2.53906Q12.0605-2.53906 12.29-2.76855Q12.5195-2.99805 12.5195-3.36914L12.5195-6.25L15.4004-6.25Q15.7715-6.25 16.001-6.47461Q16.2305-6.69922 16.2305-7.05078Q16.2305-7.42188 16.001-7.65137Q15.7715-7.88086 15.4004-7.88086L12.5195-7.88086L12.5195-10.752Q12.5195-11.1328 12.29-11.3623Q12.0605-11.5918 11.6895-11.5918Q11.3379-11.5918 11.1133-11.3574Q10.8887-11.123 10.8887-10.752L10.8887-7.88086L8.01758-7.88086Q7.63672-7.88086 7.40723-7.65137Q7.17773-7.42188 7.17773-7.05078Z"/>
  </g>
  <g transform="matrix(1 0 0 1 305.646 1933)">
   <path d="M14.9707 5.66406Q17.0605 5.66406 18.96 5.01465Q20.8594 4.36523 22.4512 3.19336Q24.043 2.02148 25.2197 0.429688Q26.3965-1.16211 27.0459-3.06641Q27.6953-4.9707 27.6953-7.05078Q27.6953-9.14062 27.0459-11.04Q26.3965-12.9395 25.2197-14.5312Q24.043-16.123 22.4512-17.2998Q20.8594-18.4766 18.9551-19.126Q17.0508-19.7754 14.9609-19.7754Q12.8711-19.7754 10.9717-19.126Q9.07227-18.4766 7.48535-17.2998Q5.89844-16.123 4.72168-14.5312Q3.54492-12.9395 2.90039-11.04Q2.25586-9.14062 2.25586-7.05078Q2.25586-4.9707 2.90527-3.06641Q3.55469-1.16211 4.72656 0.429688Q5.89844 2.02148 7.49023 3.19336Q9.08203 4.36523 10.9814 5.01465Q12.8809 5.66406 14.9707 5.66406ZM14.9707 3.84766Q13.1641 3.84766 11.5283 3.2959Q9.89258 2.74414 8.53516 1.74805Q7.17773 0.751953 6.17676-0.610352Q5.17578-1.97266 4.62891-3.6084Q4.08203-5.24414 4.08203-7.05078Q4.08203-8.86719 4.62891-10.5029Q5.17578-12.1387 6.17188-13.501Q7.16797-14.8633 8.52539-15.8594Q9.88281-16.8555 11.5186-17.4023Q13.1543-17.9492 14.9609-17.9492Q16.7773-17.9492 18.4131-17.4023Q20.0488-16.8555 21.4111-15.8594Q22.7734-14.8633 23.7695-13.501Q24.7656-12.1387 25.3174-10.5029Q25.8691-8.86719 25.8691-7.05078Q25.8789-5.24414 25.332-3.6084Q24.7852-1.97266 23.7842-0.610352Q22.7832 0.751953 21.4209 1.74805Q20.0586 2.74414 18.4229 3.2959Q16.7871 3.84766 14.9707 3.84766ZM9.19922-7.05078Q9.19922-6.66992 9.45801-6.4209Q9.7168-6.17188 10.1172-6.17188L14.0625-6.17188L14.0625-2.2168Q14.0625-1.81641 14.3115-1.55762Q14.5605-1.29883 14.9512-1.29883Q15.3516-1.29883 15.6104-1.55273Q15.8691-1.80664 15.8691-2.2168L15.8691-6.17188L19.8242-6.17188Q20.2246-6.17188 20.4785-6.4209Q20.7324-6.66992 20.7324-7.05078Q20.7324-7.46094 20.4785-7.71484Q20.2246-7.96875 19.8242-7.96875L15.8691-7.96875L15.8691-11.9141Q15.8691-12.3242 15.6104-12.583Q15.3516-12.8418 14.9512-12.8418Q14.5605-12.8418 14.3115-12.583Q14.0625-12.3242 14.0625-11.9141L14.0625-7.96875L10.1172-7.96875Q9.70703-7.96875 9.45312-7.71484Q9.19922-7.46094 9.19922-7.05078Z"/>
  </g>
  <text style="stroke:none;fill:black;font-family:sans-serif;font-size:13;font-weight:bold;" transform="matrix(1 0 0 1 263 1953)">Design Variations</text>
  <text style="stroke:none;fill:black;font-family:sans-serif;font-size:13;" transform="matrix(1 0 0 1 263 1971)">Symbols are supported in up to nine weights and three scales.</text>
  <text style="stroke:none;fill:black;font-family:sans-serif;font-size:13;" transform="matrix(1 0 0 1 263 1989)">For optimal layout with text and other symbols, vertically align</text>
  <text style="stroke:none;fill:black;font-family:sans-serif;font-size:13;" transform="matrix(1 0 0 1 263 2007)">symbols with the adjacent text.</text>
  <line style="fill:none;stroke:#00AEEF;stroke-width:0.5;opacity:1.0;" x1="776" x2="776" y1="1919" y2="1933"/>
  <g transform="matrix(1 0 0 1 776 1933)">
   <path d="M3.31055 0.15625Q3.70117 0.15625 3.91602-0.00976562Q4.13086-0.175781 4.26758-0.585938L5.52734-4.0332L11.2891-4.0332L12.5488-0.585938Q12.6855-0.175781 12.9004-0.00976562Q13.1152 0.15625 13.4961 0.15625Q13.8867 0.15625 14.1162-0.0585938Q14.3457-0.273438 14.3457-0.644531Q14.3457-0.869141 14.2383-1.17188L9.6582-13.3691Q9.48242-13.8184 9.17969-14.043Q8.87695-14.2676 8.4082-14.2676Q7.5-14.2676 7.17773-13.3789L2.59766-1.16211Q2.49023-0.859375 2.49023-0.634766Q2.49023-0.263672 2.70996-0.0537109Q2.92969 0.15625 3.31055 0.15625ZM6.00586-5.51758L8.37891-12.0898L8.42773-12.0898L10.8008-5.51758Z"/>
  </g>
  <line style="fill:none;stroke:#00AEEF;stroke-width:0.5;opacity:1.0;" x1="793.197" x2="793.197" y1="1919" y2="1933"/>
  <text style="stroke:none;fill:black;font-family:sans-serif;font-size:13;font-weight:bold;" transform="matrix(1 0 0 1 776 1953)">Margins</text>
  <text style="stroke:none;fill:black;font-family:sans-serif;font-size:13;" transform="matrix(1 0 0 1 776 1971)">Leading and trailing margins on the left and right side of each symbol</text>
  <text style="stroke:none;fill:black;font-family:sans-serif;font-size:13;" transform="matrix(1 0 0 1 776 1989)">can be adjusted by modifying the x-location of the margin guidelines.</text>
  <text style="stroke:none;fill:black;font-family:sans-serif;font-size:13;" transform="matrix(1 0 0 1 776 2007)">Modifications are automatically applied proportionally to all</text>
  <text style="stroke:none;fill:black;font-family:sans-serif;font-size:13;" transform="matrix(1 0 0 1 776 2025)">scales and weights.</text>
  <g transform="matrix(1 0 0 1 1289 1933)">
   <path d="M2.8418 1.86523L4.54102 3.57422Q5.18555 4.22852 5.90332 4.17969Q6.62109 4.13086 7.31445 3.35938L18.0078-8.42773L17.041-9.4043L6.42578 2.27539Q6.16211 2.57812 5.89355 2.61719Q5.625 2.65625 5.27344 2.30469L4.10156 1.14258Q3.75 0.791016 3.79395 0.522461Q3.83789 0.253906 4.14062-0.0195312L15.6152-10.8203L14.6387-11.7871L3.04688-0.898438Q2.30469-0.214844 2.25098 0.498047Q2.19727 1.21094 2.8418 1.86523ZM9.25781-16.3281Q8.94531-16.0254 8.90625-15.6348Q8.86719-15.2441 9.04297-14.9512Q9.21875-14.6777 9.55566-14.541Q9.89258-14.4043 10.3809-14.5215Q11.4746-14.7754 12.5977-14.7314Q13.7207-14.6875 14.7949-13.9844L14.209-12.5293Q13.9551-11.9043 14.0674-11.4404Q14.1797-10.9766 14.5801-10.5664L16.875-8.25195Q17.2363-7.88086 17.5781-7.82227Q17.9199-7.76367 18.3398-7.8418L19.4043-8.03711L20.0684-7.36328L20.0293-6.80664Q20-6.43555 20.1221-6.12305Q20.2441-5.81055 20.6055-5.44922L21.3672-4.70703Q21.7285-4.3457 22.1533-4.33105Q22.5781-4.31641 22.9297-4.66797L25.8398-7.58789Q26.1914-7.93945 26.1816-8.35449Q26.1719-8.76953 25.8105-9.13086L25.0391-9.89258Q24.6875-10.2539 24.3799-10.3857Q24.0723-10.5176 23.7109-10.4883L23.1348-10.4395L22.4902-11.0742L22.7344-12.1973Q22.832-12.6172 22.6953-12.9834Q22.5586-13.3496 22.1191-13.7891L19.9219-15.9766Q18.6719-17.2168 17.2607-17.8369Q15.8496-18.457 14.4189-18.4814Q12.9883-18.5059 11.665-17.959Q10.3418-17.4121 9.25781-16.3281ZM10.752-15.957Q11.6602-16.6211 12.7002-16.9043Q13.7402-17.1875 14.8047-17.085Q15.8691-16.9824 16.8701-16.5137Q17.8711-16.0449 18.7012-15.2051L21.1328-12.793Q21.3086-12.6172 21.3525-12.4512Q21.3965-12.2852 21.3379-12.0312L21.0156-10.5469L22.5195-9.0625L23.5059-9.12109Q23.6914-9.13086 23.7891-9.09668Q23.8867-9.0625 24.0332-8.91602L24.6094-8.33984L22.168-5.89844L21.5918-6.47461Q21.4453-6.62109 21.4062-6.71875Q21.3672-6.81641 21.377-7.01172L21.4453-7.98828L19.9512-9.47266L18.4277-9.21875Q18.1836-9.16992 18.042-9.2041Q17.9004-9.23828 17.7148-9.41406L15.7129-11.416Q15.5176-11.5918 15.4932-11.7529Q15.4688-11.9141 15.5859-12.1875L16.4648-14.2773Q15.293-15.3711 13.8281-15.791Q12.3633-16.2109 10.8398-15.7617Q10.7227-15.7324 10.6885-15.8057Q10.6543-15.8789 10.752-15.957Z"/>
  </g>
  <text style="stroke:none;fill:black;font-family:sans-serif;font-size:13;font-weight:bold;" transform="matrix(1 0 0 1 1289 1953)">Exporting</text>
  <text style="stroke:none;fill:black;font-family:sans-serif;font-size:13;" transform="matrix(1 0 0 1 1289 1971)">Symbols should be outlined when exporting to ensure the</text>
  <text style="stroke:none;fill:black;font-family:sans-serif;font-size:13;" transform="matrix(1 0 0 1 1289 1989)">design is preserved when submitting to Xcode.</text>
  <text id="template-version" style="stroke:none;fill:black;font-family:sans-serif;font-size:13;text-anchor:end;" transform="matrix(1 0 0 1 3036 1933)">Template v.3.0</text>
  <text style="stroke:none;fill:black;font-family:sans-serif;font-size:13;text-anchor:end;" transform="matrix(1 0 0 1 3036 1951)">Requires Xcode 13 or greater</text>
  <text id="descriptive-name" style="stroke:none;fill:black;font-family:sans-serif;font-size:13;text-anchor:end;" transform="matrix(1 0 0 1 3036 1969)">Generated from dice.fill</text>
  <text style="stroke:none;fill:black;font-family:sans-serif;font-size:13;text-anchor:end;" transform="matrix(1 0 0 1 3036 1987)">Typeset at 100 points</text>
  <text style="stroke:none;fill:black;font-family:sans-serif;font-size:13;" transform="matrix(1 0 0 1 263 726)">Small</text>
  <text style="stroke:none;fill:black;font-family:sans-serif;font-size:13;" transform="matrix(1 0 0 1 263 1156)">Medium</text>
  <text style="stroke:none;fill:black;font-family:sans-serif;font-size:13;" transform="matrix(1 0 0 1 263 1586)">Large</text>
 </g>
 <g id="Guides">
  <g id="H-reference" style="fill:#27AAE1;stroke:none;" transform="matrix(1 0 0 1 339 696)">
   <path d="M0.976562 0L3.66211 0L29.3457-67.1387L30.0293-67.1387L30.0293-70.459L28.125-70.459ZM11.6699-24.4629L46.9727-24.4629L46.2402-26.709L12.4512-26.709ZM55.127 0L57.7637 0L30.6152-70.459L29.4434-70.459L29.4434-67.1387Z"/>
  </g>
  <line id="Baseline-S" style="fill:none;stroke:#27AAE1;opacity:1;stroke-width:0.5;" x1="263" x2="3036" y1="696" y2="696"/>
  <line id="Capline-S" style="fill:none;stroke:#27AAE1;opacity:1;stroke-width:0.5;" x1="263" x2="3036" y1="625.541" y2="625.541"/>
  <g id="H-reference" style="fill:#27AAE1;stroke:none;" transform="matrix(1 0 0 1 339 1126)">
   <path d="M0.976562 0L3.66211 0L29.3457-67.1387L30.0293-67.1387L30.0293-70.459L28.125-70.459ZM11.6699-24.4629L46.9727-24.4629L46.2402-26.709L12.4512-26.709ZM55.127 0L57.7637 0L30.6152-70.459L29.4434-70.459L29.4434-67.1387Z"/>
  </g>
  <line id="Baseline-M" style="fill:none;stroke:#27AAE1;opacity:1;stroke-width:0.5;" x1="263" x2="3036" y1="1126" y2="1126"/>
  <line id="Capline-M" style="fill:none;stroke:#27AAE1;opacity:1;stroke-width:0.5;" x1="263" x2="3036" y1="1055.54" y2="1055.54"/>
  <g id="H-reference" style="fill:#27AAE1;stroke:none;" transform="matrix(1 0 0 1 339 1556)">
   <path d="M0.976562 0L3.66211 0L29.3457-67.1387L30.0293-67.1387L30.0293-70.459L28.125-70.459ZM11.6699-24.4629L46.9727-24.4629L46.2402-26.709L12.4512-26.709ZM55.127 0L57.7637 0L30.6152-70.459L29.4434-70.459L29.4434-67.1387Z"/>
  </g>
  <line id="Baseline-L" style="fill:none;stroke:#27AAE1;opacity:1;stroke-width:0.5;" x1="263" x2="3036" y1="1556" y2="1556"/>
  <line id="Capline-L" style="fill:none;stroke:#27AAE1;opacity:1;stroke-width:0.5;" x1="263" x2="3036" y1="1485.54" y2="1485.54"/>
  <line id="left-margin-Ultralight-S" style="fill:none;stroke:#00AEEF;stroke-width:0.5;opacity:1.0;" x1="511.445" x2="511.445" y1="600.785" y2="720.121"/>
  <line id="right-margin-Ultralight-S" style="fill:none;stroke:#00AEEF;stroke-width:0.5;opacity:1.0;" x1="607.978" x2="607.978" y1="600.785" y2="720.121"/>
  <line id="left-margin-Thin-S" style="fill:none;stroke:#00AEEF;stroke-width:0.5;opacity:1.0;" x1="807.594" x2="807.594" y1="600.785" y2="720.121"/>
  <line id="right-margin-Thin-S" style="fill:none;stroke:#00AEEF;stroke-width:0.5;opacity:1.0;" x1="905.25" x2="905.25" y1="600.785" y2="720.121"/>
  <line id="left-margin-Light-S" style="fill:none;stroke:#00AEEF;stroke-width:0.5;opacity:1.0;" x1="1103.26" x2="1103.26" y1="600.785" y2="720.121"/>
  <line id="right-margin-Light-S" style="fill:none;stroke:#00AEEF;stroke-width:0.5;opacity:1.0;" x1="1203.01" x2="1203.01" y1="600.785" y2="720.121"/>
  <line id="left-margin-Regular-S" style="fill:none;stroke:#00AEEF;stroke-width:0.5;opacity:1.0;" x1="1399.16" x2="1399.16" y1="600.785" y2="720.121"/>
  <line id="right-margin-Regular-S" style="fill:none;stroke:#00AEEF;stroke-width:0.5;opacity:1.0;" x1="1500.53" x2="1500.53" y1="600.785" y2="720.121"/>
  <line id="left-margin-Medium-S" style="fill:none;stroke:#00AEEF;stroke-width:0.5;opacity:1.0;" x1="1694.92" x2="1694.92" y1="600.785" y2="720.121"/>
  <line id="right-margin-Medium-S" style="fill:none;stroke:#00AEEF;stroke-width:0.5;opacity:1.0;" x1="1798.19" x2="1798.19" y1="600.785" y2="720.121"/>
  <line id="left-margin-Semibold-S" style="fill:none;stroke:#00AEEF;stroke-width:0.5;opacity:1.0;" x1="1990.9" x2="1990.9" y1="600.785" y2="720.121"/>
  <line id="right-margin-Semibold-S" style="fill:none;stroke:#00AEEF;stroke-width:0.5;opacity:1.0;" x1="2095.63" x2="2095.63" y1="600.785" y2="720.121"/>
  <line id="left-margin-Bold-S" style="fill:none;stroke:#00AEEF;stroke-width:0.5;opacity:1.0;" x1="2286.66" x2="2286.66" y1="600.785" y2="720.121"/>
  <line id="right-margin-Bold-S" style="fill:none;stroke:#00AEEF;stroke-width:0.5;opacity:1.0;" x1="2393.3" x2="2393.3" y1="600.785" y2="720.121"/>
  <line id="left-margin-Heavy-S" style="fill:none;stroke:#00AEEF;stroke-width:0.5;opacity:1.0;" x1="2581.98" x2="2581.98" y1="600.785" y2="720.121"/>
  <line id="right-margin-Heavy-S" style="fill:none;stroke:#00AEEF;stroke-width:0.5;opacity:1.0;" x1="2691.4" x2="2691.4" y1="600.785" y2="720.121"/>
  <line id="left-margin-Black-S" style="fill:none;stroke:#00AEEF;stroke-width:0.5;opacity:1.0;" x1="2877.44" x2="2877.44" y1="600.785" y2="720.121"/>
  <line id="right-margin-Black-S" style="fill:none;stroke:#00AEEF;stroke-width:0.5;opacity:1.0;" x1="2989.36" x2="2989.36" y1="600.785" y2="720.121"/>
  <line id="left-margin-Ultralight-M" style="fill:none;stroke:#00AEEF;stroke-width:0.5;opacity:1.0;" x1="498.334" x2="498.334" y1="1030.79" y2="1150.12"/>
  <line id="right-margin-Ultralight-M" style="fill:none;stroke:#00AEEF;stroke-width:0.5;opacity:1.0;" x1="621.088" x2="621.088" y1="1030.79" y2="1150.12"/>
  <line id="left-margin-Thin-M" style="fill:none;stroke:#00AEEF;stroke-width:0.5;opacity:1.0;" x1="794.411" x2="794.411" y1="1030.79" y2="1150.12"/>
  <line id="right-margin-Thin-M" style="fill:none;stroke:#00AEEF;stroke-width:0.5;opacity:1.0;" x1="918.434" x2="918.434" y1="1030.79" y2="1150.12"/>
  <line id="left-margin-Light-M" style="fill:none;stroke:#00AEEF;stroke-width:0.5;opacity:1.0;" x1="1089.93" x2="1089.93" y1="1030.79" y2="1150.12"/>
  <line id="right-margin-Light-M" style="fill:none;stroke:#00AEEF;stroke-width:0.5;opacity:1.0;" x1="1216.34" x2="1216.34" y1="1030.79" y2="1150.12"/>
  <line id="left-margin-Regular-M" style="fill:none;stroke:#00AEEF;stroke-width:0.5;opacity:1.0;" x1="1385.73" x2="1385.73" y1="1030.79" y2="1150.12"/>
  <line id="right-margin-Regular-M" style="fill:none;stroke:#00AEEF;stroke-width:0.5;opacity:1.0;" x1="1513.96" x2="1513.96" y1="1030.79" y2="1150.12"/>
  <line id="left-margin-Medium-M" style="fill:none;stroke:#00AEEF;stroke-width:0.5;opacity:1.0;" x1="1681.22" x2="1681.22" y1="1030.79" y2="1150.12"/>
  <line id="right-margin-Medium-M" style="fill:none;stroke:#00AEEF;stroke-width:0.5;opacity:1.0;" x1="1811.89" x2="1811.89" y1="1030.79" y2="1150.12"/>
  <line id="left-margin-Semibold-M" style="fill:none;stroke:#00AEEF;stroke-width:0.5;opacity:1.0;" x1="1977.01" x2="1977.01" y1="1030.79" y2="1150.12"/>
  <line id="right-margin-Semibold-M" style="fill:none;stroke:#00AEEF;stroke-width:0.5;opacity:1.0;" x1="2109.53" x2="2109.53" y1="1030.79" y2="1150.12"/>
  <line id="left-margin-Bold-M" style="fill:none;stroke:#00AEEF;stroke-width:0.5;opacity:1.0;" x1="2272.5" x2="2272.5" y1="1030.79" y2="1150.12"/>
  <line id="right-margin-Bold-M" style="fill:none;stroke:#00AEEF;stroke-width:0.5;opacity:1.0;" x1="2407.46" x2="2407.46" y1="1030.79" y2="1150.12"/>
  <line id="left-margin-Heavy-M" style="fill:none;stroke:#00AEEF;stroke-width:0.5;opacity:1.0;" x1="2567.43" x2="2567.43" y1="1030.79" y2="1150.12"/>
  <line id="right-margin-Heavy-M" style="fill:none;stroke:#00AEEF;stroke-width:0.5;opacity:1.0;" x1="2705.95" x2="2705.95" y1="1030.79" y2="1150.12"/>
  <line id="left-margin-Black-M" style="fill:none;stroke:#00AEEF;stroke-width:0.5;opacity:1.0;" x1="2862.55" x2="2862.55" y1="1030.79" y2="1150.12"/>
  <line id="right-margin-Black-M" style="fill:none;stroke:#00AEEF;stroke-width:0.5;opacity:1.0;" x1="3004.25" x2="3004.25" y1="1030.79" y2="1150.12"/>
  <line id="left-margin-Ultralight-L" style="fill:none;stroke:#00AEEF;stroke-width:0.5;opacity:1.0;" x1="480.78" x2="480.78" y1="1460.79" y2="1580.12"/>
  <line id="right-margin-Ultralight-L" style="fill:none;stroke:#00AEEF;stroke-width:0.5;opacity:1.0;" x1="638.642" x2="638.642" y1="1460.79" y2="1580.12"/>
  <line id="left-margin-Thin-L" style="fill:none;stroke:#00AEEF;stroke-width:0.5;opacity:1.0;" x1="776.784" x2="776.784" y1="1460.79" y2="1580.12"/>
  <line id="right-margin-Thin-L" style="fill:none;stroke:#00AEEF;stroke-width:0.5;opacity:1.0;" x1="936.061" x2="936.061" y1="1460.79" y2="1580.12"/>
  <line id="left-margin-Light-L" style="fill:none;stroke:#00AEEF;stroke-width:0.5;opacity:1.0;" x1="1072.18" x2="1072.18" y1="1460.79" y2="1580.12"/>
  <line id="right-margin-Light-L" style="fill:none;stroke:#00AEEF;stroke-width:0.5;opacity:1.0;" x1="1234.09" x2="1234.09" y1="1460.79" y2="1580.12"/>
  <line id="left-margin-Regular-L" style="fill:none;stroke:#00AEEF;stroke-width:0.5;opacity:1.0;" x1="1367.86" x2="1367.86" y1="1460.79" y2="1580.12"/>
  <line id="right-margin-Regular-L" style="fill:none;stroke:#00AEEF;stroke-width:0.5;opacity:1.0;" x1="1531.83" x2="1531.83" y1="1460.79" y2="1580.12"/>
  <line id="left-margin-Medium-L" style="fill:none;stroke:#00AEEF;stroke-width:0.5;opacity:1.0;" x1="1663.16" x2="1663.16" y1="1460.79" y2="1580.12"/>
  <line id="right-margin-Medium-L" style="fill:none;stroke:#00AEEF;stroke-width:0.5;opacity:1.0;" x1="1829.95" x2="1829.95" y1="1460.79" y2="1580.12"/>
  <line id="left-margin-Semibold-L" style="fill:none;stroke:#00AEEF;stroke-width:0.5;opacity:1.0;" x1="1958.79" x2="1958.79" y1="1460.79" y2="1580.12"/>
  <line id="right-margin-Semibold-L" style="fill:none;stroke:#00AEEF;stroke-width:0.5;opacity:1.0;" x1="2127.74" x2="2127.74" y1="1460.79" y2="1580.12"/>
  <line id="left-margin-Bold-L" style="fill:none;stroke:#00AEEF;stroke-width:0.5;opacity:1.0;" x1="2254.06" x2="2254.06" y1="1460.79" y2="1580.12"/>
  <line id="right-margin-Bold-L" style="fill:none;stroke:#00AEEF;stroke-width:0.5;opacity:1.0;" x1="2425.89" x2="2425.89" y1="1460.79" y2="1580.12"/>
  <line id="left-margin-Heavy-L" style="fill:none;stroke:#00AEEF;stroke-width:0.5;opacity:1.0;" x1="2548.73" x2="2548.73" y1="1460.79" y2="1580.12"/>
  <line id="right-margin-Heavy-L" style="fill:none;stroke:#00AEEF;stroke-width:0.5;opacity:1.0;" x1="2724.65" x2="2724.65" y1="1460.79" y2="1580.12"/>
  <line id="left-margin-Black-L" style="fill:none;stroke:#00AEEF;stroke-width:0.5;opacity:1.0;" x1="2843.58" x2="2843.58" y1="1460.79" y2="1580.12"/>
  <line id="right-margin-Black-L" style="fill:none;stroke:#00AEEF;stroke-width:0.5;opacity:1.0;" x1="3023.22" x2="3023.22" y1="1460.79" y2="1580.12"/>
 </g>
 <g id="Symbols">
  <g id="Black-L" transform="matrix(1 0 0 1 2843.58 1556)">
   <path d="M76.3672 37.9883L139.697 37.9883Q151.123 37.9883 157.349 31.7871Q163.574 25.5859 163.574 14.1602L163.574-49.3164Q163.574-60.6934 157.349-66.9189Q151.123-73.1445 139.697-73.1445L76.3672-73.1445Q64.9414-73.1445 58.6914-66.9189Q52.4414-60.6934 52.4414-49.3164L52.4414 14.1602Q52.4414 25.5859 58.6914 31.7871Q64.9414 37.9883 76.3672 37.9883ZM16.0645-18.7012Q16.0645-7.61719 22.168-1.26953Q28.2715 5.07812 39.9902 5.07812L41.0645 5.07812L41.0645-49.3164Q41.0645-60.0586 45.4102-67.9688Q49.7559-75.8789 57.666-80.2002Q65.5762-84.5215 76.3672-84.5215L129.541-84.5215L129.541-84.668Q129.541-95.9961 123.291-102.173Q117.041-108.35 105.615-108.35L39.9902-108.35Q28.5156-108.35 22.29-102.148Q16.0645-95.9473 16.0645-84.5703ZM84.9121-30.8105Q80.957-30.8594 78.1982-33.5693Q75.4395-36.2793 75.4395-40.1855Q75.4395-44.043 78.1982-46.7773Q80.957-49.5117 84.9121-49.5117Q87.5-49.5117 89.5996-48.2422Q91.6992-46.9727 92.9688-44.8486Q94.2383-42.7246 94.2383-40.1855Q94.2383-37.5488 92.9443-35.4248Q91.6504-33.3008 89.5508-32.0068Q87.4512-30.7129 84.9121-30.8105ZM130.225-30.8105Q126.318-30.8594 123.584-33.5693Q120.85-36.2793 120.85-40.1855Q120.85-44.043 123.584-46.7773Q126.318-49.5117 130.225-49.5117Q134.131-49.5117 136.865-46.7773Q139.6-44.043 139.6-40.1855Q139.6-37.5488 138.33-35.4248Q137.061-33.3008 134.937-32.0068Q132.812-30.7129 130.225-30.8105ZM107.568-8.05664Q103.613-8.05664 100.928-10.8154Q98.2422-13.5742 98.2422-17.5293Q98.2422-21.3867 100.977-24.0479Q103.711-26.709 107.568-26.709Q110.107-26.709 112.207-25.4883Q114.307-24.2676 115.601-22.168Q116.895-20.0684 116.895-17.5293Q116.895-13.623 114.16-10.8398Q111.426-8.05664 107.568-8.05664ZM84.8145 14.6973Q80.957 14.6973 78.1982 11.9141Q75.4395 9.13086 75.4395 5.22461Q75.4395 1.41602 78.1982-1.31836Q80.957-4.05273 84.8145-4.05273Q87.3535-4.05273 89.4775-2.7832Q91.6016-1.51367 92.8467 0.585938Q94.0918 2.68555 94.0918 5.22461Q94.0918 9.08203 91.3818 11.8896Q88.6719 14.6973 84.8145 14.6973ZM130.225 14.6973Q126.367 14.6973 123.657 11.8896Q120.947 9.08203 120.947 5.22461Q120.947 1.41602 123.657-1.31836Q126.367-4.05273 130.225-4.05273Q132.812-4.05273 134.937-2.7832Q137.061-1.51367 138.33 0.585938Q139.6 2.68555 139.6 5.22461Q139.6 7.8125 138.33 9.96094Q137.061 12.1094 134.937 13.4033Q132.812 14.6973 130.225 14.6973Z"/>
  </g>
  <g id="Heavy-L" transform="matrix(1 0 0 1 2548.73 1556)">
   <path d="M73.8281 35.9863L137.158 35.9863Q148.096 35.9863 153.979 30.127Q159.863 24.2676 159.863 13.3301L159.863-50.1465Q159.863-61.084 153.979-66.9434Q148.096-72.8027 137.158-72.8027L73.8281-72.8027Q62.8906-72.8027 56.9824-66.9434Q51.0742-61.084 51.0742-50.1465L51.0742 13.3301Q51.0742 24.2676 56.9824 30.127Q62.8906 35.9863 73.8281 35.9863ZM16.0645-18.4082Q16.0645-7.71484 21.8506-1.7334Q27.6367 4.24805 38.8184 4.24805L40.5273 4.24805L40.5273-50.1465Q40.5273-60.3516 44.6045-67.7979Q48.6816-75.2441 56.1279-79.2969Q63.5742-83.3496 73.8281-83.3496L126.66-83.3496L126.66-83.8379Q126.66-94.6777 120.752-100.513Q114.844-106.348 103.906-106.348L38.8184-106.348Q27.832-106.348 21.9482-100.488Q16.0645-94.6289 16.0645-83.7402ZM81.7871-32.4707Q77.9297-32.4707 75.1953-35.1807Q72.4609-37.8906 72.4609-41.6992Q72.4609-45.5566 75.1953-48.2666Q77.9297-50.9766 81.7871-50.9766Q84.3262-50.9766 86.4258-49.7314Q88.5254-48.4863 89.7705-46.3867Q91.0156-44.2871 91.0156-41.6992Q91.0156-39.1602 89.7461-37.0361Q88.4766-34.9121 86.377-33.6426Q84.2773-32.373 81.7871-32.4707ZM128.564-32.4707Q124.658-32.4707 121.948-35.1807Q119.238-37.8906 119.238-41.6992Q119.238-45.5566 121.948-48.2666Q124.658-50.9766 128.564-50.9766Q132.373-50.9766 135.083-48.2666Q137.793-45.5566 137.793-41.6992Q137.793-39.1602 136.523-37.0361Q135.254-34.9121 133.179-33.6426Q131.104-32.373 128.564-32.4707ZM105.176-8.98438Q101.27-8.98438 98.6084-11.6943Q95.9473-14.4043 95.9473-18.3594Q95.9473-22.168 98.6572-24.8291Q101.367-27.4902 105.176-27.4902Q107.666-27.4902 109.766-26.2695Q111.865-25.0488 113.135-22.9736Q114.404-20.8984 114.404-18.3594Q114.404-14.502 111.67-11.7432Q108.936-8.98438 105.176-8.98438ZM81.6895 14.502Q77.9297 14.502 75.1953 11.7432Q72.4609 8.98438 72.4609 5.12695Q72.4609 1.31836 75.1953-1.36719Q77.9297-4.05273 81.6895-4.05273Q84.2285-4.05273 86.3281-2.83203Q88.4277-1.61133 89.6729 0.488281Q90.918 2.58789 90.918 5.12695Q90.918 8.93555 88.2324 11.7188Q85.5469 14.502 81.6895 14.502ZM128.564 14.502Q124.707 14.502 122.021 11.7188Q119.336 8.93555 119.336 5.12695Q119.336 1.31836 122.021-1.36719Q124.707-4.05273 128.564-4.05273Q131.104-4.05273 133.179-2.83203Q135.254-1.61133 136.523 0.488281Q137.793 2.58789 137.793 5.12695Q137.793 7.66602 136.523 9.79004Q135.254 11.9141 133.179 13.208Q131.104 14.502 128.564 14.502Z"/>
  </g>
  <g id="Bold-L" transform="matrix(1 0 0 1 2254.06 1556)">
   <path d="M70.9961 33.7891L134.326 33.7891Q144.727 33.7891 150.244 28.2959Q155.762 22.8027 155.762 12.4512L155.762-51.123Q155.762-61.4746 150.244-66.9678Q144.727-72.4609 134.326-72.4609L70.9961-72.4609Q60.5469-72.4609 55.0537-66.9922Q49.5605-61.5234 49.5605-51.123L49.5605 12.4512Q49.5605 22.8516 55.0537 28.3203Q60.5469 33.7891 70.9961 33.7891ZM16.0645-18.0664Q16.0645-7.8125 21.5088-2.27051Q26.9531 3.27148 37.5488 3.27148L39.9414 3.27148L39.9414-51.123Q39.9414-60.7422 43.7012-67.6514Q47.4609-74.5605 54.4189-78.2959Q61.377-82.0312 70.9961-82.0312L123.486-82.0312L123.486-82.8613Q123.486-93.1641 117.969-98.6328Q112.451-104.102 102.002-104.102L37.5488-104.102Q27.0508-104.102 21.5576-98.6328Q16.0645-93.1641 16.0645-82.8125ZM78.2715-34.3262Q74.4629-34.375 71.7529-37.0117Q69.043-39.6484 69.043-43.5059Q69.043-47.2656 71.7529-49.9512Q74.4629-52.6367 78.2715-52.6367Q80.7617-52.6367 82.8369-51.3916Q84.9121-50.1465 86.1572-48.0713Q87.4023-45.9961 87.4023-43.5059Q87.4023-40.9668 86.1328-38.8428Q84.8633-36.7188 82.7881-35.4736Q80.7129-34.2285 78.2715-34.3262ZM126.66-34.3262Q122.803-34.375 120.117-37.0117Q117.432-39.6484 117.432-43.5059Q117.432-47.2656 120.117-49.9512Q122.803-52.6367 126.66-52.6367Q130.371-52.6367 133.081-49.9512Q135.791-47.2656 135.791-43.5059Q135.791-40.9668 134.521-38.8428Q133.252-36.7188 131.201-35.4736Q129.15-34.2285 126.66-34.3262ZM102.441-10.0586Q98.584-10.0586 95.9473-12.7441Q93.3105-15.4297 93.3105-19.2871Q93.3105-23.0469 95.9717-25.6836Q98.6328-28.3203 102.441-28.3203Q104.932-28.3203 106.982-27.0996Q109.033-25.8789 110.303-23.8281Q111.572-21.7773 111.572-19.2871Q111.572-15.4785 108.887-12.7686Q106.201-10.0586 102.441-10.0586ZM78.1738 14.209Q74.4629 14.209 71.7529 11.499Q69.043 8.78906 69.043 5.0293Q69.043 1.2207 71.7529-1.44043Q74.4629-4.10156 78.1738-4.10156Q80.7129-4.10156 82.7881-2.88086Q84.8633-1.66016 86.084 0.415039Q87.3047 2.49023 87.3047 5.0293Q87.3047 8.78906 84.6436 11.499Q81.9824 14.209 78.1738 14.209ZM126.66 14.209Q122.852 14.209 120.166 11.499Q117.48 8.78906 117.48 5.0293Q117.48 1.2207 120.166-1.44043Q122.852-4.10156 126.66-4.10156Q129.15-4.10156 131.201-2.88086Q133.252-1.66016 134.521 0.415039Q135.791 2.49023 135.791 5.0293Q135.791 7.51953 134.521 9.61914Q133.252 11.7188 131.201 12.9639Q129.15 14.209 126.66 14.209Z"/>
  </g>
  <g id="Semibold-L" transform="matrix(1 0 0 1 1958.79 1556)">
   <path d="M69.043 32.2266L132.324 32.2266Q142.383 32.2266 147.632 27.002Q152.881 21.7773 152.881 11.8164L152.881-51.7578Q152.881-61.7676 147.632-66.9922Q142.383-72.2168 132.324-72.2168L69.043-72.2168Q58.9355-72.2168 53.7109-67.0166Q48.4863-61.8164 48.4863-51.7578L48.4863 11.8164Q48.4863 21.8262 53.7109 27.0264Q58.9355 32.2266 69.043 32.2266ZM16.0645-17.8223Q16.0645-7.86133 21.2402-2.6123Q26.416 2.63672 36.6211 2.63672L39.5508 2.63672L39.5508-51.7578Q39.5508-60.9375 43.0908-67.5049Q46.6309-74.0723 53.2471-77.5879Q59.8633-81.1035 69.043-81.1035L121.24-81.1035L121.24-82.2266Q121.24-92.1387 115.991-97.3389Q110.742-102.539 100.635-102.539L36.6211-102.539Q26.5137-102.539 21.2891-97.3389Q16.0645-92.1387 16.0645-82.1777ZM75.8789-35.5957Q72.1191-35.6445 69.4336-38.2812Q66.748-40.918 66.748-44.7266Q66.748-48.4863 69.4336-51.123Q72.1191-53.7598 75.8789-53.7598Q78.3691-53.7598 80.4199-52.5391Q82.4707-51.3184 83.7158-49.2676Q84.9609-47.2168 84.9609-44.7266Q84.9609-42.1875 83.6914-40.1123Q82.4219-38.0371 80.3955-36.792Q78.3691-35.5469 75.8789-35.5957ZM125.391-35.5957Q121.582-35.6445 118.896-38.2812Q116.211-40.918 116.211-44.7266Q116.211-48.4863 118.896-51.123Q121.582-53.7598 125.391-53.7598Q129.053-53.7598 131.738-51.123Q134.424-48.4863 134.424-44.7266Q134.424-42.1875 133.203-40.1123Q131.982-38.0371 129.907-36.792Q127.832-35.5469 125.391-35.5957ZM100.635-10.7422Q96.8262-10.7422 94.1895-13.4277Q91.5527-16.1133 91.5527-19.9707Q91.5527-23.6816 94.1895-26.3184Q96.8262-28.9551 100.635-28.9551Q103.076-28.9551 105.127-27.7344Q107.178-26.5137 108.423-24.4873Q109.668-22.4609 109.668-19.9707Q109.668-16.1621 107.007-13.4521Q104.346-10.7422 100.635-10.7422ZM75.8301 14.0137Q72.1191 14.0137 69.4336 11.3281Q66.748 8.64258 66.748 4.88281Q66.748 1.07422 69.4336-1.53809Q72.1191-4.15039 75.8301-4.15039Q78.3203-4.15039 80.3711-2.92969Q82.4219-1.70898 83.667 0.341797Q84.9121 2.39258 84.9121 4.88281Q84.9121 8.59375 82.2266 11.3037Q79.541 14.0137 75.8301 14.0137ZM125.391 14.0137Q121.631 14.0137 118.97 11.3037Q116.309 8.59375 116.309 4.88281Q116.309 1.07422 118.97-1.53809Q121.631-4.15039 125.391-4.15039Q127.832-4.15039 129.907-2.92969Q131.982-1.70898 133.203 0.341797Q134.424 2.39258 134.424 4.88281Q134.424 7.37305 133.203 9.47266Q131.982 11.5723 129.907 12.793Q127.832 14.0137 125.391 14.0137Z"/>
  </g>
  <g id="Medium-L" transform="matrix(1 0 0 1 1663.16 1556)">
   <path d="M67.5781 31.0547L130.859 31.0547Q140.625 31.0547 145.679 26.0498Q150.732 21.0449 150.732 11.3281L150.732-52.2949Q150.732-61.9629 145.679-66.9922Q140.625-72.0215 130.859-72.0215L67.5781-72.0215Q57.7148-72.0215 52.6855-67.0166Q47.6562-62.0117 47.6562-52.2949L47.6562 11.3281Q47.6562 21.0449 52.6855 26.0498Q57.7148 31.0547 67.5781 31.0547ZM16.0645-17.627Q16.0645-7.95898 21.0693-2.92969Q26.0742 2.09961 35.9375 2.09961L39.209 2.09961L39.209-52.2949Q39.209-61.1328 42.6025-67.4316Q45.9961-73.7305 52.3438-77.0752Q58.6914-80.4199 67.5781-80.4199L119.58-80.4199L119.58-81.6895Q119.58-91.3574 114.526-96.3623Q109.473-101.367 99.6582-101.367L35.9375-101.367Q26.123-101.367 21.0938-96.3867Q16.0645-91.4062 16.0645-81.6895ZM74.0234-36.5234Q70.2637-36.5723 67.6025-39.209Q64.9414-41.8457 64.9414-45.6543Q64.9414-49.3652 67.6025-52.002Q70.2637-54.6387 74.0234-54.6387Q76.5137-54.6387 78.54-53.418Q80.5664-52.1973 81.8115-50.1465Q83.0566-48.0957 83.0566-45.6543Q83.0566-43.1152 81.8115-41.04Q80.5664-38.9648 78.5156-37.7441Q76.4648-36.5234 74.0234-36.5234ZM124.316-36.5234Q120.605-36.5723 117.944-39.209Q115.283-41.8457 115.283-45.6543Q115.283-49.3652 117.944-52.002Q120.605-54.6387 124.316-54.6387Q128.027-54.6387 130.688-52.002Q133.35-49.3652 133.35-45.6543Q133.35-43.1152 132.129-41.04Q130.908-38.9648 128.882-37.7441Q126.855-36.5234 124.316-36.5234ZM99.1699-11.2793Q95.3613-11.2793 92.749-13.9648Q90.1367-16.6504 90.1367-20.459Q90.1367-24.1211 92.7734-26.7334Q95.4102-29.3457 99.1699-29.3457Q101.611-29.3457 103.662-28.1738Q105.713-27.002 106.958-24.9512Q108.203-22.9004 108.203-20.459Q108.203-16.6504 105.542-13.9648Q102.881-11.2793 99.1699-11.2793ZM74.0234 13.8672Q70.2637 13.8672 67.627 11.2061Q64.9902 8.54492 64.9902 4.83398Q64.9902 1.07422 67.627-1.53809Q70.2637-4.15039 74.0234-4.15039Q76.4648-4.15039 78.5156-2.9541Q80.5664-1.75781 81.7627 0.292969Q82.959 2.34375 82.959 4.83398Q82.959 8.54492 80.3223 11.2061Q77.6855 13.8672 74.0234 13.8672ZM124.316 13.8672Q120.654 13.8672 118.018 11.2061Q115.381 8.54492 115.381 4.83398Q115.381 1.07422 118.018-1.53809Q120.654-4.15039 124.316-4.15039Q126.855-4.15039 128.882-2.9541Q130.908-1.75781 132.129 0.292969Q133.35 2.34375 133.35 4.83398Q133.35 7.32422 132.129 9.375Q130.908 11.4258 128.882 12.6465Q126.855 13.8672 124.316 13.8672Z"/>
  </g>
  <g id="Regular-L" transform="matrix(1 0 0 1 1367.86 1556)">
   <path d="M65.625 29.541L128.906 29.541Q138.33 29.541 143.115 24.7803Q147.9 20.0195 147.9 10.6934L147.9-52.9297Q147.9-62.2559 143.115-67.0166Q138.33-71.7773 128.906-71.7773L65.625-71.7773Q56.1523-71.7773 51.3916-67.041Q46.6309-62.3047 46.6309-52.9297L46.6309 10.6934Q46.6309 20.0684 51.3916 24.8047Q56.1523 29.541 65.625 29.541ZM16.0645-17.3828Q16.0645-8.00781 20.8252-3.27148Q25.5859 1.46484 35.0586 1.46484L38.8184 1.46484L38.8184-52.9297Q38.8184-61.377 41.9922-67.3096Q45.166-73.2422 51.1719-76.3916Q57.1777-79.541 65.625-79.541L117.383-79.541L117.383-81.0547Q117.383-90.332 112.598-95.0928Q107.812-99.8535 98.3398-99.8535L35.0586-99.8535Q25.5859-99.8535 20.8252-95.1172Q16.0645-90.3809 16.0645-81.0547ZM71.6193-37.8187Q67.9212-37.8612 65.2858-40.4542Q62.6503-43.0471 62.6503-46.8302Q62.6503-50.5283 65.2858-53.1425Q67.9212-55.7567 71.6193-55.7567Q74.0847-55.7567 76.1038-54.5453Q78.1229-53.3338 79.3556-51.3147Q80.5883-49.2956 80.5883-46.8302Q80.5883-44.3223 79.3556-42.2607Q78.1229-40.1991 76.1038-38.9877Q74.0847-37.7762 71.6193-37.8187ZM123.053-37.8187Q119.355-37.8612 116.698-40.4542Q114.041-43.0471 114.041-46.8302Q114.041-50.5283 116.698-53.1425Q119.355-55.7567 123.053-55.7567Q126.708-55.7567 129.344-53.1425Q131.979-50.5283 131.979-46.8302Q131.979-44.3223 130.768-42.2607Q129.556-40.1991 127.537-38.9877Q125.518-37.7762 123.053-37.8187ZM97.3361-12.0169Q93.5955-12.0169 91.0025-14.6736Q88.4096-17.3303 88.4096-21.071Q88.4096-24.7266 91.0025-27.3407Q93.5955-29.9549 97.3361-29.9549Q99.759-29.9549 101.799-28.7647Q103.84-27.5745 105.051-25.5554Q106.263-23.5364 106.263-21.071Q106.263-17.3303 103.627-14.6736Q100.992-12.0169 97.3361-12.0169ZM71.6193 13.6998Q67.9212 13.6998 65.307 11.0644Q62.6928 8.42894 62.6928 4.73083Q62.6928 0.990209 65.307-1.60272Q67.9212-4.19565 71.6193-4.19565Q74.0847-4.19565 76.1038-3.00545Q78.1229-1.81526 79.3344 0.225082Q80.5458 2.26542 80.5458 4.73083Q80.5458 8.42894 77.9104 11.0644Q75.2749 13.6998 71.6193 13.6998ZM123.053 13.6998Q119.355 13.6998 116.741 11.0644Q114.126 8.42894 114.126 4.73083Q114.126 0.990209 116.741-1.60272Q119.355-4.19565 123.053-4.19565Q125.518-4.19565 127.537-3.00545Q129.556-1.81526 130.768 0.225082Q131.979 2.26542 131.979 4.73083Q131.979 7.19624 130.768 9.23658Q129.556 11.2769 127.537 12.4884Q125.518 13.6998 123.053 13.6998Z"/>
  </g>
  <g id="Light-L" transform="matrix(1 0 0 1 1072.18 1556)">
   <path d="M64.5996 27.7832L127.93 27.7832Q136.768 27.7832 141.309 23.2422Q145.85 18.7012 145.85 9.91211L145.85-53.6133Q145.85-62.3535 141.309-66.9189Q136.768-71.4844 127.93-71.4844L64.5996-71.4844Q55.6641-71.4844 51.1475-66.9678Q46.6309-62.4512 46.6309-53.6133L46.6309 9.91211Q46.6309 18.75 51.1475 23.2666Q55.6641 27.7832 64.5996 27.7832ZM16.0645-16.6504Q16.0645-7.8125 20.5811-3.2959Q25.0977 1.2207 34.0332 1.2207L39.9414 1.2207L39.9414-53.6133Q39.9414-61.377 42.8467-66.8457Q45.752-72.3145 51.2939-75.2197Q56.8359-78.125 64.5996-78.125L115.332-78.125L115.332-80.2246Q115.332-88.9648 110.791-93.5303Q106.25-98.0957 97.3633-98.0957L34.0332-98.0957Q25.0977-98.0957 20.5811-93.5791Q16.0645-89.0625 16.0645-80.2246ZM70.2148-39.3066Q66.6504-39.3555 64.0869-41.8701Q61.5234-44.3848 61.5234-48.0469Q61.5234-51.6113 64.0869-54.126Q66.6504-56.6406 70.2148-56.6406Q72.5586-56.6406 74.5361-55.4688Q76.5137-54.2969 77.6855-52.3438Q78.8574-50.3906 78.8574-48.0469Q78.8574-45.6055 77.6855-43.6035Q76.5137-41.6016 74.5361-40.4297Q72.5586-39.2578 70.2148-39.3066ZM122.461-39.3066Q118.848-39.3555 116.309-41.8701Q113.77-44.3848 113.77-48.0469Q113.77-51.6113 116.309-54.126Q118.848-56.6406 122.461-56.6406Q125.977-56.6406 128.516-54.126Q131.055-51.6113 131.055-48.0469Q131.055-45.6055 129.883-43.6035Q128.711-41.6016 126.758-40.4297Q124.805-39.2578 122.461-39.3066ZM96.3379-13.0371Q92.7246-13.0371 90.21-15.625Q87.6953-18.2129 87.6953-21.8262Q87.6953-25.3418 90.21-27.8564Q92.7246-30.3711 96.3379-30.3711Q98.6816-30.3711 100.635-29.2236Q102.588-28.0762 103.784-26.123Q104.98-24.1699 104.98-21.8262Q104.98-18.2129 102.417-15.625Q99.8535-13.0371 96.3379-13.0371ZM70.2148 13.0371Q66.6504 13.0371 64.1113 10.5225Q61.5723 8.00781 61.5723 4.39453Q61.5723 0.830078 64.1113-1.70898Q66.6504-4.24805 70.2148-4.24805Q72.5586-4.24805 74.5117-3.07617Q76.4648-1.9043 77.6367 0.0488281Q78.8086 2.00195 78.8086 4.39453Q78.8086 8.00781 76.2695 10.5225Q73.7305 13.0371 70.2148 13.0371ZM122.461 13.0371Q118.848 13.0371 116.357 10.5225Q113.867 8.00781 113.867 4.39453Q113.867 0.830078 116.357-1.70898Q118.848-4.24805 122.461-4.24805Q124.805-4.24805 126.758-3.07617Q128.711-1.9043 129.883 0.0488281Q131.055 2.00195 131.055 4.39453Q131.055 6.73828 129.883 8.71582Q128.711 10.6934 126.758 11.8652Q124.805 13.0371 122.461 13.0371Z"/>
  </g>
  <g id="Thin-L" transform="matrix(1 0 0 1 776.784 1556)">
   <path d="M63.2324 25.4883L126.562 25.4883Q134.766 25.4883 138.989 21.2158Q143.213 16.9434 143.213 8.88672L143.213-54.4922Q143.213-62.5488 138.989-66.8213Q134.766-71.0938 126.562-71.0938L63.2324-71.0938Q55.0781-71.0938 50.8545-66.8701Q46.6309-62.6465 46.6309-54.4922L46.6309 8.88672Q46.6309 17.041 50.8545 21.2646Q55.0781 25.4883 63.2324 25.4883ZM16.0645-15.7227Q16.0645-7.56836 20.2881-3.34473Q24.5117 0.878906 32.666 0.878906L41.4062 0.878906L41.4062-54.4922Q41.4062-61.377 43.9941-66.2354Q46.582-71.0938 51.4648-73.7061Q56.3477-76.3184 63.2324-76.3184L112.646-76.3184L112.646-79.1504Q112.646-87.1582 108.423-91.4551Q104.199-95.752 95.9961-95.752L32.666-95.752Q24.5117-95.752 20.2881-91.5283Q16.0645-87.3047 16.0645-79.1504ZM68.2617-41.3086Q64.8926-41.3574 62.4512-43.7256Q60.0098-46.0938 60.0098-49.5605Q60.0098-52.9785 62.4512-55.3467Q64.8926-57.7148 68.2617-57.7148Q70.5078-57.7148 72.3633-56.6406Q74.2188-55.5664 75.3418-53.7109Q76.4648-51.8555 76.4648-49.5605Q76.4648-47.3145 75.3418-45.3857Q74.2188-43.457 72.3633-42.3584Q70.5078-41.2598 68.2617-41.3086ZM121.631-41.3086Q118.213-41.3574 115.771-43.7256Q113.33-46.0938 113.33-49.5605Q113.33-52.9785 115.771-55.3467Q118.213-57.7148 121.631-57.7148Q125-57.7148 127.393-55.3467Q129.785-52.9785 129.785-49.5605Q129.785-47.3145 128.662-45.3857Q127.539-43.457 125.684-42.3584Q123.828-41.2598 121.631-41.3086ZM94.9707-14.4531Q91.5527-14.4531 89.1357-16.8945Q86.7188-19.3359 86.7188-22.8027Q86.7188-26.123 89.1357-28.54Q91.5527-30.957 94.9707-30.957Q97.168-30.957 99.0479-29.834Q100.928-28.7109 102.051-26.8799Q103.174-25.0488 103.174-22.8027Q103.174-19.3359 100.757-16.8945Q98.3398-14.4531 94.9707-14.4531ZM68.2617 12.1582Q64.8926 12.1582 62.4512 9.76562Q60.0098 7.37305 60.0098 3.95508Q60.0098 0.537109 62.4512-1.87988Q64.8926-4.29688 68.2617-4.29688Q70.5078-4.29688 72.3633-3.17383Q74.2188-2.05078 75.3174-0.170898Q76.416 1.70898 76.416 3.95508Q76.416 7.37305 74.0234 9.76562Q71.6309 12.1582 68.2617 12.1582ZM121.631 12.1582Q118.213 12.1582 115.82 9.76562Q113.428 7.37305 113.428 3.95508Q113.428 0.537109 115.82-1.87988Q118.213-4.29688 121.631-4.29688Q123.828-4.29688 125.684-3.17383Q127.539-2.05078 128.662-0.170898Q129.785 1.70898 129.785 3.95508Q129.785 6.20117 128.662 8.08105Q127.539 9.96094 125.684 11.0596Q123.828 12.1582 121.631 12.1582Z"/>
  </g>
  <g id="Ultralight-L" transform="matrix(1 0 0 1 480.78 1556)">
   <path d="M62.5488 24.3164L125.928 24.3164Q133.691 24.3164 137.744 20.166Q141.797 16.0156 141.797 8.39844L141.797-54.9316Q141.797-62.5977 137.744-66.7236Q133.691-70.8496 125.928-70.8496L62.5488-70.8496Q54.7363-70.8496 50.6836-66.7969Q46.6309-62.7441 46.6309-54.9316L46.6309 8.39844Q46.6309 16.1621 50.6836 20.2393Q54.7363 24.3164 62.5488 24.3164ZM16.0645-15.2344Q16.0645-7.4707 20.1172-3.39355Q24.1699 0.683594 31.9824 0.683594L42.1875 0.683594L42.1875-54.9316Q42.1875-61.377 44.5801-65.918Q46.9727-70.459 51.5625-72.9004Q56.1523-75.3418 62.5488-75.3418L111.23-75.3418L111.23-78.6133Q111.23-86.2305 107.178-90.3809Q103.125-94.5312 95.3613-94.5312L31.9824-94.5312Q24.1699-94.5312 20.1172-90.4541Q16.0645-86.377 16.0645-78.6133ZM67.334-42.334Q64.0137-42.334 61.6455-44.6777Q59.2773-47.0215 59.2773-50.3906Q59.2773-53.7109 61.6455-56.0059Q64.0137-58.3008 67.334-58.3008Q69.5312-58.3008 71.3379-57.251Q73.1445-56.2012 74.2432-54.3945Q75.3418-52.5879 75.3418-50.3906Q75.3418-48.1445 74.2432-46.2891Q73.1445-44.4336 71.3379-43.3594Q69.5312-42.2852 67.334-42.334ZM121.24-42.334Q117.871-42.334 115.503-44.6777Q113.135-47.0215 113.135-50.3906Q113.135-53.7109 115.503-56.0059Q117.871-58.3008 121.24-58.3008Q124.463-58.3008 126.831-56.0059Q129.199-53.7109 129.199-50.3906Q129.199-48.1445 128.101-46.2891Q127.002-44.4336 125.195-43.3594Q123.389-42.2852 121.24-42.334ZM94.2871-15.0879Q90.9668-15.0879 88.5986-17.5049Q86.2305-19.9219 86.2305-23.291Q86.2305-26.5625 88.5986-28.9062Q90.9668-31.25 94.2871-31.25Q96.4355-31.25 98.2666-30.1514Q100.098-29.0527 101.221-27.2461Q102.344-25.4395 102.344-23.291Q102.344-19.9219 99.9512-17.5049Q97.5586-15.0879 94.2871-15.0879ZM67.334 11.7676Q64.0137 11.7676 61.6699 9.42383Q59.3262 7.08008 59.3262 3.71094Q59.3262 0.390625 61.6699-1.95312Q64.0137-4.29688 67.334-4.29688Q69.5312-4.29688 71.3135-3.19824Q73.0957-2.09961 74.1943-0.292969Q75.293 1.51367 75.293 3.71094Q75.293 7.08008 72.9492 9.42383Q70.6055 11.7676 67.334 11.7676ZM121.24 11.7676Q117.871 11.7676 115.552 9.42383Q113.232 7.08008 113.232 3.71094Q113.232 0.390625 115.552-1.95312Q117.871-4.29688 121.24-4.29688Q123.389-4.29688 125.195-3.19824Q127.002-2.09961 128.101-0.292969Q129.199 1.51367 129.199 3.71094Q129.199 5.95703 128.101 7.76367Q127.002 9.57031 125.195 10.6689Q123.389 11.7676 121.24 11.7676Z"/>
  </g>
  <g id="Black-M" transform="matrix(1 0 0 1 2862.55 1126)">
   <path d="M60.9863 22.6562L110.107 22.6562Q119.189 22.6562 124.219 17.6025Q129.248 12.5488 129.248 3.51562L129.248-45.6543Q129.248-54.6875 124.219-59.7412Q119.189-64.7949 110.107-64.7949L60.9863-64.7949Q51.9531-64.7949 46.8994-59.7412Q41.8457-54.6875 41.8457-45.6543L41.8457 3.51562Q41.8457 12.5488 46.8994 17.6025Q51.9531 22.6562 60.9863 22.6562ZM12.4512-22.4609Q12.4512-13.7207 17.3584-8.52051Q22.2656-3.32031 31.5918-3.32031L32.666-3.32031L32.666-45.6543Q32.666-54.248 36.1572-60.5957Q39.6484-66.9434 46.0205-70.459Q52.3926-73.9746 60.9863-73.9746L102.148-73.9746L102.148-74.0234Q102.148-82.959 97.0947-87.9883Q92.041-93.0176 83.0078-93.0176L31.5918-93.0176Q22.5586-93.0176 17.5049-87.9883Q12.4512-82.959 12.4512-73.877ZM67.9688-30.8594Q64.9414-30.9082 62.8174-33.0322Q60.6934-35.1562 60.6934-38.0859Q60.6934-41.0645 62.8174-43.1885Q64.9414-45.3125 67.9688-45.3125Q70.9473-45.3125 73.0469-43.1885Q75.1465-41.0645 75.1465-38.0859Q75.1465-35.1074 73.0225-32.959Q70.8984-30.8105 67.9688-30.8594ZM102.148-30.8594Q99.1211-30.9082 96.9971-33.0322Q94.873-35.1562 94.873-38.0859Q94.873-41.0645 96.9971-43.1885Q99.1211-45.3125 102.148-45.3125Q105.127-45.3125 107.251-43.1885Q109.375-41.0645 109.375-38.0859Q109.375-35.1074 107.227-32.959Q105.078-30.8105 102.148-30.8594ZM85.0586-13.7695Q82.0312-13.7695 79.9316-15.8691Q77.832-17.9688 77.832-21.0449Q77.832-23.9746 79.9561-26.0742Q82.0801-28.1738 85.0586-28.1738Q87.9883-28.1738 90.1123-26.0742Q92.2363-23.9746 92.2363-21.0449Q92.2363-18.0664 90.1367-15.918Q88.0371-13.7695 85.0586-13.7695ZM67.9199 3.4668Q64.9414 3.4668 62.8174 1.31836Q60.6934-0.830078 60.6934-3.90625Q60.6934-6.83594 62.8174-8.91113Q64.9414-10.9863 67.9199-10.9863Q70.8496-10.9863 72.9736-8.88672Q75.0977-6.78711 75.0977-3.90625Q75.0977-0.878906 72.9736 1.29395Q70.8496 3.4668 67.9199 3.4668ZM102.148 3.4668Q99.1699 3.4668 97.0947 1.29395Q95.0195-0.878906 95.0195-3.90625Q95.0195-6.83594 97.0947-8.91113Q99.1699-10.9863 102.148-10.9863Q105.078-10.9863 107.227-8.91113Q109.375-6.83594 109.375-3.90625Q109.375-0.878906 107.251 1.29395Q105.127 3.4668 102.148 3.4668Z"/>
  </g>
  <g id="Heavy-M" transform="matrix(1 0 0 1 2567.43 1126)">
   <path d="M58.7402 21.0938L107.861 21.0938Q116.553 21.0938 121.313 16.333Q126.074 11.5723 126.074 2.88086L126.074-46.3379Q126.074-55.0293 121.313-59.79Q116.553-64.5508 107.861-64.5508L58.7402-64.5508Q50.0488-64.5508 45.2637-59.79Q40.4785-55.0293 40.4785-46.3379L40.4785 2.88086Q40.4785 11.5723 45.2637 16.333Q50.0488 21.0938 58.7402 21.0938ZM12.4512-22.3145Q12.4512-13.8184 17.1143-8.95996Q21.7773-4.10156 30.7129-4.10156L31.8848-4.10156L31.8848-46.3379Q31.8848-54.541 35.1807-60.5469Q38.4766-66.5527 44.5068-69.8486Q50.5371-73.1445 58.7402-73.1445L99.7559-73.1445L99.7559-73.3398Q99.7559-81.9336 94.9951-86.6943Q90.2344-91.4551 81.543-91.4551L30.7129-91.4551Q21.9727-91.4551 17.2119-86.7188Q12.4512-81.9824 12.4512-73.2422ZM65.2344-32.2266Q62.2559-32.2266 60.1318-34.3262Q58.0078-36.4258 58.0078-39.4531Q58.0078-42.3828 60.1318-44.5068Q62.2559-46.6309 65.2344-46.6309Q68.2129-46.6309 70.3125-44.5068Q72.4121-42.3828 72.4121-39.4531Q72.4121-36.4258 70.3125-34.2773Q68.2129-32.1289 65.2344-32.2266ZM100.684-32.2266Q97.6562-32.2266 95.5322-34.3262Q93.4082-36.4258 93.4082-39.4531Q93.4082-42.3828 95.5322-44.5068Q97.6562-46.6309 100.684-46.6309Q103.613-46.6309 105.737-44.5068Q107.861-42.3828 107.861-39.4531Q107.861-36.4258 105.713-34.2773Q103.564-32.1289 100.684-32.2266ZM82.959-14.4531Q79.9316-14.4531 77.832-16.5527Q75.7324-18.6523 75.7324-21.7285Q75.7324-24.6582 77.8564-26.7578Q79.9805-28.8574 82.959-28.8574Q85.8887-28.8574 87.9883-26.7578Q90.0879-24.6582 90.0879-21.7285Q90.0879-18.75 87.9883-16.6016Q85.8887-14.4531 82.959-14.4531ZM65.1855 3.32031Q62.207 3.32031 60.1074 1.19629Q58.0078-0.927734 58.0078-3.95508Q58.0078-6.88477 60.1074-8.95996Q62.207-11.0352 65.1855-11.0352Q68.1152-11.0352 70.2393-8.95996Q72.3633-6.88477 72.3633-3.95508Q72.3633-0.976562 70.2637 1.17188Q68.1641 3.32031 65.1855 3.32031ZM100.684 3.32031Q97.7051 3.32031 95.6055 1.17188Q93.5059-0.976562 93.5059-3.95508Q93.5059-6.88477 95.6055-8.95996Q97.7051-11.0352 100.684-11.0352Q103.564-11.0352 105.713-8.95996Q107.861-6.88477 107.861-3.95508Q107.861-0.976562 105.737 1.17188Q103.613 3.32031 100.684 3.32031Z"/>
  </g>
  <g id="Bold-M" transform="matrix(1 0 0 1 2272.5 1126)">
   <path d="M56.25 19.3359L105.322 19.3359Q113.672 19.3359 118.091 14.8926Q122.51 10.4492 122.51 2.19727L122.51-47.1191Q122.51-55.4199 118.091-59.8389Q113.672-64.2578 105.322-64.2578L56.25-64.2578Q47.9004-64.2578 43.457-59.8389Q39.0137-55.4199 39.0137-47.1191L39.0137 2.19727Q39.0137 10.498 43.457 14.917Q47.9004 19.3359 56.25 19.3359ZM12.4512-22.1191Q12.4512-13.9648 16.8213-9.47266Q21.1914-4.98047 29.6875-4.98047L31.0547-4.98047L31.0547-47.1191Q31.0547-54.8828 34.1064-60.498Q37.1582-66.1133 42.8223-69.1406Q48.4863-72.168 56.25-72.168L97.1191-72.168L97.1191-72.6074Q97.1191-80.8594 92.6758-85.2783Q88.2324-89.6973 79.9316-89.6973L29.6875-89.6973Q21.3379-89.6973 16.8945-85.2783Q12.4512-80.8594 12.4512-72.5586ZM62.1094-33.6426Q59.1309-33.6914 57.0068-35.791Q54.8828-37.8906 54.8828-40.8203Q54.8828-43.7988 57.0068-45.8984Q59.1309-47.998 62.1094-47.998Q65.0879-47.998 67.1875-45.8984Q69.2871-43.7988 69.2871-40.8203Q69.2871-37.8418 67.1631-35.7178Q65.0391-33.5938 62.1094-33.6426ZM98.9258-33.6426Q95.8984-33.6914 93.7988-35.791Q91.6992-37.8906 91.6992-40.8203Q91.6992-43.7988 93.7988-45.8984Q95.8984-47.998 98.9258-47.998Q101.855-47.998 103.979-45.8984Q106.104-43.7988 106.104-40.8203Q106.104-37.8418 103.955-35.7178Q101.807-33.5938 98.9258-33.6426ZM80.5176-15.2344Q77.4902-15.2344 75.415-17.334Q73.3398-19.4336 73.3398-22.4609Q73.3398-25.3906 75.4395-27.4658Q77.5391-29.541 80.5176-29.541Q83.4473-29.541 85.5713-27.4658Q87.6953-25.3906 87.6953-22.4609Q87.6953-19.4824 85.5713-17.3584Q83.4473-15.2344 80.5176-15.2344ZM62.0605 3.22266Q59.1309 3.22266 57.0312 1.12305Q54.9316-0.976562 54.9316-4.00391Q54.9316-6.93359 57.0312-9.00879Q59.1309-11.084 62.0605-11.084Q65.0391-11.084 67.1387-9.00879Q69.2383-6.93359 69.2383-4.00391Q69.2383-1.02539 67.1387 1.09863Q65.0391 3.22266 62.0605 3.22266ZM98.9258 3.22266Q95.9473 3.22266 93.8721 1.09863Q91.7969-1.02539 91.7969-4.00391Q91.7969-6.93359 93.8721-9.00879Q95.9473-11.084 98.9258-11.084Q101.807-11.084 103.955-9.00879Q106.104-6.93359 106.104-4.00391Q106.104-1.02539 103.979 1.09863Q101.855 3.22266 98.9258 3.22266Z"/>
  </g>
  <g id="Semibold-M" transform="matrix(1 0 0 1 1977.01 1126)">
   <path d="M54.4922 18.1152L103.564 18.1152Q111.621 18.1152 115.845 13.8916Q120.068 9.66797 120.068 1.66016L120.068-47.6562Q120.068-55.6641 115.845-59.8633Q111.621-64.0625 103.564-64.0625L54.4922-64.0625Q46.3867-64.0625 42.1631-59.8633Q37.9395-55.6641 37.9395-47.6562L37.9395 1.66016Q37.9395 9.7168 42.1631 13.916Q46.3867 18.1152 54.4922 18.1152ZM12.4512-21.9727Q12.4512-14.0625 16.626-9.81445Q20.8008-5.56641 29.0039-5.56641L30.4688-5.56641L30.4688-47.6562Q30.4688-55.0781 33.3496-60.4248Q36.2305-65.7715 41.626-68.6523Q47.0215-71.5332 54.4922-71.5332L95.3125-71.5332L95.3125-72.0703Q95.3125-80.0781 91.0889-84.2773Q86.8652-88.4766 78.7598-88.4766L29.0039-88.4766Q20.8984-88.4766 16.6748-84.2773Q12.4512-80.0781 12.4512-72.0215ZM60.0586-34.668Q57.0801-34.7168 54.9561-36.792Q52.832-38.8672 52.832-41.8457Q52.832-44.8242 54.9561-46.8994Q57.0801-48.9746 60.0586-48.9746Q62.9883-48.9746 65.0879-46.875Q67.1875-44.7754 67.1875-41.8457Q67.1875-38.8184 65.0879-36.7188Q62.9883-34.6191 60.0586-34.668ZM97.8027-34.668Q94.8242-34.7168 92.7002-36.792Q90.5762-38.8672 90.5762-41.8457Q90.5762-44.8242 92.7002-46.8994Q94.8242-48.9746 97.8027-48.9746Q100.732-48.9746 102.832-46.8994Q104.932-44.8242 104.932-41.8457Q104.932-38.8184 102.808-36.7188Q100.684-34.6191 97.8027-34.668ZM78.9062-15.7715Q75.8789-15.7715 73.8281-17.8711Q71.7773-19.9707 71.7773-22.998Q71.7773-25.9277 73.8525-28.0029Q75.9277-30.0781 78.9062-30.0781Q81.7871-30.0781 83.8867-28.0029Q85.9863-25.9277 85.9863-22.998Q85.9863-20.0195 83.8867-17.8955Q81.7871-15.7715 78.9062-15.7715ZM60.0098 3.17383Q57.0801 3.17383 54.9561 1.07422Q52.832-1.02539 52.832-4.05273Q52.832-6.98242 54.9561-9.08203Q57.0801-11.1816 60.0098-11.1816Q62.9395-11.1816 65.0391-9.05762Q67.1387-6.93359 67.1387-4.05273Q67.1387-1.02539 65.0635 1.07422Q62.9883 3.17383 60.0098 3.17383ZM97.8027 3.17383Q94.8242 3.17383 92.749 1.07422Q90.6738-1.02539 90.6738-4.05273Q90.6738-6.98242 92.749-9.08203Q94.8242-11.1816 97.8027-11.1816Q100.684-11.1816 102.808-9.08203Q104.932-6.98242 104.932-4.05273Q104.932-1.02539 102.832 1.07422Q100.732 3.17383 97.8027 3.17383Z"/>
  </g>
  <g id="Medium-M" transform="matrix(1 0 0 1 1681.22 1126)">
   <path d="M53.1738 17.1875L102.197 17.1875Q110.107 17.1875 114.16 13.1348Q118.213 9.08203 118.213 1.31836L118.213-48.0469Q118.213-55.8594 114.16-59.8877Q110.107-63.916 102.197-63.916L53.1738-63.916Q45.2637-63.916 41.2109-59.9121Q37.1582-55.9082 37.1582-48.0469L37.1582 1.31836Q37.1582 9.13086 41.2109 13.1592Q45.2637 17.1875 53.1738 17.1875ZM12.4512-21.9238Q12.4512-14.1113 16.4795-10.083Q20.5078-6.05469 28.4668-6.05469L30.0293-6.05469L30.0293-48.0469Q30.0293-55.2734 32.7881-60.4004Q35.5469-65.5273 40.7471-68.2617Q45.9473-70.9961 53.1738-70.9961L93.8965-70.9961L93.8965-71.6797Q93.8965-79.4922 89.8438-83.5205Q85.791-87.5488 77.9297-87.5488L28.4668-87.5488Q20.5566-87.5488 16.5039-83.5205Q12.4512-79.4922 12.4512-71.6797ZM58.3984-35.4492Q55.4688-35.498 53.3447-37.5488Q51.2207-39.5996 51.2207-42.627Q51.2207-45.5566 53.3447-47.6318Q55.4688-49.707 58.3984-49.707Q61.3281-49.707 63.4277-47.6318Q65.5273-45.5566 65.5273-42.627Q65.5273-39.5996 63.4277-37.4756Q61.3281-35.3516 58.3984-35.4492ZM96.875-35.4492Q93.8965-35.498 91.7969-37.5488Q89.6973-39.5996 89.6973-42.627Q89.6973-45.5566 91.7969-47.6318Q93.8965-49.707 96.875-49.707Q99.7559-49.707 101.88-47.6318Q104.004-45.5566 104.004-42.627Q104.004-39.5996 101.88-37.4756Q99.7559-35.3516 96.875-35.4492ZM77.6367-16.1621Q74.6582-16.1621 72.583-18.2861Q70.5078-20.4102 70.5078-23.3887Q70.5078-26.3184 72.583-28.3691Q74.6582-30.4199 77.6367-30.4199Q80.5176-30.4199 82.6172-28.3691Q84.7168-26.3184 84.7168-23.3887Q84.7168-20.4102 82.6172-18.2861Q80.5176-16.1621 77.6367-16.1621ZM58.3984 3.125Q55.4688 3.125 53.3691 1.02539Q51.2695-1.07422 51.2695-4.05273Q51.2695-6.98242 53.3691-9.08203Q55.4688-11.1816 58.3984-11.1816Q61.3281-11.1816 63.4277-9.08203Q65.5273-6.98242 65.5273-4.05273Q65.5273-1.07422 63.4277 1.02539Q61.3281 3.125 58.3984 3.125ZM96.875 3.125Q93.8965 3.125 91.8457 1.02539Q89.7949-1.07422 89.7949-4.05273Q89.7949-6.98242 91.8457-9.08203Q93.8965-11.1816 96.875-11.1816Q99.7559-11.1816 101.88-9.08203Q104.004-6.98242 104.004-4.05273Q104.004-1.07422 101.88 1.02539Q99.7559 3.125 96.875 3.125Z"/>
  </g>
  <g id="Regular-M" transform="matrix(1 0 0 1 1385.73 1126)">
   <path d="M51.4648 15.9668L100.488 15.9668Q108.105 15.9668 111.938 12.1582Q115.771 8.34961 115.771 0.830078L115.771-48.584Q115.771-56.1035 111.938-59.9121Q108.105-63.7207 100.488-63.7207L51.4648-63.7207Q43.7988-63.7207 39.9658-59.9365Q36.1328-56.1523 36.1328-48.584L36.1328 0.830078Q36.1328 8.39844 39.9658 12.1826Q43.7988 15.9668 51.4648 15.9668ZM12.4512-21.7773Q12.4512-14.209 16.2842-10.4248Q20.1172-6.64062 27.7832-6.64062L29.4434-6.64062L29.4434-48.584Q29.4434-55.4688 32.0557-60.3516Q34.668-65.2344 39.5996-67.7979Q44.5312-70.3613 51.4648-70.3613L92.0898-70.3613L92.0898-71.1914Q92.0898-78.7109 88.2568-82.5195Q84.4238-86.3281 76.8066-86.3281L27.7832-86.3281Q20.1172-86.3281 16.2842-82.5439Q12.4512-78.7598 12.4512-71.1914ZM56.321-36.3937Q53.388-36.4362 51.2839-38.4978Q49.1798-40.5594 49.1798-43.5774Q49.1798-46.5104 51.2839-48.572Q53.388-50.6336 56.321-50.6336Q59.254-50.6336 61.3368-48.572Q63.4197-46.5104 63.4197-43.5774Q63.4197-40.5594 61.3368-38.4553Q59.254-36.3512 56.321-36.3937ZM95.725-36.3937Q92.7495-36.4362 90.6454-38.4978Q88.5413-40.5594 88.5413-43.5774Q88.5413-46.5104 90.6454-48.572Q92.7495-50.6336 95.725-50.6336Q98.6155-50.6336 100.72-48.572Q102.824-46.5104 102.824-43.5774Q102.824-40.5594 100.72-38.4553Q98.6155-36.3512 95.725-36.3937ZM76.0018-16.6705Q73.0263-16.6705 70.9647-18.7746Q68.9031-20.8787 68.9031-23.8542Q68.9031-26.7871 70.9647-28.8487Q73.0263-30.9103 76.0018-30.9103Q78.8922-30.9103 80.9963-28.8487Q83.1004-26.7871 83.1004-23.8542Q83.1004-20.8787 80.9963-18.7746Q78.8922-16.6705 76.0018-16.6705ZM56.321 3.05281Q53.388 3.05281 51.3052 0.969964Q49.2223-1.11288 49.2223-4.08837Q49.2223-7.02136 51.3052-9.10421Q53.388-11.1871 56.321-11.1871Q59.254-11.1871 61.3368-9.10421Q63.4197-7.02136 63.4197-4.08837Q63.4197-1.11288 61.3368 0.969964Q59.254 3.05281 56.321 3.05281ZM95.725 3.05281Q92.7495 3.05281 90.688 0.969964Q88.6264-1.11288 88.6264-4.08837Q88.6264-7.02136 90.688-9.10421Q92.7495-11.1871 95.725-11.1871Q98.6155-11.1871 100.72-9.10421Q102.824-7.02136 102.824-4.08837Q102.824-1.11288 100.72 0.969964Q98.6155 3.05281 95.725 3.05281Z"/>
  </g>
  <g id="Light-M" transform="matrix(1 0 0 1 1089.93 1126)">
   <path d="M50.5371 14.4043L99.6094 14.4043Q106.689 14.4043 110.327 10.791Q113.965 7.17773 113.965 0.146484L113.965-49.1699Q113.965-56.2012 110.327-59.8145Q106.689-63.4277 99.6094-63.4277L50.5371-63.4277Q43.3594-63.4277 39.7461-59.8389Q36.1328-56.25 36.1328-49.1699L36.1328 0.146484Q36.1328 7.22656 39.7461 10.8154Q43.3594 14.4043 50.5371 14.4043ZM12.4512-21.1426Q12.4512-14.0625 16.0645-10.4736Q19.6777-6.88477 26.8555-6.88477L30.4199-6.88477L30.4199-49.1699Q30.4199-55.4688 32.8125-59.9365Q35.2051-64.4043 39.6973-66.748Q44.1895-69.0918 50.5371-69.0918L90.2832-69.0918L90.2832-70.459Q90.2832-77.4902 86.6455-81.1035Q83.0078-84.7168 75.8789-84.7168L26.8555-84.7168Q19.6777-84.7168 16.0645-81.1279Q12.4512-77.5391 12.4512-70.459ZM55.0781-37.6953Q52.2461-37.7441 50.2441-39.7217Q48.2422-41.6992 48.2422-44.5801Q48.2422-47.4609 50.2441-49.4385Q52.2461-51.416 55.0781-51.416Q57.8613-51.416 59.8877-49.4385Q61.9141-47.4609 61.9141-44.5801Q61.9141-41.6992 59.8877-39.6729Q57.8613-37.6465 55.0781-37.6953ZM95.166-37.6953Q92.334-37.7441 90.3076-39.7217Q88.2812-41.6992 88.2812-44.5801Q88.2812-47.4609 90.3076-49.4385Q92.334-51.416 95.166-51.416Q97.9492-51.416 99.9756-49.4385Q102.002-47.4609 102.002-44.5801Q102.002-41.6992 99.9756-39.6729Q97.9492-37.6465 95.166-37.6953ZM75.1465-17.5781Q72.2656-17.5781 70.2637-19.6045Q68.2617-21.6309 68.2617-24.5117Q68.2617-27.2949 70.2637-29.2725Q72.2656-31.25 75.1465-31.25Q77.8809-31.25 79.9072-29.2725Q81.9336-27.2949 81.9336-24.5117Q81.9336-21.6309 79.9072-19.6045Q77.8809-17.5781 75.1465-17.5781ZM55.0781 2.49023Q52.2461 2.49023 50.2441 0.488281Q48.2422-1.51367 48.2422-4.39453Q48.2422-7.17773 50.2441-9.17969Q52.2461-11.1816 55.0781-11.1816Q57.8613-11.1816 59.8633-9.17969Q61.8652-7.17773 61.8652-4.39453Q61.8652-1.51367 59.8633 0.488281Q57.8613 2.49023 55.0781 2.49023ZM95.166 2.49023Q92.334 2.49023 90.3564 0.488281Q88.3789-1.51367 88.3789-4.39453Q88.3789-7.17773 90.3564-9.17969Q92.334-11.1816 95.166-11.1816Q97.9492-11.1816 99.9756-9.17969Q102.002-7.17773 102.002-4.39453Q102.002-1.51367 99.9756 0.488281Q97.9492 2.49023 95.166 2.49023Z"/>
  </g>
  <g id="Thin-M" transform="matrix(1 0 0 1 794.411 1126)">
   <path d="M49.3164 12.3535L98.4375 12.3535Q104.883 12.3535 108.228 8.95996Q111.572 5.56641 111.572-0.78125L111.572-49.9512Q111.572-56.3477 108.228-59.7168Q104.883-63.0859 98.4375-63.0859L49.3164-63.0859Q42.8223-63.0859 39.4775-59.7656Q36.1328-56.4453 36.1328-49.9512L36.1328-0.78125Q36.1328 5.66406 39.4775 9.00879Q42.8223 12.3535 49.3164 12.3535ZM12.4512-20.3125Q12.4512-13.8672 15.7959-10.5469Q19.1406-7.22656 25.5859-7.22656L31.7871-7.22656L31.7871-49.9512Q31.7871-55.4688 33.8623-59.375Q35.9375-63.2812 39.8682-65.3564Q43.7988-67.4316 49.3164-67.4316L87.8906-67.4316L87.8906-69.4824Q87.8906-75.8789 84.5459-79.248Q81.2012-82.6172 74.707-82.6172L25.5859-82.6172Q19.1406-82.6172 15.7959-79.2725Q12.4512-75.9277 12.4512-69.4824ZM53.3203-39.502Q50.6348-39.502 48.7549-41.4062Q46.875-43.3105 46.875-46.0449Q46.875-48.6816 48.7549-50.5371Q50.6348-52.3926 53.3203-52.3926Q55.957-52.3926 57.8857-50.5371Q59.8145-48.6816 59.8145-46.0449Q59.8145-43.3105 57.8857-41.3818Q55.957-39.4531 53.3203-39.502ZM94.4336-39.502Q91.748-39.502 89.8193-41.4062Q87.8906-43.3105 87.8906-46.0449Q87.8906-48.6816 89.8193-50.5371Q91.748-52.3926 94.4336-52.3926Q97.0703-52.3926 98.9502-50.5371Q100.83-48.6816 100.83-46.0449Q100.83-43.3105 98.9502-41.3818Q97.0703-39.4531 94.4336-39.502ZM73.877-18.7988Q71.1914-18.7988 69.2871-20.7275Q67.3828-22.6562 67.3828-25.3906Q67.3828-28.0273 69.2871-29.9072Q71.1914-31.7871 73.877-31.7871Q76.5137-31.7871 78.4424-29.9072Q80.3711-28.0273 80.3711-25.3906Q80.3711-22.6562 78.4424-20.7275Q76.5137-18.7988 73.877-18.7988ZM53.3203 1.70898Q50.6348 1.70898 48.7549-0.170898Q46.875-2.05078 46.875-4.78516Q46.875-7.42188 48.7549-9.32617Q50.6348-11.2305 53.3203-11.2305Q55.957-11.2305 57.8613-9.32617Q59.7656-7.42188 59.7656-4.78516Q59.7656-2.05078 57.8613-0.170898Q55.957 1.70898 53.3203 1.70898ZM94.4336 1.70898Q91.748 1.70898 89.8682-0.170898Q87.9883-2.05078 87.9883-4.78516Q87.9883-7.42188 89.8682-9.32617Q91.748-11.2305 94.4336-11.2305Q97.0703-11.2305 98.9502-9.32617Q100.83-7.42188 100.83-4.78516Q100.83-2.05078 98.9502-0.170898Q97.0703 1.70898 94.4336 1.70898Z"/>
  </g>
  <g id="Ultralight-M" transform="matrix(1 0 0 1 498.334 1126)">
   <path d="M48.6816 11.2793L97.8027 11.2793Q103.906 11.2793 107.104 8.03223Q110.303 4.78516 110.303-1.26953L110.303-50.3418Q110.303-56.4453 107.104-59.668Q103.906-62.8906 97.8027-62.8906L48.6816-62.8906Q42.5293-62.8906 39.3311-59.6924Q36.1328-56.4941 36.1328-50.3418L36.1328-1.26953Q36.1328 4.83398 39.3311 8.05664Q42.5293 11.2793 48.6816 11.2793ZM12.4512-19.9219Q12.4512-13.7695 15.6494-10.5713Q18.8477-7.37305 24.9512-7.37305L32.4219-7.37305L32.4219-50.3418Q32.4219-55.4688 34.3506-59.1064Q36.2793-62.7441 39.917-64.6729Q43.5547-66.6016 48.6816-66.6016L86.6211-66.6016L86.6211-68.9941Q86.6211-75.0488 83.4229-78.2959Q80.2246-81.543 74.0723-81.543L24.9512-81.543Q18.8477-81.543 15.6494-78.3447Q12.4512-75.1465 12.4512-68.9941ZM52.4414-40.3809Q49.9023-40.4297 48.0469-42.2607Q46.1914-44.0918 46.1914-46.7285Q46.1914-49.3164 48.0469-51.123Q49.9023-52.9297 52.4414-52.9297Q55.0293-52.9297 56.9092-51.123Q58.7891-49.3164 58.7891-46.7285Q58.7891-44.0918 56.9092-42.2119Q55.0293-40.332 52.4414-40.3809ZM94.0918-40.3809Q91.4551-40.4297 89.5996-42.2607Q87.7441-44.0918 87.7441-46.7285Q87.7441-49.3164 89.5996-51.123Q91.4551-52.9297 94.0918-52.9297Q96.6309-52.9297 98.4619-51.123Q100.293-49.3164 100.293-46.7285Q100.293-44.0918 98.4619-42.2119Q96.6309-40.332 94.0918-40.3809ZM73.291-19.4336Q70.7031-19.4336 68.8477-21.3135Q66.9922-23.1934 66.9922-25.8301Q66.9922-28.418 68.8477-30.2246Q70.7031-32.0312 73.291-32.0312Q75.8301-32.0312 77.71-30.2246Q79.5898-28.418 79.5898-25.8301Q79.5898-23.1934 77.71-21.3135Q75.8301-19.4336 73.291-19.4336ZM52.4414 1.36719Q49.9023 1.36719 48.0469-0.488281Q46.1914-2.34375 46.1914-4.98047Q46.1914-7.56836 48.0469-9.39941Q49.9023-11.2305 52.4414-11.2305Q55.0293-11.2305 56.8604-9.39941Q58.6914-7.56836 58.6914-4.98047Q58.6914-2.34375 56.8604-0.488281Q55.0293 1.36719 52.4414 1.36719ZM94.0918 1.36719Q91.4551 1.36719 89.6484-0.488281Q87.8418-2.34375 87.8418-4.98047Q87.8418-7.56836 89.6484-9.39941Q91.4551-11.2305 94.0918-11.2305Q96.6309-11.2305 98.4619-9.39941Q100.293-7.56836 100.293-4.98047Q100.293-2.34375 98.4619-0.488281Q96.6309 1.36719 94.0918 1.36719Z"/>
  </g>
  <g id="Black-S" transform="matrix(1 0 0 1 2877.44 696)">
   <path d="M48.4375 10.498L86.9141 10.498Q94.0918 10.498 98.1201 6.46973Q102.148 2.44141 102.148-4.73633L102.148-43.2129Q102.148-50.3906 98.1201-54.4189Q94.0918-58.4473 86.9141-58.4473L48.4375-58.4473Q41.2598-58.4473 37.2314-54.4189Q33.2031-50.3906 33.2031-43.2129L33.2031-4.73633Q33.2031 2.44141 37.2314 6.46973Q41.2598 10.498 48.4375 10.498ZM9.76562-25.2441Q9.76562-18.3105 13.6963-14.1602Q17.627-10.0098 25-10.0098L25.8789-10.0098L25.8789-43.2129Q25.8789-50.0488 28.6865-55.1025Q31.4941-60.1562 36.5723-62.9639Q41.6504-65.7715 48.4375-65.7715L80.6641-65.7715L80.6641-65.7715Q80.6641-72.9004 76.6357-76.9043Q72.6074-80.9082 65.4297-80.9082L25-80.9082Q17.8223-80.9082 13.7939-76.8799Q9.76562-72.8516 9.76562-65.6738ZM54.0527-31.4941Q51.6602-31.543 50-33.1787Q48.3398-34.8145 48.3398-37.1582Q48.3398-39.502 50-41.1621Q51.6602-42.8223 54.0527-42.8223Q56.3477-42.8223 58.0078-41.1377Q59.668-39.4531 59.668-37.1582Q59.668-34.8145 57.9834-33.1543Q56.2988-31.4941 54.0527-31.4941ZM80.5176-31.4941Q78.1738-31.543 76.4893-33.1787Q74.8047-34.8145 74.8047-37.1582Q74.8047-39.502 76.4893-41.1621Q78.1738-42.8223 80.5176-42.8223Q82.8125-42.8223 84.4727-41.1621Q86.1328-39.502 86.1328-37.1582Q86.1328-34.8145 84.4727-33.1543Q82.8125-31.4941 80.5176-31.4941ZM67.2852-18.2617Q64.8926-18.2617 63.2568-19.9219Q61.6211-21.582 61.6211-23.9746Q61.6211-26.2695 63.2812-27.9053Q64.9414-29.541 67.2852-29.541Q69.5312-29.541 71.2158-27.9053Q72.9004-26.2695 72.9004-23.9746Q72.9004-21.6309 71.2646-19.9463Q69.6289-18.2617 67.2852-18.2617ZM53.9551-4.93164Q51.6602-4.93164 50-6.61621Q48.3398-8.30078 48.3398-10.6934Q48.3398-12.9883 50-14.624Q51.6602-16.2598 53.9551-16.2598Q56.25-16.2598 57.9102-14.5996Q59.5703-12.9395 59.5703-10.6934Q59.5703-8.34961 57.9346-6.64062Q56.2988-4.93164 53.9551-4.93164ZM80.5176-4.93164Q78.1738-4.93164 76.5381-6.64062Q74.9023-8.34961 74.9023-10.6934Q74.9023-12.9883 76.5381-14.624Q78.1738-16.2598 80.5176-16.2598Q82.8125-16.2598 84.4727-14.624Q86.1328-12.9883 86.1328-10.6934Q86.1328-8.34961 84.4727-6.64062Q82.8125-4.93164 80.5176-4.93164Z"/>
  </g>
  <g id="Heavy-S" transform="matrix(1 0 0 1 2581.98 696)">
   <path d="M46.6309 9.32617L85.0586 9.32617Q92.041 9.32617 95.8496 5.54199Q99.6582 1.75781 99.6582-5.17578L99.6582-43.75Q99.6582-50.6836 95.8496-54.4678Q92.041-58.252 85.0586-58.252L46.6309-58.252Q39.6484-58.252 35.8398-54.4678Q32.0312-50.6836 32.0312-43.75L32.0312-5.17578Q32.0312 1.75781 35.8398 5.54199Q39.6484 9.32617 46.6309 9.32617ZM9.76562-25.1953Q9.76562-18.457 13.501-14.5508Q17.2363-10.6445 24.3652-10.6445L25.0977-10.6445L25.0977-43.75Q25.0977-50.293 27.7588-55.1025Q30.4199-59.9121 35.2539-62.5488Q40.0879-65.1855 46.6309-65.1855L78.8574-65.1855L78.8574-65.2832Q78.8574-72.2168 75.0488-75.9766Q71.2402-79.7363 64.3066-79.7363L24.3652-79.7363Q17.3828-79.7363 13.5742-75.9521Q9.76562-72.168 9.76562-65.2344ZM51.9043-32.4707Q49.5117-32.5195 47.8271-34.1553Q46.1426-35.791 46.1426-38.1348Q46.1426-40.4785 47.8271-42.1387Q49.5117-43.7988 51.9043-43.7988Q54.1992-43.7988 55.8594-42.1387Q57.5195-40.4785 57.5195-38.1348Q57.5195-35.791 55.835-34.1064Q54.1504-32.4219 51.9043-32.4707ZM79.2969-32.4707Q76.9531-32.5195 75.2686-34.1553Q73.584-35.791 73.584-38.1348Q73.584-40.4785 75.2686-42.1387Q76.9531-43.7988 79.2969-43.7988Q81.5918-43.7988 83.2764-42.1387Q84.9609-40.4785 84.9609-38.1348Q84.9609-35.791 83.2764-34.1064Q81.5918-32.4219 79.2969-32.4707ZM65.5762-18.75Q63.2324-18.75 61.5723-20.4102Q59.9121-22.0703 59.9121-24.4629Q59.9121-26.7578 61.5723-28.3936Q63.2324-30.0293 65.5762-30.0293Q67.8223-30.0293 69.5068-28.3936Q71.1914-26.7578 71.1914-24.4629Q71.1914-22.1191 69.5557-20.4346Q67.9199-18.75 65.5762-18.75ZM51.8066-4.98047Q49.4629-4.98047 47.8027-6.66504Q46.1426-8.34961 46.1426-10.6934Q46.1426-12.9883 47.8027-14.624Q49.4629-16.2598 51.8066-16.2598Q54.1016-16.2598 55.7861-14.5996Q57.4707-12.9395 57.4707-10.6934Q57.4707-8.34961 55.8105-6.66504Q54.1504-4.98047 51.8066-4.98047ZM79.2969-4.98047Q76.9531-4.98047 75.3174-6.66504Q73.6816-8.34961 73.6816-10.6934Q73.6816-12.9883 75.3174-14.624Q76.9531-16.2598 79.2969-16.2598Q81.5918-16.2598 83.2764-14.624Q84.9609-12.9883 84.9609-10.6934Q84.9609-8.34961 83.2764-6.66504Q81.5918-4.98047 79.2969-4.98047Z"/>
  </g>
  <g id="Bold-S" transform="matrix(1 0 0 1 2286.66 696)">
   <path d="M44.6289 8.05664L83.0566 8.05664Q89.7461 8.05664 93.3105 4.5166Q96.875 0.976562 96.875-5.71289L96.875-44.3359Q96.875-50.9766 93.3105-54.5166Q89.7461-58.0566 83.0566-58.0566L44.6289-58.0566Q37.8906-58.0566 34.3262-54.5166Q30.7617-50.9766 30.7617-44.3359L30.7617-5.71289Q30.7617 0.976562 34.3262 4.5166Q37.8906 8.05664 44.6289 8.05664ZM9.76562-25.1465Q9.76562-18.6035 13.2812-14.9902Q16.7969-11.377 23.6328-11.377L24.2676-11.377L24.2676-44.3359Q24.2676-50.5859 26.7334-55.127Q29.1992-59.668 33.7891-62.1338Q38.3789-64.5996 44.6289-64.5996L76.8555-64.5996L76.8555-64.7949Q76.8555-71.4355 73.291-74.9512Q69.7266-78.4668 63.0371-78.4668L23.6328-78.4668Q16.8945-78.4668 13.3301-74.9268Q9.76562-71.3867 9.76562-64.7461ZM49.4141-33.5449Q47.0703-33.5449 45.3857-35.1807Q43.7012-36.8164 43.7012-39.209Q43.7012-41.5527 45.3857-43.2129Q47.0703-44.873 49.4141-44.873Q51.709-44.873 53.3936-43.2129Q55.0781-41.5527 55.0781-39.209Q55.0781-36.8164 53.3936-35.1562Q51.709-33.4961 49.4141-33.5449ZM77.9297-33.5449Q75.5371-33.5449 73.8525-35.1807Q72.168-36.8164 72.168-39.209Q72.168-41.5527 73.8525-43.2129Q75.5371-44.873 77.9297-44.873Q80.2246-44.873 81.8848-43.2129Q83.5449-41.5527 83.5449-39.209Q83.5449-36.8164 81.8848-35.1562Q80.2246-33.4961 77.9297-33.5449ZM63.623-19.2383Q61.2793-19.2383 59.6191-20.9229Q57.959-22.6074 57.959-25Q57.959-27.2949 59.6191-28.9307Q61.2793-30.5664 63.623-30.5664Q65.918-30.5664 67.6025-28.9307Q69.2871-27.2949 69.2871-25Q69.2871-22.6074 67.627-20.9229Q65.9668-19.2383 63.623-19.2383ZM49.3652-4.98047Q47.0215-4.98047 45.3613-6.64062Q43.7012-8.30078 43.7012-10.6934Q43.7012-13.0371 45.3613-14.6973Q47.0215-16.3574 49.3652-16.3574Q51.6602-16.3574 53.3447-14.6973Q55.0293-13.0371 55.0293-10.6934Q55.0293-8.34961 53.3691-6.66504Q51.709-4.98047 49.3652-4.98047ZM77.9297-4.98047Q75.5371-4.98047 73.9014-6.66504Q72.2656-8.34961 72.2656-10.6934Q72.2656-13.0371 73.9014-14.6973Q75.5371-16.3574 77.9297-16.3574Q80.2246-16.3574 81.8848-14.6973Q83.5449-13.0371 83.5449-10.6934Q83.5449-8.34961 81.8848-6.66504Q80.2246-4.98047 77.9297-4.98047Z"/>
  </g>
  <g id="Semibold-S" transform="matrix(1 0 0 1 1990.9 696)">
   <path d="M43.2129 7.17773L81.6406 7.17773Q88.1836 7.17773 91.5771 3.80859Q94.9707 0.439453 94.9707-6.05469L94.9707-44.7266Q94.9707-51.1719 91.5771-54.541Q88.1836-57.9102 81.6406-57.9102L43.2129-57.9102Q36.6699-57.9102 33.2764-54.541Q29.8828-51.1719 29.8828-44.7266L29.8828-6.05469Q29.8828 0.439453 33.2764 3.80859Q36.6699 7.17773 43.2129 7.17773ZM9.76562-25.0977Q9.76562-18.7012 13.1348-15.2832Q16.5039-11.8652 23.0957-11.8652L23.6328-11.8652L23.6328-44.7266Q23.6328-50.7812 26.001-55.127Q28.3691-59.4727 32.7637-61.8164Q37.1582-64.1602 43.2129-64.1602L75.4883-64.1602L75.4883-64.4043Q75.4883-70.8496 72.0947-74.2188Q68.7012-77.5879 62.1094-77.5879L23.0957-77.5879Q16.5527-77.5879 13.1592-74.2188Q9.76562-70.8496 9.76562-64.3555ZM47.7051-34.2285Q45.3613-34.2773 43.6768-35.9131Q41.9922-37.5488 41.9922-39.9414Q41.9922-42.334 43.6768-43.9941Q45.3613-45.6543 47.7051-45.6543Q50.0488-45.6543 51.709-43.9697Q53.3691-42.2852 53.3691-39.9414Q53.3691-37.5488 51.6846-35.8887Q50-34.2285 47.7051-34.2285ZM76.9043-34.2285Q74.5605-34.2773 72.9004-35.9131Q71.2402-37.5488 71.2402-39.9414Q71.2402-42.334 72.9004-43.9941Q74.5605-45.6543 76.9043-45.6543Q79.248-45.6543 80.9326-43.9941Q82.6172-42.334 82.6172-39.9414Q82.6172-37.5488 80.9326-35.8887Q79.248-34.2285 76.9043-34.2285ZM62.3047-19.6289Q59.9609-19.6289 58.2764-21.2891Q56.5918-22.9492 56.5918-25.3906Q56.5918-27.6855 58.2764-29.3213Q59.9609-30.957 62.3047-30.957Q64.5996-30.957 66.2842-29.3213Q67.9688-27.6855 67.9688-25.3906Q67.9688-22.998 66.3086-21.3135Q64.6484-19.6289 62.3047-19.6289ZM47.6562-4.98047Q45.3613-4.98047 43.7012-6.64062Q42.041-8.30078 42.041-10.6934Q42.041-13.0859 43.7012-14.7217Q45.3613-16.3574 47.6562-16.3574Q50-16.3574 51.6846-14.6973Q53.3691-13.0371 53.3691-10.6934Q53.3691-8.34961 51.6846-6.66504Q50-4.98047 47.6562-4.98047ZM76.9043-4.98047Q74.5605-4.98047 72.9248-6.66504Q71.2891-8.34961 71.2891-10.6934Q71.2891-13.0859 72.9248-14.7217Q74.5605-16.3574 76.9043-16.3574Q79.248-16.3574 80.9326-14.7217Q82.6172-13.0859 82.6172-10.6934Q82.6172-8.34961 80.9326-6.66504Q79.248-4.98047 76.9043-4.98047Z"/>
  </g>
  <g id="Medium-S" transform="matrix(1 0 0 1 1694.92 696)">
   <path d="M42.1387 6.49414L80.5664 6.49414Q86.9629 6.49414 90.2344 3.27148Q93.5059 0.0488281 93.5059-6.29883L93.5059-45.0195Q93.5059-51.3672 90.2344-54.5898Q86.9629-57.8125 80.5664-57.8125L42.1387-57.8125Q35.7422-57.8125 32.4707-54.5898Q29.1992-51.3672 29.1992-45.0195L29.1992-6.29883Q29.1992 0.0488281 32.4707 3.27148Q35.7422 6.49414 42.1387 6.49414ZM9.76562-25.0488Q9.76562-18.75 13.0127-15.5029Q16.2598-12.2559 22.7051-12.2559L23.1934-12.2559L23.1934-45.0195Q23.1934-50.9277 25.4639-55.127Q27.7344-59.3262 31.9824-61.5723Q36.2305-63.8184 42.1387-63.8184L74.4141-63.8184L74.4141-64.1113Q74.4141-70.459 71.1426-73.6816Q67.8711-76.9043 61.4746-76.9043L22.7051-76.9043Q16.3086-76.9043 13.0371-73.6816Q9.76562-70.459 9.76562-64.1113ZM46.4355-34.7656Q44.043-34.8145 42.3584-36.4502Q40.6738-38.0859 40.6738-40.4785Q40.6738-42.8223 42.3584-44.4824Q44.043-46.1426 46.4355-46.1426Q48.7793-46.1426 50.4395-44.4824Q52.0996-42.8223 52.0996-40.4785Q52.0996-38.0859 50.415-36.4014Q48.7305-34.7168 46.4355-34.7656ZM76.1719-34.7656Q73.8281-34.8145 72.168-36.4502Q70.5078-38.0859 70.5078-40.4785Q70.5078-42.8223 72.168-44.4824Q73.8281-46.1426 76.1719-46.1426Q78.5156-46.1426 80.2002-44.4824Q81.8848-42.8223 81.8848-40.4785Q81.8848-38.0859 80.2002-36.4014Q78.5156-34.7168 76.1719-34.7656ZM61.2793-19.8242Q58.9355-19.8242 57.251-21.5088Q55.5664-23.1934 55.5664-25.6348Q55.5664-27.9297 57.251-29.5898Q58.9355-31.25 61.2793-31.25Q63.5742-31.25 65.2588-29.5898Q66.9434-27.9297 66.9434-25.6348Q66.9434-23.1934 65.2588-21.5088Q63.5742-19.8242 61.2793-19.8242ZM46.3867-4.93164Q44.043-4.93164 42.3828-6.61621Q40.7227-8.30078 40.7227-10.6934Q40.7227-13.0371 42.3828-14.6973Q44.043-16.3574 46.3867-16.3574Q48.7305-16.3574 50.415-14.6973Q52.0996-13.0371 52.0996-10.6934Q52.0996-8.30078 50.415-6.61621Q48.7305-4.93164 46.3867-4.93164ZM76.1719-4.93164Q73.8281-4.93164 72.168-6.61621Q70.5078-8.30078 70.5078-10.6934Q70.5078-13.0371 72.168-14.6973Q73.8281-16.3574 76.1719-16.3574Q78.5156-16.3574 80.2002-14.6973Q81.8848-13.0371 81.8848-10.6934Q81.8848-8.30078 80.2002-6.61621Q78.5156-4.93164 76.1719-4.93164Z"/>
  </g>
  <g id="Regular-S" transform="matrix(1 0 0 1 1399.16 696)">
   <path d="M40.7715 5.61523L79.1504 5.61523Q85.4004 5.61523 88.501 2.56348Q91.6016-0.488281 91.6016-6.64062L91.6016-45.4102Q91.6016-51.5625 88.501-54.6143Q85.4004-57.666 79.1504-57.666L40.7715-57.666Q34.5215-57.666 31.4209-54.6143Q28.3203-51.5625 28.3203-45.4102L28.3203-6.64062Q28.3203-0.488281 31.4209 2.56348Q34.5215 5.61523 40.7715 5.61523ZM9.76562-25Q9.76562-18.8477 12.8662-15.7959Q15.9668-12.7441 22.2168-12.7441L22.6074-12.7441L22.6074-45.4102Q22.6074-51.123 24.7559-55.127Q26.9043-59.1309 30.9814-61.2549Q35.0586-63.3789 40.7715-63.3789L73.0469-63.3789L73.0469-63.7695Q73.0469-69.9219 69.9463-72.9736Q66.8457-76.0254 60.5957-76.0254L22.2168-76.0254Q15.9668-76.0254 12.8662-72.9736Q9.76562-69.9219 9.76562-63.7695ZM44.7576-35.4817Q42.3772-35.5242 40.6982-37.1819Q39.0192-38.8397 39.0192-41.2201Q39.0192-43.6005 40.6982-45.2583Q42.3772-46.9161 44.7576-46.9161Q47.0955-46.9161 48.7745-45.2583Q50.4536-43.6005 50.4536-41.2201Q50.4536-38.8397 48.7745-37.1394Q47.0955-35.4392 44.7576-35.4817ZM75.2777-35.4817Q72.8973-35.5242 71.2183-37.1819Q69.5392-38.8397 69.5392-41.2201Q69.5392-43.6005 71.2183-45.2583Q72.8973-46.9161 75.2777-46.9161Q77.6156-46.9161 79.2946-45.2583Q80.9736-43.6005 80.9736-41.2201Q80.9736-38.8397 79.2946-37.1394Q77.6156-35.4392 75.2777-35.4817ZM59.9751-20.2216Q57.6373-20.2216 55.9582-21.9007Q54.2792-23.5797 54.2792-26.0026Q54.2792-28.3405 55.9582-29.9983Q57.6373-31.656 59.9751-31.656Q62.313-31.656 63.9921-29.9983Q65.6711-28.3405 65.6711-26.0026Q65.6711-23.5797 63.9921-21.9007Q62.313-20.2216 59.9751-20.2216ZM44.7576-4.9616Q42.3772-4.9616 40.7195-6.64063Q39.0617-8.31966 39.0617-10.7001Q39.0617-13.0804 40.7195-14.7382Q42.3772-16.396 44.7576-16.396Q47.0955-16.396 48.7745-14.7382Q50.4536-13.0804 50.4536-10.7001Q50.4536-8.31966 48.7745-6.64063Q47.0955-4.9616 44.7576-4.9616ZM75.2777-4.9616Q72.8973-4.9616 71.2395-6.64063Q69.5817-8.31966 69.5817-10.7001Q69.5817-13.0804 71.2395-14.7382Q72.8973-16.396 75.2777-16.396Q77.6156-16.396 79.2946-14.7382Q80.9736-13.0804 80.9736-10.7001Q80.9736-8.31966 79.2946-6.64063Q77.6156-4.9616 75.2777-4.9616Z"/>
  </g>
  <g id="Light-S" transform="matrix(1 0 0 1 1103.26 696)">
   <path d="M39.9414 4.24805L78.3691 4.24805Q84.1797 4.24805 87.085 1.34277Q89.9902-1.5625 89.9902-7.27539L89.9902-45.9473Q89.9902-51.6602 87.085-54.541Q84.1797-57.4219 78.3691-57.4219L39.9414-57.4219Q34.1309-57.4219 31.2256-54.541Q28.3203-51.6602 28.3203-45.9473L28.3203-7.27539Q28.3203-1.51367 31.2256 1.36719Q34.1309 4.24805 39.9414 4.24805ZM9.76562-24.4629Q9.76562-18.7012 12.6709-15.8203Q15.5762-12.9395 21.3867-12.9395L23.4863-12.9395L23.4863-45.9473Q23.4863-51.123 25.4395-54.7607Q27.3926-58.3984 31.0791-60.3271Q34.7656-62.2559 39.9414-62.2559L71.4355-62.2559L71.4355-63.1348Q71.4355-68.8477 68.5303-71.7285Q65.625-74.6094 59.8145-74.6094L21.3867-74.6094Q15.5762-74.6094 12.6709-71.7285Q9.76562-68.8477 9.76562-63.1348ZM43.6523-36.6699Q41.3574-36.7188 39.7461-38.3057Q38.1348-39.8926 38.1348-42.1875Q38.1348-44.4336 39.7461-46.0205Q41.3574-47.6074 43.6523-47.6074Q45.8496-47.6074 47.4854-46.0205Q49.1211-44.4336 49.1211-42.1875Q49.1211-39.8926 47.4854-38.2568Q45.8496-36.6211 43.6523-36.6699ZM74.8047-36.6699Q72.5098-36.7188 70.8984-38.3057Q69.2871-39.8926 69.2871-42.1875Q69.2871-44.4336 70.8984-46.0205Q72.5098-47.6074 74.8047-47.6074Q77.0508-47.6074 78.6621-46.0205Q80.2734-44.4336 80.2734-42.1875Q80.2734-39.8926 78.6621-38.2568Q77.0508-36.6211 74.8047-36.6699ZM59.1797-21.0449Q56.9824-21.0449 55.3467-22.6562Q53.7109-24.2676 53.7109-26.6113Q53.7109-28.8574 55.3467-30.4199Q56.9824-31.9824 59.1797-31.9824Q61.4258-31.9824 63.0371-30.4199Q64.6484-28.8574 64.6484-26.6113Q64.6484-24.2676 63.0371-22.6562Q61.4258-21.0449 59.1797-21.0449ZM43.6523-5.46875Q41.3574-5.46875 39.7705-7.08008Q38.1836-8.69141 38.1836-10.9375Q38.1836-13.2324 39.7705-14.8193Q41.3574-16.4062 43.6523-16.4062Q45.8496-16.4062 47.4609-14.8193Q49.0723-13.2324 49.0723-10.9375Q49.0723-8.69141 47.4609-7.08008Q45.8496-5.46875 43.6523-5.46875ZM74.8047-5.46875Q72.5098-5.46875 70.9229-7.08008Q69.3359-8.69141 69.3359-10.9375Q69.3359-13.2324 70.9229-14.8193Q72.5098-16.4062 74.8047-16.4062Q77.0508-16.4062 78.6621-14.8193Q80.2734-13.2324 80.2734-10.9375Q80.2734-8.69141 78.6621-7.08008Q77.0508-5.46875 74.8047-5.46875Z"/>
  </g>
  <g id="Thin-S" transform="matrix(1 0 0 1 807.594 696)">
   <path d="M38.8672 2.39258L77.3438 2.39258Q82.5195 2.39258 85.2051-0.268555Q87.8906-2.92969 87.8906-8.10547L87.8906-46.6309Q87.8906-51.7578 85.2051-54.4434Q82.5195-57.1289 77.3438-57.1289L38.8672-57.1289Q33.6426-57.1289 30.9814-54.4678Q28.3203-51.8066 28.3203-46.6309L28.3203-8.10547Q28.3203-2.88086 30.9814-0.244141Q33.6426 2.39258 38.8672 2.39258ZM9.76562-23.6816Q9.76562-18.5547 12.4268-15.8691Q15.0879-13.1836 20.3125-13.1836L24.6582-13.1836L24.6582-46.6309Q24.6582-51.123 26.3428-54.2725Q28.0273-57.4219 31.2012-59.1064Q34.375-60.791 38.8672-60.791L69.3359-60.791L69.3359-62.2559Q69.3359-67.3828 66.6504-70.0684Q63.9648-72.7539 58.7891-72.7539L20.3125-72.7539Q15.0879-72.7539 12.4268-70.0928Q9.76562-67.4316 9.76562-62.2559ZM42.0898-38.1836Q39.9902-38.2324 38.4766-39.7217Q36.9629-41.2109 36.9629-43.4082Q36.9629-45.5078 38.4766-46.9971Q39.9902-48.4863 42.0898-48.4863Q44.1895-48.4863 45.7275-46.9971Q47.2656-45.5078 47.2656-43.4082Q47.2656-41.2109 45.7275-39.6973Q44.1895-38.1836 42.0898-38.1836ZM74.1211-38.1836Q71.9727-38.2324 70.459-39.7217Q68.9453-41.2109 68.9453-43.4082Q68.9453-45.5078 70.459-46.9971Q71.9727-48.4863 74.1211-48.4863Q76.2207-48.4863 77.71-46.9971Q79.1992-45.5078 79.1992-43.4082Q79.1992-41.2109 77.71-39.6973Q76.2207-38.1836 74.1211-38.1836ZM58.1055-22.0703Q55.957-22.0703 54.4678-23.6084Q52.9785-25.1465 52.9785-27.3438Q52.9785-29.3945 54.4678-30.9082Q55.957-32.4219 58.1055-32.4219Q60.1562-32.4219 61.6943-30.9082Q63.2324-29.3945 63.2324-27.3438Q63.2324-25.1465 61.6943-23.6084Q60.1562-22.0703 58.1055-22.0703ZM42.0898-6.10352Q39.9902-6.10352 38.4766-7.61719Q36.9629-9.13086 36.9629-11.2305Q36.9629-13.3789 38.4766-14.8926Q39.9902-16.4062 42.0898-16.4062Q44.1895-16.4062 45.7031-14.8926Q47.2168-13.3789 47.2168-11.2305Q47.2168-9.13086 45.7031-7.61719Q44.1895-6.10352 42.0898-6.10352ZM74.1211-6.10352Q71.9727-6.10352 70.4834-7.61719Q68.9941-9.13086 68.9941-11.2305Q68.9941-13.3789 70.4834-14.8926Q71.9727-16.4062 74.1211-16.4062Q76.2207-16.4062 77.71-14.8926Q79.1992-13.3789 79.1992-11.2305Q79.1992-9.13086 77.71-7.61719Q76.2207-6.10352 74.1211-6.10352Z"/>
  </g>
  <g id="Ultralight-S" transform="matrix(1 0 0 1 511.445 696)">
   <path d="M38.3301 1.46484L76.8066 1.46484Q81.6895 1.46484 84.2285-1.09863Q86.7676-3.66211 86.7676-8.49609L86.7676-47.0215Q86.7676-51.8555 84.2285-54.4189Q81.6895-56.9824 76.8066-56.9824L38.3301-56.9824Q33.3984-56.9824 30.8594-54.4434Q28.3203-51.9043 28.3203-47.0215L28.3203-8.49609Q28.3203-3.56445 30.8594-1.0498Q33.3984 1.46484 38.3301 1.46484ZM9.76562-23.3398Q9.76562-18.457 12.3047-15.8936Q14.8438-13.3301 19.7754-13.3301L25.2441-13.3301L25.2441-47.0215Q25.2441-51.123 26.8066-54.0283Q28.3691-56.9336 31.2744-58.4717Q34.1797-60.0098 38.3301-60.0098L68.2129-60.0098L68.2129-61.8164Q68.2129-66.6504 65.6738-69.2383Q63.1348-71.8262 58.252-71.8262L19.7754-71.8262Q14.8438-71.8262 12.3047-69.2627Q9.76562-66.6992 9.76562-61.8164ZM41.3574-39.0137Q39.3066-39.0625 37.8418-40.5029Q36.377-41.9434 36.377-44.043Q36.377-46.0938 37.8418-47.5098Q39.3066-48.9258 41.3574-48.9258Q43.3594-48.9258 44.8242-47.5098Q46.2891-46.0938 46.2891-44.043Q46.2891-41.9434 44.8242-40.4541Q43.3594-38.9648 41.3574-39.0137ZM73.8281-39.0137Q71.7773-39.0625 70.2881-40.5029Q68.7988-41.9434 68.7988-44.043Q68.7988-46.0938 70.2881-47.5098Q71.7773-48.9258 73.8281-48.9258Q75.8301-48.9258 77.2949-47.5098Q78.7598-46.0938 78.7598-44.043Q78.7598-41.9434 77.2949-40.4541Q75.8301-38.9648 73.8281-39.0137ZM57.5684-22.6562Q55.5176-22.6562 54.0771-24.1211Q52.6367-25.5859 52.6367-27.7344Q52.6367-29.7363 54.0771-31.2012Q55.5176-32.666 57.5684-32.666Q59.6191-32.666 61.084-31.2012Q62.5488-29.7363 62.5488-27.7344Q62.5488-25.5859 61.084-24.1211Q59.6191-22.6562 57.5684-22.6562ZM41.3574-6.44531Q39.3066-6.44531 37.8418-7.91016Q36.377-9.375 36.377-11.4258Q36.377-13.4766 37.8418-14.9414Q39.3066-16.4062 41.3574-16.4062Q43.3594-16.4062 44.7998-14.9414Q46.2402-13.4766 46.2402-11.4258Q46.2402-9.375 44.7998-7.91016Q43.3594-6.44531 41.3574-6.44531ZM73.8281-6.44531Q71.7773-6.44531 70.3125-7.91016Q68.8477-9.375 68.8477-11.4258Q68.8477-13.4766 70.3125-14.9414Q71.7773-16.4062 73.8281-16.4062Q75.8301-16.4062 77.2949-14.9414Q78.7598-13.4766 78.7598-11.4258Q78.7598-9.375 77.2949-7.91016Q75.8301-6.44531 73.8281-6.44531Z"/>
  </g>
 </g>
</svg>
