<?xml version="1.0" encoding="UTF-8"?>
<!--Generator: Apple Native CoreSVG 175-->
<!DOCTYPE svg
PUBLIC "-//W3C//DTD SVG 1.1//EN"
       "http://www.w3.org/Graphics/SVG/1.1/DTD/svg11.dtd">
<svg version="1.1" xmlns="http://www.w3.org/2000/svg" xmlns:xlink="http://www.w3.org/1999/xlink" width="3300" height="2200">
 <!--glyph: "uni100919.medium", point size: 100.0, font version: "17.0d11e1", template writer version: "65.1"-->
 <style>.hierarchical-0:tertiary {fill:#8E8E8E}
.hierarchical-1:primary {fill:#212121}

.SFSymbolsPreview212121 {fill:#212121;opacity:1.0}
.SFSymbolsPreview8E8E8E {fill:#8E8E8E;opacity:1.0}
</style>
 <g id="Notes">
  <rect height="2200" id="artboard" style="fill:white;opacity:1" width="3300" x="0" y="0"/>
  <line style="fill:none;stroke:black;opacity:1;stroke-width:0.5;" x1="263" x2="3036" y1="292" y2="292"/>
  <text style="stroke:none;fill:black;font-family:sans-serif;font-size:13;font-weight:bold;" transform="matrix(1 0 0 1 263 322)">Weight/Scale Variations</text>
  <text style="stroke:none;fill:black;font-family:sans-serif;font-size:13;text-anchor:middle;" transform="matrix(1 0 0 1 559.711 322)">Ultralight</text>
  <text style="stroke:none;fill:black;font-family:sans-serif;font-size:13;text-anchor:middle;" transform="matrix(1 0 0 1 856.422 322)">Thin</text>
  <text style="stroke:none;fill:black;font-family:sans-serif;font-size:13;text-anchor:middle;" transform="matrix(1 0 0 1 1153.13 322)">Light</text>
  <text style="stroke:none;fill:black;font-family:sans-serif;font-size:13;text-anchor:middle;" transform="matrix(1 0 0 1 1449.84 322)">Regular</text>
  <text style="stroke:none;fill:black;font-family:sans-serif;font-size:13;text-anchor:middle;" transform="matrix(1 0 0 1 1746.56 322)">Medium</text>
  <text style="stroke:none;fill:black;font-family:sans-serif;font-size:13;text-anchor:middle;" transform="matrix(1 0 0 1 2043.27 322)">Semibold</text>
  <text style="stroke:none;fill:black;font-family:sans-serif;font-size:13;text-anchor:middle;" transform="matrix(1 0 0 1 2339.98 322)">Bold</text>
  <text style="stroke:none;fill:black;font-family:sans-serif;font-size:13;text-anchor:middle;" transform="matrix(1 0 0 1 2636.69 322)">Heavy</text>
  <text style="stroke:none;fill:black;font-family:sans-serif;font-size:13;text-anchor:middle;" transform="matrix(1 0 0 1 2933.4 322)">Black</text>
  <line style="fill:none;stroke:black;opacity:1;stroke-width:0.5;" x1="263" x2="3036" y1="1903" y2="1903"/>
  <g transform="matrix(1 0 0 1 263 1933)">
   <path d="M9.24805 0.830078Q10.8691 0.830078 12.2949 0.214844Q13.7207-0.400391 14.8096-1.49414Q15.8984-2.58789 16.5186-4.01367Q17.1387-5.43945 17.1387-7.05078Q17.1387-8.66211 16.5186-10.0879Q15.8984-11.5137 14.8047-12.6074Q13.7109-13.7012 12.2852-14.3164Q10.8594-14.9316 9.23828-14.9316Q7.62695-14.9316 6.20117-14.3164Q4.77539-13.7012 3.69141-12.6074Q2.60742-11.5137 1.9873-10.0879Q1.36719-8.66211 1.36719-7.05078Q1.36719-5.43945 1.9873-4.01367Q2.60742-2.58789 3.69629-1.49414Q4.78516-0.400391 6.21094 0.214844Q7.63672 0.830078 9.24805 0.830078ZM9.24805-0.654297Q7.91992-0.654297 6.7627-1.14746Q5.60547-1.64062 4.73145-2.51953Q3.85742-3.39844 3.36426-4.56055Q2.87109-5.72266 2.87109-7.05078Q2.87109-8.37891 3.35938-9.54102Q3.84766-10.7031 4.72168-11.582Q5.5957-12.4609 6.75293-12.9541Q7.91016-13.4473 9.23828-13.4473Q10.5762-13.4473 11.7334-12.9541Q12.8906-12.4609 13.7695-11.582Q14.6484-10.7031 15.1465-9.54102Q15.6445-8.37891 15.6445-7.05078Q15.6445-5.72266 15.1514-4.56055Q14.6582-3.39844 13.7842-2.51953Q12.9102-1.64062 11.748-1.14746Q10.5859-0.654297 9.24805-0.654297ZM5.6543-7.05078Q5.6543-6.72852 5.85938-6.52832Q6.06445-6.32812 6.40625-6.32812L8.51562-6.32812L8.51562-4.20898Q8.51562-3.88672 8.71094-3.67676Q8.90625-3.4668 9.23828-3.4668Q9.56055-3.4668 9.77051-3.67676Q9.98047-3.88672 9.98047-4.20898L9.98047-6.32812L12.0898-6.32812Q12.4219-6.32812 12.627-6.52832Q12.832-6.72852 12.832-7.05078Q12.832-7.38281 12.627-7.58789Q12.4219-7.79297 12.0898-7.79297L9.98047-7.79297L9.98047-9.90234Q9.98047-10.2344 9.77051-10.4443Q9.56055-10.6543 9.23828-10.6543Q8.90625-10.6543 8.71094-10.4443Q8.51562-10.2344 8.51562-9.90234L8.51562-7.79297L6.40625-7.79297Q6.06445-7.79297 5.85938-7.58789Q5.6543-7.38281 5.6543-7.05078Z"/>
  </g>
  <g transform="matrix(1 0 0 1 281.867 1933)">
   <path d="M11.709 2.91016Q13.75 2.91016 15.5518 2.12891Q17.3535 1.34766 18.7305-0.0292969Q20.1074-1.40625 20.8887-3.20801Q21.6699-5.00977 21.6699-7.05078Q21.6699-9.0918 20.8887-10.8936Q20.1074-12.6953 18.7305-14.0723Q17.3535-15.4492 15.5469-16.2305Q13.7402-17.0117 11.6992-17.0117Q9.6582-17.0117 7.85645-16.2305Q6.05469-15.4492 4.68262-14.0723Q3.31055-12.6953 2.5293-10.8936Q1.74805-9.0918 1.74805-7.05078Q1.74805-5.00977 2.5293-3.20801Q3.31055-1.40625 4.6875-0.0292969Q6.06445 1.34766 7.86621 2.12891Q9.66797 2.91016 11.709 2.91016ZM11.709 1.25Q9.98047 1.25 8.47656 0.605469Q6.97266-0.0390625 5.83496-1.17676Q4.69727-2.31445 4.05762-3.81836Q3.41797-5.32227 3.41797-7.05078Q3.41797-8.7793 4.05762-10.2832Q4.69727-11.7871 5.83008-12.9297Q6.96289-14.0723 8.4668-14.7119Q9.9707-15.3516 11.6992-15.3516Q13.4277-15.3516 14.9316-14.7119Q16.4355-14.0723 17.5781-12.9297Q18.7207-11.7871 19.3652-10.2832Q20.0098-8.7793 20.0098-7.05078Q20.0098-5.32227 19.3701-3.81836Q18.7305-2.31445 17.5928-1.17676Q16.4551-0.0390625 14.9463 0.605469Q13.4375 1.25 11.709 1.25ZM7.17773-7.05078Q7.17773-6.69922 7.41211-6.47461Q7.64648-6.25 8.01758-6.25L10.8887-6.25L10.8887-3.36914Q10.8887-2.99805 11.1133-2.76855Q11.3379-2.53906 11.6895-2.53906Q12.0605-2.53906 12.29-2.76855Q12.5195-2.99805 12.5195-3.36914L12.5195-6.25L15.4004-6.25Q15.7715-6.25 16.001-6.47461Q16.2305-6.69922 16.2305-7.05078Q16.2305-7.42188 16.001-7.65137Q15.7715-7.88086 15.4004-7.88086L12.5195-7.88086L12.5195-10.752Q12.5195-11.1328 12.29-11.3623Q12.0605-11.5918 11.6895-11.5918Q11.3379-11.5918 11.1133-11.3574Q10.8887-11.123 10.8887-10.752L10.8887-7.88086L8.01758-7.88086Q7.63672-7.88086 7.40723-7.65137Q7.17773-7.42188 7.17773-7.05078Z"/>
  </g>
  <g transform="matrix(1 0 0 1 305.646 1933)">
   <path d="M14.9707 5.66406Q17.0605 5.66406 18.96 5.01465Q20.8594 4.36523 22.4512 3.19336Q24.043 2.02148 25.2197 0.429688Q26.3965-1.16211 27.0459-3.06641Q27.6953-4.9707 27.6953-7.05078Q27.6953-9.14062 27.0459-11.04Q26.3965-12.9395 25.2197-14.5312Q24.043-16.123 22.4512-17.2998Q20.8594-18.4766 18.9551-19.126Q17.0508-19.7754 14.9609-19.7754Q12.8711-19.7754 10.9717-19.126Q9.07227-18.4766 7.48535-17.2998Q5.89844-16.123 4.72168-14.5312Q3.54492-12.9395 2.90039-11.04Q2.25586-9.14062 2.25586-7.05078Q2.25586-4.9707 2.90527-3.06641Q3.55469-1.16211 4.72656 0.429688Q5.89844 2.02148 7.49023 3.19336Q9.08203 4.36523 10.9814 5.01465Q12.8809 5.66406 14.9707 5.66406ZM14.9707 3.84766Q13.1641 3.84766 11.5283 3.2959Q9.89258 2.74414 8.53516 1.74805Q7.17773 0.751953 6.17676-0.610352Q5.17578-1.97266 4.62891-3.6084Q4.08203-5.24414 4.08203-7.05078Q4.08203-8.86719 4.62891-10.5029Q5.17578-12.1387 6.17188-13.501Q7.16797-14.8633 8.52539-15.8594Q9.88281-16.8555 11.5186-17.4023Q13.1543-17.9492 14.9609-17.9492Q16.7773-17.9492 18.4131-17.4023Q20.0488-16.8555 21.4111-15.8594Q22.7734-14.8633 23.7695-13.501Q24.7656-12.1387 25.3174-10.5029Q25.8691-8.86719 25.8691-7.05078Q25.8789-5.24414 25.332-3.6084Q24.7852-1.97266 23.7842-0.610352Q22.7832 0.751953 21.4209 1.74805Q20.0586 2.74414 18.4229 3.2959Q16.7871 3.84766 14.9707 3.84766ZM9.19922-7.05078Q9.19922-6.66992 9.45801-6.4209Q9.7168-6.17188 10.1172-6.17188L14.0625-6.17188L14.0625-2.2168Q14.0625-1.81641 14.3115-1.55762Q14.5605-1.29883 14.9512-1.29883Q15.3516-1.29883 15.6104-1.55273Q15.8691-1.80664 15.8691-2.2168L15.8691-6.17188L19.8242-6.17188Q20.2246-6.17188 20.4785-6.4209Q20.7324-6.66992 20.7324-7.05078Q20.7324-7.46094 20.4785-7.71484Q20.2246-7.96875 19.8242-7.96875L15.8691-7.96875L15.8691-11.9141Q15.8691-12.3242 15.6104-12.583Q15.3516-12.8418 14.9512-12.8418Q14.5605-12.8418 14.3115-12.583Q14.0625-12.3242 14.0625-11.9141L14.0625-7.96875L10.1172-7.96875Q9.70703-7.96875 9.45312-7.71484Q9.19922-7.46094 9.19922-7.05078Z"/>
  </g>
  <text style="stroke:none;fill:black;font-family:sans-serif;font-size:13;font-weight:bold;" transform="matrix(1 0 0 1 263 1953)">Design Variations</text>
  <text style="stroke:none;fill:black;font-family:sans-serif;font-size:13;" transform="matrix(1 0 0 1 263 1971)">Symbols are supported in up to nine weights and three scales.</text>
  <text style="stroke:none;fill:black;font-family:sans-serif;font-size:13;" transform="matrix(1 0 0 1 263 1989)">For optimal layout with text and other symbols, vertically align</text>
  <text style="stroke:none;fill:black;font-family:sans-serif;font-size:13;" transform="matrix(1 0 0 1 263 2007)">symbols with the adjacent text.</text>
  <line style="fill:none;stroke:#00AEEF;stroke-width:0.5;opacity:1.0;" x1="776" x2="776" y1="1919" y2="1933"/>
  <g transform="matrix(1 0 0 1 776 1933)">
   <path d="M3.31055 0.15625Q3.70117 0.15625 3.91602-0.00976562Q4.13086-0.175781 4.26758-0.585938L5.52734-4.0332L11.2891-4.0332L12.5488-0.585938Q12.6855-0.175781 12.9004-0.00976562Q13.1152 0.15625 13.4961 0.15625Q13.8867 0.15625 14.1162-0.0585938Q14.3457-0.273438 14.3457-0.644531Q14.3457-0.869141 14.2383-1.17188L9.6582-13.3691Q9.48242-13.8184 9.17969-14.043Q8.87695-14.2676 8.4082-14.2676Q7.5-14.2676 7.17773-13.3789L2.59766-1.16211Q2.49023-0.859375 2.49023-0.634766Q2.49023-0.263672 2.70996-0.0537109Q2.92969 0.15625 3.31055 0.15625ZM6.00586-5.51758L8.37891-12.0898L8.42773-12.0898L10.8008-5.51758Z"/>
  </g>
  <line style="fill:none;stroke:#00AEEF;stroke-width:0.5;opacity:1.0;" x1="793.197" x2="793.197" y1="1919" y2="1933"/>
  <text style="stroke:none;fill:black;font-family:sans-serif;font-size:13;font-weight:bold;" transform="matrix(1 0 0 1 776 1953)">Margins</text>
  <text style="stroke:none;fill:black;font-family:sans-serif;font-size:13;" transform="matrix(1 0 0 1 776 1971)">Leading and trailing margins on the left and right side of each symbol</text>
  <text style="stroke:none;fill:black;font-family:sans-serif;font-size:13;" transform="matrix(1 0 0 1 776 1989)">can be adjusted by modifying the x-location of the margin guidelines.</text>
  <text style="stroke:none;fill:black;font-family:sans-serif;font-size:13;" transform="matrix(1 0 0 1 776 2007)">Modifications are automatically applied proportionally to all</text>
  <text style="stroke:none;fill:black;font-family:sans-serif;font-size:13;" transform="matrix(1 0 0 1 776 2025)">scales and weights.</text>
  <g transform="matrix(1 0 0 1 1289 1933)">
   <path d="M2.8418 1.86523L4.54102 3.57422Q5.18555 4.22852 5.90332 4.17969Q6.62109 4.13086 7.31445 3.35938L18.0078-8.42773L17.041-9.4043L6.42578 2.27539Q6.16211 2.57812 5.89355 2.61719Q5.625 2.65625 5.27344 2.30469L4.10156 1.14258Q3.75 0.791016 3.79395 0.522461Q3.83789 0.253906 4.14062-0.0195312L15.6152-10.8203L14.6387-11.7871L3.04688-0.898438Q2.30469-0.214844 2.25098 0.498047Q2.19727 1.21094 2.8418 1.86523ZM9.25781-16.3281Q8.94531-16.0254 8.90625-15.6348Q8.86719-15.2441 9.04297-14.9512Q9.21875-14.6777 9.55566-14.541Q9.89258-14.4043 10.3809-14.5215Q11.4746-14.7754 12.5977-14.7314Q13.7207-14.6875 14.7949-13.9844L14.209-12.5293Q13.9551-11.9043 14.0674-11.4404Q14.1797-10.9766 14.5801-10.5664L16.875-8.25195Q17.2363-7.88086 17.5781-7.82227Q17.9199-7.76367 18.3398-7.8418L19.4043-8.03711L20.0684-7.36328L20.0293-6.80664Q20-6.43555 20.1221-6.12305Q20.2441-5.81055 20.6055-5.44922L21.3672-4.70703Q21.7285-4.3457 22.1533-4.33105Q22.5781-4.31641 22.9297-4.66797L25.8398-7.58789Q26.1914-7.93945 26.1816-8.35449Q26.1719-8.76953 25.8105-9.13086L25.0391-9.89258Q24.6875-10.2539 24.3799-10.3857Q24.0723-10.5176 23.7109-10.4883L23.1348-10.4395L22.4902-11.0742L22.7344-12.1973Q22.832-12.6172 22.6953-12.9834Q22.5586-13.3496 22.1191-13.7891L19.9219-15.9766Q18.6719-17.2168 17.2607-17.8369Q15.8496-18.457 14.4189-18.4814Q12.9883-18.5059 11.665-17.959Q10.3418-17.4121 9.25781-16.3281ZM10.752-15.957Q11.6602-16.6211 12.7002-16.9043Q13.7402-17.1875 14.8047-17.085Q15.8691-16.9824 16.8701-16.5137Q17.8711-16.0449 18.7012-15.2051L21.1328-12.793Q21.3086-12.6172 21.3525-12.4512Q21.3965-12.2852 21.3379-12.0312L21.0156-10.5469L22.5195-9.0625L23.5059-9.12109Q23.6914-9.13086 23.7891-9.09668Q23.8867-9.0625 24.0332-8.91602L24.6094-8.33984L22.168-5.89844L21.5918-6.47461Q21.4453-6.62109 21.4062-6.71875Q21.3672-6.81641 21.377-7.01172L21.4453-7.98828L19.9512-9.47266L18.4277-9.21875Q18.1836-9.16992 18.042-9.2041Q17.9004-9.23828 17.7148-9.41406L15.7129-11.416Q15.5176-11.5918 15.4932-11.7529Q15.4688-11.9141 15.5859-12.1875L16.4648-14.2773Q15.293-15.3711 13.8281-15.791Q12.3633-16.2109 10.8398-15.7617Q10.7227-15.7324 10.6885-15.8057Q10.6543-15.8789 10.752-15.957Z"/>
  </g>
  <text style="stroke:none;fill:black;font-family:sans-serif;font-size:13;font-weight:bold;" transform="matrix(1 0 0 1 1289 1953)">Exporting</text>
  <text style="stroke:none;fill:black;font-family:sans-serif;font-size:13;" transform="matrix(1 0 0 1 1289 1971)">Symbols should be outlined when exporting to ensure the</text>
  <text style="stroke:none;fill:black;font-family:sans-serif;font-size:13;" transform="matrix(1 0 0 1 1289 1989)">design is preserved when submitting to Xcode.</text>
  <text id="template-version" style="stroke:none;fill:black;font-family:sans-serif;font-size:13;text-anchor:end;" transform="matrix(1 0 0 1 3036 1933)">Template v.3.0</text>
  <text style="stroke:none;fill:black;font-family:sans-serif;font-size:13;text-anchor:end;" transform="matrix(1 0 0 1 3036 1951)">Requires Xcode 13 or greater</text>
  <text id="descriptive-name" style="stroke:none;fill:black;font-family:sans-serif;font-size:13;text-anchor:end;" transform="matrix(1 0 0 1 3036 1969)">Generated from curlybraces.square.fill</text>
  <text style="stroke:none;fill:black;font-family:sans-serif;font-size:13;text-anchor:end;" transform="matrix(1 0 0 1 3036 1987)">Typeset at 100 points</text>
  <text style="stroke:none;fill:black;font-family:sans-serif;font-size:13;" transform="matrix(1 0 0 1 263 726)">Small</text>
  <text style="stroke:none;fill:black;font-family:sans-serif;font-size:13;" transform="matrix(1 0 0 1 263 1156)">Medium</text>
  <text style="stroke:none;fill:black;font-family:sans-serif;font-size:13;" transform="matrix(1 0 0 1 263 1586)">Large</text>
 </g>
 <g id="Guides">
  <g id="H-reference" style="fill:#27AAE1;stroke:none;" transform="matrix(1 0 0 1 339 696)">
   <path d="M0.976562 0L3.66211 0L29.3457-67.1387L30.0293-67.1387L30.0293-70.459L28.125-70.459ZM11.6699-24.4629L46.9727-24.4629L46.2402-26.709L12.4512-26.709ZM55.127 0L57.7637 0L30.6152-70.459L29.4434-70.459L29.4434-67.1387Z"/>
  </g>
  <line id="Baseline-S" style="fill:none;stroke:#27AAE1;opacity:1;stroke-width:0.5;" x1="263" x2="3036" y1="696" y2="696"/>
  <line id="Capline-S" style="fill:none;stroke:#27AAE1;opacity:1;stroke-width:0.5;" x1="263" x2="3036" y1="625.541" y2="625.541"/>
  <g id="H-reference" style="fill:#27AAE1;stroke:none;" transform="matrix(1 0 0 1 339 1126)">
   <path d="M0.976562 0L3.66211 0L29.3457-67.1387L30.0293-67.1387L30.0293-70.459L28.125-70.459ZM11.6699-24.4629L46.9727-24.4629L46.2402-26.709L12.4512-26.709ZM55.127 0L57.7637 0L30.6152-70.459L29.4434-70.459L29.4434-67.1387Z"/>
  </g>
  <line id="Baseline-M" style="fill:none;stroke:#27AAE1;opacity:1;stroke-width:0.5;" x1="263" x2="3036" y1="1126" y2="1126"/>
  <line id="Capline-M" style="fill:none;stroke:#27AAE1;opacity:1;stroke-width:0.5;" x1="263" x2="3036" y1="1055.54" y2="1055.54"/>
  <g id="H-reference" style="fill:#27AAE1;stroke:none;" transform="matrix(1 0 0 1 339 1556)">
   <path d="M0.976562 0L3.66211 0L29.3457-67.1387L30.0293-67.1387L30.0293-70.459L28.125-70.459ZM11.6699-24.4629L46.9727-24.4629L46.2402-26.709L12.4512-26.709ZM55.127 0L57.7637 0L30.6152-70.459L29.4434-70.459L29.4434-67.1387Z"/>
  </g>
  <line id="Baseline-L" style="fill:none;stroke:#27AAE1;opacity:1;stroke-width:0.5;" x1="263" x2="3036" y1="1556" y2="1556"/>
  <line id="Capline-L" style="fill:none;stroke:#27AAE1;opacity:1;stroke-width:0.5;" x1="263" x2="3036" y1="1485.54" y2="1485.54"/>
  <line id="left-margin-Ultralight-S" style="fill:none;stroke:#00AEEF;stroke-width:0.5;opacity:1.0;" x1="516.352" x2="516.352" y1="600.785" y2="720.121"/>
  <line id="right-margin-Ultralight-S" style="fill:none;stroke:#00AEEF;stroke-width:0.5;opacity:1.0;" x1="603.07" x2="603.07" y1="600.785" y2="720.121"/>
  <line id="left-margin-Thin-S" style="fill:none;stroke:#00AEEF;stroke-width:0.5;opacity:1.0;" x1="812.623" x2="812.623" y1="600.785" y2="720.121"/>
  <line id="right-margin-Thin-S" style="fill:none;stroke:#00AEEF;stroke-width:0.5;opacity:1.0;" x1="900.221" x2="900.221" y1="600.785" y2="720.121"/>
  <line id="left-margin-Light-S" style="fill:none;stroke:#00AEEF;stroke-width:0.5;opacity:1.0;" x1="1108.46" x2="1108.46" y1="600.785" y2="720.121"/>
  <line id="right-margin-Light-S" style="fill:none;stroke:#00AEEF;stroke-width:0.5;opacity:1.0;" x1="1197.81" x2="1197.81" y1="600.785" y2="720.121"/>
  <line id="left-margin-Regular-S" style="fill:none;stroke:#00AEEF;stroke-width:0.5;opacity:1.0;" x1="1404.51" x2="1404.51" y1="600.785" y2="720.121"/>
  <line id="right-margin-Regular-S" style="fill:none;stroke:#00AEEF;stroke-width:0.5;opacity:1.0;" x1="1495.18" x2="1495.18" y1="600.785" y2="720.121"/>
  <line id="left-margin-Medium-S" style="fill:none;stroke:#00AEEF;stroke-width:0.5;opacity:1.0;" x1="1700.75" x2="1700.75" y1="600.785" y2="720.121"/>
  <line id="right-margin-Medium-S" style="fill:none;stroke:#00AEEF;stroke-width:0.5;opacity:1.0;" x1="1792.36" x2="1792.36" y1="600.785" y2="720.121"/>
  <line id="left-margin-Semibold-S" style="fill:none;stroke:#00AEEF;stroke-width:0.5;opacity:1.0;" x1="1997.12" x2="1997.12" y1="600.785" y2="720.121"/>
  <line id="right-margin-Semibold-S" style="fill:none;stroke:#00AEEF;stroke-width:0.5;opacity:1.0;" x1="2089.41" x2="2089.41" y1="600.785" y2="720.121"/>
  <line id="left-margin-Bold-S" style="fill:none;stroke:#00AEEF;stroke-width:0.5;opacity:1.0;" x1="2293.35" x2="2293.35" y1="600.785" y2="720.121"/>
  <line id="right-margin-Bold-S" style="fill:none;stroke:#00AEEF;stroke-width:0.5;opacity:1.0;" x1="2386.61" x2="2386.61" y1="600.785" y2="720.121"/>
  <line id="left-margin-Heavy-S" style="fill:none;stroke:#00AEEF;stroke-width:0.5;opacity:1.0;" x1="2589.4" x2="2589.4" y1="600.785" y2="720.121"/>
  <line id="right-margin-Heavy-S" style="fill:none;stroke:#00AEEF;stroke-width:0.5;opacity:1.0;" x1="2683.98" x2="2683.98" y1="600.785" y2="720.121"/>
  <line id="left-margin-Black-S" style="fill:none;stroke:#00AEEF;stroke-width:0.5;opacity:1.0;" x1="2885.5" x2="2885.5" y1="600.785" y2="720.121"/>
  <line id="right-margin-Black-S" style="fill:none;stroke:#00AEEF;stroke-width:0.5;opacity:1.0;" x1="2981.3" x2="2981.3" y1="600.785" y2="720.121"/>
  <line id="left-margin-Ultralight-M" style="fill:none;stroke:#00AEEF;stroke-width:0.5;opacity:1.0;" x1="504.535" x2="504.535" y1="1030.79" y2="1150.12"/>
  <line id="right-margin-Ultralight-M" style="fill:none;stroke:#00AEEF;stroke-width:0.5;opacity:1.0;" x1="614.887" x2="614.887" y1="1030.79" y2="1150.12"/>
  <line id="left-margin-Thin-M" style="fill:none;stroke:#00AEEF;stroke-width:0.5;opacity:1.0;" x1="800.758" x2="800.758" y1="1030.79" y2="1150.12"/>
  <line id="right-margin-Thin-M" style="fill:none;stroke:#00AEEF;stroke-width:0.5;opacity:1.0;" x1="912.086" x2="912.086" y1="1030.79" y2="1150.12"/>
  <line id="left-margin-Light-M" style="fill:none;stroke:#00AEEF;stroke-width:0.5;opacity:1.0;" x1="1096.47" x2="1096.47" y1="1030.79" y2="1150.12"/>
  <line id="right-margin-Light-M" style="fill:none;stroke:#00AEEF;stroke-width:0.5;opacity:1.0;" x1="1209.8" x2="1209.8" y1="1030.79" y2="1150.12"/>
  <line id="left-margin-Regular-M" style="fill:none;stroke:#00AEEF;stroke-width:0.5;opacity:1.0;" x1="1392.45" x2="1392.45" y1="1030.79" y2="1150.12"/>
  <line id="right-margin-Regular-M" style="fill:none;stroke:#00AEEF;stroke-width:0.5;opacity:1.0;" x1="1507.24" x2="1507.24" y1="1030.79" y2="1150.12"/>
  <line id="left-margin-Medium-M" style="fill:none;stroke:#00AEEF;stroke-width:0.5;opacity:1.0;" x1="1688.52" x2="1688.52" y1="1030.79" y2="1150.12"/>
  <line id="right-margin-Medium-M" style="fill:none;stroke:#00AEEF;stroke-width:0.5;opacity:1.0;" x1="1804.59" x2="1804.59" y1="1030.79" y2="1150.12"/>
  <line id="left-margin-Semibold-M" style="fill:none;stroke:#00AEEF;stroke-width:0.5;opacity:1.0;" x1="1984.77" x2="1984.77" y1="1030.79" y2="1150.12"/>
  <line id="right-margin-Semibold-M" style="fill:none;stroke:#00AEEF;stroke-width:0.5;opacity:1.0;" x1="2101.76" x2="2101.76" y1="1030.79" y2="1150.12"/>
  <line id="left-margin-Bold-M" style="fill:none;stroke:#00AEEF;stroke-width:0.5;opacity:1.0;" x1="2280.85" x2="2280.85" y1="1030.79" y2="1150.12"/>
  <line id="right-margin-Bold-M" style="fill:none;stroke:#00AEEF;stroke-width:0.5;opacity:1.0;" x1="2399.11" x2="2399.11" y1="1030.79" y2="1150.12"/>
  <line id="left-margin-Heavy-M" style="fill:none;stroke:#00AEEF;stroke-width:0.5;opacity:1.0;" x1="2576.65" x2="2576.65" y1="1030.79" y2="1150.12"/>
  <line id="right-margin-Heavy-M" style="fill:none;stroke:#00AEEF;stroke-width:0.5;opacity:1.0;" x1="2696.72" x2="2696.72" y1="1030.79" y2="1150.12"/>
  <line id="left-margin-Black-M" style="fill:none;stroke:#00AEEF;stroke-width:0.5;opacity:1.0;" x1="2872.54" x2="2872.54" y1="1030.79" y2="1150.12"/>
  <line id="right-margin-Black-M" style="fill:none;stroke:#00AEEF;stroke-width:0.5;opacity:1.0;" x1="2994.26" x2="2994.26" y1="1030.79" y2="1150.12"/>
  <line id="left-margin-Ultralight-L" style="fill:none;stroke:#00AEEF;stroke-width:0.5;opacity:1.0;" x1="488.739" x2="488.739" y1="1460.79" y2="1580.12"/>
  <line id="right-margin-Ultralight-L" style="fill:none;stroke:#00AEEF;stroke-width:0.5;opacity:1.0;" x1="630.683" x2="630.683" y1="1460.79" y2="1580.12"/>
  <line id="left-margin-Thin-L" style="fill:none;stroke:#00AEEF;stroke-width:0.5;opacity:1.0;" x1="784.889" x2="784.889" y1="1460.79" y2="1580.12"/>
  <line id="right-margin-Thin-L" style="fill:none;stroke:#00AEEF;stroke-width:0.5;opacity:1.0;" x1="927.955" x2="927.955" y1="1460.79" y2="1580.12"/>
  <line id="left-margin-Light-L" style="fill:none;stroke:#00AEEF;stroke-width:0.5;opacity:1.0;" x1="1080.5" x2="1080.5" y1="1460.79" y2="1580.12"/>
  <line id="right-margin-Light-L" style="fill:none;stroke:#00AEEF;stroke-width:0.5;opacity:1.0;" x1="1225.77" x2="1225.77" y1="1460.79" y2="1580.12"/>
  <line id="left-margin-Regular-L" style="fill:none;stroke:#00AEEF;stroke-width:0.5;opacity:1.0;" x1="1376.38" x2="1376.38" y1="1460.79" y2="1580.12"/>
  <line id="right-margin-Regular-L" style="fill:none;stroke:#00AEEF;stroke-width:0.5;opacity:1.0;" x1="1523.31" x2="1523.31" y1="1460.79" y2="1580.12"/>
  <line id="left-margin-Medium-L" style="fill:none;stroke:#00AEEF;stroke-width:0.5;opacity:1.0;" x1="1672.31" x2="1672.31" y1="1460.79" y2="1580.12"/>
  <line id="right-margin-Medium-L" style="fill:none;stroke:#00AEEF;stroke-width:0.5;opacity:1.0;" x1="1820.8" x2="1820.8" y1="1460.79" y2="1580.12"/>
  <line id="left-margin-Semibold-L" style="fill:none;stroke:#00AEEF;stroke-width:0.5;opacity:1.0;" x1="1968.44" x2="1968.44" y1="1460.79" y2="1580.12"/>
  <line id="right-margin-Semibold-L" style="fill:none;stroke:#00AEEF;stroke-width:0.5;opacity:1.0;" x1="2118.1" x2="2118.1" y1="1460.79" y2="1580.12"/>
  <line id="left-margin-Bold-L" style="fill:none;stroke:#00AEEF;stroke-width:0.5;opacity:1.0;" x1="2264.34" x2="2264.34" y1="1460.79" y2="1580.12"/>
  <line id="right-margin-Bold-L" style="fill:none;stroke:#00AEEF;stroke-width:0.5;opacity:1.0;" x1="2415.61" x2="2415.61" y1="1460.79" y2="1580.12"/>
  <line id="left-margin-Heavy-L" style="fill:none;stroke:#00AEEF;stroke-width:0.5;opacity:1.0;" x1="2559.93" x2="2559.93" y1="1460.79" y2="1580.12"/>
  <line id="right-margin-Heavy-L" style="fill:none;stroke:#00AEEF;stroke-width:0.5;opacity:1.0;" x1="2713.45" x2="2713.45" y1="1460.79" y2="1580.12"/>
  <line id="left-margin-Black-L" style="fill:none;stroke:#00AEEF;stroke-width:0.5;opacity:1.0;" x1="2855.62" x2="2855.62" y1="1460.79" y2="1580.12"/>
  <line id="right-margin-Black-L" style="fill:none;stroke:#00AEEF;stroke-width:0.5;opacity:1.0;" x1="3011.18" x2="3011.18" y1="1460.79" y2="1580.12"/>
 </g>
 <g id="Symbols">
  <g id="Black-L" transform="matrix(1 0 0 1 2855.62 1556)">
   <path class="hierarchical-0:tertiary SFSymbolsPreview8E8E8E" d="M39.9902 26.5137L115.576 26.5137Q127.002 26.5137 133.252 20.3125Q139.502 14.1113 139.502 2.68555L139.502-73.0957Q139.502-84.4727 133.252-90.6738Q127.002-96.875 115.576-96.875L39.9902-96.875Q28.5645-96.875 22.3145-90.6738Q16.0645-84.4727 16.0645-73.0957L16.0645 2.68555Q16.0645 14.1113 22.3145 20.3125Q28.5645 26.5137 39.9902 26.5137Z"/>
   <path class="hierarchical-1:primary SFSymbolsPreview212121" d="M65.1855-0.488281Q57.666-0.488281 53.5156-4.95605Q49.3652-9.42383 49.3652-17.5781L49.3652-23.7305Q49.3652-25.6836 48.7793-26.4404Q48.1934-27.1973 47.0215-27.4902Q44.0918-28.2715 42.6514-30.4199Q41.2109-32.5684 41.2109-35.1562Q41.2109-37.7441 42.6514-39.8926Q44.0918-42.041 47.0215-42.8223Q48.1934-43.1152 48.7793-43.7988Q49.3652-44.4824 49.3652-46.4844L49.3652-52.6855Q49.3652-60.8887 53.5156-65.3564Q57.666-69.8242 65.1855-69.8242Q69.1406-69.8242 71.4844-67.9932Q73.8281-66.1621 73.8281-63.1348Q73.8281-60.2051 72.1436-58.4473Q70.459-56.6895 67.7734-56.6895Q65.3809-56.6895 64.3799-55.4443Q63.3789-54.1992 63.3789-51.8066L63.3789-45.3125Q63.3789-39.9902 60.0342-36.6455Q56.6895-33.3008 50.7324-32.666L50.7324-37.9395Q56.6895-36.6699 60.0342-33.252Q63.3789-29.834 63.3789-25.0488L63.3789-18.457Q63.3789-16.1133 64.3799-14.8438Q65.3809-13.5742 67.7734-13.5742Q70.459-13.5742 72.1436-11.8408Q73.8281-10.1074 73.8281-7.17773Q73.8281-4.10156 71.4844-2.29492Q69.1406-0.488281 65.1855-0.488281ZM90.625-0.488281Q86.6699-0.488281 84.3018-2.29492Q81.9336-4.10156 81.9336-7.17773Q81.9336-10.1074 83.6426-11.8408Q85.3516-13.5742 88.0371-13.5742Q90.3809-13.5742 91.3818-14.8438Q92.3828-16.1133 92.3828-18.457L92.3828-25.0488Q92.3828-29.834 95.7275-33.252Q99.0723-36.6699 105.029-37.9395L105.029-32.666Q99.0723-33.3008 95.7275-36.6455Q92.3828-39.9902 92.3828-45.3125L92.3828-51.8066Q92.3828-54.1992 91.3818-55.4443Q90.3809-56.6895 88.0371-56.6895Q85.3516-56.6895 83.6426-58.4473Q81.9336-60.2051 81.9336-63.1348Q81.9336-66.1621 84.2529-67.9932Q86.5723-69.8242 90.625-69.8242Q98.0957-69.8242 102.246-65.3564Q106.396-60.8887 106.396-52.6855L106.396-46.4844Q106.396-44.4824 106.982-43.7988Q107.568-43.1152 108.789-42.8223Q111.719-42.1387 113.159-39.9658Q114.6-37.793 114.6-35.1562Q114.6-32.5195 113.159-30.3467Q111.719-28.1738 108.789-27.4902Q107.568-27.1973 106.982-26.4404Q106.396-25.6836 106.396-23.7305L106.396-17.5781Q106.396-9.42383 102.246-4.95605Q98.0957-0.488281 90.625-0.488281Z"/>
  </g>
  <g id="Heavy-L" transform="matrix(1 0 0 1 2559.93 1556)">
   <path class="hierarchical-0:tertiary SFSymbolsPreview8E8E8E" d="M38.8184 25.4883L114.697 25.4883Q125.684 25.4883 131.567 19.6289Q137.451 13.7695 137.451 2.88086L137.451-73.2422Q137.451-84.1309 131.567-89.9902Q125.684-95.8496 114.697-95.8496L38.8184-95.8496Q27.8809-95.8496 21.9727-89.9902Q16.0645-84.1309 16.0645-73.2422L16.0645 2.88086Q16.0645 13.8184 21.9727 19.6533Q27.8809 25.4883 38.8184 25.4883Z"/>
   <path class="hierarchical-1:primary SFSymbolsPreview212121" d="M64.1602-0.439453Q56.9336-0.439453 52.9297-4.6875Q48.9258-8.93555 48.9258-16.8945L48.9258-23.6328Q48.9258-25.9766 48.2178-26.8799Q47.5098-27.7832 45.9961-28.1738Q43.3594-28.9062 42.041-30.8594Q40.7227-32.8125 40.7227-35.1807Q40.7227-37.5488 42.041-39.502Q43.3594-41.4551 45.9961-42.1387Q47.5098-42.5293 48.2178-43.3838Q48.9258-44.2383 48.9258-46.6309L48.9258-53.418Q48.9258-61.377 52.9297-65.6494Q56.9336-69.9219 64.1602-69.9219Q67.7734-69.9219 69.873-68.2617Q71.9727-66.6016 71.9727-63.916Q71.9727-61.2305 70.4346-59.668Q68.8965-58.1055 66.4551-58.1055Q63.8184-58.1055 62.6953-56.7383Q61.5723-55.3711 61.5723-52.5391L61.5723-45.3613Q61.5723-40.2832 58.4229-37.0361Q55.2734-33.7891 49.7559-33.1543L49.7559-37.4023Q55.2734-36.2793 58.4229-32.9834Q61.5723-29.6875 61.5723-25L61.5723-17.7734Q61.5723-14.9414 62.6953-13.5742Q63.8184-12.207 66.4551-12.207Q68.8965-12.207 70.4346-10.6445Q71.9727-9.08203 71.9727-6.44531Q71.9727-3.71094 69.873-2.0752Q67.7734-0.439453 64.1602-0.439453ZM89.5996-0.439453Q85.9863-0.439453 83.8623-2.0752Q81.7383-3.71094 81.7383-6.44531Q81.7383-9.08203 83.3008-10.6445Q84.8633-12.207 87.3535-12.207Q89.8926-12.207 91.0156-13.5742Q92.1387-14.9414 92.1387-17.7734L92.1387-25Q92.1387-29.6875 95.2881-32.9834Q98.4375-36.2793 104.004-37.4023L104.004-33.1543Q98.4375-33.7891 95.2881-37.0361Q92.1387-40.2832 92.1387-45.3613L92.1387-52.5391Q92.1387-55.3711 91.0156-56.7383Q89.8926-58.1055 87.3535-58.1055Q84.8633-58.1055 83.3008-59.668Q81.7383-61.2305 81.7383-63.916Q81.7383-66.6016 83.8379-68.2617Q85.9375-69.9219 89.5996-69.9219Q96.7773-69.9219 100.781-65.6494Q104.785-61.377 104.785-53.418L104.785-46.6309Q104.785-44.2383 105.493-43.3838Q106.201-42.5293 107.764-42.1387Q110.4-41.5039 111.719-39.5264Q113.037-37.5488 113.037-35.1562Q113.037-32.7637 111.719-30.7861Q110.4-28.8086 107.764-28.1738Q106.201-27.7832 105.493-26.8799Q104.785-25.9766 104.785-23.6328L104.785-16.8945Q104.785-8.93555 100.781-4.6875Q96.7773-0.439453 89.5996-0.439453Z"/>
  </g>
  <g id="Bold-L" transform="matrix(1 0 0 1 2264.34 1556)">
   <path class="hierarchical-0:tertiary SFSymbolsPreview8E8E8E" d="M37.5488 24.3652L113.721 24.3652Q124.17 24.3652 129.688 18.8965Q135.205 13.4277 135.205 3.07617L135.205-73.4375Q135.205-83.7891 129.688-89.2578Q124.17-94.7266 113.721-94.7266L37.5488-94.7266Q27.0996-94.7266 21.582-89.2578Q16.0645-83.7891 16.0645-73.4375L16.0645 3.07617Q16.0645 13.4766 21.582 18.9209Q27.0996 24.3652 37.5488 24.3652Z"/>
   <path class="hierarchical-1:primary SFSymbolsPreview212121" d="M62.9883-0.341797Q56.1035-0.341797 52.2705-4.37012Q48.4375-8.39844 48.4375-16.1133L48.4375-23.5352Q48.4375-26.3184 47.6074-27.3926Q46.7773-28.4668 44.8242-28.9551Q42.4805-29.5898 41.3086-31.3477Q40.1367-33.1055 40.1367-35.2051Q40.1367-37.3047 41.3086-39.0381Q42.4805-40.7715 44.8242-41.4062Q46.7773-41.8945 47.6074-42.9199Q48.4375-43.9453 48.4375-46.7773L48.4375-54.248Q48.4375-61.9629 52.2705-65.9912Q56.1035-70.0195 62.9883-70.0195Q66.2109-70.0195 68.042-68.5547Q69.873-67.0898 69.873-64.7461Q69.873-62.4512 68.4814-61.0596Q67.0898-59.668 64.9414-59.668Q62.0605-59.668 60.791-58.1787Q59.5215-56.6895 59.5215-53.3691L59.5215-45.459Q59.5215-40.625 56.6162-37.4756Q53.7109-34.3262 48.584-33.7402L48.584-36.8652Q53.7109-35.8887 56.6162-32.7148Q59.5215-29.541 59.5215-24.9512L59.5215-16.9922Q59.5215-13.6719 60.791-12.1826Q62.0605-10.6934 64.9414-10.6934Q67.0898-10.6934 68.4814-9.32617Q69.873-7.95898 69.873-5.61523Q69.873-3.22266 68.042-1.78223Q66.2109-0.341797 62.9883-0.341797ZM88.4277-0.341797Q85.2051-0.341797 83.3496-1.78223Q81.4941-3.22266 81.4941-5.61523Q81.4941-7.95898 82.9102-9.32617Q84.3262-10.6934 86.5234-10.6934Q89.3555-10.6934 90.625-12.1826Q91.8945-13.6719 91.8945-16.9922L91.8945-24.9512Q91.8945-29.541 94.7998-32.7148Q97.7051-35.8887 102.783-36.8652L102.783-33.7402Q97.7051-34.3262 94.7998-37.4756Q91.8945-40.625 91.8945-45.459L91.8945-53.3691Q91.8945-56.6895 90.625-58.1787Q89.3555-59.668 86.5234-59.668Q84.3262-59.668 82.9102-61.0596Q81.4941-62.4512 81.4941-64.7461Q81.4941-67.0898 83.3252-68.5547Q85.1562-70.0195 88.4277-70.0195Q95.3125-70.0195 99.1455-65.9912Q102.979-61.9629 102.979-54.248L102.979-46.7773Q102.979-43.9453 103.809-42.9443Q104.639-41.9434 106.592-41.4062Q108.936-40.8203 110.107-39.0625Q111.279-37.3047 111.279-35.1807Q111.279-33.0566 110.107-31.2988Q108.936-29.541 106.592-28.9551Q104.639-28.4668 103.809-27.3926Q102.979-26.3184 102.979-23.5352L102.979-16.1133Q102.979-8.39844 99.1455-4.37012Q95.3125-0.341797 88.4277-0.341797Z"/>
  </g>
  <g id="Semibold-L" transform="matrix(1 0 0 1 1968.44 1556)">
   <path class="hierarchical-0:tertiary SFSymbolsPreview8E8E8E" d="M36.6211 23.584L112.988 23.584Q123.145 23.584 128.369 18.3838Q133.594 13.1836 133.594 3.17383L133.594-73.5352Q133.594-83.4961 128.369-88.6963Q123.145-93.8965 112.988-93.8965L36.6211-93.8965Q26.5625-93.8965 21.3135-88.7207Q16.0645-83.5449 16.0645-73.5352L16.0645 3.17383Q16.0645 13.2324 21.3135 18.4082Q26.5625 23.584 36.6211 23.584Z"/>
   <path class="hierarchical-1:primary SFSymbolsPreview212121" d="M62.207-0.292969Q55.5176-0.292969 51.7822-4.15039Q48.0469-8.00781 48.0469-15.5273L48.0469-23.4375Q48.0469-26.5625 47.1436-27.7344Q46.2402-28.9062 43.9941-29.4922Q41.8457-30.0781 40.7959-31.665Q39.7461-33.252 39.7461-35.1807Q39.7461-37.1094 40.7959-38.7207Q41.8457-40.332 43.9941-40.8691Q46.2402-41.4551 47.1436-42.6025Q48.0469-43.75 48.0469-46.875L48.0469-54.7852Q48.0469-62.3535 51.7822-66.2109Q55.5176-70.0684 62.207-70.0684Q65.0879-70.0684 66.7725-68.75Q68.457-67.4316 68.457-65.332Q68.457-63.2324 67.1631-61.9873Q65.8691-60.7422 63.8672-60.7422Q60.8398-60.7422 59.4727-59.1797Q58.1055-57.6172 58.1055-53.9062L58.1055-45.459Q58.1055-40.8203 55.3467-37.7686Q52.5879-34.7168 47.8027-34.082L47.8027-36.4258Q52.5879-35.5957 55.3467-32.4951Q58.1055-29.3945 58.1055-24.9023L58.1055-16.4062Q58.1055-12.793 59.4727-11.2061Q60.8398-9.61914 63.8672-9.61914Q65.8691-9.61914 67.1631-8.37402Q68.457-7.12891 68.457-5.0293Q68.457-2.88086 66.7725-1.58691Q65.0879-0.292969 62.207-0.292969ZM87.5977-0.292969Q84.668-0.292969 83.0078-1.58691Q81.3477-2.88086 81.3477-5.0293Q81.3477-7.12891 82.6416-8.37402Q83.9355-9.61914 85.9375-9.61914Q88.9648-9.61914 90.332-11.2061Q91.6992-12.793 91.6992-16.4062L91.6992-24.9023Q91.6992-29.3945 94.458-32.4951Q97.2168-35.5957 101.953-36.4258L101.953-34.082Q97.2168-34.7168 94.458-37.7686Q91.6992-40.8203 91.6992-45.459L91.6992-53.9062Q91.6992-57.6172 90.332-59.1797Q88.9648-60.7422 85.9375-60.7422Q83.9355-60.7422 82.6416-61.9873Q81.3477-63.2324 81.3477-65.332Q81.3477-67.4316 82.9834-68.75Q84.6191-70.0684 87.5977-70.0684Q94.2871-70.0684 97.998-66.2109Q101.709-62.3535 101.709-54.7852L101.709-46.875Q101.709-43.75 102.637-42.627Q103.564-41.5039 105.811-40.8691Q107.91-40.332 108.984-38.7207Q110.059-37.1094 110.059-35.1807Q110.059-33.252 108.984-31.6406Q107.91-30.0293 105.811-29.4922Q103.564-28.9062 102.637-27.7344Q101.709-26.5625 101.709-23.4375L101.709-15.5273Q101.709-8.00781 97.998-4.15039Q94.2871-0.292969 87.5977-0.292969Z"/>
  </g>
  <g id="Medium-L" transform="matrix(1 0 0 1 1672.31 1556)">
   <path class="hierarchical-0:tertiary SFSymbolsPreview8E8E8E" d="M35.9375 22.998L112.5 22.998Q122.363 22.998 127.393 17.9932Q132.422 12.9883 132.422 3.27148L132.422-73.6328Q132.422-83.3008 127.393-88.3057Q122.363-93.3105 112.5-93.3105L35.9375-93.3105Q26.1719-93.3105 21.1182-88.3301Q16.0645-83.3496 16.0645-73.6328L16.0645 3.27148Q16.0645 13.0371 21.1182 18.0176Q26.1719 22.998 35.9375 22.998Z"/>
   <path class="hierarchical-1:primary SFSymbolsPreview212121" d="M61.5723-0.244141Q55.127-0.244141 51.4648-4.00391Q47.8027-7.76367 47.8027-15.1367L47.8027-23.3887Q47.8027-26.709 46.8262-27.9785Q45.8496-29.248 43.3594-29.8828Q41.4062-30.4199 40.4297-31.9092Q39.4531-33.3984 39.4531-35.1807Q39.4531-36.9629 40.4297-38.4521Q41.4062-39.9414 43.3594-40.4785Q45.8496-41.1133 46.8262-42.3584Q47.8027-43.6035 47.8027-46.9727L47.8027-55.2246Q47.8027-62.6465 51.4648-66.4062Q55.127-70.166 61.5723-70.166Q64.3066-70.166 65.8203-68.9209Q67.334-67.6758 67.334-65.7715Q67.334-63.8672 66.1377-62.6953Q64.9414-61.5234 63.0859-61.5234Q59.9121-61.5234 58.4717-59.9121Q57.0312-58.3008 57.0312-54.3457L57.0312-45.5078Q57.0312-41.0156 54.3945-37.9883Q51.7578-34.9609 47.2168-34.375L47.2168-36.1328Q51.7578-35.4004 54.3945-32.3486Q57.0312-29.2969 57.0312-24.8535L57.0312-16.0156Q57.0312-12.1094 58.4717-10.4492Q59.9121-8.78906 63.0859-8.78906Q64.9414-8.78906 66.1377-7.66602Q67.334-6.54297 67.334-4.63867Q67.334-2.63672 65.8203-1.44043Q64.3066-0.244141 61.5723-0.244141ZM86.9629-0.244141Q84.2773-0.244141 82.7393-1.44043Q81.2012-2.63672 81.2012-4.63867Q81.2012-6.54297 82.4463-7.66602Q83.6914-8.78906 85.498-8.78906Q88.6719-8.78906 90.1123-10.4492Q91.5527-12.1094 91.5527-16.0156L91.5527-24.8535Q91.5527-29.2969 94.1895-32.3486Q96.8262-35.4004 101.367-36.1328L101.367-34.375Q96.8262-34.9609 94.1895-37.9883Q91.5527-41.0156 91.5527-45.5078L91.5527-54.3457Q91.5527-58.3008 90.1123-59.9121Q88.6719-61.5234 85.498-61.5234Q83.6914-61.5234 82.4463-62.6953Q81.2012-63.8672 81.2012-65.7715Q81.2012-67.6758 82.7393-68.9209Q84.2773-70.166 86.9629-70.166Q93.5059-70.166 97.1191-66.4062Q100.732-62.6465 100.732-55.2246L100.732-46.9727Q100.732-43.6035 101.758-42.3828Q102.783-41.1621 105.176-40.4785Q107.178-39.9902 108.154-38.501Q109.131-37.0117 109.131-35.2051Q109.131-33.3984 108.154-31.9092Q107.178-30.4199 105.176-29.8828Q102.783-29.2969 101.758-28.0029Q100.732-26.709 100.732-23.3887L100.732-15.1367Q100.732-7.76367 97.1191-4.00391Q93.5059-0.244141 86.9629-0.244141Z"/>
  </g>
  <g id="Regular-L" transform="matrix(1 0 0 1 1376.38 1556)">
   <path class="hierarchical-0:tertiary SFSymbolsPreview8E8E8E" d="M35.0586 22.2168L111.816 22.2168Q121.338 22.2168 126.099 17.4805Q130.859 12.7441 130.859 3.41797L130.859-73.7305Q130.859-83.0566 126.099-87.793Q121.338-92.5293 111.816-92.5293L35.0586-92.5293Q25.6348-92.5293 20.8496-87.8174Q16.0645-83.1055 16.0645-73.7305L16.0645 3.41797Q16.0645 12.793 20.8496 17.5049Q25.6348 22.2168 35.0586 22.2168Z"/>
   <path class="hierarchical-1:primary SFSymbolsPreview212121" d="M60.791-0.195312Q54.541-0.195312 51.001-3.78418Q47.4609-7.37305 47.4609-14.5996L47.4609-23.291Q47.4609-26.9531 46.3867-28.3203Q45.3125-29.6875 42.5781-30.4199Q40.8203-30.9082 39.9414-32.251Q39.0625-33.5938 39.0625-35.2051Q39.0625-36.8164 39.9414-38.1592Q40.8203-39.502 42.5781-39.9414Q45.3125-40.6738 46.3867-42.041Q47.4609-43.4082 47.4609-47.0703L47.4609-55.7617Q47.4609-63.0371 51.001-66.626Q54.541-70.2148 60.791-70.2148Q63.2324-70.2148 64.5752-69.1162Q65.918-68.0176 65.918-66.3574Q65.918-64.6484 64.8193-63.623Q63.7207-62.5977 62.0605-62.5977Q58.6914-62.5977 57.1533-60.8887Q55.6152-59.1797 55.6152-54.8828L55.6152-45.5566Q55.6152-41.2109 53.1494-38.2812Q50.6836-35.3516 46.4355-34.7656L46.4355-35.7422Q50.6836-35.1074 53.1494-32.1533Q55.6152-29.1992 55.6152-24.8047L55.6152-15.4785Q55.6152-11.2305 57.1533-9.49707Q58.6914-7.76367 62.0605-7.76367Q63.7207-7.76367 64.8193-6.7627Q65.918-5.76172 65.918-4.05273Q65.918-2.34375 64.5752-1.26953Q63.2324-0.195312 60.791-0.195312ZM86.1816-0.195312Q83.7402-0.195312 82.3975-1.26953Q81.0547-2.34375 81.0547-4.05273Q81.0547-5.76172 82.1777-6.7627Q83.3008-7.76367 84.9609-7.76367Q88.2812-7.76367 89.8193-9.49707Q91.3574-11.2305 91.3574-15.4785L91.3574-24.8047Q91.3574-29.1992 93.8477-32.1533Q96.3379-35.1074 100.537-35.7422L100.537-34.7656Q96.3379-35.3516 93.8477-38.2812Q91.3574-41.2109 91.3574-45.5566L91.3574-54.8828Q91.3574-59.1797 89.8193-60.8887Q88.2812-62.5977 84.9609-62.5977Q83.3008-62.5977 82.1777-63.623Q81.0547-64.6484 81.0547-66.3574Q81.0547-68.0176 82.3975-69.1162Q83.7402-70.2148 86.1816-70.2148Q92.4805-70.2148 95.9961-66.626Q99.5117-63.0371 99.5117-55.7617L99.5117-47.0703Q99.5117-43.4082 100.61-42.0654Q101.709-40.7227 104.395-39.9414Q106.152-39.502 107.031-38.1592Q107.91-36.8164 107.91-35.2051Q107.91-33.5938 107.031-32.251Q106.152-30.9082 104.395-30.4199Q101.709-29.7363 100.61-28.3447Q99.5117-26.9531 99.5117-23.291L99.5117-14.5996Q99.5117-7.37305 95.9961-3.78418Q92.4805-0.195312 86.1816-0.195312Z"/>
  </g>
  <g id="Light-L" transform="matrix(1 0 0 1 1080.5 1556)">
   <path class="hierarchical-0:tertiary SFSymbolsPreview8E8E8E" d="M34.0332 21.4355L111.182 21.4355Q120.117 21.4355 124.658 16.8945Q129.199 12.3535 129.199 3.56445L129.199-73.8281Q129.199-82.6172 124.658-87.1582Q120.117-91.6992 111.182-91.6992L34.0332-91.6992Q25.1465-91.6992 20.6055-87.207Q16.0645-82.7148 16.0645-73.8281L16.0645 3.56445Q16.0645 12.4023 20.6055 16.9189Q25.1465 21.4355 34.0332 21.4355Z"/>
   <path class="hierarchical-1:primary SFSymbolsPreview212121" d="M60.2539-0.732422Q54.4434-0.732422 51.123-4.05273Q47.8027-7.37305 47.8027-14.0625L47.8027-23.6328Q47.8027-27.5391 46.5576-29.0527Q45.3125-30.5664 42.2852-31.3965Q40.8691-31.7871 40.1855-32.8613Q39.502-33.9355 39.502-35.2295Q39.502-36.5234 40.1855-37.5977Q40.8691-38.6719 42.2852-39.0137Q45.3125-39.8438 46.5576-41.3574Q47.8027-42.8711 47.8027-46.7773L47.8027-56.3477Q47.8027-63.0859 51.123-66.4062Q54.4434-69.7266 60.2539-69.7266Q62.0117-69.7266 63.0371-68.8477Q64.0625-67.9688 64.0625-66.6992Q64.0625-65.3809 63.1836-64.5752Q62.3047-63.7695 61.0352-63.7695Q57.666-63.7695 55.8838-61.9385Q54.1016-60.1074 54.1016-55.4688L54.1016-45.459Q54.1016-41.1133 51.709-38.208Q49.3164-35.3027 45.3125-34.9121L45.3125-35.5957Q49.3164-35.2051 51.709-32.2754Q54.1016-29.3457 54.1016-24.9512L54.1016-14.9414Q54.1016-10.3516 55.8838-8.52051Q57.666-6.68945 61.0352-6.68945Q62.3047-6.68945 63.1836-5.88379Q64.0625-5.07812 64.0625-3.75977Q64.0625-2.44141 63.0371-1.58691Q62.0117-0.732422 60.2539-0.732422ZM85.0586-0.732422Q83.252-0.732422 82.2266-1.58691Q81.2012-2.44141 81.2012-3.75977Q81.2012-5.07812 82.1045-5.88379Q83.0078-6.68945 84.2773-6.68945Q87.6465-6.68945 89.4287-8.52051Q91.2109-10.3516 91.2109-14.9414L91.2109-24.9512Q91.2109-29.3457 93.6035-32.2754Q95.9961-35.2051 99.9512-35.5957L99.9512-34.9121Q95.9961-35.3027 93.6035-38.208Q91.2109-41.1133 91.2109-45.459L91.2109-55.4688Q91.2109-60.1074 89.4287-61.9385Q87.6465-63.7695 84.2773-63.7695Q83.0078-63.7695 82.1045-64.5752Q81.2012-65.3809 81.2012-66.6992Q81.2012-67.9688 82.2266-68.8477Q83.252-69.7266 85.0586-69.7266Q90.918-69.7266 94.2139-66.4062Q97.5098-63.0859 97.5098-56.3477L97.5098-46.7773Q97.5098-42.8711 98.7549-41.4062Q100-39.9414 103.027-39.0137Q104.395-38.623 105.078-37.5488Q105.762-36.4746 105.762-35.2051Q105.762-33.9355 105.078-32.8613Q104.395-31.7871 103.027-31.3965Q100-30.6152 98.7549-29.0771Q97.5098-27.5391 97.5098-23.6328L97.5098-14.0625Q97.5098-7.37305 94.2139-4.05273Q90.918-0.732422 85.0586-0.732422Z"/>
  </g>
  <g id="Thin-L" transform="matrix(1 0 0 1 784.889 1556)">
   <path class="hierarchical-0:tertiary SFSymbolsPreview8E8E8E" d="M32.666 20.3613L110.352 20.3613Q118.506 20.3613 122.754 16.0889Q127.002 11.8164 127.002 3.75977L127.002-73.9746Q127.002-82.0312 122.754-86.3037Q118.506-90.5762 110.352-90.5762L32.666-90.5762Q24.5117-90.5762 20.2881-86.377Q16.0645-82.1777 16.0645-73.9746L16.0645 3.75977Q16.0645 11.9141 20.2881 16.1377Q24.5117 20.3613 32.666 20.3613Z"/>
   <path class="hierarchical-1:primary SFSymbolsPreview212121" d="M59.4727-1.46484Q54.1992-1.46484 51.1719-4.39453Q48.1445-7.32422 48.1445-13.4277L48.1445-24.1211Q48.1445-28.3203 46.7285-30.0293Q45.3125-31.7383 41.7969-32.7637Q40.918-32.959 40.4785-33.6914Q40.0391-34.4238 40.0391-35.2783Q40.0391-36.1328 40.4541-36.8408Q40.8691-37.5488 41.7969-37.7441Q45.3125-38.7207 46.7285-40.4541Q48.1445-42.1875 48.1445-46.3867L48.1445-57.0801Q48.1445-63.1836 51.1719-66.1133Q54.1992-69.043 59.4727-69.043Q60.4004-69.043 60.9863-68.5059Q61.5723-67.9688 61.5723-67.1875Q61.5723-66.3574 61.0107-65.8203Q60.4492-65.2832 59.668-65.2832Q56.2012-65.2832 54.1016-63.3301Q52.002-61.377 52.002-56.2012L52.002-45.3613Q52.002-40.9668 49.7314-38.0859Q47.4609-35.2051 43.8477-35.1562L43.8477-35.4004Q47.4609-35.3027 49.7314-32.4219Q52.002-29.541 52.002-25.1465L52.002-14.3066Q52.002-9.17969 54.1016-7.20215Q56.2012-5.22461 59.668-5.22461Q60.4492-5.22461 61.0107-4.71191Q61.5723-4.19922 61.5723-3.36914Q61.5723-2.53906 60.9863-2.00195Q60.4004-1.46484 59.4727-1.46484ZM83.4961-1.46484Q82.6172-1.46484 82.0068-2.00195Q81.3965-2.53906 81.3965-3.36914Q81.3965-4.19922 81.958-4.71191Q82.5195-5.22461 83.3496-5.22461Q86.7676-5.22461 88.8428-7.20215Q90.918-9.17969 90.918-14.3066L90.918-25.1465Q90.918-29.541 93.2129-32.4219Q95.5078-35.3027 99.1211-35.4004L99.1211-35.1562Q95.5078-35.2051 93.2129-38.0859Q90.918-40.9668 90.918-45.3613L90.918-56.2012Q90.918-61.377 88.8428-63.3301Q86.7676-65.2832 83.3496-65.2832Q82.5195-65.2832 81.958-65.8203Q81.3965-66.3574 81.3965-67.1875Q81.3965-67.9688 82.0068-68.5059Q82.6172-69.043 83.4961-69.043Q88.7695-69.043 91.7725-66.1133Q94.7754-63.1836 94.7754-57.0801L94.7754-46.3867Q94.7754-42.1875 96.2402-40.5273Q97.7051-38.8672 101.172-37.7441Q102.051-37.5 102.49-36.7676Q102.93-36.0352 102.93-35.2051Q102.93-34.375 102.49-33.667Q102.051-32.959 101.172-32.7637Q97.7051-31.7871 96.2402-30.0537Q94.7754-28.3203 94.7754-24.1211L94.7754-13.4277Q94.7754-7.32422 91.7725-4.39453Q88.7695-1.46484 83.4961-1.46484Z"/>
  </g>
  <g id="Ultralight-L" transform="matrix(1 0 0 1 488.739 1556)">
   <path class="hierarchical-0:tertiary SFSymbolsPreview8E8E8E" d="M31.9824 19.8242L109.961 19.8242Q117.725 19.8242 121.802 15.6738Q125.879 11.5234 125.879 3.85742L125.879-74.0723Q125.879-81.7383 121.802-85.8643Q117.725-89.9902 109.961-89.9902L31.9824-89.9902Q24.1699-89.9902 20.1172-85.9375Q16.0645-81.8848 16.0645-74.0723L16.0645 3.85742Q16.0645 11.6699 20.1172 15.7471Q24.1699 19.8242 31.9824 19.8242Z"/>
   <path class="hierarchical-1:primary SFSymbolsPreview212121" d="M59.1309-1.80664Q54.1504-1.80664 51.2695-4.56543Q48.3887-7.32422 48.3887-13.0371L48.3887-24.3652Q48.3887-28.7109 46.8506-30.5176Q45.3125-32.3242 41.6016-33.3984Q40.9668-33.5938 40.6494-34.1064Q40.332-34.6191 40.332-35.2539Q40.332-35.8887 40.625-36.4258Q40.918-36.9629 41.6016-37.1094Q45.3125-38.1836 46.8506-39.9902Q48.3887-41.7969 48.3887-46.1914L48.3887-57.4707Q48.3887-63.2324 51.2695-65.9668Q54.1504-68.7012 59.1309-68.7012Q59.5703-68.7012 59.9365-68.3105Q60.3027-67.9199 60.3027-67.3828Q60.3027-66.8945 59.8877-66.4795Q59.4727-66.0645 58.9844-66.0645Q55.5176-66.0645 53.2471-64.0381Q50.9766-62.0117 50.9766-56.5918L50.9766-45.2637Q50.9766-40.8691 48.7549-38.0127Q46.5332-35.1562 43.0664-35.2539L43.0664-35.3027Q46.5332-35.4004 48.7549-32.5195Q50.9766-29.6387 50.9766-25.2441L50.9766-13.916Q50.9766-8.59375 53.2471-6.54297Q55.5176-4.49219 58.9844-4.49219Q59.4727-4.49219 59.8877-4.10156Q60.3027-3.71094 60.3027-3.125Q60.3027-2.63672 59.9365-2.22168Q59.5703-1.80664 59.1309-1.80664ZM82.7148-1.80664Q82.2754-1.80664 81.8848-2.22168Q81.4941-2.63672 81.4941-3.125Q81.4941-3.71094 81.9092-4.10156Q82.3242-4.49219 82.8613-4.49219Q86.3281-4.49219 88.5742-6.54297Q90.8203-8.59375 90.8203-13.916L90.8203-25.2441Q90.8203-29.6387 93.042-32.5195Q95.2637-35.4004 98.7305-35.3027L98.7305-35.2539Q95.2637-35.1562 93.042-38.0127Q90.8203-40.8691 90.8203-45.2637L90.8203-56.5918Q90.8203-62.0117 88.5742-64.0381Q86.3281-66.0645 82.8613-66.0645Q82.3242-66.0645 81.9092-66.4795Q81.4941-66.8945 81.4941-67.3828Q81.4941-67.9199 81.8848-68.3105Q82.2754-68.7012 82.7148-68.7012Q87.6953-68.7012 90.5518-65.9668Q93.4082-63.2324 93.4082-57.4707L93.4082-46.1914Q93.4082-41.7969 94.9951-40.0635Q96.582-38.3301 100.244-37.1094Q100.879-36.9141 101.172-36.377Q101.465-35.8398 101.465-35.2051Q101.465-34.5703 101.147-34.082Q100.83-33.5938 100.244-33.3984Q96.5332-32.4219 94.9707-30.5664Q93.4082-28.7109 93.4082-24.3652L93.4082-13.0371Q93.4082-7.32422 90.5518-4.56543Q87.6953-1.80664 82.7148-1.80664Z"/>
  </g>
  <g id="Black-M" transform="matrix(1 0 0 1 2872.54 1126)">
   <path class="hierarchical-0:tertiary SFSymbolsPreview8E8E8E" d="M31.5918 13.2324L90.1367 13.2324Q99.1699 13.2324 104.224 8.17871Q109.277 3.125 109.277-5.9082L109.277-64.4531Q109.277-73.5352 104.224-78.5645Q99.1699-83.5938 90.1367-83.5938L31.5918-83.5938Q22.5586-83.5938 17.5049-78.5645Q12.4512-73.5352 12.4512-64.4531L12.4512-5.9082Q12.4512 3.125 17.5049 8.17871Q22.5586 13.2324 31.5918 13.2324Z"/>
   <path class="hierarchical-1:primary SFSymbolsPreview212121" d="M51.1719-8.54492Q45.2637-8.54492 41.9922-12.085Q38.7207-15.625 38.7207-21.9727L38.7207-26.5137Q38.7207-27.7344 38.3057-28.2715Q37.8906-28.8086 37.1582-28.9551Q34.8145-29.5898 33.6426-31.3477Q32.4707-33.1055 32.4707-35.1807Q32.4707-37.2559 33.6426-39.0137Q34.8145-40.7715 37.1582-41.3574Q37.8906-41.5527 38.3057-41.9922Q38.7207-42.4316 38.7207-43.7012L38.7207-48.3398Q38.7207-54.6875 41.9922-58.252Q45.2637-61.8164 51.1719-61.8164Q54.3457-61.8164 56.25-60.3271Q58.1543-58.8379 58.1543-56.2988Q58.1543-53.9551 56.7871-52.5146Q55.4199-51.0742 53.2715-51.0742Q51.6113-51.0742 50.8545-50.1465Q50.0977-49.2188 50.0977-47.6562L50.0977-42.9688Q50.0977-38.6719 47.3877-35.9863Q44.6777-33.3008 39.7949-32.8613L39.7949-37.6953Q44.6777-36.7188 47.3877-33.96Q50.0977-31.2012 50.0977-27.4414L50.0977-22.6562Q50.0977-21.0938 50.8545-20.166Q51.6113-19.2383 53.2715-19.2383Q55.4199-19.2383 56.7871-17.8223Q58.1543-16.4062 58.1543-14.0137Q58.1543-11.5234 56.2256-10.0342Q54.2969-8.54492 51.1719-8.54492ZM70.6543-8.54492Q67.5293-8.54492 65.6006-10.0342Q63.6719-11.5234 63.6719-14.0137Q63.6719-16.4062 65.0391-17.8223Q66.4062-19.2383 68.5547-19.2383Q70.2148-19.2383 70.9717-20.166Q71.7285-21.0938 71.7285-22.6562L71.7285-27.4414Q71.7285-31.2012 74.4629-33.96Q77.1973-36.7188 82.0801-37.6953L82.0801-32.8613Q77.1973-33.3008 74.4629-35.9863Q71.7285-38.6719 71.7285-42.9688L71.7285-47.6562Q71.7285-49.2188 70.9717-50.1465Q70.2148-51.0742 68.5547-51.0742Q66.4062-51.0742 65.0391-52.5146Q63.6719-53.9551 63.6719-56.2988Q63.6719-58.8379 65.5518-60.3271Q67.4316-61.8164 70.6543-61.8164Q76.5625-61.8164 79.834-58.252Q83.1055-54.6875 83.1055-48.3398L83.1055-43.7012Q83.1055-42.4316 83.5205-41.9922Q83.9355-41.5527 84.668-41.3574Q87.0605-40.8203 88.2324-39.0625Q89.4043-37.3047 89.4043-35.1807Q89.4043-33.0566 88.2324-31.2744Q87.0605-29.4922 84.668-28.9551Q83.9355-28.8086 83.5205-28.2715Q83.1055-27.7344 83.1055-26.5137L83.1055-21.9727Q83.1055-15.625 79.834-12.085Q76.5625-8.54492 70.6543-8.54492Z"/>
  </g>
  <g id="Heavy-M" transform="matrix(1 0 0 1 2576.65 1126)">
   <path class="hierarchical-0:tertiary SFSymbolsPreview8E8E8E" d="M30.7129 12.4023L89.4043 12.4023Q98.0957 12.4023 102.856 7.66602Q107.617 2.92969 107.617-5.76172L107.617-64.5996Q107.617-73.291 102.856-78.0273Q98.0957-82.7637 89.4043-82.7637L30.7129-82.7637Q21.9727-82.7637 17.2119-78.0273Q12.4512-73.291 12.4512-64.5996L12.4512-5.76172Q12.4512 2.92969 17.2119 7.66602Q21.9727 12.4023 30.7129 12.4023Z"/>
   <path class="hierarchical-1:primary SFSymbolsPreview212121" d="M50.293-8.34961Q44.5801-8.34961 41.4062-11.7676Q38.2324-15.1855 38.2324-21.3867L38.2324-26.3184Q38.2324-27.9297 37.7441-28.5645Q37.2559-29.1992 36.2305-29.4434Q34.082-29.9805 32.9834-31.6162Q31.8848-33.252 31.8848-35.1807Q31.8848-37.1094 32.959-38.7451Q34.0332-40.3809 36.2305-40.918Q37.2559-41.1621 37.7441-41.7236Q38.2324-42.2852 38.2324-43.8965L38.2324-48.9258Q38.2324-55.1758 41.4062-58.5938Q44.5801-62.0117 50.293-62.0117Q53.2715-62.0117 55.0049-60.6445Q56.7383-59.2773 56.7383-56.9824Q56.7383-54.834 55.4688-53.5156Q54.1992-52.1973 52.1973-52.1973Q50.293-52.1973 49.4873-51.1963Q48.6816-50.1953 48.6816-48.2422L48.6816-43.0664Q48.6816-38.9648 46.1426-36.377Q43.6035-33.7891 39.0625-33.3008L39.0625-37.207Q43.6035-36.3281 46.1426-33.667Q48.6816-31.0059 48.6816-27.3438L48.6816-22.0703Q48.6816-20.166 49.4873-19.165Q50.293-18.1641 52.1973-18.1641Q54.1992-18.1641 55.4688-16.8701Q56.7383-15.5762 56.7383-13.3789Q56.7383-11.084 54.9805-9.7168Q53.2227-8.34961 50.293-8.34961ZM69.873-8.34961Q66.9922-8.34961 65.2344-9.7168Q63.4766-11.084 63.4766-13.3789Q63.4766-15.5762 64.7461-16.8701Q66.0156-18.1641 68.0176-18.1641Q69.873-18.1641 70.7031-19.165Q71.5332-20.166 71.5332-22.0703L71.5332-27.3438Q71.5332-31.0059 74.0967-33.667Q76.6602-36.3281 81.2012-37.207L81.2012-33.3008Q76.6602-33.7891 74.0967-36.377Q71.5332-38.9648 71.5332-43.0664L71.5332-48.2422Q71.5332-50.1953 70.7031-51.1963Q69.873-52.1973 68.0176-52.1973Q66.0156-52.1973 64.7461-53.5156Q63.4766-54.834 63.4766-56.9824Q63.4766-59.2773 65.1855-60.6445Q66.8945-62.0117 69.873-62.0117Q75.6348-62.0117 78.8086-58.5938Q81.9824-55.1758 81.9824-48.9258L81.9824-43.8965Q81.9824-42.2852 82.4707-41.7236Q82.959-41.1621 83.9844-40.918Q86.1816-40.4297 87.2559-38.7939Q88.3301-37.1582 88.3301-35.2051Q88.3301-33.252 87.2559-31.5918Q86.1816-29.9316 83.9844-29.4434Q82.959-29.1992 82.4707-28.5645Q81.9824-27.9297 81.9824-26.3184L81.9824-21.3867Q81.9824-15.1855 78.8086-11.7676Q75.6348-8.34961 69.873-8.34961Z"/>
  </g>
  <g id="Bold-M" transform="matrix(1 0 0 1 2280.85 1126)">
   <path class="hierarchical-0:tertiary SFSymbolsPreview8E8E8E" d="M29.6875 11.5234L88.5742 11.5234Q96.9238 11.5234 101.367 7.10449Q105.811 2.68555 105.811-5.66406L105.811-64.7461Q105.811-73.0469 101.367-77.4658Q96.9238-81.8848 88.5742-81.8848L29.6875-81.8848Q21.3379-81.8848 16.8945-77.4658Q12.4512-73.0469 12.4512-64.7461L12.4512-5.66406Q12.4512 2.68555 16.8945 7.10449Q21.3379 11.5234 29.6875 11.5234Z"/>
   <path class="hierarchical-1:primary SFSymbolsPreview212121" d="M49.3652-8.1543Q43.8477-8.1543 40.7715-11.4014Q37.6953-14.6484 37.6953-20.752L37.6953-26.1719Q37.6953-28.125 37.1094-28.8818Q36.5234-29.6387 35.2051-29.9805Q33.252-30.4688 32.2754-31.958Q31.2988-33.4473 31.2988-35.2051Q31.2988-36.9629 32.2754-38.4277Q33.252-39.8926 35.2051-40.4297Q36.5234-40.7715 37.1094-41.4795Q37.6953-42.1875 37.6953-44.1406L37.6953-49.6094Q37.6953-55.7129 40.7715-58.9844Q43.8477-62.2559 49.3652-62.2559Q52.0508-62.2559 53.6133-61.0107Q55.1758-59.7656 55.1758-57.7148Q55.1758-55.8105 54.0039-54.6387Q52.832-53.4668 51.0254-53.4668Q48.877-53.4668 47.9736-52.3682Q47.0703-51.2695 47.0703-48.9258L47.0703-43.1641Q47.0703-39.3066 44.7266-36.8164Q42.3828-34.3262 38.2324-33.8379L38.2324-36.7188Q42.3828-35.9375 44.7266-33.3984Q47.0703-30.8594 47.0703-27.2949L47.0703-21.4355Q47.0703-19.1406 47.9736-18.042Q48.877-16.9434 51.0254-16.9434Q52.832-16.9434 54.0039-15.7715Q55.1758-14.5996 55.1758-12.6465Q55.1758-10.6445 53.6133-9.39941Q52.0508-8.1543 49.3652-8.1543ZM69.0918-8.1543Q66.4062-8.1543 64.8193-9.39941Q63.2324-10.6445 63.2324-12.6465Q63.2324-14.5996 64.4287-15.7715Q65.625-16.9434 67.4316-16.9434Q69.5312-16.9434 70.4346-18.042Q71.3379-19.1406 71.3379-21.4355L71.3379-27.2949Q71.3379-30.8594 73.7061-33.3984Q76.0742-35.9375 80.2246-36.7188L80.2246-33.8379Q76.0742-34.3262 73.7061-36.8164Q71.3379-39.3066 71.3379-43.1641L71.3379-48.9258Q71.3379-51.2695 70.4346-52.3682Q69.5312-53.4668 67.4316-53.4668Q65.625-53.4668 64.4287-54.6387Q63.2324-55.8105 63.2324-57.7148Q63.2324-59.7656 64.7949-61.0107Q66.3574-62.2559 69.0918-62.2559Q74.6094-62.2559 77.6611-58.9844Q80.7129-55.7129 80.7129-49.6094L80.7129-44.1406Q80.7129-42.1875 81.2988-41.4795Q81.8848-40.7715 83.2031-40.4297Q85.2051-39.9414 86.1816-38.4766Q87.1582-37.0117 87.1582-35.2295Q87.1582-33.4473 86.1816-31.9336Q85.2051-30.4199 83.2031-29.9805Q81.8848-29.6387 81.2988-28.8818Q80.7129-28.125 80.7129-26.1719L80.7129-20.752Q80.7129-14.6484 77.6611-11.4014Q74.6094-8.1543 69.0918-8.1543Z"/>
  </g>
  <g id="Semibold-M" transform="matrix(1 0 0 1 1984.77 1126)">
   <path class="hierarchical-0:tertiary SFSymbolsPreview8E8E8E" d="M29.0039 10.8887L87.9883 10.8887Q96.0938 10.8887 100.317 6.68945Q104.541 2.49023 104.541-5.51758L104.541-64.8438Q104.541-72.8516 100.317-77.0508Q96.0938-81.25 87.9883-81.25L29.0039-81.25Q20.8984-81.25 16.6748-77.0508Q12.4512-72.8516 12.4512-64.8438L12.4512-5.51758Q12.4512 2.49023 16.6748 6.68945Q20.8984 10.8887 29.0039 10.8887Z"/>
   <path class="hierarchical-1:primary SFSymbolsPreview212121" d="M48.6816-8.00781Q43.3105-8.00781 40.3076-11.1572Q37.3047-14.3066 37.3047-20.3125L37.3047-26.0254Q37.3047-28.2715 36.6699-29.1016Q36.0352-29.9316 34.5215-30.3223Q32.666-30.8105 31.7627-32.1777Q30.8594-33.5449 30.8594-35.1807Q30.8594-36.8164 31.7627-38.1836Q32.666-39.5508 34.5215-40.0391Q36.0352-40.4297 36.6699-41.2354Q37.3047-42.041 37.3047-44.2871L37.3047-50.0488Q37.3047-56.1035 40.3076-59.2529Q43.3105-62.4023 48.6816-62.4023Q51.2207-62.4023 52.6611-61.2549Q54.1016-60.1074 54.1016-58.252Q54.1016-56.4453 52.9785-55.3711Q51.8555-54.2969 50.1953-54.2969Q47.9004-54.2969 46.9482-53.1494Q45.9961-52.002 45.9961-49.3652L45.9961-43.2129Q45.9961-39.5508 43.7744-37.1338Q41.5527-34.7168 37.6465-34.1797L37.6465-36.3281Q41.5527-35.5957 43.7744-33.1543Q45.9961-30.7129 45.9961-27.1973L45.9961-20.9961Q45.9961-18.4082 46.9482-17.2363Q47.9004-16.0645 50.1953-16.0645Q51.8555-16.0645 52.9785-15.0146Q54.1016-13.9648 54.1016-12.1094Q54.1016-10.3027 52.6611-9.15527Q51.2207-8.00781 48.6816-8.00781ZM68.5059-8.00781Q65.9668-8.00781 64.5264-9.15527Q63.0859-10.3027 63.0859-12.1094Q63.0859-13.9648 64.209-15.0146Q65.332-16.0645 66.9922-16.0645Q69.2871-16.0645 70.2393-17.2363Q71.1914-18.4082 71.1914-20.9961L71.1914-27.1973Q71.1914-30.7129 73.4131-33.1543Q75.6348-35.5957 79.541-36.3281L79.541-34.1797Q75.6348-34.7168 73.4131-37.1338Q71.1914-39.5508 71.1914-43.2129L71.1914-49.3652Q71.1914-52.002 70.2393-53.1494Q69.2871-54.2969 66.9922-54.2969Q65.332-54.2969 64.209-55.3711Q63.0859-56.4453 63.0859-58.252Q63.0859-60.1074 64.502-61.2549Q65.918-62.4023 68.5059-62.4023Q73.877-62.4023 76.8555-59.2529Q79.834-56.1035 79.834-50.0488L79.834-44.2871Q79.834-42.041 80.4932-41.2354Q81.1523-40.4297 82.666-40.0391Q84.5215-39.5996 85.4248-38.2324Q86.3281-36.8652 86.3281-35.2051Q86.3281-33.5449 85.4248-32.1533Q84.5215-30.7617 82.666-30.3223Q81.1523-29.9316 80.4932-29.1016Q79.834-28.2715 79.834-26.0254L79.834-20.3125Q79.834-14.3066 76.8555-11.1572Q73.877-8.00781 68.5059-8.00781Z"/>
  </g>
  <g id="Medium-M" transform="matrix(1 0 0 1 1688.52 1126)">
   <path class="hierarchical-0:tertiary SFSymbolsPreview8E8E8E" d="M28.4668 10.4004L87.5977 10.4004Q95.5078 10.4004 99.5605 6.37207Q103.613 2.34375 103.613-5.46875L103.613-64.8926Q103.613-72.7539 99.5605-76.7578Q95.5078-80.7617 87.5977-80.7617L28.4668-80.7617Q20.5566-80.7617 16.5039-76.7578Q12.4512-72.7539 12.4512-64.8926L12.4512-5.46875Q12.4512 2.34375 16.5039 6.37207Q20.5566 10.4004 28.4668 10.4004Z"/>
   <path class="hierarchical-1:primary SFSymbolsPreview212121" d="M48.1445-7.91016Q42.9199-7.91016 39.9902-10.9619Q37.0605-14.0137 37.0605-19.9707L37.0605-25.9277Q37.0605-28.3691 36.3525-29.248Q35.6445-30.127 33.9355-30.6152Q32.2754-31.0547 31.3965-32.3486Q30.5176-33.6426 30.5176-35.1807Q30.5176-36.7188 31.3721-38.0127Q32.2266-39.3066 33.9355-39.7949Q35.6445-40.2344 36.3525-41.1133Q37.0605-41.9922 37.0605-44.4336L37.0605-50.3906Q37.0605-56.3477 39.9902-59.4238Q42.9199-62.5 48.1445-62.5Q50.5859-62.5 51.9287-61.4258Q53.2715-60.3516 53.2715-58.6426Q53.2715-56.9824 52.1973-55.9814Q51.123-54.9805 49.5605-54.9805Q47.1191-54.9805 46.1182-53.7598Q45.1172-52.5391 45.1172-49.707L45.1172-43.2617Q45.1172-39.6973 43.0176-37.3291Q40.918-34.9609 37.2559-34.4238L37.2559-36.0352Q40.918-35.4004 43.0176-33.0078Q45.1172-30.6152 45.1172-27.1484L45.1172-20.6543Q45.1172-17.8711 46.1182-16.6504Q47.1191-15.4297 49.5605-15.4297Q51.123-15.4297 52.1973-14.4287Q53.2715-13.4277 53.2715-11.7188Q53.2715-10.0586 51.9287-8.98438Q50.5859-7.91016 48.1445-7.91016ZM68.0664-7.91016Q65.625-7.91016 64.2822-8.98438Q62.9395-10.0586 62.9395-11.7188Q62.9395-13.4277 64.0137-14.4287Q65.0879-15.4297 66.6504-15.4297Q69.0918-15.4297 70.0928-16.6504Q71.0938-17.8711 71.0938-20.6543L71.0938-27.1484Q71.0938-30.6152 73.1934-33.0078Q75.293-35.4004 79.0039-36.0352L79.0039-34.4238Q75.293-34.9609 73.1934-37.3291Q71.0938-39.6973 71.0938-43.2617L71.0938-49.707Q71.0938-52.5391 70.0928-53.7598Q69.0918-54.9805 66.6504-54.9805Q65.0879-54.9805 64.0137-55.9814Q62.9395-56.9824 62.9395-58.6426Q62.9395-60.3516 64.2822-61.4258Q65.625-62.5 68.0664-62.5Q73.3398-62.5 76.2695-59.4238Q79.1992-56.3477 79.1992-50.3906L79.1992-44.4336Q79.1992-41.9922 79.8828-41.1133Q80.5664-40.2344 82.2754-39.7949Q83.9844-39.3555 84.8633-38.0615Q85.7422-36.7676 85.7422-35.2051Q85.7422-33.6426 84.8633-32.3242Q83.9844-31.0059 82.2754-30.6152Q80.5664-30.1758 79.8828-29.2725Q79.1992-28.3691 79.1992-25.9277L79.1992-19.9707Q79.1992-14.0137 76.2695-10.9619Q73.3398-7.91016 68.0664-7.91016Z"/>
  </g>
  <g id="Regular-M" transform="matrix(1 0 0 1 1392.45 1126)">
   <path class="hierarchical-0:tertiary SFSymbolsPreview8E8E8E" d="M27.7832 9.76562L87.0117 9.76562Q94.6777 9.76562 98.5107 5.98145Q102.344 2.19727 102.344-5.37109L102.344-64.9902Q102.344-72.5586 98.5107-76.3428Q94.6777-80.127 87.0117-80.127L27.7832-80.127Q20.1172-80.127 16.2842-76.3428Q12.4512-72.5586 12.4512-64.9902L12.4512-5.37109Q12.4512 2.19727 16.2842 5.98145Q20.1172 9.76562 27.7832 9.76562Z"/>
   <path class="hierarchical-1:primary SFSymbolsPreview212121" d="M47.5098-7.76367Q42.3828-7.76367 39.5264-10.7178Q36.6699-13.6719 36.6699-19.5312L36.6699-25.7812Q36.6699-28.5156 35.9131-29.4678Q35.1562-30.4199 33.252-30.957Q31.6895-31.3477 30.8838-32.5439Q30.0781-33.7402 30.0781-35.1807Q30.0781-36.6211 30.8594-37.8174Q31.6406-39.0137 33.252-39.4531Q35.1562-39.9414 35.9131-40.918Q36.6699-41.8945 36.6699-44.5801L36.6699-50.8301Q36.6699-56.7383 39.5264-59.6924Q42.3828-62.6465 47.5098-62.6465Q49.7559-62.6465 50.9766-61.6699Q52.1973-60.6934 52.1973-59.1309Q52.1973-57.6172 51.1963-56.7139Q50.1953-55.8105 48.7305-55.8105Q46.1426-55.8105 45.0928-54.541Q44.043-53.2715 44.043-50.1465L44.043-43.3105Q44.043-39.9414 42.0654-37.6465Q40.0879-35.3516 36.6699-34.7656L36.6699-35.6934Q40.0879-35.1074 42.0654-32.7881Q44.043-30.4688 44.043-27.0996L44.043-20.2148Q44.043-17.1387 45.0928-15.8691Q46.1426-14.5996 48.7305-14.5996Q50.1953-14.5996 51.1963-13.6963Q52.1973-12.793 52.1973-11.2305Q52.1973-9.7168 50.9766-8.74023Q49.7559-7.76367 47.5098-7.76367ZM67.4805-7.76367Q65.2344-7.76367 64.0137-8.74023Q62.793-9.7168 62.793-11.2305Q62.793-12.793 63.7939-13.6963Q64.7949-14.5996 66.2598-14.5996Q68.8477-14.5996 69.8975-15.8691Q70.9473-17.1387 70.9473-20.2148L70.9473-27.0996Q70.9473-30.4688 72.9248-32.7881Q74.9023-35.1074 78.3203-35.6934L78.3203-34.7656Q74.9023-35.3516 72.9248-37.6465Q70.9473-39.9414 70.9473-43.3105L70.9473-50.1465Q70.9473-53.2715 69.8975-54.541Q68.8477-55.8105 66.2598-55.8105Q64.7949-55.8105 63.7939-56.7139Q62.793-57.6172 62.793-59.1309Q62.793-60.6934 64.0137-61.6699Q65.2344-62.6465 67.4805-62.6465Q72.6074-62.6465 75.4639-59.6924Q78.3203-56.7383 78.3203-50.8301L78.3203-44.5801Q78.3203-41.8945 79.0771-40.918Q79.834-39.9414 81.7383-39.4531Q83.3008-39.0625 84.1064-37.8662Q84.9121-36.6699 84.9121-35.2295Q84.9121-33.7891 84.1064-32.5684Q83.3008-31.3477 81.7383-30.957Q79.834-30.4688 79.0771-29.4922Q78.3203-28.5156 78.3203-25.7812L78.3203-19.5312Q78.3203-13.6719 75.4639-10.7178Q72.6074-7.76367 67.4805-7.76367Z"/>
  </g>
  <g id="Light-M" transform="matrix(1 0 0 1 1096.47 1126)">
   <path class="hierarchical-0:tertiary SFSymbolsPreview8E8E8E" d="M26.8555 9.0332L86.4746 9.0332Q93.6035 9.0332 97.2412 5.44434Q100.879 1.85547 100.879-5.22461L100.879-65.0879Q100.879-72.168 97.2412-75.7812Q93.6035-79.3945 86.4746-79.3945L26.8555-79.3945Q19.6777-79.3945 16.0645-75.8057Q12.4512-72.2168 12.4512-65.0879L12.4512-5.22461Q12.4512 1.85547 16.0645 5.44434Q19.6777 9.0332 26.8555 9.0332Z"/>
   <path class="hierarchical-1:primary SFSymbolsPreview212121" d="M46.9727-8.25195Q42.2363-8.25195 39.5752-10.9375Q36.9141-13.623 36.9141-19.0918L36.9141-26.123Q36.9141-29.0527 36.0352-30.127Q35.1562-31.2012 32.9102-31.8359Q31.7383-32.1777 31.1035-33.1299Q30.4688-34.082 30.4688-35.2051Q30.4688-36.3281 31.0791-37.3047Q31.6895-38.2812 32.9102-38.623Q35.1562-39.209 36.0352-40.3076Q36.9141-41.4062 36.9141-44.2871L36.9141-51.3672Q36.9141-56.7871 39.5752-59.4971Q42.2363-62.207 46.9727-62.207Q48.6328-62.207 49.585-61.4258Q50.5371-60.6445 50.5371-59.4727Q50.5371-58.252 49.7314-57.5439Q48.9258-56.8359 47.8027-56.8359Q45.166-56.8359 43.8965-55.4688Q42.627-54.1016 42.627-50.6836L42.627-43.2129Q42.627-39.8438 40.7471-37.5732Q38.8672-35.3027 35.6445-34.9121L35.6445-35.5957Q38.8672-35.2051 40.7471-32.9102Q42.627-30.6152 42.627-27.1973L42.627-19.7754Q42.627-16.3574 43.8965-14.9902Q45.166-13.623 47.8027-13.623Q48.9258-13.623 49.7314-12.8906Q50.5371-12.1582 50.5371-10.9863Q50.5371-9.81445 49.585-9.0332Q48.6328-8.25195 46.9727-8.25195ZM66.4551-8.25195Q64.7949-8.25195 63.8672-9.0332Q62.9395-9.81445 62.9395-10.9863Q62.9395-12.1582 63.7207-12.8906Q64.502-13.623 65.625-13.623Q68.2617-13.623 69.5312-14.9902Q70.8008-16.3574 70.8008-19.7754L70.8008-27.1973Q70.8008-30.6152 72.6807-32.9102Q74.5605-35.2051 77.7832-35.5957L77.7832-34.9121Q74.5605-35.3027 72.6807-37.5732Q70.8008-39.8438 70.8008-43.2129L70.8008-50.6836Q70.8008-54.1016 69.5312-55.4688Q68.2617-56.8359 65.625-56.8359Q64.502-56.8359 63.7207-57.5439Q62.9395-58.252 62.9395-59.4727Q62.9395-60.6445 63.8672-61.4258Q64.7949-62.207 66.4551-62.207Q71.1914-62.207 73.8525-59.4971Q76.5137-56.7871 76.5137-51.3672L76.5137-44.2871Q76.5137-41.4062 77.417-40.3076Q78.3203-39.209 80.5176-38.623Q81.7383-38.2812 82.373-37.3291Q83.0078-36.377 82.9834-35.2295Q82.959-34.082 82.3486-33.1055Q81.7383-32.1289 80.5176-31.8359Q78.2715-31.25 77.3926-30.1514Q76.5137-29.0527 76.5137-26.123L76.5137-19.0918Q76.5137-13.623 73.8525-10.9375Q71.1914-8.25195 66.4551-8.25195Z"/>
  </g>
  <g id="Thin-M" transform="matrix(1 0 0 1 800.758 1126)">
   <path class="hierarchical-0:tertiary SFSymbolsPreview8E8E8E" d="M25.5859 8.05664L85.6934 8.05664Q92.2363 8.05664 95.5566 4.71191Q98.877 1.36719 98.877-5.07812L98.877-65.2344Q98.877-71.6309 95.5566-75Q92.2363-78.3691 85.6934-78.3691L25.5859-78.3691Q19.1406-78.3691 15.7959-75.0488Q12.4512-71.7285 12.4512-65.2344L12.4512-5.07812Q12.4512 1.41602 15.7959 4.73633Q19.1406 8.05664 25.5859 8.05664Z"/>
   <path class="hierarchical-1:primary SFSymbolsPreview212121" d="M46.2891-8.88672Q42.0898-8.88672 39.6729-11.2549Q37.2559-13.623 37.2559-18.457L37.2559-26.5137Q37.2559-29.6875 36.1816-30.957Q35.1074-32.2266 32.4707-33.0078Q31.7383-33.252 31.3232-33.8623Q30.9082-34.4727 30.9082-35.2295Q30.9082-35.9863 31.2988-36.6211Q31.6895-37.2559 32.4707-37.5Q35.1074-38.2324 36.1816-39.502Q37.2559-40.7715 37.2559-43.9453L37.2559-52.002Q37.2559-56.8848 39.6729-59.2285Q42.0898-61.5723 46.2891-61.5723Q47.168-61.5723 47.7051-61.084Q48.2422-60.5957 48.2422-59.8633Q48.2422-59.1309 47.7539-58.667Q47.2656-58.2031 46.5332-58.2031Q43.8965-58.2031 42.334-56.7139Q40.7715-55.2246 40.7715-51.3184L40.7715-43.1152Q40.7715-39.6973 38.9893-37.4756Q37.207-35.2539 34.3262-35.1074L34.3262-35.4004Q37.207-35.3027 38.9893-33.0322Q40.7715-30.7617 40.7715-27.3926L40.7715-19.1406Q40.7715-15.332 42.334-13.8184Q43.8965-12.3047 46.5332-12.3047Q47.2656-12.3047 47.7539-11.8164Q48.2422-11.3281 48.2422-10.6445Q48.2422-9.91211 47.7051-9.39941Q47.168-8.88672 46.2891-8.88672ZM65.0391-8.88672Q64.1602-8.88672 63.623-9.39941Q63.0859-9.91211 63.0859-10.6445Q63.0859-11.3281 63.5742-11.8164Q64.0625-12.3047 64.7949-12.3047Q67.4316-12.3047 68.9941-13.8184Q70.5566-15.332 70.5566-19.1406L70.5566-27.3926Q70.5566-30.7617 72.3389-33.0322Q74.1211-35.3027 77.002-35.4004L77.002-35.1074Q74.1211-35.2539 72.3389-37.4756Q70.5566-39.6973 70.5566-43.1152L70.5566-51.3184Q70.5566-55.2246 68.9941-56.7139Q67.4316-58.2031 64.7949-58.2031Q64.0625-58.2031 63.5742-58.667Q63.0859-59.1309 63.0859-59.8633Q63.0859-60.5957 63.623-61.084Q64.1602-61.5723 65.0391-61.5723Q69.2871-61.5723 71.6797-59.2285Q74.0723-56.8848 74.0723-52.002L74.0723-43.9453Q74.0723-40.7715 75.1709-39.5264Q76.2695-38.2812 78.8086-37.5Q79.5898-37.2559 80.0049-36.6211Q80.4199-35.9863 80.3955-35.2295Q80.3711-34.4727 79.9805-33.8379Q79.5898-33.2031 78.8086-33.0078Q76.2207-32.3242 75.1465-31.0059Q74.0723-29.6875 74.0723-26.5137L74.0723-18.457Q74.0723-13.623 71.6797-11.2549Q69.2871-8.88672 65.0391-8.88672Z"/>
  </g>
  <g id="Ultralight-M" transform="matrix(1 0 0 1 504.535 1126)">
   <path class="hierarchical-0:tertiary SFSymbolsPreview8E8E8E" d="M24.9512 7.56836L85.3516 7.56836Q91.5039 7.56836 94.7021 4.3457Q97.9004 1.12305 97.9004-4.98047L97.9004-65.332Q97.9004-71.3867 94.7021-74.6338Q91.5039-77.8809 85.3516-77.8809L24.9512-77.8809Q18.8477-77.8809 15.6494-74.6826Q12.4512-71.4844 12.4512-65.332L12.4512-4.98047Q12.4512 1.2207 15.6494 4.39453Q18.8477 7.56836 24.9512 7.56836Z"/>
   <path class="hierarchical-1:primary SFSymbolsPreview212121" d="M45.8984-9.22852Q41.9434-9.22852 39.6729-11.4014Q37.4023-13.5742 37.4023-18.1641L37.4023-26.7578Q37.4023-30.0781 36.2549-31.4209Q35.1074-32.7637 32.2266-33.6426Q31.7383-33.7891 31.4453-34.2529Q31.1523-34.7168 31.1523-35.2539Q31.1523-35.791 31.4209-36.2793Q31.6895-36.7676 32.2266-36.9141Q35.1074-37.6953 36.2549-39.0625Q37.4023-40.4297 37.4023-43.75L37.4023-52.3926Q37.4023-56.9336 39.6729-59.1064Q41.9434-61.2793 45.8984-61.2793Q46.3867-61.2793 46.7529-60.9131Q47.1191-60.5469 47.1191-60.1074Q47.1191-59.5703 46.7529-59.2285Q46.3867-58.8867 45.8496-58.8867Q43.2129-58.8867 41.5039-57.3242Q39.7949-55.7617 39.7949-51.709L39.7949-43.0176Q39.7949-39.5996 38.0615-37.4023Q36.3281-35.2051 33.5938-35.2051L33.5938-35.3516Q36.3281-35.3516 38.0615-33.1055Q39.7949-30.8594 39.7949-27.4414L39.7949-18.8477Q39.7949-14.7949 41.5039-13.2324Q43.2129-11.6699 45.8496-11.6699Q46.3867-11.6699 46.7529-11.3037Q47.1191-10.9375 47.1191-10.4492Q47.1191-9.96094 46.7529-9.59473Q46.3867-9.22852 45.8984-9.22852ZM64.3555-9.22852Q63.8672-9.22852 63.501-9.59473Q63.1348-9.96094 63.1348-10.4492Q63.1348-10.9375 63.4766-11.3037Q63.8184-11.6699 64.3555-11.6699Q67.041-11.6699 68.75-13.2324Q70.459-14.7949 70.459-18.8477L70.459-27.4414Q70.459-30.8594 72.168-33.1055Q73.877-35.3516 76.6113-35.3516L76.6113-35.2051Q73.877-35.2051 72.168-37.4023Q70.459-39.5996 70.459-43.0176L70.459-51.709Q70.459-55.7617 68.75-57.3242Q67.041-58.8867 64.3555-58.8867Q63.8184-58.8867 63.4766-59.2285Q63.1348-59.5703 63.1348-60.1074Q63.1348-60.5469 63.501-60.9131Q63.8672-61.2793 64.3555-61.2793Q68.2617-61.2793 70.5322-59.1064Q72.8027-56.9336 72.8027-52.3926L72.8027-43.75Q72.8027-40.4297 73.999-39.1113Q75.1953-37.793 77.9785-36.9141Q78.5156-36.7188 78.8086-36.2305Q79.1016-35.7422 79.0771-35.2051Q79.0527-34.668 78.7842-34.2041Q78.5156-33.7402 77.9785-33.6426Q75.1465-32.8613 73.9746-31.4697Q72.8027-30.0781 72.8027-26.7578L72.8027-18.1641Q72.8027-13.5742 70.5322-11.4014Q68.2617-9.22852 64.3555-9.22852Z"/>
  </g>
  <g id="Black-S" transform="matrix(1 0 0 1 2885.5 696)">
   <path class="hierarchical-0:tertiary SFSymbolsPreview8E8E8E" d="M25 2.92969L70.8008 2.92969Q77.9785 2.92969 82.0068-1.09863Q86.0352-5.12695 86.0352-12.3047L86.0352-58.1055Q86.0352-65.2832 82.0068-69.3115Q77.9785-73.3398 70.8008-73.3398L25-73.3398Q17.8223-73.3398 13.7939-69.3115Q9.76562-65.2832 9.76562-58.1055L9.76562-12.3047Q9.76562-5.12695 13.7939-1.09863Q17.8223 2.92969 25 2.92969Z"/>
   <path class="hierarchical-1:primary SFSymbolsPreview212121" d="M40.3809-14.4043Q35.6934-14.4043 33.1299-17.2119Q30.5664-20.0195 30.5664-25L30.5664-28.4668Q30.5664-29.3457 30.249-29.7363Q29.9316-30.127 29.4434-30.2246Q26.9531-30.9082 26.123-33.0566Q25.293-35.2051 26.123-37.3535Q26.9531-39.502 29.4434-40.1367Q29.9316-40.2344 30.249-40.5518Q30.5664-40.8691 30.5664-41.7969L30.5664-45.3613Q30.5664-50.3418 33.1299-53.1494Q35.6934-55.957 40.3809-55.957Q42.8711-55.957 44.4092-54.7607Q45.9473-53.5645 45.9473-51.5625Q45.9473-49.6582 44.873-48.5107Q43.7988-47.3633 42.0898-47.3633Q40.8203-47.3633 40.2588-46.6553Q39.6973-45.9473 39.6973-44.8242L39.6973-41.2598Q39.6973-37.8418 37.5-35.7178Q35.3027-33.5938 31.3965-33.252L31.3965-37.3047Q35.3027-36.5234 37.5-34.3506Q39.6973-32.1777 39.6973-29.1504L39.6973-25.5371Q39.6973-24.4141 40.2588-23.7061Q40.8203-22.998 42.0898-22.998Q43.7988-22.998 44.873-21.8506Q45.9473-20.7031 45.9473-18.7988Q45.9473-16.7969 44.4092-15.6006Q42.8711-14.4043 40.3809-14.4043ZM55.6152-14.4043Q53.125-14.4043 51.5869-15.6006Q50.0488-16.7969 50.0488-18.7988Q50.0488-20.7031 51.0986-21.8506Q52.1484-22.998 53.9062-22.998Q55.127-22.998 55.7129-23.7061Q56.2988-24.4141 56.2988-25.5371L56.2988-29.1504Q56.2988-32.1777 58.4717-34.3506Q60.6445-36.5234 64.5996-37.3047L64.5996-33.252Q60.6445-33.5938 58.4717-35.7178Q56.2988-37.8418 56.2988-41.2598L56.2988-44.8242Q56.2988-45.9473 55.7129-46.6553Q55.127-47.3633 53.9062-47.3633Q52.1484-47.3633 51.0986-48.5107Q50.0488-49.6582 50.0488-51.5625Q50.0488-53.5645 51.5381-54.7607Q53.0273-55.957 55.6152-55.957Q60.2539-55.957 62.8418-53.1494Q65.4297-50.3418 65.4297-45.3613L65.4297-41.7969Q65.4297-40.8691 65.7227-40.5518Q66.0156-40.2344 66.5527-40.1367Q69.043-39.5508 69.873-37.3779Q70.7031-35.2051 69.873-33.0078Q69.043-30.8105 66.5527-30.2246Q66.0156-30.127 65.7227-29.7363Q65.4297-29.3457 65.4297-28.4668L65.4297-25Q65.4297-20.0195 62.8418-17.2119Q60.2539-14.4043 55.6152-14.4043Z"/>
  </g>
  <g id="Heavy-S" transform="matrix(1 0 0 1 2589.4 696)">
   <path class="hierarchical-0:tertiary SFSymbolsPreview8E8E8E" d="M24.3652 2.34375L70.2637 2.34375Q77.1973 2.34375 81.0059-1.46484Q84.8145-5.27344 84.8145-12.207L84.8145-58.2031Q84.8145-65.1367 81.0059-68.9453Q77.1973-72.7539 70.2637-72.7539L24.3652-72.7539Q17.3828-72.7539 13.5742-68.9453Q9.76562-65.1367 9.76562-58.2031L9.76562-12.207Q9.76562-5.27344 13.5742-1.46484Q17.3828 2.34375 24.3652 2.34375Z"/>
   <path class="hierarchical-1:primary SFSymbolsPreview212121" d="M39.6973-14.209Q35.1074-14.209 32.6172-16.9189Q30.127-19.6289 30.127-24.5605L30.127-28.2715Q30.127-29.4434 29.7607-29.9072Q29.3945-30.3711 28.7109-30.5176Q26.3184-31.1523 25.5371-33.1787Q24.7559-35.2051 25.5371-37.2314Q26.3184-39.2578 28.7109-39.8438Q29.3945-39.9902 29.7607-40.4053Q30.127-40.8203 30.127-41.9922L30.127-45.8008Q30.127-50.7324 32.6172-53.4668Q35.1074-56.2012 39.6973-56.2012Q42.0898-56.2012 43.5303-55.0781Q44.9707-53.9551 44.9707-52.0996Q44.9707-50.293 43.9209-49.2432Q42.8711-48.1934 41.2598-48.1934Q39.8438-48.1934 39.2334-47.4121Q38.623-46.6309 38.623-45.2637L38.623-41.3574Q38.623-38.0859 36.5723-36.0352Q34.5215-33.9844 30.9082-33.5938L30.9082-36.9141Q34.5215-36.1816 36.5723-34.082Q38.623-31.9824 38.623-29.0527L38.623-25.0977Q38.623-23.7305 39.2334-22.9492Q39.8438-22.168 41.2598-22.168Q42.8711-22.168 43.9209-21.1182Q44.9707-20.0684 44.9707-18.2617Q44.9707-16.4062 43.5303-15.3076Q42.0898-14.209 39.6973-14.209ZM55.0781-14.209Q52.6855-14.209 51.2695-15.3076Q49.8535-16.4062 49.8535-18.2617Q49.8535-20.0684 50.8545-21.1182Q51.8555-22.168 53.5156-22.168Q54.9316-22.168 55.542-22.9492Q56.1523-23.7305 56.1523-25.0977L56.1523-29.0527Q56.1523-31.9824 58.1787-34.082Q60.2051-36.1816 63.916-36.9141L63.916-33.5938Q60.2051-33.9844 58.1787-36.0352Q56.1523-38.0859 56.1523-41.3574L56.1523-45.2637Q56.1523-46.6309 55.542-47.4121Q54.9316-48.1934 53.5156-48.1934Q51.8555-48.1934 50.8545-49.2432Q49.8535-50.293 49.8535-52.0996Q49.8535-53.9551 51.2451-55.0781Q52.6367-56.2012 55.0781-56.2012Q59.6191-56.2012 62.1582-53.4668Q64.6973-50.7324 64.6973-45.8008L64.6973-41.9922Q64.6973-40.8203 65.0391-40.4053Q65.3809-39.9902 66.1133-39.8438Q68.457-39.3066 69.2383-37.2559Q70.0195-35.2051 69.2383-33.1299Q68.457-31.0547 66.1133-30.5176Q65.3809-30.3711 65.0391-29.9072Q64.6973-29.4434 64.6973-28.2715L64.6973-24.5605Q64.6973-19.6289 62.1582-16.9189Q59.6191-14.209 55.0781-14.209Z"/>
  </g>
  <g id="Bold-S" transform="matrix(1 0 0 1 2293.35 696)">
   <path class="hierarchical-0:tertiary SFSymbolsPreview8E8E8E" d="M23.6328 1.66016L69.6289 1.66016Q76.3672 1.66016 79.9316-1.9043Q83.4961-5.46875 83.4961-12.1094L83.4961-58.3008Q83.4961-64.9902 79.9316-68.5303Q76.3672-72.0703 69.6289-72.0703L23.6328-72.0703Q16.9434-72.0703 13.3545-68.5303Q9.76562-64.9902 9.76562-58.3008L9.76562-12.1094Q9.76562-5.46875 13.3545-1.9043Q16.9434 1.66016 23.6328 1.66016Z"/>
   <path class="hierarchical-1:primary SFSymbolsPreview212121" d="M38.916-13.9648Q34.4727-13.9648 32.0312-16.5771Q29.5898-19.1895 29.5898-24.1211L29.5898-28.0762Q29.5898-29.541 29.1504-30.0781Q28.7109-30.6152 27.832-30.8594Q25.6348-31.4453 24.9023-33.3252Q24.1699-35.2051 24.9023-37.085Q25.6348-38.9648 27.832-39.5508Q28.7109-39.7461 29.1504-40.2588Q29.5898-40.7715 29.5898-42.2363L29.5898-46.2891Q29.5898-51.2207 32.0312-53.833Q34.4727-56.4453 38.916-56.4453Q41.2109-56.4453 42.5049-55.4199Q43.7988-54.3945 43.7988-52.6855Q43.7988-51.0742 42.8223-50.0977Q41.8457-49.1211 40.332-49.1211Q38.7207-49.1211 38.0615-48.291Q37.4023-47.4609 37.4023-45.752L37.4023-41.4551Q37.4023-38.4277 35.5225-36.4502Q33.6426-34.4727 30.3223-34.0332L30.3223-36.5234Q33.6426-35.8398 35.5225-33.8135Q37.4023-31.7871 37.4023-28.9551L37.4023-24.6582Q37.4023-22.9492 38.0615-22.1191Q38.7207-21.2891 40.332-21.2891Q41.8457-21.2891 42.8223-20.3125Q43.7988-19.3359 43.7988-17.6758Q43.7988-16.0156 42.5049-14.9902Q41.2109-13.9648 38.916-13.9648ZM54.4922-13.9648Q52.1973-13.9648 50.8789-14.9902Q49.5605-16.0156 49.5605-17.6758Q49.5605-19.3359 50.5371-20.3125Q51.5137-21.2891 53.0762-21.2891Q54.6387-21.2891 55.2979-22.1191Q55.957-22.9492 55.957-24.6582L55.957-28.9551Q55.957-31.7871 57.8369-33.8135Q59.7168-35.8398 63.0859-36.5234L63.0859-34.0332Q59.7168-34.4727 57.8369-36.4502Q55.957-38.4277 55.957-41.4551L55.957-45.752Q55.957-47.4609 55.2979-48.291Q54.6387-49.1211 53.0762-49.1211Q51.5137-49.1211 50.5371-50.0977Q49.5605-51.0742 49.5605-52.6855Q49.5605-54.3945 50.8545-55.4199Q52.1484-56.4453 54.4922-56.4453Q58.8867-56.4453 61.3525-53.833Q63.8184-51.2207 63.8184-46.2891L63.8184-42.2363Q63.8184-40.7715 64.2334-40.2588Q64.6484-39.7461 65.5762-39.5508Q67.7734-39.0137 68.5059-37.1094Q69.2383-35.2051 68.5059-33.3008Q67.7734-31.3965 65.5762-30.8594Q64.6484-30.6152 64.2334-30.0781Q63.8184-29.541 63.8184-28.0762L63.8184-24.1211Q63.8184-19.1895 61.3525-16.5771Q58.8867-13.9648 54.4922-13.9648Z"/>
  </g>
  <g id="Semibold-S" transform="matrix(1 0 0 1 1997.12 696)">
   <path class="hierarchical-0:tertiary SFSymbolsPreview8E8E8E" d="M23.0957 1.2207L69.1895 1.2207Q75.7324 1.2207 79.126-2.17285Q82.5195-5.56641 82.5195-12.0605L82.5195-58.3496Q82.5195-64.8438 79.126-68.2373Q75.7324-71.6309 69.1895-71.6309L23.0957-71.6309Q16.6016-71.6309 13.1836-68.2373Q9.76562-64.8438 9.76562-58.3496L9.76562-12.0605Q9.76562-5.56641 13.1836-2.17285Q16.6016 1.2207 23.0957 1.2207Z"/>
   <path class="hierarchical-1:primary SFSymbolsPreview212121" d="M38.3301-13.7695Q33.9844-13.7695 31.5918-16.3086Q29.1992-18.8477 29.1992-23.7793L29.1992-27.9297Q29.1992-29.5898 28.7354-30.2002Q28.2715-30.8105 27.1973-31.0547Q25.0977-31.5918 24.4141-33.3984Q23.7305-35.2051 24.4141-36.9873Q25.0977-38.7695 27.1973-39.3066Q28.2715-39.5508 28.7354-40.1367Q29.1992-40.7227 29.1992-42.3828L29.1992-46.6309Q29.1992-51.5137 31.5918-54.0771Q33.9844-56.6406 38.3301-56.6406Q40.5762-56.6406 41.7969-55.6641Q43.0176-54.6875 43.0176-53.0762Q43.0176-51.5625 42.0654-50.6348Q41.1133-49.707 39.6973-49.707Q37.8906-49.707 37.2314-48.8525Q36.5723-47.998 36.5723-46.0938L36.5723-41.5039Q36.5723-38.623 34.79-36.7188Q33.0078-34.8145 29.8828-34.2773L29.8828-36.1816Q33.0078-35.5469 34.79-33.5938Q36.5723-31.6406 36.5723-28.9062L36.5723-24.3164Q36.5723-22.3633 37.2314-21.5088Q37.8906-20.6543 39.6973-20.6543Q41.1133-20.6543 42.0654-19.7266Q43.0176-18.7988 43.0176-17.2852Q43.0176-15.6738 41.7969-14.7217Q40.5762-13.7695 38.3301-13.7695ZM54.0527-13.7695Q51.8555-13.7695 50.6104-14.7217Q49.3652-15.6738 49.3652-17.2852Q49.3652-18.7988 50.293-19.7266Q51.2207-20.6543 52.7344-20.6543Q54.4434-20.6543 55.127-21.5088Q55.8105-22.3633 55.8105-24.3164L55.8105-28.9062Q55.8105-31.6406 57.5928-33.5938Q59.375-35.5469 62.5-36.1816L62.5-34.2773Q59.375-34.8145 57.5928-36.7188Q55.8105-38.623 55.8105-41.5039L55.8105-46.0938Q55.8105-47.998 55.127-48.8525Q54.4434-49.707 52.7344-49.707Q51.2207-49.707 50.293-50.6348Q49.3652-51.5625 49.3652-53.0762Q49.3652-54.6875 50.5859-55.6641Q51.8066-56.6406 54.0527-56.6406Q58.3984-56.6406 60.8154-54.0771Q63.2324-51.5137 63.2324-46.6309L63.2324-42.3828Q63.2324-40.7227 63.6963-40.1367Q64.1602-39.5508 65.1855-39.3066Q67.2852-38.8184 67.9688-37.0117Q68.6523-35.2051 67.9688-33.3984Q67.2852-31.5918 65.1855-31.0547Q64.1602-30.8105 63.6963-30.2002Q63.2324-29.5898 63.2324-27.9297L63.2324-23.7793Q63.2324-18.8477 60.8154-16.3086Q58.3984-13.7695 54.0527-13.7695Z"/>
  </g>
  <g id="Medium-S" transform="matrix(1 0 0 1 1700.75 696)">
   <path class="hierarchical-0:tertiary SFSymbolsPreview8E8E8E" d="M22.7051 0.830078L68.8965 0.830078Q75.293 0.830078 78.5645-2.41699Q81.8359-5.66406 81.8359-11.9629L81.8359-58.4473Q81.8359-64.7461 78.5645-67.9932Q75.293-71.2402 68.8965-71.2402L22.7051-71.2402Q16.3574-71.2402 13.0615-67.9932Q9.76562-64.7461 9.76562-58.4473L9.76562-11.9629Q9.76562-5.66406 13.0615-2.41699Q16.3574 0.830078 22.7051 0.830078Z"/>
   <path class="hierarchical-1:primary SFSymbolsPreview212121" d="M37.9395-13.623Q33.6914-13.623 31.3232-16.1133Q28.9551-18.6035 28.9551-23.5352L28.9551-27.832Q28.9551-29.6387 28.4424-30.2734Q27.9297-30.9082 26.7578-31.25Q24.7559-31.7383 24.1211-33.4717Q23.4863-35.2051 24.1211-36.9141Q24.7559-38.623 26.7578-39.1113Q27.9297-39.4531 28.4424-40.0879Q28.9551-40.7227 28.9551-42.5293L28.9551-46.875Q28.9551-51.7578 31.3232-54.248Q33.6914-56.7383 37.9395-56.7383Q40.1367-56.7383 41.2842-55.8105Q42.4316-54.8828 42.4316-53.418Q42.4316-51.9531 41.5283-51.0742Q40.625-50.1953 39.209-50.1953Q37.3535-50.1953 36.6455-49.292Q35.9375-48.3887 35.9375-46.3379L35.9375-41.5527Q35.9375-38.7695 34.2773-36.9141Q32.6172-35.0586 29.5898-34.4727L29.5898-35.9863Q32.6172-35.3516 34.2773-33.4473Q35.9375-31.543 35.9375-28.8086L35.9375-24.0723Q35.9375-21.9727 36.6455-21.0693Q37.3535-20.166 39.209-20.166Q40.625-20.166 41.5283-19.2871Q42.4316-18.4082 42.4316-16.9434Q42.4316-15.4785 41.2842-14.5508Q40.1367-13.623 37.9395-13.623ZM53.7598-13.623Q51.6113-13.623 50.4395-14.5508Q49.2676-15.4785 49.2676-16.9434Q49.2676-18.4082 50.1709-19.2871Q51.0742-20.166 52.5391-20.166Q54.3457-20.166 55.0537-21.0693Q55.7617-21.9727 55.7617-24.0723L55.7617-28.8086Q55.7617-31.543 57.4463-33.4473Q59.1309-35.3516 62.1582-35.9863L62.1582-34.4727Q59.1309-35.0586 57.4463-36.9141Q55.7617-38.7695 55.7617-41.5527L55.7617-46.3379Q55.7617-48.3887 55.0537-49.292Q54.3457-50.1953 52.5391-50.1953Q51.0742-50.1953 50.1709-51.0742Q49.2676-51.9531 49.2676-53.418Q49.2676-54.8828 50.4395-55.8105Q51.6113-56.7383 53.7598-56.7383Q58.0078-56.7383 60.4004-54.248Q62.793-51.7578 62.793-46.875L62.793-42.5293Q62.793-40.7227 63.2812-40.0879Q63.7695-39.4531 64.9902-39.1113Q66.9434-38.6719 67.6025-36.9385Q68.2617-35.2051 67.6025-33.4717Q66.9434-31.7383 64.9902-31.25Q63.7695-30.9082 63.2812-30.2734Q62.793-29.6387 62.793-27.832L62.793-23.5352Q62.793-18.6035 60.4004-16.1133Q58.0078-13.623 53.7598-13.623Z"/>
  </g>
  <g id="Regular-S" transform="matrix(1 0 0 1 1404.51 696)">
   <path class="hierarchical-0:tertiary SFSymbolsPreview8E8E8E" d="M22.2168 0.390625L68.457 0.390625Q74.707 0.390625 77.8076-2.68555Q80.9082-5.76172 80.9082-11.9141L80.9082-58.4961Q80.9082-64.6484 77.8076-67.7246Q74.707-70.8008 68.457-70.8008L22.2168-70.8008Q16.0156-70.8008 12.8906-67.7246Q9.76562-64.6484 9.76562-58.4961L9.76562-11.9141Q9.76562-5.76172 12.8906-2.68555Q16.0156 0.390625 22.2168 0.390625Z"/>
   <path class="hierarchical-1:primary SFSymbolsPreview212121" d="M37.4023-13.4766Q33.2031-13.4766 30.8838-15.8936Q28.5645-18.3105 28.5645-23.1934L28.5645-27.6855Q28.5645-29.6875 28.0273-30.3955Q27.4902-31.1035 26.1719-31.4453Q24.2676-31.9336 23.6572-33.5693Q23.0469-35.2051 23.6572-36.8164Q24.2676-38.4277 26.1719-38.916Q27.4902-39.2578 28.0273-39.9658Q28.5645-40.6738 28.5645-42.6758L28.5645-47.2168Q28.5645-52.0508 30.8838-54.4922Q33.2031-56.9336 37.4023-56.9336Q39.502-56.9336 40.5762-56.0547Q41.6504-55.1758 41.6504-53.8086Q41.6504-52.4414 40.7715-51.6357Q39.8926-50.8301 38.5742-50.8301Q36.5723-50.8301 35.8398-49.8779Q35.1074-48.9258 35.1074-46.6797L35.1074-41.6016Q35.1074-38.9648 33.5449-37.1582Q31.9824-35.3516 29.1992-34.7656L29.1992-35.6934Q31.9824-35.1074 33.5449-33.252Q35.1074-31.3965 35.1074-28.7598L35.1074-23.7305Q35.1074-21.4355 35.8398-20.4834Q36.5723-19.5312 38.5742-19.5312Q39.8926-19.5312 40.7715-18.7256Q41.6504-17.9199 41.6504-16.5527Q41.6504-15.1855 40.5762-14.3311Q39.502-13.4766 37.4023-13.4766ZM53.3203-13.4766Q51.2695-13.4766 50.1709-14.3311Q49.0723-15.1855 49.0723-16.5527Q49.0723-17.9199 49.9512-18.7256Q50.8301-19.5312 52.1973-19.5312Q54.1504-19.5312 54.8828-20.4834Q55.6152-21.4355 55.6152-23.7305L55.6152-28.7598Q55.6152-31.3965 57.2021-33.252Q58.7891-35.1074 61.5723-35.6934L61.5723-34.7656Q58.7891-35.3516 57.2021-37.1582Q55.6152-38.9648 55.6152-41.6016L55.6152-46.6797Q55.6152-48.9258 54.8828-49.8779Q54.1504-50.8301 52.1973-50.8301Q50.8301-50.8301 49.9512-51.6357Q49.0723-52.4414 49.0723-53.8086Q49.0723-55.1758 50.1709-56.0547Q51.2695-56.9336 53.3203-56.9336Q57.5195-56.9336 59.8633-54.4922Q62.207-52.0508 62.207-47.2168L62.207-42.6758Q62.207-40.6738 62.7441-39.9658Q63.2812-39.2578 64.5996-38.916Q66.4551-38.4766 67.0898-36.8408Q67.7246-35.2051 67.0898-33.5693Q66.4551-31.9336 64.5996-31.4453Q63.2812-31.1035 62.7441-30.3955Q62.207-29.6875 62.207-27.6855L62.207-23.1934Q62.207-18.3105 59.8633-15.8936Q57.5195-13.4766 53.3203-13.4766Z"/>
  </g>
  <g id="Light-S" transform="matrix(1 0 0 1 1108.46 696)">
   <path class="hierarchical-0:tertiary SFSymbolsPreview8E8E8E" d="M21.3867-0.244141L67.9688-0.244141Q73.7793-0.244141 76.6846-3.17383Q79.5898-6.10352 79.5898-11.8164L79.5898-58.5938Q79.5898-64.3066 76.6846-67.2119Q73.7793-70.1172 67.9688-70.1172L21.3867-70.1172Q15.625-70.1172 12.6953-67.2119Q9.76562-64.3066 9.76562-58.5938L9.76562-11.8164Q9.76562-6.05469 12.6953-3.14941Q15.625-0.244141 21.3867-0.244141Z"/>
   <path class="hierarchical-1:primary SFSymbolsPreview212121" d="M36.9629-13.916Q33.1055-13.916 30.957-16.1133Q28.8086-18.3105 28.8086-22.7539L28.8086-27.9785Q28.8086-30.1758 28.1494-30.9814Q27.4902-31.7871 25.9277-32.2266Q24.4141-32.6172 23.9258-33.9111Q23.4375-35.2051 23.9258-36.499Q24.4141-37.793 25.9277-38.1836Q27.4902-38.623 28.1494-39.4287Q28.8086-40.2344 28.8086-42.4316L28.8086-47.6562Q28.8086-52.0996 30.957-54.3213Q33.1055-56.543 36.9629-56.543Q38.5254-56.543 39.3555-55.835Q40.1855-55.127 40.1855-54.1016Q40.1855-53.0273 39.502-52.3926Q38.8184-51.7578 37.7441-51.7578Q35.7422-51.7578 34.8145-50.708Q33.8867-49.6582 33.8867-47.1191L33.8867-41.5039Q33.8867-38.8672 32.3975-37.085Q30.9082-35.3027 28.3203-34.9121L28.3203-35.5957Q30.9082-35.1562 32.3975-33.3496Q33.8867-31.543 33.8867-28.8574L33.8867-23.291Q33.8867-20.752 34.8145-19.7021Q35.7422-18.6523 37.7441-18.6523Q38.8184-18.6523 39.502-18.0176Q40.1855-17.3828 40.1855-16.3086Q40.1855-15.2832 39.3555-14.5996Q38.5254-13.916 36.9629-13.916ZM52.4414-13.916Q50.8789-13.916 50.0488-14.5996Q49.2188-15.2832 49.2188-16.3086Q49.2188-17.3828 49.9023-18.0176Q50.5859-18.6523 51.6602-18.6523Q53.6621-18.6523 54.5654-19.7021Q55.4688-20.752 55.4688-23.291L55.4688-28.8574Q55.4688-31.543 56.9824-33.3496Q58.4961-35.1562 61.084-35.5957L61.084-34.9121Q58.4961-35.3027 56.9824-37.085Q55.4688-38.8672 55.4688-41.5039L55.4688-47.1191Q55.4688-49.6582 54.5654-50.708Q53.6621-51.7578 51.6602-51.7578Q50.5859-51.7578 49.9023-52.3926Q49.2188-53.0273 49.2188-54.1016Q49.2188-55.127 50.0488-55.835Q50.8789-56.543 52.4414-56.543Q56.25-56.543 58.4229-54.3213Q60.5957-52.0996 60.5957-47.6562L60.5957-42.4316Q60.5957-40.2344 61.2549-39.4287Q61.9141-38.623 63.5254-38.1836Q64.9414-37.793 65.4541-36.499Q65.9668-35.2051 65.4541-33.9111Q64.9414-32.6172 63.5254-32.2266Q61.9141-31.8359 61.2549-31.0059Q60.5957-30.1758 60.5957-27.9785L60.5957-22.7539Q60.5957-18.3105 58.4229-16.1133Q56.25-13.916 52.4414-13.916Z"/>
  </g>
  <g id="Thin-S" transform="matrix(1 0 0 1 812.623 696)">
   <path class="hierarchical-0:tertiary SFSymbolsPreview8E8E8E" d="M20.3125-1.12305L67.2852-1.12305Q72.5098-1.12305 75.1709-3.80859Q77.832-6.49414 77.832-11.6211L77.832-58.6914Q77.832-63.8184 75.1709-66.5283Q72.5098-69.2383 67.2852-69.2383L20.3125-69.2383Q15.0879-69.2383 12.4268-66.5771Q9.76562-63.916 9.76562-58.6914L9.76562-11.6211Q9.76562-6.44531 12.4268-3.78418Q15.0879-1.12305 20.3125-1.12305Z"/>
   <path class="hierarchical-1:primary SFSymbolsPreview212121" d="M36.377-14.502Q32.959-14.502 31.0303-16.3818Q29.1016-18.2617 29.1016-22.2168L29.1016-28.3203Q29.1016-30.7617 28.2959-31.7139Q27.4902-32.666 25.5371-33.252Q24.6094-33.4961 24.292-34.375Q23.9746-35.2539 24.292-36.1084Q24.6094-36.9629 25.5371-37.207Q27.4902-37.7441 28.2959-38.7207Q29.1016-39.6973 29.1016-42.1387L29.1016-48.291Q29.1016-52.1973 31.0303-54.1016Q32.959-56.0059 36.377-56.0059Q37.207-56.0059 37.7197-55.5664Q38.2324-55.127 38.2324-54.4434Q38.2324-53.8086 37.793-53.3691Q37.3535-52.9297 36.6699-52.9297Q34.6191-52.9297 33.4473-51.7822Q32.2754-50.6348 32.2754-47.7539L32.2754-41.4062Q32.2754-38.7695 30.8594-37.0117Q29.4434-35.2539 27.1484-35.0586L27.1484-35.4004Q29.4434-35.2539 30.8594-33.4717Q32.2754-31.6895 32.2754-29.0527L32.2754-22.7539Q32.2754-19.8242 33.4473-18.6768Q34.6191-17.5293 36.6699-17.5293Q37.3535-17.5293 37.793-17.0898Q38.2324-16.6504 38.2324-16.0156Q38.2324-15.3809 37.7197-14.9414Q37.207-14.502 36.377-14.502ZM51.2207-14.502Q50.3418-14.502 49.8535-14.9414Q49.3652-15.3809 49.3652-16.0156Q49.3652-16.6504 49.8047-17.0898Q50.2441-17.5293 50.9277-17.5293Q52.9785-17.5293 54.1504-18.6768Q55.3223-19.8242 55.3223-22.7539L55.3223-29.0527Q55.3223-31.6895 56.7139-33.4717Q58.1055-35.2539 60.4492-35.4004L60.4492-35.0586Q58.1055-35.2539 56.7139-37.0117Q55.3223-38.7695 55.3223-41.4062L55.3223-47.7539Q55.3223-50.6348 54.1504-51.7822Q52.9785-52.9297 50.9277-52.9297Q50.2441-52.9297 49.8047-53.3691Q49.3652-53.8086 49.3652-54.4434Q49.3652-55.127 49.8535-55.5664Q50.3418-56.0059 51.2207-56.0059Q54.5898-56.0059 56.543-54.1016Q58.4961-52.1973 58.4961-48.291L58.4961-42.1387Q58.4961-39.6973 59.3018-38.7451Q60.1074-37.793 62.0605-37.207Q62.9883-36.9141 63.3057-36.0596Q63.623-35.2051 63.3057-34.3506Q62.9883-33.4961 62.0605-33.252Q60.1074-32.7637 59.3018-31.7627Q58.4961-30.7617 58.4961-28.3203L58.4961-22.2168Q58.4961-18.2617 56.543-16.3818Q54.5898-14.502 51.2207-14.502Z"/>
  </g>
  <g id="Ultralight-S" transform="matrix(1 0 0 1 516.352 696)">
   <path class="hierarchical-0:tertiary SFSymbolsPreview8E8E8E" d="M19.7754-1.5625L66.9434-1.5625Q71.875-1.5625 74.4141-4.15039Q76.9531-6.73828 76.9531-11.5723L76.9531-58.7891Q76.9531-63.623 74.4141-66.1865Q71.875-68.75 66.9434-68.75L19.7754-68.75Q14.8438-68.75 12.3047-66.2109Q9.76562-63.6719 9.76562-58.7891L9.76562-11.5723Q9.76562-6.64062 12.3047-4.10156Q14.8438-1.5625 19.7754-1.5625Z"/>
   <path class="hierarchical-1:primary SFSymbolsPreview212121" d="M36.0352-14.7949Q32.8613-14.7949 31.0303-16.5283Q29.1992-18.2617 29.1992-21.9238L29.1992-28.5156Q29.1992-31.1035 28.3447-32.1289Q27.4902-33.1543 25.3418-33.7891Q24.6582-33.9844 24.4385-34.6191Q24.2188-35.2539 24.4385-35.8887Q24.6582-36.5234 25.3418-36.6699Q27.4902-37.3047 28.3447-38.3545Q29.1992-39.4043 29.1992-41.9922L29.1992-48.584Q29.1992-52.2461 31.0303-53.9795Q32.8613-55.7129 36.0352-55.7129Q36.5234-55.7129 36.8408-55.3955Q37.1582-55.0781 37.1582-54.6387Q37.1582-54.1992 36.8652-53.8818Q36.5723-53.5645 36.084-53.5645Q33.9844-53.5645 32.6904-52.3682Q31.3965-51.1719 31.3965-48.0469L31.3965-41.3574Q31.3965-38.6719 30.0537-36.9385Q28.7109-35.2051 26.5137-35.1562L26.5137-35.3516Q28.7109-35.3027 30.0537-33.5449Q31.3965-31.7871 31.3965-29.1016L31.3965-22.4609Q31.3965-19.3359 32.6904-18.1396Q33.9844-16.9434 36.084-16.9434Q36.5723-16.9434 36.8652-16.626Q37.1582-16.3086 37.1582-15.8691Q37.1582-15.4297 36.8408-15.1123Q36.5234-14.7949 36.0352-14.7949ZM50.5859-14.7949Q50.0488-14.7949 49.7314-15.1123Q49.4141-15.4297 49.4141-15.8691Q49.4141-16.3086 49.7314-16.626Q50.0488-16.9434 50.4883-16.9434Q52.5879-16.9434 53.8818-18.1396Q55.1758-19.3359 55.1758-22.4609L55.1758-29.1016Q55.1758-31.7871 56.543-33.5449Q57.9102-35.3027 60.1074-35.3516L60.1074-35.1562Q57.9102-35.2051 56.543-36.9385Q55.1758-38.6719 55.1758-41.3574L55.1758-48.0469Q55.1758-51.1719 53.8818-52.3682Q52.5879-53.5645 50.4883-53.5645Q50.0488-53.5645 49.7314-53.8818Q49.4141-54.1992 49.4141-54.6387Q49.4141-55.0781 49.7314-55.3955Q50.0488-55.7129 50.5859-55.7129Q53.7109-55.7129 55.542-53.9795Q57.373-52.2461 57.373-48.584L57.373-41.9922Q57.373-39.4043 58.2764-38.3789Q59.1797-37.3535 61.2793-36.6699Q61.9141-36.4746 62.1582-35.8398Q62.4023-35.2051 62.1582-34.5947Q61.9141-33.9844 61.2793-33.7891Q59.1309-33.252 58.252-32.1777Q57.373-31.1035 57.373-28.5156L57.373-21.9238Q57.373-18.2617 55.542-16.5283Q53.7109-14.7949 50.5859-14.7949Z"/>
  </g>
 </g>
</svg>
