<?xml version="1.0" encoding="UTF-8"?>
<!--Generator: Apple Native CoreSVG 175-->
<!DOCTYPE svg
PUBLIC "-//W3C//DTD SVG 1.1//EN"
       "http://www.w3.org/Graphics/SVG/1.1/DTD/svg11.dtd">
<svg version="1.1" xmlns="http://www.w3.org/2000/svg" xmlns:xlink="http://www.w3.org/1999/xlink" width="3300" height="2200">
 <!--glyph: "uni100ED1.medium", point size: 100.0, font version: "17.0d11e1", template writer version: "65.1"-->
 <style>.hierarchical-0:secondary {fill:#4D4D4D}
.hierarchical-1:primary {fill:#212121}

.SFSymbolsPreview212121 {fill:#212121;opacity:1.0}
.SFSymbolsPreview4D4D4D {fill:#4D4D4D;opacity:1.0}
</style>
 <g id="Notes">
  <rect height="2200" id="artboard" style="fill:white;opacity:1" width="3300" x="0" y="0"/>
  <line style="fill:none;stroke:black;opacity:1;stroke-width:0.5;" x1="263" x2="3036" y1="292" y2="292"/>
  <text style="stroke:none;fill:black;font-family:sans-serif;font-size:13;font-weight:bold;" transform="matrix(1 0 0 1 263 322)">Weight/Scale Variations</text>
  <text style="stroke:none;fill:black;font-family:sans-serif;font-size:13;text-anchor:middle;" transform="matrix(1 0 0 1 559.711 322)">Ultralight</text>
  <text style="stroke:none;fill:black;font-family:sans-serif;font-size:13;text-anchor:middle;" transform="matrix(1 0 0 1 856.422 322)">Thin</text>
  <text style="stroke:none;fill:black;font-family:sans-serif;font-size:13;text-anchor:middle;" transform="matrix(1 0 0 1 1153.13 322)">Light</text>
  <text style="stroke:none;fill:black;font-family:sans-serif;font-size:13;text-anchor:middle;" transform="matrix(1 0 0 1 1449.84 322)">Regular</text>
  <text style="stroke:none;fill:black;font-family:sans-serif;font-size:13;text-anchor:middle;" transform="matrix(1 0 0 1 1746.56 322)">Medium</text>
  <text style="stroke:none;fill:black;font-family:sans-serif;font-size:13;text-anchor:middle;" transform="matrix(1 0 0 1 2043.27 322)">Semibold</text>
  <text style="stroke:none;fill:black;font-family:sans-serif;font-size:13;text-anchor:middle;" transform="matrix(1 0 0 1 2339.98 322)">Bold</text>
  <text style="stroke:none;fill:black;font-family:sans-serif;font-size:13;text-anchor:middle;" transform="matrix(1 0 0 1 2636.69 322)">Heavy</text>
  <text style="stroke:none;fill:black;font-family:sans-serif;font-size:13;text-anchor:middle;" transform="matrix(1 0 0 1 2933.4 322)">Black</text>
  <line style="fill:none;stroke:black;opacity:1;stroke-width:0.5;" x1="263" x2="3036" y1="1903" y2="1903"/>
  <g transform="matrix(1 0 0 1 263 1933)">
   <path d="M9.24805 0.830078Q10.8691 0.830078 12.2949 0.214844Q13.7207-0.400391 14.8096-1.49414Q15.8984-2.58789 16.5186-4.01367Q17.1387-5.43945 17.1387-7.05078Q17.1387-8.66211 16.5186-10.0879Q15.8984-11.5137 14.8047-12.6074Q13.7109-13.7012 12.2852-14.3164Q10.8594-14.9316 9.23828-14.9316Q7.62695-14.9316 6.20117-14.3164Q4.77539-13.7012 3.69141-12.6074Q2.60742-11.5137 1.9873-10.0879Q1.36719-8.66211 1.36719-7.05078Q1.36719-5.43945 1.9873-4.01367Q2.60742-2.58789 3.69629-1.49414Q4.78516-0.400391 6.21094 0.214844Q7.63672 0.830078 9.24805 0.830078ZM9.24805-0.654297Q7.91992-0.654297 6.7627-1.14746Q5.60547-1.64062 4.73145-2.51953Q3.85742-3.39844 3.36426-4.56055Q2.87109-5.72266 2.87109-7.05078Q2.87109-8.37891 3.35938-9.54102Q3.84766-10.7031 4.72168-11.582Q5.5957-12.4609 6.75293-12.9541Q7.91016-13.4473 9.23828-13.4473Q10.5762-13.4473 11.7334-12.9541Q12.8906-12.4609 13.7695-11.582Q14.6484-10.7031 15.1465-9.54102Q15.6445-8.37891 15.6445-7.05078Q15.6445-5.72266 15.1514-4.56055Q14.6582-3.39844 13.7842-2.51953Q12.9102-1.64062 11.748-1.14746Q10.5859-0.654297 9.24805-0.654297ZM5.6543-7.05078Q5.6543-6.72852 5.85938-6.52832Q6.06445-6.32812 6.40625-6.32812L8.51562-6.32812L8.51562-4.20898Q8.51562-3.88672 8.71094-3.67676Q8.90625-3.4668 9.23828-3.4668Q9.56055-3.4668 9.77051-3.67676Q9.98047-3.88672 9.98047-4.20898L9.98047-6.32812L12.0898-6.32812Q12.4219-6.32812 12.627-6.52832Q12.832-6.72852 12.832-7.05078Q12.832-7.38281 12.627-7.58789Q12.4219-7.79297 12.0898-7.79297L9.98047-7.79297L9.98047-9.90234Q9.98047-10.2344 9.77051-10.4443Q9.56055-10.6543 9.23828-10.6543Q8.90625-10.6543 8.71094-10.4443Q8.51562-10.2344 8.51562-9.90234L8.51562-7.79297L6.40625-7.79297Q6.06445-7.79297 5.85938-7.58789Q5.6543-7.38281 5.6543-7.05078Z"/>
  </g>
  <g transform="matrix(1 0 0 1 281.867 1933)">
   <path d="M11.709 2.91016Q13.75 2.91016 15.5518 2.12891Q17.3535 1.34766 18.7305-0.0292969Q20.1074-1.40625 20.8887-3.20801Q21.6699-5.00977 21.6699-7.05078Q21.6699-9.0918 20.8887-10.8936Q20.1074-12.6953 18.7305-14.0723Q17.3535-15.4492 15.5469-16.2305Q13.7402-17.0117 11.6992-17.0117Q9.6582-17.0117 7.85645-16.2305Q6.05469-15.4492 4.68262-14.0723Q3.31055-12.6953 2.5293-10.8936Q1.74805-9.0918 1.74805-7.05078Q1.74805-5.00977 2.5293-3.20801Q3.31055-1.40625 4.6875-0.0292969Q6.06445 1.34766 7.86621 2.12891Q9.66797 2.91016 11.709 2.91016ZM11.709 1.25Q9.98047 1.25 8.47656 0.605469Q6.97266-0.0390625 5.83496-1.17676Q4.69727-2.31445 4.05762-3.81836Q3.41797-5.32227 3.41797-7.05078Q3.41797-8.7793 4.05762-10.2832Q4.69727-11.7871 5.83008-12.9297Q6.96289-14.0723 8.4668-14.7119Q9.9707-15.3516 11.6992-15.3516Q13.4277-15.3516 14.9316-14.7119Q16.4355-14.0723 17.5781-12.9297Q18.7207-11.7871 19.3652-10.2832Q20.0098-8.7793 20.0098-7.05078Q20.0098-5.32227 19.3701-3.81836Q18.7305-2.31445 17.5928-1.17676Q16.4551-0.0390625 14.9463 0.605469Q13.4375 1.25 11.709 1.25ZM7.17773-7.05078Q7.17773-6.69922 7.41211-6.47461Q7.64648-6.25 8.01758-6.25L10.8887-6.25L10.8887-3.36914Q10.8887-2.99805 11.1133-2.76855Q11.3379-2.53906 11.6895-2.53906Q12.0605-2.53906 12.29-2.76855Q12.5195-2.99805 12.5195-3.36914L12.5195-6.25L15.4004-6.25Q15.7715-6.25 16.001-6.47461Q16.2305-6.69922 16.2305-7.05078Q16.2305-7.42188 16.001-7.65137Q15.7715-7.88086 15.4004-7.88086L12.5195-7.88086L12.5195-10.752Q12.5195-11.1328 12.29-11.3623Q12.0605-11.5918 11.6895-11.5918Q11.3379-11.5918 11.1133-11.3574Q10.8887-11.123 10.8887-10.752L10.8887-7.88086L8.01758-7.88086Q7.63672-7.88086 7.40723-7.65137Q7.17773-7.42188 7.17773-7.05078Z"/>
  </g>
  <g transform="matrix(1 0 0 1 305.646 1933)">
   <path d="M14.9707 5.66406Q17.0605 5.66406 18.96 5.01465Q20.8594 4.36523 22.4512 3.19336Q24.043 2.02148 25.2197 0.429688Q26.3965-1.16211 27.0459-3.06641Q27.6953-4.9707 27.6953-7.05078Q27.6953-9.14062 27.0459-11.04Q26.3965-12.9395 25.2197-14.5312Q24.043-16.123 22.4512-17.2998Q20.8594-18.4766 18.9551-19.126Q17.0508-19.7754 14.9609-19.7754Q12.8711-19.7754 10.9717-19.126Q9.07227-18.4766 7.48535-17.2998Q5.89844-16.123 4.72168-14.5312Q3.54492-12.9395 2.90039-11.04Q2.25586-9.14062 2.25586-7.05078Q2.25586-4.9707 2.90527-3.06641Q3.55469-1.16211 4.72656 0.429688Q5.89844 2.02148 7.49023 3.19336Q9.08203 4.36523 10.9814 5.01465Q12.8809 5.66406 14.9707 5.66406ZM14.9707 3.84766Q13.1641 3.84766 11.5283 3.2959Q9.89258 2.74414 8.53516 1.74805Q7.17773 0.751953 6.17676-0.610352Q5.17578-1.97266 4.62891-3.6084Q4.08203-5.24414 4.08203-7.05078Q4.08203-8.86719 4.62891-10.5029Q5.17578-12.1387 6.17188-13.501Q7.16797-14.8633 8.52539-15.8594Q9.88281-16.8555 11.5186-17.4023Q13.1543-17.9492 14.9609-17.9492Q16.7773-17.9492 18.4131-17.4023Q20.0488-16.8555 21.4111-15.8594Q22.7734-14.8633 23.7695-13.501Q24.7656-12.1387 25.3174-10.5029Q25.8691-8.86719 25.8691-7.05078Q25.8789-5.24414 25.332-3.6084Q24.7852-1.97266 23.7842-0.610352Q22.7832 0.751953 21.4209 1.74805Q20.0586 2.74414 18.4229 3.2959Q16.7871 3.84766 14.9707 3.84766ZM9.19922-7.05078Q9.19922-6.66992 9.45801-6.4209Q9.7168-6.17188 10.1172-6.17188L14.0625-6.17188L14.0625-2.2168Q14.0625-1.81641 14.3115-1.55762Q14.5605-1.29883 14.9512-1.29883Q15.3516-1.29883 15.6104-1.55273Q15.8691-1.80664 15.8691-2.2168L15.8691-6.17188L19.8242-6.17188Q20.2246-6.17188 20.4785-6.4209Q20.7324-6.66992 20.7324-7.05078Q20.7324-7.46094 20.4785-7.71484Q20.2246-7.96875 19.8242-7.96875L15.8691-7.96875L15.8691-11.9141Q15.8691-12.3242 15.6104-12.583Q15.3516-12.8418 14.9512-12.8418Q14.5605-12.8418 14.3115-12.583Q14.0625-12.3242 14.0625-11.9141L14.0625-7.96875L10.1172-7.96875Q9.70703-7.96875 9.45312-7.71484Q9.19922-7.46094 9.19922-7.05078Z"/>
  </g>
  <text style="stroke:none;fill:black;font-family:sans-serif;font-size:13;font-weight:bold;" transform="matrix(1 0 0 1 263 1953)">Design Variations</text>
  <text style="stroke:none;fill:black;font-family:sans-serif;font-size:13;" transform="matrix(1 0 0 1 263 1971)">Symbols are supported in up to nine weights and three scales.</text>
  <text style="stroke:none;fill:black;font-family:sans-serif;font-size:13;" transform="matrix(1 0 0 1 263 1989)">For optimal layout with text and other symbols, vertically align</text>
  <text style="stroke:none;fill:black;font-family:sans-serif;font-size:13;" transform="matrix(1 0 0 1 263 2007)">symbols with the adjacent text.</text>
  <line style="fill:none;stroke:#00AEEF;stroke-width:0.5;opacity:1.0;" x1="776" x2="776" y1="1919" y2="1933"/>
  <g transform="matrix(1 0 0 1 776 1933)">
   <path d="M3.31055 0.15625Q3.70117 0.15625 3.91602-0.00976562Q4.13086-0.175781 4.26758-0.585938L5.52734-4.0332L11.2891-4.0332L12.5488-0.585938Q12.6855-0.175781 12.9004-0.00976562Q13.1152 0.15625 13.4961 0.15625Q13.8867 0.15625 14.1162-0.0585938Q14.3457-0.273438 14.3457-0.644531Q14.3457-0.869141 14.2383-1.17188L9.6582-13.3691Q9.48242-13.8184 9.17969-14.043Q8.87695-14.2676 8.4082-14.2676Q7.5-14.2676 7.17773-13.3789L2.59766-1.16211Q2.49023-0.859375 2.49023-0.634766Q2.49023-0.263672 2.70996-0.0537109Q2.92969 0.15625 3.31055 0.15625ZM6.00586-5.51758L8.37891-12.0898L8.42773-12.0898L10.8008-5.51758Z"/>
  </g>
  <line style="fill:none;stroke:#00AEEF;stroke-width:0.5;opacity:1.0;" x1="793.197" x2="793.197" y1="1919" y2="1933"/>
  <text style="stroke:none;fill:black;font-family:sans-serif;font-size:13;font-weight:bold;" transform="matrix(1 0 0 1 776 1953)">Margins</text>
  <text style="stroke:none;fill:black;font-family:sans-serif;font-size:13;" transform="matrix(1 0 0 1 776 1971)">Leading and trailing margins on the left and right side of each symbol</text>
  <text style="stroke:none;fill:black;font-family:sans-serif;font-size:13;" transform="matrix(1 0 0 1 776 1989)">can be adjusted by modifying the x-location of the margin guidelines.</text>
  <text style="stroke:none;fill:black;font-family:sans-serif;font-size:13;" transform="matrix(1 0 0 1 776 2007)">Modifications are automatically applied proportionally to all</text>
  <text style="stroke:none;fill:black;font-family:sans-serif;font-size:13;" transform="matrix(1 0 0 1 776 2025)">scales and weights.</text>
  <g transform="matrix(1 0 0 1 1289 1933)">
   <path d="M2.8418 1.86523L4.54102 3.57422Q5.18555 4.22852 5.90332 4.17969Q6.62109 4.13086 7.31445 3.35938L18.0078-8.42773L17.041-9.4043L6.42578 2.27539Q6.16211 2.57812 5.89355 2.61719Q5.625 2.65625 5.27344 2.30469L4.10156 1.14258Q3.75 0.791016 3.79395 0.522461Q3.83789 0.253906 4.14062-0.0195312L15.6152-10.8203L14.6387-11.7871L3.04688-0.898438Q2.30469-0.214844 2.25098 0.498047Q2.19727 1.21094 2.8418 1.86523ZM9.25781-16.3281Q8.94531-16.0254 8.90625-15.6348Q8.86719-15.2441 9.04297-14.9512Q9.21875-14.6777 9.55566-14.541Q9.89258-14.4043 10.3809-14.5215Q11.4746-14.7754 12.5977-14.7314Q13.7207-14.6875 14.7949-13.9844L14.209-12.5293Q13.9551-11.9043 14.0674-11.4404Q14.1797-10.9766 14.5801-10.5664L16.875-8.25195Q17.2363-7.88086 17.5781-7.82227Q17.9199-7.76367 18.3398-7.8418L19.4043-8.03711L20.0684-7.36328L20.0293-6.80664Q20-6.43555 20.1221-6.12305Q20.2441-5.81055 20.6055-5.44922L21.3672-4.70703Q21.7285-4.3457 22.1533-4.33105Q22.5781-4.31641 22.9297-4.66797L25.8398-7.58789Q26.1914-7.93945 26.1816-8.35449Q26.1719-8.76953 25.8105-9.13086L25.0391-9.89258Q24.6875-10.2539 24.3799-10.3857Q24.0723-10.5176 23.7109-10.4883L23.1348-10.4395L22.4902-11.0742L22.7344-12.1973Q22.832-12.6172 22.6953-12.9834Q22.5586-13.3496 22.1191-13.7891L19.9219-15.9766Q18.6719-17.2168 17.2607-17.8369Q15.8496-18.457 14.4189-18.4814Q12.9883-18.5059 11.665-17.959Q10.3418-17.4121 9.25781-16.3281ZM10.752-15.957Q11.6602-16.6211 12.7002-16.9043Q13.7402-17.1875 14.8047-17.085Q15.8691-16.9824 16.8701-16.5137Q17.8711-16.0449 18.7012-15.2051L21.1328-12.793Q21.3086-12.6172 21.3525-12.4512Q21.3965-12.2852 21.3379-12.0312L21.0156-10.5469L22.5195-9.0625L23.5059-9.12109Q23.6914-9.13086 23.7891-9.09668Q23.8867-9.0625 24.0332-8.91602L24.6094-8.33984L22.168-5.89844L21.5918-6.47461Q21.4453-6.62109 21.4062-6.71875Q21.3672-6.81641 21.377-7.01172L21.4453-7.98828L19.9512-9.47266L18.4277-9.21875Q18.1836-9.16992 18.042-9.2041Q17.9004-9.23828 17.7148-9.41406L15.7129-11.416Q15.5176-11.5918 15.4932-11.7529Q15.4688-11.9141 15.5859-12.1875L16.4648-14.2773Q15.293-15.3711 13.8281-15.791Q12.3633-16.2109 10.8398-15.7617Q10.7227-15.7324 10.6885-15.8057Q10.6543-15.8789 10.752-15.957Z"/>
  </g>
  <text style="stroke:none;fill:black;font-family:sans-serif;font-size:13;font-weight:bold;" transform="matrix(1 0 0 1 1289 1953)">Exporting</text>
  <text style="stroke:none;fill:black;font-family:sans-serif;font-size:13;" transform="matrix(1 0 0 1 1289 1971)">Symbols should be outlined when exporting to ensure the</text>
  <text style="stroke:none;fill:black;font-family:sans-serif;font-size:13;" transform="matrix(1 0 0 1 1289 1989)">design is preserved when submitting to Xcode.</text>
  <text id="template-version" style="stroke:none;fill:black;font-family:sans-serif;font-size:13;text-anchor:end;" transform="matrix(1 0 0 1 3036 1933)">Template v.3.0</text>
  <text style="stroke:none;fill:black;font-family:sans-serif;font-size:13;text-anchor:end;" transform="matrix(1 0 0 1 3036 1951)">Requires Xcode 13 or greater</text>
  <text id="descriptive-name" style="stroke:none;fill:black;font-family:sans-serif;font-size:13;text-anchor:end;" transform="matrix(1 0 0 1 3036 1969)">Generated from takeoutbag.and.cup.and.straw.fill</text>
  <text style="stroke:none;fill:black;font-family:sans-serif;font-size:13;text-anchor:end;" transform="matrix(1 0 0 1 3036 1987)">Typeset at 100 points</text>
  <text style="stroke:none;fill:black;font-family:sans-serif;font-size:13;" transform="matrix(1 0 0 1 263 726)">Small</text>
  <text style="stroke:none;fill:black;font-family:sans-serif;font-size:13;" transform="matrix(1 0 0 1 263 1156)">Medium</text>
  <text style="stroke:none;fill:black;font-family:sans-serif;font-size:13;" transform="matrix(1 0 0 1 263 1586)">Large</text>
 </g>
 <g id="Guides">
  <g id="H-reference" style="fill:#27AAE1;stroke:none;" transform="matrix(1 0 0 1 339 696)">
   <path d="M0.976562 0L3.66211 0L29.3457-67.1387L30.0293-67.1387L30.0293-70.459L28.125-70.459ZM11.6699-24.4629L46.9727-24.4629L46.2402-26.709L12.4512-26.709ZM55.127 0L57.7637 0L30.6152-70.459L29.4434-70.459L29.4434-67.1387Z"/>
  </g>
  <line id="Baseline-S" style="fill:none;stroke:#27AAE1;opacity:1;stroke-width:0.5;" x1="263" x2="3036" y1="696" y2="696"/>
  <line id="Capline-S" style="fill:none;stroke:#27AAE1;opacity:1;stroke-width:0.5;" x1="263" x2="3036" y1="625.541" y2="625.541"/>
  <g id="H-reference" style="fill:#27AAE1;stroke:none;" transform="matrix(1 0 0 1 339 1126)">
   <path d="M0.976562 0L3.66211 0L29.3457-67.1387L30.0293-67.1387L30.0293-70.459L28.125-70.459ZM11.6699-24.4629L46.9727-24.4629L46.2402-26.709L12.4512-26.709ZM55.127 0L57.7637 0L30.6152-70.459L29.4434-70.459L29.4434-67.1387Z"/>
  </g>
  <line id="Baseline-M" style="fill:none;stroke:#27AAE1;opacity:1;stroke-width:0.5;" x1="263" x2="3036" y1="1126" y2="1126"/>
  <line id="Capline-M" style="fill:none;stroke:#27AAE1;opacity:1;stroke-width:0.5;" x1="263" x2="3036" y1="1055.54" y2="1055.54"/>
  <g id="H-reference" style="fill:#27AAE1;stroke:none;" transform="matrix(1 0 0 1 339 1556)">
   <path d="M0.976562 0L3.66211 0L29.3457-67.1387L30.0293-67.1387L30.0293-70.459L28.125-70.459ZM11.6699-24.4629L46.9727-24.4629L46.2402-26.709L12.4512-26.709ZM55.127 0L57.7637 0L30.6152-70.459L29.4434-70.459L29.4434-67.1387Z"/>
  </g>
  <line id="Baseline-L" style="fill:none;stroke:#27AAE1;opacity:1;stroke-width:0.5;" x1="263" x2="3036" y1="1556" y2="1556"/>
  <line id="Capline-L" style="fill:none;stroke:#27AAE1;opacity:1;stroke-width:0.5;" x1="263" x2="3036" y1="1485.54" y2="1485.54"/>
  <line id="left-margin-Ultralight-S" style="fill:none;stroke:#00AEEF;stroke-width:0.5;opacity:1.0;" x1="504.804" x2="504.804" y1="600.785" y2="720.121"/>
  <line id="right-margin-Ultralight-S" style="fill:none;stroke:#00AEEF;stroke-width:0.5;opacity:1.0;" x1="614.618" x2="614.618" y1="600.785" y2="720.121"/>
  <line id="left-margin-Thin-S" style="fill:none;stroke:#00AEEF;stroke-width:0.5;opacity:1.0;" x1="800.661" x2="800.661" y1="600.785" y2="720.121"/>
  <line id="right-margin-Thin-S" style="fill:none;stroke:#00AEEF;stroke-width:0.5;opacity:1.0;" x1="912.184" x2="912.184" y1="600.785" y2="720.121"/>
  <line id="left-margin-Light-S" style="fill:none;stroke:#00AEEF;stroke-width:0.5;opacity:1.0;" x1="1095.74" x2="1095.74" y1="600.785" y2="720.121"/>
  <line id="right-margin-Light-S" style="fill:none;stroke:#00AEEF;stroke-width:0.5;opacity:1.0;" x1="1210.53" x2="1210.53" y1="600.785" y2="720.121"/>
  <line id="left-margin-Regular-S" style="fill:none;stroke:#00AEEF;stroke-width:0.5;opacity:1.0;" x1="1391.2" x2="1391.2" y1="600.785" y2="720.121"/>
  <line id="right-margin-Regular-S" style="fill:none;stroke:#00AEEF;stroke-width:0.5;opacity:1.0;" x1="1508.49" x2="1508.49" y1="600.785" y2="720.121"/>
  <line id="left-margin-Medium-S" style="fill:none;stroke:#00AEEF;stroke-width:0.5;opacity:1.0;" x1="1687.38" x2="1687.38" y1="600.785" y2="720.121"/>
  <line id="right-margin-Medium-S" style="fill:none;stroke:#00AEEF;stroke-width:0.5;opacity:1.0;" x1="1805.74" x2="1805.74" y1="600.785" y2="720.121"/>
  <line id="left-margin-Semibold-S" style="fill:none;stroke:#00AEEF;stroke-width:0.5;opacity:1.0;" x1="1983.65" x2="1983.65" y1="600.785" y2="720.121"/>
  <line id="right-margin-Semibold-S" style="fill:none;stroke:#00AEEF;stroke-width:0.5;opacity:1.0;" x1="2102.89" x2="2102.89" y1="600.785" y2="720.121"/>
  <line id="left-margin-Bold-S" style="fill:none;stroke:#00AEEF;stroke-width:0.5;opacity:1.0;" x1="2279.8" x2="2279.8" y1="600.785" y2="720.121"/>
  <line id="right-margin-Bold-S" style="fill:none;stroke:#00AEEF;stroke-width:0.5;opacity:1.0;" x1="2400.16" x2="2400.16" y1="600.785" y2="720.121"/>
  <line id="left-margin-Heavy-S" style="fill:none;stroke:#00AEEF;stroke-width:0.5;opacity:1.0;" x1="2575.73" x2="2575.73" y1="600.785" y2="720.121"/>
  <line id="right-margin-Heavy-S" style="fill:none;stroke:#00AEEF;stroke-width:0.5;opacity:1.0;" x1="2697.65" x2="2697.65" y1="600.785" y2="720.121"/>
  <line id="left-margin-Black-S" style="fill:none;stroke:#00AEEF;stroke-width:0.5;opacity:1.0;" x1="2871.71" x2="2871.71" y1="600.785" y2="720.121"/>
  <line id="right-margin-Black-S" style="fill:none;stroke:#00AEEF;stroke-width:0.5;opacity:1.0;" x1="2995.09" x2="2995.09" y1="600.785" y2="720.121"/>
  <line id="left-margin-Ultralight-M" style="fill:none;stroke:#00AEEF;stroke-width:0.5;opacity:1.0;" x1="489.96" x2="489.96" y1="1030.79" y2="1150.12"/>
  <line id="right-margin-Ultralight-M" style="fill:none;stroke:#00AEEF;stroke-width:0.5;opacity:1.0;" x1="629.462" x2="629.462" y1="1030.79" y2="1150.12"/>
  <line id="left-margin-Thin-M" style="fill:none;stroke:#00AEEF;stroke-width:0.5;opacity:1.0;" x1="785.719" x2="785.719" y1="1030.79" y2="1150.12"/>
  <line id="right-margin-Thin-M" style="fill:none;stroke:#00AEEF;stroke-width:0.5;opacity:1.0;" x1="927.125" x2="927.125" y1="1030.79" y2="1150.12"/>
  <line id="left-margin-Light-M" style="fill:none;stroke:#00AEEF;stroke-width:0.5;opacity:1.0;" x1="1080.57" x2="1080.57" y1="1030.79" y2="1150.12"/>
  <line id="right-margin-Light-M" style="fill:none;stroke:#00AEEF;stroke-width:0.5;opacity:1.0;" x1="1225.69" x2="1225.69" y1="1030.79" y2="1150.12"/>
  <line id="left-margin-Regular-M" style="fill:none;stroke:#00AEEF;stroke-width:0.5;opacity:1.0;" x1="1375.89" x2="1375.89" y1="1030.79" y2="1150.12"/>
  <line id="right-margin-Regular-M" style="fill:none;stroke:#00AEEF;stroke-width:0.5;opacity:1.0;" x1="1523.79" x2="1523.79" y1="1030.79" y2="1150.12"/>
  <line id="left-margin-Medium-M" style="fill:none;stroke:#00AEEF;stroke-width:0.5;opacity:1.0;" x1="1671.8" x2="1671.8" y1="1030.79" y2="1150.12"/>
  <line id="right-margin-Medium-M" style="fill:none;stroke:#00AEEF;stroke-width:0.5;opacity:1.0;" x1="1821.31" x2="1821.31" y1="1030.79" y2="1150.12"/>
  <line id="left-margin-Semibold-M" style="fill:none;stroke:#00AEEF;stroke-width:0.5;opacity:1.0;" x1="1967.88" x2="1967.88" y1="1030.79" y2="1150.12"/>
  <line id="right-margin-Semibold-M" style="fill:none;stroke:#00AEEF;stroke-width:0.5;opacity:1.0;" x1="2118.66" x2="2118.66" y1="1030.79" y2="1150.12"/>
  <line id="left-margin-Bold-M" style="fill:none;stroke:#00AEEF;stroke-width:0.5;opacity:1.0;" x1="2263.78" x2="2263.78" y1="1030.79" y2="1150.12"/>
  <line id="right-margin-Bold-M" style="fill:none;stroke:#00AEEF;stroke-width:0.5;opacity:1.0;" x1="2416.17" x2="2416.17" y1="1030.79" y2="1150.12"/>
  <line id="left-margin-Heavy-M" style="fill:none;stroke:#00AEEF;stroke-width:0.5;opacity:1.0;" x1="2559.3" x2="2559.3" y1="1030.79" y2="1150.12"/>
  <line id="right-margin-Heavy-M" style="fill:none;stroke:#00AEEF;stroke-width:0.5;opacity:1.0;" x1="2714.08" x2="2714.08" y1="1030.79" y2="1150.12"/>
  <line id="left-margin-Black-M" style="fill:none;stroke:#00AEEF;stroke-width:0.5;opacity:1.0;" x1="2854.96" x2="2854.96" y1="1030.79" y2="1150.12"/>
  <line id="right-margin-Black-M" style="fill:none;stroke:#00AEEF;stroke-width:0.5;opacity:1.0;" x1="3011.84" x2="3011.84" y1="1030.79" y2="1150.12"/>
  <line id="left-margin-Ultralight-L" style="fill:none;stroke:#00AEEF;stroke-width:0.5;opacity:1.0;" x1="470.112" x2="470.112" y1="1460.79" y2="1580.12"/>
  <line id="right-margin-Ultralight-L" style="fill:none;stroke:#00AEEF;stroke-width:0.5;opacity:1.0;" x1="649.311" x2="649.311" y1="1460.79" y2="1580.12"/>
  <line id="left-margin-Thin-L" style="fill:none;stroke:#00AEEF;stroke-width:0.5;opacity:1.0;" x1="765.748" x2="765.748" y1="1460.79" y2="1580.12"/>
  <line id="right-margin-Thin-L" style="fill:none;stroke:#00AEEF;stroke-width:0.5;opacity:1.0;" x1="947.096" x2="947.096" y1="1460.79" y2="1580.12"/>
  <line id="left-margin-Light-L" style="fill:none;stroke:#00AEEF;stroke-width:0.5;opacity:1.0;" x1="1060.38" x2="1060.38" y1="1460.79" y2="1580.12"/>
  <line id="right-margin-Light-L" style="fill:none;stroke:#00AEEF;stroke-width:0.5;opacity:1.0;" x1="1245.88" x2="1245.88" y1="1460.79" y2="1580.12"/>
  <line id="left-margin-Regular-L" style="fill:none;stroke:#00AEEF;stroke-width:0.5;opacity:1.0;" x1="1355.51" x2="1355.51" y1="1460.79" y2="1580.12"/>
  <line id="right-margin-Regular-L" style="fill:none;stroke:#00AEEF;stroke-width:0.5;opacity:1.0;" x1="1544.18" x2="1544.18" y1="1460.79" y2="1580.12"/>
  <line id="left-margin-Medium-L" style="fill:none;stroke:#00AEEF;stroke-width:0.5;opacity:1.0;" x1="1651.15" x2="1651.15" y1="1460.79" y2="1580.12"/>
  <line id="right-margin-Medium-L" style="fill:none;stroke:#00AEEF;stroke-width:0.5;opacity:1.0;" x1="1841.97" x2="1841.97" y1="1460.79" y2="1580.12"/>
  <line id="left-margin-Semibold-L" style="fill:none;stroke:#00AEEF;stroke-width:0.5;opacity:1.0;" x1="1947.03" x2="1947.03" y1="1460.79" y2="1580.12"/>
  <line id="right-margin-Semibold-L" style="fill:none;stroke:#00AEEF;stroke-width:0.5;opacity:1.0;" x1="2139.51" x2="2139.51" y1="1460.79" y2="1580.12"/>
  <line id="left-margin-Bold-L" style="fill:none;stroke:#00AEEF;stroke-width:0.5;opacity:1.0;" x1="2242.64" x2="2242.64" y1="1460.79" y2="1580.12"/>
  <line id="right-margin-Bold-L" style="fill:none;stroke:#00AEEF;stroke-width:0.5;opacity:1.0;" x1="2437.32" x2="2437.32" y1="1460.79" y2="1580.12"/>
  <line id="left-margin-Heavy-L" style="fill:none;stroke:#00AEEF;stroke-width:0.5;opacity:1.0;" x1="2537.79" x2="2537.79" y1="1460.79" y2="1580.12"/>
  <line id="right-margin-Heavy-L" style="fill:none;stroke:#00AEEF;stroke-width:0.5;opacity:1.0;" x1="2735.59" x2="2735.59" y1="1460.79" y2="1580.12"/>
  <line id="left-margin-Black-L" style="fill:none;stroke:#00AEEF;stroke-width:0.5;opacity:1.0;" x1="2833.08" x2="2833.08" y1="1460.79" y2="1580.12"/>
  <line id="right-margin-Black-L" style="fill:none;stroke:#00AEEF;stroke-width:0.5;opacity:1.0;" x1="3033.72" x2="3033.72" y1="1460.79" y2="1580.12"/>
 </g>
 <g id="Symbols">
  <g id="Black-L" transform="matrix(1 0 0 1 2833.08 1556)">
   <path class="hierarchical-0:secondary SFSymbolsPreview4D4D4D" d="M38.623 31.0059L103.369 31.0059Q103.076 29.7852 102.881 28.4424Q102.686 27.0996 102.539 25.6836L96.2891-39.2578Q95.6055-46.3867 98.2422-52.0996Q100.879-57.8125 106.104-61.1816Q111.328-64.5508 118.408-64.5508L135.303-64.5508Q135.156-65.3809 134.912-66.1133Q134.668-66.8457 134.302-67.4805Q133.936-68.1152 133.447-68.75L120.264-86.2305L120.264-93.75Q120.264-103.027 115.137-108.057Q110.01-113.086 100.586-113.086L51.709-113.086Q42.2363-113.086 37.1094-108.057Q31.9824-103.027 31.9824-93.75L31.9824-86.2305L18.8477-68.75Q17.7734-67.3828 17.1875-65.8936Q16.6016-64.4043 16.333-62.4512Q16.0645-60.498 16.0645-57.666L16.0645 8.59375Q16.0645 19.4336 21.8994 25.2197Q27.7344 31.0059 38.623 31.0059ZM59.8145-86.2305Q57.666-86.2305 56.1279-87.8174Q54.5898-89.4043 54.5898-91.6016Q54.5898-93.7988 56.1279-95.3613Q57.666-96.9238 59.8145-96.9238L92.6758-96.9238Q94.8242-96.9238 96.3867-95.3613Q97.9492-93.7988 97.9492-91.6016Q97.9492-89.4043 96.4111-87.8174Q94.873-86.2305 92.6758-86.2305Z"/>
   <path class="hierarchical-1:primary SFSymbolsPreview212121" d="M132.324 42.7734L159.766 42.7734Q168.359 42.7734 172.852 38.3545Q177.344 33.9355 178.223 24.6094L184.473-40.332Q185.059-46.0938 182.08-49.6094Q179.102-53.125 173.682-53.125L118.408-53.125Q112.988-53.125 110.01-49.6094Q107.031-46.0938 107.617-40.332L113.818 24.6094Q114.746 33.9355 119.214 38.3545Q123.682 42.7734 132.324 42.7734ZM139.99-47.5586L154.834-47.5586L155.42-55.7129Q155.566-57.5195 156.03-58.5449Q156.494-59.5703 157.617-60.4004L178.711-75.4395Q181.104-77.1973 181.689-79.4434Q182.275-81.6895 181.47-83.8135Q180.664-85.9375 178.857-87.3779Q177.051-88.8184 174.683-88.9648Q172.314-89.1113 169.824-87.3047L149.561-72.6562Q145.361-69.6289 143.286-65.8691Q141.211-62.1094 140.771-56.7383Z"/>
  </g>
  <g id="Heavy-L" transform="matrix(1 0 0 1 2537.79 1556)">
   <path class="hierarchical-0:secondary SFSymbolsPreview4D4D4D" d="M37.6953 30.0293L103.516 30.0293Q103.271 28.9551 103.101 27.832Q102.93 26.709 102.832 25.5371L96.4844-40.2832Q95.8496-46.6309 98.2422-51.7334Q100.635-56.8359 105.298-59.8389Q109.961-62.8418 116.309-62.8418L133.203-62.8418Q133.105-64.0137 132.861-64.917Q132.617-65.8203 132.178-66.6016Q131.738-67.3828 131.152-68.2129L118.262-85.3027L118.262-93.75Q118.262-102.393 113.477-107.08Q108.691-111.768 99.8535-111.768L50.0977-111.768Q41.2598-111.768 36.4746-107.08Q31.6895-102.393 31.6895-93.75L31.6895-85.3027L18.8477-68.2129Q17.7734-66.7969 17.1875-65.3564Q16.6016-63.916 16.333-62.0361Q16.0645-60.1562 16.0645-57.4707L16.0645 8.54492Q16.0645 18.9941 21.6309 24.5117Q27.1973 30.0293 37.6953 30.0293ZM58.3984-85.791Q56.4453-85.791 55.0049-87.2559Q53.5645-88.7207 53.5645-90.7227Q53.5645-92.7734 55.0049-94.2139Q56.4453-95.6543 58.3984-95.6543L91.6504-95.6543Q93.6035-95.6543 95.0439-94.2139Q96.4844-92.7734 96.4844-90.7227Q96.4844-88.7207 95.0684-87.2559Q93.6523-85.791 91.6504-85.791Z"/>
   <path class="hierarchical-1:primary SFSymbolsPreview212121" d="M130.42 41.3574L158.203 41.3574Q166.162 41.3574 170.337 37.2559Q174.512 33.1543 175.342 24.5117L181.641-41.2598Q182.178-46.2402 179.59-49.2676Q177.002-52.2949 172.314-52.2949L116.309-52.2949Q111.621-52.2949 109.033-49.2676Q106.445-46.2402 106.982-41.2598L113.232 24.5117Q114.111 33.1543 118.262 37.2559Q122.412 41.3574 130.42 41.3574ZM138.818-47.3633L151.953-47.3633L152.539-54.9805Q152.686-56.9336 153.223-58.0811Q153.76-59.2285 155.078-60.2051L176.172-75.2441Q178.271-76.8066 178.809-78.8086Q179.346-80.8105 178.613-82.6904Q177.881-84.5703 176.294-85.8398Q174.707-87.1094 172.583-87.2314Q170.459-87.3535 168.262-85.7422L147.998-71.0938Q143.945-68.1641 141.968-64.5996Q139.99-61.0352 139.551-55.8594Z"/>
  </g>
  <g id="Bold-L" transform="matrix(1 0 0 1 2242.64 1556)">
   <path class="hierarchical-0:secondary SFSymbolsPreview4D4D4D" d="M36.6699 28.9062L103.662 28.9062Q103.467 28.0762 103.345 27.1973Q103.223 26.3184 103.125 25.3906L96.7285-41.4062Q96.1914-46.875 98.2666-51.3184Q100.342-55.7617 104.419-58.3496Q108.496-60.9375 113.965-60.9375L130.859-60.9375Q130.762-62.4512 130.542-63.5742Q130.322-64.6973 129.834-65.6494Q129.346-66.6016 128.564-67.6758L116.016-84.2773L116.016-93.7988Q116.016-101.758 111.621-106.03Q107.227-110.303 99.0723-110.303L48.3398-110.303Q40.1855-110.303 35.791-106.03Q31.3965-101.758 31.3965-93.7988L31.3965-84.2773L18.8965-67.6758Q17.7734-66.2109 17.1875-64.7949Q16.6016-63.3789 16.3574-61.5967Q16.1133-59.8145 16.1133-57.2266L16.1133 8.54492Q16.1133 18.5547 21.3623 23.7305Q26.6113 28.9062 36.6699 28.9062ZM56.8359-85.3027Q55.0781-85.3027 53.7842-86.6211Q52.4902-87.9395 52.4902-89.7949Q52.4902-91.6016 53.7842-92.9199Q55.0781-94.2383 56.8359-94.2383L90.4785-94.2383Q92.2852-94.2383 93.5791-92.9199Q94.873-91.6016 94.873-89.7949Q94.873-87.9395 93.6035-86.6211Q92.334-85.3027 90.4785-85.3027Z"/>
   <path class="hierarchical-1:primary SFSymbolsPreview212121" d="M128.271 39.7949L156.494 39.7949Q163.721 39.7949 167.529 36.0352Q171.338 32.2754 172.07 24.4629L178.516-42.334Q178.906-46.3867 176.782-48.877Q174.658-51.3672 170.752-51.3672L113.965-51.3672Q110.059-51.3672 107.935-48.877Q105.811-46.3867 106.25-42.334L112.646 24.4629Q113.428 32.2754 117.212 36.0352Q120.996 39.7949 128.271 39.7949ZM137.549-47.168L148.779-47.168L149.268-54.1504Q149.463-56.2988 150.098-57.5928Q150.732-58.8867 152.246-59.9609L173.34-75.0488Q175.146-76.416 175.586-78.1006Q176.025-79.7852 175.415-81.4209Q174.805-83.0566 173.438-84.1309Q172.07-85.2051 170.239-85.3027Q168.408-85.4004 166.504-84.0332L146.24-69.3848Q142.334-66.5527 140.479-63.1836Q138.623-59.8145 138.232-54.8828Z"/>
  </g>
  <g id="Semibold-L" transform="matrix(1 0 0 1 1947.03 1556)">
   <path class="hierarchical-0:secondary SFSymbolsPreview4D4D4D" d="M35.9375 28.125L103.76 28.125Q103.613 27.4414 103.516 26.709Q103.418 25.9766 103.32 25.2441L96.875-42.1387Q96.3867-47.0703 98.2422-51.0254Q100.098-54.9805 103.76-57.2998Q107.422-59.6191 112.305-59.6191L129.248-59.6191Q129.15-61.377 128.931-62.6465Q128.711-63.916 128.174-64.9902Q127.637-66.0645 126.758-67.2363L114.453-83.5449L114.453-93.7988Q114.453-101.27 110.327-105.273Q106.201-109.277 98.5352-109.277L47.1191-109.277Q39.4043-109.277 35.2783-105.273Q31.1523-101.27 31.1523-93.7988L31.1523-83.5449L18.8965-67.2363Q17.7734-65.7715 17.1631-64.3799Q16.5527-62.9883 16.333-61.2793Q16.1133-59.5703 16.1133-57.0312L16.1133 8.49609Q16.1133 18.2129 21.1426 23.1689Q26.1719 28.125 35.9375 28.125ZM55.7617-84.9121Q54.1016-84.9121 52.9053-86.1328Q51.709-87.3535 51.709-89.1113Q51.709-90.7715 52.9053-91.9922Q54.1016-93.2129 55.7617-93.2129L89.6973-93.2129Q91.3574-93.2129 92.5537-91.9922Q93.75-90.7715 93.75-89.1113Q93.75-87.3535 92.5537-86.1328Q91.3574-84.9121 89.6973-84.9121Z"/>
   <path class="hierarchical-1:primary SFSymbolsPreview212121" d="M126.807 38.7207L155.273 38.7207Q162.012 38.7207 165.576 35.2051Q169.141 31.6895 169.824 24.3652L176.318-43.0176Q176.66-46.4844 174.854-48.584Q173.047-50.6836 169.678-50.6836L112.305-50.6836Q108.984-50.6836 107.178-48.584Q105.371-46.4844 105.713-43.0176L112.207 24.3652Q112.891 31.6895 116.431 35.2051Q119.971 38.7207 126.807 38.7207ZM136.67-46.9727L146.582-46.9727L147.021-53.5645Q147.217-55.8105 147.925-57.2021Q148.633-58.5938 150.293-59.8145L171.338-74.9023Q172.949-76.0742 173.34-77.5879Q173.73-79.1016 173.193-80.542Q172.656-81.9824 171.436-82.9346Q170.215-83.8867 168.604-83.96Q166.992-84.0332 165.283-82.8125L145.02-68.1641Q141.211-65.4297 139.453-62.1826Q137.695-58.9355 137.256-54.1992Z"/>
  </g>
  <g id="Medium-L" transform="matrix(1 0 0 1 1651.15 1556)">
   <path class="hierarchical-0:secondary SFSymbolsPreview4D4D4D" d="M35.4004 27.5391L103.809 27.5391Q103.711 27.002 103.638 26.3916Q103.564 25.7812 103.516 25.1465L96.9727-42.7246Q96.5332-47.168 98.2422-50.7812Q99.9512-54.3945 103.296-56.5186Q106.641-58.6426 111.084-58.6426L128.027-58.6426Q127.93-60.5957 127.71-61.9629Q127.49-63.3301 126.929-64.4775Q126.367-65.625 125.391-66.9434L113.281-83.0078L113.281-93.7988Q113.281-100.928 109.375-104.736Q105.469-108.545 98.0957-108.545L46.1914-108.545Q38.8184-108.545 34.8877-104.736Q30.957-100.928 30.957-93.7988L30.957-83.0078L18.8965-66.9434Q17.7734-65.4297 17.1631-64.0869Q16.5527-62.7441 16.333-61.0596Q16.1133-59.375 16.1133-56.8848L16.1133 8.49609Q16.1133 17.9688 20.9717 22.7539Q25.8301 27.5391 35.4004 27.5391ZM54.9316-84.668Q53.3691-84.668 52.2461-85.8154Q51.123-86.9629 51.123-88.5742Q51.123-90.1367 52.2461-91.3086Q53.3691-92.4805 54.9316-92.4805L89.0625-92.4805Q90.6738-92.4805 91.7969-91.3086Q92.9199-90.1367 92.9199-88.5742Q92.9199-86.9629 91.7969-85.8154Q90.6738-84.668 89.0625-84.668Z"/>
   <path class="hierarchical-1:primary SFSymbolsPreview212121" d="M125.684 37.8906L154.346 37.8906Q160.742 37.8906 164.087 34.5459Q167.432 31.2012 168.115 24.3164L174.658-43.5547Q174.951-46.582 173.389-48.3887Q171.826-50.1953 168.896-50.1953L111.084-50.1953Q108.203-50.1953 106.616-48.3643Q105.029-46.5332 105.322-43.5547L111.865 24.3164Q112.549 31.2012 115.894 34.5459Q119.238 37.8906 125.684 37.8906ZM135.986-46.875L144.922-46.875L145.312-53.1738Q145.508-55.4688 146.265-56.9336Q147.021-58.3984 148.828-59.668L169.873-74.8047Q171.289-75.8789 171.655-77.2217Q172.021-78.5645 171.533-79.8584Q171.045-81.1523 169.946-82.0312Q168.848-82.9102 167.383-82.959Q165.918-83.0078 164.355-81.8848L144.092-67.2363Q140.381-64.5996 138.672-61.4502Q136.963-58.3008 136.572-53.7109Z"/>
  </g>
  <g id="Regular-L" transform="matrix(1 0 0 1 1355.51 1556)">
   <path class="hierarchical-0:secondary SFSymbolsPreview4D4D4D" d="M34.668 26.8066L103.906 26.8066Q103.857 26.3672 103.809 25.9277Q103.76 25.4883 103.711 25.0488L97.1191-43.5059Q96.7285-47.3633 98.2422-50.5127Q99.7559-53.6621 102.686-55.4932Q105.615-57.3242 109.473-57.3242L126.416-57.3242Q126.367-59.5215 126.147-61.0352Q125.928-62.5488 125.317-63.8184Q124.707-65.0879 123.633-66.5527L111.768-82.2754L111.768-93.7988Q111.768-100.439 108.105-103.979Q104.443-107.52 97.5586-107.52L44.9707-107.52Q38.0859-107.52 34.4238-103.979Q30.7617-100.439 30.7617-93.7988L30.7617-82.2754L18.8965-66.5527Q17.7734-64.9902 17.1631-63.6719Q16.5527-62.3535 16.333-60.7422Q16.1133-59.1309 16.1133-56.7383L16.1133 8.44727Q16.1133 17.627 20.7764 22.2168Q25.4395 26.8066 34.668 26.8066ZM53.8574-84.3262Q52.4414-84.3262 51.3916-85.376Q50.3418-86.4258 50.3418-87.9395Q50.3418-89.3555 51.3916-90.4297Q52.4414-91.5039 53.8574-91.5039L88.2812-91.5039Q89.7461-91.5039 90.7715-90.4297Q91.7969-89.3555 91.7969-87.9395Q91.7969-86.4258 90.7715-85.376Q89.7461-84.3262 88.2812-84.3262Z"/>
   <path class="hierarchical-1:primary SFSymbolsPreview212121" d="M124.219 36.8164L153.174 36.8164Q159.082 36.8164 162.183 33.7158Q165.283 30.6152 165.918 24.2676L172.51-44.2871Q172.754-46.6797 171.484-48.1201Q170.215-49.5605 167.822-49.5605L109.473-49.5605Q107.129-49.5605 105.859-48.0957Q104.59-46.6309 104.834-44.2871L111.426 24.2676Q112.061 30.6152 115.161 33.7158Q118.262 36.8164 124.219 36.8164ZM135.107-46.7285L142.725-46.7285L143.115-52.5879Q143.311-55.0293 144.141-56.5918Q144.971-58.1543 146.875-59.5215L167.92-74.6582Q169.141-75.5859 169.458-76.7334Q169.775-77.8809 169.36-79.0039Q168.945-80.127 167.993-80.8594Q167.041-81.5918 165.771-81.6406Q164.502-81.6895 163.184-80.7129L142.92-66.0645Q139.307-63.4766 137.671-60.4736Q136.035-57.4707 135.645-53.0273Z"/>
  </g>
  <g id="Light-L" transform="matrix(1 0 0 1 1060.38 1556)">
   <path class="hierarchical-0:secondary SFSymbolsPreview4D4D4D" d="M33.7891 26.2695L103.857 26.2695Q103.76 25.8301 103.711 25.3662Q103.662 24.9023 103.613 24.4141L97.0215-44.043Q96.6797-47.4121 97.9736-50.0977Q99.2676-52.7832 101.782-54.3213Q104.297-55.8594 107.617-55.8594L124.365-55.8594Q124.316-58.3496 124.097-60.0342Q123.877-61.7188 123.242-63.1104Q122.607-64.502 121.387-66.1621L109.717-81.5918L109.717-92.5293Q109.717-99.0723 106.274-102.539Q102.832-106.006 96.2402-106.006L44.2383-106.006Q37.6465-106.006 34.2041-102.539Q30.7617-99.0723 30.7617-92.5293L30.7617-81.5918L19.0918-66.1621Q17.8223-64.4043 17.1631-62.9639Q16.5039-61.5234 16.3086-59.7656Q16.1133-58.0078 16.1133-55.3711L16.1133 8.74023Q16.1133 17.4805 20.5811 21.875Q25.0488 26.2695 33.7891 26.2695ZM52.3926-84.8633Q51.2695-84.8633 50.4395-85.6934Q49.6094-86.5234 49.6094-87.7441Q49.6094-88.8672 50.4395-89.7217Q51.2695-90.5762 52.3926-90.5762L87.5-90.5762Q88.623-90.5762 89.4531-89.7217Q90.2832-88.8672 90.2832-87.7441Q90.2832-86.5234 89.4531-85.6934Q88.623-84.8633 87.5-84.8633Z"/>
   <path class="hierarchical-1:primary SFSymbolsPreview212121" d="M122.168 35.2539L150.879 35.2539Q156.348 35.2539 159.277 32.3975Q162.207 29.541 162.793 23.7305L169.385-44.7266Q169.58-46.7773 168.506-47.998Q167.432-49.2188 165.332-49.2188L107.617-49.2188Q105.615-49.2188 104.517-47.9736Q103.418-46.7285 103.662-44.7266L110.254 23.7305Q110.791 29.541 113.721 32.3975Q116.65 35.2539 122.168 35.2539ZM133.74-46.9727L139.844-46.9727L140.234-52.6855Q140.43-55.2246 141.333-56.8604Q142.236-58.4961 144.287-60.0098L165.381-75.1465Q166.309-75.8789 166.577-76.8066Q166.846-77.7344 166.504-78.6377Q166.162-79.541 165.381-80.127Q164.6-80.7129 163.574-80.7617Q162.549-80.8105 161.475-79.9805L141.211-65.332Q137.695-62.8418 136.157-60.0342Q134.619-57.2266 134.277-53.0273Z"/>
  </g>
  <g id="Thin-L" transform="matrix(1 0 0 1 765.748 1556)">
   <path class="hierarchical-0:secondary SFSymbolsPreview4D4D4D" d="M32.6172 25.6348L103.76 25.6348Q103.662 25.1465 103.589 24.6338Q103.516 24.1211 103.467 23.584L96.875-44.8242Q96.582-47.4121 97.6074-49.5117Q98.6328-51.6113 100.61-52.7832Q102.588-53.9551 105.176-53.9551L121.68-53.9551Q121.68-56.8359 121.46-58.7158Q121.24-60.5957 120.508-62.1582Q119.775-63.7207 118.359-65.625L107.031-80.7129L107.031-90.8691Q107.031-97.3145 103.857-100.659Q100.684-104.004 94.5312-104.004L43.2129-104.004Q37.0605-104.004 33.8867-100.659Q30.7129-97.3145 30.7129-90.8691L30.7129-80.7129L19.3848-65.625Q17.9199-63.6719 17.2119-62.0605Q16.5039-60.4492 16.2842-58.4961Q16.0645-56.543 16.0645-53.5156L16.0645 9.13086Q16.0645 17.2363 20.2881 21.4355Q24.5117 25.6348 32.6172 25.6348ZM50.4395-85.5957Q49.707-85.5957 49.1455-86.1328Q48.584-86.6699 48.584-87.4512Q48.584-88.2324 49.1455-88.7695Q49.707-89.3066 50.4395-89.3066L86.4258-89.3066Q87.1582-89.3066 87.6953-88.7695Q88.2324-88.2324 88.2324-87.4512Q88.2324-86.6699 87.6953-86.1328Q87.1582-85.5957 86.4258-85.5957Z"/>
   <path class="hierarchical-1:primary SFSymbolsPreview212121" d="M119.482 33.1543L147.803 33.1543Q152.734 33.1543 155.42 30.6152Q158.105 28.0762 158.643 23.0957L165.234-45.2637Q165.381-46.875 164.551-47.8027Q163.721-48.7305 162.109-48.7305L105.176-48.7305Q103.564-48.7305 102.734-47.8027Q101.904-46.875 102.051-45.2637L108.643 23.0957Q109.131 28.0762 111.841 30.6152Q114.551 33.1543 119.482 33.1543ZM131.934-47.2656L135.986-47.2656L136.426-52.832Q136.572-55.5176 137.598-57.251Q138.623-58.9844 140.918-60.5957L161.963-75.7812Q162.598-76.2695 162.769-76.9287Q162.939-77.5879 162.72-78.1982Q162.5-78.8086 161.963-79.1992Q161.426-79.5898 160.693-79.6143Q159.961-79.6387 159.18-79.0039L138.916-64.3555Q135.498-61.9629 134.131-59.4238Q132.764-56.8848 132.422-53.0273Z"/>
  </g>
  <g id="Ultralight-L" transform="matrix(1 0 0 1 470.112 1556)">
   <path class="hierarchical-0:secondary SFSymbolsPreview4D4D4D" d="M32.0312 25.2441L103.711 25.2441Q103.564 24.7559 103.491 24.2432Q103.418 23.7305 103.369 23.1445L96.7773-45.166Q96.5332-47.4609 97.4121-49.2188Q98.291-50.9766 100-51.9775Q101.709-52.9785 103.955-52.9785L120.264-52.9785Q120.264-56.0059 120.044-58.0078Q119.824-60.0098 119.092-61.6699Q118.359-63.3301 116.846-65.3809L105.615-80.2246L105.615-90.0391Q105.615-96.3867 102.588-99.6826Q99.5605-102.979 93.6523-102.979L42.7246-102.979Q36.7676-102.979 33.7402-99.6826Q30.7129-96.3867 30.7129-90.0391L30.7129-80.2246L19.5312-65.3809Q17.9688-63.2812 17.2119-61.5967Q16.4551-59.9121 16.2598-57.8613Q16.0645-55.8105 16.0645-52.5879L16.0645 9.32617Q16.0645 17.1387 20.1416 21.1914Q24.2188 25.2441 32.0312 25.2441ZM49.4629-85.9375Q48.877-85.9375 48.4863-86.3525Q48.0957-86.7676 48.0957-87.3047Q48.0957-87.8906 48.4863-88.2812Q48.877-88.6719 49.4629-88.6719L85.8887-88.6719Q86.4258-88.6719 86.8164-88.2812Q87.207-87.8906 87.207-87.3047Q87.207-86.7676 86.8164-86.3525Q86.4258-85.9375 85.8887-85.9375Z"/>
   <path class="hierarchical-1:primary SFSymbolsPreview212121" d="M118.066 32.0801L146.24 32.0801Q150.879 32.0801 153.442 29.7119Q156.006 27.3438 156.494 22.7051L163.086-45.5566Q163.232-46.9727 162.524-47.7539Q161.816-48.5352 160.4-48.5352L103.955-48.5352Q102.539-48.5352 101.831-47.7539Q101.123-46.9727 101.27-45.5566L107.861 22.7051Q108.301 27.3438 110.889 29.7119Q113.477 32.0801 118.066 32.0801ZM131.006-47.4121L134.033-47.4121L134.473-52.9297Q134.619-55.6641 135.693-57.4219Q136.768-59.1797 139.16-60.9375L160.254-76.123Q160.693-76.5137 160.815-77.002Q160.938-77.4902 160.767-77.9541Q160.596-78.418 160.181-78.7109Q159.766-79.0039 159.204-79.0039Q158.643-79.0039 158.008-78.5156L137.744-63.8672Q134.424-61.5234 133.13-59.1064Q131.836-56.6895 131.494-53.0273Z"/>
  </g>
  <g id="Black-M" transform="matrix(1 0 0 1 2854.96 1126)">
   <path class="hierarchical-0:secondary SFSymbolsPreview4D4D4D" d="M30.4199 16.7969L79.9805 16.7969Q79.6875 15.6738 79.5166 14.4287Q79.3457 13.1836 79.1992 11.9141L74.4141-37.6953Q73.8281-43.6523 76.0498-48.4619Q78.2715-53.2715 82.6416-56.0791Q87.0117-58.8867 92.9199-58.8867L106.006-58.8867Q105.762-59.668 105.444-60.3027Q105.127-60.9375 104.639-61.5234L94.2383-75.3418L94.2383-80.127Q94.2383-87.8418 90.0391-92.0166Q85.8398-96.1914 78.125-96.1914L41.1621-96.1914Q33.4473-96.1914 29.248-92.0166Q25.0488-87.8418 25.0488-80.127L25.0488-75.3418L14.6484-61.5234Q13.4277-59.8633 12.9395-57.8613Q12.4512-55.8594 12.4512-52.3438L12.4512-1.17188Q12.4512 7.4707 17.1387 12.1338Q21.8262 16.7969 30.4199 16.7969ZM47.0703-75.3418Q45.3613-75.3418 44.1406-76.5869Q42.9199-77.832 42.9199-79.5898Q42.9199-81.3477 44.1406-82.5928Q45.3613-83.8379 47.0703-83.8379L72.4609-83.8379Q74.1699-83.8379 75.3906-82.5928Q76.6113-81.3477 76.6113-79.5898Q76.6113-77.832 75.3906-76.5869Q74.1699-75.3418 72.4609-75.3418Z"/>
   <path class="hierarchical-1:primary SFSymbolsPreview212121" d="M103.516 25.8789L124.365 25.8789Q131.445 25.8789 135.132 22.2656Q138.818 18.6523 139.551 11.0352L144.336-38.5254Q144.824-43.5547 142.261-46.6309Q139.697-49.707 134.961-49.707L92.9199-49.707Q88.2324-49.707 85.6445-46.6309Q83.0566-43.5547 83.5449-38.5254L88.3301 11.0352Q89.0625 18.6523 92.749 22.2656Q96.4355 25.8789 103.516 25.8789ZM108.984-45.0195L121.484-45.0195L121.973-51.8066Q122.07-53.0762 122.388-53.7842Q122.705-54.4922 123.486-55.0781L139.795-66.6992Q142.334-68.5059 142.505-70.9473Q142.676-73.3887 141.235-75.3662Q139.795-77.3438 137.402-77.9297Q135.01-78.5156 132.373-76.6602L116.699-65.332Q113.379-62.8906 111.719-59.8877Q110.059-56.8848 109.668-52.6367Z"/>
  </g>
  <g id="Heavy-M" transform="matrix(1 0 0 1 2559.3 1126)">
   <path class="hierarchical-0:secondary SFSymbolsPreview4D4D4D" d="M29.6875 15.9668L80.127 15.9668Q79.8828 14.9902 79.7363 13.9648Q79.5898 12.9395 79.4922 11.9141L74.6094-38.5742Q74.0723-43.8965 76.0742-48.1934Q78.0762-52.4902 82.0312-55.0293Q85.9863-57.5684 91.2598-57.5684L104.346-57.5684Q104.199-58.6914 103.833-59.4971Q103.467-60.3027 102.832-61.084L92.7246-74.5605L92.7246-80.4199Q92.7246-87.5488 88.8184-91.3818Q84.9121-95.2148 77.6855-95.2148L39.7461-95.2148Q32.5684-95.2148 28.6621-91.3818Q24.7559-87.5488 24.7559-80.4199L24.7559-74.5605L14.5996-61.084Q13.3789-59.4727 12.915-57.5928Q12.4512-55.7129 12.4512-52.4414L12.4512-1.26953Q12.4512 7.08008 16.9189 11.5234Q21.3867 15.9668 29.6875 15.9668ZM45.9961-74.8047Q44.3848-74.8047 43.2373-75.9766Q42.0898-77.1484 42.0898-78.7598Q42.0898-80.4199 43.2373-81.6162Q44.3848-82.8125 45.9961-82.8125L71.6309-82.8125Q73.1934-82.8125 74.3652-81.6162Q75.5371-80.4199 75.5371-78.7598Q75.5371-77.1484 74.3652-75.9766Q73.1934-74.8047 71.6309-74.8047Z"/>
   <path class="hierarchical-1:primary SFSymbolsPreview212121" d="M102.051 24.8535L123.34 24.8535Q129.883 24.8535 133.276 21.4844Q136.67 18.1152 137.354 11.084L142.236-39.3555Q142.676-43.6523 140.454-46.3135Q138.232-48.9746 134.131-48.9746L91.2598-48.9746Q87.207-48.9746 84.9609-46.3135Q82.7148-43.6523 83.1543-39.3555L88.0371 11.084Q88.6719 18.1152 92.0898 21.4844Q95.5078 24.8535 102.051 24.8535ZM108.154-44.7754L119.287-44.7754L119.727-51.0742Q119.824-52.4414 120.215-53.2715Q120.605-54.1016 121.533-54.7852L137.842-66.4062Q140.137-68.0176 140.283-70.2148Q140.43-72.4121 139.136-74.1699Q137.842-75.9277 135.693-76.4404Q133.545-76.9531 131.201-75.293L115.527-63.9648Q112.305-61.6211 110.718-58.7402Q109.131-55.8594 108.789-51.8066Z"/>
  </g>
  <g id="Bold-M" transform="matrix(1 0 0 1 2263.78 1126)">
   <path class="hierarchical-0:secondary SFSymbolsPreview4D4D4D" d="M28.9062 14.9902L80.2734 14.9902Q80.0781 14.2578 79.9805 13.4766Q79.8828 12.6953 79.7852 11.8652L74.8535-39.5508Q74.4141-44.1406 76.1719-47.9004Q77.9297-51.6602 81.3721-53.8574Q84.8145-56.0547 89.4043-56.0547L102.539-56.0547Q102.441-57.5684 102.051-58.5693Q101.66-59.5703 100.879-60.6445L91.0156-73.7305L91.0156-80.7617Q91.0156-87.207 87.4268-90.6738Q83.8379-94.1406 77.2461-94.1406L38.1836-94.1406Q31.5918-94.1406 28.0029-90.6738Q24.4141-87.207 24.4141-80.7617L24.4141-73.7305L14.5996-60.6445Q13.3789-58.9844 12.915-57.2754Q12.4512-55.5664 12.4512-52.5391L12.4512-1.36719Q12.4512 6.64062 16.6748 10.8154Q20.8984 14.9902 28.9062 14.9902ZM44.8242-74.1699Q43.3105-74.1699 42.2363-75.2686Q41.1621-76.3672 41.1621-77.8809Q41.1621-79.4434 42.2363-80.542Q43.3105-81.6406 44.8242-81.6406L70.6543-81.6406Q72.168-81.6406 73.2422-80.542Q74.3164-79.4434 74.3164-77.8809Q74.3164-76.3672 73.2422-75.2686Q72.168-74.1699 70.6543-74.1699Z"/>
   <path class="hierarchical-1:primary SFSymbolsPreview212121" d="M100.439 23.6816L122.168 23.6816Q128.125 23.6816 131.226 20.6299Q134.326 17.5781 134.961 11.1328L139.893-40.2832Q140.234-43.7988 138.403-45.9717Q136.572-48.1445 133.203-48.1445L89.4043-48.1445Q86.084-48.1445 84.2285-45.9717Q82.373-43.7988 82.7148-40.2832L87.6953 11.1328Q88.2812 17.5781 91.3818 20.6299Q94.4824 23.6816 100.439 23.6816ZM107.227-44.5312L116.846-44.5312L117.236-50.2441Q117.383-51.8066 117.847-52.7344Q118.311-53.6621 119.385-54.4434L135.693-66.1133Q137.646-67.5293 137.793-69.4092Q137.939-71.2891 136.816-72.8271Q135.693-74.3652 133.813-74.8047Q131.934-75.2441 129.883-73.7793L114.209-62.4512Q111.133-60.2051 109.644-57.4951Q108.154-54.7852 107.764-50.8301Z"/>
  </g>
  <g id="Semibold-M" transform="matrix(1 0 0 1 1967.88 1126)">
   <path class="hierarchical-0:secondary SFSymbolsPreview4D4D4D" d="M28.3203 14.3555L80.3711 14.3555Q80.2246 13.7207 80.1514 13.1104Q80.0781 12.5 79.9805 11.8652L75-40.1855Q74.6094-44.3359 76.1963-47.6807Q77.7832-51.0254 80.8838-53.0273Q83.9844-55.0293 88.0859-55.0293L101.27-55.0293Q101.221-56.7871 100.806-57.9346Q100.391-59.082 99.4629-60.3027L89.7949-73.0957L89.7949-80.957Q89.7949-86.9629 86.4502-90.1855Q83.1055-93.4082 76.9043-93.4082L37.1094-93.4082Q30.8594-93.4082 27.5146-90.1855Q24.1699-86.9629 24.1699-80.957L24.1699-73.0957L14.5508-60.3027Q13.3301-58.6426 12.8906-57.0312Q12.4512-55.4199 12.4512-52.5879L12.4512-1.41602Q12.4512 6.34766 16.4795 10.3516Q20.5078 14.3555 28.3203 14.3555ZM43.9941-73.7305Q42.5781-73.7305 41.5527-74.7559Q40.5273-75.7812 40.5273-77.2461Q40.5273-78.7109 41.5527-79.7607Q42.5781-80.8105 43.9941-80.8105L70.0195-80.8105Q71.3867-80.8105 72.4121-79.7607Q73.4375-78.7109 73.4375-77.2461Q73.4375-75.7812 72.4121-74.7559Q71.3867-73.7305 70.0195-73.7305Z"/>
   <path class="hierarchical-1:primary SFSymbolsPreview212121" d="M99.3164 22.9004L121.387 22.9004Q126.904 22.9004 129.785 20.0195Q132.666 17.1387 133.252 11.1328L138.281-40.8691Q138.574-43.8965 137.012-45.7275Q135.449-47.5586 132.568-47.5586L88.0859-47.5586Q85.2539-47.5586 83.6914-45.7031Q82.1289-43.8477 82.4219-40.8691L87.4512 11.1328Q87.9883 17.1387 90.8691 20.0195Q93.75 22.9004 99.3164 22.9004ZM106.592-44.3359L115.137-44.3359L115.527-49.6582Q115.625-51.3184 116.162-52.3438Q116.699-53.3691 117.871-54.1992L134.18-65.918Q135.938-67.1387 136.06-68.8232Q136.182-70.5078 135.181-71.875Q134.18-73.2422 132.495-73.6572Q130.811-74.0723 128.955-72.7539L113.281-61.377Q110.303-59.1797 108.862-56.5918Q107.422-54.0039 107.08-50.1953Z"/>
  </g>
  <g id="Medium-M" transform="matrix(1 0 0 1 1671.8 1126)">
   <path class="hierarchical-0:secondary SFSymbolsPreview4D4D4D" d="M27.8809 13.8184L80.4199 13.8184Q80.3223 13.3301 80.2734 12.8418Q80.2246 12.3535 80.1758 11.8164L75.1465-40.7227Q74.7559-44.4336 76.2207-47.5098Q77.6855-50.5859 80.5176-52.417Q83.3496-54.248 87.1094-54.248L100.342-54.248Q100.293-56.2012 99.8779-57.4463Q99.4629-58.6914 98.4375-60.0586L88.916-72.6562L88.916-81.1523Q88.916-86.7676 85.7422-89.7949Q82.5684-92.8223 76.6602-92.8223L36.2793-92.8223Q30.3711-92.8223 27.1973-89.7949Q24.0234-86.7676 24.0234-81.1523L24.0234-72.6562L14.5508-60.0586Q13.3301-58.3984 12.8906-56.8604Q12.4512-55.3223 12.4512-52.6367L12.4512-1.46484Q12.4512 6.10352 16.3574 9.96094Q20.2637 13.8184 27.8809 13.8184ZM43.3594-73.4375Q41.9922-73.4375 41.0156-74.4141Q40.0391-75.3906 40.0391-76.8066Q40.0391-78.1738 41.0156-79.1748Q41.9922-80.1758 43.3594-80.1758L69.4824-80.1758Q70.8496-80.1758 71.8262-79.1748Q72.8027-78.1738 72.8027-76.8066Q72.8027-75.3906 71.8262-74.4141Q70.8496-73.4375 69.4824-73.4375Z"/>
   <path class="hierarchical-1:primary SFSymbolsPreview212121" d="M98.4863 22.2656L120.752 22.2656Q125.977 22.2656 128.687 19.5557Q131.396 16.8457 131.982 11.1328L137.061-41.3574Q137.305-43.9453 135.938-45.5322Q134.57-47.1191 132.08-47.1191L87.1094-47.1191Q84.668-47.1191 83.3008-45.5078Q81.9336-43.8965 82.1777-41.3574L87.2559 11.1328Q87.793 16.8457 90.5029 19.5557Q93.2129 22.2656 98.4863 22.2656ZM106.104-44.2383L113.867-44.2383L114.209-49.2188Q114.355-50.9766 114.917-52.0508Q115.479-53.125 116.699-54.0527L133.008-65.7227Q134.668-66.8457 134.766-68.3838Q134.863-69.9219 133.936-71.167Q133.008-72.4121 131.494-72.7783Q129.98-73.1445 128.271-71.9238L112.598-60.5469Q109.668-58.4473 108.276-55.9326Q106.885-53.418 106.543-49.6582Z"/>
  </g>
  <g id="Regular-M" transform="matrix(1 0 0 1 1375.89 1126)">
   <path class="hierarchical-0:secondary SFSymbolsPreview4D4D4D" d="M27.3438 13.1836L80.5176 13.1836Q80.4688 12.8418 80.4443 12.5Q80.4199 12.1582 80.3711 11.8164L75.293-41.3574Q74.9512-44.6289 76.2451-47.3145Q77.5391-50 80.0537-51.6113Q82.5684-53.2227 85.8398-53.2227L99.0723-53.2227Q99.0723-55.4688 98.6328-56.8359Q98.1934-58.2031 97.0703-59.7168L87.7441-72.0703L87.7441-81.3477Q87.7441-86.5234 84.79-89.3066Q81.8359-92.0898 76.3184-92.0898L35.2051-92.0898Q29.6875-92.0898 26.7334-89.3066Q23.7793-86.5234 23.7793-81.3477L23.7793-72.0703L14.502-59.7168Q13.2812-58.1055 12.8662-56.665Q12.4512-55.2246 12.4512-52.6855L12.4512-1.51367Q12.4512 5.81055 16.1865 9.49707Q19.9219 13.1836 27.3438 13.1836ZM42.5293-72.998Q41.2598-72.998 40.332-73.9258Q39.4043-74.8535 39.4043-76.1719Q39.4043-77.4902 40.332-78.4424Q41.2598-79.3945 42.5293-79.3945L68.8477-79.3945Q70.1172-79.3945 71.0449-78.4424Q71.9727-77.4902 71.9727-76.1719Q71.9727-74.8535 71.0449-73.9258Q70.1172-72.998 68.8477-72.998Z"/>
   <path class="hierarchical-1:primary SFSymbolsPreview212121" d="M97.3633 21.4844L119.971 21.4844Q124.805 21.4844 127.295 18.9697Q129.785 16.4551 130.322 11.1816L135.449-41.9922Q135.645-44.043 134.546-45.2881Q133.447-46.5332 131.445-46.5332L85.8398-46.5332Q83.8867-46.5332 82.7881-45.2637Q81.6895-43.9941 81.8848-41.9922L87.0117 11.1816Q87.5 16.4551 89.9902 18.9697Q92.4805 21.4844 97.3633 21.4844ZM105.469-44.043L112.207-44.043L112.5-48.6328Q112.646-50.4883 113.257-51.6602Q113.867-52.832 115.234-53.8086L131.543-65.5273Q132.959-66.5039 133.057-67.8467Q133.154-69.1895 132.349-70.2637Q131.543-71.3379 130.2-71.6553Q128.857-71.9727 127.393-70.8984L111.67-59.5215Q108.838-57.4707 107.52-55.0537Q106.201-52.6367 105.859-49.0234Z"/>
  </g>
  <g id="Light-M" transform="matrix(1 0 0 1 1080.57 1126)">
   <path class="hierarchical-0:secondary SFSymbolsPreview4D4D4D" d="M26.5625 12.6953L80.4688 12.6953Q80.4199 12.3535 80.3711 11.9873Q80.3223 11.6211 80.2734 11.2793L75.1953-41.8457Q74.9023-44.6777 76.001-46.9482Q77.0996-49.2188 79.248-50.5615Q81.3965-51.9043 84.2285-51.9043L97.2656-51.9043Q97.2656-54.541 96.8262-56.0547Q96.3867-57.5684 95.0195-59.375L85.9375-71.4844L85.9375-80.2246Q85.9375-85.3027 83.1787-88.0127Q80.4199-90.7227 75.1465-90.7227L34.5703-90.7227Q29.2969-90.7227 26.5381-88.0127Q23.7793-85.3027 23.7793-80.2246L23.7793-71.4844L14.6973-59.375Q13.2812-57.5195 12.8662-55.9326Q12.4512-54.3457 12.4512-51.4648L12.4512-1.26953Q12.4512 5.66406 16.0156 9.17969Q19.5801 12.6953 26.5625 12.6953ZM41.2109-73.4863Q40.2344-73.4863 39.4775-74.2188Q38.7207-74.9512 38.7207-75.9766Q38.7207-77.0508 39.4775-77.8076Q40.2344-78.5645 41.2109-78.5645L68.1152-78.5645Q69.1406-78.5645 69.873-77.8076Q70.6055-77.0508 70.6055-75.9766Q70.6055-74.9512 69.873-74.2188Q69.1406-73.4863 68.1152-73.4863Z"/>
   <path class="hierarchical-1:primary SFSymbolsPreview212121" d="M95.5566 20.0684L117.92 20.0684Q122.363 20.0684 124.707 17.7734Q127.051 15.4785 127.539 10.6934L132.666-42.3828Q132.812-44.1406 131.885-45.166Q130.957-46.1914 129.248-46.1914L84.2285-46.1914Q82.5195-46.1914 81.5918-45.1416Q80.6641-44.0918 80.8105-42.3828L85.9375 10.6934Q86.377 15.4785 88.7207 17.7734Q91.0645 20.0684 95.5566 20.0684ZM104.248-44.2383L109.619-44.2383L109.912-48.7305Q110.059-50.6836 110.742-51.9043Q111.426-53.125 112.939-54.1992L129.248-65.9668Q130.371-66.748 130.444-67.8223Q130.518-68.8965 129.883-69.751Q129.248-70.6055 128.149-70.874Q127.051-71.1426 125.879-70.2637L110.156-58.8867Q107.373-56.8848 106.152-54.6387Q104.932-52.3926 104.639-49.0234Z"/>
  </g>
  <g id="Thin-M" transform="matrix(1 0 0 1 785.719 1126)">
   <path class="hierarchical-0:secondary SFSymbolsPreview4D4D4D" d="M25.5371 12.1094L80.4199 12.1094Q80.3223 11.7188 80.2734 11.3281Q80.2246 10.9375 80.1758 10.498L75.0977-42.4805Q74.8535-44.6777 75.708-46.4111Q76.5625-48.1445 78.2227-49.1455Q79.8828-50.1465 82.0312-50.1465L94.873-50.1465Q94.873-53.3691 94.4336-55.0537Q93.9941-56.7383 92.3828-58.8867L83.5449-70.6543L83.5449-78.7109Q83.5449-83.6914 81.0303-86.3281Q78.5156-88.9648 73.6328-88.9648L33.6914-88.9648Q28.8086-88.9648 26.2939-86.3281Q23.7793-83.6914 23.7793-78.7109L23.7793-70.6543L14.9414-58.8867Q13.2812-56.6895 12.8662-54.9561Q12.4512-53.2227 12.4512-49.8047L12.4512-0.927734Q12.4512 5.46875 15.7715 8.78906Q19.0918 12.1094 25.5371 12.1094ZM39.502-74.0723Q38.8184-74.0723 38.3301-74.5605Q37.8418-75.0488 37.8418-75.7324Q37.8418-76.416 38.3301-76.9287Q38.8184-77.4414 39.502-77.4414L67.1875-77.4414Q67.8711-77.4414 68.335-76.9287Q68.7988-76.416 68.7988-75.7324Q68.7988-75.0488 68.335-74.5605Q67.8711-74.0723 67.1875-74.0723Z"/>
   <path class="hierarchical-1:primary SFSymbolsPreview212121" d="M93.1641 18.2129L115.186 18.2129Q119.141 18.2129 121.289 16.1865Q123.438 14.1602 123.828 10.1074L128.955-42.8711Q129.053-44.2383 128.369-45.0195Q127.686-45.8008 126.318-45.8008L82.0312-45.8008Q80.6641-45.8008 79.9805-44.9951Q79.2969-44.1895 79.4434-42.8711L84.5703 10.1074Q84.9121 14.1602 87.0605 16.1865Q89.209 18.2129 93.1641 18.2129ZM102.637-44.4824L106.25-44.4824L106.543-48.8281Q106.689-50.9277 107.446-52.2217Q108.203-53.5156 109.912-54.7363L126.221-66.5039Q127.002-67.041 127.026-67.7734Q127.051-68.5059 126.636-69.0918Q126.221-69.6777 125.464-69.8486Q124.707-70.0195 123.828-69.3848L108.105-58.0566Q105.469-56.1523 104.37-54.1016Q103.271-52.0508 103.027-49.0234Z"/>
  </g>
  <g id="Ultralight-M" transform="matrix(1 0 0 1 489.96 1126)">
   <path class="hierarchical-0:secondary SFSymbolsPreview4D4D4D" d="M25 11.7676L80.3711 11.7676Q80.2734 11.377 80.2246 10.9619Q80.1758 10.5469 80.127 10.1562L75-42.8223Q74.8047-44.7266 75.5371-46.167Q76.2695-47.6074 77.6611-48.4375Q79.0527-49.2676 80.957-49.2676L93.6035-49.2676Q93.6035-52.7344 93.1641-54.541Q92.7246-56.3477 90.9668-58.6914L82.2754-70.2637L82.2754-77.9297Q82.2754-82.9102 79.9072-85.4736Q77.5391-88.0371 72.8027-88.0371L33.252-88.0371Q28.5645-88.0371 26.1719-85.4736Q23.7793-82.9102 23.7793-77.9297L23.7793-70.2637L15.0879-58.6914Q13.2812-56.2988 12.8662-54.4678Q12.4512-52.6367 12.4512-48.9746L12.4512-0.78125Q12.4512 5.37109 15.6494 8.56934Q18.8477 11.7676 25 11.7676ZM38.623-74.4141Q38.1348-74.4141 37.7686-74.7803Q37.4023-75.1465 37.4023-75.6348Q37.4023-76.123 37.7686-76.4893Q38.1348-76.8555 38.623-76.8555L66.6992-76.8555Q67.1875-76.8555 67.5293-76.4893Q67.8711-76.123 67.8711-75.6348Q67.8711-75.1465 67.5293-74.7803Q67.1875-74.4141 66.6992-74.4141Z"/>
   <path class="hierarchical-1:primary SFSymbolsPreview212121" d="M91.9434 17.2852L113.818 17.2852Q117.48 17.2852 119.531 15.4053Q121.582 13.5254 121.924 9.76562L127.051-43.1152Q127.1-44.2871 126.538-44.9219Q125.977-45.5566 124.805-45.5566L80.957-45.5566Q79.7363-45.5566 79.1748-44.9219Q78.6133-44.2871 78.7109-43.1152L83.8379 9.76562Q84.1797 13.5254 86.2305 15.4053Q88.2812 17.2852 91.9434 17.2852ZM101.855-44.6289L104.492-44.6289L104.785-48.9258Q104.932-51.0254 105.737-52.3926Q106.543-53.7598 108.398-55.0293L124.707-66.7969Q125.244-67.1875 125.269-67.749Q125.293-68.3105 124.976-68.75Q124.658-69.1895 124.072-69.3115Q123.486-69.4336 122.803-68.9453L107.08-57.6172Q104.492-55.7617 103.467-53.833Q102.441-51.9043 102.197-49.0234Z"/>
  </g>
  <g id="Black-S" transform="matrix(1 0 0 1 2871.71 696)">
   <path class="hierarchical-0:secondary SFSymbolsPreview4D4D4D" d="M24.0234 5.76172L62.6465 5.76172Q62.4023 4.78516 62.2314 3.75977Q62.0605 2.73438 61.9629 1.66016L58.252-36.9141Q57.8125-41.7969 59.5947-45.6787Q61.377-49.5605 64.917-51.8311Q68.457-54.1016 73.2422-54.1016L83.4473-54.1016Q83.252-54.6387 83.0078-55.0781Q82.7637-55.5176 82.4219-55.957L74.2188-66.8457L74.2188-70.2637Q74.2188-76.4648 70.8496-79.834Q67.4805-83.2031 61.2793-83.2031L32.666-83.2031Q26.4648-83.2031 23.0957-79.834Q19.7266-76.4648 19.7266-70.2637L19.7266-66.8457L11.5234-55.957Q10.5469-54.6387 10.1562-53.0273Q9.76562-51.416 9.76562-48.5352L9.76562-8.49609Q9.76562-1.70898 13.501 2.02637Q17.2363 5.76172 24.0234 5.76172ZM37.1582-66.8457Q35.791-66.8457 34.8145-67.8467Q33.8379-68.8477 33.8379-70.2148Q33.8379-71.6309 34.8145-72.6074Q35.791-73.584 37.1582-73.584L56.9824-73.584Q58.3496-73.584 59.3262-72.6074Q60.3027-71.6309 60.3027-70.2148Q60.3027-68.8477 59.3506-67.8467Q58.3984-66.8457 56.9824-66.8457Z"/>
   <path class="hierarchical-1:primary SFSymbolsPreview212121" d="M81.4453 12.8906L97.6562 12.8906Q103.32 12.8906 106.299 9.98535Q109.277 7.08008 109.863 0.976562L113.574-37.5977Q113.965-41.748 111.865-44.2627Q109.766-46.7773 105.859-46.7773L73.2422-46.7773Q69.3848-46.7773 67.2607-44.2627Q65.1367-41.748 65.5273-37.5977L69.2383 0.976562Q69.8242 7.08008 72.8027 9.98535Q75.7812 12.8906 81.4453 12.8906ZM85.5957-42.9688L95.7031-42.9688L96.0938-48.4375Q96.2402-50.1465 97.2168-50.8789L110.01-60.0098Q112.061-61.4746 112.207-63.4521Q112.354-65.4297 111.182-67.041Q110.01-68.6523 108.057-69.1162Q106.104-69.5801 104.004-68.0664L91.6992-59.1797Q89.0625-57.2754 87.7441-54.8828Q86.4258-52.4902 86.1328-49.1211Z"/>
  </g>
  <g id="Heavy-S" transform="matrix(1 0 0 1 2575.73 696)">
   <path class="hierarchical-0:secondary SFSymbolsPreview4D4D4D" d="M23.4863 5.07812L62.7441 5.07812Q62.5488 4.29688 62.4268 3.44238Q62.3047 2.58789 62.207 1.70898L58.4473-37.5977Q58.0078-41.9922 59.6436-45.5078Q61.2793-49.0234 64.4775-51.0742Q67.6758-53.125 72.0215-53.125L82.2754-53.125Q82.1289-53.9062 81.8604-54.4678Q81.5918-55.0293 81.1523-55.6152L73.1445-66.2598L73.1445-70.6543Q73.1445-76.3672 69.9951-79.4678Q66.8457-82.5684 61.084-82.5684L31.543-82.5684Q25.7812-82.5684 22.6318-79.4678Q19.4824-76.3672 19.4824-70.6543L19.4824-66.2598L11.4746-55.6152Q10.5469-54.3457 10.1562-52.8809Q9.76562-51.416 9.76562-48.7793L9.76562-8.59375Q9.76562-2.00195 13.3301 1.53809Q16.8945 5.07812 23.4863 5.07812ZM36.4258-66.3086Q35.1074-66.3086 34.1553-67.2607Q33.2031-68.2129 33.2031-69.5312Q33.2031-70.8984 34.1553-71.8506Q35.1074-72.8027 36.4258-72.8027L56.3477-72.8027Q57.666-72.8027 58.5938-71.8506Q59.5215-70.8984 59.5215-69.5312Q59.5215-68.2129 58.6182-67.2607Q57.7148-66.3086 56.3477-66.3086Z"/>
   <path class="hierarchical-1:primary SFSymbolsPreview212121" d="M80.4199 12.207L97.0215 12.207Q102.295 12.207 105.054 9.47266Q107.812 6.73828 108.35 1.07422L112.109-38.2324Q112.5-41.8457 110.669-44.0186Q108.838-46.1914 105.42-46.1914L72.0215-46.1914Q68.6523-46.1914 66.8213-43.9941Q64.9902-41.7969 65.332-38.2324L69.0918 1.07422Q69.6289 6.73828 72.3877 9.47266Q75.1465 12.207 80.4199 12.207ZM85.0098-42.7734L94.1406-42.7734L94.5312-47.8027Q94.6777-49.707 95.8496-50.5859L108.643-59.7168Q110.498-61.0352 110.62-62.8174Q110.742-64.5996 109.692-66.0645Q108.643-67.5293 106.86-67.9443Q105.078-68.3594 103.174-66.9922L90.8691-58.1055Q88.3301-56.25 87.0605-53.9551Q85.791-51.6602 85.498-48.3887Z"/>
  </g>
  <g id="Bold-S" transform="matrix(1 0 0 1 2279.8 696)">
   <path class="hierarchical-0:secondary SFSymbolsPreview4D4D4D" d="M22.9492 4.3457L62.8906 4.3457Q62.7441 3.71094 62.6465 3.10059Q62.5488 2.49023 62.5 1.80664L58.6426-38.3789Q58.3008-42.1875 59.7412-45.2881Q61.1816-48.3887 64.0137-50.2197Q66.8457-52.0508 70.6543-52.0508L81.0059-52.0508Q80.9082-53.125 80.6152-53.833Q80.3223-54.541 79.7363-55.2734L71.9238-65.625L71.9238-71.0938Q71.9238-76.2695 69.043-79.0527Q66.1621-81.8359 60.8398-81.8359L30.3223-81.8359Q25-81.8359 22.0947-79.0527Q19.1895-76.2695 19.1895-71.0938L19.1895-65.625L11.4258-55.2734Q10.498-54.0527 10.1318-52.71Q9.76562-51.3672 9.76562-49.0234L9.76562-8.74023Q9.76562-2.34375 13.1348 1.00098Q16.5039 4.3457 22.9492 4.3457ZM35.5957-65.7227Q34.3262-65.7227 33.4229-66.6504Q32.5195-67.5781 32.5195-68.7988Q32.5195-70.1172 33.4229-71.0205Q34.3262-71.9238 35.5957-71.9238L55.6641-71.9238Q56.8848-71.9238 57.7881-71.0205Q58.6914-70.1172 58.6914-68.7988Q58.6914-67.5781 57.8125-66.6504Q56.9336-65.7227 55.6641-65.7227Z"/>
   <path class="hierarchical-1:primary SFSymbolsPreview212121" d="M79.2969 11.4258L96.3379 11.4258Q101.172 11.4258 103.662 8.91113Q106.152 6.39648 106.689 1.17188L110.547-38.9648Q110.84-41.9434 109.302-43.7256Q107.764-45.5078 104.98-45.5078L70.6543-45.5078Q67.8711-45.5078 66.3574-43.7012Q64.8438-41.8945 65.1367-38.9648L68.9941 1.17188Q69.4824 6.39648 71.9727 8.91113Q74.4629 11.4258 79.2969 11.4258ZM84.4238-42.5293L92.4316-42.5293L92.7734-47.0703Q92.9199-49.2188 94.3359-50.2441L107.129-59.375Q108.74-60.5469 108.862-62.1338Q108.984-63.7207 108.057-64.9902Q107.129-66.2598 105.566-66.626Q104.004-66.9922 102.295-65.7715L89.9902-56.8848Q87.5488-55.127 86.3281-52.9297Q85.1074-50.7324 84.8633-47.6074Z"/>
  </g>
  <g id="Semibold-S" transform="matrix(1 0 0 1 1983.65 696)">
   <path class="hierarchical-0:secondary SFSymbolsPreview4D4D4D" d="M22.5098 3.80859L62.9883 3.80859Q62.8906 3.32031 62.8174 2.83203Q62.7441 2.34375 62.6953 1.80664L58.7891-38.8672Q58.4473-42.334 59.79-45.1416Q61.1328-47.9492 63.6963-49.6094Q66.2598-51.2695 69.7266-51.2695L80.0781-51.2695Q80.0293-52.5391 79.7119-53.3447Q79.3945-54.1504 78.7598-55.0293L71.0938-65.1855L71.0938-71.3867Q71.0938-76.1719 68.3838-78.7598Q65.6738-81.3477 60.6445-81.3477L29.4434-81.3477Q24.4141-81.3477 21.7041-78.7598Q18.9941-76.1719 18.9941-71.3867L18.9941-65.1855L11.377-55.0293Q10.498-53.8574 10.1318-52.6123Q9.76562-51.3672 9.76562-49.2188L9.76562-8.78906Q9.76562-2.58789 13.0127 0.610352Q16.2598 3.80859 22.5098 3.80859ZM35.0098-65.332Q33.7891-65.332 32.9102-66.2109Q32.0312-67.0898 32.0312-68.2617Q32.0312-69.5312 32.9102-70.4102Q33.7891-71.2891 35.0098-71.2891L55.127-71.2891Q56.3477-71.2891 57.2266-70.4102Q58.1055-69.5312 58.1055-68.2617Q58.1055-67.0898 57.2266-66.2109Q56.3477-65.332 55.127-65.332Z"/>
   <path class="hierarchical-1:primary SFSymbolsPreview212121" d="M78.5156 10.8398L95.8008 10.8398Q100.342 10.8398 102.686 8.49609Q105.029 6.15234 105.518 1.2207L109.424-39.4531Q109.668-41.9922 108.35-43.5303Q107.031-45.0684 104.639-45.0684L69.7266-45.0684Q67.334-45.0684 66.0156-43.5059Q64.6973-41.9434 64.9414-39.4531L68.8477 1.2207Q69.3359 6.15234 71.6553 8.49609Q73.9746 10.8398 78.5156 10.8398ZM83.9844-42.334L91.2598-42.334L91.5527-46.5332Q91.6992-48.877 93.2617-50L106.055-59.1309Q107.52-60.2051 107.617-61.6455Q107.715-63.0859 106.885-64.2334Q106.055-65.3809 104.639-65.7227Q103.223-66.0645 101.66-64.9414L89.3555-56.0547Q86.9629-54.2969 85.791-52.1973Q84.6191-50.0977 84.375-47.0215Z"/>
  </g>
  <g id="Medium-S" transform="matrix(1 0 0 1 1687.38 696)">
   <path class="hierarchical-0:secondary SFSymbolsPreview4D4D4D" d="M22.2168 3.41797L63.0371 3.41797Q62.9395 3.02734 62.8906 2.66113Q62.8418 2.29492 62.8418 1.85547L58.8867-39.2578Q58.5938-42.4316 59.8145-45.0439Q61.0352-47.6562 63.4277-49.1699Q65.8203-50.6836 68.9941-50.6836L79.3945-50.6836Q79.3457-52.0996 79.0283-52.9785Q78.7109-53.8574 78.0273-54.834L70.459-64.8438L70.459-71.582Q70.459-76.123 67.8955-78.54Q65.332-80.957 60.498-80.957L28.7598-80.957Q24.0234-80.957 21.4355-78.54Q18.8477-76.123 18.8477-71.582L18.8477-64.8438L11.3281-54.834Q10.4492-53.6621 10.1074-52.4902Q9.76562-51.3184 9.76562-49.3164L9.76562-8.83789Q9.76562-2.73438 12.8906 0.341797Q16.0156 3.41797 22.2168 3.41797ZM34.5703-64.9902Q33.3984-64.9902 32.5439-65.8691Q31.6895-66.748 31.6895-67.8711Q31.6895-69.0918 32.5439-69.9463Q33.3984-70.8008 34.5703-70.8008L54.7852-70.8008Q55.957-70.8008 56.8115-69.9463Q57.666-69.0918 57.666-67.8711Q57.666-66.748 56.8115-65.8691Q55.957-64.9902 54.7852-64.9902Z"/>
   <path class="hierarchical-1:primary SFSymbolsPreview212121" d="M77.9297 10.4492L95.459 10.4492Q99.7559 10.4492 101.953 8.20312Q104.15 5.95703 104.639 1.31836L108.545-39.8438Q108.789-42.041 107.642-43.3594Q106.494-44.6777 104.395-44.6777L68.9941-44.6777Q66.8945-44.6777 65.7471-43.335Q64.5996-41.9922 64.8438-39.8438L68.7988 1.31836Q69.2383 5.95703 71.4355 8.20312Q73.6328 10.4492 77.9297 10.4492ZM83.6426-42.1875L90.332-42.1875L90.625-46.1426Q90.7715-48.6328 92.4316-49.8047L105.225-58.9844Q106.592-59.9609 106.689-61.2793Q106.787-62.5977 106.006-63.6719Q105.225-64.7461 103.931-65.0391Q102.637-65.332 101.172-64.3066L88.8672-55.4199Q86.5234-53.7109 85.4004-51.6602Q84.2773-49.6094 84.0332-46.582Z"/>
  </g>
  <g id="Regular-S" transform="matrix(1 0 0 1 1391.2 696)">
   <path class="hierarchical-0:secondary SFSymbolsPreview4D4D4D" d="M21.8262 2.92969L63.1348 2.92969Q63.0859 2.63672 63.0615 2.41699Q63.0371 2.19727 63.0371 1.9043L59.0332-39.7949Q58.7402-42.5781 59.8633-44.8975Q60.9863-47.2168 63.1104-48.584Q65.2344-49.9512 68.0664-49.9512L78.5156-49.9512Q78.5156-51.5625 78.1738-52.5391Q77.832-53.5156 77.0508-54.5898L69.6289-64.4043L69.6289-71.875Q69.6289-76.0254 67.2363-78.2471Q64.8438-80.4688 60.3516-80.4688L27.9297-80.4688Q23.4863-80.4688 21.0693-78.2471Q18.6523-76.0254 18.6523-71.875L18.6523-64.4043L11.2793-54.5898Q10.4492-53.4668 10.1074-52.3926Q9.76562-51.3184 9.76562-49.5117L9.76562-8.93555Q9.76562-2.97852 12.7686-0.0244141Q15.7715 2.92969 21.8262 2.92969ZM33.9844-64.5996Q32.8613-64.5996 32.0312-65.4297Q31.2012-66.2598 31.2012-67.3828Q31.2012-68.5547 32.0312-69.3848Q32.8613-70.2148 33.9844-70.2148L54.2969-70.2148Q55.4199-70.2148 56.25-69.3848Q57.0801-68.5547 57.0801-67.3828Q57.0801-66.2598 56.25-65.4297Q55.4199-64.5996 54.2969-64.5996Z"/>
   <path class="hierarchical-1:primary SFSymbolsPreview212121" d="M77.1484 9.91211L94.9707 9.91211Q98.9746 9.91211 101.001 7.8125Q103.027 5.71289 103.467 1.36719L107.471-40.332Q107.666-42.0898 106.714-43.1641Q105.762-44.2383 104.053-44.2383L68.0664-44.2383Q66.3574-44.2383 65.4297-43.1396Q64.502-42.041 64.6973-40.332L68.7012 1.36719Q69.0918 5.71289 71.1182 7.8125Q73.1445 9.91211 77.1484 9.91211ZM83.2031-42.041L89.1602-42.041L89.4043-45.6543Q89.5996-48.291 91.4062-49.5605L104.199-58.7402Q105.42-59.6191 105.493-60.791Q105.566-61.9629 104.883-62.915Q104.199-63.8672 103.027-64.1357Q101.855-64.4043 100.537-63.4766L88.2324-54.5898Q85.9863-52.9297 84.8877-50.9521Q83.7891-48.9746 83.5449-46.0449Z"/>
  </g>
  <g id="Light-S" transform="matrix(1 0 0 1 1095.74 696)">
   <path class="hierarchical-0:secondary SFSymbolsPreview4D4D4D" d="M21.1426 2.49023L63.0859 2.49023Q63.0371 2.19727 63.0127 1.95312Q62.9883 1.70898 62.9395 1.41602L58.9355-40.2344Q58.6914-42.627 59.6436-44.5557Q60.5957-46.4844 62.4023-47.6318Q64.209-48.7793 66.6016-48.7793L76.9043-48.7793Q76.9043-50.7324 76.5625-51.8555Q76.2207-52.9785 75.2441-54.2969L68.0176-63.8672L68.0176-70.8984Q68.0176-74.9512 65.7959-77.0996Q63.5742-79.248 59.3262-79.248L27.3438-79.248Q23.1445-79.248 20.8984-77.0996Q18.6523-74.9512 18.6523-70.8984L18.6523-63.8672L11.4258-54.2969Q10.4492-52.9297 10.1074-51.7334Q9.76562-50.5371 9.76562-48.3887L9.76562-8.74023Q9.76562-3.125 12.6221-0.317383Q15.4785 2.49023 21.1426 2.49023ZM32.8125-65.0391Q31.9336-65.0391 31.2744-65.6982Q30.6152-66.3574 30.6152-67.2363Q30.6152-68.1641 31.2744-68.8232Q31.9336-69.4824 32.8125-69.4824L53.6621-69.4824Q54.541-69.4824 55.2002-68.8232Q55.8594-68.1641 55.8594-67.2363Q55.8594-66.3574 55.2002-65.6982Q54.541-65.0391 53.6621-65.0391Z"/>
   <path class="hierarchical-1:primary SFSymbolsPreview212121" d="M75.5371 8.64258L93.1641 8.64258Q96.8262 8.64258 98.7061 6.73828Q100.586 4.83398 100.977 0.927734L104.98-40.6738Q105.176-42.1875 104.37-43.0664Q103.564-43.9453 102.1-43.9453L66.6016-43.9453Q65.1855-43.9453 64.3799-43.042Q63.5742-42.1387 63.7695-40.6738L67.7734 0.927734Q68.1152 4.83398 70.0195 6.73828Q71.9238 8.64258 75.5371 8.64258ZM82.1289-42.1875L86.9141-42.1875L87.1582-45.752Q87.3535-48.4863 89.3555-49.9512L102.148-59.1309Q103.125-59.8145 103.198-60.7666Q103.271-61.7188 102.71-62.4756Q102.148-63.2324 101.196-63.4521Q100.244-63.6719 99.1699-62.8906L86.8652-54.0039Q84.7168-52.3926 83.6914-50.5859Q82.666-48.7793 82.4707-46.0449Z"/>
  </g>
  <g id="Thin-S" transform="matrix(1 0 0 1 800.661 696)">
   <path class="hierarchical-0:secondary SFSymbolsPreview4D4D4D" d="M20.2148 1.95312L63.0371 1.95312Q62.9395 1.66016 62.915 1.36719Q62.8906 1.07422 62.8418 0.732422L58.8379-40.8203Q58.6914-42.627 59.3994-44.0918Q60.1074-45.5566 61.499-46.4111Q62.8906-47.2656 64.6973-47.2656L74.8047-47.2656Q74.8047-49.6582 74.4385-50.9521Q74.0723-52.2461 72.8516-53.9062L65.918-63.1348L65.918-69.5801Q65.918-73.5352 63.8916-75.5859Q61.8652-77.6367 58.0078-77.6367L26.5625-77.6367Q22.7051-77.6367 20.6787-75.5859Q18.6523-73.5352 18.6523-69.5801L18.6523-63.1348L11.6699-53.9062Q10.4492-52.1973 10.1074-50.8545Q9.76562-49.5117 9.76562-46.9238L9.76562-8.44727Q9.76562-3.27148 12.4268-0.65918Q15.0879 1.95312 20.2148 1.95312ZM31.2988-65.5762Q30.6641-65.5762 30.249-66.0156Q29.834-66.4551 29.834-67.041Q29.834-67.627 30.249-68.0664Q30.6641-68.5059 31.2988-68.5059L52.832-68.5059Q53.418-68.5059 53.833-68.0664Q54.248-67.627 54.248-67.041Q54.248-66.4551 53.833-66.0156Q53.418-65.5762 52.832-65.5762Z"/>
   <path class="hierarchical-1:primary SFSymbolsPreview212121" d="M73.4375 6.98242L90.7715 6.98242Q93.9453 6.98242 95.6787 5.34668Q97.4121 3.71094 97.7051 0.390625L101.709-41.1133Q101.807-42.2852 101.245-42.9443Q100.684-43.6035 99.5117-43.6035L64.6973-43.6035Q63.5742-43.6035 62.9883-42.9199Q62.4023-42.2363 62.5-41.1133L66.5039 0.390625Q66.8457 3.71094 68.5547 5.34668Q70.2637 6.98242 73.4375 6.98242ZM80.7129-42.4316L83.8867-42.4316L84.1309-45.8496Q84.3262-48.7305 86.7188-50.4395L99.5117-59.668Q100.098-60.1074 100.146-60.7422Q100.195-61.377 99.8291-61.8896Q99.4629-62.4023 98.8037-62.5488Q98.1445-62.6953 97.4121-62.1582L85.1074-53.2715Q83.0078-51.7578 82.1045-50.1221Q81.2012-48.4863 81.0059-46.0449Z"/>
  </g>
  <g id="Ultralight-S" transform="matrix(1 0 0 1 504.804 696)">
   <path class="hierarchical-0:secondary SFSymbolsPreview4D4D4D" d="M19.7266 1.66016L62.9883 1.66016Q62.8906 1.36719 62.8662 1.0498Q62.8418 0.732422 62.793 0.390625L58.7891-41.1133Q58.6426-42.6758 59.2529-43.8721Q59.8633-45.0684 61.0352-45.752Q62.207-46.4355 63.7207-46.4355L73.6816-46.4355Q73.6816-49.1211 73.3154-50.5127Q72.9492-51.9043 71.6309-53.6621L64.7949-62.793L64.7949-68.9453Q64.7949-72.8027 62.8906-74.8291Q60.9863-76.8555 57.3242-76.8555L26.1719-76.8555Q22.5098-76.8555 20.5811-74.8291Q18.6523-72.8027 18.6523-68.9453L18.6523-62.793L11.7676-53.6621Q10.4492-51.8555 10.1074-50.4395Q9.76562-49.0234 9.76562-46.1914L9.76562-8.30078Q9.76562-3.36914 12.3047-0.854492Q14.8438 1.66016 19.7266 1.66016ZM30.4688-65.8691Q30.0293-65.8691 29.7363-66.1865Q29.4434-66.5039 29.4434-66.9434Q29.4434-67.3828 29.7363-67.6758Q30.0293-67.9688 30.4688-67.9688L52.3926-67.9688Q52.832-67.9688 53.1494-67.6758Q53.4668-67.3828 53.4668-66.9434Q53.4668-66.5039 53.1494-66.1865Q52.832-65.8691 52.3926-65.8691Z"/>
   <path class="hierarchical-1:primary SFSymbolsPreview212121" d="M72.3633 6.15234L89.502 6.15234Q92.4805 6.15234 94.1162 4.63867Q95.752 3.125 95.9961 0.0976562L100-41.3086Q100.146-42.334 99.6582-42.8711Q99.1699-43.4082 98.1934-43.4082L63.7207-43.4082Q62.793-43.4082 62.2803-42.8711Q61.7676-42.334 61.8652-41.3086L65.8691 0.0976562Q66.1621 3.125 67.7979 4.63867Q69.4336 6.15234 72.3633 6.15234ZM79.9805-42.5293L82.373-42.5293L82.6172-45.9473Q82.8125-48.8281 85.3027-50.6836L98.0957-59.9121Q98.584-60.2539 98.6084-60.7178Q98.6328-61.1816 98.3398-61.5967Q98.0469-62.0117 97.5586-62.085Q97.0703-62.1582 96.4844-61.7676L84.1797-52.8809Q82.1289-51.3672 81.2988-49.8535Q80.4688-48.3398 80.2734-46.0449Z"/>
  </g>
 </g>
</svg>
