<?xml version="1.0" encoding="UTF-8"?>
<!--Generator: Apple Native CoreSVG 175-->
<!DOCTYPE svg
PUBLIC "-//W3C//DTD SVG 1.1//EN"
       "http://www.w3.org/Graphics/SVG/1.1/DTD/svg11.dtd">
<svg version="1.1" xmlns="http://www.w3.org/2000/svg" xmlns:xlink="http://www.w3.org/1999/xlink" width="3300" height="2200">
 <!--glyph: "uni1010EB.medium", point size: 100.0, font version: "17.0d11e1", template writer version: "65.1"-->
 <style>.multicolor-0:systemRedColor {fill:#FF3B30;opacity:1.0}
.multicolor-1:white {fill:#FFFFFF;opacity:1.0}

.hierarchical-0:tertiary {fill:#8E8E8E}
.hierarchical-1:primary {fill:#212121}

.SFSymbolsPreviewFF3B30 {fill:#FF3B30;opacity:1.0}
.SFSymbolsPreviewFFFFFF {fill:#FFFFFF;opacity:1.0}
</style>
 <g id="Notes">
  <rect height="2200" id="artboard" style="fill:white;opacity:1" width="3300" x="0" y="0"/>
  <line style="fill:none;stroke:black;opacity:1;stroke-width:0.5;" x1="263" x2="3036" y1="292" y2="292"/>
  <text style="stroke:none;fill:black;font-family:sans-serif;font-size:13;font-weight:bold;" transform="matrix(1 0 0 1 263 322)">Weight/Scale Variations</text>
  <text style="stroke:none;fill:black;font-family:sans-serif;font-size:13;text-anchor:middle;" transform="matrix(1 0 0 1 559.711 322)">Ultralight</text>
  <text style="stroke:none;fill:black;font-family:sans-serif;font-size:13;text-anchor:middle;" transform="matrix(1 0 0 1 856.422 322)">Thin</text>
  <text style="stroke:none;fill:black;font-family:sans-serif;font-size:13;text-anchor:middle;" transform="matrix(1 0 0 1 1153.13 322)">Light</text>
  <text style="stroke:none;fill:black;font-family:sans-serif;font-size:13;text-anchor:middle;" transform="matrix(1 0 0 1 1449.84 322)">Regular</text>
  <text style="stroke:none;fill:black;font-family:sans-serif;font-size:13;text-anchor:middle;" transform="matrix(1 0 0 1 1746.56 322)">Medium</text>
  <text style="stroke:none;fill:black;font-family:sans-serif;font-size:13;text-anchor:middle;" transform="matrix(1 0 0 1 2043.27 322)">Semibold</text>
  <text style="stroke:none;fill:black;font-family:sans-serif;font-size:13;text-anchor:middle;" transform="matrix(1 0 0 1 2339.98 322)">Bold</text>
  <text style="stroke:none;fill:black;font-family:sans-serif;font-size:13;text-anchor:middle;" transform="matrix(1 0 0 1 2636.69 322)">Heavy</text>
  <text style="stroke:none;fill:black;font-family:sans-serif;font-size:13;text-anchor:middle;" transform="matrix(1 0 0 1 2933.4 322)">Black</text>
  <line style="fill:none;stroke:black;opacity:1;stroke-width:0.5;" x1="263" x2="3036" y1="1903" y2="1903"/>
  <g transform="matrix(1 0 0 1 263 1933)">
   <path d="M9.24805 0.830078Q10.8691 0.830078 12.2949 0.214844Q13.7207-0.400391 14.8096-1.49414Q15.8984-2.58789 16.5186-4.01367Q17.1387-5.43945 17.1387-7.05078Q17.1387-8.66211 16.5186-10.0879Q15.8984-11.5137 14.8047-12.6074Q13.7109-13.7012 12.2852-14.3164Q10.8594-14.9316 9.23828-14.9316Q7.62695-14.9316 6.20117-14.3164Q4.77539-13.7012 3.69141-12.6074Q2.60742-11.5137 1.9873-10.0879Q1.36719-8.66211 1.36719-7.05078Q1.36719-5.43945 1.9873-4.01367Q2.60742-2.58789 3.69629-1.49414Q4.78516-0.400391 6.21094 0.214844Q7.63672 0.830078 9.24805 0.830078ZM9.24805-0.654297Q7.91992-0.654297 6.7627-1.14746Q5.60547-1.64062 4.73145-2.51953Q3.85742-3.39844 3.36426-4.56055Q2.87109-5.72266 2.87109-7.05078Q2.87109-8.37891 3.35938-9.54102Q3.84766-10.7031 4.72168-11.582Q5.5957-12.4609 6.75293-12.9541Q7.91016-13.4473 9.23828-13.4473Q10.5762-13.4473 11.7334-12.9541Q12.8906-12.4609 13.7695-11.582Q14.6484-10.7031 15.1465-9.54102Q15.6445-8.37891 15.6445-7.05078Q15.6445-5.72266 15.1514-4.56055Q14.6582-3.39844 13.7842-2.51953Q12.9102-1.64062 11.748-1.14746Q10.5859-0.654297 9.24805-0.654297ZM5.6543-7.05078Q5.6543-6.72852 5.85938-6.52832Q6.06445-6.32812 6.40625-6.32812L8.51562-6.32812L8.51562-4.20898Q8.51562-3.88672 8.71094-3.67676Q8.90625-3.4668 9.23828-3.4668Q9.56055-3.4668 9.77051-3.67676Q9.98047-3.88672 9.98047-4.20898L9.98047-6.32812L12.0898-6.32812Q12.4219-6.32812 12.627-6.52832Q12.832-6.72852 12.832-7.05078Q12.832-7.38281 12.627-7.58789Q12.4219-7.79297 12.0898-7.79297L9.98047-7.79297L9.98047-9.90234Q9.98047-10.2344 9.77051-10.4443Q9.56055-10.6543 9.23828-10.6543Q8.90625-10.6543 8.71094-10.4443Q8.51562-10.2344 8.51562-9.90234L8.51562-7.79297L6.40625-7.79297Q6.06445-7.79297 5.85938-7.58789Q5.6543-7.38281 5.6543-7.05078Z"/>
  </g>
  <g transform="matrix(1 0 0 1 281.867 1933)">
   <path d="M11.709 2.91016Q13.75 2.91016 15.5518 2.12891Q17.3535 1.34766 18.7305-0.0292969Q20.1074-1.40625 20.8887-3.20801Q21.6699-5.00977 21.6699-7.05078Q21.6699-9.0918 20.8887-10.8936Q20.1074-12.6953 18.7305-14.0723Q17.3535-15.4492 15.5469-16.2305Q13.7402-17.0117 11.6992-17.0117Q9.6582-17.0117 7.85645-16.2305Q6.05469-15.4492 4.68262-14.0723Q3.31055-12.6953 2.5293-10.8936Q1.74805-9.0918 1.74805-7.05078Q1.74805-5.00977 2.5293-3.20801Q3.31055-1.40625 4.6875-0.0292969Q6.06445 1.34766 7.86621 2.12891Q9.66797 2.91016 11.709 2.91016ZM11.709 1.25Q9.98047 1.25 8.47656 0.605469Q6.97266-0.0390625 5.83496-1.17676Q4.69727-2.31445 4.05762-3.81836Q3.41797-5.32227 3.41797-7.05078Q3.41797-8.7793 4.05762-10.2832Q4.69727-11.7871 5.83008-12.9297Q6.96289-14.0723 8.4668-14.7119Q9.9707-15.3516 11.6992-15.3516Q13.4277-15.3516 14.9316-14.7119Q16.4355-14.0723 17.5781-12.9297Q18.7207-11.7871 19.3652-10.2832Q20.0098-8.7793 20.0098-7.05078Q20.0098-5.32227 19.3701-3.81836Q18.7305-2.31445 17.5928-1.17676Q16.4551-0.0390625 14.9463 0.605469Q13.4375 1.25 11.709 1.25ZM7.17773-7.05078Q7.17773-6.69922 7.41211-6.47461Q7.64648-6.25 8.01758-6.25L10.8887-6.25L10.8887-3.36914Q10.8887-2.99805 11.1133-2.76855Q11.3379-2.53906 11.6895-2.53906Q12.0605-2.53906 12.29-2.76855Q12.5195-2.99805 12.5195-3.36914L12.5195-6.25L15.4004-6.25Q15.7715-6.25 16.001-6.47461Q16.2305-6.69922 16.2305-7.05078Q16.2305-7.42188 16.001-7.65137Q15.7715-7.88086 15.4004-7.88086L12.5195-7.88086L12.5195-10.752Q12.5195-11.1328 12.29-11.3623Q12.0605-11.5918 11.6895-11.5918Q11.3379-11.5918 11.1133-11.3574Q10.8887-11.123 10.8887-10.752L10.8887-7.88086L8.01758-7.88086Q7.63672-7.88086 7.40723-7.65137Q7.17773-7.42188 7.17773-7.05078Z"/>
  </g>
  <g transform="matrix(1 0 0 1 305.646 1933)">
   <path d="M14.9707 5.66406Q17.0605 5.66406 18.96 5.01465Q20.8594 4.36523 22.4512 3.19336Q24.043 2.02148 25.2197 0.429688Q26.3965-1.16211 27.0459-3.06641Q27.6953-4.9707 27.6953-7.05078Q27.6953-9.14062 27.0459-11.04Q26.3965-12.9395 25.2197-14.5312Q24.043-16.123 22.4512-17.2998Q20.8594-18.4766 18.9551-19.126Q17.0508-19.7754 14.9609-19.7754Q12.8711-19.7754 10.9717-19.126Q9.07227-18.4766 7.48535-17.2998Q5.89844-16.123 4.72168-14.5312Q3.54492-12.9395 2.90039-11.04Q2.25586-9.14062 2.25586-7.05078Q2.25586-4.9707 2.90527-3.06641Q3.55469-1.16211 4.72656 0.429688Q5.89844 2.02148 7.49023 3.19336Q9.08203 4.36523 10.9814 5.01465Q12.8809 5.66406 14.9707 5.66406ZM14.9707 3.84766Q13.1641 3.84766 11.5283 3.2959Q9.89258 2.74414 8.53516 1.74805Q7.17773 0.751953 6.17676-0.610352Q5.17578-1.97266 4.62891-3.6084Q4.08203-5.24414 4.08203-7.05078Q4.08203-8.86719 4.62891-10.5029Q5.17578-12.1387 6.17188-13.501Q7.16797-14.8633 8.52539-15.8594Q9.88281-16.8555 11.5186-17.4023Q13.1543-17.9492 14.9609-17.9492Q16.7773-17.9492 18.4131-17.4023Q20.0488-16.8555 21.4111-15.8594Q22.7734-14.8633 23.7695-13.501Q24.7656-12.1387 25.3174-10.5029Q25.8691-8.86719 25.8691-7.05078Q25.8789-5.24414 25.332-3.6084Q24.7852-1.97266 23.7842-0.610352Q22.7832 0.751953 21.4209 1.74805Q20.0586 2.74414 18.4229 3.2959Q16.7871 3.84766 14.9707 3.84766ZM9.19922-7.05078Q9.19922-6.66992 9.45801-6.4209Q9.7168-6.17188 10.1172-6.17188L14.0625-6.17188L14.0625-2.2168Q14.0625-1.81641 14.3115-1.55762Q14.5605-1.29883 14.9512-1.29883Q15.3516-1.29883 15.6104-1.55273Q15.8691-1.80664 15.8691-2.2168L15.8691-6.17188L19.8242-6.17188Q20.2246-6.17188 20.4785-6.4209Q20.7324-6.66992 20.7324-7.05078Q20.7324-7.46094 20.4785-7.71484Q20.2246-7.96875 19.8242-7.96875L15.8691-7.96875L15.8691-11.9141Q15.8691-12.3242 15.6104-12.583Q15.3516-12.8418 14.9512-12.8418Q14.5605-12.8418 14.3115-12.583Q14.0625-12.3242 14.0625-11.9141L14.0625-7.96875L10.1172-7.96875Q9.70703-7.96875 9.45312-7.71484Q9.19922-7.46094 9.19922-7.05078Z"/>
  </g>
  <text style="stroke:none;fill:black;font-family:sans-serif;font-size:13;font-weight:bold;" transform="matrix(1 0 0 1 263 1953)">Design Variations</text>
  <text style="stroke:none;fill:black;font-family:sans-serif;font-size:13;" transform="matrix(1 0 0 1 263 1971)">Symbols are supported in up to nine weights and three scales.</text>
  <text style="stroke:none;fill:black;font-family:sans-serif;font-size:13;" transform="matrix(1 0 0 1 263 1989)">For optimal layout with text and other symbols, vertically align</text>
  <text style="stroke:none;fill:black;font-family:sans-serif;font-size:13;" transform="matrix(1 0 0 1 263 2007)">symbols with the adjacent text.</text>
  <line style="fill:none;stroke:#00AEEF;stroke-width:0.5;opacity:1.0;" x1="776" x2="776" y1="1919" y2="1933"/>
  <g transform="matrix(1 0 0 1 776 1933)">
   <path d="M3.31055 0.15625Q3.70117 0.15625 3.91602-0.00976562Q4.13086-0.175781 4.26758-0.585938L5.52734-4.0332L11.2891-4.0332L12.5488-0.585938Q12.6855-0.175781 12.9004-0.00976562Q13.1152 0.15625 13.4961 0.15625Q13.8867 0.15625 14.1162-0.0585938Q14.3457-0.273438 14.3457-0.644531Q14.3457-0.869141 14.2383-1.17188L9.6582-13.3691Q9.48242-13.8184 9.17969-14.043Q8.87695-14.2676 8.4082-14.2676Q7.5-14.2676 7.17773-13.3789L2.59766-1.16211Q2.49023-0.859375 2.49023-0.634766Q2.49023-0.263672 2.70996-0.0537109Q2.92969 0.15625 3.31055 0.15625ZM6.00586-5.51758L8.37891-12.0898L8.42773-12.0898L10.8008-5.51758Z"/>
  </g>
  <line style="fill:none;stroke:#00AEEF;stroke-width:0.5;opacity:1.0;" x1="793.197" x2="793.197" y1="1919" y2="1933"/>
  <text style="stroke:none;fill:black;font-family:sans-serif;font-size:13;font-weight:bold;" transform="matrix(1 0 0 1 776 1953)">Margins</text>
  <text style="stroke:none;fill:black;font-family:sans-serif;font-size:13;" transform="matrix(1 0 0 1 776 1971)">Leading and trailing margins on the left and right side of each symbol</text>
  <text style="stroke:none;fill:black;font-family:sans-serif;font-size:13;" transform="matrix(1 0 0 1 776 1989)">can be adjusted by modifying the x-location of the margin guidelines.</text>
  <text style="stroke:none;fill:black;font-family:sans-serif;font-size:13;" transform="matrix(1 0 0 1 776 2007)">Modifications are automatically applied proportionally to all</text>
  <text style="stroke:none;fill:black;font-family:sans-serif;font-size:13;" transform="matrix(1 0 0 1 776 2025)">scales and weights.</text>
  <g transform="matrix(1 0 0 1 1289 1933)">
   <path d="M2.8418 1.86523L4.54102 3.57422Q5.18555 4.22852 5.90332 4.17969Q6.62109 4.13086 7.31445 3.35938L18.0078-8.42773L17.041-9.4043L6.42578 2.27539Q6.16211 2.57812 5.89355 2.61719Q5.625 2.65625 5.27344 2.30469L4.10156 1.14258Q3.75 0.791016 3.79395 0.522461Q3.83789 0.253906 4.14062-0.0195312L15.6152-10.8203L14.6387-11.7871L3.04688-0.898438Q2.30469-0.214844 2.25098 0.498047Q2.19727 1.21094 2.8418 1.86523ZM9.25781-16.3281Q8.94531-16.0254 8.90625-15.6348Q8.86719-15.2441 9.04297-14.9512Q9.21875-14.6777 9.55566-14.541Q9.89258-14.4043 10.3809-14.5215Q11.4746-14.7754 12.5977-14.7314Q13.7207-14.6875 14.7949-13.9844L14.209-12.5293Q13.9551-11.9043 14.0674-11.4404Q14.1797-10.9766 14.5801-10.5664L16.875-8.25195Q17.2363-7.88086 17.5781-7.82227Q17.9199-7.76367 18.3398-7.8418L19.4043-8.03711L20.0684-7.36328L20.0293-6.80664Q20-6.43555 20.1221-6.12305Q20.2441-5.81055 20.6055-5.44922L21.3672-4.70703Q21.7285-4.3457 22.1533-4.33105Q22.5781-4.31641 22.9297-4.66797L25.8398-7.58789Q26.1914-7.93945 26.1816-8.35449Q26.1719-8.76953 25.8105-9.13086L25.0391-9.89258Q24.6875-10.2539 24.3799-10.3857Q24.0723-10.5176 23.7109-10.4883L23.1348-10.4395L22.4902-11.0742L22.7344-12.1973Q22.832-12.6172 22.6953-12.9834Q22.5586-13.3496 22.1191-13.7891L19.9219-15.9766Q18.6719-17.2168 17.2607-17.8369Q15.8496-18.457 14.4189-18.4814Q12.9883-18.5059 11.665-17.959Q10.3418-17.4121 9.25781-16.3281ZM10.752-15.957Q11.6602-16.6211 12.7002-16.9043Q13.7402-17.1875 14.8047-17.085Q15.8691-16.9824 16.8701-16.5137Q17.8711-16.0449 18.7012-15.2051L21.1328-12.793Q21.3086-12.6172 21.3525-12.4512Q21.3965-12.2852 21.3379-12.0312L21.0156-10.5469L22.5195-9.0625L23.5059-9.12109Q23.6914-9.13086 23.7891-9.09668Q23.8867-9.0625 24.0332-8.91602L24.6094-8.33984L22.168-5.89844L21.5918-6.47461Q21.4453-6.62109 21.4062-6.71875Q21.3672-6.81641 21.377-7.01172L21.4453-7.98828L19.9512-9.47266L18.4277-9.21875Q18.1836-9.16992 18.042-9.2041Q17.9004-9.23828 17.7148-9.41406L15.7129-11.416Q15.5176-11.5918 15.4932-11.7529Q15.4688-11.9141 15.5859-12.1875L16.4648-14.2773Q15.293-15.3711 13.8281-15.791Q12.3633-16.2109 10.8398-15.7617Q10.7227-15.7324 10.6885-15.8057Q10.6543-15.8789 10.752-15.957Z"/>
  </g>
  <text style="stroke:none;fill:black;font-family:sans-serif;font-size:13;font-weight:bold;" transform="matrix(1 0 0 1 1289 1953)">Exporting</text>
  <text style="stroke:none;fill:black;font-family:sans-serif;font-size:13;" transform="matrix(1 0 0 1 1289 1971)">Symbols should be outlined when exporting to ensure the</text>
  <text style="stroke:none;fill:black;font-family:sans-serif;font-size:13;" transform="matrix(1 0 0 1 1289 1989)">design is preserved when submitting to Xcode.</text>
  <text id="template-version" style="stroke:none;fill:black;font-family:sans-serif;font-size:13;text-anchor:end;" transform="matrix(1 0 0 1 3036 1933)">Template v.3.0</text>
  <text style="stroke:none;fill:black;font-family:sans-serif;font-size:13;text-anchor:end;" transform="matrix(1 0 0 1 3036 1951)">Requires Xcode 13 or greater</text>
  <text id="descriptive-name" style="stroke:none;fill:black;font-family:sans-serif;font-size:13;text-anchor:end;" transform="matrix(1 0 0 1 3036 1969)">Generated from heart.rectangle.fill</text>
  <text style="stroke:none;fill:black;font-family:sans-serif;font-size:13;text-anchor:end;" transform="matrix(1 0 0 1 3036 1987)">Typeset at 100 points</text>
  <text style="stroke:none;fill:black;font-family:sans-serif;font-size:13;" transform="matrix(1 0 0 1 263 726)">Small</text>
  <text style="stroke:none;fill:black;font-family:sans-serif;font-size:13;" transform="matrix(1 0 0 1 263 1156)">Medium</text>
  <text style="stroke:none;fill:black;font-family:sans-serif;font-size:13;" transform="matrix(1 0 0 1 263 1586)">Large</text>
 </g>
 <g id="Guides">
  <g id="H-reference" style="fill:#27AAE1;stroke:none;" transform="matrix(1 0 0 1 339 696)">
   <path d="M0.976562 0L3.66211 0L29.3457-67.1387L30.0293-67.1387L30.0293-70.459L28.125-70.459ZM11.6699-24.4629L46.9727-24.4629L46.2402-26.709L12.4512-26.709ZM55.127 0L57.7637 0L30.6152-70.459L29.4434-70.459L29.4434-67.1387Z"/>
  </g>
  <line id="Baseline-S" style="fill:none;stroke:#27AAE1;opacity:1;stroke-width:0.5;" x1="263" x2="3036" y1="696" y2="696"/>
  <line id="Capline-S" style="fill:none;stroke:#27AAE1;opacity:1;stroke-width:0.5;" x1="263" x2="3036" y1="625.541" y2="625.541"/>
  <g id="H-reference" style="fill:#27AAE1;stroke:none;" transform="matrix(1 0 0 1 339 1126)">
   <path d="M0.976562 0L3.66211 0L29.3457-67.1387L30.0293-67.1387L30.0293-70.459L28.125-70.459ZM11.6699-24.4629L46.9727-24.4629L46.2402-26.709L12.4512-26.709ZM55.127 0L57.7637 0L30.6152-70.459L29.4434-70.459L29.4434-67.1387Z"/>
  </g>
  <line id="Baseline-M" style="fill:none;stroke:#27AAE1;opacity:1;stroke-width:0.5;" x1="263" x2="3036" y1="1126" y2="1126"/>
  <line id="Capline-M" style="fill:none;stroke:#27AAE1;opacity:1;stroke-width:0.5;" x1="263" x2="3036" y1="1055.54" y2="1055.54"/>
  <g id="H-reference" style="fill:#27AAE1;stroke:none;" transform="matrix(1 0 0 1 339 1556)">
   <path d="M0.976562 0L3.66211 0L29.3457-67.1387L30.0293-67.1387L30.0293-70.459L28.125-70.459ZM11.6699-24.4629L46.9727-24.4629L46.2402-26.709L12.4512-26.709ZM55.127 0L57.7637 0L30.6152-70.459L29.4434-70.459L29.4434-67.1387Z"/>
  </g>
  <line id="Baseline-L" style="fill:none;stroke:#27AAE1;opacity:1;stroke-width:0.5;" x1="263" x2="3036" y1="1556" y2="1556"/>
  <line id="Capline-L" style="fill:none;stroke:#27AAE1;opacity:1;stroke-width:0.5;" x1="263" x2="3036" y1="1485.54" y2="1485.54"/>
  <line id="left-margin-Ultralight-S" style="fill:none;stroke:#00AEEF;stroke-width:0.5;opacity:1.0;" x1="505.707" x2="505.707" y1="600.785" y2="720.121"/>
  <line id="right-margin-Ultralight-S" style="fill:none;stroke:#00AEEF;stroke-width:0.5;opacity:1.0;" x1="613.715" x2="613.715" y1="600.785" y2="720.121"/>
  <line id="left-margin-Thin-S" style="fill:none;stroke:#00AEEF;stroke-width:0.5;opacity:1.0;" x1="802.174" x2="802.174" y1="600.785" y2="720.121"/>
  <line id="right-margin-Thin-S" style="fill:none;stroke:#00AEEF;stroke-width:0.5;opacity:1.0;" x1="910.67" x2="910.67" y1="600.785" y2="720.121"/>
  <line id="left-margin-Light-S" style="fill:none;stroke:#00AEEF;stroke-width:0.5;opacity:1.0;" x1="1098.42" x2="1098.42" y1="600.785" y2="720.121"/>
  <line id="right-margin-Light-S" style="fill:none;stroke:#00AEEF;stroke-width:0.5;opacity:1.0;" x1="1207.85" x2="1207.85" y1="600.785" y2="720.121"/>
  <line id="left-margin-Regular-S" style="fill:none;stroke:#00AEEF;stroke-width:0.5;opacity:1.0;" x1="1394.79" x2="1394.79" y1="600.785" y2="720.121"/>
  <line id="right-margin-Regular-S" style="fill:none;stroke:#00AEEF;stroke-width:0.5;opacity:1.0;" x1="1504.9" x2="1504.9" y1="600.785" y2="720.121"/>
  <line id="left-margin-Medium-S" style="fill:none;stroke:#00AEEF;stroke-width:0.5;opacity:1.0;" x1="1691.33" x2="1691.33" y1="600.785" y2="720.121"/>
  <line id="right-margin-Medium-S" style="fill:none;stroke:#00AEEF;stroke-width:0.5;opacity:1.0;" x1="1801.78" x2="1801.78" y1="600.785" y2="720.121"/>
  <line id="left-margin-Semibold-S" style="fill:none;stroke:#00AEEF;stroke-width:0.5;opacity:1.0;" x1="1987.9" x2="1987.9" y1="600.785" y2="720.121"/>
  <line id="right-margin-Semibold-S" style="fill:none;stroke:#00AEEF;stroke-width:0.5;opacity:1.0;" x1="2098.64" x2="2098.64" y1="600.785" y2="720.121"/>
  <line id="left-margin-Bold-S" style="fill:none;stroke:#00AEEF;stroke-width:0.5;opacity:1.0;" x1="2284.41" x2="2284.41" y1="600.785" y2="720.121"/>
  <line id="right-margin-Bold-S" style="fill:none;stroke:#00AEEF;stroke-width:0.5;opacity:1.0;" x1="2395.54" x2="2395.54" y1="600.785" y2="720.121"/>
  <line id="left-margin-Heavy-S" style="fill:none;stroke:#00AEEF;stroke-width:0.5;opacity:1.0;" x1="2580.88" x2="2580.88" y1="600.785" y2="720.121"/>
  <line id="right-margin-Heavy-S" style="fill:none;stroke:#00AEEF;stroke-width:0.5;opacity:1.0;" x1="2692.5" x2="2692.5" y1="600.785" y2="720.121"/>
  <line id="left-margin-Black-S" style="fill:none;stroke:#00AEEF;stroke-width:0.5;opacity:1.0;" x1="2877.35" x2="2877.35" y1="600.785" y2="720.121"/>
  <line id="right-margin-Black-S" style="fill:none;stroke:#00AEEF;stroke-width:0.5;opacity:1.0;" x1="2989.45" x2="2989.45" y1="600.785" y2="720.121"/>
  <line id="left-margin-Ultralight-M" style="fill:none;stroke:#00AEEF;stroke-width:0.5;opacity:1.0;" x1="490.863" x2="490.863" y1="1030.79" y2="1150.12"/>
  <line id="right-margin-Ultralight-M" style="fill:none;stroke:#00AEEF;stroke-width:0.5;opacity:1.0;" x1="628.559" x2="628.559" y1="1030.79" y2="1150.12"/>
  <line id="left-margin-Thin-M" style="fill:none;stroke:#00AEEF;stroke-width:0.5;opacity:1.0;" x1="787.306" x2="787.306" y1="1030.79" y2="1150.12"/>
  <line id="right-margin-Thin-M" style="fill:none;stroke:#00AEEF;stroke-width:0.5;opacity:1.0;" x1="925.538" x2="925.538" y1="1030.79" y2="1150.12"/>
  <line id="left-margin-Light-M" style="fill:none;stroke:#00AEEF;stroke-width:0.5;opacity:1.0;" x1="1083.5" x2="1083.5" y1="1030.79" y2="1150.12"/>
  <line id="right-margin-Light-M" style="fill:none;stroke:#00AEEF;stroke-width:0.5;opacity:1.0;" x1="1222.76" x2="1222.76" y1="1030.79" y2="1150.12"/>
  <line id="left-margin-Regular-M" style="fill:none;stroke:#00AEEF;stroke-width:0.5;opacity:1.0;" x1="1379.82" x2="1379.82" y1="1030.79" y2="1150.12"/>
  <line id="right-margin-Regular-M" style="fill:none;stroke:#00AEEF;stroke-width:0.5;opacity:1.0;" x1="1519.86" x2="1519.86" y1="1030.79" y2="1150.12"/>
  <line id="left-margin-Medium-M" style="fill:none;stroke:#00AEEF;stroke-width:0.5;opacity:1.0;" x1="1676.29" x2="1676.29" y1="1030.79" y2="1150.12"/>
  <line id="right-margin-Medium-M" style="fill:none;stroke:#00AEEF;stroke-width:0.5;opacity:1.0;" x1="1816.82" x2="1816.82" y1="1030.79" y2="1150.12"/>
  <line id="left-margin-Semibold-M" style="fill:none;stroke:#00AEEF;stroke-width:0.5;opacity:1.0;" x1="1972.81" x2="1972.81" y1="1030.79" y2="1150.12"/>
  <line id="right-margin-Semibold-M" style="fill:none;stroke:#00AEEF;stroke-width:0.5;opacity:1.0;" x1="2113.73" x2="2113.73" y1="1030.79" y2="1150.12"/>
  <line id="left-margin-Bold-M" style="fill:none;stroke:#00AEEF;stroke-width:0.5;opacity:1.0;" x1="2269.25" x2="2269.25" y1="1030.79" y2="1150.12"/>
  <line id="right-margin-Bold-M" style="fill:none;stroke:#00AEEF;stroke-width:0.5;opacity:1.0;" x1="2410.71" x2="2410.71" y1="1030.79" y2="1150.12"/>
  <line id="left-margin-Heavy-M" style="fill:none;stroke:#00AEEF;stroke-width:0.5;opacity:1.0;" x1="2565.6" x2="2565.6" y1="1030.79" y2="1150.12"/>
  <line id="right-margin-Heavy-M" style="fill:none;stroke:#00AEEF;stroke-width:0.5;opacity:1.0;" x1="2707.78" x2="2707.78" y1="1030.79" y2="1150.12"/>
  <line id="left-margin-Black-M" style="fill:none;stroke:#00AEEF;stroke-width:0.5;opacity:1.0;" x1="2861.96" x2="2861.96" y1="1030.79" y2="1150.12"/>
  <line id="right-margin-Black-M" style="fill:none;stroke:#00AEEF;stroke-width:0.5;opacity:1.0;" x1="3004.84" x2="3004.84" y1="1030.79" y2="1150.12"/>
  <line id="left-margin-Ultralight-L" style="fill:none;stroke:#00AEEF;stroke-width:0.5;opacity:1.0;" x1="471.015" x2="471.015" y1="1460.79" y2="1580.12"/>
  <line id="right-margin-Ultralight-L" style="fill:none;stroke:#00AEEF;stroke-width:0.5;opacity:1.0;" x1="648.407" x2="648.407" y1="1460.79" y2="1580.12"/>
  <line id="left-margin-Thin-L" style="fill:none;stroke:#00AEEF;stroke-width:0.5;opacity:1.0;" x1="767.409" x2="767.409" y1="1460.79" y2="1580.12"/>
  <line id="right-margin-Thin-L" style="fill:none;stroke:#00AEEF;stroke-width:0.5;opacity:1.0;" x1="945.436" x2="945.436" y1="1460.79" y2="1580.12"/>
  <line id="left-margin-Light-L" style="fill:none;stroke:#00AEEF;stroke-width:0.5;opacity:1.0;" x1="1063.53" x2="1063.53" y1="1460.79" y2="1580.12"/>
  <line id="right-margin-Light-L" style="fill:none;stroke:#00AEEF;stroke-width:0.5;opacity:1.0;" x1="1242.73" x2="1242.73" y1="1460.79" y2="1580.12"/>
  <line id="left-margin-Regular-L" style="fill:none;stroke:#00AEEF;stroke-width:0.5;opacity:1.0;" x1="1359.81" x2="1359.81" y1="1460.79" y2="1580.12"/>
  <line id="right-margin-Regular-L" style="fill:none;stroke:#00AEEF;stroke-width:0.5;opacity:1.0;" x1="1539.88" x2="1539.88" y1="1460.79" y2="1580.12"/>
  <line id="left-margin-Medium-L" style="fill:none;stroke:#00AEEF;stroke-width:0.5;opacity:1.0;" x1="1656.17" x2="1656.17" y1="1460.79" y2="1580.12"/>
  <line id="right-margin-Medium-L" style="fill:none;stroke:#00AEEF;stroke-width:0.5;opacity:1.0;" x1="1836.94" x2="1836.94" y1="1460.79" y2="1580.12"/>
  <line id="left-margin-Semibold-L" style="fill:none;stroke:#00AEEF;stroke-width:0.5;opacity:1.0;" x1="1952.64" x2="1952.64" y1="1460.79" y2="1580.12"/>
  <line id="right-margin-Semibold-L" style="fill:none;stroke:#00AEEF;stroke-width:0.5;opacity:1.0;" x1="2133.89" x2="2133.89" y1="1460.79" y2="1580.12"/>
  <line id="left-margin-Bold-L" style="fill:none;stroke:#00AEEF;stroke-width:0.5;opacity:1.0;" x1="2249.01" x2="2249.01" y1="1460.79" y2="1580.12"/>
  <line id="right-margin-Bold-L" style="fill:none;stroke:#00AEEF;stroke-width:0.5;opacity:1.0;" x1="2430.94" x2="2430.94" y1="1460.79" y2="1580.12"/>
  <line id="left-margin-Heavy-L" style="fill:none;stroke:#00AEEF;stroke-width:0.5;opacity:1.0;" x1="2545.23" x2="2545.23" y1="1460.79" y2="1580.12"/>
  <line id="right-margin-Heavy-L" style="fill:none;stroke:#00AEEF;stroke-width:0.5;opacity:1.0;" x1="2728.14" x2="2728.14" y1="1460.79" y2="1580.12"/>
  <line id="left-margin-Black-L" style="fill:none;stroke:#00AEEF;stroke-width:0.5;opacity:1.0;" x1="2841.51" x2="2841.51" y1="1460.79" y2="1580.12"/>
  <line id="right-margin-Black-L" style="fill:none;stroke:#00AEEF;stroke-width:0.5;opacity:1.0;" x1="3025.29" x2="3025.29" y1="1460.79" y2="1580.12"/>
 </g>
 <g id="Symbols">
  <g id="Black-L" transform="matrix(1 0 0 1 2841.51 1556)">
   <path class="multicolor-0:systemRedColor hierarchical-0:tertiary SFSymbolsPreviewFF3B30" d="M39.9902 26.5137L143.799 26.5137Q155.225 26.5137 161.475 20.3125Q167.725 14.1113 167.725 2.68555L167.725-73.0957Q167.725-84.4727 161.475-90.6738Q155.225-96.875 143.799-96.875L39.9902-96.875Q28.5645-96.875 22.3145-90.6738Q16.0645-84.4727 16.0645-73.0957L16.0645 2.68555Q16.0645 14.1113 22.3145 20.3125Q28.5645 26.5137 39.9902 26.5137Z"/>
   <path class="multicolor-1:white hierarchical-1:primary SFSymbolsPreviewFFFFFF" d="M76.7578-62.8906Q82.2754-62.8906 86.084-60.1807Q89.8926-57.4707 91.8945-54.0039Q93.8965-57.4707 97.7051-60.1807Q101.514-62.8906 107.031-62.8906Q112.061-62.8906 116.211-60.4248Q120.361-57.959 122.827-53.4912Q125.293-49.0234 125.293-43.0664Q125.293-36.9629 122.852-31.5674Q120.41-26.1719 116.65-21.6553Q112.891-17.1387 108.789-13.6475Q104.688-10.1562 101.221-7.8125Q97.7539-5.46875 96.0449-4.49219Q95.1172-4.00391 93.9941-3.44238Q92.8711-2.88086 91.9434-2.88086Q91.0156-2.88086 89.8438-3.44238Q88.6719-4.00391 87.7441-4.49219Q86.0352-5.51758 82.5928-7.86133Q79.1504-10.2051 75.0244-13.6963Q70.8984-17.1875 67.1387-21.6797Q63.3789-26.1719 60.9375-31.5674Q58.4961-36.9629 58.4961-43.0664Q58.4961-49.0234 60.9619-53.4912Q63.4277-57.959 67.5537-60.4248Q71.6797-62.8906 76.7578-62.8906Z"/>
  </g>
  <g id="Heavy-L" transform="matrix(1 0 0 1 2545.23 1556)">
   <path class="multicolor-0:systemRedColor hierarchical-0:tertiary SFSymbolsPreviewFF3B30" d="M38.8184 25.4883L144.092 25.4883Q155.029 25.4883 160.938 19.6289Q166.846 13.7695 166.846 2.83203L166.846-73.2422Q166.846-84.1309 160.938-89.9902Q155.029-95.8496 144.092-95.8496L38.8184-95.8496Q27.8809-95.8496 21.9727-90.0146Q16.0645-84.1797 16.0645-73.2422L16.0645 2.83203Q16.0645 13.7695 21.9727 19.6289Q27.8809 25.4883 38.8184 25.4883Z"/>
   <path class="multicolor-1:white hierarchical-1:primary SFSymbolsPreviewFFFFFF" d="M76.2207-63.0859Q81.6895-63.0859 85.5225-60.376Q89.3555-57.666 91.4551-54.0039Q93.5547-57.666 97.4121-60.376Q101.27-63.0859 106.689-63.0859Q111.816-63.0859 115.991-60.6201Q120.166-58.1543 122.607-53.6865Q125.049-49.2188 125.049-43.3594Q125.049-37.4512 122.729-32.1777Q120.41-26.9043 116.724-22.3877Q113.037-17.8711 108.936-14.2578Q104.834-10.6445 101.172-8.08105Q97.5098-5.51758 95.3125-4.15039Q94.4824-3.66211 93.4326-3.125Q92.3828-2.58789 91.5039-2.58789Q90.6738-2.58789 89.5752-3.125Q88.4766-3.66211 87.5977-4.15039Q85.4004-5.51758 81.7627-8.08105Q78.125-10.6445 73.999-14.2578Q69.873-17.8711 66.2109-22.3633Q62.5488-26.8555 60.2051-32.1533Q57.8613-37.4512 57.8613-43.3594Q57.8613-49.2188 60.3271-53.6865Q62.793-58.1543 66.9434-60.6201Q71.0938-63.0859 76.2207-63.0859Z"/>
  </g>
  <g id="Bold-L" transform="matrix(1 0 0 1 2249.01 1556)">
   <path class="multicolor-0:systemRedColor hierarchical-0:tertiary SFSymbolsPreviewFF3B30" d="M37.5488 24.3652L144.385 24.3652Q154.834 24.3652 160.352 18.8965Q165.869 13.4277 165.869 3.02734L165.869-73.4375Q165.869-83.7891 160.352-89.2822Q154.834-94.7754 144.385-94.7754L37.5488-94.7754Q27.0996-94.7754 21.582-89.3066Q16.0645-83.8379 16.0645-73.4375L16.0645 3.02734Q16.0645 13.4277 21.582 18.8965Q27.0996 24.3652 37.5488 24.3652Z"/>
   <path class="multicolor-1:white hierarchical-1:primary SFSymbolsPreviewFFFFFF" d="M75.6836-63.3789Q81.0547-63.3789 84.9365-60.6445Q88.8184-57.9102 91.0156-54.0527Q93.2129-57.9102 97.1191-60.6445Q101.025-63.3789 106.348-63.3789Q111.572-63.3789 115.771-60.8887Q119.971-58.3984 122.412-53.9551Q124.854-49.5117 124.854-43.7012Q124.854-38.0371 122.632-32.8857Q120.41-27.7344 116.846-23.2178Q113.281-18.7012 109.155-14.9658Q105.029-11.2305 101.172-8.42285Q97.3145-5.61523 94.5801-3.85742Q93.75-3.36914 92.7979-2.85645Q91.8457-2.34375 91.1133-2.34375Q90.332-2.34375 89.3311-2.85645Q88.3301-3.36914 87.4512-3.85742Q84.7168-5.56641 80.835-8.37402Q76.9531-11.1816 72.8516-14.917Q68.75-18.6523 65.1855-23.1934Q61.6211-27.7344 59.3994-32.8857Q57.1777-38.0371 57.1777-43.7012Q57.1777-49.5117 59.6191-53.9551Q62.0605-58.3984 66.2598-60.8887Q70.459-63.3789 75.6836-63.3789Z"/>
  </g>
  <g id="Semibold-L" transform="matrix(1 0 0 1 1952.64 1556)">
   <path class="multicolor-0:systemRedColor hierarchical-0:tertiary SFSymbolsPreviewFF3B30" d="M36.6211 23.5352L144.58 23.5352Q154.688 23.5352 159.937 18.335Q165.186 13.1348 165.186 3.17383L165.186-73.584Q165.186-83.5449 159.937-88.7695Q154.688-93.9941 144.58-93.9941L36.6211-93.9941Q26.5625-93.9941 21.3135-88.7939Q16.0645-83.5938 16.0645-73.584L16.0645 3.17383Q16.0645 13.1836 21.3135 18.3594Q26.5625 23.5352 36.6211 23.5352Z"/>
   <path class="multicolor-1:white hierarchical-1:primary SFSymbolsPreviewFFFFFF" d="M75.2441-63.5254Q80.5176-63.5254 84.4482-60.791Q88.3789-58.0566 90.625-54.0039Q92.8711-58.0566 96.8262-60.791Q100.781-63.5254 106.006-63.5254Q111.328-63.5254 115.527-61.0107Q119.727-58.4961 122.168-54.0771Q124.609-49.6582 124.609-43.8965Q124.609-38.4277 122.461-33.3496Q120.312-28.2715 116.821-23.7549Q113.33-19.2383 109.204-15.4297Q105.078-11.6211 101.074-8.61816Q97.0703-5.61523 93.9453-3.56445Q93.2129-3.07617 92.3096-2.6123Q91.4062-2.14844 90.7227-2.14844Q90.0391-2.14844 89.0869-2.6123Q88.1348-3.07617 87.3047-3.56445Q84.1309-5.56641 80.1025-8.54492Q76.0742-11.5234 71.9727-15.3564Q67.8711-19.1895 64.4043-23.7305Q60.9375-28.2715 58.7891-33.3496Q56.6406-38.4277 56.6406-43.8965Q56.6406-49.6582 59.082-54.0771Q61.5234-58.4961 65.7227-61.0107Q69.9219-63.5254 75.2441-63.5254Z"/>
  </g>
  <g id="Medium-L" transform="matrix(1 0 0 1 1656.17 1556)">
   <path class="multicolor-0:systemRedColor hierarchical-0:tertiary SFSymbolsPreviewFF3B30" d="M35.9375 22.9492L144.775 22.9492Q154.59 22.9492 159.644 17.9443Q164.697 12.9395 164.697 3.22266L164.697-73.6328Q164.697-83.3496 159.644-88.3789Q154.59-93.4082 144.775-93.4082L35.9375-93.4082Q26.1719-93.4082 21.1182-88.4033Q16.0645-83.3984 16.0645-73.6328L16.0645 3.22266Q16.0645 12.9883 21.1182 17.9688Q26.1719 22.9492 35.9375 22.9492Z"/>
   <path class="multicolor-1:white hierarchical-1:primary SFSymbolsPreviewFFFFFF" d="M74.9512-63.7207Q80.1758-63.7207 84.1309-60.9619Q88.0859-58.2031 90.4297-54.0527Q92.7246-58.2031 96.6797-60.9619Q100.635-63.7207 105.859-63.7207Q111.23-63.7207 115.43-61.1816Q119.629-58.6426 122.07-54.2236Q124.512-49.8047 124.512-44.1406Q124.512-38.7207 122.412-33.7402Q120.312-28.7598 116.895-24.2432Q113.477-19.7266 109.351-15.8203Q105.225-11.9141 101.099-8.78906Q96.9727-5.66406 93.5547-3.41797Q92.8223-2.92969 91.9922-2.46582Q91.1621-2.00195 90.5273-2.00195Q89.8438-2.00195 88.9404-2.46582Q88.0371-2.92969 87.207-3.41797Q83.7891-5.61523 79.6387-8.71582Q75.4883-11.8164 71.3867-15.7227Q67.2852-19.6289 63.8672-24.1699Q60.4492-28.7109 58.374-33.7158Q56.2988-38.7207 56.2988-44.1406Q56.2988-49.8047 58.7158-54.2236Q61.1328-58.6426 65.3564-61.1816Q69.5801-63.7207 74.9512-63.7207Z"/>
  </g>
  <g id="Regular-L" transform="matrix(1 0 0 1 1359.81 1556)">
   <path class="multicolor-0:systemRedColor hierarchical-0:tertiary SFSymbolsPreviewFF3B30" d="M35.0586 22.168L144.971 22.168Q154.443 22.168 159.229 17.4316Q164.014 12.6953 164.014 3.36914L164.014-73.7793Q164.014-83.1055 159.229-87.8662Q154.443-92.627 144.971-92.627L35.0586-92.627Q25.6348-92.627 20.8496-87.8906Q16.0645-83.1543 16.0645-73.7793L16.0645 3.36914Q16.0645 12.7441 20.8496 17.4561Q25.6348 22.168 35.0586 22.168Z"/>
   <path class="multicolor-1:white hierarchical-1:primary SFSymbolsPreviewFFFFFF" d="M74.5605-63.8672Q79.7363-63.8672 83.7158-61.1084Q87.6953-58.3496 90.0879-54.0527Q92.4316-58.3496 96.4355-61.1084Q100.439-63.8672 105.566-63.8672Q111.035-63.8672 115.259-61.3281Q119.482-58.7891 121.899-54.3701Q124.316-49.9512 124.316-44.3359Q124.316-39.1113 122.314-34.2041Q120.312-29.2969 116.943-24.7803Q113.574-20.2637 109.448-16.2842Q105.322-12.3047 101.05-9.00879Q96.7773-5.71289 93.0176-3.17383Q92.334-2.68555 91.5527-2.24609Q90.7715-1.80664 90.1855-1.80664Q89.5996-1.80664 88.7451-2.24609Q87.8906-2.68555 87.1094-3.17383Q83.3008-5.61523 79.0039-8.88672Q74.707-12.1582 70.6055-16.1377Q66.5039-20.1172 63.1592-24.6826Q59.8145-29.248 57.8125-34.1797Q55.8105-39.1113 55.8105-44.3359Q55.8105-49.9512 58.2275-54.3701Q60.6445-58.7891 64.8926-61.3281Q69.1406-63.8672 74.5605-63.8672Z"/>
  </g>
  <g id="Light-L" transform="matrix(1 0 0 1 1063.53 1556)">
   <path class="multicolor-0:systemRedColor hierarchical-0:tertiary SFSymbolsPreviewFF3B30" d="M34.0332 21.3379L145.117 21.3379Q154.053 21.3379 158.594 16.7969Q163.135 12.2559 163.135 3.4668L163.135-73.9258Q163.135-82.7148 158.594-87.2559Q154.053-91.7969 145.117-91.7969L34.0332-91.7969Q25.1465-91.7969 20.6055-87.2803Q16.0645-82.7637 16.0645-73.9258L16.0645 3.4668Q16.0645 12.3047 20.6055 16.8213Q25.1465 21.3379 34.0332 21.3379Z"/>
   <path class="multicolor-1:white hierarchical-1:primary SFSymbolsPreviewFFFFFF" d="M74.2188-63.7695Q79.3457-63.7695 83.3252-61.0107Q87.3047-58.252 89.5996-54.1504Q91.8457-58.252 95.874-61.0107Q99.9023-63.7695 104.932-63.7695Q110.303-63.7695 114.478-61.2793Q118.652-58.7891 121.045-54.4678Q123.438-50.1465 123.438-44.6777Q123.438-39.3555 121.338-34.375Q119.238-29.3945 115.771-24.8779Q112.305-20.3613 108.154-16.4307Q104.004-12.5 99.8291-9.27734Q95.6543-6.05469 92.1875-3.61328Q91.5527-3.17383 90.8691-2.80762Q90.1855-2.44141 89.6484-2.44141Q89.1602-2.44141 88.4277-2.83203Q87.6953-3.22266 87.0117-3.61328Q83.4473-5.9082 79.2236-9.08203Q75-12.2559 70.874-16.1865Q66.748-20.1172 63.3301-24.707Q59.9121-29.2969 57.8369-34.3262Q55.7617-39.3555 55.7617-44.6777Q55.7617-50.1465 58.1543-54.4678Q60.5469-58.7891 64.7217-61.2793Q68.8965-63.7695 74.2188-63.7695Z"/>
  </g>
  <g id="Thin-L" transform="matrix(1 0 0 1 767.409 1556)">
   <path class="multicolor-0:systemRedColor hierarchical-0:tertiary SFSymbolsPreviewFF3B30" d="M32.666 20.2148L145.312 20.2148Q153.516 20.2148 157.739 15.918Q161.963 11.6211 161.963 3.61328L161.963-74.1211Q161.963-82.1777 157.739-86.4502Q153.516-90.7227 145.312-90.7227L32.666-90.7227Q24.5117-90.7227 20.2881-86.499Q16.0645-82.2754 16.0645-74.1211L16.0645 3.61328Q16.0645 11.7676 20.2881 15.9912Q24.5117 20.2148 32.666 20.2148Z"/>
   <path class="multicolor-1:white hierarchical-1:primary SFSymbolsPreviewFFFFFF" d="M73.8281-63.7207Q78.8574-63.7207 82.8613-60.9131Q86.8652-58.1055 89.0137-54.2969Q91.2109-58.1055 95.2148-60.9131Q99.2188-63.7207 104.199-63.7207Q109.424-63.7207 113.525-61.2793Q117.627-58.8379 119.971-54.6631Q122.314-50.4883 122.314-45.166Q122.314-39.6973 120.117-34.6436Q117.92-29.5898 114.307-25.0488Q110.693-20.5078 106.519-16.626Q102.344-12.7441 98.2666-9.64355Q94.1895-6.54297 91.1133-4.24805Q90.5762-3.85742 90.0146-3.61328Q89.4531-3.36914 89.0625-3.36914Q88.623-3.36914 88.0615-3.6377Q87.5-3.90625 86.9629-4.24805Q83.6914-6.29883 79.5898-9.32617Q75.4883-12.3535 71.3135-16.2842Q67.1387-20.2148 63.5986-24.8291Q60.0586-29.4434 57.9102-34.5703Q55.7617-39.6973 55.7617-45.166Q55.7617-50.4883 58.1055-54.6631Q60.4492-58.8379 64.5508-61.2793Q68.6523-63.7207 73.8281-63.7207Z"/>
  </g>
  <g id="Ultralight-L" transform="matrix(1 0 0 1 471.015 1556)">
   <path class="multicolor-0:systemRedColor hierarchical-0:tertiary SFSymbolsPreviewFF3B30" d="M31.9824 19.6289L145.41 19.6289Q153.223 19.6289 157.275 15.4785Q161.328 11.3281 161.328 3.71094L161.328-74.2188Q161.328-81.8848 157.275-86.0352Q153.223-90.1855 145.41-90.1855L31.9824-90.1855Q24.1699-90.1855 20.1172-86.1084Q16.0645-82.0312 16.0645-74.2188L16.0645 3.71094Q16.0645 11.4746 20.1172 15.5518Q24.1699 19.6289 31.9824 19.6289Z"/>
   <path class="multicolor-1:white hierarchical-1:primary SFSymbolsPreviewFFFFFF" d="M73.584-63.6719Q78.6133-63.6719 82.6172-60.8643Q86.6211-58.0566 88.6719-54.3945Q90.7715-58.0566 94.7998-60.8643Q98.8281-63.6719 103.76-63.6719Q108.936-63.6719 112.988-61.2549Q117.041-58.8379 119.36-54.7363Q121.68-50.6348 121.68-45.459Q121.68-39.8438 119.434-34.7656Q117.188-29.6875 113.525-25.1465Q109.863-20.6055 105.64-16.748Q101.416-12.8906 97.4121-9.83887Q93.4082-6.78711 90.5273-4.54102Q90.0391-4.19922 89.5508-4.00391Q89.0625-3.80859 88.6719-3.80859Q88.3301-3.80859 87.8418-4.05273Q87.3535-4.29688 86.8652-4.54102Q83.7891-6.49414 79.7363-9.47266Q75.6836-12.4512 71.4844-16.333Q67.2852-20.2148 63.6963-24.8535Q60.1074-29.4922 57.9102-34.668Q55.7129-39.8438 55.7129-45.459Q55.7129-50.6348 58.0322-54.7363Q60.3516-58.8379 64.4043-61.2549Q68.457-63.6719 73.584-63.6719Z"/>
  </g>
  <g id="Black-M" transform="matrix(1 0 0 1 2861.96 1126)">
   <path class="multicolor-0:systemRedColor hierarchical-0:tertiary SFSymbolsPreviewFF3B30" d="M31.5918 13.2324L111.279 13.2324Q120.312 13.2324 125.366 8.17871Q130.42 3.125 130.42-5.9082L130.42-64.4531Q130.42-73.5352 125.366-78.5645Q120.312-83.5938 111.279-83.5938L31.5918-83.5938Q22.5586-83.5938 17.5049-78.5645Q12.4512-73.5352 12.4512-64.4531L12.4512-5.9082Q12.4512 3.125 17.5049 8.17871Q22.5586 13.2324 31.5918 13.2324Z"/>
   <path class="multicolor-1:white hierarchical-1:primary SFSymbolsPreviewFFFFFF" d="M59.8145-56.4941Q64.1602-56.4941 67.0654-54.3945Q69.9707-52.2949 71.4355-49.8535Q72.8516-52.2949 75.7568-54.3945Q78.6621-56.4941 83.0078-56.4941Q86.8164-56.4941 89.9902-54.5898Q93.1641-52.6855 95.0684-49.2676Q96.9727-45.8496 96.9727-41.2109Q96.9727-36.2305 94.9951-31.9336Q93.0176-27.6367 89.9658-24.1211Q86.9141-20.6055 83.7402-18.0176Q80.5664-15.4297 78.0762-13.8428Q75.5859-12.2559 74.7559-11.8652Q73.9746-11.5234 73.0957-11.084Q72.2168-10.6445 71.4355-10.6445Q70.6543-10.6445 69.7266-11.084Q68.7988-11.5234 68.1152-11.8652Q67.2852-12.3047 64.7949-13.8916Q62.3047-15.4785 59.1064-18.0664Q55.9082-20.6543 52.8809-24.1455Q49.8535-27.6367 47.8516-31.9336Q45.8496-36.2305 45.8496-41.2109Q45.8496-45.8496 47.7539-49.2676Q49.6582-52.6855 52.832-54.5898Q56.0059-56.4941 59.8145-56.4941Z"/>
  </g>
  <g id="Heavy-M" transform="matrix(1 0 0 1 2565.6 1126)">
   <path class="multicolor-0:systemRedColor hierarchical-0:tertiary SFSymbolsPreviewFF3B30" d="M30.7129 12.4023L111.523 12.4023Q120.215 12.4023 124.976 7.6416Q129.736 2.88086 129.736-5.76172L129.736-64.5996Q129.736-73.291 124.976-78.0273Q120.215-82.7637 111.523-82.7637L30.7129-82.7637Q21.9727-82.7637 17.2119-78.0518Q12.4512-73.3398 12.4512-64.5996L12.4512-5.76172Q12.4512 2.88086 17.2119 7.6416Q21.9727 12.4023 30.7129 12.4023Z"/>
   <path class="multicolor-1:white hierarchical-1:primary SFSymbolsPreviewFFFFFF" d="M59.375-56.6895Q63.623-56.6895 66.5771-54.5898Q69.5312-52.4902 71.0938-49.8535Q72.6074-52.4902 75.5615-54.5898Q78.5156-56.6895 82.7637-56.6895Q86.7188-56.6895 89.917-54.7852Q93.1152-52.8809 95.0195-49.4385Q96.9238-45.9961 96.9238-41.4062Q96.9238-36.6699 95.0684-32.4951Q93.2129-28.3203 90.2588-24.8047Q87.3047-21.2891 84.1309-18.5791Q80.957-15.8691 78.2715-14.0381Q75.5859-12.207 74.2188-11.4746Q73.4863-11.084 72.6562-10.6689Q71.8262-10.2539 71.1426-10.2539Q70.4102-10.2539 69.5312-10.6689Q68.6523-11.084 67.9688-11.4746Q66.6016-12.2559 63.916-14.0869Q61.2305-15.918 58.0322-18.6279Q54.834-21.3379 51.9043-24.8291Q48.9746-28.3203 47.0947-32.4951Q45.2148-36.6699 45.2148-41.4062Q45.2148-45.9961 47.1191-49.4385Q49.0234-52.8809 52.2217-54.7852Q55.4199-56.6895 59.375-56.6895Z"/>
  </g>
  <g id="Bold-M" transform="matrix(1 0 0 1 2269.25 1126)">
   <path class="multicolor-0:systemRedColor hierarchical-0:tertiary SFSymbolsPreviewFF3B30" d="M29.6875 11.4746L111.768 11.4746Q120.166 11.4746 124.585 7.05566Q129.004 2.63672 129.004-5.66406L129.004-64.7461Q129.004-73.0469 124.585-77.4658Q120.166-81.8848 111.768-81.8848L29.6875-81.8848Q21.3379-81.8848 16.8945-77.4902Q12.4512-73.0957 12.4512-64.7461L12.4512-5.66406Q12.4512 2.63672 16.8945 7.05566Q21.3379 11.4746 29.6875 11.4746Z"/>
   <path class="multicolor-1:white hierarchical-1:primary SFSymbolsPreviewFFFFFF" d="M58.8867-56.9824Q63.0859-56.9824 66.0889-54.8828Q69.0918-52.7832 70.752-49.8047Q72.4121-52.7832 75.415-54.8828Q78.418-56.9824 82.5684-56.9824Q86.6211-56.9824 89.8682-55.0293Q93.1152-53.0762 95.0195-49.6338Q96.9238-46.1914 96.9238-41.6504Q96.9238-37.1582 95.166-33.1299Q93.4082-29.1016 90.6006-25.5859Q87.793-22.0703 84.6191-19.2383Q81.4453-16.4062 78.54-14.3066Q75.6348-12.207 73.6816-10.9863Q72.998-10.6445 72.2168-10.2295Q71.4355-9.81445 70.8008-9.81445Q70.166-9.81445 69.3359-10.2295Q68.5059-10.6445 67.8223-10.9863Q65.8691-12.207 62.9395-14.3066Q60.0098-16.4062 56.8359-19.2383Q53.6621-22.0703 50.8545-25.5859Q48.0469-29.1016 46.3135-33.1299Q44.5801-37.1582 44.5801-41.6504Q44.5801-46.1914 46.46-49.6338Q48.3398-53.0762 51.5869-55.0293Q54.834-56.9824 58.8867-56.9824Z"/>
  </g>
  <g id="Semibold-M" transform="matrix(1 0 0 1 1972.81 1126)">
   <path class="multicolor-0:systemRedColor hierarchical-0:tertiary SFSymbolsPreviewFF3B30" d="M29.0039 10.8398L111.963 10.8398Q120.068 10.8398 124.268 6.64062Q128.467 2.44141 128.467-5.51758L128.467-64.8438Q128.467-72.8516 124.268-77.0508Q120.068-81.25 111.963-81.25L29.0039-81.25Q20.8984-81.25 16.6748-77.0752Q12.4512-72.9004 12.4512-64.8438L12.4512-5.51758Q12.4512 2.44141 16.6748 6.64062Q20.8984 10.8398 29.0039 10.8398Z"/>
   <path class="multicolor-1:white hierarchical-1:primary SFSymbolsPreviewFFFFFF" d="M58.5449-57.1777Q62.6953-57.1777 65.7227-55.0781Q68.75-52.9785 70.5078-49.8535Q72.2168-52.9785 75.2441-55.0781Q78.2715-57.1777 82.4219-57.1777Q86.5234-57.1777 89.7949-55.2246Q93.0664-53.2715 94.9707-49.8291Q96.875-46.3867 96.875-41.8457Q96.875-37.5488 95.2148-33.6182Q93.5547-29.6875 90.8203-26.1719Q88.0859-22.6562 84.9121-19.7266Q81.7383-16.7969 78.6865-14.502Q75.6348-12.207 73.2422-10.6934Q72.6074-10.3516 71.875-9.93652Q71.1426-9.52148 70.5566-9.52148Q69.9707-9.52148 69.1895-9.93652Q68.4082-10.3516 67.7246-10.6934Q65.332-12.207 62.2559-14.4775Q59.1797-16.748 55.9814-19.7021Q52.7832-22.6562 50.0732-26.1475Q47.3633-29.6387 45.7275-33.5938Q44.0918-37.5488 44.0918-41.8457Q44.0918-46.3867 45.9717-49.8291Q47.8516-53.2715 51.123-55.2246Q54.3945-57.1777 58.5449-57.1777Z"/>
  </g>
  <g id="Medium-M" transform="matrix(1 0 0 1 1676.29 1126)">
   <path class="multicolor-0:systemRedColor hierarchical-0:tertiary SFSymbolsPreviewFF3B30" d="M28.4668 10.3516L112.061 10.3516Q120.02 10.3516 124.048 6.34766Q128.076 2.34375 128.076-5.46875L128.076-64.9414Q128.076-72.7539 124.048-76.7822Q120.02-80.8105 112.061-80.8105L28.4668-80.8105Q20.5566-80.8105 16.5039-76.7822Q12.4512-72.7539 12.4512-64.9414L12.4512-5.46875Q12.4512 2.34375 16.5039 6.34766Q20.5566 10.3516 28.4668 10.3516Z"/>
   <path class="multicolor-1:white hierarchical-1:primary SFSymbolsPreviewFFFFFF" d="M58.3008-57.3242Q62.4023-57.3242 65.4541-55.2246Q68.5059-53.125 70.3125-49.8047Q72.1191-53.125 75.1709-55.2246Q78.2227-57.3242 82.3242-57.3242Q86.5234-57.3242 89.8193-55.3467Q93.1152-53.3691 94.9951-49.9023Q96.875-46.4355 96.875-41.9434Q96.875-37.793 95.2637-33.9355Q93.6523-30.0781 91.0156-26.5625Q88.3789-23.0469 85.2051-20.0439Q82.0312-17.041 78.833-14.624Q75.6348-12.207 72.9492-10.4492Q72.3633-10.1074 71.6553-9.69238Q70.9473-9.27734 70.4102-9.27734Q69.873-9.27734 69.0918-9.69238Q68.3105-10.1074 67.627-10.4492Q64.9902-12.207 61.7676-14.5996Q58.5449-16.9922 55.3711-20.0195Q52.1973-23.0469 49.5605-26.5381Q46.9238-30.0293 45.3369-33.9111Q43.75-37.793 43.75-41.9434Q43.75-46.4355 45.6299-49.9023Q47.5098-53.3691 50.8057-55.3467Q54.1016-57.3242 58.3008-57.3242Z"/>
  </g>
  <g id="Regular-M" transform="matrix(1 0 0 1 1379.82 1126)">
   <path class="multicolor-0:systemRedColor hierarchical-0:tertiary SFSymbolsPreviewFF3B30" d="M27.7832 9.7168L112.256 9.7168Q119.971 9.7168 123.779 5.93262Q127.588 2.14844 127.588-5.37109L127.588-65.0391Q127.588-72.5586 123.779-76.3672Q119.971-80.1758 112.256-80.1758L27.7832-80.1758Q20.1172-80.1758 16.2842-76.3916Q12.4512-72.6074 12.4512-65.0391L12.4512-5.37109Q12.4512 2.14844 16.2842 5.93262Q20.1172 9.7168 27.7832 9.7168Z"/>
   <path class="multicolor-1:white hierarchical-1:primary SFSymbolsPreviewFFFFFF" d="M57.959-57.4707Q62.0117-57.4707 65.0879-55.3711Q68.1641-53.2715 70.0684-49.8047Q71.9238-53.2715 75.0244-55.3711Q78.125-57.4707 82.1289-57.4707Q86.4258-57.4707 89.7461-55.4932Q93.0664-53.5156 94.9463-50.0488Q96.8262-46.582 96.8262-42.0898Q96.8262-38.1348 95.3125-34.375Q93.7988-30.6152 91.2354-27.0996Q88.6719-23.584 85.498-20.4834Q82.3242-17.3828 78.9795-14.7705Q75.6348-12.1582 72.5586-10.1562Q71.9727-9.76562 71.3135-9.375Q70.6543-8.98438 70.166-8.98438Q69.6777-8.98438 68.9453-9.375Q68.2129-9.76562 67.5293-10.1562Q64.4531-12.1582 61.084-14.7461Q57.7148-17.334 54.541-20.4346Q51.3672-23.5352 48.8037-27.0508Q46.2402-30.5664 44.751-34.3506Q43.2617-38.1348 43.2617-42.0898Q43.2617-46.582 45.1416-50.0488Q47.0215-53.5156 50.3418-55.4932Q53.6621-57.4707 57.959-57.4707Z"/>
  </g>
  <g id="Light-M" transform="matrix(1 0 0 1 1083.5 1126)">
   <path class="multicolor-0:systemRedColor hierarchical-0:tertiary SFSymbolsPreviewFF3B30" d="M26.8555 8.98438L112.402 8.98438Q119.58 8.98438 123.193 5.37109Q126.807 1.75781 126.807-5.27344L126.807-65.1855Q126.807-72.2168 123.193-75.8301Q119.58-79.4434 112.402-79.4434L26.8555-79.4434Q19.6777-79.4434 16.0645-75.8545Q12.4512-72.2656 12.4512-65.1855L12.4512-5.27344Q12.4512 1.80664 16.0645 5.39551Q19.6777 8.98438 26.8555 8.98438Z"/>
   <path class="multicolor-1:white hierarchical-1:primary SFSymbolsPreviewFFFFFF" d="M57.7148-57.4219Q61.7188-57.4219 64.7949-55.2979Q67.8711-53.1738 69.6777-49.9023Q71.4844-53.1738 74.585-55.2979Q77.6855-57.4219 81.6406-57.4219Q85.8398-57.4219 89.0869-55.4688Q92.334-53.5156 94.2139-50.1465Q96.0938-46.7773 96.0938-42.4316Q96.0938-38.3301 94.4824-34.5215Q92.8711-30.7129 90.2344-27.1973Q87.5977-23.6816 84.3994-20.6055Q81.2012-17.5293 77.9297-15.0146Q74.6582-12.5 71.8262-10.5469Q71.3379-10.2051 70.752-9.8877Q70.166-9.57031 69.7266-9.57031Q69.3359-9.57031 68.7012-9.8877Q68.0664-10.2051 67.4805-10.5469Q64.6484-12.4023 61.3525-14.917Q58.0566-17.4316 54.8584-20.4834Q51.6602-23.5352 49.0234-27.0752Q46.3867-30.6152 44.8242-34.4727Q43.2617-38.3301 43.2617-42.4316Q43.2617-46.7773 45.1172-50.1465Q46.9727-53.5156 50.2441-55.4688Q53.5156-57.4219 57.7148-57.4219Z"/>
  </g>
  <g id="Thin-M" transform="matrix(1 0 0 1 787.306 1126)">
   <path class="multicolor-0:systemRedColor hierarchical-0:tertiary SFSymbolsPreviewFF3B30" d="M25.5859 7.95898L112.549 7.95898Q119.092 7.95898 122.437 4.58984Q125.781 1.2207 125.781-5.17578L125.781-65.332Q125.781-71.7285 122.437-75.0977Q119.092-78.4668 112.549-78.4668L25.5859-78.4668Q19.1406-78.4668 15.7959-75.1221Q12.4512-71.7773 12.4512-65.332L12.4512-5.17578Q12.4512 1.31836 15.7959 4.63867Q19.1406 7.95898 25.5859 7.95898Z"/>
   <path class="multicolor-1:white hierarchical-1:primary SFSymbolsPreviewFFFFFF" d="M57.3242-57.2754Q61.2793-57.2754 64.3555-55.1514Q67.4316-53.0273 69.1406-49.9512Q70.8008-53.0273 73.9258-55.1514Q77.0508-57.2754 80.9082-57.2754Q85.0098-57.2754 88.1836-55.4199Q91.3574-53.5645 93.1885-50.2686Q95.0195-46.9727 95.0195-42.8711Q95.0195-38.623 93.335-34.7168Q91.6504-30.8105 88.916-27.2949Q86.1816-23.7793 82.9102-20.7764Q79.6387-17.7734 76.4648-15.332Q73.291-12.8906 70.8008-11.084Q70.4102-10.791 69.9463-10.5713Q69.4824-10.3516 69.1406-10.3516Q68.7988-10.3516 68.335-10.5713Q67.8711-10.791 67.4316-11.084Q64.8438-12.6953 61.6211-15.0879Q58.3984-17.4805 55.1758-20.5322Q51.9531-23.584 49.2188-27.1484Q46.4844-30.7129 44.8486-34.668Q43.2129-38.623 43.2129-42.8711Q43.2129-46.9727 45.0439-50.2686Q46.875-53.5645 50.0732-55.4199Q53.2715-57.2754 57.3242-57.2754Z"/>
  </g>
  <g id="Ultralight-M" transform="matrix(1 0 0 1 490.863 1126)">
   <path class="multicolor-0:systemRedColor hierarchical-0:tertiary SFSymbolsPreviewFF3B30" d="M24.9512 7.4707L112.646 7.4707Q118.848 7.4707 122.046 4.22363Q125.244 0.976562 125.244-5.07812L125.244-65.4297Q125.244-71.4844 122.046-74.7314Q118.848-77.9785 112.646-77.9785L24.9512-77.9785Q18.8477-77.9785 15.6494-74.7803Q12.4512-71.582 12.4512-65.4297L12.4512-5.07812Q12.4512 1.07422 15.6494 4.27246Q18.8477 7.4707 24.9512 7.4707Z"/>
   <path class="multicolor-1:white hierarchical-1:primary SFSymbolsPreviewFFFFFF" d="M57.1289-57.2754Q61.0352-57.2754 64.1357-55.127Q67.2363-52.9785 68.8965-50.0488Q70.5078-52.9785 73.6328-55.127Q76.7578-57.2754 80.5664-57.2754Q84.6191-57.2754 87.7441-55.4199Q90.8691-53.5645 92.7002-50.3418Q94.5312-47.1191 94.5312-43.1152Q94.5312-38.7695 92.7734-34.8389Q91.0156-30.9082 88.2324-27.3926Q85.4492-23.877 82.1533-20.874Q78.8574-17.8711 75.7568-15.5029Q72.6562-13.1348 70.3125-11.3281Q69.9707-11.084 69.5557-10.9131Q69.1406-10.7422 68.8477-10.7422Q68.6035-10.7422 68.1885-10.9375Q67.7734-11.1328 67.3828-11.3281Q64.9414-12.8906 61.792-15.2344Q58.6426-17.5781 55.3955-20.5811Q52.1484-23.584 49.3652-27.1729Q46.582-30.7617 44.8975-34.7656Q43.2129-38.7695 43.2129-43.1152Q43.2129-47.1191 45.0195-50.3418Q46.8262-53.5645 50-55.4199Q53.1738-57.2754 57.1289-57.2754Z"/>
  </g>
  <g id="Black-S" transform="matrix(1 0 0 1 2877.35 696)">
   <path class="multicolor-0:systemRedColor hierarchical-0:tertiary SFSymbolsPreviewFF3B30" d="M25 2.92969L87.1094 2.92969Q94.2871 2.92969 98.3154-1.09863Q102.344-5.12695 102.344-12.3047L102.344-58.1055Q102.344-65.2832 98.3154-69.3115Q94.2871-73.3398 87.1094-73.3398L25-73.3398Q17.8223-73.3398 13.7939-69.3115Q9.76562-65.2832 9.76562-58.1055L9.76562-12.3047Q9.76562-5.12695 13.7939-1.09863Q17.8223 2.92969 25 2.92969Z"/>
   <path class="multicolor-1:white hierarchical-1:primary SFSymbolsPreviewFFFFFF" d="M47.0215-51.8066Q50.4395-51.8066 52.71-50.1709Q54.9805-48.5352 56.0547-46.6797Q57.1777-48.5352 59.4238-50.1709Q61.6699-51.8066 65.0879-51.8066Q69.5312-51.8066 72.7539-48.5596Q75.9766-45.3125 75.9766-39.8438Q75.9766-35.8887 74.3652-32.4707Q72.7539-29.0527 70.3369-26.3184Q67.9199-23.584 65.4297-21.582Q62.9395-19.5801 61.0596-18.4082Q59.1797-17.2363 58.6914-17.041Q58.1055-16.7969 57.3975-16.4551Q56.6895-16.1133 56.0547-16.1133Q55.4199-16.1133 54.6875-16.4551Q53.9551-16.7969 53.418-17.041Q52.9785-17.2852 51.0986-18.457Q49.2188-19.6289 46.7041-21.6064Q44.1895-23.584 41.7725-26.3428Q39.3555-29.1016 37.7441-32.4951Q36.1328-35.8887 36.1328-39.8438Q36.1328-45.3125 39.3555-48.5596Q42.5781-51.8066 47.0215-51.8066Z"/>
  </g>
  <g id="Heavy-S" transform="matrix(1 0 0 1 2580.88 696)">
   <path class="multicolor-0:systemRedColor hierarchical-0:tertiary SFSymbolsPreviewFF3B30" d="M24.3652 2.34375L87.3047 2.34375Q94.2871 2.34375 98.0713-1.46484Q101.855-5.27344 101.855-12.207L101.855-58.2031Q101.855-65.1367 98.0713-68.9453Q94.2871-72.7539 87.3047-72.7539L24.3652-72.7539Q17.3828-72.7539 13.5742-68.9453Q9.76562-65.1367 9.76562-58.2031L9.76562-12.207Q9.76562-5.27344 13.5742-1.46484Q17.3828 2.34375 24.3652 2.34375Z"/>
   <path class="multicolor-1:white hierarchical-1:primary SFSymbolsPreviewFFFFFF" d="M46.6797-52.002Q50.0488-52.002 52.3438-50.3662Q54.6387-48.7305 55.8105-46.6797Q57.0312-48.7305 59.3262-50.3662Q61.6211-52.002 64.9414-52.002Q69.5801-52.002 72.8027-48.7061Q76.0254-45.4102 76.0254-39.9902Q76.0254-36.2305 74.5361-32.9346Q73.0469-29.6387 70.7275-26.9043Q68.4082-24.1699 65.918-22.0703Q63.4277-19.9707 61.3525-18.5791Q59.2773-17.1875 58.3496-16.6504Q57.7637-16.4062 57.0801-16.0645Q56.3965-15.7227 55.8594-15.7227Q55.2734-15.7227 54.5654-16.0645Q53.8574-16.4062 53.2715-16.6504Q52.3438-17.2363 50.293-18.6035Q48.2422-19.9707 45.7275-22.0703Q43.2129-24.1699 40.918-26.9287Q38.623-29.6875 37.1094-32.959Q35.5957-36.2305 35.5957-39.9902Q35.5957-45.4102 38.8184-48.7061Q42.041-52.002 46.6797-52.002Z"/>
  </g>
  <g id="Bold-S" transform="matrix(1 0 0 1 2284.41 696)">
   <path class="multicolor-0:systemRedColor hierarchical-0:tertiary SFSymbolsPreviewFF3B30" d="M23.6328 1.66016L87.5 1.66016Q94.2383 1.66016 97.8027-1.9043Q101.367-5.46875 101.367-12.1094L101.367-58.3008Q101.367-64.9902 97.8027-68.5303Q94.2383-72.0703 87.5-72.0703L23.6328-72.0703Q16.9434-72.0703 13.3545-68.5303Q9.76562-64.9902 9.76562-58.3008L9.76562-12.1094Q9.76562-5.46875 13.3545-1.9043Q16.9434 1.66016 23.6328 1.66016Z"/>
   <path class="multicolor-1:white hierarchical-1:primary SFSymbolsPreviewFFFFFF" d="M46.2891-52.2461Q49.6094-52.2461 51.9531-50.6104Q54.2969-48.9746 55.5664-46.6309Q56.8848-48.9746 59.2285-50.6104Q61.5723-52.2461 64.8438-52.2461Q69.6289-52.2461 72.876-48.9014Q76.123-45.5566 76.123-40.1367Q76.123-36.6699 74.7314-33.4961Q73.3398-30.3223 71.167-27.5879Q68.9941-24.8535 66.5039-22.6074Q64.0137-20.3613 61.7432-18.75Q59.4727-17.1387 57.959-16.2109Q57.4219-15.918 56.7871-15.5762Q56.1523-15.2344 55.6152-15.2344Q55.127-15.2344 54.4434-15.5762Q53.7598-15.918 53.1738-16.2109Q51.709-17.1387 49.4385-18.7744Q47.168-20.4102 44.6777-22.6074Q42.1875-24.8047 39.9902-27.5635Q37.793-30.3223 36.4014-33.4961Q35.0098-36.6699 35.0098-40.1367Q35.0098-45.5566 38.2568-48.9014Q41.5039-52.2461 46.2891-52.2461Z"/>
  </g>
  <g id="Semibold-S" transform="matrix(1 0 0 1 1987.9 696)">
   <path class="multicolor-0:systemRedColor hierarchical-0:tertiary SFSymbolsPreviewFF3B30" d="M23.0957 1.2207L87.6465 1.2207Q94.2383 1.2207 97.6074-2.17285Q100.977-5.56641 100.977-12.0605L100.977-58.3496Q100.977-64.8438 97.6074-68.2373Q94.2383-71.6309 87.6465-71.6309L23.0957-71.6309Q16.6016-71.6309 13.1836-68.2373Q9.76562-64.8438 9.76562-58.3496L9.76562-12.0605Q9.76562-5.56641 13.1836-2.17285Q16.6016 1.2207 23.0957 1.2207Z"/>
   <path class="multicolor-1:white hierarchical-1:primary SFSymbolsPreviewFFFFFF" d="M45.9961-52.3926Q49.3164-52.3926 51.6846-50.7568Q54.0527-49.1211 55.4199-46.6309Q56.7871-49.1211 59.1553-50.7568Q61.5234-52.3926 64.7949-52.3926Q69.6289-52.3926 72.9004-48.999Q76.1719-45.6055 76.1719-40.2344Q76.1719-36.9141 74.8779-33.8379Q73.584-30.7617 71.4844-28.0273Q69.3848-25.293 66.8945-22.9736Q64.4043-20.6543 61.9873-18.8721Q59.5703-17.0898 57.7148-15.918Q57.1777-15.5762 56.5674-15.2344Q55.957-14.8926 55.4688-14.8926Q55.0293-14.8926 54.3457-15.2344Q53.6621-15.5762 53.125-15.918Q51.2207-17.0898 48.8037-18.8721Q46.3867-20.6543 43.9209-22.9492Q41.4551-25.2441 39.3311-27.9785Q37.207-30.7129 35.9131-33.8135Q34.6191-36.9141 34.6191-40.2344Q34.6191-45.6055 37.8662-48.999Q41.1133-52.3926 45.9961-52.3926Z"/>
  </g>
  <g id="Medium-S" transform="matrix(1 0 0 1 1691.33 696)">
   <path class="multicolor-0:systemRedColor hierarchical-0:tertiary SFSymbolsPreviewFF3B30" d="M22.7051 0.830078L87.7441 0.830078Q94.1895 0.830078 97.4365-2.41699Q100.684-5.66406 100.684-11.9629L100.684-58.4473Q100.684-64.7461 97.4365-67.9932Q94.1895-71.2402 87.7441-71.2402L22.7051-71.2402Q16.3574-71.2402 13.0615-67.9932Q9.76562-64.7461 9.76562-58.4473L9.76562-11.9629Q9.76562-5.66406 13.0615-2.41699Q16.3574 0.830078 22.7051 0.830078Z"/>
   <path class="multicolor-1:white hierarchical-1:primary SFSymbolsPreviewFFFFFF" d="M45.752-52.5391Q49.0234-52.5391 51.416-50.8789Q53.8086-49.2188 55.2246-46.582Q56.6895-49.2188 59.082-50.8789Q61.4746-52.5391 64.6973-52.5391Q69.6289-52.5391 72.9248-49.0967Q76.2207-45.6543 76.2207-40.332Q76.2207-37.1094 74.9512-34.1064Q73.6816-31.1035 71.6553-28.3691Q69.6289-25.6348 67.1631-23.2422Q64.6973-20.8496 62.1582-18.9453Q59.6191-17.041 57.4707-15.6738Q56.9336-15.332 56.3477-14.9902Q55.7617-14.6484 55.3223-14.6484Q54.8828-14.6484 54.2236-14.9902Q53.5645-15.332 53.0273-15.6738Q50.8301-17.041 48.3154-18.9453Q45.8008-20.8496 43.335-23.2178Q40.8691-25.5859 38.7939-28.3203Q36.7188-31.0547 35.498-34.082Q34.2773-37.1094 34.2773-40.332Q34.2773-45.6543 37.5488-49.0967Q40.8203-52.5391 45.752-52.5391Z"/>
  </g>
  <g id="Regular-S" transform="matrix(1 0 0 1 1394.79 696)">
   <path class="multicolor-0:systemRedColor hierarchical-0:tertiary SFSymbolsPreviewFF3B30" d="M22.2168 0.390625L87.8906 0.390625Q94.1895 0.390625 97.2656-2.68555Q100.342-5.76172 100.342-11.9141L100.342-58.4961Q100.342-64.6484 97.2656-67.7246Q94.1895-70.8008 87.8906-70.8008L22.2168-70.8008Q16.0156-70.8008 12.8906-67.7246Q9.76562-64.6484 9.76562-58.4961L9.76562-11.9141Q9.76562-5.76172 12.8906-2.68555Q16.0156 0.390625 22.2168 0.390625Z"/>
   <path class="multicolor-1:white hierarchical-1:primary SFSymbolsPreviewFFFFFF" d="M45.5078-52.6855Q48.7305-52.6855 51.1475-51.0254Q53.5645-49.3652 55.0781-46.582Q56.5918-49.3652 59.0088-51.0254Q61.4258-52.6855 64.5996-52.6855Q69.6777-52.6855 72.9736-49.2188Q76.2695-45.752 76.2695-40.4297Q76.2695-37.4023 75.0977-34.4727Q73.9258-31.543 71.9727-28.8086Q70.0195-26.0742 67.5537-23.6084Q65.0879-21.1426 62.4023-19.0674Q59.7168-16.9922 57.2266-15.3809Q56.6895-15.0391 56.1279-14.6973Q55.5664-14.3555 55.1758-14.3555Q54.7852-14.3555 54.1504-14.6973Q53.5156-15.0391 52.9297-15.3809Q50.3906-16.9922 47.7295-19.0674Q45.0684-21.1426 42.6025-23.584Q40.1367-26.0254 38.1592-28.7598Q36.1816-31.4941 35.0342-34.4482Q33.8867-37.4023 33.8867-40.4297Q33.8867-45.752 37.1582-49.2188Q40.4297-52.6855 45.5078-52.6855Z"/>
  </g>
  <g id="Light-S" transform="matrix(1 0 0 1 1098.42 696)">
   <path class="multicolor-0:systemRedColor hierarchical-0:tertiary SFSymbolsPreviewFF3B30" d="M21.3867-0.292969L87.9883-0.292969Q93.8477-0.292969 96.7529-3.19824Q99.6582-6.10352 99.6582-11.8164L99.6582-58.5938Q99.6582-64.3066 96.7529-67.2363Q93.8477-70.166 87.9883-70.166L21.3867-70.166Q15.625-70.166 12.6953-67.2607Q9.76562-64.3555 9.76562-58.5938L9.76562-11.8164Q9.76562-6.10352 12.6953-3.19824Q15.625-0.292969 21.3867-0.292969Z"/>
   <path class="multicolor-1:white hierarchical-1:primary SFSymbolsPreviewFFFFFF" d="M45.3125-52.6367Q48.4375-52.6367 50.8545-50.9521Q53.2715-49.2676 54.7363-46.6797Q56.2012-49.2676 58.6182-50.9521Q61.0352-52.6367 64.1602-52.6367Q69.1406-52.6367 72.3633-49.2676Q75.5859-45.8984 75.5859-40.7227Q75.5859-37.5977 74.3652-34.6191Q73.1445-31.6406 71.0938-28.9062Q69.043-26.1719 66.5527-23.7305Q64.0625-21.2891 61.4502-19.2871Q58.8379-17.2852 56.5918-15.7227Q56.1035-15.4297 55.6152-15.1611Q55.127-14.8926 54.7852-14.8926Q54.4434-14.8926 53.9307-15.1611Q53.418-15.4297 52.8809-15.7227Q50.5371-17.2363 47.9492-19.2383Q45.3613-21.2402 42.8711-23.6572Q40.3809-26.0742 38.3301-28.833Q36.2793-31.5918 35.083-34.5947Q33.8867-37.5977 33.8867-40.7227Q33.8867-45.8984 37.1094-49.2676Q40.332-52.6367 45.3125-52.6367Z"/>
  </g>
  <g id="Thin-S" transform="matrix(1 0 0 1 802.174 696)">
   <path class="multicolor-0:systemRedColor hierarchical-0:tertiary SFSymbolsPreviewFF3B30" d="M20.3125-1.17188L88.1836-1.17188Q93.4082-1.17188 96.0693-3.88184Q98.7305-6.5918 98.7305-11.7188L98.7305-58.7891Q98.7305-63.916 96.0693-66.6016Q93.4082-69.2871 88.1836-69.2871L20.3125-69.2871Q15.0879-69.2871 12.4268-66.626Q9.76562-63.9648 9.76562-58.7891L9.76562-11.7188Q9.76562-6.49414 12.4268-3.83301Q15.0879-1.17188 20.3125-1.17188Z"/>
   <path class="multicolor-1:white hierarchical-1:primary SFSymbolsPreviewFFFFFF" d="M44.9707-52.5391Q48.0469-52.5391 50.4639-50.8545Q52.8809-49.1699 54.248-46.7285Q55.6152-49.1699 58.0322-50.8545Q60.4492-52.5391 63.4766-52.5391Q68.3105-52.5391 71.4844-49.292Q74.6582-46.0449 74.6582-41.1133Q74.6582-37.793 73.3398-34.7656Q72.0215-31.7383 69.8975-28.9795Q67.7734-26.2207 65.2344-23.8525Q62.6953-21.4844 60.1807-19.5557Q57.666-17.627 55.6641-16.1621Q55.3223-15.9668 54.9316-15.7715Q54.541-15.5762 54.248-15.5762Q54.0039-15.5762 53.5889-15.7715Q53.1738-15.9668 52.832-16.1621Q50.7324-17.5293 48.2178-19.4092Q45.7031-21.2891 43.1641-23.6816Q40.625-26.0742 38.5254-28.8574Q36.4258-31.6406 35.1318-34.7168Q33.8379-37.793 33.8379-41.1133Q33.8379-46.0449 36.9873-49.292Q40.1367-52.5391 44.9707-52.5391Z"/>
  </g>
  <g id="Ultralight-S" transform="matrix(1 0 0 1 505.707 696)">
   <path class="multicolor-0:systemRedColor hierarchical-0:tertiary SFSymbolsPreviewFF3B30" d="M19.7754-1.66016L88.2324-1.66016Q93.2129-1.66016 95.7275-4.22363Q98.2422-6.78711 98.2422-11.6211L98.2422-58.8379Q98.2422-63.6719 95.7275-66.2598Q93.2129-68.8477 88.2324-68.8477L19.7754-68.8477Q14.8438-68.8477 12.3047-66.3086Q9.76562-63.7695 9.76562-58.8379L9.76562-11.6211Q9.76562-6.73828 12.3047-4.19922Q14.8438-1.66016 19.7754-1.66016Z"/>
   <path class="multicolor-1:white hierarchical-1:primary SFSymbolsPreviewFFFFFF" d="M44.8242-52.4902Q47.8516-52.4902 50.2686-50.8057Q52.6855-49.1211 54.0527-46.8262Q55.3223-49.1211 57.7637-50.8057Q60.2051-52.4902 63.1836-52.4902Q67.9688-52.4902 71.0693-49.3164Q74.1699-46.1426 74.1699-41.3086Q74.1699-37.9395 72.8271-34.8877Q71.4844-31.8359 69.2871-29.0771Q67.0898-26.3184 64.5508-23.9746Q62.0117-21.6309 59.5459-19.7266Q57.0801-17.8223 55.2246-16.4551Q54.9316-16.2109 54.5898-16.0889Q54.248-15.9668 54.0039-15.9668Q53.7598-15.9668 53.4424-16.1133Q53.125-16.2598 52.7832-16.4551Q50.8301-17.6758 48.3643-19.5312Q45.8984-21.3867 43.335-23.7549Q40.7715-26.123 38.623-28.9307Q36.4746-31.7383 35.1562-34.8389Q33.8379-37.9395 33.8379-41.3086Q33.8379-46.1426 36.9385-49.3164Q40.0391-52.4902 44.8242-52.4902Z"/>
  </g>
 </g>
</svg>
