<?xml version="1.0" encoding="UTF-8"?>
<!--Generator: Apple Native CoreSVG 175-->
<!DOCTYPE svg
PUBLIC "-//W3C//DTD SVG 1.1//EN"
       "http://www.w3.org/Graphics/SVG/1.1/DTD/svg11.dtd">
<svg version="1.1" xmlns="http://www.w3.org/2000/svg" xmlns:xlink="http://www.w3.org/1999/xlink" width="3300" height="2200">
 <!--glyph: "uni100419.medium", point size: 100.0, font version: "17.0d11e1", template writer version: "65.1"-->
 <g id="Notes">
  <rect height="2200" id="artboard" style="fill:white;opacity:1" width="3300" x="0" y="0"/>
  <line style="fill:none;stroke:black;opacity:1;stroke-width:0.5;" x1="263" x2="3036" y1="292" y2="292"/>
  <text style="stroke:none;fill:black;font-family:sans-serif;font-size:13;font-weight:bold;" transform="matrix(1 0 0 1 263 322)">Weight/Scale Variations</text>
  <text style="stroke:none;fill:black;font-family:sans-serif;font-size:13;text-anchor:middle;" transform="matrix(1 0 0 1 559.711 322)">Ultralight</text>
  <text style="stroke:none;fill:black;font-family:sans-serif;font-size:13;text-anchor:middle;" transform="matrix(1 0 0 1 856.422 322)">Thin</text>
  <text style="stroke:none;fill:black;font-family:sans-serif;font-size:13;text-anchor:middle;" transform="matrix(1 0 0 1 1153.13 322)">Light</text>
  <text style="stroke:none;fill:black;font-family:sans-serif;font-size:13;text-anchor:middle;" transform="matrix(1 0 0 1 1449.84 322)">Regular</text>
  <text style="stroke:none;fill:black;font-family:sans-serif;font-size:13;text-anchor:middle;" transform="matrix(1 0 0 1 1746.56 322)">Medium</text>
  <text style="stroke:none;fill:black;font-family:sans-serif;font-size:13;text-anchor:middle;" transform="matrix(1 0 0 1 2043.27 322)">Semibold</text>
  <text style="stroke:none;fill:black;font-family:sans-serif;font-size:13;text-anchor:middle;" transform="matrix(1 0 0 1 2339.98 322)">Bold</text>
  <text style="stroke:none;fill:black;font-family:sans-serif;font-size:13;text-anchor:middle;" transform="matrix(1 0 0 1 2636.69 322)">Heavy</text>
  <text style="stroke:none;fill:black;font-family:sans-serif;font-size:13;text-anchor:middle;" transform="matrix(1 0 0 1 2933.4 322)">Black</text>
  <line style="fill:none;stroke:black;opacity:1;stroke-width:0.5;" x1="263" x2="3036" y1="1903" y2="1903"/>
  <g transform="matrix(1 0 0 1 263 1933)">
   <path d="M9.24805 0.830078Q10.8691 0.830078 12.2949 0.214844Q13.7207-0.400391 14.8096-1.49414Q15.8984-2.58789 16.5186-4.01367Q17.1387-5.43945 17.1387-7.05078Q17.1387-8.66211 16.5186-10.0879Q15.8984-11.5137 14.8047-12.6074Q13.7109-13.7012 12.2852-14.3164Q10.8594-14.9316 9.23828-14.9316Q7.62695-14.9316 6.20117-14.3164Q4.77539-13.7012 3.69141-12.6074Q2.60742-11.5137 1.9873-10.0879Q1.36719-8.66211 1.36719-7.05078Q1.36719-5.43945 1.9873-4.01367Q2.60742-2.58789 3.69629-1.49414Q4.78516-0.400391 6.21094 0.214844Q7.63672 0.830078 9.24805 0.830078ZM9.24805-0.654297Q7.91992-0.654297 6.7627-1.14746Q5.60547-1.64062 4.73145-2.51953Q3.85742-3.39844 3.36426-4.56055Q2.87109-5.72266 2.87109-7.05078Q2.87109-8.37891 3.35938-9.54102Q3.84766-10.7031 4.72168-11.582Q5.5957-12.4609 6.75293-12.9541Q7.91016-13.4473 9.23828-13.4473Q10.5762-13.4473 11.7334-12.9541Q12.8906-12.4609 13.7695-11.582Q14.6484-10.7031 15.1465-9.54102Q15.6445-8.37891 15.6445-7.05078Q15.6445-5.72266 15.1514-4.56055Q14.6582-3.39844 13.7842-2.51953Q12.9102-1.64062 11.748-1.14746Q10.5859-0.654297 9.24805-0.654297ZM5.6543-7.05078Q5.6543-6.72852 5.85938-6.52832Q6.06445-6.32812 6.40625-6.32812L8.51562-6.32812L8.51562-4.20898Q8.51562-3.88672 8.71094-3.67676Q8.90625-3.4668 9.23828-3.4668Q9.56055-3.4668 9.77051-3.67676Q9.98047-3.88672 9.98047-4.20898L9.98047-6.32812L12.0898-6.32812Q12.4219-6.32812 12.627-6.52832Q12.832-6.72852 12.832-7.05078Q12.832-7.38281 12.627-7.58789Q12.4219-7.79297 12.0898-7.79297L9.98047-7.79297L9.98047-9.90234Q9.98047-10.2344 9.77051-10.4443Q9.56055-10.6543 9.23828-10.6543Q8.90625-10.6543 8.71094-10.4443Q8.51562-10.2344 8.51562-9.90234L8.51562-7.79297L6.40625-7.79297Q6.06445-7.79297 5.85938-7.58789Q5.6543-7.38281 5.6543-7.05078Z"/>
  </g>
  <g transform="matrix(1 0 0 1 281.867 1933)">
   <path d="M11.709 2.91016Q13.75 2.91016 15.5518 2.12891Q17.3535 1.34766 18.7305-0.0292969Q20.1074-1.40625 20.8887-3.20801Q21.6699-5.00977 21.6699-7.05078Q21.6699-9.0918 20.8887-10.8936Q20.1074-12.6953 18.7305-14.0723Q17.3535-15.4492 15.5469-16.2305Q13.7402-17.0117 11.6992-17.0117Q9.6582-17.0117 7.85645-16.2305Q6.05469-15.4492 4.68262-14.0723Q3.31055-12.6953 2.5293-10.8936Q1.74805-9.0918 1.74805-7.05078Q1.74805-5.00977 2.5293-3.20801Q3.31055-1.40625 4.6875-0.0292969Q6.06445 1.34766 7.86621 2.12891Q9.66797 2.91016 11.709 2.91016ZM11.709 1.25Q9.98047 1.25 8.47656 0.605469Q6.97266-0.0390625 5.83496-1.17676Q4.69727-2.31445 4.05762-3.81836Q3.41797-5.32227 3.41797-7.05078Q3.41797-8.7793 4.05762-10.2832Q4.69727-11.7871 5.83008-12.9297Q6.96289-14.0723 8.4668-14.7119Q9.9707-15.3516 11.6992-15.3516Q13.4277-15.3516 14.9316-14.7119Q16.4355-14.0723 17.5781-12.9297Q18.7207-11.7871 19.3652-10.2832Q20.0098-8.7793 20.0098-7.05078Q20.0098-5.32227 19.3701-3.81836Q18.7305-2.31445 17.5928-1.17676Q16.4551-0.0390625 14.9463 0.605469Q13.4375 1.25 11.709 1.25ZM7.17773-7.05078Q7.17773-6.69922 7.41211-6.47461Q7.64648-6.25 8.01758-6.25L10.8887-6.25L10.8887-3.36914Q10.8887-2.99805 11.1133-2.76855Q11.3379-2.53906 11.6895-2.53906Q12.0605-2.53906 12.29-2.76855Q12.5195-2.99805 12.5195-3.36914L12.5195-6.25L15.4004-6.25Q15.7715-6.25 16.001-6.47461Q16.2305-6.69922 16.2305-7.05078Q16.2305-7.42188 16.001-7.65137Q15.7715-7.88086 15.4004-7.88086L12.5195-7.88086L12.5195-10.752Q12.5195-11.1328 12.29-11.3623Q12.0605-11.5918 11.6895-11.5918Q11.3379-11.5918 11.1133-11.3574Q10.8887-11.123 10.8887-10.752L10.8887-7.88086L8.01758-7.88086Q7.63672-7.88086 7.40723-7.65137Q7.17773-7.42188 7.17773-7.05078Z"/>
  </g>
  <g transform="matrix(1 0 0 1 305.646 1933)">
   <path d="M14.9707 5.66406Q17.0605 5.66406 18.96 5.01465Q20.8594 4.36523 22.4512 3.19336Q24.043 2.02148 25.2197 0.429688Q26.3965-1.16211 27.0459-3.06641Q27.6953-4.9707 27.6953-7.05078Q27.6953-9.14062 27.0459-11.04Q26.3965-12.9395 25.2197-14.5312Q24.043-16.123 22.4512-17.2998Q20.8594-18.4766 18.9551-19.126Q17.0508-19.7754 14.9609-19.7754Q12.8711-19.7754 10.9717-19.126Q9.07227-18.4766 7.48535-17.2998Q5.89844-16.123 4.72168-14.5312Q3.54492-12.9395 2.90039-11.04Q2.25586-9.14062 2.25586-7.05078Q2.25586-4.9707 2.90527-3.06641Q3.55469-1.16211 4.72656 0.429688Q5.89844 2.02148 7.49023 3.19336Q9.08203 4.36523 10.9814 5.01465Q12.8809 5.66406 14.9707 5.66406ZM14.9707 3.84766Q13.1641 3.84766 11.5283 3.2959Q9.89258 2.74414 8.53516 1.74805Q7.17773 0.751953 6.17676-0.610352Q5.17578-1.97266 4.62891-3.6084Q4.08203-5.24414 4.08203-7.05078Q4.08203-8.86719 4.62891-10.5029Q5.17578-12.1387 6.17188-13.501Q7.16797-14.8633 8.52539-15.8594Q9.88281-16.8555 11.5186-17.4023Q13.1543-17.9492 14.9609-17.9492Q16.7773-17.9492 18.4131-17.4023Q20.0488-16.8555 21.4111-15.8594Q22.7734-14.8633 23.7695-13.501Q24.7656-12.1387 25.3174-10.5029Q25.8691-8.86719 25.8691-7.05078Q25.8789-5.24414 25.332-3.6084Q24.7852-1.97266 23.7842-0.610352Q22.7832 0.751953 21.4209 1.74805Q20.0586 2.74414 18.4229 3.2959Q16.7871 3.84766 14.9707 3.84766ZM9.19922-7.05078Q9.19922-6.66992 9.45801-6.4209Q9.7168-6.17188 10.1172-6.17188L14.0625-6.17188L14.0625-2.2168Q14.0625-1.81641 14.3115-1.55762Q14.5605-1.29883 14.9512-1.29883Q15.3516-1.29883 15.6104-1.55273Q15.8691-1.80664 15.8691-2.2168L15.8691-6.17188L19.8242-6.17188Q20.2246-6.17188 20.4785-6.4209Q20.7324-6.66992 20.7324-7.05078Q20.7324-7.46094 20.4785-7.71484Q20.2246-7.96875 19.8242-7.96875L15.8691-7.96875L15.8691-11.9141Q15.8691-12.3242 15.6104-12.583Q15.3516-12.8418 14.9512-12.8418Q14.5605-12.8418 14.3115-12.583Q14.0625-12.3242 14.0625-11.9141L14.0625-7.96875L10.1172-7.96875Q9.70703-7.96875 9.45312-7.71484Q9.19922-7.46094 9.19922-7.05078Z"/>
  </g>
  <text style="stroke:none;fill:black;font-family:sans-serif;font-size:13;font-weight:bold;" transform="matrix(1 0 0 1 263 1953)">Design Variations</text>
  <text style="stroke:none;fill:black;font-family:sans-serif;font-size:13;" transform="matrix(1 0 0 1 263 1971)">Symbols are supported in up to nine weights and three scales.</text>
  <text style="stroke:none;fill:black;font-family:sans-serif;font-size:13;" transform="matrix(1 0 0 1 263 1989)">For optimal layout with text and other symbols, vertically align</text>
  <text style="stroke:none;fill:black;font-family:sans-serif;font-size:13;" transform="matrix(1 0 0 1 263 2007)">symbols with the adjacent text.</text>
  <line style="fill:none;stroke:#00AEEF;stroke-width:0.5;opacity:1.0;" x1="776" x2="776" y1="1919" y2="1933"/>
  <g transform="matrix(1 0 0 1 776 1933)">
   <path d="M3.31055 0.15625Q3.70117 0.15625 3.91602-0.00976562Q4.13086-0.175781 4.26758-0.585938L5.52734-4.0332L11.2891-4.0332L12.5488-0.585938Q12.6855-0.175781 12.9004-0.00976562Q13.1152 0.15625 13.4961 0.15625Q13.8867 0.15625 14.1162-0.0585938Q14.3457-0.273438 14.3457-0.644531Q14.3457-0.869141 14.2383-1.17188L9.6582-13.3691Q9.48242-13.8184 9.17969-14.043Q8.87695-14.2676 8.4082-14.2676Q7.5-14.2676 7.17773-13.3789L2.59766-1.16211Q2.49023-0.859375 2.49023-0.634766Q2.49023-0.263672 2.70996-0.0537109Q2.92969 0.15625 3.31055 0.15625ZM6.00586-5.51758L8.37891-12.0898L8.42773-12.0898L10.8008-5.51758Z"/>
  </g>
  <line style="fill:none;stroke:#00AEEF;stroke-width:0.5;opacity:1.0;" x1="793.197" x2="793.197" y1="1919" y2="1933"/>
  <text style="stroke:none;fill:black;font-family:sans-serif;font-size:13;font-weight:bold;" transform="matrix(1 0 0 1 776 1953)">Margins</text>
  <text style="stroke:none;fill:black;font-family:sans-serif;font-size:13;" transform="matrix(1 0 0 1 776 1971)">Leading and trailing margins on the left and right side of each symbol</text>
  <text style="stroke:none;fill:black;font-family:sans-serif;font-size:13;" transform="matrix(1 0 0 1 776 1989)">can be adjusted by modifying the x-location of the margin guidelines.</text>
  <text style="stroke:none;fill:black;font-family:sans-serif;font-size:13;" transform="matrix(1 0 0 1 776 2007)">Modifications are automatically applied proportionally to all</text>
  <text style="stroke:none;fill:black;font-family:sans-serif;font-size:13;" transform="matrix(1 0 0 1 776 2025)">scales and weights.</text>
  <g transform="matrix(1 0 0 1 1289 1933)">
   <path d="M2.8418 1.86523L4.54102 3.57422Q5.18555 4.22852 5.90332 4.17969Q6.62109 4.13086 7.31445 3.35938L18.0078-8.42773L17.041-9.4043L6.42578 2.27539Q6.16211 2.57812 5.89355 2.61719Q5.625 2.65625 5.27344 2.30469L4.10156 1.14258Q3.75 0.791016 3.79395 0.522461Q3.83789 0.253906 4.14062-0.0195312L15.6152-10.8203L14.6387-11.7871L3.04688-0.898438Q2.30469-0.214844 2.25098 0.498047Q2.19727 1.21094 2.8418 1.86523ZM9.25781-16.3281Q8.94531-16.0254 8.90625-15.6348Q8.86719-15.2441 9.04297-14.9512Q9.21875-14.6777 9.55566-14.541Q9.89258-14.4043 10.3809-14.5215Q11.4746-14.7754 12.5977-14.7314Q13.7207-14.6875 14.7949-13.9844L14.209-12.5293Q13.9551-11.9043 14.0674-11.4404Q14.1797-10.9766 14.5801-10.5664L16.875-8.25195Q17.2363-7.88086 17.5781-7.82227Q17.9199-7.76367 18.3398-7.8418L19.4043-8.03711L20.0684-7.36328L20.0293-6.80664Q20-6.43555 20.1221-6.12305Q20.2441-5.81055 20.6055-5.44922L21.3672-4.70703Q21.7285-4.3457 22.1533-4.33105Q22.5781-4.31641 22.9297-4.66797L25.8398-7.58789Q26.1914-7.93945 26.1816-8.35449Q26.1719-8.76953 25.8105-9.13086L25.0391-9.89258Q24.6875-10.2539 24.3799-10.3857Q24.0723-10.5176 23.7109-10.4883L23.1348-10.4395L22.4902-11.0742L22.7344-12.1973Q22.832-12.6172 22.6953-12.9834Q22.5586-13.3496 22.1191-13.7891L19.9219-15.9766Q18.6719-17.2168 17.2607-17.8369Q15.8496-18.457 14.4189-18.4814Q12.9883-18.5059 11.665-17.959Q10.3418-17.4121 9.25781-16.3281ZM10.752-15.957Q11.6602-16.6211 12.7002-16.9043Q13.7402-17.1875 14.8047-17.085Q15.8691-16.9824 16.8701-16.5137Q17.8711-16.0449 18.7012-15.2051L21.1328-12.793Q21.3086-12.6172 21.3525-12.4512Q21.3965-12.2852 21.3379-12.0312L21.0156-10.5469L22.5195-9.0625L23.5059-9.12109Q23.6914-9.13086 23.7891-9.09668Q23.8867-9.0625 24.0332-8.91602L24.6094-8.33984L22.168-5.89844L21.5918-6.47461Q21.4453-6.62109 21.4062-6.71875Q21.3672-6.81641 21.377-7.01172L21.4453-7.98828L19.9512-9.47266L18.4277-9.21875Q18.1836-9.16992 18.042-9.2041Q17.9004-9.23828 17.7148-9.41406L15.7129-11.416Q15.5176-11.5918 15.4932-11.7529Q15.4688-11.9141 15.5859-12.1875L16.4648-14.2773Q15.293-15.3711 13.8281-15.791Q12.3633-16.2109 10.8398-15.7617Q10.7227-15.7324 10.6885-15.8057Q10.6543-15.8789 10.752-15.957Z"/>
  </g>
  <text style="stroke:none;fill:black;font-family:sans-serif;font-size:13;font-weight:bold;" transform="matrix(1 0 0 1 1289 1953)">Exporting</text>
  <text style="stroke:none;fill:black;font-family:sans-serif;font-size:13;" transform="matrix(1 0 0 1 1289 1971)">Symbols should be outlined when exporting to ensure the</text>
  <text style="stroke:none;fill:black;font-family:sans-serif;font-size:13;" transform="matrix(1 0 0 1 1289 1989)">design is preserved when submitting to Xcode.</text>
  <text id="template-version" style="stroke:none;fill:black;font-family:sans-serif;font-size:13;text-anchor:end;" transform="matrix(1 0 0 1 3036 1933)">Template v.3.0</text>
  <text style="stroke:none;fill:black;font-family:sans-serif;font-size:13;text-anchor:end;" transform="matrix(1 0 0 1 3036 1951)">Requires Xcode 13 or greater</text>
  <text id="descriptive-name" style="stroke:none;fill:black;font-family:sans-serif;font-size:13;text-anchor:end;" transform="matrix(1 0 0 1 3036 1969)">Generated from cube.fill</text>
  <text style="stroke:none;fill:black;font-family:sans-serif;font-size:13;text-anchor:end;" transform="matrix(1 0 0 1 3036 1987)">Typeset at 100 points</text>
  <text style="stroke:none;fill:black;font-family:sans-serif;font-size:13;" transform="matrix(1 0 0 1 263 726)">Small</text>
  <text style="stroke:none;fill:black;font-family:sans-serif;font-size:13;" transform="matrix(1 0 0 1 263 1156)">Medium</text>
  <text style="stroke:none;fill:black;font-family:sans-serif;font-size:13;" transform="matrix(1 0 0 1 263 1586)">Large</text>
 </g>
 <g id="Guides">
  <g id="H-reference" style="fill:#27AAE1;stroke:none;" transform="matrix(1 0 0 1 339 696)">
   <path d="M0.976562 0L3.66211 0L29.3457-67.1387L30.0293-67.1387L30.0293-70.459L28.125-70.459ZM11.6699-24.4629L46.9727-24.4629L46.2402-26.709L12.4512-26.709ZM55.127 0L57.7637 0L30.6152-70.459L29.4434-70.459L29.4434-67.1387Z"/>
  </g>
  <line id="Baseline-S" style="fill:none;stroke:#27AAE1;opacity:1;stroke-width:0.5;" x1="263" x2="3036" y1="696" y2="696"/>
  <line id="Capline-S" style="fill:none;stroke:#27AAE1;opacity:1;stroke-width:0.5;" x1="263" x2="3036" y1="625.541" y2="625.541"/>
  <g id="H-reference" style="fill:#27AAE1;stroke:none;" transform="matrix(1 0 0 1 339 1126)">
   <path d="M0.976562 0L3.66211 0L29.3457-67.1387L30.0293-67.1387L30.0293-70.459L28.125-70.459ZM11.6699-24.4629L46.9727-24.4629L46.2402-26.709L12.4512-26.709ZM55.127 0L57.7637 0L30.6152-70.459L29.4434-70.459L29.4434-67.1387Z"/>
  </g>
  <line id="Baseline-M" style="fill:none;stroke:#27AAE1;opacity:1;stroke-width:0.5;" x1="263" x2="3036" y1="1126" y2="1126"/>
  <line id="Capline-M" style="fill:none;stroke:#27AAE1;opacity:1;stroke-width:0.5;" x1="263" x2="3036" y1="1055.54" y2="1055.54"/>
  <g id="H-reference" style="fill:#27AAE1;stroke:none;" transform="matrix(1 0 0 1 339 1556)">
   <path d="M0.976562 0L3.66211 0L29.3457-67.1387L30.0293-67.1387L30.0293-70.459L28.125-70.459ZM11.6699-24.4629L46.9727-24.4629L46.2402-26.709L12.4512-26.709ZM55.127 0L57.7637 0L30.6152-70.459L29.4434-70.459L29.4434-67.1387Z"/>
  </g>
  <line id="Baseline-L" style="fill:none;stroke:#27AAE1;opacity:1;stroke-width:0.5;" x1="263" x2="3036" y1="1556" y2="1556"/>
  <line id="Capline-L" style="fill:none;stroke:#27AAE1;opacity:1;stroke-width:0.5;" x1="263" x2="3036" y1="1485.54" y2="1485.54"/>
  <line id="left-margin-Ultralight-S" style="fill:none;stroke:#00AEEF;stroke-width:0.5;opacity:1.0;" x1="512.47" x2="512.47" y1="600.785" y2="720.121"/>
  <line id="right-margin-Ultralight-S" style="fill:none;stroke:#00AEEF;stroke-width:0.5;opacity:1.0;" x1="606.952" x2="606.952" y1="600.785" y2="720.121"/>
  <line id="left-margin-Thin-S" style="fill:none;stroke:#00AEEF;stroke-width:0.5;opacity:1.0;" x1="808.815" x2="808.815" y1="600.785" y2="720.121"/>
  <line id="right-margin-Thin-S" style="fill:none;stroke:#00AEEF;stroke-width:0.5;opacity:1.0;" x1="904.03" x2="904.03" y1="600.785" y2="720.121"/>
  <line id="left-margin-Light-S" style="fill:none;stroke:#00AEEF;stroke-width:0.5;opacity:1.0;" x1="1104.79" x2="1104.79" y1="600.785" y2="720.121"/>
  <line id="right-margin-Light-S" style="fill:none;stroke:#00AEEF;stroke-width:0.5;opacity:1.0;" x1="1201.47" x2="1201.47" y1="600.785" y2="720.121"/>
  <line id="left-margin-Regular-S" style="fill:none;stroke:#00AEEF;stroke-width:0.5;opacity:1.0;" x1="1400.97" x2="1400.97" y1="600.785" y2="720.121"/>
  <line id="right-margin-Regular-S" style="fill:none;stroke:#00AEEF;stroke-width:0.5;opacity:1.0;" x1="1498.72" x2="1498.72" y1="600.785" y2="720.121"/>
  <line id="left-margin-Medium-S" style="fill:none;stroke:#00AEEF;stroke-width:0.5;opacity:1.0;" x1="1697.41" x2="1697.41" y1="600.785" y2="720.121"/>
  <line id="right-margin-Medium-S" style="fill:none;stroke:#00AEEF;stroke-width:0.5;opacity:1.0;" x1="1795.7" x2="1795.7" y1="600.785" y2="720.121"/>
  <line id="left-margin-Semibold-S" style="fill:none;stroke:#00AEEF;stroke-width:0.5;opacity:1.0;" x1="1993.9" x2="1993.9" y1="600.785" y2="720.121"/>
  <line id="right-margin-Semibold-S" style="fill:none;stroke:#00AEEF;stroke-width:0.5;opacity:1.0;" x1="2092.63" x2="2092.63" y1="600.785" y2="720.121"/>
  <line id="left-margin-Bold-S" style="fill:none;stroke:#00AEEF;stroke-width:0.5;opacity:1.0;" x1="2290.34" x2="2290.34" y1="600.785" y2="720.121"/>
  <line id="right-margin-Bold-S" style="fill:none;stroke:#00AEEF;stroke-width:0.5;opacity:1.0;" x1="2389.61" x2="2389.61" y1="600.785" y2="720.121"/>
  <line id="left-margin-Heavy-S" style="fill:none;stroke:#00AEEF;stroke-width:0.5;opacity:1.0;" x1="2586.66" x2="2586.66" y1="600.785" y2="720.121"/>
  <line id="right-margin-Heavy-S" style="fill:none;stroke:#00AEEF;stroke-width:0.5;opacity:1.0;" x1="2686.71" x2="2686.71" y1="600.785" y2="720.121"/>
  <line id="left-margin-Black-S" style="fill:none;stroke:#00AEEF;stroke-width:0.5;opacity:1.0;" x1="2883.01" x2="2883.01" y1="600.785" y2="720.121"/>
  <line id="right-margin-Black-S" style="fill:none;stroke:#00AEEF;stroke-width:0.5;opacity:1.0;" x1="2983.79" x2="2983.79" y1="600.785" y2="720.121"/>
  <line id="left-margin-Ultralight-M" style="fill:none;stroke:#00AEEF;stroke-width:0.5;opacity:1.0;" x1="499.555" x2="499.555" y1="1030.79" y2="1150.12"/>
  <line id="right-margin-Ultralight-M" style="fill:none;stroke:#00AEEF;stroke-width:0.5;opacity:1.0;" x1="619.867" x2="619.867" y1="1030.79" y2="1150.12"/>
  <line id="left-margin-Thin-M" style="fill:none;stroke:#00AEEF;stroke-width:0.5;opacity:1.0;" x1="795.851" x2="795.851" y1="1030.79" y2="1150.12"/>
  <line id="right-margin-Thin-M" style="fill:none;stroke:#00AEEF;stroke-width:0.5;opacity:1.0;" x1="916.994" x2="916.994" y1="1030.79" y2="1150.12"/>
  <line id="left-margin-Light-M" style="fill:none;stroke:#00AEEF;stroke-width:0.5;opacity:1.0;" x1="1091.76" x2="1091.76" y1="1030.79" y2="1150.12"/>
  <line id="right-margin-Light-M" style="fill:none;stroke:#00AEEF;stroke-width:0.5;opacity:1.0;" x1="1214.51" x2="1214.51" y1="1030.79" y2="1150.12"/>
  <line id="left-margin-Regular-M" style="fill:none;stroke:#00AEEF;stroke-width:0.5;opacity:1.0;" x1="1387.86" x2="1387.86" y1="1030.79" y2="1150.12"/>
  <line id="right-margin-Regular-M" style="fill:none;stroke:#00AEEF;stroke-width:0.5;opacity:1.0;" x1="1511.83" x2="1511.83" y1="1030.79" y2="1150.12"/>
  <line id="left-margin-Medium-M" style="fill:none;stroke:#00AEEF;stroke-width:0.5;opacity:1.0;" x1="1684.18" x2="1684.18" y1="1030.79" y2="1150.12"/>
  <line id="right-margin-Medium-M" style="fill:none;stroke:#00AEEF;stroke-width:0.5;opacity:1.0;" x1="1808.93" x2="1808.93" y1="1030.79" y2="1150.12"/>
  <line id="left-margin-Semibold-M" style="fill:none;stroke:#00AEEF;stroke-width:0.5;opacity:1.0;" x1="1980.6" x2="1980.6" y1="1030.79" y2="1150.12"/>
  <line id="right-margin-Semibold-M" style="fill:none;stroke:#00AEEF;stroke-width:0.5;opacity:1.0;" x1="2105.94" x2="2105.94" y1="1030.79" y2="1150.12"/>
  <line id="left-margin-Bold-M" style="fill:none;stroke:#00AEEF;stroke-width:0.5;opacity:1.0;" x1="2276.89" x2="2276.89" y1="1030.79" y2="1150.12"/>
  <line id="right-margin-Bold-M" style="fill:none;stroke:#00AEEF;stroke-width:0.5;opacity:1.0;" x1="2403.06" x2="2403.06" y1="1030.79" y2="1150.12"/>
  <line id="left-margin-Heavy-M" style="fill:none;stroke:#00AEEF;stroke-width:0.5;opacity:1.0;" x1="2573.04" x2="2573.04" y1="1030.79" y2="1150.12"/>
  <line id="right-margin-Heavy-M" style="fill:none;stroke:#00AEEF;stroke-width:0.5;opacity:1.0;" x1="2700.34" x2="2700.34" y1="1030.79" y2="1150.12"/>
  <line id="left-margin-Black-M" style="fill:none;stroke:#00AEEF;stroke-width:0.5;opacity:1.0;" x1="2869.24" x2="2869.24" y1="1030.79" y2="1150.12"/>
  <line id="right-margin-Black-M" style="fill:none;stroke:#00AEEF;stroke-width:0.5;opacity:1.0;" x1="2997.56" x2="2997.56" y1="1030.79" y2="1150.12"/>
  <line id="left-margin-Ultralight-L" style="fill:none;stroke:#00AEEF;stroke-width:0.5;opacity:1.0;" x1="482.27" x2="482.27" y1="1460.79" y2="1580.12"/>
  <line id="right-margin-Ultralight-L" style="fill:none;stroke:#00AEEF;stroke-width:0.5;opacity:1.0;" x1="637.153" x2="637.153" y1="1460.79" y2="1580.12"/>
  <line id="left-margin-Thin-L" style="fill:none;stroke:#00AEEF;stroke-width:0.5;opacity:1.0;" x1="778.517" x2="778.517" y1="1460.79" y2="1580.12"/>
  <line id="right-margin-Thin-L" style="fill:none;stroke:#00AEEF;stroke-width:0.5;opacity:1.0;" x1="934.327" x2="934.327" y1="1460.79" y2="1580.12"/>
  <line id="left-margin-Light-L" style="fill:none;stroke:#00AEEF;stroke-width:0.5;opacity:1.0;" x1="1074.32" x2="1074.32" y1="1460.79" y2="1580.12"/>
  <line id="right-margin-Light-L" style="fill:none;stroke:#00AEEF;stroke-width:0.5;opacity:1.0;" x1="1231.94" x2="1231.94" y1="1460.79" y2="1580.12"/>
  <line id="left-margin-Regular-L" style="fill:none;stroke:#00AEEF;stroke-width:0.5;opacity:1.0;" x1="1370.35" x2="1370.35" y1="1460.79" y2="1580.12"/>
  <line id="right-margin-Regular-L" style="fill:none;stroke:#00AEEF;stroke-width:0.5;opacity:1.0;" x1="1529.34" x2="1529.34" y1="1460.79" y2="1580.12"/>
  <line id="left-margin-Medium-L" style="fill:none;stroke:#00AEEF;stroke-width:0.5;opacity:1.0;" x1="1666.55" x2="1666.55" y1="1460.79" y2="1580.12"/>
  <line id="right-margin-Medium-L" style="fill:none;stroke:#00AEEF;stroke-width:0.5;opacity:1.0;" x1="1826.56" x2="1826.56" y1="1460.79" y2="1580.12"/>
  <line id="left-margin-Semibold-L" style="fill:none;stroke:#00AEEF;stroke-width:0.5;opacity:1.0;" x1="1962.87" x2="1962.87" y1="1460.79" y2="1580.12"/>
  <line id="right-margin-Semibold-L" style="fill:none;stroke:#00AEEF;stroke-width:0.5;opacity:1.0;" x1="2123.66" x2="2123.66" y1="1460.79" y2="1580.12"/>
  <line id="left-margin-Bold-L" style="fill:none;stroke:#00AEEF;stroke-width:0.5;opacity:1.0;" x1="2259.07" x2="2259.07" y1="1460.79" y2="1580.12"/>
  <line id="right-margin-Bold-L" style="fill:none;stroke:#00AEEF;stroke-width:0.5;opacity:1.0;" x1="2420.89" x2="2420.89" y1="1460.79" y2="1580.12"/>
  <line id="left-margin-Heavy-L" style="fill:none;stroke:#00AEEF;stroke-width:0.5;opacity:1.0;" x1="2555.02" x2="2555.02" y1="1460.79" y2="1580.12"/>
  <line id="right-margin-Heavy-L" style="fill:none;stroke:#00AEEF;stroke-width:0.5;opacity:1.0;" x1="2718.35" x2="2718.35" y1="1460.79" y2="1580.12"/>
  <line id="left-margin-Black-L" style="fill:none;stroke:#00AEEF;stroke-width:0.5;opacity:1.0;" x1="2851.08" x2="2851.08" y1="1460.79" y2="1580.12"/>
  <line id="right-margin-Black-L" style="fill:none;stroke:#00AEEF;stroke-width:0.5;opacity:1.0;" x1="3015.72" x2="3015.72" y1="1460.79" y2="1580.12"/>
 </g>
 <g id="Symbols">
  <g id="Black-L" transform="matrix(1 0 0 1 2851.08 1556)">
   <path d="M82.3242-43.8477L143.604-76.7578Q142.627-77.6855 141.455-78.4912Q140.283-79.2969 138.867-80.0293L96.0449-103.027Q89.5996-106.494 82.373-106.494Q75.1465-106.494 68.7012-103.027L25.8301-80.0293Q22.9492-78.5156 21.0938-76.7578ZM76.5625 33.6426L76.5625-33.3496L16.2109-66.2598Q16.0645-65.1367 16.0645-63.7695L16.0645-9.76562Q16.0645-3.17383 18.4814 0.610352Q20.8984 4.39453 26.2207 7.22656L72.998 32.3242Q73.9258 32.8125 74.8047 33.1543Q75.6836 33.4961 76.5625 33.6426ZM88.0859 33.6426Q88.9648 33.4961 89.8682 33.1543Q90.7715 32.8125 91.6504 32.3242L138.477 7.22656Q143.799 4.39453 146.191 0.610352Q148.584-3.17383 148.584-9.76562L148.584-63.7695Q148.584-65.1367 148.438-66.2598L88.0859-33.3496Z"/>
  </g>
  <g id="Heavy-L" transform="matrix(1 0 0 1 2555.02 1556)">
   <path d="M81.6406-42.4316L142.48-75.4883Q141.602-76.3184 140.527-77.0752Q139.453-77.832 138.086-78.5156L94.5801-102.246Q88.3789-105.615 81.6895-105.615Q75-105.615 68.7988-102.246L25.2441-78.5156Q22.5586-77.0996 20.8496-75.4883ZM76.3184 33.4961L76.3184-32.8125L16.3086-65.8203Q16.0645-64.5508 16.0645-62.8906L16.0645-9.86328Q16.0645-3.41797 18.4082 0.195312Q20.752 3.80859 25.7812 6.54297L73.291 32.3242Q74.0723 32.7637 74.8291 33.0566Q75.5859 33.3496 76.3184 33.4961ZM86.9629 33.4961Q87.7441 33.3496 88.501 33.0566Q89.2578 32.7637 89.9902 32.3242L137.549 6.54297Q142.627 3.80859 144.946 0.195312Q147.266-3.41797 147.266-9.86328L147.266-62.8906Q147.266-64.5508 147.021-65.8203L86.9629-32.8125Z"/>
  </g>
  <g id="Bold-L" transform="matrix(1 0 0 1 2259.07 1556)">
   <path d="M80.9082-40.8691L141.26-74.0723Q140.43-74.8535 139.478-75.5371Q138.525-76.2207 137.256-76.8555L92.9199-101.367Q87.0117-104.59 80.957-104.59Q74.8535-104.59 68.9453-101.367L24.6094-76.8555Q22.1191-75.5371 20.6055-74.0723ZM76.0742 33.3008L76.0742-32.1777L16.4062-65.332Q16.0645-63.916 16.0645-61.9141L16.0645-10.0098Q16.0645-3.66211 18.3105-0.244141Q20.5566 3.17383 25.293 5.76172L73.6328 32.373Q74.2676 32.666 74.8779 32.9346Q75.4883 33.2031 76.0742 33.3008ZM85.7422 33.3008Q86.377 33.2031 86.9873 32.9346Q87.5977 32.666 88.1836 32.373L136.572 5.76172Q141.309 3.17383 143.53-0.244141Q145.752-3.66211 145.752-10.0098L145.752-61.9141Q145.752-63.916 145.459-65.332L85.7422-32.1777Z"/>
  </g>
  <g id="Semibold-L" transform="matrix(1 0 0 1 1962.87 1556)">
   <path d="M80.3711-39.7461L140.381-73.0469Q139.648-73.7793 138.745-74.4141Q137.842-75.0488 136.67-75.6836L91.7969-100.732Q86.084-103.906 80.4199-103.906Q74.7559-103.906 69.043-100.732L24.1211-75.6836Q21.8262-74.4141 20.4102-73.0469ZM75.8789 33.1543L75.8789-31.7383L16.4551-64.9902Q16.0645-63.4766 16.0645-61.2305L16.0645-10.1074Q16.0645-3.85742 18.2373-0.585938Q20.4102 2.68555 24.9512 5.17578L73.877 32.373Q74.3652 32.6172 74.8779 32.8369Q75.3906 33.0566 75.8789 33.1543ZM84.9121 33.1543Q85.4004 33.0566 85.9131 32.8369Q86.4258 32.6172 86.9141 32.373L135.84 5.17578Q140.381 2.68555 142.554-0.585938Q144.727-3.85742 144.727-10.1074L144.727-61.2305Q144.727-63.4766 144.336-64.9902L84.9121-31.7383Z"/>
  </g>
  <g id="Medium-L" transform="matrix(1 0 0 1 1666.55 1556)">
   <path d="M79.9805-38.916L139.697-72.3145Q139.014-72.998 138.184-73.6084Q137.354-74.2188 136.23-74.8047L90.918-100.244Q85.3516-103.369 80.0293-103.369Q74.6582-103.369 69.0918-100.244L23.7793-74.8047Q21.582-73.584 20.3125-72.3145ZM75.7812 33.1055L75.7812-31.4453L16.5039-64.7461Q16.0645-63.1348 16.0645-60.7422L16.0645-10.1562Q16.0645-3.95508 18.2129-0.805664Q20.3613 2.34375 24.707 4.78516L74.0234 32.373Q74.4629 32.5684 74.9023 32.7637Q75.3418 32.959 75.7812 33.1055ZM84.2285 33.1055Q84.668 32.959 85.1074 32.7637Q85.5469 32.5684 85.9863 32.373L135.303 4.78516Q139.697 2.34375 141.821-0.805664Q143.945-3.95508 143.945-10.1562L143.945-60.7422Q143.945-63.1348 143.506-64.7461L84.2285-31.4453Z"/>
  </g>
  <g id="Regular-L" transform="matrix(1 0 0 1 1370.35 1556)">
   <path d="M79.4922-37.8418L138.867-71.3379Q138.232-71.9727 137.476-72.5342Q136.719-73.0957 135.645-73.6328L89.7949-99.6582Q84.4238-102.686 79.4922-102.686Q74.5605-102.686 69.1895-99.6582L23.3398-73.6328Q21.2891-72.5098 20.1172-71.3379ZM75.5859 32.959L75.5859-31.0059L16.5527-64.4043Q16.0645-62.6953 16.0645-60.0586L16.0645-10.2539Q16.0645-4.15039 18.1396-1.12305Q20.2148 1.9043 24.3652 4.24805L74.2676 32.373Q74.5605 32.5195 74.9023 32.6904Q75.2441 32.8613 75.5859 32.959ZM83.3984 32.959Q83.7402 32.8613 84.082 32.6904Q84.4238 32.5195 84.7168 32.373L134.619 4.24805Q138.77 1.9043 140.845-1.12305Q142.92-4.15039 142.92-10.2539L142.92-60.0586Q142.92-62.6953 142.432-64.4043L83.3984-31.0059Z"/>
  </g>
  <g id="Light-L" transform="matrix(1 0 0 1 1074.32 1556)">
   <path d="M78.8086-37.5L138.184-70.6055Q137.695-71.1914 137.061-71.6797Q136.426-72.168 135.352-72.7051L87.5-99.6582Q82.9102-102.246 78.8086-102.246Q74.707-102.246 70.1172-99.6582L22.2656-72.6562Q20.3613-71.6309 19.4336-70.6055ZM75.4883 31.4453L75.4883-31.5918L16.5039-64.4043Q16.0645-63.0371 16.0645-60.6934L16.0645-9.91211Q16.0645-4.83398 17.8223-2.14844Q19.5801 0.537109 23.3887 2.68555L74.0234 30.8105Q74.3164 31.0059 74.707 31.2012Q75.0977 31.3965 75.4883 31.4453ZM82.1777 31.4453Q82.5195 31.3965 82.9102 31.2012Q83.3008 31.0059 83.5938 30.8105L134.277 2.68555Q138.037 0.537109 139.795-2.14844Q141.553-4.83398 141.553-9.91211L141.553-60.6934Q141.553-63.0371 141.113-64.4043L82.1777-31.5918Z"/>
  </g>
  <g id="Thin-L" transform="matrix(1 0 0 1 778.517 1556)">
   <path d="M77.9297-37.0117L137.305-69.6777Q136.963-70.166 136.499-70.5322Q136.035-70.8984 135.01-71.4355L84.4727-99.6094Q80.9082-101.611 77.9297-101.611Q74.9023-101.611 71.2891-99.6094L20.8008-71.3867Q19.0918-70.459 18.5059-69.6777ZM75.293 29.4434L75.293-32.3242L16.4062-64.4043Q16.0645-63.5254 16.0645-61.5234L16.0645-9.47266Q16.0645-5.76172 17.3828-3.49121Q18.7012-1.2207 22.0215 0.585938L73.6816 28.8086Q73.9746 28.9551 74.4385 29.1748Q74.9023 29.3945 75.293 29.4434ZM80.5176 29.4434Q80.9082 29.3945 81.3477 29.1748Q81.7871 28.9551 82.1289 28.8086L133.789 0.585938Q137.061-1.2207 138.403-3.49121Q139.746-5.76172 139.746-9.47266L139.746-61.5234Q139.746-63.5254 139.404-64.4043L80.5176-32.3242Z"/>
  </g>
  <g id="Ultralight-L" transform="matrix(1 0 0 1 482.27 1556)">
   <path d="M77.4414-36.7676L136.865-69.1895Q136.621-69.6289 136.206-69.9463Q135.791-70.2637 134.814-70.8008L82.959-99.6094Q79.8828-101.318 77.4414-101.318Q75-101.318 71.9238-99.6094L20.0684-70.7031Q18.457-69.873 18.0176-69.1895ZM75.2441 28.418L75.2441-32.7148L16.3574-64.4043Q16.0645-63.7207 16.0645-61.9141L16.0645-9.27734Q16.0645-6.25 17.1631-4.19922Q18.2617-2.14844 21.3867-0.488281L73.4863 27.7344Q73.8281 27.9297 74.3164 28.1738Q74.8047 28.418 75.2441 28.418ZM79.6875 28.418Q80.127 28.418 80.5664 28.1738Q81.0059 27.9297 81.3965 27.7344L133.545-0.488281Q136.572-2.14844 137.695-4.19922Q138.818-6.25 138.818-9.27734L138.818-61.9141Q138.818-63.7207 138.525-64.4043L79.6875-32.7148Z"/>
  </g>
  <g id="Black-M" transform="matrix(1 0 0 1 2869.24 1126)">
   <path d="M64.1602-43.0176L112.012-68.2617Q110.547-69.6777 108.203-70.8984L74.9512-88.4277Q69.9707-91.0645 64.209-91.0645Q58.3984-91.0645 53.418-88.4277L20.166-70.8984Q17.8223-69.6777 16.3086-68.2617ZM59.5215 17.7734L59.5215-34.4727L12.5-59.668Q12.4512-59.0332 12.4512-58.3496L12.4512-15.2832Q12.4512-10.4004 14.2822-7.44629Q16.1133-4.49219 20.3613-2.24609L56.25 16.6016Q57.0801 17.041 57.8857 17.3584Q58.6914 17.6758 59.5215 17.7734ZM68.7988 17.7734Q69.5801 17.6758 70.4102 17.3584Q71.2402 17.041 72.0703 16.6016L107.959-2.24609Q112.207-4.49219 114.038-7.44629Q115.869-10.4004 115.869-15.2832L115.869-58.3496Q115.869-59.0332 115.82-59.668L68.7988-34.4727Z"/>
  </g>
  <g id="Heavy-M" transform="matrix(1 0 0 1 2573.04 1126)">
   <path d="M63.6719-41.6992L111.084-67.1875Q109.717-68.457 107.52-69.6289L73.9746-87.6465Q69.0918-90.2832 63.6719-90.2832Q58.2031-90.2832 53.3691-87.6465L19.8242-69.6289Q17.627-68.457 16.2109-67.1875ZM59.3262 17.9199L59.3262-33.7891L12.5977-59.2285Q12.4512-58.3984 12.4512-57.3242L12.4512-15.4785Q12.4512-10.498 14.2822-7.6416Q16.1133-4.78516 20.166-2.58789L56.5918 16.9434Q57.2754 17.2852 57.959 17.5781Q58.6426 17.8711 59.3262 17.9199ZM67.9688 17.9199Q68.6523 17.8711 69.3359 17.5781Q70.0195 17.2852 70.7031 16.9434L107.129-2.58789Q111.182-4.78516 113.013-7.6416Q114.844-10.498 114.844-15.4785L114.844-57.3242Q114.844-58.3984 114.697-59.2285L67.9688-33.7891Z"/>
  </g>
  <g id="Bold-M" transform="matrix(1 0 0 1 2276.89 1126)">
   <path d="M63.0859-40.2832L110.01-65.9668Q108.74-67.1387 106.787-68.2129L72.9004-86.8164Q68.1641-89.4531 63.1348-89.4531Q58.0566-89.4531 53.2715-86.8164L19.4336-68.2129Q17.4316-67.1387 16.1621-65.9668ZM59.082 18.1152L59.082-33.0566L12.6953-58.7402Q12.4512-57.7148 12.4512-56.25L12.4512-15.6738Q12.4512-10.5957 14.2822-7.86133Q16.1133-5.12695 19.9219-3.02734L56.9824 17.334Q57.5195 17.627 58.0322 17.8467Q58.5449 18.0664 59.082 18.1152ZM67.0898 18.1152Q67.5781 18.0664 68.1152 17.8467Q68.6523 17.627 69.1895 17.334L106.25-3.02734Q110.107-5.12695 111.914-7.86133Q113.721-10.5957 113.721-15.6738L113.721-56.25Q113.721-57.7148 113.477-58.7402L67.0898-33.0566Z"/>
  </g>
  <g id="Semibold-M" transform="matrix(1 0 0 1 1980.6 1126)">
   <path d="M62.6953-39.2578L109.277-65.0879Q108.105-66.2109 106.25-67.2363L72.168-86.1816Q67.4805-88.8184 62.6953-88.8184Q57.9102-88.8184 53.2227-86.1816L19.1895-67.2363Q17.2852-66.2109 16.0645-65.0879ZM58.9355 18.2617L58.9355-32.5195L12.7441-58.3984Q12.4512-57.1777 12.4512-55.4688L12.4512-15.8203Q12.4512-10.6445 14.2578-7.9834Q16.0645-5.32227 19.7266-3.27148L57.2266 17.5781Q57.666 17.8223 58.0811 17.9932Q58.4961 18.1641 58.9355 18.2617ZM66.4551 18.2617Q66.8457 18.1641 67.2852 17.9932Q67.7246 17.8223 68.1641 17.5781L105.615-3.27148Q109.326-5.32227 111.108-7.9834Q112.891-10.6445 112.891-15.8203L112.891-55.4688Q112.891-57.1777 112.646-58.3984L66.4551-32.5195Z"/>
  </g>
  <g id="Medium-M" transform="matrix(1 0 0 1 1684.18 1126)">
   <path d="M62.4023-38.4766L108.74-64.4531Q107.568-65.5273 105.859-66.5039L71.582-85.7422Q66.9434-88.3789 62.4023-88.3789Q57.8125-88.3789 53.1738-85.7422L18.9453-66.5039Q17.1875-65.5273 16.0156-64.4531ZM58.7891 18.3105L58.7891-32.1289L12.793-58.1543Q12.4512-56.8359 12.4512-54.8828L12.4512-15.918Q12.4512-10.6934 14.2578-8.10547Q16.0645-5.51758 19.5801-3.4668L57.4707 17.7734Q57.8125 17.9688 58.1299 18.1152Q58.4473 18.2617 58.7891 18.3105ZM65.9668 18.3105Q66.3086 18.2617 66.6504 18.1152Q66.9922 17.9688 67.334 17.7734L105.176-3.4668Q108.74-5.51758 110.522-8.10547Q112.305-10.6934 112.305-15.918L112.305-54.8828Q112.305-56.8359 111.963-58.1543L65.9668-32.1289Z"/>
  </g>
  <g id="Regular-M" transform="matrix(1 0 0 1 1387.86 1126)">
   <path d="M62.0117-37.5L108.008-63.623Q106.934-64.5996 105.322-65.5273L70.8496-85.1562Q66.3086-87.793 62.0117-87.793Q57.666-87.793 53.125-85.1562L18.7012-65.5273Q17.041-64.5996 15.9668-63.623ZM58.6426 18.457L58.6426-31.6406L12.8418-57.8125Q12.4512-56.3477 12.4512-54.1016L12.4512-16.0645Q12.4512-10.7422 14.2578-8.22754Q16.0645-5.71289 19.4336-3.75977L57.7148 18.0176Q57.959 18.1641 58.1787 18.2861Q58.3984 18.4082 58.6426 18.457ZM65.332 18.457Q65.5762 18.4082 65.8203 18.2861Q66.0645 18.1641 66.3086 18.0176L104.541-3.75977Q107.959-5.71289 109.741-8.22754Q111.523-10.7422 111.523-16.0645L111.523-54.1016Q111.523-56.3477 111.133-57.8125L65.332-31.6406Z"/>
  </g>
  <g id="Light-M" transform="matrix(1 0 0 1 1091.76 1126)">
   <path d="M61.377-37.1582L107.422-62.9883Q106.543-63.8672 105.078-64.6973L68.7988-85.1562Q64.9414-87.3535 61.377-87.3535Q57.8125-87.3535 53.9551-85.1562L17.7246-64.6484Q16.2109-63.8184 15.332-62.9883ZM58.5449 17.0898L58.5449-32.1777L12.793-57.8125Q12.4512-56.6406 12.4512-54.6387L12.4512-15.7715Q12.4512-11.377 13.9648-9.15527Q15.4785-6.93359 18.5547-5.17578L57.4707 16.6504Q57.7148 16.7969 57.9834 16.9434Q58.252 17.0898 58.5449 17.0898ZM64.209 17.0898Q64.502 17.0898 64.7705 16.9434Q65.0391 16.7969 65.332 16.6504L104.199-5.17578Q107.324-6.93359 108.813-9.15527Q110.303-11.377 110.303-15.7715L110.303-54.6387Q110.303-56.6406 109.961-57.8125L64.209-32.1777Z"/>
  </g>
  <g id="Thin-M" transform="matrix(1 0 0 1 795.851 1126)">
   <path d="M60.5469-36.7188L106.641-62.1582Q106.055-62.8418 104.736-63.5742L66.1621-85.1074Q63.1348-86.8164 60.5469-86.8164Q58.0078-86.8164 55.0293-85.1074L16.4062-63.5254Q15.0879-62.793 14.502-62.1582ZM58.3984 15.332L58.3984-32.8125L12.7441-57.8125Q12.4512-57.0312 12.4512-55.4199L12.4512-15.3809Q12.4512-12.207 13.5742-10.376Q14.6973-8.54492 17.3828-7.03125L57.1289 14.7949Q57.4219 14.9414 57.7637 15.1367Q58.1055 15.332 58.3984 15.332ZM62.7441 15.332Q63.0371 15.332 63.3789 15.1367Q63.7207 14.9414 63.9648 14.7949L103.76-7.03125Q106.445-8.54492 107.568-10.376Q108.691-12.207 108.691-15.3809L108.691-55.4199Q108.691-57.0312 108.447-57.8125L62.7441-32.8125Z"/>
  </g>
  <g id="Ultralight-M" transform="matrix(1 0 0 1 499.555 1126)">
   <path d="M60.1562-36.5234L106.25-61.7188Q105.811-62.3535 104.541-63.0371L64.7461-85.1074Q62.207-86.5234 60.1562-86.5234Q58.1055-86.5234 55.5664-85.1074L15.7715-62.9395Q14.502-62.3047 14.1113-61.7188ZM58.3008 14.4043L58.3008-33.2031L12.6953-57.8125Q12.4512-57.2754 12.4512-55.7617L12.4512-15.1367Q12.4512-12.5977 13.3789-10.9619Q14.3066-9.32617 16.748-7.95898L56.9824 13.8672Q57.2754 14.0137 57.6416 14.209Q58.0078 14.4043 58.3008 14.4043ZM62.0117 14.4043Q62.3047 14.4043 62.6709 14.209Q63.0371 14.0137 63.3301 13.8672L103.564-7.95898Q106.006-9.32617 106.934-10.9619Q107.861-12.5977 107.861-15.1367L107.861-55.7617Q107.861-57.2754 107.617-57.8125L62.0117-33.2031Z"/>
  </g>
  <g id="Black-S" transform="matrix(1 0 0 1 2883.01 696)">
   <path d="M50.3906-41.6992L88.0371-61.4258Q86.8652-62.5488 84.9609-63.5254L58.8867-77.1484Q55.0293-79.1992 50.4395-79.1992Q45.8496-79.1992 41.9434-77.1484L15.8691-63.5254Q13.9648-62.5488 12.793-61.4258ZM46.6797 6.15234L46.6797-34.8633L9.76562-54.4922Q9.76562-54.2969 9.76562-54.1016Q9.76562-53.9062 9.76562-53.6621L9.76562-19.5312Q9.76562-15.8203 11.1816-13.4766Q12.5977-11.1328 15.9668-9.375L43.9453 5.17578Q44.6289 5.51758 45.3369 5.78613Q46.0449 6.05469 46.6797 6.15234ZM54.1016 6.15234Q54.7852 6.05469 55.4688 5.78613Q56.1523 5.51758 56.8359 5.17578L84.8145-9.375Q88.1836-11.1328 89.5996-13.4766Q91.0156-15.8203 91.0156-19.5312L91.0156-53.6621Q91.0156-53.9062 91.0156-54.1016Q91.0156-54.2969 91.0156-54.4922L54.1016-34.8633Z"/>
  </g>
  <g id="Heavy-S" transform="matrix(1 0 0 1 2586.66 696)">
   <path d="M50.0488-40.625L87.3047-60.5469Q86.1816-61.6211 84.4238-62.5488L58.3496-76.5137Q54.4434-78.5645 50.0488-78.5645Q45.6543-78.5645 41.7969-76.5137L15.6738-62.5488Q13.916-61.6211 12.793-60.5469ZM46.5332 6.49414L46.5332-34.2285L9.86328-54.1016Q9.81445-53.8086 9.79004-53.4668Q9.76562-53.125 9.76562-52.7344L9.76562-19.7266Q9.76562-15.8203 11.2061-13.5254Q12.6465-11.2305 15.918-9.47266L44.2871 5.66406Q44.8242 5.9082 45.4102 6.15234Q45.9961 6.39648 46.5332 6.49414ZM53.5156 6.49414Q54.1016 6.39648 54.6631 6.15234Q55.2246 5.9082 55.8105 5.66406L84.1797-9.47266Q87.4023-11.2305 88.8428-13.5254Q90.2832-15.8203 90.2832-19.7266L90.2832-52.7344Q90.2832-53.125 90.2832-53.4668Q90.2832-53.8086 90.2344-54.1016L53.5156-34.2285Z"/>
  </g>
  <g id="Bold-S" transform="matrix(1 0 0 1 2290.34 696)">
   <path d="M49.6582-39.4531L86.4746-59.6191Q85.4492-60.5957 83.7891-61.4746L57.7148-75.7812Q53.8574-77.9297 49.6582-77.9297Q45.5078-77.9297 41.6016-75.7812L15.5273-61.4746Q13.8672-60.5957 12.8418-59.6191ZM46.3867 6.83594L46.3867-33.5449L9.96094-53.7109Q9.86328-53.2715 9.81445-52.7832Q9.76562-52.2949 9.76562-51.709L9.76562-19.9707Q9.76562-15.7715 11.2549-13.5498Q12.7441-11.3281 15.8203-9.61914L44.6289 6.20117Q45.0684 6.39648 45.5078 6.56738Q45.9473 6.73828 46.3867 6.83594ZM52.9297 6.83594Q53.3691 6.73828 53.7842 6.56738Q54.1992 6.39648 54.6387 6.20117L83.4473-9.61914Q86.5234-11.3281 88.0127-13.5498Q89.502-15.7715 89.502-19.9707L89.502-51.709Q89.502-52.2949 89.4775-52.7832Q89.4531-53.2715 89.3555-53.7109L52.9297-33.5449Z"/>
  </g>
  <g id="Semibold-S" transform="matrix(1 0 0 1 1993.9 696)">
   <path d="M49.3652-38.623L85.8887-58.9355Q84.9121-59.8633 83.3496-60.6934L57.2754-75.2441Q53.418-77.4414 49.3652-77.4414Q45.3613-77.4414 41.4551-75.2441L15.3809-60.6934Q13.8184-59.8633 12.8418-58.9355ZM46.2402 7.08008L46.2402-33.0078L10.0098-53.418Q9.86328-52.8809 9.81445-52.2705Q9.76562-51.6602 9.76562-50.9766L9.76562-20.1172Q9.76562-15.7715 11.2793-13.5742Q12.793-11.377 15.7715-9.7168L44.873 6.54297Q45.2148 6.73828 45.5566 6.86035Q45.8984 6.98242 46.2402 7.08008ZM52.4902 7.08008Q52.832 6.98242 53.1494 6.86035Q53.4668 6.73828 53.8574 6.54297L82.959-9.7168Q85.9375-11.377 87.4512-13.5742Q88.9648-15.7715 88.9648-20.1172L88.9648-50.9766Q88.9648-51.6602 88.916-52.2705Q88.8672-52.8809 88.7207-53.418L52.4902-33.0078Z"/>
  </g>
  <g id="Medium-S" transform="matrix(1 0 0 1 1697.41 696)">
   <path d="M49.1699-37.9883L85.498-58.3984Q84.5215-59.3262 83.0566-60.1074L56.9824-74.8535Q53.0762-77.0996 49.1699-77.0996Q45.2637-77.0996 41.4062-74.8535L15.2832-60.1074Q13.8184-59.3262 12.8418-58.3984ZM46.1426 7.27539L46.1426-32.666L10.0586-53.2227Q9.86328-52.6367 9.81445-51.9287Q9.76562-51.2207 9.76562-50.4395L9.76562-20.2148Q9.76562-15.7227 11.3037-13.5986Q12.8418-11.4746 15.7227-9.76562L45.0684 6.83594Q45.3613 6.98242 45.6299 7.08008Q45.8984 7.17773 46.1426 7.27539ZM52.1484 7.27539Q52.4414 7.17773 52.6855 7.08008Q52.9297 6.98242 53.2227 6.83594L82.5684-9.76562Q85.4492-11.4746 86.9873-13.5986Q88.5254-15.7227 88.5254-20.2148L88.5254-50.4395Q88.5254-51.2207 88.4766-51.9287Q88.4277-52.6367 88.2324-53.2227L52.1484-32.666Z"/>
  </g>
  <g id="Regular-S" transform="matrix(1 0 0 1 1400.97 696)">
   <path d="M48.877-37.1582L84.9121-57.7637Q83.9844-58.6426 82.6172-59.375L56.543-74.3652Q52.6367-76.6113 48.877-76.6113Q45.1172-76.6113 41.2598-74.3652L15.1367-59.375Q13.7695-58.6426 12.8418-57.7637ZM46.0449 7.51953L46.0449-32.1777L10.1074-52.9297Q9.91211-52.2461 9.83887-51.4404Q9.76562-50.6348 9.76562-49.7559L9.76562-20.3613Q9.76562-15.7227 11.3281-13.623Q12.8906-11.5234 15.6738-9.86328L45.3125 7.17773Q45.5078 7.27539 45.6787 7.34863Q45.8496 7.42188 46.0449 7.51953ZM51.709 7.51953Q51.9043 7.42188 52.0752 7.34863Q52.2461 7.27539 52.4414 7.17773L82.0801-9.86328Q84.8633-11.5234 86.4258-13.623Q87.9883-15.7227 87.9883-20.3613L87.9883-49.7559Q87.9883-50.6348 87.915-51.4404Q87.8418-52.2461 87.6465-52.9297L51.709-32.1777Z"/>
  </g>
  <g id="Light-S" transform="matrix(1 0 0 1 1104.79 696)">
   <path d="M48.3398-36.8652L84.375-57.2266Q83.6426-57.959 82.4219-58.6426L54.7363-74.3652Q51.416-76.2207 48.3398-76.2207Q45.2637-76.2207 41.9922-74.3652L14.2578-58.6426Q13.0371-57.959 12.3047-57.2266ZM45.9473 6.29883L45.9473-32.6172L10.0586-52.9297Q9.91211-52.3926 9.83887-51.709Q9.76562-51.0254 9.76562-50.2441L9.76562-20.1172Q9.76562-16.2598 11.0596-14.4287Q12.3535-12.5977 14.8926-11.1328L45.1172 5.95703Q45.3125 6.05469 45.5322 6.15234Q45.752 6.25 45.9473 6.29883ZM50.7324 6.29883Q50.9277 6.25 51.1475 6.15234Q51.3672 6.05469 51.5625 5.95703L81.7871-11.1328Q84.3262-12.5977 85.6201-14.4287Q86.9141-16.2598 86.9141-20.1172L86.9141-50.2441Q86.9141-51.0254 86.8408-51.709Q86.7676-52.3926 86.6211-52.9297L50.7324-32.6172Z"/>
  </g>
  <g id="Thin-S" transform="matrix(1 0 0 1 808.815 696)">
   <path d="M47.6074-36.4746L83.6914-56.4453Q83.2031-57.0801 82.1289-57.666L52.3438-74.3164Q49.8047-75.7324 47.6074-75.7324Q45.4102-75.7324 42.9199-74.3164L13.1348-57.6172Q12.0117-57.0312 11.5234-56.4453ZM45.8008 4.6875L45.8008-33.252L10.0098-52.9297Q9.86328-52.5391 9.81445-52.0508Q9.76562-51.5625 9.76562-50.9277L9.76562-19.7754Q9.76562-17.041 10.7422-15.5029Q11.7188-13.9648 13.8672-12.793L44.873 4.3457Q45.0684 4.44336 45.3125 4.56543Q45.5566 4.6875 45.8008 4.6875ZM49.4629 4.6875Q49.707 4.6875 49.9512 4.56543Q50.1953 4.44336 50.3906 4.3457L81.3965-12.793Q83.5449-13.9648 84.4971-15.5029Q85.4492-17.041 85.4492-19.7754L85.4492-50.9277Q85.4492-51.5625 85.4248-52.0508Q85.4004-52.5391 85.2539-52.9297L49.4629-33.252Z"/>
  </g>
  <g id="Ultralight-S" transform="matrix(1 0 0 1 512.47 696)">
   <path d="M47.2656-36.2793L83.3008-56.1035Q83.0078-56.5918 81.9824-57.1289L51.0742-74.3164Q49.0234-75.4883 47.2656-75.4883Q45.5078-75.4883 43.4082-74.3164L12.5488-57.1289Q11.5234-56.543 11.1816-56.1035ZM45.7031 3.90625L45.7031-33.5449L9.96094-52.9297Q9.86328-52.6367 9.81445-52.2461Q9.76562-51.8555 9.76562-51.2695L9.76562-19.5801Q9.76562-17.3828 10.5469-16.04Q11.3281-14.6973 13.3301-13.623L44.7266 3.51562Q44.9219 3.66211 45.2148 3.75977Q45.5078 3.85742 45.7031 3.90625ZM48.7793 3.90625Q49.0234 3.85742 49.292 3.75977Q49.5605 3.66211 49.8047 3.51562L81.2012-13.623Q83.2031-14.6973 83.96-16.04Q84.7168-17.3828 84.7168-19.5801L84.7168-51.2695Q84.7168-51.8555 84.6924-52.2461Q84.668-52.6367 84.5703-52.9297L48.7793-33.5449Z"/>
  </g>
 </g>
</svg>
