<?xml version="1.0" encoding="UTF-8"?>
<!--Generator: Apple Native CoreSVG 175-->
<!DOCTYPE svg
PUBLIC "-//W3C//DTD SVG 1.1//EN"
       "http://www.w3.org/Graphics/SVG/1.1/DTD/svg11.dtd">
<svg version="1.1" xmlns="http://www.w3.org/2000/svg" xmlns:xlink="http://www.w3.org/1999/xlink" width="3300" height="2200">
 <!--glyph: "uni100878.medium", point size: 100.0, font version: "17.0d11e1", template writer version: "65.1"-->
 <g id="Notes">
  <rect height="2200" id="artboard" style="fill:white;opacity:1" width="3300" x="0" y="0"/>
  <line style="fill:none;stroke:black;opacity:1;stroke-width:0.5;" x1="263" x2="3036" y1="292" y2="292"/>
  <text style="stroke:none;fill:black;font-family:sans-serif;font-size:13;font-weight:bold;" transform="matrix(1 0 0 1 263 322)">Weight/Scale Variations</text>
  <text style="stroke:none;fill:black;font-family:sans-serif;font-size:13;text-anchor:middle;" transform="matrix(1 0 0 1 559.711 322)">Ultralight</text>
  <text style="stroke:none;fill:black;font-family:sans-serif;font-size:13;text-anchor:middle;" transform="matrix(1 0 0 1 856.422 322)">Thin</text>
  <text style="stroke:none;fill:black;font-family:sans-serif;font-size:13;text-anchor:middle;" transform="matrix(1 0 0 1 1153.13 322)">Light</text>
  <text style="stroke:none;fill:black;font-family:sans-serif;font-size:13;text-anchor:middle;" transform="matrix(1 0 0 1 1449.84 322)">Regular</text>
  <text style="stroke:none;fill:black;font-family:sans-serif;font-size:13;text-anchor:middle;" transform="matrix(1 0 0 1 1746.56 322)">Medium</text>
  <text style="stroke:none;fill:black;font-family:sans-serif;font-size:13;text-anchor:middle;" transform="matrix(1 0 0 1 2043.27 322)">Semibold</text>
  <text style="stroke:none;fill:black;font-family:sans-serif;font-size:13;text-anchor:middle;" transform="matrix(1 0 0 1 2339.98 322)">Bold</text>
  <text style="stroke:none;fill:black;font-family:sans-serif;font-size:13;text-anchor:middle;" transform="matrix(1 0 0 1 2636.69 322)">Heavy</text>
  <text style="stroke:none;fill:black;font-family:sans-serif;font-size:13;text-anchor:middle;" transform="matrix(1 0 0 1 2933.4 322)">Black</text>
  <line style="fill:none;stroke:black;opacity:1;stroke-width:0.5;" x1="263" x2="3036" y1="1903" y2="1903"/>
  <g transform="matrix(1 0 0 1 263 1933)">
   <path d="M9.24805 0.830078Q10.8691 0.830078 12.2949 0.214844Q13.7207-0.400391 14.8096-1.49414Q15.8984-2.58789 16.5186-4.01367Q17.1387-5.43945 17.1387-7.05078Q17.1387-8.66211 16.5186-10.0879Q15.8984-11.5137 14.8047-12.6074Q13.7109-13.7012 12.2852-14.3164Q10.8594-14.9316 9.23828-14.9316Q7.62695-14.9316 6.20117-14.3164Q4.77539-13.7012 3.69141-12.6074Q2.60742-11.5137 1.9873-10.0879Q1.36719-8.66211 1.36719-7.05078Q1.36719-5.43945 1.9873-4.01367Q2.60742-2.58789 3.69629-1.49414Q4.78516-0.400391 6.21094 0.214844Q7.63672 0.830078 9.24805 0.830078ZM9.24805-0.654297Q7.91992-0.654297 6.7627-1.14746Q5.60547-1.64062 4.73145-2.51953Q3.85742-3.39844 3.36426-4.56055Q2.87109-5.72266 2.87109-7.05078Q2.87109-8.37891 3.35938-9.54102Q3.84766-10.7031 4.72168-11.582Q5.5957-12.4609 6.75293-12.9541Q7.91016-13.4473 9.23828-13.4473Q10.5762-13.4473 11.7334-12.9541Q12.8906-12.4609 13.7695-11.582Q14.6484-10.7031 15.1465-9.54102Q15.6445-8.37891 15.6445-7.05078Q15.6445-5.72266 15.1514-4.56055Q14.6582-3.39844 13.7842-2.51953Q12.9102-1.64062 11.748-1.14746Q10.5859-0.654297 9.24805-0.654297ZM5.6543-7.05078Q5.6543-6.72852 5.85938-6.52832Q6.06445-6.32812 6.40625-6.32812L8.51562-6.32812L8.51562-4.20898Q8.51562-3.88672 8.71094-3.67676Q8.90625-3.4668 9.23828-3.4668Q9.56055-3.4668 9.77051-3.67676Q9.98047-3.88672 9.98047-4.20898L9.98047-6.32812L12.0898-6.32812Q12.4219-6.32812 12.627-6.52832Q12.832-6.72852 12.832-7.05078Q12.832-7.38281 12.627-7.58789Q12.4219-7.79297 12.0898-7.79297L9.98047-7.79297L9.98047-9.90234Q9.98047-10.2344 9.77051-10.4443Q9.56055-10.6543 9.23828-10.6543Q8.90625-10.6543 8.71094-10.4443Q8.51562-10.2344 8.51562-9.90234L8.51562-7.79297L6.40625-7.79297Q6.06445-7.79297 5.85938-7.58789Q5.6543-7.38281 5.6543-7.05078Z"/>
  </g>
  <g transform="matrix(1 0 0 1 281.867 1933)">
   <path d="M11.709 2.91016Q13.75 2.91016 15.5518 2.12891Q17.3535 1.34766 18.7305-0.0292969Q20.1074-1.40625 20.8887-3.20801Q21.6699-5.00977 21.6699-7.05078Q21.6699-9.0918 20.8887-10.8936Q20.1074-12.6953 18.7305-14.0723Q17.3535-15.4492 15.5469-16.2305Q13.7402-17.0117 11.6992-17.0117Q9.6582-17.0117 7.85645-16.2305Q6.05469-15.4492 4.68262-14.0723Q3.31055-12.6953 2.5293-10.8936Q1.74805-9.0918 1.74805-7.05078Q1.74805-5.00977 2.5293-3.20801Q3.31055-1.40625 4.6875-0.0292969Q6.06445 1.34766 7.86621 2.12891Q9.66797 2.91016 11.709 2.91016ZM11.709 1.25Q9.98047 1.25 8.47656 0.605469Q6.97266-0.0390625 5.83496-1.17676Q4.69727-2.31445 4.05762-3.81836Q3.41797-5.32227 3.41797-7.05078Q3.41797-8.7793 4.05762-10.2832Q4.69727-11.7871 5.83008-12.9297Q6.96289-14.0723 8.4668-14.7119Q9.9707-15.3516 11.6992-15.3516Q13.4277-15.3516 14.9316-14.7119Q16.4355-14.0723 17.5781-12.9297Q18.7207-11.7871 19.3652-10.2832Q20.0098-8.7793 20.0098-7.05078Q20.0098-5.32227 19.3701-3.81836Q18.7305-2.31445 17.5928-1.17676Q16.4551-0.0390625 14.9463 0.605469Q13.4375 1.25 11.709 1.25ZM7.17773-7.05078Q7.17773-6.69922 7.41211-6.47461Q7.64648-6.25 8.01758-6.25L10.8887-6.25L10.8887-3.36914Q10.8887-2.99805 11.1133-2.76855Q11.3379-2.53906 11.6895-2.53906Q12.0605-2.53906 12.29-2.76855Q12.5195-2.99805 12.5195-3.36914L12.5195-6.25L15.4004-6.25Q15.7715-6.25 16.001-6.47461Q16.2305-6.69922 16.2305-7.05078Q16.2305-7.42188 16.001-7.65137Q15.7715-7.88086 15.4004-7.88086L12.5195-7.88086L12.5195-10.752Q12.5195-11.1328 12.29-11.3623Q12.0605-11.5918 11.6895-11.5918Q11.3379-11.5918 11.1133-11.3574Q10.8887-11.123 10.8887-10.752L10.8887-7.88086L8.01758-7.88086Q7.63672-7.88086 7.40723-7.65137Q7.17773-7.42188 7.17773-7.05078Z"/>
  </g>
  <g transform="matrix(1 0 0 1 305.646 1933)">
   <path d="M14.9707 5.66406Q17.0605 5.66406 18.96 5.01465Q20.8594 4.36523 22.4512 3.19336Q24.043 2.02148 25.2197 0.429688Q26.3965-1.16211 27.0459-3.06641Q27.6953-4.9707 27.6953-7.05078Q27.6953-9.14062 27.0459-11.04Q26.3965-12.9395 25.2197-14.5312Q24.043-16.123 22.4512-17.2998Q20.8594-18.4766 18.9551-19.126Q17.0508-19.7754 14.9609-19.7754Q12.8711-19.7754 10.9717-19.126Q9.07227-18.4766 7.48535-17.2998Q5.89844-16.123 4.72168-14.5312Q3.54492-12.9395 2.90039-11.04Q2.25586-9.14062 2.25586-7.05078Q2.25586-4.9707 2.90527-3.06641Q3.55469-1.16211 4.72656 0.429688Q5.89844 2.02148 7.49023 3.19336Q9.08203 4.36523 10.9814 5.01465Q12.8809 5.66406 14.9707 5.66406ZM14.9707 3.84766Q13.1641 3.84766 11.5283 3.2959Q9.89258 2.74414 8.53516 1.74805Q7.17773 0.751953 6.17676-0.610352Q5.17578-1.97266 4.62891-3.6084Q4.08203-5.24414 4.08203-7.05078Q4.08203-8.86719 4.62891-10.5029Q5.17578-12.1387 6.17188-13.501Q7.16797-14.8633 8.52539-15.8594Q9.88281-16.8555 11.5186-17.4023Q13.1543-17.9492 14.9609-17.9492Q16.7773-17.9492 18.4131-17.4023Q20.0488-16.8555 21.4111-15.8594Q22.7734-14.8633 23.7695-13.501Q24.7656-12.1387 25.3174-10.5029Q25.8691-8.86719 25.8691-7.05078Q25.8789-5.24414 25.332-3.6084Q24.7852-1.97266 23.7842-0.610352Q22.7832 0.751953 21.4209 1.74805Q20.0586 2.74414 18.4229 3.2959Q16.7871 3.84766 14.9707 3.84766ZM9.19922-7.05078Q9.19922-6.66992 9.45801-6.4209Q9.7168-6.17188 10.1172-6.17188L14.0625-6.17188L14.0625-2.2168Q14.0625-1.81641 14.3115-1.55762Q14.5605-1.29883 14.9512-1.29883Q15.3516-1.29883 15.6104-1.55273Q15.8691-1.80664 15.8691-2.2168L15.8691-6.17188L19.8242-6.17188Q20.2246-6.17188 20.4785-6.4209Q20.7324-6.66992 20.7324-7.05078Q20.7324-7.46094 20.4785-7.71484Q20.2246-7.96875 19.8242-7.96875L15.8691-7.96875L15.8691-11.9141Q15.8691-12.3242 15.6104-12.583Q15.3516-12.8418 14.9512-12.8418Q14.5605-12.8418 14.3115-12.583Q14.0625-12.3242 14.0625-11.9141L14.0625-7.96875L10.1172-7.96875Q9.70703-7.96875 9.45312-7.71484Q9.19922-7.46094 9.19922-7.05078Z"/>
  </g>
  <text style="stroke:none;fill:black;font-family:sans-serif;font-size:13;font-weight:bold;" transform="matrix(1 0 0 1 263 1953)">Design Variations</text>
  <text style="stroke:none;fill:black;font-family:sans-serif;font-size:13;" transform="matrix(1 0 0 1 263 1971)">Symbols are supported in up to nine weights and three scales.</text>
  <text style="stroke:none;fill:black;font-family:sans-serif;font-size:13;" transform="matrix(1 0 0 1 263 1989)">For optimal layout with text and other symbols, vertically align</text>
  <text style="stroke:none;fill:black;font-family:sans-serif;font-size:13;" transform="matrix(1 0 0 1 263 2007)">symbols with the adjacent text.</text>
  <line style="fill:none;stroke:#00AEEF;stroke-width:0.5;opacity:1.0;" x1="776" x2="776" y1="1919" y2="1933"/>
  <g transform="matrix(1 0 0 1 776 1933)">
   <path d="M3.31055 0.15625Q3.70117 0.15625 3.91602-0.00976562Q4.13086-0.175781 4.26758-0.585938L5.52734-4.0332L11.2891-4.0332L12.5488-0.585938Q12.6855-0.175781 12.9004-0.00976562Q13.1152 0.15625 13.4961 0.15625Q13.8867 0.15625 14.1162-0.0585938Q14.3457-0.273438 14.3457-0.644531Q14.3457-0.869141 14.2383-1.17188L9.6582-13.3691Q9.48242-13.8184 9.17969-14.043Q8.87695-14.2676 8.4082-14.2676Q7.5-14.2676 7.17773-13.3789L2.59766-1.16211Q2.49023-0.859375 2.49023-0.634766Q2.49023-0.263672 2.70996-0.0537109Q2.92969 0.15625 3.31055 0.15625ZM6.00586-5.51758L8.37891-12.0898L8.42773-12.0898L10.8008-5.51758Z"/>
  </g>
  <line style="fill:none;stroke:#00AEEF;stroke-width:0.5;opacity:1.0;" x1="793.197" x2="793.197" y1="1919" y2="1933"/>
  <text style="stroke:none;fill:black;font-family:sans-serif;font-size:13;font-weight:bold;" transform="matrix(1 0 0 1 776 1953)">Margins</text>
  <text style="stroke:none;fill:black;font-family:sans-serif;font-size:13;" transform="matrix(1 0 0 1 776 1971)">Leading and trailing margins on the left and right side of each symbol</text>
  <text style="stroke:none;fill:black;font-family:sans-serif;font-size:13;" transform="matrix(1 0 0 1 776 1989)">can be adjusted by modifying the x-location of the margin guidelines.</text>
  <text style="stroke:none;fill:black;font-family:sans-serif;font-size:13;" transform="matrix(1 0 0 1 776 2007)">Modifications are automatically applied proportionally to all</text>
  <text style="stroke:none;fill:black;font-family:sans-serif;font-size:13;" transform="matrix(1 0 0 1 776 2025)">scales and weights.</text>
  <g transform="matrix(1 0 0 1 1289 1933)">
   <path d="M2.8418 1.86523L4.54102 3.57422Q5.18555 4.22852 5.90332 4.17969Q6.62109 4.13086 7.31445 3.35938L18.0078-8.42773L17.041-9.4043L6.42578 2.27539Q6.16211 2.57812 5.89355 2.61719Q5.625 2.65625 5.27344 2.30469L4.10156 1.14258Q3.75 0.791016 3.79395 0.522461Q3.83789 0.253906 4.14062-0.0195312L15.6152-10.8203L14.6387-11.7871L3.04688-0.898438Q2.30469-0.214844 2.25098 0.498047Q2.19727 1.21094 2.8418 1.86523ZM9.25781-16.3281Q8.94531-16.0254 8.90625-15.6348Q8.86719-15.2441 9.04297-14.9512Q9.21875-14.6777 9.55566-14.541Q9.89258-14.4043 10.3809-14.5215Q11.4746-14.7754 12.5977-14.7314Q13.7207-14.6875 14.7949-13.9844L14.209-12.5293Q13.9551-11.9043 14.0674-11.4404Q14.1797-10.9766 14.5801-10.5664L16.875-8.25195Q17.2363-7.88086 17.5781-7.82227Q17.9199-7.76367 18.3398-7.8418L19.4043-8.03711L20.0684-7.36328L20.0293-6.80664Q20-6.43555 20.1221-6.12305Q20.2441-5.81055 20.6055-5.44922L21.3672-4.70703Q21.7285-4.3457 22.1533-4.33105Q22.5781-4.31641 22.9297-4.66797L25.8398-7.58789Q26.1914-7.93945 26.1816-8.35449Q26.1719-8.76953 25.8105-9.13086L25.0391-9.89258Q24.6875-10.2539 24.3799-10.3857Q24.0723-10.5176 23.7109-10.4883L23.1348-10.4395L22.4902-11.0742L22.7344-12.1973Q22.832-12.6172 22.6953-12.9834Q22.5586-13.3496 22.1191-13.7891L19.9219-15.9766Q18.6719-17.2168 17.2607-17.8369Q15.8496-18.457 14.4189-18.4814Q12.9883-18.5059 11.665-17.959Q10.3418-17.4121 9.25781-16.3281ZM10.752-15.957Q11.6602-16.6211 12.7002-16.9043Q13.7402-17.1875 14.8047-17.085Q15.8691-16.9824 16.8701-16.5137Q17.8711-16.0449 18.7012-15.2051L21.1328-12.793Q21.3086-12.6172 21.3525-12.4512Q21.3965-12.2852 21.3379-12.0312L21.0156-10.5469L22.5195-9.0625L23.5059-9.12109Q23.6914-9.13086 23.7891-9.09668Q23.8867-9.0625 24.0332-8.91602L24.6094-8.33984L22.168-5.89844L21.5918-6.47461Q21.4453-6.62109 21.4062-6.71875Q21.3672-6.81641 21.377-7.01172L21.4453-7.98828L19.9512-9.47266L18.4277-9.21875Q18.1836-9.16992 18.042-9.2041Q17.9004-9.23828 17.7148-9.41406L15.7129-11.416Q15.5176-11.5918 15.4932-11.7529Q15.4688-11.9141 15.5859-12.1875L16.4648-14.2773Q15.293-15.3711 13.8281-15.791Q12.3633-16.2109 10.8398-15.7617Q10.7227-15.7324 10.6885-15.8057Q10.6543-15.8789 10.752-15.957Z"/>
  </g>
  <text style="stroke:none;fill:black;font-family:sans-serif;font-size:13;font-weight:bold;" transform="matrix(1 0 0 1 1289 1953)">Exporting</text>
  <text style="stroke:none;fill:black;font-family:sans-serif;font-size:13;" transform="matrix(1 0 0 1 1289 1971)">Symbols should be outlined when exporting to ensure the</text>
  <text style="stroke:none;fill:black;font-family:sans-serif;font-size:13;" transform="matrix(1 0 0 1 1289 1989)">design is preserved when submitting to Xcode.</text>
  <text id="template-version" style="stroke:none;fill:black;font-family:sans-serif;font-size:13;text-anchor:end;" transform="matrix(1 0 0 1 3036 1933)">Template v.3.0</text>
  <text style="stroke:none;fill:black;font-family:sans-serif;font-size:13;text-anchor:end;" transform="matrix(1 0 0 1 3036 1951)">Requires Xcode 13 or greater</text>
  <text id="descriptive-name" style="stroke:none;fill:black;font-family:sans-serif;font-size:13;text-anchor:end;" transform="matrix(1 0 0 1 3036 1969)">Generated from powerplug.fill</text>
  <text style="stroke:none;fill:black;font-family:sans-serif;font-size:13;text-anchor:end;" transform="matrix(1 0 0 1 3036 1987)">Typeset at 100 points</text>
  <text style="stroke:none;fill:black;font-family:sans-serif;font-size:13;" transform="matrix(1 0 0 1 263 726)">Small</text>
  <text style="stroke:none;fill:black;font-family:sans-serif;font-size:13;" transform="matrix(1 0 0 1 263 1156)">Medium</text>
  <text style="stroke:none;fill:black;font-family:sans-serif;font-size:13;" transform="matrix(1 0 0 1 263 1586)">Large</text>
 </g>
 <g id="Guides">
  <g id="H-reference" style="fill:#27AAE1;stroke:none;" transform="matrix(1 0 0 1 339 696)">
   <path d="M0.976562 0L3.66211 0L29.3457-67.1387L30.0293-67.1387L30.0293-70.459L28.125-70.459ZM11.6699-24.4629L46.9727-24.4629L46.2402-26.709L12.4512-26.709ZM55.127 0L57.7637 0L30.6152-70.459L29.4434-70.459L29.4434-67.1387Z"/>
  </g>
  <line id="Baseline-S" style="fill:none;stroke:#27AAE1;opacity:1;stroke-width:0.5;" x1="263" x2="3036" y1="696" y2="696"/>
  <line id="Capline-S" style="fill:none;stroke:#27AAE1;opacity:1;stroke-width:0.5;" x1="263" x2="3036" y1="625.541" y2="625.541"/>
  <g id="H-reference" style="fill:#27AAE1;stroke:none;" transform="matrix(1 0 0 1 339 1126)">
   <path d="M0.976562 0L3.66211 0L29.3457-67.1387L30.0293-67.1387L30.0293-70.459L28.125-70.459ZM11.6699-24.4629L46.9727-24.4629L46.2402-26.709L12.4512-26.709ZM55.127 0L57.7637 0L30.6152-70.459L29.4434-70.459L29.4434-67.1387Z"/>
  </g>
  <line id="Baseline-M" style="fill:none;stroke:#27AAE1;opacity:1;stroke-width:0.5;" x1="263" x2="3036" y1="1126" y2="1126"/>
  <line id="Capline-M" style="fill:none;stroke:#27AAE1;opacity:1;stroke-width:0.5;" x1="263" x2="3036" y1="1055.54" y2="1055.54"/>
  <g id="H-reference" style="fill:#27AAE1;stroke:none;" transform="matrix(1 0 0 1 339 1556)">
   <path d="M0.976562 0L3.66211 0L29.3457-67.1387L30.0293-67.1387L30.0293-70.459L28.125-70.459ZM11.6699-24.4629L46.9727-24.4629L46.2402-26.709L12.4512-26.709ZM55.127 0L57.7637 0L30.6152-70.459L29.4434-70.459L29.4434-67.1387Z"/>
  </g>
  <line id="Baseline-L" style="fill:none;stroke:#27AAE1;opacity:1;stroke-width:0.5;" x1="263" x2="3036" y1="1556" y2="1556"/>
  <line id="Capline-L" style="fill:none;stroke:#27AAE1;opacity:1;stroke-width:0.5;" x1="263" x2="3036" y1="1485.54" y2="1485.54"/>
  <line id="left-margin-Ultralight-S" style="fill:none;stroke:#00AEEF;stroke-width:0.5;opacity:1.0;" x1="499.604" x2="499.604" y1="600.785" y2="720.121"/>
  <line id="right-margin-Ultralight-S" style="fill:none;stroke:#00AEEF;stroke-width:0.5;opacity:1.0;" x1="619.819" x2="619.819" y1="600.785" y2="720.121"/>
  <line id="left-margin-Thin-S" style="fill:none;stroke:#00AEEF;stroke-width:0.5;opacity:1.0;" x1="795.534" x2="795.534" y1="600.785" y2="720.121"/>
  <line id="right-margin-Thin-S" style="fill:none;stroke:#00AEEF;stroke-width:0.5;opacity:1.0;" x1="917.311" x2="917.311" y1="600.785" y2="720.121"/>
  <line id="left-margin-Light-S" style="fill:none;stroke:#00AEEF;stroke-width:0.5;opacity:1.0;" x1="1090.73" x2="1090.73" y1="600.785" y2="720.121"/>
  <line id="right-margin-Light-S" style="fill:none;stroke:#00AEEF;stroke-width:0.5;opacity:1.0;" x1="1215.54" x2="1215.54" y1="600.785" y2="720.121"/>
  <line id="left-margin-Regular-S" style="fill:none;stroke:#00AEEF;stroke-width:0.5;opacity:1.0;" x1="1386.29" x2="1386.29" y1="600.785" y2="720.121"/>
  <line id="right-margin-Regular-S" style="fill:none;stroke:#00AEEF;stroke-width:0.5;opacity:1.0;" x1="1513.39" x2="1513.39" y1="600.785" y2="720.121"/>
  <line id="left-margin-Medium-S" style="fill:none;stroke:#00AEEF;stroke-width:0.5;opacity:1.0;" x1="1682.1" x2="1682.1" y1="600.785" y2="720.121"/>
  <line id="right-margin-Medium-S" style="fill:none;stroke:#00AEEF;stroke-width:0.5;opacity:1.0;" x1="1811.01" x2="1811.01" y1="600.785" y2="720.121"/>
  <line id="left-margin-Semibold-S" style="fill:none;stroke:#00AEEF;stroke-width:0.5;opacity:1.0;" x1="1978.11" x2="1978.11" y1="600.785" y2="720.121"/>
  <line id="right-margin-Semibold-S" style="fill:none;stroke:#00AEEF;stroke-width:0.5;opacity:1.0;" x1="2108.43" x2="2108.43" y1="600.785" y2="720.121"/>
  <line id="left-margin-Bold-S" style="fill:none;stroke:#00AEEF;stroke-width:0.5;opacity:1.0;" x1="2273.89" x2="2273.89" y1="600.785" y2="720.121"/>
  <line id="right-margin-Bold-S" style="fill:none;stroke:#00AEEF;stroke-width:0.5;opacity:1.0;" x1="2406.07" x2="2406.07" y1="600.785" y2="720.121"/>
  <line id="left-margin-Heavy-S" style="fill:none;stroke:#00AEEF;stroke-width:0.5;opacity:1.0;" x1="2569.26" x2="2569.26" y1="600.785" y2="720.121"/>
  <line id="right-margin-Heavy-S" style="fill:none;stroke:#00AEEF;stroke-width:0.5;opacity:1.0;" x1="2704.12" x2="2704.12" y1="600.785" y2="720.121"/>
  <line id="left-margin-Black-S" style="fill:none;stroke:#00AEEF;stroke-width:0.5;opacity:1.0;" x1="2864.77" x2="2864.77" y1="600.785" y2="720.121"/>
  <line id="right-margin-Black-S" style="fill:none;stroke:#00AEEF;stroke-width:0.5;opacity:1.0;" x1="3002.03" x2="3002.03" y1="600.785" y2="720.121"/>
  <line id="left-margin-Ultralight-M" style="fill:none;stroke:#00AEEF;stroke-width:0.5;opacity:1.0;" x1="483.32" x2="483.32" y1="1030.79" y2="1150.12"/>
  <line id="right-margin-Ultralight-M" style="fill:none;stroke:#00AEEF;stroke-width:0.5;opacity:1.0;" x1="636.103" x2="636.103" y1="1030.79" y2="1150.12"/>
  <line id="left-margin-Thin-M" style="fill:none;stroke:#00AEEF;stroke-width:0.5;opacity:1.0;" x1="779.152" x2="779.152" y1="1030.79" y2="1150.12"/>
  <line id="right-margin-Thin-M" style="fill:none;stroke:#00AEEF;stroke-width:0.5;opacity:1.0;" x1="933.693" x2="933.693" y1="1030.79" y2="1150.12"/>
  <line id="left-margin-Light-M" style="fill:none;stroke:#00AEEF;stroke-width:0.5;opacity:1.0;" x1="1074.13" x2="1074.13" y1="1030.79" y2="1150.12"/>
  <line id="right-margin-Light-M" style="fill:none;stroke:#00AEEF;stroke-width:0.5;opacity:1.0;" x1="1232.14" x2="1232.14" y1="1030.79" y2="1150.12"/>
  <line id="left-margin-Regular-M" style="fill:none;stroke:#00AEEF;stroke-width:0.5;opacity:1.0;" x1="1369.55" x2="1369.55" y1="1030.79" y2="1150.12"/>
  <line id="right-margin-Regular-M" style="fill:none;stroke:#00AEEF;stroke-width:0.5;opacity:1.0;" x1="1530.14" x2="1530.14" y1="1030.79" y2="1150.12"/>
  <line id="left-margin-Medium-M" style="fill:none;stroke:#00AEEF;stroke-width:0.5;opacity:1.0;" x1="1665.04" x2="1665.04" y1="1030.79" y2="1150.12"/>
  <line id="right-margin-Medium-M" style="fill:none;stroke:#00AEEF;stroke-width:0.5;opacity:1.0;" x1="1828.07" x2="1828.07" y1="1030.79" y2="1150.12"/>
  <line id="left-margin-Semibold-M" style="fill:none;stroke:#00AEEF;stroke-width:0.5;opacity:1.0;" x1="1960.82" x2="1960.82" y1="1030.79" y2="1150.12"/>
  <line id="right-margin-Semibold-M" style="fill:none;stroke:#00AEEF;stroke-width:0.5;opacity:1.0;" x1="2125.71" x2="2125.71" y1="1030.79" y2="1150.12"/>
  <line id="left-margin-Bold-M" style="fill:none;stroke:#00AEEF;stroke-width:0.5;opacity:1.0;" x1="2256.29" x2="2256.29" y1="1030.79" y2="1150.12"/>
  <line id="right-margin-Bold-M" style="fill:none;stroke:#00AEEF;stroke-width:0.5;opacity:1.0;" x1="2423.67" x2="2423.67" y1="1030.79" y2="1150.12"/>
  <line id="left-margin-Heavy-M" style="fill:none;stroke:#00AEEF;stroke-width:0.5;opacity:1.0;" x1="2551.22" x2="2551.22" y1="1030.79" y2="1150.12"/>
  <line id="right-margin-Heavy-M" style="fill:none;stroke:#00AEEF;stroke-width:0.5;opacity:1.0;" x1="2722.16" x2="2722.16" y1="1030.79" y2="1150.12"/>
  <line id="left-margin-Black-M" style="fill:none;stroke:#00AEEF;stroke-width:0.5;opacity:1.0;" x1="2846.34" x2="2846.34" y1="1030.79" y2="1150.12"/>
  <line id="right-margin-Black-M" style="fill:none;stroke:#00AEEF;stroke-width:0.5;opacity:1.0;" x1="3020.46" x2="3020.46" y1="1030.79" y2="1150.12"/>
  <line id="left-margin-Ultralight-L" style="fill:none;stroke:#00AEEF;stroke-width:0.5;opacity:1.0;" x1="461.542" x2="461.542" y1="1460.79" y2="1580.12"/>
  <line id="right-margin-Ultralight-L" style="fill:none;stroke:#00AEEF;stroke-width:0.5;opacity:1.0;" x1="657.88" x2="657.88" y1="1460.79" y2="1580.12"/>
  <line id="left-margin-Thin-L" style="fill:none;stroke:#00AEEF;stroke-width:0.5;opacity:1.0;" x1="757.252" x2="757.252" y1="1460.79" y2="1580.12"/>
  <line id="right-margin-Thin-L" style="fill:none;stroke:#00AEEF;stroke-width:0.5;opacity:1.0;" x1="955.592" x2="955.592" y1="1460.79" y2="1580.12"/>
  <line id="left-margin-Light-L" style="fill:none;stroke:#00AEEF;stroke-width:0.5;opacity:1.0;" x1="1052.06" x2="1052.06" y1="1460.79" y2="1580.12"/>
  <line id="right-margin-Light-L" style="fill:none;stroke:#00AEEF;stroke-width:0.5;opacity:1.0;" x1="1254.21" x2="1254.21" y1="1460.79" y2="1580.12"/>
  <line id="left-margin-Regular-L" style="fill:none;stroke:#00AEEF;stroke-width:0.5;opacity:1.0;" x1="1347.31" x2="1347.31" y1="1460.79" y2="1580.12"/>
  <line id="right-margin-Regular-L" style="fill:none;stroke:#00AEEF;stroke-width:0.5;opacity:1.0;" x1="1552.38" x2="1552.38" y1="1460.79" y2="1580.12"/>
  <line id="left-margin-Medium-L" style="fill:none;stroke:#00AEEF;stroke-width:0.5;opacity:1.0;" x1="1642.53" x2="1642.53" y1="1460.79" y2="1580.12"/>
  <line id="right-margin-Medium-L" style="fill:none;stroke:#00AEEF;stroke-width:0.5;opacity:1.0;" x1="1850.58" x2="1850.58" y1="1460.79" y2="1580.12"/>
  <line id="left-margin-Semibold-L" style="fill:none;stroke:#00AEEF;stroke-width:0.5;opacity:1.0;" x1="1938.09" x2="1938.09" y1="1460.79" y2="1580.12"/>
  <line id="right-margin-Semibold-L" style="fill:none;stroke:#00AEEF;stroke-width:0.5;opacity:1.0;" x1="2148.44" x2="2148.44" y1="1460.79" y2="1580.12"/>
  <line id="left-margin-Bold-L" style="fill:none;stroke:#00AEEF;stroke-width:0.5;opacity:1.0;" x1="2233.29" x2="2233.29" y1="1460.79" y2="1580.12"/>
  <line id="right-margin-Bold-L" style="fill:none;stroke:#00AEEF;stroke-width:0.5;opacity:1.0;" x1="2446.67" x2="2446.67" y1="1460.79" y2="1580.12"/>
  <line id="left-margin-Heavy-L" style="fill:none;stroke:#00AEEF;stroke-width:0.5;opacity:1.0;" x1="2527.83" x2="2527.83" y1="1460.79" y2="1580.12"/>
  <line id="right-margin-Heavy-L" style="fill:none;stroke:#00AEEF;stroke-width:0.5;opacity:1.0;" x1="2745.55" x2="2745.55" y1="1460.79" y2="1580.12"/>
  <line id="left-margin-Black-L" style="fill:none;stroke:#00AEEF;stroke-width:0.5;opacity:1.0;" x1="2822.58" x2="2822.58" y1="1460.79" y2="1580.12"/>
  <line id="right-margin-Black-L" style="fill:none;stroke:#00AEEF;stroke-width:0.5;opacity:1.0;" x1="3044.22" x2="3044.22" y1="1460.79" y2="1580.12"/>
 </g>
 <g id="Symbols">
  <g id="Black-L" transform="matrix(1 0 0 1 2822.58 1556)">
   <path d="M16.0645-22.5098Q16.0645-13.0371 21.1182-8.05664Q26.1719-3.07617 35.6934-3.07617L58.1055-3.07617Q62.3047-3.07617 65.2832-2.27051Q68.2617-1.46484 70.7275 0.537109Q73.1934 2.53906 75.9766 6.15234Q84.4727 17.2852 96.9971 23.3154Q109.521 29.3457 123.486 29.3457L149.365 29.3457Q154.15 29.3457 157.178 26.3184Q160.205 23.291 160.205 18.5059L160.205-89.209Q160.205-93.9941 157.178-97.0215Q154.15-100.049 149.365-100.049L123.486-100.049Q114.16-100.049 105.42-97.3389Q96.6797-94.6289 89.1602-89.4531Q81.6406-84.2773 75.9766-76.8555Q73.1934-73.1934 70.7275-71.1914Q68.2617-69.1895 65.2832-68.4082Q62.3047-67.627 58.1055-67.627L35.6934-67.627Q26.1719-67.627 21.1182-62.6465Q16.0645-57.666 16.0645-48.1934ZM151.953-46.7773L191.943-46.7773Q195.703-46.7773 198.779-48.6328Q201.855-50.4883 203.711-53.5645Q205.566-56.6406 205.566-60.4004Q205.566-64.1113 203.711-67.2119Q201.855-70.3125 198.779-72.1436Q195.703-73.9746 191.943-73.9746L151.953-73.9746ZM151.953 4.54102L191.943 4.54102Q195.703 4.54102 198.779 2.70996Q201.855 0.878906 203.711-2.19727Q205.566-5.27344 205.566-9.0332Q205.566-12.793 203.711-15.8691Q201.855-18.9453 198.779-20.7764Q195.703-22.6074 191.943-22.6074L151.953-22.6074Z"/>
  </g>
  <g id="Heavy-L" transform="matrix(1 0 0 1 2527.83 1556)">
   <path d="M16.0645-22.4121Q16.0645-13.6719 20.7275-9.08203Q25.3906-4.49219 34.1797-4.49219L56.5918-4.49219Q60.9375-4.49219 64.0625-3.66211Q67.1875-2.83203 69.7754-0.732422Q72.3633 1.36719 75.2441 5.07812Q83.5449 15.9668 95.7031 21.8262Q107.861 27.6855 121.436 27.6855L146.484 27.6855Q151.025 27.6855 153.857 24.8779Q156.689 22.0703 156.689 17.5781L156.689-88.3301Q156.689-92.8223 153.857-95.6055Q151.025-98.3887 146.484-98.3887L121.436-98.3887Q112.402-98.3887 103.906-95.7764Q95.4102-93.1641 88.0859-88.1104Q80.7617-83.0566 75.2441-75.7812Q72.3633-72.0215 69.7754-69.9219Q67.1875-67.8223 64.0625-67.0166Q60.9375-66.2109 56.5918-66.2109L34.1797-66.2109Q25.3906-66.2109 20.7275-61.6211Q16.0645-57.0312 16.0645-48.291ZM149.854-47.6074L189.014-47.6074Q192.529-47.6074 195.386-49.3164Q198.242-51.0254 199.951-53.8818Q201.66-56.7383 201.66-60.2051Q201.66-63.6719 199.951-66.5527Q198.242-69.4336 195.386-71.1182Q192.529-72.8027 189.014-72.8027L149.854-72.8027ZM149.854 3.07617L189.014 3.07617Q192.529 3.07617 195.386 1.36719Q198.242-0.341797 199.951-3.19824Q201.66-6.05469 201.66-9.52148Q201.66-12.9883 199.951-15.8447Q198.242-18.7012 195.386-20.4102Q192.529-22.1191 189.014-22.1191L149.854-22.1191Z"/>
  </g>
  <g id="Bold-L" transform="matrix(1 0 0 1 2233.29 1556)">
   <path d="M16.0645-22.3633Q16.0645-14.4043 20.2881-10.2539Q24.5117-6.10352 32.5195-6.10352L54.9316-6.10352Q59.4238-6.10352 62.7197-5.22461Q66.0156-4.3457 68.75-2.14844Q71.4844 0.0488281 74.4141 3.90625Q82.4707 14.5508 94.2627 20.2148Q106.055 25.8789 119.141 25.8789L143.311 25.8789Q147.559 25.8789 150.171 23.3154Q152.783 20.752 152.783 16.5039L152.783-87.4023Q152.783-91.5039 150.146-94.043Q147.51-96.582 143.311-96.582L119.141-96.582Q110.4-96.582 102.173-94.043Q93.9453-91.5039 86.8652-86.5967Q79.7852-81.6895 74.4141-74.6094Q71.4844-70.7031 68.75-68.5303Q66.0156-66.3574 62.7197-65.4785Q59.4238-64.5996 54.9316-64.5996L32.5195-64.5996Q24.5117-64.5996 20.2881-60.4736Q16.0645-56.3477 16.0645-48.3887ZM147.559-48.5352L185.791-48.5352Q188.965-48.5352 191.577-50.0977Q194.189-51.6602 195.752-54.2725Q197.314-56.8848 197.314-60.0098Q197.314-63.1836 195.752-65.7959Q194.189-68.4082 191.577-69.9707Q188.965-71.5332 185.791-71.5332L147.559-71.5332ZM147.559 1.46484L185.791 1.46484Q188.965 1.46484 191.577-0.0976562Q194.189-1.66016 195.752-4.27246Q197.314-6.88477 197.314-10.0586Q197.314-13.2324 195.752-15.8447Q194.189-18.457 191.577-19.9951Q188.965-21.5332 185.791-21.5332L147.559-21.5332Z"/>
  </g>
  <g id="Semibold-L" transform="matrix(1 0 0 1 1938.09 1556)">
   <path d="M16.0645-22.2656Q16.0645-14.8926 19.9707-11.0596Q23.877-7.22656 31.3477-7.22656L53.7598-7.22656Q58.3984-7.22656 61.792-6.29883Q65.1855-5.37109 68.0176-3.125Q70.8496-0.878906 73.8281 3.07617Q81.7383 13.5254 93.2617 19.0674Q104.785 24.6094 117.578 24.6094L141.064 24.6094Q145.166 24.6094 147.607 22.1924Q150.049 19.7754 150.049 15.7715L150.049-86.7188Q150.049-90.5762 147.559-92.9443Q145.068-95.3125 141.064-95.3125L117.578-95.3125Q109.033-95.3125 101.001-92.8467Q92.9688-90.3809 86.0107-85.5713Q79.0527-80.7617 73.8281-73.7793Q70.8496-69.7754 68.0176-67.5293Q65.1855-65.2832 61.792-64.3799Q58.3984-63.4766 53.7598-63.4766L31.3477-63.4766Q23.877-63.4766 19.9707-59.6436Q16.0645-55.8105 16.0645-48.4375ZM145.947-49.1211L183.496-49.1211Q186.475-49.1211 188.916-50.5859Q191.357-52.0508 192.822-54.4922Q194.287-56.9336 194.287-59.8633Q194.287-62.793 192.822-65.2588Q191.357-67.7246 188.916-69.165Q186.475-70.6055 183.496-70.6055L145.947-70.6055ZM145.947 0.292969L183.496 0.292969Q186.475 0.292969 188.916-1.14746Q191.357-2.58789 192.822-5.0293Q194.287-7.4707 194.287-10.4004Q194.287-13.3789 192.822-15.8203Q191.357-18.2617 188.916-19.7021Q186.475-21.1426 183.496-21.1426L145.947-21.1426Z"/>
  </g>
  <g id="Medium-L" transform="matrix(1 0 0 1 1642.53 1556)">
   <path d="M16.0645-22.2168Q16.0645-15.2344 19.7266-11.6455Q23.3887-8.05664 30.4688-8.05664L52.8809-8.05664Q57.5684-8.05664 61.0596-7.10449Q64.5508-6.15234 67.4805-3.85742Q70.4102-1.5625 73.4375 2.44141Q81.2012 12.7441 92.5293 18.2129Q103.857 23.6816 116.357 23.6816L139.404 23.6816Q143.359 23.6816 145.679 21.3867Q147.998 19.0918 147.998 15.2344L147.998-86.1816Q147.998-89.8926 145.63-92.1387Q143.262-94.3848 139.404-94.3848L116.357-94.3848Q108.008-94.3848 100.098-91.9434Q92.1875-89.502 85.376-84.7656Q78.5645-80.0293 73.4375-73.1445Q70.4102-69.0918 67.4805-66.7969Q64.5508-64.502 61.0596-63.5742Q57.5684-62.6465 52.8809-62.6465L30.4688-62.6465Q23.3887-62.6465 19.7266-59.0576Q16.0645-55.4688 16.0645-48.4863ZM144.727-49.6094L181.836-49.6094Q184.619-49.6094 186.938-51.001Q189.258-52.3926 190.625-54.6875Q191.992-56.9824 191.992-59.7656Q191.992-62.5488 190.625-64.8682Q189.258-67.1875 186.938-68.5547Q184.619-69.9219 181.836-69.9219L144.727-69.9219ZM144.727-0.537109L181.836-0.537109Q184.619-0.537109 186.938-1.9043Q189.258-3.27148 190.625-5.59082Q191.992-7.91016 191.992-10.6934Q191.992-13.4766 190.625-15.7959Q189.258-18.1152 186.938-19.4824Q184.619-20.8496 181.836-20.8496L144.727-20.8496Z"/>
  </g>
  <g id="Regular-L" transform="matrix(1 0 0 1 1347.31 1556)">
   <path d="M16.0645-22.168Q16.0645-15.7227 19.4336-12.4268Q22.8027-9.13086 29.3457-9.13086L51.709-9.13086Q56.543-9.13086 60.1318-8.1543Q63.7207-7.17773 66.748-4.83398Q69.7754-2.49023 72.8516 1.61133Q80.4688 11.7676 91.5283 17.0898Q102.588 22.4121 114.795 22.4121L137.207 22.4121Q140.967 22.4121 143.14 20.2881Q145.312 18.1641 145.312 14.502L145.312-85.5469Q145.312-89.0137 143.091-91.0645Q140.869-93.1152 137.207-93.1152L114.795-93.1152Q106.641-93.1152 98.9258-90.7471Q91.2109-88.3789 84.5459-83.7402Q77.8809-79.1016 72.8516-72.3145Q69.7754-68.1641 66.748-65.8203Q63.7207-63.4766 60.1318-62.5244Q56.543-61.5723 51.709-61.5723L29.3457-61.5723Q22.8027-61.5723 19.4336-58.2764Q16.0645-54.9805 16.0645-48.5352ZM143.115-50.2441L179.59-50.2441Q182.178-50.2441 184.326-51.5137Q186.475-52.7832 187.744-54.9316Q189.014-57.0801 189.014-59.6191Q189.014-62.207 187.744-64.3555Q186.475-66.5039 184.326-67.7734Q182.178-69.043 179.59-69.043L143.115-69.043ZM143.115-1.66016L179.59-1.66016Q182.178-1.66016 184.326-2.92969Q186.475-4.19922 187.744-6.34766Q189.014-8.49609 189.014-11.0352Q189.014-13.623 187.744-15.7715Q186.475-17.9199 184.326-19.1895Q182.178-20.459 179.59-20.459L143.115-20.459Z"/>
  </g>
  <g id="Light-L" transform="matrix(1 0 0 1 1052.06 1556)">
   <path d="M16.0645-21.6797Q16.0645-15.9668 19.1406-12.9883Q22.2168-10.0098 28.0273-10.0098L50.8789-10.0098Q55.8105-10.0098 59.5215-8.98438Q63.2324-7.95898 66.3574-5.54199Q69.4824-3.125 72.6562 1.07422Q80.127 10.8887 90.9912 16.1133Q101.855 21.3379 113.916 21.3379L134.863 21.3379Q138.916 21.3379 141.26 19.0918Q143.604 16.8457 143.604 12.8906L143.604-84.082Q143.604-87.793 141.187-89.917Q138.77-92.041 134.863-92.041L113.916-92.041Q105.859-92.041 98.2666-89.7217Q90.6738-87.4023 84.1309-82.8613Q77.5879-78.3203 72.6562-71.7773Q69.4824-67.5781 66.3574-65.1611Q63.2324-62.7441 59.5215-61.7188Q55.8105-60.6934 50.8789-60.6934L28.0273-60.6934Q22.2168-60.6934 19.1406-57.7148Q16.0645-54.7363 16.0645-49.0234ZM141.699-51.2695L177.783-51.2695Q180.078-51.2695 181.982-52.3926Q183.887-53.5156 184.985-55.3955Q186.084-57.2754 186.084-59.5215Q186.084-61.8164 184.985-63.6963Q183.887-65.5762 181.982-66.7236Q180.078-67.8711 177.783-67.8711L141.699-67.8711ZM141.699-2.83203L177.783-2.83203Q180.078-2.83203 181.982-3.97949Q183.887-5.12695 184.985-7.00684Q186.084-8.88672 186.084-11.1328Q186.084-13.4277 184.985-15.3076Q183.887-17.1875 181.982-18.3105Q180.078-19.4336 177.783-19.4336L141.699-19.4336Z"/>
  </g>
  <g id="Thin-L" transform="matrix(1 0 0 1 757.252 1556)">
   <path d="M16.0645-21.0449Q16.0645-16.3086 18.75-13.7451Q21.4355-11.1816 26.3184-11.1816L49.7559-11.1816Q54.8828-11.1816 58.7402-10.083Q62.5977-8.98438 65.8447-6.46973Q69.0918-3.95508 72.4121 0.390625Q79.6387 9.7168 90.2344 14.8438Q100.83 19.9707 112.793 19.9707L131.738 19.9707Q136.279 19.9707 138.794 17.5293Q141.309 15.0879 141.309 10.7422L141.309-82.1777Q141.309-86.1816 138.672-88.4277Q136.035-90.6738 131.738-90.6738L112.793-90.6738Q104.834-90.6738 97.3877-88.3545Q89.9414-86.0352 83.5693-81.665Q77.1973-77.2949 72.4121-71.0938Q69.0918-66.748 65.8447-64.2334Q62.5977-61.7188 58.7402-60.6201Q54.8828-59.5215 49.7559-59.5215L26.3184-59.5215Q21.4355-59.5215 18.75-56.958Q16.0645-54.3945 16.0645-49.6582ZM139.795-52.5879L175.439-52.5879Q177.344-52.5879 178.882-53.5156Q180.42-54.4434 181.348-56.0059Q182.275-57.5684 182.275-59.4238Q182.275-61.2793 181.348-62.8418Q180.42-64.4043 178.882-65.332Q177.344-66.2598 175.439-66.2598L139.795-66.2598ZM139.795-4.44336L175.439-4.44336Q177.344-4.44336 178.882-5.37109Q180.42-6.29883 181.348-7.86133Q182.275-9.42383 182.275-11.2793Q182.275-13.1348 181.348-14.6729Q180.42-16.2109 178.882-17.1631Q177.344-18.1152 175.439-18.1152L139.795-18.1152Z"/>
  </g>
  <g id="Ultralight-L" transform="matrix(1 0 0 1 461.542 1556)">
   <path d="M16.0645-20.7031Q16.0645-16.5039 18.5547-14.1357Q21.0449-11.7676 25.4395-11.7676L49.1699-11.7676Q54.3945-11.7676 58.3252-10.6201Q62.2559-9.47266 65.5762-6.90918Q68.8965-4.3457 72.3145 0Q79.3945 9.13086 89.8682 14.1846Q100.342 19.2383 112.207 19.2383L130.127 19.2383Q134.863 19.2383 137.5 16.7236Q140.137 14.209 140.137 9.61914L140.137-81.2012Q140.137-85.4004 137.378-87.6709Q134.619-89.9414 130.127-89.9414L112.207-89.9414Q104.297-89.9414 96.9482-87.6709Q89.5996-85.4004 83.3008-81.1035Q77.002-76.8066 72.3145-70.7031Q68.8965-66.3574 65.5762-63.7939Q62.2559-61.2305 58.3252-60.083Q54.3945-58.9355 49.1699-58.9355L25.4395-58.9355Q21.0449-58.9355 18.5547-56.5674Q16.0645-54.1992 16.0645-50ZM138.818-53.2715L174.219-53.2715Q175.928-53.2715 177.295-54.1016Q178.662-54.9316 179.468-56.3232Q180.273-57.7148 180.273-59.3262Q180.273-61.0352 179.468-62.4023Q178.662-63.7695 177.295-64.624Q175.928-65.4785 174.219-65.4785L138.818-65.4785ZM138.818-5.22461L174.219-5.22461Q175.928-5.22461 177.295-6.0791Q178.662-6.93359 179.468-8.30078Q180.273-9.66797 180.273-11.377Q180.273-12.9883 179.468-14.3555Q178.662-15.7227 177.295-16.5771Q175.928-17.4316 174.219-17.4316L138.818-17.4316Z"/>
  </g>
  <g id="Black-M" transform="matrix(1 0 0 1 2846.34 1126)">
   <path d="M12.4512-25.2441Q12.4512-17.5781 16.6016-13.4766Q20.752-9.375 28.5156-9.375L46.0449-9.375Q49.2188-9.375 51.416-8.78906Q53.6133-8.20312 55.4688-6.68945Q57.3242-5.17578 59.4238-2.44141Q66.1621 6.29883 76.0986 11.084Q86.0352 15.8691 97.168 15.8691L117.432 15.8691Q121.436 15.8691 124.023 13.2812Q126.611 10.6934 126.611 6.68945L126.611-77.3438Q126.611-81.3477 124.023-83.9355Q121.436-86.5234 117.432-86.5234L97.168-86.5234Q86.0352-86.5234 76.0986-81.7139Q66.1621-76.9043 59.4238-68.2129Q57.3242-65.4785 55.4688-63.9648Q53.6133-62.4512 51.416-61.8652Q49.2188-61.2793 46.0449-61.2793L28.5156-61.2793Q20.752-61.2793 16.6016-57.1777Q12.4512-53.0762 12.4512-45.3613ZM119.092-43.8477L150.635-43.8477Q153.662-43.8477 156.177-45.3369Q158.691-46.8262 160.181-49.3164Q161.67-51.8066 161.67-54.834Q161.67-57.8613 160.181-60.376Q158.691-62.8906 156.177-64.3799Q153.662-65.8691 150.635-65.8691L119.092-65.8691ZM119.092-3.56445L150.635-3.56445Q153.662-3.56445 156.177-5.05371Q158.691-6.54297 160.181-9.0332Q161.67-11.5234 161.67-14.5508Q161.67-17.5781 160.181-20.0684Q158.691-22.5586 156.177-24.0479Q153.662-25.5371 150.635-25.5371L119.092-25.5371Z"/>
  </g>
  <g id="Heavy-M" transform="matrix(1 0 0 1 2551.22 1126)">
   <path d="M12.4512-25.293Q12.4512-18.1641 16.2842-14.3799Q20.1172-10.5957 27.3438-10.5957L44.7754-10.5957Q48.0469-10.5957 50.3662-9.96094Q52.6855-9.32617 54.6387-7.76367Q56.5918-6.20117 58.7402-3.36914Q65.332 5.22461 74.9512 9.86328Q84.5703 14.502 95.3613 14.502L115.137 14.502Q118.848 14.502 121.191 12.1582Q123.535 9.81445 123.535 6.10352L123.535-76.8066Q123.535-80.4688 121.191-82.8125Q118.848-85.1562 115.137-85.1562L95.3613-85.1562Q84.5703-85.1562 74.9268-80.4932Q65.2832-75.8301 58.7402-67.2852Q56.5918-64.4531 54.6387-62.8662Q52.6855-61.2793 50.3662-60.6689Q48.0469-60.0586 44.7754-60.0586L27.3438-60.0586Q20.1172-60.0586 16.2842-56.2744Q12.4512-52.4902 12.4512-45.3613ZM117.334-44.4336L148.193-44.4336Q150.977-44.4336 153.345-45.8252Q155.713-47.2168 157.104-49.5361Q158.496-51.8555 158.496-54.6875Q158.496-57.5195 157.104-59.8633Q155.713-62.207 153.345-63.5986Q150.977-64.9902 148.193-64.9902L117.334-64.9902ZM117.334-4.73633L148.193-4.73633Q150.977-4.73633 153.345-6.12793Q155.713-7.51953 157.104-9.83887Q158.496-12.1582 158.496-14.9902Q158.496-17.8223 157.104-20.1416Q155.713-22.4609 153.345-23.8525Q150.977-25.2441 148.193-25.2441L117.334-25.2441Z"/>
  </g>
  <g id="Bold-M" transform="matrix(1 0 0 1 2256.29 1126)">
   <path d="M12.4512-25.3418Q12.4512-18.7988 15.918-15.3809Q19.3848-11.9629 26.0254-11.9629L43.3105-11.9629Q46.7285-11.9629 49.1943-11.3037Q51.6602-10.6445 53.7354-9.00879Q55.8105-7.37305 58.0078-4.39453Q64.3555 4.00391 73.6816 8.47168Q83.0078 12.9395 93.3105 12.9395L112.598 12.9395Q115.918 12.9395 118.018 10.8643Q120.117 8.78906 120.117 5.46875L120.117-76.2207Q120.117-79.4922 118.018-81.543Q115.918-83.5938 112.598-83.5938L93.3105-83.5938Q83.0078-83.5938 73.6816-79.126Q64.3555-74.6582 58.0078-66.2598Q55.8105-63.3301 53.7354-61.6699Q51.6602-60.0098 49.1943-59.3506Q46.7285-58.6914 43.3105-58.6914L26.0254-58.6914Q19.3848-58.6914 15.918-55.2979Q12.4512-51.9043 12.4512-45.3125ZM115.43-45.0684L145.459-45.0684Q148.047-45.0684 150.195-46.3623Q152.344-47.6562 153.638-49.7803Q154.932-51.9043 154.932-54.541Q154.932-57.1289 153.638-59.2773Q152.344-61.4258 150.195-62.7197Q148.047-64.0137 145.459-64.0137L115.43-64.0137ZM115.43-6.05469L145.459-6.05469Q148.047-6.05469 150.195-7.34863Q152.344-8.64258 153.638-10.7666Q154.932-12.8906 154.932-15.5273Q154.932-18.1152 153.638-20.2637Q152.344-22.4121 150.195-23.6816Q148.047-24.9512 145.459-24.9512L115.43-24.9512Z"/>
  </g>
  <g id="Semibold-M" transform="matrix(1 0 0 1 1960.82 1126)">
   <path d="M12.4512-25.3418Q12.4512-19.1895 15.6738-16.04Q18.8965-12.8906 25.0977-12.8906L42.334-12.8906Q45.8008-12.8906 48.3643-12.207Q50.9277-11.5234 53.0762-9.83887Q55.2246-8.1543 57.4707-5.12695Q63.7207 3.17383 72.8027 7.51953Q81.8848 11.8652 91.8945 11.8652L110.791 11.8652Q113.916 11.8652 115.82 9.98535Q117.725 8.10547 117.725 5.0293L117.725-75.7812Q117.725-78.8086 115.82-80.6641Q113.916-82.5195 110.791-82.5195L91.8945-82.5195Q81.8848-82.5195 72.7783-78.1738Q63.6719-73.8281 57.4707-65.5273Q55.2246-62.5 53.0762-60.8154Q50.9277-59.1309 48.3643-58.4473Q45.8008-57.7637 42.334-57.7637L25.0977-57.7637Q18.8965-57.7637 15.6738-54.6143Q12.4512-51.4648 12.4512-45.3125ZM114.062-45.5078L143.555-45.5078Q145.947-45.5078 147.998-46.7285Q150.049-47.9492 151.245-49.9512Q152.441-51.9531 152.441-54.3945Q152.441-56.8848 151.245-58.8867Q150.049-60.8887 147.998-62.085Q145.947-63.2812 143.555-63.2812L114.062-63.2812ZM114.062-6.98242L143.555-6.98242Q145.947-6.98242 147.998-8.17871Q150.049-9.375 151.245-11.377Q152.441-13.3789 152.441-15.8691Q152.441-18.2617 151.245-20.2881Q150.049-22.3145 147.998-23.5352Q145.947-24.7559 143.555-24.7559L114.062-24.7559Z"/>
  </g>
  <g id="Medium-M" transform="matrix(1 0 0 1 1665.04 1126)">
   <path d="M12.4512-25.3418Q12.4512-19.5312 15.4785-16.5527Q18.5059-13.5742 24.4141-13.5742L41.5527-13.5742Q45.1172-13.5742 47.7539-12.8662Q50.3906-12.1582 52.5879-10.4492Q54.7852-8.74023 57.0801-5.66406Q63.1836 2.53906 72.0947 6.81152Q81.0059 11.084 90.8203 11.084L109.473 11.084Q112.402 11.084 114.16 9.32617Q115.918 7.56836 115.918 4.6875L115.918-75.4395Q115.918-78.3203 114.16-80.0293Q112.402-81.7383 109.473-81.7383L90.8203-81.7383Q81.0059-81.7383 72.0703-77.4902Q63.1348-73.2422 57.0801-64.9902Q54.7852-61.9141 52.5879-60.1807Q50.3906-58.4473 47.7539-57.7393Q45.1172-57.0312 41.5527-57.0312L24.4141-57.0312Q18.5059-57.0312 15.4785-54.0771Q12.4512-51.123 12.4512-45.2637ZM113.037-45.8496L142.09-45.8496Q144.434-45.8496 146.362-46.9971Q148.291-48.1445 149.438-50.0488Q150.586-51.9531 150.586-54.2969Q150.586-56.6406 149.438-58.5693Q148.291-60.498 146.362-61.6455Q144.434-62.793 142.09-62.793L113.037-62.793ZM113.037-7.66602L142.09-7.66602Q144.434-7.66602 146.362-8.81348Q148.291-9.96094 149.438-11.8652Q150.586-13.7695 150.586-16.1133Q150.586-18.4082 149.438-20.3369Q148.291-22.2656 146.362-23.4131Q144.434-24.5605 142.09-24.5605L113.037-24.5605Z"/>
  </g>
  <g id="Regular-M" transform="matrix(1 0 0 1 1369.55 1126)">
   <path d="M12.4512-25.3906Q12.4512-19.9707 15.2344-17.2363Q18.0176-14.502 23.4863-14.502L40.5762-14.502Q44.2383-14.502 46.9482-13.7695Q49.6582-13.0371 51.9531-11.2793Q54.248-9.52148 56.543-6.34766Q62.5488 1.70898 71.2402 5.85938Q79.9316 10.0098 89.4531 10.0098L107.715 10.0098Q110.4 10.0098 111.987 8.44727Q113.574 6.88477 113.574 4.24805L113.574-75.0488Q113.574-77.6367 111.987-79.1504Q110.4-80.6641 107.715-80.6641L89.4531-80.6641Q79.9316-80.6641 71.2158-76.5381Q62.5-72.4121 56.543-64.3066Q54.248-61.1328 51.9531-59.3506Q49.6582-57.5684 46.9482-56.8359Q44.2383-56.1035 40.5762-56.1035L23.4863-56.1035Q18.0176-56.1035 15.2344-53.3936Q12.4512-50.6836 12.4512-45.2637ZM111.719-46.2891L140.234-46.2891Q142.383-46.2891 144.189-47.3633Q145.996-48.4375 147.07-50.2197Q148.145-52.002 148.145-54.1992Q148.145-56.3965 147.07-58.1787Q145.996-59.9609 144.189-61.0352Q142.383-62.1094 140.234-62.1094L111.719-62.1094ZM111.719-8.54492L140.234-8.54492Q142.383-8.54492 144.189-9.61914Q145.996-10.6934 147.07-12.4756Q148.145-14.2578 148.145-16.4551Q148.145-18.6035 147.07-20.4102Q145.996-22.2168 144.189-23.291Q142.383-24.3652 140.234-24.3652L111.719-24.3652Z"/>
  </g>
  <g id="Light-M" transform="matrix(1 0 0 1 1074.13 1126)">
   <path d="M12.4512-24.9512Q12.4512-20.2148 14.9658-17.749Q17.4805-15.2832 22.3145-15.2832L39.7949-15.2832Q43.6035-15.2832 46.4111-14.502Q49.2188-13.7207 51.6113-11.8896Q54.0039-10.0586 56.3965-6.83594Q62.207 0.927734 70.7275 5.00488Q79.248 9.08203 88.6719 9.08203L105.566 9.08203Q108.594 9.08203 110.327 7.39746Q112.061 5.71289 112.061 2.7832L112.061-73.7305Q112.061-76.5137 110.303-78.125Q108.545-79.7363 105.566-79.7363L88.6719-79.7363Q79.248-79.7363 70.7275-75.6592Q62.207-71.582 56.3965-63.8184Q54.0039-60.5957 51.6113-58.7402Q49.2188-56.8848 46.4111-56.1035Q43.6035-55.3223 39.7949-55.3223L22.3145-55.3223Q17.4805-55.3223 14.9658-52.8809Q12.4512-50.4395 12.4512-45.7031ZM110.449-47.2168L138.623-47.2168Q140.527-47.2168 142.09-48.1445Q143.652-49.0723 144.604-50.6348Q145.557-52.1973 145.557-54.1016Q145.557-56.0547 144.604-57.6172Q143.652-59.1797 142.09-60.1074Q140.527-61.0352 138.623-61.0352L110.449-61.0352ZM110.449-9.61914L138.623-9.61914Q140.527-9.61914 142.09-10.5469Q143.652-11.4746 144.604-13.0371Q145.557-14.5996 145.557-16.5527Q145.557-18.4082 144.604-19.9951Q143.652-21.582 142.09-22.5098Q140.527-23.4375 138.623-23.4375L110.449-23.4375Z"/>
  </g>
  <g id="Thin-M" transform="matrix(1 0 0 1 779.152 1126)">
   <path d="M12.4512-24.3652Q12.4512-20.5078 14.624-18.4082Q16.7969-16.3086 20.8008-16.3086L38.7695-16.3086Q42.7246-16.3086 45.7031-15.4785Q48.6816-14.6484 51.1719-12.7197Q53.6621-10.791 56.2012-7.4707Q61.8164-0.0976562 70.0928 3.85742Q78.3691 7.8125 87.6465 7.8125L102.734 7.8125Q106.201 7.8125 108.105 5.98145Q110.01 4.15039 110.01 0.878906L110.01-72.0215Q110.01-75.0488 108.032-76.7578Q106.055-78.4668 102.734-78.4668L87.6465-78.4668Q78.3691-78.4668 70.0928-74.4873Q61.8164-70.5078 56.2012-63.1836Q53.6621-59.8633 51.1719-57.9346Q48.6816-56.0059 45.7031-55.1514Q42.7246-54.2969 38.7695-54.2969L20.8008-54.2969Q16.7969-54.2969 14.624-52.2217Q12.4512-50.1465 12.4512-46.2891ZM108.74-48.3887L136.475-48.3887Q138.037-48.3887 139.307-49.1455Q140.576-49.9023 141.333-51.1719Q142.09-52.4414 142.09-54.0039Q142.09-55.5664 141.333-56.8359Q140.576-58.1055 139.307-58.8623Q138.037-59.6191 136.475-59.6191L108.74-59.6191ZM108.74-11.0352L136.475-11.0352Q138.037-11.0352 139.307-11.792Q140.576-12.5488 141.333-13.8184Q142.09-15.0879 142.09-16.6504Q142.09-18.1641 141.333-19.458Q140.576-20.752 139.307-21.5088Q138.037-22.2656 136.475-22.2656L108.74-22.2656Z"/>
  </g>
  <g id="Ultralight-M" transform="matrix(1 0 0 1 483.32 1126)">
   <path d="M12.4512-24.0723Q12.4512-20.6543 14.4287-18.75Q16.4062-16.8457 19.9707-16.8457L38.2812-16.8457Q42.2852-16.8457 45.3369-15.9912Q48.3887-15.1367 50.9277-13.1348Q53.4668-11.1328 56.1035-7.8125Q61.5723-0.634766 69.7266 3.27148Q77.8809 7.17773 87.1582 7.17773L101.318 7.17773Q104.932 7.17773 106.958 5.24902Q108.984 3.32031 108.984-0.0976562L108.984-71.1426Q108.984-74.3164 106.885-76.0742Q104.785-77.832 101.318-77.832L87.1582-77.832Q77.8809-77.832 69.7266-73.9014Q61.5723-69.9707 56.1035-62.8418Q53.4668-59.5215 50.9277-57.5195Q48.3887-55.5176 45.3369-54.6631Q42.2852-53.8086 38.2812-53.8086L19.9707-53.8086Q16.4062-53.8086 14.4287-51.9043Q12.4512-50 12.4512-46.582ZM107.861-49.0234L135.352-49.0234Q136.768-49.0234 137.891-49.6826Q139.014-50.3418 139.673-51.4648Q140.332-52.5879 140.332-53.9551Q140.332-55.3223 139.673-56.4453Q139.014-57.5684 137.891-58.2275Q136.768-58.8867 135.352-58.8867L107.861-58.8867ZM107.861-11.7676L135.352-11.7676Q136.768-11.7676 137.891-12.4268Q139.014-13.0859 139.673-14.209Q140.332-15.332 140.332-16.6992Q140.332-18.0664 139.673-19.1895Q139.014-20.3125 137.891-20.9717Q136.768-21.6309 135.352-21.6309L107.861-21.6309Z"/>
  </g>
  <g id="Black-S" transform="matrix(1 0 0 1 2864.77 696)">
   <path d="M9.76562-27.3926Q9.76562-21.2402 13.1104-17.9443Q16.4551-14.6484 22.6562-14.6484L36.4258-14.6484Q40.1367-14.6484 42.2363-13.5498Q44.3359-12.4512 46.7773-9.27734Q52.0996-2.44141 59.9609 1.36719Q67.8223 5.17578 76.6602 5.17578L92.5781 5.17578Q95.8496 5.17578 97.9492 3.07617Q100.049 0.976562 100.049-2.29492L100.049-68.3105Q100.049-71.582 97.9492-73.6816Q95.8496-75.7812 92.5781-75.7812L76.6602-75.7812Q67.8223-75.7812 59.9609-71.9727Q52.0996-68.1641 46.7773-61.3281Q44.3359-58.1543 42.2363-57.0557Q40.1367-55.957 36.4258-55.957L22.6562-55.957Q16.4551-55.957 13.1104-52.6611Q9.76562-49.3652 9.76562-43.2129ZM93.75-41.8457L118.701-41.8457Q122.314-41.8457 124.902-44.4336Q127.49-47.0215 127.49-50.6348Q127.49-54.248 124.902-56.8359Q122.314-59.4238 118.701-59.4238L93.75-59.4238ZM93.75-10.1074L118.701-10.1074Q122.314-10.1074 124.902-12.6953Q127.49-15.2832 127.49-18.8965Q127.49-22.5098 124.902-25.0977Q122.314-27.6855 118.701-27.6855L93.75-27.6855Z"/>
  </g>
  <g id="Heavy-S" transform="matrix(1 0 0 1 2569.26 696)">
   <path d="M9.76562-27.4902Q9.76562-21.6797 12.8662-18.6279Q15.9668-15.5762 21.7773-15.5762L35.4004-15.5762Q39.2578-15.5762 41.4795-14.4287Q43.7012-13.2812 46.1914-10.0098Q51.416-3.27148 59.0332 0.415039Q66.6504 4.10156 75.1953 4.10156L90.8691 4.10156Q93.8477 4.10156 95.7275 2.22168Q97.6074 0.341797 97.6074-2.58789L97.6074-68.0176Q97.6074-70.9473 95.7275-72.8271Q93.8477-74.707 90.8691-74.707L75.1953-74.707Q66.6504-74.707 59.0332-71.0205Q51.416-67.334 46.1914-60.5957Q43.7012-57.3242 41.4795-56.1768Q39.2578-55.0293 35.4004-55.0293L21.7773-55.0293Q15.9668-55.0293 12.8662-51.9775Q9.76562-48.9258 9.76562-43.1152ZM92.4316-42.2363L116.797-42.2363Q120.215-42.2363 122.656-44.6777Q125.098-47.1191 125.098-50.5371Q125.098-53.9062 122.656-56.3477Q120.215-58.7891 116.797-58.7891L92.4316-58.7891ZM92.4316-10.9863L116.797-10.9863Q120.215-10.9863 122.656-13.4277Q125.098-15.8691 125.098-19.2871Q125.098-22.7051 122.656-25.1221Q120.215-27.5391 116.797-27.5391L92.4316-27.5391Z"/>
  </g>
  <g id="Bold-S" transform="matrix(1 0 0 1 2273.89 696)">
   <path d="M9.76562-27.5879Q9.76562-22.2168 12.5977-19.4336Q15.4297-16.6504 20.8008-16.6504L34.3262-16.6504Q38.2812-16.6504 40.6494-15.4541Q43.0176-14.2578 45.6055-10.8398Q50.6348-4.19922 58.0078-0.634766Q65.3809 2.92969 73.584 2.92969L89.0137 2.92969Q91.6504 2.92969 93.2861 1.29395Q94.9219-0.341797 94.9219-2.97852L94.9219-67.6758Q94.9219-70.3125 93.2861-71.9238Q91.6504-73.5352 89.0137-73.5352L73.584-73.5352Q65.3809-73.5352 58.0078-69.9951Q50.6348-66.4551 45.6055-59.7656Q43.0176-56.3477 40.6494-55.1758Q38.2812-54.0039 34.3262-54.0039L20.8008-54.0039Q15.4297-54.0039 12.5977-51.2207Q9.76562-48.4375 9.76562-43.0664ZM90.9668-42.6758L114.697-42.6758Q117.871-42.6758 120.142-44.9463Q122.412-47.2168 122.412-50.3906Q122.412-53.5645 120.142-55.8594Q117.871-58.1543 114.697-58.1543L90.9668-58.1543ZM90.9668-11.9629L114.697-11.9629Q117.871-11.9629 120.142-14.2334Q122.412-16.5039 122.412-19.6777Q122.412-22.9004 120.142-25.1709Q117.871-27.4414 114.697-27.4414L90.9668-27.4414Z"/>
  </g>
  <g id="Semibold-S" transform="matrix(1 0 0 1 1978.11 696)">
   <path d="M9.76562-27.6367Q9.76562-22.5586 12.4023-19.9463Q15.0391-17.334 20.1172-17.334L33.5449-17.334Q37.5488-17.334 40.0391-16.1133Q42.5293-14.8926 45.166-11.4258Q50.0977-4.78516 57.2998-1.34277Q64.502 2.09961 72.4609 2.09961L87.6953 2.09961Q90.0879 2.09961 91.5527 0.634766Q93.0176-0.830078 93.0176-3.17383L93.0176-67.4316Q93.0176-69.8242 91.5527-71.2646Q90.0879-72.7051 87.6953-72.7051L72.4609-72.7051Q64.502-72.7051 57.2998-69.2627Q50.0977-65.8203 45.166-59.1797Q42.5293-55.7129 40.0391-54.4922Q37.5488-53.2715 33.5449-53.2715L20.1172-53.2715Q15.0391-53.2715 12.4023-50.6592Q9.76562-48.0469 9.76562-42.9688ZM89.9414-42.9688L113.184-42.9688Q116.211-42.9688 118.384-45.1172Q120.557-47.2656 120.557-50.293Q120.557-53.3203 118.384-55.4932Q116.211-57.666 113.184-57.666L89.9414-57.666ZM89.9414-12.5977L113.184-12.5977Q116.211-12.5977 118.384-14.7705Q120.557-16.9434 120.557-19.9707Q120.557-22.998 118.384-25.1465Q116.211-27.2949 113.184-27.2949L89.9414-27.2949Z"/>
  </g>
  <g id="Medium-S" transform="matrix(1 0 0 1 1682.1 696)">
   <path d="M9.76562-27.6855Q9.76562-22.8027 12.2559-20.3369Q14.7461-17.8711 19.6289-17.8711L32.959-17.8711Q37.0605-17.8711 39.624-16.626Q42.1875-15.3809 44.8242-11.8164Q49.707-5.27344 56.7627-1.87988Q63.8184 1.51367 71.6309 1.51367L86.6699 1.51367Q88.916 1.51367 90.2588 0.170898Q91.6016-1.17188 91.6016-3.36914L91.6016-67.2852Q91.6016-69.4824 90.2588-70.8008Q88.916-72.1191 86.6699-72.1191L71.6309-72.1191Q63.8184-72.1191 56.7627-68.75Q49.707-65.3809 44.8242-58.7891Q42.1875-55.1758 39.624-53.9551Q37.0605-52.7344 32.959-52.7344L19.6289-52.7344Q14.7461-52.7344 12.2559-50.2686Q9.76562-47.8027 9.76562-42.9199ZM89.209-43.1641L112.109-43.1641Q114.99-43.1641 117.065-45.2393Q119.141-47.3145 119.141-50.2441Q119.141-53.125 117.065-55.2246Q114.99-57.3242 112.109-57.3242L89.209-57.3242ZM89.209-13.1348L112.109-13.1348Q114.99-13.1348 117.065-15.21Q119.141-17.2852 119.141-20.166Q119.141-23.0957 117.065-25.1709Q114.99-27.2461 112.109-27.2461L89.209-27.2461Z"/>
  </g>
  <g id="Regular-S" transform="matrix(1 0 0 1 1386.29 696)">
   <path d="M9.76562-27.7344Q9.76562-23.1445 12.0605-20.874Q14.3555-18.6035 18.9453-18.6035L32.1777-18.6035Q36.377-18.6035 39.0381-17.3096Q41.6992-16.0156 44.3848-12.4023Q49.1699-5.9082 56.0547-2.6123Q62.9395 0.683594 70.5078 0.683594L85.4004 0.683594Q87.4023 0.683594 88.5742-0.488281Q89.7461-1.66016 89.7461-3.61328L89.7461-67.041Q89.7461-68.9941 88.5742-70.1416Q87.4023-71.2891 85.4004-71.2891L70.5078-71.2891Q62.9395-71.2891 56.0547-68.0176Q49.1699-64.7461 44.3848-58.2031Q41.6992-54.541 39.0381-53.2715Q36.377-52.002 32.1777-52.002L18.9453-52.002Q14.3555-52.002 12.0605-49.7314Q9.76562-47.4609 9.76562-42.8711ZM88.1836-43.457L110.645-43.457Q113.379-43.457 115.356-45.4102Q117.334-47.3633 117.334-50.1465Q117.334-52.8809 115.356-54.8584Q113.379-56.8359 110.645-56.8359L88.1836-56.8359ZM88.1836-13.7695L110.645-13.7695Q113.379-13.7695 115.356-15.7471Q117.334-17.7246 117.334-20.459Q117.334-23.2422 115.356-25.1953Q113.379-27.1484 110.645-27.1484L88.1836-27.1484Z"/>
  </g>
  <g id="Light-S" transform="matrix(1 0 0 1 1090.73 696)">
   <path d="M9.76562-27.3438Q9.76562-23.3398 11.8408-21.3135Q13.916-19.2871 17.9199-19.2871L31.4941-19.2871Q35.8398-19.2871 38.6475-17.9199Q41.4551-16.5527 44.2383-12.8418Q48.877-6.5918 55.6152-3.36914Q62.3535-0.146484 69.8242-0.146484L83.5449-0.146484Q85.791-0.146484 87.085-1.41602Q88.3789-2.68555 88.3789-4.88281L88.3789-65.8691Q88.3789-68.0176 87.0605-69.2383Q85.7422-70.459 83.5449-70.459L69.8242-70.459Q62.3535-70.459 55.6152-67.2363Q48.877-64.0137 44.2383-57.7637Q41.4551-54.0039 38.6475-52.6611Q35.8398-51.3184 31.4941-51.3184L17.9199-51.3184Q13.916-51.3184 11.8408-49.292Q9.76562-47.2656 9.76562-43.2617ZM87.0117-44.2383L109.229-44.2383Q111.572-44.2383 113.306-45.9473Q115.039-47.6562 115.039-50.0488Q115.039-52.4414 113.306-54.1504Q111.572-55.8594 109.229-55.8594L87.0117-55.8594ZM87.0117-14.7461L109.229-14.7461Q111.572-14.7461 113.306-16.4551Q115.039-18.1641 115.039-20.5566Q115.039-22.9492 113.306-24.6582Q111.572-26.3672 109.229-26.3672L87.0117-26.3672Z"/>
  </g>
  <g id="Thin-S" transform="matrix(1 0 0 1 795.534 696)">
   <path d="M9.76562-26.8066Q9.76562-23.6328 11.5234-21.9238Q13.2812-20.2148 16.6016-20.2148L30.6152-20.2148Q35.2051-20.2148 38.1592-18.7256Q41.1133-17.2363 44.0918-13.3789Q48.4863-7.51953 55.0293-4.39453Q61.5723-1.26953 68.8965-1.26953L81.0547-1.26953Q83.6426-1.26953 85.1074-2.68555Q86.5723-4.10156 86.5723-6.5918L86.5723-64.3555Q86.5723-66.748 85.0586-68.042Q83.5449-69.3359 81.0547-69.3359L68.8965-69.3359Q61.5723-69.3359 55.0293-66.2109Q48.4863-63.0859 44.0918-57.2266Q41.1133-53.3691 38.1592-51.8799Q35.2051-50.3906 30.6152-50.3906L16.6016-50.3906Q13.2812-50.3906 11.5234-48.6816Q9.76562-46.9727 9.76562-43.7988ZM85.498-45.3125L107.324-45.3125Q109.229-45.3125 110.62-46.6797Q112.012-48.0469 112.012-49.9512Q112.012-51.8555 110.62-53.2471Q109.229-54.6387 107.324-54.6387L85.498-54.6387ZM85.498-15.9668L107.324-15.9668Q109.229-15.9668 110.62-17.3584Q112.012-18.75 112.012-20.6543Q112.012-22.5586 110.62-23.9258Q109.229-25.293 107.324-25.293L85.498-25.293Z"/>
  </g>
  <g id="Ultralight-S" transform="matrix(1 0 0 1 499.604 696)">
   <path d="M9.76562-26.5625Q9.76562-23.7793 11.377-22.2412Q12.9883-20.7031 15.918-20.7031L30.127-20.7031Q34.8145-20.7031 37.8662-19.165Q40.918-17.627 43.9941-13.6719Q48.291-8.00781 54.7363-4.90723Q61.1816-1.80664 68.4082-1.80664L79.7852-1.80664Q82.5195-1.80664 84.082-3.2959Q85.6445-4.78516 85.6445-7.4707L85.6445-63.5742Q85.6445-66.0645 84.0332-67.4316Q82.4219-68.7988 79.7852-68.7988L68.4082-68.7988Q61.1816-68.7988 54.7363-65.6982Q48.291-62.5977 43.9941-56.9336Q40.918-52.9785 37.8662-51.4404Q34.8145-49.9023 30.127-49.9023L15.918-49.9023Q12.9883-49.9023 11.377-48.3643Q9.76562-46.8262 9.76562-44.043ZM84.7168-45.8496L106.396-45.8496Q108.008-45.8496 109.229-47.0459Q110.449-48.2422 110.449-49.9023Q110.449-51.5625 109.229-52.7588Q108.008-53.9551 106.396-53.9551L84.7168-53.9551ZM84.7168-16.6504L106.396-16.6504Q108.008-16.6504 109.229-17.8467Q110.449-19.043 110.449-20.7031Q110.449-22.3633 109.229-23.5596Q108.008-24.7559 106.396-24.7559L84.7168-24.7559Z"/>
  </g>
 </g>
</svg>
