<?xml version="1.0" encoding="UTF-8"?>
<svg width="446px" height="528px" viewBox="0 0 446 528" version="1.1" xmlns="http://www.w3.org/2000/svg" xmlns:xlink="http://www.w3.org/1999/xlink">
    <!-- Generator: Sketch 53.2 (72643) - https://sketchapp.com -->
    <title>restorationCode</title>
    <desc>Created with Sketch.</desc>
    <defs>
        <path d="M64.9052475,29 L294.905248,29 L354.905248,89 C362.670588,164.912897 360.745094,218.24954 349.128765,249.009929 C299.362509,380.792474 209.121336,453.874163 178.405248,468.254998 C148.885804,454.434415 59.4684844,381.389721 10.1532886,249.120914 C-1.32038569,218.347251 -3.06973269,164.973613 4.90524755,89 L64.9052475,29 Z" id="path-1"></path>
        <filter x="-13.8%" y="-11.3%" width="127.5%" height="123.2%" filterUnits="objectBoundingBox" id="filter-2">
            <feMorphology radius="30" operator="dilate" in="SourceAlpha" result="shadowSpreadOuter1"></feMorphology>
            <feOffset dx="0" dy="0" in="shadowSpreadOuter1" result="shadowOffsetOuter1"></feOffset>
            <feMorphology radius="30" operator="erode" in="SourceAlpha" result="shadowInner"></feMorphology>
            <feOffset dx="0" dy="0" in="shadowInner" result="shadowInner"></feOffset>
            <feComposite in="shadowOffsetOuter1" in2="shadowInner" operator="out" result="shadowOffsetOuter1"></feComposite>
            <feGaussianBlur stdDeviation="6.5" in="shadowOffsetOuter1" result="shadowBlurOuter1"></feGaussianBlur>
            <feColorMatrix values="0 0 0 0 0   0 0 0 0 0   0 0 0 0 0  0 0 0 0.5 0" type="matrix" in="shadowBlurOuter1"></feColorMatrix>
        </filter>
        <filter x="-31.4%" y="-33.2%" width="162.8%" height="158.4%" filterUnits="objectBoundingBox" id="filter-3">
            <feOffset dx="0" dy="0" in="SourceAlpha" result="shadowOffsetOuter1"></feOffset>
            <feGaussianBlur stdDeviation="10.5" in="shadowOffsetOuter1" result="shadowBlurOuter1"></feGaussianBlur>
            <feColorMatrix values="0 0 0 0 0   0 0 0 0 0   0 0 0 0 0  0 0 0 0.5 0" type="matrix" in="shadowBlurOuter1" result="shadowMatrixOuter1"></feColorMatrix>
            <feMerge>
                <feMergeNode in="shadowMatrixOuter1"></feMergeNode>
                <feMergeNode in="SourceGraphic"></feMergeNode>
            </feMerge>
        </filter>
    </defs>
    <g id="Page-1" stroke="none" stroke-width="1" fill="none" fill-rule="evenodd">
        <g id="restorationCode" transform="translate(43.000000, 14.000000)">
            <path d="M64.9052475,29 L294.905248,29 L354.905248,89 C362.670588,164.912897 360.745094,218.24954 349.128765,249.009929 C299.362509,380.792474 209.121336,453.874163 178.405248,468.254998 C148.885804,454.434415 59.4684844,381.389721 10.1532886,249.120914 C-1.32038569,218.347251 -3.06973269,164.973613 4.90524755,89 L64.9052475,29 Z" id="Rectangle" fill="#19465B"></path>
            <g id="Rectangle">
                <use fill="black" fill-opacity="1" filter="url(#filter-2)" xlink:href="#path-1"></use>
                <use stroke="#F11411" stroke-width="60" xlink:href="#path-1"></use>
            </g>
            <g id="lock" filter="url(#filter-3)" transform="translate(113.905248, 129.501470)">
                <path d="M32.5,62.4985305 C25.9729692,20.8328435 36.8063026,3.11147155e-15 65,0 C93.1936974,0 104.360364,20.8328435 98.5,62.4985305" id="Line" stroke="#B4D2D7" stroke-width="25" stroke-linecap="square"></path>
                <rect id="Rectangle" fill="#FCDA4B" x="0" y="62" width="129" height="99" rx="5"></rect>
                <path d="M72,119.416592 L72,139 L57,139 L57,119.416592 C50.5196098,116.539226 46,110.047419 46,102.5 C46,92.2827321 54.2827321,84 64.5,84 C74.7172679,84 83,92.2827321 83,102.5 C83,110.047419 78.4803902,116.539226 72,119.416592 Z" id="Combined-Shape" fill="#F6B554"></path>
            </g>
            <path d="M175.410813,0 L311.839913,0 L382.106693,70.2667804 C391.200785,159.169362 390.945814,221.632598 377.34178,257.656489 C319.059869,411.988742 211.377258,487.575659 175.405248,504.417242" id="Path" fill="#000000" opacity="0.235997518"></path>
        </g>
    </g>
</svg>