<?xml version="1.0" encoding="UTF-8"?>
<!--Generator: Apple Native CoreSVG 175-->
<!DOCTYPE svg
PUBLIC "-//W3C//DTD SVG 1.1//EN"
       "http://www.w3.org/Graphics/SVG/1.1/DTD/svg11.dtd">
<svg version="1.1" xmlns="http://www.w3.org/2000/svg" xmlns:xlink="http://www.w3.org/1999/xlink" width="3300" height="2200">
 <!--glyph: "uni1006EE.medium", point size: 100.0, font version: "17.0d11e1", template writer version: "65.1"-->
 <g id="Notes">
  <rect height="2200" id="artboard" style="fill:white;opacity:1" width="3300" x="0" y="0"/>
  <line style="fill:none;stroke:black;opacity:1;stroke-width:0.5;" x1="263" x2="3036" y1="292" y2="292"/>
  <text style="stroke:none;fill:black;font-family:sans-serif;font-size:13;font-weight:bold;" transform="matrix(1 0 0 1 263 322)">Weight/Scale Variations</text>
  <text style="stroke:none;fill:black;font-family:sans-serif;font-size:13;text-anchor:middle;" transform="matrix(1 0 0 1 559.711 322)">Ultralight</text>
  <text style="stroke:none;fill:black;font-family:sans-serif;font-size:13;text-anchor:middle;" transform="matrix(1 0 0 1 856.422 322)">Thin</text>
  <text style="stroke:none;fill:black;font-family:sans-serif;font-size:13;text-anchor:middle;" transform="matrix(1 0 0 1 1153.13 322)">Light</text>
  <text style="stroke:none;fill:black;font-family:sans-serif;font-size:13;text-anchor:middle;" transform="matrix(1 0 0 1 1449.84 322)">Regular</text>
  <text style="stroke:none;fill:black;font-family:sans-serif;font-size:13;text-anchor:middle;" transform="matrix(1 0 0 1 1746.56 322)">Medium</text>
  <text style="stroke:none;fill:black;font-family:sans-serif;font-size:13;text-anchor:middle;" transform="matrix(1 0 0 1 2043.27 322)">Semibold</text>
  <text style="stroke:none;fill:black;font-family:sans-serif;font-size:13;text-anchor:middle;" transform="matrix(1 0 0 1 2339.98 322)">Bold</text>
  <text style="stroke:none;fill:black;font-family:sans-serif;font-size:13;text-anchor:middle;" transform="matrix(1 0 0 1 2636.69 322)">Heavy</text>
  <text style="stroke:none;fill:black;font-family:sans-serif;font-size:13;text-anchor:middle;" transform="matrix(1 0 0 1 2933.4 322)">Black</text>
  <line style="fill:none;stroke:black;opacity:1;stroke-width:0.5;" x1="263" x2="3036" y1="1903" y2="1903"/>
  <g transform="matrix(1 0 0 1 263 1933)">
   <path d="M9.24805 0.830078Q10.8691 0.830078 12.2949 0.214844Q13.7207-0.400391 14.8096-1.49414Q15.8984-2.58789 16.5186-4.01367Q17.1387-5.43945 17.1387-7.05078Q17.1387-8.66211 16.5186-10.0879Q15.8984-11.5137 14.8047-12.6074Q13.7109-13.7012 12.2852-14.3164Q10.8594-14.9316 9.23828-14.9316Q7.62695-14.9316 6.20117-14.3164Q4.77539-13.7012 3.69141-12.6074Q2.60742-11.5137 1.9873-10.0879Q1.36719-8.66211 1.36719-7.05078Q1.36719-5.43945 1.9873-4.01367Q2.60742-2.58789 3.69629-1.49414Q4.78516-0.400391 6.21094 0.214844Q7.63672 0.830078 9.24805 0.830078ZM9.24805-0.654297Q7.91992-0.654297 6.7627-1.14746Q5.60547-1.64062 4.73145-2.51953Q3.85742-3.39844 3.36426-4.56055Q2.87109-5.72266 2.87109-7.05078Q2.87109-8.37891 3.35938-9.54102Q3.84766-10.7031 4.72168-11.582Q5.5957-12.4609 6.75293-12.9541Q7.91016-13.4473 9.23828-13.4473Q10.5762-13.4473 11.7334-12.9541Q12.8906-12.4609 13.7695-11.582Q14.6484-10.7031 15.1465-9.54102Q15.6445-8.37891 15.6445-7.05078Q15.6445-5.72266 15.1514-4.56055Q14.6582-3.39844 13.7842-2.51953Q12.9102-1.64062 11.748-1.14746Q10.5859-0.654297 9.24805-0.654297ZM5.6543-7.05078Q5.6543-6.72852 5.85938-6.52832Q6.06445-6.32812 6.40625-6.32812L8.51562-6.32812L8.51562-4.20898Q8.51562-3.88672 8.71094-3.67676Q8.90625-3.4668 9.23828-3.4668Q9.56055-3.4668 9.77051-3.67676Q9.98047-3.88672 9.98047-4.20898L9.98047-6.32812L12.0898-6.32812Q12.4219-6.32812 12.627-6.52832Q12.832-6.72852 12.832-7.05078Q12.832-7.38281 12.627-7.58789Q12.4219-7.79297 12.0898-7.79297L9.98047-7.79297L9.98047-9.90234Q9.98047-10.2344 9.77051-10.4443Q9.56055-10.6543 9.23828-10.6543Q8.90625-10.6543 8.71094-10.4443Q8.51562-10.2344 8.51562-9.90234L8.51562-7.79297L6.40625-7.79297Q6.06445-7.79297 5.85938-7.58789Q5.6543-7.38281 5.6543-7.05078Z"/>
  </g>
  <g transform="matrix(1 0 0 1 281.867 1933)">
   <path d="M11.709 2.91016Q13.75 2.91016 15.5518 2.12891Q17.3535 1.34766 18.7305-0.0292969Q20.1074-1.40625 20.8887-3.20801Q21.6699-5.00977 21.6699-7.05078Q21.6699-9.0918 20.8887-10.8936Q20.1074-12.6953 18.7305-14.0723Q17.3535-15.4492 15.5469-16.2305Q13.7402-17.0117 11.6992-17.0117Q9.6582-17.0117 7.85645-16.2305Q6.05469-15.4492 4.68262-14.0723Q3.31055-12.6953 2.5293-10.8936Q1.74805-9.0918 1.74805-7.05078Q1.74805-5.00977 2.5293-3.20801Q3.31055-1.40625 4.6875-0.0292969Q6.06445 1.34766 7.86621 2.12891Q9.66797 2.91016 11.709 2.91016ZM11.709 1.25Q9.98047 1.25 8.47656 0.605469Q6.97266-0.0390625 5.83496-1.17676Q4.69727-2.31445 4.05762-3.81836Q3.41797-5.32227 3.41797-7.05078Q3.41797-8.7793 4.05762-10.2832Q4.69727-11.7871 5.83008-12.9297Q6.96289-14.0723 8.4668-14.7119Q9.9707-15.3516 11.6992-15.3516Q13.4277-15.3516 14.9316-14.7119Q16.4355-14.0723 17.5781-12.9297Q18.7207-11.7871 19.3652-10.2832Q20.0098-8.7793 20.0098-7.05078Q20.0098-5.32227 19.3701-3.81836Q18.7305-2.31445 17.5928-1.17676Q16.4551-0.0390625 14.9463 0.605469Q13.4375 1.25 11.709 1.25ZM7.17773-7.05078Q7.17773-6.69922 7.41211-6.47461Q7.64648-6.25 8.01758-6.25L10.8887-6.25L10.8887-3.36914Q10.8887-2.99805 11.1133-2.76855Q11.3379-2.53906 11.6895-2.53906Q12.0605-2.53906 12.29-2.76855Q12.5195-2.99805 12.5195-3.36914L12.5195-6.25L15.4004-6.25Q15.7715-6.25 16.001-6.47461Q16.2305-6.69922 16.2305-7.05078Q16.2305-7.42188 16.001-7.65137Q15.7715-7.88086 15.4004-7.88086L12.5195-7.88086L12.5195-10.752Q12.5195-11.1328 12.29-11.3623Q12.0605-11.5918 11.6895-11.5918Q11.3379-11.5918 11.1133-11.3574Q10.8887-11.123 10.8887-10.752L10.8887-7.88086L8.01758-7.88086Q7.63672-7.88086 7.40723-7.65137Q7.17773-7.42188 7.17773-7.05078Z"/>
  </g>
  <g transform="matrix(1 0 0 1 305.646 1933)">
   <path d="M14.9707 5.66406Q17.0605 5.66406 18.96 5.01465Q20.8594 4.36523 22.4512 3.19336Q24.043 2.02148 25.2197 0.429688Q26.3965-1.16211 27.0459-3.06641Q27.6953-4.9707 27.6953-7.05078Q27.6953-9.14062 27.0459-11.04Q26.3965-12.9395 25.2197-14.5312Q24.043-16.123 22.4512-17.2998Q20.8594-18.4766 18.9551-19.126Q17.0508-19.7754 14.9609-19.7754Q12.8711-19.7754 10.9717-19.126Q9.07227-18.4766 7.48535-17.2998Q5.89844-16.123 4.72168-14.5312Q3.54492-12.9395 2.90039-11.04Q2.25586-9.14062 2.25586-7.05078Q2.25586-4.9707 2.90527-3.06641Q3.55469-1.16211 4.72656 0.429688Q5.89844 2.02148 7.49023 3.19336Q9.08203 4.36523 10.9814 5.01465Q12.8809 5.66406 14.9707 5.66406ZM14.9707 3.84766Q13.1641 3.84766 11.5283 3.2959Q9.89258 2.74414 8.53516 1.74805Q7.17773 0.751953 6.17676-0.610352Q5.17578-1.97266 4.62891-3.6084Q4.08203-5.24414 4.08203-7.05078Q4.08203-8.86719 4.62891-10.5029Q5.17578-12.1387 6.17188-13.501Q7.16797-14.8633 8.52539-15.8594Q9.88281-16.8555 11.5186-17.4023Q13.1543-17.9492 14.9609-17.9492Q16.7773-17.9492 18.4131-17.4023Q20.0488-16.8555 21.4111-15.8594Q22.7734-14.8633 23.7695-13.501Q24.7656-12.1387 25.3174-10.5029Q25.8691-8.86719 25.8691-7.05078Q25.8789-5.24414 25.332-3.6084Q24.7852-1.97266 23.7842-0.610352Q22.7832 0.751953 21.4209 1.74805Q20.0586 2.74414 18.4229 3.2959Q16.7871 3.84766 14.9707 3.84766ZM9.19922-7.05078Q9.19922-6.66992 9.45801-6.4209Q9.7168-6.17188 10.1172-6.17188L14.0625-6.17188L14.0625-2.2168Q14.0625-1.81641 14.3115-1.55762Q14.5605-1.29883 14.9512-1.29883Q15.3516-1.29883 15.6104-1.55273Q15.8691-1.80664 15.8691-2.2168L15.8691-6.17188L19.8242-6.17188Q20.2246-6.17188 20.4785-6.4209Q20.7324-6.66992 20.7324-7.05078Q20.7324-7.46094 20.4785-7.71484Q20.2246-7.96875 19.8242-7.96875L15.8691-7.96875L15.8691-11.9141Q15.8691-12.3242 15.6104-12.583Q15.3516-12.8418 14.9512-12.8418Q14.5605-12.8418 14.3115-12.583Q14.0625-12.3242 14.0625-11.9141L14.0625-7.96875L10.1172-7.96875Q9.70703-7.96875 9.45312-7.71484Q9.19922-7.46094 9.19922-7.05078Z"/>
  </g>
  <text style="stroke:none;fill:black;font-family:sans-serif;font-size:13;font-weight:bold;" transform="matrix(1 0 0 1 263 1953)">Design Variations</text>
  <text style="stroke:none;fill:black;font-family:sans-serif;font-size:13;" transform="matrix(1 0 0 1 263 1971)">Symbols are supported in up to nine weights and three scales.</text>
  <text style="stroke:none;fill:black;font-family:sans-serif;font-size:13;" transform="matrix(1 0 0 1 263 1989)">For optimal layout with text and other symbols, vertically align</text>
  <text style="stroke:none;fill:black;font-family:sans-serif;font-size:13;" transform="matrix(1 0 0 1 263 2007)">symbols with the adjacent text.</text>
  <line style="fill:none;stroke:#00AEEF;stroke-width:0.5;opacity:1.0;" x1="776" x2="776" y1="1919" y2="1933"/>
  <g transform="matrix(1 0 0 1 776 1933)">
   <path d="M3.31055 0.15625Q3.70117 0.15625 3.91602-0.00976562Q4.13086-0.175781 4.26758-0.585938L5.52734-4.0332L11.2891-4.0332L12.5488-0.585938Q12.6855-0.175781 12.9004-0.00976562Q13.1152 0.15625 13.4961 0.15625Q13.8867 0.15625 14.1162-0.0585938Q14.3457-0.273438 14.3457-0.644531Q14.3457-0.869141 14.2383-1.17188L9.6582-13.3691Q9.48242-13.8184 9.17969-14.043Q8.87695-14.2676 8.4082-14.2676Q7.5-14.2676 7.17773-13.3789L2.59766-1.16211Q2.49023-0.859375 2.49023-0.634766Q2.49023-0.263672 2.70996-0.0537109Q2.92969 0.15625 3.31055 0.15625ZM6.00586-5.51758L8.37891-12.0898L8.42773-12.0898L10.8008-5.51758Z"/>
  </g>
  <line style="fill:none;stroke:#00AEEF;stroke-width:0.5;opacity:1.0;" x1="793.197" x2="793.197" y1="1919" y2="1933"/>
  <text style="stroke:none;fill:black;font-family:sans-serif;font-size:13;font-weight:bold;" transform="matrix(1 0 0 1 776 1953)">Margins</text>
  <text style="stroke:none;fill:black;font-family:sans-serif;font-size:13;" transform="matrix(1 0 0 1 776 1971)">Leading and trailing margins on the left and right side of each symbol</text>
  <text style="stroke:none;fill:black;font-family:sans-serif;font-size:13;" transform="matrix(1 0 0 1 776 1989)">can be adjusted by modifying the x-location of the margin guidelines.</text>
  <text style="stroke:none;fill:black;font-family:sans-serif;font-size:13;" transform="matrix(1 0 0 1 776 2007)">Modifications are automatically applied proportionally to all</text>
  <text style="stroke:none;fill:black;font-family:sans-serif;font-size:13;" transform="matrix(1 0 0 1 776 2025)">scales and weights.</text>
  <g transform="matrix(1 0 0 1 1289 1933)">
   <path d="M2.8418 1.86523L4.54102 3.57422Q5.18555 4.22852 5.90332 4.17969Q6.62109 4.13086 7.31445 3.35938L18.0078-8.42773L17.041-9.4043L6.42578 2.27539Q6.16211 2.57812 5.89355 2.61719Q5.625 2.65625 5.27344 2.30469L4.10156 1.14258Q3.75 0.791016 3.79395 0.522461Q3.83789 0.253906 4.14062-0.0195312L15.6152-10.8203L14.6387-11.7871L3.04688-0.898438Q2.30469-0.214844 2.25098 0.498047Q2.19727 1.21094 2.8418 1.86523ZM9.25781-16.3281Q8.94531-16.0254 8.90625-15.6348Q8.86719-15.2441 9.04297-14.9512Q9.21875-14.6777 9.55566-14.541Q9.89258-14.4043 10.3809-14.5215Q11.4746-14.7754 12.5977-14.7314Q13.7207-14.6875 14.7949-13.9844L14.209-12.5293Q13.9551-11.9043 14.0674-11.4404Q14.1797-10.9766 14.5801-10.5664L16.875-8.25195Q17.2363-7.88086 17.5781-7.82227Q17.9199-7.76367 18.3398-7.8418L19.4043-8.03711L20.0684-7.36328L20.0293-6.80664Q20-6.43555 20.1221-6.12305Q20.2441-5.81055 20.6055-5.44922L21.3672-4.70703Q21.7285-4.3457 22.1533-4.33105Q22.5781-4.31641 22.9297-4.66797L25.8398-7.58789Q26.1914-7.93945 26.1816-8.35449Q26.1719-8.76953 25.8105-9.13086L25.0391-9.89258Q24.6875-10.2539 24.3799-10.3857Q24.0723-10.5176 23.7109-10.4883L23.1348-10.4395L22.4902-11.0742L22.7344-12.1973Q22.832-12.6172 22.6953-12.9834Q22.5586-13.3496 22.1191-13.7891L19.9219-15.9766Q18.6719-17.2168 17.2607-17.8369Q15.8496-18.457 14.4189-18.4814Q12.9883-18.5059 11.665-17.959Q10.3418-17.4121 9.25781-16.3281ZM10.752-15.957Q11.6602-16.6211 12.7002-16.9043Q13.7402-17.1875 14.8047-17.085Q15.8691-16.9824 16.8701-16.5137Q17.8711-16.0449 18.7012-15.2051L21.1328-12.793Q21.3086-12.6172 21.3525-12.4512Q21.3965-12.2852 21.3379-12.0312L21.0156-10.5469L22.5195-9.0625L23.5059-9.12109Q23.6914-9.13086 23.7891-9.09668Q23.8867-9.0625 24.0332-8.91602L24.6094-8.33984L22.168-5.89844L21.5918-6.47461Q21.4453-6.62109 21.4062-6.71875Q21.3672-6.81641 21.377-7.01172L21.4453-7.98828L19.9512-9.47266L18.4277-9.21875Q18.1836-9.16992 18.042-9.2041Q17.9004-9.23828 17.7148-9.41406L15.7129-11.416Q15.5176-11.5918 15.4932-11.7529Q15.4688-11.9141 15.5859-12.1875L16.4648-14.2773Q15.293-15.3711 13.8281-15.791Q12.3633-16.2109 10.8398-15.7617Q10.7227-15.7324 10.6885-15.8057Q10.6543-15.8789 10.752-15.957Z"/>
  </g>
  <text style="stroke:none;fill:black;font-family:sans-serif;font-size:13;font-weight:bold;" transform="matrix(1 0 0 1 1289 1953)">Exporting</text>
  <text style="stroke:none;fill:black;font-family:sans-serif;font-size:13;" transform="matrix(1 0 0 1 1289 1971)">Symbols should be outlined when exporting to ensure the</text>
  <text style="stroke:none;fill:black;font-family:sans-serif;font-size:13;" transform="matrix(1 0 0 1 1289 1989)">design is preserved when submitting to Xcode.</text>
  <text id="template-version" style="stroke:none;fill:black;font-family:sans-serif;font-size:13;text-anchor:end;" transform="matrix(1 0 0 1 3036 1933)">Template v.3.0</text>
  <text style="stroke:none;fill:black;font-family:sans-serif;font-size:13;text-anchor:end;" transform="matrix(1 0 0 1 3036 1951)">Requires Xcode 13 or greater</text>
  <text id="descriptive-name" style="stroke:none;fill:black;font-family:sans-serif;font-size:13;text-anchor:end;" transform="matrix(1 0 0 1 3036 1969)">Generated from lightbulb.fill</text>
  <text style="stroke:none;fill:black;font-family:sans-serif;font-size:13;text-anchor:end;" transform="matrix(1 0 0 1 3036 1987)">Typeset at 100 points</text>
  <text style="stroke:none;fill:black;font-family:sans-serif;font-size:13;" transform="matrix(1 0 0 1 263 726)">Small</text>
  <text style="stroke:none;fill:black;font-family:sans-serif;font-size:13;" transform="matrix(1 0 0 1 263 1156)">Medium</text>
  <text style="stroke:none;fill:black;font-family:sans-serif;font-size:13;" transform="matrix(1 0 0 1 263 1586)">Large</text>
 </g>
 <g id="Guides">
  <g id="H-reference" style="fill:#27AAE1;stroke:none;" transform="matrix(1 0 0 1 339 696)">
   <path d="M0.976562 0L3.66211 0L29.3457-67.1387L30.0293-67.1387L30.0293-70.459L28.125-70.459ZM11.6699-24.4629L46.9727-24.4629L46.2402-26.709L12.4512-26.709ZM55.127 0L57.7637 0L30.6152-70.459L29.4434-70.459L29.4434-67.1387Z"/>
  </g>
  <line id="Baseline-S" style="fill:none;stroke:#27AAE1;opacity:1;stroke-width:0.5;" x1="263" x2="3036" y1="696" y2="696"/>
  <line id="Capline-S" style="fill:none;stroke:#27AAE1;opacity:1;stroke-width:0.5;" x1="263" x2="3036" y1="625.541" y2="625.541"/>
  <g id="H-reference" style="fill:#27AAE1;stroke:none;" transform="matrix(1 0 0 1 339 1126)">
   <path d="M0.976562 0L3.66211 0L29.3457-67.1387L30.0293-67.1387L30.0293-70.459L28.125-70.459ZM11.6699-24.4629L46.9727-24.4629L46.2402-26.709L12.4512-26.709ZM55.127 0L57.7637 0L30.6152-70.459L29.4434-70.459L29.4434-67.1387Z"/>
  </g>
  <line id="Baseline-M" style="fill:none;stroke:#27AAE1;opacity:1;stroke-width:0.5;" x1="263" x2="3036" y1="1126" y2="1126"/>
  <line id="Capline-M" style="fill:none;stroke:#27AAE1;opacity:1;stroke-width:0.5;" x1="263" x2="3036" y1="1055.54" y2="1055.54"/>
  <g id="H-reference" style="fill:#27AAE1;stroke:none;" transform="matrix(1 0 0 1 339 1556)">
   <path d="M0.976562 0L3.66211 0L29.3457-67.1387L30.0293-67.1387L30.0293-70.459L28.125-70.459ZM11.6699-24.4629L46.9727-24.4629L46.2402-26.709L12.4512-26.709ZM55.127 0L57.7637 0L30.6152-70.459L29.4434-70.459L29.4434-67.1387Z"/>
  </g>
  <line id="Baseline-L" style="fill:none;stroke:#27AAE1;opacity:1;stroke-width:0.5;" x1="263" x2="3036" y1="1556" y2="1556"/>
  <line id="Capline-L" style="fill:none;stroke:#27AAE1;opacity:1;stroke-width:0.5;" x1="263" x2="3036" y1="1485.54" y2="1485.54"/>
  <line id="left-margin-Ultralight-S" style="fill:none;stroke:#00AEEF;stroke-width:0.5;opacity:1.0;" x1="518.061" x2="518.061" y1="600.785" y2="720.121"/>
  <line id="right-margin-Ultralight-S" style="fill:none;stroke:#00AEEF;stroke-width:0.5;opacity:1.0;" x1="601.362" x2="601.362" y1="600.785" y2="720.121"/>
  <line id="left-margin-Thin-S" style="fill:none;stroke:#00AEEF;stroke-width:0.5;opacity:1.0;" x1="814.161" x2="814.161" y1="600.785" y2="720.121"/>
  <line id="right-margin-Thin-S" style="fill:none;stroke:#00AEEF;stroke-width:0.5;opacity:1.0;" x1="898.683" x2="898.683" y1="600.785" y2="720.121"/>
  <line id="left-margin-Light-S" style="fill:none;stroke:#00AEEF;stroke-width:0.5;opacity:1.0;" x1="1109.68" x2="1109.68" y1="600.785" y2="720.121"/>
  <line id="right-margin-Light-S" style="fill:none;stroke:#00AEEF;stroke-width:0.5;opacity:1.0;" x1="1196.59" x2="1196.59" y1="600.785" y2="720.121"/>
  <line id="left-margin-Regular-S" style="fill:none;stroke:#00AEEF;stroke-width:0.5;opacity:1.0;" x1="1405.48" x2="1405.48" y1="600.785" y2="720.121"/>
  <line id="right-margin-Regular-S" style="fill:none;stroke:#00AEEF;stroke-width:0.5;opacity:1.0;" x1="1494.2" x2="1494.2" y1="600.785" y2="720.121"/>
  <line id="left-margin-Medium-S" style="fill:none;stroke:#00AEEF;stroke-width:0.5;opacity:1.0;" x1="1701.56" x2="1701.56" y1="600.785" y2="720.121"/>
  <line id="right-margin-Medium-S" style="fill:none;stroke:#00AEEF;stroke-width:0.5;opacity:1.0;" x1="1791.55" x2="1791.55" y1="600.785" y2="720.121"/>
  <line id="left-margin-Semibold-S" style="fill:none;stroke:#00AEEF;stroke-width:0.5;opacity:1.0;" x1="1997.78" x2="1997.78" y1="600.785" y2="720.121"/>
  <line id="right-margin-Semibold-S" style="fill:none;stroke:#00AEEF;stroke-width:0.5;opacity:1.0;" x1="2088.75" x2="2088.75" y1="600.785" y2="720.121"/>
  <line id="left-margin-Bold-S" style="fill:none;stroke:#00AEEF;stroke-width:0.5;opacity:1.0;" x1="2293.84" x2="2293.84" y1="600.785" y2="720.121"/>
  <line id="right-margin-Bold-S" style="fill:none;stroke:#00AEEF;stroke-width:0.5;opacity:1.0;" x1="2386.12" x2="2386.12" y1="600.785" y2="720.121"/>
  <line id="left-margin-Heavy-S" style="fill:none;stroke:#00AEEF;stroke-width:0.5;opacity:1.0;" x1="2589.62" x2="2589.62" y1="600.785" y2="720.121"/>
  <line id="right-margin-Heavy-S" style="fill:none;stroke:#00AEEF;stroke-width:0.5;opacity:1.0;" x1="2683.76" x2="2683.76" y1="600.785" y2="720.121"/>
  <line id="left-margin-Black-S" style="fill:none;stroke:#00AEEF;stroke-width:0.5;opacity:1.0;" x1="2885.5" x2="2885.5" y1="600.785" y2="720.121"/>
  <line id="right-margin-Black-S" style="fill:none;stroke:#00AEEF;stroke-width:0.5;opacity:1.0;" x1="2981.3" x2="2981.3" y1="600.785" y2="720.121"/>
  <line id="left-margin-Ultralight-M" style="fill:none;stroke:#00AEEF;stroke-width:0.5;opacity:1.0;" x1="506.806" x2="506.806" y1="1030.79" y2="1150.12"/>
  <line id="right-margin-Ultralight-M" style="fill:none;stroke:#00AEEF;stroke-width:0.5;opacity:1.0;" x1="612.616" x2="612.616" y1="1030.79" y2="1150.12"/>
  <line id="left-margin-Thin-M" style="fill:none;stroke:#00AEEF;stroke-width:0.5;opacity:1.0;" x1="802.809" x2="802.809" y1="1030.79" y2="1150.12"/>
  <line id="right-margin-Thin-M" style="fill:none;stroke:#00AEEF;stroke-width:0.5;opacity:1.0;" x1="910.036" x2="910.036" y1="1030.79" y2="1150.12"/>
  <line id="left-margin-Light-M" style="fill:none;stroke:#00AEEF;stroke-width:0.5;opacity:1.0;" x1="1098.18" x2="1098.18" y1="1030.79" y2="1150.12"/>
  <line id="right-margin-Light-M" style="fill:none;stroke:#00AEEF;stroke-width:0.5;opacity:1.0;" x1="1208.09" x2="1208.09" y1="1030.79" y2="1150.12"/>
  <line id="left-margin-Regular-M" style="fill:none;stroke:#00AEEF;stroke-width:0.5;opacity:1.0;" x1="1393.86" x2="1393.86" y1="1030.79" y2="1150.12"/>
  <line id="right-margin-Regular-M" style="fill:none;stroke:#00AEEF;stroke-width:0.5;opacity:1.0;" x1="1505.83" x2="1505.83" y1="1030.79" y2="1150.12"/>
  <line id="left-margin-Medium-M" style="fill:none;stroke:#00AEEF;stroke-width:0.5;opacity:1.0;" x1="1689.72" x2="1689.72" y1="1030.79" y2="1150.12"/>
  <line id="right-margin-Medium-M" style="fill:none;stroke:#00AEEF;stroke-width:0.5;opacity:1.0;" x1="1803.39" x2="1803.39" y1="1030.79" y2="1150.12"/>
  <line id="left-margin-Semibold-M" style="fill:none;stroke:#00AEEF;stroke-width:0.5;opacity:1.0;" x1="1985.75" x2="1985.75" y1="1030.79" y2="1150.12"/>
  <line id="right-margin-Semibold-M" style="fill:none;stroke:#00AEEF;stroke-width:0.5;opacity:1.0;" x1="2100.79" x2="2100.79" y1="1030.79" y2="1150.12"/>
  <line id="left-margin-Bold-M" style="fill:none;stroke:#00AEEF;stroke-width:0.5;opacity:1.0;" x1="2281.58" x2="2281.58" y1="1030.79" y2="1150.12"/>
  <line id="right-margin-Bold-M" style="fill:none;stroke:#00AEEF;stroke-width:0.5;opacity:1.0;" x1="2398.38" x2="2398.38" y1="1030.79" y2="1150.12"/>
  <line id="left-margin-Heavy-M" style="fill:none;stroke:#00AEEF;stroke-width:0.5;opacity:1.0;" x1="2577.02" x2="2577.02" y1="1030.79" y2="1150.12"/>
  <line id="right-margin-Heavy-M" style="fill:none;stroke:#00AEEF;stroke-width:0.5;opacity:1.0;" x1="2696.36" x2="2696.36" y1="1030.79" y2="1150.12"/>
  <line id="left-margin-Black-M" style="fill:none;stroke:#00AEEF;stroke-width:0.5;opacity:1.0;" x1="2872.61" x2="2872.61" y1="1030.79" y2="1150.12"/>
  <line id="right-margin-Black-M" style="fill:none;stroke:#00AEEF;stroke-width:0.5;opacity:1.0;" x1="2994.19" x2="2994.19" y1="1030.79" y2="1150.12"/>
  <line id="left-margin-Ultralight-L" style="fill:none;stroke:#00AEEF;stroke-width:0.5;opacity:1.0;" x1="491.742" x2="491.742" y1="1460.79" y2="1580.12"/>
  <line id="right-margin-Ultralight-L" style="fill:none;stroke:#00AEEF;stroke-width:0.5;opacity:1.0;" x1="627.68" x2="627.68" y1="1460.79" y2="1580.12"/>
  <line id="left-margin-Thin-L" style="fill:none;stroke:#00AEEF;stroke-width:0.5;opacity:1.0;" x1="787.672" x2="787.672" y1="1460.79" y2="1580.12"/>
  <line id="right-margin-Thin-L" style="fill:none;stroke:#00AEEF;stroke-width:0.5;opacity:1.0;" x1="925.172" x2="925.172" y1="1460.79" y2="1580.12"/>
  <line id="left-margin-Light-L" style="fill:none;stroke:#00AEEF;stroke-width:0.5;opacity:1.0;" x1="1082.87" x2="1082.87" y1="1460.79" y2="1580.12"/>
  <line id="right-margin-Light-L" style="fill:none;stroke:#00AEEF;stroke-width:0.5;opacity:1.0;" x1="1223.4" x2="1223.4" y1="1460.79" y2="1580.12"/>
  <line id="left-margin-Regular-L" style="fill:none;stroke:#00AEEF;stroke-width:0.5;opacity:1.0;" x1="1378.43" x2="1378.43" y1="1460.79" y2="1580.12"/>
  <line id="right-margin-Regular-L" style="fill:none;stroke:#00AEEF;stroke-width:0.5;opacity:1.0;" x1="1521.26" x2="1521.26" y1="1460.79" y2="1580.12"/>
  <line id="left-margin-Medium-L" style="fill:none;stroke:#00AEEF;stroke-width:0.5;opacity:1.0;" x1="1674.07" x2="1674.07" y1="1460.79" y2="1580.12"/>
  <line id="right-margin-Medium-L" style="fill:none;stroke:#00AEEF;stroke-width:0.5;opacity:1.0;" x1="1819.04" x2="1819.04" y1="1460.79" y2="1580.12"/>
  <line id="left-margin-Semibold-L" style="fill:none;stroke:#00AEEF;stroke-width:0.5;opacity:1.0;" x1="1969.95" x2="1969.95" y1="1460.79" y2="1580.12"/>
  <line id="right-margin-Semibold-L" style="fill:none;stroke:#00AEEF;stroke-width:0.5;opacity:1.0;" x1="2116.58" x2="2116.58" y1="1460.79" y2="1580.12"/>
  <line id="left-margin-Bold-L" style="fill:none;stroke:#00AEEF;stroke-width:0.5;opacity:1.0;" x1="2265.59" x2="2265.59" y1="1460.79" y2="1580.12"/>
  <line id="right-margin-Bold-L" style="fill:none;stroke:#00AEEF;stroke-width:0.5;opacity:1.0;" x1="2414.37" x2="2414.37" y1="1460.79" y2="1580.12"/>
  <line id="left-margin-Heavy-L" style="fill:none;stroke:#00AEEF;stroke-width:0.5;opacity:1.0;" x1="2560.74" x2="2560.74" y1="1460.79" y2="1580.12"/>
  <line id="right-margin-Heavy-L" style="fill:none;stroke:#00AEEF;stroke-width:0.5;opacity:1.0;" x1="2712.64" x2="2712.64" y1="1460.79" y2="1580.12"/>
  <line id="left-margin-Black-L" style="fill:none;stroke:#00AEEF;stroke-width:0.5;opacity:1.0;" x1="2856.03" x2="2856.03" y1="1460.79" y2="1580.12"/>
  <line id="right-margin-Black-L" style="fill:none;stroke:#00AEEF;stroke-width:0.5;opacity:1.0;" x1="3010.77" x2="3010.77" y1="1460.79" y2="1580.12"/>
 </g>
 <g id="Symbols">
  <g id="Black-L" transform="matrix(1 0 0 1 2856.03 1556)">
   <path d="M52.4414 6.39648L102.295 6.39648Q105.225 6.39648 107.104 4.56543Q108.984 2.73438 108.984-0.195312L108.984-8.64258Q108.984-12.4023 110.645-15.8203Q112.305-19.2383 114.893-22.6807Q117.48-26.123 120.386-29.9805Q123.291-33.8379 125.879-38.501Q128.467-43.1641 130.127-48.999Q131.787-54.834 131.787-62.207Q131.787-74.1699 127.856-84.0332Q123.926-93.8965 116.699-101.025Q109.473-108.154 99.4873-112.036Q89.502-115.918 77.3438-115.918Q65.2344-115.918 55.249-112.036Q45.2637-108.154 38.0371-101.025Q30.8105-93.8965 26.8799-84.0332Q22.9492-74.1699 22.9492-62.207Q22.9492-54.834 24.585-48.999Q26.2207-43.1641 28.833-38.501Q31.4453-33.8379 34.3506-29.9805Q37.2559-26.123 39.8438-22.6807Q42.4316-19.2383 44.0918-15.8203Q45.752-12.4023 45.752-8.64258L45.752-0.195312Q45.752 2.73438 47.6318 4.56543Q49.5117 6.39648 52.4414 6.39648ZM77.3438 43.75Q85.5957 43.75 90.9668 40.2588Q96.3379 36.7676 96.9238 31.0059L57.8125 31.0059Q58.3496 36.7676 63.6963 40.2588Q69.043 43.75 77.3438 43.75ZM52.6855 26.0742L102.051 26.0742Q105.127 26.0742 107.3 23.8525Q109.473 21.6309 109.473 18.7012Q109.473 15.7715 107.3 13.5498Q105.127 11.3281 102.051 11.3281L52.6855 11.3281Q49.6094 11.3281 47.4365 13.5498Q45.2637 15.7715 45.2637 18.7012Q45.2637 21.6309 47.4365 23.8525Q49.6094 26.0742 52.6855 26.0742Z"/>
  </g>
  <g id="Heavy-L" transform="matrix(1 0 0 1 2560.74 1556)">
   <path d="M51.6602 5.41992L100.244 5.41992Q102.832 5.41992 104.443 3.83301Q106.055 2.24609 106.055-0.292969L106.055-9.0332Q106.055-12.8418 107.715-16.2842Q109.375-19.7266 111.963-23.1934Q114.551-26.6602 117.456-30.542Q120.361-34.4238 122.949-39.0625Q125.537-43.7012 127.173-49.4629Q128.809-55.2246 128.809-62.5Q128.809-74.1211 125-83.7158Q121.191-93.3105 114.185-100.244Q107.178-107.178 97.4854-110.938Q87.793-114.697 75.9277-114.697Q64.1602-114.697 54.4678-110.938Q44.7754-107.178 37.7441-100.244Q30.7129-93.3105 26.9043-83.7158Q23.0957-74.1211 23.0957-62.5Q23.0957-55.2246 24.7314-49.4629Q26.3672-43.7012 28.9795-39.0625Q31.5918-34.4238 34.4971-30.542Q37.4023-26.6602 39.9902-23.1934Q42.5781-19.7266 44.2139-16.2842Q45.8496-12.8418 45.8496-9.0332L45.8496-0.292969Q45.8496 2.24609 47.4854 3.83301Q49.1211 5.41992 51.6602 5.41992ZM75.9766 41.3086Q83.7891 41.3086 88.8672 38.0127Q93.9453 34.7168 94.5312 29.248L57.4707 29.248Q57.959 34.7168 63.0371 38.0127Q68.1152 41.3086 75.9766 41.3086ZM52.4414 24.2676L99.5117 24.2676Q102.393 24.2676 104.419 22.1924Q106.445 20.1172 106.445 17.334Q106.445 14.5508 104.419 12.4756Q102.393 10.4004 99.5117 10.4004L52.4414 10.4004Q49.5605 10.4004 47.5342 12.4756Q45.5078 14.5508 45.5078 17.334Q45.5078 20.1172 47.5342 22.1924Q49.5605 24.2676 52.4414 24.2676Z"/>
  </g>
  <g id="Bold-L" transform="matrix(1 0 0 1 2265.59 1556)">
   <path d="M50.8301 4.39453L97.998 4.39453Q100.146 4.39453 101.489 3.05176Q102.832 1.70898 102.832-0.439453L102.832-9.47266Q102.832-13.3301 104.468-16.8213Q106.104-20.3125 108.691-23.8037Q111.279-27.2949 114.16-31.1768Q117.041-35.0586 119.629-39.6729Q122.217-44.2871 123.853-49.9756Q125.488-55.6641 125.488-62.793Q125.488-74.1211 121.826-83.3984Q118.164-92.6758 111.401-99.3652Q104.639-106.055 95.2393-109.692Q85.8398-113.33 74.4141-113.33Q62.9883-113.33 53.5889-109.692Q44.1895-106.055 37.4268-99.3652Q30.6641-92.6758 26.9775-83.3984Q23.291-74.1211 23.291-62.793Q23.291-55.6641 24.9268-49.9756Q26.5625-44.2871 29.1504-39.6729Q31.7383-35.0586 34.6436-31.1768Q37.5488-27.2949 40.1367-23.8037Q42.7246-20.3125 44.3604-16.8213Q45.9961-13.3301 45.9961-9.47266L45.9961-0.439453Q45.9961 1.70898 47.3389 3.05176Q48.6816 4.39453 50.8301 4.39453ZM74.4141 38.623Q81.7383 38.623 86.499 35.498Q91.2598 32.373 91.7969 27.2949L57.0312 27.2949Q57.5195 32.373 62.2803 35.498Q67.041 38.623 74.4141 38.623ZM52.1973 22.2656L96.6797 22.2656Q99.3164 22.2656 101.196 20.3613Q103.076 18.457 103.076 15.8203Q103.076 13.2324 101.196 11.3037Q99.3164 9.375 96.6797 9.375L52.1973 9.375Q49.5117 9.375 47.6318 11.3037Q45.752 13.2324 45.752 15.8203Q45.752 18.457 47.6318 20.3613Q49.5117 22.2656 52.1973 22.2656Z"/>
  </g>
  <g id="Semibold-L" transform="matrix(1 0 0 1 1969.95 1556)">
   <path d="M50.1953 3.61328L96.3867 3.61328Q98.2422 3.61328 99.3896 2.46582Q100.537 1.31836 100.537-0.537109L100.537-9.76562Q100.537-13.6719 102.197-17.1875Q103.857-20.7031 106.421-24.2188Q108.984-27.7344 111.865-31.5918Q114.746-35.4492 117.334-40.0635Q119.922-44.6777 121.558-50.3174Q123.193-55.957 123.193-62.9883Q123.193-74.0723 119.629-83.1543Q116.064-92.2363 109.448-98.7549Q102.832-105.273 93.6768-108.813Q84.5215-112.354 73.291-112.354Q62.1582-112.354 52.9785-108.813Q43.7988-105.273 37.1826-98.7549Q30.5664-92.2363 27.002-83.1543Q23.4375-74.0723 23.4375-62.9883Q23.4375-55.957 25.0732-50.3174Q26.709-44.6777 29.2725-40.0635Q31.8359-35.4492 34.7412-31.5918Q37.6465-27.7344 40.2344-24.2188Q42.8223-20.7031 44.4336-17.1875Q46.0449-13.6719 46.0449-9.76562L46.0449-0.537109Q46.0449 1.31836 47.2168 2.46582Q48.3887 3.61328 50.1953 3.61328ZM73.3398 36.7188Q80.3223 36.7188 84.8877 33.7402Q89.4531 30.7617 89.9414 25.9277L56.7871 25.9277Q57.1777 30.7617 61.7432 33.7402Q66.3086 36.7188 73.3398 36.7188ZM52.002 20.8984L94.7266 20.8984Q97.2168 20.8984 98.999 19.0918Q100.781 17.2852 100.781 14.7949Q100.781 12.2559 98.999 10.4492Q97.2168 8.64258 94.7266 8.64258L52.002 8.64258Q49.5117 8.64258 47.7295 10.4492Q45.9473 12.2559 45.9473 14.7949Q45.9473 17.2852 47.7295 19.0918Q49.5117 20.8984 52.002 20.8984Z"/>
  </g>
  <g id="Medium-L" transform="matrix(1 0 0 1 1674.07 1556)">
   <path d="M49.7559 3.07617L95.2148 3.07617Q96.875 3.07617 97.876 2.0752Q98.877 1.07422 98.877-0.585938L98.877-10.0098Q98.877-13.916 100.513-17.4561Q102.148-20.9961 104.712-24.5117Q107.275-28.0273 110.156-31.9092Q113.037-35.791 115.625-40.3809Q118.213-44.9707 119.824-50.5615Q121.436-56.1523 121.436-63.1836Q121.436-74.0723 117.944-82.9834Q114.453-91.8945 107.983-98.291Q101.514-104.688 92.5049-108.154Q83.4961-111.621 72.5098-111.621Q61.5234-111.621 52.5146-108.154Q43.5059-104.688 37.0117-98.291Q30.5176-91.8945 27.002-82.9834Q23.4863-74.0723 23.4863-63.1836Q23.4863-56.1523 25.1221-50.5615Q26.7578-44.9707 29.3457-40.3809Q31.9336-35.791 34.8145-31.9092Q37.6953-28.0273 40.2832-24.5117Q42.8711-20.9961 44.4824-17.4561Q46.0938-13.916 46.0938-10.0098L46.0938-0.585938Q46.0938 1.07422 47.1191 2.0752Q48.1445 3.07617 49.7559 3.07617ZM72.4609 35.3027Q79.1992 35.3027 83.5938 32.4219Q87.9883 29.541 88.4766 24.9023L56.4941 24.9023Q56.9336 29.541 61.3281 32.4219Q65.7227 35.3027 72.4609 35.3027ZM51.8066 19.8242L93.1641 19.8242Q95.5566 19.8242 97.2656 18.1152Q98.9746 16.4062 98.9746 13.9648Q98.9746 11.5723 97.2656 9.83887Q95.5566 8.10547 93.1641 8.10547L51.8066 8.10547Q49.4141 8.10547 47.7295 9.83887Q46.0449 11.5723 46.0449 13.9648Q46.0449 16.4062 47.7295 18.1152Q49.4141 19.8242 51.8066 19.8242Z"/>
  </g>
  <g id="Regular-L" transform="matrix(1 0 0 1 1378.43 1556)">
   <path d="M49.1699 2.34375L93.6523 2.34375Q95.0195 2.34375 95.8252 1.51367Q96.6309 0.683594 96.6309-0.683594L96.6309-10.3027Q96.6309-14.2578 98.2666-17.8223Q99.9023-21.3867 102.466-24.9268Q105.029-28.4668 107.91-32.3486Q110.791-36.2305 113.379-40.7959Q115.967-45.3613 117.578-50.9033Q119.189-56.4453 119.189-63.3789Q119.189-74.0234 115.796-82.7393Q112.402-91.4551 106.079-97.7051Q99.7559-103.955 90.9668-107.324Q82.1777-110.693 71.4355-110.693Q60.6934-110.693 51.9043-107.324Q43.1152-103.955 36.792-97.7051Q30.4688-91.4551 27.0508-82.7393Q23.6328-74.0234 23.6328-63.3789Q23.6328-56.4453 25.2686-50.9033Q26.9043-45.3613 29.4678-40.7959Q32.0312-36.2305 34.9121-32.3486Q37.793-28.4668 40.3809-24.9268Q42.9688-21.3867 44.5801-17.8223Q46.1914-14.2578 46.1914-10.3027L46.1914-0.683594Q46.1914 0.683594 47.0215 1.51367Q47.8516 2.34375 49.1699 2.34375ZM71.4355 33.4473Q77.832 33.4473 82.0068 30.7129Q86.1816 27.9785 86.6699 23.5352L56.25 23.5352Q56.6406 27.9785 60.8154 30.7129Q64.9902 33.4473 71.4355 33.4473ZM51.6602 18.457L91.2598 18.457Q93.5059 18.457 95.0928 16.8457Q96.6797 15.2344 96.6797 12.9395Q96.6797 10.6445 95.0928 9.0332Q93.5059 7.42188 91.2598 7.42188L51.6602 7.42188Q49.4141 7.42188 47.8271 9.0332Q46.2402 10.6445 46.2402 12.9395Q46.2402 15.2344 47.8271 16.8457Q49.4141 18.457 51.6602 18.457Z"/>
  </g>
  <g id="Light-L" transform="matrix(1 0 0 1 1082.87 1556)">
   <path d="M48.8281 2.58789L91.6992 2.58789Q92.7734 2.58789 93.3838 1.92871Q93.9941 1.26953 93.9941 0.146484L93.9941-8.83789Q93.9941-12.9883 95.6787-16.6504Q97.3633-20.3125 100-23.9258Q102.637-27.5391 105.591-31.4697Q108.545-35.4004 111.206-40.0146Q113.867-44.6289 115.527-50.2686Q117.188-55.9082 117.188-63.0371Q117.188-73.5352 113.867-82.1045Q110.547-90.6738 104.321-96.8262Q98.0957-102.979 89.4531-106.323Q80.8105-109.668 70.2637-109.668Q59.7168-109.668 51.0742-106.323Q42.4316-102.979 36.2305-96.8262Q30.0293-90.6738 26.6846-82.1045Q23.3398-73.5352 23.3398-63.0371Q23.3398-55.9082 25.0244-50.2686Q26.709-44.6289 29.3213-40.0146Q31.9336-35.4004 34.9121-31.4697Q37.8906-27.5391 40.5273-23.9258Q43.1641-20.3125 44.8486-16.6504Q46.5332-12.9883 46.5332-8.83789L46.5332 0.146484Q46.5332 1.26953 47.168 1.92871Q47.8027 2.58789 48.8281 2.58789ZM70.2637 32.1777Q76.5137 32.1777 80.6152 29.4922Q84.7168 26.8066 85.1562 22.4609L55.4199 22.4609Q55.8105 26.8066 59.8877 29.4922Q63.9648 32.1777 70.2637 32.1777ZM51.416 17.4805L89.1602 17.4805Q91.2598 17.4805 92.6514 16.0645Q94.043 14.6484 94.043 12.5488Q94.043 10.4492 92.6514 9.00879Q91.2598 7.56836 89.1602 7.56836L51.416 7.56836Q49.3652 7.56836 47.9492 9.00879Q46.5332 10.4492 46.5332 12.5488Q46.5332 14.6484 47.9492 16.0645Q49.3652 17.4805 51.416 17.4805Z"/>
  </g>
  <g id="Thin-L" transform="matrix(1 0 0 1 787.672 1556)">
   <path d="M48.3398 2.92969L89.1113 2.92969Q89.7949 2.92969 90.1611 2.46582Q90.5273 2.00195 90.5273 1.2207L90.5273-6.93359Q90.5273-11.3281 92.2852-15.1367Q94.043-18.9453 96.7773-22.6074Q99.5117-26.2695 102.563-30.2734Q105.615-34.2773 108.374-38.9648Q111.133-43.6523 112.842-49.4385Q114.551-55.2246 114.551-62.5488Q114.551-72.8516 111.304-81.25Q108.057-89.6484 102.002-95.7031Q95.9473-101.758 87.5-105.005Q79.0527-108.252 68.75-108.252Q58.4473-108.252 50-105.005Q41.5527-101.758 35.498-95.7031Q29.4434-89.6484 26.1963-81.25Q22.9492-72.8516 22.9492-62.5488Q22.9492-55.2246 24.6826-49.4385Q26.416-43.6523 29.126-38.9648Q31.8359-34.2773 34.9121-30.2734Q37.9883-26.2695 40.7227-22.6074Q43.457-18.9453 45.1904-15.1367Q46.9238-11.3281 46.9238-6.93359L46.9238 1.2207Q46.9238 2.00195 47.3145 2.46582Q47.7051 2.92969 48.3398 2.92969ZM68.75 30.5176Q74.8047 30.5176 78.7842 27.9053Q82.7637 25.293 83.1543 21.0938L54.3457 21.0938Q54.6875 25.293 58.6426 27.9053Q62.5977 30.5176 68.75 30.5176ZM51.0254 16.2109L86.4258 16.2109Q88.2324 16.2109 89.4043 15.0146Q90.5762 13.8184 90.5762 12.0117Q90.5762 10.2051 89.4043 8.98438Q88.2324 7.76367 86.4258 7.76367L51.0254 7.76367Q49.2676 7.76367 48.0957 8.98438Q46.9238 10.2051 46.9238 12.0117Q46.9238 13.8184 48.0957 15.0146Q49.2676 16.2109 51.0254 16.2109Z"/>
  </g>
  <g id="Ultralight-L" transform="matrix(1 0 0 1 491.742 1556)">
   <path d="M48.1445 3.07617L87.793 3.07617Q88.2324 3.07617 88.501 2.73438Q88.7695 2.39258 88.7695 1.75781L88.7695-5.95703Q88.7695-10.4492 90.5518-14.3311Q92.334-18.2129 95.1172-21.9238Q97.9004-25.6348 101.001-29.6631Q104.102-33.6914 106.909-38.4033Q109.717-43.1152 111.45-48.9746Q113.184-54.834 113.184-62.3535Q113.184-72.5098 109.985-80.835Q106.787-89.1602 100.806-95.1172Q94.8242-101.074 86.4746-104.321Q78.125-107.568 67.9688-107.568Q57.7637-107.568 49.4385-104.321Q41.1133-101.074 35.1318-95.1172Q29.1504-89.1602 25.9277-80.835Q22.7051-72.5098 22.7051-62.3535Q22.7051-54.834 24.4873-48.9746Q26.2695-43.1152 29.0283-38.4033Q31.7871-33.6914 34.9365-29.6631Q38.0859-25.6348 40.8447-21.9238Q43.6035-18.2129 45.3857-14.3311Q47.168-10.4492 47.168-5.95703L47.168 1.75781Q47.168 2.39258 47.4121 2.73438Q47.6562 3.07617 48.1445 3.07617ZM68.0176 29.6387Q73.9746 29.6387 77.8809 27.0752Q81.7871 24.5117 82.1777 20.3613L53.8086 20.3613Q54.1504 24.5117 58.0566 27.0752Q61.9629 29.6387 68.0176 29.6387ZM50.9277 15.5273L85.0586 15.5273Q86.7676 15.5273 87.8174 14.4775Q88.8672 13.4277 88.8672 11.7188Q88.8672 10.0586 87.8174 8.95996Q86.7676 7.86133 85.0586 7.86133L50.9277 7.86133Q49.2676 7.86133 48.2178 8.95996Q47.168 10.0586 47.168 11.7188Q47.168 13.4277 48.2178 14.4775Q49.2676 15.5273 50.9277 15.5273Z"/>
  </g>
  <g id="Black-M" transform="matrix(1 0 0 1 2872.61 1126)">
   <path d="M41.2109-2.05078L80.3711-2.05078Q82.9102-2.05078 84.5215-3.6377Q86.1328-5.22461 86.1328-7.71484L86.1328-13.8184Q86.1328-17.334 87.9395-20.459Q89.7461-23.584 92.4072-26.9043Q95.0684-30.2246 97.7295-34.2285Q100.391-38.2324 102.197-43.4814Q104.004-48.7305 104.004-55.8105Q104.004-65.2832 100.879-73.0957Q97.7539-80.9082 92.0166-86.5967Q86.2793-92.2852 78.3447-95.3613Q70.4102-98.4375 60.791-98.4375Q51.1719-98.4375 43.2617-95.3613Q35.3516-92.2852 29.5898-86.5967Q23.8281-80.9082 20.7031-73.0957Q17.5781-65.2832 17.5781-55.8105Q17.5781-48.7305 19.3848-43.4814Q21.1914-38.2324 23.8525-34.2285Q26.5137-30.2246 29.1992-26.9043Q31.8848-23.584 33.6914-20.459Q35.498-17.334 35.498-13.8184L35.498-7.71484Q35.498-5.22461 37.1094-3.6377Q38.7207-2.05078 41.2109-2.05078ZM60.791 27.6367Q67.4805 27.6367 71.875 24.7803Q76.2695 21.9238 76.709 17.2852L44.873 17.2852Q45.3125 21.9238 49.6582 24.7803Q54.0039 27.6367 60.791 27.6367ZM40.9668 13.4766L80.6152 13.4766Q83.1055 13.4766 84.8389 11.6943Q86.5723 9.91211 86.5723 7.61719Q86.5723 5.27344 84.8389 3.49121Q83.1055 1.70898 80.6152 1.70898L40.9668 1.70898Q38.4766 1.70898 36.7432 3.49121Q35.0098 5.27344 35.0098 7.61719Q35.0098 9.91211 36.7432 11.6943Q38.4766 13.4766 40.9668 13.4766Z"/>
  </g>
  <g id="Heavy-M" transform="matrix(1 0 0 1 2577.02 1126)">
   <path d="M40.5273-3.02734L78.7598-3.02734Q81.0059-3.02734 82.4219-4.41895Q83.8379-5.81055 83.8379-8.00781L83.8379-14.502Q83.8379-18.0176 85.6201-21.167Q87.4023-24.3164 90.0391-27.6367Q92.6758-30.957 95.3125-34.9365Q97.9492-38.916 99.7314-44.0918Q101.514-49.2676 101.514-56.1523Q101.514-65.332 98.5107-72.9248Q95.5078-80.5176 89.9414-86.0107Q84.375-91.5039 76.6846-94.4824Q68.9941-97.4609 59.668-97.4609Q50.3418-97.4609 42.6514-94.4824Q34.9609-91.5039 29.3945-86.0107Q23.8281-80.5176 20.8008-72.9248Q17.7734-65.332 17.7734-56.1523Q17.7734-49.2676 19.5801-44.0918Q21.3867-38.916 24.0234-34.9365Q26.6602-30.957 29.2969-27.6367Q31.9336-24.3164 33.7158-21.167Q35.498-18.0176 35.498-14.502L35.498-8.00781Q35.498-5.81055 36.9141-4.41895Q38.3301-3.02734 40.5273-3.02734ZM59.668 25.5371Q65.9668 25.5371 70.0928 22.8516Q74.2188 20.166 74.6582 15.7715L44.6777 15.7715Q45.0684 20.166 49.1699 22.8516Q53.2715 25.5371 59.668 25.5371ZM40.7715 11.9141L78.5645 11.9141Q80.9082 11.9141 82.5439 10.2539Q84.1797 8.59375 84.1797 6.39648Q84.1797 4.15039 82.5439 2.46582Q80.9082 0.78125 78.5645 0.78125L40.7715 0.78125Q38.4277 0.78125 36.792 2.46582Q35.1562 4.15039 35.1562 6.39648Q35.1562 8.59375 36.792 10.2539Q38.4277 11.9141 40.7715 11.9141Z"/>
  </g>
  <g id="Bold-M" transform="matrix(1 0 0 1 2281.58 1126)">
   <path d="M39.7461-4.15039L77.002-4.15039Q78.9062-4.15039 80.0781-5.32227Q81.25-6.49414 81.25-8.34961L81.25-15.2832Q81.25-18.7988 83.0322-21.9727Q84.8145-25.1465 87.4023-28.4912Q89.9902-31.8359 92.6025-35.7666Q95.2148-39.6973 96.9971-44.7754Q98.7793-49.8535 98.7793-56.543Q98.7793-65.4297 95.874-72.7539Q92.9688-80.0781 87.6221-85.376Q82.2754-90.6738 74.8535-93.5303Q67.4316-96.3867 58.3984-96.3867Q49.3652-96.3867 41.9678-93.5303Q34.5703-90.6738 29.1992-85.376Q23.8281-80.0781 20.9229-72.7539Q18.0176-65.4297 18.0176-56.543Q18.0176-49.8535 19.7998-44.7754Q21.582-39.6973 24.1943-35.7666Q26.8066-31.8359 29.4189-28.4912Q32.0312-25.1465 33.7891-21.9727Q35.5469-18.7988 35.5469-15.2832L35.5469-8.34961Q35.5469-6.49414 36.7188-5.32227Q37.8906-4.15039 39.7461-4.15039ZM58.3984 23.1934Q64.2578 23.1934 68.0908 20.6787Q71.9238 18.1641 72.3145 14.1113L44.4336 14.1113Q44.8242 18.1641 48.6328 20.6787Q52.4414 23.1934 58.3984 23.1934ZM40.5762 10.2051L76.2207 10.2051Q78.418 10.2051 79.9316 8.64258Q81.4453 7.08008 81.4453 4.98047Q81.4453 2.88086 79.9316 1.29395Q78.418-0.292969 76.2207-0.292969L40.5762-0.292969Q38.3789-0.292969 36.8408 1.29395Q35.3027 2.88086 35.3027 4.98047Q35.3027 7.08008 36.8408 8.64258Q38.3789 10.2051 40.5762 10.2051Z"/>
  </g>
  <g id="Semibold-M" transform="matrix(1 0 0 1 1985.75 1126)">
   <path d="M39.209-4.93164L75.7812-4.93164Q77.4414-4.93164 78.4668-5.93262Q79.4922-6.93359 79.4922-8.54492L79.4922-15.8203Q79.4922-19.3359 81.25-22.5342Q83.0078-25.7324 85.5713-29.0527Q88.1348-32.373 90.7227-36.3037Q93.3105-40.2344 95.0684-45.2393Q96.8262-50.2441 96.8262-56.7871Q96.8262-65.4785 94.0186-72.6318Q91.2109-79.7852 85.9863-84.9121Q80.7617-90.0391 73.5352-92.8467Q66.3086-95.6543 57.4707-95.6543Q48.7305-95.6543 41.4795-92.8467Q34.2285-90.0391 29.0283-84.9121Q23.8281-79.7852 20.9961-72.6318Q18.1641-65.4785 18.1641-56.7871Q18.1641-50.2441 19.9219-45.2393Q21.6797-40.2344 24.292-36.3037Q26.9043-32.373 29.4678-29.0527Q32.0312-25.7324 33.7891-22.5342Q35.5469-19.3359 35.5469-15.8203L35.5469-8.54492Q35.5469-6.93359 36.5723-5.93262Q37.5977-4.93164 39.209-4.93164ZM57.5195 21.5332Q63.0859 21.5332 66.7236 19.165Q70.3613 16.7969 70.752 12.9395L44.3359 12.9395Q44.6777 16.7969 48.291 19.165Q51.9043 21.5332 57.5195 21.5332ZM40.4297 9.0332L74.6582 9.0332Q76.709 9.0332 78.1738 7.54395Q79.6387 6.05469 79.6387 4.00391Q79.6387 1.95312 78.1738 0.488281Q76.709-0.976562 74.6582-0.976562L40.4297-0.976562Q38.3301-0.976562 36.8896 0.488281Q35.4492 1.95312 35.4492 4.00391Q35.4492 6.05469 36.8896 7.54395Q38.3301 9.0332 40.4297 9.0332Z"/>
  </g>
  <g id="Medium-M" transform="matrix(1 0 0 1 1689.72 1126)">
   <path d="M38.8184-5.51758L74.8535-5.51758Q76.3672-5.51758 77.2461-6.39648Q78.125-7.27539 78.125-8.74023L78.125-16.2109Q78.125-19.7266 79.8828-22.9248Q81.6406-26.123 84.1797-29.4678Q86.7188-32.8125 89.3066-36.7188Q91.8945-40.625 93.6523-45.5811Q95.4102-50.5371 95.4102-57.0312Q95.4102-65.5273 92.627-72.5342Q89.8438-79.541 84.7656-84.5703Q79.6875-89.5996 72.583-92.334Q65.4785-95.0684 56.8359-95.0684Q48.1934-95.0684 41.1133-92.334Q34.0332-89.5996 28.9307-84.5703Q23.8281-79.541 21.0693-72.5342Q18.3105-65.5273 18.3105-57.0312Q18.3105-50.5371 20.0439-45.5811Q21.7773-40.625 24.3652-36.7188Q26.9531-32.8125 29.5166-29.4678Q32.0801-26.123 33.8379-22.9248Q35.5957-19.7266 35.5957-16.2109L35.5957-8.74023Q35.5957-7.27539 36.4746-6.39648Q37.3535-5.51758 38.8184-5.51758ZM56.8848 20.3125Q62.207 20.3125 65.6982 18.042Q69.1895 15.7715 69.5801 12.0605L44.1895 12.0605Q44.5801 15.7715 48.0469 18.042Q51.5137 20.3125 56.8848 20.3125ZM40.332 8.10547L73.4863 8.10547Q75.4395 8.10547 76.8311 6.68945Q78.2227 5.27344 78.2227 3.27148Q78.2227 1.31836 76.8311-0.0976562Q75.4395-1.51367 73.4863-1.51367L40.332-1.51367Q38.3301-1.51367 36.9385-0.0976562Q35.5469 1.31836 35.5469 3.27148Q35.5469 5.27344 36.9385 6.68945Q38.3301 8.10547 40.332 8.10547Z"/>
  </g>
  <g id="Regular-M" transform="matrix(1 0 0 1 1393.86 1126)">
   <path d="M38.2812-6.25L73.6328-6.25Q74.9023-6.25 75.6348-6.98242Q76.3672-7.71484 76.3672-8.93555L76.3672-16.748Q76.3672-20.2637 78.1006-23.4863Q79.834-26.709 82.373-30.0537Q84.9121-33.3984 87.4756-37.2803Q90.0391-41.1621 91.7725-46.0449Q93.5059-50.9277 93.5059-57.2754Q93.5059-65.5762 90.8203-72.4121Q88.1348-79.248 83.1787-84.1309Q78.2227-89.0137 71.3135-91.6748Q64.4043-94.3359 55.957-94.3359Q47.5586-94.3359 40.6494-91.6748Q33.7402-89.0137 28.7842-84.1309Q23.8281-79.248 21.1426-72.4121Q18.457-65.5762 18.457-57.2754Q18.457-50.9277 20.1904-46.0449Q21.9238-41.1621 24.4873-37.2803Q27.0508-33.3984 29.5898-30.0537Q32.1289-26.709 33.8623-23.4863Q35.5957-20.2637 35.5957-16.748L35.5957-8.93555Q35.5957-7.71484 36.3281-6.98242Q37.0605-6.25 38.2812-6.25ZM56.0059 18.7012Q61.0352 18.7012 64.3311 16.5527Q67.627 14.4043 67.9688 10.8887L44.043 10.8887Q44.3848 14.4043 47.6562 16.5527Q50.9277 18.7012 56.0059 18.7012ZM40.1855 6.93359L71.875 6.93359Q73.7305 6.93359 75.0488 5.59082Q76.3672 4.24805 76.3672 2.34375Q76.3672 0.439453 75.0488-0.90332Q73.7305-2.24609 71.875-2.24609L40.1855-2.24609Q38.2812-2.24609 36.9629-0.90332Q35.6445 0.439453 35.6445 2.34375Q35.6445 4.24805 36.9629 5.59082Q38.2812 6.93359 40.1855 6.93359Z"/>
  </g>
  <g id="Light-M" transform="matrix(1 0 0 1 1098.18 1126)">
   <path d="M37.9883-6.00586L71.9238-6.00586Q72.9004-6.00586 73.4619-6.5918Q74.0234-7.17773 74.0234-8.20312L74.0234-15.4297Q74.0234-19.1406 75.8057-22.4609Q77.5879-25.7812 80.2246-29.1748Q82.8613-32.5684 85.498-36.5234Q88.1348-40.4785 89.917-45.4346Q91.6992-50.3906 91.6992-56.9336Q91.6992-65.1367 89.0869-71.8506Q86.4746-78.5645 81.6162-83.374Q76.7578-88.1836 69.9951-90.7715Q63.2324-93.3594 54.9316-93.3594Q46.6797-93.3594 39.917-90.7715Q33.1543-88.1836 28.2959-83.374Q23.4375-78.5645 20.8252-71.8506Q18.2129-65.1367 18.2129-56.9336Q18.2129-50.3906 19.9951-45.4346Q21.7773-40.4785 24.4141-36.5234Q27.0508-32.5684 29.6875-29.1748Q32.3242-25.7812 34.1064-22.4609Q35.8887-19.1406 35.8887-15.4297L35.8887-8.20312Q35.8887-7.17773 36.4502-6.5918Q37.0117-6.00586 37.9883-6.00586ZM54.9805 17.5781Q59.9121 17.5781 63.1104 15.4785Q66.3086 13.3789 66.6504 9.96094L43.3105 9.96094Q43.6523 13.3789 46.8506 15.4785Q50.0488 17.5781 54.9805 17.5781ZM39.9902 6.05469L70.0684 6.05469Q71.7285 6.05469 72.876 4.88281Q74.0234 3.71094 74.0234 2.00195Q74.0234 0.244141 72.876-0.927734Q71.7285-2.09961 70.0684-2.09961L39.9902-2.09961Q38.2324-2.09961 37.085-0.927734Q35.9375 0.244141 35.9375 2.00195Q35.9375 3.71094 37.085 4.88281Q38.2324 6.05469 39.9902 6.05469Z"/>
  </g>
  <g id="Thin-M" transform="matrix(1 0 0 1 802.809 1126)">
   <path d="M37.5977-5.71289L69.6289-5.71289Q70.2148-5.71289 70.5811-6.12793Q70.9473-6.54297 70.9473-7.22656L70.9473-13.6719Q70.9473-17.6758 72.8027-21.1426Q74.6582-24.6094 77.3926-28.0518Q80.127-31.4941 82.8857-35.5225Q85.6445-39.5508 87.5-44.6533Q89.3555-49.7559 89.3555-56.543Q89.3555-64.502 86.8164-71.0693Q84.2773-77.6367 79.541-82.3486Q74.8047-87.0605 68.2373-89.5996Q61.6699-92.1387 53.6133-92.1387Q45.5566-92.1387 38.9893-89.5996Q32.4219-87.0605 27.6855-82.3486Q22.9492-77.6367 20.4102-71.0693Q17.8711-64.502 17.8711-56.543Q17.8711-49.7559 19.7266-44.6533Q21.582-39.5508 24.3408-35.5225Q27.0996-31.4941 29.834-28.0518Q32.5684-24.6094 34.4238-21.1426Q36.2793-17.6758 36.2793-13.6719L36.2793-7.22656Q36.2793-6.54297 36.6455-6.12793Q37.0117-5.71289 37.5977-5.71289ZM53.6621 16.0645Q58.3984 16.0645 61.499 14.0381Q64.5996 12.0117 64.9414 8.69141L42.3828 8.69141Q42.6758 12.0117 45.7764 14.0381Q48.877 16.0645 53.6621 16.0645ZM39.6973 4.93164L67.627 4.93164Q69.0918 4.93164 70.0195 3.93066Q70.9473 2.92969 70.9473 1.51367Q70.9473 0 70.0195-0.976562Q69.0918-1.95312 67.627-1.95312L39.6973-1.95312Q38.2324-1.95312 37.2803-0.976562Q36.3281 0 36.3281 1.51367Q36.3281 2.92969 37.2803 3.93066Q38.2324 4.93164 39.6973 4.93164Z"/>
  </g>
  <g id="Ultralight-M" transform="matrix(1 0 0 1 506.806 1126)">
   <path d="M37.3535-5.56641L68.457-5.56641Q68.8477-5.56641 69.1162-5.85938Q69.3848-6.15234 69.3848-6.73828L69.3848-12.793Q69.3848-16.9434 71.2646-20.459Q73.1445-23.9746 75.9521-27.4658Q78.7598-30.957 81.5674-35.0098Q84.375-39.0625 86.2549-44.2139Q88.1348-49.3652 88.1348-56.2988Q88.1348-64.209 85.6445-70.6787Q83.1543-77.1484 78.4912-81.8115Q73.8281-86.4746 67.334-88.9648Q60.8398-91.4551 52.9297-91.4551Q44.9707-91.4551 38.501-88.9648Q32.0312-86.4746 27.3682-81.8115Q22.7051-77.1484 20.1904-70.6787Q17.6758-64.209 17.6758-56.2988Q17.6758-49.3652 19.5801-44.2139Q21.4844-39.0625 24.292-35.0098Q27.0996-30.957 29.8828-27.4658Q32.666-23.9746 34.5703-20.459Q36.4746-16.9434 36.4746-12.793L36.4746-6.73828Q36.4746-6.15234 36.7188-5.85938Q36.9629-5.56641 37.3535-5.56641ZM52.9785 15.2832Q57.666 15.2832 60.6934 13.3057Q63.7207 11.3281 64.0137 8.05664L41.8945 8.05664Q42.1875 11.3281 45.2148 13.3057Q48.2422 15.2832 52.9785 15.2832ZM39.5508 4.3457L66.4062 4.3457Q67.7734 4.3457 68.5791 3.4668Q69.3848 2.58789 69.3848 1.26953Q69.3848-0.0976562 68.5791-0.976562Q67.7734-1.85547 66.4062-1.85547L39.5508-1.85547Q38.1836-1.85547 37.3535-0.976562Q36.5234-0.0976562 36.5234 1.26953Q36.5234 2.58789 37.3535 3.4668Q38.1836 4.3457 39.5508 4.3457Z"/>
  </g>
  <g id="Black-S" transform="matrix(1 0 0 1 2885.5 696)">
   <path d="M32.4707-8.93555L63.3301-8.93555Q65.3809-8.93555 66.6992-10.2295Q68.0176-11.5234 68.0176-13.5254L68.0176-18.1641Q68.0176-20.9473 69.4336-23.3887Q70.8496-25.8301 72.9736-28.418Q75.0977-31.0059 77.1973-34.1797Q79.2969-37.3535 80.7129-41.4795Q82.1289-45.6055 82.1289-51.2207Q82.1289-61.2305 77.7832-68.8232Q73.4375-76.416 65.7471-80.7129Q58.0566-85.0098 47.9004-85.0098Q37.793-85.0098 30.0781-80.7129Q22.3633-76.416 18.0176-68.8232Q13.6719-61.2305 13.6719-51.2207Q13.6719-45.6055 15.0879-41.4795Q16.5039-37.3535 18.6035-34.1797Q20.7031-31.0059 22.8271-28.418Q24.9512-25.8301 26.3672-23.3887Q27.7832-20.9473 27.7832-18.1641L27.7832-13.5254Q27.7832-11.5234 29.1016-10.2295Q30.4199-8.93555 32.4707-8.93555ZM47.9004 14.5996Q53.2715 14.5996 56.7871 12.3047Q60.3027 10.0098 60.6445 6.29883L35.1562 6.29883Q35.5469 10.0098 39.0137 12.3047Q42.4805 14.5996 47.9004 14.5996ZM32.1289 3.36914L63.6719 3.36914Q65.6738 3.36914 67.041 1.92871Q68.4082 0.488281 68.4082-1.31836Q68.4082-3.17383 67.041-4.58984Q65.6738-6.00586 63.6719-6.00586L32.1289-6.00586Q30.1758-6.00586 28.7842-4.58984Q27.3926-3.17383 27.3926-1.31836Q27.3926 0.488281 28.7842 1.92871Q30.1758 3.36914 32.1289 3.36914Z"/>
  </g>
  <g id="Heavy-S" transform="matrix(1 0 0 1 2589.62 696)">
   <path d="M31.9336-9.81445L62.207-9.81445Q64.0137-9.81445 65.1855-10.9619Q66.3574-12.1094 66.3574-13.8672L66.3574-18.9453Q66.3574-21.6797 67.749-24.1211Q69.1406-26.5625 71.2158-29.1504Q73.291-31.7383 75.3662-34.8877Q77.4414-38.0371 78.833-42.0654Q80.2246-46.0938 80.2246-51.5625Q80.2246-61.2793 76.0254-68.6523Q71.8262-76.0254 64.3799-80.1514Q56.9336-84.2773 47.0703-84.2773Q37.2559-84.2773 29.7607-80.1514Q22.2656-76.0254 18.0664-68.6523Q13.8672-61.2793 13.8672-51.5625Q13.8672-46.0938 15.2832-42.0654Q16.6992-38.0371 18.75-34.8877Q20.8008-31.7383 22.9004-29.1504Q25-26.5625 26.3916-24.1211Q27.7832-21.6797 27.7832-18.9453L27.7832-13.8672Q27.7832-12.1094 28.9307-10.9619Q30.0781-9.81445 31.9336-9.81445ZM47.0703 12.9395Q52.1484 12.9395 55.4443 10.791Q58.7402 8.64258 59.082 5.12695L35.1074 5.12695Q35.4492 8.64258 38.7207 10.791Q41.9922 12.9395 47.0703 12.9395ZM31.9824 2.14844L62.1582 2.14844Q64.0625 2.14844 65.3564 0.78125Q66.6504-0.585938 66.6504-2.34375Q66.6504-4.15039 65.3564-5.49316Q64.0625-6.83594 62.1582-6.83594L31.9824-6.83594Q30.127-6.83594 28.8086-5.49316Q27.4902-4.15039 27.4902-2.34375Q27.4902-0.585938 28.8086 0.78125Q30.127 2.14844 31.9824 2.14844Z"/>
  </g>
  <g id="Bold-S" transform="matrix(1 0 0 1 2293.84 696)">
   <path d="M31.3477-10.791L60.9375-10.791Q62.5488-10.791 63.5254-11.7676Q64.502-12.7441 64.502-14.2578L64.502-19.7754Q64.502-22.5098 65.8691-24.9756Q67.2363-27.4414 69.2871-30.0293Q71.3379-32.6172 73.3643-35.7178Q75.3906-38.8184 76.7578-42.749Q78.125-46.6797 78.125-51.9531Q78.125-61.3281 74.0967-68.4326Q70.0684-75.5371 62.8662-79.5166Q55.6641-83.4961 46.1426-83.4961Q36.6211-83.4961 29.4189-79.5166Q22.2168-75.5371 18.1885-68.4326Q14.1602-61.3281 14.1602-51.9531Q14.1602-46.6797 15.5273-42.749Q16.8945-38.8184 18.9209-35.7178Q20.9473-32.6172 22.998-30.0293Q25.0488-27.4414 26.416-24.9756Q27.7832-22.5098 27.7832-19.7754L27.7832-14.2578Q27.7832-12.7441 28.7598-11.7676Q29.7363-10.791 31.3477-10.791ZM46.1426 11.084Q50.8301 11.084 53.9062 9.08203Q56.9824 7.08008 57.2754 3.85742L35.0098 3.85742Q35.3516 7.08008 38.3789 9.08203Q41.4062 11.084 46.1426 11.084ZM31.8359 0.78125L60.4492 0.78125Q62.207 0.78125 63.4521-0.512695Q64.6973-1.80664 64.6973-3.4668Q64.6973-5.22461 63.4521-6.49414Q62.207-7.76367 60.4492-7.76367L31.8359-7.76367Q30.127-7.76367 28.8574-6.49414Q27.5879-5.22461 27.5879-3.4668Q27.5879-1.80664 28.8574-0.512695Q30.127 0.78125 31.8359 0.78125Z"/>
  </g>
  <g id="Semibold-S" transform="matrix(1 0 0 1 1997.78 696)">
   <path d="M30.9082-11.4258L60.0586-11.4258Q61.4746-11.4258 62.3291-12.2803Q63.1836-13.1348 63.1836-14.502L63.1836-20.3613Q63.1836-23.0957 64.5508-25.5371Q65.918-27.9785 67.9199-30.5664Q69.9219-33.1543 71.9482-36.2305Q73.9746-39.3066 75.3174-43.1885Q76.6602-47.0703 76.6602-52.1973Q76.6602-61.377 72.7539-68.2861Q68.8477-75.1953 61.8164-79.0771Q54.7852-82.959 45.5078-82.959Q36.1816-82.959 29.1504-79.0771Q22.1191-75.1953 18.2129-68.2861Q14.3066-61.377 14.3066-52.1973Q14.3066-47.0703 15.6494-43.1885Q16.9922-39.3066 19.0186-36.2305Q21.0449-33.1543 23.0469-30.5664Q25.0488-27.9785 26.416-25.5371Q27.7832-23.0957 27.7832-20.3613L27.7832-14.502Q27.7832-13.1348 28.6377-12.2803Q29.4922-11.4258 30.9082-11.4258ZM45.459 9.81445Q49.9023 9.81445 52.8076 7.91016Q55.7129 6.00586 56.0059 2.92969L34.9121 2.92969Q35.2051 6.00586 38.1104 7.91016Q41.0156 9.81445 45.459 9.81445ZM31.6895-0.146484L59.2285-0.146484Q60.9375-0.146484 62.1338-1.36719Q63.3301-2.58789 63.3301-4.24805Q63.3301-5.95703 62.1338-7.15332Q60.9375-8.34961 59.2285-8.34961L31.6895-8.34961Q30.0293-8.34961 28.833-7.15332Q27.6367-5.95703 27.6367-4.24805Q27.6367-2.58789 28.833-1.36719Q30.0293-0.146484 31.6895-0.146484Z"/>
  </g>
  <g id="Medium-S" transform="matrix(1 0 0 1 1701.56 696)">
   <path d="M30.5664-11.9629L59.4238-11.9629Q60.6934-11.9629 61.4502-12.7197Q62.207-13.4766 62.207-14.7461L62.207-20.8008Q62.207-23.4863 63.5742-25.9521Q64.9414-28.418 66.9189-31.0059Q68.8965-33.5938 70.8984-36.6455Q72.9004-39.6973 74.2432-43.5303Q75.5859-47.3633 75.5859-52.3926Q75.5859-61.377 71.7529-68.1641Q67.9199-74.9512 61.0352-78.7354Q54.1504-82.5195 45.0195-82.5195Q35.8887-82.5195 28.9795-78.7354Q22.0703-74.9512 18.2617-68.1641Q14.4531-61.377 14.4531-52.3926Q14.4531-47.3633 15.7715-43.5303Q17.0898-39.6973 19.0918-36.6455Q21.0938-33.5938 23.0713-31.0059Q25.0488-28.418 26.416-25.9521Q27.7832-23.4863 27.7832-20.8008L27.7832-14.7461Q27.7832-13.4766 28.54-12.7197Q29.2969-11.9629 30.5664-11.9629ZM45.0195 8.83789Q49.2676 8.83789 52.0508 7.03125Q54.834 5.22461 55.127 2.24609L34.9609 2.24609Q35.2051 5.22461 37.9639 7.03125Q40.7227 8.83789 45.0195 8.83789ZM31.6895-0.878906L58.3496-0.878906Q60.0098-0.878906 61.1816-2.05078Q62.3535-3.22266 62.3535-4.83398Q62.3535-6.49414 61.1816-7.66602Q60.0098-8.83789 58.3496-8.83789L31.6895-8.83789Q30.0781-8.83789 28.9062-7.66602Q27.7344-6.49414 27.7344-4.83398Q27.7344-3.22266 28.9062-2.05078Q30.0781-0.878906 31.6895-0.878906Z"/>
  </g>
  <g id="Regular-S" transform="matrix(1 0 0 1 1405.48 696)">
   <path d="M30.1758-12.5977L58.5449-12.5977Q59.668-12.5977 60.3027-13.2568Q60.9375-13.916 60.9375-14.9902L60.9375-21.3867Q60.9375-24.0723 62.2803-26.5381Q63.623-29.0039 65.5762-31.5918Q67.5293-34.1797 69.5068-37.207Q71.4844-40.2344 72.8027-43.9941Q74.1211-47.7539 74.1211-52.6367Q74.1211-61.4258 70.4102-68.042Q66.6992-74.6582 59.9854-78.3203Q53.2715-81.9824 44.3848-81.9824Q35.4492-81.9824 28.7354-78.3203Q22.0215-74.6582 18.3105-68.042Q14.5996-61.4258 14.5996-52.6367Q14.5996-47.7539 15.918-43.9941Q17.2363-40.2344 19.2139-37.207Q21.1914-34.1797 23.1445-31.5918Q25.0977-29.0039 26.4404-26.5381Q27.7832-24.0723 27.7832-21.3867L27.7832-14.9902Q27.7832-13.916 28.418-13.2568Q29.0527-12.5977 30.1758-12.5977ZM44.3848 7.56836Q48.3887 7.56836 51.001 5.85938Q53.6133 4.15039 53.9062 1.36719L34.8633 1.36719Q35.1074 4.15039 37.7197 5.85938Q40.332 7.56836 44.3848 7.56836ZM31.543-1.80664L57.1777-1.80664Q58.7402-1.80664 59.8633-2.92969Q60.9863-4.05273 60.9863-5.61523Q60.9863-7.22656 59.8633-8.34961Q58.7402-9.47266 57.1777-9.47266L31.543-9.47266Q30.0293-9.47266 28.9062-8.34961Q27.7832-7.22656 27.7832-5.61523Q27.7832-4.05273 28.9062-2.92969Q30.0293-1.80664 31.543-1.80664Z"/>
  </g>
  <g id="Light-S" transform="matrix(1 0 0 1 1109.68 696)">
   <path d="M29.8828-12.4023L57.0312-12.4023Q57.9102-12.4023 58.3984-12.9395Q58.8867-13.4766 58.8867-14.3555L58.8867-20.2148Q58.8867-23.0957 60.2783-25.6592Q61.6699-28.2227 63.6963-30.835Q65.7227-33.4473 67.7734-36.5234Q69.8242-39.5996 71.1914-43.457Q72.5586-47.3145 72.5586-52.3438Q72.5586-60.9863 68.9209-67.4805Q65.2832-73.9746 58.7402-77.5635Q52.1973-81.1523 43.457-81.1523Q34.7168-81.1523 28.1738-77.5635Q21.6309-73.9746 17.9932-67.4805Q14.3555-60.9863 14.3555-52.3438Q14.3555-47.3145 15.7471-43.457Q17.1387-39.5996 19.165-36.5234Q21.1914-33.4473 23.2178-30.835Q25.2441-28.2227 26.6357-25.6592Q28.0273-23.0957 28.0273-20.2148L28.0273-14.3555Q28.0273-13.4766 28.54-12.9395Q29.0527-12.4023 29.8828-12.4023ZM43.457 6.5918Q47.3633 6.5918 49.9023 4.90723Q52.4414 3.22266 52.7344 0.537109L34.2285 0.537109Q34.4238 3.22266 36.9873 4.90723Q39.5508 6.5918 43.457 6.5918ZM31.3477-2.53906L55.5664-2.53906Q56.9336-2.53906 57.9346-3.54004Q58.9355-4.54102 58.9355-5.95703Q58.9355-7.37305 57.9346-8.37402Q56.9336-9.375 55.5664-9.375L31.3477-9.375Q29.9805-9.375 29.0039-8.37402Q28.0273-7.37305 28.0273-5.95703Q28.0273-4.54102 29.0039-3.54004Q29.9805-2.53906 31.3477-2.53906Z"/>
  </g>
  <g id="Thin-S" transform="matrix(1 0 0 1 814.161 696)">
   <path d="M29.541-12.1582L54.9805-12.1582Q55.5664-12.1582 55.8594-12.5Q56.1523-12.8418 56.1523-13.4766L56.1523-18.7012Q56.1523-21.7773 57.5928-24.4629Q59.0332-27.1484 61.1816-29.834Q63.3301-32.5195 65.4541-35.6445Q67.5781-38.7695 69.0186-42.749Q70.459-46.7285 70.459-52.002Q70.459-60.4004 66.9434-66.7236Q63.4277-73.0469 57.0801-76.5381Q50.7324-80.0293 42.2852-80.0293Q33.7891-80.0293 27.4414-76.5381Q21.0938-73.0469 17.5781-66.7236Q14.0625-60.4004 14.0625-52.002Q14.0625-46.7285 15.5029-42.749Q16.9434-38.7695 19.0918-35.6445Q21.2402-32.5195 23.3643-29.834Q25.4883-27.1484 26.9287-24.4629Q28.3691-21.7773 28.3691-18.7012L28.3691-13.4766Q28.3691-12.8418 28.6865-12.5Q29.0039-12.1582 29.541-12.1582ZM42.2852 5.22461Q46.0449 5.22461 48.4863 3.6377Q50.9277 2.05078 51.1719-0.585938L33.3984-0.585938Q33.5938 2.05078 36.0352 3.6377Q38.4766 5.22461 42.2852 5.22461ZM31.1035-3.56445L53.418-3.56445Q54.6387-3.56445 55.4199-4.37012Q56.2012-5.17578 56.2012-6.34766Q56.2012-7.56836 55.4199-8.37402Q54.6387-9.17969 53.418-9.17969L31.1035-9.17969Q29.9316-9.17969 29.1504-8.37402Q28.3691-7.56836 28.3691-6.34766Q28.3691-5.17578 29.1504-4.37012Q29.9316-3.56445 31.1035-3.56445Z"/>
  </g>
  <g id="Ultralight-S" transform="matrix(1 0 0 1 518.061 696)">
   <path d="M29.3457-12.0605L53.9551-12.0605Q54.3457-12.0605 54.5654-12.3047Q54.7852-12.5488 54.7852-13.0371L54.7852-17.8711Q54.7852-21.1426 56.25-23.877Q57.7148-26.6113 59.8877-29.3213Q62.0605-32.0312 64.2578-35.2051Q66.4551-38.3789 67.9199-42.4072Q69.3848-46.4355 69.3848-51.8066Q69.3848-60.1074 65.9424-66.333Q62.5-72.5586 56.25-76.0254Q50-79.4922 41.6504-79.4922Q33.3008-79.4922 27.0752-76.0254Q20.8496-72.5586 17.3828-66.333Q13.916-60.1074 13.916-51.8066Q13.916-46.4355 15.4053-42.4072Q16.8945-38.3789 19.0674-35.2051Q21.2402-32.0312 23.4131-29.3213Q25.5859-26.6113 27.0752-23.877Q28.5645-21.1426 28.5645-17.8711L28.5645-13.0371Q28.5645-12.5488 28.7842-12.3047Q29.0039-12.0605 29.3457-12.0605ZM41.6016 4.58984Q45.3125 4.58984 47.7295 3.00293Q50.1465 1.41602 50.3906-1.12305L32.9102-1.12305Q33.1055 1.41602 35.5225 3.00293Q37.9395 4.58984 41.6016 4.58984ZM30.957-4.05273L52.2949-4.05273Q53.3691-4.05273 54.0771-4.78516Q54.7852-5.51758 54.7852-6.5918Q54.7852-7.66602 54.0771-8.39844Q53.3691-9.13086 52.2949-9.13086L30.957-9.13086Q29.8828-9.13086 29.1992-8.39844Q28.5156-7.66602 28.5156-6.5918Q28.5156-5.51758 29.1992-4.78516Q29.8828-4.05273 30.957-4.05273Z"/>
  </g>
 </g>
</svg>
