<?xml version="1.0" encoding="UTF-8"?>
<!--Generator: Apple Native CoreSVG 175-->
<!DOCTYPE svg
PUBLIC "-//W3C//DTD SVG 1.1//EN"
       "http://www.w3.org/Graphics/SVG/1.1/DTD/svg11.dtd">
<svg version="1.1" xmlns="http://www.w3.org/2000/svg" xmlns:xlink="http://www.w3.org/1999/xlink" width="3300" height="2200">
 <!--glyph: "uni100AEF.medium", point size: 100.0, font version: "17.0d11e1", template writer version: "65.1"-->
 <style>.hierarchical-0:tertiary {fill:#8E8E8E}
.hierarchical-1:primary {fill:#212121}

.SFSymbolsPreview212121 {fill:#212121;opacity:1.0}
.SFSymbolsPreview8E8E8E {fill:#8E8E8E;opacity:1.0}
</style>
 <g id="Notes">
  <rect height="2200" id="artboard" style="fill:white;opacity:1" width="3300" x="0" y="0"/>
  <line style="fill:none;stroke:black;opacity:1;stroke-width:0.5;" x1="263" x2="3036" y1="292" y2="292"/>
  <text style="stroke:none;fill:black;font-family:sans-serif;font-size:13;font-weight:bold;" transform="matrix(1 0 0 1 263 322)">Weight/Scale Variations</text>
  <text style="stroke:none;fill:black;font-family:sans-serif;font-size:13;text-anchor:middle;" transform="matrix(1 0 0 1 559.711 322)">Ultralight</text>
  <text style="stroke:none;fill:black;font-family:sans-serif;font-size:13;text-anchor:middle;" transform="matrix(1 0 0 1 856.422 322)">Thin</text>
  <text style="stroke:none;fill:black;font-family:sans-serif;font-size:13;text-anchor:middle;" transform="matrix(1 0 0 1 1153.13 322)">Light</text>
  <text style="stroke:none;fill:black;font-family:sans-serif;font-size:13;text-anchor:middle;" transform="matrix(1 0 0 1 1449.84 322)">Regular</text>
  <text style="stroke:none;fill:black;font-family:sans-serif;font-size:13;text-anchor:middle;" transform="matrix(1 0 0 1 1746.56 322)">Medium</text>
  <text style="stroke:none;fill:black;font-family:sans-serif;font-size:13;text-anchor:middle;" transform="matrix(1 0 0 1 2043.27 322)">Semibold</text>
  <text style="stroke:none;fill:black;font-family:sans-serif;font-size:13;text-anchor:middle;" transform="matrix(1 0 0 1 2339.98 322)">Bold</text>
  <text style="stroke:none;fill:black;font-family:sans-serif;font-size:13;text-anchor:middle;" transform="matrix(1 0 0 1 2636.69 322)">Heavy</text>
  <text style="stroke:none;fill:black;font-family:sans-serif;font-size:13;text-anchor:middle;" transform="matrix(1 0 0 1 2933.4 322)">Black</text>
  <line style="fill:none;stroke:black;opacity:1;stroke-width:0.5;" x1="263" x2="3036" y1="1903" y2="1903"/>
  <g transform="matrix(1 0 0 1 263 1933)">
   <path d="M9.24805 0.830078Q10.8691 0.830078 12.2949 0.214844Q13.7207-0.400391 14.8096-1.49414Q15.8984-2.58789 16.5186-4.01367Q17.1387-5.43945 17.1387-7.05078Q17.1387-8.66211 16.5186-10.0879Q15.8984-11.5137 14.8047-12.6074Q13.7109-13.7012 12.2852-14.3164Q10.8594-14.9316 9.23828-14.9316Q7.62695-14.9316 6.20117-14.3164Q4.77539-13.7012 3.69141-12.6074Q2.60742-11.5137 1.9873-10.0879Q1.36719-8.66211 1.36719-7.05078Q1.36719-5.43945 1.9873-4.01367Q2.60742-2.58789 3.69629-1.49414Q4.78516-0.400391 6.21094 0.214844Q7.63672 0.830078 9.24805 0.830078ZM9.24805-0.654297Q7.91992-0.654297 6.7627-1.14746Q5.60547-1.64062 4.73145-2.51953Q3.85742-3.39844 3.36426-4.56055Q2.87109-5.72266 2.87109-7.05078Q2.87109-8.37891 3.35938-9.54102Q3.84766-10.7031 4.72168-11.582Q5.5957-12.4609 6.75293-12.9541Q7.91016-13.4473 9.23828-13.4473Q10.5762-13.4473 11.7334-12.9541Q12.8906-12.4609 13.7695-11.582Q14.6484-10.7031 15.1465-9.54102Q15.6445-8.37891 15.6445-7.05078Q15.6445-5.72266 15.1514-4.56055Q14.6582-3.39844 13.7842-2.51953Q12.9102-1.64062 11.748-1.14746Q10.5859-0.654297 9.24805-0.654297ZM5.6543-7.05078Q5.6543-6.72852 5.85938-6.52832Q6.06445-6.32812 6.40625-6.32812L8.51562-6.32812L8.51562-4.20898Q8.51562-3.88672 8.71094-3.67676Q8.90625-3.4668 9.23828-3.4668Q9.56055-3.4668 9.77051-3.67676Q9.98047-3.88672 9.98047-4.20898L9.98047-6.32812L12.0898-6.32812Q12.4219-6.32812 12.627-6.52832Q12.832-6.72852 12.832-7.05078Q12.832-7.38281 12.627-7.58789Q12.4219-7.79297 12.0898-7.79297L9.98047-7.79297L9.98047-9.90234Q9.98047-10.2344 9.77051-10.4443Q9.56055-10.6543 9.23828-10.6543Q8.90625-10.6543 8.71094-10.4443Q8.51562-10.2344 8.51562-9.90234L8.51562-7.79297L6.40625-7.79297Q6.06445-7.79297 5.85938-7.58789Q5.6543-7.38281 5.6543-7.05078Z"/>
  </g>
  <g transform="matrix(1 0 0 1 281.867 1933)">
   <path d="M11.709 2.91016Q13.75 2.91016 15.5518 2.12891Q17.3535 1.34766 18.7305-0.0292969Q20.1074-1.40625 20.8887-3.20801Q21.6699-5.00977 21.6699-7.05078Q21.6699-9.0918 20.8887-10.8936Q20.1074-12.6953 18.7305-14.0723Q17.3535-15.4492 15.5469-16.2305Q13.7402-17.0117 11.6992-17.0117Q9.6582-17.0117 7.85645-16.2305Q6.05469-15.4492 4.68262-14.0723Q3.31055-12.6953 2.5293-10.8936Q1.74805-9.0918 1.74805-7.05078Q1.74805-5.00977 2.5293-3.20801Q3.31055-1.40625 4.6875-0.0292969Q6.06445 1.34766 7.86621 2.12891Q9.66797 2.91016 11.709 2.91016ZM11.709 1.25Q9.98047 1.25 8.47656 0.605469Q6.97266-0.0390625 5.83496-1.17676Q4.69727-2.31445 4.05762-3.81836Q3.41797-5.32227 3.41797-7.05078Q3.41797-8.7793 4.05762-10.2832Q4.69727-11.7871 5.83008-12.9297Q6.96289-14.0723 8.4668-14.7119Q9.9707-15.3516 11.6992-15.3516Q13.4277-15.3516 14.9316-14.7119Q16.4355-14.0723 17.5781-12.9297Q18.7207-11.7871 19.3652-10.2832Q20.0098-8.7793 20.0098-7.05078Q20.0098-5.32227 19.3701-3.81836Q18.7305-2.31445 17.5928-1.17676Q16.4551-0.0390625 14.9463 0.605469Q13.4375 1.25 11.709 1.25ZM7.17773-7.05078Q7.17773-6.69922 7.41211-6.47461Q7.64648-6.25 8.01758-6.25L10.8887-6.25L10.8887-3.36914Q10.8887-2.99805 11.1133-2.76855Q11.3379-2.53906 11.6895-2.53906Q12.0605-2.53906 12.29-2.76855Q12.5195-2.99805 12.5195-3.36914L12.5195-6.25L15.4004-6.25Q15.7715-6.25 16.001-6.47461Q16.2305-6.69922 16.2305-7.05078Q16.2305-7.42188 16.001-7.65137Q15.7715-7.88086 15.4004-7.88086L12.5195-7.88086L12.5195-10.752Q12.5195-11.1328 12.29-11.3623Q12.0605-11.5918 11.6895-11.5918Q11.3379-11.5918 11.1133-11.3574Q10.8887-11.123 10.8887-10.752L10.8887-7.88086L8.01758-7.88086Q7.63672-7.88086 7.40723-7.65137Q7.17773-7.42188 7.17773-7.05078Z"/>
  </g>
  <g transform="matrix(1 0 0 1 305.646 1933)">
   <path d="M14.9707 5.66406Q17.0605 5.66406 18.96 5.01465Q20.8594 4.36523 22.4512 3.19336Q24.043 2.02148 25.2197 0.429688Q26.3965-1.16211 27.0459-3.06641Q27.6953-4.9707 27.6953-7.05078Q27.6953-9.14062 27.0459-11.04Q26.3965-12.9395 25.2197-14.5312Q24.043-16.123 22.4512-17.2998Q20.8594-18.4766 18.9551-19.126Q17.0508-19.7754 14.9609-19.7754Q12.8711-19.7754 10.9717-19.126Q9.07227-18.4766 7.48535-17.2998Q5.89844-16.123 4.72168-14.5312Q3.54492-12.9395 2.90039-11.04Q2.25586-9.14062 2.25586-7.05078Q2.25586-4.9707 2.90527-3.06641Q3.55469-1.16211 4.72656 0.429688Q5.89844 2.02148 7.49023 3.19336Q9.08203 4.36523 10.9814 5.01465Q12.8809 5.66406 14.9707 5.66406ZM14.9707 3.84766Q13.1641 3.84766 11.5283 3.2959Q9.89258 2.74414 8.53516 1.74805Q7.17773 0.751953 6.17676-0.610352Q5.17578-1.97266 4.62891-3.6084Q4.08203-5.24414 4.08203-7.05078Q4.08203-8.86719 4.62891-10.5029Q5.17578-12.1387 6.17188-13.501Q7.16797-14.8633 8.52539-15.8594Q9.88281-16.8555 11.5186-17.4023Q13.1543-17.9492 14.9609-17.9492Q16.7773-17.9492 18.4131-17.4023Q20.0488-16.8555 21.4111-15.8594Q22.7734-14.8633 23.7695-13.501Q24.7656-12.1387 25.3174-10.5029Q25.8691-8.86719 25.8691-7.05078Q25.8789-5.24414 25.332-3.6084Q24.7852-1.97266 23.7842-0.610352Q22.7832 0.751953 21.4209 1.74805Q20.0586 2.74414 18.4229 3.2959Q16.7871 3.84766 14.9707 3.84766ZM9.19922-7.05078Q9.19922-6.66992 9.45801-6.4209Q9.7168-6.17188 10.1172-6.17188L14.0625-6.17188L14.0625-2.2168Q14.0625-1.81641 14.3115-1.55762Q14.5605-1.29883 14.9512-1.29883Q15.3516-1.29883 15.6104-1.55273Q15.8691-1.80664 15.8691-2.2168L15.8691-6.17188L19.8242-6.17188Q20.2246-6.17188 20.4785-6.4209Q20.7324-6.66992 20.7324-7.05078Q20.7324-7.46094 20.4785-7.71484Q20.2246-7.96875 19.8242-7.96875L15.8691-7.96875L15.8691-11.9141Q15.8691-12.3242 15.6104-12.583Q15.3516-12.8418 14.9512-12.8418Q14.5605-12.8418 14.3115-12.583Q14.0625-12.3242 14.0625-11.9141L14.0625-7.96875L10.1172-7.96875Q9.70703-7.96875 9.45312-7.71484Q9.19922-7.46094 9.19922-7.05078Z"/>
  </g>
  <text style="stroke:none;fill:black;font-family:sans-serif;font-size:13;font-weight:bold;" transform="matrix(1 0 0 1 263 1953)">Design Variations</text>
  <text style="stroke:none;fill:black;font-family:sans-serif;font-size:13;" transform="matrix(1 0 0 1 263 1971)">Symbols are supported in up to nine weights and three scales.</text>
  <text style="stroke:none;fill:black;font-family:sans-serif;font-size:13;" transform="matrix(1 0 0 1 263 1989)">For optimal layout with text and other symbols, vertically align</text>
  <text style="stroke:none;fill:black;font-family:sans-serif;font-size:13;" transform="matrix(1 0 0 1 263 2007)">symbols with the adjacent text.</text>
  <line style="fill:none;stroke:#00AEEF;stroke-width:0.5;opacity:1.0;" x1="776" x2="776" y1="1919" y2="1933"/>
  <g transform="matrix(1 0 0 1 776 1933)">
   <path d="M3.31055 0.15625Q3.70117 0.15625 3.91602-0.00976562Q4.13086-0.175781 4.26758-0.585938L5.52734-4.0332L11.2891-4.0332L12.5488-0.585938Q12.6855-0.175781 12.9004-0.00976562Q13.1152 0.15625 13.4961 0.15625Q13.8867 0.15625 14.1162-0.0585938Q14.3457-0.273438 14.3457-0.644531Q14.3457-0.869141 14.2383-1.17188L9.6582-13.3691Q9.48242-13.8184 9.17969-14.043Q8.87695-14.2676 8.4082-14.2676Q7.5-14.2676 7.17773-13.3789L2.59766-1.16211Q2.49023-0.859375 2.49023-0.634766Q2.49023-0.263672 2.70996-0.0537109Q2.92969 0.15625 3.31055 0.15625ZM6.00586-5.51758L8.37891-12.0898L8.42773-12.0898L10.8008-5.51758Z"/>
  </g>
  <line style="fill:none;stroke:#00AEEF;stroke-width:0.5;opacity:1.0;" x1="793.197" x2="793.197" y1="1919" y2="1933"/>
  <text style="stroke:none;fill:black;font-family:sans-serif;font-size:13;font-weight:bold;" transform="matrix(1 0 0 1 776 1953)">Margins</text>
  <text style="stroke:none;fill:black;font-family:sans-serif;font-size:13;" transform="matrix(1 0 0 1 776 1971)">Leading and trailing margins on the left and right side of each symbol</text>
  <text style="stroke:none;fill:black;font-family:sans-serif;font-size:13;" transform="matrix(1 0 0 1 776 1989)">can be adjusted by modifying the x-location of the margin guidelines.</text>
  <text style="stroke:none;fill:black;font-family:sans-serif;font-size:13;" transform="matrix(1 0 0 1 776 2007)">Modifications are automatically applied proportionally to all</text>
  <text style="stroke:none;fill:black;font-family:sans-serif;font-size:13;" transform="matrix(1 0 0 1 776 2025)">scales and weights.</text>
  <g transform="matrix(1 0 0 1 1289 1933)">
   <path d="M2.8418 1.86523L4.54102 3.57422Q5.18555 4.22852 5.90332 4.17969Q6.62109 4.13086 7.31445 3.35938L18.0078-8.42773L17.041-9.4043L6.42578 2.27539Q6.16211 2.57812 5.89355 2.61719Q5.625 2.65625 5.27344 2.30469L4.10156 1.14258Q3.75 0.791016 3.79395 0.522461Q3.83789 0.253906 4.14062-0.0195312L15.6152-10.8203L14.6387-11.7871L3.04688-0.898438Q2.30469-0.214844 2.25098 0.498047Q2.19727 1.21094 2.8418 1.86523ZM9.25781-16.3281Q8.94531-16.0254 8.90625-15.6348Q8.86719-15.2441 9.04297-14.9512Q9.21875-14.6777 9.55566-14.541Q9.89258-14.4043 10.3809-14.5215Q11.4746-14.7754 12.5977-14.7314Q13.7207-14.6875 14.7949-13.9844L14.209-12.5293Q13.9551-11.9043 14.0674-11.4404Q14.1797-10.9766 14.5801-10.5664L16.875-8.25195Q17.2363-7.88086 17.5781-7.82227Q17.9199-7.76367 18.3398-7.8418L19.4043-8.03711L20.0684-7.36328L20.0293-6.80664Q20-6.43555 20.1221-6.12305Q20.2441-5.81055 20.6055-5.44922L21.3672-4.70703Q21.7285-4.3457 22.1533-4.33105Q22.5781-4.31641 22.9297-4.66797L25.8398-7.58789Q26.1914-7.93945 26.1816-8.35449Q26.1719-8.76953 25.8105-9.13086L25.0391-9.89258Q24.6875-10.2539 24.3799-10.3857Q24.0723-10.5176 23.7109-10.4883L23.1348-10.4395L22.4902-11.0742L22.7344-12.1973Q22.832-12.6172 22.6953-12.9834Q22.5586-13.3496 22.1191-13.7891L19.9219-15.9766Q18.6719-17.2168 17.2607-17.8369Q15.8496-18.457 14.4189-18.4814Q12.9883-18.5059 11.665-17.959Q10.3418-17.4121 9.25781-16.3281ZM10.752-15.957Q11.6602-16.6211 12.7002-16.9043Q13.7402-17.1875 14.8047-17.085Q15.8691-16.9824 16.8701-16.5137Q17.8711-16.0449 18.7012-15.2051L21.1328-12.793Q21.3086-12.6172 21.3525-12.4512Q21.3965-12.2852 21.3379-12.0312L21.0156-10.5469L22.5195-9.0625L23.5059-9.12109Q23.6914-9.13086 23.7891-9.09668Q23.8867-9.0625 24.0332-8.91602L24.6094-8.33984L22.168-5.89844L21.5918-6.47461Q21.4453-6.62109 21.4062-6.71875Q21.3672-6.81641 21.377-7.01172L21.4453-7.98828L19.9512-9.47266L18.4277-9.21875Q18.1836-9.16992 18.042-9.2041Q17.9004-9.23828 17.7148-9.41406L15.7129-11.416Q15.5176-11.5918 15.4932-11.7529Q15.4688-11.9141 15.5859-12.1875L16.4648-14.2773Q15.293-15.3711 13.8281-15.791Q12.3633-16.2109 10.8398-15.7617Q10.7227-15.7324 10.6885-15.8057Q10.6543-15.8789 10.752-15.957Z"/>
  </g>
  <text style="stroke:none;fill:black;font-family:sans-serif;font-size:13;font-weight:bold;" transform="matrix(1 0 0 1 1289 1953)">Exporting</text>
  <text style="stroke:none;fill:black;font-family:sans-serif;font-size:13;" transform="matrix(1 0 0 1 1289 1971)">Symbols should be outlined when exporting to ensure the</text>
  <text style="stroke:none;fill:black;font-family:sans-serif;font-size:13;" transform="matrix(1 0 0 1 1289 1989)">design is preserved when submitting to Xcode.</text>
  <text id="template-version" style="stroke:none;fill:black;font-family:sans-serif;font-size:13;text-anchor:end;" transform="matrix(1 0 0 1 3036 1933)">Template v.3.0</text>
  <text style="stroke:none;fill:black;font-family:sans-serif;font-size:13;text-anchor:end;" transform="matrix(1 0 0 1 3036 1951)">Requires Xcode 13 or greater</text>
  <text id="descriptive-name" style="stroke:none;fill:black;font-family:sans-serif;font-size:13;text-anchor:end;" transform="matrix(1 0 0 1 3036 1969)">Generated from bolt.batteryblock.fill</text>
  <text style="stroke:none;fill:black;font-family:sans-serif;font-size:13;text-anchor:end;" transform="matrix(1 0 0 1 3036 1987)">Typeset at 100 points</text>
  <text style="stroke:none;fill:black;font-family:sans-serif;font-size:13;" transform="matrix(1 0 0 1 263 726)">Small</text>
  <text style="stroke:none;fill:black;font-family:sans-serif;font-size:13;" transform="matrix(1 0 0 1 263 1156)">Medium</text>
  <text style="stroke:none;fill:black;font-family:sans-serif;font-size:13;" transform="matrix(1 0 0 1 263 1586)">Large</text>
 </g>
 <g id="Guides">
  <g id="H-reference" style="fill:#27AAE1;stroke:none;" transform="matrix(1 0 0 1 339 696)">
   <path d="M0.976562 0L3.66211 0L29.3457-67.1387L30.0293-67.1387L30.0293-70.459L28.125-70.459ZM11.6699-24.4629L46.9727-24.4629L46.2402-26.709L12.4512-26.709ZM55.127 0L57.7637 0L30.6152-70.459L29.4434-70.459L29.4434-67.1387Z"/>
  </g>
  <line id="Baseline-S" style="fill:none;stroke:#27AAE1;opacity:1;stroke-width:0.5;" x1="263" x2="3036" y1="696" y2="696"/>
  <line id="Capline-S" style="fill:none;stroke:#27AAE1;opacity:1;stroke-width:0.5;" x1="263" x2="3036" y1="625.541" y2="625.541"/>
  <g id="H-reference" style="fill:#27AAE1;stroke:none;" transform="matrix(1 0 0 1 339 1126)">
   <path d="M0.976562 0L3.66211 0L29.3457-67.1387L30.0293-67.1387L30.0293-70.459L28.125-70.459ZM11.6699-24.4629L46.9727-24.4629L46.2402-26.709L12.4512-26.709ZM55.127 0L57.7637 0L30.6152-70.459L29.4434-70.459L29.4434-67.1387Z"/>
  </g>
  <line id="Baseline-M" style="fill:none;stroke:#27AAE1;opacity:1;stroke-width:0.5;" x1="263" x2="3036" y1="1126" y2="1126"/>
  <line id="Capline-M" style="fill:none;stroke:#27AAE1;opacity:1;stroke-width:0.5;" x1="263" x2="3036" y1="1055.54" y2="1055.54"/>
  <g id="H-reference" style="fill:#27AAE1;stroke:none;" transform="matrix(1 0 0 1 339 1556)">
   <path d="M0.976562 0L3.66211 0L29.3457-67.1387L30.0293-67.1387L30.0293-70.459L28.125-70.459ZM11.6699-24.4629L46.9727-24.4629L46.2402-26.709L12.4512-26.709ZM55.127 0L57.7637 0L30.6152-70.459L29.4434-70.459L29.4434-67.1387Z"/>
  </g>
  <line id="Baseline-L" style="fill:none;stroke:#27AAE1;opacity:1;stroke-width:0.5;" x1="263" x2="3036" y1="1556" y2="1556"/>
  <line id="Capline-L" style="fill:none;stroke:#27AAE1;opacity:1;stroke-width:0.5;" x1="263" x2="3036" y1="1485.54" y2="1485.54"/>
  <line id="left-margin-Ultralight-S" style="fill:none;stroke:#00AEEF;stroke-width:0.5;opacity:1.0;" x1="505.707" x2="505.707" y1="600.785" y2="720.121"/>
  <line id="right-margin-Ultralight-S" style="fill:none;stroke:#00AEEF;stroke-width:0.5;opacity:1.0;" x1="613.715" x2="613.715" y1="600.785" y2="720.121"/>
  <line id="left-margin-Thin-S" style="fill:none;stroke:#00AEEF;stroke-width:0.5;opacity:1.0;" x1="802.174" x2="802.174" y1="600.785" y2="720.121"/>
  <line id="right-margin-Thin-S" style="fill:none;stroke:#00AEEF;stroke-width:0.5;opacity:1.0;" x1="910.67" x2="910.67" y1="600.785" y2="720.121"/>
  <line id="left-margin-Light-S" style="fill:none;stroke:#00AEEF;stroke-width:0.5;opacity:1.0;" x1="1098.42" x2="1098.42" y1="600.785" y2="720.121"/>
  <line id="right-margin-Light-S" style="fill:none;stroke:#00AEEF;stroke-width:0.5;opacity:1.0;" x1="1207.85" x2="1207.85" y1="600.785" y2="720.121"/>
  <line id="left-margin-Regular-S" style="fill:none;stroke:#00AEEF;stroke-width:0.5;opacity:1.0;" x1="1394.79" x2="1394.79" y1="600.785" y2="720.121"/>
  <line id="right-margin-Regular-S" style="fill:none;stroke:#00AEEF;stroke-width:0.5;opacity:1.0;" x1="1504.9" x2="1504.9" y1="600.785" y2="720.121"/>
  <line id="left-margin-Medium-S" style="fill:none;stroke:#00AEEF;stroke-width:0.5;opacity:1.0;" x1="1691.33" x2="1691.33" y1="600.785" y2="720.121"/>
  <line id="right-margin-Medium-S" style="fill:none;stroke:#00AEEF;stroke-width:0.5;opacity:1.0;" x1="1801.78" x2="1801.78" y1="600.785" y2="720.121"/>
  <line id="left-margin-Semibold-S" style="fill:none;stroke:#00AEEF;stroke-width:0.5;opacity:1.0;" x1="1987.9" x2="1987.9" y1="600.785" y2="720.121"/>
  <line id="right-margin-Semibold-S" style="fill:none;stroke:#00AEEF;stroke-width:0.5;opacity:1.0;" x1="2098.64" x2="2098.64" y1="600.785" y2="720.121"/>
  <line id="left-margin-Bold-S" style="fill:none;stroke:#00AEEF;stroke-width:0.5;opacity:1.0;" x1="2284.41" x2="2284.41" y1="600.785" y2="720.121"/>
  <line id="right-margin-Bold-S" style="fill:none;stroke:#00AEEF;stroke-width:0.5;opacity:1.0;" x1="2395.54" x2="2395.54" y1="600.785" y2="720.121"/>
  <line id="left-margin-Heavy-S" style="fill:none;stroke:#00AEEF;stroke-width:0.5;opacity:1.0;" x1="2580.88" x2="2580.88" y1="600.785" y2="720.121"/>
  <line id="right-margin-Heavy-S" style="fill:none;stroke:#00AEEF;stroke-width:0.5;opacity:1.0;" x1="2692.5" x2="2692.5" y1="600.785" y2="720.121"/>
  <line id="left-margin-Black-S" style="fill:none;stroke:#00AEEF;stroke-width:0.5;opacity:1.0;" x1="2877.35" x2="2877.35" y1="600.785" y2="720.121"/>
  <line id="right-margin-Black-S" style="fill:none;stroke:#00AEEF;stroke-width:0.5;opacity:1.0;" x1="2989.45" x2="2989.45" y1="600.785" y2="720.121"/>
  <line id="left-margin-Ultralight-M" style="fill:none;stroke:#00AEEF;stroke-width:0.5;opacity:1.0;" x1="490.863" x2="490.863" y1="1030.79" y2="1150.12"/>
  <line id="right-margin-Ultralight-M" style="fill:none;stroke:#00AEEF;stroke-width:0.5;opacity:1.0;" x1="628.559" x2="628.559" y1="1030.79" y2="1150.12"/>
  <line id="left-margin-Thin-M" style="fill:none;stroke:#00AEEF;stroke-width:0.5;opacity:1.0;" x1="787.306" x2="787.306" y1="1030.79" y2="1150.12"/>
  <line id="right-margin-Thin-M" style="fill:none;stroke:#00AEEF;stroke-width:0.5;opacity:1.0;" x1="925.538" x2="925.538" y1="1030.79" y2="1150.12"/>
  <line id="left-margin-Light-M" style="fill:none;stroke:#00AEEF;stroke-width:0.5;opacity:1.0;" x1="1083.5" x2="1083.5" y1="1030.79" y2="1150.12"/>
  <line id="right-margin-Light-M" style="fill:none;stroke:#00AEEF;stroke-width:0.5;opacity:1.0;" x1="1222.76" x2="1222.76" y1="1030.79" y2="1150.12"/>
  <line id="left-margin-Regular-M" style="fill:none;stroke:#00AEEF;stroke-width:0.5;opacity:1.0;" x1="1379.82" x2="1379.82" y1="1030.79" y2="1150.12"/>
  <line id="right-margin-Regular-M" style="fill:none;stroke:#00AEEF;stroke-width:0.5;opacity:1.0;" x1="1519.86" x2="1519.86" y1="1030.79" y2="1150.12"/>
  <line id="left-margin-Medium-M" style="fill:none;stroke:#00AEEF;stroke-width:0.5;opacity:1.0;" x1="1676.29" x2="1676.29" y1="1030.79" y2="1150.12"/>
  <line id="right-margin-Medium-M" style="fill:none;stroke:#00AEEF;stroke-width:0.5;opacity:1.0;" x1="1816.82" x2="1816.82" y1="1030.79" y2="1150.12"/>
  <line id="left-margin-Semibold-M" style="fill:none;stroke:#00AEEF;stroke-width:0.5;opacity:1.0;" x1="1972.81" x2="1972.81" y1="1030.79" y2="1150.12"/>
  <line id="right-margin-Semibold-M" style="fill:none;stroke:#00AEEF;stroke-width:0.5;opacity:1.0;" x1="2113.73" x2="2113.73" y1="1030.79" y2="1150.12"/>
  <line id="left-margin-Bold-M" style="fill:none;stroke:#00AEEF;stroke-width:0.5;opacity:1.0;" x1="2269.25" x2="2269.25" y1="1030.79" y2="1150.12"/>
  <line id="right-margin-Bold-M" style="fill:none;stroke:#00AEEF;stroke-width:0.5;opacity:1.0;" x1="2410.71" x2="2410.71" y1="1030.79" y2="1150.12"/>
  <line id="left-margin-Heavy-M" style="fill:none;stroke:#00AEEF;stroke-width:0.5;opacity:1.0;" x1="2565.6" x2="2565.6" y1="1030.79" y2="1150.12"/>
  <line id="right-margin-Heavy-M" style="fill:none;stroke:#00AEEF;stroke-width:0.5;opacity:1.0;" x1="2707.78" x2="2707.78" y1="1030.79" y2="1150.12"/>
  <line id="left-margin-Black-M" style="fill:none;stroke:#00AEEF;stroke-width:0.5;opacity:1.0;" x1="2861.96" x2="2861.96" y1="1030.79" y2="1150.12"/>
  <line id="right-margin-Black-M" style="fill:none;stroke:#00AEEF;stroke-width:0.5;opacity:1.0;" x1="3004.84" x2="3004.84" y1="1030.79" y2="1150.12"/>
  <line id="left-margin-Ultralight-L" style="fill:none;stroke:#00AEEF;stroke-width:0.5;opacity:1.0;" x1="471.015" x2="471.015" y1="1460.79" y2="1580.12"/>
  <line id="right-margin-Ultralight-L" style="fill:none;stroke:#00AEEF;stroke-width:0.5;opacity:1.0;" x1="648.407" x2="648.407" y1="1460.79" y2="1580.12"/>
  <line id="left-margin-Thin-L" style="fill:none;stroke:#00AEEF;stroke-width:0.5;opacity:1.0;" x1="767.409" x2="767.409" y1="1460.79" y2="1580.12"/>
  <line id="right-margin-Thin-L" style="fill:none;stroke:#00AEEF;stroke-width:0.5;opacity:1.0;" x1="945.436" x2="945.436" y1="1460.79" y2="1580.12"/>
  <line id="left-margin-Light-L" style="fill:none;stroke:#00AEEF;stroke-width:0.5;opacity:1.0;" x1="1063.53" x2="1063.53" y1="1460.79" y2="1580.12"/>
  <line id="right-margin-Light-L" style="fill:none;stroke:#00AEEF;stroke-width:0.5;opacity:1.0;" x1="1242.73" x2="1242.73" y1="1460.79" y2="1580.12"/>
  <line id="left-margin-Regular-L" style="fill:none;stroke:#00AEEF;stroke-width:0.5;opacity:1.0;" x1="1359.81" x2="1359.81" y1="1460.79" y2="1580.12"/>
  <line id="right-margin-Regular-L" style="fill:none;stroke:#00AEEF;stroke-width:0.5;opacity:1.0;" x1="1539.88" x2="1539.88" y1="1460.79" y2="1580.12"/>
  <line id="left-margin-Medium-L" style="fill:none;stroke:#00AEEF;stroke-width:0.5;opacity:1.0;" x1="1656.17" x2="1656.17" y1="1460.79" y2="1580.12"/>
  <line id="right-margin-Medium-L" style="fill:none;stroke:#00AEEF;stroke-width:0.5;opacity:1.0;" x1="1836.94" x2="1836.94" y1="1460.79" y2="1580.12"/>
  <line id="left-margin-Semibold-L" style="fill:none;stroke:#00AEEF;stroke-width:0.5;opacity:1.0;" x1="1952.64" x2="1952.64" y1="1460.79" y2="1580.12"/>
  <line id="right-margin-Semibold-L" style="fill:none;stroke:#00AEEF;stroke-width:0.5;opacity:1.0;" x1="2133.89" x2="2133.89" y1="1460.79" y2="1580.12"/>
  <line id="left-margin-Bold-L" style="fill:none;stroke:#00AEEF;stroke-width:0.5;opacity:1.0;" x1="2249.01" x2="2249.01" y1="1460.79" y2="1580.12"/>
  <line id="right-margin-Bold-L" style="fill:none;stroke:#00AEEF;stroke-width:0.5;opacity:1.0;" x1="2430.94" x2="2430.94" y1="1460.79" y2="1580.12"/>
  <line id="left-margin-Heavy-L" style="fill:none;stroke:#00AEEF;stroke-width:0.5;opacity:1.0;" x1="2545.23" x2="2545.23" y1="1460.79" y2="1580.12"/>
  <line id="right-margin-Heavy-L" style="fill:none;stroke:#00AEEF;stroke-width:0.5;opacity:1.0;" x1="2728.14" x2="2728.14" y1="1460.79" y2="1580.12"/>
  <line id="left-margin-Black-L" style="fill:none;stroke:#00AEEF;stroke-width:0.5;opacity:1.0;" x1="2841.51" x2="2841.51" y1="1460.79" y2="1580.12"/>
  <line id="right-margin-Black-L" style="fill:none;stroke:#00AEEF;stroke-width:0.5;opacity:1.0;" x1="3025.29" x2="3025.29" y1="1460.79" y2="1580.12"/>
 </g>
 <g id="Symbols">
  <g id="Black-L" transform="matrix(1 0 0 1 2841.51 1556)">
   <path class="hierarchical-0:tertiary SFSymbolsPreview8E8E8E" d="M39.9902 26.5137L143.799 26.5137Q155.225 26.5137 161.475 20.3125Q167.725 14.1113 167.725 2.68555L167.725-55.2246Q167.725-66.6504 161.475-72.8516Q155.225-79.0527 143.799-79.0527L39.9902-79.0527Q28.5645-79.0527 22.3145-72.8516Q16.0645-66.6504 16.0645-55.2246L16.0645 2.68555Q16.0645 14.1113 22.3145 20.3125Q28.5645 26.5137 39.9902 26.5137ZM45.6543-75.1953L82.9102-75.1953L82.9102-85.2051Q82.9102-90.7227 79.8828-93.7988Q76.8555-96.875 71.3867-96.875L57.1777-96.875Q51.709-96.875 48.6816-93.7988Q45.6543-90.7227 45.6543-85.2051ZM100.781-75.1953L138.086-75.1953L138.086-85.2051Q138.086-90.7227 135.034-93.7988Q131.982-96.875 126.514-96.875L112.354-96.875Q106.885-96.875 103.833-93.7988Q100.781-90.7227 100.781-85.2051Z"/>
   <path class="hierarchical-1:primary SFSymbolsPreview212121" d="M72.2656-22.8027Q72.2656-24.1211 73.2422-25.0977L98.1934-55.1758Q99.4629-56.7383 101.025-56.665Q102.588-56.5918 103.442-55.3467Q104.297-54.1016 103.564-52.1484L95.8984-32.2266L110.352-32.2266Q111.572-32.2266 112.427-31.3965Q113.281-30.5664 113.281-29.3457Q113.281-27.9785 112.354-27.0508L87.4512 3.02734Q86.1328 4.58984 84.5703 4.5166Q83.0078 4.44336 82.1289 3.19824Q81.25 1.95312 81.9824 0L89.6973-19.9219L75.293-19.9219Q74.0234-19.9219 73.1445-20.752Q72.2656-21.582 72.2656-22.8027Z"/>
  </g>
  <g id="Heavy-L" transform="matrix(1 0 0 1 2545.23 1556)">
   <path class="hierarchical-0:tertiary SFSymbolsPreview8E8E8E" d="M38.8184 25.4883L144.092 25.4883Q155.029 25.4883 160.938 19.6289Q166.846 13.7695 166.846 2.88086L166.846-55.8105Q166.846-66.748 160.938-72.583Q155.029-78.418 144.092-78.418L38.8184-78.418Q27.8809-78.418 21.9727-72.583Q16.0645-66.748 16.0645-55.8105L16.0645 2.88086Q16.0645 13.8184 21.9727 19.6533Q27.8809 25.4883 38.8184 25.4883ZM45.0195-74.5605L81.4941-74.5605L81.4941-85.2051Q81.4941-90.2344 78.7354-93.042Q75.9766-95.8496 70.9473-95.8496L55.5664-95.8496Q50.5371-95.8496 47.7783-93.042Q45.0195-90.2344 45.0195-85.2051ZM101.318-74.5605L137.793-74.5605L137.793-85.2051Q137.793-90.2344 135.01-93.042Q132.227-95.8496 127.246-95.8496L111.914-95.8496Q106.885-95.8496 104.102-93.042Q101.318-90.2344 101.318-85.2051Z"/>
   <path class="hierarchical-1:primary SFSymbolsPreview212121" d="M71.6309-22.7539Q71.6309-23.9746 72.5586-24.9512L97.8516-55.7129Q99.0234-57.1777 100.464-57.1045Q101.904-57.0312 102.71-55.8838Q103.516-54.7363 102.832-52.9297L94.9219-32.1777L109.814-32.1777Q110.938-32.1777 111.719-31.3965Q112.5-30.6152 112.5-29.541Q112.5-28.2715 111.621-27.3438L86.377 3.41797Q85.1562 4.88281 83.7158 4.83398Q82.2754 4.78516 81.4453 3.61328Q80.6152 2.44141 81.3477 0.634766L89.3066-20.1172L74.4141-20.1172Q73.2422-20.1172 72.4365-20.874Q71.6309-21.6309 71.6309-22.7539Z"/>
  </g>
  <g id="Bold-L" transform="matrix(1 0 0 1 2249.01 1556)">
   <path class="hierarchical-0:tertiary SFSymbolsPreview8E8E8E" d="M37.5488 24.3652L144.385 24.3652Q154.834 24.3652 160.352 18.8965Q165.869 13.4277 165.869 3.07617L165.869-56.4453Q165.869-66.8457 160.352-72.3145Q154.834-77.7832 144.385-77.7832L37.5488-77.7832Q27.0996-77.7832 21.582-72.3145Q16.0645-66.8457 16.0645-56.4453L16.0645 3.07617Q16.0645 13.4766 21.582 18.9209Q27.0996 24.3652 37.5488 24.3652ZM44.3848-73.8281L79.8828-73.8281L79.8828-85.2539Q79.8828-89.6973 77.4414-92.2119Q75-94.7266 70.5078-94.7266L53.7598-94.7266Q49.2676-94.7266 46.8262-92.2119Q44.3848-89.6973 44.3848-85.2539ZM101.953-73.8281L137.5-73.8281L137.5-85.2539Q137.5-89.6973 135.034-92.2119Q132.568-94.7266 128.076-94.7266L111.377-94.7266Q106.885-94.7266 104.419-92.2119Q101.953-89.6973 101.953-85.2539Z"/>
   <path class="hierarchical-1:primary SFSymbolsPreview212121" d="M70.9473-22.7539Q70.9473-23.8281 71.8262-24.7559L97.4609-56.2988Q98.5352-57.666 99.8535-57.6172Q101.172-57.5684 101.904-56.5186Q102.637-55.4688 102.002-53.7598L93.8477-32.1289L109.18-32.1289Q110.205-32.1289 110.938-31.4209Q111.67-30.7129 111.67-29.7363Q111.67-28.6133 110.791-27.6855L85.2051 3.85742Q84.082 5.22461 82.7637 5.17578Q81.4453 5.12695 80.6885 4.07715Q79.9316 3.02734 80.6152 1.31836L88.8184-20.3613L73.4863-20.3613Q72.4121-20.3613 71.6797-21.0449Q70.9473-21.7285 70.9473-22.7539Z"/>
  </g>
  <g id="Semibold-L" transform="matrix(1 0 0 1 1952.64 1556)">
   <path class="hierarchical-0:tertiary SFSymbolsPreview8E8E8E" d="M36.6211 23.584L144.58 23.584Q154.688 23.584 159.937 18.3838Q165.186 13.1836 165.186 3.17383L165.186-56.8848Q165.186-66.8945 159.937-72.0947Q154.688-77.2949 144.58-77.2949L36.6211-77.2949Q26.5625-77.2949 21.3135-72.0947Q16.0645-66.8945 16.0645-56.8848L16.0645 3.17383Q16.0645 13.2324 21.3135 18.4082Q26.5625 23.584 36.6211 23.584ZM43.8965-73.291L78.7598-73.291L78.7598-85.2539Q78.7598-89.3066 76.5137-91.6016Q74.2676-93.8965 70.166-93.8965L52.5391-93.8965Q48.3887-93.8965 46.1426-91.6016Q43.8965-89.3066 43.8965-85.2539ZM102.393-73.291L137.305-73.291L137.305-85.2539Q137.305-89.3066 135.034-91.6016Q132.764-93.8965 128.662-93.8965L111.035-93.8965Q106.885-93.8965 104.639-91.6016Q102.393-89.3066 102.393-85.2539Z"/>
   <path class="hierarchical-1:primary SFSymbolsPreview212121" d="M70.459-22.7051Q70.459-23.6816 71.2891-24.6094L97.168-56.6895Q98.1934-58.0078 99.4141-57.959Q100.635-57.9102 101.343-56.9336Q102.051-55.957 101.416-54.3457L93.0664-32.0801L108.74-32.0801Q109.668-32.0801 110.352-31.4209Q111.035-30.7617 111.035-29.834Q111.035-28.8086 110.205-27.9297L84.375 4.15039Q83.3496 5.46875 82.1045 5.41992Q80.8594 5.37109 80.1514 4.37012Q79.4434 3.36914 80.0781 1.80664L88.4766-20.5078L72.8027-20.5078Q71.8262-20.5078 71.1426-21.1426Q70.459-21.7773 70.459-22.7051Z"/>
  </g>
  <g id="Medium-L" transform="matrix(1 0 0 1 1656.17 1556)">
   <path class="hierarchical-0:tertiary SFSymbolsPreview8E8E8E" d="M35.9375 22.998L144.775 22.998Q154.59 22.998 159.644 17.9932Q164.697 12.9883 164.697 3.27148L164.697-57.2266Q164.697-66.9434 159.644-71.9482Q154.59-76.9531 144.775-76.9531L35.9375-76.9531Q26.1719-76.9531 21.1182-71.9727Q16.0645-66.9922 16.0645-57.2266L16.0645 3.27148Q16.0645 13.0371 21.1182 18.0176Q26.1719 22.998 35.9375 22.998ZM43.5547-72.9004L77.9297-72.9004L77.9297-85.2539Q77.9297-89.0625 75.8545-91.1865Q73.7793-93.3105 69.9219-93.3105L51.5625-93.3105Q47.7051-93.3105 45.6299-91.1865Q43.5547-89.0625 43.5547-85.2539ZM102.686-72.9004L137.109-72.9004L137.109-85.2539Q137.109-89.0625 135.01-91.1865Q132.91-93.3105 129.053-93.3105L110.742-93.3105Q106.885-93.3105 104.785-91.1865Q102.686-89.0625 102.686-85.2539Z"/>
   <path class="hierarchical-1:primary SFSymbolsPreview212121" d="M70.1172-22.7051Q70.1172-23.584 70.8984-24.5605L96.9727-57.0312Q97.9492-58.252 99.0967-58.2275Q100.244-58.2031 100.903-57.251Q101.562-56.2988 101.025-54.7852L92.4805-32.0312L108.447-32.0312Q109.277-32.0312 109.937-31.4209Q110.596-30.8105 110.596-29.9316Q110.596-29.0039 109.766-28.0762L83.7891 4.39453Q82.7637 5.61523 81.5918 5.59082Q80.4199 5.56641 79.7607 4.61426Q79.1016 3.66211 79.6875 2.14844L88.2324-20.6543L72.2656-20.6543Q71.3867-20.6543 70.752-21.2402Q70.1172-21.8262 70.1172-22.7051Z"/>
  </g>
  <g id="Regular-L" transform="matrix(1 0 0 1 1359.81 1556)">
   <path class="hierarchical-0:tertiary SFSymbolsPreview8E8E8E" d="M35.0586 22.2168L144.971 22.2168Q154.443 22.2168 159.229 17.4805Q164.014 12.7441 164.014 3.41797L164.014-57.666Q164.014-66.9922 159.229-71.7285Q154.443-76.4648 144.971-76.4648L35.0586-76.4648Q25.6348-76.4648 20.8496-71.7529Q16.0645-67.041 16.0645-57.666L16.0645 3.41797Q16.0645 12.793 20.8496 17.5049Q25.6348 22.2168 35.0586 22.2168ZM43.0664-72.4121L76.8555-72.4121L76.8555-85.2539Q76.8555-88.6719 74.9756-90.6006Q73.0957-92.5293 69.5801-92.5293L50.3418-92.5293Q46.8262-92.5293 44.9463-90.6006Q43.0664-88.6719 43.0664-85.2539ZM103.125-72.4121L136.914-72.4121L136.914-85.2539Q136.914-88.6719 135.01-90.6006Q133.105-92.5293 129.639-92.5293L110.4-92.5293Q106.885-92.5293 105.005-90.6006Q103.125-88.6719 103.125-85.2539Z"/>
   <path class="hierarchical-1:primary SFSymbolsPreview212121" d="M69.6289-22.6562Q69.6289-23.4863 70.4102-24.4141L96.6797-57.4219Q97.6074-58.5938 98.6816-58.5693Q99.7559-58.5449 100.366-57.666Q100.977-56.7871 100.439-55.3711L91.748-31.9824L108.008-31.9824Q108.789-31.9824 109.399-31.4209Q110.01-30.8594 110.01-30.0781Q110.01-29.1992 109.18-28.3203L82.959 4.6875Q82.0312 5.85938 80.9326 5.83496Q79.834 5.81055 79.2236 4.93164Q78.6133 4.05273 79.1992 2.63672L87.9395-20.8008L71.6309-20.8008Q70.8008-20.8008 70.2148-21.3379Q69.6289-21.875 69.6289-22.6562Z"/>
  </g>
  <g id="Light-L" transform="matrix(1 0 0 1 1063.53 1556)">
   <path class="hierarchical-0:tertiary SFSymbolsPreview8E8E8E" d="M34.0332 21.4355L145.117 21.4355Q154.053 21.4355 158.594 16.8945Q163.135 12.3535 163.135 3.56445L163.135-57.7637Q163.135-66.5527 158.594-71.0938Q154.053-75.6348 145.117-75.6348L34.0332-75.6348Q25.1465-75.6348 20.6055-71.1182Q16.0645-66.6016 16.0645-57.7637L16.0645 3.56445Q16.0645 12.4023 20.6055 16.9189Q25.1465 21.4355 34.0332 21.4355ZM42.041-72.5098L75.8301-72.5098L75.8301-84.9609Q75.8301-88.1348 74.0967-89.917Q72.3633-91.6992 69.043-91.6992L48.877-91.6992Q45.5078-91.6992 43.7744-89.917Q42.041-88.1348 42.041-84.9609ZM103.271-72.5098L137.061-72.5098L137.061-84.9609Q137.061-88.1348 135.303-89.917Q133.545-91.6992 130.273-91.6992L110.107-91.6992Q106.787-91.6992 105.029-89.917Q103.271-88.1348 103.271-84.9609Z"/>
   <path class="hierarchical-1:primary SFSymbolsPreview212121" d="M69.4336-22.4609Q69.4336-23.1934 70.166-24.0723L96.7773-57.5684Q97.6074-58.5938 98.5596-58.5693Q99.5117-58.5449 100.049-57.7881Q100.586-57.0312 100.098-55.7617L91.2109-31.8359L107.715-31.8359Q108.447-31.8359 108.96-31.3721Q109.473-30.9082 109.473-30.2246Q109.473-29.4922 108.691-28.6133L82.0801 4.88281Q81.2988 5.9082 80.3223 5.88379Q79.3457 5.85938 78.8086 5.10254Q78.2715 4.3457 78.8086 3.07617L87.7441-20.8984L71.1914-20.8984Q70.459-20.8984 69.9463-21.3379Q69.4336-21.7773 69.4336-22.4609Z"/>
  </g>
  <g id="Thin-L" transform="matrix(1 0 0 1 767.409 1556)">
   <path class="hierarchical-0:tertiary SFSymbolsPreview8E8E8E" d="M32.666 20.3613L145.312 20.3613Q153.516 20.3613 157.739 16.0889Q161.963 11.8164 161.963 3.75977L161.963-57.9102Q161.963-65.918 157.739-70.2148Q153.516-74.5117 145.312-74.5117L32.666-74.5117Q24.5117-74.5117 20.2881-70.2881Q16.0645-66.0645 16.0645-57.9102L16.0645 3.75977Q16.0645 11.9141 20.2881 16.1377Q24.5117 20.3613 32.666 20.3613ZM40.7227-72.6074L74.5117-72.6074L74.5117-84.5703Q74.5117-87.4023 72.9492-88.9893Q71.3867-90.5762 68.2617-90.5762L46.875-90.5762Q43.7988-90.5762 42.2607-88.9893Q40.7227-87.4023 40.7227-84.5703ZM103.516-72.6074L137.305-72.6074L137.305-84.5703Q137.305-87.4023 135.742-88.9893Q134.18-90.5762 131.104-90.5762L109.717-90.5762Q106.592-90.5762 105.054-88.9893Q103.516-87.4023 103.516-84.5703Z"/>
   <path class="hierarchical-1:primary SFSymbolsPreview212121" d="M69.1895-22.2168Q69.1895-22.8516 69.8242-23.6328L96.9238-57.7148Q97.6074-58.5938 98.3887-58.5938Q99.1699-58.5938 99.6094-57.959Q100.049-57.3242 99.6582-56.2988L90.4785-31.6406L107.373-31.6406Q107.959-31.6406 108.35-31.2744Q108.74-30.9082 108.74-30.3711Q108.74-29.8828 108.057-29.0039L80.957 5.12695Q80.2734 5.95703 79.4922 5.95703Q78.7109 5.95703 78.2715 5.32227Q77.832 4.6875 78.2715 3.66211L87.5-21.0938L70.5566-21.0938Q69.9707-21.0938 69.5801-21.3867Q69.1895-21.6797 69.1895-22.2168Z"/>
  </g>
  <g id="Ultralight-L" transform="matrix(1 0 0 1 471.015 1556)">
   <path class="hierarchical-0:tertiary SFSymbolsPreview8E8E8E" d="M31.9824 19.8242L145.41 19.8242Q153.223 19.8242 157.275 15.6738Q161.328 11.5234 161.328 3.85742L161.328-58.0078Q161.328-65.625 157.275-69.7754Q153.223-73.9258 145.41-73.9258L31.9824-73.9258Q24.1699-73.9258 20.1172-69.8486Q16.0645-65.7715 16.0645-58.0078L16.0645 3.85742Q16.0645 11.6699 20.1172 15.7471Q24.1699 19.8242 31.9824 19.8242ZM40.0391-72.7051L73.8281-72.7051L73.8281-84.375Q73.8281-87.0605 72.3389-88.5254Q70.8496-89.9902 67.9199-89.9902L45.8984-89.9902Q42.9199-89.9902 41.4795-88.5254Q40.0391-87.0605 40.0391-84.375ZM103.613-72.7051L137.402-72.7051L137.402-84.375Q137.402-87.0605 135.938-88.5254Q134.473-89.9902 131.494-89.9902L109.473-89.9902Q106.543-89.9902 105.078-88.5254Q103.613-87.0605 103.613-84.375Z"/>
   <path class="hierarchical-1:primary SFSymbolsPreview212121" d="M69.0918-22.1191Q69.0918-22.6562 69.6289-23.4375L97.0215-57.8125Q97.6074-58.5938 98.3154-58.5938Q99.0234-58.5938 99.3896-58.0322Q99.7559-57.4707 99.4629-56.543L90.1367-31.543L107.178-31.543Q107.715-31.543 108.057-31.25Q108.398-30.957 108.398-30.4688Q108.398-30.0781 107.715-29.1992L80.3711 5.22461Q79.7852 6.00586 79.0771 6.00586Q78.3691 6.00586 78.0029 5.44434Q77.6367 4.88281 78.0273 3.95508L87.3535-21.1426L70.2637-21.1426Q69.7754-21.1426 69.4336-21.3867Q69.0918-21.6309 69.0918-22.1191Z"/>
  </g>
  <g id="Black-M" transform="matrix(1 0 0 1 2861.96 1126)">
   <path class="hierarchical-0:tertiary SFSymbolsPreview8E8E8E" d="M31.5918 13.2324L111.279 13.2324Q120.312 13.2324 125.366 8.17871Q130.42 3.125 130.42-5.9082L130.42-50.293Q130.42-59.375 125.366-64.4043Q120.312-69.4336 111.279-69.4336L31.5918-69.4336Q22.5586-69.4336 17.5049-64.4043Q12.4512-59.375 12.4512-50.293L12.4512-5.9082Q12.4512 3.125 17.5049 8.17871Q22.5586 13.2324 31.5918 13.2324ZM35.5469-66.7969L65.1367-66.7969L65.1367-73.8281Q65.1367-78.4668 62.5977-81.0303Q60.0586-83.5938 55.5176-83.5938L45.2148-83.5938Q40.625-83.5938 38.0859-81.0303Q35.5469-78.4668 35.5469-73.8281ZM77.6855-66.7969L107.324-66.7969L107.324-73.8281Q107.324-78.4668 104.761-81.0303Q102.197-83.5938 97.6562-83.5938L87.3535-83.5938Q82.7637-83.5938 80.2246-81.0303Q77.6855-78.4668 77.6855-73.8281Z"/>
   <path class="hierarchical-1:primary SFSymbolsPreview212121" d="M56.4941-25.5371Q56.4941-26.6602 57.2266-27.3926L76.416-50.293Q77.4902-51.5137 78.7354-51.4404Q79.9805-51.3672 80.6885-50.3662Q81.3965-49.3652 80.7617-47.8516L75-32.9102L85.8887-32.9102Q86.9141-32.9102 87.5977-32.251Q88.2812-31.5918 88.2812-30.5664Q88.2812-29.4922 87.5488-28.7109L68.4082-5.85938Q67.334-4.58984 66.0645-4.66309Q64.7949-4.73633 64.0869-5.7373Q63.3789-6.73828 63.9648-8.30078L69.7754-23.2422L58.9355-23.2422Q57.8613-23.2422 57.1777-23.9014Q56.4941-24.5605 56.4941-25.5371Z"/>
  </g>
  <g id="Heavy-M" transform="matrix(1 0 0 1 2565.6 1126)">
   <path class="hierarchical-0:tertiary SFSymbolsPreview8E8E8E" d="M30.7129 12.4023L111.523 12.4023Q120.215 12.4023 124.976 7.66602Q129.736 2.92969 129.736-5.76172L129.736-50.8301Q129.736-59.5703 124.976-64.3066Q120.215-69.043 111.523-69.043L30.7129-69.043Q21.9727-69.043 17.2119-64.3066Q12.4512-59.5703 12.4512-50.8301L12.4512-5.76172Q12.4512 2.92969 17.2119 7.66602Q21.9727 12.4023 30.7129 12.4023ZM35.1562-66.1621L63.9648-66.1621L63.9648-73.9258Q63.9648-78.125 61.6455-80.4443Q59.3262-82.7637 55.2246-82.7637L43.9453-82.7637Q39.7949-82.7637 37.4756-80.4443Q35.1562-78.125 35.1562-73.9258ZM78.1738-66.1621L107.031-66.1621L107.031-73.9258Q107.031-78.125 104.712-80.4443Q102.393-82.7637 98.2422-82.7637L86.9629-82.7637Q82.8125-82.7637 80.4932-80.4443Q78.1738-78.125 78.1738-73.9258Z"/>
   <path class="hierarchical-1:primary SFSymbolsPreview212121" d="M55.9082-25.5371Q55.9082-26.5625 56.6406-27.2949L76.0254-50.7812Q77.0508-51.9531 78.2227-51.8799Q79.3945-51.8066 80.0537-50.8789Q80.7129-49.9512 80.127-48.4863L74.1699-32.8613L85.4004-32.8613Q86.3281-32.8613 86.9873-32.251Q87.6465-31.6406 87.6465-30.7129Q87.6465-29.6875 86.9141-28.9551L67.5781-5.51758Q66.5527-4.29688 65.3564-4.37012Q64.1602-4.44336 63.501-5.37109Q62.8418-6.29883 63.3789-7.8125L69.4336-23.4375L58.2031-23.4375Q57.2266-23.4375 56.5674-24.0479Q55.9082-24.6582 55.9082-25.5371Z"/>
  </g>
  <g id="Bold-M" transform="matrix(1 0 0 1 2269.25 1126)">
   <path class="hierarchical-0:tertiary SFSymbolsPreview8E8E8E" d="M29.6875 11.5234L111.768 11.5234Q120.166 11.5234 124.585 7.10449Q129.004 2.68555 129.004-5.66406L129.004-51.416Q129.004-59.7656 124.585-64.1602Q120.166-68.5547 111.768-68.5547L29.6875-68.5547Q21.3379-68.5547 16.8945-64.1602Q12.4512-59.7656 12.4512-51.416L12.4512-5.66406Q12.4512 2.68555 16.8945 7.10449Q21.3379 11.5234 29.6875 11.5234ZM34.7656-65.4297L62.6465-65.4297L62.6465-74.0234Q62.6465-77.7344 60.5957-79.8096Q58.5449-81.8848 54.8828-81.8848L42.5293-81.8848Q38.8672-81.8848 36.8164-79.8096Q34.7656-77.7344 34.7656-74.0234ZM78.7598-65.4297L106.689-65.4297L106.689-74.0234Q106.689-77.7344 104.639-79.8096Q102.588-81.8848 98.877-81.8848L86.5234-81.8848Q82.8613-81.8848 80.8105-79.8096Q78.7598-77.7344 78.7598-74.0234Z"/>
   <path class="hierarchical-1:primary SFSymbolsPreview212121" d="M55.2734-25.5859Q55.2734-26.4648 55.957-27.2461L75.6348-51.3672Q76.5625-52.4414 77.6367-52.3926Q78.7109-52.3438 79.3213-51.4648Q79.9316-50.5859 79.3945-49.2676L73.1934-32.8613L84.8633-32.8613Q85.7422-32.8613 86.3525-32.2998Q86.9629-31.7383 86.9629-30.9082Q86.9629-29.9316 86.2305-29.248L66.6016-5.12695Q65.6738-4.00391 64.5752-4.05273Q63.4766-4.10156 62.8662-4.98047Q62.2559-5.85938 62.793-7.22656L69.043-23.6328L57.373-23.6328Q56.4941-23.6328 55.8838-24.1943Q55.2734-24.7559 55.2734-25.5859Z"/>
  </g>
  <g id="Semibold-M" transform="matrix(1 0 0 1 1972.81 1126)">
   <path class="hierarchical-0:tertiary SFSymbolsPreview8E8E8E" d="M29.0039 10.8887L111.963 10.8887Q120.068 10.8887 124.268 6.68945Q128.467 2.49023 128.467-5.51758L128.467-51.8066Q128.467-59.8633 124.268-64.0381Q120.068-68.2129 111.963-68.2129L29.0039-68.2129Q20.8984-68.2129 16.6748-64.0381Q12.4512-59.8633 12.4512-51.8066L12.4512-5.51758Q12.4512 2.49023 16.6748 6.68945Q20.8984 10.8887 29.0039 10.8887ZM34.4238-64.8926L61.7188-64.8926L61.7188-74.0723Q61.7188-77.4902 59.8633-79.3701Q58.0078-81.25 54.6387-81.25L41.5527-81.25Q38.1836-81.25 36.3037-79.3701Q34.4238-77.4902 34.4238-74.0723ZM79.1504-64.8926L106.445-64.8926L106.445-74.0723Q106.445-77.4902 104.565-79.3701Q102.686-81.25 99.3164-81.25L86.2305-81.25Q82.8613-81.25 81.0059-79.3701Q79.1504-77.4902 79.1504-74.0723Z"/>
   <path class="hierarchical-1:primary SFSymbolsPreview212121" d="M54.834-25.5859Q54.834-26.416 55.5176-27.1484L75.3418-51.709Q76.2207-52.7344 77.2461-52.71Q78.2715-52.6855 78.833-51.8555Q79.3945-51.0254 78.9062-49.7559L72.5586-32.8125L84.4727-32.8125Q85.3027-32.8125 85.8643-32.2754Q86.4258-31.7383 86.4258-31.0059Q86.4258-30.0781 85.7422-29.3945L65.9668-4.88281Q65.0879-3.80859 64.0381-3.83301Q62.9883-3.85742 62.4268-4.6875Q61.8652-5.51758 62.3535-6.83594L68.75-23.7305L56.7871-23.7305Q55.957-23.7305 55.3955-24.2676Q54.834-24.8047 54.834-25.5859Z"/>
  </g>
  <g id="Medium-M" transform="matrix(1 0 0 1 1676.29 1126)">
   <path class="hierarchical-0:tertiary SFSymbolsPreview8E8E8E" d="M28.4668 10.4004L112.061 10.4004Q120.02 10.4004 124.048 6.37207Q128.076 2.34375 128.076-5.46875L128.076-52.1484Q128.076-59.9609 124.048-63.9648Q120.02-67.9688 112.061-67.9688L28.4668-67.9688Q20.5566-67.9688 16.5039-63.9648Q12.4512-59.9609 12.4512-52.1484L12.4512-5.46875Q12.4512 2.34375 16.5039 6.37207Q20.5566 10.4004 28.4668 10.4004ZM34.2285-64.502L61.0352-64.502L61.0352-74.1211Q61.0352-77.2461 59.3018-79.0039Q57.5684-80.7617 54.4922-80.7617L40.8203-80.7617Q37.6953-80.7617 35.9619-79.0039Q34.2285-77.2461 34.2285-74.1211ZM79.4434-64.502L106.25-64.502L106.25-74.1211Q106.25-77.2461 104.517-79.0039Q102.783-80.7617 99.6582-80.7617L85.9863-80.7617Q82.8613-80.7617 81.1523-79.0039Q79.4434-77.2461 79.4434-74.1211Z"/>
   <path class="hierarchical-1:primary SFSymbolsPreview212121" d="M54.4922-25.5859Q54.4922-26.3184 55.127-27.0996L75.1465-52.002Q75.9766-52.9785 76.9287-52.9541Q77.8809-52.9297 78.4424-52.1484Q79.0039-51.3672 78.5156-50.1465L72.0215-32.8125L84.2285-32.8125Q84.9609-32.8125 85.5225-32.2998Q86.084-31.7871 86.084-31.1035Q86.084-30.2246 85.4004-29.541L65.4297-4.63867Q64.5996-3.61328 63.623-3.66211Q62.6465-3.71094 62.085-4.49219Q61.5234-5.27344 62.0117-6.54297L68.5547-23.8281L56.3477-23.8281Q55.5664-23.8281 55.0293-24.3408Q54.4922-24.8535 54.4922-25.5859Z"/>
  </g>
  <g id="Regular-M" transform="matrix(1 0 0 1 1379.82 1126)">
   <path class="hierarchical-0:tertiary SFSymbolsPreview8E8E8E" d="M27.7832 9.76562L112.256 9.76562Q119.971 9.76562 123.779 5.98145Q127.588 2.19727 127.588-5.37109L127.588-52.5391Q127.588-60.1074 123.779-63.8916Q119.971-67.6758 112.256-67.6758L27.7832-67.6758Q20.1172-67.6758 16.2842-63.8916Q12.4512-60.1074 12.4512-52.5391L12.4512-5.37109Q12.4512 2.19727 16.2842 5.98145Q20.1172 9.76562 27.7832 9.76562ZM33.9355-64.0137L60.1562-64.0137L60.1562-74.1699Q60.1562-77.002 58.5938-78.5645Q57.0312-80.127 54.248-80.127L39.8438-80.127Q37.0605-80.127 35.498-78.5645Q33.9355-77.002 33.9355-74.1699ZM79.834-64.0137L106.006-64.0137L106.006-74.1699Q106.006-77.002 104.468-78.5645Q102.93-80.127 100.098-80.127L85.6934-80.127Q82.9102-80.127 81.3721-78.5645Q79.834-77.002 79.834-74.1699Z"/>
   <path class="hierarchical-1:primary SFSymbolsPreview212121" d="M54.0527-25.5859Q54.0527-26.2695 54.6875-27.0508L74.8535-52.3926Q75.6348-53.3203 76.5381-53.2959Q77.4414-53.2715 77.9541-52.5391Q78.4668-51.8066 78.0273-50.6348L71.3867-32.7637L83.8379-32.7637Q84.5215-32.7637 85.0586-32.2998Q85.5957-31.8359 85.5957-31.2012Q85.5957-30.3711 84.9121-29.7363L64.7949-4.39453Q64.0137-3.41797 63.0859-3.44238Q62.1582-3.4668 61.6455-4.19922Q61.1328-4.93164 61.5723-6.15234L68.2617-23.9746L55.7617-23.9746Q55.0781-23.9746 54.5654-24.4385Q54.0527-24.9023 54.0527-25.5859Z"/>
  </g>
  <g id="Light-M" transform="matrix(1 0 0 1 1083.5 1126)">
   <path class="hierarchical-0:tertiary SFSymbolsPreview8E8E8E" d="M26.8555 9.0332L112.402 9.0332Q119.58 9.0332 123.193 5.44434Q126.807 1.85547 126.807-5.22461L126.807-52.6367Q126.807-59.7168 123.193-63.3301Q119.58-66.9434 112.402-66.9434L26.8555-66.9434Q19.6777-66.9434 16.0645-63.3301Q12.4512-59.7168 12.4512-52.6367L12.4512-5.22461Q12.4512 1.85547 16.0645 5.44434Q19.6777 9.0332 26.8555 9.0332ZM33.0078-64.1113L59.2285-64.1113L59.2285-73.9258Q59.2285-76.4648 57.8125-77.9297Q56.3965-79.3945 53.7598-79.3945L38.5254-79.3945Q35.8887-79.3945 34.4482-77.9297Q33.0078-76.4648 33.0078-73.9258ZM79.9805-64.1113L106.152-64.1113L106.152-73.9258Q106.152-76.4648 104.736-77.9297Q103.32-79.3945 100.635-79.3945L85.4492-79.3945Q82.8125-79.3945 81.3965-77.9297Q79.9805-76.4648 79.9805-73.9258Z"/>
   <path class="hierarchical-1:primary SFSymbolsPreview212121" d="M53.9062-25.4395Q53.9062-26.0254 54.4434-26.7578L74.9512-52.4902Q75.6348-53.3203 76.416-53.2959Q77.1973-53.2715 77.6611-52.6367Q78.125-52.002 77.7344-50.9766L70.8984-32.666L83.5938-32.666Q84.1797-32.666 84.6436-32.251Q85.1074-31.8359 85.1074-31.2988Q85.1074-30.6641 84.4727-29.9805L64.0137-4.24805Q63.3301-3.36914 62.5244-3.39355Q61.7188-3.41797 61.2793-4.05273Q60.8398-4.6875 61.2305-5.76172L68.0664-24.0723L55.3711-24.0723Q54.7363-24.0723 54.3213-24.4629Q53.9062-24.8535 53.9062-25.4395Z"/>
  </g>
  <g id="Thin-M" transform="matrix(1 0 0 1 787.306 1126)">
   <path class="hierarchical-0:tertiary SFSymbolsPreview8E8E8E" d="M25.5859 8.05664L112.549 8.05664Q119.092 8.05664 122.437 4.71191Q125.781 1.36719 125.781-5.07812L125.781-52.7832Q125.781-59.1797 122.437-62.5488Q119.092-65.918 112.549-65.918L25.5859-65.918Q19.1406-65.918 15.7959-62.5732Q12.4512-59.2285 12.4512-52.7832L12.4512-5.07812Q12.4512 1.41602 15.7959 4.73633Q19.1406 8.05664 25.5859 8.05664ZM31.8359-64.209L58.0078-64.209L58.0078-73.584Q58.0078-75.8301 56.7627-77.0996Q55.5176-78.3691 53.0762-78.3691L36.7676-78.3691Q34.375-78.3691 33.1055-77.0996Q31.8359-75.8301 31.8359-73.584ZM80.1758-64.209L106.348-64.209L106.348-73.584Q106.348-75.8301 105.103-77.0996Q103.857-78.3691 101.416-78.3691L85.1074-78.3691Q82.666-78.3691 81.4209-77.0996Q80.1758-75.8301 80.1758-73.584Z"/>
   <path class="hierarchical-1:primary SFSymbolsPreview212121" d="M53.6621-25.1953Q53.6621-25.6836 54.1504-26.3672L75.0977-52.6367Q75.6348-53.3203 76.2695-53.3203Q76.9043-53.3203 77.2705-52.7832Q77.6367-52.2461 77.3438-51.4648L70.2637-32.4707L83.252-32.4707Q83.7402-32.4707 84.082-32.1777Q84.4238-31.8848 84.4238-31.4453Q84.4238-31.0059 83.8867-30.3223L62.9883-4.00391Q62.4512-3.32031 61.792-3.32031Q61.1328-3.32031 60.791-3.83301Q60.4492-4.3457 60.7422-5.22461L67.8223-24.2188L54.834-24.2188Q54.3457-24.2188 54.0039-24.4873Q53.6621-24.7559 53.6621-25.1953Z"/>
  </g>
  <g id="Ultralight-M" transform="matrix(1 0 0 1 490.863 1126)">
   <path class="hierarchical-0:tertiary SFSymbolsPreview8E8E8E" d="M24.9512 7.56836L112.646 7.56836Q118.848 7.56836 122.046 4.3457Q125.244 1.12305 125.244-4.98047L125.244-52.8809Q125.244-58.8867 122.046-62.1582Q118.848-65.4297 112.646-65.4297L24.9512-65.4297Q18.8477-65.4297 15.6494-62.207Q12.4512-58.9844 12.4512-52.8809L12.4512-4.98047Q12.4512 1.2207 15.6494 4.39453Q18.8477 7.56836 24.9512 7.56836ZM31.2012-64.2578L57.373-64.2578L57.373-73.3887Q57.373-75.4395 56.2256-76.6602Q55.0781-77.8809 52.7344-77.8809L35.8887-77.8809Q33.5449-77.8809 32.373-76.6602Q31.2012-75.4395 31.2012-73.3887ZM80.2734-64.2578L106.445-64.2578L106.445-73.3887Q106.445-75.4395 105.273-76.6602Q104.102-77.8809 101.758-77.8809L84.9121-77.8809Q82.5684-77.8809 81.4209-76.6602Q80.2734-75.4395 80.2734-73.3887Z"/>
   <path class="hierarchical-1:primary SFSymbolsPreview212121" d="M53.5645-25.0977Q53.5645-25.5371 54.0039-26.123L75.1953-52.7344Q75.6348-53.3203 76.1963-53.3203Q76.7578-53.3203 77.0996-52.8564Q77.4414-52.3926 77.0996-51.6602L69.9219-32.4219L83.1055-32.4219Q83.5449-32.4219 83.8135-32.1533Q84.082-31.8848 84.082-31.543Q84.082-31.2012 83.5938-30.4688L62.4512-3.90625Q61.9629-3.27148 61.4014-3.27148Q60.8398-3.27148 60.5225-3.73535Q60.2051-4.19922 60.5469-4.98047L67.7246-24.3164L54.5898-24.3164Q54.1016-24.3164 53.833-24.5117Q53.5645-24.707 53.5645-25.0977Z"/>
  </g>
  <g id="Black-S" transform="matrix(1 0 0 1 2877.35 696)">
   <path class="hierarchical-0:tertiary SFSymbolsPreview8E8E8E" d="M25 2.92969L87.1094 2.92969Q94.2871 2.92969 98.3154-1.09863Q102.344-5.12695 102.344-12.3047L102.344-46.875Q102.344-54.0527 98.3154-58.0811Q94.2871-62.1094 87.1094-62.1094L25-62.1094Q17.8223-62.1094 13.7939-58.0811Q9.76562-54.0527 9.76562-46.875L9.76562-12.3047Q9.76562-5.12695 13.7939-1.09863Q17.8223 2.92969 25 2.92969ZM27.9297-60.1562L51.3672-60.1562L51.3672-65.4297Q51.3672-69.1895 49.3164-71.2646Q47.2656-73.3398 43.5547-73.3398L35.7422-73.3398Q32.0312-73.3398 29.9805-71.2646Q27.9297-69.1895 27.9297-65.4297ZM60.7422-60.1562L84.1797-60.1562L84.1797-65.4297Q84.1797-69.1895 82.1289-71.2646Q80.0781-73.3398 76.3672-73.3398L68.5547-73.3398Q64.8438-73.3398 62.793-71.2646Q60.7422-69.1895 60.7422-65.4297Z"/>
   <path class="hierarchical-1:primary SFSymbolsPreview212121" d="M44.4336-27.6367Q44.4336-28.5156 45.0195-29.1016L60.0098-46.875Q60.8398-47.9004 61.8408-47.8271Q62.8418-47.7539 63.4033-46.9482Q63.9648-46.1426 63.4766-44.9219L58.9844-33.3984L67.4316-33.3984Q68.2617-33.3984 68.7988-32.8857Q69.3359-32.373 69.3359-31.543Q69.3359-30.6641 68.75-30.0781L53.8086-12.3047Q52.5391-10.791 51.0742-11.6211Q49.6094-12.4512 50.293-14.2578L54.7852-25.7812L46.3867-25.7812Q44.4336-25.7812 44.4336-27.6367Z"/>
  </g>
  <g id="Heavy-S" transform="matrix(1 0 0 1 2580.88 696)">
   <path class="hierarchical-0:tertiary SFSymbolsPreview8E8E8E" d="M24.3652 2.34375L87.3047 2.34375Q94.2871 2.34375 98.0713-1.46484Q101.855-5.27344 101.855-12.207L101.855-47.3145Q101.855-54.248 98.0713-58.0566Q94.2871-61.8652 87.3047-61.8652L24.3652-61.8652Q17.3828-61.8652 13.5742-58.0566Q9.76562-54.248 9.76562-47.3145L9.76562-12.207Q9.76562-5.27344 13.5742-1.46484Q17.3828 2.34375 24.3652 2.34375ZM27.7344-59.5703L50.4883-59.5703L50.4883-65.5273Q50.4883-68.9453 48.6084-70.8496Q46.7285-72.7539 43.3594-72.7539L34.8145-72.7539Q31.4453-72.7539 29.5898-70.8496Q27.7344-68.9453 27.7344-65.5273ZM61.1328-59.5703L83.8867-59.5703L83.8867-65.5273Q83.8867-68.9453 82.0312-70.8496Q80.1758-72.7539 76.8066-72.7539L68.2617-72.7539Q64.8926-72.7539 63.0127-70.8496Q61.1328-68.9453 61.1328-65.5273Z"/>
   <path class="hierarchical-1:primary SFSymbolsPreview212121" d="M43.9453-27.6367Q43.9453-28.4668 44.5312-29.0527L59.668-47.2656Q60.4492-48.2422 61.4014-48.1934Q62.3535-48.1445 62.8906-47.3877Q63.4277-46.6309 62.9395-45.459L58.3008-33.3984L67.041-33.3984Q67.8223-33.3984 68.335-32.9102Q68.8477-32.4219 68.8477-31.6406Q68.8477-30.8105 68.2617-30.2734L53.1738-12.0117Q52.002-10.5957 50.6104-11.377Q49.2188-12.1582 49.8535-13.8672L54.4922-25.9277L45.8008-25.9277Q43.9453-25.9277 43.9453-27.6367Z"/>
  </g>
  <g id="Bold-S" transform="matrix(1 0 0 1 2284.41 696)">
   <path class="hierarchical-0:tertiary SFSymbolsPreview8E8E8E" d="M23.6328 1.66016L87.5 1.66016Q94.2383 1.66016 97.8027-1.9043Q101.367-5.46875 101.367-12.1094L101.367-47.8027Q101.367-54.4922 97.8027-58.0322Q94.2383-61.5723 87.5-61.5723L23.6328-61.5723Q16.9434-61.5723 13.3545-58.0322Q9.76562-54.4922 9.76562-47.8027L9.76562-12.1094Q9.76562-5.46875 13.3545-1.9043Q16.9434 1.66016 23.6328 1.66016ZM27.4902-58.9355L49.4629-58.9355L49.4629-65.6738Q49.4629-68.7012 47.8027-70.3857Q46.1426-72.0703 43.1641-72.0703L33.8379-72.0703Q30.8105-72.0703 29.1504-70.3857Q27.4902-68.7012 27.4902-65.6738ZM61.6211-58.9355L83.5938-58.9355L83.5938-65.6738Q83.5938-68.7012 81.9336-70.3857Q80.2734-72.0703 77.2949-72.0703L67.9199-72.0703Q64.9414-72.0703 63.2812-70.3857Q61.6211-68.7012 61.6211-65.6738Z"/>
   <path class="hierarchical-1:primary SFSymbolsPreview212121" d="M43.457-27.6855Q43.457-28.4668 43.9941-29.0527L59.3262-47.7539Q60.0586-48.6816 60.9375-48.6328Q61.8164-48.584 62.3291-47.876Q62.8418-47.168 62.4023-46.0449L57.5684-33.3984L66.6504-33.3984Q67.334-33.3984 67.8223-32.9346Q68.3105-32.4707 68.3105-31.7871Q68.3105-31.0059 67.7734-30.4688L52.4902-11.7188Q51.3672-10.4004 50.0488-11.1084Q48.7305-11.8164 49.3652-13.4766L54.1992-26.0742L45.166-26.0742Q43.457-26.0742 43.457-27.6855Z"/>
  </g>
  <g id="Semibold-S" transform="matrix(1 0 0 1 1987.9 696)">
   <path class="hierarchical-0:tertiary SFSymbolsPreview8E8E8E" d="M23.0957 1.2207L87.6465 1.2207Q94.2383 1.2207 97.6074-2.17285Q100.977-5.56641 100.977-12.0605L100.977-48.1445Q100.977-54.6387 97.6074-58.0078Q94.2383-61.377 87.6465-61.377L23.0957-61.377Q16.6016-61.377 13.1836-58.0078Q9.76562-54.6387 9.76562-48.1445L9.76562-12.0605Q9.76562-5.56641 13.1836-2.17285Q16.6016 1.2207 23.0957 1.2207ZM27.3438-58.4961L48.7793-58.4961L48.7793-65.7227Q48.7793-68.5059 47.2656-70.0684Q45.752-71.6309 42.9688-71.6309L33.1055-71.6309Q30.3711-71.6309 28.8574-70.0684Q27.3438-68.5059 27.3438-65.7227ZM61.9141-58.4961L83.3496-58.4961L83.3496-65.7227Q83.3496-68.5059 81.8359-70.0684Q80.3223-71.6309 77.5879-71.6309L67.6758-71.6309Q64.9414-71.6309 63.4277-70.0684Q61.9141-68.5059 61.9141-65.7227Z"/>
   <path class="hierarchical-1:primary SFSymbolsPreview212121" d="M43.0664-27.6855Q43.0664-28.418 43.6035-29.0039L59.0332-48.0469Q59.7656-48.9258 60.5957-48.9014Q61.4258-48.877 61.9141-48.1934Q62.4023-47.5098 61.9629-46.4355L57.0312-33.3984L66.3086-33.3984Q66.9922-33.3984 67.4561-32.959Q67.9199-32.5195 67.9199-31.8359Q67.9199-31.1035 67.3828-30.5664L52.002-11.5234Q50.9277-10.2051 49.6582-10.8887Q48.3887-11.5723 49.0234-13.1348L53.9551-26.1719L44.6777-26.1719Q43.0664-26.1719 43.0664-27.6855Z"/>
  </g>
  <g id="Medium-S" transform="matrix(1 0 0 1 1691.33 696)">
   <path class="hierarchical-0:tertiary SFSymbolsPreview8E8E8E" d="M22.7051 0.830078L87.7441 0.830078Q94.1895 0.830078 97.4365-2.41699Q100.684-5.66406 100.684-11.9629L100.684-48.3887Q100.684-54.7363 97.4365-57.9834Q94.1895-61.2305 87.7441-61.2305L22.7051-61.2305Q16.3574-61.2305 13.0615-57.9834Q9.76562-54.7363 9.76562-48.3887L9.76562-11.9629Q9.76562-5.66406 13.0615-2.41699Q16.3574 0.830078 22.7051 0.830078ZM27.1973-58.1543L48.2422-58.1543L48.2422-65.7715Q48.2422-68.3594 46.8262-69.7998Q45.4102-71.2402 42.8711-71.2402L32.5684-71.2402Q30.0293-71.2402 28.6133-69.7998Q27.1973-68.3594 27.1973-65.7715ZM62.1582-58.1543L83.1543-58.1543L83.1543-65.7715Q83.1543-68.3594 81.7871-69.7998Q80.4199-71.2402 77.832-71.2402L67.5293-71.2402Q64.9414-71.2402 63.5498-69.7998Q62.1582-68.3594 62.1582-65.7715Z"/>
   <path class="hierarchical-1:primary SFSymbolsPreview212121" d="M42.7734-27.7344Q42.7734-28.418 43.3594-29.0039L58.8379-48.291Q59.5703-49.1211 60.376-49.0967Q61.1816-49.0723 61.6211-48.4375Q62.0605-47.8027 61.6699-46.7285L56.6406-33.3984L66.1133-33.3984Q66.748-33.3984 67.2119-32.959Q67.6758-32.5195 67.6758-31.8848Q67.6758-31.2012 67.0898-30.6641L51.6602-11.3281Q50.6348-10.1074 49.3896-10.7422Q48.1445-11.377 48.7793-12.9395L53.7598-26.2695L44.3359-26.2695Q42.7734-26.2695 42.7734-27.7344Z"/>
  </g>
  <g id="Regular-S" transform="matrix(1 0 0 1 1394.79 696)">
   <path class="hierarchical-0:tertiary SFSymbolsPreview8E8E8E" d="M22.2168 0.390625L87.8906 0.390625Q94.1895 0.390625 97.2656-2.68555Q100.342-5.76172 100.342-11.9141L100.342-48.7305Q100.342-54.8828 97.2656-57.959Q94.1895-61.0352 87.8906-61.0352L22.2168-61.0352Q16.0156-61.0352 12.8906-57.959Q9.76562-54.8828 9.76562-48.7305L9.76562-11.9141Q9.76562-5.76172 12.8906-2.68555Q16.0156 0.390625 22.2168 0.390625ZM27.0508-57.7148L47.5586-57.7148L47.5586-65.8691Q47.5586-68.1641 46.2891-69.4824Q45.0195-70.8008 42.7246-70.8008L31.8848-70.8008Q29.5898-70.8008 28.3203-69.4824Q27.0508-68.1641 27.0508-65.8691ZM62.4512-57.7148L82.959-57.7148L82.959-65.8691Q82.959-68.1641 81.7139-69.4824Q80.4688-70.8008 78.1738-70.8008L67.2852-70.8008Q64.9902-70.8008 63.7207-69.4824Q62.4512-68.1641 62.4512-65.8691Z"/>
   <path class="hierarchical-1:primary SFSymbolsPreview212121" d="M42.4316-27.7344Q42.4316-28.3691 42.9688-28.9551L58.5938-48.584Q59.2773-49.4141 60.0342-49.3896Q60.791-49.3652 61.2305-48.7549Q61.6699-48.1445 61.2793-47.1191L56.1523-33.3984L65.8203-33.3984Q66.4062-33.3984 66.8457-32.9834Q67.2852-32.5684 67.2852-31.9824Q67.2852-31.2988 66.748-30.8105L51.1719-11.1328Q50.1953-9.96094 49.0234-10.5469Q47.8516-11.1328 48.4375-12.6465L53.5645-26.3672L43.8965-26.3672Q42.4316-26.3672 42.4316-27.7344Z"/>
  </g>
  <g id="Light-S" transform="matrix(1 0 0 1 1098.42 696)">
   <path class="hierarchical-0:tertiary SFSymbolsPreview8E8E8E" d="M21.3867-0.244141L87.9883-0.244141Q93.8477-0.244141 96.7529-3.17383Q99.6582-6.10352 99.6582-11.8164L99.6582-48.8281Q99.6582-54.541 96.7529-57.4463Q93.8477-60.3516 87.9883-60.3516L21.3867-60.3516Q15.625-60.3516 12.6953-57.4463Q9.76562-54.541 9.76562-48.8281L9.76562-11.8164Q9.76562-6.05469 12.6953-3.14941Q15.625-0.244141 21.3867-0.244141ZM26.2695-57.8125L46.7773-57.8125L46.7773-65.625Q46.7773-67.7246 45.6055-68.9209Q44.4336-70.1172 42.2852-70.1172L30.7129-70.1172Q28.5645-70.1172 27.417-68.9209Q26.2695-67.7246 26.2695-65.625ZM62.5977-57.8125L83.1055-57.8125L83.1055-65.625Q83.1055-67.7246 81.958-68.9209Q80.8105-70.1172 78.6621-70.1172L67.041-70.1172Q64.8926-70.1172 63.7451-68.9209Q62.5977-67.7246 62.5977-65.625Z"/>
   <path class="hierarchical-1:primary SFSymbolsPreview212121" d="M42.2852-27.5879Q42.2852-28.125 42.7734-28.7109L58.6914-48.6816Q59.2773-49.4141 59.9365-49.3896Q60.5957-49.3652 60.9619-48.8281Q61.3281-48.291 61.0352-47.4121L55.7129-33.3008L65.625-33.3008Q66.1133-33.3008 66.4795-32.9346Q66.8457-32.5684 66.8457-32.0801Q66.8457-31.543 66.3574-31.0059L50.4883-10.9863Q49.6094-9.96094 48.6084-10.4736Q47.6074-10.9863 48.1445-12.3047L53.418-26.4648L43.5547-26.4648Q42.2852-26.4648 42.2852-27.5879Z"/>
  </g>
  <g id="Thin-S" transform="matrix(1 0 0 1 802.174 696)">
   <path class="hierarchical-0:tertiary SFSymbolsPreview8E8E8E" d="M20.3125-1.12305L88.1836-1.12305Q93.4082-1.12305 96.0693-3.80859Q98.7305-6.49414 98.7305-11.6211L98.7305-48.9258Q98.7305-54.0527 96.0693-56.7627Q93.4082-59.4727 88.1836-59.4727L20.3125-59.4727Q15.0879-59.4727 12.4268-56.8115Q9.76562-54.1504 9.76562-48.9258L9.76562-11.6211Q9.76562-6.44531 12.4268-3.78418Q15.0879-1.12305 20.3125-1.12305ZM25.1953-57.9102L45.7031-57.9102L45.7031-65.332Q45.7031-67.1387 44.7021-68.1885Q43.7012-69.2383 41.6992-69.2383L29.1504-69.2383Q27.1973-69.2383 26.1963-68.1885Q25.1953-67.1387 25.1953-65.332ZM62.7441-57.9102L83.252-57.9102L83.252-65.332Q83.252-67.1387 82.2754-68.1885Q81.2988-69.2383 79.3457-69.2383L66.748-69.2383Q64.7949-69.2383 63.7695-68.1885Q62.7441-67.1387 62.7441-65.332Z"/>
   <path class="hierarchical-1:primary SFSymbolsPreview212121" d="M42.1387-27.4414Q42.1387-27.832 42.5293-28.3691L58.7891-48.8281Q59.2773-49.4141 59.8145-49.4141Q60.3516-49.4141 60.6445-48.9746Q60.9375-48.5352 60.6934-47.8027L55.1758-33.1055L65.332-33.1055Q65.7227-33.1055 65.9912-32.8613Q66.2598-32.6172 66.2598-32.2266Q66.2598-31.8848 65.8203-31.2988L49.5605-10.8398Q48.877-9.96094 48.0713-10.376Q47.2656-10.791 47.7539-11.8164L53.2227-26.5625L43.0664-26.5625Q42.1387-26.5625 42.1387-27.4414Z"/>
  </g>
  <g id="Ultralight-S" transform="matrix(1 0 0 1 505.707 696)">
   <path class="hierarchical-0:tertiary SFSymbolsPreview8E8E8E" d="M19.7754-1.5625L88.2324-1.5625Q93.2129-1.5625 95.7275-4.15039Q98.2422-6.73828 98.2422-11.5723L98.2422-49.0234Q98.2422-53.8574 95.7275-56.4209Q93.2129-58.9844 88.2324-58.9844L19.7754-58.9844Q14.8438-58.9844 12.3047-56.4453Q9.76562-53.9062 9.76562-49.0234L9.76562-11.5723Q9.76562-6.64062 12.3047-4.10156Q14.8438-1.5625 19.7754-1.5625ZM24.6582-57.959L45.166-57.959L45.166-65.1855Q45.166-66.8457 44.2383-67.7979Q43.3105-68.75 41.4062-68.75L28.3203-68.75Q26.5137-68.75 25.5859-67.7979Q24.6582-66.8457 24.6582-65.1855ZM62.8418-57.959L83.3496-57.959L83.3496-65.1855Q83.3496-66.8457 82.4219-67.7979Q81.4941-68.75 79.6875-68.75L66.6016-68.75Q64.6973-68.75 63.7695-67.7979Q62.8418-66.8457 62.8418-65.1855Z"/>
   <path class="hierarchical-1:primary SFSymbolsPreview212121" d="M42.041-27.3438Q42.041-27.6855 42.3828-28.1738L58.8867-48.9258Q59.2773-49.4141 59.7412-49.4141Q60.2051-49.4141 60.4492-49.0234Q60.6934-48.6328 60.498-48.0469L54.8828-33.0566L65.1855-33.0566Q65.4785-33.0566 65.7227-32.8369Q65.9668-32.6172 65.9668-32.3242Q65.9668-32.0312 65.5762-31.4453L49.0723-10.7422Q48.4863-9.96094 47.8027-10.3271Q47.1191-10.6934 47.5098-11.5723L53.125-26.6602L42.8223-26.6602Q42.041-26.6602 42.041-27.3438Z"/>
  </g>
 </g>
</svg>
