<?xml version="1.0" encoding="UTF-8"?>
<!--Generator: Apple Native CoreSVG 175-->
<!DOCTYPE svg
PUBLIC "-//W3C//DTD SVG 1.1//EN"
       "http://www.w3.org/Graphics/SVG/1.1/DTD/svg11.dtd">
<svg version="1.1" xmlns="http://www.w3.org/2000/svg" xmlns:xlink="http://www.w3.org/1999/xlink" width="3300" height="2200">
 <!--glyph: "uni101036.medium", point size: 100.0, font version: "17.0d11e1", template writer version: "65.1"-->
 <style>.hierarchical-0:secondary {fill:#4D4D4D}
.hierarchical-1:primary {fill:#212121}

.SFSymbolsPreview212121 {fill:#212121;opacity:1.0}
.SFSymbolsPreview4D4D4D {fill:#4D4D4D;opacity:1.0}
</style>
 <g id="Notes">
  <rect height="2200" id="artboard" style="fill:white;opacity:1" width="3300" x="0" y="0"/>
  <line style="fill:none;stroke:black;opacity:1;stroke-width:0.5;" x1="263" x2="3036" y1="292" y2="292"/>
  <text style="stroke:none;fill:black;font-family:sans-serif;font-size:13;font-weight:bold;" transform="matrix(1 0 0 1 263 322)">Weight/Scale Variations</text>
  <text style="stroke:none;fill:black;font-family:sans-serif;font-size:13;text-anchor:middle;" transform="matrix(1 0 0 1 559.711 322)">Ultralight</text>
  <text style="stroke:none;fill:black;font-family:sans-serif;font-size:13;text-anchor:middle;" transform="matrix(1 0 0 1 856.422 322)">Thin</text>
  <text style="stroke:none;fill:black;font-family:sans-serif;font-size:13;text-anchor:middle;" transform="matrix(1 0 0 1 1153.13 322)">Light</text>
  <text style="stroke:none;fill:black;font-family:sans-serif;font-size:13;text-anchor:middle;" transform="matrix(1 0 0 1 1449.84 322)">Regular</text>
  <text style="stroke:none;fill:black;font-family:sans-serif;font-size:13;text-anchor:middle;" transform="matrix(1 0 0 1 1746.56 322)">Medium</text>
  <text style="stroke:none;fill:black;font-family:sans-serif;font-size:13;text-anchor:middle;" transform="matrix(1 0 0 1 2043.27 322)">Semibold</text>
  <text style="stroke:none;fill:black;font-family:sans-serif;font-size:13;text-anchor:middle;" transform="matrix(1 0 0 1 2339.98 322)">Bold</text>
  <text style="stroke:none;fill:black;font-family:sans-serif;font-size:13;text-anchor:middle;" transform="matrix(1 0 0 1 2636.69 322)">Heavy</text>
  <text style="stroke:none;fill:black;font-family:sans-serif;font-size:13;text-anchor:middle;" transform="matrix(1 0 0 1 2933.4 322)">Black</text>
  <line style="fill:none;stroke:black;opacity:1;stroke-width:0.5;" x1="263" x2="3036" y1="1903" y2="1903"/>
  <g transform="matrix(1 0 0 1 263 1933)">
   <path d="M9.24805 0.830078Q10.8691 0.830078 12.2949 0.214844Q13.7207-0.400391 14.8096-1.49414Q15.8984-2.58789 16.5186-4.01367Q17.1387-5.43945 17.1387-7.05078Q17.1387-8.66211 16.5186-10.0879Q15.8984-11.5137 14.8047-12.6074Q13.7109-13.7012 12.2852-14.3164Q10.8594-14.9316 9.23828-14.9316Q7.62695-14.9316 6.20117-14.3164Q4.77539-13.7012 3.69141-12.6074Q2.60742-11.5137 1.9873-10.0879Q1.36719-8.66211 1.36719-7.05078Q1.36719-5.43945 1.9873-4.01367Q2.60742-2.58789 3.69629-1.49414Q4.78516-0.400391 6.21094 0.214844Q7.63672 0.830078 9.24805 0.830078ZM9.24805-0.654297Q7.91992-0.654297 6.7627-1.14746Q5.60547-1.64062 4.73145-2.51953Q3.85742-3.39844 3.36426-4.56055Q2.87109-5.72266 2.87109-7.05078Q2.87109-8.37891 3.35938-9.54102Q3.84766-10.7031 4.72168-11.582Q5.5957-12.4609 6.75293-12.9541Q7.91016-13.4473 9.23828-13.4473Q10.5762-13.4473 11.7334-12.9541Q12.8906-12.4609 13.7695-11.582Q14.6484-10.7031 15.1465-9.54102Q15.6445-8.37891 15.6445-7.05078Q15.6445-5.72266 15.1514-4.56055Q14.6582-3.39844 13.7842-2.51953Q12.9102-1.64062 11.748-1.14746Q10.5859-0.654297 9.24805-0.654297ZM5.6543-7.05078Q5.6543-6.72852 5.85938-6.52832Q6.06445-6.32812 6.40625-6.32812L8.51562-6.32812L8.51562-4.20898Q8.51562-3.88672 8.71094-3.67676Q8.90625-3.4668 9.23828-3.4668Q9.56055-3.4668 9.77051-3.67676Q9.98047-3.88672 9.98047-4.20898L9.98047-6.32812L12.0898-6.32812Q12.4219-6.32812 12.627-6.52832Q12.832-6.72852 12.832-7.05078Q12.832-7.38281 12.627-7.58789Q12.4219-7.79297 12.0898-7.79297L9.98047-7.79297L9.98047-9.90234Q9.98047-10.2344 9.77051-10.4443Q9.56055-10.6543 9.23828-10.6543Q8.90625-10.6543 8.71094-10.4443Q8.51562-10.2344 8.51562-9.90234L8.51562-7.79297L6.40625-7.79297Q6.06445-7.79297 5.85938-7.58789Q5.6543-7.38281 5.6543-7.05078Z"/>
  </g>
  <g transform="matrix(1 0 0 1 281.867 1933)">
   <path d="M11.709 2.91016Q13.75 2.91016 15.5518 2.12891Q17.3535 1.34766 18.7305-0.0292969Q20.1074-1.40625 20.8887-3.20801Q21.6699-5.00977 21.6699-7.05078Q21.6699-9.0918 20.8887-10.8936Q20.1074-12.6953 18.7305-14.0723Q17.3535-15.4492 15.5469-16.2305Q13.7402-17.0117 11.6992-17.0117Q9.6582-17.0117 7.85645-16.2305Q6.05469-15.4492 4.68262-14.0723Q3.31055-12.6953 2.5293-10.8936Q1.74805-9.0918 1.74805-7.05078Q1.74805-5.00977 2.5293-3.20801Q3.31055-1.40625 4.6875-0.0292969Q6.06445 1.34766 7.86621 2.12891Q9.66797 2.91016 11.709 2.91016ZM11.709 1.25Q9.98047 1.25 8.47656 0.605469Q6.97266-0.0390625 5.83496-1.17676Q4.69727-2.31445 4.05762-3.81836Q3.41797-5.32227 3.41797-7.05078Q3.41797-8.7793 4.05762-10.2832Q4.69727-11.7871 5.83008-12.9297Q6.96289-14.0723 8.4668-14.7119Q9.9707-15.3516 11.6992-15.3516Q13.4277-15.3516 14.9316-14.7119Q16.4355-14.0723 17.5781-12.9297Q18.7207-11.7871 19.3652-10.2832Q20.0098-8.7793 20.0098-7.05078Q20.0098-5.32227 19.3701-3.81836Q18.7305-2.31445 17.5928-1.17676Q16.4551-0.0390625 14.9463 0.605469Q13.4375 1.25 11.709 1.25ZM7.17773-7.05078Q7.17773-6.69922 7.41211-6.47461Q7.64648-6.25 8.01758-6.25L10.8887-6.25L10.8887-3.36914Q10.8887-2.99805 11.1133-2.76855Q11.3379-2.53906 11.6895-2.53906Q12.0605-2.53906 12.29-2.76855Q12.5195-2.99805 12.5195-3.36914L12.5195-6.25L15.4004-6.25Q15.7715-6.25 16.001-6.47461Q16.2305-6.69922 16.2305-7.05078Q16.2305-7.42188 16.001-7.65137Q15.7715-7.88086 15.4004-7.88086L12.5195-7.88086L12.5195-10.752Q12.5195-11.1328 12.29-11.3623Q12.0605-11.5918 11.6895-11.5918Q11.3379-11.5918 11.1133-11.3574Q10.8887-11.123 10.8887-10.752L10.8887-7.88086L8.01758-7.88086Q7.63672-7.88086 7.40723-7.65137Q7.17773-7.42188 7.17773-7.05078Z"/>
  </g>
  <g transform="matrix(1 0 0 1 305.646 1933)">
   <path d="M14.9707 5.66406Q17.0605 5.66406 18.96 5.01465Q20.8594 4.36523 22.4512 3.19336Q24.043 2.02148 25.2197 0.429688Q26.3965-1.16211 27.0459-3.06641Q27.6953-4.9707 27.6953-7.05078Q27.6953-9.14062 27.0459-11.04Q26.3965-12.9395 25.2197-14.5312Q24.043-16.123 22.4512-17.2998Q20.8594-18.4766 18.9551-19.126Q17.0508-19.7754 14.9609-19.7754Q12.8711-19.7754 10.9717-19.126Q9.07227-18.4766 7.48535-17.2998Q5.89844-16.123 4.72168-14.5312Q3.54492-12.9395 2.90039-11.04Q2.25586-9.14062 2.25586-7.05078Q2.25586-4.9707 2.90527-3.06641Q3.55469-1.16211 4.72656 0.429688Q5.89844 2.02148 7.49023 3.19336Q9.08203 4.36523 10.9814 5.01465Q12.8809 5.66406 14.9707 5.66406ZM14.9707 3.84766Q13.1641 3.84766 11.5283 3.2959Q9.89258 2.74414 8.53516 1.74805Q7.17773 0.751953 6.17676-0.610352Q5.17578-1.97266 4.62891-3.6084Q4.08203-5.24414 4.08203-7.05078Q4.08203-8.86719 4.62891-10.5029Q5.17578-12.1387 6.17188-13.501Q7.16797-14.8633 8.52539-15.8594Q9.88281-16.8555 11.5186-17.4023Q13.1543-17.9492 14.9609-17.9492Q16.7773-17.9492 18.4131-17.4023Q20.0488-16.8555 21.4111-15.8594Q22.7734-14.8633 23.7695-13.501Q24.7656-12.1387 25.3174-10.5029Q25.8691-8.86719 25.8691-7.05078Q25.8789-5.24414 25.332-3.6084Q24.7852-1.97266 23.7842-0.610352Q22.7832 0.751953 21.4209 1.74805Q20.0586 2.74414 18.4229 3.2959Q16.7871 3.84766 14.9707 3.84766ZM9.19922-7.05078Q9.19922-6.66992 9.45801-6.4209Q9.7168-6.17188 10.1172-6.17188L14.0625-6.17188L14.0625-2.2168Q14.0625-1.81641 14.3115-1.55762Q14.5605-1.29883 14.9512-1.29883Q15.3516-1.29883 15.6104-1.55273Q15.8691-1.80664 15.8691-2.2168L15.8691-6.17188L19.8242-6.17188Q20.2246-6.17188 20.4785-6.4209Q20.7324-6.66992 20.7324-7.05078Q20.7324-7.46094 20.4785-7.71484Q20.2246-7.96875 19.8242-7.96875L15.8691-7.96875L15.8691-11.9141Q15.8691-12.3242 15.6104-12.583Q15.3516-12.8418 14.9512-12.8418Q14.5605-12.8418 14.3115-12.583Q14.0625-12.3242 14.0625-11.9141L14.0625-7.96875L10.1172-7.96875Q9.70703-7.96875 9.45312-7.71484Q9.19922-7.46094 9.19922-7.05078Z"/>
  </g>
  <text style="stroke:none;fill:black;font-family:sans-serif;font-size:13;font-weight:bold;" transform="matrix(1 0 0 1 263 1953)">Design Variations</text>
  <text style="stroke:none;fill:black;font-family:sans-serif;font-size:13;" transform="matrix(1 0 0 1 263 1971)">Symbols are supported in up to nine weights and three scales.</text>
  <text style="stroke:none;fill:black;font-family:sans-serif;font-size:13;" transform="matrix(1 0 0 1 263 1989)">For optimal layout with text and other symbols, vertically align</text>
  <text style="stroke:none;fill:black;font-family:sans-serif;font-size:13;" transform="matrix(1 0 0 1 263 2007)">symbols with the adjacent text.</text>
  <line style="fill:none;stroke:#00AEEF;stroke-width:0.5;opacity:1.0;" x1="776" x2="776" y1="1919" y2="1933"/>
  <g transform="matrix(1 0 0 1 776 1933)">
   <path d="M3.31055 0.15625Q3.70117 0.15625 3.91602-0.00976562Q4.13086-0.175781 4.26758-0.585938L5.52734-4.0332L11.2891-4.0332L12.5488-0.585938Q12.6855-0.175781 12.9004-0.00976562Q13.1152 0.15625 13.4961 0.15625Q13.8867 0.15625 14.1162-0.0585938Q14.3457-0.273438 14.3457-0.644531Q14.3457-0.869141 14.2383-1.17188L9.6582-13.3691Q9.48242-13.8184 9.17969-14.043Q8.87695-14.2676 8.4082-14.2676Q7.5-14.2676 7.17773-13.3789L2.59766-1.16211Q2.49023-0.859375 2.49023-0.634766Q2.49023-0.263672 2.70996-0.0537109Q2.92969 0.15625 3.31055 0.15625ZM6.00586-5.51758L8.37891-12.0898L8.42773-12.0898L10.8008-5.51758Z"/>
  </g>
  <line style="fill:none;stroke:#00AEEF;stroke-width:0.5;opacity:1.0;" x1="793.197" x2="793.197" y1="1919" y2="1933"/>
  <text style="stroke:none;fill:black;font-family:sans-serif;font-size:13;font-weight:bold;" transform="matrix(1 0 0 1 776 1953)">Margins</text>
  <text style="stroke:none;fill:black;font-family:sans-serif;font-size:13;" transform="matrix(1 0 0 1 776 1971)">Leading and trailing margins on the left and right side of each symbol</text>
  <text style="stroke:none;fill:black;font-family:sans-serif;font-size:13;" transform="matrix(1 0 0 1 776 1989)">can be adjusted by modifying the x-location of the margin guidelines.</text>
  <text style="stroke:none;fill:black;font-family:sans-serif;font-size:13;" transform="matrix(1 0 0 1 776 2007)">Modifications are automatically applied proportionally to all</text>
  <text style="stroke:none;fill:black;font-family:sans-serif;font-size:13;" transform="matrix(1 0 0 1 776 2025)">scales and weights.</text>
  <g transform="matrix(1 0 0 1 1289 1933)">
   <path d="M2.8418 1.86523L4.54102 3.57422Q5.18555 4.22852 5.90332 4.17969Q6.62109 4.13086 7.31445 3.35938L18.0078-8.42773L17.041-9.4043L6.42578 2.27539Q6.16211 2.57812 5.89355 2.61719Q5.625 2.65625 5.27344 2.30469L4.10156 1.14258Q3.75 0.791016 3.79395 0.522461Q3.83789 0.253906 4.14062-0.0195312L15.6152-10.8203L14.6387-11.7871L3.04688-0.898438Q2.30469-0.214844 2.25098 0.498047Q2.19727 1.21094 2.8418 1.86523ZM9.25781-16.3281Q8.94531-16.0254 8.90625-15.6348Q8.86719-15.2441 9.04297-14.9512Q9.21875-14.6777 9.55566-14.541Q9.89258-14.4043 10.3809-14.5215Q11.4746-14.7754 12.5977-14.7314Q13.7207-14.6875 14.7949-13.9844L14.209-12.5293Q13.9551-11.9043 14.0674-11.4404Q14.1797-10.9766 14.5801-10.5664L16.875-8.25195Q17.2363-7.88086 17.5781-7.82227Q17.9199-7.76367 18.3398-7.8418L19.4043-8.03711L20.0684-7.36328L20.0293-6.80664Q20-6.43555 20.1221-6.12305Q20.2441-5.81055 20.6055-5.44922L21.3672-4.70703Q21.7285-4.3457 22.1533-4.33105Q22.5781-4.31641 22.9297-4.66797L25.8398-7.58789Q26.1914-7.93945 26.1816-8.35449Q26.1719-8.76953 25.8105-9.13086L25.0391-9.89258Q24.6875-10.2539 24.3799-10.3857Q24.0723-10.5176 23.7109-10.4883L23.1348-10.4395L22.4902-11.0742L22.7344-12.1973Q22.832-12.6172 22.6953-12.9834Q22.5586-13.3496 22.1191-13.7891L19.9219-15.9766Q18.6719-17.2168 17.2607-17.8369Q15.8496-18.457 14.4189-18.4814Q12.9883-18.5059 11.665-17.959Q10.3418-17.4121 9.25781-16.3281ZM10.752-15.957Q11.6602-16.6211 12.7002-16.9043Q13.7402-17.1875 14.8047-17.085Q15.8691-16.9824 16.8701-16.5137Q17.8711-16.0449 18.7012-15.2051L21.1328-12.793Q21.3086-12.6172 21.3525-12.4512Q21.3965-12.2852 21.3379-12.0312L21.0156-10.5469L22.5195-9.0625L23.5059-9.12109Q23.6914-9.13086 23.7891-9.09668Q23.8867-9.0625 24.0332-8.91602L24.6094-8.33984L22.168-5.89844L21.5918-6.47461Q21.4453-6.62109 21.4062-6.71875Q21.3672-6.81641 21.377-7.01172L21.4453-7.98828L19.9512-9.47266L18.4277-9.21875Q18.1836-9.16992 18.042-9.2041Q17.9004-9.23828 17.7148-9.41406L15.7129-11.416Q15.5176-11.5918 15.4932-11.7529Q15.4688-11.9141 15.5859-12.1875L16.4648-14.2773Q15.293-15.3711 13.8281-15.791Q12.3633-16.2109 10.8398-15.7617Q10.7227-15.7324 10.6885-15.8057Q10.6543-15.8789 10.752-15.957Z"/>
  </g>
  <text style="stroke:none;fill:black;font-family:sans-serif;font-size:13;font-weight:bold;" transform="matrix(1 0 0 1 1289 1953)">Exporting</text>
  <text style="stroke:none;fill:black;font-family:sans-serif;font-size:13;" transform="matrix(1 0 0 1 1289 1971)">Symbols should be outlined when exporting to ensure the</text>
  <text style="stroke:none;fill:black;font-family:sans-serif;font-size:13;" transform="matrix(1 0 0 1 1289 1989)">design is preserved when submitting to Xcode.</text>
  <text id="template-version" style="stroke:none;fill:black;font-family:sans-serif;font-size:13;text-anchor:end;" transform="matrix(1 0 0 1 3036 1933)">Template v.3.0</text>
  <text style="stroke:none;fill:black;font-family:sans-serif;font-size:13;text-anchor:end;" transform="matrix(1 0 0 1 3036 1951)">Requires Xcode 13 or greater</text>
  <text id="descriptive-name" style="stroke:none;fill:black;font-family:sans-serif;font-size:13;text-anchor:end;" transform="matrix(1 0 0 1 3036 1969)">Generated from photo.artframe</text>
  <text style="stroke:none;fill:black;font-family:sans-serif;font-size:13;text-anchor:end;" transform="matrix(1 0 0 1 3036 1987)">Typeset at 100 points</text>
  <text style="stroke:none;fill:black;font-family:sans-serif;font-size:13;" transform="matrix(1 0 0 1 263 726)">Small</text>
  <text style="stroke:none;fill:black;font-family:sans-serif;font-size:13;" transform="matrix(1 0 0 1 263 1156)">Medium</text>
  <text style="stroke:none;fill:black;font-family:sans-serif;font-size:13;" transform="matrix(1 0 0 1 263 1586)">Large</text>
 </g>
 <g id="Guides">
  <g id="H-reference" style="fill:#27AAE1;stroke:none;" transform="matrix(1 0 0 1 339 696)">
   <path d="M0.976562 0L3.66211 0L29.3457-67.1387L30.0293-67.1387L30.0293-70.459L28.125-70.459ZM11.6699-24.4629L46.9727-24.4629L46.2402-26.709L12.4512-26.709ZM55.127 0L57.7637 0L30.6152-70.459L29.4434-70.459L29.4434-67.1387Z"/>
  </g>
  <line id="Baseline-S" style="fill:none;stroke:#27AAE1;opacity:1;stroke-width:0.5;" x1="263" x2="3036" y1="696" y2="696"/>
  <line id="Capline-S" style="fill:none;stroke:#27AAE1;opacity:1;stroke-width:0.5;" x1="263" x2="3036" y1="625.541" y2="625.541"/>
  <g id="H-reference" style="fill:#27AAE1;stroke:none;" transform="matrix(1 0 0 1 339 1126)">
   <path d="M0.976562 0L3.66211 0L29.3457-67.1387L30.0293-67.1387L30.0293-70.459L28.125-70.459ZM11.6699-24.4629L46.9727-24.4629L46.2402-26.709L12.4512-26.709ZM55.127 0L57.7637 0L30.6152-70.459L29.4434-70.459L29.4434-67.1387Z"/>
  </g>
  <line id="Baseline-M" style="fill:none;stroke:#27AAE1;opacity:1;stroke-width:0.5;" x1="263" x2="3036" y1="1126" y2="1126"/>
  <line id="Capline-M" style="fill:none;stroke:#27AAE1;opacity:1;stroke-width:0.5;" x1="263" x2="3036" y1="1055.54" y2="1055.54"/>
  <g id="H-reference" style="fill:#27AAE1;stroke:none;" transform="matrix(1 0 0 1 339 1556)">
   <path d="M0.976562 0L3.66211 0L29.3457-67.1387L30.0293-67.1387L30.0293-70.459L28.125-70.459ZM11.6699-24.4629L46.9727-24.4629L46.2402-26.709L12.4512-26.709ZM55.127 0L57.7637 0L30.6152-70.459L29.4434-70.459L29.4434-67.1387Z"/>
  </g>
  <line id="Baseline-L" style="fill:none;stroke:#27AAE1;opacity:1;stroke-width:0.5;" x1="263" x2="3036" y1="1556" y2="1556"/>
  <line id="Capline-L" style="fill:none;stroke:#27AAE1;opacity:1;stroke-width:0.5;" x1="263" x2="3036" y1="1485.54" y2="1485.54"/>
  <line id="left-margin-Ultralight-S" style="fill:none;stroke:#00AEEF;stroke-width:0.5;opacity:1.0;" x1="505.707" x2="505.707" y1="600.785" y2="720.121"/>
  <line id="right-margin-Ultralight-S" style="fill:none;stroke:#00AEEF;stroke-width:0.5;opacity:1.0;" x1="613.715" x2="613.715" y1="600.785" y2="720.121"/>
  <line id="left-margin-Thin-S" style="fill:none;stroke:#00AEEF;stroke-width:0.5;opacity:1.0;" x1="802.174" x2="802.174" y1="600.785" y2="720.121"/>
  <line id="right-margin-Thin-S" style="fill:none;stroke:#00AEEF;stroke-width:0.5;opacity:1.0;" x1="910.67" x2="910.67" y1="600.785" y2="720.121"/>
  <line id="left-margin-Light-S" style="fill:none;stroke:#00AEEF;stroke-width:0.5;opacity:1.0;" x1="1098.42" x2="1098.42" y1="600.785" y2="720.121"/>
  <line id="right-margin-Light-S" style="fill:none;stroke:#00AEEF;stroke-width:0.5;opacity:1.0;" x1="1207.85" x2="1207.85" y1="600.785" y2="720.121"/>
  <line id="left-margin-Regular-S" style="fill:none;stroke:#00AEEF;stroke-width:0.5;opacity:1.0;" x1="1394.79" x2="1394.79" y1="600.785" y2="720.121"/>
  <line id="right-margin-Regular-S" style="fill:none;stroke:#00AEEF;stroke-width:0.5;opacity:1.0;" x1="1504.9" x2="1504.9" y1="600.785" y2="720.121"/>
  <line id="left-margin-Medium-S" style="fill:none;stroke:#00AEEF;stroke-width:0.5;opacity:1.0;" x1="1691.33" x2="1691.33" y1="600.785" y2="720.121"/>
  <line id="right-margin-Medium-S" style="fill:none;stroke:#00AEEF;stroke-width:0.5;opacity:1.0;" x1="1801.78" x2="1801.78" y1="600.785" y2="720.121"/>
  <line id="left-margin-Semibold-S" style="fill:none;stroke:#00AEEF;stroke-width:0.5;opacity:1.0;" x1="1987.9" x2="1987.9" y1="600.785" y2="720.121"/>
  <line id="right-margin-Semibold-S" style="fill:none;stroke:#00AEEF;stroke-width:0.5;opacity:1.0;" x1="2098.64" x2="2098.64" y1="600.785" y2="720.121"/>
  <line id="left-margin-Bold-S" style="fill:none;stroke:#00AEEF;stroke-width:0.5;opacity:1.0;" x1="2284.41" x2="2284.41" y1="600.785" y2="720.121"/>
  <line id="right-margin-Bold-S" style="fill:none;stroke:#00AEEF;stroke-width:0.5;opacity:1.0;" x1="2395.54" x2="2395.54" y1="600.785" y2="720.121"/>
  <line id="left-margin-Heavy-S" style="fill:none;stroke:#00AEEF;stroke-width:0.5;opacity:1.0;" x1="2580.88" x2="2580.88" y1="600.785" y2="720.121"/>
  <line id="right-margin-Heavy-S" style="fill:none;stroke:#00AEEF;stroke-width:0.5;opacity:1.0;" x1="2692.5" x2="2692.5" y1="600.785" y2="720.121"/>
  <line id="left-margin-Black-S" style="fill:none;stroke:#00AEEF;stroke-width:0.5;opacity:1.0;" x1="2877.35" x2="2877.35" y1="600.785" y2="720.121"/>
  <line id="right-margin-Black-S" style="fill:none;stroke:#00AEEF;stroke-width:0.5;opacity:1.0;" x1="2989.45" x2="2989.45" y1="600.785" y2="720.121"/>
  <line id="left-margin-Ultralight-M" style="fill:none;stroke:#00AEEF;stroke-width:0.5;opacity:1.0;" x1="490.863" x2="490.863" y1="1030.79" y2="1150.12"/>
  <line id="right-margin-Ultralight-M" style="fill:none;stroke:#00AEEF;stroke-width:0.5;opacity:1.0;" x1="628.559" x2="628.559" y1="1030.79" y2="1150.12"/>
  <line id="left-margin-Thin-M" style="fill:none;stroke:#00AEEF;stroke-width:0.5;opacity:1.0;" x1="787.306" x2="787.306" y1="1030.79" y2="1150.12"/>
  <line id="right-margin-Thin-M" style="fill:none;stroke:#00AEEF;stroke-width:0.5;opacity:1.0;" x1="925.538" x2="925.538" y1="1030.79" y2="1150.12"/>
  <line id="left-margin-Light-M" style="fill:none;stroke:#00AEEF;stroke-width:0.5;opacity:1.0;" x1="1083.5" x2="1083.5" y1="1030.79" y2="1150.12"/>
  <line id="right-margin-Light-M" style="fill:none;stroke:#00AEEF;stroke-width:0.5;opacity:1.0;" x1="1222.76" x2="1222.76" y1="1030.79" y2="1150.12"/>
  <line id="left-margin-Regular-M" style="fill:none;stroke:#00AEEF;stroke-width:0.5;opacity:1.0;" x1="1379.82" x2="1379.82" y1="1030.79" y2="1150.12"/>
  <line id="right-margin-Regular-M" style="fill:none;stroke:#00AEEF;stroke-width:0.5;opacity:1.0;" x1="1519.86" x2="1519.86" y1="1030.79" y2="1150.12"/>
  <line id="left-margin-Medium-M" style="fill:none;stroke:#00AEEF;stroke-width:0.5;opacity:1.0;" x1="1676.29" x2="1676.29" y1="1030.79" y2="1150.12"/>
  <line id="right-margin-Medium-M" style="fill:none;stroke:#00AEEF;stroke-width:0.5;opacity:1.0;" x1="1816.82" x2="1816.82" y1="1030.79" y2="1150.12"/>
  <line id="left-margin-Semibold-M" style="fill:none;stroke:#00AEEF;stroke-width:0.5;opacity:1.0;" x1="1972.81" x2="1972.81" y1="1030.79" y2="1150.12"/>
  <line id="right-margin-Semibold-M" style="fill:none;stroke:#00AEEF;stroke-width:0.5;opacity:1.0;" x1="2113.73" x2="2113.73" y1="1030.79" y2="1150.12"/>
  <line id="left-margin-Bold-M" style="fill:none;stroke:#00AEEF;stroke-width:0.5;opacity:1.0;" x1="2269.25" x2="2269.25" y1="1030.79" y2="1150.12"/>
  <line id="right-margin-Bold-M" style="fill:none;stroke:#00AEEF;stroke-width:0.5;opacity:1.0;" x1="2410.71" x2="2410.71" y1="1030.79" y2="1150.12"/>
  <line id="left-margin-Heavy-M" style="fill:none;stroke:#00AEEF;stroke-width:0.5;opacity:1.0;" x1="2565.6" x2="2565.6" y1="1030.79" y2="1150.12"/>
  <line id="right-margin-Heavy-M" style="fill:none;stroke:#00AEEF;stroke-width:0.5;opacity:1.0;" x1="2707.78" x2="2707.78" y1="1030.79" y2="1150.12"/>
  <line id="left-margin-Black-M" style="fill:none;stroke:#00AEEF;stroke-width:0.5;opacity:1.0;" x1="2861.96" x2="2861.96" y1="1030.79" y2="1150.12"/>
  <line id="right-margin-Black-M" style="fill:none;stroke:#00AEEF;stroke-width:0.5;opacity:1.0;" x1="3004.84" x2="3004.84" y1="1030.79" y2="1150.12"/>
  <line id="left-margin-Ultralight-L" style="fill:none;stroke:#00AEEF;stroke-width:0.5;opacity:1.0;" x1="471.015" x2="471.015" y1="1460.79" y2="1580.12"/>
  <line id="right-margin-Ultralight-L" style="fill:none;stroke:#00AEEF;stroke-width:0.5;opacity:1.0;" x1="648.407" x2="648.407" y1="1460.79" y2="1580.12"/>
  <line id="left-margin-Thin-L" style="fill:none;stroke:#00AEEF;stroke-width:0.5;opacity:1.0;" x1="767.409" x2="767.409" y1="1460.79" y2="1580.12"/>
  <line id="right-margin-Thin-L" style="fill:none;stroke:#00AEEF;stroke-width:0.5;opacity:1.0;" x1="945.436" x2="945.436" y1="1460.79" y2="1580.12"/>
  <line id="left-margin-Light-L" style="fill:none;stroke:#00AEEF;stroke-width:0.5;opacity:1.0;" x1="1063.53" x2="1063.53" y1="1460.79" y2="1580.12"/>
  <line id="right-margin-Light-L" style="fill:none;stroke:#00AEEF;stroke-width:0.5;opacity:1.0;" x1="1242.73" x2="1242.73" y1="1460.79" y2="1580.12"/>
  <line id="left-margin-Regular-L" style="fill:none;stroke:#00AEEF;stroke-width:0.5;opacity:1.0;" x1="1359.81" x2="1359.81" y1="1460.79" y2="1580.12"/>
  <line id="right-margin-Regular-L" style="fill:none;stroke:#00AEEF;stroke-width:0.5;opacity:1.0;" x1="1539.88" x2="1539.88" y1="1460.79" y2="1580.12"/>
  <line id="left-margin-Medium-L" style="fill:none;stroke:#00AEEF;stroke-width:0.5;opacity:1.0;" x1="1656.17" x2="1656.17" y1="1460.79" y2="1580.12"/>
  <line id="right-margin-Medium-L" style="fill:none;stroke:#00AEEF;stroke-width:0.5;opacity:1.0;" x1="1836.94" x2="1836.94" y1="1460.79" y2="1580.12"/>
  <line id="left-margin-Semibold-L" style="fill:none;stroke:#00AEEF;stroke-width:0.5;opacity:1.0;" x1="1952.64" x2="1952.64" y1="1460.79" y2="1580.12"/>
  <line id="right-margin-Semibold-L" style="fill:none;stroke:#00AEEF;stroke-width:0.5;opacity:1.0;" x1="2133.89" x2="2133.89" y1="1460.79" y2="1580.12"/>
  <line id="left-margin-Bold-L" style="fill:none;stroke:#00AEEF;stroke-width:0.5;opacity:1.0;" x1="2249.01" x2="2249.01" y1="1460.79" y2="1580.12"/>
  <line id="right-margin-Bold-L" style="fill:none;stroke:#00AEEF;stroke-width:0.5;opacity:1.0;" x1="2430.94" x2="2430.94" y1="1460.79" y2="1580.12"/>
  <line id="left-margin-Heavy-L" style="fill:none;stroke:#00AEEF;stroke-width:0.5;opacity:1.0;" x1="2545.23" x2="2545.23" y1="1460.79" y2="1580.12"/>
  <line id="right-margin-Heavy-L" style="fill:none;stroke:#00AEEF;stroke-width:0.5;opacity:1.0;" x1="2728.14" x2="2728.14" y1="1460.79" y2="1580.12"/>
  <line id="left-margin-Black-L" style="fill:none;stroke:#00AEEF;stroke-width:0.5;opacity:1.0;" x1="2841.51" x2="2841.51" y1="1460.79" y2="1580.12"/>
  <line id="right-margin-Black-L" style="fill:none;stroke:#00AEEF;stroke-width:0.5;opacity:1.0;" x1="3025.29" x2="3025.29" y1="1460.79" y2="1580.12"/>
 </g>
 <g id="Symbols">
  <g id="Black-L" transform="matrix(1 0 0 1 2841.51 1556)">
   <path class="hierarchical-0:secondary SFSymbolsPreview4D4D4D" d="M42.8223-72.5586Q40.3809-72.5586 40.3809-70.2637L40.3809-0.0976562Q40.3809 2.19727 42.8223 2.19727L140.918 2.19727Q143.359 2.19727 143.359-0.0976562L143.359-70.2637Q143.359-72.5586 140.918-72.5586ZM49.3652-64.6973L134.424-64.6973Q135.449-64.6973 135.449-63.6719L135.449-6.73828Q135.449-5.71289 134.424-5.71289L49.3652-5.71289Q48.3398-5.71289 48.3398-6.73828L48.3398-63.6719Q48.3398-64.6973 49.3652-64.6973ZM138.672-12.5L113.184-36.2305Q111.816-37.5 110.156-38.1592Q108.496-38.8184 106.836-38.8184Q105.078-38.8184 103.467-38.208Q101.855-37.5977 100.391-36.2793L80.9082-18.8477L73.0469-25.9277Q71.6797-27.1973 70.1416-27.7588Q68.6035-28.3203 67.0898-28.3203Q65.5273-28.3203 64.2334-27.71Q62.9395-27.0996 61.5723-25.9766L45.6055-12.1094L45.6055-3.75977Q45.6055-1.41602 46.7529-0.463867Q47.9004 0.488281 49.8047 0.488281L134.473 0.488281Q136.377 0.488281 137.524-0.463867Q138.672-1.41602 138.672-3.75977ZM76.9043-33.9355Q79.8828-33.9355 82.373-35.4492Q84.8633-36.9629 86.377-39.4775Q87.8906-41.9922 87.8906-45.0195Q87.8906-47.998 86.377-50.4883Q84.8633-52.9785 82.373-54.4678Q79.8828-55.957 76.9043-55.957Q73.9258-55.957 71.4355-54.4678Q68.9453-52.9785 67.4805-50.4883Q66.0156-47.998 66.0156-45.0195Q66.0156-41.9922 67.4805-39.4775Q68.9453-36.9629 71.4355-35.4492Q73.9258-33.9355 76.9043-33.9355Z"/>
   <path class="hierarchical-1:primary SFSymbolsPreview212121" d="M22.8516-96.875Q19.8242-96.875 17.9443-95.0195Q16.0645-93.1641 16.0645-90.0879L16.0645 19.7266Q16.0645 22.8027 17.9443 24.6582Q19.8242 26.5137 22.8516 26.5137L160.889 26.5137Q163.965 26.5137 165.845 24.6582Q167.725 22.8027 167.725 19.7266L167.725-90.0879Q167.725-93.1641 165.845-95.0195Q163.965-96.875 160.889-96.875ZM38.0371-76.6602L145.752-76.6602Q147.461-76.6602 147.461-74.9512L147.461 4.54102Q147.461 6.29883 145.752 6.29883L38.0371 6.29883Q36.3281 6.29883 36.3281 4.54102L36.3281-74.9512Q36.3281-76.6602 38.0371-76.6602Z"/>
  </g>
  <g id="Heavy-L" transform="matrix(1 0 0 1 2545.23 1556)">
   <path class="hierarchical-0:secondary SFSymbolsPreview4D4D4D" d="M41.0156-73.584Q38.3301-73.584 38.3301-71.0449L38.3301 0.683594Q38.3301 3.22266 41.0156 3.22266L141.895 3.22266Q144.531 3.22266 144.531 0.683594L144.531-71.0449Q144.531-73.584 141.895-73.584ZM46.875-66.2598L136.035-66.2598Q137.158-66.2598 137.158-65.1367L137.158-5.27344Q137.158-4.19922 136.035-4.19922L46.875-4.19922Q45.752-4.19922 45.752-5.27344L45.752-65.1367Q45.752-66.2598 46.875-66.2598ZM139.99-11.4258L113.428-36.1328Q111.963-37.5 110.254-38.1836Q108.545-38.8672 106.787-38.8672Q104.932-38.8672 103.247-38.2324Q101.562-37.5977 100.049-36.1816L79.7852-18.0664L71.582-25.4883Q70.1172-26.8066 68.5547-27.417Q66.9922-28.0273 65.3809-28.0273Q63.7695-28.0273 62.4268-27.3682Q61.084-26.709 59.668-25.5371L42.9688-10.8398L42.9688-3.125Q42.9688-0.732422 44.165 0.292969Q45.3613 1.31836 47.3633 1.31836L135.596 1.31836Q137.598 1.31836 138.794 0.292969Q139.99-0.732422 139.99-3.125ZM74.8047-34.4238Q77.832-34.4238 80.3711-35.9619Q82.9102-37.5 84.4482-40.0391Q85.9863-42.5781 85.9863-45.6543Q85.9863-48.7305 84.4482-51.2695Q82.9102-53.8086 80.3711-55.3223Q77.832-56.8359 74.8047-56.8359Q71.7773-56.8359 69.2383-55.3223Q66.6992-53.8086 65.21-51.2695Q63.7207-48.7305 63.7207-45.6543Q63.7207-42.5781 65.21-40.0391Q66.6992-37.5 69.2383-35.9619Q71.7773-34.4238 74.8047-34.4238Z"/>
   <path class="hierarchical-1:primary SFSymbolsPreview212121" d="M22.3145-95.8496Q19.5312-95.8496 17.7979-94.1406Q16.0645-92.4316 16.0645-89.5996L16.0645 19.2383Q16.0645 22.0703 17.7979 23.7793Q19.5312 25.4883 22.3145 25.4883L160.547 25.4883Q163.379 25.4883 165.112 23.7793Q166.846 22.0703 166.846 19.2383L166.846-89.5996Q166.846-92.4316 165.112-94.1406Q163.379-95.8496 160.547-95.8496ZM35.3027-78.3691L147.607-78.3691Q149.316-78.3691 149.316-76.6602L149.316 6.25Q149.316 8.00781 147.607 8.00781L35.3027 8.00781Q33.5938 8.00781 33.5938 6.25L33.5938-76.6602Q33.5938-78.3691 35.3027-78.3691Z"/>
  </g>
  <g id="Bold-L" transform="matrix(1 0 0 1 2249.01 1556)">
   <path class="hierarchical-0:secondary SFSymbolsPreview4D4D4D" d="M38.9648-74.7559Q36.084-74.7559 36.084-71.9727L36.084 1.5625Q36.084 4.3457 38.9648 4.3457L142.969 4.3457Q145.85 4.3457 145.85 1.5625L145.85-71.9727Q145.85-74.7559 142.969-74.7559ZM44.0918-67.9688L137.891-67.9688Q139.062-67.9688 139.062-66.7969L139.062-3.66211Q139.062-2.49023 137.891-2.49023L44.0918-2.49023Q42.9199-2.49023 42.9199-3.66211L42.9199-66.7969Q42.9199-67.9688 44.0918-67.9688ZM141.504-10.2051L113.721-36.0352Q112.158-37.4512 110.376-38.1836Q108.594-38.916 106.689-38.916Q104.736-38.916 103.003-38.2324Q101.27-37.5488 99.6582-36.084L78.5156-17.1875L69.9219-25Q68.4082-26.3672 66.7969-27.0264Q65.1855-27.6855 63.5254-27.6855Q61.8652-27.6855 60.4248-27.002Q58.9844-26.3184 57.5195-25.0488L40.0391-9.47266L40.0391-2.49023Q40.0391 0.0488281 41.3086 1.14746Q42.5781 2.24609 44.6289 2.24609L136.914 2.24609Q138.965 2.24609 140.234 1.14746Q141.504 0.0488281 141.504-2.49023ZM72.5098-34.9609Q75.5859-34.9609 78.1738-36.5234Q80.7617-38.0859 82.3242-40.6738Q83.8867-43.2617 83.8867-46.4355Q83.8867-49.5605 82.3242-52.1484Q80.7617-54.7363 78.1738-56.2744Q75.5859-57.8125 72.5098-57.8125Q69.3848-57.8125 66.7969-56.2744Q64.209-54.7363 62.6709-52.1484Q61.1328-49.5605 61.1328-46.4355Q61.1328-43.2617 62.6709-40.6738Q64.209-38.0859 66.7969-36.5234Q69.3848-34.9609 72.5098-34.9609Z"/>
   <path class="hierarchical-1:primary SFSymbolsPreview212121" d="M21.7285-94.7754Q19.1895-94.7754 17.627-93.2129Q16.0645-91.6504 16.0645-89.1113L16.0645 18.7012Q16.0645 21.2402 17.627 22.8027Q19.1895 24.3652 21.7285 24.3652L160.205 24.3652Q162.744 24.3652 164.307 22.8027Q165.869 21.2402 165.869 18.7012L165.869-89.1113Q165.869-91.6504 164.307-93.2129Q162.744-94.7754 160.205-94.7754ZM32.2266-80.3223L149.707-80.3223Q151.416-80.3223 151.416-78.6133L151.416 8.20312Q151.416 9.91211 149.707 9.91211L32.2266 9.91211Q30.5176 9.91211 30.5176 8.20312L30.5176-78.6133Q30.5176-80.3223 32.2266-80.3223Z"/>
  </g>
  <g id="Semibold-L" transform="matrix(1 0 0 1 1952.64 1556)">
   <path class="hierarchical-0:secondary SFSymbolsPreview4D4D4D" d="M37.5488-75.5371Q34.5215-75.5371 34.5215-72.5586L34.5215 2.14844Q34.5215 5.07812 37.5488 5.07812L143.701 5.07812Q146.729 5.07812 146.729 2.14844L146.729-72.5586Q146.729-75.5371 143.701-75.5371ZM42.1387-69.1406L139.111-69.1406Q140.332-69.1406 140.332-67.9199L140.332-2.49023Q140.332-1.26953 139.111-1.26953L42.1387-1.26953Q40.918-1.26953 40.918-2.49023L40.918-67.9199Q40.918-69.1406 42.1387-69.1406ZM142.48-9.32617L113.916-35.9375Q112.305-37.4512 110.474-38.1836Q108.643-38.916 106.641-38.916Q104.59-38.916 102.808-38.2324Q101.025-37.5488 99.3652-36.0352L77.6367-16.5527L68.75-24.6582Q67.2363-26.0742 65.6006-26.7578Q63.9648-27.4414 62.207-27.4414Q60.498-27.4414 59.0332-26.7334Q57.5684-26.0254 56.0547-24.707L38.0371-8.49609L38.0371-2.00195Q38.0371 0.537109 39.3311 1.68457Q40.625 2.83203 42.7246 2.83203L137.793 2.83203Q139.893 2.83203 141.187 1.68457Q142.48 0.537109 142.48-2.00195ZM70.8984-35.3027Q74.0234-35.3027 76.6357-36.8896Q79.248-38.4766 80.8105-41.0889Q82.373-43.7012 82.373-46.9238Q82.373-50.0977 80.8105-52.71Q79.248-55.3223 76.6357-56.9092Q74.0234-58.4961 70.8984-58.4961Q67.6758-58.4961 65.0635-56.9092Q62.4512-55.3223 60.9131-52.71Q59.375-50.0977 59.375-46.9238Q59.375-43.7012 60.9131-41.0889Q62.4512-38.4766 65.0635-36.8896Q67.6758-35.3027 70.8984-35.3027Z"/>
   <path class="hierarchical-1:primary SFSymbolsPreview212121" d="M21.3379-93.9941Q18.9453-93.9941 17.5049-92.5537Q16.0645-91.1133 16.0645-88.7207L16.0645 18.3105Q16.0645 20.6543 17.5049 22.0947Q18.9453 23.5352 21.3379 23.5352L159.912 23.5352Q162.305 23.5352 163.745 22.0947Q165.186 20.6543 165.186 18.3105L165.186-88.7207Q165.186-91.1133 163.745-92.5537Q162.305-93.9941 159.912-93.9941ZM30.127-81.6406L151.123-81.6406Q152.832-81.6406 152.832-79.9316L152.832 9.52148Q152.832 11.2305 151.123 11.2305L30.127 11.2305Q28.418 11.2305 28.418 9.52148L28.418-79.9316Q28.418-81.6406 30.127-81.6406Z"/>
  </g>
  <g id="Medium-L" transform="matrix(1 0 0 1 1656.17 1556)">
   <path class="hierarchical-0:secondary SFSymbolsPreview4D4D4D" d="M36.4746-76.123Q33.3496-76.123 33.3496-73.0469L33.3496 2.58789Q33.3496 5.66406 36.4746 5.66406L144.238 5.66406Q147.412 5.66406 147.412 2.58789L147.412-73.0469Q147.412-76.123 144.238-76.123ZM40.6738-70.0684L140.088-70.0684Q141.357-70.0684 141.357-68.7988L141.357-1.66016Q141.357-0.390625 140.088-0.390625L40.6738-0.390625Q39.4043-0.390625 39.4043-1.66016L39.4043-68.7988Q39.4043-70.0684 40.6738-70.0684ZM143.262-8.69141L114.062-35.8887Q112.354-37.4023 110.498-38.1592Q108.643-38.916 106.592-38.916Q104.541-38.916 102.686-38.208Q100.83-37.5 99.1699-35.9375L77.002-16.0645L67.8711-24.4141Q66.3086-25.8301 64.6484-26.5381Q62.9883-27.2461 61.1816-27.2461Q59.4727-27.2461 57.959-26.5381Q56.4453-25.8301 54.9316-24.4629L36.4746-7.76367L36.4746-1.66016Q36.4746 0.927734 37.793 2.12402Q39.1113 3.32031 41.3086 3.32031L138.428 3.32031Q140.576 3.32031 141.919 2.12402Q143.262 0.927734 143.262-1.66016ZM69.6777-35.5957Q72.8516-35.5957 75.4883-37.1826Q78.125-38.7695 79.7119-41.4307Q81.2988-44.0918 81.2988-47.3145Q81.2988-50.5371 79.7119-53.1738Q78.125-55.8105 75.4883-57.3975Q72.8516-58.9844 69.6777-58.9844Q66.4551-58.9844 63.7939-57.3975Q61.1328-55.8105 59.5703-53.1738Q58.0078-50.5371 58.0078-47.3145Q58.0078-44.0918 59.5703-41.4307Q61.1328-38.7695 63.7939-37.1826Q66.4551-35.5957 69.6777-35.5957Z"/>
   <path class="hierarchical-1:primary SFSymbolsPreview212121" d="M20.9961-93.4082Q18.7988-93.4082 17.4316-92.041Q16.0645-90.6738 16.0645-88.4277L16.0645 18.0176Q16.0645 20.2637 17.4316 21.6064Q18.7988 22.9492 20.9961 22.9492L159.717 22.9492Q161.963 22.9492 163.33 21.6064Q164.697 20.2637 164.697 18.0176L164.697-88.4277Q164.697-90.6738 163.33-92.041Q161.963-93.4082 159.717-93.4082ZM28.5156-82.666L152.246-82.666Q153.906-82.666 153.906-80.957L153.906 10.498Q153.906 12.207 152.246 12.207L28.5156 12.207Q26.8066 12.207 26.8066 10.498L26.8066-80.957Q26.8066-82.666 28.5156-82.666Z"/>
  </g>
  <g id="Regular-L" transform="matrix(1 0 0 1 1359.81 1556)">
   <path class="hierarchical-0:secondary SFSymbolsPreview4D4D4D" d="M35.1074-76.9043Q31.7871-76.9043 31.7871-73.6328L31.7871 3.17383Q31.7871 6.44531 35.1074 6.44531L144.971 6.44531Q148.291 6.44531 148.291 3.17383L148.291-73.6328Q148.291-76.9043 144.971-76.9043ZM38.7695-71.2402L141.309-71.2402Q142.627-71.2402 142.627-69.9219L142.627-0.537109Q142.627 0.78125 141.309 0.78125L38.7695 0.78125Q37.4512 0.78125 37.4512-0.537109L37.4512-69.9219Q37.4512-71.2402 38.7695-71.2402ZM144.287-7.86133L114.258-35.791Q112.5-37.4023 110.596-38.1836Q108.691-38.9648 106.543-38.9648Q104.395-38.9648 102.515-38.2324Q100.635-37.5 98.877-35.8887L76.123-15.4785L66.748-24.0723Q65.1367-25.5371 63.4521-26.2695Q61.7676-27.002 59.9121-27.002Q58.1543-27.002 56.5918-26.2695Q55.0293-25.5371 53.4668-24.1211L34.4727-6.78711L34.4727-1.17188Q34.4727 1.46484 35.8398 2.70996Q37.207 3.95508 39.4531 3.95508L139.307 3.95508Q141.504 3.95508 142.896 2.70996Q144.287 1.46484 144.287-1.17188ZM68.0664-35.9375Q71.2891-35.9375 73.9746-37.5488Q76.6602-39.1602 78.2471-41.8457Q79.834-44.5312 79.834-47.8027Q79.834-51.0742 78.2471-53.7598Q76.6602-56.4453 73.9746-58.0566Q71.2891-59.668 68.0664-59.668Q64.7949-59.668 62.1094-58.0566Q59.4238-56.4453 57.8369-53.7598Q56.25-51.0742 56.25-47.8027Q56.25-44.5312 57.8369-41.8457Q59.4238-39.1602 62.1094-37.5488Q64.7949-35.9375 68.0664-35.9375Z"/>
   <path class="hierarchical-1:primary SFSymbolsPreview212121" d="M20.6055-92.627Q18.5547-92.627 17.3096-91.3818Q16.0645-90.1367 16.0645-88.0859L16.0645 17.627Q16.0645 19.6777 17.3096 20.9229Q18.5547 22.168 20.6055 22.168L159.473 22.168Q161.523 22.168 162.769 20.9229Q164.014 19.6777 164.014 17.627L164.014-88.0859Q164.014-90.1367 162.769-91.3818Q161.523-92.627 159.473-92.627ZM26.416-83.9844L153.662-83.9844Q155.322-83.9844 155.322-82.2754L155.322 11.8164Q155.322 13.5254 153.662 13.5254L26.416 13.5254Q24.707 13.5254 24.707 11.8164L24.707-82.2754Q24.707-83.9844 26.416-83.9844Z"/>
  </g>
  <g id="Light-L" transform="matrix(1 0 0 1 1063.53 1556)">
   <path class="hierarchical-0:secondary SFSymbolsPreview4D4D4D" d="M32.959-77.7344Q30.127-77.7344 30.127-74.9512L30.127 4.44336Q30.127 7.27539 32.959 7.27539L146.24 7.27539Q149.072 7.27539 149.072 4.44336L149.072-74.9512Q149.072-77.7344 146.24-77.7344ZM35.9863-72.998L143.164-72.998Q144.336-72.998 144.336-71.875L144.336 1.36719Q144.336 2.53906 143.164 2.53906L35.9863 2.53906Q34.8633 2.53906 34.8633 1.36719L34.8633-71.875Q34.8633-72.998 35.9863-72.998ZM146.094-6.44531L114.795-35.2539Q112.939-36.9629 110.962-37.8174Q108.984-38.6719 106.641-38.6719Q104.395-38.6719 102.466-37.8662Q100.537-37.0605 98.6816-35.3516L75.1465-14.3066L65.332-23.3398Q63.7207-24.8535 62.0117-25.6348Q60.3027-26.416 58.3496-26.416Q56.4453-26.416 54.8828-25.6348Q53.3203-24.8535 51.709-23.3887L32.3242-5.46875L32.3242 0.878906Q32.3242 3.02734 33.4473 4.10156Q34.5703 5.17578 36.4258 5.17578L141.992 5.17578Q143.799 5.17578 144.946 4.10156Q146.094 3.02734 146.094 0.878906ZM67.041-36.2793Q70.3125-36.2793 73.0713-37.9395Q75.8301-39.5996 77.4658-42.3584Q79.1016-45.1172 79.1016-48.4863Q79.1016-51.8066 77.4658-54.5898Q75.8301-57.373 73.0713-59.0332Q70.3125-60.6934 67.041-60.6934Q63.6719-60.6934 60.9131-59.0332Q58.1543-57.373 56.5186-54.5898Q54.8828-51.8066 54.8828-48.4863Q54.8828-45.1172 56.5186-42.3584Q58.1543-39.5996 60.9131-37.9395Q63.6719-36.2793 67.041-36.2793Z"/>
   <path class="hierarchical-1:primary SFSymbolsPreview212121" d="M19.9707-91.7969Q18.1641-91.7969 17.1143-90.7471Q16.0645-89.6973 16.0645-87.9395L16.0645 17.4316Q16.0645 19.1895 17.1143 20.2637Q18.1641 21.3379 19.9707 21.3379L159.229 21.3379Q160.986 21.3379 162.061 20.2637Q163.135 19.1895 163.135 17.4316L163.135-87.9395Q163.135-89.6973 162.061-90.7471Q160.986-91.7969 159.229-91.7969ZM24.1699-85.2051L154.98-85.2051Q156.494-85.2051 156.494-83.6914L156.494 13.1836Q156.494 14.6973 154.98 14.6973L24.1699 14.6973Q22.6562 14.6973 22.6562 13.1836L22.6562-83.6914Q22.6562-85.2051 24.1699-85.2051Z"/>
  </g>
  <g id="Thin-L" transform="matrix(1 0 0 1 767.409 1556)">
   <path class="hierarchical-0:secondary SFSymbolsPreview4D4D4D" d="M30.0781-78.8574Q27.9297-78.8574 27.9297-76.709L27.9297 6.15234Q27.9297 8.34961 30.0781 8.34961L147.9 8.34961Q150.098 8.34961 150.098 6.15234L150.098-76.709Q150.098-78.8574 147.9-78.8574ZM32.3242-75.3418L145.654-75.3418Q146.582-75.3418 146.582-74.4629L146.582 3.90625Q146.582 4.83398 145.654 4.83398L32.3242 4.83398Q31.4453 4.83398 31.4453 3.90625L31.4453-74.4629Q31.4453-75.3418 32.3242-75.3418ZM148.438-4.54102L115.527-34.5703Q113.477-36.4258 111.426-37.3535Q109.375-38.2812 106.836-38.2812Q104.395-38.2812 102.417-37.3535Q100.439-36.4258 98.4375-34.668L73.8281-12.6953L63.5254-22.4121Q61.8164-23.9746 60.1074-24.8291Q58.3984-25.6836 56.25-25.6836Q54.1992-25.6836 52.6123-24.8291Q51.0254-23.9746 49.3652-22.4121L29.4922-3.71094L29.4922 3.56445Q29.4922 5.07812 30.2979 5.93262Q31.1035 6.78711 32.4219 6.78711L145.557 6.78711Q146.826 6.78711 147.632 5.93262Q148.438 5.07812 148.438 3.56445ZM65.625-36.7676Q69.0918-36.7676 71.9238-38.4766Q74.7559-40.1855 76.4404-43.0176Q78.125-45.8496 78.125-49.3652Q78.125-52.832 76.4404-55.7129Q74.7559-58.5938 71.9238-60.3027Q69.0918-62.0117 65.625-62.0117Q62.207-62.0117 59.3506-60.3027Q56.4941-58.5938 54.7607-55.7129Q53.0273-52.832 53.0273-49.3652Q53.0273-45.8496 54.7607-43.0176Q56.4941-40.1855 59.3506-38.4766Q62.207-36.7676 65.625-36.7676Z"/>
   <path class="hierarchical-1:primary SFSymbolsPreview212121" d="M19.0918-90.7227Q17.6758-90.7227 16.8701-89.917Q16.0645-89.1113 16.0645-87.6953L16.0645 17.1875Q16.0645 18.6035 16.8701 19.4092Q17.6758 20.2148 19.0918 20.2148L158.887 20.2148Q160.352 20.2148 161.157 19.4092Q161.963 18.6035 161.963 17.1875L161.963-87.6953Q161.963-89.1113 161.157-89.917Q160.352-90.7227 158.887-90.7227ZM21.2402-86.8164L156.738-86.8164Q158.008-86.8164 158.008-85.498L158.008 14.9902Q158.008 16.2598 156.738 16.2598L21.2402 16.2598Q20.0195 16.2598 20.0195 14.9902L20.0195-85.498Q20.0195-86.8164 21.2402-86.8164Z"/>
  </g>
  <g id="Ultralight-L" transform="matrix(1 0 0 1 471.015 1556)">
   <path class="hierarchical-0:secondary SFSymbolsPreview4D4D4D" d="M28.6133-79.4434Q26.8066-79.4434 26.8066-77.5879L26.8066 7.03125Q26.8066 8.88672 28.6133 8.88672L148.779 8.88672Q150.586 8.88672 150.586 7.03125L150.586-77.5879Q150.586-79.4434 148.779-79.4434ZM30.4688-76.5625L146.924-76.5625Q147.705-76.5625 147.705-75.7812L147.705 5.22461Q147.705 6.00586 146.924 6.00586L30.4688 6.00586Q29.6875 6.00586 29.6875 5.22461L29.6875-75.7812Q29.6875-76.5625 30.4688-76.5625ZM149.658-3.61328L115.869-34.1797Q113.77-36.1328 111.694-37.085Q109.619-38.0371 106.885-38.0371Q104.395-38.0371 102.368-37.085Q100.342-36.1328 98.291-34.2773L73.1934-11.9141L62.5488-21.9238Q60.8887-23.4863 59.1553-24.3896Q57.4219-25.293 55.1758-25.293Q53.0273-25.293 51.4404-24.3896Q49.8535-23.4863 48.1445-21.875L28.0762-2.83203L28.0762 4.98047Q28.0762 6.15234 28.7109 6.86035Q29.3457 7.56836 30.3711 7.56836L147.412 7.56836Q148.389 7.56836 149.023 6.86035Q149.658 6.15234 149.658 4.98047ZM64.9414-36.9629Q68.4082-36.9629 71.3135-38.7207Q74.2188-40.4785 75.9277-43.3594Q77.6367-46.2402 77.6367-49.8047Q77.6367-53.3203 75.9277-56.2744Q74.2188-59.2285 71.3135-60.9619Q68.4082-62.6953 64.9414-62.6953Q61.4258-62.6953 58.5205-60.9619Q55.6152-59.2285 53.8574-56.2744Q52.0996-53.3203 52.0996-49.8047Q52.0996-46.2402 53.8574-43.3594Q55.6152-40.4785 58.5205-38.7207Q61.4258-36.9629 64.9414-36.9629Z"/>
   <path class="hierarchical-1:primary SFSymbolsPreview212121" d="M18.6523-90.1855Q17.4316-90.1855 16.748-89.502Q16.0645-88.8184 16.0645-87.5977L16.0645 17.041Q16.0645 18.2617 16.748 18.9453Q17.4316 19.6289 18.6523 19.6289L158.74 19.6289Q159.961 19.6289 160.645 18.9453Q161.328 18.2617 161.328 17.041L161.328-87.5977Q161.328-88.8184 160.645-89.502Q159.961-90.1855 158.74-90.1855ZM19.7266-87.5977L157.666-87.5977Q158.789-87.5977 158.789-86.4746L158.789 15.918Q158.789 17.0898 157.666 17.0898L19.7266 17.0898Q18.6035 17.0898 18.6035 15.918L18.6035-86.4746Q18.6035-87.5977 19.7266-87.5977Z"/>
  </g>
  <g id="Black-M" transform="matrix(1 0 0 1 2861.96 1126)">
   <path class="hierarchical-0:secondary SFSymbolsPreview4D4D4D" d="M34.0332-63.5742Q32.4707-63.5742 32.4707-62.1582L32.4707-8.25195Q32.4707-6.83594 34.0332-6.83594L108.838-6.83594Q110.4-6.83594 110.4-8.25195L110.4-62.1582Q110.4-63.5742 108.838-63.5742ZM39.4531-57.3242L103.418-57.3242Q104.102-57.3242 104.102-56.6406L104.102-13.7207Q104.102-13.0859 103.418-13.0859L39.4531-13.0859Q38.7695-13.0859 38.7695-13.7207L38.7695-56.6406Q38.7695-57.3242 39.4531-57.3242ZM106.934-18.0664L87.6953-35.9375Q86.6699-36.8652 85.4004-37.3779Q84.1309-37.8906 82.9102-37.8906Q81.5918-37.8906 80.3711-37.4023Q79.1504-36.9141 78.0273-35.9375L63.3301-22.8027L57.4219-28.1738Q56.3477-29.1016 55.2002-29.5166Q54.0527-29.9316 52.9297-29.9316Q51.6602-29.9316 50.7324-29.4678Q49.8047-29.0039 48.7793-28.1738L36.8652-17.9688L36.8652-10.6445Q36.8652-9.08203 37.6221-8.44727Q38.3789-7.8125 39.6484-7.8125L104.15-7.8125Q105.42-7.8125 106.177-8.44727Q106.934-9.08203 106.934-10.6445ZM61.0352-33.9355Q64.4531-33.9355 66.9678-36.4502Q69.4824-38.9648 69.4824-42.4316Q69.4824-45.8984 66.9678-48.3887Q64.4531-50.8789 61.0352-50.8789Q57.5684-50.8789 55.127-48.3887Q52.6855-45.8984 52.6855-42.4316Q52.6855-38.9648 55.127-36.4502Q57.5684-33.9355 61.0352-33.9355Z"/>
   <path class="hierarchical-1:primary SFSymbolsPreview212121" d="M17.9688-83.5938Q15.4785-83.5938 13.9648-82.0801Q12.4512-80.5664 12.4512-78.125L12.4512 7.71484Q12.4512 10.2051 13.9648 11.7188Q15.4785 13.2324 17.9688 13.2324L124.902 13.2324Q127.393 13.2324 128.906 11.7188Q130.42 10.2051 130.42 7.71484L130.42-78.125Q130.42-80.5664 128.906-82.0801Q127.393-83.5938 124.902-83.5938ZM31.0547-66.2598L111.816-66.2598Q113.086-66.2598 113.086-64.9902L113.086-5.41992Q113.086-4.10156 111.816-4.10156L31.0547-4.10156Q29.7852-4.10156 29.7852-5.41992L29.7852-64.9902Q29.7852-66.2598 31.0547-66.2598Z"/>
  </g>
  <g id="Heavy-M" transform="matrix(1 0 0 1 2565.6 1126)">
   <path class="hierarchical-0:secondary SFSymbolsPreview4D4D4D" d="M32.7148-64.4043Q30.8594-64.4043 30.8594-62.6465L30.8594-7.76367Q30.8594-6.00586 32.7148-6.00586L109.473-6.00586Q111.377-6.00586 111.377-7.76367L111.377-62.6465Q111.377-64.4043 109.473-64.4043ZM37.5977-58.4473L104.59-58.4473Q105.371-58.4473 105.371-57.666L105.371-12.6953Q105.371-11.9629 104.59-11.9629L37.5977-11.9629Q36.8164-11.9629 36.8164-12.6953L36.8164-57.666Q36.8164-58.4473 37.5977-58.4473ZM107.861-17.2852L87.8418-35.9375Q86.7188-36.9141 85.4248-37.4512Q84.1309-37.9883 82.8125-37.9883Q81.4453-37.9883 80.1758-37.5Q78.9062-37.0117 77.7344-35.9375L62.4512-22.2656L56.25-27.8809Q55.1758-28.8574 53.9795-29.2969Q52.7832-29.7363 51.6113-29.7363Q50.3418-29.7363 49.3408-29.2725Q48.3398-28.8086 47.2656-27.9297L34.7656-16.9922L34.7656-10.498Q34.7656-8.74023 35.6201-8.00781Q36.4746-7.27539 37.8906-7.27539L104.688-7.27539Q106.104-7.27539 106.982-8.00781Q107.861-8.74023 107.861-10.498ZM59.2285-34.3262Q62.6953-34.3262 65.2344-36.8652Q67.7734-39.4043 67.7734-42.9199Q67.7734-46.4844 65.2344-48.999Q62.6953-51.5137 59.2285-51.5137Q55.7129-51.5137 53.2227-48.999Q50.7324-46.4844 50.7324-42.9199Q50.7324-39.4043 53.2227-36.8652Q55.7129-34.3262 59.2285-34.3262Z"/>
   <path class="hierarchical-1:primary SFSymbolsPreview212121" d="M17.5781-82.7637Q15.2832-82.7637 13.8672-81.3721Q12.4512-79.9805 12.4512-77.6855L12.4512 7.27539Q12.4512 9.57031 13.8672 10.9863Q15.2832 12.4023 17.5781 12.4023L124.609 12.4023Q126.953 12.4023 128.345 10.9863Q129.736 9.57031 129.736 7.27539L129.736-77.6855Q129.736-79.9805 128.345-81.3721Q126.953-82.7637 124.609-82.7637ZM28.8574-67.6758L113.33-67.6758Q114.648-67.6758 114.648-66.4062L114.648-4.05273Q114.648-2.68555 113.33-2.68555L28.8574-2.68555Q27.5391-2.68555 27.5391-4.05273L27.5391-66.4062Q27.5391-67.6758 28.8574-67.6758Z"/>
  </g>
  <g id="Bold-M" transform="matrix(1 0 0 1 2269.25 1126)">
   <path class="hierarchical-0:secondary SFSymbolsPreview4D4D4D" d="M31.25-65.332Q29.0527-65.332 29.0527-63.1836L29.0527-7.22656Q29.0527-5.12695 31.25-5.12695L110.254-5.12695Q112.451-5.12695 112.451-7.22656L112.451-63.1836Q112.451-65.332 110.254-65.332ZM35.5469-59.7168L105.957-59.7168Q106.836-59.7168 106.836-58.8379L106.836-11.5723Q106.836-10.6934 105.957-10.6934L35.5469-10.6934Q34.668-10.6934 34.668-11.5723L34.668-58.8379Q34.668-59.7168 35.5469-59.7168ZM108.887-16.4551L87.9883-35.9375Q86.8164-37.0117 85.4736-37.5488Q84.1309-38.0859 82.7148-38.0859Q81.25-38.0859 79.9316-37.5977Q78.6133-37.1094 77.3926-35.9863L61.4258-21.7285L54.9805-27.5879Q53.8574-28.6133 52.6123-29.0771Q51.3672-29.541 50.1465-29.541Q48.877-29.541 47.8027-29.0527Q46.7285-28.5645 45.6055-27.6367L32.4219-15.9668L32.4219-10.3516Q32.4219-8.39844 33.3984-7.54395Q34.375-6.68945 35.9863-6.68945L105.273-6.68945Q106.885-6.68945 107.886-7.54395Q108.887-8.39844 108.887-10.3516ZM57.1777-34.7656Q60.7422-34.7656 63.3301-37.3535Q65.918-39.9414 65.918-43.5059Q65.918-47.1191 63.3301-49.6826Q60.7422-52.2461 57.1777-52.2461Q53.6133-52.2461 51.0742-49.6826Q48.5352-47.1191 48.5352-43.5059Q48.5352-39.9414 51.0742-37.3535Q53.6133-34.7656 57.1777-34.7656Z"/>
   <path class="hierarchical-1:primary SFSymbolsPreview212121" d="M17.1875-81.8848Q15.0391-81.8848 13.7451-80.5908Q12.4512-79.2969 12.4512-77.1973L12.4512 6.78711Q12.4512 8.93555 13.7451 10.2051Q15.0391 11.4746 17.1875 11.4746L124.316 11.4746Q126.465 11.4746 127.734 10.2051Q129.004 8.93555 129.004 6.78711L129.004-77.1973Q129.004-79.2969 127.734-80.5908Q126.465-81.8848 124.316-81.8848ZM26.416-69.2871L115.088-69.2871Q116.406-69.2871 116.406-67.9688L116.406-2.49023Q116.406-1.12305 115.088-1.12305L26.416-1.12305Q25.0488-1.12305 25.0488-2.49023L25.0488-67.9688Q25.0488-69.2871 26.416-69.2871Z"/>
  </g>
  <g id="Semibold-M" transform="matrix(1 0 0 1 1972.81 1126)">
   <path class="hierarchical-0:secondary SFSymbolsPreview4D4D4D" d="M30.2246-65.918Q27.7832-65.918 27.7832-63.5742L27.7832-6.83594Q27.7832-4.49219 30.2246-4.49219L110.742-4.49219Q113.184-4.49219 113.184-6.83594L113.184-63.5742Q113.184-65.918 110.742-65.918ZM34.082-60.5957L106.836-60.5957Q107.812-60.5957 107.812-59.6191L107.812-10.791Q107.812-9.81445 106.836-9.81445L34.082-9.81445Q33.1543-9.81445 33.1543-10.791L33.1543-59.6191Q33.1543-60.5957 34.082-60.5957ZM109.57-15.8691L88.0859-35.9375Q86.8652-37.0605 85.4736-37.5977Q84.082-38.1348 82.666-38.1348Q81.1035-38.1348 79.7363-37.6465Q78.3691-37.1582 77.1484-35.9863L60.7422-21.2891L54.0527-27.3926Q52.9297-28.418 51.6602-28.9062Q50.3906-29.3945 49.1211-29.3945Q47.8516-29.3945 46.7285-28.9062Q45.6055-28.418 44.4336-27.3926L30.7617-15.1855L30.7617-10.2051Q30.7617-8.10547 31.8115-7.20215Q32.8613-6.29883 34.6191-6.29883L105.664-6.29883Q107.422-6.29883 108.496-7.20215Q109.57-8.10547 109.57-10.2051ZM55.7617-35.0586Q59.375-35.0586 61.9873-37.6709Q64.5996-40.2832 64.5996-43.8965Q64.5996-47.5098 61.9873-50.1221Q59.375-52.7344 55.7617-52.7344Q52.1484-52.7344 49.5605-50.1221Q46.9727-47.5098 46.9727-43.8965Q46.9727-40.2832 49.5605-37.6709Q52.1484-35.0586 55.7617-35.0586Z"/>
   <path class="hierarchical-1:primary SFSymbolsPreview212121" d="M16.8457-81.25Q14.8926-81.25 13.6719-80.0537Q12.4512-78.8574 12.4512-76.8555L12.4512 6.44531Q12.4512 8.44727 13.6719 9.64355Q14.8926 10.8398 16.8457 10.8398L124.121 10.8398Q126.074 10.8398 127.271 9.64355Q128.467 8.44727 128.467 6.44531L128.467-76.8555Q128.467-78.8574 127.271-80.0537Q126.074-81.25 124.121-81.25ZM24.707-70.4102L116.26-70.4102Q117.627-70.4102 117.627-69.043L117.627-1.41602Q117.627-0.0488281 116.26-0.0488281L24.707-0.0488281Q23.3398-0.0488281 23.3398-1.41602L23.3398-69.043Q23.3398-70.4102 24.707-70.4102Z"/>
  </g>
  <g id="Medium-M" transform="matrix(1 0 0 1 1676.29 1126)">
   <path class="hierarchical-0:secondary SFSymbolsPreview4D4D4D" d="M29.4922-66.4062Q26.8066-66.4062 26.8066-63.8184L26.8066-6.5918Q26.8066-4.00391 29.4922-4.00391L111.133-4.00391Q113.77-4.00391 113.77-6.5918L113.77-63.8184Q113.77-66.4062 111.133-66.4062ZM33.0078-61.2305L107.52-61.2305Q108.594-61.2305 108.594-60.2051L108.594-10.2051Q108.594-9.17969 107.52-9.17969L33.0078-9.17969Q31.9824-9.17969 31.9824-10.2051L31.9824-60.2051Q31.9824-61.2305 33.0078-61.2305ZM110.107-15.4297L88.1348-35.9375Q86.9141-37.1094 85.498-37.6709Q84.082-38.2324 82.5684-38.2324Q81.0547-38.2324 79.6387-37.7197Q78.2227-37.207 77.002-36.0352L60.2051-20.9961L53.3691-27.1973Q52.2461-28.3203 50.9521-28.8086Q49.6582-29.2969 48.3398-29.2969Q47.0703-29.2969 45.9229-28.7842Q44.7754-28.2715 43.5547-27.2461L29.541-14.6484L29.541-10.1074Q29.541-7.91016 30.6641-6.93359Q31.7871-5.95703 33.5938-5.95703L106.006-5.95703Q107.812-5.95703 108.96-6.93359Q110.107-7.91016 110.107-10.1074ZM54.6875-35.3027Q58.3496-35.3027 60.9619-37.9395Q63.5742-40.5762 63.5742-44.1895Q63.5742-47.8516 60.9619-50.4639Q58.3496-53.0762 54.6875-53.0762Q51.0254-53.0762 48.4375-50.4639Q45.8496-47.8516 45.8496-44.1895Q45.8496-40.5762 48.4375-37.9395Q51.0254-35.3027 54.6875-35.3027Z"/>
   <path class="hierarchical-1:primary SFSymbolsPreview212121" d="M16.6504-80.8105Q14.7461-80.8105 13.5986-79.6387Q12.4512-78.4668 12.4512-76.6113L12.4512 6.20117Q12.4512 8.10547 13.5986 9.22852Q14.7461 10.3516 16.6504 10.3516L123.926 10.3516Q125.83 10.3516 126.953 9.22852Q128.076 8.10547 128.076 6.20117L128.076-76.6113Q128.076-78.4668 126.953-79.6387Q125.83-80.8105 123.926-80.8105ZM23.3887-71.2402L117.139-71.2402Q118.555-71.2402 118.555-69.8242L118.555-0.634766Q118.555 0.78125 117.139 0.78125L23.3887 0.78125Q22.0215 0.78125 22.0215-0.634766L22.0215-69.8242Q22.0215-71.2402 23.3887-71.2402Z"/>
  </g>
  <g id="Regular-M" transform="matrix(1 0 0 1 1379.82 1126)">
   <path class="hierarchical-0:secondary SFSymbolsPreview4D4D4D" d="M28.4668-67.041Q25.5859-67.041 25.5859-64.209L25.5859-6.20117Q25.5859-3.36914 28.4668-3.36914L111.621-3.36914Q114.502-3.36914 114.502-6.20117L114.502-64.209Q114.502-67.041 111.621-67.041ZM31.5918-62.1094L108.447-62.1094Q109.57-62.1094 109.57-60.9863L109.57-9.42383Q109.57-8.30078 108.447-8.30078L31.5918-8.30078Q30.5176-8.30078 30.5176-9.42383L30.5176-60.9863Q30.5176-62.1094 31.5918-62.1094ZM110.791-14.8438L88.2324-35.9375Q86.9629-37.1582 85.5225-37.7197Q84.082-38.2812 82.5195-38.2812Q80.9082-38.2812 79.4678-37.7686Q78.0273-37.2559 76.7578-36.0352L59.5215-20.6055L52.4902-27.002Q51.3184-28.125 50-28.6377Q48.6816-29.1504 47.3145-29.1504Q46.0449-29.1504 44.8486-28.6377Q43.6523-28.125 42.4316-27.0508L27.9297-13.916L27.9297-10.0098Q27.9297-7.66602 29.126-6.61621Q30.3223-5.56641 32.2754-5.56641L106.396-5.56641Q108.35-5.56641 109.57-6.61621Q110.791-7.66602 110.791-10.0098ZM53.3203-35.5957Q57.0312-35.5957 59.668-38.2568Q62.3047-40.918 62.3047-44.5801Q62.3047-48.291 59.668-50.9277Q57.0312-53.5645 53.3203-53.5645Q49.6094-53.5645 46.9727-50.9277Q44.3359-48.291 44.3359-44.5801Q44.3359-40.918 46.9727-38.2568Q49.6094-35.5957 53.3203-35.5957Z"/>
   <path class="hierarchical-1:primary SFSymbolsPreview212121" d="M16.3574-80.1758Q14.5996-80.1758 13.5254-79.1016Q12.4512-78.0273 12.4512-76.2695L12.4512 5.85938Q12.4512 7.61719 13.5254 8.66699Q14.5996 9.7168 16.3574 9.7168L123.73 9.7168Q125.488 9.7168 126.538 8.66699Q127.588 7.61719 127.588 5.85938L127.588-76.2695Q127.588-78.0273 126.538-79.1016Q125.488-80.1758 123.73-80.1758ZM21.7285-72.3145L118.311-72.3145Q119.727-72.3145 119.727-70.8984L119.727 0.439453Q119.727 1.85547 118.311 1.85547L21.7285 1.85547Q20.3125 1.85547 20.3125 0.439453L20.3125-70.8984Q20.3125-72.3145 21.7285-72.3145Z"/>
  </g>
  <g id="Light-M" transform="matrix(1 0 0 1 1083.5 1126)">
   <path class="hierarchical-0:secondary SFSymbolsPreview4D4D4D" d="M26.5137-67.7734Q24.0723-67.7734 24.0723-65.3809L24.0723-5.0293Q24.0723-2.63672 26.5137-2.63672L112.744-2.63672Q115.186-2.63672 115.186-5.0293L115.186-65.3809Q115.186-67.7734 112.744-67.7734ZM29.1016-63.7207L110.107-63.7207Q111.084-63.7207 111.084-62.7441L111.084-7.71484Q111.084-6.73828 110.107-6.73828L29.1016-6.73828Q28.1738-6.73828 28.1738-7.71484L28.1738-62.7441Q28.1738-63.7207 29.1016-63.7207ZM112.402-13.5742L88.7207-35.4492Q87.3535-36.7676 85.8643-37.4023Q84.375-38.0371 82.6172-38.0371Q80.9082-38.0371 79.4189-37.4512Q77.9297-36.8652 76.5625-35.5469L58.6426-19.5312L51.2695-26.3672Q50.0488-27.4902 48.7061-28.0518Q47.3633-28.6133 45.8984-28.6133Q44.5312-28.6133 43.3105-28.0518Q42.0898-27.4902 40.8203-26.3672L26.0254-12.7441L26.0254-8.1543Q26.0254-6.25 27.002-5.37109Q27.9785-4.49219 29.5898-4.49219L108.838-4.49219Q110.4-4.49219 111.401-5.37109Q112.402-6.25 112.402-8.1543ZM52.3926-35.8887Q56.2012-35.8887 58.9355-38.6475Q61.6699-41.4062 61.6699-45.166Q61.6699-49.0234 58.9355-51.7578Q56.2012-54.4922 52.3926-54.4922Q48.584-54.4922 45.8496-51.7578Q43.1152-49.0234 43.1152-45.166Q43.1152-41.4062 45.8496-38.6475Q48.584-35.8887 52.3926-35.8887Z"/>
   <path class="hierarchical-1:primary SFSymbolsPreview212121" d="M15.7715-79.4434Q14.2578-79.4434 13.3545-78.54Q12.4512-77.6367 12.4512-76.123L12.4512 5.66406Q12.4512 7.17773 13.3545 8.08105Q14.2578 8.98438 15.7715 8.98438L123.486 8.98438Q125 8.98438 125.903 8.08105Q126.807 7.17773 126.807 5.66406L126.807-76.123Q126.807-77.6367 125.903-78.54Q125-79.4434 123.486-79.4434ZM19.7266-73.3887L119.482-73.3887Q120.752-73.3887 120.752-72.168L120.752 1.66016Q120.752 2.92969 119.482 2.92969L19.7266 2.92969Q18.5059 2.92969 18.5059 1.66016L18.5059-72.168Q18.5059-73.3887 19.7266-73.3887Z"/>
  </g>
  <g id="Thin-M" transform="matrix(1 0 0 1 787.306 1126)">
   <path class="hierarchical-0:secondary SFSymbolsPreview4D4D4D" d="M23.9258-68.7988Q22.1191-68.7988 22.1191-66.9922L22.1191-3.51562Q22.1191-1.66016 23.9258-1.66016L114.258-1.66016Q116.113-1.66016 116.113-3.51562L116.113-66.9922Q116.113-68.7988 114.258-68.7988ZM25.8301-65.8203L112.354-65.8203Q113.086-65.8203 113.086-65.0879L113.086-5.41992Q113.086-4.6875 112.354-4.6875L25.8301-4.6875Q25.0977-4.6875 25.0977-5.41992L25.0977-65.0879Q25.0977-65.8203 25.8301-65.8203ZM114.502-11.9141L89.3555-34.8633Q87.8418-36.2793 86.2793-36.9873Q84.7168-37.6953 82.7637-37.6953Q80.9082-37.6953 79.3701-37.0117Q77.832-36.3281 76.3184-34.9609L57.4707-18.1152L49.6094-25.4883Q48.3398-26.6602 46.9971-27.3193Q45.6543-27.9785 44.043-27.9785Q42.4805-27.9785 41.2598-27.3193Q40.0391-26.6602 38.7207-25.4883L23.4863-11.1816L23.4863-5.76172Q23.4863-4.44336 24.1699-3.73535Q24.8535-3.02734 25.9766-3.02734L112.012-3.02734Q113.135-3.02734 113.818-3.73535Q114.502-4.44336 114.502-5.76172ZM51.1719-36.2793Q55.127-36.2793 57.959-39.1357Q60.791-41.9922 60.791-45.9961Q60.791-50 57.959-52.8564Q55.127-55.7129 51.1719-55.7129Q47.168-55.7129 44.3359-52.8564Q41.5039-50 41.5039-45.9961Q41.5039-41.9922 44.3359-39.1357Q47.168-36.2793 51.1719-36.2793Z"/>
   <path class="hierarchical-1:primary SFSymbolsPreview212121" d="M14.9902-78.4668Q13.8184-78.4668 13.1348-77.7832Q12.4512-77.0996 12.4512-75.9277L12.4512 5.41992Q12.4512 6.5918 13.1348 7.27539Q13.8184 7.95898 14.9902 7.95898L123.193 7.95898Q124.414 7.95898 125.098 7.27539Q125.781 6.5918 125.781 5.41992L125.781-75.9277Q125.781-77.0996 125.098-77.7832Q124.414-78.4668 123.193-78.4668ZM17.1387-74.8535L121.094-74.8535Q122.119-74.8535 122.119-73.8281L122.119 3.27148Q122.119 4.3457 121.094 4.3457L17.1387 4.3457Q16.1133 4.3457 16.1133 3.27148L16.1133-73.8281Q16.1133-74.8535 17.1387-74.8535Z"/>
  </g>
  <g id="Ultralight-M" transform="matrix(1 0 0 1 490.863 1126)">
   <path class="hierarchical-0:secondary SFSymbolsPreview4D4D4D" d="M22.6074-69.2871Q21.0938-69.2871 21.0938-67.7734L21.0938-2.68555Q21.0938-1.17188 22.6074-1.17188L115.039-1.17188Q116.602-1.17188 116.602-2.68555L116.602-67.7734Q116.602-69.2871 115.039-69.2871ZM24.1211-66.8945L113.477-66.8945Q114.111-66.8945 114.111-66.2598L114.111-4.24805Q114.111-3.61328 113.477-3.61328L24.1211-3.61328Q23.5352-3.61328 23.5352-4.24805L23.5352-66.2598Q23.5352-66.8945 24.1211-66.8945ZM115.625-11.0352L89.6973-34.5215Q88.0859-36.0352 86.499-36.7676Q84.9121-37.5 82.8613-37.5Q80.9082-37.5 79.3457-36.7676Q77.7832-36.0352 76.2207-34.6191L56.8848-17.3828L48.7793-25.0488Q47.4609-26.2695 46.1182-26.9287Q44.7754-27.5879 43.1152-27.5879Q41.4551-27.5879 40.21-26.9287Q38.9648-26.2695 37.6465-25.0488L22.2168-10.3516L22.2168-4.49219Q22.2168-3.4668 22.7539-2.88086Q23.291-2.29492 24.1699-2.29492L113.672-2.29492Q114.502-2.29492 115.063-2.88086Q115.625-3.4668 115.625-4.49219ZM50.5371-36.5234Q54.5898-36.5234 57.4707-39.4287Q60.3516-42.334 60.3516-46.3867Q60.3516-50.4883 57.4707-53.418Q54.5898-56.3477 50.5371-56.3477Q46.4844-56.3477 43.5791-53.418Q40.6738-50.4883 40.6738-46.3867Q40.6738-42.334 43.5791-39.4287Q46.4844-36.5234 50.5371-36.5234Z"/>
   <path class="hierarchical-1:primary SFSymbolsPreview212121" d="M14.5996-77.9785Q13.623-77.9785 13.0371-77.417Q12.4512-76.8555 12.4512-75.8301L12.4512 5.32227Q12.4512 6.29883 13.0371 6.88477Q13.623 7.4707 14.5996 7.4707L123.047 7.4707Q124.072 7.4707 124.658 6.88477Q125.244 6.29883 125.244 5.32227L125.244-75.8301Q125.244-76.8555 124.658-77.417Q124.072-77.9785 123.047-77.9785ZM15.7715-75.5859L121.875-75.5859Q122.803-75.5859 122.803-74.6582L122.803 4.10156Q122.803 5.07812 121.875 5.07812L15.7715 5.07812Q14.8438 5.07812 14.8438 4.10156L14.8438-74.6582Q14.8438-75.5859 15.7715-75.5859Z"/>
  </g>
  <g id="Black-S" transform="matrix(1 0 0 1 2877.35 696)">
   <path class="hierarchical-0:secondary SFSymbolsPreview4D4D4D" d="M26.9531-57.2266Q25.8789-57.2266 25.8789-56.25L25.8789-14.1602Q25.8789-13.1836 26.9531-13.1836L85.1562-13.1836Q86.2305-13.1836 86.2305-14.1602L86.2305-56.25Q86.2305-57.2266 85.1562-57.2266ZM31.3477-52.2949L80.7617-52.2949Q81.25-52.2949 81.25-51.8066L81.25-18.6035Q81.25-18.1152 80.7617-18.1152L31.3477-18.1152Q30.8594-18.1152 30.8594-18.6035L30.8594-51.8066Q30.8594-52.2949 31.3477-52.2949ZM83.5938-21.9238L68.7012-35.7422Q67.9199-36.4746 66.9434-36.8652Q65.9668-37.2559 64.9902-37.2559Q63.9648-37.2559 63.0371-36.8896Q62.1094-36.5234 61.2305-35.7422L49.8535-25.5859L45.2637-29.7363Q44.4824-30.4688 43.5791-30.7861Q42.6758-31.1035 41.7969-31.1035Q40.8203-31.1035 40.1123-30.7617Q39.4043-30.4199 38.5742-29.7363L29.4434-21.9238L29.4434-15.918Q29.4434-14.7949 29.9805-14.3311Q30.5176-13.8672 31.4453-13.8672L81.5918-13.8672Q82.5195-13.8672 83.0566-14.3311Q83.5938-14.7949 83.5938-15.918ZM48.3398-34.1309Q51.0254-34.1309 52.9785-36.1084Q54.9316-38.0859 54.9316-40.7715Q54.9316-43.457 52.9785-45.4102Q51.0254-47.3633 48.3398-47.3633Q45.6543-47.3633 43.7256-45.4102Q41.7969-43.457 41.7969-40.7715Q41.7969-38.0859 43.7256-36.1084Q45.6543-34.1309 48.3398-34.1309Z"/>
   <path class="hierarchical-1:primary SFSymbolsPreview212121" d="M14.1602-73.3398Q12.207-73.3398 10.9863-72.1436Q9.76562-70.9473 9.76562-68.9453L9.76562-1.46484Q9.76562 0.488281 10.9863 1.70898Q12.207 2.92969 14.1602 2.92969L97.9492 2.92969Q99.9512 2.92969 101.147 1.70898Q102.344 0.488281 102.344-1.46484L102.344-68.9453Q102.344-70.9473 101.147-72.1436Q99.9512-73.3398 97.9492-73.3398ZM24.9023-59.1797L87.207-59.1797Q88.1836-59.1797 88.1836-58.2031L88.1836-12.207Q88.1836-11.2305 87.207-11.2305L24.9023-11.2305Q23.9258-11.2305 23.9258-12.207L23.9258-58.2031Q23.9258-59.1797 24.9023-59.1797Z"/>
  </g>
  <g id="Heavy-S" transform="matrix(1 0 0 1 2580.88 696)">
   <path class="hierarchical-0:secondary SFSymbolsPreview4D4D4D" d="M26.0742-57.8125Q24.6582-57.8125 24.6582-56.4941L24.6582-13.916Q24.6582-12.5977 26.0742-12.5977L85.5469-12.5977Q86.9629-12.5977 86.9629-13.916L86.9629-56.4941Q86.9629-57.8125 85.5469-57.8125ZM30.0781-53.0762L81.543-53.0762Q82.1777-53.0762 82.1777-52.4414L82.1777-17.9688Q82.1777-17.334 81.543-17.334L30.0781-17.334Q29.4922-17.334 29.4922-17.9688L29.4922-52.4414Q29.4922-53.0762 30.0781-53.0762ZM84.1797-21.4355L68.75-35.791Q67.9199-36.5723 66.9189-36.9629Q65.918-37.3535 64.8926-37.3535Q63.8184-37.3535 62.8662-36.9873Q61.9141-36.6211 60.9863-35.8398L49.2188-25.293L44.4336-29.5898Q43.6035-30.3223 42.6758-30.6641Q41.748-31.0059 40.8691-31.0059Q39.8926-31.0059 39.1357-30.6641Q38.3789-30.3223 37.5-29.5898L27.8809-21.2402L27.8809-16.0156Q27.8809-14.6973 28.54-14.1357Q29.1992-13.5742 30.3223-13.5742L81.7383-13.5742Q82.8613-13.5742 83.5205-14.1357Q84.1797-14.6973 84.1797-16.0156ZM46.875-34.4238Q49.6094-34.4238 51.5869-36.4258Q53.5645-38.4277 53.5645-41.1133Q53.5645-43.8477 51.5869-45.8252Q49.6094-47.8027 46.875-47.8027Q44.1895-47.8027 42.2363-45.8252Q40.2832-43.8477 40.2832-41.1133Q40.2832-38.4277 42.2363-36.4258Q44.1895-34.4238 46.875-34.4238Z"/>
   <path class="hierarchical-1:primary SFSymbolsPreview212121" d="M13.916-72.7539Q12.0605-72.7539 10.9131-71.6064Q9.76562-70.459 9.76562-68.6035L9.76562-1.80664Q9.76562 0.0488281 10.9131 1.19629Q12.0605 2.34375 13.916 2.34375L97.7539 2.34375Q99.6094 2.34375 100.732 1.19629Q101.855 0.0488281 101.855-1.80664L101.855-68.6035Q101.855-70.459 100.732-71.6064Q99.6094-72.7539 97.7539-72.7539ZM23.291-60.2539L88.3789-60.2539Q89.4043-60.2539 89.4043-59.2285L89.4043-11.1816Q89.4043-10.1562 88.3789-10.1562L23.291-10.1562Q22.2656-10.1562 22.2656-11.1816L22.2656-59.2285Q22.2656-60.2539 23.291-60.2539Z"/>
  </g>
  <g id="Bold-S" transform="matrix(1 0 0 1 2284.41 696)">
   <path class="hierarchical-0:secondary SFSymbolsPreview4D4D4D" d="M25.0977-58.4961Q23.3398-58.4961 23.3398-56.8359L23.3398-13.623Q23.3398-11.9141 25.0977-11.9141L86.0352-11.9141Q87.793-11.9141 87.793-13.623L87.793-56.8359Q87.793-58.4961 86.0352-58.4961ZM28.6621-53.9062L82.4707-53.9062Q83.2031-53.9062 83.2031-53.2227L83.2031-17.2363Q83.2031-16.5039 82.4707-16.5039L28.6621-16.5039Q27.9785-16.5039 27.9785-17.2363L27.9785-53.2227Q27.9785-53.9062 28.6621-53.9062ZM84.8145-20.8984L68.8477-35.8887Q67.9688-36.7188 66.9189-37.1094Q65.8691-37.5 64.7949-37.5Q63.6719-37.5 62.6709-37.1338Q61.6699-36.7676 60.7422-35.9375L48.4863-24.9512L43.5059-29.4434Q42.6758-30.2246 41.6992-30.5664Q40.7227-30.9082 39.7949-30.9082Q38.8184-30.9082 38.0127-30.5664Q37.207-30.2246 36.3281-29.4434L26.123-20.5078L26.123-16.1621Q26.123-14.5508 26.9287-13.8916Q27.7344-13.2324 29.0527-13.2324L81.9336-13.2324Q83.252-13.2324 84.0332-13.8916Q84.8145-14.5508 84.8145-16.1621ZM45.3125-34.7656Q48.0469-34.7656 50.0488-36.7676Q52.0508-38.7695 52.0508-41.5527Q52.0508-44.2871 50.0488-46.2891Q48.0469-48.291 45.3125-48.291Q42.5293-48.291 40.5518-46.2891Q38.5742-44.2871 38.5742-41.5527Q38.5742-38.7695 40.5518-36.7676Q42.5293-34.7656 45.3125-34.7656Z"/>
   <path class="hierarchical-1:primary SFSymbolsPreview212121" d="M13.623-72.0703Q11.9141-72.0703 10.8398-71.0205Q9.76562-69.9707 9.76562-68.2129L9.76562-2.24609Q9.76562-0.488281 10.8398 0.585938Q11.9141 1.66016 13.623 1.66016L97.5098 1.66016Q99.2676 1.66016 100.317 0.585938Q101.367-0.488281 101.367-2.24609L101.367-68.2129Q101.367-69.9707 100.317-71.0205Q99.2676-72.0703 97.5098-72.0703ZM21.4844-61.4746L89.6973-61.4746Q90.7715-61.4746 90.7715-60.4004L90.7715-10.0586Q90.7715-8.98438 89.6973-8.98438L21.4844-8.98438Q20.3613-8.98438 20.3613-10.0586L20.3613-60.4004Q20.3613-61.4746 21.4844-61.4746Z"/>
  </g>
  <g id="Semibold-S" transform="matrix(1 0 0 1 1987.9 696)">
   <path class="hierarchical-0:secondary SFSymbolsPreview4D4D4D" d="M24.4141-58.9355Q22.3633-58.9355 22.3633-57.0312L22.3633-13.3789Q22.3633-11.4746 24.4141-11.4746L86.377-11.4746Q88.3789-11.4746 88.3789-13.3789L88.3789-57.0312Q88.3789-58.9355 86.377-58.9355ZM27.6855-54.4922L83.0566-54.4922Q83.8867-54.4922 83.8867-53.7109L83.8867-16.748Q83.8867-15.918 83.0566-15.918L27.6855-15.918Q26.9043-15.918 26.9043-16.748L26.9043-53.7109Q26.9043-54.4922 27.6855-54.4922ZM85.2539-20.5078L68.8477-35.9375Q67.9688-36.7676 66.8945-37.1826Q65.8203-37.5977 64.7461-37.5977Q63.5742-37.5977 62.5244-37.2314Q61.4746-36.8652 60.5469-35.9863L47.9492-24.707L42.8711-29.2969Q41.9922-30.0781 40.9912-30.4688Q39.9902-30.8594 39.0625-30.8594Q38.0859-30.8594 37.2314-30.4932Q36.377-30.127 35.498-29.3457L24.9023-19.9707L24.9023-16.2109Q24.9023-14.4531 25.8057-13.7207Q26.709-12.9883 28.125-12.9883L82.0312-12.9883Q83.4961-12.9883 84.375-13.7207Q85.2539-14.4531 85.2539-16.2109ZM44.1895-34.9609Q46.9727-34.9609 48.9746-36.9873Q50.9766-39.0137 50.9766-41.7969Q50.9766-44.5801 48.9746-46.582Q46.9727-48.584 44.1895-48.584Q41.4062-48.584 39.4043-46.582Q37.4023-44.5801 37.4023-41.7969Q37.4023-39.0137 39.4043-36.9873Q41.4062-34.9609 44.1895-34.9609Z"/>
   <path class="hierarchical-1:primary SFSymbolsPreview212121" d="M13.4277-71.6309Q11.7676-71.6309 10.7666-70.6055Q9.76562-69.5801 9.76562-67.9688L9.76562-2.49023Q9.76562-0.830078 10.7666 0.195312Q11.7676 1.2207 13.4277 1.2207L97.3145 1.2207Q98.9746 1.2207 99.9756 0.195312Q100.977-0.830078 100.977-2.49023L100.977-67.9688Q100.977-69.5801 99.9756-70.6055Q98.9746-71.6309 97.3145-71.6309ZM20.2148-62.2559L90.5762-62.2559Q91.6992-62.2559 91.6992-61.1816L91.6992-9.22852Q91.6992-8.1543 90.5762-8.1543L20.2148-8.1543Q19.043-8.1543 19.043-9.22852L19.043-61.1816Q19.043-62.2559 20.2148-62.2559Z"/>
  </g>
  <g id="Medium-S" transform="matrix(1 0 0 1 1691.33 696)">
   <path class="hierarchical-0:secondary SFSymbolsPreview4D4D4D" d="M23.9258-59.3262Q21.6797-59.3262 21.6797-57.1777L21.6797-13.2324Q21.6797-11.084 23.9258-11.084L86.6211-11.084Q88.7695-11.084 88.7695-13.2324L88.7695-57.1777Q88.7695-59.3262 86.6211-59.3262ZM26.9531-54.9316L83.5449-54.9316Q84.4238-54.9316 84.4238-54.1016L84.4238-16.3574Q84.4238-15.4785 83.5449-15.4785L26.9531-15.4785Q26.0742-15.4785 26.0742-16.3574L26.0742-54.1016Q26.0742-54.9316 26.9531-54.9316ZM85.5957-20.2637L68.8965-35.9863Q67.9688-36.8164 66.8701-37.2314Q65.7715-37.6465 64.6484-37.6465Q63.4766-37.6465 62.4023-37.2803Q61.3281-36.9141 60.4004-36.0352L47.5586-24.5605L42.3828-29.1992Q41.4551-30.0293 40.4541-30.3955Q39.4531-30.7617 38.5254-30.7617Q37.5488-30.7617 36.6455-30.4199Q35.7422-30.0781 34.8633-29.248L23.9746-19.5801L23.9746-16.2598Q23.9746-14.4043 24.9756-13.5986Q25.9766-12.793 27.4902-12.793L82.1289-12.793Q83.6914-12.793 84.6436-13.5986Q85.5957-14.4043 85.5957-16.2598ZM43.3105-35.1562Q46.1426-35.1562 48.1445-37.1826Q50.1465-39.209 50.1465-41.9922Q50.1465-44.8242 48.1445-46.8262Q46.1426-48.8281 43.3105-48.8281Q40.5273-48.8281 38.5254-46.8262Q36.5234-44.8242 36.5234-41.9922Q36.5234-39.209 38.5254-37.1826Q40.5273-35.1562 43.3105-35.1562Z"/>
   <path class="hierarchical-1:primary SFSymbolsPreview212121" d="M13.2812-71.2402Q11.6699-71.2402 10.7178-70.2637Q9.76562-69.2871 9.76562-67.7246L9.76562-2.68555Q9.76562-1.12305 10.7178-0.146484Q11.6699 0.830078 13.2812 0.830078L97.168 0.830078Q98.7793 0.830078 99.7314-0.146484Q100.684-1.12305 100.684-2.68555L100.684-67.7246Q100.684-69.2871 99.7314-70.2637Q98.7793-71.2402 97.168-71.2402ZM19.2383-62.8906L91.2598-62.8906Q92.3828-62.8906 92.3828-61.7676L92.3828-8.64258Q92.3828-7.51953 91.2598-7.51953L19.2383-7.51953Q18.0664-7.51953 18.0664-8.64258L18.0664-61.7676Q18.0664-62.8906 19.2383-62.8906Z"/>
  </g>
  <g id="Regular-S" transform="matrix(1 0 0 1 1394.79 696)">
   <path class="hierarchical-0:secondary SFSymbolsPreview4D4D4D" d="M23.2422-59.7656Q20.752-59.7656 20.752-57.373L20.752-13.0371Q20.752-10.6445 23.2422-10.6445L86.9141-10.6445Q89.3555-10.6445 89.3555-13.0371L89.3555-57.373Q89.3555-59.7656 86.9141-59.7656ZM25.9766-55.5176L84.1309-55.5176Q85.1074-55.5176 85.1074-54.5898L85.1074-15.8691Q85.1074-14.8926 84.1309-14.8926L25.9766-14.8926Q25.0488-14.8926 25.0488-15.8691L25.0488-54.5898Q25.0488-55.5176 25.9766-55.5176ZM86.0352-19.873L68.9453-36.0352Q67.9688-36.9141 66.8457-37.3291Q65.7227-37.7441 64.5996-37.7441Q63.3789-37.7441 62.2803-37.3779Q61.1816-37.0117 60.2051-36.084L47.0703-24.3164L41.748-29.1016Q40.8203-29.9316 39.7949-30.3223Q38.7695-30.7129 37.793-30.7129Q36.8164-30.7129 35.8887-30.3467Q34.9609-29.9805 34.0332-29.1504L22.8027-19.0918L22.8027-16.3574Q22.8027-14.3066 23.877-13.4277Q24.9512-12.5488 26.6113-12.5488L82.2266-12.5488Q83.9355-12.5488 84.9854-13.4277Q86.0352-14.3066 86.0352-16.3574ZM42.2363-35.3516Q45.0684-35.3516 47.0947-37.4023Q49.1211-39.4531 49.1211-42.2852Q49.1211-45.1172 47.0947-47.1436Q45.0684-49.1699 42.2363-49.1699Q39.4043-49.1699 37.3779-47.1436Q35.3516-45.1172 35.3516-42.2852Q35.3516-39.4531 37.3779-37.4023Q39.4043-35.3516 42.2363-35.3516Z"/>
   <path class="hierarchical-1:primary SFSymbolsPreview212121" d="M13.0859-70.8008Q11.5723-70.8008 10.6689-69.873Q9.76562-68.9453 9.76562-67.4805L9.76562-2.97852Q9.76562-1.46484 10.6689-0.537109Q11.5723 0.390625 13.0859 0.390625L97.0215 0.390625Q98.5352 0.390625 99.4385-0.537109Q100.342-1.46484 100.342-2.97852L100.342-67.4805Q100.342-68.9453 99.4385-69.873Q98.5352-70.8008 97.0215-70.8008ZM18.0176-63.7207L92.1387-63.7207Q93.3105-63.7207 93.3105-62.5488L93.3105-7.86133Q93.3105-6.68945 92.1387-6.68945L18.0176-6.68945Q16.7969-6.68945 16.7969-7.86133L16.7969-62.5488Q16.7969-63.7207 18.0176-63.7207Z"/>
  </g>
  <g id="Light-S" transform="matrix(1 0 0 1 1098.42 696)">
   <path class="hierarchical-0:secondary SFSymbolsPreview4D4D4D" d="M21.5332-60.4492Q19.4336-60.4492 19.4336-58.4473L19.4336-12.0117Q19.4336-10.0098 21.5332-10.0098L87.8906-10.0098Q89.9902-10.0098 89.9902-12.0117L89.9902-58.4473Q89.9902-60.4492 87.8906-60.4492ZM23.7793-56.9336L85.6445-56.9336Q86.4746-56.9336 86.4746-56.1523L86.4746-14.3555Q86.4746-13.5254 85.6445-13.5254L23.7793-13.5254Q22.998-13.5254 22.998-14.3555L22.998-56.1523Q22.998-56.9336 23.7793-56.9336ZM87.4512-18.75L69.3848-35.5957Q68.3105-36.5723 67.1387-37.0361Q65.9668-37.5 64.6973-37.5Q63.3789-37.5 62.2314-37.085Q61.084-36.6699 60.0586-35.6445L46.2891-23.3398L40.625-28.5156Q39.6973-29.3945 38.6475-29.834Q37.5977-30.2734 36.5234-30.2734Q35.4492-30.2734 34.5215-29.8584Q33.5938-29.4434 32.6172-28.5645L21.1426-18.0664L21.1426-14.7461Q21.1426-13.0859 21.9971-12.3291Q22.8516-11.5723 24.2188-11.5723L84.375-11.5723Q85.7422-11.5723 86.5967-12.3291Q87.4512-13.0859 87.4512-14.7461ZM41.4062-35.6445Q44.3359-35.6445 46.4355-37.7441Q48.5352-39.8438 48.5352-42.8223Q48.5352-45.752 46.4355-47.8516Q44.3359-49.9512 41.4062-49.9512Q38.4766-49.9512 36.377-47.8516Q34.2773-45.752 34.2773-42.8223Q34.2773-39.8438 36.377-37.7441Q38.4766-35.6445 41.4062-35.6445Z"/>
   <path class="hierarchical-1:primary SFSymbolsPreview212121" d="M12.5488-70.166Q11.2793-70.166 10.5225-69.3848Q9.76562-68.6035 9.76562-67.334L9.76562-3.125Q9.76562-1.85547 10.5225-1.07422Q11.2793-0.292969 12.5488-0.292969L96.8262-0.292969Q98.1445-0.292969 98.9014-1.07422Q99.6582-1.85547 99.6582-3.125L99.6582-67.334Q99.6582-68.6035 98.9014-69.3848Q98.1445-70.166 96.8262-70.166ZM16.2598-64.6973L93.2129-64.6973Q94.2383-64.6973 94.2383-63.6719L94.2383-6.78711Q94.2383-5.76172 93.2129-5.76172L16.2598-5.76172Q15.1855-5.76172 15.1855-6.78711L15.1855-63.6719Q15.1855-64.6973 16.2598-64.6973Z"/>
  </g>
  <g id="Thin-S" transform="matrix(1 0 0 1 802.174 696)">
   <path class="hierarchical-0:secondary SFSymbolsPreview4D4D4D" d="M19.2871-61.3281Q17.6758-61.3281 17.6758-59.8145L17.6758-10.6934Q17.6758-9.13086 19.2871-9.13086L89.2578-9.13086Q90.8203-9.13086 90.8203-10.6934L90.8203-59.8145Q90.8203-61.3281 89.2578-61.3281ZM20.8984-58.7891L87.5977-58.7891Q88.2324-58.7891 88.2324-58.1543L88.2324-12.3047Q88.2324-11.6699 87.5977-11.6699L20.8984-11.6699Q20.2637-11.6699 20.2637-12.3047L20.2637-58.1543Q20.2637-58.7891 20.8984-58.7891ZM89.3555-17.2363L69.9219-35.0586Q68.75-36.1328 67.5293-36.6699Q66.3086-37.207 64.7949-37.207Q63.3789-37.207 62.1826-36.6943Q60.9863-36.1816 59.8633-35.1074L45.2637-22.1191L39.1602-27.7832Q38.1836-28.7109 37.1338-29.1748Q36.084-29.6387 34.8633-29.6387Q33.6914-29.6387 32.7148-29.1748Q31.7383-28.7109 30.7617-27.7832L18.8965-16.6992L18.8965-12.5977Q18.8965-11.4746 19.5068-10.8887Q20.1172-10.3027 21.0449-10.3027L87.207-10.3027Q88.1348-10.3027 88.7451-10.8887Q89.3555-11.4746 89.3555-12.5977ZM40.332-35.9863Q43.3594-35.9863 45.5811-38.1836Q47.8027-40.3809 47.8027-43.5059Q47.8027-46.582 45.5811-48.8037Q43.3594-51.0254 40.332-51.0254Q37.207-51.0254 35.0098-48.8037Q32.8125-46.582 32.8125-43.5059Q32.8125-40.3809 35.0098-38.1836Q37.207-35.9863 40.332-35.9863Z"/>
   <path class="hierarchical-1:primary SFSymbolsPreview212121" d="M11.9141-69.2871Q10.8887-69.2871 10.3271-68.7012Q9.76562-68.1152 9.76562-67.1875L9.76562-3.32031Q9.76562-2.34375 10.3271-1.75781Q10.8887-1.17188 11.9141-1.17188L96.582-1.17188Q97.6074-1.17188 98.1689-1.75781Q98.7305-2.34375 98.7305-3.32031L98.7305-67.1875Q98.7305-68.1152 98.1689-68.7012Q97.6074-69.2871 96.582-69.2871ZM13.916-65.9668L94.5801-65.9668Q95.4102-65.9668 95.4102-65.1367L95.4102-5.32227Q95.4102-4.49219 94.5801-4.49219L13.916-4.49219Q13.0859-4.49219 13.0859-5.32227L13.0859-65.1367Q13.0859-65.9668 13.916-65.9668Z"/>
  </g>
  <g id="Ultralight-S" transform="matrix(1 0 0 1 505.707 696)">
   <path class="hierarchical-0:secondary SFSymbolsPreview4D4D4D" d="M18.1152-61.8164Q16.7969-61.8164 16.7969-60.5469L16.7969-10.0098Q16.7969-8.69141 18.1152-8.69141L89.8926-8.69141Q91.2109-8.69141 91.2109-10.0098L91.2109-60.5469Q91.2109-61.8164 89.8926-61.8164ZM19.3848-59.7168L88.623-59.7168Q89.1602-59.7168 89.1602-59.2285L89.1602-11.2793Q89.1602-10.7422 88.623-10.7422L19.3848-10.7422Q18.8965-10.7422 18.8965-11.2793L18.8965-59.2285Q18.8965-59.7168 19.3848-59.7168ZM90.2832-16.4551L70.2148-34.7656Q68.9453-35.9375 67.7002-36.499Q66.4551-37.0605 64.8926-37.0605Q63.3789-37.0605 62.1582-36.499Q60.9375-35.9375 59.7656-34.8145L44.7754-21.4355L38.4277-27.3926Q37.4023-28.3203 36.3525-28.833Q35.3027-29.3457 34.0332-29.3457Q32.7637-29.3457 31.7871-28.8574Q30.8105-28.3691 29.834-27.3926L17.7734-16.0156L17.7734-11.4746Q17.7734-10.6445 18.2373-10.1318Q18.7012-9.61914 19.4336-9.61914L88.623-9.61914Q89.4043-9.61914 89.8438-10.1318Q90.2832-10.6445 90.2832-11.4746ZM39.7949-36.1816Q42.8711-36.1816 45.1416-38.4277Q47.4121-40.6738 47.4121-43.8965Q47.4121-47.0215 45.1416-49.292Q42.8711-51.5625 39.7949-51.5625Q36.5723-51.5625 34.3262-49.292Q32.0801-47.0215 32.0801-43.8965Q32.0801-40.6738 34.3262-38.4277Q36.5723-36.1816 39.7949-36.1816Z"/>
   <path class="hierarchical-1:primary SFSymbolsPreview212121" d="M11.5234-68.8477Q10.6934-68.8477 10.2295-68.3838Q9.76562-67.9199 9.76562-67.0898L9.76562-3.41797Q9.76562-2.58789 10.2295-2.12402Q10.6934-1.66016 11.5234-1.66016L96.4844-1.66016Q97.3145-1.66016 97.7783-2.12402Q98.2422-2.58789 98.2422-3.41797L98.2422-67.0898Q98.2422-67.9199 97.7783-68.3838Q97.3145-68.8477 96.4844-68.8477ZM12.6953-66.6504L95.3125-66.6504Q96.0449-66.6504 96.0449-65.918L96.0449-4.58984Q96.0449-3.85742 95.3125-3.85742L12.6953-3.85742Q11.9629-3.85742 11.9629-4.58984L11.9629-65.918Q11.9629-66.6504 12.6953-66.6504Z"/>
  </g>
 </g>
</svg>
