<?xml version="1.0" encoding="UTF-8"?>
<!--Generator: Apple Native CoreSVG 175-->
<!DOCTYPE svg
PUBLIC "-//W3C//DTD SVG 1.1//EN"
       "http://www.w3.org/Graphics/SVG/1.1/DTD/svg11.dtd">
<svg version="1.1" xmlns="http://www.w3.org/2000/svg" xmlns:xlink="http://www.w3.org/1999/xlink" width="3300" height="2200">
 <!--glyph: "uni1009E8.medium", point size: 100.0, font version: "17.0d11e1", template writer version: "65.1"-->
 <style>.hierarchical-0:tertiary {fill:#8E8E8E}
.hierarchical-1:primary {fill:#212121}

.SFSymbolsPreview212121 {fill:#212121;opacity:1.0}
.SFSymbolsPreview8E8E8E {fill:#8E8E8E;opacity:1.0}
</style>
 <g id="Notes">
  <rect height="2200" id="artboard" style="fill:white;opacity:1" width="3300" x="0" y="0"/>
  <line style="fill:none;stroke:black;opacity:1;stroke-width:0.5;" x1="263" x2="3036" y1="292" y2="292"/>
  <text style="stroke:none;fill:black;font-family:sans-serif;font-size:13;font-weight:bold;" transform="matrix(1 0 0 1 263 322)">Weight/Scale Variations</text>
  <text style="stroke:none;fill:black;font-family:sans-serif;font-size:13;text-anchor:middle;" transform="matrix(1 0 0 1 559.711 322)">Ultralight</text>
  <text style="stroke:none;fill:black;font-family:sans-serif;font-size:13;text-anchor:middle;" transform="matrix(1 0 0 1 856.422 322)">Thin</text>
  <text style="stroke:none;fill:black;font-family:sans-serif;font-size:13;text-anchor:middle;" transform="matrix(1 0 0 1 1153.13 322)">Light</text>
  <text style="stroke:none;fill:black;font-family:sans-serif;font-size:13;text-anchor:middle;" transform="matrix(1 0 0 1 1449.84 322)">Regular</text>
  <text style="stroke:none;fill:black;font-family:sans-serif;font-size:13;text-anchor:middle;" transform="matrix(1 0 0 1 1746.56 322)">Medium</text>
  <text style="stroke:none;fill:black;font-family:sans-serif;font-size:13;text-anchor:middle;" transform="matrix(1 0 0 1 2043.27 322)">Semibold</text>
  <text style="stroke:none;fill:black;font-family:sans-serif;font-size:13;text-anchor:middle;" transform="matrix(1 0 0 1 2339.98 322)">Bold</text>
  <text style="stroke:none;fill:black;font-family:sans-serif;font-size:13;text-anchor:middle;" transform="matrix(1 0 0 1 2636.69 322)">Heavy</text>
  <text style="stroke:none;fill:black;font-family:sans-serif;font-size:13;text-anchor:middle;" transform="matrix(1 0 0 1 2933.4 322)">Black</text>
  <line style="fill:none;stroke:black;opacity:1;stroke-width:0.5;" x1="263" x2="3036" y1="1903" y2="1903"/>
  <g transform="matrix(1 0 0 1 263 1933)">
   <path d="M9.24805 0.830078Q10.8691 0.830078 12.2949 0.214844Q13.7207-0.400391 14.8096-1.49414Q15.8984-2.58789 16.5186-4.01367Q17.1387-5.43945 17.1387-7.05078Q17.1387-8.66211 16.5186-10.0879Q15.8984-11.5137 14.8047-12.6074Q13.7109-13.7012 12.2852-14.3164Q10.8594-14.9316 9.23828-14.9316Q7.62695-14.9316 6.20117-14.3164Q4.77539-13.7012 3.69141-12.6074Q2.60742-11.5137 1.9873-10.0879Q1.36719-8.66211 1.36719-7.05078Q1.36719-5.43945 1.9873-4.01367Q2.60742-2.58789 3.69629-1.49414Q4.78516-0.400391 6.21094 0.214844Q7.63672 0.830078 9.24805 0.830078ZM9.24805-0.654297Q7.91992-0.654297 6.7627-1.14746Q5.60547-1.64062 4.73145-2.51953Q3.85742-3.39844 3.36426-4.56055Q2.87109-5.72266 2.87109-7.05078Q2.87109-8.37891 3.35938-9.54102Q3.84766-10.7031 4.72168-11.582Q5.5957-12.4609 6.75293-12.9541Q7.91016-13.4473 9.23828-13.4473Q10.5762-13.4473 11.7334-12.9541Q12.8906-12.4609 13.7695-11.582Q14.6484-10.7031 15.1465-9.54102Q15.6445-8.37891 15.6445-7.05078Q15.6445-5.72266 15.1514-4.56055Q14.6582-3.39844 13.7842-2.51953Q12.9102-1.64062 11.748-1.14746Q10.5859-0.654297 9.24805-0.654297ZM5.6543-7.05078Q5.6543-6.72852 5.85938-6.52832Q6.06445-6.32812 6.40625-6.32812L8.51562-6.32812L8.51562-4.20898Q8.51562-3.88672 8.71094-3.67676Q8.90625-3.4668 9.23828-3.4668Q9.56055-3.4668 9.77051-3.67676Q9.98047-3.88672 9.98047-4.20898L9.98047-6.32812L12.0898-6.32812Q12.4219-6.32812 12.627-6.52832Q12.832-6.72852 12.832-7.05078Q12.832-7.38281 12.627-7.58789Q12.4219-7.79297 12.0898-7.79297L9.98047-7.79297L9.98047-9.90234Q9.98047-10.2344 9.77051-10.4443Q9.56055-10.6543 9.23828-10.6543Q8.90625-10.6543 8.71094-10.4443Q8.51562-10.2344 8.51562-9.90234L8.51562-7.79297L6.40625-7.79297Q6.06445-7.79297 5.85938-7.58789Q5.6543-7.38281 5.6543-7.05078Z"/>
  </g>
  <g transform="matrix(1 0 0 1 281.867 1933)">
   <path d="M11.709 2.91016Q13.75 2.91016 15.5518 2.12891Q17.3535 1.34766 18.7305-0.0292969Q20.1074-1.40625 20.8887-3.20801Q21.6699-5.00977 21.6699-7.05078Q21.6699-9.0918 20.8887-10.8936Q20.1074-12.6953 18.7305-14.0723Q17.3535-15.4492 15.5469-16.2305Q13.7402-17.0117 11.6992-17.0117Q9.6582-17.0117 7.85645-16.2305Q6.05469-15.4492 4.68262-14.0723Q3.31055-12.6953 2.5293-10.8936Q1.74805-9.0918 1.74805-7.05078Q1.74805-5.00977 2.5293-3.20801Q3.31055-1.40625 4.6875-0.0292969Q6.06445 1.34766 7.86621 2.12891Q9.66797 2.91016 11.709 2.91016ZM11.709 1.25Q9.98047 1.25 8.47656 0.605469Q6.97266-0.0390625 5.83496-1.17676Q4.69727-2.31445 4.05762-3.81836Q3.41797-5.32227 3.41797-7.05078Q3.41797-8.7793 4.05762-10.2832Q4.69727-11.7871 5.83008-12.9297Q6.96289-14.0723 8.4668-14.7119Q9.9707-15.3516 11.6992-15.3516Q13.4277-15.3516 14.9316-14.7119Q16.4355-14.0723 17.5781-12.9297Q18.7207-11.7871 19.3652-10.2832Q20.0098-8.7793 20.0098-7.05078Q20.0098-5.32227 19.3701-3.81836Q18.7305-2.31445 17.5928-1.17676Q16.4551-0.0390625 14.9463 0.605469Q13.4375 1.25 11.709 1.25ZM7.17773-7.05078Q7.17773-6.69922 7.41211-6.47461Q7.64648-6.25 8.01758-6.25L10.8887-6.25L10.8887-3.36914Q10.8887-2.99805 11.1133-2.76855Q11.3379-2.53906 11.6895-2.53906Q12.0605-2.53906 12.29-2.76855Q12.5195-2.99805 12.5195-3.36914L12.5195-6.25L15.4004-6.25Q15.7715-6.25 16.001-6.47461Q16.2305-6.69922 16.2305-7.05078Q16.2305-7.42188 16.001-7.65137Q15.7715-7.88086 15.4004-7.88086L12.5195-7.88086L12.5195-10.752Q12.5195-11.1328 12.29-11.3623Q12.0605-11.5918 11.6895-11.5918Q11.3379-11.5918 11.1133-11.3574Q10.8887-11.123 10.8887-10.752L10.8887-7.88086L8.01758-7.88086Q7.63672-7.88086 7.40723-7.65137Q7.17773-7.42188 7.17773-7.05078Z"/>
  </g>
  <g transform="matrix(1 0 0 1 305.646 1933)">
   <path d="M14.9707 5.66406Q17.0605 5.66406 18.96 5.01465Q20.8594 4.36523 22.4512 3.19336Q24.043 2.02148 25.2197 0.429688Q26.3965-1.16211 27.0459-3.06641Q27.6953-4.9707 27.6953-7.05078Q27.6953-9.14062 27.0459-11.04Q26.3965-12.9395 25.2197-14.5312Q24.043-16.123 22.4512-17.2998Q20.8594-18.4766 18.9551-19.126Q17.0508-19.7754 14.9609-19.7754Q12.8711-19.7754 10.9717-19.126Q9.07227-18.4766 7.48535-17.2998Q5.89844-16.123 4.72168-14.5312Q3.54492-12.9395 2.90039-11.04Q2.25586-9.14062 2.25586-7.05078Q2.25586-4.9707 2.90527-3.06641Q3.55469-1.16211 4.72656 0.429688Q5.89844 2.02148 7.49023 3.19336Q9.08203 4.36523 10.9814 5.01465Q12.8809 5.66406 14.9707 5.66406ZM14.9707 3.84766Q13.1641 3.84766 11.5283 3.2959Q9.89258 2.74414 8.53516 1.74805Q7.17773 0.751953 6.17676-0.610352Q5.17578-1.97266 4.62891-3.6084Q4.08203-5.24414 4.08203-7.05078Q4.08203-8.86719 4.62891-10.5029Q5.17578-12.1387 6.17188-13.501Q7.16797-14.8633 8.52539-15.8594Q9.88281-16.8555 11.5186-17.4023Q13.1543-17.9492 14.9609-17.9492Q16.7773-17.9492 18.4131-17.4023Q20.0488-16.8555 21.4111-15.8594Q22.7734-14.8633 23.7695-13.501Q24.7656-12.1387 25.3174-10.5029Q25.8691-8.86719 25.8691-7.05078Q25.8789-5.24414 25.332-3.6084Q24.7852-1.97266 23.7842-0.610352Q22.7832 0.751953 21.4209 1.74805Q20.0586 2.74414 18.4229 3.2959Q16.7871 3.84766 14.9707 3.84766ZM9.19922-7.05078Q9.19922-6.66992 9.45801-6.4209Q9.7168-6.17188 10.1172-6.17188L14.0625-6.17188L14.0625-2.2168Q14.0625-1.81641 14.3115-1.55762Q14.5605-1.29883 14.9512-1.29883Q15.3516-1.29883 15.6104-1.55273Q15.8691-1.80664 15.8691-2.2168L15.8691-6.17188L19.8242-6.17188Q20.2246-6.17188 20.4785-6.4209Q20.7324-6.66992 20.7324-7.05078Q20.7324-7.46094 20.4785-7.71484Q20.2246-7.96875 19.8242-7.96875L15.8691-7.96875L15.8691-11.9141Q15.8691-12.3242 15.6104-12.583Q15.3516-12.8418 14.9512-12.8418Q14.5605-12.8418 14.3115-12.583Q14.0625-12.3242 14.0625-11.9141L14.0625-7.96875L10.1172-7.96875Q9.70703-7.96875 9.45312-7.71484Q9.19922-7.46094 9.19922-7.05078Z"/>
  </g>
  <text style="stroke:none;fill:black;font-family:sans-serif;font-size:13;font-weight:bold;" transform="matrix(1 0 0 1 263 1953)">Design Variations</text>
  <text style="stroke:none;fill:black;font-family:sans-serif;font-size:13;" transform="matrix(1 0 0 1 263 1971)">Symbols are supported in up to nine weights and three scales.</text>
  <text style="stroke:none;fill:black;font-family:sans-serif;font-size:13;" transform="matrix(1 0 0 1 263 1989)">For optimal layout with text and other symbols, vertically align</text>
  <text style="stroke:none;fill:black;font-family:sans-serif;font-size:13;" transform="matrix(1 0 0 1 263 2007)">symbols with the adjacent text.</text>
  <line style="fill:none;stroke:#00AEEF;stroke-width:0.5;opacity:1.0;" x1="776" x2="776" y1="1919" y2="1933"/>
  <g transform="matrix(1 0 0 1 776 1933)">
   <path d="M3.31055 0.15625Q3.70117 0.15625 3.91602-0.00976562Q4.13086-0.175781 4.26758-0.585938L5.52734-4.0332L11.2891-4.0332L12.5488-0.585938Q12.6855-0.175781 12.9004-0.00976562Q13.1152 0.15625 13.4961 0.15625Q13.8867 0.15625 14.1162-0.0585938Q14.3457-0.273438 14.3457-0.644531Q14.3457-0.869141 14.2383-1.17188L9.6582-13.3691Q9.48242-13.8184 9.17969-14.043Q8.87695-14.2676 8.4082-14.2676Q7.5-14.2676 7.17773-13.3789L2.59766-1.16211Q2.49023-0.859375 2.49023-0.634766Q2.49023-0.263672 2.70996-0.0537109Q2.92969 0.15625 3.31055 0.15625ZM6.00586-5.51758L8.37891-12.0898L8.42773-12.0898L10.8008-5.51758Z"/>
  </g>
  <line style="fill:none;stroke:#00AEEF;stroke-width:0.5;opacity:1.0;" x1="793.197" x2="793.197" y1="1919" y2="1933"/>
  <text style="stroke:none;fill:black;font-family:sans-serif;font-size:13;font-weight:bold;" transform="matrix(1 0 0 1 776 1953)">Margins</text>
  <text style="stroke:none;fill:black;font-family:sans-serif;font-size:13;" transform="matrix(1 0 0 1 776 1971)">Leading and trailing margins on the left and right side of each symbol</text>
  <text style="stroke:none;fill:black;font-family:sans-serif;font-size:13;" transform="matrix(1 0 0 1 776 1989)">can be adjusted by modifying the x-location of the margin guidelines.</text>
  <text style="stroke:none;fill:black;font-family:sans-serif;font-size:13;" transform="matrix(1 0 0 1 776 2007)">Modifications are automatically applied proportionally to all</text>
  <text style="stroke:none;fill:black;font-family:sans-serif;font-size:13;" transform="matrix(1 0 0 1 776 2025)">scales and weights.</text>
  <g transform="matrix(1 0 0 1 1289 1933)">
   <path d="M2.8418 1.86523L4.54102 3.57422Q5.18555 4.22852 5.90332 4.17969Q6.62109 4.13086 7.31445 3.35938L18.0078-8.42773L17.041-9.4043L6.42578 2.27539Q6.16211 2.57812 5.89355 2.61719Q5.625 2.65625 5.27344 2.30469L4.10156 1.14258Q3.75 0.791016 3.79395 0.522461Q3.83789 0.253906 4.14062-0.0195312L15.6152-10.8203L14.6387-11.7871L3.04688-0.898438Q2.30469-0.214844 2.25098 0.498047Q2.19727 1.21094 2.8418 1.86523ZM9.25781-16.3281Q8.94531-16.0254 8.90625-15.6348Q8.86719-15.2441 9.04297-14.9512Q9.21875-14.6777 9.55566-14.541Q9.89258-14.4043 10.3809-14.5215Q11.4746-14.7754 12.5977-14.7314Q13.7207-14.6875 14.7949-13.9844L14.209-12.5293Q13.9551-11.9043 14.0674-11.4404Q14.1797-10.9766 14.5801-10.5664L16.875-8.25195Q17.2363-7.88086 17.5781-7.82227Q17.9199-7.76367 18.3398-7.8418L19.4043-8.03711L20.0684-7.36328L20.0293-6.80664Q20-6.43555 20.1221-6.12305Q20.2441-5.81055 20.6055-5.44922L21.3672-4.70703Q21.7285-4.3457 22.1533-4.33105Q22.5781-4.31641 22.9297-4.66797L25.8398-7.58789Q26.1914-7.93945 26.1816-8.35449Q26.1719-8.76953 25.8105-9.13086L25.0391-9.89258Q24.6875-10.2539 24.3799-10.3857Q24.0723-10.5176 23.7109-10.4883L23.1348-10.4395L22.4902-11.0742L22.7344-12.1973Q22.832-12.6172 22.6953-12.9834Q22.5586-13.3496 22.1191-13.7891L19.9219-15.9766Q18.6719-17.2168 17.2607-17.8369Q15.8496-18.457 14.4189-18.4814Q12.9883-18.5059 11.665-17.959Q10.3418-17.4121 9.25781-16.3281ZM10.752-15.957Q11.6602-16.6211 12.7002-16.9043Q13.7402-17.1875 14.8047-17.085Q15.8691-16.9824 16.8701-16.5137Q17.8711-16.0449 18.7012-15.2051L21.1328-12.793Q21.3086-12.6172 21.3525-12.4512Q21.3965-12.2852 21.3379-12.0312L21.0156-10.5469L22.5195-9.0625L23.5059-9.12109Q23.6914-9.13086 23.7891-9.09668Q23.8867-9.0625 24.0332-8.91602L24.6094-8.33984L22.168-5.89844L21.5918-6.47461Q21.4453-6.62109 21.4062-6.71875Q21.3672-6.81641 21.377-7.01172L21.4453-7.98828L19.9512-9.47266L18.4277-9.21875Q18.1836-9.16992 18.042-9.2041Q17.9004-9.23828 17.7148-9.41406L15.7129-11.416Q15.5176-11.5918 15.4932-11.7529Q15.4688-11.9141 15.5859-12.1875L16.4648-14.2773Q15.293-15.3711 13.8281-15.791Q12.3633-16.2109 10.8398-15.7617Q10.7227-15.7324 10.6885-15.8057Q10.6543-15.8789 10.752-15.957Z"/>
  </g>
  <text style="stroke:none;fill:black;font-family:sans-serif;font-size:13;font-weight:bold;" transform="matrix(1 0 0 1 1289 1953)">Exporting</text>
  <text style="stroke:none;fill:black;font-family:sans-serif;font-size:13;" transform="matrix(1 0 0 1 1289 1971)">Symbols should be outlined when exporting to ensure the</text>
  <text style="stroke:none;fill:black;font-family:sans-serif;font-size:13;" transform="matrix(1 0 0 1 1289 1989)">design is preserved when submitting to Xcode.</text>
  <text id="template-version" style="stroke:none;fill:black;font-family:sans-serif;font-size:13;text-anchor:end;" transform="matrix(1 0 0 1 3036 1933)">Template v.3.0</text>
  <text style="stroke:none;fill:black;font-family:sans-serif;font-size:13;text-anchor:end;" transform="matrix(1 0 0 1 3036 1951)">Requires Xcode 13 or greater</text>
  <text id="descriptive-name" style="stroke:none;fill:black;font-family:sans-serif;font-size:13;text-anchor:end;" transform="matrix(1 0 0 1 3036 1969)">Generated from die.face.3.fill</text>
  <text style="stroke:none;fill:black;font-family:sans-serif;font-size:13;text-anchor:end;" transform="matrix(1 0 0 1 3036 1987)">Typeset at 100 points</text>
  <text style="stroke:none;fill:black;font-family:sans-serif;font-size:13;" transform="matrix(1 0 0 1 263 726)">Small</text>
  <text style="stroke:none;fill:black;font-family:sans-serif;font-size:13;" transform="matrix(1 0 0 1 263 1156)">Medium</text>
  <text style="stroke:none;fill:black;font-family:sans-serif;font-size:13;" transform="matrix(1 0 0 1 263 1586)">Large</text>
 </g>
 <g id="Guides">
  <g id="H-reference" style="fill:#27AAE1;stroke:none;" transform="matrix(1 0 0 1 339 696)">
   <path d="M0.976562 0L3.66211 0L29.3457-67.1387L30.0293-67.1387L30.0293-70.459L28.125-70.459ZM11.6699-24.4629L46.9727-24.4629L46.2402-26.709L12.4512-26.709ZM55.127 0L57.7637 0L30.6152-70.459L29.4434-70.459L29.4434-67.1387Z"/>
  </g>
  <line id="Baseline-S" style="fill:none;stroke:#27AAE1;opacity:1;stroke-width:0.5;" x1="263" x2="3036" y1="696" y2="696"/>
  <line id="Capline-S" style="fill:none;stroke:#27AAE1;opacity:1;stroke-width:0.5;" x1="263" x2="3036" y1="625.541" y2="625.541"/>
  <g id="H-reference" style="fill:#27AAE1;stroke:none;" transform="matrix(1 0 0 1 339 1126)">
   <path d="M0.976562 0L3.66211 0L29.3457-67.1387L30.0293-67.1387L30.0293-70.459L28.125-70.459ZM11.6699-24.4629L46.9727-24.4629L46.2402-26.709L12.4512-26.709ZM55.127 0L57.7637 0L30.6152-70.459L29.4434-70.459L29.4434-67.1387Z"/>
  </g>
  <line id="Baseline-M" style="fill:none;stroke:#27AAE1;opacity:1;stroke-width:0.5;" x1="263" x2="3036" y1="1126" y2="1126"/>
  <line id="Capline-M" style="fill:none;stroke:#27AAE1;opacity:1;stroke-width:0.5;" x1="263" x2="3036" y1="1055.54" y2="1055.54"/>
  <g id="H-reference" style="fill:#27AAE1;stroke:none;" transform="matrix(1 0 0 1 339 1556)">
   <path d="M0.976562 0L3.66211 0L29.3457-67.1387L30.0293-67.1387L30.0293-70.459L28.125-70.459ZM11.6699-24.4629L46.9727-24.4629L46.2402-26.709L12.4512-26.709ZM55.127 0L57.7637 0L30.6152-70.459L29.4434-70.459L29.4434-67.1387Z"/>
  </g>
  <line id="Baseline-L" style="fill:none;stroke:#27AAE1;opacity:1;stroke-width:0.5;" x1="263" x2="3036" y1="1556" y2="1556"/>
  <line id="Capline-L" style="fill:none;stroke:#27AAE1;opacity:1;stroke-width:0.5;" x1="263" x2="3036" y1="1485.54" y2="1485.54"/>
  <line id="left-margin-Ultralight-S" style="fill:none;stroke:#00AEEF;stroke-width:0.5;opacity:1.0;" x1="516.352" x2="516.352" y1="600.785" y2="720.121"/>
  <line id="right-margin-Ultralight-S" style="fill:none;stroke:#00AEEF;stroke-width:0.5;opacity:1.0;" x1="603.07" x2="603.07" y1="600.785" y2="720.121"/>
  <line id="left-margin-Thin-S" style="fill:none;stroke:#00AEEF;stroke-width:0.5;opacity:1.0;" x1="812.623" x2="812.623" y1="600.785" y2="720.121"/>
  <line id="right-margin-Thin-S" style="fill:none;stroke:#00AEEF;stroke-width:0.5;opacity:1.0;" x1="900.221" x2="900.221" y1="600.785" y2="720.121"/>
  <line id="left-margin-Light-S" style="fill:none;stroke:#00AEEF;stroke-width:0.5;opacity:1.0;" x1="1108.46" x2="1108.46" y1="600.785" y2="720.121"/>
  <line id="right-margin-Light-S" style="fill:none;stroke:#00AEEF;stroke-width:0.5;opacity:1.0;" x1="1197.81" x2="1197.81" y1="600.785" y2="720.121"/>
  <line id="left-margin-Regular-S" style="fill:none;stroke:#00AEEF;stroke-width:0.5;opacity:1.0;" x1="1404.51" x2="1404.51" y1="600.785" y2="720.121"/>
  <line id="right-margin-Regular-S" style="fill:none;stroke:#00AEEF;stroke-width:0.5;opacity:1.0;" x1="1495.18" x2="1495.18" y1="600.785" y2="720.121"/>
  <line id="left-margin-Medium-S" style="fill:none;stroke:#00AEEF;stroke-width:0.5;opacity:1.0;" x1="1700.75" x2="1700.75" y1="600.785" y2="720.121"/>
  <line id="right-margin-Medium-S" style="fill:none;stroke:#00AEEF;stroke-width:0.5;opacity:1.0;" x1="1792.36" x2="1792.36" y1="600.785" y2="720.121"/>
  <line id="left-margin-Semibold-S" style="fill:none;stroke:#00AEEF;stroke-width:0.5;opacity:1.0;" x1="1997.12" x2="1997.12" y1="600.785" y2="720.121"/>
  <line id="right-margin-Semibold-S" style="fill:none;stroke:#00AEEF;stroke-width:0.5;opacity:1.0;" x1="2089.41" x2="2089.41" y1="600.785" y2="720.121"/>
  <line id="left-margin-Bold-S" style="fill:none;stroke:#00AEEF;stroke-width:0.5;opacity:1.0;" x1="2293.35" x2="2293.35" y1="600.785" y2="720.121"/>
  <line id="right-margin-Bold-S" style="fill:none;stroke:#00AEEF;stroke-width:0.5;opacity:1.0;" x1="2386.61" x2="2386.61" y1="600.785" y2="720.121"/>
  <line id="left-margin-Heavy-S" style="fill:none;stroke:#00AEEF;stroke-width:0.5;opacity:1.0;" x1="2589.4" x2="2589.4" y1="600.785" y2="720.121"/>
  <line id="right-margin-Heavy-S" style="fill:none;stroke:#00AEEF;stroke-width:0.5;opacity:1.0;" x1="2683.98" x2="2683.98" y1="600.785" y2="720.121"/>
  <line id="left-margin-Black-S" style="fill:none;stroke:#00AEEF;stroke-width:0.5;opacity:1.0;" x1="2885.5" x2="2885.5" y1="600.785" y2="720.121"/>
  <line id="right-margin-Black-S" style="fill:none;stroke:#00AEEF;stroke-width:0.5;opacity:1.0;" x1="2981.3" x2="2981.3" y1="600.785" y2="720.121"/>
  <line id="left-margin-Ultralight-M" style="fill:none;stroke:#00AEEF;stroke-width:0.5;opacity:1.0;" x1="504.535" x2="504.535" y1="1030.79" y2="1150.12"/>
  <line id="right-margin-Ultralight-M" style="fill:none;stroke:#00AEEF;stroke-width:0.5;opacity:1.0;" x1="614.887" x2="614.887" y1="1030.79" y2="1150.12"/>
  <line id="left-margin-Thin-M" style="fill:none;stroke:#00AEEF;stroke-width:0.5;opacity:1.0;" x1="800.758" x2="800.758" y1="1030.79" y2="1150.12"/>
  <line id="right-margin-Thin-M" style="fill:none;stroke:#00AEEF;stroke-width:0.5;opacity:1.0;" x1="912.086" x2="912.086" y1="1030.79" y2="1150.12"/>
  <line id="left-margin-Light-M" style="fill:none;stroke:#00AEEF;stroke-width:0.5;opacity:1.0;" x1="1096.47" x2="1096.47" y1="1030.79" y2="1150.12"/>
  <line id="right-margin-Light-M" style="fill:none;stroke:#00AEEF;stroke-width:0.5;opacity:1.0;" x1="1209.8" x2="1209.8" y1="1030.79" y2="1150.12"/>
  <line id="left-margin-Regular-M" style="fill:none;stroke:#00AEEF;stroke-width:0.5;opacity:1.0;" x1="1392.45" x2="1392.45" y1="1030.79" y2="1150.12"/>
  <line id="right-margin-Regular-M" style="fill:none;stroke:#00AEEF;stroke-width:0.5;opacity:1.0;" x1="1507.24" x2="1507.24" y1="1030.79" y2="1150.12"/>
  <line id="left-margin-Medium-M" style="fill:none;stroke:#00AEEF;stroke-width:0.5;opacity:1.0;" x1="1688.52" x2="1688.52" y1="1030.79" y2="1150.12"/>
  <line id="right-margin-Medium-M" style="fill:none;stroke:#00AEEF;stroke-width:0.5;opacity:1.0;" x1="1804.59" x2="1804.59" y1="1030.79" y2="1150.12"/>
  <line id="left-margin-Semibold-M" style="fill:none;stroke:#00AEEF;stroke-width:0.5;opacity:1.0;" x1="1984.77" x2="1984.77" y1="1030.79" y2="1150.12"/>
  <line id="right-margin-Semibold-M" style="fill:none;stroke:#00AEEF;stroke-width:0.5;opacity:1.0;" x1="2101.76" x2="2101.76" y1="1030.79" y2="1150.12"/>
  <line id="left-margin-Bold-M" style="fill:none;stroke:#00AEEF;stroke-width:0.5;opacity:1.0;" x1="2280.85" x2="2280.85" y1="1030.79" y2="1150.12"/>
  <line id="right-margin-Bold-M" style="fill:none;stroke:#00AEEF;stroke-width:0.5;opacity:1.0;" x1="2399.11" x2="2399.11" y1="1030.79" y2="1150.12"/>
  <line id="left-margin-Heavy-M" style="fill:none;stroke:#00AEEF;stroke-width:0.5;opacity:1.0;" x1="2576.65" x2="2576.65" y1="1030.79" y2="1150.12"/>
  <line id="right-margin-Heavy-M" style="fill:none;stroke:#00AEEF;stroke-width:0.5;opacity:1.0;" x1="2696.72" x2="2696.72" y1="1030.79" y2="1150.12"/>
  <line id="left-margin-Black-M" style="fill:none;stroke:#00AEEF;stroke-width:0.5;opacity:1.0;" x1="2872.54" x2="2872.54" y1="1030.79" y2="1150.12"/>
  <line id="right-margin-Black-M" style="fill:none;stroke:#00AEEF;stroke-width:0.5;opacity:1.0;" x1="2994.26" x2="2994.26" y1="1030.79" y2="1150.12"/>
  <line id="left-margin-Ultralight-L" style="fill:none;stroke:#00AEEF;stroke-width:0.5;opacity:1.0;" x1="488.739" x2="488.739" y1="1460.79" y2="1580.12"/>
  <line id="right-margin-Ultralight-L" style="fill:none;stroke:#00AEEF;stroke-width:0.5;opacity:1.0;" x1="630.683" x2="630.683" y1="1460.79" y2="1580.12"/>
  <line id="left-margin-Thin-L" style="fill:none;stroke:#00AEEF;stroke-width:0.5;opacity:1.0;" x1="784.889" x2="784.889" y1="1460.79" y2="1580.12"/>
  <line id="right-margin-Thin-L" style="fill:none;stroke:#00AEEF;stroke-width:0.5;opacity:1.0;" x1="927.955" x2="927.955" y1="1460.79" y2="1580.12"/>
  <line id="left-margin-Light-L" style="fill:none;stroke:#00AEEF;stroke-width:0.5;opacity:1.0;" x1="1080.5" x2="1080.5" y1="1460.79" y2="1580.12"/>
  <line id="right-margin-Light-L" style="fill:none;stroke:#00AEEF;stroke-width:0.5;opacity:1.0;" x1="1225.77" x2="1225.77" y1="1460.79" y2="1580.12"/>
  <line id="left-margin-Regular-L" style="fill:none;stroke:#00AEEF;stroke-width:0.5;opacity:1.0;" x1="1376.38" x2="1376.38" y1="1460.79" y2="1580.12"/>
  <line id="right-margin-Regular-L" style="fill:none;stroke:#00AEEF;stroke-width:0.5;opacity:1.0;" x1="1523.31" x2="1523.31" y1="1460.79" y2="1580.12"/>
  <line id="left-margin-Medium-L" style="fill:none;stroke:#00AEEF;stroke-width:0.5;opacity:1.0;" x1="1672.31" x2="1672.31" y1="1460.79" y2="1580.12"/>
  <line id="right-margin-Medium-L" style="fill:none;stroke:#00AEEF;stroke-width:0.5;opacity:1.0;" x1="1820.8" x2="1820.8" y1="1460.79" y2="1580.12"/>
  <line id="left-margin-Semibold-L" style="fill:none;stroke:#00AEEF;stroke-width:0.5;opacity:1.0;" x1="1968.44" x2="1968.44" y1="1460.79" y2="1580.12"/>
  <line id="right-margin-Semibold-L" style="fill:none;stroke:#00AEEF;stroke-width:0.5;opacity:1.0;" x1="2118.1" x2="2118.1" y1="1460.79" y2="1580.12"/>
  <line id="left-margin-Bold-L" style="fill:none;stroke:#00AEEF;stroke-width:0.5;opacity:1.0;" x1="2264.34" x2="2264.34" y1="1460.79" y2="1580.12"/>
  <line id="right-margin-Bold-L" style="fill:none;stroke:#00AEEF;stroke-width:0.5;opacity:1.0;" x1="2415.61" x2="2415.61" y1="1460.79" y2="1580.12"/>
  <line id="left-margin-Heavy-L" style="fill:none;stroke:#00AEEF;stroke-width:0.5;opacity:1.0;" x1="2559.93" x2="2559.93" y1="1460.79" y2="1580.12"/>
  <line id="right-margin-Heavy-L" style="fill:none;stroke:#00AEEF;stroke-width:0.5;opacity:1.0;" x1="2713.45" x2="2713.45" y1="1460.79" y2="1580.12"/>
  <line id="left-margin-Black-L" style="fill:none;stroke:#00AEEF;stroke-width:0.5;opacity:1.0;" x1="2855.62" x2="2855.62" y1="1460.79" y2="1580.12"/>
  <line id="right-margin-Black-L" style="fill:none;stroke:#00AEEF;stroke-width:0.5;opacity:1.0;" x1="3011.18" x2="3011.18" y1="1460.79" y2="1580.12"/>
 </g>
 <g id="Symbols">
  <g id="Black-L" transform="matrix(1 0 0 1 2855.62 1556)">
   <path class="hierarchical-0:tertiary SFSymbolsPreview8E8E8E" d="M39.9902 26.5137L115.576 26.5137Q127.002 26.5137 133.252 20.3125Q139.502 14.1113 139.502 2.68555L139.502-73.0957Q139.502-84.4727 133.252-90.6738Q127.002-96.875 115.576-96.875L39.9902-96.875Q28.5645-96.875 22.3145-90.6738Q16.0645-84.4727 16.0645-73.0957L16.0645 2.68555Q16.0645 14.1113 22.3145 20.3125Q28.5645 26.5137 39.9902 26.5137Z"/>
   <path class="hierarchical-1:primary SFSymbolsPreview212121" d="M103.906-50.5371Q99.4141-50.5859 96.2402-53.7109Q93.0664-56.8359 93.0664-61.2793Q93.0664-65.7227 96.2402-68.8721Q99.4141-72.0215 103.906-72.0215Q108.301-72.0215 111.475-68.8721Q114.648-65.7227 114.648-61.2793Q114.648-58.3008 113.159-55.835Q111.67-53.3691 109.229-51.9043Q106.787-50.4395 103.906-50.5371ZM77.832-24.4141Q73.3398-24.4141 70.2148-27.5635Q67.0898-30.7129 67.0898-35.2539Q67.0898-39.6973 70.2393-42.7734Q73.3887-45.8496 77.832-45.8496Q80.7129-45.8496 83.1543-44.4336Q85.5957-43.0176 87.0605-40.6006Q88.5254-38.1836 88.5254-35.2539Q88.5254-30.8105 85.4004-27.6123Q82.2754-24.4141 77.832-24.4141ZM51.709 1.75781Q47.2656 1.75781 44.1162-1.44043Q40.9668-4.63867 40.9668-9.13086Q40.9668-13.5254 44.1162-16.6504Q47.2656-19.7754 51.709-19.7754Q54.6387-19.7754 57.0557-18.335Q59.4727-16.8945 60.9375-14.4775Q62.4023-12.0605 62.4023-9.13086Q62.4023-4.6875 59.2529-1.46484Q56.1035 1.75781 51.709 1.75781Z"/>
  </g>
  <g id="Heavy-L" transform="matrix(1 0 0 1 2559.93 1556)">
   <path class="hierarchical-0:tertiary SFSymbolsPreview8E8E8E" d="M38.8184 25.4883L114.697 25.4883Q125.684 25.4883 131.567 19.6289Q137.451 13.7695 137.451 2.88086L137.451-73.2422Q137.451-84.1309 131.567-89.9902Q125.684-95.8496 114.697-95.8496L38.8184-95.8496Q27.8809-95.8496 21.9727-89.9902Q16.0645-84.1309 16.0645-73.2422L16.0645 2.88086Q16.0645 13.8184 21.9727 19.6533Q27.8809 25.4883 38.8184 25.4883Z"/>
   <path class="hierarchical-1:primary SFSymbolsPreview212121" d="M103.711-51.4648Q99.2676-51.5137 96.1182-54.6143Q92.9688-57.7148 92.9688-62.1094Q92.9688-66.5039 96.1182-69.6289Q99.2676-72.7539 103.711-72.7539Q108.057-72.7539 111.206-69.6289Q114.355-66.5039 114.355-62.1094Q114.355-59.1797 112.866-56.7383Q111.377-54.2969 108.984-52.832Q106.592-51.3672 103.711-51.4648ZM76.8066-24.5117Q72.3633-24.5117 69.2627-27.6367Q66.1621-30.7617 66.1621-35.2539Q66.1621-39.6484 69.2871-42.7002Q72.4121-45.752 76.8066-45.752Q79.6875-45.752 82.1045-44.3604Q84.5215-42.9688 85.9619-40.5762Q87.4023-38.1836 87.4023-35.2539Q87.4023-30.8594 84.3018-27.6855Q81.2012-24.5117 76.8066-24.5117ZM49.9023 2.44141Q45.5078 2.44141 42.3828-0.708008Q39.2578-3.85742 39.2578-8.30078Q39.2578-12.6953 42.3828-15.7715Q45.5078-18.8477 49.9023-18.8477Q52.7832-18.8477 55.1758-17.4316Q57.5684-16.0156 59.0332-13.623Q60.498-11.2305 60.498-8.30078Q60.498-3.90625 57.373-0.732422Q54.248 2.44141 49.9023 2.44141Z"/>
  </g>
  <g id="Bold-L" transform="matrix(1 0 0 1 2264.34 1556)">
   <path class="hierarchical-0:tertiary SFSymbolsPreview8E8E8E" d="M37.5488 24.3652L113.721 24.3652Q124.17 24.3652 129.688 18.8965Q135.205 13.4277 135.205 3.07617L135.205-73.4375Q135.205-83.7891 129.688-89.2578Q124.17-94.7266 113.721-94.7266L37.5488-94.7266Q27.0996-94.7266 21.582-89.2578Q16.0645-83.7891 16.0645-73.4375L16.0645 3.07617Q16.0645 13.4766 21.582 18.9209Q27.0996 24.3652 37.5488 24.3652Z"/>
   <path class="hierarchical-1:primary SFSymbolsPreview212121" d="M103.467-52.5391Q99.1211-52.5879 95.9961-55.6396Q92.8711-58.6914 92.8711-63.0859Q92.8711-67.4316 95.9961-70.5078Q99.1211-73.584 103.467-73.584Q107.764-73.584 110.864-70.5078Q113.965-67.4316 113.965-63.0859Q113.965-60.1562 112.524-57.7393Q111.084-55.3223 108.716-53.8818Q106.348-52.4414 103.467-52.5391ZM75.6836-24.6582Q71.2891-24.6582 68.2129-27.7588Q65.1367-30.8594 65.1367-35.2539Q65.1367-39.5996 68.2129-42.627Q71.2891-45.6543 75.6836-45.6543Q78.5156-45.6543 80.9082-44.2627Q83.3008-42.8711 84.7168-40.5029Q86.1328-38.1348 86.1328-35.2539Q86.1328-30.9082 83.0566-27.7832Q79.9805-24.6582 75.6836-24.6582ZM47.8516 3.22266Q43.5059 3.22266 40.4297 0.0976562Q37.3535-3.02734 37.3535-7.37305Q37.3535-11.7188 40.4297-14.7705Q43.5059-17.8223 47.8516-17.8223Q50.7324-17.8223 53.1006-16.4307Q55.4688-15.0391 56.8848-12.6465Q58.3008-10.2539 58.3008-7.37305Q58.3008-3.02734 55.2246 0.0976562Q52.1484 3.22266 47.8516 3.22266Z"/>
  </g>
  <g id="Semibold-L" transform="matrix(1 0 0 1 1968.44 1556)">
   <path class="hierarchical-0:tertiary SFSymbolsPreview8E8E8E" d="M36.6211 23.584L112.988 23.584Q123.145 23.584 128.369 18.3838Q133.594 13.1836 133.594 3.17383L133.594-73.5352Q133.594-83.4961 128.369-88.6963Q123.145-93.8965 112.988-93.8965L36.6211-93.8965Q26.5625-93.8965 21.3135-88.7207Q16.0645-83.5449 16.0645-73.5352L16.0645 3.17383Q16.0645 13.2324 21.3135 18.4082Q26.5625 23.584 36.6211 23.584Z"/>
   <path class="hierarchical-1:primary SFSymbolsPreview212121" d="M103.32-53.2227Q99.0234-53.2715 95.8984-56.2988Q92.7734-59.3262 92.7734-63.7207Q92.7734-68.0176 95.8984-71.0693Q99.0234-74.1211 103.32-74.1211Q107.568-74.1211 110.645-71.0693Q113.721-68.0176 113.721-63.7207Q113.721-60.791 112.305-58.3984Q110.889-56.0059 108.521-54.5898Q106.152-53.1738 103.32-53.2227ZM74.9023-24.707Q70.5078-24.707 67.4805-27.7832Q64.4531-30.8594 64.4531-35.2539Q64.4531-39.5508 67.5049-42.5781Q70.5566-45.6055 74.9023-45.6055Q77.6855-45.6055 80.0781-44.2139Q82.4707-42.8223 83.8867-40.4785Q85.3027-38.1348 85.3027-35.2539Q85.3027-30.9082 82.2266-27.8076Q79.1504-24.707 74.9023-24.707ZM46.4355 3.75977Q42.1387 3.75977 39.0869 0.683594Q36.0352-2.39258 36.0352-6.73828Q36.0352-11.084 39.0869-14.0869Q42.1387-17.0898 46.4355-17.0898Q49.3164-17.0898 51.6602-15.6982Q54.0039-14.3066 55.4199-11.9629Q56.8359-9.61914 56.8359-6.73828Q56.8359-2.44141 53.7598 0.65918Q50.6836 3.75977 46.4355 3.75977Z"/>
  </g>
  <g id="Medium-L" transform="matrix(1 0 0 1 1672.31 1556)">
   <path class="hierarchical-0:tertiary SFSymbolsPreview8E8E8E" d="M35.9375 22.998L112.5 22.998Q122.363 22.998 127.393 17.9932Q132.422 12.9883 132.422 3.27148L132.422-73.6328Q132.422-83.3008 127.393-88.3057Q122.363-93.3105 112.5-93.3105L35.9375-93.3105Q26.1719-93.3105 21.1182-88.3301Q16.0645-83.3496 16.0645-73.6328L16.0645 3.27148Q16.0645 13.0371 21.1182 18.0176Q26.1719 22.998 35.9375 22.998Z"/>
   <path class="hierarchical-1:primary SFSymbolsPreview212121" d="M103.174-53.7598Q98.9258-53.8086 95.8252-56.8359Q92.7246-59.8633 92.7246-64.209Q92.7246-68.5059 95.8252-71.5332Q98.9258-74.5605 103.174-74.5605Q107.422-74.5605 110.474-71.5332Q113.525-68.5059 113.525-64.209Q113.525-61.3281 112.134-58.9355Q110.742-56.543 108.398-55.127Q106.055-53.7109 103.174-53.7598ZM74.2676-24.7559Q69.9219-24.7559 66.9189-27.832Q63.916-30.9082 63.916-35.2539Q63.916-39.502 66.9434-42.5049Q69.9707-45.5078 74.2676-45.5078Q77.0996-45.5078 79.4434-44.1406Q81.7871-42.7734 83.2031-40.4297Q84.6191-38.0859 84.6191-35.2539Q84.6191-30.9082 81.5674-27.832Q78.5156-24.7559 74.2676-24.7559ZM45.3613 4.15039Q41.0645 4.15039 38.0371 1.09863Q35.0098-1.95312 35.0098-6.25Q35.0098-10.5469 38.0371-13.5498Q41.0645-16.5527 45.3613-16.5527Q48.1934-16.5527 50.5371-15.1855Q52.8809-13.8184 54.2725-11.4502Q55.6641-9.08203 55.6641-6.25Q55.6641-1.95312 52.6367 1.09863Q49.6094 4.15039 45.3613 4.15039Z"/>
  </g>
  <g id="Regular-L" transform="matrix(1 0 0 1 1376.38 1556)">
   <path class="hierarchical-0:tertiary SFSymbolsPreview8E8E8E" d="M35.0586 22.2168L111.816 22.2168Q121.338 22.2168 126.099 17.4805Q130.859 12.7441 130.859 3.41797L130.859-73.7305Q130.859-83.0566 126.099-87.793Q121.338-92.5293 111.816-92.5293L35.0586-92.5293Q25.6348-92.5293 20.8496-87.8174Q16.0645-83.1055 16.0645-73.7305L16.0645 3.41797Q16.0645 12.793 20.8496 17.5049Q25.6348 22.2168 35.0586 22.2168Z"/>
   <path class="hierarchical-1:primary SFSymbolsPreview212121" d="M103.027-54.4922Q98.7793-54.541 95.7031-57.5195Q92.627-60.498 92.627-64.8438Q92.627-69.0918 95.7031-72.0947Q98.7793-75.0977 103.027-75.0977Q107.227-75.0977 110.254-72.0947Q113.281-69.0918 113.281-64.8438Q113.281-61.9629 111.89-59.5947Q110.498-57.2266 108.179-55.835Q105.859-54.4434 103.027-54.4922ZM73.4863-24.8535Q69.1895-24.8535 66.1865-27.9053Q63.1836-30.957 63.1836-35.2539Q63.1836-39.4531 66.1865-42.4561Q69.1895-45.459 73.4863-45.459Q76.2695-45.459 78.6133-44.0918Q80.957-42.7246 82.3486-40.4053Q83.7402-38.0859 83.7402-35.2539Q83.7402-30.957 80.7129-27.9053Q77.6855-24.8535 73.4863-24.8535ZM43.9453 4.6875Q39.6973 4.6875 36.6943 1.66016Q33.6914-1.36719 33.6914-5.61523Q33.6914-9.91211 36.6943-12.8906Q39.6973-15.8691 43.9453-15.8691Q46.7773-15.8691 49.0967-14.502Q51.416-13.1348 52.8076-10.791Q54.1992-8.44727 54.1992-5.61523Q54.1992-1.36719 51.1719 1.66016Q48.1445 4.6875 43.9453 4.6875Z"/>
  </g>
  <g id="Light-L" transform="matrix(1 0 0 1 1080.5 1556)">
   <path class="hierarchical-0:tertiary SFSymbolsPreview8E8E8E" d="M34.0332 21.4355L111.182 21.4355Q120.117 21.4355 124.658 16.8945Q129.199 12.3535 129.199 3.56445L129.199-73.8281Q129.199-82.6172 124.658-87.1582Q120.117-91.6992 111.182-91.6992L34.0332-91.6992Q25.1465-91.6992 20.6055-87.207Q16.0645-82.7148 16.0645-73.8281L16.0645 3.56445Q16.0645 12.4023 20.6055 16.9189Q25.1465 21.4355 34.0332 21.4355Z"/>
   <path class="hierarchical-1:primary SFSymbolsPreview212121" d="M102.686-55.3711Q98.584-55.4199 95.6299-58.3008Q92.6758-61.1816 92.6758-65.3809Q92.6758-69.4824 95.6299-72.3633Q98.584-75.2441 102.686-75.2441Q106.738-75.2441 109.644-72.3633Q112.549-69.4824 112.549-65.3809Q112.549-62.5977 111.206-60.3027Q109.863-58.0078 107.642-56.665Q105.42-55.3223 102.686-55.3711ZM72.6562-25.1953Q68.5547-25.1953 65.6494-28.1494Q62.7441-31.1035 62.7441-35.2539Q62.7441-39.3066 65.6494-42.2119Q68.5547-45.1172 72.6562-45.1172Q75.3418-45.1172 77.6123-43.7744Q79.8828-42.4316 81.2256-40.21Q82.5684-37.9883 82.5684-35.2539Q82.5684-31.1035 79.6387-28.1494Q76.709-25.1953 72.6562-25.1953ZM42.6758 4.78516Q38.5742 4.78516 35.6689 1.87988Q32.7637-1.02539 32.7637-5.17578Q32.7637-9.27734 35.6689-12.1826Q38.5742-15.0879 42.6758-15.0879Q45.4102-15.0879 47.6318-13.7451Q49.8535-12.4023 51.1963-10.1562Q52.5391-7.91016 52.5391-5.17578Q52.5391-1.02539 49.6338 1.87988Q46.7285 4.78516 42.6758 4.78516Z"/>
  </g>
  <g id="Thin-L" transform="matrix(1 0 0 1 784.889 1556)">
   <path class="hierarchical-0:tertiary SFSymbolsPreview8E8E8E" d="M32.666 20.3613L110.352 20.3613Q118.506 20.3613 122.754 16.0889Q127.002 11.8164 127.002 3.75977L127.002-73.9746Q127.002-82.0312 122.754-86.3037Q118.506-90.5762 110.352-90.5762L32.666-90.5762Q24.5117-90.5762 20.2881-86.377Q16.0645-82.1777 16.0645-73.9746L16.0645 3.75977Q16.0645 11.9141 20.2881 16.1377Q24.5117 20.3613 32.666 20.3613Z"/>
   <path class="hierarchical-1:primary SFSymbolsPreview212121" d="M102.197-56.543Q98.291-56.5918 95.4834-59.3262Q92.6758-62.0605 92.6758-66.0156Q92.6758-69.9707 95.4834-72.6807Q98.291-75.3906 102.197-75.3906Q106.055-75.3906 108.838-72.6807Q111.621-69.9707 111.621-66.0156Q111.621-63.4277 110.327-61.2305Q109.033-59.0332 106.909-57.7637Q104.785-56.4941 102.197-56.543ZM71.5332-25.6836Q67.627-25.6836 64.8682-28.4912Q62.1094-31.2988 62.1094-35.2539Q62.1094-39.1113 64.8682-41.8701Q67.627-44.6289 71.5332-44.6289Q74.1211-44.6289 76.2695-43.3594Q78.418-42.0898 79.7119-39.9658Q81.0059-37.8418 81.0059-35.2539Q81.0059-31.2988 78.1982-28.4912Q75.3906-25.6836 71.5332-25.6836ZM40.918 4.88281Q37.0117 4.88281 34.2529 2.12402Q31.4941-0.634766 31.4941-4.54102Q31.4941-8.44727 34.2529-11.2305Q37.0117-14.0137 40.918-14.0137Q43.5059-14.0137 45.6299-12.7197Q47.7539-11.4258 49.0234-9.27734Q50.293-7.12891 50.293-4.54102Q50.293-0.634766 47.5342 2.12402Q44.7754 4.88281 40.918 4.88281Z"/>
  </g>
  <g id="Ultralight-L" transform="matrix(1 0 0 1 488.739 1556)">
   <path class="hierarchical-0:tertiary SFSymbolsPreview8E8E8E" d="M31.9824 19.8242L109.961 19.8242Q117.725 19.8242 121.802 15.6738Q125.879 11.5234 125.879 3.85742L125.879-74.0723Q125.879-81.7383 121.802-85.8643Q117.725-89.9902 109.961-89.9902L31.9824-89.9902Q24.1699-89.9902 20.1172-85.9375Q16.0645-81.8848 16.0645-74.0723L16.0645 3.85742Q16.0645 11.6699 20.1172 15.7471Q24.1699 19.8242 31.9824 19.8242Z"/>
   <path class="hierarchical-1:primary SFSymbolsPreview212121" d="M101.953-57.1289Q98.1445-57.1777 95.4102-59.8633Q92.6758-62.5488 92.6758-66.4062Q92.6758-70.2148 95.4102-72.8516Q98.1445-75.4883 101.953-75.4883Q105.664-75.4883 108.374-72.8516Q111.084-70.2148 111.084-66.4062Q111.084-63.8184 109.839-61.6943Q108.594-59.5703 106.519-58.3252Q104.443-57.0801 101.953-57.1289ZM70.9961-25.8789Q67.1875-25.8789 64.4775-28.6377Q61.7676-31.3965 61.7676-35.2539Q61.7676-39.0137 64.4775-41.7236Q67.1875-44.4336 70.9961-44.4336Q73.4863-44.4336 75.5859-43.1641Q77.6855-41.8945 78.9307-39.8193Q80.1758-37.7441 80.1758-35.2539Q80.1758-31.3965 77.4658-28.6377Q74.7559-25.8789 70.9961-25.8789ZM40.0391 4.98047Q36.2305 4.98047 33.5205 2.29492Q30.8105-0.390625 30.8105-4.24805Q30.8105-8.05664 33.5205-10.7666Q36.2305-13.4766 40.0391-13.4766Q42.5781-13.4766 44.6289-12.207Q46.6797-10.9375 47.9248-8.8623Q49.1699-6.78711 49.1699-4.24805Q49.1699-0.390625 46.4844 2.29492Q43.7988 4.98047 40.0391 4.98047Z"/>
  </g>
  <g id="Black-M" transform="matrix(1 0 0 1 2872.54 1126)">
   <path class="hierarchical-0:tertiary SFSymbolsPreview8E8E8E" d="M31.5918 13.2324L90.1367 13.2324Q99.1699 13.2324 104.224 8.17871Q109.277 3.125 109.277-5.9082L109.277-64.4531Q109.277-73.5352 104.224-78.5645Q99.1699-83.5938 90.1367-83.5938L31.5918-83.5938Q22.5586-83.5938 17.5049-78.5645Q12.4512-73.5352 12.4512-64.4531L12.4512-5.9082Q12.4512 3.125 17.5049 8.17871Q22.5586 13.2324 31.5918 13.2324Z"/>
   <path class="hierarchical-1:primary SFSymbolsPreview212121" d="M80.5176-46.582Q77.0508-46.6309 74.6094-49.0479Q72.168-51.4648 72.168-54.8828Q72.168-58.3008 74.6094-60.7422Q77.0508-63.1836 80.5176-63.1836Q83.9355-63.1836 86.377-60.7422Q88.8184-58.3008 88.8184-54.8828Q88.8184-51.416 86.3525-48.9502Q83.8867-46.4844 80.5176-46.582ZM60.8887-26.9043Q57.373-26.9043 54.9805-29.3213Q52.5879-31.7383 52.5879-35.2539Q52.5879-38.6719 55.0293-41.0645Q57.4707-43.457 60.8887-43.457Q64.209-43.457 66.6748-41.04Q69.1406-38.623 69.1406-35.2539Q69.1406-31.8359 66.7236-29.3701Q64.3066-26.9043 60.8887-26.9043ZM41.1621-7.12891Q37.7441-7.12891 35.3027-9.59473Q32.8613-12.0605 32.8613-15.5762Q32.8613-18.9453 35.3027-21.3379Q37.7441-23.7305 41.1621-23.7305Q44.5312-23.7305 46.9727-21.3135Q49.4141-18.8965 49.4141-15.5762Q49.4141-12.1094 46.9971-9.61914Q44.5801-7.12891 41.1621-7.12891Z"/>
  </g>
  <g id="Heavy-M" transform="matrix(1 0 0 1 2576.65 1126)">
   <path class="hierarchical-0:tertiary SFSymbolsPreview8E8E8E" d="M30.7129 12.4023L89.4043 12.4023Q98.0957 12.4023 102.856 7.66602Q107.617 2.92969 107.617-5.76172L107.617-64.5996Q107.617-73.291 102.856-78.0273Q98.0957-82.7637 89.4043-82.7637L30.7129-82.7637Q21.9727-82.7637 17.2119-78.0273Q12.4512-73.291 12.4512-64.5996L12.4512-5.76172Q12.4512 2.92969 17.2119 7.66602Q21.9727 12.4023 30.7129 12.4023Z"/>
   <path class="hierarchical-1:primary SFSymbolsPreview212121" d="M80.4199-47.3145Q77.002-47.3633 74.5605-49.7559Q72.1191-52.1484 72.1191-55.6152Q72.1191-58.9844 74.5605-61.4258Q77.002-63.8672 80.4199-63.8672Q83.8379-63.8672 86.2793-61.4258Q88.7207-58.9844 88.7207-55.6152Q88.7207-52.1484 86.2549-49.6826Q83.7891-47.2168 80.4199-47.3145ZM60.1074-26.9043Q56.5918-26.9043 54.1992-29.3213Q51.8066-31.7383 51.8066-35.2539Q51.8066-38.6719 54.248-41.0645Q56.6895-43.457 60.1074-43.457Q63.4277-43.457 65.8691-41.04Q68.3105-38.623 68.3105-35.2539Q68.3105-31.8359 65.8936-29.3701Q63.4766-26.9043 60.1074-26.9043ZM39.6973-6.49414Q36.2793-6.49414 33.8623-8.93555Q31.4453-11.377 31.4453-14.8438Q31.4453-18.2129 33.8623-20.6055Q36.2793-22.998 39.6973-22.998Q43.0664-22.998 45.4834-20.6055Q47.9004-18.2129 47.9004-14.8438Q47.9004-11.4258 45.5078-8.95996Q43.1152-6.49414 39.6973-6.49414Z"/>
  </g>
  <g id="Bold-M" transform="matrix(1 0 0 1 2280.85 1126)">
   <path class="hierarchical-0:tertiary SFSymbolsPreview8E8E8E" d="M29.6875 11.5234L88.5742 11.5234Q96.9238 11.5234 101.367 7.10449Q105.811 2.68555 105.811-5.66406L105.811-64.7461Q105.811-73.0469 101.367-77.4658Q96.9238-81.8848 88.5742-81.8848L29.6875-81.8848Q21.3379-81.8848 16.8945-77.4658Q12.4512-73.0469 12.4512-64.7461L12.4512-5.66406Q12.4512 2.68555 16.8945 7.10449Q21.3379 11.5234 29.6875 11.5234Z"/>
   <path class="hierarchical-1:primary SFSymbolsPreview212121" d="M80.2734-48.1445Q76.8555-48.1934 74.4141-50.5859Q71.9727-52.9785 71.9727-56.3965Q71.9727-59.8145 74.4141-62.207Q76.8555-64.5996 80.2734-64.5996Q83.6426-64.5996 86.084-62.207Q88.5254-59.8145 88.5254-56.3965Q88.5254-52.9297 86.084-50.4883Q83.6426-48.0469 80.2734-48.1445ZM59.1309-26.9531Q55.6641-26.9531 53.2959-29.3701Q50.9277-31.7871 50.9277-35.2539Q50.9277-38.6719 53.3203-41.04Q55.7129-43.4082 59.1309-43.4082Q62.4512-43.4082 64.8926-41.0156Q67.334-38.623 67.334-35.2539Q67.334-31.8359 64.917-29.3945Q62.5-26.9531 59.1309-26.9531ZM37.9883-5.76172Q34.5703-5.76172 32.1533-8.17871Q29.7363-10.5957 29.7363-14.0625Q29.7363-17.4316 32.1533-19.8242Q34.5703-22.2168 37.9883-22.2168Q41.3574-22.2168 43.7744-19.8242Q46.1914-17.4316 46.1914-14.0625Q46.1914-10.6445 43.7744-8.20312Q41.3574-5.76172 37.9883-5.76172Z"/>
  </g>
  <g id="Semibold-M" transform="matrix(1 0 0 1 1984.77 1126)">
   <path class="hierarchical-0:tertiary SFSymbolsPreview8E8E8E" d="M29.0039 10.8887L87.9883 10.8887Q96.0938 10.8887 100.317 6.68945Q104.541 2.49023 104.541-5.51758L104.541-64.8438Q104.541-72.8516 100.317-77.0508Q96.0938-81.25 87.9883-81.25L29.0039-81.25Q20.8984-81.25 16.6748-77.0508Q12.4512-72.8516 12.4512-64.8438L12.4512-5.51758Q12.4512 2.49023 16.6748 6.68945Q20.8984 10.8887 29.0039 10.8887Z"/>
   <path class="hierarchical-1:primary SFSymbolsPreview212121" d="M80.2246-48.6816Q76.8066-48.7305 74.3652-51.123Q71.9238-53.5156 71.9238-56.9336Q71.9238-60.3516 74.3652-62.7441Q76.8066-65.1367 80.2246-65.1367Q83.5938-65.1367 86.0107-62.7441Q88.4277-60.3516 88.4277-56.9336Q88.4277-53.4668 86.0107-51.0498Q83.5938-48.6328 80.2246-48.6816ZM58.5449-26.9531Q55.0781-26.9531 52.71-29.3701Q50.3418-31.7871 50.3418-35.2539Q50.3418-38.623 52.7344-41.0156Q55.127-43.4082 58.5449-43.4082Q61.8652-43.4082 64.3066-41.0156Q66.748-38.623 66.748-35.2539Q66.748-31.8359 64.3311-29.3945Q61.9141-26.9531 58.5449-26.9531ZM36.8652-5.22461Q33.4473-5.22461 31.0547-7.6416Q28.6621-10.0586 28.6621-13.5254Q28.6621-16.8945 31.0547-19.2871Q33.4473-21.6797 36.8652-21.6797Q40.2344-21.6797 42.627-19.2627Q45.0195-16.8457 45.0195-13.5254Q45.0195-10.0586 42.627-7.6416Q40.2344-5.22461 36.8652-5.22461Z"/>
  </g>
  <g id="Medium-M" transform="matrix(1 0 0 1 1688.52 1126)">
   <path class="hierarchical-0:tertiary SFSymbolsPreview8E8E8E" d="M28.4668 10.4004L87.5977 10.4004Q95.5078 10.4004 99.5605 6.37207Q103.613 2.34375 103.613-5.46875L103.613-64.8926Q103.613-72.7539 99.5605-76.7578Q95.5078-80.7617 87.5977-80.7617L28.4668-80.7617Q20.5566-80.7617 16.5039-76.7578Q12.4512-72.7539 12.4512-64.8926L12.4512-5.46875Q12.4512 2.34375 16.5039 6.37207Q20.5566 10.4004 28.4668 10.4004Z"/>
   <path class="hierarchical-1:primary SFSymbolsPreview212121" d="M80.127-49.1211Q76.709-49.1699 74.2676-51.5381Q71.8262-53.9062 71.8262-57.373Q71.8262-60.7422 74.2676-63.1348Q76.709-65.5273 80.127-65.5273Q83.4961-65.5273 85.9131-63.1348Q88.3301-60.7422 88.3301-57.373Q88.3301-53.9062 85.8887-51.4648Q83.4473-49.0234 80.127-49.1211ZM58.0078-27.002Q54.5898-27.002 52.2217-29.4189Q49.8535-31.8359 49.8535-35.2539Q49.8535-38.623 52.2217-40.9912Q54.5898-43.3594 58.0078-43.3594Q61.3281-43.3594 63.7695-40.9912Q66.2109-38.623 66.2109-35.2539Q66.2109-31.8359 63.7939-29.4189Q61.377-27.002 58.0078-27.002ZM35.9375-4.83398Q32.5684-4.83398 30.1514-7.25098Q27.7344-9.66797 27.7344-13.0859Q27.7344-16.4551 30.1514-18.8477Q32.5684-21.2402 35.9375-21.2402Q39.3066-21.2402 41.6992-18.8477Q44.0918-16.4551 44.0918-13.0859Q44.0918-9.66797 41.6992-7.25098Q39.3066-4.83398 35.9375-4.83398Z"/>
  </g>
  <g id="Regular-M" transform="matrix(1 0 0 1 1392.45 1126)">
   <path class="hierarchical-0:tertiary SFSymbolsPreview8E8E8E" d="M27.7832 9.76562L87.0117 9.76562Q94.6777 9.76562 98.5107 5.98145Q102.344 2.19727 102.344-5.37109L102.344-64.9902Q102.344-72.5586 98.5107-76.3428Q94.6777-80.127 87.0117-80.127L27.7832-80.127Q20.1172-80.127 16.2842-76.3428Q12.4512-72.5586 12.4512-64.9902L12.4512-5.37109Q12.4512 2.19727 16.2842 5.98145Q20.1172 9.76562 27.7832 9.76562Z"/>
   <path class="hierarchical-1:primary SFSymbolsPreview212121" d="M80.0781-49.6582Q76.6602-49.707 74.2188-52.0752Q71.7773-54.4434 71.7773-57.9102Q71.7773-61.2793 74.2188-63.6475Q76.6602-66.0156 80.0781-66.0156Q83.3984-66.0156 85.8154-63.6475Q88.2324-61.2793 88.2324-57.9102Q88.2324-54.4434 85.8154-52.0264Q83.3984-49.6094 80.0781-49.6582ZM57.4219-27.002Q54.0039-27.002 51.6357-29.4189Q49.2676-31.8359 49.2676-35.2539Q49.2676-38.623 51.6357-40.9912Q54.0039-43.3594 57.4219-43.3594Q60.7422-43.3594 63.1592-40.9912Q65.5762-38.623 65.5762-35.2539Q65.5762-31.8359 63.1592-29.4189Q60.7422-27.002 57.4219-27.002ZM34.8145-4.3457Q31.4453-4.3457 29.0527-6.73828Q26.6602-9.13086 26.6602-12.5488Q26.6602-15.918 29.0527-18.3105Q31.4453-20.7031 34.8145-20.7031Q38.1836-20.7031 40.5762-18.3105Q42.9688-15.918 42.9688-12.5488Q42.9688-9.13086 40.5762-6.73828Q38.1836-4.3457 34.8145-4.3457Z"/>
  </g>
  <g id="Light-M" transform="matrix(1 0 0 1 1096.47 1126)">
   <path class="hierarchical-0:tertiary SFSymbolsPreview8E8E8E" d="M26.8555 9.0332L86.4746 9.0332Q93.6035 9.0332 97.2412 5.44434Q100.879 1.85547 100.879-5.22461L100.879-65.0879Q100.879-72.168 97.2412-75.7812Q93.6035-79.3945 86.4746-79.3945L26.8555-79.3945Q19.6777-79.3945 16.0645-75.8057Q12.4512-72.2168 12.4512-65.0879L12.4512-5.22461Q12.4512 1.85547 16.0645 5.44434Q19.6777 9.0332 26.8555 9.0332Z"/>
   <path class="hierarchical-1:primary SFSymbolsPreview212121" d="M79.7363-50.4395Q76.4648-50.4883 74.1211-52.7588Q71.7773-55.0293 71.7773-58.3496Q71.7773-61.6211 74.1211-63.8916Q76.4648-66.1621 79.7363-66.1621Q82.959-66.1621 85.2783-63.8916Q87.5977-61.6211 87.5977-58.3496Q87.5977-55.0293 85.2783-52.71Q82.959-50.3906 79.7363-50.4395ZM56.6895-27.2949Q53.418-27.2949 51.123-29.6387Q48.8281-31.9824 48.8281-35.2539Q48.8281-38.4766 51.123-40.7471Q53.418-43.0176 56.6895-43.0176Q59.8633-43.0176 62.207-40.7471Q64.5508-38.4766 64.5508-35.2539Q64.5508-31.9824 62.207-29.6387Q59.8633-27.2949 56.6895-27.2949ZM33.6426-4.24805Q30.4199-4.24805 28.125-6.54297Q25.8301-8.83789 25.8301-12.1582Q25.8301-15.3809 28.125-17.6758Q30.4199-19.9707 33.6426-19.9707Q36.8652-19.9707 39.1602-17.6758Q41.4551-15.3809 41.4551-12.1582Q41.4551-8.83789 39.1602-6.54297Q36.8652-4.24805 33.6426-4.24805Z"/>
  </g>
  <g id="Thin-M" transform="matrix(1 0 0 1 800.758 1126)">
   <path class="hierarchical-0:tertiary SFSymbolsPreview8E8E8E" d="M25.5859 8.05664L85.6934 8.05664Q92.2363 8.05664 95.5566 4.71191Q98.877 1.36719 98.877-5.07812L98.877-65.2344Q98.877-71.6309 95.5566-75Q92.2363-78.3691 85.6934-78.3691L25.5859-78.3691Q19.1406-78.3691 15.7959-75.0488Q12.4512-71.7285 12.4512-65.2344L12.4512-5.07812Q12.4512 1.41602 15.7959 4.73633Q19.1406 8.05664 25.5859 8.05664Z"/>
   <path class="hierarchical-1:primary SFSymbolsPreview212121" d="M79.3457-51.4648Q76.2207-51.5137 74.0234-53.6865Q71.8262-55.8594 71.8262-58.9844Q71.8262-62.0605 74.0234-64.1846Q76.2207-66.3086 79.3457-66.3086Q82.373-66.3086 84.5459-64.1846Q86.7188-62.0605 86.7188-58.9844Q86.7188-55.8594 84.5459-53.6377Q82.373-51.416 79.3457-51.4648ZM55.7617-27.6855Q52.6367-27.6855 50.4639-29.9072Q48.291-32.1289 48.291-35.2539Q48.291-38.3301 50.4639-40.4785Q52.6367-42.627 55.7617-42.627Q58.7402-42.627 60.9375-40.4785Q63.1348-38.3301 63.1348-35.2539Q63.1348-32.1289 60.9375-29.9072Q58.7402-27.6855 55.7617-27.6855ZM32.1289-4.15039Q29.0527-4.15039 26.8799-6.32324Q24.707-8.49609 24.707-11.6211Q24.707-14.6484 26.8799-16.8213Q29.0527-18.9941 32.1289-18.9941Q35.1562-18.9941 37.3291-16.8213Q39.502-14.6484 39.502-11.6211Q39.502-8.49609 37.3291-6.32324Q35.1562-4.15039 32.1289-4.15039Z"/>
  </g>
  <g id="Ultralight-M" transform="matrix(1 0 0 1 504.535 1126)">
   <path class="hierarchical-0:tertiary SFSymbolsPreview8E8E8E" d="M24.9512 7.56836L85.3516 7.56836Q91.5039 7.56836 94.7021 4.3457Q97.9004 1.12305 97.9004-4.98047L97.9004-65.332Q97.9004-71.3867 94.7021-74.6338Q91.5039-77.8809 85.3516-77.8809L24.9512-77.8809Q18.8477-77.8809 15.6494-74.6826Q12.4512-71.4844 12.4512-65.332L12.4512-4.98047Q12.4512 1.2207 15.6494 4.39453Q18.8477 7.56836 24.9512 7.56836Z"/>
   <path class="hierarchical-1:primary SFSymbolsPreview212121" d="M79.1016-52.002Q76.123-52.0508 73.9746-54.1504Q71.8262-56.25 71.8262-59.2773Q71.8262-62.2559 73.9746-64.3311Q76.123-66.4062 79.1016-66.4062Q82.0312-66.4062 84.1553-64.3311Q86.2793-62.2559 86.2793-59.2773Q86.2793-56.25 84.1553-54.1016Q82.0312-51.9531 79.1016-52.002ZM55.2246-27.9297Q52.2461-27.9297 50.1221-30.0781Q47.998-32.2266 47.998-35.2539Q47.998-38.2324 50.1221-40.3076Q52.2461-42.3828 55.2246-42.3828Q58.1543-42.3828 60.3027-40.3076Q62.4512-38.2324 62.4512-35.2539Q62.4512-32.2266 60.3027-30.0781Q58.1543-27.9297 55.2246-27.9297ZM31.2988-4.05273Q28.3691-4.05273 26.2451-6.17676Q24.1211-8.30078 24.1211-11.3281Q24.1211-14.3066 26.2451-16.4062Q28.3691-18.5059 31.2988-18.5059Q34.2773-18.5059 36.377-16.4062Q38.4766-14.3066 38.4766-11.3281Q38.4766-8.30078 36.377-6.17676Q34.2773-4.05273 31.2988-4.05273Z"/>
  </g>
  <g id="Black-S" transform="matrix(1 0 0 1 2885.5 696)">
   <path class="hierarchical-0:tertiary SFSymbolsPreview8E8E8E" d="M25 2.92969L70.8008 2.92969Q77.9785 2.92969 82.0068-1.09863Q86.0352-5.12695 86.0352-12.3047L86.0352-58.1055Q86.0352-65.2832 82.0068-69.3115Q77.9785-73.3398 70.8008-73.3398L25-73.3398Q17.8223-73.3398 13.7939-69.3115Q9.76562-65.2832 9.76562-58.1055L9.76562-12.3047Q9.76562-5.12695 13.7939-1.09863Q17.8223 2.92969 25 2.92969Z"/>
   <path class="hierarchical-1:primary SFSymbolsPreview212121" d="M63.1348-43.9453Q60.4492-43.9941 58.5205-45.874Q56.5918-47.7539 56.5918-50.4395Q56.5918-53.125 58.5205-55.0293Q60.4492-56.9336 63.1348-56.9336Q65.8203-56.9336 67.7246-55.0293Q69.6289-53.125 69.6289-50.4395Q69.6289-47.7539 67.7002-45.8252Q65.7715-43.8965 63.1348-43.9453ZM47.9492-28.7109Q45.2148-28.7109 43.335-30.6152Q41.4551-32.5195 41.4551-35.2539Q41.4551-37.9395 43.3594-39.7949Q45.2637-41.6504 47.9492-41.6504Q50.5371-41.6504 52.4658-39.7705Q54.3945-37.8906 54.3945-35.2539Q54.3945-32.5684 52.5146-30.6396Q50.6348-28.7109 47.9492-28.7109ZM32.666-13.4277Q29.9805-13.4277 28.0762-15.3564Q26.1719-17.2852 26.1719-20.0195Q26.1719-22.6562 28.0762-24.5361Q29.9805-26.416 32.666-26.416Q35.3027-26.416 37.207-24.5117Q39.1113-22.6074 39.1113-20.0195Q39.1113-17.334 37.2314-15.3809Q35.3516-13.4277 32.666-13.4277Z"/>
  </g>
  <g id="Heavy-S" transform="matrix(1 0 0 1 2589.4 696)">
   <path class="hierarchical-0:tertiary SFSymbolsPreview8E8E8E" d="M24.3652 2.34375L70.2637 2.34375Q77.1973 2.34375 81.0059-1.46484Q84.8145-5.27344 84.8145-12.207L84.8145-58.2031Q84.8145-65.1367 81.0059-68.9453Q77.1973-72.7539 70.2637-72.7539L24.3652-72.7539Q17.3828-72.7539 13.5742-68.9453Q9.76562-65.1367 9.76562-58.2031L9.76562-12.207Q9.76562-5.27344 13.5742-1.46484Q17.3828 2.34375 24.3652 2.34375Z"/>
   <path class="hierarchical-1:primary SFSymbolsPreview212121" d="M63.0859-44.4824Q60.4004-44.5312 58.4717-46.4111Q56.543-48.291 56.543-50.9766Q56.543-53.6621 58.4717-55.5664Q60.4004-57.4707 63.0859-57.4707Q65.7715-57.4707 67.6758-55.5664Q69.5801-53.6621 69.5801-50.9766Q69.5801-48.291 67.6514-46.3623Q65.7227-44.4336 63.0859-44.4824ZM47.3145-28.7109Q44.6289-28.7109 42.7246-30.6152Q40.8203-32.5195 40.8203-35.2539Q40.8203-37.9395 42.7246-39.7949Q44.6289-41.6504 47.3145-41.6504Q49.9512-41.6504 51.8799-39.7705Q53.8086-37.8906 53.8086-35.2539Q53.8086-32.5684 51.9043-30.6396Q50-28.7109 47.3145-28.7109ZM31.543-12.8906Q28.8574-12.8906 26.9531-14.8193Q25.0488-16.748 25.0488-19.4824Q25.0488-22.1191 26.9531-23.999Q28.8574-25.8789 31.543-25.8789Q34.1797-25.8789 36.084-23.9746Q37.9883-22.0703 37.9883-19.4824Q37.9883-16.748 36.1084-14.8193Q34.2285-12.8906 31.543-12.8906Z"/>
  </g>
  <g id="Bold-S" transform="matrix(1 0 0 1 2293.35 696)">
   <path class="hierarchical-0:tertiary SFSymbolsPreview8E8E8E" d="M23.6328 1.66016L69.6289 1.66016Q76.3672 1.66016 79.9316-1.9043Q83.4961-5.46875 83.4961-12.1094L83.4961-58.3008Q83.4961-64.9902 79.9316-68.5303Q76.3672-72.0703 69.6289-72.0703L23.6328-72.0703Q16.9434-72.0703 13.3545-68.5303Q9.76562-64.9902 9.76562-58.3008L9.76562-12.1094Q9.76562-5.46875 13.3545-1.9043Q16.9434 1.66016 23.6328 1.66016Z"/>
   <path class="hierarchical-1:primary SFSymbolsPreview212121" d="M62.9883-45.0684Q60.3027-45.1172 58.3496-46.9971Q56.3965-48.877 56.3965-51.6113Q56.3965-54.2969 58.3496-56.2012Q60.3027-58.1055 62.9883-58.1055Q65.6738-58.1055 67.6025-56.2012Q69.5312-54.2969 69.5312-51.6113Q69.5312-48.877 67.6025-46.9482Q65.6738-45.0195 62.9883-45.0684ZM46.6309-28.6621Q43.8965-28.6621 41.9922-30.5908Q40.0879-32.5195 40.0879-35.2539Q40.0879-37.9395 42.0166-39.8193Q43.9453-41.6992 46.6309-41.6992Q49.2676-41.6992 51.1963-39.8193Q53.125-37.9395 53.125-35.2539Q53.125-32.5195 51.2207-30.5908Q49.3164-28.6621 46.6309-28.6621ZM30.2246-12.2559Q27.5391-12.2559 25.6348-14.1846Q23.7305-16.1133 23.7305-18.8477Q23.7305-21.5332 25.6348-23.4375Q27.5391-25.3418 30.2246-25.3418Q32.9102-25.3418 34.8145-23.4375Q36.7188-21.5332 36.7188-18.8477Q36.7188-16.1621 34.8145-14.209Q32.9102-12.2559 30.2246-12.2559Z"/>
  </g>
  <g id="Semibold-S" transform="matrix(1 0 0 1 1997.12 696)">
   <path class="hierarchical-0:tertiary SFSymbolsPreview8E8E8E" d="M23.0957 1.2207L69.1895 1.2207Q75.7324 1.2207 79.126-2.17285Q82.5195-5.56641 82.5195-12.0605L82.5195-58.3496Q82.5195-64.8438 79.126-68.2373Q75.7324-71.6309 69.1895-71.6309L23.0957-71.6309Q16.6016-71.6309 13.1836-68.2373Q9.76562-64.8438 9.76562-58.3496L9.76562-12.0605Q9.76562-5.56641 13.1836-2.17285Q16.6016 1.2207 23.0957 1.2207Z"/>
   <path class="hierarchical-1:primary SFSymbolsPreview212121" d="M62.9883-45.459Q60.2539-45.5078 58.3008-47.3877Q56.3477-49.2676 56.3477-52.002Q56.3477-54.7363 58.3008-56.6406Q60.2539-58.5449 62.9883-58.5449Q65.6738-58.5449 67.5781-56.6406Q69.4824-54.7363 69.4824-52.002Q69.4824-49.2676 67.5537-47.3389Q65.625-45.4102 62.9883-45.459ZM46.1426-28.6621Q43.457-28.6621 41.5527-30.5664Q39.6484-32.4707 39.6484-35.2539Q39.6484-37.9395 41.5527-39.8193Q43.457-41.6992 46.1426-41.6992Q48.8281-41.6992 50.7568-39.8193Q52.6855-37.9395 52.6855-35.2539Q52.6855-32.5195 50.7568-30.5908Q48.8281-28.6621 46.1426-28.6621ZM29.3945-11.8164Q26.6602-11.8164 24.7559-13.7451Q22.8516-15.6738 22.8516-18.4082Q22.8516-21.1426 24.7559-23.0225Q26.6602-24.9023 29.3945-24.9023Q32.0312-24.9023 33.96-22.998Q35.8887-21.0938 35.8887-18.4082Q35.8887-15.7227 33.9844-13.7695Q32.0801-11.8164 29.3945-11.8164Z"/>
  </g>
  <g id="Medium-S" transform="matrix(1 0 0 1 1700.75 696)">
   <path class="hierarchical-0:tertiary SFSymbolsPreview8E8E8E" d="M22.7051 0.830078L68.8965 0.830078Q75.293 0.830078 78.5645-2.41699Q81.8359-5.66406 81.8359-11.9629L81.8359-58.4473Q81.8359-64.7461 78.5645-67.9932Q75.293-71.2402 68.8965-71.2402L22.7051-71.2402Q16.3574-71.2402 13.0615-67.9932Q9.76562-64.7461 9.76562-58.4473L9.76562-11.9629Q9.76562-5.66406 13.0615-2.41699Q16.3574 0.830078 22.7051 0.830078Z"/>
   <path class="hierarchical-1:primary SFSymbolsPreview212121" d="M62.9395-45.752Q60.2051-45.8008 58.252-47.7051Q56.2988-49.6094 56.2988-52.3438Q56.2988-55.0293 58.252-56.9336Q60.2051-58.8379 62.9395-58.8379Q65.625-58.8379 67.5293-56.9336Q69.4336-55.0293 69.4336-52.3438Q69.4336-49.6094 67.5049-47.6562Q65.5762-45.7031 62.9395-45.752ZM45.752-28.6133Q43.0664-28.6133 41.1621-30.542Q39.2578-32.4707 39.2578-35.2539Q39.2578-37.9395 41.1621-39.8438Q43.0664-41.748 45.752-41.748Q48.4375-41.748 50.3662-39.8438Q52.2949-37.9395 52.2949-35.2539Q52.2949-32.4707 50.3662-30.542Q48.4375-28.6133 45.752-28.6133ZM28.7109-11.5234Q25.9766-11.5234 24.0723-13.4521Q22.168-15.3809 22.168-18.1152Q22.168-20.8008 24.0723-22.7051Q25.9766-24.6094 28.7109-24.6094Q31.3477-24.6094 33.2764-22.7051Q35.2051-20.8008 35.2051-18.1152Q35.2051-15.3809 33.3008-13.4521Q31.3965-11.5234 28.7109-11.5234Z"/>
  </g>
  <g id="Regular-S" transform="matrix(1 0 0 1 1404.51 696)">
   <path class="hierarchical-0:tertiary SFSymbolsPreview8E8E8E" d="M22.2168 0.390625L68.457 0.390625Q74.707 0.390625 77.8076-2.68555Q80.9082-5.76172 80.9082-11.9141L80.9082-58.4961Q80.9082-64.6484 77.8076-67.7246Q74.707-70.8008 68.457-70.8008L22.2168-70.8008Q16.0156-70.8008 12.8906-67.7246Q9.76562-64.6484 9.76562-58.4961L9.76562-11.9141Q9.76562-5.76172 12.8906-2.68555Q16.0156 0.390625 22.2168 0.390625Z"/>
   <path class="hierarchical-1:primary SFSymbolsPreview212121" d="M62.8906-46.1426Q60.1562-46.1914 58.2031-48.0957Q56.25-50 56.25-52.7344Q56.25-55.4688 58.2031-57.373Q60.1562-59.2773 62.8906-59.2773Q65.5762-59.2773 67.5049-57.373Q69.4336-55.4688 69.4336-52.7344Q69.4336-50 67.5049-48.0469Q65.5762-46.0938 62.8906-46.1426ZM45.3125-28.6133Q42.627-28.6133 40.6982-30.542Q38.7695-32.4707 38.7695-35.2539Q38.7695-37.9395 40.6982-39.8438Q42.627-41.748 45.3125-41.748Q47.998-41.748 49.9268-39.8438Q51.8555-37.9395 51.8555-35.2539Q51.8555-32.4707 49.9268-30.542Q47.998-28.6133 45.3125-28.6133ZM27.832-11.084Q25.0977-11.084 23.1934-13.0127Q21.2891-14.9414 21.2891-17.6758Q21.2891-20.4102 23.1934-22.3145Q25.0977-24.2188 27.832-24.2188Q30.5176-24.2188 32.4463-22.3145Q34.375-20.4102 34.375-17.6758Q34.375-14.9414 32.4463-13.0127Q30.5176-11.084 27.832-11.084Z"/>
  </g>
  <g id="Light-S" transform="matrix(1 0 0 1 1108.46 696)">
   <path class="hierarchical-0:tertiary SFSymbolsPreview8E8E8E" d="M21.3867-0.244141L67.9688-0.244141Q73.7793-0.244141 76.6846-3.17383Q79.5898-6.10352 79.5898-11.8164L79.5898-58.5938Q79.5898-64.3066 76.6846-67.2119Q73.7793-70.1172 67.9688-70.1172L21.3867-70.1172Q15.625-70.1172 12.6953-67.2119Q9.76562-64.3066 9.76562-58.5938L9.76562-11.8164Q9.76562-6.05469 12.6953-3.14941Q15.625-0.244141 21.3867-0.244141Z"/>
   <path class="hierarchical-1:primary SFSymbolsPreview212121" d="M62.5977-46.8262Q60.0098-46.875 58.1299-48.7061Q56.25-50.5371 56.25-53.1738Q56.25-55.7617 58.1299-57.5684Q60.0098-59.375 62.5977-59.375Q65.1855-59.375 67.0166-57.5684Q68.8477-55.7617 68.8477-53.1738Q68.8477-50.5371 67.0166-48.6572Q65.1855-46.7773 62.5977-46.8262ZM44.6777-28.9062Q42.0898-28.9062 40.2588-30.7373Q38.4277-32.5684 38.4277-35.2539Q38.4277-37.8418 40.2588-39.6484Q42.0898-41.4551 44.6777-41.4551Q47.2168-41.4551 49.0723-39.6484Q50.9277-37.8418 50.9277-35.2539Q50.9277-32.5684 49.0723-30.7373Q47.2168-28.9062 44.6777-28.9062ZM26.8066-10.9863Q24.1699-10.9863 22.3389-12.8418Q20.5078-14.6973 20.5078-17.2852Q20.5078-19.9219 22.3389-21.7529Q24.1699-23.584 26.8066-23.584Q29.3457-23.584 31.2012-21.7529Q33.0566-19.9219 33.0566-17.2852Q33.0566-14.6973 31.2012-12.8418Q29.3457-10.9863 26.8066-10.9863Z"/>
  </g>
  <g id="Thin-S" transform="matrix(1 0 0 1 812.623 696)">
   <path class="hierarchical-0:tertiary SFSymbolsPreview8E8E8E" d="M20.3125-1.12305L67.2852-1.12305Q72.5098-1.12305 75.1709-3.80859Q77.832-6.49414 77.832-11.6211L77.832-58.6914Q77.832-63.8184 75.1709-66.5283Q72.5098-69.2383 67.2852-69.2383L20.3125-69.2383Q15.0879-69.2383 12.4268-66.5771Q9.76562-63.916 9.76562-58.6914L9.76562-11.6211Q9.76562-6.44531 12.4268-3.78418Q15.0879-1.12305 20.3125-1.12305Z"/>
   <path class="hierarchical-1:primary SFSymbolsPreview212121" d="M62.2559-47.7539Q59.8145-47.8027 58.0566-49.5117Q56.2988-51.2207 56.2988-53.7109Q56.2988-56.1523 58.0566-57.8613Q59.8145-59.5703 62.2559-59.5703Q64.6484-59.5703 66.3818-57.8613Q68.1152-56.1523 68.1152-53.7109Q68.1152-51.2207 66.3818-49.4629Q64.6484-47.7051 62.2559-47.7539ZM43.8477-29.248Q41.4062-29.248 39.6973-31.0059Q37.9883-32.7637 37.9883-35.2539Q37.9883-37.6465 39.6973-39.3799Q41.4062-41.1133 43.8477-41.1133Q46.2402-41.1133 47.998-39.3799Q49.7559-37.6465 49.7559-35.2539Q49.7559-32.7637 47.998-31.0059Q46.2402-29.248 43.8477-29.248ZM25.4883-10.8887Q23.0469-10.8887 21.3135-12.6221Q19.5801-14.3555 19.5801-16.7969Q19.5801-19.2383 21.3135-20.9717Q23.0469-22.7051 25.4883-22.7051Q27.8809-22.7051 29.6143-20.9717Q31.3477-19.2383 31.3477-16.7969Q31.3477-14.3555 29.6143-12.6221Q27.8809-10.8887 25.4883-10.8887Z"/>
  </g>
  <g id="Ultralight-S" transform="matrix(1 0 0 1 516.352 696)">
   <path class="hierarchical-0:tertiary SFSymbolsPreview8E8E8E" d="M19.7754-1.5625L66.9434-1.5625Q71.875-1.5625 74.4141-4.15039Q76.9531-6.73828 76.9531-11.5723L76.9531-58.7891Q76.9531-63.623 74.4141-66.1865Q71.875-68.75 66.9434-68.75L19.7754-68.75Q14.8438-68.75 12.3047-66.2109Q9.76562-63.6719 9.76562-58.7891L9.76562-11.5723Q9.76562-6.64062 12.3047-4.10156Q14.8438-1.5625 19.7754-1.5625Z"/>
   <path class="hierarchical-1:primary SFSymbolsPreview212121" d="M62.0605-48.2422Q59.7168-48.291 58.0078-49.9512Q56.2988-51.6113 56.2988-54.0039Q56.2988-56.3477 58.0078-57.9834Q59.7168-59.6191 62.0605-59.6191Q64.4043-59.6191 66.0645-57.9834Q67.7246-56.3477 67.7246-54.0039Q67.7246-51.6113 66.0645-49.9023Q64.4043-48.1934 62.0605-48.2422ZM43.4082-29.4434Q41.0156-29.4434 39.3799-31.1279Q37.7441-32.8125 37.7441-35.2539Q37.7441-37.5977 39.3799-39.2578Q41.0156-40.918 43.4082-40.918Q45.752-40.918 47.4365-39.2578Q49.1211-37.5977 49.1211-35.2539Q49.1211-32.8125 47.4365-31.1279Q45.752-29.4434 43.4082-29.4434ZM24.8047-10.8398Q22.4121-10.8398 20.7275-12.5244Q19.043-14.209 19.043-16.5527Q19.043-18.8965 20.7275-20.5811Q22.4121-22.2656 24.8047-22.2656Q27.0996-22.2656 28.7598-20.5811Q30.4199-18.8965 30.4199-16.5527Q30.4199-14.209 28.7598-12.5244Q27.0996-10.8398 24.8047-10.8398Z"/>
  </g>
 </g>
</svg>
