<?xml version="1.0" encoding="UTF-8"?>
<!--Generator: Apple Native CoreSVG 175-->
<!DOCTYPE svg
PUBLIC "-//W3C//DTD SVG 1.1//EN"
       "http://www.w3.org/Graphics/SVG/1.1/DTD/svg11.dtd">
<svg version="1.1" xmlns="http://www.w3.org/2000/svg" xmlns:xlink="http://www.w3.org/1999/xlink" width="3300" height="2200">
 <!--glyph: "uni100BE9.medium", point size: 100.0, font version: "17.0d11e1", template writer version: "65.1"-->
 <style>.hierarchical-0:secondary {fill:#4D4D4D}
.hierarchical-1:primary {fill:#212121}

.SFSymbolsPreview212121 {fill:#212121;opacity:1.0}
.SFSymbolsPreview4D4D4D {fill:#4D4D4D;opacity:1.0}
</style>
 <g id="Notes">
  <rect height="2200" id="artboard" style="fill:white;opacity:1" width="3300" x="0" y="0"/>
  <line style="fill:none;stroke:black;opacity:1;stroke-width:0.5;" x1="263" x2="3036" y1="292" y2="292"/>
  <text style="stroke:none;fill:black;font-family:sans-serif;font-size:13;font-weight:bold;" transform="matrix(1 0 0 1 263 322)">Weight/Scale Variations</text>
  <text style="stroke:none;fill:black;font-family:sans-serif;font-size:13;text-anchor:middle;" transform="matrix(1 0 0 1 559.711 322)">Ultralight</text>
  <text style="stroke:none;fill:black;font-family:sans-serif;font-size:13;text-anchor:middle;" transform="matrix(1 0 0 1 856.422 322)">Thin</text>
  <text style="stroke:none;fill:black;font-family:sans-serif;font-size:13;text-anchor:middle;" transform="matrix(1 0 0 1 1153.13 322)">Light</text>
  <text style="stroke:none;fill:black;font-family:sans-serif;font-size:13;text-anchor:middle;" transform="matrix(1 0 0 1 1449.84 322)">Regular</text>
  <text style="stroke:none;fill:black;font-family:sans-serif;font-size:13;text-anchor:middle;" transform="matrix(1 0 0 1 1746.56 322)">Medium</text>
  <text style="stroke:none;fill:black;font-family:sans-serif;font-size:13;text-anchor:middle;" transform="matrix(1 0 0 1 2043.27 322)">Semibold</text>
  <text style="stroke:none;fill:black;font-family:sans-serif;font-size:13;text-anchor:middle;" transform="matrix(1 0 0 1 2339.98 322)">Bold</text>
  <text style="stroke:none;fill:black;font-family:sans-serif;font-size:13;text-anchor:middle;" transform="matrix(1 0 0 1 2636.69 322)">Heavy</text>
  <text style="stroke:none;fill:black;font-family:sans-serif;font-size:13;text-anchor:middle;" transform="matrix(1 0 0 1 2933.4 322)">Black</text>
  <line style="fill:none;stroke:black;opacity:1;stroke-width:0.5;" x1="263" x2="3036" y1="1903" y2="1903"/>
  <g transform="matrix(1 0 0 1 263 1933)">
   <path d="M9.24805 0.830078Q10.8691 0.830078 12.2949 0.214844Q13.7207-0.400391 14.8096-1.49414Q15.8984-2.58789 16.5186-4.01367Q17.1387-5.43945 17.1387-7.05078Q17.1387-8.66211 16.5186-10.0879Q15.8984-11.5137 14.8047-12.6074Q13.7109-13.7012 12.2852-14.3164Q10.8594-14.9316 9.23828-14.9316Q7.62695-14.9316 6.20117-14.3164Q4.77539-13.7012 3.69141-12.6074Q2.60742-11.5137 1.9873-10.0879Q1.36719-8.66211 1.36719-7.05078Q1.36719-5.43945 1.9873-4.01367Q2.60742-2.58789 3.69629-1.49414Q4.78516-0.400391 6.21094 0.214844Q7.63672 0.830078 9.24805 0.830078ZM9.24805-0.654297Q7.91992-0.654297 6.7627-1.14746Q5.60547-1.64062 4.73145-2.51953Q3.85742-3.39844 3.36426-4.56055Q2.87109-5.72266 2.87109-7.05078Q2.87109-8.37891 3.35938-9.54102Q3.84766-10.7031 4.72168-11.582Q5.5957-12.4609 6.75293-12.9541Q7.91016-13.4473 9.23828-13.4473Q10.5762-13.4473 11.7334-12.9541Q12.8906-12.4609 13.7695-11.582Q14.6484-10.7031 15.1465-9.54102Q15.6445-8.37891 15.6445-7.05078Q15.6445-5.72266 15.1514-4.56055Q14.6582-3.39844 13.7842-2.51953Q12.9102-1.64062 11.748-1.14746Q10.5859-0.654297 9.24805-0.654297ZM5.6543-7.05078Q5.6543-6.72852 5.85938-6.52832Q6.06445-6.32812 6.40625-6.32812L8.51562-6.32812L8.51562-4.20898Q8.51562-3.88672 8.71094-3.67676Q8.90625-3.4668 9.23828-3.4668Q9.56055-3.4668 9.77051-3.67676Q9.98047-3.88672 9.98047-4.20898L9.98047-6.32812L12.0898-6.32812Q12.4219-6.32812 12.627-6.52832Q12.832-6.72852 12.832-7.05078Q12.832-7.38281 12.627-7.58789Q12.4219-7.79297 12.0898-7.79297L9.98047-7.79297L9.98047-9.90234Q9.98047-10.2344 9.77051-10.4443Q9.56055-10.6543 9.23828-10.6543Q8.90625-10.6543 8.71094-10.4443Q8.51562-10.2344 8.51562-9.90234L8.51562-7.79297L6.40625-7.79297Q6.06445-7.79297 5.85938-7.58789Q5.6543-7.38281 5.6543-7.05078Z"/>
  </g>
  <g transform="matrix(1 0 0 1 281.867 1933)">
   <path d="M11.709 2.91016Q13.75 2.91016 15.5518 2.12891Q17.3535 1.34766 18.7305-0.0292969Q20.1074-1.40625 20.8887-3.20801Q21.6699-5.00977 21.6699-7.05078Q21.6699-9.0918 20.8887-10.8936Q20.1074-12.6953 18.7305-14.0723Q17.3535-15.4492 15.5469-16.2305Q13.7402-17.0117 11.6992-17.0117Q9.6582-17.0117 7.85645-16.2305Q6.05469-15.4492 4.68262-14.0723Q3.31055-12.6953 2.5293-10.8936Q1.74805-9.0918 1.74805-7.05078Q1.74805-5.00977 2.5293-3.20801Q3.31055-1.40625 4.6875-0.0292969Q6.06445 1.34766 7.86621 2.12891Q9.66797 2.91016 11.709 2.91016ZM11.709 1.25Q9.98047 1.25 8.47656 0.605469Q6.97266-0.0390625 5.83496-1.17676Q4.69727-2.31445 4.05762-3.81836Q3.41797-5.32227 3.41797-7.05078Q3.41797-8.7793 4.05762-10.2832Q4.69727-11.7871 5.83008-12.9297Q6.96289-14.0723 8.4668-14.7119Q9.9707-15.3516 11.6992-15.3516Q13.4277-15.3516 14.9316-14.7119Q16.4355-14.0723 17.5781-12.9297Q18.7207-11.7871 19.3652-10.2832Q20.0098-8.7793 20.0098-7.05078Q20.0098-5.32227 19.3701-3.81836Q18.7305-2.31445 17.5928-1.17676Q16.4551-0.0390625 14.9463 0.605469Q13.4375 1.25 11.709 1.25ZM7.17773-7.05078Q7.17773-6.69922 7.41211-6.47461Q7.64648-6.25 8.01758-6.25L10.8887-6.25L10.8887-3.36914Q10.8887-2.99805 11.1133-2.76855Q11.3379-2.53906 11.6895-2.53906Q12.0605-2.53906 12.29-2.76855Q12.5195-2.99805 12.5195-3.36914L12.5195-6.25L15.4004-6.25Q15.7715-6.25 16.001-6.47461Q16.2305-6.69922 16.2305-7.05078Q16.2305-7.42188 16.001-7.65137Q15.7715-7.88086 15.4004-7.88086L12.5195-7.88086L12.5195-10.752Q12.5195-11.1328 12.29-11.3623Q12.0605-11.5918 11.6895-11.5918Q11.3379-11.5918 11.1133-11.3574Q10.8887-11.123 10.8887-10.752L10.8887-7.88086L8.01758-7.88086Q7.63672-7.88086 7.40723-7.65137Q7.17773-7.42188 7.17773-7.05078Z"/>
  </g>
  <g transform="matrix(1 0 0 1 305.646 1933)">
   <path d="M14.9707 5.66406Q17.0605 5.66406 18.96 5.01465Q20.8594 4.36523 22.4512 3.19336Q24.043 2.02148 25.2197 0.429688Q26.3965-1.16211 27.0459-3.06641Q27.6953-4.9707 27.6953-7.05078Q27.6953-9.14062 27.0459-11.04Q26.3965-12.9395 25.2197-14.5312Q24.043-16.123 22.4512-17.2998Q20.8594-18.4766 18.9551-19.126Q17.0508-19.7754 14.9609-19.7754Q12.8711-19.7754 10.9717-19.126Q9.07227-18.4766 7.48535-17.2998Q5.89844-16.123 4.72168-14.5312Q3.54492-12.9395 2.90039-11.04Q2.25586-9.14062 2.25586-7.05078Q2.25586-4.9707 2.90527-3.06641Q3.55469-1.16211 4.72656 0.429688Q5.89844 2.02148 7.49023 3.19336Q9.08203 4.36523 10.9814 5.01465Q12.8809 5.66406 14.9707 5.66406ZM14.9707 3.84766Q13.1641 3.84766 11.5283 3.2959Q9.89258 2.74414 8.53516 1.74805Q7.17773 0.751953 6.17676-0.610352Q5.17578-1.97266 4.62891-3.6084Q4.08203-5.24414 4.08203-7.05078Q4.08203-8.86719 4.62891-10.5029Q5.17578-12.1387 6.17188-13.501Q7.16797-14.8633 8.52539-15.8594Q9.88281-16.8555 11.5186-17.4023Q13.1543-17.9492 14.9609-17.9492Q16.7773-17.9492 18.4131-17.4023Q20.0488-16.8555 21.4111-15.8594Q22.7734-14.8633 23.7695-13.501Q24.7656-12.1387 25.3174-10.5029Q25.8691-8.86719 25.8691-7.05078Q25.8789-5.24414 25.332-3.6084Q24.7852-1.97266 23.7842-0.610352Q22.7832 0.751953 21.4209 1.74805Q20.0586 2.74414 18.4229 3.2959Q16.7871 3.84766 14.9707 3.84766ZM9.19922-7.05078Q9.19922-6.66992 9.45801-6.4209Q9.7168-6.17188 10.1172-6.17188L14.0625-6.17188L14.0625-2.2168Q14.0625-1.81641 14.3115-1.55762Q14.5605-1.29883 14.9512-1.29883Q15.3516-1.29883 15.6104-1.55273Q15.8691-1.80664 15.8691-2.2168L15.8691-6.17188L19.8242-6.17188Q20.2246-6.17188 20.4785-6.4209Q20.7324-6.66992 20.7324-7.05078Q20.7324-7.46094 20.4785-7.71484Q20.2246-7.96875 19.8242-7.96875L15.8691-7.96875L15.8691-11.9141Q15.8691-12.3242 15.6104-12.583Q15.3516-12.8418 14.9512-12.8418Q14.5605-12.8418 14.3115-12.583Q14.0625-12.3242 14.0625-11.9141L14.0625-7.96875L10.1172-7.96875Q9.70703-7.96875 9.45312-7.71484Q9.19922-7.46094 9.19922-7.05078Z"/>
  </g>
  <text style="stroke:none;fill:black;font-family:sans-serif;font-size:13;font-weight:bold;" transform="matrix(1 0 0 1 263 1953)">Design Variations</text>
  <text style="stroke:none;fill:black;font-family:sans-serif;font-size:13;" transform="matrix(1 0 0 1 263 1971)">Symbols are supported in up to nine weights and three scales.</text>
  <text style="stroke:none;fill:black;font-family:sans-serif;font-size:13;" transform="matrix(1 0 0 1 263 1989)">For optimal layout with text and other symbols, vertically align</text>
  <text style="stroke:none;fill:black;font-family:sans-serif;font-size:13;" transform="matrix(1 0 0 1 263 2007)">symbols with the adjacent text.</text>
  <line style="fill:none;stroke:#00AEEF;stroke-width:0.5;opacity:1.0;" x1="776" x2="776" y1="1919" y2="1933"/>
  <g transform="matrix(1 0 0 1 776 1933)">
   <path d="M3.31055 0.15625Q3.70117 0.15625 3.91602-0.00976562Q4.13086-0.175781 4.26758-0.585938L5.52734-4.0332L11.2891-4.0332L12.5488-0.585938Q12.6855-0.175781 12.9004-0.00976562Q13.1152 0.15625 13.4961 0.15625Q13.8867 0.15625 14.1162-0.0585938Q14.3457-0.273438 14.3457-0.644531Q14.3457-0.869141 14.2383-1.17188L9.6582-13.3691Q9.48242-13.8184 9.17969-14.043Q8.87695-14.2676 8.4082-14.2676Q7.5-14.2676 7.17773-13.3789L2.59766-1.16211Q2.49023-0.859375 2.49023-0.634766Q2.49023-0.263672 2.70996-0.0537109Q2.92969 0.15625 3.31055 0.15625ZM6.00586-5.51758L8.37891-12.0898L8.42773-12.0898L10.8008-5.51758Z"/>
  </g>
  <line style="fill:none;stroke:#00AEEF;stroke-width:0.5;opacity:1.0;" x1="793.197" x2="793.197" y1="1919" y2="1933"/>
  <text style="stroke:none;fill:black;font-family:sans-serif;font-size:13;font-weight:bold;" transform="matrix(1 0 0 1 776 1953)">Margins</text>
  <text style="stroke:none;fill:black;font-family:sans-serif;font-size:13;" transform="matrix(1 0 0 1 776 1971)">Leading and trailing margins on the left and right side of each symbol</text>
  <text style="stroke:none;fill:black;font-family:sans-serif;font-size:13;" transform="matrix(1 0 0 1 776 1989)">can be adjusted by modifying the x-location of the margin guidelines.</text>
  <text style="stroke:none;fill:black;font-family:sans-serif;font-size:13;" transform="matrix(1 0 0 1 776 2007)">Modifications are automatically applied proportionally to all</text>
  <text style="stroke:none;fill:black;font-family:sans-serif;font-size:13;" transform="matrix(1 0 0 1 776 2025)">scales and weights.</text>
  <g transform="matrix(1 0 0 1 1289 1933)">
   <path d="M2.8418 1.86523L4.54102 3.57422Q5.18555 4.22852 5.90332 4.17969Q6.62109 4.13086 7.31445 3.35938L18.0078-8.42773L17.041-9.4043L6.42578 2.27539Q6.16211 2.57812 5.89355 2.61719Q5.625 2.65625 5.27344 2.30469L4.10156 1.14258Q3.75 0.791016 3.79395 0.522461Q3.83789 0.253906 4.14062-0.0195312L15.6152-10.8203L14.6387-11.7871L3.04688-0.898438Q2.30469-0.214844 2.25098 0.498047Q2.19727 1.21094 2.8418 1.86523ZM9.25781-16.3281Q8.94531-16.0254 8.90625-15.6348Q8.86719-15.2441 9.04297-14.9512Q9.21875-14.6777 9.55566-14.541Q9.89258-14.4043 10.3809-14.5215Q11.4746-14.7754 12.5977-14.7314Q13.7207-14.6875 14.7949-13.9844L14.209-12.5293Q13.9551-11.9043 14.0674-11.4404Q14.1797-10.9766 14.5801-10.5664L16.875-8.25195Q17.2363-7.88086 17.5781-7.82227Q17.9199-7.76367 18.3398-7.8418L19.4043-8.03711L20.0684-7.36328L20.0293-6.80664Q20-6.43555 20.1221-6.12305Q20.2441-5.81055 20.6055-5.44922L21.3672-4.70703Q21.7285-4.3457 22.1533-4.33105Q22.5781-4.31641 22.9297-4.66797L25.8398-7.58789Q26.1914-7.93945 26.1816-8.35449Q26.1719-8.76953 25.8105-9.13086L25.0391-9.89258Q24.6875-10.2539 24.3799-10.3857Q24.0723-10.5176 23.7109-10.4883L23.1348-10.4395L22.4902-11.0742L22.7344-12.1973Q22.832-12.6172 22.6953-12.9834Q22.5586-13.3496 22.1191-13.7891L19.9219-15.9766Q18.6719-17.2168 17.2607-17.8369Q15.8496-18.457 14.4189-18.4814Q12.9883-18.5059 11.665-17.959Q10.3418-17.4121 9.25781-16.3281ZM10.752-15.957Q11.6602-16.6211 12.7002-16.9043Q13.7402-17.1875 14.8047-17.085Q15.8691-16.9824 16.8701-16.5137Q17.8711-16.0449 18.7012-15.2051L21.1328-12.793Q21.3086-12.6172 21.3525-12.4512Q21.3965-12.2852 21.3379-12.0312L21.0156-10.5469L22.5195-9.0625L23.5059-9.12109Q23.6914-9.13086 23.7891-9.09668Q23.8867-9.0625 24.0332-8.91602L24.6094-8.33984L22.168-5.89844L21.5918-6.47461Q21.4453-6.62109 21.4062-6.71875Q21.3672-6.81641 21.377-7.01172L21.4453-7.98828L19.9512-9.47266L18.4277-9.21875Q18.1836-9.16992 18.042-9.2041Q17.9004-9.23828 17.7148-9.41406L15.7129-11.416Q15.5176-11.5918 15.4932-11.7529Q15.4688-11.9141 15.5859-12.1875L16.4648-14.2773Q15.293-15.3711 13.8281-15.791Q12.3633-16.2109 10.8398-15.7617Q10.7227-15.7324 10.6885-15.8057Q10.6543-15.8789 10.752-15.957Z"/>
  </g>
  <text style="stroke:none;fill:black;font-family:sans-serif;font-size:13;font-weight:bold;" transform="matrix(1 0 0 1 1289 1953)">Exporting</text>
  <text style="stroke:none;fill:black;font-family:sans-serif;font-size:13;" transform="matrix(1 0 0 1 1289 1971)">Symbols should be outlined when exporting to ensure the</text>
  <text style="stroke:none;fill:black;font-family:sans-serif;font-size:13;" transform="matrix(1 0 0 1 1289 1989)">design is preserved when submitting to Xcode.</text>
  <text id="template-version" style="stroke:none;fill:black;font-family:sans-serif;font-size:13;text-anchor:end;" transform="matrix(1 0 0 1 3036 1933)">Template v.3.0</text>
  <text style="stroke:none;fill:black;font-family:sans-serif;font-size:13;text-anchor:end;" transform="matrix(1 0 0 1 3036 1951)">Requires Xcode 13 or greater</text>
  <text id="descriptive-name" style="stroke:none;fill:black;font-family:sans-serif;font-size:13;text-anchor:end;" transform="matrix(1 0 0 1 3036 1969)">Generated from person.fill.questionmark</text>
  <text style="stroke:none;fill:black;font-family:sans-serif;font-size:13;text-anchor:end;" transform="matrix(1 0 0 1 3036 1987)">Typeset at 100 points</text>
  <text style="stroke:none;fill:black;font-family:sans-serif;font-size:13;" transform="matrix(1 0 0 1 263 726)">Small</text>
  <text style="stroke:none;fill:black;font-family:sans-serif;font-size:13;" transform="matrix(1 0 0 1 263 1156)">Medium</text>
  <text style="stroke:none;fill:black;font-family:sans-serif;font-size:13;" transform="matrix(1 0 0 1 263 1586)">Large</text>
 </g>
 <g id="Guides">
  <g id="H-reference" style="fill:#27AAE1;stroke:none;" transform="matrix(1 0 0 1 339 696)">
   <path d="M0.976562 0L3.66211 0L29.3457-67.1387L30.0293-67.1387L30.0293-70.459L28.125-70.459ZM11.6699-24.4629L46.9727-24.4629L46.2402-26.709L12.4512-26.709ZM55.127 0L57.7637 0L30.6152-70.459L29.4434-70.459L29.4434-67.1387Z"/>
  </g>
  <line id="Baseline-S" style="fill:none;stroke:#27AAE1;opacity:1;stroke-width:0.5;" x1="263" x2="3036" y1="696" y2="696"/>
  <line id="Capline-S" style="fill:none;stroke:#27AAE1;opacity:1;stroke-width:0.5;" x1="263" x2="3036" y1="625.541" y2="625.541"/>
  <g id="H-reference" style="fill:#27AAE1;stroke:none;" transform="matrix(1 0 0 1 339 1126)">
   <path d="M0.976562 0L3.66211 0L29.3457-67.1387L30.0293-67.1387L30.0293-70.459L28.125-70.459ZM11.6699-24.4629L46.9727-24.4629L46.2402-26.709L12.4512-26.709ZM55.127 0L57.7637 0L30.6152-70.459L29.4434-70.459L29.4434-67.1387Z"/>
  </g>
  <line id="Baseline-M" style="fill:none;stroke:#27AAE1;opacity:1;stroke-width:0.5;" x1="263" x2="3036" y1="1126" y2="1126"/>
  <line id="Capline-M" style="fill:none;stroke:#27AAE1;opacity:1;stroke-width:0.5;" x1="263" x2="3036" y1="1055.54" y2="1055.54"/>
  <g id="H-reference" style="fill:#27AAE1;stroke:none;" transform="matrix(1 0 0 1 339 1556)">
   <path d="M0.976562 0L3.66211 0L29.3457-67.1387L30.0293-67.1387L30.0293-70.459L28.125-70.459ZM11.6699-24.4629L46.9727-24.4629L46.2402-26.709L12.4512-26.709ZM55.127 0L57.7637 0L30.6152-70.459L29.4434-70.459L29.4434-67.1387Z"/>
  </g>
  <line id="Baseline-L" style="fill:none;stroke:#27AAE1;opacity:1;stroke-width:0.5;" x1="263" x2="3036" y1="1556" y2="1556"/>
  <line id="Capline-L" style="fill:none;stroke:#27AAE1;opacity:1;stroke-width:0.5;" x1="263" x2="3036" y1="1485.54" y2="1485.54"/>
  <line id="left-margin-Ultralight-S" style="fill:none;stroke:#00AEEF;stroke-width:0.5;opacity:1.0;" x1="510.517" x2="510.517" y1="600.785" y2="720.121"/>
  <line id="right-margin-Ultralight-S" style="fill:none;stroke:#00AEEF;stroke-width:0.5;opacity:1.0;" x1="608.905" x2="608.905" y1="600.785" y2="720.121"/>
  <line id="left-margin-Thin-S" style="fill:none;stroke:#00AEEF;stroke-width:0.5;opacity:1.0;" x1="806.666" x2="806.666" y1="600.785" y2="720.121"/>
  <line id="right-margin-Thin-S" style="fill:none;stroke:#00AEEF;stroke-width:0.5;opacity:1.0;" x1="906.178" x2="906.178" y1="600.785" y2="720.121"/>
  <line id="left-margin-Light-S" style="fill:none;stroke:#00AEEF;stroke-width:0.5;opacity:1.0;" x1="1102.3" x2="1102.3" y1="600.785" y2="720.121"/>
  <line id="right-margin-Light-S" style="fill:none;stroke:#00AEEF;stroke-width:0.5;opacity:1.0;" x1="1203.96" x2="1203.96" y1="600.785" y2="720.121"/>
  <line id="left-margin-Regular-S" style="fill:none;stroke:#00AEEF;stroke-width:0.5;opacity:1.0;" x1="1398.21" x2="1398.21" y1="600.785" y2="720.121"/>
  <line id="right-margin-Regular-S" style="fill:none;stroke:#00AEEF;stroke-width:0.5;opacity:1.0;" x1="1501.48" x2="1501.48" y1="600.785" y2="720.121"/>
  <line id="left-margin-Medium-S" style="fill:none;stroke:#00AEEF;stroke-width:0.5;opacity:1.0;" x1="1694.6" x2="1694.6" y1="600.785" y2="720.121"/>
  <line id="right-margin-Medium-S" style="fill:none;stroke:#00AEEF;stroke-width:0.5;opacity:1.0;" x1="1798.51" x2="1798.51" y1="600.785" y2="720.121"/>
  <line id="left-margin-Semibold-S" style="fill:none;stroke:#00AEEF;stroke-width:0.5;opacity:1.0;" x1="1991.04" x2="1991.04" y1="600.785" y2="720.121"/>
  <line id="right-margin-Semibold-S" style="fill:none;stroke:#00AEEF;stroke-width:0.5;opacity:1.0;" x1="2095.49" x2="2095.49" y1="600.785" y2="720.121"/>
  <line id="left-margin-Bold-S" style="fill:none;stroke:#00AEEF;stroke-width:0.5;opacity:1.0;" x1="2287.44" x2="2287.44" y1="600.785" y2="720.121"/>
  <line id="right-margin-Bold-S" style="fill:none;stroke:#00AEEF;stroke-width:0.5;opacity:1.0;" x1="2392.52" x2="2392.52" y1="600.785" y2="720.121"/>
  <line id="left-margin-Heavy-S" style="fill:none;stroke:#00AEEF;stroke-width:0.5;opacity:1.0;" x1="2583.66" x2="2583.66" y1="600.785" y2="720.121"/>
  <line id="right-margin-Heavy-S" style="fill:none;stroke:#00AEEF;stroke-width:0.5;opacity:1.0;" x1="2689.72" x2="2689.72" y1="600.785" y2="720.121"/>
  <line id="left-margin-Black-S" style="fill:none;stroke:#00AEEF;stroke-width:0.5;opacity:1.0;" x1="2879.96" x2="2879.96" y1="600.785" y2="720.121"/>
  <line id="right-margin-Black-S" style="fill:none;stroke:#00AEEF;stroke-width:0.5;opacity:1.0;" x1="2986.84" x2="2986.84" y1="600.785" y2="720.121"/>
  <line id="left-margin-Ultralight-M" style="fill:none;stroke:#00AEEF;stroke-width:0.5;opacity:1.0;" x1="497.138" x2="497.138" y1="1030.79" y2="1150.12"/>
  <line id="right-margin-Ultralight-M" style="fill:none;stroke:#00AEEF;stroke-width:0.5;opacity:1.0;" x1="622.284" x2="622.284" y1="1030.79" y2="1150.12"/>
  <line id="left-margin-Thin-M" style="fill:none;stroke:#00AEEF;stroke-width:0.5;opacity:1.0;" x1="793.214" x2="793.214" y1="1030.79" y2="1150.12"/>
  <line id="right-margin-Thin-M" style="fill:none;stroke:#00AEEF;stroke-width:0.5;opacity:1.0;" x1="919.63" x2="919.63" y1="1030.79" y2="1150.12"/>
  <line id="left-margin-Light-M" style="fill:none;stroke:#00AEEF;stroke-width:0.5;opacity:1.0;" x1="1088.73" x2="1088.73" y1="1030.79" y2="1150.12"/>
  <line id="right-margin-Light-M" style="fill:none;stroke:#00AEEF;stroke-width:0.5;opacity:1.0;" x1="1217.54" x2="1217.54" y1="1030.79" y2="1150.12"/>
  <line id="left-margin-Regular-M" style="fill:none;stroke:#00AEEF;stroke-width:0.5;opacity:1.0;" x1="1384.51" x2="1384.51" y1="1030.79" y2="1150.12"/>
  <line id="right-margin-Regular-M" style="fill:none;stroke:#00AEEF;stroke-width:0.5;opacity:1.0;" x1="1515.18" x2="1515.18" y1="1030.79" y2="1150.12"/>
  <line id="left-margin-Medium-M" style="fill:none;stroke:#00AEEF;stroke-width:0.5;opacity:1.0;" x1="1680.74" x2="1680.74" y1="1030.79" y2="1150.12"/>
  <line id="right-margin-Medium-M" style="fill:none;stroke:#00AEEF;stroke-width:0.5;opacity:1.0;" x1="1812.38" x2="1812.38" y1="1030.79" y2="1150.12"/>
  <line id="left-margin-Semibold-M" style="fill:none;stroke:#00AEEF;stroke-width:0.5;opacity:1.0;" x1="1977.08" x2="1977.08" y1="1030.79" y2="1150.12"/>
  <line id="right-margin-Semibold-M" style="fill:none;stroke:#00AEEF;stroke-width:0.5;opacity:1.0;" x1="2109.45" x2="2109.45" y1="1030.79" y2="1150.12"/>
  <line id="left-margin-Bold-M" style="fill:none;stroke:#00AEEF;stroke-width:0.5;opacity:1.0;" x1="2273.3" x2="2273.3" y1="1030.79" y2="1150.12"/>
  <line id="right-margin-Bold-M" style="fill:none;stroke:#00AEEF;stroke-width:0.5;opacity:1.0;" x1="2406.65" x2="2406.65" y1="1030.79" y2="1150.12"/>
  <line id="left-margin-Heavy-M" style="fill:none;stroke:#00AEEF;stroke-width:0.5;opacity:1.0;" x1="2569.31" x2="2569.31" y1="1030.79" y2="1150.12"/>
  <line id="right-margin-Heavy-M" style="fill:none;stroke:#00AEEF;stroke-width:0.5;opacity:1.0;" x1="2704.07" x2="2704.07" y1="1030.79" y2="1150.12"/>
  <line id="left-margin-Black-M" style="fill:none;stroke:#00AEEF;stroke-width:0.5;opacity:1.0;" x1="2865.38" x2="2865.38" y1="1030.79" y2="1150.12"/>
  <line id="right-margin-Black-M" style="fill:none;stroke:#00AEEF;stroke-width:0.5;opacity:1.0;" x1="3001.42" x2="3001.42" y1="1030.79" y2="1150.12"/>
  <line id="left-margin-Ultralight-L" style="fill:none;stroke:#00AEEF;stroke-width:0.5;opacity:1.0;" x1="479.242" x2="479.242" y1="1460.79" y2="1580.12"/>
  <line id="right-margin-Ultralight-L" style="fill:none;stroke:#00AEEF;stroke-width:0.5;opacity:1.0;" x1="640.18" x2="640.18" y1="1460.79" y2="1580.12"/>
  <line id="left-margin-Thin-L" style="fill:none;stroke:#00AEEF;stroke-width:0.5;opacity:1.0;" x1="775.245" x2="775.245" y1="1460.79" y2="1580.12"/>
  <line id="right-margin-Thin-L" style="fill:none;stroke:#00AEEF;stroke-width:0.5;opacity:1.0;" x1="937.599" x2="937.599" y1="1460.79" y2="1580.12"/>
  <line id="left-margin-Light-L" style="fill:none;stroke:#00AEEF;stroke-width:0.5;opacity:1.0;" x1="1070.61" x2="1070.61" y1="1460.79" y2="1580.12"/>
  <line id="right-margin-Light-L" style="fill:none;stroke:#00AEEF;stroke-width:0.5;opacity:1.0;" x1="1235.65" x2="1235.65" y1="1460.79" y2="1580.12"/>
  <line id="left-margin-Regular-L" style="fill:none;stroke:#00AEEF;stroke-width:0.5;opacity:1.0;" x1="1366.3" x2="1366.3" y1="1460.79" y2="1580.12"/>
  <line id="right-margin-Regular-L" style="fill:none;stroke:#00AEEF;stroke-width:0.5;opacity:1.0;" x1="1533.39" x2="1533.39" y1="1460.79" y2="1580.12"/>
  <line id="left-margin-Medium-L" style="fill:none;stroke:#00AEEF;stroke-width:0.5;opacity:1.0;" x1="1662.35" x2="1662.35" y1="1460.79" y2="1580.12"/>
  <line id="right-margin-Medium-L" style="fill:none;stroke:#00AEEF;stroke-width:0.5;opacity:1.0;" x1="1830.76" x2="1830.76" y1="1460.79" y2="1580.12"/>
  <line id="left-margin-Semibold-L" style="fill:none;stroke:#00AEEF;stroke-width:0.5;opacity:1.0;" x1="1958.55" x2="1958.55" y1="1460.79" y2="1580.12"/>
  <line id="right-margin-Semibold-L" style="fill:none;stroke:#00AEEF;stroke-width:0.5;opacity:1.0;" x1="2127.98" x2="2127.98" y1="1460.79" y2="1580.12"/>
  <line id="left-margin-Bold-L" style="fill:none;stroke:#00AEEF;stroke-width:0.5;opacity:1.0;" x1="2254.58" x2="2254.58" y1="1460.79" y2="1580.12"/>
  <line id="right-margin-Bold-L" style="fill:none;stroke:#00AEEF;stroke-width:0.5;opacity:1.0;" x1="2425.38" x2="2425.38" y1="1460.79" y2="1580.12"/>
  <line id="left-margin-Heavy-L" style="fill:none;stroke:#00AEEF;stroke-width:0.5;opacity:1.0;" x1="2550.31" x2="2550.31" y1="1460.79" y2="1580.12"/>
  <line id="right-margin-Heavy-L" style="fill:none;stroke:#00AEEF;stroke-width:0.5;opacity:1.0;" x1="2723.07" x2="2723.07" y1="1460.79" y2="1580.12"/>
  <line id="left-margin-Black-L" style="fill:none;stroke:#00AEEF;stroke-width:0.5;opacity:1.0;" x1="2846.14" x2="2846.14" y1="1460.79" y2="1580.12"/>
  <line id="right-margin-Black-L" style="fill:none;stroke:#00AEEF;stroke-width:0.5;opacity:1.0;" x1="3020.66" x2="3020.66" y1="1460.79" y2="1580.12"/>
 </g>
 <g id="Symbols">
  <g id="Black-L" transform="matrix(1 0 0 1 2846.14 1556)">
   <path class="hierarchical-0:secondary SFSymbolsPreview4D4D4D" d="M29.3457 23.9258L110.791 23.9258Q117.041 23.9258 120.557 21.0449Q124.072 18.1641 124.072 13.0371Q124.072 8.25195 121.606 3.00293Q119.141-2.24609 114.478-7.20215Q109.814-12.1582 103.198-16.1377Q96.582-20.1172 88.2324-22.4854Q79.8828-24.8535 70.0684-24.8535Q60.2539-24.8535 51.9043-22.4854Q43.5547-20.1172 36.9385-16.1377Q30.3223-12.1582 25.6592-7.20215Q20.9961-2.24609 18.5303 3.00293Q16.0645 8.25195 16.0645 13.0371Q16.0645 18.1641 19.5801 21.0449Q23.0957 23.9258 29.3457 23.9258ZM70.0684-35.6934Q77.3438-35.6934 83.2764-39.5264Q89.209-43.3594 92.7246-49.8291Q96.2402-56.2988 96.2402-64.2578Q96.2402-69.9707 94.1895-75.0488Q92.1387-80.127 88.5498-83.9844Q84.9609-87.8418 80.2246-90.0391Q75.4883-92.2363 70.0684-92.2363Q64.6484-92.2363 59.9121-90.0391Q55.1758-87.8418 51.5625-83.96Q47.9492-80.0781 45.8984-75Q43.8477-69.9219 43.8965-64.209Q43.8965-56.25 47.4121-49.8047Q50.9277-43.3594 56.8604-39.5264Q62.793-35.6934 70.0684-35.6934Z"/>
   <path class="hierarchical-1:primary SFSymbolsPreview212121" d="M133.545-52.4414Q136.963-52.4414 139.258-53.9062Q141.553-55.3711 142.09-57.5684Q142.139-57.7148 142.163-57.9102Q142.188-58.1055 142.236-58.2031Q142.822-59.9609 144.702-61.4746Q146.582-62.9883 148.877-64.4043Q153.857-67.4805 156.152-70.5811Q158.447-73.6816 158.447-78.6621Q158.447-84.0332 155.42-88.0371Q152.393-92.041 147.217-94.2871Q142.041-96.5332 135.645-96.5332Q130.273-96.5332 125.903-95.2148Q121.533-93.8965 118.481-91.5527Q115.43-89.209 114.062-86.1328Q113.623-85.1562 113.403-84.2041Q113.184-83.252 113.184-82.1777Q113.184-79.2969 115.186-77.2461Q117.188-75.1953 120.361-75.1953Q122.51-75.1953 124.194-75.9277Q125.879-76.6602 127.1-78.2227L127.686-78.9062Q128.662-80.1758 129.639-80.8594Q130.615-81.543 131.616-81.8115Q132.617-82.0801 133.691-82.0801Q135.84-82.0801 137.354-80.7373Q138.867-79.3945 138.867-77.5879Q138.867-75.293 136.938-73.7793Q135.01-72.2656 131.494-69.8242Q128.223-67.5781 126.221-65.2344Q124.219-62.8906 124.219-59.7168Q124.219-59.668 124.219-59.6191Q124.219-59.5703 124.219-59.5215Q124.219-52.4414 133.545-52.4414ZM133.545-31.2988Q137.598-31.2988 140.283-33.5205Q142.969-35.7422 142.969-39.5996Q142.969-43.4082 140.308-45.6543Q137.646-47.9004 133.545-47.9004Q129.443-47.9004 126.733-45.6787Q124.023-43.457 124.023-39.5996Q124.023-35.7422 126.758-33.5205Q129.492-31.2988 133.545-31.2988Z"/>
  </g>
  <g id="Heavy-L" transform="matrix(1 0 0 1 2550.31 1556)">
   <path class="hierarchical-0:secondary SFSymbolsPreview4D4D4D" d="M28.6621 23.5352L110.938 23.5352Q116.846 23.5352 120.19 20.8008Q123.535 18.0664 123.535 13.2812Q123.535 8.49609 121.094 3.22266Q118.652-2.05078 114.014-7.03125Q109.375-12.0117 102.808-16.0156Q96.2402-20.0195 87.915-22.3877Q79.5898-24.7559 69.7754-24.7559Q60.0098-24.7559 51.6846-22.3877Q43.3594-20.0195 36.7676-16.0156Q30.1758-12.0117 25.5615-7.03125Q20.9473-2.05078 18.5059 3.22266Q16.0645 8.49609 16.0645 13.2812Q16.0645 18.0664 19.4092 20.8008Q22.7539 23.5352 28.6621 23.5352ZM69.8242-35.6934Q76.9531-35.6934 82.8369-39.502Q88.7207-43.3105 92.2119-49.7314Q95.7031-56.1523 95.7031-64.0625Q95.7031-69.7754 93.6768-74.8291Q91.6504-79.8828 88.0859-83.6914Q84.5215-87.5 79.834-89.6729Q75.1465-91.8457 69.8242-91.8457Q64.4531-91.8457 59.7656-89.6729Q55.0781-87.5 51.5137-83.667Q47.9492-79.834 45.8984-74.7803Q43.8477-69.7266 43.8965-64.0137Q43.8965-56.1035 47.3877-49.707Q50.8789-43.3105 56.7627-39.502Q62.6465-35.6934 69.8242-35.6934Z"/>
   <path class="hierarchical-1:primary SFSymbolsPreview212121" d="M132.715-52.002Q135.791-52.002 137.817-53.3936Q139.844-54.7852 140.283-56.8359Q140.283-57.0312 140.308-57.251Q140.332-57.4707 140.381-57.5684Q140.82-59.5703 142.627-61.1816Q144.434-62.793 147.021-64.4531Q151.904-67.5293 154.297-70.6543Q156.689-73.7793 156.689-78.8574Q156.689-84.1309 153.76-87.9883Q150.83-91.8457 145.85-93.9941Q140.869-96.1426 134.766-96.1426Q129.395-96.1426 125.122-94.7754Q120.85-93.4082 117.92-91.0156Q114.99-88.623 113.77-85.5469Q113.379-84.6191 113.184-83.7402Q112.988-82.8613 112.988-81.8359Q112.988-79.1992 114.795-77.3926Q116.602-75.5859 119.385-75.5859Q121.338-75.5859 122.852-76.3184Q124.365-77.0508 125.439-78.4668L126.123-79.2969Q127.051-80.7617 128.174-81.665Q129.297-82.5684 130.542-82.959Q131.787-83.3496 133.154-83.3496Q135.938-83.3496 137.744-81.7871Q139.551-80.2246 139.551-77.9297Q139.551-75.4395 137.598-73.7549Q135.645-72.0703 131.982-69.5312Q128.613-67.2363 126.587-64.7705Q124.561-62.3047 124.561-58.8379Q124.561-58.7402 124.561-58.6426Q124.561-58.5449 124.561-58.4473Q124.561-52.002 132.715-52.002ZM132.715-31.543Q136.377-31.543 138.867-33.6426Q141.357-35.7422 141.357-39.3066Q141.357-42.7734 138.892-44.9219Q136.426-47.0703 132.715-47.0703Q128.955-47.0703 126.465-44.9463Q123.975-42.8223 123.975-39.3066Q123.975-35.7422 126.489-33.6426Q129.004-31.543 132.715-31.543Z"/>
  </g>
  <g id="Bold-L" transform="matrix(1 0 0 1 2254.58 1556)">
   <path class="hierarchical-0:secondary SFSymbolsPreview4D4D4D" d="M27.8809 23.0469L111.133 23.0469Q116.65 23.0469 119.775 20.5322Q122.9 18.0176 122.9 13.5742Q122.9 8.74023 120.508 3.44238Q118.115-1.85547 113.525-6.86035Q108.936-11.8652 102.393-15.8936Q95.8496-19.9219 87.5732-22.29Q79.2969-24.6582 69.4824-24.6582Q59.7168-24.6582 51.416-22.29Q43.1152-19.9219 36.5967-15.8936Q30.0781-11.8652 25.4883-6.86035Q20.8984-1.85547 18.4814 3.44238Q16.0645 8.74023 16.0645 13.5742Q16.0645 18.0176 19.2139 20.5322Q22.3633 23.0469 27.8809 23.0469ZM69.5312-35.7422Q76.5625-35.7422 82.373-39.502Q88.1836-43.2617 91.6504-49.6338Q95.1172-56.0059 95.1172-63.916Q95.1172-69.6289 93.0908-74.6094Q91.0645-79.5898 87.5488-83.3496Q84.0332-87.1094 79.3945-89.2334Q74.7559-91.3574 69.5312-91.3574Q64.3066-91.3574 59.668-89.2334Q55.0293-87.1094 51.4893-83.3252Q47.9492-79.541 45.9229-74.5361Q43.8965-69.5312 43.9453-63.8184Q43.9453-55.957 47.4121-49.6094Q50.8789-43.2617 56.6895-39.502Q62.5-35.7422 69.5312-35.7422Z"/>
   <path class="hierarchical-1:primary SFSymbolsPreview212121" d="M131.787-51.5137Q134.521-51.5137 136.255-52.8076Q137.988-54.1016 138.232-56.0547Q138.281-56.25 138.281-56.4941Q138.281-56.7383 138.33-56.8848Q138.623-59.1309 140.332-60.8887Q142.041-62.6465 144.922-64.502Q149.756-67.5781 152.271-70.752Q154.785-73.9258 154.785-79.1016Q154.785-84.2285 151.953-87.9639Q149.121-91.6992 144.336-93.7256Q139.551-95.752 133.74-95.752Q128.418-95.752 124.243-94.3115Q120.068-92.8711 117.31-90.4053Q114.551-87.9395 113.477-84.9121Q113.135-84.082 112.988-83.252Q112.842-82.4219 112.842-81.4941Q112.842-79.1016 114.429-77.5879Q116.016-76.0742 118.262-76.0742Q120.068-76.0742 121.387-76.7578Q122.705-77.4414 123.633-78.7598L124.414-79.7852Q125.293-81.4453 126.538-82.5684Q127.783-83.6914 129.297-84.2529Q130.811-84.8145 132.617-84.8145Q136.035-84.8145 138.159-82.959Q140.283-81.1035 140.283-78.3203Q140.283-75.5859 138.33-73.7549Q136.377-71.9238 132.52-69.1895Q129.102-66.8457 127.051-64.2822Q125-61.7188 125-57.9102Q125-57.7148 125-57.5439Q125-57.373 125-57.2266Q125-51.5137 131.787-51.5137ZM131.738-31.7871Q135.01-31.7871 137.28-33.7891Q139.551-35.791 139.551-38.9648Q139.551-42.1387 137.305-44.1162Q135.059-46.0938 131.738-46.0938Q128.418-46.0938 126.147-44.1162Q123.877-42.1387 123.877-38.9648Q123.877-35.791 126.172-33.7891Q128.467-31.7871 131.738-31.7871Z"/>
  </g>
  <g id="Semibold-L" transform="matrix(1 0 0 1 1958.55 1556)">
   <path class="hierarchical-0:secondary SFSymbolsPreview4D4D4D" d="M27.2949 22.7051L111.23 22.7051Q116.504 22.7051 119.482 20.3125Q122.461 17.9199 122.461 13.7207Q122.461 8.93555 120.093 3.61328Q117.725-1.70898 113.159-6.71387Q108.594-11.7188 102.1-15.7715Q95.6055-19.8242 87.3291-22.2168Q79.0527-24.6094 69.2871-24.6094Q59.4727-24.6094 51.2207-22.2168Q42.9688-19.8242 36.4502-15.7715Q29.9316-11.7188 25.3906-6.71387Q20.8496-1.70898 18.457 3.61328Q16.0645 8.93555 16.0645 13.7207Q16.0645 17.9199 19.0674 20.3125Q22.0703 22.7051 27.2949 22.7051ZM69.2871-35.7422Q76.2207-35.7422 82.0068-39.4775Q87.793-43.2129 91.2598-49.5361Q94.7266-55.8594 94.7266-63.7695Q94.7266-69.4824 92.7002-74.4385Q90.6738-79.3945 87.1582-83.1299Q83.6426-86.8652 79.0771-88.9404Q74.5117-91.0156 69.2871-91.0156Q64.1602-91.0156 59.5459-88.916Q54.9316-86.8164 51.416-83.0566Q47.9004-79.2969 45.8984-74.3164Q43.8965-69.3359 43.9453-63.623Q43.9453-55.8105 47.3877-49.5117Q50.8301-43.2129 56.5918-39.4775Q62.3535-35.7422 69.2871-35.7422Z"/>
   <path class="hierarchical-1:primary SFSymbolsPreview212121" d="M131.152-51.1719Q133.643-51.1719 135.156-52.417Q136.67-53.6621 136.816-55.4688Q136.865-55.6641 136.865-55.9326Q136.865-56.2012 136.865-56.3965Q137.061-58.8379 138.721-60.6689Q140.381-62.5 143.457-64.502Q148.242-67.5781 150.83-70.8008Q153.418-74.0234 153.418-79.248Q153.418-84.2773 150.659-87.915Q147.9-91.5527 143.262-93.4814Q138.623-95.4102 133.057-95.4102Q127.734-95.4102 123.633-93.9453Q119.531-92.4805 116.87-89.9902Q114.209-87.5 113.281-84.4727Q112.939-83.6426 112.817-82.8613Q112.695-82.0801 112.695-81.2012Q112.695-79.0527 114.136-77.7344Q115.576-76.416 117.48-76.416Q119.189-76.416 120.361-77.0752Q121.533-77.7344 122.363-78.9551L123.193-80.0781Q124.072-81.8848 125.415-83.1543Q126.758-84.4238 128.467-85.1074Q130.176-85.791 132.178-85.791Q136.084-85.791 138.452-83.7646Q140.82-81.7383 140.82-78.5645Q140.82-75.6836 138.843-73.7305Q136.865-71.7773 132.861-68.9453Q129.443-66.6016 127.344-63.9404Q125.244-61.2793 125.244-57.2266Q125.244-56.9824 125.244-56.7871Q125.244-56.5918 125.244-56.3477Q125.244-51.1719 131.152-51.1719ZM131.104-31.9824Q134.082-31.9824 136.206-33.8867Q138.33-35.791 138.33-38.7207Q138.33-41.6504 136.23-43.5547Q134.131-45.459 131.104-45.459Q128.027-45.459 125.928-43.5303Q123.828-41.6016 123.828-38.7207Q123.828-35.791 125.952-33.8867Q128.076-31.9824 131.104-31.9824Z"/>
  </g>
  <g id="Medium-L" transform="matrix(1 0 0 1 1662.35 1556)">
   <path class="hierarchical-0:secondary SFSymbolsPreview4D4D4D" d="M26.9043 22.4609L111.328 22.4609Q116.406 22.4609 119.287 20.166Q122.168 17.8711 122.168 13.8672Q122.168 9.0332 119.8 3.71094Q117.432-1.61133 112.891-6.61621Q108.35-11.6211 101.855-15.6982Q95.3613-19.7754 87.1094-22.1436Q78.8574-24.5117 69.0918-24.5117Q59.3262-24.5117 51.0742-22.1436Q42.8223-19.7754 36.3525-15.6982Q29.8828-11.6211 25.3662-6.61621Q20.8496-1.61133 18.457 3.71094Q16.0645 9.0332 16.0645 13.8672Q16.0645 17.8711 18.9697 20.166Q21.875 22.4609 26.9043 22.4609ZM69.1406-35.791Q76.0254-35.791 81.7627-39.4775Q87.5-43.1641 90.9424-49.4629Q94.3848-55.7617 94.3848-63.6719Q94.3848-69.3848 92.3828-74.3164Q90.3809-79.248 86.8896-82.9346Q83.3984-86.6211 78.833-88.6963Q74.2676-90.7715 69.1406-90.7715Q64.0625-90.7715 59.4727-88.6963Q54.8828-86.6211 51.3916-82.8857Q47.9004-79.1504 45.9229-74.1943Q43.9453-69.2383 43.9453-63.5254Q43.9453-55.7129 47.3877-49.4385Q50.8301-43.1641 56.543-39.4775Q62.2559-35.791 69.1406-35.791Z"/>
   <path class="hierarchical-1:primary SFSymbolsPreview212121" d="M130.664-50.9277Q132.959-50.9277 134.302-52.0996Q135.645-53.2715 135.742-55.0293Q135.791-55.2734 135.791-55.542Q135.791-55.8105 135.791-56.0547Q135.889-58.5938 137.5-60.498Q139.111-62.4023 142.334-64.502Q147.07-67.5781 149.731-70.8252Q152.393-74.0723 152.393-79.3457Q152.393-84.3262 149.683-87.8906Q146.973-91.4551 142.456-93.335Q137.939-95.2148 132.52-95.2148Q127.246-95.2148 123.193-93.7012Q119.141-92.1875 116.553-89.6484Q113.965-87.1094 113.086-84.1309Q112.842-83.3496 112.72-82.5928Q112.598-81.8359 112.598-81.0059Q112.598-78.9551 113.916-77.8076Q115.234-76.6602 116.895-76.6602Q118.506-76.6602 119.58-77.2949Q120.654-77.9297 121.436-79.1016L122.266-80.3223Q123.145-82.2266 124.561-83.6182Q125.977-85.0098 127.808-85.791Q129.639-86.5723 131.885-86.5723Q136.133-86.5723 138.672-84.375Q141.211-82.1777 141.211-78.8086Q141.211-75.7324 139.233-73.7061Q137.256-71.6797 133.154-68.7988Q129.688-66.3574 127.563-63.6475Q125.439-60.9375 125.439-56.6895Q125.439-56.4453 125.439-56.2012Q125.439-55.957 125.439-55.7129Q125.439-50.9277 130.664-50.9277ZM130.566-32.0801Q133.35-32.0801 135.352-33.9355Q137.354-35.791 137.354-38.5254Q137.354-41.3086 135.376-43.1152Q133.398-44.9219 130.566-44.9219Q127.783-44.9219 125.781-43.0908Q123.779-41.2598 123.779-38.5254Q123.779-35.8398 125.781-33.96Q127.783-32.0801 130.566-32.0801Z"/>
  </g>
  <g id="Regular-L" transform="matrix(1 0 0 1 1366.3 1556)">
   <path class="hierarchical-0:secondary SFSymbolsPreview4D4D4D" d="M26.3672 22.168L111.426 22.168Q116.26 22.168 118.994 19.9951Q121.729 17.8223 121.729 14.0625Q121.729 9.22852 119.385 3.88184Q117.041-1.46484 112.524-6.49414Q108.008-11.5234 101.562-15.6006Q95.1172-19.6777 86.8896-22.0703Q78.6621-24.4629 68.8965-24.4629Q59.1309-24.4629 50.9033-22.0703Q42.6758-19.6777 36.2305-15.6006Q29.7852-11.5234 25.293-6.49414Q20.8008-1.46484 18.4326 3.88184Q16.0645 9.22852 16.0645 14.0625Q16.0645 17.8223 18.8232 19.9951Q21.582 22.168 26.3672 22.168ZM68.9453-35.791Q75.7324-35.791 81.4209-39.4531Q87.1094-43.1152 90.5518-49.3896Q93.9941-55.6641 93.9941-63.5254Q93.9941-69.2383 91.9922-74.1455Q89.9902-79.0527 86.5234-82.7148Q83.0566-86.377 78.54-88.4277Q74.0234-90.4785 68.9453-90.4785Q63.916-90.4785 59.375-88.4033Q54.834-86.3281 51.3672-82.6416Q47.9004-78.9551 45.9229-74.0234Q43.9453-69.0918 43.9453-63.3789Q43.9453-55.6152 47.3633-49.3652Q50.7812-43.1152 56.4697-39.4531Q62.1582-35.791 68.9453-35.791Z"/>
   <path class="hierarchical-1:primary SFSymbolsPreview212121" d="M130.029-50.5859Q132.08-50.5859 133.228-51.709Q134.375-52.832 134.375-54.4922Q134.375-54.7363 134.375-55.0293Q134.375-55.3223 134.375-55.5664Q134.375-58.3008 135.938-60.2783Q137.5-62.2559 140.918-64.5508Q145.605-67.627 148.34-70.8984Q151.074-74.1699 151.074-79.4922Q151.074-84.375 148.438-87.8418Q145.801-91.3086 141.431-93.1152Q137.061-94.9219 131.836-94.9219Q126.562-94.9219 122.583-93.3594Q118.604-91.7969 116.113-89.2334Q113.623-86.6699 112.891-83.6914Q112.646-82.959 112.549-82.251Q112.451-81.543 112.451-80.7617Q112.451-78.9062 113.623-77.9297Q114.795-76.9531 116.162-76.9531Q117.627-76.9531 118.579-77.5879Q119.531-78.2227 120.166-79.2969L121.094-80.6152Q121.924-82.666 123.438-84.2285Q124.951-85.791 126.978-86.6699Q129.004-87.5488 131.494-87.5488Q136.182-87.5488 138.94-85.1807Q141.699-82.8125 141.699-79.0527Q141.699-75.8301 139.722-73.6816Q137.744-71.5332 133.496-68.5547Q129.98-66.1133 127.856-63.3057Q125.732-60.498 125.732-56.0547Q125.732-55.7617 125.732-55.4688Q125.732-55.1758 125.732-54.8828Q125.732-50.5859 130.029-50.5859ZM129.932-32.2754Q132.422-32.2754 134.277-34.0332Q136.133-35.791 136.133-38.2812Q136.133-40.8203 134.302-42.5537Q132.471-44.2871 129.932-44.2871Q127.393-44.2871 125.562-42.5293Q123.73-40.7715 123.73-38.2812Q123.73-35.8398 125.562-34.0576Q127.393-32.2754 129.932-32.2754Z"/>
  </g>
  <g id="Light-L" transform="matrix(1 0 0 1 1070.61 1556)">
   <path class="hierarchical-0:secondary SFSymbolsPreview4D4D4D" d="M25.7324 21.8262L111.572 21.8262Q116.064 21.8262 118.652 19.7021Q121.24 17.5781 121.24 14.0625Q121.24 9.22852 118.896 3.90625Q116.553-1.41602 112.085-6.4209Q107.617-11.4258 101.196-15.4785Q94.7754-19.5312 86.5723-21.9238Q78.3691-24.3164 68.6523-24.3164Q58.9355-24.3164 50.7568-21.9238Q42.5781-19.5312 36.1572-15.4785Q29.7363-11.4258 25.2441-6.4209Q20.752-1.41602 18.4082 3.90625Q16.0645 9.22852 16.0645 14.0625Q16.0645 17.5781 18.6768 19.7021Q21.2891 21.8262 25.7324 21.8262ZM68.75-35.6445Q75.5859-35.6445 81.2012-39.2822Q86.8164-42.9199 90.1855-49.1455Q93.5547-55.3711 93.5547-63.1836Q93.5547-68.7988 91.6016-73.6572Q89.6484-78.5156 86.2305-82.1777Q82.8125-85.8398 78.3203-87.915Q73.8281-89.9902 68.75-89.9902Q63.6719-89.9902 59.1797-87.915Q54.6875-85.8398 51.2695-82.1533Q47.8516-78.4668 45.8984-73.584Q43.9453-68.7012 43.9941-63.0859Q43.9941-55.3711 47.3389-49.1455Q50.6836-42.9199 56.2988-39.2822Q61.9141-35.6445 68.75-35.6445Z"/>
   <path class="hierarchical-1:primary SFSymbolsPreview212121" d="M129.297-50.7324Q130.859-50.7324 131.738-51.6357Q132.617-52.5391 132.617-53.8574Q132.617-54.248 132.617-54.6387Q132.617-55.0293 132.617-55.4199Q132.617-58.252 134.155-60.3027Q135.693-62.3535 139.307-64.7949Q144.092-67.9688 146.558-71.1914Q149.023-74.4141 149.023-79.3457Q149.023-83.7891 146.606-87.0605Q144.189-90.332 140.063-92.1143Q135.938-93.8965 130.908-93.8965Q125.83-93.8965 121.997-92.2607Q118.164-90.625 115.845-87.9395Q113.525-85.2539 112.891-82.1289Q112.744-81.4941 112.671-80.8594Q112.598-80.2246 112.598-79.4922Q112.598-78.0273 113.501-77.2461Q114.404-76.4648 115.527-76.4648Q116.699-76.4648 117.48-77.002Q118.262-77.5391 118.652-78.5156L119.238-79.5898Q119.775-81.9336 121.338-83.8379Q122.9-85.7422 125.269-86.9141Q127.637-88.0859 130.615-88.0859Q135.791-88.0859 138.818-85.5225Q141.846-82.959 141.846-78.9551Q141.846-75.7324 139.917-73.4375Q137.988-71.1426 133.594-68.0664Q129.883-65.4785 127.93-62.7197Q125.977-59.9609 125.977-55.8105Q125.977-55.3711 125.977-54.9561Q125.977-54.541 125.977-54.1016Q125.977-50.7324 129.297-50.7324ZM129.199-33.1543Q131.396-33.1543 133.008-34.7168Q134.619-36.2793 134.619-38.4277Q134.619-40.625 133.032-42.1631Q131.445-43.7012 129.199-43.7012Q127.002-43.7012 125.415-42.1387Q123.828-40.5762 123.828-38.4277Q123.828-36.3281 125.415-34.7412Q127.002-33.1543 129.199-33.1543Z"/>
  </g>
  <g id="Thin-L" transform="matrix(1 0 0 1 775.245 1556)">
   <path class="hierarchical-0:secondary SFSymbolsPreview4D4D4D" d="M24.9023 21.3379L111.768 21.3379Q115.771 21.3379 118.188 19.3115Q120.605 17.2852 120.605 14.0137Q120.605 9.22852 118.286 3.95508Q115.967-1.31836 111.523-6.32324Q107.08-11.3281 100.684-15.3564Q94.2871-19.3848 86.1328-21.7773Q77.9785-24.1699 68.3105-24.1699Q58.6914-24.1699 50.5371-21.7773Q42.3828-19.3848 36.0107-15.3564Q29.6387-11.3281 25.1953-6.32324Q20.752-1.31836 18.4082 3.95508Q16.0645 9.22852 16.0645 14.0137Q16.0645 17.2852 18.4814 19.3115Q20.8984 21.3379 24.9023 21.3379ZM68.5059-35.498Q75.3906-35.498 80.9326-39.0869Q86.4746-42.6758 89.6973-48.8525Q92.9199-55.0293 92.9199-62.7441Q92.9199-68.1641 91.04-72.998Q89.1602-77.832 85.8154-81.5186Q82.4707-85.2051 78.0273-87.3047Q73.584-89.4043 68.5059-89.4043Q63.3789-89.4043 58.9355-87.3047Q54.4922-85.2051 51.123-81.4941Q47.7539-77.7832 45.874-72.9736Q43.9941-68.1641 44.043-62.6953Q44.043-55.0293 47.2656-48.8525Q50.4883-42.6758 56.0303-39.0869Q61.5723-35.498 68.5059-35.498Z"/>
   <path class="hierarchical-1:primary SFSymbolsPreview212121" d="M128.369-50.9766Q129.248-50.9766 129.785-51.5625Q130.322-52.1484 130.322-53.0273Q130.322-53.5645 130.322-54.1016Q130.322-54.6387 130.322-55.1758Q130.322-58.252 131.836-60.376Q133.35-62.5 137.109-65.1367Q142.09-68.457 144.189-71.6064Q146.289-74.7559 146.289-79.1504Q146.289-83.0078 144.141-86.0107Q141.992-89.0137 138.232-90.7471Q134.473-92.4805 129.639-92.4805Q124.805-92.4805 121.191-90.7715Q117.578-89.0625 115.454-86.2305Q113.33-83.3984 112.939-80.127Q112.842-79.541 112.817-79.0283Q112.793-78.5156 112.793-77.832Q112.793-76.8555 113.33-76.3184Q113.867-75.7812 114.697-75.7812Q115.479-75.7812 116.04-76.2207Q116.602-76.6602 116.65-77.4414L116.797-78.2715Q116.895-80.9082 118.555-83.3252Q120.215-85.7422 123.022-87.2559Q125.83-88.7695 129.492-88.7695Q135.254-88.7695 138.647-85.9863Q142.041-83.2031 142.041-78.8574Q142.041-75.6348 140.186-73.1445Q138.33-70.6543 133.691-67.4316Q129.736-64.6484 128.027-61.9385Q126.318-59.2285 126.318-55.4688Q126.318-54.834 126.318-54.2725Q126.318-53.7109 126.318-53.0762Q126.318-50.9766 128.369-50.9766ZM128.271-34.3262Q130.078-34.3262 131.323-35.6201Q132.568-36.9141 132.568-38.5742Q132.568-40.332 131.323-41.6016Q130.078-42.8711 128.271-42.8711Q126.465-42.8711 125.22-41.6016Q123.975-40.332 123.975-38.5742Q123.975-36.9141 125.22-35.6201Q126.465-34.3262 128.271-34.3262Z"/>
  </g>
  <g id="Ultralight-L" transform="matrix(1 0 0 1 479.242 1556)">
   <path class="hierarchical-0:secondary SFSymbolsPreview4D4D4D" d="M24.4629 21.0938L111.865 21.0938Q115.625 21.0938 117.944 19.1162Q120.264 17.1387 120.264 14.0137Q120.264 9.22852 117.944 3.97949Q115.625-1.26953 111.206-6.25Q106.787-11.2305 100.415-15.2588Q94.043-19.2871 85.9131-21.6797Q77.7832-24.0723 68.1641-24.0723Q58.5449-24.0723 50.4395-21.6797Q42.334-19.2871 35.9619-15.2588Q29.5898-11.2305 25.1465-6.25Q20.7031-1.26953 18.3838 3.97949Q16.0645 9.22852 16.0645 14.0137Q16.0645 17.1387 18.3838 19.1162Q20.7031 21.0938 24.4629 21.0938ZM68.3594-35.4004Q75.293-35.4004 80.7861-38.9893Q86.2793-42.5781 89.4531-48.7061Q92.627-54.834 92.627-62.5488Q92.627-67.8711 90.7715-72.6562Q88.916-77.4414 85.5957-81.1279Q82.2754-84.8145 77.8564-86.9385Q73.4375-89.0625 68.3594-89.0625Q63.2324-89.0625 58.8135-86.9629Q54.3945-84.8633 51.0498-81.1523Q47.7051-77.4414 45.8496-72.6562Q43.9941-67.8711 44.0918-62.5Q44.0918-54.834 47.2656-48.7061Q50.4395-42.5781 55.9326-38.9893Q61.4258-35.4004 68.3594-35.4004Z"/>
   <path class="hierarchical-1:primary SFSymbolsPreview212121" d="M127.881-51.0742Q128.467-51.0742 128.809-51.4893Q129.15-51.9043 129.15-52.5879Q129.15-53.2227 129.15-53.8086Q129.15-54.3945 129.15-55.0781Q129.15-58.2031 130.64-60.4004Q132.129-62.5977 136.035-65.2832Q141.064-68.7012 142.993-71.8262Q144.922-74.9512 144.922-79.0527Q144.922-82.6172 142.92-85.498Q140.918-88.3789 137.329-90.0879Q133.74-91.7969 129.004-91.7969Q124.316-91.7969 120.801-90.0146Q117.285-88.2324 115.283-85.3516Q113.281-82.4707 112.939-79.0527Q112.891-78.5645 112.891-78.1006Q112.891-77.6367 112.891-77.002Q112.891-76.2695 113.257-75.8545Q113.623-75.4395 114.258-75.4395Q114.844-75.4395 115.283-75.8301Q115.723-76.2207 115.625-76.9043L115.576-77.5879Q115.43-80.4199 117.114-83.0566Q118.799-85.6934 121.851-87.4268Q124.902-89.1602 128.906-89.1602Q135.01-89.1602 138.574-86.2305Q142.139-83.3008 142.139-78.8086Q142.139-75.5371 140.332-72.9736Q138.525-70.4102 133.789-67.0898Q129.639-64.2578 128.076-61.5723Q126.514-58.8867 126.514-55.2734Q126.514-54.5898 126.514-53.9307Q126.514-53.2715 126.514-52.5391Q126.514-51.0742 127.881-51.0742ZM127.783-34.9121Q129.395-34.9121 130.469-36.084Q131.543-37.2559 131.543-38.6719Q131.543-40.1855 130.469-41.333Q129.395-42.4805 127.783-42.4805Q126.221-42.4805 125.146-41.3574Q124.072-40.2344 124.072-38.6719Q124.072-37.2559 125.146-36.084Q126.221-34.9121 127.783-34.9121Z"/>
  </g>
  <g id="Black-M" transform="matrix(1 0 0 1 2865.38 1126)">
   <path class="hierarchical-0:secondary SFSymbolsPreview4D4D4D" d="M23.1445 10.8398L85.791 10.8398Q90.8203 10.8398 93.6279 8.49609Q96.4355 6.15234 96.4355 2.00195Q96.4355-2.63672 93.457-7.73926Q90.4785-12.8418 84.9365-17.2607Q79.3945-21.6797 71.6797-24.4385Q63.9648-27.1973 54.4434-27.1973Q44.9707-27.1973 37.2314-24.4385Q29.4922-21.6797 23.9502-17.2607Q18.4082-12.8418 15.4297-7.73926Q12.4512-2.63672 12.4512 2.00195Q12.4512 6.15234 15.2832 8.49609Q18.1152 10.8398 23.1445 10.8398ZM54.4434-35.5469Q60.2051-35.5469 64.8438-38.5254Q69.4824-41.5039 72.1924-46.5332Q74.9023-51.5625 74.9023-57.7637Q74.9023-63.623 72.168-68.6035Q69.4336-73.584 64.7949-76.5869Q60.1562-79.5898 54.4434-79.5898Q48.7793-79.5898 44.1162-76.5869Q39.4531-73.584 36.7188-68.6035Q33.9844-63.623 34.0332-57.7148Q34.0332-51.5625 36.7432-46.5332Q39.4531-41.5039 44.0674-38.5254Q48.6816-35.5469 54.4434-35.5469Z"/>
   <path class="hierarchical-1:primary SFSymbolsPreview212121" d="M103.955-49.0234Q106.689-49.0234 108.618-50.1221Q110.547-51.2207 111.084-52.9785Q111.133-53.0762 111.182-53.2471Q111.23-53.418 111.23-53.5156Q111.816-54.7363 113.33-55.835Q114.844-56.9336 116.455-57.9102Q120.41-60.3516 122.021-62.6709Q123.633-64.9902 123.633-68.7012Q123.633-72.7539 121.265-75.9277Q118.896-79.1016 114.819-80.9082Q110.742-82.7148 105.566-82.7148Q99.3652-82.7148 94.873-80.542Q90.3809-78.3691 88.6719-74.6582Q88.2812-73.877 88.1104-73.1201Q87.9395-72.3633 87.9395-71.4844Q87.9395-69.1895 89.5508-67.4316Q91.1621-65.6738 93.8965-65.6738Q95.6055-65.6738 97.0215-66.2354Q98.4375-66.7969 99.4141-68.0664L99.6582-68.4082Q100.342-69.3359 101.025-69.7998Q101.709-70.2637 102.368-70.459Q103.027-70.6543 103.76-70.6543Q105.078-70.6543 106.079-69.751Q107.08-68.8477 107.08-67.7246Q107.08-66.1133 105.64-65.0391Q104.199-63.9648 101.514-62.1582Q99.0234-60.4004 97.5342-58.6914Q96.0449-56.9824 96.0449-54.834Q96.0449-54.7852 96.0449-54.7852Q96.0449-54.7852 96.0449-54.7363Q96.0449-49.0234 103.955-49.0234ZM104.004-32.2754Q107.373-32.2754 109.521-34.0332Q111.67-35.791 111.67-38.916Q111.67-42.041 109.521-43.7988Q107.373-45.5566 104.004-45.5566Q100.635-45.5566 98.4131-43.8232Q96.1914-42.0898 96.1914-38.916Q96.1914-35.791 98.4131-34.0332Q100.635-32.2754 104.004-32.2754Z"/>
  </g>
  <g id="Heavy-M" transform="matrix(1 0 0 1 2569.31 1126)">
   <path class="hierarchical-0:secondary SFSymbolsPreview4D4D4D" d="M22.6074 10.498L85.8887 10.498Q90.6738 10.498 93.335 8.30078Q95.9961 6.10352 95.9961 2.24609Q95.9961-2.44141 93.042-7.56836Q90.0879-12.6953 84.5947-17.1387Q79.1016-21.582 71.4355-24.3652Q63.7695-27.1484 54.248-27.1484Q44.7754-27.1484 37.0605-24.3652Q29.3457-21.582 23.8525-17.1387Q18.3594-12.6953 15.4053-7.56836Q12.4512-2.44141 12.4512 2.24609Q12.4512 6.10352 15.1367 8.30078Q17.8223 10.498 22.6074 10.498ZM54.248-35.5957Q59.8633-35.5957 64.4531-38.5498Q69.043-41.5039 71.7529-46.4844Q74.4629-51.4648 74.4629-57.666Q74.4629-63.5742 71.7529-68.4814Q69.043-73.3887 64.4287-76.3428Q59.8145-79.2969 54.248-79.2969Q48.6816-79.2969 44.0674-76.3428Q39.4531-73.3887 36.7188-68.457Q33.9844-63.5254 34.0332-57.6172Q34.0332-51.4648 36.7432-46.4844Q39.4531-41.5039 44.0186-38.5498Q48.584-35.5957 54.248-35.5957Z"/>
   <path class="hierarchical-1:primary SFSymbolsPreview212121" d="M103.32-48.5352Q105.811-48.5352 107.544-49.6338Q109.277-50.7324 109.668-52.3926Q109.717-52.4902 109.741-52.6611Q109.766-52.832 109.766-52.9297Q110.254-54.3457 111.694-55.542Q113.135-56.7383 114.99-57.9102Q118.799-60.3027 120.581-62.6709Q122.363-65.0391 122.363-68.8965Q122.363-72.9492 120.044-76.0498Q117.725-79.1504 113.77-80.8594Q109.814-82.5684 104.883-82.5684Q98.6816-82.5684 94.3115-80.2979Q89.9414-78.0273 88.3789-74.4141Q88.0371-73.6816 87.8906-72.9736Q87.7441-72.2656 87.7441-71.4355Q87.7441-69.2871 89.2334-67.749Q90.7227-66.2109 93.0664-66.2109Q94.6777-66.2109 95.9473-66.748Q97.2168-67.2852 98.1445-68.457L98.5352-69.043Q99.2676-70.0684 100.049-70.6543Q100.83-71.2402 101.66-71.5088Q102.49-71.7773 103.418-71.7773Q105.225-71.7773 106.47-70.6787Q107.715-69.5801 107.715-68.0664Q107.715-66.2598 106.25-65.0635Q104.785-63.8672 101.953-61.9629Q99.4141-60.2051 97.876-58.374Q96.3379-56.543 96.3379-54.0527Q96.3379-53.9551 96.3379-53.9307Q96.3379-53.9062 96.3379-53.8086Q96.3379-48.5352 103.32-48.5352ZM103.32-32.3242Q106.396-32.3242 108.398-34.0088Q110.4-35.6934 110.4-38.5742Q110.4-41.5039 108.398-43.1885Q106.396-44.873 103.32-44.873Q100.244-44.873 98.1689-43.1885Q96.0938-41.5039 96.0938-38.5742Q96.0938-35.6934 98.1689-34.0088Q100.244-32.3242 103.32-32.3242Z"/>
  </g>
  <g id="Bold-M" transform="matrix(1 0 0 1 2273.3 1126)">
   <path class="hierarchical-0:secondary SFSymbolsPreview4D4D4D" d="M21.9727 10.1562L86.0352 10.1562Q90.5273 10.1562 93.042 8.12988Q95.5566 6.10352 95.5566 2.49023Q95.5566-2.19727 92.627-7.34863Q89.6973-12.5 84.2529-16.9922Q78.8086-21.4844 71.167-24.292Q63.5254-27.0996 54.0039-27.0996Q44.5312-27.0996 36.8652-24.292Q29.1992-21.4844 23.7305-16.9922Q18.2617-12.5 15.3564-7.34863Q12.4512-2.19727 12.4512 2.49023Q12.4512 6.10352 14.9902 8.12988Q17.5293 10.1562 21.9727 10.1562ZM54.0039-35.6445Q59.5215-35.6445 64.0625-38.5742Q68.6035-41.5039 71.3135-46.46Q74.0234-51.416 74.0234-57.5684Q74.0234-63.4766 71.2891-68.3594Q68.5547-73.2422 64.0137-76.0986Q59.4727-78.9551 54.0039-78.9551Q48.584-78.9551 44.0186-76.0742Q39.4531-73.1934 36.7432-68.3105Q34.0332-63.4277 34.0332-57.4707Q34.0332-51.3672 36.7432-46.4355Q39.4531-41.5039 43.9941-38.5742Q48.5352-35.6445 54.0039-35.6445Z"/>
   <path class="hierarchical-1:primary SFSymbolsPreview212121" d="M102.588-48.0469Q104.883-48.0469 106.372-49.0967Q107.861-50.1465 108.105-51.7578Q108.154-51.8555 108.179-52.0264Q108.203-52.1973 108.203-52.2949Q108.496-53.9551 109.863-55.249Q111.23-56.543 113.33-57.8613Q117.041-60.2539 118.994-62.6953Q120.947-65.1367 120.947-69.1895Q120.947-73.2422 118.677-76.2207Q116.406-79.1992 112.622-80.8105Q108.838-82.4219 104.15-82.4219Q97.9004-82.4219 93.6768-80.0537Q89.4531-77.6855 88.0859-74.1699Q87.793-73.4863 87.6465-72.8027Q87.5-72.1191 87.5-71.3867Q87.5-69.3848 88.8428-68.0908Q90.1855-66.7969 92.1875-66.7969Q93.6523-66.7969 94.7754-67.334Q95.8984-67.8711 96.7285-68.9453L97.2656-69.7266Q98.0469-70.8984 98.9502-71.6309Q99.8535-72.3633 100.879-72.7295Q101.904-73.0957 103.076-73.0957Q105.42-73.0957 106.934-71.7773Q108.447-70.459 108.447-68.5059Q108.447-66.4551 106.934-65.1123Q105.42-63.7695 102.49-61.7676Q99.9023-59.9609 98.291-58.0078Q96.6797-56.0547 96.6797-53.1738Q96.6797-53.0762 96.6797-53.0029Q96.6797-52.9297 96.6797-52.832Q96.6797-48.0469 102.588-48.0469ZM102.539-32.373Q105.322-32.373 107.178-33.9844Q109.033-35.5957 109.033-38.2324Q109.033-40.8691 107.178-42.4805Q105.322-44.0918 102.539-44.0918Q99.8047-44.0918 97.9248-42.4805Q96.0449-40.8691 96.0449-38.2324Q96.0449-35.6445 97.9248-34.0088Q99.8047-32.373 102.539-32.373Z"/>
  </g>
  <g id="Semibold-M" transform="matrix(1 0 0 1 1977.08 1126)">
   <path class="hierarchical-0:secondary SFSymbolsPreview4D4D4D" d="M21.5332 9.91211L86.1328 9.91211Q90.3809 9.91211 92.7979 7.9834Q95.2148 6.05469 95.2148 2.68555Q95.2148-2.00195 92.3096-7.17773Q89.4043-12.3535 84.0088-16.8945Q78.6133-21.4355 70.9717-24.2432Q63.3301-27.0508 53.8086-27.0508Q44.3359-27.0508 36.6943-24.2432Q29.0527-21.4355 23.6328-16.8945Q18.2129-12.3535 15.332-7.17773Q12.4512-2.00195 12.4512 2.68555Q12.4512 6.05469 14.8682 7.9834Q17.2852 9.91211 21.5332 9.91211ZM53.8574-35.6934Q59.2285-35.6934 63.7451-38.5742Q68.2617-41.4551 70.9717-46.3867Q73.6816-51.3184 73.6816-57.4707Q73.6816-63.4277 70.9473-68.2617Q68.2129-73.0957 63.7207-75.9033Q59.2285-78.7109 53.8574-78.7109Q48.4863-78.7109 43.9697-75.8545Q39.4531-72.998 36.7432-68.1641Q34.0332-63.3301 34.0332-57.373Q34.0332-51.3184 36.7432-46.3867Q39.4531-41.4551 43.9453-38.5742Q48.4375-35.6934 53.8574-35.6934Z"/>
   <path class="hierarchical-1:primary SFSymbolsPreview212121" d="M102.1-47.6562Q104.199-47.6562 105.518-48.7061Q106.836-49.7559 107.031-51.2695Q107.031-51.416 107.056-51.5869Q107.08-51.7578 107.08-51.8555Q107.275-53.6133 108.569-54.9805Q109.863-56.3477 112.158-57.8613Q115.82-60.2051 117.896-62.6709Q119.971-65.1367 119.971-69.3359Q119.971-73.3887 117.725-76.2939Q115.479-79.1992 111.792-80.7617Q108.105-82.3242 103.613-82.3242Q97.3633-82.3242 93.2129-79.8828Q89.0625-77.4414 87.8418-73.9746Q87.5977-73.291 87.4756-72.6562Q87.3535-72.0215 87.3535-71.3379Q87.3535-69.4336 88.5986-68.3105Q89.8438-67.1875 91.5527-67.1875Q92.9199-67.1875 93.9453-67.7246Q94.9707-68.2617 95.7031-69.2871L96.3867-70.166Q97.2168-71.4355 98.1934-72.2656Q99.1699-73.0957 100.342-73.5352Q101.514-73.9746 102.832-73.9746Q105.566-73.9746 107.251-72.4854Q108.936-70.9961 108.936-68.75Q108.936-66.5527 107.397-65.1367Q105.859-63.7207 102.832-61.5723Q100.244-59.8145 98.584-57.7637Q96.9238-55.7129 96.9238-52.5879Q96.9238-52.4414 96.9238-52.3193Q96.9238-52.1973 96.9238-52.0996Q96.9238-47.6562 102.1-47.6562ZM102.002-32.4219Q104.541-32.4219 106.299-33.9844Q108.057-35.5469 108.057-37.9883Q108.057-40.4297 106.299-41.9922Q104.541-43.5547 102.002-43.5547Q99.4629-43.5547 97.7051-41.9922Q95.9473-40.4297 95.9473-37.9883Q95.9473-35.5469 97.7295-33.9844Q99.5117-32.4219 102.002-32.4219Z"/>
  </g>
  <g id="Medium-M" transform="matrix(1 0 0 1 1680.74 1126)">
   <path class="hierarchical-0:secondary SFSymbolsPreview4D4D4D" d="M21.2402 9.7168L86.1816 9.7168Q90.2832 9.7168 92.627 7.88574Q94.9707 6.05469 94.9707 2.7832Q94.9707-1.85547 92.0898-7.08008Q89.209-12.3047 83.8135-16.8213Q78.418-21.3379 70.8008-24.1943Q63.1836-27.0508 53.6621-27.0508Q44.1895-27.0508 36.5723-24.1943Q28.9551-21.3379 23.5596-16.8213Q18.1641-12.3047 15.3076-7.08008Q12.4512-1.85547 12.4512 2.7832Q12.4512 6.05469 14.7705 7.88574Q17.0898 9.7168 21.2402 9.7168ZM53.7109-35.6934Q59.0332-35.6934 63.5254-38.5742Q68.0176-41.4551 70.7275-46.3623Q73.4375-51.2695 73.4375-57.4219Q73.4375-63.3789 70.7031-68.1885Q67.9688-72.998 63.501-75.7812Q59.0332-78.5645 53.7109-78.5645Q48.4375-78.5645 43.9453-75.7324Q39.4531-72.9004 36.7432-68.0908Q34.0332-63.2812 34.0332-57.3242Q34.0332-51.2207 36.7432-46.3379Q39.4531-41.4551 43.9209-38.5742Q48.3887-35.6934 53.7109-35.6934Z"/>
   <path class="hierarchical-1:primary SFSymbolsPreview212121" d="M101.709-47.3633Q103.662-47.3633 104.883-48.4131Q106.104-49.4629 106.201-50.9277Q106.201-51.0742 106.201-51.2451Q106.201-51.416 106.201-51.5137Q106.348-53.418 107.617-54.834Q108.887-56.25 111.279-57.8125Q114.893-60.2051 117.065-62.6953Q119.238-65.1855 119.238-69.4824Q119.238-73.5352 117.017-76.3672Q114.795-79.1992 111.182-80.7129Q107.568-82.2266 103.223-82.2266Q96.9727-82.2266 92.8955-79.7363Q88.8184-77.2461 87.6465-73.8281Q87.4512-73.1934 87.3291-72.583Q87.207-71.9727 87.207-71.2891Q87.207-69.5312 88.3789-68.5059Q89.5508-67.4805 91.0645-67.4805Q92.3828-67.4805 93.335-68.0176Q94.2871-68.5547 94.9707-69.5312L95.752-70.5078Q96.582-71.875 97.6318-72.7783Q98.6816-73.6816 99.9268-74.1455Q101.172-74.6094 102.637-74.6094Q105.615-74.6094 107.446-73.0225Q109.277-71.4355 109.277-68.9453Q109.277-66.6504 107.739-65.1367Q106.201-63.623 103.076-61.4746Q100.488-59.668 98.7793-57.5684Q97.0703-55.4688 97.0703-52.0996Q97.0703-52.002 97.0703-51.8555Q97.0703-51.709 97.0703-51.5625Q97.0703-47.3633 101.709-47.3633ZM101.611-32.4219Q103.955-32.4219 105.64-33.9355Q107.324-35.4492 107.324-37.793Q107.324-40.1367 105.64-41.6504Q103.955-43.1641 101.611-43.1641Q99.2188-43.1641 97.5586-41.626Q95.8984-40.0879 95.8984-37.793Q95.8984-35.498 97.583-33.96Q99.2676-32.4219 101.611-32.4219Z"/>
  </g>
  <g id="Regular-M" transform="matrix(1 0 0 1 1384.51 1126)">
   <path class="hierarchical-0:secondary SFSymbolsPreview4D4D4D" d="M20.8008 9.47266L86.2793 9.47266Q90.1855 9.47266 92.4072 7.73926Q94.6289 6.00586 94.6289 2.97852Q94.6289-1.70898 91.7725-6.93359Q88.916-12.1582 83.5693-16.7236Q78.2227-21.2891 70.6299-24.1455Q63.0371-27.002 53.5156-27.002Q44.043-27.002 36.4502-24.1455Q28.8574-21.2891 23.4863-16.7236Q18.1152-12.1582 15.2832-6.93359Q12.4512-1.70898 12.4512 2.97852Q12.4512 6.00586 14.6729 7.73926Q16.8945 9.47266 20.8008 9.47266ZM53.5645-35.7422Q58.7891-35.7422 63.2324-38.5986Q67.6758-41.4551 70.3857-46.3379Q73.0957-51.2207 73.0957-57.3242Q73.0957-63.3301 70.3857-68.0908Q67.6758-72.8516 63.2324-75.5859Q58.7891-78.3203 53.5645-78.3203Q48.3398-78.3203 43.8965-75.5371Q39.4531-72.7539 36.7432-67.9688Q34.0332-63.1836 34.0332-57.2266Q34.0332-51.1719 36.7432-46.3135Q39.4531-41.4551 43.8965-38.5986Q48.3398-35.7422 53.5645-35.7422Z"/>
   <path class="hierarchical-1:primary SFSymbolsPreview212121" d="M101.221-47.0215Q103.027-47.0215 104.077-48.0469Q105.127-49.0723 105.127-50.4883Q105.127-50.6348 105.127-50.8057Q105.127-50.9766 105.127-51.0742Q105.127-53.125 106.348-54.6143Q107.568-56.1035 110.156-57.8125Q113.672-60.1562 115.967-62.6953Q118.262-65.2344 118.262-69.6289Q118.262-73.6816 116.089-76.4648Q113.916-79.248 110.4-80.6885Q106.885-82.1289 102.734-82.1289Q96.4355-82.1289 92.4561-79.5654Q88.4766-77.002 87.4512-73.6328Q87.2559-73.0469 87.1582-72.4609Q87.0605-71.875 87.0605-71.2402Q87.0605-69.5801 88.1348-68.7256Q89.209-67.8711 90.4297-67.8711Q91.6504-67.8711 92.5049-68.4082Q93.3594-68.9453 93.9941-69.8242L94.873-70.9961Q95.752-72.4121 96.875-73.4131Q97.998-74.4141 99.3896-74.9512Q100.781-75.4883 102.393-75.4883Q105.762-75.4883 107.764-73.7549Q109.766-72.0215 109.766-69.2383Q109.766-66.748 108.203-65.1611Q106.641-63.5742 103.418-61.3281Q100.781-59.5215 99.0479-57.3242Q97.3145-55.127 97.3145-51.5137Q97.3145-51.3672 97.3145-51.1963Q97.3145-51.0254 97.3145-50.8789Q97.3145-47.0215 101.221-47.0215ZM101.074-32.4707Q103.223-32.4707 104.785-33.9355Q106.348-35.4004 106.348-37.5488Q106.348-39.6973 104.785-41.1621Q103.223-42.627 101.074-42.627Q98.9258-42.627 97.3877-41.1377Q95.8496-39.6484 95.8496-37.5488Q95.8496-35.4492 97.4121-33.96Q98.9746-32.4707 101.074-32.4707Z"/>
  </g>
  <g id="Light-M" transform="matrix(1 0 0 1 1088.73 1126)">
   <path class="hierarchical-0:secondary SFSymbolsPreview4D4D4D" d="M20.2148 9.13086L86.4258 9.13086Q89.9902 9.13086 92.0898 7.4707Q94.1895 5.81055 94.1895 2.97852Q94.1895-1.70898 91.3574-6.90918Q88.5254-12.1094 83.2031-16.6504Q77.8809-21.1914 70.3125-24.0234Q62.7441-26.8555 53.3203-26.8555Q43.8965-26.8555 36.3281-24.0234Q28.7598-21.1914 23.4131-16.6504Q18.0664-12.1094 15.2588-6.90918Q12.4512-1.70898 12.4512 2.97852Q12.4512 5.81055 14.5508 7.4707Q16.6504 9.13086 20.2148 9.13086ZM53.3691-35.6445Q58.6426-35.6445 63.0371-38.4766Q67.4316-41.3086 70.0684-46.1426Q72.7051-50.9766 72.7051-57.0312Q72.7051-62.8906 70.0439-67.627Q67.3828-72.3633 63.0127-75.1221Q58.6426-77.8809 53.3691-77.8809Q48.1445-77.8809 43.75-75.0977Q39.3555-72.3145 36.6943-67.5537Q34.0332-62.793 34.082-56.9824Q34.082-50.9277 36.7188-46.1182Q39.3555-41.3086 43.7256-38.4766Q48.0957-35.6445 53.3691-35.6445Z"/>
   <path class="hierarchical-1:primary SFSymbolsPreview212121" d="M100.586-47.168Q101.953-47.168 102.759-47.9736Q103.564-48.7793 103.564-49.9512Q103.564-50.1953 103.564-50.4395Q103.564-50.6836 103.564-50.9277Q103.564-53.0762 104.761-54.6387Q105.957-56.2012 108.691-58.0078Q112.305-60.498 114.355-62.9883Q116.406-65.4785 116.406-69.4824Q116.406-73.1445 114.429-75.7568Q112.451-78.3691 109.18-79.7607Q105.908-81.1523 101.904-81.1523Q95.8496-81.1523 92.0654-78.4912Q88.2812-75.8301 87.4512-72.2656Q87.3535-71.7285 87.2803-71.2158Q87.207-70.7031 87.207-70.1172Q87.207-68.7988 88.0371-68.1152Q88.8672-67.4316 89.8438-67.4316Q90.8203-67.4316 91.5283-67.8955Q92.2363-68.3594 92.627-69.0918L93.2129-70.0684Q93.7988-71.7285 94.9707-73.0713Q96.1426-74.4141 97.8516-75.1953Q99.5605-75.9766 101.611-75.9766Q105.42-75.9766 107.642-74.0723Q109.863-72.168 109.863-69.1895Q109.863-66.6504 108.374-64.9414Q106.885-63.2324 103.516-60.8887Q100.684-58.9844 99.1211-56.8115Q97.5586-54.6387 97.5586-51.2695Q97.5586-51.0254 97.5586-50.7568Q97.5586-50.4883 97.5586-50.1953Q97.5586-47.168 100.586-47.168ZM100.439-33.252Q102.295-33.252 103.638-34.5459Q104.98-35.8398 104.98-37.6465Q104.98-39.502 103.638-40.7959Q102.295-42.0898 100.439-42.0898Q98.584-42.0898 97.2656-40.7959Q95.9473-39.502 95.9473-37.6465Q95.9473-35.8398 97.29-34.5459Q98.6328-33.252 100.439-33.252Z"/>
  </g>
  <g id="Thin-M" transform="matrix(1 0 0 1 793.214 1126)">
   <path class="hierarchical-0:secondary SFSymbolsPreview4D4D4D" d="M19.4824 8.69141L86.5723 8.69141Q89.7461 8.69141 91.6748 7.12891Q93.6035 5.56641 93.6035 2.92969Q93.6035-1.70898 90.7959-6.86035Q87.9883-12.0117 82.6904-16.5283Q77.3926-21.0449 69.8975-23.877Q62.4023-26.709 53.0273-26.709Q43.6523-26.709 36.1572-23.877Q28.6621-21.0449 23.3643-16.5283Q18.0664-12.0117 15.2588-6.86035Q12.4512-1.70898 12.4512 2.92969Q12.4512 5.56641 14.3799 7.12891Q16.3086 8.69141 19.4824 8.69141ZM53.125-35.4492Q58.4961-35.4492 62.793-38.2568Q67.0898-41.0645 69.6289-45.8496Q72.168-50.6348 72.168-56.6406Q72.168-62.3047 69.6045-67.0166Q67.041-71.7285 62.7197-74.5361Q58.3984-77.3438 53.125-77.3438Q47.9004-77.3438 43.5547-74.5117Q39.209-71.6797 36.6455-66.9678Q34.082-62.2559 34.082-56.6406Q34.082-50.6348 36.6211-45.8496Q39.1602-41.0645 43.4814-38.2568Q47.8027-35.4492 53.125-35.4492Z"/>
   <path class="hierarchical-1:primary SFSymbolsPreview212121" d="M99.707-47.3633Q100.537-47.3633 101.025-47.876Q101.514-48.3887 101.514-49.1699Q101.514-49.5605 101.514-49.9512Q101.514-50.3418 101.514-50.7812Q101.514-53.0762 102.686-54.6875Q103.857-56.2988 106.738-58.3008Q110.547-60.8887 112.256-63.3545Q113.965-65.8203 113.965-69.3359Q113.965-72.4121 112.256-74.8047Q110.547-77.1973 107.544-78.5645Q104.541-79.9316 100.781-79.9316Q95.0195-79.9316 91.5283-77.0752Q88.0371-74.2188 87.5-70.459Q87.4512-69.9707 87.4023-69.5801Q87.3535-69.1895 87.3535-68.6035Q87.3535-67.7734 87.8662-67.2852Q88.3789-66.7969 89.0625-66.7969Q89.7461-66.7969 90.2344-67.1631Q90.7227-67.5293 90.8691-68.1641L91.0645-68.8477Q91.2109-70.8496 92.4805-72.6074Q93.75-74.3652 95.8252-75.4883Q97.9004-76.6113 100.586-76.6113Q104.932-76.6113 107.495-74.4873Q110.059-72.3633 110.059-69.0918Q110.059-66.5527 108.618-64.6729Q107.178-62.793 103.613-60.3516Q100.586-58.2031 99.2188-56.1035Q97.8516-54.0039 97.8516-50.9766Q97.8516-50.5371 97.8516-50.1221Q97.8516-49.707 97.8516-49.2676Q97.8516-47.3633 99.707-47.3633ZM99.6094-34.2773Q101.123-34.2773 102.148-35.3271Q103.174-36.377 103.174-37.793Q103.174-39.2578 102.148-40.2832Q101.123-41.3086 99.6094-41.3086Q98.1445-41.3086 97.0947-40.2832Q96.0449-39.2578 96.0449-37.793Q96.0449-36.377 97.0947-35.3271Q98.1445-34.2773 99.6094-34.2773Z"/>
  </g>
  <g id="Ultralight-M" transform="matrix(1 0 0 1 497.138 1126)">
   <path class="hierarchical-0:secondary SFSymbolsPreview4D4D4D" d="M19.0918 8.49609L86.6699 8.49609Q89.6484 8.49609 91.4795 6.95801Q93.3105 5.41992 93.3105 2.92969Q93.3105-1.70898 90.5273-6.83594Q87.7441-11.9629 82.4707-16.4551Q77.1973-20.9473 69.7021-23.7793Q62.207-26.6113 52.8809-26.6113Q43.5547-26.6113 36.0596-23.7793Q28.5645-20.9473 23.291-16.4551Q18.0176-11.9629 15.2344-6.83594Q12.4512-1.70898 12.4512 2.92969Q12.4512 5.41992 14.2822 6.95801Q16.1133 8.49609 19.0918 8.49609ZM53.0273-35.4004Q58.3984-35.4004 62.6465-38.1836Q66.8945-40.9668 69.3848-45.7275Q71.875-50.4883 71.875-56.3965Q71.875-62.0117 69.3604-66.6992Q66.8457-71.3867 62.5732-74.2188Q58.3008-77.0508 53.0273-77.0508Q47.7539-77.0508 43.4326-74.2188Q39.1113-71.3867 36.5967-66.6992Q34.082-62.0117 34.1309-56.4453Q34.1309-50.4883 36.6211-45.7275Q39.1113-40.9668 43.3838-38.1836Q47.6562-35.4004 53.0273-35.4004Z"/>
   <path class="hierarchical-1:primary SFSymbolsPreview212121" d="M99.2676-47.4609Q99.8047-47.4609 100.122-47.8271Q100.439-48.1934 100.439-48.8281Q100.439-49.2676 100.439-49.707Q100.439-50.1465 100.439-50.6836Q100.439-53.0273 101.587-54.7119Q102.734-56.3965 105.762-58.4473Q109.619-61.1328 111.182-63.5498Q112.744-65.9668 112.744-69.2383Q112.744-72.0703 111.157-74.3408Q109.57-76.6113 106.738-77.9297Q103.906-79.248 100.195-79.248Q94.6289-79.248 91.2842-76.3428Q87.9395-73.4375 87.5-69.5312Q87.5-69.0918 87.4756-68.7256Q87.4512-68.3594 87.4512-67.8223Q87.4512-67.2363 87.793-66.8701Q88.1348-66.5039 88.6719-66.5039Q89.209-66.5039 89.5752-66.8213Q89.9414-67.1387 89.9414-67.6758L89.9414-68.2129Q89.8926-70.3613 91.1865-72.3633Q92.4805-74.3652 94.7754-75.6592Q97.0703-76.9531 100.098-76.9531Q104.736-76.9531 107.422-74.707Q110.107-72.4609 110.107-69.043Q110.107-66.5039 108.716-64.5508Q107.324-62.5977 103.662-60.0586Q100.488-57.8613 99.2432-55.7617Q97.998-53.6621 97.998-50.8301Q97.998-50.3418 97.998-49.8535Q97.998-49.3652 97.998-48.7793Q97.998-47.4609 99.2676-47.4609ZM99.2188-34.7656Q100.488-34.7656 101.367-35.7178Q102.246-36.6699 102.246-37.8906Q102.246-39.1602 101.367-40.0635Q100.488-40.9668 99.2188-40.9668Q97.9492-40.9668 97.0459-40.0635Q96.1426-39.1602 96.1426-37.8906Q96.1426-36.6699 97.0215-35.7178Q97.9004-34.7656 99.2188-34.7656Z"/>
  </g>
  <g id="Black-S" transform="matrix(1 0 0 1 2879.96 696)">
   <path class="hierarchical-0:secondary SFSymbolsPreview4D4D4D" d="M18.2617 0.927734L67.1875 0.927734Q71.1914 0.927734 73.4375-0.952148Q75.6836-2.83203 75.6836-6.15234Q75.6836-9.76562 73.3398-13.7451Q70.9961-17.7246 66.6504-21.1914Q62.3047-24.6582 56.2256-26.8066Q50.1465-28.9551 42.7246-28.9551Q35.3027-28.9551 29.2236-26.8066Q23.1445-24.6582 18.7988-21.1914Q14.4531-17.7246 12.1094-13.7451Q9.76562-9.76562 9.76562-6.15234Q9.76562-2.83203 12.0117-0.952148Q14.2578 0.927734 18.2617 0.927734ZM42.7246-35.4492Q47.2656-35.4492 50.9033-37.793Q54.541-40.1367 56.665-44.0918Q58.7891-48.0469 58.7891-52.8809Q58.7891-57.4707 56.6406-61.377Q54.4922-65.2832 50.8545-67.6758Q47.2168-70.0684 42.7246-70.0684Q38.2324-70.0684 34.5703-67.6758Q30.9082-65.2832 28.7842-61.377Q26.6602-57.4707 26.6602-52.8809Q26.709-48.0469 28.8086-44.0918Q30.9082-40.1367 34.5459-37.793Q38.1836-35.4492 42.7246-35.4492Z"/>
   <path class="hierarchical-1:primary SFSymbolsPreview212121" d="M81.5918-46.1914Q83.7891-46.1914 85.3516-47.0459Q86.9141-47.9004 87.3535-49.2676Q87.4023-49.3652 87.4268-49.5117Q87.4512-49.6582 87.5-49.707Q87.9883-50.6348 89.1846-51.4648Q90.3809-52.2949 91.6016-53.0273Q94.7266-54.9316 95.9229-56.7383Q97.1191-58.5449 97.1191-61.377Q97.1191-66.1621 93.0664-69.2871Q89.0137-72.4121 82.8613-72.4121Q78.0273-72.4121 74.4873-70.7275Q70.9473-69.043 69.5312-66.1133Q68.9453-64.8926 68.9453-63.5742Q68.9453-61.7676 70.2393-60.3271Q71.5332-58.8867 73.7793-58.8867Q75.1465-58.8867 76.2695-59.3262Q77.3926-59.7656 78.1738-60.791L78.3203-60.9863Q79.1016-62.0117 79.834-62.3291Q80.5664-62.6465 81.3477-62.6465Q82.2754-62.6465 82.9834-61.9873Q83.6914-61.3281 83.6914-60.5957Q83.6914-59.375 82.5684-58.5693Q81.4453-57.7637 79.3945-56.3477Q77.4414-54.9805 76.2939-53.6865Q75.1465-52.3926 75.1465-50.8301Q75.1465-50.7812 75.1465-50.7812Q75.1465-50.7812 75.1465-50.7324Q75.1465-46.1914 81.5918-46.1914ZM81.6406-32.959Q84.375-32.959 86.084-34.3262Q87.793-35.6934 87.793-38.2324Q87.793-40.7227 86.084-42.1143Q84.375-43.5059 81.6406-43.5059Q78.9551-43.5059 77.1729-42.1387Q75.3906-40.7715 75.3906-38.2324Q75.3906-35.6934 77.1729-34.3262Q78.9551-32.959 81.6406-32.959Z"/>
  </g>
  <g id="Heavy-S" transform="matrix(1 0 0 1 2583.66 696)">
   <path class="hierarchical-0:secondary SFSymbolsPreview4D4D4D" d="M17.8711 0.683594L67.2852 0.683594Q71.0938 0.683594 73.2422-1.07422Q75.3906-2.83203 75.3906-5.95703Q75.3906-9.57031 73.0713-13.5742Q70.752-17.5781 66.4307-21.0938Q62.1094-24.6094 56.0547-26.7822Q50-28.9551 42.5781-28.9551Q35.1074-28.9551 29.0771-26.7822Q23.0469-24.6094 18.7256-21.0938Q14.4043-17.5781 12.085-13.5742Q9.76562-9.57031 9.76562-5.95703Q9.76562-2.83203 11.9141-1.07422Q14.0625 0.683594 17.8711 0.683594ZM42.5781-35.498Q47.0215-35.498 50.6104-37.8174Q54.1992-40.1367 56.3477-44.0674Q58.4961-47.998 58.4961-52.832Q58.4961-57.4707 56.3477-61.3281Q54.1992-65.1855 50.5859-67.5293Q46.9727-69.873 42.5781-69.873Q38.1836-69.873 34.5459-67.5293Q30.9082-65.1855 28.7842-61.3037Q26.6602-57.4219 26.6602-52.832Q26.709-47.998 28.8086-44.0674Q30.9082-40.1367 34.5215-37.8174Q38.1348-35.498 42.5781-35.498Z"/>
   <path class="hierarchical-1:primary SFSymbolsPreview212121" d="M81.1035-45.752Q83.2031-45.752 84.6191-46.6309Q86.0352-47.5098 86.3281-48.8281Q86.377-48.9258 86.4014-49.0479Q86.4258-49.1699 86.4746-49.2676Q86.8164-50.293 87.9639-51.1963Q89.1113-52.0996 90.5273-52.9785Q93.5547-54.834 94.9219-56.6895Q96.2891-58.5449 96.2891-61.5723Q96.2891-66.4062 92.2852-69.4092Q88.2812-72.4121 82.373-72.4121Q77.4902-72.4121 74.0234-70.6787Q70.5566-68.9453 69.2871-66.1133Q68.75-64.8926 68.75-63.6719Q68.75-61.9629 69.9707-60.6689Q71.1914-59.375 73.1445-59.375Q74.4629-59.375 75.4883-59.8145Q76.5137-60.2539 77.2461-61.2305L77.5879-61.6211Q78.4668-62.7441 79.3213-63.1592Q80.1758-63.5742 81.1523-63.5742Q82.4707-63.5742 83.3496-62.7686Q84.2285-61.9629 84.2285-60.8887Q84.2285-59.5215 83.0566-58.6182Q81.8848-57.7148 79.7852-56.25Q77.832-54.8828 76.6113-53.4668Q75.3906-52.0508 75.3906-50.1953Q75.3906-50.1465 75.3906-50.1221Q75.3906-50.0977 75.3906-50.0488Q75.3906-45.752 81.1035-45.752ZM81.1523-32.9102Q83.6426-32.9102 85.2783-34.2285Q86.9141-35.5469 86.9141-37.9395Q86.9141-40.2832 85.2783-41.626Q83.6426-42.9688 81.1523-42.9688Q78.6621-42.9688 76.9775-41.626Q75.293-40.2832 75.293-37.9395Q75.293-35.5957 76.9775-34.2529Q78.6621-32.9102 81.1523-32.9102Z"/>
  </g>
  <g id="Bold-S" transform="matrix(1 0 0 1 2287.44 696)">
   <path class="hierarchical-0:secondary SFSymbolsPreview4D4D4D" d="M17.4316 0.439453L67.3828 0.439453Q70.9961 0.439453 73.0225-1.19629Q75.0488-2.83203 75.0488-5.71289Q75.0488-9.375 72.7539-13.4277Q70.459-17.4805 66.1865-20.9961Q61.9141-24.5117 55.8838-26.709Q49.8535-28.9062 42.3828-28.9062Q34.9609-28.9062 28.9307-26.709Q22.9004-24.5117 18.6279-20.9961Q14.3555-17.4805 12.0605-13.4277Q9.76562-9.375 9.76562-5.71289Q9.76562-2.83203 11.792-1.19629Q13.8184 0.439453 17.4316 0.439453ZM42.3828-35.5957Q46.7285-35.5957 50.293-37.8906Q53.8574-40.1855 56.0059-44.0918Q58.1543-47.998 58.1543-52.7832Q58.1543-57.4707 56.0059-61.3037Q53.8574-65.1367 50.2686-67.3828Q46.6797-69.6289 42.3828-69.6289Q38.1348-69.6289 34.5459-67.3584Q30.957-65.0879 28.8086-61.2549Q26.6602-57.4219 26.6602-52.7344Q26.709-47.9492 28.833-44.0674Q30.957-40.1855 34.5215-37.8906Q38.0859-35.5957 42.3828-35.5957Z"/>
   <path class="hierarchical-1:primary SFSymbolsPreview212121" d="M80.6152-45.3125Q82.5195-45.3125 83.7646-46.1914Q85.0098-47.0703 85.2539-48.3887Q85.2539-48.4375 85.2783-48.5596Q85.3027-48.6816 85.3027-48.7305Q85.5469-49.9512 86.6455-50.9521Q87.7441-51.9531 89.3066-52.9297Q92.2363-54.7852 93.7744-56.6895Q95.3125-58.5938 95.3125-61.8164Q95.3125-66.748 91.3818-69.5801Q87.4512-72.4121 81.8848-72.4121Q76.9531-72.4121 73.5596-70.6055Q70.166-68.7988 69.043-66.0645Q68.5547-64.9414 68.5547-63.7695Q68.5547-62.1582 69.6777-61.0596Q70.8008-59.9609 72.4609-59.9609Q73.6816-59.9609 74.6094-60.4004Q75.5371-60.8398 76.2695-61.7676L76.7578-62.3535Q77.7344-63.623 78.7598-64.1113Q79.7852-64.5996 81.0059-64.5996Q82.666-64.5996 83.7402-63.623Q84.8145-62.6465 84.8145-61.2793Q84.8145-59.668 83.6182-58.667Q82.4219-57.666 80.1758-56.1523Q78.2227-54.7363 76.9287-53.2227Q75.6348-51.709 75.6348-49.4629Q75.6348-49.4141 75.6348-49.3896Q75.6348-49.3652 75.6348-49.3164Q75.6348-45.3125 80.6152-45.3125ZM80.5664-32.8125Q82.8613-32.8125 84.375-34.1309Q85.8887-35.4492 85.8887-37.5977Q85.8887-39.7949 84.375-41.0889Q82.8613-42.3828 80.5664-42.3828Q78.3203-42.3828 76.7578-41.0889Q75.1953-39.7949 75.1953-37.5977Q75.1953-35.4492 76.7578-34.1309Q78.3203-32.8125 80.5664-32.8125Z"/>
  </g>
  <g id="Semibold-S" transform="matrix(1 0 0 1 1991.04 696)">
   <path class="hierarchical-0:secondary SFSymbolsPreview4D4D4D" d="M17.0898 0.244141L67.4316 0.244141Q70.8984 0.244141 72.8516-1.29395Q74.8047-2.83203 74.8047-5.56641Q74.8047-9.22852 72.5098-13.2812Q70.2148-17.334 65.9668-20.8984Q61.7188-24.4629 55.7129-26.6846Q49.707-28.9062 42.2363-28.9062Q34.8145-28.9062 28.8086-26.6846Q22.8027-24.4629 18.5547-20.8984Q14.3066-17.334 12.0361-13.2812Q9.76562-9.22852 9.76562-5.56641Q9.76562-2.83203 11.6943-1.29395Q13.623 0.244141 17.0898 0.244141ZM42.2363-35.5957Q46.4844-35.5957 50.0488-37.8906Q53.6133-40.1855 55.7617-44.0674Q57.9102-47.9492 57.9102-52.7344Q57.9102-57.4707 55.7617-61.2549Q53.6133-65.0391 50.0488-67.2607Q46.4844-69.4824 42.2363-69.4824Q38.0859-69.4824 34.5215-67.2363Q30.957-64.9902 28.8086-61.1816Q26.6602-57.373 26.6602-52.6855Q26.6602-47.9004 28.8086-44.043Q30.957-40.1855 34.4971-37.8906Q38.0371-35.5957 42.2363-35.5957Z"/>
   <path class="hierarchical-1:primary SFSymbolsPreview212121" d="M80.2246-44.9707Q82.0801-44.9707 83.2031-45.8496Q84.3262-46.7285 84.4727-48.0469Q84.4727-48.0957 84.4727-48.1934Q84.4727-48.291 84.5215-48.3887Q84.668-49.707 85.7178-50.7568Q86.7676-51.8066 88.4277-52.8809Q91.3086-54.6875 92.9932-56.6406Q94.6777-58.5938 94.6777-61.9629Q94.6777-66.9434 90.7715-69.6777Q86.8652-72.4121 81.4941-72.4121Q76.5137-72.4121 73.1934-70.5566Q69.873-68.7012 68.8477-66.0645Q68.3594-64.9414 68.3594-63.8184Q68.3594-62.3047 69.4336-61.3281Q70.5078-60.3516 71.9238-60.3516Q73.1445-60.3516 73.999-60.791Q74.8535-61.2305 75.5371-62.1094L76.1719-62.8418Q77.2461-64.1602 78.3691-64.7461Q79.4922-65.332 80.8594-65.332Q82.7637-65.332 83.9844-64.2334Q85.2051-63.1348 85.2051-61.4746Q85.2051-59.7656 83.9844-58.6914Q82.7637-57.6172 80.4688-56.0547Q78.5156-54.6387 77.1729-53.0518Q75.8301-51.4648 75.8301-48.9746Q75.8301-48.9258 75.8301-48.877Q75.8301-48.8281 75.8301-48.7793Q75.8301-44.9707 80.2246-44.9707ZM80.1758-32.7637Q82.2754-32.7637 83.7402-34.0332Q85.2051-35.3027 85.2051-37.3535Q85.2051-39.4043 83.7402-40.6982Q82.2754-41.9922 80.1758-41.9922Q78.0762-41.9922 76.6113-40.6982Q75.1465-39.4043 75.1465-37.3535Q75.1465-35.3516 76.6113-34.0576Q78.0762-32.7637 80.1758-32.7637Z"/>
  </g>
  <g id="Medium-S" transform="matrix(1 0 0 1 1694.6 696)">
   <path class="hierarchical-0:secondary SFSymbolsPreview4D4D4D" d="M16.8457 0.146484L67.4805 0.146484Q70.8496 0.146484 72.7295-1.34277Q74.6094-2.83203 74.6094-5.41992Q74.6094-9.13086 72.3389-13.208Q70.0684-17.2852 65.8447-20.8496Q61.6211-24.4141 55.6152-26.6357Q49.6094-28.8574 42.1875-28.8574Q34.7168-28.8574 28.7354-26.6357Q22.7539-24.4141 18.5303-20.8496Q14.3066-17.2852 12.0361-13.208Q9.76562-9.13086 9.76562-5.41992Q9.76562-2.83203 11.6211-1.34277Q13.4766 0.146484 16.8457 0.146484ZM42.1875-35.6445Q46.3379-35.6445 49.8779-37.915Q53.418-40.1855 55.5664-44.0674Q57.7148-47.9492 57.7148-52.7344Q57.7148-57.4707 55.5664-61.2305Q53.418-64.9902 49.8779-67.1631Q46.3379-69.3359 42.1875-69.3359Q38.0371-69.3359 34.4971-67.1387Q30.957-64.9414 28.8086-61.1572Q26.6602-57.373 26.6602-52.6367Q26.6602-47.9004 28.8086-44.043Q30.957-40.1855 34.4971-37.915Q38.0371-35.6445 42.1875-35.6445Z"/>
   <path class="hierarchical-1:primary SFSymbolsPreview212121" d="M79.9316-44.7266Q81.6895-44.7266 82.7393-45.6055Q83.7891-46.4844 83.8867-47.8027Q83.8867-47.8516 83.8867-47.9248Q83.8867-47.998 83.8867-48.0957Q83.9844-49.5117 85.0098-50.6104Q86.0352-51.709 87.793-52.8809Q90.625-54.6387 92.3828-56.6406Q94.1406-58.6426 94.1406-62.1094Q94.1406-67.0898 90.2832-69.751Q86.4258-72.4121 81.2012-72.4121Q76.2207-72.4121 72.9492-70.5322Q69.6777-68.6523 68.7012-66.0156Q68.2617-64.9414 68.2617-63.916Q68.2617-62.4023 69.2871-61.5234Q70.3125-60.6445 71.582-60.6445Q72.7539-60.6445 73.5596-61.084Q74.3652-61.5234 75-62.3535L75.7324-63.1836Q76.8555-64.5996 78.0762-65.2344Q79.2969-65.8691 80.7617-65.8691Q82.8613-65.8691 84.1797-64.6729Q85.498-63.4766 85.498-61.6699Q85.498-59.8633 84.2773-58.7402Q83.0566-57.6172 80.6641-56.0059Q78.7109-54.5898 77.3193-52.9297Q75.9277-51.2695 75.9277-48.584Q75.9277-48.5352 75.9277-48.4863Q75.9277-48.4375 75.9277-48.3887Q75.9277-44.7266 79.9316-44.7266ZM79.8828-32.7148Q81.8359-32.7148 83.252-33.9844Q84.668-35.2539 84.668-37.207Q84.668-39.1602 83.252-40.4053Q81.8359-41.6504 79.8828-41.6504Q77.9297-41.6504 76.4893-40.3809Q75.0488-39.1113 75.0488-37.207Q75.0488-35.3027 76.4893-34.0088Q77.9297-32.7148 79.8828-32.7148Z"/>
  </g>
  <g id="Regular-S" transform="matrix(1 0 0 1 1398.21 696)">
   <path class="hierarchical-0:secondary SFSymbolsPreview4D4D4D" d="M16.5527-0.0488281L67.5293-0.0488281Q70.752-0.0488281 72.5586-1.44043Q74.3652-2.83203 74.3652-5.27344Q74.3652-8.98438 72.1191-13.0859Q69.873-17.1875 65.6738-20.7764Q61.4746-24.3652 55.4932-26.6113Q49.5117-28.8574 42.041-28.8574Q34.5703-28.8574 28.6133-26.6113Q22.6562-24.3652 18.457-20.7764Q14.2578-17.1875 12.0117-13.0859Q9.76562-8.98438 9.76562-5.27344Q9.76562-2.83203 11.5479-1.44043Q13.3301-0.0488281 16.5527-0.0488281ZM42.041-35.6934Q46.1426-35.6934 49.6582-37.9395Q53.1738-40.1855 55.3223-44.043Q57.4707-47.9004 57.4707-52.6855Q57.4707-57.4707 55.3223-61.2061Q53.1738-64.9414 49.6582-67.0654Q46.1426-69.1895 42.041-69.1895Q37.9883-69.1895 34.4727-67.0166Q30.957-64.8438 28.8086-61.084Q26.6602-57.3242 26.6602-52.5879Q26.6602-47.8516 28.8086-44.0186Q30.957-40.1855 34.4727-37.9395Q37.9883-35.6934 42.041-35.6934Z"/>
   <path class="hierarchical-1:primary SFSymbolsPreview212121" d="M79.5898-44.3848Q81.25-44.3848 82.1777-45.2881Q83.1055-46.1914 83.1055-47.4609Q83.1055-47.5098 83.1055-47.583Q83.1055-47.6562 83.1055-47.7539Q83.1055-49.2676 84.082-50.415Q85.0586-51.5625 86.9629-52.832Q89.6973-54.5898 91.6016-56.6162Q93.5059-58.6426 93.5059-62.2559Q93.5059-67.2852 89.6729-69.8486Q85.8398-72.4121 80.8594-72.4121Q75.8301-72.4121 72.6074-70.4834Q69.3848-68.5547 68.5059-66.0156Q68.1152-64.9414 68.1152-63.9648Q68.1152-62.5488 69.0674-61.792Q70.0195-61.0352 71.0938-61.0352Q72.2168-61.0352 72.9492-61.4746Q73.6816-61.9141 74.3164-62.6953L75.1465-63.6719Q76.3672-65.1855 77.6855-65.8691Q79.0039-66.5527 80.6152-66.5527Q83.0078-66.5527 84.4482-65.2588Q85.8887-63.9648 85.8887-61.9141Q85.8887-59.9609 84.6436-58.7646Q83.3984-57.5684 80.957-55.9082Q79.0039-54.4922 77.5635-52.7588Q76.123-51.0254 76.123-48.0957Q76.123-48.0469 76.123-47.9736Q76.123-47.9004 76.123-47.8516Q76.123-44.3848 79.5898-44.3848ZM79.4922-32.666Q81.2988-32.666 82.6416-33.9111Q83.9844-35.1562 83.9844-36.9629Q83.9844-38.8184 82.6416-40.0391Q81.2988-41.2598 79.4922-41.2598Q77.6855-41.2598 76.3428-40.0146Q75-38.7695 75-36.9629Q75-35.2051 76.3428-33.9355Q77.6855-32.666 79.4922-32.666Z"/>
  </g>
  <g id="Light-S" transform="matrix(1 0 0 1 1102.3 696)">
   <path class="hierarchical-0:secondary SFSymbolsPreview4D4D4D" d="M16.0645-0.341797L67.627-0.341797Q70.6055-0.341797 72.29-1.68457Q73.9746-3.02734 73.9746-5.27344Q73.9746-8.98438 71.7529-13.0615Q69.5312-17.1387 65.332-20.7031Q61.1328-24.2676 55.2002-26.5137Q49.2676-28.7598 41.8457-28.7598Q34.4238-28.7598 28.4912-26.5137Q22.5586-24.2676 18.3838-20.7031Q14.209-17.1387 11.9873-13.0615Q9.76562-8.98438 9.76562-5.27344Q9.76562-3.02734 11.4502-1.68457Q13.1348-0.341797 16.0645-0.341797ZM41.8945-35.5957Q46.0449-35.5957 49.4873-37.8174Q52.9297-40.0391 55.0293-43.8477Q57.1289-47.6562 57.1289-52.4414Q57.1289-57.0801 55.0293-60.791Q52.9297-64.502 49.4629-66.6504Q45.9961-68.7988 41.8945-68.7988Q37.793-68.7988 34.3262-66.626Q30.8594-64.4531 28.7598-60.7178Q26.6602-56.9824 26.709-52.3438Q26.709-47.6562 28.7842-43.8477Q30.8594-40.0391 34.3262-37.8174Q37.793-35.5957 41.8945-35.5957Z"/>
   <path class="hierarchical-1:primary SFSymbolsPreview212121" d="M79.0039-44.5312Q80.2734-44.5312 81.0059-45.2393Q81.7383-45.9473 81.7383-46.9727Q81.7383-47.1191 81.7383-47.2656Q81.7383-47.4121 81.7383-47.6074Q81.7383-49.2188 82.6904-50.4395Q83.6426-51.6602 85.6934-53.0273Q88.5254-54.8828 90.21-56.8604Q91.8945-58.8379 91.8945-62.1582Q91.8945-66.6504 88.4033-69.1162Q84.9121-71.582 80.127-71.582Q75.293-71.582 72.2656-69.5312Q69.2383-67.4805 68.5059-64.7949Q68.2129-63.916 68.2129-62.9883Q68.2129-61.8164 68.9697-61.2305Q69.7266-60.6445 70.5566-60.6445Q71.4844-60.6445 72.0947-61.0107Q72.7051-61.377 73.0957-62.0605L73.6816-62.8906Q74.5117-64.6973 76.123-65.8447Q77.7344-66.9922 79.9316-66.9922Q82.7148-66.9922 84.3506-65.5518Q85.9863-64.1113 85.9863-61.8652Q85.9863-59.8633 84.79-58.5693Q83.5938-57.2754 81.0547-55.5176Q78.9062-54.0039 77.6123-52.2949Q76.3184-50.5859 76.3184-47.9004Q76.3184-47.7051 76.3184-47.5586Q76.3184-47.4121 76.3184-47.2168Q76.3184-44.5312 79.0039-44.5312ZM78.9551-33.3496Q80.5176-33.3496 81.6406-34.4482Q82.7637-35.5469 82.7637-37.0605Q82.7637-38.6719 81.6406-39.7217Q80.5176-40.7715 78.9551-40.7715Q77.3926-40.7715 76.2451-39.6973Q75.0977-38.623 75.0977-37.0605Q75.0977-35.5469 76.2451-34.4482Q77.3926-33.3496 78.9551-33.3496Z"/>
  </g>
  <g id="Thin-S" transform="matrix(1 0 0 1 806.666 696)">
   <path class="hierarchical-0:secondary SFSymbolsPreview4D4D4D" d="M15.3809-0.732422L67.8223-0.732422Q70.4102-0.732422 71.9238-2.00195Q73.4375-3.27148 73.4375-5.32227Q73.4375-8.98438 71.2402-13.0371Q69.043-17.0898 64.8926-20.6299Q60.7422-24.1699 54.8584-26.3672Q48.9746-28.5645 41.6016-28.5645Q34.2773-28.5645 28.3691-26.3672Q22.4609-24.1699 18.335-20.6299Q14.209-17.0898 11.9873-13.0371Q9.76562-8.98438 9.76562-5.32227Q9.76562-3.27148 11.3037-2.00195Q12.8418-0.732422 15.3809-0.732422ZM41.6992-35.4492Q45.8496-35.4492 49.2432-37.6465Q52.6367-39.8438 54.6387-43.6035Q56.6406-47.3633 56.6406-52.0996Q56.6406-56.543 54.6143-60.2295Q52.5879-63.916 49.1943-66.1133Q45.8008-68.3105 41.6992-68.3105Q37.5488-68.3105 34.1553-66.1133Q30.7617-63.916 28.7354-60.2051Q26.709-56.4941 26.709-52.0508Q26.709-47.3633 28.7354-43.6035Q30.7617-39.8438 34.1553-37.6465Q37.5488-35.4492 41.6992-35.4492Z"/>
   <path class="hierarchical-1:primary SFSymbolsPreview212121" d="M78.2715-44.6777Q79.0527-44.6777 79.4678-45.1416Q79.8828-45.6055 79.8828-46.2891Q79.8828-46.582 79.8828-46.8506Q79.8828-47.1191 79.8828-47.4609Q79.8828-49.2188 80.8105-50.4883Q81.7383-51.7578 83.9844-53.2715Q86.9629-55.2734 88.3545-57.2021Q89.7461-59.1309 89.7461-61.9629Q89.7461-65.7715 86.6943-68.1152Q83.6426-70.459 79.1504-70.459Q74.6094-70.459 71.8262-68.2861Q69.043-66.1133 68.5547-63.1836Q68.4082-62.5977 68.4082-61.6699Q68.4082-60.8887 68.8721-60.498Q69.3359-60.1074 69.9219-60.1074Q70.5078-60.1074 70.9229-60.4004Q71.3379-60.6934 71.4844-61.2305L71.7285-61.8164Q72.0215-64.0137 74.0234-65.7715Q76.0254-67.5293 79.0039-67.5293Q82.3242-67.5293 84.2529-65.8936Q86.1816-64.2578 86.1816-61.7676Q86.1816-59.7656 85.0342-58.3252Q83.8867-56.8848 81.1523-54.9805Q78.8086-53.3691 77.6855-51.709Q76.5625-50.0488 76.5625-47.6562Q76.5625-47.3145 76.5625-47.0215Q76.5625-46.7285 76.5625-46.3867Q76.5625-44.6777 78.2715-44.6777ZM78.1738-34.2773Q79.4434-34.2773 80.2979-35.1562Q81.1523-36.0352 81.1523-37.207Q81.1523-38.4277 80.2979-39.2822Q79.4434-40.1367 78.1738-40.1367Q77.002-40.1367 76.0986-39.2822Q75.1953-38.4277 75.1953-37.207Q75.1953-36.0352 76.0986-35.1562Q77.002-34.2773 78.1738-34.2773Z"/>
  </g>
  <g id="Ultralight-S" transform="matrix(1 0 0 1 510.517 696)">
   <path class="hierarchical-0:secondary SFSymbolsPreview4D4D4D" d="M15.0391-0.927734L67.8711-0.927734Q70.3125-0.927734 71.7529-2.14844Q73.1934-3.36914 73.1934-5.32227Q73.1934-8.98438 71.0205-13.0127Q68.8477-17.041 64.6729-20.5566Q60.498-24.0723 54.6631-26.2939Q48.8281-28.5156 41.5039-28.5156Q34.1797-28.5156 28.2959-26.2939Q22.4121-24.0723 18.2861-20.5566Q14.1602-17.041 11.9629-13.0127Q9.76562-8.98438 9.76562-5.32227Q9.76562-3.36914 11.2305-2.14844Q12.6953-0.927734 15.0391-0.927734ZM41.6016-35.3516Q45.8008-35.3516 49.1455-37.5488Q52.4902-39.7461 54.4434-43.4814Q56.3965-47.2168 56.3965-51.9043Q56.3965-56.2988 54.4189-59.9609Q52.4414-63.623 49.0723-65.8447Q45.7031-68.0664 41.6016-68.0664Q37.4512-68.0664 34.0576-65.8691Q30.6641-63.6719 28.6865-59.9854Q26.709-56.2988 26.7578-51.9043Q26.7578-47.2168 28.7109-43.4814Q30.6641-39.7461 34.0332-37.5488Q37.4023-35.3516 41.6016-35.3516Z"/>
   <path class="hierarchical-1:primary SFSymbolsPreview212121" d="M77.8809-44.7754Q78.3691-44.7754 78.6621-45.1172Q78.9551-45.459 78.9551-45.9473Q78.9551-46.3379 78.9551-46.6553Q78.9551-46.9727 78.9551-47.3633Q78.9551-49.1699 79.8828-50.4883Q80.8105-51.8066 83.1055-53.3691Q86.1328-55.4688 87.3779-57.373Q88.623-59.2773 88.623-61.9141Q88.623-65.332 85.8154-67.627Q83.0078-69.9219 78.6133-69.9219Q74.2188-69.9219 71.582-67.6514Q68.9453-65.3809 68.5547-62.3535Q68.457-61.9141 68.457-61.0352Q68.457-60.4004 68.7744-60.1074Q69.0918-59.8145 69.5312-59.8145Q70.0195-59.8145 70.3613-60.0586Q70.7031-60.3027 70.7031-60.791L70.752-61.2793Q70.8008-63.6719 72.9736-65.7471Q75.1465-67.8223 78.5156-67.8223Q82.0801-67.8223 84.1553-66.0889Q86.2305-64.3555 86.2305-61.7188Q86.2305-59.7168 85.1318-58.2031Q84.0332-56.6895 81.2012-54.7363Q78.7598-53.0273 77.7344-51.3916Q76.709-49.7559 76.709-47.5098Q76.709-47.0703 76.709-46.7285Q76.709-46.3867 76.709-45.9961Q76.709-44.7754 77.8809-44.7754ZM77.832-34.7656Q78.9062-34.7656 79.6387-35.5225Q80.3711-36.2793 80.3711-37.3047Q80.3711-38.3301 79.6387-39.0625Q78.9062-39.7949 77.832-39.7949Q76.7578-39.7949 76.0254-39.0625Q75.293-38.3301 75.293-37.3047Q75.293-36.2793 76.0254-35.5225Q76.7578-34.7656 77.832-34.7656Z"/>
  </g>
 </g>
</svg>
