<?xml version="1.0" encoding="UTF-8"?>
<!--Generator: Apple Native CoreSVG 175-->
<!DOCTYPE svg
PUBLIC "-//W3C//DTD SVG 1.1//EN"
       "http://www.w3.org/Graphics/SVG/1.1/DTD/svg11.dtd">
<svg version="1.1" xmlns="http://www.w3.org/2000/svg" xmlns:xlink="http://www.w3.org/1999/xlink" width="3300" height="2200">
 <!--glyph: "uni1009D6.medium", point size: 100.0, font version: "17.0d11e1", template writer version: "65.1"-->
 <g id="Notes">
  <rect height="2200" id="artboard" style="fill:white;opacity:1" width="3300" x="0" y="0"/>
  <line style="fill:none;stroke:black;opacity:1;stroke-width:0.5;" x1="263" x2="3036" y1="292" y2="292"/>
  <text style="stroke:none;fill:black;font-family:sans-serif;font-size:13;font-weight:bold;" transform="matrix(1 0 0 1 263 322)">Weight/Scale Variations</text>
  <text style="stroke:none;fill:black;font-family:sans-serif;font-size:13;text-anchor:middle;" transform="matrix(1 0 0 1 559.711 322)">Ultralight</text>
  <text style="stroke:none;fill:black;font-family:sans-serif;font-size:13;text-anchor:middle;" transform="matrix(1 0 0 1 856.422 322)">Thin</text>
  <text style="stroke:none;fill:black;font-family:sans-serif;font-size:13;text-anchor:middle;" transform="matrix(1 0 0 1 1153.13 322)">Light</text>
  <text style="stroke:none;fill:black;font-family:sans-serif;font-size:13;text-anchor:middle;" transform="matrix(1 0 0 1 1449.84 322)">Regular</text>
  <text style="stroke:none;fill:black;font-family:sans-serif;font-size:13;text-anchor:middle;" transform="matrix(1 0 0 1 1746.56 322)">Medium</text>
  <text style="stroke:none;fill:black;font-family:sans-serif;font-size:13;text-anchor:middle;" transform="matrix(1 0 0 1 2043.27 322)">Semibold</text>
  <text style="stroke:none;fill:black;font-family:sans-serif;font-size:13;text-anchor:middle;" transform="matrix(1 0 0 1 2339.98 322)">Bold</text>
  <text style="stroke:none;fill:black;font-family:sans-serif;font-size:13;text-anchor:middle;" transform="matrix(1 0 0 1 2636.69 322)">Heavy</text>
  <text style="stroke:none;fill:black;font-family:sans-serif;font-size:13;text-anchor:middle;" transform="matrix(1 0 0 1 2933.4 322)">Black</text>
  <line style="fill:none;stroke:black;opacity:1;stroke-width:0.5;" x1="263" x2="3036" y1="1903" y2="1903"/>
  <g transform="matrix(1 0 0 1 263 1933)">
   <path d="M9.24805 0.830078Q10.8691 0.830078 12.2949 0.214844Q13.7207-0.400391 14.8096-1.49414Q15.8984-2.58789 16.5186-4.01367Q17.1387-5.43945 17.1387-7.05078Q17.1387-8.66211 16.5186-10.0879Q15.8984-11.5137 14.8047-12.6074Q13.7109-13.7012 12.2852-14.3164Q10.8594-14.9316 9.23828-14.9316Q7.62695-14.9316 6.20117-14.3164Q4.77539-13.7012 3.69141-12.6074Q2.60742-11.5137 1.9873-10.0879Q1.36719-8.66211 1.36719-7.05078Q1.36719-5.43945 1.9873-4.01367Q2.60742-2.58789 3.69629-1.49414Q4.78516-0.400391 6.21094 0.214844Q7.63672 0.830078 9.24805 0.830078ZM9.24805-0.654297Q7.91992-0.654297 6.7627-1.14746Q5.60547-1.64062 4.73145-2.51953Q3.85742-3.39844 3.36426-4.56055Q2.87109-5.72266 2.87109-7.05078Q2.87109-8.37891 3.35938-9.54102Q3.84766-10.7031 4.72168-11.582Q5.5957-12.4609 6.75293-12.9541Q7.91016-13.4473 9.23828-13.4473Q10.5762-13.4473 11.7334-12.9541Q12.8906-12.4609 13.7695-11.582Q14.6484-10.7031 15.1465-9.54102Q15.6445-8.37891 15.6445-7.05078Q15.6445-5.72266 15.1514-4.56055Q14.6582-3.39844 13.7842-2.51953Q12.9102-1.64062 11.748-1.14746Q10.5859-0.654297 9.24805-0.654297ZM5.6543-7.05078Q5.6543-6.72852 5.85938-6.52832Q6.06445-6.32812 6.40625-6.32812L8.51562-6.32812L8.51562-4.20898Q8.51562-3.88672 8.71094-3.67676Q8.90625-3.4668 9.23828-3.4668Q9.56055-3.4668 9.77051-3.67676Q9.98047-3.88672 9.98047-4.20898L9.98047-6.32812L12.0898-6.32812Q12.4219-6.32812 12.627-6.52832Q12.832-6.72852 12.832-7.05078Q12.832-7.38281 12.627-7.58789Q12.4219-7.79297 12.0898-7.79297L9.98047-7.79297L9.98047-9.90234Q9.98047-10.2344 9.77051-10.4443Q9.56055-10.6543 9.23828-10.6543Q8.90625-10.6543 8.71094-10.4443Q8.51562-10.2344 8.51562-9.90234L8.51562-7.79297L6.40625-7.79297Q6.06445-7.79297 5.85938-7.58789Q5.6543-7.38281 5.6543-7.05078Z"/>
  </g>
  <g transform="matrix(1 0 0 1 281.867 1933)">
   <path d="M11.709 2.91016Q13.75 2.91016 15.5518 2.12891Q17.3535 1.34766 18.7305-0.0292969Q20.1074-1.40625 20.8887-3.20801Q21.6699-5.00977 21.6699-7.05078Q21.6699-9.0918 20.8887-10.8936Q20.1074-12.6953 18.7305-14.0723Q17.3535-15.4492 15.5469-16.2305Q13.7402-17.0117 11.6992-17.0117Q9.6582-17.0117 7.85645-16.2305Q6.05469-15.4492 4.68262-14.0723Q3.31055-12.6953 2.5293-10.8936Q1.74805-9.0918 1.74805-7.05078Q1.74805-5.00977 2.5293-3.20801Q3.31055-1.40625 4.6875-0.0292969Q6.06445 1.34766 7.86621 2.12891Q9.66797 2.91016 11.709 2.91016ZM11.709 1.25Q9.98047 1.25 8.47656 0.605469Q6.97266-0.0390625 5.83496-1.17676Q4.69727-2.31445 4.05762-3.81836Q3.41797-5.32227 3.41797-7.05078Q3.41797-8.7793 4.05762-10.2832Q4.69727-11.7871 5.83008-12.9297Q6.96289-14.0723 8.4668-14.7119Q9.9707-15.3516 11.6992-15.3516Q13.4277-15.3516 14.9316-14.7119Q16.4355-14.0723 17.5781-12.9297Q18.7207-11.7871 19.3652-10.2832Q20.0098-8.7793 20.0098-7.05078Q20.0098-5.32227 19.3701-3.81836Q18.7305-2.31445 17.5928-1.17676Q16.4551-0.0390625 14.9463 0.605469Q13.4375 1.25 11.709 1.25ZM7.17773-7.05078Q7.17773-6.69922 7.41211-6.47461Q7.64648-6.25 8.01758-6.25L10.8887-6.25L10.8887-3.36914Q10.8887-2.99805 11.1133-2.76855Q11.3379-2.53906 11.6895-2.53906Q12.0605-2.53906 12.29-2.76855Q12.5195-2.99805 12.5195-3.36914L12.5195-6.25L15.4004-6.25Q15.7715-6.25 16.001-6.47461Q16.2305-6.69922 16.2305-7.05078Q16.2305-7.42188 16.001-7.65137Q15.7715-7.88086 15.4004-7.88086L12.5195-7.88086L12.5195-10.752Q12.5195-11.1328 12.29-11.3623Q12.0605-11.5918 11.6895-11.5918Q11.3379-11.5918 11.1133-11.3574Q10.8887-11.123 10.8887-10.752L10.8887-7.88086L8.01758-7.88086Q7.63672-7.88086 7.40723-7.65137Q7.17773-7.42188 7.17773-7.05078Z"/>
  </g>
  <g transform="matrix(1 0 0 1 305.646 1933)">
   <path d="M14.9707 5.66406Q17.0605 5.66406 18.96 5.01465Q20.8594 4.36523 22.4512 3.19336Q24.043 2.02148 25.2197 0.429688Q26.3965-1.16211 27.0459-3.06641Q27.6953-4.9707 27.6953-7.05078Q27.6953-9.14062 27.0459-11.04Q26.3965-12.9395 25.2197-14.5312Q24.043-16.123 22.4512-17.2998Q20.8594-18.4766 18.9551-19.126Q17.0508-19.7754 14.9609-19.7754Q12.8711-19.7754 10.9717-19.126Q9.07227-18.4766 7.48535-17.2998Q5.89844-16.123 4.72168-14.5312Q3.54492-12.9395 2.90039-11.04Q2.25586-9.14062 2.25586-7.05078Q2.25586-4.9707 2.90527-3.06641Q3.55469-1.16211 4.72656 0.429688Q5.89844 2.02148 7.49023 3.19336Q9.08203 4.36523 10.9814 5.01465Q12.8809 5.66406 14.9707 5.66406ZM14.9707 3.84766Q13.1641 3.84766 11.5283 3.2959Q9.89258 2.74414 8.53516 1.74805Q7.17773 0.751953 6.17676-0.610352Q5.17578-1.97266 4.62891-3.6084Q4.08203-5.24414 4.08203-7.05078Q4.08203-8.86719 4.62891-10.5029Q5.17578-12.1387 6.17188-13.501Q7.16797-14.8633 8.52539-15.8594Q9.88281-16.8555 11.5186-17.4023Q13.1543-17.9492 14.9609-17.9492Q16.7773-17.9492 18.4131-17.4023Q20.0488-16.8555 21.4111-15.8594Q22.7734-14.8633 23.7695-13.501Q24.7656-12.1387 25.3174-10.5029Q25.8691-8.86719 25.8691-7.05078Q25.8789-5.24414 25.332-3.6084Q24.7852-1.97266 23.7842-0.610352Q22.7832 0.751953 21.4209 1.74805Q20.0586 2.74414 18.4229 3.2959Q16.7871 3.84766 14.9707 3.84766ZM9.19922-7.05078Q9.19922-6.66992 9.45801-6.4209Q9.7168-6.17188 10.1172-6.17188L14.0625-6.17188L14.0625-2.2168Q14.0625-1.81641 14.3115-1.55762Q14.5605-1.29883 14.9512-1.29883Q15.3516-1.29883 15.6104-1.55273Q15.8691-1.80664 15.8691-2.2168L15.8691-6.17188L19.8242-6.17188Q20.2246-6.17188 20.4785-6.4209Q20.7324-6.66992 20.7324-7.05078Q20.7324-7.46094 20.4785-7.71484Q20.2246-7.96875 19.8242-7.96875L15.8691-7.96875L15.8691-11.9141Q15.8691-12.3242 15.6104-12.583Q15.3516-12.8418 14.9512-12.8418Q14.5605-12.8418 14.3115-12.583Q14.0625-12.3242 14.0625-11.9141L14.0625-7.96875L10.1172-7.96875Q9.70703-7.96875 9.45312-7.71484Q9.19922-7.46094 9.19922-7.05078Z"/>
  </g>
  <text style="stroke:none;fill:black;font-family:sans-serif;font-size:13;font-weight:bold;" transform="matrix(1 0 0 1 263 1953)">Design Variations</text>
  <text style="stroke:none;fill:black;font-family:sans-serif;font-size:13;" transform="matrix(1 0 0 1 263 1971)">Symbols are supported in up to nine weights and three scales.</text>
  <text style="stroke:none;fill:black;font-family:sans-serif;font-size:13;" transform="matrix(1 0 0 1 263 1989)">For optimal layout with text and other symbols, vertically align</text>
  <text style="stroke:none;fill:black;font-family:sans-serif;font-size:13;" transform="matrix(1 0 0 1 263 2007)">symbols with the adjacent text.</text>
  <line style="fill:none;stroke:#00AEEF;stroke-width:0.5;opacity:1.0;" x1="776" x2="776" y1="1919" y2="1933"/>
  <g transform="matrix(1 0 0 1 776 1933)">
   <path d="M3.31055 0.15625Q3.70117 0.15625 3.91602-0.00976562Q4.13086-0.175781 4.26758-0.585938L5.52734-4.0332L11.2891-4.0332L12.5488-0.585938Q12.6855-0.175781 12.9004-0.00976562Q13.1152 0.15625 13.4961 0.15625Q13.8867 0.15625 14.1162-0.0585938Q14.3457-0.273438 14.3457-0.644531Q14.3457-0.869141 14.2383-1.17188L9.6582-13.3691Q9.48242-13.8184 9.17969-14.043Q8.87695-14.2676 8.4082-14.2676Q7.5-14.2676 7.17773-13.3789L2.59766-1.16211Q2.49023-0.859375 2.49023-0.634766Q2.49023-0.263672 2.70996-0.0537109Q2.92969 0.15625 3.31055 0.15625ZM6.00586-5.51758L8.37891-12.0898L8.42773-12.0898L10.8008-5.51758Z"/>
  </g>
  <line style="fill:none;stroke:#00AEEF;stroke-width:0.5;opacity:1.0;" x1="793.197" x2="793.197" y1="1919" y2="1933"/>
  <text style="stroke:none;fill:black;font-family:sans-serif;font-size:13;font-weight:bold;" transform="matrix(1 0 0 1 776 1953)">Margins</text>
  <text style="stroke:none;fill:black;font-family:sans-serif;font-size:13;" transform="matrix(1 0 0 1 776 1971)">Leading and trailing margins on the left and right side of each symbol</text>
  <text style="stroke:none;fill:black;font-family:sans-serif;font-size:13;" transform="matrix(1 0 0 1 776 1989)">can be adjusted by modifying the x-location of the margin guidelines.</text>
  <text style="stroke:none;fill:black;font-family:sans-serif;font-size:13;" transform="matrix(1 0 0 1 776 2007)">Modifications are automatically applied proportionally to all</text>
  <text style="stroke:none;fill:black;font-family:sans-serif;font-size:13;" transform="matrix(1 0 0 1 776 2025)">scales and weights.</text>
  <g transform="matrix(1 0 0 1 1289 1933)">
   <path d="M2.8418 1.86523L4.54102 3.57422Q5.18555 4.22852 5.90332 4.17969Q6.62109 4.13086 7.31445 3.35938L18.0078-8.42773L17.041-9.4043L6.42578 2.27539Q6.16211 2.57812 5.89355 2.61719Q5.625 2.65625 5.27344 2.30469L4.10156 1.14258Q3.75 0.791016 3.79395 0.522461Q3.83789 0.253906 4.14062-0.0195312L15.6152-10.8203L14.6387-11.7871L3.04688-0.898438Q2.30469-0.214844 2.25098 0.498047Q2.19727 1.21094 2.8418 1.86523ZM9.25781-16.3281Q8.94531-16.0254 8.90625-15.6348Q8.86719-15.2441 9.04297-14.9512Q9.21875-14.6777 9.55566-14.541Q9.89258-14.4043 10.3809-14.5215Q11.4746-14.7754 12.5977-14.7314Q13.7207-14.6875 14.7949-13.9844L14.209-12.5293Q13.9551-11.9043 14.0674-11.4404Q14.1797-10.9766 14.5801-10.5664L16.875-8.25195Q17.2363-7.88086 17.5781-7.82227Q17.9199-7.76367 18.3398-7.8418L19.4043-8.03711L20.0684-7.36328L20.0293-6.80664Q20-6.43555 20.1221-6.12305Q20.2441-5.81055 20.6055-5.44922L21.3672-4.70703Q21.7285-4.3457 22.1533-4.33105Q22.5781-4.31641 22.9297-4.66797L25.8398-7.58789Q26.1914-7.93945 26.1816-8.35449Q26.1719-8.76953 25.8105-9.13086L25.0391-9.89258Q24.6875-10.2539 24.3799-10.3857Q24.0723-10.5176 23.7109-10.4883L23.1348-10.4395L22.4902-11.0742L22.7344-12.1973Q22.832-12.6172 22.6953-12.9834Q22.5586-13.3496 22.1191-13.7891L19.9219-15.9766Q18.6719-17.2168 17.2607-17.8369Q15.8496-18.457 14.4189-18.4814Q12.9883-18.5059 11.665-17.959Q10.3418-17.4121 9.25781-16.3281ZM10.752-15.957Q11.6602-16.6211 12.7002-16.9043Q13.7402-17.1875 14.8047-17.085Q15.8691-16.9824 16.8701-16.5137Q17.8711-16.0449 18.7012-15.2051L21.1328-12.793Q21.3086-12.6172 21.3525-12.4512Q21.3965-12.2852 21.3379-12.0312L21.0156-10.5469L22.5195-9.0625L23.5059-9.12109Q23.6914-9.13086 23.7891-9.09668Q23.8867-9.0625 24.0332-8.91602L24.6094-8.33984L22.168-5.89844L21.5918-6.47461Q21.4453-6.62109 21.4062-6.71875Q21.3672-6.81641 21.377-7.01172L21.4453-7.98828L19.9512-9.47266L18.4277-9.21875Q18.1836-9.16992 18.042-9.2041Q17.9004-9.23828 17.7148-9.41406L15.7129-11.416Q15.5176-11.5918 15.4932-11.7529Q15.4688-11.9141 15.5859-12.1875L16.4648-14.2773Q15.293-15.3711 13.8281-15.791Q12.3633-16.2109 10.8398-15.7617Q10.7227-15.7324 10.6885-15.8057Q10.6543-15.8789 10.752-15.957Z"/>
  </g>
  <text style="stroke:none;fill:black;font-family:sans-serif;font-size:13;font-weight:bold;" transform="matrix(1 0 0 1 1289 1953)">Exporting</text>
  <text style="stroke:none;fill:black;font-family:sans-serif;font-size:13;" transform="matrix(1 0 0 1 1289 1971)">Symbols should be outlined when exporting to ensure the</text>
  <text style="stroke:none;fill:black;font-family:sans-serif;font-size:13;" transform="matrix(1 0 0 1 1289 1989)">design is preserved when submitting to Xcode.</text>
  <text id="template-version" style="stroke:none;fill:black;font-family:sans-serif;font-size:13;text-anchor:end;" transform="matrix(1 0 0 1 3036 1933)">Template v.3.0</text>
  <text style="stroke:none;fill:black;font-family:sans-serif;font-size:13;text-anchor:end;" transform="matrix(1 0 0 1 3036 1951)">Requires Xcode 13 or greater</text>
  <text id="descriptive-name" style="stroke:none;fill:black;font-family:sans-serif;font-size:13;text-anchor:end;" transform="matrix(1 0 0 1 3036 1969)">Generated from memorychip.fill</text>
  <text style="stroke:none;fill:black;font-family:sans-serif;font-size:13;text-anchor:end;" transform="matrix(1 0 0 1 3036 1987)">Typeset at 100 points</text>
  <text style="stroke:none;fill:black;font-family:sans-serif;font-size:13;" transform="matrix(1 0 0 1 263 726)">Small</text>
  <text style="stroke:none;fill:black;font-family:sans-serif;font-size:13;" transform="matrix(1 0 0 1 263 1156)">Medium</text>
  <text style="stroke:none;fill:black;font-family:sans-serif;font-size:13;" transform="matrix(1 0 0 1 263 1586)">Large</text>
 </g>
 <g id="Guides">
  <g id="H-reference" style="fill:#27AAE1;stroke:none;" transform="matrix(1 0 0 1 339 696)">
   <path d="M0.976562 0L3.66211 0L29.3457-67.1387L30.0293-67.1387L30.0293-70.459L28.125-70.459ZM11.6699-24.4629L46.9727-24.4629L46.2402-26.709L12.4512-26.709ZM55.127 0L57.7637 0L30.6152-70.459L29.4434-70.459L29.4434-67.1387Z"/>
  </g>
  <line id="Baseline-S" style="fill:none;stroke:#27AAE1;opacity:1;stroke-width:0.5;" x1="263" x2="3036" y1="696" y2="696"/>
  <line id="Capline-S" style="fill:none;stroke:#27AAE1;opacity:1;stroke-width:0.5;" x1="263" x2="3036" y1="625.541" y2="625.541"/>
  <g id="H-reference" style="fill:#27AAE1;stroke:none;" transform="matrix(1 0 0 1 339 1126)">
   <path d="M0.976562 0L3.66211 0L29.3457-67.1387L30.0293-67.1387L30.0293-70.459L28.125-70.459ZM11.6699-24.4629L46.9727-24.4629L46.2402-26.709L12.4512-26.709ZM55.127 0L57.7637 0L30.6152-70.459L29.4434-70.459L29.4434-67.1387Z"/>
  </g>
  <line id="Baseline-M" style="fill:none;stroke:#27AAE1;opacity:1;stroke-width:0.5;" x1="263" x2="3036" y1="1126" y2="1126"/>
  <line id="Capline-M" style="fill:none;stroke:#27AAE1;opacity:1;stroke-width:0.5;" x1="263" x2="3036" y1="1055.54" y2="1055.54"/>
  <g id="H-reference" style="fill:#27AAE1;stroke:none;" transform="matrix(1 0 0 1 339 1556)">
   <path d="M0.976562 0L3.66211 0L29.3457-67.1387L30.0293-67.1387L30.0293-70.459L28.125-70.459ZM11.6699-24.4629L46.9727-24.4629L46.2402-26.709L12.4512-26.709ZM55.127 0L57.7637 0L30.6152-70.459L29.4434-70.459L29.4434-67.1387Z"/>
  </g>
  <line id="Baseline-L" style="fill:none;stroke:#27AAE1;opacity:1;stroke-width:0.5;" x1="263" x2="3036" y1="1556" y2="1556"/>
  <line id="Capline-L" style="fill:none;stroke:#27AAE1;opacity:1;stroke-width:0.5;" x1="263" x2="3036" y1="1485.54" y2="1485.54"/>
  <line id="left-margin-Ultralight-S" style="fill:none;stroke:#00AEEF;stroke-width:0.5;opacity:1.0;" x1="510.541" x2="510.541" y1="600.785" y2="720.121"/>
  <line id="right-margin-Ultralight-S" style="fill:none;stroke:#00AEEF;stroke-width:0.5;opacity:1.0;" x1="608.881" x2="608.881" y1="600.785" y2="720.121"/>
  <line id="left-margin-Thin-S" style="fill:none;stroke:#00AEEF;stroke-width:0.5;opacity:1.0;" x1="806.813" x2="806.813" y1="600.785" y2="720.121"/>
  <line id="right-margin-Thin-S" style="fill:none;stroke:#00AEEF;stroke-width:0.5;opacity:1.0;" x1="906.032" x2="906.032" y1="600.785" y2="720.121"/>
  <line id="left-margin-Light-S" style="fill:none;stroke:#00AEEF;stroke-width:0.5;opacity:1.0;" x1="1102.67" x2="1102.67" y1="600.785" y2="720.121"/>
  <line id="right-margin-Light-S" style="fill:none;stroke:#00AEEF;stroke-width:0.5;opacity:1.0;" x1="1203.6" x2="1203.6" y1="600.785" y2="720.121"/>
  <line id="left-margin-Regular-S" style="fill:none;stroke:#00AEEF;stroke-width:0.5;opacity:1.0;" x1="1398.75" x2="1398.75" y1="600.785" y2="720.121"/>
  <line id="right-margin-Regular-S" style="fill:none;stroke:#00AEEF;stroke-width:0.5;opacity:1.0;" x1="1500.94" x2="1500.94" y1="600.785" y2="720.121"/>
  <line id="left-margin-Medium-S" style="fill:none;stroke:#00AEEF;stroke-width:0.5;opacity:1.0;" x1="1695.43" x2="1695.43" y1="600.785" y2="720.121"/>
  <line id="right-margin-Medium-S" style="fill:none;stroke:#00AEEF;stroke-width:0.5;opacity:1.0;" x1="1797.68" x2="1797.68" y1="600.785" y2="720.121"/>
  <line id="left-margin-Semibold-S" style="fill:none;stroke:#00AEEF;stroke-width:0.5;opacity:1.0;" x1="1992.14" x2="1992.14" y1="600.785" y2="720.121"/>
  <line id="right-margin-Semibold-S" style="fill:none;stroke:#00AEEF;stroke-width:0.5;opacity:1.0;" x1="2094.39" x2="2094.39" y1="600.785" y2="720.121"/>
  <line id="left-margin-Bold-S" style="fill:none;stroke:#00AEEF;stroke-width:0.5;opacity:1.0;" x1="2288.83" x2="2288.83" y1="600.785" y2="720.121"/>
  <line id="right-margin-Bold-S" style="fill:none;stroke:#00AEEF;stroke-width:0.5;opacity:1.0;" x1="2391.13" x2="2391.13" y1="600.785" y2="720.121"/>
  <line id="left-margin-Heavy-S" style="fill:none;stroke:#00AEEF;stroke-width:0.5;opacity:1.0;" x1="2585.54" x2="2585.54" y1="600.785" y2="720.121"/>
  <line id="right-margin-Heavy-S" style="fill:none;stroke:#00AEEF;stroke-width:0.5;opacity:1.0;" x1="2687.84" x2="2687.84" y1="600.785" y2="720.121"/>
  <line id="left-margin-Black-S" style="fill:none;stroke:#00AEEF;stroke-width:0.5;opacity:1.0;" x1="2882.23" x2="2882.23" y1="600.785" y2="720.121"/>
  <line id="right-margin-Black-S" style="fill:none;stroke:#00AEEF;stroke-width:0.5;opacity:1.0;" x1="2984.57" x2="2984.57" y1="600.785" y2="720.121"/>
  <line id="left-margin-Ultralight-M" style="fill:none;stroke:#00AEEF;stroke-width:0.5;opacity:1.0;" x1="497.113" x2="497.113" y1="1030.79" y2="1150.12"/>
  <line id="right-margin-Ultralight-M" style="fill:none;stroke:#00AEEF;stroke-width:0.5;opacity:1.0;" x1="622.309" x2="622.309" y1="1030.79" y2="1150.12"/>
  <line id="left-margin-Thin-M" style="fill:none;stroke:#00AEEF;stroke-width:0.5;opacity:1.0;" x1="793.336" x2="793.336" y1="1030.79" y2="1150.12"/>
  <line id="right-margin-Thin-M" style="fill:none;stroke:#00AEEF;stroke-width:0.5;opacity:1.0;" x1="919.508" x2="919.508" y1="1030.79" y2="1150.12"/>
  <line id="left-margin-Light-M" style="fill:none;stroke:#00AEEF;stroke-width:0.5;opacity:1.0;" x1="1089.1" x2="1089.1" y1="1030.79" y2="1150.12"/>
  <line id="right-margin-Light-M" style="fill:none;stroke:#00AEEF;stroke-width:0.5;opacity:1.0;" x1="1217.17" x2="1217.17" y1="1030.79" y2="1150.12"/>
  <line id="left-margin-Regular-M" style="fill:none;stroke:#00AEEF;stroke-width:0.5;opacity:1.0;" x1="1385.07" x2="1385.07" y1="1030.79" y2="1150.12"/>
  <line id="right-margin-Regular-M" style="fill:none;stroke:#00AEEF;stroke-width:0.5;opacity:1.0;" x1="1514.61" x2="1514.61" y1="1030.79" y2="1150.12"/>
  <line id="left-margin-Medium-M" style="fill:none;stroke:#00AEEF;stroke-width:0.5;opacity:1.0;" x1="1681.69" x2="1681.69" y1="1030.79" y2="1150.12"/>
  <line id="right-margin-Medium-M" style="fill:none;stroke:#00AEEF;stroke-width:0.5;opacity:1.0;" x1="1811.42" x2="1811.42" y1="1030.79" y2="1150.12"/>
  <line id="left-margin-Semibold-M" style="fill:none;stroke:#00AEEF;stroke-width:0.5;opacity:1.0;" x1="1978.33" x2="1978.33" y1="1030.79" y2="1150.12"/>
  <line id="right-margin-Semibold-M" style="fill:none;stroke:#00AEEF;stroke-width:0.5;opacity:1.0;" x1="2108.21" x2="2108.21" y1="1030.79" y2="1150.12"/>
  <line id="left-margin-Bold-M" style="fill:none;stroke:#00AEEF;stroke-width:0.5;opacity:1.0;" x1="2274.94" x2="2274.94" y1="1030.79" y2="1150.12"/>
  <line id="right-margin-Bold-M" style="fill:none;stroke:#00AEEF;stroke-width:0.5;opacity:1.0;" x1="2405.02" x2="2405.02" y1="1030.79" y2="1150.12"/>
  <line id="left-margin-Heavy-M" style="fill:none;stroke:#00AEEF;stroke-width:0.5;opacity:1.0;" x1="2571.5" x2="2571.5" y1="1030.79" y2="1150.12"/>
  <line id="right-margin-Heavy-M" style="fill:none;stroke:#00AEEF;stroke-width:0.5;opacity:1.0;" x1="2701.87" x2="2701.87" y1="1030.79" y2="1150.12"/>
  <line id="left-margin-Black-M" style="fill:none;stroke:#00AEEF;stroke-width:0.5;opacity:1.0;" x1="2868.09" x2="2868.09" y1="1030.79" y2="1150.12"/>
  <line id="right-margin-Black-M" style="fill:none;stroke:#00AEEF;stroke-width:0.5;opacity:1.0;" x1="2998.71" x2="2998.71" y1="1030.79" y2="1150.12"/>
  <line id="left-margin-Ultralight-L" style="fill:none;stroke:#00AEEF;stroke-width:0.5;opacity:1.0;" x1="479.169" x2="479.169" y1="1460.79" y2="1580.12"/>
  <line id="right-margin-Ultralight-L" style="fill:none;stroke:#00AEEF;stroke-width:0.5;opacity:1.0;" x1="640.253" x2="640.253" y1="1460.79" y2="1580.12"/>
  <line id="left-margin-Thin-L" style="fill:none;stroke:#00AEEF;stroke-width:0.5;opacity:1.0;" x1="775.343" x2="775.343" y1="1460.79" y2="1580.12"/>
  <line id="right-margin-Thin-L" style="fill:none;stroke:#00AEEF;stroke-width:0.5;opacity:1.0;" x1="937.501" x2="937.501" y1="1460.79" y2="1580.12"/>
  <line id="left-margin-Light-L" style="fill:none;stroke:#00AEEF;stroke-width:0.5;opacity:1.0;" x1="1070.96" x2="1070.96" y1="1460.79" y2="1580.12"/>
  <line id="right-margin-Light-L" style="fill:none;stroke:#00AEEF;stroke-width:0.5;opacity:1.0;" x1="1235.31" x2="1235.31" y1="1460.79" y2="1580.12"/>
  <line id="left-margin-Regular-L" style="fill:none;stroke:#00AEEF;stroke-width:0.5;opacity:1.0;" x1="1366.86" x2="1366.86" y1="1460.79" y2="1580.12"/>
  <line id="right-margin-Regular-L" style="fill:none;stroke:#00AEEF;stroke-width:0.5;opacity:1.0;" x1="1532.83" x2="1532.83" y1="1460.79" y2="1580.12"/>
  <line id="left-margin-Medium-L" style="fill:none;stroke:#00AEEF;stroke-width:0.5;opacity:1.0;" x1="1663.33" x2="1663.33" y1="1460.79" y2="1580.12"/>
  <line id="right-margin-Medium-L" style="fill:none;stroke:#00AEEF;stroke-width:0.5;opacity:1.0;" x1="1829.78" x2="1829.78" y1="1460.79" y2="1580.12"/>
  <line id="left-margin-Semibold-L" style="fill:none;stroke:#00AEEF;stroke-width:0.5;opacity:1.0;" x1="1959.87" x2="1959.87" y1="1460.79" y2="1580.12"/>
  <line id="right-margin-Semibold-L" style="fill:none;stroke:#00AEEF;stroke-width:0.5;opacity:1.0;" x1="2126.67" x2="2126.67" y1="1460.79" y2="1580.12"/>
  <line id="left-margin-Bold-L" style="fill:none;stroke:#00AEEF;stroke-width:0.5;opacity:1.0;" x1="2256.34" x2="2256.34" y1="1460.79" y2="1580.12"/>
  <line id="right-margin-Bold-L" style="fill:none;stroke:#00AEEF;stroke-width:0.5;opacity:1.0;" x1="2423.62" x2="2423.62" y1="1460.79" y2="1580.12"/>
  <line id="left-margin-Heavy-L" style="fill:none;stroke:#00AEEF;stroke-width:0.5;opacity:1.0;" x1="2552.73" x2="2552.73" y1="1460.79" y2="1580.12"/>
  <line id="right-margin-Heavy-L" style="fill:none;stroke:#00AEEF;stroke-width:0.5;opacity:1.0;" x1="2720.65" x2="2720.65" y1="1460.79" y2="1580.12"/>
  <line id="left-margin-Black-L" style="fill:none;stroke:#00AEEF;stroke-width:0.5;opacity:1.0;" x1="2849.12" x2="2849.12" y1="1460.79" y2="1580.12"/>
  <line id="right-margin-Black-L" style="fill:none;stroke:#00AEEF;stroke-width:0.5;opacity:1.0;" x1="3017.68" x2="3017.68" y1="1460.79" y2="1580.12"/>
 </g>
 <g id="Symbols">
  <g id="Black-L" transform="matrix(1 0 0 1 2849.12 1556)">
   <path d="M39.9902 10.4492L128.613 10.4492Q140.039 10.4492 146.265 4.22363Q152.49-2.00195 152.49-13.3789L152.49-56.9824Q152.49-68.4082 146.265-74.6094Q140.039-80.8105 128.613-80.8105L39.9902-80.8105Q28.5645-80.8105 22.3145-74.6094Q16.0645-68.4082 16.0645-56.9824L16.0645-13.3789Q16.0645-2.00195 22.3145 4.22363Q28.5645 10.4492 39.9902 10.4492ZM35.6445-90.4785L49.8047-90.4785L49.8047-97.4121Q49.8047-100.391 47.7539-102.441Q45.7031-104.492 42.7246-104.492Q39.7461-104.492 37.6953-102.441Q35.6445-100.391 35.6445-97.4121ZM56.4453-90.4785L70.6055-90.4785L70.6055-97.4121Q70.6055-100.391 68.5547-102.441Q66.5039-104.492 63.5254-104.492Q60.5469-104.492 58.4961-102.441Q56.4453-100.391 56.4453-97.4121ZM77.1973-90.4785L91.3574-90.4785L91.3574-97.4121Q91.3574-100.391 89.3066-102.441Q87.2559-104.492 84.2773-104.492Q81.2988-104.492 79.248-102.441Q77.1973-100.391 77.1973-97.4121ZM97.998-90.4785L112.158-90.4785L112.158-97.4121Q112.158-100.391 110.107-102.441Q108.057-104.492 105.078-104.492Q102.1-104.492 100.049-102.441Q97.998-100.391 97.998-97.4121ZM118.75-90.4785L132.91-90.4785L132.91-97.4121Q132.91-100.391 130.859-102.441Q128.809-104.492 125.83-104.492Q122.852-104.492 120.801-102.441Q118.75-100.391 118.75-97.4121ZM35.6445 20.0684L35.6445 27.002Q35.6445 29.9805 37.6953 32.0312Q39.7461 34.082 42.7246 34.082Q45.7031 34.082 47.7539 32.0312Q49.8047 29.9805 49.8047 27.002L49.8047 20.0684ZM56.4453 20.0684L56.4453 27.002Q56.4453 29.9805 58.4961 32.0312Q60.5469 34.082 63.5254 34.082Q66.5039 34.082 68.5547 32.0312Q70.6055 29.9805 70.6055 27.002L70.6055 20.0684ZM77.1973 20.0684L77.1973 27.002Q77.1973 29.9805 79.248 32.0312Q81.2988 34.082 84.2773 34.082Q87.2559 34.082 89.3066 32.0312Q91.3574 29.9805 91.3574 27.002L91.3574 20.0684ZM97.998 20.0684L97.998 27.002Q97.998 29.9805 100.049 32.0312Q102.1 34.082 105.078 34.082Q108.057 34.082 110.107 32.0312Q112.158 29.9805 112.158 27.002L112.158 20.0684ZM118.75 20.0684L118.75 27.002Q118.75 29.9805 120.801 32.0312Q122.852 34.082 125.83 34.082Q128.809 34.082 130.859 32.0312Q132.91 29.9805 132.91 27.002L132.91 20.0684Z"/>
  </g>
  <g id="Heavy-L" transform="matrix(1 0 0 1 2552.73 1556)">
   <path d="M38.8184 9.66797L129.15 9.66797Q140.137 9.66797 145.996 3.78418Q151.855-2.09961 151.855-12.9883L151.855-57.373Q151.855-68.3105 145.996-74.1455Q140.137-79.9805 129.15-79.9805L38.8184-79.9805Q27.8809-79.9805 21.9727-74.1455Q16.0645-68.3105 16.0645-57.373L16.0645-12.9883Q16.0645-2.09961 21.9727 3.78418Q27.8809 9.66797 38.8184 9.66797ZM36.2305-89.2578L49.0723-89.2578L49.0723-95.9961Q49.0723-98.7305 47.2168-100.586Q45.3613-102.441 42.627-102.441Q39.8926-102.441 38.0615-100.586Q36.2305-98.7305 36.2305-95.9961ZM56.8848-89.2578L69.7754-89.2578L69.7754-95.9961Q69.7754-98.7305 67.9199-100.586Q66.0645-102.441 63.3301-102.441Q60.5957-102.441 58.7402-100.586Q56.8848-98.7305 56.8848-95.9961ZM77.5391-89.2578L90.3809-89.2578L90.3809-95.9961Q90.3809-98.7305 88.5498-100.586Q86.7188-102.441 83.9844-102.441Q81.25-102.441 79.3945-100.586Q77.5391-98.7305 77.5391-95.9961ZM98.2422-89.2578L111.084-89.2578L111.084-95.9961Q111.084-98.7305 109.229-100.586Q107.373-102.441 104.639-102.441Q101.904-102.441 100.073-100.586Q98.2422-98.7305 98.2422-95.9961ZM118.848-89.2578L131.738-89.2578L131.738-95.9961Q131.738-98.7305 129.883-100.586Q128.027-102.441 125.293-102.441Q122.559-102.441 120.703-100.586Q118.848-98.7305 118.848-95.9961ZM36.2305 18.8477L36.2305 25.5859Q36.2305 28.3203 38.0615 30.1758Q39.8926 32.0312 42.627 32.0312Q45.3613 32.0312 47.2168 30.1758Q49.0723 28.3203 49.0723 25.5859L49.0723 18.8477ZM56.8848 18.8477L56.8848 25.5859Q56.8848 28.3203 58.7402 30.1758Q60.5957 32.0312 63.3301 32.0312Q66.0645 32.0312 67.9199 30.1758Q69.7754 28.3203 69.7754 25.5859L69.7754 18.8477ZM77.5391 18.8477L77.5391 25.5859Q77.5391 28.3203 79.3945 30.1758Q81.25 32.0312 83.9844 32.0312Q86.7188 32.0312 88.5498 30.1758Q90.3809 28.3203 90.3809 25.5859L90.3809 18.8477ZM98.2422 18.8477L98.2422 25.5859Q98.2422 28.3203 100.073 30.1758Q101.904 32.0312 104.639 32.0312Q107.373 32.0312 109.229 30.1758Q111.084 28.3203 111.084 25.5859L111.084 18.8477ZM118.848 18.8477L118.848 25.5859Q118.848 28.3203 120.703 30.1758Q122.559 32.0312 125.293 32.0312Q128.027 32.0312 129.883 30.1758Q131.738 28.3203 131.738 25.5859L131.738 18.8477Z"/>
  </g>
  <g id="Bold-L" transform="matrix(1 0 0 1 2256.34 1556)">
   <path d="M37.5488 8.78906L129.736 8.78906Q140.234 8.78906 145.728 3.2959Q151.221-2.19727 151.221-12.5488L151.221-57.8125Q151.221-68.1641 145.728-73.6328Q140.234-79.1016 129.736-79.1016L37.5488-79.1016Q27.0996-79.1016 21.582-73.6572Q16.0645-68.2129 16.0645-57.8125L16.0645-12.5488Q16.0645-2.19727 21.582 3.2959Q27.0996 8.78906 37.5488 8.78906ZM36.8652-87.8418L48.2422-87.8418L48.2422-94.4336Q48.2422-96.875 46.6309-98.5107Q45.0195-100.146 42.5781-100.146Q40.0879-100.146 38.4766-98.5107Q36.8652-96.875 36.8652-94.4336ZM57.4219-87.8418L68.7988-87.8418L68.7988-94.4336Q68.7988-96.875 67.1875-98.5107Q65.5762-100.146 63.1348-100.146Q60.6445-100.146 59.0332-98.5107Q57.4219-96.875 57.4219-94.4336ZM77.9297-87.8418L89.3555-87.8418L89.3555-94.4336Q89.3555-96.875 87.7197-98.5107Q86.084-100.146 83.6426-100.146Q81.2012-100.146 79.5654-98.5107Q77.9297-96.875 77.9297-94.4336ZM98.4863-87.8418L109.912-87.8418L109.912-94.4336Q109.912-96.875 108.276-98.5107Q106.641-100.146 104.199-100.146Q101.758-100.146 100.122-98.5107Q98.4863-96.875 98.4863-94.4336ZM118.994-87.8418L130.42-87.8418L130.42-94.4336Q130.42-96.875 128.784-98.5107Q127.148-100.146 124.707-100.146Q122.266-100.146 120.63-98.5107Q118.994-96.875 118.994-94.4336ZM36.8652 17.4805L36.8652 24.0723Q36.8652 26.5137 38.4766 28.1494Q40.0879 29.7852 42.5781 29.7852Q45.0195 29.7852 46.6309 28.1494Q48.2422 26.5137 48.2422 24.0723L48.2422 17.4805ZM57.4219 17.4805L57.4219 24.0723Q57.4219 26.5137 59.0332 28.1494Q60.6445 29.7852 63.1348 29.7852Q65.5762 29.7852 67.1875 28.1494Q68.7988 26.5137 68.7988 24.0723L68.7988 17.4805ZM77.9297 17.4805L77.9297 24.0723Q77.9297 26.5137 79.5654 28.1494Q81.2012 29.7852 83.6426 29.7852Q86.084 29.7852 87.7197 28.1494Q89.3555 26.5137 89.3555 24.0723L89.3555 17.4805ZM98.4863 17.4805L98.4863 24.0723Q98.4863 26.5137 100.122 28.1494Q101.758 29.7852 104.199 29.7852Q106.641 29.7852 108.276 28.1494Q109.912 26.5137 109.912 24.0723L109.912 17.4805ZM118.994 17.4805L118.994 24.0723Q118.994 26.5137 120.63 28.1494Q122.266 29.7852 124.707 29.7852Q127.148 29.7852 128.784 28.1494Q130.42 26.5137 130.42 24.0723L130.42 17.4805Z"/>
  </g>
  <g id="Semibold-L" transform="matrix(1 0 0 1 1959.87 1556)">
   <path d="M36.6211 8.1543L130.127 8.1543Q140.283 8.1543 145.508 2.9541Q150.732-2.24609 150.732-12.2559L150.732-58.1055Q150.732-68.0664 145.508-73.2666Q140.283-78.4668 130.127-78.4668L36.6211-78.4668Q26.5625-78.4668 21.3135-73.291Q16.0645-68.1152 16.0645-58.1055L16.0645-12.2559Q16.0645-2.24609 21.3135 2.9541Q26.5625 8.1543 36.6211 8.1543ZM37.2559-86.8652L47.6562-86.8652L47.6562-93.3105Q47.6562-95.6055 46.1914-97.0703Q44.7266-98.5352 42.4805-98.5352Q40.2344-98.5352 38.7451-97.0703Q37.2559-95.6055 37.2559-93.3105ZM57.7637-86.8652L68.1641-86.8652L68.1641-93.3105Q68.1641-95.6055 66.6748-97.0703Q65.1855-98.5352 62.9395-98.5352Q60.6934-98.5352 59.2285-97.0703Q57.7637-95.6055 57.7637-93.3105ZM78.1738-86.8652L88.5742-86.8652L88.5742-93.3105Q88.5742-95.6055 87.1094-97.0703Q85.6445-98.5352 83.3984-98.5352Q81.1523-98.5352 79.6631-97.0703Q78.1738-95.6055 78.1738-93.3105ZM98.6816-86.8652L109.082-86.8652L109.082-93.3105Q109.082-95.6055 107.593-97.0703Q106.104-98.5352 103.857-98.5352Q101.611-98.5352 100.146-97.0703Q98.6816-95.6055 98.6816-93.3105ZM119.092-86.8652L129.492-86.8652L129.492-93.3105Q129.492-95.6055 128.027-97.0703Q126.562-98.5352 124.316-98.5352Q122.07-98.5352 120.581-97.0703Q119.092-95.6055 119.092-93.3105ZM37.2559 16.5527L37.2559 22.9492Q37.2559 25.2441 38.7451 26.709Q40.2344 28.1738 42.4805 28.1738Q44.7266 28.1738 46.1914 26.709Q47.6562 25.2441 47.6562 22.9492L47.6562 16.5527ZM57.7637 16.5527L57.7637 22.9492Q57.7637 25.2441 59.2285 26.709Q60.6934 28.1738 62.9395 28.1738Q65.1855 28.1738 66.6748 26.709Q68.1641 25.2441 68.1641 22.9492L68.1641 16.5527ZM78.1738 16.5527L78.1738 22.9492Q78.1738 25.2441 79.6631 26.709Q81.1523 28.1738 83.3984 28.1738Q85.6445 28.1738 87.1094 26.709Q88.5742 25.2441 88.5742 22.9492L88.5742 16.5527ZM98.6816 16.5527L98.6816 22.9492Q98.6816 25.2441 100.146 26.709Q101.611 28.1738 103.857 28.1738Q106.104 28.1738 107.593 26.709Q109.082 25.2441 109.082 22.9492L109.082 16.5527ZM119.092 16.5527L119.092 22.9492Q119.092 25.2441 120.581 26.709Q122.07 28.1738 124.316 28.1738Q126.562 28.1738 128.027 26.709Q129.492 25.2441 129.492 22.9492L129.492 16.5527Z"/>
  </g>
  <g id="Medium-L" transform="matrix(1 0 0 1 1663.33 1556)">
   <path d="M35.9375 7.66602L130.469 7.66602Q140.332 7.66602 145.361 2.66113Q150.391-2.34375 150.391-12.0117L150.391-58.3008Q150.391-68.0176 145.361-73.0225Q140.332-78.0273 130.469-78.0273L35.9375-78.0273Q26.1719-78.0273 21.1182-73.0469Q16.0645-68.0664 16.0645-58.3008L16.0645-12.0117Q16.0645-2.29492 21.1182 2.68555Q26.1719 7.66602 35.9375 7.66602ZM37.5977-86.1328L47.2656-86.1328L47.2656-92.4805Q47.2656-94.6289 45.8984-95.9717Q44.5312-97.3145 42.4316-97.3145Q40.2832-97.3145 38.9404-95.9717Q37.5977-94.6289 37.5977-92.4805ZM58.0078-86.1328L67.627-86.1328L67.627-92.4805Q67.627-94.6289 66.2842-95.9717Q64.9414-97.3145 62.8418-97.3145Q60.6934-97.3145 59.3506-95.9717Q58.0078-94.6289 58.0078-92.4805ZM78.418-86.1328L88.0371-86.1328L88.0371-92.4805Q88.0371-94.6289 86.6943-95.9717Q85.3516-97.3145 83.2031-97.3145Q81.1035-97.3145 79.7607-95.9717Q78.418-94.6289 78.418-92.4805ZM98.7793-86.1328L108.447-86.1328L108.447-92.4805Q108.447-94.6289 107.08-95.9717Q105.713-97.3145 103.613-97.3145Q101.514-97.3145 100.146-95.9717Q98.7793-94.6289 98.7793-92.4805ZM119.141-86.1328L128.809-86.1328L128.809-92.4805Q128.809-94.6289 127.441-95.9717Q126.074-97.3145 123.975-97.3145Q121.875-97.3145 120.508-95.9717Q119.141-94.6289 119.141-92.4805ZM37.5977 15.8203L37.5977 22.168Q37.5977 24.3164 38.9404 25.6592Q40.2832 27.002 42.4316 27.002Q44.5312 27.002 45.8984 25.6592Q47.2656 24.3164 47.2656 22.168L47.2656 15.8203ZM58.0078 15.8203L58.0078 22.168Q58.0078 24.3164 59.3506 25.6592Q60.6934 27.002 62.8418 27.002Q64.9414 27.002 66.2842 25.6592Q67.627 24.3164 67.627 22.168L67.627 15.8203ZM78.418 15.8203L78.418 22.168Q78.418 24.3164 79.7607 25.6592Q81.1035 27.002 83.2031 27.002Q85.3516 27.002 86.6943 25.6592Q88.0371 24.3164 88.0371 22.168L88.0371 15.8203ZM98.7793 15.8203L98.7793 22.168Q98.7793 24.3164 100.146 25.6592Q101.514 27.002 103.613 27.002Q105.713 27.002 107.08 25.6592Q108.447 24.3164 108.447 22.168L108.447 15.8203ZM119.141 15.8203L119.141 22.168Q119.141 24.3164 120.508 25.6592Q121.875 27.002 123.975 27.002Q126.074 27.002 127.441 25.6592Q128.809 24.3164 128.809 22.168L128.809 15.8203Z"/>
  </g>
  <g id="Regular-L" transform="matrix(1 0 0 1 1366.86 1556)">
   <path d="M35.0586 7.08008L130.859 7.08008Q140.381 7.08008 145.142 2.34375Q149.902-2.39258 149.902-11.7188L149.902-58.5938Q149.902-67.9199 145.142-72.6562Q140.381-77.3926 130.859-77.3926L35.0586-77.3926Q25.6348-77.3926 20.8496-72.6807Q16.0645-67.9688 16.0645-58.5938L16.0645-11.7188Q16.0645-2.34375 20.8496 2.36816Q25.6348 7.08008 35.0586 7.08008ZM38.0371-85.2051L46.6797-85.2051L46.6797-91.4062Q46.6797-93.3594 45.4834-94.5557Q44.2871-95.752 42.3828-95.752Q40.4297-95.752 39.2334-94.5557Q38.0371-93.3594 38.0371-91.4062ZM58.3496-85.2051L66.9922-85.2051L66.9922-91.4062Q66.9922-93.3594 65.7959-94.5557Q64.5996-95.752 62.6953-95.752Q60.7422-95.752 59.5459-94.5557Q58.3496-93.3594 58.3496-91.4062ZM78.6621-85.2051L87.3047-85.2051L87.3047-91.4062Q87.3047-93.3594 86.1084-94.5557Q84.9121-95.752 82.959-95.752Q81.0547-95.752 79.8584-94.5557Q78.6621-93.3594 78.6621-91.4062ZM98.9746-85.2051L107.617-85.2051L107.617-91.4062Q107.617-93.3594 106.421-94.5557Q105.225-95.752 103.271-95.752Q101.367-95.752 100.171-94.5557Q98.9746-93.3594 98.9746-91.4062ZM119.238-85.2051L127.93-85.2051L127.93-91.4062Q127.93-93.3594 126.709-94.5557Q125.488-95.752 123.584-95.752Q121.68-95.752 120.459-94.5557Q119.238-93.3594 119.238-91.4062ZM38.0371 14.8926L38.0371 21.0938Q38.0371 23.0469 39.2334 24.2432Q40.4297 25.4395 42.3828 25.4395Q44.2871 25.4395 45.4834 24.2432Q46.6797 23.0469 46.6797 21.0938L46.6797 14.8926ZM58.3496 14.8926L58.3496 21.0938Q58.3496 23.0469 59.5459 24.2432Q60.7422 25.4395 62.6953 25.4395Q64.5996 25.4395 65.7959 24.2432Q66.9922 23.0469 66.9922 21.0938L66.9922 14.8926ZM78.6621 14.8926L78.6621 21.0938Q78.6621 23.0469 79.8584 24.2432Q81.0547 25.4395 82.959 25.4395Q84.9121 25.4395 86.1084 24.2432Q87.3047 23.0469 87.3047 21.0938L87.3047 14.8926ZM98.9746 14.8926L98.9746 21.0938Q98.9746 23.0469 100.171 24.2432Q101.367 25.4395 103.271 25.4395Q105.225 25.4395 106.421 24.2432Q107.617 23.0469 107.617 21.0938L107.617 14.8926ZM119.238 14.8926L119.238 21.0938Q119.238 23.0469 120.459 24.2432Q121.68 25.4395 123.584 25.4395Q125.488 25.4395 126.709 24.2432Q127.93 23.0469 127.93 21.0938L127.93 14.8926Z"/>
  </g>
  <g id="Light-L" transform="matrix(1 0 0 1 1070.96 1556)">
   <path d="M34.0332 6.83594L130.273 6.83594Q139.209 6.83594 143.75 2.29492Q148.291-2.24609 148.291-11.0352L148.291-59.2773Q148.291-68.0176 143.75-72.5586Q139.209-77.0996 130.273-77.0996L34.0332-77.0996Q25.1465-77.0996 20.6055-72.6074Q16.0645-68.1152 16.0645-59.2773L16.0645-11.0352Q16.0645-2.19727 20.6055 2.31934Q25.1465 6.83594 34.0332 6.83594ZM38.3789-83.7891L45.0195-83.7891L45.0195-90.332Q45.0195-91.7969 44.0918-92.7246Q43.1641-93.6523 41.6992-93.6523Q40.2344-93.6523 39.3066-92.7246Q38.3789-91.7969 38.3789-90.332ZM58.6426-83.7891L65.2344-83.7891L65.2344-90.332Q65.2344-91.7969 64.3066-92.7246Q63.3789-93.6523 61.9629-93.6523Q60.4492-93.6523 59.5459-92.7246Q58.6426-91.7969 58.6426-90.332ZM78.8574-83.7891L85.4492-83.7891L85.4492-90.332Q85.4492-91.7969 84.5459-92.7246Q83.6426-93.6523 82.1777-93.6523Q80.7129-93.6523 79.7852-92.7246Q78.8574-91.7969 78.8574-90.332ZM99.0723-83.7891L105.713-83.7891L105.713-90.332Q105.713-91.7969 104.785-92.7246Q103.857-93.6523 102.393-93.6523Q100.928-93.6523 100-92.7246Q99.0723-91.7969 99.0723-90.332ZM119.287-83.7891L125.928-83.7891L125.928-90.332Q125.928-91.7969 125-92.7246Q124.072-93.6523 122.607-93.6523Q121.191-93.6523 120.239-92.7246Q119.287-91.7969 119.287-90.332ZM38.3789 13.5254L38.3789 20.0684Q38.3789 21.5332 39.3066 22.4609Q40.2344 23.3887 41.6992 23.3887Q43.1641 23.3887 44.0918 22.4609Q45.0195 21.5332 45.0195 20.0684L45.0195 13.5254ZM58.6426 13.5254L58.6426 20.0684Q58.6426 21.5332 59.5459 22.4609Q60.4492 23.3887 61.9629 23.3887Q63.3789 23.3887 64.3066 22.4609Q65.2344 21.5332 65.2344 20.0684L65.2344 13.5254ZM78.8574 13.5254L78.8574 20.0684Q78.8574 21.5332 79.7852 22.4609Q80.7129 23.3887 82.1777 23.3887Q83.6426 23.3887 84.5459 22.4609Q85.4492 21.5332 85.4492 20.0684L85.4492 13.5254ZM99.0723 13.5254L99.0723 20.0684Q99.0723 21.5332 100 22.4609Q100.928 23.3887 102.393 23.3887Q103.857 23.3887 104.785 22.4609Q105.713 21.5332 105.713 20.0684L105.713 13.5254ZM119.287 13.5254L119.287 20.0684Q119.287 21.5332 120.239 22.4609Q121.191 23.3887 122.607 23.3887Q124.072 23.3887 125 22.4609Q125.928 21.5332 125.928 20.0684L125.928 13.5254Z"/>
  </g>
  <g id="Thin-L" transform="matrix(1 0 0 1 775.343 1556)">
   <path d="M32.666 6.49414L129.492 6.49414Q137.695 6.49414 141.895 2.19727Q146.094-2.09961 146.094-10.1074L146.094-60.1562Q146.094-68.1641 141.895-72.4365Q137.695-76.709 129.492-76.709L32.666-76.709Q24.5117-76.709 20.2881-72.4854Q16.0645-68.2617 16.0645-60.1562L16.0645-10.1074Q16.0645-1.95312 20.2881 2.27051Q24.5117 6.49414 32.666 6.49414ZM38.8672-81.9336L42.7734-81.9336L42.7734-88.8672Q42.7734-89.7461 42.2119-90.3076Q41.6504-90.8691 40.8203-90.8691Q39.9902-90.8691 39.4287-90.3076Q38.8672-89.7461 38.8672-88.8672ZM58.9844-81.9336L62.8906-81.9336L62.8906-88.8672Q62.8906-89.7461 62.3291-90.3076Q61.7676-90.8691 60.9863-90.8691Q60.1074-90.8691 59.5459-90.3076Q58.9844-89.7461 58.9844-88.8672ZM79.1016-81.9336L83.0566-81.9336L83.0566-88.8672Q83.0566-89.7461 82.4951-90.3076Q81.9336-90.8691 81.1035-90.8691Q80.2246-90.8691 79.6631-90.3076Q79.1016-89.7461 79.1016-88.8672ZM99.2676-81.9336L103.174-81.9336L103.174-88.8672Q103.174-89.7461 102.612-90.3076Q102.051-90.8691 101.221-90.8691Q100.391-90.8691 99.8291-90.3076Q99.2676-89.7461 99.2676-88.8672ZM119.385-81.9336L123.34-81.9336L123.34-88.8672Q123.34-89.7461 122.754-90.3076Q122.168-90.8691 121.338-90.8691Q120.508-90.8691 119.946-90.3076Q119.385-89.7461 119.385-88.8672ZM38.8672 11.6699L38.8672 18.6523Q38.8672 19.4824 39.4287 20.0439Q39.9902 20.6055 40.8203 20.6055Q41.6504 20.6055 42.2119 20.0439Q42.7734 19.4824 42.7734 18.6523L42.7734 11.6699ZM58.9844 11.6699L58.9844 18.6523Q58.9844 19.4824 59.5459 20.0439Q60.1074 20.6055 60.9863 20.6055Q61.7676 20.6055 62.3291 20.0439Q62.8906 19.4824 62.8906 18.6523L62.8906 11.6699ZM79.1016 11.6699L79.1016 18.6523Q79.1016 19.4824 79.6631 20.0439Q80.2246 20.6055 81.1035 20.6055Q81.9336 20.6055 82.4951 20.0439Q83.0566 19.4824 83.0566 18.6523L83.0566 11.6699ZM99.2676 11.6699L99.2676 18.6523Q99.2676 19.4824 99.8291 20.0439Q100.391 20.6055 101.221 20.6055Q102.051 20.6055 102.612 20.0439Q103.174 19.4824 103.174 18.6523L103.174 11.6699ZM119.385 11.6699L119.385 18.6523Q119.385 19.4824 119.946 20.0439Q120.508 20.6055 121.338 20.6055Q122.168 20.6055 122.754 20.0439Q123.34 19.4824 123.34 18.6523L123.34 11.6699Z"/>
  </g>
  <g id="Ultralight-L" transform="matrix(1 0 0 1 479.169 1556)">
   <path d="M31.9824 6.29883L129.102 6.29883Q136.865 6.29883 140.942 2.14844Q145.02-2.00195 145.02-9.61914L145.02-60.5957Q145.02-68.2617 140.942-72.3877Q136.865-76.5137 129.102-76.5137L31.9824-76.5137Q24.1699-76.5137 20.1172-72.4365Q16.0645-68.3594 16.0645-60.5957L16.0645-9.61914Q16.0645-1.85547 20.1172 2.22168Q24.1699 6.29883 31.9824 6.29883ZM39.0625-81.0059L41.6504-81.0059L41.6504-88.1348Q41.6504-88.6719 41.2598-89.0625Q40.8691-89.4531 40.3809-89.4531Q39.8926-89.4531 39.4775-89.0625Q39.0625-88.6719 39.0625-88.1348ZM59.1797-81.0059L61.7188-81.0059L61.7188-88.1348Q61.7188-88.6719 61.3525-89.0625Q60.9863-89.4531 60.4492-89.4531Q59.9121-89.4531 59.5459-89.0625Q59.1797-88.6719 59.1797-88.1348ZM79.248-81.0059L81.7871-81.0059L81.7871-88.1348Q81.7871-88.6719 81.4209-89.0625Q81.0547-89.4531 80.5664-89.4531Q80.0293-89.4531 79.6387-89.0625Q79.248-88.6719 79.248-88.1348ZM99.3164-81.0059L101.904-81.0059L101.904-88.1348Q101.904-88.6719 101.514-89.0625Q101.123-89.4531 100.635-89.4531Q100.098-89.4531 99.707-89.0625Q99.3164-88.6719 99.3164-88.1348ZM119.434-81.0059L121.973-81.0059L121.973-88.1348Q121.973-88.6719 121.606-89.0625Q121.24-89.4531 120.654-89.4531Q120.166-89.4531 119.8-89.0625Q119.434-88.6719 119.434-88.1348ZM39.0625 10.7422L39.0625 17.9688Q39.0625 18.457 39.4775 18.8477Q39.8926 19.2383 40.3809 19.2383Q40.8691 19.2383 41.2598 18.8477Q41.6504 18.457 41.6504 17.9688L41.6504 10.7422ZM59.1797 10.7422L59.1797 17.9688Q59.1797 18.457 59.5459 18.8477Q59.9121 19.2383 60.4492 19.2383Q60.9863 19.2383 61.3525 18.8477Q61.7188 18.457 61.7188 17.9688L61.7188 10.7422ZM79.248 10.7422L79.248 17.9688Q79.248 18.457 79.6387 18.8477Q80.0293 19.2383 80.5664 19.2383Q81.0547 19.2383 81.4209 18.8477Q81.7871 18.457 81.7871 17.9688L81.7871 10.7422ZM99.3164 10.7422L99.3164 17.9688Q99.3164 18.457 99.707 18.8477Q100.098 19.2383 100.635 19.2383Q101.123 19.2383 101.514 18.8477Q101.904 18.457 101.904 17.9688L101.904 10.7422ZM119.434 10.7422L119.434 17.9688Q119.434 18.457 119.8 18.8477Q120.166 19.2383 120.654 19.2383Q121.24 19.2383 121.606 18.8477Q121.973 18.457 121.973 17.9688L121.973 10.7422Z"/>
  </g>
  <g id="Black-M" transform="matrix(1 0 0 1 2868.09 1126)">
   <path d="M31.5918 0.732422L99.0234 0.732422Q108.057 0.732422 113.11-4.29688Q118.164-9.32617 118.164-18.4082L118.164-52.002Q118.164-61.084 113.11-66.1133Q108.057-71.1426 99.0234-71.1426L31.5918-71.1426Q22.5586-71.1426 17.5049-66.1133Q12.4512-61.084 12.4512-52.002L12.4512-18.4082Q12.4512-9.32617 17.5049-4.29688Q22.5586 0.732422 31.5918 0.732422ZM27.2461-78.6133L38.6719-78.6133L38.6719-84.2285Q38.6719-86.6211 36.9873-88.2812Q35.3027-89.9414 32.959-89.9414Q30.6152-89.9414 28.9307-88.2812Q27.2461-86.6211 27.2461-84.2285ZM43.457-78.6133L54.834-78.6133L54.834-84.2285Q54.834-86.6211 53.1738-88.2812Q51.5137-89.9414 49.1211-89.9414Q46.7773-89.9414 45.1172-88.2812Q43.457-86.6211 43.457-84.2285ZM59.6191-78.6133L70.9961-78.6133L70.9961-84.2285Q70.9961-86.6211 69.3359-88.2812Q67.6758-89.9414 65.2832-89.9414Q62.9395-89.9414 61.2793-88.2812Q59.6191-86.6211 59.6191-84.2285ZM75.7812-78.6133L87.1582-78.6133L87.1582-84.2285Q87.1582-86.6211 85.498-88.2812Q83.8379-89.9414 81.4941-89.9414Q79.1016-89.9414 77.4414-88.2812Q75.7812-86.6211 75.7812-84.2285ZM91.9434-78.6133L103.369-78.6133L103.369-84.2285Q103.369-86.6211 101.685-88.2812Q100-89.9414 97.6562-89.9414Q95.3125-89.9414 93.6279-88.2812Q91.9434-86.6211 91.9434-84.2285ZM27.2461 8.25195L27.2461 13.8672Q27.2461 16.2109 28.9307 17.8711Q30.6152 19.5312 32.959 19.5312Q35.3027 19.5312 36.9873 17.8711Q38.6719 16.2109 38.6719 13.8672L38.6719 8.25195ZM43.457 8.25195L43.457 13.8672Q43.457 16.2109 45.1172 17.8711Q46.7773 19.5312 49.1211 19.5312Q51.5137 19.5312 53.1738 17.8711Q54.834 16.2109 54.834 13.8672L54.834 8.25195ZM59.6191 8.25195L59.6191 13.8672Q59.6191 16.2109 61.2793 17.8711Q62.9395 19.5312 65.2832 19.5312Q67.6758 19.5312 69.3359 17.8711Q70.9961 16.2109 70.9961 13.8672L70.9961 8.25195ZM75.7812 8.25195L75.7812 13.8672Q75.7812 16.2109 77.4414 17.8711Q79.1016 19.5312 81.4941 19.5312Q83.8379 19.5312 85.498 17.8711Q87.1582 16.2109 87.1582 13.8672L87.1582 8.25195ZM91.9434 8.25195L91.9434 13.8672Q91.9434 16.2109 93.6279 17.8711Q95.3125 19.5312 97.6562 19.5312Q100 19.5312 101.685 17.8711Q103.369 16.2109 103.369 13.8672L103.369 8.25195Z"/>
  </g>
  <g id="Heavy-M" transform="matrix(1 0 0 1 2571.5 1126)">
   <path d="M30.7129 0L99.6582 0Q108.398 0 113.159-4.73633Q117.92-9.47266 117.92-18.1641L117.92-52.1973Q117.92-60.9375 113.159-65.6738Q108.398-70.4102 99.6582-70.4102L30.7129-70.4102Q21.9727-70.4102 17.2119-65.6738Q12.4512-60.9375 12.4512-52.1973L12.4512-18.1641Q12.4512-9.47266 17.2119-4.73633Q21.9727 0 30.7129 0ZM27.7344-77.6855L38.3301-77.6855L38.3301-83.1055Q38.3301-85.3516 36.7676-86.8652Q35.2051-88.3789 33.0078-88.3789Q30.8105-88.3789 29.2725-86.8652Q27.7344-85.3516 27.7344-83.1055ZM43.8477-77.6855L54.3945-77.6855L54.3945-83.1055Q54.3945-85.3516 52.8564-86.8652Q51.3184-88.3789 49.0723-88.3789Q46.875-88.3789 45.3613-86.8652Q43.8477-85.3516 43.8477-83.1055ZM59.9121-77.6855L70.459-77.6855L70.459-83.1055Q70.459-85.3516 68.9209-86.8652Q67.3828-88.3789 65.1367-88.3789Q62.9395-88.3789 61.4258-86.8652Q59.9121-85.3516 59.9121-83.1055ZM75.9766-77.6855L86.5234-77.6855L86.5234-83.1055Q86.5234-85.3516 85.0098-86.8652Q83.4961-88.3789 81.2988-88.3789Q79.0527-88.3789 77.5146-86.8652Q75.9766-85.3516 75.9766-83.1055ZM92.041-77.6855L102.637-77.6855L102.637-83.1055Q102.637-85.3516 101.099-86.8652Q99.5605-88.3789 97.3633-88.3789Q95.1172-88.3789 93.5791-86.8652Q92.041-85.3516 92.041-83.1055ZM27.7344 7.32422L27.7344 12.7441Q27.7344 14.9414 29.2725 16.4551Q30.8105 17.9688 33.0078 17.9688Q35.2051 17.9688 36.7676 16.4551Q38.3301 14.9414 38.3301 12.7441L38.3301 7.32422ZM43.8477 7.32422L43.8477 12.7441Q43.8477 14.9414 45.3613 16.4551Q46.875 17.9688 49.0723 17.9688Q51.3184 17.9688 52.8564 16.4551Q54.3945 14.9414 54.3945 12.7441L54.3945 7.32422ZM59.9121 7.32422L59.9121 12.7441Q59.9121 14.9414 61.4258 16.4551Q62.9395 17.9688 65.1367 17.9688Q67.3828 17.9688 68.9209 16.4551Q70.459 14.9414 70.459 12.7441L70.459 7.32422ZM75.9766 7.32422L75.9766 12.7441Q75.9766 14.9414 77.5146 16.4551Q79.0527 17.9688 81.2988 17.9688Q83.4961 17.9688 85.0098 16.4551Q86.5234 14.9414 86.5234 12.7441L86.5234 7.32422ZM92.041 7.32422L92.041 12.7441Q92.041 14.9414 93.5791 16.4551Q95.1172 17.9688 97.3633 17.9688Q99.5605 17.9688 101.099 16.4551Q102.637 14.9414 102.637 12.7441L102.637 7.32422Z"/>
  </g>
  <g id="Bold-M" transform="matrix(1 0 0 1 2274.94 1126)">
   <path d="M29.6875-0.78125L100.391-0.78125Q108.74-0.78125 113.184-5.2002Q117.627-9.61914 117.627-17.9199L117.627-52.4902Q117.627-60.791 113.184-65.21Q108.74-69.6289 100.391-69.6289L29.6875-69.6289Q21.3379-69.6289 16.8945-65.21Q12.4512-60.791 12.4512-52.4902L12.4512-17.9199Q12.4512-9.61914 16.8945-5.2002Q21.3379-0.78125 29.6875-0.78125ZM28.2715-76.709L37.9395-76.709L37.9395-81.8359Q37.9395-83.8867 36.5479-85.2783Q35.1562-86.6699 33.1055-86.6699Q31.0547-86.6699 29.6631-85.2783Q28.2715-83.8867 28.2715-81.8359ZM44.2871-76.709L53.9062-76.709L53.9062-81.8359Q53.9062-83.8867 52.5146-85.2783Q51.123-86.6699 49.0723-86.6699Q47.0215-86.6699 45.6543-85.2783Q44.2871-83.8867 44.2871-81.8359ZM60.2539-76.709L69.873-76.709L69.873-81.8359Q69.873-83.8867 68.4814-85.2783Q67.0898-86.6699 65.0391-86.6699Q62.9883-86.6699 61.6211-85.2783Q60.2539-83.8867 60.2539-81.8359ZM76.2207-76.709L85.8398-76.709L85.8398-81.8359Q85.8398-83.8867 84.4727-85.2783Q83.1055-86.6699 81.0547-86.6699Q78.9551-86.6699 77.5879-85.2783Q76.2207-83.8867 76.2207-81.8359ZM92.1875-76.709L101.807-76.709L101.807-81.8359Q101.807-83.8867 100.439-85.2783Q99.0723-86.6699 97.0215-86.6699Q94.9707-86.6699 93.5791-85.2783Q92.1875-83.8867 92.1875-81.8359ZM28.2715 6.34766L28.2715 11.4746Q28.2715 13.5254 29.6631 14.8926Q31.0547 16.2598 33.1055 16.2598Q35.1562 16.2598 36.5479 14.8926Q37.9395 13.5254 37.9395 11.4746L37.9395 6.34766ZM44.2871 6.34766L44.2871 11.4746Q44.2871 13.5254 45.6543 14.8926Q47.0215 16.2598 49.0723 16.2598Q51.123 16.2598 52.5146 14.8926Q53.9062 13.5254 53.9062 11.4746L53.9062 6.34766ZM60.2539 6.34766L60.2539 11.4746Q60.2539 13.5254 61.6211 14.8926Q62.9883 16.2598 65.0391 16.2598Q67.0898 16.2598 68.4814 14.8926Q69.873 13.5254 69.873 11.4746L69.873 6.34766ZM76.2207 6.34766L76.2207 11.4746Q76.2207 13.5254 77.5879 14.8926Q78.9551 16.2598 81.0547 16.2598Q83.1055 16.2598 84.4727 14.8926Q85.8398 13.5254 85.8398 11.4746L85.8398 6.34766ZM92.1875 6.34766L92.1875 11.4746Q92.1875 13.5254 93.5791 14.8926Q94.9707 16.2598 97.0215 16.2598Q99.0723 16.2598 100.439 14.8926Q101.807 13.5254 101.807 11.4746L101.807 6.34766Z"/>
  </g>
  <g id="Semibold-M" transform="matrix(1 0 0 1 1978.33 1126)">
   <path d="M29.0039-1.31836L100.879-1.31836Q108.984-1.31836 113.208-5.51758Q117.432-9.7168 117.432-17.7246L117.432-52.6367Q117.432-60.6934 113.208-64.8682Q108.984-69.043 100.879-69.043L29.0039-69.043Q20.8984-69.043 16.6748-64.8682Q12.4512-60.6934 12.4512-52.6367L12.4512-17.7246Q12.4512-9.7168 16.6748-5.51758Q20.8984-1.31836 29.0039-1.31836ZM28.6621-75.9766L37.6465-75.9766L37.6465-80.9082Q37.6465-82.9102 36.3525-84.1797Q35.0586-85.4492 33.1055-85.4492Q31.2012-85.4492 29.9316-84.1797Q28.6621-82.9102 28.6621-80.9082ZM44.5801-75.9766L53.5156-75.9766L53.5156-80.9082Q53.5156-82.9102 52.2461-84.1797Q50.9766-85.4492 49.0234-85.4492Q47.0703-85.4492 45.8252-84.1797Q44.5801-82.9102 44.5801-80.9082ZM60.4492-75.9766L69.4336-75.9766L69.4336-80.9082Q69.4336-82.9102 68.1641-84.1797Q66.8945-85.4492 64.8926-85.4492Q62.9883-85.4492 61.7188-84.1797Q60.4492-82.9102 60.4492-80.9082ZM76.3672-75.9766L85.3027-75.9766L85.3027-80.9082Q85.3027-82.9102 84.0576-84.1797Q82.8125-85.4492 80.8594-85.4492Q78.9062-85.4492 77.6367-84.1797Q76.3672-82.9102 76.3672-80.9082ZM92.2363-75.9766L101.221-75.9766L101.221-80.9082Q101.221-82.9102 99.9512-84.1797Q98.6816-85.4492 96.7773-85.4492Q94.8242-85.4492 93.5303-84.1797Q92.2363-82.9102 92.2363-80.9082ZM28.6621 5.61523L28.6621 10.5469Q28.6621 12.5 29.9316 13.7695Q31.2012 15.0391 33.1055 15.0391Q35.0586 15.0391 36.3525 13.7695Q37.6465 12.5 37.6465 10.5469L37.6465 5.61523ZM44.5801 5.61523L44.5801 10.5469Q44.5801 12.5 45.8252 13.7695Q47.0703 15.0391 49.0234 15.0391Q50.9766 15.0391 52.2461 13.7695Q53.5156 12.5 53.5156 10.5469L53.5156 5.61523ZM60.4492 5.61523L60.4492 10.5469Q60.4492 12.5 61.7188 13.7695Q62.9883 15.0391 64.8926 15.0391Q66.8945 15.0391 68.1641 13.7695Q69.4336 12.5 69.4336 10.5469L69.4336 5.61523ZM76.3672 5.61523L76.3672 10.5469Q76.3672 12.5 77.6367 13.7695Q78.9062 15.0391 80.8594 15.0391Q82.8125 15.0391 84.0576 13.7695Q85.3027 12.5 85.3027 10.5469L85.3027 5.61523ZM92.2363 5.61523L92.2363 10.5469Q92.2363 12.5 93.5303 13.7695Q94.8242 15.0391 96.7773 15.0391Q98.6816 15.0391 99.9512 13.7695Q101.221 12.5 101.221 10.5469L101.221 5.61523Z"/>
  </g>
  <g id="Medium-M" transform="matrix(1 0 0 1 1681.69 1126)">
   <path d="M28.4668-1.75781L101.27-1.75781Q109.18-1.75781 113.232-5.76172Q117.285-9.76562 117.285-17.627L117.285-52.7832Q117.285-60.5957 113.232-64.5996Q109.18-68.6035 101.27-68.6035L28.4668-68.6035Q20.5566-68.6035 16.5039-64.5996Q12.4512-60.5957 12.4512-52.7832L12.4512-17.627Q12.4512-9.76562 16.5039-5.76172Q20.5566-1.75781 28.4668-1.75781ZM28.9062-75.4395L37.4512-75.4395L37.4512-80.2734Q37.4512-82.1289 36.2305-83.3252Q35.0098-84.5215 33.1543-84.5215Q31.2988-84.5215 30.1025-83.3252Q28.9062-82.1289 28.9062-80.2734ZM44.7754-75.4395L53.2715-75.4395L53.2715-80.2734Q53.2715-82.1289 52.0752-83.3252Q50.8789-84.5215 49.0234-84.5215Q47.1191-84.5215 45.9473-83.3252Q44.7754-82.1289 44.7754-80.2734ZM60.6445-75.4395L69.0918-75.4395L69.0918-80.2734Q69.0918-82.1289 67.8955-83.3252Q66.6992-84.5215 64.8438-84.5215Q62.9883-84.5215 61.8164-83.3252Q60.6445-82.1289 60.6445-80.2734ZM76.4648-75.4395L84.9609-75.4395L84.9609-80.2734Q84.9609-82.1289 83.7891-83.3252Q82.6172-84.5215 80.7129-84.5215Q78.8574-84.5215 77.6611-83.3252Q76.4648-82.1289 76.4648-80.2734ZM92.2852-75.4395L100.83-75.4395L100.83-80.2734Q100.83-82.1289 99.6338-83.3252Q98.4375-84.5215 96.582-84.5215Q94.7266-84.5215 93.5059-83.3252Q92.2852-82.1289 92.2852-80.2734ZM28.9062 5.07812L28.9062 9.91211Q28.9062 11.7676 30.1025 12.9395Q31.2988 14.1113 33.1543 14.1113Q35.0098 14.1113 36.2305 12.9395Q37.4512 11.7676 37.4512 9.91211L37.4512 5.07812ZM44.7754 5.07812L44.7754 9.91211Q44.7754 11.7676 45.9473 12.9395Q47.1191 14.1113 49.0234 14.1113Q50.8789 14.1113 52.0752 12.9395Q53.2715 11.7676 53.2715 9.91211L53.2715 5.07812ZM60.6445 5.07812L60.6445 9.91211Q60.6445 11.7676 61.8164 12.9395Q62.9883 14.1113 64.8438 14.1113Q66.6992 14.1113 67.8955 12.9395Q69.0918 11.7676 69.0918 9.91211L69.0918 5.07812ZM76.4648 5.07812L76.4648 9.91211Q76.4648 11.7676 77.6611 12.9395Q78.8574 14.1113 80.7129 14.1113Q82.6172 14.1113 83.7891 12.9395Q84.9609 11.7676 84.9609 9.91211L84.9609 5.07812ZM92.2852 5.07812L92.2852 9.91211Q92.2852 11.7676 93.5059 12.9395Q94.7266 14.1113 96.582 14.1113Q98.4375 14.1113 99.6338 12.9395Q100.83 11.7676 100.83 9.91211L100.83 5.07812Z"/>
  </g>
  <g id="Regular-M" transform="matrix(1 0 0 1 1385.07 1126)">
   <path d="M27.7832-2.29492L101.758-2.29492Q109.424-2.29492 113.257-6.0791Q117.09-9.86328 117.09-17.4316L117.09-52.9297Q117.09-60.498 113.257-64.2822Q109.424-68.0664 101.758-68.0664L27.7832-68.0664Q20.1172-68.0664 16.2842-64.2822Q12.4512-60.498 12.4512-52.9297L12.4512-17.4316Q12.4512-9.86328 16.2842-6.0791Q20.1172-2.29492 27.7832-2.29492ZM29.2969-74.7559L37.1582-74.7559L37.1582-79.3945Q37.1582-81.1523 36.0596-82.251Q34.9609-83.3496 33.2031-83.3496Q31.4453-83.3496 30.3711-82.251Q29.2969-81.1523 29.2969-79.3945ZM45.0684-74.7559L52.9297-74.7559L52.9297-79.3945Q52.9297-81.1523 51.8311-82.251Q50.7324-83.3496 48.9746-83.3496Q47.2168-83.3496 46.1426-82.251Q45.0684-81.1523 45.0684-79.3945ZM60.8398-74.7559L68.7012-74.7559L68.7012-79.3945Q68.7012-81.1523 67.6025-82.251Q66.5039-83.3496 64.7461-83.3496Q62.9883-83.3496 61.9141-82.251Q60.8398-81.1523 60.8398-79.3945ZM76.6113-74.7559L84.4727-74.7559L84.4727-79.3945Q84.4727-81.1523 83.3984-82.251Q82.3242-83.3496 80.5664-83.3496Q78.8086-83.3496 77.71-82.251Q76.6113-81.1523 76.6113-79.3945ZM92.3828-74.7559L100.244-74.7559L100.244-79.3945Q100.244-81.1523 99.1699-82.251Q98.0957-83.3496 96.3379-83.3496Q94.5801-83.3496 93.4814-82.251Q92.3828-81.1523 92.3828-79.3945ZM29.2969 4.39453L29.2969 9.0332Q29.2969 10.791 30.3711 11.8652Q31.4453 12.9395 33.2031 12.9395Q34.9609 12.9395 36.0596 11.8652Q37.1582 10.791 37.1582 9.0332L37.1582 4.39453ZM45.0684 4.39453L45.0684 9.0332Q45.0684 10.791 46.1426 11.8652Q47.2168 12.9395 48.9746 12.9395Q50.7324 12.9395 51.8311 11.8652Q52.9297 10.791 52.9297 9.0332L52.9297 4.39453ZM60.8398 4.39453L60.8398 9.0332Q60.8398 10.791 61.9141 11.8652Q62.9883 12.9395 64.7461 12.9395Q66.5039 12.9395 67.6025 11.8652Q68.7012 10.791 68.7012 9.0332L68.7012 4.39453ZM76.6113 4.39453L76.6113 9.0332Q76.6113 10.791 77.71 11.8652Q78.8086 12.9395 80.5664 12.9395Q82.3242 12.9395 83.3984 11.8652Q84.4727 10.791 84.4727 9.0332L84.4727 4.39453ZM92.3828 4.39453L92.3828 9.0332Q92.3828 10.791 93.4814 11.8652Q94.5801 12.9395 96.3379 12.9395Q98.0957 12.9395 99.1699 11.8652Q100.244 10.791 100.244 9.0332L100.244 4.39453Z"/>
  </g>
  <g id="Light-M" transform="matrix(1 0 0 1 1089.1 1126)">
   <path d="M26.8555-2.53906L101.221-2.53906Q108.398-2.53906 112.012-6.15234Q115.625-9.76562 115.625-16.7969L115.625-53.5156Q115.625-60.5957 112.012-64.209Q108.398-67.8223 101.221-67.8223L26.8555-67.8223Q19.6777-67.8223 16.0645-64.209Q12.4512-60.5957 12.4512-53.5156L12.4512-16.7969Q12.4512-9.7168 16.0645-6.12793Q19.6777-2.53906 26.8555-2.53906ZM29.6387-73.4863L35.6445-73.4863L35.6445-78.418Q35.6445-79.7363 34.79-80.5908Q33.9355-81.4453 32.6172-81.4453Q31.2988-81.4453 30.4688-80.5908Q29.6387-79.7363 29.6387-78.418ZM45.3125-73.4863L51.3672-73.4863L51.3672-78.418Q51.3672-79.7363 50.5127-80.5908Q49.6582-81.4453 48.3398-81.4453Q46.9727-81.4453 46.1426-80.5908Q45.3125-79.7363 45.3125-78.418ZM61.0352-73.4863L67.0898-73.4863L67.0898-78.418Q67.0898-79.7363 66.2109-80.5908Q65.332-81.4453 64.0137-81.4453Q62.6953-81.4453 61.8652-80.5908Q61.0352-79.7363 61.0352-78.418ZM76.709-73.4863L82.7637-73.4863L82.7637-78.418Q82.7637-79.7363 81.9336-80.5908Q81.1035-81.4453 79.7852-81.4453Q78.418-81.4453 77.5635-80.5908Q76.709-79.7363 76.709-78.418ZM92.4316-73.4863L98.4863-73.4863L98.4863-78.418Q98.4863-79.7363 97.6562-80.5908Q96.8262-81.4453 95.459-81.4453Q94.1406-81.4453 93.2861-80.5908Q92.4316-79.7363 92.4316-78.418ZM29.6387 3.17383L29.6387 8.10547Q29.6387 9.42383 30.4688 10.2539Q31.2988 11.084 32.6172 11.084Q33.9355 11.084 34.79 10.2539Q35.6445 9.42383 35.6445 8.10547L35.6445 3.17383ZM45.3125 3.17383L45.3125 8.10547Q45.3125 9.42383 46.1426 10.2539Q46.9727 11.084 48.3398 11.084Q49.6582 11.084 50.5127 10.2539Q51.3672 9.42383 51.3672 8.10547L51.3672 3.17383ZM61.0352 3.17383L61.0352 8.10547Q61.0352 9.42383 61.8652 10.2539Q62.6953 11.084 64.0137 11.084Q65.332 11.084 66.2109 10.2539Q67.0898 9.42383 67.0898 8.10547L67.0898 3.17383ZM76.709 3.17383L76.709 8.10547Q76.709 9.42383 77.5635 10.2539Q78.418 11.084 79.7852 11.084Q81.1035 11.084 81.9336 10.2539Q82.7637 9.42383 82.7637 8.10547L82.7637 3.17383ZM92.4316 3.17383L92.4316 8.10547Q92.4316 9.42383 93.2861 10.2539Q94.1406 11.084 95.459 11.084Q96.8262 11.084 97.6562 10.2539Q98.4863 9.42383 98.4863 8.10547L98.4863 3.17383Z"/>
  </g>
  <g id="Thin-M" transform="matrix(1 0 0 1 793.336 1126)">
   <path d="M25.5859-2.83203L100.537-2.83203Q107.031-2.83203 110.376-6.20117Q113.721-9.57031 113.721-15.9668L113.721-54.3457Q113.721-60.6934 110.376-64.0869Q107.031-67.4805 100.537-67.4805L25.5859-67.4805Q19.1406-67.4805 15.7959-64.1357Q12.4512-60.791 12.4512-54.3457L12.4512-15.9668Q12.4512-9.52148 15.7959-6.17676Q19.1406-2.83203 25.5859-2.83203ZM30.0293-71.8262L33.6426-71.8262L33.6426-77.0996Q33.6426-77.9297 33.1299-78.4424Q32.6172-78.9551 31.8359-78.9551Q31.0547-78.9551 30.542-78.4424Q30.0293-77.9297 30.0293-77.0996ZM45.6543-71.8262L49.2676-71.8262L49.2676-77.0996Q49.2676-77.9297 48.7549-78.4424Q48.2422-78.9551 47.4609-78.9551Q46.6309-78.9551 46.1426-78.4424Q45.6543-77.9297 45.6543-77.0996ZM61.2793-71.8262L64.8926-71.8262L64.8926-77.0996Q64.8926-77.9297 64.3555-78.4424Q63.8184-78.9551 63.0371-78.9551Q62.3047-78.9551 61.792-78.4424Q61.2793-77.9297 61.2793-77.0996ZM76.9043-71.8262L80.5176-71.8262L80.5176-77.0996Q80.5176-77.9297 80.0049-78.4424Q79.4922-78.9551 78.7109-78.9551Q77.9297-78.9551 77.417-78.4424Q76.9043-77.9297 76.9043-77.0996ZM92.4805-71.8262L96.1426-71.8262L96.1426-77.0996Q96.1426-77.9297 95.6299-78.4424Q95.1172-78.9551 94.3359-78.9551Q93.5547-78.9551 93.0176-78.4424Q92.4805-77.9297 92.4805-77.0996ZM30.0293 1.5625L30.0293 6.83594Q30.0293 7.61719 30.542 8.12988Q31.0547 8.64258 31.8359 8.64258Q32.6172 8.64258 33.1299 8.12988Q33.6426 7.61719 33.6426 6.83594L33.6426 1.5625ZM45.6543 1.5625L45.6543 6.83594Q45.6543 7.61719 46.1426 8.12988Q46.6309 8.64258 47.4609 8.64258Q48.2422 8.64258 48.7549 8.12988Q49.2676 7.61719 49.2676 6.83594L49.2676 1.5625ZM61.2793 1.5625L61.2793 6.83594Q61.2793 7.61719 61.792 8.12988Q62.3047 8.64258 63.0371 8.64258Q63.8184 8.64258 64.3555 8.12988Q64.8926 7.61719 64.8926 6.83594L64.8926 1.5625ZM76.9043 1.5625L76.9043 6.83594Q76.9043 7.61719 77.417 8.12988Q77.9297 8.64258 78.7109 8.64258Q79.4922 8.64258 80.0049 8.12988Q80.5176 7.61719 80.5176 6.83594L80.5176 1.5625ZM92.4805 1.5625L92.4805 6.83594Q92.4805 7.61719 93.0176 8.12988Q93.5547 8.64258 94.3359 8.64258Q95.1172 8.64258 95.6299 8.12988Q96.1426 7.61719 96.1426 6.83594L96.1426 1.5625Z"/>
  </g>
  <g id="Ultralight-M" transform="matrix(1 0 0 1 497.113 1126)">
   <path d="M24.9512-2.97852L100.146-2.97852Q106.348-2.97852 109.546-6.25Q112.744-9.52148 112.744-15.5273L112.744-54.7363Q112.744-60.791 109.546-64.0381Q106.348-67.2852 100.146-67.2852L24.9512-67.2852Q18.8477-67.2852 15.6494-64.0625Q12.4512-60.8398 12.4512-54.7363L12.4512-15.5273Q12.4512-9.42383 15.6494-6.20117Q18.8477-2.97852 24.9512-2.97852ZM30.2734-70.9961L32.6172-70.9961L32.6172-76.4648Q32.6172-76.9531 32.2754-77.3193Q31.9336-77.6855 31.4453-77.6855Q30.957-77.6855 30.6152-77.3193Q30.2734-76.9531 30.2734-76.4648ZM45.8008-70.9961L48.1934-70.9961L48.1934-76.4648Q48.1934-76.9531 47.8516-77.3193Q47.5098-77.6855 47.0215-77.6855Q46.4844-77.6855 46.1426-77.3193Q45.8008-76.9531 45.8008-76.4648ZM61.377-70.9961L63.8184-70.9961L63.8184-76.4648Q63.8184-76.9531 63.4277-77.3193Q63.0371-77.6855 62.5488-77.6855Q62.0605-77.6855 61.7188-77.3193Q61.377-76.9531 61.377-76.4648ZM76.9531-70.9961L79.3457-70.9961L79.3457-76.4648Q79.3457-76.9531 79.0039-77.3193Q78.6621-77.6855 78.1738-77.6855Q77.6855-77.6855 77.3193-77.3193Q76.9531-76.9531 76.9531-76.4648ZM92.5293-70.9961L94.9219-70.9961L94.9219-76.4648Q94.9219-76.9531 94.5801-77.3193Q94.2383-77.6855 93.75-77.6855Q93.2617-77.6855 92.8955-77.3193Q92.5293-76.9531 92.5293-76.4648ZM30.2734 0.732422L30.2734 6.20117Q30.2734 6.68945 30.6152 7.05566Q30.957 7.42188 31.4453 7.42188Q31.9336 7.42188 32.2754 7.05566Q32.6172 6.68945 32.6172 6.20117L32.6172 0.732422ZM45.8008 0.732422L45.8008 6.20117Q45.8008 6.68945 46.1426 7.05566Q46.4844 7.42188 47.0215 7.42188Q47.5098 7.42188 47.8516 7.05566Q48.1934 6.68945 48.1934 6.20117L48.1934 0.732422ZM61.377 0.732422L61.377 6.20117Q61.377 6.68945 61.7188 7.05566Q62.0605 7.42188 62.5488 7.42188Q63.0371 7.42188 63.4277 7.05566Q63.8184 6.68945 63.8184 6.20117L63.8184 0.732422ZM76.9531 0.732422L76.9531 6.20117Q76.9531 6.68945 77.3193 7.05566Q77.6855 7.42188 78.1738 7.42188Q78.6621 7.42188 79.0039 7.05566Q79.3457 6.68945 79.3457 6.20117L79.3457 0.732422ZM92.5293 0.732422L92.5293 6.20117Q92.5293 6.68945 92.8955 7.05566Q93.2617 7.42188 93.75 7.42188Q94.2383 7.42188 94.5801 7.05566Q94.9219 6.68945 94.9219 6.20117L94.9219 0.732422Z"/>
  </g>
  <g id="Black-S" transform="matrix(1 0 0 1 2882.23 696)">
   <path d="M25-6.83594L77.3438-6.83594Q84.5215-6.83594 88.5498-10.8643Q92.5781-14.8926 92.5781-22.0703L92.5781-48.3398Q92.5781-55.5176 88.5498-59.5459Q84.5215-63.5742 77.3438-63.5742L25-63.5742Q17.8223-63.5742 13.7939-59.5459Q9.76562-55.5176 9.76562-48.3398L9.76562-22.0703Q9.76562-14.8926 13.7939-10.8643Q17.8223-6.83594 25-6.83594ZM21.2402-69.4336L30.3223-69.4336L30.3223-73.9258Q30.3223-75.7812 28.9795-77.124Q27.6367-78.4668 25.7812-78.4668Q23.9258-78.4668 22.583-77.124Q21.2402-75.7812 21.2402-73.9258ZM33.9355-69.4336L43.0176-69.4336L43.0176-73.9258Q43.0176-75.7812 41.6748-77.124Q40.332-78.4668 38.4766-78.4668Q36.6211-78.4668 35.2783-77.124Q33.9355-75.7812 33.9355-73.9258ZM46.6309-69.4336L55.7129-69.4336L55.7129-73.9258Q55.7129-75.7812 54.3701-77.124Q53.0273-78.4668 51.1719-78.4668Q49.3164-78.4668 47.9736-77.124Q46.6309-75.7812 46.6309-73.9258ZM59.3262-69.4336L68.4082-69.4336L68.4082-73.9258Q68.4082-75.7812 67.0654-77.124Q65.7227-78.4668 63.8672-78.4668Q62.0117-78.4668 60.6689-77.124Q59.3262-75.7812 59.3262-73.9258ZM72.0215-69.4336L81.1035-69.4336L81.1035-73.9258Q81.1035-75.7812 79.7607-77.124Q78.418-78.4668 76.5625-78.4668Q74.707-78.4668 73.3643-77.124Q72.0215-75.7812 72.0215-73.9258ZM21.2402-0.976562L21.2402 3.51562Q21.2402 5.37109 22.583 6.71387Q23.9258 8.05664 25.7812 8.05664Q27.6367 8.05664 28.9795 6.71387Q30.3223 5.37109 30.3223 3.51562L30.3223-0.976562ZM33.9355-0.976562L33.9355 3.51562Q33.9355 5.37109 35.2783 6.71387Q36.6211 8.05664 38.4766 8.05664Q40.332 8.05664 41.6748 6.71387Q43.0176 5.37109 43.0176 3.51562L43.0176-0.976562ZM46.6309-0.976562L46.6309 3.51562Q46.6309 5.37109 47.9736 6.71387Q49.3164 8.05664 51.1719 8.05664Q53.0273 8.05664 54.3701 6.71387Q55.7129 5.37109 55.7129 3.51562L55.7129-0.976562ZM59.3262-0.976562L59.3262 3.51562Q59.3262 5.37109 60.6689 6.71387Q62.0117 8.05664 63.8672 8.05664Q65.7227 8.05664 67.0654 6.71387Q68.4082 5.37109 68.4082 3.51562L68.4082-0.976562ZM72.0215-0.976562L72.0215 3.51562Q72.0215 5.37109 73.3643 6.71387Q74.707 8.05664 76.5625 8.05664Q78.418 8.05664 79.7607 6.71387Q81.1035 5.37109 81.1035 3.51562L81.1035-0.976562Z"/>
  </g>
  <g id="Heavy-S" transform="matrix(1 0 0 1 2585.54 696)">
   <path d="M24.3652-7.42188L77.9785-7.42188Q84.9121-7.42188 88.7207-11.2305Q92.5293-15.0391 92.5293-21.9727L92.5293-48.4375Q92.5293-55.3711 88.7207-59.1797Q84.9121-62.9883 77.9785-62.9883L24.3652-62.9883Q17.3828-62.9883 13.5742-59.1797Q9.76562-55.3711 9.76562-48.4375L9.76562-21.9727Q9.76562-15.0391 13.5742-11.2305Q17.3828-7.42188 24.3652-7.42188ZM21.6309-68.7988L30.2246-68.7988L30.2246-73.0957Q30.2246-74.8535 28.9551-76.123Q27.6855-77.3926 25.9277-77.3926Q24.1211-77.3926 22.876-76.123Q21.6309-74.8535 21.6309-73.0957ZM34.2285-68.7988L42.8223-68.7988L42.8223-73.0957Q42.8223-74.8535 41.5771-76.123Q40.332-77.3926 38.5254-77.3926Q36.7188-77.3926 35.4736-76.123Q34.2285-74.8535 34.2285-73.0957ZM46.875-68.7988L55.4688-68.7988L55.4688-73.0957Q55.4688-74.8535 54.1992-76.123Q52.9297-77.3926 51.1719-77.3926Q49.3652-77.3926 48.1201-76.123Q46.875-74.8535 46.875-73.0957ZM59.4727-68.7988L68.0664-68.7988L68.0664-73.0957Q68.0664-74.8535 66.8213-76.123Q65.5762-77.3926 63.7695-77.3926Q62.0117-77.3926 60.7422-76.123Q59.4727-74.8535 59.4727-73.0957ZM72.1191-68.7988L80.7129-68.7988L80.7129-73.0957Q80.7129-74.8535 79.4678-76.123Q78.2227-77.3926 76.416-77.3926Q74.6094-77.3926 73.3643-76.123Q72.1191-74.8535 72.1191-73.0957ZM21.6309-1.61133L21.6309 2.68555Q21.6309 4.44336 22.876 5.71289Q24.1211 6.98242 25.9277 6.98242Q27.6855 6.98242 28.9551 5.71289Q30.2246 4.44336 30.2246 2.68555L30.2246-1.61133ZM34.2285-1.61133L34.2285 2.68555Q34.2285 4.44336 35.4736 5.71289Q36.7188 6.98242 38.5254 6.98242Q40.332 6.98242 41.5771 5.71289Q42.8223 4.44336 42.8223 2.68555L42.8223-1.61133ZM46.875-1.61133L46.875 2.68555Q46.875 4.44336 48.1201 5.71289Q49.3652 6.98242 51.1719 6.98242Q52.9297 6.98242 54.1992 5.71289Q55.4688 4.44336 55.4688 2.68555L55.4688-1.61133ZM59.4727-1.61133L59.4727 2.68555Q59.4727 4.44336 60.7422 5.71289Q62.0117 6.98242 63.7695 6.98242Q65.5762 6.98242 66.8213 5.71289Q68.0664 4.44336 68.0664 2.68555L68.0664-1.61133ZM72.1191-1.61133L72.1191 2.68555Q72.1191 4.44336 73.3643 5.71289Q74.6094 6.98242 76.416 6.98242Q78.2227 6.98242 79.4678 5.71289Q80.7129 4.44336 80.7129 2.68555L80.7129-1.61133Z"/>
  </g>
  <g id="Bold-S" transform="matrix(1 0 0 1 2288.83 696)">
   <path d="M23.6328-8.10547L78.6621-8.10547Q85.4004-8.10547 88.9648-11.6455Q92.5293-15.1855 92.5293-21.8262L92.5293-48.584Q92.5293-55.2734 88.9648-58.8135Q85.4004-62.3535 78.6621-62.3535L23.6328-62.3535Q16.9434-62.3535 13.3545-58.8135Q9.76562-55.2734 9.76562-48.584L9.76562-21.8262Q9.76562-15.1855 13.3545-11.6455Q16.9434-8.10547 23.6328-8.10547ZM22.0215-68.1152L30.0781-68.1152L30.0781-72.1191Q30.0781-73.8281 28.9307-75Q27.7832-76.1719 26.0742-76.1719Q24.3652-76.1719 23.1934-75Q22.0215-73.8281 22.0215-72.1191ZM34.5703-68.1152L42.627-68.1152L42.627-72.1191Q42.627-73.8281 41.4795-75Q40.332-76.1719 38.623-76.1719Q36.8652-76.1719 35.7178-75Q34.5703-73.8281 34.5703-72.1191ZM47.1191-68.1152L55.1758-68.1152L55.1758-72.1191Q55.1758-73.8281 54.0283-75Q52.8809-76.1719 51.1719-76.1719Q49.4141-76.1719 48.2666-75Q47.1191-73.8281 47.1191-72.1191ZM59.668-68.1152L67.7246-68.1152L67.7246-72.1191Q67.7246-73.8281 66.5771-75Q65.4297-76.1719 63.6719-76.1719Q61.9629-76.1719 60.8154-75Q59.668-73.8281 59.668-72.1191ZM72.2168-68.1152L80.2734-68.1152L80.2734-72.1191Q80.2734-73.8281 79.126-75Q77.9785-76.1719 76.2207-76.1719Q74.5117-76.1719 73.3643-75Q72.2168-73.8281 72.2168-72.1191ZM22.0215-2.29492L22.0215 1.70898Q22.0215 3.41797 23.1934 4.58984Q24.3652 5.76172 26.0742 5.76172Q27.7832 5.76172 28.9307 4.58984Q30.0781 3.41797 30.0781 1.70898L30.0781-2.29492ZM34.5703-2.29492L34.5703 1.70898Q34.5703 3.41797 35.7178 4.58984Q36.8652 5.76172 38.623 5.76172Q40.332 5.76172 41.4795 4.58984Q42.627 3.41797 42.627 1.70898L42.627-2.29492ZM47.1191-2.29492L47.1191 1.70898Q47.1191 3.41797 48.2666 4.58984Q49.4141 5.76172 51.1719 5.76172Q52.8809 5.76172 54.0283 4.58984Q55.1758 3.41797 55.1758 1.70898L55.1758-2.29492ZM59.668-2.29492L59.668 1.70898Q59.668 3.41797 60.8154 4.58984Q61.9629 5.76172 63.6719 5.76172Q65.4297 5.76172 66.5771 4.58984Q67.7246 3.41797 67.7246 1.70898L67.7246-2.29492ZM72.2168-2.29492L72.2168 1.70898Q72.2168 3.41797 73.3643 4.58984Q74.5117 5.76172 76.2207 5.76172Q77.9785 5.76172 79.126 4.58984Q80.2734 3.41797 80.2734 1.70898L80.2734-2.29492Z"/>
  </g>
  <g id="Semibold-S" transform="matrix(1 0 0 1 1992.14 696)">
   <path d="M23.0957-8.54492L79.1504-8.54492Q85.6934-8.54492 89.0869-11.9141Q92.4805-15.2832 92.4805-21.7285L92.4805-48.6816Q92.4805-55.127 89.0869-58.4961Q85.6934-61.8652 79.1504-61.8652L23.0957-61.8652Q16.6016-61.8652 13.1836-58.4961Q9.76562-55.127 9.76562-48.6816L9.76562-21.7285Q9.76562-15.2832 13.1836-11.9141Q16.6016-8.54492 23.0957-8.54492ZM22.3145-67.627L29.9805-67.627L29.9805-71.4844Q29.9805-73.0957 28.9062-74.1943Q27.832-75.293 26.1719-75.293Q24.5117-75.293 23.4131-74.1943Q22.3145-73.0957 22.3145-71.4844ZM34.8145-67.627L42.4805-67.627L42.4805-71.4844Q42.4805-73.0957 41.3818-74.1943Q40.2832-75.293 38.623-75.293Q36.9629-75.293 35.8887-74.1943Q34.8145-73.0957 34.8145-71.4844ZM47.3145-67.627L54.9805-67.627L54.9805-71.4844Q54.9805-73.0957 53.8818-74.1943Q52.7832-75.293 51.123-75.293Q49.4629-75.293 48.3887-74.1943Q47.3145-73.0957 47.3145-71.4844ZM59.7656-67.627L67.4805-67.627L67.4805-71.4844Q67.4805-73.0957 66.3818-74.1943Q65.2832-75.293 63.623-75.293Q61.9629-75.293 60.8643-74.1943Q59.7656-73.0957 59.7656-71.4844ZM72.2656-67.627L79.9316-67.627L79.9316-71.4844Q79.9316-73.0957 78.8574-74.1943Q77.7832-75.293 76.0742-75.293Q74.4629-75.293 73.3643-74.1943Q72.2656-73.0957 72.2656-71.4844ZM22.3145-2.7832L22.3145 1.07422Q22.3145 2.68555 23.4131 3.78418Q24.5117 4.88281 26.1719 4.88281Q27.832 4.88281 28.9062 3.78418Q29.9805 2.68555 29.9805 1.07422L29.9805-2.7832ZM34.8145-2.7832L34.8145 1.07422Q34.8145 2.68555 35.8887 3.78418Q36.9629 4.88281 38.623 4.88281Q40.2832 4.88281 41.3818 3.78418Q42.4805 2.68555 42.4805 1.07422L42.4805-2.7832ZM47.3145-2.7832L47.3145 1.07422Q47.3145 2.68555 48.3887 3.78418Q49.4629 4.88281 51.123 4.88281Q52.7832 4.88281 53.8818 3.78418Q54.9805 2.68555 54.9805 1.07422L54.9805-2.7832ZM59.7656-2.7832L59.7656 1.07422Q59.7656 2.68555 60.8643 3.78418Q61.9629 4.88281 63.623 4.88281Q65.2832 4.88281 66.3818 3.78418Q67.4805 2.68555 67.4805 1.07422L67.4805-2.7832ZM72.2656-2.7832L72.2656 1.07422Q72.2656 2.68555 73.3643 3.78418Q74.4629 4.88281 76.0742 4.88281Q77.7832 4.88281 78.8574 3.78418Q79.9316 2.68555 79.9316 1.07422L79.9316-2.7832Z"/>
  </g>
  <g id="Medium-S" transform="matrix(1 0 0 1 1695.43 696)">
   <path d="M22.7051-8.88672L79.4922-8.88672Q85.9375-8.88672 89.209-12.1094Q92.4805-15.332 92.4805-21.6797L92.4805-48.7305Q92.4805-55.0781 89.209-58.3008Q85.9375-61.5234 79.4922-61.5234L22.7051-61.5234Q16.3574-61.5234 13.0615-58.3008Q9.76562-55.0781 9.76562-48.7305L9.76562-21.6797Q9.76562-15.332 13.0615-12.1094Q16.3574-8.88672 22.7051-8.88672ZM22.5098-67.2852L29.9316-67.2852L29.9316-70.9473Q29.9316-72.5586 28.9062-73.6084Q27.8809-74.6582 26.2207-74.6582Q24.6094-74.6582 23.5596-73.6084Q22.5098-72.5586 22.5098-70.9473ZM34.9609-67.2852L42.3828-67.2852L42.3828-70.9473Q42.3828-72.5586 41.333-73.6084Q40.2832-74.6582 38.6719-74.6582Q37.0117-74.6582 35.9863-73.6084Q34.9609-72.5586 34.9609-70.9473ZM47.4121-67.2852L54.834-67.2852L54.834-70.9473Q54.834-72.5586 53.7842-73.6084Q52.7344-74.6582 51.123-74.6582Q49.4629-74.6582 48.4375-73.6084Q47.4121-72.5586 47.4121-70.9473ZM59.8633-67.2852L67.2852-67.2852L67.2852-70.9473Q67.2852-72.5586 66.2354-73.6084Q65.1855-74.6582 63.5254-74.6582Q61.9141-74.6582 60.8887-73.6084Q59.8633-72.5586 59.8633-70.9473ZM72.3145-67.2852L79.6875-67.2852L79.6875-70.9473Q79.6875-72.5586 78.6621-73.6084Q77.6367-74.6582 76.0254-74.6582Q74.3652-74.6582 73.3398-73.6084Q72.3145-72.5586 72.3145-70.9473ZM22.5098-3.125L22.5098 0.537109Q22.5098 2.14844 23.5596 3.19824Q24.6094 4.24805 26.2207 4.24805Q27.8809 4.24805 28.9062 3.19824Q29.9316 2.14844 29.9316 0.537109L29.9316-3.125ZM34.9609-3.125L34.9609 0.537109Q34.9609 2.14844 35.9863 3.19824Q37.0117 4.24805 38.6719 4.24805Q40.2832 4.24805 41.333 3.19824Q42.3828 2.14844 42.3828 0.537109L42.3828-3.125ZM47.4121-3.125L47.4121 0.537109Q47.4121 2.14844 48.4375 3.19824Q49.4629 4.24805 51.123 4.24805Q52.7344 4.24805 53.7842 3.19824Q54.834 2.14844 54.834 0.537109L54.834-3.125ZM59.8633-3.125L59.8633 0.537109Q59.8633 2.14844 60.8887 3.19824Q61.9141 4.24805 63.5254 4.24805Q65.1855 4.24805 66.2354 3.19824Q67.2852 2.14844 67.2852 0.537109L67.2852-3.125ZM72.3145-3.125L72.3145 0.537109Q72.3145 2.14844 73.3398 3.19824Q74.3652 4.24805 76.0254 4.24805Q77.6367 4.24805 78.6621 3.19824Q79.6875 2.14844 79.6875 0.537109L79.6875-3.125Z"/>
  </g>
  <g id="Regular-S" transform="matrix(1 0 0 1 1398.75 696)">
   <path d="M22.2168-9.32617L79.9805-9.32617Q86.2305-9.32617 89.3311-12.3779Q92.4316-15.4297 92.4316-21.582L92.4316-48.8281Q92.4316-54.9805 89.3311-58.0322Q86.2305-61.084 79.9805-61.084L22.2168-61.084Q16.0156-61.084 12.8906-58.0322Q9.76562-54.9805 9.76562-48.8281L9.76562-21.582Q9.76562-15.4297 12.8906-12.3779Q16.0156-9.32617 22.2168-9.32617ZM22.8027-66.7969L29.834-66.7969L29.834-70.3125Q29.834-71.875 28.8818-72.8516Q27.9297-73.8281 26.3184-73.8281Q24.7559-73.8281 23.7793-72.8516Q22.8027-71.875 22.8027-70.3125ZM35.2051-66.7969L42.2363-66.7969L42.2363-70.3125Q42.2363-71.875 41.2598-72.8516Q40.2832-73.8281 38.7207-73.8281Q37.1094-73.8281 36.1572-72.8516Q35.2051-71.875 35.2051-70.3125ZM47.6074-66.7969L54.6387-66.7969L54.6387-70.3125Q54.6387-71.875 53.6621-72.8516Q52.6855-73.8281 51.123-73.8281Q49.5117-73.8281 48.5596-72.8516Q47.6074-71.875 47.6074-70.3125ZM59.9609-66.7969L67.041-66.7969L67.041-70.3125Q67.041-71.875 66.0645-72.8516Q65.0879-73.8281 63.4766-73.8281Q61.9141-73.8281 60.9375-72.8516Q59.9609-71.875 59.9609-70.3125ZM72.3633-66.7969L79.3945-66.7969L79.3945-70.3125Q79.3945-71.875 78.4424-72.8516Q77.4902-73.8281 75.8789-73.8281Q74.3164-73.8281 73.3398-72.8516Q72.3633-71.875 72.3633-70.3125ZM22.8027-3.61328L22.8027-0.0976562Q22.8027 1.46484 23.7793 2.44141Q24.7559 3.41797 26.3184 3.41797Q27.9297 3.41797 28.8818 2.44141Q29.834 1.46484 29.834-0.0976562L29.834-3.61328ZM35.2051-3.61328L35.2051-0.0976562Q35.2051 1.46484 36.1572 2.44141Q37.1094 3.41797 38.7207 3.41797Q40.2832 3.41797 41.2598 2.44141Q42.2363 1.46484 42.2363-0.0976562L42.2363-3.61328ZM47.6074-3.61328L47.6074-0.0976562Q47.6074 1.46484 48.5596 2.44141Q49.5117 3.41797 51.123 3.41797Q52.6855 3.41797 53.6621 2.44141Q54.6387 1.46484 54.6387-0.0976562L54.6387-3.61328ZM59.9609-3.61328L59.9609-0.0976562Q59.9609 1.46484 60.9375 2.44141Q61.9141 3.41797 63.4766 3.41797Q65.0879 3.41797 66.0645 2.44141Q67.041 1.46484 67.041-0.0976562L67.041-3.61328ZM72.3633-3.61328L72.3633-0.0976562Q72.3633 1.46484 73.3398 2.44141Q74.3164 3.41797 75.8789 3.41797Q77.4902 3.41797 78.4424 2.44141Q79.3945 1.46484 79.3945-0.0976562L79.3945-3.61328Z"/>
  </g>
  <g id="Light-S" transform="matrix(1 0 0 1 1102.67 696)">
   <path d="M21.3867-9.52148L79.4922-9.52148Q85.3027-9.52148 88.2324-12.4268Q91.1621-15.332 91.1621-21.0449L91.1621-49.3652Q91.1621-55.0781 88.2324-57.959Q85.3027-60.8398 79.4922-60.8398L21.3867-60.8398Q15.625-60.8398 12.6953-57.959Q9.76562-55.0781 9.76562-49.3652L9.76562-21.0449Q9.76562-15.2832 12.6953-12.4023Q15.625-9.52148 21.3867-9.52148ZM23.0957-65.6738L28.5156-65.6738L28.5156-69.4336Q28.5156-70.6543 27.7588-71.4111Q27.002-72.168 25.7812-72.168Q24.6094-72.168 23.8525-71.4111Q23.0957-70.6543 23.0957-69.4336ZM35.4004-65.6738L40.8203-65.6738L40.8203-69.4336Q40.8203-70.6543 40.0635-71.4111Q39.3066-72.168 38.1348-72.168Q36.9141-72.168 36.1572-71.4111Q35.4004-70.6543 35.4004-69.4336ZM47.7539-65.6738L53.1738-65.6738L53.1738-69.4336Q53.1738-70.6543 52.417-71.4111Q51.6602-72.168 50.4883-72.168Q49.2188-72.168 48.4863-71.4111Q47.7539-70.6543 47.7539-69.4336ZM60.0586-65.6738L65.5273-65.6738L65.5273-69.4336Q65.5273-70.6543 64.7705-71.4111Q64.0137-72.168 62.793-72.168Q61.5723-72.168 60.8154-71.4111Q60.0586-70.6543 60.0586-69.4336ZM72.4121-65.6738L77.832-65.6738L77.832-69.4336Q77.832-70.6543 77.0996-71.4111Q76.3672-72.168 75.1465-72.168Q73.9258-72.168 73.1689-71.4111Q72.4121-70.6543 72.4121-69.4336ZM23.0957-4.6875L23.0957-0.927734Q23.0957 0.292969 23.8525 1.0498Q24.6094 1.80664 25.7812 1.80664Q27.002 1.80664 27.7588 1.0498Q28.5156 0.292969 28.5156-0.927734L28.5156-4.6875ZM35.4004-4.6875L35.4004-0.927734Q35.4004 0.292969 36.1572 1.0498Q36.9141 1.80664 38.1348 1.80664Q39.3066 1.80664 40.0635 1.0498Q40.8203 0.292969 40.8203-0.927734L40.8203-4.6875ZM47.7539-4.6875L47.7539-0.927734Q47.7539 0.292969 48.4863 1.0498Q49.2188 1.80664 50.4883 1.80664Q51.6602 1.80664 52.417 1.0498Q53.1738 0.292969 53.1738-0.927734L53.1738-4.6875ZM60.0586-4.6875L60.0586-0.927734Q60.0586 0.292969 60.8154 1.0498Q61.5723 1.80664 62.793 1.80664Q64.0137 1.80664 64.7705 1.0498Q65.5273 0.292969 65.5273-0.927734L65.5273-4.6875ZM72.4121-4.6875L72.4121-0.927734Q72.4121 0.292969 73.1689 1.0498Q73.9258 1.80664 75.1465 1.80664Q76.3672 1.80664 77.0996 1.0498Q77.832 0.292969 77.832-0.927734L77.832-4.6875Z"/>
  </g>
  <g id="Thin-S" transform="matrix(1 0 0 1 806.813 696)">
   <path d="M20.3125-9.76562L78.9062-9.76562Q84.1309-9.76562 86.792-12.4512Q89.4531-15.1367 89.4531-20.2637L89.4531-50.0488Q89.4531-55.1758 86.792-57.8613Q84.1309-60.5469 78.9062-60.5469L20.3125-60.5469Q15.0879-60.5469 12.4268-57.8857Q9.76562-55.2246 9.76562-50.0488L9.76562-20.2637Q9.76562-15.1367 12.4268-12.4512Q15.0879-9.76562 20.3125-9.76562ZM23.4375-64.209L26.7578-64.209L26.7578-68.3105Q26.7578-68.9941 26.2939-69.4824Q25.8301-69.9707 25.0977-69.9707Q24.4141-69.9707 23.9258-69.4824Q23.4375-68.9941 23.4375-68.3105ZM35.6934-64.209L39.0137-64.209L39.0137-68.3105Q39.0137-68.9941 38.5498-69.4824Q38.0859-69.9707 37.3535-69.9707Q36.6211-69.9707 36.1572-69.4824Q35.6934-68.9941 35.6934-68.3105ZM47.9492-64.209L51.2695-64.209L51.2695-68.3105Q51.2695-68.9941 50.8057-69.4824Q50.3418-69.9707 49.6094-69.9707Q48.877-69.9707 48.4131-69.4824Q47.9492-68.9941 47.9492-68.3105ZM60.2051-64.209L63.5254-64.209L63.5254-68.3105Q63.5254-68.9941 63.0615-69.4824Q62.5977-69.9707 61.8652-69.9707Q61.1328-69.9707 60.6689-69.4824Q60.2051-68.9941 60.2051-68.3105ZM72.4609-64.209L75.7812-64.209L75.7812-68.3105Q75.7812-68.9941 75.3174-69.4824Q74.8535-69.9707 74.1211-69.9707Q73.3887-69.9707 72.9248-69.4824Q72.4609-68.9941 72.4609-68.3105ZM23.4375-6.15234L23.4375-2.05078Q23.4375-1.31836 23.9258-0.854492Q24.4141-0.390625 25.0977-0.390625Q25.8301-0.390625 26.2939-0.854492Q26.7578-1.31836 26.7578-2.05078L26.7578-6.15234ZM35.6934-6.15234L35.6934-2.05078Q35.6934-1.31836 36.1572-0.854492Q36.6211-0.390625 37.3535-0.390625Q38.0859-0.390625 38.5498-0.854492Q39.0137-1.31836 39.0137-2.05078L39.0137-6.15234ZM47.9492-6.15234L47.9492-2.05078Q47.9492-1.31836 48.4131-0.854492Q48.877-0.390625 49.6094-0.390625Q50.3418-0.390625 50.8057-0.854492Q51.2695-1.31836 51.2695-2.05078L51.2695-6.15234ZM60.2051-6.15234L60.2051-2.05078Q60.2051-1.31836 60.6689-0.854492Q61.1328-0.390625 61.8652-0.390625Q62.5977-0.390625 63.0615-0.854492Q63.5254-1.31836 63.5254-2.05078L63.5254-6.15234ZM72.4609-6.15234L72.4609-2.05078Q72.4609-1.31836 72.9248-0.854492Q73.3887-0.390625 74.1211-0.390625Q74.8535-0.390625 75.3174-0.854492Q75.7812-1.31836 75.7812-2.05078L75.7812-6.15234Z"/>
  </g>
  <g id="Ultralight-S" transform="matrix(1 0 0 1 510.541 696)">
   <path d="M19.7754-9.91211L78.5645-9.91211Q83.4961-9.91211 86.0352-12.5Q88.5742-15.0879 88.5742-19.9219L88.5742-50.4395Q88.5742-55.2734 86.0352-57.8369Q83.4961-60.4004 78.5645-60.4004L19.7754-60.4004Q14.8438-60.4004 12.3047-57.8613Q9.76562-55.3223 9.76562-50.4395L9.76562-19.9219Q9.76562-15.0391 12.3047-12.4756Q14.8438-9.91211 19.7754-9.91211ZM23.6328-63.4277L25.8301-63.4277L25.8301-67.7246Q25.8301-68.1641 25.5127-68.5059Q25.1953-68.8477 24.707-68.8477Q24.3164-68.8477 23.9746-68.5059Q23.6328-68.1641 23.6328-67.7246ZM35.8398-63.4277L38.0371-63.4277L38.0371-67.7246Q38.0371-68.1641 37.7197-68.5059Q37.4023-68.8477 36.9629-68.8477Q36.4746-68.8477 36.1572-68.5059Q35.8398-68.1641 35.8398-67.7246ZM48.0469-63.4277L50.293-63.4277L50.293-67.7246Q50.293-68.1641 49.9756-68.5059Q49.6582-68.8477 49.1699-68.8477Q48.6816-68.8477 48.3643-68.5059Q48.0469-68.1641 48.0469-67.7246ZM60.3027-63.4277L62.5-63.4277L62.5-67.7246Q62.5-68.1641 62.1826-68.5059Q61.8652-68.8477 61.377-68.8477Q60.9375-68.8477 60.6201-68.5059Q60.3027-68.1641 60.3027-67.7246ZM72.5098-63.4277L74.707-63.4277L74.707-67.7246Q74.707-68.1641 74.3896-68.5059Q74.0723-68.8477 73.6328-68.8477Q73.1445-68.8477 72.8271-68.5059Q72.5098-68.1641 72.5098-67.7246ZM23.6328-6.88477L23.6328-2.58789Q23.6328-2.09961 23.9746-1.78223Q24.3164-1.46484 24.707-1.46484Q25.1953-1.46484 25.5127-1.78223Q25.8301-2.09961 25.8301-2.58789L25.8301-6.88477ZM35.8398-6.88477L35.8398-2.58789Q35.8398-2.09961 36.1572-1.78223Q36.4746-1.46484 36.9629-1.46484Q37.4023-1.46484 37.7197-1.78223Q38.0371-2.09961 38.0371-2.58789L38.0371-6.88477ZM48.0469-6.88477L48.0469-2.58789Q48.0469-2.09961 48.3643-1.78223Q48.6816-1.46484 49.1699-1.46484Q49.6582-1.46484 49.9756-1.78223Q50.293-2.09961 50.293-2.58789L50.293-6.88477ZM60.3027-6.88477L60.3027-2.58789Q60.3027-2.09961 60.6201-1.78223Q60.9375-1.46484 61.377-1.46484Q61.8652-1.46484 62.1826-1.78223Q62.5-2.09961 62.5-2.58789L62.5-6.88477ZM72.5098-6.88477L72.5098-2.58789Q72.5098-2.09961 72.8271-1.78223Q73.1445-1.46484 73.6328-1.46484Q74.0723-1.46484 74.3896-1.78223Q74.707-2.09961 74.707-2.58789L74.707-6.88477Z"/>
  </g>
 </g>
</svg>
