<?xml version="1.0" encoding="UTF-8"?>
<!--Generator: Apple Native CoreSVG 175-->
<!DOCTYPE svg
PUBLIC "-//W3C//DTD SVG 1.1//EN"
       "http://www.w3.org/Graphics/SVG/1.1/DTD/svg11.dtd">
<svg version="1.1" xmlns="http://www.w3.org/2000/svg" xmlns:xlink="http://www.w3.org/1999/xlink" width="3300" height="2200">
 <!--glyph: "uni100DB8.medium", point size: 100.0, font version: "17.0d11e1", template writer version: "65.1"-->
 <style>.hierarchical-0:secondary {fill:#4D4D4D}
.hierarchical-1:primary {fill:#212121}

.SFSymbolsPreview212121 {fill:#212121;opacity:1.0}
.SFSymbolsPreview4D4D4D {fill:#4D4D4D;opacity:1.0}
</style>
 <g id="Notes">
  <rect height="2200" id="artboard" style="fill:white;opacity:1" width="3300" x="0" y="0"/>
  <line style="fill:none;stroke:black;opacity:1;stroke-width:0.5;" x1="263" x2="3036" y1="292" y2="292"/>
  <text style="stroke:none;fill:black;font-family:sans-serif;font-size:13;font-weight:bold;" transform="matrix(1 0 0 1 263 322)">Weight/Scale Variations</text>
  <text style="stroke:none;fill:black;font-family:sans-serif;font-size:13;text-anchor:middle;" transform="matrix(1 0 0 1 559.711 322)">Ultralight</text>
  <text style="stroke:none;fill:black;font-family:sans-serif;font-size:13;text-anchor:middle;" transform="matrix(1 0 0 1 856.422 322)">Thin</text>
  <text style="stroke:none;fill:black;font-family:sans-serif;font-size:13;text-anchor:middle;" transform="matrix(1 0 0 1 1153.13 322)">Light</text>
  <text style="stroke:none;fill:black;font-family:sans-serif;font-size:13;text-anchor:middle;" transform="matrix(1 0 0 1 1449.84 322)">Regular</text>
  <text style="stroke:none;fill:black;font-family:sans-serif;font-size:13;text-anchor:middle;" transform="matrix(1 0 0 1 1746.56 322)">Medium</text>
  <text style="stroke:none;fill:black;font-family:sans-serif;font-size:13;text-anchor:middle;" transform="matrix(1 0 0 1 2043.27 322)">Semibold</text>
  <text style="stroke:none;fill:black;font-family:sans-serif;font-size:13;text-anchor:middle;" transform="matrix(1 0 0 1 2339.98 322)">Bold</text>
  <text style="stroke:none;fill:black;font-family:sans-serif;font-size:13;text-anchor:middle;" transform="matrix(1 0 0 1 2636.69 322)">Heavy</text>
  <text style="stroke:none;fill:black;font-family:sans-serif;font-size:13;text-anchor:middle;" transform="matrix(1 0 0 1 2933.4 322)">Black</text>
  <line style="fill:none;stroke:black;opacity:1;stroke-width:0.5;" x1="263" x2="3036" y1="1903" y2="1903"/>
  <g transform="matrix(1 0 0 1 263 1933)">
   <path d="M9.24805 0.830078Q10.8691 0.830078 12.2949 0.214844Q13.7207-0.400391 14.8096-1.49414Q15.8984-2.58789 16.5186-4.01367Q17.1387-5.43945 17.1387-7.05078Q17.1387-8.66211 16.5186-10.0879Q15.8984-11.5137 14.8047-12.6074Q13.7109-13.7012 12.2852-14.3164Q10.8594-14.9316 9.23828-14.9316Q7.62695-14.9316 6.20117-14.3164Q4.77539-13.7012 3.69141-12.6074Q2.60742-11.5137 1.9873-10.0879Q1.36719-8.66211 1.36719-7.05078Q1.36719-5.43945 1.9873-4.01367Q2.60742-2.58789 3.69629-1.49414Q4.78516-0.400391 6.21094 0.214844Q7.63672 0.830078 9.24805 0.830078ZM9.24805-0.654297Q7.91992-0.654297 6.7627-1.14746Q5.60547-1.64062 4.73145-2.51953Q3.85742-3.39844 3.36426-4.56055Q2.87109-5.72266 2.87109-7.05078Q2.87109-8.37891 3.35938-9.54102Q3.84766-10.7031 4.72168-11.582Q5.5957-12.4609 6.75293-12.9541Q7.91016-13.4473 9.23828-13.4473Q10.5762-13.4473 11.7334-12.9541Q12.8906-12.4609 13.7695-11.582Q14.6484-10.7031 15.1465-9.54102Q15.6445-8.37891 15.6445-7.05078Q15.6445-5.72266 15.1514-4.56055Q14.6582-3.39844 13.7842-2.51953Q12.9102-1.64062 11.748-1.14746Q10.5859-0.654297 9.24805-0.654297ZM5.6543-7.05078Q5.6543-6.72852 5.85938-6.52832Q6.06445-6.32812 6.40625-6.32812L8.51562-6.32812L8.51562-4.20898Q8.51562-3.88672 8.71094-3.67676Q8.90625-3.4668 9.23828-3.4668Q9.56055-3.4668 9.77051-3.67676Q9.98047-3.88672 9.98047-4.20898L9.98047-6.32812L12.0898-6.32812Q12.4219-6.32812 12.627-6.52832Q12.832-6.72852 12.832-7.05078Q12.832-7.38281 12.627-7.58789Q12.4219-7.79297 12.0898-7.79297L9.98047-7.79297L9.98047-9.90234Q9.98047-10.2344 9.77051-10.4443Q9.56055-10.6543 9.23828-10.6543Q8.90625-10.6543 8.71094-10.4443Q8.51562-10.2344 8.51562-9.90234L8.51562-7.79297L6.40625-7.79297Q6.06445-7.79297 5.85938-7.58789Q5.6543-7.38281 5.6543-7.05078Z"/>
  </g>
  <g transform="matrix(1 0 0 1 281.867 1933)">
   <path d="M11.709 2.91016Q13.75 2.91016 15.5518 2.12891Q17.3535 1.34766 18.7305-0.0292969Q20.1074-1.40625 20.8887-3.20801Q21.6699-5.00977 21.6699-7.05078Q21.6699-9.0918 20.8887-10.8936Q20.1074-12.6953 18.7305-14.0723Q17.3535-15.4492 15.5469-16.2305Q13.7402-17.0117 11.6992-17.0117Q9.6582-17.0117 7.85645-16.2305Q6.05469-15.4492 4.68262-14.0723Q3.31055-12.6953 2.5293-10.8936Q1.74805-9.0918 1.74805-7.05078Q1.74805-5.00977 2.5293-3.20801Q3.31055-1.40625 4.6875-0.0292969Q6.06445 1.34766 7.86621 2.12891Q9.66797 2.91016 11.709 2.91016ZM11.709 1.25Q9.98047 1.25 8.47656 0.605469Q6.97266-0.0390625 5.83496-1.17676Q4.69727-2.31445 4.05762-3.81836Q3.41797-5.32227 3.41797-7.05078Q3.41797-8.7793 4.05762-10.2832Q4.69727-11.7871 5.83008-12.9297Q6.96289-14.0723 8.4668-14.7119Q9.9707-15.3516 11.6992-15.3516Q13.4277-15.3516 14.9316-14.7119Q16.4355-14.0723 17.5781-12.9297Q18.7207-11.7871 19.3652-10.2832Q20.0098-8.7793 20.0098-7.05078Q20.0098-5.32227 19.3701-3.81836Q18.7305-2.31445 17.5928-1.17676Q16.4551-0.0390625 14.9463 0.605469Q13.4375 1.25 11.709 1.25ZM7.17773-7.05078Q7.17773-6.69922 7.41211-6.47461Q7.64648-6.25 8.01758-6.25L10.8887-6.25L10.8887-3.36914Q10.8887-2.99805 11.1133-2.76855Q11.3379-2.53906 11.6895-2.53906Q12.0605-2.53906 12.29-2.76855Q12.5195-2.99805 12.5195-3.36914L12.5195-6.25L15.4004-6.25Q15.7715-6.25 16.001-6.47461Q16.2305-6.69922 16.2305-7.05078Q16.2305-7.42188 16.001-7.65137Q15.7715-7.88086 15.4004-7.88086L12.5195-7.88086L12.5195-10.752Q12.5195-11.1328 12.29-11.3623Q12.0605-11.5918 11.6895-11.5918Q11.3379-11.5918 11.1133-11.3574Q10.8887-11.123 10.8887-10.752L10.8887-7.88086L8.01758-7.88086Q7.63672-7.88086 7.40723-7.65137Q7.17773-7.42188 7.17773-7.05078Z"/>
  </g>
  <g transform="matrix(1 0 0 1 305.646 1933)">
   <path d="M14.9707 5.66406Q17.0605 5.66406 18.96 5.01465Q20.8594 4.36523 22.4512 3.19336Q24.043 2.02148 25.2197 0.429688Q26.3965-1.16211 27.0459-3.06641Q27.6953-4.9707 27.6953-7.05078Q27.6953-9.14062 27.0459-11.04Q26.3965-12.9395 25.2197-14.5312Q24.043-16.123 22.4512-17.2998Q20.8594-18.4766 18.9551-19.126Q17.0508-19.7754 14.9609-19.7754Q12.8711-19.7754 10.9717-19.126Q9.07227-18.4766 7.48535-17.2998Q5.89844-16.123 4.72168-14.5312Q3.54492-12.9395 2.90039-11.04Q2.25586-9.14062 2.25586-7.05078Q2.25586-4.9707 2.90527-3.06641Q3.55469-1.16211 4.72656 0.429688Q5.89844 2.02148 7.49023 3.19336Q9.08203 4.36523 10.9814 5.01465Q12.8809 5.66406 14.9707 5.66406ZM14.9707 3.84766Q13.1641 3.84766 11.5283 3.2959Q9.89258 2.74414 8.53516 1.74805Q7.17773 0.751953 6.17676-0.610352Q5.17578-1.97266 4.62891-3.6084Q4.08203-5.24414 4.08203-7.05078Q4.08203-8.86719 4.62891-10.5029Q5.17578-12.1387 6.17188-13.501Q7.16797-14.8633 8.52539-15.8594Q9.88281-16.8555 11.5186-17.4023Q13.1543-17.9492 14.9609-17.9492Q16.7773-17.9492 18.4131-17.4023Q20.0488-16.8555 21.4111-15.8594Q22.7734-14.8633 23.7695-13.501Q24.7656-12.1387 25.3174-10.5029Q25.8691-8.86719 25.8691-7.05078Q25.8789-5.24414 25.332-3.6084Q24.7852-1.97266 23.7842-0.610352Q22.7832 0.751953 21.4209 1.74805Q20.0586 2.74414 18.4229 3.2959Q16.7871 3.84766 14.9707 3.84766ZM9.19922-7.05078Q9.19922-6.66992 9.45801-6.4209Q9.7168-6.17188 10.1172-6.17188L14.0625-6.17188L14.0625-2.2168Q14.0625-1.81641 14.3115-1.55762Q14.5605-1.29883 14.9512-1.29883Q15.3516-1.29883 15.6104-1.55273Q15.8691-1.80664 15.8691-2.2168L15.8691-6.17188L19.8242-6.17188Q20.2246-6.17188 20.4785-6.4209Q20.7324-6.66992 20.7324-7.05078Q20.7324-7.46094 20.4785-7.71484Q20.2246-7.96875 19.8242-7.96875L15.8691-7.96875L15.8691-11.9141Q15.8691-12.3242 15.6104-12.583Q15.3516-12.8418 14.9512-12.8418Q14.5605-12.8418 14.3115-12.583Q14.0625-12.3242 14.0625-11.9141L14.0625-7.96875L10.1172-7.96875Q9.70703-7.96875 9.45312-7.71484Q9.19922-7.46094 9.19922-7.05078Z"/>
  </g>
  <text style="stroke:none;fill:black;font-family:sans-serif;font-size:13;font-weight:bold;" transform="matrix(1 0 0 1 263 1953)">Design Variations</text>
  <text style="stroke:none;fill:black;font-family:sans-serif;font-size:13;" transform="matrix(1 0 0 1 263 1971)">Symbols are supported in up to nine weights and three scales.</text>
  <text style="stroke:none;fill:black;font-family:sans-serif;font-size:13;" transform="matrix(1 0 0 1 263 1989)">For optimal layout with text and other symbols, vertically align</text>
  <text style="stroke:none;fill:black;font-family:sans-serif;font-size:13;" transform="matrix(1 0 0 1 263 2007)">symbols with the adjacent text.</text>
  <line style="fill:none;stroke:#00AEEF;stroke-width:0.5;opacity:1.0;" x1="776" x2="776" y1="1919" y2="1933"/>
  <g transform="matrix(1 0 0 1 776 1933)">
   <path d="M3.31055 0.15625Q3.70117 0.15625 3.91602-0.00976562Q4.13086-0.175781 4.26758-0.585938L5.52734-4.0332L11.2891-4.0332L12.5488-0.585938Q12.6855-0.175781 12.9004-0.00976562Q13.1152 0.15625 13.4961 0.15625Q13.8867 0.15625 14.1162-0.0585938Q14.3457-0.273438 14.3457-0.644531Q14.3457-0.869141 14.2383-1.17188L9.6582-13.3691Q9.48242-13.8184 9.17969-14.043Q8.87695-14.2676 8.4082-14.2676Q7.5-14.2676 7.17773-13.3789L2.59766-1.16211Q2.49023-0.859375 2.49023-0.634766Q2.49023-0.263672 2.70996-0.0537109Q2.92969 0.15625 3.31055 0.15625ZM6.00586-5.51758L8.37891-12.0898L8.42773-12.0898L10.8008-5.51758Z"/>
  </g>
  <line style="fill:none;stroke:#00AEEF;stroke-width:0.5;opacity:1.0;" x1="793.197" x2="793.197" y1="1919" y2="1933"/>
  <text style="stroke:none;fill:black;font-family:sans-serif;font-size:13;font-weight:bold;" transform="matrix(1 0 0 1 776 1953)">Margins</text>
  <text style="stroke:none;fill:black;font-family:sans-serif;font-size:13;" transform="matrix(1 0 0 1 776 1971)">Leading and trailing margins on the left and right side of each symbol</text>
  <text style="stroke:none;fill:black;font-family:sans-serif;font-size:13;" transform="matrix(1 0 0 1 776 1989)">can be adjusted by modifying the x-location of the margin guidelines.</text>
  <text style="stroke:none;fill:black;font-family:sans-serif;font-size:13;" transform="matrix(1 0 0 1 776 2007)">Modifications are automatically applied proportionally to all</text>
  <text style="stroke:none;fill:black;font-family:sans-serif;font-size:13;" transform="matrix(1 0 0 1 776 2025)">scales and weights.</text>
  <g transform="matrix(1 0 0 1 1289 1933)">
   <path d="M2.8418 1.86523L4.54102 3.57422Q5.18555 4.22852 5.90332 4.17969Q6.62109 4.13086 7.31445 3.35938L18.0078-8.42773L17.041-9.4043L6.42578 2.27539Q6.16211 2.57812 5.89355 2.61719Q5.625 2.65625 5.27344 2.30469L4.10156 1.14258Q3.75 0.791016 3.79395 0.522461Q3.83789 0.253906 4.14062-0.0195312L15.6152-10.8203L14.6387-11.7871L3.04688-0.898438Q2.30469-0.214844 2.25098 0.498047Q2.19727 1.21094 2.8418 1.86523ZM9.25781-16.3281Q8.94531-16.0254 8.90625-15.6348Q8.86719-15.2441 9.04297-14.9512Q9.21875-14.6777 9.55566-14.541Q9.89258-14.4043 10.3809-14.5215Q11.4746-14.7754 12.5977-14.7314Q13.7207-14.6875 14.7949-13.9844L14.209-12.5293Q13.9551-11.9043 14.0674-11.4404Q14.1797-10.9766 14.5801-10.5664L16.875-8.25195Q17.2363-7.88086 17.5781-7.82227Q17.9199-7.76367 18.3398-7.8418L19.4043-8.03711L20.0684-7.36328L20.0293-6.80664Q20-6.43555 20.1221-6.12305Q20.2441-5.81055 20.6055-5.44922L21.3672-4.70703Q21.7285-4.3457 22.1533-4.33105Q22.5781-4.31641 22.9297-4.66797L25.8398-7.58789Q26.1914-7.93945 26.1816-8.35449Q26.1719-8.76953 25.8105-9.13086L25.0391-9.89258Q24.6875-10.2539 24.3799-10.3857Q24.0723-10.5176 23.7109-10.4883L23.1348-10.4395L22.4902-11.0742L22.7344-12.1973Q22.832-12.6172 22.6953-12.9834Q22.5586-13.3496 22.1191-13.7891L19.9219-15.9766Q18.6719-17.2168 17.2607-17.8369Q15.8496-18.457 14.4189-18.4814Q12.9883-18.5059 11.665-17.959Q10.3418-17.4121 9.25781-16.3281ZM10.752-15.957Q11.6602-16.6211 12.7002-16.9043Q13.7402-17.1875 14.8047-17.085Q15.8691-16.9824 16.8701-16.5137Q17.8711-16.0449 18.7012-15.2051L21.1328-12.793Q21.3086-12.6172 21.3525-12.4512Q21.3965-12.2852 21.3379-12.0312L21.0156-10.5469L22.5195-9.0625L23.5059-9.12109Q23.6914-9.13086 23.7891-9.09668Q23.8867-9.0625 24.0332-8.91602L24.6094-8.33984L22.168-5.89844L21.5918-6.47461Q21.4453-6.62109 21.4062-6.71875Q21.3672-6.81641 21.377-7.01172L21.4453-7.98828L19.9512-9.47266L18.4277-9.21875Q18.1836-9.16992 18.042-9.2041Q17.9004-9.23828 17.7148-9.41406L15.7129-11.416Q15.5176-11.5918 15.4932-11.7529Q15.4688-11.9141 15.5859-12.1875L16.4648-14.2773Q15.293-15.3711 13.8281-15.791Q12.3633-16.2109 10.8398-15.7617Q10.7227-15.7324 10.6885-15.8057Q10.6543-15.8789 10.752-15.957Z"/>
  </g>
  <text style="stroke:none;fill:black;font-family:sans-serif;font-size:13;font-weight:bold;" transform="matrix(1 0 0 1 1289 1953)">Exporting</text>
  <text style="stroke:none;fill:black;font-family:sans-serif;font-size:13;" transform="matrix(1 0 0 1 1289 1971)">Symbols should be outlined when exporting to ensure the</text>
  <text style="stroke:none;fill:black;font-family:sans-serif;font-size:13;" transform="matrix(1 0 0 1 1289 1989)">design is preserved when submitting to Xcode.</text>
  <text id="template-version" style="stroke:none;fill:black;font-family:sans-serif;font-size:13;text-anchor:end;" transform="matrix(1 0 0 1 3036 1933)">Template v.3.0</text>
  <text style="stroke:none;fill:black;font-family:sans-serif;font-size:13;text-anchor:end;" transform="matrix(1 0 0 1 3036 1951)">Requires Xcode 13 or greater</text>
  <text id="descriptive-name" style="stroke:none;fill:black;font-family:sans-serif;font-size:13;text-anchor:end;" transform="matrix(1 0 0 1 3036 1969)">Generated from flag.filled.and.flag.crossed</text>
  <text style="stroke:none;fill:black;font-family:sans-serif;font-size:13;text-anchor:end;" transform="matrix(1 0 0 1 3036 1987)">Typeset at 100 points</text>
  <text style="stroke:none;fill:black;font-family:sans-serif;font-size:13;" transform="matrix(1 0 0 1 263 726)">Small</text>
  <text style="stroke:none;fill:black;font-family:sans-serif;font-size:13;" transform="matrix(1 0 0 1 263 1156)">Medium</text>
  <text style="stroke:none;fill:black;font-family:sans-serif;font-size:13;" transform="matrix(1 0 0 1 263 1586)">Large</text>
 </g>
 <g id="Guides">
  <g id="H-reference" style="fill:#27AAE1;stroke:none;" transform="matrix(1 0 0 1 339 696)">
   <path d="M0.976562 0L3.66211 0L29.3457-67.1387L30.0293-67.1387L30.0293-70.459L28.125-70.459ZM11.6699-24.4629L46.9727-24.4629L46.2402-26.709L12.4512-26.709ZM55.127 0L57.7637 0L30.6152-70.459L29.4434-70.459L29.4434-67.1387Z"/>
  </g>
  <line id="Baseline-S" style="fill:none;stroke:#27AAE1;opacity:1;stroke-width:0.5;" x1="263" x2="3036" y1="696" y2="696"/>
  <line id="Capline-S" style="fill:none;stroke:#27AAE1;opacity:1;stroke-width:0.5;" x1="263" x2="3036" y1="625.541" y2="625.541"/>
  <g id="H-reference" style="fill:#27AAE1;stroke:none;" transform="matrix(1 0 0 1 339 1126)">
   <path d="M0.976562 0L3.66211 0L29.3457-67.1387L30.0293-67.1387L30.0293-70.459L28.125-70.459ZM11.6699-24.4629L46.9727-24.4629L46.2402-26.709L12.4512-26.709ZM55.127 0L57.7637 0L30.6152-70.459L29.4434-70.459L29.4434-67.1387Z"/>
  </g>
  <line id="Baseline-M" style="fill:none;stroke:#27AAE1;opacity:1;stroke-width:0.5;" x1="263" x2="3036" y1="1126" y2="1126"/>
  <line id="Capline-M" style="fill:none;stroke:#27AAE1;opacity:1;stroke-width:0.5;" x1="263" x2="3036" y1="1055.54" y2="1055.54"/>
  <g id="H-reference" style="fill:#27AAE1;stroke:none;" transform="matrix(1 0 0 1 339 1556)">
   <path d="M0.976562 0L3.66211 0L29.3457-67.1387L30.0293-67.1387L30.0293-70.459L28.125-70.459ZM11.6699-24.4629L46.9727-24.4629L46.2402-26.709L12.4512-26.709ZM55.127 0L57.7637 0L30.6152-70.459L29.4434-70.459L29.4434-67.1387Z"/>
  </g>
  <line id="Baseline-L" style="fill:none;stroke:#27AAE1;opacity:1;stroke-width:0.5;" x1="263" x2="3036" y1="1556" y2="1556"/>
  <line id="Capline-L" style="fill:none;stroke:#27AAE1;opacity:1;stroke-width:0.5;" x1="263" x2="3036" y1="1485.54" y2="1485.54"/>
  <line id="left-margin-Ultralight-S" style="fill:none;stroke:#00AEEF;stroke-width:0.5;opacity:1.0;" x1="485.663" x2="485.663" y1="600.785" y2="720.121"/>
  <line id="right-margin-Ultralight-S" style="fill:none;stroke:#00AEEF;stroke-width:0.5;opacity:1.0;" x1="633.759" x2="633.759" y1="600.785" y2="720.121"/>
  <line id="left-margin-Thin-S" style="fill:none;stroke:#00AEEF;stroke-width:0.5;opacity:1.0;" x1="781.251" x2="781.251" y1="600.785" y2="720.121"/>
  <line id="right-margin-Thin-S" style="fill:none;stroke:#00AEEF;stroke-width:0.5;opacity:1.0;" x1="931.593" x2="931.593" y1="600.785" y2="720.121"/>
  <line id="left-margin-Light-S" style="fill:none;stroke:#00AEEF;stroke-width:0.5;opacity:1.0;" x1="1075.79" x2="1075.79" y1="600.785" y2="720.121"/>
  <line id="right-margin-Light-S" style="fill:none;stroke:#00AEEF;stroke-width:0.5;opacity:1.0;" x1="1230.48" x2="1230.48" y1="600.785" y2="720.121"/>
  <line id="left-margin-Regular-S" style="fill:none;stroke:#00AEEF;stroke-width:0.5;opacity:1.0;" x1="1370.86" x2="1370.86" y1="600.785" y2="720.121"/>
  <line id="right-margin-Regular-S" style="fill:none;stroke:#00AEEF;stroke-width:0.5;opacity:1.0;" x1="1528.82" x2="1528.82" y1="600.785" y2="720.121"/>
  <line id="left-margin-Medium-S" style="fill:none;stroke:#00AEEF;stroke-width:0.5;opacity:1.0;" x1="1667.31" x2="1667.31" y1="600.785" y2="720.121"/>
  <line id="right-margin-Medium-S" style="fill:none;stroke:#00AEEF;stroke-width:0.5;opacity:1.0;" x1="1825.8" x2="1825.8" y1="600.785" y2="720.121"/>
  <line id="left-margin-Semibold-S" style="fill:none;stroke:#00AEEF;stroke-width:0.5;opacity:1.0;" x1="1963.8" x2="1963.8" y1="600.785" y2="720.121"/>
  <line id="right-margin-Semibold-S" style="fill:none;stroke:#00AEEF;stroke-width:0.5;opacity:1.0;" x1="2122.73" x2="2122.73" y1="600.785" y2="720.121"/>
  <line id="left-margin-Bold-S" style="fill:none;stroke:#00AEEF;stroke-width:0.5;opacity:1.0;" x1="2260.24" x2="2260.24" y1="600.785" y2="720.121"/>
  <line id="right-margin-Bold-S" style="fill:none;stroke:#00AEEF;stroke-width:0.5;opacity:1.0;" x1="2419.71" x2="2419.71" y1="600.785" y2="720.121"/>
  <line id="left-margin-Heavy-S" style="fill:none;stroke:#00AEEF;stroke-width:0.5;opacity:1.0;" x1="2556.56" x2="2556.56" y1="600.785" y2="720.121"/>
  <line id="right-margin-Heavy-S" style="fill:none;stroke:#00AEEF;stroke-width:0.5;opacity:1.0;" x1="2716.82" x2="2716.82" y1="600.785" y2="720.121"/>
  <line id="left-margin-Black-S" style="fill:none;stroke:#00AEEF;stroke-width:0.5;opacity:1.0;" x1="2852.91" x2="2852.91" y1="600.785" y2="720.121"/>
  <line id="right-margin-Black-S" style="fill:none;stroke:#00AEEF;stroke-width:0.5;opacity:1.0;" x1="3013.89" x2="3013.89" y1="600.785" y2="720.121"/>
  <line id="left-margin-Ultralight-M" style="fill:none;stroke:#00AEEF;stroke-width:0.5;opacity:1.0;" x1="465.619" x2="465.619" y1="1030.79" y2="1150.12"/>
  <line id="right-margin-Ultralight-M" style="fill:none;stroke:#00AEEF;stroke-width:0.5;opacity:1.0;" x1="653.803" x2="653.803" y1="1030.79" y2="1150.12"/>
  <line id="left-margin-Thin-M" style="fill:none;stroke:#00AEEF;stroke-width:0.5;opacity:1.0;" x1="761.061" x2="761.061" y1="1030.79" y2="1150.12"/>
  <line id="right-margin-Thin-M" style="fill:none;stroke:#00AEEF;stroke-width:0.5;opacity:1.0;" x1="951.784" x2="951.784" y1="1030.79" y2="1150.12"/>
  <line id="left-margin-Light-M" style="fill:none;stroke:#00AEEF;stroke-width:0.5;opacity:1.0;" x1="1055.33" x2="1055.33" y1="1030.79" y2="1150.12"/>
  <line id="right-margin-Light-M" style="fill:none;stroke:#00AEEF;stroke-width:0.5;opacity:1.0;" x1="1250.94" x2="1250.94" y1="1030.79" y2="1150.12"/>
  <line id="left-margin-Regular-M" style="fill:none;stroke:#00AEEF;stroke-width:0.5;opacity:1.0;" x1="1350.19" x2="1350.19" y1="1030.79" y2="1150.12"/>
  <line id="right-margin-Regular-M" style="fill:none;stroke:#00AEEF;stroke-width:0.5;opacity:1.0;" x1="1549.5" x2="1549.5" y1="1030.79" y2="1150.12"/>
  <line id="left-margin-Medium-M" style="fill:none;stroke:#00AEEF;stroke-width:0.5;opacity:1.0;" x1="1646.36" x2="1646.36" y1="1030.79" y2="1150.12"/>
  <line id="right-margin-Medium-M" style="fill:none;stroke:#00AEEF;stroke-width:0.5;opacity:1.0;" x1="1846.75" x2="1846.75" y1="1030.79" y2="1150.12"/>
  <line id="left-margin-Semibold-M" style="fill:none;stroke:#00AEEF;stroke-width:0.5;opacity:1.0;" x1="1942.68" x2="1942.68" y1="1030.79" y2="1150.12"/>
  <line id="right-margin-Semibold-M" style="fill:none;stroke:#00AEEF;stroke-width:0.5;opacity:1.0;" x1="2143.85" x2="2143.85" y1="1030.79" y2="1150.12"/>
  <line id="left-margin-Bold-M" style="fill:none;stroke:#00AEEF;stroke-width:0.5;opacity:1.0;" x1="2238.85" x2="2238.85" y1="1030.79" y2="1150.12"/>
  <line id="right-margin-Bold-M" style="fill:none;stroke:#00AEEF;stroke-width:0.5;opacity:1.0;" x1="2441.1" x2="2441.1" y1="1030.79" y2="1150.12"/>
  <line id="left-margin-Heavy-M" style="fill:none;stroke:#00AEEF;stroke-width:0.5;opacity:1.0;" x1="2534.78" x2="2534.78" y1="1030.79" y2="1150.12"/>
  <line id="right-margin-Heavy-M" style="fill:none;stroke:#00AEEF;stroke-width:0.5;opacity:1.0;" x1="2738.59" x2="2738.59" y1="1030.79" y2="1150.12"/>
  <line id="left-margin-Black-M" style="fill:none;stroke:#00AEEF;stroke-width:0.5;opacity:1.0;" x1="2830.81" x2="2830.81" y1="1030.79" y2="1150.12"/>
  <line id="right-margin-Black-M" style="fill:none;stroke:#00AEEF;stroke-width:0.5;opacity:1.0;" x1="3035.99" x2="3035.99" y1="1030.79" y2="1150.12"/>
  <line id="left-margin-Ultralight-L" style="fill:none;stroke:#00AEEF;stroke-width:0.5;opacity:1.0;" x1="438.837" x2="438.837" y1="1460.79" y2="1580.12"/>
  <line id="right-margin-Ultralight-L" style="fill:none;stroke:#00AEEF;stroke-width:0.5;opacity:1.0;" x1="680.585" x2="680.585" y1="1460.79" y2="1580.12"/>
  <line id="left-margin-Thin-L" style="fill:none;stroke:#00AEEF;stroke-width:0.5;opacity:1.0;" x1="734.157" x2="734.157" y1="1460.79" y2="1580.12"/>
  <line id="right-margin-Thin-L" style="fill:none;stroke:#00AEEF;stroke-width:0.5;opacity:1.0;" x1="978.688" x2="978.688" y1="1460.79" y2="1580.12"/>
  <line id="left-margin-Light-L" style="fill:none;stroke:#00AEEF;stroke-width:0.5;opacity:1.0;" x1="1028.13" x2="1028.13" y1="1460.79" y2="1580.12"/>
  <line id="right-margin-Light-L" style="fill:none;stroke:#00AEEF;stroke-width:0.5;opacity:1.0;" x1="1278.13" x2="1278.13" y1="1460.79" y2="1580.12"/>
  <line id="left-margin-Regular-L" style="fill:none;stroke:#00AEEF;stroke-width:0.5;opacity:1.0;" x1="1322.77" x2="1322.77" y1="1460.79" y2="1580.12"/>
  <line id="right-margin-Regular-L" style="fill:none;stroke:#00AEEF;stroke-width:0.5;opacity:1.0;" x1="1576.92" x2="1576.92" y1="1460.79" y2="1580.12"/>
  <line id="left-margin-Medium-L" style="fill:none;stroke:#00AEEF;stroke-width:0.5;opacity:1.0;" x1="1618.6" x2="1618.6" y1="1460.79" y2="1580.12"/>
  <line id="right-margin-Medium-L" style="fill:none;stroke:#00AEEF;stroke-width:0.5;opacity:1.0;" x1="1874.51" x2="1874.51" y1="1460.79" y2="1580.12"/>
  <line id="left-margin-Semibold-L" style="fill:none;stroke:#00AEEF;stroke-width:0.5;opacity:1.0;" x1="1914.63" x2="1914.63" y1="1460.79" y2="1580.12"/>
  <line id="right-margin-Semibold-L" style="fill:none;stroke:#00AEEF;stroke-width:0.5;opacity:1.0;" x1="2171.9" x2="2171.9" y1="1460.79" y2="1580.12"/>
  <line id="left-margin-Bold-L" style="fill:none;stroke:#00AEEF;stroke-width:0.5;opacity:1.0;" x1="2210.44" x2="2210.44" y1="1460.79" y2="1580.12"/>
  <line id="right-margin-Bold-L" style="fill:none;stroke:#00AEEF;stroke-width:0.5;opacity:1.0;" x1="2469.52" x2="2469.52" y1="1460.79" y2="1580.12"/>
  <line id="left-margin-Heavy-L" style="fill:none;stroke:#00AEEF;stroke-width:0.5;opacity:1.0;" x1="2505.85" x2="2505.85" y1="1460.79" y2="1580.12"/>
  <line id="right-margin-Heavy-L" style="fill:none;stroke:#00AEEF;stroke-width:0.5;opacity:1.0;" x1="2767.52" x2="2767.52" y1="1460.79" y2="1580.12"/>
  <line id="left-margin-Black-L" style="fill:none;stroke:#00AEEF;stroke-width:0.5;opacity:1.0;" x1="2801.42" x2="2801.42" y1="1460.79" y2="1580.12"/>
  <line id="right-margin-Black-L" style="fill:none;stroke:#00AEEF;stroke-width:0.5;opacity:1.0;" x1="3065.38" x2="3065.38" y1="1460.79" y2="1580.12"/>
 </g>
 <g id="Symbols">
  <g id="Black-L" transform="matrix(1 0 0 1 2801.42 1556)">
   <path class="hierarchical-0:secondary SFSymbolsPreview4D4D4D" d="M137.451-49.8047L148.926-29.9316L151.172-33.8379Q152.637-33.2031 154.321-32.4219Q156.006-31.6406 157.861-30.6152Q162.646-27.7832 166.626-23.9746Q170.605-20.166 174.39-15.9912Q178.174-11.8164 182.446-7.8125Q186.719-3.80859 192.139-0.683594Q196.533 1.85547 200.659 3.41797Q204.785 4.98047 208.252 5.27344Q212.402 5.66406 215.771 4.19922Q219.141 2.73438 221.338-1.07422L246.387-44.4824Q248.877-48.877 247.412-53.1006Q245.947-57.3242 241.65-59.8145Q239.307-61.1328 235.522-62.5Q231.738-63.8672 227.49-66.3086Q222.656-69.1406 218.701-72.9492Q214.746-76.7578 210.962-80.9326Q207.178-85.1074 202.905-89.0869Q198.633-93.0664 193.213-96.2402Q188.818-98.7793 184.692-100.317Q180.566-101.855 177.1-102.197Q172.949-102.539 169.604-101.074Q166.26-99.6094 164.014-95.752ZM161.23-51.2695L178.418-81.0547Q179.297-80.8594 180.176-80.4688Q181.055-80.0781 181.787-79.6875Q182.52-79.2969 183.057-78.9551Q187.842-76.3184 191.528-72.7051Q195.215-69.0918 198.828-64.9902Q202.441-60.8887 206.909-56.7871Q211.377-52.6855 217.627-49.0723Q219.189-48.1934 220.923-47.2168Q222.656-46.2402 224.121-45.6055L206.934-15.8691Q206.055-16.0645 205.176-16.4307Q204.297-16.7969 203.564-17.1875Q202.832-17.5781 202.295-17.9199Q197.51-20.5566 193.823-24.1699Q190.137-27.7832 186.523-31.8848Q182.91-35.9863 178.442-40.0879Q173.975-44.1895 167.725-47.7539Q166.162-48.6816 164.429-49.6338Q162.695-50.5859 161.23-51.2695ZM126.465 8.88672L115.039-11.0352L99.6094 15.7227Q97.5586 19.2871 98.6328 23.2666Q99.707 27.2461 103.223 29.3457Q106.787 31.4941 110.767 30.3467Q114.746 29.1992 116.797 25.6348Z"/>
   <path class="hierarchical-1:primary SFSymbolsPreview212121" d="M164.404 15.7227L100-95.752Q97.7539-99.6094 94.4092-101.074Q91.0645-102.539 86.9141-102.197Q83.4473-101.855 79.2969-100.317Q75.1465-98.7793 70.8008-96.2402Q65.332-93.0664 61.084-89.0869Q56.8359-85.1074 53.0273-80.9326Q49.2188-76.7578 45.2637-72.9492Q41.3086-69.1406 36.4746-66.3086Q32.2266-63.8672 28.4424-62.5Q24.6582-61.1328 22.3145-59.8145Q18.0176-57.3242 16.5527-53.1006Q15.0879-48.877 17.627-44.4824L42.627-1.07422Q44.8242 2.73438 48.1934 4.19922Q51.5625 5.66406 55.7129 5.27344Q59.1797 4.98047 63.3301 3.41797Q67.4805 1.85547 71.8262-0.683594Q77.2461-3.80859 81.5186-7.8125Q85.791-11.8164 89.5996-15.9912Q93.4082-20.166 97.3633-23.9746Q101.318-27.7832 106.152-30.6152Q107.959-31.6406 109.668-32.4219Q111.377-33.2031 112.842-33.8379L147.168 25.6348Q149.219 29.1992 153.198 30.3467Q157.178 31.4941 160.791 29.3457Q164.307 27.2461 165.356 23.2666Q166.406 19.2871 164.404 15.7227Z"/>
  </g>
  <g id="Heavy-L" transform="matrix(1 0 0 1 2505.85 1556)">
   <path class="hierarchical-0:secondary SFSymbolsPreview4D4D4D" d="M135.986-48.9746L145.85-31.8848L148.047-35.6934Q149.658-35.0586 151.782-34.1309Q153.906-33.2031 156.299-31.8848Q161.328-28.9062 165.405-25.0244Q169.482-21.1426 173.315-16.9189Q177.148-12.6953 181.421-8.66699Q185.693-4.63867 191.26-1.46484Q195.361 0.976562 199.341 2.49023Q203.32 4.00391 206.641 4.29688Q210.547 4.63867 213.745 3.27148Q216.943 1.9043 219.043-1.75781L244.238-45.4102Q246.436-49.3164 245.142-53.0029Q243.848-56.6895 240.039-58.8867Q237.744-60.1562 233.887-61.5479Q230.029-62.9395 225.586-65.4785Q220.508-68.4082 216.455-72.29Q212.402-76.1719 208.594-80.3955Q204.785-84.6191 200.488-88.6475Q196.191-92.6758 190.674-95.8984Q186.523-98.291 182.544-99.8047Q178.564-101.318 175.244-101.611Q171.338-101.953 168.188-100.586Q165.039-99.2188 162.842-95.5078ZM156.738-50.7812L175.684-83.5938Q176.904-83.3984 178.125-82.9102Q179.346-82.4219 180.347-81.9092Q181.348-81.3965 181.934-81.0059Q186.914-78.2227 190.723-74.5117Q194.531-70.8008 198.218-66.6504Q201.904-62.5 206.372-58.374Q210.84-54.248 217.09-50.6348Q218.896-49.6094 221.045-48.4375Q223.193-47.2656 225.146-46.5332L206.25-13.7695Q204.98-13.916 203.76-14.4043Q202.539-14.8926 201.562-15.4053Q200.586-15.918 199.951-16.2598Q194.971-19.043 191.162-22.7783Q187.354-26.5137 183.691-30.6641Q180.029-34.8145 175.537-38.9404Q171.045-43.0664 164.795-46.6309Q162.988-47.7051 160.84-48.8525Q158.691-50 156.738-50.7812ZM125.635 3.07617L115.771-14.1113L97.6074 17.3828Q95.8496 20.459 96.7773 23.9014Q97.7051 27.3438 100.732 29.1504Q103.809 31.0059 107.227 30.0049Q110.645 29.0039 112.402 25.9277Z"/>
   <path class="hierarchical-1:primary SFSymbolsPreview212121" d="M164.062 17.3828L98.8281-95.5078Q96.6797-99.2188 93.5059-100.586Q90.332-101.953 86.4258-101.611Q83.1055-101.318 79.1016-99.8047Q75.0977-98.291 70.9961-95.8984Q65.4785-92.6758 61.1816-88.6475Q56.8848-84.6191 53.0518-80.3955Q49.2188-76.1719 45.166-72.29Q41.1133-68.4082 36.0352-65.4785Q31.5918-62.9395 27.7344-61.5479Q23.877-60.1562 21.582-58.8867Q17.8223-56.6895 16.5039-53.0029Q15.1855-49.3164 17.4316-45.4102L42.5781-1.75781Q44.7266 1.9043 47.9004 3.27148Q51.0742 4.63867 54.9805 4.29688Q58.3008 4.00391 62.3047 2.49023Q66.3086 0.976562 70.4102-1.46484Q75.9277-4.63867 80.2246-8.66699Q84.5215-12.6953 88.3545-16.9189Q92.1875-21.1426 96.2402-25.0244Q100.293-28.9062 105.371-31.8848Q107.715-33.2031 109.863-34.1309Q112.012-35.0586 113.623-35.6934L149.219 25.9277Q150.977 29.0039 154.395 30.0049Q157.812 31.0059 160.938 29.1504Q163.965 27.3438 164.868 23.9014Q165.771 20.459 164.062 17.3828Z"/>
  </g>
  <g id="Bold-L" transform="matrix(1 0 0 1 2210.44 1556)">
   <path class="hierarchical-0:secondary SFSymbolsPreview4D4D4D" d="M134.326-48.0957L142.432-34.082L144.531-37.793Q146.387-37.1094 148.999-36.0596Q151.611-35.0098 154.59-33.3008Q159.912-30.1758 164.087-26.2207Q168.262-22.2656 172.119-17.9932Q175.977-13.7207 180.298-9.64355Q184.619-5.56641 190.234-2.29492Q194.092-0.0488281 197.925 1.44043Q201.758 2.92969 204.883 3.22266Q208.496 3.56445 211.499 2.27051Q214.502 0.976562 216.504-2.53906L241.846-46.4355Q243.75-49.8047 242.627-52.9053Q241.504-56.0059 238.281-57.9102Q236.035-59.1309 232.08-60.498Q228.125-61.8652 223.486-64.5508Q218.164-67.627 213.989-71.6064Q209.814-75.5859 205.957-79.8584Q202.1-84.1309 197.778-88.1836Q193.457-92.2363 187.842-95.5078Q183.984-97.7539 180.151-99.2188Q176.318-100.684 173.193-101.025Q169.58-101.318 166.602-100.049Q163.623-98.7793 161.572-95.2148ZM151.709-50.1953L172.607-86.4258Q174.268-86.2793 175.879-85.6689Q177.49-85.0586 178.76-84.3994Q180.029-83.7402 180.713-83.3496Q185.889-80.4199 189.844-76.5869Q193.799-72.7539 197.559-68.5303Q201.318-64.3066 205.811-60.1318Q210.303-55.957 216.504-52.3926Q218.604-51.1719 221.216-49.8291Q223.828-48.4863 226.367-47.6074L205.469-11.4258Q203.809-11.5723 202.197-12.1582Q200.586-12.7441 199.316-13.4033Q198.047-14.0625 197.363-14.4531Q192.188-17.3828 188.232-21.2158Q184.277-25.0488 180.518-29.2725Q176.758-33.4961 172.266-37.6709Q167.773-41.8457 161.572-45.4102Q159.473-46.6309 156.86-47.9736Q154.248-49.3164 151.709-50.1953ZM124.707-3.4668L116.65-17.5293L95.4102 19.2871Q93.9941 21.8262 94.751 24.6338Q95.5078 27.4414 97.998 28.9062Q100.488 30.4199 103.296 29.6143Q106.104 28.8086 107.52 26.3184Z"/>
   <path class="hierarchical-1:primary SFSymbolsPreview212121" d="M163.672 19.2871L97.5098-95.2148Q95.459-98.7793 92.5049-100.049Q89.5508-101.318 85.8887-101.025Q82.7637-100.684 78.9307-99.2188Q75.0977-97.7539 71.2402-95.5078Q65.625-92.2363 61.3037-88.1836Q56.9824-84.1309 53.1006-79.8584Q49.2188-75.5859 45.0684-71.6064Q40.918-67.627 35.5957-64.5508Q30.9082-61.8652 26.9531-60.498Q22.998-59.1309 20.8008-57.9102Q17.5781-56.0059 16.4551-52.9053Q15.332-49.8047 17.2363-46.4355L42.5781-2.53906Q44.5801 0.976562 47.583 2.27051Q50.5859 3.56445 54.1992 3.22266Q57.3242 2.92969 61.1572 1.44043Q64.9902-0.0488281 68.7988-2.29492Q74.4629-5.56641 78.7842-9.64355Q83.1055-13.7207 86.9873-17.9932Q90.8691-22.2656 95.0195-26.2207Q99.1699-30.1758 104.492-33.3008Q107.471-35.0098 110.107-36.0596Q112.744-37.1094 114.551-37.793L151.562 26.3184Q152.979 28.8086 155.762 29.6143Q158.545 30.4199 161.133 28.9062Q163.574 27.4414 164.331 24.6338Q165.088 21.8262 163.672 19.2871Z"/>
  </g>
  <g id="Semibold-L" transform="matrix(1 0 0 1 1914.63 1556)">
   <path class="hierarchical-0:secondary SFSymbolsPreview4D4D4D" d="M133.203-47.4609L140.039-35.5957L142.09-39.209Q144.092-38.4766 147.046-37.3291Q150-36.1816 153.418-34.2285Q158.887-31.0547 163.135-27.0264Q167.383-22.998 171.265-18.7012Q175.146-14.4043 179.492-10.3027Q183.838-6.20117 189.551-2.88086Q193.213-0.732422 196.924 0.708008Q200.635 2.14844 203.662 2.44141Q207.08 2.7832 209.937 1.5625Q212.793 0.341797 214.746-3.07617L240.137-47.168Q241.846-50.0977 240.845-52.8076Q239.844-55.5176 237.012-57.1777Q234.863-58.3496 230.835-59.7412Q226.807-61.1328 221.973-63.8672Q216.504-67.0898 212.256-71.1182Q208.008-75.1465 204.126-79.4434Q200.244-83.7402 195.898-87.8174Q191.553-91.8945 185.84-95.2637Q182.178-97.3633 178.467-98.8037Q174.756-100.244 171.729-100.586Q168.311-100.879 165.479-99.6582Q162.646-98.4375 160.693-94.9707ZM148.242-49.8047L170.508-88.3301Q172.412-88.2324 174.292-87.5488Q176.172-86.8652 177.637-86.1084Q179.102-85.3516 179.883-84.9121Q185.156-81.8848 189.209-77.9785Q193.262-74.0723 197.095-69.7998Q200.928-65.5273 205.396-61.3281Q209.863-57.1289 216.113-53.5645Q218.408-52.2461 221.313-50.7568Q224.219-49.2676 227.148-48.291L204.883-9.81445Q202.979-9.91211 201.099-10.5713Q199.219-11.2305 197.754-11.9873Q196.289-12.7441 195.557-13.1836Q190.234-16.2109 186.182-20.1416Q182.129-24.0723 178.32-28.3203Q174.512-32.5684 170.02-36.7676Q165.527-40.9668 159.277-44.5312Q156.982-45.8496 154.077-47.3633Q151.172-48.877 148.242-49.8047ZM124.072-7.91016L117.188-19.873L93.8965 20.6055Q92.6758 22.7051 93.3105 25.0977Q93.9453 27.4902 96.0449 28.7598Q98.1934 30.0293 100.562 29.3457Q102.93 28.6621 104.15 26.5137Z"/>
   <path class="hierarchical-1:primary SFSymbolsPreview212121" d="M163.428 20.6055L96.582-94.9707Q94.6289-98.4375 91.7969-99.6582Q88.9648-100.879 85.498-100.586Q82.5195-100.244 78.7842-98.8037Q75.0488-97.3633 71.3867-95.2637Q65.7227-91.8945 61.3525-87.8174Q56.9824-83.7402 53.1006-79.4434Q49.2188-75.1465 44.9707-71.1182Q40.7227-67.0898 35.2539-63.8672Q30.4199-61.1328 26.416-59.7412Q22.4121-58.3496 20.2637-57.1777Q17.3828-55.5176 16.3818-52.8076Q15.3809-50.0977 17.0898-47.168L42.5293-3.07617Q44.4824 0.341797 47.3389 1.5625Q50.1953 2.7832 53.6133 2.44141Q56.6406 2.14844 60.3516 0.708008Q64.0625-0.732422 67.6758-2.88086Q73.4375-6.20117 77.7832-10.3027Q82.1289-14.4043 86.0107-18.7012Q89.8926-22.998 94.1406-27.0264Q98.3887-31.0547 103.906-34.2285Q107.275-36.1816 110.254-37.3291Q113.232-38.4766 115.137-39.209L153.125 26.5137Q154.346 28.6621 156.689 29.3457Q159.033 30.0293 161.23 28.7598Q163.33 27.4902 163.965 25.0977Q164.6 22.7051 163.428 20.6055Z"/>
  </g>
  <g id="Medium-L" transform="matrix(1 0 0 1 1618.6 1556)">
   <path class="hierarchical-0:secondary SFSymbolsPreview4D4D4D" d="M132.324-46.9727L138.232-36.7188L140.283-40.2832Q142.334-39.5508 145.557-38.3301Q148.779-37.1094 152.49-34.9609Q158.105-31.6895 162.402-27.6367Q166.699-23.584 170.605-19.2383Q174.512-14.8926 178.882-10.791Q183.252-6.68945 189.014-3.32031Q192.529-1.26953 196.143 0.146484Q199.756 1.5625 202.734 1.85547Q206.006 2.19727 208.74 1.02539Q211.475-0.146484 213.428-3.4668L238.916-47.7051Q240.43-50.3418 239.526-52.7588Q238.623-55.1758 236.084-56.6406Q233.936-57.8125 229.883-59.2041Q225.83-60.5957 220.898-63.3789Q215.234-66.6504 210.938-70.7275Q206.641-74.8047 202.734-79.126Q198.828-83.4473 194.482-87.5488Q190.137-91.6504 184.375-95.0195Q180.859-97.1191 177.222-98.5352Q173.584-99.9512 170.654-100.244Q167.383-100.537 164.648-99.3652Q161.914-98.1934 160.01-94.8242ZM145.605-49.5117L168.896-89.8438Q170.996-89.6973 173.071-88.9648Q175.146-88.2324 176.782-87.4023Q178.418-86.5723 179.199-86.1328Q184.619-83.0078 188.745-79.0283Q192.871-75.0488 196.729-70.752Q200.586-66.4551 205.078-62.2559Q209.57-58.0566 215.771-54.4922Q218.213-53.0762 221.387-51.4893Q224.561-49.9023 227.783-48.8281L204.492-8.59375Q202.393-8.64258 200.293-9.375Q198.193-10.1074 196.582-10.9375Q194.971-11.7676 194.189-12.2559Q188.721-15.332 184.595-19.3115Q180.469-23.291 176.636-27.5879Q172.803-31.8848 168.311-36.084Q163.818-40.2832 157.617-43.8477Q155.127-45.2637 151.978-46.875Q148.828-48.4863 145.605-49.5117ZM123.584-11.3281L117.627-21.6309L92.7246 21.582Q91.6504 23.3887 92.2119 25.4883Q92.7734 27.5879 94.6289 28.6133Q96.4355 29.7363 98.4863 29.1504Q100.537 28.5645 101.562 26.709Z"/>
   <path class="hierarchical-1:primary SFSymbolsPreview212121" d="M163.184 21.582L95.8984-94.8242Q93.9941-98.1934 91.2598-99.3652Q88.5254-100.537 85.2539-100.244Q82.3242-99.9512 78.6865-98.5352Q75.0488-97.1191 71.5332-95.0195Q65.7715-91.6504 61.4014-87.5488Q57.0312-83.4473 53.125-79.126Q49.2188-74.8047 44.9219-70.7275Q40.625-66.6504 35.0098-63.3789Q30.0781-60.5957 26.001-59.2041Q21.9238-57.8125 19.8242-56.6406Q17.2363-55.1758 16.333-52.7588Q15.4297-50.3418 16.9922-47.7051L42.5293-3.4668Q44.4336-0.146484 47.168 1.02539Q49.9023 2.19727 53.1738 1.85547Q56.1523 1.5625 59.7656 0.146484Q63.3789-1.26953 66.8457-3.32031Q72.6562-6.68945 77.0264-10.791Q81.3965-14.8926 85.3027-19.2383Q89.209-23.584 93.5059-27.6367Q97.8027-31.6895 103.418-34.9609Q107.178-37.1094 110.376-38.3301Q113.574-39.5508 115.625-40.2832L154.346 26.709Q155.371 28.5645 157.397 29.1504Q159.424 29.7363 161.328 28.6133Q163.086 27.5879 163.672 25.4883Q164.258 23.3887 163.184 21.582Z"/>
  </g>
  <g id="Regular-L" transform="matrix(1 0 0 1 1322.77 1556)">
   <path class="hierarchical-0:secondary SFSymbolsPreview4D4D4D" d="M131.201-46.3379L135.889-38.2324L137.891-41.6992Q140.088-40.9668 143.628-39.6484Q147.168-38.3301 151.318-35.9375Q157.129-32.5684 161.499-28.4424Q165.869-24.3164 169.8-19.9463Q173.73-15.5762 178.101-11.4502Q182.471-7.32422 188.33-3.90625Q191.65-1.95312 195.166-0.561523Q198.682 0.830078 201.514 1.12305Q204.59 1.41602 207.202 0.317383Q209.814-0.78125 211.67-4.00391L237.256-48.3887Q238.574-50.6836 237.793-52.6855Q237.012-54.6875 234.863-55.957Q232.764-57.0801 228.638-58.4717Q224.512-59.8633 219.434-62.7441Q213.623-66.1133 209.253-70.2393Q204.883-74.3652 200.952-78.7354Q197.021-83.1055 192.651-87.2314Q188.281-91.3574 182.422-94.7754Q179.102-96.7285 175.586-98.1201Q172.07-99.5117 169.238-99.8047Q166.162-100.098 163.574-98.999Q160.986-97.9004 159.131-94.6289ZM142.188-49.1211L166.797-91.748Q169.189-91.6504 171.533-90.8447Q173.877-90.0391 175.708-89.1113Q177.539-88.1836 178.369-87.6953Q183.936-84.4727 188.159-80.4199Q192.383-76.3672 196.289-72.0215Q200.195-67.6758 204.688-63.4521Q209.18-59.2285 215.381-55.6641Q218.018-54.1504 221.484-52.417Q224.951-50.6836 228.564-49.5605L203.955-6.98242Q201.562-7.03125 199.219-7.83691Q196.875-8.64258 195.068-9.57031Q193.262-10.498 192.432-10.9863Q186.816-14.209 182.593-18.2617Q178.369-22.3145 174.487-26.6602Q170.605-31.0059 166.089-35.2295Q161.572-39.4531 155.371-43.0176Q152.734-44.5312 149.268-46.2891Q145.801-48.0469 142.188-49.1211ZM122.949-15.7715L118.213-23.9746L91.2109 22.8516Q90.3809 24.3164 90.8203 25.9766Q91.2598 27.6367 92.7246 28.4668Q94.1895 29.3457 95.8008 28.8818Q97.4121 28.418 98.2422 26.9531Z"/>
   <path class="hierarchical-1:primary SFSymbolsPreview212121" d="M162.939 22.8516L95.0195-94.6289Q93.1641-97.9004 90.5762-98.999Q87.9883-100.098 84.8633-99.8047Q82.0801-99.5117 78.54-98.1201Q75-96.7285 71.6797-94.7754Q65.8691-91.3574 61.4746-87.2314Q57.0801-83.1055 53.1494-78.7354Q49.2188-74.3652 44.8486-70.2393Q40.4785-66.1133 34.668-62.7441Q29.5898-59.8633 25.4639-58.4717Q21.3379-57.0801 19.2871-55.957Q17.0898-54.6875 16.3086-52.6855Q15.5273-50.6836 16.8457-48.3887L42.4805-4.00391Q44.3359-0.78125 46.9482 0.317383Q49.5605 1.41602 52.6367 1.12305Q55.4688 0.830078 58.9844-0.561523Q62.5-1.95312 65.7715-3.90625Q71.6309-7.32422 76.0254-11.4502Q80.4199-15.5762 84.3506-19.9463Q88.2812-24.3164 92.6514-28.4424Q97.0215-32.5684 102.832-35.9375Q106.982-38.3301 110.522-39.6484Q114.062-40.9668 116.211-41.6992L155.908 26.9531Q156.738 28.418 158.325 28.8818Q159.912 29.3457 161.426 28.4668Q162.842 27.6367 163.306 25.9766Q163.77 24.3164 162.939 22.8516Z"/>
  </g>
  <g id="Light-L" transform="matrix(1 0 0 1 1028.13 1556)">
   <path class="hierarchical-0:secondary SFSymbolsPreview4D4D4D" d="M128.809-45.9473L132.422-39.6484L134.18-42.7246Q136.279-42.041 140.137-40.6982Q143.994-39.3555 148.584-36.7188Q154.443-33.3008 158.862-29.1504Q163.281-25 167.212-20.6299Q171.143-16.2598 175.488-12.1582Q179.834-8.05664 185.596-4.6875Q188.77-2.7832 192.31-1.36719Q195.85 0.0488281 198.73 0.292969Q201.416 0.537109 203.613-0.341797Q205.811-1.2207 207.275-3.80859L233.252-48.8281Q234.326-50.7324 233.716-52.3926Q233.105-54.0527 231.25-55.127Q229.199-56.25 225.049-57.5928Q220.898-58.9355 215.723-61.8652Q209.814-65.332 205.396-69.4824Q200.977-73.6328 197.046-77.9785Q193.115-82.3242 188.794-86.4258Q184.473-90.5273 178.711-93.8965Q175.488-95.8008 171.948-97.2168Q168.408-98.6328 165.527-98.877Q162.891-99.1211 160.718-98.2422Q158.545-97.3633 157.031-94.7266ZM137.549-48.5352L163.037-92.7246Q165.625-92.6758 168.188-91.8213Q170.752-90.9668 172.729-89.9414Q174.707-88.916 175.586-88.4277Q181.104-85.2051 185.327-81.1523Q189.551-77.0996 193.457-72.7783Q197.363-68.457 201.88-64.2334Q206.396-60.0098 212.598-56.3965Q215.234-54.8828 218.799-53.1738Q222.363-51.4648 226.709-50.0977L201.221-5.95703Q198.633-5.95703 196.094-6.81152Q193.555-7.66602 191.577-8.66699Q189.6-9.66797 188.77-10.1562Q183.154-13.3789 178.931-17.4316Q174.707-21.4844 170.825-25.8301Q166.943-30.1758 162.427-34.3994Q157.91-38.623 151.709-42.1875Q149.072-43.7012 145.483-45.4102Q141.895-47.1191 137.549-48.5352ZM121.191-20.166L117.529-26.5625L88.7695 23.3887Q88.1348 24.5117 88.4766 25.8057Q88.8184 27.0996 89.9414 27.7344Q91.0645 28.3691 92.3096 28.0273Q93.5547 27.6855 94.1895 26.5625Z"/>
   <path class="hierarchical-1:primary SFSymbolsPreview212121" d="M161.23 23.3887L92.9688-94.7266Q91.5039-97.3633 89.3311-98.2422Q87.1582-99.1211 84.4727-98.877Q81.5918-98.6328 78.0273-97.2168Q74.4629-95.8008 71.2891-93.8965Q65.5273-90.5273 61.2061-86.4258Q56.8848-82.3242 52.9541-77.9785Q49.0234-73.6328 44.5801-69.4824Q40.1367-65.332 34.2285-61.8652Q29.1016-58.9355 24.9512-57.5928Q20.8008-56.25 18.75-55.127Q16.8945-54.0527 16.2598-52.3926Q15.625-50.7324 16.748-48.8281L42.7246-3.80859Q44.2383-1.2207 46.4355-0.341797Q48.6328 0.537109 51.2695 0.292969Q54.1504 0.0488281 57.6904-1.36719Q61.2305-2.7832 64.3555-4.6875Q70.166-8.05664 74.5117-12.1582Q78.8574-16.2598 82.7881-20.6299Q86.7188-25 91.1377-29.1504Q95.5566-33.3008 101.465-36.7188Q106.055-39.3555 109.888-40.6982Q113.721-42.041 115.771-42.7246L155.811 26.5625Q156.494 27.6855 157.715 28.0273Q158.936 28.3691 160.107 27.7344Q161.182 27.0996 161.548 25.8057Q161.914 24.5117 161.23 23.3887Z"/>
  </g>
  <g id="Thin-L" transform="matrix(1 0 0 1 734.157 1556)">
   <path class="hierarchical-0:secondary SFSymbolsPreview4D4D4D" d="M125.635-45.4102L127.881-41.5527L129.297-44.0918Q131.25-43.5059 135.498-42.0898Q139.746-40.6738 144.922-37.7441Q150.928-34.2285 155.42-30.0537Q159.912-25.8789 163.843-21.5088Q167.773-17.1387 172.046-13.0859Q176.318-9.0332 181.982-5.71289Q184.961-3.90625 188.525-2.46582Q192.09-1.02539 195.068-0.830078Q197.168-0.634766 198.828-1.2207Q200.488-1.80664 201.514-3.56445L227.93-49.3652Q228.711-50.7324 228.32-51.9775Q227.93-53.2227 226.514-54.0527Q224.512-55.127 220.288-56.4453Q216.064-57.7637 210.84-60.7422Q204.785-64.2578 200.293-68.4326Q195.801-72.6074 191.87-76.9531Q187.939-81.2988 183.691-85.376Q179.443-89.4531 173.779-92.7734Q170.752-94.5801 167.163-96.0205Q163.574-97.4609 160.596-97.6562Q158.545-97.8027 156.909-97.2656Q155.273-96.7285 154.248-94.9219ZM131.396-47.7051L158.105-93.9453Q160.938-93.9941 163.77-93.0664Q166.602-92.1387 168.799-91.0156Q170.996-89.8926 171.875-89.4043Q177.393-86.1816 181.616-82.1533Q185.84-78.125 189.746-73.8037Q193.652-69.4824 198.193-65.2588Q202.734-61.0352 208.936-57.4219Q211.572-55.8594 215.259-54.1992Q218.945-52.5391 224.268-50.7324L197.607-4.58984Q194.824-4.49219 191.992-5.39551Q189.16-6.29883 186.963-7.42188Q184.766-8.54492 183.936-9.08203Q178.32-12.3047 174.097-16.333Q169.873-20.3613 165.991-24.707Q162.109-29.0527 157.593-33.2764Q153.076-37.5 146.826-41.1133Q144.189-42.5781 140.454-44.2627Q136.719-45.9473 131.396-47.7051ZM118.896-26.0254L116.65-29.9316L85.498 24.0234Q85.1074 24.7559 85.3271 25.5371Q85.5469 26.3184 86.2305 26.7578Q86.9629 27.1484 87.6953 26.9287Q88.4277 26.709 88.8184 26.0254Z"/>
   <path class="hierarchical-1:primary SFSymbolsPreview212121" d="M158.984 24.0234L90.2832-94.9219Q89.2578-96.7285 87.6465-97.2656Q86.0352-97.8027 83.9355-97.6562Q80.957-97.4609 77.3926-96.0205Q73.8281-94.5801 70.752-92.7734Q65.1367-89.4531 60.8643-85.376Q56.5918-81.2988 52.6611-76.9531Q48.7305-72.6074 44.2383-68.4326Q39.7461-64.2578 33.6914-60.7422Q28.418-57.7637 24.2188-56.4453Q20.0195-55.127 18.0176-54.0527Q16.6016-53.2227 16.1865-51.9775Q15.7715-50.7324 16.6016-49.3652L43.0176-3.56445Q44.043-1.80664 45.7031-1.2207Q47.3633-0.634766 49.4141-0.830078Q52.4414-1.02539 56.0059-2.46582Q59.5703-3.90625 62.5488-5.71289Q68.1641-9.0332 72.4609-13.0859Q76.7578-17.1387 80.6885-21.5088Q84.6191-25.8789 89.1113-30.0537Q93.6035-34.2285 99.6094-37.7441Q104.785-40.6738 109.009-42.0898Q113.232-43.5059 115.234-44.0918L155.713 26.0254Q156.152 26.709 156.86 26.9287Q157.568 27.1484 158.35 26.7578Q158.984 26.3184 159.204 25.5371Q159.424 24.7559 158.984 24.0234Z"/>
  </g>
  <g id="Ultralight-L" transform="matrix(1 0 0 1 438.837 1556)">
   <path class="hierarchical-0:secondary SFSymbolsPreview4D4D4D" d="M124.023-45.1172L125.537-42.4805L126.807-44.7754Q128.711-44.2383 133.154-42.7979Q137.598-41.3574 143.066-38.2324Q149.121-34.7168 153.638-30.5176Q158.154-26.3184 162.085-21.9727Q166.016-17.627 170.264-13.5742Q174.512-9.52148 180.127-6.25Q183.008-4.44336 186.597-3.00293Q190.186-1.5625 193.213-1.36719Q195.02-1.26953 196.411-1.68457Q197.803-2.09961 198.535-3.4668L225.244-49.6582Q225.879-50.7812 225.586-51.7822Q225.293-52.7832 224.072-53.5156Q222.07-54.5898 217.847-55.8594Q213.623-57.1289 208.35-60.1562Q202.246-63.7207 197.705-67.9199Q193.164-72.1191 189.233-76.4648Q185.303-80.8105 181.079-84.8633Q176.855-88.916 171.24-92.1875Q168.311-93.9453 164.722-95.4102Q161.133-96.875 158.057-97.0215Q156.299-97.168 154.956-96.7529Q153.613-96.3379 152.832-94.9707ZM128.223-47.3145L155.566-94.6289Q158.496-94.6777 161.475-93.7256Q164.453-92.7734 166.772-91.6016Q169.092-90.4297 169.971-89.8926Q175.488-86.7188 179.712-82.666Q183.936-78.6133 187.842-74.292Q191.748-69.9707 196.289-65.7471Q200.83-61.5234 207.031-57.9102Q209.717-56.3965 213.452-54.7363Q217.188-53.0762 223.047-51.123L195.752-3.90625Q192.822-3.75977 189.844-4.71191Q186.865-5.66406 184.57-6.83594Q182.275-8.00781 181.445-8.54492Q175.83-11.7676 171.631-15.7959Q167.432-19.8242 163.525-24.1699Q159.619-28.5156 155.103-32.7393Q150.586-36.9629 144.336-40.5762Q141.699-42.041 137.866-43.6768Q134.033-45.3125 128.223-47.3145ZM117.725-29.0039L116.211-31.6895L83.8379 24.4141Q83.5938 24.9023 83.7402 25.4395Q83.8867 25.9766 84.3262 26.2207Q84.8145 26.4648 85.3027 26.3184Q85.791 26.1719 86.084 25.7324Z"/>
   <path class="hierarchical-1:primary SFSymbolsPreview212121" d="M157.861 24.4141L88.8672-94.9707Q88.1348-96.3379 86.792-96.7529Q85.4492-97.168 83.6426-97.0215Q80.6152-96.875 77.0264-95.4102Q73.4375-93.9453 70.459-92.1875Q64.8926-88.916 60.6689-84.8633Q56.4453-80.8105 52.5146-76.4648Q48.584-72.1191 44.043-67.9199Q39.502-63.7207 33.3984-60.1562Q28.0762-57.1289 23.877-55.8594Q19.6777-54.5898 17.6758-53.5156Q16.4551-52.7832 16.1621-51.7822Q15.8691-50.7812 16.5039-49.6582L43.1641-3.4668Q43.9941-2.09961 45.3613-1.68457Q46.7285-1.26953 48.4863-1.36719Q51.5625-1.5625 55.127-3.00293Q58.6914-4.44336 61.5723-6.25Q67.1875-9.52148 71.4355-13.5742Q75.6836-17.627 79.6143-21.9727Q83.5449-26.3184 88.0859-30.5176Q92.627-34.7168 98.6816-38.2324Q104.15-41.3574 108.594-42.7979Q113.037-44.2383 114.941-44.7754L155.615 25.7324Q155.957 26.1719 156.445 26.3184Q156.934 26.4648 157.422 26.2207Q157.861 25.9766 158.032 25.4395Q158.203 24.9023 157.861 24.4141Z"/>
  </g>
  <g id="Black-M" transform="matrix(1 0 0 1 2830.81 1126)">
   <path class="hierarchical-0:secondary SFSymbolsPreview4D4D4D" d="M106.982-47.1191L116.895-29.9316L118.555-32.9102Q119.531-32.4219 120.581-31.9336Q121.631-31.4453 122.705-30.8105Q126.27-28.7598 129.272-25.8545Q132.275-22.9492 135.205-19.751Q138.135-16.5527 141.406-13.501Q144.678-10.4492 148.73-8.05664Q152.344-6.00586 155.664-4.73633Q158.984-3.4668 161.816-3.27148Q165.137-2.97852 167.749-4.10156Q170.361-5.22461 172.021-8.10547L191.406-41.7969Q193.555-45.459 192.31-49.0723Q191.064-52.6855 187.451-54.7852Q185.596-55.8594 182.715-56.9092Q179.834-57.959 176.709-59.7656Q173.096-61.8164 170.093-64.7217Q167.09-67.627 164.185-70.8252Q161.279-74.0234 158.008-77.0752Q154.736-80.127 150.635-82.5195Q147.07-84.5703 143.726-85.8154Q140.381-87.0605 137.549-87.3047Q134.277-87.5488 131.665-86.4258Q129.053-85.3027 127.393-82.373ZM127.246-47.8516L139.355-68.8965Q139.795-68.75 140.234-68.5303Q140.674-68.3105 141.089-68.0664Q141.504-67.8223 141.895-67.5781Q145.41-65.6738 148.169-62.9639Q150.928-60.2539 153.662-57.1289Q156.396-54.0039 159.839-50.8545Q163.281-47.7051 168.164-44.9219Q169.141-44.3359 170.166-43.75Q171.191-43.1641 172.168-42.627L160.059-21.6797Q159.57-21.8262 159.131-22.0459Q158.691-22.2656 158.276-22.4854Q157.861-22.7051 157.52-22.9004Q154.004-24.8535 151.245-27.5635Q148.486-30.2734 145.728-33.3984Q142.969-36.5234 139.551-39.6729Q136.133-42.8223 131.25-45.6055Q130.273-46.1914 129.224-46.7773Q128.174-47.3633 127.246-47.8516ZM98.1445 2.44141L88.2812-14.7461L78.0762 3.02734Q76.3184 6.05469 77.2217 9.49707Q78.125 12.9395 81.1523 14.7461Q84.2285 16.6016 87.6709 15.6006Q91.1133 14.5996 92.9199 11.5234Z"/>
   <path class="hierarchical-1:primary SFSymbolsPreview212121" d="M127.1 3.02734L77.7832-82.373Q76.123-85.3027 73.5107-86.4258Q70.8984-87.5488 67.627-87.3047Q64.7949-87.0605 61.4502-85.8154Q58.1055-84.5703 54.541-82.5195Q50.4395-80.127 47.168-77.0752Q43.8965-74.0234 40.9912-70.8252Q38.0859-67.627 35.083-64.7217Q32.0801-61.8164 28.4668-59.7656Q25.3418-57.959 22.4609-56.9092Q19.5801-55.8594 17.7246-54.7852Q14.1113-52.6855 12.8662-49.0723Q11.6211-45.459 13.7695-41.7969L33.1543-8.10547Q34.8145-5.22461 37.4268-4.10156Q40.0391-2.97852 43.3594-3.27148Q46.1914-3.4668 49.5117-4.73633Q52.832-6.00586 56.3965-8.05664Q60.498-10.4492 63.7695-13.501Q67.041-16.5527 69.9463-19.751Q72.8516-22.9492 75.8789-25.8545Q78.9062-28.7598 82.4707-30.8105Q83.5449-31.4453 84.5947-31.9336Q85.6445-32.4219 86.6211-32.9102L112.256 11.5234Q114.062 14.5996 117.505 15.6006Q120.947 16.6016 124.023 14.7461Q127.051 12.9395 127.954 9.49707Q128.857 6.05469 127.1 3.02734Z"/>
  </g>
  <g id="Heavy-M" transform="matrix(1 0 0 1 2534.78 1126)">
   <path class="hierarchical-0:secondary SFSymbolsPreview4D4D4D" d="M106.055-46.3867L114.648-31.543L116.309-34.5215Q117.432-33.9844 118.848-33.374Q120.264-32.7637 121.777-31.8848Q125.586-29.6875 128.662-26.7334Q131.738-23.7793 134.692-20.5322Q137.646-17.2852 140.967-14.1846Q144.287-11.084 148.438-8.64258Q151.807-6.68945 154.98-5.46875Q158.154-4.24805 160.84-4.05273Q164.014-3.75977 166.553-4.8584Q169.092-5.95703 170.703-8.83789L190.186-42.5781Q192.09-45.8496 190.967-49.0234Q189.844-52.1973 186.621-54.0527Q184.863-55.0781 181.909-56.1523Q178.955-57.2266 175.635-59.1309Q171.826-61.2793 168.75-64.2578Q165.674-67.2363 162.72-70.4834Q159.766-73.7305 156.47-76.8311Q153.174-79.9316 148.975-82.373Q145.605-84.2773 142.407-85.498Q139.209-86.7188 136.523-86.9629Q133.447-87.207 130.908-86.1084Q128.369-85.0098 126.709-82.0801ZM123.828-47.5098L137.5-71.1426Q138.232-70.9961 138.965-70.7031Q139.697-70.4102 140.332-70.0684Q140.967-69.7266 141.406-69.4336Q145.117-67.3828 147.998-64.5752Q150.879-61.7676 153.687-58.5938Q156.494-55.4199 159.937-52.2461Q163.379-49.0723 168.262-46.2891Q169.482-45.5566 170.874-44.7754Q172.266-43.9941 173.584-43.457L159.961-19.8242Q159.18-19.9707 158.447-20.2881Q157.715-20.6055 157.08-20.9229Q156.445-21.2402 156.055-21.4844Q152.344-23.584 149.463-26.3916Q146.582-29.1992 143.75-32.373Q140.918-35.5469 137.476-38.7451Q134.033-41.9434 129.199-44.6777Q127.979-45.4102 126.538-46.1914Q125.098-46.9727 123.828-47.5098ZM97.7051-2.29492L89.1602-17.1875L76.6602 4.54102Q75.1465 7.17773 75.9277 10.1562Q76.709 13.1348 79.3457 14.6973Q81.9824 16.3086 84.9609 15.4541Q87.9395 14.5996 89.502 11.9141Z"/>
   <path class="hierarchical-1:primary SFSymbolsPreview212121" d="M127.148 4.54102L77.0996-82.0801Q75.4395-85.0098 72.9004-86.1084Q70.3613-87.207 67.2363-86.9629Q64.5996-86.7188 61.4014-85.498Q58.2031-84.2773 54.834-82.373Q50.6348-79.9316 47.3145-76.8311Q43.9941-73.7305 41.0645-70.4834Q38.1348-67.2363 35.0342-64.2578Q31.9336-61.2793 28.125-59.1309Q24.8535-57.2266 21.8994-56.1523Q18.9453-55.0781 17.1387-54.0527Q13.916-52.1973 12.8174-49.0234Q11.7188-45.8496 13.623-42.5781L33.0566-8.83789Q34.7168-5.95703 37.2559-4.8584Q39.7949-3.75977 42.9199-4.05273Q45.6055-4.24805 48.7793-5.46875Q51.9531-6.68945 55.3223-8.64258Q59.5215-11.084 62.8418-14.1846Q66.1621-17.2852 69.0918-20.5322Q72.0215-23.7793 75.1221-26.7334Q78.2227-29.6875 81.9824-31.8848Q83.5449-32.7637 84.9365-33.374Q86.3281-33.9844 87.5-34.5215L114.307 11.9141Q115.869 14.5996 118.823 15.4541Q121.777 16.3086 124.463 14.6973Q127.051 13.1348 127.856 10.1562Q128.662 7.17773 127.148 4.54102Z"/>
  </g>
  <g id="Bold-M" transform="matrix(1 0 0 1 2238.85 1126)">
   <path class="hierarchical-0:secondary SFSymbolsPreview4D4D4D" d="M105.029-45.6055L112.109-33.3496L113.77-36.3281Q115.137-35.7422 116.943-35.0098Q118.75-34.2773 120.801-33.1055Q124.805-30.7617 127.979-27.7344Q131.152-24.707 134.131-21.4111Q137.109-18.1152 140.454-14.9658Q143.799-11.8164 148.145-9.32617Q151.27-7.51953 154.272-6.34766Q157.275-5.17578 159.766-4.93164Q162.744-4.6875 165.186-5.71289Q167.627-6.73828 169.287-9.61914L188.818-43.5059Q190.43-46.3379 189.478-48.999Q188.525-51.6602 185.742-53.2715Q184.033-54.248 181.006-55.3223Q177.979-56.3965 174.463-58.4473Q170.41-60.7422 167.236-63.7939Q164.062-66.8457 161.084-70.1172Q158.105-73.3887 154.761-76.5381Q151.416-79.6875 147.07-82.2266Q143.994-83.9844 140.967-85.1562Q137.939-86.3281 135.449-86.5723Q132.471-86.8164 130.054-85.7666Q127.637-84.7168 125.977-81.7871ZM120.068-47.1191L135.4-73.6816Q136.475-73.584 137.549-73.1689Q138.623-72.7539 139.478-72.29Q140.332-71.8262 140.869-71.5332Q144.775-69.3359 147.803-66.4062Q150.83-63.4766 153.711-60.2295Q156.592-56.9824 160.059-53.7842Q163.525-50.5859 168.359-47.8027Q169.873-46.9238 171.68-45.9473Q173.486-44.9707 175.195-44.3359L159.863-17.8223Q158.74-17.9199 157.666-18.335Q156.592-18.75 155.737-19.1895Q154.883-19.6289 154.395-19.9219Q150.439-22.1191 147.437-25.0488Q144.434-27.9785 141.528-31.25Q138.623-34.5215 135.181-37.7197Q131.738-40.918 126.904-43.7012Q125.391-44.5801 123.535-45.5566Q121.68-46.5332 120.068-47.1191ZM97.2168-7.61719L90.1367-19.9219L75.0977 6.25Q73.8281 8.44727 74.4873 10.9131Q75.1465 13.3789 77.2949 14.6484Q79.541 15.9668 81.9824 15.2588Q84.4238 14.5508 85.6934 12.3535Z"/>
   <path class="hierarchical-1:primary SFSymbolsPreview212121" d="M127.197 6.25L76.3184-81.7871Q74.6582-84.7168 72.2168-85.7666Q69.7754-86.8164 66.8457-86.5723Q64.3555-86.3281 61.3281-85.1562Q58.3008-83.9844 55.1758-82.2266Q50.8301-79.6875 47.4854-76.5381Q44.1406-73.3887 41.1621-70.1172Q38.1836-66.8457 35.0098-63.7939Q31.8359-60.7422 27.7832-58.4473Q24.3164-56.3965 21.2891-55.3223Q18.2617-54.248 16.5039-53.2715Q13.7695-51.6602 12.793-48.999Q11.8164-46.3379 13.4766-43.5059L32.959-9.61914Q34.6191-6.73828 37.0605-5.71289Q39.502-4.6875 42.4805-4.93164Q44.9707-5.17578 47.998-6.34766Q51.0254-7.51953 54.1016-9.32617Q58.4473-11.8164 61.792-14.9658Q65.1367-18.1152 68.1152-21.4111Q71.0938-24.707 74.292-27.7344Q77.4902-30.7617 81.4941-33.1055Q83.4961-34.2773 85.3271-35.0098Q87.1582-35.7422 88.4766-36.3281L116.553 12.3535Q117.871 14.5508 120.312 15.2588Q122.754 15.9668 124.951 14.6484Q127.1 13.3789 127.759 10.9131Q128.418 8.44727 127.197 6.25Z"/>
  </g>
  <g id="Semibold-M" transform="matrix(1 0 0 1 1942.68 1126)">
   <path class="hierarchical-0:secondary SFSymbolsPreview4D4D4D" d="M104.297-45.0195L110.352-34.5703L112.012-37.5488Q113.525-36.9629 115.625-36.1084Q117.725-35.2539 120.068-33.8867Q124.219-31.4941 127.466-28.3936Q130.713-25.293 133.716-21.9727Q136.719-18.6523 140.088-15.4785Q143.457-12.3047 147.9-9.76562Q150.83-8.05664 153.735-6.90918Q156.641-5.76172 159.033-5.51758Q161.865-5.27344 164.258-6.27441Q166.65-7.27539 168.262-10.1562L187.842-44.0918Q189.307-46.6309 188.428-48.9502Q187.549-51.2695 185.107-52.7344Q183.447-53.6621 180.347-54.7363Q177.246-55.8105 173.633-57.9102Q169.434-60.3027 166.187-63.4033Q162.939-66.5039 159.937-69.8242Q156.934-73.1445 153.564-76.3184Q150.195-79.4922 145.752-82.0801Q142.822-83.7891 139.917-84.9121Q137.012-86.0352 134.668-86.2793Q131.836-86.5234 129.468-85.498Q127.1-84.4727 125.439-81.5918ZM117.432-46.8262L133.936-75.4395Q135.254-75.293 136.548-74.8291Q137.842-74.3652 138.867-73.8281Q139.893-73.291 140.479-72.9492Q144.531-70.6543 147.656-67.6514Q150.781-64.6484 153.711-61.3525Q156.641-58.0566 160.107-54.834Q163.574-51.6113 168.408-48.8281Q170.117-47.8516 172.217-46.7285Q174.316-45.6055 176.27-44.9707L159.766-16.4062Q158.398-16.5039 157.104-16.9678Q155.811-17.4316 154.785-17.9443Q153.76-18.457 153.223-18.7988Q149.121-21.1426 146.021-24.1455Q142.92-27.1484 139.99-30.4443Q137.061-33.7402 133.594-36.9873Q130.127-40.2344 125.293-42.9688Q123.584-43.9453 121.46-45.0684Q119.336-46.1914 117.432-46.8262ZM96.875-11.2793L90.8203-21.7773L73.9746 7.42188Q72.9004 9.27734 73.4619 11.4014Q74.0234 13.5254 75.8789 14.5996Q77.7832 15.7227 79.8584 15.1367Q81.9336 14.5508 83.0078 12.6465Z"/>
   <path class="hierarchical-1:primary SFSymbolsPreview212121" d="M127.197 7.42188L75.7324-81.5918Q74.0723-84.4727 71.7285-85.498Q69.3848-86.5234 66.5039-86.2793Q64.1602-86.0352 61.2549-84.9121Q58.3496-83.7891 55.4199-82.0801Q50.9766-79.4922 47.6074-76.3184Q44.2383-73.1445 41.2354-69.8242Q38.2324-66.5039 34.9609-63.4033Q31.6895-60.3027 27.5391-57.9102Q23.9258-55.8105 20.8252-54.7363Q17.7246-53.6621 16.0645-52.7344Q13.623-51.2695 12.7441-48.9502Q11.8652-46.6309 13.3301-44.0918L32.9102-10.1562Q34.5703-7.27539 36.9385-6.27441Q39.3066-5.27344 42.1387-5.51758Q44.5312-5.76172 47.4365-6.90918Q50.3418-8.05664 53.2227-9.76562Q57.666-12.3047 61.0596-15.4785Q64.4531-18.6523 67.4316-21.9727Q70.4102-25.293 73.6816-28.3936Q76.9531-31.4941 81.1035-33.8867Q83.4961-35.2539 85.5957-36.1084Q87.6953-36.9629 89.1602-37.5488L118.115 12.6465Q119.238 14.5508 121.313 15.1367Q123.389 15.7227 125.293 14.5996Q127.1 13.5254 127.686 11.4014Q128.271 9.27734 127.197 7.42188Z"/>
  </g>
  <g id="Medium-M" transform="matrix(1 0 0 1 1646.36 1126)">
   <path class="hierarchical-0:secondary SFSymbolsPreview4D4D4D" d="M103.76-44.5801L108.984-35.498L110.693-38.4766Q112.305-37.8906 114.6-36.9629Q116.895-36.0352 119.531-34.5215Q123.828-32.0312 127.1-28.9062Q130.371-25.7812 133.423-22.4365Q136.475-19.0918 139.844-15.8936Q143.213-12.6953 147.705-10.1074Q150.537-8.44727 153.369-7.34863Q156.201-6.25 158.447-6.00586Q161.23-5.76172 163.55-6.73828Q165.869-7.71484 167.48-10.5957L187.109-44.5801Q188.428-46.875 187.646-48.9502Q186.865-51.0254 184.668-52.2949Q183.008-53.2227 179.883-54.3213Q176.758-55.4199 172.998-57.5684Q168.701-60.0098 165.405-63.1592Q162.109-66.3086 159.082-69.6533Q156.055-72.998 152.661-76.1719Q149.268-79.3457 144.775-81.9824Q141.992-83.5938 139.16-84.7168Q136.328-85.8398 134.082-86.084Q131.299-86.3281 129.004-85.3027Q126.709-84.2773 125.049-81.3965ZM115.43-46.6309L132.812-76.7578Q134.326-76.6602 135.791-76.123Q137.256-75.5859 138.428-74.9756Q139.6-74.3652 140.186-74.0723Q144.385-71.6797 147.559-68.6035Q150.732-65.5273 153.711-62.207Q156.689-58.8867 160.156-55.6396Q163.623-52.3926 168.457-49.6094Q170.312-48.5352 172.632-47.3145Q174.951-46.0938 177.1-45.4102L159.717-15.332Q158.154-15.4297 156.689-15.9424Q155.225-16.4551 154.077-17.041Q152.93-17.627 152.344-17.9688Q148.145-20.3613 144.971-23.4375Q141.797-26.5137 138.818-29.8584Q135.84-33.2031 132.373-36.4502Q128.906-39.6973 124.072-42.4316Q122.217-43.5059 119.873-44.7266Q117.529-45.9473 115.43-46.6309ZM96.6309-14.0625L91.3086-23.1934L73.1445 8.30078Q72.2168 9.96094 72.7051 11.8164Q73.1934 13.6719 74.8047 14.5996Q76.5137 15.5762 78.2959 15.0391Q80.0781 14.502 81.0059 12.8906Z"/>
   <path class="hierarchical-1:primary SFSymbolsPreview212121" d="M127.197 8.30078L75.3418-81.3965Q73.6816-84.2773 71.3623-85.3027Q69.043-86.3281 66.3086-86.084Q64.0137-85.8398 61.2061-84.7168Q58.3984-83.5938 55.5664-81.9824Q51.0742-79.3457 47.6807-76.1719Q44.2871-72.998 41.2598-69.6533Q38.2324-66.3086 34.9365-63.1592Q31.6406-60.0098 27.3438-57.5684Q23.6328-55.4199 20.5078-54.3213Q17.3828-53.2227 15.7227-52.2949Q13.5254-51.0254 12.7441-48.9502Q11.9629-46.875 13.2324-44.5801L32.8125-10.5957Q34.4727-7.71484 36.8164-6.73828Q39.1602-5.76172 41.8945-6.00586Q44.1895-6.25 46.9971-7.34863Q49.8047-8.44727 52.5879-10.1074Q57.0801-12.6953 60.498-15.8936Q63.916-19.0918 66.9189-22.4365Q69.9219-25.7812 73.2422-28.9062Q76.5625-32.0312 80.8105-34.5215Q83.4473-36.0352 85.7666-36.9629Q88.0859-37.8906 89.6484-38.4766L119.287 12.8906Q120.264 14.502 122.07 15.0391Q123.877 15.5762 125.537 14.5996Q127.148 13.6719 127.637 11.8164Q128.125 9.96094 127.197 8.30078Z"/>
  </g>
  <g id="Regular-M" transform="matrix(1 0 0 1 1350.19 1126)">
   <path class="hierarchical-0:secondary SFSymbolsPreview4D4D4D" d="M103.027-44.043L107.275-36.7188L108.984-39.6973Q110.693-39.0625 113.281-38.0615Q115.869-37.0605 118.848-35.3516Q123.291-32.7637 126.636-29.5898Q129.98-26.416 133.032-23.0225Q136.084-19.6289 139.502-16.4062Q142.92-13.1836 147.51-10.5469Q150.146-8.98438 152.856-7.91016Q155.566-6.83594 157.715-6.5918Q160.352-6.34766 162.622-7.2998Q164.893-8.25195 166.504-11.1328L186.182-45.166Q187.305-47.168 186.621-48.9014Q185.938-50.6348 184.033-51.7578Q182.422-52.6367 179.248-53.7354Q176.074-54.834 172.168-57.0801Q167.725-59.6191 164.38-62.8174Q161.035-66.0156 157.983-69.3848Q154.932-72.7539 151.514-75.9766Q148.096-79.1992 143.506-81.8848Q140.869-83.3984 138.159-84.4727Q135.449-85.5469 133.301-85.791Q130.664-86.0352 128.418-85.0586Q126.172-84.082 124.512-81.2012ZM112.842-46.3379L131.396-78.4668Q133.154-78.3691 134.839-77.7832Q136.523-77.1973 137.842-76.5137Q139.16-75.8301 139.795-75.4883Q144.141-72.998 147.412-69.8486Q150.684-66.6992 153.711-63.3301Q156.738-59.9609 160.229-56.6895Q163.721-53.418 168.506-50.6348Q170.557-49.4629 173.169-48.0957Q175.781-46.7285 178.174-46.0449L159.619-13.916Q157.861-14.0137 156.177-14.5996Q154.492-15.1855 153.174-15.8447Q151.855-16.5039 151.221-16.8945Q146.875-19.3848 143.604-22.5342Q140.332-25.6836 137.305-29.0771Q134.277-32.4707 130.786-35.7422Q127.295-39.0137 122.51-41.748Q120.459-42.9199 117.822-44.2871Q115.186-45.6543 112.842-46.3379ZM96.2891-17.6758L91.9922-25.0488L72.0703 9.47266Q71.3379 10.791 71.7285 12.3047Q72.1191 13.8184 73.4375 14.5508Q74.8047 15.332 76.2451 14.917Q77.6855 14.502 78.418 13.1836Z"/>
   <path class="hierarchical-1:primary SFSymbolsPreview212121" d="M127.246 9.47266L74.8047-81.2012Q73.1445-84.082 70.8984-85.0586Q68.6523-86.0352 66.0156-85.791Q63.8672-85.5469 61.1572-84.4727Q58.4473-83.3984 55.8105-81.8848Q51.2207-79.1992 47.8027-75.9766Q44.3848-72.7539 41.333-69.3848Q38.2812-66.0156 34.9121-62.8174Q31.543-59.6191 27.0996-57.0801Q23.2422-54.834 20.0684-53.7354Q16.8945-52.6367 15.2832-51.7578Q13.3789-50.6348 12.6953-48.9014Q12.0117-47.168 13.1348-45.166L32.7637-11.1328Q34.4238-8.25195 36.6943-7.2998Q38.9648-6.34766 41.5527-6.5918Q43.75-6.83594 46.46-7.91016Q49.1699-8.98438 51.7578-10.5469Q56.3477-13.1836 59.79-16.4062Q63.2324-19.6289 66.2598-23.0225Q69.2871-26.416 72.6562-29.5898Q76.0254-32.7637 80.4688-35.3516Q83.4473-37.0605 86.0352-38.0615Q88.623-39.0625 90.332-39.6973L120.85 13.1836Q121.631 14.502 123.071 14.917Q124.512 15.332 125.879 14.5508Q127.148 13.8184 127.563 12.3047Q127.979 10.791 127.246 9.47266Z"/>
  </g>
  <g id="Light-M" transform="matrix(1 0 0 1 1055.33 1126)">
   <path class="hierarchical-0:secondary SFSymbolsPreview4D4D4D" d="M100.879-43.7012L104.15-37.9883L105.664-40.625Q107.324-40.0391 110.156-39.0137Q112.988-37.9883 116.357-36.0352Q120.898-33.3984 124.292-30.2002Q127.686-27.002 130.737-23.6084Q133.789-20.2148 137.158-17.0166Q140.527-13.8184 145.068-11.2305Q147.559-9.7168 150.293-8.64258Q153.027-7.56836 155.225-7.32422Q157.471-7.12891 159.375-7.88574Q161.279-8.64258 162.598-10.9863L182.568-45.5566Q183.496-47.2168 182.959-48.6572Q182.422-50.0977 180.811-51.0254Q179.248-51.9043 176.025-52.9541Q172.803-54.0039 168.848-56.2988Q164.307-58.8867 160.913-62.1094Q157.52-65.332 154.468-68.7012Q151.416-72.0703 148.047-75.2686Q144.678-78.4668 140.186-81.1035Q137.646-82.5684 134.912-83.667Q132.178-84.7656 129.932-84.9609Q127.734-85.1562 125.854-84.375Q123.975-83.5938 122.656-81.2988ZM108.691-45.8008L128.027-79.3457Q129.98-79.2969 131.836-78.6621Q133.691-78.0273 135.181-77.2705Q136.67-76.5137 137.305-76.123Q141.65-73.6328 144.897-70.5078Q148.145-67.3828 151.172-64.0137Q154.199-60.6445 157.715-57.373Q161.23-54.1016 166.016-51.3184Q168.066-50.1465 170.776-48.8037Q173.486-47.4609 176.514-46.5332L157.129-12.9883Q155.273-13.0371 153.394-13.6719Q151.514-14.3066 150.049-15.0391Q148.584-15.7715 147.949-16.1621Q143.604-18.6523 140.332-21.8018Q137.061-24.9512 134.033-28.3447Q131.006-31.7383 127.515-35.0098Q124.023-38.2812 119.189-41.0156Q117.139-42.1875 114.404-43.5303Q111.67-44.873 108.691-45.8008ZM94.7266-21.6309L91.4062-27.3438L69.873 9.96094Q69.2871 10.9863 69.6045 12.1582Q69.9219 13.3301 70.9473 13.8672Q71.9727 14.502 73.0957 14.1846Q74.2188 13.8672 74.8047 12.8418Z"/>
   <path class="hierarchical-1:primary SFSymbolsPreview212121" d="M125.732 9.96094L72.9492-81.2988Q71.6309-83.5938 69.7754-84.375Q67.9199-85.1562 65.6738-84.9609Q63.4277-84.7656 60.6934-83.667Q57.959-82.5684 55.4199-81.1035Q50.9277-78.4668 47.5586-75.2686Q44.1895-72.0703 41.1377-68.7012Q38.0859-65.332 34.668-62.1094Q31.25-58.8867 26.709-56.2988Q22.8027-54.0039 19.5801-52.9541Q16.3574-51.9043 14.7949-51.0254Q13.1836-50.0977 12.6465-48.6572Q12.1094-47.2168 13.0371-45.5566L32.959-10.9863Q34.3262-8.64258 36.2305-7.88574Q38.1348-7.12891 40.332-7.32422Q42.5781-7.56836 45.3125-8.64258Q48.0469-9.7168 50.5371-11.2305Q55.0293-13.8184 58.4229-17.0166Q61.8164-20.2148 64.8438-23.6084Q67.8711-27.002 71.2891-30.2002Q74.707-33.3984 79.248-36.0352Q82.6172-37.9883 85.4492-39.0137Q88.2812-40.0391 89.9414-40.625L120.801 12.8418Q121.387 13.8672 122.51 14.1846Q123.633 14.502 124.707 13.8672Q125.635 13.3301 125.977 12.1582Q126.318 10.9863 125.732 9.96094Z"/>
  </g>
  <g id="Thin-M" transform="matrix(1 0 0 1 761.061 1126)">
   <path class="hierarchical-0:secondary SFSymbolsPreview4D4D4D" d="M98.0469-43.2129L100.049-39.6973L101.27-41.7969Q102.832-41.3574 106.03-40.2588Q109.229-39.1602 113.086-36.9629Q117.725-34.2285 121.191-31.0059Q124.658-27.7832 127.71-24.4141Q130.762-21.0449 134.082-17.8711Q137.402-14.6973 141.797-12.1582Q144.189-10.6934 146.948-9.61914Q149.707-8.54492 152.002-8.30078Q153.711-8.1543 155.127-8.66699Q156.543-9.17969 157.422-10.7422L177.832-46.0449Q178.467-47.2168 178.125-48.2666Q177.783-49.3164 176.562-50.0488Q175-50.9277 171.753-51.9287Q168.506-52.9297 164.453-55.2734Q159.814-57.9102 156.348-61.1816Q152.881-64.4531 149.829-67.8223Q146.777-71.1914 143.457-74.3408Q140.137-77.4902 135.791-80.0781Q133.35-81.4941 130.591-82.6172Q127.832-83.7402 125.537-83.8867Q123.828-83.9844 122.437-83.4961Q121.045-83.0078 120.166-81.4453ZM103.174-45.0684L123.633-80.4688Q125.732-80.5176 127.856-79.8096Q129.98-79.1016 131.641-78.2471Q133.301-77.3926 133.984-77.002Q138.281-74.5117 141.553-71.3867Q144.824-68.2617 147.852-64.8926Q150.879-61.5234 154.395-58.252Q157.91-54.9805 162.695-52.1973Q164.746-51.0254 167.578-49.7314Q170.41-48.4375 174.365-47.1191L153.906-11.7676Q151.807-11.7188 149.658-12.4268Q147.51-13.1348 145.874-13.9648Q144.238-14.7949 143.604-15.1855Q139.258-17.6758 135.986-20.8252Q132.715-23.9746 129.688-27.3438Q126.66-30.7129 123.169-33.9844Q119.678-37.2559 114.844-40.0391Q112.793-41.2109 109.937-42.5049Q107.08-43.7988 103.174-45.0684ZM92.627-26.8066L90.625-30.3711L66.9922 10.5469Q66.6016 11.2305 66.7969 11.9385Q66.9922 12.6465 67.5781 12.9883Q68.2617 13.3789 68.9453 13.1836Q69.6289 12.9883 69.9707 12.3535Z"/>
   <path class="hierarchical-1:primary SFSymbolsPreview212121" d="M123.73 10.5469L70.5566-81.4453Q69.6777-83.0078 68.2861-83.4961Q66.8945-83.9844 65.1855-83.8867Q62.8418-83.7402 60.1074-82.6172Q57.373-81.4941 54.9316-80.0781Q50.5371-77.4902 47.2412-74.3408Q43.9453-71.1914 40.8936-67.8223Q37.8418-64.4531 34.3506-61.1816Q30.8594-57.9102 26.2207-55.2734Q22.168-52.9297 18.9453-51.9287Q15.7227-50.9277 14.1113-50.0488Q12.9395-49.3164 12.5732-48.2666Q12.207-47.2168 12.8906-46.0449L33.252-10.7422Q34.1797-9.17969 35.5957-8.66699Q37.0117-8.1543 38.7207-8.30078Q41.0156-8.54492 43.7744-9.61914Q46.5332-10.6934 48.877-12.1582Q53.2715-14.6973 56.6162-17.8711Q59.9609-21.0449 63.0127-24.4141Q66.0645-27.7832 69.5068-31.0059Q72.9492-34.2285 77.6367-36.9629Q81.4941-39.1602 84.6924-40.2588Q87.8906-41.3574 89.4043-41.7969L120.703 12.3535Q121.045 12.9883 121.753 13.1836Q122.461 13.3789 123.096 12.9883Q123.682 12.6465 123.877 11.9385Q124.072 11.2305 123.73 10.5469Z"/>
  </g>
  <g id="Ultralight-M" transform="matrix(1 0 0 1 465.619 1126)">
   <path class="hierarchical-0:secondary SFSymbolsPreview4D4D4D" d="M96.582-42.9688L97.9492-40.5762L99.0234-42.4316Q100.537-41.9922 103.906-40.8936Q107.275-39.7949 111.377-37.4512Q116.113-34.668 119.604-31.4209Q123.096-28.1738 126.147-24.8047Q129.199-21.4355 132.495-18.2861Q135.791-15.1367 140.137-12.6465Q142.432-11.2305 145.215-10.1318Q147.998-9.0332 150.293-8.83789Q151.758-8.69141 152.93-9.05762Q154.102-9.42383 154.785-10.6445L175.391-46.2891Q175.928-47.2656 175.659-48.1201Q175.391-48.9746 174.414-49.5605Q172.852-50.3906 169.58-51.3916Q166.309-52.3926 162.207-54.7363Q157.52-57.4219 154.004-60.6934Q150.488-63.9648 147.437-67.334Q144.385-70.7031 141.113-73.8281Q137.842-76.9531 133.496-79.541Q131.152-80.957 128.369-82.0801Q125.586-83.2031 123.242-83.3496Q121.826-83.3984 120.679-83.0322Q119.531-82.666 118.896-81.543ZM100.342-44.7266L121.338-81.0547Q123.584-81.1523 125.83-80.3955Q128.076-79.6387 129.858-78.7354Q131.641-77.832 132.324-77.4414Q136.621-74.9512 139.868-71.8506Q143.115-68.75 146.143-65.3809Q149.17-62.0117 152.71-58.7402Q156.25-55.4688 161.035-52.6855Q163.086-51.4648 165.967-50.1953Q168.848-48.9258 173.242-47.4609L152.197-11.1328Q150.049-11.084 147.778-11.792Q145.508-12.5 143.75-13.4033Q141.992-14.3066 141.357-14.6973Q137.012-17.1875 133.74-20.3125Q130.469-23.4375 127.466-26.8311Q124.463-30.2246 120.947-33.4961Q117.432-36.7676 112.598-39.502Q110.547-40.6738 107.617-41.9678Q104.688-43.2617 100.342-44.7266ZM91.5527-29.4922L90.2344-31.9336L65.4785 10.8887Q65.1855 11.3281 65.332 11.8164Q65.4785 12.3047 65.918 12.5488Q66.3574 12.793 66.8213 12.6709Q67.2852 12.5488 67.5293 12.1094Z"/>
   <path class="hierarchical-1:primary SFSymbolsPreview212121" d="M122.705 10.8887L69.2871-81.543Q68.6523-82.666 67.5293-83.0322Q66.4062-83.3984 64.9414-83.3496Q62.5488-83.2031 59.79-82.0801Q57.0312-80.957 54.6875-79.541Q50.3418-76.9531 47.0703-73.8281Q43.7988-70.7031 40.7471-67.334Q37.6953-63.9648 34.1797-60.6934Q30.6641-57.4219 25.9766-54.7363Q21.875-52.3926 18.6035-51.3916Q15.332-50.3906 13.7695-49.5605Q12.793-48.9746 12.5488-48.1201Q12.3047-47.2656 12.793-46.2891L33.3984-10.6445Q34.082-9.42383 35.2539-9.05762Q36.4258-8.69141 37.8906-8.83789Q40.1855-9.0332 42.9688-10.1318Q45.752-11.2305 48.0469-12.6465Q52.3926-15.1367 55.7129-18.2861Q59.0332-21.4355 62.0605-24.8047Q65.0879-28.1738 68.5791-31.4209Q72.0703-34.668 76.8066-37.4512Q80.9082-39.7949 84.2773-40.8936Q87.6465-41.9922 89.1602-42.4316L120.654 12.1094Q120.898 12.5488 121.362 12.6709Q121.826 12.793 122.314 12.5488Q122.656 12.3047 122.803 11.8164Q122.949 11.3281 122.705 10.8887Z"/>
  </g>
  <g id="Black-S" transform="matrix(1 0 0 1 2852.91 696)">
   <path class="hierarchical-0:secondary SFSymbolsPreview4D4D4D" d="M83.9844-44.7266L92.0898-30.6641L93.4082-32.959Q94.0918-32.6172 94.8242-32.251Q95.5566-31.8848 96.2891-31.4941Q99.0234-29.8828 101.367-27.6367Q103.711-25.3906 105.981-22.9004Q108.252-20.4102 110.791-18.042Q113.33-15.6738 116.504-13.8184Q119.336-12.1582 121.997-11.1572Q124.658-10.1562 126.953-10.0098Q129.541-9.76562 131.616-10.6445Q133.691-11.5234 134.961-13.7695L150.146-40.1367Q151.855-43.1152 150.879-46.0693Q149.902-49.0234 146.924-50.7324Q145.459-51.5625 143.213-52.3926Q140.967-53.2227 138.574-54.5898Q135.84-56.2012 133.496-58.4473Q131.152-60.6934 128.882-63.1836Q126.611-65.6738 124.072-68.0664Q121.533-70.459 118.359-72.2656Q115.479-73.9258 112.817-74.9023Q110.156-75.8789 107.91-76.0742Q105.322-76.3184 103.271-75.4395Q101.221-74.5605 99.9023-72.2656ZM100.488-45.2148L109.57-60.9863Q109.961-60.791 110.376-60.5469Q110.791-60.3027 111.182-60.0586Q113.867-58.5938 115.991-56.4941Q118.115-54.3945 120.239-51.9775Q122.363-49.5605 125.049-47.0947Q127.734-44.6289 131.592-42.4316Q132.275-42.041 132.983-41.626Q133.691-41.2109 134.375-40.8203L125.293-25.0977Q125-25.2441 124.731-25.3906Q124.463-25.5371 124.194-25.6836Q123.926-25.8301 123.682-25.9766Q120.996-27.4414 118.872-29.541Q116.748-31.6406 114.6-34.082Q112.451-36.5234 109.766-38.9648Q107.08-41.4062 103.271-43.6035Q102.588-43.9941 101.88-44.4092Q101.172-44.8242 100.488-45.2148ZM76.9531-4.49219L68.8965-18.5547L61.4746-5.71289Q60.0586-3.22266 60.791-0.415039Q61.5234 2.39258 64.0137 3.90625Q66.5527 5.41992 69.3604 4.61426Q72.168 3.80859 73.6328 1.26953Z"/>
   <path class="hierarchical-1:primary SFSymbolsPreview212121" d="M99.5117-5.71289L61.084-72.2656Q59.7656-74.5605 57.7148-75.4395Q55.6641-76.3184 53.0762-76.0742Q50.7812-75.8789 48.1201-74.9023Q45.459-73.9258 42.627-72.2656Q39.4531-70.459 36.9141-68.0664Q34.375-65.6738 32.1045-63.1836Q29.834-60.6934 27.4902-58.4473Q25.1465-56.2012 22.4121-54.5898Q19.9707-53.2227 17.749-52.3926Q15.5273-51.5625 14.0625-50.7324Q11.084-49.0234 10.1074-46.0693Q9.13086-43.1152 10.8398-40.1367L26.0254-13.7695Q27.2949-11.5234 29.3701-10.6445Q31.4453-9.76562 34.0332-10.0098Q36.2793-10.1562 38.9404-11.1572Q41.6016-12.1582 44.4824-13.8184Q47.6562-15.6738 50.1953-18.042Q52.7344-20.4102 55.0049-22.9004Q57.2754-25.3906 59.6191-27.6367Q61.9629-29.8828 64.6973-31.4941Q65.4297-31.8848 66.1621-32.251Q66.8945-32.6172 67.5781-32.959L87.3535 1.26953Q88.8184 3.80859 91.626 4.61426Q94.4336 5.41992 96.9727 3.90625Q99.4629 2.39258 100.195-0.415039Q100.928-3.22266 99.5117-5.71289Z"/>
  </g>
  <g id="Heavy-S" transform="matrix(1 0 0 1 2556.56 696)">
   <path class="hierarchical-0:secondary SFSymbolsPreview4D4D4D" d="M83.4473-44.1406L90.5762-31.8848L91.8945-34.2285Q92.7246-33.8379 93.75-33.374Q94.7754-32.9102 95.8496-32.3242Q98.7305-30.6152 101.123-28.3203Q103.516-26.0254 105.811-23.4863Q108.105-20.9473 110.693-18.5303Q113.281-16.1133 116.553-14.209Q119.238-12.6465 121.777-11.6943Q124.316-10.7422 126.465-10.5957Q128.955-10.3516 131.006-11.2305Q133.057-12.1094 134.326-14.4043L149.561-40.7715Q151.074-43.457 150.195-46.0693Q149.316-48.6816 146.631-50.1953Q145.215-51.0254 142.92-51.8555Q140.625-52.6855 138.086-54.1504Q135.205-55.8594 132.788-58.1543Q130.371-60.4492 128.076-62.9883Q125.781-65.5273 123.193-67.9443Q120.605-70.3613 117.334-72.2656Q114.648-73.7793 112.109-74.7314Q109.57-75.6836 107.471-75.8789Q104.98-76.123 102.954-75.2441Q100.928-74.3652 99.5605-72.0215ZM98.0957-44.9707L108.398-62.793Q109.131-62.6465 109.863-62.2559Q110.596-61.8652 111.084-61.5723Q113.916-60.0098 116.162-57.8125Q118.408-55.6152 120.581-53.1494Q122.754-50.6836 125.439-48.1934Q128.125-45.7031 131.982-43.5059Q132.91-42.9688 133.911-42.4072Q134.912-41.8457 135.791-41.4551L125.537-23.6328Q125-23.7793 124.512-23.999Q124.023-24.2188 123.584-24.4385Q123.145-24.6582 122.852-24.8535Q119.971-26.416 117.749-28.6133Q115.527-30.8105 113.33-33.3008Q111.133-35.791 108.423-38.2568Q105.713-40.7227 101.953-42.9199Q101.025-43.4082 100.024-43.9941Q99.0234-44.5801 98.0957-44.9707ZM76.7578-8.05664L69.7266-20.3613L60.5469-4.49219Q59.3262-2.29492 59.9609 0.170898Q60.5957 2.63672 62.793 3.95508Q64.9902 5.27344 67.4561 4.56543Q69.9219 3.85742 71.1914 1.66016Z"/>
   <path class="hierarchical-1:primary SFSymbolsPreview212121" d="M99.707-4.49219L60.6934-72.0215Q59.375-74.3652 57.3486-75.2441Q55.3223-76.123 52.7832-75.8789Q50.6348-75.6836 48.1201-74.7314Q45.6055-73.7793 42.9199-72.2656Q39.6484-70.3613 37.0605-67.9443Q34.4727-65.5273 32.1777-62.9883Q29.8828-60.4492 27.4902-58.1543Q25.0977-55.8594 22.168-54.1504Q19.6289-52.6855 17.334-51.8555Q15.0391-51.0254 13.623-50.1953Q10.9863-48.6816 10.083-46.0693Q9.17969-43.457 10.7422-40.7715L25.9277-14.4043Q27.2461-12.1094 29.2725-11.2305Q31.2988-10.3516 33.8379-10.5957Q35.9375-10.7422 38.4766-11.6943Q41.0156-12.6465 43.7012-14.209Q46.9727-16.1133 49.5605-18.5303Q52.1484-20.9473 54.4434-23.4863Q56.7383-26.0254 59.1553-28.3203Q61.5723-30.6152 64.4531-32.3242Q65.5273-32.9102 66.5283-33.374Q67.5293-33.8379 68.3594-34.2285L89.1113 1.66016Q90.3809 3.85742 92.8223 4.56543Q95.2637 5.27344 97.5098 3.95508Q99.6582 2.63672 100.317 0.170898Q100.977-2.29492 99.707-4.49219Z"/>
  </g>
  <g id="Bold-S" transform="matrix(1 0 0 1 2260.24 696)">
   <path class="hierarchical-0:secondary SFSymbolsPreview4D4D4D" d="M82.9102-43.5547L88.8672-33.252L90.2344-35.6445Q91.2598-35.2051 92.5781-34.6436Q93.8965-34.082 95.3125-33.252Q98.3887-31.4453 100.879-29.0771Q103.369-26.709 105.688-24.1455Q108.008-21.582 110.62-19.1162Q113.232-16.6504 116.65-14.6973Q119.141-13.2324 121.533-12.3291Q123.926-11.4258 125.879-11.2305Q128.32-10.9863 130.322-11.8652Q132.324-12.7441 133.691-15.0879L148.877-41.5039Q150.244-43.8477 149.438-46.0938Q148.633-48.3398 146.338-49.6582Q144.971-50.4395 142.627-51.2695Q140.283-52.0996 137.549-53.6621Q134.473-55.4688 132.007-57.8369Q129.541-60.2051 127.197-62.7686Q124.854-65.332 122.241-67.7979Q119.629-70.2637 116.211-72.2168Q113.721-73.6816 111.328-74.5605Q108.936-75.4395 106.982-75.6836Q104.59-75.9277 102.588-75.0488Q100.586-74.1699 99.1699-71.7285ZM95.459-44.7266L107.08-64.8438Q108.252-64.6973 109.326-64.1357Q110.4-63.5742 110.986-63.2812Q114.014-61.5723 116.357-59.2773Q118.701-56.9824 120.947-54.4434Q123.193-51.9043 125.903-49.3896Q128.613-46.875 132.422-44.7266Q133.594-44.043 134.937-43.3105Q136.279-42.5781 137.402-42.1387L125.781-22.0703Q125-22.168 124.243-22.4609Q123.486-22.7539 122.876-23.0713Q122.266-23.3887 121.875-23.6328Q118.848-25.3418 116.504-27.6123Q114.16-29.8828 111.89-32.4219Q109.619-34.9609 106.909-37.4756Q104.199-39.9902 100.439-42.1875Q99.3164-42.8223 97.9492-43.5791Q96.582-44.3359 95.459-44.7266ZM76.5625-12.0605L70.6543-22.3633L59.5215-3.07617Q58.4961-1.26953 59.0332 0.830078Q59.5703 2.92969 61.377 4.00391Q63.2812 5.12695 65.332 4.54102Q67.3828 3.95508 68.457 2.09961Z"/>
   <path class="hierarchical-1:primary SFSymbolsPreview212121" d="M100-3.07617L60.3027-71.7285Q58.9355-74.1699 56.9336-75.0488Q54.9316-75.9277 52.4902-75.6836Q50.5371-75.4395 48.1445-74.5605Q45.752-73.6816 43.2617-72.2168Q39.8926-70.2637 37.2559-67.7979Q34.6191-65.332 32.2998-62.7686Q29.9805-60.2051 27.5146-57.8369Q25.0488-55.4688 21.9238-53.6621Q19.2383-52.0996 16.8701-51.2695Q14.502-50.4395 13.1348-49.6582Q10.8398-48.3398 10.0586-46.0938Q9.27734-43.8477 10.5957-41.5039L25.8301-15.0879Q27.1973-12.7441 29.1992-11.8652Q31.2012-10.9863 33.6426-11.2305Q35.5469-11.4258 37.9395-12.3291Q40.332-13.2324 42.8223-14.6973Q46.2402-16.6504 48.877-19.1162Q51.5137-21.582 53.833-24.1455Q56.1523-26.709 58.6182-29.0771Q61.084-31.4453 64.209-33.252Q65.625-34.082 66.9434-34.6436Q68.2617-35.2051 69.2871-35.6445L91.0645 2.09961Q92.1387 3.95508 94.1895 4.54102Q96.2402 5.12695 98.0957 4.00391Q99.9023 2.92969 100.464 0.830078Q101.025-1.26953 100-3.07617Z"/>
  </g>
  <g id="Semibold-S" transform="matrix(1 0 0 1 1963.8 696)">
   <path class="hierarchical-0:secondary SFSymbolsPreview4D4D4D" d="M82.4707-43.1152L87.6465-34.1797L89.0625-36.5723Q90.1855-36.1328 91.7236-35.498Q93.2617-34.8633 94.9707-33.8379Q98.1445-32.0312 100.684-29.6143Q103.223-27.1973 105.542-24.585Q107.861-21.9727 110.522-19.4824Q113.184-16.9922 116.699-14.9902Q119.043-13.623 121.338-12.7441Q123.633-11.8652 125.488-11.6211Q127.832-11.4258 129.81-12.2803Q131.787-13.1348 133.203-15.5762L148.438-41.9922Q149.609-44.0918 148.901-46.0693Q148.193-48.0469 146.143-49.2188Q144.775-50 142.383-50.8545Q139.99-51.709 137.158-53.3203Q133.936-55.1758 131.421-57.5928Q128.906-60.0098 126.562-62.5977Q124.219-65.1855 121.558-67.7002Q118.896-70.2148 115.43-72.2168Q113.086-73.5352 110.791-74.4141Q108.496-75.293 106.641-75.4883Q104.297-75.7324 102.319-74.8535Q100.342-73.9746 98.9258-71.5332ZM93.6523-44.5312L106.152-66.2598Q107.617-66.0645 108.936-65.4053Q110.254-64.7461 110.889-64.4043Q114.062-62.6465 116.479-60.2783Q118.896-57.9102 121.191-55.3223Q123.486-52.7344 126.221-50.2197Q128.955-47.7051 132.715-45.5078Q134.033-44.7754 135.62-43.9209Q137.207-43.0664 138.477-42.627L125.977-20.9473Q124.951-21.0449 124.048-21.3867Q123.145-21.7285 122.388-22.1191Q121.631-22.5098 121.24-22.7539Q118.018-24.5605 115.601-26.9043Q113.184-29.248 110.889-31.8115Q108.594-34.375 105.884-36.9141Q103.174-39.4531 99.4141-41.6504Q98.0957-42.3828 96.5088-43.2617Q94.9219-44.1406 93.6523-44.5312ZM76.416-14.7949L71.2891-23.7305L58.7891-2.09961Q57.9102-0.537109 58.374 1.26953Q58.8379 3.07617 60.4004 4.05273Q62.0605 4.98047 63.8428 4.46777Q65.625 3.95508 66.5527 2.39258Z"/>
   <path class="hierarchical-1:primary SFSymbolsPreview212121" d="M100.146-2.09961L60.0098-71.5332Q58.5938-73.9746 56.6162-74.8535Q54.6387-75.7324 52.2949-75.4883Q50.3906-75.293 48.1201-74.4141Q45.8496-73.5352 43.5059-72.2168Q40.0391-70.2148 37.3779-67.7002Q34.7168-65.1855 32.3486-62.5977Q29.9805-60.0098 27.4902-57.5928Q25-55.1758 21.7285-53.3203Q18.9453-51.709 16.5283-50.8545Q14.1113-50 12.793-49.2188Q10.7422-48.0469 10.0098-46.0693Q9.27734-44.0918 10.498-41.9922L25.7324-15.5762Q27.1484-13.1348 29.1016-12.2803Q31.0547-11.4258 33.4473-11.6211Q35.3027-11.8652 37.5977-12.7441Q39.8926-13.623 42.2363-14.9902Q45.7031-16.9922 48.3643-19.4824Q51.0254-21.9727 53.3691-24.585Q55.7129-27.1973 58.2275-29.6143Q60.7422-32.0312 64.0137-33.8379Q65.6738-34.8633 67.2119-35.498Q68.75-36.1328 69.873-36.5723L92.3828 2.39258Q93.3105 3.95508 95.0928 4.46777Q96.875 4.98047 98.4863 4.05273Q100.049 3.07617 100.537 1.26953Q101.025-0.537109 100.146-2.09961Z"/>
  </g>
  <g id="Medium-S" transform="matrix(1 0 0 1 1667.31 696)">
   <path class="hierarchical-0:secondary SFSymbolsPreview4D4D4D" d="M82.1777-42.7734L86.7676-34.8633L88.1836-37.3047Q89.4043-36.8164 91.0889-36.1328Q92.7734-35.4492 94.6777-34.3262Q97.998-32.4219 100.562-29.9805Q103.125-27.5391 105.469-24.9268Q107.812-22.3145 110.498-19.7998Q113.184-17.2852 116.748-15.2344Q118.994-13.916 121.216-13.0615Q123.438-12.207 125.195-11.9629Q127.49-11.7676 129.443-12.6221Q131.396-13.4766 132.861-15.918L148.047-42.334Q149.17-44.3359 148.486-46.0938Q147.803-47.8516 145.947-48.9258Q144.678-49.6582 142.236-50.5127Q139.795-51.3672 136.914-53.0762Q133.545-54.9805 131.006-57.4219Q128.467-59.8633 126.099-62.5Q123.73-65.1367 121.045-67.627Q118.359-70.1172 114.844-72.168Q112.598-73.4863 110.376-74.3164Q108.154-75.1465 106.396-75.3906Q104.102-75.6348 102.124-74.7559Q100.146-73.877 98.6816-71.3867ZM92.2363-44.3848L105.469-67.334Q107.178-67.1387 108.667-66.4062Q110.156-65.6738 110.84-65.2832Q114.111-63.4277 116.602-61.0352Q119.092-58.6426 121.411-56.0303Q123.73-53.418 126.465-50.8545Q129.199-48.291 132.959-46.1426Q134.375-45.3125 136.157-44.3604Q137.939-43.4082 139.307-42.9688L126.074-20.0684Q124.951-20.2148 123.901-20.5811Q122.852-20.9473 121.997-21.3867Q121.143-21.8262 120.703-22.0703Q117.432-23.9746 114.941-26.3672Q112.451-28.7598 110.132-31.3721Q107.812-33.9844 105.078-36.5234Q102.344-39.0625 98.6328-41.2598Q97.168-42.041 95.4102-43.0176Q93.6523-43.9941 92.2363-44.3848ZM76.3184-16.8457L71.7773-24.7559L58.252-1.36719Q57.4707 0 57.8857 1.61133Q58.3008 3.22266 59.668 4.05273Q61.1328 4.88281 62.6953 4.44336Q64.2578 4.00391 65.0879 2.58789Z"/>
   <path class="hierarchical-1:primary SFSymbolsPreview212121" d="M100.293-1.36719L59.8145-71.3867Q58.3496-73.877 56.3965-74.7559Q54.4434-75.6348 52.0996-75.3906Q50.3418-75.1465 48.1201-74.3164Q45.8984-73.4863 43.6523-72.168Q40.1367-70.1172 37.4512-67.627Q34.7656-65.1367 32.3975-62.5Q30.0293-59.8633 27.4902-57.4219Q24.9512-54.9805 21.6309-53.0762Q18.75-51.3672 16.3086-50.5127Q13.8672-49.6582 12.5488-48.9258Q10.6934-47.8516 10.0098-46.0938Q9.32617-44.3359 10.4492-42.334L25.6836-15.918Q27.0996-13.4766 29.0527-12.6221Q31.0059-11.7676 33.3496-11.9629Q35.0586-12.207 37.2803-13.0615Q39.502-13.916 41.748-15.2344Q45.3125-17.2852 47.998-19.7998Q50.6836-22.3145 53.0273-24.9268Q55.3711-27.5391 57.9346-29.9805Q60.498-32.4219 63.8672-34.3262Q65.7227-35.4492 67.4072-36.1328Q69.0918-36.8164 70.3613-37.3047L93.4082 2.58789Q94.2383 4.00391 95.8008 4.44336Q97.3633 4.88281 98.8281 4.05273Q100.195 3.22266 100.61 1.61133Q101.025 0 100.293-1.36719Z"/>
  </g>
  <g id="Regular-S" transform="matrix(1 0 0 1 1370.86 696)">
   <path class="hierarchical-0:secondary SFSymbolsPreview4D4D4D" d="M81.7871-42.334L85.5957-35.791L87.0117-38.2812Q88.3789-37.7441 90.2832-36.9873Q92.1875-36.2305 94.3359-34.9609Q97.7539-33.0078 100.366-30.5176Q102.979-28.0273 105.347-25.3662Q107.715-22.7051 110.425-20.166Q113.135-17.627 116.797-15.5273Q118.896-14.3066 121.021-13.4766Q123.145-12.6465 124.805-12.4023Q127.051-12.207 128.979-13.0615Q130.908-13.916 132.373-16.4062L147.607-42.8223Q148.584-44.5801 147.974-46.0938Q147.363-47.6074 145.752-48.5352Q144.482-49.2676 142.017-50.1221Q139.551-50.9766 136.523-52.7344Q133.057-54.6875 130.469-57.1777Q127.881-59.668 125.488-62.3291Q123.096-64.9902 120.386-67.5293Q117.676-70.0684 114.062-72.168Q111.963-73.3887 109.839-74.1943Q107.715-75 106.055-75.2441Q103.809-75.4883 101.855-74.6094Q99.9023-73.7305 98.4375-71.1914ZM90.4297-44.1895L104.59-68.7012Q106.543-68.5547 108.276-67.7002Q110.01-66.8457 110.742-66.4551Q114.16-64.502 116.724-62.0361Q119.287-59.5703 121.655-56.9092Q124.023-54.248 126.758-51.6846Q129.492-49.1211 133.252-46.9727Q134.863-46.0449 136.865-44.9707Q138.867-43.8965 140.381-43.457L126.27-18.9941Q124.951-19.0918 123.73-19.5068Q122.51-19.9219 121.533-20.4346Q120.557-20.9473 120.068-21.2402Q116.65-23.1934 114.087-25.6592Q111.523-28.125 109.155-30.7617Q106.787-33.3984 104.053-35.9619Q101.318-38.5254 97.6074-40.7227Q95.9961-41.6016 93.9941-42.7002Q91.9922-43.7988 90.4297-44.1895ZM76.1719-19.5801L72.4121-26.123L57.5195-0.439453Q56.8848 0.732422 57.251 2.0752Q57.6172 3.41797 58.7402 4.10156Q59.9609 4.78516 61.2549 4.41895Q62.5488 4.05273 63.2324 2.88086Z"/>
   <path class="hierarchical-1:primary SFSymbolsPreview212121" d="M100.439-0.439453L59.5215-71.1914Q58.0566-73.7305 56.1035-74.6094Q54.1504-75.4883 51.9043-75.2441Q50.2441-75 48.1201-74.1943Q45.9961-73.3887 43.8965-72.168Q40.2832-70.0684 37.5732-67.5293Q34.8633-64.9902 32.4707-62.3291Q30.0781-59.668 27.4902-57.1777Q24.9023-54.6875 21.4355-52.7344Q18.457-50.9766 15.9668-50.1221Q13.4766-49.2676 12.207-48.5352Q10.5957-47.6074 9.98535-46.0938Q9.375-44.5801 10.3516-42.8223L25.5859-16.4062Q27.0508-13.916 28.9795-13.0615Q30.9082-12.207 33.2031-12.4023Q34.8145-12.6465 36.9385-13.4766Q39.0625-14.3066 41.1621-15.5273Q44.8242-17.627 47.5342-20.166Q50.2441-22.7051 52.6123-25.3662Q54.9805-28.0273 57.5928-30.5176Q60.2051-33.0078 63.6719-34.9609Q65.7715-36.2305 67.6758-36.9873Q69.5801-37.7441 70.9473-38.2812L94.7266 2.88086Q95.4102 4.05273 96.7041 4.41895Q97.998 4.78516 99.2188 4.10156Q100.342 3.41797 100.708 2.0752Q101.074 0.732422 100.439-0.439453Z"/>
  </g>
  <g id="Light-S" transform="matrix(1 0 0 1 1075.79 696)">
   <path class="hierarchical-0:secondary SFSymbolsPreview4D4D4D" d="M79.8828-41.9922L82.8613-36.9141L84.082-39.0625Q85.4004-38.623 87.5244-37.8174Q89.6484-37.0117 92.1387-35.5957Q95.6543-33.5449 98.291-31.0547Q100.928-28.5645 103.296-25.9033Q105.664-23.2422 108.35-20.7275Q111.035-18.2129 114.6-16.1621Q116.65-14.9414 118.774-14.1113Q120.898-13.2812 122.607-13.0859Q124.512-12.9395 126.123-13.5986Q127.734-14.2578 128.906-16.2598L144.434-43.1641Q145.215-44.6289 144.727-45.874Q144.238-47.1191 142.92-47.9004Q141.65-48.584 139.16-49.4141Q136.67-50.2441 133.594-52.0508Q130.029-54.0527 127.393-56.5674Q124.756-59.082 122.363-61.7188Q119.971-64.3555 117.31-66.8701Q114.648-69.3848 111.133-71.4844Q109.082-72.6562 106.934-73.4863Q104.785-74.3164 103.125-74.5117Q101.172-74.707 99.5605-74.0234Q97.9492-73.3398 96.7773-71.2891ZM86.7676-43.7012L101.611-69.4336Q103.76-69.3848 105.762-68.4082Q107.764-67.4316 108.545-67.041Q111.914-65.0879 114.478-62.6221Q117.041-60.1562 119.409-57.4951Q121.777-54.834 124.536-52.2705Q127.295-49.707 131.055-47.5586Q132.666-46.6309 134.741-45.5811Q136.816-44.5312 138.916-43.8965L124.072-18.1641Q122.656-18.2129 121.265-18.6768Q119.873-19.1406 118.75-19.7266Q117.627-20.3125 117.139-20.6055Q113.77-22.5586 111.206-25Q108.643-27.4414 106.274-30.0781Q103.906-32.7148 101.147-35.2783Q98.3887-37.8418 94.6777-40.0391Q93.0664-40.9668 90.9668-42.0166Q88.8672-43.0664 86.7676-43.7012ZM74.8047-23.0469L71.875-28.1738L55.5664 0Q55.0781 0.878906 55.3711 1.92871Q55.6641 2.97852 56.543 3.51562Q57.4707 4.05273 58.4717 3.75977Q59.4727 3.4668 60.0098 2.53906Z"/>
   <path class="hierarchical-1:primary SFSymbolsPreview212121" d="M99.0723 0L57.9102-71.2891Q56.7383-73.3398 55.1025-74.0234Q53.4668-74.707 51.5625-74.5117Q49.8535-74.3164 47.7295-73.4863Q45.6055-72.6562 43.5547-71.4844Q40.0391-69.3848 37.3779-66.8701Q34.7168-64.3555 32.3242-61.7188Q29.9316-59.082 27.2705-56.5674Q24.6094-54.0527 21.0938-52.0508Q18.0664-50.2441 15.5518-49.4141Q13.0371-48.584 11.7676-47.9004Q10.4004-47.1191 9.93652-45.874Q9.47266-44.6289 10.2539-43.1641L25.7812-16.2598Q26.9531-14.2578 28.5645-13.5986Q30.1758-12.9395 32.1289-13.0859Q33.7891-13.2812 35.9375-14.1113Q38.0859-14.9414 40.0391-16.1621Q43.6523-18.2129 46.3135-20.7275Q48.9746-23.2422 51.3672-25.9033Q53.7598-28.5645 56.3965-31.0547Q59.0332-33.5449 62.5977-35.5957Q65.0391-37.0117 67.1631-37.8174Q69.2871-38.623 70.6055-39.0625L94.6777 2.53906Q95.2148 3.4668 96.2158 3.75977Q97.2168 4.05273 98.1445 3.51562Q99.0234 2.97852 99.3164 1.92871Q99.6094 0.878906 99.0723 0Z"/>
  </g>
  <g id="Thin-S" transform="matrix(1 0 0 1 781.251 696)">
   <path class="hierarchical-0:secondary SFSymbolsPreview4D4D4D" d="M77.3438-41.6016L79.1992-38.4277L80.1758-40.1367Q81.3965-39.7949 83.8379-38.9404Q86.2793-38.0859 89.2578-36.4258Q92.8223-34.3262 95.5322-31.7871Q98.2422-29.248 100.635-26.6113Q103.027-23.9746 105.64-21.4844Q108.252-18.9941 111.719-16.9922Q113.623-15.8203 115.771-14.9658Q117.92-14.1113 119.727-13.9648Q121.143-13.8672 122.339-14.3066Q123.535-14.7461 124.316-16.1133L140.234-43.6035Q140.771-44.6289 140.454-45.5322Q140.137-46.4355 139.16-47.0215Q137.891-47.7051 135.352-48.4863Q132.812-49.2676 129.688-51.123Q126.074-53.2227 123.364-55.7373Q120.654-58.252 118.262-60.8887Q115.869-63.5254 113.257-66.0156Q110.645-68.5059 107.227-70.5566Q105.273-71.6797 103.125-72.5586Q100.977-73.4375 99.2188-73.5352Q97.7051-73.6816 96.5576-73.2422Q95.4102-72.8027 94.6289-71.3867ZM81.8848-43.0664L97.7051-70.459Q100.098-70.5078 102.441-69.3848Q104.785-68.2617 105.615-67.7734Q108.984-65.8203 111.548-63.3789Q114.111-60.9375 116.479-58.3008Q118.848-55.6641 121.606-53.1006Q124.365-50.5371 128.125-48.3887Q129.736-47.4121 131.909-46.3867Q134.082-45.3613 137.012-44.4336L121.191-17.0898Q119.629-17.041 117.993-17.5781Q116.357-18.1152 115.088-18.7744Q113.818-19.4336 113.33-19.7266Q109.912-21.6797 107.349-24.1211Q104.785-26.5625 102.417-29.1992Q100.049-31.8359 97.3145-34.3994Q94.5801-36.9629 90.8203-39.1602Q89.209-40.0879 86.9873-41.1133Q84.7656-42.1387 81.8848-43.0664ZM72.9492-27.6855L71.1426-30.8594L53.0273 0.537109Q52.6855 1.12305 52.8809 1.75781Q53.0762 2.39258 53.6133 2.73438Q54.1992 3.07617 54.8096 2.90527Q55.4199 2.73438 55.7617 2.14844Z"/>
   <path class="hierarchical-1:primary SFSymbolsPreview212121" d="M97.3145 0.537109L55.7617-71.3867Q54.9805-72.8027 53.7842-73.2422Q52.5879-73.6816 51.1719-73.5352Q49.3652-73.4375 47.2168-72.5586Q45.0684-71.6797 43.1641-70.5566Q39.6973-68.5059 37.085-66.0156Q34.4727-63.5254 32.0801-60.8887Q29.6875-58.252 26.9775-55.7373Q24.2676-53.2227 20.6543-51.123Q17.5293-49.2676 14.9658-48.4863Q12.4023-47.7051 11.1816-47.0215Q10.1562-46.4355 9.86328-45.5322Q9.57031-44.6289 10.1562-43.6035L26.0254-16.1133Q26.8066-14.7461 28.0029-14.3066Q29.1992-13.8672 30.6641-13.9648Q32.4219-14.1113 34.5703-14.9658Q36.7188-15.8203 38.5742-16.9922Q42.0898-18.9941 44.7021-21.4844Q47.3145-23.9746 49.707-26.6113Q52.0996-29.248 54.8096-31.7871Q57.5195-34.3262 61.1328-36.4258Q64.0625-38.0859 66.5039-38.9404Q68.9453-39.7949 70.166-40.1367L94.5801 2.14844Q94.9219 2.73438 95.5322 2.90527Q96.1426 3.07617 96.7773 2.73438Q97.2656 2.39258 97.4365 1.75781Q97.6074 1.12305 97.3145 0.537109Z"/>
  </g>
  <g id="Ultralight-S" transform="matrix(1 0 0 1 485.663 696)">
   <path class="hierarchical-0:secondary SFSymbolsPreview4D4D4D" d="M76.0742-41.3574L77.3438-39.209L78.2227-40.6738Q79.3945-40.3809 81.9824-39.502Q84.5703-38.623 87.7441-36.8164Q91.4062-34.668 94.1162-32.1533Q96.8262-29.6387 99.2188-26.9775Q101.611-24.3164 104.224-21.8506Q106.836-19.3848 110.254-17.3828Q112.109-16.2598 114.233-15.4053Q116.357-14.5508 118.213-14.4043Q119.434-14.3555 120.41-14.6484Q121.387-14.9414 121.973-16.0156L138.086-43.7988Q138.525-44.6777 138.281-45.3857Q138.037-46.0938 137.207-46.582Q135.986-47.2656 133.423-48.0225Q130.859-48.7793 127.734-50.6348Q124.023-52.7832 121.289-55.3223Q118.555-57.8613 116.162-60.498Q113.77-63.1348 111.182-65.6006Q108.594-68.0664 105.225-70.0684Q103.32-71.1426 101.147-72.0459Q98.9746-72.9492 97.2168-73.0469Q95.9473-73.1445 95.0195-72.8271Q94.0918-72.5098 93.5059-71.4844ZM79.3945-42.7246L95.7031-70.9473Q98.2422-71.0449 100.757-69.8486Q103.271-68.6523 104.102-68.1641Q107.471-66.2109 110.034-63.7695Q112.598-61.3281 114.966-58.6914Q117.334-56.0547 120.093-53.4912Q122.852-50.9277 126.611-48.7793Q128.223-47.8027 130.469-46.8018Q132.715-45.8008 136.035-44.7266L119.727-16.5527Q118.066-16.4551 116.309-17.041Q114.551-17.627 113.184-18.3105Q111.816-18.9941 111.328-19.2871Q107.959-21.2402 105.396-23.6816Q102.832-26.123 100.464-28.7598Q98.0957-31.3965 95.3369-33.96Q92.5781-36.5234 88.8672-38.7207Q87.2559-39.6484 84.9609-40.6494Q82.666-41.6504 79.3945-42.7246ZM72.0215-30.0293L70.8008-32.2754L51.709 0.830078Q51.4648 1.2207 51.6113 1.66016Q51.7578 2.09961 52.0996 2.34375Q52.4902 2.53906 52.9053 2.44141Q53.3203 2.34375 53.5645 1.9043Z"/>
   <path class="hierarchical-1:primary SFSymbolsPreview212121" d="M96.3867 0.830078L54.6387-71.4844Q54.0527-72.5098 53.1006-72.8271Q52.1484-73.1445 50.9277-73.0469Q49.1211-72.9492 46.9482-72.0459Q44.7754-71.1426 42.9199-70.0684Q39.502-68.0664 36.9385-65.6006Q34.375-63.1348 31.9824-60.498Q29.5898-57.8613 26.8311-55.3223Q24.0723-52.7832 20.459-50.6348Q17.2363-48.7793 14.6729-48.0225Q12.1094-47.2656 10.8887-46.582Q10.0586-46.0938 9.83887-45.3857Q9.61914-44.6777 10.0586-43.7988L26.123-16.0156Q26.709-14.9414 27.6855-14.6484Q28.6621-14.3555 29.9316-14.4043Q31.7383-14.5508 33.9111-15.4053Q36.084-16.2598 37.8418-17.3828Q41.2598-19.3848 43.8721-21.8506Q46.4844-24.3164 48.877-26.9775Q51.2695-29.6387 53.9795-32.1533Q56.6895-34.668 60.4004-36.8164Q63.5254-38.623 66.1377-39.502Q68.75-40.3809 69.9707-40.6738L94.5312 1.9043Q94.7754 2.34375 95.1904 2.44141Q95.6055 2.53906 96.0449 2.34375Q96.3867 2.09961 96.5088 1.66016Q96.6309 1.2207 96.3867 0.830078Z"/>
  </g>
 </g>
</svg>
