<?xml version="1.0" encoding="UTF-8"?>
<!--Generator: Apple Native CoreSVG 175-->
<!DOCTYPE svg
PUBLIC "-//W3C//DTD SVG 1.1//EN"
       "http://www.w3.org/Graphics/SVG/1.1/DTD/svg11.dtd">
<svg version="1.1" xmlns="http://www.w3.org/2000/svg" xmlns:xlink="http://www.w3.org/1999/xlink" width="3300" height="2200">
 <!--glyph: "uni100356.medium", point size: 100.0, font version: "17.0d11e1", template writer version: "65.1"-->
 <g id="Notes">
  <rect height="2200" id="artboard" style="fill:white;opacity:1" width="3300" x="0" y="0"/>
  <line style="fill:none;stroke:black;opacity:1;stroke-width:0.5;" x1="263" x2="3036" y1="292" y2="292"/>
  <text style="stroke:none;fill:black;font-family:sans-serif;font-size:13;font-weight:bold;" transform="matrix(1 0 0 1 263 322)">Weight/Scale Variations</text>
  <text style="stroke:none;fill:black;font-family:sans-serif;font-size:13;text-anchor:middle;" transform="matrix(1 0 0 1 559.711 322)">Ultralight</text>
  <text style="stroke:none;fill:black;font-family:sans-serif;font-size:13;text-anchor:middle;" transform="matrix(1 0 0 1 856.422 322)">Thin</text>
  <text style="stroke:none;fill:black;font-family:sans-serif;font-size:13;text-anchor:middle;" transform="matrix(1 0 0 1 1153.13 322)">Light</text>
  <text style="stroke:none;fill:black;font-family:sans-serif;font-size:13;text-anchor:middle;" transform="matrix(1 0 0 1 1449.84 322)">Regular</text>
  <text style="stroke:none;fill:black;font-family:sans-serif;font-size:13;text-anchor:middle;" transform="matrix(1 0 0 1 1746.56 322)">Medium</text>
  <text style="stroke:none;fill:black;font-family:sans-serif;font-size:13;text-anchor:middle;" transform="matrix(1 0 0 1 2043.27 322)">Semibold</text>
  <text style="stroke:none;fill:black;font-family:sans-serif;font-size:13;text-anchor:middle;" transform="matrix(1 0 0 1 2339.98 322)">Bold</text>
  <text style="stroke:none;fill:black;font-family:sans-serif;font-size:13;text-anchor:middle;" transform="matrix(1 0 0 1 2636.69 322)">Heavy</text>
  <text style="stroke:none;fill:black;font-family:sans-serif;font-size:13;text-anchor:middle;" transform="matrix(1 0 0 1 2933.4 322)">Black</text>
  <line style="fill:none;stroke:black;opacity:1;stroke-width:0.5;" x1="263" x2="3036" y1="1903" y2="1903"/>
  <g transform="matrix(1 0 0 1 263 1933)">
   <path d="M9.24805 0.830078Q10.8691 0.830078 12.2949 0.214844Q13.7207-0.400391 14.8096-1.49414Q15.8984-2.58789 16.5186-4.01367Q17.1387-5.43945 17.1387-7.05078Q17.1387-8.66211 16.5186-10.0879Q15.8984-11.5137 14.8047-12.6074Q13.7109-13.7012 12.2852-14.3164Q10.8594-14.9316 9.23828-14.9316Q7.62695-14.9316 6.20117-14.3164Q4.77539-13.7012 3.69141-12.6074Q2.60742-11.5137 1.9873-10.0879Q1.36719-8.66211 1.36719-7.05078Q1.36719-5.43945 1.9873-4.01367Q2.60742-2.58789 3.69629-1.49414Q4.78516-0.400391 6.21094 0.214844Q7.63672 0.830078 9.24805 0.830078ZM9.24805-0.654297Q7.91992-0.654297 6.7627-1.14746Q5.60547-1.64062 4.73145-2.51953Q3.85742-3.39844 3.36426-4.56055Q2.87109-5.72266 2.87109-7.05078Q2.87109-8.37891 3.35938-9.54102Q3.84766-10.7031 4.72168-11.582Q5.5957-12.4609 6.75293-12.9541Q7.91016-13.4473 9.23828-13.4473Q10.5762-13.4473 11.7334-12.9541Q12.8906-12.4609 13.7695-11.582Q14.6484-10.7031 15.1465-9.54102Q15.6445-8.37891 15.6445-7.05078Q15.6445-5.72266 15.1514-4.56055Q14.6582-3.39844 13.7842-2.51953Q12.9102-1.64062 11.748-1.14746Q10.5859-0.654297 9.24805-0.654297ZM5.6543-7.05078Q5.6543-6.72852 5.85938-6.52832Q6.06445-6.32812 6.40625-6.32812L8.51562-6.32812L8.51562-4.20898Q8.51562-3.88672 8.71094-3.67676Q8.90625-3.4668 9.23828-3.4668Q9.56055-3.4668 9.77051-3.67676Q9.98047-3.88672 9.98047-4.20898L9.98047-6.32812L12.0898-6.32812Q12.4219-6.32812 12.627-6.52832Q12.832-6.72852 12.832-7.05078Q12.832-7.38281 12.627-7.58789Q12.4219-7.79297 12.0898-7.79297L9.98047-7.79297L9.98047-9.90234Q9.98047-10.2344 9.77051-10.4443Q9.56055-10.6543 9.23828-10.6543Q8.90625-10.6543 8.71094-10.4443Q8.51562-10.2344 8.51562-9.90234L8.51562-7.79297L6.40625-7.79297Q6.06445-7.79297 5.85938-7.58789Q5.6543-7.38281 5.6543-7.05078Z"/>
  </g>
  <g transform="matrix(1 0 0 1 281.867 1933)">
   <path d="M11.709 2.91016Q13.75 2.91016 15.5518 2.12891Q17.3535 1.34766 18.7305-0.0292969Q20.1074-1.40625 20.8887-3.20801Q21.6699-5.00977 21.6699-7.05078Q21.6699-9.0918 20.8887-10.8936Q20.1074-12.6953 18.7305-14.0723Q17.3535-15.4492 15.5469-16.2305Q13.7402-17.0117 11.6992-17.0117Q9.6582-17.0117 7.85645-16.2305Q6.05469-15.4492 4.68262-14.0723Q3.31055-12.6953 2.5293-10.8936Q1.74805-9.0918 1.74805-7.05078Q1.74805-5.00977 2.5293-3.20801Q3.31055-1.40625 4.6875-0.0292969Q6.06445 1.34766 7.86621 2.12891Q9.66797 2.91016 11.709 2.91016ZM11.709 1.25Q9.98047 1.25 8.47656 0.605469Q6.97266-0.0390625 5.83496-1.17676Q4.69727-2.31445 4.05762-3.81836Q3.41797-5.32227 3.41797-7.05078Q3.41797-8.7793 4.05762-10.2832Q4.69727-11.7871 5.83008-12.9297Q6.96289-14.0723 8.4668-14.7119Q9.9707-15.3516 11.6992-15.3516Q13.4277-15.3516 14.9316-14.7119Q16.4355-14.0723 17.5781-12.9297Q18.7207-11.7871 19.3652-10.2832Q20.0098-8.7793 20.0098-7.05078Q20.0098-5.32227 19.3701-3.81836Q18.7305-2.31445 17.5928-1.17676Q16.4551-0.0390625 14.9463 0.605469Q13.4375 1.25 11.709 1.25ZM7.17773-7.05078Q7.17773-6.69922 7.41211-6.47461Q7.64648-6.25 8.01758-6.25L10.8887-6.25L10.8887-3.36914Q10.8887-2.99805 11.1133-2.76855Q11.3379-2.53906 11.6895-2.53906Q12.0605-2.53906 12.29-2.76855Q12.5195-2.99805 12.5195-3.36914L12.5195-6.25L15.4004-6.25Q15.7715-6.25 16.001-6.47461Q16.2305-6.69922 16.2305-7.05078Q16.2305-7.42188 16.001-7.65137Q15.7715-7.88086 15.4004-7.88086L12.5195-7.88086L12.5195-10.752Q12.5195-11.1328 12.29-11.3623Q12.0605-11.5918 11.6895-11.5918Q11.3379-11.5918 11.1133-11.3574Q10.8887-11.123 10.8887-10.752L10.8887-7.88086L8.01758-7.88086Q7.63672-7.88086 7.40723-7.65137Q7.17773-7.42188 7.17773-7.05078Z"/>
  </g>
  <g transform="matrix(1 0 0 1 305.646 1933)">
   <path d="M14.9707 5.66406Q17.0605 5.66406 18.96 5.01465Q20.8594 4.36523 22.4512 3.19336Q24.043 2.02148 25.2197 0.429688Q26.3965-1.16211 27.0459-3.06641Q27.6953-4.9707 27.6953-7.05078Q27.6953-9.14062 27.0459-11.04Q26.3965-12.9395 25.2197-14.5312Q24.043-16.123 22.4512-17.2998Q20.8594-18.4766 18.9551-19.126Q17.0508-19.7754 14.9609-19.7754Q12.8711-19.7754 10.9717-19.126Q9.07227-18.4766 7.48535-17.2998Q5.89844-16.123 4.72168-14.5312Q3.54492-12.9395 2.90039-11.04Q2.25586-9.14062 2.25586-7.05078Q2.25586-4.9707 2.90527-3.06641Q3.55469-1.16211 4.72656 0.429688Q5.89844 2.02148 7.49023 3.19336Q9.08203 4.36523 10.9814 5.01465Q12.8809 5.66406 14.9707 5.66406ZM14.9707 3.84766Q13.1641 3.84766 11.5283 3.2959Q9.89258 2.74414 8.53516 1.74805Q7.17773 0.751953 6.17676-0.610352Q5.17578-1.97266 4.62891-3.6084Q4.08203-5.24414 4.08203-7.05078Q4.08203-8.86719 4.62891-10.5029Q5.17578-12.1387 6.17188-13.501Q7.16797-14.8633 8.52539-15.8594Q9.88281-16.8555 11.5186-17.4023Q13.1543-17.9492 14.9609-17.9492Q16.7773-17.9492 18.4131-17.4023Q20.0488-16.8555 21.4111-15.8594Q22.7734-14.8633 23.7695-13.501Q24.7656-12.1387 25.3174-10.5029Q25.8691-8.86719 25.8691-7.05078Q25.8789-5.24414 25.332-3.6084Q24.7852-1.97266 23.7842-0.610352Q22.7832 0.751953 21.4209 1.74805Q20.0586 2.74414 18.4229 3.2959Q16.7871 3.84766 14.9707 3.84766ZM9.19922-7.05078Q9.19922-6.66992 9.45801-6.4209Q9.7168-6.17188 10.1172-6.17188L14.0625-6.17188L14.0625-2.2168Q14.0625-1.81641 14.3115-1.55762Q14.5605-1.29883 14.9512-1.29883Q15.3516-1.29883 15.6104-1.55273Q15.8691-1.80664 15.8691-2.2168L15.8691-6.17188L19.8242-6.17188Q20.2246-6.17188 20.4785-6.4209Q20.7324-6.66992 20.7324-7.05078Q20.7324-7.46094 20.4785-7.71484Q20.2246-7.96875 19.8242-7.96875L15.8691-7.96875L15.8691-11.9141Q15.8691-12.3242 15.6104-12.583Q15.3516-12.8418 14.9512-12.8418Q14.5605-12.8418 14.3115-12.583Q14.0625-12.3242 14.0625-11.9141L14.0625-7.96875L10.1172-7.96875Q9.70703-7.96875 9.45312-7.71484Q9.19922-7.46094 9.19922-7.05078Z"/>
  </g>
  <text style="stroke:none;fill:black;font-family:sans-serif;font-size:13;font-weight:bold;" transform="matrix(1 0 0 1 263 1953)">Design Variations</text>
  <text style="stroke:none;fill:black;font-family:sans-serif;font-size:13;" transform="matrix(1 0 0 1 263 1971)">Symbols are supported in up to nine weights and three scales.</text>
  <text style="stroke:none;fill:black;font-family:sans-serif;font-size:13;" transform="matrix(1 0 0 1 263 1989)">For optimal layout with text and other symbols, vertically align</text>
  <text style="stroke:none;fill:black;font-family:sans-serif;font-size:13;" transform="matrix(1 0 0 1 263 2007)">symbols with the adjacent text.</text>
  <line style="fill:none;stroke:#00AEEF;stroke-width:0.5;opacity:1.0;" x1="776" x2="776" y1="1919" y2="1933"/>
  <g transform="matrix(1 0 0 1 776 1933)">
   <path d="M3.31055 0.15625Q3.70117 0.15625 3.91602-0.00976562Q4.13086-0.175781 4.26758-0.585938L5.52734-4.0332L11.2891-4.0332L12.5488-0.585938Q12.6855-0.175781 12.9004-0.00976562Q13.1152 0.15625 13.4961 0.15625Q13.8867 0.15625 14.1162-0.0585938Q14.3457-0.273438 14.3457-0.644531Q14.3457-0.869141 14.2383-1.17188L9.6582-13.3691Q9.48242-13.8184 9.17969-14.043Q8.87695-14.2676 8.4082-14.2676Q7.5-14.2676 7.17773-13.3789L2.59766-1.16211Q2.49023-0.859375 2.49023-0.634766Q2.49023-0.263672 2.70996-0.0537109Q2.92969 0.15625 3.31055 0.15625ZM6.00586-5.51758L8.37891-12.0898L8.42773-12.0898L10.8008-5.51758Z"/>
  </g>
  <line style="fill:none;stroke:#00AEEF;stroke-width:0.5;opacity:1.0;" x1="793.197" x2="793.197" y1="1919" y2="1933"/>
  <text style="stroke:none;fill:black;font-family:sans-serif;font-size:13;font-weight:bold;" transform="matrix(1 0 0 1 776 1953)">Margins</text>
  <text style="stroke:none;fill:black;font-family:sans-serif;font-size:13;" transform="matrix(1 0 0 1 776 1971)">Leading and trailing margins on the left and right side of each symbol</text>
  <text style="stroke:none;fill:black;font-family:sans-serif;font-size:13;" transform="matrix(1 0 0 1 776 1989)">can be adjusted by modifying the x-location of the margin guidelines.</text>
  <text style="stroke:none;fill:black;font-family:sans-serif;font-size:13;" transform="matrix(1 0 0 1 776 2007)">Modifications are automatically applied proportionally to all</text>
  <text style="stroke:none;fill:black;font-family:sans-serif;font-size:13;" transform="matrix(1 0 0 1 776 2025)">scales and weights.</text>
  <g transform="matrix(1 0 0 1 1289 1933)">
   <path d="M2.8418 1.86523L4.54102 3.57422Q5.18555 4.22852 5.90332 4.17969Q6.62109 4.13086 7.31445 3.35938L18.0078-8.42773L17.041-9.4043L6.42578 2.27539Q6.16211 2.57812 5.89355 2.61719Q5.625 2.65625 5.27344 2.30469L4.10156 1.14258Q3.75 0.791016 3.79395 0.522461Q3.83789 0.253906 4.14062-0.0195312L15.6152-10.8203L14.6387-11.7871L3.04688-0.898438Q2.30469-0.214844 2.25098 0.498047Q2.19727 1.21094 2.8418 1.86523ZM9.25781-16.3281Q8.94531-16.0254 8.90625-15.6348Q8.86719-15.2441 9.04297-14.9512Q9.21875-14.6777 9.55566-14.541Q9.89258-14.4043 10.3809-14.5215Q11.4746-14.7754 12.5977-14.7314Q13.7207-14.6875 14.7949-13.9844L14.209-12.5293Q13.9551-11.9043 14.0674-11.4404Q14.1797-10.9766 14.5801-10.5664L16.875-8.25195Q17.2363-7.88086 17.5781-7.82227Q17.9199-7.76367 18.3398-7.8418L19.4043-8.03711L20.0684-7.36328L20.0293-6.80664Q20-6.43555 20.1221-6.12305Q20.2441-5.81055 20.6055-5.44922L21.3672-4.70703Q21.7285-4.3457 22.1533-4.33105Q22.5781-4.31641 22.9297-4.66797L25.8398-7.58789Q26.1914-7.93945 26.1816-8.35449Q26.1719-8.76953 25.8105-9.13086L25.0391-9.89258Q24.6875-10.2539 24.3799-10.3857Q24.0723-10.5176 23.7109-10.4883L23.1348-10.4395L22.4902-11.0742L22.7344-12.1973Q22.832-12.6172 22.6953-12.9834Q22.5586-13.3496 22.1191-13.7891L19.9219-15.9766Q18.6719-17.2168 17.2607-17.8369Q15.8496-18.457 14.4189-18.4814Q12.9883-18.5059 11.665-17.959Q10.3418-17.4121 9.25781-16.3281ZM10.752-15.957Q11.6602-16.6211 12.7002-16.9043Q13.7402-17.1875 14.8047-17.085Q15.8691-16.9824 16.8701-16.5137Q17.8711-16.0449 18.7012-15.2051L21.1328-12.793Q21.3086-12.6172 21.3525-12.4512Q21.3965-12.2852 21.3379-12.0312L21.0156-10.5469L22.5195-9.0625L23.5059-9.12109Q23.6914-9.13086 23.7891-9.09668Q23.8867-9.0625 24.0332-8.91602L24.6094-8.33984L22.168-5.89844L21.5918-6.47461Q21.4453-6.62109 21.4062-6.71875Q21.3672-6.81641 21.377-7.01172L21.4453-7.98828L19.9512-9.47266L18.4277-9.21875Q18.1836-9.16992 18.042-9.2041Q17.9004-9.23828 17.7148-9.41406L15.7129-11.416Q15.5176-11.5918 15.4932-11.7529Q15.4688-11.9141 15.5859-12.1875L16.4648-14.2773Q15.293-15.3711 13.8281-15.791Q12.3633-16.2109 10.8398-15.7617Q10.7227-15.7324 10.6885-15.8057Q10.6543-15.8789 10.752-15.957Z"/>
  </g>
  <text style="stroke:none;fill:black;font-family:sans-serif;font-size:13;font-weight:bold;" transform="matrix(1 0 0 1 1289 1953)">Exporting</text>
  <text style="stroke:none;fill:black;font-family:sans-serif;font-size:13;" transform="matrix(1 0 0 1 1289 1971)">Symbols should be outlined when exporting to ensure the</text>
  <text style="stroke:none;fill:black;font-family:sans-serif;font-size:13;" transform="matrix(1 0 0 1 1289 1989)">design is preserved when submitting to Xcode.</text>
  <text id="template-version" style="stroke:none;fill:black;font-family:sans-serif;font-size:13;text-anchor:end;" transform="matrix(1 0 0 1 3036 1933)">Template v.3.0</text>
  <text style="stroke:none;fill:black;font-family:sans-serif;font-size:13;text-anchor:end;" transform="matrix(1 0 0 1 3036 1951)">Requires Xcode 13 or greater</text>
  <text id="descriptive-name" style="stroke:none;fill:black;font-family:sans-serif;font-size:13;text-anchor:end;" transform="matrix(1 0 0 1 3036 1969)">Generated from envelope.fill</text>
  <text style="stroke:none;fill:black;font-family:sans-serif;font-size:13;text-anchor:end;" transform="matrix(1 0 0 1 3036 1987)">Typeset at 100 points</text>
  <text style="stroke:none;fill:black;font-family:sans-serif;font-size:13;" transform="matrix(1 0 0 1 263 726)">Small</text>
  <text style="stroke:none;fill:black;font-family:sans-serif;font-size:13;" transform="matrix(1 0 0 1 263 1156)">Medium</text>
  <text style="stroke:none;fill:black;font-family:sans-serif;font-size:13;" transform="matrix(1 0 0 1 263 1586)">Large</text>
 </g>
 <g id="Guides">
  <g id="H-reference" style="fill:#27AAE1;stroke:none;" transform="matrix(1 0 0 1 339 696)">
   <path d="M0.976562 0L3.66211 0L29.3457-67.1387L30.0293-67.1387L30.0293-70.459L28.125-70.459ZM11.6699-24.4629L46.9727-24.4629L46.2402-26.709L12.4512-26.709ZM55.127 0L57.7637 0L30.6152-70.459L29.4434-70.459L29.4434-67.1387Z"/>
  </g>
  <line id="Baseline-S" style="fill:none;stroke:#27AAE1;opacity:1;stroke-width:0.5;" x1="263" x2="3036" y1="696" y2="696"/>
  <line id="Capline-S" style="fill:none;stroke:#27AAE1;opacity:1;stroke-width:0.5;" x1="263" x2="3036" y1="625.541" y2="625.541"/>
  <g id="H-reference" style="fill:#27AAE1;stroke:none;" transform="matrix(1 0 0 1 339 1126)">
   <path d="M0.976562 0L3.66211 0L29.3457-67.1387L30.0293-67.1387L30.0293-70.459L28.125-70.459ZM11.6699-24.4629L46.9727-24.4629L46.2402-26.709L12.4512-26.709ZM55.127 0L57.7637 0L30.6152-70.459L29.4434-70.459L29.4434-67.1387Z"/>
  </g>
  <line id="Baseline-M" style="fill:none;stroke:#27AAE1;opacity:1;stroke-width:0.5;" x1="263" x2="3036" y1="1126" y2="1126"/>
  <line id="Capline-M" style="fill:none;stroke:#27AAE1;opacity:1;stroke-width:0.5;" x1="263" x2="3036" y1="1055.54" y2="1055.54"/>
  <g id="H-reference" style="fill:#27AAE1;stroke:none;" transform="matrix(1 0 0 1 339 1556)">
   <path d="M0.976562 0L3.66211 0L29.3457-67.1387L30.0293-67.1387L30.0293-70.459L28.125-70.459ZM11.6699-24.4629L46.9727-24.4629L46.2402-26.709L12.4512-26.709ZM55.127 0L57.7637 0L30.6152-70.459L29.4434-70.459L29.4434-67.1387Z"/>
  </g>
  <line id="Baseline-L" style="fill:none;stroke:#27AAE1;opacity:1;stroke-width:0.5;" x1="263" x2="3036" y1="1556" y2="1556"/>
  <line id="Capline-L" style="fill:none;stroke:#27AAE1;opacity:1;stroke-width:0.5;" x1="263" x2="3036" y1="1485.54" y2="1485.54"/>
  <line id="left-margin-Ultralight-S" style="fill:none;stroke:#00AEEF;stroke-width:0.5;opacity:1.0;" x1="509.54" x2="509.54" y1="600.785" y2="720.121"/>
  <line id="right-margin-Ultralight-S" style="fill:none;stroke:#00AEEF;stroke-width:0.5;opacity:1.0;" x1="609.882" x2="609.882" y1="600.785" y2="720.121"/>
  <line id="left-margin-Thin-S" style="fill:none;stroke:#00AEEF;stroke-width:0.5;opacity:1.0;" x1="805.739" x2="805.739" y1="600.785" y2="720.121"/>
  <line id="right-margin-Thin-S" style="fill:none;stroke:#00AEEF;stroke-width:0.5;opacity:1.0;" x1="907.106" x2="907.106" y1="600.785" y2="720.121"/>
  <line id="left-margin-Light-S" style="fill:none;stroke:#00AEEF;stroke-width:0.5;opacity:1.0;" x1="1101.47" x2="1101.47" y1="600.785" y2="720.121"/>
  <line id="right-margin-Light-S" style="fill:none;stroke:#00AEEF;stroke-width:0.5;opacity:1.0;" x1="1204.79" x2="1204.79" y1="600.785" y2="720.121"/>
  <line id="left-margin-Regular-S" style="fill:none;stroke:#00AEEF;stroke-width:0.5;opacity:1.0;" x1="1397.43" x2="1397.43" y1="600.785" y2="720.121"/>
  <line id="right-margin-Regular-S" style="fill:none;stroke:#00AEEF;stroke-width:0.5;opacity:1.0;" x1="1502.26" x2="1502.26" y1="600.785" y2="720.121"/>
  <line id="left-margin-Medium-S" style="fill:none;stroke:#00AEEF;stroke-width:0.5;opacity:1.0;" x1="1693.48" x2="1693.48" y1="600.785" y2="720.121"/>
  <line id="right-margin-Medium-S" style="fill:none;stroke:#00AEEF;stroke-width:0.5;opacity:1.0;" x1="1799.63" x2="1799.63" y1="600.785" y2="720.121"/>
  <line id="left-margin-Semibold-S" style="fill:none;stroke:#00AEEF;stroke-width:0.5;opacity:1.0;" x1="1989.7" x2="1989.7" y1="600.785" y2="720.121"/>
  <line id="right-margin-Semibold-S" style="fill:none;stroke:#00AEEF;stroke-width:0.5;opacity:1.0;" x1="2096.83" x2="2096.83" y1="600.785" y2="720.121"/>
  <line id="left-margin-Bold-S" style="fill:none;stroke:#00AEEF;stroke-width:0.5;opacity:1.0;" x1="2285.73" x2="2285.73" y1="600.785" y2="720.121"/>
  <line id="right-margin-Bold-S" style="fill:none;stroke:#00AEEF;stroke-width:0.5;opacity:1.0;" x1="2394.23" x2="2394.23" y1="600.785" y2="720.121"/>
  <line id="left-margin-Heavy-S" style="fill:none;stroke:#00AEEF;stroke-width:0.5;opacity:1.0;" x1="2581.49" x2="2581.49" y1="600.785" y2="720.121"/>
  <line id="right-margin-Heavy-S" style="fill:none;stroke:#00AEEF;stroke-width:0.5;opacity:1.0;" x1="2691.89" x2="2691.89" y1="600.785" y2="720.121"/>
  <line id="left-margin-Black-S" style="fill:none;stroke:#00AEEF;stroke-width:0.5;opacity:1.0;" x1="2877.35" x2="2877.35" y1="600.785" y2="720.121"/>
  <line id="right-margin-Black-S" style="fill:none;stroke:#00AEEF;stroke-width:0.5;opacity:1.0;" x1="2989.45" x2="2989.45" y1="600.785" y2="720.121"/>
  <line id="left-margin-Ultralight-M" style="fill:none;stroke:#00AEEF;stroke-width:0.5;opacity:1.0;" x1="495.893" x2="495.893" y1="1030.79" y2="1150.12"/>
  <line id="right-margin-Ultralight-M" style="fill:none;stroke:#00AEEF;stroke-width:0.5;opacity:1.0;" x1="623.529" x2="623.529" y1="1030.79" y2="1150.12"/>
  <line id="left-margin-Thin-M" style="fill:none;stroke:#00AEEF;stroke-width:0.5;opacity:1.0;" x1="792.042" x2="792.042" y1="1030.79" y2="1150.12"/>
  <line id="right-margin-Thin-M" style="fill:none;stroke:#00AEEF;stroke-width:0.5;opacity:1.0;" x1="920.802" x2="920.802" y1="1030.79" y2="1150.12"/>
  <line id="left-margin-Light-M" style="fill:none;stroke:#00AEEF;stroke-width:0.5;opacity:1.0;" x1="1087.63" x2="1087.63" y1="1030.79" y2="1150.12"/>
  <line id="right-margin-Light-M" style="fill:none;stroke:#00AEEF;stroke-width:0.5;opacity:1.0;" x1="1218.64" x2="1218.64" y1="1030.79" y2="1150.12"/>
  <line id="left-margin-Regular-M" style="fill:none;stroke:#00AEEF;stroke-width:0.5;opacity:1.0;" x1="1383.49" x2="1383.49" y1="1030.79" y2="1150.12"/>
  <line id="right-margin-Regular-M" style="fill:none;stroke:#00AEEF;stroke-width:0.5;opacity:1.0;" x1="1516.2" x2="1516.2" y1="1030.79" y2="1150.12"/>
  <line id="left-margin-Medium-M" style="fill:none;stroke:#00AEEF;stroke-width:0.5;opacity:1.0;" x1="1679.34" x2="1679.34" y1="1030.79" y2="1150.12"/>
  <line id="right-margin-Medium-M" style="fill:none;stroke:#00AEEF;stroke-width:0.5;opacity:1.0;" x1="1813.77" x2="1813.77" y1="1030.79" y2="1150.12"/>
  <line id="left-margin-Semibold-M" style="fill:none;stroke:#00AEEF;stroke-width:0.5;opacity:1.0;" x1="1975.37" x2="1975.37" y1="1030.79" y2="1150.12"/>
  <line id="right-margin-Semibold-M" style="fill:none;stroke:#00AEEF;stroke-width:0.5;opacity:1.0;" x1="2111.16" x2="2111.16" y1="1030.79" y2="1150.12"/>
  <line id="left-margin-Bold-M" style="fill:none;stroke:#00AEEF;stroke-width:0.5;opacity:1.0;" x1="2271.2" x2="2271.2" y1="1030.79" y2="1150.12"/>
  <line id="right-margin-Bold-M" style="fill:none;stroke:#00AEEF;stroke-width:0.5;opacity:1.0;" x1="2408.75" x2="2408.75" y1="1030.79" y2="1150.12"/>
  <line id="left-margin-Heavy-M" style="fill:none;stroke:#00AEEF;stroke-width:0.5;opacity:1.0;" x1="2566.64" x2="2566.64" y1="1030.79" y2="1150.12"/>
  <line id="right-margin-Heavy-M" style="fill:none;stroke:#00AEEF;stroke-width:0.5;opacity:1.0;" x1="2706.73" x2="2706.73" y1="1030.79" y2="1150.12"/>
  <line id="left-margin-Black-M" style="fill:none;stroke:#00AEEF;stroke-width:0.5;opacity:1.0;" x1="2862.23" x2="2862.23" y1="1030.79" y2="1150.12"/>
  <line id="right-margin-Black-M" style="fill:none;stroke:#00AEEF;stroke-width:0.5;opacity:1.0;" x1="3004.57" x2="3004.57" y1="1030.79" y2="1150.12"/>
  <line id="left-margin-Ultralight-L" style="fill:none;stroke:#00AEEF;stroke-width:0.5;opacity:1.0;" x1="477.607" x2="477.607" y1="1460.79" y2="1580.12"/>
  <line id="right-margin-Ultralight-L" style="fill:none;stroke:#00AEEF;stroke-width:0.5;opacity:1.0;" x1="641.816" x2="641.816" y1="1460.79" y2="1580.12"/>
  <line id="left-margin-Thin-L" style="fill:none;stroke:#00AEEF;stroke-width:0.5;opacity:1.0;" x1="773.683" x2="773.683" y1="1460.79" y2="1580.12"/>
  <line id="right-margin-Thin-L" style="fill:none;stroke:#00AEEF;stroke-width:0.5;opacity:1.0;" x1="939.161" x2="939.161" y1="1460.79" y2="1580.12"/>
  <line id="left-margin-Light-L" style="fill:none;stroke:#00AEEF;stroke-width:0.5;opacity:1.0;" x1="1069.15" x2="1069.15" y1="1460.79" y2="1580.12"/>
  <line id="right-margin-Light-L" style="fill:none;stroke:#00AEEF;stroke-width:0.5;opacity:1.0;" x1="1237.12" x2="1237.12" y1="1460.79" y2="1580.12"/>
  <line id="left-margin-Regular-L" style="fill:none;stroke:#00AEEF;stroke-width:0.5;opacity:1.0;" x1="1364.91" x2="1364.91" y1="1460.79" y2="1580.12"/>
  <line id="right-margin-Regular-L" style="fill:none;stroke:#00AEEF;stroke-width:0.5;opacity:1.0;" x1="1534.78" x2="1534.78" y1="1460.79" y2="1580.12"/>
  <line id="left-margin-Medium-L" style="fill:none;stroke:#00AEEF;stroke-width:0.5;opacity:1.0;" x1="1660.57" x2="1660.57" y1="1460.79" y2="1580.12"/>
  <line id="right-margin-Medium-L" style="fill:none;stroke:#00AEEF;stroke-width:0.5;opacity:1.0;" x1="1832.54" x2="1832.54" y1="1460.79" y2="1580.12"/>
  <line id="left-margin-Semibold-L" style="fill:none;stroke:#00AEEF;stroke-width:0.5;opacity:1.0;" x1="1956.5" x2="1956.5" y1="1460.79" y2="1580.12"/>
  <line id="right-margin-Semibold-L" style="fill:none;stroke:#00AEEF;stroke-width:0.5;opacity:1.0;" x1="2130.03" x2="2130.03" y1="1460.79" y2="1580.12"/>
  <line id="left-margin-Bold-L" style="fill:none;stroke:#00AEEF;stroke-width:0.5;opacity:1.0;" x1="2252.14" x2="2252.14" y1="1460.79" y2="1580.12"/>
  <line id="right-margin-Bold-L" style="fill:none;stroke:#00AEEF;stroke-width:0.5;opacity:1.0;" x1="2427.82" x2="2427.82" y1="1460.79" y2="1580.12"/>
  <line id="left-margin-Heavy-L" style="fill:none;stroke:#00AEEF;stroke-width:0.5;opacity:1.0;" x1="2547.33" x2="2547.33" y1="1460.79" y2="1580.12"/>
  <line id="right-margin-Heavy-L" style="fill:none;stroke:#00AEEF;stroke-width:0.5;opacity:1.0;" x1="2726.04" x2="2726.04" y1="1460.79" y2="1580.12"/>
  <line id="left-margin-Black-L" style="fill:none;stroke:#00AEEF;stroke-width:0.5;opacity:1.0;" x1="2842.68" x2="2842.68" y1="1460.79" y2="1580.12"/>
  <line id="right-margin-Black-L" style="fill:none;stroke:#00AEEF;stroke-width:0.5;opacity:1.0;" x1="3024.12" x2="3024.12" y1="1460.79" y2="1580.12"/>
 </g>
 <g id="Symbols">
  <g id="Black-L" transform="matrix(1 0 0 1 2842.68 1556)">
   <path d="M90.7227-30.9082Q92.9199-30.9082 94.9463-32.0312Q96.9727-33.1543 99.3164-35.498L154.639-91.0156Q150.439-93.8965 141.455-93.8965L39.3066-93.8965Q30.7129-93.8965 26.709-91.0645L82.1289-35.498Q84.4727-33.1543 86.499-32.0312Q88.5254-30.9082 90.7227-30.9082ZM18.1152 10.9863L65.5762-36.4746L18.7988-82.7637Q16.0645-78.6621 16.0645-70.1172L16.0645-0.292969Q16.0645 7.22656 18.1152 10.9863ZM39.9902 23.5352L142.139 23.5352Q151.562 23.5352 156.006 19.9707L107.666-28.418L104.785-25.5371Q97.9492-18.8477 90.7227-18.8477Q83.3984-18.8477 76.6113-25.5371L73.7305-28.3691L25.4883 19.873Q30.127 23.5352 39.9902 23.5352ZM163.33 11.0352Q165.381 7.22656 165.381-0.292969L165.381-70.1172Q165.381-78.6621 162.646-82.7637L115.869-36.4746Z"/>
  </g>
  <g id="Heavy-L" transform="matrix(1 0 0 1 2547.33 1556)">
   <path d="M89.4043-30.0781Q91.5527-30.0781 93.5303-31.1523Q95.5078-32.2266 97.7539-34.4727L152.979-89.6484Q148.926-92.6758 139.893-92.6758L37.9395-92.6758Q29.4922-92.6758 25.6836-89.7949L81.0059-34.4727Q83.252-32.2266 85.2539-31.1523Q87.2559-30.0781 89.4043-30.0781ZM18.0176 10.5469L64.8438-36.084L18.5059-81.8848Q16.0645-78.125 16.0645-70.0684L16.0645-0.292969Q16.0645 7.03125 18.0176 10.5469ZM38.8184 22.3145L140.771 22.3145Q149.854 22.3145 153.955 18.8965L106.348-28.6133L103.076-25.3906Q96.4355-18.8965 89.4043-18.8965Q82.2754-18.8965 75.6836-25.3906L72.4121-28.5645L24.8535 18.7988Q29.1992 22.3145 38.8184 22.3145ZM160.693 10.498Q162.646 6.98242 162.646-0.292969L162.646-70.0684Q162.646-78.0762 160.205-81.8359L113.965-36.084Z"/>
  </g>
  <g id="Bold-L" transform="matrix(1 0 0 1 2252.14 1556)">
   <path d="M87.9395-29.1992Q89.9902-29.1992 91.9434-30.2246Q93.8965-31.25 96.0449-33.3984L151.074-88.1348Q147.266-91.3574 138.135-91.3574L36.4746-91.3574Q28.125-91.3574 24.5605-88.3301L79.7852-33.3984Q81.9336-31.25 83.9111-30.2246Q85.8887-29.1992 87.9395-29.1992ZM17.9688 10.0098L64.0137-35.6934L18.2129-80.9082Q16.0645-77.5391 16.0645-70.0684L16.0645-0.341797Q16.0645 6.78711 17.9688 10.0098ZM37.5488 20.9961L139.209 20.9961Q147.949 20.9961 151.709 17.6758L104.883-28.8574L101.221-25.2441Q94.7754-18.9941 87.9395-18.9941Q81.0547-18.9941 74.6094-25.2441L70.9961-28.8086L24.1699 17.627Q28.1738 20.9961 37.5488 20.9961ZM157.812 9.91211Q159.619 6.68945 159.619-0.341797L159.619-70.0684Q159.619-77.4414 157.52-80.7617L111.816-35.6934Z"/>
  </g>
  <g id="Semibold-L" transform="matrix(1 0 0 1 1956.5 1556)">
   <path d="M86.9141-28.5645Q88.916-28.5645 90.8447-29.541Q92.7734-30.5176 94.873-32.6172L149.756-87.1094Q146.094-90.3809 136.914-90.3809L35.4004-90.3809Q27.1484-90.3809 23.7793-87.3535L78.9551-32.6172Q81.0059-30.5176 82.959-29.541Q84.9121-28.5645 86.9141-28.5645ZM17.8711 9.66797L63.4277-35.3516L17.9688-80.1758Q16.0645-77.0996 16.0645-70.0195L16.0645-0.341797Q16.0645 6.5918 17.8711 9.66797ZM36.6211 20.0684L138.135 20.0684Q146.582 20.0684 150.098 16.7969L103.857-29.0039L99.9023-25.0977Q93.6035-18.9941 86.9141-18.9941Q80.1758-18.9941 73.877-25.0977L69.9707-28.9551L23.6816 16.7969Q27.4414 20.0684 36.6211 20.0684ZM155.762 9.52148Q157.471 6.49414 157.471-0.341797L157.471-70.0195Q157.471-77.002 155.664-80.0293L110.352-35.3516Z"/>
  </g>
  <g id="Medium-L" transform="matrix(1 0 0 1 1660.57 1556)">
   <path d="M86.1328-28.0762Q88.1348-28.0762 90.0391-29.0283Q91.9434-29.9805 93.9453-32.0312L148.779-86.2793Q145.215-89.6973 135.986-89.6973L34.6191-89.6973Q26.416-89.6973 23.1934-86.5723L78.2715-32.0312Q80.3223-29.9805 82.251-29.0283Q84.1797-28.0762 86.1328-28.0762ZM17.8223 9.375L63.0371-35.1562L17.7734-79.6875Q16.0645-76.7578 16.0645-70.0195L16.0645-0.341797Q16.0645 6.44531 17.8223 9.375ZM35.9375 19.3848L137.354 19.3848Q145.605 19.3848 148.926 16.1621L103.076-29.1016L98.877-25Q92.7246-19.043 86.1328-19.043Q79.4922-19.043 73.3398-25L69.1895-29.1016L23.3398 16.1621Q26.9043 19.3848 35.9375 19.3848ZM154.248 9.17969Q155.908 6.34766 155.908-0.341797L155.908-70.0195Q155.908-76.6602 154.248-79.4922L109.229-35.1562Z"/>
  </g>
  <g id="Regular-L" transform="matrix(1 0 0 1 1364.91 1556)">
   <path d="M85.1074-27.4414Q87.0605-27.4414 88.9404-28.3691Q90.8203-29.2969 92.7734-31.25L147.51-85.2539Q144.092-88.7695 134.766-88.7695L33.5938-88.7695Q25.4883-88.7695 22.4121-85.5957L77.4414-31.25Q79.3945-29.2969 81.2988-28.3691Q83.2031-27.4414 85.1074-27.4414ZM17.7734 9.0332L62.4512-34.8633L17.5781-79.0039Q16.0645-76.3672 16.0645-69.9707L16.0645-0.341797Q16.0645 6.29883 17.7734 9.0332ZM35.0586 18.457L136.279 18.457Q144.287 18.457 147.363 15.332L102.051-29.248L97.6074-24.9023Q91.5527-19.0918 85.1074-19.0918Q78.6621-19.0918 72.6074-24.9023L68.2129-29.248L22.8516 15.332Q26.2207 18.457 35.0586 18.457ZM152.246 8.78906Q153.809 6.15234 153.809-0.341797L153.809-69.9707Q153.809-76.2207 152.393-78.7598L107.764-34.8633Z"/>
  </g>
  <g id="Light-L" transform="matrix(1 0 0 1 1069.15 1556)">
   <path d="M84.2773-26.8066Q86.1816-26.8066 88.0859-27.71Q89.9902-28.6133 91.7969-30.4199L146.387-84.082Q143.164-87.8418 133.936-87.8418L33.1055-87.8418Q24.8047-87.8418 21.8262-84.5215L76.7578-30.4199Q78.5645-28.6133 80.4932-27.71Q82.4219-26.8066 84.2773-26.8066ZM17.9199 9.08203L62.8418-34.5703L17.6758-78.8574Q16.0645-76.3672 16.0645-69.9707L16.0645-0.292969Q16.0645 6.39648 17.9199 9.08203ZM34.0332 17.5293L134.863 17.5293Q143.066 17.5293 146.094 14.2578L100.879-29.7852L96.1426-25.1953Q90.4297-19.7754 84.2773-19.7754Q78.125-19.7754 72.4121-25.1953L67.7246-29.7852L22.3145 14.4043Q25.4395 17.5293 34.0332 17.5293ZM150.293 8.69141Q151.904 6.15234 151.904-0.292969L151.904-69.9707Q151.904-76.0742 150.488-78.4668L105.713-34.5703Z"/>
  </g>
  <g id="Thin-L" transform="matrix(1 0 0 1 773.683 1556)">
   <path d="M83.1543-25.9277Q85.0586-25.9277 86.9629-26.8066Q88.8672-27.6855 90.5762-29.3457L144.922-82.5684Q141.895-86.5723 132.812-86.5723L32.4707-86.5723Q23.9258-86.5723 20.9961-83.0566L75.8301-29.3457Q77.4414-27.7344 79.4189-26.8311Q81.3965-25.9277 83.1543-25.9277ZM18.0664 9.08203L63.3301-34.2285L17.7734-78.7109Q16.0645-76.3184 16.0645-70.0195L16.0645-0.244141Q16.0645 6.49414 18.0664 9.08203ZM32.666 16.3574L133.008 16.3574Q141.455 16.3574 144.385 12.8418L99.2676-30.5176L94.1895-25.5859Q88.9648-20.6543 83.1543-20.6543Q77.3926-20.6543 72.168-25.5859L67.1387-30.5176L21.5332 13.2324Q24.4141 16.3574 32.666 16.3574ZM147.656 8.49609Q149.414 6.10352 149.414-0.244141L149.414-70.0195Q149.414-75.8301 147.998-78.0762L103.076-34.2285Z"/>
  </g>
  <g id="Ultralight-L" transform="matrix(1 0 0 1 477.607 1556)">
   <path d="M82.6172-25.4883Q84.4727-25.4883 86.4014-26.3428Q88.3301-27.1973 89.8926-28.8086L144.141-81.7871Q141.26-85.9375 132.227-85.9375L32.1289-85.9375Q23.4863-85.9375 20.6055-82.3242L75.3418-28.8086Q76.8555-27.2949 78.8574-26.3916Q80.8594-25.4883 82.6172-25.4883ZM18.1641 9.13086L63.5742-34.0332L17.8223-78.6133Q16.0645-76.3184 16.0645-70.0195L16.0645-0.195312Q16.0645 6.5918 18.1641 9.13086ZM31.9824 15.7227L132.08 15.7227Q140.625 15.7227 143.506 12.1094L98.4863-30.8594L93.2129-25.8301Q88.2324-21.0938 82.6172-21.0938Q77.0508-21.0938 72.0703-25.8301L66.7969-30.8594L21.1914 12.5977Q23.9258 15.7227 31.9824 15.7227ZM146.338 8.44727Q148.145 6.10352 148.145-0.195312L148.145-70.0195Q148.145-75.7324 146.729-77.832L101.66-34.0332Z"/>
  </g>
  <g id="Black-M" transform="matrix(1 0 0 1 2862.23 1126)">
   <path d="M71.1426-32.373Q74.3164-32.373 77.9297-35.9863L120.898-79.248Q117.578-81.4453 110.693-81.4453L31.4453-81.4453Q24.6094-81.4453 21.3867-79.248L64.3555-35.9863Q68.0176-32.373 71.1426-32.373ZM14.1602 1.02539L51.5625-36.4258L14.8438-72.7539Q12.4512-69.3359 12.4512-62.3047L12.4512-8.10547Q12.4512-2.09961 14.1602 1.02539ZM31.5918 11.0352L110.84 11.0352Q118.506 11.0352 122.217 8.10547L84.1797-29.9805L82.1289-27.9297Q76.8555-22.7051 71.1426-22.7051Q65.4297-22.7051 60.1074-27.9297L58.1055-29.8828L20.0684 8.10547Q23.877 11.0352 31.5918 11.0352ZM128.174 1.02539Q129.883-2.09961 129.883-8.10547L129.883-62.3047Q129.883-69.3359 127.49-72.7539L90.7227-36.4258Z"/>
  </g>
  <g id="Heavy-M" transform="matrix(1 0 0 1 2566.64 1126)">
   <path d="M70.0195-31.6895Q73.1445-31.6895 76.6602-35.2051L119.482-78.1738Q116.309-80.4688 109.326-80.4688L30.2246-80.4688Q23.5352-80.4688 20.5078-78.2227L63.4277-35.2051Q66.9434-31.6895 70.0195-31.6895ZM14.0625 0.537109L50.7812-36.1328L14.5508-71.9238Q12.4512-68.7988 12.4512-62.2559L12.4512-8.1543Q12.4512-2.34375 14.0625 0.537109ZM30.7129 10.0586L109.814 10.0586Q117.09 10.0586 120.508 7.27539L83.1543-30.0781L80.8105-27.7344Q75.6348-22.6074 70.0195-22.6074Q64.4531-22.6074 59.2285-27.7344L56.9336-29.9805L19.5801 7.27539Q23.1445 10.0586 30.7129 10.0586ZM126.025 0.537109Q127.637-2.34375 127.637-8.1543L127.637-62.2559Q127.637-68.7988 125.537-71.875L89.3066-36.1328Z"/>
  </g>
  <g id="Bold-M" transform="matrix(1 0 0 1 2271.2 1126)">
   <path d="M68.7988-30.957Q71.875-30.957 75.1953-34.3262L117.92-76.9531Q114.893-79.3457 107.812-79.3457L28.9062-79.3457Q22.3633-79.3457 19.5801-77.0508L62.4023-34.3262Q65.7715-30.957 68.7988-30.957ZM13.916 0.0488281L49.9023-35.791L14.209-70.9961Q12.4512-68.2617 12.4512-62.2559L12.4512-8.20312Q12.4512-2.58789 13.916 0.0488281ZM29.6875 8.98438L108.643 8.98438Q115.527 8.98438 118.604 6.34766L81.9824-30.1758L79.3457-27.4902Q74.2188-22.5586 68.7988-22.5586Q63.3789-22.5586 58.252-27.4902L55.6152-30.127L19.043 6.29883Q22.3633 8.98438 29.6875 8.98438ZM123.633 0Q125.098-2.63672 125.098-8.20312L125.098-62.2559Q125.098-68.2129 123.34-70.9473L87.6953-35.791Z"/>
  </g>
  <g id="Semibold-M" transform="matrix(1 0 0 1 1975.37 1126)">
   <path d="M67.9688-30.4199Q70.9473-30.4199 74.2188-33.6914L116.846-76.123Q113.916-78.5645 106.787-78.5645L27.9297-78.5645Q21.5332-78.5645 18.8965-76.2695L61.6699-33.6914Q64.9414-30.4199 67.9688-30.4199ZM13.8184-0.341797L49.2676-35.5469L13.9648-70.3613Q12.4512-67.8223 12.4512-62.207L12.4512-8.20312Q12.4512-2.7832 13.8184-0.341797ZM29.0039 8.20312L107.812 8.20312Q114.404 8.20312 117.236 5.66406L81.1523-30.2246L78.3203-27.3438Q73.2422-22.4609 67.9688-22.4609Q62.5977-22.4609 57.5684-27.3438L54.6875-30.1758L18.6523 5.66406Q21.7773 8.20312 29.0039 8.20312ZM121.973-0.390625Q123.34-2.83203 123.34-8.20312L123.34-62.207Q123.34-67.8223 121.826-70.2637L86.5723-35.5469Z"/>
  </g>
  <g id="Medium-M" transform="matrix(1 0 0 1 1679.34 1126)">
   <path d="M67.2852-30.0293Q70.2637-30.0293 73.4375-33.2031L116.016-75.4883Q113.184-77.9785 105.957-77.9785L27.2461-77.9785Q20.9473-77.9785 18.3594-75.6348L61.1328-33.2031Q64.3066-30.0293 67.2852-30.0293ZM13.7695-0.634766L48.7793-35.3516L13.8184-69.873Q12.4512-67.5293 12.4512-62.207L12.4512-8.20312Q12.4512-2.88086 13.7695-0.634766ZM28.4668 7.61719L107.178 7.61719Q113.574 7.61719 116.26 5.17578L80.5176-30.2734L77.5391-27.1973Q72.5098-22.4121 67.2852-22.4121Q62.0117-22.4121 57.0801-27.1973L54.0039-30.2246L18.4082 5.12695Q21.3379 7.61719 28.4668 7.61719ZM120.703-0.634766Q121.973-2.97852 121.973-8.20312L121.973-62.207Q121.973-67.4805 120.703-69.7266L85.7422-35.3516Z"/>
  </g>
  <g id="Regular-M" transform="matrix(1 0 0 1 1383.49 1126)">
   <path d="M66.4551-29.541Q69.3848-29.541 72.4609-32.6172L114.941-74.6582Q112.207-77.2461 104.932-77.2461L26.3184-77.2461Q20.1172-77.2461 17.7246-74.8535L60.4492-32.6172Q63.4766-29.541 66.4551-29.541ZM13.6719-0.976562L48.1934-35.1074L13.5742-69.2383Q12.4512-67.1387 12.4512-62.1582L12.4512-8.25195Q12.4512-3.07617 13.6719-0.976562ZM27.7832 6.88477L106.396 6.88477Q112.5 6.88477 114.941 4.54102L79.7363-30.3223L76.5137-27.0508Q71.582-22.3633 66.4551-22.3633Q61.2793-22.3633 56.3965-27.0508L53.125-30.3223L18.0176 4.49219Q20.8008 6.88477 27.7832 6.88477ZM119.092-1.02539Q120.264-3.17383 120.264-8.25195L120.264-62.1582Q120.264-67.0898 119.189-69.0918L84.668-35.1074Z"/>
  </g>
  <g id="Light-M" transform="matrix(1 0 0 1 1087.63 1126)">
   <path d="M65.7227-28.9551Q68.6523-28.9551 71.582-31.8848L113.965-73.6328Q111.377-76.416 104.199-76.416L25.8789-76.416Q19.5312-76.416 17.1875-73.877L59.8145-31.8848Q62.6953-28.9551 65.7227-28.9551ZM13.7695-0.927734L48.5352-34.8633L13.623-69.1406Q12.4512-67.1387 12.4512-62.1582L12.4512-8.20312Q12.4512-2.97852 13.7695-0.927734ZM26.8555 6.10352L105.127 6.10352Q111.426 6.10352 113.77 3.56445L78.6621-30.8105L75.1953-27.3438Q70.6055-22.9492 65.7227-22.9492Q60.791-22.9492 56.25-27.3438L52.6855-30.8105L17.5293 3.66211Q20.0684 6.10352 26.8555 6.10352ZM117.334-1.12305Q118.555-3.17383 118.555-8.20312L118.555-62.1582Q118.555-66.9434 117.48-68.8477L82.8613-34.8633Z"/>
  </g>
  <g id="Thin-M" transform="matrix(1 0 0 1 792.042 1126)">
   <path d="M64.6973-28.2227Q67.7246-28.2227 70.459-30.9082L112.598-72.2656Q110.254-75.293 103.174-75.293L25.293-75.293Q18.75-75.293 16.4551-72.6074L58.9844-30.9082Q61.6699-28.2227 64.6973-28.2227ZM13.9648-0.927734L48.9746-34.5215L13.7207-68.9453Q12.4512-67.0898 12.4512-62.207L12.4512-8.10547Q12.4512-2.88086 13.9648-0.927734ZM25.5859 5.0293L103.467 5.0293Q109.961 5.0293 112.256 2.34375L77.2461-31.4453L73.4375-27.6855Q69.2383-23.7305 64.6973-23.7305Q60.1074-23.7305 56.0059-27.6855L52.1484-31.4453L16.8457 2.58789Q19.1406 5.0293 25.5859 5.0293ZM114.99-1.31836Q116.309-3.17383 116.309-8.10547L116.309-62.207Q116.309-66.7969 115.234-68.5059L80.4688-34.5215Z"/>
  </g>
  <g id="Ultralight-M" transform="matrix(1 0 0 1 495.893 1126)">
   <path d="M64.209-27.832Q67.2363-27.832 69.873-30.4199L111.963-71.582Q109.717-74.7559 102.686-74.7559L25-74.7559Q18.3594-74.7559 16.1133-71.9238L58.5449-30.4199Q61.1816-27.832 64.209-27.832ZM14.0137-0.878906L49.1699-34.375L13.7695-68.8965Q12.4512-67.0898 12.4512-62.207L12.4512-8.05664Q12.4512-2.83203 14.0137-0.878906ZM24.9512 4.49219L102.637 4.49219Q109.229 4.49219 111.475 1.66016L76.5137-31.7871L72.5098-27.8809Q68.6035-24.1211 64.209-24.1211Q59.7656-24.1211 55.9082-27.8809L51.8555-31.7871L16.5039 2.05078Q18.6523 4.49219 24.9512 4.49219ZM113.818-1.36719Q115.186-3.17383 115.186-8.05664L115.186-62.207Q115.186-66.6992 114.111-68.3105L79.1992-34.375Z"/>
  </g>
  <g id="Black-S" transform="matrix(1 0 0 1 2877.35 696)">
   <path d="M56.0547-33.1543Q58.5449-33.1543 61.4258-36.0352L95.1172-69.9707Q92.4316-71.6797 87.1094-71.6797L25-71.6797Q19.5801-71.6797 16.9922-69.9707L50.6836-36.0352Q53.5645-33.1543 56.0547-33.1543ZM11.1328-6.68945L40.6738-36.2305L11.7188-64.8926Q9.76562-62.1094 9.76562-56.4453L9.76562-13.9648Q9.76562-9.17969 11.1328-6.68945ZM25 1.26953L87.1094 1.26953Q93.2129 1.26953 96.2402-1.07422L66.2109-31.1035L64.6973-29.5898Q60.5469-25.4883 56.0547-25.4883Q51.5137-25.4883 47.3633-29.5898L45.8496-31.0547L15.8691-1.07422Q18.8965 1.26953 25 1.26953ZM100.977-6.68945Q102.344-9.17969 102.344-13.9648L102.344-56.4453Q102.344-62.1094 100.391-64.8926L71.4355-36.2305Z"/>
  </g>
  <g id="Heavy-S" transform="matrix(1 0 0 1 2581.49 696)">
   <path d="M55.2246-32.666Q57.666-32.666 60.4004-35.4492L94.043-69.1895Q91.4551-70.9473 86.0352-70.9473L24.0234-70.9473Q18.75-70.9473 16.3086-69.1895L49.9512-35.4492Q52.7344-32.666 55.2246-32.666ZM11.0352-7.08008L39.9414-35.9863L11.4746-64.209Q9.76562-61.6699 9.76562-56.3965L9.76562-14.0137Q9.76562-9.375 11.0352-7.08008ZM24.3652 0.537109L86.377 0.537109Q92.1387 0.537109 94.9219-1.66016L65.4785-31.1035L63.7207-29.3945Q59.6191-25.3418 55.2246-25.3418Q50.7324-25.3418 46.6309-29.3945L44.9219-31.0547L15.5273-1.70898Q18.3594 0.537109 24.3652 0.537109ZM99.3652-7.08008Q100.635-9.375 100.635-14.0137L100.635-56.3965Q100.635-61.6699 98.9258-64.209L70.459-35.9863Z"/>
  </g>
  <g id="Bold-S" transform="matrix(1 0 0 1 2285.73 696)">
   <path d="M54.248-32.1289Q56.6406-32.1289 59.3262-34.8145L92.8711-68.3105Q90.3809-70.1172 84.8633-70.1172L22.9492-70.1172Q17.8223-70.1172 15.5762-68.3594L49.1699-34.8145Q51.8555-32.1289 54.248-32.1289ZM10.8887-7.56836L39.1602-35.7422L11.1816-63.4277Q9.76562-61.1816 9.76562-56.3965L9.76562-14.0625Q9.76562-9.61914 10.8887-7.56836ZM23.6328-0.292969L85.5469-0.292969Q90.9668-0.292969 93.457-2.34375L64.6484-31.1523L62.6465-29.1504Q58.5938-25.1953 54.248-25.1953Q49.9023-25.1953 45.8008-29.1504L43.8477-31.1035L15.1367-2.39258Q17.7734-0.292969 23.6328-0.292969ZM97.6074-7.56836Q98.7305-9.66797 98.7305-14.0625L98.7305-56.3965Q98.7305-61.1816 97.3145-63.4277L69.3359-35.7422Z"/>
  </g>
  <g id="Semibold-S" transform="matrix(1 0 0 1 1989.7 696)">
   <path d="M53.6133-31.7383Q55.957-31.7383 58.5449-34.3262L92.041-67.6758Q89.6484-69.5312 84.0332-69.5312L22.168-69.5312Q17.1875-69.5312 15.0391-67.7734L48.6328-34.3262Q51.2207-31.7383 53.6133-31.7383ZM10.791-7.86133L38.5742-35.5469L10.9375-62.8906Q9.76562-60.791 9.76562-56.3477L9.76562-14.0625Q9.76562-9.76562 10.791-7.86133ZM23.0957-0.878906L84.9609-0.878906Q90.1367-0.878906 92.4316-2.7832L64.0625-31.1523L61.9141-29.0039Q57.8613-25.0488 53.6133-25.0488Q49.2676-25.0488 45.2148-29.0039L43.1152-31.1035L14.8438-2.88086Q17.3828-0.878906 23.0957-0.878906ZM96.3379-7.86133Q97.3633-9.81445 97.3633-14.0625L97.3633-56.3477Q97.3633-60.8398 96.1426-62.8418L68.5547-35.5469Z"/>
  </g>
  <g id="Medium-S" transform="matrix(1 0 0 1 1693.48 696)">
   <path d="M53.0762-31.4453Q55.4199-31.4453 57.959-33.9844L91.4062-67.1875Q89.0625-69.1406 83.4473-69.1406L21.582-69.1406Q16.6992-69.1406 14.6484-67.334L48.1934-33.9844Q50.7812-31.4453 53.0762-31.4453ZM10.7422-8.10547L38.1348-35.4492L10.791-62.5Q9.76562-60.5469 9.76562-56.3477L9.76562-14.0625Q9.76562-9.91211 10.7422-8.10547ZM22.7051-1.26953L84.5703-1.26953Q89.502-1.26953 91.6504-3.17383L63.623-31.1523L61.3281-28.8574Q57.3242-24.9512 53.0762-24.9512Q48.8281-24.9512 44.8242-28.8574L42.5781-31.1523L14.6484-3.22266Q17.041-1.26953 22.7051-1.26953ZM95.4102-8.10547Q96.3867-9.96094 96.3867-14.0625L96.3867-56.3477Q96.3867-60.5957 95.3125-62.4512L67.9688-35.4492Z"/>
  </g>
  <g id="Regular-S" transform="matrix(1 0 0 1 1397.43 696)">
   <path d="M52.4414-31.0547Q54.7363-31.0547 57.1777-33.5449L90.5762-66.6016Q88.3301-68.5547 82.6172-68.5547L20.8496-68.5547Q16.0645-68.5547 14.1602-66.748L47.6562-33.5449Q50.1465-31.0547 52.4414-31.0547ZM10.6445-8.39844L37.5977-35.2539L10.5957-61.9629Q9.76562-60.2051 9.76562-56.2988L9.76562-14.1113Q9.76562-10.0586 10.6445-8.39844ZM22.2168-1.85547L83.9844-1.85547Q88.6719-1.85547 90.625-3.61328L63.0371-31.1523L60.5957-28.7109Q56.5918-24.8535 52.4414-24.8535Q48.2422-24.8535 44.2383-28.7109L41.8457-31.1523L14.3555-3.71094Q16.6504-1.85547 22.2168-1.85547ZM94.1895-8.39844Q95.0684-10.1074 95.0684-14.1113L95.0684-56.2988Q95.0684-60.2539 94.1895-61.9141L67.2363-35.2539Z"/>
  </g>
  <g id="Light-S" transform="matrix(1 0 0 1 1101.47 696)">
   <path d="M51.7578-30.5176Q54.1016-30.5176 56.4453-32.9102L89.6973-65.6738Q87.5977-67.8223 81.9336-67.8223L20.459-67.8223Q15.5273-67.8223 13.6719-65.8691L47.1191-32.9102Q49.4629-30.5176 51.7578-30.5176ZM10.7422-8.34961L37.8906-35.0586L10.6445-61.8652Q9.76562-60.2051 9.76562-56.2988L9.76562-14.0625Q9.76562-10.0098 10.7422-8.34961ZM21.3867-2.58789L82.8613-2.58789Q87.6953-2.58789 89.5996-4.44336L62.0605-31.5918L59.4238-28.9551Q55.7129-25.3906 51.7578-25.3906Q47.8027-25.3906 44.0918-28.9551L41.4551-31.5918L13.916-4.44336Q16.0156-2.58789 21.3867-2.58789ZM92.627-8.49609Q93.5547-10.1074 93.5547-14.0625L93.5547-56.2988Q93.5547-60.1562 92.6758-61.6699L65.625-35.0586Z"/>
  </g>
  <g id="Thin-S" transform="matrix(1 0 0 1 805.739 696)">
   <path d="M50.8789-29.8828Q53.2715-29.8828 55.4199-32.0312L88.5254-64.502Q86.6211-66.8457 81.0547-66.8457L19.9219-66.8457Q14.8438-66.8457 13.0371-64.7461L46.3379-32.0312Q48.5352-29.8828 50.8789-29.8828ZM10.9375-8.34961L38.2812-34.7656L10.7422-61.6699Q9.76562-60.1562 9.76562-56.3477L9.76562-14.0137Q9.76562-9.91211 10.9375-8.34961ZM20.3125-3.51562L81.3965-3.51562Q86.4258-3.51562 88.2812-5.56641L60.8398-32.1289L57.8613-29.248Q54.541-26.0742 50.8789-26.0742Q47.2168-26.0742 43.9453-29.248L40.9668-32.1289L13.3301-5.41992Q15.1855-3.51562 20.3125-3.51562ZM90.5762-8.59375Q91.6016-10.1074 91.6016-14.0137L91.6016-56.3477Q91.6016-59.9609 90.7227-61.3281L63.4766-34.7656Z"/>
  </g>
  <g id="Ultralight-S" transform="matrix(1 0 0 1 509.54 696)">
   <path d="M50.4395-29.4922Q52.832-29.4922 54.9316-31.5918L87.8906-63.8672Q86.084-66.3086 80.5664-66.3086L19.6777-66.3086Q14.4531-66.3086 12.6953-64.1602L45.9961-31.5918Q48.0469-29.4922 50.4395-29.4922ZM10.9863-8.30078L38.5254-34.6191L10.791-61.6211Q9.76562-60.1562 9.76562-56.3477L9.76562-13.9648Q9.76562-9.86328 10.9863-8.30078ZM19.7754-4.00391L80.6152-4.00391Q85.7422-4.00391 87.5977-6.15234L60.1562-32.4219L57.0312-29.3945Q53.9551-26.4648 50.4395-26.4648Q46.9238-26.4648 43.8477-29.3945L40.7227-32.4219L13.0371-5.9082Q14.7949-4.00391 19.7754-4.00391ZM89.502-8.69141Q90.5762-10.1074 90.5762-13.9648L90.5762-56.3477Q90.5762-59.9121 89.6973-61.1816L62.3535-34.6191Z"/>
  </g>
 </g>
</svg>
