<?xml version="1.0" encoding="UTF-8"?>
<!--Generator: Apple Native CoreSVG 175-->
<!DOCTYPE svg
PUBLIC "-//W3C//DTD SVG 1.1//EN"
       "http://www.w3.org/Graphics/SVG/1.1/DTD/svg11.dtd">
<svg version="1.1" xmlns="http://www.w3.org/2000/svg" xmlns:xlink="http://www.w3.org/1999/xlink" width="3300" height="2200">
 <!--glyph: "uni100CB2.medium", point size: 100.0, font version: "17.0d11e1", template writer version: "65.1"-->
 <g id="Notes">
  <rect height="2200" id="artboard" style="fill:white;opacity:1" width="3300" x="0" y="0"/>
  <line style="fill:none;stroke:black;opacity:1;stroke-width:0.5;" x1="263" x2="3036" y1="292" y2="292"/>
  <text style="stroke:none;fill:black;font-family:sans-serif;font-size:13;font-weight:bold;" transform="matrix(1 0 0 1 263 322)">Weight/Scale Variations</text>
  <text style="stroke:none;fill:black;font-family:sans-serif;font-size:13;text-anchor:middle;" transform="matrix(1 0 0 1 559.711 322)">Ultralight</text>
  <text style="stroke:none;fill:black;font-family:sans-serif;font-size:13;text-anchor:middle;" transform="matrix(1 0 0 1 856.422 322)">Thin</text>
  <text style="stroke:none;fill:black;font-family:sans-serif;font-size:13;text-anchor:middle;" transform="matrix(1 0 0 1 1153.13 322)">Light</text>
  <text style="stroke:none;fill:black;font-family:sans-serif;font-size:13;text-anchor:middle;" transform="matrix(1 0 0 1 1449.84 322)">Regular</text>
  <text style="stroke:none;fill:black;font-family:sans-serif;font-size:13;text-anchor:middle;" transform="matrix(1 0 0 1 1746.56 322)">Medium</text>
  <text style="stroke:none;fill:black;font-family:sans-serif;font-size:13;text-anchor:middle;" transform="matrix(1 0 0 1 2043.27 322)">Semibold</text>
  <text style="stroke:none;fill:black;font-family:sans-serif;font-size:13;text-anchor:middle;" transform="matrix(1 0 0 1 2339.98 322)">Bold</text>
  <text style="stroke:none;fill:black;font-family:sans-serif;font-size:13;text-anchor:middle;" transform="matrix(1 0 0 1 2636.69 322)">Heavy</text>
  <text style="stroke:none;fill:black;font-family:sans-serif;font-size:13;text-anchor:middle;" transform="matrix(1 0 0 1 2933.4 322)">Black</text>
  <line style="fill:none;stroke:black;opacity:1;stroke-width:0.5;" x1="263" x2="3036" y1="1903" y2="1903"/>
  <g transform="matrix(1 0 0 1 263 1933)">
   <path d="M9.24805 0.830078Q10.8691 0.830078 12.2949 0.214844Q13.7207-0.400391 14.8096-1.49414Q15.8984-2.58789 16.5186-4.01367Q17.1387-5.43945 17.1387-7.05078Q17.1387-8.66211 16.5186-10.0879Q15.8984-11.5137 14.8047-12.6074Q13.7109-13.7012 12.2852-14.3164Q10.8594-14.9316 9.23828-14.9316Q7.62695-14.9316 6.20117-14.3164Q4.77539-13.7012 3.69141-12.6074Q2.60742-11.5137 1.9873-10.0879Q1.36719-8.66211 1.36719-7.05078Q1.36719-5.43945 1.9873-4.01367Q2.60742-2.58789 3.69629-1.49414Q4.78516-0.400391 6.21094 0.214844Q7.63672 0.830078 9.24805 0.830078ZM9.24805-0.654297Q7.91992-0.654297 6.7627-1.14746Q5.60547-1.64062 4.73145-2.51953Q3.85742-3.39844 3.36426-4.56055Q2.87109-5.72266 2.87109-7.05078Q2.87109-8.37891 3.35938-9.54102Q3.84766-10.7031 4.72168-11.582Q5.5957-12.4609 6.75293-12.9541Q7.91016-13.4473 9.23828-13.4473Q10.5762-13.4473 11.7334-12.9541Q12.8906-12.4609 13.7695-11.582Q14.6484-10.7031 15.1465-9.54102Q15.6445-8.37891 15.6445-7.05078Q15.6445-5.72266 15.1514-4.56055Q14.6582-3.39844 13.7842-2.51953Q12.9102-1.64062 11.748-1.14746Q10.5859-0.654297 9.24805-0.654297ZM5.6543-7.05078Q5.6543-6.72852 5.85938-6.52832Q6.06445-6.32812 6.40625-6.32812L8.51562-6.32812L8.51562-4.20898Q8.51562-3.88672 8.71094-3.67676Q8.90625-3.4668 9.23828-3.4668Q9.56055-3.4668 9.77051-3.67676Q9.98047-3.88672 9.98047-4.20898L9.98047-6.32812L12.0898-6.32812Q12.4219-6.32812 12.627-6.52832Q12.832-6.72852 12.832-7.05078Q12.832-7.38281 12.627-7.58789Q12.4219-7.79297 12.0898-7.79297L9.98047-7.79297L9.98047-9.90234Q9.98047-10.2344 9.77051-10.4443Q9.56055-10.6543 9.23828-10.6543Q8.90625-10.6543 8.71094-10.4443Q8.51562-10.2344 8.51562-9.90234L8.51562-7.79297L6.40625-7.79297Q6.06445-7.79297 5.85938-7.58789Q5.6543-7.38281 5.6543-7.05078Z"/>
  </g>
  <g transform="matrix(1 0 0 1 281.867 1933)">
   <path d="M11.709 2.91016Q13.75 2.91016 15.5518 2.12891Q17.3535 1.34766 18.7305-0.0292969Q20.1074-1.40625 20.8887-3.20801Q21.6699-5.00977 21.6699-7.05078Q21.6699-9.0918 20.8887-10.8936Q20.1074-12.6953 18.7305-14.0723Q17.3535-15.4492 15.5469-16.2305Q13.7402-17.0117 11.6992-17.0117Q9.6582-17.0117 7.85645-16.2305Q6.05469-15.4492 4.68262-14.0723Q3.31055-12.6953 2.5293-10.8936Q1.74805-9.0918 1.74805-7.05078Q1.74805-5.00977 2.5293-3.20801Q3.31055-1.40625 4.6875-0.0292969Q6.06445 1.34766 7.86621 2.12891Q9.66797 2.91016 11.709 2.91016ZM11.709 1.25Q9.98047 1.25 8.47656 0.605469Q6.97266-0.0390625 5.83496-1.17676Q4.69727-2.31445 4.05762-3.81836Q3.41797-5.32227 3.41797-7.05078Q3.41797-8.7793 4.05762-10.2832Q4.69727-11.7871 5.83008-12.9297Q6.96289-14.0723 8.4668-14.7119Q9.9707-15.3516 11.6992-15.3516Q13.4277-15.3516 14.9316-14.7119Q16.4355-14.0723 17.5781-12.9297Q18.7207-11.7871 19.3652-10.2832Q20.0098-8.7793 20.0098-7.05078Q20.0098-5.32227 19.3701-3.81836Q18.7305-2.31445 17.5928-1.17676Q16.4551-0.0390625 14.9463 0.605469Q13.4375 1.25 11.709 1.25ZM7.17773-7.05078Q7.17773-6.69922 7.41211-6.47461Q7.64648-6.25 8.01758-6.25L10.8887-6.25L10.8887-3.36914Q10.8887-2.99805 11.1133-2.76855Q11.3379-2.53906 11.6895-2.53906Q12.0605-2.53906 12.29-2.76855Q12.5195-2.99805 12.5195-3.36914L12.5195-6.25L15.4004-6.25Q15.7715-6.25 16.001-6.47461Q16.2305-6.69922 16.2305-7.05078Q16.2305-7.42188 16.001-7.65137Q15.7715-7.88086 15.4004-7.88086L12.5195-7.88086L12.5195-10.752Q12.5195-11.1328 12.29-11.3623Q12.0605-11.5918 11.6895-11.5918Q11.3379-11.5918 11.1133-11.3574Q10.8887-11.123 10.8887-10.752L10.8887-7.88086L8.01758-7.88086Q7.63672-7.88086 7.40723-7.65137Q7.17773-7.42188 7.17773-7.05078Z"/>
  </g>
  <g transform="matrix(1 0 0 1 305.646 1933)">
   <path d="M14.9707 5.66406Q17.0605 5.66406 18.96 5.01465Q20.8594 4.36523 22.4512 3.19336Q24.043 2.02148 25.2197 0.429688Q26.3965-1.16211 27.0459-3.06641Q27.6953-4.9707 27.6953-7.05078Q27.6953-9.14062 27.0459-11.04Q26.3965-12.9395 25.2197-14.5312Q24.043-16.123 22.4512-17.2998Q20.8594-18.4766 18.9551-19.126Q17.0508-19.7754 14.9609-19.7754Q12.8711-19.7754 10.9717-19.126Q9.07227-18.4766 7.48535-17.2998Q5.89844-16.123 4.72168-14.5312Q3.54492-12.9395 2.90039-11.04Q2.25586-9.14062 2.25586-7.05078Q2.25586-4.9707 2.90527-3.06641Q3.55469-1.16211 4.72656 0.429688Q5.89844 2.02148 7.49023 3.19336Q9.08203 4.36523 10.9814 5.01465Q12.8809 5.66406 14.9707 5.66406ZM14.9707 3.84766Q13.1641 3.84766 11.5283 3.2959Q9.89258 2.74414 8.53516 1.74805Q7.17773 0.751953 6.17676-0.610352Q5.17578-1.97266 4.62891-3.6084Q4.08203-5.24414 4.08203-7.05078Q4.08203-8.86719 4.62891-10.5029Q5.17578-12.1387 6.17188-13.501Q7.16797-14.8633 8.52539-15.8594Q9.88281-16.8555 11.5186-17.4023Q13.1543-17.9492 14.9609-17.9492Q16.7773-17.9492 18.4131-17.4023Q20.0488-16.8555 21.4111-15.8594Q22.7734-14.8633 23.7695-13.501Q24.7656-12.1387 25.3174-10.5029Q25.8691-8.86719 25.8691-7.05078Q25.8789-5.24414 25.332-3.6084Q24.7852-1.97266 23.7842-0.610352Q22.7832 0.751953 21.4209 1.74805Q20.0586 2.74414 18.4229 3.2959Q16.7871 3.84766 14.9707 3.84766ZM9.19922-7.05078Q9.19922-6.66992 9.45801-6.4209Q9.7168-6.17188 10.1172-6.17188L14.0625-6.17188L14.0625-2.2168Q14.0625-1.81641 14.3115-1.55762Q14.5605-1.29883 14.9512-1.29883Q15.3516-1.29883 15.6104-1.55273Q15.8691-1.80664 15.8691-2.2168L15.8691-6.17188L19.8242-6.17188Q20.2246-6.17188 20.4785-6.4209Q20.7324-6.66992 20.7324-7.05078Q20.7324-7.46094 20.4785-7.71484Q20.2246-7.96875 19.8242-7.96875L15.8691-7.96875L15.8691-11.9141Q15.8691-12.3242 15.6104-12.583Q15.3516-12.8418 14.9512-12.8418Q14.5605-12.8418 14.3115-12.583Q14.0625-12.3242 14.0625-11.9141L14.0625-7.96875L10.1172-7.96875Q9.70703-7.96875 9.45312-7.71484Q9.19922-7.46094 9.19922-7.05078Z"/>
  </g>
  <text style="stroke:none;fill:black;font-family:sans-serif;font-size:13;font-weight:bold;" transform="matrix(1 0 0 1 263 1953)">Design Variations</text>
  <text style="stroke:none;fill:black;font-family:sans-serif;font-size:13;" transform="matrix(1 0 0 1 263 1971)">Symbols are supported in up to nine weights and three scales.</text>
  <text style="stroke:none;fill:black;font-family:sans-serif;font-size:13;" transform="matrix(1 0 0 1 263 1989)">For optimal layout with text and other symbols, vertically align</text>
  <text style="stroke:none;fill:black;font-family:sans-serif;font-size:13;" transform="matrix(1 0 0 1 263 2007)">symbols with the adjacent text.</text>
  <line style="fill:none;stroke:#00AEEF;stroke-width:0.5;opacity:1.0;" x1="776" x2="776" y1="1919" y2="1933"/>
  <g transform="matrix(1 0 0 1 776 1933)">
   <path d="M3.31055 0.15625Q3.70117 0.15625 3.91602-0.00976562Q4.13086-0.175781 4.26758-0.585938L5.52734-4.0332L11.2891-4.0332L12.5488-0.585938Q12.6855-0.175781 12.9004-0.00976562Q13.1152 0.15625 13.4961 0.15625Q13.8867 0.15625 14.1162-0.0585938Q14.3457-0.273438 14.3457-0.644531Q14.3457-0.869141 14.2383-1.17188L9.6582-13.3691Q9.48242-13.8184 9.17969-14.043Q8.87695-14.2676 8.4082-14.2676Q7.5-14.2676 7.17773-13.3789L2.59766-1.16211Q2.49023-0.859375 2.49023-0.634766Q2.49023-0.263672 2.70996-0.0537109Q2.92969 0.15625 3.31055 0.15625ZM6.00586-5.51758L8.37891-12.0898L8.42773-12.0898L10.8008-5.51758Z"/>
  </g>
  <line style="fill:none;stroke:#00AEEF;stroke-width:0.5;opacity:1.0;" x1="793.197" x2="793.197" y1="1919" y2="1933"/>
  <text style="stroke:none;fill:black;font-family:sans-serif;font-size:13;font-weight:bold;" transform="matrix(1 0 0 1 776 1953)">Margins</text>
  <text style="stroke:none;fill:black;font-family:sans-serif;font-size:13;" transform="matrix(1 0 0 1 776 1971)">Leading and trailing margins on the left and right side of each symbol</text>
  <text style="stroke:none;fill:black;font-family:sans-serif;font-size:13;" transform="matrix(1 0 0 1 776 1989)">can be adjusted by modifying the x-location of the margin guidelines.</text>
  <text style="stroke:none;fill:black;font-family:sans-serif;font-size:13;" transform="matrix(1 0 0 1 776 2007)">Modifications are automatically applied proportionally to all</text>
  <text style="stroke:none;fill:black;font-family:sans-serif;font-size:13;" transform="matrix(1 0 0 1 776 2025)">scales and weights.</text>
  <g transform="matrix(1 0 0 1 1289 1933)">
   <path d="M2.8418 1.86523L4.54102 3.57422Q5.18555 4.22852 5.90332 4.17969Q6.62109 4.13086 7.31445 3.35938L18.0078-8.42773L17.041-9.4043L6.42578 2.27539Q6.16211 2.57812 5.89355 2.61719Q5.625 2.65625 5.27344 2.30469L4.10156 1.14258Q3.75 0.791016 3.79395 0.522461Q3.83789 0.253906 4.14062-0.0195312L15.6152-10.8203L14.6387-11.7871L3.04688-0.898438Q2.30469-0.214844 2.25098 0.498047Q2.19727 1.21094 2.8418 1.86523ZM9.25781-16.3281Q8.94531-16.0254 8.90625-15.6348Q8.86719-15.2441 9.04297-14.9512Q9.21875-14.6777 9.55566-14.541Q9.89258-14.4043 10.3809-14.5215Q11.4746-14.7754 12.5977-14.7314Q13.7207-14.6875 14.7949-13.9844L14.209-12.5293Q13.9551-11.9043 14.0674-11.4404Q14.1797-10.9766 14.5801-10.5664L16.875-8.25195Q17.2363-7.88086 17.5781-7.82227Q17.9199-7.76367 18.3398-7.8418L19.4043-8.03711L20.0684-7.36328L20.0293-6.80664Q20-6.43555 20.1221-6.12305Q20.2441-5.81055 20.6055-5.44922L21.3672-4.70703Q21.7285-4.3457 22.1533-4.33105Q22.5781-4.31641 22.9297-4.66797L25.8398-7.58789Q26.1914-7.93945 26.1816-8.35449Q26.1719-8.76953 25.8105-9.13086L25.0391-9.89258Q24.6875-10.2539 24.3799-10.3857Q24.0723-10.5176 23.7109-10.4883L23.1348-10.4395L22.4902-11.0742L22.7344-12.1973Q22.832-12.6172 22.6953-12.9834Q22.5586-13.3496 22.1191-13.7891L19.9219-15.9766Q18.6719-17.2168 17.2607-17.8369Q15.8496-18.457 14.4189-18.4814Q12.9883-18.5059 11.665-17.959Q10.3418-17.4121 9.25781-16.3281ZM10.752-15.957Q11.6602-16.6211 12.7002-16.9043Q13.7402-17.1875 14.8047-17.085Q15.8691-16.9824 16.8701-16.5137Q17.8711-16.0449 18.7012-15.2051L21.1328-12.793Q21.3086-12.6172 21.3525-12.4512Q21.3965-12.2852 21.3379-12.0312L21.0156-10.5469L22.5195-9.0625L23.5059-9.12109Q23.6914-9.13086 23.7891-9.09668Q23.8867-9.0625 24.0332-8.91602L24.6094-8.33984L22.168-5.89844L21.5918-6.47461Q21.4453-6.62109 21.4062-6.71875Q21.3672-6.81641 21.377-7.01172L21.4453-7.98828L19.9512-9.47266L18.4277-9.21875Q18.1836-9.16992 18.042-9.2041Q17.9004-9.23828 17.7148-9.41406L15.7129-11.416Q15.5176-11.5918 15.4932-11.7529Q15.4688-11.9141 15.5859-12.1875L16.4648-14.2773Q15.293-15.3711 13.8281-15.791Q12.3633-16.2109 10.8398-15.7617Q10.7227-15.7324 10.6885-15.8057Q10.6543-15.8789 10.752-15.957Z"/>
  </g>
  <text style="stroke:none;fill:black;font-family:sans-serif;font-size:13;font-weight:bold;" transform="matrix(1 0 0 1 1289 1953)">Exporting</text>
  <text style="stroke:none;fill:black;font-family:sans-serif;font-size:13;" transform="matrix(1 0 0 1 1289 1971)">Symbols should be outlined when exporting to ensure the</text>
  <text style="stroke:none;fill:black;font-family:sans-serif;font-size:13;" transform="matrix(1 0 0 1 1289 1989)">design is preserved when submitting to Xcode.</text>
  <text id="template-version" style="stroke:none;fill:black;font-family:sans-serif;font-size:13;text-anchor:end;" transform="matrix(1 0 0 1 3036 1933)">Template v.3.0</text>
  <text style="stroke:none;fill:black;font-family:sans-serif;font-size:13;text-anchor:end;" transform="matrix(1 0 0 1 3036 1951)">Requires Xcode 13 or greater</text>
  <text id="descriptive-name" style="stroke:none;fill:black;font-family:sans-serif;font-size:13;text-anchor:end;" transform="matrix(1 0 0 1 3036 1969)">Generated from text.below.photo.fill</text>
  <text style="stroke:none;fill:black;font-family:sans-serif;font-size:13;text-anchor:end;" transform="matrix(1 0 0 1 3036 1987)">Typeset at 100 points</text>
  <text style="stroke:none;fill:black;font-family:sans-serif;font-size:13;" transform="matrix(1 0 0 1 263 726)">Small</text>
  <text style="stroke:none;fill:black;font-family:sans-serif;font-size:13;" transform="matrix(1 0 0 1 263 1156)">Medium</text>
  <text style="stroke:none;fill:black;font-family:sans-serif;font-size:13;" transform="matrix(1 0 0 1 263 1586)">Large</text>
 </g>
 <g id="Guides">
  <g id="H-reference" style="fill:#27AAE1;stroke:none;" transform="matrix(1 0 0 1 339 696)">
   <path d="M0.976562 0L3.66211 0L29.3457-67.1387L30.0293-67.1387L30.0293-70.459L28.125-70.459ZM11.6699-24.4629L46.9727-24.4629L46.2402-26.709L12.4512-26.709ZM55.127 0L57.7637 0L30.6152-70.459L29.4434-70.459L29.4434-67.1387Z"/>
  </g>
  <line id="Baseline-S" style="fill:none;stroke:#27AAE1;opacity:1;stroke-width:0.5;" x1="263" x2="3036" y1="696" y2="696"/>
  <line id="Capline-S" style="fill:none;stroke:#27AAE1;opacity:1;stroke-width:0.5;" x1="263" x2="3036" y1="625.541" y2="625.541"/>
  <g id="H-reference" style="fill:#27AAE1;stroke:none;" transform="matrix(1 0 0 1 339 1126)">
   <path d="M0.976562 0L3.66211 0L29.3457-67.1387L30.0293-67.1387L30.0293-70.459L28.125-70.459ZM11.6699-24.4629L46.9727-24.4629L46.2402-26.709L12.4512-26.709ZM55.127 0L57.7637 0L30.6152-70.459L29.4434-70.459L29.4434-67.1387Z"/>
  </g>
  <line id="Baseline-M" style="fill:none;stroke:#27AAE1;opacity:1;stroke-width:0.5;" x1="263" x2="3036" y1="1126" y2="1126"/>
  <line id="Capline-M" style="fill:none;stroke:#27AAE1;opacity:1;stroke-width:0.5;" x1="263" x2="3036" y1="1055.54" y2="1055.54"/>
  <g id="H-reference" style="fill:#27AAE1;stroke:none;" transform="matrix(1 0 0 1 339 1556)">
   <path d="M0.976562 0L3.66211 0L29.3457-67.1387L30.0293-67.1387L30.0293-70.459L28.125-70.459ZM11.6699-24.4629L46.9727-24.4629L46.2402-26.709L12.4512-26.709ZM55.127 0L57.7637 0L30.6152-70.459L29.4434-70.459L29.4434-67.1387Z"/>
  </g>
  <line id="Baseline-L" style="fill:none;stroke:#27AAE1;opacity:1;stroke-width:0.5;" x1="263" x2="3036" y1="1556" y2="1556"/>
  <line id="Capline-L" style="fill:none;stroke:#27AAE1;opacity:1;stroke-width:0.5;" x1="263" x2="3036" y1="1485.54" y2="1485.54"/>
  <line id="left-margin-Ultralight-S" style="fill:none;stroke:#00AEEF;stroke-width:0.5;opacity:1.0;" x1="510.859" x2="510.859" y1="600.785" y2="720.121"/>
  <line id="right-margin-Ultralight-S" style="fill:none;stroke:#00AEEF;stroke-width:0.5;opacity:1.0;" x1="608.564" x2="608.564" y1="600.785" y2="720.121"/>
  <line id="left-margin-Thin-S" style="fill:none;stroke:#00AEEF;stroke-width:0.5;opacity:1.0;" x1="807.496" x2="807.496" y1="600.785" y2="720.121"/>
  <line id="right-margin-Thin-S" style="fill:none;stroke:#00AEEF;stroke-width:0.5;opacity:1.0;" x1="905.348" x2="905.348" y1="600.785" y2="720.121"/>
  <line id="left-margin-Light-S" style="fill:none;stroke:#00AEEF;stroke-width:0.5;opacity:1.0;" x1="1104.06" x2="1104.06" y1="600.785" y2="720.121"/>
  <line id="right-margin-Light-S" style="fill:none;stroke:#00AEEF;stroke-width:0.5;opacity:1.0;" x1="1202.21" x2="1202.21" y1="600.785" y2="720.121"/>
  <line id="left-margin-Regular-S" style="fill:none;stroke:#00AEEF;stroke-width:0.5;opacity:1.0;" x1="1400.67" x2="1400.67" y1="600.785" y2="720.121"/>
  <line id="right-margin-Regular-S" style="fill:none;stroke:#00AEEF;stroke-width:0.5;opacity:1.0;" x1="1499.01" x2="1499.01" y1="600.785" y2="720.121"/>
  <line id="left-margin-Medium-S" style="fill:none;stroke:#00AEEF;stroke-width:0.5;opacity:1.0;" x1="1697.29" x2="1697.29" y1="600.785" y2="720.121"/>
  <line id="right-margin-Medium-S" style="fill:none;stroke:#00AEEF;stroke-width:0.5;opacity:1.0;" x1="1795.82" x2="1795.82" y1="600.785" y2="720.121"/>
  <line id="left-margin-Semibold-S" style="fill:none;stroke:#00AEEF;stroke-width:0.5;opacity:1.0;" x1="1993.9" x2="1993.9" y1="600.785" y2="720.121"/>
  <line id="right-margin-Semibold-S" style="fill:none;stroke:#00AEEF;stroke-width:0.5;opacity:1.0;" x1="2092.63" x2="2092.63" y1="600.785" y2="720.121"/>
  <line id="left-margin-Bold-S" style="fill:none;stroke:#00AEEF;stroke-width:0.5;opacity:1.0;" x1="2290.51" x2="2290.51" y1="600.785" y2="720.121"/>
  <line id="right-margin-Bold-S" style="fill:none;stroke:#00AEEF;stroke-width:0.5;opacity:1.0;" x1="2389.44" x2="2389.44" y1="600.785" y2="720.121"/>
  <line id="left-margin-Heavy-S" style="fill:none;stroke:#00AEEF;stroke-width:0.5;opacity:1.0;" x1="2587.08" x2="2587.08" y1="600.785" y2="720.121"/>
  <line id="right-margin-Heavy-S" style="fill:none;stroke:#00AEEF;stroke-width:0.5;opacity:1.0;" x1="2686.3" x2="2686.3" y1="600.785" y2="720.121"/>
  <line id="left-margin-Black-S" style="fill:none;stroke:#00AEEF;stroke-width:0.5;opacity:1.0;" x1="2883.64" x2="2883.64" y1="600.785" y2="720.121"/>
  <line id="right-margin-Black-S" style="fill:none;stroke:#00AEEF;stroke-width:0.5;opacity:1.0;" x1="2983.16" x2="2983.16" y1="600.785" y2="720.121"/>
  <line id="left-margin-Ultralight-M" style="fill:none;stroke:#00AEEF;stroke-width:0.5;opacity:1.0;" x1="497.406" x2="497.406" y1="1030.79" y2="1150.12"/>
  <line id="right-margin-Ultralight-M" style="fill:none;stroke:#00AEEF;stroke-width:0.5;opacity:1.0;" x1="622.016" x2="622.016" y1="1030.79" y2="1150.12"/>
  <line id="left-margin-Thin-M" style="fill:none;stroke:#00AEEF;stroke-width:0.5;opacity:1.0;" x1="794.044" x2="794.044" y1="1030.79" y2="1150.12"/>
  <line id="right-margin-Thin-M" style="fill:none;stroke:#00AEEF;stroke-width:0.5;opacity:1.0;" x1="918.8" x2="918.8" y1="1030.79" y2="1150.12"/>
  <line id="left-margin-Light-M" style="fill:none;stroke:#00AEEF;stroke-width:0.5;opacity:1.0;" x1="1090.58" x2="1090.58" y1="1030.79" y2="1150.12"/>
  <line id="right-margin-Light-M" style="fill:none;stroke:#00AEEF;stroke-width:0.5;opacity:1.0;" x1="1215.68" x2="1215.68" y1="1030.79" y2="1150.12"/>
  <line id="left-margin-Regular-M" style="fill:none;stroke:#00AEEF;stroke-width:0.5;opacity:1.0;" x1="1387.17" x2="1387.17" y1="1030.79" y2="1150.12"/>
  <line id="right-margin-Regular-M" style="fill:none;stroke:#00AEEF;stroke-width:0.5;opacity:1.0;" x1="1512.52" x2="1512.52" y1="1030.79" y2="1150.12"/>
  <line id="left-margin-Medium-M" style="fill:none;stroke:#00AEEF;stroke-width:0.5;opacity:1.0;" x1="1683.74" x2="1683.74" y1="1030.79" y2="1150.12"/>
  <line id="right-margin-Medium-M" style="fill:none;stroke:#00AEEF;stroke-width:0.5;opacity:1.0;" x1="1809.37" x2="1809.37" y1="1030.79" y2="1150.12"/>
  <line id="left-margin-Semibold-M" style="fill:none;stroke:#00AEEF;stroke-width:0.5;opacity:1.0;" x1="1980.35" x2="1980.35" y1="1030.79" y2="1150.12"/>
  <line id="right-margin-Semibold-M" style="fill:none;stroke:#00AEEF;stroke-width:0.5;opacity:1.0;" x1="2106.18" x2="2106.18" y1="1030.79" y2="1150.12"/>
  <line id="left-margin-Bold-M" style="fill:none;stroke:#00AEEF;stroke-width:0.5;opacity:1.0;" x1="2276.92" x2="2276.92" y1="1030.79" y2="1150.12"/>
  <line id="right-margin-Bold-M" style="fill:none;stroke:#00AEEF;stroke-width:0.5;opacity:1.0;" x1="2403.04" x2="2403.04" y1="1030.79" y2="1150.12"/>
  <line id="left-margin-Heavy-M" style="fill:none;stroke:#00AEEF;stroke-width:0.5;opacity:1.0;" x1="2573.43" x2="2573.43" y1="1030.79" y2="1150.12"/>
  <line id="right-margin-Heavy-M" style="fill:none;stroke:#00AEEF;stroke-width:0.5;opacity:1.0;" x1="2699.95" x2="2699.95" y1="1030.79" y2="1150.12"/>
  <line id="left-margin-Black-M" style="fill:none;stroke:#00AEEF;stroke-width:0.5;opacity:1.0;" x1="2869.97" x2="2869.97" y1="1030.79" y2="1150.12"/>
  <line id="right-margin-Black-M" style="fill:none;stroke:#00AEEF;stroke-width:0.5;opacity:1.0;" x1="2996.83" x2="2996.83" y1="1030.79" y2="1150.12"/>
  <line id="left-margin-Ultralight-L" style="fill:none;stroke:#00AEEF;stroke-width:0.5;opacity:1.0;" x1="479.364" x2="479.364" y1="1460.79" y2="1580.12"/>
  <line id="right-margin-Ultralight-L" style="fill:none;stroke:#00AEEF;stroke-width:0.5;opacity:1.0;" x1="640.058" x2="640.058" y1="1460.79" y2="1580.12"/>
  <line id="left-margin-Thin-L" style="fill:none;stroke:#00AEEF;stroke-width:0.5;opacity:1.0;" x1="775.978" x2="775.978" y1="1460.79" y2="1580.12"/>
  <line id="right-margin-Thin-L" style="fill:none;stroke:#00AEEF;stroke-width:0.5;opacity:1.0;" x1="936.867" x2="936.867" y1="1460.79" y2="1580.12"/>
  <line id="left-margin-Light-L" style="fill:none;stroke:#00AEEF;stroke-width:0.5;opacity:1.0;" x1="1072.52" x2="1072.52" y1="1460.79" y2="1580.12"/>
  <line id="right-margin-Light-L" style="fill:none;stroke:#00AEEF;stroke-width:0.5;opacity:1.0;" x1="1233.75" x2="1233.75" y1="1460.79" y2="1580.12"/>
  <line id="left-margin-Regular-L" style="fill:none;stroke:#00AEEF;stroke-width:0.5;opacity:1.0;" x1="1369.08" x2="1369.08" y1="1460.79" y2="1580.12"/>
  <line id="right-margin-Regular-L" style="fill:none;stroke:#00AEEF;stroke-width:0.5;opacity:1.0;" x1="1530.61" x2="1530.61" y1="1460.79" y2="1580.12"/>
  <line id="left-margin-Medium-L" style="fill:none;stroke:#00AEEF;stroke-width:0.5;opacity:1.0;" x1="1665.62" x2="1665.62" y1="1460.79" y2="1580.12"/>
  <line id="right-margin-Medium-L" style="fill:none;stroke:#00AEEF;stroke-width:0.5;opacity:1.0;" x1="1827.49" x2="1827.49" y1="1460.79" y2="1580.12"/>
  <line id="left-margin-Semibold-L" style="fill:none;stroke:#00AEEF;stroke-width:0.5;opacity:1.0;" x1="1962.21" x2="1962.21" y1="1460.79" y2="1580.12"/>
  <line id="right-margin-Semibold-L" style="fill:none;stroke:#00AEEF;stroke-width:0.5;opacity:1.0;" x1="2124.32" x2="2124.32" y1="1460.79" y2="1580.12"/>
  <line id="left-margin-Bold-L" style="fill:none;stroke:#00AEEF;stroke-width:0.5;opacity:1.0;" x1="2258.75" x2="2258.75" y1="1460.79" y2="1580.12"/>
  <line id="right-margin-Bold-L" style="fill:none;stroke:#00AEEF;stroke-width:0.5;opacity:1.0;" x1="2421.2" x2="2421.2" y1="1460.79" y2="1580.12"/>
  <line id="left-margin-Heavy-L" style="fill:none;stroke:#00AEEF;stroke-width:0.5;opacity:1.0;" x1="2555.24" x2="2555.24" y1="1460.79" y2="1580.12"/>
  <line id="right-margin-Heavy-L" style="fill:none;stroke:#00AEEF;stroke-width:0.5;opacity:1.0;" x1="2718.13" x2="2718.13" y1="1460.79" y2="1580.12"/>
  <line id="left-margin-Black-L" style="fill:none;stroke:#00AEEF;stroke-width:0.5;opacity:1.0;" x1="2851.73" x2="2851.73" y1="1460.79" y2="1580.12"/>
  <line id="right-margin-Black-L" style="fill:none;stroke:#00AEEF;stroke-width:0.5;opacity:1.0;" x1="3015.07" x2="3015.07" y1="1460.79" y2="1580.12"/>
 </g>
 <g id="Symbols">
  <g id="Black-L" transform="matrix(1 0 0 1 2851.73 1556)">
   <path d="M36.8164-12.9395L126.514-12.9395Q136.475-12.9395 141.87-18.335Q147.266-23.7305 147.266-33.6426L147.266-99.1211Q147.266-108.984 141.87-114.38Q136.475-119.775 126.514-119.775L36.8164-119.775Q26.9531-119.775 21.5088-114.355Q16.0645-108.936 16.0645-99.1211L16.0645-33.6426Q16.0645-23.7305 21.4844-18.335Q26.9043-12.9395 36.8164-12.9395ZM39.9414-30.6641Q37.0605-30.6641 35.4248-32.2998Q33.7891-33.9355 33.7891-36.8652L33.7891-44.2871L44.4824-53.8574Q46.1914-55.4199 47.8516-56.1523Q49.5117-56.8848 51.5625-56.8848Q55.6152-56.8848 59.082-53.8086L69.1895-44.7266L94.0918-67.041Q95.9473-68.6523 98.0225-69.458Q100.098-70.2637 102.344-70.2637Q104.443-70.2637 106.592-69.458Q108.74-68.6523 110.449-66.9922L129.688-48.9746L129.688-36.8652Q129.688-33.9355 127.881-32.2998Q126.074-30.6641 123.486-30.6641ZM64.209-66.1621Q60.3516-66.1621 57.1533-68.042Q53.9551-69.9219 52.0508-73.1201Q50.1465-76.3184 50.1465-80.1758Q50.1465-84.0332 52.0508-87.207Q53.9551-90.3809 57.1533-92.2852Q60.3516-94.1895 64.209-94.1895Q68.0176-94.1895 71.2158-92.2852Q74.4141-90.3809 76.3184-87.207Q78.2227-84.0332 78.2227-80.1758Q78.2227-76.3184 76.3184-73.1201Q74.4141-69.9219 71.2158-68.042Q68.0176-66.1621 64.209-66.1621ZM24.4629 18.2129L138.867 18.2129Q142.383 18.2129 144.824 15.7715Q147.266 13.3301 147.266 9.86328Q147.266 6.34766 144.824 3.90625Q142.383 1.46484 138.867 1.46484L24.4629 1.46484Q20.9473 1.46484 18.5059 3.90625Q16.0645 6.34766 16.0645 9.86328Q16.0645 13.3301 18.5059 15.7715Q20.9473 18.2129 24.4629 18.2129ZM24.4629 49.3652L104.443 49.3652Q107.959 49.3652 110.4 46.9238Q112.842 44.4824 112.842 41.0156Q112.842 37.5 110.4 35.0586Q107.959 32.6172 104.443 32.6172L24.4629 32.6172Q20.9473 32.6172 18.5059 35.0586Q16.0645 37.5 16.0645 41.0156Q16.0645 44.4824 18.5059 46.9238Q20.9473 49.3652 24.4629 49.3652Z"/>
  </g>
  <g id="Heavy-L" transform="matrix(1 0 0 1 2555.24 1556)">
   <path d="M35.8887-13.2812L127.002-13.2812Q136.621-13.2812 141.724-18.3838Q146.826-23.4863 146.826-33.0078L146.826-98.9258Q146.826-108.398 141.724-113.525Q136.621-118.652 127.002-118.652L35.8887-118.652Q26.3672-118.652 21.2158-113.501Q16.0645-108.35 16.0645-98.9258L16.0645-33.0078Q16.0645-23.4863 21.2158-18.3838Q26.3672-13.2812 35.8887-13.2812ZM38.3789-28.7598Q35.1562-28.7598 33.3496-30.5664Q31.543-32.373 31.543-35.6445L31.543-41.8945L43.75-52.8809Q45.5078-54.4434 47.2412-55.2002Q48.9746-55.957 50.9766-55.957Q55.0781-55.957 58.5938-52.7832L68.7988-43.6523L94.043-66.2109Q95.9473-67.8711 98.0713-68.6768Q100.195-69.4824 102.49-69.4824Q104.639-69.4824 106.836-68.6523Q109.033-67.8223 110.791-66.1621L131.543-46.6797L131.543-35.5957Q131.543-32.373 129.59-30.5664Q127.637-28.7598 124.658-28.7598ZM62.3535-65.5273Q58.5449-65.5273 55.3711-67.4072Q52.1973-69.2871 50.3174-72.4365Q48.4375-75.5859 48.4375-79.4434Q48.4375-83.252 50.3174-86.4014Q52.1973-89.5508 55.3711-91.4307Q58.5449-93.3105 62.3535-93.3105Q66.1621-93.3105 69.3115-91.4307Q72.4609-89.5508 74.3408-86.4014Q76.2207-83.252 76.2207-79.4434Q76.2207-75.5859 74.3408-72.4365Q72.4609-69.2871 69.3115-67.4072Q66.1621-65.5273 62.3535-65.5273ZM23.4375 17.4805L139.453 17.4805Q142.529 17.4805 144.678 15.332Q146.826 13.1836 146.826 10.1562Q146.826 7.08008 144.678 4.93164Q142.529 2.7832 139.453 2.7832L23.4375 2.7832Q20.3613 2.7832 18.2129 4.93164Q16.0645 7.08008 16.0645 10.1562Q16.0645 13.1836 18.2129 15.332Q20.3613 17.4805 23.4375 17.4805ZM23.4375 48.2422L103.271 48.2422Q106.348 48.2422 108.496 46.0938Q110.645 43.9453 110.645 40.918Q110.645 37.793 108.496 35.6445Q106.348 33.4961 103.271 33.4961L23.4375 33.4961Q20.3613 33.4961 18.2129 35.6445Q16.0645 37.793 16.0645 40.918Q16.0645 43.9453 18.2129 46.0938Q20.3613 48.2422 23.4375 48.2422Z"/>
  </g>
  <g id="Bold-L" transform="matrix(1 0 0 1 2258.75 1556)">
   <path d="M34.8633-13.6719L127.588-13.6719Q136.768-13.6719 141.577-18.457Q146.387-23.2422 146.387-32.3242L146.387-98.6816Q146.387-107.764 141.577-112.573Q136.768-117.383 127.588-117.383L34.8633-117.383Q25.7812-117.383 20.9229-112.549Q16.0645-107.715 16.0645-98.6816L16.0645-32.3242Q16.0645-23.2422 20.8984-18.457Q25.7324-13.6719 34.8633-13.6719ZM36.6699-26.6113Q33.0566-26.6113 31.0547-28.6133Q29.0527-30.6152 29.0527-34.2285L29.0527-39.209L42.9688-51.7578Q44.7754-53.3691 46.582-54.1504Q48.3887-54.9316 50.293-54.9316Q54.4434-54.9316 58.0566-51.709L68.3105-42.4316L93.9941-65.2344Q95.9961-66.9922 98.1689-67.8223Q100.342-68.6523 102.637-68.6523Q104.834-68.6523 107.104-67.7979Q109.375-66.9434 111.182-65.1855L133.594-44.1406L133.594-34.1797Q133.594-30.6152 131.494-28.6133Q129.395-26.6113 125.977-26.6113ZM60.3027-64.8438Q56.543-64.8438 53.418-66.6992Q50.293-68.5547 48.4131-71.6797Q46.5332-74.8047 46.5332-78.6133Q46.5332-82.373 48.4131-85.498Q50.293-88.623 53.418-90.4785Q56.543-92.334 60.3027-92.334Q64.0625-92.334 67.1875-90.4785Q70.3125-88.623 72.168-85.498Q74.0234-82.373 74.0234-78.6133Q74.0234-74.8047 72.168-71.6797Q70.3125-68.5547 67.1875-66.6992Q64.0625-64.8438 60.3027-64.8438ZM22.3145 16.6992L140.137 16.6992Q142.725 16.6992 144.556 14.8926Q146.387 13.0859 146.387 10.498Q146.387 7.86133 144.556 6.05469Q142.725 4.24805 140.137 4.24805L22.3145 4.24805Q19.6777 4.24805 17.8711 6.05469Q16.0645 7.86133 16.0645 10.498Q16.0645 13.0859 17.8711 14.8926Q19.6777 16.6992 22.3145 16.6992ZM22.3145 46.9727L101.953 46.9727Q104.59 46.9727 106.396 45.166Q108.203 43.3594 108.203 40.7715Q108.203 38.1836 106.396 36.3525Q104.59 34.5215 101.953 34.5215L22.3145 34.5215Q19.6777 34.5215 17.8711 36.3525Q16.0645 38.1836 16.0645 40.7715Q16.0645 43.3594 17.8711 45.166Q19.6777 46.9727 22.3145 46.9727Z"/>
  </g>
  <g id="Semibold-L" transform="matrix(1 0 0 1 1962.21 1556)">
   <path d="M34.1309-13.916L127.93-13.916Q136.865-13.916 141.455-18.4814Q146.045-23.0469 146.045-31.8359L146.045-98.4863Q146.045-107.275 141.455-111.865Q136.865-116.455 127.93-116.455L34.1309-116.455Q25.3418-116.455 20.7031-111.841Q16.0645-107.227 16.0645-98.4863L16.0645-31.8359Q16.0645-23.0469 20.6787-18.4814Q25.293-13.916 34.1309-13.916ZM35.4492-25.0977Q31.5918-25.0977 29.4434-27.2461Q27.2949-29.3945 27.2949-33.252L27.2949-37.3535L42.4316-50.9766Q44.2383-52.6367 46.0938-53.418Q47.9492-54.1992 49.8535-54.1992Q54.0039-54.1992 57.666-50.9277L67.9688-41.5527L93.9453-64.5996Q95.9961-66.3574 98.2178-67.2119Q100.439-68.0664 102.734-68.0664Q104.932-68.0664 107.251-67.1875Q109.57-66.3086 111.426-64.5508L135.01-42.3828L135.01-33.2031Q135.01-29.3945 132.788-27.2461Q130.566-25.0977 126.904-25.0977ZM58.8867-64.3066Q55.127-64.3066 52.0264-66.1621Q48.9258-68.0176 47.0703-71.1426Q45.2148-74.2676 45.2148-78.0273Q45.2148-81.7871 47.0703-84.8633Q48.9258-87.9395 52.0264-89.7949Q55.127-91.6504 58.8867-91.6504Q62.6465-91.6504 65.7227-89.7949Q68.7988-87.9395 70.6543-84.8633Q72.5098-81.7871 72.5098-78.0273Q72.5098-74.2676 70.6543-71.1426Q68.7988-68.0176 65.7227-66.1621Q62.6465-64.3066 58.8867-64.3066ZM21.5332 16.1133L140.576 16.1133Q142.871 16.1133 144.458 14.5264Q146.045 12.9395 146.045 10.6934Q146.045 8.39844 144.458 6.81152Q142.871 5.22461 140.576 5.22461L21.5332 5.22461Q19.2383 5.22461 17.6514 6.81152Q16.0645 8.39844 16.0645 10.6934Q16.0645 12.9395 17.6514 14.5264Q19.2383 16.1133 21.5332 16.1133ZM21.5332 46.0938L101.025 46.0938Q103.32 46.0938 104.907 44.5312Q106.494 42.9688 106.494 40.6738Q106.494 38.3789 104.907 36.792Q103.32 35.2051 101.025 35.2051L21.5332 35.2051Q19.2383 35.2051 17.6514 36.792Q16.0645 38.3789 16.0645 40.6738Q16.0645 42.9688 17.6514 44.5312Q19.2383 46.0938 21.5332 46.0938Z"/>
  </g>
  <g id="Medium-L" transform="matrix(1 0 0 1 1665.62 1556)">
   <path d="M33.5938-14.1113L128.223-14.1113Q136.914-14.1113 141.357-18.5059Q145.801-22.9004 145.801-31.4941L145.801-98.3398Q145.801-106.934 141.357-111.377Q136.914-115.82 128.223-115.82L33.5938-115.82Q25-115.82 20.5322-111.353Q16.0645-106.885 16.0645-98.3398L16.0645-31.4941Q16.0645-22.9004 20.5322-18.5059Q25-14.1113 33.5938-14.1113ZM34.5215-23.9746Q30.5176-23.9746 28.2471-26.2207Q25.9766-28.4668 25.9766-32.5195L25.9766-35.9375L41.9922-50.3906Q43.8477-52.0508 45.7275-52.8564Q47.6074-53.6621 49.4629-53.6621Q53.7109-53.6621 57.373-50.3418L67.7246-40.918L93.9453-64.0625Q95.9961-65.8691 98.2422-66.748Q100.488-67.627 102.832-67.627Q105.029-67.627 107.397-66.748Q109.766-65.8691 111.67-64.0137L136.084-41.0645L136.084-32.4707Q136.084-28.4668 133.789-26.2207Q131.494-23.9746 127.588-23.9746ZM57.8125-63.9648Q54.0527-63.9648 50.9766-65.7959Q47.9004-67.627 46.0693-70.7275Q44.2383-73.8281 44.2383-77.5879Q44.2383-81.2988 46.0693-84.375Q47.9004-87.4512 50.9766-89.3066Q54.0527-91.1621 57.8125-91.1621Q61.5234-91.1621 64.5996-89.3066Q67.6758-87.4512 69.5068-84.375Q71.3379-81.2988 71.3379-77.5879Q71.3379-73.8281 69.5068-70.7275Q67.6758-67.627 64.5996-65.7959Q61.5234-63.9648 57.8125-63.9648ZM20.9473 15.6738L140.918 15.6738Q142.92 15.6738 144.36 14.2822Q145.801 12.8906 145.801 10.8887Q145.801 8.83789 144.36 7.42188Q142.92 6.00586 140.918 6.00586L20.9473 6.00586Q18.8477 6.00586 17.4561 7.42188Q16.0645 8.83789 16.0645 10.8887Q16.0645 12.8906 17.4561 14.2822Q18.8477 15.6738 20.9473 15.6738ZM20.9473 45.459L100.342 45.459Q102.393 45.459 103.809 44.043Q105.225 42.627 105.225 40.625Q105.225 38.5742 103.809 37.1582Q102.393 35.7422 100.342 35.7422L20.9473 35.7422Q18.8477 35.7422 17.4561 37.1582Q16.0645 38.5742 16.0645 40.625Q16.0645 42.627 17.4561 44.043Q18.8477 45.459 20.9473 45.459Z"/>
  </g>
  <g id="Regular-L" transform="matrix(1 0 0 1 1369.08 1556)">
   <path d="M32.9102-14.3555L128.613-14.3555Q137.012-14.3555 141.235-18.5303Q145.459-22.7051 145.459-31.0059L145.459-98.1934Q145.459-106.494 141.235-110.718Q137.012-114.941 128.613-114.941L32.9102-114.941Q24.5605-114.941 20.3125-110.693Q16.0645-106.445 16.0645-98.1934L16.0645-31.0059Q16.0645-22.7051 20.3125-18.5303Q24.5605-14.3555 32.9102-14.3555ZM33.3496-22.5098Q29.0527-22.5098 26.6602-24.9023Q24.2676-27.2949 24.2676-31.5918L24.2676-34.1309L41.4551-49.6582Q43.3105-51.3184 45.2637-52.1484Q47.2168-52.9785 49.0234-52.9785Q53.2715-52.9785 56.9824-49.5605L67.4316-40.0879L93.8965-63.4277Q95.9961-65.2832 98.291-66.1621Q100.586-67.041 102.93-67.041Q105.176-67.041 107.568-66.1377Q109.961-65.2344 111.914-63.3789L137.5-39.3066L137.5-31.4941Q137.5-27.2949 135.083-24.9023Q132.666-22.5098 128.467-22.5098ZM56.3965-63.4766Q52.6855-63.4766 49.6338-65.3076Q46.582-67.1387 44.751-70.2148Q42.9199-73.291 42.9199-77.002Q42.9199-80.7129 44.751-83.7646Q46.582-86.8164 49.6338-88.6475Q52.6855-90.4785 56.3965-90.4785Q60.1074-90.4785 63.1592-88.6475Q66.2109-86.8164 68.0176-83.7646Q69.8242-80.7129 69.8242-77.002Q69.8242-73.291 68.0176-70.2148Q66.2109-67.1387 63.1592-65.3076Q60.1074-63.4766 56.3965-63.4766ZM20.166 15.1367L141.357 15.1367Q143.066 15.1367 144.263 13.9648Q145.459 12.793 145.459 11.084Q145.459 9.375 144.263 8.17871Q143.066 6.98242 141.357 6.98242L20.166 6.98242Q18.4082 6.98242 17.2363 8.17871Q16.0645 9.375 16.0645 11.084Q16.0645 12.793 17.2363 13.9648Q18.4082 15.1367 20.166 15.1367ZM20.166 44.5801L99.4629 44.5801Q101.172 44.5801 102.368 43.4082Q103.564 42.2363 103.564 40.5273Q103.564 38.8184 102.368 37.6221Q101.172 36.4258 99.4629 36.4258L20.166 36.4258Q18.4082 36.4258 17.2363 37.6221Q16.0645 38.8184 16.0645 40.5273Q16.0645 42.2363 17.2363 43.4082Q18.4082 44.5801 20.166 44.5801Z"/>
  </g>
  <g id="Light-L" transform="matrix(1 0 0 1 1072.52 1556)">
   <path d="M32.0312-14.6973L129.199-14.6973Q137.109-14.6973 141.138-18.7012Q145.166-22.7051 145.166-30.5664L145.166-98.291Q145.166-106.104 141.138-110.156Q137.109-114.209 129.199-114.209L32.0312-114.209Q24.1211-114.209 20.0928-110.156Q16.0645-106.104 16.0645-98.291L16.0645-30.5664Q16.0645-22.7051 20.1172-18.7012Q24.1699-14.6973 32.0312-14.6973ZM32.2266-21.0449Q27.5879-21.0449 25-23.6084Q22.4121-26.1719 22.4121-30.7617L22.4121-33.1543L40.9668-49.6582Q42.8711-51.3184 44.8486-52.1973Q46.8262-53.0762 48.6328-53.0762Q52.832-53.0762 56.6406-49.5605L66.9922-40.1367L93.6035-63.3789Q95.8008-65.332 98.1689-66.2598Q100.537-67.1875 102.832-67.1875Q105.127-67.1875 107.593-66.2354Q110.059-65.2832 112.109-63.3301L139.014-38.5742L139.014-30.7129Q139.014-26.1719 136.401-23.6084Q133.789-21.0449 129.199-21.0449ZM55.127-63.5742Q51.4648-63.5742 48.4375-65.4053Q45.4102-67.2363 43.6035-70.2637Q41.7969-73.291 41.7969-76.9531Q41.7969-80.6152 43.6035-83.6426Q45.4102-86.6699 48.4375-88.501Q51.4648-90.332 55.127-90.332Q58.7891-90.332 61.8164-88.501Q64.8438-86.6699 66.626-83.6426Q68.4082-80.6152 68.4082-76.9531Q68.4082-73.291 66.626-70.2637Q64.8438-67.2363 61.8164-65.4053Q58.7891-63.5742 55.127-63.5742ZM19.2383 14.5996L142.041 14.5996Q143.359 14.5996 144.263 13.6963Q145.166 12.793 145.166 11.4258Q145.166 10.1074 144.263 9.17969Q143.359 8.25195 142.041 8.25195L19.2383 8.25195Q17.8711 8.25195 16.9678 9.17969Q16.0645 10.1074 16.0645 11.4258Q16.0645 12.793 16.9678 13.6963Q17.8711 14.5996 19.2383 14.5996ZM19.2383 43.8477L100.781 43.8477Q102.148 43.8477 103.052 42.9443Q103.955 42.041 103.955 40.6738Q103.955 39.3555 103.052 38.4277Q102.148 37.5 100.781 37.5L19.2383 37.5Q17.8711 37.5 16.9678 38.4277Q16.0645 39.3555 16.0645 40.6738Q16.0645 42.041 16.9678 42.9443Q17.8711 43.8477 19.2383 43.8477Z"/>
  </g>
  <g id="Thin-L" transform="matrix(1 0 0 1 775.978 1556)">
   <path d="M30.8594-15.1855L129.98-15.1855Q137.207-15.1855 141.016-18.9697Q144.824-22.7539 144.824-29.9316L144.824-98.3887Q144.824-105.566 141.016-109.399Q137.207-113.232 129.98-113.232L30.8594-113.232Q23.584-113.232 19.8242-109.424Q16.0645-105.615 16.0645-98.3887L16.0645-29.9316Q16.0645-22.6562 19.8486-18.9209Q23.6328-15.1855 30.8594-15.1855ZM30.7617-19.043Q25.6348-19.043 22.7783-21.8506Q19.9219-24.6582 19.9219-29.6875L19.9219-31.9336L40.3809-49.6582Q42.334-51.3672 44.3115-52.3193Q46.2891-53.2715 48.0957-53.2715Q52.2461-53.2715 56.2012-49.5117L66.4062-40.2344L93.2129-63.3789Q95.5566-65.3809 98.0225-66.3818Q100.488-67.3828 102.734-67.3828Q105.127-67.3828 107.642-66.333Q110.156-65.2832 112.402-63.2812L140.967-37.5488L140.967-29.6875Q140.967-24.6582 138.11-21.8506Q135.254-19.043 130.176-19.043ZM53.4668-63.6719Q49.8535-63.6719 46.875-65.5029Q43.8965-67.334 42.1143-70.3369Q40.332-73.3398 40.332-76.9531Q40.332-80.5176 42.1143-83.5205Q43.8965-86.5234 46.875-88.3057Q49.8535-90.0879 53.4668-90.0879Q57.0801-90.0879 60.0586-88.3057Q63.0371-86.5234 64.8193-83.5205Q66.6016-80.5176 66.6016-76.9531Q66.6016-73.3398 64.8193-70.3369Q63.0371-67.334 60.0586-65.5029Q57.0801-63.6719 53.4668-63.6719ZM17.9688 13.8184L142.92 13.8184Q143.75 13.8184 144.287 13.2812Q144.824 12.7441 144.824 11.9141Q144.824 11.084 144.287 10.5225Q143.75 9.96094 142.92 9.96094L17.9688 9.96094Q17.1387 9.96094 16.6016 10.5225Q16.0645 11.084 16.0645 11.9141Q16.0645 12.7441 16.6016 13.2812Q17.1387 13.8184 17.9688 13.8184ZM17.9688 42.8223L102.539 42.8223Q103.369 42.8223 103.931 42.3096Q104.492 41.7969 104.492 40.918Q104.492 40.0391 103.931 39.502Q103.369 38.9648 102.539 38.9648L17.9688 38.9648Q17.1387 38.9648 16.6016 39.502Q16.0645 40.0391 16.0645 40.918Q16.0645 41.7969 16.6016 42.3096Q17.1387 42.8223 17.9688 42.8223Z"/>
  </g>
  <g id="Ultralight-L" transform="matrix(1 0 0 1 479.364 1556)">
   <path d="M30.2246-15.4297L130.371-15.4297Q137.305-15.4297 140.967-19.0918Q144.629-22.7539 144.629-29.6387L144.629-98.4375Q144.629-105.322 140.967-109.009Q137.305-112.695 130.371-112.695L30.2246-112.695Q23.291-112.695 19.6777-109.033Q16.0645-105.371 16.0645-98.4375L16.0645-29.6387Q16.0645-22.6562 19.7021-19.043Q23.3398-15.4297 30.2246-15.4297ZM30.0293-18.0664Q24.6582-18.0664 21.6797-20.9717Q18.7012-23.877 18.7012-29.1504L18.7012-31.25L40.0391-49.6582Q42.041-51.3672 44.043-52.3438Q46.0449-53.3203 47.8516-53.3203Q51.9531-53.3203 56.0059-49.5117L66.1133-40.2832L92.9688-63.3301Q95.4102-65.4297 97.9248-66.4551Q100.439-67.4805 102.637-67.4805Q105.078-67.4805 107.666-66.4062Q110.254-65.332 112.549-63.2324L141.992-37.0605L141.992-29.1504Q141.992-23.877 139.014-20.9717Q136.035-18.0664 130.664-18.0664ZM52.6367-63.7695Q49.0723-63.7695 46.0938-65.5762Q43.1152-67.3828 41.3574-70.3613Q39.5996-73.3398 39.5996-76.9043Q39.5996-80.4688 41.3574-83.4473Q43.1152-86.4258 46.0938-88.208Q49.0723-89.9902 52.6367-89.9902Q56.2012-89.9902 59.1553-88.208Q62.1094-86.4258 63.8672-83.4473Q65.625-80.4688 65.625-76.9043Q65.625-73.3398 63.8672-70.3613Q62.1094-67.3828 59.1553-65.5762Q56.2012-63.7695 52.6367-63.7695ZM17.334 13.4766L143.359 13.4766Q143.945 13.4766 144.287 13.1104Q144.629 12.7441 144.629 12.1094Q144.629 11.5723 144.287 11.2061Q143.945 10.8398 143.359 10.8398L17.334 10.8398Q16.7969 10.8398 16.4307 11.2061Q16.0645 11.5723 16.0645 12.1094Q16.0645 12.7441 16.4307 13.1104Q16.7969 13.4766 17.334 13.4766ZM17.334 42.334L103.418 42.334Q104.053 42.334 104.395 41.9922Q104.736 41.6504 104.736 41.0156Q104.736 40.4297 104.395 40.0635Q104.053 39.6973 103.418 39.6973L17.334 39.6973Q16.7969 39.6973 16.4307 40.0635Q16.0645 40.4297 16.0645 41.0156Q16.0645 41.6504 16.4307 41.9922Q16.7969 42.334 17.334 42.334Z"/>
  </g>
  <g id="Black-M" transform="matrix(1 0 0 1 2869.97 1126)">
   <path d="M29.0039-17.8223L97.8027-17.8223Q105.713-17.8223 110.059-22.168Q114.404-26.5137 114.404-34.4238L114.404-84.9609Q114.404-92.7246 110.059-97.1191Q105.713-101.514 97.8027-101.514L29.0039-101.514Q21.1914-101.514 16.8213-97.1191Q12.4512-92.7246 12.4512-84.9609L12.4512-34.4238Q12.4512-26.5137 16.8213-22.168Q21.1914-17.8223 29.0039-17.8223ZM31.8848-32.8125Q29.834-32.8125 28.6377-34.0088Q27.4414-35.2051 27.4414-37.2559L27.4414-43.9453L34.9609-50.5371Q36.2305-51.709 37.4756-52.2705Q38.7207-52.832 40.332-52.832Q43.457-52.832 46.0938-50.4395L53.8086-43.5547L72.8516-60.5957Q75.6836-63.0371 79.1504-63.0371Q80.7617-63.0371 82.3975-62.4268Q84.0332-61.8164 85.4004-60.5469L99.4141-47.6074L99.4141-37.3047Q99.4141-35.2051 98.0713-34.0088Q96.7285-32.8125 94.9219-32.8125ZM50.8789-59.7656Q47.9004-59.7656 45.4102-61.2305Q42.9199-62.6953 41.4307-65.1855Q39.9414-67.6758 39.9414-70.7031Q39.9414-73.6816 41.4307-76.1719Q42.9199-78.6621 45.4102-80.1514Q47.9004-81.6406 50.8789-81.6406Q53.8574-81.6406 56.3477-80.1514Q58.8379-78.6621 60.3271-76.1719Q61.8164-73.6816 61.8164-70.7031Q61.8164-67.6758 60.3271-65.1855Q58.8379-62.6953 56.3477-61.2305Q53.8574-59.7656 50.8789-59.7656ZM19.4824 6.64062L107.373 6.64062Q110.303 6.64062 112.354 4.56543Q114.404 2.49023 114.404-0.439453Q114.404-3.36914 112.354-5.41992Q110.303-7.4707 107.373-7.4707L19.4824-7.4707Q16.5527-7.4707 14.502-5.41992Q12.4512-3.36914 12.4512-0.439453Q12.4512 2.49023 14.502 4.56543Q16.5527 6.64062 19.4824 6.64062ZM19.4824 31.0547L82.4219 31.0547Q85.3516 31.0547 87.4023 29.0039Q89.4531 26.9531 89.4531 24.0234Q89.4531 21.0449 87.4023 18.9941Q85.3516 16.9434 82.4219 16.9434L19.4824 16.9434Q16.5527 16.9434 14.502 18.9941Q12.4512 21.0449 12.4512 24.0234Q12.4512 26.9531 14.502 29.0039Q16.5527 31.0547 19.4824 31.0547Z"/>
  </g>
  <g id="Heavy-M" transform="matrix(1 0 0 1 2573.43 1126)">
   <path d="M28.3203-18.0664L98.1445-18.0664Q105.811-18.0664 109.937-22.168Q114.062-26.2695 114.062-33.8867L114.062-84.7168Q114.062-92.2363 109.937-96.3867Q105.811-100.537 98.1445-100.537L28.3203-100.537Q20.752-100.537 16.6016-96.3867Q12.4512-92.2363 12.4512-84.7168L12.4512-33.8867Q12.4512-26.2695 16.6016-22.168Q20.752-18.0664 28.3203-18.0664ZM30.6152-31.25Q28.3203-31.25 26.9775-32.5928Q25.6348-33.9355 25.6348-36.2305L25.6348-41.7969L34.375-49.5605Q35.6445-50.7812 36.9629-51.3428Q38.2812-51.9043 39.8438-51.9043Q43.0176-51.9043 45.7031-49.4629L53.5156-42.4805L72.8516-59.7656Q75.7812-62.2559 79.2969-62.2559Q80.957-62.2559 82.6172-61.6455Q84.2773-61.0352 85.6934-59.7168L100.879-45.5566L100.879-36.2305Q100.879-33.8867 99.4385-32.5684Q97.998-31.25 95.8984-31.25ZM49.3652-59.1309Q46.3867-59.1309 43.9209-60.5957Q41.4551-62.0605 39.9902-64.5264Q38.5254-66.9922 38.5254-69.9707Q38.5254-72.9492 39.9902-75.415Q41.4551-77.8809 43.9209-79.3457Q46.3867-80.8105 49.3652-80.8105Q52.2949-80.8105 54.7607-79.3457Q57.2266-77.8809 58.7158-75.415Q60.2051-72.9492 60.2051-69.9707Q60.2051-66.9922 58.7158-64.5264Q57.2266-62.0605 54.7607-60.5957Q52.2949-59.1309 49.3652-59.1309ZM18.7012 6.05469L107.812 6.05469Q110.4 6.05469 112.231 4.22363Q114.062 2.39258 114.062-0.244141Q114.062-2.83203 112.231-4.63867Q110.4-6.44531 107.812-6.44531L18.7012-6.44531Q16.1133-6.44531 14.2822-4.63867Q12.4512-2.83203 12.4512-0.244141Q12.4512 2.39258 14.2822 4.22363Q16.1133 6.05469 18.7012 6.05469ZM18.7012 30.127L80.957 30.127Q83.5938 30.127 85.4004 28.2959Q87.207 26.4648 87.207 23.877Q87.207 21.2402 85.4004 19.4092Q83.5938 17.5781 80.957 17.5781L18.7012 17.5781Q16.1133 17.5781 14.2822 19.4092Q12.4512 21.2402 12.4512 23.877Q12.4512 26.4648 14.2822 28.2959Q16.1133 30.127 18.7012 30.127Z"/>
  </g>
  <g id="Bold-M" transform="matrix(1 0 0 1 2276.92 1126)">
   <path d="M27.5391-18.3594L98.584-18.3594Q105.908-18.3594 109.79-22.1924Q113.672-26.0254 113.672-33.3008L113.672-84.4727Q113.672-91.6992 109.79-95.5811Q105.908-99.4629 98.584-99.4629L27.5391-99.4629Q20.2637-99.4629 16.3574-95.5811Q12.4512-91.6992 12.4512-84.4727L12.4512-33.3008Q12.4512-26.0254 16.333-22.1924Q20.2148-18.3594 27.5391-18.3594ZM29.1992-29.541Q26.6113-29.541 25.1465-31.0059Q23.6816-32.4707 23.6816-35.0586L23.6816-39.4531L33.6914-48.4863Q35.0098-49.707 36.4014-50.293Q37.793-50.8789 39.3066-50.8789Q42.4805-50.8789 45.2637-48.3887L53.1738-41.2598L72.9004-58.8867Q75.8789-61.4258 79.4922-61.4258Q81.1523-61.4258 82.8857-60.791Q84.6191-60.1562 85.9863-58.7891L102.588-43.2129L102.588-35.0586Q102.588-32.4707 101.025-31.0059Q99.4629-29.541 97.0215-29.541ZM47.6562-58.4473Q44.7266-58.4473 42.2852-59.8877Q39.8438-61.3281 38.3789-63.7695Q36.9141-66.2109 36.9141-69.1895Q36.9141-72.1191 38.3789-74.5605Q39.8438-77.002 42.2852-78.4424Q44.7266-79.8828 47.6562-79.8828Q50.5859-79.8828 53.0273-78.4424Q55.4688-77.002 56.9336-74.5605Q58.3984-72.1191 58.3984-69.1895Q58.3984-66.2109 56.9336-63.7695Q55.4688-61.3281 53.0273-59.8877Q50.5859-58.4473 47.6562-58.4473ZM17.8223 5.41992L108.301 5.41992Q110.498 5.41992 112.085 3.83301Q113.672 2.24609 113.672 0Q113.672-2.24609 112.085-3.80859Q110.498-5.37109 108.301-5.37109L17.8223-5.37109Q15.5762-5.37109 14.0137-3.80859Q12.4512-2.24609 12.4512 0Q12.4512 2.24609 14.0137 3.83301Q15.5762 5.41992 17.8223 5.41992ZM17.8223 29.0527L79.3945 29.0527Q81.6406 29.0527 83.2031 27.5146Q84.7656 25.9766 84.7656 23.7305Q84.7656 21.4355 83.2031 19.873Q81.6406 18.3105 79.3945 18.3105L17.8223 18.3105Q15.5762 18.3105 14.0137 19.873Q12.4512 21.4355 12.4512 23.7305Q12.4512 25.9766 14.0137 27.5146Q15.5762 29.0527 17.8223 29.0527Z"/>
  </g>
  <g id="Semibold-M" transform="matrix(1 0 0 1 1980.35 1126)">
   <path d="M26.9531-18.5059L98.8281-18.5059Q105.957-18.5059 109.668-22.168Q113.379-25.8301 113.379-32.9102L113.379-84.2773Q113.379-91.3086 109.668-95.0195Q105.957-98.7305 98.8281-98.7305L26.9531-98.7305Q19.873-98.7305 16.1621-95.0195Q12.4512-91.3086 12.4512-84.2773L12.4512-32.9102Q12.4512-25.8301 16.1621-22.168Q19.873-18.5059 26.9531-18.5059ZM28.1738-28.3203Q25.3906-28.3203 23.8281-29.9072Q22.2656-31.4941 22.2656-34.2773L22.2656-37.793L33.252-47.7539Q34.5703-48.9746 35.9863-49.5605Q37.4023-50.1465 38.916-50.1465Q42.1387-50.1465 44.9219-47.6562L52.9297-40.4297L72.9004-58.252Q75.9277-60.8398 79.6387-60.8398Q81.2988-60.8398 83.0566-60.1807Q84.8145-59.5215 86.1816-58.1543L103.711-41.6016L103.711-34.2285Q103.711-31.4453 102.075-29.8828Q100.439-28.3203 97.8027-28.3203ZM46.4844-57.9102Q43.5547-57.9102 41.1377-59.3506Q38.7207-60.791 37.2559-63.2324Q35.791-65.6738 35.791-68.6035Q35.791-71.5332 37.2559-73.9502Q38.7207-76.3672 41.1377-77.8076Q43.5547-79.248 46.4844-79.248Q49.4141-79.248 51.8066-77.8076Q54.1992-76.3672 55.6641-73.9502Q57.1289-71.5332 57.1289-68.6035Q57.1289-65.6738 55.6641-63.2324Q54.1992-60.791 51.8066-59.3506Q49.4141-57.9102 46.4844-57.9102ZM17.1875 4.93164L108.594 4.93164Q110.547 4.93164 111.963 3.54004Q113.379 2.14844 113.379 0.146484Q113.379-1.80664 111.963-3.19824Q110.547-4.58984 108.594-4.58984L17.1875-4.58984Q15.2344-4.58984 13.8428-3.19824Q12.4512-1.80664 12.4512 0.146484Q12.4512 2.14844 13.8428 3.54004Q15.2344 4.93164 17.1875 4.93164ZM17.1875 28.3203L78.2715 28.3203Q80.2734 28.3203 81.6406 26.9531Q83.0078 25.5859 83.0078 23.584Q83.0078 21.582 81.6406 20.1904Q80.2734 18.7988 78.2715 18.7988L17.1875 18.7988Q15.2344 18.7988 13.8428 20.1904Q12.4512 21.582 12.4512 23.584Q12.4512 25.5859 13.8428 26.9531Q15.2344 28.3203 17.1875 28.3203Z"/>
  </g>
  <g id="Medium-M" transform="matrix(1 0 0 1 1683.74 1126)">
   <path d="M26.5625-18.6523L99.0234-18.6523Q106.055-18.6523 109.619-22.1924Q113.184-25.7324 113.184-32.5684L113.184-84.1797Q113.184-91.0645 109.619-94.6045Q106.055-98.1445 99.0234-98.1445L26.5625-98.1445Q19.6289-98.1445 16.04-94.5801Q12.4512-91.0156 12.4512-84.1797L12.4512-32.5684Q12.4512-25.7324 16.0156-22.1924Q19.5801-18.6523 26.5625-18.6523ZM27.4414-27.3926Q24.5117-27.3926 22.876-29.0527Q21.2402-30.7129 21.2402-33.6426L21.2402-36.5234L32.8613-47.168Q34.2285-48.4375 35.6934-49.0234Q37.1582-49.6094 38.623-49.6094Q41.8457-49.6094 44.6777-47.0703L52.7344-39.7949L72.9492-57.7637Q75.9766-60.4004 79.6875-60.4004Q81.3965-60.4004 83.1787-59.7168Q84.9609-59.0332 86.377-57.666L104.59-40.3809L104.59-33.5938Q104.59-30.6641 102.881-29.0283Q101.172-27.3926 98.3887-27.3926ZM45.6055-57.5684Q42.6758-57.5684 40.2832-58.9844Q37.8906-60.4004 36.4258-62.8418Q34.9609-65.2832 34.9609-68.1641Q34.9609-71.0938 36.4258-73.4863Q37.8906-75.8789 40.2832-77.3193Q42.6758-78.7598 45.6055-78.7598Q48.4863-78.7598 50.8789-77.3193Q53.2715-75.8789 54.7119-73.4863Q56.1523-71.0938 56.1523-68.1641Q56.1523-65.2832 54.7119-62.8418Q53.2715-60.4004 50.8789-58.9844Q48.4863-57.5684 45.6055-57.5684ZM16.6992 4.58984L108.838 4.58984Q110.645 4.58984 111.914 3.34473Q113.184 2.09961 113.184 0.292969Q113.184-1.46484 111.914-2.73438Q110.645-4.00391 108.838-4.00391L16.6992-4.00391Q14.9414-4.00391 13.6963-2.73438Q12.4512-1.46484 12.4512 0.292969Q12.4512 2.09961 13.6963 3.34473Q14.9414 4.58984 16.6992 4.58984ZM16.6992 27.7832L77.3926 27.7832Q79.248 27.7832 80.4932 26.5381Q81.7383 25.293 81.7383 23.4863Q81.7383 21.6797 80.4932 20.4346Q79.248 19.1895 77.3926 19.1895L16.6992 19.1895Q14.9414 19.1895 13.6963 20.4346Q12.4512 21.6797 12.4512 23.4863Q12.4512 25.293 13.6963 26.5381Q14.9414 27.7832 16.6992 27.7832Z"/>
  </g>
  <g id="Regular-M" transform="matrix(1 0 0 1 1387.17 1126)">
   <path d="M26.0254-18.8477L99.3164-18.8477Q106.104-18.8477 109.497-22.1924Q112.891-25.5371 112.891-32.1777L112.891-83.9844Q112.891-90.6738 109.497-94.043Q106.104-97.4121 99.3164-97.4121L26.0254-97.4121Q19.2871-97.4121 15.8691-94.0186Q12.4512-90.625 12.4512-83.9844L12.4512-32.1777Q12.4512-25.5371 15.8447-22.1924Q19.2383-18.8477 26.0254-18.8477ZM26.4648-26.2207Q23.3398-26.2207 21.6064-27.9785Q19.873-29.7363 19.873-32.8613L19.873-34.9121L32.4219-46.4355Q33.7891-47.7051 35.3027-48.3154Q36.8164-48.9258 38.2324-48.9258Q41.5039-48.9258 44.3848-46.3379L52.4902-38.9648L72.9492-57.1289Q76.0254-59.8145 79.834-59.8145Q81.543-59.8145 83.3496-59.1309Q85.1562-58.4473 86.5723-57.0312L105.713-38.8184L105.713-32.7637Q105.713-29.6875 103.931-27.9541Q102.148-26.2207 99.1211-26.2207ZM44.4336-57.0801Q41.5527-57.0801 39.1602-58.4961Q36.7676-59.9121 35.3271-62.3291Q33.8867-64.7461 33.8867-67.627Q33.8867-70.5078 35.3271-72.9004Q36.7676-75.293 39.1602-76.709Q41.5527-78.125 44.4336-78.125Q47.3145-78.125 49.6826-76.709Q52.0508-75.293 53.4912-72.9004Q54.9316-70.5078 54.9316-67.627Q54.9316-64.7461 53.4912-62.3291Q52.0508-59.9121 49.6826-58.4961Q47.3145-57.0801 44.4336-57.0801ZM16.1133 4.15039L109.18 4.15039Q110.693 4.15039 111.792 3.07617Q112.891 2.00195 112.891 0.439453Q112.891-1.07422 111.792-2.14844Q110.693-3.22266 109.18-3.22266L16.1133-3.22266Q14.5996-3.22266 13.5254-2.14844Q12.4512-1.07422 12.4512 0.439453Q12.4512 2.00195 13.5254 3.07617Q14.5996 4.15039 16.1133 4.15039ZM16.1133 27.0508L76.3184 27.0508Q77.8809 27.0508 78.9551 26.001Q80.0293 24.9512 80.0293 23.3887Q80.0293 21.8262 78.9551 20.752Q77.8809 19.6777 76.3184 19.6777L16.1133 19.6777Q14.5996 19.6777 13.5254 20.752Q12.4512 21.8262 12.4512 23.3887Q12.4512 24.9512 13.5254 26.001Q14.5996 27.0508 16.1133 27.0508Z"/>
  </g>
  <g id="Light-M" transform="matrix(1 0 0 1 1090.58 1126)">
   <path d="M25.2441-19.1895L99.8535-19.1895Q106.201-19.1895 109.424-22.3633Q112.646-25.5371 112.646-31.7871L112.646-84.0332Q112.646-90.332 109.424-93.5303Q106.201-96.7285 99.8535-96.7285L25.2441-96.7285Q18.8965-96.7285 15.6738-93.5059Q12.4512-90.2832 12.4512-84.0332L12.4512-31.7871Q12.4512-25.5371 15.6738-22.3633Q18.8965-19.1895 25.2441-19.1895ZM25.4883-24.9023Q22.0215-24.9023 20.1172-26.8066Q18.2129-28.7109 18.2129-32.1289L18.2129-34.0332L31.9824-46.4355Q33.3984-47.7051 34.9365-48.3643Q36.4746-49.0234 37.8906-49.0234Q41.1133-49.0234 44.0918-46.3379L52.0996-39.0137L72.6562-57.0801Q75.9277-59.9121 79.7363-59.9121Q81.4941-59.9121 83.374-59.2041Q85.2539-58.4961 86.7676-56.9824L107.08-38.1348L107.08-32.0801Q107.08-28.7109 105.127-26.8066Q103.174-24.9023 99.8047-24.9023ZM43.3105-57.1777Q40.4297-57.1777 38.0859-58.5938Q35.7422-60.0098 34.3262-62.3779Q32.9102-64.7461 32.9102-67.5781Q32.9102-70.459 34.3262-72.8271Q35.7422-75.1953 38.0859-76.5869Q40.4297-77.9785 43.3105-77.9785Q46.1426-77.9785 48.4863-76.5869Q50.8301-75.1953 52.2461-72.8271Q53.6621-70.459 53.6621-67.5781Q53.6621-64.7461 52.2461-62.3779Q50.8301-60.0098 48.4863-58.5938Q46.1426-57.1777 43.3105-57.1777ZM15.2832 3.61328L109.766 3.61328Q110.986 3.61328 111.816 2.80762Q112.646 2.00195 112.646 0.78125Q112.646-0.439453 111.816-1.26953Q110.986-2.09961 109.766-2.09961L15.2832-2.09961Q14.1113-2.09961 13.2812-1.26953Q12.4512-0.439453 12.4512 0.78125Q12.4512 2.00195 13.2812 2.80762Q14.1113 3.61328 15.2832 3.61328ZM15.2832 26.3672L77.4902 26.3672Q78.7109 26.3672 79.541 25.5615Q80.3711 24.7559 80.3711 23.5352Q80.3711 22.3145 79.541 21.4844Q78.7109 20.6543 77.4902 20.6543L15.2832 20.6543Q14.1113 20.6543 13.2812 21.4844Q12.4512 22.3145 12.4512 23.5352Q12.4512 24.7559 13.2812 25.5615Q14.1113 26.3672 15.2832 26.3672Z"/>
  </g>
  <g id="Thin-M" transform="matrix(1 0 0 1 794.044 1126)">
   <path d="M24.1699-19.5801L100.537-19.5801Q106.299-19.5801 109.302-22.5586Q112.305-25.5371 112.305-31.25L112.305-84.1309Q112.305-89.8438 109.302-92.8467Q106.299-95.8496 100.537-95.8496L24.1699-95.8496Q18.4082-95.8496 15.4297-92.8467Q12.4512-89.8438 12.4512-84.1309L12.4512-31.25Q12.4512-25.4883 15.4297-22.5342Q18.4082-19.5801 24.1699-19.5801ZM24.1211-23.1445Q20.2637-23.1445 18.1152-25.2686Q15.9668-27.3926 15.9668-31.1523L15.9668-32.9102L31.3965-46.4355Q32.9102-47.7051 34.4482-48.4375Q35.9863-49.1699 37.4023-49.1699Q40.5762-49.1699 43.7012-46.2891L51.5625-39.1113L72.3145-57.0312Q75.8301-60.1074 79.6387-60.1074Q81.4941-60.1074 83.4229-59.3018Q85.3516-58.4961 87.0605-56.9824L108.838-37.2559L108.838-31.1523Q108.838-27.3438 106.665-25.2441Q104.492-23.1445 100.684-23.1445ZM41.8457-57.2754Q38.9648-57.2754 36.6455-58.6914Q34.3262-60.1074 32.9346-62.4512Q31.543-64.7949 31.543-67.5781Q31.543-70.3613 32.9346-72.6807Q34.3262-75 36.6455-76.416Q38.9648-77.832 41.8457-77.832Q44.6289-77.832 46.9238-76.416Q49.2188-75 50.6104-72.6807Q52.002-70.3613 52.002-67.5781Q52.002-64.7949 50.6104-62.4512Q49.2188-60.1074 46.9238-58.6914Q44.6289-57.2754 41.8457-57.2754ZM14.209 2.97852L110.547 2.97852Q111.328 2.97852 111.816 2.46582Q112.305 1.95312 112.305 1.17188Q112.305 0.439453 111.816-0.0732422Q111.328-0.585938 110.547-0.585938L14.209-0.585938Q13.4277-0.585938 12.9395-0.0732422Q12.4512 0.439453 12.4512 1.17188Q12.4512 1.95312 12.9395 2.46582Q13.4277 2.97852 14.209 2.97852ZM14.209 25.4883L79.1016 25.4883Q79.834 25.4883 80.3467 25Q80.8594 24.5117 80.8594 23.7305Q80.8594 22.9492 80.3467 22.4609Q79.834 21.9727 79.1016 21.9727L14.209 21.9727Q13.4277 21.9727 12.9395 22.4609Q12.4512 22.9492 12.4512 23.7305Q12.4512 24.5117 12.9395 25Q13.4277 25.4883 14.209 25.4883Z"/>
  </g>
  <g id="Ultralight-M" transform="matrix(1 0 0 1 497.406 1126)">
   <path d="M23.6328-19.8242L100.928-19.8242Q106.396-19.8242 109.277-22.6807Q112.158-25.5371 112.158-31.0059L112.158-84.1797Q112.158-89.6484 109.277-92.5293Q106.396-95.4102 100.928-95.4102L23.6328-95.4102Q18.1641-95.4102 15.3076-92.5293Q12.4512-89.6484 12.4512-84.1797L12.4512-31.0059Q12.4512-25.4883 15.332-22.6562Q18.2129-19.8242 23.6328-19.8242ZM23.4863-22.2168Q19.3848-22.2168 17.1143-24.4629Q14.8438-26.709 14.8438-30.6641L14.8438-32.3242L31.1035-46.4355Q32.666-47.7051 34.2285-48.4863Q35.791-49.2676 37.207-49.2676Q40.332-49.2676 43.457-46.2891L51.3184-39.1602L72.1191-56.9824Q75.7812-60.1562 79.541-60.1562Q81.4453-60.1562 83.4473-59.3506Q85.4492-58.5449 87.207-56.9336L109.766-36.7676L109.766-30.6641Q109.766-26.709 107.471-24.4629Q105.176-22.2168 101.123-22.2168ZM41.0645-57.3242Q38.2324-57.3242 35.9375-58.7402Q33.6426-60.1562 32.2754-62.4756Q30.9082-64.7949 30.9082-67.5293Q30.9082-70.3125 32.2754-72.6318Q33.6426-74.9512 35.9375-76.3428Q38.2324-77.7344 41.0645-77.7344Q43.7988-77.7344 46.1182-76.3428Q48.4375-74.9512 49.8047-72.6318Q51.1719-70.3125 51.1719-67.5293Q51.1719-64.7949 49.8047-62.4756Q48.4375-60.1562 46.1182-58.7402Q43.7988-57.3242 41.0645-57.3242ZM13.6719 2.58789L110.938 2.58789Q111.523 2.58789 111.841 2.27051Q112.158 1.95312 112.158 1.41602Q112.158 0.878906 111.841 0.537109Q111.523 0.195312 110.938 0.195312L13.6719 0.195312Q13.0859 0.195312 12.7686 0.537109Q12.4512 0.878906 12.4512 1.41602Q12.4512 1.95312 12.7686 2.27051Q13.0859 2.58789 13.6719 2.58789ZM13.6719 25.0488L79.8828 25.0488Q80.4199 25.0488 80.7373 24.707Q81.0547 24.3652 81.0547 23.8281Q81.0547 23.291 80.7373 22.9492Q80.4199 22.6074 79.8828 22.6074L13.6719 22.6074Q13.0859 22.6074 12.7686 22.9492Q12.4512 23.291 12.4512 23.8281Q12.4512 24.3652 12.7686 24.707Q13.0859 25.0488 13.6719 25.0488Z"/>
  </g>
  <g id="Black-S" transform="matrix(1 0 0 1 2883.64 696)">
   <path d="M22.9004-21.5332L76.5625-21.5332Q82.8125-21.5332 86.2793-25.0244Q89.7461-28.5156 89.7461-34.7168L89.7461-74.2676Q89.7461-80.4199 86.2793-83.9111Q82.8125-87.4023 76.5625-87.4023L22.9004-87.4023Q16.748-87.4023 13.2568-83.9111Q9.76562-80.4199 9.76562-74.2676L9.76562-34.7168Q9.76562-28.5156 13.2568-25.0244Q16.748-21.5332 22.9004-21.5332ZM25.3418-33.7402Q23.7793-33.7402 22.876-34.6436Q21.9727-35.5469 21.9727-37.1094L21.9727-42.6758L27.5391-47.5098Q28.5645-48.4375 29.5166-48.877Q30.4688-49.3164 31.7383-49.3164Q34.1797-49.3164 36.2305-47.4609L42.2363-42.0898L57.0801-55.3711Q59.2773-57.2754 61.9629-57.2754Q63.2324-57.2754 64.502-56.7871Q65.7715-56.2988 66.8457-55.3223L77.5391-45.5078L77.5391-37.1582Q77.5391-35.5469 76.5137-34.6436Q75.4883-33.7402 74.1211-33.7402ZM40.2832-54.6387Q36.7676-54.6387 34.2285-57.1533Q31.6895-59.668 31.6895-63.2324Q31.6895-66.748 34.2285-69.2871Q36.7676-71.8262 40.2832-71.8262Q43.7988-71.8262 46.3379-69.2871Q48.877-66.748 48.877-63.2324Q48.877-59.668 46.3379-57.1533Q43.7988-54.6387 40.2832-54.6387ZM15.4785-2.29492L84.0332-2.29492Q86.4258-2.29492 88.0859-3.95508Q89.7461-5.61523 89.7461-8.00781Q89.7461-10.4004 88.0859-12.0605Q86.4258-13.7207 84.0332-13.7207L15.4785-13.7207Q13.0859-13.7207 11.4258-12.0605Q9.76562-10.4004 9.76562-8.00781Q9.76562-5.61523 11.4258-3.95508Q13.0859-2.29492 15.4785-2.29492ZM15.4785 16.9434L65.0879 16.9434Q67.4805 16.9434 69.1406 15.2832Q70.8008 13.623 70.8008 11.2305Q70.8008 8.83789 69.1406 7.17773Q67.4805 5.51758 65.0879 5.51758L15.4785 5.51758Q13.0859 5.51758 11.4258 7.17773Q9.76562 8.83789 9.76562 11.2305Q9.76562 13.623 11.4258 15.2832Q13.0859 16.9434 15.4785 16.9434Z"/>
  </g>
  <g id="Heavy-S" transform="matrix(1 0 0 1 2587.08 696)">
   <path d="M22.4121-21.6797L76.8066-21.6797Q82.8613-21.6797 86.1572-25Q89.4531-28.3203 89.4531-34.3262L89.4531-74.0723Q89.4531-80.0293 86.1572-83.3496Q82.8613-86.6699 76.8066-86.6699L22.4121-86.6699Q16.4062-86.6699 13.0859-83.3496Q9.76562-80.0293 9.76562-74.0723L9.76562-34.3262Q9.76562-28.3203 13.0859-25Q16.4062-21.6797 22.4121-21.6797ZM24.3652-32.5684Q22.6562-32.5684 21.6553-33.5693Q20.6543-34.5703 20.6543-36.3281L20.6543-40.9668L27.0996-46.6797Q28.125-47.6074 29.126-48.0469Q30.127-48.4863 31.3477-48.4863Q33.8379-48.4863 35.9375-46.6309L42.041-41.1621L57.1289-54.6875Q59.375-56.5918 62.1094-56.5918Q63.3789-56.5918 64.6729-56.1035Q65.9668-55.6152 67.041-54.6387L78.6133-43.8477L78.6133-36.3281Q78.6133-34.5703 77.5391-33.5693Q76.4648-32.5684 74.9023-32.5684ZM39.1113-54.1016Q35.6445-54.1016 33.1299-56.5918Q30.6152-59.082 30.6152-62.5977Q30.6152-66.1133 33.1299-68.6279Q35.6445-71.1426 39.1113-71.1426Q42.627-71.1426 45.1416-68.6279Q47.6562-66.1133 47.6562-62.5977Q47.6562-59.082 45.1416-56.5918Q42.627-54.1016 39.1113-54.1016ZM14.8926-2.73438L84.3262-2.73438Q86.4746-2.73438 87.9639-4.22363Q89.4531-5.71289 89.4531-7.86133Q89.4531-10.0098 87.9639-11.499Q86.4746-12.9883 84.3262-12.9883L14.8926-12.9883Q12.7441-12.9883 11.2549-11.499Q9.76562-10.0098 9.76562-7.86133Q9.76562-5.71289 11.2549-4.22363Q12.7441-2.73438 14.8926-2.73438ZM14.8926 16.2109L63.7207 16.2109Q65.8691 16.2109 67.3584 14.7217Q68.8477 13.2324 68.8477 11.084Q68.8477 8.93555 67.3584 7.44629Q65.8691 5.95703 63.7207 5.95703L14.8926 5.95703Q12.7441 5.95703 11.2549 7.44629Q9.76562 8.93555 9.76562 11.084Q9.76562 13.2324 11.2549 14.7217Q12.7441 16.2109 14.8926 16.2109Z"/>
  </g>
  <g id="Bold-S" transform="matrix(1 0 0 1 2290.51 696)">
   <path d="M21.8262-21.875L77.0996-21.875Q82.959-21.875 86.0596-24.9756Q89.1602-28.0762 89.1602-33.8867L89.1602-73.8281Q89.1602-79.6387 86.0596-82.7393Q82.959-85.8398 77.0996-85.8398L21.8262-85.8398Q16.0645-85.8398 12.915-82.7393Q9.76562-79.6387 9.76562-73.8281L9.76562-33.8867Q9.76562-28.0762 12.8906-24.9756Q16.0156-21.875 21.8262-21.875ZM23.291-31.2988Q21.3867-31.2988 20.2881-32.3975Q19.1895-33.4961 19.1895-35.4492L19.1895-39.0625L26.6113-45.752Q27.6367-46.7285 28.6865-47.168Q29.7363-47.6074 30.957-47.6074Q33.4473-47.6074 35.5957-45.7031L41.7969-40.1367L57.1777-53.9062Q59.4727-55.8594 62.3047-55.8594Q63.5742-55.8594 64.917-55.3711Q66.2598-54.8828 67.334-53.8574L79.8828-41.9434L79.8828-35.4004Q79.8828-33.4961 78.7109-32.3975Q77.5391-31.2988 75.7324-31.2988ZM37.8418-53.4668Q34.375-53.4668 31.8848-55.957Q29.3945-58.4473 29.3945-61.9629Q29.3945-65.3809 31.8848-67.8955Q34.375-70.4102 37.8418-70.4102Q41.3086-70.4102 43.7988-67.8955Q46.2891-65.3809 46.2891-61.9629Q46.2891-58.4473 43.7988-55.957Q41.3086-53.4668 37.8418-53.4668ZM14.2578-3.22266L84.668-3.22266Q86.5234-3.22266 87.8418-4.54102Q89.1602-5.85938 89.1602-7.71484Q89.1602-9.61914 87.8418-10.9131Q86.5234-12.207 84.668-12.207L14.2578-12.207Q12.4023-12.207 11.084-10.9131Q9.76562-9.61914 9.76562-7.71484Q9.76562-5.85938 11.084-4.54102Q12.4023-3.22266 14.2578-3.22266ZM14.2578 15.4297L62.1582 15.4297Q64.0625 15.4297 65.3809 14.1357Q66.6992 12.8418 66.6992 10.9375Q66.6992 9.0332 65.3809 7.73926Q64.0625 6.44531 62.1582 6.44531L14.2578 6.44531Q12.4023 6.44531 11.084 7.73926Q9.76562 9.0332 9.76562 10.9375Q9.76562 12.8418 11.084 14.1357Q12.4023 15.4297 14.2578 15.4297Z"/>
  </g>
  <g id="Semibold-S" transform="matrix(1 0 0 1 1993.9 696)">
   <path d="M21.4355-22.0215L77.2461-22.0215Q83.0078-22.0215 85.9863-24.9756Q88.9648-27.9297 88.9648-33.5938L88.9648-73.6816Q88.9648-79.2969 85.9863-82.2754Q83.0078-85.2539 77.2461-85.2539L21.4355-85.2539Q15.7715-85.2539 12.7686-82.2754Q9.76562-79.2969 9.76562-73.6816L9.76562-33.5938Q9.76562-27.9297 12.7686-24.9756Q15.7715-22.0215 21.4355-22.0215ZM22.5586-30.3711Q20.459-30.3711 19.3115-31.543Q18.1641-32.7148 18.1641-34.8145L18.1641-37.6953L26.2207-45.1172Q27.2949-46.0938 28.3936-46.5332Q29.4922-46.9727 30.6152-46.9727Q33.2031-46.9727 35.3516-45.0684L41.6504-39.4043L57.2266-53.3203Q59.5215-55.3223 62.4023-55.3223Q63.7207-55.3223 65.0635-54.834Q66.4062-54.3457 67.4805-53.2715L80.7129-40.625L80.7129-34.7656Q80.7129-32.7148 79.4922-31.543Q78.2715-30.3711 76.3184-30.3711ZM36.9141-53.0273Q33.4473-53.0273 30.9814-55.4932Q28.5156-57.959 28.5156-61.4746Q28.5156-64.8926 30.9814-67.3828Q33.4473-69.873 36.9141-69.873Q40.3809-69.873 42.8467-67.3828Q45.3125-64.8926 45.3125-61.4746Q45.3125-57.959 42.8467-55.4932Q40.3809-53.0273 36.9141-53.0273ZM13.8184-3.56445L84.8633-3.56445Q86.5723-3.56445 87.7686-4.73633Q88.9648-5.9082 88.9648-7.61719Q88.9648-9.27734 87.7686-10.4736Q86.5723-11.6699 84.8633-11.6699L13.8184-11.6699Q12.1094-11.6699 10.9375-10.4736Q9.76562-9.27734 9.76562-7.61719Q9.76562-5.9082 10.9375-4.73633Q12.1094-3.56445 13.8184-3.56445ZM13.8184 14.8926L61.084 14.8926Q62.793 14.8926 63.9893 13.6963Q65.1855 12.5 65.1855 10.791Q65.1855 9.08203 63.9893 7.91016Q62.793 6.73828 61.084 6.73828L13.8184 6.73828Q12.1094 6.73828 10.9375 7.91016Q9.76562 9.08203 9.76562 10.791Q9.76562 12.5 10.9375 13.6963Q12.1094 14.8926 13.8184 14.8926Z"/>
  </g>
  <g id="Medium-S" transform="matrix(1 0 0 1 1697.29 696)">
   <path d="M21.1426-22.0703L77.3926-22.0703Q83.0566-22.0703 85.9131-24.9268Q88.7695-27.7832 88.7695-33.3496L88.7695-73.5352Q88.7695-79.1016 85.9131-81.9824Q83.0566-84.8633 77.3926-84.8633L21.1426-84.8633Q15.5762-84.8633 12.6709-81.9824Q9.76562-79.1016 9.76562-73.5352L9.76562-33.3496Q9.76562-27.7832 12.6465-24.9268Q15.5273-22.0703 21.1426-22.0703ZM21.9727-29.6875Q19.8242-29.6875 18.6279-30.9082Q17.4316-32.1289 17.4316-34.3262L17.4316-36.7188L25.9766-44.6289Q27.0508-45.6055 28.1494-46.0693Q29.248-46.5332 30.4199-46.5332Q32.959-46.5332 35.1562-44.5801L41.5039-38.8672L57.2266-52.9297Q59.5703-54.9316 62.5-54.9316Q63.7695-54.9316 65.1611-54.4434Q66.5527-53.9551 67.627-52.8809L81.3477-39.6484L81.3477-34.2773Q81.3477-32.1289 80.0781-30.9082Q78.8086-29.6875 76.7578-29.6875ZM36.2305-52.7344Q32.8125-52.7344 30.3467-55.1758Q27.8809-57.6172 27.8809-61.1328Q27.8809-64.502 30.3467-66.9922Q32.8125-69.4824 36.2305-69.4824Q39.6973-69.4824 42.1387-66.9922Q44.5801-64.502 44.5801-61.1328Q44.5801-57.6172 42.1387-55.1758Q39.6973-52.7344 36.2305-52.7344ZM13.4766-3.80859L85.0586-3.80859Q86.5723-3.80859 87.6709-4.88281Q88.7695-5.95703 88.7695-7.51953Q88.7695-9.08203 87.6709-10.1562Q86.5723-11.2305 85.0586-11.2305L13.4766-11.2305Q11.9141-11.2305 10.8398-10.1562Q9.76562-9.08203 9.76562-7.51953Q9.76562-5.95703 10.8398-4.88281Q11.9141-3.80859 13.4766-3.80859ZM13.4766 14.4531L60.3027 14.4531Q61.8164 14.4531 62.915 13.3789Q64.0137 12.3047 64.0137 10.6934Q64.0137 9.17969 62.915 8.08105Q61.8164 6.98242 60.3027 6.98242L13.4766 6.98242Q11.9141 6.98242 10.8398 8.08105Q9.76562 9.17969 9.76562 10.6934Q9.76562 12.3047 10.8398 13.3789Q11.9141 14.4531 13.4766 14.4531Z"/>
  </g>
  <g id="Regular-S" transform="matrix(1 0 0 1 1400.67 696)">
   <path d="M20.752-22.2168L77.5879-22.2168Q83.1055-22.2168 85.8398-24.9268Q88.5742-27.6367 88.5742-33.0566L88.5742-73.3887Q88.5742-78.8086 85.8398-81.543Q83.1055-84.2773 77.5879-84.2773L20.752-84.2773Q15.332-84.2773 12.5488-81.543Q9.76562-78.8086 9.76562-73.3887L9.76562-33.0566Q9.76562-27.6367 12.5244-24.9268Q15.2832-22.2168 20.752-22.2168ZM21.2402-28.8086Q18.9453-28.8086 17.6758-30.1025Q16.4062-31.3965 16.4062-33.7402L16.4062-35.4004L25.6348-43.9941Q26.709-44.9707 27.8564-45.4346Q29.0039-45.8984 30.127-45.8984Q32.7148-45.8984 34.9121-43.9453L41.3574-38.1348L57.2754-52.3926Q59.6191-54.3945 62.5977-54.3945Q63.916-54.3945 65.3076-53.9062Q66.6992-53.418 67.7734-52.3438L82.1777-38.3789L82.1777-33.6426Q82.1777-31.3965 80.8594-30.1025Q79.541-28.8086 77.3438-28.8086ZM35.3516-52.2949Q31.9336-52.2949 29.4922-54.7363Q27.0508-57.1777 27.0508-60.6445Q27.0508-64.0137 29.4922-66.4795Q31.9336-68.9453 35.3516-68.9453Q38.7695-68.9453 41.2109-66.4795Q43.6523-64.0137 43.6523-60.6445Q43.6523-57.1777 41.2109-54.7363Q38.7695-52.2949 35.3516-52.2949ZM13.0371-4.15039L85.2539-4.15039Q86.6211-4.15039 87.5977-5.10254Q88.5742-6.05469 88.5742-7.42188Q88.5742-8.78906 87.5977-9.74121Q86.6211-10.6934 85.2539-10.6934L13.0371-10.6934Q11.6699-10.6934 10.7178-9.74121Q9.76562-8.78906 9.76562-7.42188Q9.76562-6.05469 10.7178-5.10254Q11.6699-4.15039 13.0371-4.15039ZM13.0371 13.916L59.2285 13.916Q60.5957 13.916 61.5723 12.9639Q62.5488 12.0117 62.5488 10.5957Q62.5488 9.22852 61.5723 8.27637Q60.5957 7.32422 59.2285 7.32422L13.0371 7.32422Q11.6699 7.32422 10.7178 8.27637Q9.76562 9.22852 9.76562 10.5957Q9.76562 12.0117 10.7178 12.9639Q11.6699 13.916 13.0371 13.916Z"/>
  </g>
  <g id="Light-S" transform="matrix(1 0 0 1 1104.06 696)">
   <path d="M20.0684-22.5098L78.0762-22.5098Q83.2031-22.5098 85.791-25.0732Q88.3789-27.6367 88.3789-32.7148L88.3789-73.4375Q88.3789-78.5156 85.791-81.1035Q83.2031-83.6914 78.0762-83.6914L20.0684-83.6914Q14.9902-83.6914 12.3779-81.1035Q9.76562-78.5156 9.76562-73.4375L9.76562-32.7148Q9.76562-27.6367 12.3535-25.0732Q14.9414-22.5098 20.0684-22.5098ZM20.3613-27.6367Q17.7734-27.6367 16.3574-29.0771Q14.9414-30.5176 14.9414-33.1055L14.9414-34.668L25.2441-43.9941Q26.3672-44.9707 27.5391-45.4834Q28.7109-45.9961 29.834-45.9961Q32.373-45.9961 34.668-43.9453L41.0156-38.1836L57.0312-52.3438Q59.5215-54.4922 62.5-54.4922Q63.8672-54.4922 65.332-53.9795Q66.7969-53.4668 67.9199-52.2949L83.3496-37.793L83.3496-33.0078Q83.3496-30.5176 81.9092-29.0771Q80.4688-27.6367 77.9297-27.6367ZM34.375-52.3926Q30.957-52.3926 28.5645-54.8096Q26.1719-57.2266 26.1719-60.5957Q26.1719-63.9648 28.5645-66.3818Q30.957-68.7988 34.375-68.7988Q37.7441-68.7988 40.1367-66.3818Q42.5293-63.9648 42.5293-60.5957Q42.5293-57.2266 40.1367-54.8096Q37.7441-52.3926 34.375-52.3926ZM12.3047-4.58984L85.791-4.58984Q86.8652-4.58984 87.6221-5.32227Q88.3789-6.05469 88.3789-7.12891Q88.3789-8.20312 87.6221-8.95996Q86.8652-9.7168 85.791-9.7168L12.3047-9.7168Q11.2305-9.7168 10.498-8.95996Q9.76562-8.20312 9.76562-7.12891Q9.76562-6.05469 10.498-5.32227Q11.2305-4.58984 12.3047-4.58984ZM12.3047 13.3301L60.3027 13.3301Q61.3281 13.3301 62.085 12.5977Q62.8418 11.8652 62.8418 10.7422Q62.8418 9.66797 62.085 8.93555Q61.3281 8.20312 60.3027 8.20312L12.3047 8.20312Q11.2305 8.20312 10.498 8.93555Q9.76562 9.66797 9.76562 10.7422Q9.76562 11.8652 10.498 12.5977Q11.2305 13.3301 12.3047 13.3301Z"/>
  </g>
  <g id="Thin-S" transform="matrix(1 0 0 1 807.496 696)">
   <path d="M19.1406-22.9004L78.6621-22.9004Q83.3008-22.9004 85.6934-25.2686Q88.0859-27.6367 88.0859-32.2266L88.0859-73.5352Q88.0859-78.125 85.6934-80.5176Q83.3008-82.9102 78.6621-82.9102L19.1406-82.9102Q14.502-82.9102 12.1338-80.5176Q9.76562-78.125 9.76562-73.5352L9.76562-32.2266Q9.76562-27.5879 12.1582-25.2441Q14.5508-22.9004 19.1406-22.9004ZM19.1895-26.0742Q16.2598-26.0742 14.5996-27.71Q12.9395-29.3457 12.9395-32.2266L12.9395-33.6426L24.707-43.9941Q25.8789-45.0195 27.0996-45.5566Q28.3203-46.0938 29.4434-46.0938Q31.8848-46.0938 34.3262-43.8965L40.5273-38.2324L56.7383-52.3438Q59.4238-54.6875 62.4023-54.6875Q63.8672-54.6875 65.3809-54.0771Q66.8945-53.4668 68.1641-52.2949L84.9609-36.9629L84.9609-32.1777Q84.9609-29.3457 83.3008-27.71Q81.6406-26.0742 78.7109-26.0742ZM33.0566-52.4902Q29.7363-52.4902 27.3682-54.8584Q25-57.2266 25-60.5957Q25-63.8672 27.3682-66.2598Q29.7363-68.6523 33.0566-68.6523Q36.3281-68.6523 38.6963-66.2598Q41.0645-63.8672 41.0645-60.5957Q41.0645-57.2266 38.6963-54.8584Q36.3281-52.4902 33.0566-52.4902ZM11.3281-5.22461L86.4746-5.22461Q87.1582-5.22461 87.6221-5.66406Q88.0859-6.10352 88.0859-6.78711Q88.0859-7.4707 87.6221-7.91016Q87.1582-8.34961 86.4746-8.34961L11.3281-8.34961Q10.6445-8.34961 10.2051-7.91016Q9.76562-7.4707 9.76562-6.78711Q9.76562-6.10352 10.2051-5.66406Q10.6445-5.22461 11.3281-5.22461ZM11.3281 12.5L61.6699 12.5Q62.3535 12.5 62.793 12.0605Q63.2324 11.6211 63.2324 10.8887Q63.2324 10.2539 62.793 9.79004Q62.3535 9.32617 61.6699 9.32617L11.3281 9.32617Q10.6445 9.32617 10.2051 9.79004Q9.76562 10.2539 9.76562 10.8887Q9.76562 11.6211 10.2051 12.0605Q10.6445 12.5 11.3281 12.5Z"/>
  </g>
  <g id="Ultralight-S" transform="matrix(1 0 0 1 510.859 696)">
   <path d="M18.6523-23.0957L79.0039-23.0957Q83.3496-23.0957 85.6445-25.3662Q87.9395-27.6367 87.9395-31.9824L87.9395-73.584Q87.9395-77.8809 85.6445-80.2002Q83.3496-82.5195 79.0039-82.5195L18.6523-82.5195Q14.3066-82.5195 12.0361-80.2002Q9.76562-77.8809 9.76562-73.584L9.76562-31.9824Q9.76562-27.5879 12.0361-25.3418Q14.3066-23.0957 18.6523-23.0957ZM18.6035-25.2441Q15.4297-25.2441 13.6963-26.9775Q11.9629-28.7109 11.9629-31.7871L11.9629-33.1543L24.4629-43.9941Q25.6836-45.0195 26.8799-45.6055Q28.0762-46.1914 29.1992-46.1914Q31.6895-46.1914 34.1309-43.8965L40.2832-38.2812L56.5918-52.2949Q59.375-54.7363 62.3535-54.7363Q63.8184-54.7363 65.3809-54.126Q66.9434-53.5156 68.2617-52.2461L85.7422-36.5723L85.7422-31.7871Q85.7422-28.7109 84.0088-26.9775Q82.2754-25.2441 79.1016-25.2441ZM32.4219-52.5391Q29.0527-52.5391 26.7334-54.9072Q24.4141-57.2754 24.4141-60.5469Q24.4141-63.8184 26.7334-66.1865Q29.0527-68.5547 32.4219-68.5547Q35.6445-68.5547 37.9639-66.1865Q40.2832-63.8184 40.2832-60.5469Q40.2832-57.2754 37.9639-54.9072Q35.6445-52.5391 32.4219-52.5391ZM10.8398-5.51758L86.8652-5.51758Q87.3047-5.51758 87.6221-5.81055Q87.9395-6.10352 87.9395-6.5918Q87.9395-7.08008 87.6221-7.39746Q87.3047-7.71484 86.8652-7.71484L10.8398-7.71484Q10.3516-7.71484 10.0586-7.39746Q9.76562-7.08008 9.76562-6.5918Q9.76562-6.10352 10.0586-5.81055Q10.3516-5.51758 10.8398-5.51758ZM10.8398 12.1094L62.4023 12.1094Q62.8418 12.1094 63.1592 11.8164Q63.4766 11.5234 63.4766 10.9863Q63.4766 10.5469 63.1592 10.2295Q62.8418 9.91211 62.4023 9.91211L10.8398 9.91211Q10.3516 9.91211 10.0586 10.2295Q9.76562 10.5469 9.76562 10.9863Q9.76562 11.5234 10.0586 11.8164Q10.3516 12.1094 10.8398 12.1094Z"/>
  </g>
 </g>
</svg>
