<?xml version="1.0" encoding="UTF-8"?>
<!--Generator: Apple Native CoreSVG 175-->
<!DOCTYPE svg
PUBLIC "-//W3C//DTD SVG 1.1//EN"
       "http://www.w3.org/Graphics/SVG/1.1/DTD/svg11.dtd">
<svg version="1.1" xmlns="http://www.w3.org/2000/svg" xmlns:xlink="http://www.w3.org/1999/xlink" width="3300" height="2200">
 <!--glyph: "uni100370.medium", point size: 100.0, font version: "17.0d11e1", template writer version: "65.1"-->
 <g id="Notes">
  <rect height="2200" id="artboard" style="fill:white;opacity:1" width="3300" x="0" y="0"/>
  <line style="fill:none;stroke:black;opacity:1;stroke-width:0.5;" x1="263" x2="3036" y1="292" y2="292"/>
  <text style="stroke:none;fill:black;font-family:sans-serif;font-size:13;font-weight:bold;" transform="matrix(1 0 0 1 263 322)">Weight/Scale Variations</text>
  <text style="stroke:none;fill:black;font-family:sans-serif;font-size:13;text-anchor:middle;" transform="matrix(1 0 0 1 559.711 322)">Ultralight</text>
  <text style="stroke:none;fill:black;font-family:sans-serif;font-size:13;text-anchor:middle;" transform="matrix(1 0 0 1 856.422 322)">Thin</text>
  <text style="stroke:none;fill:black;font-family:sans-serif;font-size:13;text-anchor:middle;" transform="matrix(1 0 0 1 1153.13 322)">Light</text>
  <text style="stroke:none;fill:black;font-family:sans-serif;font-size:13;text-anchor:middle;" transform="matrix(1 0 0 1 1449.84 322)">Regular</text>
  <text style="stroke:none;fill:black;font-family:sans-serif;font-size:13;text-anchor:middle;" transform="matrix(1 0 0 1 1746.56 322)">Medium</text>
  <text style="stroke:none;fill:black;font-family:sans-serif;font-size:13;text-anchor:middle;" transform="matrix(1 0 0 1 2043.27 322)">Semibold</text>
  <text style="stroke:none;fill:black;font-family:sans-serif;font-size:13;text-anchor:middle;" transform="matrix(1 0 0 1 2339.98 322)">Bold</text>
  <text style="stroke:none;fill:black;font-family:sans-serif;font-size:13;text-anchor:middle;" transform="matrix(1 0 0 1 2636.69 322)">Heavy</text>
  <text style="stroke:none;fill:black;font-family:sans-serif;font-size:13;text-anchor:middle;" transform="matrix(1 0 0 1 2933.4 322)">Black</text>
  <line style="fill:none;stroke:black;opacity:1;stroke-width:0.5;" x1="263" x2="3036" y1="1903" y2="1903"/>
  <g transform="matrix(1 0 0 1 263 1933)">
   <path d="M9.24805 0.830078Q10.8691 0.830078 12.2949 0.214844Q13.7207-0.400391 14.8096-1.49414Q15.8984-2.58789 16.5186-4.01367Q17.1387-5.43945 17.1387-7.05078Q17.1387-8.66211 16.5186-10.0879Q15.8984-11.5137 14.8047-12.6074Q13.7109-13.7012 12.2852-14.3164Q10.8594-14.9316 9.23828-14.9316Q7.62695-14.9316 6.20117-14.3164Q4.77539-13.7012 3.69141-12.6074Q2.60742-11.5137 1.9873-10.0879Q1.36719-8.66211 1.36719-7.05078Q1.36719-5.43945 1.9873-4.01367Q2.60742-2.58789 3.69629-1.49414Q4.78516-0.400391 6.21094 0.214844Q7.63672 0.830078 9.24805 0.830078ZM9.24805-0.654297Q7.91992-0.654297 6.7627-1.14746Q5.60547-1.64062 4.73145-2.51953Q3.85742-3.39844 3.36426-4.56055Q2.87109-5.72266 2.87109-7.05078Q2.87109-8.37891 3.35938-9.54102Q3.84766-10.7031 4.72168-11.582Q5.5957-12.4609 6.75293-12.9541Q7.91016-13.4473 9.23828-13.4473Q10.5762-13.4473 11.7334-12.9541Q12.8906-12.4609 13.7695-11.582Q14.6484-10.7031 15.1465-9.54102Q15.6445-8.37891 15.6445-7.05078Q15.6445-5.72266 15.1514-4.56055Q14.6582-3.39844 13.7842-2.51953Q12.9102-1.64062 11.748-1.14746Q10.5859-0.654297 9.24805-0.654297ZM5.6543-7.05078Q5.6543-6.72852 5.85938-6.52832Q6.06445-6.32812 6.40625-6.32812L8.51562-6.32812L8.51562-4.20898Q8.51562-3.88672 8.71094-3.67676Q8.90625-3.4668 9.23828-3.4668Q9.56055-3.4668 9.77051-3.67676Q9.98047-3.88672 9.98047-4.20898L9.98047-6.32812L12.0898-6.32812Q12.4219-6.32812 12.627-6.52832Q12.832-6.72852 12.832-7.05078Q12.832-7.38281 12.627-7.58789Q12.4219-7.79297 12.0898-7.79297L9.98047-7.79297L9.98047-9.90234Q9.98047-10.2344 9.77051-10.4443Q9.56055-10.6543 9.23828-10.6543Q8.90625-10.6543 8.71094-10.4443Q8.51562-10.2344 8.51562-9.90234L8.51562-7.79297L6.40625-7.79297Q6.06445-7.79297 5.85938-7.58789Q5.6543-7.38281 5.6543-7.05078Z"/>
  </g>
  <g transform="matrix(1 0 0 1 281.867 1933)">
   <path d="M11.709 2.91016Q13.75 2.91016 15.5518 2.12891Q17.3535 1.34766 18.7305-0.0292969Q20.1074-1.40625 20.8887-3.20801Q21.6699-5.00977 21.6699-7.05078Q21.6699-9.0918 20.8887-10.8936Q20.1074-12.6953 18.7305-14.0723Q17.3535-15.4492 15.5469-16.2305Q13.7402-17.0117 11.6992-17.0117Q9.6582-17.0117 7.85645-16.2305Q6.05469-15.4492 4.68262-14.0723Q3.31055-12.6953 2.5293-10.8936Q1.74805-9.0918 1.74805-7.05078Q1.74805-5.00977 2.5293-3.20801Q3.31055-1.40625 4.6875-0.0292969Q6.06445 1.34766 7.86621 2.12891Q9.66797 2.91016 11.709 2.91016ZM11.709 1.25Q9.98047 1.25 8.47656 0.605469Q6.97266-0.0390625 5.83496-1.17676Q4.69727-2.31445 4.05762-3.81836Q3.41797-5.32227 3.41797-7.05078Q3.41797-8.7793 4.05762-10.2832Q4.69727-11.7871 5.83008-12.9297Q6.96289-14.0723 8.4668-14.7119Q9.9707-15.3516 11.6992-15.3516Q13.4277-15.3516 14.9316-14.7119Q16.4355-14.0723 17.5781-12.9297Q18.7207-11.7871 19.3652-10.2832Q20.0098-8.7793 20.0098-7.05078Q20.0098-5.32227 19.3701-3.81836Q18.7305-2.31445 17.5928-1.17676Q16.4551-0.0390625 14.9463 0.605469Q13.4375 1.25 11.709 1.25ZM7.17773-7.05078Q7.17773-6.69922 7.41211-6.47461Q7.64648-6.25 8.01758-6.25L10.8887-6.25L10.8887-3.36914Q10.8887-2.99805 11.1133-2.76855Q11.3379-2.53906 11.6895-2.53906Q12.0605-2.53906 12.29-2.76855Q12.5195-2.99805 12.5195-3.36914L12.5195-6.25L15.4004-6.25Q15.7715-6.25 16.001-6.47461Q16.2305-6.69922 16.2305-7.05078Q16.2305-7.42188 16.001-7.65137Q15.7715-7.88086 15.4004-7.88086L12.5195-7.88086L12.5195-10.752Q12.5195-11.1328 12.29-11.3623Q12.0605-11.5918 11.6895-11.5918Q11.3379-11.5918 11.1133-11.3574Q10.8887-11.123 10.8887-10.752L10.8887-7.88086L8.01758-7.88086Q7.63672-7.88086 7.40723-7.65137Q7.17773-7.42188 7.17773-7.05078Z"/>
  </g>
  <g transform="matrix(1 0 0 1 305.646 1933)">
   <path d="M14.9707 5.66406Q17.0605 5.66406 18.96 5.01465Q20.8594 4.36523 22.4512 3.19336Q24.043 2.02148 25.2197 0.429688Q26.3965-1.16211 27.0459-3.06641Q27.6953-4.9707 27.6953-7.05078Q27.6953-9.14062 27.0459-11.04Q26.3965-12.9395 25.2197-14.5312Q24.043-16.123 22.4512-17.2998Q20.8594-18.4766 18.9551-19.126Q17.0508-19.7754 14.9609-19.7754Q12.8711-19.7754 10.9717-19.126Q9.07227-18.4766 7.48535-17.2998Q5.89844-16.123 4.72168-14.5312Q3.54492-12.9395 2.90039-11.04Q2.25586-9.14062 2.25586-7.05078Q2.25586-4.9707 2.90527-3.06641Q3.55469-1.16211 4.72656 0.429688Q5.89844 2.02148 7.49023 3.19336Q9.08203 4.36523 10.9814 5.01465Q12.8809 5.66406 14.9707 5.66406ZM14.9707 3.84766Q13.1641 3.84766 11.5283 3.2959Q9.89258 2.74414 8.53516 1.74805Q7.17773 0.751953 6.17676-0.610352Q5.17578-1.97266 4.62891-3.6084Q4.08203-5.24414 4.08203-7.05078Q4.08203-8.86719 4.62891-10.5029Q5.17578-12.1387 6.17188-13.501Q7.16797-14.8633 8.52539-15.8594Q9.88281-16.8555 11.5186-17.4023Q13.1543-17.9492 14.9609-17.9492Q16.7773-17.9492 18.4131-17.4023Q20.0488-16.8555 21.4111-15.8594Q22.7734-14.8633 23.7695-13.501Q24.7656-12.1387 25.3174-10.5029Q25.8691-8.86719 25.8691-7.05078Q25.8789-5.24414 25.332-3.6084Q24.7852-1.97266 23.7842-0.610352Q22.7832 0.751953 21.4209 1.74805Q20.0586 2.74414 18.4229 3.2959Q16.7871 3.84766 14.9707 3.84766ZM9.19922-7.05078Q9.19922-6.66992 9.45801-6.4209Q9.7168-6.17188 10.1172-6.17188L14.0625-6.17188L14.0625-2.2168Q14.0625-1.81641 14.3115-1.55762Q14.5605-1.29883 14.9512-1.29883Q15.3516-1.29883 15.6104-1.55273Q15.8691-1.80664 15.8691-2.2168L15.8691-6.17188L19.8242-6.17188Q20.2246-6.17188 20.4785-6.4209Q20.7324-6.66992 20.7324-7.05078Q20.7324-7.46094 20.4785-7.71484Q20.2246-7.96875 19.8242-7.96875L15.8691-7.96875L15.8691-11.9141Q15.8691-12.3242 15.6104-12.583Q15.3516-12.8418 14.9512-12.8418Q14.5605-12.8418 14.3115-12.583Q14.0625-12.3242 14.0625-11.9141L14.0625-7.96875L10.1172-7.96875Q9.70703-7.96875 9.45312-7.71484Q9.19922-7.46094 9.19922-7.05078Z"/>
  </g>
  <text style="stroke:none;fill:black;font-family:sans-serif;font-size:13;font-weight:bold;" transform="matrix(1 0 0 1 263 1953)">Design Variations</text>
  <text style="stroke:none;fill:black;font-family:sans-serif;font-size:13;" transform="matrix(1 0 0 1 263 1971)">Symbols are supported in up to nine weights and three scales.</text>
  <text style="stroke:none;fill:black;font-family:sans-serif;font-size:13;" transform="matrix(1 0 0 1 263 1989)">For optimal layout with text and other symbols, vertically align</text>
  <text style="stroke:none;fill:black;font-family:sans-serif;font-size:13;" transform="matrix(1 0 0 1 263 2007)">symbols with the adjacent text.</text>
  <line style="fill:none;stroke:#00AEEF;stroke-width:0.5;opacity:1.0;" x1="776" x2="776" y1="1919" y2="1933"/>
  <g transform="matrix(1 0 0 1 776 1933)">
   <path d="M3.31055 0.15625Q3.70117 0.15625 3.91602-0.00976562Q4.13086-0.175781 4.26758-0.585938L5.52734-4.0332L11.2891-4.0332L12.5488-0.585938Q12.6855-0.175781 12.9004-0.00976562Q13.1152 0.15625 13.4961 0.15625Q13.8867 0.15625 14.1162-0.0585938Q14.3457-0.273438 14.3457-0.644531Q14.3457-0.869141 14.2383-1.17188L9.6582-13.3691Q9.48242-13.8184 9.17969-14.043Q8.87695-14.2676 8.4082-14.2676Q7.5-14.2676 7.17773-13.3789L2.59766-1.16211Q2.49023-0.859375 2.49023-0.634766Q2.49023-0.263672 2.70996-0.0537109Q2.92969 0.15625 3.31055 0.15625ZM6.00586-5.51758L8.37891-12.0898L8.42773-12.0898L10.8008-5.51758Z"/>
  </g>
  <line style="fill:none;stroke:#00AEEF;stroke-width:0.5;opacity:1.0;" x1="793.197" x2="793.197" y1="1919" y2="1933"/>
  <text style="stroke:none;fill:black;font-family:sans-serif;font-size:13;font-weight:bold;" transform="matrix(1 0 0 1 776 1953)">Margins</text>
  <text style="stroke:none;fill:black;font-family:sans-serif;font-size:13;" transform="matrix(1 0 0 1 776 1971)">Leading and trailing margins on the left and right side of each symbol</text>
  <text style="stroke:none;fill:black;font-family:sans-serif;font-size:13;" transform="matrix(1 0 0 1 776 1989)">can be adjusted by modifying the x-location of the margin guidelines.</text>
  <text style="stroke:none;fill:black;font-family:sans-serif;font-size:13;" transform="matrix(1 0 0 1 776 2007)">Modifications are automatically applied proportionally to all</text>
  <text style="stroke:none;fill:black;font-family:sans-serif;font-size:13;" transform="matrix(1 0 0 1 776 2025)">scales and weights.</text>
  <g transform="matrix(1 0 0 1 1289 1933)">
   <path d="M2.8418 1.86523L4.54102 3.57422Q5.18555 4.22852 5.90332 4.17969Q6.62109 4.13086 7.31445 3.35938L18.0078-8.42773L17.041-9.4043L6.42578 2.27539Q6.16211 2.57812 5.89355 2.61719Q5.625 2.65625 5.27344 2.30469L4.10156 1.14258Q3.75 0.791016 3.79395 0.522461Q3.83789 0.253906 4.14062-0.0195312L15.6152-10.8203L14.6387-11.7871L3.04688-0.898438Q2.30469-0.214844 2.25098 0.498047Q2.19727 1.21094 2.8418 1.86523ZM9.25781-16.3281Q8.94531-16.0254 8.90625-15.6348Q8.86719-15.2441 9.04297-14.9512Q9.21875-14.6777 9.55566-14.541Q9.89258-14.4043 10.3809-14.5215Q11.4746-14.7754 12.5977-14.7314Q13.7207-14.6875 14.7949-13.9844L14.209-12.5293Q13.9551-11.9043 14.0674-11.4404Q14.1797-10.9766 14.5801-10.5664L16.875-8.25195Q17.2363-7.88086 17.5781-7.82227Q17.9199-7.76367 18.3398-7.8418L19.4043-8.03711L20.0684-7.36328L20.0293-6.80664Q20-6.43555 20.1221-6.12305Q20.2441-5.81055 20.6055-5.44922L21.3672-4.70703Q21.7285-4.3457 22.1533-4.33105Q22.5781-4.31641 22.9297-4.66797L25.8398-7.58789Q26.1914-7.93945 26.1816-8.35449Q26.1719-8.76953 25.8105-9.13086L25.0391-9.89258Q24.6875-10.2539 24.3799-10.3857Q24.0723-10.5176 23.7109-10.4883L23.1348-10.4395L22.4902-11.0742L22.7344-12.1973Q22.832-12.6172 22.6953-12.9834Q22.5586-13.3496 22.1191-13.7891L19.9219-15.9766Q18.6719-17.2168 17.2607-17.8369Q15.8496-18.457 14.4189-18.4814Q12.9883-18.5059 11.665-17.959Q10.3418-17.4121 9.25781-16.3281ZM10.752-15.957Q11.6602-16.6211 12.7002-16.9043Q13.7402-17.1875 14.8047-17.085Q15.8691-16.9824 16.8701-16.5137Q17.8711-16.0449 18.7012-15.2051L21.1328-12.793Q21.3086-12.6172 21.3525-12.4512Q21.3965-12.2852 21.3379-12.0312L21.0156-10.5469L22.5195-9.0625L23.5059-9.12109Q23.6914-9.13086 23.7891-9.09668Q23.8867-9.0625 24.0332-8.91602L24.6094-8.33984L22.168-5.89844L21.5918-6.47461Q21.4453-6.62109 21.4062-6.71875Q21.3672-6.81641 21.377-7.01172L21.4453-7.98828L19.9512-9.47266L18.4277-9.21875Q18.1836-9.16992 18.042-9.2041Q17.9004-9.23828 17.7148-9.41406L15.7129-11.416Q15.5176-11.5918 15.4932-11.7529Q15.4688-11.9141 15.5859-12.1875L16.4648-14.2773Q15.293-15.3711 13.8281-15.791Q12.3633-16.2109 10.8398-15.7617Q10.7227-15.7324 10.6885-15.8057Q10.6543-15.8789 10.752-15.957Z"/>
  </g>
  <text style="stroke:none;fill:black;font-family:sans-serif;font-size:13;font-weight:bold;" transform="matrix(1 0 0 1 1289 1953)">Exporting</text>
  <text style="stroke:none;fill:black;font-family:sans-serif;font-size:13;" transform="matrix(1 0 0 1 1289 1971)">Symbols should be outlined when exporting to ensure the</text>
  <text style="stroke:none;fill:black;font-family:sans-serif;font-size:13;" transform="matrix(1 0 0 1 1289 1989)">design is preserved when submitting to Xcode.</text>
  <text id="template-version" style="stroke:none;fill:black;font-family:sans-serif;font-size:13;text-anchor:end;" transform="matrix(1 0 0 1 3036 1933)">Template v.3.0</text>
  <text style="stroke:none;fill:black;font-family:sans-serif;font-size:13;text-anchor:end;" transform="matrix(1 0 0 1 3036 1951)">Requires Xcode 13 or greater</text>
  <text id="descriptive-name" style="stroke:none;fill:black;font-family:sans-serif;font-size:13;text-anchor:end;" transform="matrix(1 0 0 1 3036 1969)">Generated from creditcard.fill</text>
  <text style="stroke:none;fill:black;font-family:sans-serif;font-size:13;text-anchor:end;" transform="matrix(1 0 0 1 3036 1987)">Typeset at 100 points</text>
  <text style="stroke:none;fill:black;font-family:sans-serif;font-size:13;" transform="matrix(1 0 0 1 263 726)">Small</text>
  <text style="stroke:none;fill:black;font-family:sans-serif;font-size:13;" transform="matrix(1 0 0 1 263 1156)">Medium</text>
  <text style="stroke:none;fill:black;font-family:sans-serif;font-size:13;" transform="matrix(1 0 0 1 263 1586)">Large</text>
 </g>
 <g id="Guides">
  <g id="H-reference" style="fill:#27AAE1;stroke:none;" transform="matrix(1 0 0 1 339 696)">
   <path d="M0.976562 0L3.66211 0L29.3457-67.1387L30.0293-67.1387L30.0293-70.459L28.125-70.459ZM11.6699-24.4629L46.9727-24.4629L46.2402-26.709L12.4512-26.709ZM55.127 0L57.7637 0L30.6152-70.459L29.4434-70.459L29.4434-67.1387Z"/>
  </g>
  <line id="Baseline-S" style="fill:none;stroke:#27AAE1;opacity:1;stroke-width:0.5;" x1="263" x2="3036" y1="696" y2="696"/>
  <line id="Capline-S" style="fill:none;stroke:#27AAE1;opacity:1;stroke-width:0.5;" x1="263" x2="3036" y1="625.541" y2="625.541"/>
  <g id="H-reference" style="fill:#27AAE1;stroke:none;" transform="matrix(1 0 0 1 339 1126)">
   <path d="M0.976562 0L3.66211 0L29.3457-67.1387L30.0293-67.1387L30.0293-70.459L28.125-70.459ZM11.6699-24.4629L46.9727-24.4629L46.2402-26.709L12.4512-26.709ZM55.127 0L57.7637 0L30.6152-70.459L29.4434-70.459L29.4434-67.1387Z"/>
  </g>
  <line id="Baseline-M" style="fill:none;stroke:#27AAE1;opacity:1;stroke-width:0.5;" x1="263" x2="3036" y1="1126" y2="1126"/>
  <line id="Capline-M" style="fill:none;stroke:#27AAE1;opacity:1;stroke-width:0.5;" x1="263" x2="3036" y1="1055.54" y2="1055.54"/>
  <g id="H-reference" style="fill:#27AAE1;stroke:none;" transform="matrix(1 0 0 1 339 1556)">
   <path d="M0.976562 0L3.66211 0L29.3457-67.1387L30.0293-67.1387L30.0293-70.459L28.125-70.459ZM11.6699-24.4629L46.9727-24.4629L46.2402-26.709L12.4512-26.709ZM55.127 0L57.7637 0L30.6152-70.459L29.4434-70.459L29.4434-67.1387Z"/>
  </g>
  <line id="Baseline-L" style="fill:none;stroke:#27AAE1;opacity:1;stroke-width:0.5;" x1="263" x2="3036" y1="1556" y2="1556"/>
  <line id="Capline-L" style="fill:none;stroke:#27AAE1;opacity:1;stroke-width:0.5;" x1="263" x2="3036" y1="1485.54" y2="1485.54"/>
  <line id="left-margin-Ultralight-S" style="fill:none;stroke:#00AEEF;stroke-width:0.5;opacity:1.0;" x1="506.415" x2="506.415" y1="600.785" y2="720.121"/>
  <line id="right-margin-Ultralight-S" style="fill:none;stroke:#00AEEF;stroke-width:0.5;opacity:1.0;" x1="613.007" x2="613.007" y1="600.785" y2="720.121"/>
  <line id="left-margin-Thin-S" style="fill:none;stroke:#00AEEF;stroke-width:0.5;opacity:1.0;" x1="802.736" x2="802.736" y1="600.785" y2="720.121"/>
  <line id="right-margin-Thin-S" style="fill:none;stroke:#00AEEF;stroke-width:0.5;opacity:1.0;" x1="910.109" x2="910.109" y1="600.785" y2="720.121"/>
  <line id="left-margin-Light-S" style="fill:none;stroke:#00AEEF;stroke-width:0.5;opacity:1.0;" x1="1098.69" x2="1098.69" y1="600.785" y2="720.121"/>
  <line id="right-margin-Light-S" style="fill:none;stroke:#00AEEF;stroke-width:0.5;opacity:1.0;" x1="1207.58" x2="1207.58" y1="600.785" y2="720.121"/>
  <line id="left-margin-Regular-S" style="fill:none;stroke:#00AEEF;stroke-width:0.5;opacity:1.0;" x1="1394.82" x2="1394.82" y1="600.785" y2="720.121"/>
  <line id="right-margin-Regular-S" style="fill:none;stroke:#00AEEF;stroke-width:0.5;opacity:1.0;" x1="1504.87" x2="1504.87" y1="600.785" y2="720.121"/>
  <line id="left-margin-Medium-S" style="fill:none;stroke:#00AEEF;stroke-width:0.5;opacity:1.0;" x1="1691.26" x2="1691.26" y1="600.785" y2="720.121"/>
  <line id="right-margin-Medium-S" style="fill:none;stroke:#00AEEF;stroke-width:0.5;opacity:1.0;" x1="1801.85" x2="1801.85" y1="600.785" y2="720.121"/>
  <line id="left-margin-Semibold-S" style="fill:none;stroke:#00AEEF;stroke-width:0.5;opacity:1.0;" x1="1987.75" x2="1987.75" y1="600.785" y2="720.121"/>
  <line id="right-margin-Semibold-S" style="fill:none;stroke:#00AEEF;stroke-width:0.5;opacity:1.0;" x1="2098.78" x2="2098.78" y1="600.785" y2="720.121"/>
  <line id="left-margin-Bold-S" style="fill:none;stroke:#00AEEF;stroke-width:0.5;opacity:1.0;" x1="2284.19" x2="2284.19" y1="600.785" y2="720.121"/>
  <line id="right-margin-Bold-S" style="fill:none;stroke:#00AEEF;stroke-width:0.5;opacity:1.0;" x1="2395.76" x2="2395.76" y1="600.785" y2="720.121"/>
  <line id="left-margin-Heavy-S" style="fill:none;stroke:#00AEEF;stroke-width:0.5;opacity:1.0;" x1="2580.51" x2="2580.51" y1="600.785" y2="720.121"/>
  <line id="right-margin-Heavy-S" style="fill:none;stroke:#00AEEF;stroke-width:0.5;opacity:1.0;" x1="2692.87" x2="2692.87" y1="600.785" y2="720.121"/>
  <line id="left-margin-Black-S" style="fill:none;stroke:#00AEEF;stroke-width:0.5;opacity:1.0;" x1="2876.86" x2="2876.86" y1="600.785" y2="720.121"/>
  <line id="right-margin-Black-S" style="fill:none;stroke:#00AEEF;stroke-width:0.5;opacity:1.0;" x1="2989.94" x2="2989.94" y1="600.785" y2="720.121"/>
  <line id="left-margin-Ultralight-M" style="fill:none;stroke:#00AEEF;stroke-width:0.5;opacity:1.0;" x1="491.816" x2="491.816" y1="1030.79" y2="1150.12"/>
  <line id="right-margin-Ultralight-M" style="fill:none;stroke:#00AEEF;stroke-width:0.5;opacity:1.0;" x1="627.607" x2="627.607" y1="1030.79" y2="1150.12"/>
  <line id="left-margin-Thin-M" style="fill:none;stroke:#00AEEF;stroke-width:0.5;opacity:1.0;" x1="788.087" x2="788.087" y1="1030.79" y2="1150.12"/>
  <line id="right-margin-Thin-M" style="fill:none;stroke:#00AEEF;stroke-width:0.5;opacity:1.0;" x1="924.757" x2="924.757" y1="1030.79" y2="1150.12"/>
  <line id="left-margin-Light-M" style="fill:none;stroke:#00AEEF;stroke-width:0.5;opacity:1.0;" x1="1083.94" x2="1083.94" y1="1030.79" y2="1150.12"/>
  <line id="right-margin-Light-M" style="fill:none;stroke:#00AEEF;stroke-width:0.5;opacity:1.0;" x1="1222.32" x2="1222.32" y1="1030.79" y2="1150.12"/>
  <line id="left-margin-Regular-M" style="fill:none;stroke:#00AEEF;stroke-width:0.5;opacity:1.0;" x1="1380.02" x2="1380.02" y1="1030.79" y2="1150.12"/>
  <line id="right-margin-Regular-M" style="fill:none;stroke:#00AEEF;stroke-width:0.5;opacity:1.0;" x1="1519.67" x2="1519.67" y1="1030.79" y2="1150.12"/>
  <line id="left-margin-Medium-M" style="fill:none;stroke:#00AEEF;stroke-width:0.5;opacity:1.0;" x1="1676.34" x2="1676.34" y1="1030.79" y2="1150.12"/>
  <line id="right-margin-Medium-M" style="fill:none;stroke:#00AEEF;stroke-width:0.5;opacity:1.0;" x1="1816.77" x2="1816.77" y1="1030.79" y2="1150.12"/>
  <line id="left-margin-Semibold-M" style="fill:none;stroke:#00AEEF;stroke-width:0.5;opacity:1.0;" x1="1972.76" x2="1972.76" y1="1030.79" y2="1150.12"/>
  <line id="right-margin-Semibold-M" style="fill:none;stroke:#00AEEF;stroke-width:0.5;opacity:1.0;" x1="2113.77" x2="2113.77" y1="1030.79" y2="1150.12"/>
  <line id="left-margin-Bold-M" style="fill:none;stroke:#00AEEF;stroke-width:0.5;opacity:1.0;" x1="2269.05" x2="2269.05" y1="1030.79" y2="1150.12"/>
  <line id="right-margin-Bold-M" style="fill:none;stroke:#00AEEF;stroke-width:0.5;opacity:1.0;" x1="2410.9" x2="2410.9" y1="1030.79" y2="1150.12"/>
  <line id="left-margin-Heavy-M" style="fill:none;stroke:#00AEEF;stroke-width:0.5;opacity:1.0;" x1="2565.2" x2="2565.2" y1="1030.79" y2="1150.12"/>
  <line id="right-margin-Heavy-M" style="fill:none;stroke:#00AEEF;stroke-width:0.5;opacity:1.0;" x1="2708.17" x2="2708.17" y1="1030.79" y2="1150.12"/>
  <line id="left-margin-Black-M" style="fill:none;stroke:#00AEEF;stroke-width:0.5;opacity:1.0;" x1="2861.4" x2="2861.4" y1="1030.79" y2="1150.12"/>
  <line id="right-margin-Black-M" style="fill:none;stroke:#00AEEF;stroke-width:0.5;opacity:1.0;" x1="3005.4" x2="3005.4" y1="1030.79" y2="1150.12"/>
  <line id="left-margin-Ultralight-L" style="fill:none;stroke:#00AEEF;stroke-width:0.5;opacity:1.0;" x1="472.309" x2="472.309" y1="1460.79" y2="1580.12"/>
  <line id="right-margin-Ultralight-L" style="fill:none;stroke:#00AEEF;stroke-width:0.5;opacity:1.0;" x1="647.113" x2="647.113" y1="1460.79" y2="1580.12"/>
  <line id="left-margin-Thin-L" style="fill:none;stroke:#00AEEF;stroke-width:0.5;opacity:1.0;" x1="768.532" x2="768.532" y1="1460.79" y2="1580.12"/>
  <line id="right-margin-Thin-L" style="fill:none;stroke:#00AEEF;stroke-width:0.5;opacity:1.0;" x1="944.313" x2="944.313" y1="1460.79" y2="1580.12"/>
  <line id="left-margin-Light-L" style="fill:none;stroke:#00AEEF;stroke-width:0.5;opacity:1.0;" x1="1064.29" x2="1064.29" y1="1460.79" y2="1580.12"/>
  <line id="right-margin-Light-L" style="fill:none;stroke:#00AEEF;stroke-width:0.5;opacity:1.0;" x1="1241.98" x2="1241.98" y1="1460.79" y2="1580.12"/>
  <line id="left-margin-Regular-L" style="fill:none;stroke:#00AEEF;stroke-width:0.5;opacity:1.0;" x1="1360.27" x2="1360.27" y1="1460.79" y2="1580.12"/>
  <line id="right-margin-Regular-L" style="fill:none;stroke:#00AEEF;stroke-width:0.5;opacity:1.0;" x1="1539.42" x2="1539.42" y1="1460.79" y2="1580.12"/>
  <line id="left-margin-Medium-L" style="fill:none;stroke:#00AEEF;stroke-width:0.5;opacity:1.0;" x1="1656.47" x2="1656.47" y1="1460.79" y2="1580.12"/>
  <line id="right-margin-Medium-L" style="fill:none;stroke:#00AEEF;stroke-width:0.5;opacity:1.0;" x1="1836.64" x2="1836.64" y1="1460.79" y2="1580.12"/>
  <line id="left-margin-Semibold-L" style="fill:none;stroke:#00AEEF;stroke-width:0.5;opacity:1.0;" x1="1952.76" x2="1952.76" y1="1460.79" y2="1580.12"/>
  <line id="right-margin-Semibold-L" style="fill:none;stroke:#00AEEF;stroke-width:0.5;opacity:1.0;" x1="2133.77" x2="2133.77" y1="1460.79" y2="1580.12"/>
  <line id="left-margin-Bold-L" style="fill:none;stroke:#00AEEF;stroke-width:0.5;opacity:1.0;" x1="2248.94" x2="2248.94" y1="1460.79" y2="1580.12"/>
  <line id="right-margin-Bold-L" style="fill:none;stroke:#00AEEF;stroke-width:0.5;opacity:1.0;" x1="2431.02" x2="2431.02" y1="1460.79" y2="1580.12"/>
  <line id="left-margin-Heavy-L" style="fill:none;stroke:#00AEEF;stroke-width:0.5;opacity:1.0;" x1="2544.89" x2="2544.89" y1="1460.79" y2="1580.12"/>
  <line id="right-margin-Heavy-L" style="fill:none;stroke:#00AEEF;stroke-width:0.5;opacity:1.0;" x1="2728.49" x2="2728.49" y1="1460.79" y2="1580.12"/>
  <line id="left-margin-Black-L" style="fill:none;stroke:#00AEEF;stroke-width:0.5;opacity:1.0;" x1="2840.92" x2="2840.92" y1="1460.79" y2="1580.12"/>
  <line id="right-margin-Black-L" style="fill:none;stroke:#00AEEF;stroke-width:0.5;opacity:1.0;" x1="3025.88" x2="3025.88" y1="1460.79" y2="1580.12"/>
 </g>
 <g id="Symbols">
  <g id="Black-L" transform="matrix(1 0 0 1 2840.92 1556)">
   <path d="M44.0918 0.0488281Q41.3574 0.0488281 39.6484-1.63574Q37.9395-3.32031 37.9395-5.95703L37.9395-17.627Q37.9395-20.3125 39.6484-21.9971Q41.3574-23.6816 44.0918-23.6816L59.5703-23.6816Q62.3047-23.6816 64.0137-21.9971Q65.7227-20.3125 65.7227-17.627L65.7227-5.95703Q65.7227-3.32031 64.0137-1.63574Q62.3047 0.0488281 59.5703 0.0488281ZM16.0645-47.1191L16.0645-63.3301L168.896-63.3301L168.896-47.1191ZM39.9902 21.9238L144.971 21.9238Q156.396 21.9238 162.646 15.6982Q168.896 9.47266 168.896-1.9043L168.896-68.457Q168.896-79.8828 162.646-86.084Q156.396-92.2852 144.971-92.2852L39.9902-92.2852Q28.5645-92.2852 22.3145-86.084Q16.0645-79.8828 16.0645-68.457L16.0645-1.9043Q16.0645 9.47266 22.3145 15.6982Q28.5645 21.9238 39.9902 21.9238Z"/>
  </g>
  <g id="Heavy-L" transform="matrix(1 0 0 1 2544.89 1556)">
   <path d="M43.457-0.244141Q40.7227-0.244141 39.0137-1.92871Q37.3047-3.61328 37.3047-6.29883L37.3047-17.9688Q37.3047-20.6055 39.0137-22.3145Q40.7227-24.0234 43.457-24.0234L58.9355-24.0234Q61.6699-24.0234 63.3789-22.3145Q65.0879-20.6055 65.0879-17.9688L65.0879-6.29883Q65.0879-3.61328 63.3789-1.92871Q61.6699-0.244141 58.9355-0.244141ZM16.0645-47.7051L16.0645-63.4277L167.529-63.4277L167.529-47.7051ZM38.8184 20.9961L144.775 20.9961Q155.713 20.9961 161.621 15.1123Q167.529 9.22852 167.529-1.66016L167.529-68.6523Q167.529-79.5898 161.621-85.4492Q155.713-91.3086 144.775-91.3086L38.8184-91.3086Q27.8809-91.3086 21.9727-85.4736Q16.0645-79.6387 16.0645-68.6523L16.0645-1.66016Q16.0645 9.22852 21.9727 15.1123Q27.8809 20.9961 38.8184 20.9961Z"/>
  </g>
  <g id="Bold-L" transform="matrix(1 0 0 1 2248.94 1556)">
   <path d="M42.7734-0.634766Q40.0391-0.634766 38.3301-2.31934Q36.6211-4.00391 36.6211-6.64062L36.6211-18.3105Q36.6211-20.9961 38.3301-22.6807Q40.0391-24.3652 42.7734-24.3652L58.252-24.3652Q60.9863-24.3652 62.6953-22.6807Q64.4043-20.9961 64.4043-18.3105L64.4043-6.64062Q64.4043-4.00391 62.6953-2.31934Q60.9863-0.634766 58.252-0.634766ZM16.0645-48.3887L16.0645-63.5742L166.016-63.5742L166.016-48.3887ZM37.5488 19.9219L144.531 19.9219Q154.98 19.9219 160.498 14.4287Q166.016 8.93555 166.016-1.41602L166.016-68.9453Q166.016-79.2969 160.498-84.79Q154.98-90.2832 144.531-90.2832L37.5488-90.2832Q27.0996-90.2832 21.582-84.8145Q16.0645-79.3457 16.0645-68.9453L16.0645-1.41602Q16.0645 8.98438 21.582 14.4531Q27.0996 19.9219 37.5488 19.9219Z"/>
  </g>
  <g id="Semibold-L" transform="matrix(1 0 0 1 1952.76 1556)">
   <path d="M42.2852-0.830078Q39.502-0.830078 37.793-2.51465Q36.084-4.19922 36.084-6.88477L36.084-18.5547Q36.084-21.1914 37.793-22.9004Q39.502-24.6094 42.2852-24.6094L57.7148-24.6094Q60.498-24.6094 62.207-22.9004Q63.916-21.1914 63.916-18.5547L63.916-6.88477Q63.916-4.19922 62.207-2.51465Q60.498-0.830078 57.7148-0.830078ZM16.0645-48.8281L16.0645-63.6719L164.941-63.6719L164.941-48.8281ZM36.6211 19.1895L144.336 19.1895Q154.443 19.1895 159.692 13.9648Q164.941 8.74023 164.941-1.2207L164.941-69.0918Q164.941-79.1016 159.692-84.3018Q154.443-89.502 144.336-89.502L36.6211-89.502Q26.5625-89.502 21.3135-84.3018Q16.0645-79.1016 16.0645-69.0918L16.0645-1.2207Q16.0645 8.78906 21.3135 13.9893Q26.5625 19.1895 36.6211 19.1895Z"/>
  </g>
  <g id="Medium-L" transform="matrix(1 0 0 1 1656.47 1556)">
   <path d="M41.9434-1.02539Q39.1602-1.02539 37.4512-2.70996Q35.7422-4.39453 35.7422-7.08008L35.7422-18.75Q35.7422-21.3867 37.4512-23.0957Q39.1602-24.8047 41.9434-24.8047L57.373-24.8047Q60.1562-24.8047 61.8652-23.0957Q63.5742-21.3867 63.5742-18.75L63.5742-7.08008Q63.5742-4.39453 61.8652-2.70996Q60.1562-1.02539 57.373-1.02539ZM16.0645-49.2188L16.0645-63.7207L164.111-63.7207L164.111-49.2188ZM35.9375 18.6523L144.189 18.6523Q154.053 18.6523 159.082 13.623Q164.111 8.59375 164.111-1.12305L164.111-69.2383Q164.111-78.9062 159.082-83.9355Q154.053-88.9648 144.189-88.9648L35.9375-88.9648Q26.1719-88.9648 21.1182-83.96Q16.0645-78.9551 16.0645-69.2383L16.0645-1.12305Q16.0645 8.64258 21.1182 13.6475Q26.1719 18.6523 35.9375 18.6523Z"/>
  </g>
  <g id="Regular-L" transform="matrix(1 0 0 1 1360.27 1556)">
   <path d="M41.4551-1.26953Q38.6719-1.26953 36.9629-2.9541Q35.2539-4.63867 35.2539-7.32422L35.2539-18.9941Q35.2539-21.6309 36.9629-23.3398Q38.6719-25.0488 41.4551-25.0488L56.8848-25.0488Q59.668-25.0488 61.377-23.3398Q63.0859-21.6309 63.0859-18.9941L63.0859-7.32422Q63.0859-4.63867 61.377-2.9541Q59.668-1.26953 56.8848-1.26953ZM16.0645-49.6582L16.0645-63.8184L163.086-63.8184L163.086-49.6582ZM35.0586 17.9199L144.043 17.9199Q153.516 17.9199 158.301 13.1592Q163.086 8.39844 163.086-0.927734L163.086-69.3848Q163.086-78.7109 158.301-83.4717Q153.516-88.2324 144.043-88.2324L35.0586-88.2324Q25.6348-88.2324 20.8496-83.4961Q16.0645-78.7598 16.0645-69.3848L16.0645-0.927734Q16.0645 8.44727 20.8496 13.1836Q25.6348 17.9199 35.0586 17.9199Z"/>
  </g>
  <g id="Light-L" transform="matrix(1 0 0 1 1064.29 1556)">
   <path d="M40.918-1.70898Q38.1348-1.70898 36.4258-3.39355Q34.7168-5.07812 34.7168-7.76367L34.7168-19.4824Q34.7168-22.1191 36.4258-23.8037Q38.1348-25.4883 40.918-25.4883L56.3477-25.4883Q59.1309-25.4883 60.8398-23.8037Q62.5488-22.1191 62.5488-19.4824L62.5488-7.76367Q62.5488-5.07812 60.8398-3.39355Q59.1309-1.70898 56.3477-1.70898ZM16.0645-50.0977L16.0645-64.1113L161.621-64.1113L161.621-50.0977ZM34.0332 16.9434L143.652 16.9434Q152.539 16.9434 157.08 12.3779Q161.621 7.8125 161.621-0.976562L161.621-69.3359Q161.621-78.0762 157.08-82.6416Q152.539-87.207 143.652-87.207L34.0332-87.207Q25.1465-87.207 20.6055-82.6904Q16.0645-78.1738 16.0645-69.3359L16.0645-0.976562Q16.0645 7.91016 20.6055 12.4268Q25.1465 16.9434 34.0332 16.9434Z"/>
  </g>
  <g id="Thin-L" transform="matrix(1 0 0 1 768.532 1556)">
   <path d="M40.1367-2.29492Q37.3535-2.29492 35.6445-4.00391Q33.9355-5.71289 33.9355-8.34961L33.9355-20.0684Q33.9355-22.7051 35.6445-24.4141Q37.3535-26.123 40.1367-26.123L55.5664-26.123Q58.3496-26.123 60.0586-24.4141Q61.7676-22.7051 61.7676-20.0684L61.7676-8.34961Q61.7676-5.71289 60.0586-4.00391Q58.3496-2.29492 55.5664-2.29492ZM16.0645-50.7324L16.0645-64.4531L159.717-64.4531L159.717-50.7324ZM32.666 15.5762L143.115 15.5762Q151.27 15.5762 155.493 11.3037Q159.717 7.03125 159.717-0.976562L159.717-69.2383Q159.717-77.2461 155.493-81.5186Q151.27-85.791 143.115-85.791L32.666-85.791Q24.5117-85.791 20.2881-81.5918Q16.0645-77.3926 16.0645-69.2383L16.0645-0.976562Q16.0645 7.12891 20.2881 11.3525Q24.5117 15.5762 32.666 15.5762Z"/>
  </g>
  <g id="Ultralight-L" transform="matrix(1 0 0 1 472.309 1556)">
   <path d="M39.7949-2.58789Q37.0117-2.58789 35.3027-4.29688Q33.5938-6.00586 33.5938-8.64258L33.5938-20.4102Q33.5938-23.0469 35.3027-24.7314Q37.0117-26.416 39.7949-26.416L55.2246-26.416Q58.0078-26.416 59.7168-24.7314Q61.4258-23.0469 61.4258-20.4102L61.4258-8.64258Q61.4258-6.00586 59.7168-4.29688Q58.0078-2.58789 55.2246-2.58789ZM16.0645-51.0254L16.0645-64.6484L158.74-64.6484L158.74-51.0254ZM31.9824 14.9414L142.822 14.9414Q150.586 14.9414 154.663 10.791Q158.74 6.64062 158.74-1.02539L158.74-69.1895Q158.74-76.8555 154.663-80.9814Q150.586-85.1074 142.822-85.1074L31.9824-85.1074Q24.1699-85.1074 20.1172-81.0547Q16.0645-77.002 16.0645-69.1895L16.0645-1.02539Q16.0645 6.78711 20.1172 10.8643Q24.1699 14.9414 31.9824 14.9414Z"/>
  </g>
  <g id="Black-M" transform="matrix(1 0 0 1 2861.4 1126)">
   <path d="M34.5215-7.76367Q32.373-7.76367 31.0547-9.08203Q29.7363-10.4004 29.7363-12.4512L29.7363-21.4844Q29.7363-23.5352 31.0547-24.8535Q32.373-26.1719 34.5215-26.1719L46.5332-26.1719Q48.6816-26.1719 50-24.8535Q51.3184-23.5352 51.3184-21.4844L51.3184-12.4512Q51.3184-10.4004 50-9.08203Q48.6816-7.76367 46.5332-7.76367ZM12.4512-44.0918L12.4512-57.0312L131.543-57.0312L131.543-44.0918ZM31.5918 9.52148L112.402 9.52148Q121.484 9.52148 126.514 4.49219Q131.543-0.537109 131.543-9.61914L131.543-60.791Q131.543-69.8242 126.514-74.8779Q121.484-79.9316 112.402-79.9316L31.5918-79.9316Q22.5586-79.9316 17.5049-74.8779Q12.4512-69.8242 12.4512-60.791L12.4512-9.61914Q12.4512-0.537109 17.5049 4.49219Q22.5586 9.52148 31.5918 9.52148Z"/>
  </g>
  <g id="Heavy-M" transform="matrix(1 0 0 1 2565.2 1126)">
   <path d="M34.0332-7.95898Q31.8848-7.95898 30.5664-9.27734Q29.248-10.5957 29.248-12.6465L29.248-21.6797Q29.248-23.7305 30.5664-25.0488Q31.8848-26.3672 34.0332-26.3672L46.0449-26.3672Q48.1934-26.3672 49.5117-25.0488Q50.8301-23.7305 50.8301-21.6797L50.8301-12.6465Q50.8301-10.5957 49.5117-9.27734Q48.1934-7.95898 46.0449-7.95898ZM12.4512-44.5801L12.4512-57.0801L130.518-57.0801L130.518-44.5801ZM30.7129 8.78906L112.256 8.78906Q121.045 8.78906 125.781 4.05273Q130.518-0.683594 130.518-9.375L130.518-61.0352Q130.518-69.6777 125.781-74.4385Q121.045-79.1992 112.256-79.1992L30.7129-79.1992Q21.9727-79.1992 17.2119-74.4629Q12.4512-69.7266 12.4512-61.0352L12.4512-9.375Q12.4512-0.683594 17.2119 4.05273Q21.9727 8.78906 30.7129 8.78906Z"/>
  </g>
  <g id="Bold-M" transform="matrix(1 0 0 1 2269.05 1126)">
   <path d="M33.4961-8.20312Q31.3477-8.20312 30.0293-9.52148Q28.7109-10.8398 28.7109-12.8906L28.7109-21.9238Q28.7109-24.0234 30.0293-25.3174Q31.3477-26.6113 33.4961-26.6113L45.459-26.6113Q47.6074-26.6113 48.9258-25.3174Q50.2441-24.0234 50.2441-21.9238L50.2441-12.8906Q50.2441-10.8398 48.9258-9.52148Q47.6074-8.20312 45.459-8.20312ZM12.4512-45.1172L12.4512-57.1289L129.395-57.1289L129.395-45.1172ZM29.6875 8.00781L112.158 8.00781Q120.508 8.00781 124.951 3.58887Q129.395-0.830078 129.395-9.13086L129.395-61.2793Q129.395-69.5801 124.951-73.999Q120.508-78.418 112.158-78.418L29.6875-78.418Q21.3379-78.418 16.8945-73.999Q12.4512-69.5801 12.4512-61.2793L12.4512-9.13086Q12.4512-0.830078 16.8945 3.58887Q21.3379 8.00781 29.6875 8.00781Z"/>
  </g>
  <g id="Semibold-M" transform="matrix(1 0 0 1 1972.76 1126)">
   <path d="M33.1055-8.34961Q30.957-8.34961 29.6387-9.66797Q28.3203-10.9863 28.3203-13.0371L28.3203-22.0703Q28.3203-24.1699 29.6387-25.4639Q30.957-26.7578 33.1055-26.7578L45.0684-26.7578Q47.2168-26.7578 48.5352-25.4639Q49.8535-24.1699 49.8535-22.0703L49.8535-13.0371Q49.8535-10.9863 48.5352-9.66797Q47.2168-8.34961 45.0684-8.34961ZM12.4512-45.5078L12.4512-57.1777L128.564-57.1777L128.564-45.5078ZM29.0039 7.4707L112.012 7.4707Q120.166 7.4707 124.365 3.27148Q128.564-0.927734 128.564-8.93555L128.564-61.4746Q128.564-69.4336 124.365-73.6572Q120.166-77.8809 112.012-77.8809L29.0039-77.8809Q20.8984-77.8809 16.6748-73.6816Q12.4512-69.4824 12.4512-61.4746L12.4512-8.93555Q12.4512-0.927734 16.6748 3.27148Q20.8984 7.4707 29.0039 7.4707Z"/>
  </g>
  <g id="Medium-M" transform="matrix(1 0 0 1 1676.34 1126)">
   <path d="M32.8125-8.49609Q30.6641-8.49609 29.3457-9.81445Q28.0273-11.1328 28.0273-13.1836L28.0273-22.2168Q28.0273-24.3164 29.3457-25.6104Q30.6641-26.9043 32.8125-26.9043L44.7754-26.9043Q46.9238-26.9043 48.2422-25.6104Q49.5605-24.3164 49.5605-22.2168L49.5605-13.1836Q49.5605-11.1328 48.2422-9.81445Q46.9238-8.49609 44.7754-8.49609ZM12.4512-45.752L12.4512-57.1777L127.979-57.1777L127.979-45.752ZM28.4668 7.03125L111.963 7.03125Q119.873 7.03125 123.926 3.02734Q127.979-0.976562 127.979-8.78906L127.979-61.5723Q127.979-69.3848 123.926-73.4131Q119.873-77.4414 111.963-77.4414L28.4668-77.4414Q20.5566-77.4414 16.5039-73.4375Q12.4512-69.4336 12.4512-61.5723L12.4512-8.78906Q12.4512-0.976562 16.5039 3.02734Q20.5566 7.03125 28.4668 7.03125Z"/>
  </g>
  <g id="Regular-M" transform="matrix(1 0 0 1 1380.02 1126)">
   <path d="M32.4219-8.64258Q30.2734-8.64258 28.9551-9.96094Q27.6367-11.2793 27.6367-13.3301L27.6367-22.3633Q27.6367-24.4629 28.9551-25.7568Q30.2734-27.0508 32.4219-27.0508L44.3848-27.0508Q46.5332-27.0508 47.8516-25.7568Q49.1699-24.4629 49.1699-22.3633L49.1699-13.3301Q49.1699-11.2793 47.8516-9.96094Q46.5332-8.64258 44.3848-8.64258ZM12.4512-46.1426L12.4512-57.2266L127.197-57.2266L127.197-46.1426ZM27.7832 6.49414L111.865 6.49414Q119.531 6.49414 123.364 2.70996Q127.197-1.07422 127.197-8.59375L127.197-61.7676Q127.197-69.2871 123.364-73.0957Q119.531-76.9043 111.865-76.9043L27.7832-76.9043Q20.1172-76.9043 16.2842-73.1201Q12.4512-69.3359 12.4512-61.7676L12.4512-8.59375Q12.4512-1.07422 16.2842 2.70996Q20.1172 6.49414 27.7832 6.49414Z"/>
  </g>
  <g id="Light-M" transform="matrix(1 0 0 1 1083.94 1126)">
   <path d="M31.9336-9.0332Q29.7852-9.0332 28.4668-10.3516Q27.1484-11.6699 27.1484-13.7207L27.1484-22.8027Q27.1484-24.8535 28.4668-26.1719Q29.7852-27.4902 31.9336-27.4902L43.8965-27.4902Q46.0449-27.4902 47.3633-26.1719Q48.6816-24.8535 48.6816-22.8027L48.6816-13.7207Q48.6816-11.6699 47.3633-10.3516Q46.0449-9.0332 43.8965-9.0332ZM12.4512-46.5332L12.4512-57.4707L125.928-57.4707L125.928-46.5332ZM26.8555 5.61523L111.523 5.61523Q118.652 5.61523 122.29 2.00195Q125.928-1.61133 125.928-8.64258L125.928-61.6699Q125.928-68.75 122.29-72.3633Q118.652-75.9766 111.523-75.9766L26.8555-75.9766Q19.6777-75.9766 16.0645-72.3877Q12.4512-68.7988 12.4512-61.6699L12.4512-8.64258Q12.4512-1.5625 16.0645 2.02637Q19.6777 5.61523 26.8555 5.61523Z"/>
  </g>
  <g id="Thin-M" transform="matrix(1 0 0 1 788.087 1126)">
   <path d="M31.25-9.57031Q29.1016-9.57031 27.7832-10.8887Q26.4648-12.207 26.4648-14.2578L26.4648-23.3398Q26.4648-25.3906 27.7832-26.709Q29.1016-28.0273 31.25-28.0273L43.2129-28.0273Q45.3613-28.0273 46.7041-26.709Q48.0469-25.3906 48.0469-23.3398L48.0469-14.2578Q48.0469-12.207 46.7041-10.8887Q45.3613-9.57031 43.2129-9.57031ZM12.4512-47.0703L12.4512-57.8125L124.219-57.8125L124.219-47.0703ZM25.5859 4.44336L111.035 4.44336Q117.48 4.44336 120.85 1.07422Q124.219-2.29492 124.219-8.69141L124.219-61.5723Q124.219-67.9688 120.85-71.3379Q117.48-74.707 111.035-74.707L25.5859-74.707Q19.1406-74.707 15.7959-71.3867Q12.4512-68.0664 12.4512-61.5723L12.4512-8.69141Q12.4512-2.24609 15.7959 1.09863Q19.1406 4.44336 25.5859 4.44336Z"/>
  </g>
  <g id="Ultralight-M" transform="matrix(1 0 0 1 491.816 1126)">
   <path d="M30.9082-9.86328Q28.7598-9.86328 27.4414-11.1572Q26.123-12.4512 26.123-14.502L26.123-23.6328Q26.123-25.6836 27.4414-27.002Q28.7598-28.3203 30.9082-28.3203L42.8711-28.3203Q45.0195-28.3203 46.3623-27.002Q47.7051-25.6836 47.7051-23.6328L47.7051-14.502Q47.7051-12.4512 46.3623-11.1572Q45.0195-9.86328 42.8711-9.86328ZM12.4512-47.3633L12.4512-57.959L123.34-57.959L123.34-47.3633ZM24.9512 3.80859L110.791 3.80859Q116.895 3.80859 120.117 0.561523Q123.34-2.68555 123.34-8.74023L123.34-61.5234Q123.34-67.627 120.117-70.8496Q116.895-74.0723 110.791-74.0723L24.9512-74.0723Q18.8477-74.0723 15.6494-70.8984Q12.4512-67.7246 12.4512-61.5234L12.4512-8.74023Q12.4512-2.58789 15.6494 0.610352Q18.8477 3.80859 24.9512 3.80859Z"/>
  </g>
  <g id="Black-S" transform="matrix(1 0 0 1 2876.86 696)">
   <path d="M27.1973-13.6719Q25.5371-13.6719 24.4873-14.6973Q23.4375-15.7227 23.4375-17.334L23.4375-24.4141Q23.4375-26.0254 24.4873-27.0508Q25.5371-28.0762 27.1973-28.0762L36.5723-28.0762Q38.2812-28.0762 39.3066-27.0508Q40.332-26.0254 40.332-24.4141L40.332-17.334Q40.332-15.7227 39.3066-14.6973Q38.2812-13.6719 36.5723-13.6719ZM9.76562-42.041L9.76562-52.2949L103.32-52.2949L103.32-42.041ZM25 0L88.0859 0Q95.2637 0 99.292-4.02832Q103.32-8.05664 103.32-15.2344L103.32-55.1758Q103.32-62.3535 99.292-66.3818Q95.2637-70.4102 88.0859-70.4102L25-70.4102Q17.8223-70.4102 13.7939-66.3818Q9.76562-62.3535 9.76562-55.1758L9.76562-15.2344Q9.76562-8.05664 13.7939-4.02832Q17.8223 0 25 0Z"/>
  </g>
  <g id="Heavy-S" transform="matrix(1 0 0 1 2580.51 696)">
   <path d="M26.8066-13.8184Q25.1465-13.8184 24.0967-14.8438Q23.0469-15.8691 23.0469-17.4805L23.0469-24.5605Q23.0469-26.1719 24.0967-27.1973Q25.1465-28.2227 26.8066-28.2227L36.1816-28.2227Q37.8906-28.2227 38.916-27.1973Q39.9414-26.1719 39.9414-24.5605L39.9414-17.4805Q39.9414-15.8691 38.916-14.8438Q37.8906-13.8184 36.1816-13.8184ZM9.76562-42.3828L9.76562-52.2949L102.588-52.2949L102.588-42.3828ZM24.3652-0.488281L88.0371-0.488281Q94.9707-0.488281 98.7793-4.29688Q102.588-8.10547 102.588-15.0391L102.588-55.3711Q102.588-62.3047 98.7793-66.1133Q94.9707-69.9219 88.0371-69.9219L24.3652-69.9219Q17.3828-69.9219 13.5742-66.1133Q9.76562-62.3047 9.76562-55.3711L9.76562-15.0391Q9.76562-8.10547 13.5742-4.29688Q17.3828-0.488281 24.3652-0.488281Z"/>
  </g>
  <g id="Bold-S" transform="matrix(1 0 0 1 2284.19 696)">
   <path d="M26.416-13.9648Q24.7559-13.9648 23.7061-14.9902Q22.6562-16.0156 22.6562-17.627L22.6562-24.707Q22.6562-26.3184 23.7061-27.3438Q24.7559-28.3691 26.416-28.3691L35.791-28.3691Q37.5-28.3691 38.5254-27.3438Q39.5508-26.3184 39.5508-24.707L39.5508-17.627Q39.5508-16.0156 38.5254-14.9902Q37.5-13.9648 35.791-13.9648ZM9.76562-42.8223L9.76562-52.3438L101.807-52.3438L101.807-42.8223ZM23.6328-1.07422L87.9883-1.07422Q94.6777-1.07422 98.2422-4.61426Q101.807-8.1543 101.807-14.7949L101.807-55.6152Q101.807-62.3047 98.2422-65.8447Q94.6777-69.3848 87.9883-69.3848L23.6328-69.3848Q16.9434-69.3848 13.3545-65.8447Q9.76562-62.3047 9.76562-55.6152L9.76562-14.7949Q9.76562-8.1543 13.3545-4.61426Q16.9434-1.07422 23.6328-1.07422Z"/>
  </g>
  <g id="Semibold-S" transform="matrix(1 0 0 1 1987.75 696)">
   <path d="M26.123-14.0625Q24.4629-14.0625 23.4131-15.0879Q22.3633-16.1133 22.3633-17.7246L22.3633-24.8047Q22.3633-26.416 23.4131-27.4414Q24.4629-28.4668 26.123-28.4668L35.498-28.4668Q37.207-28.4668 38.2324-27.4414Q39.2578-26.416 39.2578-24.8047L39.2578-17.7246Q39.2578-16.1133 38.2324-15.0879Q37.207-14.0625 35.498-14.0625ZM9.76562-43.0664L9.76562-52.3438L101.27-52.3438L101.27-43.0664ZM23.0957-1.41602L87.9395-1.41602Q94.4824-1.41602 97.876-4.78516Q101.27-8.1543 101.27-14.6484L101.27-55.7617Q101.27-62.2559 97.876-65.625Q94.4824-68.9941 87.9395-68.9941L23.0957-68.9941Q16.6016-68.9941 13.1836-65.625Q9.76562-62.2559 9.76562-55.7617L9.76562-14.6484Q9.76562-8.1543 13.1836-4.78516Q16.6016-1.41602 23.0957-1.41602Z"/>
  </g>
  <g id="Medium-S" transform="matrix(1 0 0 1 1691.26 696)">
   <path d="M25.9277-14.1113Q24.2676-14.1113 23.2178-15.1367Q22.168-16.1621 22.168-17.7734L22.168-24.8535Q22.168-26.4648 23.2178-27.4902Q24.2676-28.5156 25.9277-28.5156L35.3027-28.5156Q37.0117-28.5156 38.0371-27.4902Q39.0625-26.4648 39.0625-24.8535L39.0625-17.7734Q39.0625-16.1621 38.0371-15.1367Q37.0117-14.1113 35.3027-14.1113ZM9.76562-43.2617L9.76562-52.3438L100.83-52.3438L100.83-43.2617ZM22.7051-1.70898L87.8906-1.70898Q94.2871-1.70898 97.5586-4.93164Q100.83-8.1543 100.83-14.502L100.83-55.9082Q100.83-62.2559 97.5586-65.4785Q94.2871-68.7012 87.8906-68.7012L22.7051-68.7012Q16.3574-68.7012 13.0615-65.4785Q9.76562-62.2559 9.76562-55.9082L9.76562-14.502Q9.76562-8.1543 13.0615-4.93164Q16.3574-1.70898 22.7051-1.70898Z"/>
  </g>
  <g id="Regular-S" transform="matrix(1 0 0 1 1394.82 696)">
   <path d="M25.6348-14.209Q23.9746-14.209 22.9248-15.2344Q21.875-16.2598 21.875-17.8711L21.875-24.9512Q21.875-26.5625 22.9248-27.5879Q23.9746-28.6133 25.6348-28.6133L35.0098-28.6133Q36.7188-28.6133 37.7441-27.5879Q38.7695-26.5625 38.7695-24.9512L38.7695-17.8711Q38.7695-16.2598 37.7441-15.2344Q36.7188-14.209 35.0098-14.209ZM9.76562-43.5547L9.76562-52.3438L100.293-52.3438L100.293-43.5547ZM22.2168-2.09961L87.8418-2.09961Q94.0918-2.09961 97.1924-5.15137Q100.293-8.20312 100.293-14.3555L100.293-56.0547Q100.293-62.207 97.1924-65.2588Q94.0918-68.3105 87.8418-68.3105L22.2168-68.3105Q16.0156-68.3105 12.8906-65.2588Q9.76562-62.207 9.76562-56.0547L9.76562-14.3555Q9.76562-8.20312 12.8906-5.15137Q16.0156-2.09961 22.2168-2.09961Z"/>
  </g>
  <g id="Light-S" transform="matrix(1 0 0 1 1098.69 696)">
   <path d="M25.1953-14.5508Q23.5352-14.5508 22.4854-15.5762Q21.4355-16.6016 21.4355-18.2129L21.4355-25.3418Q21.4355-26.9531 22.4854-27.9785Q23.5352-29.0039 25.1953-29.0039L34.5703-29.0039Q36.2793-29.0039 37.3047-27.9785Q38.3301-26.9531 38.3301-25.3418L38.3301-18.2129Q38.3301-16.6016 37.3047-15.5762Q36.2793-14.5508 34.5703-14.5508ZM9.76562-43.9453L9.76562-52.5391L99.1211-52.5391L99.1211-43.9453ZM21.3867-2.88086L87.5-2.88086Q93.3105-2.88086 96.2158-5.78613Q99.1211-8.69141 99.1211-14.4043L99.1211-56.0059Q99.1211-61.7188 96.2158-64.5996Q93.3105-67.4805 87.5-67.4805L21.3867-67.4805Q15.625-67.4805 12.6953-64.5996Q9.76562-61.7188 9.76562-56.0059L9.76562-14.4043Q9.76562-8.64258 12.6953-5.76172Q15.625-2.88086 21.3867-2.88086Z"/>
  </g>
  <g id="Thin-S" transform="matrix(1 0 0 1 802.736 696)">
   <path d="M24.6094-15.0391Q22.9492-15.0391 21.8994-16.0645Q20.8496-17.0898 20.8496-18.7012L20.8496-25.8301Q20.8496-27.4414 21.8994-28.4668Q22.9492-29.4922 24.6094-29.4922L33.9844-29.4922Q35.6934-29.4922 36.7188-28.4668Q37.7441-27.4414 37.7441-25.8301L37.7441-18.7012Q37.7441-17.0898 36.7188-16.0645Q35.6934-15.0391 33.9844-15.0391ZM9.76562-44.4336L9.76562-52.832L97.6074-52.832L97.6074-44.4336ZM20.3125-3.90625L87.1094-3.90625Q92.2852-3.90625 94.9463-6.5918Q97.6074-9.27734 97.6074-14.4043L97.6074-55.9082Q97.6074-61.0352 94.9463-63.7207Q92.2852-66.4062 87.1094-66.4062L20.3125-66.4062Q15.0879-66.4062 12.4268-63.7451Q9.76562-61.084 9.76562-55.9082L9.76562-14.4043Q9.76562-9.27734 12.4268-6.5918Q15.0879-3.90625 20.3125-3.90625Z"/>
  </g>
  <g id="Ultralight-S" transform="matrix(1 0 0 1 506.415 696)">
   <path d="M24.3164-15.2832Q22.6562-15.2832 21.6064-16.3086Q20.5566-17.334 20.5566-18.9453L20.5566-26.0742Q20.5566-27.6855 21.6064-28.7109Q22.6562-29.7363 24.3164-29.7363L33.6914-29.7363Q35.4004-29.7363 36.4258-28.7109Q37.4512-27.6855 37.4512-26.0742L37.4512-18.9453Q37.4512-17.334 36.4258-16.3086Q35.4004-15.2832 33.6914-15.2832ZM9.76562-44.6777L9.76562-52.9785L96.8262-52.9785L96.8262-44.6777ZM19.7754-4.44336L86.8652-4.44336Q91.7969-4.44336 94.3115-7.03125Q96.8262-9.61914 96.8262-14.4531L96.8262-55.8594Q96.8262-60.6934 94.3115-63.2812Q91.7969-65.8691 86.8652-65.8691L19.7754-65.8691Q14.8438-65.8691 12.3047-63.3057Q9.76562-60.7422 9.76562-55.8594L9.76562-14.4531Q9.76562-9.57031 12.3047-7.00684Q14.8438-4.44336 19.7754-4.44336Z"/>
  </g>
 </g>
</svg>
