<?xml version="1.0" encoding="UTF-8"?>
<!--Generator: Apple Native CoreSVG 175-->
<!DOCTYPE svg
PUBLIC "-//W3C//DTD SVG 1.1//EN"
       "http://www.w3.org/Graphics/SVG/1.1/DTD/svg11.dtd">
<svg version="1.1" xmlns="http://www.w3.org/2000/svg" xmlns:xlink="http://www.w3.org/1999/xlink" width="3300" height="2200">
 <!--glyph: "uni100430.medium", point size: 100.0, font version: "17.0d11e1", template writer version: "65.1"-->
 <g id="Notes">
  <rect height="2200" id="artboard" style="fill:white;opacity:1" width="3300" x="0" y="0"/>
  <line style="fill:none;stroke:black;opacity:1;stroke-width:0.5;" x1="263" x2="3036" y1="292" y2="292"/>
  <text style="stroke:none;fill:black;font-family:sans-serif;font-size:13;font-weight:bold;" transform="matrix(1 0 0 1 263 322)">Weight/Scale Variations</text>
  <text style="stroke:none;fill:black;font-family:sans-serif;font-size:13;text-anchor:middle;" transform="matrix(1 0 0 1 559.711 322)">Ultralight</text>
  <text style="stroke:none;fill:black;font-family:sans-serif;font-size:13;text-anchor:middle;" transform="matrix(1 0 0 1 856.422 322)">Thin</text>
  <text style="stroke:none;fill:black;font-family:sans-serif;font-size:13;text-anchor:middle;" transform="matrix(1 0 0 1 1153.13 322)">Light</text>
  <text style="stroke:none;fill:black;font-family:sans-serif;font-size:13;text-anchor:middle;" transform="matrix(1 0 0 1 1449.84 322)">Regular</text>
  <text style="stroke:none;fill:black;font-family:sans-serif;font-size:13;text-anchor:middle;" transform="matrix(1 0 0 1 1746.56 322)">Medium</text>
  <text style="stroke:none;fill:black;font-family:sans-serif;font-size:13;text-anchor:middle;" transform="matrix(1 0 0 1 2043.27 322)">Semibold</text>
  <text style="stroke:none;fill:black;font-family:sans-serif;font-size:13;text-anchor:middle;" transform="matrix(1 0 0 1 2339.98 322)">Bold</text>
  <text style="stroke:none;fill:black;font-family:sans-serif;font-size:13;text-anchor:middle;" transform="matrix(1 0 0 1 2636.69 322)">Heavy</text>
  <text style="stroke:none;fill:black;font-family:sans-serif;font-size:13;text-anchor:middle;" transform="matrix(1 0 0 1 2933.4 322)">Black</text>
  <line style="fill:none;stroke:black;opacity:1;stroke-width:0.5;" x1="263" x2="3036" y1="1903" y2="1903"/>
  <g transform="matrix(1 0 0 1 263 1933)">
   <path d="M9.24805 0.830078Q10.8691 0.830078 12.2949 0.214844Q13.7207-0.400391 14.8096-1.49414Q15.8984-2.58789 16.5186-4.01367Q17.1387-5.43945 17.1387-7.05078Q17.1387-8.66211 16.5186-10.0879Q15.8984-11.5137 14.8047-12.6074Q13.7109-13.7012 12.2852-14.3164Q10.8594-14.9316 9.23828-14.9316Q7.62695-14.9316 6.20117-14.3164Q4.77539-13.7012 3.69141-12.6074Q2.60742-11.5137 1.9873-10.0879Q1.36719-8.66211 1.36719-7.05078Q1.36719-5.43945 1.9873-4.01367Q2.60742-2.58789 3.69629-1.49414Q4.78516-0.400391 6.21094 0.214844Q7.63672 0.830078 9.24805 0.830078ZM9.24805-0.654297Q7.91992-0.654297 6.7627-1.14746Q5.60547-1.64062 4.73145-2.51953Q3.85742-3.39844 3.36426-4.56055Q2.87109-5.72266 2.87109-7.05078Q2.87109-8.37891 3.35938-9.54102Q3.84766-10.7031 4.72168-11.582Q5.5957-12.4609 6.75293-12.9541Q7.91016-13.4473 9.23828-13.4473Q10.5762-13.4473 11.7334-12.9541Q12.8906-12.4609 13.7695-11.582Q14.6484-10.7031 15.1465-9.54102Q15.6445-8.37891 15.6445-7.05078Q15.6445-5.72266 15.1514-4.56055Q14.6582-3.39844 13.7842-2.51953Q12.9102-1.64062 11.748-1.14746Q10.5859-0.654297 9.24805-0.654297ZM5.6543-7.05078Q5.6543-6.72852 5.85938-6.52832Q6.06445-6.32812 6.40625-6.32812L8.51562-6.32812L8.51562-4.20898Q8.51562-3.88672 8.71094-3.67676Q8.90625-3.4668 9.23828-3.4668Q9.56055-3.4668 9.77051-3.67676Q9.98047-3.88672 9.98047-4.20898L9.98047-6.32812L12.0898-6.32812Q12.4219-6.32812 12.627-6.52832Q12.832-6.72852 12.832-7.05078Q12.832-7.38281 12.627-7.58789Q12.4219-7.79297 12.0898-7.79297L9.98047-7.79297L9.98047-9.90234Q9.98047-10.2344 9.77051-10.4443Q9.56055-10.6543 9.23828-10.6543Q8.90625-10.6543 8.71094-10.4443Q8.51562-10.2344 8.51562-9.90234L8.51562-7.79297L6.40625-7.79297Q6.06445-7.79297 5.85938-7.58789Q5.6543-7.38281 5.6543-7.05078Z"/>
  </g>
  <g transform="matrix(1 0 0 1 281.867 1933)">
   <path d="M11.709 2.91016Q13.75 2.91016 15.5518 2.12891Q17.3535 1.34766 18.7305-0.0292969Q20.1074-1.40625 20.8887-3.20801Q21.6699-5.00977 21.6699-7.05078Q21.6699-9.0918 20.8887-10.8936Q20.1074-12.6953 18.7305-14.0723Q17.3535-15.4492 15.5469-16.2305Q13.7402-17.0117 11.6992-17.0117Q9.6582-17.0117 7.85645-16.2305Q6.05469-15.4492 4.68262-14.0723Q3.31055-12.6953 2.5293-10.8936Q1.74805-9.0918 1.74805-7.05078Q1.74805-5.00977 2.5293-3.20801Q3.31055-1.40625 4.6875-0.0292969Q6.06445 1.34766 7.86621 2.12891Q9.66797 2.91016 11.709 2.91016ZM11.709 1.25Q9.98047 1.25 8.47656 0.605469Q6.97266-0.0390625 5.83496-1.17676Q4.69727-2.31445 4.05762-3.81836Q3.41797-5.32227 3.41797-7.05078Q3.41797-8.7793 4.05762-10.2832Q4.69727-11.7871 5.83008-12.9297Q6.96289-14.0723 8.4668-14.7119Q9.9707-15.3516 11.6992-15.3516Q13.4277-15.3516 14.9316-14.7119Q16.4355-14.0723 17.5781-12.9297Q18.7207-11.7871 19.3652-10.2832Q20.0098-8.7793 20.0098-7.05078Q20.0098-5.32227 19.3701-3.81836Q18.7305-2.31445 17.5928-1.17676Q16.4551-0.0390625 14.9463 0.605469Q13.4375 1.25 11.709 1.25ZM7.17773-7.05078Q7.17773-6.69922 7.41211-6.47461Q7.64648-6.25 8.01758-6.25L10.8887-6.25L10.8887-3.36914Q10.8887-2.99805 11.1133-2.76855Q11.3379-2.53906 11.6895-2.53906Q12.0605-2.53906 12.29-2.76855Q12.5195-2.99805 12.5195-3.36914L12.5195-6.25L15.4004-6.25Q15.7715-6.25 16.001-6.47461Q16.2305-6.69922 16.2305-7.05078Q16.2305-7.42188 16.001-7.65137Q15.7715-7.88086 15.4004-7.88086L12.5195-7.88086L12.5195-10.752Q12.5195-11.1328 12.29-11.3623Q12.0605-11.5918 11.6895-11.5918Q11.3379-11.5918 11.1133-11.3574Q10.8887-11.123 10.8887-10.752L10.8887-7.88086L8.01758-7.88086Q7.63672-7.88086 7.40723-7.65137Q7.17773-7.42188 7.17773-7.05078Z"/>
  </g>
  <g transform="matrix(1 0 0 1 305.646 1933)">
   <path d="M14.9707 5.66406Q17.0605 5.66406 18.96 5.01465Q20.8594 4.36523 22.4512 3.19336Q24.043 2.02148 25.2197 0.429688Q26.3965-1.16211 27.0459-3.06641Q27.6953-4.9707 27.6953-7.05078Q27.6953-9.14062 27.0459-11.04Q26.3965-12.9395 25.2197-14.5312Q24.043-16.123 22.4512-17.2998Q20.8594-18.4766 18.9551-19.126Q17.0508-19.7754 14.9609-19.7754Q12.8711-19.7754 10.9717-19.126Q9.07227-18.4766 7.48535-17.2998Q5.89844-16.123 4.72168-14.5312Q3.54492-12.9395 2.90039-11.04Q2.25586-9.14062 2.25586-7.05078Q2.25586-4.9707 2.90527-3.06641Q3.55469-1.16211 4.72656 0.429688Q5.89844 2.02148 7.49023 3.19336Q9.08203 4.36523 10.9814 5.01465Q12.8809 5.66406 14.9707 5.66406ZM14.9707 3.84766Q13.1641 3.84766 11.5283 3.2959Q9.89258 2.74414 8.53516 1.74805Q7.17773 0.751953 6.17676-0.610352Q5.17578-1.97266 4.62891-3.6084Q4.08203-5.24414 4.08203-7.05078Q4.08203-8.86719 4.62891-10.5029Q5.17578-12.1387 6.17188-13.501Q7.16797-14.8633 8.52539-15.8594Q9.88281-16.8555 11.5186-17.4023Q13.1543-17.9492 14.9609-17.9492Q16.7773-17.9492 18.4131-17.4023Q20.0488-16.8555 21.4111-15.8594Q22.7734-14.8633 23.7695-13.501Q24.7656-12.1387 25.3174-10.5029Q25.8691-8.86719 25.8691-7.05078Q25.8789-5.24414 25.332-3.6084Q24.7852-1.97266 23.7842-0.610352Q22.7832 0.751953 21.4209 1.74805Q20.0586 2.74414 18.4229 3.2959Q16.7871 3.84766 14.9707 3.84766ZM9.19922-7.05078Q9.19922-6.66992 9.45801-6.4209Q9.7168-6.17188 10.1172-6.17188L14.0625-6.17188L14.0625-2.2168Q14.0625-1.81641 14.3115-1.55762Q14.5605-1.29883 14.9512-1.29883Q15.3516-1.29883 15.6104-1.55273Q15.8691-1.80664 15.8691-2.2168L15.8691-6.17188L19.8242-6.17188Q20.2246-6.17188 20.4785-6.4209Q20.7324-6.66992 20.7324-7.05078Q20.7324-7.46094 20.4785-7.71484Q20.2246-7.96875 19.8242-7.96875L15.8691-7.96875L15.8691-11.9141Q15.8691-12.3242 15.6104-12.583Q15.3516-12.8418 14.9512-12.8418Q14.5605-12.8418 14.3115-12.583Q14.0625-12.3242 14.0625-11.9141L14.0625-7.96875L10.1172-7.96875Q9.70703-7.96875 9.45312-7.71484Q9.19922-7.46094 9.19922-7.05078Z"/>
  </g>
  <text style="stroke:none;fill:black;font-family:sans-serif;font-size:13;font-weight:bold;" transform="matrix(1 0 0 1 263 1953)">Design Variations</text>
  <text style="stroke:none;fill:black;font-family:sans-serif;font-size:13;" transform="matrix(1 0 0 1 263 1971)">Symbols are supported in up to nine weights and three scales.</text>
  <text style="stroke:none;fill:black;font-family:sans-serif;font-size:13;" transform="matrix(1 0 0 1 263 1989)">For optimal layout with text and other symbols, vertically align</text>
  <text style="stroke:none;fill:black;font-family:sans-serif;font-size:13;" transform="matrix(1 0 0 1 263 2007)">symbols with the adjacent text.</text>
  <line style="fill:none;stroke:#00AEEF;stroke-width:0.5;opacity:1.0;" x1="776" x2="776" y1="1919" y2="1933"/>
  <g transform="matrix(1 0 0 1 776 1933)">
   <path d="M3.31055 0.15625Q3.70117 0.15625 3.91602-0.00976562Q4.13086-0.175781 4.26758-0.585938L5.52734-4.0332L11.2891-4.0332L12.5488-0.585938Q12.6855-0.175781 12.9004-0.00976562Q13.1152 0.15625 13.4961 0.15625Q13.8867 0.15625 14.1162-0.0585938Q14.3457-0.273438 14.3457-0.644531Q14.3457-0.869141 14.2383-1.17188L9.6582-13.3691Q9.48242-13.8184 9.17969-14.043Q8.87695-14.2676 8.4082-14.2676Q7.5-14.2676 7.17773-13.3789L2.59766-1.16211Q2.49023-0.859375 2.49023-0.634766Q2.49023-0.263672 2.70996-0.0537109Q2.92969 0.15625 3.31055 0.15625ZM6.00586-5.51758L8.37891-12.0898L8.42773-12.0898L10.8008-5.51758Z"/>
  </g>
  <line style="fill:none;stroke:#00AEEF;stroke-width:0.5;opacity:1.0;" x1="793.197" x2="793.197" y1="1919" y2="1933"/>
  <text style="stroke:none;fill:black;font-family:sans-serif;font-size:13;font-weight:bold;" transform="matrix(1 0 0 1 776 1953)">Margins</text>
  <text style="stroke:none;fill:black;font-family:sans-serif;font-size:13;" transform="matrix(1 0 0 1 776 1971)">Leading and trailing margins on the left and right side of each symbol</text>
  <text style="stroke:none;fill:black;font-family:sans-serif;font-size:13;" transform="matrix(1 0 0 1 776 1989)">can be adjusted by modifying the x-location of the margin guidelines.</text>
  <text style="stroke:none;fill:black;font-family:sans-serif;font-size:13;" transform="matrix(1 0 0 1 776 2007)">Modifications are automatically applied proportionally to all</text>
  <text style="stroke:none;fill:black;font-family:sans-serif;font-size:13;" transform="matrix(1 0 0 1 776 2025)">scales and weights.</text>
  <g transform="matrix(1 0 0 1 1289 1933)">
   <path d="M2.8418 1.86523L4.54102 3.57422Q5.18555 4.22852 5.90332 4.17969Q6.62109 4.13086 7.31445 3.35938L18.0078-8.42773L17.041-9.4043L6.42578 2.27539Q6.16211 2.57812 5.89355 2.61719Q5.625 2.65625 5.27344 2.30469L4.10156 1.14258Q3.75 0.791016 3.79395 0.522461Q3.83789 0.253906 4.14062-0.0195312L15.6152-10.8203L14.6387-11.7871L3.04688-0.898438Q2.30469-0.214844 2.25098 0.498047Q2.19727 1.21094 2.8418 1.86523ZM9.25781-16.3281Q8.94531-16.0254 8.90625-15.6348Q8.86719-15.2441 9.04297-14.9512Q9.21875-14.6777 9.55566-14.541Q9.89258-14.4043 10.3809-14.5215Q11.4746-14.7754 12.5977-14.7314Q13.7207-14.6875 14.7949-13.9844L14.209-12.5293Q13.9551-11.9043 14.0674-11.4404Q14.1797-10.9766 14.5801-10.5664L16.875-8.25195Q17.2363-7.88086 17.5781-7.82227Q17.9199-7.76367 18.3398-7.8418L19.4043-8.03711L20.0684-7.36328L20.0293-6.80664Q20-6.43555 20.1221-6.12305Q20.2441-5.81055 20.6055-5.44922L21.3672-4.70703Q21.7285-4.3457 22.1533-4.33105Q22.5781-4.31641 22.9297-4.66797L25.8398-7.58789Q26.1914-7.93945 26.1816-8.35449Q26.1719-8.76953 25.8105-9.13086L25.0391-9.89258Q24.6875-10.2539 24.3799-10.3857Q24.0723-10.5176 23.7109-10.4883L23.1348-10.4395L22.4902-11.0742L22.7344-12.1973Q22.832-12.6172 22.6953-12.9834Q22.5586-13.3496 22.1191-13.7891L19.9219-15.9766Q18.6719-17.2168 17.2607-17.8369Q15.8496-18.457 14.4189-18.4814Q12.9883-18.5059 11.665-17.959Q10.3418-17.4121 9.25781-16.3281ZM10.752-15.957Q11.6602-16.6211 12.7002-16.9043Q13.7402-17.1875 14.8047-17.085Q15.8691-16.9824 16.8701-16.5137Q17.8711-16.0449 18.7012-15.2051L21.1328-12.793Q21.3086-12.6172 21.3525-12.4512Q21.3965-12.2852 21.3379-12.0312L21.0156-10.5469L22.5195-9.0625L23.5059-9.12109Q23.6914-9.13086 23.7891-9.09668Q23.8867-9.0625 24.0332-8.91602L24.6094-8.33984L22.168-5.89844L21.5918-6.47461Q21.4453-6.62109 21.4062-6.71875Q21.3672-6.81641 21.377-7.01172L21.4453-7.98828L19.9512-9.47266L18.4277-9.21875Q18.1836-9.16992 18.042-9.2041Q17.9004-9.23828 17.7148-9.41406L15.7129-11.416Q15.5176-11.5918 15.4932-11.7529Q15.4688-11.9141 15.5859-12.1875L16.4648-14.2773Q15.293-15.3711 13.8281-15.791Q12.3633-16.2109 10.8398-15.7617Q10.7227-15.7324 10.6885-15.8057Q10.6543-15.8789 10.752-15.957Z"/>
  </g>
  <text style="stroke:none;fill:black;font-family:sans-serif;font-size:13;font-weight:bold;" transform="matrix(1 0 0 1 1289 1953)">Exporting</text>
  <text style="stroke:none;fill:black;font-family:sans-serif;font-size:13;" transform="matrix(1 0 0 1 1289 1971)">Symbols should be outlined when exporting to ensure the</text>
  <text style="stroke:none;fill:black;font-family:sans-serif;font-size:13;" transform="matrix(1 0 0 1 1289 1989)">design is preserved when submitting to Xcode.</text>
  <text id="template-version" style="stroke:none;fill:black;font-family:sans-serif;font-size:13;text-anchor:end;" transform="matrix(1 0 0 1 3036 1933)">Template v.3.0</text>
  <text style="stroke:none;fill:black;font-family:sans-serif;font-size:13;text-anchor:end;" transform="matrix(1 0 0 1 3036 1951)">Requires Xcode 13 or greater</text>
  <text id="descriptive-name" style="stroke:none;fill:black;font-family:sans-serif;font-size:13;text-anchor:end;" transform="matrix(1 0 0 1 3036 1969)">Generated from stopwatch.fill</text>
  <text style="stroke:none;fill:black;font-family:sans-serif;font-size:13;text-anchor:end;" transform="matrix(1 0 0 1 3036 1987)">Typeset at 100 points</text>
  <text style="stroke:none;fill:black;font-family:sans-serif;font-size:13;" transform="matrix(1 0 0 1 263 726)">Small</text>
  <text style="stroke:none;fill:black;font-family:sans-serif;font-size:13;" transform="matrix(1 0 0 1 263 1156)">Medium</text>
  <text style="stroke:none;fill:black;font-family:sans-serif;font-size:13;" transform="matrix(1 0 0 1 263 1586)">Large</text>
 </g>
 <g id="Guides">
  <g id="H-reference" style="fill:#27AAE1;stroke:none;" transform="matrix(1 0 0 1 339 696)">
   <path d="M0.976562 0L3.66211 0L29.3457-67.1387L30.0293-67.1387L30.0293-70.459L28.125-70.459ZM11.6699-24.4629L46.9727-24.4629L46.2402-26.709L12.4512-26.709ZM55.127 0L57.7637 0L30.6152-70.459L29.4434-70.459L29.4434-67.1387Z"/>
  </g>
  <line id="Baseline-S" style="fill:none;stroke:#27AAE1;opacity:1;stroke-width:0.5;" x1="263" x2="3036" y1="696" y2="696"/>
  <line id="Capline-S" style="fill:none;stroke:#27AAE1;opacity:1;stroke-width:0.5;" x1="263" x2="3036" y1="625.541" y2="625.541"/>
  <g id="H-reference" style="fill:#27AAE1;stroke:none;" transform="matrix(1 0 0 1 339 1126)">
   <path d="M0.976562 0L3.66211 0L29.3457-67.1387L30.0293-67.1387L30.0293-70.459L28.125-70.459ZM11.6699-24.4629L46.9727-24.4629L46.2402-26.709L12.4512-26.709ZM55.127 0L57.7637 0L30.6152-70.459L29.4434-70.459L29.4434-67.1387Z"/>
  </g>
  <line id="Baseline-M" style="fill:none;stroke:#27AAE1;opacity:1;stroke-width:0.5;" x1="263" x2="3036" y1="1126" y2="1126"/>
  <line id="Capline-M" style="fill:none;stroke:#27AAE1;opacity:1;stroke-width:0.5;" x1="263" x2="3036" y1="1055.54" y2="1055.54"/>
  <g id="H-reference" style="fill:#27AAE1;stroke:none;" transform="matrix(1 0 0 1 339 1556)">
   <path d="M0.976562 0L3.66211 0L29.3457-67.1387L30.0293-67.1387L30.0293-70.459L28.125-70.459ZM11.6699-24.4629L46.9727-24.4629L46.2402-26.709L12.4512-26.709ZM55.127 0L57.7637 0L30.6152-70.459L29.4434-70.459L29.4434-67.1387Z"/>
  </g>
  <line id="Baseline-L" style="fill:none;stroke:#27AAE1;opacity:1;stroke-width:0.5;" x1="263" x2="3036" y1="1556" y2="1556"/>
  <line id="Capline-L" style="fill:none;stroke:#27AAE1;opacity:1;stroke-width:0.5;" x1="263" x2="3036" y1="1485.54" y2="1485.54"/>
  <line id="left-margin-Ultralight-S" style="fill:none;stroke:#00AEEF;stroke-width:0.5;opacity:1.0;" x1="515.644" x2="515.644" y1="600.785" y2="720.121"/>
  <line id="right-margin-Ultralight-S" style="fill:none;stroke:#00AEEF;stroke-width:0.5;opacity:1.0;" x1="603.778" x2="603.778" y1="600.785" y2="720.121"/>
  <line id="left-margin-Thin-S" style="fill:none;stroke:#00AEEF;stroke-width:0.5;opacity:1.0;" x1="811.867" x2="811.867" y1="600.785" y2="720.121"/>
  <line id="right-margin-Thin-S" style="fill:none;stroke:#00AEEF;stroke-width:0.5;opacity:1.0;" x1="900.978" x2="900.978" y1="600.785" y2="720.121"/>
  <line id="left-margin-Light-S" style="fill:none;stroke:#00AEEF;stroke-width:0.5;opacity:1.0;" x1="1107.6" x2="1107.6" y1="600.785" y2="720.121"/>
  <line id="right-margin-Light-S" style="fill:none;stroke:#00AEEF;stroke-width:0.5;opacity:1.0;" x1="1198.67" x2="1198.67" y1="600.785" y2="720.121"/>
  <line id="left-margin-Regular-S" style="fill:none;stroke:#00AEEF;stroke-width:0.5;opacity:1.0;" x1="1403.58" x2="1403.58" y1="600.785" y2="720.121"/>
  <line id="right-margin-Regular-S" style="fill:none;stroke:#00AEEF;stroke-width:0.5;opacity:1.0;" x1="1496.11" x2="1496.11" y1="600.785" y2="720.121"/>
  <line id="left-margin-Medium-S" style="fill:none;stroke:#00AEEF;stroke-width:0.5;opacity:1.0;" x1="1699.83" x2="1699.83" y1="600.785" y2="720.121"/>
  <line id="right-margin-Medium-S" style="fill:none;stroke:#00AEEF;stroke-width:0.5;opacity:1.0;" x1="1793.28" x2="1793.28" y1="600.785" y2="720.121"/>
  <line id="left-margin-Semibold-S" style="fill:none;stroke:#00AEEF;stroke-width:0.5;opacity:1.0;" x1="1996.2" x2="1996.2" y1="600.785" y2="720.121"/>
  <line id="right-margin-Semibold-S" style="fill:none;stroke:#00AEEF;stroke-width:0.5;opacity:1.0;" x1="2090.34" x2="2090.34" y1="600.785" y2="720.121"/>
  <line id="left-margin-Bold-S" style="fill:none;stroke:#00AEEF;stroke-width:0.5;opacity:1.0;" x1="2292.42" x2="2292.42" y1="600.785" y2="720.121"/>
  <line id="right-margin-Bold-S" style="fill:none;stroke:#00AEEF;stroke-width:0.5;opacity:1.0;" x1="2387.54" x2="2387.54" y1="600.785" y2="720.121"/>
  <line id="left-margin-Heavy-S" style="fill:none;stroke:#00AEEF;stroke-width:0.5;opacity:1.0;" x1="2588.47" x2="2588.47" y1="600.785" y2="720.121"/>
  <line id="right-margin-Heavy-S" style="fill:none;stroke:#00AEEF;stroke-width:0.5;opacity:1.0;" x1="2684.91" x2="2684.91" y1="600.785" y2="720.121"/>
  <line id="left-margin-Black-S" style="fill:none;stroke:#00AEEF;stroke-width:0.5;opacity:1.0;" x1="2884.57" x2="2884.57" y1="600.785" y2="720.121"/>
  <line id="right-margin-Black-S" style="fill:none;stroke:#00AEEF;stroke-width:0.5;opacity:1.0;" x1="2982.23" x2="2982.23" y1="600.785" y2="720.121"/>
  <line id="left-margin-Ultralight-M" style="fill:none;stroke:#00AEEF;stroke-width:0.5;opacity:1.0;" x1="503.632" x2="503.632" y1="1030.79" y2="1150.12"/>
  <line id="right-margin-Ultralight-M" style="fill:none;stroke:#00AEEF;stroke-width:0.5;opacity:1.0;" x1="615.79" x2="615.79" y1="1030.79" y2="1150.12"/>
  <line id="left-margin-Thin-M" style="fill:none;stroke:#00AEEF;stroke-width:0.5;opacity:1.0;" x1="799.782" x2="799.782" y1="1030.79" y2="1150.12"/>
  <line id="right-margin-Thin-M" style="fill:none;stroke:#00AEEF;stroke-width:0.5;opacity:1.0;" x1="913.063" x2="913.063" y1="1030.79" y2="1150.12"/>
  <line id="left-margin-Light-M" style="fill:none;stroke:#00AEEF;stroke-width:0.5;opacity:1.0;" x1="1095.42" x2="1095.42" y1="1030.79" y2="1150.12"/>
  <line id="right-margin-Light-M" style="fill:none;stroke:#00AEEF;stroke-width:0.5;opacity:1.0;" x1="1210.85" x2="1210.85" y1="1030.79" y2="1150.12"/>
  <line id="left-margin-Regular-M" style="fill:none;stroke:#00AEEF;stroke-width:0.5;opacity:1.0;" x1="1391.3" x2="1391.3" y1="1030.79" y2="1150.12"/>
  <line id="right-margin-Regular-M" style="fill:none;stroke:#00AEEF;stroke-width:0.5;opacity:1.0;" x1="1508.39" x2="1508.39" y1="1030.79" y2="1150.12"/>
  <line id="left-margin-Medium-M" style="fill:none;stroke:#00AEEF;stroke-width:0.5;opacity:1.0;" x1="1687.38" x2="1687.38" y1="1030.79" y2="1150.12"/>
  <line id="right-margin-Medium-M" style="fill:none;stroke:#00AEEF;stroke-width:0.5;opacity:1.0;" x1="1805.74" x2="1805.74" y1="1030.79" y2="1150.12"/>
  <line id="left-margin-Semibold-M" style="fill:none;stroke:#00AEEF;stroke-width:0.5;opacity:1.0;" x1="1983.6" x2="1983.6" y1="1030.79" y2="1150.12"/>
  <line id="right-margin-Semibold-M" style="fill:none;stroke:#00AEEF;stroke-width:0.5;opacity:1.0;" x1="2102.93" x2="2102.93" y1="1030.79" y2="1150.12"/>
  <line id="left-margin-Bold-M" style="fill:none;stroke:#00AEEF;stroke-width:0.5;opacity:1.0;" x1="2279.65" x2="2279.65" y1="1030.79" y2="1150.12"/>
  <line id="right-margin-Bold-M" style="fill:none;stroke:#00AEEF;stroke-width:0.5;opacity:1.0;" x1="2400.3" x2="2400.3" y1="1030.79" y2="1150.12"/>
  <line id="left-margin-Heavy-M" style="fill:none;stroke:#00AEEF;stroke-width:0.5;opacity:1.0;" x1="2575.43" x2="2575.43" y1="1030.79" y2="1150.12"/>
  <line id="right-margin-Heavy-M" style="fill:none;stroke:#00AEEF;stroke-width:0.5;opacity:1.0;" x1="2697.94" x2="2697.94" y1="1030.79" y2="1150.12"/>
  <line id="left-margin-Black-M" style="fill:none;stroke:#00AEEF;stroke-width:0.5;opacity:1.0;" x1="2871.32" x2="2871.32" y1="1030.79" y2="1150.12"/>
  <line id="right-margin-Black-M" style="fill:none;stroke:#00AEEF;stroke-width:0.5;opacity:1.0;" x1="2995.48" x2="2995.48" y1="1030.79" y2="1150.12"/>
  <line id="left-margin-Ultralight-L" style="fill:none;stroke:#00AEEF;stroke-width:0.5;opacity:1.0;" x1="487.592" x2="487.592" y1="1460.79" y2="1580.12"/>
  <line id="right-margin-Ultralight-L" style="fill:none;stroke:#00AEEF;stroke-width:0.5;opacity:1.0;" x1="631.83" x2="631.83" y1="1460.79" y2="1580.12"/>
  <line id="left-margin-Thin-L" style="fill:none;stroke:#00AEEF;stroke-width:0.5;opacity:1.0;" x1="783.693" x2="783.693" y1="1460.79" y2="1580.12"/>
  <line id="right-margin-Thin-L" style="fill:none;stroke:#00AEEF;stroke-width:0.5;opacity:1.0;" x1="929.152" x2="929.152" y1="1460.79" y2="1580.12"/>
  <line id="left-margin-Light-L" style="fill:none;stroke:#00AEEF;stroke-width:0.5;opacity:1.0;" x1="1079.18" x2="1079.18" y1="1460.79" y2="1580.12"/>
  <line id="right-margin-Light-L" style="fill:none;stroke:#00AEEF;stroke-width:0.5;opacity:1.0;" x1="1227.08" x2="1227.08" y1="1460.79" y2="1580.12"/>
  <line id="left-margin-Regular-L" style="fill:none;stroke:#00AEEF;stroke-width:0.5;opacity:1.0;" x1="1374.97" x2="1374.97" y1="1460.79" y2="1580.12"/>
  <line id="right-margin-Regular-L" style="fill:none;stroke:#00AEEF;stroke-width:0.5;opacity:1.0;" x1="1524.72" x2="1524.72" y1="1460.79" y2="1580.12"/>
  <line id="left-margin-Medium-L" style="fill:none;stroke:#00AEEF;stroke-width:0.5;opacity:1.0;" x1="1670.87" x2="1670.87" y1="1460.79" y2="1580.12"/>
  <line id="right-margin-Medium-L" style="fill:none;stroke:#00AEEF;stroke-width:0.5;opacity:1.0;" x1="1822.24" x2="1822.24" y1="1460.79" y2="1580.12"/>
  <line id="left-margin-Semibold-L" style="fill:none;stroke:#00AEEF;stroke-width:0.5;opacity:1.0;" x1="1966.97" x2="1966.97" y1="1460.79" y2="1580.12"/>
  <line id="right-margin-Semibold-L" style="fill:none;stroke:#00AEEF;stroke-width:0.5;opacity:1.0;" x1="2119.56" x2="2119.56" y1="1460.79" y2="1580.12"/>
  <line id="left-margin-Bold-L" style="fill:none;stroke:#00AEEF;stroke-width:0.5;opacity:1.0;" x1="2262.85" x2="2262.85" y1="1460.79" y2="1580.12"/>
  <line id="right-margin-Bold-L" style="fill:none;stroke:#00AEEF;stroke-width:0.5;opacity:1.0;" x1="2417.1" x2="2417.1" y1="1460.79" y2="1580.12"/>
  <line id="left-margin-Heavy-L" style="fill:none;stroke:#00AEEF;stroke-width:0.5;opacity:1.0;" x1="2558.39" x2="2558.39" y1="1460.79" y2="1580.12"/>
  <line id="right-margin-Heavy-L" style="fill:none;stroke:#00AEEF;stroke-width:0.5;opacity:1.0;" x1="2714.98" x2="2714.98" y1="1460.79" y2="1580.12"/>
  <line id="left-margin-Black-L" style="fill:none;stroke:#00AEEF;stroke-width:0.5;opacity:1.0;" x1="2854.05" x2="2854.05" y1="1460.79" y2="1580.12"/>
  <line id="right-margin-Black-L" style="fill:none;stroke:#00AEEF;stroke-width:0.5;opacity:1.0;" x1="3012.75" x2="3012.75" y1="1460.79" y2="1580.12"/>
 </g>
 <g id="Symbols">
  <g id="Black-L" transform="matrix(1 0 0 1 2854.05 1556)">
   <path d="M79.3457 32.8613Q90.5762 32.8613 100.757 29.3945Q110.938 25.9277 119.458 19.6777Q127.979 13.4277 134.229 4.90723Q140.479-3.61328 143.945-13.7939Q147.412-23.9746 147.412-35.2051Q147.412-46.4355 143.945-56.6162Q140.479-66.7969 134.204-75.3174Q127.93-83.8379 119.434-90.1123Q110.938-96.3867 100.732-99.8291Q90.5273-103.271 79.2969-103.271Q68.1152-103.271 57.9102-99.8291Q47.7051-96.3867 39.209-90.1123Q30.7129-83.8379 24.4385-75.3174Q18.1641-66.7969 14.7217-56.6162Q11.2793-46.4355 11.2793-35.2051Q11.2793-23.9746 14.7217-13.7939Q18.1641-3.61328 24.4385 4.90723Q30.7129 13.4277 39.2334 19.6777Q47.7539 25.9277 57.9346 29.3945Q68.1152 32.8613 79.3457 32.8613ZM79.3457-21.8262Q75.6348-21.8262 72.6318-23.6084Q69.6289-25.3906 67.8223-28.418Q66.0156-31.4453 66.0156-35.2051Q66.0156-38.5254 67.6514-41.3086Q69.2871-44.0918 72.3633-46.1914L72.3633-73.0469Q72.3633-75.9277 74.3652-77.9541Q76.3672-79.9805 79.2969-79.9805Q82.2266-79.9805 84.2529-77.9541Q86.2793-75.9277 86.2793-73.0469L86.2793-46.0449Q89.4043-44.1406 91.0156-41.3818Q92.627-38.623 92.627-35.2051Q92.627-31.4453 90.8447-28.418Q89.0625-25.3906 86.0352-23.6084Q83.0078-21.8262 79.3457-21.8262ZM70.1172-100.879L88.623-100.83L88.623-109.424Q88.623-113.33 85.9131-115.967Q83.2031-118.604 79.3945-118.604Q75.6348-118.604 72.876-115.967Q70.1172-113.33 70.1172-109.424ZM123.096-84.8633L135.059-70.8984L141.602-77.3438Q144.775-80.4688 144.775-84.1797Q144.775-87.8906 142.212-90.5029Q139.648-93.1152 135.889-93.1152Q131.787-93.1152 128.76-90.2832Z"/>
  </g>
  <g id="Heavy-L" transform="matrix(1 0 0 1 2558.39 1556)">
   <path d="M78.2715 31.7871Q89.3555 31.7871 99.3652 28.3691Q109.375 24.9512 117.749 18.7988Q126.123 12.6465 132.3 4.24805Q138.477-4.15039 141.895-14.1602Q145.312-24.1699 145.312-35.2051Q145.312-46.2402 141.895-56.2744Q138.477-66.3086 132.3-74.6826Q126.123-83.0566 117.749-89.2578Q109.375-95.459 99.3408-98.8525Q89.3066-102.246 78.2227-102.246Q67.2363-102.246 57.2021-98.8525Q47.168-95.459 38.7939-89.2578Q30.4199-83.0566 24.2432-74.6826Q18.0664-66.3086 14.6729-56.2744Q11.2793-46.2402 11.2793-35.2051Q11.2793-24.1699 14.6729-14.1602Q18.0664-4.15039 24.2432 4.24805Q30.4199 12.6465 38.8184 18.7988Q47.2168 24.9512 57.2266 28.3691Q67.2363 31.7871 78.2715 31.7871ZM78.2715-22.7539Q74.8535-22.7539 72.0459-24.4141Q69.2383-26.0742 67.5781-28.9062Q65.918-31.7383 65.918-35.2051Q65.918-38.3789 67.5049-41.04Q69.0918-43.7012 72.0703-45.6055L72.0703-73.9258Q72.0703-76.5137 73.8525-78.2959Q75.6348-80.0781 78.2227-80.0781Q80.8594-80.0781 82.666-78.2959Q84.4727-76.5137 84.4727-73.9258L84.4727-45.459Q87.4512-43.75 89.0381-41.1133Q90.625-38.4766 90.625-35.2051Q90.625-31.7383 88.9648-28.9062Q87.3047-26.0742 84.4971-24.4141Q81.6895-22.7539 78.2715-22.7539ZM69.8242-99.6094L86.7676-99.6094L86.7676-108.594Q86.7676-112.158 84.2773-114.6Q81.7871-117.041 78.3203-117.041Q74.8535-117.041 72.3389-114.6Q69.8242-112.158 69.8242-108.594ZM121.045-83.9355L132.08-71.2891L138.916-78.0762Q141.846-80.957 141.846-84.375Q141.846-87.7441 139.502-90.1123Q137.158-92.4805 133.691-92.4805Q129.932-92.4805 127.197-89.8926Z"/>
  </g>
  <g id="Bold-L" transform="matrix(1 0 0 1 2262.85 1556)">
   <path d="M77.0996 30.6152Q87.9395 30.6152 97.7783 27.2461Q107.617 23.877 115.869 17.8223Q124.121 11.7676 130.176 3.51562Q136.23-4.73633 139.6-14.5752Q142.969-24.4141 142.969-35.2539Q142.969-46.0938 139.6-55.9326Q136.23-65.7715 130.151-73.999Q124.072-82.2266 115.845-88.3057Q107.617-94.3848 97.7539-97.7295Q87.8906-101.074 77.0508-101.074Q66.2598-101.074 56.3965-97.7295Q46.5332-94.3848 38.3301-88.3057Q30.127-82.2266 24.0479-73.999Q17.9688-65.7715 14.624-55.9326Q11.2793-46.0938 11.2793-35.2539Q11.2793-24.4141 14.624-14.5752Q17.9688-4.73633 24.0479 3.51562Q30.127 11.7676 38.3545 17.8223Q46.582 23.877 56.4209 27.2461Q66.2598 30.6152 77.0996 30.6152ZM77.0996-23.8281Q73.9746-23.8281 71.4111-25.3662Q68.8477-26.9043 67.3096-29.4678Q65.7715-32.0312 65.7715-35.2051Q65.7715-38.2324 67.3584-40.7471Q68.9453-43.2617 71.7285-44.9707L71.7285-74.9023Q71.7285-77.1484 73.2666-78.6865Q74.8047-80.2246 77.0508-80.2246Q79.3457-80.2246 80.9082-78.6865Q82.4707-77.1484 82.4707-74.9023L82.4707-44.873Q85.3027-43.3105 86.8408-40.7959Q88.3789-38.2812 88.3789-35.2051Q88.3789-32.0312 86.8896-29.4678Q85.4004-26.9043 82.8125-25.3662Q80.2246-23.8281 77.0996-23.8281ZM69.5312-98.2422L84.668-98.1934L84.668-107.715Q84.668-110.889 82.4707-113.11Q80.2734-115.332 77.0996-115.332Q74.0234-115.332 71.7773-113.11Q69.5312-110.889 69.5312-107.715ZM118.75-82.959L128.76-71.7285L135.986-78.9551Q138.574-81.4941 138.574-84.5703Q138.574-87.5977 136.475-89.7217Q134.375-91.8457 131.25-91.8457Q127.93-91.8457 125.439-89.502Z"/>
  </g>
  <g id="Semibold-L" transform="matrix(1 0 0 1 1966.97 1556)">
   <path d="M76.2695 29.7852Q86.9629 29.7852 96.6797 26.4648Q106.396 23.1445 114.551 17.1631Q122.705 11.1816 128.687 3.02734Q134.668-5.12695 137.988-14.8438Q141.309-24.5605 141.309-35.2539Q141.309-45.9473 137.988-55.6641Q134.668-65.3809 128.662-73.5107Q122.656-81.6406 114.526-87.6465Q106.396-93.6523 96.6553-96.9727Q86.9141-100.293 76.2207-100.293Q65.5273-100.293 55.8105-96.9727Q46.0938-93.6523 37.9883-87.6465Q29.8828-81.6406 23.877-73.5107Q17.8711-65.3809 14.5752-55.6641Q11.2793-45.9473 11.2793-35.2539Q11.2793-24.5605 14.5996-14.8438Q17.9199-5.12695 23.9014 3.02734Q29.8828 11.1816 38.0127 17.1631Q46.1426 23.1445 55.8594 26.4648Q65.5762 29.7852 76.2695 29.7852ZM76.2695-24.5605Q73.3398-24.5605 70.9229-26.001Q68.5059-27.4414 67.0898-29.834Q65.6738-32.2266 65.6738-35.2051Q65.6738-38.1348 67.2363-40.5518Q68.7988-42.9688 71.4844-44.4824L71.4844-75.5859Q71.4844-77.5391 72.8516-78.9307Q74.2188-80.3223 76.2207-80.3223Q78.2715-80.3223 79.6631-78.9307Q81.0547-77.5391 81.0547-75.5859L81.0547-44.4336Q83.7891-42.9688 85.3027-40.5518Q86.8164-38.1348 86.8164-35.2051Q86.8164-32.2266 85.4248-29.834Q84.0332-27.4414 81.6162-26.001Q79.1992-24.5605 76.2695-24.5605ZM69.3359-97.2656L83.252-97.2168L83.252-107.08Q83.252-110.01 81.2012-112.061Q79.1504-114.111 76.2695-114.111Q73.4375-114.111 71.3867-112.061Q69.3359-110.01 69.3359-107.08ZM117.139-82.2266L126.465-72.0215L133.887-79.4922Q136.279-81.8848 136.279-84.7168Q136.279-87.4512 134.351-89.4043Q132.422-91.3574 129.541-91.3574Q126.514-91.3574 124.219-89.209Z"/>
  </g>
  <g id="Medium-L" transform="matrix(1 0 0 1 1670.87 1556)">
   <path d="M75.6836 29.1504Q86.2305 29.1504 95.8496 25.8545Q105.469 22.5586 113.55 16.626Q121.631 10.6934 127.563 2.63672Q133.496-5.41992 136.792-15.0635Q140.088-24.707 140.088-35.2539Q140.088-45.8496 136.792-55.4688Q133.496-65.0879 127.539-73.1445Q121.582-81.2012 113.525-87.1582Q105.469-93.1152 95.8252-96.3867Q86.1816-99.6582 75.6348-99.6582Q65.0391-99.6582 55.4199-96.3867Q45.8008-93.1152 37.7441-87.1582Q29.6875-81.2012 23.7549-73.1445Q17.8223-65.0879 14.5508-55.4688Q11.2793-45.8496 11.2793-35.2539Q11.2793-24.707 14.5508-15.0635Q17.8223-5.41992 23.7549 2.63672Q29.6875 10.6934 37.7686 16.626Q45.8496 22.5586 55.4688 25.8545Q65.0879 29.1504 75.6836 29.1504ZM75.6836-25.0977Q72.8516-25.0977 70.5811-26.4648Q68.3105-27.832 66.9678-30.127Q65.625-32.4219 65.625-35.2051Q65.625-38.0371 67.1631-40.3809Q68.7012-42.7246 71.2891-44.1406L71.2891-76.0742Q71.2891-77.8809 72.5586-79.126Q73.8281-80.3711 75.6348-80.3711Q77.4414-80.3711 78.7109-79.126Q79.9805-77.8809 79.9805-76.0742L79.9805-44.0918Q82.666-42.7246 84.1553-40.4053Q85.6445-38.0859 85.6445-35.2051Q85.6445-32.4219 84.3262-30.127Q83.0078-27.832 80.7373-26.4648Q78.4668-25.0977 75.6836-25.0977ZM69.1406-96.5332L82.1289-96.4844L82.1289-106.592Q82.1289-109.326 80.249-111.255Q78.3691-113.184 75.6348-113.184Q72.998-113.184 71.0693-111.255Q69.1406-109.326 69.1406-106.592ZM115.918-81.6895L124.707-72.2656L132.373-79.9316Q134.57-82.1289 134.57-84.8145Q134.57-87.3535 132.764-89.1846Q130.957-91.0156 128.271-91.0156Q125.439-91.0156 123.291-89.0137Z"/>
  </g>
  <g id="Regular-L" transform="matrix(1 0 0 1 1374.97 1556)">
   <path d="M74.8535 28.3203Q85.3027 28.3203 94.7998 25.0732Q104.297 21.8262 112.256 15.9668Q120.215 10.1074 126.099 2.14844Q131.982-5.81055 135.229-15.332Q138.477-24.8535 138.477-35.2539Q138.477-45.7031 135.229-55.2002Q131.982-64.6973 126.099-72.6562Q120.215-80.6152 112.256-86.499Q104.297-92.3828 94.7754-95.6299Q85.2539-98.877 74.8047-98.877Q64.3555-98.877 54.8584-95.6299Q45.3613-92.3828 37.4268-86.499Q29.4922-80.6152 23.6084-72.6562Q17.7246-64.6973 14.502-55.2002Q11.2793-45.7031 11.2793-35.2539Q11.2793-24.8535 14.5264-15.332Q17.7734-5.81055 23.6328 2.14844Q29.4922 10.1074 37.4512 15.9668Q45.4102 21.8262 54.9072 25.0732Q64.4043 28.3203 74.8535 28.3203ZM74.8535-25.8301Q72.2656-25.8301 70.1416-27.0996Q68.0176-28.3691 66.7725-30.4932Q65.5273-32.6172 65.5273-35.2051Q65.5273-37.9395 67.041-40.1855Q68.5547-42.4316 71.0449-43.7012L71.0449-76.7578Q71.0449-78.3203 72.1436-79.3945Q73.2422-80.4688 74.8047-80.4688Q76.416-80.4688 77.5146-79.3945Q78.6133-78.3203 78.6133-76.7578L78.6133-43.6523Q81.2012-42.4316 82.666-40.1855Q84.1309-37.9395 84.1309-35.2051Q84.1309-32.6172 82.9102-30.4932Q81.6895-28.3691 79.5654-27.0996Q77.4414-25.8301 74.8535-25.8301ZM68.9453-95.5566L80.7129-95.5566L80.7129-105.957Q80.7129-108.447 79.0039-110.229Q77.2949-112.012 74.8047-112.012Q72.4121-112.012 70.6787-110.229Q68.9453-108.447 68.9453-105.957ZM114.355-81.0059L122.461-72.5586L130.322-80.5176Q132.324-82.5195 132.324-84.9609Q132.324-87.2559 130.688-88.8916Q129.053-90.5273 126.611-90.5273Q124.023-90.5273 122.119-88.7207Z"/>
  </g>
  <g id="Light-L" transform="matrix(1 0 0 1 1079.18 1556)">
   <path d="M73.9258 27.3926Q84.2285 27.3926 93.6035 24.1943Q102.979 20.9961 110.815 15.2344Q118.652 9.47266 124.438 1.63574Q130.225-6.20117 133.423-15.5762Q136.621-24.9512 136.621-35.2539Q136.621-45.5566 133.423-54.9316Q130.225-64.3066 124.438-72.1436Q118.652-79.9805 110.815-85.7666Q102.979-91.5527 93.6035-94.751Q84.2285-97.9492 73.877-97.9492Q63.5742-97.9492 54.2236-94.751Q44.873-91.5527 37.0361-85.7666Q29.1992-79.9805 23.4131-72.1436Q17.627-64.3066 14.4531-54.9316Q11.2793-45.5566 11.2793-35.2539Q11.2793-24.9512 14.4775-15.5762Q17.6758-6.20117 23.4375 1.63574Q29.1992 9.47266 37.0361 15.2344Q44.873 20.9961 54.248 24.1943Q63.623 27.3926 73.9258 27.3926ZM73.9258-26.9043Q71.6797-26.9043 69.7998-28.0273Q67.9199-29.1504 66.8457-31.0303Q65.7715-32.9102 65.7715-35.2051Q65.7715-37.6465 67.1631-39.6484Q68.5547-41.6504 70.9961-42.8223L70.9961-78.2715Q70.9961-79.4922 71.8506-80.3223Q72.7051-81.1523 73.877-81.1523Q75.1953-81.1523 76.0498-80.3223Q76.9043-79.4922 76.9043-78.2715L76.9043-42.7246Q79.3945-41.5527 80.7373-39.5752Q82.0801-37.5977 82.0801-35.2051Q82.0801-32.9102 81.0059-31.0303Q79.9316-29.1504 78.0762-28.0273Q76.2207-26.9043 73.9258-26.9043ZM69.2383-94.7754L78.6133-94.7754L78.6133-106.787Q78.6133-108.789 77.2705-110.229Q75.9277-111.67 73.877-111.67Q71.9727-111.67 70.6055-110.229Q69.2383-108.789 69.2383-106.787ZM113.721-79.6387L120.215-72.9004L129.248-81.9824Q130.859-83.5938 130.859-85.5469Q130.859-87.4023 129.541-88.6963Q128.223-89.9902 126.27-89.9902Q124.17-89.9902 122.656-88.5742Z"/>
  </g>
  <g id="Thin-L" transform="matrix(1 0 0 1 783.693 1556)">
   <path d="M72.7051 26.1719Q82.8613 26.1719 92.041 23.0469Q101.221 19.9219 108.911 14.2822Q116.602 8.64258 122.266 0.952148Q127.93-6.73828 131.055-15.9424Q134.18-25.1465 134.18-35.2539Q134.18-45.4102 131.055-54.5898Q127.93-63.7695 122.29-71.46Q116.65-79.1504 108.936-84.8145Q101.221-90.4785 92.0166-93.6035Q82.8125-96.7285 72.7051-96.7285Q62.5488-96.7285 53.3691-93.6035Q44.1895-90.4785 36.499-84.8145Q28.8086-79.1504 23.1689-71.46Q17.5293-63.7695 14.4043-54.5898Q11.2793-45.4102 11.2793-35.2539Q11.2793-25.1465 14.4043-15.9424Q17.5293-6.73828 23.1689 0.952148Q28.8086 8.64258 36.5234 14.2822Q44.2383 19.9219 53.418 23.0469Q62.5977 26.1719 72.7051 26.1719ZM72.7051-28.3691Q70.8496-28.3691 69.3359-29.2725Q67.8223-30.1758 66.9434-31.7383Q66.0645-33.3008 66.0645-35.2051Q66.0645-37.2559 67.2852-38.916Q68.5059-40.5762 70.8984-41.6504L70.8984-80.2734Q70.8984-81.0059 71.4355-81.543Q71.9727-82.0801 72.7051-82.0801Q73.584-82.0801 74.1211-81.543Q74.6582-81.0059 74.6582-80.2734L74.6582-41.4551Q77.0508-40.4297 78.2227-38.7939Q79.3945-37.1582 79.3945-35.2051Q79.3945-33.252 78.4912-31.7139Q77.5879-30.1758 76.0986-29.2725Q74.6094-28.3691 72.7051-28.3691ZM69.5801-93.7012L75.8789-93.7012L75.8789-107.91Q75.8789-109.277 74.9756-110.229Q74.0723-111.182 72.7051-111.182Q71.3379-111.182 70.459-110.229Q69.5801-109.277 69.5801-107.91ZM112.842-77.8809L117.236-73.291L127.783-83.8867Q128.857-85.0098 128.857-86.377Q128.857-87.5488 127.979-88.4521Q127.1-89.3555 125.781-89.3555Q124.365-89.3555 123.34-88.3301Z"/>
  </g>
  <g id="Ultralight-L" transform="matrix(1 0 0 1 487.592 1556)">
   <path d="M72.0703 25.5371Q82.1289 25.5371 91.2354 22.4609Q100.342 19.3848 107.935 13.7939Q115.527 8.20312 121.143 0.585938Q126.758-7.03125 129.858-16.1133Q132.959-25.1953 132.959-35.2539Q132.959-45.3125 129.858-54.4189Q126.758-63.5254 121.167-71.1182Q115.576-78.7109 107.959-84.3262Q100.342-89.9414 91.2354-93.0176Q82.1289-96.0938 72.0703-96.0938Q62.0605-96.0938 52.9541-93.0176Q43.8477-89.9414 36.2305-84.3262Q28.6133-78.7109 23.0225-71.1182Q17.4316-63.5254 14.3555-54.4189Q11.2793-45.3125 11.2793-35.2539Q11.2793-25.1953 14.3555-16.1133Q17.4316-7.03125 23.0225 0.585938Q28.6133 8.20312 36.2305 13.7939Q43.8477 19.3848 52.9541 22.4609Q62.0605 25.5371 72.0703 25.5371ZM72.0703-29.1016Q70.459-29.1016 69.0918-29.9072Q67.7246-30.7129 66.9678-32.1045Q66.2109-33.4961 66.2109-35.2051Q66.2109-37.0117 67.3584-38.5254Q68.5059-40.0391 70.8496-41.0156L70.8496-81.2988Q70.8496-81.8359 71.2402-82.2021Q71.6309-82.5684 72.0703-82.5684Q72.7539-82.5684 73.1445-82.2021Q73.5352-81.8359 73.5352-81.2988L73.5352-40.8203Q75.8301-39.8438 76.9043-38.4033Q77.9785-36.9629 77.9785-35.2051Q77.9785-33.4473 77.1973-32.0557Q76.416-30.6641 75.0977-29.8828Q73.7793-29.1016 72.0703-29.1016ZM69.7754-93.1641L74.4629-93.1641L74.4629-108.496Q74.4629-109.521 73.8037-110.229Q73.1445-110.938 72.0703-110.938Q71.0449-110.938 70.4102-110.229Q69.7754-109.521 69.7754-108.496ZM112.402-76.9531L115.723-73.5352L127.051-84.8633Q127.881-85.7422 127.881-86.7676Q127.881-87.6465 127.197-88.3057Q126.514-88.9648 125.537-88.9648Q124.463-88.9648 123.73-88.2324Z"/>
  </g>
  <g id="Black-M" transform="matrix(1 0 0 1 2871.32 1126)">
   <path d="M62.0605 18.1152Q73.0957 18.1152 82.7637 13.9648Q92.4316 9.81445 99.7559 2.46582Q107.08-4.88281 111.255-14.5264Q115.43-24.1699 115.43-35.2051Q115.43-46.2402 111.255-55.8838Q107.08-65.5273 99.7559-72.876Q92.4316-80.2246 82.7637-84.375Q73.0957-88.5254 62.0605-88.5254Q51.0742-88.5254 41.4062-84.375Q31.7383-80.2246 24.3896-72.876Q17.041-65.5273 12.8906-55.8838Q8.74023-46.2402 8.74023-35.2051Q8.74023-24.1699 12.8906-14.5264Q17.041-4.88281 24.3896 2.46582Q31.7383 9.81445 41.4062 13.9648Q51.0742 18.1152 62.0605 18.1152ZM62.0605-24.4141Q57.6172-24.4141 54.4922-27.5391Q51.3672-30.6641 51.3672-35.2051Q51.3672-37.793 52.5879-39.9658Q53.8086-42.1387 56.2988-43.8965L56.2988-64.3066Q56.2988-66.6992 57.959-68.3594Q59.6191-70.0195 62.0605-70.0195Q64.502-70.0195 66.1621-68.3594Q67.8223-66.6992 67.8223-64.3066L67.8223-43.7988Q70.3125-42.1875 71.5576-40.0391Q72.8027-37.8906 72.8027-35.2051Q72.8027-30.6641 69.6777-27.5391Q66.5527-24.4141 62.0605-24.4141ZM54.6387-86.9629L69.5312-86.8652L69.5312-93.7012Q69.5312-96.875 67.3584-98.9502Q65.1855-101.025 62.1094-101.025Q59.1309-101.025 56.8848-98.9502Q54.6387-96.875 54.6387-93.7012ZM96.9238-74.0234L106.494-62.6465L111.67-67.7246Q114.209-70.2148 114.209-73.1934Q114.209-76.2207 112.158-78.3203Q110.107-80.4199 107.08-80.4199Q103.76-80.4199 101.318-78.125Z"/>
  </g>
  <g id="Heavy-M" transform="matrix(1 0 0 1 2575.43 1126)">
   <path d="M61.2305 17.2852Q72.0703 17.2852 81.5918 13.1836Q91.1133 9.08203 98.3154 1.85547Q105.518-5.37109 109.644-14.8682Q113.77-24.3652 113.77-35.2051Q113.77-46.0449 109.644-55.542Q105.518-65.0391 98.3154-72.29Q91.1133-79.541 81.5918-83.6182Q72.0703-87.6953 61.2305-87.6953Q50.4395-87.6953 40.918-83.6182Q31.3965-79.541 24.1699-72.29Q16.9434-65.0391 12.8418-55.542Q8.74023-46.0449 8.74023-35.2051Q8.74023-24.3652 12.8418-14.8682Q16.9434-5.37109 24.1699 1.85547Q31.3965 9.08203 40.918 13.1836Q50.4395 17.2852 61.2305 17.2852ZM61.2305-25.0977Q57.0312-25.0977 54.126-28.0273Q51.2207-30.957 51.2207-35.2051Q51.2207-37.7441 52.4414-39.8438Q53.6621-41.9434 56.0059-43.5059L56.0059-64.8438Q56.0059-66.9922 57.5195-68.5059Q59.0332-70.0195 61.2305-70.0195Q63.4277-70.0195 64.917-68.5059Q66.4062-66.9922 66.4062-64.8438L66.4062-43.457Q68.7988-41.9922 70.0439-39.8926Q71.2891-37.793 71.2891-35.2051Q71.2891-30.957 68.3594-28.0273Q65.4297-25.0977 61.2305-25.0977ZM54.2969-85.8887L68.1641-85.8398L68.1641-92.7246Q68.1641-95.6543 66.1377-97.6074Q64.1113-99.5605 61.2793-99.5605Q58.4961-99.5605 56.3965-97.6074Q54.2969-95.6543 54.2969-92.7246ZM95.0684-73.4375L104.053-62.9395L109.277-68.1152Q111.67-70.459 111.67-73.2422Q111.67-76.0254 109.766-77.9785Q107.861-79.9316 105.029-79.9316Q101.904-79.9316 99.6582-77.7832Z"/>
  </g>
  <g id="Bold-M" transform="matrix(1 0 0 1 2279.65 1126)">
   <path d="M60.3027 16.3574Q70.9473 16.3574 80.2734 12.3291Q89.5996 8.30078 96.7041 1.17188Q103.809-5.95703 107.861-15.2832Q111.914-24.6094 111.914-35.2539Q111.914-45.8496 107.861-55.1758Q103.809-64.502 96.7041-71.6309Q89.5996-78.7598 80.249-82.7881Q70.8984-86.8164 60.3027-86.8164Q49.707-86.8164 40.3564-82.7881Q31.0059-78.7598 23.9014-71.6309Q16.7969-64.502 12.7686-55.1758Q8.74023-45.8496 8.74023-35.2539Q8.74023-24.6094 12.7686-15.2832Q16.7969-5.95703 23.9258 1.17188Q31.0547 8.30078 40.3809 12.3291Q49.707 16.3574 60.3027 16.3574ZM60.3027-25.8789Q56.4453-25.8789 53.7354-28.6133Q51.0254-31.3477 51.0254-35.2051Q51.0254-37.6465 52.2461-39.6729Q53.4668-41.6992 55.7129-43.1152L55.7129-65.4297Q55.7129-67.334 57.0312-68.6523Q58.3496-69.9707 60.3027-69.9707Q62.2559-69.9707 63.5742-68.6523Q64.8926-67.334 64.8926-65.4297L64.8926-43.0664Q67.1387-41.748 68.3838-39.7461Q69.6289-37.7441 69.6289-35.2051Q69.6289-31.2988 66.9189-28.5889Q64.209-25.8789 60.3027-25.8789ZM53.9551-84.7168L66.6504-84.668L66.6504-91.6504Q66.6504-94.3359 64.7949-96.167Q62.9395-97.998 60.3027-97.998Q57.7637-97.998 55.8594-96.167Q53.9551-94.3359 53.9551-91.6504ZM92.9688-72.7539L101.318-63.3301L106.641-68.6035Q108.789-70.752 108.789-73.3398Q108.789-75.8789 107.056-77.6367Q105.322-79.3945 102.734-79.3945Q99.9023-79.3945 97.8516-77.4414Z"/>
  </g>
  <g id="Semibold-M" transform="matrix(1 0 0 1 1983.6 1126)">
   <path d="M59.668 15.6738Q70.1172 15.6738 79.3457 11.6943Q88.5742 7.71484 95.6055 0.683594Q102.637-6.34766 106.616-15.5518Q110.596-24.7559 110.596-35.2539Q110.596-45.7031 106.616-54.9072Q102.637-64.1113 95.6055-71.1426Q88.5742-78.1738 79.3457-82.1777Q70.1172-86.1816 59.6191-86.1816Q49.1699-86.1816 39.9658-82.1777Q30.7617-78.1738 23.7305-71.1426Q16.6992-64.1113 12.7197-54.9072Q8.74023-45.7031 8.74023-35.2539Q8.74023-24.7559 12.7197-15.5518Q16.6992-6.34766 23.7305 0.683594Q30.7617 7.71484 39.9902 11.6943Q49.2188 15.6738 59.668 15.6738ZM59.668-26.416Q56.0059-26.416 53.4424-28.9795Q50.8789-31.543 50.8789-35.2051Q50.8789-37.5977 52.0996-39.5752Q53.3203-41.5527 55.5176-42.8223L55.5176-65.8203Q55.5176-67.5781 56.7139-68.7744Q57.9102-69.9707 59.6191-69.9707Q61.4258-69.9707 62.5977-68.7744Q63.7695-67.5781 63.7695-65.8203L63.7695-42.7734Q65.9668-41.6016 67.2119-39.624Q68.457-37.6465 68.457-35.2051Q68.457-31.543 65.8936-28.9795Q63.3301-26.416 59.668-26.416ZM53.7109-83.8867L65.5762-83.8379L65.5762-90.8691Q65.5762-93.3594 63.8428-95.1172Q62.1094-96.875 59.668-96.875Q57.2266-96.875 55.4688-95.1172Q53.7109-93.3594 53.7109-90.8691ZM91.5039-72.3145L99.4141-63.5254L104.834-68.9453Q106.836-70.8984 106.836-73.3398Q106.836-75.7324 105.2-77.3682Q103.564-79.0039 101.123-79.0039Q98.4863-79.0039 96.5332-77.1973Z"/>
  </g>
  <g id="Medium-M" transform="matrix(1 0 0 1 1687.38 1126)">
   <path d="M59.1797 15.1855Q69.5312 15.1855 78.6621 11.2305Q87.793 7.27539 94.751 0.317383Q101.709-6.64062 105.664-15.7715Q109.619-24.9023 109.619-35.2539Q109.619-45.6055 105.664-54.7363Q101.709-63.8672 94.751-70.8252Q87.793-77.7832 78.6377-81.7383Q69.4824-85.6934 59.1309-85.6934Q48.7793-85.6934 39.6484-81.7383Q30.5176-77.7832 23.584-70.8252Q16.6504-63.8672 12.6953-54.7363Q8.74023-45.6055 8.74023-35.2539Q8.74023-24.9023 12.6953-15.7715Q16.6504-6.64062 23.6084 0.317383Q30.5664 7.27539 39.6973 11.2305Q48.8281 15.1855 59.1797 15.1855ZM59.1797-26.8066Q55.6641-26.8066 53.2471-29.2725Q50.8301-31.7383 50.8301-35.2051Q50.8301-37.5488 52.0508-39.4775Q53.2715-41.4062 55.3223-42.627L55.3223-66.1621Q55.3223-67.7246 56.4209-68.8232Q57.5195-69.9219 59.1309-69.9219Q60.791-69.9219 61.8896-68.8232Q62.9883-67.7246 62.9883-66.1621L62.9883-42.5781Q65.0879-41.4551 66.333-39.5264Q67.5781-37.5977 67.5781-35.2051Q67.5781-31.6895 65.1123-29.248Q62.6465-26.8066 59.1797-26.8066ZM53.5156-83.252L64.7461-83.2031L64.7461-90.2832Q64.7461-92.6758 63.1348-94.3359Q61.5234-95.9961 59.1309-95.9961Q56.8359-95.9961 55.1758-94.3359Q53.5156-92.6758 53.5156-90.2832ZM90.3809-71.9238L97.998-63.7207L103.418-69.1895Q105.322-71.0449 105.322-73.3887Q105.322-75.6348 103.76-77.1973Q102.197-78.7598 99.9023-78.7598Q97.4121-78.7598 95.6055-77.002Z"/>
  </g>
  <g id="Regular-M" transform="matrix(1 0 0 1 1391.3 1126)">
   <path d="M58.5449 14.5508Q68.75 14.5508 77.7588 10.6445Q86.7676 6.73828 93.6523-0.146484Q100.537-7.03125 104.443-16.04Q108.35-25.0488 108.35-35.2539Q108.35-45.459 104.443-54.4678Q100.537-63.4766 93.6523-70.3613Q86.7676-77.2461 77.7344-81.1523Q68.7012-85.0586 58.4961-85.0586Q48.291-85.0586 39.2822-81.1523Q30.2734-77.2461 23.4131-70.3613Q16.5527-63.4766 12.6465-54.4678Q8.74023-45.459 8.74023-35.2539Q8.74023-25.0488 12.6465-16.04Q16.5527-7.03125 23.4375-0.146484Q30.3223 6.73828 39.3311 10.6445Q48.3398 14.5508 58.5449 14.5508ZM58.5449-27.3438Q55.2246-27.3438 52.9541-29.6631Q50.6836-31.9824 50.6836-35.2051Q50.6836-37.5 51.9043-39.3799Q53.125-41.2598 55.127-42.334L55.127-66.5527Q55.127-67.9688 56.1035-68.9453Q57.0801-69.9219 58.4961-69.9219Q59.9609-69.9219 60.9375-68.9453Q61.9141-67.9688 61.9141-66.5527L61.9141-42.2852Q63.9648-41.3086 65.1855-39.4287Q66.4062-37.5488 66.4062-35.2051Q66.4062-31.9336 64.1113-29.6387Q61.8164-27.3438 58.5449-27.3438ZM53.2715-82.4219L63.7207-82.4219L63.7207-89.5508Q63.7207-91.748 62.207-93.335Q60.6934-94.9219 58.4961-94.9219Q56.3477-94.9219 54.8096-93.335Q53.2715-91.748 53.2715-89.5508ZM88.9648-71.4844L96.1426-63.9648L101.611-69.4824Q103.369-71.2402 103.369-73.4375Q103.369-75.4883 101.929-76.9287Q100.488-78.3691 98.3398-78.3691Q95.9961-78.3691 94.3359-76.7578Z"/>
  </g>
  <g id="Light-M" transform="matrix(1 0 0 1 1095.42 1126)">
   <path d="M57.7148 13.7207Q67.7734 13.7207 76.6357 9.8877Q85.498 6.05469 92.2607-0.708008Q99.0234-7.4707 102.856-16.333Q106.689-25.1953 106.689-35.2539Q106.689-45.3125 102.856-54.1748Q99.0234-63.0371 92.2607-69.7998Q85.498-76.5625 76.6113-80.3955Q67.7246-84.2285 57.666-84.2285Q47.6074-84.2285 38.7451-80.3955Q29.8828-76.5625 23.1445-69.7998Q16.4062-63.0371 12.5732-54.1748Q8.74023-45.3125 8.74023-35.2539Q8.74023-25.1953 12.5732-16.333Q16.4062-7.4707 23.1689-0.708008Q29.9316 6.05469 38.7939 9.8877Q47.6562 13.7207 57.7148 13.7207ZM57.7148-28.3203Q54.834-28.3203 52.8564-30.3467Q50.8789-32.373 50.8789-35.2051Q50.8789-37.207 52.002-38.8672Q53.125-40.5273 55.0293-41.5039L55.0293-67.9199Q55.0293-68.9941 55.8105-69.751Q56.5918-70.5078 57.666-70.5078Q58.8379-70.5078 59.6191-69.751Q60.4004-68.9941 60.4004-67.9199L60.4004-41.4551Q62.3535-40.5273 63.4521-38.8916Q64.5508-37.2559 64.5508-35.2051Q64.5508-32.3242 62.5732-30.3223Q60.5957-28.3203 57.7148-28.3203ZM53.5156-81.6895L61.8652-81.6895L61.8652-90.2832Q61.8652-92.0898 60.6689-93.335Q59.4727-94.5801 57.666-94.5801Q55.957-94.5801 54.7363-93.335Q53.5156-92.0898 53.5156-90.2832ZM88.3789-70.2637L94.1406-64.2578L100.635-70.8008Q102.051-72.2168 102.051-73.9746Q102.051-75.5859 100.903-76.7578Q99.7559-77.9297 97.998-77.9297Q96.1426-77.9297 94.8242-76.6113Z"/>
  </g>
  <g id="Thin-M" transform="matrix(1 0 0 1 799.782 1126)">
   <path d="M56.5918 12.5977Q66.5039 12.5977 75.1709 8.88672Q83.8379 5.17578 90.4297-1.44043Q97.0215-8.05664 100.781-16.7236Q104.541-25.3906 104.541-35.2539Q104.541-45.1172 100.781-53.7842Q97.0215-62.4512 90.4297-69.0674Q83.8379-75.6836 75.1709-79.3945Q66.5039-83.1055 56.5918-83.1055Q46.7285-83.1055 38.0615-79.3945Q29.3945-75.6836 22.8271-69.0674Q16.2598-62.4512 12.5-53.7842Q8.74023-45.1172 8.74023-35.2539Q8.74023-25.3906 12.4756-16.7236Q16.2109-8.05664 22.8027-1.44043Q29.3945 5.17578 38.0859 8.88672Q46.7773 12.5977 56.5918 12.5977ZM56.5918-29.5898Q54.2969-29.5898 52.71-31.2256Q51.123-32.8613 51.123-35.2051Q51.123-36.8652 52.0996-38.208Q53.0762-39.5508 54.9316-40.4297L54.9316-69.6777Q54.9316-70.4102 55.4443-70.874Q55.957-71.3379 56.5918-71.3379Q57.373-71.3379 57.8613-70.874Q58.3496-70.4102 58.3496-69.6777L58.3496-40.332Q60.2539-39.502 61.1816-38.1836Q62.1094-36.8652 62.1094-35.2051Q62.1094-32.8125 60.5225-31.2012Q58.9355-29.5898 56.5918-29.5898ZM53.8574-80.7617L59.375-80.7617L59.375-91.3086Q59.375-92.5293 58.5938-93.3594Q57.8125-94.1895 56.5918-94.1895Q55.4199-94.1895 54.6387-93.3594Q53.8574-92.5293 53.8574-91.3086ZM87.6465-68.6523L91.5039-64.6484L99.3164-72.5586Q100.293-73.4863 100.293-74.707Q100.293-75.7324 99.5117-76.5137Q98.7305-77.2949 97.5586-77.2949Q96.3379-77.2949 95.459-76.416Z"/>
  </g>
  <g id="Ultralight-M" transform="matrix(1 0 0 1 503.632 1126)">
   <path d="M56.0547 12.0605Q65.8203 12.0605 74.3896 8.37402Q82.959 4.6875 89.4775-1.83105Q95.9961-8.34961 99.707-16.9189Q103.418-25.4883 103.418-35.2539Q103.418-45.0195 99.707-53.5889Q95.9961-62.1582 89.4775-68.6768Q82.959-75.1953 74.3896-78.8818Q65.8203-82.5684 56.0547-82.5684Q46.2891-82.5684 37.7197-78.8818Q29.1504-75.1953 22.6562-68.6768Q16.1621-62.1582 12.4512-53.5889Q8.74023-45.0195 8.74023-35.2539Q8.74023-25.4883 12.4268-16.9189Q16.1133-8.34961 22.6318-1.83105Q29.1504 4.6875 37.7197 8.37402Q46.2891 12.0605 56.0547 12.0605ZM56.0547-30.2734Q54.0527-30.2734 52.6611-31.6895Q51.2695-33.1055 51.2695-35.2051Q51.2695-36.6699 52.1729-37.8662Q53.0762-39.0625 54.8828-39.8926L54.8828-70.6055Q54.8828-71.0938 55.249-71.4111Q55.6152-71.7285 56.0547-71.7285Q56.5918-71.7285 56.958-71.4111Q57.3242-71.0938 57.3242-70.6055L57.3242-39.7461Q59.1309-39.0137 60.0098-37.8174Q60.8887-36.6211 60.8887-35.2051Q60.8887-33.0566 59.4971-31.665Q58.1055-30.2734 56.0547-30.2734ZM54.0039-80.2734L58.1543-80.2734L58.1543-91.7969Q58.1543-92.7246 57.5684-93.335Q56.9824-93.9453 56.0547-93.9453Q55.1758-93.9453 54.5898-93.335Q54.0039-92.7246 54.0039-91.7969ZM87.2559-67.8711L90.1367-64.8438L98.6816-73.4375Q99.4141-74.1699 99.4141-75.0488Q99.4141-75.8301 98.8281-76.416Q98.2422-77.002 97.3633-77.002Q96.4355-77.002 95.8008-76.3184Z"/>
  </g>
  <g id="Black-S" transform="matrix(1 0 0 1 2884.57 696)">
   <path d="M48.8281 6.78711Q57.5195 6.78711 65.1123 3.51562Q72.7051 0.244141 78.4912-5.54199Q84.2773-11.3281 87.5488-18.9209Q90.8203-26.5137 90.8203-35.2051Q90.8203-43.8965 87.5488-51.4893Q84.2773-59.082 78.4912-64.8682Q72.7051-70.6543 65.1123-73.9258Q57.5195-77.1973 48.8281-77.1973Q40.1367-77.1973 32.5439-73.9258Q24.9512-70.6543 19.165-64.8682Q13.3789-59.082 10.1074-51.4893Q6.83594-43.8965 6.83594-35.2051Q6.83594-26.5137 10.1074-18.9209Q13.3789-11.3281 19.165-5.54199Q24.9512 0.244141 32.5439 3.51562Q40.1367 6.78711 48.8281 6.78711ZM48.8281-26.6113Q45.2637-26.6113 42.7734-29.1016Q40.2832-31.5918 40.2832-35.2051Q40.2832-37.2559 41.2598-38.9648Q42.2363-40.6738 44.1895-42.0898L44.1895-57.9102Q44.1895-59.8633 45.5322-61.2061Q46.875-62.5488 48.8281-62.5488Q50.7812-62.5488 52.124-61.2061Q53.4668-59.8633 53.4668-57.9102L53.4668-41.9922Q55.4688-40.7227 56.4209-39.0381Q57.373-37.3535 57.373-35.2051Q57.373-31.5918 54.8828-29.1016Q52.3926-26.6113 48.8281-26.6113ZM42.9199-76.0254L54.7852-75.9766L54.7852-81.3965Q54.7852-83.9355 53.0518-85.5713Q51.3184-87.207 48.877-87.207Q46.4844-87.207 44.7021-85.5713Q42.9199-83.9355 42.9199-81.3965ZM76.4648-65.7227L84.0332-56.6406L88.1348-60.6445Q90.1855-62.6465 90.1855-64.9902Q90.1855-67.4316 88.5498-69.0918Q86.9141-70.752 84.4727-70.752Q81.8359-70.752 79.8828-68.9453Z"/>
  </g>
  <g id="Heavy-S" transform="matrix(1 0 0 1 2588.47 696)">
   <path d="M48.1934 6.15234Q56.7871 6.15234 64.2578 2.92969Q71.7285-0.292969 77.4414-6.00586Q83.1543-11.7188 86.377-19.1895Q89.5996-26.6602 89.5996-35.2051Q89.5996-43.75 86.377-51.2451Q83.1543-58.7402 77.4414-64.4531Q71.7285-70.166 64.2334-73.3887Q56.7383-76.6113 48.1934-76.6113Q39.6484-76.6113 32.1777-73.3887Q24.707-70.166 18.9941-64.4531Q13.2812-58.7402 10.0586-51.2451Q6.83594-43.75 6.83594-35.2051Q6.83594-26.6602 10.0586-19.1895Q13.2812-11.7188 18.9941-6.00586Q24.707-0.292969 32.2021 2.92969Q39.6973 6.15234 48.1934 6.15234ZM48.1934-27.0508Q44.8242-27.0508 42.4805-29.4189Q40.1367-31.7871 40.1367-35.2051Q40.1367-37.2559 41.1133-38.916Q42.0898-40.5762 43.9453-41.8945L43.9453-58.2031Q43.9453-59.9609 45.1904-61.2061Q46.4355-62.4512 48.1934-62.4512Q50-62.4512 51.2207-61.2061Q52.4414-59.9609 52.4414-58.2031L52.4414-41.7969Q54.3945-40.625 55.3467-38.9648Q56.2988-37.3047 56.2988-35.2051Q56.2988-31.7871 53.9551-29.4189Q51.6113-27.0508 48.1934-27.0508ZM42.627-75.1953L53.8574-75.1465L53.8574-80.4688Q53.8574-82.8613 52.2217-84.4482Q50.5859-86.0352 48.2422-86.0352Q45.9961-86.0352 44.3115-84.4482Q42.627-82.8613 42.627-80.4688ZM74.9512-65.3809L82.2266-56.8848L86.2305-60.8398Q88.1836-62.7441 88.1836-64.9902Q88.1836-67.2363 86.6211-68.8232Q85.0586-70.4102 82.7637-70.4102Q80.2734-70.4102 78.418-68.7012Z"/>
  </g>
  <g id="Bold-S" transform="matrix(1 0 0 1 2292.42 696)">
   <path d="M47.5586 5.46875Q55.957 5.46875 63.3057 2.29492Q70.6543-0.878906 76.2695-6.51855Q81.8848-12.1582 85.083-19.5068Q88.2812-26.8555 88.2812-35.2539Q88.2812-43.6035 85.083-50.9766Q81.8848-58.3496 76.2695-63.9648Q70.6543-69.5801 63.2812-72.7539Q55.9082-75.9277 47.5098-75.9277Q39.1602-75.9277 31.7871-72.7539Q24.4141-69.5801 18.8232-63.9648Q13.2324-58.3496 10.0342-50.9766Q6.83594-43.6035 6.83594-35.2539Q6.83594-26.8555 10.0342-19.5068Q13.2324-12.1582 18.8477-6.51855Q24.4629-0.878906 31.8115 2.29492Q39.1602 5.46875 47.5586 5.46875ZM47.5586-27.5879Q44.3848-27.5879 42.1631-29.8096Q39.9414-32.0312 39.9414-35.2051Q39.9414-37.207 40.9424-38.8672Q41.9434-40.5273 43.7012-41.6504L43.7012-58.4961Q43.7012-60.1074 44.7998-61.2305Q45.8984-62.3535 47.5098-62.3535Q49.1211-62.3535 50.2441-61.2305Q51.3672-60.1074 51.3672-58.4961L51.3672-41.6016Q53.1738-40.5273 54.1504-38.8916Q55.127-37.2559 55.127-35.2051Q55.127-32.0312 52.9297-29.8096Q50.7324-27.5879 47.5586-27.5879ZM42.2852-74.3164L52.832-74.2676L52.832-79.3945Q52.832-81.6406 51.2939-83.1787Q49.7559-84.7168 47.5586-84.7168Q45.4102-84.7168 43.8477-83.1787Q42.2852-81.6406 42.2852-79.3945ZM73.2422-64.9902L80.1758-57.1289L84.1309-61.0352Q85.9375-62.8418 85.9375-64.9414Q85.9375-67.0898 84.4727-68.5547Q83.0078-70.0195 80.8594-70.0195Q78.5156-70.0195 76.8066-68.4082Z"/>
  </g>
  <g id="Semibold-S" transform="matrix(1 0 0 1 1996.2 696)">
   <path d="M47.0703 4.98047Q55.3711 4.98047 62.6465 1.85547Q69.9219-1.26953 75.4639-6.86035Q81.0059-12.4512 84.1553-19.7266Q87.3047-27.002 87.3047-35.2539Q87.3047-43.5059 84.1553-50.7812Q81.0059-58.0566 75.4395-63.623Q69.873-69.1895 62.5977-72.3389Q55.3223-75.4883 47.0215-75.4883Q38.7695-75.4883 31.4941-72.3389Q24.2188-69.1895 18.6768-63.623Q13.1348-58.0566 9.98535-50.7812Q6.83594-43.5059 6.83594-35.2539Q6.83594-27.002 9.98535-19.7266Q13.1348-12.4512 18.7012-6.86035Q24.2676-1.26953 31.543 1.85547Q38.8184 4.98047 47.0703 4.98047ZM47.0703-27.9297Q44.043-27.9297 41.9189-30.0537Q39.7949-32.1777 39.7949-35.2051Q39.7949-37.207 40.7959-38.8184Q41.7969-40.4297 43.5059-41.4551L43.5059-58.6914Q43.5059-60.2051 44.5312-61.2305Q45.5566-62.2559 47.0215-62.2559Q48.5352-62.2559 49.5605-61.2305Q50.5859-60.2051 50.5859-58.6914L50.5859-41.4062Q52.3438-40.4785 53.3203-38.8428Q54.2969-37.207 54.2969-35.2051Q54.2969-32.1777 52.1973-30.0537Q50.0977-27.9297 47.0703-27.9297ZM42.041-73.6816L52.0996-73.6328L52.0996-78.6621Q52.0996-80.8105 50.6348-82.2998Q49.1699-83.7891 47.0215-83.7891Q45.0195-83.7891 43.5303-82.2998Q42.041-80.8105 42.041-78.6621ZM72.0215-64.6973L78.7598-57.3242L82.6172-61.1816Q84.375-62.8906 84.375-64.9414Q84.375-66.9434 82.959-68.3594Q81.543-69.7754 79.4922-69.7754Q77.2949-69.7754 75.6348-68.2129Z"/>
  </g>
  <g id="Medium-S" transform="matrix(1 0 0 1 1699.83 696)">
   <path d="M46.7285 4.63867Q54.9316 4.63867 62.1338 1.51367Q69.3359-1.61133 74.8535-7.12891Q80.3711-12.6465 83.4961-19.8486Q86.6211-27.0508 86.6211-35.2539Q86.6211-43.4082 83.4961-50.6348Q80.3711-57.8613 74.8291-63.3789Q69.2871-68.8965 62.085-71.9971Q54.8828-75.0977 46.6797-75.0977Q38.4766-75.0977 31.2744-71.9971Q24.0723-68.8965 18.5791-63.3789Q13.0859-57.8613 9.96094-50.6348Q6.83594-43.4082 6.83594-35.2539Q6.83594-27.0508 9.96094-19.8486Q13.0859-12.6465 18.6035-7.12891Q24.1211-1.61133 31.3232 1.51367Q38.5254 4.63867 46.7285 4.63867ZM46.7285-28.2227Q43.7988-28.2227 41.7725-30.2734Q39.7461-32.3242 39.7461-35.2051Q39.7461-37.1582 40.7227-38.7695Q41.6992-40.3809 43.4082-41.3086L43.4082-58.8867Q43.4082-60.2539 44.3359-61.2305Q45.2637-62.207 46.6797-62.207Q48.0469-62.207 49.0234-61.2305Q50-60.2539 50-58.8867L50-41.3086Q51.709-40.3809 52.71-38.7939Q53.7109-37.207 53.7109-35.2051Q53.7109-32.3242 51.6602-30.2734Q49.6094-28.2227 46.7285-28.2227ZM41.8457-73.1934L51.5625-73.1934L51.5625-78.125Q51.5625-80.1758 50.1465-81.6406Q48.7305-83.1055 46.6797-83.1055Q44.7266-83.1055 43.2861-81.6406Q41.8457-80.1758 41.8457-78.125ZM71.1426-64.502L77.6855-57.4219L81.543-61.2793Q83.1543-62.9395 83.1543-64.8926Q83.1543-66.8457 81.8115-68.1885Q80.4688-69.5312 78.5156-69.5312Q76.3672-69.5312 74.8047-68.0664Z"/>
  </g>
  <g id="Regular-S" transform="matrix(1 0 0 1 1403.58 696)">
   <path d="M46.2402 4.15039Q54.3457 4.15039 61.4746 1.07422Q68.6035-2.00195 74.0479-7.4707Q79.4922-12.9395 82.5928-20.0684Q85.6934-27.1973 85.6934-35.2539Q85.6934-43.3105 82.5928-50.4395Q79.4922-57.5684 74.0234-63.0371Q68.5547-68.5059 61.4258-71.582Q54.2969-74.6582 46.1914-74.6582Q38.1348-74.6582 31.0059-71.582Q23.877-68.5059 18.457-63.0371Q13.0371-57.5684 9.93652-50.4395Q6.83594-43.3105 6.83594-35.2539Q6.83594-27.1973 9.93652-20.0684Q13.0371-12.9395 18.4814-7.4707Q23.9258-2.00195 31.0547 1.07422Q38.1836 4.15039 46.2402 4.15039ZM46.2402-28.5645Q43.457-28.5645 41.5283-30.5176Q39.5996-32.4707 39.5996-35.2051Q39.5996-37.1582 40.6006-38.7451Q41.6016-40.332 43.2129-41.1621L43.2129-59.082Q43.2129-60.3516 44.0674-61.2305Q44.9219-62.1094 46.1914-62.1094Q47.4609-62.1094 48.3398-61.2305Q49.2188-60.3516 49.2188-59.082L49.2188-41.1621Q50.8789-40.332 51.8799-38.7451Q52.8809-37.1582 52.8809-35.2051Q52.8809-32.4707 50.9521-30.5176Q49.0234-28.5645 46.2402-28.5645ZM41.6016-72.5586L50.8301-72.5586L50.8301-77.3926Q50.8301-79.3457 49.4873-80.7617Q48.1445-82.1777 46.1914-82.1777Q44.3359-82.1777 42.9688-80.7617Q41.6016-79.3457 41.6016-77.3926ZM69.9707-64.209L76.3184-57.6172L80.0781-61.4258Q81.6406-62.9883 81.6406-64.8926Q81.6406-66.6992 80.3467-67.9932Q79.0527-69.2871 77.1973-69.2871Q75.1465-69.2871 73.6816-67.8711Z"/>
  </g>
  <g id="Light-S" transform="matrix(1 0 0 1 1107.6 696)">
   <path d="M45.5078 3.41797Q53.4668 3.41797 60.4736 0.415039Q67.4805-2.58789 72.8271-7.95898Q78.1738-13.3301 81.2012-20.3125Q84.2285-27.2949 84.2285-35.2539Q84.2285-43.2129 81.2012-50.1953Q78.1738-57.1777 72.8027-62.5488Q67.4316-67.9199 60.4492-70.9229Q53.4668-73.9258 45.459-73.9258Q37.5488-73.9258 30.542-70.9229Q23.5352-67.9199 18.2129-62.5488Q12.8906-57.1777 9.86328-50.1953Q6.83594-43.2129 6.83594-35.2539Q6.83594-27.2949 9.86328-20.3125Q12.8906-13.3301 18.2373-7.95898Q23.584-2.58789 30.5908 0.415039Q37.5977 3.41797 45.5078 3.41797ZM45.5078-29.4434Q43.1152-29.4434 41.4307-31.1279Q39.7461-32.8125 39.7461-35.2051Q39.7461-36.9141 40.6738-38.3057Q41.6016-39.6973 43.1641-40.4297L43.1641-60.3027Q43.1641-61.2793 43.8232-61.9629Q44.4824-62.6465 45.459-62.6465Q46.4844-62.6465 47.168-61.9629Q47.8516-61.2793 47.8516-60.3027L47.8516-40.4297Q49.4629-39.6484 50.3662-38.2812Q51.2695-36.9141 51.2695-35.2051Q51.2695-32.8125 49.585-31.1279Q47.9004-29.4434 45.5078-29.4434ZM41.7969-71.9238L49.1699-71.9238L49.1699-78.0762Q49.1699-79.6387 48.0957-80.7617Q47.0215-81.8848 45.459-81.8848Q43.9941-81.8848 42.8955-80.7617Q41.7969-79.6387 41.7969-78.0762ZM69.4336-63.1348L74.5117-57.8613L79.1992-62.5977Q80.4688-63.8184 80.4688-65.3809Q80.4688-66.7969 79.4189-67.8223Q78.3691-68.8477 76.9043-68.8477Q75.2441-68.8477 74.1211-67.7246Z"/>
  </g>
  <g id="Thin-S" transform="matrix(1 0 0 1 811.867 696)">
   <path d="M44.5312 2.44141Q52.3438 2.44141 59.1553-0.488281Q65.9668-3.41797 71.1914-8.64258Q76.416-13.8672 79.3457-20.6787Q82.2754-27.4902 82.2754-35.2539Q82.2754-43.0176 79.3457-49.8291Q76.416-56.6406 71.1914-61.8652Q65.9668-67.0898 59.1553-70.0195Q52.3438-72.9492 44.5312-72.9492Q36.7676-72.9492 29.9316-70.0195Q23.0957-67.0898 17.9199-61.8652Q12.7441-56.6406 9.79004-49.8291Q6.83594-43.0176 6.83594-35.2539Q6.83594-27.4902 9.79004-20.6787Q12.7441-13.8672 17.9199-8.64258Q23.0957-3.41797 29.9316-0.488281Q36.7676 2.44141 44.5312 2.44141ZM44.5312-30.5664Q42.627-30.5664 41.3086-31.9336Q39.9902-33.3008 39.9902-35.2051Q39.9902-36.5723 40.7959-37.6953Q41.6016-38.8184 43.0664-39.502L43.0664-61.9141Q43.0664-62.5488 43.5059-62.9639Q43.9453-63.3789 44.5312-63.3789Q45.2148-63.3789 45.6543-62.9639Q46.0938-62.5488 46.0938-61.9141L46.0938-39.4531Q47.5586-38.7695 48.3398-37.6709Q49.1211-36.5723 49.1211-35.2051Q49.1211-33.252 47.7783-31.9092Q46.4355-30.5664 44.5312-30.5664ZM42.0898-71.0938L47.0215-71.0938L47.0215-78.9551Q47.0215-80.0293 46.2891-80.7617Q45.5566-81.4941 44.5312-81.4941Q43.5059-81.4941 42.7979-80.7617Q42.0898-80.0293 42.0898-78.9551ZM68.7988-61.7188L72.168-58.2031L78.0762-64.1113Q78.9062-64.9414 78.9062-66.0156Q78.9062-66.9434 78.1982-67.627Q77.4902-68.3105 76.5137-68.3105Q75.4395-68.3105 74.6582-67.5781Z"/>
  </g>
  <g id="Ultralight-S" transform="matrix(1 0 0 1 515.644 696)">
   <path d="M44.043 1.95312Q51.7578 1.95312 58.4717-0.927734Q65.1855-3.80859 70.3369-8.95996Q75.4883-14.1113 78.3936-20.8252Q81.2988-27.5391 81.2988-35.2539Q81.2988-42.9688 78.3936-49.6826Q75.4883-56.3965 70.3369-61.5479Q65.1855-66.6992 58.4717-69.5801Q51.7578-72.4609 44.043-72.4609Q36.377-72.4609 29.6387-69.5801Q22.9004-66.6992 17.7734-61.5479Q12.6465-56.3965 9.74121-49.6826Q6.83594-42.9688 6.83594-35.2539Q6.83594-27.5391 9.74121-20.8252Q12.6465-14.1113 17.7734-8.95996Q22.9004-3.80859 29.6387-0.927734Q36.377 1.95312 44.043 1.95312ZM44.043-31.1523Q42.3828-31.1523 41.2354-32.3242Q40.0879-33.4961 40.0879-35.2051Q40.0879-36.4258 40.8447-37.4023Q41.6016-38.3789 43.0176-39.0137L43.0176-62.6953Q43.0176-63.1836 43.335-63.4521Q43.6523-63.7207 44.043-63.7207Q44.5312-63.7207 44.8486-63.4521Q45.166-63.1836 45.166-62.6953L45.166-38.916Q46.6309-38.2812 47.3145-37.3291Q47.998-36.377 47.998-35.2051Q47.998-33.4473 46.8506-32.2998Q45.7031-31.1523 44.043-31.1523ZM42.2363-70.6543L45.8984-70.6543L45.8984-79.4434Q45.8984-80.2246 45.3613-80.7617Q44.8242-81.2988 44.043-81.2988Q43.2617-81.2988 42.749-80.7617Q42.2363-80.2246 42.2363-79.4434ZM68.4082-60.9863L70.9473-58.3496L77.4902-64.9414Q78.0762-65.5273 78.0762-66.3574Q78.0762-67.041 77.5635-67.5293Q77.0508-68.0176 76.3184-68.0176Q75.4883-68.0176 74.9512-67.4805Z"/>
  </g>
 </g>
</svg>
